<svg width="480" height="320" viewBox="0 0 480 320" fill="none" xmlns="http://www.w3.org/2000/svg">
<path d="M209.662 66.7812H212.771C215.826 66.926 218.879 67.2301 221.887 67.8036C226.169 68.6101 230.364 69.8674 234.4 71.5074C237.919 72.9536 241.346 74.653 244.542 76.7236C246.119 77.7872 247.644 78.9246 249.16 80.0716C251.996 82.2553 254.773 84.5302 257.305 87.0649C258.666 88.4738 260.017 89.9334 260.966 91.6616C261.753 93.0839 262.112 94.7094 262.156 96.3264C262.108 98.1697 261.674 99.9986 260.891 101.668C260.296 103.027 259.373 104.21 258.345 105.267C257.047 106.59 255.547 107.716 253.909 108.585C253.248 108.915 252.589 109.281 251.857 109.422C250.773 109.707 249.643 109.726 248.534 109.651C246.576 109.444 244.708 108.686 243.065 107.62C241.881 106.829 240.727 105.941 239.878 104.784C238.132 102.643 236.131 100.704 233.905 99.0654C230.892 96.827 227.487 95.1343 223.914 93.9969C219.636 92.6504 215.137 92.0213 210.654 92.0951C209.379 92.075 208.104 92.1354 206.834 92.2457C204.758 92.4538 202.657 92.6696 200.672 93.3486C198.707 93.9825 196.791 94.7641 194.927 95.6503C188.851 98.537 183.282 102.618 179.03 107.859C176.78 110.645 174.915 113.747 173.563 117.066C171.868 121.195 170.942 125.631 170.734 130.085C170.591 131.412 170.729 132.745 170.807 134.071C171.136 138.136 172.045 142.165 173.609 145.937C175.052 149.436 177.06 152.696 179.493 155.594C184.083 161.042 190.099 165.181 196.61 168.005C198.355 168.75 200.133 169.428 201.963 169.932C203.333 170.242 204.727 170.434 206.125 170.577C210.722 171.046 215.394 170.854 219.927 169.932C223.94 169.11 227.84 167.667 231.348 165.541C234.336 163.744 237.014 161.448 239.29 158.812C239.748 158.305 240.133 157.738 240.597 157.237C241.825 156.057 243.226 155.048 244.769 154.321C246.416 153.54 248.246 153.107 250.073 153.195C251.106 153.292 252.163 153.437 253.103 153.908C255.295 154.919 257.259 156.403 258.875 158.193C260.944 160.442 262.059 163.485 262.156 166.521C262.118 167.951 261.852 169.388 261.238 170.688C260.71 171.825 259.96 172.84 259.16 173.798C258.221 174.9 257.225 175.953 256.162 176.935C253.654 179.305 250.961 181.471 248.203 183.541C246.23 185.021 244.227 186.474 242.067 187.672C239.206 189.307 236.209 190.7 233.134 191.884C225.771 194.707 217.878 196.274 209.979 196.075C209.373 196.062 208.764 196.088 208.162 196.009C207.54 195.939 206.914 195.994 206.294 195.928C201.936 195.741 197.622 194.907 193.431 193.719C185.821 191.533 178.611 188.012 172.143 183.453C170.819 182.526 169.524 181.555 168.306 180.492C164.382 177.081 160.911 173.164 157.895 168.933C153.134 162.234 149.589 154.653 147.65 146.66C146.42 141.942 145.634 137.08 145.688 132.195C145.692 130.882 145.674 129.568 145.72 128.254C145.928 124.339 146.555 120.445 147.549 116.652C148.039 114.591 148.625 112.555 149.32 110.554C152.371 101.708 157.395 93.5768 163.786 86.7542C166.216 84.1878 168.818 81.7624 171.721 79.735C178.145 75.146 185.309 71.5755 192.882 69.3332C197.106 68.0846 201.462 67.2358 205.861 66.9711C206.464 66.951 207.071 66.9884 207.671 66.8973C208.331 66.8129 209 66.8531 209.662 66.7812V66.7812ZM356.812 67.0574C357.29 67.0565 357.768 67.0239 358.246 66.9807C359.238 66.9606 360.23 66.9711 361.223 66.9692C362.186 66.951 363.144 67.0728 364.108 67.0728C364.711 67.1476 365.321 67.1409 365.925 67.2214C377.804 68.2284 389.358 72.6745 398.872 79.8549C404.875 84.3585 410.08 89.9229 414.18 96.2094C418.466 102.777 421.544 110.134 423.177 117.806C424.027 121.702 424.45 125.679 424.615 129.658V133.056C424.536 133.833 424.588 134.619 424.476 135.393C424.205 139.864 423.459 144.308 422.259 148.624C419.226 159.591 413.19 169.701 405.005 177.601C399.503 182.944 393.031 187.282 386.008 190.36C377.771 193.963 368.767 195.816 359.777 195.713C350.934 195.697 342.103 193.775 334.027 190.175C327.238 187.149 320.983 182.932 315.626 177.779C310.443 172.802 306.089 166.957 302.835 160.55C298.661 152.402 296.292 143.339 295.904 134.197C295.902 132.823 295.732 131.448 295.863 130.075C295.99 122.193 297.611 114.335 300.59 107.035C303.628 99.5785 308.097 92.7156 313.653 86.8913C318.905 81.3912 325.134 76.8253 331.965 73.483C339.702 69.6948 348.211 67.4957 356.812 67.0574ZM356.807 92.1958C354.657 92.402 352.513 92.7453 350.417 93.2901C342.986 95.1823 336.146 99.3292 331.031 105.042C325.577 111.045 322.07 118.8 321.193 126.86C321.096 127.157 321.161 127.471 321.107 127.774C320.97 128.286 321.096 128.825 320.975 129.341C320.915 129.999 320.956 130.662 320.943 131.323C320.959 132.124 320.891 132.932 321.029 133.725C320.999 134.307 321.11 134.877 321.139 135.455C321.386 137.603 321.753 139.747 322.352 141.828C323.809 147.221 326.493 152.267 330.07 156.552C335.082 162.557 341.928 167.041 349.471 169.14C351.903 169.858 354.423 170.285 356.944 170.501C357.434 170.595 357.938 170.52 358.435 170.577C358.778 170.675 359.14 170.622 359.495 170.642C360.256 170.641 361.02 170.658 361.783 170.622C362.098 170.532 362.43 170.562 362.757 170.551C369.761 170.136 376.653 167.754 382.438 163.769C388.582 159.568 393.494 153.583 396.397 146.727C398.06 142.849 399.053 138.683 399.394 134.491C399.36 134.041 399.508 133.604 399.487 133.155C399.481 131.807 399.505 130.459 399.473 129.112C399.328 128.582 399.463 128.022 399.309 127.493C399.303 126.968 399.206 126.45 399.146 125.93C397.994 117.373 393.893 109.241 387.677 103.246C386.29 101.832 384.741 100.589 383.148 99.4183C380.032 97.1982 376.609 95.3932 372.977 94.1801C369.933 93.1126 366.735 92.4663 363.529 92.1939C363.102 92.2361 362.697 92.0759 362.275 92.1018C360.768 92.0846 359.262 92.0721 357.757 92.1162C357.444 92.191 357.124 92.2006 356.807 92.1958Z" fill="#EC0C8C"/>
<path d="M85.3738 69.9087C89.5735 68.7904 93.9112 68.1536 98.2566 68.1076C102.558 68.0318 106.875 68.4797 111.055 69.5097C114.86 70.4946 118.57 71.9351 121.929 73.9894C125.105 75.9938 127.978 78.4547 130.561 81.1764C135.536 86.4473 139.418 92.8345 141.346 99.8489C142.859 105.255 143.198 110.956 142.52 116.518C142.343 119.368 141.662 122.171 140.684 124.848C138.997 129.406 136.474 133.612 133.591 137.508C130.778 141.296 127.598 144.801 124.188 148.059C122.761 149.452 121.219 150.716 119.736 152.048C115.309 155.991 110.885 159.939 106.455 163.879C105.01 165.2 103.507 166.459 102.088 167.807C104.805 167.897 107.523 167.787 110.241 167.858C113.854 167.856 117.465 167.874 121.078 167.868C121.939 167.962 122.806 167.912 123.67 167.924C130.288 167.943 136.904 167.966 143.521 167.964C144.163 167.933 144.799 168.058 145.442 168.019C146.203 167.973 146.94 168.204 147.658 168.43C149.213 168.955 150.664 169.807 151.85 170.947C154.21 173.196 155.342 176.466 155.53 179.665C155.731 181.686 155.528 183.766 154.816 185.675C154.214 187.286 153.193 188.729 151.903 189.863C150.455 191.132 148.705 192.029 146.872 192.601C146.153 192.81 145.424 193.014 144.677 193.089C135.083 193.099 125.489 193.074 115.895 193.083C114.749 192.977 113.597 193.048 112.449 193.027C108.293 193.021 104.138 193.04 99.9829 193.017C94.4195 192.987 88.8542 193.028 83.2898 192.995C77.9499 192.992 72.61 193.003 67.27 192.986C66.5977 192.977 65.9158 193.037 65.2541 192.882C62.0778 192.276 58.9954 190.569 57.2068 187.814C56.0636 186.09 55.5505 184.031 55.3846 181.99V180.294C55.4326 179.796 55.4498 179.294 55.5371 178.8C55.8392 176.049 56.8711 173.304 58.8065 171.281C59.357 170.678 60.0302 170.21 60.6344 169.666C64.0745 166.677 67.552 163.731 71.0132 160.766C76.0481 156.465 81.0764 152.154 86.073 147.808C91.5002 143.083 96.8996 138.327 102.192 133.451C104.949 130.901 107.684 128.324 110.304 125.633C111.388 124.537 112.45 123.411 113.33 122.14C115.541 119.031 117.038 115.354 117.285 111.525C117.469 108.855 116.995 106.156 116.023 103.667C115.599 102.537 115.032 101.463 114.322 100.486C113.279 99.028 112.054 97.6969 110.651 96.5786C107.807 94.2702 104.213 92.8873 100.549 92.7568C99.8832 92.6849 99.2099 92.6916 98.5443 92.7597C97.5489 92.7827 96.5601 92.9237 95.5799 93.0896C92.6961 93.6794 89.9964 95.1238 87.8817 97.1684C85.8821 99.075 84.4311 101.508 83.5114 104.102C82.7192 106.318 82.2828 108.649 82.093 110.99C82.0306 113.902 81.4245 116.826 80.1749 119.465C79.4191 121.014 78.4054 122.458 77.0963 123.591C75.8764 124.657 74.4101 125.433 72.8516 125.873C71.3268 126.316 69.729 126.427 68.1485 126.365C64.7698 126.374 61.3767 124.82 59.31 122.122C58.0153 120.443 57.2356 118.418 56.8481 116.346C56.4396 114.332 56.4722 112.269 56.5278 110.225C56.8203 105.121 58.0095 100.086 59.8499 95.3223C62.2667 89.123 65.8449 83.318 70.6372 78.6724C74.762 74.6406 79.8373 71.5563 85.3738 69.9087ZM229.215 124.656C229.444 124.576 229.691 124.595 229.933 124.594C235.623 124.597 241.313 124.616 247.003 124.615C247.831 124.635 248.663 124.566 249.487 124.671C251.95 124.68 254.413 124.651 256.875 124.692C263.431 124.688 269.986 124.719 276.541 124.711C277.206 124.808 277.879 124.753 278.55 124.767C281.747 124.751 284.944 124.798 288.142 124.787C289.074 124.794 290.007 124.772 290.94 124.802C290.942 137.077 290.941 149.352 290.941 161.627C290.936 169.525 290.953 177.424 290.933 185.322C290.823 187.344 290.361 189.375 289.397 191.17C288.687 192.476 287.717 193.655 286.513 194.536C284.979 195.702 283.125 196.385 281.243 196.73C278.821 197.147 276.292 197.182 273.917 196.483C271.705 195.85 269.721 194.463 268.367 192.603C267.132 190.918 266.345 188.923 266.002 186.868C265.944 186.418 265.984 185.963 265.974 185.512V150.214C256.708 150.221 247.443 150.258 238.179 150.213C237.413 150.196 236.643 150.259 235.883 150.158C234.406 150.157 232.93 150.127 231.454 150.113C230.691 150.003 229.914 150.089 229.153 149.975C227.059 149.775 225.003 148.988 223.366 147.656C221.844 146.429 220.749 144.726 220.099 142.895C219.53 141.338 219.292 139.685 219.185 138.04C219.165 136.936 219.13 135.825 219.332 134.735C219.632 132.796 220.467 130.948 221.702 129.425C223.618 127.089 226.344 125.515 229.215 124.656ZM294.397 197.15C295.241 197.023 296.139 197.14 296.884 197.577C297.902 198.172 298.654 199.217 298.858 200.384C298.969 201.232 298.922 202.127 298.547 202.909C298.227 203.598 297.696 204.178 297.068 204.598C296.141 205.205 294.943 205.332 293.893 205.015C292.812 204.677 291.922 203.822 291.484 202.787C291.159 202.059 291.128 201.24 291.222 200.461C291.454 198.848 292.763 197.401 294.397 197.15ZM114.613 210.115C116.825 209.235 119.247 208.947 121.611 209.139C123.463 209.296 125.293 209.781 126.951 210.626C128.533 211.411 129.943 212.511 131.179 213.768C133.368 216 134.941 218.86 135.495 221.949C135.913 224.001 135.758 226.103 135.789 228.182C135.787 231.314 135.792 234.447 135.786 237.581C135.781 239.378 135.492 241.177 134.906 242.877C133.785 246.125 131.538 248.936 128.736 250.9C127.13 252.036 125.276 252.786 123.361 253.219H117.187C113.585 252.444 110.297 250.347 108.05 247.432C108.041 247.379 108.021 247.274 108.011 247.222C107.052 246.323 106.62 244.922 106.856 243.637C107.072 241.995 108.445 240.58 110.074 240.297C110.946 240.167 111.874 240.296 112.634 240.759C113.222 241.11 113.725 241.608 114.064 242.206C114.374 242.824 114.903 243.29 115.413 243.742C118.048 246.012 122.312 246.029 124.968 243.781C126.378 242.639 127.438 241.039 127.815 239.253C128.072 238.267 127.967 237.244 127.988 236.238C127.989 232.948 127.988 229.659 127.989 226.369C127.965 225.391 128.072 224.397 127.833 223.438C127.481 221.688 126.464 220.118 125.127 218.957C123.982 217.943 122.513 217.294 120.986 217.167C120.146 217.143 119.29 217.11 118.469 217.326C116.71 217.711 115.185 218.831 114.095 220.24C112.955 221.692 112.353 223.559 112.443 225.404C112.364 228.81 114.814 232.057 118.062 233.022C118.945 233.296 119.877 233.311 120.793 233.36C122.43 233.59 123.773 235.012 124.053 236.621C124.124 237.374 124.133 238.166 123.833 238.876C123.566 239.599 123.046 240.206 122.442 240.674C121.602 241.315 120.486 241.51 119.456 241.365C117.067 241.294 114.697 240.614 112.639 239.398C109.699 237.636 107.315 234.938 105.95 231.791C104.446 228.219 104.286 224.132 105.334 220.415C105.832 218.682 106.653 217.047 107.719 215.595C109.479 213.208 111.838 211.208 114.613 210.115ZM249.595 210.642C252.328 209.275 255.485 208.851 258.499 209.257C260.831 209.56 263.078 210.459 264.99 211.827C267.933 213.954 270.251 217.018 271.249 220.53C271.866 222.63 271.98 224.847 271.811 227.02C271.617 229.058 271.056 231.066 270.098 232.879C268.617 235.665 266.34 238.036 263.594 239.597C261.769 240.613 259.721 241.221 257.638 241.369C256.712 241.461 255.735 241.513 254.86 241.143C253.752 240.684 252.911 239.67 252.593 238.521C252.285 237.35 252.458 236.031 253.172 235.035C253.845 234.04 254.992 233.349 256.208 233.353C257.951 233.392 259.706 232.809 261.05 231.691C262.314 230.662 263.313 229.278 263.77 227.705C264.322 225.77 264.22 223.628 263.37 221.792C262.721 220.398 261.656 219.211 260.387 218.349C257.888 216.685 254.353 216.762 251.944 218.562C249.924 220.023 248.551 222.413 248.532 224.93C248.531 232.952 248.531 240.976 248.532 248.999C248.559 249.888 248.441 250.822 247.96 251.59C247.542 252.301 246.886 252.851 246.155 253.219H243.098C242.009 252.664 241.108 251.66 240.869 250.44C240.713 249.842 240.772 249.222 240.763 248.613C240.762 241.134 240.763 233.654 240.763 226.176C240.739 224.987 240.777 223.797 240.957 222.622C241.324 220.002 242.385 217.49 243.99 215.388C245.49 213.433 247.382 211.748 249.595 210.642ZM154.082 209.229C155.726 209.239 157.393 209.419 158.962 209.952C160.881 210.551 162.64 211.605 164.153 212.921C165.505 214.109 166.694 215.491 167.614 217.041C169.165 219.631 169.894 222.68 169.811 225.69C169.73 227.523 168.204 229.211 166.362 229.386C165.915 229.496 165.463 229.382 165.021 229.313C163.913 229.067 162.997 228.253 162.47 227.266C162.121 226.576 162 225.788 162.026 225.021C161.992 223.23 161.299 221.467 160.137 220.105C158.952 218.68 157.275 217.617 155.421 217.366C153.446 217.047 151.335 217.541 149.746 218.772C148.304 219.879 147.171 221.437 146.72 223.212C146.528 223.862 146.489 224.539 146.433 225.21C146.434 229.338 146.435 233.466 146.433 237.594C146.466 239.13 145.487 240.614 144.091 241.238C143.125 241.647 141.996 241.644 141.03 241.238C139.63 240.617 138.676 239.116 138.708 237.586C138.71 233.558 138.709 229.531 138.709 225.504C138.668 223.557 138.973 221.617 139.61 219.776C140.329 217.717 141.507 215.83 142.988 214.234C144.01 213.127 145.165 212.14 146.453 211.356C148.232 210.262 150.256 209.575 152.331 209.346C152.909 209.235 153.501 209.301 154.082 209.229ZM186.884 209.228C188.96 209.072 191.078 209.253 193.062 209.913C196.169 210.921 198.819 213.06 200.756 215.658C201.963 217.284 202.851 219.145 203.339 221.111C204.182 224.567 203.998 228.295 202.668 231.609C201.55 234.344 199.634 236.733 197.285 238.513C194.74 240.469 191.521 241.532 188.312 241.459C185.182 241.541 182.036 240.565 179.508 238.715C176.652 236.625 174.405 233.638 173.405 230.226C172.897 228.541 172.692 226.775 172.734 225.018C172.737 222.522 173.324 220.024 174.456 217.797C176.055 214.747 178.595 212.167 181.686 210.63C183.312 209.845 185.085 209.381 186.884 209.228ZM187.011 217.316C185.006 217.619 183.224 218.852 182.038 220.47C179.91 223.278 179.938 227.496 182.096 230.279C182.985 231.391 184.104 232.36 185.444 232.879C186.986 233.493 188.718 233.566 190.317 233.142C192.644 232.504 194.554 230.668 195.482 228.464C196.201 226.65 196.256 224.589 195.668 222.731C195.184 221.198 194.18 219.872 192.951 218.854C191.681 217.826 190.054 217.195 188.409 217.25C187.942 217.256 187.471 217.224 187.011 217.316ZM209.909 209.233C210.694 209.109 211.527 209.174 212.244 209.536C213.548 210.188 214.465 211.573 214.495 213.039C214.491 217.129 214.495 221.218 214.493 225.309C214.478 226.855 214.884 228.419 215.732 229.72C216.481 230.87 217.501 231.854 218.703 232.523C220.212 233.344 222.003 233.582 223.685 233.289C225.211 233.033 226.625 232.244 227.698 231.136C228.75 230.106 229.525 228.786 229.86 227.349C230.185 226.024 230.094 224.653 230.106 223.302V213.615C230.112 213.164 230.067 212.704 230.191 212.266C230.413 211.238 231.077 210.33 231.948 209.753C233.203 208.94 234.965 208.978 236.164 209.884C236.756 210.312 237.237 210.894 237.531 211.565C237.787 212.079 237.835 212.66 237.886 213.224C237.885 216.71 237.886 220.197 237.886 223.684C237.899 225.025 237.886 226.369 237.71 227.701C237.423 230.022 236.594 232.27 235.316 234.23C234.046 236.149 232.404 237.828 230.483 239.101C228.093 240.681 225.217 241.519 222.352 241.459C219.407 241.537 216.443 240.683 213.998 239.04C211.767 237.529 209.898 235.476 208.615 233.105C207.469 230.98 206.852 228.579 206.77 226.171C206.696 225.725 206.732 225.274 206.725 224.826C206.726 221.12 206.725 217.413 206.726 213.705C206.7 212.795 206.822 211.835 207.332 211.058C207.892 210.133 208.829 209.413 209.909 209.233ZM294.12 209.336C294.421 209.25 294.743 209.291 295.048 209.208C295.324 209.287 295.617 209.253 295.899 209.321C297.664 209.733 299.018 211.511 298.901 213.328C298.9 221.477 298.901 229.626 298.901 237.775C298.863 239.64 297.313 241.369 295.438 241.526C294.597 241.595 293.717 241.439 293.009 240.964C291.883 240.24 291.149 238.926 291.179 237.582C291.173 229.784 291.178 221.985 291.176 214.186C291.18 213.673 291.156 213.159 291.211 212.648C291.416 211.106 292.596 209.707 294.12 209.336ZM317.222 209.228C319.22 209.226 321.237 209.548 323.094 210.313C326.331 211.656 329.024 214.165 330.807 217.162C332.013 219.218 332.719 221.561 332.884 223.937C332.982 224.807 332.932 225.688 332.947 226.562C332.944 230.268 332.953 233.974 332.943 237.678C332.932 239.731 331.086 241.634 329.003 241.537C326.94 241.6 325.197 239.696 325.157 237.687C325.16 233.657 325.157 229.627 325.159 225.597C325.183 224.856 325.114 224.113 324.936 223.394C324.495 221.468 323.262 219.772 321.67 218.626C320.12 217.505 318.117 217.064 316.235 217.362C314.395 217.592 312.732 218.631 311.541 220.027C310.236 221.494 309.545 223.453 309.566 225.409C309.568 229.246 309.566 233.083 309.567 236.921C309.575 237.642 309.571 238.389 309.286 239.066C308.922 239.973 308.221 240.729 307.355 241.176C306.361 241.645 305.17 241.664 304.159 241.237C303.15 240.789 302.367 239.887 302.02 238.844C301.789 238.159 301.825 237.428 301.822 236.718V226.842C301.828 225.796 301.8 224.745 301.895 223.702C302.088 221.517 302.716 219.366 303.78 217.443C304.74 215.705 306.036 214.161 307.529 212.857C309.72 210.938 312.488 209.673 315.389 209.354C315.993 209.233 316.613 209.302 317.222 209.228ZM350.115 209.322C352.404 209.161 354.746 209.428 356.895 210.267C358.768 210.979 360.462 212.118 361.908 213.5C362.459 213.981 362.937 214.567 363.214 215.25C363.631 216.294 363.625 217.5 363.185 218.535C362.789 219.423 362.065 220.174 361.168 220.558C360.39 220.906 359.502 220.931 358.68 220.757C357.944 220.572 357.296 220.134 356.784 219.582C355.375 218.141 353.367 217.284 351.345 217.354C349.491 217.301 347.653 218.044 346.302 219.305C345.141 220.375 344.224 221.749 343.853 223.297C343.276 225.587 343.631 228.162 345.035 230.095C345.922 231.316 347.081 232.38 348.486 232.971C350.258 233.698 352.301 233.716 354.094 233.044C355.138 232.648 356.066 231.991 356.848 231.2C358.041 229.811 360.275 229.585 361.77 230.607C363.352 231.644 363.938 233.845 363.22 235.571C362.98 236.171 362.558 236.675 362.119 237.14C360.862 238.358 359.439 239.42 357.849 240.161C355.829 241.122 353.582 241.596 351.348 241.555C348.972 241.6 346.585 241.047 344.478 239.946C341.68 238.46 339.366 236.114 337.809 233.367C336.793 231.542 336.167 229.506 335.952 227.431C335.836 226.762 335.918 226.077 335.812 225.409C335.926 224.738 335.83 224.051 335.956 223.382C336.198 221.003 337.001 218.682 338.282 216.66C340.113 213.787 342.816 211.416 346.026 210.212C347.336 209.716 348.722 209.441 350.115 209.322ZM274.262 234.641C274.979 233.894 276.095 233.472 277.117 233.75C277.859 233.916 278.5 234.392 278.96 234.988C279.73 236.05 280.004 237.453 279.673 238.725C279.177 240.365 278.375 241.958 277.115 243.143C276.716 243.518 276.235 243.857 275.68 243.923C275.467 243.952 275.221 243.757 275.298 243.532C275.466 242.845 275.845 242.199 275.841 241.478C275.019 241.321 274.318 240.761 273.853 240.082C272.766 238.456 272.902 236.071 274.262 234.641ZM370.357 235.127C371.404 234.95 372.519 235.346 373.257 236.106C373.821 236.709 374.201 237.516 374.188 238.353C374.237 239.522 373.6 240.69 372.591 241.282C371.866 241.755 370.959 241.826 370.124 241.697C369.377 241.507 368.674 241.091 368.213 240.466C367.469 239.526 367.316 238.171 367.803 237.08C368.248 236.049 369.245 235.29 370.357 235.127Z" fill="#EC0C8C"/>
</svg>
