<svg width="480" height="320" viewBox="0 0 480 320" fill="none" xmlns="http://www.w3.org/2000/svg">
<path d="M280.722 99.5383C273.421 104.939 266.156 110.39 258.93 115.891C258.427 116.395 258.003 116.829 257.665 117.167C257.163 117.505 256.662 117.843 256.151 118.181C253.591 120.238 250.972 122.223 248.298 124.132C245.897 126.127 243.489 128.115 241.074 130.095C237.255 133.281 233.453 136.489 229.67 139.718C226.137 142.59 222.676 145.55 219.29 148.593C218.605 149.271 217.933 149.857 217.266 150.356C216.506 151.044 215.702 151.759 214.856 152.52C211.496 155.627 208.115 158.712 204.713 161.773C201.262 165.074 197.54 168.624 193.576 172.428L203.702 187.758C207.163 183.793 210.452 179.976 213.593 176.35C216.461 172.812 219.416 169.345 222.456 165.953C222.793 165.615 223.128 165.198 223.466 164.69L224.481 163.676C227.685 160.125 230.894 156.578 234.109 153.037C237.237 149.558 240.698 145.683 244.498 141.368C246.688 138.747 249.177 135.953 251.963 132.994C254.711 130.083 257.5 127.211 260.328 124.377C260.666 123.878 261.001 123.456 261.339 123.118C261.676 122.78 262.027 122.441 262.365 122.103C269.618 114.326 276.371 107.311 282.632 101.063C288.625 94.9857 291.609 91.8624 291.609 91.6841C290.951 92.0235 287.308 94.6369 280.722 99.5383ZM160.894 257.285C163.172 254.334 165.074 251.672 166.596 249.309C167.99 246.95 169.219 244.497 170.273 241.968C171.488 239.68 172.425 237.254 173.063 234.744C173.81 232.132 174.448 229.178 174.947 225.876V225.632C175.459 223.016 175.797 220.515 175.962 218.152C176.136 215.701 176.3 213.338 176.474 211.064V207.778C176.289 204.89 175.951 202.013 175.46 199.161C174.892 196.131 174.176 193.131 173.313 190.171C172.641 190.847 169.974 193.332 165.337 197.634C160.17 202.26 155.059 206.949 150.007 211.7L149.746 211.949L149.491 212.198C147.553 213.974 145.654 215.792 143.793 217.65C141.946 219.259 140.132 220.906 138.352 222.59C135.728 224.953 133.661 226.94 132.139 228.543C130.597 229.998 129.035 231.431 127.452 232.84L127.203 233.23C124.76 235.418 121.873 238.166 118.584 241.455C115.3 244.747 110.021 250.035 102.755 257.283H55.3846C58.0856 253.319 63.8581 247.282 72.7398 239.181C81.3541 230.99 91.0193 222.498 101.742 213.729C103.179 212.537 104.659 211.311 106.172 210.047C107.605 208.812 109.085 207.633 110.609 206.513C124.624 194.857 137.588 184.719 149.489 176.103C159.883 168.504 165.673 164.716 166.845 164.716L166.934 164.738L167.112 164.954L166.934 164.738C166.447 164.028 164.935 161.699 162.411 157.739C159.546 153.174 155.658 148.234 150.753 142.913C149.598 141.502 148.42 140.11 147.22 138.737C145.78 137.384 144.392 136.069 143.04 134.798C135.939 128.298 127.203 122.169 116.811 116.429C106.26 110.864 95.2396 106.241 83.8768 102.613C82.2415 102.072 80.5954 101.565 78.9394 101.091C78.2483 100.883 77.5521 100.691 76.8515 100.517C71.5262 96.9265 66.0774 94.3663 60.186 90.5612C64.6745 91.4996 69.1881 92.5865 73.7361 93.8627C76.0585 94.3786 78.3644 94.9664 80.6503 95.6253C82.9618 96.2978 85.2655 97.1001 87.5567 98.0385C94.7654 100.271 101.865 102.841 108.833 105.739C115.658 108.703 122.05 111.812 127.961 115.106C145.938 124.544 159.453 133.149 168.494 140.9C177.447 148.911 181.995 153.072 182.173 153.424C183.77 151.823 190.703 146.81 202.942 138.373C216.221 129.116 229.519 119.888 242.837 110.688C243.243 110.475 243.628 110.224 243.987 109.939C244.148 109.765 244.414 109.588 244.747 109.427C256.092 101.627 267.496 93.9118 278.957 86.2822C289.671 79.2069 297.519 74.0302 302.513 70.7334L304.663 69.2164C305.847 68.2061 307.499 67.1207 309.601 65.9321C311.784 64.842 314.454 63.7942 317.577 62.7666C320.542 61.7563 323.739 61.2668 327.217 61.2668C327.217 62.6196 320.028 73.5798 305.675 94.188C289.341 117.501 273.169 140.927 257.161 164.464C255.822 166.652 254.431 168.807 252.989 170.928C251.486 173.152 250.005 175.39 248.547 177.644C239.214 191.71 230.05 205.889 221.057 220.175C212.279 234.204 205.013 246.57 199.273 257.287H160.894" fill="#ED2225"/>
<path d="M346.54 214.428C346.48 214.558 346.327 215.136 346.045 216.172C345.75 217.182 344.65 220.205 342.778 225.23C341.962 227.459 341.135 229.684 340.296 231.905C337.283 232.141 335.601 232.26 335.25 232.26C333.428 232.26 331.103 232.227 328.276 232.143C327.211 232.116 326.679 231.965 326.679 231.694C326.679 231.585 326.828 231.383 327.122 231.07C327.173 231.125 327.439 230.748 327.921 229.936C328.019 229.755 329.477 227.739 332.297 223.871C333.382 222.404 335.095 220.599 337.436 218.457C339.772 216.305 341.566 214.894 342.8 214.243C344.608 213.285 345.623 212.801 345.822 212.801C346.397 212.801 346.69 213.105 346.69 213.71C346.679 213.956 346.628 214.198 346.54 214.428ZM348.149 250.898C348.251 250.396 348.374 249.877 348.507 249.343C348.584 247.323 350.109 242.37 353.09 234.473C356.23 226.172 358.28 220.399 359.252 217.157C360.224 213.917 360.711 211.258 360.711 209.186C360.711 208.078 360.418 207.196 359.815 206.532C359.227 205.886 358.415 205.551 357.375 205.551C356.039 205.551 353.931 205.931 351.056 206.688C347.347 207.674 343.8 209.192 340.525 211.194C332.092 216.32 324.696 224.124 318.331 234.594C316.161 238.128 314.347 241.868 312.916 245.76C311.479 249.67 310.761 252.767 310.761 255.039C310.761 255.973 310.964 256.725 311.349 257.271C311.746 257.825 312.266 258.103 312.916 258.103C313.373 258.103 314.028 257.926 314.882 257.574C316.709 256.802 318.914 256.268 321.496 255.993C320.22 253.377 319.848 248.838 321.459 245.612L321.671 245.848C321.965 243.402 322.891 240.235 324.477 236.339C326.543 236.086 328.911 235.967 331.587 235.967C334.211 235.967 336.552 236.086 338.628 236.339C336.621 242.521 335.37 246.575 334.882 248.524C334.405 250.433 334.162 252.393 334.159 254.36C334.159 255.513 334.363 256.431 334.788 257.099C335.204 257.771 335.766 258.101 336.479 258.101C337.007 258.101 337.844 257.865 338.983 257.382C339.891 257.027 341.18 256.664 342.85 256.289C344.524 255.909 345.923 255.679 347.068 255.607C347.401 255.582 347.692 255.561 347.98 255.544C347.689 253.958 347.833 252.466 348.149 250.898ZM246.165 209.958C245.885 212.435 245.278 215.136 244.309 218.061C242.871 222.378 242 225.066 241.702 226.126C243.827 225.111 245.641 224.012 247.124 222.829C248.824 221.491 250.175 219.964 251.187 218.252C252.189 216.539 252.692 214.888 252.692 213.289C252.692 212.11 252.391 211.172 251.766 210.474C251.153 209.774 250.328 209.439 249.276 209.439C248.555 209.439 247.515 209.614 246.165 209.958ZM239.487 232.919C238.824 234.056 237.526 237.492 235.574 243.219C234.534 247.01 234.023 249.234 234.023 249.948C234.023 251.406 234.75 252.132 236.186 252.132C237.471 252.132 238.824 251.62 240.252 250.61C241.664 249.584 242.961 248.167 244.11 246.353C246.351 242.904 247.551 239.245 247.724 235.365C247.801 233.89 247.488 232.706 246.766 231.807C246.038 230.92 245.038 230.441 243.772 230.391C241.902 230.391 240.477 231.228 239.487 232.919ZM220.76 256.411C220.296 255.696 220.071 254.737 220.071 253.524C220.071 249.057 222.585 240.205 227.624 226.968C230.735 218.752 232.287 214.039 232.287 212.826C232.287 212.614 232.249 212.425 232.185 212.251C232.771 210.426 232.873 208.202 234.514 206.724C234.687 206.724 234.851 206.71 235.025 206.697C236.035 206.625 238.711 206.339 243.073 205.826C246.45 205.446 249.515 205.26 252.282 205.26C256.224 205.26 259.404 206.051 261.805 207.639C263.868 208.999 264.908 210.903 264.908 213.349C264.908 216.725 263.004 219.689 259.193 222.224C259.193 222.256 257.254 223.341 253.394 225.474C255.546 225.953 257.182 226.603 258.331 227.401C261.146 229.354 262.54 232.241 262.54 236.103C262.54 239.176 261.594 242.282 259.707 245.405C257.153 249.531 253.566 252.62 248.936 254.658C245.827 256.018 242.884 256.708 240.111 256.708C239.173 256.708 237.161 256.547 234.046 256.211C232.942 256.082 231.831 256.011 230.72 255.999C228.594 255.999 226.619 256.325 224.806 256.971C223.796 257.323 223.044 257.495 222.57 257.495C221.813 257.496 221.208 257.136 220.76 256.411ZM268.433 254.432V248.549V254.432ZM284.407 255.835C283.761 254.668 283.001 252.534 282.12 249.406C280.717 244.204 279.644 238.919 278.908 233.582C277.205 234.744 275.234 236.871 272.97 239.956C270.383 243.522 269.077 246.506 269.077 248.958C269.077 249.711 269.23 250.269 269.542 250.621L270.417 255.358C270.059 255.425 269.64 255.485 269.171 255.535C268.216 255.648 267.271 255.832 266.343 256.085C265.194 256.373 264.268 256.664 263.578 256.961C262.601 257.371 261.853 257.579 261.326 257.579C260.855 257.579 260.438 257.338 260.128 256.852C259.803 256.373 259.626 255.785 259.626 255.075C259.626 253.348 260.227 251.136 261.426 248.481C262.618 245.82 264.202 243.172 266.163 240.519C269.13 236.52 273.107 232.479 278.057 228.392C277.993 228.02 277.74 226.642 277.305 224.267C276.379 219.115 275.505 215.687 274.681 213.988C274.208 213.001 273.483 212.155 272.579 211.538C272.879 209.947 271.633 208.363 271.404 206.779L274.125 206.913C276.531 206.913 279.021 206.488 281.632 205.642C282.432 205.388 283.07 205.262 283.559 205.262C284.843 205.262 285.943 206.542 286.881 209.09C287.405 210.554 288.082 213.067 288.88 216.63C289.269 218.236 289.53 219.39 289.684 220.08C292.258 218.425 294.519 216.702 296.484 214.877C298.432 213.055 299.41 211.766 299.41 211C299.416 210.84 299.381 210.682 299.308 210.54C300.5 209.935 300.284 206.511 301.696 206.35L301.809 206.324C301.973 206.311 302.148 206.288 302.325 206.273C303.335 206.223 304.709 205.975 306.463 205.513C307.263 205.288 307.913 205.176 308.385 205.176C309.547 205.176 310.123 205.826 310.123 207.11C310.123 209.722 307.46 212.986 302.134 216.899C297.946 220.002 294.058 222.581 290.483 224.642C291.883 232.892 293.099 238.844 294.071 242.47C294.885 245.466 295.605 247.496 296.26 248.549C296.559 249.023 296.937 249.461 297.372 249.833L297.671 250.058C298.845 251.123 298.859 252.784 298.859 254.432C298.859 252.784 298.845 251.123 297.671 250.058C298.106 250.396 298.622 250.694 299.193 250.945C299.472 251.054 299.721 251.161 299.95 251.261L299.193 250.945L300.148 254.833C299.624 255.005 298.96 255.131 298.16 255.183C294.044 255.535 290.857 256.186 288.583 257.124C287.793 257.423 287.167 257.576 286.693 257.576C285.811 257.577 285.047 256.999 284.407 255.835ZM368.455 253.151C368.387 251.91 368.595 250.671 369.292 249.432C369.685 246.925 371.586 241.233 374.997 232.326C377.418 225.978 379.104 221.164 380.065 217.9C381.023 214.638 381.502 212.016 381.502 210.05C381.502 207.675 380.782 206.497 379.345 206.497C378.885 206.497 378.26 206.636 377.451 206.907C376.594 207.187 375.44 207.461 373.981 207.736C372.536 208.011 371.458 208.15 370.753 208.15L368.598 208.074C368.66 210.771 369.37 213.471 366.987 216.169C366.823 216.782 366.616 217.482 366.363 218.294C365.576 220.805 364.689 223.284 363.704 225.724C360.306 234.396 357.986 240.801 356.738 244.952C355.496 249.093 354.871 252.543 354.871 255.292C354.871 256.325 355.084 257.161 355.496 257.787C355.92 258.413 356.477 258.733 357.182 258.733C357.761 258.733 358.585 258.525 359.643 258.123C361.788 257.266 364.533 256.688 367.863 256.387C368.315 256.342 368.721 256.303 369.075 256.265C368.763 255.227 368.513 254.184 368.455 253.151ZM410.26 221.871C409.351 224.622 408.213 227.01 406.861 229.038C405.225 231.503 403.07 232.732 400.407 232.732C399.853 232.732 399.211 232.639 398.48 232.467L399.162 230.463C401.764 223.249 403.343 218.73 403.895 216.918C404.463 215.03 404.843 213.09 405.028 211.126C406.109 210.771 407.074 210.595 407.928 210.595C410.383 210.595 411.617 211.926 411.617 214.584C411.616 216.688 411.164 219.115 410.26 221.871ZM420.793 209.114C418.605 207.368 414.981 206.492 409.947 206.492C407.512 206.492 405.563 206.56 404.076 206.679C402.593 206.81 398.924 207.215 393.07 207.891C392.339 207.98 391.718 208.052 391.181 208.116C391.214 210.149 391.435 212.138 390.915 213.555C390.951 213.718 390.978 213.895 390.978 214.106C390.978 214.914 390.707 216.1 390.174 217.658C389.645 219.226 388.488 222.281 386.691 226.821C381.141 240.827 378.365 250.26 378.365 255.135C378.365 257.531 379.125 258.732 380.648 258.732C381.15 258.732 381.923 258.516 382.956 258.09C384.046 257.659 385.59 257.244 387.606 256.838C388.799 256.593 390.004 256.408 391.216 256.284C391.305 254.146 391.622 251.821 392.661 249.817C392.823 247.606 394.057 243.643 396.403 237.876L396.632 238.561C398.042 243.208 398.973 246.115 399.425 247.307C399.877 248.491 400.638 250.11 401.694 252.143C404.015 256.539 406.855 258.732 410.199 258.732C412.066 258.732 413.733 258.09 415.194 256.802C416.204 255.893 416.911 254.87 417.324 253.724C413.27 249.027 406.344 247.681 403.499 242.274C402.31 240.63 401.311 238.613 400.49 236.214C401.098 236.259 401.674 236.276 402.231 236.276C406.031 236.276 409.626 235.477 412.983 233.871C416.359 232.266 419.031 230.089 421.026 227.337C423.422 224.002 424.615 220.54 424.615 216.947C424.614 213.773 423.341 211.151 420.793 209.114Z" fill="black"/>
<path d="M131.962 102.189L133.412 100.725L135.07 99.9528L137.491 100.05L145.343 99.5633L158.027 99.3272L160.398 104.247L131.962 102.189ZM174.761 105.283L166.755 98.9002L177.22 98.2121L188.091 97.4379L191.109 97.0188L190.806 97.4379L187.725 100.136L186.799 100.754L180.624 105.262L180.058 105.669L174.761 105.283ZM141.368 119.505L141.802 119.071L142.605 118.268C142.605 118.268 144.055 117.541 144.929 117.181C145.809 116.818 146.895 116.889 146.895 116.889L153.069 116.665L158.809 116.382L166.416 116.104L166.657 116.665L166.694 116.948L166.153 117.539L164.488 120.079L141.368 119.505Z" fill="black"/>
<path d="M131.962 102.189L133.412 100.725L135.07 99.9528L137.491 100.05L145.343 99.5633L158.027 99.3272L160.398 104.247L131.962 102.189M174.761 105.283L166.755 98.9002L177.22 98.2121L188.091 97.4379L191.109 97.0188L190.806 97.4379L187.725 100.136L186.799 100.754L180.624 105.262L180.058 105.669L174.761 105.283M141.368 119.505L141.802 119.071L142.605 118.268C142.605 118.268 144.055 117.541 144.929 117.181C145.809 116.818 146.895 116.889 146.895 116.889L153.069 116.665L158.809 116.382L166.416 116.104L166.657 116.665L166.694 116.948L166.153 117.539L164.488 120.079L141.368 119.505" stroke="white" stroke-width="0.0781977"/>
<path d="M176.816 107.966L173.637 110.28L169.863 113.478L166.697 116.948L166.658 116.665L164.409 111.442L162.085 107.286L160.919 105.33L156.78 96.7498L160.273 94.4242L166.519 98.7141L177.276 107.286L176.816 107.966Z" fill="black" stroke="white" stroke-width="0.0781977"/>
<path d="M222.548 96.1743L223.677 95.447C223.208 95.7551 222.793 96.0304 222.456 96.254L222.548 96.1743ZM163.835 121.543C164.119 120.893 164.483 120.093 164.483 120.093L166.156 117.544L169.86 113.478L173.638 110.278L176.837 107.954L180.628 105.266L186.802 100.752C186.802 100.752 187.14 100.519 187.723 100.131L187.701 100.148L187.6 100.441L189.536 104.028C189.536 104.028 192.249 105.089 193.699 104.413C195.161 103.728 197.185 101.792 197.185 101.792L199.325 98.9894C199.325 98.9894 198.352 96.3604 198.267 95.9709C198.166 95.5862 197.185 94.712 196.513 94.4242C196.453 94.4023 196.399 94.3773 196.339 94.3522C199.725 92.0908 202.853 90.0029 203.441 89.6354C204.827 88.7611 214.642 82.51 214.642 82.51L223.657 76.47C223.657 76.47 227.947 74.293 229.545 73.7096C231.146 73.1356 233.683 72.9073 234.845 72.5429C236.012 72.1801 237.839 72.618 237.839 72.618L239.435 73.3452C239.435 73.3452 239.647 73.7081 240.446 73.78C241.248 73.8566 242.487 74.5025 242.698 74.8669C242.921 75.2298 243.425 76.2573 243.061 76.9798C242.698 77.7071 242.85 77.3427 242.562 79.1569C242.258 80.982 241.611 81.6326 241.611 81.6326C241.611 81.6326 241.248 82.2081 240.444 83.8816C239.645 85.5597 236.669 87.2973 235.36 87.9604L163.856 122.338C163.746 122.169 163.671 121.898 163.835 121.543Z" fill="black"/>
<path d="M222.548 96.1743L223.677 95.447C223.208 95.7551 222.793 96.0304 222.456 96.254L222.548 96.1743M163.835 121.543C164.119 120.893 164.483 120.093 164.483 120.093L166.156 117.544L169.86 113.478L173.638 110.278L176.837 107.954L180.628 105.266L186.802 100.752C186.802 100.752 187.14 100.519 187.723 100.131L187.701 100.148L187.6 100.441L189.536 104.028C189.536 104.028 192.249 105.089 193.699 104.413C195.161 103.728 197.185 101.792 197.185 101.792L199.325 98.9894C199.325 98.9894 198.352 96.3604 198.267 95.9709C198.166 95.5862 197.185 94.712 196.513 94.4242C196.453 94.4023 196.399 94.3773 196.339 94.3522C199.725 92.0908 202.853 90.0029 203.441 89.6354C204.827 88.7611 214.642 82.51 214.642 82.51L223.657 76.47C223.657 76.47 227.947 74.293 229.545 73.7096C231.146 73.1356 233.683 72.9073 234.845 72.5429C236.012 72.1801 237.839 72.618 237.839 72.618L239.435 73.3452C239.435 73.3452 239.647 73.7081 240.446 73.78C241.248 73.8566 242.487 74.5025 242.698 74.8669C242.921 75.2298 243.425 76.2573 243.061 76.9798C242.698 77.7071 242.85 77.3427 242.562 79.1569C242.258 80.982 241.611 81.6326 241.611 81.6326C241.611 81.6326 241.248 82.2081 240.444 83.8816C239.645 85.5597 236.669 87.2973 235.36 87.9604L163.856 122.338C163.746 122.169 163.671 121.898 163.835 121.543" stroke="white" stroke-width="0.0781977"/>
<path d="M164.334 123.068L163.845 122.341L235.363 87.9572L222.548 96.1743L222.248 96.4276L220.996 95.6378L209.018 106.792L209.137 106.787L208.241 107.464L197.492 112.452L189.727 116.193L182.431 118.636L181.4 118.467L175.584 119.634L178.349 119.959L173.446 121.37C173.446 121.37 168.893 122.633 168.412 122.869C167.922 123.12 166.217 123.503 165.693 123.503C165.159 123.504 164.334 123.068 164.334 123.068Z" fill="black"/>
<path d="M164.334 123.068L163.845 122.341L235.363 87.9572L222.548 96.1743L222.248 96.4276L220.996 95.6378L209.018 106.792L209.137 106.787L208.241 107.464L197.492 112.452L189.727 116.193L182.431 118.636L181.4 118.467L175.584 119.634L178.349 119.959L173.446 121.37C173.446 121.37 168.893 122.633 168.412 122.869C167.922 123.12 166.217 123.503 165.693 123.503C165.159 123.504 164.334 123.068 164.334 123.068" stroke="white" stroke-width="0.0781977"/>
<path d="M220.996 95.6378L225.696 98.5999L226.369 99.0691C225.959 100.126 225.934 101.309 225.934 101.309L226.175 101.889L228.211 103.339L229.762 103.778L233.549 103.389L235.091 102.805L235.146 102.813L240.424 103.924L240.859 104.122L240.909 104.261L239.312 104.798L237.072 105.711L234.409 105.96L209.02 106.789L220.996 95.6378Z" fill="black"/>
<path d="M220.996 95.6378L225.696 98.5999L226.369 99.0691C225.959 100.126 225.934 101.309 225.934 101.309L226.175 101.889L228.211 103.339L229.762 103.778L233.549 103.389L235.091 102.805L235.146 102.813L240.424 103.924L240.859 104.122L240.909 104.261L239.312 104.798L237.072 105.711L234.409 105.96L209.02 106.789L220.996 95.6378" stroke="white" stroke-width="0.0781977"/>
<path d="M228.211 103.339L226.17 101.889L225.934 101.313C225.934 101.313 225.985 98.9378 227.101 97.9102C228.211 96.8968 229.285 96.1226 229.623 96.0757C229.956 96.0257 230.152 95.7379 231.361 95.447C232.573 95.1514 233.161 95.1968 233.736 95.1968C234.328 95.1968 235.338 95.447 235.44 95.5862C235.536 95.7379 236.5 96.462 236.5 96.462L237.138 97.8649C237.138 97.8649 237.125 99.0238 237.074 99.2771C237.036 99.5133 236.55 101.062 236.55 101.062C236.55 101.062 236.115 101.653 235.777 101.839C235.44 102.042 235.338 102.718 235.338 102.718L233.55 103.39L229.759 103.78L228.211 103.339ZM189.537 104.027L187.601 100.439L187.7 100.147L190.801 97.4379C190.801 97.4379 192.251 95.5033 192.64 95.0122C193.03 94.5258 193.616 94.1364 194.192 94.0348C194.775 93.9503 195.84 94.1364 196.516 94.4242C197.193 94.712 198.164 95.5862 198.266 95.9756C198.355 96.3604 199.331 98.9894 199.331 98.9894L197.193 101.787C197.193 101.787 195.169 103.727 193.707 104.416C193.355 104.577 192.928 104.637 192.493 104.637C191.101 104.637 189.537 104.027 189.537 104.027ZM175.585 119.629L181.402 118.465L185.565 119.142L185.374 120.208H180.424L175.585 119.629Z" fill="black"/>
<path d="M228.211 103.339L226.17 101.889L225.934 101.313C225.934 101.313 225.985 98.9378 227.101 97.9102C228.211 96.8968 229.285 96.1226 229.623 96.0757C229.956 96.0257 230.152 95.7379 231.361 95.447C232.573 95.1514 233.161 95.1968 233.736 95.1968C234.328 95.1968 235.338 95.447 235.44 95.5862C235.536 95.7379 236.5 96.462 236.5 96.462L237.138 97.8649C237.138 97.8649 237.125 99.0238 237.074 99.2771C237.036 99.5133 236.55 101.062 236.55 101.062C236.55 101.062 236.115 101.653 235.777 101.839C235.44 102.042 235.338 102.718 235.338 102.718L233.55 103.39L229.759 103.78L228.211 103.339M189.537 104.027L187.601 100.439L187.7 100.147L190.801 97.4379C190.801 97.4379 192.251 95.5033 192.64 95.0122C193.03 94.5258 193.616 94.1364 194.192 94.0348C194.775 93.9503 195.84 94.1364 196.516 94.4242C197.193 94.712 198.164 95.5862 198.266 95.9756C198.355 96.3604 199.331 98.9894 199.331 98.9894L197.193 101.787C197.193 101.787 195.169 103.727 193.707 104.416C193.355 104.577 192.928 104.637 192.493 104.637C191.101 104.637 189.537 104.027 189.537 104.027M175.585 119.629L181.402 118.465L185.565 119.142L185.374 120.208H180.424L175.585 119.629Z" stroke="white" stroke-width="0.0781977"/>
</svg>
