<svg width="480" height="320" viewBox="0 0 480 320" fill="none" xmlns="http://www.w3.org/2000/svg">
<path d="M84.6638 190.953L291.903 75.9675H361.423L307.304 208.656H226.454L258.151 130.947L130.182 204.583L125.575 206.563C107.566 203.783 84.6638 190.953 84.6638 190.953Z" fill="#FB0F0C"/>
<path d="M114.667 167.194C110.746 164.224 106.634 158.399 105.909 154.42C101.455 129.919 164.222 95.8045 246.081 78.2523C327.918 60.6994 397.883 72.3887 402.353 90.8545C405.209 102.81 401.729 114.29 393.063 123.047C403.556 115.717 415.589 103.609 410.981 89.5412C399.33 53.8837 318.323 42.1951 223.827 65.1926C129.326 88.1708 59.9163 136.353 68.7684 172.791C70.2152 178.692 74.9553 181.548 80.0381 186.079L114.667 167.194" fill="#FB0F0C"/>
<path d="M94.9443 258.306C100.413 251.704 105.839 245.066 111.222 238.393C120.112 227.351 127.384 218.084 133.057 210.561H134.847C135.056 218.084 135.608 227.352 136.465 238.431C136.982 245.063 137.579 251.688 138.253 258.306C138.654 261.489 138.882 263.469 138.978 264.246C139.092 265.03 139.225 265.616 139.377 266.035C137.836 265.906 136.465 265.845 135.323 265.845C134.161 265.845 132.772 265.906 131.172 266.035C131.286 264.497 131.363 263.331 131.382 262.57C131.382 261.771 131.382 260.362 131.306 258.305L130.792 245.17C128.088 244.828 125.004 244.675 121.558 244.637C117.161 244.637 113.201 244.942 109.698 245.513C106.119 250.12 102.864 254.384 99.9892 258.306C98.5424 260.248 97.5331 261.618 97.0006 262.403C96.4482 263.179 95.668 264.398 94.6395 266.035C93.4596 265.906 92.4311 265.845 91.5368 265.845C90.661 265.845 89.6139 265.906 88.3762 266.035C88.681 265.693 89.1571 265.121 89.823 264.344C90.4904 263.583 92.1841 261.565 94.9443 258.306ZM115.429 238.051L113.639 240.335C115.962 240.602 118.551 240.738 121.406 240.754C124.643 240.754 127.688 240.639 130.525 240.372L130.373 238.051C130.033 232.221 129.626 226.395 129.154 220.574C124.966 225.715 120.396 231.562 115.429 238.05V238.051ZM173.834 259.525C173.407 260.242 173.013 260.979 172.654 261.733C172.388 262.38 172.102 263.142 171.817 263.979C169.942 264.889 167.968 265.58 165.935 266.036C163.974 266.454 161.822 266.667 159.481 266.667C153.312 266.667 148.762 264.969 145.831 261.565C142.918 258.154 141.966 253.509 142.994 247.607L143.013 247.493C144.231 240.586 147.544 234.876 152.97 230.382C158.395 225.867 164.658 223.62 171.779 223.62C173.968 223.62 176.004 223.81 177.87 224.191C179.755 224.573 181.621 225.181 183.505 226.004C182.915 226.818 182.439 227.527 182.116 228.151C181.773 228.76 181.43 229.522 181.088 230.36H180.403C179.698 228.973 178.498 227.884 176.766 227.085C175.053 226.323 173.054 225.904 170.75 225.904C165.286 225.904 160.432 227.946 156.149 231.997C151.904 236.033 149.22 241.173 148.115 247.417C147.183 252.693 147.773 256.844 149.886 259.867C152.018 262.875 155.387 264.383 160.033 264.383C162.603 264.383 164.944 263.979 167.038 263.218C169.132 262.44 171.131 261.223 173.035 259.563L173.834 259.525Z" fill="black"/>
<path d="M208.044 259.525C207.609 260.238 207.215 260.975 206.864 261.733C206.578 262.38 206.312 263.142 206.007 263.979C204.066 264.916 202.105 265.601 200.144 266.036C198.164 266.454 196.013 266.667 193.671 266.667C187.503 266.667 182.953 264.969 180.041 261.565C177.109 258.154 176.157 253.509 177.186 247.607L177.223 247.493C178.423 240.586 181.735 234.876 187.16 230.382C192.587 225.867 198.849 223.62 205.97 223.62C208.159 223.62 210.196 223.81 212.081 224.191C213.945 224.573 215.83 225.181 217.715 226.004C217.125 226.818 216.649 227.527 216.307 228.151C215.983 228.76 215.64 229.522 215.279 230.36H214.593C213.889 228.973 212.69 227.884 210.977 227.085C209.263 226.323 207.264 225.904 204.942 225.904C199.478 225.904 194.624 227.946 190.359 231.997C186.095 236.033 183.41 241.173 182.325 247.417C181.373 252.693 181.964 256.844 184.096 259.867C186.209 262.875 189.579 264.383 194.223 264.383C196.793 264.383 199.135 263.979 201.229 263.218C203.342 262.44 205.341 261.223 207.245 259.563L208.044 259.525ZM207.379 266.34C207.732 265.74 208.043 265.117 208.311 264.474C208.54 263.903 209.054 262.608 209.853 260.553C211.528 256.097 213.375 250.958 215.431 245.132C216.942 240.79 218.421 236.437 219.867 232.073C220.742 229.316 221.295 227.542 221.504 226.742C221.713 225.927 221.866 224.991 221.98 223.947C222.608 224.1 223.712 224.229 225.273 224.306C226.834 224.42 228.415 224.458 230.033 224.458H234.202C235.553 224.458 236.924 224.42 238.371 224.306C239.798 224.214 240.788 224.077 241.34 223.948C240.922 224.687 240.636 225.295 240.465 225.829C240.275 226.346 240.142 226.971 240.065 227.679C239.265 227.542 238.028 227.428 236.334 227.313C234.621 227.199 233.041 227.161 231.537 227.161H226.492C224.797 231.616 222.894 236.87 220.742 242.923H227.443C228.719 242.923 230.108 242.886 231.612 242.794C233.135 242.718 234.278 242.619 235.039 242.505C234.639 243.19 234.354 243.785 234.202 244.257C234.03 244.751 233.897 245.346 233.802 246.045C233.098 245.932 232.031 245.818 230.584 245.741C229.221 245.668 227.856 245.63 226.491 245.627H219.79C217.487 252.29 215.507 258.154 213.889 263.142H220.038C221.884 263.142 223.827 263.088 225.864 262.989C227.9 262.875 229.328 262.76 230.147 262.608C229.747 263.37 229.442 263.979 229.252 264.512C229.08 265.007 228.947 265.639 228.871 266.34C228.415 266.21 227.52 266.073 226.149 265.997C224.8 265.89 223.447 265.839 222.094 265.845H215.983C214.498 265.845 212.918 265.883 211.243 265.997C209.586 266.073 208.291 266.187 207.379 266.34ZM261.692 230.245C260.987 228.722 260.13 227.617 259.14 226.932C258.131 226.247 256.856 225.904 255.314 225.904C253.086 225.904 251.126 226.553 249.393 227.809C247.661 229.065 246.424 230.778 245.681 232.911C245.015 234.852 245.052 236.565 245.853 238.073C246.652 239.535 248.327 241.021 250.897 242.543C253.505 244.105 255.257 245.856 256.114 247.858C256.723 249.282 256.875 250.882 256.551 252.595C256.456 253.242 256.285 253.95 256.018 254.651C254.819 258.154 252.572 261.009 249.336 263.294C246.081 265.54 242.54 266.667 238.751 266.667C236.771 266.667 235.039 266.453 233.592 266.035C232.177 265.626 230.857 264.94 229.709 264.017C230.394 263.179 230.927 262.456 231.308 261.809C231.689 261.199 232.088 260.438 232.507 259.548C233.173 261.123 234.202 262.304 235.553 263.142C236.905 263.979 238.542 264.383 240.446 264.383C243.035 264.383 245.338 263.674 247.356 262.228C249.356 260.819 250.802 258.877 251.658 256.441C252.458 254.194 252.458 252.252 251.678 250.638C250.935 249.016 249.26 247.454 246.671 245.932C244.005 244.371 242.235 242.619 241.34 240.639C240.712 239.193 240.541 237.632 240.846 235.941C240.96 235.309 241.15 234.662 241.341 234.015C242.407 231.006 244.368 228.517 247.242 226.553C250.097 224.61 253.22 223.62 256.57 223.62C258.169 223.62 259.654 223.81 261.044 224.138C262.415 224.458 263.728 224.992 264.947 225.676C264.316 226.389 263.713 227.126 263.139 227.884C262.681 228.531 262.205 229.316 261.691 230.246L261.692 230.245ZM285.831 230.245C285.126 228.722 284.269 227.617 283.26 226.932C282.27 226.247 280.995 225.904 279.453 225.904C277.225 225.904 275.265 226.553 273.532 227.809C271.8 229.065 270.562 230.778 269.82 232.911C269.135 234.852 269.192 236.565 269.972 238.073C270.791 239.535 272.466 241.021 275.017 242.543C277.644 244.105 279.396 245.856 280.252 247.858C280.862 249.282 281.014 250.882 280.691 252.595C280.594 253.242 280.405 253.95 280.158 254.651C278.939 258.154 276.712 261.009 273.456 263.294C270.201 265.54 266.68 266.667 262.89 266.667C260.911 266.667 259.179 266.453 257.731 266.035C256.316 265.626 254.996 264.94 253.848 264.017C254.514 263.179 255.047 262.456 255.447 261.809C255.828 261.199 256.228 260.438 256.628 259.548C257.313 261.123 258.322 262.304 259.692 263.142C261.044 263.979 262.662 264.383 264.585 264.383C267.155 264.383 269.458 263.674 271.477 262.228C273.495 260.819 274.941 258.877 275.798 256.441C276.597 254.194 276.597 252.252 275.816 250.638C275.056 249.016 273.38 247.454 270.81 245.932C268.145 244.371 266.355 242.619 265.48 240.639C264.832 239.193 264.68 237.632 264.966 235.941C265.099 235.309 265.27 234.662 265.48 234.015C266.546 231.006 268.507 228.517 271.381 226.553C274.236 224.61 277.359 223.62 280.709 223.62C282.309 223.62 283.793 223.81 285.183 224.138C286.554 224.458 287.868 224.992 289.086 225.676C288.456 226.389 287.852 227.126 287.277 227.884C286.802 228.531 286.325 229.316 285.831 230.246V230.245ZM281.357 258.306C286.154 252.519 291.561 245.894 297.634 238.393C306.505 227.351 313.777 218.084 319.45 210.561H321.255C321.445 218.084 322.001 227.352 322.854 238.431C323.463 245.932 324.058 252.556 324.643 258.306C325.047 261.489 325.291 263.469 325.39 264.246C325.481 265.03 325.618 265.616 325.786 266.035C324.224 265.906 322.877 265.845 321.712 265.845C320.554 265.845 319.184 265.906 317.585 266.035C317.699 264.497 317.752 263.331 317.775 262.57C317.79 261.771 317.775 260.362 317.713 258.305L317.181 245.17C314.477 244.828 311.393 244.675 307.952 244.637C303.554 244.637 299.594 244.942 296.092 245.513C292.803 249.737 289.566 254.002 286.382 258.306C285.369 259.659 284.373 261.025 283.394 262.403C282.861 263.179 282.08 264.398 281.033 266.035C280.003 265.915 278.967 265.851 277.93 265.845C277.054 265.845 276.007 265.906 274.789 266.035C275.074 265.693 275.569 265.121 276.217 264.344C276.883 263.583 278.597 261.565 281.357 258.306ZM301.822 238.051L300.032 240.335C302.355 240.602 304.944 240.738 307.818 240.754C311.052 240.754 314.082 240.639 316.914 240.372L316.784 238.051C316.426 232.221 316.013 226.395 315.544 220.574C311.378 225.715 306.809 231.562 301.822 238.05V238.051Z" fill="black"/>
<path d="M328.07 260.156C329.73 255.793 331.535 250.79 333.476 245.17C335.137 240.449 336.598 236.223 337.855 232.454C338.868 229.24 339.492 227.238 339.72 226.438C339.937 225.747 340.128 225.049 340.291 224.344C341.358 224.42 342.31 224.458 343.109 224.458C343.894 224.458 344.861 224.42 345.988 224.344C345.683 224.991 345.417 225.6 345.188 226.171C344.959 226.742 344.443 228.06 343.627 230.131C341.768 235.113 339.958 240.114 338.197 245.132C336.724 249.362 335.277 253.601 333.858 257.849C332.83 261.048 332.22 263.065 331.976 263.865C331.758 264.546 331.586 265.24 331.459 265.944C330.377 265.883 329.425 265.845 328.626 265.845C327.841 265.845 326.89 265.883 325.771 265.944C326.037 265.311 326.28 264.703 326.531 264.131C326.738 263.56 327.255 262.228 328.07 260.156ZM339.683 260.156C341.343 255.793 343.148 250.79 345.089 245.17C346.578 240.943 348.033 236.705 349.453 232.454C350.176 230.093 350.671 228.532 350.899 227.732C351.144 226.918 351.409 225.79 351.699 224.344C352.286 224.381 353.123 224.42 354.25 224.42C355.369 224.458 356.458 224.458 357.502 224.458L363.136 224.344C367.249 224.344 370.165 225.066 371.878 226.46C373.591 227.846 374.178 230.017 373.668 232.911C373.021 236.626 370.866 239.687 367.195 242.086C364.507 243.8 361.484 244.903 358.111 245.399C359.443 248.102 361.119 251.186 363.136 254.674L366.372 260.157C367.728 262.441 368.581 263.865 368.947 264.436C369.305 265.03 369.67 265.54 370.066 265.944C368.772 265.883 367.629 265.845 366.701 265.845C365.748 265.845 364.622 265.883 363.312 265.944C362.778 264.474 362.375 263.484 362.108 262.913C361.842 262.342 361.348 261.428 360.646 260.156L357.463 254.309C355.621 250.98 353.96 248.064 352.498 245.627C351.432 245.589 350.481 245.536 349.582 245.399H349.719C348.262 249.536 346.84 253.687 345.455 257.849C344.443 261.07 343.817 263.065 343.589 263.865C343.338 264.687 343.171 265.373 343.071 265.944C341.967 265.883 341.015 265.845 340.239 265.845C339.439 265.845 338.487 265.883 337.383 265.944C337.649 265.312 337.893 264.703 338.144 264.131C338.35 263.56 338.868 262.228 339.683 260.156ZM350.557 243.038C351.699 243.19 352.956 243.267 354.326 243.229C357.883 243.229 360.989 242.314 363.632 240.487C366.258 238.659 367.82 236.322 368.315 233.482C368.734 231.182 368.337 229.507 367.097 228.44C365.863 227.389 363.746 226.857 360.738 226.857C359.283 226.821 357.828 226.884 356.382 227.046C354.353 232.345 352.411 237.676 350.557 243.038V243.038Z" fill="black"/>
</svg>
