<svg width="480" height="320" viewBox="0 0 480 320" fill="none" xmlns="http://www.w3.org/2000/svg">
<path fill-rule="evenodd" clip-rule="evenodd" d="M297.947 165.706H304.97L307.166 158.683C307.166 158.683 308.921 155.61 304.093 155.61H288.729C288.729 155.61 286.095 163.073 285.216 167.024C285.216 167.024 285.216 165.706 290.923 165.706H298.386L287.413 171.414H283.899C282.582 175.366 281.265 178.877 280.827 181.071C278.631 187.215 283.461 185.899 283.461 185.899H317.262L315.066 192.484H270.729C258.437 192.484 263.267 182.828 263.267 182.828C263.267 182.828 269.852 162.195 272.046 155.61C274.242 148.586 278.63 149.025 279.069 149.025H319.02C319.02 149.025 325.603 149.902 324.726 155.171C323.409 160.439 320.775 171.415 320.775 171.415H286.971L297.947 165.706ZM257.998 149.025H208.392C207.515 149.025 203.563 148.586 201.369 155.61C199.174 162.195 192.588 182.828 192.588 182.828C192.588 182.828 187.76 192.484 200.052 192.484H244.389L246.586 185.899H212.343C212.343 185.899 207.954 187.215 209.71 181.071C211.904 174.926 218.05 155.61 218.05 155.61H255.804L257.998 149.025ZM340.968 155.61C343.163 148.586 347.552 149.025 347.99 149.025H396.72L394.524 155.61H358.527L356.334 161.317C356.334 161.317 355.016 164.389 358.527 164.389H383.99C383.99 164.389 391.892 163.949 390.135 170.534C387.939 177.119 384.867 186.339 384.867 186.339C384.867 186.339 383.99 192.484 377.843 192.484H329.555L331.309 185.899H367.307L369.063 181.071C369.063 181.071 369.502 178.877 367.746 178.877H340.091C340.091 178.877 333.943 179.314 336.577 170.534C339.212 162.195 340.968 155.61 340.968 155.61ZM134.642 149.025H182.492C182.492 149.025 187.76 150.781 186.882 155.171C185.126 160.877 174.59 190.29 174.59 190.29H126.741C126.741 190.29 121.033 189.414 121.912 184.146C122.79 180.195 127.179 168.78 127.619 167.9C128.058 166.583 129.813 165.267 132.447 165.267H166.25C166.25 165.267 169.323 157.805 169.323 157.365C169.323 157.365 170.639 153.854 166.689 153.854H132.447L134.642 149.025Z" fill="#B3B3B3"/>
<path fill-rule="evenodd" clip-rule="evenodd" d="M119.278 203.021C146.494 203.021 168.884 180.63 168.884 152.975C168.884 125.758 146.494 103.37 119.278 103.37C91.6216 103.37 69.2322 125.758 69.2322 152.975C69.2322 180.63 91.6216 203.021 119.278 203.021Z" fill="#F97C1D"/>
<path fill-rule="evenodd" clip-rule="evenodd" d="M114.01 216.191L117.96 206.971H118.839L122.351 216.191H121.472L120.156 213.557H116.205L114.888 216.191H114.01ZM116.644 212.68H120.156L118.4 207.849L116.644 212.68ZM124.545 211.364H129.374V211.799H124.544V215.31H129.813V216.191H123.667V206.971H129.813V207.849H124.545V211.364ZM132.447 212.24V216.19H131.569V206.971H135.082C137.276 206.971 138.154 207.849 138.154 209.606C138.154 210.483 137.716 211.364 136.837 211.799C137.716 212.24 137.716 213.117 137.716 213.997C137.716 215.751 138.154 215.751 138.154 216.19H137.276C136.837 215.751 136.837 213.997 136.837 213.117C136.837 212.24 135.96 212.24 135.082 212.24H132.447ZM135.082 211.363C136.399 211.363 137.276 210.923 137.276 209.605C137.276 208.289 136.399 207.848 135.082 207.848H132.447V211.363H135.082ZM143.862 206.971C146.934 206.971 148.251 209.165 148.251 211.799C148.251 214.434 146.934 216.627 143.861 216.627C141.228 216.627 139.91 214.434 139.91 211.799C139.91 209.165 141.228 206.971 143.861 206.971H143.862ZM147.373 211.799C147.373 209.165 146.057 207.849 143.862 207.849C141.666 207.849 140.788 209.606 140.788 211.799C140.788 213.997 141.666 215.75 143.862 215.75C146.494 215.75 147.373 213.997 147.373 211.799ZM155.714 216.191H150.006V206.971H150.885V215.31H155.714V216.191ZM157.469 206.971H158.348V216.191H157.469V206.971ZM161.86 206.971L167.127 214.874V206.972H168.006V216.191H167.127L161.86 208.289V216.191H160.982V206.971H161.86ZM171.079 211.364H175.907V211.799H171.078V215.31H176.347V216.191H170.201V206.971H176.347V207.849H171.079V211.364ZM177.225 216.191L180.736 206.971H182.054L185.565 216.191H184.688L183.37 213.557H179.419L178.102 216.191H177.225ZM179.419 212.68H183.37L181.614 207.849L179.419 212.68ZM187.322 213.557C187.322 215.31 188.2 215.75 189.956 215.75C191.272 215.75 192.151 214.874 192.151 213.997C192.151 210.923 186.442 213.117 186.442 209.165C186.442 208.289 187.76 206.972 189.516 206.972C191.711 206.972 192.588 208.289 192.588 209.606H191.711C191.711 208.289 190.832 207.849 189.516 207.849C187.76 207.849 187.322 208.729 187.322 209.606C187.76 211.799 193.029 210.483 193.029 213.997C193.029 215.31 191.711 216.627 189.516 216.627C187.76 216.627 186.443 215.31 186.443 213.557H187.322ZM204.881 209.606C204.442 208.289 203.563 207.849 201.807 207.849C199.614 207.849 198.735 209.606 198.735 211.799C198.735 213.557 199.614 215.75 202.246 215.75C203.563 215.75 204.442 214.874 204.881 213.117H205.76C205.32 214.874 204.442 216.627 201.807 216.627C199.174 216.627 197.857 214.434 197.857 211.799C197.857 208.289 199.614 206.971 202.246 206.971C204.003 206.971 205.32 207.849 205.76 209.606H204.881ZM208.392 211.364H213.222V211.799H208.392V215.31H213.661V216.191H207.515V206.971H213.661V207.849H208.392V211.364ZM216.733 206.971L221.563 214.874H222.001V206.972H222.44V216.191H221.563L216.295 208.289V216.191H215.417V206.971H216.733ZM226.83 216.191V207.849H224.196V206.971H230.782V207.849H227.708V216.191H226.83ZM232.976 212.24V216.19H232.098V206.971H235.611C237.805 206.971 238.683 207.849 238.683 209.606C238.683 210.483 238.244 211.364 237.366 211.799C238.244 212.24 238.244 213.117 238.244 213.997C238.244 215.751 238.683 215.751 238.683 216.19H237.805C237.366 215.751 237.366 213.997 237.366 213.117C237.366 212.24 236.489 212.24 235.611 212.24H232.976ZM235.611 211.363C236.927 211.363 237.805 210.923 237.805 209.605C237.805 208.289 236.927 207.848 235.611 207.848H232.976V211.363H235.611ZM240 216.191L243.513 206.971H244.389L247.902 216.191H247.023L245.707 213.557H241.756L240.879 216.191H240ZM242.196 212.68H245.707L243.951 207.849L242.196 212.68ZM254.926 216.191H249.219V206.971H250.096V215.31H254.926V216.191ZM257.122 211.364H261.95V211.799H257.122V215.31H262.828V216.191H256.243V206.971H262.388V207.849H257.122V211.364ZM264.583 213.557C265.022 215.31 265.901 215.75 267.217 215.75C268.973 215.75 269.411 214.874 269.411 213.997C269.411 210.923 264.146 213.117 264.146 209.165C264.146 208.289 265.022 206.972 267.218 206.972C269.411 206.972 270.29 208.289 270.29 209.606H269.411C269.411 208.289 268.535 207.849 267.218 207.849C265.462 207.849 264.583 208.729 265.022 209.606C265.462 211.799 270.291 210.483 270.291 213.997C270.291 215.31 269.412 216.627 267.217 216.627C265.462 216.627 263.705 215.31 263.705 213.557H264.583ZM275.997 216.191V206.971H279.069C279.948 206.971 280.827 207.412 281.704 207.849C283.02 208.729 283.461 210.483 283.461 211.799C283.461 212.68 283.02 213.997 282.143 215.31C281.264 216.191 280.386 216.191 279.069 216.191H275.997ZM276.876 215.31H278.63C279.509 215.31 280.386 215.31 280.827 214.874C282.143 214.434 282.582 213.117 282.582 211.799C282.582 210.483 282.143 208.729 280.827 208.289C280.386 207.849 279.51 207.849 278.631 207.849H276.876V215.31ZM286.095 211.364H290.923V211.799H286.095V215.31H291.361V216.191H285.216V206.971H291.361V207.849H286.095V211.364ZM303.215 209.606C302.777 208.289 301.898 207.849 300.58 207.849C298.387 207.849 297.07 209.606 297.07 211.799C297.07 213.557 297.947 215.75 300.58 215.75C301.898 215.75 303.215 214.874 303.215 213.117H304.093C303.653 214.874 302.777 216.627 300.142 216.627C297.508 216.627 296.191 214.434 296.191 211.799C296.191 208.289 298.386 206.971 300.58 206.971C302.336 206.971 303.653 207.849 304.093 209.606H303.215ZM309.799 206.971C312.873 206.971 314.189 209.165 314.189 211.799C314.189 214.434 312.873 216.627 309.8 216.627C307.166 216.627 305.849 214.434 305.849 211.799C305.849 209.165 307.166 206.971 309.8 206.971H309.799ZM313.311 211.799C313.311 209.165 311.994 207.849 309.8 207.849C307.605 207.849 306.728 209.606 306.728 211.799C306.728 213.997 307.605 215.75 309.8 215.75C312.434 215.75 313.311 213.997 313.311 211.799ZM321.652 216.191H315.946V206.971H316.824V215.31H321.652V216.191ZM326.92 206.971C329.994 206.971 331.309 209.165 331.309 211.799C331.309 214.434 329.995 216.627 327.36 216.627C324.286 216.627 322.969 214.434 322.969 211.799C322.969 209.165 324.286 206.971 326.92 206.971ZM330.433 211.799C330.433 209.165 329.116 207.849 327.36 207.849C324.726 207.849 323.847 209.606 323.847 211.799C323.847 213.997 324.726 215.75 327.36 215.75C329.554 215.75 330.432 213.997 330.432 211.799H330.433ZM340.529 206.971H341.846V216.191H340.967V208.289L337.895 216.191H337.016L333.943 208.289V216.191H333.067V206.971H334.384L337.456 215.31L340.529 206.971ZM344.042 216.191V206.971H347.114C349.308 206.971 350.186 208.289 350.186 209.606C350.186 210.483 349.308 211.364 348.87 211.364C350.187 211.799 350.627 212.68 350.627 213.557C350.627 215.75 349.308 216.191 347.552 216.191H344.042ZM344.918 215.31H347.115C348.87 215.31 349.748 215.31 349.748 213.557C349.748 212.239 348.869 211.799 347.115 211.799H344.918V215.31ZM344.918 211.364H347.115C348.87 211.364 349.308 210.483 349.308 209.606C349.308 208.289 348.87 207.849 346.674 207.849H344.918V211.364ZM352.821 206.971H353.699V216.191H352.821V206.971ZM355.455 216.191L358.966 206.971H359.845L363.357 216.191H362.478L361.599 213.557H357.211L356.333 216.191H355.455ZM357.648 212.68H361.162L359.405 207.849L357.648 212.68ZM369.063 213.557C369.063 215.31 369.94 215.75 371.698 215.75C373.015 215.75 373.891 214.874 373.891 213.997C373.891 210.923 368.185 213.117 368.185 209.165C368.185 208.289 369.502 206.972 371.259 206.972C373.452 206.972 374.332 208.289 374.332 209.606H373.453C373.453 208.289 372.574 207.849 371.26 207.849C369.502 207.849 369.063 208.729 369.063 209.606C369.502 211.799 374.771 210.483 374.771 213.997C374.771 215.31 373.453 216.627 371.259 216.627C369.502 216.627 368.185 215.31 368.185 213.557H369.063ZM376.526 215.31H377.843V216.191H376.526V215.31ZM379.159 216.191L382.672 206.971H383.99L387.5 216.191H386.624L385.307 213.557H381.355L380.039 216.191H379.159ZM381.355 212.68H385.306L383.549 207.849L381.355 212.68ZM388.818 215.31H390.135V216.191H388.818V215.31Z" fill="#173B93"/>
<path fill-rule="evenodd" clip-rule="evenodd" d="M252.292 149.025H202.247C201.808 149.025 197.858 148.586 195.223 155.61C193.029 162.195 186.442 182.828 186.442 182.828C186.442 182.828 181.614 192.484 194.345 192.484H238.244L240.439 185.899H206.636C206.636 185.899 201.807 187.215 204.002 181.071C205.759 174.926 211.904 155.61 211.904 155.61H250.096L252.292 149.025ZM335.261 155.61C337.456 148.586 341.407 149.025 342.284 149.025H391.013L388.818 155.61H352.382L350.187 161.317C350.187 161.317 349.308 164.389 352.821 164.389H377.843C377.843 164.389 386.184 163.949 383.99 170.534C382.232 177.119 379.16 186.339 379.16 186.339C379.16 186.339 378.281 192.484 371.698 192.484H323.41L325.603 185.899H361.162L362.917 181.071C362.917 181.071 363.796 178.877 361.6 178.877H334.384C334.384 178.877 327.799 179.314 330.433 170.534C333.506 162.195 335.261 155.61 335.261 155.61ZM292.24 165.706H299.264L301.019 159.122C301.019 159.122 303.215 155.61 298.387 155.61H283.021C283.021 155.61 282.143 158.683 280.827 162.195C280.827 162.195 279.51 165.706 285.216 165.706H292.678L281.704 171.414H278.193C276.876 175.366 275.558 178.877 275.118 181.071C272.924 187.215 277.755 185.899 277.755 185.899H311.556L309.362 192.484H265.462C252.731 192.484 257.561 182.828 257.561 182.828C257.561 182.828 264.146 162.195 266.34 155.61C268.535 148.586 272.924 149.025 273.362 149.025H313.752C313.752 149.025 319.896 149.902 319.021 155.171C317.703 160.439 315.067 171.415 315.067 171.415H281.265L292.24 165.706Z" fill="#F97C1D"/>
<path fill-rule="evenodd" clip-rule="evenodd" d="M128.496 149.025H176.785C176.785 149.025 182.054 150.781 180.736 155.171C178.981 160.877 168.884 190.29 168.884 190.29H120.595C120.595 190.29 114.887 189.414 116.204 184.146C117.083 180.195 121.472 168.78 121.913 167.9C122.351 166.583 124.107 165.267 126.301 165.267H160.544C160.544 165.267 163.177 157.805 163.177 157.365C163.616 157.365 164.934 153.854 160.543 153.854H126.741L128.496 149.025Z" fill="white"/>
<path fill-rule="evenodd" clip-rule="evenodd" d="M151.323 174.486C151.763 173.609 151.763 170.535 148.691 170.535H138.594C138.594 170.535 136.399 170.535 135.52 173.169C135.082 175.366 133.326 181.511 133.326 181.511C133.326 181.511 132.447 185.899 135.96 185.899H144.74C144.74 185.899 146.934 186.779 148.251 182.828C150.007 178.877 151.323 174.486 151.323 174.486Z" fill="#B3B3B3"/>
<path fill-rule="evenodd" clip-rule="evenodd" d="M156.592 174.486C157.031 173.609 157.031 170.535 153.957 170.535H144.3C144.3 170.535 141.666 170.535 141.228 173.169C140.349 175.366 138.594 181.511 138.594 181.511C138.594 181.511 137.716 185.899 141.228 185.899H150.007C150.007 185.899 152.202 186.779 153.957 182.828C154.872 180.059 155.75 177.278 156.592 174.486Z" fill="#F97C1D"/>
</svg>
