<svg width="480" height="320" viewBox="0 0 480 320" fill="none" xmlns="http://www.w3.org/2000/svg">
<path fill-rule="evenodd" clip-rule="evenodd" d="M191.05 128.259C187.528 126.227 182.696 128.666 176.464 123.337C175.154 122.208 156.821 109.519 169.736 110.377C171.858 110.558 174.793 110.648 174.613 108.481C174.567 107.623 174.071 106.719 169.736 106.132C157.724 104.462 157.95 99.2233 169.465 101.526C172.264 102.068 172.851 99.5394 170.142 97.8686C167.658 96.3333 163.91 95.4301 161.923 94.1657C157.227 91.1853 156.775 82.8764 165.355 89.8758C168.381 92.3594 170.187 93.4883 173.935 95.385C176.87 96.83 177.819 94.8882 175.245 92.3143C173.709 90.7789 169.736 88.4307 165.852 85.5858C161.969 82.7409 158.808 77.0511 165.084 79.8508C167.116 80.7088 169.645 82.3796 171.632 83.5086C174.974 85.36 175.425 82.8764 173.529 80.6637C172.084 78.9477 169.871 77.1866 169.103 76.5544C162.239 70.6387 168.2 68.9228 171.271 72.0386C173.574 74.2965 175.154 78.9025 180.122 78.9025C185.586 78.9025 179.083 71.0903 178.09 68.3809C173.664 56.4142 182.244 55.6465 182.334 56.4593C183.012 62.2395 185.631 66.4843 186.805 67.8841C199.991 83.5086 220.492 106.629 231.375 120.718C236.704 127.627 237.562 144.561 241.671 144.426C244.11 144.381 243.884 141.039 244.381 137.065C245.69 126.408 241.129 122.615 249.393 112.68C267.456 91.0047 286.874 91.9982 321.825 57.8141C324.264 55.4659 338.443 48.331 324.896 62.6459C321.103 66.6197 325.799 66.2585 329.367 62.6911C331.083 60.9751 335.463 58.356 337.585 55.5562C341.153 50.6792 342.824 54.9692 339.934 57.5883C337.676 59.6204 334.605 63.4136 330.721 66.7101C325.664 71 332.889 70.2323 336.321 65.6714C337.269 64.407 344.54 58.2205 345.578 57.3173C347.159 55.8723 348.694 55.6465 349.01 56.5948C349.146 57.0916 349.642 57.5883 348.152 59.7558C347.565 60.6138 336.637 70.4581 340.204 70.4581C345.488 70.4581 348.739 65.4457 352.397 62.6007C354.474 61.0202 355.287 61.4267 355.693 61.7428C356.506 62.5104 353.932 65.3553 351.9 67.7035C351.855 67.7938 343.998 74.4771 341.875 75.5609C338.805 77.0962 342.146 85.1794 333.024 84.502C329.728 84.2311 327.109 87.934 327.109 91.8627C327.109 95.8365 321.555 95.2043 321.013 101.752C320.877 103.062 320.38 110.964 318.303 111.958C308.369 116.519 304.44 108.074 304.801 123.473C304.891 125.776 303.717 130.337 300.692 130.111C297.26 129.84 302.498 134.672 295.815 138.691C295.77 138.691 295.318 139.278 295.318 139.278C293.331 143.974 284.661 143.929 292.518 151.425C295.228 153.954 295.679 158.244 293.06 158.154C284.751 157.838 286.964 153.322 280.19 154.722C273.462 156.076 288.183 168.043 274.636 168.043C269.172 168.043 258.063 163.573 262.444 174.32C264.656 179.694 270.888 181.816 276.262 183.487C277.842 183.984 293.376 191.976 301.098 195.905C303.627 197.215 305.479 199.202 301.55 201.911C292.383 208.233 288.68 204.756 282.358 208.504C280.055 209.859 278.926 212.388 276.804 212.568C275.449 212.659 273.959 211.394 273.507 210.491C272.469 208.369 270.391 207.42 268.811 207.42C265.198 207.42 268.495 213.336 264.972 212.659C261.405 211.981 260.411 207.646 257.341 208.459C254.089 209.272 255.444 213.02 250.206 213.02C246.909 213.02 247.767 210.355 243.613 208.865C238.736 207.104 230.563 206.924 230.111 206.698C227.853 205.569 231.646 201.369 221.621 203.04C219.138 203.446 217.557 204.304 216.383 203.853C215.028 203.401 215.344 201.505 213.764 200.376C212.5 199.473 209.61 199.292 207.081 198.75C200.307 197.395 204.687 195.047 202.43 191.525C202.068 190.983 198.772 191.389 198.14 190.667C182.786 173.597 229.298 196.086 223.337 177.075C220.809 169.082 212.68 165.65 205.952 161.269C203.784 159.915 202.791 156.889 202.023 156.618C199.088 155.489 196.695 155.896 194.527 155.715C191.637 155.444 189.289 154.857 187.889 155.58C186.037 156.573 185.721 156.799 184.457 158.334C183.373 154.722 186.624 151.064 189.334 151.064C190.282 151.064 195.204 150.522 195.204 150.025C195.204 147.406 197.191 146.232 199.314 146.187C202.339 146.142 206.042 148.174 207.939 149.167C209.835 150.206 214.441 149.212 211.371 147.632C210.287 147.045 205.003 142.213 202.791 138.555C200.984 135.53 197.327 134.627 193.624 137.065C192.585 137.743 190.779 140.181 190.734 139.684C190.598 137.697 191.637 135.891 192.766 135.123C193.759 134.446 195.159 133.407 195.295 132.549C195.566 131.059 193.759 129.795 191.05 128.259Z" fill="#01288E"/>
<path fill-rule="evenodd" clip-rule="evenodd" d="M152.034 266.667H139.706L139.119 260.029H125.842L122.681 266.667H109.134L132.119 225.98H145.531L152.034 266.667ZM138.306 251.403L137.087 236.547H136.951L129.952 251.403H138.306ZM165.175 225.98H181.883C187.798 225.98 192.133 227.56 194.888 230.676C197.597 233.837 198.952 237.947 198.952 243.004C198.952 247.881 197.778 252.397 195.475 256.506C193.127 260.661 190.372 263.37 187.166 264.725C184.005 266.034 180.98 266.667 178.09 266.667H156.64L165.175 225.98ZM171.18 257.68H176.374C179.805 257.68 182.379 255.919 184.05 252.352C185.766 248.784 186.579 245.262 186.579 241.695C186.579 239.617 186.128 237.992 185.134 236.773C184.186 235.553 182.425 234.921 179.896 234.921H175.877L171.18 257.68ZM237.607 266.667H225.279L224.737 260.029H211.461L208.3 266.667H194.707L217.738 225.98H231.149L237.607 266.667ZM223.924 251.403L222.66 236.547H222.569L215.57 251.403H223.924ZM300.782 266.667H288.454L287.912 260.029H274.636L271.475 266.667H257.928L280.913 225.98H294.324L300.782 266.667ZM287.099 251.403L285.835 236.547H285.745L278.745 251.403H287.099ZM327.425 225.98L318.709 266.667H305.975L314.69 225.98H327.425ZM336.185 225.98H359.351C363.325 225.98 366.26 227.019 368.111 229.096C369.963 231.218 370.866 233.702 370.866 236.682C370.866 239.843 369.918 242.643 367.931 244.991C365.989 247.384 362.828 248.92 358.538 249.552C361.067 251.629 364.138 257.364 367.705 266.667H354.384C353.3 263.731 351.99 260.525 350.455 257.048C348.965 253.526 347.836 251.539 347.068 250.952C346.301 250.41 345.397 250.139 344.314 250.139H343.636L340.159 266.667H327.515L336.185 225.98ZM345.262 242.507H347.655C351.674 242.507 354.248 242.327 355.422 241.966C356.596 241.604 357.5 240.972 358.041 240.114C358.628 239.211 358.899 238.353 358.899 237.54C358.899 236.502 358.583 235.689 357.906 235.102C357.183 234.515 355.738 234.199 353.435 234.199H347.023L345.262 242.507Z" fill="#01288E"/>
</svg>
