<svg width="480" height="320" viewBox="0 0 480 320" fill="none" xmlns="http://www.w3.org/2000/svg">
<path d="M171.637 198.25H146.375L147.985 176.53H106.268L87.0482 198.25H62.0786L147.837 103.182H172.516L171.637 198.25ZM148.145 159.918L149.994 126.436L121.057 159.918H148.145ZM265.595 106.304C276.004 109.205 284.241 115.135 290.31 124.1C295.876 132.338 298.66 141.663 298.66 152.071C298.66 163.212 295.571 172.902 289.378 181.142C282.685 190.2 273.463 195.582 261.695 197.3C257.118 197.931 251.978 198.25 246.283 198.25H176.256V103.182H242.383C250.182 103.182 257.917 104.227 265.595 106.303V106.304ZM269.016 152.331C269.016 143.526 267.219 136.305 263.639 130.675C259.059 123.594 252.139 120.046 242.847 120.046H206.659V181.894H245.271C253.668 181.894 259.926 178.672 264.012 172.223C267.352 166.959 269.015 160.33 269.015 152.331H269.016Z" fill="#312C59"/>
<path d="M345.176 198.123H282.806C276.483 198.123 270.226 197.532 264.039 196.36C252.059 193.924 242.569 188.33 235.566 179.564C229.246 171.618 226.088 162.367 226.088 151.798C226.088 141.597 228.912 132.565 234.569 124.712C240.759 116.047 249.57 110.13 261.003 106.969C269.88 104.532 279.045 103.301 288.251 103.309H344.767V121.457H286.12C276.59 121.457 269.669 124.931 265.371 131.88C262.002 137.29 260.325 144.372 260.325 153.122C260.325 160.524 262.482 166.792 266.782 171.93C271.743 177.979 278.733 181.002 287.745 181.002H345.176V198.123ZM346.507 197.771L353.271 181.168H355.869L363.082 197.771H360.42L358.381 192.747H350.915L349.01 197.771H346.507ZM351.582 190.957H357.68L355.815 186.34C355.256 184.934 354.83 183.778 354.537 182.872C354.281 183.96 353.947 185.027 353.536 186.066L351.582 190.957ZM363.437 183.485V181.168H365.622V183.485H363.437ZM363.437 197.771V185.714H365.622V197.771H363.437ZM367.645 197.771V185.714H369.615V187.537C370.11 186.686 370.562 186.127 370.973 185.853C371.385 185.588 371.865 185.447 372.355 185.448C373.074 185.448 373.811 185.666 374.556 186.1L373.793 187.97C373.279 187.691 372.755 187.55 372.24 187.55C371.772 187.55 371.361 187.683 370.989 187.95C370.615 188.223 370.349 188.596 370.19 189.067C369.95 189.8 369.828 190.59 369.828 191.457V197.771H367.645ZM374.592 197.771V181.168H376.775V197.771H374.592ZM378.933 183.485V181.168H381.117V183.485H378.933ZM378.933 197.771V185.714H381.117V197.771H378.933ZM383.138 197.771V185.714H385.108V187.424C386.04 186.107 387.398 185.448 389.17 185.448C389.942 185.448 390.647 185.582 391.301 185.84C391.94 186.1 392.428 186.446 392.747 186.872C393.081 187.315 393.309 187.829 393.413 188.374C393.493 188.755 393.538 189.418 393.538 190.365V197.771H391.354V190.424C391.354 189.592 391.274 188.966 391.096 188.554C390.937 188.143 390.634 187.816 390.209 187.571C389.782 187.318 389.277 187.197 388.703 187.197C387.785 187.197 386.987 187.478 386.321 188.029C385.655 188.581 385.321 189.631 385.321 191.176V197.772L383.138 197.771ZM404.435 193.886L406.66 194.144C406.313 195.384 405.648 196.333 404.701 197.02C403.743 197.696 402.518 198.037 401.026 198.037C399.165 198.037 397.674 197.493 396.582 196.408C395.478 195.325 394.931 193.806 394.931 191.842C394.931 189.818 395.491 188.25 396.597 187.132C397.701 186.007 399.139 185.448 400.911 185.448C402.624 185.448 404.027 185.999 405.115 187.092C406.192 188.188 406.74 189.732 406.74 191.723C406.74 191.842 406.725 192.028 406.725 192.268H397.168C397.248 193.594 397.647 194.612 398.366 195.315C399.085 196.023 399.978 196.375 401.044 196.375C401.851 196.375 402.535 196.182 403.094 195.783C403.663 195.384 404.103 194.75 404.435 193.886V193.886ZM397.29 190.605H404.461C404.37 189.578 404.089 188.815 403.636 188.303C402.944 187.51 402.056 187.111 400.946 187.111C399.952 187.111 399.1 187.43 398.419 188.063C397.743 188.693 397.369 189.545 397.29 190.605ZM407.257 194.105L409.402 193.839C409.518 194.658 409.855 195.289 410.415 195.723C410.956 196.162 411.747 196.375 412.732 196.375C413.74 196.375 414.471 196.182 414.965 195.804C415.445 195.416 415.696 194.963 415.696 194.446C415.696 193.978 415.471 193.62 415.03 193.348C414.737 193.167 413.992 192.934 412.794 192.655C411.196 192.274 410.095 191.949 409.482 191.676C408.87 191.395 408.402 191.016 408.083 190.531C407.766 190.052 407.599 189.49 407.604 188.915C407.604 188.374 407.737 187.883 408.004 187.424C408.257 186.972 408.616 186.593 409.068 186.286C409.402 186.052 409.864 185.853 410.45 185.694C411.066 185.528 411.702 185.445 412.341 185.448C413.353 185.448 414.232 185.586 414.992 185.853C415.764 186.127 416.324 186.492 416.681 186.958C417.055 187.416 417.308 188.037 417.442 188.814L415.297 189.072C415.205 188.463 414.924 187.976 414.459 187.63C413.992 187.283 413.34 187.111 412.491 187.111C411.489 187.111 410.77 187.264 410.344 187.576C409.918 187.891 409.705 188.256 409.705 188.676C409.705 188.939 409.784 189.179 409.971 189.392C410.149 189.614 410.423 189.8 410.797 189.945C411.027 190.019 411.666 190.191 412.732 190.472C414.273 190.851 415.35 191.17 415.962 191.416C416.575 191.661 417.055 192.016 417.4 192.487C417.747 192.954 417.921 193.535 417.921 194.232C417.921 194.91 417.708 195.549 417.282 196.147C416.856 196.753 416.256 197.221 415.457 197.546C414.657 197.872 413.752 198.037 412.74 198.037C411.08 198.037 409.802 197.706 408.923 197.046C408.056 196.381 407.497 195.404 407.257 194.105Z" fill="#312C59"/>
<path d="M258.793 207.988C258.284 208.382 257.707 208.682 257.092 208.873C256.465 209.065 255.718 209.159 254.84 209.159H253.043L251.979 213.518H250.316L253.166 201.926H256.399C257.157 201.926 257.77 201.991 258.261 202.112C258.755 202.239 259.155 202.417 259.474 202.647C259.793 202.881 260.045 203.162 260.205 203.5C260.38 203.837 260.471 204.239 260.471 204.707C260.471 205.338 260.326 205.937 260.034 206.509C259.732 207.086 259.309 207.591 258.793 207.988L258.793 207.988ZM258.727 204.965C258.727 204.698 258.674 204.452 258.579 204.227C258.49 204.003 258.338 203.809 258.142 203.668C257.891 203.49 257.606 203.366 257.304 203.305C256.985 203.225 256.559 203.189 256.038 203.189H254.509L253.351 207.899H254.828C255.479 207.899 256.038 207.84 256.479 207.728C256.887 207.625 257.272 207.441 257.609 207.189C257.982 206.891 258.26 206.561 258.447 206.189C258.637 205.809 258.733 205.389 258.727 204.964V204.965ZM264.104 201.413L261.124 213.518H259.58L262.563 201.413H264.104ZM267.752 213.722C266.473 213.722 265.476 213.447 264.743 212.879C264.012 212.309 263.651 211.482 263.651 210.39C263.651 208.793 264.183 207.423 265.264 206.284C266.329 205.139 267.657 204.565 269.228 204.565C270.279 204.565 271.077 204.813 271.638 205.304C272.196 205.789 272.478 206.483 272.478 207.37C272.478 207.52 272.462 207.776 272.409 208.106C272.351 208.5 272.275 208.891 272.184 209.278H265.37C265.33 209.426 265.303 209.578 265.29 209.731C265.276 209.879 265.276 210.011 265.276 210.136C265.276 210.87 265.515 211.45 265.983 211.867C266.462 212.285 267.128 212.492 268.003 212.492C268.604 212.492 269.228 212.385 269.868 212.169C270.519 211.939 271.051 211.695 271.492 211.414H271.583L271.237 212.995C270.959 213.084 270.72 213.172 270.492 213.252C270.279 213.332 270.001 213.403 269.655 213.482C269.309 213.562 269.004 213.624 268.749 213.663C268.483 213.705 268.151 213.722 267.752 213.722ZM270.906 208.201C270.932 208.053 270.944 207.926 270.96 207.819C270.971 207.721 270.986 207.609 270.986 207.488C270.986 206.935 270.812 206.509 270.492 206.204C270.161 205.891 269.642 205.736 268.924 205.736C268.137 205.736 267.444 205.964 266.835 206.417C266.231 206.854 265.794 207.483 265.595 208.201H270.906ZM278.507 212.595C278.299 212.703 278.094 212.82 277.895 212.944C277.644 213.098 277.381 213.231 277.108 213.341C276.802 213.465 276.486 213.564 276.163 213.637C275.77 213.722 275.368 213.763 274.966 213.758C274.235 213.758 273.634 213.554 273.169 213.154C272.717 212.755 272.489 212.225 272.489 211.574C272.489 210.891 272.649 210.305 272.969 209.831C273.288 209.358 273.767 208.973 274.395 208.666C275.018 208.372 275.765 208.16 276.643 208.026C277.522 207.893 278.519 207.814 279.65 207.781C279.676 207.633 279.717 207.509 279.744 207.396C279.756 207.29 279.771 207.184 279.771 207.062C279.771 206.81 279.717 206.609 279.611 206.449C279.507 206.28 279.353 206.148 279.17 206.071C278.955 205.973 278.727 205.908 278.492 205.878C278.214 205.843 277.934 205.828 277.654 205.831C277.175 205.831 276.643 205.896 276.042 206.044C275.445 206.183 274.95 206.322 274.578 206.455H274.501L274.806 205.006C275.265 204.903 275.726 204.816 276.19 204.745C276.788 204.644 277.374 204.6 277.934 204.6C279.079 204.6 279.942 204.769 280.516 205.106C281.087 205.443 281.369 205.976 281.369 206.71C281.369 206.849 281.369 207.003 281.342 207.163C281.315 207.316 281.289 207.467 281.247 207.609L279.809 213.518H278.28L278.507 212.595V212.595ZM279.371 208.952C278.519 208.985 277.762 209.038 277.108 209.133C276.442 209.219 275.897 209.353 275.472 209.517C275.018 209.684 274.684 209.911 274.46 210.204C274.22 210.491 274.102 210.846 274.102 211.272C274.102 211.643 274.247 211.92 274.513 212.116C274.791 212.308 275.205 212.409 275.776 212.409C276.282 212.409 276.803 212.301 277.321 212.094C277.836 211.893 278.33 211.644 278.8 211.352L279.371 208.952ZM284.854 213.758C284.162 213.758 283.552 213.678 283.005 213.509C282.46 213.35 282.008 213.18 281.647 212.995L281.992 211.414H282.073C282.194 211.509 282.339 211.619 282.526 211.753C282.712 211.882 282.951 212.015 283.244 212.142C283.499 212.258 283.791 212.364 284.135 212.453C284.469 212.542 284.827 212.586 285.2 212.586C285.988 212.586 286.6 212.444 287.037 212.172C287.49 211.903 287.703 211.495 287.703 210.962C287.703 210.687 287.597 210.474 287.372 210.331C287.144 210.178 286.813 210.056 286.386 209.965C286.174 209.918 285.907 209.863 285.6 209.804C285.292 209.747 284.986 209.68 284.683 209.603C284.043 209.432 283.564 209.186 283.245 208.858C282.939 208.536 282.772 208.106 282.78 207.662C282.78 207.254 282.872 206.876 283.058 206.523C283.244 206.162 283.526 205.843 283.898 205.544C284.241 205.266 284.695 205.032 285.241 204.858C285.833 204.681 286.447 204.594 287.064 204.6C287.611 204.6 288.156 204.662 288.703 204.792C289.263 204.919 289.697 205.08 290.044 205.271L289.716 206.763H289.635C289.555 206.695 289.404 206.603 289.236 206.491C289.02 206.353 288.792 206.234 288.555 206.136C288.284 206.027 288.004 205.94 287.718 205.878C287.395 205.805 287.064 205.77 286.732 205.772C286.04 205.772 285.482 205.911 285.055 206.183C284.614 206.465 284.401 206.843 284.401 207.322C284.401 207.58 284.508 207.802 284.721 207.974C284.934 208.148 285.253 208.287 285.68 208.379C285.961 208.447 286.238 208.506 286.532 208.559C286.839 208.613 287.117 208.672 287.399 208.734C288.038 208.885 288.517 209.119 288.845 209.438C289.165 209.758 289.325 210.157 289.325 210.633C289.325 211.033 289.236 211.429 289.022 211.814C288.822 212.196 288.529 212.524 288.156 212.811C287.726 213.124 287.244 213.358 286.732 213.503C286.174 213.669 285.546 213.758 284.854 213.758ZM299.787 204.805L297.648 213.518H296.089L296.328 212.533C295.731 212.923 295.183 213.225 294.665 213.439C294.151 213.653 293.598 213.761 293.041 213.758C292.245 213.758 291.615 213.571 291.18 213.189C290.727 212.811 290.497 212.266 290.497 211.538C290.497 211.37 290.514 211.193 290.541 211.03C290.568 210.864 290.594 210.669 290.647 210.455L292.032 204.804H293.586L292.378 209.763C292.325 209.965 292.272 210.189 292.227 210.45C292.192 210.71 292.165 210.918 292.165 211.068C292.165 211.512 292.281 211.85 292.52 212.071C292.76 212.294 293.174 212.409 293.76 212.409C294.171 212.409 294.639 212.294 295.172 212.071C295.685 211.859 296.176 211.594 296.636 211.282L298.234 204.805H299.787ZM307.297 206.337H307.217C306.991 206.289 306.791 206.251 306.593 206.225C306.363 206.2 306.131 206.188 305.9 206.189C305.379 206.189 304.873 206.305 304.355 206.523C303.849 206.742 303.355 207.009 302.891 207.322L301.385 213.518H299.813L301.917 204.805H303.489L303.184 206.091C303.93 205.612 304.542 205.278 305.06 205.085C305.566 204.899 306.06 204.805 306.524 204.805C306.805 204.805 307.003 204.813 307.125 204.825C307.244 204.839 307.418 204.867 307.658 204.899L307.297 206.337ZM310.596 213.722C309.317 213.722 308.323 213.447 307.587 212.879C306.87 212.309 306.497 211.482 306.497 210.39C306.497 208.793 307.045 207.423 308.111 206.284C309.185 205.139 310.507 204.565 312.087 204.565C313.125 204.565 313.939 204.813 314.499 205.304C315.058 205.789 315.336 206.483 315.336 207.37C315.336 207.52 315.309 207.776 315.256 208.106C315.205 208.501 315.13 208.892 315.031 209.278H308.217C308.19 209.433 308.163 209.586 308.146 209.731C308.136 209.879 308.12 210.011 308.12 210.136C308.12 210.87 308.359 211.45 308.838 211.867C309.308 212.285 309.983 212.492 310.854 212.492C311.448 212.492 312.075 212.385 312.726 212.169C313.365 211.939 313.898 211.695 314.339 211.414H314.43L314.084 212.995C313.839 213.076 313.596 213.162 313.354 213.252C313.125 213.332 312.848 213.403 312.501 213.482C312.167 213.562 311.862 213.624 311.596 213.663C311.332 213.705 310.995 213.722 310.596 213.722ZM313.752 208.201C313.779 208.053 313.806 207.926 313.806 207.819C313.818 207.721 313.833 207.609 313.833 207.488C313.833 206.935 313.673 206.509 313.338 206.204C313.019 205.891 312.502 205.736 311.782 205.736C310.995 205.736 310.294 205.964 309.682 206.417C309.078 206.854 308.64 207.483 308.439 208.201H313.752ZM324.96 213.758C324.147 213.758 323.389 213.678 322.67 213.518C321.935 213.356 321.221 213.112 320.54 212.79L320.94 211.024H321.058C321.591 211.503 322.23 211.858 323.002 212.116C323.775 212.364 324.52 212.492 325.239 212.492C326.408 212.492 327.313 212.275 327.943 211.831C328.582 211.388 328.885 210.82 328.885 210.136C328.885 209.778 328.777 209.47 328.556 209.231C328.325 208.991 328.006 208.82 327.57 208.698C327.147 208.595 326.721 208.507 326.292 208.432C325.82 208.35 325.349 208.258 324.881 208.154C324.014 207.974 323.348 207.662 322.868 207.216C322.404 206.775 322.164 206.225 322.164 205.565C322.164 204.452 322.656 203.526 323.656 202.789C324.653 202.052 325.946 201.686 327.518 201.686C328.379 201.686 329.169 201.771 329.86 201.937C330.562 202.106 331.175 202.301 331.68 202.532L331.307 204.183H331.189C330.801 203.84 330.242 203.553 329.515 203.307C328.775 203.069 328.002 202.948 327.224 202.949C326.213 202.949 325.399 203.153 324.8 203.574C324.2 203.997 323.908 204.529 323.908 205.171C323.908 205.517 324.013 205.816 324.227 206.082C324.44 206.343 324.828 206.535 325.387 206.669C325.733 206.748 326.213 206.843 326.781 206.955C327.366 207.068 327.863 207.175 328.263 207.269C329.044 207.476 329.648 207.776 330.044 208.181C330.455 208.58 330.657 209.085 330.657 209.699C330.657 210.21 330.523 210.713 330.257 211.219C329.995 211.733 329.616 212.177 329.151 212.518C328.645 212.905 328.05 213.21 327.366 213.423C326.692 213.642 325.878 213.758 324.96 213.758ZM335.716 213.722C334.438 213.722 333.438 213.447 332.707 212.879C331.973 212.309 331.615 211.482 331.615 210.39C331.615 208.793 332.148 207.423 333.225 206.284C334.29 205.139 335.618 204.565 337.19 204.565C338.246 204.565 339.053 204.813 339.601 205.304C340.161 205.789 340.439 206.483 340.439 207.37C340.439 207.52 340.427 207.776 340.373 208.106C340.314 208.5 340.238 208.891 340.145 209.278H333.332C333.293 209.433 333.278 209.586 333.251 209.731C333.239 209.879 333.239 210.011 333.239 210.136C333.239 210.87 333.479 211.45 333.944 211.867C334.423 212.285 335.089 212.492 335.964 212.492C336.569 212.492 337.19 212.385 337.829 212.169C338.486 211.939 339.015 211.695 339.453 211.414H339.547L339.202 212.995C338.92 213.084 338.68 213.172 338.458 213.252C338.246 213.332 337.962 213.403 337.616 213.482C337.27 213.562 336.967 213.624 336.71 213.663C336.444 213.705 336.116 213.722 335.716 213.722ZM338.868 208.201C338.894 208.053 338.909 207.926 338.921 207.819C338.938 207.721 338.948 207.609 338.948 207.488C338.948 206.935 338.778 206.509 338.459 206.204C338.122 205.891 337.607 205.736 336.897 205.736C336.098 205.736 335.406 205.964 334.796 206.417C334.193 206.854 333.757 207.484 333.559 208.201H338.868ZM348.051 206.337H347.971C347.766 206.292 347.558 206.255 347.35 206.225C347.12 206.2 346.889 206.188 346.658 206.189C346.125 206.193 345.599 206.307 345.113 206.523C344.607 206.742 344.113 207.009 343.649 207.322L342.142 213.518H340.571L342.675 204.805H344.26L343.942 206.091C344.673 205.612 345.299 205.278 345.815 205.085C346.288 204.905 346.79 204.81 347.297 204.805C347.563 204.805 347.75 204.813 347.883 204.825C347.999 204.839 348.176 204.867 348.412 204.899L348.051 206.337Z" fill="#EA7D32"/>
<path d="M356.987 204.805L351.114 213.518H349.569L347.989 204.805H349.569L350.741 211.753L355.282 204.805H356.987ZM359.845 204.805L357.703 213.518H356.162L358.301 204.805H359.845ZM360.697 201.84L360.324 203.367H358.567L358.94 201.84H360.697ZM369.243 206.795C369.243 206.923 369.23 207.089 369.204 207.302C369.185 207.493 369.15 207.682 369.097 207.866L367.713 213.518H366.171L367.378 208.565C367.432 208.293 367.485 208.053 367.526 207.847C367.553 207.648 367.58 207.441 367.58 207.237C367.58 206.795 367.458 206.47 367.233 206.251C366.993 206.029 366.58 205.917 365.985 205.917C365.558 205.917 365.088 206.029 364.582 206.242C364.068 206.464 363.57 206.731 363.081 207.036L361.496 213.518H359.94L362.082 204.805H363.641L363.402 205.777C363.922 205.421 364.478 205.12 365.061 204.878C365.575 204.671 366.123 204.565 366.677 204.565C367.485 204.565 368.112 204.76 368.565 205.139C369.018 205.524 369.243 206.077 369.243 206.795ZM379.427 204.805L377.536 212.551C377.175 214.031 376.578 215.107 375.763 215.793C374.938 216.48 373.793 216.817 372.319 216.817C371.393 216.816 370.471 216.694 369.577 216.453L369.935 215.015H370.015C370.322 215.142 370.734 215.267 371.255 215.382C371.738 215.496 372.232 215.556 372.728 215.56C373.251 215.56 373.686 215.495 374.05 215.367C374.424 215.241 374.716 215.062 374.956 214.841C375.178 214.623 375.364 214.37 375.515 214.084C375.658 213.794 375.781 213.465 375.861 213.104L376.047 212.347C375.488 212.702 375.009 212.959 374.583 213.13C374.166 213.313 373.625 213.396 372.967 213.396C372.079 213.396 371.373 213.136 370.882 212.621C370.375 212.098 370.121 211.376 370.121 210.43C370.123 209.681 370.254 208.938 370.509 208.234C370.775 207.52 371.133 206.891 371.601 206.343C372.057 205.804 372.618 205.365 373.251 205.054C373.885 204.727 374.589 204.559 375.302 204.565C375.834 204.565 376.295 204.627 376.71 204.739C377.122 204.852 377.483 205 377.803 205.177L377.989 204.805H379.427ZM377.509 206.376C377.159 206.207 376.794 206.073 376.418 205.976C376.054 205.879 375.679 205.83 375.302 205.831C374.77 205.831 374.272 205.944 373.837 206.177C373.393 206.411 373.012 206.731 372.692 207.142C372.399 207.526 372.16 207.995 371.986 208.539C371.828 209.069 371.747 209.619 371.745 210.172C371.745 210.79 371.893 211.264 372.187 211.6C372.48 211.935 372.958 212.107 373.598 212.107C374.073 212.103 374.542 212.009 374.983 211.832C375.455 211.644 375.909 211.413 376.338 211.14L377.509 206.376ZM386.306 216.726H384.566L387.279 212.977L385.601 204.805H387.199L388.517 211.264L392.925 204.805H394.653L386.306 216.726ZM402.89 207.887C402.89 208.666 402.775 209.417 402.518 210.13C402.285 210.817 401.92 211.453 401.443 212.001C400.981 212.539 400.414 212.977 399.777 213.29C399.153 213.607 398.419 213.758 397.582 213.758C396.49 213.758 395.638 213.465 395.025 212.87C394.398 212.278 394.096 211.468 394.096 210.429C394.096 209.651 394.23 208.905 394.478 208.201C394.714 207.51 395.081 206.87 395.558 206.316C396.026 205.779 396.602 205.346 397.248 205.044C397.902 204.724 398.632 204.565 399.419 204.565C400.485 204.565 401.318 204.851 401.958 205.426C402.588 205.997 402.89 206.817 402.89 207.888V207.887ZM400.363 211.166C400.653 210.758 400.884 210.278 401.044 209.731C401.203 209.192 401.266 208.613 401.266 208.006C401.266 207.281 401.097 206.736 400.724 206.357C400.363 205.985 399.846 205.798 399.165 205.798C398.632 205.798 398.152 205.917 397.742 206.162C397.306 206.41 396.928 206.75 396.635 207.157C396.342 207.562 396.117 208.041 395.958 208.592C395.797 209.148 395.716 209.725 395.718 210.305C395.718 211.015 395.905 211.566 396.277 211.946C396.635 212.331 397.155 212.524 397.834 212.524C398.366 212.524 398.846 212.409 399.271 212.169C399.698 211.929 400.058 211.591 400.363 211.166ZM413.104 204.805L410.956 213.518H409.402L409.642 212.533C409.041 212.923 408.497 213.225 407.977 213.439C407.462 213.653 406.909 213.761 406.352 213.758C405.553 213.758 404.94 213.571 404.488 213.189C404.035 212.811 403.814 212.266 403.814 211.538C403.814 211.37 403.822 211.193 403.849 211.03C403.875 210.864 403.919 210.669 403.954 210.455L405.341 204.804H406.899L405.686 209.763C405.633 209.965 405.594 210.189 405.541 210.45C405.504 210.654 405.481 210.86 405.473 211.068C405.473 211.512 405.594 211.85 405.834 212.071C406.074 212.294 406.486 212.409 407.071 212.409C407.485 212.409 407.95 212.294 408.482 212.071C408.995 211.859 409.485 211.595 409.944 211.282L411.541 204.805H413.104ZM415.696 213.518H413.699L414.246 211.296H416.255L415.696 213.518Z" fill="#EA7D32"/>
</svg>
