<svg width="480" height="320" viewBox="0 0 480 320" fill="none" xmlns="http://www.w3.org/2000/svg">
<path d="M301.14 142.451C302.763 147.75 301.65 154.034 298.19 157.839C292.633 164.081 285.418 166.175 278.044 167.327C278.044 167.327 285.332 180.796 287.791 186.694H266.649C262.391 179.085 258.551 171.303 254.62 163.525C254.458 162.754 253.876 162.112 254.368 162.112C263.379 161.343 274.933 162.968 280.503 154.205C281.324 152.88 281.484 150.785 281.324 149.289C279.849 144.331 274.933 144.116 270.838 143.947C247.576 144.331 217.88 186.821 217.88 186.821L211.976 186.694C211.976 186.694 218.585 175.876 222.351 170.92C239.224 146.981 261.832 130.654 289.186 133.132C293.96 134.073 299.004 136.936 301.14 142.451ZM354.871 134.713L317.213 186.821H292.803C292.119 186.435 329.822 134.713 329.822 134.713H354.871ZM147.49 142.535C146.669 140.057 144.54 137.961 142.573 136.465C131.27 131.508 117.674 134.925 107.192 139.286C87.3725 146.725 54.7389 185.154 55.3945 186.694C63.2592 187.419 80.8206 186.99 80.8206 186.99C80.8206 186.99 87.5345 173.697 92.6146 168.952C105.229 168.738 118.006 167.797 130.128 168.567L117.744 186.694C117.744 186.694 121.61 186.821 123.245 186.607L142.411 162.285C146.177 156.984 149.948 149.932 147.49 142.535ZM142.411 150.486C140.773 155.061 138.646 160.189 134.713 162.285C122.753 162.285 110.633 162.885 98.5108 162.285C108.177 151.257 119.97 143.477 133.077 140.612C136.022 140.612 139.138 140.612 141.429 142.92C142.74 145.014 143.232 148.049 142.411 150.486ZM224.971 146.041C219.568 135.952 209.902 132.917 200.071 132.917C169.932 132.746 132.092 186.989 132.092 186.989L134.55 186.905H179.925C193.356 185.578 205.807 181.56 216.125 171.685C222.35 165.618 227.428 156.301 224.971 146.041ZM195.485 171.303C180.416 182.163 161.087 182.331 142.083 181.177C142.083 181.177 171.405 147.921 191.389 146.425C196.96 146.21 202.691 147.366 205.147 153.265C206.623 161.258 200.4 167.5 195.485 171.303ZM423.819 142.066C423.006 139.587 420.871 137.492 418.902 135.953C407.619 131.038 394.023 134.457 383.552 138.818C363.717 146.212 331.103 184.684 331.745 186.223C339.608 186.949 357.177 186.522 357.177 186.522C357.177 186.522 363.891 173.228 368.977 168.482C381.585 168.269 394.367 167.327 406.463 168.098L394.067 186.223C394.067 186.223 397.957 186.307 399.581 186.138L418.775 161.816C422.536 156.513 426.298 149.461 423.819 142.066ZM418.775 150.017C417.108 154.591 414.97 159.72 411.08 161.816C399.112 161.816 386.971 162.37 374.875 161.816C384.535 150.786 396.335 143.008 409.415 140.143C412.364 140.143 415.485 140.143 417.793 142.451C419.075 144.502 419.588 147.581 418.775 150.017Z" fill="#2B438F"/>
</svg>
