<svg width="480" height="320" viewBox="0 0 480 320" fill="none" xmlns="http://www.w3.org/2000/svg">
<g clip-path="url(#clip0_730_18572)">
<mask id="mask0_730_18572" style="mask-type:luminance" maskUnits="userSpaceOnUse" x="-391" y="-964" width="887" height="1255">
<path d="M-390.696 -963.951H495.511V290.811H-390.696V-963.951Z" fill="white"/>
</mask>
<g mask="url(#mask0_730_18572)">
<path d="M138.98 133.971C136.003 134.623 122.699 140.944 117.306 143.665L114.114 144.386C112.473 143.99 90.5844 136.744 78.9128 140.49C73.2109 142.342 55.952 146.851 55.952 146.851C54.2131 147.39 56.9569 147.585 57.792 147.46C58.6123 147.351 61.4439 146.899 64.7995 146.218C71.5301 144.858 75.3219 144.63 78.8696 144.423C85.6299 144.04 95.7399 145.069 103.827 149.093C104.449 149.395 104.73 149.742 104.769 150.161C104.83 151.304 102.948 153.162 102.204 153.644C102.204 153.644 104.556 153.778 106.027 153.321C106.576 153.162 107.205 153.126 108.062 153.071C109.174 152.982 110.682 152.888 113.047 152.449C117.708 151.597 119.825 150.437 122.046 149.184L122.205 149.093C123.636 148.317 136.433 143.098 136.433 143.098C144.078 139.963 147.296 142.982 156.461 142.004C165.641 141.036 172.898 138.349 178.502 137.896C179.551 137.806 177.15 137.103 176.501 137.024C173.788 136.713 160.899 137.012 156.97 136.481C148.376 135.319 141.989 133.318 138.98 133.971ZM158.537 146.415C158.537 150.271 156.769 157.197 156.769 157.197C156.694 157.483 156.569 157.889 156.511 158.093C156.441 158.288 156.624 158.462 156.927 158.462H161.606C161.884 158.462 162.177 158.377 162.195 158.261C162.225 158.151 162.311 157.834 162.387 157.544C162.387 157.544 163.977 150.381 163.977 146.415C163.977 145.156 163.897 143.908 163.778 142.67C162 143.017 160.212 143.305 158.415 143.533C158.497 144.485 158.537 145.461 158.537 146.415ZM162.311 135.003C161.253 131.44 159.733 128.094 157.802 125.033C155.185 125.21 153.19 125.033 151.381 124.838C151.244 124.814 151.112 124.814 150.984 124.814C153.335 127.761 155.185 131.074 156.461 134.622C156.708 134.66 156.952 134.704 157.211 134.732C158.302 134.872 160.148 134.963 162.311 135.003Z" fill="#002D62"/>
<path d="M83.4258 146.415C83.4258 150.364 85.0217 157.544 85.0217 157.544C85.0947 157.834 85.1825 158.151 85.1944 158.261C85.2316 158.377 85.4966 158.462 85.7989 158.462H90.4854C90.7682 158.462 90.9573 158.288 90.8903 158.093C90.8144 157.889 90.7102 157.483 90.6224 157.197C90.6224 157.197 88.9296 150.495 88.8805 146.613C86.9913 146.357 85.1587 146.217 83.4258 146.171V146.415ZM89.9797 137.733C90.9801 133.862 92.6162 130.234 94.7868 127.01C92.981 127.163 90.8253 127.407 87.9416 127.958C86.3561 130.994 85.1591 134.285 84.3969 137.733C86.106 137.623 87.9758 137.623 89.9797 137.733ZM101.558 119.543C107.562 114.576 115.298 111.584 123.697 111.584C130.091 111.584 136.086 113.332 141.239 116.348C142.666 115.76 143.828 115.341 144.457 115.198C145.729 114.92 147.34 115.091 149.404 115.434C142.422 109.634 133.468 106.138 123.697 106.138C110.729 106.138 99.1731 112.306 91.8172 121.846C93.8062 121.296 95.5688 120.787 96.7345 120.406C98.1294 119.964 99.7433 119.668 101.558 119.543Z" fill="#002D62"/>
<path d="M144.839 116.865C142.484 117.356 131.917 122.395 127.663 124.547C127.578 124.552 125.287 125.087 125.125 125.105C123.834 124.806 106.48 119.068 97.2454 122.035C92.7182 123.5 79.0352 127.079 79.0352 127.079C77.6536 127.484 79.8376 127.637 80.509 127.557C81.1462 127.469 83.3972 127.097 86.065 126.562C91.3843 125.483 94.3766 125.3 97.2082 125.138C102.55 124.837 110.567 125.666 116.971 128.845C117.465 129.083 117.707 129.376 117.739 129.708C117.765 130.589 116.288 132.078 115.695 132.456C115.695 132.456 117.553 132.548 118.716 132.203C119.17 132.078 119.655 132.029 120.33 131.999C121.22 131.932 122.414 131.847 124.287 131.508C127.986 130.836 129.664 129.894 131.413 128.92L131.544 128.87C132.667 128.222 142.786 124.091 142.786 124.091C148.869 121.608 151.419 124.009 158.688 123.229C165.94 122.459 171.715 120.342 176.139 119.964C176.99 119.894 175.065 119.348 174.558 119.287C172.424 119.04 162.224 119.272 159.076 118.854C152.282 117.938 147.209 116.355 144.839 116.865Z" fill="#002D62"/>
<path fill-rule="evenodd" clip-rule="evenodd" d="M207.084 146.485L205.318 133.7C205.257 133.191 205.046 133.157 204.836 133.633L199.82 145.631C199.625 146.098 199.887 146.485 200.397 146.485H207.084ZM219.875 157.413C219.954 157.907 219.625 158.31 219.113 158.31H209.811C209.305 158.31 208.826 157.907 208.783 157.389L208.491 154.914C208.448 154.396 207.968 153.99 207.471 153.99H197.483C196.974 153.99 196.395 154.38 196.2 154.828L195.058 157.471C194.857 157.932 194.265 158.31 193.767 158.31H183.715C183.209 158.31 182.98 157.95 183.209 157.483L200.419 122.229C200.644 121.756 201.257 121.384 201.76 121.384H211.766C212.274 121.384 212.768 121.787 212.877 122.299L219.875 157.413ZM256.829 121.383L255.654 129.226C255.569 129.734 255.084 130.156 254.587 130.156H239.382C238.851 130.156 238.362 130.551 238.289 131.06L237.771 134.308C237.698 134.779 238.054 135.203 238.554 135.203H251.78C252.307 135.203 252.65 135.627 252.566 136.134L251.523 142.568C251.475 143.071 250.975 143.467 250.455 143.467H237.292C236.789 143.467 236.321 143.891 236.239 144.404L235.629 148.538C235.556 149.053 235.916 149.459 236.437 149.459H252.758C253.266 149.459 253.61 149.876 253.549 150.382L252.549 157.394C252.482 157.906 251.999 158.311 251.493 158.311H223.46C222.945 158.311 222.582 157.906 222.679 157.394L228.002 122.308C228.072 121.787 228.561 121.383 229.058 121.383H256.829ZM327.959 121.383L326.779 129.226C326.691 129.734 326.221 130.156 325.714 130.156H310.479C309.967 130.156 309.481 130.551 309.396 131.06L308.88 134.279C308.822 134.779 309.152 135.203 309.682 135.203H322.905C323.414 135.203 323.792 135.627 323.697 136.134L322.676 142.568C322.603 143.071 322.118 143.467 321.577 143.467H308.383C307.885 143.467 307.425 143.891 307.343 144.404L306.739 148.538C306.669 149.053 307.023 149.459 307.541 149.459H323.886C324.394 149.459 324.75 149.876 324.692 150.382L323.679 157.394C323.609 157.906 323.127 158.311 322.609 158.311H294.551C294.042 158.311 293.692 157.906 293.771 157.394L299.109 122.308C299.188 121.787 299.653 121.383 300.174 121.383H327.959ZM348.799 146.485L347.066 133.7C346.987 133.191 346.773 133.157 346.563 133.633L341.55 145.631C341.346 146.098 341.596 146.485 342.12 146.485H348.799ZM361.596 157.413C361.697 157.907 361.365 158.31 360.852 158.31H351.566C351.056 158.31 350.572 157.907 350.535 157.389L350.23 154.914C350.174 154.396 349.715 153.99 349.195 153.99H339.223C338.716 153.99 338.131 154.38 337.915 154.828L336.788 157.471C336.596 157.932 335.982 158.31 335.496 158.31H325.433C324.924 158.31 324.692 157.95 324.909 157.483L342.158 122.229C342.376 121.756 342.987 121.384 343.498 121.384H353.485C354.004 121.384 354.498 121.787 354.605 122.299L361.596 157.413ZM403.751 121.383L398.3 157.394C398.236 157.906 397.75 158.311 397.235 158.311H388.19C387.683 158.311 387.095 157.933 386.884 157.47L378.879 140.019C378.684 139.562 378.413 138.769 378.288 138.283L377.876 136.029C377.8 135.523 377.736 135.346 377.736 135.617C377.736 135.907 377.736 136.548 377.733 137.058C377.733 137.058 377.722 137.936 377.667 138.422C377.625 138.891 377.524 139.693 377.448 140.21L374.889 157.394C374.809 157.906 374.331 158.311 373.825 158.311H364.666C364.172 158.311 363.803 157.906 363.887 157.394L369.178 122.308C369.245 121.787 369.734 121.383 370.249 121.383H379.214C379.716 121.383 380.313 121.773 380.539 122.229L388.335 139.425C388.553 139.888 388.855 140.688 389.001 141.167L389.565 143.723C389.663 144.229 389.751 144.223 389.768 143.723L389.913 141.045C389.966 140.527 390.047 139.714 390.161 139.208L392.72 122.299C392.796 121.787 393.275 121.383 393.793 121.383H403.751ZM283.928 137.599C283.422 137.599 283.004 137.599 283.004 137.637C283.004 137.637 282.582 137.642 282.07 137.642H280.166C279.63 137.642 279.163 138.059 279.093 138.554L278.061 144.982C277.988 145.482 278.337 145.898 278.855 145.898H280.075C280.596 145.898 280.796 146.273 280.558 146.703C280.558 146.703 280.075 147.572 279.508 148.157C277.949 149.802 275.97 150.599 273.565 150.599C271.244 150.599 269.517 149.771 268.419 148.114C267.317 146.459 267.064 143.722 267.64 139.926C268.203 136.093 269.318 133.343 270.92 131.682C272.528 130.025 274.472 129.191 276.726 129.191C279.066 129.191 280.796 130.016 281.93 131.665L282.085 131.889C282.224 132.188 282.772 132.429 283.282 132.429H293.108C293.605 132.429 293.925 132.04 293.794 131.534C293.794 131.534 292.692 127.327 291.149 125.418C288.426 122.066 284.062 120.372 278.075 120.372C272.254 120.372 267.421 122.093 263.641 125.485C259.849 128.932 257.497 133.723 256.552 139.885C255.889 144.267 256.171 147.922 257.363 150.864C258.583 153.807 260.411 155.946 262.854 157.307C265.289 158.657 268.575 159.342 272.606 159.342C276.622 159.342 280.058 158.523 282.964 156.971C285.877 155.4 288.269 153.216 290.104 150.388C291.967 147.572 293.193 143.976 293.87 139.582C293.947 138.911 294.004 138.536 294.004 138.536C294.062 138.027 293.678 137.599 293.169 137.599H283.928Z" fill="#002D62"/>
<path d="M55.4717 170.834H424.617H55.4717Z" fill="black"/>
<path d="M55.4717 170.834H424.617" stroke="black" stroke-width="1.61528"/>
<path d="M390.307 191.799C391.444 190.219 392.708 188.705 394.098 187.263C395.493 185.817 396.972 184.495 398.515 183.299L396.86 189.917L390.307 191.799Z" fill="#D1D3D4"/>
<path d="M401.765 194.657C399.832 194.459 397.887 194.125 395.942 193.639C393.99 193.153 392.113 192.537 390.304 191.799L396.86 189.917L401.765 194.657Z" fill="#58595B"/>
<path d="M398.515 183.299C399.308 185.076 399.992 186.929 400.547 188.855C401.096 190.783 401.504 192.723 401.769 194.657L396.861 189.917L398.515 183.299ZM387.989 205.401C386.824 203.809 385.773 202.136 384.846 200.394C383.904 198.62 383.101 196.809 382.44 194.971L388.227 198.585L387.989 205.401Z" fill="#939598"/>
<path d="M394.246 195.384C393.452 197.19 392.53 198.936 391.485 200.609C390.42 202.315 389.252 203.913 387.989 205.403L388.227 198.585L394.246 195.384Z" fill="#58595B"/>
<path d="M382.446 194.971C384.38 194.761 386.348 194.687 388.352 194.754C390.357 194.822 392.33 195.041 394.246 195.383L388.227 198.586L382.446 194.971Z" fill="#D1D3D4"/>
<path d="M400.213 211.806C398.364 212.417 396.448 212.899 394.476 213.249C392.498 213.597 390.524 213.801 388.58 213.859L393.804 209.475L400.213 211.806Z" fill="#58595B"/>
<path d="M392.618 202.758C394.07 204.057 395.444 205.47 396.736 207.007C398.009 208.522 399.171 210.127 400.214 211.809L393.805 209.475L392.618 202.758Z" fill="#939598"/>
<path d="M388.579 213.859C388.975 211.955 389.513 210.053 390.196 208.172C390.885 206.285 391.699 204.476 392.618 202.758L393.804 209.475L388.579 213.859Z" fill="#D1D3D4"/>
<path d="M410.078 202.162C410.084 204.11 409.956 206.078 409.679 208.064C409.405 210.024 408.989 211.962 408.435 213.862L405.88 207.537L410.078 202.162Z" fill="#939598"/>
<path d="M399.128 206.59C400.809 205.613 402.579 204.738 404.434 203.985C406.298 203.234 408.185 202.627 410.084 202.161L405.879 207.538L399.128 206.59Z" fill="#D1D3D4"/>
<path d="M408.436 213.859C406.746 212.897 405.107 211.794 403.527 210.562C401.943 209.329 400.477 207.997 399.122 206.59L405.879 207.538L408.436 213.859Z" fill="#58595B"/>
<path d="M403.958 189.798C405.81 190.394 407.646 191.125 409.446 192.001C411.224 192.869 412.938 193.864 414.574 194.977L407.774 195.454L403.958 189.798Z" fill="#939598"/>
<path d="M404.784 201.583C404.368 199.682 404.088 197.724 403.948 195.729C403.81 193.755 403.813 191.773 403.957 189.798L407.773 195.454L404.784 201.583Z" fill="#D1D3D4"/>
<path d="M414.574 194.977C413.135 196.282 411.582 197.506 409.922 198.626C408.281 199.734 406.563 200.722 404.781 201.584L407.774 195.453L414.574 194.977Z" fill="#58595B"/>
<path d="M418.639 197.076H418.932V194.495H420.052V194.224H417.52V194.495H418.639V197.076ZM423.757 194.224H424.175V197.076H423.882V194.614H423.879L422.616 197.076H422.344L421.09 194.611H421.081V197.076H420.788V194.224H421.218L422.488 196.704L423.757 194.224Z" fill="white"/>
<path d="M291.599 193.884H293.442V206.489H292.146V195.607H292.108L286.557 206.489H285.354L279.817 195.59H279.788V206.489H278.488V193.884H280.385L285.996 204.848L291.599 193.884ZM242.285 200.219C242.285 204.185 245.036 206.747 249.085 206.747C252.858 206.747 255.14 204.197 255.439 201.681L255.477 201.376H254.116L254.073 201.601C253.642 204.02 251.732 205.518 249.085 205.518C245.186 205.518 243.628 202.778 243.628 200.213C243.628 197.08 245.888 194.89 249.133 194.89C251.607 194.89 253.383 196.067 253.89 198.041L253.942 198.257H255.296L255.22 197.916C254.598 195.216 252.386 193.663 249.133 193.663C244.524 193.663 242.285 197.065 242.285 200.219ZM259.518 193.926V206.479H269.649V205.253H260.818V200.591H269.198V199.384H260.818V195.155H269.545V193.926H259.518ZM236.919 193.926V204.404C236.117 203.426 227.837 193.926 227.837 193.926H226.528V206.479H227.819V196.006C228.624 196.986 236.906 206.479 236.906 206.479H238.212V193.926H236.919ZM204.932 206.479H206.226V193.926H204.932V206.479ZM193.197 193.926V206.479H202.226V205.253H194.502V193.926H193.197ZM181.357 193.926V206.479H190.402V205.253H182.662V193.926H181.357ZM216.631 195.662C217.025 196.529 218.956 200.766 219.241 201.397H214.002C214.295 200.763 216.235 196.529 216.631 195.662ZM216.025 193.926L210.25 206.479H211.693C211.693 206.479 213.321 202.9 213.458 202.601H219.777C219.914 202.898 221.565 206.479 221.565 206.479H222.986L217.241 193.926H216.025ZM170.951 195.662C171.344 196.529 173.274 200.766 173.556 201.397H168.324C168.61 200.763 170.552 196.529 170.951 195.662ZM170.343 193.926L164.571 206.479H166.011C166.011 206.479 167.641 202.9 167.778 202.601H174.096C174.233 202.898 175.88 206.479 175.88 206.479H177.307L171.558 193.926H170.343ZM151.17 195.155C153.153 195.155 154.111 195.869 154.111 197.343C154.111 198.993 153.095 199.795 150.987 199.795H146.008V195.155H151.17ZM144.703 193.926V206.479H146.008V201.022H151.088C153.327 201.022 153.854 201.467 153.912 203.42C153.958 205.461 154.047 206.131 154.321 206.398L154.403 206.479H155.749L155.536 206.079C155.331 205.686 155.264 204.906 155.24 202.88C155.224 201.635 154.54 200.731 153.464 200.332C154.868 199.701 155.447 198.425 155.447 197.382C155.447 195.055 154.028 193.926 151.112 193.926H144.703ZM134.7 195.662C135.096 196.529 137.039 200.763 137.326 201.397H132.089C132.38 200.766 134.308 196.529 134.7 195.662ZM134.116 193.926L128.341 206.479H129.76C129.76 206.479 131.408 202.898 131.545 202.601H137.866C138 202.9 139.632 206.479 139.632 206.479H141.081L135.306 193.926H134.116ZM116.975 193.926V195.155H121.834V206.479H123.125V195.155H127.987V193.926H116.975ZM103.664 202.357C103.664 203.6 104.03 204.52 104.754 205.25C105.723 206.22 107.447 206.712 109.604 206.712C110.813 206.712 114.955 206.445 114.955 203.008C114.955 199.984 112.198 199.701 109.761 199.46L109.758 199.454C107.246 199.201 105.391 198.929 105.391 197.218C105.391 196.372 105.821 195.753 106.719 195.347C107.645 194.918 108.644 194.857 109.68 194.857C110.471 194.857 111.927 194.979 112.756 195.802C113.134 196.183 113.332 196.791 113.332 197.391L114.594 197.404C114.594 196.486 114.3 195.558 113.719 194.974C112.661 193.916 110.88 193.694 109.57 193.694C107.775 193.694 106.007 194.078 104.919 195.168C104.347 195.732 104.059 196.427 104.059 197.218C104.059 200.182 107.075 200.423 109.442 200.635C110.561 200.734 111.617 200.83 112.402 201.174C113.229 201.537 113.619 202.141 113.619 203.066C113.619 203.654 113.421 204.148 113.036 204.534C112.116 205.454 110.212 205.549 109.522 205.549C107.813 205.549 106.438 205.183 105.708 204.453C105.181 203.926 104.919 203.279 104.912 202.354L103.664 202.357ZM86.895 201.397C87.1853 200.766 89.1162 196.529 89.5063 195.668C89.8993 196.529 91.8466 200.766 92.1369 201.397H86.895ZM90.1167 193.93H88.9212L83.1523 206.48H84.5681C84.5681 206.48 86.2147 202.898 86.3517 202.604H92.6758C92.8098 202.901 94.437 206.48 94.437 206.48H95.8855L90.1167 193.93ZM297.496 193.953V206.503H307.63V205.275H298.799V200.618H307.179V199.408H298.799V195.18H307.53V193.953H297.496ZM324.697 193.895H326.54V206.497H325.247V195.613H325.21L319.655 206.497H318.452L312.916 195.597H312.883V206.497H311.589V193.895H313.48L319.094 204.854L324.697 193.895ZM331.923 200.571H337.707C339.218 200.571 340.346 201.083 340.346 202.906C340.346 204.635 339.079 205.308 337.39 205.308H331.923V200.571ZM330.638 206.489H337.601C339.532 206.489 341.74 205.529 341.74 202.906C341.74 201.298 340.745 200.083 339.099 199.836V199.8C340.587 199.446 341.248 198.311 341.248 197.091C341.248 195.306 340.227 193.927 337.765 193.927H330.638V206.489ZM331.923 195.105H337.521C338.942 195.105 339.956 195.605 339.956 197.146C339.956 198.823 338.835 199.391 337.081 199.391H331.923V195.105ZM345.842 193.942V206.492H355.976V205.262H347.139V200.604H355.522V199.396H347.139V195.168H355.87V193.942H345.842ZM366.202 199.803H361.217V195.169H366.379C368.368 195.169 369.328 195.881 369.328 197.353C369.328 199.001 368.301 199.803 366.202 199.803ZM370.75 206.087C370.543 205.694 370.473 204.919 370.451 202.891C370.436 201.647 369.749 200.743 368.673 200.344C370.078 199.716 370.656 198.437 370.656 197.393C370.656 195.066 369.234 193.939 366.321 193.939H359.912V206.488H361.217V201.033H366.3C368.536 201.033 369.063 201.475 369.121 203.433C369.167 205.474 369.261 206.14 369.531 206.407L369.612 206.488H370.958L370.75 206.087Z" fill="black"/>
</g>
</g>
<defs>
<clipPath id="clip0_730_18572">
<rect width="480" height="320" fill="white"/>
</clipPath>
</defs>
</svg>
