<svg width="480" height="320" viewBox="0 0 480 320" fill="none" xmlns="http://www.w3.org/2000/svg">
<path d="M90.3915 152.083H72.3474L82.4158 133.493C83.8884 130.782 85.2042 128.069 86.2117 125.668H86.3649C86.5199 128.228 86.8355 130.939 87.2987 133.414M100.619 169.974L91.7884 117.689H84.0397L55.3848 169.974H62.8198L69.4022 157.732H91.2441L93.1023 169.974H100.619ZM130.359 140.385C130.359 145.032 125.092 147.431 113.163 147.9C114.948 141.391 119.048 136.045 125.166 136.045C128.266 136.045 130.359 137.599 130.359 140.385ZM137.253 139.535C137.253 134.96 134.153 130.782 125.941 130.782C113.163 130.782 104.88 143.249 104.88 158.197C104.88 166.87 108.982 170.668 117.808 170.668C122.842 170.668 127.336 169.817 131.054 168.346V162.768C127.725 164.163 123.852 165.014 120.211 165.014C114.016 165.014 111.923 163.465 111.923 157.501C111.923 156.106 112.08 154.172 112.313 153.011C128.808 152.391 137.253 147.822 137.253 139.535ZM163.893 137.521C156.768 135.504 149.176 150.611 147.163 161.299L145.537 169.972H138.724L146.002 131.48H152.662C152.04 134.81 150.96 138.915 148.713 145.656L148.868 145.728C153.204 136.353 157.849 129.544 165.29 130.782" fill="#549D4C"/>
<path d="M195.96 151.31H181.553L188.678 137.986C190.306 134.96 191.622 131.941 192.78 129.232H192.86C193.015 132.096 193.323 134.886 193.712 137.597M209.125 169.974L200.76 117.687H189.606L161.725 169.974H172.024L177.604 159.284H196.966L198.512 169.974H209.125ZM237.625 140.23C231.978 138.45 225.239 148.595 222.677 161.605L221.053 169.974H211.374L215.246 149.834C216.329 144.41 217.796 136.434 218.575 131.48H227.946C227.405 134.421 226.475 137.828 224.613 143.093H224.772C228.874 134.962 233.056 129.618 239.719 130.705M264.348 139.068L263.883 141.546C262.334 149.677 255.442 162.305 249.943 162.305C248.007 162.305 246.999 160.755 246.999 156.959C246.999 148.904 251.103 138.525 260.007 138.525C261.714 138.523 263.108 138.756 264.348 139.068ZM275.344 131.941C271.009 131.09 266.363 130.782 261.714 130.782C244.827 130.782 237.005 144.257 237.005 158.817C237.005 167.031 240.186 170.819 246.067 170.819C253.737 170.819 259.087 163.39 262.179 157.732H262.334C260.555 163.076 259.389 166.946 258.695 169.972H268.297C269.924 159.826 271.938 149.836 275.344 131.941ZM308.341 169.974H298.581L303.232 145.805C304.16 141.081 303.383 139.145 300.906 139.145C295.717 139.145 288.742 151.227 287.044 160.214L285.184 169.974H275.503L279.375 149.834C280.616 143.633 281.853 136.82 282.702 131.48H292.233C291.768 133.799 290.836 137.363 288.742 143.406L288.9 143.48C292.388 136.586 297.73 130.625 305.086 130.625C312.523 130.625 314.771 135.894 313.379 143.406M348.539 169.974H338.779L343.427 145.805C344.358 141.081 343.586 139.145 341.1 139.145C335.911 139.145 328.943 151.227 327.236 160.214L325.376 169.974H315.695L319.569 149.834C320.812 143.633 322.053 136.82 322.905 131.48H332.429C331.964 133.799 331.038 137.363 328.943 143.406L329.094 143.48C332.58 136.586 337.928 130.625 345.286 130.625C352.719 130.625 354.967 135.894 353.573 143.406" fill="#0E5A3A"/>
<path d="M412.795 115.272C413.963 96.8105 371.61 91.7598 318.203 103.982C298.057 108.58 279.221 114.999 263.512 122.179C281.131 112.67 304.516 103.96 329.986 98.1263C383.4 85.9025 425.75 90.957 424.593 109.411C423.862 120.92 406.41 134.905 380.446 146.772C399.772 136.34 412.179 124.932 412.795 115.272Z" fill="#549D4C"/>
<path d="M387.424 125.074C389.637 109.032 354.529 103.358 309.011 112.393C291.843 115.799 275.659 120.819 262.022 126.602C277.412 118.846 297.553 111.956 319.273 107.641C364.789 98.6135 399.901 104.288 397.684 120.328C396.306 130.323 380.764 141.978 358.245 151.541C375.119 143.028 386.271 133.467 387.424 125.074ZM62.7363 182.574H73.2364C79.7709 182.574 83.9581 184.885 82.6921 191.665C81.668 197.143 78.0344 198.85 74.3086 199.705L74.2901 199.806C78.9147 200.862 78.911 203.826 79.0328 207.49L79.3243 217.236H73.3435L73.1331 209.753C72.9615 204.224 72.6016 202.368 67.2261 202.368H64.9157L62.1402 217.236H56.2627M65.6962 198.195H68.0067C71.6753 198.195 75.6354 197.444 76.5913 192.316C77.2667 188.699 75.7738 186.741 72.4577 186.741H67.8332L65.6962 198.195ZM100.393 216.832C98.2634 217.485 96.0969 217.788 93.5355 217.788C85.7979 217.788 82.4061 212.814 84.0466 204.023C85.2941 197.343 89.162 192.77 96.3977 192.77C102.476 192.77 104.768 196.64 103.681 202.466L103.427 203.824H89.258C88.6398 207.136 89.6437 213.87 96.3756 213.87C98.1324 213.87 100.046 213.316 101.116 212.964M98.7801 200.458C99.0606 198.95 98.793 196.337 95.3293 196.337C92.0629 196.337 90.4519 199.05 90.0386 200.458H98.7801ZM123.318 218.895C122.013 225.876 117.348 228.543 110.113 228.543C106.444 228.543 103.814 227.838 102.807 227.588L103.831 222.11C105.043 222.864 107.352 224.219 110.819 224.219C116.346 224.219 117.721 220.351 118.302 217.24L118.998 213.521H118.895C118.107 214.527 115.791 217.24 112.022 217.24C105.643 217.24 104.977 211.109 106.169 204.726C107.352 198.398 110.915 192.772 116.592 192.772C120.611 192.772 121.552 194.984 122.131 196.189H122.235L122.77 193.329H128.094M114.689 212.914C117.906 212.914 120 208.146 120.639 204.724C121.231 201.567 121.109 197.092 117.644 197.092C114.025 197.092 112.689 201.567 112.098 204.724C111.46 208.146 111.02 212.914 114.689 212.914ZM136.127 182.574H141.703L140.672 188.099H135.097M134.119 193.325H139.696L135.23 217.236H129.653L134.119 193.325ZM142.183 205.28C143.649 197.444 148.186 192.77 155.07 192.77C161.953 192.77 164.749 197.444 163.285 205.28C161.822 213.121 157.28 217.788 150.399 217.788C143.516 217.788 140.72 213.121 142.183 205.28ZM151.13 213.87C155.149 213.87 156.522 209.755 157.358 205.28C158.192 200.808 158.358 196.691 154.337 196.691C150.32 196.691 148.948 200.808 148.112 205.28C147.277 209.753 147.11 213.87 151.13 213.87ZM169.984 193.325H175.561L174.726 197.797H174.826C175.92 195.986 178.428 192.77 182.848 192.77C186.363 192.77 188.877 195.182 187.856 200.655L184.76 217.234H179.185L181.735 203.573C182.645 198.697 182.274 197.996 180.318 197.996C176.548 197.996 173.734 203.119 173.029 206.883L171.097 217.234H165.52M203.26 214.475H203.162C202.117 216.029 200.132 217.788 196.312 217.788C192.294 217.788 189.727 215.376 190.449 211.513C191.933 203.573 201.99 203.523 205.326 203.421L205.766 201.061C206.207 198.703 205.976 196.691 203.215 196.691C200.152 196.691 199.165 198.751 198.864 200.358H193.435C194.287 195.787 197.869 192.77 203.946 192.77C209.875 192.77 212.16 195.335 211.248 200.209L208.067 217.238H202.745M198.401 213.87C202.016 213.87 204.107 209.952 204.714 206.688C201.095 206.688 196.57 207.793 195.97 211.004C195.62 212.868 196.491 213.87 198.401 213.87ZM220.47 182.574H226.044L219.573 217.236H213.992" fill="#0E5A3A"/>
</svg>
