<svg width="480" height="320" viewBox="0 0 480 320" fill="none" xmlns="http://www.w3.org/2000/svg">
<path d="M424.219 161.784C422.891 166.057 418.462 170.069 413.147 170.902C414.007 172.231 414.398 173.872 414.189 175.696C413.616 180.646 408.875 184.631 403.795 184.684C400.356 184.71 395.693 183.225 392.411 178.04C389.467 173.429 389.05 166.109 389.258 163.895C385.663 167.568 383.423 171.137 382.355 173.612C379.958 179.213 379.046 186.038 379.098 189.243C379.098 189.243 378.655 189.659 378.239 189.737C376.91 189.503 375.764 189.008 374.904 188.253C373.862 187.315 373.628 186.429 373.628 186.429C375.217 178.483 377.744 173.534 381.521 167.88C386.601 160.247 394.443 155.532 403.743 152.692C410.464 150.634 417.446 150.192 422.239 154.256C424.818 156.392 424.975 159.466 424.219 161.784ZM384.621 157.564C383.032 160.221 378.681 164.494 375.243 166.708C368.079 171.293 362.92 171.606 360.341 169.965C360.029 169.782 359.768 169.548 359.534 169.313C357.528 167.203 357.866 163.452 360.211 160.378C361.357 158.867 362.842 157.799 364.275 157.304C363.155 156.783 362.399 155.688 362.243 154.151C361.93 151.077 364.249 147.039 367.453 145.398C370.267 143.965 376.337 142.532 380.792 149.176C382.537 151.755 384.1 155.428 384.621 157.564ZM414.059 129.637C413.668 125.807 409.578 124.401 405.072 126.329C402.935 127.24 401.06 128.777 399.731 130.523C399.939 128.777 399.444 127.24 398.194 126.329C395.719 124.531 391.212 125.86 388.138 129.194C387.07 130.366 383.579 134.587 383.397 140.787C383.319 143.783 384.647 150.426 389.024 155.011C400.695 150.608 406.973 143.861 409.37 141.074C412.131 137.843 413.304 135.004 413.799 132.919C414.163 131.278 414.111 130.106 414.059 129.637Z" fill="#82C341"/>
<path d="M409.37 141.074C412.132 137.843 413.304 135.004 413.799 132.919C413.825 132.815 413.851 132.711 413.877 132.581C413.304 134.899 408.407 140.891 401.633 145.997C394.599 151.286 390.587 153.943 389.05 154.985C400.695 150.608 406.974 143.861 409.37 141.074ZM375.243 166.682C378.682 164.468 383.033 160.195 384.622 157.538C381.548 160.456 377.015 164.806 369.225 168.245C365.37 169.886 361.592 170.512 360.342 169.912C362.921 171.58 368.079 171.267 375.243 166.682ZM424.22 161.784C424.402 161.211 424.532 160.612 424.584 159.987C424.22 162.462 422.552 165.458 419.895 167.099C417.551 168.558 414.841 169.522 411.767 169.261C412.262 169.73 412.653 170.121 413.148 170.876C418.462 170.069 422.891 166.057 424.22 161.784Z" fill="#3CB14A"/>
<path d="M389.989 159.179C389.963 159.205 389.937 159.205 389.937 159.231C389.937 159.205 389.963 159.179 389.989 159.179Z" fill="#F9ED32"/>
<path d="M389.936 159.205C381.573 165.197 378.734 175.982 378.265 189.711C378.681 189.633 379.124 189.216 379.124 189.216C379.072 186.012 379.984 179.213 382.381 173.586C383.449 171.111 385.689 167.542 389.284 163.868C389.545 161.42 389.831 159.987 390.014 159.179C389.962 159.179 389.936 159.205 389.936 159.205Z" fill="#3CB14A"/>
<path d="M264.03 173.586C268.876 171.137 270.621 166.161 270.621 162.175C270.621 157.72 269.266 154.203 266.635 151.624C266.401 151.39 266.166 151.181 265.906 150.973L270.074 144.017H263.9L261.243 148.472C259.211 147.795 257.074 147.482 255.12 147.482C251.239 147.482 247.357 148.863 244.492 151.286C242.225 153.213 239.516 156.652 239.516 162.175C239.516 171.762 246.732 174.107 253.714 176.399L257.595 177.624C261.738 178.848 264.238 179.604 264.238 182.86C264.238 184.345 263.717 185.621 262.675 186.585C261.06 188.122 258.221 188.956 255.094 188.774C252.359 188.617 246.55 188.07 245.82 182.104H239.828C239.828 189.711 246.628 194.531 255.068 194.531C260.487 194.531 264.499 192.994 267.182 190.389C269.292 188.357 270.413 185.726 270.413 182.782C270.465 178.614 268.198 175.357 264.03 173.586ZM263.066 168.011C262.05 169.704 260.253 171.371 258.012 171.866C258.012 171.866 253.792 170.668 251.056 169.73C247.357 168.454 245.638 166.057 245.638 162.175C245.638 156.027 250.561 153.213 255.147 153.213C259.706 153.213 264.603 156.079 264.603 162.149C264.603 164.624 264.004 166.448 263.066 168.011ZM193.717 148.472H199.866V178.848H193.717V148.472ZM193.353 140.891C193.353 138.963 194.629 137.583 196.818 137.583C198.954 137.583 200.23 138.963 200.23 140.891C200.23 142.923 198.954 144.304 196.818 144.304C194.603 144.278 193.353 142.923 193.353 140.891ZM78.5705 139.563H72.1879L55.3848 178.848H62.0018L66.2742 168.87H84.4841L88.7565 178.848H95.3736L78.5705 139.563ZM68.4886 163.452L75.3401 147.404L82.1916 163.452H68.4886ZM163.394 178.848H189.966V173.429H169.854V139.563H163.394V178.848ZM313.944 148.993C310.662 150.452 308.864 153.083 308.734 156.131C308.395 163.243 313.84 164.911 321.135 165.927C326.944 166.734 330.279 167.594 330.122 170.512C330.07 171.397 329.341 172.518 328.273 173.039C324.365 174.992 314.439 173.95 309.776 171.059L308.5 176.243C311.313 178.066 315.534 179.135 319.545 179.317C323.896 179.525 328.299 179.213 331.477 177.702C334.577 176.217 336.192 173.455 336.323 170.512C336.635 163.53 330.122 162.019 324.026 160.951C317.097 159.752 314.57 159.049 314.752 156.053C314.83 154.646 316.133 153.735 317.175 153.422C320.952 152.25 328.898 153.031 333.561 155.584L334.786 150.348C328.716 147.3 319.519 146.518 313.944 148.993ZM220.29 147.925C213.543 147.925 209.01 148.889 206.899 149.488L206.665 149.566V178.848H212.891V153.865C215.001 153.37 216.669 153.213 219.977 153.213C225.057 153.213 228.47 154.49 228.47 160.716V178.822H234.618V161.003C234.592 152.354 229.773 147.925 220.29 147.925ZM296.829 173.507C294.823 173.95 292.999 174.107 289.743 174.107C284.506 174.107 281.25 172.856 281.25 166.656V148.498H275.102V166.369C275.102 175.018 279.921 179.421 289.404 179.421C295.761 179.421 299.72 178.64 302.768 177.858L303.029 177.806V148.498H296.803V173.507H296.829ZM144.819 147.925C140.755 147.925 137.368 148.707 135.102 150.322C131.715 152.719 130.387 156.34 130.387 161.029V178.848H136.535V160.742C136.535 158.528 136.978 156.939 137.759 155.819C139.166 153.761 141.745 153.24 145.027 153.24C146.564 153.24 148.31 153.422 150.029 153.761L151.254 148.576C149.326 148.186 147.19 147.925 144.819 147.925ZM125.046 160.69C124.317 152.328 119.341 147.951 110.509 147.951C100.949 147.951 95.8686 153.109 95.8686 162.905V164.442C95.8686 174.237 101.47 179.395 112.046 179.395C116.345 179.395 120.435 178.77 123.926 177.571L122.623 172.413L122.337 172.518C120.331 173.273 116.579 174.107 112.046 174.107C107.618 174.107 102.355 172.7 102.225 166.135H125.124V162.931C125.124 162.123 125.098 161.394 125.046 160.69ZM110.509 153.24C114.183 153.24 118.533 154.568 118.846 160.69H102.251C102.486 155.819 105.325 153.24 110.509 153.24Z" fill="#006472"/>
</svg>
