<svg width="480" height="320" viewBox="0 0 480 320" fill="none" xmlns="http://www.w3.org/2000/svg">
<path fill-rule="evenodd" clip-rule="evenodd" d="M260.074 158.691C251.62 151.905 245.029 144.149 247.41 131.727C244.306 126.893 243.581 122.058 243.936 117.224C235.913 110.218 235.67 101.858 237.604 93.1201C243.219 105.526 253.553 112.132 262.934 117.224C288.552 131.127 313.67 140.963 317.474 156.852C342.272 157.083 356.811 159.883 362.007 165.023C369.239 166.203 375.537 168.078 375.285 174.828C356.404 174.019 332.331 176.292 307.67 178.914C289.693 191.416 253.263 188.714 223.1 180.549C198.182 179.028 181.958 174.485 167.538 169.314C144.942 166.914 131.64 159.442 119.126 151.542C136.041 156.423 139.097 159.375 180.903 160.485C204.095 161.101 230.519 160.924 260.074 158.691H260.074Z" fill="#010100"/>
<path fill-rule="evenodd" clip-rule="evenodd" d="M317.984 158.895C319.287 164.854 317.603 170.81 311.55 176.768C333.272 173.878 364.321 171.622 374.467 174.013C373.277 167.797 364.594 165.89 352.508 165.943C352.401 165.543 352.293 165.142 352.186 164.743H357.819C355.714 161.036 344.331 158.789 317.984 158.896V158.895ZM262.657 160.84C237.436 162.239 213.62 163.541 192.696 163.354C166.067 163.118 143.429 160.711 128.261 155.655C142.448 163.079 160.2 166.901 179.927 168.725C206.619 171.192 233.64 171.173 258.33 167.717C250.82 169.699 242.904 172.391 211.484 171.862C201.19 171.687 185.734 171.139 171.04 169.594C187.972 174.498 209.832 178.415 237.432 177.785C247.617 177.554 258.73 176.093 264.027 172.929C268.018 170.548 271.372 165.739 262.657 160.839V160.84ZM247.987 132.201C248.005 138.823 250.519 145.058 258.112 152.728C262.79 157.453 265.769 158.649 269.593 162.377C273.021 165.72 272.3 172.894 266.658 175.716C256.223 180.937 242.243 181.168 229.738 180.944C247.696 184.008 266.537 186.402 286.643 183.466C303.754 180.968 316.612 172.176 313.755 157.457C312.592 151.464 298.262 140.059 286.959 134.285C273.545 127.433 262.774 121.685 254.192 115.861C245.754 110.134 239.4 104.344 238.093 95.8229C237.54 106.605 242.664 112.387 251.321 119.152C260.292 126.16 270.254 132.799 280.969 138.383C300.867 148.756 307.928 159.474 297.361 171.802C303.042 159.94 296.142 152.967 286.485 146.483C275.088 138.828 255.685 128.656 244.241 117.576C246.006 127.113 253.225 134.148 263.945 142.167C271.382 147.731 279.3 152.68 285.114 159.033C290.773 165.215 286.24 173.768 281.756 175.741C287.039 167.626 284.725 161.553 278.446 157.142C266.372 148.658 255.697 141.054 247.987 132.201Z" fill="#FFC211"/>
<path fill-rule="evenodd" clip-rule="evenodd" d="M385.639 222.945L390.867 184.677H400.903L396.81 215.172H408.326L407.16 222.945H385.639ZM330.56 222.945L334.617 193.151L325.958 192.974L327.129 184.502L353.214 184.677L352.077 193.151H343.826L339.784 222.945H330.56ZM228.209 222.945H218.401L223.639 184.677H234.515L234.84 184.679L235.159 184.681L235.473 184.685L235.781 184.691L236.082 184.696L236.377 184.704L236.667 184.711L236.953 184.721L237.231 184.73L237.503 184.742L237.769 184.755L238.031 184.768L238.285 184.782L238.534 184.797L238.778 184.815L239.018 184.831L239.25 184.852L239.476 184.871L239.697 184.893L239.913 184.915L240.123 184.94L240.326 184.964L240.526 184.991L240.72 185.016L240.909 185.046L241.092 185.076L241.269 185.108L241.442 185.14L241.611 185.175L241.773 185.211L241.933 185.248L242.23 185.325L242.523 185.409C250.115 187.512 251.124 194.364 249.893 200.758L249.816 201.12L249.726 201.48L249.627 201.834L249.518 202.183L249.398 202.53L249.269 202.872L249.13 203.208L248.983 203.539L248.825 203.866L248.658 204.187L248.481 204.499L248.294 204.804L248.1 205.103L247.894 205.399L247.679 205.683L247.456 205.961L247.224 206.235L246.983 206.501L246.733 206.76L246.474 207.009L246.208 207.254L245.931 207.492L245.647 207.722L245.361 207.939L245.116 208.118L244.86 208.298L244.598 208.471L244.33 208.635L244.061 208.792L243.782 208.943L243.5 209.088L243.212 209.224L242.92 209.355L242.623 209.479L242.32 209.597L242.013 209.705L241.701 209.809L241.383 209.906L241.061 209.995L240.737 210.078L240.568 210.117L240.395 210.156L240.218 210.193L240.038 210.228L239.856 210.263L239.667 210.295L239.475 210.326L239.279 210.356L239.081 210.385L238.877 210.413L238.668 210.439L238.458 210.463L238.242 210.485L238.022 210.507L237.797 210.528L237.571 210.547L237.341 210.566L237.104 210.584L236.863 210.599L236.619 210.614L236.372 210.628L236.119 210.641L235.862 210.652L235.601 210.661L235.337 210.668L235.067 210.676L234.794 210.684L234.517 210.688L234.236 210.694L233.95 210.695L233.66 210.697L233.364 210.699H229.759L228.21 222.946L228.209 222.945ZM193.363 223.905L192.824 223.9L192.289 223.885L191.76 223.862L191.238 223.828L190.723 223.785L190.215 223.733L189.713 223.669L189.218 223.596L188.731 223.514L188.249 223.42L187.775 223.319L187.307 223.207L186.846 223.083L186.392 222.952L185.945 222.81L185.504 222.659L185.072 222.496L184.646 222.324L184.228 222.143L183.816 221.95L183.412 221.749L183.014 221.536L182.624 221.316L182.242 221.084L181.867 220.842L181.5 220.59L181.139 220.328L180.786 220.056L180.441 219.776L180.104 219.486L179.774 219.185L179.451 218.875L179.14 218.557L178.837 218.231L178.544 217.898L178.263 217.56L177.994 217.213L177.734 216.86L177.485 216.501L177.247 216.134L177.021 215.762L176.805 215.382L176.601 214.997L176.407 214.604L176.224 214.206L176.052 213.799L175.893 213.387L175.743 212.969L175.604 212.546L175.478 212.116L175.36 211.68L175.257 211.237L175.162 210.79L175.08 210.335L175.007 209.877L174.946 209.412L174.896 208.939L174.857 208.463L174.829 207.98L174.811 207.492L174.804 206.998L174.808 206.498L174.823 205.993L174.848 205.484L174.865 205.23L174.885 204.977L174.907 204.726L174.933 204.474L174.962 204.224L174.992 203.973L175.027 203.722L175.064 203.471L175.104 203.222L175.147 202.974L175.193 202.726L175.242 202.477L175.294 202.228L175.348 201.981L175.406 201.734L175.465 201.485L175.53 201.238L175.597 200.993L175.664 200.748L175.738 200.501L175.812 200.258L175.89 200.014L175.971 199.772L176.055 199.526L176.142 199.283L176.231 199.04L176.323 198.798L176.418 198.558L176.516 198.316L176.617 198.077L176.72 197.838L176.828 197.594L177.048 197.119L177.278 196.649L177.519 196.187L177.77 195.729L178.03 195.278L178.299 194.831L178.578 194.393L178.866 193.96L179.165 193.532L179.473 193.112L179.79 192.697L180.115 192.289L180.451 191.889L180.796 191.492L181.15 191.104L181.515 190.717L181.73 190.505L181.941 190.298L182.154 190.099L182.368 189.898L182.585 189.703L182.805 189.511L183.027 189.322L183.249 189.133L183.476 188.95L183.704 188.77L183.935 188.593L184.166 188.419L184.4 188.246L184.637 188.078L184.876 187.913L185.116 187.751L185.36 187.591L185.606 187.436L185.852 187.284L186.101 187.133L186.354 186.987L186.606 186.843L186.861 186.703L187.119 186.566L187.381 186.432L187.642 186.301L187.904 186.174L188.17 186.05L188.438 185.929L188.708 185.811L188.979 185.695L189.251 185.583L189.525 185.474L189.801 185.369L190.078 185.267L190.357 185.167L190.638 185.072L190.916 184.98L191.199 184.892L191.481 184.806L191.767 184.726L192.052 184.647L192.338 184.573L192.626 184.502L192.916 184.434L193.205 184.37L193.495 184.308L193.788 184.253L194.082 184.198L194.376 184.147L194.671 184.103L194.967 184.059L195.265 184.019L195.563 183.983L195.863 183.949L196.163 183.92L196.466 183.895L196.767 183.873L197.07 183.853L197.377 183.838L197.682 183.826L197.988 183.816L198.295 183.811L198.606 183.809L199.147 183.815L199.681 183.83L200.209 183.853L200.731 183.886L201.246 183.929L201.754 183.981L202.256 184.043L202.751 184.115L203.238 184.196L203.719 184.286L204.194 184.387L204.661 184.498L205.122 184.619L205.576 184.748L206.022 184.889L206.462 185.039L206.894 185.197L207.321 185.367L207.74 185.545L208.151 185.734L208.556 185.934L208.953 186.143L209.343 186.361L209.725 186.59L210.102 186.829L210.468 187.077L210.829 187.334L211.182 187.601L211.527 187.879L211.865 188.166L212.195 188.461L212.517 188.768L212.831 189.082L213.133 189.404L213.426 189.732L213.707 190.067L213.977 190.407L214.237 190.754L214.486 191.11L214.725 191.472L214.952 191.838L215.169 192.212L215.375 192.594L215.569 192.981L215.752 193.374L215.924 193.772L216.086 194.179L216.234 194.59L216.374 195.007L216.502 195.432L216.619 195.862L216.724 196.296L216.818 196.735L216.902 197.183L216.974 197.635L217.036 198.093L217.088 198.558L217.127 199.027L217.156 199.502L217.173 199.981L217.181 200.465L217.177 200.958L217.163 201.453L217.138 201.951L217.121 202.217L217.102 202.479L217.08 202.738L217.055 202.999L217.028 203.257L216.998 203.515L216.966 203.771L216.93 204.027L216.894 204.28L216.853 204.536L216.81 204.789L216.764 205.041L216.716 205.292L216.665 205.543L216.612 205.793L216.556 206.04L216.498 206.287L216.436 206.534L216.373 206.781L216.306 207.024L216.239 207.269L216.166 207.513L216.092 207.754L216.015 207.993L215.936 208.234L215.854 208.474L215.769 208.711L215.68 208.949L215.592 209.185L215.499 209.421L215.403 209.656L215.304 209.89L215.103 210.348L214.891 210.806L214.669 211.257L214.439 211.701L214.2 212.139L213.949 212.568L213.691 212.993L213.423 213.41L213.147 213.822L212.861 214.226L212.565 214.624L212.261 215.016L211.949 215.401L211.626 215.779L211.294 216.151L210.956 216.514L210.738 216.74L210.518 216.961L210.296 217.179L210.072 217.393L209.847 217.604L209.619 217.812L209.389 218.018L209.157 218.218L208.924 218.416L208.688 218.611L208.448 218.801L208.209 218.99L207.967 219.175L207.723 219.355L207.475 219.533L207.227 219.707L206.977 219.877L206.726 220.045L206.469 220.21L206.214 220.371L205.955 220.528L205.695 220.683L205.432 220.833L205.168 220.979L204.902 221.123L204.633 221.263L204.363 221.4L204.092 221.533L203.818 221.663L203.541 221.789L203.264 221.912L202.982 222.032L202.701 222.148L202.417 222.261L202.134 222.369L201.849 222.472L201.563 222.573L201.274 222.67L200.985 222.763L200.695 222.852L200.404 222.939L200.111 223.021L199.817 223.1L199.522 223.175L199.225 223.247L198.926 223.313L198.627 223.377L198.328 223.437L198.027 223.495L197.725 223.547L197.42 223.596L197.115 223.643L196.81 223.685L196.501 223.723L196.194 223.758L195.884 223.789L195.573 223.817L195.261 223.839L194.947 223.86L194.634 223.877L194.319 223.89L194.002 223.899L193.684 223.903L193.363 223.905ZM197.647 193.179L197.324 193.183L197.007 193.195L196.691 193.211L196.381 193.236L196.073 193.267L195.769 193.305L195.469 193.349L195.171 193.4L194.878 193.458L194.588 193.524L194.3 193.595L194.017 193.673L193.738 193.758L193.461 193.849L193.187 193.948L192.917 194.053L192.649 194.164L192.385 194.282L192.123 194.407L191.863 194.54L191.609 194.678L191.355 194.824L191.103 194.978L190.856 195.136L190.612 195.302L190.368 195.476L190.128 195.656L189.89 195.844L189.655 196.039L189.424 196.242L189.192 196.452L188.967 196.666L188.744 196.889L188.528 197.115L188.318 197.344L188.116 197.577L187.919 197.812L187.729 198.051L187.546 198.294L187.369 198.539L187.199 198.79L187.035 199.042L186.877 199.301L186.725 199.558L186.581 199.822L186.442 200.09L186.309 200.361L186.183 200.634L186.063 200.913L185.95 201.195L185.843 201.481L185.741 201.771L185.646 202.065L185.558 202.364L185.476 202.667L185.4 202.972L185.332 203.282L185.268 203.598L185.211 203.917L185.161 204.239L185.117 204.566L185.08 204.898L185.049 205.233L185.024 205.574L185.01 205.857L185.001 206.137L184.998 206.41L184.999 206.681L185.007 206.947L185.019 207.209L185.039 207.466L185.064 207.72L185.093 207.969L185.129 208.214L185.171 208.454L185.216 208.689L185.268 208.921L185.324 209.15L185.386 209.374L185.454 209.592L185.527 209.81L185.604 210.021L185.688 210.23L185.776 210.434L185.87 210.634L185.968 210.831L186.073 211.024L186.182 211.214L186.296 211.399L186.417 211.583L186.543 211.762L186.673 211.938L186.81 212.111L186.951 212.28L187.099 212.447L187.25 212.608L187.407 212.766L187.569 212.918L187.735 213.066L187.904 213.208L188.077 213.347L188.255 213.478L188.432 213.607L188.616 213.729L188.805 213.847L188.997 213.959L189.192 214.065L189.392 214.168L189.596 214.268L189.802 214.361L190.014 214.449L190.231 214.531L190.451 214.61L190.676 214.684L190.904 214.751L191.137 214.816L191.376 214.875L191.618 214.929L191.865 214.978L192.117 215.021L192.373 215.06L192.633 215.094L192.899 215.122L193.169 215.146L193.445 215.166L193.724 215.178L194.008 215.186L194.296 215.188L194.619 215.184L194.936 215.173L195.25 215.156L195.56 215.132L195.867 215.1L196.169 215.062L196.467 215.018L196.762 214.965L197.056 214.907L197.345 214.841L197.631 214.769L197.913 214.688L198.193 214.602L198.466 214.511L198.74 214.411L199.011 214.303L199.278 214.19L199.542 214.071L199.804 213.943L200.063 213.809L200.319 213.669L200.572 213.519L200.822 213.365L201.07 213.203L201.316 213.033L201.559 212.857L201.8 212.672L202.038 212.48L202.274 212.282L202.508 212.077L202.739 211.863L202.968 211.642L203.193 211.415L203.41 211.186L203.62 210.954L203.824 210.719L204.023 210.479L204.213 210.238L204.397 209.993L204.575 209.744L204.747 209.494L204.911 209.239L205.069 208.98L205.221 208.719L205.368 208.455L205.506 208.187L205.639 207.916L205.765 207.639L205.886 207.361L205.999 207.078L206.108 206.792L206.207 206.502L206.303 206.209L206.39 205.91L206.473 205.61L206.549 205.305L206.618 204.996L206.681 204.682L206.737 204.366L206.788 204.044L206.833 203.719L206.869 203.391L206.9 203.059L206.924 202.72L206.939 202.437L206.947 202.161L206.951 201.887L206.948 201.618L206.941 201.354L206.927 201.094L206.91 200.839L206.886 200.587L206.856 200.34L206.819 200.097L206.78 199.857L206.734 199.624L206.682 199.394L206.627 199.168L206.565 198.946L206.497 198.726L206.425 198.512L206.348 198.304L206.264 198.098L206.176 197.894L206.084 197.695L205.986 197.499L205.882 197.308L205.772 197.119L205.658 196.934L205.538 196.754L205.413 196.577L205.283 196.402L205.147 196.231L205.006 196.064L204.858 195.9L204.704 195.737L204.548 195.579L204.388 195.43L204.224 195.283L204.056 195.142L203.885 195.007L203.709 194.874L203.53 194.749L203.346 194.628L203.16 194.512L202.969 194.399L202.774 194.294L202.574 194.191L202.371 194.094L202.163 194.002L201.951 193.914L201.734 193.832L201.513 193.754L201.288 193.68L201.059 193.614L200.825 193.55L200.585 193.492L200.342 193.438L200.093 193.39L199.841 193.346L199.583 193.306L199.32 193.273L199.053 193.245L198.781 193.223L198.504 193.205L198.222 193.191L197.936 193.184L197.646 193.179H197.647ZM170.457 188.865C173.355 192.487 173.262 197.756 170.873 201.58C169.173 204.013 165.52 206.524 162.699 207.319L171.06 222.945H159.996L152.536 208.322L151.301 222.945H141.622L146.858 184.677H157.015C161.939 184.686 166.993 184.79 170.457 188.865ZM114.448 222.945L119.675 184.677H140.418L139.255 193.202H128.465L127.659 199.158H138.441L137.298 207.531H126.501L125.564 214.423H136.356L135.192 222.945H114.448V222.945ZM95.3701 196.496L89.4964 208.762H97.745L95.3701 196.496ZM71.6751 222.945L92.222 184.677H102.247L111.02 222.945H101.214L99.6244 216.583H85.7708L82.882 222.945H71.6751ZM231.227 202.366H232.502C235.643 202.366 237.755 201.963 238.835 201.156C239.917 200.357 240.401 198.98 240.288 197.028C240.193 195.389 239.656 194.237 238.684 193.577C237.703 192.917 235.826 192.588 233.045 192.588H232.093L231.227 202.366ZM153.501 201.878H154.653C157.622 201.878 159.638 201.491 160.703 200.707C161.768 199.925 162.3 198.586 162.3 196.675C162.3 195.05 161.855 193.905 160.956 193.248C160.065 192.592 158.311 192.263 155.701 192.263H154.801L153.501 201.878ZM269.513 223.905L268.973 223.9L268.438 223.885L267.911 223.862L267.389 223.828L266.875 223.785L266.365 223.733L265.862 223.669L265.369 223.596L264.88 223.514L264.399 223.42L263.924 223.319L263.457 223.207L262.996 223.083L262.542 222.952L262.095 222.81L261.655 222.659L261.223 222.496L260.797 222.324L260.378 222.143L259.966 221.95L259.562 221.749L259.164 221.536L258.775 221.316L258.391 221.084L258.016 220.842L257.648 220.59L257.289 220.328L256.936 220.056L256.592 219.776L256.252 219.486L255.924 219.185L255.602 218.875L255.289 218.557L254.986 218.231L254.695 217.898L254.414 217.56L254.142 217.213L253.884 216.86L253.636 216.501L253.396 216.134L253.17 215.762L252.955 215.382L252.751 214.997L252.557 214.604L252.372 214.206L252.202 213.799L252.042 213.387L251.893 212.969L251.754 212.546L251.626 212.116L251.511 211.68L251.406 211.237L251.312 210.79L251.228 210.335L251.157 209.877L251.095 209.412L251.047 208.939L251.007 208.463L250.978 207.98L250.961 207.492L250.955 206.998L250.959 206.498L250.972 205.993L250.999 205.484L251.015 205.23L251.034 204.977L251.056 204.726L251.083 204.474L251.11 204.224L251.143 203.973L251.176 203.722L251.213 203.471L251.253 203.222L251.297 202.974L251.342 202.726L251.391 202.477L251.443 202.228L251.497 201.981L251.556 201.734L251.615 201.485L251.679 201.238L251.746 200.993L251.815 200.748L251.889 200.501L251.963 200.258L252.041 200.014L252.12 199.772L252.205 199.526L252.29 199.283L252.381 199.04L252.473 198.798L252.567 198.558L252.667 198.316L252.766 198.077L252.871 197.838L252.977 197.594L253.198 197.119L253.427 196.649L253.67 196.187L253.919 195.729L254.178 195.278L254.447 194.831L254.728 194.393L255.016 193.96L255.313 193.532L255.622 193.112L255.94 192.697L256.265 192.289L256.601 191.889L256.945 191.492L257.301 191.104L257.665 190.717L257.88 190.505L258.092 190.298L258.303 190.099L258.518 189.898L258.735 189.703L258.954 189.511L259.177 189.322L259.399 189.133L259.625 188.95L259.854 188.77L260.084 188.593L260.316 188.419L260.55 188.246L260.787 188.078L261.025 187.913L261.266 187.751L261.511 187.591L261.757 187.436L262 187.284L262.251 187.133L262.502 186.987L262.756 186.843L263.011 186.703L263.27 186.566L263.53 186.432L263.792 186.301L264.055 186.174L264.321 186.05L264.589 185.929L264.857 185.811L265.129 185.695L265.4 185.583L265.675 185.474L265.952 185.369L266.229 185.267L266.507 185.167L266.786 185.072L267.067 184.98L267.347 184.892L267.632 184.806L267.917 184.726L268.2 184.647L268.487 184.573L268.775 184.502L269.064 184.434L269.355 184.37L269.644 184.308L269.939 184.253L270.232 184.198L270.526 184.147L270.821 184.103L271.117 184.059L271.414 184.019L271.713 183.983L272.012 183.949L272.314 183.92L272.616 183.895L272.916 183.873L273.221 183.853L273.526 183.838L273.831 183.826L274.138 183.816L274.445 183.811L274.755 183.809L275.296 183.815L275.831 183.83L276.358 183.853L276.88 183.886L277.395 183.929L277.904 183.981L278.405 184.043L278.899 184.115L279.387 184.196L279.87 184.286L280.342 184.387L280.811 184.498L281.271 184.619L281.725 184.748L282.171 184.889L282.612 185.039L283.044 185.197L283.47 185.367L283.889 185.545L284.301 185.734L284.705 185.934L285.104 186.143L285.492 186.361L285.876 186.59L286.251 186.829L286.619 187.077L286.978 187.334L287.332 187.601L287.677 187.879L288.014 188.166L288.346 188.461L288.667 188.768L288.98 189.082L289.283 189.404L289.574 189.732L289.857 190.067L290.128 190.407L290.387 190.754L290.638 191.11L290.874 191.472L291.103 191.838L291.318 192.212L291.523 192.594L291.718 192.981L291.901 193.374L292.073 193.772L292.234 194.179L292.384 194.59L292.525 195.007L292.652 195.432L292.767 195.862L292.874 196.296L292.968 196.735L293.053 197.183L293.125 197.635L293.186 198.093L293.237 198.558L293.276 199.027L293.306 199.502L293.324 199.981L293.331 200.465L293.327 200.958L293.312 201.453L293.287 201.951L293.271 202.217L293.252 202.479L293.23 202.738L293.205 202.999L293.177 203.257L293.148 203.515L293.116 203.771L293.079 204.027L293.043 204.28L293.002 204.536L292.959 204.789L292.914 205.041L292.867 205.292L292.814 205.543L292.762 205.793L292.706 206.04L292.647 206.287L292.587 206.534L292.522 206.781L292.457 207.024L292.388 207.269L292.316 207.513L292.242 207.754L292.163 207.993L292.084 208.234L292.002 208.474L291.919 208.711L291.83 208.949L291.74 209.185L291.649 209.421L291.552 209.656L291.453 209.89L291.252 210.348L291.041 210.806L290.818 211.257L290.588 211.701L290.349 212.139L290.098 212.568L289.84 212.993L289.573 213.41L289.296 213.822L289.012 214.226L288.716 214.624L288.411 215.016L288.099 215.401L287.775 215.779L287.444 216.151L287.105 216.514L286.886 216.74L286.667 216.961L286.446 217.179L286.222 217.393L285.998 217.604L285.768 217.812L285.539 218.018L285.308 218.218L285.073 218.416L284.839 218.611L284.599 218.801L284.359 218.99L284.116 219.175L283.873 219.355L283.626 219.533L283.377 219.707L283.128 219.877L282.874 220.045L282.62 220.21L282.363 220.371L282.105 220.528L281.843 220.683L281.581 220.833L281.318 220.979L281.052 221.123L280.783 221.263L280.513 221.4L280.24 221.533L279.967 221.663L279.69 221.789L279.413 221.912L279.13 222.032L278.85 222.148L278.568 222.261L278.283 222.369L277.999 222.472L277.712 222.573L277.424 222.67L277.135 222.763L276.845 222.852L276.555 222.939L276.261 223.021L275.967 223.1L275.672 223.175L275.375 223.247L275.077 223.313L274.778 223.377L274.478 223.437L274.177 223.495L273.874 223.547L273.57 223.596L273.265 223.643L272.96 223.685L272.651 223.723L272.342 223.758L272.034 223.789L271.723 223.817L271.41 223.839L271.098 223.86L270.784 223.877L270.468 223.89L270.151 223.899L269.834 223.903L269.514 223.905L269.513 223.905ZM273.796 193.179L273.474 193.183L273.156 193.195L272.842 193.211L272.529 193.236L272.223 193.267L271.918 193.305L271.618 193.349L271.321 193.4L271.029 193.458L270.737 193.524L270.45 193.595L270.167 193.673L269.888 193.758L269.612 193.849L269.336 193.948L269.067 194.053L268.799 194.164L268.536 194.282L268.273 194.407L268.014 194.54L267.759 194.678L267.505 194.824L267.254 194.978L267.005 195.136L266.761 195.302L266.517 195.477L266.277 195.656L266.04 195.844L265.806 196.039L265.572 196.242L265.342 196.452L265.116 196.666L264.894 196.889L264.678 197.115L264.469 197.344L264.264 197.577L264.07 197.812L263.88 198.051L263.696 198.294L263.519 198.539L263.349 198.79L263.185 199.042L263.027 199.301L262.875 199.558L262.731 199.822L262.592 200.09L262.46 200.361L262.333 200.634L262.214 200.913L262.101 201.195L261.992 201.481L261.891 201.771L261.798 202.065L261.709 202.364L261.628 202.667L261.551 202.972L261.481 203.282L261.418 203.598L261.361 203.917L261.311 204.239L261.266 204.566L261.229 204.898L261.2 205.233L261.175 205.574L261.16 205.857L261.15 206.137L261.147 206.41L261.149 206.681L261.158 206.947L261.171 207.209L261.189 207.466L261.214 207.72L261.243 207.969L261.28 208.214L261.32 208.454L261.366 208.689L261.418 208.921L261.474 209.15L261.537 209.374L261.605 209.592L261.676 209.81L261.754 210.021L261.839 210.23L261.927 210.434L262.019 210.634L262.117 210.831L262.222 211.024L262.333 211.214L262.447 211.399L262.568 211.583L262.694 211.762L262.824 211.939L262.959 212.111L263.101 212.28L263.249 212.447L263.401 212.608L263.558 212.766L263.72 212.918L263.886 213.066L264.055 213.208L264.227 213.347L264.403 213.478L264.583 213.607L264.766 213.729L264.955 213.847L265.148 213.959L265.342 214.065L265.543 214.168L265.746 214.268L265.952 214.361L266.164 214.449L266.381 214.531L266.602 214.61L266.825 214.684L267.054 214.751L267.288 214.816L267.527 214.875L267.769 214.929L268.016 214.978L268.267 215.021L268.522 215.06L268.784 215.094L269.05 215.122L269.319 215.146L269.594 215.166L269.873 215.178L270.157 215.186L270.445 215.188L270.769 215.184L271.086 215.173L271.4 215.156L271.71 215.132L272.017 215.1L272.318 215.062L272.617 215.018L272.912 214.965L273.206 214.907L273.494 214.841L273.781 214.769L274.063 214.688L274.342 214.602L274.617 214.511L274.89 214.411L275.161 214.303L275.429 214.19L275.693 214.071L275.955 213.943L276.213 213.809L276.469 213.669L276.721 213.519L276.973 213.365L277.218 213.203L277.466 213.033L277.71 212.857L277.951 212.672L278.188 212.48L278.424 212.282L278.658 212.077L278.887 211.863L279.118 211.642L279.342 211.415L279.559 211.186L279.771 210.955L279.974 210.719L280.172 210.479L280.364 210.238L280.547 209.993L280.724 209.744L280.897 209.494L281.061 209.239L281.22 208.98L281.372 208.719L281.518 208.455L281.656 208.187L281.789 207.916L281.917 207.639L282.036 207.361L282.15 207.078L282.257 206.792L282.357 206.502L282.453 206.209L282.541 205.91L282.622 205.61L282.698 205.305L282.769 204.996L282.831 204.682L282.89 204.366L282.938 204.044L282.982 203.719L283.018 203.391L283.05 203.059L283.074 202.72L283.088 202.437L283.098 202.161L283.102 201.887L283.098 201.618L283.091 201.355L283.078 201.094L283.059 200.839L283.035 200.587L283.005 200.34L282.971 200.097L282.93 199.857L282.883 199.624L282.833 199.394L282.776 199.168L282.714 198.946L282.648 198.726L282.575 198.512L282.498 198.304L282.415 198.098L282.327 197.894L282.234 197.695L282.134 197.499L282.032 197.308L281.922 197.119L281.807 196.934L281.688 196.754L281.564 196.577L281.434 196.402L281.297 196.231L281.154 196.064L281.007 195.9L280.855 195.737L280.698 195.579L280.539 195.43L280.375 195.283L280.206 195.142L280.034 195.007L279.86 194.874L279.68 194.749L279.496 194.628L279.31 194.512L279.119 194.399L278.923 194.294L278.723 194.191L278.521 194.094L278.314 194.002L278.099 193.914L277.885 193.832L277.664 193.754L277.438 193.68L277.209 193.614L276.974 193.55L276.734 193.492L276.49 193.438L276.244 193.39L275.99 193.346L275.733 193.306L275.47 193.273L275.204 193.245L274.931 193.223L274.654 193.205L274.373 193.191L274.087 193.184L273.795 193.179H273.796ZM367.249 196.496L361.375 208.762H369.624L367.249 196.496ZM343.554 222.945L364.098 184.677H374.127L382.901 222.945H373.091L371.504 216.583H357.649L354.761 222.945H343.554ZM319.213 194.373L323.914 187.015C319.355 184.705 314.517 183.338 308.934 184.66C303.186 186.023 299.229 189.844 298.14 196.285C296.973 203.188 299.762 205.653 304.785 206.927C307.351 207.576 309.518 208.369 310.813 209.42C312.681 210.942 312.272 213.173 310.677 214.655C307.929 217.206 302.272 216.119 298.434 212.398C296.672 214.851 294.908 217.301 293.146 219.754C300.018 224.91 310.849 226.138 317.305 220.123C320.401 217.238 322.088 213.575 322.133 208.737C322.168 204.861 320.064 201.547 313.633 200.112C311.801 199.702 309.94 198.922 308.892 197.823C307.529 196.398 308.427 193.572 310.162 192.506C312.69 190.957 316.246 192.177 319.213 194.373Z" fill="#271278"/>
</svg>
