<svg width="480" height="320" viewBox="0 0 480 320" fill="none" xmlns="http://www.w3.org/2000/svg">
<path d="M168.538 166.92C168.807 167.818 168.979 168.816 169.072 169.893H178.606C178.534 168.893 178.393 167.9 178.185 166.92H168.538ZM168.211 177.489C167.826 178.472 167.324 179.331 166.702 180.062C166.603 180.179 166.498 180.281 166.395 180.391H176.888C177.319 179.454 177.672 178.484 177.944 177.489H168.211ZM56.2891 164.483H64.572C64.9345 163.417 65.3698 162.561 65.8726 161.914H56.6951C56.4174 162.763 56.2688 163.628 56.2891 164.483ZM169.137 172.33C169.116 173.242 169.028 174.152 168.874 175.051H178.423C178.55 174.149 178.625 173.241 178.648 172.33H169.137ZM131.662 182.828H122.623V185.285H131.662V182.828ZM143.054 166.92C142.835 167.899 142.692 168.892 142.624 169.893H152.15C152.246 168.815 152.42 167.818 152.69 166.92H143.054ZM120.636 178.601L110.839 178.586C110.677 179.203 110.465 179.807 110.207 180.39H119.973C120.221 179.784 120.445 179.182 120.636 178.601ZM142.601 172.33C142.631 173.24 142.703 174.148 142.817 175.051H152.341C152.186 174.152 152.098 173.242 152.079 172.33H142.601ZM97.5986 177.489H88.1982C88.3861 178.472 88.6396 179.442 88.957 180.391H98.722C98.2155 179.55 97.8395 178.584 97.5986 177.489ZM131.662 178.722C131.662 178.3 131.664 177.891 131.666 177.489H122.623V180.391H131.662V178.722ZM93.6069 187.724C96.4226 190.187 100.152 191.421 104.802 191.421C108.671 191.421 111.895 190.47 114.473 188.567C114.801 188.325 115.126 188.041 115.445 187.724H93.6069ZM122.623 187.724V189.995H131.662V187.724H122.623ZM77.8058 187.724C78.0774 188.693 78.3146 189.458 78.512 189.995H87.4538C87.1157 189.253 86.8131 188.495 86.5472 187.724H77.8058ZM165.048 161.914C165.661 162.346 166.217 162.854 166.702 163.427C166.979 163.752 167.223 164.11 167.453 164.483H177.517C177.205 163.598 176.824 162.739 176.377 161.914H165.048ZM150.087 187.724C150.537 188.016 150.997 188.298 151.484 188.552C154.394 190.065 157.451 190.82 160.658 190.82C164.564 190.82 167.965 189.787 170.867 187.724H150.087ZM143.076 154.247V152.668C142.068 152.027 140.168 152.171 138.428 152.564C136.868 152.916 135.437 153.468 134.895 153.836C134.713 153.963 134.538 154.1 134.371 154.247H143.076ZM146.342 159.476H174.819C174.438 158.98 174.032 158.503 173.602 158.047C173.147 157.567 172.665 157.112 172.16 156.685H148.939C147.963 157.506 147.091 158.444 146.342 159.476ZM80.2103 154.247C80.1795 154.231 80.1517 154.213 80.1202 154.198C78.1472 153.178 75.1454 152.668 71.1138 152.668C67.5446 152.668 65.0553 153.173 63.0426 154.247H80.2103ZM112.426 154.247C110.009 152.793 107.157 152.067 103.872 152.067C100.884 152.067 98.232 152.8 95.9063 154.247H112.426ZM131.018 154.247V153.493H122.623V154.247H131.018ZM58.3912 187.724C58.4032 187.736 58.4122 187.749 58.4242 187.761C60.4512 189.802 63.2227 190.82 66.7394 190.82C68.7334 190.82 70.6095 190.419 72.3686 189.616C73.423 189.135 74.4339 188.493 75.4118 187.724H58.3912ZM122.623 156.684V159.476H143.076V156.684H132.29C131.841 157.334 131.417 158 131.019 158.682V156.684H122.623ZM92.2928 157.367C91.7299 158.019 91.2369 158.732 90.7768 159.476H117.567C117.187 158.824 116.757 158.202 116.281 157.616C116.016 157.295 115.738 156.985 115.45 156.685H92.9412C92.7236 156.911 92.5014 157.125 92.2928 157.367ZM144.167 180.391H154.842C154.738 180.281 154.633 180.179 154.533 180.062C153.905 179.328 153.399 178.469 153.01 177.489H143.255C143.493 178.51 143.799 179.478 144.167 180.391ZM144.849 161.914C144.43 162.746 144.064 163.604 143.753 164.483H153.777C154.008 164.11 154.254 163.75 154.532 163.427C155.02 162.854 155.579 162.346 156.194 161.914H144.849ZM84.8046 159.476C84.656 158.933 84.4827 158.466 84.2861 158.082C84.0265 157.583 83.7116 157.114 83.3472 156.685H59.9401C59.1406 157.539 58.4331 158.475 57.8291 159.477H84.8046V159.476ZM85.4906 166.92H74.5675C72.9015 167.437 70.6666 167.98 67.8328 168.548C65.8568 168.952 64.175 169.401 62.7844 169.893H85.465L85.4906 166.92ZM168.305 154.247C166.007 153.206 163.443 152.668 160.593 152.668C157.806 152.668 155.236 153.201 152.878 154.247H168.305ZM161.989 182.828C161.547 182.902 161.097 182.949 160.626 182.949C160.155 182.949 159.703 182.902 159.262 182.828H145.373C145.903 183.706 146.519 184.53 147.212 185.285H173.627C174.334 184.521 174.975 183.699 175.545 182.828H161.989ZM85.3952 177.999L85.3997 177.489H76.509C76.4504 178.18 76.3679 178.722 76.2606 179.099C76.1312 179.55 75.9491 179.983 75.718 180.391H85.4275C85.4065 179.652 85.3952 178.858 85.3952 177.999ZM85.8298 185.098C85.7127 184.482 85.6204 183.72 85.5506 182.828H73.3375C72.0902 183.616 70.7911 184.014 69.4418 184.014C68.1367 184.014 67.0403 183.618 66.1473 182.828H55.7037C55.8962 183.683 56.1971 184.508 56.5991 185.286H85.8725C85.8598 185.224 85.8418 185.159 85.8298 185.098ZM118.852 182.828H108.402C107.438 183.583 106.277 183.976 104.901 183.976C103.442 183.976 102.152 183.586 101.021 182.828H89.9551C90.3181 183.581 90.7331 184.308 91.1971 185.003C91.2639 185.1 91.3352 185.191 91.4035 185.285H117.406C117.933 184.494 118.416 183.673 118.852 182.828ZM76.5885 164.483H85.4433C85.4107 163.624 85.3453 162.767 85.2474 161.913H75.8748C76.2786 162.564 76.515 163.421 76.5885 164.483ZM71.1138 173.943C73.6234 173.37 75.4561 172.878 76.614 172.465V174.39C76.614 174.62 76.6125 174.836 76.6095 175.051H85.4208L85.444 172.329H58.4782C57.6539 173.108 56.978 174.03 56.4835 175.051H67.3172C68.2155 174.687 69.4756 174.317 71.1138 173.943ZM88.6463 164.483H98.0436C98.3656 163.57 98.8098 162.759 99.3922 162.064C99.4372 162.011 99.486 161.965 99.5318 161.913H89.5018C89.1626 162.721 88.8902 163.589 88.6463 164.483ZM64.4234 179.031C64.4234 178.478 64.524 177.965 64.7154 177.489H55.6467C55.4706 178.324 55.3828 179.175 55.3848 180.028C55.3848 180.152 55.3968 180.269 55.4006 180.391H64.6028C64.4828 179.948 64.4225 179.49 64.4234 179.031ZM122.623 164.483H133.754C134.665 163.563 135.755 162.841 136.957 162.359C137.418 162.174 137.92 162.029 138.432 161.914H122.623V164.483ZM97.5138 166.92H88.1202C87.9563 167.904 87.8429 168.897 87.7802 169.893H120.483C120.404 168.897 120.282 167.905 120.119 166.92H111.253C111.313 167.43 111.358 167.957 111.37 168.519H97.435C97.4297 167.959 97.4613 167.431 97.5138 166.92ZM97.2917 175.051C97.2849 174.906 97.2729 174.765 97.2699 174.617H120.628C120.64 173.855 120.636 173.092 120.614 172.33H87.7217C87.7299 173.268 87.7817 174.172 87.8665 175.051H97.2917ZM109.28 161.94C109.896 162.637 110.369 163.488 110.714 164.483H119.596C119.369 163.61 119.088 162.751 118.756 161.913H109.253C109.262 161.923 109.272 161.932 109.28 161.94ZM122.623 166.92V169.893H131.931C132.032 168.664 132.16 167.671 132.317 166.92H122.623ZM131.782 172.33H122.623V175.051H131.698C131.716 174.071 131.745 173.163 131.782 172.33ZM191.05 162.28C192.507 160.459 194.341 159.547 196.55 159.547C198.673 159.547 200.452 160.475 201.889 162.332C203.325 164.188 204.044 167.03 204.044 170.855C204.044 174.958 203.347 177.907 201.953 179.707C200.56 181.505 198.812 182.404 196.711 182.404C194.524 182.404 192.669 181.424 191.146 179.465C189.624 177.507 188.862 174.476 188.862 170.375C188.862 166.801 189.592 164.103 191.05 162.28ZM179.92 203.13H188.959V184.741C190.653 186.69 192.267 188.064 193.8 188.866C195.333 189.668 197.042 190.07 198.93 190.07C202.897 190.07 206.275 188.38 209.063 185C211.85 181.62 213.244 176.883 213.244 170.787C213.244 164.853 211.86 160.224 209.095 156.902C206.328 153.58 202.962 151.917 198.995 151.917C196.722 151.917 194.652 152.491 192.786 153.636C190.922 154.782 189.442 156.272 188.348 158.105V152.742H179.921V203.13H179.92ZM225.477 167.866C225.456 165.231 226.088 163.146 227.375 161.611C228.662 160.076 230.291 159.308 232.264 159.308C234.108 159.308 235.673 160.035 236.96 161.49C238.247 162.945 238.922 165.07 238.987 167.866H225.477ZM236.285 181.614C235.32 182.44 234.13 182.852 232.714 182.852C230.635 182.852 228.897 182.055 227.504 180.462C226.11 178.87 225.381 176.641 225.317 173.778H247.962C248.091 166.377 246.686 160.883 243.748 157.296C240.81 153.71 236.8 151.917 231.718 151.917C227.194 151.917 223.451 153.631 220.492 157.056C217.534 160.482 216.053 165.219 216.053 171.268C216.053 176.332 217.179 180.525 219.432 183.848C222.284 187.995 226.679 190.069 232.619 190.069C236.371 190.069 239.497 189.147 241.995 187.301C244.492 185.457 246.812 181.972 247.97 178.443L238.24 178.396C237.745 180.229 237.249 180.789 236.285 181.614ZM259.251 177.971C259.251 171.762 259.503 167.683 260.007 165.735C260.253 164.782 261.769 162.73 264.146 161.78C266.631 160.788 269.991 160.931 270.77 161.469V151.917C269.894 151.361 266.331 151.331 263.938 152.743C261.116 154.408 259.437 157.701 258.66 159.027L258.608 152.743H250.211V189.245H259.251V177.971ZM295.598 156.573V168.141C295.598 173.365 295.373 176.648 294.923 177.988C294.472 179.328 293.636 180.451 292.414 181.355C291.191 182.262 289.808 182.714 288.265 182.714C286.914 182.714 285.799 182.377 284.92 181.699C284.039 181.024 283.435 180.108 283.102 178.949C282.77 177.793 282.603 174.649 282.603 169.515V152.742H273.564V175.839C273.564 179.277 273.972 181.969 274.787 183.917C275.602 185.864 276.921 187.377 278.743 188.453C280.566 189.532 282.624 190.069 284.919 190.069C287.17 190.069 289.309 189.508 291.336 188.385C293.334 187.289 295.022 185.704 296.241 183.779V189.243H304.637V165.086L295.598 156.573ZM295.633 152.742H304.637V161.222L295.633 152.742ZM414.738 188.629C414.738 184.372 411.205 180.921 406.845 180.921C402.484 180.921 398.951 184.372 398.951 188.629C398.951 192.886 402.484 196.336 406.845 196.336C411.205 196.336 414.738 192.886 414.738 188.629ZM354.117 189.105C354.117 184.701 350.366 181.13 345.738 181.13C341.11 181.13 337.359 184.701 337.359 189.105C337.359 193.51 341.11 197.081 345.738 197.081C350.366 197.08 354.117 193.51 354.117 189.105ZM424.348 188.897C424.348 198.556 416.73 206.387 407.331 206.387C401.281 206.387 395.973 203.14 392.955 198.252C392.955 198.252 390.113 201.43 385.287 204.876C380.461 208.323 376.107 210.585 376.107 210.585C376.107 210.585 372.83 208.675 366.97 204.263C361.11 199.851 360.039 197.986 360.039 197.986C357.052 203.024 351.658 206.386 345.499 206.386C336.101 206.386 328.481 198.555 328.481 188.896C328.481 181.598 332.832 175.346 339.01 172.723L338.427 172.573L327.597 149.147C327.597 149.147 341.366 148.796 349.322 149.459C357.278 150.122 372.018 152.741 372.018 152.741L365.174 180.087H387.026L380.415 152.741C380.415 152.741 392.821 150.32 402.746 149.597C412.95 148.853 424.616 148.853 424.616 148.853C424.616 148.853 415.113 170.806 414.008 172.573C413.975 172.624 413.895 172.668 413.771 172.705C419.974 175.316 424.348 181.58 424.348 188.897ZM360.088 137.223C362.09 135.314 364.28 133.777 366.607 132.658L359.997 112.431C353.906 114.898 348.435 118.789 343.902 123.731L360.088 137.223ZM370.767 131.162C372.305 130.782 373.883 130.588 375.467 130.585C377.199 130.585 378.891 130.821 380.535 131.255L386.339 110.895C382.79 109.913 379.125 109.415 375.443 109.415C371.553 109.415 367.778 109.962 364.177 110.991L370.767 131.162ZM410.132 127.523L394.021 140.751C395.532 142.696 396.884 144.883 398.061 147.256L418.389 144.395C416.634 138.155 413.802 132.443 410.132 127.523ZM384.682 132.829C386.967 133.976 389.112 135.536 391.077 137.449L407.331 124.104C402.646 118.886 396.923 114.817 390.535 112.297L384.682 132.829ZM357.116 140.5C355.681 142.313 354.768 144.288 354.217 146.839L333.275 144.487C334.363 137.946 336.294 131.19 341.068 127.122L357.116 140.5Z" fill="#261642"/>
</svg>
