<svg width="480" height="320" viewBox="0 0 480 320" fill="none" xmlns="http://www.w3.org/2000/svg">
<path fill-rule="evenodd" clip-rule="evenodd" d="M96.9649 136.187L67.483 183.871H86.4352L92.754 173.594L124.066 173.597L120.551 167.839H95.7006L98.968 162.467C96.1971 161.069 93.4012 159.689 93.7813 158.243C94.0023 157.401 95.2474 156.485 95.2474 156.485C95.2474 156.485 98.2971 155.25 100.228 154.424C102.369 153.51 105.682 152.013 105.682 152.013C105.682 152.101 103.373 146.254 101.556 143.056C99.9724 140.269 96.9652 136.187 96.9652 136.187H96.9649Z" fill="#2B906F"/>
<path d="M86.6094 184.185H66.9193L96.9422 135.628L97.2164 135.999C97.2466 136.04 100.253 140.129 101.828 142.9C103.261 145.423 105.015 149.621 105.675 151.202C105.809 151.522 105.9 151.743 105.94 151.83L106.214 152.119L105.824 152.294C105.814 152.3 105.804 152.304 105.794 152.308C105.519 152.432 102.407 153.836 100.35 154.714C98.5534 155.482 95.7569 156.618 95.4017 156.763C95.0586 157.022 94.2366 157.742 94.0839 158.323C93.7758 159.496 96.5292 160.885 98.9583 162.11L99.4125 162.34L96.2592 167.524H120.726L124.626 173.912L92.9281 173.91L86.6094 184.185ZM68.0465 183.556H86.2608L92.5795 173.279L123.507 173.281L120.376 168.155H95.1424L98.5232 162.595C95.6825 161.162 93.0483 159.801 93.4789 158.162C93.7213 157.239 94.9264 156.332 95.0625 156.231L95.1307 156.193C95.161 156.181 98.1996 154.949 100.106 154.134C101.872 153.381 104.419 152.237 105.269 151.854C105.226 151.753 105.17 151.62 105.098 151.446C104.442 149.875 102.699 145.702 101.285 143.213C100.006 140.962 97.7616 137.82 96.986 136.749L68.0465 183.556Z" fill="#12907C"/>
<path fill-rule="evenodd" clip-rule="evenodd" d="M96.7459 117.758L96.2381 117.836L96.3235 118.463C96.3235 118.463 95.055 117.915 94.6326 118.149C94.2099 118.385 94.2099 118.463 94.2099 118.463C94.2099 118.463 94.4211 119.361 94.2525 119.636C94.0842 119.91 92.7754 119.4 92.5639 119.558C92.3527 119.714 92.2672 120.105 92.2672 120.105C92.2672 120.105 93.281 120.3 93.0275 120.612C92.7754 120.927 92.3527 120.927 92.3527 120.927L92.2247 121.473L91.5069 120.966L91.2957 121.512L90.7044 121.2L90.5783 121.629C90.5783 121.629 90.4506 121.161 90.0704 121.161C89.6903 121.161 89.6071 121.317 89.6071 121.317C89.6071 121.317 89.6903 121.864 89.353 121.747C89.0138 121.629 88.5079 120.849 88.5079 120.849C88.5079 120.849 88.5505 120.693 88.8042 120.771C89.0567 120.849 89.1844 120.81 89.1844 120.81C89.1844 120.81 88.465 119.558 88.0852 119.832C87.705 120.105 87.4938 120.651 87.4938 120.651C87.4938 120.651 87.6219 121.044 87.8311 121.473C88.0423 121.903 89.522 123.273 89.522 123.273L87.8311 122.139L87.5364 122.334L87.0282 121.669L86.691 122.334L85.2971 121.59L85.0855 122.022C85.0855 122.022 84.5371 121.983 84.3255 121.473C84.1144 120.966 83.523 120.692 83.1428 120.651C82.763 120.612 82.8056 120.3 82.763 120.027C82.7204 119.754 82.4664 119.714 82.4664 119.714C82.4664 119.714 82.4664 120.81 82.8056 121.083C83.036 121.272 83.2611 121.467 83.4804 121.669L82.9313 121.825L83.4804 122.608C83.4804 122.608 82.5089 122.256 82.2977 121.983C82.0865 121.707 81.7915 121.434 81.7915 121.434L83.7342 123.312L86.1422 125.071L87.6628 126.362L89.6071 128.003L91.17 129.608L92.5639 131.132L94.3805 133.206L96.577 135.982L98.0547 138.133L99.1542 140.048L100.42 142.434L101.562 144.702L103.505 148.496L104.602 150.725C104.602 150.725 104.942 150.92 104.73 151.232C104.519 151.544 104.308 151.779 104.308 151.779L100.971 153.306L96.998 155.065L95.183 156.082L94.0842 156.004L94.3805 156.433L92.5213 156.628L92.9866 156.904C92.9866 156.904 92.184 156.667 91.8019 156.982C91.4218 157.294 91.5924 157.45 91.5924 157.45L92.9863 157.645L90.9588 157.879C90.9588 157.879 91.0845 158.428 91.3812 158.311C91.6759 158.194 91.7613 158.272 91.7613 158.272L91.8448 158.506L92.0983 158.35H92.6045L92.4784 158.936C92.4784 158.936 92.9437 158.78 93.1978 158.897C93.4499 159.014 92.8157 159.17 92.8157 159.17L93.5779 159.445L93.8298 159.796L95.4781 159.757L95.4355 159.952H96.6182C96.6182 159.952 96.5347 160.304 96.3661 160.735C96.1955 161.165 96.3661 161.438 96.3661 161.438C96.3661 161.438 97.8006 161.243 97.6323 160.931C97.4633 160.618 96.872 161.087 96.872 160.853C96.872 160.618 97.0409 160.265 97.0409 160.265L99.5769 159.758L97.9286 160.618C97.9286 160.618 97.886 160.931 98.3088 161.087C98.7315 161.243 99.1948 161.009 99.1948 161.009C99.1948 161.009 98.52 160.931 98.7315 160.736C98.8711 160.611 99.0269 160.505 99.1948 160.421C99.1948 160.421 99.7452 160.343 99.7862 160.736C99.8287 161.126 99.9142 161.36 100.337 161.399C100.759 161.438 101.097 160.774 101.097 160.774C101.097 160.774 101.308 160.07 101.054 160.07C100.8 160.07 101.9 159.679 101.772 160.54C101.645 161.399 101.645 161.126 101.645 161.126L102.448 161.009L102.406 161.753L103.208 161.243C103.208 161.243 103.716 160.853 104.139 161.321C104.56 161.792 104.308 161.753 104.308 161.753C104.308 161.753 104.054 162.416 103.757 162.455C103.462 162.494 103.125 162.104 103.125 162.104C103.125 162.104 102.237 161.987 102.068 162.26C101.9 162.533 102.237 162.885 102.237 162.885C102.237 162.885 102.237 162.417 102.574 162.573C102.914 162.729 102.914 163.199 102.914 163.199C102.914 163.199 103.208 163.629 103.631 163.629C104.053 163.629 105.11 163.16 105.11 163.16C105.11 163.16 104.982 164.058 104.096 164.097C103.208 164.136 103.336 164.019 103.419 164.412C103.505 164.802 104.391 164.841 104.391 164.841C104.391 164.841 104.096 164.45 104.56 164.45C105.025 164.45 106.63 164.334 106.799 163.785C106.968 163.238 106.968 163.16 106.63 163.082C106.293 163.004 105.87 162.963 105.87 162.963L106.716 162.611L107.729 162.299L109.63 162.104L112.586 160.265L115.671 162.963L118.543 165.78L120.528 168.048C120.528 168.048 120.656 167.383 120.656 167.266C120.656 167.149 121.036 167.188 121.373 167.539C121.711 167.89 122.176 168.439 122.176 168.439C122.176 168.439 122.513 168.283 122.387 167.97C122.261 167.656 122.599 167.656 122.599 167.656L122.641 167.109L121.628 166.366C121.628 166.366 121.373 165.936 121.839 165.975C122.302 166.014 123.021 166.131 123.021 166.131L125.344 168.4L127.161 170.941L128.386 172.74L129.147 173.327L129.569 174.03L131.301 176.691L131.469 177.471L130.837 176.611L130.118 175.242C130.118 175.242 129.738 174.266 129.484 174.461C129.231 174.657 129.823 175.83 129.823 175.83C129.823 175.83 130.286 176.455 130.372 176.847C130.457 177.237 130.372 177.628 130.372 177.628L130.752 177.903C130.752 177.903 131.174 178.996 131.005 179.154C130.837 179.31 130.329 178.645 130.329 178.645C130.329 178.645 129.992 179.035 130.16 179.389C130.329 179.74 130.794 180.131 130.709 180.406C130.626 180.679 130.457 180.914 130.668 181.108C130.878 181.303 131.259 181.538 131.132 181.735C131.005 181.931 131.048 182.399 131.301 182.36C131.554 182.321 131.469 181.852 131.808 182.086C132.146 182.321 132.314 182.438 132.272 182.712C132.231 182.986 132.737 183.26 132.4 183.416C132.06 183.572 131.723 183.767 131.891 184.394C132.06 185.019 131.766 185.214 132.188 185.292C132.611 185.372 132.231 184.784 132.569 184.98C132.906 185.175 132.526 185.607 132.991 185.607C133.456 185.607 133.54 185.724 133.625 185.333C133.708 184.941 133.497 184.55 133.836 184.628C134.174 184.707 134.089 185.333 134.342 185.097C134.596 184.863 134.639 184.238 134.468 184.041C134.299 183.846 134.048 183.572 133.92 183.142C133.794 182.712 133.456 182.125 133.877 182.164C134.3 182.203 134.596 182.516 134.68 182.87C134.765 183.221 134.68 183.611 135.019 183.807C135.356 184.002 135.399 183.846 135.483 184.472C135.568 185.097 135.525 185.135 135.948 185.489C136.37 185.841 136.37 186.075 136.876 186.348C137.384 186.623 137.299 186.504 137.384 186.309C137.468 186.114 137.173 184.902 137.427 185.019C137.679 185.135 137.848 185.372 137.933 185.723C138.018 186.075 138.018 186.662 138.399 186.779C138.778 186.897 138.947 187.17 139.201 186.974C139.453 186.779 139.327 186.779 139.707 186.465C140.087 186.153 140.427 185.567 140.427 185.567C140.427 185.567 140.341 185.802 140.933 185.841C141.524 185.88 141.27 185.411 141.566 185.175C141.862 184.941 141.821 184.941 142.115 184.746C142.412 184.551 142.538 184.433 142.369 184.041C142.2 183.651 141.355 183.494 141.524 183.299C141.693 183.104 141.904 183.065 141.904 182.633C141.904 182.203 141.821 182.243 141.609 181.735C141.398 181.226 141.398 181.187 141.567 180.64C141.736 180.091 141.398 179.467 141.227 179.35C141.058 179.233 140.467 179.467 140.467 179.194C140.467 178.918 140.721 178.411 140.384 178.294C140.044 178.176 139.159 178.215 139.159 178.215C139.159 178.215 138.905 178.996 138.651 178.957C138.399 178.918 138.059 178.254 138.059 178.098C138.059 177.942 137.257 176.885 137.51 176.73C137.765 176.572 138.145 176.925 138.271 177.199C138.399 177.472 138.651 177.55 138.651 177.276C138.651 177.003 138.356 176.415 138.313 176.142C138.271 175.869 137.679 175.086 137.679 175.086L137.216 173.795C137.216 173.795 136.582 173.054 136.836 172.817C137.088 172.584 137.342 172.076 137.342 172.076C137.342 172.076 137.511 171.802 137.679 171.959C137.848 172.115 138.059 172.271 137.976 171.959C137.89 171.644 137.807 171.059 137.299 171.137C136.793 171.215 136.413 171.332 136.328 171.137C136.244 170.942 136.202 170.473 136.539 170.707C136.876 170.941 137.342 171.176 137.216 170.746C137.088 170.315 136.413 170.002 136.074 169.612C135.737 169.222 135.188 168.478 135.568 168.556C135.948 168.634 136.244 169.261 136.413 168.907C136.582 168.556 136.244 167.812 135.991 167.617C135.737 167.422 135.271 167.109 135.271 167.109L133.962 164.802L131.977 161.948L130.457 159.914L128.301 157.45L125.598 155.104L123.739 152.757L122.345 151.428C122.345 151.428 121.459 150.764 121.67 150.529C121.881 150.293 121.627 150.215 121.627 150.215L121.882 149.981L122.684 149.237L123.316 148.417C123.316 148.417 123.613 148.066 124.161 147.947C124.71 147.83 124.458 147.596 124.964 147.556C125.472 147.517 125.224 147.328 125.852 147.361C126.612 147.4 126.316 147.478 126.696 147.595C127.077 147.712 127.33 147.83 127.626 148.105C127.921 148.378 128.344 148.691 128.555 148.886C128.766 149.081 129.02 149.12 129.02 149.12C129.02 149.12 129.051 148.898 128.968 148.546C128.883 148.193 128.681 148.066 128.512 147.83C128.343 147.596 128.132 147.478 128.049 147.322C127.964 147.166 127.962 147.051 127.962 147.051C127.962 147.051 127.795 146.734 128.218 146.539C128.64 146.344 128.644 146.188 128.644 146.188C128.644 146.188 128.512 145.837 128.09 145.366C127.669 144.898 127.035 144.232 126.781 144.154C126.527 144.076 125.767 143.646 125.429 143.568C125.09 143.49 124.204 143.256 123.908 143.217C123.613 143.178 122.641 143.099 122.387 143.139C122.133 143.178 122.43 142.98 122.05 142.785C121.67 142.59 121.628 142.434 121.078 142.434C120.528 142.434 120.317 142.473 119.557 142.668C118.797 142.864 118.543 142.785 118.291 143.019C118.037 143.256 117.571 143.646 117.36 143.412C117.149 143.178 116.937 142.98 117.022 142.473C117.108 141.965 116.685 141.495 116.431 140.87C116.177 140.244 116.094 139.658 115.671 138.992C115.248 138.329 114.995 138.172 114.868 137.819C114.741 137.467 114.952 136.841 114.741 136.412C114.529 135.982 114.191 135.434 113.938 134.965C113.686 134.497 113.347 133.752 113.052 133.362C112.755 132.97 112.038 131.835 111.446 130.976C110.855 130.115 109.926 128.513 109.418 128.042C108.912 127.574 108.025 126.284 107.475 125.698C106.927 125.11 106.588 124.524 105.996 123.976C105.405 123.429 103.631 121.864 103.631 121.864L101.266 120.066L99.2374 118.619C99.2374 118.619 97.9712 118.346 97.6323 118.268C97.2947 118.19 96.7459 117.758 96.7459 117.758Z" fill="#643F9F"/>
<path fill-rule="evenodd" clip-rule="evenodd" d="M123.167 145.167C123.167 145.167 121.841 144.351 120.637 144.234C120.363 144.206 120.069 144.245 120.069 144.245C119.553 144.257 119.33 144.64 119.359 145.118C119.38 145.442 119.402 145.61 119.741 145.659C120.198 145.725 120.466 145.538 121.026 145.325C121.85 145.011 123.167 145.167 123.167 145.167Z" fill="white"/>
<path fill-rule="evenodd" clip-rule="evenodd" d="M98.5976 162.781C98.5976 162.781 98.4715 162.196 98.0488 162.352C97.6264 162.508 97.2888 162.547 97.2888 162.547L97.1182 162.235C97.1182 162.235 96.8661 162.157 96.8661 162.43C96.8661 162.703 96.9922 163.094 96.9922 163.094C96.9922 163.094 97.3297 163.603 97.5835 163.408C97.8376 163.211 98.1749 163.25 98.1749 163.25L98.4715 163.094L98.5976 163.289V162.781Z" fill="#643F9F"/>
<path fill-rule="evenodd" clip-rule="evenodd" d="M123.987 170.055C123.987 170.055 123.859 170.055 123.776 169.743C123.721 169.548 123.635 169.363 123.521 169.195C123.521 169.195 122.845 169.782 123.099 170.172C123.353 170.563 123.816 170.877 123.816 170.877L124.027 171.346C124.027 171.346 124.113 171.931 124.493 171.931C124.873 171.931 125.084 171.658 125.084 171.658C125.084 171.658 125.212 171.658 125.422 171.228C125.633 170.797 125.633 170.407 125.633 170.407C125.633 170.407 124.83 171.111 124.705 170.916C124.578 170.719 124.45 170.368 124.45 170.368L124.198 170.563L123.987 170.055Z" fill="#643F9F"/>
<path fill-rule="evenodd" clip-rule="evenodd" d="M125.338 174.356C125.338 174.356 125.212 174.122 125.17 173.653C125.127 173.183 124.873 172.948 124.873 172.948L124.367 172.831C124.367 172.831 123.816 172.987 124.198 173.302C124.578 173.614 124.747 173.536 124.747 173.536L125.338 174.356Z" fill="#643F9F"/>
<path fill-rule="evenodd" clip-rule="evenodd" d="M124.958 172.05C124.958 172.05 125.001 173.027 125.507 173.144C126.013 173.261 126.056 173.144 126.056 173.144C126.056 173.144 126.478 173.302 126.436 173.536C126.395 173.77 126.689 173.302 126.689 173.302C126.689 173.302 126.395 172.675 126.141 172.636C125.887 172.597 125.844 172.168 125.844 172.168C125.844 172.168 125.675 171.892 125.464 171.931C125.253 171.97 124.958 172.05 124.958 172.05Z" fill="#643F9F"/>
<path fill-rule="evenodd" clip-rule="evenodd" d="M127.324 174.083C127.324 174.083 127.281 174.278 126.986 174.395C126.69 174.514 126.267 174.709 126.267 174.709C126.267 174.709 126.732 174.553 126.986 174.904C127.239 175.256 127.239 175.49 127.239 175.49C127.239 175.49 127.239 175.724 127.577 175.256C127.915 174.787 127.618 174.592 127.618 174.592L127.704 174.161L127.324 174.083Z" fill="#643F9F"/>
<path fill-rule="evenodd" clip-rule="evenodd" d="M128.506 175.373C128.506 175.373 128.844 175.724 128.381 175.882C127.915 176.038 127.618 175.921 127.618 175.921C127.618 175.921 127.535 176.117 127.746 176.624C127.958 177.134 128.169 176.819 128.169 176.819C128.169 176.819 127.83 177.836 128.127 178.071C128.421 178.307 128.929 178.307 129.14 177.954C129.352 177.602 129.224 177.251 129.224 177.251C129.224 177.251 128.929 177.446 128.761 177.251C128.592 177.056 128.506 176.468 128.506 176.468C128.506 176.468 128.549 176.039 128.887 176.117C129.224 176.195 128.506 175.373 128.506 175.373Z" fill="#643F9F"/>
<path fill-rule="evenodd" clip-rule="evenodd" d="M129.183 178.266C129.183 178.266 129.098 178.815 128.803 178.815C128.506 178.815 128.421 178.971 128.421 178.971C128.421 178.971 128.675 179.166 128.633 179.44C128.592 179.715 128.718 179.949 128.718 179.949C128.718 179.949 129.14 180.105 129.266 180.573C129.393 181.044 129.604 181.278 129.604 181.278C129.604 181.278 129.435 181.512 129.393 181.903C129.352 182.296 129.563 182.296 129.563 182.296C129.563 182.296 129.689 181.669 129.9 181.942C130.112 182.217 130.069 182.608 130.069 182.608C130.069 182.608 129.858 182.608 129.9 182.959C129.943 183.312 129.9 184.367 130.449 184.525C130.998 184.681 131.421 183.469 131.421 183.469C131.421 183.469 131.295 183.742 130.957 183.508C130.618 183.274 130.535 182.803 130.535 182.803C130.535 182.803 130.66 181.942 130.492 181.708C130.323 181.473 129.943 181.435 129.986 181.239C130.027 181.044 130.027 180.73 130.027 180.73C130.027 180.73 129.478 180.574 129.689 180.417C129.9 180.261 129.986 179.871 129.986 179.871C129.986 179.871 129.858 179.871 129.732 179.401C129.604 178.932 129.689 178.188 129.689 178.188L129.183 178.266Z" fill="#643F9F"/>
<path d="M106.325 211.983C134.458 211.983 157.265 188.71 157.265 160C157.265 131.291 134.458 108.017 106.325 108.017C78.1913 108.017 55.3846 131.291 55.3846 160C55.3846 188.71 78.1913 211.983 106.325 211.983Z" fill="url(#paint0_radial_730_18687)"/>
<path d="M145.19 151.106C145.19 174.405 129.587 163.38 106.502 163.38C83.4164 163.38 67.7179 171.78 67.7179 148.481C67.7179 125.182 83.416 112.056 106.502 112.056C129.587 112.056 145.19 127.807 145.19 151.106H145.19Z" fill="url(#paint1_linear_730_18687)"/>
<path fill-rule="evenodd" clip-rule="evenodd" d="M243.861 179.87C241.745 181.804 237.593 185.002 232.265 185.002C222.785 185.002 218.005 177.861 218.711 169.528H229.759C235.008 169.528 240.335 169.602 245.663 169.751C246.448 157.328 238.454 151.525 229.759 151.525C218.085 151.525 211.816 159.486 211.816 169.825C211.816 181.356 219.494 188.126 230.307 188.126C235.087 188.126 239.943 186.342 243.782 183.736L243.861 179.87ZM218.711 166.776C219.18 160.526 222.393 153.831 229.759 153.831C237.516 153.831 239.394 160.304 239.553 166.776H218.711Z" fill="url(#paint2_linear_730_18687)" stroke="url(#paint3_linear_730_18687)" stroke-width="0.812298" stroke-miterlimit="10"/>
<path fill-rule="evenodd" clip-rule="evenodd" d="M254.24 187.531C255.257 187.457 256.277 187.308 257.373 187.308C258.393 187.308 259.333 187.457 260.508 187.531V168.265C260.508 164.247 260.664 161.792 263.406 158.817C264.582 157.551 266.697 156.957 268.421 156.957C269.753 156.957 270.928 157.849 272.103 158.146L273.2 151.899C272.494 151.599 271.869 151.525 270.771 151.525C266.853 151.525 263.485 154.651 260.898 158.517L260.508 159.412V151.973C259.333 152.047 258.393 152.196 257.373 152.196C256.277 152.196 255.257 152.047 254.24 151.973V187.531Z" fill="url(#paint4_linear_730_18687)" stroke="url(#paint5_linear_730_18687)" stroke-width="0.812298" stroke-miterlimit="10"/>
<path fill-rule="evenodd" clip-rule="evenodd" d="M276.672 169.454C275.968 180.762 284.587 188.126 295.162 188.126C308.092 188.126 314.75 179.124 314.75 169.677C314.75 158.592 307.307 151.525 296.572 151.525C285.29 151.525 276.672 158.74 276.672 169.454ZM296.496 153.831C305.191 153.831 307.855 162.609 307.855 169.305C307.855 175.108 304.956 185.82 295.79 185.82C286.858 185.82 283.567 177.935 283.567 170.571C283.567 162.684 286.545 153.831 296.496 153.831Z" fill="url(#paint6_linear_730_18687)" stroke="url(#paint7_linear_730_18687)" stroke-width="0.812298" stroke-miterlimit="10"/>
<path fill-rule="evenodd" clip-rule="evenodd" d="M393.115 151.973C391.938 152.047 390.999 152.196 389.98 152.196C388.884 152.196 387.864 152.047 386.847 151.973V172.505C386.847 177.786 385.2 184.482 377.209 184.482C370.158 184.482 367.728 179.87 367.728 172.057V151.973C366.554 152.047 365.613 152.196 364.593 152.196C363.497 152.196 362.478 152.047 361.46 151.973V173.843C361.46 183.887 365.769 188.126 374.387 188.126C379.873 188.126 384.338 185.671 386.847 181.133V187.531C387.864 187.457 388.884 187.308 389.98 187.308C390.999 187.308 391.938 187.457 393.115 187.531L393.115 151.973Z" fill="url(#paint8_linear_730_18687)" stroke="url(#paint9_linear_730_18687)" stroke-width="0.812298" stroke-miterlimit="10"/>
<path fill-rule="evenodd" clip-rule="evenodd" d="M405.47 187.531C406.49 187.457 407.507 187.308 408.605 187.308C409.623 187.308 410.563 187.457 411.738 187.531V168.265C411.738 164.247 411.896 161.792 414.637 158.817C415.812 157.551 417.928 156.957 419.653 156.957C420.983 156.957 422.159 157.849 423.334 158.146L424.433 151.899C423.726 151.599 423.1 151.525 422.003 151.525C418.085 151.525 414.715 154.651 412.131 158.517L411.738 159.412V151.973C410.563 152.047 409.623 152.196 408.605 152.196C407.507 152.196 406.49 152.047 405.47 151.973L405.47 187.531Z" fill="url(#paint10_linear_730_18687)" stroke="url(#paint11_linear_730_18687)" stroke-width="0.812298" stroke-miterlimit="10"/>
<path fill-rule="evenodd" clip-rule="evenodd" d="M195.734 135.488H193.871L160.677 187.529C161.58 187.455 162.493 187.306 163.545 187.306C164.518 187.306 165.387 187.455 166.508 187.529C169.841 180.531 173.754 173.98 177.586 167.429H198.158C200.367 174.203 202.192 181.349 203.6 187.529C204.989 187.455 206.389 187.306 207.926 187.306C209.304 187.306 210.576 187.455 212.104 187.529L195.734 135.488ZM197.42 164.3H179.602L191.333 145.242L197.42 164.3Z" fill="url(#paint12_linear_730_18687)" stroke="url(#paint13_linear_730_18687)" stroke-width="0.812298" stroke-miterlimit="10"/>
<path fill-rule="evenodd" clip-rule="evenodd" d="M322.173 177.489C321.859 179.721 321.467 181.953 320.682 184.11C323.347 186.862 329.614 188.423 333.454 188.423C344.11 188.423 352.805 182.102 352.805 171.462C352.805 155.617 328.125 161.121 328.125 147.435C328.125 142.151 332.59 138.731 337.997 138.731C342.621 138.731 346.068 141.185 347.714 145.203H348.497C349.124 143.12 349.672 141.037 350.612 139.102C347.714 136.647 343.169 135.53 339.409 135.53C330.006 135.53 322.014 140.217 322.014 149.815C322.014 166.627 346.539 160.526 346.539 174.363C346.539 180.241 341.994 185.225 335.647 185.225C329.537 185.225 326.011 182.25 322.955 177.489L322.173 177.489Z" fill="url(#paint14_linear_730_18687)" stroke="url(#paint15_linear_730_18687)" stroke-width="0.812298" stroke-miterlimit="10"/>
<defs>
<radialGradient id="paint0_radial_730_18687" cx="0" cy="0" r="1" gradientUnits="userSpaceOnUse" gradientTransform="translate(106.325 160) scale(51.2857 51.6379)">
<stop stop-color="white" stop-opacity="0"/>
<stop offset="0.343" stop-color="#F0EFF6" stop-opacity="0.24"/>
<stop offset="1" stop-color="#D8D5E6" stop-opacity="0.7"/>
</radialGradient>
<linearGradient id="paint1_linear_730_18687" x1="106.454" y1="112.056" x2="106.454" y2="165.986" gradientUnits="userSpaceOnUse">
<stop stop-color="white"/>
<stop offset="0.343" stop-color="#F0EFF6" stop-opacity="0.657"/>
<stop offset="1" stop-color="#D8D5E6" stop-opacity="0"/>
</linearGradient>
<linearGradient id="paint2_linear_730_18687" x1="228.766" y1="151.525" x2="228.766" y2="188.126" gradientUnits="userSpaceOnUse">
<stop stop-color="#68CBB2"/>
<stop offset="0.503" stop-color="#2B8F6F"/>
<stop offset="1" stop-color="#39B28D"/>
</linearGradient>
<linearGradient id="paint3_linear_730_18687" x1="211.654" y1="169.825" x2="245.879" y2="169.825" gradientUnits="userSpaceOnUse">
<stop stop-color="#68CBB2"/>
<stop offset="0.503" stop-color="#2B8F6F"/>
<stop offset="1" stop-color="#39B28D"/>
</linearGradient>
<linearGradient id="paint4_linear_730_18687" x1="263.72" y1="151.525" x2="263.72" y2="187.531" gradientUnits="userSpaceOnUse">
<stop stop-color="#68CBB2"/>
<stop offset="0.503" stop-color="#2B8F6F"/>
<stop offset="1" stop-color="#39B28D"/>
</linearGradient>
<linearGradient id="paint5_linear_730_18687" x1="254.077" y1="169.534" x2="273.383" y2="169.534" gradientUnits="userSpaceOnUse">
<stop stop-color="#68CBB2"/>
<stop offset="0.503" stop-color="#2B8F6F"/>
<stop offset="1" stop-color="#39B28D"/>
</linearGradient>
<linearGradient id="paint6_linear_730_18687" x1="295.691" y1="151.525" x2="295.691" y2="188.126" gradientUnits="userSpaceOnUse">
<stop stop-color="#68CBB2"/>
<stop offset="0.503" stop-color="#2B8F6F"/>
<stop offset="1" stop-color="#39B28D"/>
</linearGradient>
<linearGradient id="paint7_linear_730_18687" x1="276.469" y1="169.825" x2="314.912" y2="169.825" gradientUnits="userSpaceOnUse">
<stop stop-color="#68CBB2"/>
<stop offset="0.503" stop-color="#2B8F6F"/>
<stop offset="1" stop-color="#39B28D"/>
</linearGradient>
<linearGradient id="paint8_linear_730_18687" x1="377.288" y1="151.973" x2="377.288" y2="188.126" gradientUnits="userSpaceOnUse">
<stop stop-color="#68CBB2"/>
<stop offset="0.503" stop-color="#2B8F6F"/>
<stop offset="1" stop-color="#39B28D"/>
</linearGradient>
<linearGradient id="paint9_linear_730_18687" x1="361.298" y1="170.043" x2="393.277" y2="170.043" gradientUnits="userSpaceOnUse">
<stop stop-color="#68CBB2"/>
<stop offset="0.503" stop-color="#2B8F6F"/>
<stop offset="1" stop-color="#39B28D"/>
</linearGradient>
<linearGradient id="paint10_linear_730_18687" x1="414.951" y1="151.525" x2="414.951" y2="187.531" gradientUnits="userSpaceOnUse">
<stop stop-color="#68CBB2"/>
<stop offset="0.503" stop-color="#2B8F6F"/>
<stop offset="1" stop-color="#39B28D"/>
</linearGradient>
<linearGradient id="paint11_linear_730_18687" x1="405.308" y1="169.534" x2="424.615" y2="169.534" gradientUnits="userSpaceOnUse">
<stop stop-color="#68CBB2"/>
<stop offset="0.503" stop-color="#2B8F6F"/>
<stop offset="1" stop-color="#39B28D"/>
</linearGradient>
<linearGradient id="paint12_linear_730_18687" x1="186.39" y1="135.488" x2="186.39" y2="187.529" gradientUnits="userSpaceOnUse">
<stop stop-color="#68CBB2"/>
<stop offset="0.503" stop-color="#2B8F6F"/>
<stop offset="1" stop-color="#39B28D"/>
</linearGradient>
<linearGradient id="paint13_linear_730_18687" x1="160.364" y1="161.522" x2="212.329" y2="161.522" gradientUnits="userSpaceOnUse">
<stop stop-color="#68CBB2"/>
<stop offset="0.503" stop-color="#2B8F6F"/>
<stop offset="1" stop-color="#39B28D"/>
</linearGradient>
<linearGradient id="paint14_linear_730_18687" x1="336.743" y1="135.53" x2="336.743" y2="188.423" gradientUnits="userSpaceOnUse">
<stop stop-color="#68CBB2"/>
<stop offset="0.503" stop-color="#2B8F6F"/>
<stop offset="1" stop-color="#39B28D"/>
</linearGradient>
<linearGradient id="paint15_linear_730_18687" x1="320.494" y1="161.977" x2="352.967" y2="161.977" gradientUnits="userSpaceOnUse">
<stop stop-color="#68CBB2"/>
<stop offset="0.503" stop-color="#2B8F6F"/>
<stop offset="1" stop-color="#39B28D"/>
</linearGradient>
</defs>
</svg>
