<svg width="480" height="320" viewBox="0 0 480 320" fill="none" xmlns="http://www.w3.org/2000/svg">
<path d="M243.315 163.279L243.239 137.805H247.66C252.3 137.805 255.627 138.855 257.683 140.956C259.655 143.101 260.659 146.997 260.659 152.643C260.749 156.889 260.31 159.997 259.39 161.966L258.691 163.236L258.646 163.279H277.414C277.417 163.266 277.421 163.251 277.425 163.236C278.258 160.391 278.65 156.758 278.65 152.337C278.608 148.528 278.126 145.071 277.206 141.963C276.244 138.592 274.711 135.747 272.566 133.34C270.509 130.889 267.838 128.963 264.555 127.606C261.273 126.336 257.071 125.68 251.862 125.68H225.292L225.477 163.279H243.315H243.315ZM332.85 163.279L332.14 162.405H332.096L302.112 125.636H282.634L282.818 163.28L332.85 163.279ZM312.574 158.815H299.749L298.305 139.556L312.574 158.815ZM175.13 179.258L181.52 170.414H201.918L201.13 179.258H219.821L219.842 166.169H167.465L156.833 179.258L175.13 179.258ZM219.847 163.279L219.908 125.592H200.43L169.812 163.28L219.847 163.279ZM204.282 139.511L202.882 158.815H190.143L204.282 139.511ZM282.896 179.301H301.588L300.799 170.459H321.153L327.589 179.301H345.84L335.193 166.169H282.832L282.896 179.301ZM255.295 166.169C253.717 166.797 251.194 167.133 247.703 167.133H243.327L243.323 166.169H225.49L225.555 179.345H252.124C255.232 179.345 258.777 178.863 262.761 177.9C265.607 177.156 268.277 175.755 270.772 173.611C273.056 171.622 274.927 169.138 276.354 166.169H255.295Z" fill="#1C4989"/>
<path fill-rule="evenodd" clip-rule="evenodd" d="M332.753 163.279H351.618L354.026 166.169H335.161L333.936 164.637L332.753 163.279ZM400.689 158.159L400.862 158.29L400.994 158.334L401.301 158.509L401.52 158.641L401.695 158.772L401.825 158.903L402.045 158.99L402.175 159.122L402.395 159.253L402.614 159.385L402.744 159.559L403.139 159.866L404.714 161.224L413.207 164.549L413.514 164.724L414.169 165.031L414.871 165.512L415.046 165.643L415.221 165.819L415.351 165.95L415.483 166.082L415.526 166.212L415.658 166.344V166.432L415.702 166.562V166.694L415.613 166.869L415.483 167.001L415.396 167.045L414.914 167.35L414.782 167.395L414.609 167.482L414.432 167.57L414.213 167.657L412.287 168.051H411.98L411.368 168.139H411.062L410.755 168.226H410.056L409.661 168.271L394.866 168.226L369.26 167.045L364.226 166.256L363.92 166.169L363.35 166.082L363.043 165.95L362.781 165.907L362.519 165.819L356.477 165.95L355.559 163.411L354.201 162.712L354.99 162.185L353.413 155.97L347.067 155.357L353.063 155.051L350.481 147.084L353.895 146.953L363.001 156.364L363.35 156.626L363.743 156.845L364.925 157.196L368.166 157.677L399.549 157.765L399.681 157.808L399.768 157.852H399.943L400.382 158.028L400.556 158.115L400.689 158.159ZM136.96 130.232C131.488 126.511 126.105 124.892 120.721 125.374C114.811 126.905 109.471 127.78 104.787 128.087C96.8649 128.656 89.7298 127.737 83.3821 125.374C87.1038 129.488 92.3556 132.508 99.184 134.39C106.144 136.36 113.017 136.666 119.8 135.31C127.504 133.865 134.553 135.484 140.944 140.255L145.89 144.721C146.808 145.64 147.203 145.815 147.071 145.202C146.152 139.293 142.781 134.302 136.96 130.232V130.232Z" fill="#1C4989"/>
<path fill-rule="evenodd" clip-rule="evenodd" d="M157.008 168.621C154.819 160.303 149.697 153.431 141.688 147.96C133.984 142.751 126.367 140.65 118.838 141.569L108.815 143.495L95.6386 145.334C84.0392 146.253 73.5775 145.027 64.2983 141.569C70.164 147.434 77.9114 151.593 87.5842 154.088C97.215 156.583 107.02 156.889 116.999 155.095C127.549 152.949 137.661 155.182 147.29 161.88C149.085 163.106 151.624 165.163 154.906 168.007C156.482 169.452 157.183 169.627 157.008 168.621Z" fill="#F9B700"/>
<path fill-rule="evenodd" clip-rule="evenodd" d="M140.198 164.068C134.771 160.435 129.475 159.078 124.266 159.997C118.05 161.224 112.71 162.011 108.289 162.405C99.9728 163.061 92.5742 162.273 86.0962 159.997C90.2986 163.718 95.8139 166.476 102.686 168.226C109.821 170.064 116.737 170.328 123.347 169.015C130.657 167.57 137.617 169.188 144.182 173.96C145.583 174.967 147.29 176.455 149.304 178.381C150.355 179.388 150.792 179.563 150.617 178.908C149.347 172.822 145.845 167.877 140.198 164.068V164.068Z" fill="#1C4989"/>
<path d="M166.2 188.58C166.2 188.887 166.113 189.237 165.981 189.631C165.806 190.025 165.543 190.375 165.237 190.725C164.887 191.119 164.448 191.381 163.924 191.6C163.399 191.82 162.787 191.95 162.085 191.95C161.56 191.95 161.078 191.907 160.641 191.776C160.203 191.687 159.809 191.556 159.459 191.338C159.108 191.119 158.759 190.812 158.452 190.462C158.189 190.155 157.97 189.805 157.795 189.413C157.577 189.017 157.445 188.624 157.358 188.186C157.27 187.71 157.226 187.226 157.226 186.742C157.226 185.911 157.358 185.21 157.577 184.598C157.795 183.941 158.146 183.415 158.584 182.933C159.021 182.451 159.547 182.102 160.159 181.884C160.76 181.654 161.398 181.535 162.041 181.533C162.873 181.533 163.574 181.707 164.186 182.014C164.779 182.288 165.291 182.71 165.674 183.239C166.025 183.722 166.2 184.159 166.2 184.598C166.2 184.816 166.113 185.035 165.938 185.21C165.761 185.384 165.543 185.472 165.324 185.472C165.062 185.472 164.887 185.427 164.755 185.297C164.625 185.167 164.448 184.947 164.318 184.64C164.055 184.159 163.749 183.765 163.354 183.546C163.005 183.284 162.567 183.152 162.041 183.152C161.21 183.152 160.51 183.459 160.027 184.116C159.547 184.773 159.283 185.647 159.283 186.829C159.283 187.616 159.415 188.273 159.634 188.8C159.854 189.281 160.159 189.675 160.553 189.938C160.948 190.2 161.429 190.332 161.954 190.332C162.567 190.332 163.092 190.2 163.486 189.895C163.88 189.588 164.143 189.192 164.362 188.624C164.448 188.362 164.58 188.143 164.712 187.966C164.844 187.793 165.019 187.706 165.324 187.706C165.543 187.706 165.761 187.793 165.938 187.966C166.113 188.143 166.2 188.362 166.2 188.58ZM175.26 188.143C175.26 188.711 175.174 189.193 174.998 189.675C174.823 190.155 174.56 190.55 174.21 190.899C173.904 191.25 173.51 191.513 173.028 191.687C172.591 191.863 172.066 191.95 171.497 191.95C170.928 191.95 170.446 191.863 169.964 191.687C169.483 191.47 169.089 191.206 168.782 190.899C168.476 190.55 168.214 190.155 168.038 189.675C167.863 189.193 167.776 188.711 167.776 188.143C167.776 187.573 167.863 187.049 168.038 186.567C168.214 186.085 168.476 185.692 168.782 185.384C169.089 185.035 169.483 184.773 169.964 184.598C170.446 184.423 170.928 184.333 171.497 184.333C172.066 184.333 172.548 184.423 173.028 184.598C173.51 184.773 173.904 185.035 174.21 185.384C174.56 185.692 174.823 186.129 174.998 186.611C175.174 187.092 175.26 187.573 175.26 188.143ZM173.378 188.143C173.378 187.399 173.203 186.785 172.853 186.348C172.503 185.911 172.066 185.692 171.497 185.692C171.103 185.692 170.796 185.779 170.533 185.998C170.227 186.173 170.009 186.435 169.877 186.829C169.745 187.224 169.658 187.661 169.658 188.143C169.658 188.624 169.745 189.061 169.877 189.412C170.009 189.805 170.227 190.068 170.533 190.243C170.796 190.462 171.103 190.55 171.497 190.55C172.066 190.55 172.503 190.332 172.853 189.895C173.203 189.499 173.379 188.887 173.379 188.143H173.378ZM183.271 188.273V190.769C183.271 191.163 183.183 191.426 183.008 191.643C182.789 191.863 182.571 191.95 182.264 191.95C182.002 191.95 181.783 191.863 181.608 191.643C181.433 191.426 181.345 191.163 181.345 190.769V187.793C181.345 187.311 181.301 186.917 181.258 186.698C181.214 186.435 181.126 186.216 180.996 186.041C180.864 185.867 180.645 185.779 180.339 185.779C179.726 185.779 179.331 185.998 179.113 186.435C178.937 186.829 178.85 187.442 178.85 188.23V190.769C178.85 191.163 178.762 191.426 178.587 191.643C178.412 191.863 178.193 191.95 177.888 191.95C177.581 191.95 177.362 191.863 177.187 191.643C177.012 191.426 176.924 191.163 176.924 190.769V185.384C176.924 185.035 177.012 184.773 177.142 184.598C177.319 184.423 177.537 184.333 177.799 184.333C178.063 184.333 178.281 184.423 178.457 184.598C178.587 184.73 178.675 184.99 178.675 185.297V185.472C179.026 185.078 179.376 184.816 179.726 184.598C180.12 184.423 180.514 184.333 180.996 184.333C181.476 184.333 181.87 184.423 182.177 184.598C182.527 184.816 182.789 185.078 183.008 185.472C183.315 185.078 183.665 184.816 184.059 184.598C184.409 184.423 184.803 184.333 185.242 184.333C185.767 184.333 186.204 184.423 186.554 184.64C186.948 184.86 187.21 185.122 187.385 185.517C187.561 185.824 187.649 186.348 187.649 187.092V190.769C187.649 191.163 187.561 191.426 187.385 191.643C187.21 191.863 186.992 191.95 186.685 191.95C186.379 191.95 186.159 191.863 185.986 191.643C185.81 191.426 185.722 191.163 185.722 190.769V187.616C185.722 187.224 185.679 186.872 185.635 186.655C185.59 186.391 185.503 186.173 185.372 186.041C185.242 185.867 184.978 185.779 184.672 185.779C184.453 185.779 184.191 185.867 183.972 185.998C183.752 186.129 183.578 186.348 183.446 186.611C183.315 186.917 183.271 187.442 183.271 188.273H183.271ZM191.501 185.384V185.604C191.851 185.167 192.2 184.86 192.595 184.64C192.989 184.423 193.383 184.333 193.863 184.333C194.434 184.333 195.003 184.466 195.483 184.773C195.965 185.079 196.316 185.517 196.622 186.085C196.928 186.655 197.06 187.355 197.06 188.143C197.06 188.711 196.971 189.237 196.796 189.718C196.666 190.2 196.446 190.594 196.14 190.944C195.833 191.25 195.528 191.513 195.133 191.687C194.739 191.863 194.345 191.95 193.863 191.95C193.339 191.95 192.901 191.863 192.55 191.643C192.157 191.426 191.806 191.076 191.501 190.682V193.483C191.501 194.316 191.194 194.709 190.582 194.709C190.231 194.709 190.013 194.621 189.881 194.402C189.749 194.182 189.706 193.875 189.706 193.483V185.384C189.706 185.035 189.793 184.773 189.968 184.598C190.1 184.423 190.318 184.333 190.582 184.333C190.844 184.333 191.062 184.423 191.237 184.598C191.413 184.773 191.501 185.035 191.501 185.384L191.501 185.384ZM195.178 188.098C195.178 187.616 195.089 187.179 194.914 186.829C194.784 186.478 194.564 186.216 194.302 185.998C194.042 185.826 193.738 185.735 193.426 185.734C192.901 185.734 192.464 185.954 192.113 186.348C191.763 186.742 191.588 187.356 191.588 188.143C191.588 188.887 191.763 189.456 192.113 189.895C192.464 190.287 192.901 190.507 193.426 190.507C193.733 190.507 193.995 190.419 194.302 190.243C194.564 190.025 194.784 189.762 194.914 189.413C195.089 189.061 195.178 188.624 195.178 188.098V188.098ZM200.78 189.237V190.812C200.78 191.206 200.693 191.47 200.518 191.643C200.299 191.863 200.079 191.95 199.817 191.95C199.554 191.95 199.335 191.863 199.16 191.643C198.985 191.47 198.898 191.206 198.898 190.812V185.604C198.898 184.773 199.205 184.333 199.817 184.333C200.123 184.333 200.343 184.423 200.473 184.598C200.605 184.816 200.693 185.078 200.693 185.472C200.912 185.078 201.174 184.816 201.392 184.598C201.612 184.423 201.961 184.333 202.356 184.333C202.75 184.333 203.1 184.423 203.494 184.598C203.888 184.816 204.063 185.079 204.063 185.384C204.063 185.604 203.976 185.824 203.8 185.954C203.669 186.085 203.494 186.173 203.275 186.173C203.232 186.173 203.056 186.129 202.794 186.085C202.531 185.998 202.311 185.954 202.093 185.954C201.856 185.953 201.625 186.03 201.437 186.173C201.262 186.305 201.13 186.478 200.999 186.785C200.912 187.092 200.868 187.399 200.823 187.793C200.78 188.186 200.78 188.667 200.78 189.237H200.78ZM211.854 188.143C211.854 188.711 211.767 189.193 211.592 189.675C211.417 190.155 211.155 190.55 210.804 190.899C210.498 191.25 210.104 191.513 209.622 191.687C209.185 191.863 208.659 191.95 208.09 191.95C207.521 191.95 207.039 191.863 206.559 191.687C206.077 191.47 205.683 191.206 205.376 190.899C205.071 190.55 204.807 190.155 204.632 189.675C204.457 189.193 204.37 188.711 204.37 188.143C204.37 187.573 204.457 187.049 204.632 186.567C204.807 186.085 205.071 185.692 205.376 185.384C205.683 185.035 206.077 184.773 206.559 184.598C207.039 184.423 207.521 184.333 208.09 184.333C208.659 184.333 209.14 184.423 209.622 184.598C210.104 184.773 210.498 185.035 210.804 185.384C211.155 185.692 211.417 186.129 211.592 186.611C211.767 187.092 211.854 187.573 211.854 188.143ZM209.972 188.143C209.972 187.399 209.797 186.785 209.447 186.348C209.096 185.911 208.659 185.692 208.09 185.692C207.696 185.692 207.39 185.779 207.128 185.998C206.821 186.173 206.602 186.435 206.47 186.829C206.339 187.224 206.252 187.661 206.252 188.143C206.252 188.624 206.339 189.061 206.47 189.412C206.602 189.805 206.821 190.068 207.128 190.243C207.39 190.462 207.696 190.55 208.09 190.55C208.659 190.55 209.096 190.332 209.447 189.895C209.797 189.499 209.972 188.887 209.972 188.143ZM219.865 188.273V190.769C219.865 191.163 219.777 191.426 219.603 191.643C219.383 191.863 219.164 191.95 218.857 191.95C218.595 191.95 218.377 191.863 218.202 191.643C218.026 191.426 217.938 191.163 217.938 190.769V187.793C217.938 187.311 217.895 186.917 217.851 186.698C217.808 186.435 217.72 186.216 217.588 186.041C217.458 185.867 217.239 185.779 216.932 185.779C216.32 185.779 215.926 185.998 215.706 186.435C215.531 186.829 215.444 187.442 215.444 188.23V190.769C215.444 191.163 215.356 191.426 215.181 191.643C215.005 191.863 214.787 191.95 214.481 191.95C214.174 191.95 213.956 191.863 213.781 191.643C213.605 191.426 213.517 191.163 213.517 190.769V185.384C213.517 185.035 213.606 184.773 213.737 184.598C213.911 184.423 214.131 184.333 214.393 184.333C214.655 184.333 214.875 184.423 215.05 184.598C215.18 184.73 215.269 184.99 215.269 185.297V185.472C215.619 185.078 215.969 184.816 216.32 184.598C216.713 184.423 217.107 184.333 217.588 184.333C218.07 184.333 218.464 184.423 218.771 184.598C219.121 184.816 219.383 185.078 219.603 185.472C219.908 185.078 220.259 184.816 220.653 184.598C221.003 184.423 221.396 184.333 221.835 184.333C222.359 184.333 222.798 184.423 223.148 184.64C223.542 184.86 223.804 185.122 223.979 185.517C224.154 185.824 224.242 186.348 224.242 187.092V190.769C224.242 191.163 224.154 191.426 223.979 191.643C223.804 191.863 223.585 191.95 223.28 191.95C222.973 191.95 222.754 191.863 222.579 191.643C222.404 191.426 222.316 191.163 222.316 190.769V187.616C222.316 187.224 222.272 186.872 222.229 186.655C222.185 186.391 222.097 186.173 221.965 186.041C221.835 185.867 221.572 185.779 221.265 185.779C221.046 185.779 220.784 185.867 220.565 185.998C220.347 186.129 220.172 186.348 220.04 186.611C219.908 186.917 219.865 187.442 219.865 188.273ZM231.596 188.58H227.919C227.919 189.017 228.006 189.413 228.181 189.718C228.356 190.025 228.575 190.287 228.838 190.462C229.144 190.639 229.451 190.725 229.758 190.725C229.976 190.725 230.195 190.682 230.37 190.639L230.895 190.375L231.378 190.025C231.508 189.895 231.728 189.718 231.946 189.499C232.077 189.413 232.208 189.368 232.384 189.368C232.559 189.368 232.69 189.413 232.821 189.544C232.953 189.631 233.041 189.762 233.041 189.981C233.041 190.155 232.953 190.375 232.821 190.594C232.691 190.812 232.472 190.989 232.208 191.206C231.946 191.426 231.596 191.6 231.202 191.732C230.807 191.863 230.327 191.95 229.801 191.95C228.62 191.95 227.656 191.6 227 190.899C226.343 190.243 225.992 189.324 225.992 188.143C225.992 187.573 226.081 187.049 226.256 186.567C226.386 186.085 226.65 185.692 226.957 185.341C227.262 185.035 227.656 184.773 228.138 184.598C228.62 184.378 229.101 184.29 229.669 184.29C230.413 184.29 231.026 184.466 231.551 184.773C232.077 185.079 232.472 185.472 232.734 185.954C232.996 186.435 233.128 186.96 233.128 187.486C233.128 187.966 232.996 188.273 232.734 188.405C232.472 188.537 232.077 188.58 231.596 188.58ZM227.919 187.529H231.333C231.289 186.872 231.114 186.391 230.807 186.085C230.502 185.779 230.108 185.604 229.626 185.604C229.144 185.604 228.75 185.779 228.445 186.085C228.138 186.391 227.963 186.872 227.919 187.529H227.919ZM235.098 184.466H235.316V183.372C235.316 183.065 235.316 182.801 235.36 182.671L235.491 182.19L235.797 181.883L236.279 181.752C236.498 181.752 236.718 181.839 236.891 182.059C237.023 182.19 237.111 182.321 237.155 182.496C237.198 182.628 237.198 182.89 237.198 183.195V184.466H237.899C238.161 184.466 238.381 184.553 238.511 184.685C238.643 184.816 238.686 184.947 238.686 185.167C238.686 185.384 238.599 185.56 238.424 185.692C238.206 185.779 237.942 185.824 237.548 185.824H237.198V189.281C237.198 189.588 237.198 189.805 237.243 189.981C237.243 190.112 237.286 190.243 237.417 190.375C237.505 190.462 237.635 190.507 237.812 190.507C237.942 190.507 238.074 190.507 238.293 190.462C238.468 190.418 238.599 190.375 238.73 190.375C238.861 190.375 238.993 190.418 239.125 190.55C239.255 190.682 239.3 190.812 239.3 191.032C239.3 191.338 239.125 191.556 238.818 191.687C238.511 191.863 238.03 191.95 237.373 191.95C236.804 191.95 236.367 191.863 236.06 191.643C235.753 191.426 235.578 191.163 235.448 190.812C235.36 190.507 235.316 190.025 235.316 189.456V185.824H235.098C234.791 185.824 234.572 185.779 234.44 185.647C234.309 185.517 234.265 185.384 234.265 185.167C234.265 184.947 234.354 184.816 234.484 184.685C234.616 184.553 234.834 184.466 235.098 184.466L235.098 184.466ZM242.233 185.384V190.812C242.233 191.206 242.145 191.47 241.969 191.643C241.794 191.863 241.576 191.95 241.269 191.95C241.007 191.95 240.788 191.863 240.613 191.643C240.438 191.426 240.35 191.163 240.35 190.812V185.427C240.35 185.078 240.438 184.816 240.613 184.598C240.788 184.423 241.007 184.333 241.269 184.333C241.576 184.333 241.794 184.423 241.97 184.598C242.145 184.816 242.233 185.079 242.233 185.384ZM241.314 183.459C241.05 183.459 240.832 183.372 240.657 183.195C240.438 183.065 240.35 182.846 240.35 182.541C240.35 182.277 240.438 182.059 240.657 181.884C240.832 181.707 241.05 181.62 241.314 181.62C241.532 181.62 241.751 181.707 241.969 181.839C242.145 182.014 242.233 182.234 242.233 182.541C242.233 182.846 242.145 183.065 241.969 183.195C241.751 183.372 241.532 183.459 241.314 183.459ZM249.63 190.856V190.682C249.367 190.989 249.105 191.206 248.886 191.381C248.623 191.556 248.361 191.687 248.054 191.82C247.755 191.906 247.446 191.95 247.135 191.95C246.654 191.95 246.26 191.863 245.865 191.643C245.471 191.47 245.166 191.206 244.902 190.856C244.595 190.507 244.377 190.068 244.245 189.588C244.115 189.106 244.027 188.624 244.027 188.055C244.027 186.872 244.333 185.954 244.902 185.297C245.471 184.64 246.215 184.333 247.135 184.333C247.703 184.333 248.142 184.423 248.536 184.598C248.886 184.816 249.236 185.078 249.63 185.472V182.715C249.63 182.321 249.717 182.014 249.849 181.839C249.98 181.62 250.199 181.533 250.506 181.533C250.811 181.533 251.031 181.62 251.162 181.795C251.293 181.971 251.38 182.234 251.38 182.584V190.856C251.38 191.25 251.293 191.513 251.118 191.687C250.987 191.863 250.768 191.95 250.506 191.95C250.242 191.95 250.024 191.863 249.849 191.687C249.717 191.47 249.63 191.206 249.63 190.856ZM245.91 188.143C245.91 188.624 245.997 189.061 246.172 189.412C246.304 189.761 246.522 190.025 246.784 190.243C247.091 190.419 247.398 190.507 247.703 190.507C248.01 190.507 248.317 190.419 248.623 190.243C248.886 190.068 249.105 189.805 249.28 189.456C249.411 189.106 249.498 188.667 249.498 188.143C249.498 187.616 249.412 187.179 249.28 186.829C249.105 186.478 248.886 186.216 248.623 185.998C248.317 185.824 248.01 185.734 247.703 185.734C247.354 185.734 247.048 185.824 246.784 185.998C246.479 186.216 246.26 186.478 246.128 186.872C245.997 187.224 245.91 187.661 245.91 188.143ZM260.617 188.143C260.617 188.711 260.529 189.193 260.354 189.675C260.179 190.155 259.917 190.55 259.566 190.899C259.26 191.25 258.866 191.513 258.385 191.687C257.947 191.863 257.421 191.95 256.852 191.95C256.283 191.95 255.801 191.863 255.319 191.687C254.84 191.47 254.445 191.206 254.138 190.899C253.832 190.55 253.57 190.155 253.395 189.675C253.219 189.193 253.131 188.711 253.131 188.143C253.131 187.573 253.219 187.049 253.395 186.567C253.57 186.085 253.832 185.692 254.138 185.384C254.445 185.035 254.84 184.773 255.319 184.598C255.801 184.423 256.283 184.333 256.852 184.333C257.421 184.333 257.903 184.423 258.385 184.598C258.866 184.773 259.26 185.035 259.566 185.384C259.917 185.692 260.179 186.129 260.354 186.611C260.529 187.092 260.617 187.573 260.617 188.143ZM258.735 188.143C258.735 187.399 258.56 186.785 258.209 186.348C257.858 185.911 257.421 185.692 256.852 185.692C256.458 185.692 256.152 185.779 255.89 185.998C255.583 186.173 255.364 186.435 255.232 186.829C255.102 187.224 255.014 187.661 255.014 188.143C255.014 188.624 255.102 189.061 255.232 189.412C255.364 189.805 255.583 190.068 255.89 190.243C256.152 190.462 256.458 190.55 256.852 190.55C257.421 190.55 257.858 190.332 258.209 189.895C258.56 189.499 258.735 188.887 258.735 188.143H258.735ZM268.452 189.499C268.452 190.025 268.32 190.462 268.058 190.812C267.838 191.206 267.446 191.47 266.964 191.643C266.482 191.863 265.869 191.95 265.169 191.95C264.513 191.95 263.9 191.863 263.418 191.643C262.936 191.426 262.586 191.163 262.367 190.856C262.149 190.55 262.018 190.243 262.018 189.938C262.018 189.718 262.105 189.544 262.236 189.412C262.367 189.281 262.586 189.193 262.806 189.193C263.023 189.193 263.155 189.237 263.243 189.324C263.375 189.413 263.462 189.544 263.55 189.718C263.767 190.068 263.987 190.332 264.249 190.462C264.513 190.639 264.862 190.725 265.344 190.725C265.738 190.725 266.044 190.639 266.263 190.462C266.482 190.332 266.613 190.112 266.613 189.895C266.613 189.588 266.482 189.324 266.263 189.192C265.999 189.061 265.607 188.887 265.037 188.755C264.381 188.58 263.856 188.405 263.462 188.23C263.068 188.055 262.718 187.836 262.456 187.529C262.236 187.267 262.105 186.917 262.105 186.478C262.105 186.085 262.236 185.734 262.456 185.427C262.673 185.078 262.98 184.816 263.462 184.64C263.856 184.423 264.381 184.333 265.037 184.333C265.519 184.333 265.956 184.378 266.351 184.466C266.744 184.598 267.05 184.73 267.314 184.86C267.576 185.035 267.751 185.21 267.883 185.427C268.013 185.647 268.101 185.824 268.101 186.041C268.101 186.261 268.013 186.435 267.883 186.567C267.751 186.698 267.532 186.785 267.27 186.785C267.05 186.785 266.919 186.742 266.788 186.611C266.657 186.478 266.482 186.348 266.306 186.129C266.176 185.954 265.999 185.824 265.824 185.692C265.607 185.561 265.344 185.517 265.037 185.517C264.688 185.517 264.381 185.604 264.162 185.734C263.942 185.867 263.856 186.041 263.856 186.261C263.856 186.478 263.942 186.612 264.074 186.742C264.249 186.872 264.468 187.004 264.73 187.049C265.037 187.136 265.432 187.224 265.913 187.356C266.482 187.486 266.964 187.661 267.357 187.88C267.708 188.098 267.971 188.318 268.188 188.58C268.364 188.844 268.452 189.149 268.452 189.499V189.499ZM280.927 189.631C280.927 189.85 280.839 190.112 280.708 190.375C280.577 190.639 280.357 190.899 280.051 191.119C279.789 191.381 279.439 191.6 279 191.732C278.518 191.878 278.017 191.952 277.514 191.95C276.331 191.95 275.455 191.6 274.799 190.944C274.142 190.243 273.835 189.324 273.835 188.187C273.835 187.442 273.967 186.742 274.272 186.173C274.579 185.604 275.017 185.122 275.587 184.816C276.156 184.466 276.812 184.29 277.6 184.29C278.081 184.29 278.52 184.378 278.913 184.51C279.307 184.64 279.657 184.86 279.964 185.079C280.226 185.297 280.446 185.561 280.622 185.779C280.752 186.041 280.839 186.261 280.839 186.478C280.839 186.698 280.752 186.917 280.577 187.049C280.401 187.224 280.181 187.311 279.964 187.311C279.833 187.311 279.702 187.267 279.569 187.179C279.482 187.092 279.352 186.96 279.22 186.785C279.032 186.486 278.795 186.22 278.52 185.998C278.258 185.824 277.951 185.734 277.556 185.734C276.988 185.734 276.549 185.954 276.199 186.391C275.894 186.829 275.719 187.442 275.719 188.186C275.719 188.537 275.762 188.844 275.849 189.149C275.937 189.456 276.069 189.675 276.199 189.895C276.374 190.112 276.593 190.244 276.812 190.375C277.031 190.507 277.293 190.55 277.6 190.55C277.993 190.55 278.3 190.462 278.563 190.287C278.825 190.112 279.045 189.85 279.262 189.499C279.394 189.281 279.482 189.106 279.614 188.974C279.744 188.844 279.919 188.8 280.139 188.8C280.357 188.8 280.533 188.887 280.708 189.061C280.839 189.238 280.927 189.413 280.927 189.631H280.927ZM289.899 188.143C289.899 188.711 289.812 189.193 289.637 189.675C289.462 190.155 289.2 190.55 288.85 190.899C288.543 191.25 288.149 191.513 287.668 191.687C287.23 191.863 286.706 191.95 286.135 191.95C285.567 191.95 285.084 191.863 284.604 191.687C284.122 191.47 283.728 191.206 283.423 190.899C283.116 190.55 282.852 190.155 282.677 189.675C282.503 189.193 282.415 188.711 282.415 188.143C282.415 187.573 282.503 187.049 282.677 186.567C282.852 186.085 283.116 185.692 283.423 185.384C283.728 185.035 284.122 184.773 284.604 184.598C285.084 184.423 285.567 184.333 286.135 184.333C286.706 184.333 287.186 184.423 287.668 184.598C288.149 184.773 288.543 185.035 288.85 185.384C289.2 185.692 289.462 186.129 289.637 186.611C289.812 187.092 289.899 187.573 289.899 188.143ZM288.017 188.143C288.017 187.399 287.842 186.785 287.493 186.348C287.143 185.911 286.706 185.692 286.135 185.692C285.742 185.692 285.436 185.779 285.173 185.998C284.866 186.173 284.647 186.435 284.517 186.829C284.385 187.224 284.297 187.661 284.297 188.143C284.297 188.624 284.385 189.061 284.517 189.412C284.647 189.805 284.866 190.068 285.173 190.243C285.436 190.462 285.742 190.55 286.135 190.55C286.706 190.55 287.143 190.332 287.493 189.895C287.842 189.499 288.017 188.887 288.017 188.143ZM293.357 185.341V185.604C293.664 185.167 294.059 184.86 294.452 184.64C294.847 184.423 295.284 184.333 295.808 184.333C296.29 184.333 296.729 184.423 297.123 184.64C297.518 184.86 297.78 185.167 297.997 185.56C298.13 185.779 298.172 186.041 298.217 186.305C298.26 186.567 298.305 186.917 298.305 187.311V190.812C298.305 191.206 298.217 191.47 298.042 191.643C297.867 191.863 297.648 191.95 297.343 191.95C297.078 191.95 296.861 191.863 296.685 191.643C296.51 191.426 296.423 191.163 296.423 190.812V187.661C296.423 187.049 296.335 186.567 296.159 186.261C295.983 185.954 295.634 185.779 295.154 185.779C294.802 185.779 294.497 185.867 294.235 186.085C293.928 186.261 293.753 186.522 293.62 186.872C293.533 187.179 293.489 187.706 293.489 188.45V190.812C293.489 191.206 293.402 191.47 293.227 191.643C293.052 191.863 292.833 191.95 292.525 191.95C292.263 191.95 292.046 191.863 291.871 191.643C291.696 191.426 291.607 191.163 291.607 190.812V185.384C291.607 185.035 291.696 184.773 291.826 184.598C292.001 184.423 292.22 184.333 292.483 184.333L292.92 184.423C293.052 184.51 293.182 184.64 293.227 184.773C293.314 184.947 293.357 185.122 293.357 185.341ZM304.432 187.616V182.758C304.432 182.364 304.52 182.059 304.738 181.839C304.914 181.62 305.133 181.533 305.439 181.533C305.746 181.533 306.008 181.62 306.228 181.839C306.403 182.059 306.49 182.364 306.49 182.758V187.706C306.49 188.273 306.533 188.755 306.665 189.149C306.795 189.544 307.059 189.805 307.366 190.025C307.673 190.243 308.11 190.332 308.679 190.332C309.511 190.332 310.079 190.112 310.385 189.675C310.692 189.281 310.867 188.624 310.867 187.749V182.758C310.867 182.364 310.956 182.059 311.173 181.839C311.348 181.62 311.568 181.533 311.874 181.533C312.18 181.533 312.442 181.62 312.662 181.839C312.838 182.059 312.924 182.364 312.924 182.758V187.616C312.924 188.405 312.837 189.061 312.704 189.588C312.531 190.112 312.224 190.594 311.83 190.989C311.436 191.294 311.042 191.556 310.561 191.732C310.079 191.863 309.511 191.95 308.854 191.95C308.065 191.95 307.409 191.863 306.84 191.687C306.271 191.513 305.833 191.25 305.484 190.944C305.133 190.55 304.871 190.112 304.696 189.588C304.52 189.017 304.431 188.362 304.431 187.616H304.432ZM321.373 189.499C321.373 190.025 321.241 190.462 320.977 190.812C320.76 191.206 320.365 191.47 319.883 191.643C319.404 191.863 318.789 191.95 318.089 191.95C317.432 191.95 316.82 191.863 316.338 191.643C315.857 191.426 315.506 191.163 315.288 190.856C315.068 190.55 314.938 190.243 314.938 189.938C314.938 189.718 315.026 189.544 315.157 189.412C315.288 189.281 315.506 189.193 315.726 189.193C315.945 189.193 316.076 189.237 316.163 189.324C316.294 189.413 316.383 189.544 316.47 189.718C316.688 190.068 316.908 190.332 317.17 190.462C317.432 190.639 317.783 190.725 318.264 190.725C318.658 190.725 318.964 190.639 319.184 190.462C319.404 190.332 319.534 190.112 319.534 189.895C319.534 189.588 319.404 189.324 319.184 189.192C318.922 189.061 318.527 188.887 317.959 188.755C317.302 188.58 316.775 188.405 316.383 188.23C315.988 188.055 315.639 187.836 315.375 187.529C315.157 187.267 315.026 186.917 315.026 186.478C315.026 186.085 315.157 185.734 315.375 185.427C315.594 185.078 315.901 184.816 316.383 184.64C316.775 184.423 317.302 184.333 317.959 184.333C318.44 184.333 318.877 184.378 319.271 184.466C319.666 184.598 319.971 184.73 320.233 184.86C320.498 185.035 320.672 185.21 320.804 185.427C320.935 185.647 321.022 185.824 321.022 186.041C321.022 186.261 320.935 186.435 320.804 186.567C320.672 186.698 320.453 186.785 320.19 186.785C319.971 186.785 319.841 186.742 319.709 186.611C319.578 186.478 319.404 186.348 319.229 186.129C319.095 185.954 318.922 185.824 318.747 185.692C318.527 185.561 318.265 185.517 317.959 185.517C317.607 185.517 317.302 185.604 317.082 185.734C316.865 185.867 316.775 186.041 316.775 186.261C316.775 186.478 316.865 186.612 316.995 186.742C317.17 186.872 317.389 187.004 317.652 187.049C317.959 187.136 318.352 187.224 318.834 187.356C319.404 187.486 319.883 187.661 320.278 187.88C320.629 188.098 320.89 188.318 321.11 188.58C321.284 188.844 321.373 189.149 321.373 189.499V189.499ZM323.341 184.466H323.561V183.372C323.561 183.065 323.561 182.801 323.605 182.671L323.736 182.19L324.042 181.883L324.524 181.752C324.742 181.752 324.961 181.839 325.136 182.059C325.268 182.19 325.355 182.321 325.4 182.496C325.443 182.628 325.443 182.89 325.443 183.195V184.466H326.142C326.407 184.466 326.624 184.553 326.756 184.685C326.888 184.816 326.931 184.947 326.931 185.167C326.931 185.384 326.844 185.56 326.669 185.692C326.449 185.779 326.187 185.824 325.793 185.824H325.443V189.281C325.443 189.588 325.443 189.805 325.488 189.981C325.488 190.112 325.53 190.243 325.661 190.375C325.75 190.462 325.88 190.507 326.055 190.507C326.187 190.507 326.317 190.507 326.537 190.462C326.712 190.418 326.844 190.375 326.975 190.375C327.106 190.375 327.237 190.418 327.37 190.55C327.5 190.682 327.543 190.812 327.543 191.032C327.543 191.338 327.37 191.556 327.063 191.687C326.756 191.863 326.275 191.95 325.618 191.95C325.048 191.95 324.611 191.863 324.305 191.643C323.998 191.426 323.823 191.163 323.691 190.812C323.604 190.507 323.561 190.025 323.561 189.456V185.824H323.341C323.036 185.824 322.817 185.779 322.687 185.647C322.554 185.517 322.51 185.384 322.51 185.167C322.51 184.947 322.597 184.816 322.729 184.685C322.86 184.553 323.079 184.466 323.341 184.466L323.341 184.466ZM333.803 188.58H330.128C330.128 189.017 330.214 189.413 330.39 189.718C330.565 190.025 330.783 190.287 331.045 190.462C331.352 190.639 331.659 190.725 331.965 190.725C332.185 190.725 332.402 190.682 332.578 190.639L333.104 190.375L333.584 190.025C333.716 189.895 333.936 189.718 334.153 189.499C334.285 189.413 334.415 189.368 334.59 189.368C334.766 189.368 334.897 189.413 335.031 189.544C335.161 189.631 335.248 189.762 335.248 189.981C335.248 190.155 335.161 190.375 335.031 190.594C334.897 190.812 334.679 190.989 334.415 191.206C334.153 191.426 333.803 191.6 333.409 191.732C333.015 191.863 332.535 191.95 332.009 191.95C330.827 191.95 329.864 191.6 329.208 190.899C328.551 190.243 328.201 189.324 328.201 188.143C328.201 187.573 328.289 187.049 328.464 186.567C328.594 186.085 328.857 185.692 329.164 185.341C329.47 185.035 329.864 184.773 330.346 184.598C330.827 184.378 331.309 184.29 331.878 184.29C332.622 184.29 333.234 184.466 333.761 184.773C334.285 185.079 334.679 185.472 334.942 185.954C335.204 186.435 335.336 186.96 335.336 187.486C335.336 187.966 335.204 188.273 334.942 188.405C334.679 188.537 334.285 188.58 333.803 188.58H333.803ZM330.128 187.529H333.541C333.496 186.872 333.321 186.391 333.015 186.085C332.709 185.779 332.315 185.604 331.834 185.604C331.352 185.604 330.959 185.779 330.653 186.085C330.346 186.391 330.171 186.872 330.127 187.529H330.128ZM342.384 190.856V190.682C342.119 190.989 341.857 191.206 341.639 191.381C341.377 191.556 341.115 191.687 340.808 191.82C340.508 191.906 340.199 191.95 339.887 191.95C339.407 191.95 339.013 191.863 338.619 191.643C338.224 191.47 337.918 191.206 337.656 190.856C337.349 190.507 337.13 190.068 336.999 189.588C336.868 189.106 336.779 188.624 336.779 188.055C336.779 186.872 337.086 185.954 337.656 185.297C338.224 184.64 338.968 184.333 339.887 184.333C340.458 184.333 340.895 184.423 341.29 184.598C341.639 184.816 341.989 185.078 342.384 185.472V182.715C342.384 182.321 342.471 182.014 342.601 181.839C342.733 181.62 342.952 181.533 343.259 181.533C343.565 181.533 343.784 181.62 343.916 181.795C344.046 181.971 344.133 182.234 344.133 182.584V190.856C344.133 191.25 344.046 191.513 343.871 191.687C343.741 191.863 343.521 191.95 343.259 191.95C342.997 191.95 342.777 191.863 342.601 191.687C342.471 191.47 342.384 191.206 342.384 190.856ZM338.663 188.143C338.663 188.624 338.751 189.061 338.926 189.412C339.056 189.761 339.275 190.025 339.538 190.243C339.845 190.419 340.151 190.507 340.458 190.507C340.763 190.507 341.07 190.419 341.377 190.243C341.639 190.068 341.857 189.805 342.033 189.456C342.164 189.106 342.251 188.667 342.251 188.143C342.251 187.616 342.164 187.179 342.033 186.829C341.857 186.478 341.639 186.216 341.377 185.998C341.07 185.824 340.763 185.734 340.458 185.734C340.107 185.734 339.8 185.824 339.538 185.998C339.231 186.216 339.013 186.478 338.881 186.872C338.751 187.224 338.663 187.661 338.663 188.143Z" fill="#1C4989"/>
</svg>
