<svg width="480" height="320" viewBox="0 0 480 320" fill="none" xmlns="http://www.w3.org/2000/svg">
<path d="M366.436 174.235C365.434 174.235 364.651 173.459 364.651 172.401C364.651 171.363 365.434 170.579 366.436 170.579C367.434 170.579 368.212 171.364 368.212 172.401C368.212 173.459 367.434 174.235 366.436 174.235ZM366.436 170.213C365.231 170.213 364.207 171.142 364.207 172.401C364.207 173.669 365.231 174.595 366.436 174.595C367.634 174.595 368.653 173.669 368.653 172.401C368.653 171.142 367.634 170.213 366.436 170.213" fill="#0C2F59"/>
<path d="M365.97 172.249V171.469H366.49C366.756 171.469 367.041 171.52 367.041 171.839C367.041 172.226 366.756 172.249 366.433 172.249H365.97ZM366.788 172.554C367.161 172.512 367.443 172.315 367.443 171.864C367.443 171.363 367.153 171.142 366.55 171.142H365.589V173.669H365.97V172.574H366.412L367.079 173.669H367.509L366.788 172.554ZM104.572 148.96C105.686 148.972 106.447 149.303 107.066 149.595C108.355 150.206 109.864 150.91 111.756 151.824C111.756 151.832 114.803 149.652 114.967 149.539C116.008 148.835 117.006 149.371 117.33 149.978C118.468 152.126 120.566 156.581 121.674 160.658C121.802 161.149 121.648 161.903 120.883 162.14C120.441 162.264 119.682 162.375 118.89 162.475C117.785 162.612 117.804 163.507 117.804 164.047C117.804 164.718 117.813 169.213 117.813 170.752C117.838 171.696 117.118 174.783 113.551 174.783H105.417C102.339 174.796 99.8653 172.191 99.849 169.424C99.8457 167.604 99.849 154.939 99.8532 153.521C99.8676 150.779 102.33 148.929 104.572 148.96Z" fill="#0C2F59"/>
<path d="M91.7024 174.783H65.2532V177.72H96.2881C96.2881 177.72 97.4142 175.122 97.4142 172.245L97.424 152.306C97.424 150.735 98.0635 148.074 101.295 147.371C101.384 147.351 101.475 147.332 101.568 147.315C110.726 145.153 120.166 147.121 125.495 149.415C126.451 149.881 126.669 149.118 126.641 148.792C126.75 144.311 123.344 139.202 117.08 138.895C111.987 138.777 109.165 140.603 108.131 141.107C108.042 141.152 107.919 141.133 107.802 141.002C106.864 140.077 104.861 138.69 102.607 138.049C102.27 137.973 102.243 137.474 102.627 137.434C107.442 136.914 111.665 137.466 113.419 137.748C113.826 137.818 114.135 137.581 113.973 137.207C113.843 136.92 113.746 136.793 113.54 136.353C113.11 135.427 111.978 134.452 110.537 134.048C106.747 132.995 100.295 132.085 94.5532 132.05C88.0862 132.01 81.266 133.3 79.5436 133.692C79.1316 133.78 78.5525 133.929 78.4472 133.946C77.9764 134.041 77.8646 134.491 78.0719 134.708C78.1955 134.845 78.5551 135.147 78.7258 135.356C78.9387 135.624 79.0351 136.003 78.6323 136.401L66.6696 147.14H74.9464C75.4777 147.121 75.9849 147.61 75.9849 148.221C75.9901 148.77 75.5444 149.296 74.9857 149.296H64.288L61.0341 152.257H74.953L75.0314 152.25C75.5791 152.257 76.0032 152.813 75.9944 153.335C75.9901 153.808 75.5866 154.391 75.0314 154.391L74.9464 154.4H58.6495L55.391 157.338H83.5051L83.5953 157.341C84.1495 157.341 84.5795 157.915 84.5821 158.412C84.5909 158.988 84.1832 159.503 83.6159 159.5H55.3848V162.438H83.4756L83.5603 162.444C84.2048 162.451 84.5821 163.032 84.5795 163.56C84.5749 164.055 84.107 164.582 83.5472 164.582H55.3848V167.536H92.1461C92.7582 167.553 93.1469 168.078 93.1299 168.652C93.1123 169.149 92.7003 169.674 92.1507 169.674H65.2643V172.635H91.7024L92.2645 172.628C92.7582 172.628 93.1865 173.243 93.1865 173.741C93.1865 174.241 92.7497 174.783 92.2514 174.783H91.7021M75.1325 184.936L75.1292 187.946C75.1292 187.946 79.1035 187.958 81.3703 187.946C86.9581 187.901 90.6192 184.936 90.6192 184.936H75.1325ZM75.1325 179.874L75.1292 182.819H93.0812C93.9084 181.975 94.9714 180.442 95.2555 179.881L75.1325 179.874ZM352.479 171.66C352.274 171.673 352.077 171.684 351.889 171.693C351.701 171.684 351.505 171.682 351.301 171.661C350.187 171.561 349.307 171.163 348.502 170.545C348.262 170.344 348.038 170.126 347.831 169.891C346.659 168.571 346.028 166.321 345.878 164.549C345.535 160.405 346.357 154.35 351.446 153.945C351.576 153.933 351.701 153.933 351.833 153.933C351.846 153.933 351.868 153.926 351.889 153.926C351.911 153.926 351.927 153.933 351.95 153.933C352.072 153.933 352.203 153.933 352.326 153.945C357.42 154.35 358.249 160.405 357.908 164.549C357.758 166.321 357.186 168.525 355.951 169.891C355.741 170.123 355.518 170.341 355.281 170.545C354.47 171.163 353.52 171.58 352.479 171.66H352.479ZM364.658 161.69C364.654 161.634 364.648 161.588 364.641 161.525C364.539 159.244 363.782 157.198 362.712 155.614C360.486 152.126 356.584 150.243 351.889 150.305C347.198 150.243 343.293 152.126 341.064 155.615C339.997 157.198 339.238 159.244 339.134 161.525C339.129 161.588 339.121 161.634 339.117 161.69C338.481 169.347 342.943 174.644 350.552 175.257C350.997 175.294 351.443 175.31 351.889 175.307C352.326 175.311 352.774 175.294 353.229 175.257C360.836 174.644 365.3 169.347 364.658 161.69ZM314.064 155.992C314.064 154.098 314.247 150.767 314.247 150.767H308C308 150.767 308.19 154.098 308.19 155.992L308.176 169.641C308.176 171.539 308 174.759 308 174.759H314.247C314.247 174.759 314.079 171.539 314.079 169.641L314.064 155.992ZM277.628 171.049C276.319 171.049 274.612 171.049 273.288 171.056C273.231 168.771 273.201 166.486 273.196 164.201L273.183 163.871H273.19V163.814H280.395V160.42H273.201C273.218 156.766 273.288 154.365 273.288 154.365L282.228 154.363V150.763C275.984 150.785 266.95 150.763 266.95 150.763C266.95 150.763 267.083 154.075 267.083 155.97V169.593C267.083 171.326 266.976 174.272 266.955 174.754H282.817L282.834 170.949C282.834 170.949 279.71 171.049 277.628 171.049ZM173.622 171.049C172.32 171.049 170.601 171.049 169.279 171.056C169.226 168.771 169.194 166.486 169.184 164.201L169.179 163.871H169.184V163.814H176.388V160.42H169.194C169.214 156.766 169.279 154.365 169.279 154.365L178.225 154.363V150.763C171.976 150.785 162.948 150.763 162.948 150.763C162.948 150.763 163.081 154.075 163.081 155.97V169.593C163.081 171.326 162.972 174.272 162.953 174.754H178.816L178.829 170.949C178.829 170.949 175.705 171.049 173.622 171.049M298.043 161.853L304.926 150.767H300.156L300.121 150.873C298.675 153.365 296.877 156.387 296.16 157.496L295.884 157.94L291.89 150.767H284.721L291.635 163.183L284.432 174.759H289.176C292.241 169.508 293.831 167.097 293.831 167.097L298.105 174.759H305.249L298.043 161.853M333.527 171.5C327.974 171.5 324.982 167.419 325.133 162.394C325.267 158.02 327.263 154.3 332.031 153.982C333.86 153.86 335.347 154.174 337.91 154.861L337.649 151.112C337.649 151.112 335.477 150.418 332.368 150.3C328.413 150.15 324.832 150.91 321.978 153.545C319.436 155.88 317.921 159.335 317.921 162.688C317.921 166.399 319.447 169.817 322.31 172.186C325.289 174.702 328.487 175.274 332.29 175.274C334.781 175.274 336.246 175.107 338.666 174.448L338.312 170.77C337.788 170.943 336.038 171.5 333.527 171.5ZM253.39 147.165H260.341L260.536 148.77C262.087 164.797 263.041 174.77 263.041 174.77H255.804L255.088 164.838L254.423 155.963L248.291 174.754C246.674 174.759 244.419 174.754 244.419 174.754C244.419 174.754 242.477 168.078 242.124 167.149L238.612 155.876C238.612 155.876 238.069 162.151 237.865 164.832C237.602 168.145 237.336 171.458 237.065 174.77H231.664C231.664 174.77 233.875 152.324 234.042 150.959C234.211 149.555 234.475 147.165 234.475 147.165H241.573L247.452 163.325L253.39 147.165ZM216.621 171.645C216.429 171.664 216.236 171.674 216.042 171.673C215.848 171.671 215.657 171.671 215.452 171.645C214.338 171.543 213.467 171.151 212.662 170.534C212.431 170.354 212.214 170.128 211.992 169.889C210.829 168.576 210.197 166.334 210.048 164.56C209.705 160.442 210.534 154.415 215.598 154.013C215.727 154.008 215.852 153.997 215.98 153.997C215.998 153.997 216.019 153.988 216.042 153.997C216.055 153.988 216.08 153.997 216.094 153.997C216.219 153.997 216.348 154.008 216.477 154.013C221.539 154.415 222.371 160.442 222.022 164.56C221.877 166.334 221.304 168.525 220.077 169.889C219.855 170.128 219.634 170.354 219.409 170.534C218.608 171.151 217.664 171.565 216.621 171.645ZM228.755 161.725C228.748 161.668 228.736 161.612 228.733 161.566C228.635 159.279 227.881 157.248 226.81 155.67C224.599 152.194 220.713 150.324 216.042 150.387C211.359 150.324 207.475 152.194 205.26 155.67C204.201 157.248 203.442 159.279 203.341 161.566C203.339 161.612 203.326 161.668 203.326 161.725C202.685 169.347 207.132 174.622 214.706 175.233C215.151 175.262 215.596 175.275 216.042 175.274C216.474 175.274 216.918 175.263 217.372 175.233C224.941 174.622 229.391 169.348 228.755 161.725M143.761 163.012L146.765 154.075L146.943 153.549L150.088 163.012H143.761ZM161.445 174.754C161.233 174.261 159.948 171.219 159.006 168.765L150.894 147.165H144.578C144.578 147.165 142.783 152.23 142.524 153.065L136.601 169.811C135.831 171.952 134.751 174.759 134.751 174.759H139.905C139.905 174.759 141.363 170.104 141.664 169.262L142.458 166.939H151.391L152.604 170.48C152.862 171.143 153.916 174.702 153.937 174.754H161.445ZM192.621 161.366C191.691 161.847 189.59 161.714 188.552 161.653L188.631 154.792L189.211 154.755C191.123 154.602 192.518 154.861 193.09 155.12C193.949 155.497 194.45 156.3 194.496 157.658C194.569 159.679 193.8 160.76 192.621 161.366ZM203.643 174.759C202.151 172.615 201.6 171.73 200.452 170.162L196.151 163.479C198.221 162.457 200.165 160.744 200.461 157.159C200.643 154.917 199.446 153.061 198.733 152.43C197.697 151.508 196.691 151.135 195.258 150.959C194.106 150.811 193.277 150.802 192.586 150.761H182.456C182.456 150.761 182.575 154.075 182.575 155.973V169.539C182.575 171.443 182.456 174.754 182.456 174.754H188.688C188.688 174.754 188.505 171.443 188.505 169.539L188.552 165.188C188.552 165.188 189.909 165.188 190.863 165.199L194.805 172.424C195.334 173.343 196.101 174.496 196.282 174.759H203.642" fill="#0C2F59"/>
<path d="M414.475 138.074L414.213 137.955L414.278 137.812L414.987 138.132L414.919 138.275L414.657 138.157L414.313 138.927L414.129 138.846L414.475 138.074ZM415.123 138.189L415.415 138.329L415.294 139.116L415.296 139.119L415.844 138.54L416.133 138.682L415.693 139.584L415.521 139.498L415.884 138.755H415.882L415.276 139.379L415.104 139.292L415.224 138.432L415.22 138.432L414.857 139.174L414.685 139.089L415.123 138.189M417.262 145.99L417.242 146.014C420.672 149.461 422.93 154.111 423.295 159.342C424.102 170.9 415.39 180.925 403.832 181.733C398.402 182.113 393.308 180.389 389.352 177.254L389.331 177.277C393.434 181.105 399.057 183.288 405.1 182.867C416.659 182.058 425.372 172.031 424.564 160.475C424.152 154.633 421.391 149.518 417.262 145.99M380.079 169.844C379.414 170.215 379.261 170.776 379.606 171.64C379.921 172.427 380.416 172.768 380.944 172.558C381.368 172.39 381.44 172.024 381.264 171.077L381.186 170.71C381.015 169.777 380.985 169.376 381.098 168.975C381.205 168.527 381.465 168.231 381.858 168.074C382.808 167.695 383.705 168.278 384.239 169.617C384.814 171.06 384.506 172.145 383.383 172.614L383.101 171.91C383.882 171.569 384.079 170.836 383.662 169.79C383.32 168.933 382.776 168.555 382.202 168.784C381.742 168.969 381.631 169.398 381.802 170.369L381.868 170.774L381.931 171.133C382.055 171.856 382.068 172.109 381.999 172.417C381.906 172.798 381.662 173.079 381.267 173.237C380.378 173.594 379.523 173.07 379.041 171.866C378.52 170.564 378.799 169.594 379.8 169.147L380.079 169.844M379.486 162.27L382.67 159.589L382.69 160.578L379.993 162.812L380.868 163.776L382.759 163.734L382.777 164.512L377.367 164.632L377.351 163.854L379.48 163.806L379.771 163.809L380.048 163.802L379.865 163.611L379.68 163.418L377.286 160.834L377.261 159.808L379.486 162.27ZM381.881 153.893L383.967 154.624L383.709 155.359L381.625 154.624L377.885 155.753L378.2 154.859L380.521 154.211L380.807 154.131C380.922 154.095 380.997 154.084 381.201 154.041C381.052 153.872 380.914 153.693 380.787 153.507L379.354 151.571L379.652 150.719L381.881 153.893ZM385.543 143.962L384.4 145.36L387.813 148.153L386.992 149.157L383.578 146.361L382.439 147.753L381.666 147.118L384.769 143.331L385.543 143.962ZM392.843 138.835L390.113 140.431L390.695 141.426L393.202 139.962L393.67 140.761L391.162 142.226L391.837 143.376L394.62 141.748L395.123 142.611L391.222 144.893L388.487 140.223L392.339 137.972L392.843 138.835ZM400.222 138.147C399.927 137.651 399.809 137.432 399.64 137.047C399.589 137.432 399.538 137.719 399.409 138.277L399.184 139.308L400.755 139.057L400.222 138.147ZM403.315 140.936L401.899 141.027L401.201 139.857L399.019 140.205L398.714 141.538L397.366 141.885L398.79 135.972L400.122 135.761L403.316 140.936M412.006 142.667L410.866 142.233L411.3 140.626C411.367 140.366 411.438 140.108 411.514 139.851C411.584 139.583 411.66 139.318 411.74 139.053C411.809 138.835 411.877 138.609 411.949 138.376L412.079 137.991C411.846 138.393 411.599 138.788 411.339 139.174C411.216 139.368 411.1 139.531 411.007 139.666L409.472 141.817L408.487 141.558L408.178 138.972C408.155 138.842 408.142 138.653 408.125 138.397C408.107 138.055 408.087 137.799 408.08 137.619C408.074 137.401 408.073 137.183 408.077 136.965L407.943 137.618C407.783 138.33 407.713 138.64 407.495 139.489L407.046 141.232L405.848 141.044L407.204 135.753L409.022 136.104L409.28 138.608C409.347 139.196 409.356 139.686 409.332 140.383C409.536 139.986 409.609 139.852 409.845 139.487C410.002 139.241 410.139 139.036 410.261 138.848L411.685 136.803L413.412 137.389L412.006 142.667Z" fill="#1B458F"/>
<path d="M411.88 160.119C413.439 159.068 414.74 158.505 415.546 158.533C416.024 158.551 416.595 158.694 416.595 159.285C416.595 159.89 416.018 160.399 414.888 160.802C413.898 161.157 412.377 161.247 410.717 161.059C411.173 160.646 411.555 160.337 411.88 160.119V160.119ZM389.932 162.042C388.96 161.975 388.487 161.582 388.487 160.839C388.487 160.74 388.553 158.374 393.975 158.101C394.594 158.069 395.287 158.05 396.339 158.169C396.295 158.172 395.724 158.694 395.724 158.694L395.386 159.001C394.076 160.187 391.887 162.174 389.932 162.042H389.932ZM401.665 153.087C401.007 153.663 399.709 154.911 398.453 156.116L397.031 157.479C395.879 157.27 394.711 157.166 393.54 157.169C390.902 157.169 388.489 157.894 387.391 159.016C386.97 159.447 386.762 159.913 386.772 160.406C386.799 161.679 388.259 162.322 388.705 162.488C391.044 163.362 393.009 163.109 395.072 161.666C396.211 160.868 397.585 159.586 398.653 158.561C399.485 158.754 400.432 158.998 401.445 159.296L402.384 159.572C401.168 160.762 399.922 162.025 398.766 163.043L398.679 163.123C397.07 164.539 395.907 165.564 394.231 165.936C393.049 166.199 392.209 165.952 391.935 165.78C391.91 165.785 391.87 165.833 391.87 165.833C392.843 166.632 393.763 167.087 395.344 166.951C396.852 166.82 398.59 165.869 400.374 164.205L402.778 161.844L404.46 160.172C404.46 160.183 407.863 161.171 407.863 161.171L407.925 161.189C407.89 161.189 405.82 163.239 405.82 163.239L404.011 165.038C402.155 166.838 401.149 167.773 400.069 168.539C398.274 169.809 396.745 170.47 395.391 170.561C394.695 170.605 393.686 170.557 392.843 170.065C392.805 170.057 392.754 170.103 392.754 170.103C393.67 170.887 394.792 171.823 396.72 171.768C398.904 171.709 400.835 170.658 403.846 167.891C405.219 166.633 406.582 165.224 407.786 163.979L410.02 161.713C411.493 162.042 412.809 162.173 414.265 162.144C416.385 162.103 418.194 161.087 418.218 159.928C418.235 159.071 417.532 158.613 417.112 158.341C416.762 158.113 415.814 157.587 414.505 157.587C412.916 157.587 411.259 158.289 409.577 159.671L408.458 160.658C408.469 160.65 408.047 160.545 408.047 160.545L404.934 159.674C405.851 158.815 406.633 158.079 407.34 157.453C409.042 155.939 410.927 155.317 412.027 155.245C412.828 155.193 414.23 155.262 414.806 155.67C414.833 155.666 414.87 155.608 414.87 155.608C413.338 154.294 412.012 154.122 410.917 154.122C409.842 154.122 408.111 154.467 405.995 156.106C405.131 156.775 404.011 157.894 402.835 159.076C402.835 159.068 401.261 158.592 401.261 158.592L400.881 158.471C400.881 158.471 399.228 157.97 399.226 157.97C399.262 157.97 400.17 157.081 400.17 157.081C401.284 155.988 402.339 154.954 403.16 154.262C406.147 151.749 408.026 151.421 409.334 151.417C410.768 151.411 411.904 151.705 412.716 152.292C412.741 152.289 412.777 152.235 412.777 152.235C411.1 150.719 409.895 150.234 407.812 150.217C405.984 150.204 403.8 151.222 401.665 153.088" fill="#1B458F"/>
<path d="M232.316 187.165C232.316 187.165 243.233 178.245 270.792 178.245C291.56 178.245 304.008 184.88 328.294 184.88C350.139 184.88 364.719 177.373 364.719 177.373C364.719 177.373 351.914 187.365 326.22 187.365C300.525 187.365 292.332 180.641 266.951 180.641C241.569 180.641 232.316 187.165 232.316 187.165Z" fill="#E41D25"/>
</svg>
