<svg width="480" height="320" viewBox="0 0 480 320" fill="none" xmlns="http://www.w3.org/2000/svg">
<path d="M170.72 133.324V137.69H156.672V145.986H167.977V150.419H156.672V160.153H170.72V164.515H148.32V133.324H170.72ZM192.68 164.515L186.628 151.92H184.451V164.515H176.336V133.324H188.817C194.488 133.324 200.358 135.069 200.288 141.742C200.288 146.049 198.111 148.859 194.24 150.478L201.919 164.512H192.68V164.515ZM186.817 136.818H184.451V148.482H186.817C190.565 148.482 192.188 145.868 192.188 142.367C192.188 138.814 190.432 136.818 186.817 136.818ZM220.374 165.329C210.019 165.329 203.468 159.469 203.527 148.984C203.527 138.629 210.27 132.577 220.374 132.577C230.548 132.577 237.28 138.566 237.28 148.922C237.28 159.277 230.548 165.329 220.374 165.329ZM220.374 136.692C213.331 136.692 212.392 143.435 212.392 148.984C212.392 154.722 213.146 161.088 220.374 161.088C227.494 161.088 228.485 154.6 228.485 148.922C228.485 143.369 227.306 136.692 220.374 136.692ZM253.302 152.352H250.308V164.519H242.256V133.32H254.803C263.04 133.32 265.976 137.191 265.976 142.245C265.979 149.857 260.046 152.352 253.302 152.352ZM252.748 136.755H250.249V148.482H252.748C256.297 148.482 257.924 145.55 257.924 142.308C257.924 138.755 256.434 136.755 252.748 136.755ZM292.801 133.324V137.69H278.767V145.986H290.061V150.419H278.767V160.153H292.801V164.515H270.401V133.324H292.801ZM306.838 133.324V160.153H319.814V164.515H298.416V133.324H306.838ZM324.055 133.324H332.417V164.515H324.055V133.324ZM364.543 164.079C361.176 164.892 357.804 165.266 354.247 165.266C343.77 165.266 337.345 159.65 337.345 148.981C337.345 138.315 343.826 132.574 354.318 132.511C357.678 132.511 361.294 132.699 364.547 133.572V137.631C361.804 136.94 358.924 136.755 356.118 136.755C349.201 136.755 346.203 142.496 346.203 148.74C346.203 156.471 348.82 160.962 356.998 160.962C359.49 160.962 362.111 160.652 364.547 160.031V164.149V164.079H364.543ZM386.684 164.515L384.193 157.28H372.965L370.532 164.515H365.852L377.072 133.324H384.562L395.354 164.515H386.684ZM378.581 140.873L374.211 153.602H382.951L378.581 140.873ZM403.971 164.515H399.409V133.324H405.838L420.123 153.48V133.324H424.615V164.515H418.182L403.971 144.371V164.515Z" fill="#201B52"/>
<path d="M144.846 152.589C144.846 152.589 138.668 158.474 136.82 157.728C134.956 156.977 136.668 151.739 136.668 151.439C136.668 151.143 132.89 160.042 136.52 160.09C140.165 160.142 144.764 152.755 144.846 152.589ZM103.118 150.814C101.255 152.548 111.418 141.265 121.104 141.513C124.549 141.801 124.83 144.559 124.686 145.417L113.666 146.064C113.666 146.064 104.97 149.077 103.118 150.814Z" fill="#96895D"/>
<path d="M102.974 150.911C102.974 150.911 113.318 142.496 121.876 143.653C121.876 143.653 124.808 144.152 124.738 145.583C124.656 147.084 122.808 147.668 120.952 147.591C119.103 147.513 114.944 147.202 112.234 147.591C110.342 147.864 107.757 147.975 102.974 150.911Z" fill="#201B52"/>
<path d="M132.276 123.365C133.034 123.435 135.037 124.148 134.664 125.949C134.268 127.904 127.074 150.252 126.216 153.794C125.921 155.007 122.915 168.046 133.289 164.408L133.924 160.77L139.703 122.089C139.706 122.089 131.525 123.302 132.276 123.365Z" fill="#96895D"/>
<path d="M119.58 126.825C134.246 116.226 140.036 119.342 140.036 119.342C141.792 116.865 143.407 116.462 144.069 116.436C144.224 116.429 144.158 116.477 144.147 116.503C143.418 117.608 142.08 119.483 142.993 121.157C144.317 123.62 145.052 123.516 143.825 128.285C142.598 133.047 136.464 153.047 136.076 154.36C135.677 155.668 132.631 166.515 144.853 152.585C144.853 152.585 140.731 161.89 133.455 164.312C126.187 166.733 127.359 158.027 128.146 155.014C128.93 151.997 136.464 127.368 136.535 126.84C136.601 126.315 137.669 121.864 131.947 123.631C121.991 126.71 98.7333 143.025 60.3442 196.871C60.3442 196.871 58.2407 199.655 59.0318 203.773C59.0392 203.832 59.017 203.951 58.932 203.925C58.725 203.851 58.2998 203.673 58.0706 203.366C57.8747 203.111 57.5678 202.013 57.4754 201.755C56.2665 198.161 58.0447 196.146 58.5771 195.355C58.7619 195.082 61.7232 190.734 61.7232 190.734C88.9696 153.158 107.347 135.661 119.58 126.825Z" fill="#201B52"/>
<path d="M57.7678 202.146C57.9009 202.546 58.2225 203.551 58.4702 203.695C58.7142 203.851 52.1559 200.609 57.4647 193.167C62.7883 185.725 113.447 113.771 138.86 117.272C138.86 117.272 141.859 115.309 144.11 116.403C144.162 116.429 144.225 116.47 144.14 116.455C143.655 116.466 142.25 116.422 140.036 119.535C140.036 119.535 121.899 109.083 61.7236 190.926C61.7236 190.926 59.1727 194.664 58.5738 195.547C58.0451 196.335 56.5552 198.553 57.7678 202.146Z" fill="#96895D"/>
<path d="M119.392 136.836C119.484 136.877 119.547 136.87 119.569 136.829C119.61 136.751 119.577 136.725 119.477 136.655C119.318 136.54 118.327 135.986 117.163 136.474C115.114 137.335 115.126 138.799 115.322 139.187C115.529 139.576 115.835 140.038 117.425 139.945C119.018 139.849 119.677 138.932 119.677 138.666C119.677 138.4 118.859 138.474 118.859 138.474C118.859 138.474 117.78 139.59 116.512 139.014C115.222 138.422 117.765 136.171 119.392 136.836Z" fill="#201B52"/>
<path d="M119.777 138.056C119.939 138.496 119.592 139.051 118.978 139.287C118.372 139.52 117.736 139.354 117.57 138.907C117.396 138.459 117.751 137.912 118.364 137.675C118.971 137.446 119.603 137.613 119.777 138.056Z" fill="#201B52"/>
</svg>
