<svg width="480" height="320" viewBox="0 0 480 320" fill="none" xmlns="http://www.w3.org/2000/svg">
<path fill-rule="evenodd" clip-rule="evenodd" d="M239.995 91.1738C246.29 91.1738 252.38 92.051 258.149 93.693L253.123 111.682C248.854 110.459 244.435 109.841 239.995 109.845C213.739 109.845 192.446 131.138 192.446 157.394C192.446 179.337 207.321 197.81 227.534 203.287L222.509 221.273C194.426 213.6 173.775 187.906 173.775 157.394C173.775 120.828 203.429 91.1743 239.995 91.1743V91.1738Z" fill="#EC4711"/>
<path fill-rule="evenodd" clip-rule="evenodd" d="M240.797 155.806L234.25 179.244L233.967 179.371L226.296 162.337L240.797 155.806Z" fill="#EC4711"/>
<path fill-rule="evenodd" clip-rule="evenodd" d="M299.913 129.178C302.605 134.884 304.464 140.947 305.43 147.182L305.428 147.183C311.646 187.314 280.666 223.613 239.995 223.613C238.146 223.613 236.317 223.533 234.506 223.384L239.66 204.937C266.588 205.287 288.718 182.58 287.494 155.261L248.649 172.758L255.196 149.32L299.913 129.178H299.913Z" fill="#EC4711"/>
<path fill-rule="evenodd" clip-rule="evenodd" d="M262.96 70.5905L277.124 53.3339V75.7048L262.96 70.5905Z" fill="#EC4711"/>
<path fill-rule="evenodd" clip-rule="evenodd" d="M266.014 110.591L269.569 97.8632C273.224 99.6873 276.703 101.845 279.96 104.31L266.014 110.591Z" fill="#EC4711"/>
<path fill-rule="evenodd" clip-rule="evenodd" d="M194.408 248.6V246.412C194.408 243.696 199.294 240.818 204.756 240.818C210.217 240.818 214.856 243.802 214.856 246.412V258.189C214.856 259.743 216.491 258.229 216.491 260.424V262.961C216.491 265.776 209.497 265.8 209.497 262.088C195.047 273.993 182.258 252.03 206.544 249.679C212.786 248.906 203.591 241.896 198.985 248.6C198.092 249.899 194.408 250.859 194.408 248.6V248.6ZM208.572 253.235C208.572 259.815 201.172 262.212 200.525 259.166C199.323 253.511 207.018 257.224 208.572 253.235Z" stroke="black" stroke-width="3.56099" stroke-linejoin="round"/>
<path fill-rule="evenodd" clip-rule="evenodd" d="M231.212 240.705C239.185 240.705 243.363 247.904 241.749 252.661C241.154 254.415 238.927 255.312 236.241 255.312H226.518C226.518 258.397 228.781 260.49 231.205 260.49C234.144 260.49 236.104 260.163 237.262 257.489C237.958 255.883 241.128 256.033 241.105 257.489L241.08 259.072C241.072 261.854 236.583 265.456 231.245 265.456C225.223 265.456 220.363 260.684 220.239 254.146V251.163C220.239 244.853 224.721 240.705 231.212 240.705V240.705ZM231.205 245.437C233.775 245.437 235.753 247.609 235.571 250.55H226.518C226.518 247.289 228.633 245.437 231.205 245.437Z" stroke="black" stroke-width="3.56099"/>
<path fill-rule="evenodd" clip-rule="evenodd" d="M246.437 242.669C246.437 240.253 252.753 240.238 252.753 242.669C252.753 240.238 263.581 238.909 263.581 244.768C263.581 245.594 263.106 247.135 260.843 246.894C257.846 246.573 253.455 246.333 253.455 248.358L253.452 263.138C253.455 265.763 246.436 265.763 246.436 263.138V242.669H246.437Z" stroke="black" stroke-width="3.56099" stroke-linejoin="round"/>
<path fill-rule="evenodd" clip-rule="evenodd" d="M276.774 240.547C283.503 240.547 288.96 246.236 288.96 253.25C288.96 260.265 283.503 265.955 276.774 265.955C270.045 265.955 264.588 260.265 264.588 253.25C264.588 246.236 270.045 240.547 276.774 240.547V240.547ZM276.774 246.236C279.347 246.236 281.433 249.377 281.433 253.25C281.433 257.124 279.347 260.265 276.774 260.265C274.201 260.265 272.115 257.124 272.115 253.25C272.115 249.377 274.201 246.236 276.774 246.236Z" stroke="black" stroke-width="3.56099"/>
</svg>
