<svg width="480" height="320" viewBox="0 0 480 320" fill="none" xmlns="http://www.w3.org/2000/svg">
<path fill-rule="evenodd" clip-rule="evenodd" d="M424.615 213.635H55.3846V106.365H424.615V213.635Z" fill="#2A166B"/>
<path fill-rule="evenodd" clip-rule="evenodd" d="M97.6025 177.837L96.6277 169.134H96.4697L91.6519 177.836H97.6025V177.837ZM109.188 190.353H97.9237L97.3462 184.351H88.9588L85.742 190.353H75.0373L91.0302 162.54H105.449L109.188 190.353ZM132.663 179.664C131.948 182.869 130.354 185.478 127.88 187.491C125.12 189.715 121.65 190.829 117.47 190.829C116.111 190.829 114.844 190.75 113.668 190.591C112.492 190.432 111.217 190.087 109.845 189.556L111.068 184.074C112.592 185.001 114.273 185.465 116.111 185.465C117.522 185.465 118.77 185.119 119.856 184.433C120.942 183.744 121.697 182.803 122.122 181.61H114.574L115.408 177.876H122.957C122.898 176.709 122.465 175.843 121.661 175.273C120.856 174.704 119.734 174.42 118.296 174.42C117.445 174.42 116.58 174.531 115.705 174.756C114.803 174.992 113.928 175.318 113.091 175.729L114.298 170.327C115.353 170.002 116.425 169.736 117.51 169.532C119.179 169.215 120.826 169.054 122.449 169.054C126.549 169.054 129.492 170.127 131.277 172.272C132.87 174.207 133.331 176.67 132.663 179.664ZM150.114 180.219C150.368 179.08 150.442 178.154 150.335 177.439C150.179 176.352 149.593 175.809 148.581 175.809C147.57 175.809 146.746 176.339 146.111 177.4C145.69 178.087 145.348 179.028 145.08 180.219C144.826 181.359 144.753 182.287 144.86 183.002C145.017 184.087 145.602 184.631 146.613 184.631C147.625 184.631 148.449 184.1 149.084 183.041C149.505 182.352 149.848 181.412 150.114 180.219ZM160.881 180.3C160.083 183.875 158.505 186.591 156.147 188.444C154.14 190.034 151.888 190.829 149.384 190.829C146.588 190.829 144.69 189.782 143.694 187.689L141.158 199.052H131.092L137.68 169.532H147.028L146.238 173.068H146.397C148.327 170.393 150.835 169.054 153.924 169.054C156.453 169.054 158.379 169.796 159.698 171.28C161.397 173.215 161.79 176.22 160.881 180.3ZM177.737 179.941C178.079 178.407 178.228 177.32 178.184 176.683C178.112 175.571 177.598 175.016 176.639 175.016C175.68 175.016 174.921 175.558 174.358 176.645C174.03 177.28 173.691 178.378 173.342 179.941C172.999 181.478 172.85 182.564 172.895 183.198C172.966 184.312 173.481 184.868 174.439 184.868C175.399 184.868 176.159 184.325 176.721 183.239C177.049 182.604 177.387 181.504 177.737 179.941ZM188.52 179.941C187.77 183.306 186.012 185.96 183.248 187.908C180.483 189.854 177.104 190.829 173.109 190.829C169.116 190.829 166.169 189.861 164.27 187.926C162.372 185.994 161.801 183.332 162.558 179.941C163.309 176.578 165.067 173.921 167.832 171.975C170.596 170.028 173.975 169.054 177.969 169.054C181.964 169.054 184.909 170.021 186.809 171.956C188.707 173.889 189.277 176.55 188.52 179.941ZM207.447 182.688C207.624 181.891 207.492 181.231 207.051 180.702C206.527 180.064 205.707 179.747 204.588 179.747H201.674L200.361 185.628H203.477C204.487 185.628 205.354 185.356 206.074 184.814C206.794 184.27 207.252 183.563 207.448 182.688H207.447ZM218.373 182.767C217.847 185.125 216.679 187.019 214.868 188.45C212.505 190.331 209.192 191.271 204.933 191.271H188.675L194.884 163.457H219.766L218.215 170.412H204.035L203.176 174.265H209.686C213.281 174.265 215.813 175.151 217.28 176.926C218.535 178.463 218.9 180.41 218.373 182.767ZM236.991 181.138C237.245 179.998 237.319 179.073 237.212 178.356C237.055 177.272 236.471 176.728 235.459 176.728C234.447 176.728 233.623 177.259 232.987 178.318C232.567 179.005 232.224 179.947 231.957 181.138C231.704 182.279 231.63 183.203 231.736 183.919C231.893 185.007 232.478 185.549 233.49 185.549C234.501 185.549 235.326 185.018 235.962 183.959C236.382 183.272 236.724 182.332 236.991 181.138ZM247.758 181.217C246.959 184.794 245.38 187.508 243.023 189.363C241.018 190.951 238.764 191.749 236.26 191.749C233.465 191.749 231.568 190.7 230.57 188.609L228.034 199.971H217.969L224.556 170.449H233.905L233.115 173.986H233.274C235.204 171.312 237.712 169.974 240.801 169.974C243.33 169.974 245.253 170.716 246.575 172.199C248.274 174.13 248.667 177.137 247.757 181.217H247.758ZM263.415 183.362L263.674 182.21H263.154C261.421 182.21 260.175 182.403 259.41 182.788C258.644 183.172 258.163 183.813 257.961 184.714C257.831 185.297 257.939 185.775 258.28 186.145C258.624 186.514 259.153 186.701 259.873 186.701C260.647 186.701 261.367 186.423 262.037 185.865C262.707 185.311 263.166 184.476 263.415 183.362ZM270.838 191.271H261.649L262.218 188.728H262.057C260.887 189.919 259.529 190.755 257.985 191.231C256.87 191.574 255.578 191.748 254.113 191.748C251.746 191.748 250.044 191.138 249.011 189.919C248.061 188.807 247.789 187.338 248.198 185.509C248.688 183.31 249.822 181.627 251.601 180.465C253.072 179.484 254.961 178.833 257.268 178.515C258.614 178.329 260.579 178.239 263.16 178.239H264.559L264.7 177.602C264.914 176.649 264.508 175.96 263.485 175.535C262.703 175.217 261.675 175.059 260.396 175.059C259.704 175.059 258.916 175.126 258.035 175.257C256.299 175.523 254.527 175.999 252.722 176.687L253.938 171.245C255.619 170.839 257.323 170.527 259.039 170.311C260.713 170.093 262.399 169.98 264.087 169.974C267.336 169.974 269.822 170.53 271.544 171.643C273.684 173.021 274.438 175.138 273.799 178.001L270.838 191.271ZM288.332 191.27H278.267L281.583 176.412H275.991L277.323 170.449H298.572L297.241 176.412H291.647L288.332 191.27ZM315.697 190.713C314.408 191.076 313.093 191.341 311.764 191.508C310.488 191.668 309.203 191.748 307.917 191.749C303.682 191.749 300.663 190.661 298.859 188.488C297.198 186.502 296.722 183.919 297.432 180.742C298.065 177.908 299.442 175.551 301.567 173.668C304.353 171.206 308.051 169.974 312.657 169.974C314.281 169.974 315.725 170.066 316.99 170.251C317.709 170.359 318.698 170.584 319.951 170.927L318.623 176.886C317.92 176.549 317.176 176.302 316.41 176.152C315.659 176.005 315.028 175.934 314.523 175.934C312.978 175.934 311.62 176.377 310.45 177.264C309.28 178.151 308.523 179.364 308.181 180.901C307.857 182.358 308.058 183.535 308.788 184.436C309.522 185.335 310.686 185.786 312.284 185.786C312.922 185.786 313.595 185.721 314.303 185.588C315.013 185.455 315.923 185.165 317.037 184.714L315.697 190.713ZM330.761 182.091H330.603L328.555 191.27H318.649L323.296 170.449H333.201L331.169 179.549H331.33L339.073 170.449H350.176L340.708 180.662L345.531 191.27H334.465L330.761 182.091Z" fill="white"/>
<path d="M108.194 162.458C113.414 159.847 114.502 154.193 112.436 149.735C111.566 148.32 99.0602 124.178 99.0602 124.178L131.468 124.287C131.468 124.287 117.765 125.7 125.269 131.246C126.356 132.226 143.177 146.798 146.33 149.19C156.916 159.63 190.193 162.241 190.193 162.241C190.193 162.241 111.892 162.458 108.194 162.458V162.458ZM402.405 177.899C399.506 167.749 357.102 162.938 232.824 163.109C317.433 163.98 447.066 174.129 349.405 191.385C387.904 188.92 401.826 184.859 402.405 177.899H402.405Z" fill="white"/>
</svg>
