<svg width="480" height="320" viewBox="0 0 480 320" fill="none" xmlns="http://www.w3.org/2000/svg">
<path d="M109.011 124.287C108.525 123.524 107.902 122.887 107.164 122.417C106.444 121.972 105.668 121.66 104.831 121.504C104.047 121.347 103.271 121.277 102.506 121.277C101.73 121.277 100.912 121.368 100.054 121.546C99.1615 121.722 98.295 122.039 97.4447 122.461C96.5717 122.894 95.7699 123.492 95.0279 124.232C94.2697 124.989 93.5907 125.948 93.0104 127.1L70.2975 168.323C70.1536 168.62 70.0744 168.978 70.0744 169.362C70.0598 169.797 70.2247 170.281 70.5933 170.598C70.9683 170.901 71.4129 171.005 71.8704 171.005H76.5714C77.0515 171.005 77.509 170.84 77.9212 170.575C78.3335 170.307 78.6713 169.956 78.8395 169.511L86.654 153.509H105.532L107.387 169.306C107.463 169.718 107.606 170.083 107.821 170.383C108.133 170.822 108.654 171.005 109.136 171.005H113.801C114.349 171.005 114.909 170.847 115.298 170.452C115.694 170.038 115.83 169.492 115.83 168.931V168.598L110.002 127.268C109.834 126.085 109.516 125.091 109.011 124.287ZM89.8953 146.85L99.7095 129.152C100.08 128.445 101.021 128.322 101.582 128.347C102.787 128.408 102.918 129.152 102.918 129.152L104.991 146.85H89.8953ZM152.546 133.866C151.285 132.593 149.73 131.598 147.906 130.88C146.05 130.154 143.886 129.789 141.403 129.789C135.772 129.789 131.089 131.349 127.479 134.506C123.866 137.648 121.474 142.178 120.276 148.009L119.267 153.006C118.958 154.619 118.792 156.149 118.792 157.581C118.792 160.093 119.249 162.259 120.19 164.046C121.098 165.808 122.317 167.25 123.829 168.362C125.316 169.472 127.02 170.274 128.924 170.771C130.787 171.254 132.702 171.503 134.645 171.503H134.692C137.335 171.503 139.679 171.399 141.741 171.178C143.786 170.966 145.974 170.657 148.301 170.281C149.022 170.168 149.592 170.012 150.047 169.565C150.423 169.186 150.616 168.667 150.734 168.06L151.196 165.631L151.206 165.57V165.222C151.228 164.822 151.029 164.351 150.659 164.102C150.307 163.847 149.909 163.793 149.494 163.784H149.031C147.151 164.036 145.056 164.257 142.644 164.477C140.257 164.676 137.935 164.788 135.691 164.788C132.806 164.788 130.615 164.214 129.049 163.127C127.563 162.088 126.79 160.45 126.774 157.857C126.774 157.219 126.815 156.558 126.887 155.867C126.96 155.209 127.12 154.496 127.358 153.722L127.45 153.366H152.735C153.406 153.366 154.059 153.192 154.481 152.678C154.803 152.27 155.003 151.781 155.124 151.234L155.743 148.218C156.065 146.662 156.22 145.182 156.22 143.79C156.22 141.866 155.926 140.043 155.331 138.345C154.736 136.627 153.797 135.123 152.546 133.866ZM147.602 147.146H128.65C129 145.731 129.476 144.449 130.09 143.258C130.777 141.949 131.611 140.794 132.617 139.805C133.601 138.822 134.739 138.064 136.044 137.53C137.335 136.994 138.784 136.722 140.402 136.722C145.745 136.83 147.906 138.843 148.011 143.575C148.011 144.645 147.875 145.84 147.602 147.146ZM183.337 134.928L183.878 131.918L183.886 131.855V131.507C183.912 131.025 183.679 130.474 183.249 130.181C182.821 129.879 182.331 129.795 181.79 129.795H181.635C179.782 129.795 177.899 130.025 175.999 130.46C174.462 130.812 172.882 131.507 171.245 132.527V132.154C171.253 131.653 171.12 131.145 170.745 130.786C170.377 130.422 169.867 130.295 169.378 130.295H165.75C165.173 130.295 164.61 130.5 164.167 130.896C163.741 131.248 163.432 131.725 163.285 132.252L156.406 168.784V169.143C156.406 169.644 156.54 170.148 156.911 170.509C157.271 170.871 157.769 171.005 158.26 171.005H162.051C162.636 171.011 163.196 170.79 163.653 170.418C164.112 170.061 164.452 169.582 164.602 169.046L170.176 139.389C171.924 138.407 173.531 137.731 174.994 137.34C176.539 136.936 178.392 136.724 180.55 136.724H180.784C182.008 136.788 183.152 136.109 183.337 134.928ZM214.546 133.788C213.261 132.517 211.677 131.538 209.828 130.835C207.956 130.135 205.807 129.795 203.371 129.795C191.659 129.726 184.376 135.945 182.239 147.804L181.247 153.232C181.133 153.929 181.04 154.585 180.964 155.24C180.884 155.914 180.846 156.595 180.846 157.295C180.846 159.366 181.164 161.272 181.811 163.008C182.457 164.741 183.413 166.238 184.674 167.508C185.935 168.784 187.504 169.763 189.36 170.463C191.224 171.16 193.36 171.503 195.739 171.503C198.832 171.503 201.604 171.095 204.026 170.25C206.447 169.416 208.536 168.213 210.29 166.64C212.026 165.079 213.449 163.177 214.534 160.958C215.615 158.753 216.422 156.268 216.945 153.496L217.949 148.067C218.058 147.371 218.151 146.693 218.234 146.019C218.307 145.322 218.344 144.632 218.344 143.935C218.344 141.913 218.037 140.036 217.414 138.295C216.792 136.565 215.828 135.043 214.546 133.788ZM210.052 145.731C210.007 146.371 209.913 147.052 209.763 147.797L208.767 153.232C208.46 154.943 207.956 156.475 207.256 157.856C206.543 159.249 205.681 160.431 204.666 161.415C203.656 162.4 202.49 163.174 201.163 163.735C199.85 164.283 198.394 164.574 196.79 164.574C193.866 164.574 191.895 163.942 190.801 162.861C189.672 161.75 189.058 160.04 189.058 157.582C189.053 156.394 189.207 155.035 189.507 153.496L190.506 148.067C191.155 144.499 192.511 141.758 194.57 139.727C196.612 137.731 199.163 136.733 202.396 136.724C205.324 136.724 207.28 137.382 208.379 138.51C209.521 139.664 210.127 141.409 210.132 143.863C210.132 144.456 210.101 145.083 210.052 145.731ZM236.833 119.712C236.837 119.239 236.715 118.755 236.357 118.401C235.998 118.044 235.513 117.923 235.048 117.923H231.032C229.843 117.842 228.772 118.692 228.635 119.871L219.386 168.784V169.143C219.386 169.634 219.496 170.126 219.849 170.492C220.185 170.856 220.672 171.003 221.132 171.003H225.185C225.761 171.01 226.33 170.772 226.75 170.384C227.144 170.012 227.429 169.563 227.574 169.054L236.833 120.068V119.712ZM248.299 130.295H244.61C244.038 130.295 243.469 130.5 243.01 130.88C242.554 131.239 242.216 131.709 242.065 132.252L235.182 168.784V169.143C235.179 169.644 235.328 170.171 235.72 170.526C236.102 170.884 236.6 171.003 237.099 171.003H240.826C241.409 171.003 241.972 170.788 242.429 170.416C242.887 170.056 243.225 169.594 243.373 169.044L250.257 132.516V132.154C250.26 131.649 250.108 131.126 249.714 130.772C249.326 130.413 248.823 130.295 248.299 130.295ZM243.916 126.513H248.078C248.58 126.513 249.054 126.428 249.46 126.121C249.733 125.928 250.064 125.636 250.485 125.249L258.251 118.734C258.592 118.424 258.867 118.081 258.889 117.553C258.873 116.656 257.94 116.413 257.41 116.395H252.319C251.773 116.413 251.278 116.491 250.861 116.788C250.586 116.993 250.255 117.275 249.825 117.674L243.265 124.055C242.906 124.409 242.596 124.797 242.575 125.371C242.575 126.121 243.407 126.513 243.916 126.513ZM286.14 133.24C285.126 132.149 283.833 131.3 282.294 130.687C280.72 130.091 278.869 129.795 276.746 129.795C274.062 129.795 271.731 130.135 269.728 130.835C268.217 131.363 266.733 131.976 265.255 132.687L265.275 132.545L265.291 132.492V132.154C265.294 131.709 265.129 131.277 264.875 130.938C264.52 130.463 263.948 130.29 263.422 130.295H259.638C259.062 130.295 258.495 130.514 258.055 130.896C257.623 131.248 257.313 131.729 257.177 132.256L250.289 168.784V169.143C250.281 169.577 250.436 170.012 250.695 170.355C251.029 170.813 251.589 171.003 252.113 171.003H255.931C256.519 171.01 257.077 170.788 257.539 170.416C257.994 170.056 258.328 169.594 258.474 169.054L264.125 139.221C266.405 138.227 268.309 137.569 269.809 137.235C271.408 136.895 272.918 136.722 274.358 136.722C277.111 136.708 278.854 137.227 279.565 137.949C280.378 138.744 280.81 139.857 280.818 141.439C280.818 141.973 280.774 142.576 280.703 143.245C280.623 143.926 280.53 144.596 280.433 145.248L276.413 168.727V169.078C276.41 169.577 276.563 170.108 276.95 170.463C277.338 170.83 277.84 170.939 278.361 170.939H282.066C282.635 170.948 283.203 170.722 283.66 170.355C284.114 169.995 284.455 169.527 284.594 168.983L288.626 145.5C288.885 144.124 289.024 142.792 289.024 141.506C289.027 139.916 288.798 138.405 288.33 136.994C287.866 135.566 287.131 134.312 286.14 133.24ZM325.122 133.866C323.861 132.593 322.308 131.604 320.486 130.88C318.63 130.154 316.464 129.795 313.976 129.795C308.352 129.789 303.667 131.349 300.06 134.506C296.444 137.648 294.055 142.178 292.858 148.009L291.851 153.006C291.534 154.619 291.371 156.149 291.371 157.573C291.371 160.088 291.822 162.259 292.768 164.044C293.683 165.8 294.902 167.248 296.405 168.36C297.886 169.471 299.604 170.263 301.504 170.769C303.379 171.256 305.313 171.501 307.265 171.501C309.912 171.501 312.264 171.398 314.325 171.18C316.363 170.965 318.552 170.656 320.869 170.279C321.593 170.169 322.175 170.011 322.623 169.563C323.006 169.177 323.185 168.666 323.312 168.069L323.777 165.63L323.782 165.581V165.213C323.801 164.82 323.603 164.349 323.237 164.101C322.878 163.845 322.485 163.792 322.064 163.782H321.604C319.726 164.034 317.632 164.256 315.222 164.476C312.834 164.674 310.508 164.786 308.279 164.786C305.377 164.786 303.187 164.212 301.624 163.126C300.143 162.086 299.365 160.449 299.354 157.856C299.354 157.217 299.394 156.556 299.461 155.877C299.536 155.208 299.692 154.495 299.934 153.72L300.036 153.365H325.308C325.979 153.365 326.627 153.19 327.054 152.676C327.39 152.269 327.581 151.779 327.707 151.236L328.323 148.216C328.638 146.658 328.793 145.18 328.793 143.788C328.793 141.864 328.502 140.041 327.912 138.337C327.309 136.627 326.383 135.13 325.122 133.866ZM320.183 147.146H301.223C301.567 145.731 302.05 144.449 302.666 143.258C303.356 141.949 304.191 140.794 305.195 139.805C306.184 138.822 307.322 138.064 308.618 137.522C309.912 136.994 311.359 136.722 312.977 136.722C318.321 136.83 320.486 138.843 320.589 143.575C320.591 144.645 320.455 145.84 320.183 147.146ZM368.424 133.221C368.403 132.165 367.447 131.625 366.456 131.454C364.505 130.969 362.321 130.576 359.935 130.256C357.543 129.958 355.178 129.795 352.829 129.795C350.457 129.795 348.16 130.078 345.936 130.636C343.705 131.203 341.655 132.154 339.809 133.461C337.958 134.784 336.357 136.525 335.03 138.667C333.688 140.833 332.71 143.497 332.085 146.658L330.699 153.73C330.384 155.232 330.227 156.713 330.227 158.148C330.227 160.407 330.551 162.392 331.239 164.089C331.912 165.774 332.83 167.166 333.991 168.276C335.145 169.366 336.509 170.184 338.071 170.711C339.59 171.234 341.215 171.503 342.924 171.503H342.963C344.277 171.503 345.468 171.424 346.548 171.241C347.61 171.073 348.651 170.801 349.652 170.416C350.63 170.053 351.619 169.597 352.596 169.054C353.163 168.747 353.757 168.391 354.384 168.008L354.276 168.59L354.267 168.65V169.143C354.267 169.581 354.374 170.029 354.631 170.383C355.021 170.892 355.588 170.995 356.141 171.005H359.229C359.803 171.011 360.368 170.774 360.806 170.4C361.241 170.038 361.55 169.565 361.688 169.046L368.325 133.953C368.39 133.73 368.424 133.486 368.424 133.221ZM354.958 160.917C352.926 162.154 351.097 163.101 349.469 163.771C347.803 164.45 346.126 164.788 344.418 164.788C342.712 164.784 341.33 164.291 340.14 163.31C339.073 162.426 338.428 160.74 338.428 158.076C338.428 157.574 338.452 157.049 338.512 156.503C338.551 155.948 338.63 155.426 338.729 154.935L340.113 147.569C340.821 143.861 342.169 141.127 344.14 139.284C346.068 137.466 348.926 136.514 352.825 136.509C354.452 136.509 355.823 136.581 356.943 136.719C357.824 136.827 358.66 136.947 359.461 137.089L354.958 160.917ZM399.506 130.733C398.678 130.595 397.902 130.46 397.188 130.341C396.447 130.22 395.636 130.12 394.776 130.044C393.92 129.976 392.954 129.924 391.903 129.863C390.83 129.819 389.544 129.795 388.057 129.795C386.106 129.795 384.148 129.966 382.191 130.304C380.192 130.65 378.396 131.263 376.841 132.175C375.281 133.085 373.986 134.3 372.983 135.785C371.95 137.338 371.46 139.262 371.46 141.506C371.463 145.012 373.839 148.093 378.201 150.759L385.231 154.972C387.031 156.001 388.196 156.897 388.673 157.511C389.197 158.19 389.412 158.8 389.422 159.435C389.412 160.475 389.197 161.296 388.796 161.949C388.364 162.638 387.815 163.161 387.131 163.562C386.399 163.973 385.539 164.282 384.556 164.48C383.552 164.682 382.511 164.786 381.421 164.786C380.778 164.786 379.945 164.767 378.956 164.713C377.952 164.674 376.906 164.611 375.802 164.539C374.706 164.476 373.616 164.379 372.544 164.282C371.466 164.189 370.472 164.099 369.547 164.012H369.017C368 163.94 367.013 164.629 366.854 165.643L366.384 168.166L366.377 168.22V168.511C366.358 169.031 366.595 169.628 367.08 169.925C367.413 170.145 367.798 170.3 368.212 170.408C369.14 170.612 370.126 170.79 371.195 170.922C372.262 171.07 373.343 171.181 374.452 171.254C375.529 171.327 376.584 171.383 377.616 171.437C378.652 171.475 379.586 171.503 380.424 171.503H380.479C382.613 171.503 384.693 171.294 386.73 170.884C388.798 170.463 390.645 169.767 392.257 168.793C393.877 167.812 395.188 166.498 396.161 164.87C397.162 163.208 397.632 161.166 397.632 158.787C397.639 157.075 397.108 155.439 396.098 153.961C395.055 152.442 393.193 150.904 390.508 149.247L383.553 145.038C382.228 144.241 381.222 143.502 380.555 142.851C379.932 142.23 379.675 141.643 379.675 140.93C379.675 140.004 379.898 139.335 380.286 138.843C380.732 138.293 381.287 137.851 382.005 137.509C382.731 137.163 383.536 136.923 384.426 136.788C385.333 136.646 386.217 136.58 387.056 136.58C389.197 136.58 391.281 136.638 393.292 136.759C395.314 136.871 396.987 137 398.31 137.151H398.613C399.711 137.22 400.715 136.436 400.857 135.346L401.245 132.986L401.258 132.928V132.582C401.3 131.609 400.44 130.841 399.506 130.733Z" fill="#0081C6"/>
<path d="M163.668 185.674C161.916 185.287 159.806 184.916 157.329 184.565C154.846 184.195 152.436 184.018 150.116 184.018C147.208 184.018 144.6 184.327 142.303 184.959C140.009 185.588 137.982 186.611 136.236 188.028C134.502 189.445 133.052 191.278 131.909 193.534C130.758 195.789 129.88 198.534 129.257 201.812L128.257 207.021C127.935 208.752 127.78 210.382 127.78 211.867C127.78 214.151 128.147 216.135 128.889 217.795C129.634 219.465 130.659 220.836 131.965 221.905C133.262 222.96 134.827 223.739 136.639 224.252C138.448 224.756 140.396 225.016 142.483 225.016C143.06 225.016 143.747 224.976 144.547 224.898C145.354 224.834 146.173 224.756 147.03 224.651C147.879 224.557 148.681 224.446 149.432 224.333C149.951 224.253 150.417 224.174 150.829 224.108L150.761 224.446C150.454 226.053 150.072 227.377 149.626 228.439C149.187 229.498 148.576 230.325 147.804 230.957C147.03 231.577 146.067 232.034 144.904 232.301C143.735 232.593 142.303 232.729 140.628 232.729C139.612 232.729 138.49 232.69 137.295 232.618C136.092 232.547 134.881 232.477 133.672 232.407C132.471 232.335 131.361 232.256 130.336 232.162C129.309 232.055 128.469 231.971 127.811 231.882H127.524C127.06 231.882 126.632 231.974 126.283 232.228C125.919 232.456 125.682 232.839 125.564 233.289L125.159 235.376V235.45H125.169C125.061 235.605 125.098 235.697 125.082 235.797C125.098 236.57 125.751 237.049 126.66 237.288C127.717 237.587 129.398 237.872 131.721 238.15C134.054 238.449 136.687 238.593 139.628 238.593C142.416 238.593 144.857 238.369 146.946 237.936C149.038 237.506 150.852 236.732 152.362 235.631C153.878 234.519 155.119 233.017 156.096 231.151C157.066 229.27 157.805 226.937 158.323 224.153L165.265 187.701V187.665C165.265 187.599 165.273 187.552 165.273 187.552C165.315 187.413 165.349 187.286 165.343 187.163C165.349 186.353 164.63 185.85 163.668 185.674ZM152.038 218.28C151.485 218.403 150.866 218.5 150.186 218.584C149.387 218.684 148.597 218.767 147.804 218.843C147.011 218.909 146.253 218.946 145.509 218.975C144.764 219.004 144.112 219.017 143.559 219.017C140.662 219.017 138.564 218.49 137.259 217.519C135.973 216.571 135.287 214.813 135.284 212.161C135.284 211.466 135.315 210.679 135.392 209.832C135.468 208.991 135.615 208.104 135.809 207.163L136.82 201.937C137.635 197.797 139.039 194.785 140.994 192.882C142.948 190.989 145.651 190.026 149.187 190.019C150.816 190.019 152.363 190.098 153.844 190.26C155.165 190.41 156.298 190.574 157.247 190.737L152.038 218.28ZM282.747 176.75V176.429C282.747 175.515 282.094 174.932 281.161 174.932H277.225C276.731 174.92 276.258 175.103 275.85 175.438C275.437 175.753 275.162 176.157 275.037 176.627L274.641 179.731V180.053C274.641 180.971 275.304 181.561 276.234 181.561H280.175C280.671 181.561 281.129 181.366 281.541 181.055C281.947 180.734 282.231 180.333 282.36 179.859M128.486 190.236C129.647 190.263 130.522 189.728 130.685 188.732L131.228 185.724L131.241 185.693V185.38C131.234 184.482 130.473 184.025 129.498 184.025H129.343C127.513 184.018 125.659 184.243 123.782 184.665C122.088 185.071 120.313 185.897 118.441 187.156L118.594 186.372L118.596 186.354V186.021C118.596 185.124 117.979 184.526 117.08 184.526H113.455C112.966 184.518 112.495 184.701 112.114 185.045C111.735 185.355 111.456 185.763 111.346 186.217L104.47 222.693V223.022C104.47 223.909 105.085 224.509 105.985 224.509H109.776C110.266 224.509 110.725 224.333 111.136 224.014C111.548 223.683 111.834 223.279 111.957 222.823L117.558 193.034C119.377 192.001 121.066 191.278 122.608 190.865C124.194 190.446 126.071 190.234 128.268 190.234H128.486V190.236ZM258.235 190.525H266.259C266.764 190.525 267.231 190.339 267.614 190.003C267.994 189.681 268.262 189.28 268.38 188.825L268.851 186.371L268.854 186.353V186.02C268.851 185.11 268.201 184.524 267.27 184.524H259.369L260.449 178.535V178.283C260.449 177.505 259.935 176.92 259.164 176.92H258.935L254.799 177.497C253.736 177.633 252.965 178.252 252.803 179.216L251.862 184.523L246.736 184.659C246.267 184.655 245.814 184.794 245.447 185.082C245.076 185.368 244.822 185.755 244.699 186.202L244.309 188.152L244.305 188.188V188.433C244.279 189.256 244.958 189.806 245.85 189.864L250.748 190.473L246.088 215.021C245.997 215.597 245.918 216.088 245.869 216.499C245.819 216.927 245.79 217.383 245.79 217.874C245.78 220.424 246.72 222.348 248.6 223.427C250.418 224.489 252.659 225.015 255.312 225.015C256.041 225.015 256.849 224.978 257.73 224.897C258.611 224.839 259.442 224.755 260.215 224.65C260.828 224.549 261.266 224.405 261.57 224.123C261.828 223.883 262.014 223.552 262.135 223.172L262.603 220.587L262.609 220.56V220.243C262.627 219.843 262.47 219.407 262.056 219.282C261.81 219.185 261.513 219.153 261.172 219.153H256.471C255.265 219.153 254.397 219.037 253.913 218.825C253.542 218.678 253.285 218.237 253.285 217.236C253.285 216.748 253.357 216.065 253.513 215.228L258.235 190.525ZM359.117 187.1C359.108 186.296 358.395 185.85 357.444 185.674C355.49 185.192 353.32 184.791 350.939 184.481C348.571 184.174 346.215 184.018 343.878 184.018C341.542 184.018 339.267 184.303 337.09 184.853C334.896 185.407 332.883 186.33 331.066 187.627C329.259 188.918 327.697 190.616 326.391 192.727C325.077 194.84 324.11 197.47 323.483 200.588L322.102 207.661C321.79 209.155 321.63 210.611 321.634 212.014C321.634 214.237 321.957 216.179 322.62 217.823C323.286 219.467 324.173 220.82 325.281 221.882C326.401 222.941 327.725 223.73 329.236 224.244C330.735 224.756 332.327 225.018 334.018 225.018C335.313 225.018 336.485 224.929 337.542 224.758C338.588 224.591 339.602 224.329 340.567 223.95C341.542 223.596 342.512 223.149 343.472 222.608C344.241 222.196 345.058 221.699 345.931 221.135L345.683 222.538V223.023C345.679 223.411 345.784 223.768 345.979 224.034C346.248 224.407 346.691 224.511 347.201 224.517H350.286C350.784 224.517 351.246 224.334 351.631 224.001C352.012 223.673 352.282 223.279 352.392 222.824L359.038 187.733C359.088 187.589 359.117 187.362 359.117 187.1ZM346.333 215.005C344.251 216.29 342.352 217.284 340.669 217.976C338.958 218.668 337.23 219.021 335.484 219.021C333.703 219.011 332.217 218.494 330.966 217.456C329.783 216.476 329.135 214.657 329.135 211.945C329.135 211.436 329.157 210.886 329.204 210.336C329.257 209.771 329.333 209.237 329.432 208.731L330.821 201.374C331.532 197.617 332.917 194.795 334.956 192.884C336.977 190.994 339.933 190.021 343.878 190.021C345.52 190.021 346.899 190.097 348.036 190.233L348.089 189.869L348.04 190.233C349.056 190.355 350.022 190.501 350.939 190.664L346.333 215.005ZM391.948 186.447C391.982 185.651 391.357 185.074 390.503 184.956C389.671 184.815 388.903 184.676 388.187 184.565C387.451 184.439 386.654 184.339 385.8 184.272C384.95 184.195 384 184.14 382.936 184.094C381.883 184.044 380.605 184.025 379.101 184.025C377.187 184.018 375.256 184.191 373.304 184.526C371.347 184.864 369.599 185.475 368.083 186.358C366.558 187.234 365.304 188.414 364.337 189.861C363.351 191.33 362.869 193.196 362.869 195.372C362.873 198.695 365.126 201.681 369.444 204.321L376.476 208.545C378.282 209.581 379.47 210.474 380.01 211.156C380.569 211.893 380.833 212.575 380.833 213.303C380.833 214.405 380.597 215.283 380.159 216.006C379.693 216.741 379.093 217.313 378.35 217.729C377.595 218.17 376.704 218.492 375.682 218.697C374.648 218.911 373.579 219.019 372.478 219.019C371.824 219.019 370.994 218.995 369.994 218.948C368.991 218.893 367.94 218.844 366.844 218.768C365.754 218.699 364.664 218.613 363.576 218.51C362.575 218.427 361.576 218.332 360.577 218.227H360.074C359.158 218.196 358.422 218.715 358.259 219.583L357.798 222.09L357.792 222.124V222.369C357.775 222.823 357.965 223.259 358.335 223.499C358.632 223.683 358.975 223.822 359.369 223.932C360.271 224.131 361.24 224.302 362.295 224.435C363.356 224.583 364.439 224.696 365.525 224.768C366.605 224.835 367.654 224.895 368.686 224.949C369.727 224.989 370.653 225.018 371.486 225.018C373.613 225.018 375.692 224.81 377.716 224.407C379.763 223.995 381.559 223.309 383.128 222.359C384.711 221.399 385.969 220.123 386.908 218.561C387.87 216.969 388.339 214.994 388.339 212.656C388.339 211.02 387.842 209.459 386.864 208.036C385.873 206.576 384.048 205.05 381.384 203.43L374.426 199.214C373.084 198.409 372.061 197.659 371.36 196.974C370.685 196.308 370.383 195.613 370.38 194.811C370.38 193.818 370.618 193.058 371.069 192.497C371.55 191.894 372.158 191.421 372.91 191.057C373.671 190.698 374.51 190.43 375.437 190.297C376.368 190.165 377.258 190.095 378.117 190.095C380.264 190.095 382.357 190.145 384.371 190.262C386.402 190.391 388.073 190.524 389.405 190.663H389.68C390.655 190.698 391.415 190.108 391.565 189.154L391.952 186.796L391.604 186.733H391.956V186.447H391.948ZM316.86 187.353C315.893 186.308 314.652 185.488 313.142 184.899C311.625 184.303 309.816 184.018 307.726 184.018C305.073 184.018 302.784 184.356 300.843 185.045C299.126 185.638 297.446 186.354 295.783 187.171L295.911 186.361V186.02C295.912 185.656 295.794 185.31 295.563 185.016C295.303 184.66 294.865 184.516 294.404 184.524H290.615C290.118 184.516 289.651 184.699 289.273 185.034C288.888 185.36 288.623 185.763 288.5 186.214L281.618 222.69V223.007C281.618 223.372 281.753 223.715 281.971 224.011C282.218 224.359 282.64 224.506 283.107 224.506H286.913C287.414 224.512 287.889 224.329 288.295 224.001C288.697 223.691 288.984 223.275 289.116 222.82L294.79 192.837C297.162 191.793 299.139 191.104 300.713 190.756C302.336 190.406 303.877 190.233 305.338 190.233C308.127 190.229 309.96 190.722 310.79 191.561C311.688 192.436 312.139 193.655 312.147 195.307C312.147 195.853 312.112 196.481 312.033 197.16C311.963 197.842 311.866 198.511 311.768 199.171L307.291 222.69V223.007C307.291 223.917 307.952 224.506 308.884 224.506H312.589C313.082 224.512 313.546 224.329 313.963 224.011C314.37 223.691 314.663 223.275 314.77 222.82L319.262 199.302C319.517 197.945 319.647 196.629 319.647 195.367C319.647 193.813 319.422 192.352 318.971 190.976C318.531 189.599 317.825 188.38 316.86 187.353ZM238.352 187.347C237.386 186.306 236.146 185.488 234.633 184.896C233.127 184.303 231.317 184.018 229.232 184.018C226.58 184.018 224.278 184.356 222.324 185.045C220.626 185.638 218.947 186.354 217.283 187.171L217.403 186.367V186.02C217.413 185.65 217.283 185.31 217.065 185.021C216.805 184.66 216.37 184.511 215.893 184.524H212.117C211.622 184.524 211.155 184.699 210.762 185.034C210.39 185.354 210.115 185.755 209.996 186.22L203.129 222.692V223.02C203.129 223.374 203.251 223.728 203.47 224.013C203.732 224.36 204.16 224.507 204.621 224.507H208.416C208.913 224.507 209.386 224.331 209.797 224.013C210.204 223.681 210.481 223.274 210.612 222.821L216.288 192.838C218.664 191.784 220.643 191.099 222.212 190.758C223.84 190.407 225.376 190.234 226.845 190.234C229.632 190.231 231.449 190.724 232.293 191.563C233.191 192.438 233.646 193.656 233.653 195.309C233.653 195.858 233.614 196.482 233.536 197.161C233.464 197.843 233.373 198.516 233.27 199.175L228.8 222.692V223.02C228.8 223.92 229.458 224.507 230.386 224.507H234.083C234.586 224.507 235.058 224.331 235.465 224.003C235.871 223.693 236.157 223.277 236.281 222.821L240.761 199.303C241.015 197.947 241.149 196.631 241.144 195.377C241.149 193.815 240.927 192.354 240.472 190.971C240.024 189.617 239.321 188.38 238.352 187.347ZM198.651 187.979C197.432 186.754 195.922 185.784 194.137 185.089C192.338 184.369 190.211 184.018 187.766 184.018C182.199 184.014 177.621 185.557 174.074 188.645C170.537 191.731 168.177 196.17 166.988 201.943L165.986 206.948C165.676 208.534 165.509 210.042 165.509 211.45C165.509 213.911 165.952 216.025 166.872 217.758C167.759 219.467 168.944 220.868 170.398 221.945C171.843 223.025 173.506 223.798 175.372 224.286C177.216 224.766 179.09 225.007 181.007 225.007H181.053C183.686 225.007 186.019 224.898 188.064 224.695C190.112 224.48 192.283 224.174 194.603 223.794C195.298 223.693 195.807 223.541 196.147 223.183C196.457 222.875 196.635 222.44 196.745 221.877L197.209 219.436L197.212 219.399V219.088C197.212 218.385 196.577 218.015 195.856 218.015H195.395C193.547 218.253 191.452 218.482 189.039 218.697C186.631 218.911 184.305 219.019 182.057 219.019C179.126 219.019 176.843 218.426 175.207 217.291C173.595 216.179 172.789 214.375 172.779 211.731C172.779 211.083 172.819 210.401 172.9 209.701C172.971 209.012 173.127 208.274 173.38 207.481L173.539 206.878H199.086C199.708 206.878 200.235 206.71 200.565 206.319C200.84 205.97 201.021 205.533 201.135 205.027L201.75 202.016C202.062 200.478 202.217 199.024 202.217 197.659C202.227 195.768 201.932 193.996 201.357 192.329C200.775 190.663 199.873 189.212 198.651 187.979ZM194.27 201.295L194.255 201.374H174.56C174.914 199.767 175.44 198.304 176.129 196.967C176.837 195.619 177.7 194.442 178.725 193.409C179.748 192.402 180.923 191.618 182.27 191.059C183.61 190.514 185.105 190.236 186.761 190.236C192.205 190.292 194.68 192.549 194.727 197.447C194.727 198.602 194.575 199.893 194.27 201.295ZM279.024 185.588H275.323C274.827 185.588 274.353 185.764 273.943 186.094C273.539 186.408 273.251 186.818 273.125 187.273L266.523 222.692V223.02C266.523 223.92 267.182 224.507 268.113 224.507H271.833C272.315 224.507 272.79 224.331 273.188 224.013C273.602 223.681 273.875 223.277 274.009 222.821L280.613 187.418V187.083C280.613 186.175 279.944 185.588 279.024 185.588ZM94.3264 177.801C93.8414 177.036 93.2158 176.401 92.4818 175.936C91.7608 175.488 90.9833 175.174 90.154 175.014C89.3849 174.869 88.6039 174.796 87.8212 174.796C87.0437 174.796 86.2241 174.878 85.3673 175.056C84.4749 175.236 83.6036 175.554 82.7613 175.974C81.8916 176.412 81.0849 177.007 80.3429 177.748C79.588 178.506 78.909 179.463 78.3254 180.611L55.6238 221.833C55.4605 222.133 55.3846 222.491 55.3846 222.871C55.3813 223.309 55.5398 223.794 55.9083 224.111C56.2785 224.415 56.7279 224.515 57.1854 224.515H61.8816C62.3666 224.515 62.8241 224.352 63.2347 224.09C63.6453 223.817 63.988 223.465 64.1626 223.025L71.9707 207.022H90.8507L92.7001 222.823C92.7761 223.23 92.9199 223.596 93.1366 223.899C93.4502 224.333 93.9675 224.515 94.4476 224.515H99.1211C99.6691 224.515 100.224 224.362 100.618 223.958C101.011 223.553 101.145 223.004 101.145 222.443V222.108L95.3205 180.782C95.1589 179.599 94.8307 178.604 94.3264 177.801ZM75.2038 200.367L85.0197 182.665C85.3915 181.959 86.3372 181.836 86.8998 181.865C88.109 181.922 88.2318 182.665 88.2318 182.665L90.3075 200.367H75.2038Z" fill="#A6A8AB"/>
<path d="M367.614 100.703C352.497 103.322 331.967 105.272 316.503 109.898C316.271 109.968 316.307 110.095 316.556 110.086C353.873 108.974 394.275 109.156 424.446 110.167C424.519 110.17 424.626 110.032 424.615 109.96C423.894 106.389 421.116 102.347 412.746 102.384H407.912C407.912 102.384 407.792 102.473 407.81 102.514C409.171 105.93 405.355 108.193 402.886 106.128C401.847 105.251 400.814 103.101 403.458 101.241C405.413 99.8673 408.481 97.8579 410.266 96.7296C416.656 92.68 415.765 86.8603 407.275 86.2137C386.783 84.6618 350.173 82.5699 335.695 81.4092C335.371 81.3866 335.185 81.621 335.413 81.7439C347.373 88.2264 358.265 88.8148 370.233 93.2749C377.045 95.8146 375.7 99.3015 367.614 100.703Z" fill="#0081C6"/>
</svg>
