<svg width="480" height="320" viewBox="0 0 480 320" fill="none" xmlns="http://www.w3.org/2000/svg">
<path d="M97.2463 154.848H66.7764V158.25H102.544C102.544 158.25 103.836 155.251 103.836 151.977V129.057C103.836 127.257 104.574 124.2 108.304 123.374L108.61 123.315C119.155 120.828 130.063 123.098 136.198 125.753C137.293 126.294 137.56 125.398 137.511 125.016C137.649 119.863 133.703 113.995 126.494 113.65C120.614 113.503 117.359 115.608 116.185 116.206L115.819 116.057C114.735 114.995 112.427 113.402 109.822 112.655C109.428 112.576 109.398 112.016 109.853 111.956C115.405 111.347 120.259 111.996 122.291 112.321C122.744 112.399 123.1 112.115 122.893 111.682C122.774 111.358 122.666 111.209 122.419 110.729C121.917 109.658 120.625 108.566 118.957 108.093C114.617 106.874 107.18 105.831 100.542 105.803C93.1142 105.744 85.2345 107.229 83.2502 107.679C82.7774 107.788 82.1071 107.955 81.9892 107.975C81.4457 108.093 81.3087 108.594 81.5547 108.861L82.3045 109.568C82.5417 109.873 82.6595 110.304 82.1866 110.758L68.416 123.128H77.9352C78.5569 123.097 79.1476 123.669 79.1476 124.367C79.1476 125.015 78.635 125.595 77.9838 125.595L77.8955 125.604H65.6627L61.9151 128.997H78.0325C78.663 128.997 79.1461 129.645 79.1461 130.246C79.1461 130.787 78.6733 131.435 78.0325 131.435H59.1721L55.3848 134.819H87.8066L87.9053 134.839C88.5476 134.839 89.0411 135.487 89.0411 136.057C89.0617 136.728 88.5962 137.336 87.9259 137.307H55.3848V140.689H87.7771L87.8758 140.71C88.6153 140.71 89.0411 141.369 89.0411 141.997C89.0411 142.549 88.5181 143.148 87.867 143.148H55.3848V146.55H97.759C98.4587 146.58 98.9036 147.169 98.8741 147.829C98.8638 148.399 98.3909 149.028 97.759 149.028L97.6706 149.008H66.7867V152.41H97.8871C98.4587 152.41 98.933 153.098 98.933 153.66C98.933 154.24 98.4292 154.85 97.8665 154.85H97.2463V154.848ZM78.8603 166.088V170.935C78.8603 170.935 83.3254 170.975 85.8459 170.935C92.1022 170.905 96.1842 166.088 96.1842 166.088H78.8603ZM78.3698 160.741V163.992H99.0435C100.01 163.066 101.243 161.364 101.548 160.741H78.3698Z" fill="#0F1131"/>
<path d="M112.607 125.024C113.935 125.044 114.828 125.433 115.55 125.744C117.091 126.456 118.845 127.256 121.087 128.29L124.891 125.697C126.128 124.888 127.316 125.492 127.7 126.195C129.05 128.64 131.555 133.693 132.843 138.342C133.026 138.898 132.822 139.765 131.921 140.039C131.393 140.185 130.48 140.293 129.548 140.418C128.228 140.565 128.25 141.588 128.25 142.214C128.25 142.972 128.281 148.102 128.281 149.865C128.31 150.946 127.459 154.429 123.209 154.408H113.625C109.962 154.429 107.01 151.502 107 148.346C107 146.278 107 131.809 107.009 130.231C107.006 127.101 109.949 124.985 112.607 125.024ZM178.468 155.451C178.244 154.875 176.776 151.319 175.687 148.427L166.471 122.998H159.334C159.334 122.998 157.275 128.966 156.981 129.941L150.243 149.647C149.389 152.194 148.163 155.45 148.163 155.45H154.035C154.035 155.45 155.669 150.017 156.03 149.019L156.924 146.269H167.053L168.425 150.441C168.735 151.238 169.932 155.389 169.951 155.45H178.468V155.451ZM158.391 141.633L161.784 131.102L161.978 130.519L165.546 141.635H158.391V141.633ZM192.367 150.731H187.149C187.087 147.862 187.067 145.104 187.067 142.598L187.036 142.202H187.046V142.131H195.686V138.105H187.065C187.086 133.777 187.148 130.935 187.148 130.935L197.89 130.906V126.687C190.418 126.706 179.605 126.687 179.605 126.687C179.605 126.687 179.769 130.591 179.769 132.822V148.987C179.769 151.045 179.656 154.535 179.626 155.083H198.628V150.59C198.619 150.588 194.889 150.731 192.367 150.731ZM226.711 154.162C225.131 151.728 224.536 150.708 223.289 148.922L218.614 141.249C220.863 140.07 222.964 138.118 223.289 134.007C223.485 131.436 222.211 129.316 221.402 128.58C220.277 127.53 219.181 127.117 217.635 126.912C216.4 126.744 215.488 126.727 214.725 126.687H203.734C203.734 126.687 203.847 130.445 203.847 132.634V148.196C203.847 150.394 203.734 154.162 203.734 154.162H210.494C210.494 154.162 210.28 150.394 210.28 148.196L210.336 143.221H212.846L217.124 151.522C217.718 152.534 218.538 153.867 218.751 154.162H226.711ZM214.753 138.815C213.741 139.384 211.453 139.236 210.327 139.158L210.401 131.279L211.059 131.229C213.123 131.062 214.649 131.355 215.273 131.66C216.193 132.071 216.741 133.024 216.796 134.564C216.864 136.882 216.027 138.108 214.753 138.815ZM256.501 139.58L256.471 139.393C256.374 136.628 255.505 134.162 254.304 132.245C251.829 128.07 247.521 125.815 242.278 125.875C237.041 125.815 232.704 128.07 230.216 132.245C229.018 134.162 228.167 136.628 228.062 139.393L228.015 139.58C227.345 148.818 232.284 155.199 240.774 155.914C241.289 155.965 241.778 155.977 242.265 155.977C242.774 155.977 243.263 155.965 243.78 155.914C252.24 155.199 257.227 148.819 256.501 139.58ZM242.938 151.627L242.285 151.658L241.655 151.627C240.392 151.491 239.407 151.015 238.535 150.28L237.769 149.472C236.466 147.907 235.759 145.183 235.587 143.018C235.202 138.015 236.141 130.723 241.795 130.246L242.229 130.225L242.259 130.215L242.353 130.225L242.793 130.246C248.45 130.723 249.359 138.014 248.976 143.018C248.813 145.183 248.17 147.814 246.841 149.472L246.075 150.28C245.168 151.015 244.115 151.502 242.938 151.627ZM284.848 122.385H292.676L292.906 124.224C294.656 142.765 295.717 154.259 295.717 154.259H287.581L286.769 142.804L286.015 132.537L279.101 154.239H274.703C274.703 154.239 272.519 146.542 272.133 145.475L268.197 132.417C268.197 132.417 267.579 139.678 267.346 142.804C266.871 149.018 266.44 154.259 266.44 154.259H260.346C260.346 154.259 262.845 128.362 263.013 126.768C263.215 125.145 263.526 122.385 263.526 122.385H271.487L278.15 141.063L284.848 122.385ZM313.161 150.487H307.945C307.884 147.617 307.864 144.859 307.864 142.354L307.833 141.957H307.845V141.887H316.485V137.861H307.864C307.884 133.533 307.945 130.691 307.945 130.691L318.685 130.661V126.442C311.217 126.462 300.401 126.442 300.401 126.442C300.401 126.442 300.565 130.346 300.565 132.578V148.742C300.565 150.8 300.453 154.29 300.423 154.838H319.423V150.345C319.413 150.344 315.685 150.487 313.161 150.487ZM337.615 139.538L345.436 127.119H340.015L339.985 127.214C338.334 130.021 336.305 133.396 335.529 134.626L335.19 135.135L330.674 127.119H322.517L330.375 141.016L322.186 154.012H327.574C331.073 148.15 332.857 145.438 332.857 145.438L337.684 154.012H345.804L337.615 139.538ZM356.558 132.905C356.558 130.681 356.808 126.842 356.808 126.842H348.127C348.127 126.842 348.389 130.681 348.389 132.905L348.344 148.813C348.344 151.039 348.129 154.748 348.129 154.748H356.81C356.81 154.748 356.583 151.039 356.583 148.813L356.558 132.905ZM378.476 150.824C372.373 150.824 369.067 145.995 369.246 140.042C369.399 134.858 371.603 130.443 376.865 130.08C378.842 129.957 380.461 130.312 383.286 131.122L383.012 126.718C383.012 126.718 380.621 125.887 377.231 125.735C372.881 125.563 368.925 126.475 365.781 129.602C363.001 132.326 361.298 136.415 361.298 140.385C361.298 144.778 363.001 148.84 366.146 151.653C369.434 154.579 372.956 155.258 377.137 155.258C379.868 155.258 381.47 155.056 384.143 154.275L383.729 149.962C383.137 150.165 381.224 150.824 378.476 150.824ZM414.369 139.58L414.339 139.393C414.242 136.628 413.373 134.162 412.172 132.245C409.697 128.07 405.389 125.815 400.146 125.875C394.909 125.815 390.571 128.07 388.084 132.245C386.886 134.162 386.035 136.628 385.929 139.393L385.88 139.58C385.213 148.818 390.149 155.199 398.64 155.914C399.156 155.965 399.645 155.977 400.131 155.977C400.641 155.977 401.13 155.965 401.647 155.914C410.108 155.198 415.095 148.818 414.369 139.58ZM400.806 151.625L400.153 151.656L399.523 151.625C398.26 151.49 397.273 151.014 396.401 150.279L395.635 149.47C394.334 147.906 393.627 145.182 393.455 143.016C393.072 138.014 394.01 130.722 399.664 130.245L400.099 130.224L400.128 130.214L400.222 130.224L400.663 130.245C406.32 130.722 407.229 138.012 406.845 143.016C406.682 145.182 406.04 147.813 404.711 149.47L403.945 150.279C403.036 151.014 401.983 151.5 400.806 151.625Z" fill="#0F1131"/>
<path d="M419.338 155.24C421.846 155.24 423.879 153.207 423.879 150.699C423.879 148.19 421.846 146.157 419.338 146.157C416.829 146.157 414.796 148.19 414.796 150.699C414.796 153.207 416.829 155.24 419.338 155.24Z" stroke="#313131" stroke-width="3.68279"/>
<path d="M419.943 150.937C420.786 150.855 421.408 150.419 421.408 149.457C421.408 148.359 420.755 147.884 419.416 147.884H417.267V153.308H418.1V150.99H419.096L420.584 153.308H421.577L419.943 150.937ZM418.102 150.305V148.617H419.258C419.868 148.617 420.487 148.701 420.487 149.394C420.487 150.232 419.856 150.304 419.129 150.304H418.102V150.305Z" fill="#0F1131"/>
<path d="M277.304 192.251C275.494 193.419 273.345 194.001 270.859 194.001C267.499 194.001 264.786 192.83 262.723 190.488C260.661 188.145 259.627 185.109 259.627 181.378C259.627 177.221 260.741 173.88 262.965 171.356C265.189 168.833 268.158 167.57 271.873 167.57C273.944 167.57 275.771 167.984 277.351 168.805V172.947C275.601 171.632 273.729 170.973 271.735 170.973C269.326 170.973 267.349 171.9 265.808 173.75C264.266 175.597 263.495 178.027 263.495 181.033C263.495 183.991 264.22 186.328 265.671 188.033C267.121 189.744 269.067 190.598 271.506 190.598C273.563 190.598 275.497 189.869 277.307 188.406V192.251H277.304ZM291.543 194.002C288.06 194.002 285.28 192.823 283.2 190.467C281.12 188.106 280.081 184.98 280.081 181.086C280.081 176.844 281.162 173.532 283.326 171.15C285.49 168.769 288.413 167.573 292.096 167.573C295.609 167.573 298.354 168.733 300.325 171.051C302.296 173.367 303.283 176.583 303.283 180.69C303.283 184.719 302.221 187.942 300.095 190.365C297.969 192.789 295.119 194.002 291.543 194.002ZM291.819 170.975C289.394 170.975 287.478 171.86 286.065 173.628C284.652 175.394 283.947 177.831 283.947 180.936C283.947 183.928 284.66 186.285 286.087 188.013C287.515 189.738 289.425 190.601 291.819 190.601C294.258 190.601 296.135 189.755 297.446 188.063C298.759 186.37 299.414 183.96 299.414 180.837C299.414 177.683 298.759 175.251 297.446 173.541C296.135 171.831 294.258 170.975 291.819 170.975ZM326.823 193.166H323.048V178.768C323.048 173.413 321.221 170.73 317.569 170.73C315.682 170.73 314.119 171.493 312.885 173.012C311.647 174.534 311.031 176.452 311.031 178.768V193.166H307.256V167.919H311.031V172.113H311.124C312.902 168.926 315.48 167.33 318.858 167.33C321.436 167.33 323.407 168.221 324.774 170.005C326.138 171.788 326.823 174.364 326.823 177.735V193.166ZM350.462 193.166H346.687V178.768C346.687 173.413 344.86 170.73 341.208 170.73C339.321 170.73 337.758 171.493 336.524 173.012C335.286 174.534 334.67 176.452 334.67 178.768V193.166H330.895V167.919H334.67V172.113H334.763C336.541 168.926 339.119 167.33 342.497 167.33C345.075 167.33 347.046 168.221 348.413 170.005C349.777 171.788 350.462 174.364 350.462 177.735V193.166ZM374.95 181.553H358.308C358.368 184.364 359.076 186.534 360.426 188.063C361.776 189.59 363.635 190.355 365.996 190.355C368.652 190.355 371.092 189.418 373.316 187.544V191.342C371.245 192.952 368.505 193.758 365.099 193.758C361.77 193.758 359.152 192.61 357.25 190.318C355.349 188.025 354.395 184.801 354.395 180.641C354.395 176.715 355.434 173.516 357.514 171.041C359.594 168.568 362.175 167.327 365.26 167.327C368.344 167.327 370.729 168.401 372.418 170.534C374.106 172.672 374.95 175.637 374.95 179.435V181.553ZM371.083 178.125C371.068 175.795 370.542 173.977 369.507 172.681C368.471 171.38 367.032 170.73 365.19 170.73C363.41 170.73 361.9 171.414 360.656 172.778C359.413 174.142 358.645 175.926 358.354 178.127H371.083V178.125ZM396.631 192.251C394.821 193.419 392.671 194.001 390.186 194.001C386.826 194.001 384.113 192.83 382.05 190.488C379.988 188.145 378.954 185.109 378.954 181.378C378.954 177.221 380.067 173.88 382.292 171.356C384.516 168.833 387.485 167.57 391.2 167.57C393.271 167.57 395.098 167.984 396.678 168.805V172.947C394.928 171.632 393.056 170.973 391.061 170.973C388.653 170.973 386.676 171.9 385.135 173.75C383.593 175.597 382.822 178.027 382.822 181.033C382.822 183.991 383.547 186.328 384.998 188.033C386.448 189.744 388.394 190.598 390.833 190.598C392.89 190.598 394.824 189.869 396.634 188.406V192.251H396.631ZM412.937 192.675C412.047 193.198 410.875 193.462 409.415 193.462C405.289 193.462 403.223 190.997 403.223 186.067V171.126H399.172V167.675H403.223V161.511L406.999 160.205V167.673H412.937V171.125H406.999V185.351C406.999 187.042 407.27 188.253 407.805 188.976C408.342 189.698 409.232 190.059 410.476 190.059C411.427 190.059 412.248 189.781 412.939 189.221V192.675H412.937Z" fill="#1963A3"/>
<path d="M148.614 194.69C157.655 192.467 166.957 191.395 176.201 190.102C188.303 189.536 200.44 189.697 212.549 190.013C224.956 191.105 237.252 192.914 249.446 195.241C272.198 199.485 294.448 205.976 317.544 208.645C323.327 209.815 329.283 209.57 335.127 210.372C343.854 210.693 352.614 211.577 361.353 210.725C372.111 210.56 382.782 209.14 393.37 207.505C399.636 206.481 405.692 204.441 412.094 204.083C398.891 209.341 384.482 211.432 370.28 213.137C359.805 214.906 349.098 213.873 338.518 214.118C331.388 214.427 324.412 212.755 317.308 212.602C289.117 209.463 262.245 200.405 234.218 196.376C208.931 192.413 182.874 192.168 157.538 195.972C150.831 196.622 144.304 198.376 137.579 198.874C140.564 196.268 144.784 195.655 148.614 194.69Z" fill="#E73D49"/>
</svg>
