<svg width="480" height="320" viewBox="0 0 480 320" fill="none" xmlns="http://www.w3.org/2000/svg">
<mask id="mask0_730_18536" style="mask-type:luminance" maskUnits="userSpaceOnUse" x="79" y="53" width="322" height="220">
<path d="M79.8291 272.917H400.173V53.3309H79.8291V272.917Z" fill="white"/>
</mask>
<g mask="url(#mask0_730_18536)">
<path d="M153.093 114.966C165.648 89.2003 193.165 71.3057 225.122 71.3057C257.081 71.3057 284.625 89.1981 297.18 114.966H336.349C322.78 79.4232 286.807 54.022 244.557 54.022C202.314 54.022 166.363 79.4276 152.794 114.966H153.093ZM147.923 205.48C160.467 231.228 187.961 249.103 219.892 249.103C251.827 249.103 279.347 231.228 291.891 205.48H331.029C317.472 240.994 281.524 266.374 239.316 266.374C197.105 266.374 161.182 240.988 147.624 205.48H147.923Z" fill="#364A72"/>
</g>
<path d="M215.577 71.8624C220.471 77.0466 220.135 88.715 220.434 96.1501C220.729 103.585 227.293 109.333 230.376 113.685C231.541 115.334 232.755 117.316 233.81 119.145C235.281 118.703 236.791 118.347 238.331 118.074C237.805 115.927 237.163 113.113 236.409 109.467C234.139 98.4812 243.522 74.4686 243.522 74.4686C243.522 74.4686 234.029 71.5418 228.493 71.2579C227.731 71.2211 226.934 71.2016 226.128 71.2016C221.065 71.2016 215.577 71.8624 215.577 71.8624Z" fill="url(#paint0_linear_730_18536)"/>
<path d="M233.127 73.8771C234.791 77.8871 233.021 92.9719 232.378 102.532C231.927 109.175 234.393 115.397 235.937 118.575C236.719 118.386 237.51 118.219 238.312 118.076C236.427 111.094 235.441 110.145 236.544 97.5388C237.491 86.6308 239.852 73.8511 239.852 73.8511C239.852 73.8511 236.368 74.1306 233.127 73.8771Z" fill="url(#paint1_linear_730_18536)"/>
<path d="M204.665 80.6494C199.342 82.1182 192.693 85.266 192.693 85.266C199.123 88.6196 202.897 99.7399 205.783 106.662C208.669 113.59 216.873 116.941 221.305 120.083C222.505 120.934 223.784 121.937 225.016 122.949C226.498 122.089 228.03 121.311 229.622 120.637C228.498 118.934 227.144 116.826 225.521 114.212C219.527 104.56 219.966 78.9639 219.966 78.9639C219.966 78.9639 209.988 79.1762 204.665 80.6494Z" fill="url(#paint2_linear_730_18536)"/>
<path d="M186.688 92.0686C181.885 94.6791 176.202 99.2199 176.202 99.2199C183.289 101.051 189.723 111.016 194.249 117.097C198.774 123.191 207.585 124.621 212.676 126.686C214.141 127.279 215.733 128.02 217.263 128.779C218.469 127.626 219.739 126.536 221.078 125.54C219.526 124.103 217.629 122.305 215.308 120.041C207.085 111.993 201.142 87.0208 201.142 87.0208C201.142 87.0208 191.497 89.4515 186.688 92.0686Z" fill="url(#paint3_linear_730_18536)"/>
<path d="M195.531 94.9369C202.568 104.614 202.215 106.675 207.743 114.693C210.733 119.041 215.727 123.48 219.678 126.636C220.124 126.27 220.575 125.915 221.037 125.568C217.005 122.069 213.775 119.019 210.191 112.595C204.784 102.918 202.568 90.7796 202.568 90.7796C202.568 90.7796 198.293 93.3013 195.531 94.9369Z" fill="url(#paint4_linear_730_18536)"/>
<path d="M171.659 110.204C167.801 114.075 163.655 120.046 163.655 120.046C170.971 119.779 179.981 127.49 186.057 132.026C192.136 136.569 200.988 135.421 206.459 135.945C207.86 136.079 209.399 136.298 210.909 136.545C211.836 135.078 212.843 133.668 213.946 132.329C212.094 131.417 209.834 130.273 207.083 128.824C196.903 123.464 184.071 101.23 184.071 101.23C184.071 101.23 175.52 106.317 171.659 110.204Z" fill="url(#paint5_linear_730_18536)"/>
<path d="M180.953 110.42C190.46 117.687 190.715 119.76 198.302 125.863C202.312 129.097 208.183 131.87 212.824 133.764C213.172 133.296 213.536 132.832 213.909 132.379C209.156 130.221 205.228 128.2 200.048 123.155C192.104 115.42 186.51 104.426 186.51 104.426C186.51 104.426 183.137 108.065 180.953 110.42Z" fill="url(#paint6_linear_730_18536)"/>
<path d="M270.5 192.944C272.056 194.382 273.971 196.191 276.315 198.479C284.536 206.527 290.479 231.502 290.479 231.502C290.479 231.502 300.124 229.073 304.933 226.456C309.738 223.845 315.423 219.305 315.423 219.305C308.337 217.474 301.9 207.508 297.375 201.425C292.847 195.335 284.036 193.899 278.943 191.837C277.441 191.226 275.806 190.463 274.237 189.685C273.059 190.847 271.811 191.935 270.5 192.944Z" fill="url(#paint7_linear_730_18536)"/>
<path d="M270.537 192.911C274.59 196.427 277.831 199.478 281.432 205.927C286.835 215.609 290.366 231.302 290.366 231.302C290.366 231.302 296.859 230.349 299.617 228.724C292.585 219.042 289.402 211.852 283.882 203.828C280.871 199.458 275.836 194.991 271.878 191.834C271.441 192.203 270.996 192.56 270.537 192.911Z" fill="url(#paint8_linear_730_18536)"/>
<path d="M213.567 82.4301C217.169 91.2821 216.413 97.3005 219.249 106.49C220.963 112.058 225.023 117.756 227.963 121.387C228.511 121.125 229.065 120.873 229.626 120.633C226 115.332 223.643 112.002 221.97 103.882C219.756 93.1366 221.572 80.385 221.572 80.385C221.572 80.385 216.71 81.6307 213.567 82.4301Z" fill="url(#paint9_linear_730_18536)"/>
<path d="M262.058 197.968C263.169 199.657 264.504 201.737 266.102 204.311C272.095 213.962 271.655 239.558 271.655 239.558C271.655 239.558 281.64 239.342 286.958 237.873C292.275 236.404 298.928 233.254 298.928 233.254C292.5 229.903 288.726 218.778 285.838 211.856C282.957 204.935 274.749 201.583 270.316 198.438C269.122 197.591 267.857 196.601 266.635 195.595C265.161 196.482 263.632 197.274 262.058 197.968Z" fill="url(#paint10_linear_730_18536)"/>
<path d="M262.051 197.97C265.648 203.221 267.994 206.564 269.653 214.643C271.863 225.384 270.052 239.433 270.052 239.433C270.052 239.433 275.455 239.968 278.594 239.164C274.993 230.314 275.208 221.218 272.376 212.03C270.669 206.492 266.646 200.827 263.709 197.194C263.165 197.465 262.61 197.723 262.051 197.97Z" fill="url(#paint11_linear_730_18536)"/>
<mask id="mask1_730_18536" style="mask-type:luminance" maskUnits="userSpaceOnUse" x="79" y="53" width="322" height="220">
<path d="M79.8291 272.917H400.173V53.3309H79.8291V272.917Z" fill="white"/>
</mask>
<g mask="url(#mask1_730_18536)">
<path d="M116.019 164.193L107.908 140.683L99.9097 164.193H116.019ZM145.359 190.404H114.921V186.851C116.338 186.732 117.999 186.433 119.917 185.963C121.825 185.489 122.781 184.904 122.781 184.204C122.781 183.959 122.761 183.684 122.724 183.383C122.685 183.073 122.57 182.662 122.386 182.146L117.627 168.708H98.339C97.8927 169.956 97.4009 171.416 96.8658 173.093C96.3264 174.769 95.8606 176.264 95.4707 177.573C94.9681 179.282 94.6734 180.513 94.5803 181.275C94.4893 182.04 94.4438 182.571 94.4438 182.876C94.4438 183.853 95.0829 184.681 96.3589 185.37C97.6349 186.054 99.7558 186.55 102.728 186.851V190.404H79.8291V186.851C80.6913 186.793 81.6706 186.63 82.7624 186.373C83.8478 186.115 84.71 185.757 85.3383 185.3C86.4129 184.57 87.3249 183.669 88.0745 182.601C88.8197 181.535 89.4437 180.27 89.942 178.81C92.9858 170.244 96.0383 161.667 99.0929 153.073C102.15 144.478 105.529 134.996 109.23 124.634H117.1C122.243 139.327 126.271 150.939 129.182 159.47C132.096 168.001 134.577 175.073 136.624 180.682C136.964 181.596 137.395 182.428 137.922 183.173C138.444 183.918 139.196 184.629 140.164 185.3C140.898 185.788 141.752 186.152 142.722 186.397C143.693 186.641 144.573 186.793 145.359 186.851V190.404ZM169.503 162.091C169.503 160.258 169.425 158.382 169.267 156.46C169.108 154.536 168.833 152.961 168.437 151.744C167.988 150.307 167.377 149.226 166.604 148.49C165.826 147.755 164.845 147.391 163.66 147.391C161.634 147.391 160.014 148.583 158.805 150.966C157.592 153.345 156.935 157.112 156.829 162.275L169.503 162.091ZM184.531 179.474C183.608 181.207 182.503 182.847 181.204 184.383C179.904 185.921 178.428 187.236 176.775 188.33C175.016 189.487 173.238 190.365 171.437 190.958C169.641 191.547 167.572 191.844 165.237 191.844C161.35 191.844 157.997 191.207 155.176 189.925C152.355 188.647 150.024 186.922 148.189 184.762C146.35 182.594 144.979 180.039 144.073 177.097C143.166 174.153 142.717 170.962 142.717 167.517C142.717 164.411 143.207 161.43 144.19 158.581C145.176 155.73 146.575 153.191 148.387 150.968C150.172 148.802 152.425 147.051 155.141 145.708C157.856 144.367 160.896 143.693 164.256 143.693C167.932 143.693 170.95 144.213 173.313 145.251C175.675 146.289 177.633 147.721 179.182 149.551C180.675 151.291 181.767 153.343 182.451 155.706C183.134 158.07 183.474 160.548 183.474 163.139V166.114H156.829C156.829 172.364 157.865 177.115 159.942 180.377C162.02 183.638 165.319 185.267 169.843 185.267C172.313 185.267 174.535 184.487 176.507 182.921C178.478 181.352 180.159 179.366 181.554 176.961L184.531 179.474ZM224.271 153.448C224.271 155.764 223.654 157.798 222.419 159.549C221.184 161.301 219.557 162.179 217.536 162.179C215.621 162.179 213.996 161.613 212.672 160.491C211.346 159.367 210.684 157.712 210.684 155.524C210.684 154.462 210.749 153.632 210.879 153.043C211.013 152.447 211.13 151.893 211.236 151.375C210.031 151.438 208.766 151.921 207.434 152.828C206.106 153.738 204.932 154.947 203.913 156.459V181.521C203.913 182.586 204.059 183.47 204.347 184.172C204.637 184.87 205.125 185.418 205.807 185.812C206.388 186.148 207.33 186.43 208.63 186.657C209.932 186.887 210.874 187.015 211.453 187.041V190.405H185.094V187.041C185.75 186.982 186.413 186.9 187.083 186.791C187.752 186.687 188.324 186.544 188.798 186.36C189.635 186.027 190.211 185.509 190.527 184.809C190.841 184.109 191.002 183.195 191.002 182.069V155.508C191.002 154.414 190.776 153.429 190.332 152.564C189.886 151.7 189.353 151.004 188.727 150.489C188.252 150.12 187.659 149.817 186.94 149.575C186.22 149.328 185.43 149.163 184.563 149.072V145.71L203.324 144.512L203.913 145.198V151.845H204.072C205.881 149.408 207.798 147.497 209.828 146.11C211.858 144.724 213.972 144.028 216.173 144.028C218.61 144.028 220.569 144.908 222.051 146.661C223.533 148.411 224.271 150.675 224.271 153.448ZM247.633 192.183C244.221 192.183 241.041 191.687 238.083 190.699C235.131 189.714 232.628 188.548 230.583 187.205L227.864 190.405H224.504L223.976 166.977H227.383C228.148 169.202 229.119 171.553 230.304 174.025C231.487 176.499 232.851 178.708 234.4 180.662C236.008 182.705 237.797 184.369 239.784 185.65C241.768 186.934 244.087 187.571 246.74 187.571C250.319 187.571 253.058 186.557 254.964 184.527C256.866 182.497 257.819 179.943 257.819 176.858C257.819 174.323 257.016 172.194 255.393 170.469C253.775 168.745 251.268 167.257 247.876 166.004C245.666 165.181 243.632 164.419 241.775 163.717C239.92 163.013 238.176 162.298 236.55 161.561C232.784 159.826 229.987 157.337 228.159 154.106C226.331 150.874 225.416 147.256 225.416 143.264C225.416 140.731 225.889 138.298 226.835 135.965C227.782 133.634 229.16 131.537 230.975 129.674C232.708 127.936 234.927 126.519 237.637 125.419C240.341 124.32 243.285 123.77 246.463 123.77C249.565 123.77 252.473 124.275 255.174 125.278C257.88 126.281 260.01 127.282 261.561 128.291L263.968 125.549H267.378L267.707 147.679H264.304C263.513 145.298 262.588 142.858 261.524 140.365C260.462 137.878 259.338 135.807 258.155 134.154C256.866 132.384 255.384 130.971 253.703 129.916C252.02 128.859 250.048 128.335 247.793 128.335C244.957 128.335 242.635 129.262 240.837 131.125C239.039 132.988 238.14 135.293 238.14 138.04C238.14 140.638 238.922 142.761 240.486 144.407C242.048 146.056 244.487 147.505 247.8 148.758C249.745 149.52 251.73 150.285 253.755 151.043C255.781 151.808 257.579 152.54 259.158 153.242C262.969 154.951 265.87 157.306 267.856 160.311C269.839 163.316 270.833 167.042 270.833 171.496C270.833 174.308 270.27 177.019 269.141 179.644C268.008 182.266 266.485 184.449 264.57 186.189C262.471 188.111 260.04 189.59 257.282 190.626C254.524 191.664 251.312 192.183 247.633 192.183ZM298.255 165.632C296.791 166.211 295.342 166.874 293.901 167.619C292.458 168.369 291.28 169.151 290.363 169.972C289.399 170.828 288.637 171.917 288.091 173.245C287.54 174.569 287.263 176.131 287.263 177.929C287.263 180.308 287.729 182.028 288.658 183.092C289.585 184.162 290.734 184.693 292.096 184.693C293.533 184.693 294.716 184.353 295.647 183.661C296.577 182.981 297.393 182.132 298.104 181.127L298.255 165.632ZM317.389 191.827C317.389 191.827 310.472 191.794 308.717 191.794C305.491 191.794 303.119 191.237 301.598 190.13C300.077 189.019 299.044 187.424 298.496 185.353H298.255C297.365 186.389 296.507 187.271 295.682 188.005C294.856 188.733 293.972 189.361 293.026 189.879C291.797 190.548 290.608 191.045 289.471 191.365C288.329 191.688 286.732 191.844 284.687 191.844C281.648 191.844 279.052 190.798 276.903 188.711C274.754 186.619 273.675 183.854 273.675 180.403C273.675 178.421 273.914 176.735 274.386 175.347C274.86 173.952 275.525 172.727 276.39 171.662C277.176 170.685 278.086 169.876 279.126 169.235C280.159 168.594 281.292 167.998 282.527 167.45C284.884 166.443 287.714 165.398 291.022 164.315C294.326 163.232 296.737 162.264 298.255 161.41V157.012C298.255 156.248 298.21 155.238 298.104 153.988C297.996 152.734 297.777 151.683 297.441 150.825C297.073 149.85 296.501 149.025 295.721 148.349C294.939 147.679 293.914 147.346 292.634 147.346C291.488 147.346 290.532 147.534 289.767 147.915C289.001 148.301 288.381 148.687 287.911 149.081C287.993 149.696 288.214 150.626 288.585 151.876C288.951 153.126 289.137 154.337 289.137 155.494C289.137 156.014 289.018 156.661 288.78 157.439C288.543 158.221 288.205 158.836 287.757 159.294C287.148 159.907 286.47 160.377 285.723 160.713C284.969 161.048 283.818 161.222 282.265 161.222C280.051 161.222 278.381 160.6 277.25 159.365C276.117 158.128 275.554 156.521 275.554 154.536C275.554 152.829 276.132 151.299 277.295 149.941C278.465 148.583 279.884 147.461 281.563 146.579C283.212 145.662 285.112 144.954 287.259 144.449C289.406 143.947 291.399 143.693 293.229 143.693C295.775 143.693 298.106 143.873 300.227 144.22C302.346 144.575 304.263 145.296 305.964 146.395C307.588 147.465 308.875 149.012 309.833 151.042C310.79 153.072 311.271 155.719 311.271 158.986C311.271 162.435 311.213 166.525 311.098 171.252C310.988 175.988 310.721 181.432 310.721 182.927C310.721 184.301 310.901 185.382 311.252 186.177C311.605 186.967 312.149 187.565 312.881 187.957C313.325 188.202 314.025 188.35 314.978 188.391C315.933 188.441 316.802 188.462 317.589 188.462L317.389 191.827Z" fill="#364A72"/>
<path d="M342.21 191.828H317.391V188.47C318.076 188.407 318.741 188.331 319.391 188.242C320.041 188.149 320.61 187.993 321.113 187.785C321.96 187.419 322.534 186.893 322.838 186.206C323.139 185.523 323.297 184.62 323.297 183.489V134.509C323.297 133.352 323.089 132.277 322.682 131.291C322.279 130.301 321.733 129.548 321.048 129.025C320.526 128.631 319.731 128.252 318.667 127.884C317.61 127.52 316.668 127.31 315.853 127.245V123.882L335.71 122.686L336.304 123.419V182.891C336.304 184.02 336.475 184.932 336.82 185.634C337.164 186.334 337.719 186.884 338.483 187.28C339.012 187.551 339.565 187.8 340.149 188.011C340.728 188.225 341.419 188.377 342.21 188.47V191.828ZM369.95 162.091C369.95 160.258 369.87 158.382 369.71 156.46C369.551 154.536 369.276 152.961 368.88 151.744C368.431 150.307 367.823 149.226 367.047 148.49C366.269 147.755 365.288 147.391 364.105 147.391C362.079 147.391 360.459 148.583 359.248 150.966C358.037 153.345 357.378 157.112 357.272 162.275L369.95 162.091ZM384.974 179.474C384.058 181.207 382.951 182.847 381.647 184.383C380.345 185.921 378.869 187.236 377.218 188.33C375.461 189.487 373.678 190.365 371.88 190.958C370.082 191.547 368.018 191.844 365.682 191.844C361.796 191.844 358.442 191.207 355.619 189.925C352.799 188.647 350.47 186.922 348.63 184.762C346.795 182.594 345.424 180.039 344.518 177.097C343.613 174.153 343.156 170.962 343.156 167.517C343.156 164.411 343.652 161.43 344.633 158.581C345.621 155.73 347.019 153.191 348.83 150.968C350.617 148.802 352.866 147.051 355.582 145.708C358.299 144.367 361.339 143.693 364.699 143.693C368.379 143.693 371.399 144.213 373.756 145.251C376.12 146.289 378.076 147.721 379.627 149.551C381.124 151.291 382.212 153.343 382.892 155.706C383.573 158.07 383.919 160.548 383.919 163.139V166.114H357.272C357.272 172.364 358.314 177.115 360.392 180.377C362.465 183.638 365.76 185.267 370.286 185.267C372.753 185.267 374.981 184.487 376.95 182.921C378.921 181.352 380.602 179.366 381.998 176.961L384.974 179.474Z" fill="#364A72"/>
</g>
<path d="M253.353 200.699C253.866 202.812 254.49 205.552 255.212 209.055C257.484 220.041 248.104 244.05 248.104 244.05C248.104 244.05 257.595 246.981 263.13 247.265C268.665 247.546 276.044 246.66 276.044 246.66C271.152 241.478 271.488 229.805 271.191 222.372C270.895 214.931 264.328 209.192 261.245 204.837C260.117 203.239 258.94 201.326 257.909 199.543C256.429 200.013 254.906 200.396 253.353 200.699Z" fill="url(#paint12_linear_730_18536)"/>
<path d="M253.377 200.693C255.218 207.452 256.169 208.531 255.084 220.984C254.131 231.892 248.104 244.049 248.104 244.049C248.104 244.049 255.251 246.396 258.496 246.651C256.834 242.639 258.604 225.544 259.241 215.99C259.688 209.489 257.333 203.39 255.788 200.156C254.99 200.358 254.186 200.537 253.377 200.693Z" fill="url(#paint13_linear_730_18536)"/>
<path d="M245.53 201.453C244.995 201.453 244.464 201.432 243.933 201.412C243.868 203.609 243.741 206.471 243.5 210.149C242.779 221.315 227.304 242.318 227.304 242.318C227.304 242.318 235.714 247.418 240.996 249.004C246.275 250.594 253.656 251.502 253.656 251.502C250.298 245.321 253.73 234.106 255.42 226.833C257.114 219.573 252.285 212.452 250.463 207.5C249.761 205.602 249.111 203.368 248.574 201.33C247.569 201.403 246.553 201.453 245.53 201.453Z" fill="url(#paint14_linear_730_18536)"/>
<path d="M239.562 223.261C235.454 233.493 230.153 243.965 230.153 243.965C230.153 243.965 232.876 245.8 235.92 246.894C235.493 242.602 241.611 228.566 245.021 219.552C247.909 211.932 246.475 203.784 245.963 201.443C245.816 201.443 245.675 201.453 245.53 201.453C244.995 201.453 244.462 201.432 243.933 201.412C243.509 210.152 244.642 210.587 239.562 223.261Z" fill="url(#paint15_linear_730_18536)"/>
<path d="M231.823 206.776C228.329 217.465 208.058 234.424 208.058 234.424C208.058 234.424 214.958 241.257 219.693 243.982C224.429 246.701 231.373 249.232 231.373 249.232C229.65 242.475 235.786 232.338 239.243 225.652C242.697 218.975 239.785 210.977 239.245 205.754C239.092 204.25 239.014 202.563 238.977 200.923C237.283 200.652 235.625 200.273 234.005 199.798C233.444 201.692 232.731 203.99 231.823 206.776Z" fill="url(#paint16_linear_730_18536)"/>
<path d="M222.269 221.382C215.001 229.894 209.269 235.629 209.269 235.629C209.269 235.629 211.506 237.919 214.043 239.855C215.044 235.652 222.185 226.735 228.394 219.17C234.598 211.61 235.809 200.292 235.809 200.292L234.003 199.809C231.539 207.966 231.301 210.786 222.269 221.382Z" fill="url(#paint17_linear_730_18536)"/>
<path d="M221.881 201.107C215.317 210.416 190.782 221.213 190.782 221.213C190.782 221.213 195.338 229.619 199.06 233.503C202.784 237.39 208.679 241.682 208.679 241.682C209.065 234.74 217.993 226.677 223.313 221.198C228.643 215.719 228.249 207.275 229.308 202.127C229.544 200.968 229.858 199.718 230.203 198.477C228.519 197.794 226.892 197.004 225.328 196.113C224.362 197.547 223.227 199.196 221.881 201.107Z" fill="url(#paint18_linear_730_18536)"/>
<path d="M220.164 203.171C207.585 216.213 191.456 222.006 191.456 222.006C191.456 222.006 192.864 224.664 194.379 227.225C196.651 223.737 205.484 218.059 213.328 213.195C221.175 208.323 226.769 196.91 226.769 196.91L225.324 196.124C223.582 198.496 222.128 201.135 220.164 203.171Z" fill="url(#paint19_linear_730_18536)"/>
<path d="M214.115 193.223C205.042 200.398 178.287 204.216 178.287 204.216C178.287 204.216 180.154 213.494 182.561 218.215C184.974 222.933 189.353 228.627 189.353 228.627C191.79 222.073 202.761 216.714 209.5 212.886C216.244 209.051 218.387 200.842 220.933 196.183C221.301 195.513 221.713 194.811 222.144 194.105C220.541 192.987 219.022 191.754 217.599 190.428C216.556 191.273 215.406 192.198 214.115 193.223Z" fill="url(#paint20_linear_730_18536)"/>
<path d="M236.201 91.683C234.509 98.9535 239.338 106.072 241.165 111.025C241.895 113.016 242.577 115.384 243.132 117.507C243.925 117.459 244.726 117.429 245.53 117.429C246.254 117.429 246.968 117.45 247.679 117.489C247.742 115.245 247.87 112.268 248.121 108.371C248.845 97.2095 264.313 76.2039 264.313 76.2039C264.313 76.2039 255.909 71.1041 250.625 69.5161C245.346 67.926 237.967 67.0204 237.967 67.0204C241.327 73.1991 237.891 84.4168 236.201 91.683Z" fill="url(#paint21_linear_730_18536)"/>
<path d="M246.605 98.973C243.188 107.985 245.751 117.429 245.751 117.429L247.679 117.489C248.115 108.648 246.96 107.99 252.062 95.2641C256.165 85.0277 261.471 74.5574 261.471 74.5574C261.471 74.5574 258.75 72.7268 255.704 71.6327C256.13 75.9223 250.017 89.9563 246.605 98.973Z" fill="url(#paint22_linear_730_18536)"/>
<path d="M252.376 92.8658C248.925 99.5514 251.837 107.545 252.376 112.767C252.545 114.413 252.625 116.278 252.655 118.059C254.3 118.347 255.909 118.729 257.478 119.203C258.056 117.227 258.812 114.777 259.8 111.746C263.293 101.051 283.564 84.0983 283.564 84.0983C283.564 84.0983 276.666 77.2719 271.932 74.5422C267.192 71.8234 260.253 69.2973 260.253 69.2973C261.971 76.0522 255.836 86.1824 252.376 92.8658Z" fill="url(#paint23_linear_730_18536)"/>
<path d="M263.232 99.3521C257.021 106.911 256.031 118.789 256.031 118.789L257.474 119.203C259.939 111.046 259.893 108.347 269.64 97.4326C277.095 89.0789 282.353 82.8938 282.353 82.8938C282.353 82.8938 280.117 80.6082 277.582 78.6736C276.579 82.8743 269.439 91.7891 263.232 99.3521Z" fill="url(#paint24_linear_730_18536)"/>
<path d="M268.308 97.32C262.983 102.799 263.371 111.248 262.315 116.4C262.045 117.719 261.676 119.162 261.273 120.572C262.894 121.248 264.456 122.032 265.966 122.901C266.997 121.361 268.238 119.552 269.744 117.416C276.308 108.107 300.839 97.3114 300.839 97.3114C300.839 97.3114 296.281 88.9121 292.561 85.0234C288.839 81.1325 282.944 76.843 282.944 76.843C282.559 83.7821 273.631 91.8476 268.308 97.32Z" fill="url(#paint25_linear_730_18536)"/>
<path d="M278.293 105.327C270.45 110.204 264.707 122.193 264.707 122.193L265.966 122.89C268.169 119.89 269.595 117.149 272.145 114.658C274.51 112.344 276.997 110.52 279.474 108.653C289.927 100.754 300.163 96.5227 300.163 96.5227C300.163 96.5227 298.761 93.858 297.243 91.2973C294.972 94.7831 286.142 100.463 278.293 105.327Z" fill="url(#paint26_linear_730_18536)"/>
<path d="M282.123 105.639C275.381 109.474 273.237 117.684 270.689 122.342C270.234 123.181 269.707 124.062 269.153 124.946C270.689 126.038 272.147 127.225 273.514 128.51C274.686 127.555 276.001 126.495 277.509 125.304C286.582 118.122 313.335 114.309 313.335 114.309C313.335 114.309 311.47 105.03 309.058 100.31C306.649 95.5891 302.271 89.9 302.271 89.9C299.834 96.4556 288.863 101.807 282.123 105.639Z" fill="url(#paint27_linear_730_18536)"/>
<mask id="mask2_730_18536" style="mask-type:luminance" maskUnits="userSpaceOnUse" x="79" y="53" width="322" height="220">
<path d="M79.8291 272.917H400.173V53.3309H79.8291V272.917Z" fill="white"/>
</mask>
<g mask="url(#mask2_730_18536)">
<path d="M330.723 205.48C318.123 231.347 290.501 249.305 258.419 249.305C226.334 249.305 197.397 230.13 184.795 204.258H145.475C159.095 239.937 196.498 266.666 238.906 266.666C281.314 266.666 317.406 241.159 331.029 205.48H330.723Z" fill="#3059B0"/>
<path d="M329.785 205.48C316.13 233.163 286.539 251.025 254.264 251.025C221.941 251.025 192.317 231.995 178.688 204.258H176.444C176.483 204.455 176.974 205.675 177.044 205.812C190.891 234.237 221.204 252.604 254.264 252.604C287.312 252.604 317.616 234.237 331.464 205.812C331.514 205.701 331.535 205.595 331.533 205.48H329.785Z" fill="#8E98D4"/>
<path d="M183.017 132.334C192.082 96.998 224.142 70.8818 262.304 70.8818C293.895 70.8818 321.302 88.7786 334.946 114.986L337.331 114.975C322.151 78.7675 286.375 53.3316 244.656 53.3316C196.54 53.3316 156.331 87.1646 146.507 132.334H183.017Z" fill="#3059B0"/>
<path d="M177.344 132.342C187.02 95.6272 220.116 68.5795 259.46 68.5795C292.293 68.5795 320.772 87.4121 334.923 114.978H336.191C322.02 86.6582 292.743 67.2059 258.923 67.2059C218.554 67.2059 184.656 94.9101 175.198 132.339L177.344 132.342Z" fill="#8E98D4"/>
<path d="M388.665 137.382H391.418C392.136 137.382 392.671 137.202 393.022 136.844C393.373 136.485 393.548 136.043 393.548 135.516C393.548 134.97 393.362 134.557 392.989 134.277C392.617 133.995 392.149 133.855 391.585 133.855H388.665V137.382ZM395.355 143.142H393.624L391.583 138.621H388.665V143.142H387.103V132.537H391.585C392.794 132.537 393.7 132.849 394.3 133.469C394.9 134.091 395.201 134.782 395.201 135.54C395.201 136.103 395.036 136.641 394.705 137.158C394.378 137.678 393.86 138.044 393.16 138.259L395.355 143.142ZM398.882 137.834C398.882 135.677 398.115 133.835 396.583 132.303C395.056 130.772 393.21 130.007 391.054 130.007C388.908 130.007 387.066 130.774 385.53 132.31C383.996 133.844 383.227 135.685 383.227 137.834C383.227 139.99 383.992 141.834 385.517 143.365C387.042 144.895 388.89 145.659 391.054 145.659C393.201 145.659 395.043 144.892 396.579 143.359C398.113 141.823 398.882 139.981 398.882 137.834ZM400.173 137.834C400.173 140.339 399.28 142.486 397.493 144.273C395.706 146.058 393.561 146.953 391.054 146.953C388.548 146.953 386.403 146.058 384.616 144.273C382.829 142.486 381.936 140.339 381.936 137.834C381.936 135.336 382.829 133.192 384.616 131.402C386.403 129.611 388.548 128.716 391.054 128.716C393.561 128.716 395.706 129.611 397.493 131.402C399.28 133.192 400.173 135.336 400.173 137.834Z" fill="#364A72"/>
</g>
<defs>
<linearGradient id="paint0_linear_730_18536" x1="243.522" y1="95.1735" x2="215.578" y2="95.1735" gradientUnits="userSpaceOnUse">
<stop stop-color="#706F71"/>
<stop offset="0.3989" stop-color="#CEC9C7"/>
<stop offset="1" stop-color="#CEC9C7"/>
</linearGradient>
<linearGradient id="paint1_linear_730_18536" x1="237.282" y1="96.2118" x2="232.182" y2="96.2118" gradientUnits="userSpaceOnUse">
<stop stop-color="#817F7F"/>
<stop offset="0.9594" stop-color="#9B9696"/>
<stop offset="1" stop-color="#9B9696"/>
</linearGradient>
<linearGradient id="paint2_linear_730_18536" x1="229.622" y1="100.957" x2="192.694" y2="100.957" gradientUnits="userSpaceOnUse">
<stop stop-color="#706F71"/>
<stop offset="0.3989" stop-color="#D5D1D0"/>
<stop offset="1" stop-color="#D5D1D0"/>
</linearGradient>
<linearGradient id="paint3_linear_730_18536" x1="211.521" y1="104.858" x2="187.59" y2="118.786" gradientUnits="userSpaceOnUse">
<stop stop-color="#706F71"/>
<stop offset="0.3989" stop-color="#DDDAD8"/>
<stop offset="1" stop-color="#DDDAD8"/>
</linearGradient>
<linearGradient id="paint4_linear_730_18536" x1="209.503" y1="109.177" x2="204.974" y2="113.183" gradientUnits="userSpaceOnUse">
<stop stop-color="#817F7F"/>
<stop offset="0.9594" stop-color="#9B9696"/>
<stop offset="1" stop-color="#9B9696"/>
</linearGradient>
<linearGradient id="paint5_linear_730_18536" x1="199.026" y1="114.84" x2="180.413" y2="135.295" gradientUnits="userSpaceOnUse">
<stop stop-color="#706F71"/>
<stop offset="0.3989" stop-color="#DDDAD8"/>
<stop offset="1" stop-color="#DDDAD8"/>
</linearGradient>
<linearGradient id="paint6_linear_730_18536" x1="198.393" y1="120.076" x2="195.475" y2="124.099" gradientUnits="userSpaceOnUse">
<stop stop-color="#817F7F"/>
<stop offset="0.9594" stop-color="#9B9696"/>
<stop offset="1" stop-color="#9B9696"/>
</linearGradient>
<linearGradient id="paint7_linear_730_18536" x1="279.909" y1="213.906" x2="303.619" y2="199.659" gradientUnits="userSpaceOnUse">
<stop stop-color="#706F71"/>
<stop offset="0.3989" stop-color="#DDDAD8"/>
<stop offset="1" stop-color="#DDDAD8"/>
</linearGradient>
<linearGradient id="paint8_linear_730_18536" x1="283.554" y1="211.814" x2="288.198" y2="208.562" gradientUnits="userSpaceOnUse">
<stop stop-color="#817F7F"/>
<stop offset="0.9594" stop-color="#9B9696"/>
<stop offset="1" stop-color="#9B9696"/>
</linearGradient>
<linearGradient id="paint9_linear_730_18536" x1="223.43" y1="101.077" x2="217.857" y2="102.818" gradientUnits="userSpaceOnUse">
<stop stop-color="#817F7F"/>
<stop offset="0.9594" stop-color="#9B9696"/>
<stop offset="1" stop-color="#9B9696"/>
</linearGradient>
<linearGradient id="paint10_linear_730_18536" x1="262.057" y1="217.577" x2="298.929" y2="217.577" gradientUnits="userSpaceOnUse">
<stop stop-color="#706F71"/>
<stop offset="0.3989" stop-color="#D5D1D0"/>
<stop offset="1" stop-color="#D5D1D0"/>
</linearGradient>
<linearGradient id="paint11_linear_730_18536" x1="267.886" y1="219.08" x2="274.62" y2="217.221" gradientUnits="userSpaceOnUse">
<stop stop-color="#817F7F"/>
<stop offset="0.9594" stop-color="#9B9696"/>
<stop offset="1" stop-color="#9B9696"/>
</linearGradient>
<linearGradient id="paint12_linear_730_18536" x1="248.102" y1="223.43" x2="276.043" y2="223.43" gradientUnits="userSpaceOnUse">
<stop stop-color="#706F71"/>
<stop offset="0.3989" stop-color="#CEC9C7"/>
<stop offset="1" stop-color="#CEC9C7"/>
</linearGradient>
<linearGradient id="paint13_linear_730_18536" x1="250.632" y1="223.404" x2="258.943" y2="223.404" gradientUnits="userSpaceOnUse">
<stop stop-color="#817F7F"/>
<stop offset="0.2657" stop-color="#817F7F"/>
<stop offset="1" stop-color="#9B9696"/>
</linearGradient>
<linearGradient id="paint14_linear_730_18536" x1="233.177" y1="221.841" x2="259.959" y2="229.52" gradientUnits="userSpaceOnUse">
<stop stop-color="#706F71"/>
<stop offset="0.3989" stop-color="#C6C1BF"/>
<stop offset="1" stop-color="#C6C1BF"/>
</linearGradient>
<linearGradient id="paint15_linear_730_18536" x1="237.733" y1="223.228" x2="243.305" y2="224.853" gradientUnits="userSpaceOnUse">
<stop stop-color="#817F7F"/>
<stop offset="0.9594" stop-color="#9B9696"/>
<stop offset="1" stop-color="#9B9696"/>
</linearGradient>
<linearGradient id="paint16_linear_730_18536" x1="221.06" y1="216.526" x2="243.361" y2="232.729" gradientUnits="userSpaceOnUse">
<stop stop-color="#706F71"/>
<stop offset="0.3989" stop-color="#BEB9B8"/>
<stop offset="1" stop-color="#BEB9B8"/>
</linearGradient>
<linearGradient id="paint17_linear_730_18536" x1="223.473" y1="219.104" x2="227.654" y2="221.891" gradientUnits="userSpaceOnUse">
<stop stop-color="#817F7F"/>
<stop offset="0.4431" stop-color="#817F7F"/>
<stop offset="1" stop-color="#9B9696"/>
</linearGradient>
<linearGradient id="paint18_linear_730_18536" x1="208.508" y1="207.036" x2="224.383" y2="231.482" gradientUnits="userSpaceOnUse">
<stop stop-color="#706F71"/>
<stop offset="0.3989" stop-color="#B7B2B0"/>
<stop offset="1" stop-color="#B7B2B0"/>
</linearGradient>
<linearGradient id="paint19_linear_730_18536" x1="209.24" y1="210.447" x2="214.582" y2="216.951" gradientUnits="userSpaceOnUse">
<stop stop-color="#817F7F"/>
<stop offset="0.4069" stop-color="#817F7F"/>
<stop offset="1" stop-color="#9B9696"/>
</linearGradient>
<linearGradient id="paint20_linear_730_18536" x1="196.606" y1="194.88" x2="208.762" y2="218.737" gradientUnits="userSpaceOnUse">
<stop stop-color="#706F71"/>
<stop offset="0.3672" stop-color="#B7B2B0"/>
<stop offset="1" stop-color="#B7B2B0"/>
</linearGradient>
<linearGradient id="paint21_linear_730_18536" x1="258.403" y1="96.8139" x2="231.627" y2="89.1358" gradientUnits="userSpaceOnUse">
<stop stop-color="#706F71"/>
<stop offset="0.3989" stop-color="#C6C1BF"/>
<stop offset="1" stop-color="#C6C1BF"/>
</linearGradient>
<linearGradient id="paint22_linear_730_18536" x1="252.832" y1="95.1417" x2="247.429" y2="93.5732" gradientUnits="userSpaceOnUse">
<stop stop-color="#817F7F"/>
<stop offset="0.9594" stop-color="#9B9696"/>
<stop offset="1" stop-color="#9B9696"/>
</linearGradient>
<linearGradient id="paint23_linear_730_18536" x1="270.452" y1="102.145" x2="248.155" y2="85.9453" gradientUnits="userSpaceOnUse">
<stop stop-color="#706F71"/>
<stop offset="0.3989" stop-color="#BEB9B8"/>
<stop offset="1" stop-color="#BEB9B8"/>
</linearGradient>
<linearGradient id="paint24_linear_730_18536" x1="268.753" y1="99.988" x2="262.306" y2="95.8063" gradientUnits="userSpaceOnUse">
<stop stop-color="#817F7F"/>
<stop offset="0.3822" stop-color="#817F7F"/>
<stop offset="1" stop-color="#9B9696"/>
</linearGradient>
<linearGradient id="paint25_linear_730_18536" x1="283.069" y1="111.793" x2="267.068" y2="87.1531" gradientUnits="userSpaceOnUse">
<stop stop-color="#706F71"/>
<stop offset="0.3989" stop-color="#B7B2B0"/>
<stop offset="1" stop-color="#B7B2B0"/>
</linearGradient>
<linearGradient id="paint26_linear_730_18536" x1="281.657" y1="107.615" x2="278.522" y2="103.609" gradientUnits="userSpaceOnUse">
<stop stop-color="#817F7F"/>
<stop offset="0.5577" stop-color="#817F7F"/>
<stop offset="1" stop-color="#9B9696"/>
</linearGradient>
<linearGradient id="paint27_linear_730_18536" x1="294.778" y1="123.762" x2="282.625" y2="99.91" gradientUnits="userSpaceOnUse">
<stop stop-color="#706F71"/>
<stop offset="0.3672" stop-color="#B7B2B0"/>
<stop offset="1" stop-color="#B7B2B0"/>
</linearGradient>
</defs>
</svg>
