<svg width="480" height="320" viewBox="0 0 480 320" fill="none" xmlns="http://www.w3.org/2000/svg">
<path fill-rule="evenodd" clip-rule="evenodd" d="M95.5964 90.0519C95.4308 90.0519 95.2656 90.0489 95.2656 90.217C95.1 90.3827 95.1 90.5478 95.2656 90.5478C96.4279 91.8757 98.593 94.3687 101.086 97.8554C105.407 104.004 110.88 113.143 113.205 124.113C113.536 125.441 113.718 126.767 114.05 128.097C114.05 128.097 114.051 122.613 113.389 115.63V115.135C113.389 115.135 113.205 115.135 113.205 114.969C112.708 109.483 111.38 103.176 109.22 98.0216C109.055 98.0216 109.055 97.856 109.055 97.856C109.055 97.6932 108.89 97.5287 108.89 97.3606C108.722 97.0292 108.559 96.8647 108.559 96.6996C108.394 96.5339 108.394 96.5345 108.394 96.3688C108.06 95.7008 107.734 95.0298 107.237 94.3676C106.738 93.5362 106.228 92.8634 105.732 92.2006C105.732 92.2006 105.732 92.0355 105.566 92.0355L101.086 91.0443L95.5964 90.0519ZM71.5062 98.5164C71.5062 98.5164 71.3411 98.5164 71.1754 98.6821C69.6789 100.181 65.3602 104.84 64.198 106.338C64.0323 106.338 64.0329 106.501 64.0329 106.669C64.1986 106.669 64.1974 106.816 64.3631 106.816C66.8562 107.647 88.6238 115.134 101.086 125.269C101.752 125.766 102.404 126.272 102.904 126.94H103.069C104.566 128.265 105.91 129.761 106.907 131.255C106.907 131.255 104.742 127.924 101.086 123.103C95.2692 115.963 85.4709 105.656 73.3423 99.5082C72.8453 99.1768 72.1713 98.8501 71.5062 98.5164ZM56.2106 128.262C55.8793 128.262 55.5496 128.592 55.5496 128.923C55.5496 131.582 55.3845 136.901 55.3845 138.397V138.728H55.7153L59.8829 138.563L79.3103 138.232L101.087 137.902L103.584 137.736C103.584 137.736 102.58 137.57 101.087 137.075C93.4412 135.08 70.8499 129.427 59.8829 128.428C58.3893 128.262 57.2077 128.262 56.2106 128.262ZM105.566 145.21C104.401 146.038 103.241 146.876 101.747 147.542C101.579 147.713 101.252 147.872 101.086 147.872C87.1273 154.689 64.6998 155.348 60.2137 155.51C60.048 155.51 59.8829 155.507 59.8829 155.676V156.006L64.859 165.316C65.0247 165.481 65.1893 165.481 65.3549 165.481C66.1858 165.315 67.1864 165.154 68.0172 164.985C82.6388 162.158 94.7721 153.849 101.086 149.029C103.911 146.705 105.566 145.21 105.566 145.21Z" fill="#4D5258"/>
<path fill-rule="evenodd" clip-rule="evenodd" d="M130.993 137.902C130.827 137.734 130.493 137.734 130.327 137.902C130.162 138.065 129.997 138.065 129.665 138.231C126.841 139.893 120.858 139.893 119.692 139.893H119.195C119.195 139.893 127.337 144.711 129.997 145.71C129.997 145.878 129.997 145.878 130.162 145.878V145.71C130.493 145.042 131.159 139.73 131.159 138.23C131.159 138.065 131.159 137.902 130.993 137.902H130.993ZM90.1179 176.45C89.7829 176.619 89.4521 176.947 89.1208 177.281L89.2865 177.113C87.4591 178.441 86.2934 179.44 85.4626 179.937C85.4626 179.937 85.2969 180.105 85.2969 180.274C85.4626 180.274 85.4626 180.44 85.4626 180.44L96.0975 183.761L96.2662 183.927C96.2662 183.927 96.2662 183.761 96.4289 183.761C98.2598 182.098 100.087 180.105 101.249 178.609C102.081 177.612 102.912 176.45 103.743 175.288L104.074 174.622C111.885 163.156 114.378 148.201 114.709 146.21C114.378 147.203 113.047 150.528 109.723 155.348C103.577 164.818 95.4353 172.129 90.1179 176.45ZM127.834 125.109C129.165 123.777 129.665 122.778 129.831 122.615V122.278C129.665 121.284 128.334 116.129 126.84 113.139C126.672 112.974 126.506 112.974 126.341 112.974C126.175 112.974 126.007 113.139 126.007 113.308L125.676 114.639C125.176 117.96 124.013 123.608 120.858 131.251L120.692 131.753L121.023 131.417C124.348 128.927 126.672 126.602 127.834 125.108" fill="#EE2722"/>
<path fill-rule="evenodd" clip-rule="evenodd" d="M354.989 164.159L347.167 165.316V166.142C349.831 166.305 350.49 166.973 350.49 170.126V195.392H354.989V164.159ZM424.432 164.159L416.628 165.316V166.142C419.284 166.305 419.952 166.973 419.952 170.126V177.453C419.286 176.128 418.127 174.626 415.472 174.294C414.969 174.126 414.628 174.129 414.131 174.129C408.151 174.129 405.831 179.773 405.831 185.422C405.831 190.902 408.155 195.887 413.801 195.887C414.466 195.887 414.969 195.722 415.472 195.722C417.63 195.223 419.123 193.728 419.952 192.894V195.392H424.432V164.159ZM226.697 167.152L222.217 171.136V174.625H218.728V176.442H222.217V190.067C222.217 195.216 224.708 195.887 229.029 195.887C230.026 195.887 231.025 195.723 232.022 195.392V193.739C231.523 193.899 230.851 193.886 230.351 193.886C226.861 193.886 226.697 192.57 226.697 189.406V176.442H232.518V174.625H226.697L226.697 167.152ZM340.52 167.152L336.039 171.136V174.625H332.551V176.442H336.039V190.067C336.039 195.216 338.533 195.887 342.851 195.887C343.851 195.887 344.85 195.723 345.844 195.392V193.739C345.347 193.899 344.689 193.886 344.191 193.886C340.701 193.886 340.519 192.57 340.519 189.406V176.442H346.34V174.625H340.519L340.52 167.152ZM161.569 174.129C155.42 174.129 153.766 179.773 153.766 185.422C153.766 190.571 155.92 195.392 161.569 195.392C162.066 195.392 162.56 195.226 162.891 195.226C165.55 194.897 166.559 193.396 167.224 192.233V197.393C167.224 199.883 167.212 203.361 162.891 203.361C159.401 203.361 158.907 200.54 158.907 198.55H153.766C153.766 203.536 157.573 204.866 162.891 204.866H163.056C170.867 204.866 171.705 200.539 171.705 196.053V178.61C171.705 175.789 173.865 175.452 175.193 175.452V174.626H167.224V177.287C166.559 176.126 165.218 174.626 162.891 174.295C162.56 174.126 162.066 174.13 161.569 174.13V174.129ZM184.172 174.129L176.35 175.616V176.442C179.009 176.611 179.673 177.287 179.673 180.446V186.744C179.673 190.068 179.679 195.887 185.659 195.887C189.98 195.887 191.805 192.228 192.637 190.232V195.392H197.117V174.129L189.313 175.616V176.442C191.972 176.611 192.637 177.287 192.637 180.446V185.256C192.637 189.072 190.651 192.729 187.826 192.729C185.664 192.729 184.172 191.575 184.172 187.588L184.172 174.129ZM209.419 174.129C204.267 174.129 202.111 176.938 202.111 180.097C202.111 186.245 211.751 186.59 211.751 190.911C211.751 192.411 210.756 193.886 207.932 193.886C205.439 193.886 203.439 192.404 202.111 191.572V195.061C203.108 195.221 205.108 195.887 207.767 195.887C212.253 195.887 215.735 194.057 215.735 189.736C215.735 182.922 206.096 182.768 206.096 178.609C206.096 176.619 207.757 176.112 209.254 176.112C211.747 176.112 213.751 177.779 214.413 178.279V174.955C213.751 174.787 211.746 174.129 209.419 174.129ZM242.984 174.129C237.167 174.297 235.68 177.272 235.18 180.097H240.486C240.486 178.431 240.656 175.948 242.984 175.616H243.663C246.485 175.616 246.473 178.775 246.473 181.603V183.769C245.641 183.935 244.477 183.931 242.984 184.1C239.325 184.596 234.684 186.094 234.684 190.746C234.684 193.405 237.18 195.887 240.67 195.887C241.667 195.887 242.318 195.723 242.984 195.392C244.811 194.729 245.807 193.394 246.473 192.729V195.392H250.971V181.768C250.971 177.444 249.974 174.129 243.663 174.129H242.984ZM303.467 174.129C297.815 174.297 294.506 177.288 294.506 184.265C294.506 190.91 297.815 195.062 303.467 195.722C304.132 195.722 304.805 195.887 305.468 195.887C308.461 195.887 310.95 194.9 311.784 194.565V192.729C310.95 192.898 309.463 193.39 307.469 193.39C305.976 193.39 304.629 193.061 303.467 192.233C300.476 190.237 299.482 185.918 299.482 182.594H312.115C312.115 179.601 311.442 174.129 303.962 174.129H303.467ZM323.242 174.129C317.924 174.129 315.769 176.938 315.769 180.097C315.769 186.245 325.574 186.59 325.574 190.911C325.574 192.411 324.579 193.886 321.755 193.886C319.267 193.886 317.093 192.404 315.934 191.572V195.061C316.928 195.221 318.931 195.887 321.59 195.887C325.908 195.887 329.558 194.057 329.558 189.736C329.558 182.922 319.753 182.768 319.753 178.609C319.753 176.619 321.583 176.112 322.911 176.112C325.402 176.112 327.576 177.779 328.236 178.279V174.955C327.576 174.787 325.564 174.129 323.242 174.129ZM368.448 174.129C362.465 174.297 361.126 177.272 360.626 180.097H365.951C365.951 178.431 366.12 175.948 368.448 175.616H368.943C371.768 175.616 371.771 178.775 371.771 181.603V183.769C371.103 183.935 369.778 183.931 368.447 184.1C364.793 184.596 360.13 186.094 360.13 190.746C360.13 193.405 362.629 195.887 366.116 195.887C366.953 195.887 367.782 195.723 368.447 195.392C370.275 194.729 371.271 193.394 371.771 192.729V195.392H376.251V181.768C376.251 177.444 375.255 174.129 368.943 174.129H368.448ZM387.708 174.129L379.74 175.616V176.442C382.561 176.611 383.229 177.287 383.229 180.446V195.392H387.709V184.43C387.709 181.271 390.206 177.104 393.199 177.104C396.189 177.104 396.192 180.282 396.192 183.769V195.392H400.507V180.446C400.507 176.953 399.187 174.129 395.201 174.129C390.712 174.129 388.374 178.27 387.709 179.766L387.708 174.129ZM303.467 175.616H303.632C307.621 175.616 307.635 179.779 307.635 180.941H299.482C299.482 179.276 300.308 175.785 303.466 175.616H303.467ZM162.542 176.626C162.655 176.617 162.771 176.626 162.891 176.626H163.056C165.884 176.626 167.224 179.27 167.224 182.098V186.578C167.224 188.911 166.546 192.726 162.891 192.894H162.726C159.07 192.894 158.576 187.919 158.576 184.761C158.576 181.709 159.039 176.922 162.542 176.626ZM414.92 176.626C415.043 176.617 415.177 176.626 415.307 176.626H415.471C419.627 176.626 419.952 181.261 419.952 183.586V185.422C419.952 187.912 419.627 193.39 415.472 193.39H415.306C411.157 193.39 410.808 188.25 410.808 184.761C410.808 181.709 411.128 176.922 414.92 176.626ZM246.473 185.422V188.083C246.473 190.74 245.144 192.893 242.984 193.39H242.323C240.661 193.39 239.661 192.064 239.661 189.902C239.661 187.58 241.32 186.417 242.984 185.917C244.31 185.583 245.807 185.422 246.473 185.422ZM371.772 185.422V188.083C371.772 190.74 370.61 192.893 368.448 193.39H367.622C365.96 193.39 364.96 192.064 364.96 189.902C364.96 187.58 366.621 186.417 368.449 185.917C369.779 185.583 371.104 185.422 371.772 185.422Z" fill="#173A78"/>
<path fill-rule="evenodd" clip-rule="evenodd" d="M131.989 165.316V166.307C133.816 166.644 135.478 166.649 135.478 168.474C135.478 168.808 134.982 170.305 134.651 171.136L125.837 195.391H128.665L131.989 186.083H143.299L146.604 195.391H151.268L140.472 165.316H137.644H131.989ZM251.467 165.316V166.307C255.285 166.976 255.611 166.984 256.608 171.136L262.263 195.391H266.413L273.225 171.632H273.39L281.047 195.391H285.362L291.678 165.316H288.685L283.857 189.571H283.691L275.722 165.316H272.564L265.587 189.571H265.422L259.601 165.316H251.467ZM137.479 170.971L137.644 171.301L142.62 183.934H132.65L137.479 170.971Z" fill="#EE2722"/>
<path fill-rule="evenodd" clip-rule="evenodd" d="M328.401 210.173C323.918 210.173 321.92 214.002 321.92 217.995C321.92 221.813 323.752 225.964 328.236 225.964C331.395 225.964 333.207 223.978 333.873 220.987L332.22 220.657C331.718 222.648 330.563 224.476 328.236 224.476C326.577 224.476 325.407 223.305 324.747 221.979C324.248 220.814 324.086 219.325 324.086 218.16C324.086 215.335 324.915 211.678 328.236 211.678C330.563 211.678 331.558 213.504 332.055 215.332L333.873 215.002C333.207 212.18 331.391 210.173 328.401 210.173ZM131.989 210.337L126.847 225.798H128.5L129.822 221.318H135.643L137.148 225.798H139.131L134.155 210.338H132.815L131.989 210.337ZM152.425 210.337V225.798H154.426V218.491H160.742V217.003H154.426V212.009H161.9V210.338L152.425 210.337ZM166.049 210.337V212.339H168.051V210.338L166.049 210.337ZM278.385 210.337V212.339H280.368V210.338L278.385 210.337ZM132.815 212.339L135.147 219.813H130.501L132.815 212.504V212.339ZM178.847 214.01C177.185 214.01 175.859 214.993 175.193 216.489V214.341H173.522V225.798H175.358V219.813C175.358 218.645 175.519 217.648 176.185 216.654C176.85 215.989 177.685 215.498 178.517 215.498C179.348 215.498 180.184 215.989 180.518 216.654C180.85 217.148 180.848 217.996 180.848 218.656V225.798H182.666V219.482C182.666 218.317 182.67 216.822 182.005 215.828C181.343 214.66 180.175 214.01 178.847 214.01ZM192.967 214.01C191.473 214.01 190.141 215.161 189.644 216.489H189.479V214.341H187.991V225.798H189.644V219.317C189.644 218.32 189.823 217.317 190.489 216.654C190.819 215.989 191.64 215.498 192.472 215.498C193.302 215.498 193.976 215.989 194.473 216.654C194.807 217.148 194.803 217.993 194.803 218.491V225.798H196.621V219.647C196.621 218.485 196.454 217.648 197.117 216.82C197.616 215.989 198.452 215.498 199.449 215.498C200.114 215.498 200.951 215.989 201.285 216.654C201.616 217.317 201.615 218.155 201.615 218.986V225.798H203.433V218.986C203.433 217.992 203.437 216.66 202.772 215.663C202.275 214.664 201.109 214.01 199.944 214.01C198.117 214.01 196.956 215.157 196.29 216.82C195.959 215.157 194.632 214.01 192.967 214.01ZM213.238 214.01C209.914 214.176 208.097 216.99 208.097 220.143C208.097 223.299 209.748 225.964 213.238 225.964C215.4 225.964 217.402 224.799 218.232 222.64L216.561 222.31C216.062 223.635 214.9 224.642 213.403 224.642H213.239C212.076 224.473 210.907 223.799 210.411 222.806C210.079 221.974 210.08 221.137 210.08 220.143H218.397C218.397 216.99 216.893 214.01 213.239 214.01H213.238ZM227.377 214.01C223.886 214.01 222.382 217.15 222.382 220.143C222.382 223.139 223.887 225.964 227.212 225.964C229.702 225.964 231.36 224.304 231.692 221.979L230.021 221.814C229.852 223.307 228.87 224.476 227.212 224.476C224.884 224.476 224.218 221.809 224.218 219.978C224.218 217.99 224.884 215.498 227.377 215.498C229.039 215.498 229.852 216.829 230.021 218.325L231.692 217.995C231.36 215.667 229.867 214.01 227.377 214.01ZM240.321 214.01C236.997 214.01 235.51 217.15 235.51 220.143C235.51 223.139 236.997 225.964 240.321 225.964C242.814 225.964 244.317 224.304 244.82 221.979L243.149 221.814C242.818 223.307 241.986 224.476 240.321 224.476C237.997 224.476 237.346 221.809 237.346 219.978C237.346 217.99 237.996 215.498 240.486 215.498C242.149 215.498 242.986 216.829 243.149 218.325L244.82 217.995C244.486 215.667 242.814 214.01 240.321 214.01ZM253.633 214.01C251.637 214.176 249.301 214.991 248.97 217.15L250.641 217.481C250.975 215.99 252.3 215.498 253.633 215.498H253.798C255.789 215.498 256.608 216.169 256.608 218.16V218.656H255.121C254.618 218.656 254.128 218.653 253.633 218.821C252.637 218.821 251.634 218.982 250.806 219.317C249.475 219.977 248.639 221.141 248.639 222.64C248.639 224.799 250.462 225.964 252.623 225.964H253.634C254.962 225.798 255.94 224.965 256.608 223.631L256.957 225.798H258.609C258.444 225.133 258.444 224.298 258.444 223.467V218.986C258.444 217.656 258.45 216.166 257.452 215.167C256.622 214.167 255.114 214.01 253.945 214.01L253.633 214.01ZM269.075 214.01C267.413 214.01 266.252 214.993 265.587 216.489H265.422V214.341H263.751V225.798H265.587V219.813C265.587 218.645 265.745 217.648 266.413 216.654C267.079 215.989 267.916 215.498 268.91 215.498C269.573 215.498 270.412 215.989 270.746 216.654C271.078 217.148 271.077 217.996 271.077 218.656V225.798H272.895V219.482C272.895 218.317 272.896 216.822 272.399 215.828C271.565 214.66 270.404 214.01 269.076 214.01H269.075ZM290.007 214.01C286.686 214.01 285.197 217.15 285.197 220.143C285.197 223.139 286.686 225.964 290.008 225.964C292.501 225.964 294.003 224.304 294.506 221.979L292.835 221.814C292.504 223.307 291.672 224.476 290.007 224.476C287.514 224.476 287.015 221.809 287.015 219.978C287.015 217.99 287.683 215.498 290.008 215.498C291.672 215.498 292.672 216.829 292.835 218.325L294.506 217.995C294.003 215.667 292.501 214.01 290.008 214.01H290.007ZM303.301 214.01C301.311 214.176 298.987 214.991 298.656 217.15L300.308 217.481C300.642 215.99 301.807 215.498 303.301 215.498H303.466C305.457 215.498 306.294 216.169 306.294 218.16V218.656H304.807C304.31 218.656 303.798 218.653 303.301 218.821C302.307 218.821 301.323 218.982 300.492 219.317C299.161 219.977 298.325 221.141 298.325 222.64C298.325 224.799 300.145 225.964 302.31 225.964H303.301C304.632 225.798 305.628 224.965 306.294 223.631L306.459 225.798H308.295C308.13 225.133 308.131 224.298 308.131 223.467V218.986C308.131 217.656 308.117 216.166 307.12 215.167C306.286 214.167 304.794 214.01 303.632 214.01L303.301 214.01ZM343.348 214.01C339.858 214.176 338.206 216.825 338.206 219.978C338.206 222.973 339.693 225.964 343.183 225.964H343.347C346.672 225.964 348.507 223.142 348.507 219.978C348.507 216.993 346.837 214.01 343.348 214.01ZM358.312 214.01C356.65 214.01 355.489 215.161 354.823 216.489V214.341H353.152V225.798H354.989V219.317C354.989 218.32 354.984 217.317 355.65 216.654C356.147 215.989 356.983 215.498 357.651 215.498C358.479 215.498 359.303 215.989 359.634 216.654C359.969 217.148 359.965 217.993 359.965 218.491V225.798H361.801V219.647C361.801 218.485 361.799 217.648 362.462 216.82C362.964 215.989 363.794 215.498 364.629 215.498C365.457 215.498 366.112 215.989 366.612 216.654C366.949 217.317 366.776 218.155 366.776 218.986V225.798H368.613V218.986C368.613 217.992 368.617 216.66 368.117 215.663C367.452 214.664 366.29 214.01 365.124 214.01C363.46 214.01 362.136 215.157 361.471 216.82C361.136 215.157 359.977 214.01 358.312 214.01ZM379.41 214.01C379.244 214.01 379.085 214.01 378.914 214.175C377.423 214.175 376.421 215.161 375.756 216.489V214.341H374.085V229.617H375.921V223.981C376.586 225.143 377.586 225.964 378.914 225.964H379.41C380.906 225.964 382.233 225.143 382.733 223.981C383.398 222.818 383.725 221.309 383.725 219.978C383.725 217.322 382.568 214.01 379.41 214.01ZM392.538 214.01C390.545 214.176 388.227 214.991 387.892 217.15L389.545 217.481C389.879 215.99 391.044 215.498 392.538 215.498H392.703C394.694 215.498 395.531 216.169 395.531 218.16V218.656H394.044C393.541 218.656 393.035 218.653 392.538 218.821C391.544 218.821 390.544 218.982 389.71 219.317C388.385 219.977 387.543 221.141 387.543 222.64C387.543 224.799 389.382 225.964 391.546 225.964H392.538C393.868 225.798 394.865 224.965 395.531 223.631L395.696 225.798H397.514C397.346 225.133 397.184 224.298 397.184 223.467V218.986C397.184 217.656 397.188 216.166 396.357 215.167C395.523 214.167 394.034 214.01 392.868 214.01L392.538 214.01ZM407.98 214.01C406.323 214.01 404.991 214.993 404.326 216.489V214.341H402.673V225.798H404.491V219.813C404.491 218.645 404.67 217.648 405.336 216.654C406.001 215.989 406.816 215.498 407.649 215.498C408.484 215.498 409.314 215.989 409.651 216.654C409.982 217.148 409.981 217.996 409.981 218.656V225.798H411.818V219.482C411.818 218.317 411.819 216.822 411.156 215.828C410.488 214.66 409.308 214.01 407.98 214.01ZM166.049 214.341V225.798H167.885V214.341H166.049ZM278.55 214.341V225.798H280.202V214.341H278.55ZM415.141 214.341L419.126 225.633C418.626 226.961 418.288 228.461 416.463 228.461C416.131 228.461 415.637 228.295 415.306 228.295V229.617C415.806 229.78 416.131 229.948 416.629 229.948C417.625 229.948 418.297 229.782 418.96 228.956C419.631 228.291 419.788 227.789 420.117 226.955L424.615 214.341H423.11L419.952 222.971L416.959 214.341H415.141ZM213.238 215.498C215.4 215.498 216.396 216.996 216.396 218.986H210.08C210.08 217.156 211.411 215.498 213.238 215.498ZM343.182 215.498H343.348C344.341 215.498 345.18 215.989 345.68 216.82C346.345 217.816 346.506 218.984 346.506 219.978C346.506 220.98 346.344 221.974 345.845 222.971C345.348 223.967 344.507 224.642 343.348 224.642H343.183C342.186 224.642 341.185 223.983 340.685 223.154C340.185 222.32 340.024 220.98 340.024 219.978C340.024 219.152 340.185 217.986 340.685 217.15C341.185 216.159 342.186 215.498 343.183 215.498H343.182ZM378.914 215.663C381.244 215.663 381.907 218.153 381.907 219.978C381.907 221.14 381.742 222.32 381.246 223.154C380.746 223.983 379.916 224.642 378.914 224.642C377.257 224.473 375.921 222.981 375.921 220.987V218.49C376.252 216.997 377.423 215.663 378.914 215.663ZM255.286 219.978H256.608V220.823C256.608 222.65 255.458 224.307 253.633 224.642H253.119C251.788 224.642 250.64 224.134 250.64 222.64C250.64 220.981 252.134 220.309 253.633 220.143C254.127 219.975 254.789 219.978 255.286 219.978ZM304.807 219.978H306.294V220.823C306.294 222.65 305.129 224.307 303.301 224.642H302.64C301.478 224.642 300.143 224.134 300.143 222.64C300.143 220.981 301.807 220.309 303.301 220.143C303.798 219.975 304.473 219.978 304.807 219.978ZM394.044 219.978H395.531V220.823C395.531 222.65 394.369 224.307 392.538 224.642H391.877C390.714 224.642 389.38 224.134 389.38 222.64C389.38 220.981 391.044 220.309 392.538 220.143C393.035 219.975 393.541 219.978 394.044 219.978Z" fill="#4D5258"/>
</svg>
