<svg width="480" height="320" viewBox="0 0 480 320" fill="none" xmlns="http://www.w3.org/2000/svg">
<path d="M201.721 57.0845C176.347 65.1777 152.723 86.6122 128.444 110.017C97.383 111.767 63.9171 124.238 60.4173 125.769C96.0715 144.143 104.6 152.671 104.6 152.671C104.6 152.671 93.0059 186.357 90.8185 208.231C98.9118 188.982 114.224 162.299 123.411 149.612C110.068 138.894 86.0078 127.738 86.0078 127.738C86.0078 127.738 105.257 119.424 143.973 117.455C143.973 117.455 160.161 86.3952 201.721 57.0845V57.0845ZM179.189 84.8623C175.689 92.5181 169.128 108.927 168.034 121.176C195.158 123.364 213.751 129.486 213.751 129.486C213.751 129.486 186.191 139.987 170.88 152.017C173.723 158.798 179.846 178.484 183.346 193.795C177.44 188.327 159.502 173.673 146.596 166.017C129.535 172.579 82.0705 219.386 55.3846 262.915C66.9777 250.885 100.662 212.607 146.596 185.046C156.002 190.514 199.533 219.168 199.533 219.168C199.533 219.168 189.909 168.421 186.409 156.828C199.971 147.422 223.155 134.736 244.81 128.174C214.625 115.925 177.22 112.862 177.22 112.862C177.22 112.862 176.346 103.236 179.189 84.8623Z" fill="#3FBBEF"/>
<path d="M231.25 173.015C231.25 173.015 224.907 183.514 224.688 184.17C224.032 184.17 220.095 184.389 220.095 184.389V190.079H224.248V206.92C224.248 210.639 225.343 213.701 227.093 215.67C229.062 217.638 231.686 218.733 234.967 218.733C236.498 218.733 238.029 218.734 239.56 218.514C241.091 218.295 242.405 218.076 243.498 217.638L243.717 217.42V211.293L243.063 211.512C242.407 211.731 241.75 211.952 241.094 211.952C240.438 212.171 239.564 212.171 238.689 212.171C237.158 212.171 236.063 211.733 235.625 211.077C235.188 210.421 234.75 209.109 234.75 207.578V190.079H243.935V183.953H234.75V173.016H231.25L231.25 173.015ZM411.926 173.015C411.926 173.015 405.583 183.514 405.364 184.17C404.708 184.17 400.771 184.389 400.771 184.389V190.079H404.928V206.92C404.928 210.639 405.801 213.701 407.769 215.67C409.738 217.638 412.362 218.733 415.643 218.733C417.174 218.733 418.709 218.734 420.24 218.514C421.771 218.295 423.081 218.076 424.175 217.638L424.393 217.42V211.293L423.74 211.512C423.083 211.731 422.426 211.952 421.77 211.952C421.114 212.171 420.24 212.171 419.365 212.171C417.834 212.171 416.739 211.733 416.302 211.077C415.864 210.421 415.426 209.109 415.426 207.578V190.079H424.615V183.953H415.426V173.016H411.926V173.015ZM351.991 182.858C347.398 182.858 344.118 183.735 341.93 185.704C339.743 187.672 338.649 190.076 338.649 192.919C338.649 195.544 339.307 197.949 340.401 199.699C341.494 201.449 343.9 202.763 347.181 203.638C351.337 204.732 352.865 205.606 353.303 206.044C353.959 206.7 354.397 207.355 354.397 208.449C354.397 209.542 353.961 210.202 352.867 210.858C351.773 211.515 350.022 211.952 347.835 211.952C346.085 211.952 344.338 211.732 342.588 211.076C340.838 210.639 339.524 209.98 338.649 209.542L337.991 209.324L337.773 209.542V216.763L337.991 216.981C338.866 217.637 340.18 218.074 342.148 218.293C344.117 218.73 346.087 218.733 348.274 218.733C353.743 218.733 357.681 217.639 360.087 215.452C362.493 213.265 363.804 210.637 363.804 207.356C364.023 204.731 363.148 202.326 361.617 200.576C360.085 198.826 357.462 197.295 353.525 196.201C350.681 195.326 348.709 194.669 347.835 194.232C347.178 193.794 346.741 193.142 346.741 192.267C346.741 191.392 347.182 190.953 348.057 190.297C349.15 189.86 350.459 189.421 352.209 189.421C353.74 189.421 355.274 189.638 357.024 189.857C357.68 190.076 358.337 190.078 358.993 190.297L361.617 184.829L361.398 184.61C360.085 183.954 358.772 183.513 357.241 183.294C355.71 183.075 353.959 182.858 351.991 182.858H351.991ZM265.808 183.294C263.84 183.294 261.871 183.953 260.34 184.828L260.121 185.047C259.027 185.703 258.154 186.798 257.498 187.892C257.498 186.361 257.279 183.953 257.279 183.953H246.996V218.293H257.715V196.641C257.715 194.454 258.809 192.702 260.778 191.609C261.653 191.171 262.747 190.733 263.841 190.733H264.06C265.372 190.733 266.683 191.169 267.777 192.044L268.217 192.484L271.716 185.264C270.184 183.952 268.213 183.295 265.807 183.295L265.808 183.294ZM285.059 183.294C282.215 183.294 279.808 183.515 277.621 183.952C276.965 184.171 276.09 184.388 275.433 184.388L271.934 192.266L272.153 192.484L272.593 192.266C273.905 191.61 275.218 191.169 276.968 190.732C278.499 190.294 280.467 190.078 282.654 190.078C284.623 190.078 285.935 190.516 287.029 191.172C287.904 191.828 288.558 192.701 288.558 193.795V196.2C287.902 195.763 287.246 195.544 286.371 195.107C285.059 194.669 283.526 194.453 282.214 194.453C277.621 194.453 273.902 195.543 271.277 197.512C268.434 199.699 267.125 202.765 267.125 206.484V207.137C267.125 211.075 268.215 213.918 270.184 215.887C272.152 217.855 275.436 218.732 279.373 218.732C281.123 218.732 282.434 218.512 283.965 218.074L287.247 210.858L287.028 210.636C285.934 211.292 284.841 211.73 283.529 211.73C281.998 211.73 280.465 211.292 279.59 210.636C278.715 209.98 278.06 208.671 278.06 206.484V205.826C278.06 203.857 278.496 202.326 279.59 201.451C280.465 200.576 281.998 200.139 283.529 200.139C285.279 200.139 286.807 200.575 287.682 201.669C288.557 202.544 288.997 204.076 288.997 205.826V218.514H299.276V195.983C298.839 191.608 297.525 188.326 295.337 186.357C293.15 184.389 289.652 183.294 285.059 183.294ZM325.089 183.294C322.683 183.294 320.495 183.735 318.745 184.61L315.024 192.701L316.34 192.044C317.433 191.606 318.744 191.39 320.056 191.39C321.15 191.39 321.805 191.61 322.68 192.266C323.336 192.703 323.556 193.797 323.556 195.547V218.732H334.274V194.453C334.274 190.297 333.4 187.454 331.869 185.704C330.119 183.954 327.933 183.294 325.089 183.294ZM384.802 183.294C381.958 183.294 379.551 183.515 377.364 183.952C376.708 184.171 375.833 184.388 375.177 184.388L371.678 192.044L371.896 192.266L372.336 192.044C373.43 191.387 374.961 190.952 376.711 190.514C378.242 190.077 380.21 189.856 382.397 189.856C384.366 189.856 385.678 190.294 386.772 190.95C387.647 191.606 388.302 192.484 388.302 193.577V195.983C387.646 195.545 386.989 195.326 386.114 194.889C384.802 194.451 383.274 194.231 381.962 194.231C377.368 194.231 373.65 195.325 371.025 197.294C368.181 199.481 366.868 202.543 366.868 206.261V206.919C366.868 210.857 367.962 213.7 369.931 215.669C371.9 217.637 375.179 218.514 379.116 218.514C380.866 218.514 382.397 218.294 383.709 217.856L386.99 210.636L386.771 210.417C385.678 211.074 384.585 211.511 383.272 211.511C381.741 211.511 380.208 211.074 379.334 210.417C378.459 209.761 377.804 208.448 377.804 206.261V205.825C377.804 203.856 378.24 202.325 379.334 201.45C380.208 200.575 381.741 200.139 383.272 200.139C385.022 200.139 386.336 200.574 387.429 201.668C388.304 202.543 388.741 204.075 388.741 205.825V218.513H399.02V195.982C398.801 191.607 397.49 188.325 395.303 186.356C393.116 184.388 389.614 183.293 384.802 183.293V183.294ZM302.776 183.952V218.292H313.494V183.952H302.776Z" fill="#002855"/>
<path d="M292.714 133.86C290.308 133.86 288.122 135.828 288.122 138.453C288.122 141.078 290.089 143.05 292.714 143.05C295.339 143.05 297.307 140.859 297.307 138.453C297.307 135.828 295.339 133.86 292.714 133.86ZM262.091 134.518L246.998 173.015H255.529L258.592 165.359H273.464L276.527 173.015H285.059L269.965 134.518H262.091ZM266.03 145.455L270.841 158.139H261.216L266.03 145.455ZM317.211 145.674C314.368 145.674 311.963 146.769 310.431 148.519V146.11H302.776V173.016H310.649V161.861C310.649 156.174 313.712 153.33 318.087 153.33H319.399V145.674H317.211ZM288.776 146.11V173.016H296.653V146.11H288.776Z" fill="#3FBBEF"/>
</svg>
