<svg width="480" height="320" viewBox="0 0 480 320" fill="none" xmlns="http://www.w3.org/2000/svg">
<path d="M261.415 81.9451C252.098 85.1009 239.83 90.2978 227.18 95.0883C234.194 98.3333 241.103 101.38 246.599 103.852C264.425 96.5706 278.092 92.4835 278.092 92.4835C278.092 92.4835 275.869 98.2378 266.257 112.723C270.894 114.784 276.645 117.214 280.357 118.379C293.92 99.7326 302.578 82.6997 296.773 76.876C295.771 75.8661 294.495 74.7634 290.714 74.7634C286.08 74.7634 277.682 76.4207 261.415 81.9451Z" fill="url(#paint0_linear_730_18502)"/>
<path d="M240.749 153.806C245.505 157.467 249.048 155.543 252.776 152.766C252.419 153.106 252.056 153.442 251.688 153.771C256.634 149.586 262.767 143.141 271.512 132.361C266.895 129.584 262.287 126.833 258.528 124.596L240.749 153.806Z" fill="url(#paint1_linear_730_18502)"/>
<path d="M176.907 78.7334C176.57 78.7515 176.281 78.7784 175.982 78.7604C175.604 78.7424 174.907 79.3132 174.907 79.3132C158.727 88.8211 206.855 165.902 228.217 180.168C231.182 182.146 236.586 184.29 241.345 182.728C241.898 182.546 243.103 181.637 243.158 181.573C247.896 176.08 252.626 170.579 257.347 165.071C257.169 163.767 255.852 164.543 255.693 164.656C250.19 168.659 245.371 166.419 230.536 151.346C214.737 135.312 199.421 107.251 199.421 107.251L270.592 139.307C275.312 141.431 277.962 140.223 279.336 139.334C279.715 139.089 292.603 123.566 292.603 123.566C292.689 122.487 291.489 123.085 291.489 123.085C287.339 125.687 284.177 123.747 277.465 121.05C272.936 119.231 225.227 98.1423 208.232 90.0789C186.422 79.7343 180.426 78.7 177.773 78.7C177.484 78.6966 177.195 78.7087 176.907 78.7361" fill="url(#paint2_linear_730_18502)"/>
<path d="M231.437 205.038C231.841 205.038 232.294 205.02 232.808 205.011C233.3 204.983 233.793 205.035 234.268 205.167C234.699 205.266 235.097 205.471 235.43 205.762C235.732 206.048 235.878 206.497 235.878 207.111V228.32C235.878 230.722 235.436 232.919 234.549 234.943C233.648 236.943 232.436 238.677 230.919 240.124C229.386 241.568 227.604 242.688 225.547 243.505C223.502 244.313 221.297 244.72 218.934 244.72C216.577 244.72 214.363 244.312 212.292 243.505C210.219 242.688 208.421 241.568 206.894 240.124C205.383 238.677 204.165 236.943 203.268 234.943C202.374 232.919 201.926 230.722 201.926 228.32C201.926 224.739 201.935 221.214 201.955 217.716C201.984 214.22 201.99 210.683 201.99 207.111C201.99 206.617 202.162 206.236 202.509 205.978C202.851 205.714 203.269 205.536 203.758 205.428C204.253 205.336 204.754 205.276 205.257 205.25C205.765 205.232 206.177 205.214 206.504 205.214C206.946 205.214 207.48 205.366 208.087 205.64C208.699 205.923 208.998 206.356 208.998 206.922V226.785C208.998 228.3 209.217 229.722 209.636 231.061C210.069 232.397 210.706 233.596 211.564 234.63C212.421 235.67 213.457 236.487 214.694 237.095C215.941 237.712 217.353 238.021 218.934 238.021C220.521 238.021 221.934 237.712 223.172 237.095C224.379 236.512 225.451 235.682 226.317 234.659C227.166 233.644 227.803 232.46 228.232 231.099C228.668 229.703 228.886 228.248 228.877 226.786V207.04C228.877 206.308 229.148 205.796 229.698 205.494C230.228 205.192 230.828 205.034 231.438 205.036M257.707 244.786C254.939 244.786 252.198 244.267 249.475 243.221C246.749 242.19 244.37 240.691 242.334 238.745C242.155 238.549 242.013 238.323 241.914 238.078C241.8 237.827 241.738 237.555 241.733 237.279C241.733 236.913 241.892 236.509 242.22 236.062C242.561 235.595 242.95 235.165 243.38 234.779C243.806 234.392 244.276 234.055 244.781 233.777C245.27 233.516 245.693 233.383 246.062 233.383C246.59 233.383 247.185 233.624 247.856 234.114C248.527 234.601 249.338 235.136 250.296 235.727C251.256 236.322 252.344 236.859 253.591 237.346C254.831 237.823 256.301 238.077 258.009 238.077C258.9 238.077 259.889 237.996 260.964 237.823C261.999 237.686 263.007 237.389 263.951 236.942C264.843 236.545 265.626 235.94 266.235 235.177C266.842 234.432 267.155 233.487 267.155 232.342C267.155 231.296 266.794 230.46 266.086 229.846C265.376 229.235 264.437 228.774 263.283 228.443C262.125 228.118 260.805 227.866 259.316 227.683C257.81 227.494 256.308 227.28 254.81 227.04C253.29 226.793 251.783 226.47 250.296 226.07C248.814 225.663 247.49 225.065 246.336 224.311C245.17 223.526 244.209 222.475 243.53 221.245C242.818 219.998 242.464 218.382 242.464 216.435C242.464 214.39 242.974 212.657 243.992 211.193C245.002 209.735 246.31 208.507 247.831 207.593C249.373 206.664 251.079 205.97 252.952 205.522C254.822 205.067 256.607 204.851 258.312 204.851C259.492 204.851 260.725 204.943 262.033 205.131C263.332 205.312 264.614 205.594 265.869 205.976C267.131 206.368 268.337 206.876 269.496 207.497C270.653 208.132 271.661 208.877 272.513 209.726C272.638 209.807 272.739 209.993 272.823 210.299C272.902 210.611 272.943 210.846 272.943 211.002C272.943 211.492 272.781 211.963 272.457 212.409C272.127 212.856 271.739 213.257 271.302 213.601C270.849 213.943 270.357 214.231 269.835 214.457C269.304 214.675 268.821 214.787 268.375 214.787C268.02 214.789 267.668 214.727 267.335 214.602C265.956 213.423 264.504 212.494 262.978 211.825C261.451 211.162 259.778 210.824 257.946 210.824C257.18 210.824 256.311 210.915 255.357 211.075C254.444 211.216 253.559 211.502 252.736 211.921C251.961 212.315 251.276 212.865 250.725 213.538C250.175 214.205 249.898 215.051 249.898 216.072C249.898 217.488 250.511 218.506 251.73 219.107C252.952 219.72 254.471 220.169 256.302 220.455C258.13 220.742 260.112 220.999 262.246 221.244C264.374 221.492 266.365 221.975 268.194 222.686C270.02 223.398 271.544 224.457 272.762 225.878C273.983 227.307 274.594 229.333 274.594 231.986C274.594 234.181 274.06 236.08 273.007 237.679C271.962 239.277 270.592 240.637 268.986 241.672C267.354 242.734 265.551 243.52 263.556 244.019C261.566 244.521 259.613 244.785 257.707 244.785M306.394 205.702C307.084 205.702 307.558 205.998 307.823 206.589C308.087 207.181 308.223 207.732 308.223 208.257C308.223 208.546 308.21 208.925 308.185 209.393C308.171 209.859 308.101 210.322 307.976 210.772C307.854 211.205 307.66 211.591 307.396 211.889C307.133 212.198 306.757 212.344 306.274 212.344H298.712C298.061 212.344 297.536 212.487 297.122 212.751C296.718 213.012 296.518 213.53 296.518 214.3L296.578 242.405C296.578 242.978 296.429 243.404 296.12 243.684C295.809 243.971 295.429 244.172 295.017 244.266C294.569 244.361 294.112 244.4 293.655 244.381C293.162 244.354 292.71 244.354 292.306 244.354C291.744 244.354 291.13 244.217 290.48 243.957C289.829 243.689 289.507 243.191 289.507 242.461V213.99C289.507 213.465 289.344 213.045 289.018 212.722C288.775 212.518 288.175 212.378 287.22 212.324C286.213 212.258 285.204 212.225 284.195 212.225C283.23 212.224 282.265 212.248 281.301 212.297C280.805 212.32 280.309 212.338 279.813 212.351C279.036 212.351 278.521 212.062 278.257 211.474C277.998 210.908 277.863 210.293 277.86 209.67V208.487C277.858 208.042 277.92 207.6 278.044 207.173C278.154 206.786 278.355 206.432 278.629 206.139C278.886 205.859 279.265 205.709 279.755 205.709L306.394 205.702ZM424.615 240.94C424.615 241.758 424.459 242.451 424.16 243.004C423.855 243.589 423.231 243.87 422.3 243.87H396.15C395.781 243.87 395.416 243.647 395.053 243.189C394.684 242.76 394.496 242.362 394.496 242.044V206.858C394.496 206.298 394.652 205.872 394.96 205.582C395.272 205.295 395.647 205.085 396.055 204.969C396.501 204.846 396.962 204.783 397.425 204.783H398.708C399.395 204.783 400.009 204.923 400.536 205.19C401.064 205.448 401.472 205.947 401.755 206.679V233.862C401.755 234.311 401.809 234.708 401.907 235.058C402.009 235.395 402.226 235.739 402.549 236.06C403.157 236.795 403.924 237.157 404.862 237.157H422.484C422.965 237.157 423.356 237.294 423.642 237.561C423.929 237.827 424.149 238.158 424.285 238.526C424.424 238.919 424.515 239.328 424.555 239.743C424.594 240.141 424.614 240.54 424.615 240.939M136.398 219.91C135.393 224.647 129.366 224.529 129.366 224.529H121.299C119.801 224.405 119.712 222.907 119.712 222.907V213.683C119.744 212.703 120.44 212.703 120.44 212.703H121.84C123.908 212.685 125.979 212.739 128.045 212.709C130.352 212.691 133.05 212.436 134.907 214.106C135.919 215.009 136.411 216.532 136.532 217.855C136.594 218.544 136.549 219.237 136.398 219.911M146.72 243.834L138.485 229.398C138.516 229.402 138.155 228.668 138.692 228.327C146.847 223.028 143.215 212.916 143.215 212.916C140.899 205.562 131.23 205.663 131.23 205.663H115.275C112.676 205.636 112.765 207.477 112.765 207.477V242.45C112.765 242.45 112.644 244.807 114.292 244.95H115.392V244.944C116.875 244.944 118.64 244.95 118.64 244.95C120.29 244.807 120.167 242.45 120.167 242.45V232.395C120.113 231.921 120.803 231.972 120.803 231.972C121.112 231.972 129.35 231.699 130.724 232.275C131.335 232.532 132.019 233.178 132.407 233.747C132.409 233.747 137.919 242.955 137.919 242.955C138.339 243.659 138.812 244.257 139.44 244.771C140.035 245.258 140.724 245.24 141.466 245.233C142.713 245.197 143.969 245.237 145.213 245.237C147.207 245.119 146.72 243.834 146.72 243.834ZM338.762 219.91C337.763 224.647 331.738 224.529 331.738 224.529H323.668C322.171 224.405 322.081 222.907 322.081 222.907V213.683C322.11 212.703 322.806 212.703 322.806 212.703H324.209C326.274 212.685 328.348 212.739 330.418 212.709C332.724 212.691 335.425 212.436 337.279 214.106C338.285 215.009 338.777 216.532 338.908 217.855C338.967 218.544 338.918 219.238 338.762 219.911M349.093 243.834L340.858 229.398C340.883 229.402 340.521 228.668 341.058 228.327C349.22 223.028 345.587 212.916 345.587 212.916C343.269 205.562 333.605 205.663 333.605 205.663H317.644C315.048 205.636 315.134 207.477 315.134 207.477V242.45C315.134 242.45 315.02 244.807 316.664 244.95H317.771V244.944C319.241 244.944 321.009 244.95 321.009 244.95C322.66 244.807 322.539 242.45 322.539 242.45V232.395C322.485 231.921 323.17 231.972 323.17 231.972C323.481 231.972 331.726 231.699 333.097 232.275C333.707 232.532 334.391 233.178 334.776 233.747C334.779 233.747 340.285 242.955 340.285 242.955C340.705 243.659 341.185 244.257 341.806 244.771C342.403 245.258 343.094 245.24 343.834 245.233C345.081 245.197 346.335 245.237 347.582 245.237C349.576 245.119 349.093 243.834 349.093 243.834ZM78.1692 230.117C77.9465 230.344 77.6913 230.459 77.4028 230.459H69.5874C69.3042 230.459 69.05 230.344 68.8237 230.118C68.7199 230.02 68.6371 229.902 68.5802 229.772C68.5233 229.641 68.4936 229.5 68.4928 229.358C68.4928 229.237 68.6839 228.69 69.0716 227.707C69.4593 226.737 69.8867 225.671 70.351 224.503C70.8154 223.356 71.2635 222.258 71.6927 221.215C72.1228 220.187 72.3924 219.544 72.5168 219.306C72.7143 219.052 73.0253 218.934 73.4329 218.934H73.4807V218.943H73.5068L73.5131 218.934H73.5672C73.9711 218.934 74.2732 219.051 74.477 219.306C74.6041 219.545 74.8809 220.187 75.3038 221.215C75.7239 222.258 76.1784 223.356 76.6427 224.503C77.1143 225.671 77.5372 226.737 77.9249 227.707C78.3099 228.69 78.501 229.237 78.501 229.357C78.501 229.641 78.3865 229.898 78.1701 230.118M91.5514 242.885L76.4299 206.802C76.2298 206.313 75.7681 206.011 75.0594 205.896C74.5488 205.799 74.0322 205.738 73.5131 205.711H73.4807C72.9631 205.737 72.4479 205.799 71.9388 205.896C71.2256 206.011 70.7667 206.313 70.5638 206.802L55.4423 242.886C55.4009 242.931 55.3846 243.035 55.3846 243.187C55.3846 243.607 55.5496 243.903 55.8715 244.072C56.1961 244.266 56.5838 244.38 57.0292 244.453C57.4774 244.498 57.9354 244.516 58.3997 244.498C58.874 244.489 59.2464 244.471 59.5295 244.471C60.1855 244.465 60.8386 244.384 61.4762 244.23C62.211 244.067 62.7231 243.657 62.9999 243.001L65.1368 237.88C65.3095 237.551 65.5491 237.261 65.8401 237.029C66.1445 236.793 66.5205 236.667 66.9059 236.673H80.0897C80.475 236.668 80.8506 236.793 81.1555 237.029C81.4445 237.262 81.6826 237.552 81.8551 237.881L83.9893 243.002C84.2724 243.657 84.7846 244.067 85.5158 244.23C86.2443 244.395 86.8899 244.471 87.4661 244.471C87.7492 244.471 88.1279 244.489 88.5922 244.498C89.0629 244.516 89.5146 244.498 89.9663 244.453C90.4117 244.381 90.7994 244.266 91.1204 244.072C91.4513 243.903 91.6109 243.607 91.6109 243.188C91.6109 243.035 91.5857 242.929 91.5505 242.885M186.222 230.117C186.125 230.224 186.007 230.31 185.875 230.369C185.743 230.427 185.6 230.458 185.456 230.459H177.641C177.355 230.459 177.107 230.344 176.878 230.118C176.655 229.899 176.54 229.64 176.54 229.358C176.54 229.237 176.738 228.69 177.122 227.707C177.552 226.64 177.979 225.572 178.404 224.503C178.869 223.356 179.318 222.258 179.743 221.215C180.173 220.187 180.446 219.544 180.567 219.306C180.771 219.052 181.076 218.934 181.483 218.934H181.531V218.943H181.56L181.566 218.934H181.617C182.021 218.934 182.326 219.051 182.533 219.306C182.657 219.545 182.93 220.187 183.357 221.215C183.782 222.258 184.228 223.356 184.699 224.503C185.166 225.671 185.592 226.737 185.978 227.707C186.363 228.69 186.56 229.237 186.56 229.357C186.56 229.641 186.442 229.898 186.222 230.118M199.601 242.885L184.483 206.802C184.279 206.313 183.825 206.011 183.113 205.896C182.602 205.799 182.085 205.738 181.566 205.711H181.531C181.012 205.738 180.495 205.799 179.985 205.896C179.276 206.011 178.821 206.313 178.614 206.802L163.495 242.886C163.458 242.931 163.441 243.035 163.441 243.187C163.441 243.607 163.597 243.903 163.922 244.072C164.253 244.266 164.634 244.38 165.083 244.453C165.534 244.498 165.992 244.516 166.45 244.498C166.924 244.489 167.299 244.471 167.583 244.471C168.241 244.464 168.896 244.383 169.536 244.23C170.264 244.067 170.774 243.657 171.053 243.001L173.187 237.88C173.361 237.551 173.6 237.262 173.891 237.029C174.196 236.792 174.573 236.667 174.959 236.673H188.144C188.528 236.668 188.902 236.794 189.206 237.029C189.495 237.263 189.734 237.553 189.909 237.881L192.037 243.002C192.326 243.657 192.836 244.067 193.564 244.23C194.298 244.395 194.944 244.471 195.52 244.471C195.8 244.471 196.176 244.489 196.64 244.498C197.113 244.516 197.569 244.498 198.014 244.453C198.465 244.381 198.847 244.266 199.174 244.072C199.499 243.903 199.665 243.607 199.665 243.188C199.665 243.035 199.646 242.929 199.601 242.885ZM376.028 230.117C375.805 230.344 375.55 230.459 375.267 230.459H367.449C367.17 230.459 366.908 230.344 366.686 230.118C366.463 229.899 366.348 229.64 366.348 229.358C366.348 229.237 366.549 228.69 366.936 227.707L368.209 224.503C368.68 223.356 369.125 222.258 369.557 221.215C369.978 220.187 370.257 219.544 370.378 219.306C370.579 219.052 370.884 218.934 371.291 218.934H371.335V218.943H371.371L371.373 218.934H371.427C371.831 218.934 372.14 219.051 372.341 219.306C372.462 219.545 372.741 220.187 373.165 221.215C373.588 222.258 374.03 223.356 374.507 224.503C374.981 225.671 375.404 226.737 375.789 227.707C376.17 228.69 376.361 229.237 376.361 229.357C376.361 229.641 376.253 229.898 376.028 230.118M389.409 242.885L374.294 206.802C374.094 206.313 373.629 206.011 372.917 205.896C372.408 205.799 371.892 205.737 371.374 205.711H371.335C370.816 205.738 370.3 205.8 369.789 205.896C369.086 206.011 368.625 206.313 368.421 206.802L353.306 242.886C353.268 242.931 353.246 243.035 353.246 243.187C353.246 243.607 353.405 243.903 353.733 244.072C354.063 244.266 354.445 244.38 354.887 244.453C355.342 244.498 355.797 244.516 356.257 244.498C356.726 244.489 357.11 244.471 357.391 244.471C358.049 244.464 358.704 244.383 359.344 244.23C360.068 244.067 360.581 243.657 360.864 243.001L362.998 237.88C363.171 237.552 363.409 237.263 363.698 237.029C364.003 236.794 364.378 236.668 364.763 236.673H377.947C378.351 236.673 378.714 236.794 379.013 237.029C379.304 237.261 379.543 237.551 379.716 237.881L381.85 243.002C382.136 243.657 382.642 244.067 383.38 244.23C384.109 244.395 384.757 244.471 385.321 244.471C385.609 244.471 385.985 244.489 386.447 244.498C386.92 244.516 387.378 244.498 387.824 244.453C388.273 244.381 388.657 244.266 388.982 244.072C389.31 243.903 389.472 243.607 389.472 243.188C389.472 243.035 389.456 242.929 389.408 242.885M103.938 242.854C103.938 244.001 103.038 244.921 101.937 244.921H98.7538C97.6492 244.921 96.7521 244.001 96.7521 242.854V207.639C96.7521 206.485 97.6492 205.559 98.7538 205.559H101.937C103.038 205.559 103.938 206.484 103.938 207.639V242.854Z" fill="#20294E"/>
<defs>
<linearGradient id="paint0_linear_730_18502" x1="189.68" y1="152.466" x2="282.895" y2="85.9473" gradientUnits="userSpaceOnUse">
<stop stop-color="#20294E"/>
<stop offset="0.5001" stop-color="#005695"/>
<stop offset="1" stop-color="#26B5E3"/>
</linearGradient>
<linearGradient id="paint1_linear_730_18502" x1="216.363" y1="163.538" x2="310.039" y2="104.695" gradientUnits="userSpaceOnUse">
<stop stop-color="#20294E"/>
<stop offset="1" stop-color="#005F9B"/>
</linearGradient>
<linearGradient id="paint2_linear_730_18502" x1="266.782" y1="159.156" x2="183.28" y2="71.1635" gradientUnits="userSpaceOnUse">
<stop stop-color="#20294E"/>
<stop offset="0.2951" stop-color="#005695"/>
<stop offset="0.9039" stop-color="#26B5E3"/>
<stop offset="1" stop-color="#26B5E3"/>
</linearGradient>
</defs>
</svg>
