<svg width="480" height="320" viewBox="0 0 480 320" fill="none" xmlns="http://www.w3.org/2000/svg">
<path fill-rule="evenodd" clip-rule="evenodd" d="M359.388 102.099C362.444 100.137 364.644 97.3179 366.792 94.447C366.691 94.6677 366.775 95.0763 366.743 95.3778V95.4767C366.659 95.9507 366.659 96.7679 366.743 97.2419V97.34C366.775 97.5688 366.677 97.9284 366.792 98.0755V98.1752C366.824 98.404 366.734 98.762 366.841 98.9107V99.0088C366.873 99.2392 366.775 99.5955 366.89 99.7443V99.8423C366.922 100.089 366.824 100.463 366.939 100.627V101.854C366.824 102.001 366.922 102.36 366.89 102.59V102.639C366.777 102.788 366.873 103.146 366.841 103.375C366.757 103.458 366.8 103.664 366.792 103.817C366.697 103.982 366.673 104.219 366.645 104.455C366.596 104.512 366.596 104.629 366.596 104.749C366.48 104.994 366.446 105.319 366.397 105.632C366.373 105.667 366.356 105.707 366.347 105.749C366.339 105.791 366.339 105.835 366.348 105.877C366.253 105.992 366.229 106.186 366.198 106.368C366.174 106.403 366.157 106.443 366.149 106.485C366.14 106.528 366.14 106.571 366.149 106.613C366.051 106.728 366.034 106.92 366.006 107.102C365.965 107.159 365.94 107.232 365.956 107.349C365.862 107.464 365.841 107.657 365.809 107.839C365.785 107.874 365.768 107.914 365.76 107.956C365.751 107.999 365.751 108.042 365.76 108.084C365.662 108.199 365.645 108.393 365.613 108.575C365.236 109.915 364.65 111.047 364.238 112.351C364.007 112.848 363.762 113.339 363.502 113.822V113.871C363.341 113.97 363.312 114.207 363.208 114.361V114.41C363.046 114.511 363.021 114.746 362.912 114.9V114.949C362.583 115.37 362.323 115.862 362.029 116.322V116.371C361.788 116.617 361.637 116.957 361.445 117.254V117.303C358.743 120.676 356.241 124.213 353.594 127.702C353.16 128.277 352.701 128.833 352.219 129.369C351.732 129.908 351.255 130.491 350.748 130.938C349.988 131.612 349.068 132.065 348.295 132.704C346.511 134.188 344.732 135.671 343.44 137.707V137.757C343.034 138.248 342.717 138.83 342.362 139.375V139.424C342.022 139.854 341.73 140.327 341.428 140.799C338.689 139.8 335.656 138.35 333.044 137.12C331.533 136.411 330.037 135.878 329.168 134.668C328.976 134.434 328.762 134.22 328.529 134.028C328.064 133.448 327.532 132.935 327.059 132.361C326.538 131.789 326.091 131.139 325.539 130.597C324.959 129.785 324.364 128.991 323.774 128.193V128.095C326.228 125.419 329.236 123.314 332.061 121.032C334.898 118.742 337.691 116.398 340.744 114.361C343.789 112.331 346.819 110.227 349.866 108.132C351.386 107.086 352.894 105.986 354.479 105.042C356.097 104.077 357.781 103.121 359.331 102.099H359.38" fill="#E65F3E"/>
<path fill-rule="evenodd" clip-rule="evenodd" d="M71.8572 224.281H79.3127C83.9407 235.611 88.5661 246.94 93.0944 258.37H86.2779C84.6729 254.465 83.0744 250.555 81.5201 246.599H68.326C69.3696 245.617 70.6028 244.821 71.7109 243.902H80.3441C78.5952 239.192 76.4835 234.419 74.6538 229.628C74.2721 230.143 74.022 230.751 73.7712 231.345C69.9899 240.304 66.0427 249.384 62.196 258.37H57.2412C61.9697 247.058 66.9531 235.583 71.858 224.281M98.9824 224.281H105.259C105.374 235.532 105.278 246.99 105.31 258.322C103.169 258.405 101.025 258.405 98.8836 258.322V224.428C98.8811 224.344 98.9203 224.303 98.9816 224.281M121.495 226.539V258.37C119.469 258.485 117.228 258.387 115.119 258.419C115.039 247.04 115.039 235.659 115.119 224.28H130.08C130.248 224.47 130.741 224.337 131.06 224.378C131.304 224.443 131.597 224.462 131.894 224.477C132.086 224.563 132.333 224.595 132.581 224.624H132.631C135.679 225.479 137.906 227.163 138.86 230.119C138.892 230.446 138.945 230.749 139.007 231.048V231.932C138.943 232.292 138.871 232.647 138.811 233.01C137.82 235.767 135.439 237.129 132.678 238.115C132.445 238.106 132.314 238.204 132.139 238.262C131.838 238.312 131.542 238.393 131.257 238.503H131.208C130.719 238.552 130.323 238.7 129.834 238.75C129.999 239.021 130.46 239.218 130.816 239.438C133.24 240.921 135.308 243.122 136.702 245.716C137.523 247.242 138.272 248.74 139.203 250.176C140.099 251.567 141.123 252.906 142.147 254.198C146.293 259.444 150.954 263.819 157.548 266.609C157.075 266.725 156.387 266.625 155.83 266.658H155.684C155.535 266.545 155.178 266.641 154.947 266.609C154.643 266.535 154.294 266.511 153.918 266.511C153.714 266.437 153.453 266.421 153.182 266.415H153.133C152.981 266.333 152.772 266.319 152.545 266.314C152.483 266.248 152.332 266.265 152.203 266.265C152.081 266.191 151.905 266.172 151.711 266.167H151.662C151.346 266.039 150.957 265.992 150.583 265.921H150.534C150.325 265.823 150.057 265.778 149.799 265.728H149.751C149.634 265.632 149.44 265.609 149.26 265.581H149.21C141.232 263.138 135.859 258.463 132.14 251.651C129.802 247.362 128.235 241.985 122.969 240.614H122.92C122.818 240.502 122.555 240.549 122.429 240.468C122.83 239.64 123.169 238.753 123.654 238.013H124.047C124.311 238.097 124.914 238.097 125.177 238.013C125.624 238.019 125.97 237.923 126.303 237.817C128.782 237.042 130.476 235.48 131.258 233.01V232.961C131.464 232.528 131.519 231.682 131.405 231.097C131.417 230.912 131.383 230.726 131.307 230.557C130.65 228.337 128.753 227.352 126.404 226.83C125.787 226.678 125.139 226.553 124.391 226.535C124.306 226.423 124.016 226.519 123.85 226.486H123.753C123.443 226.374 122.92 226.47 122.527 226.437H121.496V226.535" fill="#5BBCE1"/>
<path fill-rule="evenodd" clip-rule="evenodd" d="M263.74 55.8937C263.931 55.8978 264.047 55.9803 264.181 56.0408C264.337 56.1634 264.556 56.2206 264.77 56.286C264.925 56.2614 264.961 56.3513 265.062 56.384C265.469 56.6054 265.896 56.7861 266.337 56.9234H266.386C266.497 57.0435 266.705 57.0615 266.874 57.1195C267.125 57.1522 267.307 57.2454 267.516 57.3173C268.256 57.6524 269.115 57.8763 269.92 58.1509C270.07 58.1443 270.151 58.2081 270.262 58.2489C270.466 58.4042 270.778 58.4483 271.046 58.5415C271.283 58.566 271.457 58.6534 271.634 58.7376C271.744 58.8569 271.955 58.8765 272.123 58.9346C272.277 58.9019 272.267 59.0179 272.42 58.9836C272.542 59.1209 272.814 59.1119 272.957 59.2288C273.472 59.4968 274.064 59.693 274.626 59.9136H274.675C274.812 60.0419 275.027 60.0893 275.216 60.1604H275.265C275.467 60.3189 275.747 60.399 276.003 60.5036H276.052C276.416 60.7423 276.859 60.9041 277.279 61.092H277.328C278.722 61.8398 280.187 62.5181 281.545 63.2985H281.594C292.656 69.7145 300.925 78.9238 307.589 89.7357C307.784 90.0814 308.026 90.3813 308.182 90.7678C308.285 90.9525 308.361 91.1715 308.521 91.3072V91.3562C309.034 92.2339 309.497 93.1582 310.042 94.004V94.053C310.287 94.4952 310.486 94.9822 310.779 95.3769V95.426C311.02 95.8411 311.173 96.3405 311.466 96.7009C311.49 96.7417 311.515 96.7826 311.515 96.8471C311.78 97.3505 312.008 97.894 312.301 98.3696C312.317 98.4628 312.405 98.493 312.399 98.614C312.563 99.0219 312.76 99.4158 312.988 99.7916V99.8406C313.084 100.118 313.215 100.382 313.378 100.626V100.675C313.443 100.886 313.544 101.084 313.675 101.262V101.311C313.72 101.49 313.803 101.657 313.919 101.801V101.85C313.968 102.028 314.051 102.194 314.164 102.339C314.222 102.512 314.356 102.604 314.36 102.83C314.717 103.652 315.04 104.505 315.441 105.283V105.332C315.514 105.524 315.555 105.74 315.685 105.873V105.922C315.827 106.273 315.927 106.661 316.128 106.952C316.297 107.37 316.496 107.762 316.618 108.229C316.683 108.44 316.739 108.663 316.862 108.816C316.887 108.918 316.982 108.956 316.96 109.11C317.079 109.45 317.174 109.812 317.352 110.092C317.463 110.358 317.592 110.604 317.645 110.925C317.71 111.095 317.727 111.305 317.846 111.416C317.887 111.457 317.871 111.55 317.942 111.563C317.909 111.713 318.026 111.705 317.991 111.857C318.064 112.074 318.099 112.339 318.236 112.494V112.544C318.309 112.761 318.342 113.022 318.481 113.181V113.23C318.591 113.544 318.653 113.908 318.824 114.162C318.865 114.202 318.881 114.272 318.873 114.358C319.211 115.379 319.526 116.42 319.903 117.398C319.944 117.508 320.008 117.589 320.001 117.741C320.061 118.047 320.161 118.344 320.298 118.624C320.331 118.673 320.348 118.736 320.348 118.821C320.374 119.028 320.44 119.228 320.544 119.41C320.628 119.552 320.632 119.778 320.738 119.901V120.097C320.764 120.304 320.831 120.504 320.934 120.685C321.084 121.124 321.233 121.563 321.327 122.058C321.392 122.339 321.443 122.626 321.571 122.843C321.684 123.188 321.811 123.522 321.867 123.922C321.899 124.102 321.916 124.298 322.013 124.412C322.078 124.445 322.021 124.602 322.111 124.608V124.805C322.16 125.08 322.212 125.358 322.355 125.541V125.59C322.531 126.051 322.715 126.505 322.995 126.865C323.069 126.987 323.167 127.084 323.19 127.257C323.374 127.563 323.521 127.908 323.781 128.139V128.188C324.371 128.987 324.966 129.78 325.546 130.593C326.044 131.189 326.491 131.836 327.066 132.358C327.54 132.93 328.071 133.444 328.536 134.024C328.728 134.257 328.942 134.471 329.175 134.664C330.045 135.874 331.54 136.406 333.051 137.116C335.663 138.345 338.696 139.795 341.435 140.795C341.509 140.819 341.562 140.868 341.634 140.892C341.743 141.011 341.954 141.031 342.126 141.088C342.323 141.105 342.455 141.181 342.611 141.235C342.795 141.338 342.996 141.405 343.205 141.431H343.254C343.494 141.613 344.053 141.632 344.286 141.431C344.548 141.35 344.804 141.266 345.119 141.235C345.621 141.15 346.134 141.074 346.59 140.943C346.631 140.935 346.639 140.894 346.688 140.894C346.895 140.869 347.125 140.869 347.278 140.796H347.618C347.89 140.788 348.152 140.771 348.356 140.698C348.46 140.608 348.717 140.665 348.896 140.649C349.723 140.6 350.59 140.575 351.395 140.501H351.444C353.032 140.501 354.529 140.591 356.008 140.698C356.305 140.691 356.602 140.725 356.89 140.797C357.274 140.902 357.729 140.939 358.167 140.993H358.412C358.453 141.002 358.461 141.042 358.507 141.042C358.631 141.116 358.807 141.139 359 141.142C359.184 141.141 359.367 141.174 359.539 141.239C359.701 141.337 359.939 141.359 360.176 141.387H360.418C360.721 141.529 361.136 141.557 361.454 141.681C361.739 141.82 362.088 141.892 362.434 141.975C362.613 141.959 362.705 142.032 362.823 142.073C363.313 142.288 363.866 142.44 364.394 142.612C364.844 142.719 365.221 142.897 365.622 143.054C365.989 143.278 366.436 143.417 366.848 143.593H366.897C367.043 143.707 367.211 143.79 367.389 143.838H367.438C371.564 145.695 374.597 148.648 378.526 150.706H378.575C378.659 150.817 378.951 150.722 379.115 150.755C379.296 150.772 379.55 150.714 379.654 150.804C379.72 150.917 379.994 150.821 380.147 150.853C380.457 150.853 380.732 150.886 380.98 150.951C381.406 151.066 381.911 151.099 382.398 151.148H382.456C382.889 151.268 383.378 151.332 383.874 151.393H384.171C384.187 151.503 384.427 151.396 384.462 151.491C384.739 151.593 385.067 151.64 385.393 151.686C385.603 151.678 385.745 151.735 385.885 151.785C386.069 151.873 386.268 151.923 386.471 151.933H386.528C386.865 152.067 387.266 152.141 387.656 152.225C387.825 152.184 387.842 152.299 387.999 152.274C388.228 152.356 388.445 152.447 388.734 152.471C388.854 152.578 389.082 152.578 389.225 152.667C389.515 152.815 389.87 152.9 390.204 153.011H390.253C390.363 153.129 390.574 153.146 390.746 153.205H390.795C391.225 153.434 391.712 153.599 392.171 153.794H392.22C392.767 154.161 393.664 154.443 394.036 154.825H393.638C393.505 154.712 393.164 154.809 392.954 154.776H392.905C392.43 154.694 391.89 154.675 391.335 154.678H391.286C391.038 154.564 390.582 154.661 390.253 154.629H390.204C389.829 154.514 389.239 154.612 388.78 154.58H388.731C386.586 154.495 384.092 154.487 382.011 154.629H381.962C381.668 154.661 381.244 154.563 381.03 154.678H380.981C380.716 154.711 380.33 154.612 380.148 154.727H380.099C379.901 154.76 379.577 154.661 379.461 154.776H379.412C379.232 154.809 378.922 154.711 378.824 154.825H378.775C378.395 154.823 378.039 154.841 377.743 154.923H377.694C377.207 154.93 376.76 154.972 376.368 155.068C376.285 155.152 376.08 155.109 375.924 155.118C375.647 155.115 375.388 155.134 375.189 155.216C374.95 155.284 374.702 155.317 374.453 155.314C374.225 155.314 374.015 155.338 373.862 155.41H373.813C373.525 155.435 373.242 155.459 373.026 155.559H372.977C372.366 155.632 371.779 155.735 371.26 155.9C371.202 155.973 371.029 155.932 370.963 156C370.783 155.967 370.755 156.083 370.574 156.049C370.234 156.098 369.902 156.164 369.64 156.294C369.583 156.335 369.513 156.36 369.398 156.343C369.159 156.384 368.924 156.428 368.761 156.539C368.383 156.671 368.008 156.801 367.581 156.883C367.317 156.978 366.999 157.02 366.794 157.177H366.745C366.243 157.344 365.736 157.508 365.321 157.766H365.272C365.062 157.832 364.864 157.931 364.687 158.06H364.638C363.816 158.414 363.087 158.864 362.383 159.335H362.334C362.083 159.492 361.749 159.564 361.553 159.776H361.504C361.19 159.967 360.786 160.071 360.521 160.314H360.471C360.134 160.502 359.751 160.643 359.439 160.854C359.398 160.886 359.347 160.903 359.295 160.903C358.886 161.067 358.491 161.264 358.114 161.493H358.065C357.855 161.559 357.658 161.658 357.48 161.787C357.304 161.844 357.212 161.98 356.987 161.984C356.344 162.256 355.675 162.501 355.075 162.817H355.026C354.787 162.907 354.528 162.972 354.34 163.112C354.236 163.136 354.198 163.234 354.04 163.21C353.7 163.326 353.351 163.436 353.063 163.602C352.798 163.712 352.549 163.842 352.227 163.895C352.01 163.977 351.745 164.005 351.589 164.142C351.548 164.183 351.483 164.191 351.393 164.191C351.131 164.283 350.814 164.328 350.608 164.485C350.257 164.605 349.928 164.748 349.53 164.829C349.225 164.888 348.928 164.987 348.648 165.121H348.599C348.342 165.164 348.094 165.247 347.863 165.368C347.304 165.548 346.763 165.738 346.146 165.857C345.846 165.915 345.546 165.98 345.312 166.102C345.279 166.175 345.125 166.11 345.116 166.2H345.067C344.914 166.175 344.897 166.29 344.727 166.249C344.545 166.282 344.352 166.298 344.234 166.398C344.104 166.447 343.974 166.498 343.796 166.494C343.079 166.662 342.354 166.818 341.683 167.033C341.573 167.118 341.339 167.082 341.245 167.181H341.196C340.991 167.191 340.79 167.241 340.605 167.329C340.32 167.297 340.21 167.455 339.918 167.427C339.618 167.476 339.324 167.517 339.085 167.623H339.036C338.722 167.672 338.398 167.704 338.154 167.819C338.113 167.827 338.105 167.868 338.056 167.868C337.791 167.864 337.647 167.982 337.369 167.966C337.035 167.991 336.705 168.057 336.386 168.162C336.329 168.219 336.216 168.219 336.092 168.211C335.841 168.222 335.593 168.272 335.357 168.358C335.316 168.366 335.308 168.407 335.259 168.407H335.013C334.728 168.432 334.445 168.456 334.226 168.554H334.177C333.485 168.646 332.8 168.746 332.162 168.897H332.113C331.888 168.902 331.68 168.922 331.527 168.995H331.478C331.127 169.019 330.782 169.052 330.495 169.143C330.141 169.226 329.78 169.275 329.417 169.29C328.792 169.339 328.17 169.42 327.554 169.534C326.577 169.686 325.581 169.819 324.513 169.877C324.175 169.884 323.846 169.902 323.581 169.975H323.532C323.38 170.008 323.107 169.91 323.04 170.024H322.991C322.842 170.057 322.569 169.959 322.499 170.073H322.45C322.301 170.106 322.028 170.008 321.961 170.123H321.912C321.529 170.131 321.148 170.147 320.83 170.22H320.781C320.325 170.221 319.883 170.236 319.507 170.318H319.458C319.274 170.351 318.968 170.252 318.866 170.367H318.817C318.604 170.4 318.263 170.301 318.13 170.416H318.081C317.833 170.449 317.458 170.351 317.297 170.465H317.248C317.001 170.498 316.627 170.4 316.464 170.514H316.415C316.171 170.547 315.797 170.449 315.632 170.563H315.583C315.434 170.596 315.161 170.498 315.093 170.612H315.044C314.893 170.645 314.62 170.547 314.555 170.661H314.506C314.357 170.694 314.083 170.596 314.016 170.71H313.967C313.821 170.743 313.546 170.645 313.478 170.759H313.429C313.104 170.761 312.798 170.784 312.549 170.86C312.225 170.925 311.896 170.957 311.566 170.957C311.253 170.954 310.963 170.973 310.732 171.055C310.64 171.142 310.408 171.088 310.243 171.104C309.818 171.12 309.42 171.161 309.066 171.251H309.017C308.757 171.255 308.514 171.276 308.33 171.351H308.281C308.023 171.352 307.78 171.367 307.593 171.447C307.511 171.531 307.307 171.488 307.155 171.496C306.894 171.498 306.651 171.521 306.469 171.594C305.884 171.711 305.293 171.793 304.699 171.84C304.475 171.842 304.265 171.864 304.114 171.938H304.065C303.841 171.939 303.632 171.962 303.478 172.036H303.429C303.031 172.062 302.637 172.128 302.252 172.232C302.186 172.297 302.041 172.281 301.909 172.281C301.694 172.279 301.506 172.297 301.369 172.379C301.336 172.387 301.32 172.428 301.273 172.428H301.028C300.548 172.485 300.062 172.544 299.655 172.675H299.606C299.414 172.676 299.236 172.699 299.118 172.772H299.069C298.877 172.776 298.701 172.796 298.581 172.869H298.532C298.281 172.879 298.033 172.929 297.798 173.018C297.741 173.075 297.622 173.075 297.504 173.067C297.252 173.077 297.003 173.127 296.767 173.216C296.628 173.306 296.353 173.257 296.227 173.362C296.105 173.356 295.989 173.354 295.935 173.411C295.67 173.408 295.526 173.527 295.247 173.509C294.853 173.574 294.445 173.623 294.118 173.754H294.069C293.836 173.779 293.595 173.803 293.431 173.903H293.382C293.15 173.928 292.912 173.952 292.747 174.05C292.54 174.152 292.217 174.143 292.01 174.245C291.806 174.254 291.606 174.305 291.421 174.393H291.175C290.971 174.403 290.771 174.453 290.587 174.54H290.538C290.269 174.567 290.005 174.632 289.756 174.736C289.622 174.785 289.497 174.839 289.313 174.834C288.517 175.001 287.722 175.174 287.008 175.424C286.81 175.489 286.619 175.557 286.371 175.57C286.191 175.603 285.995 175.619 285.877 175.717C285.82 175.758 285.749 175.783 285.633 175.766C285.45 175.799 285.261 175.815 285.142 175.913H285.093C284.914 175.945 284.722 175.962 284.605 176.059H284.556C284.377 176.092 284.183 176.108 284.067 176.206C283.901 176.302 283.644 176.308 283.479 176.402C283.271 176.394 283.215 176.531 282.99 176.5C282.596 176.6 282.19 176.68 281.862 176.843H281.813C281.606 176.87 281.406 176.937 281.225 177.039C280.96 177.168 280.608 177.208 280.341 177.334C280.192 177.301 280.198 177.419 280.049 177.383C279.792 177.425 279.543 177.508 279.313 177.63H279.264C278.763 177.755 278.272 177.919 277.796 178.12H277.747C277.237 178.296 276.674 178.421 276.227 178.658C276.115 178.698 276.034 178.762 275.881 178.756C275.616 178.851 275.305 178.896 275.098 179.05H275.049C274.832 179.123 274.568 179.158 274.412 179.295C274.371 179.336 274.278 179.328 274.267 179.393C274.117 179.36 274.121 179.478 273.967 179.442C273.799 179.499 273.591 179.516 273.48 179.638H273.431C273.22 179.704 272.998 179.761 272.842 179.883H272.793C272.578 179.949 272.36 180.006 272.201 180.129H272.152C271.938 180.194 271.72 180.253 271.566 180.374C271.143 180.545 270.753 180.742 270.289 180.864C270.097 180.938 269.881 180.983 269.748 181.111H269.699C269.041 181.369 268.374 181.615 267.788 181.944C267.526 182.092 267.213 182.188 266.954 182.337H266.856C266.431 182.52 265.99 182.683 265.628 182.925H265.579C265.269 183.039 264.972 183.187 264.695 183.366C264.653 183.4 264.601 183.417 264.548 183.415C263.628 183.85 262.692 184.269 261.849 184.787C261.727 184.828 261.658 184.921 261.508 184.934C260.188 185.61 258.825 186.243 257.533 186.945C257.44 186.97 257.412 187.05 257.291 187.043C256.587 187.354 255.899 187.698 255.227 188.073H255.178C254.769 188.237 254.375 188.434 253.999 188.663C253.958 188.696 253.906 188.713 253.853 188.712C253.478 188.86 253.117 189.04 252.774 189.251H252.725C252.448 189.349 252.184 189.481 251.94 189.643H251.891C251.581 189.757 251.285 189.905 251.007 190.085H250.958C250.505 190.287 250.03 190.466 249.632 190.722H249.583C249.372 190.788 249.172 190.887 248.993 191.017H248.944C248.734 191.084 248.536 191.183 248.358 191.311H248.309C248.13 191.36 247.963 191.444 247.818 191.558H247.769C247.591 191.605 247.425 191.688 247.281 191.802H247.231C246.907 191.938 246.564 192.05 246.299 192.243H246.25C246.072 192.291 245.905 192.375 245.76 192.489H245.711C245.134 192.743 244.529 192.969 243.999 193.274H243.95C243.691 193.378 243.413 193.457 243.213 193.618H243.164C242.908 193.721 242.628 193.802 242.429 193.961C242.327 194.01 242.233 194.061 242.132 194.108C241.505 194.33 240.97 194.646 240.318 194.843C239.984 194.983 239.624 195.097 239.337 195.285H239.288C239.097 195.358 238.883 195.402 238.75 195.53H238.7C238.509 195.603 238.295 195.648 238.161 195.776H238.112C237.92 195.849 237.706 195.892 237.571 196.021H237.522C237.331 196.095 237.114 196.137 236.983 196.266H236.934C236.742 196.34 236.525 196.384 236.393 196.511C236.136 196.616 235.91 196.75 235.606 196.806C235.094 197.012 234.542 197.178 234.086 197.444C233.668 197.613 233.276 197.812 232.809 197.934C232.513 198.029 232.216 198.125 231.976 198.277C231.873 198.302 231.837 198.398 231.681 198.376C231.385 198.47 231.089 198.564 230.848 198.719H230.799C230.5 198.814 230.204 198.908 229.965 199.062C229.862 199.155 229.655 199.144 229.571 199.259C229.122 199.364 228.746 199.542 228.346 199.7C227.976 199.787 227.711 199.98 227.318 200.044C226.799 200.229 226.262 200.396 225.798 200.633H225.749C225.577 200.69 225.37 200.714 225.26 200.829C225.22 200.87 225.124 200.853 225.112 200.927C224.965 200.894 224.966 201.01 224.816 200.976C224.647 201.033 224.438 201.049 224.328 201.172C224.287 201.213 224.215 201.221 224.131 201.221C223.962 201.278 223.75 201.295 223.642 201.417H223.593C223.377 201.491 223.113 201.524 222.958 201.662H222.909C222.694 201.744 222.426 201.77 222.274 201.908C222.233 201.948 222.161 201.965 222.077 201.957C221.809 202.051 221.496 202.096 221.29 202.251C221.25 202.292 221.181 202.308 221.094 202.3C220.781 202.411 220.415 202.471 220.163 202.643C220.005 202.7 219.873 202.777 219.672 202.79C218.062 203.323 216.431 203.836 214.865 204.409C214.816 204.45 214.755 204.458 214.671 204.458C214.316 204.534 213.97 204.649 213.64 204.8C213.591 204.841 213.529 204.857 213.441 204.849C213.185 204.893 212.937 204.975 212.705 205.094C212.665 205.135 212.596 205.143 212.511 205.143C212.303 205.17 212.102 205.237 211.919 205.34C211.878 205.381 211.811 205.389 211.726 205.389C211.519 205.416 211.32 205.482 211.139 205.585C210.805 205.698 210.493 205.824 210.107 205.88C209.9 205.907 209.701 205.974 209.52 206.076C209.345 206.133 209.211 206.228 208.98 206.224C208.702 206.289 208.41 206.343 208.194 206.467H208.145C207.868 206.532 207.577 206.587 207.36 206.714C207.295 206.763 207.18 206.763 207.115 206.812C206.316 207.027 205.506 207.231 204.761 207.5H204.563C204.383 207.532 204.187 207.549 204.073 207.648C204.049 207.713 203.883 207.653 203.877 207.746H203.681C203.501 207.778 203.306 207.795 203.191 207.891H203.142C202.959 207.924 202.766 207.94 202.65 208.038C202.614 208.063 202.574 208.08 202.532 208.088C202.49 208.096 202.446 208.096 202.404 208.087C202.163 208.136 201.894 208.169 201.718 208.284C201.661 208.325 201.588 208.35 201.471 208.333C201.228 208.382 200.962 208.415 200.785 208.532C200.727 208.573 200.655 208.597 200.54 208.581C200.296 208.63 200.031 208.663 199.855 208.777C199.819 208.801 199.779 208.818 199.737 208.826C199.695 208.835 199.652 208.835 199.609 208.826C199.366 208.875 199.101 208.908 198.924 209.023C198.656 209.105 198.399 209.188 198.088 209.218C197.621 209.294 197.162 209.409 196.714 209.561C196.45 209.643 196.195 209.728 195.881 209.758C195.414 209.834 194.954 209.949 194.506 210.101C194.449 210.142 194.377 210.166 194.262 210.15C194.058 210.16 193.858 210.21 193.673 210.298C193.616 210.363 193.441 210.331 193.38 210.397C193.175 210.407 192.975 210.457 192.79 210.544H192.546C192.342 210.554 192.141 210.603 191.955 210.689H191.906C191.672 210.714 191.435 210.738 191.266 210.837C190.748 210.971 190.237 211.112 189.648 211.18C189.415 211.204 189.178 211.229 189.013 211.328C188.956 211.385 188.839 211.385 188.718 211.377C188.405 211.426 188.081 211.458 187.835 211.574C187.101 211.737 186.367 211.902 185.577 212.013C185.244 212.039 184.915 212.105 184.598 212.21H184.549C184.297 212.221 184.048 212.271 183.811 212.357C183.754 212.415 183.638 212.415 183.518 212.406C183.326 212.411 183.148 212.431 183.028 212.501H182.979C182.693 212.526 182.41 212.55 182.193 212.65H182.144C181.953 212.653 181.776 212.674 181.653 212.749H181.604C181.317 212.773 181.034 212.798 180.818 212.896C180.745 212.987 180.497 212.901 180.426 212.996H180.182C179.784 213.037 179.39 213.086 179.052 213.188C178.987 213.261 178.838 213.237 178.709 213.237C178.41 213.248 178.113 213.298 177.826 213.384H177.777C177.549 213.389 177.343 213.408 177.189 213.484C177.124 213.55 176.975 213.533 176.844 213.533C176.507 213.558 176.177 213.591 175.913 213.68C175.558 213.762 175.197 213.812 174.834 213.829C174.482 213.854 174.14 213.886 173.853 213.976H173.803C173.544 213.976 173.301 214.001 173.117 214.071C173.044 214.153 172.863 214.12 172.723 214.12C172.465 214.123 172.224 214.145 172.039 214.218C171.635 214.301 171.224 214.35 170.812 214.365C169.517 214.492 168.227 214.627 166.984 214.807C166.881 214.896 166.626 214.839 166.447 214.856C165.92 214.872 165.425 214.913 164.974 215.005H164.925C164.555 215.008 164.194 215.021 163.894 215.101H163.845C163.271 215.111 162.697 215.16 162.129 215.248H162.08C161.898 215.281 161.592 215.182 161.489 215.297H161.442C161.246 215.33 160.92 215.232 160.805 215.346H160.756C160.558 215.379 160.235 215.281 160.118 215.395H160.068C159.514 215.395 158.976 215.411 158.498 215.493H158.448C157.839 215.501 157.23 215.518 156.683 215.589H156.635C156.323 215.621 155.884 215.523 155.654 215.638H155.605C153.923 215.67 152.246 215.711 150.602 215.785H145.598C144.943 215.671 144.078 215.768 143.342 215.736H143.292C142.47 215.662 141.584 215.646 140.694 215.639H140.644C140.416 215.527 139.974 215.623 139.664 215.59H139.613C139.419 215.478 139.009 215.574 138.731 215.541H138.682C138.534 215.428 138.176 215.525 137.947 215.492H137.898C137.45 215.41 136.943 215.397 136.425 215.394H136.378C136.277 215.281 135.971 215.378 135.789 215.345H135.74C135.64 215.232 135.332 215.329 135.15 215.296H135.102C135.002 215.182 134.694 215.28 134.514 215.247H134.465C134.397 215.133 134.122 215.231 133.973 215.198H133.924C133.856 215.085 133.582 215.182 133.433 215.149H133.384C133.316 215.035 133.044 215.133 132.894 215.1H132.846C132.777 214.986 132.504 215.084 132.354 215.051C132.174 215.035 131.921 215.092 131.815 215.002C131.565 214.92 131.257 214.905 130.933 214.9C131.26 214.753 131.93 214.949 132.257 214.804H132.306C132.911 214.771 133.647 214.87 134.17 214.755H134.219C134.661 214.722 135.233 214.82 135.592 214.706H135.641C136.447 214.712 137.233 214.69 137.947 214.608H137.995C138.322 214.575 138.781 214.673 139.025 214.559H139.075C139.663 214.559 140.234 214.543 140.743 214.463H140.792C141.039 214.431 141.412 214.529 141.577 214.414H141.626C142.363 214.398 143.076 214.365 143.735 214.268H143.784C143.965 214.235 144.274 214.333 144.372 214.219H144.421C144.602 214.186 144.91 214.284 145.01 214.17H145.059C145.241 214.137 145.547 214.235 145.648 214.121H145.697C145.862 214.088 146.153 214.186 146.238 214.072H146.285C146.677 214.072 147.05 214.056 147.365 213.976H147.415C147.793 213.976 148.148 213.96 148.443 213.875C148.549 213.785 148.804 213.842 148.984 213.826C149.134 213.793 149.406 213.883 149.475 213.777C150.125 213.679 150.779 213.613 151.436 213.581C151.763 213.581 152.071 213.564 152.319 213.484H152.369C152.66 213.481 152.936 213.46 153.154 213.383C153.246 213.299 153.477 213.35 153.644 213.334C153.937 213.334 154.212 213.318 154.429 213.238H154.478C154.989 213.222 155.498 213.156 155.998 213.042C156.517 212.948 157.042 212.882 157.568 212.844C157.827 212.844 158.069 212.82 158.256 212.749H158.305C158.562 212.746 158.806 212.724 158.99 212.651C159.345 212.569 159.706 212.519 160.069 212.501C160.733 212.436 161.398 212.361 161.982 212.209H162.031C162.36 212.192 162.658 212.151 162.914 212.062H162.963C163.262 212.051 163.559 212.002 163.846 211.916H163.894C164.194 211.905 164.492 211.856 164.78 211.77C164.84 211.704 164.992 211.721 165.121 211.721C165.63 211.672 166.118 211.605 166.545 211.476C166.616 211.383 166.865 211.47 166.937 211.378H167.18C167.468 211.353 167.752 211.328 167.965 211.231H168.016C168.208 211.226 168.383 211.207 168.506 211.133H168.555C168.747 211.13 168.924 211.109 169.045 211.035H169.094C169.38 211.011 169.664 210.986 169.879 210.888C169.936 210.831 170.052 210.831 170.173 210.839C170.424 210.828 170.673 210.779 170.909 210.693H170.959C171.293 210.666 171.622 210.601 171.939 210.497C171.996 210.439 172.113 210.439 172.235 210.448C173.066 210.317 173.886 210.17 174.638 209.957H174.687C175 209.908 175.324 209.875 175.569 209.761H175.618C175.852 209.737 176.09 209.712 176.257 209.614C176.314 209.557 176.43 209.557 176.551 209.565C176.784 209.54 177.022 209.516 177.188 209.418C177.245 209.361 177.361 209.361 177.482 209.369C177.716 209.344 177.953 209.32 178.118 209.22H178.167C178.472 209.187 178.767 209.133 178.999 209.026C179.437 208.907 179.875 208.787 180.373 208.731C180.577 208.722 180.777 208.672 180.962 208.584H181.011C181.215 208.575 181.415 208.524 181.6 208.436H181.649C181.853 208.425 182.053 208.376 182.238 208.289C182.295 208.248 182.366 208.224 182.483 208.24C182.752 208.215 183.016 208.148 183.266 208.044C183.301 208.02 183.342 208.003 183.384 207.995C183.426 207.986 183.47 207.986 183.512 207.995C183.847 207.953 184.177 207.87 184.493 207.75C185.087 207.59 185.667 207.421 186.308 207.309C186.586 207.276 186.848 207.227 187.044 207.112C187.309 207.031 187.563 206.945 187.877 206.916C188.185 206.843 188.519 206.805 188.761 206.669C188.818 206.629 188.892 206.604 189.008 206.62C189.25 206.571 189.517 206.539 189.695 206.424C189.752 206.383 189.824 206.359 189.938 206.375C190.12 206.343 190.314 206.326 190.429 206.229C190.464 206.205 190.505 206.188 190.547 206.18C190.589 206.171 190.633 206.171 190.675 206.18C190.856 206.147 191.051 206.131 191.165 206.034H191.214C191.395 206.001 191.588 205.985 191.705 205.887C191.729 205.821 191.892 205.878 191.901 205.789H192.094C192.276 205.756 192.47 205.739 192.586 205.639H192.635C192.816 205.606 193.011 205.59 193.126 205.493C193.159 205.427 193.315 205.486 193.321 205.395H193.52C193.701 205.362 193.895 205.346 194.01 205.248H194.059C194.239 205.215 194.433 205.199 194.548 205.1C194.572 205.035 194.736 205.092 194.744 205.002C195.994 204.731 197.088 204.306 198.324 204.02C198.603 203.955 198.894 203.903 199.109 203.775C199.251 203.688 199.478 203.688 199.6 203.58H199.796C200.003 203.554 200.203 203.487 200.384 203.384H200.433C200.658 203.343 200.858 203.286 201.022 203.188C201.136 203.123 201.302 203.106 201.414 203.041H201.559C201.767 203.015 201.967 202.948 202.149 202.845H202.198C202.404 202.818 202.603 202.752 202.784 202.649H202.833C203.139 202.589 203.436 202.49 203.716 202.355C203.757 202.314 203.827 202.306 203.914 202.306C204.219 202.246 204.516 202.147 204.796 202.011C204.906 201.97 204.988 201.908 205.14 201.913C205.494 201.838 205.84 201.723 206.169 201.57C206.227 201.534 206.296 201.517 206.365 201.521C206.916 201.378 207.457 201.198 207.984 200.982C208.338 200.861 208.668 200.717 209.061 200.638C209.817 200.379 210.626 200.175 211.319 199.854C211.429 199.813 211.511 199.75 211.663 199.756C212.074 199.612 212.537 199.519 212.89 199.314C212.931 199.274 213.001 199.257 213.085 199.265C213.351 199.171 213.666 199.127 213.869 198.971C213.918 198.93 213.979 198.914 214.065 198.922C214.331 198.827 214.646 198.783 214.851 198.628H214.9C215.117 198.554 215.38 198.522 215.537 198.383H215.586C215.803 198.309 216.066 198.275 216.224 198.138H216.273C216.488 198.064 216.752 198.03 216.91 197.893H216.959C217.126 197.835 217.338 197.819 217.447 197.696H217.496C217.665 197.639 217.878 197.623 217.988 197.499H218.037C218.206 197.441 218.418 197.425 218.527 197.304H218.576C218.745 197.247 218.957 197.222 219.067 197.108C219.108 197.067 219.201 197.083 219.214 197.01C219.363 197.051 219.356 196.925 219.508 196.961C219.68 196.904 219.89 196.887 219.999 196.765C220.146 196.647 220.416 196.657 220.539 196.52C221.119 196.364 221.627 196.136 222.157 195.931C222.275 195.948 222.263 195.841 222.403 195.882C222.614 195.817 222.837 195.76 222.99 195.639H223.039C223.254 195.573 223.473 195.516 223.631 195.392H223.68C223.897 195.326 224.114 195.269 224.268 195.147C224.342 195.122 224.393 195.073 224.465 195.049C224.678 194.983 224.899 194.926 225.052 194.803H225.101C225.22 194.82 225.209 194.714 225.346 194.754C225.562 194.689 225.779 194.629 225.936 194.507H225.985C226.445 194.348 226.906 194.186 227.31 193.967C227.483 193.894 227.624 193.793 227.849 193.771C228.392 193.579 228.931 193.384 229.417 193.134C229.754 192.995 230.063 192.832 230.447 192.742C230.879 192.568 231.35 192.433 231.721 192.202C231.825 192.178 231.862 192.08 232.018 192.104C232.45 191.928 232.921 191.797 233.293 191.565C233.397 191.532 233.434 191.442 233.589 191.464C233.78 191.399 233.994 191.347 234.128 191.219H234.177C234.847 190.955 235.528 190.707 236.142 190.386H236.191C236.38 190.312 236.598 190.269 236.729 190.141H236.778C236.97 190.068 237.184 190.024 237.318 189.896C237.391 189.839 237.516 189.831 237.56 189.749H237.707C238.246 189.535 238.799 189.332 239.277 189.062C239.351 189.005 239.48 188.997 239.525 188.915H239.672C240.359 188.636 241.062 188.376 241.682 188.032H241.731C242.097 187.877 242.496 187.754 242.809 187.541H242.858C243.225 187.385 243.626 187.263 243.939 187.05C244.147 186.916 244.446 186.874 244.622 186.706H244.772C245.323 186.476 245.891 186.26 246.387 185.971C246.697 185.835 246.968 185.664 247.322 185.579C247.615 185.463 247.923 185.363 248.156 185.186L248.546 184.99H248.644C248.966 184.853 249.312 184.74 249.579 184.547H249.628C249.95 184.412 250.295 184.297 250.563 184.106H250.612C251.153 183.874 251.711 183.665 252.183 183.37H252.232C252.41 183.322 252.577 183.239 252.722 183.125H252.771C252.951 183.08 253.12 182.997 253.264 182.88H253.313C253.702 182.712 254.114 182.566 254.443 182.341H254.492C254.914 182.158 255.354 181.995 255.716 181.752H255.765C255.978 181.689 256.178 181.59 256.357 181.459H256.406C256.616 181.393 256.815 181.294 256.995 181.165H257.044C257.691 180.849 258.489 180.68 258.756 179.986V179.937C258.906 179.826 258.993 179.343 258.813 179.202V179.153C258.641 178.815 258.011 178.68 257.533 178.81C257.493 178.801 257.493 178.826 257.484 178.859C256.933 178.826 256.631 179.05 256.111 179.055C255.919 179.06 255.744 179.079 255.621 179.154H255.572C255.378 179.158 255.204 179.178 255.079 179.252H255.03C254.837 179.256 254.662 179.276 254.538 179.351H254.497C254.303 179.354 254.126 179.376 254.002 179.449H253.953C253.759 179.451 253.581 179.474 253.46 179.546H253.41C253.219 179.551 253.043 179.57 252.921 179.645H252.872C252.506 179.686 252.145 179.735 251.842 179.842C251.801 179.85 251.793 179.891 251.746 179.891H251.498C251.213 179.915 250.929 179.94 250.715 180.038H250.666C250.287 180.079 249.901 180.12 249.591 180.234H249.542C249.256 180.259 248.973 180.283 248.759 180.381C248.718 180.389 248.702 180.43 248.658 180.43H248.413C248.128 180.455 247.844 180.479 247.627 180.577C247.586 180.585 247.578 180.626 247.531 180.626H247.284C246.709 180.708 246.123 180.773 245.617 180.92C245.431 181.012 245.116 180.978 244.93 181.068C244.339 181.141 243.748 181.226 243.213 181.36C242.475 181.409 241.889 181.607 241.155 181.656C240.757 181.682 240.361 181.748 239.975 181.852C239.934 181.957 239.665 181.836 239.632 181.95H239.34C238.844 181.993 238.352 182.075 237.869 182.197H237.82C237.493 182.213 237.195 182.254 236.939 182.344C236.874 182.409 236.722 182.393 236.593 182.393C236.295 182.404 236 182.453 235.715 182.541H235.658C235.329 182.557 235.033 182.598 234.777 182.688C234.712 182.753 234.563 182.737 234.434 182.737C234.208 182.74 233.999 182.762 233.844 182.836H233.795C233.564 182.838 233.357 182.861 233.204 182.934H233.155C232.826 182.95 232.528 182.991 232.27 183.083H232.221C231.995 183.084 231.784 183.107 231.632 183.181H231.583C231.357 183.183 231.149 183.205 230.996 183.279H230.947C230.719 183.281 230.511 183.303 230.358 183.377H230.309C230.083 183.38 229.874 183.402 229.721 183.475H229.672C229.335 183.5 229.006 183.524 228.739 183.622H228.69C228.465 183.625 228.255 183.647 228.104 183.72H228.055C227.829 183.724 227.621 183.745 227.468 183.818C227.394 183.892 227.214 183.859 227.075 183.867C226.624 183.908 226.177 183.951 225.801 184.064C225.727 184.137 225.547 184.104 225.408 184.113C224.957 184.153 224.509 184.196 224.132 184.309C223.893 184.378 223.645 184.411 223.396 184.408C222.946 184.448 222.499 184.49 222.121 184.602C221.882 184.672 221.634 184.705 221.385 184.701C220.936 184.742 220.486 184.784 220.111 184.898C220.038 184.971 219.858 184.939 219.719 184.947C219.251 184.988 218.795 185.04 218.394 185.144C217.925 185.243 217.45 185.309 216.972 185.34C216.28 185.4 215.591 185.498 214.91 185.634C214.836 185.708 214.659 185.675 214.517 185.683C214.141 185.7 213.791 185.74 213.489 185.831H213.44C213.064 185.847 212.716 185.888 212.412 185.978C212.339 186.052 212.16 186.019 212.02 186.027C211.759 186.031 211.516 186.052 211.333 186.125C211.26 186.199 211.082 186.166 210.939 186.174C210.68 186.178 210.438 186.199 210.253 186.273H210.204C209.945 186.276 209.703 186.298 209.518 186.371H209.469C209.21 186.375 208.969 186.396 208.784 186.47H208.735C208.473 186.472 208.231 186.487 208.046 186.568C207.965 186.651 207.758 186.609 207.605 186.617C207.347 186.617 207.104 186.634 206.919 186.714H206.87C206.61 186.715 206.367 186.738 206.182 186.812C206.1 186.894 205.896 186.853 205.741 186.861C205.352 186.885 204.976 186.918 204.663 187.008C204.391 187.077 204.111 187.11 203.83 187.107C203.439 187.131 203.064 187.156 202.75 187.254C202.668 187.336 202.461 187.295 202.308 187.303C202.037 187.31 201.774 187.327 201.572 187.399C200.514 187.567 199.452 187.698 198.385 187.792C197.857 187.818 197.332 187.884 196.814 187.989H196.765C196.472 187.991 196.198 188.006 195.98 188.086C195.898 188.169 195.693 188.127 195.538 188.135C195.246 188.137 194.972 188.151 194.754 188.233H194.705C194.413 188.236 194.137 188.257 193.92 188.332C193.838 188.414 193.632 188.373 193.478 188.381C193.186 188.383 192.909 188.397 192.693 188.479C192.599 188.566 192.37 188.512 192.203 188.528C191.765 188.552 191.34 188.585 190.977 188.677C190.884 188.763 190.651 188.709 190.487 188.726C190.194 188.728 189.918 188.742 189.703 188.824C189.397 188.892 189.084 188.925 188.77 188.922C188.317 188.946 187.879 188.979 187.493 189.07C187.039 189.153 186.58 189.202 186.12 189.217C185.676 189.225 185.233 189.274 184.798 189.362C184.522 189.436 184.208 189.46 183.865 189.461C183.54 189.464 183.23 189.486 182.981 189.559C182.875 189.649 182.622 189.592 182.442 189.608C182.118 189.61 181.81 189.625 181.561 189.706C181.454 189.798 181.201 189.739 181.021 189.755C180.696 189.755 180.387 189.78 180.138 189.851C180.031 189.943 179.778 189.884 179.597 189.9C179.272 189.903 178.963 189.925 178.715 189.998H178.666C178.308 190 177.967 190.015 177.687 190.096C177.379 190.17 177.03 190.193 176.655 190.195C176.297 190.195 175.956 190.211 175.672 190.293C175.569 190.383 175.315 190.326 175.133 190.342C174.776 190.343 174.435 190.359 174.153 190.44H174.105C172.319 190.567 170.536 190.73 168.757 190.931H168.709C168.544 190.963 168.253 190.865 168.17 190.98H168.121C167.954 191.012 167.664 190.914 167.582 191.029H167.53C167.367 191.061 167.076 190.963 166.991 191.078H166.943C166.778 191.11 166.488 191.012 166.405 191.127H166.354C165.583 191.153 164.814 191.219 164.05 191.323H164.001C163.577 191.325 163.169 191.347 162.824 191.421H162.773C162.592 191.454 162.286 191.356 162.186 191.47H162.136C161.954 191.503 161.647 191.405 161.547 191.519H161.496C161.04 191.519 160.604 191.535 160.223 191.617H160.174C159.704 191.621 159.248 191.642 158.85 191.715H158.801C158.602 191.748 158.279 191.65 158.162 191.764H158.115C157.901 191.797 157.559 191.699 157.428 191.813H157.378C157.181 191.846 156.855 191.748 156.74 191.862H156.691C156.477 191.895 156.137 191.797 156.004 191.911H155.957C155.757 191.944 155.434 191.846 155.317 191.96H155.269C155.038 191.993 154.681 191.895 154.533 192.009H154.483C154.253 192.042 153.897 191.944 153.746 192.058H153.699C153.453 192.091 153.078 191.993 152.913 192.107H152.864C152.636 192.14 152.277 192.042 152.129 192.156H152.08C151.524 192.158 150.987 192.181 150.511 192.255H150.462C150.184 192.287 149.775 192.189 149.579 192.304H149.53C149.251 192.336 148.844 192.238 148.648 192.353H148.596C147.944 192.353 147.309 192.369 146.734 192.451H146.685C146.407 192.483 145.998 192.385 145.802 192.5H145.753C145.393 192.532 144.905 192.434 144.625 192.549H144.577C144.217 192.581 143.727 192.483 143.448 192.598H143.4C142.598 192.601 141.816 192.614 141.094 192.696H141.044C140.554 192.729 139.933 192.63 139.524 192.745H139.475C138.983 192.778 138.363 192.679 137.953 192.794H137.905C136.5 192.81 135.081 192.81 133.736 192.892H133.688C132.232 192.925 130.647 192.827 129.272 192.941H125.643C123.891 192.859 122.049 192.867 120.248 192.843H120.198C119.325 192.769 118.39 192.754 117.452 192.746H117.404C116.408 192.664 115.409 192.614 114.41 192.597H114.361C114.179 192.484 113.789 192.581 113.528 192.548H113.479C113.329 192.435 112.973 192.532 112.742 192.499H112.692C112.561 192.386 112.218 192.483 112.006 192.45H111.954C111.84 192.336 111.516 192.433 111.317 192.401H111.269C110.921 192.327 110.515 192.304 110.092 192.303H110.043C109.943 192.19 109.634 192.286 109.454 192.254H109.406C109.336 192.141 109.064 192.237 108.916 192.205H108.866C108.798 192.094 108.524 192.188 108.376 192.156H108.326C107.88 192.061 107.369 192.034 106.855 192.009C106.689 191.993 106.457 192.05 106.364 191.96C106.114 191.879 105.805 191.865 105.482 191.862H105.431C104.914 191.757 104.389 191.692 103.862 191.666C103.709 191.658 103.503 191.699 103.421 191.617C103.235 191.544 102.993 191.521 102.734 191.52C102.256 191.487 101.781 191.421 101.312 191.324C101.159 191.25 100.95 191.227 100.722 191.224H100.673C100.238 191.105 99.7482 191.04 99.2522 190.98H99.2056C99.0822 190.906 98.9065 190.885 98.7153 190.882H98.6654C98.5428 190.808 98.368 190.787 98.1743 190.784H98.1252C98.0043 190.711 97.8278 190.69 97.6349 190.687C97.5156 190.693 97.3979 190.693 97.3407 190.638C97.0155 190.505 96.6052 190.458 96.2129 190.393C96.0111 190.434 95.9612 190.319 95.7716 190.344C95.7079 190.278 95.5404 190.311 95.4774 190.244C95.2928 190.157 95.0924 190.107 94.8882 190.098C94.8462 190.107 94.8028 190.107 94.7606 190.099C94.7185 190.09 94.6785 190.073 94.6431 190.049C94.791 189.936 95.1497 190.033 95.3786 190H95.4276C96.1631 190.082 96.964 190.099 97.7812 190.098H97.8319C98.1914 190.212 98.7619 190.114 99.2056 190.147H99.2546C99.6959 190.261 100.349 190.163 100.873 190.196H100.922C101.428 190.31 102.148 190.212 102.736 190.245H102.786C103.473 190.361 104.371 190.261 105.139 190.294H105.19C109.751 190.419 114.314 190.435 118.875 190.343H118.924C120.051 190.31 121.311 190.408 122.358 190.294H122.406C123.175 190.261 124.073 190.359 124.76 190.245H124.809C125.496 190.212 126.313 190.31 126.919 190.196H126.967C127.523 190.163 128.21 190.261 128.684 190.147H128.734C130.109 190.147 131.482 190.098 132.853 190H132.902C133.752 190 134.584 189.983 135.355 189.902H135.403C135.748 189.869 136.22 189.967 136.483 189.853H136.531C136.843 189.82 137.282 189.918 137.512 189.804H137.561C138.233 189.804 138.885 189.787 139.475 189.704H139.523C139.803 189.671 140.209 189.769 140.406 189.655H140.455C140.716 189.622 141.109 189.72 141.29 189.606H141.337C141.926 189.605 142.496 189.59 143.006 189.508H143.055C143.283 189.475 143.642 189.573 143.79 189.459H143.839C144.07 189.426 144.427 189.524 144.576 189.41H144.625C144.853 189.377 145.212 189.475 145.361 189.361H145.41C145.624 189.328 145.964 189.426 146.095 189.312H146.144C146.342 189.279 146.667 189.377 146.782 189.263H146.831C147.029 189.23 147.353 189.328 147.47 189.214H147.517C147.975 189.214 148.414 189.197 148.793 189.116H148.842C149.038 189.083 149.363 189.181 149.479 189.067H149.529C149.728 189.034 150.05 189.132 150.166 189.018H150.215C150.413 188.985 150.737 189.083 150.852 188.968H150.901C151.082 188.936 151.391 189.034 151.491 188.919H151.54C151.705 188.887 151.994 188.985 152.079 188.87H152.127C152.552 188.87 152.957 188.854 153.305 188.772H153.355C153.519 188.74 153.808 188.838 153.893 188.723H153.942C154.335 188.721 154.707 188.707 155.021 188.625H155.073C155.22 188.593 155.493 188.691 155.563 188.576H155.61C156.003 188.575 156.374 188.56 156.689 188.478C156.732 188.486 156.736 188.462 156.739 188.429H157.229C157.38 188.396 157.653 188.494 157.72 188.38C157.826 188.288 158.079 188.347 158.261 188.331C158.408 188.298 158.682 188.396 158.751 188.282H158.799C159.309 188.266 159.792 188.225 160.221 188.133C160.528 188.06 160.876 188.035 161.252 188.035C161.576 188.034 161.884 188.019 162.134 187.937H162.184C162.629 187.929 163.072 187.879 163.508 187.79C164.109 187.689 164.715 187.624 165.323 187.594C165.615 187.592 165.89 187.569 166.107 187.496H166.156C166.448 187.493 166.724 187.471 166.941 187.396H166.99C167.283 187.395 167.557 187.372 167.775 187.299C168.702 187.148 169.635 187.034 170.57 186.956C170.829 186.952 171.072 186.931 171.258 186.858H171.307C171.567 186.856 171.808 186.833 171.994 186.76H172.044C172.302 186.757 172.544 186.736 172.729 186.662H172.778C173.038 186.659 173.279 186.638 173.466 186.564C174.487 186.393 175.519 186.232 176.606 186.123C176.831 186.12 177.04 186.098 177.194 186.025H177.243C177.58 186 177.911 185.976 178.175 185.878H178.224C178.449 185.874 178.66 185.853 178.814 185.78H178.863C179.09 185.776 179.299 185.755 179.453 185.682C179.518 185.616 179.665 185.633 179.796 185.633C180.194 185.607 180.588 185.541 180.973 185.435C181.038 185.369 181.187 185.386 181.316 185.386C181.825 185.337 182.312 185.27 182.736 185.141C182.81 185.048 183.057 185.136 183.129 185.043H183.376C183.855 184.985 184.344 184.929 184.749 184.797H184.798C184.991 184.794 185.166 184.773 185.288 184.699H185.337C185.53 184.695 185.706 184.675 185.826 184.6H185.875C186.068 184.598 186.243 184.575 186.365 184.503H186.414C187.05 184.421 187.668 184.322 188.228 184.16C188.285 184.103 188.402 184.103 188.521 184.111C188.801 184.095 189.048 184.054 189.256 183.965C189.428 183.898 189.612 183.865 189.796 183.867C190.467 183.767 191.12 183.654 191.711 183.474C191.952 183.409 192.196 183.339 192.494 183.326C192.809 183.277 193.131 183.244 193.379 183.129C193.614 183.072 193.824 182.987 194.115 182.982C194.348 182.958 194.584 182.933 194.752 182.835H194.801C195.037 182.811 195.274 182.786 195.441 182.689H195.49C196.146 182.576 196.802 182.463 197.402 182.297C197.543 182.205 197.819 182.256 197.942 182.148H198.189C198.605 182.106 199.015 182.024 199.415 181.903C199.587 181.837 199.77 181.804 199.954 181.806C200.206 181.795 200.455 181.746 200.692 181.658C200.749 181.601 200.861 181.601 200.986 181.609C201.319 181.583 201.647 181.518 201.965 181.413H202.014C202.349 181.387 202.679 181.321 202.999 181.215C203.056 181.158 203.169 181.158 203.29 181.166C203.542 181.156 203.79 181.107 204.026 181.019C204.083 180.962 204.201 180.962 204.32 180.97C204.654 180.944 204.984 180.879 205.303 180.774H205.352C205.604 180.764 205.852 180.713 206.088 180.625H206.137C206.387 180.615 206.635 180.566 206.871 180.478C206.928 180.421 207.045 180.421 207.165 180.429C207.417 180.419 207.665 180.37 207.902 180.282H207.951C208.228 180.266 208.476 180.225 208.686 180.133H208.735C209.012 180.117 209.261 180.076 209.469 179.987C209.526 179.93 209.643 179.93 209.763 179.938C210.015 179.928 210.264 179.878 210.501 179.792H210.55C210.802 179.781 211.051 179.732 211.288 179.645H211.337C211.615 179.628 211.864 179.588 212.072 179.499C212.129 179.441 212.246 179.441 212.368 179.449C212.559 179.445 212.735 179.425 212.857 179.352C212.914 179.295 213.032 179.295 213.149 179.303C213.43 179.287 213.679 179.246 213.886 179.157H213.935C214.188 179.146 214.438 179.097 214.676 179.011H214.725C214.976 179 215.225 178.95 215.46 178.862C215.518 178.805 215.634 178.805 215.755 178.813C216.035 178.797 216.283 178.756 216.492 178.664H216.541C216.821 178.648 217.07 178.607 217.278 178.518H217.327C217.578 178.507 217.826 178.458 218.062 178.371C218.12 178.314 218.234 178.314 218.359 178.322C218.635 178.305 218.884 178.265 219.092 178.175H219.141C219.392 178.165 219.641 178.115 219.877 178.028H219.926C220.207 178.011 220.454 177.97 220.664 177.88H220.713C220.965 177.87 221.213 177.821 221.449 177.733H221.498C221.775 177.717 222.025 177.676 222.233 177.586H222.283C222.474 177.583 222.649 177.562 222.77 177.488C222.828 177.431 222.946 177.431 223.065 177.439C223.259 177.435 223.434 177.415 223.557 177.341C223.614 177.284 223.731 177.284 223.85 177.292C224.044 177.287 224.219 177.267 224.342 177.192C224.399 177.135 224.514 177.135 224.636 177.143C224.827 177.141 225.004 177.119 225.126 177.047C225.183 176.99 225.299 176.99 225.42 176.998C225.612 176.995 225.79 176.973 225.909 176.9H225.958C226.21 176.889 226.458 176.84 226.694 176.753H226.743C226.994 176.743 227.242 176.694 227.478 176.606H227.527C227.78 176.596 228.03 176.545 228.267 176.457H228.316C228.596 176.44 228.843 176.4 229.052 176.311H229.101C229.293 176.309 229.471 176.286 229.59 176.212C229.647 176.155 229.765 176.155 229.888 176.163C230.079 176.16 230.255 176.139 230.376 176.065H230.425C230.702 176.049 230.951 176.008 231.159 175.918H231.208C231.46 175.908 231.709 175.858 231.946 175.772H231.995C232.19 175.768 232.365 175.747 232.487 175.674C232.544 175.617 232.659 175.617 232.781 175.625C232.972 175.622 233.148 175.6 233.27 175.527H233.319C233.57 175.516 233.818 175.466 234.055 175.38H234.104C234.355 175.369 234.603 175.32 234.839 175.233H234.888C235.169 175.216 235.418 175.175 235.625 175.086H235.674C235.869 175.082 236.044 175.061 236.168 174.987H236.217C236.469 174.977 236.719 174.926 236.956 174.839H237.005C237.196 174.835 237.373 174.814 237.494 174.741H237.543C237.82 174.724 238.066 174.683 238.276 174.595H238.325C238.516 174.591 238.696 174.571 238.814 174.495C238.871 174.437 238.989 174.437 239.108 174.446C239.304 174.442 239.479 174.421 239.6 174.348H239.649C239.901 174.337 240.15 174.288 240.386 174.201H240.435C240.63 174.197 240.805 174.177 240.929 174.103H240.978C241.23 174.093 241.479 174.043 241.715 173.954H241.764C241.955 173.953 242.13 173.93 242.254 173.857H242.303C242.553 173.846 242.8 173.797 243.035 173.711H243.084C243.335 173.701 243.584 173.651 243.82 173.564H243.869C244.06 173.559 244.235 173.539 244.356 173.464H244.406C244.657 173.454 244.906 173.405 245.143 173.318H245.192C245.387 173.314 245.561 173.293 245.685 173.22H245.726C245.979 173.21 246.228 173.16 246.464 173.071H246.513C246.704 173.069 246.879 173.047 247.003 172.974C247.06 172.917 247.178 172.917 247.295 172.925C247.486 172.922 247.667 172.9 247.785 172.827H247.834C248.084 172.816 248.332 172.767 248.568 172.68H248.617C248.808 172.676 248.986 172.656 249.105 172.582H249.154C249.405 172.572 249.653 172.521 249.889 172.434C249.954 172.352 250.165 172.417 250.232 172.336C250.576 172.287 250.902 172.223 251.161 172.091H251.211C251.492 172.026 251.779 171.972 251.997 171.846H252.19C252.398 171.82 252.598 171.754 252.779 171.65H252.836C253.091 171.606 253.338 171.523 253.567 171.405C253.678 171.364 253.759 171.301 253.913 171.307C254.218 171.246 254.515 171.147 254.796 171.012C254.845 170.972 254.905 170.955 254.992 170.963C256.524 170.484 258.056 170.006 259.503 169.443C259.661 169.386 259.795 169.309 259.992 169.296C260.454 169.134 260.97 169.027 261.365 168.804C261.406 168.771 261.479 168.754 261.563 168.754C261.83 168.66 262.143 168.616 262.349 168.459C262.39 168.426 262.459 168.41 262.543 168.41C262.811 168.315 263.123 168.271 263.332 168.115C263.372 168.075 263.438 168.058 263.526 168.066C263.743 167.993 264.007 167.96 264.163 167.821H264.213C264.383 167.764 264.593 167.748 264.702 167.625H264.751C264.92 167.568 265.134 167.552 265.241 167.429H265.29C265.509 167.355 265.769 167.323 265.925 167.184H265.974C266.239 167.102 266.511 167.035 266.712 166.89C266.847 166.832 266.959 166.746 267.151 166.742C267.365 166.677 267.584 166.621 267.743 166.497H267.792C268.056 166.43 268.305 166.313 268.526 166.154H268.575C268.986 165.978 269.375 165.778 269.701 165.517H269.75C273.212 163.299 276.451 160.833 279.414 158.11C280.89 156.751 282.419 155.417 283.728 153.893C284.096 153.466 284.319 153.102 284.762 152.763C285.902 151.885 287.028 150.788 287.802 149.478V149.429C288.177 148.934 288.44 148.334 288.685 147.712C288.661 147.557 288.75 147.519 288.781 147.416C288.95 147.143 289.042 146.791 289.126 146.435C289.138 146.301 289.171 146.169 289.224 146.045C289.319 145.911 289.355 145.719 289.374 145.505V145.456C289.487 145.193 289.536 144.868 289.568 144.525V144.23C289.576 144.189 289.617 144.181 289.617 144.132C289.699 143.953 289.718 143.712 289.712 143.446V142.956C289.753 142.964 289.761 142.939 289.761 142.907C289.874 142.774 289.778 142.433 289.81 142.22V142.171C289.893 141.323 289.893 140.469 289.81 139.621V139.522C289.778 139.293 289.876 138.935 289.761 138.786V138.737C289.745 138.084 289.688 137.466 289.565 136.923C289.457 136.83 289.573 136.52 289.469 136.43V136.137C289.466 135.911 289.444 135.701 289.371 135.548V135.499C289.373 134.543 288.737 133.863 288.29 133.193C286.935 131.166 285.722 129.077 284.365 126.964V126.915C284.187 126.619 284.055 126.278 283.827 126.033C283.675 125.76 283.483 125.524 283.384 125.2C282.916 124.374 282.505 123.494 282.011 122.697V122.648C281.662 121.981 281.358 121.274 280.979 120.635V120.586C280.849 120.243 280.685 119.914 280.489 119.604V119.555C280.424 119.344 280.324 119.145 280.195 118.965V118.916C280.148 118.737 280.064 118.57 279.949 118.424V118.375C279.845 118.119 279.767 117.84 279.606 117.64V117.591C279.518 117.37 279.454 117.123 279.312 116.953V116.904C279.205 116.636 279.132 116.332 278.97 116.12V116.071C278.845 115.752 278.747 115.409 278.576 115.139V115.09C278.511 114.876 278.457 114.656 278.334 114.502C278.301 114.399 278.209 114.362 278.235 114.207C278.136 113.897 278.049 113.576 277.89 113.323C277.849 113.282 277.841 113.213 277.841 113.129C277.745 112.864 277.702 112.548 277.548 112.343C277.46 112.217 277.474 111.989 277.351 111.902V111.853C277.326 111.564 277.176 111.408 277.154 111.117C277.111 110.86 277.028 110.612 276.908 110.382C276.727 109.829 276.536 109.284 276.418 108.664C276.385 108.484 276.369 108.289 276.27 108.175V108.126C276.121 107.476 275.981 106.814 275.782 106.213C275.695 105.922 275.609 105.633 275.583 105.282C275.487 104.707 275.391 104.133 275.241 103.614V103.565C275.238 103.373 275.216 103.197 275.143 103.074V103.025C275.1 102.513 275.018 102.005 274.898 101.505V101.456C274.898 101.197 274.873 100.955 274.8 100.77C274.696 100.514 274.751 100.102 274.653 99.8382V99.4949C274.604 99.2375 274.558 98.9686 274.456 98.7594C274.361 98.4301 274.259 98.1106 274.211 97.7297C274.179 97.4519 274.13 97.1895 274.018 96.9942C273.969 96.8651 273.914 96.736 273.916 96.5529C273.867 96.311 273.843 96.0438 273.723 95.8657V95.8166C273.69 95.6352 273.674 95.4423 273.573 95.3279C273.508 95.2952 273.565 95.1375 273.477 95.131V94.9348C273.437 94.6954 273.393 94.4641 273.28 94.2974C273.24 94.1773 273.164 94.0841 273.185 93.9043C273.154 93.6975 273.086 93.4979 272.985 93.3151V93.2661C272.926 92.9604 272.828 92.6637 272.692 92.3835C272.618 92.1759 272.524 91.9936 272.498 91.746C272.403 91.4813 272.357 91.1634 272.199 90.9607V90.9116C272.142 90.74 272.126 90.53 272.006 90.4213C271.981 90.3478 271.932 90.2963 271.907 90.2252C271.825 89.8615 271.63 89.6196 271.565 89.2429C271.492 89.0517 271.445 88.8375 271.318 88.7035C271.277 88.567 271.161 88.5033 271.171 88.3121C271.122 88.1343 271.039 87.9678 270.926 87.8217V87.7727C270.59 87.0274 270.25 86.2886 269.8 85.661V85.612C269.278 84.7408 268.668 83.9628 268.229 83.0124C268.223 82.947 268.164 82.947 268.18 82.8645C267.927 82.3022 267.685 81.7261 267.347 81.2472C267.306 81.123 267.212 81.0535 267.2 80.9039C266.811 80.1946 266.514 79.4003 266.068 78.7448C266.068 78.6795 266.011 78.6795 266.028 78.5977C265.532 77.6391 265.076 76.6364 264.554 75.7031C264.538 75.6108 264.448 75.5806 264.456 75.458C262.677 71.9358 260.092 69.0959 257.738 66.14C255.372 63.1702 252.953 60.2666 250.967 56.9177C250.863 56.6766 250.746 56.4519 250.723 56.1315C250.698 55.9615 250.698 55.7638 250.621 55.642V55.0536C250.616 54.9318 250.616 54.8174 250.67 54.7578C250.916 54.0223 251.527 53.652 252.292 53.4339C252.511 53.3518 252.745 53.3184 252.979 53.3358H254.352C254.425 53.4494 254.692 53.3521 254.844 53.3848C254.996 53.393 255.203 53.3521 255.283 53.4339C255.776 53.563 256.324 53.6349 256.85 53.7297C256.966 53.7133 257.039 53.7379 257.095 53.7787C257.347 53.8819 257.613 53.9479 257.884 53.9749C257.997 53.9585 258.07 53.9806 258.129 54.0239C258.244 54.122 258.436 54.1383 258.616 54.1726C259.066 54.2462 259.458 54.3794 259.844 54.5159C260.125 54.6495 260.422 54.7483 260.728 54.8101C260.976 54.8427 261.159 54.9326 261.365 55.0062C261.522 55.1451 261.787 55.1754 262.001 55.2514C262.105 55.2268 262.13 55.284 262.201 55.3004C262.356 55.4393 262.621 55.4704 262.835 55.548C262.939 55.5235 262.97 55.5807 263.036 55.597C263.235 55.7376 263.515 55.803 263.77 55.8912M208.806 226.094H208.757C208.455 226.089 208.172 226.101 207.973 226.196H207.924C207.527 226.245 207.139 226.292 206.844 226.441C206.778 226.49 206.662 226.49 206.598 226.539C206.389 226.572 206.188 226.621 206.059 226.737H206.01C205.808 226.745 205.733 226.884 205.52 226.884C204.976 227.122 204.422 227.353 203.999 227.716H203.95C202.328 228.742 201.048 230.111 200.027 231.737V231.786C199.808 231.995 199.685 232.293 199.534 232.568V232.617C199.296 232.901 199.151 233.282 198.996 233.647V233.742C198.955 233.884 198.838 233.946 198.847 234.137C198.696 234.295 198.66 234.57 198.554 234.775C198.387 235.05 198.299 235.401 198.211 235.755C198.236 235.911 198.125 235.928 198.162 236.098C198.029 236.358 197.966 236.689 197.915 237.032V237.081C197.805 237.185 197.858 237.447 197.769 237.574C197.674 237.803 197.635 238.092 197.622 238.408C197.655 238.717 197.539 238.88 197.573 239.19C197.54 239.198 197.516 239.231 197.524 239.291C197.411 239.357 197.508 239.629 197.475 239.782V239.831C197.361 239.963 197.459 240.303 197.426 240.517V241.647C197.459 241.858 197.361 242.199 197.475 242.334V242.375C197.508 242.528 197.41 242.8 197.524 242.872C197.54 242.904 197.526 242.967 197.573 242.967C197.54 243.279 197.655 243.44 197.622 243.748C197.638 244.065 197.671 244.352 197.769 244.585C197.857 244.709 197.802 244.971 197.916 245.075V245.124C197.965 245.467 198.029 245.796 198.162 246.055C198.121 246.227 198.236 246.245 198.211 246.403C198.299 246.757 198.387 247.109 198.554 247.383C198.661 247.585 198.697 247.862 198.847 248.019C198.839 248.211 198.953 248.273 198.996 248.413V248.509C199.151 248.875 199.296 249.254 199.535 249.539V249.588C199.686 249.863 199.808 250.165 200.026 250.371V250.42C201.048 252.047 202.328 253.415 203.95 254.441H203.999C204.422 254.803 204.976 255.038 205.519 255.274C205.733 255.274 205.808 255.411 206.01 255.42H206.059C206.188 255.539 206.389 255.583 206.598 255.619C206.664 255.668 206.78 255.668 206.844 255.718C207.139 255.865 207.526 255.915 207.924 255.96H207.973C208.172 256.056 208.455 256.067 208.757 256.062H208.806C209.083 256.143 209.705 256.143 209.982 256.062C210.014 256.056 210.039 256.053 210.031 256.013H210.08C210.396 256.053 210.562 255.939 210.866 255.964C211.262 255.914 211.65 255.868 211.945 255.722C212.116 255.664 212.249 255.57 212.484 255.575C212.782 255.48 213.095 255.4 213.318 255.232H213.367C213.792 255.052 214.217 254.872 214.543 254.591H214.592C216.51 253.419 217.989 251.809 219.107 249.834C219.123 249.685 219.215 249.614 219.254 249.491V249.442C219.45 249.275 219.506 248.971 219.648 248.756C219.761 248.61 219.844 248.443 219.891 248.265V248.119C220.04 247.935 220.11 247.68 220.186 247.433V247.383C220.356 247.109 220.444 246.757 220.531 246.403V246.354C220.668 246.129 220.716 245.819 220.776 245.521C220.825 245.377 220.886 245.24 220.874 245.032C220.97 244.846 221.005 244.609 221.021 244.344C221.122 243.871 221.214 243.391 221.217 242.824C221.25 242.818 221.274 242.816 221.266 242.775C221.379 242.71 221.282 242.433 221.315 242.285V242.236C221.429 242.007 221.331 241.566 221.364 241.255V240.912C221.331 240.602 221.429 240.16 221.315 239.932V239.883C221.282 239.737 221.38 239.461 221.266 239.394C221.264 239.369 221.259 239.336 221.217 239.344C221.214 238.774 221.122 238.295 221.021 237.822C221.004 237.56 220.972 237.321 220.874 237.136C220.882 236.926 220.825 236.792 220.776 236.645C220.718 236.347 220.668 236.037 220.53 235.812V235.763C220.445 235.408 220.356 235.057 220.186 234.781V234.732C220.113 234.482 220.039 234.225 219.891 234.048V233.896C219.841 233.719 219.759 233.553 219.648 233.406C219.506 233.189 219.451 232.885 219.255 232.719V232.67C219.214 232.55 219.119 232.477 219.107 232.326C217.992 230.353 216.51 228.743 214.593 227.572H214.544C214.217 227.29 213.792 227.112 213.366 226.932H213.317C213.096 226.763 212.782 226.682 212.483 226.588C212.249 226.592 212.115 226.496 211.944 226.441C211.651 226.293 211.262 226.243 210.865 226.198C210.562 226.222 210.396 226.108 210.08 226.149H210.031C210.027 226.124 210.023 226.092 209.982 226.1C209.704 226.026 209.083 226.026 208.806 226.1V226.094ZM227.639 236.936C227.704 236.969 227.647 237.126 227.737 237.131V237.377C227.786 237.689 227.84 237.993 227.933 238.261C227.998 238.326 227.982 238.472 227.982 238.604C227.99 238.837 228.006 239.068 228.083 239.241C228.167 239.33 228.116 239.564 228.132 239.731C228.165 239.911 228.067 240.221 228.181 240.319V242.281C228.067 242.382 228.165 242.686 228.132 242.872C228.116 243.036 228.173 243.266 228.083 243.363C228.01 243.531 227.993 243.762 227.983 243.999C227.983 244.129 227.999 244.277 227.934 244.343C227.84 244.607 227.786 244.911 227.737 245.224V245.47C227.646 245.478 227.705 245.637 227.639 245.667C227.532 245.837 227.491 246.074 227.444 246.303V246.352C227.264 246.787 227.1 247.229 226.953 247.676V247.725C225.039 252.156 221.853 255.309 217.584 257.387C217.412 257.444 217.321 257.578 217.096 257.583C216.452 257.843 215.777 258.063 215.131 258.318H215.082C214.853 258.367 214.615 258.408 214.442 258.512C214.261 258.607 213.971 258.597 213.805 258.709C213.54 258.703 213.397 258.824 213.117 258.807C212.926 258.811 212.75 258.832 212.629 258.906H212.58C212.234 258.923 211.89 258.972 211.552 259.052C211.447 259.143 211.194 259.084 211.013 259.101C210.815 259.125 210.49 259.035 210.374 259.15H208.267C208.149 259.034 207.827 259.125 207.63 259.101C207.447 259.084 207.195 259.142 207.09 259.052C206.78 258.97 206.424 258.935 206.058 258.906H206.009C205.887 258.833 205.712 258.811 205.519 258.807C205.241 258.824 205.097 258.703 204.831 258.709C204.667 258.597 204.376 258.607 204.196 258.512C204.021 258.408 203.787 258.366 203.558 258.318H203.509C203.265 258.186 202.959 258.119 202.673 258.023H202.624C202.299 257.842 201.907 257.727 201.544 257.584C201.32 257.578 201.227 257.442 201.055 257.387C196.786 255.309 193.601 252.153 191.687 247.724V247.675C191.531 247.226 191.377 246.776 191.196 246.352V246.303C191.147 246.074 191.104 245.838 191 245.667C190.935 245.634 190.992 245.478 190.902 245.47V245.224C190.853 244.911 190.799 244.607 190.703 244.343C190.638 244.277 190.654 244.128 190.654 243.999C190.646 243.762 190.63 243.531 190.556 243.362C190.47 243.266 190.524 243.035 190.507 242.872C190.475 242.687 190.564 242.383 190.458 242.281V240.319C190.568 240.221 190.475 239.91 190.507 239.73C190.524 239.564 190.466 239.33 190.556 239.24C190.63 239.068 190.645 238.838 190.654 238.604C190.654 238.471 190.638 238.323 190.703 238.261C190.799 237.993 190.854 237.689 190.901 237.377V237.131C190.991 237.125 190.934 236.968 190.999 236.936C191.104 236.765 191.145 236.528 191.195 236.299V236.25C191.377 235.823 191.53 235.374 191.687 234.923V234.882C193.601 230.45 196.786 227.291 201.055 225.216C201.227 225.158 201.32 225.022 201.544 225.019C201.907 224.876 202.298 224.763 202.624 224.577H202.673C202.959 224.487 203.266 224.42 203.508 224.285H203.558C203.787 224.236 204.022 224.195 204.196 224.088C204.376 223.992 204.667 224.005 204.831 223.893C205.096 223.897 205.241 223.778 205.518 223.795C205.712 223.789 205.887 223.771 206.009 223.696H206.058C206.406 223.679 206.751 223.63 207.09 223.549C207.196 223.458 207.447 223.517 207.629 223.5C207.827 223.467 208.15 223.566 208.267 223.451H210.374C210.49 223.565 210.815 223.467 211.012 223.5C211.194 223.517 211.447 223.459 211.552 223.549V223.598C211.954 223.574 212.196 223.706 212.58 223.696H212.629C212.751 223.77 212.926 223.79 213.117 223.796C213.397 223.78 213.54 223.897 213.805 223.894C213.971 224.007 214.261 223.992 214.442 224.089C214.615 224.195 214.852 224.235 215.082 224.285H215.131C215.777 224.538 216.452 224.764 217.096 225.019C217.32 225.023 217.412 225.16 217.584 225.216C221.853 227.291 225.039 230.451 226.953 234.882V234.923C227.106 235.374 227.263 235.824 227.443 236.25V236.299C227.492 236.529 227.533 236.766 227.639 236.937M361.643 226.094H361.593C361.294 226.089 361.008 226.101 360.809 226.196H360.76C360.365 226.245 359.973 226.292 359.679 226.441C359.613 226.49 359.5 226.49 359.434 226.539C359.224 226.572 359.027 226.621 358.894 226.737H358.845C358.647 226.745 358.571 226.884 358.355 226.884C357.813 227.122 357.26 227.353 356.836 227.716H356.787C355.166 228.742 353.886 230.111 352.863 231.737V231.786C352.644 231.995 352.523 232.293 352.37 232.568V232.617C352.131 232.901 351.986 233.282 351.834 233.647V233.742C351.793 233.884 351.676 233.946 351.687 234.137C351.534 234.295 351.497 234.57 351.391 234.775C351.226 235.05 351.137 235.401 351.047 235.755C351.072 235.911 350.961 235.928 350.998 236.098C350.863 236.358 350.802 236.689 350.751 237.032V237.081C350.644 237.185 350.693 237.447 350.604 237.574C350.509 237.803 350.471 238.092 350.456 238.408C350.489 238.717 350.375 238.88 350.407 239.19C350.367 239.198 350.35 239.231 350.358 239.291C350.249 239.357 350.342 239.629 350.309 239.782V239.831C350.197 239.963 350.293 240.303 350.26 240.517V241.647C350.293 241.858 350.195 242.199 350.309 242.334V242.375C350.342 242.528 350.252 242.8 350.358 242.872C350.367 242.904 350.361 242.967 350.407 242.967C350.375 243.279 350.489 243.44 350.456 243.748C350.473 244.065 350.505 244.352 350.604 244.585C350.69 244.709 350.644 244.971 350.751 245.075V245.124C350.8 245.467 350.863 245.796 350.998 246.055C350.957 246.227 351.064 246.245 351.047 246.403C351.136 246.757 351.226 247.109 351.391 247.383C351.497 247.585 351.534 247.862 351.687 248.019C351.679 248.211 351.791 248.273 351.834 248.413V248.509C351.987 248.875 352.131 249.254 352.37 249.539V249.588C352.523 249.863 352.644 250.165 352.863 250.371V250.42C353.886 252.047 355.166 253.415 356.787 254.441H356.836C357.261 254.803 357.813 255.038 358.356 255.274C358.571 255.274 358.646 255.411 358.846 255.42H358.895C359.027 255.539 359.223 255.583 359.434 255.619C359.5 255.668 359.615 255.668 359.68 255.718C359.974 255.865 360.366 255.915 360.76 255.96H360.809C361.008 256.056 361.294 256.067 361.593 256.062H361.643C361.922 256.143 362.541 256.143 362.819 256.062C362.852 256.056 362.877 256.053 362.868 256.013H362.917C363.234 256.053 363.402 255.939 363.704 255.964C364.102 255.914 364.488 255.868 364.782 255.722C364.952 255.664 365.088 255.57 365.322 255.575C365.622 255.48 365.93 255.4 366.155 255.232H366.204C366.633 255.052 367.057 254.872 367.383 254.591H367.432C369.349 253.419 370.828 251.809 371.944 249.834C371.952 249.685 372.05 249.614 372.091 249.491V249.442C372.284 249.275 372.342 248.971 372.483 248.756C372.597 248.61 372.681 248.443 372.731 248.265V248.119C372.878 247.935 372.947 247.68 373.022 247.433V247.383C373.192 247.109 373.278 246.757 373.365 246.403V246.354C373.5 246.129 373.553 245.819 373.612 245.521C373.661 245.377 373.722 245.24 373.71 245.032C373.805 244.846 373.841 244.609 373.854 244.344C373.958 243.871 374.05 243.391 374.053 242.824C374.086 242.818 374.11 242.816 374.102 242.775C374.215 242.71 374.118 242.433 374.151 242.285V242.236C374.264 242.007 374.167 241.566 374.2 241.255V240.912C374.167 240.602 374.265 240.16 374.151 239.932V239.883C374.118 239.737 374.208 239.461 374.102 239.394C374.099 239.369 374.096 239.336 374.053 239.344C374.05 238.774 373.958 238.295 373.854 237.822C373.838 237.56 373.805 237.321 373.71 237.136C373.719 236.926 373.661 236.792 373.612 236.645C373.555 236.347 373.5 236.037 373.365 235.812V235.763C373.278 235.408 373.192 235.057 373.022 234.781V234.732C372.948 234.482 372.878 234.225 372.731 234.048V233.896C372.68 233.719 372.596 233.552 372.483 233.406C372.342 233.189 372.284 232.885 372.091 232.719V232.67C372.05 232.55 371.955 232.477 371.944 232.326C370.828 230.353 369.349 228.743 367.433 227.572H367.384C367.057 227.29 366.633 227.112 366.203 226.932H366.154C365.93 226.763 365.621 226.682 365.322 226.588C365.088 226.592 364.952 226.496 364.782 226.441C364.488 226.293 364.102 226.243 363.704 226.198C363.401 226.222 363.234 226.108 362.917 226.149H362.868C362.865 226.124 362.86 226.092 362.819 226.1C362.541 226.026 361.922 226.026 361.643 226.1V226.094ZM380.477 236.936C380.542 236.969 380.485 237.126 380.575 237.131V237.377C380.617 237.676 380.682 237.972 380.771 238.261C380.837 238.326 380.82 238.472 380.82 238.604C380.828 238.837 380.845 239.068 380.918 239.241C381.005 239.33 380.951 239.564 380.967 239.731C381 239.911 380.902 240.221 381.016 240.319V242.281C380.904 242.382 381 242.686 380.967 242.872C380.951 243.036 381.008 243.266 380.918 243.363C380.845 243.531 380.829 243.762 380.82 243.999C380.818 244.129 380.837 244.277 380.771 244.343C380.681 244.63 380.615 244.925 380.575 245.224V245.47C380.486 245.478 380.542 245.637 380.477 245.667C380.373 245.837 380.33 246.074 380.284 246.303V246.352C380.104 246.787 379.94 247.229 379.791 247.676V247.725C377.88 252.156 374.692 255.309 370.424 257.387C370.251 257.444 370.16 257.578 369.934 257.583C369.291 257.843 368.617 258.063 367.971 258.318H367.922C367.692 258.367 367.452 258.408 367.282 258.512C367.103 258.607 366.809 258.597 366.642 258.709C366.38 258.703 366.239 258.824 365.956 258.807C365.765 258.811 365.586 258.832 365.469 258.906H365.42C365.073 258.923 364.728 258.972 364.39 259.052C364.287 259.143 364.03 259.084 363.855 259.101C363.653 259.125 363.33 259.035 363.215 259.15H361.107C360.989 259.034 360.664 259.125 360.467 259.101C360.286 259.084 360.032 259.142 359.928 259.052C359.617 258.97 359.262 258.935 358.896 258.906H358.847C358.726 258.833 358.553 258.811 358.357 258.807C358.079 258.824 357.938 258.703 357.67 258.709C357.507 258.597 357.217 258.607 357.033 258.512C356.859 258.408 356.626 258.366 356.395 258.318H356.346C356.104 258.186 355.799 258.119 355.513 258.023H355.464C355.142 257.842 354.747 257.727 354.386 257.584C354.161 257.578 354.069 257.442 353.895 257.387C349.625 255.309 346.442 252.153 344.528 247.724V247.675C344.379 247.229 344.216 246.788 344.038 246.352V246.303C343.989 246.074 343.943 245.838 343.839 245.667C343.774 245.634 343.831 245.478 343.741 245.47V245.224C343.692 244.911 343.641 244.607 343.545 244.343C343.48 244.277 343.496 244.128 343.496 243.999C343.488 243.762 343.472 243.531 343.398 243.362C343.311 243.266 343.365 243.035 343.349 242.872C343.316 242.687 343.414 242.383 343.3 242.281V240.319C343.413 240.221 343.316 239.91 343.349 239.73C343.365 239.564 343.308 239.33 343.398 239.24C343.472 239.068 343.488 238.838 343.496 238.604C343.496 238.471 343.48 238.323 343.545 238.261C343.64 237.993 343.695 237.689 343.741 237.377V237.131C343.831 237.125 343.774 236.968 343.839 236.936C343.943 236.765 343.986 236.528 344.038 236.299V236.25C344.218 235.823 344.373 235.374 344.528 234.923V234.882C346.443 230.45 349.625 227.291 353.895 225.216C354.069 225.158 354.16 225.022 354.386 225.019C354.746 224.876 355.141 224.763 355.464 224.577H355.513C355.799 224.487 356.104 224.42 356.347 224.285H356.396C356.626 224.236 356.859 224.195 357.033 224.088C357.217 223.992 357.506 224.005 357.671 223.893C357.938 223.897 358.079 223.778 358.357 223.795C358.553 223.789 358.726 223.771 358.848 223.696H358.897C359.244 223.679 359.589 223.63 359.928 223.549C360.032 223.458 360.285 223.517 360.467 223.5C360.664 223.467 360.99 223.566 361.107 223.451H363.215C363.329 223.565 363.653 223.467 363.855 223.5C364.03 223.517 364.287 223.459 364.391 223.549V223.598C364.791 223.574 365.04 223.706 365.42 223.696H365.469C365.587 223.77 365.765 223.79 365.956 223.796C366.239 223.78 366.38 223.897 366.642 223.894C366.81 224.007 367.104 223.992 367.282 224.089C367.452 224.195 367.692 224.235 367.922 224.285H367.971C368.617 224.538 369.292 224.764 369.934 225.019C370.159 225.023 370.251 225.16 370.424 225.216C374.691 227.291 377.88 230.451 379.791 234.882V234.923C379.948 235.374 380.103 235.824 380.284 236.25V236.299C380.333 236.529 380.374 236.766 380.477 236.937M168.388 227.128C167.918 227.041 167.333 227.079 166.524 227.079C166.296 227.079 164.732 226.933 164.562 227.079C164.452 227.169 164.512 228.253 164.512 228.746V254.887C164.989 254.969 165.802 254.975 166.277 254.887H166.326C166.737 254.855 167.276 254.953 167.604 254.838H167.651C168.229 254.843 168.783 254.822 169.271 254.739H169.32C169.835 254.731 170.32 254.69 170.742 254.591H170.793C171.178 254.586 171.526 254.542 171.822 254.443H171.871C172.086 254.449 172.277 254.427 172.41 254.349H172.459C172.724 254.332 172.964 254.291 173.145 254.199H173.194C173.472 254.166 173.734 254.117 173.929 254.005C173.994 253.956 174.112 253.956 174.176 253.907C174.643 253.833 174.96 253.612 175.402 253.516C175.639 253.423 175.884 253.341 176.039 253.173H176.09C177.368 252.576 178.036 251.336 178.591 249.935C179.885 246.658 178.754 243.291 176.039 242.187C175.89 242.17 175.82 242.08 175.697 242.034C173.194 240.695 169.243 240.808 165.397 240.81C166.497 239.853 167.572 238.865 168.78 238.015C168.811 238.011 168.839 238.009 168.831 237.966C169.096 238.007 169.209 237.892 169.467 237.917C169.802 237.876 170.107 237.806 170.349 237.672H170.4C170.611 237.606 170.849 237.565 170.986 237.426H171.035C171.305 237.32 171.587 237.225 171.772 237.037C171.844 237.028 171.856 236.954 171.92 236.938C172.184 236.842 172.336 236.637 172.606 236.545C173.653 235.793 174.524 234.866 175.058 233.602V233.553C175.247 233.268 175.365 232.911 175.403 232.478V232.135C175.433 232.132 175.461 232.127 175.451 232.086C175.533 231.936 175.533 231.448 175.451 231.303C175.449 231.27 175.443 231.246 175.402 231.254C175.402 231.125 175.421 230.972 175.354 230.911C175.37 230.716 175.24 230.663 175.256 230.471C174.831 229.437 174.008 228.803 173.049 228.309H172.999C172.854 228.196 172.687 228.114 172.509 228.067H172.411C172.337 228.042 172.286 227.993 172.215 227.968C171.99 227.816 171.687 227.742 171.379 227.673C171.032 227.608 170.689 227.526 170.35 227.428C169.724 227.264 169.083 227.166 168.437 227.135H168.388L168.388 227.128ZM178.344 225.115C178.581 225.123 178.713 225.238 178.883 225.312C179.062 225.442 179.261 225.541 179.472 225.605C179.554 225.596 179.557 225.654 179.619 225.654C179.889 225.891 180.258 226.027 180.551 226.24H180.6C181.961 227.27 183.129 228.487 183.641 230.362C183.832 230.961 183.855 231.64 183.739 232.323C183.666 232.49 183.634 232.709 183.594 232.912C183.57 232.986 183.521 233.036 183.494 233.108C183.381 233.256 183.321 233.46 183.249 233.648C183.265 233.73 183.208 233.734 183.2 233.796C181.984 235.936 180.015 237.319 177.705 238.357H177.656C177.418 238.447 177.156 238.513 176.968 238.65H176.919C176.564 238.74 176.275 238.892 175.939 238.993C176.034 239.112 176.263 239.094 176.476 239.094H176.526C176.97 239.19 177.473 239.226 177.948 239.291H177.997C178.118 239.365 178.294 239.381 178.488 239.387C178.603 239.371 178.677 239.395 178.733 239.436C179.005 239.555 179.341 239.61 179.664 239.678C179.768 239.662 179.795 239.711 179.861 239.727C180.241 239.901 180.68 240.02 181.086 240.168H181.135C183.159 241.067 184.8 242.357 185.843 244.24C185.867 244.28 185.892 244.321 185.892 244.386C185.94 244.564 186.023 244.73 186.137 244.875C186.253 245.108 186.336 245.355 186.382 245.611C186.431 245.855 186.486 246.097 186.578 246.297C186.635 246.355 186.635 246.473 186.627 246.593C186.643 246.793 186.652 246.996 186.726 247.132C186.813 247.227 186.759 247.459 186.775 247.624C186.808 247.869 186.71 248.246 186.824 248.41V248.949C186.751 249.366 186.705 249.811 186.626 250.221C186.667 250.393 186.553 250.41 186.577 250.566C186.528 250.631 186.528 250.746 186.479 250.811C186.362 251.005 186.312 251.264 186.232 251.501C186.272 251.648 186.15 251.641 186.183 251.793C186.008 252.077 185.876 252.401 185.742 252.725C185.711 252.768 185.694 252.819 185.693 252.872C185.519 252.99 185.497 253.264 185.351 253.411C184.286 255.123 182.928 256.545 181.083 257.483C180.908 257.599 180.657 257.644 180.496 257.775H180.447C180.214 257.849 179.954 257.903 179.761 258.02H179.565C179.153 258.102 178.724 258.159 178.338 258.268H178.289C178.139 258.293 177.866 258.203 177.798 258.317H158.176C158.209 247.003 158.111 235.561 158.228 224.327C163.739 224.352 169.375 224.262 174.805 224.376H174.856C174.939 224.489 175.229 224.393 175.394 224.425C175.548 224.433 175.754 224.393 175.836 224.474C176.056 224.564 176.351 224.578 176.62 224.621H176.865C177.008 224.705 177.211 224.733 177.405 224.767C177.47 224.816 177.585 224.816 177.652 224.865C177.844 224.983 178.101 225.037 178.336 225.111M245.642 253.564C245.792 253.572 245.863 253.669 245.986 253.71C246.153 253.804 246.279 253.939 246.52 253.956C246.605 254.057 246.759 254.08 246.866 254.153C247.106 254.301 247.373 254.401 247.652 254.445H247.799C247.865 254.494 247.979 254.494 248.046 254.546C248.317 254.665 248.649 254.723 249.027 254.74H249.517C249.509 254.781 249.534 254.789 249.566 254.789C249.842 254.873 250.461 254.873 250.743 254.789C250.784 254.797 250.792 254.773 250.792 254.74H251.233C251.447 254.743 251.638 254.724 251.771 254.642H251.82C252.092 254.618 252.324 254.558 252.507 254.445C252.615 254.404 252.699 254.344 252.851 254.349C254.732 253.679 256.032 252.426 256.973 250.816V250.767C257.196 250.513 257.322 250.168 257.463 249.835V249.786C257.7 249.414 257.828 248.941 257.954 248.46V248.411C258.069 248.214 258.115 247.951 258.149 247.673V247.624C258.301 247.222 258.361 246.722 258.396 246.202V246.153C258.509 246.087 258.413 245.811 258.445 245.662V245.613C258.56 245.434 258.462 245.045 258.494 244.78V244.586C258.576 244.485 258.576 244.049 258.494 243.948V243.654C258.642 237.325 258.445 230.655 258.59 224.33C260.668 224.362 262.875 224.264 264.874 224.379V258.369C262.779 258.337 260.555 258.435 258.545 258.32V254.298C258.083 254.671 257.801 255.182 257.365 255.576C256.43 256.41 255.273 256.961 254.13 257.587L253.737 257.78C253.511 257.821 253.393 257.964 253.145 257.976C252.931 258.05 252.666 258.084 252.508 258.221H252.459C252.252 258.249 252.052 258.316 251.87 258.419H251.821C251.641 258.452 251.449 258.468 251.331 258.566C251.2 258.615 251.072 258.667 250.892 258.661C250.656 258.686 250.419 258.71 250.254 258.81H250.205C249.905 258.834 249.611 258.867 249.368 258.956C249.063 259.033 248.75 259.066 248.436 259.054C248.093 259.087 247.62 258.989 247.361 259.103H247.312C246.945 259.022 246.47 259.054 246.037 259.054H245.988C245.765 258.981 245.481 258.97 245.203 258.956C244.918 258.954 244.635 258.904 244.366 258.809C243.49 258.56 242.624 258.297 241.866 257.929C241.714 257.913 241.646 257.823 241.522 257.779C239.596 256.679 238.127 255.125 237.01 253.219V253.17C236.807 252.798 236.652 252.383 236.42 252.04V251.991C236.251 251.603 236.128 251.171 235.93 250.811V250.762C235.839 250.482 235.767 250.172 235.634 249.929V249.88C235.585 249.651 235.548 249.415 235.441 249.243V249.194C235.392 248.935 235.345 248.667 235.244 248.459V248.41C234.933 246.277 235.047 243.697 235.047 241.248V224.327H241.376C241.409 232.01 241.311 239.825 241.425 247.43V247.479C241.419 247.827 241.49 248.097 241.571 248.362C241.604 248.471 241.673 248.553 241.667 248.705C241.855 249.268 242.09 249.786 242.405 250.224V250.273C243.176 251.634 244.293 252.767 245.642 253.558M296.308 234.237C296.267 234.462 296.114 234.566 296.016 234.729C295.399 235.486 294.656 236.118 293.856 236.692C293.678 236.793 293.552 236.939 293.317 236.984C293.012 237.154 292.663 237.279 292.384 237.475H292.335C292.07 237.587 291.775 237.668 291.55 237.818H291.501C291.117 237.945 290.712 238.045 290.372 238.212C290.251 238.253 290.158 238.325 289.981 238.307C289.657 238.381 289.322 238.437 289.05 238.555C288.992 238.612 288.874 238.612 288.752 238.604C288.435 238.609 288.198 238.7 287.92 238.751C287.863 238.817 287.863 238.869 287.969 238.897H288.018C288.12 239.057 288.353 239.083 288.51 239.189H288.559C288.72 239.355 288.948 239.456 289.145 239.583H289.194C291.486 241.117 293.275 243.153 294.687 245.565V245.614C294.994 246.16 295.211 246.791 295.573 247.281V247.33C295.693 247.551 295.783 247.806 295.967 247.968C296.062 248.152 296.205 248.282 296.258 248.507C296.389 248.703 296.47 248.952 296.654 249.099V249.148C296.785 249.373 296.91 249.613 297.093 249.788V249.837C297.411 250.321 297.688 250.842 298.071 251.259C298.19 251.439 298.347 251.574 298.418 251.799C298.632 252.075 298.792 252.4 299.052 252.633V252.682C302.396 257.186 306.211 261.217 311.022 264.253H311.071C311.226 264.427 311.445 264.535 311.659 264.646C311.91 264.728 312.09 264.872 312.299 264.99C312.397 265.153 312.633 265.175 312.788 265.285H312.837C313.248 265.589 313.761 265.797 314.256 266.02H314.305C314.615 266.234 315.005 266.369 315.386 266.511C315.55 266.511 315.645 266.576 315.726 266.656H314.158C313.978 266.543 313.583 266.64 313.324 266.607H313.275C313.194 266.497 312.901 266.591 312.734 266.558C312.554 266.542 312.301 266.599 312.196 266.509C311.978 266.435 311.692 266.425 311.411 266.413C311.27 266.408 311.09 266.438 311.019 266.364C310.777 266.276 310.485 266.246 310.184 266.218H310.135C310.012 266.144 309.839 266.122 309.644 266.12H309.595C309.429 266.023 309.191 265.997 308.958 265.973H308.909C308.5 265.824 308.036 265.728 307.582 265.63C307.358 265.654 307.304 265.52 307.095 265.532C306.977 265.466 306.813 265.45 306.702 265.385C306.309 265.2 305.857 265.084 305.423 264.942H305.374C305.268 264.821 305.053 264.805 304.885 264.749C304.636 264.732 304.517 264.591 304.296 264.553C303.974 264.397 303.62 264.275 303.316 264.107C303.169 263.994 303.001 263.911 302.822 263.865C302.512 263.767 302.275 263.596 301.99 263.471C301.857 263.293 301.587 263.251 301.401 263.128C301.016 263.004 300.747 262.77 300.42 262.589C297.29 260.634 294.666 258.173 292.474 255.279V255.23C292.271 254.977 292.129 254.656 291.889 254.442C291.797 254.352 291.753 254.217 291.639 254.149V254.1C291.623 253.973 291.493 253.953 291.493 253.808C291.33 253.562 291.213 253.272 291.003 253.072V253.023C290.758 252.613 290.55 252.168 290.268 251.797C290.237 251.754 290.22 251.703 290.219 251.65C289.999 251.245 289.827 250.8 289.582 250.423V250.374C289.516 250.164 289.415 249.966 289.286 249.789V249.74C289.22 249.529 289.121 249.33 288.992 249.15C288.967 249.109 288.942 249.069 288.942 249.004C288.668 248.411 288.412 247.799 288.057 247.285C288.025 247.242 288.007 247.191 288.008 247.138C287.901 246.986 287.874 246.75 287.715 246.647V246.598C287.526 246.281 287.371 245.926 287.127 245.667V245.618C286.082 243.982 284.866 242.515 283.201 241.499C283.079 241.508 283.047 241.426 282.957 241.4H282.908C282.754 241.228 282.506 241.147 282.271 241.057C282.17 241.008 282.077 240.955 281.977 240.911C281.57 240.679 281.041 240.568 280.506 240.471C280.613 240.218 280.768 240.01 280.847 239.734C280.839 239.613 280.929 239.582 280.945 239.489C281.109 239.244 281.242 238.98 281.341 238.703C281.333 238.613 281.398 238.602 281.39 238.507C281.471 238.309 281.586 238.151 281.686 237.966H281.927C281.92 238.015 281.952 238.015 281.976 238.015C282.352 238.099 283.071 238.099 283.447 238.015H283.497C286.361 237.542 288.093 235.937 289.137 233.65V233.601C289.274 233.427 289.331 233.173 289.385 232.914C289.376 232.58 289.524 232.401 289.483 232.032C289.533 232.03 289.516 231.975 289.533 231.934C289.615 231.869 289.615 231.463 289.533 231.395C289.541 231.337 289.524 231.305 289.483 231.298V230.906C289.37 230.219 289.137 229.65 288.745 229.239V229.19C288.337 228.62 287.802 228.171 287.177 227.816H287.128C286.905 227.613 286.592 227.5 286.291 227.377C286.136 227.402 286.1 227.304 285.996 227.278C285.773 227.126 285.473 227.053 285.162 226.983C285.12 226.992 285.077 226.993 285.034 226.984C284.992 226.976 284.952 226.959 284.917 226.934C284.778 226.825 284.548 226.814 284.33 226.785C284.02 226.802 283.867 226.661 283.544 226.69C283.29 226.616 283.026 226.583 282.761 226.591C282.758 226.558 282.753 226.534 282.712 226.542C282.629 226.43 282.339 226.526 282.173 226.493H282.073C281.909 226.38 281.537 226.477 281.292 226.444H281.191C280.864 226.361 280.194 226.361 279.867 226.444H279.818C279.529 226.419 279.58 226.46 279.524 226.59C279.392 226.897 279.524 227.941 279.524 228.553V258.373C277.432 258.341 275.207 258.439 273.196 258.324V224.335C278.414 224.359 283.752 224.269 288.893 224.384H288.942C289.008 224.494 289.282 224.4 289.434 224.433H289.483C290.031 224.553 290.611 224.643 291.149 224.776H291.198C291.389 224.894 291.647 224.945 291.884 225.021H291.934C292.321 225.239 292.777 225.39 293.159 225.609H293.208V225.658C294.5 226.331 295.456 227.337 296.251 228.502V228.551C296.682 229.311 296.981 230.206 297.086 231.299V231.642C296.972 231.724 297.07 232.014 297.037 232.18C297.033 232.309 297.053 232.459 296.988 232.523C296.904 232.666 296.878 232.87 296.841 233.062C296.874 233.214 296.755 233.207 296.792 233.357C296.747 233.397 296.713 233.449 296.694 233.506C296.528 233.717 296.439 234.001 296.3 234.238" fill="#46986D"/>
<path fill-rule="evenodd" clip-rule="evenodd" d="M319.069 227.128C317.892 227.013 316.501 227.112 315.245 227.079C315.126 236.249 315.228 245.633 315.188 254.887C315.667 254.969 316.48 254.975 316.956 254.887H317.005C317.41 254.855 317.95 254.953 318.276 254.838H318.325C318.902 254.843 319.457 254.822 319.943 254.739H319.992C320.512 254.731 320.996 254.69 321.415 254.591H321.464C321.849 254.587 322.196 254.542 322.492 254.444H322.541C322.755 254.449 322.946 254.427 323.078 254.349H323.127C323.392 254.332 323.631 254.292 323.814 254.199H323.863C324.141 254.166 324.403 254.117 324.6 254.005C324.665 253.956 324.779 253.956 324.846 253.907C325.31 253.833 325.628 253.612 326.071 253.516C326.309 253.423 326.555 253.341 326.709 253.173H326.758C328.038 252.576 328.705 251.336 329.26 249.935C330.555 246.658 329.424 243.291 326.71 242.187C326.558 242.17 326.49 242.08 326.367 242.034C323.864 240.695 319.914 240.808 316.068 240.81C317.166 239.853 318.242 238.865 319.452 238.015C319.476 238.011 319.509 238.009 319.501 237.966C319.766 238.007 319.877 237.892 320.139 237.917C320.471 237.876 320.777 237.807 321.02 237.672H321.069C321.281 237.606 321.518 237.565 321.655 237.426H321.704C321.974 237.32 322.256 237.225 322.442 237.037C322.516 237.029 322.526 236.954 322.592 236.938C322.853 236.842 323.008 236.637 323.275 236.546C324.321 235.793 325.192 234.866 325.726 233.602V233.553C325.914 233.268 326.037 232.911 326.071 232.478V232.135C326.104 232.132 326.129 232.127 326.12 232.086C326.202 231.936 326.202 231.449 326.12 231.303C326.116 231.27 326.113 231.246 326.071 231.254C326.071 231.125 326.088 230.972 326.022 230.911C326.039 230.716 325.91 230.663 325.923 230.471C325.498 229.437 324.676 228.803 323.717 228.309H323.668C323.521 228.197 323.354 228.115 323.176 228.067H323.078C323.004 228.042 322.953 227.993 322.883 227.968C322.659 227.816 322.356 227.742 322.051 227.673C321.703 227.608 321.359 227.526 321.019 227.428C320.393 227.264 319.752 227.166 319.105 227.135H319.056L319.069 227.128ZM329.027 225.115C329.26 225.123 329.395 225.238 329.564 225.312C329.742 225.442 329.941 225.541 330.153 225.605C330.234 225.596 330.238 225.654 330.302 225.654C330.568 225.891 330.94 226.027 331.23 226.24H331.279C332.639 227.27 333.809 228.487 334.32 230.362C334.512 230.961 334.535 231.64 334.419 232.323C334.338 232.49 334.315 232.71 334.272 232.912C334.239 232.986 334.199 233.036 334.174 233.108C334.061 233.256 333.998 233.46 333.929 233.648C333.937 233.73 333.88 233.734 333.88 233.796C332.666 235.936 330.696 237.319 328.385 238.357H328.336C328.1 238.447 327.837 238.513 327.648 238.65H327.599C327.244 238.74 326.957 238.892 326.617 238.993C326.715 239.112 326.944 239.094 327.154 239.094H327.203C327.648 239.19 328.149 239.226 328.625 239.291H328.674C328.796 239.365 328.973 239.381 329.165 239.387C329.207 239.378 329.25 239.378 329.292 239.387C329.334 239.395 329.374 239.412 329.41 239.436C329.682 239.555 330.018 239.61 330.342 239.678C330.446 239.662 330.471 239.711 330.536 239.727C330.92 239.901 331.355 240.02 331.764 240.168H331.813C333.837 241.067 335.481 242.357 336.521 244.24C336.546 244.281 336.578 244.321 336.57 244.386C336.615 244.565 336.698 244.732 336.815 244.875C336.932 245.107 337.013 245.355 337.057 245.611C337.114 245.855 337.164 246.097 337.256 246.297C337.313 246.355 337.313 246.473 337.305 246.593C337.313 246.793 337.321 246.996 337.403 247.132C337.486 247.227 337.436 247.459 337.452 247.624C337.485 247.869 337.387 248.247 337.501 248.41V248.949C337.427 249.366 337.382 249.812 337.305 250.221C337.346 250.393 337.231 250.41 337.256 250.566C337.207 250.631 337.207 250.746 337.158 250.811C337.039 251.005 336.988 251.264 336.91 251.501C336.951 251.648 336.827 251.641 336.861 251.793C336.688 252.077 336.555 252.401 336.423 252.725C336.389 252.766 336.371 252.819 336.374 252.872C336.201 252.99 336.178 253.264 336.031 253.411C334.967 255.123 333.606 256.545 331.764 257.483C331.588 257.599 331.339 257.644 331.174 257.775H331.125C330.892 257.849 330.63 257.903 330.438 258.02H330.241C329.83 258.102 329.402 258.159 329.017 258.268H328.968C328.816 258.293 328.543 258.203 328.476 258.317H308.857C308.89 247.003 308.792 235.561 308.906 224.327C314.419 224.352 320.053 224.262 325.484 224.376H325.533C325.615 224.489 325.907 224.393 326.071 224.425C326.223 224.434 326.431 224.393 326.516 224.474C326.732 224.564 327.031 224.578 327.299 224.621H327.543C327.686 224.705 327.889 224.733 328.082 224.767C328.147 224.816 328.264 224.816 328.329 224.865C328.523 224.983 328.779 225.037 329.016 225.111M421.387 258.322C421.245 258.316 421.064 258.347 420.995 258.273C419.518 257.676 418.426 256.44 417.316 255.329C416.21 254.227 415.115 253.115 414.029 251.994C411.87 249.753 409.558 247.599 407.458 245.323C405.386 243.081 403.057 241.017 400.883 238.65C399.13 236.746 396.996 234.713 395.097 232.816C394.852 232.567 394.436 231.942 394.309 232.224C394.206 232.466 394.309 233.317 394.309 233.843V258.32C392.643 258.287 390.844 258.385 389.259 258.271V224.329H394.505C395.105 224.329 395.823 224.205 396.273 224.329C396.625 224.425 397.262 225.266 397.645 225.653C399.046 227.049 400.387 228.44 401.667 229.723C406.954 235.011 411.792 240.042 417.071 245.321C417.206 245.455 417.578 246.047 417.705 245.762C417.916 245.298 417.705 243.84 417.705 243.112C417.708 236.721 417.705 230.523 417.705 224.329C419.374 224.362 421.17 224.264 422.758 224.378V257.877C422.701 258.048 422.611 258.187 422.468 258.271H422.419C422.081 258.295 421.773 258.344 421.39 258.32" fill="#46986D"/>
</svg>
