<svg width="480" height="320" viewBox="0 0 480 320" fill="none" xmlns="http://www.w3.org/2000/svg">
<path d="M63.9307 160.072C63.9307 124.844 91.2638 96.2861 124.985 96.2861C158.705 96.2861 186.04 124.844 186.04 160.072C186.04 195.298 158.705 223.854 124.985 223.854C91.2638 223.854 63.9307 195.298 63.9307 160.072Z" fill="#ECEE04"/>
<path d="M111.403 162.933L113.061 157.418C113.875 154.715 114.217 153.053 114.09 152.427C113.968 151.525 112.919 151.077 110.952 151.077C108.825 151.077 107.39 151.525 106.647 152.427C106.155 153.012 105.496 154.676 104.671 157.418L103.014 162.933L111.403 162.933ZM117.381 196.513H101.308L110.397 166.281H102.008L92.9182 196.513H76.8467L88.7954 156.77C90.5363 150.977 98.2229 148.081 111.852 148.081C125.247 148.081 131.071 150.977 129.33 156.771L117.381 196.513ZM124.995 196.513L135.089 162.939H146.396L136.299 196.513H124.995ZM168.443 170.33L169.003 168.473C169.4 167.149 169.49 166.298 169.273 165.911C169.065 165.498 168.351 165.292 167.133 165.292H164.056L161.56 173.591H164.636C165.856 173.591 166.729 173.358 167.257 172.891C167.643 172.531 168.039 171.68 168.443 170.33H168.443ZM171.961 196.513H160.571L165.785 179.168C166.191 177.82 166.291 176.937 166.081 176.525C165.928 176.112 165.216 175.906 163.941 175.906H160.864L154.668 196.513H143.362L153.456 162.939H167.839C173.382 162.939 177.097 163.391 178.985 164.301C180.536 165.044 181.049 166.281 180.528 168.017L179.795 170.452C179.142 172.627 177.184 174.072 173.92 174.789C176.753 175.506 177.842 176.951 177.188 179.125L171.961 196.513ZM227.468 196.491L237.516 163.067H248.773L238.724 196.491H227.468ZM256.619 163.067H267.875L271.543 185.555L278.305 163.067H283.437L273.387 196.491H262.295L258.587 173.59L251.702 196.491H246.57L256.619 163.067ZM303.304 194.107L302.588 196.492H281.152L291.201 163.067H302.456L293.124 194.107H303.304ZM333.009 172.974L334.172 169.109C334.738 167.218 334.98 166.053 334.891 165.614C334.805 164.985 334.071 164.669 332.693 164.669C331.203 164.669 330.198 164.985 329.676 165.614C329.333 166.025 328.872 167.191 328.293 169.109L327.134 172.974H333.009ZM337.196 196.492H325.939L332.303 175.316H326.428L320.063 196.492H308.806L317.175 168.658C318.396 164.6 323.778 162.572 333.323 162.572C342.704 162.572 346.786 164.6 345.565 168.658L337.196 196.492ZM355.354 163.067H366.609L370.279 185.555L377.04 163.067H382.17L372.12 196.491H361.03L357.321 173.59L350.436 196.491H345.304L355.354 163.067ZM399.22 189.995L405.635 168.658C406.041 167.314 406.155 166.463 405.988 166.107C405.74 165.643 405.012 165.408 403.795 165.408H400.652L392.011 194.15H395.154C396.426 194.15 397.308 193.873 397.804 193.327C398.221 192.86 398.693 191.75 399.22 189.995ZM410.349 190.695C409.805 192.504 408.546 193.847 406.571 194.724C404.01 195.902 399.97 196.492 394.451 196.492H380.048L390.098 163.067H404.501C410.021 163.067 413.718 163.519 415.6 164.423C417.142 165.163 417.656 166.397 417.136 168.123L410.349 190.695ZM234.895 148.766L233.853 152.23H220.263L217.084 162.796H230.676L229.687 166.084H216.096L206.954 196.492H190.882L205.232 148.766H234.895Z" fill="#0D2A67"/>
</svg>
