<svg width="480" height="320" viewBox="0 0 480 320" fill="none" xmlns="http://www.w3.org/2000/svg">
<path d="M95.3085 89.4872C103.602 88.9869 112.061 90.9763 119.173 95.2952C125.585 99.1252 130.942 104.671 134.613 111.169C139.699 120.086 141.473 130.788 139.741 140.892C143.844 139.36 147.922 137.748 151.9 135.921C154.038 134.896 156.23 133.988 158.393 133.027C160.553 132.035 162.728 130.997 165.091 130.597C167.585 130.131 170.323 130.337 172.526 131.688C173.627 132.38 174.554 133.307 175.44 134.248C173.633 134.189 171.83 133.932 170.016 134.023C167.541 134.138 165.045 134.332 162.649 135C161.148 135.41 159.744 136.1 158.329 136.728C155.192 138.175 152.107 139.735 148.947 141.135C145.428 142.724 141.809 144.127 138.492 146.121C137.21 150.521 135.189 154.691 132.619 158.477C135.789 158.484 138.957 158.484 142.125 158.487C141.538 173.141 140.881 187.791 140.233 202.439C136.158 202.448 132.082 202.432 128.007 202.432C128.381 199.311 128.777 196.19 129.073 193.063C125.532 193.063 121.989 193.073 118.445 193.07C117.025 196.187 115.581 199.29 114.195 202.418C110.078 202.456 105.954 202.432 101.835 202.432C107.77 191.892 113.793 181.394 119.721 170.847C115.299 173.534 110.399 175.428 105.307 176.362C97.8119 177.743 89.9477 176.975 82.8472 174.21C76.125 171.612 70.1457 167.204 65.5521 161.658C59.2664 154.12 55.666 144.426 55.41 134.623C55.2045 128.563 56.2518 122.452 58.4687 116.806C61.5181 108.983 66.8627 102.059 73.7082 97.1873C80.004 92.6655 87.5697 89.9279 95.3085 89.4872ZM75.101 98.3625C68.5268 102.902 63.3814 109.425 60.341 116.802C57.4644 123.707 56.5638 131.372 57.4734 138.782C58.4208 146.174 61.3263 153.317 65.8686 159.234C70.6409 165.495 77.2384 170.362 84.6725 172.985C90.7851 175.163 97.4314 175.711 103.845 174.792C110.102 173.84 116.115 171.367 121.245 167.663C121.703 167.357 122.03 166.903 122.292 166.427C123.776 163.773 125.277 161.141 126.783 158.501C128.017 158.49 129.25 158.512 130.484 158.487C132.813 155.176 134.796 151.601 136.114 147.764C132.091 150.417 128.061 153.33 123.298 154.473C118.823 155.415 114.228 155.363 109.681 155.549C104.552 155.736 99.4308 156.384 94.4539 157.643C91.2232 158.418 88.0681 159.481 84.8411 160.283C83.1186 160.689 81.1244 160.756 79.6325 159.67C79.116 159.323 78.8186 158.411 79.4018 157.992C80.4393 157.255 81.7176 156.995 82.939 156.738C86.8386 156 90.7463 155.302 94.6406 154.541C98.2716 153.817 101.927 153.201 105.531 152.348C109.25 151.464 112.954 150.181 116.08 147.921C108.848 145.761 101.759 143.089 95.0058 139.714C90.4329 137.461 86.3617 134.263 82.912 130.525C79.3342 126.805 76.7732 122.28 74.4024 117.736C72.202 113.655 70.3676 109.376 69.0253 104.933C75.1028 108.798 81.0768 112.853 87.4831 116.163C91.0809 117.949 94.8614 119.387 98.7738 120.301C94.0052 116.906 90.0839 112.211 87.9871 106.717C94.3964 109.444 100.78 112.231 107.173 114.995C107.65 115.154 107.857 115.633 108.064 116.047C109.826 119.815 112.271 123.255 115.167 126.24C119.988 131.355 125.347 135.981 131.196 139.886C133.121 141.229 135.542 142.028 137.884 141.459C139.598 132.262 138.385 122.498 134.194 114.107C130.583 106.816 124.816 100.589 117.76 96.5282C111.425 92.8575 104.065 90.997 96.7482 91.2261C89.0374 91.4088 81.4148 93.9473 75.101 98.3625ZM123.108 184.571C125.414 184.582 127.718 184.582 130.022 184.582C130.799 178.383 131.61 172.185 132.269 165.973C129.293 172.207 126.138 178.358 123.108 184.571L123.108 184.571Z" fill="#00477F"/>
<path d="M156.67 158.04C160.339 158.04 164.011 158.04 167.68 158.051C167.092 160.018 166.354 161.938 165.682 163.883C165.589 164.393 164.986 164.368 164.583 164.379C161.215 164.355 157.841 164.379 154.468 164.355C155.153 162.23 155.923 160.141 156.67 158.04ZM211.498 158.233C216.774 158.237 222.05 158.224 227.324 158.241C227.456 160.87 227.299 163.506 227.532 166.127C227.569 173.296 227.847 180.46 227.949 187.628C230.871 177.828 233.796 168.031 236.731 158.232H247.14C242.578 173.039 237.957 187.82 233.341 202.61C228.344 202.61 223.35 202.599 218.352 202.603C218.035 197.483 217.972 192.348 217.701 187.225C217.621 184.005 217.424 180.797 217.35 177.576C217.295 176.195 217.258 174.81 217.079 173.44C214.151 183.143 211.385 192.9 208.475 202.61C204.929 202.618 201.386 202.599 197.842 202.603C202.396 187.816 206.946 173.025 211.498 158.233ZM334.37 164.371C335.095 162.302 335.816 160.235 336.548 158.167C340.244 158.152 343.94 158.154 347.636 158.172C346.896 160.234 346.17 162.3 345.458 164.371C341.762 164.382 338.066 164.375 334.37 164.371ZM387.065 158.156C390.753 158.156 394.435 158.156 398.124 158.158C397.409 160.236 396.678 162.309 395.929 164.375C392.253 164.382 388.575 164.368 384.898 164.368C385.583 162.287 386.333 160.226 387.065 158.156ZM352.157 158.675C355.756 158.658 359.354 158.647 362.957 158.669C361.702 163.034 360.453 167.397 359.167 171.756C361.994 169.784 365.575 169.108 368.968 169.409C370.9 169.654 372.773 170.602 373.972 172.153C375.422 173.988 375.955 176.371 376 178.666C376.073 182.22 375.04 185.674 373.796 188.957C372.296 192.763 370.141 196.421 366.966 199.062C364.262 201.347 360.764 202.663 357.227 202.728C354.663 202.8 351.981 202.239 349.994 200.53C349.785 201.226 349.565 201.922 349.338 202.614C345.584 202.614 341.836 202.614 338.081 202.6C342.768 187.957 347.466 173.314 352.157 158.675ZM360.04 178.387C358.449 178.686 356.643 179.368 355.994 180.994C354.869 184.062 353.867 187.174 352.972 190.318C352.828 190.885 352.587 191.434 352.579 192.027C352.651 192.879 353.448 193.365 354.18 193.603C356.026 194.258 358.273 194.245 359.888 193.028C361.7 191.699 362.65 189.574 363.388 187.528C364.076 185.48 364.662 183.327 364.5 181.149C364.41 180.172 364.071 179.079 363.153 178.58C362.21 178.023 361.064 178.185 360.04 178.387ZM403.961 171.756C407.289 170.014 411.077 169.181 414.833 169.369C417.126 169.419 419.495 169.766 421.518 170.92C423.191 171.846 424.355 173.62 424.55 175.524C424.759 177.503 424.449 179.508 423.844 181.398C422.498 185.613 421.132 189.821 419.794 194.045C418.882 196.803 417.851 199.648 418.146 202.61C414.595 202.603 411.036 202.61 407.481 202.603C407.367 201.99 407.246 201.377 407.131 200.764C405.171 202.138 402.786 202.738 400.431 202.924C398.7 203.007 396.945 203.112 395.234 202.801C393.483 202.481 391.734 201.576 390.822 199.985C389.888 198.5 389.877 196.661 390.122 194.981C390.649 191.678 392.701 188.717 395.453 186.85C398.791 184.466 402.8 183.273 406.795 182.552C408.784 182.041 410.866 182.065 412.848 181.52C413.253 180.211 413.65 178.82 413.367 177.446C413.086 176.447 411.827 176.241 410.956 176.498C409.233 176.858 408.007 178.304 407.307 179.84C403.759 179.469 400.193 179.317 396.649 178.924C398.055 175.694 400.889 173.339 403.961 171.756M404.628 189.745C403.676 190.271 402.735 190.946 402.234 191.941C401.823 192.745 401.657 193.747 402.043 194.591C402.53 195.377 403.594 195.327 404.396 195.208C405.887 194.941 407.374 194.609 408.818 194.133C409.476 192.183 410.052 190.207 410.675 188.245C408.606 188.432 406.482 188.743 404.628 189.745ZM251.157 172.978C256.41 169.499 263.286 168.403 269.301 170.364C271.046 171.013 272.658 172.293 273.299 174.089C274.172 176.472 273.685 179.086 272.979 181.445C271.5 186.082 269.993 190.711 268.522 195.348C267.808 197.692 266.907 200.126 267.321 202.618C263.752 202.61 260.178 202.618 256.608 202.614C256.493 202.032 256.378 201.446 256.241 200.874C253.728 202.583 250.623 203.068 247.637 203.117C245.445 203.182 243.072 202.931 241.266 201.563C239.683 200.389 239.003 198.332 239.083 196.421C239.257 193.52 240.475 190.655 242.578 188.62C244.755 186.428 247.565 184.993 250.459 183.994C252.584 183.229 254.833 182.894 257.034 182.409C258.687 182.031 260.431 182.137 262.042 181.531C262.298 180.273 262.787 179.003 262.569 177.702C262.406 176.829 261.429 176.385 260.613 176.515C258.671 176.627 257.196 178.203 256.455 179.883C252.907 179.613 249.354 179.36 245.813 179.025C246.833 176.461 248.881 174.46 251.157 172.978ZM252.556 190.625C251.445 191.461 250.695 192.907 251.012 194.31C251.207 195.103 252.123 195.449 252.866 195.377C254.149 195.24 255.4 194.905 256.655 194.627C257.196 194.476 257.919 194.35 258.108 193.736C258.7 191.934 259.259 190.127 259.778 188.303C257.265 188.602 254.582 188.977 252.556 190.625H252.556ZM313.439 170.822C315.238 170.151 317.142 169.863 319.028 169.574C321.016 169.268 323.189 169.747 324.705 171.118C326.007 172.272 326.605 174.042 326.634 175.747C326.619 177.374 326.086 178.921 325.621 180.46C323.389 187.845 321.153 195.226 318.921 202.614C315.191 202.607 311.468 202.607 307.742 202.607C309.735 196.254 311.735 189.903 313.742 183.554C314.064 182.499 314.272 181.322 313.9 180.251C313.497 179.503 312.543 179.166 311.737 179.182C309.29 179.707 306.732 181.266 306.033 183.815C304.149 190.089 302.245 196.356 300.321 202.618C296.52 202.618 292.724 202.625 288.927 202.61C290.971 196.508 293.03 190.409 295.049 184.293C295.397 183.006 295.922 181.56 295.318 180.264C294.743 179.178 293.275 179.007 292.217 179.378C289.81 180.15 287.896 182.252 287.254 184.682C285.445 190.664 283.597 196.641 281.764 202.614C278.189 202.621 274.617 202.6 271.039 202.607C274.406 191.955 277.731 181.282 281.072 170.617C284.585 170.602 288.097 170.613 291.611 170.613C291.37 171.525 291.115 172.43 290.867 173.344C292.689 171.963 294.694 170.768 296.912 170.144C298.807 169.573 300.822 169.632 302.767 169.879C304.166 170.076 305.593 170.465 306.736 171.327C307.52 171.925 308.027 172.8 308.423 173.681C309.948 172.495 311.621 171.478 313.439 170.822V170.822ZM182.958 170.267C185.041 169.697 187.227 170.043 189.307 170.436C188.028 173.88 186.654 177.287 185.301 180.702C184.683 180.143 184.16 179.42 183.379 179.076C181.655 178.823 179.951 179.451 178.433 180.215C176.907 181.041 175.348 182.187 174.843 183.936C173.035 190.108 171.22 196.273 169.392 202.437C165.688 202.441 161.984 202.43 158.277 202.426C161.643 191.771 165.004 181.109 168.348 170.447C171.896 170.429 175.445 170.433 178.993 170.44C178.702 171.395 178.413 172.347 178.13 173.303C179.578 172.073 181.056 170.717 182.958 170.267ZM152.733 170.443C156.403 170.425 160.079 170.436 163.749 170.44C160.404 181.163 157.057 191.885 153.707 202.607H142.639C146.011 191.888 149.376 181.167 152.733 170.443V170.443ZM322.587 202.607C325.938 191.883 329.3 181.163 332.686 170.451C336.343 170.451 340.003 170.458 343.659 170.458C340.349 181.189 336.984 191.898 333.633 202.614C329.95 202.618 326.268 202.603 322.587 202.607L322.587 202.607ZM383.185 170.458C386.839 170.443 390.49 170.458 394.148 170.458C391.686 178.657 389.057 186.806 386.537 194.984C385.738 197.53 384.936 200.076 384.115 202.614C380.441 202.618 376.767 202.6 373.091 202.607C376.442 191.887 379.81 181.174 383.185 170.458Z" fill="#00477F"/>
<path d="M348.35 215.49C349.381 214.603 350.85 214.751 352.075 215.09C351.969 215.674 351.866 216.258 351.764 216.842C351.22 216.804 350.661 216.691 350.124 216.812C349.529 217.194 349.489 217.989 349.269 218.598C349.828 218.696 350.502 218.613 350.982 218.926C350.971 219.464 350.877 220.019 350.621 220.502C350.106 220.704 349.504 220.585 348.955 220.628C348.397 222.997 347.987 225.399 347.474 227.775C347.264 228.766 346.756 229.783 345.818 230.263C344.867 230.699 343.761 230.645 342.79 230.306C342.894 229.783 343.017 229.268 343.204 228.774C343.821 228.667 344.757 228.766 345.005 228.027C345.694 225.604 346.015 223.091 346.599 220.646C346.167 220.614 345.739 220.596 345.315 220.567C345.418 220.012 345.402 219.395 345.709 218.905C346.066 218.649 346.545 218.692 346.969 218.602C347.192 217.488 347.419 216.251 348.35 215.49H348.35ZM270.029 227.295C270.894 223.17 271.576 219.009 272.586 214.917C273.318 214.879 274.062 214.852 274.776 215.05C274.524 216.644 274.269 218.252 273.756 219.792C274.531 219.031 275.56 218.429 276.684 218.53C277.545 218.503 278.403 219.085 278.602 219.943C278.916 221.144 278.492 222.37 278.299 223.56C278.048 224.811 277.803 226.066 277.507 227.31C276.749 227.339 275.989 227.339 275.23 227.31C275.495 225.482 275.979 223.693 276.267 221.869C276.354 221.385 276.154 220.924 276.036 220.473C274.686 220.56 273.657 221.674 273.301 222.918C272.885 224.362 272.719 225.871 272.321 227.321C271.554 227.346 270.79 227.331 270.029 227.295ZM397.763 215.039C398.504 214.925 399.253 214.876 400.002 214.892C399.919 216.507 399.508 218.079 399.137 219.647C399.977 218.973 400.994 218.364 402.119 218.533C403.291 218.571 404.106 219.716 404.188 220.803C404.336 222.509 404.003 224.302 403.046 225.736C402 227.609 399.238 228.175 397.624 226.697C397.246 227.616 396.157 227.313 395.385 227.299C396.05 223.192 397.006 219.135 397.763 215.039ZM400.511 220.527C398.931 221.184 398.257 223.024 398.178 224.613C398.416 225.57 399.784 225.9 400.545 225.345C401.261 224.789 401.582 223.888 401.771 223.033C401.895 222.341 402.002 221.595 401.736 220.917C401.585 220.415 400.925 220.401 400.511 220.527ZM238.605 215.342C239.227 215.065 239.928 215.252 240.578 215.302C240.652 215.908 240.768 216.59 240.384 217.127C239.965 217.762 239.095 217.614 238.45 217.567C237.977 217.592 237.809 217.033 237.876 216.655C237.959 216.161 238.108 215.576 238.605 215.342ZM312.224 215.306C312.837 215.13 313.81 215.003 314.167 215.67C314.329 216.46 313.933 217.614 312.97 217.61C312.429 217.592 311.495 217.758 311.398 217.031C311.286 216.377 311.585 215.58 312.224 215.306ZM322.832 215.443C323.481 215.003 324.299 215.241 325.013 215.342C324.981 216.024 325.15 216.878 324.548 217.369C323.989 217.733 323.279 217.563 322.659 217.581C322.551 217.473 322.331 217.271 322.224 217.167C322.349 216.583 322.313 215.847 322.832 215.443ZM393.267 215.523C393.901 214.982 394.796 215.252 395.538 215.342C395.538 216.067 395.664 217.008 394.954 217.459C394.368 217.686 393.707 217.639 393.104 217.524C392.506 217.001 392.816 216.042 393.267 215.522L393.267 215.523ZM407.39 215.461C408.065 214.996 408.923 215.252 409.666 215.382C409.608 216.112 409.716 217.08 408.962 217.498C408.259 217.747 407.517 217.57 406.835 217.358C406.932 216.72 406.843 215.923 407.39 215.461ZM198.175 217.473C199.875 215.569 203.007 214.881 205.207 216.316C205.876 216.97 205.307 217.96 205.005 218.661C204.217 218.137 203.358 217.524 202.363 217.603C201.133 217.735 200.131 218.64 199.575 219.705C198.938 220.931 198.58 222.352 198.787 223.733C198.903 224.523 199.505 225.229 200.305 225.388C201.608 225.734 202.792 224.912 203.995 224.562C203.847 225.373 203.958 226.531 203.053 226.938C201.372 227.732 199.243 227.84 197.629 226.823C196.514 226.059 196.051 224.641 196.062 223.34C196.086 221.23 196.775 219.074 198.174 217.473H198.175ZM357.072 216.07C357.952 215.677 358.958 215.647 359.888 215.874C360.346 216.143 360.474 216.702 360.656 217.167C361.386 219.438 362.203 221.688 362.845 223.989C363.318 221.244 363.864 218.512 364.482 215.797C365.192 215.753 365.91 215.753 366.624 215.833C366 219.247 365.264 222.637 364.612 226.04C364.518 226.621 364.226 227.393 363.498 227.331C362.778 227.328 361.68 227.602 361.325 226.762C360.353 224.148 359.578 221.468 358.655 218.84C358.176 221.677 357.606 224.495 356.978 227.306C356.282 227.328 355.586 227.335 354.898 227.328C355.46 223.545 356.326 219.817 357.072 216.07ZM266.402 216.64C267.116 216.586 267.88 216.424 268.533 216.831C268.421 217.429 268.305 218.027 268.187 218.623C268.836 218.67 269.488 218.723 270.141 218.786C270.058 219.402 269.939 220.012 269.766 220.61C269.106 220.61 268.443 220.618 267.783 220.621C267.494 222.26 266.95 223.866 267.047 225.547C267.642 225.498 268.241 225.446 268.841 225.406C268.745 226.024 268.78 226.791 268.239 227.216C267.323 227.67 266.166 227.678 265.266 227.187C264.606 226.776 264.471 225.903 264.566 225.193C264.757 223.657 265.176 222.157 265.421 220.632C265.031 220.614 264.646 220.599 264.26 220.592C264.323 220.044 264.26 219.442 264.546 218.952C264.88 218.641 265.387 218.721 265.807 218.627C265.94 217.949 266.063 217.253 266.402 216.64ZM327.256 216.763C327.992 216.563 328.76 216.532 329.513 216.655C329.475 217.343 329.401 218.036 329.329 218.728C329.975 218.739 330.62 218.761 331.269 218.793C331.129 219.384 331.179 220.124 330.696 220.567C330.094 220.654 329.488 220.617 328.886 220.621C328.554 222.051 328.277 223.498 327.99 224.937C328.062 225.092 328.201 225.399 328.273 225.55L329.935 225.366C329.794 226.035 329.874 227.014 329.106 227.324C328.122 227.65 326.859 227.699 326.068 226.927C325.504 226.369 325.621 225.501 325.697 224.789C325.916 223.387 326.238 222.009 326.519 220.625C326.113 220.606 325.709 220.596 325.311 220.583C325.379 219.986 325.473 219.392 325.603 218.809C326.041 218.741 326.484 218.681 326.93 218.616C327.043 218 327.148 217.383 327.256 216.763ZM206.12 220.83C206.779 219.503 208.142 218.414 209.687 218.523C210.538 218.476 211.256 218.995 211.91 219.471C211.956 219.298 212.051 218.957 212.102 218.782C212.773 218.634 213.464 218.64 214.14 218.782C213.547 221.627 213.048 224.495 212.397 227.324C211.735 227.337 211.073 227.337 210.411 227.324C210.466 226.951 210.525 226.58 210.584 226.208C209.8 226.893 208.88 227.578 207.785 227.559C206.792 227.643 205.762 227.041 205.47 226.062C204.913 224.328 205.334 222.428 206.12 220.83M208.593 221.003C207.606 222.258 207.337 223.973 207.746 225.505C208.287 225.525 208.9 225.698 209.378 225.361C210.676 224.461 211.318 222.804 211.248 221.261C210.728 220.351 209.259 220.16 208.593 221.003H208.593ZM218.084 219.846C218.852 218.901 220.163 218.102 221.363 218.782C221.29 219.501 221.094 220.194 220.861 220.866C220.353 220.852 219.809 220.666 219.33 220.882C218.391 221.458 217.867 222.521 217.651 223.569C217.396 224.816 217.154 226.062 216.885 227.299C216.136 227.346 215.386 227.353 214.634 227.303C215.022 224.436 215.749 221.634 216.249 218.789C216.895 218.653 217.56 218.641 218.21 218.753C218.167 219.114 218.127 219.474 218.084 219.846ZM226.022 218.652C226.566 218.49 227.144 218.584 227.703 218.598C227.66 219.363 227.539 220.127 227.295 220.859C226.564 220.762 225.696 220.641 225.185 221.306C223.704 222.925 223.882 225.301 223.295 227.292C222.54 227.335 221.784 227.346 221.028 227.324C221.467 224.45 222.115 221.62 222.678 218.771C223.332 218.647 224.003 218.638 224.661 218.76C224.578 219.164 224.484 219.57 224.395 219.972C224.893 219.481 225.351 218.901 226.022 218.652V218.652ZM243.884 219.907C244.845 219.034 246.101 218.281 247.455 218.569C248.685 218.717 249.298 220.134 249.101 221.245C248.768 223.275 248.31 225.28 247.904 227.292C247.154 227.337 246.408 227.347 245.661 227.306C245.798 225.532 246.343 223.83 246.613 222.081C246.714 221.54 246.574 221.007 246.462 220.488C245.157 220.52 244.14 221.551 243.75 222.734C243.264 224.22 243.119 225.784 242.73 227.295C241.973 227.335 241.219 227.338 240.462 227.321C240.899 224.454 241.569 221.631 242.124 218.789C242.766 218.647 243.43 218.64 244.079 218.753C244.017 219.135 243.945 219.521 243.884 219.907L243.884 219.907ZM253.151 218.825C254.434 218.209 255.992 218.584 257.045 219.485C257.063 219.305 257.106 218.955 257.124 218.775C257.795 218.645 258.474 218.627 259.151 218.744C258.675 221.503 258.054 224.238 257.535 226.989C257.308 228.089 256.915 229.304 255.88 229.897C254.128 230.874 251.995 230.692 250.145 230.113C250.176 229.459 250.322 228.828 250.61 228.236C251.786 228.653 253.107 228.994 254.321 228.543C255.143 228.164 255.161 227.133 255.408 226.379C254.782 226.881 254.103 227.36 253.293 227.501C252.347 227.699 251.227 227.389 250.728 226.509C250.073 225.363 250.194 223.964 250.459 222.72C250.803 221.155 251.661 219.561 253.151 218.825ZM254.395 220.506C252.84 221.241 252.512 223.246 252.657 224.796C252.638 225.575 253.623 225.777 254.193 225.481C255.545 224.807 256.093 223.239 256.324 221.843C256.569 220.848 255.206 220.268 254.395 220.506ZM280.911 220.693C281.589 219.629 282.678 218.771 283.954 218.602C285.074 218.458 286.345 218.465 287.272 219.204C288.368 220.044 288.256 221.962 287.102 222.705C285.671 223.742 283.807 223.574 282.137 223.718C282.188 224.396 282.126 225.395 282.941 225.655C284.236 225.994 285.534 225.464 286.789 225.186C286.706 225.792 286.598 226.39 286.443 226.982C284.95 227.526 283.309 227.735 281.748 227.378C280.688 227.115 279.916 226.091 279.851 225.016C279.772 223.516 280.096 221.966 280.911 220.693ZM283.846 220.336C283.042 220.65 282.7 221.512 282.39 222.244C283.385 222.236 284.467 222.323 285.353 221.782C285.776 221.569 285.811 221.025 285.692 220.621C285.249 220.077 284.445 220.159 283.846 220.336ZM295.046 218.948C296.441 218.306 298.1 218.414 299.459 219.096C299.333 219.666 299.2 220.228 299.066 220.798C298.179 220.473 297.191 219.986 296.246 220.372C295.749 220.545 295.601 221.389 296.084 221.652C296.87 222.197 297.923 222.413 298.482 223.246C299.063 224.184 298.799 225.431 298.158 226.26C297.454 227.122 296.319 227.504 295.237 227.548C294.227 227.569 293.088 227.501 292.352 226.715C292.459 226.167 292.572 225.626 292.706 225.089C293.697 225.482 294.811 226.159 295.886 225.647C296.319 225.507 296.533 224.933 296.362 224.537C295.644 223.679 294.305 223.587 293.726 222.581C293.019 221.281 293.769 219.572 295.046 218.948L295.046 218.948ZM303.404 219.875C304.334 218.934 305.69 218.266 307.031 218.602C307.922 218.807 308.488 219.658 308.668 220.506C308.953 221.818 308.657 223.185 308.238 224.436C307.716 225.857 306.611 227.238 305.045 227.504C304.046 227.703 303.029 227.375 302.232 226.772C302.073 228.016 301.8 229.239 301.54 230.465C300.804 230.548 300.061 230.58 299.322 230.504C299.319 229.412 299.643 228.359 299.845 227.299C300.429 224.443 300.967 221.58 301.594 218.735C302.261 218.645 302.932 218.652 303.595 218.739C303.519 219.115 303.455 219.494 303.404 219.875ZM304.94 220.553C303.454 221.194 302.903 222.907 302.672 224.378C302.704 225.502 304.334 226.001 305.124 225.294C306.025 224.488 306.35 223.232 306.393 222.063C306.389 221.568 306.429 221 306.087 220.603C305.733 220.423 305.304 220.43 304.94 220.553H304.94ZM317.405 219.907C317.892 219.413 318.366 218.825 319.058 218.62C319.614 218.429 320.192 218.627 320.748 218.746C320.611 219.459 320.436 220.165 320.223 220.859C319.583 220.827 318.788 220.587 318.312 221.147C316.635 222.745 316.862 225.24 316.25 227.299C315.491 227.337 314.726 227.338 313.969 227.317C314.416 224.45 315.079 221.627 315.622 218.779C316.276 218.647 316.954 218.634 317.616 218.768C317.55 219.15 317.473 219.529 317.405 219.907ZM339.177 218.677C340.121 218.486 341.113 218.476 342.06 218.692C343.035 218.957 343.893 219.781 344.037 220.808C344.351 222.867 343.745 225.182 342.087 226.538C340.915 227.522 339.267 227.71 337.807 227.454C336.617 227.257 335.585 226.228 335.499 225.006C335.149 222.435 336.505 219.366 339.177 218.677ZM339.552 220.469C338.117 221.263 337.702 223.084 337.835 224.605C337.832 225.415 338.733 225.891 339.461 225.752C340.652 225.615 341.333 224.43 341.592 223.376C341.798 222.512 341.993 221.499 341.477 220.718C340.98 220.228 340.157 220.16 339.552 220.469H339.552ZM368.131 220.242C369.171 218.418 371.865 217.949 373.442 219.361C373.871 218.476 374.924 218.571 375.736 218.753C375.24 221.62 374.627 224.461 374.062 227.313C373.392 227.324 372.725 227.331 372.061 227.324C372.112 226.953 372.169 226.585 372.227 226.214C371.412 226.906 370.456 227.613 369.332 227.559C368.275 227.645 367.247 226.884 367.028 225.85C366.616 223.935 367.013 221.854 368.131 220.242ZM370.28 220.938C369.25 222.204 368.937 223.985 369.429 225.536C369.984 225.532 370.621 225.694 371.093 225.312C372.294 224.425 372.907 222.895 372.928 221.431C372.559 220.397 371.001 220.124 370.28 220.938ZM379.713 219.882C380.654 219.074 381.827 218.292 383.131 218.551C383.96 218.609 384.429 219.381 384.742 220.062C385.72 218.93 387.315 218.106 388.803 218.706C389.848 219.154 390.086 220.448 389.911 221.461C389.589 223.421 389.147 225.357 388.758 227.306C387.993 227.339 387.229 227.339 386.472 227.317C386.706 225.63 387.119 223.982 387.432 222.316C387.562 221.699 387.472 221.075 387.328 220.473C386.138 220.542 385.175 221.411 384.757 222.482C384.144 224.025 384.123 225.72 383.596 227.285C382.846 227.375 382.089 227.35 381.339 227.285C381.645 225.615 381.993 223.953 382.307 222.283C382.39 221.721 382.565 221 382.053 220.585C380.922 220.473 380.113 221.483 379.689 222.406C379.056 223.971 378.97 225.68 378.543 227.303C377.786 227.334 377.029 227.339 376.273 227.317C376.727 224.447 377.358 221.605 377.946 218.761C378.592 218.642 379.254 218.641 379.9 218.757C379.842 219.132 379.774 219.503 379.713 219.882ZM410.318 221.317C410.924 219.828 412.298 218.465 414.003 218.523C414.89 218.431 415.662 218.944 416.336 219.467C416.419 219.218 416.518 218.971 416.61 218.732C417.259 218.634 417.919 218.652 418.568 218.771C417.995 221.627 417.483 224.501 416.812 227.335C416.154 227.335 415.492 227.331 414.838 227.317C414.891 226.942 414.951 226.568 415.018 226.196C414.222 226.917 413.261 227.605 412.136 227.559C411.187 227.616 410.261 227.021 409.936 226.131C409.33 224.566 409.716 222.82 410.318 221.317ZM413.452 220.682C412.154 221.663 411.854 223.477 412.078 224.998C412.233 225.734 413.228 225.734 413.751 225.391C415.107 224.551 415.608 222.911 415.817 221.42C415.341 220.654 414.267 220.123 413.452 220.682ZM228.05 218.807C228.809 218.626 229.596 218.6 230.365 218.732C230.664 220.654 230.941 222.583 231.219 224.508C232.442 222.799 233.134 220.794 233.731 218.797C234.52 218.608 235.342 218.603 236.134 218.782C235.091 222.961 232.589 226.556 230.07 229.971C229.407 230.887 228.146 230.497 227.197 230.483C227.643 229.199 228.869 228.388 229.337 227.137C229.015 224.346 228.294 221.609 228.05 218.807ZM237.608 218.825C238.362 218.62 239.153 218.613 239.919 218.786C239.454 221.643 238.832 224.468 238.256 227.306C237.492 227.34 236.727 227.34 235.966 227.31C236.441 224.469 237.096 221.66 237.608 218.826V218.825ZM311.138 218.8C311.888 218.638 312.66 218.62 313.417 218.771C312.984 221.641 312.339 224.468 311.762 227.31C310.99 227.346 310.222 227.335 309.454 227.279C310.01 224.454 310.569 221.627 311.138 218.8V218.8ZM322.042 218.782C322.796 218.623 323.574 218.634 324.326 218.793C323.832 221.634 323.216 224.454 322.669 227.292C321.909 227.335 321.148 227.339 320.387 227.321C320.823 224.454 321.462 221.62 322.042 218.782V218.782ZM392.56 218.793C393.31 218.623 394.085 218.613 394.839 218.782C394.37 221.634 393.75 224.461 393.176 227.295C392.43 227.337 391.687 227.351 390.948 227.306C391.298 224.436 392.015 221.627 392.56 218.793L392.56 218.793ZM406.648 218.786C407.405 218.62 408.184 218.631 408.945 218.8C408.429 221.627 407.794 224.436 407.3 227.266C406.516 227.341 405.728 227.35 404.942 227.295C405.479 224.454 406.035 221.616 406.648 218.786Z" fill="#170E0A"/>
<path d="M75.1009 98.3624C81.4147 93.9446 89.0372 91.4061 96.7462 91.2186C104.063 90.9897 111.425 92.8484 117.76 96.5207C124.817 100.58 130.583 106.807 134.194 114.102C138.385 122.489 139.598 132.252 137.884 141.452C135.538 142.025 133.121 141.221 131.196 139.881C125.347 135.976 119.992 131.346 115.167 126.232C112.273 123.247 109.826 119.81 108.064 116.04C107.856 115.626 107.648 115.148 107.173 114.989C100.78 112.224 94.3962 109.434 87.987 106.713C90.0838 112.209 94.0032 116.9 98.7736 120.295C94.8596 119.381 91.0807 117.945 87.4832 116.158C81.0767 112.848 75.1046 108.789 69.0254 104.928C70.3694 109.368 72.2019 113.651 74.4023 117.729C76.7731 122.272 79.3359 126.801 82.9119 130.52C86.3616 134.258 90.4307 137.455 95.0056 139.709C101.759 143.084 108.85 145.756 116.079 147.916C112.954 150.175 109.251 151.457 105.531 152.344C101.925 153.195 98.2698 153.812 94.6405 154.538C90.7481 155.298 86.8387 155.996 82.9389 156.736C81.7174 156.991 80.4392 157.247 79.4016 157.988C78.8184 158.411 79.1159 159.319 79.6324 159.664C81.1243 160.752 83.1202 160.685 84.8409 160.277C88.068 159.477 91.2231 158.416 94.4538 157.637C99.429 156.38 104.552 155.73 109.681 155.545C114.228 155.357 118.823 155.409 123.298 154.469C128.061 153.324 132.093 150.415 136.114 147.761C134.796 151.593 132.811 155.174 130.484 158.485C129.249 158.507 128.016 158.488 126.783 158.499C125.279 161.137 123.776 163.773 122.292 166.425C122.026 166.901 121.701 167.351 121.245 167.658C116.115 171.361 110.102 173.84 103.845 174.788C97.4313 175.7 90.7833 175.156 84.6705 172.982C77.24 170.362 70.6406 165.491 65.8685 159.232C61.326 153.315 58.4207 146.174 57.4733 138.781C56.5637 131.369 57.4659 123.705 60.3407 116.799C63.3832 109.425 68.5284 102.902 75.1009 98.3624Z" fill="#FFF500"/>
</svg>
