<svg width="480" height="320" viewBox="0 0 480 320" fill="none" xmlns="http://www.w3.org/2000/svg">
<path d="M342.165 134.322C341.646 135.918 340.866 137.311 339.811 138.502C338.752 139.693 337.396 140.616 335.748 141.266C334.096 141.916 332.133 142.24 329.855 142.24C328.122 142.24 326.714 142.16 325.631 141.996C324.549 141.831 323.847 141.67 323.522 141.51V127.048C323.522 123.965 324.304 121.39 325.876 119.333C327.448 117.275 329.802 116.248 332.943 116.248C336.082 116.248 338.535 117.397 340.295 119.7C342.051 122.002 342.937 125.047 342.937 128.838C342.937 130.735 342.678 132.721 342.165 134.321M348.906 112.346C347.167 110.63 345.094 109.29 342.814 108.41C340.512 107.516 338.065 107.069 335.462 107.069C333.563 107.069 331.897 107.299 330.466 107.76C329.031 108.218 327.811 108.763 326.813 109.385C325.81 110.007 325.038 110.59 324.497 111.133C323.954 111.672 323.63 112.026 323.522 112.186V92.985L312.149 96.2703V149.876C312.474 149.93 313.109 150.024 314.06 150.16C315.006 150.296 316.182 150.419 317.591 150.527C318.998 150.636 320.594 150.744 322.383 150.853C324.171 150.961 326.041 151.012 327.989 151.012C336.811 151.012 343.464 148.969 347.931 144.882C352.399 140.792 354.631 134.879 354.631 127.619C354.631 124.32 354.118 121.381 353.087 118.806C352.06 116.236 350.667 114.084 348.905 112.347M290.668 131.032C290.668 134.12 289.881 136.691 288.313 138.748C286.741 140.805 284.387 141.837 281.242 141.837C278.107 141.837 275.655 140.688 273.894 138.385C272.138 136.083 271.252 133.038 271.252 129.247C271.252 127.351 271.511 125.36 272.029 123.764C272.542 122.167 273.324 120.775 274.383 119.582C275.438 118.388 276.794 117.469 278.445 116.82C280.098 116.169 282.057 115.845 284.336 115.845C286.067 115.845 287.475 115.925 288.558 116.089C289.641 116.25 290.342 116.415 290.668 116.575V131.032ZM296.519 108.897C294.946 108.435 293.026 108.017 290.752 107.635C288.474 107.258 285.875 107.07 282.951 107.07C279.321 107.07 276.073 107.625 273.206 108.732C270.334 109.843 267.881 111.401 265.853 113.407C263.823 115.407 262.265 117.832 261.183 120.675C260.099 123.519 259.558 127.05 259.558 130.462C259.558 133.819 260.072 136.785 261.102 139.357C262.129 141.931 263.508 144.082 265.246 145.815C266.968 147.542 269.047 148.872 271.337 149.713C273.663 150.579 276.13 151.012 278.728 151.012C280.569 151.012 282.207 150.782 283.643 150.32C285.079 149.862 286.294 149.335 287.301 148.738C288.299 148.145 289.085 147.561 289.655 146.991C290.219 146.426 290.559 146.06 290.668 145.895V149.878L302.041 149.873V111.212C301.767 111.047 301.174 110.736 300.252 110.274C299.334 109.818 298.087 109.357 296.519 108.896M259.422 108.674C258.277 108.076 256.626 107.563 254.252 107.182C252.827 106.962 251.387 106.854 249.945 106.861C247.455 106.861 245.153 107.093 243.044 107.548C240.93 108.01 239.075 108.525 237.48 109.093C235.879 109.662 234.593 110.218 233.619 110.76C232.644 111.301 232.047 111.654 231.836 111.815V149.876H243.204V118.071C243.693 117.797 244.56 117.436 245.807 116.974C247.05 116.512 248.811 116.282 251.085 116.282C251.843 116.282 252.643 116.339 253.481 116.446C254.318 116.555 254.992 116.644 255.834 116.89C255.905 116.914 255.967 116.926 256.032 116.95C257.131 114.287 258.223 111.621 259.309 108.952C259.346 108.857 259.385 108.768 259.422 108.675M413.242 131.031C413.242 134.119 412.455 136.689 410.887 138.747C409.316 140.804 406.962 141.836 403.817 141.836C400.682 141.836 398.229 140.687 396.469 138.384C394.713 136.082 393.827 133.037 393.827 129.246C393.827 127.349 394.086 125.358 394.598 123.763C395.116 122.166 395.899 120.774 396.958 119.581C398.013 118.386 399.368 117.468 401.016 116.819C402.668 116.168 404.631 115.844 406.909 115.844C408.637 115.844 410.05 115.924 411.133 116.088C412.215 116.248 412.917 116.414 413.242 116.574V131.031ZM422.827 110.274C421.909 109.818 420.661 109.357 419.093 108.896C417.521 108.434 415.601 108.016 413.321 107.634C411.048 107.257 408.449 107.069 405.526 107.069C401.896 107.069 398.648 107.624 395.776 108.731C392.905 109.842 390.456 111.4 388.428 113.405C386.393 115.406 384.84 117.831 383.758 120.674C382.674 123.518 382.133 127.049 382.133 130.461C382.133 133.818 382.647 136.783 383.672 139.355C384.704 141.93 386.082 144.081 387.82 145.814C389.543 147.54 391.622 148.871 393.911 149.711C396.237 150.578 398.704 151.011 401.303 151.011C403.144 151.011 404.782 150.78 406.217 150.319C407.649 149.861 408.869 149.334 409.871 148.736C410.874 148.143 411.66 147.56 412.23 146.99C412.794 146.425 413.134 146.058 413.242 145.893V149.876L424.616 149.872V111.212C424.342 111.047 423.744 110.736 422.827 110.274ZM368.538 92.0088C366.8 92.0088 365.312 92.6066 364.07 93.7973C362.823 94.9892 362.196 96.4487 362.196 98.1805C362.196 99.9135 362.823 101.391 364.07 102.611C365.312 103.826 366.8 104.438 368.538 104.438C370.321 104.438 371.837 103.826 373.081 102.611C374.327 101.391 374.949 99.9135 374.949 98.1805C374.949 96.4487 374.327 94.9892 373.081 93.7973C371.836 92.6066 370.321 92.0088 368.538 92.0088ZM362.888 149.872H374.262V107.069L362.888 110.35V149.872ZM186.881 126.633C187.861 123.998 188.859 121.338 189.867 118.673C190.869 116.004 191.796 113.551 192.639 111.316C193.365 109.384 194.115 107.461 194.89 105.548C195.539 103.942 196.006 102.851 196.278 102.277C196.552 102.851 197.013 103.942 197.668 105.548C198.442 107.46 199.19 109.383 199.913 111.316L202.691 118.673C203.697 121.337 204.692 123.998 205.67 126.633H186.881ZM218.414 128.611C217.096 125.166 215.736 121.737 214.333 118.325C213.07 115.275 211.817 112.221 210.572 109.163C209.574 106.694 208.54 104.239 207.468 101.801C206.755 100.17 206.019 98.5487 205.26 96.938C204.682 95.6381 204.11 94.3357 203.543 93.0308H189.01C189.01 93.0308 188.487 94.2408 187.291 96.938C186.535 98.5489 185.8 100.17 185.088 101.801C184.015 104.24 182.98 106.694 181.981 109.164C180.842 111.974 179.585 115.025 178.225 118.324C176.822 121.737 175.46 125.166 174.139 128.611C172.777 132.17 171.417 135.758 170.056 139.373C168.697 142.989 167.415 146.486 166.22 149.87H178.223L182.88 137.306H209.671L214.333 149.872H226.336C225.094 146.359 223.813 142.859 222.496 139.373C221.144 135.782 219.784 132.195 218.414 128.611ZM127.442 92.0088C125.71 92.0088 124.217 92.6066 122.975 93.7973C121.727 94.9892 121.107 96.4487 121.107 98.1805C121.107 99.9135 121.727 101.391 122.975 102.611C124.217 103.826 125.71 104.437 127.442 104.437C129.226 104.437 130.742 103.826 131.989 102.611C133.233 101.391 133.859 99.9135 133.859 98.1805C133.859 96.4487 133.232 94.9892 131.991 93.7973C130.74 92.6066 129.226 92.0088 127.44 92.0088M121.795 149.872H133.164V107.069L121.795 110.35V149.872ZM76.0475 126.633C77.0309 123.998 78.024 121.338 79.0315 118.673C80.039 116.004 80.967 113.551 81.8094 111.316C82.6519 109.074 83.4051 107.153 84.0595 105.548C84.7091 103.942 85.1755 102.851 85.443 102.277C85.7202 102.851 86.183 103.942 86.8326 105.548C87.6107 107.459 88.3608 109.382 89.0827 111.316C89.9263 113.551 90.8531 116.004 91.8546 118.673C92.8669 121.337 93.8612 123.998 94.8398 126.633H76.0475ZM107.585 128.611C106.265 125.166 104.903 121.737 103.498 118.325C102.137 115.025 100.885 111.974 99.7412 109.163C98.7429 106.694 97.7072 104.239 96.6343 101.801C95.9216 100.17 95.1868 98.5488 94.43 96.938C93.8491 95.6393 93.2766 94.3369 92.7127 93.0308H78.1795C78.1795 93.0308 77.6564 94.2408 76.4609 96.938C75.9149 98.0865 75.181 99.7062 74.253 101.801C73.1839 104.24 72.1498 106.695 71.1509 109.164C70.006 111.974 68.755 115.025 67.3943 118.324C65.9897 121.736 64.6278 125.165 63.3088 128.611C61.9469 132.17 60.5863 135.758 59.222 139.373C57.8602 142.989 56.5803 146.486 55.3896 149.87H67.3931L72.0499 137.306H98.841L103.498 149.872H115.501C114.259 146.359 112.98 142.859 111.666 139.372C110.306 135.757 108.945 132.169 107.586 128.61M168.069 116.95C169.165 114.286 170.258 111.62 171.346 108.952C171.382 108.857 171.42 108.768 171.458 108.675C170.314 108.076 168.662 107.563 166.289 107.181C164.864 106.961 163.423 106.854 161.981 106.861C159.491 106.861 157.19 107.093 155.08 107.548C152.967 108.01 151.112 108.525 149.515 109.093C147.915 109.662 146.63 110.218 145.655 110.76C144.681 111.301 144.083 111.654 143.871 111.815V149.876H155.24V118.071C155.73 117.797 156.592 117.436 157.843 116.974C159.086 116.512 160.847 116.282 163.121 116.282C163.878 116.282 164.675 116.338 165.517 116.446C166.355 116.555 167.029 116.644 167.871 116.89C167.941 116.914 168.004 116.926 168.069 116.95ZM274.892 197.358C274.892 199.971 274.228 202.146 272.9 203.888C271.568 205.629 269.577 206.5 266.922 206.5C264.261 206.5 262.19 205.525 260.697 203.581C259.21 201.633 258.466 199.052 258.466 195.847C258.466 194.241 258.683 192.561 259.121 191.21C259.528 189.903 260.207 188.697 261.112 187.67C262.006 186.662 263.151 185.886 264.549 185.335C265.947 184.783 267.604 184.506 269.534 184.506C270.998 184.506 272.19 184.577 273.107 184.713C274.02 184.849 274.618 184.99 274.891 185.128L274.892 197.358ZM337.721 177.445L328.08 180.226V205.865H316.775C315.528 205.865 314.522 205.691 313.759 205.342C312.991 204.994 312.416 204.49 312.026 203.817C311.63 203.149 311.376 202.325 311.258 201.354C311.135 200.226 311.077 199.091 311.084 197.956V177.444L301.514 180.208V197.956C301.514 199.255 301.448 200.385 301.307 201.354C301.165 202.325 300.902 203.149 300.507 203.817C300.115 204.49 299.546 204.994 298.811 205.342C298.067 205.692 297.074 205.865 295.827 205.865H284.519V180.581C284.289 180.443 283.784 180.179 283.003 179.789C282.222 179.403 281.171 179.012 279.845 178.621C278.512 178.231 276.888 177.878 274.962 177.557C273.037 177.238 270.838 177.072 268.362 177.072C265.288 177.072 262.544 177.542 260.109 178.485C257.679 179.426 255.609 180.745 253.89 182.439C252.172 184.134 250.853 186.187 249.936 188.593C249.018 190.998 248.562 193.987 248.562 196.878C248.562 199.721 248.999 202.23 249.87 204.406C250.736 206.58 251.908 208.402 253.372 209.871C254.833 211.331 256.593 212.457 258.532 213.171C260.5 213.901 262.586 214.268 264.784 214.268C266.342 214.268 267.731 214.075 268.945 213.684C270.16 213.299 271.191 212.852 272.039 212.343C272.886 211.839 273.554 211.349 274.03 210.869C274.515 210.385 274.801 210.074 274.892 209.938V214.052H284.519V214.047L297.908 214.052C299.71 214.052 301.401 213.727 302.972 213.077C304.54 212.432 305.792 211.185 306.716 209.329C307.644 211.185 308.805 212.432 310.218 213.077C311.63 213.728 313.236 214.052 315.039 214.052H337.72L337.721 177.445ZM306.805 217.38C305.322 217.38 304.051 217.888 302.987 218.905C301.923 219.922 301.391 221.17 301.391 222.647C301.391 224.13 301.923 225.388 302.987 226.428C304.051 227.468 305.322 227.991 306.805 227.991C308.331 227.991 309.62 227.468 310.684 226.428C311.748 225.388 312.28 224.131 312.28 222.647C312.28 221.17 311.748 219.922 310.684 218.905C309.62 217.888 308.331 217.38 306.805 217.38ZM180.666 206.232C177.041 207.301 171.76 206.256 171.359 206.068V186.163C171.359 186.163 175.173 183.461 179.843 184.351C184.513 185.24 187.803 188.959 187.803 195.701C187.803 201.045 185.304 204.867 180.666 206.232ZM229.207 205.865H222.753C221.506 205.865 220.503 205.691 219.741 205.342C218.978 204.994 218.399 204.49 218.008 203.817C217.612 203.149 217.358 202.325 217.241 201.354C217.123 200.385 217.072 199.255 217.072 197.956V164.305L207.425 167.092V197.957C207.425 199.255 207.368 200.385 207.256 201.356C207.138 202.325 206.884 203.149 206.488 203.817C206.098 204.49 205.533 204.994 204.794 205.342C204.049 205.692 203.056 205.865 201.809 205.865H195.388C196.899 203.036 197.714 199.509 197.714 195.428C197.714 184.765 191.617 178.188 182.847 177.194C177.804 176.625 172.852 178.381 171.355 178.974L171.36 164.305L161.722 167.026V205.865H157.697C156.45 205.865 155.443 205.691 154.684 205.342C153.917 204.994 153.338 204.49 152.949 203.817C152.557 203.149 152.298 202.325 152.184 201.354C152.059 200.226 152.001 199.091 152.011 197.956V177.444L142.439 180.208V197.956C142.439 199.255 142.369 200.385 142.229 201.354C142.096 202.325 141.828 203.149 141.433 203.817C141.038 204.488 140.444 205.021 139.734 205.342C138.994 205.692 138.001 205.865 136.753 205.865H125.445V177.453L115.809 180.236C115.809 180.246 115.804 180.251 115.804 180.26V213.74C115.804 215.821 115.305 217.267 114.312 218.076C113.318 218.886 111.967 219.291 110.258 219.291C109.225 219.301 108.196 219.161 107.202 218.878C106.279 218.594 105.696 218.411 105.471 218.322L103.177 224.771C104.094 225.193 105.048 225.531 106.026 225.78C106.807 225.986 107.711 226.169 108.728 226.329C109.744 226.489 110.808 226.574 111.92 226.574C113.664 226.581 115.402 226.359 117.09 225.915C118.684 225.498 120.157 224.713 121.392 223.622C122.611 222.54 123.595 221.104 124.333 219.33C125.068 217.569 125.431 215.346 125.44 212.667V214.052H138.834C140.636 214.052 142.323 213.727 143.895 213.077C145.467 212.432 146.719 211.185 147.642 209.329C148.564 211.185 149.732 212.432 151.144 213.077C152.557 213.728 154.162 214.052 155.965 214.052H203.89C205.693 214.052 207.378 213.727 208.955 213.077C210.527 212.432 211.776 211.185 212.698 209.329C213.621 211.185 214.793 212.432 216.2 213.077C217.612 213.728 219.218 214.052 221.02 214.052H238.849V164.305L229.207 167.088V205.865ZM292.348 217.38C290.865 217.38 289.594 217.888 288.53 218.905C287.465 219.922 286.934 221.17 286.934 222.647C286.934 224.13 287.465 225.388 288.53 226.428C289.594 227.468 290.865 227.991 292.348 227.991C293.873 227.991 295.168 227.468 296.227 226.428C297.296 225.388 297.827 224.131 297.827 222.647C297.827 221.17 297.296 219.922 296.227 218.905C295.166 217.888 293.873 217.38 292.348 217.38ZM321.324 217.38C319.798 217.38 318.503 217.898 317.444 218.938C316.38 219.984 315.844 221.24 315.844 222.718C315.844 224.201 316.38 225.445 317.444 226.467C318.505 227.483 319.798 227.991 321.325 227.991C322.807 227.991 324.077 227.483 325.142 226.465C326.206 225.445 326.737 224.202 326.737 222.718C326.737 221.24 326.206 219.983 325.142 218.938C324.077 217.898 322.807 217.38 321.324 217.38ZM414.903 167.112V214.117H424.617V164.305L414.903 167.112ZM397.871 201.283C397.871 203.368 397.373 204.81 396.378 205.619C395.385 206.428 394.029 206.833 392.32 206.833H375.5C375.078 206.515 374.682 206.162 374.319 205.779C373.415 204.814 372.699 203.6 372.171 202.139C371.635 200.681 371.371 198.986 371.371 197.055C371.371 193.341 372.318 190.479 374.215 188.473C376.112 186.468 378.542 185.47 381.498 185.47C382.839 185.47 384.041 185.639 385.104 185.988C386.149 186.326 387.044 186.727 387.796 187.189L391.553 179.896C390.866 179.354 389.651 178.748 387.914 178.079C386.181 177.41 383.691 177.071 380.462 177.071C377.821 177.071 375.359 177.533 373.071 178.451C370.817 179.345 368.773 180.697 367.07 182.423C365.359 184.156 364.008 186.246 363.011 188.699C362.018 191.148 361.523 193.934 361.523 197.055C361.523 200.271 362.018 203.119 363.011 205.595C363.184 206.023 363.382 206.428 363.576 206.833H354.645V177.453L345.004 180.236V213.74C345.004 215.821 344.51 217.267 343.511 218.076C342.518 218.886 341.167 219.291 339.453 219.291C338.422 219.3 337.394 219.161 336.403 218.878C335.821 218.707 335.243 218.522 334.67 218.322L332.382 224.771C333.297 225.194 334.249 225.532 335.225 225.78C336.012 225.986 336.911 226.169 337.927 226.329C338.944 226.489 340.009 226.574 341.12 226.574C342.923 226.574 344.646 226.353 346.284 225.915C347.931 225.472 349.363 224.714 350.586 223.622C351.811 222.54 352.794 221.104 353.534 219.33C354.273 217.549 354.644 215.304 354.644 212.588V214.118H393.987C395.79 214.118 397.509 213.897 399.157 213.458C400.757 213.038 402.239 212.255 403.488 211.17C404.74 210.083 405.733 208.647 406.472 206.868C407.212 205.088 407.583 202.833 407.583 200.107V164.305L397.871 167.11V201.283ZM274.67 173.533C276.196 173.533 277.49 173.01 278.549 171.97C279.618 170.928 280.15 169.671 280.15 168.189C280.15 166.71 279.618 165.463 278.549 164.446C277.49 163.425 276.196 162.915 274.67 162.915C273.193 162.915 271.916 163.425 270.852 164.446C269.788 165.463 269.256 166.712 269.256 168.189C269.256 169.671 269.788 170.928 270.852 171.97C271.916 173.01 273.193 173.533 274.67 173.533ZM73.4576 174.44C74.9833 174.44 76.2729 173.922 77.337 172.882C78.406 171.837 78.9375 170.58 78.9375 169.103C78.9375 167.62 78.406 166.372 77.337 165.355C76.2729 164.339 74.9833 163.83 73.4576 163.83C71.9752 163.83 70.7038 164.339 69.6396 165.355C68.5802 166.372 68.0439 167.62 68.0439 169.103C68.0439 170.58 68.5802 171.838 69.6396 172.882C70.7038 173.923 71.9752 174.44 73.4576 174.44ZM260.213 173.533C261.743 173.533 263.033 173.01 264.097 171.97C265.16 170.928 265.693 169.671 265.693 168.189C265.693 166.71 265.16 165.463 264.097 164.446C263.033 163.425 261.743 162.915 260.213 162.915C258.734 162.915 257.459 163.425 256.4 164.446C255.335 165.463 254.799 166.712 254.799 168.189C254.799 169.671 255.335 170.928 256.4 171.97C257.459 173.01 258.734 173.533 260.213 173.533ZM81.9878 193.291C81.9878 199.457 81.9878 206.426 73.5094 206.426C65.0262 206.426 65.0262 199.457 65.0262 193.291V185.089L55.3848 187.868V192.901C55.3848 193.212 55.3896 193.518 55.3944 193.823C55.4691 197.354 55.9596 200.391 56.872 202.928C57.8602 205.677 59.1883 207.918 60.8551 209.656C62.5218 211.389 64.4706 212.65 66.6929 213.436C68.9189 214.222 71.269 214.612 73.7396 214.612C76.0475 214.612 78.2686 214.269 80.4163 213.577C82.5482 212.881 84.4596 211.713 86.1264 210.07C87.7931 208.428 89.1249 206.257 90.1083 203.55C91.0965 200.843 91.5967 197.482 91.5967 193.457V177.453L81.9878 180.217V193.291ZM147.642 217.38C146.163 217.38 144.893 217.888 143.829 218.905C142.765 219.922 142.232 221.17 142.232 222.647C142.232 224.13 142.765 225.388 143.829 226.428C144.893 227.468 146.163 227.991 147.642 227.991C149.173 227.991 150.462 227.468 151.525 226.428C152.589 225.388 153.122 224.131 153.122 222.647C153.122 221.17 152.589 219.922 151.525 218.905C150.462 217.888 149.172 217.38 147.642 217.38ZM108.516 164.243L98.8747 167.027V214.047H108.516V164.243ZM133.19 217.38C131.707 217.38 130.435 217.888 129.372 218.905C128.308 219.922 127.775 221.17 127.775 222.647C127.775 224.13 128.308 225.388 129.372 226.428C130.435 227.468 131.706 227.991 133.19 227.991C134.714 227.991 136.01 227.468 137.068 226.428C138.132 225.388 138.668 224.131 138.668 222.647C138.668 221.17 138.132 219.922 137.068 218.905C136.009 217.888 134.714 217.38 133.19 217.38Z" fill="#E81142"/>
</svg>
