<svg width="480" height="320" viewBox="0 0 480 320" fill="none" xmlns="http://www.w3.org/2000/svg">
<path d="M168.288 100.966L55.3846 219.034H58.6397L171.546 100.966H168.288ZM82.5377 219.034L195.444 100.966H201.959L89.0555 219.034H82.5377ZM224.768 100.966L111.861 219.034H121.638L234.544 100.966H224.768ZM140.099 219.034L253.005 100.966H263.867L150.961 219.034H140.099ZM280.158 100.966L167.252 219.034H182.462L295.366 100.966H280.158ZM308.398 100.966L195.494 219.034H213.959L326.865 100.966H308.398ZM335.55 100.966L222.647 219.034H243.281L356.188 100.966H335.55ZM364.876 100.966L251.974 219.034H274.781L387.682 100.966H364.876ZM392.03 100.966L279.126 219.034H305.196L418.105 100.966H392.03Z" fill="#F6B70D"/>
<path d="M311.709 219.034H424.615V100.966L311.709 219.034ZM96.9876 148.714H89.4902L86.4993 140.996H72.6518L69.8149 148.714H62.3406L75.6175 114.688H83.0845L96.9876 148.714ZM84.2035 135.237L79.3842 122.6L74.7602 135.237H84.2035ZM100.484 148.714V114.688H107.451V148.714H100.484ZM114.067 148.714V114.688H128.717C132.39 114.688 135.068 114.984 136.742 115.597C138.41 116.211 139.747 117.297 140.749 118.85C141.748 120.406 142.257 122.195 142.257 124.207C142.257 126.762 141.495 128.867 139.98 130.526C138.473 132.192 136.206 133.241 133.196 133.676C134.705 134.531 135.936 135.501 136.92 136.53C137.886 137.582 139.208 139.419 140.865 142.061L145.083 148.714H136.742L131.741 141.31C129.949 138.651 128.726 136.985 128.06 136.285C127.403 135.603 126.701 135.128 125.968 134.867C125.226 134.624 124.052 134.481 122.452 134.481H121.031V148.714H114.067ZM121.031 129.043H126.19C129.52 129.043 131.606 128.901 132.437 128.617C133.275 128.337 133.924 127.868 134.386 127.185C134.861 126.519 135.095 125.662 135.095 124.645C135.095 123.507 134.789 122.577 134.169 121.882C133.545 121.181 132.671 120.744 131.543 120.552C130.982 120.483 129.286 120.447 126.466 120.447H121.031L121.031 129.043ZM88.0104 177.752L94.7954 179.803C93.7516 183.527 92.0304 186.328 89.6057 188.152C87.189 189.948 84.1182 190.871 80.3994 190.871C75.7963 190.871 72.0118 189.327 69.0472 186.247C66.0784 183.146 64.6001 178.924 64.6001 173.571C64.6001 167.899 66.0919 163.485 69.0669 160.354C72.0416 157.225 75.9609 155.664 80.8087 155.664C85.0446 155.664 88.4842 156.887 91.1307 159.339C92.7035 160.807 93.8837 162.894 94.6722 165.619L87.766 167.232C87.3566 165.464 86.499 164.078 85.1929 163.066C83.8869 162.053 82.3064 161.525 80.4399 161.525C77.8608 161.525 75.7662 162.44 74.1663 164.257C72.5633 166.058 71.7612 169 71.7612 173.047C71.7612 177.35 72.547 180.43 74.1303 182.247C75.7167 184.064 77.7708 184.985 80.3048 184.985C82.175 184.985 83.7748 184.406 85.1242 183.248C86.463 182.076 87.4362 180.259 88.0107 177.752H88.0104ZM99.2306 173.499C99.2306 170.033 99.7557 167.113 100.805 164.749C101.592 163.014 102.661 161.456 104.017 160.075C105.372 158.69 106.864 157.673 108.473 157.01C110.628 156.1 113.102 155.664 115.912 155.664C120.998 155.664 125.061 157.225 128.116 160.334C131.161 163.449 132.69 167.789 132.69 173.34C132.69 178.855 131.177 183.162 128.145 186.259C125.121 189.372 121.077 190.929 116.011 190.929C110.878 190.929 106.801 189.372 103.772 186.295C100.745 183.197 99.2306 178.924 99.2306 173.499ZM106.389 173.274C106.389 177.143 107.29 180.064 109.103 182.064C110.914 184.052 113.21 185.048 115.991 185.048C118.781 185.048 121.067 184.052 122.851 182.076C124.635 180.097 125.531 177.143 125.531 173.184C125.531 169.261 124.665 166.338 122.92 164.414C121.182 162.489 118.87 161.525 115.991 161.525C113.111 161.525 110.79 162.505 109.028 164.468C107.266 166.407 106.389 169.349 106.389 173.274H106.389ZM138.361 190.317V156.587H145.327V184.559H162.654V190.317H138.361ZM167.618 156.274H174.588V174.726C174.588 177.664 174.671 179.557 174.848 180.43C175.142 181.809 175.851 182.934 176.973 183.791C178.094 184.634 179.625 185.048 181.568 185.048C183.54 185.048 185.024 184.646 186.03 183.86C187.039 183.056 187.633 182.076 187.842 180.918C188.043 179.746 188.148 177.82 188.148 175.131V156.274H195.114V174.162C195.114 178.261 194.93 181.149 194.547 182.85C194.171 184.526 193.481 185.962 192.472 187.114C191.46 188.289 190.111 189.201 188.412 189.9C186.723 190.587 184.507 190.929 181.778 190.929C178.487 190.929 175.993 190.566 174.284 189.795C172.59 189.057 171.243 188.08 170.251 186.865C169.267 185.677 168.615 184.418 168.301 183.107C167.843 181.149 167.618 178.261 167.618 174.444V156.274ZM202.371 190.317V156.274H212.821L219.042 179.485L225.213 156.274H235.705V190.317H229.236L229.214 163.525L222.333 190.317H215.638L208.876 163.525L208.84 190.317H202.371ZM242.593 156.274H256.406C259.144 156.274 261.175 156.38 262.522 156.604C263.864 156.835 265.065 157.307 266.131 158.025C267.185 158.726 268.07 159.688 268.777 160.862C269.488 162.053 269.839 163.383 269.839 164.854C269.839 166.443 269.404 167.915 268.544 169.244C267.674 170.591 266.5 171.592 265.032 172.258C267.116 172.852 268.73 173.883 269.845 175.338C270.967 176.789 271.537 178.504 271.537 180.463C271.537 182.004 271.171 183.515 270.436 184.967C269.71 186.433 268.709 187.585 267.44 188.464C266.18 189.339 264.62 189.882 262.766 190.08C261.604 190.197 258.805 190.29 254.354 190.317H242.593V156.274ZM249.562 161.964V169.824H254.137C256.859 169.824 258.55 169.788 259.21 169.719C260.413 169.577 261.351 169.158 262.03 168.493C262.709 167.826 263.056 166.935 263.056 165.833C263.056 164.781 262.766 163.94 262.17 163.278C261.585 162.624 260.711 162.225 259.547 162.083C258.854 161.997 256.859 161.964 253.579 161.964H249.562V161.964ZM249.562 175.508V184.559H256.047C258.574 184.559 260.177 184.49 260.846 184.349C261.895 184.157 262.739 183.719 263.396 183.002C264.056 182.283 264.375 181.323 264.375 180.133C264.375 179.119 264.125 178.261 263.614 177.545C263.119 176.843 262.384 176.333 261.427 176C260.474 175.688 258.409 175.509 255.223 175.509H249.562V175.508ZM277.408 156.274H284.378V174.726C284.378 177.664 284.461 179.557 284.639 180.43C284.935 181.809 285.646 182.934 286.762 183.791C287.883 184.634 289.415 185.048 291.356 185.048C293.326 185.048 294.816 184.646 295.821 183.86C296.823 183.056 297.422 182.076 297.629 180.918C297.833 179.746 297.938 177.82 297.938 175.131V156.274H304.907V174.162C304.907 178.261 304.722 181.149 304.341 182.85C303.96 184.526 303.27 185.962 302.251 187.114C301.246 188.289 299.891 189.201 298.202 189.9C296.502 190.587 294.304 190.929 291.569 190.929C288.276 190.929 285.772 190.566 284.077 189.795C282.377 189.057 281.034 188.08 280.044 186.865C279.051 185.677 278.404 184.418 278.092 183.107C277.639 181.149 277.408 178.261 277.408 174.444V156.274ZM310.401 179.239L317.185 178.558C317.596 180.783 318.42 182.427 319.671 183.47C320.915 184.526 322.601 185.048 324.721 185.048C326.964 185.048 328.649 184.577 329.789 183.656C330.926 182.724 331.492 181.62 331.492 180.379C331.492 179.572 331.258 178.891 330.773 178.334C330.302 177.769 329.474 177.281 328.281 176.858C327.468 176.579 325.621 176.09 322.721 175.391C319.005 174.462 316.39 173.34 314.891 172.009C312.779 170.138 311.724 167.845 311.724 165.148C311.724 163.419 312.219 161.81 313.208 160.285C314.198 158.775 315.634 157.623 317.509 156.835C319.371 156.051 321.629 155.664 324.277 155.664C328.59 155.664 331.843 156.604 334.023 158.481C336.201 160.372 337.349 162.894 337.463 166.041L330.494 166.305C330.2 164.534 329.561 163.278 328.59 162.505C327.612 161.733 326.145 161.354 324.199 161.354C322.196 161.354 320.612 161.753 319.476 162.574C318.741 163.116 318.375 163.818 318.375 164.711C318.375 165.513 318.723 166.2 319.41 166.777C320.286 167.512 322.409 168.265 325.789 169.054C329.174 169.838 331.666 170.662 333.288 171.503C334.908 172.342 336.177 173.5 337.097 174.969C338.003 176.438 338.458 178.243 338.458 180.397C338.458 182.355 337.916 184.181 336.812 185.89C335.721 187.585 334.164 188.844 332.158 189.696C330.143 190.515 327.639 190.929 324.649 190.929C320.285 190.929 316.933 189.933 314.594 187.942C312.261 185.947 310.857 183.056 310.401 179.239V179.239Z" fill="#1B4C9C"/>
</svg>
