<svg width="480" height="320" viewBox="0 0 480 320" fill="none" xmlns="http://www.w3.org/2000/svg">
<path d="M107.137 119.669C84.7987 119.669 62.1661 137.727 56.5828 160.003C58.0634 162.227 68.7821 164.563 76.9772 165.258C118.194 119.384 146.039 126.757 128.405 158.919C127.789 160.045 127.129 160.899 126.5 161.957C132.241 160.843 137.16 159.142 137.749 158.765C142.62 136.999 129.104 119.669 107.137 119.669ZM81.0812 165.746C91.6621 167.026 100.105 165.536 105.937 164.623C109.223 161.086 112.756 157.094 115.029 153.964C132.736 129.526 112.285 132.346 81.0812 165.746Z" fill="#CAB999"/>
<path d="M157.724 153.575L145.976 175.351H153.041L155.808 170.321H166.575L169.34 175.351H176.405L164.658 153.575H157.724ZM157.17 166.436L161.214 158.831L165.259 166.436H157.17ZM186.463 153.575H180.42V175.351H186.463V153.575ZM208.424 167.743C210.042 168.43 210.978 169.93 211.275 172.245C211.489 173.781 211.701 174.826 211.913 175.351H218.68C218.384 174.694 218.17 173.619 218 172.05C217.832 170.483 217.491 169.246 216.893 168.43C216.128 167.318 214.765 166.502 212.852 165.978C216.469 165.066 218.256 162.944 218.256 159.647C218.256 157.491 217.15 155.861 214.893 154.751C213.317 153.965 210.551 153.575 206.595 153.575H192.72V175.351H198.765V167.09H203.617C205.743 167.09 207.36 167.285 208.425 167.743H208.424ZM198.765 157.46H207.234C208.339 157.46 209.106 157.525 209.574 157.656C210.936 158.015 211.617 158.861 211.617 160.202C211.617 161.41 211.147 162.226 210.256 162.715C209.659 163.042 208.637 163.203 207.234 163.203H198.765V157.46ZM251.174 153.575H244.237L232.492 175.351H239.557L242.322 170.321H253.091L255.856 175.351H262.921L251.174 153.575ZM243.685 166.436L247.727 158.831L251.768 166.436H243.685ZM284.948 153.575H260.477V157.46H269.499V175.351H275.542V157.46H284.947V153.575H284.948ZM297.27 170.941C296.246 170.583 295.611 169.899 295.4 168.884C295.225 167.969 295.141 166.927 295.141 165.816V153.575H289.14V165.816C289.14 167.903 289.266 169.443 289.608 170.385C290.459 172.737 292.461 174.27 295.569 174.957C296.803 175.219 298.972 175.352 302.164 175.352H307.648V171.464H302.803C300.164 171.463 298.333 171.333 297.27 170.941H297.27ZM320.209 153.575L308.457 175.351H315.523L318.29 170.321H329.057L331.821 175.351H338.889L327.141 153.575H320.209ZM319.652 166.436L323.696 158.831L327.735 166.436H319.652ZM362.396 169.8L351.117 153.575H343.374V175.351H349.159V159.388L360.737 175.351H368.146V153.575H362.396L362.396 169.8ZM396.198 153.575H371.723V157.46H380.746V175.351H386.79V157.46H396.198V153.575ZM412.871 153.575H405.932L394.184 175.351H401.249L404.017 170.321H414.783L417.548 175.351H424.616L412.871 153.575ZM405.378 166.436L409.422 158.831L413.463 166.436H405.378ZM73.4935 192.2C73.4935 192.2 86.6387 185.466 99.2498 172.077C90.6639 173.282 84.7292 173.272 75.4714 171.896C66.0006 185.141 63.8689 181.416 63.8689 181.416C65.8898 179.013 70.1544 173.282 71.7907 171.321C67.5218 170.288 58.7975 168.138 55.6683 164.599C53.264 184.416 66.3464 200.331 86.9138 200.331C108.572 200.331 130.51 183.355 136.912 162.023C133.931 163.566 130.299 165.65 123.416 167.3C97.019 204.891 73.4935 192.2 73.4935 192.2ZM153.041 198.221H156.242V185.418H153.041V198.221ZM172.479 187.584C173.622 187.584 174.538 187.812 175.165 188.059L175.831 185.779C175.26 185.511 174.003 185.21 172.347 185.21C168.079 185.21 164.631 187.623 164.631 191.989C164.631 195.658 167.148 198.431 172.041 198.431C173.736 198.431 175.071 198.124 175.642 197.88L175.186 195.6C174.538 195.847 173.49 196.016 172.5 196.016C169.661 196.016 167.985 194.405 167.985 191.839C167.985 188.972 169.965 187.584 172.479 187.584ZM188.058 192.809H193.258V190.455H188.058V187.795H193.563V185.419H184.878V198.222H193.848V195.848H188.058V192.809ZM206.336 185.418H203.157V198.221H211.957V195.791H206.336V185.418ZM222.618 185.418L218.293 198.221H221.609L222.6 194.935H226.657L227.742 198.221H231.19L226.79 185.418H222.618ZM223.054 192.77L223.914 190.053C224.139 189.312 224.352 188.343 224.542 187.584H224.598C224.809 188.324 225.056 189.294 225.304 190.053L226.181 192.77H223.054ZM248.802 189.141C248.802 191.08 248.86 192.809 249.049 194.499H249.01C248.363 193.056 247.546 191.46 246.706 190.111L243.773 185.418H240.04V198.221H242.972V194.366C242.972 192.276 242.935 190.472 242.822 188.762H242.915C243.582 190.261 244.516 191.897 245.356 193.282L248.382 198.221H251.734V185.418H248.802V189.141ZM271.526 186.653C270.192 185.722 268.44 185.325 265.736 185.325C264.134 185.325 262.611 185.418 261.43 185.608V198.163C262.213 198.26 263.412 198.356 265.05 198.356C267.83 198.356 270.115 197.841 271.601 196.703C272.955 195.675 273.925 193.965 273.925 191.516C273.925 189.237 272.995 187.641 271.526 186.653ZM265.736 196.095C265.356 196.095 264.899 196.095 264.611 196.037V187.659C264.898 187.602 265.374 187.547 266.059 187.547C268.841 187.547 270.554 188.858 270.554 191.61C270.554 194.67 268.65 196.113 265.736 196.095ZM282.625 198.221H285.824V185.418H282.625V198.221ZM302.064 187.584C303.209 187.584 304.121 187.812 304.75 188.059L305.419 185.779C304.844 185.511 303.588 185.21 301.932 185.21C297.664 185.21 294.213 187.623 294.213 191.989C294.213 195.658 296.731 198.431 301.624 198.431C303.323 198.431 304.654 198.124 305.227 197.88L304.769 195.6C304.121 195.847 303.077 196.016 302.086 196.016C299.246 196.016 297.569 194.405 297.569 191.839C297.568 188.972 299.55 187.584 302.064 187.584Z" fill="#004886"/>
</svg>
