<svg width="480" height="320" viewBox="0 0 480 320" fill="none" xmlns="http://www.w3.org/2000/svg">
<path fill-rule="evenodd" clip-rule="evenodd" d="M124.487 178.723C116.057 181.772 105.116 180.697 101.529 176.749C97.9423 172.981 99.1964 166.704 105.296 162.761C111.394 158.813 116.417 157.737 123.232 157.558C130.586 157.379 139.015 160.787 137.221 167.784L132.019 180.337H123.77L124.487 178.723ZM116.954 163.476C111.036 164.911 106.73 168.678 107.448 171.726C108.165 174.955 113.547 176.034 119.464 174.599C125.563 172.981 129.688 169.397 128.971 166.349C128.254 163.116 122.873 161.862 116.954 163.476ZM149.596 156.303C152.108 156.303 154.259 154.151 154.259 151.639C154.259 149.129 152.108 146.977 149.596 146.977C147.085 146.977 144.932 149.129 144.932 151.639C144.933 154.151 147.085 156.303 149.596 156.303ZM135.428 180.516L144.575 158.096H152.466L143.319 180.516H135.428ZM160.179 168.139L155.156 180.516H147.265L152.466 167.603C155.516 160.428 162.87 157.917 168.071 157.557C173.092 157.199 179.55 156.481 184.033 161.861C186.007 164.194 182.598 166.704 181.163 166.704C179.729 166.704 178.473 166.704 176.32 164.735C172.734 161.684 163.765 161.684 160.179 168.139Z" fill="#E82A88"/>
<path fill-rule="evenodd" clip-rule="evenodd" d="M198.023 169.753C201.072 163.656 206.453 149.308 206.453 149.308H214.524L206.094 170.292C203.045 177.468 195.692 179.977 190.491 180.337C185.289 180.696 176.142 181.231 171.657 175.674C169.863 173.52 172.913 170.652 174.348 170.652C175.783 170.652 177.756 170.831 179.37 172.445C182.957 176.034 195.153 175.495 198.023 169.753ZM232.819 178.723C224.39 181.772 213.628 180.697 210.04 176.749C206.453 172.981 207.529 166.704 213.627 162.761C219.904 158.814 224.926 157.737 231.743 157.558C239.095 157.379 247.345 160.787 245.733 167.784L240.352 180.337H232.28L232.819 178.723ZM225.465 163.476C219.547 164.911 215.242 168.678 215.959 171.726C216.677 174.955 222.057 176.034 227.975 174.599C233.894 172.981 238.2 169.397 237.482 166.349C236.764 163.117 231.383 161.862 225.465 163.476ZM256.853 166.884C252.548 177.649 251.293 180.337 251.293 180.337H243.4L250.036 163.836C252.727 158.634 262.412 157.2 265.103 157.2C267.614 157.2 271.38 157.2 275.686 159.89C275.686 159.89 280.168 157.021 288.239 157.2C296.133 157.379 298.643 162.581 297.387 165.63C296.309 168.859 291.467 180.516 291.467 180.516H283.217L288.958 166.169C288.958 166.169 290.93 162.94 284.653 162.94C278.375 162.94 276.94 167.603 276.94 167.603L271.74 180.337H263.846L269.049 167.064C269.049 167.064 270.663 162.76 264.564 162.76C258.467 162.761 256.853 166.884 256.853 166.884ZM323.036 178.723C314.605 181.772 303.663 180.697 300.077 176.749C296.49 172.981 297.746 166.704 303.843 162.761C309.942 158.814 314.964 157.737 321.779 157.558C329.132 157.379 337.563 160.787 335.768 167.784L330.567 180.337H322.316L323.036 178.723ZM315.502 163.476C309.583 164.911 305.278 168.678 305.997 171.726C306.714 174.955 312.094 176.034 318.013 174.599C324.111 172.981 328.235 169.397 327.518 166.349C326.802 163.117 321.422 161.862 315.502 163.476ZM348.325 156.482C350.836 156.482 352.988 154.509 352.988 151.998C352.988 149.308 350.836 147.335 348.325 147.335C345.634 147.335 343.66 149.308 343.66 151.998C343.66 154.509 345.634 156.482 348.325 156.482ZM334.155 180.516L343.123 158.096H351.194L342.046 180.516H334.155ZM411.638 178.723C403.207 181.772 392.448 180.697 388.86 176.749C385.272 172.981 386.349 166.704 392.448 162.761C398.545 158.814 403.747 157.737 410.381 157.558C417.737 157.379 426.165 160.787 424.371 167.784L419.171 180.337H411.1L411.638 178.723ZM404.104 163.476C398.185 164.911 394.06 168.678 394.779 171.726C395.496 174.955 400.876 176.034 406.795 174.599C412.715 172.981 417.017 169.397 416.301 166.349C415.583 163.117 410.203 161.862 404.104 163.476ZM379.892 169.398C382.582 168.859 385.811 171.192 383.837 173.161C381.506 176.034 378.278 177.288 373.794 178.902C365.364 181.951 354.602 180.337 351.014 176.569C347.429 172.626 348.503 166.525 354.602 162.582C360.878 158.455 365.901 157.558 372.718 157.379C378.097 157.201 384.194 159.173 386.168 162.941C387.065 164.555 386.885 165.989 385.451 166.704C384.194 167.424 381.146 167.784 378.815 165.27C376.483 163.116 371.281 161.862 366.438 163.296C360.521 164.91 356.217 168.498 356.933 171.546C357.65 174.599 363.033 175.854 368.949 174.42C372 173.52 374.511 172.445 375.766 171.546C375.766 171.547 378.278 169.933 379.892 169.398ZM75.9161 180.596C87.393 180.596 96.5751 171.41 96.5751 160.063C96.5745 148.586 87.393 139.404 75.9161 139.404C64.5667 139.404 55.3846 148.586 55.3846 160.063C55.3846 171.41 64.5667 180.596 75.9161 180.596Z" fill="#0858A5"/>
<path fill-rule="evenodd" clip-rule="evenodd" d="M92.4943 147.694C89.561 146.929 87.52 149.097 88.2854 152.413C89.3065 155.599 88.7956 157.003 87.6476 158.915C86.5007 160.956 84.7154 161.976 84.7154 162.485C84.7154 163.125 84.5885 164.783 84.0776 167.967C83.5674 171.283 80.1256 176.898 73.6206 177.407C66.9909 177.916 63.0365 175.24 60.9967 171.283C58.9557 167.331 60.8698 163.125 60.8698 163.125C60.8698 163.125 59.0833 159.681 59.0833 156.874C59.0833 154.069 59.8487 151.392 61.1243 149.477C62.3993 147.565 64.5679 145.27 68.5211 144.632C72.4743 143.995 74.7704 145.397 75.6627 145.78C76.4269 146.163 77.3199 146.801 76.8102 147.184C76.4275 147.694 76.173 147.311 75.1519 146.546C72.2186 145.015 69.9237 145.398 68.0108 145.653C65.9698 146.036 61.507 148.331 60.3589 153.304C59.0833 158.405 61.507 161.721 61.507 161.721C61.507 161.721 61.507 161.466 63.0365 160.063C64.4403 158.788 67.3724 157.767 68.902 157.639C70.4327 157.639 73.1103 157.895 74.8968 159.169C76.5539 160.317 75.534 160.7 74.7698 160.063C71.5808 158.149 69.4128 158.404 67.6276 158.659C65.9692 158.915 62.5263 160.828 62.1436 163.124C64.057 166.055 67.3718 167.84 71.1981 167.967C75.0243 168.226 80.3801 166.695 83.4404 162.484C85.2257 158.277 83.1853 156.364 82.1654 155.599C81.1455 154.833 77.1923 154.706 75.1519 153.94C73.1109 153.049 72.8564 152.029 72.8564 151.646C72.8564 151.262 73.3666 151.773 75.5346 151.773C77.7025 151.9 78.3409 151.646 80.7628 152.156C83.0589 152.666 83.4404 153.558 83.8231 154.195C84.3334 154.832 84.5885 155.088 84.5885 153.94C84.5885 152.665 84.8436 149.476 85.0981 147.82C85.3538 146.289 87.2661 146.035 88.5417 146.672C89.8173 147.437 91.8565 146.927 91.8565 146.927C91.8565 146.927 91.9841 147.056 92.4943 147.694ZM87.7757 148.204C88.1584 148.204 88.4135 147.948 88.4135 147.565C88.4135 147.184 88.1584 146.928 87.7757 146.928C87.52 146.928 87.1373 147.184 87.1373 147.565C87.1373 147.949 87.52 148.204 87.7757 148.204ZM61.6333 170.393C62.5257 172.942 65.5878 175.876 70.6878 176.512C75.6621 177.025 78.5943 175.368 81.1449 172.179C83.8231 168.863 83.5674 166.182 83.6943 165.038C83.8225 163.888 83.5674 163.761 83.0583 164.27C80.6353 166.696 76.5533 169.245 70.8154 168.863C65.0769 168.481 61.6333 164.27 61.6333 164.27C60.8686 165.801 60.7416 167.967 61.6333 170.393Z" fill="#FFE822"/>
</svg>
