<svg width="480" height="320" viewBox="0 0 480 320" fill="none" xmlns="http://www.w3.org/2000/svg">
<path d="M242.094 121.869C255.761 117.412 270.934 118.487 284.141 123.982C290.942 126.555 296.867 131.042 303.853 133.156C316.489 137.212 329.949 136.656 343.045 136.3C353.761 136.196 364.796 141.261 370.61 150.471C366.39 148.373 361.97 146.207 357.128 146.311C348.103 146.215 340.212 151.183 331.647 153.208C325.596 154.876 319.263 154.787 313.048 154.565C307.924 154.387 302.955 152.933 297.831 152.718C289.881 152.177 281.998 153.601 274.086 154.194C248.405 156.3 222.457 156.953 196.835 153.712C227.032 153.416 257.637 153.401 287.212 146.474C291.809 145.325 296.378 143.983 300.694 142.017C291.075 139.719 282.325 134.958 274.078 129.633C264.712 123.47 253.247 120.69 242.094 121.869Z" fill="#C1012F"/>
<path d="M358.418 123.567C369.623 121.906 381.844 123.152 391.448 129.559C388.192 128.765 385.004 127.609 381.637 127.364C371.818 126.474 362.014 129.455 353.464 134.134C351.803 135.306 349.786 134.394 347.969 134.246C341.562 133.185 335.065 134.008 328.621 134.023C337.958 129.121 348.036 125.48 358.418 123.567ZM62.2373 175.67C68.3035 175.07 74.4289 175.589 80.5173 175.396C82.6902 175.507 85.2412 174.973 87.0284 176.538C88.6673 177.969 88.1408 180.394 87.8442 182.271C86.5538 188.426 85.1745 194.551 83.9657 200.721C77.373 200.973 70.7655 200.899 64.1729 200.795C61.0805 200.528 57.1575 199.891 55.6966 196.761C54.2505 192.319 58.0696 188.01 62.3041 187.202C68.2664 186.03 74.3696 185.719 80.3913 184.874C80.7398 183.146 81.1699 180.587 78.8784 180.046C73.0867 179.593 67.243 180.016 61.429 179.846C61.7256 178.459 61.9852 177.065 62.2373 175.67ZM65.0405 191.147C63.2236 191.288 61.1917 192.757 61.6663 194.796C62.3263 196.338 64.1951 196.531 65.6634 196.576C69.6754 196.642 73.6948 196.561 77.7067 196.583C78.3667 194.269 78.8413 191.904 79.2492 189.531C74.5031 189.961 69.7644 190.539 65.0405 191.147ZM95.2155 178.488C95.5789 177.517 95.3712 176.16 96.2908 175.492C98.4562 175.27 100.636 175.426 102.802 175.478C101.4 182.968 99.6501 190.391 98.1447 197.859C97.8407 198.852 97.7739 200.239 96.6616 200.691C94.637 201.018 92.5829 200.847 90.5509 200.832C91.9748 193.357 93.7027 185.949 95.2155 178.488ZM109.513 175.448C115.92 175.374 122.32 175.418 128.728 175.404C132.013 175.493 135.921 176.101 137.871 179.082C139.621 181.84 138.398 185.445 136.269 187.617C134.438 189.583 131.768 190.302 129.306 191.132C131.323 194.425 133.726 197.458 135.728 200.766C133.192 200.907 130.648 200.892 128.119 200.78C126.006 197.822 123.996 194.803 121.868 191.859C118.805 192.052 115.742 192.349 112.709 192.853C112.198 195.53 111.664 198.207 110.974 200.855C108.675 200.884 106.384 200.869 104.092 200.766C105.865 192.319 107.622 183.865 109.513 175.448ZM115.49 180.001C114.919 182.701 114.267 185.393 113.881 188.129C119.043 187.617 124.204 187.076 129.343 186.409C131.612 186.26 133.429 183.88 132.658 181.662C131.731 180.053 129.699 179.786 128.016 179.846C123.841 179.897 119.658 179.742 115.49 180.001ZM162.907 175.5C173.274 175.285 183.642 175.485 194.009 175.389C195.848 175.418 198.125 175.277 199.356 176.953C200.594 178.377 200.09 180.431 199.838 182.122C198.518 188.322 197.176 194.514 195.9 200.729C193.557 200.884 191.213 200.899 188.87 200.81C190.027 195.063 191.302 189.345 192.518 183.605C192.8 182.434 192.763 181.225 192.689 180.038C189.982 179.801 187.261 179.742 184.561 180.061C183.182 186.95 181.595 193.795 180.275 200.699C177.924 200.892 175.566 200.907 173.215 200.788C174.335 195.078 175.603 189.39 176.827 183.694C177.116 182.508 177.064 181.284 176.997 180.075C174.32 179.764 171.621 179.801 168.929 179.972C167.483 186.876 165.948 193.765 164.59 200.691C162.262 200.884 159.926 200.907 157.59 200.832C159.207 192.356 161.098 183.932 162.907 175.5ZM207.476 175.559C214.603 175.24 221.752 175.47 228.886 175.426C231.466 175.166 233.899 177.413 233.38 180.068C232.201 186.98 230.443 193.787 229.16 200.684C223.865 201.062 218.555 200.78 213.261 200.877C209.13 200.825 203.939 201.018 201.158 197.369C199.104 193.016 202.849 188.196 207.165 187.291C213.223 185.993 219.468 185.771 225.593 184.851C225.682 183.457 226.186 181.9 225.326 180.639C223.939 179.771 222.271 179.853 220.706 179.838C216.012 179.868 211.318 179.883 206.623 179.853C206.92 178.429 207.202 176.998 207.476 175.559ZM210.272 191.14C208.462 191.296 206.534 192.645 206.801 194.662C207.395 196.375 209.464 196.546 211.006 196.583C214.981 196.628 218.963 196.576 222.946 196.568C223.539 194.24 224.043 191.896 224.414 189.531C219.69 189.961 214.981 190.539 210.272 191.14ZM240.929 175.589C243.272 175.344 245.638 175.374 247.989 175.455C246.787 181.455 245.49 187.432 244.192 193.409C244.051 194.433 243.495 195.701 244.563 196.435C248.449 196.754 252.379 196.591 256.28 196.553C257.577 196.642 258.72 195.901 258.883 194.551C260.418 188.218 261.486 181.774 263.05 175.448C265.342 175.396 267.633 175.389 269.925 175.455C268.642 182.182 267.107 188.863 265.727 195.567C265.312 198.051 263.614 200.914 260.766 200.81C254.804 200.966 248.842 200.81 242.887 200.884C241.085 200.803 238.882 201.04 237.592 199.498C236.465 198.244 236.554 196.435 236.887 194.9C238.2 188.455 239.705 182.048 240.929 175.589ZM276.488 175.581C282.591 175.188 288.717 175.522 294.827 175.396C298.379 175.366 302.569 175.856 304.868 178.904C306.641 181.536 305.639 185.133 303.607 187.328C301.768 189.538 298.898 190.294 296.281 191.11C298.476 194.358 300.745 197.555 302.955 200.788C300.33 200.914 297.704 200.907 295.087 200.714C293.047 197.695 291.023 194.677 288.835 191.763C285.965 192.148 283.058 192.23 280.225 192.779C278.831 195.07 278.95 198.103 278.216 200.699C275.872 200.899 273.521 200.907 271.178 200.773C272.884 192.363 274.782 183.991 276.488 175.581ZM280.9 188.077C285.995 187.684 291.082 187.076 296.162 186.453C298.617 186.386 300.745 183.731 299.551 181.381C298.29 179.697 295.984 179.86 294.115 179.846C290.444 179.935 286.766 179.712 283.103 179.957C281.464 182.13 281.701 185.452 280.9 188.077ZM312.069 175.515C314.383 175.381 316.696 175.381 319.018 175.433C317.586 182.968 315.858 190.443 314.323 197.955C313.982 198.993 313.96 200.699 312.499 200.736C310.593 200.988 308.673 200.855 306.767 200.855C308.398 192.378 310.326 183.961 312.069 175.515ZM320.753 179.853C321.087 178.11 321.235 175.107 323.749 175.433C332.396 175.433 341.05 175.3 349.704 175.515C349.244 176.909 349.43 178.911 347.902 179.668C344.632 180.135 341.302 179.697 338.009 179.964C336.304 186.839 335.488 193.95 333.241 200.684C331.046 200.877 328.836 200.899 326.641 200.803C327.909 193.802 329.689 186.905 330.92 179.897C327.523 179.853 324.134 179.875 320.753 179.853ZM352.656 175.426C354.925 175.404 357.194 175.396 359.463 175.47C358.181 182.73 356.438 189.901 354.999 197.132C354.673 198.259 354.613 199.579 353.776 200.476C351.699 201.211 349.422 200.766 347.272 200.795C348.948 192.312 350.742 183.85 352.656 175.426ZM366.138 175.455C368.444 175.396 370.75 175.396 373.057 175.455C371.907 182.449 369.734 189.264 369.022 196.324C373.19 196.776 377.395 196.613 381.585 196.531C382.883 196.591 383.847 195.619 384.025 194.381C385.552 188.077 386.546 181.655 388.222 175.389C390.484 175.411 392.738 175.404 395 175.448C393.873 181.692 392.382 187.862 391.151 194.084C390.662 196.064 390.373 198.363 388.697 199.75C387.184 201.144 384.981 200.803 383.105 200.884C377.172 200.773 371.232 201.018 365.3 200.773C362.801 200.766 361.28 198.007 361.874 195.753C363.142 188.96 364.692 182.219 366.138 175.455ZM399.079 187.061C395.2 183.398 398.278 176.516 403.246 175.804C409.639 174.959 416.165 175.552 422.609 175.485C422.35 176.909 422.098 178.333 421.875 179.757C416.372 180.09 410.848 179.623 405.36 179.979C402.668 180.113 402.334 184.332 404.93 184.963C410.121 186.549 415.876 185.934 420.852 188.314C423.462 189.456 425.383 192.49 424.315 195.337C423.106 199.216 418.627 200.669 414.949 200.818C408.541 200.899 402.134 200.921 395.727 200.78C396.016 199.394 396.298 198 396.587 196.613C402.475 196.502 408.363 196.694 414.252 196.546C415.742 196.479 417.789 195.886 417.885 194.091C418.189 192.86 417.114 191.904 416.091 191.474C410.521 189.753 403.825 191.021 399.079 187.061Z" fill="#C1012F"/>
</svg>
