<svg width="480" height="320" viewBox="0 0 480 320" fill="none" xmlns="http://www.w3.org/2000/svg">
<mask id="mask0_730_18605" style="mask-type:luminance" maskUnits="userSpaceOnUse" x="55" y="136" width="370" height="48">
<path d="M55.3882 183.336H424.621V136.649H55.3882V183.336Z" fill="white"/>
</mask>
<g mask="url(#mask0_730_18605)">
<path d="M137.707 165.813H140.22C146.756 165.813 149.843 162.869 149.843 158.201C149.843 153.098 146.756 150.37 141.369 150.37C139.646 150.37 137.707 150.37 137.707 151.806V165.813ZM131.241 157.192C131.241 151.949 131.098 150.37 125.638 150.37V148.935C128.583 149.004 131.53 149.08 134.474 149.08C137.492 149.08 140.58 148.935 143.596 148.935C151.065 148.935 157.242 151.09 157.242 157.407C157.242 161.936 153.291 165.527 146.971 165.955L156.236 176.944C158.317 179.386 159.827 181.111 163.131 181.111V182.545C161.479 182.475 159.755 182.404 158.103 182.404C156.381 182.404 154.729 182.475 153.003 182.545L142.087 169.259C140.58 167.462 140.22 167.462 137.707 167.462V174.286C137.707 179.528 137.85 181.111 143.308 181.111V182.545C140.364 182.475 137.417 182.404 134.474 182.404C131.53 182.404 128.583 182.475 125.638 182.545V181.111C131.098 181.111 131.241 179.528 131.241 174.286V157.192ZM117.647 174.286C117.647 179.528 117.792 181.111 123.252 181.111V182.545C120.307 182.475 117.363 182.404 114.416 182.404C111.473 182.404 108.526 182.475 105.58 182.545V181.111C111.04 181.111 111.185 179.528 111.185 174.286V157.192C111.185 151.949 111.04 150.37 105.58 150.37V148.935C108.526 149.004 111.473 149.08 114.416 149.08C117.363 149.08 120.307 149.004 123.252 148.935V150.37C117.792 150.37 117.647 151.949 117.647 157.192V174.286ZM84.0968 164.009L76.6486 144.908L69.1335 164.009H84.0968ZM67.6409 167.869C66.6242 170.44 64.3917 175.45 64.3917 178.093C64.3917 181.004 67.8454 180.803 69.8752 181.004V182.562C67.3714 182.495 64.9309 182.357 62.427 182.29C60.0571 182.357 57.7559 182.495 55.3877 182.562V181.004C59.044 180.599 60.531 179.515 61.8861 176.195C63.7802 171.862 65.6111 167.6 67.5071 163.264L77.868 136.649H80.1692L93.8462 171.05C94.6622 172.812 96.1511 176.942 97.3686 178.5C98.8575 180.463 100.891 180.964 103.192 181.089V182.562C100.008 182.495 96.7589 182.357 93.5785 182.29C90.3275 182.357 87.0077 182.495 83.7567 182.562V181.004C85.6545 180.937 88.9724 181.073 88.9724 178.431C88.9724 176.738 88.2252 174.708 87.6192 173.149L84.976 166.176H68.2506L67.6409 167.869Z" fill="#979C9D"/>
<path d="M184.202 159.649C185.488 159.72 186.841 159.921 188.129 159.921C195.105 159.921 198.557 156.939 198.557 149.63C198.557 143.06 195.444 139.673 188.875 139.673C183.932 139.811 184.202 139.541 184.202 142.855V159.649ZM184.202 169.672C184.202 171.836 184.202 176.847 184.88 178.678C185.826 181.317 189.01 180.843 191.378 180.979V182.539C187.858 182.472 184.339 182.334 180.817 182.267C177.499 182.334 174.25 182.472 170.865 182.539V180.979C173.028 180.979 175.872 180.979 176.62 178.678C177.227 176.847 177.227 171.836 177.227 169.672V150.645C177.227 148.409 177.227 143.398 176.62 141.569C175.805 139.199 173.028 139.266 170.865 139.266V137.71C174.317 137.777 177.7 137.914 181.086 137.98C184.339 137.914 187.521 137.777 190.771 137.71C198.083 137.98 206.345 140.825 206.345 149.424C206.345 159.311 196.797 161.683 188.739 161.683C187.521 161.683 184.473 161.477 184.202 161.477V169.672ZM220.286 168.542L215.043 155.395L209.44 168.542H220.286ZM218.274 148.144L229.335 175.076C231.059 179.241 231.345 181.111 235.582 181.111V182.546C232.854 182.474 230.194 182.405 227.466 182.405C224.81 182.405 222.153 182.474 219.497 182.546V181.111C222.08 181.111 224.235 181.111 224.235 179.458C224.235 178.597 223.947 177.806 223.662 177.016L221.147 170.481H208.364L207.432 172.992C206.71 174.861 205.776 177.088 205.776 178.665C205.776 181.111 208.581 181.111 210.446 181.111V182.546C208.364 182.474 206.281 182.405 204.197 182.405C202.113 182.405 200.031 182.474 197.948 182.546V181.111C203.262 181.111 204.197 175.434 206.999 169.115L216.193 148.144H218.274ZM250.109 165.812H252.622C259.157 165.812 262.247 162.869 262.247 158.201C262.247 153.098 259.157 150.37 253.769 150.37C252.043 150.37 250.109 150.37 250.109 151.806V165.812ZM243.643 157.194C243.643 151.949 243.502 150.37 238.042 150.37V148.935C240.987 149.004 243.929 149.08 246.876 149.08C249.894 149.08 252.982 148.935 255.998 148.935C263.464 148.935 269.646 151.09 269.646 157.409C269.646 161.935 265.691 165.527 259.374 165.955L268.638 176.944C270.717 179.386 272.229 181.111 275.531 181.111V182.545C273.881 182.475 272.159 182.402 270.505 182.402C268.783 182.402 267.129 182.475 265.405 182.545L254.485 169.259C252.982 167.462 252.622 167.462 250.109 167.462V174.286C250.109 179.527 250.25 181.111 255.71 181.111V182.545C252.765 182.475 249.823 182.402 246.876 182.402C243.929 182.402 240.987 182.475 238.042 182.545V181.111C243.502 181.111 243.643 179.527 243.643 174.286V157.194ZM294.538 174.287C294.538 179.528 294.681 181.111 300.145 181.111V182.546C297.198 182.475 294.252 182.403 291.311 182.403C288.364 182.403 285.417 182.475 282.471 182.546V181.111C287.931 181.111 288.072 179.528 288.072 174.287V151.736C288.072 150.875 287.284 150.732 285.997 150.732H281.898C276.44 150.732 274.933 153.098 274.645 157.625H273.21V148.936C279.673 149.004 285.487 149.08 291.311 149.08C297.122 149.08 302.94 149.004 309.404 148.936V157.625H307.969C307.683 153.098 306.173 150.732 300.713 150.732H296.622C295.327 150.732 294.538 150.875 294.538 151.736V174.287ZM345.364 183.336H343.207L319.794 155.54H319.649V174.502C319.649 180.32 320.872 181.109 325.612 181.109V182.547C323.309 182.475 321.087 182.402 318.359 182.402C316.061 182.402 313.833 182.475 311.535 182.547V181.109C316.275 181.109 317.496 180.32 317.496 174.502V152.812C316.134 151.088 313.833 150.444 311.676 150.372V148.933C312.829 149.006 314.336 149.076 316.132 149.076C317.927 149.076 319.937 149.006 321.948 148.933L343.063 174.573H343.207V156.979C343.207 151.162 341.988 150.372 337.248 150.372V148.933C339.54 149.006 341.773 149.076 344.069 149.076C346.797 149.076 349.026 149.006 351.396 148.933V150.372C346.581 150.372 345.364 151.162 345.364 156.979V183.336ZM359.204 157.194C359.204 151.951 359.058 150.37 353.603 150.37V148.935C356.545 149.004 359.49 149.08 362.437 149.08C368.326 149.08 376.011 149.004 382.618 148.935V157.48H381.397C380.61 151.667 378.886 150.37 373.138 150.37H366.962C366.028 150.37 365.67 150.585 365.67 151.303V164.159C371.989 164.159 373.711 163.157 374.07 156.834H375.508C375.436 159.278 375.367 161.791 375.367 164.302C375.367 166.817 375.436 169.259 375.508 171.774H374.07C373.786 166.46 372.058 165.595 365.67 165.595V176.155C365.67 179.889 367.895 181.111 372.776 181.111C379.53 181.111 382.69 180.322 383.767 173.351H385.205L384.769 182.547C377.446 182.475 369.909 182.4 362.437 182.4C359.49 182.4 356.545 182.475 353.603 182.547V181.111C359.058 181.111 359.204 179.529 359.204 174.288V157.194ZM399.199 165.812H401.712C408.247 165.812 411.337 162.869 411.337 158.201C411.337 153.098 408.247 150.37 402.861 150.37C401.138 150.37 399.199 150.37 399.199 151.806V165.812ZM392.733 157.194C392.733 151.949 392.59 150.37 387.132 150.37V148.935C390.077 149.004 393.021 149.08 395.966 149.08C398.982 149.08 402.072 148.935 405.088 148.935C412.554 148.935 418.732 151.09 418.732 157.409C418.732 161.935 414.781 165.527 408.462 165.955L417.723 176.944C419.809 179.386 421.319 181.111 424.621 181.111V182.545C422.971 182.475 421.243 182.402 419.595 182.402C417.873 182.402 416.219 182.475 414.495 182.545L403.575 169.259C402.072 167.462 401.712 167.462 399.199 167.462V174.286C399.199 179.527 399.342 181.111 404.798 181.111V182.545C401.855 182.475 398.908 182.402 395.966 182.402C393.021 182.402 390.077 182.475 387.132 182.545V181.111C392.59 181.111 392.733 179.527 392.733 174.286V157.194Z" fill="#000A18"/>
</g>
</svg>
