<svg width="480" height="320" viewBox="0 0 480 320" fill="none" xmlns="http://www.w3.org/2000/svg">
<path d="M57.1261 155.265C56.2911 156.608 54.4199 158.417 55.9962 159.389C57.2991 159.419 58.2176 159.722 58.1897 160.684C58.1559 161.805 56.9177 161.859 56.7477 162.567C56.5119 163.54 57.9799 163.665 58.3451 164.367C58.2635 165.014 57.134 165.218 57.319 166.268C57.6921 166.675 58.1119 166.567 58.3977 166.839C59.361 167.756 57.908 168.957 57.7865 169.805C57.5627 171.367 60.1862 172.963 62.1273 172.952C66.5656 172.93 71.9196 170.258 76.5177 173.036C74.8176 173.409 70.6939 172.824 70.5355 175.457C70.4907 176.225 71.4472 177.153 71.8707 177.841C73.5091 180.466 74.8176 183.663 75.1422 186.876C77.8578 176.884 80.2913 165.661 82.8704 155.158C77.7871 152.941 74.088 149.557 68.0764 147.825C65.5248 147.087 62.605 146.853 60.4137 147.157C60.4363 148.23 59.7341 148.514 59.6991 149.259C59.6566 150.165 61.1551 150.666 61.9017 151.189C62.8619 151.86 63.3862 152.592 63.5367 153.494C62.8092 153.212 62.9665 152.548 61.8407 152.512C61.5361 152.5 61.0099 152.806 60.4348 152.853C60.0278 152.891 59.2842 152.156 59.0684 152.206C58.3567 152.368 57.5409 154.606 57.1257 155.265M64.278 137.27C63.8643 137.852 63.5348 138.556 63.1745 139.223C64.3547 139.376 65.8592 139.5 67.2038 139.773C74.8195 141.323 77.7792 147.081 84.2127 149.319C85.1572 146.212 86.032 141.804 86.8539 138.55C87.0788 137.657 87.2571 137.083 86.8001 136.429C85.856 135.634 84.1104 135.974 83.3371 135.153C82.8854 134.674 83.2713 134.156 82.738 133.976C80.9251 133.371 79.0979 134.431 77.9218 133.124C77.2064 133.708 75.656 133.394 74.4787 133.469C73.6945 133.519 72.966 134.583 72.3729 133.458C70.8394 133.673 70.1071 135.406 68.5278 135.406C68.2133 135.406 67.879 135.121 67.5314 135.131C66.3015 135.161 65.9852 137.205 64.9114 137.61C64.4894 137.647 64.6139 137.105 64.2784 137.27" fill="#0079B3"/>
<path d="M68.1877 172.098C68.1877 172.098 68.6854 171.773 71.3366 171.731C74.8586 171.671 76.5173 173.031 76.5173 173.031C76.348 173.121 75.6876 173.185 74.349 173.275C72.9724 173.373 71.9042 173.728 71.9042 173.728C70.1522 174.45 70.6517 176.024 70.6517 176.024C69.1713 173.966 68.1881 172.098 68.1881 172.098M127.743 170.653L119.254 152.262C117.602 148.781 115.796 148.546 113.454 148.544H110.561C110.244 148.551 108.332 148.536 108.332 148.536L108.88 149.713L85.9854 170.481C85.6649 170.779 85.4626 171.167 85.4287 171.61C85.4261 171.629 85.4261 171.655 85.4261 171.685C85.4261 171.892 85.4769 172.113 85.6262 172.302C85.7653 172.492 86.0192 172.619 86.2581 172.619H86.2769L92.8827 172.581C93.1892 172.577 93.4299 172.44 93.627 172.265L98.9988 167.43H117.017L119.164 172.09C119.278 172.364 119.601 172.592 119.924 172.581L126.547 172.619H126.555C127.069 172.593 127.38 172.278 127.612 171.911C127.756 171.66 127.837 171.392 127.839 171.114C127.84 170.955 127.807 170.798 127.743 170.653L127.743 170.653ZM114.264 161.426H105.599L111.715 155.841L114.264 161.426ZM129.528 170.721C129.483 170.871 129.472 171.03 129.498 171.185C129.54 171.465 129.66 171.736 129.842 171.984C130.126 172.355 130.485 172.672 131.007 172.696H131.01L137.664 172.658C137.988 172.673 138.281 172.442 138.357 172.167L139.867 167.484L145.325 150.78L146.086 148.494C146.086 148.494 144.136 148.505 143.815 148.502H140.867C138.48 148.504 136.671 148.742 135.479 152.239L129.524 170.722L129.528 170.721ZM130.049 170.947H130.05H130.049ZM176.282 154.008C176.184 153.339 175.956 152.718 175.622 152.137C174.875 150.855 173.616 149.93 171.973 149.348C170.332 148.764 168.32 148.5 165.973 148.5H155.853C155.841 148.5 155.83 148.493 155.819 148.493H155.815L154.69 148.5H149.56C149.481 148.5 149.402 148.511 149.326 148.53L149.163 148.532C148.837 148.513 148.546 148.747 148.47 149.024L146.957 153.703L141.5 170.407L140.741 172.694C140.741 172.694 142.688 172.683 143.01 172.687H145.96C148.346 172.683 150.154 172.449 151.348 168.949L153.072 163.595H160.538C161.383 163.595 162.067 163.656 162.566 163.757C163.008 163.843 163.119 163.879 163.22 163.985C163.336 164.088 163.519 164.412 163.756 165.115L163.749 165.126L163.808 165.292C163.808 165.294 164.394 166.962 164.987 168.647C165.282 169.488 165.581 170.335 165.809 170.98C166.044 171.647 166.177 172.027 166.228 172.142C166.348 172.439 166.676 172.662 167.005 172.662H173.459C173.79 172.654 174.048 172.506 174.262 172.31C174.472 172.11 174.627 171.859 174.712 171.582L174.762 171.405L172.446 165.387L170.904 161.652C171.881 161.25 172.971 160.57 173.553 160.1C174.152 159.615 174.679 159.047 175.12 158.415C175.471 157.91 175.755 157.361 175.965 156.783H175.984L176.064 156.512H176.09L176.18 156.079C176.283 155.649 176.335 155.208 176.336 154.765C176.336 154.511 176.317 154.257 176.281 154.005L176.282 154.008ZM167.681 155.899C167.573 156.101 167.437 156.286 167.277 156.448C167.109 156.617 166.919 156.762 166.712 156.879C166.453 157.027 166.178 157.145 165.892 157.232C165.255 157.434 164.363 157.564 163.205 157.564H155.016L155.992 154.532L164.458 154.534H164.481L164.492 154.532C165.244 154.534 165.849 154.592 166.303 154.689C167.014 154.842 167.335 155.048 167.508 155.258C167.586 155.35 167.639 155.461 167.662 155.58C167.678 155.654 167.686 155.73 167.685 155.807C167.685 155.833 167.681 155.863 167.681 155.899M330.947 164.908V164.878C330.947 163.738 330.698 162.675 330.198 161.763C329.704 160.856 328.97 160.099 328.032 159.489C327.007 158.814 325.778 158.335 324.367 158.022C322.947 157.705 321.343 157.559 319.583 157.559H313.091C312.322 157.559 311.692 157.498 311.2 157.403C310.455 157.247 310.062 157.028 309.803 156.77C309.693 156.658 309.608 156.525 309.552 156.378C309.51 156.276 309.489 156.173 309.471 156.044C309.543 155.874 309.637 155.715 309.751 155.57C309.88 155.42 310.03 155.29 310.198 155.185C310.426 155.047 310.669 154.936 310.923 154.855C311.506 154.665 312.344 154.532 313.47 154.527H330.912C331.244 154.527 331.551 154.347 331.772 154.111C331.976 153.869 332.111 153.584 332.15 153.289L333.216 149.724C333.254 149.434 333.216 149.151 333.071 148.907C332.994 148.778 332.885 148.672 332.754 148.599C332.623 148.526 332.475 148.488 332.325 148.49H314.447C312.685 148.49 311.043 148.639 309.535 148.95C308.033 149.266 306.661 149.752 305.447 150.42L305.42 150.439C304.331 151.035 303.381 151.791 302.618 152.699C301.858 153.609 301.296 154.668 300.969 155.809L300.962 155.839C300.939 155.904 300.924 155.971 300.915 156.039C300.903 156.105 300.897 156.172 300.896 156.239V156.279C300.874 157.479 301.114 158.591 301.631 159.541C302.4 160.97 303.749 161.997 305.559 162.649C307.358 163.302 309.588 163.592 312.194 163.596H318.706C319.484 163.596 320.12 163.653 320.605 163.75C321.356 163.905 321.76 164.124 322.019 164.381C322.128 164.495 322.213 164.63 322.268 164.778C322.31 164.877 322.329 164.981 322.348 165.108C322.281 165.279 322.189 165.439 322.074 165.582C321.946 165.731 321.798 165.861 321.632 165.966C321.446 166.082 321.201 166.195 320.902 166.296C320.306 166.491 319.433 166.628 318.261 166.627H298.772C298.435 166.628 298.115 166.802 297.907 167.044C297.699 167.272 297.564 167.556 297.518 167.861L296.243 171.428C296.204 171.721 296.243 172.005 296.387 172.247C296.535 172.487 296.792 172.663 297.123 172.663H317.388C319.136 172.663 320.748 172.531 322.229 172.253C324.444 171.836 326.346 171.074 327.84 169.907C328.576 169.334 329.215 168.646 329.732 167.869C330.245 167.092 330.632 166.238 330.879 165.339L330.887 165.306C330.902 165.239 330.926 165.175 330.93 165.109C330.937 165.04 330.937 164.975 330.945 164.908M331.697 170.668C331.65 170.817 331.638 170.974 331.663 171.128C331.715 171.417 331.835 171.69 332.013 171.924C332.293 172.291 332.654 172.608 333.17 172.632H333.177L339.811 172.594C340.131 172.609 340.422 172.379 340.503 172.105L342.008 167.436L347.45 150.78L348.207 148.503C348.207 148.503 346.266 148.514 345.944 148.511H343.004C340.624 148.514 338.819 148.748 337.63 152.238L331.697 170.668ZM295.307 153.999C295.21 153.341 294.986 152.708 294.649 152.135C293.904 150.855 292.65 149.932 291.015 149.354C289.372 148.77 287.368 148.509 285.03 148.509H274.939C274.931 148.505 274.922 148.502 274.912 148.502H274.905L273.782 148.509H268.663C268.585 148.508 268.508 148.517 268.432 148.536L268.267 148.536C267.945 148.529 267.657 148.756 267.574 149.032L266.069 153.698L260.627 170.352L259.871 172.632C259.871 172.632 261.811 172.621 262.137 172.625H265.078C267.455 172.622 269.258 172.386 270.447 168.9L272.17 163.561H279.609C280.456 163.561 281.139 163.623 281.634 163.721C282.075 163.812 282.185 163.842 282.293 163.949C282.403 164.055 282.586 164.375 282.821 165.077L282.814 165.088L282.874 165.254C282.874 165.256 283.459 166.917 284.049 168.6C284.341 169.439 284.641 170.286 284.871 170.926C285.097 171.587 285.235 171.968 285.287 172.084C285.407 172.38 285.735 172.6 286.06 172.6H292.497C292.824 172.593 293.085 172.447 293.296 172.253C293.513 172.049 293.657 171.802 293.745 171.523L293.797 171.348L291.488 165.348L289.952 161.625C290.926 161.223 292.013 160.543 292.585 160.076C293.185 159.592 293.714 159.027 294.157 158.397C294.506 157.893 294.788 157.346 294.998 156.771H295.009L295.089 156.5H295.119L295.209 156.066C295.309 155.637 295.36 155.198 295.359 154.758C295.359 154.499 295.344 154.246 295.305 154L295.307 153.999ZM286.734 155.885C286.629 156.088 286.492 156.272 286.33 156.433C286.164 156.6 285.975 156.743 285.769 156.858C285.511 157.006 285.238 157.124 284.954 157.21C284.309 157.413 283.422 157.547 282.269 157.547H274.101L275.08 154.521H283.554C284.299 154.521 284.906 154.582 285.357 154.678C286.062 154.829 286.387 155.039 286.565 155.247C286.638 155.341 286.689 155.45 286.713 155.566C286.727 155.64 286.735 155.715 286.736 155.79V155.885M424.522 170.628L416 152.168C414.342 148.674 412.528 148.439 410.178 148.436H407.274C406.958 148.443 405.037 148.428 405.037 148.428L405.587 149.606L382.607 170.452C382.285 170.753 382.08 171.143 382.048 171.585C382.046 171.604 382.046 171.631 382.046 171.659C382.046 171.867 382.095 172.092 382.246 172.283C382.384 172.474 382.643 172.598 382.881 172.598H382.896L389.532 172.559C389.839 172.556 390.079 172.419 390.278 172.242L395.67 167.392H413.753L415.908 172.068C416.024 172.344 416.352 172.573 416.672 172.559L423.322 172.598H423.326C423.838 172.572 424.152 172.257 424.383 171.89C424.532 171.638 424.613 171.368 424.615 171.089C424.617 170.929 424.583 170.772 424.517 170.627L424.522 170.628ZM410.991 161.367H402.295L408.431 155.758L410.991 161.367ZM224.121 148.916C224.046 148.787 223.938 148.681 223.808 148.608C223.678 148.534 223.531 148.497 223.382 148.498H208.751C204.692 148.499 201.08 148.948 197.937 149.905C194.791 150.858 192.136 152.32 190.051 154.304C188.267 155.992 187.012 158.069 186.364 160.398L186.356 160.424C186.339 160.485 186.326 160.548 186.318 160.611C186.307 160.671 186.303 160.733 186.299 160.792V160.831C186.219 163.153 186.828 165.234 188.093 166.918C189.568 168.901 191.783 170.361 194.651 171.319C197.526 172.272 201.024 172.721 205.111 172.724H219.483C219.819 172.724 220.131 172.549 220.347 172.306C220.551 172.076 220.684 171.792 220.729 171.488L221.25 167.914C221.289 167.62 221.25 167.339 221.105 167.092C221.029 166.964 220.92 166.858 220.789 166.784C220.659 166.711 220.512 166.673 220.362 166.674H206.027C203.278 166.674 201.087 166.37 199.408 165.809C197.727 165.249 196.542 164.442 195.757 163.391C195.175 162.603 194.898 161.728 194.89 160.611C195.24 159.496 195.79 158.619 196.612 157.826C197.716 156.78 199.141 155.975 200.992 155.412C202.833 154.855 205.112 154.547 207.849 154.547H222.506C222.841 154.547 223.151 154.367 223.366 154.129C223.571 153.9 223.704 153.615 223.748 153.31L224.265 149.735C224.307 149.441 224.265 149.158 224.123 148.918M261.856 160.609L261.86 160.571C262.05 159.325 262.011 158.098 261.731 156.975C261.458 155.86 260.937 154.821 260.207 153.936C258.751 152.149 256.473 150.837 253.479 149.9L253.464 149.893L253.445 149.889C250.894 149.101 247.87 148.646 244.392 148.5L244.321 148.499H244.271L244.189 148.5C240.629 148.647 237.447 149.101 234.643 149.891C231.352 150.832 228.668 152.147 226.66 153.94C225.659 154.836 224.829 155.854 224.204 156.982C223.577 158.103 223.162 159.328 222.955 160.599C222.955 160.599 222.955 160.607 222.954 160.611L222.95 160.622C222.747 161.895 222.771 163.115 223.033 164.24C223.3 165.367 223.803 166.382 224.523 167.28C225.963 169.071 228.243 170.389 231.25 171.327C233.823 172.122 236.887 172.573 240.421 172.719L240.486 172.722H240.54L240.628 172.719C244.178 172.573 247.369 172.119 250.179 171.327C253.494 170.389 256.196 169.075 258.201 167.283C259.203 166.384 260.03 165.371 260.646 164.243C261.258 163.116 261.668 161.89 261.856 160.622V160.633V160.609ZM253.3 160.609C253.205 161.237 253.024 161.76 252.762 162.249C252.501 162.734 252.148 163.184 251.675 163.616C250.735 164.475 249.309 165.238 247.309 165.811L247.298 165.814C245.715 166.273 243.77 166.569 241.461 166.671C239.589 166.589 237.989 166.372 236.658 166.045C235.3 165.709 234.226 165.259 233.393 164.709C232.563 164.162 232.037 163.547 231.743 162.889C231.451 162.219 231.372 161.519 231.509 160.609C231.607 159.987 231.791 159.464 232.052 158.978C232.316 158.497 232.669 158.05 233.138 157.62C234.061 156.779 235.451 156.026 237.394 155.451L237.476 155.429C239.099 154.952 241.056 154.648 243.359 154.546C245.552 154.649 247.388 154.952 248.903 155.432C250.721 156.016 251.912 156.781 252.59 157.639C252.929 158.071 253.147 158.515 253.26 158.994C253.371 159.482 253.389 159.996 253.3 160.609M384.475 148.906C384.4 148.777 384.292 148.67 384.163 148.596C384.033 148.523 383.886 148.485 383.736 148.487H369.109C365.047 148.487 361.435 148.94 358.293 149.895C355.144 150.851 352.491 152.313 350.407 154.293C348.623 155.982 347.367 158.06 346.72 160.389L346.712 160.412C346.697 160.481 346.682 160.54 346.672 160.602C346.661 160.662 346.656 160.722 346.657 160.783L346.654 160.817C346.575 163.14 347.183 165.219 348.446 166.908C349.925 168.887 352.14 170.351 355.008 171.31C357.88 172.261 361.381 172.709 365.467 172.712H378.115C378.453 172.712 378.742 172.516 378.983 172.297C379.233 172.062 383.845 168.121 383.908 167.902C383.971 167.683 383.908 167.324 383.763 167.082C383.686 166.954 383.578 166.848 383.448 166.774C383.318 166.7 383.171 166.661 383.021 166.661H366.383C363.64 166.661 361.441 166.359 359.764 165.799C358.083 165.236 356.899 164.431 356.113 163.38C355.53 162.592 355.251 161.716 355.249 160.601C355.599 159.487 356.145 158.607 356.968 157.814C358.071 156.769 359.502 155.962 361.35 155.399C363.193 154.841 365.471 154.534 368.209 154.537L382.862 154.534C383.198 154.534 383.508 154.358 383.725 154.117C383.927 153.887 384.058 153.603 384.102 153.299L384.179 152.807L384.625 149.723C384.663 149.427 384.625 149.146 384.477 148.905" fill="#004B86"/>
</svg>
