<svg width="480" height="320" viewBox="0 0 480 320" fill="none" xmlns="http://www.w3.org/2000/svg">
<path d="M404.842 131.42L388.258 155.416C386.074 158.572 382.53 161.612 378.253 161.939V162.675H396.699C401.595 162.675 405.166 159.487 407.586 155.976L424.615 131.421H404.842V131.42Z" fill="#ED1C24"/>
<path d="M404.842 131.42L388.258 155.412C386.074 158.572 382.53 161.612 378.253 161.938V162.674H396.699C401.595 162.674 405.166 159.486 407.586 155.975L424.615 131.42H404.842Z" fill="url(#paint0_linear_730_18465)"/>
<path d="M99.4021 162.674V134.056H107.756V162.674H99.4021ZM291.981 162.674L271.917 145.681V162.674H264.864V134.056H270.855L290.653 150.784V134.056H297.706V162.674H291.981ZM335.617 143.29C331.841 141.432 327.593 139.927 321.957 139.927C315.229 139.927 310.212 143.407 310.212 148.246C310.212 153.207 315.317 156.715 321.896 156.715C327.326 156.715 331.635 155.327 335.884 152.879V159.961C332.133 161.821 327.148 163.205 321.544 163.205C310.095 163.205 301.096 157.363 301.096 148.247C301.096 139.277 310.273 133.523 321.516 133.523C326.824 133.523 331.635 134.527 335.617 136.15V143.29ZM154.225 162.674V134.056H182.135V140.191H162.571V147.304H181.693V153.442H162.571V162.674H154.225ZM340.663 162.674V134.056H369.636V140.191H349.013V145.15H369.309V151.285H349.013V156.536H369.547V162.675H340.663V162.674ZM211.137 151.937L222.676 162.674H213.763C211.788 162.674 210.489 162.055 209.454 161.052L201.608 153.442C201.459 153.292 201.224 153.207 200.929 153.207H195.589V162.674H187.238V134.056H205.328C214.706 134.056 218.664 138.273 218.664 142.938C218.662 148.363 213.823 150.96 211.137 151.937ZM204.469 147.214C207.774 147.214 209.368 145.531 209.368 143.646C209.368 141.756 207.952 140.191 204.469 140.191H195.588V147.214H204.469ZM139.473 151.937L151.008 162.674H142.099C140.12 162.674 138.822 162.055 137.79 161.052L129.94 153.442C129.795 153.292 129.556 153.207 129.261 153.207H123.925V162.674H115.571V134.056H133.66C143.042 134.056 146.996 138.273 146.996 142.938C146.995 148.363 142.156 150.96 139.473 151.937ZM132.805 147.214C136.107 147.214 137.701 145.531 137.701 143.646C137.701 141.756 136.285 140.191 132.805 140.191H123.925V147.214H132.805ZM86.3368 162.674L82.6748 156.391H66.6855L63.3515 162.674H55.3846L71.3138 134.085H78.5722L96.6298 162.674H86.3368ZM69.8699 150.432H79.192L74.3531 141.695L69.8699 150.432ZM253.065 162.674L249.493 156.391H233.917L230.7 162.674H222.94L238.461 134.085H245.51L263.066 162.674H253.065ZM237.043 150.432H246.13L241.41 141.695L237.043 150.432Z" fill="#002157"/>
<path d="M308.242 188.134V167.548H301.824V175.817H288.025V167.548H281.56V188.134H288.025V179.865H301.824V188.134H308.242ZM311.857 177.772C311.857 180.792 313.352 183.331 316.44 185.424C319.48 187.551 323.147 188.58 327.441 188.58C331.687 188.58 335.354 187.551 338.442 185.423C341.53 183.331 343.074 180.791 343.074 177.772C343.074 174.822 341.53 172.282 338.442 170.224C335.354 168.165 331.687 167.136 327.441 167.102C323.147 167.102 319.48 168.165 316.44 170.224C313.352 172.282 311.857 174.821 311.857 177.772ZM318.322 177.772C318.322 175.988 319.19 174.444 320.928 173.209C322.665 171.974 324.836 171.322 327.441 171.322C330.047 171.322 332.17 171.939 333.907 173.175C335.595 174.41 336.416 175.919 336.464 177.772C336.464 179.694 335.595 181.272 333.907 182.507C332.17 183.742 330.047 184.36 327.441 184.36C324.836 184.36 322.665 183.742 320.928 182.473C319.191 181.238 318.322 179.659 318.322 177.772V177.772ZM357.58 182.027C361.005 182.027 363.852 181.375 366.12 180.002C368.388 178.63 369.546 176.88 369.546 174.719C369.546 172.523 368.388 170.807 366.168 169.503C363.949 168.2 361.054 167.548 357.58 167.548H346.724V188.134H353.141V182.027H357.58ZM357.435 171.425C359.124 171.425 360.523 171.734 361.585 172.282C362.646 172.866 363.177 173.655 363.177 174.684C363.177 175.782 362.598 176.64 361.536 177.258C360.475 177.875 359.075 178.184 357.387 178.184H353.141V171.425L357.435 171.425Z" fill="#FF0000"/>
<defs>
<linearGradient id="paint0_linear_730_18465" x1="401.434" y1="131.42" x2="401.434" y2="162.675" gradientUnits="userSpaceOnUse">
<stop offset="0.3352" stop-color="#FF1E27"/>
<stop offset="0.6915" stop-color="#E81B23"/>
<stop offset="0.7841" stop-color="#A61319"/>
<stop offset="0.8719" stop-color="#9D1218"/>
<stop offset="0.9551" stop-color="#931116"/>
<stop offset="1" stop-color="#800F14"/>
</linearGradient>
</defs>
</svg>
