<svg width="480" height="320" viewBox="0 0 480 320" fill="none" xmlns="http://www.w3.org/2000/svg">
<path d="M257.018 155.501C256.218 156.022 255.33 156.974 254.401 158.396L254.957 155.157H247.864L244.38 174.975H251.997L253.174 168.32C253.73 165.145 254.498 162.987 255.48 161.812C256.185 161.013 257.018 160.585 258.001 160.585C258.535 160.585 259.208 160.765 260.041 161.17L263.341 155.743C262.134 155.03 260.991 154.698 259.859 154.698C258.813 154.7 257.853 154.943 257.018 155.501ZM235.759 152.752H243.334L244.23 147.67H236.646L235.759 152.752ZM231.84 174.977H239.392L242.907 155.159H235.354L231.84 174.977ZM228.142 156.664C227.373 155.864 226.294 155.307 224.97 155.062C223.645 154.816 221.829 154.7 219.576 154.7C218.153 154.7 216.798 154.784 215.568 155.006C214.309 155.223 213.283 155.532 212.547 155.895C211.467 156.417 210.613 157.069 209.961 157.806C209.34 158.512 208.753 159.538 208.26 160.799L215.355 161.503C215.814 160.672 216.306 160.092 216.829 159.782C217.546 159.407 218.497 159.197 219.724 159.197C220.717 159.197 221.359 159.376 221.668 159.75C221.979 160.113 222.074 160.798 221.882 161.717C220.899 162.091 219.949 162.401 219.051 162.614C218.187 162.858 216.274 163.266 213.315 163.851C210.88 164.312 209.127 165.017 208.08 166.009C207.002 166.993 206.35 168.22 206.072 169.737C205.795 171.342 206.169 172.698 207.215 173.797C208.229 174.908 209.928 175.432 212.268 175.432C214.063 175.432 215.666 175.186 217.074 174.633C218.154 174.204 219.265 173.521 220.408 172.537C220.408 173.128 220.408 173.554 220.472 173.797C220.504 174.077 220.62 174.481 220.803 174.977H227.929C227.684 174.17 227.555 173.5 227.523 172.977C227.491 172.421 227.555 171.707 227.746 170.754L229.285 161.992C229.434 161.075 229.434 160.092 229.253 159.045C229.041 158.023 228.666 157.217 228.142 156.664H228.142ZM220.996 166.78C220.836 167.733 220.557 168.501 220.164 169.088C219.724 169.675 219.148 170.167 218.348 170.595C217.546 171.001 216.744 171.213 215.911 171.213C215.11 171.213 214.523 171.033 214.18 170.626C213.84 170.263 213.721 169.76 213.817 169.184C213.902 168.659 214.213 168.192 214.703 167.764C215.164 167.358 216.221 166.963 217.823 166.557C218.988 166.28 220.131 165.948 221.211 165.573L220.996 166.78ZM417.071 147.671L416.143 152.752H423.727L424.615 147.671H417.071ZM405.94 155.158L400.513 167.585L398.516 155.158H391.729L385.514 167.585L384.488 155.158H377.16L381.004 174.977H387.79L393.772 163.052L395.683 174.977H402.424L413.247 155.158L405.94 155.158ZM412.232 174.977H419.805L423.289 155.159H415.746L412.232 174.977ZM372.467 156.664C371.7 155.864 370.621 155.307 369.297 155.062C367.971 154.816 366.155 154.7 363.9 154.7C362.479 154.7 361.158 154.784 359.895 155.006C358.633 155.223 357.62 155.532 356.873 155.895C355.793 156.417 354.94 157.069 354.32 157.806C353.668 158.512 353.091 159.538 352.589 160.799L359.714 161.503C360.14 160.672 360.633 160.092 361.158 159.782C361.873 159.407 362.821 159.197 364.063 159.197C365.045 159.197 365.686 159.376 365.997 159.75C366.305 160.113 366.402 160.798 366.221 161.717C365.228 162.091 364.275 162.401 363.379 162.614C362.512 162.858 360.6 163.266 357.651 163.851C355.217 164.312 353.456 165.017 352.407 166.009C351.359 166.993 350.685 168.22 350.431 169.737C350.132 171.342 350.495 172.698 351.543 173.797C352.566 174.908 354.254 175.432 356.593 175.432C358.391 175.432 359.994 175.186 361.432 174.633C362.479 174.204 363.591 173.521 364.732 172.537C364.732 173.128 364.732 173.554 364.8 173.797C364.833 174.077 364.949 174.481 365.14 174.977H372.288C372.011 174.17 371.881 173.5 371.861 172.977C371.831 172.421 371.883 171.707 372.074 170.754L373.613 161.992C373.762 161.075 373.762 160.092 373.579 159.045C373.367 158.023 372.995 157.217 372.467 156.664ZM365.356 166.78C365.165 167.733 364.896 168.501 364.491 169.088C364.064 169.675 363.475 170.167 362.673 170.595C361.873 171.001 361.07 171.213 360.235 171.213C359.437 171.213 358.847 171.033 358.51 170.626C358.178 170.263 358.047 169.76 358.145 169.184C358.23 168.659 358.539 168.192 359.033 167.764C359.5 167.358 360.549 166.963 362.15 166.557C363.295 166.286 364.426 165.958 365.538 165.573L365.356 166.78ZM334.257 156.664C333.488 155.864 332.441 155.307 331.082 155.062C329.759 154.816 327.964 154.7 325.688 154.7C324.267 154.7 322.941 154.784 321.683 155.006C320.41 155.223 319.429 155.532 318.66 155.895C317.581 156.417 316.745 157.069 316.107 157.806C315.456 158.512 314.866 159.538 314.376 160.799L321.499 161.503C321.927 160.672 322.42 160.092 322.973 159.782C323.647 159.407 324.609 159.197 325.869 159.197C326.832 159.197 327.47 159.376 327.782 159.75C328.091 160.113 328.187 160.798 328.027 161.717C327.01 162.091 326.05 162.401 325.196 162.614C324.301 162.858 322.387 163.266 319.429 163.851C316.992 164.312 315.239 165.017 314.193 166.009C313.147 166.993 312.462 168.22 312.215 169.737C311.938 171.342 312.311 172.698 313.327 173.797C314.341 174.908 316.042 175.432 318.411 175.432C320.164 175.432 321.766 175.186 323.219 174.633C324.268 174.204 325.378 173.521 326.552 172.537C326.52 173.128 326.552 173.554 326.584 173.797C326.605 174.077 326.732 174.481 326.915 174.977H334.072C333.827 174.17 333.665 173.5 333.633 172.977C333.603 172.421 333.698 171.707 333.848 170.754L335.396 161.992C335.543 161.075 335.543 160.092 335.363 159.045C335.175 158.023 334.81 157.217 334.257 156.664H334.257ZM327.132 166.78C326.948 167.733 326.67 168.501 326.276 169.088C325.869 169.675 325.249 170.167 324.449 170.595C323.68 171.001 322.847 171.213 322.025 171.213C321.223 171.213 320.634 171.033 320.292 170.626C319.95 170.263 319.834 169.76 319.918 169.184C320.015 168.659 320.325 168.192 320.814 167.764C321.276 167.358 322.324 166.963 323.926 166.557C325.083 166.283 326.227 165.955 327.353 165.573L327.132 166.78ZM342.792 147.671L337.952 174.977H345.604L350.41 147.671H342.792ZM304.451 154.7C303.007 154.7 301.77 154.911 300.691 155.37C299.642 155.832 298.382 156.73 296.962 158.023C296.589 156.911 295.977 156.085 295.146 155.534C294.345 154.977 293.137 154.701 291.534 154.701C290.093 154.701 288.766 154.945 287.656 155.469C286.514 155.96 285.339 156.825 284.11 158.024L284.6 155.159H277.519L274.002 174.978H281.642L283.435 164.836C283.682 163.331 284.171 162.252 284.814 161.598C285.498 160.914 286.298 160.587 287.165 160.587C287.688 160.587 288.116 160.733 288.489 161.043C288.821 161.357 289.015 161.75 289.098 162.25C289.129 162.581 289.098 163.173 288.949 164.033L287.005 174.977H294.654L296.439 164.707C296.716 163.266 297.143 162.219 297.826 161.565C298.467 160.913 299.249 160.585 300.134 160.585C300.881 160.585 301.46 160.913 301.832 161.63C302.111 162.058 302.175 162.739 302.014 163.627L300.016 174.975H307.623L309.846 162.527C310.306 159.848 310.058 157.837 309.109 156.577C308.115 155.307 306.577 154.7 304.451 154.7Z" fill="#070707"/>
<path d="M175.778 160C175.778 188.414 152.744 211.447 124.331 211.447C95.9169 211.447 72.8838 188.414 72.8838 160C72.8831 131.587 95.9169 108.553 124.331 108.553C152.744 108.553 175.778 131.587 175.778 160Z" fill="#FB0F0C"/>
<path d="M82.1639 150.789C82.1639 150.789 78.2911 148.073 86.7182 145.822C86.7182 145.822 89.5958 144.218 84.7843 144.338C84.7843 144.338 62.749 144.458 57.0581 150.437C57.0581 150.437 55.0066 150.599 62.9299 151.867C62.9299 151.867 114.479 178.426 186.74 193.292C186.74 193.292 192.019 194.651 191.984 193.056C191.984 193.056 98.609 153.896 82.1639 150.789ZM109.374 147.803L113.844 157.485L122.252 160.663L144.471 151.392L134.06 164.948L143.383 168.868L166.242 143.398H143.28L123.737 153.07L122.684 142.903H99.619L93.1086 150.013L102.571 153.31L109.374 147.803Z" fill="white" stroke="black" stroke-width="7.35591"/>
</svg>
