<svg width="480" height="320" viewBox="0 0 480 320" fill="none" xmlns="http://www.w3.org/2000/svg">
<path d="M223.619 176.782L226.704 162.06C227.318 159.107 228.263 156.626 229.529 154.631C230.799 152.634 232.299 151.029 234.024 149.831C235.682 148.697 237.527 147.864 239.474 147.37C241.423 146.863 243.429 146.61 245.443 146.617C245.591 146.617 245.779 146.622 245.998 146.622C246.222 146.626 248.1 146.629 248.245 146.629C248.245 146.629 247.101 148.015 246.325 150.04C245.737 151.587 245.697 154.691 245.697 154.691L242.544 154.67C240.181 154.656 238.487 155.174 237.234 156.222C235.976 157.277 235.112 158.938 234.636 161.208L231.382 176.773L223.619 176.782ZM246.968 166.032L254.023 166.039C253.745 168.031 254.14 169.428 255.196 170.222C256.287 171.155 258.007 171.623 260.361 171.623C262.446 171.623 264.123 171.266 265.401 170.531C266.01 170.197 266.546 169.742 266.974 169.194C267.401 168.646 267.713 168.017 267.889 167.344C268.469 165.219 265.919 163.493 260.229 162.155L260.057 162.058L259.306 161.858C256.08 161.125 254.005 160.354 253.077 159.558C251.937 158.822 251.281 157.762 251.131 156.367C250.783 155.168 250.866 153.645 251.377 151.784C252.27 148.531 254.113 145.969 256.912 144.114C259.683 142.319 263.259 141.432 267.626 141.438C271.727 141.438 274.629 142.375 276.345 144.233C278.061 146.296 278.536 148.986 277.759 152.308L273.723 152.304C272.177 152.297 271.264 151.601 270.973 150.202C270.827 149.558 270.497 148.97 270.024 148.509C269.05 147.648 267.522 147.212 265.438 147.212C263.421 147.212 261.874 147.573 260.8 148.305C259.637 148.979 258.788 150.087 258.441 151.386C257.95 153.186 259.537 154.513 263.196 155.381C264.245 155.717 265.034 155.915 265.554 155.983C266.653 156.385 267.62 156.698 268.469 156.933C269.311 157.17 269.982 157.348 270.483 157.479C271.316 157.88 272.146 158.281 272.982 158.677C274.106 159.477 274.867 160.506 275.261 161.768C275.615 163.164 275.565 164.691 275.113 166.353C274.13 169.94 272.151 172.733 269.187 174.72C266.259 176.575 262.576 177.505 258.137 177.505C253.567 177.498 250.399 176.529 248.65 174.601C246.689 172.674 246.133 169.814 246.968 166.031M278.289 176.736L286.7 146.049C286.973 145.05 287.555 144.202 288.452 143.511C289.346 142.808 290.309 142.478 291.318 142.478L312.886 142.482L311.279 148.353H293.123L291.104 155.72L304.619 155.715L303.989 158.027C303.716 159.023 303.133 159.873 302.232 160.561C301.338 161.263 300.376 161.595 299.371 161.595L289.504 161.588L287.088 170.366L305.247 170.369L303.494 176.735H278.289L278.289 176.736ZM309.979 176.778L318.398 146.054C318.671 145.055 319.253 144.212 320.146 143.516C321.05 142.818 322.02 142.47 323.022 142.47L336.216 142.491C339.98 142.491 342.553 143.291 343.931 144.885C345.354 146.549 345.634 148.969 344.758 152.16C344.179 154.285 343.221 156.048 341.899 157.442C340.729 158.771 339.187 159.73 337.276 160.33C338.674 160.864 339.533 161.66 339.85 162.719C340.179 163.72 340.087 165.409 339.563 167.806L338.644 171.889C338.533 172.291 338.421 172.724 338.289 173.187C338.172 173.611 338.087 174.043 338.036 174.479C337.91 175.676 338.125 176.446 338.637 176.781H330.752C330.6 176.086 330.591 175.367 330.724 174.668C330.881 173.607 331.013 172.878 331.127 172.48L332.033 168.795C332.442 166.796 332.428 165.373 331.998 164.512C331.456 163.776 330.244 163.405 328.363 163.405L320.8 163.402L317.132 176.781H309.981L309.979 176.778ZM322.442 157.419L330.812 157.426C332.625 157.43 334.071 157.062 335.143 156.337C336.216 155.604 336.959 154.478 337.383 152.95C337.802 151.421 337.669 150.294 337.002 149.563C336.414 148.763 335.309 148.363 333.697 148.363L324.927 148.356L322.442 157.419ZM344.325 176.778L352.736 146.086C353.006 145.092 353.592 144.244 354.488 143.54C355.386 142.845 356.365 142.477 357.371 142.477H370.048C373.616 142.483 376.136 143.249 377.615 144.71C379.065 146.308 379.417 148.469 378.667 151.196C378.189 152.92 377.425 154.38 376.355 155.577C375.268 156.729 373.953 157.644 372.494 158.261C374.04 158.994 375.099 160.028 375.676 161.359C376.202 162.616 376.186 164.279 375.627 166.336C374.722 169.656 372.933 172.242 370.271 174.106C367.56 175.901 364.187 176.775 360.154 176.775L344.325 176.778ZM356.947 155.762L365.112 155.766C366.854 155.766 368.217 155.465 369.187 154.875C370.157 154.273 370.818 153.349 371.163 152.087C371.511 150.824 371.361 149.891 370.715 149.291C370.189 148.761 368.952 148.491 367.004 148.491L358.933 148.485L356.947 155.762ZM352.875 170.602L361.343 170.616C363.229 170.616 364.773 170.251 365.978 169.52C367.101 168.859 367.884 167.726 368.319 166.129C368.754 164.537 368.602 163.377 367.865 162.641C367.171 161.978 365.784 161.643 363.704 161.643L355.332 161.636L352.875 170.602ZM379.28 176.778L387.682 146.113C387.956 145.114 388.543 144.272 389.441 143.575C390.333 142.878 391.333 142.477 392.342 142.477H395.844L386.441 176.78L379.28 176.778ZM221.886 148.585C222.047 147.619 221.858 146.769 221.312 146.06C220.734 145.29 219.931 144.903 218.892 144.895L214.917 144.867L213.245 152.803C216.163 151.476 219.044 150.071 221.886 148.587M220.577 154.696C217.816 155.933 215.001 157.046 212.14 158.032L208.196 176.778H215.954L220.644 154.512L220.577 154.696ZM415.58 163.951H406.669L415.487 149.426L416.427 164.906C418.508 164.642 421.08 165.698 423.507 164.955L421.396 142.476H415.834C414.153 142.476 412.722 143.305 411.7 144.836L391.438 176.779H399.021L403.203 169.76L416.667 169.753L417.02 176.777H424.616L423.344 163.2C418.337 164.091 415.581 163.95 415.581 163.95M192.758 163.95H183.843L192.662 149.425L193.373 161.549C195.458 161.291 197.789 160.721 200.22 159.977L198.574 142.473H193.006C191.325 142.473 189.898 143.302 188.878 144.834L168.618 176.777H176.198L180.38 169.759L193.843 169.752L194.206 176.776H201.795L200.521 163.199C195.513 164.092 192.758 163.95 192.758 163.95ZM99.9161 174.477L104.719 180.029L107.803 176.463L101.705 169.402L98.6236 165.838L95.767 162.495L92.9287 166.269L96.1428 170.003L96.1372 170.01L99.9161 174.477Z" fill="#0F2D53"/>
<path d="M161.511 147.55C157.143 143.264 152.498 141.191 147.708 141.387C143.9 141.544 140.794 143.133 138.697 144.603C138.616 144.657 138.537 144.713 138.46 144.773L138.382 144.829C138.127 145.01 137.878 145.199 137.634 145.396L134.32 141.804C133.509 140.85 132.27 139.317 131.952 138.436C131.709 137.753 131.652 137.054 131.576 136.652C131.3 135.232 131.145 132.874 131.145 132.874C131.145 132.874 131.145 132.311 130.878 131.674L130.549 130.852C130.549 130.852 133.309 129.636 135.285 129.734L136.47 131.182L136.512 129.747V127.669C136.512 127.669 136.384 126.555 135.327 125.712C134.54 125.089 134.179 125.035 133.207 124.89C131.992 124.716 131.77 125.051 130.857 124.199L130.023 122.972L124.862 122.993L122.842 123.746C122.842 123.746 121.729 124.012 120.976 125.907L119.438 130.774C119.438 130.774 119.017 132.385 118.93 134.82C118.836 137.264 118.881 134.906 118.881 134.906C118.881 134.906 118.772 138.55 118.339 139.638L117.505 142.51C116.305 145.368 115.086 146.779 115.06 146.809L110.424 152.18H110.427L109.135 153.68L107.842 152.18L107.863 152.166L105.018 148.904L104.612 148.442H104.608L103.186 146.81C103.158 146.775 101.87 145.288 100.64 142.268L99.8757 139.641C99.4419 138.552 99.3334 134.909 99.3334 134.909C99.3334 134.909 99.3754 137.267 99.2844 134.823C99.1956 132.388 98.7771 130.778 98.7771 130.778L97.2383 125.91C96.4881 124.016 95.374 123.748 95.374 123.748L93.3481 122.995L88.1879 122.974L87.3552 124.201C86.4455 125.052 86.218 124.717 85.0018 124.891C84.0333 125.035 83.6687 125.091 82.8835 125.713C81.8269 126.555 81.6967 127.67 81.6967 127.67V129.749L81.7387 131.184L82.9234 129.737C84.8989 129.639 87.661 130.855 87.661 130.855L87.3286 131.677C87.062 132.316 87.062 132.876 87.062 132.876C87.062 132.876 86.9101 135.235 86.6309 136.655C86.5511 137.057 86.5014 137.754 86.2551 138.438C85.831 139.625 83.7275 141.997 83.2558 142.523L80.6008 145.396C78.5659 143.758 75.0445 141.568 70.5358 141.384C65.7479 141.186 61.0964 143.262 56.7312 147.548L55.3848 148.87L56.3939 150.462C56.5422 150.703 60.1321 156.258 66.568 157.508C70.7416 158.316 75.2846 157.05 79.5953 153.962L76.4588 150.403C73.2517 152.703 70.3469 153.469 67.4995 152.937C64.8109 152.423 62.7703 150.736 61.5618 149.466C64.4575 147.085 67.3882 145.937 70.3021 146.043C75.4035 146.23 78.9822 150.24 79.0144 150.27L86.5735 159.025L89.6505 155.45L83.8688 148.757L90.6288 140.311L93.3873 136.874C94.0332 140.275 97.1256 146.143 98.4489 148.19L90.9416 156.943L87.9437 160.435H87.9402L87.8982 160.491L87.8632 160.526H87.8667L84.6617 164.266C82.9878 166.005 77.16 171.787 70.3273 175.468C70.3273 175.468 72.4693 176.942 75.2874 176.889C76.9781 176.868 78.9123 176.295 80.7849 174.528C81.5491 173.8 82.6638 172.806 83.7548 171.736C83.7548 171.736 83.2439 172.991 84.4616 175.257C85.3993 176.999 87.041 178.032 89.2607 178.118C92.7323 178.246 95.2299 176.421 96.9688 174.335L94.4769 171.58C94.4769 171.58 92.218 174.789 89.4734 172.828C88.4664 171.88 88.5441 170.278 88.5441 170.278C88.5441 170.278 88.5231 169.743 89.0459 168.619C90.9143 165.442 96.0318 158.759 99.0682 154.872L101.409 151.905L104.743 155.757L104.75 155.75L106.063 157.27L106.058 157.277L106.132 157.363L100.287 164.611L102.946 167.588L109.122 160.836L109.136 160.85L109.15 160.836L116.699 169.229L116.692 169.236L119.819 172.75V172.745L120.934 173.933L121.706 174.794C123.424 176.681 125.797 178.234 129.017 178.115C131.241 178.03 132.876 176.997 133.815 175.255C135.036 172.983 134.521 171.733 134.521 171.733C135.616 172.804 136.731 173.798 137.496 174.526C142.468 179.234 147.949 175.468 147.949 175.468C141.115 171.787 135.288 166.007 133.61 164.266L131.791 162.135L127.981 166.409C129.831 168.939 129.737 170.282 129.737 170.282C129.737 170.282 129.815 171.883 128.81 172.831C126.077 174.82 123.659 171.404 123.659 171.404L116.078 162.197L116.036 162.155L112.146 157.355L112.22 157.269L112.213 157.263L115.1 153.922L115.096 153.918L116.839 151.909L117.603 152.875L122.556 159.574L126.039 155.434L120.37 148.825L120.363 148.846L119.807 148.198C121.129 146.147 124.223 140.28 124.865 136.881L127.622 140.317L134.38 148.764L132.995 150.365H132.999L127.316 156.949L122.407 162.631L120.93 164.339L124.016 167.901L126.467 165.067L126.72 164.771L130.401 160.517L132.547 158.031L139.246 150.277C139.274 150.249 142.854 146.239 147.953 146.05C150.866 145.944 153.795 147.093 156.693 149.473C155.489 150.743 153.442 152.43 150.76 152.943C147.91 153.476 144.978 152.689 141.768 150.384L138.71 153.939C143.021 157.027 147.519 158.323 151.686 157.515C158.127 156.265 161.716 150.71 161.863 150.469L162.873 148.877L161.511 147.55ZM113.518 182.924L110.356 186.654L110.713 187.076L110.706 187.08L112.627 189.304C113.636 190.54 116.409 193.738 116.837 197.028C116.837 197.028 119.577 193.256 117.493 187.963C117.496 187.963 117.187 186.569 113.521 182.923" fill="#0F2D53"/>
<path d="M111.017 175.792L106.036 181.554C101.026 186.225 100.641 187.964 100.641 187.964C98.5578 193.262 101.298 197.028 101.298 197.028C101.724 193.742 104.495 190.544 105.506 189.315L107.428 187.084L107.421 187.077L114.305 179.111L114.311 179.117L118.385 174.401L115.341 170.783L111.017 175.792Z" fill="#0F2D53"/>
</svg>
