<svg width="480" height="320" viewBox="0 0 480 320" fill="none" xmlns="http://www.w3.org/2000/svg">
<path d="M119.336 221.258C102.184 220.581 88.8512 218.189 77.6348 213.78C75.1258 212.793 70.1881 210.326 68.039 208.985C62.9909 205.836 58.646 201.647 56.6044 197.962L56.1494 197.141L56.8581 197.962C62.3324 204.306 68.9915 208.242 79.7516 211.495C94.1105 215.836 116.693 217.613 138.307 216.103C149.747 215.304 173.036 212.428 190.21 209.693C217.207 205.394 248.599 198.468 271.678 191.721C272.716 191.417 275.008 190.751 276.769 190.242C287.05 187.268 301.5 182.566 312.604 178.582L316.163 177.305L317.56 178.773C318.328 179.58 319.406 180.567 319.955 180.967C320.504 181.366 320.953 181.736 320.953 181.788C320.953 181.887 315.695 183.927 311.344 185.518C300.649 189.429 284.613 194.725 276.194 197.125C275.11 197.434 273.3 197.957 272.17 198.287C261.344 201.453 244.838 205.567 231.683 208.378C198.429 215.483 163.596 220.144 135.843 221.204C132.106 221.346 122.38 221.378 119.336 221.258L119.336 221.258Z" fill="#E41B47"/>
<path d="M190.784 128.377C185.941 128.376 182.805 129.424 178.885 132.355C177.5 133.39 176.539 134.291 175.385 135.627L174.606 136.526V129.387H165.08V204.615H174.936V191.685C174.936 179.611 174.954 178.781 175.207 179.161C176.283 180.772 179.532 183.097 181.835 183.903C183.218 184.388 186.51 185.038 188.553 185.23C192.935 185.643 198.153 184.603 201.873 182.574C209.761 178.27 214.46 171.348 215.95 161.841C216.358 159.24 216.352 153.311 215.938 150.822C215.175 146.233 213.801 142.332 212.007 139.653C210.039 136.715 206.415 133.278 203.596 131.677C199.626 129.422 195.57 128.377 190.784 128.377H190.784ZM190.837 138.209C191.939 138.158 193.014 138.233 194.053 138.425C195.084 138.616 196.089 138.925 197.049 139.346C198.007 139.766 198.915 140.294 199.755 140.918C200.601 141.545 201.389 142.272 202.104 143.091C202.819 143.91 203.463 144.82 204.024 145.815C204.586 146.808 205.065 147.886 205.45 149.038C205.835 150.19 206.125 151.418 206.311 152.711C206.539 154.301 206.539 157.982 206.311 159.817C206.065 161.79 205.591 163.633 204.914 165.312C204.237 166.991 203.358 168.504 202.306 169.819C201.253 171.134 200.027 172.251 198.654 173.132C197.267 174.023 195.735 174.667 194.128 175.036C193.092 175.274 192.049 175.405 191.01 175.432C189.976 175.46 188.942 175.383 187.924 175.204C186.91 175.025 185.917 174.744 184.96 174.365C183.994 173.982 183.07 173.501 182.202 172.93C181.085 172.196 180.079 171.305 179.214 170.286C178.347 169.264 177.609 168.105 177.003 166.814C176.397 165.524 175.922 164.103 175.585 162.557C175.247 161.012 175.046 159.344 174.984 157.557C174.916 155.63 175.011 153.962 175.296 152.391C175.582 150.821 176.06 149.347 176.758 147.807C177.234 146.756 177.858 145.741 178.599 144.79C179.34 143.84 180.198 142.951 181.135 142.158C182.073 141.365 183.09 140.667 184.157 140.088C185.223 139.51 186.339 139.051 187.467 138.745C188.608 138.435 189.735 138.259 190.837 138.209ZM106.981 184.691C107.112 184.491 107.691 183.647 108.268 182.815C108.845 181.983 110.323 179.84 111.552 178.053C117.197 169.843 122.113 162.717 124.083 159.889C125.267 158.191 126.381 156.551 126.56 156.243L126.885 155.685L126.381 154.978C124.077 151.749 113.017 136.093 110.681 132.755C110.257 132.151 109.831 131.549 109.403 130.948L108.585 129.798L114.445 129.755C118.999 129.721 120.349 129.759 120.499 129.919C120.807 130.251 129.689 143.058 131.205 145.357C132.01 146.577 132.533 147.527 132.463 147.64C132.395 147.751 132.414 147.791 132.507 147.734C132.596 147.678 132.836 147.929 133.04 148.292C133.244 148.654 133.471 148.928 133.546 148.901C133.706 148.842 136.193 145.41 138.163 142.528C141.899 137.061 143.506 134.806 143.598 134.897C143.639 134.938 143.673 134.877 143.673 134.76C143.673 134.644 144.436 133.461 145.368 132.132L147.063 129.716H152.796C157.34 129.716 158.503 129.759 158.404 129.921C158.335 130.034 154.875 135.037 150.716 141.038C141.901 153.755 140.607 155.641 140.607 155.769C140.607 155.821 141.741 157.538 143.127 159.584C144.514 161.631 147.297 165.744 149.312 168.725C151.21 171.533 153.11 174.339 155.012 177.143C156.131 178.792 156.993 180.141 156.926 180.141C156.859 180.141 156.919 180.233 157.06 180.346C157.267 180.513 159.795 184.128 160.215 184.858C160.305 185.014 159.063 185.059 154.601 185.06L148.871 185.061L143.026 176.302C139.811 171.485 136.523 166.701 135.719 165.671C134.916 164.641 134.124 163.592 133.96 163.34C133.796 163.089 133.601 162.904 133.526 162.93C133.452 162.956 132.664 164.048 131.776 165.359C129.21 169.144 127.379 171.814 125.412 174.639C124.405 176.084 123.176 177.858 122.68 178.581L120.001 182.485L118.224 185.075L112.484 185.062L106.743 185.05L106.981 184.687V184.691ZM331.711 184.721C328.365 184.322 324.65 183.313 322.48 182.215L321.79 181.865L327.392 179.745L332.994 177.625L335.254 177.831C340.696 178.326 344.932 177.074 348.008 174.063C348.913 173.176 349.647 171.886 349.804 170.905C349.858 170.568 349.985 170.224 350.087 170.142C350.188 170.059 352.103 169.209 354.34 168.251C356.578 167.294 358.7 166.363 359.056 166.181L359.703 165.851L359.892 166.549C360.136 167.448 359.998 170.218 359.646 171.499C358.842 174.422 357.574 176.655 355.663 178.51C352.322 181.754 348.811 183.451 343.212 184.529C341.631 184.834 333.757 184.965 331.711 184.721ZM386.242 184.797C382.778 184.426 379.625 183.652 377.134 182.562C372.678 180.612 368.094 174.455 366.807 168.693C366.623 167.868 366.091 168.033 371.46 167.25C373.628 166.934 375.56 166.638 375.753 166.593C376.052 166.523 376.122 166.605 376.219 167.125C376.469 168.466 377.862 171.67 378.772 172.997C379.722 174.384 383.954 176.521 387.561 177.436C389.624 177.959 391.294 178.081 393.293 177.854C396.54 177.486 399.077 176.579 400.803 175.172C401.314 174.755 401.782 174.465 401.844 174.527C401.905 174.588 401.931 174.563 401.901 174.471C401.871 174.379 402.121 173.967 402.458 173.556C403.182 172.671 403.864 171.246 404.035 170.257C404.184 169.399 403.597 166.956 402.996 165.934C402.303 164.754 401.233 163.835 399.99 163.352C398.031 162.591 393.143 161.144 389.353 160.203C383.971 158.867 378.302 157.2 377.909 156.836C377.767 156.704 384.314 152.947 384.628 152.98C384.746 152.993 384.813 152.955 384.778 152.897C384.742 152.839 385.648 152.274 386.791 151.641L388.87 150.49L389.774 150.789C390.271 150.953 391.786 151.345 393.141 151.658C399.16 153.052 401.956 153.94 405.447 155.566C408.23 156.862 409.126 157.463 410.563 158.997C412.936 161.53 414.046 164.742 413.868 168.562C413.759 170.909 413.331 172.451 412.068 175.049C411.325 176.579 411.052 176.951 409.659 178.338C407.923 180.067 407.243 180.588 405.284 181.689C402.949 183.002 400.344 183.906 397.165 184.505C395.804 184.761 387.887 184.973 386.242 184.797L386.242 184.797Z" fill="#E41B47"/>
<path d="M84.1682 128.079C81.6173 127.898 78.3449 128.059 75.887 128.485C68.4033 129.784 61.9534 134.616 58.5648 141.461C56.4848 145.663 55.6042 149.538 55.4133 155.339C55.2057 161.651 56.1247 166.662 58.3316 171.238C58.8519 172.316 59.2137 172.887 59.3316 172.815C59.4445 172.745 59.4729 172.774 59.4014 172.889C59.226 173.173 60.8352 175.407 62.411 177.065C66.1452 180.994 71.2947 183.501 77.3052 184.32V184.322C79.2855 184.592 84.1134 184.637 86.4278 184.409C90.3158 184.025 93.7234 183.083 96.6274 181.591C100.456 179.625 103.786 175.985 105.928 171.425C106.685 169.814 107.656 167.325 107.555 167.255C107.53 167.237 105.55 167.019 103.156 166.772C100.762 166.524 98.581 166.286 98.3076 166.24C97.8291 166.161 97.7903 166.2 97.3004 167.303C96.0487 170.12 93.8435 173.175 92.1105 174.488C90.7471 175.521 89.0183 176.307 87.1755 176.731C85.0729 177.214 80.0598 177.253 78.1273 176.8C75.6343 176.216 73.8249 175.312 71.637 173.562C70.329 172.516 69.5233 171.547 68.4711 169.745C67.0631 167.334 65.8781 163.294 65.6105 159.995L65.4999 158.625L86.1755 158.603C97.5478 158.591 107.022 158.564 107.228 158.543C107.434 158.522 107.656 158.452 107.721 158.387C107.965 158.141 107.816 151.532 107.529 149.844C106.444 143.462 104.2 138.775 100.449 135.055C96.1623 130.804 90.9243 128.559 84.1682 128.079V128.079ZM82.839 135.365C84.7891 135.483 86.4365 135.785 87.947 136.329C89.4575 136.874 90.8319 137.66 92.2307 138.75C93.1832 139.492 93.9679 140.304 94.6489 141.274C95.3299 142.243 95.9075 143.37 96.4422 144.745C96.9939 146.164 97.6643 148.981 97.7812 150.37L97.8532 151.233H65.8292L65.9447 150.206C66.1096 148.714 66.4353 147.287 66.9109 145.949C67.3866 144.612 68.0109 143.364 68.7692 142.223C69.5273 141.083 70.4199 140.052 71.4326 139.151C72.4549 138.242 73.593 137.473 74.8172 136.863C76.0096 136.266 77.2801 135.839 78.5913 135.596C79.9175 135.348 81.3219 135.274 82.8388 135.365L82.839 135.365ZM222.567 157.31V130.045H232.258V133.248C232.258 135.009 232.299 136.451 232.35 136.451C232.401 136.451 233.043 135.816 233.777 135.041C235.309 133.422 236.592 132.457 238.435 131.537C242.662 129.426 247.929 129.582 252.666 131.957C253.611 132.431 253.75 132.555 253.611 132.798C253.522 132.955 253.188 133.97 252.87 135.054C251.534 139.603 251.425 139.916 251.197 139.828C250.248 139.464 247.338 138.719 246.281 138.57C242.529 138.039 239.296 139.247 236.404 142.26C234.254 144.499 233.221 146.726 232.653 150.35C232.407 151.919 232.364 154.109 232.303 168.356L232.233 184.576H222.567V157.31ZM277.428 128.084C270.645 128.562 265.827 130.606 261.339 134.911C256.21 139.83 253.736 146.11 253.353 155.175C253.1 161.171 254.178 166.999 256.332 171.295C260.001 178.616 266.609 183.136 275.373 184.319V184.317C278.583 184.751 283.962 184.601 287.445 183.983C290.527 183.435 294.456 181.913 296.618 180.428C297.785 179.626 300.182 177.247 301.248 175.834C302.578 174.069 303.886 171.686 304.764 169.432C305.176 168.378 305.512 167.451 305.512 167.372C305.512 167.293 303.537 167.024 301.12 166.774C298.704 166.524 296.529 166.282 296.291 166.238C295.881 166.161 295.797 166.274 294.767 168.247C292.682 172.242 290.789 174.371 288.214 175.613C285.862 176.747 283.625 177.18 280.12 177.18C276.131 177.18 273.104 176.2 269.952 173.887C267.247 171.902 265.153 168.186 264.125 163.548C263.797 162.07 263.379 158.816 263.5 158.694C263.54 158.655 273.012 158.62 284.548 158.62H305.524L305.7 158.17C305.957 157.518 305.895 153.136 305.594 150.822C304.955 145.909 303.535 141.891 301.188 138.353C299.922 136.446 297.031 133.548 295.147 132.298C290.302 129.082 284.121 127.612 277.428 128.084V128.084ZM279.642 135.377C281.122 135.364 282.624 135.466 283.666 135.687C285.102 135.992 286.454 136.473 287.702 137.12C288.945 137.764 290.091 138.58 291.106 139.545C292.289 140.671 292.805 141.4 293.76 143.295C294.267 144.304 294.677 145.372 295.002 146.538C295.328 147.705 295.569 148.969 295.733 150.37L295.834 151.233H263.769L263.877 150.288C264.086 148.463 264.529 146.742 265.178 145.163C265.827 143.584 266.683 142.147 267.712 140.887C268.741 139.627 269.944 138.545 271.293 137.678C272.643 136.81 274.14 136.159 275.75 135.757C276.705 135.519 278.162 135.39 279.642 135.377ZM315.912 175.583C314.535 173.341 313.273 170.363 312.993 168.691C312.887 168.057 312.909 167.992 313.26 167.914C313.582 167.842 320.868 166.751 321.84 166.629C322.105 166.596 322.209 166.817 322.519 168.069C322.91 169.643 323.515 171.144 324.078 171.935C324.268 172.201 324.37 172.505 324.305 172.61C324.235 172.723 324.258 172.756 324.364 172.691C324.523 172.593 325.342 173.521 325.2 173.639C325.109 173.714 316.816 176.692 316.698 176.692C316.64 176.692 316.287 176.193 315.912 175.583V175.583ZM347.694 164.235C347.576 164.068 347.331 163.856 347.15 163.762C345.929 163.128 338.552 160.862 336.31 160.431C334.227 160.031 328.667 158.609 326.783 157.994C322.675 156.652 320.205 155.285 318.196 153.24C317.212 152.238 316.842 151.699 316.106 150.191C315.123 148.175 314.771 146.908 314.614 144.816C314.358 141.409 315.978 136.832 318.361 134.224C319.286 133.212 321.193 131.901 323.231 130.877C325.769 129.601 329.724 128.642 333.371 128.419C335.384 128.296 339.131 128.415 340.745 128.653C342.376 128.894 344.964 129.457 346.165 129.832C347.922 130.381 350.372 131.524 350.242 131.735C350.184 131.829 350.219 131.852 350.322 131.789C350.634 131.596 352.594 132.969 353.646 134.117C354.879 135.462 355.923 137.12 356.592 138.795C357.208 140.337 358.006 143.307 357.847 143.466C357.784 143.529 355.674 143.808 353.158 144.087L348.583 144.594L348.384 143.684C347.569 139.957 344.229 137.005 339.717 136.022C337.087 135.45 331.693 135.719 329.218 136.547C326.681 137.396 324.818 139.005 324.005 141.05C323.575 142.132 323.587 143.907 324.031 144.745C324.691 145.989 326.3 147.568 327.491 148.139C329.116 148.917 335.354 150.731 341.561 152.23C345.884 153.273 348.11 153.987 350.549 155.111C351.605 155.598 352.533 155.996 352.61 155.996C352.867 155.996 355.058 157.384 355.844 158.045C356.553 158.641 357.745 160.077 357.745 160.336C357.745 160.395 357.43 160.58 357.047 160.747C351.439 163.195 348.274 164.537 348.11 164.537C347.999 164.537 347.812 164.401 347.694 164.235V164.235ZM371.481 152.56C370.315 151.179 369.306 149.262 368.837 147.537C368.454 146.129 368.332 143.456 368.58 141.917C369.02 139.188 370.51 136.048 372.224 134.238C373.267 133.137 374.914 131.961 375.414 131.961C375.542 131.961 375.611 131.924 375.565 131.879C375.44 131.753 377.665 130.567 378.902 130.101C381.921 128.963 385.415 128.382 389.281 128.376C392.42 128.371 394.653 128.587 397.39 129.163C401.864 130.103 405.893 132.153 407.841 134.48C408.225 134.939 408.512 135.34 408.478 135.372C408.269 135.568 406.205 136.702 403.612 138.046L400.615 139.599L400.07 139.262C399.77 139.077 399.382 138.768 399.209 138.576C398.398 137.68 395.773 136.498 393.551 136.027C391.736 135.643 387.551 135.637 385.398 136.016C383.728 136.31 381.837 136.939 380.786 137.551C379.84 138.101 378.561 139.538 378 140.68C377.336 142.033 377.342 143.569 378.017 144.789C378.28 145.265 378.739 145.939 379.037 146.287C379.334 146.635 379.544 146.966 379.502 147.023C379.46 147.08 379.469 147.096 379.522 147.057C379.576 147.019 379.934 147.227 380.317 147.52C380.701 147.813 381.434 148.223 381.945 148.43C382.456 148.638 382.875 148.86 382.875 148.923C382.875 148.987 382.302 149.289 381.602 149.595C380.902 149.901 378.608 150.986 376.505 152.007C374.401 153.027 372.657 153.861 372.629 153.861C372.601 153.861 372.084 153.276 371.48 152.56L371.481 152.56ZM402.247 143.715C402.147 143.232 402.098 142.748 402.14 142.641C402.181 142.533 402.757 142.076 403.42 141.624C404.083 141.173 405.702 140.06 407.017 139.153C408.332 138.245 409.49 137.451 409.59 137.389C409.789 137.266 410.565 138.768 411.015 140.146C411.371 141.236 411.811 143.376 411.702 143.484C411.655 143.532 409.549 143.801 407.023 144.082L402.429 144.593L402.247 143.715H402.247ZM409.297 136.154L408.864 135.368L409.543 134.985C412.41 133.366 418.878 129.4 422.623 126.966C425.995 124.774 425.445 125.255 418.188 130.843C414.482 133.697 410.019 136.947 409.815 136.941C409.768 136.94 409.535 136.585 409.297 136.154ZM80.7066 98.68L69.4037 98.6896L66.7763 101.839C63.9442 105.232 58.853 111.278 56.8052 113.682C56.1092 114.5 55.5788 115.208 55.6274 115.257C55.6757 115.306 57.1703 115.386 58.947 115.437C60.7237 115.488 63.4424 115.543 64.9903 115.56C67.7426 115.589 67.8119 115.582 68.0529 115.221C68.2867 114.87 68.4897 114.624 69.4158 113.579L69.8173 113.127H72.8532C74.5239 113.127 75.8918 113.166 75.8918 113.214C75.8918 113.261 75.669 113.741 75.3966 114.281L74.9014 115.262H87.4975L87.6658 114.565C87.8066 113.98 91.6655 99.8443 91.9255 98.9613C92.0055 98.6894 91.3965 98.6726 80.7066 98.68ZM80.4446 100.706C80.4781 100.74 80.1458 101.682 79.7066 102.8C79.2675 103.918 78.5441 105.774 78.0985 106.925L77.2884 109.019L75.2764 109.021C74.1662 109.022 73.2643 108.953 73.2643 108.87C73.2643 108.787 73.3266 108.696 73.4038 108.666C73.673 108.561 77.8404 103.634 77.7427 103.536C77.6886 103.482 77.7246 103.437 77.8244 103.437C77.9244 103.437 78.5412 102.808 79.1946 102.041C79.8481 101.273 80.4111 100.673 80.4446 100.706ZM283.361 98.6729L281.392 101.014C280.205 102.425 279.016 103.835 277.825 105.242C276.945 106.281 275.17 108.389 273.88 109.925C272.59 111.461 271.053 113.28 270.464 113.971C269.524 115.073 269.433 115.237 269.719 115.312C269.898 115.359 271.35 115.409 272.947 115.42C274.544 115.432 275.887 115.475 275.928 115.517C275.969 115.558 277.267 115.591 278.812 115.591H281.623L282.649 114.358L283.678 113.127H286.712C288.38 113.127 289.745 113.168 289.745 113.219C289.745 113.269 289.526 113.749 289.26 114.286L288.776 115.262H301.365L301.889 113.331C302.177 112.27 302.808 109.961 303.293 108.199C305.097 101.651 305.668 99.5648 305.772 99.1247L305.878 98.6728H294.618L283.361 98.6729ZM294.25 100.824C294.298 100.873 293.906 102.016 293.38 103.365C292.853 104.716 292.328 106.068 291.805 107.42L291.19 109.021H289.236C288.161 109.021 287.281 108.965 287.281 108.896C287.281 108.828 287.449 108.588 287.654 108.363C287.859 108.138 288.47 107.43 289.01 106.791C289.55 106.151 290.877 104.603 291.962 103.351C293.046 102.098 293.985 100.999 294.048 100.906C294.111 100.814 294.202 100.776 294.25 100.824ZM90.8902 115.141C91.1345 114.724 93.356 110.707 93.9112 109.678C94.2767 109 95.1462 107.411 95.8431 106.146C96.7384 104.52 97.6301 102.891 98.5181 101.26L99.9257 98.673H106.715C110.45 98.673 113.505 98.7019 113.505 98.7371C113.505 98.7725 112.234 101.119 110.682 103.952C109.186 106.681 107.692 109.411 106.2 112.141L104.543 115.18L97.6798 115.223C93.9052 115.247 90.8499 115.21 90.8902 115.141V115.141ZM118.351 98.668L114.038 106.855C111.667 111.359 109.728 115.093 109.728 115.154C109.728 115.214 112.776 115.259 116.502 115.257L123.279 115.252L124.834 112.63C125.689 111.187 126.428 110.007 126.476 110.009C126.524 110.011 127.413 111.193 128.452 112.634L130.341 115.255L136.969 115.259L143.599 115.262L142.123 113.661C141.311 112.78 140.304 111.678 139.885 111.211L139.123 110.363L139.659 110.259C141.347 109.935 142.48 109.6 142.942 109.288C143.635 108.822 144.95 106.817 146.214 104.305C147.041 102.66 147.253 102.081 147.31 101.293C147.397 100.086 147.163 99.6788 146.077 99.144L145.288 98.7545L131.82 98.7113L118.351 98.668ZM129.625 103.069L131.214 103.182C132.088 103.244 132.933 103.329 133.091 103.375C133.334 103.444 133.462 103.653 133.497 103.935C133.533 104.217 133.477 104.573 133.348 104.942C133.092 105.68 132.552 106.466 131.901 106.803C131.441 107.041 129.197 107.136 128.615 106.942C128.467 106.893 128.318 106.845 128.168 106.798C127.951 106.73 128.074 106.385 129.098 104.197L129.625 103.069ZM161.231 113.497C161.748 112.526 162.445 111.25 162.779 110.663C163.114 110.076 163.739 108.94 164.168 108.138C165.636 105.395 169.217 98.9197 169.335 98.7944C169.399 98.7256 172.491 98.6886 176.205 98.7123L182.958 98.7554L180.737 102.779C179.515 104.993 178.015 107.727 177.403 108.857C176.79 109.986 176.144 111.168 175.967 111.485C175.79 111.801 175.257 112.78 174.783 113.661L173.921 115.262H160.291L161.231 113.497ZM179.907 114.238C180.219 113.672 182.193 109.938 184.293 105.941L188.112 98.673H201.14L202.779 101.651C203.68 103.288 204.495 104.737 204.591 104.869C204.728 105.059 205.172 104.433 206.705 101.891L208.647 98.673H219.801L219.024 100.11C218.597 100.901 217.494 102.915 216.573 104.586C215.653 106.257 214.582 108.216 214.193 108.939C213.804 109.661 213.213 110.733 212.879 111.32C212.545 111.907 211.924 113.035 211.498 113.825L210.724 115.262H197.29L195.762 112.309C194.921 110.685 194.168 109.376 194.087 109.402C194.006 109.427 193.183 110.737 192.258 112.314L190.577 115.18L184.958 115.223L179.338 115.267L179.907 114.238L179.907 114.238ZM224.95 98.6729L224.517 99.4541C224.28 99.883 223.865 100.64 223.594 101.137C220.776 106.301 216.392 114.307 216.147 114.735L215.836 115.276L230.74 115.228L245.644 115.18L246.623 114.687C247.9 114.043 248.643 113.288 249.906 111.351C251.071 109.564 253.412 105.343 254.618 102.86C255.373 101.306 255.664 100.144 255.228 100.413C255.107 100.489 255.083 100.457 255.163 100.327C255.328 100.061 254.511 99.1946 253.82 98.8987C253.385 98.7125 250.789 98.6726 239.12 98.6728L224.95 98.6729ZM236.555 102.778H237.784C238.962 102.778 239.592 102.95 239.851 103.339C240.013 103.581 240.027 103.914 239.829 104.526C239.632 105.139 239.223 106.031 238.546 107.387C237.759 108.963 237.125 110.35 237.135 110.468C237.144 110.587 237.12 110.651 237.079 110.61C237.039 110.57 236.638 110.676 236.19 110.846C235.6 111.07 234.946 111.156 233.817 111.156C233.072 111.156 232.638 111.138 232.43 111.077C232.223 111.015 232.241 110.911 232.402 110.738C232.481 110.652 233.448 108.826 234.551 106.68L236.555 102.778ZM252.847 115.019C252.898 114.886 254.901 111.209 257.298 106.848C259.694 102.487 261.675 98.8632 261.699 98.7944C261.722 98.7256 264.813 98.6886 268.566 98.7123L275.391 98.7554L274.427 100.48C273.816 101.577 273.211 102.677 272.612 103.78C272.143 104.647 270.54 107.583 269.05 110.305L266.34 115.254L259.547 115.258C253.619 115.262 252.766 115.231 252.847 115.019V115.019Z" fill="#E41B47"/>
</svg>
