<svg width="480" height="320" viewBox="0 0 480 320" fill="none" xmlns="http://www.w3.org/2000/svg">
<path d="M71.6199 160.163L55.3845 183.566H58.3166L62.3347 177.864H71.9457L72.3801 180.525C72.6906 182.631 73.2402 183.565 75.6922 183.565H78.1357L74.2262 160.163L71.6199 160.163ZM85.7375 162.063L80.9049 183.566H86.1176L90.9502 162.063H85.7375ZM95.0769 162.063L96.1085 163.909L91.7102 183.566H96.9229L101.267 164.018H102.896C105.895 164.018 107.146 165.764 106.914 168.362C106.721 170.688 105.003 173.238 99.7464 173.792L103.982 181.231C105.072 183.125 105.552 183.566 108.434 183.566H111.204L105.393 174.443C108.508 173.966 111.901 172.011 112.29 168.525C112.757 164.526 109.881 162.063 105.013 162.063L95.0769 162.063ZM126.679 162.063L128.036 164.561L123.801 183.566H126.516L130.099 167.765L138.19 181.231C139.08 182.749 139.878 183.566 142.371 183.566L147.204 162.063H144.489L141.122 176.941L133.792 164.344C132.736 162.524 132.195 162.063 129.936 162.063H126.679ZM152.036 162.063L147.203 183.566H163.819C163.508 182.084 162.848 181.502 160.941 181.502H152.959L154.751 173.575H162.95L163.439 171.403H155.185L156.814 164.126H164.416C166.323 164.126 166.981 163.542 167.294 162.063H152.036ZM169.194 162.063L172.507 183.566H175.004L182.443 170.751L184.235 183.566H186.733L199.656 162.063H196.887L187.927 177.104L186.19 162.986C186.114 162.324 185.551 162.063 184.887 162.063H181.303L182.009 167.167L176.362 177.104L174.244 162.986C174.164 162.324 173.604 162.063 172.941 162.063L169.194 162.063ZM210.733 162.063C211.044 163.544 211.699 164.126 213.611 164.126H223.276L207.964 179.547C206.641 180.887 205.761 181.752 205.683 183.566H225.556C225.246 182.095 224.609 181.509 222.733 181.502H212.633L227.403 166.298C229.268 164.3 229.69 163.282 229.846 162.063H210.733ZM233.864 162.063L229.086 183.566H245.647C245.33 182.084 244.676 181.502 242.769 181.502H234.787L236.579 173.575H244.778L245.267 171.403H237.014L238.642 164.126H246.244C248.153 164.126 248.812 163.544 249.122 162.063H233.864ZM261.502 162.063L246.95 183.566H249.882L253.738 177.864H262.48L263.023 180.525C263.494 182.608 263.989 183.566 266.443 183.566H268.941L264.109 162.063H261.502ZM276.543 162.063L271.71 183.566H286.154C285.843 182.086 285.129 181.502 283.222 181.502H277.412L281.755 162.063H276.543ZM301.955 162.063L287.457 183.566H290.335L294.19 177.864H302.932L303.529 180.525C303.994 182.608 304.496 183.566 306.95 183.566H309.448L304.561 162.063H301.955ZM315.095 162.063L316.507 164.561L312.217 183.566H314.986L318.516 167.765L326.606 181.231C327.508 182.749 328.346 183.566 330.842 183.566L335.62 162.063H332.905L329.593 176.941L322.208 164.344C321.159 162.524 320.612 162.063 318.353 162.063H315.095ZM339.801 162.063L340.778 163.909L336.38 183.566H344.308C351.395 183.566 358.004 179.63 359.131 172.814C360.258 166.077 355.406 162.063 348.543 162.063H341.213H339.801ZM345.991 164.072H347.403C352.344 164.072 354.611 167.33 353.756 172.814C352.893 178.368 348.434 181.611 343.493 181.611H342.027L345.991 164.072ZM70.208 166.679L71.6197 175.638H63.9095L70.208 166.679ZM260.253 168.09L261.937 175.638H255.204L260.253 168.09ZM300.76 168.09L302.443 175.638H295.71L300.76 168.09ZM402.461 131.276C395.95 131.276 389.923 135.902 386.498 139.258C374.313 151.143 367.873 159.185 367.873 159.185H422.172L424.615 153.756H380.796C380.796 153.756 384.104 149.225 391.222 142.516C393.009 140.843 397.69 136.651 402.461 136.651C405.595 136.651 408.054 138.61 408.054 141.267C408.054 143.895 405.828 144.633 405.828 144.633C406.06 143.511 405.307 140.452 402.353 140.452C399.29 140.452 398.009 142.789 398.009 144.362C398.009 147.594 400.95 149.9 404.362 149.9C410.923 149.9 413.973 145.235 413.973 140.724C413.973 136.171 409.536 131.276 402.461 131.276ZM366.95 162.009C366.95 162.009 369.8 170.204 373.575 178.027C376.774 184.693 382.08 188.724 388.561 188.724C394.651 188.724 398.769 184.091 398.769 179.656C398.769 174.637 394.951 171.348 390.407 171.348C385.562 171.348 384.543 174.991 384.543 175.909C384.543 178.027 386.315 179.982 388.561 179.982C392.097 179.982 392.362 177.158 392.362 177.158C392.362 177.158 393.448 177.853 393.448 179.656C393.448 181.389 391.98 183.62 388.561 183.62C385.833 183.62 381.824 182.182 379.059 176.344C375.807 169.509 375.584 167.493 375.584 167.493H418.425L420.869 162.009H366.95Z" fill="#231F20"/>
</svg>
