<svg width="480" height="320" viewBox="0 0 480 320" fill="none" xmlns="http://www.w3.org/2000/svg">
<path fill-rule="evenodd" clip-rule="evenodd" d="M110.741 89.0012C137.259 89.0012 158.749 110.494 158.749 137.009C158.749 147.678 143.147 126.166 134.054 127.002C120.559 128.241 114.22 145.704 114.22 145.704C114.22 145.704 111.334 147.182 75.4916 169.651C67.3039 158.201 62.7347 150.131 62.7347 137.01C62.7347 110.494 84.2259 89.0026 110.742 89.0026L110.741 89.0012Z" fill="#377E39"/>
<path fill-rule="evenodd" clip-rule="evenodd" d="M157.703 124.831L200.495 99.7852L415.836 109.877L396.345 121.007L249.548 139.445L361.566 139.79L281.547 184.323C281.547 184.323 148.115 185.777 129.355 184.323C109.177 182.753 95.0901 162.75 95.0901 162.75L157.703 124.831Z" fill="#377E39"/>
<path fill-rule="evenodd" clip-rule="evenodd" d="M134.392 112.309H134.406C148.044 112.314 159.095 123.372 159.095 137.009C159.095 150.65 148.04 161.707 134.396 161.707C120.756 161.707 109.699 150.65 109.699 137.009C109.699 123.372 120.752 112.314 134.39 112.309H134.392Z" fill="white"/>
<path fill-rule="evenodd" clip-rule="evenodd" d="M402.216 227.451H387.828L384.702 218.228C384.292 217.045 383.941 215.843 383.651 214.625C383.377 213.468 383.166 212.296 383.02 211.116H382.581C382.423 212.546 382.178 213.965 381.846 215.365C381.431 217.107 380.946 218.831 380.394 220.534L378.177 227.451H365.337L373.657 201.505H389.971L392.126 208.186C392.406 209.03 392.67 210.032 392.927 211.19C393.177 212.349 393.441 213.707 393.698 215.263H394.167C394.284 214.008 394.511 212.657 394.849 211.195C395.188 209.738 395.65 208.091 396.236 206.259L397.761 201.505H410.544L402.216 227.451ZM350.185 210.982C349.509 210.149 348.233 209.727 346.354 209.727C344.498 209.727 342.964 210.138 341.768 210.951C340.565 211.77 339.706 212.981 339.192 214.595C338.576 216.488 338.59 217.904 339.229 218.855C339.868 219.801 341.107 220.272 342.971 220.272C344.836 220.272 346.389 219.805 347.652 218.866C348.908 217.923 349.831 216.532 350.412 214.695C350.949 213.047 350.874 211.814 350.186 210.981L350.185 210.982ZM364.427 213.513C362.783 218.656 360.039 222.403 356.224 224.752C352.401 227.095 347.132 228.273 340.402 228.273C333.696 228.273 329.191 227.103 326.88 224.759C324.568 222.42 324.246 218.667 325.904 213.513C327.321 209.081 329.901 205.848 333.645 203.802C337.38 201.754 342.582 200.731 349.238 200.731C355.936 200.731 360.494 201.754 362.923 203.802C365.352 205.848 365.851 209.081 364.427 213.513ZM309.232 208.581C308.786 208.287 307.925 208.142 306.664 208.142H299.715L298.402 212.229H305.153C306.363 212.229 307.346 212.046 308.102 211.674C308.851 211.307 309.349 210.76 309.576 210.032C309.797 209.355 309.68 208.879 309.232 208.581ZM295.461 221.406H302.055C303.694 221.406 304.917 221.236 305.718 220.894C306.517 220.554 307.045 219.996 307.295 219.211C307.514 218.527 307.339 218.022 306.773 217.684C306.208 217.349 305.233 217.177 303.853 217.177H296.817L295.461 221.406ZM323.256 207.864C322.572 209.988 321.302 211.578 319.446 212.636C317.582 213.693 315.007 214.303 311.705 214.457C315.123 214.574 317.472 215.121 318.749 216.109C320.018 217.101 320.328 218.612 319.681 220.644C318.896 223.081 317.363 224.825 315.074 225.873C312.784 226.931 309.358 227.451 304.8 227.451H279.69L288.012 201.505H314.083C318.294 201.505 321.061 201.978 322.388 202.922C323.716 203.864 324.01 205.515 323.256 207.864ZM261.949 205.595C261.5 206.537 261.001 207.474 260.466 208.399C259.917 209.344 259.342 210.274 258.741 211.187L254.787 217.047H262.079L261.926 211.066C261.892 210.11 261.906 209.154 261.97 208.2C262.035 207.28 262.152 206.409 262.315 205.595H261.947H261.949ZM261.44 227.451L261.647 223.312H251.22L248.6 227.451H234.253L252.996 201.505H274.158L276.271 227.451H261.44ZM233.952 210.912C231.965 210.598 229.969 210.337 227.968 210.131C226.371 209.969 224.768 209.882 223.163 209.871C220.078 209.871 217.741 210.303 216.147 211.169C214.56 212.039 213.428 213.498 212.772 215.557C212.121 217.588 212.081 219.017 212.667 219.845C213.246 220.674 214.549 221.089 216.587 221.089C216.916 221.089 217.173 221.089 217.354 221.082C217.536 221.074 217.704 221.063 217.856 221.057L219.902 214.687H233.141L229.568 225.819C226.934 226.617 224.244 227.219 221.522 227.62C218.782 228.016 215.992 228.222 213.166 228.222C206.478 228.222 201.968 227.092 199.635 224.824C197.299 222.553 196.929 218.954 198.508 214.023C200.005 209.376 202.533 206.006 206.112 203.916C209.686 201.823 214.695 200.778 221.144 200.778C223.988 200.778 226.695 200.929 229.263 201.232C231.831 201.53 234.284 201.989 236.619 202.602L233.952 210.912ZM161.838 208.902C161.162 208.544 159.715 208.369 157.494 208.369H154.168L152.49 213.595H155.449C157.684 213.595 159.321 213.373 160.364 212.94C161.41 212.508 162.095 211.777 162.424 210.751C162.703 209.871 162.508 209.258 161.839 208.902H161.838ZM177.356 208.758C176.57 211.212 175.106 213.091 172.976 214.393C170.843 215.7 168.075 216.414 164.672 216.54L173.003 227.451H156.434L152.781 221.44C152.435 220.845 152.13 220.228 151.87 219.591C151.616 218.955 151.404 218.307 151.24 217.636H150.921C150.826 218.236 150.688 218.879 150.512 219.554C150.338 220.229 150.043 221.221 149.626 222.516L148.044 227.449H133.879L142.209 201.504H167.223C171.541 201.504 174.511 202.083 176.135 203.249C177.754 204.412 178.161 206.246 177.357 208.758H177.356ZM126.775 227.451H112.224L120.547 201.505H135.105L126.775 227.451ZM94.3458 205.595C93.8967 206.537 93.3995 207.474 92.8713 208.399C92.3193 209.342 91.7448 210.272 91.1482 211.187L87.192 217.047H94.4857L94.3275 211.066C94.2942 210.11 94.3116 209.153 94.3797 208.2C94.4447 207.28 94.5577 206.409 94.723 205.595H94.3473H94.3458ZM93.8374 227.451L94.0521 223.312H83.6158L81.0029 227.451H66.6528L85.3954 201.505H106.565L108.676 227.451H93.8374Z" fill="#120C80"/>
<path fill-rule="evenodd" clip-rule="evenodd" d="M134.462 131.097C135.955 131.097 137.387 131.691 138.442 132.746C139.498 133.802 140.091 135.234 140.092 136.727C140.052 138.193 139.441 139.587 138.389 140.61C137.337 141.634 135.928 142.206 134.46 142.206C132.993 142.206 131.583 141.634 130.531 140.61C129.48 139.587 128.868 138.193 128.828 136.727C128.829 135.987 128.975 135.254 129.258 134.571C129.541 133.888 129.957 133.267 130.48 132.744C131.003 132.222 131.624 131.807 132.308 131.524C132.992 131.242 133.724 131.096 134.464 131.097H134.462Z" fill="#377E39"/>
</svg>
