<svg width="480" height="320" viewBox="0 0 480 320" fill="none" xmlns="http://www.w3.org/2000/svg">
<path d="M96.7205 128.766C99.3924 128.33 103.097 128.798 104.042 131.801C104.565 130.758 105.273 129.725 106.4 129.279C107.98 128.484 109.776 128.641 111.479 128.773C109.818 130.189 109.131 132.341 108.632 134.392C107.75 138.156 107.527 142.028 106.951 145.844C106.784 146.674 106.662 147.546 106.219 148.282C105.838 148.791 105.19 148.976 104.659 149.283C104.691 153.486 104.659 157.693 104.677 161.9C105.214 162.374 105.741 162.855 106.274 163.34C107.642 157.02 109.037 150.699 110.784 144.47C111.684 140.88 112.797 137.34 114.192 133.911C114.778 132.411 116.086 131.117 117.747 130.957C120.701 130.563 123.446 132.129 125.85 133.656C124.779 133.908 123.659 134.162 122.804 134.895C121.58 135.927 120.795 137.364 120.098 138.78C118.716 141.717 117.384 144.675 116.01 147.616C115.452 148.638 114.946 149.855 113.823 150.371C112.713 150.357 111.667 149.897 110.586 149.684C109.431 154.561 108.228 159.437 107.3 164.362C107.345 165.112 107.729 166.221 108.549 166.385C113.84 157.006 119.027 147.424 126.143 139.265C127.269 137.87 129.142 137.043 130.928 137.504C133.935 138.153 136.031 140.643 137.796 142.984C135.529 142.781 133.213 143.462 131.493 144.965C128.692 147.389 126.265 150.214 123.464 152.635C122.714 153.207 121.891 153.915 120.896 153.88C119.962 153.629 119.198 152.998 118.326 152.6C117.883 152.262 117.667 152.991 117.45 153.239C114.496 158.014 111.848 162.96 109.096 167.85C109.497 168.694 109.923 169.528 110.38 170.348C116.069 163.93 121.96 157.62 128.776 152.374C130.897 150.727 133.14 149.227 135.508 147.965C137.911 146.639 141.152 147.166 143.018 149.175C144.563 150.919 145.508 153.106 146.349 155.258C144.329 154.362 142.024 154.02 139.882 154.683C136.279 155.743 133.084 157.819 129.578 159.134C128.762 159.399 127.827 159.65 127.011 159.263C126.163 158.701 125.508 157.906 124.765 157.222C120.593 160.902 116.784 164.959 113.066 169.089C112.41 169.845 111.66 170.536 111.13 171.394C111.168 172.489 111.862 173.442 112.274 174.432C120.331 168.321 128.741 162.182 138.616 159.406C141.42 158.694 144.605 158.056 147.266 159.566C148.976 160.48 149.91 162.294 150.364 164.108C150.793 165.576 151.114 167.076 151.288 168.597C147.866 165.716 143.119 165.963 138.968 166.602C136.67 166.811 134.218 167.711 131.975 166.804C131.228 165.967 130.799 164.903 130.231 163.947C123.994 167.121 118.284 171.234 112.811 175.576C113.198 176.703 113.638 177.812 114.137 178.897C122.522 174.478 131.448 170.323 141.082 169.912C144.473 169.894 148.313 170.212 150.842 172.748C153.186 175.276 152.767 178.998 152.401 182.144C151.62 181.028 150.779 179.895 149.558 179.225C146.133 177.268 142.108 176.968 138.267 176.581C137.067 176.375 135.731 176.347 134.72 175.59C133.984 174.596 133.984 173.274 133.579 172.137C126.879 173.787 120.607 176.755 114.573 180.041C114.723 180.938 115.141 181.848 114.953 182.765C114.325 183.864 113.345 184.701 112.497 185.626C110.289 187.778 107.991 189.979 105.113 191.203C103.289 191.852 101.604 190.516 100.16 189.578C97.746 187.725 95.5136 185.615 93.5498 183.292C92.7266 182.35 93.4522 181.095 93.6161 180.045C87.5294 176.815 81.2578 173.672 74.4874 172.193C74.1351 173.634 74.1979 175.841 72.3143 176.148C68.4983 177 64.4661 176.766 60.7757 178.224C58.7193 178.862 56.9604 180.217 55.8191 182.043C55.1599 179.853 55.3133 177.509 55.861 175.311C56.576 172.786 58.927 171.094 61.3861 170.491C65.6904 169.427 70.204 169.964 74.4734 170.944C81.3938 172.51 87.8014 175.664 94.0695 178.894C94.5191 177.79 94.9563 176.682 95.3811 175.569C89.8664 171.276 84.2017 167.083 77.9266 163.958C77.3616 164.896 76.9674 165.96 76.2245 166.779C74.8746 167.442 73.3154 167.17 71.8818 166.999C68.4774 166.528 64.9998 165.817 61.564 166.434C59.8234 166.724 58.2329 167.564 56.8481 168.639C57.1516 166.549 57.605 164.477 58.3445 162.496C59.1468 160.449 61.1594 159.032 63.3115 158.743C65.9137 158.373 68.5053 159.12 70.9853 159.831C80.2358 162.81 88.2514 168.537 95.838 174.457C96.2845 173.529 96.8007 172.632 97.1147 171.649C97.0798 171.223 96.717 170.93 96.4763 170.606C92.336 165.967 88.0665 161.429 83.4657 157.236C82.2798 158.167 81.2543 159.939 79.4858 159.378C75.3489 158.192 71.7876 155.457 67.5565 154.522C65.6311 154.062 63.629 154.484 61.8465 155.262C62.5407 153.287 63.4476 151.373 64.6893 149.681C66.3706 147.445 69.6354 146.59 72.1887 147.745C73.9119 148.519 75.4641 149.604 77.0337 150.637C84.854 156.179 91.4465 163.215 97.7983 170.337C98.2483 169.525 98.6738 168.698 99.0505 167.85C96.1415 162.674 93.4033 157.389 90.1524 152.412C88.8444 152.981 87.4352 154.529 85.9632 153.521C83.8459 152.227 82.2903 150.235 80.473 148.575C78.401 146.664 76.5768 144.232 73.7793 143.346C72.6736 142.928 71.4807 142.973 70.3191 142.998C72.3492 140.458 74.7664 137.458 78.3138 137.392C80.4974 137.284 81.9484 139.108 83.2006 140.622C89.7304 148.575 94.7148 157.627 99.7063 166.584C100.149 165.97 100.728 165.395 100.913 164.641C100.003 159.629 98.7436 154.683 97.61 149.712C96.5461 149.901 95.5171 150.305 94.4358 150.368C93.3894 150.106 92.9464 148.98 92.4371 148.146C90.6966 144.616 89.1862 140.974 87.3864 137.472C86.3992 135.54 84.6587 133.925 82.4298 133.674C84.554 132.094 87.1422 130.859 89.8385 130.89C91.6453 130.869 93.2359 132.129 93.9196 133.751C95.3148 137.162 96.438 140.681 97.3274 144.257C99.0784 150.56 100.55 156.94 101.89 163.34C102.427 162.869 103.027 162.447 103.453 161.865C103.568 157.675 103.428 153.483 103.522 149.294C102.88 148.92 102.054 148.659 101.754 147.909C101.457 147.211 101.325 146.461 101.192 145.718C100.652 141.941 100.404 138.111 99.5424 134.385C99.061 132.331 98.3146 130.228 96.7205 128.766Z" fill="#7E1D2E"/>
<path d="M296.568 156.106C298.099 156.043 299.637 156.057 301.175 156.071C299.613 164.059 297.628 171.963 296.25 179.985C294.827 180.093 293.397 180.083 291.977 179.992C292.089 179.089 292.232 178.189 292.403 177.293C291.168 178.789 289.522 180.1 287.533 180.313C285.999 180.449 284.286 180.355 283.051 179.323C281.454 178.137 281.021 175.988 281.098 174.104C281.234 170.878 282.305 167.55 284.656 165.252C286.585 163.403 289.508 162.461 292.092 163.358C293.222 163.734 293.972 164.711 294.558 165.695C295.193 162.493 295.94 159.311 296.568 156.106ZM289.856 166.295C288.569 166.765 287.648 167.889 287.087 169.102C286.274 170.847 285.863 172.8 286.013 174.722C286.089 175.737 286.665 176.864 287.711 177.153C288.657 177.313 289.741 177.32 290.54 176.707C292.089 175.548 292.881 173.665 293.327 171.841C293.648 170.313 293.878 168.6 293.121 167.163C292.473 166.054 290.969 165.942 289.856 166.295ZM204.234 160.229C204.402 158.984 204.656 157.756 204.925 156.528C206.456 156.528 207.984 156.51 209.515 156.549C209.365 157.749 209.132 158.931 208.891 160.114C207.346 160.33 205.786 160.239 204.234 160.229ZM188.022 157.874C190.177 157.836 192.333 157.836 194.488 157.85C195.772 165.227 197.028 172.608 198.186 180.006C196.515 180.087 194.841 180.107 193.173 179.968C192.978 178.154 192.727 176.347 192.504 174.537C189.378 174.478 186.25 174.45 183.124 174.54C182.137 176.368 181.073 178.154 180.069 179.971C178.408 180.128 176.741 180.104 175.084 179.982C179.294 172.556 183.749 165.266 188.022 157.874ZM188.538 164.718C187.39 166.867 185.96 168.869 185.008 171.119C187.338 171.14 189.671 171.115 192.001 171.129C191.796 167.833 191.245 164.558 190.648 161.314C189.783 162.343 189.19 163.553 188.538 164.718ZM234.811 157.878C237.256 157.805 239.705 157.857 242.15 157.85C242.847 163.41 243.451 168.984 244.236 174.533C247.466 169.047 250.35 163.365 253.518 157.843C255.931 157.85 258.349 157.832 260.762 157.86C259.378 165.269 257.613 172.608 256.13 180.003C254.637 180.087 253.137 180.08 251.644 179.982C252.813 173.797 254.372 167.686 255.481 161.488C251.93 167.55 248.676 173.784 245.205 179.888C243.796 180.254 242.31 180.024 240.877 179.992C239.977 173.839 239.349 167.648 238.449 161.495C236.876 167.599 235.77 173.825 234.42 179.985C232.98 180.087 231.532 180.087 230.091 179.978C231.668 172.612 233.231 165.245 234.811 157.878ZM218.804 163.567C219.885 162.918 221.193 162.981 222.404 163.051C222.201 164.397 221.832 165.709 221.518 167.031C220.171 167.142 218.685 167.051 217.531 167.864C216.08 169.001 215.208 170.731 214.8 172.5C214.221 174.983 213.722 177.488 213.206 179.985C211.667 180.111 210.119 180.09 208.58 179.996C209.63 174.439 211.012 168.949 212.006 163.379C213.439 163.358 214.873 163.361 216.307 163.399C216.115 164.411 215.93 165.423 215.755 166.438C216.596 165.314 217.517 164.195 218.804 163.567ZM266.95 164.969C270.749 162.639 275.489 162.594 279.703 163.665C278.789 169.123 276.982 174.439 276.661 179.992C275.109 180.08 273.56 180.09 272.011 180.031C272.126 178.754 272.346 177.491 272.542 176.225C271.523 177.722 270.379 179.309 268.593 179.93C266.668 180.627 264.243 180.613 262.642 179.183C261.495 178.196 261.115 176.612 261.052 175.165C260.947 171.004 263.396 167.045 266.95 164.969ZM266.033 173.431C265.953 174.697 265.764 176.445 267.159 177.097C268.506 177.547 269.992 176.937 270.888 175.894C273.319 173.271 273.818 169.594 274.607 166.253C270.267 165.248 266.5 169.406 266.033 173.431ZM306.306 165.28C310.178 162.65 315.204 162.479 319.599 163.727C318.532 169.137 316.879 174.46 316.485 179.982C314.922 180.097 313.352 180.093 311.793 179.968C311.985 178.726 312.177 177.484 312.365 176.239C311.319 177.906 309.941 179.549 307.963 180.08C306.268 180.519 304.276 180.543 302.804 179.473C301.468 178.485 300.903 176.766 300.924 175.161C300.771 171.199 303.007 167.39 306.306 165.28ZM306.006 175.974C306.244 176.93 307.273 177.327 308.176 177.226C309.815 177.212 310.935 175.796 311.755 174.547C313.262 171.994 313.959 169.026 314.336 166.113C309.09 165.335 304.88 171.122 306.006 175.974ZM326.876 164.892C330.618 162.65 335.233 162.67 339.363 163.679C338.718 166.999 337.891 170.281 337.197 173.592C336.471 176.759 335.969 180.041 334.466 182.961C333.35 185.217 331.089 186.798 328.627 187.234C325.459 187.792 322.149 187.673 319.076 186.686C319.303 185.619 319.617 184.572 319.91 183.519C322.693 184.461 326.018 185.127 328.668 183.47C330.838 182.047 331.218 179.298 331.85 176.989C330.713 178.402 329.223 179.717 327.343 179.902C325.62 180.097 323.618 180.125 322.257 178.876C320.709 177.579 320.499 175.343 320.803 173.47C321.27 169.828 323.681 166.629 326.876 164.892ZM325.662 173.787C325.644 174.879 325.452 176.351 326.537 177.02C328.023 177.634 329.771 176.958 330.744 175.74C333.022 173.114 333.44 169.507 334.27 166.263C329.816 165.276 325.913 169.598 325.662 173.787ZM344.103 166.786C346.496 164.442 349.817 163.117 353.151 163.002C355.206 162.922 357.253 163.211 359.256 163.647C358.275 169.096 356.531 174.418 356.183 179.968C354.616 180.066 353.047 180.107 351.484 179.992C351.645 178.73 351.854 177.474 352.112 176.229C350.996 177.952 349.52 179.644 347.448 180.16C345.746 180.505 343.768 180.495 342.352 179.351C341.097 178.367 340.633 176.703 340.587 175.172C340.559 172.06 341.812 168.911 344.103 166.786ZM345.519 174.816C345.411 175.89 346.074 177.181 347.27 177.209C348.955 177.498 350.309 176.19 351.198 174.924C352.942 172.322 353.532 169.162 354.069 166.134C349.245 165.377 345.219 170.257 345.519 174.816ZM367.61 163.145C369.988 162.796 372.434 163.023 374.722 163.745C374.418 164.704 374.094 165.653 373.756 166.602C371.722 165.876 369.375 165.318 367.31 166.232C366.274 166.605 365.719 168.206 366.786 168.869C368.611 170.229 371.024 170.742 372.556 172.517C373.313 173.382 373.34 174.614 373.194 175.695C372.842 177.659 371.164 179.159 369.305 179.71C366.204 180.7 362.793 180.547 359.706 179.591C359.915 178.552 360.194 177.53 360.532 176.529C362.779 177.53 365.506 178.095 367.791 176.888C368.757 176.365 369.176 174.799 368.168 174.108C366.354 172.744 363.93 172.259 362.426 170.47C361.286 168.872 361.662 166.49 363.082 165.185C364.278 163.968 365.97 163.441 367.61 163.145ZM379.117 165.869C382.249 162.859 387.122 162.377 391.123 163.696C390.955 164.714 390.743 165.726 390.565 166.745C388.779 166.197 386.811 165.813 385.008 166.476C382.493 167.467 380.885 170.086 380.711 172.727C380.484 174.45 381.36 176.434 383.079 177.031C384.851 177.701 386.745 177.052 388.493 176.605C388.315 177.599 388.256 178.622 387.938 179.584C387.401 180.08 386.567 180.041 385.887 180.188C383.327 180.428 380.442 180.669 378.259 179.04C376.619 177.99 375.838 176.016 375.803 174.132C375.768 171.098 376.829 167.941 379.117 165.869ZM396.742 165.046C400.572 162.625 405.386 162.576 409.659 163.679C408.731 169.13 406.903 174.443 406.617 179.992C405.058 180.107 403.499 180.08 401.943 179.961C402.103 178.81 402.246 177.655 402.344 176.494C401.266 178.088 399.878 179.619 397.949 180.128C396.114 180.561 393.91 180.477 392.48 179.099C391.158 177.833 390.893 175.866 391.046 174.125C391.276 170.39 393.585 166.982 396.742 165.046ZM401.322 166.41C398.252 167.491 396.268 170.616 395.926 173.763C395.814 174.928 395.867 176.372 396.976 177.069C398.406 177.554 399.993 176.965 400.928 175.817C403.213 173.149 403.914 169.552 404.447 166.179C403.401 166.12 402.316 166.019 401.322 166.41ZM421.522 163.302C422.505 162.908 423.58 163.03 424.615 163.086C424.322 164.463 423.946 165.82 423.576 167.181C422.303 167.191 420.88 167.006 419.795 167.822C418.201 168.911 417.339 170.742 416.91 172.573C416.335 175.043 415.906 177.544 415.288 180.003C413.764 180.087 412.236 180.107 410.715 180.006C411.734 174.453 413.181 168.984 414.099 163.41C415.525 163.344 416.956 163.361 418.386 163.386C418.26 164.296 418.135 165.21 418.051 166.127C419.055 165.032 420.025 163.738 421.522 163.302ZM203.578 163.351C205.096 163.344 206.61 163.344 208.127 163.365C207.105 168.932 205.804 174.446 204.667 179.989C203.129 180.087 201.59 180.087 200.056 179.985C201.203 174.432 202.347 168.883 203.578 163.351Z" fill="#29812F"/>
</svg>
