<svg width="480" height="320" viewBox="0 0 480 320" fill="none" xmlns="http://www.w3.org/2000/svg">
<path d="M94.4331 193.626H82.5484V189.904H82.4185C80.327 193.236 76.2135 194.738 72.2959 194.738C62.371 194.738 55.3848 186.444 55.3848 176.848C55.3848 167.245 62.2411 159.02 72.1679 159.02C76.0196 159.02 80.0672 160.457 82.5503 163.393V160.129H94.435V193.626H94.4331ZM67.661 176.91C67.661 181.154 70.4698 184.42 75.3024 184.42C80.1331 184.42 82.9419 181.156 82.9419 176.91C82.9419 172.797 80.1331 169.333 75.3024 169.333C70.4679 169.333 67.661 172.797 67.661 176.91ZM114.931 147.265C114.931 150.923 111.928 153.924 108.27 153.924C104.612 153.924 101.609 150.923 101.609 147.265C101.609 143.606 104.612 140.605 108.27 140.605C111.928 140.605 114.931 143.606 114.931 147.265ZM114.213 193.626H102.329V160.129H114.213V193.626ZM133.931 165.613H134.063C136.347 161.5 140.264 159.672 144.901 159.672H147.187V171.099C145.554 170.184 143.986 169.99 142.158 169.99C135.564 169.99 133.931 174.363 133.931 180.109V193.624H122.049V160.129H133.931V165.613ZM185.904 139.43V164.374H186.033C188.776 160.716 192.105 159.02 196.741 159.02C205.23 159.02 209.342 164.634 209.342 173.123V193.626H197.457V176.453C197.457 172.535 196.869 168.488 192.103 168.488C187.402 168.488 185.902 172.535 185.902 176.453V193.626H174.017V139.43H185.904ZM255.052 176.91C255.052 188.272 245.647 194.738 234.875 194.738C224.165 194.738 214.696 188.341 214.696 176.91C214.696 165.483 224.099 159.02 234.875 159.02C245.647 159.02 255.052 165.485 255.052 176.91ZM227.233 176.91C227.233 181.154 230.042 184.42 234.875 184.42C239.706 184.42 242.511 181.156 242.511 176.91C242.511 172.797 239.706 169.333 234.875 169.333C230.042 169.333 227.233 172.797 227.233 176.91Z" fill="black"/>
<path d="M268.588 176.325L258.29 170.394L285.333 123.422L295.633 129.354L268.588 176.325Z" fill="#F15A24"/>
<path d="M276.124 196.577L265.826 190.645L292.867 143.675L303.169 149.605L276.124 196.577Z" fill="#2F3C61"/>
<path d="M336.468 193.626H324.585V189.904H324.455C322.366 193.236 318.252 194.738 314.338 194.738C304.408 194.738 297.423 186.444 297.423 176.848C297.423 167.245 304.276 159.02 314.203 159.02C318.06 159.02 322.106 160.457 324.587 163.393V160.129H336.47V193.626H336.468ZM309.696 176.91C309.696 181.154 312.503 184.42 317.339 184.42C322.17 184.42 324.977 181.156 324.977 176.91C324.977 172.797 322.172 169.333 317.339 169.333C312.503 169.333 309.696 172.797 309.696 176.91ZM356.254 164.438H356.38C359.121 160.391 362.449 159.02 367.088 159.02C376.1 159.02 379.692 164.702 379.692 172.927V193.626H367.809V177.302C367.809 174.102 368.329 168.486 362.447 168.486C357.622 168.486 356.252 172.08 356.252 176.255V193.624H344.365V160.129H356.252V164.438H356.254ZM412.729 189.904H412.599C410.508 193.236 406.396 194.738 402.478 194.738C392.553 194.738 385.565 186.444 385.565 176.848C385.565 167.245 392.424 159.02 402.349 159.02C406.202 159.02 410.252 160.457 412.731 163.393V139.43H424.616V193.628H412.731V189.904H412.729ZM397.84 176.91C397.84 181.154 400.649 184.42 405.479 184.42C410.312 184.42 413.119 181.156 413.119 176.91C413.119 172.797 410.314 169.333 405.479 169.333C400.65 169.333 397.84 172.797 397.84 176.91Z" fill="black"/>
</svg>
