<svg width="480" height="320" viewBox="0 0 480 320" fill="none" xmlns="http://www.w3.org/2000/svg">
<path d="M82.1711 110.153C98.1721 93.728 124.636 86.4009 145.996 96.1672C153.634 100.047 160.443 106.96 161.894 115.681C163.335 122.019 160.999 128.311 159.614 134.432C155.16 152.053 150.894 169.721 146.392 187.323L145.78 187.361C141.607 177.02 137.934 166.434 132.726 156.555C128.931 149.67 122.499 143.229 114.23 142.776C108.456 142.72 102.664 142.503 96.9007 142.993C104.313 143.285 109.662 149.265 113.41 155.057C119.372 164.673 122.555 175.626 126.991 185.948C130.099 192.833 133.828 199.736 139.809 204.539C138.942 205.65 138.057 206.752 137.172 207.854C126.021 200.254 121.689 186.777 117.074 174.778C113.194 165.7 110.142 155.754 102.938 148.653C99.2834 144.83 94.0376 142.654 88.7542 142.72C83.499 142.748 78.2344 142.494 72.9886 142.984C75.6633 143.342 78.3757 143.916 80.5889 145.555C87.9537 150.433 92.0599 158.636 95.3561 166.566C99.4906 175.937 102.184 185.986 107.665 194.726C110.641 199.444 114.324 204.021 119.391 206.592C124.476 209.333 130.457 208.259 135.919 209.578C125.06 220.738 109.869 227.406 94.3578 228.197C84.6857 228.498 74.5237 226.568 66.6504 220.644C61.3387 216.632 57.0441 210.943 55.8669 204.266C54.4542 198.596 56.479 192.946 57.6939 187.455C62.7043 167.367 67.6487 147.259 72.6967 127.18C74.1941 120.757 77.6316 114.909 82.1711 110.153ZM65.8028 188.208C64.2865 198.276 72.0092 208.523 82.0298 210.011C91.1275 211.857 100.564 206.008 103.832 197.494C99.1327 189.555 96.1378 180.787 92.6061 172.302C81.2104 167.433 66.9706 175.918 65.8028 188.208ZM246.344 155.227C248.322 155.199 250.299 155.152 252.277 155.067C253.247 162.337 252.494 169.778 252.692 177.114C259.915 168.308 274.758 169.269 281.605 178.037C288.8 186.193 287.095 200.226 278.139 206.404C272.413 210.774 264.342 211.405 257.815 208.561C251.166 205.547 246.184 198.643 246.353 191.222C246.325 179.224 246.306 167.225 246.344 155.227ZM261.422 177.604C255.875 179.911 252.174 186.014 252.955 192.023C253.426 199.868 261.705 206.451 269.455 204.153C277.47 202.166 281.802 192.343 278.412 184.94C275.85 178.508 267.892 174.778 261.422 177.604ZM357.814 155.189C359.98 155.189 362.165 155.189 364.341 155.18C364.397 168.421 364.341 181.663 364.369 194.905C364.482 197.212 364.605 199.887 366.394 201.591C367.882 203.343 370.34 203.315 372.403 203.795C372.393 205.697 372.393 207.59 372.393 209.493C368.833 209.691 365.085 209.003 362.335 206.583C358.813 203.842 357.767 199.143 357.795 194.895C357.824 181.654 357.795 168.421 357.814 155.189ZM210.377 158.071C213.136 156.508 217.139 158.495 216.517 161.914C216.668 165.794 211.017 166.575 209.096 163.741C208.588 161.848 208.418 159.211 210.377 158.071ZM378.147 158.523C380.219 156.63 385.004 157.61 384.806 160.981C385.371 163.486 383.167 165.831 380.634 165.427C377.159 165.643 375.793 160.652 378.147 158.523ZM164.305 182.002C167.215 175.965 173.393 171.68 180.061 171.04C190.477 169.514 201.157 177.689 202.014 188.237C202.306 195.31 202.023 202.392 202.174 209.465C200.027 209.455 197.879 209.446 195.742 209.389C195.742 207.506 195.751 205.632 195.751 203.748C188.942 213.119 173.817 212.055 166.913 203.362C161.931 197.579 160.989 188.821 164.305 182.002ZM177.565 177.585C169.532 180.542 166.555 191.26 171.029 198.295C173.873 202.891 179.628 205.547 184.949 204.304C191.588 202.947 196.467 196.054 195.581 189.339C195.242 180.834 185.57 174.044 177.565 177.585ZM225.954 177.717C229.175 172.838 235.268 170.55 240.976 171.077C240.957 173.093 240.938 175.099 240.891 177.114C238.339 177.265 235.513 177.011 233.328 178.612C230.531 180.542 229.665 184.178 229.684 187.389C229.599 194.773 229.778 202.156 229.627 209.54C227.47 209.512 225.323 209.493 223.166 209.465C223.214 202.721 223.185 195.988 223.195 189.254C223.242 185.279 223.534 181.041 225.954 177.717ZM291.399 184.677C294.102 176.21 302.927 170.173 311.827 170.964C320.387 171.501 327.941 178.15 329.834 186.466C319.625 190.525 309.406 194.584 299.207 198.681C302.239 202.505 306.892 204.888 311.845 204.191C316.696 204.558 320.595 201.29 323.232 197.589C325.407 197.598 327.573 197.598 329.749 197.655C328.082 202.081 325.031 206.14 320.689 208.212C312.279 212.168 301.128 210.576 295.072 203.221C290.636 198.248 289.534 190.958 291.399 184.677ZM307.447 177.218C300.535 178.809 295.929 186.118 297.191 193.068C305.507 190.224 313.456 186.41 321.763 183.518C318.947 178.649 313.004 175.626 307.447 177.218ZM340.523 174.524C343.8 171.605 348.349 170.832 352.606 171.077C352.597 172.848 352.653 174.609 352.54 176.38C351.674 177.698 349.809 176.973 348.519 177.359C344.337 177.547 341.38 181.71 341.493 185.694C341.38 193.624 341.502 201.563 341.436 209.502H334.938C334.957 201.789 334.882 194.076 334.966 186.363C335.042 181.87 336.897 177.302 340.523 174.524ZM395.09 176.511C401.73 168.742 415.678 169.005 421.743 177.34C423.758 179.911 424.568 183.208 424.568 186.428C424.625 194.113 424.531 201.808 424.615 209.493C422.402 209.502 420.189 209.502 417.995 209.502C417.995 201.789 418.042 194.076 417.976 186.363C418.042 183.716 417.043 181.06 415.047 179.29C409.876 174.364 399.423 176.879 398.311 184.356C397.774 192.729 398.236 201.139 398.085 209.521C395.881 209.512 393.687 209.512 391.493 209.455C391.54 201.78 391.474 194.104 391.521 186.428C391.493 182.84 392.632 179.177 395.09 176.511ZM209.407 171.915C211.573 171.878 213.749 171.887 215.924 171.878C215.943 184.413 215.943 196.948 215.924 209.483C213.749 209.483 211.573 209.483 209.398 209.455C209.435 196.939 209.454 184.432 209.407 171.915ZM377.507 171.878C379.683 171.887 381.868 171.887 384.052 171.887C384.052 184.441 384.1 196.986 384.024 209.531C381.849 209.512 379.673 209.502 377.507 209.493C377.516 196.958 377.498 184.413 377.507 171.878Z" fill="#CC2234"/>
</svg>
