<svg width="480" height="320" viewBox="0 0 480 320" fill="none" xmlns="http://www.w3.org/2000/svg">
<path d="M91.6352 173.506H81.9842L73.51 150.437L64.8006 173.27H55.3848L68.5669 138.903H78.4533L91.6352 173.506Z" fill="#3BBC97"/>
<path d="M96.814 138.903H106.23V173.741H96.814V138.903Z" fill="#3BBC97"/>
<path d="M116.352 139.138L116.116 173.505L125.06 173.741L125.296 160.795L134.242 173.505H144.364L134.713 159.618C146.737 152.117 140.075 139.711 132.123 139.138H116.352ZM125.789 145.929C135.353 145.883 132.886 155.58 125.003 154.38L124.826 145.965C125.16 145.942 125.481 145.93 125.789 145.929Z" fill="#3BBC97"/>
<path d="M177.319 147.259L180.496 141.374C160.699 129.376 147.37 154.272 169.315 160.088C172.5 161.292 174.889 164.904 170.374 166.797C166.792 168.26 163.561 165.711 160.606 163.619L156.486 170.681C161.468 173.848 168.4 175.674 172.846 174.447C176.087 173.521 180.327 170.457 181.556 167.268C184.074 158.043 180.189 156.183 176.612 153.968C170.58 150.801 165.334 151.04 168.021 146.788C171.324 144.018 173.833 145.661 177.319 147.259H177.319ZM209.332 173.623H190.383V139.138H209.332V146.317H199.211V152.438H208.509V159.735H199.211V166.09H209.215V173.623L209.332 173.623Z" fill="#3ABA97"/>
<path d="M235.402 137.49C232.952 137.49 230.526 137.972 228.263 138.91C226 139.847 223.943 141.222 222.211 142.954C220.478 144.686 219.104 146.743 218.166 149.006C217.229 151.27 216.746 153.696 216.747 156.146C216.747 158.596 217.229 161.021 218.167 163.285C219.104 165.548 220.479 167.604 222.211 169.337C223.943 171.069 226 172.443 228.263 173.38C230.527 174.318 232.953 174.8 235.402 174.8C240.35 174.8 245.095 172.834 248.593 169.336C252.091 165.838 254.057 161.093 254.057 156.146C254.057 153.696 253.574 151.27 252.637 149.007C251.7 146.743 250.326 144.687 248.593 142.954C246.861 141.222 244.805 139.848 242.541 138.91C240.278 137.972 237.852 137.49 235.402 137.49V137.49ZM235.402 146.432C237.979 146.432 240.449 147.455 242.271 149.277C244.093 151.098 245.116 153.569 245.116 156.146C245.116 158.722 244.093 161.193 242.271 163.014C240.449 164.836 237.979 165.86 235.402 165.86C232.826 165.86 230.355 164.836 228.534 163.014C226.712 161.193 225.688 158.722 225.688 156.146C225.688 153.569 226.712 151.098 228.534 149.277C230.355 147.455 232.826 146.432 235.402 146.432Z" fill="#3ABA97"/>
<path d="M271.829 138.962L263.002 139.021L263.12 164.325C263.351 169.174 268.349 174.336 274.301 174.448H281.363C286.277 174.536 292.858 168.829 292.897 163.266L292.838 138.903L284.07 138.962L283.834 161.147C283.26 168.445 272.011 168.284 271.947 161.265L271.829 138.962Z" fill="#3ABA97"/>
<path d="M311.493 139.138L302.666 139.021L302.901 173.27L322.086 173.505L322.149 166.326L311.611 166.444L311.493 139.138Z" fill="#3BBC97"/>
<path d="M397.398 144.183C393.824 144.183 390.284 144.887 386.982 146.255C383.679 147.623 380.679 149.628 378.151 152.155C375.624 154.683 373.619 157.683 372.251 160.986C370.883 164.288 370.179 167.828 370.179 171.402C370.179 174.977 370.883 178.516 372.251 181.818C373.619 185.12 375.624 188.121 378.152 190.648C380.679 193.176 383.68 195.18 386.982 196.548C390.285 197.916 393.824 198.62 397.398 198.619C404.617 198.619 411.539 195.752 416.644 190.647C421.748 185.543 424.615 178.621 424.616 171.402C424.616 167.828 423.912 164.289 422.544 160.986C421.176 157.684 419.172 154.683 416.644 152.156C414.117 149.628 411.116 147.623 407.814 146.255C404.512 144.887 400.973 144.183 397.398 144.183ZM397.398 157.229C401.157 157.229 404.762 158.722 407.42 161.38C410.078 164.038 411.571 167.643 411.571 171.402C411.571 175.161 410.078 178.766 407.42 181.424C404.762 184.082 401.157 185.575 397.398 185.575C393.639 185.575 390.035 184.082 387.377 181.424C384.719 178.766 383.225 175.161 383.225 171.402C383.225 167.643 384.719 164.038 387.377 161.38C390.035 158.723 393.639 157.229 397.398 157.229V157.229Z" fill="#B4BCAF"/>
<path d="M357.616 173.756L343.375 173.638L363.501 121.498L378.33 121.38L397.868 173.638L383.391 173.755L370.562 137.74L357.616 173.756Z" fill="#3ABA97"/>
<path d="M387.555 146.055C383.206 147.742 379.363 150.519 376.396 154.118L383.391 173.755H383.425C383.292 172.978 383.225 172.19 383.224 171.402C383.226 168.574 384.073 165.811 385.658 163.468C387.243 161.126 389.492 159.311 392.117 158.257L387.555 146.055Z" fill="#058E7E"/>
</svg>
