<svg width="480" height="320" viewBox="0 0 480 320" fill="none" xmlns="http://www.w3.org/2000/svg">
<path d="M243.54 57.7412C247.66 55.6144 252.113 54.1554 256.672 53.3335C257.141 55.8177 257.369 58.3455 257.574 60.8647C257.795 63.9958 257.872 67.1401 257.699 70.2757C257.505 73.6462 257.058 77.0298 256.013 80.2495C255.958 80.3074 255.905 80.3631 255.854 80.42C249.468 80.6243 243.091 81.7293 237.061 83.8637C230.352 86.2462 224.027 90.0244 219.26 95.3676C219.252 95.2058 219.246 95.0441 219.26 94.8823C219.646 91.3905 220.34 87.9282 221.39 84.5741C222.661 80.5041 224.45 76.5904 226.758 73.0035C230.881 66.5576 236.726 61.2264 243.54 57.7412ZM210.141 100.144C219.601 100.481 229.108 102.189 237.81 106.011C242.194 107.938 246.35 110.403 250.086 113.404C253.398 116.057 256.365 119.114 258.917 122.504C263.682 128.818 266.916 136.225 268.62 143.934C270.674 153.24 270.604 162.985 268.604 172.295C268.334 172.326 268.063 172.349 267.796 172.375C264.202 180.156 259.354 187.429 253.109 193.338C249.763 196.497 246.023 199.25 241.968 201.433C238.218 203.457 234.206 204.997 230.061 205.983C219.911 208.436 209.066 207.511 199.334 203.811C191.784 200.959 184.854 196.486 179.135 190.794C172.958 184.671 168.21 177.101 165.463 168.846C162.895 161.214 162.051 153.038 162.787 145.03C163.613 135.793 166.462 126.816 170.543 118.516C170.756 118.082 170.98 117.654 171.182 117.215C171.703 117.501 172.207 117.819 172.744 118.079C168.612 126.586 165.742 135.783 164.965 145.236C164.304 153.097 165.153 161.111 167.702 168.589C170.508 176.917 175.412 184.519 181.816 190.532C188.249 196.599 196.175 201.082 204.71 203.404C209.711 204.77 214.921 205.39 220.103 205.182C225.632 204.965 231.126 203.797 236.253 201.712C244.026 198.582 250.869 193.358 256.266 186.979C260.059 182.536 263.165 177.539 265.733 172.3C264.045 172.131 262.371 171.813 260.742 171.34C259.378 174.823 257.632 178.172 255.363 181.155C253.039 184.236 250.198 186.934 246.962 189.041C243.778 191.125 240.211 192.617 236.499 193.451C231.508 194.574 226.251 194.483 221.299 193.197C217.194 192.134 213.297 190.253 209.936 187.663C207.01 185.428 204.498 182.657 202.533 179.542C200.583 176.459 199.173 173.046 198.292 169.509C197.237 165.301 196.921 160.93 197.156 156.605C197.761 156.498 198.382 156.497 198.989 156.606C198.78 161.365 199.207 166.184 200.582 170.757C201.648 174.317 203.301 177.713 205.551 180.676C207.757 183.598 210.536 186.082 213.687 187.945C217.649 190.308 222.174 191.689 226.766 192.053C231.919 192.466 237.173 191.615 241.919 189.565C245.885 187.868 249.482 185.312 252.385 182.12C255.349 178.872 257.543 174.959 258.928 170.794C256.156 169.826 253.501 168.532 251.034 166.94C252.154 165.466 253.231 163.953 254.128 162.33C256.682 157.804 258.23 152.721 258.68 147.546C259.421 139.356 257.319 131.064 253.36 123.905C248 124.37 242.544 123.902 237.381 122.369C232.247 120.862 227.439 118.315 223.215 115.042C217.967 110.962 213.533 105.854 210.141 100.144ZM167.439 227.887C169.469 227.927 171.5 227.952 173.531 227.89C173.41 229.203 173.407 230.525 173.346 231.842C171.347 231.792 169.348 231.795 167.35 231.843C167.397 230.525 167.432 229.207 167.439 227.887ZM239.617 227.892C241.651 227.922 243.686 227.95 245.72 227.894C245.591 229.207 245.598 230.527 245.531 231.844C243.533 231.79 241.534 231.797 239.537 231.843C239.579 230.526 239.626 229.209 239.617 227.892ZM304.576 227.891C306.608 227.922 308.641 227.954 310.672 227.89C310.551 229.204 310.549 230.526 310.487 231.845C308.488 231.789 306.489 231.798 304.491 231.843C304.538 230.526 304.578 229.208 304.576 227.891ZM343.271 227.89C345.277 227.922 347.282 227.953 349.288 227.892V229.458C349.228 230.251 349.221 231.048 349.183 231.844C347.186 231.791 345.188 231.796 343.191 231.844C343.233 230.526 343.278 229.208 343.271 227.89ZM145.509 228.226C148.081 228.226 150.656 228.287 153.23 228.21C154.097 230.663 154.948 233.122 155.808 235.579C157.215 239.534 158.696 243.463 160.133 247.408C161.28 250.494 162.371 253.602 163.583 256.665C161.326 256.613 159.069 256.642 156.813 256.657C155.851 253.239 154.642 249.897 153.42 246.566C149.761 246.571 146.101 246.55 142.442 246.577C140.825 249.919 139.231 253.274 137.711 256.663C135.378 256.624 133.045 256.627 130.712 256.663C132.986 252.616 135.113 248.49 137.256 244.373C139.124 240.775 141.009 237.186 142.866 233.583C143.77 231.809 144.67 230.032 145.509 228.226ZM144.313 242.221C146.972 242.223 149.631 242.222 152.29 242.222C151.204 239.013 150.108 235.807 149.025 232.598C147.461 235.808 145.896 239.019 144.313 242.221ZM206.537 228.212C209.121 228.264 211.706 228.257 214.289 228.21C218.521 235.527 223.214 242.563 227.493 249.851C227.75 243.983 227.962 238.111 228.201 232.243C228.273 230.899 228.279 229.555 228.293 228.211C230.25 228.258 232.208 228.255 234.165 228.213C233.986 230.867 233.798 233.52 233.63 236.175C233.373 241.857 233.021 247.536 232.869 253.223C232.83 254.37 232.798 255.517 232.756 256.665C230.218 256.603 227.682 256.642 225.144 256.66C224.206 254.948 223.188 253.282 222.12 251.649C218.977 246.826 215.889 241.968 212.9 237.049C212.545 236.498 212.257 235.903 211.859 235.384C211.537 242.474 211.228 249.567 211.109 256.665C209.145 256.621 207.182 256.63 205.218 256.663C205.77 251.308 205.899 245.924 206.174 240.55C206.374 236.44 206.528 232.327 206.537 228.212ZM185.796 236.298C187.4 235.038 189.608 234.718 191.561 235.197C191.56 236.838 191.666 238.478 191.744 240.116C190.376 239.727 188.879 239.615 187.52 240.096C186.044 240.614 184.948 241.896 184.403 243.332C183.926 244.643 183.824 246.05 183.718 247.43C183.541 250.503 183.443 253.586 183.567 256.665C181.576 256.613 179.584 256.62 177.594 256.665C177.783 253.548 177.974 250.432 178.166 247.315C178.3 243.371 178.475 239.422 178.367 235.474C180.258 235.52 182.148 235.522 184.039 235.474C184.008 236.447 183.961 237.42 183.937 238.395C184.501 237.65 185.047 236.871 185.796 236.298ZM285.807 235.362C290.248 234.53 294.786 235.223 299.185 235.988C298.957 239.4 298.672 242.809 298.528 246.226C298.366 249.03 298.233 251.834 298.202 254.642C298.108 256.909 298.284 259.23 297.633 261.434C297.193 262.95 296.196 264.295 294.865 265.146C293.385 266.103 291.61 266.434 289.892 266.667H285.175C282.844 266.504 280.53 266.135 278.259 265.584C278.166 264.081 278.071 262.577 277.98 261.074C280.647 261.921 283.41 262.603 286.225 262.595C287.725 262.563 289.295 262.262 290.52 261.347C291.539 260.578 291.985 259.303 292.217 258.094C292.495 256.438 292.488 254.752 292.567 253.079C292.217 253.54 291.862 254 291.469 254.425C290.608 255.374 289.471 256.047 288.26 256.448C286.168 257.147 283.857 257.166 281.751 256.519C279.916 255.964 278.277 254.731 277.294 253.079C276.46 251.666 276.034 250.036 275.921 248.408C275.779 245.919 276.286 243.38 277.459 241.174C279.116 238.057 282.372 235.968 285.807 235.362ZM284.724 240.673C283.185 241.765 282.249 243.536 281.864 245.353C281.506 247.104 281.626 249.019 282.513 250.601C283.161 251.754 284.397 252.467 285.67 252.712C287.242 253.006 288.98 252.702 290.23 251.661C291.572 250.539 292.384 248.872 292.641 247.157C293.024 244.68 293.057 242.165 293.158 239.665C291.993 239.427 290.808 239.265 289.618 239.284C287.908 239.302 286.13 239.649 284.724 240.673ZM326.549 235.356C328.699 234.831 330.98 234.868 333.12 235.425C334.445 235.75 335.704 236.462 336.53 237.567C337.49 238.768 337.666 240.377 337.68 241.863C337.52 246.799 337.127 251.726 337.071 256.665C335.07 256.615 333.068 256.618 331.068 256.666C331.344 253.154 331.532 249.637 331.69 246.118C331.724 244.643 331.899 243.06 331.196 241.701C330.546 240.448 329.113 239.832 327.767 239.716C326.03 239.546 324.2 240.192 323.059 241.533C321.867 242.832 321.436 244.616 321.256 246.324C320.86 249.756 320.806 253.215 320.695 256.666C318.667 256.611 316.636 256.623 314.608 256.663C315.29 249.621 315.678 242.55 315.784 235.474C317.761 235.511 319.74 235.54 321.718 235.477C321.643 236.651 321.56 237.825 321.487 239.001C322.058 238.267 322.586 237.475 323.334 236.902C324.263 236.138 325.38 235.626 326.549 235.356ZM167.24 235.48C169.276 235.516 171.312 235.523 173.348 235.475C173.124 238.435 172.917 241.395 172.79 244.361C172.631 248.46 172.566 252.563 172.537 256.666C170.438 256.621 168.338 256.629 166.24 256.665C166.801 251.018 166.98 245.343 167.151 239.673C167.184 238.275 167.213 236.878 167.24 235.48ZM239.339 239.668C239.371 238.27 239.398 236.873 239.428 235.475C241.463 235.52 243.499 235.521 245.534 235.475C245.303 238.545 245.086 241.618 244.964 244.695C244.819 248.683 244.743 252.673 244.73 256.663C242.627 256.623 240.527 256.63 238.424 256.663C238.99 251.015 239.166 245.339 239.339 239.668ZM250.691 235.475C252.686 235.51 254.682 235.538 256.677 235.477C256.484 238.183 256.289 240.889 256.096 243.596C255.988 245.016 255.906 246.442 255.877 247.867C255.879 248.842 255.98 249.863 256.479 250.724C257.035 251.655 258.096 252.126 259.119 252.341C261.103 252.738 263.386 252.077 264.586 250.383C265.674 248.866 265.91 246.956 266.051 245.145C266.266 241.926 266.373 238.701 266.448 235.474C268.42 235.508 270.392 235.54 272.363 235.475C271.822 242.527 271.42 249.591 271.316 256.665C269.446 256.635 267.577 256.606 265.708 256.666C265.712 255.515 265.726 254.365 265.742 253.215C265.188 253.982 264.677 254.807 263.915 255.39C262.579 256.504 260.821 256.908 259.132 257.1C257.127 257.265 255.022 257.111 253.189 256.217C252.116 255.678 251.165 254.83 250.64 253.739C250.076 252.526 250.004 251.155 250.051 249.839C250.301 246.125 250.476 242.406 250.624 238.685C250.685 237.616 250.68 236.545 250.691 235.475ZM304.385 235.475C306.42 235.52 308.455 235.521 310.491 235.475C310.19 239.42 309.923 243.368 309.834 247.325C309.742 250.437 309.7 253.551 309.68 256.666C307.581 256.62 305.48 256.631 303.379 256.663C304.066 249.622 304.226 242.544 304.385 235.475ZM343.08 235.479C345.116 235.517 347.152 235.522 349.188 235.475C348.963 238.439 348.756 241.404 348.629 244.375C348.469 248.471 348.409 252.57 348.374 256.669C346.277 256.618 344.179 256.63 342.08 256.666C342.759 249.624 342.929 242.546 343.08 235.479Z" fill="#752650"/>
<path d="M255.854 80.42C255.905 80.3632 255.959 80.3074 256.013 80.2495C256.017 80.2845 256.025 80.3544 256.029 80.3894C261.235 80.2583 266.461 80.632 271.577 81.6288C276.429 82.5643 281.19 84.0277 285.675 86.1129C289.554 87.9271 293.237 90.2157 296.421 93.0933C298.589 95.0474 300.507 97.2857 302.05 99.7676C298.94 98.1731 295.865 96.5097 292.768 94.8911C289.558 92.3818 286.124 90.1436 282.451 88.3687C277.714 86.0539 272.624 84.4637 267.414 83.6583C255.99 81.89 244.079 83.8506 233.702 88.8944C229.064 91.1654 224.697 94.0583 221.012 97.69C228.258 98.7742 235.387 100.863 241.925 104.197C249.373 107.964 255.99 113.384 261.073 120.011C265.904 126.276 269.368 133.553 271.401 141.188C273.903 150.571 274.304 160.495 272.666 170.062C271.259 178.211 268.352 186.155 263.754 193.054C261.009 197.166 257.656 200.894 253.731 203.911C253.447 204.103 253.091 204.059 252.768 204.107C251.62 204.221 250.457 204.311 249.313 204.116C252.942 201.599 256.081 198.415 258.708 194.875C263.64 188.209 266.853 180.372 268.605 172.295C270.605 162.985 270.675 153.24 268.62 143.934C266.916 136.225 263.682 128.818 258.917 122.504C256.365 119.114 253.398 116.057 250.086 113.404C246.35 110.403 242.195 107.938 237.81 106.011C229.108 102.19 219.601 100.481 210.141 100.144C209.107 99.4168 208.087 98.6649 207.159 97.8048C210.204 96.9021 213.433 96.9545 216.562 97.2911C216.897 97.3206 217.235 97.3982 217.575 97.3567C218.149 96.7064 218.665 96.0037 219.26 95.3676C224.027 90.0244 230.352 86.2463 237.061 83.8637C243.091 81.7293 249.468 80.6244 255.854 80.42Z" fill="#EFCC78"/>
<path d="M186 81.8219C187.607 80.7662 189.581 80.4645 191.471 80.4678C193.613 80.494 195.765 80.8536 197.767 81.6285C197.492 83.6984 197.308 85.7793 197.165 87.8624C195.515 87.811 193.96 87.1498 192.527 86.3793C190.424 85.2339 188.54 83.7454 186.624 82.3214C186.413 82.1585 186.178 82.023 186 81.8219ZM200.418 82.0919C202.435 81.4438 204.548 81.1235 206.662 81.0339C211.771 80.8263 216.937 82.0536 221.39 84.5738C220.34 87.9279 219.646 91.3903 219.26 94.8821C219.246 95.0438 219.252 95.2056 219.26 95.3673C218.666 96.0034 218.149 96.7061 217.575 97.3564C217.235 97.3979 216.897 97.3203 216.562 97.2908C217.182 96.2701 217.603 95.0788 217.475 93.869C217.338 92.3291 216.389 90.9717 215.188 90.0482C213.946 89.0831 212.441 88.4963 210.902 88.2165C210.164 88.0766 209.411 88.0602 208.67 87.952C208.521 87.3771 208.097 86.9181 207.602 86.6121C206.518 85.9389 205.129 85.835 203.932 86.2536C202.395 85.2635 200.931 83.9039 200.418 82.0919Z" fill="#DDA137"/>
<path d="M197.767 81.6284C198.664 81.6842 199.548 81.871 200.418 82.0918C200.931 83.9038 202.395 85.2634 203.932 86.2536C204.633 87.4536 205.276 88.7443 205.458 90.1388C206.388 90 207.369 89.8164 208.124 89.2197C208.51 88.9235 208.736 88.4394 208.67 87.9519C209.411 88.0601 210.164 88.0765 210.901 88.2164C212.441 88.4962 213.946 89.0831 215.188 90.0481C216.389 90.9716 217.338 92.329 217.475 93.8689C217.603 95.0788 217.182 96.27 216.562 97.2908C213.433 96.9542 210.204 96.9017 207.159 97.8045C205.672 97.3072 204.262 96.5487 203.11 95.4744C201.579 94.0853 200.48 92.3148 199.359 90.5979C198.722 89.6175 198.049 88.6383 197.165 87.8623C197.308 85.7793 197.492 83.6984 197.767 81.6284Z" fill="#3B6A54"/>
<path d="M233.702 88.8944C244.079 83.8507 255.99 81.89 267.414 83.6583C272.624 84.4638 277.714 86.0539 282.451 88.3687C286.124 90.1436 289.558 92.3818 292.768 94.8912L292.907 95.0638C288.317 93.5141 283.563 92.4015 278.737 91.9327C275.704 91.6638 272.613 91.6583 269.628 92.3141C269.293 92.3993 268.948 92.4507 268.632 92.5928C276.988 95.4234 284.91 99.7447 291.448 105.707C297.623 111.293 302.49 118.322 305.493 126.091C309.377 136.047 310.226 147.101 308.227 157.578C306.454 166.944 302.425 175.897 296.465 183.347C291.162 190.006 284.287 195.414 276.528 198.927C269.833 201.986 262.527 203.623 255.185 203.97C254.672 203.975 254.157 204.055 253.648 203.981L253.731 203.911C257.656 200.894 261.009 197.166 263.754 193.054C268.352 186.155 271.259 178.211 272.666 170.062C274.304 160.495 273.903 150.571 271.401 141.188C269.369 133.553 265.904 126.276 261.073 120.011C255.99 113.384 249.373 107.964 241.925 104.197C235.387 100.863 228.258 98.7742 221.012 97.6901C224.697 94.0584 229.064 91.1655 233.702 88.8944Z" fill="#AC151C"/>
<path d="M203.932 86.2535C205.129 85.8349 206.518 85.9387 207.602 86.612C208.097 86.918 208.521 87.377 208.67 87.9519C208.737 88.4393 208.51 88.9234 208.124 89.2196C207.369 89.8163 206.388 89.9999 205.458 90.1387C205.276 88.7442 204.633 87.4535 203.932 86.2535Z" fill="white"/>
</svg>
