<svg width="480" height="320" viewBox="0 0 480 320" fill="none" xmlns="http://www.w3.org/2000/svg">
<path fill-rule="evenodd" clip-rule="evenodd" d="M372.112 177.065C372.112 178.769 370.843 180.152 369.294 180.152C367.743 180.152 366.488 178.769 366.488 177.065C366.488 175.367 367.743 173.973 369.294 173.973C370.843 173.973 372.112 175.367 372.112 177.065ZM372.112 132.642C372.112 134.348 370.843 135.733 369.294 135.733C367.743 135.733 366.488 134.348 366.488 132.642C366.488 130.941 367.743 129.554 369.294 129.554C370.843 129.554 372.112 130.941 372.112 132.642M359.168 173.569C360.934 173.569 362.359 175.134 362.359 177.055C362.359 178.986 360.934 180.557 359.168 180.557C357.417 180.557 355.986 178.985 355.986 177.055C355.986 175.134 357.417 173.569 359.168 173.569ZM359.168 162.875C360.723 162.875 361.984 164.268 361.984 165.956C361.984 167.66 360.723 169.037 359.168 169.037C357.622 169.037 356.36 167.66 356.36 165.956C356.36 164.268 357.622 162.875 359.168 162.875ZM399.675 162.875C401.229 162.875 402.483 164.268 402.483 165.956C402.483 167.66 401.229 169.037 399.675 169.037C398.128 169.037 396.861 167.66 396.861 165.956C396.861 164.268 398.128 162.875 399.675 162.875ZM359.168 152.186C360.522 152.186 361.608 153.384 361.608 154.857C361.608 156.337 360.522 157.528 359.168 157.528C357.826 157.528 356.74 156.337 356.74 154.857C356.74 153.384 357.826 152.186 359.168 152.186M366.866 165.956C366.866 167.432 367.955 168.621 369.294 168.621C370.641 168.621 371.735 167.432 371.735 165.956C371.735 164.489 370.641 163.293 369.294 163.293C367.955 163.293 366.866 164.489 366.866 165.956ZM387.115 165.956C387.115 167.432 388.212 168.621 389.546 168.621C390.891 168.621 391.984 167.432 391.984 165.956C391.984 164.489 390.891 163.293 389.546 163.293C388.212 163.293 387.115 164.489 387.115 165.956ZM366.866 143.75C366.866 145.226 367.955 146.42 369.294 146.42C370.641 146.42 371.735 145.225 371.735 143.75C371.735 142.273 370.641 141.078 369.294 141.078C367.955 141.077 366.866 142.271 366.866 143.75ZM387.115 143.75C387.115 145.226 388.212 146.42 389.546 146.42C390.891 146.42 391.984 145.225 391.984 143.75C391.984 142.273 390.891 141.078 389.546 141.078C388.212 141.077 387.115 142.271 387.115 143.75ZM371.365 154.853C371.365 153.6 370.44 152.596 369.294 152.596C368.16 152.596 367.235 153.601 367.235 154.853C367.235 156.102 368.16 157.111 369.294 157.111C370.44 157.113 371.365 156.102 371.365 154.853ZM345.115 188.163C345.115 190.546 346.875 192.478 349.04 192.478C351.216 192.478 352.978 190.546 352.978 188.163C352.978 185.781 351.216 183.853 349.04 183.853C346.875 183.854 345.115 185.781 345.115 188.163ZM345.115 165.956C345.115 168.345 346.875 170.277 349.04 170.277C351.216 170.277 352.978 168.345 352.978 165.956C352.978 163.573 351.216 161.648 349.04 161.648C346.875 161.648 345.115 163.573 345.115 165.956ZM345.115 143.75C345.115 146.13 346.875 148.064 349.04 148.064C351.216 148.064 352.978 146.13 352.978 143.75C352.978 141.367 351.216 139.437 349.04 139.437C346.875 139.437 345.115 141.367 345.115 143.749M365.369 188.163C365.369 190.546 367.125 192.478 369.294 192.478C371.472 192.478 373.232 190.546 373.232 188.163C373.232 185.781 371.472 183.853 369.294 183.853C367.125 183.854 365.369 185.781 365.369 188.163ZM385.614 188.163C385.614 190.546 387.38 192.478 389.546 192.478C391.726 192.478 393.481 190.546 393.481 188.163C393.481 185.781 391.726 183.853 389.546 183.853C387.381 183.854 385.614 185.781 385.614 188.163ZM381.857 177.065C381.857 178.538 380.763 179.737 379.418 179.737C378.083 179.737 376.986 178.537 376.986 177.065C376.986 175.588 378.083 174.389 379.418 174.389C380.763 174.389 381.857 175.588 381.857 177.065M381.494 165.956C381.494 167.201 380.563 168.22 379.418 168.22C378.289 168.22 377.365 167.201 377.365 165.956C377.365 164.704 378.289 163.695 379.418 163.695C380.562 163.695 381.494 164.704 381.494 165.956Z" fill="#C4122F"/>
<path d="M381.105 154.853C381.105 153.834 380.351 153.007 379.418 153.007C378.492 153.007 377.741 153.836 377.741 154.853C377.741 155.867 378.492 156.699 379.418 156.699C380.351 156.699 381.104 155.867 381.104 154.853" fill="#C4122F"/>
<path fill-rule="evenodd" clip-rule="evenodd" d="M372.48 121.533C372.48 119.606 371.058 118.04 369.294 118.04C367.541 118.04 366.118 119.606 366.118 121.533C366.118 123.466 367.543 125.036 369.294 125.036C371.058 125.036 372.48 123.468 372.48 121.533M372.857 110.429C372.857 108.278 371.26 106.528 369.294 106.528C367.334 106.528 365.743 108.278 365.743 110.429C365.743 112.587 367.332 114.34 369.294 114.34C371.26 114.34 372.857 112.585 372.857 110.429ZM406.617 165.956C406.617 167.887 408.044 169.448 409.8 169.448C411.563 169.448 412.981 167.885 412.981 165.956C412.981 164.022 411.561 162.466 409.8 162.466C408.044 162.466 406.617 164.022 406.617 165.956ZM423.486 165.956C423.486 163.808 421.897 162.056 419.926 162.056C417.963 162.056 416.366 163.806 416.366 165.956C416.366 168.107 417.963 169.86 419.926 169.86C421.895 169.862 423.486 168.108 423.486 165.956ZM402.861 132.642C402.861 134.572 401.44 136.137 399.675 136.137C397.915 136.137 396.487 134.572 396.487 132.642C396.487 130.71 397.917 129.149 399.675 129.149C401.442 129.148 402.861 130.71 402.861 132.642ZM413.735 121.533C413.735 123.922 411.969 125.859 409.8 125.859C407.631 125.859 405.864 123.921 405.864 121.533C405.864 119.154 407.629 117.224 409.8 117.224C411.967 117.224 413.735 119.154 413.735 121.533ZM424.615 110.429C424.615 113.271 422.514 115.567 419.924 115.567C417.341 115.567 415.245 113.269 415.245 110.429C415.245 107.594 417.341 105.3 419.924 105.3C422.514 105.3 424.615 107.594 424.615 110.429Z" fill="#C4122F"/>
<path d="M81.2461 210.373H87.7584V183.837C87.6292 183.837 81.3753 184.836 81.2461 184.836V210.373ZM169.335 194.745C169.346 194.634 169.367 194.472 169.397 194.247C169.876 190.748 171.541 188.85 174.278 188.85C176.937 188.85 178.443 190.765 178.492 194.254L178.497 194.33L169.335 194.745ZM174.365 183.86C167.375 183.86 162.491 189.39 162.491 197.303C162.491 205.77 167.304 211.009 175.061 211.009C179.922 211.009 182.36 209.536 183.979 208.557L184 208.544C183.943 208.436 181.981 204.201 181.917 204.081C181.832 204.126 181.749 204.173 181.666 204.222C180.472 204.879 178.67 205.874 175.655 205.874C170.897 205.874 169.62 202.178 169.398 199.076L169.391 199H184.714C184.778 198.204 184.81 197.406 184.811 196.608C184.811 192.494 183.866 189.219 182.02 187.038C180.225 184.927 177.656 183.86 174.365 183.86ZM195.344 194.745C195.352 194.634 195.363 194.472 195.401 194.247C195.877 190.748 197.539 188.85 200.272 188.85C202.937 188.85 204.445 190.765 204.494 194.254L204.501 194.33L195.344 194.745ZM200.372 183.86C193.372 183.86 188.492 189.39 188.492 197.303C188.492 205.77 193.315 211.009 201.063 211.009C205.932 211.009 208.368 209.536 209.979 208.557C209.979 208.557 209.989 208.55 209.994 208.544C209.305 207.055 208.614 205.567 207.921 204.081C207.836 204.125 207.752 204.173 207.669 204.222C206.472 204.879 204.674 205.874 201.66 205.874C196.894 205.874 195.628 202.178 195.401 199.076L195.391 199H210.717C210.782 198.204 210.815 197.406 210.817 196.608C210.817 192.494 209.86 189.219 208.02 187.038C206.227 184.927 203.657 183.86 200.372 183.86ZM243.214 210.373H249.664V173.813C249.54 173.813 243.332 174.808 243.214 174.808V210.373ZM69.106 203.659C68.1767 204.737 66.7999 205.979 64.5814 205.979C63.2075 205.979 61.5891 204.918 61.5891 202.849C61.5891 200.018 63.8766 198.337 68.2016 198.337H69.1075V203.659M70.246 210.373H76.1938C75.7522 208.194 75.5184 205.63 75.5184 202.756V193.404C75.5184 186.717 72.6338 183.86 65.8691 183.86C60.8124 183.86 57.6583 186.145 56.1984 187.545C56.2707 187.652 58.9231 191.308 59.0003 191.431C59.0229 191.406 59.0492 191.384 59.0492 191.384C59.9677 190.665 62.1031 189.001 65.1277 189.001C67.9184 189.001 69.106 190.436 69.106 193.032V194.267H68.2001C62.0029 194.267 55.3845 196.674 55.3845 203.44C55.3845 207.773 58.2877 211.009 62.6015 211.009C66.0321 211.009 68.2276 208.989 69.2244 207.766H69.4615L70.246 210.373ZM84.5 173.015C82.0292 173.015 80.5551 174.564 80.5551 177.17C80.5551 179.771 82.0292 181.336 84.5 181.336C86.9705 181.336 88.4431 179.77 88.4431 177.17C88.4416 174.564 86.9705 173.015 84.5 173.015ZM129.258 198.103C126.485 198.103 124.831 196.281 124.831 193.222C124.831 190.173 126.485 188.344 129.258 188.344C132.035 188.344 133.686 190.173 133.686 193.222C133.686 196.28 132.034 198.103 129.259 198.103M126.329 202.235C127.48 202.554 129.557 202.554 129.557 202.554C135.94 202.554 139.897 198.982 139.897 193.222C139.897 192.609 139.778 191.472 139.628 190.839C139.476 190.227 139.278 189.629 139.017 189.089C139.017 189.089 138.898 188.848 138.861 188.786H141.558L142.678 184.396C142.064 184.046 141.243 183.859 140.171 183.859C138.38 183.859 137.111 184.844 136.283 185.847C135.338 185.158 134.205 184.66 132.917 184.298C131.826 184.001 130.664 183.859 129.212 183.859C122.825 183.859 118.672 187.438 118.577 193.031C118.577 193.077 118.572 193.222 118.572 193.222C118.572 197.129 120.58 199.453 122.586 200.742C120.745 203.016 118.844 205.448 118.844 207.712C118.844 208.051 118.87 211.827 124.578 211.429C126.629 211.277 130.272 210.993 132.294 210.993C136.264 210.993 135.671 214.7 135.671 214.7H141.215C143.44 205.932 138.022 205.486 135.355 205.486C132.686 205.486 127.409 206.264 126.475 206.364C125.546 206.47 124.375 206.571 124.375 205.54C124.375 205.142 124.674 204.568 125.054 204.03L126.329 202.235ZM151.349 183.942C151.249 183.942 145.861 185.497 145.706 185.497C146.123 187.527 146.357 188.978 146.385 191.531V210.371H152.845V193.676C153.452 192.486 155.184 190.024 158.152 190.024C159.559 190.024 160.681 190.446 160.681 190.446L162.195 184.531C161.411 184.075 160.368 183.859 159.002 183.859C155.694 183.859 153.678 186.476 152.845 188.028H152.566L151.349 183.942M98.8015 183.942C98.7047 183.942 93.3165 185.497 93.1569 185.497C93.5785 187.527 93.8045 188.978 93.8368 191.531V210.371H100.297V193.676C100.902 192.486 102.64 190.024 105.612 190.024C107.008 190.024 108.134 190.446 108.134 190.446L109.644 184.531C108.863 184.075 107.823 183.859 106.457 183.859C103.141 183.859 101.128 186.476 100.297 188.028H100.023L98.8015 183.942ZM268.214 203.659C267.286 204.737 265.909 205.979 263.683 205.979C262.308 205.979 260.705 204.918 260.705 202.849C260.705 200.018 262.983 198.337 267.311 198.337H268.214V203.659M269.354 210.373H275.303C274.857 208.194 274.623 205.63 274.623 202.756V193.404C274.623 186.717 271.743 183.86 264.98 183.86C259.923 183.86 256.754 186.145 255.305 187.545C255.369 187.652 258.024 191.308 258.103 191.431C258.119 191.416 258.134 191.401 258.149 191.386C259.071 190.667 261.206 189.003 264.234 189.003C267.029 189.003 268.212 190.438 268.212 193.034V194.269H267.309C261.109 194.269 254.483 196.675 254.483 203.441C254.483 207.774 257.386 211.01 261.709 211.01C265.14 211.01 267.337 208.991 268.335 207.767H268.568L269.354 210.373ZM215.217 185.497C215.671 187.682 215.903 189.248 215.903 192.125V210.371H222.363V192.602C223.877 190.483 225.658 189.653 227.38 189.653C229.683 189.653 230.669 190.852 230.669 193.67V210.371H237.12V192.226C237.12 188.409 235.883 183.859 229.963 183.859C227.046 183.859 224.489 185.072 222.365 187.566H222.094L221.005 183.942C220.911 183.942 215.371 185.497 215.217 185.497ZM279.726 185.497C280.177 187.682 280.406 189.248 280.406 192.125V210.371H286.865V192.602C288.375 190.483 290.164 189.653 291.883 189.653C294.185 189.653 295.167 190.852 295.167 193.67V210.371H301.626V192.226C301.626 188.409 300.381 183.859 294.466 183.859C291.552 183.859 288.988 185.072 286.866 187.566H286.6L285.503 183.942C285.414 183.942 279.878 185.497 279.726 185.497ZM322.309 191.028V202.849C322.011 203.298 320.385 205.498 317.748 205.498C314.497 205.498 312.778 202.74 312.778 197.517C312.778 192.278 314.703 189.279 318.04 189.279C320.209 189.279 321.471 190.201 322.309 191.004V191.028ZM328.78 203.023V173.98C328.657 173.98 322.454 174.975 322.317 174.975V185.745L322.22 185.662C320.658 184.456 318.843 183.86 316.655 183.86C310.337 183.86 305.917 189.472 305.917 197.517C305.917 206.003 309.6 211.068 315.768 211.068C318.423 211.068 320.703 209.996 322.486 207.766H322.723L323.508 210.373H329.463C329.197 209.09 328.78 206.483 328.78 203.023Z" fill="#C4122F"/>
</svg>
