<svg width="480" height="320" viewBox="0 0 480 320" fill="none" xmlns="http://www.w3.org/2000/svg">
<path d="M207.848 145.66C204.884 143.152 205.689 138.46 209.288 137.266C213.36 135.915 217.327 139.774 215.852 143.653C214.649 146.818 210.459 147.869 207.848 145.66V145.66ZM340.258 165.63C339.975 170.308 342.039 174.557 345.932 174.637C348.848 174.856 352.253 171.6 351.998 165.847C351.785 161.022 350.559 157.246 346.11 157.068C342.57 157.278 340.574 160.414 340.258 165.63H340.258ZM360.854 165.623C361.039 175.664 354.861 182.238 346.039 182.569C337.697 182.882 331.15 175.515 331.225 165.801C331.296 156.541 337.502 149.605 345.683 149.478C354.4 149.343 360.681 156.216 360.854 165.623V165.623ZM311.323 149.976L317.625 150.003L319.178 155.029C320.967 149.435 326.088 149.349 328.76 149.678L328.768 159.242L320.12 159.754L320.083 181.788H311.249L311.323 149.976ZM223.214 149.882L229.516 149.908L231.069 154.934C232.858 149.34 237.979 149.255 240.651 149.584L240.66 159.148L232.011 159.66L231.974 181.693H223.14L223.214 149.882ZM246.783 181.852L246.785 160.957L246.825 139.625L271.341 139.598L271.335 146.978L256.622 146.992C256.63 150.017 256.671 153.918 256.657 156.943L268.919 157.049L268.92 164.457L256.615 164.417L256.649 174.446L265.399 174.487L271.344 174.52L271.349 181.855L246.783 181.852ZM206.722 181.592L206.74 149.85H215.455L215.407 181.67L206.722 181.592ZM187.338 165.407L183.54 149.808L179.915 165.437L187.338 165.407ZM165.912 181.474L177.109 139.991L190.138 140.069L201.499 181.638L191.052 181.671L189.175 174.475C185.515 174.534 181.41 174.609 177.752 174.51L175.967 181.634L165.912 181.474ZM415.184 173.519L415.098 167.916C409.648 167.113 403.918 170.019 406.892 174.655C408.636 177.372 413.433 175.824 415.184 173.519ZM404.434 182.31C399.616 180.912 397.098 175.476 398.164 170.191C398.862 166.729 401.255 162.526 410.624 161.978L414.93 161.726C415.349 161.701 414.914 158.974 414.129 157.926C411.339 153.958 406.116 156.512 401.315 157.769L399.402 151.782C400.929 150.988 402.889 150.419 405.518 149.513C410.317 147.859 416.911 148.87 419.728 150.648C421.416 151.713 422.705 153.469 423.726 155.782C424.097 156.625 424.489 158.699 424.51 159.738L424.616 181.802L417.83 181.851L416.285 178.148C412.643 182.51 409.297 183.682 404.434 182.31ZM284.505 182.409C281.627 181.715 279.815 180.428 278.382 178.062C277.274 176.232 277.13 174.499 277.13 162.923V149.85H285.845L285.893 169.697C285.886 171.202 285.92 172.391 286.395 173.291C288.135 176.584 292.636 175.999 294.089 172.809C294.414 172.095 294.415 170.881 294.414 169.947L294.471 149.912L303.656 149.85L303.68 182.411L296.475 182.387L295.225 178.342C294.036 179.564 292.686 180.877 291.275 181.634C289.083 182.529 286.552 182.801 284.505 182.409ZM384.442 171.702C385.116 169.312 385.227 167.33 385.197 164.767C385.141 159.927 383.837 155.289 379.189 155.499C378.47 155.531 376.588 155.778 375.27 157.46L375.258 173.659C377.176 176.692 383.328 175.649 384.442 171.702V171.702ZM366.39 148.918L373.407 148.953L374.433 152.661C374.93 151.105 378.846 148.496 381.799 148.45C386.677 147.971 391.118 151.224 393.051 156.693C394.344 160.351 394.454 169.02 393.344 173.427C391.734 179.821 385.361 183.331 379.279 182.341C377.83 182.105 376.596 181.44 375.255 180.989L375.177 192.185L366.407 192.173L366.39 148.918ZM95.7243 177.245C94.2355 167.655 96.8622 157.785 99.1624 150.876C103.89 139.244 101.612 127.709 88.5374 133.428C84.8165 135.141 79.1292 141.045 76.5076 145.979C68.4218 161.197 71.1404 184.201 81.0419 184.346C85.0718 184.192 90.4774 180.298 95.7243 177.245V177.245ZM67.6554 194.894C64.054 193.746 59.343 188.698 57.5257 184.04C54.6211 175.592 54.632 163.959 57.8035 154.543C62.2664 141.698 71.988 130.393 81.4278 126.76C90.0948 123.441 103.491 123.252 112.265 132.755C119.084 126.268 129.209 124.148 134.835 124.23C148.822 123.613 156.125 129.246 156.125 139.782C156.125 143.558 153.275 149.02 149.861 151.786C145.842 155.041 120.857 170.746 119.659 170.746L119.589 163.335L126.963 158.13C136.468 151.421 139.694 147.934 140.746 143.229C143.438 131.204 130.967 127.842 121.74 138.105C112.464 148.422 108.998 169.949 114.965 180.181C119.553 188.048 128.652 185.609 143.038 177.069L148.577 173.516L152.49 178.974C146.925 183.771 141.173 187.917 135.343 191.605C130.145 194.488 125.188 195.772 119.254 195.772C108.216 195.596 101.241 192.715 97.9857 185.086C97.7313 185.064 95.1498 187.175 91.9014 189.36C84.4723 194.341 75.337 197.468 67.6554 194.894Z" fill="#0970CB"/>
</svg>
