<svg width="480" height="320" viewBox="0 0 480 320" fill="none" xmlns="http://www.w3.org/2000/svg">
<path d="M88.3294 183.47L99.9731 163.742L103.68 181.757L88.3294 183.47ZM97.5454 148.452L55.3848 213.189L69.6389 212.408L81.4008 194.567L106.093 192.104L110.635 209.382L124.304 208.83L108.358 146.731L97.5454 148.452ZM163.385 139.373L150.606 141.381L138.273 208.481L151.279 207.562L163.385 139.373ZM228.648 143.849C223.999 130.762 208.222 133.95 208.222 133.95L182.382 137.43L170.055 206.844L183.109 206.102L193.195 147.208L203.496 145.921C203.496 145.921 206.047 145.587 208.879 146.094C213.271 146.792 218.3 149.469 215.518 158.224C212.867 169.976 191.223 170.689 191.223 170.689L212.057 203.986L228.137 202.984L211.303 177.47C211.305 177.47 233.323 169.544 228.648 143.849ZM304.29 181.085C295.715 186.667 280.082 186.283 280.082 186.283L286.813 135.643C286.813 135.643 296.865 134.03 298.793 133.805C300.731 133.565 305.044 133.541 307.492 134.074C316.569 134.606 318.343 145.517 318.343 145.517C318.343 145.517 323.496 167.429 304.29 181.085ZM309.993 119.883C309.993 119.883 304.023 119.619 296.919 120.693C289.844 121.755 274.855 123.885 274.855 123.885L263.873 200.687L286.772 199.147C286.772 199.147 310.878 199.214 323.66 180.481C325.902 177.769 340.536 153.239 327.82 130.088C327.82 130.086 320.502 119.574 309.993 119.883ZM408.323 157.93C405.722 168.143 393.083 185.008 375.637 180.976C372.799 180.754 351.375 170.689 365.304 140.318C365.304 140.318 374.871 120.773 393.711 122.438C401.046 122.981 416.221 132.324 408.323 157.93ZM397.602 106.886C364.8 104.986 350.466 140.009 349.213 144.623C337.972 178.782 361.418 194.995 373.794 196.219C406.039 199.099 420.482 166.679 422.802 156.058C431.627 117.341 405.803 107.312 397.602 106.886Z" fill="black"/>
</svg>
