<svg width="480" height="320" viewBox="0 0 480 320" fill="none" xmlns="http://www.w3.org/2000/svg">
<path d="M55.3845 111.505H152.375V208.495H55.3845V111.505Z" fill="white"/>
<path d="M56.7808 113.232H149.698V208.219H56.7808V113.232Z" fill="white"/>
<path d="M97.2321 157.115C97.9568 151.693 91.9388 152.42 91.9388 152.42C92.1911 149.651 96.7569 143.631 103.011 145.317C109.276 147.007 109.755 153.742 109.755 153.742C115.36 124.162 139.245 116.155 149.649 114.042V113.316H57.1687V206.635H134.186C90.8135 199.13 97.2321 157.115 97.2321 157.115Z" fill="#312667"/>
<path d="M129.368 164.687C120.817 160.366 109.03 162.159 109.03 162.159C111.481 196.649 138.28 204.885 146.627 206.635H149.65V117.661C118.566 132.105 129.368 164.687 129.368 164.687Z" fill="#E6001F"/>
<path d="M217.724 121.251C218.228 121.424 218.586 121.639 218.789 121.923C218.984 122.187 219.103 122.588 219.103 123.093V150.802C219.103 151.32 218.984 151.737 218.789 152.001C218.586 152.275 218.229 152.494 217.724 152.663V153.467H226.823V152.663C226.323 152.515 225.974 152.296 225.755 152.005C225.549 151.736 225.45 151.318 225.45 150.801V123.093C225.45 122.588 225.549 122.187 225.743 121.903C225.937 121.626 226.308 121.403 226.822 121.251V120.459H217.722V121.251H217.724ZM416.405 120.319V121.074C416.893 121.251 417.234 121.459 417.424 121.718C417.624 121.974 417.712 122.351 417.712 122.853V139.397C417.712 141.311 417.624 142.72 417.455 143.632C417.278 144.548 416.954 145.305 416.472 145.935C415.181 147.579 413.854 148.402 410.686 148.402C407.529 148.402 406.21 147.579 404.901 145.935C404.412 145.305 404.087 144.548 403.901 143.632C403.731 142.72 403.64 141.311 403.64 139.397V122.853C403.64 122.352 403.74 121.965 403.931 121.713C404.131 121.433 404.471 121.233 404.933 121.074V120.319H396.275V121.074C396.778 121.251 397.106 121.459 397.306 121.719C397.495 121.974 397.597 122.352 397.597 122.854V141.437C397.597 143.758 397.856 145.763 398.372 147.436C398.906 149.133 399.858 150.477 401.194 151.466C403.568 153.162 406.037 154.006 410.487 154.006C416.593 154.006 419.695 152.459 421.654 149.31C422.77 147.551 423.308 144.931 423.308 141.438V122.852C423.308 122.351 423.423 121.973 423.594 121.717C423.794 121.459 424.133 121.251 424.616 121.073V120.319H416.405ZM185.878 139.898L186.144 139.263L185.878 139.898ZM206.833 135.727L201.076 121.594C201.141 121.918 201.239 122.262 201.406 122.629L206.833 135.727Z" fill="#312667"/>
<path d="M212.56 149.494L206.835 135.727L201.408 122.629C201.256 122.298 201.146 121.951 201.077 121.594L199.866 118.628L198.132 114.368C197.285 113.376 196.494 114.368 196.494 114.368L194.728 118.628L186.144 139.263L185.878 139.898L181.841 149.966C181.445 150.944 181.115 151.607 180.805 151.949C180.513 152.288 180.074 152.531 179.485 152.663V153.467H189.172V152.663C188.216 152.374 187.742 151.854 187.742 151.099C187.742 150.697 187.875 150.153 188.137 149.472L190.118 144.524H203.396L205.423 149.471C205.705 150.183 205.864 150.697 205.864 151.07C205.864 151.938 205.376 152.472 204.409 152.663V153.467H215.25V152.663C214.644 152.532 214.178 152.248 213.817 151.833C213.458 151.424 213.034 150.647 212.56 149.494ZM192.056 139.777L196.812 127.363L201.552 139.777H192.056ZM314.214 140.651L313.96 141.227H313.977L314.214 140.651ZM333.113 137.414L327.849 124.499C327.916 124.797 328.009 125.116 328.145 125.445L333.113 137.414Z" fill="#312667"/>
<path d="M338.357 150L333.113 137.414L328.145 125.444C328.019 125.138 327.92 124.821 327.849 124.498L326.756 121.792L325.166 117.909C324.395 117 323.665 117.909 323.665 117.909L322.046 121.792L314.213 140.651L313.977 141.227L310.281 150.428C309.927 151.315 309.606 151.919 309.335 152.246C309.055 152.558 308.662 152.764 308.136 152.892V153.629H316.979V152.892C316.106 152.628 315.682 152.142 315.682 151.451C315.682 151.101 315.785 150.603 316.042 149.971L317.831 145.461H329.965L331.821 149.971C332.094 150.616 332.227 151.113 332.227 151.433C332.227 152.236 331.787 152.71 330.909 152.894V153.629H340.783V152.894C340.259 152.765 339.817 152.517 339.489 152.134C339.154 151.753 338.765 151.035 338.356 150H338.357ZM319.61 141.104L323.97 129.79L328.289 141.104H319.61ZM371.799 140.651L371.564 141.227H371.572L371.799 140.651ZM390.705 137.414L385.447 124.498C385.496 124.797 385.596 125.115 385.735 125.444L390.705 137.414Z" fill="#312667"/>
<path d="M395.932 150.001L390.706 137.414L385.736 125.445C385.598 125.116 385.497 124.798 385.448 124.498L384.341 121.793L382.766 117.909C381.981 117.001 381.265 117.909 381.265 117.909L379.647 121.793L371.798 140.651L371.572 141.227L367.864 150.429C367.512 151.315 367.191 151.919 366.928 152.246C366.648 152.558 366.256 152.764 365.739 152.893V153.629H374.57V152.893C373.696 152.628 373.259 152.142 373.259 151.451C373.259 151.101 373.378 150.603 373.628 149.972L375.424 145.461H387.56L389.415 149.972C389.689 150.616 389.809 151.113 389.809 151.433C389.809 152.236 389.369 152.71 388.501 152.894V153.63H398.393V152.894C397.841 152.765 397.41 152.518 397.08 152.135C396.759 151.753 396.376 151.035 395.932 150.001ZM377.2 141.104L381.556 129.79L385.883 141.104H377.2ZM365.244 144.359C364.62 144.826 364.283 145.271 363.42 145.863C361.034 147.469 358.49 148.28 355.795 148.28C352.623 148.28 350.102 147.323 348.222 145.437C345.979 143.213 344.88 140.327 344.88 136.729C344.88 133.15 345.979 130.261 348.222 128.042C350.102 126.158 352.623 125.192 355.795 125.192C358.49 125.192 361.035 125.996 363.42 127.62C363.556 127.691 363.639 127.764 363.764 127.845L363.782 127.931H365.093V120.218H363.861C363.68 121.679 361.487 120.715 361.487 120.715L361.496 120.724C361.217 120.608 360.947 120.496 360.682 120.412C359.113 119.872 357.222 119.59 355.038 119.59C349.049 119.59 344.581 121.816 341.619 126.255C339.659 129.217 338.667 132.71 338.667 136.726C338.667 139.674 339.205 142.359 340.317 144.808C341.259 146.942 342.564 148.729 344.208 150.161C347.038 152.639 350.617 153.887 355.003 153.887C357.215 153.887 359.112 153.609 360.713 153.043C361.85 152.639 363.206 151.957 364.729 151.03C364.729 151.029 365.844 143.905 365.241 144.357L365.244 144.359ZM306.073 152.001C305.883 151.736 305.783 151.319 305.783 150.802L301.082 125.386L300.369 120.893L300.01 118.629L299.309 114.282C299.309 114.282 298.979 113.602 298.262 114.165L296.22 118.629L295.367 120.497L293.218 125.19L286.813 136.51L279.367 123.093L278.516 121.158L277.39 118.63L275.402 114.167C274.681 113.603 274.294 114.242 274.294 114.242L273.566 118.63L273.187 120.938L272.776 123.439C272.776 123.439 272.794 123.457 272.825 123.495L267.768 150.803C267.628 151.452 267.546 151.76 267.339 152.042C267.138 152.298 266.895 152.496 266.383 152.666V153.469H275.894V152.665C275.362 152.495 275.014 152.269 274.815 152.003C274.63 151.73 274.524 151.321 274.524 150.805L277.396 131.929L286.831 149.89L296.107 132.077L298.504 150.804C298.504 151.322 298.402 151.74 298.214 152.009C297.992 152.292 297.638 152.518 297.135 152.667V153.471H307.151V152.667C306.63 152.494 306.272 152.276 306.072 152L306.073 152.001ZM257.472 152.141C257.28 151.928 257.033 151.607 256.727 151.186C256.658 151.089 256.577 150.977 256.504 150.857C256.472 150.809 256.442 150.755 256.396 150.698L250.965 140.788L249.701 138.503C250.525 138.198 251.308 137.796 252.008 137.29C254.336 135.603 255.85 132.873 255.85 129.789C255.85 124.986 252.191 121.033 247.519 120.58C247.207 120.54 246.894 120.52 246.58 120.518H241.774C241.46 120.522 241.146 120.542 240.834 120.58H232.397V121.326C232.871 121.498 233.219 121.711 233.416 121.965C233.602 122.235 233.704 122.59 233.704 123.105V151.154C233.704 151.642 233.602 152.005 233.416 152.267C233.221 152.532 232.873 152.739 232.397 152.906V153.665H241.051V152.906C240.553 152.752 240.228 152.558 240.034 152.289C239.84 152.009 239.745 151.642 239.745 151.154V141.836H239.731V134.123H239.745V126.013H246.191C246.353 126.032 246.536 126.089 246.763 126.17C248.215 127.065 249.194 128.668 249.194 130.515C249.194 133.331 246.926 135.614 244.1 135.614L240.982 135.632L242.93 139.058L249.152 149.914C251.167 153.555 254.018 153.609 254.018 153.609L259.085 153.665H260.298C259.682 153.617 257.911 152.6 257.472 152.14V152.141ZM213.404 196.18H228.737L229.644 194.124H210.791C210.791 194.124 211.943 192.694 212.367 192.156L204.34 190.423C204.34 190.423 203.495 193.072 203.352 194.124H190.64V196.18H202.225C201.197 198.133 200.604 199.318 198.923 200.811C197.273 202.311 195.383 203.49 193.694 204.493C191.993 205.476 189.302 206.063 188.902 206.331L188.875 207C190.937 206.898 195.1 206.973 200.109 204.914C202.256 204.019 206.282 202.5 209.422 197.246C209.984 198.363 211.167 200.18 211.719 201.016C212.257 201.823 215.354 204.836 218.552 205.821C219.463 206.11 222.966 207.615 224.728 206.823C225.655 206.411 225.149 204.494 226.38 203.624C227.275 203.022 228.096 202.463 229.288 202.234L229.279 201.601C223.739 201.048 221.629 200.577 218.641 199.473C216.4 198.642 213.777 197 213.401 196.18H213.404ZM182.734 167.896C182.734 167.896 182.284 167.026 183.143 167.026C183.997 167.026 188.544 168.066 190.554 169.669C192.559 171.277 192.66 173.292 191.588 175.307C190.494 177.311 190.036 177.311 190.036 177.311C190.036 177.311 189.454 178.225 188.37 176.958C187.279 175.703 186.59 171.965 182.734 167.896ZM178.658 178.333C178.658 178.333 178.31 177.359 179.348 177.538C180.393 177.702 184.116 178.286 186.349 179.906C188.598 181.502 188.945 183.622 187.512 185.873C187.512 185.873 185.385 189.716 184.386 187.223C184.385 187.222 182.619 182.468 178.658 178.333H178.658Z" fill="#312667"/>
<path d="M179.369 192.994C179.369 192.994 178.297 191.54 180.206 191.853C180.206 191.853 182.282 192.228 183.353 192.694C183.353 192.694 185.186 193.692 186.346 191.327L193.765 177.379L194.382 178.769L189.699 194.313C189.699 194.313 188.792 197.362 189.628 199.815C189.628 199.815 190.591 203.624 187.639 206.331C187.639 206.331 186.26 208.228 185.34 205.476C185.341 205.476 183.354 197.445 179.369 192.993V192.994ZM217.322 189.275C217.222 189.339 217.299 189.302 217.322 189.275V189.275Z" fill="#312667"/>
<path d="M227.566 171.454L226.142 171.45L209.646 171.473V171.45L209.878 169.99C210.28 169.536 211.983 168.094 211.983 168.094L212.167 167.253L203.305 167.262C203.421 170.522 203.421 170.522 203.345 171.474H199.929L193.261 169.587V193.163L199.929 192.006V190.528C201.488 190.229 204.393 189.238 206.803 186.25V190.257L212.183 189.828V185.337C214.138 187.308 215.748 189.307 215.748 189.307C217.358 192.582 218.677 189.584 218.677 189.584C218.817 189.341 218.929 189.083 219.009 188.815V193.163L225.789 192.006V173.942C226.216 173.568 227.275 172.694 227.442 172.442C227.596 172.243 227.565 171.457 227.565 171.457L227.566 171.454ZM199.93 188.787V183.421H203.151C203.047 184.246 202.528 186.797 199.93 188.787ZM199.93 181.862V177.73C201.639 178.874 202.619 180.646 203.394 181.862H199.93ZM206.804 180.136C205.095 176.83 200.891 177.377 199.93 177.553V176.914L206.804 176.622V180.136ZM199.93 176.09V173.69H210.393C207.573 174.509 203.087 175.717 199.93 176.089V176.09ZM212.184 180.958V176.387L215.336 176.261C214.088 178.914 212.915 180.299 212.184 180.958ZM219.011 187.26C218.224 184.855 213.74 183.882 212.591 183.669V183.47H219.011V187.26ZM219.011 181.942H214.165C215.609 181.243 217.913 179.777 219.011 179.047V181.942ZM219.011 178.244L215.648 176.246L217.764 176.165C217.764 176.165 218.917 176.336 217.935 175.125C217.57 174.675 217.199 174.16 216.868 173.691H219.011V178.244ZM254.561 169.013L247.352 167.503V206.703H254.561V185.171H260.66V187.593L267.035 186.196V169.003L254.561 169.013ZM260.66 181.816V182.858H254.56V178.244H260.66V181.816ZM260.66 171.81V175.929H254.56V171.29H260.659L260.66 171.81ZM292.463 169.013V169.004L277.974 169.013L270.681 167.503V187.316L277.062 185.931V185.171H283.725V199.692H283.693C283.693 199.692 283.928 200.97 283.072 200.97C282.204 200.97 273.101 200.339 273.101 200.339L272.976 200.912C272.976 200.912 277.457 203.553 278.832 205.04C278.832 205.04 279.404 207.405 282.097 207.405C282.097 207.405 284.625 207.459 286.981 206.44C289.062 205.533 291.013 203.776 291.013 200.372V172.115C291.547 170.826 293.386 169.61 293.386 169.61L293.449 169.012H292.464L292.463 169.013ZM283.726 181.816V182.858H277.063V178.244H283.726V181.816ZM283.726 171.81V175.929H277.063V171.29H283.726V171.81ZM357.67 200.684C357.67 200.684 355.768 199.214 355.628 195.186C355.628 195.186 355.245 194.688 354.673 195.136C354.673 195.136 354.149 199.213 353.422 200.37C353.422 200.37 352.873 201.039 352.312 200.513C352.09 200.265 351.975 199.898 351.975 199.414V181.567C352.312 180.135 354.543 178.805 354.543 178.805L354.574 177.996H345.552L345.524 178.014L342.021 177.987L335.946 176.656V188.518C335.946 189.888 335.928 191.354 335.892 192.873C335.888 192.986 335.87 193.108 335.87 193.212C335.741 194.773 334.827 203.174 330.495 206.407C330.495 206.407 329.811 207.125 330.532 207.23C331.25 207.356 342.247 205.543 341.946 191.598C341.996 190.811 342.021 190.022 342.021 189.233V180.296H345.649L345.64 200.907C345.64 200.907 345.176 205.816 349.999 206.128H354.737C354.737 206.128 357.204 206.16 358.327 202.77C358.329 202.772 358.764 201.349 357.67 200.681L357.67 200.684Z" fill="#312667"/>
<path d="M357.751 175.646L358.794 173.134H347.085C347.085 172.822 347.085 172.31 347.15 171.449C347.294 169.381 349.659 168.623 349.659 168.623V167.698H340.675V173.135H323.597V171.878C323.597 169.537 326.014 168.591 326.014 168.591V167.735H317.334V173.293L312.615 172.342V185.313H308.61V187.529H312.615V192.589C312.615 192.589 311.924 200.129 309.99 203.624C309.99 203.624 308.681 206.089 308.199 206.563C308.199 206.563 307.624 207.789 309.039 207.234C309.039 207.234 316.095 205.062 317.972 196.58C318.16 195.857 318.268 195.213 318.349 194.705C318.465 193.918 318.493 192.838 318.572 191.7L318.634 190.104C319.945 191.632 320.841 196.09 320.841 196.09C321.012 197.632 322.267 196.943 322.267 196.943C323.8 195.938 324.51 195.023 324.849 194.376V199.83L324.712 200.942C324.712 200.942 324.459 201.741 323.508 201.741H318.071C318.071 201.741 317.881 201.975 318.128 202.166C318.128 202.166 320.894 204.006 321.341 205.857C321.341 205.857 321.947 207.536 323.37 207.34C323.37 207.34 330.309 207.044 330.461 200.315L330.497 187.53H333.858L334.38 185.315H330.499L330.526 175.647H357.749L357.751 175.646ZM324.848 175.735V179.601C323.781 178.149 320.381 176.441 318.898 175.735H324.848ZM318.632 178.274C320.186 180.262 320.662 183.575 320.662 183.575C320.891 184.034 320.945 185.237 321.922 184.548C322.584 184.083 324.133 183.08 324.847 181.903V185.315H318.632V178.274ZM318.632 188.106V187.529H324.847V192.316C323.781 190.136 319.994 188.593 318.632 188.106ZM393.942 195.109H381.131V192.236H416.064V195.109H402.544V203.792H423.216L422.179 206.343H374.326V203.792H393.941V195.109H393.942ZM423.873 172.94H401.495V170.847C401.737 169.339 403.952 168.623 403.952 168.623C404.298 168.161 403.997 167.698 403.997 167.698H395.039V172.941H381.406L375.427 171.215V183.055L382.211 181.8V175.307H414.86V181.513L421.383 180.669V176.24C421.383 176.24 422.057 174.331 423.728 173.975C423.727 173.974 424.153 173.614 423.875 172.94L423.873 172.94Z" fill="#312667"/>
<path d="M388.535 176.47C388.535 176.47 386.003 187.108 375.974 189.78C375.974 189.78 375.746 190.703 376.273 190.785C376.273 190.785 390.285 191.621 394.422 181.139C394.422 181.139 395.037 179.217 396.557 179.602C396.557 179.602 396.949 178.847 396.724 178.69L388.535 176.47ZM409.714 177.423L400.403 177.378V185.97C400.403 185.97 400.477 190.74 404.665 190.804H415.742C415.742 190.804 419.354 190.74 420.688 185.911C420.688 185.911 417.288 185.296 416.835 181.721L415.527 185.35C415.527 185.35 415.403 185.747 414.82 185.747H407.653C407.653 185.747 407.189 185.639 407.189 185.235V180.237C407.189 180.237 408.045 178.447 409.714 178.174C409.714 178.175 410.107 177.537 409.714 177.422V177.423Z" fill="#312667"/>
</svg>
