<svg width="480" height="320" viewBox="0 0 480 320" fill="none" xmlns="http://www.w3.org/2000/svg">
<path fill-rule="evenodd" clip-rule="evenodd" d="M334.963 104.051L277.241 215.95H309.081C300.706 203.479 298.486 182.749 309.455 162.894C321.19 141.659 348.003 121.55 381.138 112.432C381.138 112.432 390.824 124.718 398.825 146.686L408.326 104.051H334.963ZM373.695 215.758C373.695 215.758 380.391 203.662 379.273 184.672C379.273 184.672 388.963 175.555 393.241 173.317L384.122 215.758H373.695Z" fill="#33AB8F"/>
<path fill-rule="evenodd" clip-rule="evenodd" d="M330.128 215.758H362.149C371.828 202.731 370.715 176.287 364.202 159.721C347.629 169.224 324.912 192.484 330.128 215.758ZM336.634 168.843C336.634 168.843 335.338 156.001 332.729 149.854C310.011 169.965 307.402 196.771 319.323 213.158C317.456 193.611 328.815 177.597 336.634 168.843ZM360.662 149.854C360.662 149.854 350.42 154.879 345.769 160.469C346.137 156.747 340.919 142.78 340.919 142.78C340.919 142.78 348.927 137.19 353.022 134.957C356.941 139.605 360.662 149.854 360.662 149.854ZM376.854 124.528C379.658 129.187 384.303 138.117 384.303 138.117C384.303 138.117 373.506 142.403 369.593 144.834C369.411 142.593 362.523 130.487 362.523 130.487C362.523 130.487 370.715 126.762 376.854 124.528ZM377.784 172.008C378.349 167.911 373.323 154.322 373.323 154.322C378.414 152.092 383.506 149.86 388.596 147.626L392.875 161.766C392.875 161.766 383.74 166.983 377.784 172.008ZM87.0395 165.311C86.109 165.311 82.8465 165.685 81.1761 165.486C79.4983 165.311 78.477 164.746 78.477 163.541C78.477 162.329 80.4288 161.947 81.2743 161.947H87.0395C87.0395 161.947 89.4587 161.865 89.4587 163.541C89.4587 165.213 87.9766 165.311 87.0395 165.311ZM90.0214 150.784H80.5203C74.8527 150.784 72.429 153.483 72.429 157.022H79.3144C79.3144 155.725 80.3372 155.252 82.5651 155.252H87.1384C87.1384 155.252 89.5503 154.879 89.5503 157.487V159.44C88.1612 157.769 86.9487 157.861 82.2904 157.861C77.6433 157.861 71.6743 158.326 71.6743 162.894V165.588C71.6743 167.541 73.6335 170.063 76.9883 170.063H85.0811C85.0811 170.063 88.1605 170.141 89.7467 167.073V169.591H96.4497V157.678C96.4497 153.678 95.0466 150.784 90.0214 150.784ZM99.4191 169.497H106.219V151.16H99.4191V169.496V169.497ZM99.5165 148.824H106.219V143.805L99.5165 143.707V148.824ZM124.462 150.879C121.48 150.603 120.465 150.879 120.465 150.879C120.465 150.879 117.575 151.249 115.995 154.133V151.059H109.385V169.591H116.277V158.883C116.277 157.298 117.955 155.725 119.626 155.725C121.952 155.725 124.186 155.63 124.186 159.348H130.89C130.7 152.001 128.826 151.282 124.462 150.879ZM144.113 130.77C144.113 130.77 140.994 137.601 138.451 143.028C135.91 148.465 134.278 151.662 134.068 152.147C133.865 152.629 133.531 153.621 134.029 154.447C134.527 155.259 135.949 157.009 136.127 157.271C136.302 157.526 137.318 158.293 137.816 157.022C138.307 155.751 142.089 147 142.835 145.161C143.576 143.33 147.154 135.444 147.867 133.869C148.57 132.293 149.099 130.762 148.779 129.73C148.457 128.696 147.612 127.748 146.714 128.079C145.804 128.393 144.86 129.154 144.113 130.77Z" fill="#33AB8F"/>
<path fill-rule="evenodd" clip-rule="evenodd" d="M144.788 142.915C144.971 143.779 146.8 144.087 149.322 144.034C151.839 143.99 156.864 143.759 160.351 144.471C163.837 145.194 168.422 147.049 167.886 150.403C167.342 153.749 161.556 157.205 155.527 159.839C149.506 162.479 142.299 164.57 137.797 164.873C133.288 165.187 134.003 164.349 134.041 164.072C134.082 163.811 135.359 162.269 139.953 160.011C144.552 157.756 149.807 155.61 151.532 155.066C153.26 154.503 154.034 154.316 154.381 154.483C154.728 154.649 156.739 155.347 158.208 154.542C159.661 153.73 159.585 151.865 158.876 151.141C158.169 150.417 157.114 149.834 154.06 151.02C150.994 152.199 145.667 154.61 140.004 157.848C134.337 161.084 130.083 163.717 129.402 164.176C128.715 164.611 127.482 165.591 127.588 166.983C127.706 168.371 131.479 170.545 136.676 169.755C141.859 168.955 149.899 166.983 156.485 164.072C163.056 161.163 168.444 157.075 169.544 155.574C170.645 154.08 171.247 151.724 171.326 151.072C171.398 150.423 170.927 146.309 166.765 144.002C162.591 141.692 158.332 140.961 157.33 140.758C156.327 140.559 155.797 140.303 155.835 139.963C155.869 139.618 156.864 139.202 157.847 138.842C158.844 138.472 168.109 134.911 167.742 129.534C167.375 124.154 154.014 124.38 151.197 124.603C148.385 124.839 137.639 125.91 133.243 127.299C128.839 128.688 125.785 129.79 124.947 131.365C124.108 132.944 124.305 134.413 125.314 134.783C126.324 135.156 127.339 134.055 127.974 133.171C128.61 132.293 130.661 130.816 134.769 129.917C138.871 129.009 143.589 128.393 145.063 128.241C146.531 128.079 149.827 127.748 151.432 127.589C153.031 127.434 157.323 127.086 159.938 127.778C162.552 128.459 163.916 129.305 163.718 130.258C163.522 131.217 161.32 132.876 158.673 134.264C154.813 136.29 149.945 138.21 148.745 138.799C147.534 139.385 144.788 140.916 144.788 142.915ZM242.021 149.221C243.667 149.267 245.18 150.718 245.061 151.851C244.957 152.978 244.821 154.709 242.695 154.892C241.399 155.003 240.089 154.293 240.089 154.293C240.089 154.293 236.551 155.489 233.642 157.71C230.731 159.945 227.338 163.908 227.279 165.382C227.227 166.864 228.229 167.309 229.945 166.59C231.675 165.861 234.631 164.02 239.669 159.813C244.361 155.879 245.067 154.234 245.455 153.798C245.835 153.346 247.395 151.059 248.214 150.745C249.039 150.423 249.984 150.273 250.592 150.784C251.215 151.295 251.084 153.556 250.539 154.388C249.997 155.227 248.39 157.599 247.861 159.342C247.335 161.09 246.772 163.496 247.861 163.679C248.947 163.874 250.259 162.16 252.138 160.56C254.008 158.975 260.5 153.369 260.5 153.369C260.5 153.369 262.412 151.25 263.757 151.315C265.106 151.367 265.815 152.012 266.396 152.904C266.975 153.811 267.57 155.138 267.373 156.361C266.959 157.363 266.207 158.766 266.737 159.027C267.255 159.276 267.557 159.086 268.585 158.162C269.609 157.225 273.577 154.375 276.075 153.031C278.565 151.669 279.733 151.524 281.18 152.235C282.628 152.941 283.696 154.395 283.806 155.689C283.912 156.996 283.898 158.333 283.5 160.127C283.1 161.91 282.163 164.97 283.828 165.711C285.399 166.508 287.05 163.874 287.05 163.874C287.05 163.874 290.537 160.508 292.508 159.211C294.476 157.913 294.959 157.861 295.059 158.425C295.151 158.987 295.059 160.639 294.245 161.648C293.44 162.658 286.317 169.015 284.817 169.864C283.317 170.717 281.434 170.063 280.08 169.224C278.717 168.378 277.857 166.837 277.772 164.491C277.68 162.154 278.029 157.638 278.06 157.238C278.1 156.852 278.042 156.236 277.353 156.433C276.659 156.615 272.111 159.217 267.209 163.141C261.849 167.062 259.184 170.402 257.618 169.964C256.569 169.46 256.325 168.117 256.312 167.597C256.307 167.073 256.045 165.004 256.6 164.334C257.152 163.672 260.074 161.163 261.003 159.132C261.475 158.077 261.495 157.783 261.495 157.783L261.857 156.295C261.555 156.085 260.998 156.838 260.021 157.717C257.754 159.276 250.992 166.347 248.856 167.335C246.733 168.311 245.101 167.833 244.46 167.193C243.83 166.549 242.992 164.97 243.161 163.508C243.319 162.041 243.745 160.338 243.575 160.114L242.677 160.417C242.224 160.822 236.695 165.972 232.645 168.528C228.602 171.083 226.322 171.644 224.461 169.407C222.592 167.166 223.405 163.634 224.48 161.947C225.555 160.259 228.72 156.039 232.095 153.57C235.463 151.086 240.376 149.161 242.021 149.221ZM217.482 154.689C217.482 154.689 211.349 160.442 205.308 164.428C201.14 167.166 200.354 166.647 200.046 166.261C199.778 165.932 200.649 163.601 204.194 160.848C207.739 158.083 213.885 155.099 217.482 154.689ZM210.288 173.653C210.288 173.653 207.634 178.977 202.903 183.625C198.302 188.148 195.125 189.996 194.077 188.683C193.041 187.358 196.586 181.854 197.7 180.534C198.815 179.209 201.978 176.247 205.655 174.746C209.344 173.247 210.288 173.653 210.288 173.653ZM222.6 152.455L221.742 150.866L220.031 151.993L219.141 152.878C219.291 152.046 219.107 151.275 218.832 150.536C218.563 149.804 217.469 149.612 215.693 149.906C213.924 150.201 208.977 152.422 204.764 154.804C200.563 157.186 197.674 160.626 197.595 160.841L196.613 161.82L193.487 163.829C192.962 163.881 192.589 164.114 192.714 161.843C192.845 159.591 194.43 156.747 195.158 155.855C195.886 154.978 197.156 151.649 195.886 150.77C194.515 149.818 192.641 151.57 192.177 152.225C191.718 152.89 190.918 154.336 186.915 158.188C182.537 162.407 176.739 166.111 175.146 166.923C173.559 167.742 172.19 166.59 172.735 165.24C173.717 162.434 177.217 159.198 179.609 157.422C182 155.637 185.669 154.483 185.669 154.483C185.669 154.483 188.342 155.643 189.581 154.624C191.023 153.429 190.545 150.911 189.437 150.021C188.35 149.133 187.563 149.282 187.262 149.29C186.961 149.297 185.139 149.542 181.659 151.086C178.166 152.639 173.876 156.878 171.961 159.086C170.055 161.293 169.432 162.781 168.731 165.094C168.175 167.623 169.826 172.015 174.23 170.717C178.364 169.202 184.969 163.481 186.253 162.154C187.53 160.822 188.514 160.155 188.815 160.194L188.874 160.926L188.684 161.891C188.644 162.37 187.812 166.249 190.355 167.623C192.897 169.015 195.93 166.564 195.93 166.564C195.93 166.564 196.265 168.293 197.798 169.262C199.338 170.23 200.642 170.073 204.16 167.911C207.672 165.763 216.015 159.361 216.519 159.001L216.879 159.303L216.63 159.866C216.63 159.866 215.138 165.849 212.64 169.445C207.535 169.722 203.164 172.367 199.954 174.772C196.75 177.178 193.433 183.146 192.569 185.461C191.704 187.781 191.567 192.203 193.159 193.651C194.746 195.091 198.696 192.536 205.164 186.075C211.631 179.628 214.383 173.796 214.508 173.575L215.55 173.597C215.858 173.717 217.843 175.329 218.943 173.92C220.044 172.52 219.107 171.188 218.4 170.68C217.693 170.178 216.604 169.628 216.604 169.628C216.604 169.628 219.271 164.323 219.632 162.842C219.998 161.366 220.858 158.778 221.02 158.569C221.197 158.346 221.742 157.251 222.332 156.236C222.915 155.233 222.612 153.031 222.6 152.455Z" fill="#33AB8F"/>
</svg>
