<svg width="480" height="320" viewBox="0 0 480 320" fill="none" xmlns="http://www.w3.org/2000/svg">
<path d="M227.235 129.368C227.429 109.562 231.82 97.7558 243.396 85.9173C258.233 70.7415 275.076 66.6406 315.05 68.469C354.362 70.2674 375.01 67.6233 386.712 59.2903L395.079 53.3333L395.038 69.6364C394.986 89.5241 391.061 97.8849 378.26 105.374C369.605 110.438 362.239 111.275 315.222 112.533C265.325 113.869 261.411 114.699 250.076 120.778C237.904 127.305 234.963 134.707 227.085 144.779L227.235 129.368Z" fill="#0925FD"/>
<path d="M85.0748 203.043C83.5936 180.895 92.8302 159.878 111.801 146.969C155.905 116.958 213.713 149.424 213.297 203.693C213.204 215.633 214.443 222.389 217.136 224.622C223.838 230.184 226.958 225.034 226.987 208.359C227.035 180.394 245.076 152.348 269.6 142.119C277.497 138.825 290.58 137.775 323.676 137.775C368.576 137.775 381.67 131.748 395.043 120.022C395.043 126.924 395.065 121.039 394.874 135.239C394.629 153.359 388.575 164.939 375.256 172.764C366.939 177.65 360.339 178.445 325.826 178.718C271.902 179.143 270.892 179.835 268.03 218.261C265.706 249.463 248.98 266.648 221.024 266.648C182.466 266.648 170.92 225.459 170.92 201.444C170.92 186.104 159.839 177.003 146.76 177.003C136.311 177.003 126.088 188.781 126.088 200.819C126.088 226.036 148.205 224.636 168.117 224.636V266.666C153.213 266.609 134.941 267.574 116.495 256.606C98.0494 245.636 86.8197 229.116 85.0748 203.043Z" fill="#199D06"/>
</svg>
