<svg width="480" height="320" viewBox="0 0 480 320" fill="none" xmlns="http://www.w3.org/2000/svg">
<path d="M281.176 95.5474H281.519C272.873 102.717 263.439 108.881 253.711 114.473C237.588 123.615 220.217 130.873 201.938 134.289C178.192 138.692 154.439 143.054 130.693 147.449C125.47 148.354 120.945 151.66 117.71 155.756C112.347 162.597 106.969 169.426 101.587 176.252C96.0618 183.406 87.8252 188.426 78.8905 189.888C87.6294 177.755 96.4053 165.651 105.155 153.525C113.226 141.99 125.71 133.713 139.387 130.474C179.57 120.586 219.763 110.739 259.949 100.866C267.026 99.1043 274.14 97.4717 281.176 95.5474ZM76.316 197.135C80.0392 195.735 84.0873 196.123 87.984 196.116C91.1605 205.593 94.3813 215.056 97.783 224.453H91.1309C89.4504 224.058 87.6664 223.304 86.7541 221.749C86.0781 220.43 85.742 218.975 85.2471 217.586C81.0881 217.564 76.9329 217.564 72.7776 217.542C73.8783 215.444 75.6217 213.59 77.9338 212.866C79.6883 212.249 81.5646 212.172 83.404 212.09C82.403 209.191 81.4132 206.295 80.4122 203.399C76.0723 209.435 72.0204 215.677 67.5697 221.635C66.3287 223.385 64.1975 224.157 62.1512 224.453H55.3846C61.3497 216.164 67.2299 207.813 73.1654 199.506C73.9425 198.407 75.0441 197.577 76.316 197.135ZM118.696 198.129C121.208 196.459 124.329 196.09 127.28 196.094C132.203 196.09 137.123 196.049 142.043 196.153C144.595 196.241 147.506 197.309 148.551 199.835C149.652 202.901 149.249 206.369 147.927 209.302C147.029 211.27 145.171 212.523 143.428 213.679C144.88 214.31 146.878 214.827 147.17 216.656C147.425 219.289 146.557 221.875 146.139 224.453H143.417C141.681 224.028 139.779 223.426 138.734 221.864C137.829 220.608 138.168 218.923 137.478 217.586C136.706 216.441 135.166 216.364 133.921 216.271C130.818 216.198 127.712 216.235 124.609 216.19C125.684 213.741 127.771 211.71 130.394 211.023C132.816 210.262 135.55 211.126 137.847 209.896C139.432 208.781 139.856 206.668 140.004 204.855C140.137 203.688 139.675 202.225 138.349 202.036C136.041 201.641 133.684 201.892 131.358 201.819C129.426 201.881 127.239 201.608 125.621 202.897C124.388 203.776 124.011 205.327 123.716 206.727C123.095 209.907 122.707 213.132 122.138 216.323C121.732 218.525 120.879 220.744 119.243 222.325C117.972 223.5 116.291 224.128 114.615 224.453H111.571C112.716 218.044 113.765 211.618 114.995 205.228C115.52 202.594 116.395 199.754 118.696 198.129ZM220.771 197.46C223.283 196.286 226.112 196.079 228.845 196.086C234.035 196.094 239.224 196.06 244.41 196.156C246.815 196.241 249.614 196.747 250.977 198.963C252.573 201.471 251.731 204.555 251.291 207.274C250.493 211.193 250.183 215.237 248.887 219.038C247.86 222.052 244.994 224.179 241.839 224.453H219.22C217.192 224.035 215.179 222.813 214.426 220.803C213.55 218.259 214.138 215.536 214.562 212.966C215.187 209.656 215.563 206.28 216.594 203.06C217.351 200.843 218.548 198.505 220.771 197.46ZM228.273 202.133C227.002 202.369 226.012 203.344 225.499 204.493C224.402 206.956 224.31 209.712 223.759 212.323C223.56 214.114 222.74 216.105 223.704 217.797C224.849 219.175 226.855 219.06 228.48 219.104C231.446 219.038 234.441 219.3 237.389 218.868C239.102 218.672 240.517 217.228 240.776 215.54C241.37 212.371 242.006 209.202 242.497 206.014C242.659 204.821 242.615 203.296 241.529 202.535C239.908 201.719 238.02 201.859 236.258 201.819C233.599 201.896 230.903 201.619 228.273 202.133ZM284.637 196.086C292.644 196.094 300.656 196.071 308.663 196.094C311.286 196.138 314.278 196.415 316.15 198.487C317.916 200.729 317.653 203.802 317.188 206.443C316.376 210.883 316.062 215.514 314.126 219.655C312.915 222.314 310.156 223.925 307.371 224.453H288.733C289.763 222.75 290.894 220.944 292.785 220.094C296.15 218.366 300.061 219.684 303.577 218.628C304.962 218.192 306.026 217.007 306.44 215.632C307.23 213.088 307.489 210.417 308.032 207.817C308.272 206.306 308.634 204.57 307.688 203.226C306.831 202.003 305.177 201.981 303.836 201.885C300.105 201.804 296.371 201.83 292.641 201.822C291.85 206.369 291.075 210.92 290.255 215.459C289.752 217.882 289.014 220.423 287.222 222.226C285.966 223.478 284.238 224.083 282.542 224.453H279.658C281.316 214.997 282.975 205.542 284.637 196.086ZM322.344 199.329C324.132 197.002 327.253 196.415 330.012 196.178C334.585 195.994 339.168 196.127 343.745 196.086C346.559 196.127 349.474 195.898 352.181 196.843C353.821 197.364 355.003 198.849 355.42 200.485C356.211 203.303 355.228 206.177 354.829 208.973C354.102 212.604 353.884 216.39 352.395 219.821C351.254 222.418 348.583 224.061 345.839 224.453H323.09C321.159 224.013 319.064 223.012 318.348 221.025C317.232 217.923 318.185 214.624 318.669 211.496C319.452 207.344 319.763 202.849 322.344 199.329ZM332.055 202.155C330.932 202.424 329.824 203.122 329.395 204.242C328.272 206.93 328.103 209.878 327.556 212.711C327.331 214.218 326.825 215.788 327.305 217.295C327.67 218.447 328.982 218.864 330.068 218.971C332.513 219.226 334.976 219.068 337.433 219.108C339.379 219.056 341.543 219.248 343.202 218.026C344.413 217.136 344.631 215.54 344.901 214.17C345.366 211.426 345.968 208.707 346.36 205.952C346.515 204.762 346.441 203.252 345.348 202.513C343.704 201.719 341.806 201.859 340.033 201.819C337.373 201.896 334.677 201.612 332.055 202.155ZM356.281 196.079C359.184 196.142 362.19 195.983 364.964 196.987C366.634 197.593 367.546 199.259 368.085 200.847C369.995 206.469 371.871 212.101 373.774 217.727C377.515 212.43 381.249 207.126 384.987 201.826C386.195 200.234 387.122 198.21 389.069 197.39C392.145 196.012 395.591 196.053 398.897 196.09C392.991 204.485 387.074 212.873 381.135 221.247C379.875 223.105 377.707 224.076 375.561 224.453H366.42C362.822 215.071 359.69 205.527 356.281 196.079ZM404.29 196.81C407.71 195.817 411.311 196.119 414.824 196.112C418.174 205.442 421.313 214.846 424.615 224.19V224.453H417.952C416.371 224.061 414.772 223.308 413.834 221.926C413.084 220.571 412.77 219.034 412.26 217.583C408.101 217.575 403.946 217.609 399.791 217.546C400.604 216.146 401.464 214.676 402.886 213.812C405.099 212.349 407.828 212.153 410.406 212.101C409.398 209.191 408.393 206.277 407.385 203.366C403.725 208.615 400.149 213.926 396.4 219.116C395.333 220.501 394.483 222.129 392.991 223.116C391.802 223.884 390.409 224.257 389.021 224.453H382.372C388.378 216.116 394.365 207.758 400.245 199.333C401.224 198.014 402.742 197.246 404.29 196.81ZM106.633 198.646C108.653 196.788 111.516 196.378 114.142 196.182C113.008 203.015 111.796 209.834 110.478 216.63C110.142 218.27 109.584 219.902 108.561 221.254C107.275 223.071 105.144 224.069 103.002 224.453H100.114C101.214 218.292 102.289 212.131 103.39 205.97C103.907 203.344 104.705 200.6 106.633 198.646ZM170.498 197.859C173.254 196.278 176.615 195.909 179.699 196.529C181.653 196.936 183.511 198.339 183.946 200.363C185.335 205.819 186.558 211.315 187.88 216.785C191.09 211.344 194.303 205.907 197.498 200.459C198.326 198.989 199.615 197.77 201.214 197.187C203.564 196.323 206.092 196.052 208.571 196.4C210.54 196.696 212.609 197.759 213.296 199.746C214.278 202.513 213.44 205.457 212.993 208.242C212.036 213.649 211.098 219.06 210.045 224.453H207.504C205.731 224.021 203.94 223.09 203.057 221.42C202.13 219.684 202.311 217.634 202.547 215.751C203.068 212.135 203.766 208.548 204.413 204.951C201.207 210.203 198.049 215.488 194.868 220.755C193.631 222.853 191.326 224.076 188.977 224.453H184.416C182.587 224.102 180.678 223.186 179.828 221.435C179.137 219.902 178.835 218.236 178.417 216.619C177.501 212.696 176.493 208.799 175.459 204.906C174.805 208.526 174.214 212.157 173.542 215.773C173.069 218.211 172.219 220.73 170.314 222.432C169.073 223.607 167.396 224.154 165.745 224.453H162.912C164.193 218.007 165.157 211.499 166.365 205.039C166.997 202.343 168.057 199.421 170.498 197.859ZM256.44 199.266C258.409 196.851 261.703 196.396 264.618 196.186C263.498 202.539 262.35 208.888 261.293 215.252C261.057 216.493 261.157 218.299 262.612 218.724C266.62 219.766 271.07 218.177 274.864 220.209C276.489 221.007 276.961 222.864 277.434 224.453H257.153C254.715 224.017 252.259 222.244 251.978 219.629C251.69 216.283 252.673 213.003 253.12 209.712C253.777 206.14 254.058 202.195 256.44 199.266Z" fill="#004595"/>
<path d="M134.323 153.1C157.715 149.266 181.106 145.425 204.494 141.587C194.466 149.776 183.208 156.543 171.052 161.06C164.437 163.501 157.519 165.134 150.498 165.825C138.231 167.125 125.965 168.432 113.699 169.736C116.605 166.161 119.472 162.552 122.397 158.991C125.378 155.516 129.839 153.625 134.323 153.1Z" fill="#FFED00"/>
<path d="M108.402 176.396C123.457 175.011 138.512 173.648 153.574 172.359C143.864 180.817 131.753 186.948 118.822 188.167C110.574 188.655 102.308 188.862 94.0452 189.057C99.7037 185.955 104.302 181.308 108.402 176.396Z" fill="#E53138"/>
</svg>
