<svg width="480" height="320" viewBox="0 0 480 320" fill="none" xmlns="http://www.w3.org/2000/svg">
<path d="M194.361 112.427C194.955 111.965 195.745 112.039 196.453 112.022C202.139 112.046 207.825 111.947 213.511 112.027C213.104 112.911 212.562 113.719 212.027 114.529C206.163 123.616 200.303 132.706 194.458 141.804C194.169 141.834 193.888 141.87 193.605 141.896C188.799 142.2 184 142.629 179.188 142.845C177.566 142.92 175.95 143.077 174.326 143.128C168.312 143.254 162.302 143.903 156.417 145.155C154.921 145.493 153.396 145.755 151.965 146.331L151.864 147.437C159.794 148.071 167.794 147.379 175.578 145.798C179.597 145.02 183.647 144.428 187.675 143.7C189.626 143.398 191.555 142.933 193.528 142.791C193.517 142.909 193.492 143.141 193.481 143.259C191.615 146.316 189.558 149.262 187.7 152.328L187.818 152.409C187.42 152.409 187.023 152.42 186.627 152.416C182.858 152.021 179.164 151.134 175.441 150.449C167.749 148.722 159.839 148.124 151.967 148.27C151.881 148.593 151.795 148.917 151.71 149.241C153.512 150.076 155.457 150.52 157.373 151.012C161.096 151.955 164.899 152.559 168.722 152.902C174.179 153.298 179.661 153.288 185.116 153.744C185.519 153.779 185.92 153.794 186.329 153.815C186.366 154.01 186.363 154.203 186.316 154.396C184.881 156.722 183.33 158.972 181.918 161.31C179.177 160.234 176.461 159.085 173.825 157.77C171.436 156.63 169.054 155.458 166.555 154.58C161.611 152.879 156.65 151.134 151.483 150.245C151.391 150.603 151.301 150.963 151.211 151.323C156.486 154.558 162.116 157.252 168.04 159.07C170.442 159.763 172.882 160.328 175.286 161.018C177.06 161.535 178.877 161.914 180.611 162.557C180.709 162.599 180.902 162.679 181 162.721C179.471 164.952 178.065 167.264 176.551 169.507C173.995 167.778 171.62 165.804 169.249 163.831C167.991 162.786 166.798 161.657 165.459 160.714C160.743 157.371 155.768 154.361 150.484 152C150.292 152.304 150.099 152.606 149.91 152.909C154.266 157.541 159.252 161.618 164.809 164.729C168.488 166.63 172.058 168.731 175.614 170.85C174.618 172.472 173.63 174.251 173.695 176.215C173.78 178.043 175.076 179.573 176.57 180.505C178.07 181.55 179.811 182.15 181.474 182.874C178.997 182.831 176.521 182.748 174.048 182.63C172.115 180.151 170.029 177.794 168.156 175.27C165.893 172.333 163.796 169.273 161.611 166.278C159.537 163.501 157.165 160.965 154.703 158.533C152.852 156.742 151.082 154.845 148.939 153.395C148.734 153.688 148.52 153.976 148.359 154.297C148.597 155.267 149.291 156.037 149.764 156.898C152.927 162.227 156.779 167.178 161.415 171.313C163.954 173.449 166.165 175.932 168.535 178.248C169.928 179.708 171.496 181.014 172.713 182.634C168.642 182.467 164.571 182.729 160.505 182.898C160.361 182.583 160.216 182.272 160.077 181.959C158.836 178.919 157.69 175.838 156.666 172.719C155.387 169.036 153.833 165.447 151.975 162.019C150.621 159.488 149.021 157.099 147.45 154.698C147.05 154.781 146.653 154.865 146.257 154.95C146.424 156.508 146.851 158.018 147.264 159.525C148.543 164.069 150.279 168.498 152.612 172.609C153.795 174.653 155.294 176.506 156.318 178.645C156.987 180.065 157.966 181.342 158.433 182.855C159.106 183.037 159.811 182.968 160.499 183.028C159.363 183.271 158.185 182.979 157.043 183.198C154.75 183.344 152.477 183.695 150.189 183.905C149.946 183.913 149.706 183.918 149.464 183.924C148.865 179.564 149.184 175.148 148.657 170.782C148.262 167.174 147.515 163.615 146.628 160.099C146.219 158.543 145.751 157.003 145.383 155.435C144.882 155.428 144.382 155.418 143.883 155.411C143.583 161.344 143.467 167.381 144.866 173.196C145.334 175.266 146.178 177.227 146.63 179.301C146.941 180.742 147.376 182.163 147.523 183.635C147.528 183.819 147.543 184.186 147.551 184.37C145.609 184.606 143.684 184.967 141.788 185.45C140.56 185.754 139.364 186.172 138.12 186.411C138.891 182.285 139.874 178.199 140.991 174.154C141.839 171.277 142.214 168.292 142.54 165.322C142.878 162.021 143.017 158.704 143.005 155.388C142.572 155.407 142.143 155.428 141.711 155.447C140.249 159.079 139.075 162.831 138.306 166.674C137.175 171.907 137.308 177.286 136.915 182.598C136.793 183.943 136.804 185.304 136.558 186.637L136.468 186.973C133.676 187.871 130.843 188.948 128.585 190.877C127.36 191.897 126.544 193.587 126.983 195.185C127.52 196.803 128.78 198.056 130.121 199.048C132.699 200.923 135.654 202.204 138.651 203.25C142.784 204.645 147.101 205.48 151.451 205.784C155.277 206.091 159.119 206.236 162.958 206.121C158.182 207.153 153.313 207.756 148.432 207.961C141.124 208.253 133.665 207.128 126.993 204.047C123.411 202.256 120.019 200.107 116.754 197.795C113.92 195.742 111.107 193.662 108.246 191.652C105.009 189.602 101.608 187.824 98.1421 186.195C92.0082 183.378 85.4974 181.464 78.904 180.065C71.1311 178.443 63.2383 177.499 55.3848 176.363C56.0842 176.232 56.7968 176.196 57.5075 176.219C72.0219 176.449 86.6056 175.356 100.809 172.26C101.904 172.009 103.044 171.894 104.079 171.429C106.161 170.469 108.22 169.46 110.247 168.388C111.002 167.964 111.749 167.506 112.58 167.238C111.766 168.059 110.729 168.599 109.832 169.321C108.718 170.203 107.597 171.079 106.444 171.911C104.201 173.537 102.029 175.26 99.8092 176.916C98.7497 177.73 97.6395 178.484 96.6644 179.403C98.1721 178.628 99.5879 177.693 101.041 176.824C106.221 173.708 111.229 170.31 116.499 167.341C120.366 165.1 124.416 163.148 128 160.452C131.118 158.123 134.15 155.66 136.956 152.956C136.757 152.69 136.562 152.424 136.365 152.159C140.804 149.243 145.199 146.26 149.617 143.314C150.152 143.481 150.739 143.762 151.288 143.473C156.711 141.103 161.865 138.114 166.6 134.56C172.405 130.108 178.13 125.548 184.047 121.24C186.183 119.553 188.463 118.054 190.558 116.316C188.397 117.4 186.378 118.744 184.334 120.029C183.871 120.306 183.344 120.438 182.832 120.58C183.248 120.188 183.7 119.836 184.172 119.513C187.574 117.16 190.97 114.799 194.361 112.427ZM193.466 129.535C189.74 130.768 186.021 132.03 182.275 133.201C178.65 134.335 175.031 135.5 171.338 136.4C164.306 138.123 157.574 140.938 151.223 144.392C151.301 144.763 151.378 145.135 151.459 145.508C153.936 145.26 156.361 144.653 158.78 144.079C165.06 142.502 171.156 140.178 176.881 137.154C179.739 135.86 182.652 134.693 185.545 133.484C189.177 132.004 192.769 130.423 196.403 128.948C197.037 128.668 197.785 128.528 198.224 127.939C196.65 128.505 195.068 129.047 193.466 129.535ZM137.346 153.869C133.939 156.62 130.507 159.398 127.643 162.73C125.524 164.965 123.784 167.516 121.956 169.985C119.754 173.134 117.307 176.097 115.027 179.185C112.668 182.309 110.175 185.332 107.875 188.5C109.27 187.403 110.254 185.906 111.488 184.648C114.222 181.76 117.071 178.981 119.792 176.078C122.513 173.552 125.101 170.887 127.778 168.314C129.048 167.197 130.117 165.882 131.223 164.609C133.153 162.325 134.964 159.938 136.613 157.442C137.295 156.386 138.081 155.394 138.653 154.269C138.315 153.952 137.807 153.451 137.346 153.869ZM139.654 154.635C138.48 155.883 137.588 157.363 136.601 158.758C134.52 161.986 132.502 165.301 131.184 168.924C129.121 174.27 127.071 179.622 124.943 184.942C123.568 188.516 122.046 192.034 120.756 195.64C121.444 194.68 121.926 193.604 122.449 192.552C123.717 190.095 125.061 187.68 126.368 185.244C128.38 181.586 130.336 177.897 132.48 174.313C136.121 168.275 139.116 161.781 140.778 154.908C140.401 154.816 140.027 154.726 139.654 154.635ZM316.911 165.344C319.923 165.284 322.936 165.308 325.95 165.307C325.511 166.075 325.123 166.955 324.365 167.457C321.457 167.531 318.543 167.497 315.632 167.461C316.013 166.73 316.459 166.036 316.911 165.344ZM332.457 166.889C333.854 165.892 335.56 165.335 337.28 165.333C346.594 165.323 355.911 165.335 365.227 165.355C366.356 165.376 367.702 165.563 368.317 166.647C367.912 167.388 367.456 168.097 366.995 168.802C368.025 168.823 369.056 168.832 370.087 168.856C369.63 169.672 369.116 170.456 368.612 171.242C367.603 171.279 366.583 171.161 365.585 171.332C364.465 172.222 364.229 174.19 362.592 174.394C358.973 174.544 355.346 174.368 351.727 174.495C350.907 174.525 349.861 174.889 349.833 175.857C352.756 176.22 355.716 175.725 358.637 176.138C359.353 176.258 360.13 176.337 360.73 176.792C361.171 177.122 361.501 177.713 361.319 178.27C361.056 179.133 360.516 179.87 360.079 180.646C359.522 181.557 359.059 182.574 358.206 183.254C357.375 183.898 356.272 183.933 355.269 183.946C349.707 183.937 344.147 183.96 338.585 183.93C337.826 183.881 336.843 183.845 336.416 183.101C336.007 182.287 336.749 181.567 337.117 180.901C337.462 180.434 337.693 179.632 338.401 179.662C341.37 179.652 344.34 179.615 347.311 179.684C346.958 180.353 346.634 181.038 346.347 181.737C347.305 181.895 348.479 182.199 349.291 181.481C349.994 180.646 350.641 179.686 350.761 178.572C349.31 178.126 347.78 178.36 346.291 178.306C344.415 178.255 342.482 178.516 340.667 177.923C339.898 177.721 339.384 176.809 339.692 176.059C340.097 175.037 340.759 174.124 341.552 173.368C342.294 172.631 343.405 172.56 344.393 172.532C347.984 172.534 351.575 172.517 355.166 172.507C355.342 172.162 355.519 171.817 355.691 171.472C353.058 171.309 350.422 171.412 347.785 171.394C344.77 171.384 341.753 171.377 338.735 171.42C336.324 175.332 333.875 179.221 331.499 183.157C331.253 183.566 330.9 184.044 330.355 183.952C327.388 183.886 324.418 184.053 321.457 183.855C321.742 183.067 322.256 182.396 322.696 181.691C324.905 178.204 327.116 174.718 329.329 171.234C328.53 171.223 327.733 171.212 326.94 171.185C327.293 170.347 327.765 169.569 328.238 168.793C329.016 168.804 329.796 168.811 330.578 168.787C331.191 168.144 331.718 167.403 332.457 166.889ZM340.159 168.798C345.807 168.808 351.455 168.84 357.101 168.819C357.308 168.431 357.516 168.041 357.72 167.651C356.137 167.178 354.476 167.343 352.85 167.317C349.597 167.326 346.345 167.302 343.093 167.328C341.94 167.339 340.946 168.014 340.159 168.798ZM231.067 169.561C232.287 168.886 233.714 168.802 235.083 168.798C239.83 168.783 244.576 168.796 249.322 168.815C250.241 168.811 251.208 168.92 252.004 169.423C252.472 169.723 252.84 170.336 252.619 170.897C252.262 171.859 251.707 172.731 251.306 173.674C250.713 175.017 249.56 176.044 248.225 176.62C248.409 177.205 248.668 177.859 248.397 178.461C247.914 179.495 247.24 180.425 246.631 181.385C246.207 182.069 245.667 182.72 244.913 183.052C243.784 183.622 242.492 183.517 241.27 183.519C235.706 183.523 230.142 183.508 224.578 183.538C224.006 183.536 223.367 183.534 222.911 183.136C222.615 182.902 222.51 182.488 222.632 182.135C222.926 181.12 223.541 180.245 224.132 179.382C227.382 179.365 230.631 179.358 233.881 179.358C233.619 179.928 233.264 180.474 233.172 181.105C233.487 181.514 234.058 181.488 234.523 181.541C235.47 181.602 236.625 181.443 237.139 180.534C237.596 179.738 238.146 178.973 238.429 178.094C238.423 177.543 237.825 177.287 237.362 177.212C236.113 177.055 234.851 177.16 233.598 177.128C233.941 176.447 234.324 175.785 234.716 175.131C236.381 174.932 238.074 175.135 239.736 174.885C241.163 174.42 241.75 172.894 242.479 171.72C241.759 171.013 240.683 171.202 239.775 171.266C238.952 171.564 238.607 172.476 238.054 173.089C234.757 173.186 231.462 173.128 228.166 173.117C228.949 171.812 229.634 170.28 231.067 169.561ZM301.489 168.789C309.523 168.866 317.556 168.746 325.592 168.86C325.2 169.715 324.677 170.497 324.123 171.253C323.568 171.244 323.013 171.253 322.464 171.279C321.729 172.042 321.359 173.066 320.649 173.845C320.17 174.394 319.392 174.424 318.717 174.452C315.405 174.473 312.092 174.426 308.782 174.482C307.867 174.484 306.901 174.964 306.678 175.915C309.442 176.061 312.21 175.907 314.974 176.035C316.12 176.078 317.206 176.524 318.168 177.128C318.209 177.721 318.312 178.362 318.01 178.908C317.448 179.948 316.823 180.955 316.214 181.97C315.835 182.632 315.323 183.249 314.614 183.568C313.626 184.072 312.484 183.907 311.417 183.931C307.897 183.961 304.377 183.916 300.857 183.976C300.418 184.796 299.903 185.865 298.851 185.942C296.739 185.998 294.624 185.962 292.512 185.962C292.552 185.312 292.713 184.672 293.034 184.102C292.856 183.733 292.569 183.384 292.556 182.96C292.927 182.154 293.503 181.464 293.936 180.689C294.226 180.267 294.45 179.588 295.083 179.658C297.898 179.662 300.715 179.605 303.529 179.699C303.196 180.391 302.896 181.104 302.725 181.857C303.683 181.886 304.651 181.985 305.605 181.839C305.98 181.809 306.205 181.466 306.436 181.209C306.901 180.584 307.331 179.917 307.604 179.185C307.721 178.681 307.171 178.332 306.727 178.345C303.314 178.124 299.835 178.7 296.48 177.831C296.458 177.312 296.308 176.731 296.64 176.275C297.225 175.358 297.808 174.439 298.412 173.535C298.988 172.661 300.13 172.536 301.09 172.519C304.756 172.515 308.422 172.522 312.088 172.517C312.253 172.168 312.42 171.821 312.589 171.474C308.368 171.26 304.141 171.487 299.918 171.349C300.342 170.439 300.878 169.586 301.489 168.789ZM196.678 168.855C206.962 168.843 217.246 168.808 227.53 168.87C227.241 169.65 226.879 170.402 226.41 171.09C225.493 171.204 224.569 171.18 223.65 171.202C222.544 173.183 221.297 175.075 220.119 177.012C219.256 178.613 217.76 180.205 215.778 180.048C212.479 180.037 209.181 180.061 205.882 180.014C206.148 179.495 206.321 178.876 206.793 178.501C207.362 178.287 208.025 178.332 208.537 177.978C208.982 177.599 209.237 177.055 209.541 176.567C210.574 174.76 211.8 173.066 212.725 171.197C211.268 171.167 209.813 171.169 208.357 171.202C206.882 173.794 205.408 176.389 203.904 178.968C203.504 179.63 203.137 180.466 203.474 181.227C203.739 181.505 204.157 181.497 204.515 181.526C208.888 181.582 213.263 181.492 217.636 181.591C218.219 181.599 218.986 181.923 219.011 182.594C218.746 183.62 218.163 184.528 217.767 185.505C214.465 185.477 211.165 185.505 207.862 185.509C208.127 184.841 208.284 184.136 208.327 183.42C207.744 183.348 207.161 183.29 206.576 183.286C202.764 183.299 198.949 183.299 195.137 183.279C194.239 183.268 193.237 182.977 192.729 182.184C192.281 181.383 192.581 180.421 192.984 179.667C194.445 176.828 196.193 174.145 197.582 171.27C196.716 171.234 195.85 171.225 194.983 171.229C195.488 170.396 195.981 169.545 196.678 168.855ZM256.553 168.956C258.829 168.798 261.11 168.901 263.39 168.868C266.032 168.903 268.678 168.798 271.319 168.958C270.902 169.674 270.437 170.36 269.963 171.039C269.048 171.06 268.123 170.998 267.227 171.204C266.375 172.455 265.7 173.811 264.898 175.092C263.608 177.197 262.323 179.307 261.121 181.464C260.662 182.341 260.165 183.213 259.46 183.922C256.202 183.954 252.945 183.946 249.688 183.915C250.254 182.654 251.105 181.556 251.745 180.337C252.266 179.309 253.101 178.422 253.316 177.257C252.326 177.122 251.328 177.117 250.333 177.143C250.633 176.434 251.01 175.765 251.418 175.114C252.606 175.099 253.796 175.093 254.981 174.96C255.793 173.717 256.63 172.485 257.284 171.148C256.671 171.097 256.06 171.056 255.447 171.024C255.771 170.312 256.15 169.627 256.553 168.956ZM277.171 168.913C280.016 168.832 282.862 168.881 285.709 168.868C287.791 168.883 289.874 168.817 291.952 168.945C291.466 169.65 291.065 170.437 290.412 171.007C289.486 171.26 288.291 170.696 287.547 171.491C286.397 172.982 285.495 174.657 284.243 176.067C283.472 176.901 282.311 177.252 281.199 177.197C280.473 178.21 279.751 179.225 279.039 180.247C278.756 180.609 278.658 181.057 278.696 181.509C280.145 181.722 281.614 181.572 283.071 181.674C282.787 182.302 282.577 182.983 282.135 183.521C280.588 183.712 279.016 183.562 277.46 183.601C275.212 183.581 272.961 183.607 270.713 183.59C270.102 183.551 269.395 183.541 268.943 183.069C268.442 182.347 268.508 181.349 268.892 180.592C269.462 179.497 270.283 178.542 270.728 177.379C270.12 177.051 269.425 177.126 268.764 177.143C269.031 176.421 269.417 175.752 269.833 175.107C271.375 175.065 272.931 175.152 274.461 174.913C275.176 174.825 275.647 174.22 276.057 173.689C276.672 172.841 277.316 172.014 277.942 171.174C277.284 171.114 276.624 171.067 275.965 171.032C276.348 170.315 276.755 169.61 277.171 168.913ZM375.767 170.904C376.135 170.188 376.499 169.462 377.035 168.855C392.348 168.834 407.661 168.84 422.975 168.841C423.52 168.86 424.064 168.894 424.616 168.922C424.188 169.612 423.76 170.302 423.397 171.028C422.285 171.255 420.764 170.861 420.07 172.011C417.67 175.947 415.269 179.883 412.892 183.832C411.948 184.01 410.99 183.943 410.041 183.943C407.755 183.922 405.471 183.988 403.187 183.894C404.862 180.817 406.76 177.869 408.449 174.799C409.072 173.642 410.112 172.611 410.064 171.202C408.796 171.163 407.526 171.094 406.263 171.187C405.445 171.227 404.965 171.997 404.56 172.609C402.426 176.099 400.297 179.594 398.171 183.089C397.91 183.468 397.657 184.038 397.098 183.943C394.07 183.935 391.039 183.975 388.013 183.903C388.493 182.885 389.183 181.974 389.569 180.907C388.964 180.346 388.12 180.331 387.347 180.331H371.22C369.962 180.342 368.645 180.179 367.556 179.508C367.031 179.174 366.804 178.516 366.854 177.919C366.907 176.974 367.516 176.205 367.935 175.395C368.358 174.625 368.957 173.74 369.924 173.674C373.105 173.537 376.291 173.783 379.471 173.612C380.551 173.623 381.588 172.658 381.661 171.609C380.99 171.084 380.094 171.161 379.295 171.154C378.228 171.18 377.138 171.041 376.098 171.347C375.983 171.199 375.874 171.05 375.767 170.904ZM392.159 171.202C391.371 172.376 390.794 173.71 389.787 174.726C389.162 175.382 388.23 175.596 387.356 175.611C384.54 175.634 381.719 175.528 378.905 175.647C378.033 175.634 377.438 176.729 377.868 177.469C378.228 177.964 378.865 178.184 379.465 178.159C382.841 178.148 386.216 178.167 389.592 178.15C390.471 178.137 391.512 177.949 391.998 177.124C392.705 175.945 393.382 174.745 394.07 173.552C394.46 172.806 395.058 172.072 394.891 171.174C393.98 171.14 393.067 171.114 392.159 171.202ZM191.842 193.557C192.483 193.379 193.162 193.456 193.821 193.445C199.322 193.441 204.823 193.471 210.324 193.454C211.277 193.435 212.233 193.443 213.186 193.52C212.73 195.228 212.057 196.869 211.519 198.551C210.51 201.512 209.556 204.493 208.513 207.443C208.429 207.942 207.894 207.835 207.519 207.858C203.831 207.859 200.144 207.901 196.457 207.811C196.693 207.128 196.911 206.438 197.108 205.744C195.446 205.724 193.785 205.686 192.125 205.724C190.473 205.585 190.031 207.946 188.392 207.854C184.938 207.859 181.485 207.904 178.033 207.816C178.759 206.764 179.713 205.907 180.585 204.985C183.818 201.654 187.057 198.333 190.284 195.001C190.785 194.5 191.242 193.941 191.842 193.557ZM195.139 202.033C196.367 202.149 197.607 202.163 198.837 202.042C199.529 200.077 200.532 198.234 201.14 196.237C199.131 198.161 197.097 200.059 195.139 202.033ZM219.918 193.572C224.327 193.544 228.736 193.52 233.144 193.576C230.153 198.371 227.127 203.141 224.044 207.878C219.674 207.829 215.303 207.893 210.936 207.831C212.207 205.502 213.747 203.335 215.138 201.079C216.702 198.558 218.381 196.109 219.918 193.572ZM237.645 193.572C245.857 193.516 254.068 193.572 262.28 193.527C263.516 193.454 265.126 194.112 265.186 195.53C265.1 197.015 264.061 198.178 263.345 199.41C262.496 200.711 261.837 202.241 260.478 203.106C259.685 203.665 258.694 203.758 257.766 203.912C259.053 205.172 260.418 206.367 261.519 207.803C257.453 207.916 253.389 207.846 249.324 207.863C248.983 207.863 248.585 207.876 248.366 207.563C247.094 206.067 245.978 204.447 244.838 202.851C243.655 204.422 242.836 206.226 241.684 207.818C237.347 207.906 233.002 207.859 228.662 207.828C231.49 202.973 234.714 198.363 237.645 193.572ZM247.717 197.804C247.199 198.795 246.644 199.766 246.166 200.777C247.497 200.76 248.998 201.097 250.183 200.321C250.745 199.787 251.463 199.059 251.225 198.213C250.224 197.422 248.876 197.879 247.717 197.804ZM281 194.02C281.237 193.491 281.829 193.411 282.347 193.439C286.354 193.49 290.362 193.385 294.369 193.512C292.308 196.872 290.183 200.194 288.087 203.531C287.129 204.949 286.334 206.476 285.291 207.835C280.918 207.859 276.543 207.895 272.17 207.833C274.979 203.145 278.068 198.63 281 194.02ZM298.14 194.277C298.397 193.906 298.663 193.398 299.201 193.461C302.701 193.426 306.204 193.454 309.705 193.448C310.091 193.491 310.644 193.394 310.858 193.816C311.914 195.524 312.9 197.279 314.038 198.937C315.248 197.276 316.199 195.442 317.343 193.735C317.594 193.36 318.132 193.491 318.522 193.443C321.959 193.484 325.4 193.394 328.838 193.505C325.811 198.33 322.634 203.057 319.617 207.888C315.912 207.843 312.204 207.895 308.501 207.874C307.226 205.881 305.92 203.908 304.628 201.928C303.393 203.963 302.041 205.922 300.711 207.897C297.118 207.852 293.527 207.873 289.936 207.88C290.476 206.596 291.325 205.48 292.014 204.276C294.022 200.921 296.128 197.628 298.14 194.277ZM333.603 193.529C335.322 193.332 337.057 193.51 338.784 193.458C344.969 193.471 351.153 193.437 357.339 193.45C358.716 193.499 360.147 193.501 361.45 194.011C361.998 194.2 362.476 194.742 362.386 195.352C362.273 196.006 361.864 196.552 361.54 197.114C360.13 199.449 358.725 201.787 357.323 204.128C356.171 206.389 353.713 207.918 351.164 207.861C342.279 207.874 333.395 207.888 324.51 207.818C325.213 206.402 326.162 205.131 326.978 203.781C329.172 200.355 331.343 196.914 333.603 193.529ZM344.136 197.857C343.526 198.894 342.951 199.952 342.371 201.005C341.734 202.224 340.967 203.381 340.464 204.67C341.593 204.7 342.868 204.904 343.845 204.192C344.989 203.445 345.495 202.131 346.088 200.966C346.54 200.074 347.254 199.151 346.928 198.091C346.045 197.705 345.07 197.756 344.136 197.857ZM367.788 194.536C368.111 194.05 368.454 193.355 369.153 193.445C373.288 193.478 377.423 193.392 381.558 193.51C380.656 195.297 379.471 196.916 378.398 198.6C376.741 201.341 374.937 203.993 373.247 206.716C373 207.109 372.722 207.481 372.437 207.848C368.068 207.856 363.698 207.899 359.331 207.822C362.02 203.312 365.065 199.027 367.788 194.536ZM389.224 193.866C389.575 193.533 390.064 193.428 390.539 193.443C395.598 193.448 400.658 193.445 405.717 193.446C407.416 193.461 409.117 193.398 410.814 193.523C409.338 198.35 407.669 203.119 406.079 207.91C402.083 207.906 398.087 207.871 394.09 207.886C394.36 207.184 394.612 206.477 394.842 205.761C392.935 205.735 391.023 205.658 389.119 205.782C388.137 206.217 387.596 207.226 386.758 207.85C383.032 207.897 379.3 207.871 375.574 207.861C376.291 206.697 377.406 205.87 378.32 204.87C381.952 201.201 385.611 197.553 389.224 193.866ZM392.842 202.044C394.051 202.082 395.262 202.133 396.476 202.059C397.301 200.122 398.135 198.187 398.962 196.252C396.825 198.078 394.85 200.081 392.842 202.044Z" fill="#C5012D"/>
<path d="M184.333 120.029C186.377 118.744 188.397 117.4 190.557 116.316C188.463 118.054 186.182 119.553 184.046 121.24C178.13 125.548 172.405 130.108 166.599 134.56C161.864 138.114 156.711 141.103 151.288 143.473C150.738 143.762 150.152 143.481 149.617 143.314C152.325 141.129 155.387 139.439 158.172 137.36C159.066 136.67 160.062 136.13 160.994 135.492C164.591 133.105 168.032 130.48 171.707 128.209C173.493 127.087 175.002 125.578 176.823 124.505C178.113 123.691 179.289 122.709 180.605 121.934C181.354 121.497 181.982 120.831 182.831 120.58C183.343 120.438 183.87 120.306 184.333 120.029ZM193.466 129.534C195.067 129.047 196.65 128.505 198.223 127.939C197.784 128.527 197.036 128.668 196.402 128.948C192.768 130.423 189.177 132.004 185.545 133.484C182.651 134.693 179.739 135.86 176.881 137.154C171.156 140.178 165.06 142.502 158.779 144.079C156.36 144.653 153.936 145.26 151.459 145.508C151.378 145.135 151.301 144.763 151.222 144.392C157.574 140.938 164.306 138.123 171.338 136.4C175.03 135.5 178.649 134.335 182.274 133.201C186.021 132.03 189.74 130.768 193.466 129.534ZM179.188 142.845C184 142.629 188.798 142.2 193.605 141.896C193.813 141.885 194.227 141.86 194.435 141.849C194.15 142.342 193.871 142.841 193.481 143.259C193.492 143.141 193.516 142.909 193.528 142.791C191.555 142.933 189.625 143.398 187.675 143.7C183.647 144.428 179.597 145.02 175.578 145.798C167.794 147.379 159.794 148.071 151.864 147.437L151.965 146.331C153.396 145.755 154.92 145.493 156.417 145.155C162.301 143.903 168.311 143.254 174.325 143.128C175.949 143.077 177.566 142.92 179.188 142.845ZM151.967 148.27C159.839 148.124 167.749 148.722 175.441 150.449C179.163 151.133 182.858 152.02 186.627 152.416C186.962 152.446 187.296 152.465 187.638 152.484C187.321 152.988 187.009 153.498 186.668 153.988C186.252 153.592 185.625 153.826 185.115 153.744C179.66 153.288 174.179 153.298 168.722 152.902C164.898 152.559 161.095 151.955 157.373 151.012C155.457 150.52 153.512 150.076 151.71 149.241C151.794 148.917 151.88 148.593 151.967 148.27ZM151.483 150.245C156.649 151.133 161.611 152.879 166.554 154.58C169.054 155.458 171.435 156.63 173.825 157.77C176.461 159.084 179.176 160.234 181.918 161.31C181.661 161.797 181.367 162.262 181.037 162.702C180.93 162.666 180.718 162.593 180.611 162.557C178.876 161.914 177.059 161.535 175.285 161.018C172.881 160.328 170.442 159.763 168.039 159.069C162.116 157.252 156.486 154.558 151.211 151.323C151.301 150.963 151.391 150.603 151.483 150.245ZM149.91 152.909C150.099 152.606 150.292 152.304 150.483 152C155.768 154.361 160.743 157.371 165.459 160.714C166.798 161.657 167.991 162.786 169.249 163.831C171.619 165.803 173.995 167.778 176.551 169.507C176.307 169.998 176 170.458 175.613 170.85C172.058 168.731 168.488 166.63 164.808 164.729C159.252 161.618 154.266 157.541 149.91 152.909ZM132.387 154.715C133.719 153.871 134.99 152.934 136.365 152.159C136.562 152.424 136.757 152.69 136.955 152.956C134.15 155.66 131.118 158.122 127.999 160.452C124.416 163.148 120.365 165.1 116.498 167.341C111.229 170.31 106.22 173.708 101.041 176.824C99.5876 177.692 98.1718 178.628 96.6641 179.403C97.6392 178.484 98.7493 177.73 99.8088 176.916C102.029 175.26 104.201 173.537 106.443 171.911C107.597 171.079 108.718 170.203 109.832 169.321C110.728 168.599 111.765 168.059 112.579 167.238C113.117 166.659 113.819 166.276 114.514 165.918C116.628 164.841 118.602 163.521 120.615 162.274C122.128 161.445 123.519 160.422 124.973 159.497C127.485 157.971 129.906 156.296 132.387 154.715ZM148.359 154.297C148.52 153.976 148.734 153.688 148.938 153.395C151.082 154.845 152.852 156.742 154.703 158.533C157.165 160.965 159.537 163.501 161.611 166.278C163.796 169.273 165.892 172.333 168.156 175.27C170.029 177.794 172.114 180.151 174.048 182.63C173.601 182.63 173.157 182.632 172.712 182.634C171.495 181.014 169.928 179.708 168.534 178.248C166.164 175.932 163.953 173.449 161.414 171.313C156.779 167.178 152.927 162.227 149.763 156.898C149.291 156.037 148.597 155.267 148.359 154.297ZM137.345 153.869C137.807 153.451 138.315 153.952 138.653 154.269C138.081 155.394 137.295 156.386 136.612 157.442C134.964 159.938 133.152 162.325 131.223 164.609C130.116 165.882 129.048 167.197 127.778 168.314C125.1 170.887 122.512 173.552 119.791 176.078C117.07 178.981 114.222 181.76 111.488 184.648C110.254 185.906 109.269 187.402 107.874 188.499C110.175 185.332 112.667 182.309 115.026 179.185C117.307 176.097 119.754 173.134 121.955 169.985C123.784 167.516 125.524 164.965 127.643 162.73C130.506 159.398 133.938 156.62 137.345 153.869ZM139.654 154.635C140.027 154.726 140.4 154.816 140.777 154.908C139.116 161.781 136.121 168.275 132.479 174.313C130.336 177.897 128.38 181.585 126.368 185.244C125.061 187.68 123.716 190.095 122.449 192.552C121.925 193.604 121.443 194.68 120.755 195.64C122.045 192.034 123.568 188.516 124.943 184.942C127.071 179.622 129.121 174.27 131.183 168.924C132.502 165.301 134.52 161.985 136.601 158.758C137.587 157.363 138.48 155.883 139.654 154.635ZM146.257 154.95C146.652 154.865 147.05 154.781 147.449 154.698C149.021 157.099 150.62 159.488 151.974 162.019C153.833 165.447 155.387 169.036 156.666 172.719C157.69 175.838 158.836 178.919 160.077 181.959C160.218 182.313 160.362 182.667 160.499 183.028C159.811 182.968 159.106 183.037 158.433 182.855C157.966 181.342 156.987 180.065 156.317 178.645C155.293 176.505 153.795 174.653 152.612 172.609C150.279 168.498 148.543 164.069 147.264 159.525C146.851 158.017 146.424 156.508 146.257 154.95ZM138.306 166.674C139.074 162.831 140.248 159.079 141.711 155.447C142.142 155.428 142.572 155.407 143.005 155.388C143.016 158.704 142.877 162.021 142.54 165.322C142.214 168.292 141.839 171.277 140.991 174.154C139.873 178.199 138.891 182.285 138.12 186.41C137.591 186.658 137.044 186.868 136.487 187.048L136.558 186.637C136.804 185.304 136.792 183.943 136.914 182.598C137.308 177.286 137.175 171.907 138.306 166.674ZM143.883 155.411C144.381 155.418 144.882 155.428 145.383 155.435C145.75 157.003 146.219 158.543 146.628 160.099C147.515 163.615 148.261 167.174 148.657 170.782C149.184 175.148 148.865 179.564 149.463 183.924C149.705 183.918 149.945 183.913 150.189 183.905C149.368 184.246 148.477 184.312 147.601 184.372C147.575 184.125 147.547 183.881 147.522 183.635C147.376 182.163 146.941 180.742 146.63 179.301C146.178 177.227 145.334 175.266 144.865 173.196C143.466 167.381 143.583 161.344 143.883 155.411Z" fill="#F19817"/>
</svg>
