<svg width="480" height="320" viewBox="0 0 480 320" fill="none" xmlns="http://www.w3.org/2000/svg">
<path fill-rule="evenodd" clip-rule="evenodd" d="M250.59 53.3335C290.411 53.3335 322.889 84.7771 322.889 123.33C322.889 161.883 290.411 193.327 250.59 193.327C210.77 193.327 178.291 161.883 178.291 123.33C178.291 84.7771 210.769 53.3335 250.59 53.3335Z" fill="#E2E3E4"/>
<path fill-rule="evenodd" clip-rule="evenodd" d="M250.589 57.3462C288.127 57.3462 318.744 86.9873 318.744 123.33C318.744 159.673 288.127 189.315 250.589 189.315C213.051 189.315 182.435 159.673 182.435 123.33C182.435 86.9873 213.051 57.3462 250.589 57.3462Z" fill="white"/>
<path fill-rule="evenodd" clip-rule="evenodd" d="M208.487 125.502L208.524 125.497C208.524 125.497 256.96 101.729 265.644 99.4174C271.647 98.2127 272.443 116 272.443 116C272.621 115.891 272.801 115.784 272.981 115.678C283.819 109.327 304.992 104.874 307.005 104.462C311.776 103.618 310.712 105.178 310.121 109.904C309.53 114.629 297.059 162.265 297.059 162.265C297.059 162.265 296.712 148.114 295.255 137.1C294.492 131.331 292.343 126.431 291.224 124.864C287.964 120.303 266.255 124.813 266.255 124.813C266.255 124.813 265.819 117.498 264.562 112.487C263.304 107.476 260.505 109.224 256.514 109.55C250.226 110.06 209.866 124.985 208.515 125.491C208.484 125.503 208.474 125.507 208.487 125.502Z" fill="#E2E3E4"/>
<path fill-rule="evenodd" clip-rule="evenodd" d="M225.694 92.4437L190.341 103.879C193.039 101.546 208.755 86.8418 227.294 75.9634C237.694 69.8606 249.298 66.2224 259.224 63.5762C252.167 71.2037 249.372 89.2444 247.199 99.097C241.222 126.188 236.61 164.183 236.469 181.206C233.766 176.289 228.801 150.605 226.632 128.026C224.835 109.318 226.597 92.1369 225.73 92.4228C225.717 92.4273 225.704 92.4344 225.694 92.4437H225.694ZM190.341 103.879L225.752 92.4465C213.088 96.9093 196.882 101.337 190.341 103.879V103.879ZM82.5912 232.365L89.2349 218.787L90.6591 232.364L82.5912 232.365ZM59.3047 246.728H76.5795L79.0645 241.416H91.3129L91.8779 246.728H107.078L103.046 210.179H76.8759L59.3047 246.728ZM110.021 246.728H125.77L131.331 210.178H115.59L110.021 246.728ZM150.828 228.182L152.018 220.607H158.117C160.528 220.607 161.651 221.394 161.874 223.313C162.278 226.806 160.371 228.182 155.944 228.182H150.828ZM132.452 246.728H148.055L149.28 238.611C149.333 238.218 149.501 236.693 149.79 234.086C150.539 235.463 151.344 236.889 152.344 238.316L158.138 246.728H176.586L164.447 231.528H165.284C173.893 231.528 177.753 227.051 176.75 218.393C176.107 212.835 173.046 210.178 167.192 210.178H138.021L132.452 246.728ZM218.11 225.526C218.676 228.724 219.087 230.987 219.393 232.365L222.383 246.728H230.844L238.782 231.578C239.627 229.954 240.536 228.035 241.609 225.822C240.963 229.167 240.594 231.085 240.515 231.675L238.272 246.728H253.079L258.639 210.179H237.732L230.723 225.28C229.977 226.903 229.318 228.429 228.886 229.806C228.82 228.672 228.722 227.54 228.592 226.412C228.495 225.575 228.386 224.641 228.218 223.607L226.222 210.178H205.856L200.288 246.728H215.152L217.295 232.511C217.571 230.642 217.845 228.33 218.11 225.526L218.11 225.526ZM259.909 246.728H275.658L281.218 210.179H265.477L259.909 246.728ZM282.339 246.728H297.351L299.54 232.905C299.763 231.43 300.07 229.413 300.205 226.756C301.232 230.101 301.903 232.069 302.125 232.709L306.895 246.728H324.111L329.672 210.179H314.472L312.083 225.674C311.84 227.396 311.494 229.511 311.309 232.167C310.414 228.675 309.879 226.609 309.707 225.969L305.273 210.179H287.909L282.339 246.728ZM350.784 232.364L357.428 218.787L358.852 232.364H350.784ZM327.497 246.728H344.772L347.257 241.416H359.506L360.071 246.728H375.271L371.239 210.179H345.069L327.497 246.728ZM378.717 236.545L377.342 245.99C385.075 247.278 392.527 247.917 399.611 247.917C407.088 247.917 412.085 246.884 414.933 243.875C417.305 241.416 418.451 237.283 417.887 232.413C417.284 227.199 413.891 225.084 407.102 225.084H401.2C398.543 225.084 397.363 225.084 397.186 223.558C396.941 221.444 400.186 221.001 406.926 221.001C410.27 221.001 414.257 221.444 418.989 222.378L420.696 210.769C413.29 209.687 406.543 209.195 400.541 209.195C392.031 209.195 386.569 210.031 383.737 213.18C381.121 216.082 379.717 220.952 380.258 225.625C381.003 232.069 385.05 233.889 393.659 233.889C394.102 233.889 395.621 233.84 398.13 233.84C399.704 233.84 400.444 234.283 400.586 235.513C400.808 237.431 398.492 237.825 393.327 237.825C389.245 237.825 384.367 237.332 378.717 236.545H378.717Z" fill="#00397A"/>
<path fill-rule="evenodd" clip-rule="evenodd" d="M196.994 266.204H210.605L212.134 260.504H205.494L208.311 249.976H201.344L196.994 266.204ZM212.152 266.204H218.839L222.486 252.597C221.241 252.772 220.062 252.881 218.926 252.881C217.878 252.881 216.851 252.772 215.803 252.597L212.152 266.204ZM222.399 248.622H218.075C217.244 248.622 216.808 248.819 216.546 249.387C216.284 249.954 216.131 250.653 216.131 251.046C216.131 251.549 216.437 251.767 217.026 251.767H221.329C222.159 251.767 222.596 251.57 222.858 251.003C223.12 250.435 223.273 249.736 223.273 249.343C223.273 248.862 222.989 248.622 222.399 248.622H222.399ZM221.238 266.204H227.903L229.454 260.416C229.825 259.04 230.568 258.342 231.747 258.342C232.555 258.342 233.036 258.822 233.036 259.521C233.036 259.783 232.97 260.154 232.839 260.613L231.354 266.204H237.994L240.222 257.883C240.484 256.922 240.658 256.113 240.658 255.415C240.658 253.318 239.282 252.204 236.661 252.204C233.713 252.204 232.009 253.143 230.48 255.83C230.844 254.74 231.15 253.632 231.398 252.51H224.932L221.238 266.204ZM240.371 266.204H247.014L248.565 260.416C248.937 259.04 249.679 258.342 250.858 258.342C251.666 258.342 252.147 258.822 252.147 259.521C252.147 259.783 252.081 260.154 251.951 260.613L250.465 266.204H257.105L259.333 257.883C259.595 256.922 259.77 256.113 259.77 255.415C259.77 253.318 258.393 252.204 255.772 252.204C252.846 252.204 251.121 253.165 249.701 255.742C250.225 254.17 250.552 253.099 250.705 252.51L251.579 249.211H244.939L240.371 266.204ZM279.82 252.51H273.202C272.94 253.58 272.743 254.454 272.569 255.153C272.132 252.946 270.799 252.139 268.048 252.139C265.012 252.139 263.33 253.361 261.91 256.244C260.993 258.123 260.4 260.635 260.4 262.557C260.4 265.243 261.866 266.622 264.706 266.622C267.414 266.622 269.161 265.571 270.581 263.103C270.323 264.148 270.024 265.182 269.686 266.204H276.151L279.82 252.51ZM269.926 257.402C270.952 257.402 271.586 257.926 271.586 258.713C271.586 260.7 270.45 262.186 268.746 262.186C267.698 262.186 267.086 261.661 267.086 260.853C267.086 260.285 267.371 259.28 267.785 258.604C268.288 257.795 268.921 257.402 269.926 257.402V257.402ZM278.724 265.986C281.764 266.382 284.451 266.557 286.831 266.557C289.911 266.557 292.051 266.23 293.471 264.894C294.476 263.954 295.109 262.404 295.109 260.722C295.109 258.668 294.039 257.817 291.636 257.817C290.435 257.817 289.517 257.926 288.862 257.926C288.098 257.926 287.77 257.795 287.77 257.315C287.77 256.529 288.84 256.332 291.046 256.332C292.357 256.332 293.951 256.485 295.873 256.747L296.966 252.75C294.017 252.357 291.352 252.16 289.037 252.16C285.673 252.16 283.468 252.531 282.135 253.886C281.109 254.934 280.41 256.747 280.41 258.385C280.41 260.482 281.655 261.377 284.298 261.377C285.695 261.377 286.613 261.29 287.027 261.29C287.508 261.29 287.727 261.464 287.727 261.814C287.727 262.578 286.656 262.775 284.451 262.775C283.14 262.775 281.546 262.622 279.667 262.36L278.724 265.986ZM315.356 259.826L319.003 253.798L318.938 259.826H315.356ZM304.279 266.204H311.949L313.324 263.846H318.763L318.741 266.204H325.49L325.577 249.976H313.958L304.279 266.204ZM335.559 250.74H340.364L345.082 247.857H338.179L335.559 250.74ZM341.587 265.658L343.334 262.12C340.736 262.644 338.508 262.928 336.651 262.928C334.882 262.928 334.095 262.557 334.095 261.552C334.095 261.399 334.117 261.159 334.183 260.831H344.186C344.43 260.207 344.649 259.573 344.842 258.931C345.169 257.861 345.322 256.987 345.322 256.332C345.322 253.296 342.767 252.029 337.525 252.029C335.865 252.029 334.38 252.16 333.069 252.466C331.628 252.816 330.514 253.689 329.487 255.174C328.788 256.179 328.111 257.817 327.674 259.914C327.516 260.617 327.436 261.334 327.434 262.054C327.434 265.396 329.465 266.666 333.986 266.666C336.411 266.666 338.944 266.339 341.587 265.658H341.587ZM334.86 257.861C335.472 256.223 336.346 255.633 337.961 255.633C339.207 255.633 339.84 256.135 339.84 257.053C339.836 257.327 339.792 257.599 339.709 257.861H334.86ZM344.816 266.204H351.481L352.399 262.819C353.032 260.482 353.971 259.477 356.287 259.477C357.182 259.477 358.121 259.586 359.148 259.783L361.092 252.488C360.305 252.247 359.585 252.139 358.929 252.139C356.571 252.139 354.976 253.405 353.84 256.091H353.753C354.081 255.021 354.43 253.842 354.78 252.51H348.511L344.816 266.204ZM374.196 265.658L375.944 262.12C373.345 262.644 371.116 262.928 369.26 262.928C367.491 262.928 366.705 262.557 366.705 261.552C366.705 261.399 366.727 261.159 366.792 260.831H376.795C377.039 260.207 377.258 259.573 377.451 258.931C377.778 257.861 377.931 256.987 377.931 256.332C377.931 253.296 375.376 252.029 370.134 252.029C368.474 252.029 366.989 252.16 365.678 252.466C364.237 252.816 363.123 253.689 362.096 255.174C361.397 256.179 360.72 257.817 360.283 259.914C360.125 260.617 360.045 261.334 360.043 262.054C360.043 265.396 362.074 266.666 366.595 266.666C369.02 266.666 371.554 266.339 374.196 265.658V265.658ZM367.469 257.861C368.081 256.223 368.954 255.633 370.571 255.633C371.816 255.633 372.449 256.135 372.449 257.053C372.445 257.327 372.401 257.599 372.318 257.861H367.469ZM397.785 252.51H391.167C390.905 253.58 390.708 254.454 390.534 255.153C390.097 252.946 388.765 252.139 386.013 252.139C382.976 252.139 381.295 253.361 379.875 256.244C378.958 258.123 378.364 260.635 378.364 262.557C378.364 265.243 379.831 266.622 382.671 266.622C385.379 266.622 387.126 265.571 388.546 263.103C388.287 264.148 387.989 265.182 387.651 266.204H394.116L397.785 252.51ZM387.891 257.402C388.918 257.402 389.551 257.926 389.551 258.713C389.551 260.7 388.415 262.186 386.711 262.186C385.663 262.186 385.051 261.661 385.051 260.853C385.051 260.285 385.335 259.28 385.751 258.604C386.253 257.795 386.886 257.402 387.89 257.402L387.891 257.402ZM396.689 265.986C399.729 266.382 402.415 266.557 404.796 266.557C407.876 266.557 410.016 266.23 411.436 264.894C412.44 263.954 413.074 262.404 413.074 260.722C413.074 258.668 412.004 257.817 409.601 257.817C408.4 257.817 407.482 257.926 406.827 257.926C406.063 257.926 405.735 257.795 405.735 257.315C405.735 256.529 406.805 256.332 409.011 256.332C410.322 256.332 411.916 256.485 413.838 256.747L414.931 252.75C411.982 252.357 409.317 252.16 407.002 252.16C403.638 252.16 401.432 252.531 400.1 253.886C399.073 254.934 398.375 256.747 398.375 258.385C398.375 260.482 399.62 261.377 402.263 261.377C403.661 261.377 404.578 261.29 404.993 261.29C405.473 261.29 405.692 261.464 405.692 261.814C405.692 262.578 404.621 262.775 402.415 262.775C401.105 262.775 399.511 262.622 397.632 262.36L396.689 265.986Z" fill="#E30016"/>
</svg>
