<svg width="480" height="320" viewBox="0 0 480 320" fill="none" xmlns="http://www.w3.org/2000/svg">
<path d="M64.9519 186.93H58.0151L72.2472 165.582H82.5604V186.976H75.8364V182.699H67.5615L64.9519 186.93Z" fill="#D71920"/>
<path d="M76.2992 170.809V177.604H70.8965L74.9484 170.851L76.2992 170.809" fill="white"/>
<path d="M142.41 186.842H135.474L149.706 165.494H160.023V186.888H153.299V182.611H145.024L142.41 186.842Z" fill="#D71920"/>
<path d="M153.758 170.722V177.517H148.351L152.403 170.764L153.758 170.722Z" fill="white"/>
<path d="M86.6416 186.884H92.9946L98.5306 165.628H91.9108L86.6416 186.884M262.015 186.621H268.364L273.904 165.357H267.284L262.015 186.621ZM123.493 171.531C123.493 171.531 123.764 166.399 118.899 165.54L103.316 165.494L97.6303 186.888H104.3L106.468 179.051H107.418L114.026 186.888H121.592L115.164 178.192C115.164 178.192 122.909 179.001 123.493 171.531ZM114.034 174.816L107.439 174.861L108.59 170.168L113.892 170.063V170.113C113.942 170.113 113.984 170.088 114.034 170.088C115.456 170.088 116.602 171.147 116.602 172.452C116.602 173.761 115.456 174.816 114.034 174.816V174.816ZM259.818 171.397C259.818 171.397 260.089 166.266 255.224 165.403L239.646 165.357L233.96 186.751H240.625L242.797 178.913H243.739L250.355 186.751H257.921L251.493 178.063C251.493 178.063 259.239 178.868 259.818 171.397ZM250.359 174.682L243.769 174.728L244.919 170.034L250.217 169.93V169.984C250.272 169.976 250.313 169.951 250.359 169.951C251.777 169.951 252.927 171.014 252.927 172.314C252.927 173.627 251.777 174.682 250.359 174.682ZM164.242 186.884L169.24 165.628H176.277L172.45 181.256H182.088L180.863 186.884H164.242M209.381 166.407C209.381 166.407 186.616 159.775 184.452 177.404C184.452 177.404 183.51 193.554 204.72 185.066L207.084 175.441L199.63 175.424L198.1 181.765C198.1 181.765 191.414 184.287 191.614 178.038C191.614 178.038 191.48 168.875 207.897 171.718L209.381 166.407ZM215.125 165.54H220.799L222.958 162.976H230.662L229.103 165.607H235.114L233.972 170.134L220.19 170.205L219.582 173.111L232.146 173.377L231.133 177.967L218.635 177.838L218.027 181.077H231.2L229.782 186.688H209.856L215.125 165.54ZM279.186 165.269H299.721L298.458 170.334H284.138L283.33 173.369H295.669L294.86 178.063L282.337 178.246L281.529 181.185H295.49L294.589 186.713H274.05L279.186 165.269ZM298.216 132.753H302.81L299.158 150.925H294.573L298.216 132.753ZM291.233 132.841H295.694L292.18 151.012H254.824L253.673 156.69H237.194L237.528 153.042H249.826L250.163 151.012H242.935L244.894 140.745H256.717L255.837 146.823H261.039L262.257 140.745H267.664L268.539 132.841H273.671L272.791 140.545H277.456L276.847 146.823H288.532L288.941 144.397H282.387L282.654 140.745H289.679L291.233 132.841Z" fill="#D71920"/>
<path d="M266.442 144.259H272.053L271.845 146.689H266.105L266.442 144.259M248.609 144.397H251.648L251.243 146.823H248.071L248.609 144.397Z" fill="white"/>
<path d="M284.276 135.746H288.999L288.332 139.394H283.463L284.276 135.746ZM109.965 140.428H114.689L114.017 144.076H109.157L109.965 140.428M117.848 152.859H122.572L121.9 156.507H117.04L117.848 152.859ZM229.782 132.753H234.981L233.63 140.657H239.104L237.14 150.925H214.85L215.801 146.735H221.47L222.683 140.657H228.432L229.649 132.753" fill="#D71920"/>
<path d="M227.619 144.309H233.026L232.617 146.739H227.148L227.619 144.309" fill="white"/>
<path d="M205.125 151.104H200.397L204.178 132.933H208.706L205.125 151.104ZM134.532 151.067H129.8L133.581 132.891H138.108L134.532 151.066M101.32 150.925H96.5923L100.369 132.753H104.901L101.32 150.925ZM202.107 132.753L198.384 150.925H183.051L181.905 156.603H166.435L167.11 152.951H178.395L178.799 150.925H171.846L173.872 140.657H185.348L184.269 146.735H194.203L194.874 144.309H190.555L191.364 140.657H195.553L197.513 132.753H202.107Z" fill="#D71920"/>
<path d="M177.136 144.734H180.179L179.77 147.165H176.598L177.136 144.734Z" fill="white"/>
<path d="M188.1 156.511L188.779 152.863H193.369L192.627 156.511H188.1ZM145.904 140.678H156.705L155.63 146.556H161.512L162.996 140.678H167.657L165.43 150.946H149.89L150.09 149.391H143.812L145.904 140.678Z" fill="#D71920"/>
<path d="M148.543 144.53H151.511L151.24 146.689H148.134L148.543 144.53Z" fill="white"/>
<path d="M57.4775 140.728H68.2869L67.2072 146.606H73.0851L74.5691 140.728H79.2298L77.0037 150.992H61.4711L61.667 149.441H55.3848L57.4775 140.728Z" fill="#D71920"/>
<path d="M61.054 144.076H64.0262L63.7595 146.239H60.6455L61.0539 144.076" fill="white"/>
<path d="M156.713 138.656L157.405 135.009H147.438L146.533 138.656H156.713ZM68.2659 138.54L68.9537 134.892H58.9864L58.0859 138.54H68.2659ZM76.2364 156.44L76.9077 152.755H67.2488L66.3733 156.44H76.2364M164.259 156.507L164.934 152.859H155.271L154.396 156.507H164.259M130.905 132.753L127.253 150.925H112.054L110.908 156.603H100.503L101.044 152.951H106.922L108.269 146.735H123.13L123.681 144.309H118.945L119.483 140.657H124.889L126.715 132.753H130.905ZM91.6523 141.849L95.9795 141.762L94.2661 150.408L89.8515 150.495L88.4091 156.44L78.1416 156.715L78.7753 152.663H84.8074L85.9745 146.894H90.8436L91.6523 141.849ZM91.073 139.373H96.2755L97.2175 135.046H97.8262L97.9597 133.495L94.1119 133.362L93.1614 137.752L91.4064 137.952L91.073 139.373ZM424.615 160C424.615 136.272 399.391 117.037 368.275 117.037C337.16 117.037 311.935 136.272 311.935 160C311.935 183.728 337.16 202.963 368.275 202.963C399.391 202.963 424.615 183.728 424.615 160Z" fill="#D71920"/>
<path d="M341.641 126.104C341.641 126.104 351.638 130.736 358.846 138.848C358.846 138.848 373.44 154.447 376.238 155.873C376.238 155.873 370.381 159.975 345.873 136.709C345.873 136.709 330.828 148.744 330.107 158.724H421.643L421.739 161.847H329.931C329.931 161.847 330.648 170.58 344.618 183.599C344.618 183.599 365.065 165.59 376.329 163.894L376.959 163.806C376.959 163.806 369.48 170.138 364.519 175.758C364.519 175.758 350.65 190.194 340.562 193.671C340.562 193.671 303.348 177.8 318.751 145.443C318.751 145.443 324.12 134.171 341.641 126.104" fill="white"/>
<path d="M358.179 120.464C415.19 114.707 421.572 157.365 421.572 157.365C421.572 157.365 404.193 160.888 387.164 141.212C387.164 141.212 376.692 130.044 373.678 127.743C373.678 127.743 368.354 122.252 360.355 120.998L358.179 120.464ZM358.445 199.261C415.465 204.897 421.839 163.156 421.839 163.156C421.839 163.156 404.46 159.712 387.434 178.955C387.434 178.955 376.959 189.881 373.945 192.141C373.945 192.141 368.625 197.51 360.626 198.74L358.445 199.261ZM282.387 144.397L284.409 135.409L283.463 135.476L281.37 144.463L282.246 144.396" fill="white"/>
</svg>
