<svg width="480" height="320" viewBox="0 0 480 320" fill="none" xmlns="http://www.w3.org/2000/svg">
<path d="M373.17 175.789H342.998C342.493 175.789 342.083 175.377 342.083 174.872V147.045C342.083 146.539 341.672 146.128 341.165 146.128H332.779C331.43 146.128 330.334 147.223 330.334 148.573V183.467C330.334 183.974 330.746 184.384 331.251 184.384L366.568 184.382C370.618 184.382 373.903 181.099 373.903 177.047V176.523C373.903 176.118 373.574 175.789 373.17 175.789M288.664 166.154L294.135 155.665C294.164 155.604 294.255 155.604 294.286 155.665L299.757 166.154C299.764 166.167 299.767 166.182 299.767 166.197C299.766 166.212 299.762 166.226 299.754 166.239C299.746 166.252 299.735 166.262 299.722 166.269C299.709 166.276 299.695 166.28 299.68 166.28H288.741C288.726 166.28 288.712 166.276 288.699 166.269C288.686 166.262 288.675 166.251 288.667 166.238C288.66 166.226 288.655 166.212 288.655 166.197C288.654 166.182 288.658 166.167 288.664 166.154M284.594 151.432L269.341 180.683C268.461 182.368 269.685 184.385 271.584 184.385H278.55C278.925 184.385 279.266 184.177 279.439 183.846L284.078 174.948C284.252 174.618 284.594 174.409 284.968 174.409H303.453C303.826 174.409 304.169 174.618 304.342 174.948L307.892 181.755C308.735 183.37 310.405 184.385 312.227 184.385H319.357C320.11 184.385 320.594 183.585 320.246 182.919L303.826 151.432C302.127 148.173 298.755 146.127 295.079 146.127H293.342C289.665 146.127 286.294 148.173 284.594 151.432ZM74.9897 166.279L80.6012 155.52L86.2127 166.279H74.9897ZM71.0094 151.386L55.665 180.808C54.8163 182.436 55.9978 184.384 57.8346 184.384H64.9919C65.1596 184.384 65.3242 184.339 65.4677 184.252C65.6112 184.165 65.7281 184.04 65.8057 183.891L70.4936 174.903C70.6504 174.599 70.9641 174.41 71.3057 174.41H89.8967C90.2366 174.41 90.552 174.6 90.7088 174.903L94.2831 181.755C95.1248 183.372 96.7961 184.385 98.6189 184.385H105.888C106.576 184.385 107.02 183.654 106.702 183.044L90.193 151.387C88.5078 148.154 85.1653 146.129 81.5213 146.129H79.681C76.0354 146.129 72.6928 148.154 71.0094 151.387M174.281 158.845C174.281 161.546 172.092 163.735 169.391 163.735H155.953C155.448 163.735 155.036 163.325 155.036 162.818V154.865C155.036 154.358 155.448 153.948 155.953 153.948H169.391C172.092 153.948 174.281 156.137 174.281 158.838L174.281 158.845ZM189.401 183.046L183.057 170.812C182.069 168.907 182.47 166.61 183.972 165.075C185.938 163.066 187.149 160.318 187.149 157.284C187.149 151.123 182.155 146.129 175.994 146.129H145.725C144.375 146.129 143.28 147.223 143.28 148.574V183.468C143.28 183.973 143.692 184.384 144.199 184.384H152.583C153.933 184.384 155.028 183.29 155.028 181.939V172.652C155.028 172.147 155.439 171.736 155.944 171.736H167.457C169.283 171.736 170.958 172.753 171.798 174.376L175.619 181.746C176.459 183.366 178.134 184.384 179.961 184.384H188.585C189.273 184.384 189.716 183.656 189.401 183.046M372.766 144.983H366.064C365.287 144.983 364.862 145.888 365.358 146.486L385.035 170.223C386.591 172.1 386.527 174.838 384.883 176.639L379.218 182.85C378.681 183.44 379.099 184.384 379.896 184.384H390.287C390.626 184.384 390.961 184.314 391.271 184.178C391.581 184.041 391.859 183.842 392.088 183.593L394.214 181.28L398.283 176.823C399.928 175.021 399.994 172.283 398.436 170.404L380.296 148.523C378.439 146.28 375.678 144.983 372.766 144.983" fill="#5D0632"/>
<path d="M404.873 169.598L410.57 163.354C410.878 163.017 410.891 162.503 410.6 162.151L391.536 139.155C389.679 136.912 386.918 135.615 384.006 135.615H377.302C376.525 135.615 376.1 136.52 376.596 137.117L403.491 169.565C403.847 169.994 404.5 170.009 404.875 169.599" fill="#3DBDAE"/>
<path d="M423.696 146.691H416.522C415.163 146.691 413.819 146.975 412.575 147.523C411.332 148.071 410.217 148.872 409.3 149.875L408.195 151.085C407.887 151.423 407.874 151.937 408.165 152.289L413.441 158.66C413.796 159.089 414.448 159.105 414.824 158.695L424.374 148.228C424.911 147.639 424.493 146.693 423.696 146.693M118.04 184.385H126.426C127.776 184.385 128.871 183.29 128.871 181.939V147.045C128.871 146.538 128.461 146.129 127.954 146.129H119.568C118.217 146.129 117.123 147.223 117.123 148.574V183.468C117.123 183.973 117.533 184.385 118.04 184.385ZM201.876 184.385H210.262C211.613 184.385 212.707 183.29 212.707 181.939V147.045C212.707 146.538 212.296 146.129 211.789 146.129H203.405C202.054 146.129 200.96 147.223 200.96 148.574V183.468C200.96 183.973 201.369 184.385 201.876 184.385ZM220.272 153.463V153.804C220.272 154.311 220.684 154.721 221.189 154.721H237.607C238.957 154.721 240.052 155.817 240.052 157.166V183.467C240.052 183.972 240.463 184.383 240.969 184.383H249.354C250.705 184.383 251.799 183.289 251.799 181.938V155.638C251.799 155.132 252.211 154.721 252.716 154.721H264.244C268.294 154.721 271.579 151.436 271.579 147.386V147.045C271.579 146.537 271.167 146.128 270.662 146.128H227.607C223.557 146.128 220.272 149.411 220.272 153.463Z" fill="#5D0632"/>
</svg>
