<svg width="480" height="320" viewBox="0 0 480 320" fill="none" xmlns="http://www.w3.org/2000/svg">
<path d="M55.3848 73.39C68.0004 64.8295 82.6433 63.2529 82.6433 63.2529C104.045 57.3956 145.271 67.0825 145.271 67.0825C196.184 81.5003 230.651 67.3075 230.651 67.3075C208.574 109.66 162.392 100.649 162.392 100.649C139.188 96.1432 125.221 88.7092 125.221 88.7092C107.874 79.2474 55.3848 73.39 55.3848 73.39Z" fill="#FF173D"/>
<path d="M55.3848 73.3901C81.7424 64.3789 88.2756 66.4068 88.2756 66.4068C110.578 65.0552 136.259 71.8135 136.259 71.8135C154.958 75.4179 164.87 77.8959 164.87 77.8959C189.876 83.0775 217.81 77.4452 217.81 77.4452C191.453 101.776 166.222 94.116 166.222 94.116C147.524 92.5388 130.177 84.2035 130.177 84.2035C114.633 78.3466 96.6104 75.4179 96.6104 75.4179C77.2366 72.4892 55.3848 73.3901 55.3848 73.3901Z" fill="#FFBA3D"/>
<path d="M58.313 78.5718C101.793 80.8247 142.793 105.83 142.793 105.83C184.695 132.864 190.778 163.051 190.778 163.051C199.564 197.519 188.525 213.513 188.525 213.513C162.617 262.174 119.815 258.569 119.815 258.569C168.475 251.811 180.865 211.486 180.865 211.486C195.959 170.936 165.321 141.2 165.321 141.2C174.332 181.524 148.425 199.546 148.425 199.546C130.178 215.766 114.633 212.838 114.633 212.838C155.859 204.728 158.563 167.557 158.563 167.557C159.915 132.188 136.486 119.572 136.486 119.572C125.222 130.836 113.958 118.897 113.958 118.897C102.469 107.633 88.2761 91.8631 88.2761 91.8631C77.2366 82.1762 58.313 78.5718 58.313 78.5718Z" fill="#0057F0"/>
<path d="M84.2204 154.49C86.0227 158.32 88.7257 164.177 90.9787 172.062C92.3302 172.062 93.4567 171.837 95.2589 171.837C97.0616 171.837 98.1876 172.062 99.314 172.062C99.0889 171.837 84.2199 139.397 79.0388 125.205C78.5887 125.43 78.3631 125.43 77.6873 125.43C77.0115 125.43 76.5608 125.205 75.8851 125.205C71.1541 137.37 61.2421 159.221 55.3848 172.062C56.2861 172.062 56.9619 171.837 58.3129 171.837C59.665 171.837 60.1157 172.062 61.0171 172.062C63.2695 163.727 65.9731 157.644 67.3246 154.49H84.2204ZM82.8689 151.337H68.6761L75.66 134.666L82.8689 151.337ZM101.116 153.817C101.116 163.729 100.891 166.432 100.666 172.064C101.341 171.838 102.243 171.838 103.369 171.838C104.496 171.838 105.622 171.838 106.523 172.064C106.298 168.235 106.072 164.179 106.072 154.718C106.072 148.635 106.298 142.553 106.523 136.47C105.622 136.695 104.946 136.695 103.595 136.695C102.243 136.695 101.567 136.695 100.666 136.47C101.116 145.932 101.116 146.382 101.116 153.816V153.817ZM139.188 171.386C138.512 170.485 127.7 156.968 125.897 154.04C128.825 153.59 135.809 152.237 135.809 144.804C135.809 142.326 135.133 140.298 133.331 138.721C131.529 137.37 129.727 136.468 123.419 136.468C122.743 136.468 118.463 136.694 117.561 136.694C116.435 136.694 115.083 136.694 113.056 136.468C113.281 142.1 113.281 147.507 113.281 152.238C113.281 159.897 113.281 165.98 113.056 172.063C113.732 171.837 114.408 171.837 115.759 171.837C116.661 171.837 117.787 171.837 118.688 172.062C118.237 163.727 118.463 158.546 118.463 154.716H119.589C123.644 159.447 127.474 164.403 132.43 172.062C133.781 171.837 134.908 171.837 136.034 171.837C137.161 171.837 138.062 171.837 139.188 172.062V171.386ZM130.628 145.479C130.628 152.688 123.419 152.914 121.166 153.139C119.814 153.139 119.364 153.139 118.463 152.914C118.463 152.012 118.237 148.408 118.237 145.93C118.237 143.677 118.237 141.199 118.463 138.946C119.139 138.721 120.265 138.721 121.617 138.721C125.446 138.721 130.628 139.397 130.628 145.479ZM235.833 137.595C235.833 133.089 233.58 129.485 229.525 127.457C226.371 125.88 222.091 125.88 216.909 125.88C211.728 125.88 208.349 125.88 205.871 125.655C206.096 130.611 206.321 133.765 206.321 143.903C206.321 153.364 206.321 162.826 205.871 172.062C206.772 172.062 207.673 171.837 209.475 171.837C211.277 171.837 212.178 172.062 213.305 172.062C212.854 165.754 212.629 160.798 212.854 151.562H216.008C220.063 151.562 225.92 151.112 229.3 148.859C232.228 147.056 235.833 143.677 235.833 137.595ZM228.398 138.27C228.398 148.634 219.613 148.859 212.854 148.634C212.629 141.65 212.629 134.892 212.854 129.034C213.98 128.809 215.558 128.809 216.684 128.809C220.063 128.809 223.893 129.485 226.146 131.737C227.948 133.314 228.398 135.567 228.398 138.271V138.27ZM253.179 158.544C254.531 161.472 256.558 165.978 258.36 172.06C259.487 171.835 260.388 171.835 261.74 171.835C263.091 171.835 263.993 171.835 264.668 172.06C264.668 171.835 253.179 146.829 249.35 136.016H246.871C243.267 145.252 235.607 162.148 230.877 172.06C231.553 172.06 232.228 171.835 233.355 171.835C234.256 171.835 234.706 172.06 235.382 172.06C236.959 165.527 239.212 161.022 240.113 158.544H253.179ZM252.278 156.065H241.24L246.647 143.225L252.278 156.065ZM292.152 171.386C291.476 170.485 280.663 156.968 278.861 154.04C282.015 153.59 288.998 152.237 288.998 144.804C288.998 142.326 288.322 140.298 286.295 138.721C284.492 137.37 282.691 136.468 276.608 136.468C275.707 136.468 271.427 136.694 270.525 136.694C269.399 136.694 268.047 136.694 266.02 136.468C266.245 142.1 266.471 147.507 266.471 152.238C266.471 159.897 266.245 165.98 266.02 172.063C266.696 171.837 267.371 171.837 268.723 171.837C269.624 171.837 270.976 171.837 271.652 172.062C271.427 163.727 271.427 158.546 271.427 154.716H272.778C276.608 159.447 280.437 164.403 285.394 172.062C286.745 171.837 288.097 171.837 288.998 171.837C290.125 171.837 291.026 171.837 292.152 172.062V171.386ZM283.592 145.479C283.592 152.688 276.383 152.914 274.13 153.139C272.778 153.139 272.327 153.139 271.427 152.914V138.946C272.102 138.721 273.229 138.721 274.58 138.721C278.41 138.721 283.592 139.397 283.592 145.479ZM316.257 158.544C317.383 161.472 319.636 165.978 321.438 172.06C322.34 171.835 323.241 171.835 324.592 171.835C325.944 171.835 326.845 171.835 327.746 172.06C327.521 171.835 316.257 146.829 312.202 136.016H309.724C306.12 145.252 298.46 162.148 293.954 172.06C294.63 172.06 295.306 171.835 296.207 171.835C297.109 171.835 297.784 172.06 298.234 172.06C300.037 165.527 302.064 161.022 303.191 158.544H316.257ZM315.131 156.065H304.091L309.498 143.225L315.131 156.065ZM363.79 153.364C363.79 148.859 362.439 143.902 357.934 140.298C353.203 136.469 348.247 136.469 339.01 136.469C336.082 136.469 333.378 136.469 330.449 136.243C330.9 141.875 330.9 143.677 330.9 151.337C330.9 163.276 330.675 166.881 330.449 172.062C333.378 171.837 334.505 171.837 335.856 171.837C337.208 171.837 343.515 172.062 343.966 172.062C354.329 172.062 363.791 166.205 363.791 153.364H363.79ZM357.934 153.815C357.934 158.095 357.032 163.727 352.076 167.332C348.697 169.81 343.741 169.81 341.488 169.81C339.01 169.81 337.658 169.584 336.081 169.359C335.856 164.403 335.856 163.276 335.856 153.815C335.856 149.084 335.856 143.677 336.081 138.946C337.658 138.946 338.109 138.721 340.587 138.721C344.642 138.721 349.148 138.721 352.752 141.649C357.032 144.804 357.934 149.985 357.934 153.815V153.815ZM369.423 153.817C369.423 163.729 369.197 166.432 368.972 172.064C369.648 171.838 370.549 171.838 371.675 171.838C372.802 171.838 373.928 171.838 374.829 172.064C374.604 168.235 374.379 164.179 374.379 154.718C374.379 148.635 374.604 142.553 374.829 136.47C373.928 136.695 373.252 136.695 371.901 136.695C370.549 136.695 369.873 136.695 368.972 136.47C369.423 145.932 369.423 146.382 369.423 153.816V153.817ZM399.159 143.005C399.159 141.202 400.061 139.175 400.511 138.274C399.385 137.598 395.78 136.021 391.725 136.021C385.643 136.021 380.236 139.4 380.236 145.934C380.236 148.412 381.137 150.89 382.939 152.467C384.291 153.593 384.967 153.818 391.049 156.296C394.428 157.873 397.357 159.45 397.357 163.505C397.357 166.885 395.104 170.489 389.698 170.489C385.643 170.489 382.714 168.011 381.137 165.082H380.461C380.461 165.758 380.236 167.335 379.56 169.813C382.264 171.84 385.643 172.741 389.022 172.741C398.258 172.741 401.863 166.659 401.863 161.253C401.863 159.225 401.412 156.522 398.934 154.494C397.131 153.143 396.231 152.692 390.599 150.665C387.895 149.538 384.516 148.187 384.516 144.131C384.516 142.329 385.643 138.049 391.275 138.049C396.005 138.049 397.583 140.977 398.258 143.005H399.159ZM410.874 152.016V139.4C413.126 139.175 414.028 139.175 415.83 139.175C420.335 139.175 422.138 139.626 424.165 139.851C423.94 139.4 423.94 138.95 423.94 138.274C423.94 137.598 423.94 136.922 424.165 136.472C421.462 136.697 418.984 136.697 416.281 136.697C412.676 136.697 409.072 136.697 405.467 136.472C405.692 141.428 405.917 148.412 405.917 153.593C405.917 164.857 405.692 168.236 405.242 172.066C409.297 171.841 413.352 171.841 417.182 171.841C419.66 171.841 422.138 171.841 424.39 172.066C424.39 171.615 424.165 171.164 424.165 170.489C424.165 169.813 424.39 169.363 424.39 168.686C418.308 169.363 414.253 169.363 410.874 169.363C410.874 168.011 410.648 163.956 410.648 161.252C410.648 159 410.874 156.747 410.874 154.494H414.929C417.182 154.494 420.335 154.494 423.039 154.945C423.039 154.494 422.813 153.818 422.813 153.368C422.813 152.692 422.813 152.241 423.039 151.565C418.984 152.016 414.929 152.016 410.874 152.016Z" fill="#FF173D"/>
<path d="M206.096 191.44C206.096 196.396 205.871 197.747 205.871 200.45C206.096 200.45 206.546 200.225 207.222 200.225C207.673 200.225 208.124 200.45 208.799 200.45C208.574 198.423 208.574 196.396 208.574 191.89C208.574 188.962 208.574 185.808 208.799 182.879H205.871C206.096 187.385 206.096 187.61 206.096 191.439V191.44ZM217.135 187.377L222.091 192.333L223.442 193.685C225.019 195.262 228.849 199.542 229.75 200.669H230.652C230.426 198.867 230.426 195.713 230.426 193.685C230.426 190.081 230.426 186.477 230.877 182.646C230.651 182.872 230.2 182.872 229.75 182.872C229.525 182.872 229.075 182.872 228.849 182.646C229.3 186.476 229.3 188.729 229.3 195.036V196.163C225.92 192.784 225.47 192.108 220.288 186.927C218.711 185.124 218.261 184.449 217.36 183.773L216.684 182.646H215.783V192.108C215.783 194.811 215.558 199.092 215.332 200.444C215.783 200.444 216.008 200.218 216.459 200.218C216.909 200.218 217.135 200.444 217.585 200.444C217.36 196.389 217.135 195.037 217.135 188.955V187.377ZM240.789 190.535C240.789 193.914 240.789 197.744 240.564 200.447C240.789 200.447 241.239 200.222 241.915 200.222C241.915 200.222 242.591 200.222 243.492 200.447C243.267 196.618 243.267 192.562 243.267 189.634V184.227C246.421 184.227 247.998 184.452 248.673 184.677V182.875H235.157V184.678C236.283 184.452 238.085 184.227 240.789 184.227V190.535ZM255.657 190.535V184.227H258.135C260.388 184.227 261.289 184.452 262.19 184.452V182.875C260.838 182.875 259.487 183.101 258.361 183.101C256.558 183.101 254.756 183.101 252.954 182.875C253.179 185.353 253.179 188.733 253.179 191.436C253.179 196.843 252.954 198.42 252.954 200.447C254.756 200.447 256.783 200.222 258.811 200.222C259.937 200.222 261.064 200.222 262.415 200.447V198.645C259.262 199.095 257.234 199.095 255.657 199.095V191.886C256.333 191.661 257.009 191.661 257.685 191.661C258.811 191.661 260.388 191.886 261.74 191.886V190.31C259.712 190.535 257.685 190.535 255.657 190.535H255.657ZM280.438 200.22C280.213 199.769 274.805 193.011 273.905 191.66C275.482 191.209 278.861 190.758 278.861 186.929C278.861 185.802 278.636 184.676 277.734 184C276.833 183.324 275.932 182.874 272.778 182.874H267.597C267.822 185.577 267.822 188.28 267.822 190.758C267.822 194.363 267.822 197.517 267.597 200.445C268.047 200.445 268.273 200.22 268.949 200.22C269.399 200.22 270.075 200.22 270.525 200.445C270.3 196.39 270.3 193.687 270.3 191.885H270.976C273.004 194.138 274.805 196.616 277.284 200.445C277.96 200.445 278.41 200.22 279.086 200.22C279.536 200.22 279.988 200.445 280.438 200.445V200.22ZM276.383 187.379C276.383 190.758 272.778 190.983 271.652 190.983H270.3V184H271.877C273.905 184 276.383 184.225 276.383 187.379ZM286.52 187.377L291.476 192.333L292.828 193.685C294.631 195.262 298.46 199.542 299.136 200.669H300.037V193.685C300.037 190.082 300.037 186.477 300.487 182.647C300.037 182.873 299.586 182.873 299.361 182.873C298.911 182.873 298.46 182.873 298.234 182.647C298.685 186.477 298.685 188.729 298.685 195.037V196.164C295.306 192.785 294.856 192.109 289.674 186.927C288.097 185.125 287.647 184.449 286.971 183.773L286.07 182.647H285.168V192.109C285.168 194.812 284.943 199.092 284.943 200.444C285.169 200.444 285.394 200.219 285.844 200.219C286.295 200.219 286.52 200.444 286.971 200.444C286.745 196.389 286.52 195.038 286.52 188.955V187.377ZM315.356 193.692C316.032 195.269 316.933 197.297 317.834 200.45C318.285 200.45 318.735 200.225 319.411 200.225C320.087 200.225 320.537 200.45 320.988 200.45C320.988 200.225 315.355 188.06 313.329 182.654H312.202C310.399 187.159 306.57 195.494 304.317 200.45C304.543 200.45 304.993 200.225 305.443 200.225C305.894 200.225 306.12 200.45 306.57 200.45C307.246 197.297 308.373 195.044 308.823 193.693L315.356 193.692ZM314.68 192.566H309.273L311.977 186.258L314.68 192.566ZM327.296 190.535C327.296 193.914 327.296 197.744 327.07 200.447C327.296 200.447 327.746 200.222 328.422 200.222C328.647 200.222 329.098 200.222 329.999 200.447C329.774 196.618 329.774 192.562 329.774 189.634C329.774 187.831 329.774 186.03 329.999 184.227C332.927 184.227 334.505 184.452 335.405 184.677V182.875H321.663V184.678C322.79 184.452 324.592 184.227 327.296 184.227V190.535ZM340.361 191.44C340.361 196.396 340.361 197.747 340.136 200.45C340.587 200.45 341.038 200.225 341.488 200.225C342.164 200.225 342.614 200.45 343.065 200.45C343.065 198.423 342.84 196.396 342.84 191.89C342.84 188.962 343.065 185.808 343.065 182.879H340.136C340.361 187.385 340.361 187.61 340.361 191.439V191.44ZM359.06 182.65C352.977 182.65 349.373 186.255 349.373 191.661C349.373 197.519 353.428 200.897 358.834 200.897C364.917 200.897 368.747 196.843 368.747 191.436C368.747 185.804 364.466 182.65 359.06 182.65H359.06ZM352.302 191.661C352.302 186.029 355.681 183.777 359.06 183.777C360.637 183.777 363.34 184.452 364.692 186.705C365.593 188.282 365.818 190.31 365.818 191.661C365.818 196.843 362.89 199.771 358.834 199.771C355.005 199.771 352.301 196.617 352.301 191.661H352.302ZM375.956 187.377L380.912 192.333L382.263 193.685C383.841 195.262 387.67 199.542 388.571 200.669H389.472C389.247 198.867 389.247 195.713 389.247 193.685C389.247 190.081 389.247 186.477 389.697 182.646C389.472 182.872 389.022 182.872 388.571 182.872C388.346 182.872 387.895 182.872 387.67 182.646C388.121 186.476 388.121 188.729 388.121 195.036V196.163C384.741 192.784 384.291 192.108 379.11 186.927C377.533 185.124 377.082 184.449 376.181 183.773L375.505 182.646H374.604V192.108C374.604 194.811 374.379 199.092 374.154 200.444C374.604 200.444 374.829 200.218 375.28 200.218C375.73 200.218 375.956 200.444 376.406 200.444C376.181 196.389 375.956 195.037 375.956 188.955V187.377ZM404.566 193.692C405.242 195.269 406.369 197.297 407.27 200.45C407.72 200.45 408.171 200.225 408.846 200.225C409.522 200.225 409.973 200.45 410.423 200.45C410.423 200.225 404.791 188.06 402.764 182.654H401.637C399.835 187.159 396.005 195.494 393.753 200.45C393.978 200.45 394.428 200.225 394.879 200.225C395.33 200.225 395.555 200.45 395.78 200.45C396.681 197.297 397.807 195.044 398.258 193.693L404.566 193.692ZM404.115 192.566H398.709L401.412 186.258L404.115 192.566ZM417.632 199.094C417.632 190.983 417.632 189.407 417.857 182.874H414.929C414.929 184 415.154 187.605 415.154 191.209C415.154 194.588 414.929 197.066 414.929 200.445C416.281 200.445 416.731 200.22 418.984 200.22C421.912 200.22 422.813 200.445 424.616 200.445V198.643C423.49 198.869 421.237 199.094 419.885 199.094H417.632Z" fill="#0057F0"/>
</svg>
