<svg width="480" height="320" viewBox="0 0 480 320" fill="none" xmlns="http://www.w3.org/2000/svg">
<path d="M67.5691 114.267L59.3722 132.548C58.5954 134.294 57.9411 135.455 57.4123 136.019C56.8821 136.57 56.2057 136.908 55.3831 137.032V137.653H63.0025V137.032C61.8062 136.942 61.0633 136.806 60.7591 136.626C60.2421 136.322 59.9822 135.849 59.9822 135.208C59.9822 134.722 60.1387 134.104 60.4548 133.359L61.4133 131.129H69.5187L70.7357 133.991C71.0503 134.734 71.2201 135.151 71.2423 135.253C71.3102 135.467 71.3442 135.681 71.3442 135.883C71.3518 136.034 71.3218 136.183 71.2568 136.319C71.1918 136.455 71.0939 136.572 70.972 136.66C70.6116 136.908 69.9795 137.032 69.0904 137.032H68.6384V137.653H79.7301V137.032C79.0301 136.976 78.4895 136.772 78.1055 136.424C77.5989 135.962 76.9461 134.836 76.156 133.057L67.8955 114.267H67.5691ZM65.528 121.994L68.9427 129.88H62.0115L65.528 121.994ZM92.8142 137.028V137.653H80.8275V137.028H81.5881C82.2527 137.028 82.7888 136.91 83.195 136.673C83.4874 136.515 83.7119 136.245 83.8699 135.861C83.994 135.592 84.056 134.882 84.056 133.734V118.661C84.056 117.49 83.994 116.757 83.8699 116.465C83.7459 116.172 83.4933 115.918 83.1093 115.704C82.7371 115.48 82.2306 115.367 81.5881 115.366H80.8275V114.741H92.8142V115.366H92.0536C91.389 115.366 90.8528 115.484 90.4467 115.72C90.1543 115.88 89.9224 116.149 89.7525 116.533C89.6299 116.803 89.5679 117.512 89.5679 118.661V133.733C89.5679 134.904 89.6299 135.637 89.754 135.929C89.8884 136.223 90.1424 136.481 90.5146 136.707C90.8986 136.922 91.4111 137.028 92.0536 137.028H92.8142ZM94.235 114.74V115.37C95.2836 115.37 95.9925 115.46 96.3765 115.652C96.7605 115.844 97.0293 116.103 97.177 116.429C97.3351 116.745 97.4133 117.522 97.4133 118.761V133.631C97.4133 134.869 97.3351 135.647 97.177 135.962C97.0293 136.278 96.7591 136.538 96.3765 136.74C96.0043 136.932 95.2939 137.032 94.235 137.032V137.653H105.968V137.032C104.919 137.032 104.198 136.93 103.814 136.74C103.432 136.548 103.162 136.3 103.003 135.985C102.856 135.657 102.789 134.869 102.789 133.631V127.209H104.288L111.682 137.651H118.895V137.031C118.316 137.007 117.757 136.807 117.294 136.458C116.99 136.21 116.472 135.579 115.751 134.576L110.239 126.827C111.638 126.477 112.731 125.948 113.507 125.249C114.726 124.146 115.334 122.749 115.334 121.059C115.334 119.674 114.928 118.469 114.116 117.444C113.32 116.418 112.219 115.672 110.971 115.314C109.687 114.93 107.659 114.74 104.887 114.74H94.235ZM102.789 115.98H104.593C106.408 115.98 107.727 116.395 108.538 117.23C109.36 118.063 109.766 119.348 109.766 121.093C109.766 122.299 109.54 123.279 109.09 124.033C108.683 124.749 108.036 125.299 107.264 125.588C106.486 125.868 105.315 126.016 103.748 126.016H102.789V115.98Z" fill="#2A7FFF"/>
<path d="M216.963 192.644L211.055 209.619H214.303L215.554 205.767H221.617L222.946 209.619H226.272L220.197 192.644H216.963ZM218.54 196.608L220.637 202.906H216.501L218.54 196.608ZM227.815 209.617V192.649H230.88V209.619H227.817M233.801 192.644V209.619H236.856V202.535H237.486C238.191 202.535 238.694 202.596 239.019 202.727C239.344 202.85 239.654 203.089 239.944 203.436C240.233 203.776 240.769 204.606 241.555 205.926L243.775 209.62H247.438L245.578 206.309C244.847 204.99 244.267 204.067 243.833 203.55C243.362 202.997 242.811 202.519 242.198 202.131C243.528 201.914 244.527 201.389 245.196 200.565C245.865 199.731 246.2 198.684 246.2 197.41C246.2 196.406 245.986 195.508 245.544 194.73C245.104 193.95 244.513 193.42 243.775 193.119C243.044 192.81 241.87 192.646 240.248 192.646L233.801 192.644ZM236.856 195.517H239.256C240.498 195.517 241.239 195.535 241.487 195.573C241.983 195.665 242.367 195.894 242.638 196.248C242.912 196.595 243.042 197.052 243.042 197.622C243.042 198.133 242.945 198.557 242.738 198.896C242.531 199.236 242.248 199.478 241.882 199.617C241.517 199.756 240.601 199.831 239.131 199.831H236.856V195.517ZM249.185 209.617V192.788H252.247V206.759H259.863V209.617H249.185ZM261.963 209.617V192.649H265.026V209.619H261.963M267.965 209.617V192.649H270.946L277.153 203.981V192.649H279.999V209.619H276.927L270.81 198.552V209.617H267.965ZM283.249 209.617V192.649H294.497V195.52H286.312V199.282H293.927V202.141H286.312V206.758H294.786V209.617H283.249ZM296.628 204.096L299.609 203.772C299.787 204.891 300.149 205.714 300.694 206.238C301.246 206.762 301.988 207.025 302.92 207.025C303.906 207.025 304.648 206.793 305.144 206.331C305.648 205.858 305.899 205.312 305.899 204.687C305.899 204.286 305.792 203.946 305.578 203.668C305.371 203.383 305.007 203.136 304.482 202.927C304.123 202.788 303.305 202.543 302.031 202.187C300.388 201.732 299.235 201.172 298.575 200.509C297.643 199.574 297.176 198.437 297.176 197.094C297.176 196.23 297.393 195.424 297.829 194.675C298.269 193.92 298.93 193.318 299.722 192.95C300.549 192.557 301.546 192.359 302.713 192.359C304.617 192.359 306.048 192.828 307.006 193.761C307.972 194.694 308.479 195.941 308.528 197.499L305.465 197.65C305.333 196.778 305.051 196.152 304.617 195.774C304.188 195.39 303.543 195.195 302.682 195.195C301.791 195.195 301.094 195.4 300.591 195.809C300.433 195.935 300.307 196.095 300.222 196.278C300.138 196.461 300.098 196.661 300.105 196.863C300.105 197.264 300.257 197.607 300.56 197.892C300.947 198.255 301.884 198.633 303.375 199.026C304.865 199.421 305.965 199.83 306.676 200.254C307.384 200.661 307.965 201.259 308.352 201.979C308.76 202.702 308.962 203.603 308.962 204.675C308.966 205.634 308.716 206.577 308.238 207.408C307.772 208.24 307.055 208.905 306.19 209.306C305.306 209.713 304.206 209.919 302.889 209.919C300.97 209.919 299.498 209.425 298.47 208.437C297.442 207.442 296.827 205.994 296.628 204.096Z" fill="#2A7FFF"/>
<path d="M158.478 254.144C156.741 252.619 154.78 248.354 154.077 244.57C153.231 240.004 153.749 236.144 155.926 230.796C156.845 228.541 158.056 226.026 158.616 225.211C159.484 223.912 160.326 222.596 161.14 221.263C165.275 214.497 174.349 205.67 186.587 196.51C188.446 195.116 190.292 193.706 192.125 192.278C193.452 191.24 195.618 189.818 196.942 189.119C199.782 187.62 201.294 186.01 201.136 184.654C201.052 183.923 200.801 183.689 200.012 183.598C199.454 183.533 198.642 183.712 198.209 183.996C196.383 185.186 191.256 187.139 189.954 187.139C188.838 187.139 188.263 186.858 187.003 185.697C186.005 184.778 185.094 184.254 184.491 184.254C183.729 184.254 181.119 186.667 171.131 196.601C164.303 203.391 157.93 209.433 156.969 210.026C152.745 212.641 148.639 213.672 144.136 213.248C141.403 212.991 139.653 211.982 137.859 209.629C136.911 208.389 136.828 208.034 136.828 205.184C136.828 202.104 136.84 202.07 138.6 199.208C140.749 195.721 144.93 190.435 146.398 189.35C147.906 188.234 147.797 187.081 145.988 185.031C143.713 182.452 143.056 180.93 143.347 178.917C144.059 173.982 147.976 167.899 154.56 161.504C157.647 158.506 162.801 154.286 165.666 152.41L170.009 149.569C173.788 147.098 179.505 143.874 181.118 143.305C183.171 142.581 184.141 142.679 185.543 143.747C187.2 145.009 187.241 146.579 185.661 148.377C185.045 149.077 184.274 149.657 183.948 149.666C182.712 149.7 180.499 150.735 176.228 153.28C169.846 157.082 167.775 158.508 165.141 160.911C158.647 166.835 157.351 168.054 154.942 170.497C151.678 173.808 151.454 174.252 152.402 175.527C153.282 176.71 154.677 176.94 156.298 176.171C156.957 175.859 157.805 175.604 158.181 175.604C158.559 175.604 159.649 175.077 160.605 174.433C161.561 173.787 163.19 172.693 164.226 171.999C165.262 171.305 166.988 170.133 168.062 169.393C169.246 168.578 170.966 167.813 172.434 167.451C174.683 166.897 174.921 166.897 175.761 167.448C176.259 167.773 176.935 168.56 177.265 169.195C177.838 170.303 177.827 170.414 177.021 171.935C176.557 172.807 175.668 173.867 175.045 174.292C169.85 177.822 161.206 184.705 156.086 189.385C149.872 195.064 143.861 202.657 143.861 204.828C143.861 205.825 145.585 206.963 147.091 206.963C150.193 206.963 152.723 205.678 157.607 201.626C160.379 199.322 161.866 197.727 166.742 191.825C171.84 185.65 179.479 178.481 183.471 176.125C184.785 175.348 185.371 174.357 186.749 170.584C187.352 168.933 188.2 166.995 188.633 166.276C189.065 165.558 190.036 163.809 190.787 162.388C197.33 150.035 212.514 133.597 218.401 132.494C219.875 132.218 221.278 133.049 222.074 134.674C222.516 135.575 222.484 135.78 221.75 136.773C221.295 137.387 220.92 138.439 220.899 139.153C220.869 140.243 221.024 140.505 221.946 140.915C223.862 141.769 224.102 141.952 224.568 142.899C224.962 143.702 224.884 144.312 223.989 147.371C223.418 149.319 222.515 151.941 221.98 153.197C221.445 154.454 220.444 157.037 219.757 158.935C219.069 160.835 218.362 162.564 218.186 162.778C217.851 163.187 215.273 169.557 215.273 169.977C215.273 170.11 214.623 171.365 213.83 172.764C212.339 175.393 212.076 176.589 212.82 177.333C214.019 178.533 217.022 176.847 220.249 173.167C221.38 171.875 223.085 169.99 224.037 168.975C225.712 167.193 230.539 161.004 233.002 157.481C236.96 151.824 239.891 147.316 241.233 144.817C242.89 141.734 247.498 134.699 248.108 134.322C248.315 134.195 248.91 133.414 249.43 132.588C250.796 130.422 253.097 127.765 258.011 122.681C263.713 116.782 265.617 115.882 268.388 117.763C269.837 118.748 269.968 119.215 269.305 121.046C268.936 122.068 268.968 122.331 269.541 122.963C269.908 123.368 270.413 123.697 270.667 123.697C271.334 123.697 272.619 125.645 272.619 126.659C272.619 127.136 272.213 128.561 271.718 129.825C271.221 131.091 270.816 132.72 270.816 133.449C270.816 134.178 270.665 135.566 270.482 136.536C270.107 138.515 269.984 143.651 270.234 147.012C270.426 149.591 272.213 153.57 273.767 154.877C276.563 157.229 281.014 153.296 289.88 140.639C294.148 134.547 295.34 132.643 295.34 131.925C295.34 131.394 294.59 130.416 293.177 129.104C291.308 127.372 291.013 126.92 291.013 125.806C291.013 123.733 292.06 122.779 295.444 121.766C297.073 121.278 298.973 120.761 299.668 120.618C302.737 119.983 303.753 119.129 306.284 115.062C307.605 112.938 308.686 111.071 308.686 110.913C308.686 110.757 309.22 109.879 309.876 108.962C310.736 107.721 311.542 106.444 312.292 105.134C313.043 103.824 313.849 102.547 314.709 101.306C315.363 100.39 315.899 99.4803 315.899 99.2824C315.899 99.0859 316.704 97.835 317.688 96.5028C318.813 94.951 319.855 93.3403 320.81 91.6777C321.542 90.3558 322.573 88.7061 323.102 88.012C323.629 87.3178 324.52 85.9398 325.083 84.9488C325.645 83.9578 327.593 80.8755 329.41 78.1003C331.229 75.3237 333.141 72.3138 333.659 71.4099C334.779 69.4618 337.496 66.861 338.74 66.5478C340.03 66.2244 341.831 67.2922 342.435 68.7396C342.893 69.8355 342.878 70.1471 342.28 71.689C341.911 72.6372 341.333 74.7123 340.992 76.297C340.699 77.6859 340.375 79.0681 340.022 80.4427C339.623 81.8709 339.146 84.4925 338.617 88.1921C338.418 89.5805 338.1 91.6083 337.914 92.6982C337.681 94.1339 337.494 95.5766 337.353 97.0242C337.134 99.0983 336.874 101.168 336.573 103.232C335.92 107.736 336.075 108.81 337.424 109.148C338.388 109.39 341.185 108.64 343.671 107.475C344.365 107.15 346.474 106.441 348.359 105.902C350.835 105.179 353.3 104.416 355.752 103.613C357.934 102.893 360.611 102.109 361.704 101.867C365.541 101.019 368.393 100.22 370.087 99.5187C371.028 99.1273 373.647 98.3416 375.905 97.7715C378.165 97.2014 380.345 96.556 380.752 96.3389C381.158 96.1203 381.987 95.943 382.592 95.943C383.198 95.943 385.359 95.3966 387.395 94.732C389.431 94.0644 392.396 93.2373 393.982 92.8902C396.221 92.3773 398.446 91.806 400.655 91.177C402.738 90.5818 406.876 89.4874 409.852 88.746C412.828 88.0046 416.448 86.9693 417.898 86.4435C420.991 85.324 421.65 85.2797 423.041 86.1023C424.825 87.1553 425.154 89.6528 423.714 91.1977C422.998 91.9657 419.741 93.0586 418.17 93.0586C417.649 93.0586 416.28 93.3762 415.128 93.7646C413.976 94.1515 411.587 94.7969 409.819 95.1972C405.061 96.2739 396.753 98.6281 393.773 99.7461C392.897 100.074 390.974 100.569 389.501 100.846C388.029 101.123 384.701 102.069 382.108 102.951C379.514 103.833 376.175 104.827 374.686 105.161C373.199 105.494 370.223 106.395 368.074 107.163C365.925 107.931 363.807 108.559 363.369 108.559C362.929 108.559 362.415 108.692 362.226 108.853C362.038 109.014 360.504 109.513 358.818 109.962C357.132 110.411 355.023 111.077 354.129 111.442C353.237 111.807 351.695 112.291 350.703 112.517C347.653 113.216 345.065 114.024 341.859 115.282C340.168 115.946 338.527 116.489 338.211 116.489C337.895 116.489 337.208 116.825 336.685 117.236C335.879 117.871 335.734 118.265 335.731 119.85C335.728 120.875 335.406 123.256 335.013 125.14C334.622 127.023 334.3 129.025 334.297 129.59C334.291 131.054 333.319 134.198 332.253 136.211C330.699 139.14 329.078 140.809 326.469 142.163C323.579 143.664 321.663 144.014 316.875 143.921C313.775 143.862 313.071 143.721 311.105 142.778C309.767 142.135 307.704 140.621 305.98 139.019C304.394 137.542 302.771 136.334 302.373 136.331C300.911 136.318 299.877 137.301 297.451 141C296.086 143.082 294.541 145.433 294.015 146.228C292.435 148.61 286.575 155.433 283.878 158.028C279.67 162.075 274.802 163.732 272.229 161.994C270.36 160.73 266.839 157.398 266.623 156.689C266.254 155.473 265.348 154.697 264.298 154.697C263.464 154.697 262.959 155.175 261.197 157.628C260.04 159.24 258.931 160.821 258.733 161.143C258.411 161.663 257.779 162.498 254.184 167.147C251.972 170.008 246.123 175.991 244.386 177.168C242.286 178.593 237.437 180.139 236.114 179.807C235.642 179.689 234.557 178.948 233.705 178.162C232.367 176.927 232.187 176.592 232.386 175.691C232.512 175.116 232.45 174.214 232.248 173.684C231.961 172.929 231.642 172.719 230.779 172.719C229.864 172.719 229.043 173.347 225.947 176.415C220.726 181.585 216.128 185.331 209.386 189.902C205.907 192.261 205.815 192.361 204.281 195.414C203.421 197.124 202.539 199.186 202.321 199.998C202.102 200.809 201.681 201.673 201.384 201.918C201.089 202.165 200.847 202.568 200.847 202.816C200.847 203.321 194.605 215.68 191.607 221.115C190.539 223.05 189.666 224.771 189.666 224.936C189.666 225.103 189.186 225.9 188.602 226.708C188.015 227.516 186.788 229.609 185.874 231.358C184.961 233.108 183.695 235.316 183.062 236.266C182.429 237.215 180.868 239.566 179.594 241.492C173.148 251.225 168.108 255.254 162.358 255.262C159.958 255.265 159.655 255.177 158.478 254.144ZM165.603 247.565C167.508 246.761 171.178 242.467 173.977 237.769C174.606 236.719 175.281 235.697 176 234.706C176.794 233.654 178.659 230.511 181.664 225.166C182.348 224.003 183.055 222.854 183.787 221.721C184.62 220.421 186.147 217.664 187.179 215.593C188.212 213.524 189.35 211.449 189.712 210.982C190.073 210.515 190.474 209.542 190.604 208.82C190.734 208.096 191.328 206.334 191.92 204.906C192.514 203.476 192.904 202.056 192.787 201.751C192.403 200.754 190.858 201.138 189.084 202.673C188.147 203.485 186.717 204.56 185.908 205.066C181.512 207.802 172.329 216.816 168.662 221.993C168.213 222.628 167.338 223.843 166.718 224.695C164.319 227.999 161.874 232.646 160.97 235.62C159.983 238.862 160.039 244.157 161.083 246.13C162.157 248.162 163.32 248.53 165.603 247.565ZM195.797 177.974C196.491 177.519 197.659 176.791 198.394 176.357C201.678 174.413 211.997 162.136 212.021 160.145C212.024 159.869 212.677 158.291 213.468 156.637C214.263 154.983 214.913 153.503 214.913 153.348C214.913 153.192 215.223 152.483 215.606 151.772C215.987 151.063 216.484 149.767 216.713 148.895C216.942 148.022 217.635 146.198 218.254 144.842C219.425 142.273 219.366 141.327 218.017 141.062C217.437 140.948 214.818 142.465 213.29 143.8C212.223 144.73 206.966 150.797 205.716 152.539C205.121 153.367 204.19 154.639 203.648 155.363C200.783 159.197 199.675 160.892 198.435 163.341C197.686 164.824 196.627 166.543 196.087 167.16C195.543 167.778 194.61 169.606 194.014 171.223C193.418 172.842 192.682 174.642 192.379 175.226C191.715 176.514 191.668 178.18 192.279 178.793C192.846 179.358 194.149 179.055 195.797 177.974ZM243.643 171.337C245.717 169.693 248.378 166.31 251.487 161.366L255.456 155.058C260.153 147.595 264.701 136.386 264.922 131.726C265.037 129.277 264.989 129.085 264.139 128.527C263.275 127.961 263.168 127.976 261.883 128.844C261.144 129.347 260.03 130.218 259.413 130.782C256.609 133.339 250.734 141.276 249.381 144.331C248.913 145.389 248.28 146.463 247.972 146.718C247.12 147.424 242.48 157.033 241.421 160.284C240.224 163.958 239.077 168.826 239.077 170.235C239.077 173.086 240.886 173.521 243.643 171.337ZM322.216 137.267C326.292 135.369 328.522 129.986 328.522 122.04C328.522 118.948 328.119 118.691 325.14 119.882C323.858 120.395 322.462 120.813 322.04 120.813C321.618 120.813 320.832 121.042 320.294 121.32C319.757 121.599 318.264 122.024 316.976 122.268C315.689 122.511 314.149 122.922 313.554 123.18C312.96 123.439 311.505 124.025 310.324 124.485C307.881 125.434 305.8 127.71 305.8 129.432C305.8 130.674 307.903 132.401 313.013 135.355C318.247 138.382 319.334 138.608 322.214 137.267H322.216ZM318.614 115.639C319.005 115.369 321.272 114.698 323.653 114.148C329.051 112.9 329.602 112.439 329.608 109.17C329.611 107.942 329.88 104.422 330.206 101.35C331.003 93.8547 331.009 92.6953 330.259 92.2168C329.816 91.9361 329.422 91.9539 328.816 92.2788C327.942 92.7485 325.19 96.6165 324.57 98.2441C324.372 98.764 323.263 100.607 322.104 102.343C319.932 105.589 315.177 113.932 315.177 114.493C315.177 115.119 316.388 116.128 317.137 116.128C317.558 116.128 318.222 115.907 318.614 115.639ZM85.9716 241.478C83.6898 238.831 83.4594 238.157 83.5125 234.319C83.5406 232.414 83.8227 229.494 84.1432 227.831C84.4637 226.168 84.8905 223.833 85.0943 222.644C86.3113 215.524 87.4781 210.08 88.4927 206.783C88.9816 205.197 89.8869 201.872 90.5058 199.394C91.1231 196.916 92.0935 193.472 92.6621 191.741C93.4223 189.376 94.1446 186.998 94.8287 184.61C95.4535 182.42 96.2569 179.862 96.6158 178.927C97.5551 176.478 97.9539 175.317 98.62 173.081C99.2196 171.068 100.747 167.515 102.066 165.062C102.488 164.274 102.745 163.22 102.679 162.538C102.509 160.773 101.244 160.798 98.8327 162.616C97.7707 163.415 96.7413 164.069 96.5434 164.069C96.347 164.069 94.78 164.985 93.0638 166.104C86.6362 170.296 84.7605 171.485 83.0473 172.452C81.2898 173.443 77.0997 176.242 73.7353 178.674C72.7428 179.391 71.6233 179.915 71.2098 179.856C70.5599 179.763 70.4359 179.408 70.2276 177.079C70.0976 175.613 70.0976 174.122 70.2276 173.768C70.3591 173.414 72.2037 172.019 74.3261 170.669C80.6296 166.661 81.4626 166.135 84.5094 164.249C87.2491 162.552 88.2638 161.902 94.0903 158.105C95.5643 157.154 97.0675 156.249 98.5978 155.391C99.7882 154.738 101.271 153.787 101.896 153.279C102.519 152.771 104.386 151.571 106.043 150.616C107.702 149.659 109.868 148.321 110.858 147.641C113.258 145.993 114.665 145.992 116.308 147.632C116.981 148.306 117.533 149.183 117.533 149.579C117.533 149.975 116.891 151.329 116.105 152.589C113.914 156.104 111.906 159.841 111.423 161.298C111.184 162.024 110.85 162.701 110.682 162.806C110.514 162.91 110.109 163.799 109.781 164.779C109.456 165.76 108.805 167.129 108.334 167.822C107.864 168.516 106.982 170.633 106.374 172.529C105.767 174.424 105.11 176.257 104.915 176.601C104.126 177.989 102.746 181.503 102.746 182.124C102.746 182.488 102.436 183.644 102.055 184.691C100.612 188.676 98.49 195.672 98.2685 197.179C98.1415 198.043 97.8165 199.178 97.5477 199.703C97.2789 200.227 96.9392 201.546 96.7915 202.634C96.6439 203.723 96.2185 205.181 95.8463 205.873C95.4771 206.568 95.1714 207.675 95.1714 208.34C95.1714 209.004 94.8671 210.792 94.4949 212.31C94.1227 213.831 93.4581 217.101 93.018 219.579C92.5749 222.057 91.9059 225.373 91.5293 226.948C90.3418 231.906 90.7435 234.012 92.7787 233.502C93.2514 233.384 93.9248 232.852 94.2734 232.321C94.6205 231.79 95.5303 230.678 96.2968 229.848C97.0603 229.02 98.394 227.302 99.2565 226.033C105.043 217.526 106.322 215.602 107.232 214.026C107.974 212.784 108.779 211.581 109.645 210.422C110.412 209.412 111.039 208.467 111.039 208.322C111.039 208.177 111.648 207.123 112.391 205.98C114.012 203.479 117.164 198.245 119.718 193.807C120.744 192.023 121.796 190.32 122.053 190.022C122.311 189.725 123.082 188.426 123.766 187.139C124.543 185.682 125.345 184.24 126.173 182.813C130.545 175.381 135.147 166.959 140.359 156.86C141.535 154.58 142.669 152.503 142.877 152.246C143.241 151.799 146.041 146.42 148.918 140.639C149.685 139.103 150.496 137.589 151.349 136.099C151.946 135.087 152.554 133.872 152.702 133.396C152.848 132.919 153.507 131.605 154.164 130.475C154.821 129.344 155.951 127.074 156.672 125.428C157.394 123.783 158.426 121.706 158.966 120.814C159.505 119.922 160.788 117.32 161.816 115.032C164.135 109.873 165.74 106.832 166.727 105.731C168.464 103.793 170.862 103.344 172.521 104.647C173.797 105.651 173.649 106.383 171.296 110.712C170.295 112.553 169.328 114.601 169.143 115.264C168.96 115.929 168.247 117.407 167.558 118.552C166.87 119.698 166.183 121.039 166.033 121.535C165.881 122.028 165.269 123.327 164.671 124.418C164.074 125.508 161.402 130.699 158.734 135.953C156.063 141.208 153.559 145.956 153.166 146.507C152.707 147.199 152.352 147.954 152.111 148.749C151.922 149.431 151.392 150.44 150.93 150.991C150.469 151.543 149.97 152.4 149.822 152.896C149.671 153.391 149.261 154.283 148.906 154.877C148.553 155.472 147.101 158.219 145.681 160.981C144.258 163.743 142.807 166.419 142.452 166.928C142.098 167.438 141.359 168.828 140.808 170.017C140.109 171.489 139.349 172.932 138.532 174.343C135.443 179.586 134.924 180.54 134.531 181.708C134.302 182.389 133.892 183.2 133.62 183.51C133.347 183.82 132.483 185.291 131.7 186.778C130.851 188.38 129.964 189.963 129.042 191.524C128.26 192.827 127.49 194.136 126.73 195.452L123.573 200.958C122.429 202.949 121.202 204.913 120.843 205.321C120.483 205.729 118.991 208.09 117.528 210.569C114.569 215.575 111.697 220.03 109.889 222.413C109.165 223.375 108.466 224.355 107.795 225.354C106.018 228.049 100.621 234.933 98.8991 236.701C94.7253 240.987 91.5189 242.987 88.797 243.002C87.4707 243.008 87.1369 242.829 85.9716 241.478Z" fill="#2A7FFF"/>
<path d="M155.182 252.393C153.443 250.867 151.483 246.602 150.78 242.818C149.934 238.252 150.451 234.392 152.63 229.044C153.548 226.789 154.758 224.274 155.318 223.459C156.187 222.16 157.029 220.844 157.843 219.511C161.977 212.745 171.051 203.919 183.29 194.758C185.15 193.364 186.996 191.954 188.829 190.526C190.154 189.488 192.32 188.067 193.644 187.367C196.484 185.87 197.996 184.26 197.838 182.902C197.754 182.173 197.503 181.937 196.716 181.846C196.156 181.781 195.345 181.962 194.911 182.244C193.085 183.434 187.959 185.387 186.658 185.387C185.541 185.387 184.965 185.106 183.706 183.945C182.709 183.026 181.797 182.502 181.195 182.502C180.433 182.502 177.821 184.915 167.833 194.849C161.005 201.639 154.632 207.681 153.672 208.274C149.447 210.889 145.342 211.92 140.838 211.496C138.106 211.239 136.355 210.23 134.561 207.877C133.613 206.637 133.531 206.282 133.531 203.432C133.531 200.354 133.542 200.318 135.304 197.456C137.453 193.969 141.632 188.683 143.102 187.598C144.608 186.482 144.501 185.33 142.691 183.279C140.417 180.702 139.758 179.178 140.049 177.165C140.761 172.23 144.679 166.147 151.263 159.752C154.349 156.753 159.503 152.534 162.37 150.658L166.712 147.817C170.49 145.346 176.209 142.122 177.821 141.553C179.873 140.829 180.845 140.927 182.245 141.995C183.903 143.259 183.943 144.827 182.363 146.625C181.749 147.326 180.978 147.907 180.65 147.914C179.414 147.948 177.203 148.983 172.93 151.528C166.55 155.331 164.477 156.756 161.844 159.159C155.35 165.083 154.053 166.302 151.646 168.745C148.382 172.056 148.157 172.5 149.106 173.775C149.986 174.958 151.38 175.188 153.002 174.419C153.66 174.107 154.508 173.852 154.885 173.852C155.263 173.852 156.353 173.325 157.307 172.681L160.928 170.247C161.965 169.553 163.69 168.381 164.764 167.641C165.948 166.826 167.669 166.061 169.137 165.701C171.385 165.145 171.623 165.145 172.465 165.696C172.962 166.021 173.639 166.808 173.967 167.443C174.54 168.551 174.531 168.662 173.723 170.183C173.261 171.055 172.372 172.116 171.747 172.54C166.554 176.07 157.908 182.953 152.789 187.633C146.574 193.312 140.565 200.905 140.565 203.077C140.565 204.073 142.288 205.211 143.793 205.211C146.896 205.211 149.426 203.926 154.309 199.874C157.081 197.57 158.57 195.975 163.444 190.073C168.543 183.898 176.182 176.73 180.174 174.373C181.489 173.598 182.075 172.605 183.453 168.833C184.056 167.181 184.903 165.241 185.336 164.524C185.767 163.806 186.738 162.057 187.489 160.636C194.032 148.283 209.218 131.845 215.103 130.742C216.577 130.466 217.98 131.297 218.777 132.922C219.22 133.823 219.187 134.028 218.452 135.021C217.998 135.635 217.623 136.687 217.602 137.401C217.573 138.491 217.726 138.753 218.648 139.163C220.564 140.017 220.804 140.2 221.27 141.147C221.665 141.95 221.586 142.56 220.691 145.619C220.122 147.567 219.218 150.189 218.682 151.445C218.147 152.702 217.147 155.285 216.459 157.183C215.772 159.083 215.065 160.812 214.889 161.026C214.554 161.435 211.975 167.805 211.975 168.225C211.975 168.358 211.325 169.613 210.534 171.012C209.042 173.641 208.778 174.837 209.524 175.583C210.723 176.781 213.725 175.095 216.953 171.415C218.082 170.124 219.788 168.238 220.739 167.223C222.414 165.441 227.242 159.252 229.706 155.73C233.664 150.073 236.594 145.564 237.937 143.065C239.594 139.982 244.202 132.948 244.812 132.57C245.018 132.443 245.612 131.664 246.134 130.836C247.498 128.67 249.799 126.013 254.714 120.929C260.415 115.032 262.319 114.129 265.09 116.011C266.54 116.996 266.67 117.463 266.009 119.294C265.639 120.316 265.67 120.579 266.245 121.211C266.61 121.616 267.116 121.945 267.369 121.945C268.038 121.945 269.321 123.895 269.321 124.907C269.321 125.384 268.917 126.809 268.42 128.073C267.924 129.339 267.519 130.968 267.519 131.697C267.519 132.426 267.369 133.814 267.184 134.784C266.809 136.763 266.688 141.9 266.938 145.26C267.128 147.839 268.915 151.818 270.469 153.125C273.265 155.477 277.716 151.544 286.582 138.887C290.85 132.795 292.044 130.891 292.044 130.173C292.044 129.642 291.292 128.664 289.88 127.352C288.012 125.62 287.715 125.168 287.715 124.054C287.715 121.981 288.763 121.027 292.146 120.014C293.776 119.526 295.677 119.009 296.371 118.866C299.44 118.231 300.456 117.377 302.986 113.31C304.307 111.186 305.388 109.319 305.388 109.161C305.388 109.005 305.924 108.127 306.578 107.212C307.438 105.97 308.244 104.692 308.994 103.382C309.745 102.072 310.551 100.796 311.411 99.5552C312.066 98.6395 312.601 97.7283 312.601 97.5318C312.601 97.3339 313.406 96.083 314.391 94.7508C315.375 93.4186 316.779 91.2475 317.512 89.9257C318.246 88.6038 319.277 86.9541 319.804 86.26C320.333 85.5658 321.223 84.1878 321.786 83.1968C322.347 82.2058 324.297 79.1235 326.113 76.3483C327.931 73.5717 329.844 70.5617 330.362 69.6579C331.481 67.7098 334.2 65.1089 335.443 64.7958C336.732 64.4724 338.534 65.5417 339.138 66.9876C339.596 68.0835 339.581 68.3951 338.982 69.937C338.614 70.8867 338.037 72.9603 337.695 74.545C337.356 76.1312 336.919 77.9966 336.724 78.6907C336.325 80.1189 335.849 82.7404 335.321 86.4416C335.121 87.8299 334.804 89.8563 334.616 90.9462C334.383 92.3819 334.196 93.8246 334.055 95.2721C333.837 97.3468 333.577 99.4168 333.276 101.481C332.624 105.984 332.777 107.058 334.127 107.396C335.092 107.638 337.889 106.888 340.373 105.723C341.067 105.398 343.176 104.689 345.061 104.15C347.538 103.427 350.002 102.664 352.454 101.861C354.637 101.143 357.315 100.357 358.406 100.115C362.243 99.2672 365.097 98.4682 366.789 97.7667C367.73 97.3753 370.349 96.5896 372.608 96.0195C374.867 95.4494 377.048 94.804 377.454 94.5868C377.862 94.3683 378.69 94.191 379.296 94.191C379.901 94.191 382.062 93.6446 384.097 92.98C386.134 92.3124 389.098 91.4853 390.684 91.1397C392.923 90.6268 395.148 90.0555 397.357 89.4265C400.411 88.5729 403.477 87.7619 406.554 86.994C409.53 86.2526 413.151 85.2172 414.6 84.6915C417.693 83.572 418.352 83.5291 419.743 84.3503C421.527 85.4033 421.858 87.9008 420.416 89.4457C419.702 90.2137 416.445 91.3066 414.874 91.3066C414.352 91.3066 412.983 91.6241 411.831 92.0126C410.679 92.3995 408.291 93.0449 406.523 93.4452C401.763 94.5219 393.457 96.8761 390.476 97.9941C389.599 98.322 387.677 98.8168 386.203 99.0944C384.731 99.3706 381.403 100.317 378.81 101.199C376.217 102.081 372.877 103.075 371.39 103.409C369.903 103.742 366.927 104.643 364.778 105.411C362.629 106.179 360.509 106.807 360.071 106.807C359.631 106.807 359.117 106.94 358.929 107.101C358.74 107.263 357.207 107.761 355.52 108.21C353.834 108.659 351.725 109.325 350.831 109.69C349.939 110.055 348.397 110.539 347.405 110.765C344.356 111.464 341.769 112.272 338.561 113.531C336.871 114.194 335.229 114.737 334.913 114.737C334.597 114.737 333.912 115.073 333.389 115.484C332.582 116.119 332.438 116.513 332.433 118.098C332.43 119.123 332.108 121.504 331.717 123.388C331.325 125.271 331.002 127.273 331.001 127.838C330.993 129.302 330.023 132.446 328.955 134.459C327.403 137.388 325.781 139.057 323.173 140.411C320.283 141.912 318.367 142.263 313.579 142.169C310.477 142.11 309.773 141.971 307.807 141.026C306.47 140.383 304.407 138.869 302.682 137.267C301.096 135.792 299.473 134.582 299.077 134.579C297.615 134.567 296.579 135.549 294.154 139.248C292.79 141.33 291.243 143.681 290.717 144.476C289.139 146.858 283.278 153.683 280.58 156.276C276.374 160.323 271.506 161.98 268.933 160.242C267.063 158.978 263.542 155.646 263.326 154.937C262.957 153.721 262.052 152.946 261 152.946C260.167 152.946 259.661 153.423 257.9 155.876C256.744 157.488 255.635 159.069 255.437 159.391C255.115 159.911 254.483 160.746 250.888 165.395C248.674 168.256 242.825 174.239 241.09 175.416C238.988 176.841 234.141 178.387 232.816 178.055C232.344 177.937 231.259 177.197 230.409 176.41C229.069 175.175 228.89 174.84 229.088 173.939C229.214 173.364 229.153 172.462 228.951 171.932C228.665 171.179 228.346 170.969 227.482 170.969C226.566 170.969 225.746 171.595 222.649 174.663C217.43 179.833 212.83 183.579 206.088 188.15C202.61 190.509 202.517 190.609 200.984 193.662C200.124 195.372 199.241 197.435 199.024 198.246C198.806 199.058 198.385 199.922 198.088 200.166C197.792 200.413 197.549 200.816 197.549 201.066C197.549 201.568 191.309 213.93 188.311 219.365C187.243 221.299 186.368 223.019 186.368 223.184C186.368 223.351 185.89 224.148 185.305 224.956C184.719 225.764 183.491 227.857 182.577 229.606C181.663 231.356 180.397 233.564 179.765 234.514C179.133 235.463 177.572 237.814 176.297 239.74C169.852 249.475 164.811 253.502 159.062 253.51C156.662 253.513 156.359 253.425 155.182 252.393ZM162.306 245.813C164.21 245.009 167.88 240.715 170.681 236.017C171.31 234.967 171.985 233.945 172.704 232.954C173.496 231.902 175.362 228.759 178.366 223.414C178.702 222.821 179.656 221.27 180.49 219.97C181.323 218.671 182.849 215.912 183.881 213.841C184.915 211.772 186.054 209.697 186.414 209.23C186.776 208.765 187.178 207.792 187.308 207.068C187.438 206.344 188.03 204.582 188.622 203.154C189.217 201.724 189.607 200.304 189.489 199.999C189.107 199.002 187.56 199.388 185.788 200.921C184.849 201.733 183.419 202.81 182.61 203.314C178.214 206.05 169.032 215.064 165.365 220.241C164.916 220.876 164.042 222.091 163.421 222.943C161.023 226.247 158.577 230.894 157.672 233.868C156.685 237.11 156.743 242.405 157.787 244.378C158.859 246.41 160.022 246.779 162.306 245.813ZM192.501 176.222C193.195 175.767 194.363 175.039 195.097 174.605C198.38 172.661 208.699 160.384 208.725 158.393C208.728 158.117 209.379 156.539 210.172 154.885C210.967 153.231 211.615 151.751 211.615 151.596C211.615 151.44 211.927 150.732 212.309 150.022C212.689 149.31 213.188 148.016 213.417 147.142C213.646 146.27 214.338 144.446 214.956 143.09C216.128 140.521 216.069 139.575 214.719 139.31C214.14 139.196 211.52 140.713 209.993 142.048C208.927 142.978 203.669 149.045 202.418 150.787C201.737 151.734 201.048 152.675 200.352 153.611C197.487 157.445 196.379 159.14 195.138 161.589C194.388 163.072 193.331 164.791 192.789 165.408C192.245 166.027 191.313 167.856 190.716 169.473C190.12 171.09 189.384 172.89 189.083 173.475C188.417 174.76 188.37 176.429 188.983 177.041C189.548 177.606 190.852 177.303 192.501 176.222ZM240.346 169.585C242.419 167.941 245.082 164.558 248.191 159.614L252.158 153.306C256.855 145.843 261.403 134.634 261.625 129.974C261.74 127.525 261.693 127.333 260.841 126.775C259.977 126.209 259.872 126.225 258.587 127.094C257.846 127.595 256.733 128.466 256.115 129.03C253.311 131.587 247.436 139.524 246.085 142.579C245.617 143.638 244.983 144.712 244.676 144.966C243.824 145.674 239.182 155.281 238.123 158.532C236.926 162.206 235.78 167.074 235.78 168.483C235.78 171.334 237.59 171.769 240.346 169.585ZM318.918 135.515C322.994 133.619 325.224 128.234 325.224 120.288C325.224 117.196 324.821 116.939 321.842 118.13C320.56 118.643 319.166 119.061 318.744 119.061C318.321 119.061 317.535 119.29 316.996 119.568C316.459 119.847 314.966 120.273 313.679 120.516C312.391 120.759 310.852 121.17 310.257 121.428C309.662 121.687 308.209 122.273 307.027 122.733C304.584 123.682 302.503 125.958 302.503 127.68C302.503 128.922 304.605 130.649 309.717 133.603C314.949 136.63 316.038 136.856 318.918 135.515ZM315.317 113.887C315.707 113.617 317.976 112.946 320.356 112.396C325.753 111.148 326.305 110.687 326.311 107.418C326.313 106.19 326.583 102.67 326.909 99.598C327.707 92.1027 327.713 90.9433 326.961 90.4648C326.52 90.1841 326.125 90.2019 325.518 90.5268C324.645 90.9964 321.892 94.8645 321.274 96.4936C321.076 97.012 319.965 98.8566 318.807 100.591C316.636 103.837 311.88 112.18 311.88 112.741C311.88 113.367 313.09 114.376 313.84 114.376C314.261 114.376 314.926 114.156 315.317 113.887ZM82.6751 239.724C80.3933 237.077 80.1614 236.404 80.216 232.565C80.2426 230.66 80.5262 227.74 80.8467 226.077C81.1657 224.414 81.594 222.079 81.7978 220.89C83.0148 213.77 84.1816 208.326 85.1962 205.03C85.6836 203.443 86.5904 200.119 87.2078 197.641C87.8266 195.162 88.7969 191.718 89.3641 189.987C90.1243 187.622 90.8466 185.245 91.5307 182.857C92.1555 180.666 92.9604 178.11 93.3178 177.173C94.2586 174.726 94.6559 173.564 95.3235 171.328C95.9231 169.315 97.4502 165.761 98.7677 163.308C99.1915 162.521 99.447 161.466 99.3821 160.784C99.2107 159.019 97.9465 159.044 95.5347 160.862C94.4742 161.661 93.4434 162.316 93.2454 162.316C93.049 162.316 91.4835 163.231 89.7658 164.351C83.3382 168.544 81.464 169.731 79.7493 170.699C77.9918 171.69 73.8032 174.488 70.4373 176.921C69.4463 177.637 68.3268 178.161 67.9118 178.102C67.2634 178.009 67.1394 177.655 66.9311 175.326C66.7997 173.859 66.7997 172.369 66.9311 172.015C67.0626 171.66 68.9058 170.266 71.0296 168.916C77.3316 164.908 78.1661 164.382 81.2115 162.496C83.9526 160.8 84.9673 160.149 90.7923 156.352C92.2668 155.4 93.7705 154.495 95.3013 153.637C96.4917 152.984 97.9746 152.033 98.5978 151.525C99.2211 151.017 101.088 149.818 102.746 148.862C104.404 147.905 106.57 146.567 107.56 145.888C109.961 144.24 111.367 144.238 113.01 145.879C113.685 146.552 114.235 147.43 114.235 147.825C114.235 148.221 113.593 149.576 112.809 150.835C110.616 154.351 108.608 158.087 108.127 159.545C107.888 160.27 107.554 160.948 107.384 161.053C107.216 161.158 106.811 162.045 106.485 163.026C106.16 164.007 105.508 165.376 105.037 166.068C104.568 166.763 103.684 168.879 103.077 170.775C102.47 172.67 101.813 174.503 101.617 174.847C100.828 176.236 99.4485 179.749 99.4485 180.371C99.4485 180.734 99.1384 181.891 98.7588 182.938C97.3158 186.923 95.1935 193.919 94.9705 195.425C94.8435 196.289 94.52 197.425 94.2512 197.949C93.9824 198.474 93.6413 199.793 93.4936 200.881C93.3459 201.969 92.922 203.427 92.5498 204.12C92.1791 204.814 91.8749 205.922 91.8749 206.586C91.8749 207.251 91.5706 209.038 91.1984 210.558C90.8262 212.078 90.1601 215.347 89.72 217.826C89.2784 220.304 88.6094 223.62 88.2328 225.196C87.0438 230.154 87.4456 232.26 89.4808 231.749C89.9549 231.631 90.6283 231.099 90.9754 230.567C91.324 230.037 92.2338 228.925 92.9988 228.096C93.7638 227.266 95.096 225.549 95.96 224.28C101.745 215.773 103.024 213.848 103.935 212.273C104.677 211.031 105.483 209.828 106.349 208.669C107.114 207.659 107.741 206.713 107.743 206.569C107.743 206.424 108.351 205.369 109.093 204.226C110.716 201.726 113.866 196.492 116.421 192.053C117.448 190.269 118.499 188.566 118.756 188.268C119.013 187.973 119.784 186.673 120.47 185.385C121.246 183.929 122.049 182.487 122.877 181.059C127.249 173.627 131.851 165.206 137.061 155.107C138.238 152.826 139.371 150.75 139.581 150.493C139.944 150.045 142.743 144.666 145.622 138.886C146.388 137.349 147.199 135.835 148.053 134.346C148.649 133.334 149.258 132.118 149.404 131.643C149.552 131.166 150.209 129.851 150.866 128.721C151.523 127.592 152.653 125.32 153.375 123.675C154.096 122.03 155.129 119.953 155.669 119.061C156.208 118.169 157.492 115.567 158.52 113.279C160.838 108.12 162.444 105.079 163.43 103.977C165.167 102.039 167.566 101.59 169.223 102.893C170.5 103.897 170.353 104.63 168 108.959C166.999 110.799 166.03 112.848 165.847 113.511C165.663 114.175 164.95 115.654 164.262 116.8C163.574 117.944 162.887 119.285 162.735 119.78C162.584 120.275 161.971 121.573 161.374 122.665C160.778 123.755 158.105 128.946 155.436 134.199C152.767 139.454 150.262 144.203 149.869 144.753C149.41 145.446 149.055 146.201 148.813 146.995C148.626 147.678 148.094 148.687 147.632 149.237C147.172 149.79 146.672 150.646 146.524 151.143C146.375 151.637 145.963 152.529 145.61 153.125C145.255 153.718 143.805 156.465 142.383 159.227C140.962 161.989 139.51 164.665 139.156 165.175C138.801 165.684 138.063 167.074 137.51 168.263C136.811 169.735 136.052 171.179 135.236 172.589C132.146 177.834 131.628 178.788 131.233 179.954C131.004 180.635 130.595 181.446 130.322 181.756C130.05 182.066 129.185 183.537 128.402 185.025C127.553 186.627 126.667 188.209 125.745 189.77C125.069 190.894 124.027 192.662 123.432 193.699L120.275 199.205C119.133 201.197 117.904 203.16 117.545 203.568C117.186 203.975 115.695 206.337 114.23 208.815C111.271 213.822 108.4 218.276 106.592 220.66C105.868 221.621 105.17 222.602 104.498 223.601C102.721 226.296 97.3247 233.18 95.6026 234.948C91.4288 239.234 88.2224 241.234 85.5005 241.248C84.1742 241.256 83.8404 241.075 82.6751 239.724Z" fill="#F41315"/>
</svg>
