<svg width="480" height="320" viewBox="0 0 480 320" fill="none" xmlns="http://www.w3.org/2000/svg">
<path fill-rule="evenodd" clip-rule="evenodd" d="M94.399 149.99H94.3045L89.9549 164.646H98.7493L94.399 149.99ZM87.5904 172.686L86.7389 175.618C86.0758 177.888 83.5237 178.833 81.5372 178.833C78.6055 178.833 75.6738 176.658 75.6738 173.631C75.6738 171.74 76.7151 168.809 77.6603 166.16L86.2663 142.328C87.4951 139.019 89.1028 137.129 92.318 137.129H96.3847C99.6 137.129 101.303 139.019 102.532 142.328L111.042 166.161C111.988 168.809 113.029 171.741 113.029 173.631C113.029 176.658 110.096 178.834 107.166 178.834C105.179 178.834 102.72 177.889 102.059 175.619L101.112 172.687L87.5904 172.686ZM117.853 144.125C117.853 139.774 120.31 137.129 124.283 137.129C128.255 137.129 130.714 139.774 130.714 144.125V171.929C130.714 176.184 128.255 178.833 124.283 178.833C120.31 178.833 117.853 176.184 117.853 171.929V144.125ZM157.854 155.38C161.638 155.38 163.151 154.244 163.151 151.502C163.151 148.759 161.638 147.625 157.854 147.625H151.52V155.38H157.854ZM138.942 145.544C138.942 140.153 141.305 137.884 146.886 137.884H161.072C170.907 137.884 175.351 143.18 175.351 149.326C175.351 154.528 172.135 157.933 167.123 158.878V158.973C171.191 159.257 174.027 160.676 174.595 164.931L175.068 168.241C175.351 170.132 175.635 172.213 175.635 173.915C175.635 176.942 172.609 178.833 169.866 178.833C166.084 178.833 163.151 177.225 162.774 173.253L162.111 167.957C161.733 164.742 159.559 163.796 156.532 163.796H151.52V172.118C151.52 176.373 149.25 178.833 145.184 178.833C141.212 178.833 138.942 176.373 138.942 172.118V145.544ZM228.027 167.673C231.336 167.673 233.606 169.565 233.606 172.874C233.606 176.184 231.336 178.076 228.027 178.076H209.112C204.1 178.076 201.734 175.806 201.734 170.415V144.125C201.734 139.774 204.193 137.129 208.166 137.129C212.138 137.129 214.598 139.774 214.598 144.125V167.673H228.027ZM264.151 144.125C264.151 139.774 266.609 137.129 270.487 137.129C274.459 137.129 276.919 139.774 276.919 144.125V162.473C276.919 174.672 268.691 179.021 257.625 179.021C246.561 179.021 238.334 174.672 238.334 162.473V144.125C238.334 139.774 240.792 137.129 244.765 137.129C248.737 137.129 251.196 139.774 251.196 144.125V162.377C251.196 166.634 253.086 169.281 257.625 169.281C262.166 169.281 264.151 166.634 264.151 162.377V144.125ZM283.916 146.49C283.065 145.165 282.687 144.125 282.687 142.99C282.687 139.492 285.524 137.129 288.644 137.129C290.534 137.129 292.711 138.073 293.848 140.059L298.479 148.475L303.112 140.059C304.156 138.073 306.327 137.128 308.219 137.128C311.341 137.128 314.179 139.492 314.179 142.99C314.179 144.125 313.895 145.165 313.042 146.49L305.857 157.365L313.704 169.281C314.557 170.511 315.218 171.74 315.218 173.158C315.218 177.319 311.434 178.833 308.979 178.833C306.611 178.833 304.626 177.508 303.396 175.334L298.479 166.634L293.563 175.334C292.234 177.508 290.25 178.833 287.886 178.833C285.523 178.833 281.739 177.319 281.739 173.159C281.739 171.74 282.402 170.511 283.159 169.281L291.009 157.365L283.916 146.49ZM339.241 146.963C333.849 146.963 331.295 151.502 331.295 158.027C331.295 164.552 333.849 168.998 339.241 168.998C344.632 168.998 347.181 164.552 347.181 158.027C347.181 151.502 344.632 146.963 339.241 146.963ZM339.241 136.938C349.925 136.938 360.043 143.936 360.043 158.027C360.043 172.592 350.019 179.021 339.24 179.021C328.457 179.021 318.434 172.592 318.434 158.027C318.434 143.936 328.551 136.938 339.241 136.938ZM385.201 155.38C388.981 155.38 390.495 154.244 390.495 151.502C390.495 148.759 388.982 147.625 385.201 147.625H378.864V155.38H385.201ZM366.287 145.544C366.287 140.153 368.65 137.884 374.228 137.884H388.417C398.249 137.884 402.695 143.18 402.695 149.326C402.695 154.528 399.48 157.933 394.465 158.878V158.973C398.534 159.257 401.372 160.676 401.94 164.931L402.411 168.241C402.695 170.132 402.98 172.213 402.98 173.915C402.98 176.942 399.954 178.833 397.21 178.833C393.426 178.833 390.495 177.225 390.117 173.253L389.456 167.957C389.078 164.742 386.903 163.796 383.878 163.796H378.864V172.118C378.864 176.373 376.595 178.833 372.527 178.833C368.557 178.833 366.286 176.373 366.286 172.118L366.287 145.544Z" fill="#1B1979"/>
</svg>
