<svg width="480" height="320" viewBox="0 0 480 320" fill="none" xmlns="http://www.w3.org/2000/svg">
<path fill-rule="evenodd" clip-rule="evenodd" d="M208.219 165.992C193.843 165.139 182.946 158.87 180.987 151.156C177.861 132.777 212.235 134.284 222.839 163.859H232.528C232.528 163.859 221.564 139.149 199.317 135.493C170.218 131.994 166.918 164.596 208.219 165.992Z" fill="#F0B140"/>
<path d="M208.219 165.992C193.843 165.139 182.946 158.87 180.987 151.156C177.861 132.777 212.235 134.284 222.839 163.859H232.527C232.527 163.859 221.564 139.149 199.317 135.493C170.218 131.994 166.914 164.596 208.219 165.992Z" stroke="#F0B140" stroke-width="0.269129" stroke-miterlimit="3.864"/>
<path fill-rule="evenodd" clip-rule="evenodd" d="M208.219 165.992C193.843 165.139 182.946 158.87 180.987 151.156C177.861 132.777 212.235 134.284 222.839 163.859C227.323 163.859 230.213 163.863 230.213 163.863C230.213 163.863 220.657 140.648 198.754 136.57C171.564 133.655 168.197 163.615 208.219 165.992Z" fill="black"/>
<path d="M208.219 165.992C193.843 165.139 182.946 158.87 180.987 151.156C177.861 132.777 212.235 134.284 222.839 163.859C227.323 163.859 230.213 163.863 230.213 163.863C230.213 163.863 220.657 140.648 198.754 136.57C171.564 133.655 168.197 163.615 208.219 165.992Z" stroke="black" stroke-width="0.269129" stroke-miterlimit="3.864"/>
<path fill-rule="evenodd" clip-rule="evenodd" d="M208.219 165.992C193.843 165.139 182.946 158.87 180.987 151.156C177.861 132.777 212.235 134.284 222.839 163.859C227.323 163.859 227.956 163.863 227.956 163.863C227.956 163.863 219.982 142.23 198.419 137.65C173.033 135.071 169.887 162.953 208.219 165.992Z" fill="#007351"/>
<path d="M208.219 165.992C193.843 165.139 182.946 158.87 180.987 151.156C177.861 132.777 212.235 134.284 222.839 163.859C227.323 163.859 227.956 163.863 227.956 163.863C227.956 163.863 219.982 142.23 198.419 137.65C173.033 135.071 169.887 162.953 208.219 165.992V165.992Z" stroke="#007351" stroke-width="0.269129" stroke-miterlimit="3.864"/>
<path fill-rule="evenodd" clip-rule="evenodd" d="M267.051 163.863C253.284 159.114 245.595 149.219 243.802 147.72C237.397 140.983 225.824 130.164 213.138 127.254C160.003 115.938 150.907 169.511 208.219 165.992C161.8 165.611 167.402 129.734 200.1 132.16C217.966 134.073 227.741 146.391 232.234 151.554C244.816 166.36 247.396 163.536 267.051 163.863Z" fill="#D62327"/>
<path d="M267.051 163.863C253.284 159.114 245.595 149.219 243.802 147.72C237.397 140.983 225.824 130.164 213.138 127.254C160.003 115.938 150.907 169.511 208.219 165.992C161.8 165.611 167.402 129.734 200.1 132.16C217.966 134.073 227.741 146.391 232.234 151.554C244.816 166.36 247.396 163.536 267.051 163.863V163.863Z" stroke="#D62327" stroke-width="0.269129" stroke-miterlimit="3.864"/>
<path fill-rule="evenodd" clip-rule="evenodd" d="M281.327 125.159C295.703 126.016 306.6 132.284 308.559 139.994C311.685 158.378 277.315 156.866 266.707 127.283C262.223 127.283 257.018 127.287 257.018 127.287C257.018 127.287 267.982 151.997 290.229 155.657C319.324 159.16 322.632 126.554 281.327 125.159Z" fill="#F0B140"/>
<path d="M281.327 125.159C295.703 126.016 306.6 132.284 308.559 139.994C311.685 158.378 277.315 156.866 266.707 127.283C262.223 127.283 257.018 127.287 257.018 127.287C257.018 127.287 267.982 151.997 290.229 155.657C319.324 159.16 322.632 126.554 281.327 125.159V125.159Z" stroke="#F0B140" stroke-width="0.269129" stroke-miterlimit="3.864"/>
<path fill-rule="evenodd" clip-rule="evenodd" d="M281.327 125.159C295.702 126.016 306.6 132.284 308.559 139.994C311.685 158.378 277.315 156.866 266.707 127.283H259.333C259.333 127.283 268.889 150.498 290.792 154.581C317.982 157.491 321.344 127.535 281.327 125.159Z" fill="black"/>
<path d="M281.327 125.159C295.702 126.016 306.6 132.284 308.559 139.994C311.685 158.378 277.315 156.866 266.707 127.283H259.333C259.333 127.283 268.889 150.498 290.792 154.581C317.982 157.491 321.344 127.535 281.327 125.159V125.159Z" stroke="black" stroke-width="0.269129" stroke-miterlimit="3.864"/>
<path fill-rule="evenodd" clip-rule="evenodd" d="M281.327 125.159C295.703 126.016 306.6 132.284 308.559 139.994C311.685 158.378 277.315 156.866 266.707 127.283H261.589C261.589 127.283 269.56 148.917 291.127 153.496C316.517 156.08 319.659 128.202 281.327 125.159Z" fill="#007351"/>
<path d="M281.327 125.159C295.703 126.016 306.6 132.284 308.559 139.994C311.685 158.378 277.315 156.866 266.707 127.283H261.589C261.589 127.283 269.56 148.917 291.127 153.496C316.517 156.08 319.659 128.202 281.327 125.159V125.159Z" stroke="#007351" stroke-width="0.269129" stroke-miterlimit="3.864"/>
<path fill-rule="evenodd" clip-rule="evenodd" d="M222.487 127.282C236.262 132.031 243.947 141.931 245.74 143.426C252.145 150.167 263.713 160.986 276.412 163.896C329.542 175.212 338.635 121.639 281.327 125.162C327.745 125.543 322.143 161.416 289.442 158.99C271.58 157.077 261.809 144.759 257.312 139.6C244.729 124.79 242.15 127.618 222.487 127.282Z" fill="#D62327"/>
<path d="M222.487 127.282C236.262 132.031 243.947 141.931 245.74 143.426C252.145 150.167 263.713 160.986 276.412 163.896C329.542 175.212 338.635 121.639 281.327 125.162C327.745 125.543 322.143 161.416 289.442 158.99C271.58 157.077 261.809 144.759 257.312 139.6C244.729 124.79 242.15 127.618 222.487 127.282V127.282Z" stroke="#D62327" stroke-width="0.269129" stroke-miterlimit="3.864"/>
<path d="M368.272 179.295H362.546C362.206 179.295 362.351 178.951 362.351 178.951L362.782 178.135C362.782 178.135 362.977 177.99 363.266 177.937H369.088C369.088 177.937 371.353 174.14 371.642 173.705C371.932 173.274 372.226 172.74 373.468 172.74C374.727 172.74 381.079 172.74 381.368 172.695C381.654 172.645 382.623 172.695 382.043 173.61L379.489 177.941H386.329C386.714 177.941 386.66 178.094 386.569 178.185C386.569 178.185 386.217 178.781 386.039 179.05C385.948 179.191 385.898 179.191 385.608 179.245C385.314 179.291 378.578 179.245 378.578 179.245C378.578 179.245 373.133 188.3 372.988 188.582C372.839 188.867 371.928 190.403 371.829 190.896C371.738 191.377 371.684 192.151 373.617 191.716C375.539 191.281 379.166 188.913 379.783 188.582C380.503 188.192 382.188 188.445 381.074 189.451C377.994 192.246 369.332 196.142 363.548 194.407C360.467 193.484 361.382 191.136 361.768 190.172C362.161 189.211 368.272 179.295 368.272 179.295ZM105.871 182.566C104.853 182.855 103.702 182.284 104.853 181.555C104.853 181.555 110.202 177.274 118.193 176.839C118.193 176.839 126.284 176.26 124.267 180.011C124.267 180.011 123.303 182.085 121.178 184.719C119.928 186.131 118.827 187.886 117.183 189.886C117.183 189.886 115.357 192.101 118.003 191.476C118.003 191.476 120.984 190.706 123.882 188.586C124.503 188.06 126.623 188.346 125.087 189.646C125.087 189.646 117.518 195.376 108.182 194.705C108.182 194.705 103.606 194.561 105.627 191.045C105.627 191.045 107.652 187.621 108.952 186.28C110.248 184.93 113.287 181.025 113.428 180.649C113.428 180.649 114.877 178.91 112.223 179.44C112.223 179.44 110.347 179.874 108.612 181.025C108.612 181.021 106.356 182.425 105.871 182.566ZM120.272 170.43C126.329 168.103 132.904 172.318 126.387 174.864C119.833 177.411 114.632 172.595 120.272 170.43ZM56.7034 194.465C55.3081 194.511 54.8236 193.401 56.604 192.966C56.604 192.966 58.4341 192.776 58.7736 192.726C58.7736 192.726 60.554 192.681 61.3738 192.105C61.3738 192.105 63.7339 190.805 64.3094 190.275L72.9754 184.156C72.9754 184.156 86.3614 174.765 86.9866 174.334C86.9866 174.334 91.8475 170.914 92.0918 170.678C92.0918 170.678 93.0524 169.759 95.3669 169.759C97.6814 169.759 98.0127 170.19 98.112 171.689C98.112 171.689 99.1678 189.596 99.3169 190.466C99.3169 190.466 99.0271 192.105 101.043 192.586C101.043 192.586 102.927 192.921 103.548 192.921C104.418 192.966 105.097 194.316 103.168 194.411C103.168 194.411 100.613 194.507 99.7475 194.411C99.7475 194.411 92.3858 194.076 85.6865 194.411C85.6865 194.411 83.2271 194.556 82.7013 194.465C81.4964 194.465 81.3515 193.401 82.3618 193.161C82.3618 193.161 84.4817 192.822 85.5375 192.776C85.5375 192.776 88.1832 192.726 87.9472 190.991C87.9472 190.991 88.0921 187.766 87.7568 186.371H74.0395C74.0395 186.371 70.5242 189.07 69.605 189.89C69.605 189.89 68.9343 190.515 68.7438 190.755C68.7438 190.755 67.4437 192.155 69.605 192.486C69.605 192.486 71.6297 192.921 73.025 192.921C74.4204 192.921 74.7102 194.171 73.1203 194.411C73.1203 194.411 69.8452 194.507 68.9798 194.362C68.9798 194.362 64.4502 194.122 60.405 194.362C60.4091 194.366 57.1506 194.445 56.7034 194.465ZM87.765 184.59L87.5746 176.5L76.5444 184.59H87.765ZM126.188 182.806C125.327 183 124.458 182.52 125.178 181.853C125.178 181.853 126.573 180.4 132.204 178.144C132.204 178.144 136.345 176.264 141.599 177.034C141.599 177.034 144.299 177.374 143.048 180.5C143.048 180.5 141.748 183.775 141.073 184.739C141.073 184.739 142.224 183.82 143.963 182.284C146.29 180.421 149.545 178.115 151.863 177.61C151.863 177.61 157.349 175.688 160.819 177.663C160.819 177.663 163.56 179.493 160.819 181.559C160.819 181.559 158.36 183.725 154.074 182.764C153.544 182.619 152.497 182.065 152.385 180.938C152.385 180.938 152.385 179.928 150.899 180.264C150.899 180.264 148.153 180.889 144.779 184.015C144.779 184.015 141.988 186.955 141.264 187.77C141.264 187.77 136.883 192.59 136.399 193.211C136.399 193.211 135.583 194.366 133.943 194.221C133.943 194.221 131.149 194.469 126.578 194.271C126.578 194.271 125.422 194.175 126.097 193.314C126.097 193.314 132.548 182.909 133.173 181.319C133.173 181.319 134.138 179.684 132.113 179.97C132.113 179.97 130.387 180.504 128.983 181.319C128.693 181.651 126.507 182.74 126.188 182.806ZM170.446 171.97C169.34 171.78 169.199 170.914 170.595 170.575C170.595 170.575 174.396 170.43 175.261 170.575C175.261 170.575 180.946 170.914 187.778 170.575C187.778 170.575 191.189 170.426 191.972 170.529C193.127 170.674 193.512 171.825 191.972 172.119C191.972 172.119 189.036 172.55 188.225 172.74C188.225 172.74 186.577 172.74 186.482 174.38C186.482 174.38 186.341 175.485 186.531 176.5C186.531 176.5 188.022 187.099 188.08 187.53C188.08 187.53 204.782 176.119 204.977 175.779C204.977 175.779 206.567 174.384 206.902 174.04C206.902 174.04 208.012 172.744 206.037 172.405C206.037 172.405 203.296 172.144 202.712 172.123C201.557 172.078 201.122 170.869 203.052 170.579C203.052 170.579 205.403 170.488 206.472 170.579C206.472 170.579 210.517 171.063 215.477 170.579C215.477 170.579 218.073 170.488 218.657 170.579C219.767 170.625 220.247 172.02 218.417 172.215C218.417 172.215 214.127 172.264 211.668 174.094C211.668 174.094 203.052 179.684 197.176 184.015C197.176 184.015 186.817 191.29 186.146 191.766C185.475 192.254 184.32 193.215 183.786 193.554C183.265 193.89 181.807 194.805 179.551 194.805C177.294 194.805 176.954 194.225 176.954 192.639C176.954 192.639 174.785 174.968 174.69 174.049C174.69 174.049 174.727 172.546 172.905 172.368C171.406 172.215 171.112 172.09 170.446 171.97ZM241.479 182.615C240.705 183 239.844 182.28 240.556 181.601C241.289 180.93 245.326 178.951 246.199 178.616C247.061 178.284 253.089 175.796 257.221 177.08C259.242 177.705 258.766 179.055 258.563 179.68C258.376 180.305 256.927 183.626 256.497 184.06C256.497 184.06 261.068 180.106 263.726 178.86C265.697 177.932 268.877 176.744 273.017 176.744C274.996 176.744 276.342 176.984 277.348 177.32C278.362 177.659 279.704 178.616 278.648 180.595C278.648 180.595 277.393 182.855 275.808 184.735L271.618 190.515C271.377 190.851 270.698 192.006 272.723 191.666C272.723 191.666 274.412 191.016 275.572 190.271C275.572 190.271 277.443 188.872 278.217 188.586C278.992 188.304 279.898 188.681 279.182 189.596C279.149 189.638 277.203 191.666 272.098 193.645C270.081 194.424 266.512 195.331 262.277 194.416C260.024 193.927 260.393 192.089 260.637 191.236C260.939 190.196 262.107 188.785 262.467 188.106C262.467 188.106 267.928 181.129 268.053 180.35C268.144 179.725 268.682 178.814 266.227 179.295C263.999 179.725 259.01 184.135 257.801 185.356C256.625 186.549 253.387 189.666 251.3 193.115C250.555 194.329 249.855 194.221 249.085 194.221C248.315 194.221 242.68 194.416 242.196 194.316C241.715 194.221 240.08 194.316 240.8 193.31C241.525 192.296 247.926 181.849 248.071 180.789C248.071 180.789 248.891 179.299 247.255 179.825C247.21 179.845 245.218 180.798 244.556 181.125C243.885 181.46 242.485 182.247 241.479 182.615ZM224.959 186.805C218.943 191.091 214.989 193.488 208.587 194.606C201.122 195.902 196.03 191.72 201.793 185.311C206.178 180.454 217.113 177.556 221.878 177.22C223.377 177.117 227.704 176.885 229.638 177.705C229.638 177.705 230.308 177.941 230.594 177.514C230.594 177.514 231.219 176.744 232.569 176.794H239.649C240.229 176.748 241.14 176.889 240.465 177.899C240.274 178.62 234.54 187.149 233.48 189.65C233.48 189.65 232.656 191.882 234.83 190.996C237.157 190.052 237.91 189.509 238.44 189.17C238.97 188.83 239.695 188.205 240.125 188.159C240.556 188.11 241.984 188.135 240.85 189.31C239.624 190.586 234.879 192.971 233 193.505C231.12 194.031 227.7 195.186 224.425 194.71C221.692 194.308 222.454 192.3 222.644 191.724C222.843 191.14 224.959 186.805 224.959 186.805ZM222.648 178.86C213.527 182.176 209.966 188.54 210.463 189.981C210.761 190.838 211.697 191.981 214.272 191.095C222.607 188.201 227.526 182.404 228.474 180.885C229.203 179.725 228.768 179.15 227.704 178.669C226.934 178.318 224.238 178.284 222.648 178.86ZM343.069 179.001C333.948 182.321 330.387 188.689 330.884 190.13C331.186 190.983 332.109 192.126 334.693 191.24C343.028 188.346 347.947 182.549 348.895 181.03C349.624 179.878 349.185 179.299 348.129 178.814C347.359 178.462 344.659 178.421 343.069 179.001ZM280.917 182.152C280.006 182.628 278.851 182.007 279.472 181.477C280.101 180.951 282.673 179.369 285.012 178.491C285.786 178.202 292.717 175.846 296.957 176.806C300.638 177.647 299.077 179.891 298.833 180.417C298.593 180.947 295.897 184.371 295.653 184.657C295.413 184.938 292.092 189.037 291.897 189.613C291.707 190.192 290.838 191.062 293.152 190.962C295.467 190.871 302.013 187.062 303.453 185.903C304.903 184.748 308.178 182.624 310.248 178.537C311.047 176.964 311.738 177.237 312.318 177.142C312.898 177.051 320.168 177.096 320.168 177.096C320.168 177.096 321.324 176.997 320.843 177.87C320.33 178.794 318.098 182.441 317.618 183.212C317.138 183.978 313.477 190.143 313.287 190.437C313.092 190.722 312.703 191.691 314.438 191.302C316.177 190.917 317.042 190.242 317.514 189.952C317.949 189.695 319.374 188.756 320.189 188.486C320.591 187.547 321.249 186.528 322.218 185.46C326.603 180.591 337.529 177.705 342.295 177.369C343.802 177.266 348.129 177.026 350.054 177.85C350.054 177.85 350.733 178.09 351.015 177.659C351.015 177.659 351.636 176.885 352.994 176.93H360.07C360.65 176.885 361.561 177.022 360.886 178.044C360.695 178.765 354.965 187.286 353.901 189.791C353.901 189.791 353.077 192.022 355.246 191.136C357.577 190.188 358.339 189.646 358.861 189.31C359.395 188.971 360.115 188.346 360.55 188.3C360.981 188.25 362.405 188.275 361.271 189.455C360.041 190.726 355.296 193.115 353.42 193.645C351.545 194.175 348.129 195.335 344.85 194.85C342.113 194.449 342.875 192.436 343.069 191.865C343.264 191.285 345.384 186.946 345.384 186.946C339.364 191.236 335.414 193.633 329.004 194.751C323.758 195.67 319.672 193.865 319.725 190.486C317.196 192.056 312.206 194.407 306.642 194.627C301.781 194.821 302.692 192.08 303.081 191.211C303.462 190.341 304.907 187.315 305.532 186.441C305.532 186.441 299.081 190.776 294.937 192.325C290.796 193.861 288.341 194.631 285.115 194.631C281.261 194.631 278.598 192.598 280.921 189.381C281.314 188.855 287.492 181.34 288.051 180.524C288.585 179.75 288.482 179.22 286.755 179.51C285.016 179.792 281.89 181.816 280.917 182.152ZM383.828 182.375C382.913 182.855 381.758 182.23 382.383 181.7C383.004 181.174 385.579 179.593 387.923 178.719C388.693 178.429 395.624 176.069 399.864 177.03C403.545 177.87 401.984 180.114 401.744 180.649C401.503 181.174 398.808 184.594 398.564 184.88C398.319 185.166 394.999 189.269 394.808 189.845C394.618 190.412 393.748 191.285 396.063 191.186C398.373 191.095 404.923 187.29 406.368 186.131C407.813 184.971 411.089 182.851 413.155 178.761C413.95 177.187 414.641 177.46 415.225 177.365C415.809 177.274 423.075 177.32 423.075 177.32C423.075 177.32 424.23 177.22 423.754 178.094C423.237 179.017 421.009 182.665 420.529 183.439C420.044 184.205 416.388 190.366 416.198 190.664C415.995 190.946 415.614 191.919 417.349 191.526C419.08 191.145 419.949 190.47 420.429 190.18C420.91 189.894 422.645 188.735 423.365 188.644C424.094 188.544 425.005 188.739 424.284 189.509C423.365 190.47 416.964 194.561 409.544 194.854C404.679 195.045 405.594 192.3 405.983 191.43C406.373 190.569 407.813 187.534 408.439 186.665C408.439 186.665 401.984 191 397.839 192.544C393.703 194.084 391.243 194.859 388.018 194.859C384.167 194.859 381.493 192.817 383.828 189.604C384.213 189.079 390.399 181.564 390.958 180.744C391.484 179.97 391.388 179.444 389.662 179.729C387.923 180.011 384.793 182.04 383.828 182.375Z" fill="black"/>
<path d="M368.272 179.295H362.546C362.206 179.295 362.351 178.951 362.351 178.951L362.782 178.135C362.782 178.135 362.977 177.99 363.266 177.937H369.088C369.088 177.937 371.353 174.14 371.642 173.705C371.932 173.274 372.226 172.74 373.468 172.74C374.727 172.74 381.079 172.74 381.368 172.695C381.654 172.645 382.623 172.695 382.043 173.61L379.489 177.941H386.329C386.714 177.941 386.66 178.094 386.569 178.185C386.569 178.185 386.217 178.781 386.039 179.05C385.948 179.191 385.898 179.191 385.608 179.237C385.314 179.291 378.578 179.237 378.578 179.237C378.578 179.237 373.133 188.3 372.988 188.582C372.839 188.867 371.928 190.403 371.829 190.896C371.738 191.377 371.684 192.151 373.617 191.708C375.539 191.277 379.166 188.913 379.783 188.582C380.503 188.192 382.188 188.445 381.074 189.451C377.994 192.246 369.332 196.142 363.548 194.407C360.467 193.484 361.382 191.136 361.768 190.172C362.161 189.211 368.272 179.295 368.272 179.295V179.295ZM105.871 182.566C104.853 182.855 103.702 182.284 104.853 181.555C104.853 181.555 110.202 177.274 118.193 176.839C118.193 176.839 126.284 176.26 124.267 180.011C124.267 180.011 123.303 182.085 121.178 184.715C119.928 186.131 118.827 187.886 117.183 189.886C117.183 189.886 115.357 192.101 118.003 191.476C118.003 191.476 120.984 190.706 123.882 188.586C124.503 188.06 126.623 188.346 125.087 189.646C125.087 189.646 117.518 195.376 108.182 194.705C108.182 194.705 103.606 194.561 105.627 191.045C105.627 191.045 107.652 187.621 108.952 186.28C110.248 184.93 113.287 181.025 113.428 180.649C113.428 180.649 114.877 178.91 112.223 179.44C112.223 179.44 110.347 179.874 108.612 181.025C108.612 181.021 106.356 182.425 105.871 182.566V182.566ZM120.272 170.43C126.329 168.103 132.904 172.318 126.387 174.864C119.833 177.411 114.632 172.595 120.272 170.43V170.43ZM56.7034 194.465C55.3081 194.511 54.8236 193.401 56.604 192.966C56.604 192.966 58.4341 192.776 58.7736 192.726C58.7736 192.726 60.554 192.681 61.3738 192.105C61.3738 192.105 63.7339 190.805 64.3094 190.275L72.9754 184.156C72.9754 184.156 86.3614 174.765 86.9866 174.334C86.9866 174.334 91.8475 170.914 92.0918 170.678C92.0918 170.678 93.0524 169.759 95.3669 169.759C97.6814 169.759 98.0127 170.19 98.112 171.689C98.112 171.689 99.1678 189.596 99.3169 190.466C99.3169 190.466 99.0271 192.105 101.043 192.586C101.043 192.586 102.927 192.921 103.548 192.921C104.418 192.966 105.097 194.316 103.168 194.411C103.168 194.411 100.613 194.507 99.7475 194.411C99.7475 194.411 92.3858 194.076 85.6865 194.411C85.6865 194.411 83.2271 194.556 82.7013 194.465C81.4964 194.465 81.3515 193.401 82.3618 193.161C82.3618 193.161 84.4817 192.822 85.5375 192.776C85.5375 192.776 88.1832 192.726 87.9472 190.991C87.9472 190.991 88.0921 187.766 87.7568 186.371H74.0395C74.0395 186.371 70.5242 189.07 69.605 189.89C69.605 189.89 68.9343 190.511 68.7438 190.755C68.7438 190.755 67.4437 192.155 69.605 192.486C69.605 192.486 71.6297 192.921 73.025 192.921C74.4204 192.921 74.7102 194.171 73.1203 194.411C73.1203 194.411 69.8452 194.507 68.9798 194.362C68.9798 194.362 64.4502 194.122 60.405 194.362C60.4091 194.366 57.1506 194.445 56.7034 194.465V194.465ZM87.765 184.59L87.5746 176.5L76.5444 184.59H87.765ZM126.188 182.806C125.327 183 124.458 182.52 125.178 181.853C125.178 181.853 126.573 180.4 132.204 178.144C132.204 178.144 136.345 176.264 141.599 177.034C141.599 177.034 144.299 177.374 143.048 180.5C143.048 180.5 141.748 183.775 141.073 184.739C141.073 184.739 142.224 183.82 143.963 182.284C146.29 180.421 149.545 178.115 151.863 177.61C151.863 177.61 157.349 175.688 160.819 177.663C160.819 177.663 163.56 179.493 160.819 181.559C160.819 181.559 158.36 183.725 154.074 182.764C153.544 182.619 152.497 182.056 152.385 180.938C152.385 180.938 152.385 179.928 150.899 180.264C150.899 180.264 148.153 180.889 144.779 184.015C144.779 184.015 141.988 186.955 141.264 187.77C141.264 187.77 136.883 192.59 136.399 193.211C136.399 193.211 135.583 194.366 133.943 194.221C133.943 194.221 131.149 194.469 126.578 194.271C126.578 194.271 125.422 194.175 126.097 193.314C126.097 193.314 132.548 182.909 133.173 181.319C133.173 181.319 134.138 179.684 132.113 179.97C132.113 179.97 130.387 180.504 128.983 181.319C128.693 181.651 126.507 182.74 126.188 182.806V182.806ZM170.446 171.97C169.34 171.78 169.199 170.914 170.595 170.575C170.595 170.575 174.396 170.43 175.261 170.575C175.261 170.575 180.946 170.914 187.778 170.575C187.778 170.575 191.189 170.426 191.972 170.529C193.127 170.674 193.512 171.825 191.972 172.119C191.972 172.119 189.036 172.55 188.225 172.74C188.225 172.74 186.577 172.74 186.482 174.38C186.482 174.38 186.341 175.485 186.531 176.5C186.531 176.5 188.022 187.099 188.08 187.53C188.08 187.53 204.782 176.119 204.977 175.779C204.977 175.779 206.567 174.384 206.902 174.04C206.902 174.04 208.012 172.744 206.037 172.405C206.037 172.405 203.296 172.144 202.712 172.123C201.557 172.078 201.122 170.869 203.052 170.579C203.052 170.579 205.403 170.488 206.472 170.579C206.472 170.579 210.517 171.063 215.477 170.579C215.477 170.579 218.073 170.488 218.657 170.579C219.767 170.625 220.247 172.02 218.417 172.215C218.417 172.215 214.127 172.264 211.668 174.094C211.668 174.094 203.052 179.684 197.176 184.015C197.176 184.015 186.817 191.29 186.146 191.766C185.475 192.254 184.32 193.215 183.786 193.554C183.265 193.89 181.807 194.805 179.551 194.805C177.294 194.805 176.954 194.225 176.954 192.639C176.954 192.639 174.785 174.968 174.69 174.049C174.69 174.049 174.727 172.546 172.905 172.368C171.406 172.215 171.112 172.09 170.446 171.97V171.97ZM241.479 182.615C240.705 183 239.844 182.28 240.556 181.601C241.289 180.93 245.326 178.951 246.199 178.616C247.061 178.284 253.089 175.796 257.221 177.08C259.242 177.705 258.766 179.055 258.563 179.68C258.376 180.305 256.927 183.626 256.497 184.06C256.497 184.06 261.068 180.106 263.726 178.86C265.697 177.932 268.877 176.744 273.017 176.744C274.996 176.744 276.342 176.984 277.348 177.32C278.362 177.659 279.704 178.616 278.648 180.595C278.648 180.595 277.393 182.855 275.808 184.735L271.618 190.511C271.377 190.851 270.698 192.006 272.723 191.666C272.723 191.666 274.412 191.016 275.572 190.271C275.572 190.271 277.443 188.872 278.217 188.586C278.992 188.304 279.898 188.681 279.182 189.596C279.149 189.638 277.203 191.666 272.098 193.645C270.081 194.424 266.512 195.331 262.281 194.416C260.024 193.927 260.393 192.089 260.641 191.236C260.943 190.196 262.111 188.785 262.471 188.106C262.471 188.106 267.933 181.129 268.057 180.35C268.148 179.725 268.686 178.814 266.231 179.295C264.003 179.725 259.014 184.135 257.805 185.356C256.629 186.549 253.391 189.666 251.305 193.115C250.559 194.329 249.859 194.221 249.089 194.221C248.319 194.221 242.684 194.416 242.2 194.316C241.719 194.221 240.084 194.316 240.804 193.31C241.529 192.296 247.93 181.849 248.075 180.789C248.075 180.789 248.895 179.299 247.259 179.825C247.214 179.845 245.222 180.798 244.56 181.125C243.885 181.46 242.485 182.247 241.479 182.615V182.615ZM224.959 186.805C218.943 191.091 214.989 193.488 208.587 194.606C201.122 195.902 196.03 191.72 201.793 185.311C206.178 180.446 217.113 177.556 221.878 177.22C223.377 177.117 227.704 176.885 229.638 177.705C229.638 177.705 230.308 177.941 230.594 177.514C230.594 177.514 231.219 176.744 232.569 176.794H239.649C240.229 176.748 241.14 176.889 240.465 177.899C240.274 178.62 234.54 187.149 233.48 189.65C233.48 189.65 232.656 191.882 234.83 190.996C237.157 190.052 237.91 189.509 238.44 189.17C238.97 188.83 239.695 188.205 240.125 188.159C240.556 188.11 241.984 188.135 240.85 189.31C239.624 190.586 234.879 192.971 233 193.505C231.12 194.031 227.7 195.186 224.425 194.71C221.692 194.308 222.454 192.3 222.644 191.716C222.843 191.14 224.959 186.805 224.959 186.805V186.805ZM222.648 178.86C213.527 182.172 209.966 188.54 210.463 189.981C210.761 190.838 211.697 191.981 214.272 191.095C222.607 188.201 227.526 182.404 228.474 180.885C229.203 179.725 228.768 179.15 227.704 178.669C226.934 178.318 224.238 178.284 222.648 178.86V178.86ZM343.069 179.001C333.948 182.321 330.387 188.689 330.884 190.13C331.186 190.983 332.11 192.126 334.693 191.24C343.028 188.346 347.947 182.549 348.895 181.03C349.624 179.878 349.185 179.299 348.129 178.814C347.359 178.462 344.659 178.421 343.069 179.001V179.001ZM280.917 182.152C280.006 182.628 278.851 182.007 279.472 181.477C280.101 180.951 282.673 179.369 285.012 178.491C285.786 178.202 292.717 175.846 296.957 176.806C300.638 177.647 299.077 179.891 298.833 180.417C298.593 180.947 295.897 184.371 295.653 184.657C295.413 184.938 292.092 189.037 291.897 189.613C291.707 190.192 290.838 191.062 293.152 190.962C295.467 190.871 302.013 187.062 303.453 185.903C304.903 184.748 308.178 182.624 310.248 178.537C311.047 176.959 311.738 177.237 312.318 177.142C312.898 177.051 320.168 177.096 320.168 177.096C320.168 177.096 321.324 176.997 320.843 177.87C320.33 178.794 318.098 182.441 317.618 183.212C317.138 183.978 313.477 190.143 313.287 190.437C313.092 190.722 312.703 191.691 314.438 191.302C316.177 190.917 317.042 190.242 317.514 189.952C317.949 189.695 319.373 188.756 320.189 188.486C320.591 187.547 321.249 186.528 322.218 185.46C326.603 180.591 337.529 177.705 342.295 177.369C343.802 177.266 348.129 177.026 350.054 177.85C350.054 177.85 350.733 178.09 351.015 177.659C351.015 177.659 351.636 176.885 352.994 176.93H360.07C360.65 176.885 361.561 177.022 360.886 178.044C360.695 178.765 354.965 187.286 353.901 189.791C353.901 189.791 353.077 192.022 355.246 191.136C357.577 190.188 358.339 189.646 358.861 189.31C359.395 188.971 360.115 188.346 360.55 188.3C360.981 188.25 362.405 188.275 361.271 189.455C360.041 190.726 355.296 193.115 353.42 193.645C351.545 194.175 348.129 195.335 344.85 194.85C342.113 194.449 342.875 192.436 343.069 191.865C343.264 191.285 345.384 186.946 345.384 186.946C339.364 191.236 335.414 193.633 329.004 194.751C323.758 195.67 319.672 193.865 319.725 190.486C317.196 192.056 312.206 194.407 306.642 194.627C301.781 194.821 302.692 192.08 303.081 191.211C303.462 190.341 304.907 187.315 305.532 186.441C305.532 186.441 299.081 190.776 294.937 192.325C290.796 193.861 288.341 194.631 285.115 194.631C281.261 194.631 278.598 192.598 280.921 189.381C281.314 188.855 287.492 181.34 288.051 180.524C288.585 179.75 288.482 179.22 286.755 179.51C285.016 179.792 281.89 181.816 280.917 182.152V182.152ZM383.828 182.375C382.913 182.855 381.758 182.23 382.383 181.7C383.004 181.174 385.579 179.593 387.923 178.719C388.693 178.429 395.624 176.069 399.864 177.03C403.545 177.87 401.984 180.114 401.744 180.649C401.503 181.174 398.808 184.594 398.564 184.88C398.319 185.166 394.999 189.269 394.808 189.845C394.618 190.412 393.748 191.285 396.063 191.186C398.373 191.095 404.923 187.29 406.368 186.131C407.813 184.971 411.089 182.851 413.155 178.761C413.95 177.187 414.641 177.46 415.225 177.365C415.809 177.274 423.075 177.32 423.075 177.32C423.075 177.32 424.23 177.22 423.754 178.094C423.237 179.017 421.009 182.665 420.529 183.439C420.044 184.205 416.388 190.366 416.198 190.664C415.995 190.946 415.614 191.919 417.349 191.526C419.08 191.145 419.949 190.47 420.429 190.18C420.91 189.894 422.645 188.735 423.365 188.644C424.094 188.544 425.005 188.739 424.284 189.509C423.365 190.47 416.964 194.561 409.544 194.854C404.679 195.045 405.594 192.3 405.983 191.43C406.373 190.569 407.813 187.534 408.439 186.665C408.439 186.665 401.984 191 397.839 192.544C393.703 194.084 391.243 194.859 388.018 194.859C384.167 194.859 381.493 192.817 383.828 189.604C384.213 189.079 390.399 181.564 390.958 180.744C391.484 179.97 391.388 179.444 389.662 179.729C387.923 180.011 384.793 182.04 383.828 182.375V182.375Z" stroke="black" stroke-width="0.341587" stroke-miterlimit="3.864"/>
</svg>
