<svg width="480" height="320" viewBox="0 0 480 320" fill="none" xmlns="http://www.w3.org/2000/svg">
<path d="M78.6016 53.3335H401.398V266.667H78.6016V53.3335Z" fill="#2DCCD3"/>
<path d="M133.053 225.636H130.648C130.54 225.636 130.455 225.725 130.455 225.832V250.28C130.455 250.388 130.54 250.473 130.648 250.473H134.855C134.963 250.473 135.048 250.383 135.048 250.28V227.632C135.048 227.37 134.996 227.11 134.896 226.868C134.796 226.626 134.649 226.406 134.464 226.22C134.278 226.035 134.059 225.888 133.816 225.788C133.574 225.687 133.315 225.636 133.053 225.636ZM258.203 225.636H255.799C255.691 225.636 255.605 225.725 255.605 225.832V250.28C255.605 250.388 255.695 250.473 255.799 250.473H260.005C260.113 250.473 260.198 250.383 260.198 250.28V227.632C260.198 227.37 260.147 227.11 260.047 226.868C259.947 226.626 259.8 226.406 259.614 226.22C259.429 226.035 259.209 225.888 258.967 225.788C258.725 225.687 258.465 225.636 258.203 225.636ZM296.983 225.636H294.578C294.47 225.636 294.385 225.725 294.385 225.832V250.28C294.385 250.388 294.475 250.473 294.578 250.473H298.785C298.893 250.473 298.978 250.383 298.978 250.28V227.632C298.978 227.37 298.927 227.11 298.826 226.868C298.726 226.626 298.579 226.406 298.394 226.22C298.209 226.035 297.989 225.888 297.747 225.788C297.504 225.687 297.245 225.636 296.983 225.636ZM380.55 225.636H378.146C378.038 225.636 377.953 225.725 377.953 225.832V250.28C377.953 250.388 378.042 250.473 378.146 250.473H382.352C382.46 250.473 382.546 250.383 382.546 250.28V227.632C382.546 227.37 382.494 227.11 382.394 226.868C382.294 226.626 382.147 226.406 381.961 226.22C381.776 226.035 381.556 225.888 381.314 225.788C381.072 225.687 380.812 225.636 380.55 225.636ZM186.576 225.005H196.852C197.673 225.005 197.977 224.61 197.977 223.91V222.706C197.977 222.654 197.957 222.604 197.921 222.568C197.885 222.531 197.836 222.509 197.784 222.508H173.231C173.124 222.508 173.038 222.598 173.038 222.706V224.809C173.038 224.916 173.128 225.006 173.231 225.006H183.055V250.281C183.055 250.389 183.144 250.474 183.25 250.474H187.774C187.826 250.474 187.875 250.454 187.912 250.418C187.948 250.381 187.97 250.332 187.971 250.281V227.127C187.971 226.234 187.384 225.322 186.577 225.004M113.086 224.243C112.406 222.738 111.905 222.51 111.316 222.51H110.497C110.439 222.513 110.383 222.531 110.334 222.562C110.285 222.593 110.246 222.637 110.218 222.688L97.474 250.297C97.4264 250.395 97.4767 250.474 97.5845 250.474H99.7323C99.7899 250.471 99.8456 250.452 99.8943 250.422C99.943 250.391 99.983 250.348 100.011 250.297L104.006 241.46H112.992C113.73 241.46 114.161 241.203 114.494 240.471L114.957 239.48L119.771 250.297C119.798 250.349 119.838 250.392 119.887 250.423C119.935 250.455 119.992 250.472 120.05 250.474H124.767C124.874 250.474 124.922 250.402 124.878 250.297L113.086 224.243ZM105.035 239.184L109.966 228.275L114.823 239.184H105.035ZM246.562 225.636H242.358C242.306 225.636 242.256 225.657 242.22 225.693C242.183 225.73 242.162 225.78 242.162 225.832V236.69H230.292V227.63C230.291 227.1 230.08 226.593 229.706 226.219C229.331 225.844 228.823 225.634 228.293 225.635H225.892C225.84 225.635 225.79 225.656 225.753 225.693C225.716 225.73 225.695 225.78 225.695 225.832V250.28C225.695 250.388 225.785 250.473 225.893 250.473H230.095C230.147 250.473 230.197 250.453 230.233 250.417C230.27 250.381 230.292 250.332 230.293 250.28V238.769H242.162V250.28C242.162 250.388 242.251 250.473 242.359 250.473H246.562C246.613 250.473 246.663 250.453 246.7 250.417C246.737 250.381 246.758 250.332 246.759 250.28V225.831C246.759 225.779 246.738 225.729 246.701 225.692C246.664 225.655 246.614 225.635 246.562 225.635M209.263 227.042C208.791 226.041 208.367 225.636 207.696 225.636H207.03C206.973 225.639 206.917 225.657 206.868 225.688C206.819 225.719 206.779 225.762 206.752 225.812L195.538 250.299C195.493 250.396 195.541 250.472 195.648 250.472H197.571C197.679 250.472 197.805 250.4 197.85 250.298L201.4 242.373H209.335C209.988 242.373 210.34 242.081 210.593 241.524L211.018 240.602L215.513 250.299C215.54 250.349 215.58 250.392 215.628 250.422C215.676 250.453 215.732 250.47 215.789 250.473H220.151C220.259 250.473 220.309 250.401 220.265 250.299L209.263 227.042ZM202.33 240.295L206.529 230.919L210.875 240.295H202.33ZM288.182 225.636H266.404C266.352 225.636 266.302 225.657 266.265 225.693C266.228 225.73 266.208 225.78 266.207 225.832V227.498C266.207 227.606 266.297 227.691 266.405 227.691H274.985V250.28C274.985 250.388 275.075 250.473 275.178 250.473H279.385C279.493 250.473 279.578 250.383 279.578 250.28V229.525C279.578 228.636 278.998 227.933 278.194 227.691H287.482C288.135 227.691 288.378 227.378 288.378 226.823V225.831C288.378 225.779 288.357 225.729 288.32 225.692C288.283 225.655 288.233 225.635 288.18 225.635M369.721 225.636H367.799C367.691 225.636 367.606 225.725 367.606 225.832V241.325C367.606 246.422 365.043 248.966 360.067 248.966C354.403 248.966 352.553 245.779 352.553 241.364V227.632C352.553 227.369 352.501 227.11 352.401 226.867C352.3 226.625 352.153 226.405 351.967 226.219C351.782 226.034 351.561 225.887 351.319 225.787C351.076 225.687 350.817 225.635 350.554 225.636H348.153C348.101 225.636 348.05 225.656 348.013 225.693C347.976 225.731 347.956 225.781 347.956 225.833V241.814C347.956 247.512 352.125 251.126 359.835 251.126C366.209 251.126 369.918 247.692 369.918 241.7V225.833C369.918 225.781 369.897 225.731 369.86 225.693C369.823 225.656 369.773 225.636 369.72 225.636M171.031 251.96C170.9 251.96 170.511 252.005 170.178 252.005C163.846 252.005 157.97 243.383 156.207 238.964C159.678 238.102 161.629 235.799 161.629 232.635C161.629 228.162 158.186 225.64 152.183 225.64H144.102C144.05 225.641 144.001 225.661 143.964 225.697C143.928 225.734 143.907 225.783 143.906 225.834V250.282C143.906 250.334 143.927 250.384 143.963 250.421C144 250.458 144.05 250.479 144.103 250.479H148.305C148.331 250.479 148.356 250.474 148.38 250.464C148.404 250.455 148.426 250.44 148.445 250.422C148.463 250.403 148.477 250.382 148.487 250.358C148.497 250.334 148.502 250.308 148.502 250.282V239.6H151.581C154.211 245.886 160.114 253.092 167.426 253.092C169.421 253.092 171.176 252.547 171.176 252.094C171.176 252.022 171.14 251.964 171.031 251.964M151.556 237.615H148.502V227.696H151.555C155.189 227.696 156.726 229.692 156.726 232.635C156.726 235.58 155.469 237.614 151.556 237.614M339.722 222.51H337.507C337.455 222.51 337.405 222.531 337.368 222.568C337.332 222.605 337.311 222.654 337.311 222.707V242.869L321.143 224.16C320.177 223.042 319.541 222.51 318.374 222.51H317.174C317.122 222.51 317.072 222.531 317.035 222.568C316.998 222.605 316.977 222.654 316.977 222.707V250.278C316.977 250.386 317.067 250.475 317.175 250.475H319.388C319.44 250.475 319.491 250.454 319.528 250.417C319.565 250.38 319.586 250.33 319.586 250.277V229.682L337.438 250.325C337.523 250.413 337.639 250.467 337.761 250.475H339.735C339.836 250.475 339.919 250.385 339.919 250.277V222.707C339.919 222.654 339.898 222.604 339.861 222.567C339.824 222.53 339.774 222.509 339.722 222.509M307.169 151.216C304.714 147.237 303.039 145.333 302.06 144.487C297.488 140.537 293.155 138.865 289.582 137.313C288.958 137.043 288.204 136.724 286.69 136.081C277.538 132.184 270.462 131.532 265.878 131.288H265.871C264.196 131.198 261.814 131.452 260.775 131.598C260.24 131.67 259.546 131.766 258.725 132.083C258.158 132.302 257.605 132.559 257.072 132.85C257.624 132.429 258.217 132.064 258.842 131.761C259.923 131.235 260.642 131.051 260.642 131.051C260.642 131.054 260.75 131.016 260.75 131.016C260.756 131.034 275.404 127.242 289.788 119.118C297.327 114.856 303.615 111.306 303.124 107.448C302.607 103.384 294.698 99.9499 288.109 100.517C285.66 100.728 283.899 101.448 282.03 102.212C277.424 104.093 276.28 105.883 269.131 111.426C262.736 116.383 261.279 116.789 258.073 120.305C255.982 122.595 254.04 125.722 253.583 126.175C253.131 126.631 251.374 128.12 251.855 128.947C252.058 129.295 252.821 129.241 253.464 129.944C253.679 130.185 254.113 131.183 254.488 131.465C255.028 131.982 255.297 131.69 255.444 132.197C255.516 132.454 255.307 132.679 255.435 133.037C255.584 133.461 255.619 133.452 255.771 133.866C255.825 134.022 255.744 134.472 255.47 134.7C255.169 134.953 254.681 134.736 254.019 135.156C253.652 135.394 253.474 135.723 253.465 136.166C253.461 136.37 253.524 136.57 253.644 136.736C253.764 136.901 253.935 137.022 254.13 137.082C254.13 137.082 254.323 137.118 255.172 137.306C256.227 137.537 257.073 138.655 257.311 138.995C257.347 139.039 257.365 139.066 257.365 139.075C264.548 149.617 292.668 158.423 292.668 158.423C293.958 158.899 306.083 162.176 308.878 158.005C309.973 155.993 308.032 152.611 307.167 151.21" fill="white"/>
<path d="M262.565 146.368C261.694 144.37 261.168 143.685 260.62 143.166C259.838 142.419 259.28 142.257 258.488 141.427C258.422 141.343 258.355 141.261 258.285 141.18C257.842 140.648 257.696 140.351 256.999 139.564C256.631 139.15 256.362 138.849 256.119 138.621C255.856 138.352 255.631 138.171 255.368 138.037C254.603 137.674 253.737 137.583 252.913 137.782C252.003 138.01 251.703 138.507 251.107 138.327C250.692 138.2 250.683 137.927 250.176 137.581C249.409 137.062 248.892 137.202 248.18 136.952C247.291 136.635 246.66 135.434 246.447 134.581C246.171 133.489 246.161 132.586 246.663 131.582C246.9 131.114 247.343 130.55 247.702 130.265C248.175 129.894 248.953 129.571 249.523 129.432C249.948 129.328 250.349 129.061 250.575 128.684C250.759 128.386 250.746 128.088 250.911 127.72C251.031 127.467 251.18 127.228 251.354 127.007C251.798 126.46 252.149 126.402 252.795 125.876C253.084 125.645 253.271 125.44 253.648 125.031C255.558 122.957 257.905 117.961 257.905 117.961C258.855 115.592 259.861 113.247 260.922 110.925C266.623 98.4532 268.916 97.6873 270.522 91.3389C271.213 88.6092 273.012 81.0541 269.465 73.3974C268.394 71.0991 266.951 68.9935 265.194 67.1658C265.023 66.9952 264.665 66.8911 264.345 66.9099C264.345 66.9099 263.763 66.9162 263.06 67.5025C256.832 72.6818 251.121 88.4189 251.121 88.4189C247.529 98.3051 245.913 101.542 244.101 108.863C243.16 112.664 242.35 116.823 243.508 121.626C244.167 124.359 245.301 126.63 245.216 126.71C244.69 125.959 242.511 121.436 240.394 116.58C239.036 113.459 238.735 112.518 236.853 107.969C235.524 104.743 234.157 101.531 232.754 98.3365C225.367 81.4402 222.801 78.2283 220.995 76.2609C218.442 73.4738 215.899 70.7746 212.86 71.1742C208.702 71.7192 206.618 77.6895 206.31 78.5641C205.965 79.5518 205.744 80.5306 205.616 81.4914C204.931 86.6293 207.019 91.2186 207.982 93.335C208.281 93.9941 208.632 94.6397 209.065 95.3374C210.016 96.8702 211.355 98.6409 213.399 101.346C216.241 105.106 221.232 111.128 223.102 113.067C223.808 113.811 224.47 114.596 225.084 115.417C225.373 115.808 225.647 116.21 225.908 116.62C226.513 117.561 227.201 118.645 228.04 119.769C229.111 121.217 230.432 122.731 232.155 124.094C234.258 125.757 236.399 126.839 237.91 127.492C236.222 126.856 233.33 125.696 228.717 123.669C224.261 121.711 219.297 119.529 212.879 116.263C204.548 112.025 197.817 108.014 189.378 105.163C189.14 105.083 185.643 103.931 180.952 103.937C178.586 103.94 176.115 103.964 174.493 104.872C173.933 105.17 173.463 105.568 173.131 106.104C170.793 109.884 174.376 115.234 176.457 118.299C179.241 122.405 182.542 126 186.613 128.867C195.498 135.12 206.417 137.911 216.981 139.717C228.686 141.715 237.118 140.094 237.175 140.078C237.247 140.06 239.887 139.422 239.874 139.362C239.874 139.358 239.937 139.874 239.256 140.078C237.771 140.511 237.663 140.594 236.998 140.733C234.746 141.205 233.438 141.803 228.496 144.122C226.462 144.952 223.681 146.095 219.705 147.752C210.979 151.389 210.874 151.633 206.756 153.948C198.767 158.438 197.361 159.948 196.115 160.936C192.688 163.661 187.04 170.414 186.816 175.372C186.762 176.534 187.174 176.964 187.861 177.598C191.075 180.567 198.054 180.399 200.731 180.263C209.724 179.803 214.378 177.314 218.178 175.099C222.056 172.844 225.74 169.983 226.358 169.498C227.6 168.533 228.626 167.671 231.651 164.978C233.231 163.572 237.384 159.463 238.888 157.892C245.269 151.23 245.503 150.059 246.511 148.707C246.612 148.569 246.711 148.431 246.809 148.291C247.161 147.797 247.484 147.242 248.418 146.08C249.017 145.335 249.558 144.43 249.603 144.316C249.522 145.097 249.254 145.847 248.82 146.501C248.615 146.812 248.497 147.049 248.285 147.327C247.914 147.821 247.325 148.931 246.806 149.98C245.076 153.48 245.447 155.545 245.697 156.629C248.175 167.291 249.913 183.104 259.445 193.39C263.218 197.461 267.209 199.601 271.207 197.98C272.252 197.558 273.852 190.881 274.181 181.467C274.621 168.923 267.567 157.446 263.927 149.985C263.535 148.757 263.08 147.55 262.565 146.368Z" fill="white"/>
</svg>
