<svg width="480" height="320" viewBox="0 0 480 320" fill="none" xmlns="http://www.w3.org/2000/svg">
<path d="M245.3 231.537L256.507 250.574L265.173 217.697C265.173 217.697 260.834 218.603 259.289 219.266C258.018 219.815 256.93 220.112 254.801 221.99C252.684 223.868 245.3 231.538 245.3 231.538V231.537ZM195.733 266.659L244.567 217.881C244.567 217.881 249.924 212.146 254.321 210.326C258.528 208.584 263.015 207.618 267.566 207.475H278.68L262.986 266.659H253.36L237.594 239.276L210.269 266.659H195.731" fill="#A09D9E"/>
<path d="M221.375 187.831H243.296C243.296 187.831 338.574 92.3584 340.017 90.8008C340.589 90.1937 359.169 67.1273 385.349 69.1432L379.924 89.1066C379.924 89.1066 370.777 91.7634 362.478 97.2813C354.177 102.798 343.211 114.692 343.211 114.692L269.889 187.73H291.709L362.58 117.338C362.58 117.338 370.021 109.496 374.817 108.432L353.743 187.73H369.495L392.584 102.17C392.584 102.17 400.667 101.427 404.077 101.632L380.771 187.728H396.948L424.295 86.0266H396.946L405.566 53.3334H383.117C383.117 53.3334 373.753 53.3334 365.878 55.6684C358.001 58.0034 351.511 59.5948 337.785 71.2714L221.375 187.831Z" fill="#1574C4"/>
<path d="M137.864 266.659L153.559 207.475H143.245L127.55 266.659H137.864ZM334.545 266.659L350.24 207.475H339.914L324.23 266.659H334.545ZM375.574 266.659L378.183 256.837L352.072 256.826L355.953 242.241H382.053L384.663 232.397L358.562 232.408L362.306 218.306H388.394L391.268 207.475H354.829L339.135 266.659H375.574ZM105.272 231.537L116.481 250.574L125.146 217.697C125.146 217.697 120.806 218.603 119.262 219.266C117.991 219.815 116.904 220.112 114.787 221.99C112.657 223.868 105.274 231.538 105.274 231.538L105.272 231.537ZM55.7051 266.66L104.541 217.881C104.541 217.881 109.898 212.146 114.293 210.326C118.701 208.506 123.235 207.635 127.527 207.509L138.655 207.482L122.96 266.667H113.32L97.5681 239.284L70.2778 266.667H55.7051M185.062 224.452C184.891 225.62 184.365 228.722 180.53 231.057C176.694 233.404 171.325 233.599 171.325 233.599H161.55L165.602 218.281C167.468 218.281 178.537 218.254 179.603 218.281C180.759 218.308 182.75 218.876 182.75 218.876C185.223 220.363 185.223 223.307 185.062 224.452ZM193.74 210.967C189.836 207.394 182.464 207.475 182.464 207.475H158.149L142.454 266.659H152.78L159.946 239.62L172.55 266.659H186.057L173.386 241.783C173.386 241.783 174.622 241.81 176.878 241.588C179.305 241.348 181.617 241.165 187.204 237.697C192.802 234.228 195.744 226.651 196.167 224.017C196.59 221.395 197.643 214.55 193.74 210.967ZM310.7 220.823C314.215 217.927 320.521 218.051 320.521 218.051H331.626L334.671 207.475H317.248C310.219 207.475 304.164 212.181 300.569 215.752C297.478 218.832 293.895 227.589 294.971 232.167C296.07 236.757 298.954 239.482 307.552 241.818C315.394 243.959 314.088 248.092 314.088 248.092C314.088 248.092 313.86 250.896 310.826 253.288C306.522 256.665 300.923 256.837 300.923 256.837H281.223L294.307 207.475H283.992L268.298 266.659H278.623V266.648V266.659H305.515C310.815 266.659 316.331 263.134 318.691 260.889C320.957 258.726 325.582 253.288 326.429 247.37C327.276 241.463 326.307 237.959 322.8 235.063C319.298 232.167 311.548 232.041 308.65 229.512C305.743 226.982 307.197 223.719 310.7 220.823Z" fill="#A09D9E"/>
</svg>
