<svg width="480" height="320" viewBox="0 0 480 320" fill="none" xmlns="http://www.w3.org/2000/svg">
<path d="M59.4781 205.811L78.7967 194.054L78.8259 193.956H65.9465L71.997 183.278H103.44L98.4943 191.851L78.7637 203.506L78.7345 203.606H92.1551L86.6351 212.911H55.3845L59.4781 205.811ZM111.364 182.836C113.002 183.086 115.732 183.28 118.525 183.28H118.622C121.709 183.28 123.875 183.086 125.667 182.836L108.182 212.909H93.8789L111.364 182.836ZM134.05 183.278H148.206L143.865 190.229H143.962C148.255 184.994 152.839 182.245 158.962 182.245C164.986 182.245 167.188 183.817 165.171 190.229H165.27C168.862 185.183 174.095 182.245 179.876 182.245C184.674 182.245 188.014 184.406 186.675 188.667C186.137 190.38 184.891 192.633 183.925 194.294L173.129 212.906H158.876L165.269 202.235C166.202 200.665 167.534 198.608 167.812 197.724C168.317 196.107 166.773 195.572 165.451 195.572C162.021 195.572 160.83 197.188 158.205 201.787L151.772 212.906H137.864L144.258 202.235C145.19 200.665 146.523 198.608 146.8 197.724C147.308 196.107 145.762 195.572 144.439 195.572C141.012 195.572 139.819 197.188 137.196 201.787L130.764 212.906H116.803L134.05 183.278ZM206.859 169.438L220.542 169.483L208.087 189.892H208.184C212.62 184.503 217.148 182.25 223.566 182.25C229.882 182.25 232.43 184.894 230.536 190.92C230.028 192.536 228.712 195.327 226.436 199.294C221.915 207.133 216.298 213.939 206.501 213.939C203.026 213.939 197.059 213.596 198.369 206.936H198.271L194.825 212.911L180.469 213.154L206.859 169.438ZM204.531 204.631C208.252 204.631 211.653 201.45 213.13 196.749C213.684 194.985 212.877 193.81 210.281 193.81C205.726 193.81 202.508 198.756 201.737 201.204C200.952 203.703 201.935 204.631 204.531 204.631ZM252.1 206.936H252.002C247.88 211.785 242.746 213.939 237.359 213.939C231.873 213.939 228.109 211.742 230.017 205.667C231.543 200.813 234.572 196.16 237.301 191.997C241.696 185.337 247.761 182.25 254.568 182.25C260.738 182.25 263.696 184.063 262.061 189.892H262.158L265.95 183.283H280.252L262.712 212.911H248.409L252.1 206.936ZM247.105 199.291C246.614 200.081 246.157 200.91 245.926 201.644C245.187 203.995 246.649 204.631 248.708 204.631C252.284 204.631 254.676 202.475 256.543 199.342C257.032 198.412 257.522 197.626 257.861 196.552C258.521 194.444 256.862 193.812 255.148 193.812C251.18 193.812 249.356 195.718 247.104 199.292M296.065 169.42L310.242 169.566L298.011 189.892H298.111C302.544 184.503 307.072 182.245 313.489 182.245C319.807 182.245 322.355 184.894 320.463 190.92C319.953 192.536 318.638 195.327 316.36 199.294C311.839 207.133 306.224 213.934 296.429 213.934C292.95 213.934 286.984 213.596 288.293 206.936H288.198L284.751 212.911H270.448L296.065 169.42ZM294.454 204.629C298.179 204.629 301.577 201.45 303.055 196.749C303.608 194.985 302.804 193.81 300.208 193.81C295.653 193.81 292.43 198.752 291.665 201.204C290.877 203.703 291.859 204.629 294.454 204.629ZM330.672 184.095H345.171L337.605 203.385H337.704L352.522 184.094H364.736L357.88 203.385H357.982L372.291 184.094H387.804L363.363 212.908H346.024L352.065 195.765H351.965L338.674 212.908H321.339L330.672 184.095ZM396.314 201.107C396 201.595 395.752 202.122 395.575 202.675C394.573 205.856 398.511 205.957 401.646 205.957C406.25 205.957 411.078 204.924 415.73 203.994L409.461 211.786C403.739 213.156 397.962 213.934 392.473 213.934C385.764 213.934 377.59 213.302 380.314 204.629C382.347 198.168 387.514 190.919 391.289 187.639C397.279 182.441 402.631 182.245 408.997 182.245C422.125 182.245 426.445 184.547 423.936 192.536C423.397 194.25 420.29 199.143 418.793 201.107H396.314ZM410.463 194.882C410.889 194.004 411.265 193.266 411.493 192.536C412.189 190.326 409.909 189.792 408.635 189.792C405.205 189.792 402.988 190.773 400.225 194.882H410.463ZM139.53 133.342C141.171 133.59 143.899 133.782 146.692 133.782H146.789C149.875 133.782 152.043 133.59 153.833 133.342L136.351 163.416H122.048L139.53 133.343M161.042 133.782H175.05L170.064 141.861H170.161C173.958 137.262 178.706 132.75 184.434 132.75C186.051 132.75 187.607 132.945 189.148 133.341L179.966 149.312C178.266 149.114 176.562 148.769 174.797 148.769C168.188 148.769 165.271 151.657 162.899 155.777L158.491 163.411H143.892L161.042 133.781M103.161 157.438H103.06C98.9403 162.287 93.807 164.443 88.421 164.443C82.935 164.443 79.1698 162.239 81.0772 156.166C82.6008 151.317 85.6304 146.665 88.3598 142.501C92.7566 135.839 98.8217 132.755 105.626 132.755C111.799 132.755 114.754 134.566 113.118 140.395H113.219L117.01 133.782H131.312L113.771 163.416H99.4679L103.161 157.438ZM98.1668 149.8C97.6752 150.581 97.2175 151.415 96.9843 152.149C96.2478 154.5 97.7111 155.136 99.7701 155.136C103.346 155.136 105.738 152.982 107.602 149.847C108.09 148.916 108.583 148.134 108.921 147.056C109.584 144.95 107.923 144.312 106.209 144.312C102.242 144.312 100.417 146.223 98.1668 149.799" fill="#272525"/>
<path d="M239.981 147.949L281.347 148.192L296.509 163.717L268.617 163.997L239.737 148.676L239.981 147.949ZM219.907 116.289C217.899 115.785 194.54 106.243 186.751 106.498C175.952 107.75 177.459 121.313 177.459 121.313C177.459 121.313 180.111 117.203 185.819 118.88C191.527 120.564 234.979 144.42 234.979 144.42L281.228 145.165L276.422 137.137C276.42 137.137 221.918 116.79 219.907 116.289Z" fill="#FDE449"/>
<path d="M330.174 117.531H221.431C221.431 117.531 220.096 119.113 220.096 123.666C220.717 123.873 318.117 123.742 318.117 123.742L330.174 117.531Z" fill="#FDE449"/>
<path d="M306.18 110.649L225.348 111.437L220.194 117.641H330.795L341.689 112.521L346.489 110.26L306.18 110.649Z" fill="#3DB94D"/>
<path d="M346.052 110.262L225.348 111.435L220.192 117.641H330.809L346.491 110.262H346.052Z" fill="url(#paint0_linear_730_18741)"/>
<path d="M238.608 148.572V147.441H282.118L300.151 165.131H268.346L238.09 149.576L238.608 147.441V148.572L239.126 147.566L268.893 162.867H294.619L281.195 149.701H238.609V148.572L239.127 147.566L238.608 148.572ZM258.507 152.403L270.071 157.36L270.495 150.352L283.052 157.241L282.806 154.157L285.059 153.976L285.642 161.237L272.537 154.05L272.133 160.706L257.617 154.483L258.507 152.403Z" fill="#272525"/>
<path d="M262.82 153.236V151.167H266.34V153.237M276.999 153.029V150.961H280.519V153.029" fill="#272525"/>
<path d="M310.331 129.286L319.122 123.071L310.331 129.286ZM319.122 123.071L219.927 123.173C219.927 123.173 220.43 127.781 221.682 129.318L310.331 129.286" fill="#EE2C30"/>
<path d="M310.339 129.289L319.111 123.076L219.927 123.163V123.183C219.963 123.508 220.475 127.838 221.674 129.311H227.231L310.339 129.289Z" fill="url(#paint1_linear_730_18741)"/>
<path d="M311.335 129.1L221.68 129.202C221.68 129.202 223.004 134.918 230.635 137.095H301.789L311.335 129.1Z" fill="#231F20"/>
<path d="M311.315 129.1H305.944L221.682 129.202V129.228C221.79 129.649 223.307 134.99 230.629 137.095H301.79L311.315 129.1Z" fill="url(#paint2_linear_730_18741)"/>
<path d="M277.067 136.751L282.555 145.918H234.876L234.707 145.821C234.7 145.817 231.863 144.232 227.536 141.838C221.045 138.241 211.224 132.831 202.68 128.235C198.408 125.943 194.457 123.847 191.405 122.299C190.14 121.648 188.864 121.019 187.578 120.412C186.591 119.95 185.855 119.659 185.649 119.615C185.105 119.488 184.548 119.423 183.99 119.421C182.107 119.421 180.663 120.206 179.661 121.015C179.166 121.418 178.787 121.824 178.534 122.126L178.257 122.485L178.191 122.576L178.176 122.6L176.909 124.586L176.788 122.233C176.786 122.223 176.759 121.719 176.759 120.908C176.762 119.691 176.821 117.78 177.118 115.799C177.423 113.811 177.948 111.75 178.981 110.184L179.609 110.603L178.958 110.224C180.405 107.725 183.384 106.046 188.093 106.061C188.64 106.061 189.209 106.083 189.805 106.127L189.749 106.878L189.773 106.125C191.635 106.19 194.437 106.872 197.699 107.851C207.455 110.789 221.08 116.455 221.093 116.461L220.801 117.156L220.056 117.046C220.323 115.242 221.057 113.256 222.782 111.692C224.505 110.126 227.157 109.03 231.099 108.818H231.157C234.031 108.884 247.864 108.91 264.997 108.91C282.137 108.91 302.596 108.884 318.769 108.861L338.865 108.832L346.83 108.818L346.891 110.32L330.512 111.568L231.528 111.774L231.498 111.772C231.037 111.733 230.595 111.715 230.175 111.715C225.865 111.737 223.704 113.438 222.428 115.524C221.165 117.614 220.918 120.191 220.921 121.733C220.921 122.153 220.938 122.501 220.955 122.731C220.972 122.967 220.989 123.081 220.989 123.081L219.493 123.272C219.435 122.761 219.408 122.246 219.414 121.731C219.418 120.041 219.654 117.232 221.137 114.746C222.604 112.255 225.447 110.186 230.173 110.208C230.636 110.208 231.117 110.23 231.615 110.266L231.557 111.018L231.554 110.266L330.452 110.06L346.775 108.82L346.833 109.569L346.836 110.322C346.836 110.322 299.279 110.414 264.997 110.414C247.853 110.414 234.047 110.39 231.124 110.322L231.142 109.569L231.183 110.32C227.468 110.524 225.204 111.529 223.795 112.804C222.393 114.085 221.788 115.684 221.549 117.265L221.406 118.222L220.514 117.853C220.512 117.851 219.007 117.227 216.632 116.279C213.073 114.861 207.57 112.73 202.332 110.938C197.11 109.141 192.073 107.691 189.726 107.634L189.708 107.632H189.691C189.159 107.59 188.625 107.569 188.091 107.569C183.693 107.584 181.406 109.034 180.257 110.982L180.245 111.001L180.232 111.021C179.406 112.253 178.884 114.149 178.606 116.023C178.322 117.894 178.263 119.739 178.263 120.908C178.263 121.688 178.289 122.153 178.289 122.156L177.536 122.197L176.903 121.79C176.931 121.745 177.531 120.801 178.71 119.848C179.884 118.89 181.666 117.913 183.986 117.913C184.62 117.913 185.285 117.983 185.986 118.149C186.625 118.302 187.698 118.791 189.327 119.581C200.587 125.047 235.428 144.5 235.438 144.505L235.071 145.166V144.411H279.893L275.771 137.525L277.067 136.751Z" fill="#272525"/>
<path d="M262.823 153.237H266.342V151.168H262.823V153.237ZM266.153 153.048H263.011V151.361H266.153V153.048ZM276.999 153.031H280.519V150.961H276.999V153.031ZM280.329 152.841H277.187V151.154H280.329V152.841Z" fill="#FDE449"/>
<path d="M187.185 111.373C187.19 111.555 187.158 111.736 187.092 111.906C187.025 112.075 186.926 112.23 186.799 112.36C186.672 112.49 186.52 112.594 186.353 112.665C186.185 112.735 186.005 112.772 185.823 112.772C185.641 112.772 185.461 112.735 185.293 112.665C185.126 112.594 184.974 112.49 184.847 112.36C184.72 112.23 184.62 112.075 184.554 111.906C184.488 111.736 184.456 111.555 184.461 111.373C184.456 111.191 184.488 111.01 184.554 110.841C184.62 110.671 184.72 110.517 184.847 110.387C184.974 110.256 185.126 110.153 185.293 110.082C185.461 110.011 185.641 109.975 185.823 109.975C186.005 109.975 186.185 110.011 186.353 110.082C186.52 110.153 186.672 110.256 186.799 110.387C186.926 110.517 187.025 110.671 187.092 110.841C187.158 111.01 187.19 111.191 187.185 111.373Z" fill="#272525"/>
<path d="M185.821 110.008C185.459 110.008 185.112 110.151 184.857 110.407C184.601 110.663 184.457 111.01 184.457 111.371C184.457 111.733 184.601 112.079 184.857 112.335C185.112 112.591 185.459 112.734 185.821 112.734C185.999 112.735 186.176 112.7 186.342 112.632C186.507 112.564 186.657 112.464 186.784 112.338C186.91 112.211 187.011 112.062 187.079 111.897C187.148 111.732 187.184 111.555 187.184 111.376C187.185 111.197 187.15 111.019 187.082 110.853C187.014 110.687 186.913 110.536 186.787 110.409C186.66 110.282 186.51 110.181 186.344 110.112C186.178 110.043 186.001 110.008 185.821 110.008M185.821 112.546C185.174 112.546 184.646 112.021 184.646 111.377L184.671 111.141C184.78 110.599 185.254 110.198 185.821 110.198C185.979 110.194 186.135 110.221 186.281 110.278C186.428 110.335 186.561 110.421 186.674 110.53C186.787 110.639 186.876 110.77 186.937 110.915C186.998 111.06 187.03 111.215 187.03 111.373C187.03 111.53 186.998 111.685 186.937 111.83C186.876 111.975 186.787 112.106 186.674 112.215C186.561 112.325 186.428 112.41 186.281 112.467C186.135 112.524 185.979 112.551 185.821 112.547" fill="#FDE449"/>
<defs>
<linearGradient id="paint0_linear_730_18741" x1="220.205" y1="113.957" x2="346.513" y2="113.957" gradientUnits="userSpaceOnUse">
<stop stop-color="#3DB94D"/>
<stop offset="1" stop-color="white"/>
</linearGradient>
<linearGradient id="paint1_linear_730_18741" x1="219.95" y1="126.203" x2="319.146" y2="126.203" gradientUnits="userSpaceOnUse">
<stop stop-color="#EF2C30"/>
<stop offset="0.034" stop-color="#EF2C30"/>
<stop offset="1" stop-color="white"/>
</linearGradient>
<linearGradient id="paint2_linear_730_18741" x1="221.718" y1="133.093" x2="311.282" y2="133.093" gradientUnits="userSpaceOnUse">
<stop stop-color="#231F20"/>
<stop offset="1" stop-color="white"/>
</linearGradient>
</defs>
</svg>
