<svg width="480" height="320" viewBox="0 0 480 320" fill="none" xmlns="http://www.w3.org/2000/svg">
<path d="M131.754 255.304V266.667H129.788L124.662 258.636V266.667H122.781V255.304H124.747L129.874 263.333V255.304H131.754ZM133.977 260.942C133.977 257.782 136.54 255.217 139.616 255.217C142.777 255.217 145.341 257.78 145.341 260.857C145.341 264.016 142.777 266.582 139.702 266.582C136.539 266.667 133.977 264.103 133.977 260.942ZM135.856 260.942C135.856 263.079 137.564 264.702 139.615 264.702C141.752 264.702 143.375 262.993 143.375 260.942C143.375 258.892 141.666 257.182 139.616 257.182C137.565 257.182 135.856 258.892 135.856 260.942ZM147.392 264.103L149.186 263.42C149.528 264.361 150.466 264.702 151.321 264.702H151.578C152.434 264.616 153.372 264.189 153.543 263.335V262.992C153.55 262.687 153.46 262.387 153.287 262.136C152.86 261.625 152.091 261.281 151.15 261.281C150.211 261.281 148.929 260.939 148.159 259.743C147.733 259.06 147.733 258.376 147.733 258.206C147.733 258.033 147.733 257.437 148.159 256.666C148.929 255.386 150.21 255.128 151.15 255.128C152.775 255.128 153.97 256.154 154.055 256.324L153.03 257.862C153.03 257.862 152.005 257.007 151.15 257.007C150.894 257.007 150.125 257.007 149.783 257.606C149.612 257.862 149.612 258.116 149.612 258.204C149.612 258.289 149.612 258.545 149.783 258.799C150.04 259.141 150.467 259.311 151.15 259.397C152.689 259.397 153.97 259.994 154.74 261.023C155.251 261.619 155.423 262.303 155.423 263.073C155.423 263.329 155.423 263.498 155.337 263.757C154.995 265.379 153.543 266.489 151.662 266.661H151.32C149.442 266.667 147.99 265.641 147.392 264.103ZM164.652 266.582H162.772V255.217H167.216C167.301 255.217 168.326 255.217 169.352 255.73C170.805 256.498 171.573 257.866 171.573 259.574C171.573 261.366 170.805 262.734 169.352 263.502L169.181 263.587L171.317 266.58H169.01L167.216 264.016H164.738L164.652 266.582H164.652ZM164.652 262.139H167.129C167.129 262.139 167.813 262.139 168.496 261.797C169.265 261.37 169.692 260.686 169.692 259.661C169.692 258.634 169.265 257.867 168.496 257.439C167.898 257.097 167.215 257.097 167.215 257.097H164.737L164.652 262.139ZM183.963 266.582H181.912L181.057 264.188H176.444L175.588 266.582H173.538L177.726 255.217H179.775L183.963 266.582ZM180.288 262.309L178.665 257.951L177.04 262.309H180.288ZM194.9 264.873C193.874 265.899 192.507 266.499 190.884 266.499C187.723 266.499 185.159 263.935 185.159 260.859C185.159 257.698 187.722 255.133 190.798 255.133C192.336 255.133 193.789 255.816 194.814 256.843L193.447 258.21C192.763 257.527 191.823 257.099 190.713 257.099C188.576 257.099 186.953 258.809 186.953 260.86C186.953 262.996 188.661 264.621 190.712 264.621C191.205 264.619 191.693 264.52 192.147 264.33C192.602 264.139 193.014 263.861 193.361 263.511L194.9 264.873ZM197.108 255.136L198.988 255.132L199.015 266.496L197.135 266.501L197.108 255.136ZM210.45 255.133V266.499H208.399L203.358 258.466V266.498H201.478L201.393 255.133H203.443L208.571 263.165L208.485 255.133H210.45ZM214.722 257.013V260.343H219.336V262.223H214.722V264.616L220.362 264.531V266.496H212.843V255.13H220.362V257.01H214.722V257.013ZM222.585 263.933L224.377 263.25C224.719 264.189 225.659 264.531 226.514 264.531H226.77C227.625 264.445 228.564 264.018 228.735 263.164V262.822C228.742 262.517 228.652 262.218 228.478 261.967C228.052 261.454 227.283 261.112 226.343 261.112C225.403 261.112 224.121 260.77 223.352 259.575C222.925 258.891 222.925 258.208 222.925 258.037C222.925 257.864 222.925 257.266 223.352 256.497C224.121 255.216 225.403 254.959 226.343 254.959C227.966 254.959 229.163 255.985 229.248 256.155L228.222 257.693C228.222 257.693 227.196 256.838 226.343 256.838C226.086 256.838 225.317 256.838 224.976 257.435C224.804 257.693 224.804 257.947 224.804 258.033C224.804 258.119 224.804 258.374 224.975 258.629C225.232 258.972 225.659 259.142 226.343 259.227C227.881 259.227 229.163 259.826 229.931 260.851C230.444 261.449 230.615 262.133 230.615 262.902C230.615 263.161 230.615 263.328 230.53 263.585C230.187 265.21 228.735 266.32 226.855 266.492H226.513C224.634 266.496 223.095 265.47 222.584 263.933M237.707 260.771C237.707 257.612 240.27 255.048 243.347 255.048C246.507 255.048 249.072 257.61 249.072 260.686C249.072 263.847 246.509 266.413 243.432 266.413C240.27 266.411 237.707 263.847 237.707 260.771ZM239.672 260.771C239.672 262.909 241.381 264.532 243.433 264.532C245.483 264.532 247.193 262.823 247.193 260.771C247.193 258.723 245.485 257.012 243.433 257.012C241.295 256.927 239.586 258.636 239.672 260.771ZM260.264 255.048L260.351 266.413H258.3L253.172 258.38L253.258 266.413H251.293V255.047H253.343L258.385 262.994V255.048H260.264ZM270.86 256.927H267.529L267.615 266.324H265.65V256.927H262.318V255.048L270.863 254.962V256.927H270.86H270.86ZM278.208 266.326V254.96H281.97C282.141 254.96 283.337 254.96 284.531 255.644C285.727 256.328 287.179 257.695 287.179 260.599C287.179 263.504 285.727 264.871 284.617 265.555C283.337 266.238 282.141 266.238 282.055 266.238L278.208 266.326ZM280.088 264.445H281.966C281.966 264.445 282.907 264.445 283.676 263.933C284.702 263.334 285.215 262.224 285.215 260.686C285.215 259.148 284.702 258.04 283.591 257.442C282.736 256.93 281.881 256.93 281.881 256.93H280.002L280.088 264.445ZM291.281 256.841V260.172H295.895V262.051H291.281V264.445L296.922 264.359V266.325H289.402V254.961H296.836V256.839H291.281V256.841ZM299.058 263.762L300.851 263.078C301.193 264.018 302.133 264.359 302.987 264.359H303.245C304.101 264.274 305.038 263.847 305.21 262.993V262.651C305.217 262.346 305.127 262.047 304.953 261.796C304.525 261.283 303.756 260.94 302.816 260.94C301.875 260.94 300.593 260.599 299.824 259.401C299.398 258.718 299.398 258.035 299.398 257.864C299.398 257.693 299.398 257.009 299.824 256.325C300.593 255.044 301.875 254.788 302.816 254.788C304.44 254.788 305.637 255.813 305.722 255.981L304.696 257.522C304.696 257.522 303.671 256.666 302.817 256.666C302.561 256.666 301.792 256.666 301.451 257.263C301.279 257.522 301.279 257.777 301.279 257.862C301.279 257.948 301.279 258.204 301.451 258.459C301.707 258.801 302.134 258.971 302.818 259.057C304.356 259.057 305.638 259.656 306.406 260.68C306.919 261.279 307.09 261.962 307.09 262.732C307.09 262.99 307.09 263.159 307.005 263.415C306.663 265.04 305.211 266.149 303.329 266.32H302.987C301.193 266.241 299.656 265.299 299.058 263.762ZM324.52 266.241H322.469L321.615 263.847H317.001L316.146 266.241H314.096L318.283 254.877H320.333L324.52 266.241ZM320.931 261.968L319.308 257.61L317.682 261.968H320.931ZM326.558 254.88L328.436 254.875L328.468 266.238L326.588 266.245L326.558 254.88ZM337.507 266.241H330.929L330.843 254.877H332.808V264.273H337.507V266.241ZM341.269 256.756V259.999H345.882V261.966H341.269V264.274H346.908V266.152H339.389V254.789H346.908V256.753H341.269V256.756ZM349.128 263.591L350.92 262.907C351.262 263.847 352.203 264.187 353.057 264.187H353.315C354.171 264.101 355.108 263.676 355.281 262.82V262.478C355.288 262.173 355.197 261.873 355.023 261.623C354.597 261.111 353.828 260.766 352.887 260.766C351.945 260.766 350.663 260.424 349.894 259.229C349.468 258.545 349.468 257.862 349.468 257.692C349.468 257.52 349.468 256.836 349.894 256.153C350.663 254.872 351.945 254.614 352.887 254.614C354.511 254.614 355.706 255.64 355.792 255.809L354.767 257.348C354.767 257.348 353.74 256.493 352.887 256.493C352.629 256.493 351.861 256.493 351.52 257.091C351.348 257.348 351.348 257.604 351.348 257.689C351.348 257.775 351.348 258.031 351.519 258.287C351.777 258.629 352.203 258.797 352.886 258.885C354.425 258.885 355.707 259.481 356.476 260.508C356.988 261.106 357.16 261.79 357.16 262.559C357.16 262.815 357.16 262.985 357.074 263.242C356.732 264.866 355.281 265.976 353.398 266.147H353.056C351.178 266.153 349.641 265.215 349.128 263.591ZM343.488 244.624C331.099 243.343 313.155 241.634 290.938 240.438C278.813 239.787 266.679 239.303 254.54 238.986L244.542 238.815C242.833 238.815 241.125 238.728 239.414 238.728L234.202 238.815C227.196 238.901 220.019 239.157 212.671 239.412C183.278 240.52 150.977 242.914 117.228 247.101H117.057L117.143 247.784C150.894 244.368 183.192 242.658 212.672 242.146C220.019 242.06 227.196 241.974 234.119 241.974H239.33L244.457 241.887L254.454 241.802C267.528 241.802 279.745 241.974 290.853 242.314C313.07 242.997 331.014 244.192 343.489 245.134C355.88 246.074 362.715 246.757 362.715 246.672C362.715 246.846 355.879 245.992 343.489 244.624M135.257 225.657C134.402 225.743 133.975 225.572 133.804 225.059C133.633 224.632 133.633 224.119 133.633 223.35V216.345C133.633 211.561 130.557 209.083 124.405 209.083C121.756 209.083 119.193 209.594 117.228 210.535H117.141L117.911 214.721L118.081 214.636C119.449 213.867 121.157 213.526 123.55 213.526C125.259 213.526 128.164 213.868 128.164 216.174V217.283C126.454 216.257 124.319 216.174 123.207 216.174C120.73 216.174 118.679 216.943 117.312 218.31C116.116 219.507 115.603 221.216 115.688 223.18C115.774 227.11 119.448 229.247 122.695 229.247C124.917 229.247 127.907 228.477 129.189 226.255C129.274 227.28 129.616 227.963 130.299 228.477C131.325 229.247 133.119 229.418 135.342 228.903H135.427V225.57L135.256 225.657H135.257ZM127.908 221.984C127.738 224.034 125.259 224.803 123.721 224.803C122.525 224.803 121.329 224.207 121.245 222.839C121.159 222.156 121.33 221.472 121.757 221.046C122.269 220.45 123.124 220.106 124.15 220.02C125.602 220.02 126.97 220.447 127.994 221.046V221.987H127.91V221.984H127.908ZM142.606 200.967H142.52C140.896 200.967 139.188 201.993 139.188 204.213C139.188 206.52 140.982 207.544 142.606 207.544H142.69C144.229 207.544 145.938 206.434 145.938 204.214C145.939 202.077 144.229 201.052 142.606 200.967ZM139.701 209.937H145.427V228.989H139.701V209.937ZM162.77 209.083H162.599C160.122 209.083 158.156 210.192 157.302 212.074C156.96 210.279 155.337 209.254 152.774 209.254C151.664 209.254 150.637 209.425 150.04 209.596H149.953V213.185H150.039C150.21 213.185 150.381 213.098 150.551 213.098C151.662 213.098 151.833 213.869 151.833 215.407V228.99H157.473V218.567C157.473 215.491 159.695 214.124 161.831 214.124C163.113 214.039 164.223 214.38 165.334 215.149L165.42 215.236L166.702 210.364L166.616 210.279C165.676 209.51 164.309 209.083 162.77 209.083M193.103 221.47C192.507 223.265 191.052 224.376 189.087 224.376C186.78 224.376 184.389 222.581 184.389 219.25C184.389 216.003 186.782 214.209 189.087 214.209H189.173C190.883 214.209 192.334 215.148 192.934 216.769V216.855H198.402V216.769C197.462 211.558 192.934 209.167 188.917 209.167C183.791 209.167 178.578 212.67 178.578 219.331C178.578 222.491 179.689 225.057 181.825 226.935C183.705 228.56 186.183 229.498 188.832 229.498H188.917C193.104 229.498 197.718 227.021 198.573 221.722V221.637L193.103 221.47ZM221.301 225.657C220.447 225.743 220.019 225.572 219.85 225.059C219.677 224.632 219.677 224.119 219.677 223.35V216.345C219.677 211.561 216.602 209.084 210.45 209.084C207.8 209.084 205.237 209.594 203.27 210.535H203.185L203.954 214.721L204.125 214.636C205.492 213.867 207.201 213.526 209.594 213.526C211.303 213.526 214.207 213.868 214.207 216.174V217.283C212.498 216.257 210.363 216.174 209.251 216.174C206.773 216.174 204.723 216.943 203.356 218.31C202.16 219.507 201.647 221.216 201.732 223.18C201.903 227.11 205.492 229.247 208.739 229.247C210.96 229.247 213.95 228.477 215.233 226.255C215.319 227.28 215.66 227.963 216.344 228.477C217.37 229.247 219.163 229.418 221.385 228.903H221.471V225.57L221.301 225.658V225.657ZM213.954 221.984C213.783 224.034 211.305 224.803 209.767 224.803C208.571 224.803 207.373 224.207 207.289 222.839C207.203 222.156 207.374 221.472 207.801 221.046C208.313 220.45 209.168 220.106 210.194 220.02C211.647 220.02 213.015 220.447 214.039 221.046V221.987H213.954V221.984ZM234.888 224.632C234.375 224.717 233.947 224.717 233.521 224.717C231.81 224.717 231.127 223.863 231.127 221.641V199.771H225.488V221.641C225.488 224.376 226.086 226.341 227.197 227.537C228.223 228.731 229.846 229.246 231.982 229.246C232.923 229.246 233.947 229.161 235.143 228.904H235.229L235.058 224.546L234.888 224.632ZM247.704 209.169C242.748 209.169 237.706 212.245 237.536 219.079C237.536 222.155 238.562 224.803 240.527 226.683C242.492 228.477 245.141 229.418 248.303 229.418H248.561C251.037 229.418 253.689 228.819 255.994 227.709H256.08L255.397 223.435L255.311 223.52C254.115 224.033 252.492 224.462 250.784 224.629C250.442 224.716 250.013 224.716 249.502 224.716H248.221C246.084 224.544 243.522 223.691 243.264 220.615H256.251V220.53C257.022 217.112 256.593 214.207 254.971 212.156C253.516 210.193 250.95 209.169 247.704 209.169ZM247.704 213.612C249.071 213.612 250.182 213.953 250.865 214.721C251.375 215.233 251.635 215.917 251.549 216.772H243.431C243.859 214.892 245.568 213.611 247.704 213.611M252.404 202.42V201.821L247.533 200.029L244.713 205.924V206.521H249.072L252.404 202.42ZM281.2 225.23C280.516 225.316 280.091 225.145 279.833 224.973C279.491 224.631 279.491 224.033 279.491 223.18V199.941H273.766V210.449C272.312 209.766 270.858 209.425 269.406 209.425C264.195 209.425 260.177 213.696 260.177 219.421C260.177 222.154 260.947 224.632 262.4 226.511C263.938 228.562 266.244 229.588 268.893 229.588H269.066C271.542 229.588 273.593 228.307 274.705 226.256V226.344C274.791 228.395 276.072 229.504 278.551 229.504C279.416 229.506 280.278 229.391 281.112 229.162H281.198V225.317L281.2 225.23ZM273.85 215.234V220.104C273.85 222.496 272.225 224.376 270.006 224.376C267.443 224.376 265.905 222.496 265.905 219.335C265.905 216.258 267.698 214.295 270.433 214.295C271.63 214.209 272.739 214.551 273.85 215.234ZM294.871 209.083H294.785C289.914 209.083 284.617 212.329 284.617 219.249C284.617 226.169 289.914 229.415 294.87 229.415C299.742 229.415 305.038 226.255 305.038 219.249C305.038 212.243 299.741 209.083 294.871 209.083ZM299.398 219.25C299.398 220.788 298.886 222.154 298.031 223.093C297.177 223.949 296.151 224.375 294.955 224.375H294.869C292.732 224.375 290.426 222.749 290.426 219.247C290.426 215.743 292.818 214.205 294.952 214.205C297.087 214.205 299.398 215.747 299.398 219.25ZM321.615 209.254C319.479 209.254 316.829 209.937 315.634 211.989C315.463 210.278 314.095 209.425 311.532 209.425C310.678 209.425 309.74 209.51 308.542 209.681H308.456V213.356H308.542C310.251 213.356 310.251 213.87 310.251 215.75V229.079H315.976V218.057C315.976 215.41 317.941 213.957 319.905 213.957C320.931 213.957 321.784 214.299 322.468 214.983C323.152 215.666 323.494 216.692 323.41 217.888V229.082H329.22V217.884C329.305 212.33 326.485 209.254 321.614 209.254M334.773 209.937H340.499V228.989H334.773V209.937ZM337.764 200.967H337.679C336.055 200.967 334.347 201.993 334.347 204.213C334.347 206.52 336.141 207.544 337.764 207.544H337.851C339.389 207.544 341.097 206.434 341.097 204.214C341.01 202.077 339.387 201.052 337.764 200.967ZM362.629 212.159C361.091 210.279 358.615 209.254 355.367 209.254C350.411 209.254 345.37 212.33 345.2 219.165C345.2 222.241 346.225 224.888 348.191 226.769C350.155 228.562 352.805 229.503 355.968 229.503H356.225C358.702 229.503 361.353 228.904 363.657 227.794H363.743L363.06 223.52L362.975 223.607C361.778 224.119 360.154 224.546 358.447 224.716C358.105 224.802 357.678 224.802 357.167 224.802H355.884C353.749 224.631 351.185 223.776 350.929 220.7H363.915V220.615C364.764 217.028 364.252 214.124 362.629 212.159M355.366 213.611C356.733 213.611 357.842 213.953 358.525 214.721C359.039 215.233 359.296 215.917 359.209 216.772H351.093C351.521 214.892 353.145 213.611 355.367 213.611" fill="#341F14"/>
<path d="M239.929 188.788C211.214 188.788 187.853 165.43 187.853 136.719C187.853 108.008 211.214 84.6489 239.929 84.6489C268.643 84.6489 292.005 108.008 292.005 136.719C292.005 165.43 268.643 188.788 239.929 188.788Z" fill="url(#paint0_linear_730_18648)"/>
<path d="M260.948 152.439C244.201 162.093 236.083 161.836 218.738 152.353C218.738 153.635 218.738 154.916 219.25 155.857C224.804 160.3 231.468 164.997 240.527 166.62C249.412 164.828 250.866 162.693 257.274 158.848C259.24 157.052 262.059 155.43 260.948 152.439ZM229.248 164.656C225.146 170.637 220.431 177.362 220.772 185.137C231.196 189.923 247.106 189.689 258.129 185.332C258.3 177.557 254.797 170.466 250.183 164.658C244.2 168.502 235.144 168.502 229.248 164.656ZM222.326 130.482C221.217 131.507 220.874 133.643 221.728 135.095C226.172 134.156 231.981 132.447 237.023 132.959C236.426 140.734 226.513 139.794 221.728 142.613C225.06 146.544 231.213 143.126 235.655 144.238C233.606 147.911 231.384 151.328 230.444 155.601C234.973 159.53 238.904 159.018 239.844 159.018C240.869 159.018 245.482 159.275 248.9 155.943C248.131 151.67 246.507 147.74 244.03 144.238C248.814 142.784 255.223 146.886 258.129 142.613C255.736 141.333 252.918 141.333 250.525 140.392C246.252 139.879 245.482 135.694 243.263 132.959C248.817 131.678 253.859 134.497 258.472 135.01C258.815 123.903 245.996 132.959 241.041 127.063C246.935 126.722 252.746 124.244 258.472 126.294C258.301 125.186 259.071 123.476 257.874 122.792C252.15 121.339 247.109 123.817 241.297 121.937C244.973 117.324 250.953 121.424 256.335 120.144C258.558 119.972 258.898 116.897 258.558 115.017C254.371 119.289 246.852 114.162 241.47 116.042C241.812 115.53 241.812 114.933 242.238 114.419C246.082 109.549 259.24 115.017 259.073 106.131C259.066 105.468 258.98 104.808 258.816 104.166C257.706 98.7849 258.046 99.9804 256.339 95.4523C253.776 89.3017 244.29 87.3355 242.754 83.7476C241.813 73.7524 241.387 68.3692 241.472 53.3333H240.019C240.277 64.0126 238.908 73.4958 238.395 83.5767C236.856 87.166 227.287 88.9593 224.809 95.1956C223.1 99.8089 223.356 98.5269 222.332 103.909C222.161 104.765 222.075 105.448 222.075 106.131C222.075 114.675 234.977 109.378 238.823 114.248L239.165 115.957C233.954 113.735 227.716 118.519 222.931 114.077C221.991 115.187 221.478 116.469 221.82 117.837C225.581 122.622 236.261 115.53 238.909 121.852C234.382 122.963 228.656 121.595 223.273 121.938C222.333 122.194 221.649 122.536 221.479 123.39C221.394 124.5 221.651 125.27 222.163 126.209C227.888 124.158 233.528 126.722 239.252 126.978C235.313 131.593 227.196 127.662 222.326 130.482" fill="#341F14"/>
<defs>
<linearGradient id="paint0_linear_730_18648" x1="-86.4636" y1="165.473" x2="-86.4636" y2="140.479" gradientUnits="userSpaceOnUse">
<stop stop-color="#FFDD00"/>
<stop offset="0.25" stop-color="#FCCC00"/>
<stop offset="0.7" stop-color="#F4A000"/>
<stop offset="1" stop-color="#EE7F00"/>
</linearGradient>
</defs>
</svg>
