<svg width="480" height="320" viewBox="0 0 480 320" fill="none" xmlns="http://www.w3.org/2000/svg">
<path d="M411.251 87.5068C411.251 86.5945 411.695 86.4465 412.533 86.915C414.062 87.8027 415.69 88.715 415.69 88.715C415.739 88.2219 416.183 87.7781 417.095 88C417.958 88.2219 418.92 88.4192 418.92 88.4192C418.92 88.4192 418.402 87.2109 418.155 86.6931C417.736 85.7315 418.131 85.263 418.55 85.115C418.55 85.115 417.958 84.6959 417.564 84.4246C416.725 83.8328 416.922 83.2411 417.736 82.8959C418.846 82.4027 420.202 81.7863 420.202 81.7863C419.758 81.515 419.265 80.7753 419.832 79.9369C420.399 79.0739 421.238 77.8904 421.238 77.8904C421.238 77.8904 419.733 77.915 418.747 77.8904C417.835 77.8904 417.613 77.1506 417.638 76.6082C417.638 76.6082 416.158 77.6931 415.122 78.4082C414.235 79.0246 413.446 78.4328 413.569 77.3726C413.791 75.7205 413.964 73.8958 413.964 73.8958C413.421 74.2904 412.484 74.2657 412.065 73.3534C411.449 71.9972 410.733 70.3945 410.733 70.3945C410.733 70.3945 410.018 71.9972 409.402 73.3534C408.983 74.2657 408.046 74.2904 407.503 73.8958C407.503 73.8958 407.701 75.7205 407.898 77.3726C408.046 78.4328 407.232 79.0246 406.344 78.4082C405.284 77.6684 403.829 76.6082 403.829 76.6082C403.829 77.1506 403.607 77.8904 402.72 77.8904C401.733 77.915 400.229 77.8904 400.229 77.8904C400.229 77.8904 401.068 79.0739 401.635 79.9369C402.202 80.8 401.684 81.5397 401.265 81.7863C401.265 81.7863 402.646 82.4274 403.731 82.8959C404.544 83.2657 404.742 83.8328 403.903 84.4246C403.509 84.6959 402.917 85.115 402.917 85.115C403.336 85.263 403.731 85.7315 403.312 86.6931C403.065 87.2109 402.572 88.4192 402.572 88.4192C402.572 88.4192 403.533 88.1972 404.396 88C405.333 87.7781 405.753 88.2219 405.802 88.715C405.802 88.715 407.405 87.8027 408.958 86.915C409.796 86.4219 410.24 86.5945 410.24 87.5068V89.726C410.24 91.0082 410.018 92.4137 409.55 93.1781C403.632 92.5123 398.725 87.6301 398.725 81.1698C398.725 74.5369 404.101 69.1369 410.733 69.1369C417.366 69.1369 422.742 74.5123 422.742 81.1698C422.742 87.3835 418.057 92.4383 412.09 93.1041V94.7315C419.117 94.0657 424.616 88.2465 424.616 81.1698C424.616 73.6493 418.427 67.5342 410.758 67.5342C403.09 67.5342 396.876 73.6493 396.876 81.1698C396.876 87.8027 401.684 93.3014 408.07 94.5589C409.155 94.7561 409.821 94.9288 410.388 95.6438C411.079 94.3616 411.227 91.6493 411.227 90.0959V87.5068M276.3 73.0821C273.267 73.0821 270.851 73.7972 269.224 75.1534C267.596 76.5342 266.758 78.5561 266.758 81.1698C266.758 83.6849 267.522 85.6082 269.15 87.0383C270.777 88.4685 273.095 89.1835 276.004 89.2082C278.396 89.2082 280.467 88.863 282.095 88.1972V85.8794C280.369 86.6438 278.421 86.9644 276.695 86.9644C274.722 86.9644 273.218 86.4465 272.133 85.4109C271.024 84.3753 270.53 82.9452 270.53 81.0958C270.53 79.2219 271.024 77.7178 272.059 76.7068C273.07 75.6712 274.5 75.252 276.374 75.252C277.854 75.252 279.9 75.5726 282.07 76.263V73.7232C280.147 73.3041 278.248 73.1068 276.3 73.0821ZM216.284 73.5506L209.799 88.715H212.339L214.04 84.6219H220.821L222.596 88.715H226.517L220.204 73.526H216.284V73.5506ZM231.152 73.5506V88.7397H234.629V73.5506H231.152ZM242.1 73.5506V88.7397H245.33V82.5013H248.561L253.418 88.7397H257.437L251.963 81.663C253.147 81.0465 253.467 80.8 254.109 80.0109C254.75 79.2712 254.996 78.2356 254.947 77.3232C254.799 75.2027 253.073 73.5753 249.251 73.5506H242.076H242.1ZM292.722 73.5506L286.336 88.7397H288.802L290.552 84.6465H297.333L299.035 88.7397H303.054L296.667 73.5506H292.747H292.722ZM307.911 73.5506V88.7397H310.772V77.4219L320.339 88.7397H323.963V73.5506H321.103V84.4246L311.931 73.5506H307.936H307.911ZM335.257 73.5506L328.87 88.7397H331.336L333.037 84.6465H339.892L341.594 88.7397H345.514L339.202 73.5506H335.281H335.257ZM350.372 73.5506V88.7397H357.153C359.742 88.7397 361.813 88.1233 363.243 86.7424C364.698 85.3616 365.413 83.389 365.413 80.8986C365.437 78.5561 364.772 76.7561 363.416 75.4986C362.059 74.241 360.111 73.5999 357.572 73.5753H350.396L350.372 73.5506ZM375.646 73.5506L369.185 88.7397H371.651L373.427 84.6465H380.207L381.909 88.7397H385.928L379.542 73.5506H375.695H375.646ZM245.33 75.5479H247.254C249.843 75.5479 251.643 75.8191 251.643 77.7917C251.643 79.789 250.78 80.4794 246.785 80.4794H245.33V75.5479ZM353.824 75.6219H355.895C357.227 75.6219 358.213 75.7452 358.903 76.0164C359.618 76.263 360.185 76.7561 360.679 77.3972C361.394 78.3589 361.764 79.5671 361.764 81.0219C361.764 82.8712 361.27 84.252 360.383 85.189C359.495 86.1013 358.163 86.5698 356.388 86.5698H353.848V75.6219H353.824ZM217.517 76.6328L219.982 82.6493H214.903L217.517 76.6328ZM293.955 76.6328L296.495 82.6493H291.415L293.955 76.6328ZM336.489 76.6328L339.029 82.6493H333.876L336.489 76.6328ZM376.78 76.6328L379.32 82.6493H374.24L376.78 76.6328Z" fill="#ED1C24"/>
<path d="M112.894 111.597C103.45 115.567 91.3683 121.164 85.6724 130.485C81.4559 137.389 81.9244 138.351 81.9244 158.126C81.9244 163.6 81.4559 165.794 78.3244 169.123C75.4395 172.205 73.7135 173.241 71.7655 173.562C65.1326 174.647 55.3929 129.178 55.3929 123.235C55.3929 121.682 55.2696 121.435 55.9847 120.375C57.0203 118.896 59.1655 116.898 60.4723 116.898C66.2915 116.898 73.171 124.592 73.171 124.592C73.171 124.592 77.9052 120.104 89.6916 111.227C97.8286 105.112 105.201 100.279 109.171 100.279C113.782 100.279 118.467 104.619 118.467 106.715C118.467 109.304 116.075 109.945 112.968 111.646M133.04 173.414C116.198 173.414 108.505 158.373 108.505 144.367C108.505 131.668 111.859 121.633 119.404 111.844C124.631 105.038 130.278 101.364 132.916 101.364C133.04 101.364 133.138 101.364 133.237 101.389C139.549 102.153 143.47 106.592 144.209 107.479C144.308 107.603 144.431 107.751 144.505 107.874C146.207 105.655 148.5 103.435 149.979 102.351C152.938 100.181 154.615 100.008 157.056 100.008C165.218 100.008 173.971 104.964 173.971 115.838C173.971 124.419 170.84 134.923 165.144 145.477C159.719 155.488 152.716 164.167 145.886 169.247C142.064 172.107 137.971 173.438 133.015 173.438M134.445 115C132.966 115 131.215 115.789 129.119 117.392C124.114 121.214 118.319 132.531 118.319 141.457C118.319 148.337 121.648 152.282 124.434 154.353C127.935 156.967 132.029 157.929 134.692 157.929H135.185C144.999 157.436 152.445 149.101 156.02 144.17C161.494 136.6 164.355 128.438 164.355 124.296C164.355 115.32 159.053 113.915 157.327 113.446C156.045 113.101 155.083 112.953 154.27 112.953C153.111 112.953 152.149 113.225 150.571 113.742C150.251 113.841 149.831 113.989 149.363 114.186C147.834 114.753 145.936 115.468 144.555 115.468C143.914 115.468 143.396 115.296 143.026 114.975C142.73 114.729 142.409 114.334 142.262 113.742C139.944 115.197 138.686 115.814 137.577 115.814C137.133 115.814 136.714 115.715 136.344 115.493C135.777 115.172 135.185 115 134.494 115M177.448 115.962C177.448 139.707 181.64 161.529 189.678 169.962C191.947 172.329 194.511 173.636 197.371 173.636C210.415 173.636 225.382 153.712 230.536 141.088C232.41 148.633 236.281 156.918 239.881 163.403C243.481 169.888 248.56 177.852 251.791 176.668C255.415 175.362 257.881 170.578 258.596 168.063C259.558 164.857 258.128 164.34 251.396 153.54C244.689 142.715 240.67 125.43 240.029 120.005C239.585 116.06 238.13 113.249 234.259 116.8C231.867 119.019 229.475 121.09 228.908 123.704C227.848 128.586 224.79 136.353 220.179 143.381C216.012 149.767 205.656 157.041 201.242 157.041C191.552 157.041 192.489 114.901 192.489 108.49C192.489 102.079 191.158 99.9094 187.089 99.9094C185.215 99.9094 181.122 103.312 179.125 105.408C177.103 107.529 177.423 109.304 177.423 115.937" fill="#A20B31"/>
<path d="M302.906 252.466C289.837 252.466 281.405 241 276.646 231.384C271.221 220.436 268.657 207.343 267.868 200.093C267.572 197.208 267.276 194.003 267.991 192.326C269.1 189.688 280.862 183.153 281.257 184.115C281.676 185.077 281.503 190.477 281.725 193.51C282.588 204.852 285.005 216.416 288.333 225.195C291.983 234.836 296.347 240.162 300.687 240.162C302.881 240.162 306.309 235.427 309.317 222.162C312.029 210.104 313.607 201.943 313.607 186.433C313.607 172.797 311.314 152.282 308.454 149.348L308.133 149.57C298.911 156.153 287.446 164.315 270.999 164.315C258.448 164.315 253.985 152.011 253.985 140.496C253.985 133.394 257.585 123.334 263.158 114.852C269.396 105.334 276.67 99.8848 283.106 99.8601C289.862 99.8601 298.32 105.063 302.265 109.871C304.607 112.731 305.668 118.403 304.238 120.523C302.783 122.668 299.035 124.542 294.892 125.233C294.473 125.307 294.079 125.331 293.709 125.331C290.972 125.331 289.566 123.605 288.333 122.077C288.013 121.682 287.717 121.312 287.396 120.967C284.61 117.983 282.12 116.282 280.542 116.282C272.158 116.282 266.339 128.438 266.339 139.362C266.339 150.063 278.544 150.359 278.668 150.359C285.227 150.359 294.917 147.844 300.736 144.614C307.024 141.137 310.254 138.967 313.533 135.983C313.953 135.614 314.421 135.416 314.939 135.416C319.131 135.416 323.618 148.781 324.901 152.874C328.353 163.97 328.994 176.447 328.994 186.236C328.994 197.455 327.539 211.362 323.495 226.132C318.761 243.343 311.659 252.466 302.955 252.466M396.975 149.003C395.545 150.359 391.254 154.156 384.917 157.263C378.555 160.394 374.191 161.775 363.44 160.764C349.262 159.433 342.136 150.655 341.446 140.126C361.69 140.126 379.049 131.446 379.049 113.274C379.049 106.32 373.205 99.6628 358.262 99.6628C346.254 99.6628 326.824 113.348 326.824 138.72C326.824 164.093 345.268 173.192 357.276 173.586C376.46 174.203 390.934 164.192 394.903 157.584C395.791 156.104 399.169 146.882 396.95 148.978M355.649 110.635C361.344 110.635 365.438 113.397 365.438 116.701C365.438 127.353 355.18 132.951 341.224 133.148C341.742 119.907 348.942 110.635 355.649 110.635Z" fill="#A20B31"/>
</svg>
