<svg width="480" height="320" viewBox="0 0 480 320" fill="none" xmlns="http://www.w3.org/2000/svg">
<path fill-rule="evenodd" clip-rule="evenodd" d="M161.566 176.901L151.976 191.834H157.867L167.32 176.901H161.566ZM181.843 176.901V191.834H186.775V176.901H181.843ZM196.365 176.901V191.834H191.98V176.901H196.365ZM207.188 176.901V191.834H202.941V176.901H207.188ZM245.824 176.901C244.316 180.326 241.986 182.656 240.342 184.026C235.137 187.724 228.835 187.724 224.725 187.724H213.764V191.834H227.052C232.532 191.834 238.151 190.464 241.713 188.136C246.644 184.985 249.247 180.737 250.618 176.901H245.824ZM253.084 176.901C254.18 185.122 261.442 192.109 270.484 192.109C279.662 192.109 286.787 185.122 288.019 176.901H283.636C282.402 184.163 276.374 188.272 270.484 188.272C264.317 188.272 258.564 183.615 257.469 176.901H253.084ZM294.596 176.901V191.834H290.212V176.901H294.596ZM296.789 176.901C297.884 185.122 305.144 192.109 314.187 192.109C323.367 192.109 330.489 185.122 331.724 176.901H327.338C326.107 184.163 320.078 188.272 314.324 188.272C308.022 188.272 302.267 183.615 301.171 176.901H296.789ZM338.847 176.901V191.834H334.6V176.901H338.847ZM361.59 176.901V191.834H357.206V176.901H361.59ZM384.194 176.901V191.834H379.949V176.901H384.194ZM392.826 176.901V191.834H388.58V176.901H392.826ZM402.552 176.901V191.834H398.306V176.901H402.552ZM415.02 176.901V191.834H410.637V176.901H415.02Z" fill="#021A31"/>
<path fill-rule="evenodd" clip-rule="evenodd" d="M167.32 176.901L167.594 176.49H181.843V176.901H186.775V147.857H180.336L161.566 176.901H167.32ZM191.979 176.901V158.132H196.365V176.901H191.979ZM202.941 176.901V158.132H207.188V163.064C209.379 158.269 213.216 157.584 216.778 157.309V161.831C213.764 162.104 211.16 163.201 209.517 165.256C208.01 167.038 207.188 169.503 207.188 172.106V176.901H202.941ZM250.618 176.901C251.714 173.887 251.988 171.147 251.988 169.366C251.988 163.886 249.658 155.255 241.713 150.322C238.15 147.993 232.533 146.624 227.052 146.624H224.175L224.314 150.46H224.725C231.438 150.46 235.685 151.282 239.658 153.885C244.453 157.448 247.467 162.928 247.467 169.093C247.467 172.106 246.782 174.709 245.823 176.901H250.618ZM257.468 176.901C257.33 176.216 257.194 175.394 257.194 174.709C257.194 165.804 264.456 160.734 270.484 160.734C276.374 160.734 283.909 165.394 283.909 174.298C283.909 175.257 283.772 176.08 283.636 176.901H288.019C288.157 176.08 288.157 175.257 288.157 174.435C288.157 165.257 280.483 156.761 270.484 156.761C261.579 156.761 252.947 164.023 252.947 174.709C252.947 175.532 252.947 176.216 253.084 176.901H257.468ZM290.212 176.901V147.857H294.595V176.901H290.212ZM301.171 176.901C301.034 176.216 300.898 175.394 300.898 174.709C300.898 165.804 308.159 160.734 314.323 160.734C320.078 160.734 327.614 165.394 327.614 174.298C327.614 175.257 327.475 176.08 327.338 176.901H331.723C331.86 176.08 331.86 175.257 331.86 174.435C331.86 165.257 324.188 156.761 314.187 156.761C305.28 156.761 296.65 164.023 296.65 174.709C296.65 175.532 296.65 176.216 296.788 176.901H301.171ZM334.6 176.901V158.132H338.847V162.104C340.766 159.09 344.191 157.309 348.025 157.309C352.958 157.309 357.068 159.639 359.398 163.749C362.001 159.502 365.974 157.309 370.77 157.309C378.714 157.309 384.195 162.928 384.195 171.832V176.901H379.949V172.38C379.949 165.119 376.387 161.147 370.77 161.147C365.015 161.147 361.589 165.118 361.589 172.38V176.901H357.206V172.38C357.206 165.119 353.781 161.147 348.025 161.147C342.409 161.147 338.847 165.118 338.847 172.38V176.901H334.6ZM388.579 176.901V158.132H392.826V176.901H388.579ZM398.306 176.901V147.857H402.552V158.132H406.937V162.104H402.552V176.901H398.306ZM410.637 176.901V158.132H415.02V176.901H410.637ZM170.334 172.38L181.843 154.433V172.38H170.334ZM410.637 147.857H415.02V154.022H410.637V147.857ZM388.579 147.857H392.826V154.022H388.579V147.857ZM191.979 146.35H196.364V154.022H191.979V146.35Z" fill="#021A31"/>
<path fill-rule="evenodd" clip-rule="evenodd" d="M121.014 127.58L94.7085 157.721H64.5688L90.8727 127.58H121.014ZM121.014 190.602L94.7085 160.597H64.5688L90.8727 190.602H121.014ZM155.264 159.502L126.357 142.787L97.4492 159.228L126.083 175.806L155.264 159.502Z" fill="#008E8F"/>
</svg>
