<svg width="480" height="320" viewBox="0 0 480 320" fill="none" xmlns="http://www.w3.org/2000/svg">
<path fill-rule="evenodd" clip-rule="evenodd" d="M166.204 206.677C168.619 200.188 175.836 194.929 182.322 194.929C188.811 194.929 192.11 200.188 189.694 206.677C187.275 213.16 180.059 218.418 173.572 218.418C167.086 218.418 163.788 213.16 166.204 206.677ZM167.346 239.158C168.735 236.495 170.218 233.807 171.774 231.236C176.274 230.814 180.863 229.225 185.125 226.811C186.709 228.14 188.262 229.583 189.756 231.08C182.761 235.676 174.939 238.621 167.346 239.158ZM146.904 231.405C149.993 229.624 153.147 227.884 156.185 226.341C158.445 228.659 161.423 230.228 164.928 230.93C164.537 233.6 164.001 236.412 163.39 239.21C156.264 238.87 150.477 236.144 146.904 231.405ZM144.708 209.008C147.262 209.429 149.792 209.93 152.154 210.512C151.421 214.405 151.695 218.096 152.947 221.284C150.493 223.765 147.84 226.257 145.164 228.655C142.423 223.247 142.277 216.405 144.708 209.008ZM161.726 185.484C162.456 187.498 163.116 189.568 163.639 191.64C159.831 195.016 156.623 199.068 154.499 203.483C151.792 204.059 149.016 204.538 146.29 204.929C149.625 197.506 155.129 190.768 161.726 185.484ZM181.024 182.59C177.236 183.371 173.459 184.916 169.923 187.028C168.339 185.729 166.801 184.299 165.336 182.819C171.449 178.65 178.229 175.739 184.97 174.614C183.603 177.487 182.283 180.157 181.024 182.59ZM209.107 182.087C206.055 183.875 202.923 185.614 199.869 187.159C197.854 185.034 195.232 183.544 192.18 182.725C192.729 180.146 193.394 177.312 194.174 174.24C200.615 174.902 205.818 177.634 209.107 182.087ZM210.986 204.962C208.465 204.569 205.956 204.088 203.597 203.502C204.522 199.237 204.252 195.178 202.819 191.744C205.272 189.274 207.922 186.807 210.581 184.44C213.534 190.038 213.678 197.203 210.986 204.962ZM190.471 213.001C192.568 212.178 194.848 211.457 197.232 210.837C195.56 213.669 193.421 216.294 190.969 218.602C190.63 216.687 190.465 214.809 190.471 213.001ZM178.129 222.082C179.538 222.772 180.97 223.638 182.409 224.679C179.691 226.082 176.859 227.119 174.025 227.672C175.36 225.658 176.736 223.776 178.129 222.082ZM165.582 222.133C165.636 223.806 165.536 225.697 165.33 227.719C162.965 227.207 160.912 226.232 159.262 224.828C161.499 223.767 163.633 222.846 165.582 222.133ZM164.869 200.493C162.942 201.243 160.861 201.905 158.679 202.484C160.23 199.867 162.178 197.43 164.402 195.254C164.707 197.05 164.866 198.804 164.869 200.493ZM176.215 191.164C175.026 190.576 173.839 189.908 172.665 189.096C174.716 187.97 176.842 187.069 178.995 186.414C178.012 188.194 177.089 189.766 176.215 191.164ZM190.732 191.2C190.896 189.668 191.167 187.885 191.546 185.883C193.572 186.454 195.34 187.39 196.783 188.66C194.674 189.645 192.642 190.514 190.732 191.2ZM200.511 202.64C198.499 202.012 196.678 201.285 195.139 200.45C196.612 198.473 198.387 196.4 200.359 194.295C201.108 196.787 201.153 199.616 200.511 202.64ZM155.242 211.361C157.038 211.909 158.676 212.52 160.078 213.203C158.745 214.965 157.177 216.803 155.444 218.676C154.847 216.462 154.765 213.994 155.242 211.361ZM193.668 228.257C192.938 226.265 192.288 224.211 191.753 222.156C195.787 218.693 199.178 214.479 201.398 209.868C204.109 209.3 206.875 208.834 209.59 208.456C206.168 216.051 200.476 222.928 193.668 228.257ZM195.54 232.899C204.281 226.365 211.486 217.523 215.181 207.777C224.917 206.759 232.8 206.747 232.8 206.747C232.8 206.747 224.892 206.682 215.891 205.63C218.798 196.564 218.238 187.854 214.318 181.178C223.18 173.605 231.166 167.774 231.166 167.774C231.166 167.774 223.146 173.541 213.328 179.555C209.345 173.921 203.082 170.444 195.416 169.482C197.712 160.927 200.652 151.054 203.863 140.799L201.776 136.047C196.895 147.947 191.965 159.509 187.427 169.358C178.755 170.155 169.856 173.781 162.029 179.249C156.838 173.346 153.225 167.774 153.225 167.774C153.225 167.774 156.711 173.442 159.87 180.825C151.333 187.334 144.312 196.04 140.689 205.627C130.738 206.707 122.582 206.747 122.582 206.747C122.582 206.747 130.698 207.073 139.824 208.28C137.152 217.032 137.724 225.423 141.433 231.926C132.418 239.676 124.197 245.71 124.197 245.71C124.197 245.71 132.607 239.929 142.655 233.903C146.951 239.903 153.84 243.43 162.269 244.038C159.91 253.619 157.166 261.856 157.166 261.856C157.166 261.856 160.21 253.718 164.835 244.162C164.854 244.162 164.874 244.166 164.894 244.166C174.385 244.166 184.378 240.528 193.111 234.613C198.336 240.373 202.132 245.71 202.132 245.71C202.132 245.71 198.691 240.171 195.54 232.899Z" fill="#1A68BB"/>
<path fill-rule="evenodd" clip-rule="evenodd" d="M87.6009 130.503L88.8145 113.315L78.3656 130.503H87.6009ZM63.4492 144.758L90.7916 100.713H104.861L102.723 144.758H86.8178L87.3067 135.948H75.0099L69.5673 144.758C69.5054 144.758 63.4492 144.758 63.4492 144.758Z" fill="#1A68BB"/>
<path fill-rule="evenodd" clip-rule="evenodd" d="M104.059 144.758L118.368 100.713H134.272L119.958 144.758H104.059Z" fill="#1A68BB"/>
<path fill-rule="evenodd" clip-rule="evenodd" d="M150.164 119.067C153.465 119.067 155.536 117.659 157.003 114.357C159.756 108.116 158.663 105.485 155.301 105.485H152.975L148.574 119.067H150.164ZM124.352 144.758L138.662 100.713H160.378C161.541 100.713 168.036 101.02 170.471 102.916C174.743 106.281 174.878 113.194 168.921 118.454C166.415 120.656 163.487 122.066 160.481 122.489C160.95 122.612 161.419 122.734 161.878 122.919C165.781 124.446 166.795 126.466 166.071 130.443C165.988 130.933 165.844 131.423 165.703 131.911L163.721 138.64C162.931 141.574 162.895 143.227 163.376 144.758H146.922C146.678 142.92 146.942 141.697 148.565 136.744L150.756 130.198C150.899 129.708 151.04 129.218 151.174 128.792C152.141 124.815 151.491 123.592 148.492 123.592H147.024L140.134 144.758H124.352Z" fill="#1A68BB"/>
<path fill-rule="evenodd" clip-rule="evenodd" d="M261.536 122.797C259.078 129.833 255.101 140.474 258.977 141.084C265.298 142.065 267.285 131.606 270.028 124.693C273.157 116.926 276.98 104.628 272.832 104.198C266.582 103.529 264.238 115.028 261.536 122.797ZM276.837 99.9821C288.908 102.429 293.558 110.868 285.321 127.629C279.675 139.132 268.713 146.531 256.746 145.674C241.034 144.515 240.756 131.118 245.691 119.858C251.707 106.16 266.304 97.8391 276.837 99.9821Z" fill="#1A68BB"/>
<path fill-rule="evenodd" clip-rule="evenodd" d="M309.685 119.067C312.989 119.067 315.057 117.659 316.523 114.357C319.279 108.116 318.189 105.485 314.824 105.485H312.498L308.094 119.067H309.685ZM283.871 144.758L298.182 100.713H319.898C321.061 100.713 327.552 101.02 329.995 102.916C334.265 106.281 334.395 113.194 328.444 118.454C325.935 120.656 323.009 122.066 320.002 122.489C320.47 122.612 320.938 122.734 321.398 122.919C325.305 124.446 326.311 126.466 325.59 130.443C325.508 130.933 325.363 131.423 325.222 131.911L323.244 138.64C322.449 141.574 322.418 143.227 322.901 144.758H306.445C306.198 142.92 306.465 141.697 308.084 136.744L310.275 130.198C310.42 129.708 310.562 129.218 310.695 128.792C311.661 124.815 311.008 123.592 308.015 123.592H306.545L299.652 144.758H283.871Z" fill="#1A68BB"/>
<path fill-rule="evenodd" clip-rule="evenodd" d="M334.648 106.16L336.409 100.713H374.459L372.683 106.218H361.614L349.073 144.758H333.109L345.661 106.16H334.648Z" fill="#1A68BB"/>
<path fill-rule="evenodd" clip-rule="evenodd" d="M362.797 144.758L377.108 100.713H393.073L387.459 117.904H394.859L400.477 100.713H416.442L402.13 144.758H386.226L393.25 123.164H385.728L378.7 144.758H362.797Z" fill="#1A68BB"/>
<path fill-rule="evenodd" clip-rule="evenodd" d="M214.945 102.953C224.419 78.5452 231.547 59.0003 231.547 59.0003C231.547 59.0003 224.193 79.3747 215.712 104.493L214.945 102.953Z" fill="#1A68BB"/>
<path fill-rule="evenodd" clip-rule="evenodd" d="M171.574 197.005C172.347 196.445 173.241 195.441 174.23 194.109C166.766 189.057 160.016 178.605 160.016 178.605C160.016 178.605 166.761 189.549 168.168 199.037C169.413 198.41 170.567 197.74 171.574 197.005Z" fill="#83A1DA"/>
<path fill-rule="evenodd" clip-rule="evenodd" d="M191.058 197.005C191.51 197.727 192.155 198.388 192.927 199.005C201.408 189.486 216.298 178.604 216.298 178.604C216.298 178.604 201.781 189.042 190.551 194.1C190.556 195.435 190.709 196.451 191.058 197.005Z" fill="#83A1DA"/>
<path fill-rule="evenodd" clip-rule="evenodd" d="M183.8 216.489C182.722 217.273 181.647 218.243 180.578 219.335C187.874 224.376 195.336 234.881 195.336 234.881C195.336 234.881 188.553 223.994 187.161 214.473C185.936 215.095 184.799 215.762 183.8 216.489Z" fill="#83A1DA"/>
<path fill-rule="evenodd" clip-rule="evenodd" d="M164.32 216.489C163.879 215.79 163.202 215.143 162.356 214.538C153.864 224.005 139.059 234.881 139.059 234.881C139.059 234.881 154.269 224.427 165.312 219.371C165.103 218.211 164.786 217.233 164.32 216.489Z" fill="#83A1DA"/>
<path fill-rule="evenodd" clip-rule="evenodd" d="M189.049 97.2267C180.986 123.763 169.658 142.4 169.658 142.4C161.672 154.341 153.222 161.07 148.13 160.222C148.13 160.222 149.319 158.779 149.319 155.976C149.319 152.244 146.01 148.171 140.157 148.171C134.301 148.171 130.652 152.415 130.652 157.675C130.652 162.934 135.235 166.498 140.072 166.835C146.101 167.259 147.473 166.498 150.818 165.703C175.553 159.537 188.742 113.56 192.035 105.108C201.794 125.153 209.738 145.885 219.002 166.101L225.791 166.048C230.916 144.766 243.865 111.867 250.414 102.081C258.403 90.1426 266.851 83.4141 271.943 84.2597C271.943 84.2597 270.752 85.7018 270.752 88.5017C270.752 92.2375 274.062 96.3108 279.919 96.3108C285.769 96.3108 289.419 92.0668 289.419 86.8045C289.419 81.5462 284.835 77.9831 280.003 77.6437C273.971 77.2219 272.6 77.9831 269.253 78.7765C244.522 84.9426 231.33 130.922 228.039 139.373C219.347 119.672 208.638 100.306 200.732 79.8028H171.601L172.037 83.858C178.172 84.087 179.918 85.4025 183.533 87.1158C186.081 90.0282 188.652 93.6254 189.049 97.2267Z" fill="#1A68BB"/>
<path fill-rule="evenodd" clip-rule="evenodd" d="M242.933 179.634C242.965 179.385 242.965 179.232 242.965 179.202L243.12 178.827C243.304 178.086 243.304 178.086 243.304 178.022L243.646 177.804C243.77 177.837 243.802 177.837 243.861 177.928C244.141 177.928 244.109 177.962 244.387 177.713L244.669 177.495L245.165 176.876C245.567 176.44 245.754 176.194 245.754 176.194C245.784 176.164 246.22 175.606 246.248 175.575L246.715 175.014L246.898 174.706L247.797 173.623C247.83 173.375 247.862 173.312 248.047 173.187C248.047 173.035 248.047 173.003 247.922 172.91C247.705 173.003 247.552 173.063 247.458 173.094C246.715 173.405 246.653 173.405 246.155 173.405C245.754 173.405 245.536 173.375 245.103 173.219C245.072 173.035 245.041 172.97 244.853 172.844C244.794 172.505 244.763 172.415 244.604 172.166C244.729 172.042 244.577 172.166 244.577 170.959C244.577 170.865 244.545 170.463 244.512 169.841C244.484 169.657 244.484 169.467 244.484 169.25C244.484 169.097 244.484 168.941 244.512 168.755L244.639 165.564L244.946 163.054L245.536 160.017V159.706L245.442 159.739V159.648C245.289 159.706 245.195 159.739 245.134 159.771C244.853 159.865 244.794 159.896 244.669 160.049C244.512 160.049 244.421 160.049 244.358 160.082L244.235 160.172C244.175 160.205 244.141 160.205 244.079 160.205C243.985 160.205 243.861 160.172 243.708 160.049H243.583L243.676 159.8L245.937 157.879C246.279 157.571 246.962 157.228 247.241 157.228C247.303 157.228 247.336 157.228 247.394 157.26L247.705 157.446C248.012 157.602 248.012 157.63 248.047 157.849C248.079 157.913 248.107 158.035 248.141 158.159C247.89 158.44 247.797 158.561 247.735 158.654C247.518 158.963 247.147 159.831 247.024 160.267L246.868 160.885L246.715 161.415L246.653 161.815L246.435 162.806L246.096 165.069L245.909 166.183V166.803L245.784 168.136C245.754 168.418 245.718 168.695 245.718 168.913C245.718 169.128 245.754 169.284 245.754 169.467L245.816 170.027L245.843 170.892L246.002 171.391L246.031 171.609C246.061 171.702 246.127 171.795 246.186 171.886L246.435 172.257C246.556 172.35 246.805 172.444 247.056 172.444C247.179 172.444 247.552 172.35 247.581 172.228C248.231 172.042 248.76 171.637 249.38 170.834L250.093 169.934L250.772 169.097L251.27 168.385L251.766 167.734L252.2 167.02L252.598 166.495L252.851 166L254.215 163.954L254.556 163.272C254.647 163.117 254.741 162.961 255.05 162.529C255.145 162.435 255.177 162.37 255.329 162.062L255.578 161.75L255.699 161.442L256.601 159.896L256.908 159.211C257.063 158.997 257.28 158.221 257.28 158.25C257.28 158.191 257.25 158.097 257.221 157.972C257.499 157.602 258.059 157.353 258.678 157.353C258.83 157.353 258.925 157.416 259.017 157.537C259.079 157.602 259.174 157.724 259.266 157.879C259.391 158.128 259.419 158.191 259.419 158.315C259.419 158.44 259.232 158.747 258.955 159.18L256.848 162.404L256.476 162.961L254.709 165.595L254.556 165.841L252.54 168.63L252.353 168.972C252.293 169.038 252.2 169.067 251.794 169.751L251.206 170.429C251.114 170.554 250.959 170.771 250.742 171.083C250.525 171.36 250.308 171.671 250.093 171.979C249.75 172.537 249.687 172.693 249.193 173.375L248.695 173.993L248.199 174.768C248.079 174.862 247.954 175.048 247.767 175.297L246.556 176.907L246.372 177.156L246.155 177.495L244.639 179.541C244.175 180.16 244.141 180.222 244.109 180.378C243.77 180.502 243.676 180.533 243.553 180.533C243.459 180.533 243.49 180.533 243.027 180.222C242.995 180.192 242.933 180.16 242.84 180.132C242.902 179.914 242.933 179.727 242.933 179.634Z" fill="#F14825"/>
<path fill-rule="evenodd" clip-rule="evenodd" d="M255.081 175.204L255.794 172.816L256.041 172.228L256.443 171.018L256.692 170.429L257.128 169.25L257.467 168.602L257.899 167.422L259.297 164.45C259.325 164.415 259.512 164.045 259.821 163.487C259.916 163.366 259.946 163.272 259.978 163.207L260.38 162.31C260.412 162.217 260.721 161.91 261.062 161.567C261.187 161.473 261.277 161.442 261.342 161.442C261.434 161.442 261.561 161.535 261.868 161.815C261.93 161.875 262.022 161.968 262.149 162.062L262.083 162.435C261.898 162.747 261.868 162.806 261.713 162.992L261.434 163.425L261.342 163.519L261.155 163.861L260.843 164.231L260.659 164.726L260.317 165.224L259.978 166.03C259.667 166.308 259.636 166.651 259.512 166.868L259.389 167.145L259.172 167.456L259.048 167.827L258.674 168.571L258.305 169.501L258.086 169.934L257.839 170.616L257.684 170.986C257.345 171.92 257.439 171.762 257.278 172.198L257.156 172.474C256.937 173.035 256.784 173.436 256.692 173.748L256.413 174.645C256.318 174.987 256.26 175.232 256.26 175.297V175.852C256.26 175.945 256.318 176.038 256.443 176.194C256.507 176.194 256.535 176.222 256.602 176.222C256.63 176.222 256.726 176.194 256.784 176.164L257.128 176.008L257.315 175.823L257.899 175.388L258.704 174.551L259.667 173.529L259.946 173.127C259.978 173.035 260.225 172.754 260.566 172.29C260.691 172.132 260.94 171.795 261.277 171.36L262.734 169.315C262.92 168.941 262.985 168.848 263.322 168.477L263.605 167.858C263.665 167.827 263.726 167.733 263.82 167.671C263.82 167.547 263.913 167.332 264.252 166.71L264.533 166.183L265.154 165.038L265.71 163.985C266.052 163.394 266.271 162.992 266.299 162.961C266.608 162.558 267.106 162 267.198 161.968C267.229 161.784 267.321 161.723 267.415 161.723C267.508 161.723 267.572 161.784 267.66 161.875L268.034 162.31C268.034 162.342 268.096 162.404 268.191 162.464C268.156 162.712 268.096 162.837 268.066 162.931C267.602 163.861 267.042 164.634 267.134 164.605L267.014 164.664L266.765 165.069L266.608 165.253L266.548 165.47L266.234 165.938C266.052 166.308 266.299 165.938 265.557 167.269L265.369 167.64L265.274 167.89L265.089 168.17L265.027 168.477L264.778 168.941L264.471 169.716L264.318 169.872L263.941 171.018L263.726 171.42C263.696 171.484 263.696 171.544 263.696 171.671L263.633 171.702L263.322 172.661L262.609 175.048V175.326C262.609 175.388 262.581 175.481 262.519 175.606L262.643 175.633C262.673 175.759 262.734 175.852 262.826 175.852C262.92 175.852 263.075 175.759 263.264 175.606L264.007 174.921L264.409 174.426L265.059 173.682L265.369 173.252L265.959 172.474L267.353 170.463C268.221 169.44 268.315 169.315 268.315 169.284L268.622 168.972L268.717 168.819C268.779 168.755 268.904 168.695 269.058 168.63C268.934 168.755 268.872 168.88 268.872 168.941L268.809 169.16L268.657 169.377L267.321 171.453L267.106 171.73C267.014 171.824 266.917 171.979 266.765 172.228C266.548 172.627 266.329 172.942 266.176 173.127C266.146 173.156 266.112 173.187 266.112 173.187L264.688 175.173C264.409 175.543 264.284 175.699 264.007 175.945V176.038L263.511 176.536C263.447 176.63 263.386 176.689 263.386 176.72C262.768 177.374 262.643 177.403 262.424 177.588C262.274 177.679 262.115 177.713 262.022 177.713C261.93 177.713 261.806 177.679 261.653 177.62L261.494 177.527C261.155 177.249 261.062 177.125 261.062 176.938C261.062 176.876 261.062 176.813 261.062 176.72L261.249 175.421C261.249 175.421 261.249 175.297 261.277 175.138C261.342 174.799 261.402 174.551 261.464 174.396L262.364 171.453L262.551 170.986L262.274 170.924L262.083 171.204C261.93 171.453 261.836 171.544 261.619 171.824L261.589 171.92C261.589 171.92 261.342 172.257 260.968 172.754L260.163 173.807L259.14 174.955L258.584 175.606C258.488 175.699 257.22 176.876 257.033 176.966C256.879 177.06 256.847 177.06 256.784 177.184C256.602 177.308 256.413 177.374 256.318 177.374H256.071C256.041 177.374 255.947 177.403 255.854 177.432C255.764 177.308 255.73 177.308 255.577 177.278C255.143 177.184 254.892 177.06 254.892 176.876C254.892 176.813 254.892 176.755 254.926 176.658L254.832 176.565L255.081 175.204Z" fill="#F14825"/>
<path fill-rule="evenodd" clip-rule="evenodd" d="M271.237 169.657C271.703 169.19 272.047 168.941 272.292 168.941C272.356 168.941 272.448 169.004 272.476 169.067L273.069 169.996L273.286 170.246C273.563 170.554 273.593 170.554 274.091 170.709C274.77 170.709 275.019 170.648 275.423 170.274C275.949 169.841 276.293 169.409 276.507 169.004L277.251 167.64L277.435 167.332L277.777 166.433C277.809 166.339 277.871 166.183 277.93 166C277.964 165.813 277.996 165.658 278.024 165.564L278.335 164.54L278.303 164.263L278.395 163.705C278.367 163.456 278.116 163.301 277.747 163.301C277.652 163.301 277.594 163.332 277.56 163.366L277.034 163.674L276.57 163.892C276.507 163.954 276.383 164.079 276.258 164.231H276.168C276.044 164.356 275.949 164.45 275.919 164.48L274.74 165.595L274.244 166.062L273.716 166.619C273.625 166.743 273.531 166.651 272.199 168.353L271.954 168.664L271.671 168.941L271.486 169.19L271.362 169.315C271.299 169.377 271.237 169.468 271.175 169.626L271.237 169.657ZM267.116 176.256L267.212 176.07L267.427 175.356L267.736 174.614C267.766 174.46 267.799 174.367 267.799 174.367L268.759 171.762L268.881 171.544C268.881 171.515 268.881 171.515 268.881 171.484C268.881 171.484 268.881 171.453 268.881 171.42L270 168.819L270.122 168.602L270.402 167.827L270.96 166.557C271.02 166.277 271.05 166.09 271.084 166.062L271.269 165.841L271.362 165.439L271.671 164.792L271.83 164.387L272.416 163.241L272.942 161.937L273.189 161.567L273.346 161.103C273.378 161.103 273.438 161.039 273.935 159.924C273.999 159.771 274.308 159.37 274.338 159.336L274.646 158.654L275.33 157.508C275.391 157.416 275.423 157.321 275.483 157.166C275.61 156.983 275.638 156.858 276.226 156.021L276.383 155.771L276.538 155.557C276.664 155.368 276.664 155.339 276.817 155.277V155.183L277.216 154.873C277.5 154.906 277.528 154.937 277.719 155.308C277.777 155.402 277.871 155.526 278.024 155.678C277.996 155.771 277.964 155.834 277.93 155.865L277.747 156.08C277.719 156.114 277.56 156.578 277.313 156.889L276.787 157.602L276.473 158.128L276.072 158.747L275.979 158.963L275.483 159.8L274.865 161.007C274.77 161.162 274.493 161.784 274.276 162.187L273.906 162.961L273.78 163.18L273.501 163.83L273.314 164.169L273.161 164.605L272.693 165.688L272.476 166.03C272.476 166.062 272.448 166.124 272.448 166.215C272.292 166.495 272.261 166.619 272.231 166.651L272.012 167.02L271.922 167.332L271.611 167.827C271.611 167.858 271.611 167.89 271.611 167.917C271.611 167.982 271.611 168.042 271.611 168.107C271.643 168.136 271.671 168.136 271.671 168.136C271.735 168.136 271.83 168.076 271.922 167.982L272.324 167.516C272.633 167.145 273.005 166.678 273.286 166.433L273.967 165.658C273.999 165.658 274.276 165.378 274.71 164.976L275.764 163.892C275.885 163.799 276.043 163.674 276.632 163.241C277.341 162.712 277.528 162.588 277.622 162.529L278.088 162.155C278.428 162.033 278.675 162.062 278.737 162.062C278.861 162.062 279.05 162.28 279.235 162.529C279.327 162.653 279.546 162.898 279.546 162.898L279.605 163.241L279.697 163.736L279.605 164.387V164.634L279.36 165.253L279.327 165.535C279.078 166.215 278.801 166.803 278.614 167.145L278.395 167.64C278.088 168.107 278.054 168.385 277.777 168.724C277.652 168.913 277.528 169.038 277.528 169.067L277.126 169.716C276.632 170.274 276.692 170.399 275.638 171.111C275.578 171.111 275.515 171.111 275.515 171.142L275.298 171.328L275.047 171.36L274.587 171.484L274.244 171.453L273.906 171.484C273.812 171.484 273.688 171.453 273.531 171.42L273.501 171.544L274.059 173.993L274.368 175.173L274.493 175.633C274.617 176.101 274.836 176.318 275.114 176.318C275.33 176.318 275.827 176.101 276.134 175.823L276.57 175.422L277.377 174.645L278.428 173.436C278.49 173.375 278.584 173.28 278.737 173.157C278.892 172.91 279.761 171.73 279.946 171.671C280.04 171.515 280.071 171.484 280.225 171.391L280.285 171.295L280.472 171.328C280.472 171.453 280.442 171.544 280.412 171.577L280.135 171.92L279.422 172.97C279.388 173.063 279.327 173.157 279.263 173.343C279.203 173.375 279.141 173.405 279.141 173.436L278.926 173.748C278.675 174.056 278.645 174.086 278.55 174.149L278.273 174.582L277.901 175.014L277.47 175.575L276.939 176.135L276.692 176.44L276.044 177.06C275.885 177.249 275.794 177.374 275.764 177.403L275.578 177.527C275.547 177.557 275.515 177.62 275.455 177.679C275.298 177.744 275.206 177.775 275.114 177.804C274.895 177.898 274.71 177.928 274.617 177.928C274.551 177.928 274.523 177.928 274.308 177.775L274.091 177.651C274.091 177.62 274.027 177.527 273.935 177.403L273.75 177.125L273.129 175.356L273.069 174.921L272.633 173.498C272.633 173.28 272.725 173.589 272.384 172.537L272.261 171.762L272.012 171.083C271.888 170.491 271.83 170.399 271.763 170.37L271.581 170.274L271.518 170.087C271.518 170.087 271.486 170.087 271.456 170.087L271.362 169.996C271.334 169.996 271.334 169.996 271.269 169.996H271.237L271.145 169.934C271.117 169.904 271.084 169.904 271.05 169.904C270.96 169.904 270.928 169.934 270.805 170.274L270.59 170.616L270.402 170.959L270.185 171.295C270.185 171.297 270.092 171.671 269.968 171.949C269.936 172.042 270 171.795 269.504 173.187L269.287 173.561L269.192 173.965L268.974 174.367L268.945 174.738L268.698 175.233L268.512 175.945L268.355 176.194L268.202 176.596C268.048 177 268.048 176.966 268.048 177.249L267.891 177.374C267.923 177.468 267.923 177.557 267.923 177.589C267.923 177.775 267.642 177.99 267.395 177.99C267.088 177.99 266.746 177.62 266.746 177.278C266.746 177.249 266.746 177.215 266.746 177.184L266.901 176.938L266.929 176.755C266.929 176.72 266.961 176.69 267.025 176.658C267.025 176.471 267.053 176.318 267.116 176.256Z" fill="#F14825"/>
<path fill-rule="evenodd" clip-rule="evenodd" d="M285.807 166.308L286.55 166.34H286.922C286.982 166.34 287.199 166.308 287.571 166.249L288.563 166.062L289.31 165.841C290.176 165.688 290.33 165.564 290.33 165.008C290.33 163.737 289.712 162.993 288.597 162.993C288.131 162.993 287.942 163.118 287.231 163.985L286.209 165.194C286.086 165.318 285.992 165.47 285.93 165.564C285.775 165.813 285.685 165.966 285.651 166.001C285.526 166.124 285.496 166.155 285.496 166.277C285.685 166.308 285.775 166.308 285.807 166.308ZM284.476 164.294C284.379 164.356 284.317 164.388 284.227 164.416L284.04 164.758L283.763 165.069C283.728 165.1 283.728 165.194 283.728 165.287C283.728 165.564 283.885 165.748 284.1 165.748C284.164 165.748 284.227 165.719 284.259 165.688L285.03 164.665L285.651 163.921C285.685 163.893 285.743 163.768 285.867 163.551C285.096 163.831 284.785 164.014 284.476 164.294ZM282.861 176.63C282.985 176.63 283.202 176.565 283.668 176.382C284.1 176.195 284.536 175.977 284.628 175.918L284.936 175.634L285.124 175.575C285.124 175.575 285.404 175.326 285.775 174.987L286.335 174.461L286.922 173.713C287.107 173.498 287.294 173.281 287.386 173.063L287.854 172.291L288.099 172.042L288.438 171.296L289.244 169.751C289.338 169.561 289.4 169.378 289.463 169.222L289.74 168.293L290.023 167.547L290.051 167.052C290.083 166.989 290.083 166.928 290.083 166.896C290.083 166.803 290.023 166.772 289.927 166.772C289.899 166.772 289.836 166.772 289.774 166.772C289.555 166.803 289.4 166.835 289.338 166.868L287.637 167.332C287.141 167.457 285.867 167.612 285.279 167.612C285.249 167.612 285.217 167.64 285.154 167.612C284.905 167.581 284.721 167.581 284.688 167.581C284.536 167.581 284.476 167.706 284.259 168.17C284.227 168.26 284.134 168.419 284.01 168.631C283.606 169.284 282.925 170.835 282.397 172.228C281.871 173.713 281.621 174.894 281.621 175.918C281.621 176.506 281.84 176.63 282.861 176.63ZM282.551 165.536L282.708 165.253L282.925 165.069C282.985 165.008 283.144 164.634 283.327 164.416L283.546 164.17L283.668 164.014L283.728 163.985C283.763 163.985 283.853 163.893 283.947 163.768L284.351 163.519L285.124 162.993L285.743 162.681C285.962 162.558 286.117 162.464 286.179 162.436L287.231 162.094L288.533 161.35C288.597 161.322 288.691 161.322 288.75 161.322C288.999 161.322 289.121 161.442 289.276 161.784C289.338 161.816 289.368 161.847 289.4 161.847C289.433 161.847 289.463 161.816 289.525 161.751L289.645 161.875C289.712 161.875 289.74 161.875 289.74 161.875C289.864 161.875 290.208 162 290.425 162.156C290.732 162.311 291.196 162.747 291.323 162.932L291.54 163.332L291.602 163.456C291.632 163.488 291.664 163.644 291.696 163.861L291.789 164.45L291.851 164.727C291.851 164.758 291.881 164.792 291.911 164.82L291.941 164.727C292.003 164.758 292.096 164.82 292.128 164.82C292.22 164.82 292.405 164.758 292.53 164.699L293.024 164.388L294.205 163.799C294.355 163.706 294.574 163.583 294.823 163.394L295.103 163.18L295.165 163.241C294.667 163.921 294.454 164.17 294.143 164.356L292.003 165.748L291.758 165.907L291.632 166.495L291.387 167.298V167.487C291.387 167.547 291.323 167.765 291.168 168.076L291.043 168.322L289.463 171.36L288.378 173.004C288.378 173.063 288.131 173.375 287.729 173.841L287.324 174.367C286.645 175.263 285.9 176.008 285.187 176.596L284.598 177.06C284.1 177.468 283.917 177.558 283.451 177.679L282.925 177.838C282.895 177.869 282.833 177.869 282.736 177.869C282.708 177.869 282.642 177.869 282.584 177.869L282.551 177.929L282.272 177.776V177.869C281.529 177.558 281.376 177.496 281.186 177.343L280.85 177.06L280.726 177.001C280.631 176.907 280.569 176.782 280.414 176.382C280.262 175.884 280.262 175.884 280.262 175.759C280.262 175.482 280.32 174.955 280.414 174.367L280.631 173.219C280.726 172.693 280.941 172.073 281.22 171.392L282.057 169.44L282.306 168.82L282.642 168.201C282.8 167.917 282.925 167.706 282.925 167.706L283.234 167.27V167.238C283.234 167.177 283.234 167.115 283.202 167.087L282.489 166.651C282.397 166.586 282.272 166.37 282.272 166.215C282.272 166.09 282.334 165.966 282.431 165.782C282.489 165.627 282.551 165.565 282.551 165.536Z" fill="#F14825"/>
<path fill-rule="evenodd" clip-rule="evenodd" d="M290.329 177.184L290.45 176.938L290.763 176.195C291.04 175.945 291.351 175.139 291.598 174.426L292.155 173.281C292.187 173.219 292.219 173.128 292.247 172.942L292.374 172.91C292.436 172.724 292.466 172.567 292.498 172.474C292.685 171.92 292.868 171.545 292.992 171.36C293.269 170.893 293.269 170.835 293.304 170.586C293.428 170.336 293.456 170.211 293.488 170.153L293.675 169.904L293.8 169.468L293.922 169.346L294.077 168.913L294.543 167.858L294.792 167.177C294.884 167.021 294.945 166.896 294.945 166.803C294.945 166.772 294.914 166.744 294.854 166.678L294.914 166.495L294.667 166.37C294.73 166.031 294.792 165.813 294.854 165.688L295.441 164.416L295.565 164.169L296.122 163.366C296.401 162.931 296.433 162.898 296.806 162.898C296.899 162.898 297.023 162.961 297.084 162.993L297.457 163.394C297.485 163.426 297.578 163.488 297.704 163.583C297.642 163.706 297.61 163.799 297.61 163.83C297.61 163.892 297.642 163.985 297.672 164.079C297.55 164.204 297.457 164.294 297.425 164.356L297.301 164.699L297.148 164.851L295.782 167.917L295.316 168.82L294.479 170.835C294.388 170.959 294.326 171.018 294.326 171.083C294.326 171.142 294.354 171.267 294.418 171.36L296.931 168.447L297.395 167.982C297.395 167.952 297.425 167.89 297.425 167.827C297.61 167.734 297.61 167.734 297.734 167.516C297.734 167.516 297.889 167.332 298.138 167.052C298.17 167.052 298.263 166.928 298.415 166.71C298.634 166.433 299.066 166.001 300.277 164.851C300.801 164.326 301.422 163.799 302.043 163.332C302.32 163.117 302.537 162.993 303.031 162.775C303.467 163.024 303.838 163.456 303.838 163.644C303.838 163.674 303.81 163.799 303.746 163.921L303.623 164.294L303.374 164.634L303.157 165.163C302.442 166.557 302.569 166.308 302.507 166.461L301.948 167.457L301.858 167.705C301.858 167.734 301.824 167.734 301.761 167.765C301.733 167.952 301.699 168.076 301.669 168.107L301.33 168.664L300.896 169.658L300.617 170.121L300.368 170.679L300.183 171.018L299.998 171.609L299.749 172.228C299.655 172.537 299.624 172.662 299.594 172.693L299.44 172.816L299.253 173.561L298.976 174.396L298.851 175.015L298.727 175.326C298.692 175.357 298.692 175.388 298.692 175.45C298.692 175.543 298.759 175.634 298.879 175.634C299.034 175.634 299.16 175.543 299.655 175.108L300.462 174.367L302.507 172.291C302.569 172.198 303.527 171.018 303.561 170.924C303.933 170.37 304.027 170.211 304.117 170.211C304.117 170.211 304.182 170.246 304.212 170.246C304.212 170.648 304.182 170.741 303.903 171.018L303.933 171.083L303.653 171.235C303.653 171.391 303.623 171.484 303.005 172.198L302.818 172.506L302.569 172.724C302.507 172.786 302.476 172.91 302.442 173.095C302.32 173.253 302.229 173.344 302.193 173.375L301.02 174.831L300.679 175.173L300.492 175.481L300.215 175.7C300.121 175.759 299.966 175.945 299.749 176.287C299.655 176.413 299.502 176.565 298.942 177.091C298.759 177.278 298.572 177.468 298.385 177.652C298.323 177.679 298.263 177.776 298.138 177.869C297.361 177.527 297.238 177.403 297.238 176.967C297.238 176.565 297.425 175.575 297.672 174.8L297.734 174.489C297.889 173.966 298.014 173.589 298.074 173.375L299.034 170.865L300.402 167.89C300.554 167.612 300.773 167.177 301.081 166.62C301.364 166.124 301.422 165.938 301.575 165.502C301.482 165.378 301.392 165.318 301.33 165.318C301.235 165.318 301.111 165.412 300.584 165.841L300.243 166.124L299.717 166.678L298.911 167.516L298.447 168.076C298.138 168.385 297.921 168.602 297.889 168.664C297.769 168.941 296.865 169.81 296.806 169.997C296.495 170.274 296.495 170.274 296.154 170.8C296.061 170.959 295.782 171.329 295.348 171.824C295.069 172.167 294.854 172.444 294.667 172.693L291.693 177.374L291.629 177.557L291.383 177.804C291.287 177.962 291.165 178.022 291.072 178.022C290.699 178.022 290.516 177.838 290.546 177.496L290.297 177.374C290.297 177.249 290.297 177.184 290.329 177.184Z" fill="#F14825"/>
<path fill-rule="evenodd" clip-rule="evenodd" d="M306.734 162.498C307.045 162.498 307.604 162.093 308.035 161.63C308.779 160.73 308.779 160.76 309.247 159.8C308.998 159.865 308.903 159.896 308.716 160.017C308.592 159.924 308.501 159.865 308.409 159.831C308.132 159.706 308.007 159.617 308.007 159.554C308.007 159.46 308.066 159.245 308.19 158.997L308.779 157.786L309.122 157.353C309.18 157.201 309.273 157.136 309.341 157.136C309.367 157.136 309.399 157.136 309.429 157.136L309.893 157.353L310.391 157.537C310.548 157.661 310.639 157.945 310.639 158.315C310.639 159.46 309.865 160.885 308.873 161.598L308.501 161.847L308.285 162.033L307.724 162.311C307.664 162.37 307.572 162.404 307.505 162.435C307.355 162.558 307.23 162.622 307.2 162.654L306.858 162.712L306.766 162.775C306.734 162.775 306.704 162.807 306.704 162.807C306.609 162.807 306.517 162.747 306.457 162.654C306.423 162.622 306.395 162.589 306.395 162.558V162.529L306.517 162.435C306.642 162.464 306.704 162.498 306.734 162.498Z" fill="#F14825"/>
<path fill-rule="evenodd" clip-rule="evenodd" d="M309.431 175.574L309.867 175.976C309.93 176.038 310.024 176.101 310.086 176.101C310.361 176.101 310.641 175.51 310.765 174.645C310.765 174.582 310.799 174.46 310.829 174.336L310.675 174.212L310.641 174.336C310.518 174.367 310.428 174.396 310.361 174.426C310.269 174.46 310.211 174.489 310.179 174.489L310.054 174.613C309.992 174.675 309.867 174.706 309.032 174.955C309.062 175.232 309.032 175.232 309.431 175.574ZM306.427 170.8C306.678 170.37 306.768 170.211 306.985 170.087L306.955 169.965C307.138 169.904 307.172 169.841 307.202 169.626C307.481 169.377 307.545 169.315 307.756 168.848C307.855 168.755 307.885 168.724 307.915 168.695L308.224 168.385L310.211 165.564L311.789 163.425C312.595 162.31 312.657 162.217 312.906 161.535C313.151 160.792 313.308 160.484 313.557 160.017L313.806 160.082L314.021 160.329C314.3 160.636 314.455 160.913 314.455 161.072C314.455 161.13 314.455 161.162 314.455 161.162L314.208 161.723L314.021 162.28L313.834 162.775C313.806 162.806 313.772 163.024 313.74 163.332C313.712 163.425 313.679 163.55 313.647 163.736L313.557 163.799C313.557 163.954 313.557 164.079 313.523 164.107L313.402 164.509L313.308 165.224L313.214 165.626L312.844 168.477L312.75 169.467L312.687 169.809L312.595 170.741L312.472 171.92C312.472 172.01 312.472 172.132 312.472 172.322C312.812 172.041 312.999 171.886 313.276 171.577L314.051 170.709C314.268 170.463 314.391 170.305 314.455 170.211L316.624 167.145L317.335 166.03C317.397 165.938 317.492 165.813 317.616 165.657L317.644 165.411L317.833 165.377L317.986 165.595L317.616 166.249L316.311 168.353L315.664 169.25L314.268 171.295L314.145 171.453L312.501 173.343C312.316 173.56 312.255 173.713 312.189 174.056L311.972 175.51L311.761 176.318C311.695 176.506 311.667 176.658 311.635 176.689L311.51 176.907L311.141 177.713C311.107 177.775 310.954 177.928 310.641 178.146C310.552 178.022 310.518 178.022 310.394 178.022C310.211 177.803 310.116 177.744 309.93 177.744C309.775 177.62 309.681 177.526 309.648 177.495L308.813 176.876L308.504 176.63L308.068 176.318L307.823 176.038C307.793 176.038 307.421 175.884 307.11 175.543C306.832 175.421 306.708 175.326 306.646 175.173H306.553C306.334 174.955 306.242 174.893 305.931 174.831C305.903 174.768 305.903 174.706 305.903 174.675C305.903 174.645 305.903 174.582 305.931 174.489C305.965 174.46 306.023 174.336 306.089 174.212C306.242 173.84 306.304 173.748 306.708 173.464C306.736 173.436 306.832 173.343 306.955 173.28C307.08 173.312 307.172 173.343 307.202 173.343L307.451 173.374L308.134 173.748L308.473 173.775L308.843 173.872C308.905 173.872 309.062 173.872 309.217 173.84L309.775 173.748L310.361 173.529C310.829 173.374 310.954 173.28 310.982 173.127L311.571 168.107L311.727 167.114L312.161 164.726C312.161 164.633 312.189 164.539 312.189 164.45C312.189 164.262 312.131 164.231 311.972 164.204L311.601 164.605L309.59 167.269L307.545 170.027L305.931 172.073L305.87 172.01L305.778 172.041L305.684 171.855C306.023 171.419 306.272 171.048 306.427 170.8Z" fill="#F14825"/>
<path fill-rule="evenodd" clip-rule="evenodd" d="M329.135 169.501L329.631 169.409L330.188 169.44C330.188 169.44 330.374 169.409 330.682 169.377C330.776 169.377 331.117 169.346 331.585 169.377H333.658C334.249 169.377 334.62 169.377 334.745 169.409L335.209 169.501L335.675 169.532C335.767 169.532 335.86 169.532 335.86 169.532C335.922 169.532 336.014 169.532 336.109 169.467L336.229 168.913L336.603 166.433L336.912 163.519L336.976 162.529C336.976 162.435 337.008 162.37 337.008 162.37L336.976 162.093L337.067 161.691C337.067 161.629 337.101 161.473 337.101 161.256L337.131 159.771L337.101 159.305C337.101 159.058 337.037 158.903 336.912 158.903C336.884 158.903 336.82 158.934 336.82 158.934L336.354 159.616L334.775 161.691L334.343 162.187L333.813 162.961L333.319 163.487C333.132 163.767 333.01 163.954 332.638 164.387L332.451 164.54L332.142 165.1L331.768 165.535L331.397 166.03C331.27 166.183 331.184 166.276 331.184 166.308L330.993 166.651L330.901 166.743L330.81 166.895C330.437 167.332 330.063 167.917 329.786 168.201L329.384 168.695L329.165 169.038C329.043 169.222 328.98 169.315 328.98 169.377V169.44C329.073 169.467 329.103 169.501 329.135 169.501ZM326.066 170.616C326.034 170.616 326.034 170.616 326.034 170.616L325.17 170.771C325.134 170.771 325.134 170.771 325.134 170.771C325.076 170.771 325.044 170.771 325.044 170.741L324.702 170.463L324.391 170.211C324.363 170.181 324.363 170.152 324.363 170.121C324.363 169.996 324.455 169.841 324.55 169.809L324.765 169.778L325.17 169.716L326.066 169.626L326.902 169.561C327.151 169.501 327.398 169.409 327.492 169.315L328.083 168.602L328.484 168.136L328.98 167.422L329.91 166.155L331.521 163.954C331.891 163.55 332.015 163.241 332.015 163.241L332.204 163.054L333.783 160.913L335.177 158.81C335.392 158.498 335.516 158.283 335.55 158.221L335.735 157.754L335.829 157.601C335.86 157.537 335.894 157.478 335.894 157.353H335.982L335.894 157.042C336.014 156.917 336.076 156.827 336.109 156.796L336.478 156.547L337.037 156.145C337.191 156.051 337.316 156.021 337.44 156.021C337.563 156.021 337.689 156.079 337.904 156.33L338.308 156.64L338.368 156.827L338.559 156.95L338.682 157.201L338.776 157.291L338.71 157.724L338.776 157.972L338.742 158.716C338.742 158.747 338.776 158.841 338.804 158.963L338.742 158.996C338.742 159.121 338.742 159.18 338.742 159.245C338.742 159.429 338.742 159.553 338.742 159.616L338.615 160.979V161.473L338.523 161.91L338.465 162.747L338.398 163.83L338.308 164.169L338.183 165.347L337.814 167.391C337.814 167.487 337.814 167.612 337.814 167.765C337.719 168.508 337.531 169.097 337.563 169.16C337.408 169.626 337.378 169.809 337.378 169.996C337.378 170.121 337.408 170.211 337.44 170.336L337.597 170.865C337.627 170.892 337.627 170.986 337.627 171.142C337.627 171.142 337.627 171.235 337.627 171.295C337.531 171.391 337.503 171.419 337.472 171.515L337.378 171.577C337.316 171.73 337.253 171.795 337.101 171.92C337.067 172.01 337.037 172.104 337.037 172.132C336.976 172.381 336.942 172.567 336.942 172.661C336.942 172.35 336.79 173.623 336.757 173.807L336.54 175.048L336.354 175.793L336.295 176.222L336.229 176.536L336.201 176.754L336.046 177.468C336.046 177.527 336.046 177.651 336.109 177.804C335.829 178.052 335.675 178.115 335.488 178.115C335.363 178.115 335.239 178.086 335.209 178.022L335.056 177.837L334.932 177.713L334.896 177.557L334.807 177.403C334.807 177.374 334.807 177.343 334.807 177.308C334.807 177.249 334.807 177.125 334.839 176.966L334.932 176.412L335.177 175.297C335.177 175.108 335.177 174.955 335.177 174.955L335.271 174.706V174.46L335.428 173.9L335.55 173.218L335.611 172.942L335.703 172.227L335.799 171.671C335.799 171.083 335.271 170.554 334.59 170.463L333.937 170.399L333.257 170.336C333.1 170.305 333.01 170.305 332.853 170.305C332.821 170.305 332.728 170.305 332.668 170.305C332.606 170.305 332.511 170.336 332.481 170.336C332.419 170.336 332.391 170.305 332.357 170.305L332.174 170.274L329.103 170.336C328.39 170.37 328.235 170.399 328.018 170.616C327.741 170.865 327.462 171.174 327.273 171.419L326.809 172.104L326.253 172.844L325.913 173.312L325.757 173.561L325.54 173.807L325.2 174.336C325.2 174.336 325.134 174.426 325.01 174.582C324.921 174.706 324.734 174.955 324.515 175.326L322.72 178.239L322.563 178.517C322.533 178.55 322.505 178.55 322.471 178.55C322.443 178.55 322.411 178.517 322.346 178.488C321.912 178.457 321.758 178.299 321.758 177.869C321.758 177.744 321.792 177.557 321.85 177.468C321.975 177.156 322.131 176.876 322.688 176.008C322.907 175.699 323.126 175.388 323.343 175.108L324.268 173.807L324.582 173.375L324.765 173.063L325.076 172.693C325.076 172.693 325.108 172.627 325.134 172.537C325.17 172.474 325.295 172.257 325.757 171.637C325.913 171.453 326.066 171.266 326.221 171.048C326.253 171.018 326.315 170.924 326.408 170.8C326.285 170.679 326.158 170.616 326.066 170.616Z" fill="#F14825"/>
<path fill-rule="evenodd" clip-rule="evenodd" d="M345.58 159.616L345.61 159.553H345.704C345.766 159.429 345.797 159.429 345.887 159.399C346.011 159.522 346.076 159.581 346.136 159.616L346.417 159.705C346.477 159.739 346.54 159.831 346.664 159.986C346.725 160.048 346.789 160.142 346.913 160.235C346.696 160.701 346.604 160.823 346.106 161.504C346.046 161.661 345.983 161.815 345.674 162.217L345.393 162.404L345.021 162.806H344.989C344.839 162.806 344.714 162.712 344.495 162.463C344.495 162.435 344.465 162.435 344.465 162.404C344.278 162.217 344.248 162.155 344.248 162.061C344.248 161.937 344.278 161.815 344.308 161.722L344.961 160.511L345.084 160.235L345.333 159.923C345.365 159.865 345.427 159.77 345.457 159.616H345.58ZM339.132 175.633C339.102 175.574 339.102 175.51 339.102 175.51L339.166 175.107L339.132 174.954L339.227 174.55L339.291 174.273L339.412 173.93L339.446 173.588C339.446 173.56 339.474 173.497 339.51 173.405L339.63 172.91C339.721 172.723 339.755 172.536 339.785 172.444C339.97 171.795 340.094 171.36 340.094 171.36C340.281 170.923 340.498 170.305 340.653 169.965L340.717 169.684L340.842 169.408L340.964 169.097C340.964 169.066 340.994 169.038 341.024 169.038C341.057 168.819 341.087 168.695 341.271 168.477C341.336 168.322 341.396 168.201 341.426 168.136L341.49 167.889C341.613 167.612 341.707 167.363 341.832 167.237C341.956 167.051 342.049 166.927 342.049 166.895C342.109 166.771 342.481 165.937 342.511 165.906L343.163 164.851L343.316 164.48L343.533 164.294L343.597 164.138C343.658 164.045 343.752 163.954 343.814 163.954C343.814 163.954 343.814 163.954 343.846 163.954C343.939 163.984 344.001 163.984 344.001 163.984L344.278 163.954L344.435 164.169L344.68 164.48C344.714 164.508 344.772 164.604 344.804 164.757L344.714 164.819C344.68 165.037 344.652 165.224 344.589 165.286L344.403 165.626L344.342 165.813L344.278 165.906C344.154 166.123 343.222 167.145 343.039 167.516L342.886 167.951L342.388 168.941L341.956 169.934C341.862 170.058 341.832 170.121 341.832 170.18C341.832 170.211 341.832 170.245 341.862 170.273C341.737 170.491 341.707 170.585 341.707 170.616L341.243 171.886L341.177 172.166C341.177 172.166 341.149 172.227 341.087 172.256L341.119 172.381L341.056 172.415C341.024 172.567 340.994 172.692 340.964 172.785L340.842 173.035L340.745 173.497L340.623 173.93L340.558 174.302L340.434 174.862L340.406 175.232C340.406 175.296 340.374 175.387 340.339 175.51C340.406 175.759 340.498 175.883 340.683 175.883C340.842 175.883 340.93 175.823 341.396 175.356L342.081 174.675C342.264 174.519 342.42 174.335 342.545 174.149C342.669 173.965 342.76 173.872 342.822 173.84C343.348 173.435 343.348 173.252 343.471 173.187L343.72 172.91L344.342 172.256L344.555 171.949L344.961 171.391C345.021 171.266 345.057 171.203 345.057 171.174L345.27 170.923L345.457 170.585L345.797 170.211C345.829 170.152 345.887 170.058 345.923 169.965C346.106 169.965 346.17 169.996 346.295 170.18L346.011 170.708L344.342 173.156C344.061 173.56 343.846 173.84 343.69 174.024L343.133 174.582L342.728 175.079L342.42 175.387C342.326 175.51 342.171 175.699 341.984 175.917C341.737 176.194 341.555 176.412 341.396 176.506C341.243 176.629 341.119 176.72 341.087 176.754L341.024 176.906C340.964 176.966 340.842 177.031 340.653 177.125C340.558 177.343 340.558 177.343 339.912 177.62C339.291 177.526 339.008 177.343 339.008 176.966V176.038C339.008 175.976 339.042 175.852 339.042 175.699L339.132 175.633Z" fill="#F14825"/>
<path fill-rule="evenodd" clip-rule="evenodd" d="M346.513 172.627C346.603 172.291 346.698 172.073 346.728 171.979L347.131 171.111L347.565 169.966L348.897 166.835L349.144 166.277L349.361 165.938L349.52 165.44L349.891 164.758C349.953 164.699 349.98 164.605 349.98 164.54C350.046 164.388 350.074 164.388 350.353 163.674L351.006 162.622C351.066 162.529 351.128 162.342 351.189 162.062C351.502 161.91 351.689 161.847 351.781 161.847C351.936 161.847 352.093 162 352.368 162.371C352.398 162.436 352.492 162.529 352.554 162.622L352.524 162.932C352.368 163.024 352.275 163.084 352.243 163.149L351.998 163.584L351.596 164.17C351.53 164.263 351.408 164.48 351.253 164.82L348.807 170.121C348.772 170.153 348.772 170.181 348.772 170.181C348.772 170.212 348.835 170.246 348.959 170.274L351.625 166.495L352.275 165.658L353.237 164.48L354.071 163.584C354.29 163.301 354.444 163.118 354.539 163.084C354.816 162.837 354.85 162.747 355.157 162.558C355.157 162.558 355.344 162.404 355.621 162.187C355.714 162.094 355.81 162.062 355.901 162.062C356.025 162.062 356.272 162.125 356.523 162.28C356.616 162.311 356.676 162.342 356.676 162.342L357.17 162.932L357.419 163.208L357.638 163.584C357.887 164.014 357.857 163.893 357.887 164.388C357.887 164.45 357.915 164.54 357.915 164.665H357.451C357.389 164.54 357.359 164.48 357.327 164.48L356.925 164.326C356.861 164.294 356.768 164.204 356.551 164.079C356.459 163.831 356.337 163.768 356.025 163.768C355.933 163.768 355.84 163.768 355.778 163.831L355.374 164.014L355.097 164.108L354.663 164.48L354.507 164.54L354.32 164.792C354.32 164.82 354.195 164.917 354.011 165.038C353.918 165.1 353.766 165.225 353.607 165.412C353.422 165.596 353.3 165.748 353.175 165.875C352.804 166.249 352.587 166.495 352.492 166.586L352.185 167.021L351.625 167.797C351.596 167.917 351.874 167.581 350.572 169.409L350.291 169.751L350.168 170.027L349.769 170.523L349.455 170.987C349.333 171.111 349.269 171.236 349.269 171.296C349.269 171.297 349.269 171.296 349.269 171.329C349.144 171.484 349.084 171.578 349.054 171.609L348.835 172.011L348.373 172.754L348.122 173.281L347.877 173.748L347.599 174.461C347.381 174.921 347.381 174.921 347.35 175.205C347.256 175.297 347.192 175.388 347.192 175.422L347.101 175.728L346.886 176.413C346.852 176.755 346.886 176.72 346.79 176.845C346.852 177.06 346.886 177.184 346.886 177.278C346.886 177.589 346.451 177.929 346.049 177.929C345.952 177.929 345.832 177.869 345.738 177.804L345.428 177.589C345.211 177.403 345.087 177.278 345.055 177.215L345.119 176.814L346.202 173.375C346.296 173.095 346.451 172.724 346.513 172.627Z" fill="#F14825"/>
<path fill-rule="evenodd" clip-rule="evenodd" d="M355.818 174.025L355.846 173.993C355.909 173.841 355.939 173.683 355.939 173.624C356.001 173.406 356.029 173.253 356.063 173.187L356.158 172.911L356.312 172.35L357.519 169.284L358.542 166.869C358.759 166.37 358.913 166.062 358.947 165.966L359.407 165.1L359.721 164.388L360.122 163.706C360.279 163.456 360.404 163.18 360.528 162.807C360.619 162.558 360.773 162.529 360.773 162.342C360.773 162.28 360.835 162.125 360.93 161.969L361.271 161.35L361.548 160.98L361.701 160.577L363.376 157.913C363.531 157.755 363.78 157.167 363.997 156.984C364.184 156.828 364.617 156.299 364.867 155.897H364.957C365.58 155.122 366.074 154.781 366.508 154.781C366.694 154.781 366.911 154.873 367.002 154.997L367.345 155.492C367.715 156.08 367.749 156.114 367.749 156.516C367.749 156.7 367.715 156.858 367.684 157.011C367.626 157.353 367.558 157.571 367.558 157.602C367.558 157.786 367.532 157.82 367.437 157.913C367.315 158.347 367.253 158.561 367.188 158.654L366.941 159.059C366.941 159.122 366.877 159.212 366.815 159.37C366.662 159.771 365.545 161.257 365.202 161.691C364.957 162 364.925 162.249 364.184 163.084L363.688 163.613L363.469 163.921L363.344 164.014L362.975 164.509C362.882 164.605 362.788 164.699 362.573 164.851L362.48 165.069C362.012 165.47 361.673 165.842 361.456 166.124C361.175 166.495 361.115 166.557 360.773 166.679L360.681 166.37L361.115 165.907C361.239 165.719 361.239 165.719 361.548 165.412L362.199 164.574L363.037 163.551L364.151 161.938C364.338 161.661 364.493 161.443 364.525 161.381L364.65 161.131L365.296 160.083L365.64 159.399L365.827 159.027C366.106 158.499 366.321 157.724 366.321 157.291C366.321 157.076 366.166 156.89 365.951 156.89C365.732 156.89 365.64 156.951 365.202 157.385C364.957 157.602 364.65 157.945 364.617 158.004L364.184 158.624L364.089 158.747L363.84 159.152L363.469 159.648C363.469 159.679 363.376 159.8 363.286 160.049C363.224 160.205 363.193 160.236 363.037 160.267L363.067 160.388L362.944 160.512L362.975 160.637C362.822 160.823 362.725 160.947 362.725 160.98L362.043 162.218C361.299 163.737 361.518 163.301 361.424 163.426L360.404 165.719L360.185 166.09L360.155 166.34L359.936 166.71L359.843 166.962C359.843 166.989 359.815 167.052 359.749 167.087C359.749 167.27 359.255 168.354 359.255 168.447C359.194 168.571 359.13 168.631 359.13 168.631L358.698 169.751C358.666 169.779 358.634 169.873 358.576 170.027L357.614 172.845C357.397 173.498 357.272 173.901 357.242 173.966L357.15 174.676L356.959 175.263C356.931 175.357 356.931 175.482 356.931 175.575C356.931 175.884 357.053 176.101 357.272 176.101C357.302 176.101 357.333 176.07 357.397 176.039L357.674 175.853L357.863 175.793L358.108 175.606L358.293 175.511L358.698 175.139L359.102 174.831C359.285 174.614 359.815 173.993 359.749 174.056L360.092 173.748L360.462 173.281L360.773 172.942L362.354 170.835L362.48 170.709C362.633 170.835 362.697 170.924 362.697 171.018C362.697 171.049 362.663 171.083 362.663 171.083L361.271 173.004L360.681 173.873C360.434 174.212 360.217 174.426 360.122 174.551L359.843 174.768L358.947 175.853C358.542 176.287 358.14 176.63 357.829 176.845C357.706 177.06 357.614 177.125 357.552 177.184C357.116 177.558 357.178 177.527 356.465 177.869L356.407 177.744C356.248 177.804 356.125 177.838 356.029 177.838C355.971 177.838 355.818 177.804 355.627 177.714L355.599 177.62C355.535 177.558 355.475 177.527 355.475 177.527L355.445 177.403L355.32 177.249C355.258 177.184 355.258 177.092 355.258 176.939C355.258 176.287 355.288 175.918 355.382 175.575L355.445 175.357L355.627 174.614C355.66 174.489 355.722 174.336 355.818 174.118V174.025Z" fill="#F14825"/>
<path fill-rule="evenodd" clip-rule="evenodd" d="M368.677 159.616L368.707 159.553H368.802C368.866 159.429 368.894 159.429 368.989 159.399C369.111 159.522 369.175 159.581 369.236 159.616L369.515 159.705C369.579 159.739 369.639 159.831 369.764 159.986C369.824 160.048 369.888 160.142 370.009 160.235C369.794 160.701 369.702 160.823 369.205 161.504C369.143 161.661 369.081 161.815 368.774 162.217L368.492 162.404L368.123 162.806H368.089C367.936 162.806 367.812 162.712 367.593 162.463C367.593 162.435 367.56 162.435 367.56 162.404C367.376 162.217 367.344 162.155 367.344 162.061C367.344 161.937 367.376 161.815 367.41 161.722L368.057 160.511L368.181 160.235L368.43 159.923C368.462 159.865 368.525 159.77 368.555 159.616H368.677ZM362.234 175.633C362.202 175.574 362.202 175.51 362.202 175.51L362.264 175.107L362.234 174.954L362.326 174.55L362.389 174.273L362.511 173.93L362.541 173.588C362.541 173.56 362.575 173.497 362.605 173.405L362.728 172.91C362.82 172.723 362.853 172.536 362.885 172.444C363.069 171.795 363.196 171.36 363.196 171.36C363.379 170.923 363.596 170.305 363.748 169.965L363.815 169.684L363.935 169.408L364.06 169.097C364.06 169.066 364.092 169.038 364.124 169.038C364.154 168.819 364.186 168.695 364.371 168.477C364.433 168.322 364.495 168.201 364.528 168.136L364.586 167.889C364.71 167.612 364.803 167.363 364.927 167.237C365.052 167.051 365.146 166.927 365.146 166.895C365.204 166.771 365.58 165.937 365.61 165.906L366.261 164.851L366.414 164.48L366.633 164.294L366.697 164.138C366.755 164.045 366.849 163.954 366.914 163.954C366.914 163.954 366.914 163.954 366.944 163.954C367.036 163.984 367.099 163.984 367.099 163.984L367.376 163.954L367.534 164.169L367.779 164.48C367.812 164.508 367.872 164.604 367.904 164.757L367.812 164.819C367.779 165.037 367.745 165.224 367.687 165.286L367.5 165.626L367.438 165.813L367.376 165.906C367.251 166.123 366.323 167.145 366.136 167.516L365.984 167.951L365.488 168.941L365.052 169.934C364.959 170.058 364.927 170.121 364.927 170.18C364.927 170.211 364.927 170.245 364.959 170.273C364.835 170.491 364.803 170.585 364.803 170.616L364.341 171.886L364.279 172.166C364.279 172.166 364.25 172.227 364.186 172.256L364.216 172.381L364.154 172.415C364.124 172.567 364.092 172.692 364.06 172.785L363.935 173.035L363.843 173.497L363.72 173.93L363.658 174.302L363.533 174.862L363.503 175.232C363.503 175.296 363.471 175.387 363.441 175.51C363.503 175.759 363.596 175.883 363.782 175.883C363.935 175.883 364.032 175.823 364.495 175.356L365.174 174.675C365.363 174.519 365.518 174.335 365.642 174.149C365.767 173.965 365.859 173.872 365.92 173.84C366.448 173.435 366.448 173.252 366.572 173.187L366.817 172.91L367.438 172.256L367.655 171.949L368.057 171.391C368.123 171.266 368.153 171.203 368.153 171.174L368.368 170.923L368.555 170.585L368.894 170.211C368.926 170.152 368.989 170.058 369.019 169.965C369.205 169.965 369.268 169.996 369.392 170.18L369.111 170.708L367.438 173.156C367.161 173.56 366.944 173.84 366.789 174.024L366.231 174.582L365.829 175.079L365.518 175.387C365.423 175.51 365.271 175.699 365.082 175.917C364.835 176.194 364.652 176.412 364.495 176.506C364.341 176.629 364.216 176.72 364.186 176.754L364.124 176.906C364.06 176.966 363.935 177.031 363.748 177.125C363.658 177.343 363.658 177.343 363.009 177.62C362.389 177.526 362.109 177.343 362.109 176.966V176.038C362.109 175.976 362.14 175.852 362.14 175.699L362.234 175.633Z" fill="#F14825"/>
<path fill-rule="evenodd" clip-rule="evenodd" d="M367.593 177.184L367.715 176.938L368.024 176.195C368.306 175.945 368.617 175.139 368.864 174.426L369.42 173.281C369.455 173.219 369.483 173.128 369.513 172.942L369.639 172.91C369.7 172.724 369.732 172.567 369.762 172.474C369.949 171.92 370.133 171.545 370.258 171.36C370.537 170.893 370.537 170.835 370.569 170.586C370.692 170.336 370.722 170.211 370.752 170.153L370.941 169.904L371.063 169.468L371.188 169.346L371.341 168.913L371.809 167.858L372.054 167.177C372.148 167.021 372.212 166.896 372.212 166.803C372.212 166.772 372.178 166.744 372.118 166.678L372.178 166.495L371.929 166.37C371.995 166.031 372.054 165.813 372.118 165.688L372.708 164.416L372.831 164.169L373.387 163.366C373.668 162.931 373.697 162.898 374.07 162.898C374.164 162.898 374.285 162.961 374.347 162.993L374.717 163.394C374.753 163.426 374.843 163.488 374.966 163.583C374.904 163.706 374.878 163.799 374.878 163.83C374.878 163.892 374.904 163.985 374.936 164.079C374.813 164.204 374.717 164.294 374.691 164.356L374.566 164.699L374.412 164.851L373.046 167.917L372.582 168.82L371.744 170.835C371.652 170.959 371.59 171.018 371.59 171.083C371.59 171.142 371.622 171.267 371.684 171.36L374.193 168.447L374.661 167.982C374.661 167.952 374.691 167.89 374.691 167.827C374.878 167.734 374.878 167.734 375.002 167.516C375.002 167.516 375.155 167.332 375.402 167.052C375.432 167.052 375.524 166.928 375.681 166.71C375.898 166.433 376.334 166.001 377.541 164.851C378.067 164.326 378.688 163.799 379.306 163.332C379.587 163.117 379.802 162.993 380.298 162.775C380.732 163.024 381.104 163.456 381.104 163.644C381.104 163.674 381.074 163.799 381.01 163.921L380.885 164.294L380.638 164.634L380.423 165.163C379.712 166.557 379.835 166.308 379.77 166.461L379.216 167.457L379.122 167.705C379.122 167.734 379.091 167.734 379.027 167.765C378.999 167.952 378.963 168.076 378.933 168.107L378.593 168.664L378.161 169.658L377.884 170.121L377.633 170.679L377.448 171.018L377.258 171.609L377.013 172.228C376.922 172.537 376.888 172.662 376.858 172.693L376.703 172.816L376.518 173.561L376.241 174.396L376.117 175.015L375.99 175.326C375.96 175.357 375.96 175.388 375.96 175.45C375.96 175.543 376.022 175.634 376.147 175.634C376.3 175.634 376.424 175.543 376.922 175.108L377.726 174.367L379.77 172.291C379.835 172.198 380.795 171.018 380.825 170.924C381.196 170.37 381.289 170.211 381.385 170.211C381.385 170.211 381.445 170.246 381.477 170.246C381.477 170.648 381.445 170.741 381.168 171.018L381.196 171.083L380.919 171.235C380.919 171.391 380.885 171.484 380.266 172.198L380.082 172.506L379.835 172.724C379.77 172.786 379.742 172.91 379.712 173.095C379.587 173.253 379.493 173.344 379.463 173.375L378.286 174.831L377.943 175.173L377.76 175.481L377.477 175.7C377.384 175.759 377.231 175.945 377.013 176.287C376.922 176.413 376.764 176.565 376.209 177.091C376.022 177.278 375.84 177.468 375.649 177.652C375.589 177.679 375.524 177.776 375.402 177.869C374.628 177.527 374.504 177.403 374.504 176.967C374.504 176.565 374.691 175.575 374.936 174.8L375.002 174.489C375.155 173.966 375.277 173.589 375.337 173.375L376.3 170.865L377.665 167.89C377.818 167.612 378.037 167.177 378.344 166.62C378.625 166.124 378.688 165.938 378.84 165.502C378.75 165.378 378.656 165.318 378.593 165.318C378.503 165.318 378.378 165.412 377.85 165.841L377.507 166.124L376.98 166.678L376.175 167.516L375.715 168.076C375.402 168.385 375.185 168.602 375.155 168.664C375.03 168.941 374.13 169.81 374.07 169.997C373.759 170.274 373.759 170.274 373.419 170.8C373.327 170.959 373.046 171.329 372.614 171.824C372.337 172.167 372.118 172.444 371.929 172.693L368.956 177.374L368.894 177.557L368.645 177.804C368.553 177.962 368.43 178.022 368.334 178.022C367.964 178.022 367.779 177.838 367.81 177.496L367.562 177.374C367.562 177.249 367.563 177.184 367.593 177.184Z" fill="#F14825"/>
<path fill-rule="evenodd" clip-rule="evenodd" d="M388.615 161.969L389.117 161.723L389.487 161.662C389.577 161.63 389.669 161.599 389.732 161.599C389.981 161.599 390.107 161.751 390.166 162.062C390.569 162.249 390.694 162.342 390.726 162.499L390.818 162.713L391.19 163.242C391.22 163.333 391.252 163.426 391.252 163.519C391.252 163.551 391.252 163.613 391.252 163.644L391.19 163.893L391.128 164.295C391.096 164.481 391.003 164.665 390.85 164.82L390.539 165.194L390.352 165.471L389.732 166.09C389.611 166.371 389.611 166.371 389.392 166.402C389.205 166.744 389.143 166.869 389.051 166.928L388.834 167.115C388.615 167.299 388.492 167.364 388.338 167.423C388.338 167.488 388.338 167.517 388.093 167.672L387.783 167.918C387.625 168.011 387.534 168.107 387.534 168.107L387.161 168.447L387.036 168.571L386.48 168.88L386.201 169.129L385.735 169.316C385.673 169.346 385.614 169.409 385.548 169.533C385.423 169.533 385.331 169.561 385.303 169.593L385.054 169.81L384.835 169.841C384.807 169.873 384.777 169.904 384.743 169.997C384.528 170.122 384.465 170.153 384.311 170.246C384.092 170.306 384.034 170.337 383.999 170.337H383.69C383.628 170.337 383.535 170.37 383.411 170.399C383.351 170.306 383.321 170.246 383.321 170.181C383.321 170.153 383.321 170.122 383.351 170.059C383.566 169.935 383.722 169.873 383.845 169.81C384.371 169.533 384.743 169.346 384.777 169.316L385.735 168.665L386.074 168.478C386.108 168.447 386.355 168.26 386.729 167.952L387.442 167.392L387.874 166.928C388.213 166.62 388.4 166.402 388.432 166.371L388.926 165.814C389.083 165.658 389.238 165.44 389.392 165.163L389.764 164.509L389.826 164.263C389.888 164.108 389.919 164.014 389.919 164.014L389.856 163.706C389.856 163.706 389.856 163.675 389.919 163.613C389.702 163.366 389.545 163.301 389.3 163.301C388.866 163.301 388.492 163.426 387.904 163.831C387.5 164.108 386.946 164.54 386.757 164.758L386.323 165.253L385.209 166.495L384.929 166.928C384.899 166.99 384.835 167.052 384.743 167.146C384.743 167.208 384.712 167.27 384.712 167.27L384.59 167.457C384.465 167.641 384.034 168.323 384.158 168.17C384.122 168.17 384.034 168.385 383.873 168.665C383.722 168.913 383.628 169.098 383.628 169.129C383.566 169.316 383.503 169.441 383.473 169.441L383.254 169.685L383.196 169.935L383.009 170.246L382.947 170.464L382.758 170.893C382.698 171.084 382.666 171.112 382.573 171.174C382.573 171.204 382.608 171.236 382.608 171.267C382.608 171.296 382.543 171.454 382.449 171.637L382.266 172.167L382.019 172.97C381.893 173.253 381.86 173.253 381.86 173.436C381.86 173.465 381.828 173.561 381.8 173.655C381.77 173.713 381.736 173.841 381.708 173.993C381.645 174.243 381.645 174.368 381.553 174.739C381.521 174.769 381.521 174.922 381.521 175.139C381.521 175.139 381.489 175.45 381.459 175.824C381.459 175.853 381.459 175.918 381.459 175.918C381.459 176.039 381.489 176.135 381.521 176.164L381.708 176.319L381.86 176.472C381.892 176.472 381.955 176.472 382.047 176.472C382.608 176.472 383.037 176.288 383.939 175.634L384.371 175.326L385.365 174.551L385.859 174.15C385.952 174.087 386.074 173.993 386.293 173.776C386.574 173.436 386.663 173.498 387.625 172.475L387.812 172.322C387.874 172.257 387.936 172.167 388.031 172.042L388.245 171.825C388.278 171.731 388.31 171.703 388.31 171.703L388.587 171.454L388.711 171.267C388.74 171.174 388.834 171.084 388.958 170.987C388.991 171.049 388.991 171.049 389.083 171.049C388.926 171.36 388.866 171.454 388.679 171.637C388.213 172.198 387.904 172.568 387.904 172.568L387.783 172.786L387.255 173.344L387.131 173.53L386.323 174.303L385.548 175.108L384.528 176.008C384.465 176.039 384.403 176.135 384.279 176.222C384.092 176.382 384.034 176.413 383.845 176.536C383.66 176.659 383.503 176.755 383.443 176.814L383.226 177.001L382.79 177.279C382.758 177.309 382.732 177.344 382.698 177.433C382.666 177.433 382.636 177.403 382.636 177.403C382.608 177.403 382.573 177.433 382.543 177.496C382.389 177.527 382.266 177.558 382.202 177.589L381.955 177.679C381.8 177.745 381.645 177.776 381.489 177.776C380.621 177.776 380.125 177.06 380.125 175.824C380.125 175.511 380.157 175.233 380.157 175.139L380.372 174.243L380.497 173.53L381.057 171.825C381.089 171.672 381.089 171.578 381.115 171.578L381.364 171.018L382.296 169.004C382.608 168.323 383.503 166.835 383.969 166.215C384.034 166.156 384.341 165.748 384.807 165.194C385.086 164.883 385.237 164.665 385.273 164.634L386.169 163.737L386.729 163.208C386.882 163.084 387.068 162.961 387.255 162.838C387.749 162.499 388.061 162.311 388.093 162.311C388.245 162.218 388.245 162.218 388.31 162.062C388.492 162.033 388.587 162 388.615 161.969Z" fill="#F14825"/>
</svg>
