<svg width="480" height="320" viewBox="0 0 480 320" fill="none" xmlns="http://www.w3.org/2000/svg">
<path d="M80.8024 170.13C80.8024 168.534 81.6619 168.288 83.1354 169.148C85.8368 170.621 88.7838 172.218 88.7838 172.218C88.9066 171.358 89.6433 170.621 91.2396 170.99C92.7131 171.358 94.4321 171.726 94.4321 171.726C94.4321 171.726 93.5726 169.639 93.0814 168.779C92.3447 167.06 93.0814 166.324 93.8182 166.078C93.8182 166.078 92.8358 165.341 92.0991 164.85C90.6256 163.868 90.994 162.763 92.3447 162.149C94.3093 161.289 96.7651 160.184 96.7651 160.184C96.0284 159.693 95.0461 158.465 96.1512 156.992C97.1335 155.518 98.607 153.553 98.607 153.553H94.1865C92.5903 153.553 92.2219 152.203 92.2219 151.343C92.2219 151.343 89.6433 153.185 87.8014 154.413C86.2052 155.518 84.8545 154.413 85.1 152.571C85.4684 149.747 85.8368 146.554 85.8368 146.554C84.8545 147.168 83.2582 147.168 82.5214 145.572C81.2935 143.485 79.9429 140.66 79.9429 140.66C79.9429 140.66 78.7149 143.362 77.6098 145.695C76.8731 147.291 75.154 147.291 74.2945 146.677C74.2945 146.677 74.6629 149.87 75.0312 152.694C75.2768 154.536 73.8033 155.518 72.3298 154.536C70.488 153.308 67.9094 151.466 67.9094 151.466C67.9094 152.325 67.541 153.676 65.9447 153.676H61.5243C61.5243 153.676 62.9978 155.764 63.9801 157.114C64.9624 158.588 64.1029 159.816 63.3661 160.307C63.3661 160.307 65.822 161.412 67.7866 162.272C69.2601 162.885 69.6285 163.868 68.0322 164.973C67.2954 165.464 66.3131 166.201 66.3131 166.201C67.0499 166.446 67.7866 167.183 67.0499 168.902C66.6815 169.762 65.6992 171.849 65.6992 171.849C65.6992 171.849 67.4182 171.481 68.8917 171.112C70.488 170.744 71.3475 171.481 71.3475 172.34C71.3475 172.34 74.1717 170.744 76.8731 169.271C78.3466 168.411 79.2061 168.779 79.2061 170.253V173.937C79.2061 176.147 78.8377 178.603 77.9782 179.831C67.4182 178.725 58.7001 170.376 58.7001 159.325C58.7001 147.905 68.2778 138.573 79.9429 138.573C91.7307 138.573 101.186 147.782 101.186 159.202C101.186 169.885 92.9586 178.603 82.2759 179.708V182.532C94.8005 181.427 104.501 171.358 104.501 159.202C104.624 146.309 93.5726 135.872 79.9429 135.872C66.4359 135.872 55.3848 146.309 55.3848 159.325C55.3848 170.744 63.8573 180.199 75.2768 182.286C77.2415 182.655 78.3466 182.9 79.4517 184.128C80.6796 181.918 80.9252 177.252 80.9252 174.551V170.13H80.8024Z" fill="#D82F2E"/>
<path d="M180.139 171.849V146.8H192.296C198.803 146.8 201.75 149.501 201.873 153.062C201.996 154.659 201.628 156.255 200.522 157.483C199.417 158.711 198.926 159.202 196.839 160.184L206.048 171.849H199.172L191.068 161.535H185.542V171.849H180.139ZM185.665 158.097H188.121C194.874 158.097 196.225 156.992 196.225 153.676C196.225 150.484 193.278 149.993 188.857 149.993H185.542V158.097H185.665ZM125.252 171.849L136.18 146.8H142.811L153.617 171.849H146.863L143.916 165.096H132.374L129.427 171.849H125.252ZM133.847 161.78H142.565L138.268 151.834L133.847 161.78ZM161.475 146.8H167.369V171.849H161.475V146.8ZM248.165 170.99C245.341 172.095 241.903 172.586 237.851 172.586C232.939 172.586 229.01 171.358 226.308 169.025C223.484 166.692 222.134 163.377 222.134 159.202C222.134 154.904 223.484 151.712 226.308 149.379C229.133 147.046 233.062 145.94 238.219 145.94C241.534 145.94 244.85 146.309 248.042 146.923V150.975C244.359 149.87 240.921 149.379 238.465 149.379C235.272 149.379 232.816 150.238 231.097 151.834C229.378 153.553 228.519 155.886 228.519 159.079C228.519 162.149 229.378 164.482 231.343 166.201C233.185 167.92 235.763 168.779 239.079 168.779C242.026 168.779 245.341 168.165 248.288 166.938V170.99H248.165ZM255.287 171.849L266.215 146.8H272.846L283.652 171.849H276.898L273.951 165.096H262.409L259.462 171.849H255.287ZM263.882 161.78H272.6L268.303 151.834L263.882 161.78ZM327.611 171.849L338.539 146.8H345.17L355.975 171.849H349.222L346.275 165.096H334.732L331.785 171.849H327.611ZM336.206 161.78H344.924L340.626 151.834L336.206 161.78ZM396.25 171.849L407.179 146.8H413.809L424.615 171.849H417.862L414.915 165.096H403.372L400.425 171.849H396.25ZM404.846 161.78H413.564L409.266 151.834L404.846 161.78ZM298.755 146.8L314.472 164.605V146.8H319.261V171.849H313.121L296.79 153.062V171.849H292.001V146.8H298.755ZM364.325 171.849V146.8H376.481C380.779 146.8 384.094 147.905 386.427 149.87C388.76 151.957 389.865 154.904 389.865 158.711C389.865 162.886 388.637 166.078 386.182 168.288C383.726 170.621 380.288 171.726 375.867 171.726H364.325V171.849ZM370.096 168.288H374.394C377.463 168.288 379.674 167.552 381.27 166.078C382.743 164.605 383.48 162.272 383.603 159.202C383.603 156.869 382.989 154.781 381.761 153.185C380.902 152.08 379.919 151.343 378.814 150.852C377.586 150.484 375.99 150.238 373.657 150.238H370.096V168.288Z" fill="black"/>
</svg>
