<svg width="480" height="320" viewBox="0 0 480 320" fill="none" xmlns="http://www.w3.org/2000/svg">
<path d="M75.8482 191.685C75.8482 192.784 76.2779 193.443 77.3517 193.388H84.9788C85.4621 193.388 85.8381 193.333 86.0529 192.948L86.3214 191.905C86.7511 190.807 85.516 190.971 84.7103 190.257C83.475 189.763 82.9917 189.324 82.9917 187.347V171.365C82.9917 167.796 81.5415 167.466 79.8761 166.752C77.5669 165.873 74.9889 165.269 71.3903 165.269C61.991 165.269 55.3848 172.628 55.3848 181.305C55.3848 187.896 59.3057 194.047 65.7507 194.047C69.7793 194.047 74.022 190.971 75.7406 186.907H75.8482V191.685ZM70.7455 168.125C75.1494 168.125 75.8479 172.024 75.8479 176.692C75.8479 184.491 71.39 189.434 68.2211 189.434C64.891 189.434 62.9572 185.15 62.9572 179.823C62.9572 174.221 65.7504 168.125 70.7455 168.125ZM92.9765 187.511C92.9765 189.598 91.5799 190.477 90.2373 190.752C89.8612 190.862 89.4316 190.917 89.2168 191.521L88.8943 192.454C88.6262 193.278 89.1631 193.388 89.5928 193.388H102.805C103.289 193.388 103.557 193.223 103.718 192.948L104.148 191.85C104.363 191.411 104.255 190.971 103.557 190.862C100.926 190.257 100.12 189.873 100.12 187.511V165.928H90.2373C89.9149 165.928 89.5924 165.928 89.4316 166.367L88.9483 167.466C88.6259 168.125 89.1631 168.345 89.7 168.509C92.1708 169.058 92.9765 169.443 92.9765 171.805V187.511ZM92.6005 157.91C92.6005 160.162 94.4263 161.974 96.629 161.974C98.7234 161.974 100.55 159.997 100.55 157.91C100.55 155.713 98.7237 153.846 96.575 153.846C94.4267 153.846 92.6008 155.658 92.6008 157.91H92.6005ZM118.426 167.026C118.426 165.873 117.728 165.928 117.137 165.928H108.49C108.168 165.928 107.846 165.928 107.684 166.367L107.201 167.466C106.879 168.125 107.416 168.345 107.953 168.509C110.424 169.058 111.229 169.443 111.229 171.805V187.511C111.229 189.598 109.833 190.477 108.49 190.752C108.114 190.862 107.684 190.917 107.47 191.521L107.147 192.454C106.879 193.278 107.416 193.388 107.846 193.388H121.918C122.562 193.388 122.884 193.223 123.099 192.948L123.69 191.85C123.958 191.411 123.851 190.971 122.884 190.862C119.447 190.257 118.373 189.873 118.373 187.511V180.811C118.373 178.01 118.104 175.539 119.393 173.342C120.145 172.024 121.595 171.365 124.066 172.134C125.57 172.573 126.59 173.727 127.181 172.958L129.276 171.201C129.383 171.091 129.437 170.871 129.383 170.706L128.309 166.587C128.094 165.983 127.181 165.269 125.677 165.269C123.314 165.269 120.736 167.685 118.534 170.871H118.426V167.026ZM159.274 160.821C159.274 158.734 160.67 157.855 162.012 157.58C162.388 157.471 162.819 157.415 163.033 156.812L163.356 155.878C163.624 155.054 163.087 154.944 162.657 154.944H149.015C148.532 154.944 148.263 155.109 148.102 155.384L147.672 156.482C147.457 156.921 147.565 157.361 148.263 157.471C150.895 158.075 151.7 158.459 151.7 160.821V187.511C151.7 189.598 150.304 190.477 148.961 190.752C148.585 190.862 148.156 190.917 147.941 191.521L147.618 192.454C147.35 193.278 147.887 193.388 148.317 193.388H161.959C162.442 193.388 162.711 193.223 162.872 192.948L163.302 191.85C163.517 191.411 163.409 190.971 162.711 190.862C160.079 190.257 159.274 189.873 159.274 187.511V173.946H175.172V187.511C175.172 189.598 173.775 190.477 172.432 190.752C172.056 190.862 171.627 190.917 171.412 191.521L171.089 192.454C170.821 193.278 171.358 193.388 171.788 193.388H185.43C185.914 193.388 186.182 193.223 186.343 192.948L186.773 191.85C186.988 191.411 186.88 190.971 186.182 190.862C183.55 190.257 182.745 189.873 182.745 187.511V160.821C182.745 158.734 184.141 157.855 185.484 157.58C185.86 157.471 186.29 157.415 186.504 156.812L186.827 155.878C187.095 155.054 186.558 154.944 186.128 154.944H172.486C172.003 154.944 171.734 155.109 171.573 155.384L171.143 156.482C170.929 156.921 171.036 157.361 171.734 157.471C174.366 158.075 175.172 158.459 175.172 160.821V170.651H159.274V160.821ZM206.376 165.269C197.675 165.269 191.337 171.585 191.337 180.207C191.337 186.743 196.171 194.047 204.98 194.047C214.271 194.047 220.072 186.962 220.072 179.109C220.072 172.024 214.97 165.269 206.376 165.269H206.376ZM205.893 191.082C202.509 191.082 198.91 186.743 198.91 178.285C198.91 173.397 201.166 168.235 205.785 168.235C209.706 168.235 212.499 172.793 212.499 179.987C212.499 185.205 211.21 191.081 205.893 191.081V191.082ZM234.499 167.026C234.499 165.873 233.801 165.928 233.21 165.928H224.616C224.294 165.928 223.972 165.928 223.811 166.367L223.327 167.466C223.005 168.125 223.542 168.345 224.079 168.509C226.55 169.058 227.356 169.443 227.356 171.805V187.511C227.356 189.598 225.959 190.477 224.616 190.752C224.24 190.862 223.811 190.917 223.596 191.521L223.273 192.454C223.005 193.278 223.542 193.388 223.972 193.388H236.916C237.346 193.388 237.614 193.223 237.722 192.948L238.151 191.85C238.312 191.411 238.205 190.971 237.614 190.862C235.197 190.257 234.499 189.873 234.499 187.511V184.381C234.499 173.946 237.722 170.102 241.481 170.102C244.167 170.102 245.67 171.585 245.67 177.626V187.511C245.67 189.598 244.435 190.477 243.2 190.752C242.878 190.862 242.502 190.917 242.287 191.521L241.964 192.454C241.75 193.278 242.233 193.388 242.609 193.388H255.499C255.983 193.388 256.251 193.223 256.412 192.948L256.842 191.85C257.057 191.411 256.95 190.971 256.252 190.862C253.62 190.257 252.814 189.873 252.814 187.511V174.66C252.814 168.125 249.967 165.269 245.187 165.269C241.696 165.269 237.077 167.136 234.606 171.255H234.499V167.026ZM261.283 202.724C260.638 203.877 261.337 204.262 262.357 204.811C264.613 205.964 267.191 207.118 272.885 207.118C282.874 207.118 288.084 201.077 288.084 190.422V171.365C288.084 167.796 286.634 167.521 284.969 166.752C282.66 165.873 280.082 165.269 276.483 165.269C267.084 165.269 260.478 172.628 260.478 181.305C260.478 187.896 264.399 194.047 270.843 194.047C274.872 194.047 279.115 190.971 280.833 186.907H280.941V192.509C280.941 199.539 278.041 203.218 272.67 203.218C267.191 203.218 264.613 199.759 264.022 199.264C263.324 198.66 263.002 199.649 262.519 200.472L261.283 202.724ZM275.839 168.125C280.243 168.125 280.941 172.024 280.941 176.692C280.941 184.491 276.483 189.434 273.314 189.434C269.984 189.434 268.051 185.15 268.051 179.823C268.051 174.221 270.844 168.125 275.839 168.125ZM314.796 193.388H323.873V191.575C322.799 191.136 321.885 190.532 320.328 188.829C317.32 185.644 313.775 180.646 310.284 176.253L315.333 171.255C317.535 169.004 321.51 169.223 321.51 167.631C321.51 166.862 321.51 165.928 320.435 165.928H313.936C311.358 169.223 308.028 172.793 303.839 176.528V154.121C303.839 152.967 303.141 153.022 302.55 153.022H293.957C293.634 153.022 293.312 153.022 293.151 153.462L292.667 154.56C292.345 155.219 292.882 155.439 293.419 155.603C295.89 156.153 296.696 156.537 296.696 158.899V187.512C296.696 189.598 295.299 190.477 293.957 190.752C293.58 190.862 293.151 190.917 292.936 191.521L292.613 192.454C292.345 193.278 292.882 193.388 293.312 193.388H306.256C306.685 193.388 306.954 193.223 307.061 192.948L307.491 191.85C307.652 191.411 307.545 190.971 306.954 190.862C304.537 190.257 303.839 189.873 303.839 187.511V178.34H303.946L314.796 193.388ZM341.594 165.269C332.893 165.269 326.556 171.585 326.556 180.207C326.556 186.743 331.389 194.047 340.198 194.047C349.49 194.047 355.29 186.962 355.29 179.109C355.29 172.024 350.188 165.269 341.594 165.269H341.594ZM341.111 191.082C337.727 191.082 334.129 186.743 334.129 178.285C334.129 173.397 336.384 168.235 341.004 168.235C344.924 168.235 347.717 172.793 347.717 179.987C347.717 185.205 346.428 191.081 341.111 191.081V191.082ZM369.717 167.026C369.717 165.873 369.019 165.928 368.428 165.928H359.835C359.512 165.928 359.19 165.928 359.029 166.367L358.546 167.466C358.223 168.125 358.76 168.345 359.297 168.509C361.768 169.058 362.574 169.443 362.574 171.805V187.511C362.574 189.598 361.177 190.477 359.835 190.752C359.459 190.862 359.029 190.917 358.814 191.521L358.492 192.454C358.223 193.278 358.76 193.388 359.19 193.388H372.134C372.564 193.388 372.832 193.223 372.939 192.948L373.369 191.85C373.531 191.411 373.423 190.971 372.832 190.862C370.415 190.257 369.717 189.873 369.717 187.511V184.381C369.717 173.946 372.939 170.102 376.699 170.102C379.385 170.102 380.889 171.585 380.889 177.626V187.511C380.889 189.598 379.653 190.477 378.418 190.752C378.095 190.862 377.72 190.917 377.505 191.521L377.182 192.454C376.968 193.278 377.451 193.388 377.827 193.388H390.717C391.201 193.388 391.469 193.223 391.63 192.948L392.06 191.85C392.275 191.411 392.167 190.971 391.469 190.862C388.837 190.257 388.032 189.873 388.032 187.511V174.66C388.032 168.125 385.185 165.269 380.405 165.269C376.914 165.269 372.295 167.136 369.824 171.255H369.717L369.717 167.026ZM396.501 202.724C395.857 203.877 396.555 204.262 397.576 204.811C399.831 205.964 402.409 207.118 408.103 207.118C418.093 207.118 423.303 201.077 423.303 190.422V171.365C423.303 167.796 421.852 167.521 420.187 166.752C417.878 165.873 415.3 165.269 411.701 165.269C402.302 165.269 395.696 172.628 395.696 181.305C395.696 187.896 399.617 194.047 406.062 194.047C410.09 194.047 414.333 190.971 416.052 186.907H416.159V192.509C416.159 199.539 413.259 203.218 407.888 203.218C402.409 203.218 399.832 199.759 399.241 199.264C398.543 198.66 398.22 199.649 397.737 200.472L396.501 202.724ZM411.057 168.125C415.461 168.125 416.159 172.024 416.159 176.692C416.159 184.491 411.701 189.434 408.532 189.434C405.202 189.434 403.269 185.15 403.269 179.823C403.269 174.221 406.062 168.125 411.057 168.125ZM218.825 130.165H215.845V125.124C212.268 128.004 207.45 130.501 201.39 132.613L200.198 129.589C205.96 127.86 210.828 125.556 214.802 122.676H202.135V119.94H215.845V116.627C212.07 116.819 208.295 116.963 204.52 117.059L204.221 114.611C212.765 114.323 220.464 113.795 227.319 113.027L229.107 115.475C229.901 116.435 229.454 116.627 227.766 116.051C224.388 116.243 221.408 116.387 218.825 116.483V119.939H232.534V122.676H220.315C224.09 125.46 228.709 127.668 234.173 129.3L232.981 132.325C227.418 130.597 222.699 128.052 218.825 124.692V130.165ZM224.935 144.71H210.033V146.006H207.053V131.461H227.915V145.574H224.935V144.71ZM224.935 136.645V134.197H210.033V136.645H224.935ZM224.935 141.974V139.382H210.033V141.974H224.935ZM265.02 142.694C265.914 142.694 266.46 142.358 266.659 141.686L267.404 139.525L270.384 140.677L269.937 142.262C269.341 144.374 268.199 145.43 266.51 145.43H254.738C253.049 145.43 252.204 144.566 252.204 142.838V135.493H262.04V133.189H252.204C250.814 134.533 249.075 135.877 246.989 137.221L245.797 134.053C249.671 131.845 252.403 129.253 253.993 126.276H246.84V123.54H253.397V120.084H248.181V117.347H253.397V113.027H256.228C257.023 113.123 257.072 113.411 256.377 113.891V117.347H260.997V113.027H263.828C264.623 113.123 264.672 113.411 263.977 113.891V117.347H269.937V120.084H263.977V123.54H271.577V126.276H264.573C266.063 128.772 268.745 130.933 272.62 132.757L271.13 135.781C268.447 134.533 266.411 133.093 265.02 131.461V138.805H262.04V138.229H255.185V141.542C255.185 142.31 255.533 142.694 256.228 142.694H265.02ZM242.221 114.323C244.506 115.667 246.095 116.867 246.989 117.923L244.754 120.803C243.562 119.651 241.972 118.355 239.985 116.915L242.221 114.323ZM238.197 143.126C240.184 139.766 241.674 136.117 242.668 132.181L245.201 133.765C244.505 137.318 243.363 140.918 241.774 144.566C241.972 146.007 241.624 146.295 240.73 145.431L238.197 143.126ZM240.88 122.82C243.363 124.26 244.953 125.46 245.648 126.421L243.562 129.445C242.469 128.293 240.879 126.997 238.793 125.556L240.88 122.82ZM256.377 120.084V123.54H260.996V120.084H256.377ZM257.122 126.277C256.426 127.717 255.483 129.109 254.291 130.453H264.126C262.834 129.013 261.94 127.621 261.443 126.277H257.122ZM302.125 127.428H310.022V130.165H302.125V133.333H306.744V135.637H294.972V138.085H309.129V140.822H294.972V146.006H291.992V140.822H277.985V138.086H291.992V135.637H280.22V133.333H284.839V130.165H276.942V127.428H284.839V124.404H280.22V122.1H306.744V124.404H302.125L302.125 127.428ZM287.819 133.333H291.992V130.165H287.819V133.333ZM294.972 133.333H299.145V130.165H294.972V133.333ZM294.972 124.404V127.428H299.145V124.404H294.972ZM287.819 127.428H291.992V124.404H287.819V127.428ZM286.329 113.027H289.16C289.955 113.123 290.005 113.411 289.309 113.891V116.195H297.059V113.027H299.889C300.684 113.123 300.734 113.411 300.039 113.891V116.195H309.426V118.931H300.039V120.804H297.058V118.931H289.31V120.804H286.33V118.931H277.24V116.195H286.329V113.027ZM341.167 144.134C336.696 141.542 333.716 137.317 332.225 131.461H322.54V140.534L333.269 137.941L333.716 140.678L317.92 144.998C317.821 145.766 317.573 145.958 317.175 145.574L316.132 141.686L319.559 141.11V114.611H344.147V125.268H341.167V124.404H334.163C334.362 125.748 334.56 127.188 334.759 128.724H348.171V131.461H335.355C336.845 136.261 339.379 139.574 342.955 141.398C344.246 142.07 344.992 141.734 345.19 140.39L345.488 138.517L348.767 139.67L348.171 142.406C347.376 145.862 345.041 146.438 341.167 144.134H341.167ZM322.54 128.724H331.63L331.034 124.404H322.54V128.724ZM341.167 121.668V117.347H322.54V121.668H341.167ZM364.115 130.885L358.155 131.173V136.501C358.155 139.958 357.062 143.078 354.876 145.862L352.641 144.134C354.628 141.83 355.621 139.238 355.621 136.357V131.317L353.535 131.461C353.436 132.325 353.188 132.421 352.79 131.749L352.194 128.724H355.621V116.915H358.9L359.794 113.027L362.774 113.315C363.469 113.699 363.37 113.939 362.476 114.035L361.582 116.915H366.648V128.292L369.629 128.149V130.453L366.648 130.597V143.99C366.648 145.334 366.003 146.006 364.711 146.006H361.88L361.433 143.27H363.519C363.916 143.27 364.115 143.078 364.115 142.694V130.885ZM379.315 127.428H374.397V135.925C374.397 139.862 372.808 143.126 369.629 145.718L367.394 143.27C370.076 141.35 371.417 138.709 371.417 135.349V124.692H382.295V141.542C382.295 142.31 382.692 142.694 383.487 142.694C384.083 142.694 384.381 142.406 384.381 141.83L384.679 138.805L387.66 139.237L387.213 142.982C387.014 144.614 386.169 145.43 384.679 145.43H381.997C380.209 145.43 379.315 144.566 379.315 142.838V127.428ZM359.794 141.83V132.325H362.327C362.923 132.421 362.923 132.661 362.327 133.045V141.83H359.794ZM360.539 127.284C360.141 125.364 359.645 123.444 359.048 121.524L361.582 120.804C362.476 123.012 363.072 124.884 363.37 126.42L360.539 127.284ZM364.115 119.219H358.155V128.58L364.115 128.437V119.219ZM368.735 121.38V118.643H375.441V112.883H378.271C379.066 112.979 379.116 113.267 378.42 113.747V118.643H386.02V121.38H368.735ZM422.38 125.844C421.685 128.341 420.393 129.589 418.506 129.589H412.843C410.956 129.589 410.012 128.677 410.012 126.852V119.795H405.243V121.523C405.243 125.844 401.965 129.108 395.408 131.316L393.918 128.58C399.482 126.948 402.263 124.596 402.263 121.523V119.795H395.408V124.692H391.981V117.059H406.286V113.027H409.565C410.359 113.123 410.409 113.411 409.713 113.891V117.059H424.019V123.828H420.592V119.796H412.992V125.844C412.992 126.516 413.439 126.852 414.333 126.852H417.612C418.605 126.852 419.251 126.132 419.549 124.692L422.38 125.844ZM424.616 141.974V145.142H391.534V141.974H406.436V135.781H395.111V132.613H420.741V135.781H409.416V141.974H424.616Z" fill="#E4001C"/>
</svg>
