<svg width="480" height="320" viewBox="0 0 480 320" fill="none" xmlns="http://www.w3.org/2000/svg">
<path d="M424.615 173.357C424.615 173.357 49.6213 145.843 55.452 198.111C59.3309 232.96 424.615 173.357 424.615 173.357Z" fill="#1788BA"/>
<path d="M168.521 112.327C165.813 112.327 163.269 112.789 160.912 113.736C158.562 114.699 156.474 116.097 154.666 117.918C152.866 119.756 151.487 121.886 150.523 124.335C149.583 126.777 149.098 129.364 149.098 132.092C149.098 134.852 149.583 137.446 150.523 139.887C151.487 142.322 152.866 144.444 154.666 146.274C156.474 148.095 158.554 149.47 160.904 150.409C163.254 151.332 165.826 151.811 168.614 151.811C169.678 151.809 170.74 151.726 171.792 151.562C172.827 151.418 173.804 151.209 174.72 150.931C176.6 150.342 178.336 149.468 179.93 148.283V141.36C178.13 142.99 176.243 144.178 174.299 144.95C173.272 145.363 172.265 145.67 171.285 145.861C170.29 146.044 169.254 146.134 168.155 146.134C164.466 146.134 161.395 144.826 158.957 142.193C156.512 139.568 155.297 136.227 155.297 132.147C155.297 127.939 156.541 124.515 159.051 121.89C161.552 119.257 164.787 117.957 168.778 117.957C169.821 117.957 170.835 118.039 171.799 118.23C172.774 118.42 173.731 118.696 174.657 119.055C176.529 119.787 178.311 120.894 179.992 122.365V122.357L180.303 116.205C178.496 114.885 176.617 113.92 174.649 113.308C173.681 112.966 172.682 112.716 171.667 112.56C170.671 112.394 169.612 112.327 168.521 112.327ZM79.0852 113.043L61.0327 151.764L67.4109 151.772L71.7332 142.17H86.4913L90.7359 151.764H97.1061L79.0856 113.043H79.0852ZM185.786 113.276V151.897H191.043V141.126C191.043 139.185 191.125 137.773 191.292 136.858C191.452 135.959 191.712 135.25 192.087 134.709C192.628 133.85 193.397 133.184 194.345 132.715C195.309 132.277 196.405 132.045 197.632 132.045C199.503 132.045 200.808 132.561 201.541 133.587C202.266 134.621 202.639 136.677 202.639 139.771V151.889H207.935V137.56C207.935 136.454 207.912 135.528 207.865 134.756C207.817 134.008 207.749 133.425 207.678 133.027C207.506 132.232 207.209 131.47 206.798 130.769C206.121 129.663 205.181 128.841 203.986 128.285C202.776 127.735 201.322 127.459 199.617 127.459C197.562 127.459 195.818 127.84 194.384 128.603C192.966 129.359 191.735 130.54 190.724 132.147V113.276H185.786H185.786ZM101.67 117.264V122.412H106.849V117.264H101.67ZM244.577 117.264V122.412H249.763V117.264H244.577ZM79.1398 124.429L79.8559 126.781L80.5338 128.634L84.3417 137.138H73.9686L77.7845 128.657C78.0556 128.029 78.3024 127.371 78.4775 126.711C78.6051 126.353 78.7327 125.985 78.8124 125.659C78.9161 125.317 79.0198 124.906 79.1394 124.429L79.1398 124.429ZM128.328 126.859C127.491 126.843 127.286 126.843 126.147 126.875C124.737 126.914 123.559 127.326 122.635 128.058C121.695 128.814 120.95 129.942 120.376 131.469V127.716H115.057V151.842H120.376V140.784C120.376 137.459 120.764 135.953 121.537 134.545C122.317 133.13 123.616 132.279 125.368 132.279C125.973 132.279 126.427 132.279 127.128 132.287C127.741 132.295 128.147 132.323 128.584 132.513L129.706 126.945C129.22 126.897 129.132 126.875 128.328 126.859V126.859ZM225.06 126.929C223.439 126.926 221.832 127.243 220.333 127.863C218.82 128.484 217.469 129.373 216.323 130.535C215.18 131.679 214.281 133.043 213.682 134.545C213.061 136.049 212.748 137.633 212.748 139.312C212.748 140.998 213.069 142.598 213.682 144.093C214.296 145.604 215.198 146.957 216.385 148.151C217.563 149.36 218.898 150.264 220.403 150.892C221.901 151.497 223.451 151.819 225.068 151.819C226.7 151.823 228.316 151.497 229.819 150.861C231.334 150.214 232.713 149.287 233.884 148.127C235.087 146.942 235.981 145.604 236.586 144.093C237.176 142.598 237.482 140.998 237.482 139.312C237.485 137.695 237.168 136.093 236.547 134.6C235.942 133.096 235.032 131.743 233.837 130.558C232.642 129.357 231.315 128.452 229.85 127.84C228.376 127.219 226.773 126.929 225.06 126.929ZM291.662 126.945C287.974 126.945 284.947 128.103 282.581 130.434C280.231 132.764 279.054 135.747 279.054 139.382C279.054 143.168 280.202 146.196 282.48 148.447C284.75 150.69 287.815 151.827 291.662 151.827C293.008 151.827 294.276 151.677 295.447 151.383C296.618 151.089 297.699 150.662 298.671 150.113C300.686 148.952 302.348 147.218 303.686 144.911L299.045 142.403C298.137 144.01 297.108 145.193 295.945 145.9C294.79 146.616 293.314 146.967 291.522 146.967C289.538 146.967 287.943 146.362 286.74 145.153C286.087 144.476 285.588 143.729 285.245 142.902C284.91 142.059 284.738 141.125 284.738 140.06H303.936V139.071C303.936 135.237 302.854 132.262 300.704 130.122C298.537 127.99 295.533 126.944 291.662 126.944L291.662 126.945ZM101.67 127.397V151.772H106.849V127.397H101.67ZM244.577 127.397V151.772H249.763V127.397H244.577ZM268.477 127.669C264.535 127.669 261.344 128.775 258.906 131.018C256.461 133.229 255.246 136.137 255.246 139.74C255.246 141.554 255.529 143.183 256.118 144.623C256.7 146.039 257.595 147.341 258.758 148.463C261.148 150.706 264.197 151.812 267.925 151.812C269.191 151.812 270.391 151.693 271.561 151.414C272.691 151.147 273.784 150.744 274.817 150.215V144.281C274.012 145.243 273.103 145.937 272.076 146.422C271.542 146.676 270.976 146.854 270.393 146.952C269.804 147.071 269.185 147.123 268.524 147.123C266.151 147.123 264.287 146.451 262.933 145.114C261.578 143.77 260.9 141.931 260.9 139.608C260.9 137.365 261.571 135.556 262.917 134.203C264.255 132.843 266.045 132.163 268.267 132.163C269.506 132.163 270.732 132.4 271.881 132.864C273.02 133.341 273.996 133.983 274.817 134.842L274.825 129.056C274.363 128.811 273.884 128.6 273.392 128.425C272.938 128.257 272.438 128.131 271.905 128.02C270.853 127.789 269.704 127.669 268.478 127.669H268.477ZM291.763 131.415C293.659 131.415 295.173 131.841 296.28 132.708C297.379 133.591 298.035 134.862 298.243 136.508H285.097C285.559 134.782 286.334 133.496 287.417 132.661C288.501 131.834 289.947 131.415 291.763 131.415ZM225.13 131.672C227.082 131.672 228.722 132.42 230.06 133.908C231.398 135.395 232.062 137.211 232.062 139.367C232.062 141.506 231.383 143.33 230.037 144.818C228.675 146.297 227.042 147.046 225.13 147.046C223.203 147.046 221.555 146.305 220.201 144.818C218.863 143.323 218.191 141.498 218.191 139.367C218.191 137.211 218.855 135.395 220.201 133.908C221.555 132.42 223.203 131.672 225.13 131.672Z" fill="#282828"/>
<path d="M344.502 110.956C341.619 110.956 338.89 111.472 336.317 112.482C333.766 113.487 331.437 114.985 329.464 116.89C327.449 118.807 325.921 121.012 324.869 123.494C323.818 125.968 323.288 128.584 323.288 131.344C323.288 134.097 323.825 136.721 324.893 139.202C325.952 141.684 327.473 143.858 329.464 145.768C331.456 147.676 333.744 149.141 336.349 150.175C338.929 151.21 341.651 151.725 344.503 151.725C347.276 151.731 350.024 151.197 352.594 150.152C355.156 149.113 357.504 147.608 359.518 145.713C361.541 143.804 363.069 141.621 364.12 139.194C365.171 136.76 365.685 134.144 365.685 131.352C365.685 128.6 365.164 125.999 364.081 123.51C363.014 121.036 361.455 118.815 359.44 116.89C357.416 114.949 355.12 113.477 352.563 112.475C350.014 111.448 347.322 110.956 344.502 110.956ZM344.502 116.765C346.47 116.765 348.334 117.139 350.094 117.879C351.855 118.627 353.405 119.689 354.767 121.049C356.121 122.401 357.165 123.971 357.89 125.729C358.606 127.472 358.98 129.348 358.98 131.352C358.983 133.274 358.588 135.175 357.82 136.936C357.063 138.71 356.012 140.28 354.658 141.64C353.328 143.008 351.784 144.047 350.04 144.778C348.295 145.494 346.462 145.861 344.495 145.861C342.527 145.861 340.664 145.495 338.895 144.755C337.119 144.031 335.568 142.969 334.238 141.609C333.513 140.901 332.894 140.168 332.385 139.412C331.876 138.622 331.438 137.788 331.076 136.92C330.359 135.178 330.001 133.317 330.001 131.344C330.001 130.303 330.099 129.315 330.282 128.416C330.465 127.525 330.741 126.621 331.092 125.721C331.88 123.916 332.932 122.346 334.246 121.01C335.632 119.626 337.197 118.564 338.942 117.84C340.678 117.133 342.535 116.765 344.502 116.765ZM410.59 126.96C406.894 126.96 403.86 128.126 401.502 130.464C399.152 132.787 397.974 135.762 397.974 139.389C397.974 143.183 399.122 146.211 401.393 148.454C403.678 150.713 406.735 151.834 410.582 151.834C411.928 151.834 413.196 151.684 414.367 151.398C415.538 151.112 416.62 150.686 417.599 150.121C419.598 148.975 421.261 147.241 422.599 144.919L417.973 142.435C417.065 144.057 416.028 145.223 414.873 145.923C413.718 146.631 412.25 147.006 410.45 147.006C408.459 147.006 406.871 146.4 405.668 145.191C405.023 144.551 404.512 143.788 404.165 142.948C403.838 142.105 403.674 141.172 403.674 140.106H422.856V139.101C422.856 135.259 421.782 132.277 419.624 130.145C417.465 128.021 414.453 126.96 410.59 126.96ZM384.516 127.342C382.461 127.342 380.716 127.723 379.291 128.486C377.857 129.25 376.627 130.431 375.607 132.022V128.159H370.654V151.819H375.927V141.04C375.927 139.083 376.008 137.663 376.176 136.757C376.335 135.85 376.604 135.124 376.978 134.591C377.52 133.74 378.273 133.075 379.244 132.614C380.2 132.16 381.312 131.928 382.539 131.928C384.418 131.928 385.723 132.444 386.456 133.47C387.189 134.504 387.562 136.567 387.562 139.661V151.81H392.873V137.458C392.873 136.352 392.851 135.418 392.811 134.654C392.747 133.899 392.688 133.307 392.6 132.925C392.401 132.05 392.118 131.303 391.736 130.651C391.051 129.554 390.112 128.732 388.901 128.167C387.699 127.618 386.237 127.342 384.517 127.342H384.516ZM410.684 131.461C412.587 131.461 414.086 131.902 415.193 132.777C416.308 133.644 416.963 134.908 417.163 136.547V136.555H404.025C404.479 134.836 405.255 133.558 406.338 132.715C407.437 131.88 408.875 131.461 410.684 131.461Z" fill="#1788BA"/>
</svg>
