<svg width="480" height="320" viewBox="0 0 480 320" fill="none" xmlns="http://www.w3.org/2000/svg">
<path d="M150.616 144.394H141.801C141.801 144.394 139.175 144.394 137.862 147.394C136.549 150.394 131.11 163.899 131.11 163.899C131.11 163.899 130.922 169.714 134.111 169.714C137.299 169.714 139.549 168.025 141.801 162.775C144.051 157.523 146.865 146.456 150.616 144.394L150.616 144.394Z" fill="#F00000"/>
<path d="M131.672 169.903C131.672 169.903 127.358 168.589 131.297 157.335C135.236 146.081 143.863 122.448 143.863 122.448C143.863 122.448 146.857 114.084 144.615 112.507C142.955 111.34 141.691 111.997 140.372 112.765C139.054 113.534 136.087 115.02 131.856 120.952C131.856 120.952 131.307 124.03 128.614 130.569C125.922 137.107 120.427 151.779 120.427 151.779C120.427 151.779 118.174 156.835 118.669 161.56C119.162 166.286 123.065 167.164 125.867 167.988C128.669 168.813 131.672 169.903 131.672 169.903H131.672Z" fill="#F00000"/>
<path d="M140.485 111.488C140.485 111.488 130.559 115.915 124.298 131.797C118.038 147.678 109.716 171.345 109.716 171.345C109.716 171.345 104.448 186.006 100.707 192.723C96.9654 199.443 93.2246 205.245 93.2246 205.245H63.0654C63.0654 205.245 74.9764 193.869 86.6584 174.706C92.5739 165.001 100.478 148.517 104.448 140.041C108.418 131.568 112.617 122.328 116.129 117.977C119.641 113.625 122.695 111.411 129.032 111.411C135.369 111.411 140.485 111.488 140.485 111.488H140.485Z" fill="#F00000"/>
<path d="M163.324 144.62L172.414 124.662L174.681 144.62L163.324 144.62ZM185.265 161.119L177.53 114.391H171.828C171.459 115.381 149.123 161.118 149.123 161.118C147.674 164.257 146.25 165.969 144.204 168.109H154.775C153.975 167.048 154.66 165.711 155.173 164.267C155.533 163.255 155.995 162.133 156.474 161.119L161.226 150.396H175.285L176.905 161.119C177.011 162.084 177.157 164.637 177.087 165.092C176.983 165.751 176.926 167.503 176.554 168.109H188.839C186.962 166.286 185.771 163.958 185.265 161.119V161.119ZM292.593 163.019C291.407 164.2 289.961 164.791 288.247 164.791C286.986 164.791 285.972 164.235 285.207 163.113C284.44 161.991 284.163 160.736 284.371 159.34C284.603 157.777 285.292 156.354 286.441 155.063C287.589 153.773 289.482 152.39 292.123 150.909L296.664 148.309L295.486 156.234C295.03 159.32 294.065 161.581 292.593 163.019ZM300.868 162.371L304.136 140.355C304.65 136.885 304.297 134.422 303.069 132.962C301.845 131.502 298.731 130.773 295.492 130.773C293.47 130.773 291.104 131.365 288.399 132.549C287.533 132.929 286.381 133.523 284.945 134.325L283.688 142.797C285.165 140.733 286.357 139.197 287.269 138.186C290.106 135.157 292.618 133.641 294.804 133.641C296.124 133.641 297.06 134.087 297.615 134.974C298.168 135.863 298.265 137.534 297.901 139.984L297.183 144.806L286.986 150.834C284.036 152.566 282.017 154.004 280.933 155.147C279.6 156.584 278.775 158.381 278.455 160.536C278.097 162.949 278.516 164.989 279.711 166.659C280.906 168.329 282.645 169.164 284.924 169.164C286.495 169.164 288.061 168.753 289.628 167.932C291.194 167.107 292.846 165.79 294.585 163.972L294.12 168.207H301.479C300.68 166.941 300.479 164.995 300.868 162.371ZM327.428 162.66C325.887 164.547 324.02 165.491 321.829 165.491C319.427 165.491 317.614 164.149 316.393 161.468C315.171 158.786 314.87 155.189 315.493 150.684C316.207 145.492 317.847 141.352 320.414 138.26C322.794 135.385 325.446 133.947 328.369 133.947C330.039 133.947 331.173 134.721 331.768 136.266C332.366 137.81 332.462 140.04 332.059 142.959L330.491 154.353C329.988 158.001 328.966 160.771 327.428 162.66ZM335.462 165.812C335.405 165.085 335.485 163.905 335.711 162.275C335.711 162.275 341.372 123.042 341.966 119.234C342.558 115.428 343.667 114.445 343.667 114.445H334.819C335.595 116.203 335.814 118.302 335.477 120.745L333.675 131.244H330.433C323.89 131.244 318.718 133.553 314.92 138.173C311.938 141.811 310.038 146.601 309.218 152.546C308.547 157.423 309.184 161.413 311.128 164.512C313.075 167.615 315.764 169.164 319.193 169.164C321.407 169.164 323.349 168.658 325.02 167.645C326.687 166.629 328.098 165.196 329.251 163.342L328.583 168.193H336.253C335.783 167.335 335.518 166.544 335.462 165.812ZM397.198 162.66C395.657 164.547 393.79 165.491 391.598 165.491C389.197 165.491 387.384 164.149 386.161 161.468C384.939 158.786 384.64 155.189 385.263 150.684C385.977 145.492 387.616 141.352 390.185 138.26C392.563 135.385 395.215 133.947 398.139 133.947C399.808 133.947 400.943 134.721 401.539 136.266C402.136 137.81 402.232 140.04 401.83 142.959L400.26 154.353C399.756 158.001 398.734 160.771 397.198 162.66H397.198ZM405.232 165.812C405.175 165.085 405.255 163.905 405.481 162.275C405.481 162.275 411.142 123.042 411.734 119.234C412.328 115.428 413.438 114.445 413.438 114.445H404.588C405.363 116.203 405.582 118.302 405.246 120.745L403.445 131.244H400.203C393.66 131.244 388.488 133.553 384.69 138.173C381.708 141.811 379.807 146.601 378.987 152.546C378.317 157.423 378.954 161.413 380.898 164.512C382.845 167.615 385.534 169.164 388.961 169.164C391.176 169.164 393.117 168.658 394.789 167.645C396.456 166.629 397.867 165.196 399.02 163.342L398.351 168.193H406.023C405.552 167.335 405.288 166.544 405.232 165.812H405.232ZM227.428 139.275C227.14 138.477 226.879 137.888 226.633 137.507C225.898 136.331 224.951 135.743 223.791 135.743C222.529 135.743 221.412 136.279 220.445 137.351C219.298 138.618 218.528 140.552 218.14 143.158L214.977 163.008C214.748 164.543 214.659 165.623 214.709 166.257C214.759 166.889 214.996 167.569 215.418 168.297H206.746C207.421 167.608 207.931 166.881 208.278 166.114C208.625 165.349 208.896 164.314 209.091 163.011L213.239 136.553C213.576 134.294 213.438 132.475 212.825 131.094H219.94L219.228 135.865C220.381 134.285 221.868 133.024 223.69 132.079C225.511 131.133 227.187 130.661 228.713 130.661L227.428 139.275ZM362.464 139.275C362.177 138.477 361.915 137.888 361.67 137.507C360.935 136.331 359.989 135.743 358.828 135.743C357.566 135.743 356.45 136.279 355.483 137.351C354.335 138.618 353.565 140.552 353.177 143.158L350.015 163.008C349.786 164.543 349.696 165.623 349.747 166.257C349.797 166.889 350.034 167.569 350.456 168.297H341.784C342.458 167.608 342.968 166.881 343.316 166.114C343.663 165.349 343.934 164.314 344.129 163.011L348.277 136.553C348.614 134.294 348.475 132.475 347.863 131.094H354.977L354.266 135.865C355.419 134.285 356.906 133.024 358.727 132.079C360.551 131.133 362.223 130.661 363.751 130.661L362.464 139.275ZM199.66 168.297H191.01C192.122 167.07 192.85 165.307 193.193 163.006L197.498 136.496C197.703 135.116 197.77 134.062 197.699 133.332C197.625 132.605 197.419 131.819 197.08 130.974H205.404C205.404 130.974 204.437 132.171 203.77 135.184C203.103 138.197 199.301 163.006 199.301 163.006C198.968 165.231 199.089 166.994 199.66 168.297L199.66 168.297ZM198.912 120.769C199.294 118.089 201.368 115.917 203.543 115.919C205.718 115.919 207.171 118.096 206.788 120.776C206.406 123.456 204.332 125.626 202.157 125.626C199.982 125.623 198.529 123.45 198.912 120.769ZM370.708 168.297H362.06C363.17 167.07 363.899 165.307 364.241 163.006L368.547 136.496C368.751 135.116 368.818 134.062 368.747 133.332C368.673 132.605 368.467 131.819 368.128 130.974H376.453C376.453 130.974 375.485 132.171 374.818 135.184C374.151 138.197 370.349 163.006 370.349 163.006C370.017 165.231 370.138 166.994 370.708 168.297L370.708 168.297ZM369.96 120.769C370.342 118.089 372.416 115.917 374.591 115.919C376.766 115.919 378.219 118.096 377.836 120.776C377.453 123.456 375.38 125.626 373.205 125.626C371.031 125.623 369.578 123.45 369.96 120.769ZM226.531 168.278C226.531 168.278 228.803 166.005 229.674 160.173C230.546 154.341 235.81 119.229 235.81 119.229L232.926 114.094H242.703C242.703 114.094 241.859 116.064 242.703 117.681C243.547 119.299 254.518 138.992 254.518 138.992L274.071 115.571C274.071 115.571 274.281 114.446 274.071 114.235H283.565L279.345 119.229L272.946 160.162C272.946 160.162 271.468 165.999 273.72 168.25H262.958C262.958 168.25 264.787 166.913 265.772 160.794C266.756 154.676 270.484 129.638 270.484 129.638L252.971 149.823L241.506 129.427L236.372 163.257C236.372 163.257 235.669 166.491 237.286 168.321L226.531 168.278Z" fill="#0A50A1"/>
</svg>
