<svg width="480" height="320" viewBox="0 0 480 320" fill="none" xmlns="http://www.w3.org/2000/svg">
<path d="M88.2481 159.996C93.1384 153.124 98.8147 154.491 105.505 155.263C103.73 153.366 102.856 150.974 102.856 148.404C102.856 142.486 107.765 137.686 113.825 137.686C126.478 137.686 124.916 152.01 119.427 152.01C118.194 152.01 117.204 151.145 116.937 150.119C116.717 149.272 116.929 148.278 116.637 147.475C116.226 146.356 115.09 145.535 113.819 145.535C113.038 145.533 112.287 145.836 111.725 146.379C110.021 148.021 111.084 151.31 112.195 152.991C113.743 155.324 116.457 156.829 119.572 156.799L120.08 156.783C128.755 155.807 131.308 148.421 129.106 141.72C128.149 138.809 124.811 134.525 121.051 132.73C127.975 128.723 130.1 119.479 129.855 113.993L55.3848 159.998L129.856 206.007C130.1 200.518 127.975 191.276 121.051 187.27C124.811 185.473 128.149 181.189 129.106 178.277C131.308 171.575 128.755 164.19 120.08 163.212L119.572 163.196C116.457 163.165 113.743 164.671 112.195 167.003C111.085 168.685 110.021 171.973 111.724 173.617C112.286 174.16 113.038 174.463 113.819 174.461C115.09 174.461 116.226 173.642 116.637 172.519C116.929 171.717 116.717 170.724 116.937 169.876C117.204 168.85 118.194 167.985 119.427 167.985C124.916 167.985 126.478 182.309 113.825 182.309C107.765 182.309 102.856 177.509 102.856 171.59C102.856 169.021 103.73 166.628 105.505 164.732C98.8147 165.506 93.1384 166.874 88.2481 159.996Z" fill="#9B804D"/>
<path d="M179.505 183.213V159.719C179.504 159.432 179.499 159.145 179.489 158.858V158.843L179.474 158.543V158.504L179.468 158.449V158.425C178.942 150.188 173.311 147.36 166.292 147.36C160.783 147.36 156.4 149.138 154.179 151.313V155.693C157.175 154.078 161.467 152.54 164.827 152.54C169.004 152.54 171.926 153.797 171.934 158.425L171.938 158.464V158.865L171.953 161.136C161.058 162.197 151.941 164.174 151.941 173.608C151.941 180.516 156.788 185.298 166.555 185.298C169.904 185.298 176.755 184.693 179.509 183.217M171.952 179.771C169.797 180.656 165.963 180.742 163.911 180.131C162.724 179.775 161.747 179.229 161.03 178.418C160.088 177.352 159.581 175.851 159.581 173.872C159.581 167.363 164.877 165.919 171.953 165.919L171.952 179.771ZM321.372 184.577V178.834C320.721 179.027 320.203 179.159 319.486 179.159C316.754 179.159 315.649 177.337 315.649 174.605V152.532H321.372V147.504H315.649V138.621L307.711 143.578L307.714 147.504H303.507V152.532H307.714V175.794C307.714 180.67 310.446 185.294 317.337 185.294C319.226 185.294 320.654 184.902 321.371 184.577M299.1 174.139C299.1 169.857 297.444 166.183 290.202 163.327C286.96 162.036 284.683 160.539 284.683 157.549C284.683 154.962 286.546 152.719 289.995 152.719C292.617 152.719 295.61 154.425 296.969 155.867V151.392C292.296 144.333 276.545 146.438 276.545 157.957C276.545 161.764 277.992 165.571 285.03 168.222C288.823 169.651 290.971 171.075 290.971 174.202C290.971 180.909 280.236 180.099 276.509 177.322L276.548 183.183C278.742 184.297 281.515 185.293 285.86 185.293C293.998 185.293 299.104 180.124 299.104 174.139M390.523 184.298L390.517 158.407C390.517 152.576 386.97 147.352 376.183 147.352C370.084 147.352 365.461 148.356 362.047 149.966L362.049 184.298H370.223L370.22 153.513C371.761 152.912 373.166 152.51 375.846 152.51C381.007 152.51 382.347 155.592 382.347 158.539L382.349 184.298H390.523ZM222.69 147.406C213.545 147.091 208.726 148.167 204.978 149.975V184.299H213.143V153.658C215.014 152.585 219.544 151.97 222.687 153.247L222.69 147.406ZM196.215 147.526H188.274V184.298H196.215V147.526ZM269.973 183.213V159.718C269.972 159.431 269.966 159.145 269.957 158.858V158.843L269.942 158.543V158.504L269.936 158.449V158.425C269.409 150.188 263.778 147.36 256.76 147.36C251.251 147.36 246.868 149.138 244.643 151.313V155.693C247.642 154.077 251.934 152.54 255.295 152.54C259.472 152.54 262.394 153.797 262.402 158.425V158.865L262.418 161.136C251.523 162.197 242.407 164.174 242.407 173.608C242.407 180.516 247.253 185.298 257.017 185.298C260.37 185.298 267.22 184.693 269.974 183.217M262.417 179.771C260.26 180.656 256.427 180.742 254.376 180.131C253.188 179.774 252.21 179.229 251.496 178.418C250.55 177.351 250.045 175.851 250.045 173.872C250.045 167.363 255.339 165.919 262.418 165.919L262.417 179.771ZM353.276 183.213V159.718C353.276 159.426 353.27 159.14 353.26 158.858L353.257 158.843L353.241 158.543V158.504L353.239 158.449L353.236 158.425C352.712 150.188 347.077 147.36 340.058 147.36C334.553 147.36 330.17 149.138 327.946 151.313V155.693C330.945 154.077 335.235 152.54 338.597 152.54C342.774 152.54 345.697 153.797 345.704 158.425V158.865L345.72 161.136C334.825 162.197 325.709 164.174 325.709 173.608C325.709 180.516 330.558 185.298 340.322 185.298C343.674 185.298 350.525 184.693 353.276 183.217M345.72 179.771C343.564 180.656 339.733 180.742 337.679 180.131C336.493 179.774 335.514 179.229 334.798 178.418C333.855 177.351 333.348 175.851 333.348 173.872C333.348 167.363 338.643 165.919 345.72 165.919V179.771ZM424.614 183.213V159.718C424.613 159.431 424.607 159.145 424.598 158.858L424.596 158.843L424.58 158.543V158.504L424.575 158.449V158.425C424.048 150.188 418.417 147.36 411.398 147.36C405.89 147.36 401.507 149.138 399.285 151.313V155.693C402.284 154.077 406.574 152.54 409.934 152.54C414.111 152.54 417.032 153.797 417.043 158.425V158.865L417.059 161.136C406.165 162.197 397.048 164.174 397.048 173.608C397.048 180.516 401.894 185.298 411.662 185.298C415.011 185.298 421.862 184.693 424.615 183.217M417.059 179.771C414.904 180.656 411.072 180.742 409.018 180.131C407.833 179.774 406.853 179.229 406.137 178.418C405.194 177.351 404.687 175.851 404.687 173.872C404.687 167.363 409.98 165.919 417.059 165.919V179.771ZM196.476 138.678C196.476 136.464 194.646 134.705 192.242 134.705C189.908 134.705 188.01 136.463 188.01 138.678C188.01 140.825 189.908 142.581 192.242 142.581C194.646 142.581 196.476 140.825 196.476 138.678Z" fill="#253168"/>
</svg>
