<svg width="480" height="320" viewBox="0 0 480 320" fill="none" xmlns="http://www.w3.org/2000/svg">
<path d="M107.263 152.87L85.7207 201.716H59.6313C56.7962 201.716 55.3845 200.501 55.3845 198.076C55.3845 196.662 56.2938 195.146 58.1124 193.524L107.263 152.87" fill="#100F0D"/>
<path d="M205.868 197.77C205.868 200.403 204.547 201.716 201.922 201.716H96.646L121.826 145.891L156.413 118.284L135.175 165.915C133.76 169.556 133.052 173.098 133.052 176.534C133.052 182.197 134.871 186.5 138.513 189.429C142.154 192.362 145.895 193.827 149.739 193.827H201.922C204.547 193.827 205.868 195.146 205.868 197.77" fill="#80171B"/>
<path d="M182.807 161.594L191.513 151.352V161.594H182.807ZM201.317 170.216L201.012 144.351H186.449L162.482 170.216H173.404L176.741 167.342H191.513V170.216H201.317ZM226.193 144.982L214.362 170.466H204.349L216.181 144.982H226.193ZM251.071 154.174L250.466 155.121C249.857 156.743 248.644 157.284 246.825 157.284H236.508L239.541 151.536H249.252C251.274 151.536 251.878 152.355 251.071 154.174ZM258.355 144.351H232.566L220.431 170.216H230.444L233.78 164.468H244.398C245.006 164.468 245.405 164.385 245.611 164.889C245.809 165.396 245.809 165.557 245.611 165.958L243.488 170.216H253.195L255.319 165.79C255.928 164.78 256.079 163.834 255.776 162.82C255.471 161.81 255.018 161.233 254.409 161.03C256.837 160.626 258.553 159.428 259.569 157.404L261.993 152.255C262.397 151.042 262.602 149.72 262.602 148.909C262.602 146.08 261.181 144.351 258.355 144.351ZM323.278 144.982L311.448 170.466H301.74L305.988 161.061H292.334L287.782 170.466H278.074L289.904 144.982H299.616L295.066 154.993H309.02L313.266 144.982H323.278ZM334.205 161.594L343.002 151.886L343.302 161.594H334.205ZM352.71 170.216L352.405 144.351H338.146L313.875 170.216H325.102L328.439 167.342H343.828V170.216H352.71ZM377.589 144.982L365.754 170.466H355.742L367.877 144.982H377.589ZM411.565 144.982L408.533 151.352H398.217L389.114 170.466H379.103L388.511 151.352H378.194L380.621 144.982H411.565M424.615 144.982L412.476 170.466H402.768L414.604 144.982H424.615Z" fill="#100F0D"/>
</svg>
