<svg width="480" height="320" viewBox="0 0 480 320" fill="none" xmlns="http://www.w3.org/2000/svg">
<path d="M424.616 115.119V150.335L55.3848 260.489V172.263L424.616 115.119Z" fill="url(#paint0_linear_730_18617)"/>
<path d="M160.527 59.5107L72.9403 142.744L72.4209 143.231L187.883 59.5107" fill="#00913F"/>
<path d="M424.601 67.6201V118.307L55.3848 242.397L55.4254 205.486L424.601 67.6201Z" fill="url(#paint1_linear_730_18617)"/>
<path d="M72.4185 143.231L72.4518 143.209L72.9404 142.745M187.882 59.5107L72.453 143.21L55.4253 159.388V205.51L424.613 67.8492V59.5107H187.882Z" fill="#DC011F"/>
<path d="M174.206 225.351L424.615 151.275V130.813" fill="#0FACE3"/>
<path d="M160.513 114.487L143.405 131.595L126.294 114.487L143.405 155.791" fill="white"/>
<path d="M102.096 138.686L119.203 155.791L102.096 172.906L143.407 155.791M126.302 197.102L143.407 179.994L160.52 197.102L143.407 155.791" fill="white"/>
<path d="M184.713 172.899L167.611 155.791L184.719 138.681L143.406 155.791M190.014 107.251C190.014 104.818 189.438 103.036 188.293 101.906C187.153 100.777 185.454 100.217 183.204 100.217C180.727 100.203 178.262 100.557 175.889 101.269C175.706 100.937 175.552 100.457 175.418 99.8319C175.295 99.2473 175.231 98.652 175.226 98.0546C176.189 97.7617 177.368 97.5131 178.772 97.3137C180.203 97.1058 181.646 97.0022 183.092 97.0035C186.673 97.0035 189.327 97.7888 191.065 99.3592C192.795 100.931 193.665 103.394 193.665 106.751V125.415C192.105 125.716 190.536 125.976 188.961 126.195C187.219 126.443 185.461 126.572 183.701 126.581C180.267 126.581 177.56 125.892 175.585 124.528C173.61 123.162 172.624 120.946 172.624 117.886C172.624 116.409 172.907 115.085 173.485 113.923C174.043 112.776 174.856 111.773 175.862 110.989C176.878 110.194 178.096 109.594 179.518 109.184C180.939 108.781 182.5 108.574 184.2 108.574C185.528 108.574 186.673 108.621 187.63 108.72C188.59 108.807 189.384 108.89 190.014 108.964M190.014 112.179C189.384 112.108 188.603 112.019 187.656 111.93C186.765 111.839 185.869 111.793 184.974 111.792C182.202 111.792 180.059 112.307 178.55 113.343C177.034 114.377 176.276 115.853 176.276 117.773C176.276 118.991 176.51 119.968 176.974 120.704C177.432 121.444 178.03 122.009 178.772 122.396C179.533 122.791 180.356 123.054 181.205 123.171C182.091 123.299 182.982 123.367 183.867 123.367C184.939 123.37 186.01 123.315 187.076 123.2C188.073 123.085 189.051 122.942 190.014 122.752V112.179ZM200.419 100.773H196.881C196.836 100.554 196.807 100.332 196.795 100.109C196.776 99.8302 196.767 99.5511 196.769 99.2719C196.769 98.9851 196.776 98.6848 196.795 98.3857C196.806 98.1443 196.835 97.904 196.881 97.6669H204.077V125.911C203.855 125.951 203.551 125.976 203.165 125.997C202.86 126.012 202.556 126.021 202.251 126.024C202.063 126.024 201.769 126.016 201.359 125.996C201.044 125.987 200.73 125.959 200.419 125.911M198.595 91.4835C198.561 91.1512 198.533 90.7414 198.513 90.2651C198.495 89.7851 198.483 89.3802 198.483 89.0479C198.483 88.75 198.495 88.3857 198.513 87.9377C198.533 87.4934 198.563 87.1217 198.595 86.83C198.927 86.7894 199.336 86.7685 199.817 86.7475C200.293 86.7303 200.701 86.7229 201.033 86.7229C201.328 86.7229 201.697 86.7328 202.141 86.7475C202.584 86.7697 202.955 86.7894 203.247 86.83C203.288 87.1217 203.312 87.4934 203.331 87.9377C203.366 88.7131 203.366 89.4897 203.331 90.2651C203.312 90.7414 203.288 91.1512 203.247 91.4835C202.955 91.5155 202.584 91.55 202.139 91.5648C201.699 91.582 201.327 91.5943 201.033 91.5943C200.701 91.5943 200.293 91.582 199.817 91.5648C199.409 91.5513 199.001 91.5242 198.595 91.4835ZM210.499 97.6694C210.794 97.6362 211.078 97.6079 211.357 97.5894C211.9 97.5469 212.445 97.5469 212.989 97.5894C213.248 97.6079 213.524 97.6362 213.824 97.6694C213.896 98.334 213.95 99.1168 213.99 100.026C214.022 100.933 214.045 101.752 214.045 102.485C214.781 101.119 215.816 99.9697 217.146 99.0294C218.47 98.0891 220.224 97.6115 222.404 97.6115H222.986C223.19 97.6115 223.424 97.6362 223.678 97.6694C223.787 98.2995 223.841 98.8879 223.841 99.4454C223.841 100.035 223.787 100.606 223.678 101.16C223.449 101.126 223.218 101.108 222.986 101.106H222.461C219.95 101.106 217.94 101.893 216.424 103.49C214.91 105.071 214.157 107.715 214.157 111.404V125.911C213.935 125.951 213.63 125.976 213.242 125.997C212.936 126.012 212.63 126.021 212.324 126.024C212.143 126.024 211.849 126.016 211.44 125.996C211.125 125.988 210.81 125.96 210.499 125.911M228.606 97.2792C229.682 97.0576 230.777 96.9462 231.876 96.9469C232.936 96.9436 233.993 97.055 235.029 97.2792C235.142 97.4663 235.24 97.7322 235.336 98.0866C235.428 98.4349 235.512 98.8079 235.582 99.1943C235.656 99.5832 235.721 99.9574 235.777 100.329C235.832 100.698 235.881 101.01 235.913 101.269C236.213 100.716 236.602 100.162 237.077 99.6091C237.579 99.0331 238.158 98.529 238.798 98.1112C239.493 97.6539 240.246 97.2925 241.038 97.0368C241.942 96.7469 242.887 96.6043 243.837 96.6146C248.303 96.6146 251.161 98.3192 252.419 101.71C253.155 100.344 254.198 99.1549 255.551 98.1432C256.895 97.1254 258.603 96.6146 260.666 96.6146C263.92 96.6146 266.31 97.5131 267.843 99.3051C269.375 101.1 270.141 103.891 270.141 107.693V125.913C268.84 126.128 267.523 126.238 266.205 126.242C264.889 126.238 263.576 126.129 262.278 125.913V109.738C262.278 107.747 262.029 106.218 261.53 105.148C261.033 104.073 260.025 103.543 258.511 103.543C257.882 103.541 257.256 103.635 256.655 103.82C256.024 104.014 255.452 104.364 254.991 104.837C254.494 105.341 254.089 106.044 253.775 106.944C253.465 107.847 253.304 109.021 253.304 110.458V125.913C252.003 126.129 250.687 126.239 249.369 126.242C248.081 126.242 246.769 126.131 245.443 125.913V109.738C245.443 107.747 245.193 106.218 244.693 105.148C244.197 104.073 243.189 103.543 241.675 103.543C241.048 103.543 240.417 103.631 239.793 103.82C239.163 104 238.603 104.361 238.107 104.893C237.608 105.436 237.209 106.176 236.913 107.139C236.617 108.101 236.468 109.351 236.468 110.9V125.911C235.17 126.126 233.857 126.236 232.542 126.239C231.243 126.239 229.934 126.128 228.606 125.911M291.018 107.085C291.018 106.199 290.87 105.481 290.57 104.927C290.292 104.389 289.871 103.937 289.354 103.621C288.838 103.314 288.202 103.102 287.444 102.991C286.686 102.88 285.844 102.826 284.921 102.826C282.931 102.826 280.804 103.212 278.554 103.986C278.08 103.12 277.691 102.21 277.392 101.269C277.133 100.424 277.005 99.406 277.005 98.222C278.592 97.6788 280.222 97.272 281.878 97.006C283.504 96.75 285.017 96.6171 286.42 96.6171C290.26 96.6171 293.258 97.5402 295.417 99.39C297.579 101.231 298.657 104.188 298.657 108.245V124.861C297.365 125.267 295.8 125.651 293.95 126.023C292.104 126.393 290.016 126.578 287.694 126.578C285.814 126.578 284.088 126.412 282.516 126.079C280.947 125.742 279.599 125.191 278.473 124.418C277.364 123.657 276.469 122.626 275.871 121.422C275.263 120.204 274.96 118.709 274.96 116.94C274.96 115.17 275.337 113.682 276.093 112.482C276.829 111.304 277.834 110.317 279.027 109.604C280.27 108.867 281.627 108.341 283.043 108.05C284.52 107.731 285.997 107.578 287.473 107.578C288.541 107.578 289.726 107.634 291.021 107.746M291.018 112.789C290.57 112.716 290.095 112.652 289.574 112.595C289.115 112.543 288.652 112.515 288.19 112.511C286.381 112.511 284.957 112.839 283.898 113.479C282.848 114.127 282.32 115.173 282.32 116.611C282.32 117.571 282.526 118.304 282.931 118.825C283.313 119.323 283.818 119.714 284.395 119.96C284.973 120.2 285.581 120.354 286.228 120.408C286.868 120.466 287.432 120.485 287.914 120.485C288.468 120.485 289.023 120.442 289.576 120.356C290.129 120.253 290.609 120.178 291.018 120.098V112.789ZM304.307 87.0515C305.636 86.83 306.944 86.7192 308.233 86.7192C309.491 86.7192 310.785 86.83 312.113 87.0515V114.505C312.113 115.646 312.179 116.57 312.307 117.269C312.433 117.97 312.639 118.515 312.917 118.904C313.193 119.289 313.553 119.561 313.995 119.706C314.437 119.854 314.997 119.925 315.662 119.925C316.332 119.923 317.001 119.85 317.656 119.706C318.05 121.152 318.254 122.643 318.262 124.141V124.941C318.262 125.187 318.225 125.45 318.152 125.744C317.458 125.948 316.745 126.077 316.025 126.13C315.193 126.204 314.427 126.239 313.723 126.239C310.879 126.239 308.6 125.46 306.885 123.891C305.169 122.32 304.313 119.762 304.313 116.222M322.637 103.267H319.033V101.8L329.113 88.9186H330.385V97.278H337.083C337.197 97.8319 337.265 98.3303 337.306 98.7722C337.38 99.7316 337.38 100.695 337.306 101.655C337.265 102.136 337.199 102.668 337.085 103.266H330.385V114.508C330.385 115.648 330.478 116.573 330.661 117.273C330.846 117.972 331.115 118.524 331.464 118.93C331.802 119.332 332.256 119.622 332.763 119.76C333.284 119.911 333.894 119.983 334.597 119.983C335.15 119.983 335.689 119.939 336.228 119.844C336.763 119.752 337.233 119.673 337.637 119.594C337.898 120.304 338.084 121.039 338.191 121.788C338.346 122.794 338.393 123.815 338.33 124.831C338.315 125.1 338.287 125.368 338.248 125.634C336.524 126.041 334.758 126.245 332.986 126.242C329.629 126.242 327.064 125.461 325.293 123.892C323.521 122.32 322.637 119.763 322.637 116.222M357.69 107.085C357.69 106.199 357.542 105.481 357.242 104.927C356.963 104.388 356.542 103.937 356.024 103.621C355.509 103.314 354.872 103.102 354.113 102.991C353.279 102.876 352.438 102.821 351.595 102.826C349.601 102.826 347.475 103.212 345.224 103.986C344.75 103.12 344.361 102.21 344.062 101.269C343.807 100.424 343.674 99.406 343.674 98.222C345.261 97.6788 346.892 97.272 348.548 97.006C350.175 96.75 351.686 96.6171 353.089 96.6171C356.929 96.6171 359.93 97.5402 362.086 99.39C364.246 101.231 365.327 104.188 365.327 108.245V124.861C364.035 125.267 362.469 125.651 360.619 126.023C358.773 126.393 356.687 126.578 354.363 126.578C352.481 126.578 350.757 126.412 349.185 126.079C347.614 125.742 346.269 125.191 345.14 124.418C344.032 123.657 343.137 122.626 342.539 121.422C341.931 120.204 341.629 118.709 341.629 116.94C341.629 115.17 342.004 113.682 342.761 112.482C343.497 111.302 344.505 110.315 345.7 109.604C346.94 108.866 348.296 108.34 349.71 108.05C351.166 107.735 352.652 107.577 354.142 107.578C355.209 107.578 356.393 107.634 357.689 107.746M357.69 112.789C357.211 112.712 356.729 112.647 356.246 112.595C355.787 112.543 355.324 112.515 354.862 112.511C353.053 112.511 351.629 112.839 350.57 113.479C349.52 114.127 348.992 115.173 348.992 116.611C348.992 117.571 349.198 118.304 349.603 118.825C350.009 119.344 350.499 119.721 351.065 119.96C351.641 120.2 352.249 120.354 352.897 120.408C353.537 120.466 354.101 120.485 354.584 120.485C355.137 120.485 355.689 120.442 356.245 120.356C356.799 120.253 357.279 120.178 357.689 120.098V112.791L357.69 112.789Z" fill="white"/>
<defs>
<linearGradient id="paint0_linear_730_18617" x1="-421.781" y1="187.831" x2="692.332" y2="187.831" gradientUnits="userSpaceOnUse">
<stop stop-color="#DF2133"/>
<stop offset="0.35" stop-color="#DF2133"/>
<stop offset="0.358" stop-color="#E13230"/>
<stop offset="0.376" stop-color="#E55F29"/>
<stop offset="0.399" stop-color="#EDA61E"/>
<stop offset="0.4" stop-color="#EDA91E"/>
<stop offset="0.45" stop-color="#EDA91E"/>
<stop offset="0.546" stop-color="#E77027"/>
<stop offset="0.65" stop-color="#E13730"/>
<stop offset="0.7" stop-color="#DF2133"/>
<stop offset="1" stop-color="#DF2133"/>
</linearGradient>
<linearGradient id="paint1_linear_730_18617" x1="-421.112" y1="155.035" x2="692.462" y2="155.035" gradientUnits="userSpaceOnUse">
<stop stop-color="#DF2133"/>
<stop offset="0.17" stop-color="#DF2133"/>
<stop offset="0.211" stop-color="#D12330"/>
<stop offset="0.27" stop-color="#B6282A"/>
<stop offset="0.47" stop-color="#B6282A"/>
<stop offset="0.51" stop-color="#CD242F"/>
<stop offset="0.55" stop-color="#DF2133"/>
<stop offset="0.995" stop-color="#DC011F"/>
</linearGradient>
</defs>
</svg>
