<svg width="480" height="320" viewBox="0 0 480 320" fill="none" xmlns="http://www.w3.org/2000/svg">
<mask id="mask0_730_18724" style="mask-type:luminance" maskUnits="userSpaceOnUse" x="132" y="52" width="216" height="216">
<path d="M132.368 52.374H347.173V267.179H132.368V52.374Z" fill="white"/>
</mask>
<g mask="url(#mask0_730_18724)">
<mask id="mask1_730_18724" style="mask-type:luminance" maskUnits="userSpaceOnUse" x="133" y="53" width="214" height="214">
<path d="M133.333 160C133.333 218.91 181.092 266.667 239.994 266.667C298.914 266.667 346.667 218.91 346.667 160C346.667 101.092 298.914 53.3335 239.994 53.3335C181.092 53.3335 133.333 101.092 133.333 160Z" fill="white"/>
</mask>
<g mask="url(#mask1_730_18724)">
<path d="M346.667 160C346.667 218.91 298.914 266.667 239.994 266.667C181.092 266.667 133.333 218.91 133.333 160C133.333 101.092 181.092 53.3335 239.994 53.3335C298.914 53.3335 346.667 101.092 346.667 160Z" fill="#E32323"/>
</g>
</g>
<mask id="mask2_730_18724" style="mask-type:luminance" maskUnits="userSpaceOnUse" x="148" y="120" width="186" height="79">
<path d="M148.552 120.052H333.932V198.029H148.552V120.052Z" fill="white"/>
</mask>
<g mask="url(#mask2_730_18724)">
<mask id="mask3_730_18724" style="mask-type:luminance" maskUnits="userSpaceOnUse" x="133" y="53" width="214" height="214">
<path d="M133.333 160C133.333 218.91 181.092 266.667 239.994 266.667C298.914 266.667 346.667 218.91 346.667 160C346.667 101.092 298.914 53.3335 239.994 53.3335C181.092 53.3335 133.333 101.092 133.333 160Z" fill="white"/>
</mask>
<g mask="url(#mask3_730_18724)">
<path d="M209.972 138.667C212.384 138.23 214.179 139.697 214 141.926C213.816 144.156 211.708 146.328 209.299 146.759C206.903 147.185 205.099 145.718 205.287 143.49C205.472 141.259 207.563 139.11 209.972 138.667ZM184.035 154.656C186.121 146.885 188.65 138.949 191.15 133.023C186.109 139.627 180.713 148.03 175.852 156.42C178.679 155.754 181.432 155.167 184.035 154.655M226.943 148.598C228.827 148.259 233.047 150.811 231.03 153.185C228.932 155.622 226.563 155.133 222.839 156.684C220.735 157.558 219.116 159.45 216.812 162.765C213.873 167.075 212.53 171.293 212.287 174.461C212.271 175.403 212.196 175.874 211.696 176.197C206.782 179.409 205.271 176.995 205.397 174.046C205.427 173.352 205.667 172.248 206.104 170.898C202.323 176.564 198.977 179.431 196.788 179.828C193.851 180.358 192.197 178.317 192.512 174.552C192.656 172.834 193.174 170.823 194.132 168.282C195.138 165.701 196.724 162.179 198.19 159.288C198.563 158.535 198.925 157.817 199.23 157.168C197.007 157.599 193.845 158.254 190.127 159.098C190.076 159.225 190.035 159.288 189.989 159.3C188.409 166.678 188.282 169.466 187.432 175.903C187.07 178.719 187.616 181.748 184.26 182.213C180.908 182.696 179.793 179.241 179.771 176.294C179.73 173.293 180.282 169.684 182.409 160.955C178.78 161.876 175.173 162.884 171.592 163.977C171.57 164.023 171.541 164.066 171.507 164.103C165.454 175.185 159.484 188.891 158.495 193.323C157.708 196.88 156.097 197.966 153.735 196.938C151.38 195.903 150.006 193.529 150.862 190.88C152.42 186.121 157.15 175.448 161.367 167.787C161.339 167.805 161.367 167.696 161.465 167.501C158.38 168.701 155.507 169.988 152.995 171.374C151.333 172.265 149.258 171.444 148.857 169.593C148.576 168.283 147.949 165.691 151.156 164.281C156.001 162.167 161.242 160.368 166.484 158.857C177.602 140.144 191.425 120.891 195.402 121.243C197.12 121.391 196.849 123.254 198.366 124.937C199.867 126.614 200.085 127.644 198.293 132.093C194.615 141.219 194.907 139.092 191.378 153.34C197.85 152.266 203.482 151.645 204.004 151.564C205.792 151.311 208.867 152.529 207.241 156.011C207.241 156.011 205.539 159.013 204.866 160.293C203.654 162.42 202.08 165.61 201.125 167.771C200.522 169.041 200.247 170.012 200.199 170.724C200.148 171.19 200.326 171.449 200.7 171.38C201.194 171.293 201.918 170.759 202.792 169.85C203.642 168.857 206.521 166.5 211.655 157.845L213.011 155.04C213.447 154.202 214.074 152.731 214.194 152.058C214.338 151.052 214.372 150.788 215.212 150.259C216.567 149.397 219.023 148.679 220.435 149.604C221.77 150.484 221.424 152.076 220.315 154.012C224.792 148.971 225.942 148.765 226.941 148.598M314.545 163.174C317.062 160.075 320.959 152.978 321.201 151.036C321.315 150.144 321.056 149.794 320.355 149.885C319.493 150 317.55 151.587 315.7 153.846C312.998 157.097 309.35 163.644 309.069 165.806C308.948 166.69 309.31 167.265 309.929 167.19C310.93 167.058 312.66 165.553 314.545 163.174ZM329.631 158.046C330.723 156.31 333.04 156.88 332.419 158.477C331.884 159.857 330.873 162.104 328.298 165.144C325.132 169.041 322.211 170.932 319.573 171.282C317.453 171.58 315.941 170.667 315.573 168.766L315.452 168.374C315.447 168.041 315.276 167.874 315.091 167.904C314.901 167.926 314.758 168.07 314.402 168.404C311.729 171.236 309.684 172.984 307.212 173.322C303.516 173.805 301.367 170.92 301.89 166.736C300.908 168.202 299.884 169.604 298.948 170.645C296.063 173.845 293.695 175.885 291.499 176.174C288.539 176.564 286.988 174.455 287.488 170.72C287.712 169.013 288.344 167.03 289.43 164.511C290.79 161.519 292.286 158.592 293.913 155.736C295.2 153.426 296.447 150.816 296.636 149.932C296.787 149.23 296.862 149.094 297.413 148.736C298.097 148.248 299.458 147.672 300.287 147.603C302.373 147.449 305.149 148.96 303.315 152.092L302.62 153.282C302.521 153.529 301.269 155.794 300.546 157.034C299.211 159.116 297.51 162.225 296.436 164.329C295.774 165.581 295.454 166.541 295.367 167.236C295.293 167.702 295.454 167.977 295.815 167.927C296.326 167.862 297.081 167.362 297.993 166.478C298.935 165.495 299.505 164.845 301.598 162.08L302.355 161.121C302.958 160.334 307.724 154.103 309.154 152.564C312.998 147.977 317.339 144.725 320.125 144.369C321.958 144.115 323.436 144.949 324.142 146.638C324.648 148.024 324.745 148.115 325.971 148.645C327.93 149.42 328.575 150.081 328.425 151.081C328.35 151.787 328.086 152.339 326.839 154.299C325.958 155.81 325.113 157.341 324.304 158.891C322.85 161.77 322.051 163.736 323.465 164.236C323.999 164.42 324.988 163.909 326.224 162.603C327.592 161.155 328.557 159.725 329.631 158.046ZM304.386 143.593C306.794 143.161 308.891 140.994 309.08 138.759C309.254 136.529 307.455 135.075 305.064 135.506C302.655 135.938 300.547 138.105 300.368 140.34C300.179 142.57 301.989 144.024 304.386 143.593ZM267.833 133.017C262.828 139.586 257.455 147.955 252.587 156.312C255.437 155.655 258.173 155.098 260.73 154.609C262.834 146.863 265.34 138.937 267.833 133.019M269.087 153.207C270.523 153.001 275.196 152.442 275.018 154.403C274.743 157.564 273.552 157.518 269.374 158.408C268.587 158.586 267.741 158.77 266.862 158.954C266.799 159.167 266.73 159.292 266.684 159.3C265.11 166.685 264.984 169.478 264.122 175.903C263.748 178.719 264.298 181.748 260.949 182.213C257.592 182.702 256.437 179.241 256.455 176.299C256.467 171.082 259.099 160.862 259.115 160.799C255.701 161.667 252.047 162.656 248.408 163.793C244.068 171.155 236.173 188.893 235.196 193.329C234.398 196.88 232.794 197.966 230.425 196.926C228.07 195.903 226.747 193.546 227.558 190.879C229.759 183.54 238.076 167.651 238.208 167.362C235.121 168.598 232.248 169.931 229.765 171.345C228.23 172.219 226.27 171.386 225.851 169.541C225.58 168.219 224.965 165.638 227.967 164.265C232.782 162.075 238.012 160.235 243.241 158.73C254.345 140.053 268.116 120.891 272.081 121.247C273.811 121.391 273.541 123.254 275.053 124.937C276.558 126.61 276.77 127.644 274.965 132.093C271.312 141.23 271.61 139.098 268.069 153.363C268.421 153.316 268.747 153.26 269.087 153.207ZM274.389 179.094C277.136 178.812 285.155 177.059 285.234 168.255C285.252 164.846 281.993 163.047 281.206 160.674C280.694 159.209 280.814 156.181 283.132 155.267C285.993 154.14 286.585 156.025 287.575 157.427C287.982 158.008 289.292 157.87 289.741 157.397C290.367 156.75 291.281 155.779 291.671 154.128C292.023 152.617 290.419 150.082 285.756 150.238C284.125 150.272 281.827 150.553 278.562 153.663C277.057 155.093 272.263 161.652 275.811 167.273C276.768 168.801 279.068 170.668 277.591 172.106C275.281 174.33 271.315 170.882 270.563 169.84C270.217 169.365 269.234 168.801 268.591 169.749C268.217 170.294 266.436 173.468 266.712 174.641C267.51 178.301 272.234 179.312 274.389 179.094Z" fill="white"/>
</g>
</g>
</svg>
