<svg width="480" height="320" viewBox="0 0 480 320" fill="none" xmlns="http://www.w3.org/2000/svg">
<mask id="mask0_730_18669" style="mask-type:luminance" maskUnits="userSpaceOnUse" x="133" y="53" width="214" height="214">
<path d="M133.333 159.999C133.333 218.907 181.092 266.667 239.996 266.667C298.915 266.667 346.667 218.907 346.667 159.999C346.667 101.092 298.915 53.3335 239.996 53.3335C181.091 53.3342 133.333 101.092 133.333 159.999Z" fill="white"/>
</mask>
<g mask="url(#mask0_730_18669)">
<path d="M346.667 159.999C346.667 218.907 298.915 266.667 239.996 266.667C181.092 266.667 133.333 218.907 133.333 159.999C133.333 101.092 181.092 53.3335 239.996 53.3335C298.914 53.3342 346.667 101.092 346.667 159.999Z" fill="#E32526"/>
</g>
<mask id="mask1_730_18669" style="mask-type:luminance" maskUnits="userSpaceOnUse" x="133" y="53" width="214" height="214">
<path d="M133.333 159.999C133.333 218.907 181.092 266.667 239.996 266.667C298.915 266.667 346.667 218.907 346.667 159.999C346.667 101.092 298.915 53.3335 239.996 53.3335C181.091 53.3342 133.333 101.092 133.333 159.999Z" fill="white"/>
</mask>
<g mask="url(#mask1_730_18669)">
<path d="M209.973 138.665C212.385 138.229 214.178 139.695 213.998 141.925C213.818 144.152 211.709 146.328 209.301 146.758C206.905 147.185 205.097 145.719 205.288 143.488C205.471 141.258 207.565 139.107 209.973 138.665ZM184.035 154.655C186.123 146.882 188.65 138.946 191.15 133.019C186.112 139.624 180.713 148.027 175.849 156.417C178.68 155.754 181.434 155.166 184.035 154.655ZM226.946 148.598C228.826 148.256 233.049 150.812 231.029 153.181C228.93 155.618 226.561 155.132 222.842 156.684C220.735 157.558 219.118 159.445 216.809 162.766C213.874 167.072 212.529 171.291 212.288 174.46C212.268 175.401 212.193 175.871 211.696 176.196C206.782 179.405 205.27 176.993 205.395 174.045C205.426 173.349 205.67 172.248 206.104 170.893C202.323 176.563 198.975 179.43 196.786 179.824C193.852 180.354 192.196 178.317 192.511 174.549C192.656 172.835 193.171 170.82 194.131 168.28C195.138 165.702 196.724 162.177 198.192 159.289C198.566 158.536 198.928 157.814 199.233 157.167C196.187 157.762 193.15 158.406 190.125 159.099C190.075 159.221 190.033 159.288 189.987 159.295C188.407 166.68 188.282 169.463 187.43 175.901C187.07 178.717 187.613 181.747 184.259 182.21C180.906 182.696 179.793 179.243 179.773 176.294C179.73 173.292 180.284 169.685 182.406 160.952C178.779 161.874 175.174 162.883 171.595 163.978C171.544 164.06 171.508 164.103 171.508 164.103C165.456 175.181 159.482 188.889 158.494 193.322C157.706 196.876 156.101 197.965 153.738 196.935C151.379 195.901 150.006 193.525 150.864 190.876C152.418 186.121 157.152 175.448 161.368 167.787C161.337 167.801 161.368 167.696 161.468 167.501C158.377 168.702 155.504 169.989 152.993 171.374C151.337 172.265 149.258 171.441 148.859 169.592C148.574 168.28 147.947 165.69 151.155 164.282C156.001 162.164 161.244 160.369 166.481 158.854C177.603 140.142 191.427 120.889 195.402 121.241C197.123 121.39 196.851 123.249 198.369 124.935C199.866 126.613 200.085 127.64 198.292 132.089C194.616 141.219 194.909 139.093 191.381 153.337C197.85 152.264 203.48 151.645 204.008 151.564C205.793 151.31 208.866 152.526 207.242 156.013C207.242 156.013 205.539 159.011 204.868 160.294C203.654 162.418 202.079 165.61 201.129 167.767C200.525 169.039 200.25 170.011 200.201 170.723C200.152 171.186 200.325 171.448 200.699 171.381C201.194 171.291 201.92 170.756 202.796 169.85C203.647 168.855 206.521 166.497 211.658 157.842L213.013 155.038C213.45 154.203 214.076 152.73 214.196 152.054C214.338 151.049 214.376 150.788 215.216 150.259C216.572 149.394 219.022 148.678 220.437 149.601C221.768 150.482 221.423 152.077 220.318 154.011C224.795 148.97 225.946 148.763 226.946 148.598ZM314.547 163.171C317.064 160.076 320.959 152.974 321.202 151.035C321.314 150.145 321.058 149.793 320.358 149.884C319.493 149.998 317.552 151.584 315.704 153.847C312.998 157.094 309.353 163.645 309.068 165.803C308.948 166.686 309.308 167.266 309.931 167.192C310.932 167.054 312.662 165.552 314.547 163.171ZM329.63 158.047C330.724 156.31 333.04 156.878 332.421 158.475C331.886 159.857 330.875 162.101 328.298 165.145C325.131 169.039 322.214 170.928 319.578 171.278C317.452 171.577 315.945 170.667 315.578 168.762L315.454 168.375C315.447 168.039 315.279 167.872 315.094 167.903C314.9 167.924 314.758 168.068 314.403 168.404C311.729 171.238 309.684 172.98 307.212 173.319C303.52 173.801 301.371 170.919 301.894 166.737C300.906 168.199 299.886 169.604 298.946 170.641C296.061 173.846 293.696 175.882 291.502 176.169C288.541 176.565 286.991 174.454 287.49 170.715C287.713 169.012 288.347 167.028 289.431 164.51C290.556 162 292.302 158.548 293.915 155.733C295.203 153.426 296.447 150.817 296.64 149.928C296.789 149.227 296.865 149.092 297.413 148.736C298.1 148.248 299.458 147.669 300.285 147.603C302.375 147.446 305.148 148.957 303.314 152.09L302.622 153.282C302.523 153.527 301.268 155.794 300.546 157.032C299.215 159.117 297.51 162.224 296.44 164.327C295.776 165.579 295.454 166.537 295.366 167.234C295.293 167.701 295.454 167.979 295.818 167.924C296.33 167.861 297.082 167.359 297.997 166.476C298.935 165.494 299.508 164.843 301.598 162.077L302.357 161.12C302.96 160.333 307.724 154.103 309.156 152.561C312.999 147.975 317.339 144.725 320.127 144.365C321.958 144.113 323.435 144.948 324.147 146.64C324.649 148.02 324.749 148.115 325.973 148.644C327.932 149.421 328.575 150.079 328.424 151.077C328.351 151.789 328.084 152.341 326.839 154.298C325.956 155.807 325.112 157.338 324.307 158.89C322.851 161.771 322.055 163.733 323.466 164.233C324.001 164.418 324.99 163.909 326.224 162.602C327.59 161.155 328.556 159.722 329.63 158.047ZM304.387 143.589C306.791 143.161 308.891 140.994 309.081 138.758C309.254 136.526 307.455 135.073 305.062 135.504C302.653 135.936 300.545 138.1 300.369 140.34C300.177 142.566 301.988 144.021 304.387 143.589ZM267.833 133.015C262.83 139.585 257.457 147.952 252.587 156.308C255.29 155.691 258.004 155.125 260.729 154.61C262.831 146.864 265.338 138.933 267.833 133.015ZM269.089 153.209C270.526 152.997 275.198 152.443 275.018 154.403C274.743 157.561 273.554 157.514 269.375 158.41C268.539 158.597 267.701 158.778 266.862 158.955C266.798 159.167 266.731 159.29 266.682 159.298C265.108 166.682 264.984 169.474 264.119 175.904C263.748 178.72 264.299 181.749 260.947 182.212C257.595 182.698 256.437 179.243 256.457 176.297C256.469 171.082 259.099 160.859 259.113 160.799C255.702 161.668 252.045 162.656 248.407 163.792C244.072 171.154 236.171 188.891 235.194 193.324C234.398 196.878 232.795 197.967 230.425 196.926C228.067 195.903 226.75 193.548 227.558 190.878C229.759 183.54 238.076 167.646 238.207 167.359C235.122 168.599 232.246 169.929 229.766 171.344C228.23 172.217 226.27 171.384 225.854 169.542C225.579 168.217 224.968 165.636 227.969 164.265C232.781 162.072 238.014 160.237 243.239 158.73C254.343 140.053 268.115 120.891 272.083 121.245C273.812 121.391 273.543 123.252 275.054 124.936C276.559 126.61 276.771 127.642 274.968 132.09C271.309 141.227 271.61 139.094 268.07 153.363C268.418 153.315 268.749 153.259 269.089 153.209ZM274.394 179.093C277.137 178.812 285.155 177.054 285.236 168.251C285.254 164.843 281.997 163.047 281.206 160.672C280.695 159.204 280.818 156.176 283.134 155.266C285.995 154.139 286.587 156.02 287.575 157.425C287.985 158.002 289.296 157.865 289.744 157.396C290.368 156.747 291.28 155.776 291.674 154.128C292.021 152.617 290.417 150.078 285.758 150.235C284.129 150.271 281.825 150.549 278.562 153.661C277.057 155.093 272.266 161.646 275.812 167.272C276.769 168.799 279.071 170.666 277.591 172.1C275.282 174.326 271.315 170.879 270.561 169.838C270.221 169.359 269.237 168.799 268.59 169.748C268.217 170.292 266.437 173.464 266.712 174.637C267.514 178.297 272.236 179.309 274.394 179.093Z" fill="white"/>
</g>
</svg>
