<svg width="480" height="320" viewBox="0 0 480 320" fill="none" xmlns="http://www.w3.org/2000/svg">
<path d="M254.981 82.4338C255.137 82.4166 255.29 82.3779 255.435 82.3188C255.278 82.3561 255.123 82.3873 254.981 82.433V82.4338ZM256.23 81.7805C256.23 81.7957 256.222 81.801 256.222 81.8094C256.23 81.8048 256.23 81.8048 256.23 81.801V81.7805ZM160.916 262.242C160.756 262.342 160.583 262.422 160.439 262.541C160.599 262.429 160.76 262.333 160.916 262.242ZM157.339 170.381L158.243 170.86L157.339 171.501C158.9 171.681 159.245 170.804 160.024 170.292C158.868 170.452 158.647 168.791 157.339 170.381ZM231.549 90.7739C231.538 90.8014 231.527 90.8173 231.527 90.8402C231.554 90.8242 231.581 90.8036 231.608 90.7892L231.549 90.7739ZM231.528 90.8402C231.234 91.0077 230.917 91.1676 230.576 91.3176C230.947 91.2049 231.387 91.1638 231.528 90.8402ZM256.221 81.8094C255.96 81.9799 255.765 82.1886 255.435 82.3188C255.784 82.232 256.121 82.133 256.221 81.8086V81.8094ZM257.267 80.3093L255.482 80.1251L255.623 81.2094L257.267 80.3093ZM258.257 84.9153L258.168 84.7235L256.774 85.4293L257.051 85.6669L258.257 84.9153ZM256.387 86.4535L256.249 86.1626L254.916 86.6217L255.046 86.9149L256.387 86.4535ZM244.602 92.9372L243.695 93.5837L244.441 93.3294L244.602 92.9372ZM257.074 84.4135L255.82 85.405L256.856 85.0547C257.107 84.8598 257.359 84.6572 257.074 84.4135ZM258.841 81.1203C257.853 81.2307 257.913 82.1102 256.968 81.5307C256.702 81.5543 256.447 81.6478 256.229 81.8018C256.296 82.2229 258.542 82.3325 258.841 81.1203ZM276.299 65.273C276.237 65.303 276.184 65.3461 276.141 65.3993C276.098 65.4525 276.068 65.5144 276.052 65.5806C276.178 65.4991 276.271 65.3963 276.299 65.273ZM257.919 79.8585C258.53 79.5859 257.943 79.5045 257.745 79.3697C257.469 79.6096 258.028 79.2136 257.919 79.8585ZM268.873 72.3004L268.785 72.1123L267.387 72.8098L267.673 73.0481L268.873 72.3004ZM275.562 66.3063C276.13 66.1958 275.984 65.8585 276.052 65.5806C275.618 65.8349 274.834 65.8585 275.562 66.3063ZM346.705 193.085L345.919 192.313L345.387 193.399C345.813 193.219 346.376 192.733 346.705 193.085ZM169.201 156.894C169.226 156.876 169.252 156.86 169.279 156.844L169.561 156.547L169.201 156.894ZM267.004 73.8347L266.869 73.5476L265.531 73.9992L265.664 74.3L267.004 73.8347ZM271.314 72.0263L271.079 71.8816L270.124 72.4336L270.374 72.5776L271.314 72.0263ZM264.807 78.0722C263.49 78.178 262.463 79.321 262.824 80.0961C265.041 79.34 262.353 78.6867 264.807 78.0729V78.0722ZM257.746 79.3712C257.819 79.305 257.959 79.1839 258.207 78.9776C257.625 79.1717 257.608 79.2852 257.746 79.3712ZM258.926 84.3458L259.738 83.5036L259.505 83.3666L258.544 84.2559L258.926 84.3458ZM262.315 80.4928L260.233 81.5467L261.699 81.038L262.315 80.4928ZM259.758 85.1887L260.698 84.645L260.462 84.4973L259.506 85.0486L259.758 85.1887ZM168.055 250.972L170.218 249.762C169.357 249.691 168.673 250.525 168.055 250.972H168.055ZM344.905 211.581C345.067 211.264 347.238 207.325 348.825 204.507C348.796 204.535 348.75 204.547 348.721 204.562C349.118 203.047 346.156 203.702 348.165 201.619C346.006 197.902 345.952 194.621 343.108 192.291L344.306 191.531C344.231 190.35 343.499 189.8 343.063 189.012L342.534 190.09C341.738 189.702 342.33 188.468 342.228 187.646C339.877 186.696 337.1 183.239 335.817 182.806C335.016 181.069 333.675 180.417 333.619 178.492L333.785 178.381C327.827 172.83 323.378 168.28 316.296 164.115C316.362 162.615 313.783 162.119 315.558 160.883L315.819 161.011L312.197 157.912C311.969 158.376 311.886 158.902 311.405 158.86C308.851 154.923 304.908 151.162 301.25 147.742L301.367 147.577C304.172 143.792 307.712 139.823 311.426 135.738C311.427 135.73 311.452 135.711 311.459 135.695L312.069 135.01C316.616 129.993 321.357 124.815 325.235 119.584C337.542 105.953 349.816 91.2597 341.914 77.9009C331.764 71.3676 315.213 61.6386 298.01 68.6416C297.905 68.3842 297.669 68.1847 297.647 67.9655C295.441 71.8428 296.575 65.7451 292.959 66.5438C291.453 65.4846 289.217 65.461 288.491 64.2511C285.628 67.3548 286.062 62.2789 282.843 63.4858L282.336 64.9988C282.205 63.5894 281.22 64.8191 279.639 64.3623C279.672 64.7963 280.333 65.1313 279.723 65.6735C278.205 66.0793 279.803 65.0902 278.541 64.96C277.909 65.0613 277.795 65.5463 277.432 65.8996C277.566 66.1875 277.55 66.5294 278.042 66.47C277.144 67.8939 276.079 67.8124 274.623 68.7604C274.92 68.6614 275.464 68.3645 275.75 68.5997L275.585 68.998C276.336 68.4025 277.774 70.0465 277.885 68.7711C278.152 68.682 278.41 68.5518 278.626 68.5244V68.5221C279.401 65.8836 281.495 68.5952 282.184 68.6386C281.572 68.6766 281.444 69.1282 281.023 69.2805L280.266 68.749C279.044 69.8302 281.033 68.9432 280.366 69.7229C278.605 69.9833 279.303 71.5427 277.111 70.8346L277.979 69.7511C277.522 70.2475 276.78 70.4973 276.111 70.1653C276.159 70.1028 276.19 70.0328 276.241 69.9521L275.464 70.6107C274.288 70.6739 274.769 69.8356 274.19 69.6955C273.062 69.8554 272.398 70.6473 271.894 71.0455L273.694 71.2207C274.377 73.1189 271.257 72.2737 270.876 74.0898C269.542 74.5436 269.328 72.9271 267.92 73.9779C267.459 74.0502 267.698 74.3007 267.644 74.5048C268.17 74.1058 268.713 73.9527 269.399 74.5939L268.878 75.3386C265.251 76.0307 268.489 78.3197 265.265 78.7978C265.443 78.644 265.379 78.4095 265.434 78.1993C265.033 78.4407 264.333 78.4811 264.843 78.8489C264.836 78.8489 264.83 78.8519 264.83 78.8519C264.843 78.8671 264.862 78.8671 264.882 78.8869C264.9 78.8946 264.913 78.9121 264.947 78.9303C264.961 78.9258 264.961 78.9258 264.974 78.9258C265.593 79.2037 266.246 78.8755 266.853 78.6136C266.942 78.8755 266.991 79.1451 267.416 79.0933C267.326 79.2555 267.226 79.3796 267.122 79.5068C265.265 80.1905 262.277 80.9627 261.641 82.5221L263.336 82.3698C262.353 82.6013 261.742 83.2942 261.273 83.662L263.07 83.8371C263.237 84.2833 263.18 84.5681 263.002 84.792C262.736 84.8697 262.428 84.84 262.117 84.6016C261.619 84.9953 260.192 85.2626 260.345 86.3393C260.364 86.3297 260.384 86.3243 260.405 86.3233C260.34 86.444 260.291 86.5728 260.26 86.7063C258.928 87.1601 258.711 85.5519 257.302 86.589C256.836 86.6712 257.074 86.9164 257.024 87.1213C257.54 86.7405 258.069 86.5844 258.731 87.1746L255.971 88.3929L255.838 88.099C256.164 87.8614 256.472 87.5751 256.763 87.3322L255.82 87.103L255.565 87.5012L255.532 87.419C254.748 87.5705 254.246 87.9741 253.975 88.5079L252.63 88.1865C252.321 87.5035 253.89 87.1913 253.133 86.6629C251.328 86.8357 253.501 87.103 252.707 87.5995C250.964 88.303 250.989 86.8395 250.619 86.4009C249.671 86.4443 251.163 90.9057 252.015 93.9994L251.794 94.0748C251.716 93.5388 249.946 93.7992 250.814 93.0522C250.328 93.1146 249.87 93.605 249.352 93.2174C249.456 93.0796 249.518 92.8245 250.002 92.7743L249.785 92.2854C247.413 93.0987 248.987 90.5356 248.423 91.1813L247.566 91.9199L246.814 91.3945C246.794 91.7372 246.099 92.0852 246.38 92.3273C246.868 92.277 246.924 92.028 247.035 91.878L248.373 92.2154L247.65 93.2487C247.467 93.1984 247.113 93.1984 247.183 92.9578L245.697 93.4603L247.038 93.7923L246.661 94.4769C246.018 95.2787 244.934 95.1264 244.105 94.9071C244.175 94.7853 243.869 94.3832 243.591 94.0748C238.595 92.3281 240.341 92.6585 237.139 94.5363L238.743 97.2942C237.975 97.6932 237.026 97.8463 235.984 97.8722C229.621 91.9451 222.149 84.7295 213.918 75.848C209.535 74.287 208.034 69.9193 203.585 68.5106C203.426 60.0266 194.275 59.7601 188.399 56.5163C179.035 50.6074 167.53 54.1604 157.071 57.2686C146.415 60.0768 134.129 65.9141 130.012 78.4148C126.248 104.462 148.572 115.739 160.912 131.503C165.856 137.382 171.616 142.346 177.797 146.818C177.094 147.358 176.568 147.952 176.283 148.177C177.113 150.022 170.762 151.858 172.019 153.119C171.231 153.275 171.258 153.709 170.672 153.914C171.412 153.85 172.55 153.323 173.756 152.904C173.238 153.443 172.831 153.897 172.425 154.319C171.024 154.688 168.735 156.444 169.431 156.463C169.682 156.335 169.907 156.288 170.135 156.284C169.881 156.463 169.599 156.651 169.278 156.844L169.053 157.08C168.77 157.036 168.441 157.176 167.957 157.761L168.265 157.923L168.175 158.026L168.735 158.322L167.958 158.884C167.982 158.889 168.006 158.891 168.031 158.89C166.874 159.484 166.059 160.482 165.663 160.803C165.875 161.255 165.641 161.708 165.193 162.158L165.029 162.244L165.136 162.209C163.738 163.547 160.471 164.803 161.397 165.733C160.607 165.895 160.646 166.325 160.048 166.531C161.367 166.419 163.919 164.877 165.856 164.992C165.796 165.243 165.737 165.497 165.402 165.497C165.115 165.768 164.317 165.932 164.34 166.285L164.302 166.311C164.258 166.436 164.197 166.555 164.12 166.664L162.649 166.991C161.807 166.265 157.933 169.05 158.81 169.092C159.909 168.491 160.783 169.652 161.183 168.281L162.15 168.456C161.414 169.022 160.733 169.552 160.556 170.049C160.368 170.104 160.189 170.186 160.024 170.292C160.18 170.277 160.345 170.223 160.545 170.124C160.522 170.186 160.512 170.252 160.515 170.318C160.519 170.384 160.536 170.449 160.565 170.508C159.68 170.911 159.305 171.475 158.986 172.035C158.725 172.124 158.455 172.19 158.182 172.231L158.386 171.929C157.99 172.183 157.114 172.14 156.988 172.629C157.623 172.461 158.261 172.307 158.902 172.168C158.533 172.823 158.174 173.454 157.103 173.817L157.53 174.01C155.832 177.064 151.534 178.53 149.938 181.438C147.669 182.438 147.203 184.837 145.442 186.228L146.581 186.392C146.552 186.413 146.521 186.43 146.487 186.442L146.918 186.626C145.216 189.676 140.919 191.147 139.322 194.053C137.045 195.062 136.583 197.458 134.822 198.844L137.573 199.258C137.054 199.996 136.493 200.638 135.449 200.99C136.767 200.878 138.16 200.175 139.526 200.16L137.46 202.772L142.053 201.201L140.508 203.08L143.24 201.93C145.74 201.408 143.987 203.58 145.034 204.002C147.645 203.347 145.415 206.347 148.259 205.827L146.624 207.507L147.358 207.259C148.654 208.608 145.679 211.091 145.564 212.361L145.034 212.318C143.862 213.506 145.415 213.539 145.786 213.973C146.092 214.655 144.859 214.955 144.408 215.462L146.017 215.241C145.082 216.567 144.428 217.021 143.207 218.106L143.947 217.856C144.146 217.904 144.483 217.899 144.428 218.142C144.408 218.491 143.818 218.686 143.516 218.791L143.743 219.275C143.442 219.378 141.207 219.361 141.306 220.328C142.785 220.952 141.756 219.058 143 219.531C143.023 221.088 139.599 222.599 138.739 224.465C137.639 226.193 138.758 227.155 136.101 228.851C135.679 229.443 134.595 230.824 135.976 230.464L133.108 234.696C135.842 234.325 133.585 236.896 134.591 237.225C137.936 237.431 135.2 240.834 138.43 240.408C138.105 241.19 137.054 241.887 137.757 242.321C139.193 240.589 140.023 242.788 141.92 241.69C142.39 241.979 141.936 242.472 141.619 242.918L143.837 242.153C144.878 241.797 145.082 242.632 145.708 242.863L144.753 243.414L146.455 243.395C146.184 243.931 145.598 244.134 145.289 244.58C146.259 244.468 146.631 243.787 147.289 243.337C148.841 242.242 151.421 242.26 152.842 241.998L151.373 243.284L155.432 241.677C155.501 242.218 154.938 242.85 153.963 242.962L154.273 243.646C155.705 243.034 156.634 242.045 158.268 242.277C157.796 243.114 157.036 243.713 156.281 244.302C157.094 245.711 156.299 248.123 155.057 248.764L157.142 248.841L156.639 250.36C158.571 250.488 159 249.551 160.483 249.05C159.567 251.165 162.501 250.835 163.238 250.577C165.399 250.069 167.413 248.47 169.918 249.084C172.178 248.418 171.887 248.521 173.517 246.844L174.289 247.027C174.532 246.051 176.825 245.826 177.079 245.626L176.504 245.48C177.963 245.325 177.06 244.068 178.914 244.427L178.927 244.435L178.73 244.731L180.632 244.41C181.07 244.303 181.423 244.303 181.725 244.368C179.463 245.287 176.078 245.249 174.966 247.579L176.52 247.614C175.792 248.748 174.047 248.827 172.56 249.233C174.575 248.722 176.352 249.625 177.569 248.04C176.528 249.512 176.137 250.55 173.722 251.26L175.883 250.742C174.611 251.616 174.336 252.903 174.137 253.963C173.261 253.818 172.317 253.685 171.735 254.978L173.217 254.471C172.826 258.532 166.009 256.7 164.343 260.189L165.9 260.223C165.179 261.371 163.426 261.446 161.941 261.857C163.951 261.34 165.738 262.24 166.949 260.657C165.908 262.13 165.517 263.168 163.105 263.874L165.274 263.359C163.958 264.254 163.701 265.582 163.504 266.666C167.258 265.497 170.076 263.406 171.79 261.138C174.235 259.736 176.957 258.585 178.14 256.265C177.404 253.143 184.51 254.094 185.582 250.808C183.779 249.847 186.821 248.252 184.991 247.975C185.539 247.675 185.86 248.019 186.387 248.053C186.028 247.622 189.405 247.148 188.028 246.378C194.214 243.031 197.44 238.455 203.3 234.757C208.161 229.624 215.313 224.254 221.761 219.244C226.355 217.001 236.964 207.762 249.212 196.449C251.188 198.028 252.944 199.923 255.385 200.912C254.603 207.596 262.332 206.026 263.873 209.639L264.396 208.561C264.788 210.847 266.633 210.798 268.019 211.662L267.645 212.437C272.817 214.379 273.514 221.79 280.016 223.052C284.757 234.729 298.286 236.182 306.6 244.252C310.575 242.557 313.309 245.797 316.617 246.462C316.908 243.164 320.911 246.839 320.961 245.716L320.841 245.277L323.933 246.405C323.186 244.888 320.576 245.152 320.258 243.079C318.777 240.991 314.996 241.264 314.123 239.188C314.316 239.254 314.635 239.319 314.68 239.044L314.256 239.222C314.195 239.194 314.145 239.178 314.105 239.156C313.969 238.811 313.915 238.414 313.945 237.928C314.145 238.294 314.619 238.579 314.68 239.044L315.304 238.783C315.7 241.287 317.126 240.362 318.123 240.833C317.067 239.612 315.758 238.642 314.586 237.338L314.48 236.256L316.461 236.269L315.599 233.937C317.654 234.172 320.439 235.916 321.424 238.309C326.109 237.539 330.71 241.69 334.647 243.803C334.868 243.344 335.099 242.872 335.58 242.924L336.25 244.589C337.295 244.139 338.232 245.944 339.187 246.022L339.312 244.747L339.982 245.07C340.793 243.755 339.987 243.36 339.916 242.175L342.826 242.639C342.708 242.207 342.248 241.791 342.686 241.237C343.041 240.835 343.503 241.257 343.777 241.389C343.746 240.429 343.42 237.017 342.749 235.348C343.546 235.737 343.922 231.913 345.514 233.064L345.336 232.414L346.935 231.847C346.921 232.226 347.104 232.513 346.825 232.752L347.091 232.886L347.467 232.116L347.193 231.983C350.324 231.026 347.277 228.772 347.55 227.186L349.385 227.508C348.038 225.516 346.51 224.584 346.149 221.925L346.642 221.587C345.137 221.622 345.032 219.469 343.839 218.503L345.531 217.421L345.238 216.32L344.752 216.652C346.006 214.411 343.413 214.286 344.011 211.717C344.221 211.628 344.514 211.382 344.905 211.58V211.581ZM174.279 253.989C174.906 253.793 175.52 253.562 176.12 253.296C175.76 254.212 175.054 254.121 174.279 253.989ZM252.196 96.8549L252.536 96.4582C252.547 96.8336 252.454 96.9942 252.196 96.8541V96.8549ZM262.735 85.0174C262.443 85.1887 262.039 85.2991 261.64 85.4468C261.663 85.0661 261.579 84.7745 262.735 85.0174ZM262.538 87.1464C262.291 87.1856 262.042 87.1999 261.792 87.189L262.647 86.8951C262.618 86.982 262.582 87.0661 262.538 87.1464ZM263.089 86.7375C262.932 86.6027 262.739 86.5433 262.513 86.5311C262.513 86.4459 262.483 86.337 262.429 86.1877C262.383 85.8892 263.292 86.0392 264.154 85.9258L263.089 86.7375ZM266.246 82.9272C266.001 82.9424 265.742 82.9044 265.494 82.7825C265.547 82.717 265.582 82.6531 265.617 82.5708L264.849 83.228C263.732 83.2881 264.104 82.529 263.646 82.3371L264.331 82.2822C264.09 82.1376 263.749 82.1421 263.661 81.9457C263.981 81.6845 264.318 81.418 264.651 81.1561C264.835 81.121 265.009 81.121 265.127 81.2223L264.975 81.6129C265.421 81.2642 266.099 81.6959 266.607 81.8353C266.133 82.1437 265.91 82.3592 266.79 82.446C266.602 82.6531 266.432 82.8069 266.246 82.9272ZM265.173 80.7555C265.775 80.3124 266.397 79.8913 267.068 79.5768C266.516 80.205 265.898 80.4296 265.173 80.7555ZM269.243 80.0009C269.003 80.1127 268.75 80.1916 268.489 80.2355C268.713 80.0169 268.966 79.9583 269.243 80.0009ZM268.352 81.284L268.032 81.7424L267.446 81.9967L268.352 81.284ZM267.269 81.3906C267.319 81.3746 267.37 81.3556 267.416 81.3373C267.364 81.3778 267.308 81.4149 267.251 81.4485C267.257 81.4294 267.257 81.4134 267.269 81.3906ZM267.885 83.547C267.757 83.6095 267.604 83.6384 267.408 83.6384C267.74 83.1077 267.933 82.4315 268.629 82.717C268.454 83.0483 268.199 83.3224 267.885 83.547ZM268.637 81.4797L268.775 81.3228L268.41 81.2337L269.217 80.6055L269.88 80.9421L268.637 81.4797ZM271.923 74.5147C271.72 73.6847 273.568 74.7302 273.044 73.572C272.991 73.1296 274.997 73.6611 275.857 72.9172C276.015 72.6986 276.143 72.4831 276.213 72.2608C276.163 72.5593 276.037 72.7611 275.857 72.9179C275.088 73.9512 273.484 74.8193 271.923 74.5147ZM274.874 76.8554C274.829 76.8092 274.787 76.7607 274.747 76.71L274.985 76.7313L274.874 76.8554ZM276.15 74.1591C276.066 74.4522 275.912 74.7302 275.275 74.718L276.151 74.1591C276.256 73.7243 276.19 73.2469 277.119 73.5248L276.15 74.1591ZM279.668 73.3748L279.253 73.6961C279.352 73.5888 279.497 73.4784 279.667 73.3756L280.525 72.6979L279.95 72.5654L280.95 71.7636C281.808 72.41 280.465 72.8715 279.667 73.3756L279.668 73.3748ZM298.911 226.782C298.707 226.933 298.558 227.144 298.536 227.509C295.435 225.047 291.676 222.253 289.29 220.326C290.28 219.668 288.374 219.496 288.295 218.311C289.787 219.996 291.596 222.406 294.219 221.775C292.841 223.586 295.717 223.464 295.834 223.904L296.211 223.122C297.871 223.534 298.116 226.171 298.911 226.782C299.333 226.469 300 226.444 300.375 226.126C299.69 226.927 299.253 227.03 298.911 226.782ZM311.561 235.782C310.526 234.513 308.716 233.815 308.436 232.348C307.203 233.851 306.843 231.193 305.477 231.281L305.223 230.78C305.669 231.57 308.236 230.726 307.348 232.198C308.194 233.187 312.04 229.71 310.558 233.769L310.851 234.862C311.216 234.466 311.535 234.812 311.937 235.014L311.561 235.782ZM314.097 237.068C314.097 237.048 314.097 237.032 314.105 237.02L314.128 237.026C314.114 237.036 314.103 237.051 314.098 237.068H314.097ZM162.728 260.407L161.525 261.155L162.565 260.797L162.728 260.407ZM265.617 82.5701L265.96 82.2883C265.815 82.3374 265.693 82.4376 265.617 82.5701ZM257.023 87.119C256.94 87.1852 256.843 87.256 256.762 87.3291H256.773C256.949 87.2796 257.009 87.1997 257.024 87.119H257.023ZM165.425 254.652L167.346 255.129C166.568 255.287 166.399 255.675 165.875 256.413C166.813 256.207 167.718 255.568 168.49 255.749C167.878 256.292 169.519 256.516 168.183 256.973C169.265 257.844 169.077 255.55 170.56 255.039L168.786 255.648L169.35 255.001C168.515 255.064 167.566 253.702 165.425 254.652ZM349.742 201.442C349.39 201.981 349.535 202.664 349.535 203.274C349.956 202.535 350.277 201.981 350.411 201.772L349.742 201.442ZM349.536 203.274C349.317 203.647 349.076 204.06 348.825 204.507C349.412 204.218 349.526 203.767 349.536 203.274H349.536ZM170.378 254.645C170.781 254.401 171.955 254.339 171.732 253.86L170.245 254.359L170.378 254.645ZM173.348 247.794L172.142 248.533L173.184 248.19L173.348 247.794ZM243.31 93.7664C243.204 93.6675 243.219 93.6796 243.31 93.7664V93.7664ZM171.541 249.641C171.373 249.722 171.204 249.804 171.056 249.917C171.219 249.812 171.377 249.718 171.541 249.641ZM172.667 252.524L175.054 251.366L170.892 252.009L172.667 252.524ZM168.055 250.972L167.628 251.212C167.776 251.166 167.916 251.08 168.055 250.972ZM154.406 174.862L155.454 174.511L157.298 173.314L154.406 174.862ZM267.401 74.718C267.561 74.6594 267.624 74.5855 267.643 74.5033C267.552 74.5642 267.464 74.6365 267.375 74.7066L267.401 74.718ZM265.679 77.8955C265.618 77.9249 265.565 77.9673 265.523 78.0195C265.481 78.0718 265.451 78.1326 265.435 78.1978C265.569 78.1217 265.664 78.0204 265.679 77.8955ZM243.31 93.7664C243.374 93.838 243.47 93.9454 243.59 94.071C243.597 94.0779 243.617 94.0863 243.638 94.0992C243.525 93.9916 243.416 93.8806 243.31 93.7664H243.31ZM335.083 179.577C334.809 179.327 334.537 179.076 334.266 178.823C334.373 179.24 334.543 179.569 335.083 179.577ZM265.548 75.9028C266.281 75.7581 266.832 75.1673 267.376 74.7058L266.434 74.4751L265.548 75.9028ZM261.579 82.6523C261.603 82.6051 261.625 82.5579 261.641 82.5191L261.203 82.5571L261.579 82.6523ZM334.117 178.161L333.785 178.381C333.946 178.524 334.106 178.68 334.266 178.823C334.214 178.606 334.172 178.381 334.117 178.16V178.161ZM297.647 67.9639C297.718 67.8459 297.788 67.7088 297.871 67.5566C297.688 67.7088 297.635 67.8299 297.647 67.9639ZM278.827 69.349L279.394 68.7071L279.004 68.6127L278.494 69.3528L278.827 69.349ZM276.24 69.9506L276.581 69.6688C276.404 69.7328 276.315 69.8432 276.24 69.9506ZM278.627 68.5228L279.005 68.6134C278.953 68.5699 278.892 68.5389 278.827 68.523C278.761 68.5072 278.693 68.5068 278.627 68.5221V68.5228ZM318.124 240.831C318.409 241.163 318.687 241.508 318.915 241.879C318.73 241.281 318.453 240.988 318.124 240.831Z" fill="#ED3024"/>
<path d="M231.417 111.977C229.285 112.369 227.411 114.36 227.25 116.422C227.085 118.484 228.687 119.826 230.823 119.428C232.967 119.029 234.83 117.029 235.001 114.971C235.158 112.912 233.562 111.569 231.417 111.977Z" fill="white"/>
<path d="M246.511 121.115C245.625 121.29 244.593 121.478 240.62 126.123C241.595 124.324 241.913 122.86 240.715 122.053C239.467 121.204 237.292 121.858 236.075 122.653C235.324 123.141 235.311 123.388 235.178 124.319C235.076 124.929 234.512 126.29 234.129 127.059L232.92 129.645C228.337 137.617 225.787 139.797 225.027 140.699C224.262 141.549 223.619 142.038 223.173 142.123C222.836 142.191 222.696 141.944 222.727 141.518C222.782 140.865 223.017 139.963 223.542 138.79C224.413 136.807 225.796 133.871 226.879 131.9C227.471 130.725 228.988 127.958 228.988 127.958C230.427 124.747 227.7 123.623 226.108 123.861C225.646 123.933 220.63 124.515 214.889 125.494C218.027 112.37 217.761 114.322 221.027 105.909C222.613 101.809 222.435 100.868 221.096 99.3127C219.749 97.7669 219.996 96.0483 218.47 95.9158C214.917 95.5983 202.63 113.333 192.737 130.573C188.085 131.973 183.418 133.633 179.121 135.579C176.272 136.885 176.815 139.26 177.07 140.48C177.431 142.183 179.281 142.939 180.752 142.1C182.983 140.847 185.538 139.658 188.272 138.546C188.187 138.727 188.159 138.824 188.187 138.812C184.442 145.869 180.236 155.714 178.859 160.091C178.087 162.535 179.313 164.716 181.41 165.676C183.509 166.631 184.939 165.615 185.643 162.342C186.523 158.26 191.839 145.626 197.218 135.415C197.218 135.415 197.249 135.373 197.281 135.309C200.465 134.297 203.675 133.366 206.907 132.516C205.013 140.554 204.532 143.88 204.55 146.647C204.578 149.369 205.577 152.548 208.554 152.117C211.532 151.682 211.045 148.891 211.371 146.299C212.126 140.362 212.248 137.789 213.653 130.999C213.688 130.987 213.729 130.91 213.771 130.791C216.463 130.165 219.163 129.576 221.871 129.024C221.597 129.627 221.28 130.288 220.943 130.984C219.636 133.637 218.227 136.903 217.33 139.26C216.478 141.616 216.008 143.47 215.887 145.043C215.61 148.521 217.081 150.392 219.687 149.901C221.64 149.539 224.621 146.906 227.982 141.668C227.594 142.922 227.363 143.944 227.34 144.582C227.239 147.297 228.579 149.527 232.962 146.564C233.397 146.269 233.457 145.829 233.469 144.968C233.703 142.037 234.885 138.151 237.502 134.18C239.545 131.122 240.982 129.385 242.857 128.586C246.17 127.144 248.283 127.595 250.136 125.344C251.945 123.162 248.172 120.806 246.512 121.115H246.511ZM208.354 126.714C206.034 127.179 203.589 127.719 201.073 128.322C205.408 120.601 210.21 112.85 214.678 106.769C212.459 112.228 210.213 119.557 208.354 126.714ZM302.075 168.87C301.121 170.425 300.27 171.729 299.049 173.066C297.941 174.273 297.069 174.754 296.592 174.576C295.327 174.119 296.045 172.314 297.341 169.657C298.053 168.225 298.802 166.811 299.587 165.417C300.699 163.613 300.928 163.104 301.011 162.46C301.123 161.535 300.543 160.921 298.822 160.208C297.727 159.724 297.635 159.634 297.188 158.369C296.567 156.808 295.24 156.035 293.61 156.26C291.147 156.604 287.274 159.593 283.85 163.824C282.599 165.242 278.341 170.981 277.816 171.708L277.148 172.592C275.291 175.14 274.767 175.744 273.947 176.651C273.127 177.453 272.466 177.917 272.011 177.977C271.68 178.026 271.539 177.773 271.602 177.348C271.684 176.699 271.964 175.814 272.546 174.666C273.51 172.726 275.032 169.859 276.205 167.948C276.852 166.79 277.965 164.714 278.052 164.49L278.681 163.389C280.299 160.5 277.824 159.106 275.967 159.246C275.24 159.313 274.021 159.837 273.427 160.292C272.939 160.615 272.873 160.745 272.734 161.398C272.572 162.219 271.467 164.623 270.324 166.743C268.888 169.337 267.326 172.519 266.313 174.84C265.361 177.144 264.798 178.984 264.595 180.553C264.154 184.007 265.532 185.958 268.156 185.589C270.124 185.316 272.215 183.446 274.799 180.475C275.618 179.523 276.538 178.236 277.414 176.888C276.94 180.738 278.859 183.4 282.141 182.939C284.319 182.638 286.168 181.034 288.538 178.424C288.851 178.116 288.965 177.985 289.14 177.965C289.307 177.929 289.458 178.076 289.471 178.392L289.586 178.753C289.915 180.512 291.233 181.335 293.14 181.068C295.492 180.748 298.067 178.995 300.897 175.423C303.173 172.609 304.08 170.549 304.56 169.271C305.103 167.801 303.051 167.276 302.075 168.87ZM288.651 173.598C286.999 175.791 285.45 177.175 284.555 177.301C283.999 177.379 283.683 176.834 283.788 176.024C284.04 174.032 287.276 167.997 289.691 165.006C291.329 162.92 293.059 161.457 293.831 161.356C294.452 161.269 294.684 161.604 294.575 162.414C294.349 164.2 290.887 170.751 288.651 173.598ZM279.624 155.556C281.76 155.157 283.631 153.162 283.794 151.103C283.956 149.04 282.357 147.704 280.216 148.102C278.074 148.494 276.213 150.49 276.041 152.547C275.884 154.618 277.489 155.958 279.624 155.555V155.556ZM248.235 164.427C247.936 164.471 247.634 164.51 247.32 164.56C250.474 151.413 250.208 153.369 253.471 144.959C255.063 140.852 254.88 139.909 253.532 138.352C252.195 136.806 252.429 135.093 250.91 134.955C247.369 134.639 235.123 152.294 225.247 169.509C220.605 170.901 215.945 172.585 211.671 174.609C208.996 175.872 209.544 178.257 209.798 179.468C210.154 181.179 211.9 181.954 213.269 181.137C215.48 179.831 218.034 178.599 220.771 177.469C220.649 177.731 213.263 192.379 211.298 199.13C210.58 201.589 211.758 203.76 213.86 204.712C215.954 205.671 217.385 204.66 218.087 201.39C218.962 197.311 225.994 180.965 229.833 174.166C233.077 173.125 236.333 172.211 239.361 171.408C239.356 171.471 237.006 180.888 236.993 185.692C236.987 188.414 238.016 191.59 240.989 191.162C243.98 190.726 243.483 187.933 243.814 185.339C244.574 179.403 244.691 176.834 246.093 170.048C246.142 170.02 246.205 169.908 246.263 169.722C247.038 169.534 247.79 169.365 248.487 169.212C252.205 168.401 253.26 168.436 253.515 165.519C253.67 163.712 249.518 164.212 248.235 164.427ZM247.115 145.809C244.906 151.26 242.668 158.565 240.808 165.706C238.385 166.183 235.972 166.707 233.569 167.276C237.902 159.579 242.668 151.867 247.115 145.809H247.115Z" fill="white"/>
<path d="M252.959 188.281C251.031 188.485 246.835 187.534 246.142 184.168C245.887 183.079 247.473 180.162 247.802 179.66C248.368 178.782 249.258 179.302 249.547 179.743C250.209 180.713 253.745 183.88 255.796 181.833C257.113 180.513 255.07 178.78 254.217 177.379C251.065 172.187 255.319 166.16 256.661 164.83C259.57 161.971 261.62 161.707 263.065 161.668C267.202 161.529 268.631 163.875 268.317 165.261C267.969 166.783 267.166 167.677 266.602 168.274C266.208 168.715 265.041 168.833 264.678 168.3C263.798 167.013 263.286 165.285 260.727 166.317C258.68 167.146 258.562 169.937 258.999 171.303C259.716 173.486 262.624 175.127 262.597 178.276C262.534 186.398 255.399 188.023 252.959 188.281Z" fill="white"/>
</svg>
