<svg width="480" height="320" viewBox="0 0 480 320" fill="none" xmlns="http://www.w3.org/2000/svg">
<mask id="mask0_730_18592" style="mask-type:luminance" maskUnits="userSpaceOnUse" x="133" y="53" width="214" height="214">
<path d="M133.33 159.999C133.33 218.906 181.09 266.667 239.996 266.667C298.916 266.667 346.669 218.906 346.669 159.999C346.669 101.091 298.916 53.3335 239.996 53.3335C181.09 53.3335 133.33 101.091 133.33 159.999Z" fill="white"/>
</mask>
<g mask="url(#mask0_730_18592)">
<path d="M346.669 159.999C346.669 218.906 298.916 266.667 239.996 266.667C181.091 266.667 133.33 218.906 133.33 159.999C133.33 101.091 181.09 53.3335 239.995 53.3335C298.916 53.3335 346.669 101.091 346.669 159.999Z" fill="#E32526"/>
</g>
<mask id="mask1_730_18592" style="mask-type:luminance" maskUnits="userSpaceOnUse" x="133" y="53" width="214" height="214">
<path d="M133.33 159.999C133.33 218.906 181.09 266.667 239.996 266.667C298.916 266.667 346.669 218.906 346.669 159.999C346.669 101.091 298.916 53.3335 239.996 53.3335C181.09 53.3335 133.33 101.091 133.33 159.999Z" fill="white"/>
</mask>
<g mask="url(#mask1_730_18592)">
<path d="M208.819 127.133C211.231 126.696 213.024 128.162 212.843 130.392C212.664 132.62 210.556 134.795 208.148 135.226C205.751 135.653 203.943 134.187 204.134 131.955C204.316 129.726 206.411 127.574 208.819 127.133ZM182.88 143.122C184.968 135.35 187.496 127.412 189.996 121.486C184.956 128.09 179.558 136.493 174.693 144.883C177.525 144.221 180.279 143.633 182.88 143.122ZM225.792 137.066C227.673 136.724 231.895 139.28 229.875 141.649C227.776 144.086 225.407 143.6 221.688 145.151C219.581 146.025 217.963 147.913 215.654 151.232C212.719 155.539 211.375 159.757 211.134 162.928C211.114 163.868 211.04 164.338 210.542 164.662C205.627 167.872 204.116 165.46 204.24 162.511C204.272 161.815 204.515 160.715 204.949 159.36C201.167 165.029 197.821 167.896 195.631 168.29C192.697 168.819 191.041 166.784 191.356 163.015C191.501 161.301 192.016 159.286 192.976 156.747C193.983 154.168 195.569 150.643 197.038 147.756C197.412 147.003 197.774 146.28 198.079 145.634C195.032 146.229 191.996 146.873 188.97 147.567C188.921 147.688 188.878 147.756 188.832 147.763C187.252 155.146 187.127 157.93 186.276 164.369C185.916 167.184 186.458 170.213 183.105 170.678C179.751 171.163 178.638 167.709 178.618 164.761C178.575 161.758 179.129 158.151 181.251 149.419C177.623 150.341 174.019 151.35 170.44 152.446C170.387 152.527 170.352 152.569 170.352 152.569C164.3 163.648 158.327 177.357 157.338 181.79C156.55 185.343 154.945 186.432 152.582 185.402C150.223 184.369 148.85 181.993 149.708 179.344C151.261 174.589 155.996 163.914 160.213 156.254C160.181 156.268 160.213 156.162 160.312 155.969C157.221 157.169 154.347 158.458 151.836 159.841C150.181 160.732 148.102 159.908 147.704 158.06C147.417 156.749 146.791 154.158 149.999 152.75C154.845 150.631 160.089 148.838 165.325 147.322C176.446 128.611 190.271 109.357 194.246 109.709C195.966 109.857 195.694 111.718 197.212 113.403C198.71 115.081 198.929 116.108 197.136 120.557C193.46 129.688 193.752 127.561 190.226 141.805C196.694 140.732 202.325 140.113 202.853 140.032C204.639 139.777 207.711 140.994 206.086 144.48C206.086 144.48 204.384 147.479 203.712 148.762C202.499 150.886 200.924 154.078 199.974 156.235C199.371 157.506 199.095 158.479 199.046 159.19C198.996 159.652 199.169 159.916 199.543 159.849C200.039 159.758 200.764 159.225 201.64 158.316C202.491 157.321 205.365 154.965 210.503 146.31L211.859 143.505C212.296 142.669 212.922 141.196 213.041 140.521C213.183 139.517 213.222 139.255 214.062 138.726C215.417 137.861 217.868 137.145 219.283 138.068C220.613 138.948 220.269 140.543 219.163 142.478C223.641 137.438 224.791 137.23 225.792 137.066ZM313.396 151.638C315.913 148.543 319.809 141.441 320.051 139.502C320.163 138.613 319.907 138.261 319.207 138.351C318.341 138.466 316.4 140.052 314.553 142.313C311.846 145.562 308.202 152.11 307.916 154.271C307.797 155.154 308.157 155.732 308.779 155.658C309.78 155.522 311.51 154.019 313.396 151.638ZM328.479 146.514C329.573 144.777 331.89 145.345 331.27 146.942C330.735 148.325 329.725 150.568 327.148 153.611C323.981 157.505 321.064 159.396 318.426 159.744C316.3 160.044 314.794 159.134 314.426 157.229L314.302 156.841C314.296 156.505 314.127 156.339 313.943 156.371C313.748 156.391 313.607 156.535 313.251 156.871C310.578 159.705 308.533 161.447 306.061 161.785C302.369 162.266 300.22 159.387 300.743 155.204C299.753 156.666 298.734 158.071 297.794 159.106C294.909 162.311 292.544 164.347 290.35 164.633C287.389 165.03 285.839 162.919 286.337 159.181C286.561 157.477 287.195 155.494 288.279 152.976C289.404 150.465 291.15 147.015 292.763 144.198C294.051 141.893 295.295 139.284 295.488 138.395C295.637 137.694 295.714 137.559 296.261 137.203C296.948 136.714 298.306 136.135 299.133 136.069C301.223 135.912 303.997 137.423 302.162 140.557L301.47 141.748C301.372 141.993 300.118 144.262 299.395 145.498C298.064 147.584 296.358 150.69 295.289 152.794C294.624 154.046 294.301 155.003 294.214 155.702C294.142 156.168 294.301 156.445 294.666 156.392C295.177 156.329 295.93 155.826 296.844 154.943C297.784 153.961 298.356 153.31 300.446 150.544L301.205 149.587C301.808 148.801 306.571 142.571 308.004 141.029C311.847 136.442 316.187 133.192 318.976 132.833C320.806 132.58 322.284 133.416 322.996 135.107C323.498 136.488 323.597 136.583 324.821 137.112C326.781 137.889 327.423 138.546 327.273 139.545C327.201 140.256 326.933 140.809 325.687 142.765C324.805 144.275 323.961 145.806 323.155 147.357C321.701 150.238 320.903 152.2 322.315 152.7C322.849 152.885 323.837 152.376 325.072 151.069C326.439 149.622 327.404 148.189 328.479 146.514ZM303.235 132.057C305.639 131.628 307.74 129.462 307.929 127.226C308.103 124.994 306.303 123.541 303.911 123.971C301.501 124.404 299.394 126.568 299.217 128.807C299.026 131.034 300.836 132.488 303.235 132.057ZM266.68 121.481C261.677 128.052 256.304 136.419 251.434 144.775C254.281 144.125 257.017 143.562 259.576 143.077C261.678 135.332 264.185 127.401 266.68 121.481ZM267.937 141.676C269.374 141.464 274.045 140.91 273.866 142.87C273.59 146.027 272.401 145.98 268.223 146.876C267.432 147.054 266.592 147.234 265.71 147.421C265.646 147.633 265.579 147.758 265.529 147.764C263.955 155.147 263.831 157.94 262.966 164.37C262.595 167.185 263.147 170.214 259.793 170.678C256.442 171.164 255.285 167.708 255.305 164.761C255.316 159.548 257.946 149.324 257.96 149.264C254.549 150.134 250.892 151.122 247.254 152.258C242.918 159.621 235.017 177.358 234.04 181.79C233.245 185.344 231.641 186.433 229.271 185.392C226.914 184.369 225.595 182.014 226.404 179.344C228.605 172.006 236.923 156.111 237.054 155.825C233.968 157.064 231.092 158.396 228.612 159.81C227.076 160.684 225.117 159.851 224.7 158.008C224.425 156.684 223.814 154.103 226.815 152.731C231.628 150.538 236.86 148.704 242.086 147.197C253.19 128.521 266.962 109.358 270.929 109.712C272.659 109.858 272.391 111.719 273.902 113.403C275.406 115.077 275.619 116.108 273.814 120.558C270.156 129.694 270.457 127.562 266.918 141.83C267.266 141.782 267.595 141.726 267.937 141.676ZM273.241 167.559C275.984 167.277 284.002 165.521 284.083 156.717C284.102 153.31 280.845 151.515 280.054 149.138C279.543 147.671 279.666 144.643 281.982 143.732C284.842 142.606 285.435 144.487 286.423 145.893C286.833 146.469 288.145 146.332 288.591 145.862C289.216 145.214 290.128 144.243 290.522 142.595C290.87 141.083 289.265 138.545 284.606 138.702C282.978 138.738 280.672 139.016 277.409 142.128C275.904 143.561 271.114 150.112 274.66 155.738C275.617 157.266 277.919 159.132 276.439 160.567C274.13 162.791 270.162 159.344 269.409 158.303C269.069 157.823 268.084 157.265 267.438 158.213C267.064 158.758 265.285 161.928 265.56 163.102C266.361 166.762 271.084 167.775 273.241 167.559Z" fill="white"/>
</g>
<mask id="mask2_730_18592" style="mask-type:luminance" maskUnits="userSpaceOnUse" x="133" y="53" width="214" height="214">
<path d="M133.33 159.999C133.33 218.906 181.09 266.667 239.996 266.667C298.916 266.667 346.669 218.906 346.669 159.999C346.669 101.091 298.916 53.3335 239.996 53.3335C181.09 53.3335 133.33 101.091 133.33 159.999Z" fill="white"/>
</mask>
<g mask="url(#mask2_730_18592)">
<path d="M197.047 214.443V214.342C197.047 213.439 197.382 212.637 197.983 211.935L210.122 197.823H199.722C198.485 197.823 197.449 196.82 197.449 195.582C197.449 194.345 198.485 193.308 199.722 193.308H214.67C215.908 193.308 216.944 194.345 216.944 195.582V195.683C216.944 196.586 216.609 197.354 216.008 198.09L203.869 212.202H214.671C215.908 212.202 216.945 213.238 216.945 214.476C216.945 215.714 215.908 216.717 214.671 216.717H199.321C198.083 216.717 197.047 215.679 197.047 214.443ZM221.627 214.142V195.884C221.627 194.446 222.764 193.309 224.202 193.309H237.177C237.788 193.31 238.375 193.554 238.807 193.986C239.24 194.419 239.483 195.005 239.484 195.617C239.484 196.888 238.448 197.89 237.177 197.89H226.744V202.639H235.672C236.284 202.64 236.87 202.884 237.303 203.316C237.735 203.748 237.979 204.335 237.98 204.946C237.98 206.217 236.944 207.221 235.672 207.221H226.744V212.136H237.344C237.956 212.138 238.542 212.381 238.974 212.814C239.407 213.246 239.65 213.833 239.651 214.444C239.651 215.715 238.615 216.718 237.344 216.718H224.203C223.864 216.72 223.528 216.656 223.214 216.527C222.9 216.398 222.616 216.209 222.376 215.969C222.136 215.729 221.947 215.444 221.818 215.131C221.69 214.817 221.625 214.481 221.627 214.142ZM243.564 214.242C242.996 213.84 242.595 213.105 242.595 212.302C242.595 210.965 243.665 209.927 245.003 209.927C245.671 209.927 246.139 210.161 246.474 210.396C248.246 211.699 250.186 212.502 252.46 212.502C254.566 212.502 255.837 211.666 255.837 210.295V210.228C255.837 208.925 255.035 208.255 251.122 207.252C246.408 206.048 243.364 204.744 243.364 200.095V200.028C243.364 195.782 246.776 192.973 251.557 192.973C254.399 192.973 256.875 193.708 258.981 195.046C259.332 195.257 259.622 195.556 259.821 195.914C260.021 196.272 260.123 196.675 260.118 197.085C260.118 198.422 259.048 199.46 257.711 199.46C257.209 199.46 256.808 199.326 256.407 199.092C254.701 198.088 253.096 197.52 251.491 197.52C249.518 197.52 248.481 198.423 248.481 199.559V199.627C248.481 201.165 249.484 201.666 253.53 202.703C258.279 203.941 260.954 205.646 260.954 209.726V209.793C260.954 214.44 257.41 217.048 252.36 217.048C249.283 217.051 246.173 216.114 243.564 214.242ZM270.386 198.057H265.436C264.807 198.054 264.204 197.803 263.76 197.358C263.315 196.914 263.064 196.311 263.061 195.682C263.064 195.053 263.315 194.45 263.759 194.005C264.204 193.561 264.807 193.31 265.436 193.307H280.484C281.113 193.31 281.716 193.561 282.16 194.005C282.605 194.45 282.856 195.053 282.859 195.682C282.856 196.311 282.605 196.914 282.16 197.359C281.716 197.803 281.113 198.054 280.484 198.057H275.534V214.342C275.534 215.78 274.398 216.917 272.96 216.917C272.621 216.919 272.285 216.855 271.971 216.726C271.658 216.598 271.373 216.408 271.133 216.168C270.893 215.929 270.704 215.644 270.575 215.33C270.447 215.017 270.382 214.681 270.385 214.342V198.057H270.386Z" fill="white"/>
</g>
</svg>
