<svg width="480" height="320" viewBox="0 0 480 320" fill="none" xmlns="http://www.w3.org/2000/svg">
<path d="M269.477 179.367H246.132V166.262H269.49C273.331 166.325 276.431 169.2 276.431 172.79C276.431 176.379 273.319 179.367 269.477 179.367ZM246.132 140.946H269.076C272.214 140.983 274.875 143.406 274.875 146.582C274.875 149.745 272.088 152.267 268.938 152.23H246.132V140.946ZM282.669 159.271C286.987 156.234 288.619 151.201 288.619 145.666C288.619 135.248 279.845 126.901 269.089 126.901H230.128V193.412H270.62V193.437C281.992 193.437 291.455 184.664 291.455 173.92C291.455 166.916 287.238 161.732 282.669 159.272M342.754 126.751V164.142C342.754 175.577 336.076 180.371 327.868 180.371C319.647 180.371 313.019 175.589 313.019 164.154V126.751H296.438V164.255C296.438 188.179 310.496 195.144 327.868 195.144C345.252 195.144 359.322 188.179 359.322 164.255V126.751H342.754ZM400.931 152.67C387.513 149.758 382.982 148.465 382.982 144.21C382.982 140.457 387.84 138.562 395.509 138.562C402.751 138.562 411.499 141.65 416.633 144.725L421.866 131.194C414.085 127.956 404.721 124.855 392.345 124.855C376.116 124.855 365.987 134.345 365.987 145.942C365.987 157.553 374.334 162.661 390.877 166.163C403.704 168.874 407.181 170.506 407.181 174.497C407.181 178.489 402.035 179.957 395.082 179.957C386.082 179.957 377.421 176.957 369.263 173.455L364.33 186.646C374.083 191.165 384.212 194.792 396.286 194.792C416.406 194.792 424.616 185.178 424.616 173.97C424.616 164.003 417.712 156.321 400.931 152.67M88.9853 126.9L55.3848 193.4L75.3417 193.412L80.3626 182.719H103.281L96.1525 168.145H87.1028L95.6251 149.959L117.088 193.412H137.096L102.189 126.901L88.9853 126.9ZM223.991 149.016C223.991 136.904 215.682 127.075 198.598 127.075H164.094V193.587L180.085 193.574V141.121H199.703C205.502 141.121 207.912 144.711 207.912 148.979C207.912 153.259 205.377 156.685 199.577 156.685H185.858L206.619 193.575H223.037C223.037 193.575 208.828 169.463 208.903 169.45C219.158 166.262 223.991 158.493 223.991 149.016M140.522 193.437H157.065V126.938H140.522V193.437Z" fill="#00205B"/>
</svg>
