<svg width="480" height="320" viewBox="0 0 480 320" fill="none" xmlns="http://www.w3.org/2000/svg">
<mask id="mask0_730_18459" style="mask-type:luminance" maskUnits="userSpaceOnUse" x="55" y="117" width="370" height="86">
<path d="M55.3848 117.856H424.616V202.137H55.3848V117.856Z" fill="white"/>
</mask>
<g mask="url(#mask0_730_18459)">
<path d="M112.896 132.838V118.061H127.674V132.838H112.896ZM112.896 200.933V138.63H127.674V200.933H112.896ZM148.642 200.933H133.864V138.63H148.242V150.212C152.834 143.422 159.424 137.432 168.41 137.432C170.009 137.432 171.006 137.632 171.805 137.831V151.809C170.607 151.609 168.41 151.609 167.412 151.609C160.622 151.609 148.441 158 148.441 170.381V200.933H148.642ZM175.999 200.933V118.061H202.557C209.547 118.061 233.31 118.061 233.31 138.23C233.31 152.209 222.528 155.803 216.935 157.799C223.327 159.397 235.307 162.792 235.307 178.169C235.307 190.749 225.921 200.933 204.554 200.933H175.999ZM191.575 151.809H202.557C216.737 151.809 217.935 143.421 217.935 140.626C217.935 130.244 207.151 130.244 203.956 130.244H191.575V151.809ZM191.575 188.753H201.359C211.744 188.753 219.133 185.357 219.133 176.371C219.133 170.58 215.938 163.791 202.359 163.791H191.575V188.753ZM277.242 200.933L275.645 194.343C272.051 197.538 266.059 202.332 256.874 202.332C245.691 202.332 237.705 195.142 237.705 185.159C237.705 178.767 240.1 171.18 253.68 166.386L271.451 160.396C274.048 159.597 274.248 159.397 274.248 157.601V155.004C274.248 149.813 269.454 148.215 263.663 148.215C253.878 148.215 244.892 154.205 241.298 156.601V143.622C245.292 141.425 252.881 137.032 265.86 137.032C285.231 137.032 289.026 146.817 289.026 158.598V200.735L277.242 200.933ZM261.068 174.174C254.878 176.371 252.68 179.367 252.68 183.76C252.68 189.951 258.072 191.349 260.669 191.349C263.065 191.349 268.256 190.551 274.248 184.36V168.983C273.448 169.583 273.048 169.781 270.454 170.781L261.068 174.174ZM94.7239 200.933L93.1266 194.343C89.5326 197.538 83.7413 202.332 74.356 202.332C63.1727 202.332 55.3848 195.142 55.3848 185.159C55.3848 178.767 57.5821 171.18 71.36 166.386L89.3319 160.396C91.9286 159.597 92.1272 159.397 92.1272 157.601V155.004C92.1272 149.813 87.3353 148.215 81.544 148.215C71.7593 148.215 62.7734 154.205 59.1794 156.601V143.622C63.1727 141.425 70.762 137.032 83.7413 137.032C103.112 137.032 106.904 146.817 106.904 158.598V200.735L94.7239 200.933ZM78.7486 174.174C72.558 176.371 70.3607 179.367 70.3607 183.76C70.3607 189.951 75.7527 191.349 78.3493 191.349C80.7453 191.349 85.9386 190.551 91.9286 184.36V168.983C91.1299 169.583 90.7306 169.781 88.1339 170.781L78.7486 174.174ZM295.214 200.933V118.061H309.991V200.933H295.214ZM322.573 149.813H313.587V138.431H322.573V117.862H337.351V138.431H348.532V149.813H337.351V181.364C337.351 185.957 337.949 190.149 344.739 190.149C346.535 190.149 347.934 189.951 349.132 189.75V200.933C347.135 201.134 345.139 201.333 342.143 201.333C325.567 201.333 322.573 193.145 322.573 182.163V149.813ZM354.323 132.838V117.862H369.101V132.838H354.323ZM354.323 200.933V138.63H369.101V200.933H354.323ZM423.217 155.403C420.223 152.809 415.429 149.014 407.043 149.014C394.262 149.014 389.071 159.597 389.071 169.781C389.071 174.174 390.269 190.551 406.644 190.551C415.23 190.551 420.622 186.756 424.616 183.961V197.139C421.62 198.738 414.831 202.131 404.248 202.131C383.079 202.131 374.093 186.156 374.093 169.583C374.093 152.407 383.878 137.032 404.846 137.032C415.03 137.032 420.622 140.227 423.217 141.626V155.403Z" fill="#152649"/>
</g>
</svg>
