<svg width="480" height="320" viewBox="0 0 480 320" fill="none" xmlns="http://www.w3.org/2000/svg">
<mask id="mask0_730_18595" style="mask-type:luminance" maskUnits="userSpaceOnUse" x="37" y="78" width="406" height="164">
<path d="M37.5185 78.6255H442.482V241.375H37.5185V78.6255Z" fill="white"/>
</mask>
<g mask="url(#mask0_730_18595)">
<path fill-rule="evenodd" clip-rule="evenodd" d="M55.3846 224.477H391.574L398.444 217.349H55.3846V224.477ZM205.673 151.622V143.199H177.296V182.123H205.673V173.677H187.664V166.647H205.02V158.225H187.664V151.62H205.673V151.622ZM55.3846 210.878H404.665L411.531 203.745H55.3846V210.878ZM177.296 107.187V135.035H187.664V96.1681H174.714L140.379 135.035H152.947L177.296 107.187ZM218.369 182.123L224.846 171.055L231.319 182.123H242.593L230.287 162.242L242.336 143.199H231.456L225.237 153.819L219.016 143.199H207.743L219.793 162.635L207.488 182.123H218.369ZM55.3846 190.14V197.272H417.75L424.615 190.14H55.3846ZM203.083 96.166H192.715V135.033H203.083V96.166ZM218.497 120.652H223.157L230.93 135.035H241.813L233.008 118.973C237.807 117.417 240.91 113.398 240.91 107.828C240.91 100.055 234.949 96.166 225.882 96.166H208.133V135.033H218.497V120.652ZM218.497 104.202H224.974C228.865 104.202 230.55 105.624 230.55 108.347C230.55 110.942 228.865 112.616 224.846 112.616H218.497V104.202Z" fill="#E30929"/>
<path fill-rule="evenodd" clip-rule="evenodd" d="M315.788 182.122H344.163V173.677H326.154V166.647H343.514V158.225H326.154V151.619H344.163V143.197H315.788V182.122ZM366.836 157.96H362.176C359.191 157.96 357.645 157.054 357.645 154.989C357.645 152.909 359.191 151.619 362.176 151.619H378.238V143.197H362.3C353.359 143.197 347.529 147.857 347.529 155.239C347.529 163.538 354.018 166.901 360.617 166.901H365.275C368.258 166.901 369.815 168.072 369.815 170.151C369.815 172.236 368.258 173.677 365.275 173.677H348.962V182.122H365.149C374.091 182.122 379.921 177.322 379.921 169.887C379.923 161.586 373.437 157.96 366.836 157.96ZM400.518 157.96H395.858C392.873 157.96 391.318 157.054 391.318 154.989C391.318 152.909 392.873 151.619 395.858 151.619H411.92V143.197H395.982C387.043 143.197 381.221 147.857 381.221 155.239C381.221 163.538 387.696 166.901 394.299 166.901H398.97C401.944 166.901 403.501 168.072 403.501 170.151C403.501 172.236 401.944 173.677 398.97 173.677H382.645V182.122H398.835C407.774 182.122 413.607 177.322 413.607 169.887C413.607 161.586 407.134 157.96 400.518 157.96ZM391.06 96.1658H380.954V117.801L367.09 96.1658H356.733V135.033H366.834V113.007L380.954 135.033H391.06V96.1658ZM424.487 126.608H406.478V119.62H423.834V111.202H406.478V104.593H424.487V96.1658H396.108V135.033H424.487V126.608ZM272.131 115.085C274.986 113.79 277.442 111.719 277.442 106.796C277.442 99.9286 272.131 96.1658 263.719 96.1658H244.675V135.033H263.452C272.131 135.033 277.84 131.142 277.84 123.368C277.84 118.448 274.986 116.116 272.131 115.085ZM255.036 104.202H262.158C265.266 104.202 267.081 105.235 267.081 107.83C267.081 110.425 265.268 111.458 262.158 111.458H255.036V104.202ZM262.547 126.999H255.036V119.492H262.547C265.654 119.492 267.469 120.652 267.469 123.244C267.469 125.839 265.656 126.999 262.547 126.999ZM298.821 135.68C309.311 135.68 317.599 127.266 317.599 115.601C317.599 103.95 309.311 95.5229 298.821 95.5229C288.329 95.5229 280.039 103.95 280.039 115.601C280.039 127.266 288.329 135.68 298.821 135.68ZM298.821 104.983C304.006 104.983 307.235 110.034 307.235 115.601C307.235 121.167 304.006 126.217 298.821 126.217C293.643 126.217 290.395 121.167 290.395 115.601C290.395 110.034 293.643 104.983 298.821 104.983ZM331.079 120.652H335.741L343.512 135.035H354.395L345.592 118.973C350.386 117.417 353.495 113.397 353.495 107.828C353.495 100.055 347.529 96.1658 338.465 96.1658H320.715V135.033H331.083V120.652H331.079ZM331.079 104.202H337.554C341.445 104.202 343.129 105.624 343.129 108.347C343.129 110.942 341.442 112.616 337.423 112.616H331.077V104.202H331.079ZM261.765 143.197H244.672V182.12H255.036V168.588H261.251C270.707 168.588 276.415 164.698 276.415 155.63C276.415 147.077 270.32 143.197 261.765 143.197ZM261.513 160.164H255.036V151.621H261.513C264.36 151.621 266.047 153.172 266.047 155.895C266.047 158.613 264.362 160.164 261.513 160.164ZM312.036 154.851C312.036 147.077 306.076 143.199 297.008 143.199H279.262V182.122H289.628V167.683H294.292L302.059 182.122H312.942L304.139 165.996C308.922 164.445 312.036 160.426 312.036 154.851ZM295.975 159.649H289.626V151.235H296.103C299.981 151.235 301.666 152.657 301.666 155.376C301.666 157.96 299.981 159.649 295.975 159.649ZM421.893 176.54C421.893 175.887 421.502 174.969 420.201 174.969H418.264V180.04H418.918V177.965H420.08L421.252 180.04H422.017L420.727 177.965C421.504 177.711 421.893 177.322 421.893 176.54ZM418.918 177.444V175.626H420.201C420.983 175.626 421.25 176.021 421.25 176.542C421.25 177.196 420.859 177.446 420.077 177.446H418.918V177.444ZM419.951 172.893C417.357 172.893 415.287 174.969 415.287 177.572C415.287 180.169 417.355 182.246 419.951 182.246C422.544 182.246 424.615 180.171 424.615 177.572C424.615 174.969 422.546 172.893 419.951 172.893ZM419.951 181.727C417.619 181.727 415.808 179.914 415.808 177.57C415.808 175.231 417.617 173.406 419.951 173.406C422.281 173.406 424.092 175.231 424.092 177.57C424.092 179.914 422.283 181.727 419.951 181.727Z" fill="black"/>
</g>
</svg>
