<svg width="480" height="320" viewBox="0 0 480 320" fill="none" xmlns="http://www.w3.org/2000/svg">
<path d="M410.63 137.793C408.332 137.793 406.148 138.318 404.163 139.396C402.173 140.473 400.482 142.041 399.139 144.011C397.49 146.419 396.661 149.251 396.662 152.063C396.664 154.876 397.504 157.751 399.156 160.134C401.98 164.235 405.843 166.316 410.648 166.316C412.97 166.316 415.169 165.777 417.15 164.713C419.136 163.65 420.815 162.119 422.139 160.17C423.787 157.762 424.615 155.028 424.615 152.063C424.615 149.123 423.776 146.41 422.103 143.975C420.764 142.027 419.06 140.473 417.079 139.396C415.094 138.318 412.928 137.793 410.63 137.793ZM351.071 137.864C346.87 138.01 343.072 139.262 339.74 141.57L339.348 141.837L342.11 146.647L342.537 146.398C345.313 144.828 348.253 144.029 351.285 144.029C353.279 144.029 354.828 144.301 355.935 144.812C356.926 145.273 357.414 145.823 357.414 146.505C357.414 148.046 355.746 148.821 352.461 148.821H346.849V154.861H351.588C354.135 154.861 355.947 155.041 357.004 155.413C358.372 155.873 358.536 156.66 358.536 157.212C358.536 159.214 356.31 160.241 351.926 160.241C347.53 160.241 343.952 158.82 341.29 156.036L340.952 155.698L336.765 159.92L337.121 160.259C341.204 164.218 346.141 166.227 351.784 166.227C355.999 166.227 359.302 165.469 361.6 163.965C363.967 162.416 365.164 160.231 365.164 157.462C365.164 154.762 363.884 152.714 361.351 151.369C363.078 149.994 363.952 148.166 363.952 145.935C363.952 143.51 362.854 141.54 360.692 140.073C358.53 138.604 355.584 137.864 351.926 137.864C351.643 137.864 351.351 137.855 351.071 137.864ZM381.447 137.864C377.246 138.01 373.448 139.262 370.116 141.57L369.725 141.837L372.486 146.647L372.914 146.398C375.689 144.828 378.629 144.029 381.661 144.029C383.655 144.029 385.204 144.301 386.311 144.812C387.302 145.273 387.79 145.823 387.79 146.505C387.79 148.046 386.122 148.821 382.837 148.821H377.225V154.861H381.964C384.511 154.861 386.323 155.041 387.38 155.413C388.748 155.873 388.912 156.66 388.912 157.212C388.912 159.214 386.686 160.241 382.303 160.241C377.906 160.241 374.328 158.82 371.666 156.036L371.328 155.698L367.141 159.92L367.498 160.259C371.581 164.218 376.517 166.227 382.16 166.227C386.376 166.227 389.678 165.469 391.977 163.965C394.343 162.416 395.54 160.231 395.54 157.462C395.54 154.762 394.26 152.714 391.727 151.369C393.454 149.994 394.328 148.166 394.328 145.935C394.328 143.51 393.23 141.54 391.068 140.073C388.906 138.604 385.96 137.864 382.303 137.864C382.019 137.864 381.727 137.855 381.447 137.864ZM318.807 138.31L305.249 165.8H313.302L315.315 161.363H324.579L321.711 155.342H318.041L321.479 147.823L330.155 165.8H338.226L324.134 138.31H318.807ZM410.648 143.886C412.894 143.886 414.689 144.632 416.117 146.166C417.537 147.689 418.255 149.674 418.255 152.063C418.255 154.403 417.537 156.363 416.117 157.871C414.689 159.396 412.9 160.134 410.63 160.134C408.38 160.134 406.588 159.385 405.16 157.871C403.745 156.38 403.022 154.428 403.022 152.063C403.022 149.649 403.749 147.657 405.16 146.149C406.592 144.628 408.377 143.886 410.648 143.886V143.886Z" fill="#1E3174"/>
<path d="M190.71 172.242H175.953V163.961H190.715C193.138 163.997 195.102 165.813 195.102 168.079C195.102 170.347 193.133 172.242 190.71 172.242ZM175.955 147.957H190.448C192.438 147.979 194.118 149.513 194.118 151.512C194.118 153.514 192.355 155.107 190.366 155.089H175.955V147.957ZM199.046 159.539C201.771 157.617 202.803 154.436 202.803 150.934C202.803 144.35 197.264 139.076 190.458 139.076H165.837V181.114H191.433L191.431 181.134C198.613 181.134 204.598 175.585 204.598 168.8C204.598 164.37 201.936 161.099 199.047 159.541M237.022 138.981L237.024 162.62C237.024 169.842 232.804 172.878 227.611 172.878C222.416 172.878 218.228 169.857 218.228 162.627V138.981H207.751V162.69C207.751 177.806 216.633 182.211 227.616 182.211C238.6 182.211 247.499 177.806 247.499 162.69L247.495 138.981H237.022L237.022 138.981ZM273.793 155.366C265.315 153.524 262.451 152.709 262.451 150.016C262.451 147.643 265.522 146.452 270.37 146.452C274.947 146.452 280.474 148.401 283.724 150.345L287.03 141.79C282.109 139.748 276.196 137.789 268.371 137.789C258.116 137.789 251.707 143.784 251.707 151.113C251.707 158.452 256.984 161.68 267.441 163.894C275.555 165.611 277.751 166.636 277.751 169.158C277.751 171.681 274.493 172.613 270.101 172.613C264.413 172.613 258.938 170.719 253.778 168.5L250.657 176.844C256.827 179.703 263.231 181.994 270.859 181.994C283.58 181.994 288.765 175.914 288.765 168.832C288.765 162.533 284.4 157.672 273.793 155.366M76.6231 139.08L55.3845 181.114H67.9955L71.1688 174.356H85.657L81.155 165.147H75.4315L80.816 153.651L94.3867 181.116H107.033L84.969 139.075H76.6231V139.08ZM161.951 153.057C161.951 145.397 156.706 139.185 145.905 139.185H124.093V181.226H134.207L134.201 148.067H146.602C150.267 148.067 151.792 150.335 151.792 153.037C151.792 155.74 150.192 157.908 146.525 157.908H137.85L150.975 181.226H161.35C161.35 181.226 152.371 165.988 152.418 165.978C158.904 163.964 161.95 159.045 161.95 153.06M109.195 181.139H119.65V139.103H109.195V181.139Z" fill="#7093CB"/>
</svg>
