<svg width="480" height="320" viewBox="0 0 480 320" fill="none" xmlns="http://www.w3.org/2000/svg">
<path d="M192.858 123.18H213.171V148.287C215.18 146.178 217.462 144.596 220.016 143.542C222.569 142.488 225.394 141.961 228.492 141.96C234.884 141.96 240.172 144.259 244.357 148.855C248.541 153.452 250.633 160.05 250.633 168.649C250.633 174.382 249.678 179.431 247.767 183.797C245.855 188.163 243.212 191.424 239.834 193.583C236.457 195.741 232.709 196.82 228.591 196.82C225.065 196.82 221.836 196.062 218.904 194.547C216.696 193.36 214.291 191.137 211.688 187.874V195.634H192.858V123.18ZM213.023 169.242C213.023 173.756 213.871 177.026 215.568 179.052C217.265 181.079 219.415 182.092 222.018 182.092C224.423 182.092 226.441 181.095 228.072 179.102C229.703 177.109 230.519 173.756 230.519 169.044C230.519 164.893 229.719 161.845 228.121 159.901C226.523 157.957 224.588 156.985 222.314 156.985C219.58 156.985 217.347 157.998 215.617 160.025C213.888 162.051 213.023 165.124 213.023 169.242ZM261.302 123.18H281.467V195.634H261.302V123.18ZM352.119 195.634H333.339V187.133C330.538 190.626 327.713 193.114 324.862 194.596C322.012 196.079 318.512 196.82 314.361 196.82C308.825 196.82 304.484 195.164 301.337 191.853C298.191 188.542 296.617 183.443 296.617 176.557V143.146H316.831V172.009C316.831 175.304 317.441 177.643 318.66 179.027C319.879 180.411 321.592 181.103 323.8 181.103C326.205 181.103 328.174 180.18 329.706 178.336C331.238 176.49 332.004 173.179 332.004 168.402V143.146H352.12L352.119 195.634ZM424.615 174.382H384.286C384.648 177.611 385.522 180.016 386.906 181.598C388.849 183.871 391.386 185.008 394.516 185.008C396.493 185.008 398.372 184.514 400.151 183.525C401.238 182.899 402.408 181.796 403.66 180.214L423.479 182.042C420.447 187.314 416.79 191.095 412.507 193.386C408.223 195.675 402.078 196.82 394.072 196.82C387.12 196.82 381.65 195.84 377.663 193.88C373.677 191.919 370.374 188.805 367.754 184.539C365.134 180.271 363.825 175.255 363.825 169.489C363.825 161.285 366.452 154.646 371.708 149.571C376.963 144.498 384.22 141.961 393.478 141.96C400.991 141.96 406.922 143.097 411.271 145.371C415.62 147.644 418.932 150.939 421.205 155.256C423.478 159.571 424.615 165.189 424.615 172.109V174.382ZM404.154 164.745C403.759 160.856 402.713 158.073 401.016 156.392C399.319 154.712 397.086 153.871 394.319 153.871C391.123 153.871 388.569 155.14 386.658 157.677C385.439 159.259 384.665 161.614 384.336 164.744L404.154 164.745Z" fill="#252F86"/>
<path d="M92.6495 189.159C89.3545 191.96 86.1834 193.937 83.1356 195.09C80.0884 196.244 76.8177 196.82 73.3254 196.82C67.5594 196.82 63.1273 195.412 60.0305 192.594C56.9332 189.777 55.3848 186.177 55.3848 181.796C55.3848 179.225 55.9695 176.878 57.1393 174.752C58.3091 172.628 59.8407 170.923 61.7355 169.637C63.6302 168.352 65.7638 167.38 68.1357 166.721C69.8823 166.26 72.5183 165.816 76.0437 165.387C83.2263 164.53 88.5147 163.509 91.9083 162.323C91.941 161.104 91.9578 160.329 91.9578 160C91.9578 156.375 91.1175 153.822 89.4373 152.34C87.164 150.33 83.7867 149.325 79.3055 149.325C75.1211 149.325 72.0322 150.058 70.0389 151.524C68.0455 152.99 66.5709 155.585 65.6151 159.308L56.9178 158.122C57.7081 154.398 59.0097 151.392 60.8217 149.102C62.6338 146.812 65.2534 145.05 68.6802 143.814C72.1065 142.578 76.0769 141.961 80.5908 141.96C85.072 141.96 88.7128 142.488 91.5134 143.542C94.3143 144.596 96.3736 145.923 97.6916 147.521C99.0096 149.119 99.9317 151.137 100.459 153.575C100.756 155.091 100.904 157.825 100.904 161.779V173.641C100.904 181.911 101.093 187.141 101.472 189.332C101.851 191.524 102.601 193.624 103.721 195.634H94.4293C93.5062 193.789 92.9131 191.631 92.6495 189.16V189.159ZM91.9083 169.291C88.6792 170.609 83.8358 171.73 77.378 172.652C73.7208 173.18 71.1339 173.773 69.6187 174.432C68.103 175.091 66.9331 176.054 66.1096 177.323C65.2856 178.591 64.8739 180 64.8739 181.548C64.8739 183.921 65.7717 185.898 67.5674 187.479C69.363 189.06 71.9911 189.851 75.4506 189.851C78.8774 189.851 81.9251 189.102 84.5939 187.603C87.2626 186.103 89.2232 184.053 90.4753 181.45C91.4306 179.44 91.9083 176.474 91.9083 172.553V169.291ZM121.03 133.41V123.18H129.926V133.411L121.03 133.41ZM121.03 195.634V143.146H129.926V195.634L121.03 195.634ZM153.018 195.634V143.146H161.024V151.103C163.067 147.38 164.953 144.925 166.683 143.739C168.412 142.553 170.315 141.96 172.391 141.96C175.389 141.96 178.437 142.916 181.535 144.827L178.47 153.08C176.296 151.795 174.121 151.153 171.946 151.153C170.002 151.153 168.256 151.738 166.708 152.907C165.159 154.077 164.055 155.7 163.396 157.775C162.408 160.938 161.914 164.398 161.914 168.154V195.634L153.018 195.634Z" fill="#828282"/>
</svg>
