<svg width="480" height="320" viewBox="0 0 480 320" fill="none" xmlns="http://www.w3.org/2000/svg">
<path d="M264.589 175.981H245.115V165.168H264.6C267.803 165.219 270.389 167.591 270.389 170.554C270.389 173.516 267.793 175.981 264.589 175.981ZM245.115 144.277H264.254C266.872 144.308 269.091 146.307 269.091 148.928C269.091 151.538 266.767 153.619 264.139 153.588H245.115V144.277ZM275.593 159.399C279.195 156.892 280.556 152.739 280.556 148.172C280.556 139.575 273.238 132.688 264.265 132.688H231.765V187.57H265.542V187.591C275.028 187.591 282.922 180.352 282.922 171.486C282.922 165.707 279.404 161.429 275.593 159.399M325.714 132.564V163.418C325.714 172.854 320.144 176.81 313.296 176.81C306.438 176.81 300.91 172.864 300.91 163.428V132.564H287.079V163.511C287.079 183.252 298.805 189 313.296 189C327.797 189 339.534 183.252 339.534 163.511V132.564H325.714ZM374.243 153.952C363.05 151.549 359.271 150.482 359.271 146.971C359.271 143.874 363.323 142.31 369.72 142.31C375.761 142.31 383.059 144.858 387.341 147.395L391.707 136.23C385.216 133.558 377.405 131 367.081 131C353.544 131 345.094 138.83 345.094 148.4C345.094 157.981 352.057 162.196 365.857 165.086C376.557 167.323 379.457 168.669 379.457 171.962C379.457 175.256 375.164 176.468 369.364 176.468C361.856 176.468 354.632 173.992 347.826 171.103L343.712 181.988C351.847 185.717 360.297 188.71 370.369 188.71C387.152 188.71 394 180.776 394 171.527C394 163.303 388.241 156.965 374.243 153.951M114.028 132.687L86 187.56L102.647 187.571L106.836 178.747H125.953L120.007 166.721H112.458L119.567 151.714L137.471 187.571H154.161L125.043 132.688L114.028 132.687ZM226.646 150.936C226.646 140.942 219.714 132.832 205.464 132.832H176.682V187.715L190.021 187.704V144.422H206.386C211.223 144.422 213.233 147.384 213.233 150.906C213.233 154.437 211.118 157.265 206.281 157.265H194.837L212.155 187.705H225.85C225.85 187.705 213.998 167.809 214.06 167.798C222.614 165.168 226.645 158.757 226.645 150.936M157.019 187.591H170.818V132.719H157.019V187.591Z" fill="#00205B"/>
</svg>
