<svg width="480" height="320" viewBox="0 0 480 320" fill="none" xmlns="http://www.w3.org/2000/svg">
<path d="M153.59 190.889H159.861V166.339H153.59V190.889ZM181.455 174.799C181.455 172.278 180.46 169.69 178.437 168.098C176.844 166.87 175.218 166.338 170.872 166.338H163.109V190.89H169.115V182.96H169.18L174.853 190.89H182.02L175.351 182.53C179.995 181.732 181.455 177.62 181.455 174.799ZM171.337 178.68H169.115V171.846H171.402C173.824 171.846 175.45 172.908 175.45 175.163C175.45 176.359 175.019 178.68 171.337 178.68ZM197.484 174.906C198.256 174.482 200.616 173.012 200.616 169.454C200.616 161.953 192.456 161.915 190.678 161.915H183.795V190.528H190.95C200.113 190.528 202.355 185.964 202.355 181.829C202.355 178.618 200.576 175.95 197.484 174.906ZM189.093 166.864H191.568C192.728 166.864 195.317 167.096 195.317 169.957C195.317 170.769 194.97 173.051 191.528 173.051H189.094L189.093 166.864ZM192.535 185.578H189.093V178.001H192.535C196.633 178.001 197.059 180.706 197.059 181.868C197.059 185.462 193.153 185.578 192.535 185.578M222.84 174.799C222.84 172.278 221.845 169.69 219.821 168.098C218.228 166.87 216.603 166.338 212.256 166.338H204.493V190.89H210.499V182.96H210.565L216.238 190.89H223.404L216.736 182.53C221.379 181.732 222.84 177.62 222.84 174.799ZM212.721 178.68H210.499V171.846H212.787C215.208 171.846 216.834 172.908 216.834 175.163C216.834 176.359 216.404 178.68 212.721 178.68ZM224.959 190.889H231.23V166.339H224.959V190.889ZM242.605 166.339H234.478V190.889H243.071C252.392 190.889 255.712 185.282 255.712 178.548C255.712 175.86 255.147 173.272 253.455 170.917C250.269 166.306 245.359 166.339 242.605 166.339ZM243.435 185.382H240.749V171.846H243.468C246.223 171.846 247.516 173.007 248.246 174.102C249.141 175.528 249.439 177.221 249.439 178.647C249.439 182.13 248.114 185.382 243.435 185.382ZM268.212 176.922V181.932H275.743C274.913 184.253 272.923 185.978 269.772 185.978C266.686 185.978 262.906 183.657 262.906 178.514C262.906 173.638 266.422 171.25 269.639 171.25C272.426 171.25 274.184 172.842 275.046 174.567H282.079C280.754 169.822 275.81 165.742 269.806 165.742C262.441 165.742 256.634 171.117 256.634 178.514C256.634 185.648 262.142 191.487 269.705 191.487C276.64 191.487 282.809 186.444 282.809 178.215C282.809 177.718 282.809 177.354 282.778 176.922H268.212ZM284.829 190.889H298.463V185.381H290.832V181.168H298.232V175.662H290.832V171.846H298.463V166.339H284.829V190.889ZM321.837 182.756C320.098 185.076 317.623 186.274 314.955 186.274C309.349 186.274 305.211 181.712 305.211 176.221C305.211 171.117 309.078 166.361 314.918 166.361C318.435 166.361 320.717 168.295 322.107 170.112H328.141C325.744 164.621 320.794 161.412 314.878 161.412C304.747 161.412 299.913 169.842 299.913 176.221C299.913 182.795 304.785 191.224 314.801 191.224C321.025 191.224 325.627 187.782 327.985 182.756L321.837 182.756ZM336.616 166.339L326.762 190.889H333.498L334.791 187.34H343.316L344.51 190.889H351.312L341.558 166.339L336.616 166.339ZM336.515 182.363L339.038 173.97H339.136L341.658 182.363H336.515ZM370.748 174.799C370.748 172.278 369.754 169.69 367.729 168.098C366.137 166.87 364.511 166.338 360.165 166.338H352.403V190.89H358.406V182.96H358.473L364.147 190.89H371.311L364.644 182.53C369.288 181.732 370.748 177.62 370.748 174.799ZM360.63 178.68H358.406V171.846H360.696C363.117 171.846 364.744 172.908 364.744 175.163C364.744 176.359 364.312 178.68 360.63 178.68ZM383.118 176.922V181.932H390.649C389.819 184.253 387.829 185.978 384.678 185.978C381.592 185.978 377.809 183.657 377.809 178.514C377.809 173.638 381.327 171.25 384.545 171.25C387.332 171.25 389.09 172.842 389.952 174.567H396.987C395.659 169.822 390.716 165.742 384.712 165.742C377.347 165.742 371.54 171.117 371.54 178.514C371.54 185.648 377.048 191.487 384.611 191.487C391.546 191.487 397.715 186.444 397.715 178.215C397.715 177.718 397.715 177.354 397.684 176.922H383.118ZM411.612 165.742C404.645 165.742 400.895 170.419 399.536 173.638C398.772 175.462 398.639 177.287 398.639 178.912C398.639 185.249 403.783 191.487 411.577 191.487C419.242 191.487 424.616 185.515 424.616 178.613C424.616 171.714 419.242 165.742 411.612 165.742M411.71 185.979C407.431 185.979 404.911 182.396 404.911 178.548C404.911 175.064 407.199 171.249 411.644 171.249C416.224 171.249 418.346 175.43 418.346 178.647C418.346 181.866 416.19 185.979 411.71 185.979Z" fill="#004C82"/>
<path d="M163.716 161.535C163.873 161.735 164.105 161.872 164.379 161.872C164.491 161.872 164.602 161.85 164.705 161.808C164.809 161.765 164.903 161.702 164.983 161.623C165.062 161.543 165.125 161.449 165.168 161.346C165.211 161.242 165.233 161.131 165.233 161.019C165.233 160.851 165.172 160.702 165.088 160.57L165.1 160.562C160.175 153.347 154.307 148.16 148.756 144.457C151.421 143.55 154.197 142.753 157.114 142.111L157.113 142.095C157.499 142.012 157.796 141.684 157.796 141.273C157.796 141.047 157.706 140.83 157.546 140.669C157.387 140.509 157.17 140.419 156.944 140.419C156.944 140.419 152.14 140.204 144.739 141.981C136.764 137.478 130.225 136.036 129.383 135.863C134.023 134.95 138.974 134.541 144.269 134.412C144.883 134.44 145.528 134.458 146.234 134.458C182.64 134.458 200.213 152.806 209.18 161.648L209.186 161.644C209.342 161.791 209.548 161.874 209.763 161.875C209.989 161.875 210.206 161.785 210.366 161.625C210.525 161.465 210.615 161.248 210.616 161.022C210.616 160.813 210.532 160.628 210.407 160.48L210.415 160.472C197.854 145.503 175.911 129.047 138.732 128.538C138.384 128.534 138.033 128.518 137.685 128.518C137.641 128.518 137.601 128.521 137.558 128.521C137.359 128.521 137.167 128.513 136.968 128.513C136.968 128.513 136.961 128.521 136.949 128.537C93.9514 128.924 67.7282 162.85 55.3846 190.513H70.1441C76.9697 176.373 85.0985 163.127 95.9343 153.059C102.771 153.283 109.354 154.582 115.473 156.676C106.236 164.083 96.7637 174.836 88.5665 190.514H99.6657C100.316 189.038 101.002 187.579 101.726 186.137C104.78 180.224 111.396 169.298 122.606 159.569C126.414 161.37 129.979 163.478 133.224 165.823C133.421 165.965 134.099 166.502 134.603 166.894L134.614 166.891L124.775 190.531H130.614L133.59 182.952H144.031L147.009 190.531H152.846L140.937 161.918H136.684L135.326 165.18C134.838 164.695 133.985 163.901 133.565 163.504C131.121 161.193 128.396 159.097 125.477 157.193C130.67 153.077 136.753 149.301 143.786 146.349C150.721 149.842 157.954 154.738 163.705 161.546L163.716 161.535ZM138.811 169.648L142.097 178H135.524L138.811 169.648ZM119.422 153.672C114.165 151.032 108.38 149.035 102.223 147.817C107.526 143.88 113.426 140.673 120.04 138.373C121.8 138.671 129.374 140.094 138.369 143.854C132.714 145.811 126.197 148.872 119.422 153.672" fill="#004C82"/>
</svg>
