<svg width="480" height="320" viewBox="0 0 480 320" fill="none" xmlns="http://www.w3.org/2000/svg">
<path d="M282.934 193.14V199.416H282.03V192.133H283.404L286.332 197.898V192.133H287.235V199.416H286.151L282.934 193.14ZM295.642 196.687C295.642 195.985 295.511 195.453 295.258 195.11C294.997 194.766 294.63 194.596 294.155 194.596C293.675 194.596 293.308 194.766 293.047 195.11C292.787 195.456 292.658 195.985 292.658 196.687C292.658 197.374 292.789 197.891 293.047 198.247C293.308 198.598 293.675 198.776 294.155 198.776C294.63 198.776 294.992 198.603 295.253 198.252C295.511 197.909 295.642 197.384 295.642 196.687ZM296.59 196.687C296.59 197.604 296.368 198.314 295.926 198.815C295.48 199.316 294.894 199.564 294.153 199.564C293.393 199.564 292.794 199.308 292.361 198.789C291.927 198.275 291.71 197.573 291.71 196.687C291.71 195.773 291.932 195.063 292.381 194.56C292.831 194.054 293.419 193.801 294.155 193.801C294.894 193.801 295.482 194.054 295.929 194.555C296.368 195.063 296.59 195.771 296.59 196.687ZM305.242 199.416H304.323V198.812C304.044 199.06 303.773 199.246 303.518 199.375C303.267 199.507 302.98 199.566 302.668 199.566C302.428 199.566 302.203 199.528 301.994 199.45C301.782 199.375 301.602 199.249 301.444 199.076C301.289 198.908 301.168 198.696 301.08 198.438C300.992 198.177 300.951 197.865 300.951 197.501V193.953H301.868V197.067C301.868 197.353 301.878 197.594 301.899 197.785C301.922 197.978 301.968 198.146 302.046 198.288C302.112 198.419 302.219 198.526 302.35 198.593C302.48 198.657 302.663 198.688 302.908 198.688C303.13 198.688 303.37 198.626 303.623 198.505C303.879 198.371 304.111 198.218 304.323 198.03V193.95H305.242V199.416ZM311.434 199.416L309.392 193.95H310.386L311.881 198.167L313.363 193.95H314.318L312.263 199.416H311.434ZM321.919 196.075C321.912 195.828 321.881 195.613 321.829 195.435C321.777 195.259 321.703 195.105 321.604 194.978C321.496 194.84 321.354 194.734 321.191 194.668C321.026 194.596 320.814 194.56 320.569 194.56C320.326 194.56 320.117 194.598 319.947 194.668C319.774 194.746 319.616 194.849 319.477 194.991C319.345 195.13 319.239 195.292 319.164 195.469C319.095 195.642 319.048 195.846 319.028 196.075H321.919ZM320.843 199.54C319.97 199.54 319.296 199.295 318.816 198.807C318.333 198.317 318.096 197.619 318.096 196.711C318.096 195.825 318.328 195.115 318.793 194.591C319.26 194.064 319.872 193.798 320.623 193.798C320.964 193.798 321.261 193.85 321.524 193.945C321.785 194.043 322.012 194.198 322.209 194.407C322.405 194.617 322.555 194.87 322.66 195.172C322.764 195.471 322.815 195.843 322.815 196.282V196.78H319.033C319.033 197.415 319.193 197.903 319.513 198.237C319.833 198.572 320.275 198.737 320.84 198.737C321.042 198.737 321.24 198.712 321.431 198.668C321.625 198.624 321.801 198.567 321.958 198.497C322.121 198.422 322.265 198.348 322.376 198.278C322.476 198.22 322.571 198.154 322.66 198.082H322.715V199.081C322.609 199.127 322.475 199.176 322.317 199.243C322.157 199.303 322.012 199.352 321.886 199.391C321.71 199.437 321.54 199.476 321.4 199.504C321.246 199.528 321.062 199.54 320.843 199.54ZM327.218 191.805H328.134V199.414H327.218V191.805ZM332.958 191.805H333.877V199.414H332.958V191.805ZM342.131 196.075C342.124 195.828 342.093 195.613 342.044 195.435C341.989 195.259 341.914 195.105 341.819 194.978C341.709 194.842 341.567 194.736 341.406 194.668C341.241 194.596 341.029 194.56 340.784 194.56C340.538 194.56 340.329 194.598 340.161 194.668C339.986 194.746 339.827 194.855 339.691 194.991C339.557 195.128 339.451 195.29 339.379 195.469C339.307 195.642 339.26 195.846 339.24 196.075H342.131ZM341.055 199.54C340.185 199.54 339.508 199.295 339.028 198.807C338.548 198.317 338.31 197.619 338.31 196.711C338.31 195.825 338.54 195.115 339.01 194.591C339.474 194.064 340.081 193.798 340.838 193.798C341.176 193.798 341.476 193.85 341.739 193.945C342 194.043 342.227 194.198 342.426 194.407C342.617 194.617 342.769 194.87 342.875 195.172C342.978 195.471 343.03 195.843 343.03 196.282V196.78H339.245C339.245 197.415 339.405 197.903 339.725 198.237C340.045 198.572 340.487 198.737 341.052 198.737C341.253 198.737 341.452 198.712 341.646 198.668C341.84 198.624 342.018 198.567 342.17 198.497C342.335 198.422 342.477 198.348 342.591 198.278C342.705 198.208 342.798 198.144 342.875 198.082H342.929V199.081C342.821 199.127 342.689 199.176 342.532 199.243C342.371 199.303 342.227 199.352 342.098 199.391C341.922 199.437 341.757 199.476 341.612 199.504C341.457 199.528 341.277 199.54 341.055 199.54ZM347.184 195.786H349.945V196.674H347.184V195.786ZM357.419 199.543C356.944 199.543 356.508 199.468 356.108 199.303C355.71 199.143 355.362 198.91 355.075 198.593C354.788 198.278 354.559 197.885 354.401 197.41C354.241 196.933 354.161 196.393 354.161 195.778C354.161 195.172 354.236 194.642 354.391 194.185C354.546 193.734 354.773 193.338 355.072 193.005C355.359 192.677 355.705 192.427 356.103 192.259C356.498 192.089 356.944 192.001 357.437 192.001C357.68 192.001 357.91 192.016 358.127 192.053C358.341 192.091 358.537 192.138 358.718 192.192C358.878 192.244 359.036 192.3 359.204 192.375C359.366 192.448 359.531 192.53 359.689 192.621V193.785H359.612C359.504 193.689 359.395 193.595 359.284 193.504C359.132 193.381 358.97 193.272 358.798 193.178C358.604 193.075 358.401 192.99 358.191 192.925C357.972 192.861 357.719 192.83 357.43 192.83C357.12 192.83 356.828 192.892 356.552 193.018C356.271 193.151 356.024 193.344 355.826 193.584C355.62 193.832 355.457 194.141 355.343 194.513C355.23 194.89 355.173 195.314 355.173 195.778C355.173 196.279 355.232 196.708 355.354 197.067C355.475 197.428 355.638 197.736 355.847 197.981C356.048 198.226 356.286 198.404 356.56 198.526C356.831 198.652 357.122 198.709 357.427 198.709C357.709 198.709 357.969 198.675 358.209 198.608C358.45 198.539 358.661 198.453 358.842 198.348C359.023 198.247 359.178 198.144 359.309 198.038C359.439 197.934 359.542 197.839 359.617 197.769H359.689V198.921C359.529 198.996 359.379 199.065 359.235 199.135C359.068 199.215 358.895 199.282 358.718 199.334C358.509 199.401 358.313 199.455 358.129 199.491C357.946 199.533 357.714 199.543 357.419 199.543ZM367.024 198.069V196.553C366.805 196.574 366.529 196.6 366.196 196.636C365.863 196.667 365.591 196.716 365.387 196.78C365.142 196.855 364.941 196.969 364.781 197.124C364.621 197.281 364.538 197.493 364.538 197.772C364.538 198.087 364.628 198.322 364.807 198.479C364.985 198.637 365.24 198.719 365.579 198.719C365.87 198.719 366.131 198.66 366.366 198.536C366.596 198.407 366.815 198.255 367.024 198.069ZM367.024 198.833C366.947 198.887 366.849 198.967 366.722 199.065C366.609 199.158 366.486 199.237 366.356 199.303C366.196 199.386 366.036 199.455 365.886 199.499C365.731 199.543 365.517 199.564 365.248 199.564C365.023 199.564 364.809 199.525 364.605 199.44C364.407 199.356 364.226 199.235 364.073 199.083C363.919 198.923 363.798 198.732 363.719 198.523C363.631 198.301 363.587 198.065 363.588 197.826C363.588 197.449 363.668 197.126 363.828 196.86C363.988 196.594 364.238 196.385 364.584 196.23C364.892 196.086 365.253 195.988 365.669 195.939C366.087 195.884 366.536 195.843 367.022 195.822V195.642C367.022 195.425 366.986 195.257 366.921 195.123C366.862 194.996 366.767 194.891 366.647 194.818C366.531 194.743 366.387 194.691 366.219 194.666C366.046 194.643 365.872 194.631 365.697 194.632C365.486 194.632 365.235 194.663 364.949 194.728C364.655 194.794 364.367 194.884 364.089 194.999H364.034V194.069C364.2 194.018 364.445 193.966 364.76 193.906C365.078 193.85 365.39 193.819 365.7 193.819C366.074 193.819 366.392 193.85 366.645 193.906C366.903 193.966 367.135 194.074 367.342 194.227C367.541 194.376 367.691 194.57 367.789 194.805C367.884 195.048 367.931 195.332 367.931 195.678V199.414H367.022V198.833H367.024ZM372.702 191.805H373.621V199.414H372.702V191.805ZM382.109 191.221L380.771 193.049H380.043L380.921 191.221H382.109ZM381.874 196.075C381.866 195.828 381.837 195.613 381.786 195.435C381.732 195.259 381.659 195.105 381.561 194.978C381.452 194.84 381.309 194.733 381.145 194.668C380.98 194.596 380.771 194.56 380.523 194.56C380.28 194.56 380.074 194.598 379.903 194.668C379.728 194.746 379.573 194.849 379.434 194.991C379.301 195.13 379.194 195.292 379.119 195.469C379.049 195.642 379.002 195.846 378.984 196.075H381.874ZM380.797 199.54C379.927 199.54 379.25 199.295 378.77 198.807C378.287 198.317 378.05 197.619 378.05 196.711C378.05 195.825 378.282 195.115 378.749 194.591C379.219 194.064 379.829 193.798 380.58 193.798C380.918 193.798 381.218 193.85 381.481 193.945C381.742 194.043 381.969 194.198 382.165 194.407C382.362 194.617 382.511 194.87 382.617 195.172C382.718 195.471 382.772 195.843 382.772 196.282V196.78H378.989C378.989 197.415 379.15 197.903 379.472 198.237C379.787 198.572 380.231 198.737 380.797 198.737C380.998 198.737 381.194 198.712 381.388 198.668C381.587 198.624 381.76 198.567 381.917 198.497C382.08 198.422 382.222 198.348 382.338 198.278C382.452 198.208 382.545 198.144 382.62 198.082H382.674V199.086C382.566 199.127 382.431 199.176 382.274 199.246C382.114 199.305 381.972 199.355 381.845 199.393C381.664 199.44 381.499 199.478 381.357 199.507C381.202 199.528 381.019 199.54 380.797 199.54ZM390.441 198.087V194.934C390.211 194.823 390.007 194.746 389.824 194.704C389.63 194.661 389.433 194.641 389.235 194.642C388.762 194.642 388.393 194.818 388.125 195.174C387.859 195.528 387.724 196.034 387.724 196.705C387.724 197.351 387.825 197.839 388.034 198.177C388.236 198.518 388.566 198.688 389.023 198.688C389.263 198.688 389.509 198.634 389.751 198.526C389.994 198.417 390.224 198.27 390.441 198.087ZM391.36 199.416H390.441V198.856C390.293 198.98 390.172 199.076 390.069 199.156C389.953 199.239 389.829 199.312 389.7 199.373C389.569 199.433 389.434 199.48 389.294 199.515C389.15 199.551 388.992 199.566 388.804 199.566C388.512 199.566 388.233 199.507 387.983 199.386C387.728 199.258 387.508 199.07 387.342 198.838C387.159 198.598 387.019 198.301 386.924 197.947C386.828 197.594 386.777 197.188 386.777 196.726C386.777 196.248 386.836 195.833 386.963 195.484C387.087 195.13 387.257 194.826 387.477 194.567C387.673 194.327 387.915 194.144 388.194 194.005C388.478 193.873 388.775 193.803 389.082 193.803C389.356 193.803 389.594 193.834 389.798 193.896C389.999 193.953 390.211 194.049 390.438 194.175V191.807H391.357V199.416H391.36ZM399.689 196.687C399.689 195.985 399.558 195.453 399.302 195.11C399.044 194.766 398.68 194.596 398.205 194.596C397.724 194.596 397.355 194.766 397.094 195.11C396.834 195.456 396.707 195.985 396.707 196.687C396.707 197.374 396.836 197.891 397.094 198.247C397.355 198.598 397.724 198.776 398.205 198.776C398.68 198.776 399.041 198.603 399.302 198.252C399.558 197.909 399.689 197.384 399.689 196.687ZM400.637 196.687C400.637 197.604 400.417 198.314 399.971 198.815C399.529 199.316 398.941 199.564 398.202 199.564C397.443 199.564 396.844 199.308 396.41 198.789C395.976 198.275 395.757 197.573 395.757 196.687C395.757 195.773 395.982 195.063 396.428 194.56C396.88 194.054 397.469 193.801 398.205 193.801C398.941 193.801 399.532 194.054 399.973 194.555C400.417 195.063 400.637 195.771 400.637 196.687ZM409.331 199.416H408.411V196.303C408.411 196.055 408.398 195.82 408.373 195.603C408.349 195.383 408.303 195.213 408.233 195.084C408.163 194.951 408.053 194.843 407.918 194.777C407.786 194.712 407.601 194.676 407.373 194.676C407.144 194.676 406.909 194.738 406.666 194.862C406.41 194.99 406.171 195.151 405.956 195.34V199.416H405.037V193.953H405.956V194.56C406.23 194.317 406.501 194.129 406.767 193.997C407.033 193.868 407.317 193.801 407.614 193.801C408.151 193.801 408.571 193.976 408.876 194.333C409.178 194.689 409.331 195.2 409.331 195.871V199.416ZM414.094 199.416H415.011V193.953H414.094V199.416ZM414.032 193.039H415.078V192.084H414.032V193.039ZM423.266 196.075C423.258 195.828 423.232 195.613 423.178 195.435C423.126 195.259 423.051 195.105 422.956 194.978C422.846 194.841 422.703 194.735 422.54 194.668C422.377 194.596 422.168 194.56 421.918 194.56C421.675 194.56 421.466 194.598 421.298 194.668C421.123 194.746 420.97 194.849 420.828 194.991C420.694 195.129 420.588 195.291 420.513 195.469C420.444 195.642 420.397 195.846 420.376 196.075H423.266ZM422.189 199.54C421.319 199.54 420.645 199.295 420.165 198.807C419.684 198.317 419.444 197.619 419.444 196.711C419.444 195.825 419.677 195.115 420.144 194.591C420.614 194.064 421.221 193.798 421.972 193.798C422.313 193.798 422.61 193.85 422.876 193.945C423.137 194.043 423.361 194.198 423.56 194.407C423.759 194.617 423.909 194.87 424.012 195.172C424.115 195.471 424.169 195.843 424.169 196.282V196.78H420.382C420.382 197.415 420.542 197.903 420.864 198.237C421.182 198.572 421.623 198.737 422.189 198.737C422.39 198.737 422.589 198.712 422.783 198.668C422.976 198.624 423.155 198.567 423.31 198.497C423.47 198.422 423.614 198.348 423.728 198.278C423.841 198.208 423.934 198.144 424.012 198.082H424.066V199.081C423.96 199.127 423.823 199.176 423.666 199.243C423.524 199.297 423.38 199.346 423.235 199.391C423.056 199.437 422.894 199.476 422.749 199.504C422.594 199.528 422.414 199.54 422.189 199.54ZM163.694 163.085L161.683 150.906L152.961 163.088L163.694 163.085ZM129.62 177.333L157.552 140.387L171.957 140.382L179.545 177.325L165.951 177.327L164.743 169.783L148.218 169.788L142.858 177.333H129.62ZM208.017 145.489H195.621L197.485 138.714L209.879 138.711L208.017 145.489ZM199.243 177.32H186.886L194.557 149.46L206.914 149.455L199.243 177.32ZM243.556 157.66H242.533C242.094 157.544 241.433 157.459 240.555 157.402C239.68 157.343 238.696 157.312 237.614 157.312C236.318 157.317 234.924 157.449 233.424 157.709C231.924 157.97 230.46 158.29 229.016 158.657L223.878 177.317H211.521L219.192 149.455L231.549 149.45L230.449 153.441C231.113 153.077 232.022 152.62 233.176 152.068C234.328 151.513 235.363 151.066 236.277 150.738C237.276 150.358 238.41 150.028 239.675 149.757C240.935 149.483 242.097 149.346 243.158 149.346C243.556 149.346 244.002 149.357 244.493 149.37C244.983 149.388 245.422 149.413 245.815 149.444L243.556 157.66ZM264.948 178.053C261.674 178.053 258.761 177.761 256.2 177.183C253.641 176.607 251.524 175.711 249.858 174.505C248.214 173.297 247.09 171.776 246.484 169.953C245.882 168.125 245.923 165.972 246.605 163.49C247.338 160.831 248.562 158.556 250.279 156.69C251.994 154.818 254.041 153.281 256.422 152.075C258.72 150.916 261.279 150.062 264.103 149.509C266.925 148.946 269.784 148.675 272.681 148.675C274.87 148.675 277.011 148.848 279.102 149.204C281.194 149.563 283.238 150.126 285.237 150.906L283.184 158.347H281.596C281.194 158.014 280.687 157.65 280.081 157.252C279.471 156.86 278.787 156.491 278.031 156.158C277.23 155.809 276.301 155.522 275.237 155.28C274.173 155.042 272.947 154.921 271.56 154.921C268.402 154.921 265.748 155.693 263.592 157.239C261.439 158.789 260 160.865 259.28 163.48C258.511 166.279 258.862 168.365 260.331 169.736C261.798 171.105 264.062 171.794 267.127 171.794C268.679 171.794 270.078 171.668 271.323 171.42C272.567 171.167 273.662 170.875 274.604 170.524C275.523 170.173 276.326 169.816 277.021 169.445C277.713 169.07 278.309 168.74 278.815 168.438H280.403L278.353 175.882C277.589 176.093 276.701 176.344 275.696 176.625C274.687 176.909 273.677 177.136 272.663 177.325C271.4 177.552 270.225 177.73 269.143 177.857C268.064 177.986 266.665 178.053 264.948 178.053ZM310.432 170.028L312.03 164.226C309.895 164.374 308.165 164.5 306.841 164.609C305.516 164.714 304.189 164.924 302.854 165.244C301.695 165.507 300.747 165.91 299.998 166.444C299.249 166.981 298.754 167.699 298.506 168.59C298.147 169.896 298.4 170.795 299.265 171.283C300.133 171.771 301.542 172.016 303.494 172.016C304.581 172.016 305.735 171.841 306.959 171.492C308.183 171.144 309.342 170.656 310.432 170.028ZM309.244 174.345C308.261 174.841 307.38 175.285 306.598 175.688C305.818 176.086 304.811 176.481 303.569 176.878C302.358 177.258 301.201 177.55 300.099 177.748C298.996 177.95 297.507 178.048 295.622 178.048C292.118 178.048 289.433 177.222 287.568 175.567C285.702 173.911 285.121 171.83 285.81 169.316C286.381 167.247 287.426 165.579 288.955 164.304C290.486 163.031 292.454 162.024 294.873 161.273C297.318 160.516 300.138 159.982 303.324 159.685C306.515 159.388 309.918 159.155 313.541 158.987L313.582 158.84C314.006 157.301 313.494 156.238 312.041 155.649C310.592 155.068 308.253 154.771 305.031 154.771C303.572 154.771 301.811 154.957 299.756 155.337C297.7 155.701 295.66 156.178 293.644 156.759H292.585L294.437 150.038C295.728 149.785 297.785 149.496 300.61 149.155C303.435 148.812 306.236 148.644 309.012 148.644C315.841 148.644 320.59 149.444 323.267 151.035C325.95 152.631 326.838 155.071 325.937 158.345L320.719 177.299L308.428 177.304L309.244 174.345ZM343.311 138.69L355.669 138.688L345.044 177.291H332.684L343.311 138.69ZM378.458 145.453L366.082 145.458L367.946 138.688L380.322 138.683L378.458 145.453ZM369.681 177.284L357.324 177.286L364.995 149.421H377.355L369.681 177.284ZM419.106 177.276L406.681 177.281L410.482 163.457C410.795 162.331 411.037 161.208 411.213 160.093C411.394 158.977 411.376 158.156 411.172 157.627C410.919 156.997 410.43 156.547 409.705 156.276C408.985 156.005 407.952 155.863 406.609 155.868C405.594 155.868 404.536 156.005 403.428 156.261C402.318 156.532 401.099 156.953 399.762 157.531L394.324 177.278L381.966 177.281L389.638 149.416H401.998L401.151 152.494C403.506 151.285 405.739 150.343 407.846 149.669C409.948 148.985 412.166 148.647 414.497 148.647C418.543 148.641 421.394 149.543 423.041 151.334C424.691 153.129 425.042 155.732 424.105 159.14L419.106 177.276Z" fill="#004A8F"/>
<path d="M128.396 184.844C128.396 184.844 277.576 182.574 424.572 184.534C424.569 184.534 271.666 187.428 128.396 184.844Z" fill="#00B1EB"/>
<path d="M79.3248 157.307C79.3248 157.307 75.5809 141.727 84.1273 139.233C92.6712 136.741 93.9028 140.57 93.9028 140.57L94.1997 142.649L96.459 141.595L96.9909 144.691C96.9909 144.691 103.523 143.555 102.749 146.411C101.972 149.271 90.8018 152.003 89.2371 158.437C89.2371 158.437 106.118 147.074 113.97 149.382C121.827 151.698 118.675 155.099 118.675 155.099L120.423 156.485L118.357 158.391L121.949 164.719C121.949 164.719 121.819 171.182 112.201 174.454L99.2759 167.942C99.2759 167.942 111.429 177.315 107.652 184.25C103.877 191.193 99.6271 188.231 99.6271 188.231L97.5847 184.766L95.9193 187.648L94.4553 186.734C94.4553 186.734 83.9543 190.023 82.9474 189.543C81.943 189.057 80.6933 179.7 84.0834 174.986C87.4736 170.279 83.864 175.577 83.864 175.577C83.864 175.577 75.5757 179.971 72.183 187.002C68.7851 194.033 62.6089 185.799 62.6089 185.799L63.0866 183.183L61.478 183.191L56.8227 181.585C56.8227 181.585 52.6656 169.661 58.488 163.867C64.3079 158.063 62.9472 160.694 62.9472 160.694L61.5296 157.629L64.3079 158.063C64.3079 158.063 67.1868 149.545 69.0923 149.284C70.9979 149.029 77.3806 163.651 82.8105 164.735C88.243 165.817 79.8954 160.581 79.3248 157.307Z" fill="#F04923"/>
<path d="M114.479 137.707C113.978 136.834 112.436 137.201 111.037 138.517C110.73 138.801 110.461 139.116 110.226 139.439C110.329 139.029 110.317 138.662 110.169 138.401C109.767 137.704 108.535 137.996 107.417 139.049C106.296 140.105 105.715 141.531 106.116 142.228C106.518 142.925 107.753 142.633 108.871 141.577C109.075 141.386 109.248 141.182 109.413 140.978C109.315 141.283 109.263 141.577 109.266 141.84C100.634 154.577 93.2546 161.492 90.04 164.198C89.2499 162.731 86.8254 158.2 85.4983 155.497C86.3452 159.424 86.5259 167.42 86.5259 167.42L81.3826 166.922C81.3826 166.922 81.93 169.313 80.5563 168.786C79.1801 168.265 75.129 165.21 74.517 166.191C73.9051 167.167 79.4099 169.261 76.3967 168.902C73.3784 168.546 67.8555 171.879 67.8555 171.879C76.7505 170.475 78.6327 170.462 78.6327 170.462L83.8406 170.333C84.0524 172.171 86.8642 172.577 87.9512 172.747C89.0382 172.915 88.6638 169.447 90.0194 170.808C91.3801 172.176 93.3915 178.208 93.3915 178.208C93.6677 176.677 92.4697 169.618 92.4697 169.618C92.4697 169.618 93.722 171.428 94.5482 172.285C95.3719 173.145 96.8746 172.385 96.9701 170.057C97.0657 167.733 92.1702 167.384 94.4398 165.399C96.7068 163.416 102.075 167.196 102.888 166.171C103.699 165.148 101.241 162.168 101.241 162.168C101.992 161.786 111.076 158.453 111.076 158.453C106.908 158.373 98.2611 161.51 93.5387 163.359C96.7842 158.195 103.954 150.126 109 144.668C108.945 144.996 108.974 145.287 109.1 145.507C109.501 146.201 110.735 145.91 111.853 144.856C112.976 143.803 113.557 142.375 113.157 141.678C113.118 141.611 113.066 141.564 113.015 141.518C114.303 140.214 114.962 138.543 114.479 137.707ZM119.439 125.336C120.559 124.28 121.14 122.855 120.74 122.155C120.337 121.455 119.106 121.75 117.988 122.811C116.864 123.867 116.286 125.29 116.686 125.984C117.084 126.684 118.318 126.395 119.439 125.336ZM111.682 132.723C112.578 131.879 113.041 130.743 112.723 130.183C112.4 129.625 111.414 129.855 110.518 130.702C109.622 131.549 109.157 132.69 109.48 133.245C109.798 133.805 110.786 133.57 111.682 132.723ZM125.806 120.738C125.483 120.18 124.499 120.412 123.603 121.257C122.708 122.106 122.24 123.245 122.563 123.803C122.886 124.365 123.872 124.125 124.768 123.284C125.661 122.437 126.126 121.301 125.806 120.738ZM118.579 136.39C117.458 137.448 116.877 138.871 117.278 139.568C117.68 140.265 118.912 139.979 120.03 138.92C121.151 137.864 121.732 136.436 121.331 135.742C120.931 135.042 119.697 135.331 118.579 136.39ZM119.767 128.915C119.266 128.04 117.724 128.409 116.327 129.731C114.928 131.053 114.2 132.827 114.701 133.704C115.202 134.575 116.746 134.213 118.143 132.891C119.547 131.572 120.27 129.788 119.767 128.915ZM85.4957 155.497C85.2995 154.593 85.0697 153.904 84.7986 153.576C84.3338 153.01 84.7366 153.953 85.4957 155.497Z" fill="#FDB913"/>
</svg>
