<svg width="480" height="320" viewBox="0 0 480 320" fill="none" xmlns="http://www.w3.org/2000/svg">
<path d="M126.274 138.02C125.829 138.208 119.995 137.376 118.648 137.142C117.301 136.907 114.602 137.584 114.602 137.584C107.579 142.682 93.7337 161.984 93.1297 162.801C92.5257 163.622 87.6503 170.153 87.6503 170.153C87.6503 170.153 88.5896 169.544 76.4113 184.707C64.236 199.874 56.8088 192.86 56.8088 192.86C55.8522 192.053 55.2685 192.796 55.4043 193.308C55.5315 193.773 56.1875 194.189 56.1875 194.189C67.9091 201.486 78.2696 187.181 78.2696 187.181C78.2696 187.181 89.5172 172.673 90.0374 171.945C90.5547 171.22 91.1819 171.289 91.1819 171.289C91.1819 171.289 97.8981 171.653 100.407 171.856C102.915 172.061 101.736 174.948 101.736 174.948C101.736 174.948 99.8372 181.167 96.4849 189.661C93.1239 198.151 102.057 197.833 102.057 197.833C106.097 198.354 106.796 194.31 106.796 194.31L119.402 159.741C119.402 159.741 127.416 141.026 127.743 139.855C128.072 138.691 126.711 137.829 126.274 138.02ZM115.275 142.78C115.275 142.78 106.484 162.926 105.926 164.232C105.371 165.544 104.903 165.556 104.296 165.099C103.701 164.642 97.427 163.628 97.427 163.628C95.8867 163.434 97.375 161.622 97.375 161.622C107.842 147.097 113.287 143.419 114.434 142.211C115.582 141.005 115.275 142.78 115.275 142.78Z" fill="#ED1C24"/>
<path d="M108.288 129.171C108.62 132.385 109.929 133.596 112.481 133.243C115.036 132.893 129.91 129.058 138.895 128.96C138.895 128.96 121.154 166.564 118.432 178.924C118.432 178.924 116.501 184.135 119.865 184.135C123.232 184.135 129.361 183.147 130.04 181.222C130.72 179.294 143.745 136.951 148.712 130.18C148.712 130.18 149.92 126.931 154.64 126.778C159.353 126.625 181.938 124.183 195.197 125.379C195.197 125.379 197.827 125.694 197.431 124.64C197.255 124.177 196.891 124.047 196.174 123.813C194.862 123.382 157.238 119.961 125.448 124.278C125.448 124.278 107.958 125.96 108.288 129.171Z" fill="#173667"/>
<path d="M169.87 168.171C169.269 168.139 168.757 168.073 168.217 168.073C167.613 168.073 167.075 168.139 166.532 168.171C165.61 165.527 164.463 162.475 163.191 159.579H155.108C153.998 162.379 152.851 165.18 151.964 168.171C151.519 168.139 151.166 168.073 150.787 168.073C150.371 168.073 150.022 168.139 149.669 168.171L159.599 145.93H160.327L169.87 168.171ZM159.18 150.1L155.712 158.244H162.714L159.18 150.1ZM174.803 149.144C173.913 149.144 173.184 148.412 173.184 147.519C173.184 146.629 173.913 145.898 174.803 145.898C175.661 145.898 176.427 146.629 176.427 147.519C176.427 148.412 175.661 149.144 174.803 149.144ZM176.08 168.171C175.6 168.139 175.219 168.073 174.803 168.073C174.358 168.073 173.947 168.139 173.534 168.171V152.961C173.947 152.993 174.358 153.056 174.803 153.056C175.219 153.056 175.6 152.993 176.08 152.961V168.171ZM181.739 152.964C182.152 152.996 182.562 153.059 183.007 153.059C183.426 153.059 183.805 152.996 184.285 152.964V156.146L184.444 155.764C185.496 154.108 186.863 152.773 188.452 152.773C188.897 152.773 189.154 152.805 189.438 152.932L188.992 155.605C188.519 155.478 188.036 155.094 187.498 155.094C186.796 155.094 185.935 155.348 185.461 155.889C184.348 157.16 184.285 158.212 184.285 159.929V168.171C183.805 168.139 183.426 168.073 183.007 168.073C182.562 168.073 182.152 168.139 181.739 168.171V152.964ZM192.969 144.277C193.382 144.312 193.793 144.372 194.238 144.372C194.654 144.372 195.035 144.312 195.515 144.277V168.174C195.035 168.142 194.654 168.076 194.238 168.076C193.793 168.076 193.382 168.142 192.969 168.174V144.277ZM203.087 149.144C202.197 149.144 201.463 148.412 201.463 147.519C201.463 146.629 202.194 145.898 203.087 145.898C203.945 145.898 204.708 146.629 204.708 147.519C204.708 148.412 203.945 149.144 203.087 149.144ZM204.358 168.171C203.884 168.139 203.5 168.073 203.087 168.073C202.642 168.073 202.228 168.139 201.815 168.171V152.961C202.231 152.993 202.642 153.056 203.087 153.056C203.503 153.056 203.884 152.993 204.358 152.961V168.171ZM209.962 152.964C210.372 152.996 210.786 153.059 211.231 153.059C211.647 153.059 212.025 152.996 212.502 152.964V155.86C213.615 153.918 215.366 152.773 217.626 152.773C221.317 152.773 222.747 154.776 222.747 158.975V168.174C222.267 168.142 221.889 168.076 221.475 168.076C221.03 168.076 220.617 168.142 220.204 168.174V159.709C220.204 156.753 219.663 154.429 216.669 154.429C213.332 154.429 212.502 156.877 212.502 160.79V168.174C212.022 168.142 211.644 168.076 211.231 168.076C210.786 168.076 210.372 168.142 209.962 168.174V152.964ZM239.257 166.547C237.703 167.662 235.729 168.425 233.787 168.425C229.397 168.425 226.279 165.53 226.279 160.599C226.279 156.178 228.825 152.773 233.564 152.773C237.099 152.773 240.341 155.253 240.017 160.567C237.859 160.504 235.697 160.472 233.564 160.472H229.079C228.79 164.033 230.732 167.09 234.578 167.09C236.746 167.09 238.431 165.723 239.289 164.894L239.257 166.547ZM237.541 159.296C237.477 156.527 236.714 153.756 233.564 153.756C230.573 153.756 229.27 156.62 229.079 159.296H237.541ZM243.364 165.084C244.127 166.327 245.526 167.437 247.02 167.437C248.583 167.437 250.141 166.229 250.141 164.544C250.141 160.25 242.633 163.047 242.633 157.481C242.633 154.426 244.956 152.773 247.817 152.773C249.468 152.773 250.843 153.25 251.412 153.6C251.097 154.334 250.843 155.097 250.647 155.86H250.358C249.944 154.811 248.835 153.759 247.653 153.759C246.063 153.759 244.76 154.681 244.76 156.403C244.76 160.475 252.268 158.31 252.268 163.4C252.268 166.804 249.213 168.428 246.416 168.428C245.115 168.428 243.555 168.076 242.439 167.411C242.693 166.645 242.98 165.882 243.107 165.087H243.364V165.084ZM271.521 152.773C275.882 152.773 278.905 155.796 278.905 160.536C278.905 164.576 276.2 168.425 270.946 168.425C266.657 168.425 263.151 165.275 263.438 160.437C263.438 155.86 266.937 152.773 271.521 152.773ZM266.241 160.917C266.241 164.067 267.579 167.44 271.203 167.44C274.925 167.44 276.101 162.859 276.101 160.38C276.101 157.516 275.02 153.759 271.489 153.759C267.449 153.759 266.241 157.545 266.241 160.917ZM282.812 154.172H280.615C280.711 153.791 280.711 153.377 280.615 152.964H282.812L282.875 152.71C283.352 149.146 285.008 143.771 289.589 144.28C289.424 145.109 289.398 146.095 289.424 146.826L289.268 146.953L288.629 146.635C288.28 146.508 287.898 146.476 287.514 146.476C284.335 146.476 284.586 150.071 285.288 152.967H288.534C288.438 153.38 288.438 153.796 288.534 154.175H285.349V168.174C284.872 168.142 284.491 168.076 284.078 168.076C283.635 168.076 283.219 168.142 282.806 168.174V154.172H282.812ZM308.107 168.235C307.599 168.203 307.154 168.142 306.709 168.142C306.232 168.142 305.752 168.203 305.307 168.235V147.936C302.096 147.936 300.154 148.126 298.342 148.32C298.374 148.002 298.438 147.684 298.438 147.363C298.438 147.045 298.374 146.759 298.342 146.413H314.757C314.725 146.759 314.662 147.045 314.662 147.363C314.662 147.684 314.725 148.002 314.757 148.32C313.168 148.126 310.94 147.936 308.11 147.936V168.235H308.107ZM325.609 165.498C325.609 166.738 325.514 167.376 327.392 166.963V167.665C327.17 167.758 326.791 167.917 326.441 167.983C324.788 168.269 323.418 168.015 323.164 166.136L322.875 166.423C321.537 167.758 320.072 168.428 318.164 168.428C315.907 168.428 313.936 166.899 313.936 164.547C313.936 160.92 316.829 160.443 319.82 159.966C322.332 159.553 323.193 159.362 323.193 157.836C323.193 155.484 321.855 154.114 319.471 154.114C317.147 154.114 315.907 155.611 315.682 156.308H315.335V154.525C316.858 153.476 318.578 152.776 320.453 152.776C323.794 152.776 325.603 154.525 325.603 158.123V165.498H325.609ZM323.066 160.25L321.953 160.472C319.792 160.885 316.543 161.203 316.543 164.099C316.543 166.105 317.719 167.09 319.664 167.09C320.52 167.09 321.606 166.486 322.208 165.882C322.43 165.66 323.066 165.119 323.066 164.894V160.25ZM330.637 165.084C331.403 166.327 332.799 167.437 334.296 167.437C335.857 167.437 337.414 166.229 337.414 164.544C337.414 160.25 329.906 163.047 329.906 157.481C329.906 154.426 332.23 152.773 335.094 152.773C336.741 152.773 338.117 153.25 338.689 153.6C338.371 154.334 338.117 155.097 337.923 155.86H337.634C337.224 154.811 336.111 153.759 334.929 153.759C333.34 153.759 332.036 154.681 332.036 156.403C332.036 160.475 339.544 158.31 339.544 163.4C339.544 166.804 336.49 168.428 333.692 168.428C332.392 168.428 330.831 168.076 329.719 167.411C329.97 166.645 330.259 165.882 330.383 165.087H330.637V165.084ZM343.012 152.964C343.428 152.996 343.842 153.059 344.287 153.059C344.697 153.059 345.079 152.996 345.555 152.964V155.701C346.607 153.889 348.038 152.773 350.266 152.773C352.332 152.773 354.24 153.886 354.91 155.923C356.115 153.886 357.739 152.773 359.904 152.773C363.785 152.773 365.025 155.033 365.025 158.975V168.174C364.548 168.142 364.167 168.076 363.753 168.076C363.308 168.076 362.895 168.142 362.485 168.174V159.709C362.485 156.877 362.069 154.429 358.953 154.429C355.734 154.429 355.289 157.293 355.289 159.582V168.174C354.815 168.142 354.43 168.076 354.017 168.076C353.572 168.076 353.159 168.142 352.748 168.174V158.851C352.748 155.86 351.731 154.429 349.376 154.429C346.096 154.429 345.558 156.594 345.558 158.914V168.174C345.081 168.142 344.697 168.076 344.29 168.076C343.845 168.076 343.428 168.142 343.015 168.174V152.964H343.012ZM380.397 165.498C380.397 166.738 380.304 167.376 382.18 166.963V167.665C381.957 167.758 381.576 167.917 381.223 167.983C379.57 168.269 378.203 168.015 377.949 166.136L377.66 166.423C376.322 167.758 374.857 168.428 372.952 168.428C370.695 168.428 368.721 166.899 368.721 164.547C368.721 160.92 371.614 160.443 374.608 159.966C377.114 159.553 377.975 159.362 377.975 157.836C377.975 155.484 376.64 154.114 374.255 154.114C371.932 154.114 370.695 155.611 370.467 156.308H370.117V154.525C371.643 153.476 373.362 152.776 375.238 152.776C378.576 152.776 380.391 154.525 380.391 158.123V165.498H380.397ZM377.853 160.25L376.741 160.472C374.576 160.885 371.331 161.203 371.331 164.099C371.331 166.105 372.507 167.09 374.446 167.09C375.305 167.09 376.391 166.486 376.992 165.882C377.212 165.66 377.853 165.119 377.853 164.894V160.25ZM385.613 152.964C386.026 152.996 386.44 153.059 386.882 153.059C387.298 153.059 387.676 152.996 388.153 152.964V155.86C389.269 153.918 391.017 152.773 393.277 152.773C396.968 152.773 398.398 154.776 398.398 158.975V168.174C397.918 168.142 397.537 168.076 397.127 168.076C396.681 168.076 396.268 168.142 395.855 168.174V159.709C395.855 156.753 395.312 154.429 392.321 154.429C388.983 154.429 388.153 156.877 388.153 160.79V168.174C387.676 168.142 387.295 168.076 386.882 168.076C386.44 168.076 386.023 168.142 385.613 168.174V152.964ZM405.273 149.144C404.38 149.144 403.649 148.412 403.649 147.519C403.649 146.629 404.38 145.898 405.273 145.898C406.132 145.898 406.897 146.629 406.897 147.519C406.897 148.412 406.132 149.144 405.273 149.144ZM406.548 168.171C406.071 168.139 405.687 168.073 405.276 168.073C404.831 168.073 404.418 168.139 404.005 168.171V152.961C404.421 152.993 404.831 153.056 405.276 153.056C405.689 153.056 406.071 152.993 406.548 152.961V168.171ZM422.836 165.498C422.836 166.738 422.74 167.376 424.616 166.963V167.665C424.393 167.758 424.012 167.917 423.662 167.983C422.009 168.269 420.642 168.015 420.388 166.136L420.099 166.423C418.761 167.758 417.295 168.428 415.388 168.428C413.131 168.428 411.157 166.899 411.157 164.547C411.157 160.92 414.053 160.443 417.044 159.966C419.553 159.553 420.417 159.362 420.417 157.836C420.417 155.484 419.079 154.114 416.689 154.114C414.371 154.114 413.131 155.611 412.906 156.308H412.556V154.525C414.085 153.476 415.801 152.776 417.677 152.776C421.015 152.776 422.83 154.525 422.83 158.123V165.498H422.836ZM420.292 160.25L419.177 160.472C417.015 160.885 413.767 161.203 413.767 164.099C413.767 166.105 414.946 167.09 416.885 167.09C417.743 167.09 418.83 166.486 419.434 165.882C419.654 165.66 420.292 165.119 420.292 164.894V160.25Z" fill="#173667"/>
</svg>
