<svg width="480" height="320" viewBox="0 0 480 320" fill="none" xmlns="http://www.w3.org/2000/svg">
<path d="M246.169 202.937H254.521V171.25H243.014L246.169 175.329M332.594 202.937H340.945V171.25H329.438L332.594 175.329M270.112 202.937H261.856L261.761 175.207L258.701 171.25H280.932C286.401 171.25 290.224 171.822 292.458 172.962C293.926 173.721 295.047 174.719 295.81 175.956C296.631 177.19 297.045 178.566 297.045 180.089C297.045 183.08 296.104 185.406 294.223 187.022C293.045 188.022 291.515 188.781 289.577 189.304C291.105 189.731 292.281 190.204 293.105 190.729C293.869 191.205 294.576 191.916 295.164 192.864C295.633 193.626 295.985 194.34 296.221 195.004C296.397 195.716 296.574 196.761 296.691 198.14C296.928 200.419 297.221 202.033 297.632 202.937L288.283 202.984C287.989 202.225 287.693 200.705 287.4 198.423C287.165 196.572 286.755 195.146 286.108 194.195C285.518 193.201 284.635 192.439 283.46 191.869C281.929 191.205 279.695 190.918 276.814 190.918H270.207V202.938L270.112 202.937ZM270.207 185.265H281.813C283.754 185.265 285.168 185.028 285.989 184.6C287.225 183.888 287.87 182.652 287.87 180.895C287.87 178.947 286.929 177.712 285.049 177.189C284.401 176.998 283.344 176.904 281.813 176.904H270.207M302.365 171.25H310.654V189.017C310.654 191.296 310.89 192.817 311.01 193.532C311.3 194.954 312.184 195.952 313.595 196.475C315.066 197 317.595 197.283 321.241 197.283H329.237V202.937H320.358C316.182 202.937 313.125 202.793 311.243 202.367C306.891 201.367 304.186 199.135 303.069 195.715C302.599 194.387 302.365 192.153 302.365 189.064V188.492L302.347 175.329L299.192 171.25M201.4 202.937L215.552 175.306L212.414 171.25H227.215L243.447 202.937H233.682L229.862 195.622H214.984L211.161 202.937H201.4ZM222.452 178.899L216.866 189.968H228.039M356.48 179.706V202.935H348.481V171.25H359.184L374.771 194.86V175.276L371.653 171.25H382.708V202.935H372.476M398.33 171.25V202.937H389.979L389.976 175.329L386.821 171.25H389.979H398.33ZM398.624 186.927L413.618 171.25H424.615L408.209 186.927L423.851 202.937H412.855" fill="#20407E"/>
<path d="M91.8789 204.642L57.6309 115.484L93.1203 115.36C100.252 121.817 125.795 145.527 138.462 156.951C151.13 168.376 183.519 197.654 183.519 197.654C188.24 201.404 190.037 201.944 195.267 203.368L195.264 204.642" fill="white"/>
<path d="M91.8789 204.642L57.6309 115.484L93.1203 115.36C100.252 121.817 125.795 145.527 138.462 156.951C151.13 168.376 183.519 197.654 183.519 197.654C188.24 201.404 190.037 201.944 195.267 203.368L195.264 204.642H91.8789Z" stroke="white" stroke-width="7.72737" stroke-miterlimit="3.864"/>
<path d="M92.4453 203.85L92.1914 203.189L154.161 172.343L176.304 192.384C182.404 197.861 186.779 202.614 194.916 203.85" fill="#20407E"/>
<path d="M78.655 167.557H148.811L92.625 116.164L58.8672 116.171" fill="#E4292F"/>
<path d="M82.0743 147.382C82.4079 140.916 88.0643 135.967 94.7111 136.323C101.357 136.681 106.476 142.21 106.142 148.675C105.811 155.14 100.153 160.092 93.5091 159.733C86.8595 159.375 81.7414 153.846 82.075 147.381" fill="white"/>
<path d="M82.0743 147.382C82.4079 140.916 88.0643 135.967 94.7111 136.323C101.357 136.681 106.476 142.21 106.142 148.675C105.811 155.14 100.153 160.092 93.5091 159.733C86.8595 159.375 81.7414 153.846 82.075 147.381L82.0743 147.382Z" stroke="white" stroke-width="3.27822" stroke-miterlimit="3.864" stroke-linejoin="round"/>
<path d="M89.4843 146.117C89.4843 146.117 90.7885 144.838 89.6387 143.108C89.6289 143.091 90.3103 143.322 90.9627 143.382C90.9797 143.385 90.9924 143.072 90.9952 143.029C89.5562 142.606 87.5135 141.862 87.1509 140.958C87.1509 140.958 89.5217 142.098 91.0692 142.215L91.1941 141.827C89.6536 141.444 86.4483 140.488 85.8015 139.025C85.8015 139.025 89.1506 140.849 91.3979 141.115C91.4106 141.118 91.5602 140.727 91.5602 140.727C90.1212 140.314 87.0684 138.806 85.5977 136.258C85.5977 136.258 89.1958 139.237 91.9178 140.03C91.9129 140.028 92.1993 139.642 92.2021 139.637C90.6115 138.798 86.8095 137.149 85.9856 134.429C85.968 134.377 89.497 137.746 90.2933 137.582C90.2933 137.582 86.3468 134.342 85.9807 132.445C85.9807 132.445 92.6126 139.025 93.2714 139.443C93.5959 139.649 94.0353 140.528 94.0353 140.528C94.0353 140.528 95.499 144.136 98.0644 145.002C98.1166 145.022 94.7104 144.547 93.3018 144.908C91.7739 145.303 89.4843 146.117 89.4843 146.117Z" fill="white"/>
<path d="M89.4843 146.117C89.4843 146.117 90.7885 144.838 89.6387 143.108C89.6289 143.091 90.3103 143.322 90.9627 143.382C90.9797 143.385 90.9924 143.072 90.9952 143.029C89.5562 142.606 87.5135 141.862 87.1509 140.958C87.1509 140.958 89.5217 142.098 91.0692 142.215L91.1941 141.827C89.6536 141.444 86.4483 140.488 85.8015 139.025C85.8015 139.025 89.1506 140.849 91.3979 141.115C91.4106 141.118 91.5602 140.727 91.5602 140.727C90.1212 140.314 87.0684 138.806 85.5977 136.258C85.5977 136.258 89.1958 139.237 91.9178 140.03C91.9129 140.028 92.1993 139.642 92.2021 139.637C90.6115 138.798 86.8095 137.149 85.9856 134.429C85.968 134.377 89.497 137.746 90.2933 137.582C90.2933 137.582 86.3468 134.342 85.9807 132.445C85.9807 132.445 92.6126 139.025 93.2714 139.443C93.5959 139.649 94.0353 140.528 94.0353 140.528C94.0353 140.528 95.499 144.136 98.0644 145.002C98.1166 145.022 94.7104 144.547 93.3018 144.908C91.7739 145.303 89.4843 146.117 89.4843 146.117V146.117Z" stroke="white" stroke-width="3.27822" stroke-miterlimit="3.864" stroke-linejoin="round"/>
<path d="M87.4294 130.336C87.4294 130.336 90.3997 133.805 91.9431 134.887C94.8591 136.932 94.9113 139.463 94.8591 140.503C94.8591 140.503 92.7642 137.435 91.7484 136.338C90.7334 135.24 88.2251 132.714 87.4287 130.335" fill="white"/>
<path d="M87.4294 130.336C87.4294 130.336 90.3997 133.805 91.9431 134.887C94.8591 136.932 94.9113 139.463 94.8591 140.503C94.8591 140.503 92.7642 137.435 91.7484 136.338C90.7334 135.24 88.2251 132.714 87.4287 130.335L87.4294 130.336Z" stroke="white" stroke-width="3.27822" stroke-miterlimit="3.864" stroke-linejoin="round"/>
<path d="M106.886 143.912C106.886 143.912 103.786 145.566 102.46 147.102C102.45 147.12 102.22 147.172 101.634 147.142C101.044 147.11 99.9491 147.211 99.0956 146.763C98.2421 146.316 97.4951 145.559 97.4951 145.559C97.4951 145.559 98.8466 145.746 100.19 145.656C101.191 145.592 102.919 144.917 102.982 144.885C104.43 144.178 106.886 143.912 106.886 143.912Z" fill="white"/>
<path d="M106.886 143.912C106.886 143.912 103.786 145.566 102.46 147.102C102.45 147.12 102.22 147.172 101.634 147.142C101.044 147.11 99.9491 147.211 99.0956 146.763C98.2421 146.316 97.4951 145.559 97.4951 145.559C97.4951 145.559 98.8466 145.746 100.19 145.656C101.191 145.592 102.919 144.917 102.982 144.885C104.43 144.178 106.886 143.912 106.886 143.912Z" stroke="white" stroke-width="3.27822" stroke-miterlimit="3.864" stroke-linejoin="round"/>
<path d="M101.549 143.904C100.25 144.825 98.7344 145.092 98.7344 145.092C98.7344 145.092 100.728 145.017 101.457 144.681C103.465 143.76 106.025 143.405 106.025 143.405C105.682 143.056 104.858 142.874 104.858 142.874C104.863 142.907 104.916 143.029 104.913 143.061C104.908 143.138 104.888 143.214 104.854 143.283C104.82 143.352 104.773 143.414 104.715 143.465C104.657 143.517 104.589 143.556 104.516 143.581C104.443 143.606 104.366 143.616 104.288 143.611C104.132 143.605 103.984 143.536 103.878 143.421C103.771 143.306 103.715 143.153 103.721 142.996C103.723 142.934 103.783 142.817 103.759 142.817C103.448 142.812 102.847 142.984 101.549 143.905" fill="white"/>
<path d="M101.549 143.904C100.25 144.825 98.7344 145.092 98.7344 145.092C98.7344 145.092 100.728 145.017 101.457 144.681C103.465 143.76 106.025 143.405 106.025 143.405C105.682 143.056 104.858 142.874 104.858 142.874C104.863 142.907 104.916 143.029 104.913 143.061C104.908 143.138 104.888 143.214 104.854 143.283C104.82 143.352 104.773 143.414 104.715 143.465C104.657 143.517 104.589 143.556 104.516 143.581C104.443 143.606 104.366 143.616 104.288 143.611C104.132 143.605 103.984 143.536 103.878 143.421C103.771 143.306 103.715 143.153 103.721 142.996C103.723 142.934 103.783 142.817 103.759 142.817C103.448 142.812 102.847 142.984 101.549 143.905V143.904Z" stroke="white" stroke-width="3.27822" stroke-miterlimit="3.864" stroke-linejoin="round"/>
<path d="M87.904 151.85C87.8716 151.845 88.9966 151.487 89.604 150.407C89.604 150.407 90.5245 151.568 91.6368 151.853C91.651 151.858 89.3098 152.081 87.904 151.85Z" fill="white"/>
<path d="M87.904 151.85C87.8716 151.845 88.9966 151.487 89.604 150.407C89.604 150.407 90.5245 151.568 91.6368 151.853C91.651 151.858 89.3098 152.081 87.904 151.85V151.85Z" stroke="white" stroke-width="3.27822" stroke-miterlimit="3.864" stroke-linejoin="round"/>
<path d="M84.3555 151.482C84.3555 151.482 86.0328 150.146 86.7269 149.138C87.153 148.523 89.2479 146.705 90.761 146.473C90.761 146.473 92.1548 149.989 97.012 150.736C97.012 150.736 92.9808 152.674 84.4951 151.524" fill="white"/>
<path d="M84.3555 151.482C84.3555 151.482 86.0328 150.146 86.7269 149.138C87.153 148.523 89.2479 146.705 90.761 146.473C90.761 146.473 92.1548 149.989 97.012 150.736C97.012 150.736 92.9808 152.674 84.4951 151.524L84.3555 151.482Z" stroke="white" stroke-width="3.27822" stroke-miterlimit="3.864" stroke-linejoin="round"/>
<path d="M91.625 146.127C91.625 146.127 93.2876 145.216 96.236 145.445C97.0966 145.514 98.0051 147.545 100.389 147.779C101.389 147.876 101.962 147.759 101.962 147.759C101.962 147.759 100.051 149.931 98.446 150.016C96.7587 150.104 94.7456 149.919 92.573 147.635C92.068 147.102 91.625 146.127 91.625 146.127Z" fill="white"/>
<path d="M91.625 146.127C91.625 146.127 93.2876 145.216 96.236 145.445C97.0966 145.514 98.0051 147.545 100.389 147.779C101.389 147.876 101.962 147.759 101.962 147.759C101.962 147.759 100.051 149.931 98.446 150.016C96.7587 150.104 94.7456 149.919 92.573 147.635C92.068 147.102 91.625 146.127 91.625 146.127V146.127Z" stroke="white" stroke-width="3.27822" stroke-miterlimit="3.864" stroke-linejoin="round"/>
<path d="M77.834 150.437C77.834 150.437 80.7902 150.596 81.9498 150.31C83.1095 150.024 84.9159 149.628 85.615 149.215C85.615 149.215 83.6223 151.895 80.8777 151.748C78.1302 151.601 77.834 150.437 77.834 150.437Z" fill="white"/>
<path d="M77.834 150.437C77.834 150.437 80.7902 150.596 81.9498 150.31C83.1095 150.024 84.9159 149.628 85.615 149.215C85.615 149.215 83.6223 151.895 80.8777 151.748C78.1302 151.601 77.834 150.437 77.834 150.437Z" stroke="white" stroke-width="3.27822" stroke-miterlimit="3.864" stroke-linejoin="round"/>
<path d="M95.5587 139.826C95.5587 139.826 95.467 142.536 96.9299 142.944C97.128 143.002 97.3304 143.044 97.5351 143.071C97.5351 143.071 97.8956 143.32 99.8537 142.507C101.003 142.03 102.691 142.18 102.691 142.18C102.691 142.18 104.806 142.071 105.988 143.432C105.998 143.442 108.501 143.2 109.23 143.292C109.96 143.384 112.005 143.563 113.727 145.517C113.727 145.517 111.6 143.803 109.198 143.9C107.528 143.967 106.234 144.887 106.16 144.934C106.088 144.984 103.415 146.873 102.847 147.537C102.275 148.202 100.77 150.364 95.8775 151.668C92.3316 152.611 86.8247 152.519 86.8247 152.519C86.8247 152.519 84.6049 153.268 82.8379 153.226C81.0717 153.184 80.4326 152.437 80.4326 152.437C80.4326 152.437 77.3389 152.096 76.498 149.67C76.498 149.67 79.7251 149.827 79.8521 149.797C79.9791 149.769 84.4652 149.767 87.1605 147.704C89.6314 145.818 89.6095 144.601 89.6095 144.601C89.6095 144.601 89.4776 143.16 87.9921 142.523C86.3317 141.814 86.4121 140.779 86.4121 140.779C86.4121 140.779 84.7298 139.404 84.7897 137.529C84.7897 137.529 85.1897 137.992 85.8816 138.422L87.3418 139.201C85.9987 138.241 83.6124 135.389 83.331 133.241C83.331 133.241 84.8193 135.389 86.1158 135.954C86.1899 135.986 83.2986 133.137 83.2238 131.117C83.2238 131.117 84.4829 133.062 86.0157 133.839C86.0932 133.878 83.3014 130.32 83.4453 127.548C83.4453 127.548 85.5981 129.788 85.9635 130.504C85.742 129.767 84.655 125.321 84.8786 123.278C84.8786 123.278 85.742 128.747 90.4927 132.272C90.5202 132.291 85.6277 125.403 86.6258 121.285L86.9912 122.718L88.1812 125.239C88.1931 125.257 88.816 120.792 89.271 120.628C89.271 120.628 88.4795 126.254 91.9937 130.233C95.5065 134.21 95.5587 139.826 95.5587 139.826Z" fill="white"/>
<path d="M95.5587 139.826C95.5587 139.826 95.467 142.536 96.9299 142.944C97.128 143.002 97.3304 143.044 97.5351 143.071C97.5351 143.071 97.8956 143.32 99.8537 142.507C101.003 142.03 102.691 142.18 102.691 142.18C102.691 142.18 104.806 142.071 105.988 143.432C105.998 143.442 108.501 143.2 109.23 143.292C109.96 143.384 112.005 143.563 113.727 145.517C113.727 145.517 111.6 143.803 109.198 143.9C107.528 143.967 106.234 144.887 106.16 144.934C106.088 144.984 103.415 146.873 102.847 147.537C102.275 148.202 100.77 150.364 95.8775 151.668C92.3316 152.611 86.8247 152.519 86.8247 152.519C86.8247 152.519 84.6049 153.268 82.8379 153.226C81.0717 153.184 80.4326 152.437 80.4326 152.437C80.4326 152.437 77.3389 152.096 76.498 149.67C76.498 149.67 79.7251 149.827 79.8521 149.797C79.9791 149.769 84.4652 149.767 87.1605 147.704C89.6314 145.818 89.6095 144.601 89.6095 144.601C89.6095 144.601 89.4776 143.16 87.9921 142.523C86.3317 141.814 86.4121 140.779 86.4121 140.779C86.4121 140.779 84.7298 139.404 84.7897 137.529C84.7897 137.529 85.1897 137.992 85.8816 138.422L87.3418 139.201C85.9987 138.241 83.6124 135.389 83.331 133.241C83.331 133.241 84.8193 135.389 86.1158 135.954C86.1899 135.986 83.2986 133.137 83.2238 131.117C83.2238 131.117 84.4829 133.062 86.0157 133.839C86.0932 133.878 83.3014 130.32 83.4453 127.548C83.4453 127.548 85.5981 129.788 85.9635 130.504C85.742 129.767 84.655 125.321 84.8786 123.278C84.8786 123.278 85.742 128.747 90.4927 132.272C90.5202 132.291 85.6277 125.403 86.6258 121.285L86.9912 122.718L88.1812 125.239C88.1931 125.257 88.816 120.792 89.271 120.628C89.271 120.628 88.4795 126.254 91.9937 130.233C95.5065 134.21 95.5587 139.826 95.5587 139.826V139.826Z" stroke="white" stroke-width="4.32394" stroke-miterlimit="3.864" stroke-linejoin="round"/>
<path d="M85.249 139.023L87.4336 139.142L87.5182 137.544L85.3316 137.424" fill="white"/>
<path d="M85.3308 137.424L87.5161 137.541L87.4336 139.139L85.249 139.022L85.3308 137.424Z" stroke="white" stroke-width="3.27822" stroke-miterlimit="3.864" stroke-linejoin="round"/>
<path d="M81.2702 147.5C81.6229 140.628 87.6383 135.362 94.7047 135.743C101.773 136.121 107.215 142.001 106.861 148.877C106.508 155.75 100.491 161.012 93.4259 160.634C86.3588 160.253 80.9168 154.373 81.2702 147.5Z" fill="white"/>
<path d="M81.2702 147.5C81.6229 140.628 87.6383 135.362 94.7047 135.743C101.773 136.121 107.215 142.001 106.861 148.877C106.508 155.75 100.491 161.012 93.4259 160.634C86.3588 160.253 80.9168 154.373 81.2702 147.5V147.5Z" stroke="white" stroke-width="4.32394" stroke-miterlimit="3.864" stroke-linejoin="round"/>
<mask id="mask0_730_18573" style="mask-type:luminance" maskUnits="userSpaceOnUse" x="79" y="134" width="30" height="29">
<path d="M108.481 135.792L107.09 162.321L79.6152 160.88L81.0063 134.351" fill="white"/>
</mask>
<g mask="url(#mask0_730_18573)">
<path d="M81.2847 147.467C80.9338 154.323 86.361 160.191 93.4082 160.569C100.455 160.95 106.455 155.699 106.808 148.843C107.162 141.985 101.732 136.123 94.6847 135.742C94.4461 135.729 94.2071 135.723 93.9681 135.722C87.2344 135.722 81.6281 140.846 81.2847 147.467Z" fill="url(#paint0_linear_730_18573)"/>
</g>
<path d="M85.1846 139.15L87.3698 139.269L87.4516 137.669L85.2671 137.549" fill="white"/>
<path d="M85.2671 137.551L87.4516 137.668L87.3698 139.269L85.1846 139.149L85.2671 137.551Z" stroke="white" stroke-width="0.322709" stroke-miterlimit="3.864"/>
<path d="M95.5613 139.824C95.5613 139.824 95.4696 142.534 96.9326 142.941C97.1304 143 97.3325 143.042 97.5371 143.068C97.5371 143.068 97.8954 143.317 99.8535 142.504C101.003 142.029 102.633 142.066 102.633 142.066C102.633 142.066 104.805 142.068 105.99 143.43C106 143.439 108.504 143.198 109.233 143.29C109.959 143.382 112.005 143.561 113.729 145.515C113.729 145.515 111.599 143.801 109.2 143.897C107.529 143.964 106.236 144.885 106.162 144.933C106.087 144.982 103.418 146.873 102.847 147.536C102.275 148.2 100.772 150.362 95.8801 151.666C92.3335 152.606 86.8267 152.517 86.8267 152.517C86.8267 152.517 84.6076 153.266 82.8406 153.224C81.0715 153.181 80.4318 152.433 80.4318 152.433C80.4318 152.433 77.3387 152.094 76.5 149.668C76.5 149.668 79.725 149.824 79.8519 149.795C79.9789 149.767 84.4651 149.765 87.1631 147.702C89.6319 145.814 89.6094 144.599 89.6094 144.599C89.6094 144.599 89.4796 143.158 87.9912 142.521C86.3343 141.812 86.4112 140.777 86.4112 140.777C86.4112 140.777 84.7324 139.401 84.7917 137.527C84.7917 137.527 85.1923 137.99 85.8836 138.421L87.3423 139.199C85.9986 138.239 83.6123 135.387 83.3308 133.239C83.3308 133.239 84.8192 135.387 86.1157 135.952C86.1897 135.984 83.3012 133.135 83.2264 131.114C83.2264 131.114 84.4855 133.061 86.0155 133.837C86.0931 133.877 83.3033 130.318 83.4451 127.546C83.4451 127.546 84.8065 131.025 88.3623 133.441C88.3848 133.456 84.64 129.015 84.8813 123.276C84.8813 123.276 85.7418 128.746 90.4946 132.269C90.52 132.289 85.6275 125.401 86.6278 121.283C86.6278 121.283 87.0954 126.072 91.1591 131.157C91.1746 131.177 87.4516 126.118 89.1339 121.238C89.1339 121.238 88.4815 126.252 91.9928 130.231C95.5063 134.208 95.5613 139.824 95.5613 139.824" fill="#080909"/>
<path d="M95.5613 139.824C95.5613 139.824 95.4696 142.534 96.9326 142.941C97.1304 143 97.3325 143.042 97.5371 143.068C97.5371 143.068 97.8954 143.317 99.8535 142.504C101.003 142.029 102.633 142.066 102.633 142.066C102.633 142.066 104.805 142.068 105.99 143.43C106 143.439 108.504 143.198 109.233 143.29C109.959 143.382 112.005 143.561 113.729 145.515C113.729 145.515 111.599 143.801 109.2 143.897C107.529 143.964 106.236 144.885 106.162 144.933C106.087 144.982 103.418 146.873 102.847 147.536C102.275 148.2 100.772 150.362 95.8801 151.666C92.3335 152.606 86.8267 152.517 86.8267 152.517C86.8267 152.517 84.6076 153.266 82.8406 153.224C81.0715 153.181 80.4318 152.433 80.4318 152.433C80.4318 152.433 77.3387 152.094 76.5 149.668C76.5 149.668 79.725 149.824 79.8519 149.795C79.9789 149.767 84.4651 149.765 87.1631 147.702C89.6319 145.814 89.6094 144.599 89.6094 144.599C89.6094 144.599 89.4796 143.158 87.9912 142.521C86.3343 141.812 86.4112 140.777 86.4112 140.777C86.4112 140.777 84.7324 139.401 84.7917 137.527C84.7917 137.527 85.1923 137.99 85.8836 138.421L87.3423 139.199C85.9986 138.239 83.6123 135.387 83.3308 133.239C83.3308 133.239 84.8192 135.387 86.1157 135.952C86.1897 135.984 83.3012 133.135 83.2264 131.114C83.2264 131.114 84.4855 133.061 86.0155 133.837C86.0931 133.877 83.3033 130.318 83.4451 127.546C83.4451 127.546 84.8065 131.025 88.3623 133.441C88.3848 133.456 84.64 129.015 84.8813 123.276C84.8813 123.276 85.7418 128.746 90.4946 132.269C90.52 132.289 85.6275 125.401 86.6278 121.283C86.6278 121.283 87.0954 126.072 91.1591 131.157C91.1746 131.177 87.4516 126.118 89.1339 121.238C89.1339 121.238 88.4815 126.252 91.9928 130.231C95.5063 134.208 95.5613 139.824 95.5613 139.824V139.824Z" stroke="#080909" stroke-width="0.199268" stroke-miterlimit="3.864"/>
<path d="M77.8369 150.435C77.8369 150.435 80.7981 150.594 81.9549 150.308C83.1145 150.021 84.9189 149.626 85.6179 149.213C85.6179 149.213 83.6245 151.893 80.8799 151.745C78.1353 151.599 77.8369 150.435 77.8369 150.435Z" fill="#009450"/>
<path d="M77.8369 150.435C77.8369 150.435 80.7981 150.594 81.9549 150.308C83.1145 150.021 84.9189 149.626 85.6179 149.213C85.6179 149.213 83.6245 151.893 80.8799 151.745C78.1353 151.599 77.8369 150.435 77.8369 150.435V150.435Z" stroke="#009450" stroke-width="0.199268" stroke-miterlimit="3.864"/>
<path d="M91.625 146.125C91.625 146.125 93.2876 145.213 96.236 145.445C97.0966 145.513 98.0079 147.543 100.391 147.777C101.389 147.874 101.964 147.757 101.964 147.757C101.964 147.757 100.053 149.93 98.446 150.014C96.7587 150.101 94.7477 149.917 92.5758 147.635C92.068 147.1 91.625 146.125 91.625 146.125Z" fill="white"/>
<path d="M84.3613 151.48C84.3613 151.48 86.038 150.143 86.7321 149.135C87.1553 148.518 89.2531 146.702 90.7689 146.47C90.7739 146.467 92.1599 149.987 97.0171 150.733C97.0171 150.733 92.9859 152.671 84.5031 151.521" fill="#20407E"/>
<path d="M84.3613 151.48C84.3613 151.48 86.038 150.143 86.7321 149.135C87.1553 148.518 89.2531 146.702 90.7689 146.47C90.7739 146.467 92.1599 149.987 97.0171 150.733C97.0171 150.733 92.9859 152.671 84.5031 151.521L84.3613 151.48Z" stroke="#20407E" stroke-width="0.322709" stroke-miterlimit="3.864"/>
<path d="M87.9069 151.847C87.8745 151.843 88.9989 151.484 89.6062 150.404C89.6062 150.404 90.5295 151.567 91.6391 151.85C91.6539 151.853 89.3127 152.08 87.9069 151.847ZM101.551 143.902C100.252 144.826 98.7365 145.092 98.7365 145.092C98.7365 145.092 100.727 145.015 101.456 144.679C103.464 143.758 106.027 143.402 106.027 143.402C105.684 143.056 104.858 142.874 104.858 142.874C104.863 142.907 104.917 143.026 104.914 143.059C104.909 143.136 104.889 143.212 104.855 143.281C104.821 143.351 104.774 143.413 104.716 143.464C104.657 143.515 104.59 143.554 104.516 143.579C104.443 143.604 104.365 143.614 104.288 143.609C104.131 143.602 103.984 143.534 103.877 143.419C103.771 143.304 103.715 143.151 103.721 142.994C103.726 142.934 103.785 142.818 103.76 142.818C103.45 142.812 102.847 142.982 101.55 143.902" fill="white"/>
<path d="M106.889 143.912C106.889 143.912 103.789 145.564 102.462 147.1C102.452 147.114 102.221 147.172 101.634 147.139C101.044 147.11 99.9513 147.206 99.0978 146.759C98.2443 146.316 97.498 145.559 97.498 145.559C97.498 145.559 98.8488 145.746 100.19 145.656C101.191 145.587 102.92 144.913 102.982 144.885C104.43 144.173 106.889 143.912 106.889 143.912Z" fill="#E4292F"/>
<path d="M87.4316 130.333C87.4316 130.333 90.4027 133.802 91.946 134.884C94.8592 136.93 94.9142 139.46 94.8592 140.5C94.8592 140.5 92.7664 137.432 91.7514 136.335C90.7335 135.238 88.228 132.712 87.4316 130.333Z" fill="white"/>
<path d="M89.4871 146.114C89.4871 146.114 90.7906 144.837 89.6409 143.106C89.631 143.089 90.311 143.322 90.9648 143.379C90.9825 143.382 90.9952 143.069 90.9973 143.027C89.559 142.604 87.5163 141.859 87.153 140.956C87.153 140.956 89.5245 142.096 91.0721 142.213L91.1941 141.825C89.6564 141.441 86.4512 140.486 85.8064 139.022C85.8064 139.022 89.1556 140.846 91.3979 141.115C91.4156 141.115 91.5623 140.724 91.5623 140.724C90.1262 140.312 87.0684 138.804 85.5977 136.255C85.5977 136.255 89.1979 139.234 91.9206 140.028C91.9157 140.025 92.2014 139.64 92.2042 139.635C90.6143 138.796 86.8144 137.146 85.9884 134.427C85.9729 134.374 89.4991 137.744 90.2954 137.577C90.2954 137.577 86.3489 134.339 85.9835 132.443C85.9835 132.443 92.6147 139.024 93.2742 139.441C93.5952 139.647 94.041 140.526 94.041 140.526C94.041 140.526 95.5011 144.134 98.0666 145.003C98.1195 145.019 94.7153 144.544 93.3067 144.908C91.776 145.301 89.4871 146.114 89.4871 146.114Z" fill="#009450"/>
<path d="M106.652 142.526C106.652 142.526 108.194 142.048 110.344 142.551C112.378 143.027 115.048 144.428 114.468 146.12C114.468 146.12 113.904 147.135 112.211 145.654C111.407 145.216 109.558 144.323 107.627 145.219L107.52 145.343L114.727 148.088L115.854 144.054L109.538 141.452L106.391 142.175" fill="#E4292F"/>
<path d="M79.6133 170.287L90.991 200.086L120.045 177.053" fill="#009450"/>
<mask id="mask1_730_18573" style="mask-type:luminance" maskUnits="userSpaceOnUse" x="79" y="170" width="73" height="31">
<path d="M79.3115 170.197H151.712V200.107H79.3115V170.197Z" fill="white"/>
</mask>
<g mask="url(#mask1_730_18573)">
<path d="M79.3115 170.204L117.006 178.222L90.9772 200.107L151.712 170.197" fill="url(#paint1_linear_730_18573)"/>
</g>
<defs>
<linearGradient id="paint0_linear_730_18573" x1="110.052" y1="136.55" x2="108.751" y2="161.375" gradientUnits="userSpaceOnUse">
<stop stop-color="#FFE0A9"/>
<stop offset="1" stop-color="#C7822A"/>
</linearGradient>
<linearGradient id="paint1_linear_730_18573" x1="154.302" y1="170.197" x2="154.302" y2="200.107" gradientUnits="userSpaceOnUse">
<stop stop-color="#FFE0A9"/>
<stop offset="1" stop-color="#C7822A"/>
</linearGradient>
</defs>
</svg>
