<svg width="480" height="320" viewBox="0 0 480 320" fill="none" xmlns="http://www.w3.org/2000/svg">
<path d="M55.3848 192.718C55.3848 192.718 337.147 192.548 338.482 192.499C339.817 192.449 343.57 192.907 350.9 187.774C358.914 182.164 402.179 130.622 402.179 130.622C402.179 130.622 404.583 128.218 405.921 127.419C407.253 126.617 408.86 126.217 410.862 126.217H424.616L405.788 193.517L55.3848 193.784V192.718Z" fill="#04396F"/>
<path d="M399.775 156.797C399.775 156.797 404.383 158.829 402.578 163.339C400.71 168.014 380.811 170.551 379.479 173.623C378.463 175.963 386.69 176.963 386.69 176.963C386.69 176.963 374.671 177.096 376.942 172.022C379.018 167.381 398.559 165.998 400.577 163.475C403.247 160.136 399.775 156.797 399.775 156.797Z" fill="#A11337"/>
<path d="M391.906 182.758L392.37 178.195L388.254 176.224L392.353 174.481L391.848 169.893L395.484 172.713L399.096 170.095L398.632 174.659L402.748 176.632L398.651 178.372L399.154 182.961L395.518 180.141L391.906 182.758ZM404.533 170.756L404.181 168.838L402.268 168.519L403.737 167.325L402.984 165.513L404.805 166.234L405.965 164.741L406.318 166.656L408.23 166.975L406.765 168.169L407.514 169.981L405.696 169.26L404.533 170.756ZM387.315 189.375L387.44 187.299L385.536 186.483L387.363 185.62L387.049 183.546L388.748 184.759L390.338 183.508L390.213 185.584L392.112 186.403L390.285 187.266L390.599 189.334L388.9 188.124L387.315 189.375ZM391.185 157.993L391.312 155.92L389.411 155.101L391.237 154.237L390.924 152.167L392.623 153.38L394.207 152.128L394.083 154.204L395.984 155.02L394.16 155.886L394.474 157.954L392.775 156.744L391.185 157.993ZM378.999 169.473L378.119 167.658L376.135 167.858L377.259 166.268L376.01 164.663L378.014 164.888L378.755 163.081L379.632 164.899L381.62 164.699L380.495 166.29L381.742 167.894L379.74 167.669L378.999 169.473Z" fill="white"/>
<path d="M399.775 156.797C399.775 156.797 404.836 158.584 402.979 163.073C401.377 166.945 381.078 169.751 379.743 172.821C378.727 175.161 386.688 176.96 386.688 176.96C386.688 176.96 375.291 175.872 376.939 172.019C378.944 167.345 399.403 165.193 401.244 162.537C403.648 159.067 399.775 156.797 399.775 156.797Z" fill="#ACABB5"/>
<path d="M105.861 156.664C105.059 154.349 101.587 154.615 101.587 154.615H75.1479L71.7643 159.512C71.7643 159.512 73.5435 159.065 74.6122 159.065H91.9716C91.9716 159.065 93.8397 159.154 94.553 159.512C95.308 159.889 94.9083 160.758 94.9083 160.758L93.1263 163.961L75.9445 163.872C75.9445 163.872 73.0966 163.695 69.6242 165.296C66.1545 166.901 59.2096 178.473 60.1895 183.28C60.5448 185.035 63.9284 184.704 63.9284 184.704H79.7723C80.394 184.704 81.7319 184.527 83.9553 181.501C83.8665 183.103 83.4223 184.704 83.4223 184.704H93.5704C93.2151 181.945 101.881 168.738 105.142 160.936C105.795 159.395 106.422 158.282 105.861 156.664ZM85.8317 177.229C85.8317 177.229 84.7936 179.056 84.4077 179.633C83.8748 180.435 82.0928 180.257 82.0928 180.257H72.2112C72.2112 180.257 71.3229 180.08 71.3229 179.455C71.3229 178.834 72.1251 177.229 72.1251 177.229L75.1507 171.086C75.1507 171.086 76.1305 169.482 76.9327 168.949C77.7349 168.416 79.156 168.505 79.156 168.505H90.8197L85.8317 177.229ZM100.254 184.704C102.036 182.658 103.372 179.899 103.372 179.899L115.121 157.641C115.121 157.641 116.012 156.128 115.923 154.615H128.031L114.411 179.63C114.411 179.63 112.365 182.747 112.543 184.704H100.254ZM118.771 151.767C120.284 149.097 121.442 147.049 122.51 144.467C125.805 144.556 129.364 144.467 133.016 144.467C132.214 146.16 130.166 149.364 129.097 151.679C126.338 151.767 121.264 151.767 118.771 151.767ZM236.015 184.704C237.886 182.567 238.419 181.856 238.777 181.057C239.36 179.741 251.091 157.924 251.329 157.374C251.954 155.95 252.043 154.615 252.043 154.615H262.99L261.658 157.463C261.658 157.463 264.578 154.615 266.732 154.615H277.146L274.207 160.936C274.207 160.936 262.815 159.956 260.678 161.024C258.621 162.054 250.014 180.121 249.636 180.876C249.281 181.59 248.656 183.103 248.834 184.704H236.015ZM120.284 184.704C122.155 182.567 122.688 181.856 123.046 181.057C123.629 179.741 135.359 157.924 135.598 157.374C136.222 155.95 136.311 154.615 136.311 154.615H147.261L145.924 157.463C145.924 157.463 148.844 154.615 150.998 154.615H161.412L158.475 160.936C158.475 160.936 147.081 159.956 144.944 161.024C142.89 162.054 134.282 180.121 133.905 180.876C133.549 181.59 132.925 183.103 133.102 184.704H120.284ZM149.929 184.704C151.264 183.369 153.637 179.775 153.313 180.344C152.244 182.212 164.529 158.89 165.24 157.555C165.917 156.283 166.22 154.615 166.22 154.615H177.436L176.101 157.197C176.101 157.197 178.686 154.615 180.107 154.615H195.598C195.598 154.615 198.982 154.26 199.695 156.664C200.927 160.827 190.524 175.536 187.854 182.037C187.487 182.928 187.321 184.707 187.321 184.707H174.5C174.5 184.707 175.999 183.427 176.368 182.839C177.436 181.148 187.318 162.365 187.318 162.365C187.318 162.365 188.387 160.761 187.94 160.05C187.454 159.273 186.516 159.517 186.516 159.517H177.881C177.881 159.517 176.279 159.34 175.743 159.695C175.041 160.164 174.408 161.566 174.408 161.566C174.408 161.566 164.438 179.725 164.171 180.527C163.905 181.329 162.836 182.931 163.014 184.71C156.785 184.704 149.929 184.704 149.929 184.704ZM242.069 156.22C240.823 154.557 237.617 154.615 237.617 154.615H217.496C217.496 154.615 213.288 154.729 211.087 155.95C207.883 157.732 206.368 160.314 206.368 160.314L197.733 175.894C197.733 175.894 195.418 180.166 196.042 182.481C196.672 184.821 199.959 184.707 199.959 184.707H222.126C222.126 184.707 225.065 185.154 229.426 182.303C231.846 180.724 233.789 176.161 233.789 176.161L242.067 160.761C242.069 160.758 243.135 157.644 242.069 156.22ZM230.764 161.382L222.129 177.407C222.129 177.407 221.651 178.328 220.971 179.008C220.26 179.722 219.369 179.899 219.369 179.899H208.33C208.33 179.899 207.706 179.899 207.617 179.186C207.545 178.595 208.064 177.762 208.064 177.762L217.054 161.113C217.054 161.113 217.321 160.311 218.123 159.778C218.925 159.245 220.349 159.512 220.349 159.512H229.429C229.429 159.512 230.675 159.334 231.033 159.778C231.386 160.225 230.764 161.382 230.764 161.382ZM285.601 154.615L288.807 148.561L300.379 147.049L296.282 154.615H307.232L305.006 159.068H294.056L284.266 177.673C284.266 177.673 283.628 178.567 283.733 179.186C283.819 179.719 284.713 179.899 284.713 179.899C284.713 179.899 291.569 180.077 296.643 179.364C294.861 181.856 293.082 184.704 293.082 184.704H276.255C276.255 184.704 273.038 185.179 272.342 182.567C271.628 179.897 273.41 177.226 273.41 177.226L283.381 159.065H277.06L279.553 154.612H285.601V154.615ZM298.42 184.704C301.093 181.767 320.323 144.911 320.589 143.576H331.984L325.128 157.197C325.128 157.197 326.463 155.773 327.265 155.237C328.067 154.704 329.938 154.704 329.938 154.704H343.736C343.736 154.704 346.914 154.166 347.833 156.306C348.633 158.174 347.3 161.024 347.3 161.024C347.3 161.024 335.456 183.014 335.281 184.704H322.907C324.153 183.28 335.725 161.56 335.725 161.56C335.725 161.56 336.575 160.308 336.258 159.867C335.814 159.245 335.19 159.334 335.19 159.334H325.216C325.216 159.334 324.331 159.423 323.884 159.867C323.44 160.314 322.904 161.38 322.904 161.38C322.904 161.38 311.063 182.212 310.974 184.704H298.42Z" fill="#04396F"/>
</svg>
