<svg width="480" height="320" viewBox="0 0 480 320" fill="none" xmlns="http://www.w3.org/2000/svg">
<path d="M77.2973 134.056C91.6595 130.967 104.786 138.997 116.06 146.873C117.141 145.329 118.067 143.63 118.994 141.932C124.09 130.504 113.126 122.01 104.632 117.531H127.333C131.657 122.473 135.055 127.106 135.982 133.438C144.939 130.504 154.822 132.666 162.698 137.144C193.121 156.603 172.582 197.064 139.842 187.643C131.966 185.327 124.862 180.848 118.067 176.216L102.315 202.469H86.0999C87.3354 200.459 93.5126 189.96 93.5126 189.96C80.077 192.585 64.6338 184.864 58.4565 172.666C49.9628 156.294 60.0009 138.225 77.2973 134.056ZM125.789 163.554C133.974 168.494 147.101 176.833 156.675 170.967C171.81 159.691 151.734 142.86 138.452 149.653C132.738 152.587 129.032 158.301 125.789 163.554ZM107.566 158.919C99.2266 154.132 86.0999 145.638 76.6795 151.506C61.3907 162.78 81.4669 179.613 94.7481 172.818C100.462 169.884 104.168 164.172 107.566 158.919Z" fill="#EC008C"/>
<path d="M237.907 183.783C237.598 181.466 237.598 179.304 237.598 175.135V162.315C237.598 151.195 229.256 148.572 219.373 148.572C215.203 148.572 210.261 149.499 206.092 150.734L206.555 158.456C209.952 156.603 213.968 155.676 217.365 155.676C221.998 155.676 225.705 157.066 225.705 161.39V162.162C224.006 162.008 222.153 161.851 220.454 161.851C211.497 161.851 202.385 164.94 202.385 174.36C202.385 181.466 207.945 184.555 214.431 184.555C215.358 184.555 216.439 184.398 217.365 184.089L217.056 183.935H217.828C220.917 183.165 223.542 181.155 225.55 178.53L225.705 183.781H237.907V183.783ZM225.707 169.268C225.707 173.436 223.699 177.297 219.066 177.297C216.75 177.297 214.124 176.216 214.124 173.281C214.124 168.494 220.302 167.876 224.162 167.876H225.707V169.268ZM254.431 143.63V134.982H241.768V143.63H254.431ZM254.431 183.783V149.19H241.768V183.783H254.431ZM283.773 148.881C282.847 148.572 281.92 148.418 281.148 148.418C276.206 148.418 272.652 152.124 270.953 156.139L270.801 149.344H258.755C259.066 151.815 259.066 154.286 259.066 156.757V183.783H271.73V169.421C271.73 164.172 274.353 159.382 280.376 159.382C281.302 159.382 282.383 159.382 283.464 159.846L283.773 148.881ZM325.007 166.177C325.007 157.066 320.839 148.572 310.49 148.572C305.703 148.572 301.224 150.734 299.216 154.904L299.062 149.19H287.016C287.171 151.506 287.327 153.977 287.327 158.301V198.608H299.991V178.221C301.687 182.236 305.857 184.555 310.029 184.555C320.991 184.557 325.007 175.907 325.007 166.177ZM311.419 166.177C311.419 170.191 310.801 176.059 305.55 176.059C300.606 176.059 299.682 170.036 299.682 166.177C299.682 162.315 300.608 156.912 305.55 156.912C310.644 156.912 311.419 162.315 311.419 166.177ZM341.068 143.63V134.982H328.404V143.63H341.068ZM341.068 183.783V149.19H328.404V183.783H341.068ZM380.602 183.783V160.618C380.602 153.051 376.741 148.572 368.865 148.572C364.078 148.572 359.754 150.58 357.592 154.904L357.437 149.19H345.392C345.703 151.661 345.703 154.286 345.703 156.757V183.783H358.366V164.324C358.366 160.927 359.447 157.22 363.462 157.22C367.632 157.22 367.941 160.618 367.941 163.707V183.783H380.602ZM424.615 183.783L410.719 164.631L423.536 149.188H409.02L397.899 163.241L396.972 134.362H384.309L385.235 183.781H397.899V166.484L409.479 183.781H424.615V183.783Z" fill="#5B6F7B"/>
</svg>
