<svg width="480" height="320" viewBox="0 0 480 320" fill="none" xmlns="http://www.w3.org/2000/svg">
<path d="M421.546 167.585C423.175 167.585 424.47 168.907 424.47 170.562C424.47 172.244 423.172 173.557 421.531 173.557C419.903 173.557 418.578 172.247 418.578 170.562C418.578 168.907 419.903 167.585 421.531 167.585H421.546ZM421.531 168.045C420.221 168.045 419.148 169.171 419.148 170.562C419.148 171.979 420.218 173.094 421.546 173.094C422.869 173.106 423.929 171.979 423.929 170.577C423.929 169.171 422.872 168.045 421.546 168.045H421.531ZM420.976 172.297H420.444V168.972C420.723 168.934 420.988 168.895 421.383 168.895C421.885 168.895 422.218 168.999 422.417 169.145C422.616 169.29 422.723 169.516 422.723 169.831C422.723 170.268 422.429 170.532 422.072 170.639V170.666C422.366 170.72 422.562 170.984 422.631 171.471C422.708 171.988 422.791 172.187 422.842 172.291H422.286C422.206 172.184 422.123 171.881 422.06 171.445C421.98 171.02 421.766 170.862 421.344 170.862H420.976V172.297ZM420.976 170.455H421.359C421.796 170.455 422.164 170.298 422.164 169.888C422.164 169.596 421.953 169.305 421.359 169.305C421.184 169.305 421.065 169.317 420.976 169.329V170.455ZM173.152 156.124C170.169 152.288 167.043 151.153 162.211 151.153C149.283 151.153 136.497 159.253 127.832 168.342C119.732 176.867 111.492 191.222 111.492 203.295C111.492 210.251 114.761 217.927 122.715 217.927C139.48 217.927 158.518 190.792 166.475 177.723L157.808 205.851C157.098 208.267 156.245 211.11 156.245 213.805C156.245 216.221 157.522 217.927 160.081 217.927C165.765 217.927 173.437 211.25 176.988 207.414C178.694 205.568 184.518 198.176 184.518 195.623C184.518 195.056 184.09 194.482 183.525 194.482C182.53 194.482 181.538 196.333 181.11 197.043C179.404 199.742 172.727 208.691 169.176 208.691C168.041 208.691 167.756 207.699 167.756 206.561C167.756 205.28 168.466 203.01 168.891 201.872L183.525 153.851C183.668 153.283 184.236 151.72 184.236 151.007C184.236 149.019 180.257 149.729 179.404 149.729C174.715 149.729 174.858 150.439 173.58 154.843L173.152 156.124ZM171.022 161.238C171.022 167.778 159.374 183.966 155.395 188.943C150.421 195.195 137.777 210.4 129.113 210.4C124.566 210.4 122.575 205.708 122.575 201.729C122.575 192.782 130.105 178.436 135.504 171.614C141.471 163.799 151.559 153.854 161.929 153.854C166.758 153.851 171.022 155.981 171.022 161.238ZM198.436 179.141C198.65 178.285 199.292 176.478 199.292 175.518C199.292 174.666 199.078 173.599 198.014 173.599C194.389 173.599 188.422 182.974 187.038 182.974C186.61 182.974 186.399 182.656 186.399 182.121C186.399 180.736 190.767 176.047 191.62 175.194C194.282 172.633 200.145 167.409 204.192 167.409C206.75 167.409 207.493 169.008 207.493 171.355C207.493 173.382 206.215 177.215 205.683 179.135L197.797 204.707C197.372 206.091 196.84 207.577 196.84 208.971C196.84 210.035 197.265 210.887 198.225 210.887C200.888 210.887 206.322 203.319 207.6 201.186C207.921 200.55 208.346 199.801 209.092 199.801C209.624 199.801 209.731 200.119 209.731 200.55C209.731 202.362 206.322 206.73 205.256 208.109C202.697 211.306 196.731 217.49 192.256 217.49C189.486 217.49 188.954 215.68 188.954 213.229C188.954 210.457 190.128 206.409 190.874 203.845L198.436 179.141ZM225.289 181.378C225.824 179.461 226.567 177.114 226.567 175.197C226.567 174.235 226.353 172.957 225.182 172.957C222.731 172.957 218.574 178.285 217.296 180.094L216.339 181.482C216.018 181.913 215.379 183.081 214.74 183.081C214.312 183.081 213.995 182.76 213.995 182.338C213.995 180.629 218.363 175.518 219.429 174.348C221.667 171.789 226.567 167.415 230.085 167.415C233.282 167.415 234.028 171.361 234.028 173.703C234.028 176.264 233.285 178.609 232.536 180.95L227.954 195.977C231.897 188.943 242.339 167.415 251.506 167.415C254.7 167.415 256.834 169.442 256.834 172.749C256.834 175.622 255.128 179.031 251.931 179.031C246.603 179.031 249.586 173.813 246.713 173.813C243.834 173.813 237.335 183.405 236.161 185.321C232.218 191.499 225.292 204.606 223.268 211.425C222.095 215.368 222.416 216.218 218.155 216.218C217.195 216.218 215.171 216.432 215.171 214.833C215.171 214.302 215.81 212.275 215.917 211.847L225.289 181.378Z" fill="#084887"/>
<path d="M245.676 145.718H306.231L306.766 163.832H304.279C303.019 158.147 301.417 154.445 299.48 152.73C297.536 151.016 293.457 150.157 287.231 150.157H281.372V204.677C281.372 208.786 281.999 211.336 283.253 212.325C284.507 213.306 287.255 213.954 291.493 214.266V216.218H260.414V214.266C264.937 213.921 267.754 213.175 268.868 212.037C269.979 210.896 270.538 208.023 270.538 203.432V150.154H264.678C258.777 150.154 254.757 151.004 252.623 152.701C250.487 154.4 248.882 158.109 247.806 163.829H245.141L245.676 145.718Z" fill="#084887"/>
<path d="M294.954 214.447C298.178 214.171 300.318 213.612 301.369 212.759C302.421 211.912 302.944 210.106 302.944 207.342V183.901C302.944 180.487 302.623 178.047 301.982 176.579C301.343 175.111 300.178 174.377 298.478 174.377C298.131 174.377 297.673 174.419 297.102 174.505C296.532 174.597 295.929 174.704 295.308 174.847V173.07C297.29 172.386 299.328 171.679 301.417 170.957C303.506 170.238 304.947 169.724 305.749 169.418C307.488 168.77 309.282 168.033 311.128 167.21C311.371 167.21 311.517 167.305 311.567 167.486C311.618 167.671 311.645 168.06 311.645 168.654V177.352C313.844 174.226 315.962 171.783 318.007 170.024C320.048 168.265 322.169 167.388 324.371 167.388C326.121 167.388 327.545 167.926 328.647 169.008C329.744 170.086 330.293 171.441 330.293 173.07C330.293 174.52 329.874 175.738 329.036 176.731C328.199 177.72 327.147 178.219 325.881 178.219C324.582 178.219 323.278 177.613 321.964 176.395C320.642 175.182 319.608 174.576 318.856 174.576C317.656 174.576 316.185 175.554 314.447 177.5C312.7 179.452 311.826 181.461 311.826 183.526V206.804C311.826 209.705 312.521 211.719 313.921 212.848C315.314 213.983 317.641 214.512 320.886 214.441V216.215H294.954V214.447ZM331.681 205.934C331.681 209.17 332.766 211.847 334.941 213.948C337.113 216.055 339.683 217.106 342.649 217.106C345.474 217.106 348.458 216.179 351.599 214.322C353.459 213.226 355.699 211.535 358.323 209.268C358.427 211.363 359.012 213.16 360.079 214.667C361.146 216.176 362.866 216.928 365.243 216.928C367.27 216.928 369.264 216.271 371.222 214.958C372.514 214.09 373.718 212.985 374.841 211.636V209.009C373.54 209.916 372.63 210.483 372.107 210.718C371.578 210.95 370.913 211.069 370.108 211.069C368.672 211.069 367.725 210.418 367.27 209.116C366.985 208.35 366.845 206.953 366.845 204.932V183.951C366.845 179.354 366.206 175.848 364.925 173.438C362.539 169.046 357.987 166.851 351.278 166.851C345.504 166.851 341.112 168.176 338.123 170.82C335.131 173.474 333.633 176.009 333.633 178.43C333.633 179.678 334.052 180.81 334.89 181.833C335.725 182.855 336.929 183.369 338.5 183.369C339.511 183.369 340.381 183.143 341.112 182.691C342.402 181.934 343.047 180.591 343.047 178.659C343.047 178.389 342.958 177.756 342.779 176.772C342.601 175.789 342.512 175.096 342.512 174.68C342.512 173.061 343.302 171.786 344.877 170.853C346.452 169.962 348.116 169.513 349.866 169.513C353.533 169.513 355.946 170.672 357.111 172.993C357.794 174.38 358.142 176.838 358.142 180.371V184.786C348.666 188.37 342.346 191.21 339.175 193.293C334.18 196.675 331.681 200.891 331.681 205.934ZM358.145 204.047C358.145 206.035 357.102 207.672 355.022 208.962C352.942 210.248 350.767 210.896 348.499 210.896C346.847 210.896 345.353 210.403 344.012 209.428C341.947 207.928 340.916 205.592 340.916 202.419C340.916 198.476 343.391 194.954 348.345 191.846C350.924 190.242 354.19 188.78 358.145 187.452V204.047Z" fill="#084887"/>
<path d="M374.889 214.8C377.322 214.488 379.025 213.873 380 212.958C380.974 212.04 381.462 209.993 381.462 206.807V180.171C381.462 177.973 381.251 176.424 380.832 175.53C380.163 174.226 378.802 173.572 376.74 173.572C376.425 173.572 376.101 173.59 375.768 173.622C375.435 173.661 375.025 173.712 374.538 173.78V172.003C375.967 171.605 379.358 170.577 384.709 168.925L389.639 167.385C389.883 167.385 390.031 167.469 390.082 167.635C390.135 167.798 390.162 168.033 390.162 168.333V175.78C393.338 172.838 395.825 170.817 397.623 169.724C400.315 168.048 403.12 167.207 406.02 167.207C408.368 167.207 410.51 167.882 412.445 169.239C416.177 171.878 418.043 176.591 418.043 183.363V207.696C418.043 210.183 418.545 211.984 419.555 213.089C420.563 214.194 422.25 214.762 424.616 214.8V216.221H402.416V214.8C404.921 214.45 406.674 213.746 407.67 212.682C408.665 211.615 409.164 209.3 409.164 205.744V183.452C409.164 180.466 408.612 177.984 407.515 176.014C406.413 174.05 404.383 173.07 401.424 173.07C399.391 173.07 397.332 173.762 395.234 175.153C394.06 175.958 392.551 177.277 390.697 179.117V208.406C390.697 210.905 391.249 212.575 392.361 213.422C393.472 214.275 395.225 214.732 397.623 214.8V216.221H374.892V214.8H374.889Z" fill="#084887"/>
<path d="M205.068 162.836C206.952 164.331 210.155 163.419 212.223 160.813C214.289 158.201 214.437 154.876 212.55 153.384C210.666 151.893 207.46 152.799 205.395 155.408C203.327 158.02 203.181 161.342 205.068 162.836ZM134.072 126.035C134.072 126.035 91.6664 138.367 70.8694 154.591C50.0693 170.815 53.121 180.736 63.1704 186.204C72.9137 191.499 103.995 191.151 103.995 191.151C103.995 191.151 60.8408 191.442 59.7295 176.502C57.9288 152.297 138.042 129.063 138.042 129.063L134.072 126.035Z" fill="#FE0B0A"/>
<path fill-rule="evenodd" clip-rule="evenodd" d="M146.962 125.452L147.957 128.974L145.797 129.315L135.052 120.244L136.945 119.269L143.604 121.545L144.617 117.465L146.317 116.443L147.586 120.472C147.586 120.472 150.159 119.254 151.808 118.428C153.457 117.602 155.059 116.966 155.059 116.966L133.573 103.63L135.611 102.073L158.357 110.358L164.868 112.39C164.868 112.39 174.433 107.96 176.955 106.937C179.484 105.915 181.959 106.738 182.931 106.979C183.903 107.223 186.238 108.628 183.08 110.527C178.468 113.302 170.65 117.225 170.65 117.225L171.452 135.116L169.408 135.606L160.939 121.527L146.962 125.452Z" fill="#084887"/>
</svg>
