<svg width="480" height="320" viewBox="0 0 480 320" fill="none" xmlns="http://www.w3.org/2000/svg">
<path d="M88.4481 168.793H74.0512L71.172 172.357L67.8814 176.299C67.2418 177.144 66.7728 177.91 66.4764 178.595C66.2483 179.122 66.1332 179.646 66.1332 180.172C66.1332 180.721 66.4248 181.229 67.0068 181.697C67.5899 182.165 68.5542 182.434 69.9036 182.502V183.771H56.0215L56.3647 182.502C57.599 182.296 58.6959 181.863 59.6553 181.2C60.9355 180.286 62.7744 178.4 65.1738 175.544L98.1143 136.229H99.6567L98.1143 174.277C98.046 176.265 98.0119 177.465 98.0119 177.876C98.0119 179.43 98.3259 180.561 98.9547 181.269C99.5836 181.978 100.629 182.388 102.091 182.503L101.748 183.772H81.627L82.0043 182.503C83.9924 182.32 85.1351 182.16 85.4324 182.023C86.072 181.704 86.6541 181.035 87.1806 180.018C87.7061 179.002 88.0259 177.236 88.14 174.722L88.4481 168.793ZM88.4481 165.982L89.3393 150.831L76.4166 165.982H88.4481ZM149.873 183.772H129.752L130.129 182.503C131.454 182.389 132.437 182.006 133.077 181.355C133.716 180.703 134.036 179.898 134.036 178.938C134.036 177.909 133.681 176.276 132.974 174.036L128.038 158.201L123.137 175.168C122.588 177.066 122.314 178.436 122.314 179.282C122.314 180.241 122.691 181.012 123.445 181.595C124.199 182.178 125.558 182.482 127.524 182.504L127.147 183.773H104.558L104.935 182.504C106.741 182.458 108.089 182.218 108.98 181.785C109.871 181.351 110.579 180.676 111.105 179.762C111.631 178.849 112.259 177.101 112.991 174.518L120.806 147.473C121.698 144.366 122.143 142.389 122.143 141.543C122.143 140.767 121.783 140.092 121.064 139.521C120.344 138.951 118.978 138.63 116.968 138.562L117.345 137.293H139.215L138.837 138.562C137.375 138.562 136.254 138.779 135.478 139.213C134.45 139.808 133.615 140.676 132.976 141.818C132.543 142.572 131.948 144.32 131.194 147.063L128.041 158.169L140.141 147.063C142.494 144.891 143.809 143.589 144.083 143.155C144.448 142.585 144.632 141.978 144.632 141.339C144.632 140.653 144.386 140.058 143.895 139.556C143.403 139.054 142.552 138.723 141.341 138.562L141.718 137.293H159.234L158.857 138.562C157.509 138.677 156.412 138.87 155.566 139.145C154.447 139.51 153.167 140.133 151.727 141.013C150.287 141.892 148.824 142.927 147.339 144.115L144.151 147.063L136.781 153.678L142.265 170.817C144.048 176.461 145.43 179.797 146.413 180.826C147.395 181.855 148.675 182.414 150.253 182.506L149.873 183.772ZM188.504 183.772H151.381L151.758 182.503C153.974 182.503 155.592 182.075 156.609 181.218C157.625 180.361 158.567 178.436 159.436 175.442L168.074 145.587C168.553 143.941 168.793 142.651 168.793 141.713C168.793 140.799 168.45 140.067 167.765 139.519C167.079 138.971 165.731 138.65 163.72 138.56L164.098 137.291H186.412L186.035 138.56C183.887 138.606 182.281 139.086 181.22 140C180.157 140.914 179.214 142.777 178.392 145.587L170.508 172.906C169.502 176.38 169 178.493 169 179.248C169 179.705 169.257 180.134 169.771 180.533C170.285 180.932 171.113 181.132 172.256 181.132C176.049 181.132 179.711 180.264 183.243 178.527C186.773 176.791 189.761 174.197 192.207 170.747H193.647L188.504 183.772ZM224.975 168.793H210.579L207.7 172.357L204.409 176.299C203.769 177.144 203.3 177.91 203.004 178.595C202.776 179.122 202.661 179.646 202.661 180.172C202.661 180.721 202.952 181.229 203.534 181.697C204.118 182.165 205.083 182.434 206.431 182.502V183.771H192.549L192.892 182.502C194.127 182.296 195.224 181.863 196.183 181.2C197.463 180.286 199.302 178.4 201.701 175.544L234.642 136.229H236.184L234.642 174.277C234.574 176.265 234.54 177.465 234.54 177.876C234.54 179.43 234.853 180.561 235.482 181.269C236.111 181.978 237.156 182.388 238.619 182.503L238.276 183.772H218.155L218.532 182.503C220.52 182.32 221.663 182.16 221.96 182.023C222.6 181.704 223.183 181.035 223.708 180.018C224.234 179.002 224.554 177.236 224.668 174.722L224.975 168.793ZM224.975 165.982L225.866 150.831L212.944 165.982H224.975ZM286.401 183.772H266.28L266.657 182.503C267.982 182.389 268.965 182.006 269.605 181.355C270.244 180.703 270.564 179.898 270.564 178.938C270.564 177.909 270.21 176.276 269.501 174.036L264.565 158.2L259.663 175.167C259.114 177.065 258.84 178.435 258.84 179.281C258.84 180.24 259.218 181.011 259.971 181.594C260.725 182.177 262.085 182.481 264.051 182.503L263.674 183.772H241.085L241.462 182.503C243.268 182.457 244.615 182.217 245.506 181.784C246.398 181.35 247.106 180.675 247.632 179.761C248.157 178.848 248.786 177.1 249.518 174.517L257.333 147.472C258.224 144.365 258.67 142.388 258.67 141.542C258.67 140.766 258.31 140.091 257.591 139.52C256.871 138.95 255.505 138.629 253.495 138.561L253.872 137.292H275.741L275.364 138.561C273.901 138.561 272.782 138.778 272.005 139.212C270.976 139.807 270.143 140.675 269.503 141.817C269.069 142.571 268.475 144.319 267.721 147.062L264.568 158.168L276.667 147.062C279.021 144.89 280.335 143.588 280.609 143.154C280.975 142.584 281.158 141.977 281.158 141.338C281.158 140.652 280.913 140.057 280.421 139.555C279.93 139.053 279.079 138.722 277.868 138.561L278.245 137.292H295.761L295.384 138.561C294.035 138.676 292.938 138.869 292.093 139.144C290.974 139.509 289.693 140.132 288.253 141.012C286.813 141.891 285.351 142.926 283.866 144.114L280.678 147.062L273.308 153.677L278.792 170.816C280.574 176.46 281.957 179.796 282.94 180.825C283.922 181.854 285.202 182.413 286.779 182.505L286.401 183.772ZM333.567 168.793H319.17L316.291 172.357L313 176.299C312.36 177.144 311.891 177.91 311.595 178.595C311.367 179.122 311.252 179.646 311.252 180.172C311.252 180.721 311.543 181.229 312.125 181.697C312.708 182.165 313.674 182.434 315.022 182.502V183.771H301.14L301.483 182.502C302.718 182.296 303.814 181.863 304.774 181.2C306.054 180.286 307.893 178.4 310.292 175.544L343.233 136.228H344.775L343.233 174.275C343.165 176.263 343.13 177.463 343.13 177.874C343.13 179.428 343.444 180.559 344.073 181.267C344.702 181.976 345.747 182.386 347.21 182.501L346.867 183.77H326.746L327.123 182.501C329.111 182.318 330.254 182.158 330.551 182.021C331.191 181.702 331.774 181.033 332.299 180.016C332.825 179 333.144 177.234 333.259 174.72L333.567 168.793ZM333.567 165.982L334.458 150.831L321.535 165.982H333.567ZM361.64 138.56L362.017 137.291H384.708L384.263 138.56C382.207 138.56 380.635 139.017 379.55 139.931C378.465 140.845 377.51 142.753 376.687 145.655L368.186 175.408C367.569 177.511 367.261 178.916 367.261 179.624C367.261 180.447 367.581 181.086 368.22 181.544C369.043 182.138 370.597 182.458 372.882 182.503L372.538 183.772H349.47L349.847 182.503C352.155 182.503 353.847 182.063 354.92 181.183C355.995 180.304 356.966 178.378 357.833 175.407L366.403 145.654C366.928 143.826 367.192 142.444 367.192 141.506C367.192 140.661 366.872 139.998 366.232 139.518C365.593 139.038 364.062 138.72 361.64 138.56ZM399.413 161.08L395.3 175.168C394.706 177.156 394.409 178.619 394.409 179.556C394.409 180.424 394.763 181.121 395.471 181.647C396.18 182.174 397.654 182.458 399.893 182.504L399.413 183.773H377.03L377.442 182.504C379.681 182.504 381.321 182.07 382.361 181.201C383.4 180.333 384.354 178.391 385.223 175.374L393.861 145.552C394.34 143.885 394.58 142.57 394.58 141.611C394.58 140.697 394.283 140 393.689 139.519C393.095 139.038 391.713 138.72 389.542 138.56L389.885 137.291H409.149C414.656 137.291 418.529 138.251 420.769 140.17C423.008 142.09 424.128 144.558 424.128 147.575C424.128 150.751 422.825 153.62 420.22 156.178C418.574 157.778 415.661 159.161 411.479 160.326L415.661 174.414C416.78 178.184 417.757 180.459 418.592 181.235C419.425 182.012 420.814 182.434 422.756 182.503V183.772H408.291L401.71 161.08L400.579 161.149C400.328 161.149 399.939 161.126 399.413 161.08ZM399.893 159.023C400.693 159.069 401.367 159.091 401.915 159.091C405.252 159.091 407.993 157.949 410.142 155.663C412.29 153.379 413.365 150.385 413.365 146.682C413.365 144.489 412.793 142.821 411.651 141.678C410.508 140.535 409 139.964 407.126 139.964C406.668 139.964 406.131 139.975 405.515 139.998L399.893 159.023Z" fill="white" stroke="black" stroke-width="2.43751"/>
</svg>
