<svg width="480" height="320" viewBox="0 0 480 320" fill="none" xmlns="http://www.w3.org/2000/svg">
<path d="M236.459 108.442L194.316 179.207C189.922 186.485 187.514 193.846 186.849 200.934H170.351C171.47 191.977 175.019 183.496 182.191 171.275L211.648 121.866C217.531 112.085 223.404 108.526 234.04 108.526H236.459V108.441V108.442ZM248.76 146.483C227.414 146.483 214.265 158.978 202.71 186.207C199.816 193.009 198.136 201.49 208.022 201.406C213.61 201.311 223.031 198.227 229.653 193.653C229.093 195.892 228.808 198.976 228.999 200.835H244.007C244.567 194.963 246.806 187.696 251.739 178.835L270.486 147.613C263.399 146.863 256.133 146.483 248.76 146.483ZM233.192 182.658C230.118 185.552 224.151 189.83 219.123 189.925C215.659 189.745 215.479 186.481 217.803 182.003C226.675 164.945 236.086 155.904 247.546 155.989H249.605L233.192 182.658ZM402.974 146.483C381.628 146.483 368.489 158.978 356.923 186.207C354.029 193.009 352.35 201.49 362.236 201.406C367.834 201.311 377.245 198.227 383.867 193.653C383.308 195.892 383.022 198.976 383.212 200.835H398.231C398.781 194.963 401.02 187.696 405.963 178.835L424.615 147.613C417.528 146.863 410.251 146.483 402.974 146.483ZM387.405 182.658C384.332 185.552 378.364 189.83 373.337 189.925C369.872 189.745 369.693 186.481 372.027 182.003C380.889 164.945 390.299 155.904 401.77 155.989H403.829L387.405 182.658Z" fill="#00385F"/>
<path d="M354.214 215.942H349.271C342.934 215.942 337.336 211.654 335.667 205.591L328.21 177.443L314.311 200.838H298.362L342.934 125.32C348.711 115.529 354.679 111.98 365.315 111.98H366.994L337.336 162.054L359.527 146.761H377.345L339.955 172.595L354.214 215.942ZM207.088 104.058C192.079 104.058 184.242 108.072 169.508 118.697L119.539 154.693H87.5568C78.315 154.693 70.8688 155.062 65.0808 160.555L56.7896 168.212C56.7896 168.212 80.8393 167.272 103.22 166.427L55.3848 200.944H76.0863L125.042 165.603C134.547 165.223 141.064 165.044 141.17 165.044C152.545 164.748 158.882 154.693 158.882 154.693H140.145L179.669 126.154L150.306 173.705C144.053 184.616 140.98 192.452 139.955 200.839H156.929C157.573 193.752 160.002 186.39 164.375 179.113L204.384 112.36C207.172 107.787 209.602 104.058 209.602 104.058H207.088V104.058ZM286.709 161.771C286.519 163.176 287.089 164.106 289.972 165.965L294.546 168.943C299.489 172.217 301.527 177.16 300.894 181.163C299.204 192.349 290.997 201.39 273.475 201.39C265.817 201.39 262.374 201.126 253.238 199.626L260.04 188.155C266.387 189.275 269.926 189.845 274.679 189.845C281.312 189.845 283.921 186.856 284.29 184.427C284.469 183.033 283.814 181.353 280.657 179.199L277.013 176.601C271.235 172.407 269.651 169.144 270.401 164.01C271.89 154.135 283.35 146.477 299.204 146.477C304.242 146.477 309.65 146.762 315.617 147.417L309.185 158.244C305.256 157.948 298.929 157.578 294.451 157.769C289.972 157.863 286.994 159.438 286.709 161.772" fill="#00385F"/>
</svg>
