<svg width="480" height="320" viewBox="0 0 480 320" fill="none" xmlns="http://www.w3.org/2000/svg">
<path fill-rule="evenodd" clip-rule="evenodd" d="M424.615 121.505C389.893 129.175 354.379 136.845 319.49 144.515L390.935 141.388C400.397 133.719 411.527 127.049 424.615 121.505ZM314.238 145.64L310.236 146.557L376.68 154.852C379.847 151.309 383.266 147.933 386.975 144.681L314.238 145.64ZM308.527 147.266C316.906 148.891 323.908 151.434 329.619 154.769L368.635 164.814C370.344 162.438 372.136 160.104 374.054 157.853L308.527 147.266ZM333.454 157.27C346.209 166.565 351.336 180.779 350.961 198.494C354.963 187.615 360.09 177.236 366.592 167.69L333.454 157.27Z" fill="url(#paint0_linear_730_18552)"/>
<path fill-rule="evenodd" clip-rule="evenodd" d="M64.2633 187.532C62.5126 187.532 61.0537 187.365 59.9282 187.073C58.7611 186.782 57.8858 186.323 57.2188 185.781C56.5102 185.239 56.0517 184.572 55.8016 183.78C55.5098 182.988 55.3848 182.071 55.3848 181.113V178.82C55.3848 177.82 55.5098 176.903 55.7599 176.111C56.01 175.319 56.4685 174.652 57.0938 174.11C57.719 173.526 58.5527 173.11 59.6781 172.818C60.7619 172.568 62.1375 172.401 63.8048 172.401H81.7703V171.859C81.7703 170.317 81.4785 169.275 80.8533 168.774C80.228 168.233 79.1443 167.983 77.6437 167.983H71.016V163.231H77.6437C79.6028 163.231 81.2284 163.397 82.604 163.772C83.9795 164.106 85.0633 164.648 85.9386 165.398C86.814 166.148 87.4392 167.065 87.8561 168.191C88.2312 169.316 88.4396 170.65 88.4396 172.193V178.112C88.4396 179.862 88.2729 181.363 87.9394 182.53C87.606 183.739 86.9807 184.698 86.1471 185.448C85.3134 186.198 84.1463 186.74 82.729 187.032C81.3118 187.365 79.5194 187.532 77.3936 187.532H64.2633ZM81.7703 176.528H64.5551C63.8048 176.528 63.1795 176.694 62.721 177.069C62.3042 177.403 62.0541 178.028 62.0541 178.987V180.654C62.0541 181.53 62.3042 182.113 62.7627 182.447C63.2629 182.78 63.9298 182.947 64.8052 182.947H77.3102C78.0605 182.947 78.7691 182.863 79.311 182.78C79.8946 182.655 80.3531 182.447 80.6865 182.113C81.0617 181.78 81.3118 181.363 81.5202 180.779C81.6869 180.237 81.7703 179.487 81.7703 178.612V176.528ZM93.525 187.532V155.394H100.319V187.532H93.525ZM117.118 187.532C114.909 187.532 113.033 187.324 111.532 186.948C110.032 186.573 108.823 185.99 107.947 185.156C107.03 184.322 106.405 183.28 106.03 181.946C105.655 180.613 105.488 178.987 105.488 177.028V155.394H112.157V163.272H125.663C127.914 163.272 129.789 163.439 131.29 163.814C132.791 164.189 133.958 164.815 134.875 165.607C135.75 166.44 136.417 167.524 136.792 168.858C137.167 170.192 137.334 171.859 137.334 173.776V177.069C137.334 178.987 137.167 180.613 136.792 181.946C136.417 183.28 135.75 184.364 134.875 185.156C133.958 185.99 132.791 186.573 131.29 186.948C129.789 187.324 127.914 187.532 125.663 187.532H117.118ZM130.665 173.985C130.665 172.901 130.581 172.067 130.456 171.401C130.29 170.775 130.04 170.233 129.623 169.9C129.248 169.525 128.706 169.316 128.039 169.15C127.33 169.025 126.455 168.941 125.413 168.941H112.157V176.861C112.157 177.861 112.241 178.653 112.366 179.279C112.533 179.946 112.783 180.446 113.2 180.821C113.575 181.196 114.117 181.446 114.783 181.613C115.45 181.738 116.326 181.821 117.368 181.821H125.413C126.455 181.821 127.33 181.738 128.039 181.613C128.706 181.446 129.248 181.196 129.623 180.821C130.04 180.446 130.29 179.946 130.456 179.279C130.581 178.653 130.665 177.82 130.665 176.819V173.985ZM150.256 187.532C148.464 187.532 147.046 187.365 145.879 187.073C144.754 186.782 143.878 186.323 143.17 185.781C142.503 185.239 142.044 184.572 141.794 183.78C141.502 182.988 141.377 182.071 141.377 181.113V178.82C141.377 177.82 141.502 176.903 141.753 176.111C142.003 175.319 142.461 174.652 143.086 174.11C143.712 173.526 144.545 173.11 145.629 172.818C146.755 172.568 148.13 172.401 149.797 172.401H167.763V171.859C167.763 170.317 167.43 169.275 166.804 168.774C166.179 168.233 165.137 167.983 163.636 167.983H157.009V163.231H163.636C165.595 163.231 167.221 163.397 168.597 163.772C169.931 164.106 171.056 164.648 171.931 165.398C172.807 166.148 173.432 167.065 173.849 168.191C174.224 169.316 174.432 170.65 174.432 172.193V178.112C174.432 179.862 174.266 181.363 173.932 182.53C173.599 183.739 172.973 184.698 172.14 185.448C171.264 186.198 170.139 186.74 168.722 187.032C167.304 187.365 165.512 187.532 163.386 187.532H150.256ZM167.763 176.528H150.548C149.797 176.528 149.172 176.694 148.714 177.069C148.255 177.403 148.047 178.028 148.047 178.987V180.654C148.047 181.53 148.297 182.113 148.755 182.447C149.256 182.78 149.923 182.947 150.756 182.947H163.303C164.053 182.947 164.72 182.863 165.304 182.78C165.887 182.655 166.346 182.447 166.679 182.113C167.054 181.78 167.304 181.363 167.513 180.779C167.68 180.237 167.763 179.487 167.763 178.612V176.528ZM200.443 170.817L193.231 185.781C192.856 186.532 192.356 187.115 191.773 187.532C191.147 187.949 190.397 188.199 189.48 188.199C188.48 188.199 187.729 187.949 187.187 187.532C186.646 187.115 186.229 186.532 185.895 185.781L176.183 163.231H182.936L189.938 179.57L196.9 165.065C197.316 164.273 197.775 163.647 198.317 163.189C198.817 162.772 199.567 162.564 200.568 162.564C201.526 162.564 202.277 162.772 202.819 163.147C203.361 163.564 203.819 164.189 204.194 165.065L210.78 179.57L218.116 163.231H224.744L214.573 185.781C214.24 186.448 213.781 187.032 213.156 187.49C212.573 187.949 211.822 188.199 210.905 188.199C210.03 188.199 209.321 187.949 208.696 187.49C208.071 187.032 207.612 186.448 207.279 185.781L200.443 170.817ZM227.787 187.532V163.856H234.623V187.532H227.787ZM230.08 161.855C229.246 161.855 228.662 161.688 228.329 161.355C227.995 161.021 227.787 160.48 227.787 159.771V157.187C227.787 156.478 227.995 155.936 228.329 155.644C228.662 155.311 229.246 155.144 230.08 155.144H232.289C233.164 155.144 233.748 155.311 234.081 155.644C234.456 155.936 234.623 156.478 234.623 157.187V159.771C234.623 160.48 234.456 161.021 234.081 161.355C233.748 161.688 233.164 161.855 232.289 161.855H230.08ZM264.552 187.532V173.985C264.552 172.985 264.468 172.151 264.302 171.484C264.135 170.859 263.843 170.358 263.468 169.983C263.051 169.608 262.509 169.316 261.801 169.191C261.092 169.025 260.217 168.941 259.133 168.941H251.88C250.838 168.941 249.962 169.025 249.254 169.191C248.545 169.316 248.003 169.608 247.545 169.983C247.128 170.358 246.836 170.859 246.711 171.484C246.544 172.151 246.461 172.985 246.461 173.985V187.532H239.75V173.776C239.75 171.859 239.958 170.192 240.334 168.858C240.709 167.524 241.334 166.44 242.251 165.607C243.126 164.815 244.335 164.189 245.836 163.814C247.295 163.439 249.17 163.272 251.421 163.272H259.508C261.801 163.272 263.676 163.439 265.177 163.814C266.677 164.189 267.845 164.815 268.762 165.607C269.637 166.44 270.304 167.524 270.679 168.858C271.054 170.192 271.221 171.859 271.221 173.776V187.532H264.552ZM289.395 194.785V189.324H298.69C299.691 189.324 300.399 189.116 300.816 188.741C301.233 188.324 301.441 187.657 301.441 186.698V184.739H286.185C284.351 184.739 282.767 184.572 281.475 184.281C280.183 183.989 279.099 183.53 278.307 182.863C277.515 182.238 276.932 181.405 276.556 180.362C276.181 179.32 276.015 178.07 276.015 176.611V172.901C276.015 171.067 276.181 169.525 276.473 168.274C276.807 167.024 277.348 166.023 278.14 165.273C278.932 164.523 280.016 164.023 281.392 163.689C282.726 163.397 284.435 163.231 286.519 163.231H297.356C299.357 163.231 301.025 163.397 302.4 163.772C303.734 164.106 304.818 164.69 305.651 165.482C306.485 166.232 307.069 167.232 307.402 168.483C307.736 169.692 307.902 171.192 307.902 172.901V187.073C307.902 189.783 307.235 191.742 305.901 192.951C304.568 194.16 302.358 194.785 299.316 194.785H289.395ZM301.441 173.026C301.441 171.442 301.108 170.317 300.483 169.775C299.857 169.191 298.732 168.9 297.065 168.9H286.602C285.06 168.9 283.976 169.191 283.392 169.775C282.851 170.358 282.559 171.484 282.559 173.068V176.277C282.559 176.903 282.642 177.445 282.767 177.861C282.892 178.278 283.101 178.653 283.434 178.904C283.768 179.154 284.143 179.32 284.685 179.404C285.185 179.487 285.81 179.529 286.602 179.529H301.441V173.026ZM341.541 181.071C341.541 182.238 341.416 183.28 341.207 184.072C340.999 184.906 340.582 185.573 339.998 186.073C339.373 186.573 338.54 186.948 337.456 187.157C336.414 187.407 335.038 187.532 333.329 187.532H312.404V182.28H332.412C333.329 182.28 333.954 182.113 334.329 181.821C334.663 181.53 334.871 180.946 334.871 180.112V179.32C334.871 178.403 334.663 177.861 334.329 177.611C333.996 177.403 333.412 177.278 332.62 177.278H318.99C317.614 177.278 316.489 177.153 315.655 176.903C314.78 176.611 314.155 176.236 313.655 175.694C313.196 175.152 312.863 174.485 312.696 173.693C312.529 172.901 312.446 171.984 312.446 170.9V169.066C312.446 168.024 312.571 167.107 312.779 166.357C312.988 165.607 313.363 165.023 313.863 164.564C314.405 164.064 315.072 163.731 315.947 163.522C316.823 163.314 317.906 163.231 319.198 163.231H328.452V168.274H320.824C320.157 168.274 319.699 168.399 319.407 168.649C319.115 168.9 318.99 169.316 318.99 169.942V171.067C318.99 171.734 319.115 172.234 319.407 172.443C319.657 172.693 320.074 172.818 320.699 172.818H333.913C335.455 172.818 336.705 172.943 337.706 173.193C338.706 173.443 339.457 173.86 340.04 174.402C340.624 174.944 340.999 175.694 341.207 176.569C341.416 177.445 341.541 178.528 341.541 179.821V181.071Z" fill="url(#paint1_linear_730_18552)"/>
<defs>
<linearGradient id="paint0_linear_730_18552" x1="366.581" y1="198.484" x2="366.581" y2="121.506" gradientUnits="userSpaceOnUse">
<stop stop-color="#420507"/>
<stop offset="0.631" stop-color="#F22435"/>
<stop offset="0.702" stop-color="#5D0E12"/>
<stop offset="1" stop-color="#78181E"/>
</linearGradient>
<linearGradient id="paint1_linear_730_18552" x1="55.3848" y1="174.966" x2="341.527" y2="174.966" gradientUnits="userSpaceOnUse">
<stop stop-color="#7D1316"/>
<stop offset="0.741" stop-color="#F22435"/>
<stop offset="1" stop-color="#A81E27"/>
</linearGradient>
</defs>
</svg>
