<svg width="480" height="320" viewBox="0 0 480 320" fill="none" xmlns="http://www.w3.org/2000/svg">
<path d="M143.324 133.918C122.782 134.633 61.7699 167.93 57.0474 170.525C57.0474 170.525 56.031 171.101 55.3848 171.792H61.3231C114.305 143.387 129.023 142.012 132.53 142.39C136.803 142.726 132.137 148.223 125.773 154.267C117.158 162.807 104.923 171.765 104.923 171.765H121.498C122.792 170.769 124.085 169.724 125.351 168.677C131.705 163.494 144.215 152.834 149.501 145.003C150.371 143.822 150.932 142.773 151.268 141.863L151.295 141.81C152.192 139.343 151.438 137.784 150.661 136.584C149.344 135.021 147.402 134.219 145.171 133.945C144.596 133.898 143.987 133.895 143.324 133.918ZM154.726 167.674C153.202 169.155 151.735 170.661 150.266 172.161H156.415C157.809 170.656 159.243 169.155 160.691 167.674H154.726ZM168.608 167.674C168.36 169.421 168.222 170.32 167.975 172.161H174.045C174.196 170.32 174.27 169.421 174.415 167.674H168.608ZM177.793 167.674C176.949 169.162 176.123 170.669 175.312 172.161H181.118C181.924 170.669 182.728 169.158 183.573 167.674C181.259 167.67 180.102 167.674 177.793 167.674ZM186.582 167.674C186.407 168.046 186.272 168.443 186.16 168.809C185.426 171.284 188.906 172.497 192.203 172.451C197.346 172.372 202.191 170.516 205.003 167.674H198.828C197.527 168.734 195.867 169.548 194.156 169.548C192.832 169.548 192.126 169.024 192.309 168.123C192.338 167.967 192.39 167.816 192.441 167.674H186.582ZM206.877 167.674L206.824 167.965C206.227 170.085 207.844 172.486 211.602 172.451C214.624 172.418 217.239 171.155 218.912 169.575H219.044C218.691 170.495 218.339 171.377 218.094 172.161H223.426C223.683 170.91 224.328 169.172 225.009 167.701C222.442 167.701 221.184 167.677 218.622 167.674C217.332 168.835 215.938 169.366 214.848 169.364C213.428 169.363 212.826 168.681 212.921 167.674H206.877ZM228.493 167.701C227.68 169.19 226.888 170.672 226.091 172.161H231.871C232.676 170.672 233.476 169.19 234.272 167.701H228.493ZM240.502 167.701C239.705 169.19 238.895 170.672 238.1 172.161H243.88C244.679 170.675 245.48 169.193 246.281 167.701H240.502ZM249.474 167.701C248.675 169.19 247.904 170.674 247.1 172.161H252.88C253.683 170.675 254.463 169.19 255.255 167.701H249.474ZM257.709 167.701L257.63 167.965C257.081 170.092 258.737 172.486 262.487 172.451C265.501 172.417 268.12 171.156 269.771 169.575H269.903C269.555 170.491 269.217 171.383 268.979 172.161H274.337C274.587 170.92 275.177 169.178 275.814 167.701H269.428C268.163 168.863 266.77 169.364 265.68 169.364C264.261 169.363 263.682 168.709 263.753 167.701H257.709ZM279.298 167.701C278.531 169.195 277.77 170.677 276.976 172.161C279.298 172.161 280.444 172.161 282.756 172.161C283.541 170.675 284.309 169.192 285.078 167.701C282.766 167.698 281.612 167.701 279.298 167.701ZM291.307 167.701C290.545 169.192 289.764 170.674 288.985 172.161H294.765C295.548 170.677 296.324 169.192 297.087 167.701H291.307ZM306.43 167.701C304.995 169.189 303.539 170.677 302.101 172.161H308.251C309.631 170.677 311.008 169.189 312.368 167.701H306.43ZM320.259 167.701C320.128 169.463 320.026 170.347 319.811 172.161H325.881C325.989 170.352 326.04 169.465 326.066 167.701C323.746 167.699 322.586 167.702 320.259 167.701ZM329.523 167.701C328.796 169.196 328.023 170.682 327.253 172.161H333.033C333.809 170.681 334.546 169.192 335.276 167.701C332.962 167.701 331.836 167.705 329.523 167.701ZM338.523 167.701C337.797 169.192 337.051 170.686 336.28 172.161H342.06C342.823 170.686 343.556 169.192 344.276 167.701H338.523ZM351.772 167.701C351.054 169.19 350.306 170.686 349.528 172.161H355.309C356.088 170.686 356.831 169.19 357.552 167.701H351.772ZM360.798 167.701C359.961 169.463 359.521 170.358 358.581 172.161H364.361C365.301 170.358 365.742 169.467 366.578 167.701H360.798ZM369.798 167.701C368.966 169.469 368.539 170.358 367.608 172.161H373.387C374.323 170.356 374.77 169.469 375.604 167.701H369.798ZM381.807 167.701C380.98 169.467 380.556 170.36 379.616 172.161H385.396C386.336 170.36 386.784 169.467 387.613 167.701H381.807ZM390.173 167.701C389.934 170.66 393.289 172.497 397.668 172.451C400.225 172.424 402.85 172.128 405.217 171.422C405.296 170.325 405.339 169.763 405.375 168.677C403.73 169.172 401.849 169.498 399.727 169.496C398.036 169.496 396.751 169.165 396.138 168.519C395.931 168.303 395.813 167.978 395.768 167.701C393.529 167.698 392.41 167.701 390.173 167.701ZM415.906 167.701C416.204 167.947 416.306 168.222 416.249 168.519C416.137 169.149 415.193 169.654 413.557 169.654C411.667 169.654 409.626 169.124 408.569 168.757C407.807 169.813 407.419 170.357 406.615 171.422C407.651 172.007 409.936 172.407 412.396 172.451C416.746 172.521 421.795 171.082 422.345 167.912L422.372 167.701H415.906ZM359.637 175.539C358.791 175.539 357.874 175.676 357.183 176.067C356.318 176.538 355.906 177.26 355.731 177.915L355.625 178.205H354.517L354.173 179.445H355.282L354.016 183.827H356.549L357.789 179.445H359.478L359.848 178.205H358.133L358.238 177.941C358.396 177.377 358.904 176.912 359.716 176.912C360.049 176.912 360.305 176.921 360.534 176.991L360.983 175.671C360.701 175.591 360.253 175.539 359.637 175.539ZM376.158 175.671L373.757 183.827H376.317L378.692 175.671H376.158ZM380.777 175.671L379.036 181.346C378.927 181.691 378.851 182.03 378.851 182.375C378.851 183.373 379.864 183.959 381.912 183.959C385.79 183.959 387.639 181.852 387.639 180.026C387.639 179.027 386.823 178.073 385.026 178.073C383.969 178.073 382.998 178.372 382.361 178.865H382.334L383.337 175.671H380.777ZM322.028 175.75C321.252 175.75 320.595 176.138 320.576 176.701C320.576 177.195 321.101 177.492 321.791 177.492H321.817C322.627 177.492 323.295 177.153 323.295 176.569C323.295 176.075 322.769 175.751 322.028 175.75ZM333.244 175.75C332.467 175.75 331.787 176.138 331.766 176.701C331.766 177.195 332.317 177.492 333.007 177.492C333.819 177.492 334.511 177.153 334.511 176.569C334.511 176.075 333.986 175.751 333.244 175.75ZM411.577 175.75C410.802 175.75 410.144 176.138 410.125 176.701C410.125 177.195 410.649 177.492 411.34 177.492H411.366C412.176 177.492 412.844 177.153 412.844 176.569C412.844 176.075 412.316 175.751 411.577 175.75ZM305.533 175.962C302.94 175.962 300.835 176.907 300.835 178.469C300.835 179.481 302.046 180.081 303.315 180.528C304.406 180.895 304.926 181.171 304.926 181.61C304.926 182.218 304.01 182.533 303.025 182.533C301.931 182.533 300.932 182.306 300.227 182.032L299.383 183.378C299.948 183.655 301.133 183.936 302.788 183.959C305.435 183.959 307.617 183.043 307.617 181.319C307.617 180.401 306.689 179.781 305.242 179.287C304.237 178.92 303.526 178.653 303.526 178.205C303.526 177.779 304.142 177.387 305.322 177.387C306.308 177.376 307.15 177.591 307.538 177.73L308.33 176.331C307.821 176.147 306.978 175.962 305.533 175.962ZM367.819 176.067L362.039 183.827H364.757L366.156 181.821H369.587L369.824 183.827H372.49L371.091 176.067H367.819ZM339.341 176.674L336.728 177.149L336.412 178.205H335.303L334.934 179.445H336.042L335.356 181.689C335.232 182.126 335.197 182.409 335.197 182.718C335.197 183.42 335.898 183.959 337.415 183.959C337.96 183.959 338.6 183.906 338.919 183.827L339.236 182.533C339.003 182.557 338.75 182.533 338.523 182.533C337.975 182.533 337.784 182.36 337.784 182.085C337.784 181.89 337.875 181.591 337.942 181.372L338.523 179.445H340.344L340.714 178.205H338.893L339.341 176.674ZM369.033 177.36H369.059C369.115 177.831 369.195 178.468 369.244 178.891L369.481 180.554H366.895L368.082 178.891C368.401 178.443 368.732 177.831 369.033 177.36ZM315.06 178.073C314.018 178.073 312.993 178.413 312.289 179.023H312.262L312.421 178.152H310.151C310.045 178.727 309.82 179.701 309.623 180.369L307.987 186.096H310.494L311.207 183.721H311.234C311.533 183.837 312.139 183.959 312.843 183.959C315.841 183.959 317.831 182.164 317.831 180.211C317.831 179.061 316.926 178.073 315.06 178.073ZM329.523 178.073C328.339 178.073 327.376 178.594 326.779 179.34H326.699C326.754 178.95 326.833 178.585 326.884 178.205H324.667C324.579 178.687 324.466 179.623 324.218 180.475L323.269 183.827H325.802L326.382 181.742C326.699 180.64 327.477 179.683 329.101 179.683L329.496 179.709L329.998 178.099L329.523 178.073ZM349.291 178.073C346.221 178.073 344.144 179.684 344.144 181.636C344.144 183.025 345.627 183.959 347.813 183.959C350.811 183.959 352.96 182.453 352.96 180.396C352.96 179.122 351.599 178.073 349.291 178.073ZM394.712 178.073C390.463 178.073 388.537 180.111 388.537 182.006C388.537 183.178 389.6 183.959 391.149 183.959C392.152 183.959 393.234 183.648 394.026 182.718H394.079C394.024 183.119 393.989 183.492 393.973 183.827H396.323C396.286 183.125 396.428 182.015 396.639 181.293L397.563 178.363C396.844 178.214 395.732 178.073 394.712 178.073ZM404.9 178.073C403.751 178.073 402.676 178.394 401.865 179.129H401.812L401.997 178.205H399.753C399.65 178.699 399.49 179.315 399.279 180.026L398.196 183.827H400.73L401.443 181.319C401.794 180.079 402.779 179.419 403.606 179.419C404.242 179.419 404.451 179.689 404.451 180.079C404.451 180.285 404.426 180.515 404.372 180.712L403.448 183.827H406.008L406.958 180.554C407.028 180.278 407.091 179.856 407.091 179.604C407.091 178.639 406.307 178.073 404.9 178.073ZM419.178 178.073C414.931 178.073 413.003 180.111 413.003 182.006C413.003 183.178 414.06 183.959 415.615 183.959C416.618 183.959 417.726 183.648 418.519 182.718H418.571C418.52 183.119 418.458 183.492 418.439 183.827H420.788C420.756 183.125 420.92 182.015 421.131 181.293L422.029 178.363C421.307 178.214 420.202 178.073 419.178 178.073ZM320.233 178.205L318.57 183.827H321.13L322.767 178.205H320.233ZM331.424 178.205L329.787 183.827H332.321L333.957 178.205H331.424ZM409.756 178.205L408.12 183.827H410.653L412.316 178.205H409.756ZM348.974 179.34C349.998 179.34 350.321 179.879 350.321 180.396C350.321 181.36 349.549 182.692 348.156 182.692C347.277 182.692 346.784 182.239 346.784 181.583C346.768 180.712 347.511 179.34 348.974 179.34ZM394.026 179.34C394.272 179.34 394.517 179.343 394.712 179.366L394.29 180.686C393.904 182.064 392.991 182.613 392.232 182.613C391.527 182.613 391.176 182.24 391.176 181.689C391.176 180.643 392.385 179.34 394.026 179.34ZM418.492 179.34C418.74 179.34 418.987 179.343 419.178 179.366L418.782 180.686C418.396 182.064 417.457 182.613 416.697 182.613C415.991 182.613 415.668 182.24 415.668 181.689C415.668 180.643 416.85 179.34 418.492 179.34ZM314.057 179.419C314.887 179.419 315.166 179.868 315.166 180.316C315.166 181.419 314.12 182.692 312.764 182.692C312.266 182.692 311.859 182.6 311.576 182.428L311.893 181.214C312.21 180.111 313.105 179.419 314.057 179.419ZM383.839 179.419C384.615 179.419 384.974 179.843 384.974 180.396C384.974 181.373 383.906 182.692 382.44 182.692C381.859 182.692 381.481 182.487 381.464 182.085C381.443 181.845 381.513 181.635 381.569 181.451L381.727 181.003C382.026 180.027 382.925 179.419 383.839 179.419Z" fill="#005DA2"/>
<path d="M154.831 139.909C154.804 140.476 154.691 141.111 154.435 141.809L154.409 141.862C154.072 142.772 153.505 143.821 152.641 145.003C147.355 152.833 134.846 163.493 128.492 168.677C127.282 169.681 126.043 170.677 124.797 171.633L124.665 171.765H133.031C133.031 171.765 151.622 156.567 154.99 149.833C156.767 146.049 157.302 142.433 154.831 139.909ZM185.684 153.528C183.284 158.087 180.706 162.579 178.136 167.093H183.916C186.473 162.579 189.04 158.087 191.438 153.528H185.684ZM194.552 153.528C192.232 157.856 189.729 162.147 187.241 166.434C187.11 166.659 186.996 166.869 186.872 167.093H192.705C192.775 166.95 192.837 166.813 192.916 166.671C193.163 166.263 193.296 166.052 193.549 165.642C194.44 164.037 196.525 162.218 199.276 162.158C200.971 162.115 201.599 163.075 201.282 164.296C201.051 165.184 200.399 166.197 199.461 167.093C201.888 167.098 203.103 167.12 205.531 167.12C206.561 165.953 207.219 164.682 207.537 163.504C208.114 161.384 206.465 159.085 202.734 159.149C200.322 159.188 197.959 159.836 196.215 160.944H196.135C197.576 158.479 198.999 156.017 200.332 153.528H194.552ZM358.238 153.528C356.195 158.062 354.195 162.601 352.062 167.12H357.842C359.966 162.601 361.929 158.062 363.965 153.528H358.238ZM338.497 153.739C336.738 153.739 335.041 154.638 334.802 155.929C334.588 157.06 335.697 157.781 337.256 157.777H337.282C339.114 157.777 340.803 156.995 341.03 155.639C341.219 154.495 340.167 153.739 338.497 153.739ZM369.534 153.739C367.777 153.739 366.109 154.618 365.892 155.903C365.703 157.03 366.811 157.75 368.373 157.75H368.399C370.239 157.746 371.915 156.964 372.12 155.613C372.293 154.474 371.213 153.739 369.534 153.739ZM318.702 154.478C314.865 158.718 310.959 162.937 306.957 167.12C313.347 167.12 319.737 167.118 326.118 167.12C326.151 162.912 326.047 158.684 326.066 154.478C323.607 154.478 321.156 154.475 318.702 154.478ZM168.133 154.531C164.002 158.79 159.643 162.921 155.306 167.093C161.712 167.093 168.093 167.093 174.494 167.093C174.844 162.901 175.21 158.729 175.549 154.531H168.133ZM320.893 157.46H320.972C320.901 158.539 320.809 159.961 320.761 160.918C320.706 162.42 320.67 163.145 320.602 164.639H314.77C316.122 163.148 316.79 162.422 318.122 160.918C319.023 159.912 320.03 158.539 320.893 157.46ZM170.086 157.539H170.165C170.002 158.624 169.771 160.022 169.637 160.97C169.446 162.454 169.354 163.193 169.163 164.665H163.303C164.784 163.194 165.529 162.454 166.998 160.97C167.996 159.971 169.122 158.627 170.086 157.539ZM385.079 159.044C382.294 159.091 379.636 160.003 377.874 161.445H377.795C378.071 160.604 378.199 160.178 378.481 159.334C376.434 159.334 375.407 159.356 373.361 159.36C372.965 160.48 372.449 161.874 371.724 163.478C371.086 164.935 370.77 165.657 370.088 167.12H375.895C376.022 166.832 376.083 166.694 376.211 166.407C376.982 164.614 378.859 162.231 381.754 162.079C383.072 162.006 383.601 162.705 383.469 163.583C383.4 164.052 383.242 164.564 383.047 165.008C382.676 165.858 382.489 166.271 382.097 167.12H387.877C388.332 166.133 388.575 165.647 389.011 164.665C389.261 164.046 389.515 163.057 389.619 162.501C389.95 160.643 388.07 158.998 385.079 159.044ZM402.841 159.044C396.264 159.097 390.987 162.799 390.278 166.935L390.252 167.12H398.328C402.595 167.056 408.688 166.231 409.149 162.844C409.484 160.446 406.191 159.014 402.841 159.044ZM419.627 159.044C415.548 159.033 410.844 160.449 410.442 163.425C410.227 165.008 411.963 166.074 414.137 166.803C414.482 166.914 414.772 167.014 415.035 167.12H422.371C422.092 165.778 420.272 164.923 418.545 164.349C417.039 163.847 416.286 163.418 416.354 162.897C416.442 162.219 417.542 161.762 419.073 161.762C420.794 161.762 422.114 162.084 422.926 162.343C423.606 161.282 423.935 160.741 424.615 159.677C423.697 159.308 421.905 159.045 419.627 159.044ZM352.907 159.07C350.06 159.092 347.675 160.406 346.229 161.947H346.124C346.387 161.063 346.64 160.218 346.889 159.36H341.901C341.357 161.085 340.748 162.781 340.053 164.481C339.566 165.536 339.325 166.06 338.813 167.12H344.567C345.527 165.051 347.648 162.716 351.402 162.712C351.727 162.712 352.04 162.739 352.326 162.739C352.996 161.292 353.323 160.554 353.988 159.096C353.634 159.07 353.258 159.07 352.907 159.07ZM295.002 159.096C292.201 159.149 289.485 160.078 287.664 161.498H287.612C287.939 160.664 288.082 160.228 288.403 159.387H283.31C282.849 160.507 282.244 161.914 281.436 163.504C280.707 164.945 280.36 165.669 279.615 167.12C281.932 167.12 283.06 167.118 285.368 167.12C285.518 166.836 285.615 166.692 285.764 166.407C286.627 164.613 288.623 162.257 291.518 162.105C292.836 162.036 293.303 162.71 293.128 163.583C293.041 164.047 292.866 164.574 292.653 165.008C292.239 165.851 292.032 166.272 291.597 167.12H297.377C297.87 166.138 298.108 165.642 298.591 164.665C298.869 164.05 299.2 163.076 299.33 162.527C299.761 160.702 297.978 159.045 295.002 159.096ZM244.486 159.123C241.669 159.177 238.942 160.114 237.07 161.525H236.991C237.35 160.695 237.533 160.254 237.889 159.413C235.847 159.413 234.812 159.434 232.768 159.44C232.263 160.555 231.626 161.92 230.762 163.504C229.992 164.938 229.594 165.669 228.81 167.12H234.59C234.744 166.833 234.838 166.69 234.985 166.407C235.912 164.609 237.98 162.285 240.897 162.132C242.219 162.061 242.661 162.741 242.454 163.61C242.353 164.072 242.146 164.574 241.926 165.008C241.475 165.844 241.267 166.278 240.818 167.12H246.598C247.117 166.144 247.38 165.662 247.892 164.692C248.196 164.076 248.563 163.095 248.709 162.554C249.212 160.744 247.454 159.066 244.486 159.123ZM273.597 159.123C266.143 159.116 259.63 162.36 257.92 167.12H263.885C264.565 164.774 267.541 161.975 271.46 161.92C272.008 161.913 272.562 161.97 272.99 162.026C272.375 163.187 272.075 163.772 271.46 164.929C271.021 165.789 270.522 166.528 269.982 167.12H276.078C276.206 166.84 276.346 166.572 276.474 166.328C277.648 164.136 278.799 161.924 279.932 159.73C278.37 159.392 275.902 159.123 273.597 159.123ZM223.056 159.149C215.596 159.144 208.944 162.369 207.115 167.12H213.08C213.823 164.767 216.895 161.996 220.813 161.947C221.364 161.934 221.92 162.002 222.344 162.052C221.692 163.209 221.364 163.776 220.707 164.929C220.248 165.784 219.728 166.525 219.177 167.12H225.3C225.437 166.839 225.56 166.574 225.695 166.328C226.931 164.147 228.177 161.946 229.39 159.756C227.832 159.424 225.367 159.149 223.056 159.149ZM333.429 159.36C332.248 161.951 331.048 164.544 329.787 167.12H335.567C336.808 164.55 338.013 161.963 339.182 159.36C336.884 159.366 335.732 159.36 333.429 159.36ZM364.572 159.36C363.443 161.954 362.301 164.543 361.089 167.12H366.868C368.082 164.543 369.213 161.956 370.326 159.36C368.027 159.363 366.875 159.36 364.572 159.36ZM253.856 159.413C252.528 161.977 251.157 164.56 249.792 167.12H255.571C256.935 164.56 258.265 161.981 259.583 159.413C257.281 159.413 256.15 159.409 253.856 159.413ZM401.759 161.788C403.091 161.788 403.822 162.219 403.739 162.844V162.871C402.971 164.598 398.951 164.445 396.797 164.401C397.367 163.207 399.071 161.788 401.759 161.788ZM257.614 157.801H257.655C259.504 157.801 261.069 157.017 261.069 155.684C261.069 154.556 259.863 153.827 258.174 153.827C256.408 153.827 254.879 154.69 254.847 155.972C254.847 157.097 256.047 157.801 257.614 157.801Z" fill="#ED1941"/>
</svg>
