<svg width="480" height="320" viewBox="0 0 480 320" fill="none" xmlns="http://www.w3.org/2000/svg">
<path d="M133.718 202.663L140.624 153.56L93.4385 202.663" fill="#BE210C"/>
<path d="M149.899 117.337C140.881 117.337 134.607 119.662 126.517 128.475L55.3848 202.663H82.4715L152.628 129.603L142.36 202.663H163.162L175.132 117.337M279.986 191.173C278.926 190.372 278.386 189.171 278.386 187.563C278.386 183.767 280.7 180.936 285.166 180.169C286.082 180.013 288.139 179.92 289.269 179.92H295.248L293.501 192.392H284.744C282.598 192.392 281.074 191.991 279.986 191.173ZM275.599 151.308L269.173 161.788H291.72C296.061 161.788 297.18 163.114 297.18 165.571C297.18 166.305 297.067 167.263 296.91 168.276C296.848 168.528 296.798 169.002 296.704 169.648H287.424C277.815 169.648 271.626 170.869 266.728 175.852C263.954 178.68 261.875 183.511 261.875 189.651C261.875 194.412 263.897 198.082 267.417 200.201C269.759 201.614 274.066 202.663 280.324 202.663H310.31L314.522 172.707C314.898 170.011 315.31 167.3 315.31 163.688C315.31 159.466 313.354 155.402 308.134 153.148C305.223 151.894 301.283 151.308 296.133 151.308H275.599ZM389.296 191.173C388.232 190.373 387.697 189.171 387.697 187.563C387.697 183.767 390.011 180.936 394.477 180.169C395.391 180.013 397.45 179.92 398.578 179.92H404.555L402.812 192.393H394.054C391.902 192.393 390.385 191.991 389.296 191.174M380.689 151.308L379.218 161.788H401.031C405.367 161.788 406.488 163.114 406.488 165.571C406.488 166.305 406.376 167.263 406.219 168.276C406.156 168.528 406.106 169.002 406.012 169.648H396.733C387.121 169.648 380.932 170.869 376.037 175.853C373.261 178.68 371.183 183.511 371.183 189.652C371.183 194.412 373.207 198.082 376.72 200.201C379.065 201.614 383.372 202.663 389.628 202.663H419.618L423.826 172.707C424.208 170.011 424.616 167.301 424.616 163.689C424.616 159.466 422.662 155.402 417.438 153.148C414.531 151.894 410.591 151.308 405.441 151.308H380.689ZM206.043 151.306L198.823 202.663H217.059L224.275 151.306H206.043ZM352.689 151.306L345.471 202.663H363.71L370.925 151.306H352.689ZM180.866 138.73L171.88 202.663H190.114L199.1 138.73L180.866 138.73ZM207.81 138.73L206.57 147.53H224.808L226.045 138.73H207.81ZM234.625 138.73L227.971 186.154C227.601 188.8 227.382 190.85 227.382 192.153C227.382 194.089 227.532 195.011 227.84 196.17C229.056 200.853 232.669 202.663 238.174 202.663H255.663L257.24 192.182H250.029C247.003 192.182 245.901 191.216 245.901 189.229C245.901 188.606 245.97 187.76 246.127 186.683L249.624 161.788H262.02L268.442 151.308H251.095L252.863 138.73H234.625ZM327.617 138.73L318.63 202.663H336.868L345.856 138.73L327.617 138.73ZM354.457 138.73L353.218 147.53H371.456L372.695 138.73" fill="#00663F"/>
</svg>
