<svg width="480" height="320" viewBox="0 0 480 320" fill="none" xmlns="http://www.w3.org/2000/svg">
<path d="M409.492 112.922L355.109 207.077H370.252L424.615 112.922H409.492Z" fill="#00B3F0"/>
<path d="M355.111 207.078L409.494 112.923H348.996L294.625 207.078L355.111 207.078Z" fill="#223F9A"/>
<mask id="mask0_730_18430" style="mask-type:luminance" maskUnits="userSpaceOnUse" x="34" y="93" width="410" height="140">
<path d="M34.6846 232.888H443.131V93.1569H34.6846V232.888Z" fill="white"/>
</mask>
<g mask="url(#mask0_730_18430)">
<path d="M160.77 144.286C160.921 143.533 161.641 142.907 162.455 142.907C163.175 142.907 163.85 143.447 164.092 144.085L181.382 207.066H209.709L224.14 125.22H211.668L200.566 188.242C200.419 189.036 199.76 189.657 198.918 189.657C198.153 189.657 197.498 189.105 197.298 188.397L179.971 125.22H151.657L137.229 207.066H149.685L160.77 144.286ZM112.407 179.317L109.986 142.645C109.965 141.831 109.421 141.058 108.607 140.842C107.707 140.617 106.787 141.087 106.431 141.889L69.498 207.066H55.3857L101.78 125.216H129.047L134.504 207.066H114.264L113.671 198.145C113.573 196.239 112.145 194.725 110.247 194.725H79.6343L86.539 182.515H109.495C111.172 182.515 112.534 181.043 112.407 179.317ZM266.311 179.49L263.088 143.159C263.002 142.21 262.225 141.486 261.247 141.486C260.592 141.486 260.008 141.825 259.668 142.341L226.421 207.064H212.628L254.633 125.218H281.9L289.156 207.064H268.761L267.964 198.139C267.812 196.22 266.421 194.732 264.54 194.732H235.837L242.104 182.517H263.374C265.113 182.517 266.483 181.024 266.311 179.49Z" fill="#223F9A"/>
</g>
</svg>
