<svg width="480" height="320" viewBox="0 0 480 320" fill="none" xmlns="http://www.w3.org/2000/svg">
<path fill-rule="evenodd" clip-rule="evenodd" d="M320.579 152.299L295.213 148.385L318.422 136.644C318.579 136.559 318.702 136.422 318.769 136.256C318.835 136.091 318.842 135.907 318.788 135.737C318.733 135.567 318.621 135.421 318.47 135.325C318.32 135.229 318.14 135.189 317.963 135.212L292.191 139.226L310.7 120.907C310.829 120.778 310.908 120.608 310.923 120.427C310.937 120.245 310.886 120.065 310.779 119.917C310.672 119.77 310.516 119.666 310.339 119.624C310.162 119.582 309.975 119.605 309.814 119.688L286.71 131.535L298.352 108.529C298.429 108.368 298.448 108.184 298.403 108.01C298.359 107.836 298.255 107.683 298.11 107.578C297.964 107.473 297.786 107.423 297.607 107.436C297.428 107.448 297.26 107.524 297.131 107.649L278.848 126.136L283.147 100.409C283.176 100.229 283.14 100.045 283.046 99.8888C282.952 99.7329 282.806 99.6153 282.633 99.5571C282.46 99.5012 282.272 99.508 282.103 99.5765C281.935 99.645 281.795 99.7707 281.71 99.9316L269.755 123.291L265.817 97.8903C265.789 97.7109 265.698 97.5474 265.56 97.429C265.422 97.3106 265.247 97.2451 265.065 97.2441C264.883 97.2444 264.707 97.3097 264.569 97.4281C264.431 97.5466 264.339 97.7104 264.311 97.8903L260.324 123.278L248.482 99.8314C248.401 99.6682 248.264 99.5397 248.096 99.4694C247.927 99.3992 247.74 99.3919 247.567 99.449C247.394 99.5056 247.247 99.622 247.152 99.7771C247.058 99.9322 247.021 100.116 247.05 100.296L251.322 126.361L232.808 107.416C232.68 107.288 232.51 107.209 232.329 107.194C232.148 107.179 231.967 107.229 231.82 107.335C231.672 107.441 231.567 107.596 231.524 107.772C231.48 107.949 231.501 108.135 231.582 108.297L243.634 131.812L220.035 119.612C219.873 119.526 219.685 119.503 219.507 119.545C219.329 119.587 219.171 119.692 219.065 119.841C218.959 119.99 218.91 120.17 218.925 120.352C218.94 120.533 219.018 120.704 219.146 120.833L238.101 139.336L211.878 135.077C211.699 135.048 211.515 135.084 211.36 135.179C211.205 135.273 211.089 135.421 211.034 135.594C210.977 135.767 210.984 135.954 211.054 136.122C211.124 136.29 211.251 136.427 211.414 136.509L234.981 148.335L208.99 152.299C208.8 152.327 208.627 152.426 208.508 152.576C208.388 152.727 208.33 152.917 208.346 153.109C208.373 153.51 208.71 153.813 209.103 153.813H320.463C320.656 153.815 320.842 153.743 320.984 153.613C321.126 153.483 321.213 153.304 321.228 153.112C321.242 152.92 321.184 152.729 321.063 152.579C320.943 152.428 320.77 152.329 320.579 152.302" fill="#FF9800"/>
<path fill-rule="evenodd" clip-rule="evenodd" d="M289.451 153.868C289.466 153.567 289.319 153.38 289.116 153.348L278.26 151.674L288.193 146.652C288.276 146.609 288.342 146.538 288.379 146.451C288.416 146.365 288.422 146.268 288.396 146.177C288.366 146.086 288.306 146.009 288.225 145.958C288.143 145.908 288.047 145.887 287.953 145.9L276.92 147.623L284.846 139.774C284.912 139.707 284.953 139.618 284.96 139.524C284.967 139.43 284.941 139.336 284.885 139.26C284.831 139.182 284.75 139.127 284.658 139.104C284.565 139.082 284.468 139.094 284.384 139.138L274.486 144.21L279.471 134.365C279.514 134.28 279.525 134.182 279.501 134.09C279.478 133.998 279.422 133.918 279.344 133.864C279.268 133.808 279.174 133.782 279.08 133.79C278.987 133.797 278.899 133.839 278.833 133.906L271.01 141.818L272.854 130.804C272.867 130.711 272.848 130.616 272.799 130.535C272.75 130.455 272.674 130.394 272.585 130.364C272.495 130.333 272.396 130.335 272.308 130.371C272.22 130.407 272.147 130.474 272.105 130.559L266.988 140.562L265.298 129.686C265.286 129.59 265.24 129.501 265.168 129.436C265.095 129.372 265.002 129.336 264.905 129.336C264.808 129.336 264.714 129.372 264.641 129.436C264.569 129.501 264.523 129.59 264.512 129.686L262.808 140.555L257.739 130.514C257.694 130.43 257.622 130.363 257.534 130.327C257.446 130.29 257.347 130.285 257.256 130.314C257.166 130.344 257.09 130.405 257.04 130.486C256.991 130.567 256.971 130.663 256.985 130.757L258.815 141.913L250.895 133.798C250.828 133.73 250.739 133.689 250.644 133.681C250.549 133.674 250.455 133.701 250.378 133.758C250.3 133.812 250.244 133.892 250.222 133.984C250.199 134.076 250.21 134.173 250.254 134.256L255.413 144.331L245.312 139.104C245.226 139.06 245.127 139.048 245.033 139.07C244.939 139.092 244.857 139.147 244.8 139.225C244.745 139.303 244.72 139.397 244.728 139.492C244.737 139.586 244.778 139.675 244.845 139.742L252.96 147.665L241.733 145.845C241.639 145.829 241.543 145.847 241.462 145.896C241.38 145.945 241.319 146.021 241.29 146.111C241.262 146.202 241.266 146.3 241.303 146.388C241.34 146.475 241.406 146.548 241.49 146.591L251.575 151.65L240.454 153.348C240.248 153.38 240.095 153.565 240.116 153.868H289.451Z" fill="#FBCE20"/>
<path fill-rule="evenodd" clip-rule="evenodd" d="M94.8211 188.056C94.8211 188.794 94.7288 189.528 94.5732 190.179C93.8189 192.545 91.2316 194.576 88.3174 194.562C85.564 194.483 83.8048 193.249 83.7468 190.182C83.7732 187.9 84.8598 186.542 86.9433 185.529C88.8686 184.625 91.6378 184.192 94.8211 184.134V188.056ZM109.379 177.222C109.379 171.831 108.235 166.791 105.133 163.064C102.034 159.325 97.0101 157.038 89.6413 157.051C81.5921 157.051 75.5341 159.393 72.4035 161.21C72.2567 161.295 72.1424 161.427 72.0784 161.584C72.0144 161.741 72.0045 161.915 72.0501 162.078L74.5398 170.979C74.5718 171.093 74.6296 171.197 74.7088 171.285C74.788 171.372 74.8863 171.44 74.9962 171.483C75.106 171.527 75.2243 171.544 75.3419 171.534C75.4595 171.523 75.5731 171.486 75.6738 171.425C78.3692 169.768 83.0031 168.234 87.2466 168.239C93.4048 168.342 94.2198 170.982 94.3622 173.07C86.9459 173.163 80.727 174.542 76.2488 177.396C71.6044 180.331 68.8985 184.947 68.9143 191.01C68.9301 198.529 74.4897 205.542 83.702 205.565H83.7152C88.5442 205.565 92.8563 203.899 95.8549 200.742L96.4114 203.92C96.4747 204.289 96.7938 204.55 97.1657 204.55H109.332C109.446 204.55 109.558 204.525 109.66 204.476C109.763 204.427 109.854 204.356 109.925 204.268C109.997 204.178 110.047 204.073 110.073 203.962C110.099 203.85 110.1 203.734 110.076 203.622C109.548 201.264 109.377 197.147 109.377 192.932V177.222H109.379ZM303.415 188.056C303.415 188.794 303.323 189.528 303.167 190.179C302.411 192.545 299.826 194.576 296.909 194.562C294.156 194.483 292.396 193.249 292.338 190.182C292.365 187.9 293.454 186.542 295.535 185.529C297.465 184.625 300.232 184.192 303.415 184.134V188.056ZM317.974 192.935V177.222C317.974 171.831 316.826 166.791 313.722 163.064C310.626 159.325 305.599 157.038 298.23 157.051C290.181 157.051 284.128 159.393 280.998 161.21C280.851 161.295 280.736 161.426 280.671 161.583C280.607 161.74 280.596 161.914 280.642 162.078L283.131 170.979C283.164 171.092 283.221 171.197 283.3 171.285C283.378 171.372 283.476 171.441 283.585 171.485C283.809 171.572 284.062 171.549 284.265 171.425C286.961 169.768 291.595 168.234 295.844 168.239C301.999 168.342 302.814 170.982 302.956 173.07C295.54 173.163 289.319 174.542 284.838 177.396C280.201 180.331 277.493 184.947 277.509 191.012C277.527 198.532 283.084 205.544 292.294 205.568H292.307C297.141 205.568 301.453 203.901 304.449 200.744L305.008 203.922C305.069 204.292 305.385 204.553 305.763 204.553H317.926C318.04 204.553 318.153 204.528 318.256 204.479C318.359 204.43 318.45 204.359 318.522 204.27C318.594 204.181 318.644 204.076 318.67 203.964C318.695 203.852 318.695 203.736 318.67 203.624C318.145 201.267 317.968 197.15 317.974 192.935ZM399.186 159.952C399.042 159.807 398.847 159.725 398.643 159.723H389.752V148.704C389.752 148.586 389.724 148.471 389.672 148.366C389.62 148.26 389.544 148.169 389.451 148.097C389.358 148.026 389.249 147.977 389.134 147.954C389.019 147.931 388.9 147.935 388.787 147.965L375.579 151.597C375.418 151.642 375.275 151.738 375.174 151.872C375.073 152.005 375.019 152.168 375.02 152.336V159.723H369.204C369 159.725 368.805 159.807 368.661 159.952C368.521 160.095 368.441 160.287 368.44 160.488V169.861C368.44 170.578 368.661 170.95 368.661 170.95C368.804 171.09 369.004 171.169 369.204 171.169H375.02V188.146C375.022 194.343 376.265 198.721 378.944 201.525C381.344 203.925 385.174 205.476 389.678 205.481C393.489 205.476 396.802 204.961 398.645 204.284C398.793 204.229 398.92 204.13 399.01 204.001C399.1 203.872 399.149 203.718 399.149 203.561L399.049 193.362C399.047 193.248 399.02 193.136 398.97 193.033C398.919 192.931 398.847 192.841 398.759 192.769C398.67 192.699 398.567 192.65 398.457 192.625C398.347 192.601 398.233 192.601 398.123 192.627C396.923 192.882 396.14 192.964 394.307 192.969C392.447 192.948 391.472 192.46 390.789 191.461C390.1 190.44 389.747 188.663 389.755 186.107V171.169H398.643C398.743 171.171 398.842 171.152 398.935 171.115C399.028 171.077 399.113 171.021 399.184 170.95C399.255 170.88 399.311 170.795 399.348 170.702C399.386 170.609 399.404 170.51 399.402 170.409V160.488C399.402 160.29 399.323 160.089 399.186 159.952ZM235.759 184.501C235.759 185.616 235.651 186.98 235.358 187.914C234.543 190.73 232.114 192.777 228.897 192.782C223.875 192.772 220.932 188.304 220.884 182.024C220.932 174.35 224.55 170.465 228.992 170.457C232.352 170.483 234.583 172.54 235.524 175.848C235.662 176.56 235.759 177.377 235.759 178.116V184.501ZM250.338 159.725H238.644C238.453 159.726 238.27 159.798 238.129 159.927C237.988 160.057 237.901 160.234 237.885 160.424L237.611 163.774C235.2 160.754 231.455 158.721 226.159 158.736C223.435 158.726 220.739 159.295 218.251 160.405C215.762 161.515 213.538 163.14 211.725 165.174C208.006 169.296 205.709 175.212 205.709 182.37C205.709 188.734 207.666 194.193 211.055 198.081C214.441 201.965 219.265 204.244 224.84 204.236C229.298 204.244 233.214 202.625 235.944 199.771V200.636C235.867 208.356 231.571 211.212 225.447 211.304C220.468 211.31 215.865 209.664 213.236 208.129C213.133 208.07 213.019 208.036 212.901 208.028C212.783 208.021 212.665 208.041 212.556 208.087C212.448 208.132 212.352 208.202 212.275 208.29C212.198 208.378 212.143 208.483 212.113 208.596L209.459 218.881C209.416 219.045 209.429 219.218 209.496 219.373C209.563 219.528 209.68 219.656 209.829 219.736C213.922 221.967 221.591 223.12 227.451 223.122C233.929 223.122 238.927 221.87 243.856 217.613C249.051 213.045 250.766 205.95 250.766 197.527V173.424C250.766 166.962 250.929 163.349 251.101 160.53C251.107 160.427 251.091 160.323 251.056 160.226C251.021 160.129 250.966 160.041 250.895 159.965C250.824 159.889 250.739 159.829 250.643 159.787C250.548 159.746 250.445 159.725 250.341 159.725H250.338ZM366.008 170.204C365.217 167.521 364.004 165.309 362.429 163.56C359.502 160.298 355.379 158.731 350.772 158.736C344.279 158.736 339.985 161.959 337.714 164.765L337.269 160.406C337.247 160.218 337.157 160.045 337.017 159.919C336.877 159.793 336.695 159.722 336.506 159.72H324.802C324.698 159.721 324.596 159.742 324.501 159.783C324.406 159.824 324.32 159.883 324.248 159.957C324.176 160.033 324.121 160.122 324.085 160.22C324.048 160.317 324.032 160.421 324.037 160.525C324.222 164.407 324.401 168.919 324.401 174.307V203.833C324.401 204.03 324.488 204.226 324.63 204.371C324.773 204.513 324.967 204.594 325.168 204.595H338.635C338.835 204.595 339.036 204.516 339.173 204.371C339.316 204.228 339.398 204.035 339.402 203.833V178.83C339.394 177.628 339.505 176.438 339.785 175.745C340.716 173.432 342.675 171.166 345.982 171.166C350.326 171.201 351.959 174.31 352.051 179.801V203.833C352.052 204.035 352.133 204.229 352.276 204.372C352.419 204.515 352.613 204.595 352.816 204.595H366.295C366.498 204.595 366.692 204.515 366.835 204.372C366.979 204.229 367.06 204.035 367.06 203.833V178.213C367.06 175.534 366.77 173.126 366.227 170.995L366.008 170.204ZM271.419 158.072H257.942C257.74 158.072 257.545 158.152 257.402 158.295C257.259 158.438 257.178 158.632 257.177 158.834V203.79C257.177 203.988 257.259 204.186 257.399 204.331C257.545 204.472 257.739 204.551 257.942 204.553H271.419C271.62 204.551 271.813 204.472 271.957 204.331C272.098 204.187 272.178 203.993 272.178 203.79V158.837C272.18 158.736 272.161 158.637 272.123 158.544C272.085 158.451 272.029 158.366 271.959 158.295C271.888 158.224 271.804 158.168 271.711 158.129C271.619 158.091 271.519 158.071 271.419 158.072ZM130.246 140.032H116.769C116.567 140.034 116.373 140.115 116.229 140.256C116.085 140.401 116.005 140.596 116.004 140.8V203.833C116.006 204.034 116.087 204.227 116.229 204.37C116.372 204.513 116.565 204.593 116.767 204.595H130.246C130.449 204.595 130.643 204.515 130.786 204.372C130.929 204.229 131.01 204.035 131.011 203.833V140.8C131.012 140.699 130.993 140.599 130.954 140.505C130.915 140.412 130.859 140.327 130.787 140.256C130.643 140.114 130.449 140.034 130.246 140.032ZM172.067 176.475C172.673 173.205 174.836 169.201 179.62 169.23C184.695 169.236 186.121 173.347 186.353 176.475H172.067ZM180.316 158.736C172.618 158.723 166.887 161.885 163.163 166.464C159.434 171.04 157.664 176.984 157.662 182.639C157.659 189.575 159.824 195.325 163.946 199.315C168.061 203.305 174.061 205.481 181.564 205.473C187.485 205.473 192.984 204.584 197.552 202.68C197.713 202.612 197.847 202.491 197.931 202.336C198.014 202.182 198.042 202.004 198.011 201.831L196.238 192.7C196.218 192.594 196.175 192.493 196.112 192.405C196.049 192.317 195.968 192.243 195.874 192.189C195.78 192.133 195.675 192.098 195.566 192.087C195.457 192.076 195.347 192.089 195.244 192.125C191.676 193.333 188.057 193.932 183.513 193.937C177.711 193.906 172.985 191.674 172.146 187.212H199.2C199.377 187.212 199.548 187.15 199.685 187.037C199.822 186.925 199.915 186.769 199.949 186.595C200.142 185.572 200.424 183.509 200.424 181.143C200.418 175.652 199.065 170.085 195.851 165.834C192.644 161.579 187.524 158.723 180.316 158.739V158.736ZM151.633 140.035H138.158C138.057 140.034 137.957 140.054 137.864 140.092C137.771 140.13 137.686 140.187 137.615 140.258C137.544 140.33 137.487 140.415 137.449 140.508C137.411 140.601 137.392 140.701 137.393 140.802V203.835C137.394 204.038 137.475 204.232 137.618 204.374C137.762 204.517 137.956 204.598 138.158 204.598H151.635C151.837 204.595 152.03 204.515 152.173 204.372C152.316 204.23 152.397 204.037 152.4 203.835L152.397 140.802C152.396 140.6 152.315 140.406 152.172 140.263C152.029 140.12 151.835 140.039 151.633 140.037V140.035ZM407.312 151.795H408.34C409.519 151.795 410.511 151.373 410.511 150.286C410.511 149.514 409.941 148.743 408.343 148.743C407.876 148.743 407.552 148.783 407.312 148.815V151.795ZM407.312 156.669H405.887V147.86C406.639 147.749 407.349 147.644 408.409 147.644C409.759 147.644 410.666 147.936 411.183 148.321C411.727 148.701 412.014 149.297 412.014 150.139C412.014 151.299 411.239 151.993 410.276 152.288V152.357C411.057 152.494 411.589 153.193 411.753 154.49C411.959 155.862 412.193 156.392 412.331 156.669H410.825C410.622 156.392 410.403 155.574 410.221 154.427C410.012 153.293 409.456 152.892 408.311 152.892H407.309V156.669H407.312ZM408.82 145.394C405.294 145.394 402.398 148.39 402.398 152.069C402.398 155.833 405.294 158.773 408.833 158.773C412.399 158.805 415.25 155.833 415.25 152.109C415.25 148.39 412.399 145.394 408.833 145.394H408.82ZM408.833 144.176C409.87 144.172 410.897 144.373 411.855 144.769C412.813 145.165 413.683 145.746 414.415 146.48C415.147 147.214 415.726 148.086 416.119 149.046C416.512 150.005 416.71 151.033 416.703 152.069C416.703 156.526 413.23 160 408.818 160C407.773 160.008 406.738 159.809 405.772 159.413C404.805 159.018 403.927 158.434 403.188 157.696C402.45 156.958 401.865 156.081 401.469 155.115C401.072 154.149 400.872 153.113 400.879 152.069C400.879 151.029 401.085 149.999 401.485 149.038C401.885 148.078 402.47 147.206 403.208 146.472C403.945 145.739 404.821 145.158 405.783 144.764C406.746 144.37 407.777 144.17 408.818 144.176H408.833Z" fill="#01579B"/>
</svg>
