<svg width="480" height="320" viewBox="0 0 480 320" fill="none" xmlns="http://www.w3.org/2000/svg">
<path d="M200.82 126.929H219.357L197.138 142.839L199.067 134.689L205.541 129.93L200.254 129.947L200.82 126.929Z" fill="#FDB827"/>
<path d="M389.274 170.043C387.634 177.783 393.166 180.562 399.386 180.562C404.946 180.562 410.968 178.871 416.581 177.287L411.367 191.185C405.737 192.377 400.036 193.074 394.563 193.074C379.572 193.074 367.478 188.302 371.635 168.747C372.76 163.483 379.482 141.152 404.557 141.152C420.023 141.152 426.886 148.794 423.952 162.592C423.421 165.074 422.704 167.556 421.704 170.043H389.275M406.939 161.008C408.163 155.245 406.529 152.268 402.005 152.268C396.915 152.268 393.144 156.735 391.757 161.008H406.939ZM372.769 157.733C369.201 156.343 365.357 155.348 361.305 155.348C354.038 155.348 348.469 159.819 346.826 167.559C345.241 175.003 348.195 178.875 355.268 178.875C359.225 178.875 363.486 177.883 367.46 176.491L362.061 191.283C357.18 192.478 352.347 193.074 347.625 193.074C332.263 193.074 325.35 184.334 328.828 167.953C329.944 162.692 335.748 141.154 359.514 141.154C365.646 141.154 370.512 141.75 375.041 143.037L372.769 157.732M293.704 148.794L293.848 148.992C299.519 143.132 305.881 141.152 313.143 141.152C322.382 141.152 329.614 144.822 327.038 156.932L318.292 191.875H299.721C302.122 183.238 304.811 174.601 306.643 165.967C307.679 161.104 307.21 156.633 301.742 156.633C296.938 156.633 292.987 160.109 290.676 164.775C287.956 170.042 282.562 191.874 282.562 191.874H263.804L277.159 142.342H295.542L293.704 148.792M226.332 144.228C234.16 142.439 241.977 141.15 249.238 141.15C264.133 141.15 267.917 146.411 266.164 154.65L256.651 191.877H238.548C240.867 184.535 242.726 177.082 244.668 169.74C240.634 172.319 229.701 172.72 228.465 178.574C227.805 181.652 230.262 182.543 232.803 182.543C234.503 182.543 236.261 182.248 237.988 181.652L232.582 192.475C229.95 192.871 227.453 193.071 224.91 193.071C207.66 193.071 210.253 179.964 210.489 178.869C214.933 157.927 245.721 164.377 247.575 155.644C248.271 152.368 245.114 151.669 242.573 151.669C235.972 151.669 228.504 153.956 221.874 156.34L226.332 144.227M185.066 191.992L197.147 143.283L215.235 143.431L203.154 191.989L185.066 191.992ZM160.002 191.992L176.164 127.028H193.957L178.077 191.987L160.002 191.992ZM135.277 191.883L151.439 126.926H169.232L153.363 191.881L135.277 191.883ZM100.568 126.937L55.3846 191.854H76.4091L89.9643 172.49L111.541 172.766L113.662 191.854H134.687L125.65 134.96L132.566 126.937L100.568 126.937ZM108.775 141.691L111.173 159.304H96.7878L108.775 141.691Z" fill="#003263"/>
</svg>
