<svg width="480" height="320" viewBox="0 0 480 320" fill="none" xmlns="http://www.w3.org/2000/svg">
<path fill-rule="evenodd" clip-rule="evenodd" d="M55.3845 187.67H112.059V184.612H55.3845V187.67ZM424.615 184.612H220.657L216.245 187.67H424.615V184.612Z" fill="#0071BC"/>
<path fill-rule="evenodd" clip-rule="evenodd" d="M304.309 129.467C300.747 137.952 290.226 148.811 286.832 150.678C283.44 152.544 282.251 150.508 284.118 147.794C287.852 142.363 300.409 131.674 304.309 129.467L308.044 127.431C310.08 125.226 309.232 121.661 308.044 120.305C306.855 118.947 304.309 118.607 300.578 120.814C296.844 123.019 287.851 129.806 277.33 141.006C274.445 144.399 271.731 146.605 269.864 148.133C267.998 149.659 266.811 148.812 267.829 147.115C268.846 145.418 271.9 139.818 273.088 136.933C274.275 134.049 271.9 130.146 267.317 132.692C262.736 135.237 254.93 142.194 251.368 144.4C247.805 146.605 247.975 144.23 249.501 142.702C251.029 141.176 265.452 128.789 268.846 123.868C272.239 118.947 269.864 117.421 268.337 115.892C266.811 114.366 262.566 114.705 259.174 117.759C255.78 120.814 247.635 127.771 239.66 138.291C237.794 140.496 234.4 142.363 232.025 144.399C234.231 141.176 233.552 137.612 232.363 136.424C231.176 135.237 221.844 132.183 201.821 158.823C199.445 163.405 192.319 171.211 187.737 167.137C194.354 161.368 206.741 148.981 212.171 140.328L202.839 139.139C201.99 141.685 193.675 152.714 185.701 160.519C187.228 155.09 190.791 145.588 199.784 137.443C202.16 135.407 203.687 136.595 202.84 139.139L212.172 140.328C215.566 135.237 216.414 128.619 211.832 125.226C207.25 121.832 195.542 127.263 188.585 137.782C181.628 148.303 177.217 158.653 174.502 168.663C172.296 171.381 168.563 173.755 167.375 170.702C166.188 167.646 167.375 164.424 169.411 161.708C172.635 158.484 175.011 155.429 177.217 153.394C179.423 151.357 179.933 145.758 175.859 145.249L170.939 146.775C168.394 151.017 157.872 162.218 153.801 166.628C149.729 171.041 137.003 183.086 133.948 180.882C132.421 179.355 134.966 173.077 142.262 166.119C149.559 159.162 162.455 150.338 170.939 146.775L175.859 145.249C178.405 143.721 180.442 142.872 182.817 141.686C185.192 140.497 186.38 133.71 178.744 133.71C168.054 135.407 138.699 141.685 119.693 174.603C111.889 188.518 118.846 193.946 120.712 194.964C122.579 195.985 133.439 200.904 153.97 177.147C152.612 183.256 155.667 188.179 158.043 188.179C160.418 188.179 165 187.84 176.539 177.317C178.575 182.748 188.925 183.765 198.428 172.738C198.428 179.355 203.688 180.204 205.046 180.204C206.402 180.204 217.263 179.695 225.237 162.558L219.298 160.52C216.244 165.272 209.966 171.72 208.948 167.137C207.929 162.558 214.717 155.429 219.637 151.696C217.431 155.429 218.45 158.823 219.298 160.52L225.237 162.558C226.934 160.69 229.65 156.957 231.176 154.242L233.552 153.394C230.328 160.012 228.291 164.594 227.104 167.477C225.915 170.363 227.613 173.925 228.801 174.264C229.989 174.603 232.704 174.264 235.248 171.551C237.794 168.833 248.484 156.109 253.743 151.018C255.611 149.151 257.476 149.831 255.78 152.885C254.084 155.939 252.047 162.049 254.084 164.085C256.119 166.119 261.209 166.459 266.469 160.52C268.167 158.484 271.05 156.957 272.748 155.769C271.561 159.673 275.803 163.237 278.686 162.897C281.572 162.558 289.716 158.993 297.183 150.34C296.166 155.769 302.613 158.824 308.044 155.26C313.473 151.697 344.185 130.995 353.009 123.36C357.251 119.967 353.857 114.367 349.106 117.421C344.355 120.475 317.207 139.31 311.606 142.704C308.722 144.401 306.177 142.364 308.381 139.649C310.928 137.104 315.339 130.995 313.134 128.112C312.114 126.754 309.74 126.754 308.044 127.433L304.309 129.467Z" fill="#F15A22"/>
<path fill-rule="evenodd" clip-rule="evenodd" d="M275.078 204.808L272.179 197.052H270.431L267.488 204.807H269.215L269.822 203.081L270.267 201.809L271.277 198.964H271.3L272.277 201.809H270.267L269.822 203.081H272.723L273.308 204.807L275.078 204.808ZM290.446 204.808H288.74V197.052H290.446V204.808ZM309.598 198.378H311.465C312.226 198.378 312.639 198.702 312.639 199.454C312.639 200.236 312.226 200.56 311.465 200.56H309.598V201.778H311.303C312.161 201.778 312.475 202.137 312.595 202.95C312.682 203.567 312.66 204.318 312.867 204.808H314.572C314.268 204.373 314.279 203.459 314.246 202.973C314.193 202.191 313.953 201.377 313.117 201.158V201.135C313.975 200.788 314.343 200.105 314.343 199.193C314.343 198.02 313.464 197.053 312.074 197.053H307.893V204.808H309.598V198.378H309.598ZM330.673 203.374H334.453V204.807H328.97V197.052H330.673V203.374ZM350.687 204.808H348.981V197.052H350.687V204.808ZM370.01 202.256H370.031V197.052H371.628V204.807H369.923L366.697 199.615H366.676V204.807H365.08V197.052H366.774L370.01 202.256ZM393.179 198.486H389.085V200.148H392.841V201.474H389.085V203.374H393.266V204.807H387.379V197.052H393.179V198.486ZM409.831 202.233C409.831 203.266 410.634 203.667 411.548 203.667C412.146 203.667 413.057 203.494 413.057 202.699C413.057 201.863 411.895 201.724 410.756 201.419C409.604 201.115 408.443 200.668 408.443 199.214C408.443 197.63 409.941 196.867 411.342 196.867C412.958 196.867 414.446 197.577 414.446 199.365H412.796C412.742 198.432 412.08 198.193 411.264 198.193C410.723 198.193 410.092 198.421 410.092 199.072C410.092 199.67 410.46 199.747 412.405 200.247C412.97 200.386 414.708 200.744 414.708 202.502C414.708 203.928 413.588 204.992 411.482 204.992C409.766 204.992 408.16 204.145 408.181 202.232H409.831V202.233Z" fill="#0071BC"/>
</svg>
