<svg width="480" height="320" viewBox="0 0 480 320" fill="none" xmlns="http://www.w3.org/2000/svg">
<path d="M194.951 157.365H201.156C205.066 157.365 206.851 155.155 206.851 152.605C206.851 150.99 205.916 148.95 202.856 148.95H196.481L194.951 157.365ZM186.791 138.92H206.171C213.226 138.92 218.666 141.045 218.666 149.97C218.666 156.09 215.266 160.595 209.741 161.615V161.7C213.226 162.805 213.736 166.375 213.736 170.37C213.736 174.364 213.311 178.614 214.246 181.164H203.026C202.601 180.059 202.516 178.954 202.516 176.999C202.516 174.959 203.111 172.41 203.111 170.285C203.111 168.075 201.581 166.46 198.351 166.46H193.251L190.446 181.164H178.887L186.791 138.92ZM89.5539 149.8L88.7039 153.455L85.729 166.12H78.0792L89.5539 149.8ZM86.069 138.92L55.3848 181.079H67.3695L71.6194 175.044H83.4341L82.0741 181.079H93.6338L101.964 138.835H86.069V138.92ZM121.853 161.615L121.428 138.92H104.939L96.9487 181.079H107.913L113.098 152.01H113.268L114.628 181.079H123.383L135.878 152.01H136.048L130.098 181.079H141.063L149.222 138.92H132.393L121.938 161.615H121.853ZM176.337 181.079L178.377 170.285H158.147L159.167 165.015H177.612L179.482 154.985H161.122L162.142 149.715H181.947L183.902 138.92H152.282L144.293 181.079H176.337ZM338.598 176.999L338.513 176.914C336.048 180.569 332.223 182.099 328.143 182.099C314.713 182.099 312.588 169.605 312.588 164.335C312.588 151.075 319.473 137.9 334.433 137.9C343.018 137.9 350.157 142.66 350.327 153.71H339.193C338.853 149.8 336.813 148.44 333.753 148.44C327.293 148.44 324.403 156.09 324.403 163.315C324.403 168.245 326.358 171.56 331.118 171.56C334.263 171.56 336.983 170.285 338.173 166.885H332.818L334.518 157.875H350.157L345.738 181.079H338.258L338.598 176.999ZM228.185 181.079L236.09 138.92H224.361L216.371 181.079H228.185ZM242.805 181.079L245.865 165.015H260.91L262.78 154.985H247.735L248.755 149.715H266.519L268.559 138.92H238.98L230.99 181.079H242.805ZM291.509 181.079L293.549 170.285H276.549L282.499 138.92H270.684L262.78 181.079H291.509ZM306.128 181.079L314.033 138.92H302.219L294.314 181.079H306.128ZM366.562 153.54L369.367 138.92H357.552L349.562 181.079H361.377L364.522 164.42H375.317L372.087 181.079H383.902L391.891 138.92H380.077L377.357 153.54H366.562ZM400.136 149.715L394.271 181.079H406.001L411.951 149.715H422.576L424.616 138.92H394.611L392.571 149.715H400.136Z" fill="#005089"/>
<path opacity="0.3" d="M334.433 157.875L334.178 159.15H349.817L350.072 157.875H334.433Z" fill="#093B78"/>
<path opacity="0.3" d="M334.433 157.875L334.178 159.15H349.817L350.072 157.875H334.433Z" fill="url(#paint0_linear_730_18589)"/>
<path opacity="0.3" d="M218.665 149.971C218.665 141.046 213.225 138.921 206.17 138.921H186.791L182.626 160.935C192.486 160.595 202.855 160.34 213.65 160.085C216.795 158.13 218.665 154.476 218.665 149.971ZM201.156 157.365H194.951L196.481 148.951H202.855C205.915 148.951 206.85 150.991 206.85 152.606C206.85 155.155 205.065 157.365 201.156 157.365Z" fill="url(#paint1_linear_730_18589)"/>
<path opacity="0.3" d="M86.069 138.921L59.8047 175.045C70.3444 172.07 82.4141 169.605 96.2688 167.65L101.964 138.921H86.069ZM85.644 166.035H77.9942L89.5539 149.801L88.704 153.456L85.644 166.035Z" fill="url(#paint2_linear_730_18589)"/>
<path opacity="0.3" d="M132.393 138.921L121.938 161.615H121.853L121.428 138.921H104.939L99.584 167.14C103.154 166.63 106.809 166.205 110.634 165.78L113.099 152.011H113.184L113.864 165.355C119.303 164.76 124.913 164.25 130.778 163.74L135.878 151.926H135.963L133.583 163.485C137.153 163.23 140.808 162.975 144.463 162.72L149.053 138.836H132.393V138.921Z" fill="url(#paint3_linear_730_18589)"/>
<path opacity="0.3" d="M161.122 154.985L162.142 149.716H181.946L183.901 138.921H152.282L147.777 162.635C157.382 162.04 167.582 161.53 178.292 161.105L179.397 154.985H161.122Z" fill="url(#paint4_linear_730_18589)"/>
<path opacity="0.3" d="M333.752 148.44C336.727 148.44 338.852 149.8 339.192 153.71H350.327C350.242 142.66 343.017 137.9 334.432 137.9C321.428 137.9 314.543 147.845 312.928 159.15H324.657C325.592 153.455 328.482 148.44 333.752 148.44Z" fill="url(#paint5_linear_730_18589)"/>
<path opacity="0.3" d="M224.36 138.921L220.365 160C224.275 159.915 228.185 159.83 232.18 159.83L236.09 139.006H224.36V138.921Z" fill="url(#paint6_linear_730_18589)"/>
<path opacity="0.3" d="M247.735 154.985L248.755 149.716H266.52L268.559 138.921H238.98L235.07 159.745C243.74 159.66 252.75 159.49 262.015 159.405L262.865 154.985H247.735Z" fill="url(#paint7_linear_730_18589)"/>
<path opacity="0.3" d="M270.684 138.921L266.859 159.405C270.769 159.405 274.679 159.32 278.674 159.32L282.499 138.921H270.684Z" fill="url(#paint8_linear_730_18589)"/>
<path opacity="0.3" d="M302.218 138.921L298.394 159.235H310.208L314.033 138.921H302.218Z" fill="url(#paint9_linear_730_18589)"/>
<path opacity="0.3" d="M380.077 138.921L377.272 153.541H366.477L369.282 138.921H357.467L353.728 159.15H388.067L391.892 138.836H380.077V138.921Z" fill="url(#paint10_linear_730_18589)"/>
<path opacity="0.3" d="M422.576 149.716L424.615 138.921H394.696L392.656 149.716H400.221L398.351 159.15H410.166L411.951 149.716H422.576Z" fill="url(#paint11_linear_730_18589)"/>
<defs>
<linearGradient id="paint0_linear_730_18589" x1="342.158" y1="167.395" x2="342.158" y2="143.181" gradientUnits="userSpaceOnUse">
<stop stop-color="white"/>
<stop offset="1" stop-color="white" stop-opacity="0"/>
</linearGradient>
<linearGradient id="paint1_linear_730_18589" x1="200.635" y1="167.396" x2="200.635" y2="143.181" gradientUnits="userSpaceOnUse">
<stop stop-color="white"/>
<stop offset="1" stop-color="white" stop-opacity="0"/>
</linearGradient>
<linearGradient id="paint2_linear_730_18589" x1="80.8862" y1="167.396" x2="80.8862" y2="143.181" gradientUnits="userSpaceOnUse">
<stop stop-color="white"/>
<stop offset="1" stop-color="white" stop-opacity="0"/>
</linearGradient>
<linearGradient id="paint3_linear_730_18589" x1="124.397" y1="167.396" x2="124.397" y2="143.181" gradientUnits="userSpaceOnUse">
<stop stop-color="white"/>
<stop offset="1" stop-color="white" stop-opacity="0"/>
</linearGradient>
<linearGradient id="paint4_linear_730_18589" x1="165.872" y1="167.396" x2="165.872" y2="143.181" gradientUnits="userSpaceOnUse">
<stop stop-color="white"/>
<stop offset="1" stop-color="white" stop-opacity="0"/>
</linearGradient>
<linearGradient id="paint5_linear_730_18589" x1="331.631" y1="167.395" x2="331.631" y2="143.181" gradientUnits="userSpaceOnUse">
<stop stop-color="white"/>
<stop offset="1" stop-color="white" stop-opacity="0"/>
</linearGradient>
<linearGradient id="paint6_linear_730_18589" x1="228.247" y1="167.396" x2="228.247" y2="143.181" gradientUnits="userSpaceOnUse">
<stop stop-color="white"/>
<stop offset="1" stop-color="white" stop-opacity="0"/>
</linearGradient>
<linearGradient id="paint7_linear_730_18589" x1="251.809" y1="167.396" x2="251.809" y2="143.181" gradientUnits="userSpaceOnUse">
<stop stop-color="white"/>
<stop offset="1" stop-color="white" stop-opacity="0"/>
</linearGradient>
<linearGradient id="paint8_linear_730_18589" x1="274.656" y1="167.396" x2="274.656" y2="143.181" gradientUnits="userSpaceOnUse">
<stop stop-color="white"/>
<stop offset="1" stop-color="white" stop-opacity="0"/>
</linearGradient>
<linearGradient id="paint9_linear_730_18589" x1="306.235" y1="167.396" x2="306.235" y2="143.181" gradientUnits="userSpaceOnUse">
<stop stop-color="white"/>
<stop offset="1" stop-color="white" stop-opacity="0"/>
</linearGradient>
<linearGradient id="paint10_linear_730_18589" x1="372.812" y1="167.396" x2="372.812" y2="143.181" gradientUnits="userSpaceOnUse">
<stop stop-color="white"/>
<stop offset="1" stop-color="white" stop-opacity="0"/>
</linearGradient>
<linearGradient id="paint11_linear_730_18589" x1="408.594" y1="167.396" x2="408.594" y2="143.181" gradientUnits="userSpaceOnUse">
<stop stop-color="white"/>
<stop offset="1" stop-color="white" stop-opacity="0"/>
</linearGradient>
</defs>
</svg>
