<svg width="480" height="320" viewBox="0 0 480 320" fill="none" xmlns="http://www.w3.org/2000/svg">
<g clip-path="url(#clip0_730_18577)">
<path d="M385.386 172.674L391.824 183.372C393.819 186.578 397.107 188.033 401.203 188.033H417.766L398.376 164.536L395.625 162.97L388.366 165.339L384.688 170.662L385.386 172.674Z" fill="url(#paint0_linear_730_18577)"/>
<path d="M398.376 164.537L394.328 159.63L383.63 165.384L384.765 171.193L385.386 172.674C385.143 168.738 391.902 164.167 398.376 164.537Z" fill="url(#paint1_linear_730_18577)"/>
<path d="M385.386 172.674L379.598 163.103C378.901 162.018 378.709 161.068 378.709 159.961C378.709 158.743 379.228 158.076 381.222 157.019C383.543 155.907 388.218 155.424 393.037 155.424C400.867 155.424 402.744 157.937 403.544 160.649C403.544 160.649 402.438 160.209 399.838 160.209C391.588 160.209 384.994 164.214 384.994 170.277C384.994 171.549 385.386 172.674 385.386 172.674Z" fill="url(#paint2_linear_730_18577)"/>
<path d="M360.524 131.959H368.31C371.594 131.959 372.941 133.302 374.269 134.62C375.789 136.002 380.4 142.243 390.148 154.423H379.598C375.284 154.423 373.919 153.688 372.251 151.143L360.524 131.959Z" fill="url(#paint3_linear_730_18577)"/>
<path d="M422.618 185.505L423.182 187.53H423.192L423.765 185.505H424.244L424.616 188.04H424.232L423.968 185.972H423.96L423.369 188.04H422.958L422.383 185.98H422.377L422.114 188.04H421.749L422.118 185.505H422.618ZM421.425 185.505V185.831H420.678V188.04H420.309V185.831H419.562V185.505H421.425Z" fill="#334357"/>
<mask id="mask0_730_18577" style="mask-type:luminance" maskUnits="userSpaceOnUse" x="48" y="124" width="380" height="67">
<path d="M48.582 190.633H427.966V124.363H48.582V190.633Z" fill="white"/>
</mask>
<g mask="url(#mask0_730_18577)">
<path d="M238.708 154.443H238.62L234.189 166.969H243.149L238.708 154.443ZM246.638 176.837L244.468 170.684H232.868L230.694 176.837H225.742L236.133 149.449H241.651L251.883 176.837H246.638ZM288.67 148.352H293.514V152.931H288.67V148.352ZM288.724 155.976H293.458V176.837H288.724V155.976ZM253.768 148.35H258.614V152.931H253.768V148.35ZM253.824 155.976H258.558V176.837H253.824V155.976ZM283.556 148.377H278.822V176.837H283.556V148.377ZM268.466 166.664V176.837H263.718V161.336C263.718 159.847 263.548 157.011 263.489 155.98H267.313C267.726 155.98 267.844 156.154 267.856 156.561C267.865 157.177 267.898 159.146 267.898 159.146H268.006C268.379 158.243 269.725 155.542 273.659 155.542C274.976 155.542 275.951 155.968 276.111 156.032C276.111 156.93 276.017 158.901 275.97 159.422C275.941 159.764 275.791 159.876 275.621 159.876C275.459 159.876 275.385 159.839 275.295 159.803C275.001 159.679 274.312 159.469 273.356 159.469C270.829 159.469 268.466 161.293 268.466 166.664ZM311.583 176.837V163.365C311.583 160.793 310.408 159.225 308.205 159.225C305.293 159.225 303.359 162.324 303.359 166.506V176.837H298.623V161.513C298.623 159.826 298.47 157.368 298.391 155.98H302.195C302.625 155.98 302.747 156.156 302.751 156.542C302.764 156.988 302.801 159.146 302.801 159.146H302.909C303.48 158.164 304.938 155.54 309.303 155.54C313.802 155.54 316.317 158.617 316.317 162.071V176.837H311.583ZM324.685 164.263H333.448C333.628 160.901 331.863 159.017 329.199 159.017C326.411 159.017 324.812 161.033 324.685 164.263ZM336.366 172.257C336.63 172.257 336.707 172.487 336.727 172.723C336.808 173.613 336.885 175.625 336.873 176.138C336.367 176.3 333.821 177.235 330.402 177.235C323.762 177.235 319.766 173.8 319.766 166.404C319.766 160.054 323.173 155.542 329.297 155.542C335.309 155.542 338.167 159.563 338.167 164.554C338.167 165.141 338.103 166.133 337.999 167.45H324.625C324.625 171.012 326.894 173.568 331.089 173.568C333.4 173.568 335.238 172.74 335.968 172.387C336.113 172.317 336.198 172.257 336.366 172.257ZM347.457 177.235C353.62 177.235 356.57 174.715 356.57 170.968C356.57 167.28 353.95 165.728 351.174 164.811C350.378 164.554 349.598 164.292 348.87 164.048C346.969 163.419 345.984 162.593 345.984 161.361C345.984 160.061 347.171 159.15 349.635 159.15C351.826 159.15 353.616 160.044 354.325 160.386C354.444 160.44 354.549 160.517 354.738 160.517C354.888 160.517 355.072 160.424 355.097 160.054C355.145 159.355 355.228 158.088 355.228 156.87C354.653 156.607 352.581 155.542 349.247 155.542C344.154 155.542 341.024 158.191 341.024 161.687C341.024 165.077 343.341 166.624 345.891 167.469C346.478 167.668 347.567 168.025 348.204 168.24C350.865 169.124 351.624 169.927 351.624 171.172C351.624 172.796 349.894 173.599 346.917 173.599C344.476 173.599 342.797 172.703 342.123 172.387C341.986 172.327 341.905 172.257 341.717 172.257C341.366 172.257 341.36 172.723 341.356 172.8C341.341 173.024 341.229 175.186 341.229 175.905C341.787 176.146 344.206 177.235 347.457 177.235ZM68.3499 154.443H68.2627L63.8296 166.969H72.7831L68.3499 154.443ZM76.2786 176.837L74.1066 170.684H62.506L60.334 176.837H55.3843L65.7754 149.447H71.2894L81.5209 176.837H76.2786ZM153.655 148.35H158.497V152.928H153.655V148.35ZM153.711 155.976H158.441V176.837H153.711V155.976ZM143.546 166.664V176.837H138.806V161.336C138.806 159.845 138.636 157.009 138.574 155.976H142.399C142.812 155.976 142.934 156.154 142.936 156.559C142.949 157.173 142.986 159.146 142.986 159.146H143.092C143.467 158.243 144.81 155.542 148.745 155.542C150.058 155.542 151.041 155.965 151.203 156.03C151.203 156.928 151.106 158.899 151.06 159.422C151.029 159.762 150.878 159.872 150.709 159.872C150.55 159.872 150.469 159.839 150.382 159.803C150.083 159.677 149.396 159.467 148.448 159.467C145.919 159.467 143.546 161.293 143.546 166.664ZM108.576 176.837V163.49C108.576 161.085 107.56 159.22 105.106 159.22C102.343 159.22 100.749 162.245 100.749 166.481V176.837H96.0175V163.448C96.0175 161.262 95.1047 159.22 92.5655 159.22C89.7628 159.22 88.1945 162.239 88.1945 166.631V176.837H83.4522V161.643C83.4522 159.681 83.2779 156.905 83.2219 155.976H87.0121C87.4394 155.976 87.5805 156.117 87.5888 156.559C87.5991 157.113 87.6323 159.146 87.6323 159.146H87.7402C88.0286 158.55 89.5865 155.54 93.9346 155.54C97.9861 155.54 99.5358 158.447 99.9196 159.343C100.293 158.555 102.092 155.54 106.172 155.54C110.417 155.54 113.313 157.818 113.313 162.394V176.837H108.576ZM121.675 164.259H130.44C130.62 160.903 128.861 159.015 126.191 159.015C123.403 159.015 121.808 161.034 121.675 164.259ZM133.363 172.257C133.622 172.257 133.701 172.487 133.721 172.723C133.802 173.613 133.879 175.628 133.867 176.138C133.363 176.3 130.817 177.235 127.398 177.235C120.756 177.235 116.76 173.796 116.76 166.4C116.76 160.058 120.165 155.542 126.295 155.542C132.3 155.542 135.165 159.561 135.165 164.554C135.165 165.141 135.099 166.133 134.993 167.446H121.619C121.619 171.012 123.89 173.568 128.079 173.568C130.392 173.568 132.234 172.74 132.962 172.383C133.107 172.312 133.19 172.257 133.363 172.257ZM192.759 166.253H191.955C186.005 166.253 184.835 168.321 184.835 170.423C184.835 172.14 185.968 173.767 188.191 173.767C191.146 173.767 192.759 170.914 192.759 167.913V166.253ZM193.9 176.837C193.519 176.837 193.201 176.71 193.16 176.157C193.114 175.476 193.021 174.159 193.021 174.159H192.957C192.677 174.543 190.951 177.235 186.617 177.235C182.466 177.235 180.084 174.036 180.084 170.524C180.084 165.655 184.812 163.21 191.826 163.21H192.759V162.444C192.759 160.26 191.206 159.09 188.301 159.09C185.688 159.09 183.518 160.007 182.673 160.436C182.617 160.463 182.464 160.552 182.323 160.552C182.099 160.552 181.972 160.413 181.96 160.166C181.922 159.382 181.841 157.874 181.829 156.918C182.684 156.592 185.517 155.54 188.635 155.54C194.834 155.54 197.496 158.418 197.496 163.013V171.147C197.496 174.113 197.771 176.055 197.869 176.837H193.9ZM177.535 172.257C177.659 172.257 177.836 172.339 177.877 172.705C177.968 173.698 178.006 175.325 178.01 175.835C177.064 176.302 175.014 177.235 172.5 177.235C166.181 177.235 162.306 173.568 162.306 166.392C162.306 159.668 165.752 155.542 172.5 155.542C174.738 155.542 176.798 156.322 178.01 156.945C178.01 157.687 177.937 159.37 177.877 160.077C177.848 160.374 177.705 160.517 177.535 160.517C177.346 160.517 177.282 160.467 177.17 160.417C175.645 159.67 174.211 159.31 172.921 159.31C168.899 159.31 167.243 161.942 167.243 166.392C167.243 170.358 168.567 173.468 172.921 173.468C174.585 173.468 176.101 172.875 177.041 172.423C177.294 172.304 177.338 172.257 177.535 172.257ZM214.554 176.837V163.365C214.554 160.791 213.38 159.222 211.181 159.222C208.266 159.222 206.329 162.32 206.329 166.506V176.837H201.597V161.513C201.597 159.826 201.443 157.368 201.369 155.976H205.167C205.601 155.976 205.725 156.156 205.727 156.542C205.738 156.984 205.773 159.146 205.773 159.146H205.877C206.453 158.162 207.91 155.538 212.274 155.538C216.78 155.538 219.294 158.617 219.294 162.067V176.837H214.554Z" fill="#334357"/>
</g>
</g>
<defs>
<linearGradient id="paint0_linear_730_18577" x1="384.674" y1="164.741" x2="384.674" y2="187.974" gradientUnits="userSpaceOnUse">
<stop stop-color="#EB2023"/>
<stop offset="0.0963" stop-color="#E92026"/>
<stop offset="0.2039" stop-color="#E31E27"/>
<stop offset="0.2986" stop-color="#E01E26"/>
<stop offset="0.4043" stop-color="#D81F27"/>
<stop offset="0.5" stop-color="#CF2027"/>
<stop offset="0.6" stop-color="#C62127"/>
<stop offset="0.7" stop-color="#B92025"/>
<stop offset="0.8" stop-color="#AE1F23"/>
<stop offset="0.9" stop-color="#A01D22"/>
<stop offset="1" stop-color="#901C1C"/>
</linearGradient>
<linearGradient id="paint1_linear_730_18577" x1="385.319" y1="172.636" x2="398.227" y2="164.369" gradientUnits="userSpaceOnUse">
<stop stop-color="#6C221F"/>
<stop offset="0.2491" stop-color="#7F2620"/>
<stop offset="0.4983" stop-color="#982B24"/>
<stop offset="0.7491" stop-color="#B53125"/>
<stop offset="1" stop-color="#CB3327"/>
</linearGradient>
<linearGradient id="paint2_linear_730_18577" x1="384.305" y1="170.409" x2="403.217" y2="159.467" gradientUnits="userSpaceOnUse">
<stop stop-color="#E7EBEE"/>
<stop offset="0.2491" stop-color="#DFE4E8"/>
<stop offset="0.4983" stop-color="#CAD1D7"/>
<stop offset="0.7491" stop-color="#A8B5BD"/>
<stop offset="1" stop-color="#93A6AD"/>
</linearGradient>
<linearGradient id="paint3_linear_730_18577" x1="373.58" y1="131.966" x2="373.58" y2="154.41" gradientUnits="userSpaceOnUse">
<stop stop-color="#05AEE9"/>
<stop offset="0.0963" stop-color="#00A9E0"/>
<stop offset="0.2039" stop-color="#07A3DC"/>
<stop offset="0.2986" stop-color="#089DD5"/>
<stop offset="0.4043" stop-color="#0A92CC"/>
<stop offset="0.5" stop-color="#0F87C3"/>
<stop offset="0.6" stop-color="#127CB8"/>
<stop offset="0.7" stop-color="#0E70AD"/>
<stop offset="0.8" stop-color="#0F63A3"/>
<stop offset="0.9" stop-color="#135393"/>
<stop offset="1" stop-color="#184485"/>
</linearGradient>
<clipPath id="clip0_730_18577">
<rect width="480" height="320" fill="white"/>
</clipPath>
</defs>
</svg>
