<svg width="480" height="320" viewBox="0 0 480 320" fill="none" xmlns="http://www.w3.org/2000/svg">
<path d="M71.4954 139.369C74.4443 138.268 77.7957 138.302 80.7237 139.459C83.8129 140.663 86.3938 143.095 87.7883 146.101C89.1557 149.002 89.3784 152.419 88.4073 155.476C87.8006 157.44 86.6929 159.231 85.2726 160.709C82.1711 155.575 79.0904 150.427 75.9914 145.289C72.8985 150.429 69.8105 155.571 66.7139 160.709C64.4788 158.426 63.0979 155.312 62.992 152.109C62.8751 149.448 63.6123 146.763 65.0634 144.532C66.5822 142.181 68.8665 140.334 71.4954 139.369Z" fill="#DF422D"/>
<path d="M69.1865 162.685C71.4536 158.91 73.7231 155.138 75.9902 151.365C78.2634 155.135 80.528 158.91 82.7963 162.681C82.3323 162.952 81.8573 163.206 81.376 163.445C79.5803 160.462 77.7871 157.476 75.9914 154.493C74.1933 157.475 72.4025 160.463 70.6056 163.445C70.126 163.204 69.6529 162.95 69.1865 162.685Z" fill="#DF422D"/>
<path d="M55.3848 155.363C56.9774 155.363 58.57 155.359 60.1638 155.365C63.2235 160.838 66.2918 166.309 69.3613 171.778C71.7035 167.606 74.037 163.432 76.3779 159.257C78.7201 163.432 81.0548 167.606 83.3982 171.778C86.4665 166.309 89.5299 160.832 92.5994 155.36C94.1896 155.362 95.7797 155.36 97.3687 155.362C92.7102 163.721 88.0567 172.083 83.3945 180.442C81.0561 176.246 78.7189 172.047 76.3779 167.848C74.0358 172.047 71.6998 176.246 69.3577 180.442C64.6992 172.083 60.0408 163.723 55.3848 155.363H55.3848Z" fill="#DF422D"/>
<path d="M111.687 141.031C111.692 140.88 111.938 140.444 112.005 140.848C116.007 152.342 119.999 163.84 123.995 175.335C122.48 176.773 120.961 178.205 119.442 179.64C118.437 176.472 117.442 173.299 116.435 170.128H107.213C106.197 173.297 105.188 176.466 104.172 179.64C102.826 178.229 101.482 176.808 100.14 175.39C103.985 163.936 107.846 152.488 111.687 141.031ZM109.13 163.803C110.95 163.808 112.769 163.805 114.592 163.803C113.691 160.955 112.79 158.103 111.879 155.26C110.957 158.106 110.042 160.954 109.13 163.803ZM316.511 140.479C320.556 152.096 324.592 163.715 328.632 175.336C327.114 176.769 325.598 178.206 324.078 179.637C323.075 176.469 322.078 173.298 321.075 170.126C317.998 170.126 314.925 170.124 311.852 170.126C310.835 173.296 309.826 176.467 308.808 179.639C307.461 178.222 306.115 176.809 304.776 175.387C308.687 163.752 312.597 152.115 316.511 140.479ZM313.767 163.805C315.587 163.808 317.407 163.805 319.229 163.805C318.328 160.955 317.423 158.103 316.517 155.256C315.596 158.103 314.677 160.954 313.767 163.805ZM229.14 144.886C230.649 143.766 232.161 142.65 233.673 141.533C235.631 149.514 237.577 157.501 239.539 165.483C241.111 159.546 242.67 153.611 244.242 147.675C245.725 153.61 247.191 159.547 248.675 165.485C250.654 157.504 252.627 149.518 254.606 141.536C255.967 142.456 257.324 143.384 258.682 144.31C255.982 156.684 253.276 169.059 250.573 181.432C248.433 175.627 246.285 169.825 244.152 164.019C243.841 164.455 243.715 164.978 243.527 165.474C241.553 170.791 239.58 176.114 237.607 181.433C234.782 169.25 231.965 157.068 229.14 144.886ZM131.208 147.233C133.149 154.305 135.082 161.377 137.026 168.451C138.96 161.382 140.878 154.307 142.814 147.238C144.791 157.755 146.766 168.272 148.742 178.789C147.357 179.04 145.973 179.291 144.588 179.538C143.979 173.692 143.374 167.846 142.765 162C140.833 167.458 138.933 172.928 136.992 178.382C135.089 172.995 133.196 167.605 131.286 162.221C130.678 167.992 130.072 173.766 129.466 179.536C128.077 179.291 126.69 179.04 125.304 178.791C127.27 168.269 129.238 157.75 131.208 147.233ZM204.556 178.352C207.724 167.953 210.891 157.549 214.065 147.148C217.234 157.533 220.398 167.922 223.564 178.31C222.257 178.704 220.948 179.101 219.643 179.495C218.899 176.875 218.167 174.257 217.422 171.639H210.621C209.867 174.254 209.124 176.877 208.375 179.495C207.101 179.111 205.826 178.737 204.556 178.352ZM214.062 159.355C213.388 161.704 212.706 164.055 212.036 166.406C213.377 166.408 214.721 166.408 216.062 166.406C215.399 164.055 214.734 161.704 214.062 159.355ZM379.787 147.15C384.057 153.527 388.315 159.909 392.582 166.285C392.584 160.485 392.58 154.685 392.584 148.886C393.967 148.709 395.352 148.538 396.738 148.363C396.74 159.089 396.74 169.815 396.738 180.542C392.469 174.179 388.211 167.809 383.944 161.445C383.941 167.141 383.945 172.833 383.941 178.528C382.557 178.705 381.172 178.882 379.787 179.056C379.787 168.421 379.786 157.784 379.787 147.15ZM193.02 152.122C194.221 150.403 195.874 148.853 197.965 148.344C199.67 147.912 201.468 148.419 202.941 149.307C203.139 151.676 203.326 154.046 203.529 156.413C202.6 155.203 201.276 154.093 199.673 154.08C197.955 154.033 196.473 155.219 195.576 156.597C194.028 158.967 193.563 161.893 193.677 164.679C193.806 167.214 194.502 169.836 196.184 171.795C197.16 172.936 198.644 173.783 200.189 173.563C201.648 173.358 202.792 172.306 203.638 171.166C203.428 173.578 203.222 175.986 203.026 178.397C201.447 179.378 199.463 179.806 197.661 179.244C195.341 178.549 193.608 176.652 192.437 174.605C190.418 171.034 189.751 166.839 189.893 162.785C190.035 159.057 190.892 155.238 193.02 152.122ZM274.899 151.146C275.779 149.708 277.209 148.525 278.91 148.264C280.167 148.035 281.487 148.334 282.554 149.024C283.884 149.879 284.873 151.157 285.676 152.499C284.824 153.859 283.971 155.226 283.118 156.589C282.535 155.542 281.811 154.446 280.643 154.001C279.465 153.542 278.01 154.15 277.554 155.338C277.012 156.696 277.13 158.535 278.326 159.52C279.466 160.395 280.847 160.892 281.998 161.757C283.757 162.96 284.979 164.86 285.441 166.93C286.015 169.506 285.876 172.257 284.974 174.744C284.366 176.373 283.347 177.941 281.799 178.808C279.986 179.835 277.626 179.67 275.911 178.53C274.51 177.628 273.534 176.214 272.83 174.734C273.693 173.294 274.557 171.858 275.42 170.419C275.884 171.564 276.531 172.723 277.631 173.37C278.543 173.92 279.818 174.007 280.684 173.319C281.505 172.673 281.763 171.571 281.785 170.576C281.818 169.459 281.564 168.226 280.663 167.475C279.46 166.456 277.903 165.992 276.665 165.019C274.845 163.699 273.757 161.557 273.46 159.352C273.084 156.572 273.41 153.578 274.899 151.146ZM414.222 151.048C415.039 149.704 416.344 148.567 417.929 148.282C419.136 148.028 420.42 148.306 421.448 148.981C422.771 149.841 423.729 151.149 424.513 152.497C423.694 153.861 422.872 155.223 422.057 156.589C421.472 155.504 420.731 154.327 419.489 153.939C418.337 153.584 417.057 154.293 416.678 155.416C416.163 156.867 416.35 158.819 417.725 159.74C418.865 160.519 420.155 161.072 421.23 161.954C422.897 163.226 423.957 165.173 424.347 167.218C424.862 169.962 424.656 172.882 423.552 175.461C422.932 176.881 421.951 178.222 420.545 178.94C418.889 179.801 416.789 179.624 415.243 178.605C413.822 177.699 412.861 176.245 412.175 174.737C413.003 173.299 413.83 171.859 414.662 170.423C415.11 171.574 415.737 172.754 416.836 173.402C417.733 173.95 419.018 173.991 419.821 173.234C420.667 172.407 420.827 171.128 420.763 169.998C420.725 169.027 420.379 168.024 419.608 167.395C418.435 166.419 416.939 165.933 415.77 164.95C413.988 163.558 413.002 161.36 412.757 159.148C412.433 156.397 412.765 153.456 414.222 151.048ZM182.636 148.887C183.899 148.709 185.159 148.536 186.422 148.363C186.422 158.416 186.423 168.474 186.422 178.528C185.159 178.705 183.899 178.88 182.637 179.057C182.636 168.998 182.638 158.944 182.636 148.887ZM331.357 148.887C332.741 148.709 334.126 148.536 335.512 148.363C335.514 158.416 335.514 168.471 335.512 178.528C334.127 178.705 332.743 178.88 331.358 179.057C331.354 169 331.358 158.944 331.357 148.887ZM356.675 148.887C358.059 148.709 359.444 148.536 360.831 148.363C360.834 156.618 360.831 164.87 360.832 173.125C363.545 173.127 366.255 173.125 368.969 173.125C368.582 175.011 368.187 176.898 367.797 178.787C364.089 178.79 360.383 178.79 356.677 178.787C356.672 168.819 356.677 158.853 356.675 148.887ZM371.551 148.887C372.936 148.707 374.322 148.535 375.709 148.363C375.711 158.416 375.709 168.471 375.709 178.528C374.324 178.705 372.938 178.88 371.552 179.057C371.551 169 371.555 158.945 371.551 148.887ZM166.694 148.887C169.297 148.753 172.072 148.103 174.552 149.217C176.673 150.166 177.869 152.395 178.313 154.582C178.824 157.182 178.814 159.968 177.852 162.466C177.361 163.742 176.524 164.893 175.399 165.682C176.963 169.584 178.526 173.488 180.088 177.392C178.818 178.007 177.545 178.617 176.274 179.23C174.341 174.065 172.419 168.892 170.483 163.725C170.48 168.658 170.482 173.591 170.482 178.523C169.219 178.702 167.959 178.876 166.696 179.053C166.693 168.998 166.693 158.944 166.694 148.887ZM170.369 154.299C170.368 156.924 170.369 159.552 170.369 162.178C171.421 162.158 172.567 162.328 173.513 161.75C174.733 161.036 175.285 159.565 175.267 158.204C175.273 156.981 174.931 155.605 173.856 154.887C172.839 154.182 171.542 154.294 170.369 154.299ZM339.916 148.887C341.727 148.755 343.538 148.57 345.358 148.587C347.145 148.613 348.992 149.13 350.335 150.357C351.827 151.698 352.565 153.676 352.858 155.618C353.173 157.921 353.086 160.357 352.135 162.51C351.581 163.802 350.651 164.924 349.463 165.683C351.177 169.585 352.891 173.489 354.607 177.393C353.211 178.008 351.817 178.621 350.423 179.234C348.303 174.064 346.191 168.893 344.077 163.722C344.072 168.657 344.077 173.592 344.073 178.525C342.688 178.705 341.304 178.88 339.919 179.057C339.913 168.998 339.917 158.944 339.916 148.887ZM344.073 154.299C344.071 156.924 344.073 159.552 344.073 162.178C345.111 162.158 346.25 162.328 347.173 161.734C348.361 161.005 348.873 159.547 348.863 158.21C348.861 157.01 348.554 155.658 347.52 154.919C346.527 154.19 345.235 154.291 344.073 154.299ZM150.931 148.887C154.285 148.886 157.638 148.887 160.993 148.887C161.251 150.774 161.514 152.661 161.768 154.551C159.419 154.551 157.068 154.549 154.718 154.551V160.604C156.594 160.609 158.474 160.604 160.35 160.606C160.354 162.438 160.354 164.273 160.35 166.107C158.475 166.107 156.597 166.104 154.718 166.107C154.715 168.445 154.718 170.786 154.718 173.126C157.379 173.127 160.04 173.123 162.7 173.127C162.29 175.011 161.883 176.898 161.473 178.786C157.959 178.792 154.444 178.787 150.931 178.787C150.929 168.819 150.931 158.853 150.931 148.887ZM259.88 148.887C263.42 148.886 266.958 148.887 270.497 148.887C270.769 150.774 271.041 152.658 271.311 154.549C268.833 154.551 266.358 154.549 263.88 154.549C263.878 156.568 263.878 158.586 263.88 160.606C265.858 160.606 267.838 160.604 269.816 160.606V166.102C267.838 166.104 265.858 166.104 263.881 166.104C263.878 168.443 263.88 170.785 263.88 173.123C266.685 173.126 269.492 173.123 272.296 173.126C271.865 175.013 271.437 176.898 271.002 178.787C267.297 178.792 263.588 178.79 259.88 178.787C259.879 168.819 259.88 158.853 259.88 148.887ZM287.112 148.885C291.455 148.888 295.801 148.882 300.145 148.886V154.546C298.57 154.551 296.991 154.546 295.417 154.551C295.415 162.541 295.417 170.534 295.417 178.526C294.084 178.705 292.75 178.88 291.417 179.056C291.416 170.887 291.42 162.717 291.416 154.549C289.642 154.549 287.868 154.551 286.093 154.549C286.433 152.659 286.769 150.771 287.112 148.885ZM400.211 148.887C403.576 148.886 406.947 148.887 410.314 148.887C410.573 150.774 410.833 152.661 411.089 154.551C408.729 154.551 406.369 154.549 404.01 154.551C404.006 156.571 404.008 158.587 404.01 160.604C405.893 160.606 407.779 160.604 409.664 160.606C409.667 162.438 409.667 164.273 409.664 166.107C407.78 166.107 405.894 166.104 404.008 166.107C404.008 168.445 404.006 170.786 404.01 173.126C406.682 173.128 409.354 173.126 412.029 173.126C411.621 175.013 411.208 176.899 410.798 178.789C407.269 178.793 403.741 178.791 400.212 178.789C400.211 168.819 400.211 158.853 400.211 148.887Z" fill="#6C9883"/>
</svg>
