<svg width="480" height="320" viewBox="0 0 480 320" fill="none" xmlns="http://www.w3.org/2000/svg">
<path fill-rule="evenodd" clip-rule="evenodd" d="M157.177 263.897C158.582 264.189 160.283 264.393 161.92 264.393C163.17 264.393 164.979 263.905 165.025 261.79C165.096 258.927 157.024 258.63 157.024 253.049C157.024 249.504 160.089 248.083 163.192 248.083C164.954 248.083 166.715 248.304 168.453 248.62V250.795C166.974 250.525 165.495 250.337 163.926 250.337C162.689 250.337 161.227 251.013 161.385 252.542C161.655 255.191 169.804 255.549 169.804 261.329C169.804 263.113 168.993 266.666 162.681 266.666C160.403 266.666 158.468 266.486 157.177 266.268V263.897ZM258.664 263.897C260.083 264.189 261.775 264.393 263.413 264.393C264.662 264.393 266.477 263.905 266.526 261.79C266.589 258.927 258.525 258.63 258.525 253.049C258.525 249.504 261.573 248.083 264.692 248.083C266.453 248.083 268.218 248.304 269.948 248.62V250.795C268.472 250.525 266.99 250.337 265.421 250.337C264.19 250.337 262.725 251.013 262.875 252.542C263.148 255.191 271.299 255.549 271.299 261.329C271.299 263.113 270.491 266.666 264.179 266.666C261.893 266.666 259.963 266.486 258.664 266.268V263.897ZM185.994 251.06H178.039V255.773H184.447V258.248H178.039L178.067 263.787H186.027L185.994 266.254H173.308V248.59H185.994V251.06ZM136.416 266.254L125.634 238.029L114.912 266.254H117.63L123.95 249.946L130.336 266.254H136.416ZM238.225 266.254L227.451 238.029L216.724 266.254H219.442L225.768 249.946L232.145 266.254H238.225ZM245.009 248.59V258.933C245.009 262.259 245.839 263.877 248.235 263.877C250.966 263.877 252.23 262.202 252.23 259.375V248.587H254.697V259.765C254.697 262.3 253.586 266.666 248.016 266.666C243.664 266.666 240.283 264.606 240.266 259.765V248.593H245.009V248.59ZM328.548 263.787H336.511V266.262H323.825V248.59H328.548V263.787ZM344.329 266.254H339.6V248.59H344.329V266.254ZM316.634 266.254H321.377L314.615 248.59H310.598L303.833 266.254H306.259L307.79 262.27H315.106L316.634 266.254ZM308.537 260.316L311.452 252.7L314.361 260.316H308.537ZM360.34 266.254H365.088L358.326 248.59H354.304L347.544 266.254H349.965L351.493 262.27H358.817L360.34 266.254ZM352.246 260.316L355.16 252.7L358.067 260.316H352.246ZM153.302 248.59V266.254H149.872L141.704 254.763V266.254H139.226V248.59H142.679L150.83 260.082V248.59H153.302ZM191.719 251.065H187.503V248.59H200.676V251.065H196.451V266.254H191.719V251.065ZM206.363 251.065H202.141V248.59H215.316V251.065H211.086V266.254H206.363V251.065ZM271.965 248.596H286.927V251.065H281.868V266.268H277.153V251.065H271.965V248.596ZM293.297 258.9V266.254H288.859V248.59H295.744C298.566 248.59 301.783 249.859 302.108 253.096C302.313 255.235 300.94 257.527 298.801 258.237L302.788 266.254H297.622L294.686 258.895L293.297 258.9ZM293.297 257.192H295.106C297.188 257.192 297.652 255.352 297.652 253.489C297.652 251.941 296.721 250.574 294.617 250.574H293.299V257.192H293.297ZM152.415 53.333V231.436H330.516V53.333H152.415Z" fill="#113362"/>
<path fill-rule="evenodd" clip-rule="evenodd" d="M152.415 231.436V53.333L241.491 53.3494L312.464 231.401L152.415 231.436Z" fill="#065CAB"/>
<mask id="mask0_730_18441" style="mask-type:luminance" maskUnits="userSpaceOnUse" x="169" y="53" width="144" height="179">
<path d="M169.083 231.404L241.491 53.3223L312.464 231.401L267.211 231.355L228.496 109.36L179.756 231.404H169.083Z" fill="white"/>
</mask>
<g mask="url(#mask0_730_18441)">
<mask id="mask1_730_18441" style="mask-type:luminance" maskUnits="userSpaceOnUse" x="169" y="53" width="144" height="179">
<path d="M169.083 53.3223H312.464V231.407H169.083V53.3223Z" fill="white"/>
</mask>
<g mask="url(#mask1_730_18441)">
<path fill-rule="evenodd" clip-rule="evenodd" d="M168.098 53.333H313.498V231.909H168.098V53.333Z" fill="url(#paint0_linear_730_18441)"/>
</g>
</g>
<path fill-rule="evenodd" clip-rule="evenodd" d="M271.545 159.542L259.677 180.639L281.499 191.112L257.608 194.985L263.019 218.584L245.096 202.309L230.025 221.261L231.566 197.1L207.358 197.127L227.206 183.27L212.088 164.364L235.305 171.246L240.659 147.636L249.749 170.073L271.545 159.542Z" fill="white"/>
<defs>
<linearGradient id="paint0_linear_730_18441" x1="240.796" y1="53.3316" x2="240.796" y2="231.909" gradientUnits="userSpaceOnUse">
<stop offset="0.4451" stop-color="#FEC766"/>
<stop offset="0.5125" stop-color="#F9C469"/>
<stop offset="0.5837" stop-color="#ECBD6F"/>
<stop offset="0.6567" stop-color="#DAB079"/>
<stop offset="0.731" stop-color="#BFA084"/>
<stop offset="0.8062" stop-color="#9F8E8F"/>
<stop offset="0.8822" stop-color="#787A99"/>
<stop offset="0.9574" stop-color="#4566A3"/>
<stop offset="1" stop-color="#0D5CAA"/>
</linearGradient>
</defs>
</svg>
