<svg width="480" height="320" viewBox="0 0 480 320" fill="none" xmlns="http://www.w3.org/2000/svg">
<path d="M197.638 167.629L197.612 174.292L197.638 183.193H208.577L202.027 138.718H186.683L180.133 183.193H191.073V167.626L194.356 146.981L197.638 167.629ZM217.367 138.718H228.304V183.193H217.367V138.718ZM234.946 138.718H245.886V183.193H234.946V138.718Z" fill="#282A74"/>
<path d="M226.235 154.272H237.016V163.161H226.235V154.272ZM322.754 138.718H333.691V183.193H322.754V138.718ZM340.33 138.718H351.27V183.193H340.33V138.718Z" fill="#282A74"/>
<path d="M331.622 154.272H342.402V163.161H331.622V154.272ZM260.218 138.718H271.155V183.193H260.218V138.718Z" fill="#282A74"/>
<path d="M253.679 138.718H277.692V145.864H253.679V138.718ZM188.732 167.82H199.979V174.403H188.732V167.82ZM310.246 141.466C307.498 138.235 303.649 137.139 299.454 137.139C295.597 137.139 291.744 138.294 289.166 141.403C286.319 144.814 285.591 149.204 285.591 153.773V165.78C285.591 167.733 285.762 171.627 286.651 174.796C288.719 182.352 295.312 183.939 299.342 183.939C301.965 183.939 306.893 183.512 310.3 179.493C312.867 176.444 313.815 172.425 313.815 166.145V155.298C313.816 148.107 312.534 144.148 310.246 141.466ZM303.666 169.617C303.666 173.123 303.666 177.727 299.705 177.727C296.423 177.727 295.737 173.196 295.737 169.617V151.31C295.737 149.268 295.737 143.352 299.792 143.352C303.666 143.352 303.666 147.719 303.666 151.31V169.617ZM384.84 141.466C382.093 138.235 378.245 137.139 374.049 137.139C370.191 137.139 366.336 138.294 363.762 141.403C360.914 144.814 360.185 149.204 360.185 153.773V165.78C360.185 167.733 360.356 171.627 361.245 174.796C363.314 182.352 369.906 183.939 373.939 183.939C376.56 183.939 381.485 183.512 384.893 179.493C387.46 176.444 388.407 172.425 388.407 166.145V155.298C388.407 148.107 387.125 144.148 384.84 141.466ZM378.261 169.617C378.261 173.123 378.261 177.727 374.3 177.727C371.018 177.727 370.331 173.196 370.331 169.617V151.31C370.331 149.268 370.331 143.352 374.386 143.352C378.26 143.352 378.26 147.719 378.26 151.31V169.617H378.261ZM397.278 138.745H410.425C413.853 138.745 417.168 138.989 419.454 140.561C422.388 142.56 423.745 146.315 423.745 150.011C423.745 155.4 421.355 158.853 418.253 159.641V159.941C420.918 160.364 424.616 163.576 424.616 170.11C424.616 173.383 424.183 176.714 421.515 179.681C418.635 182.952 415.213 183.192 410.159 183.192H397.278V138.745ZM408.215 156.854C415.224 156.854 415.104 156.614 415.104 150.98C415.104 145.591 411.569 145.86 409.776 145.86H408.215V156.854ZM408.215 176.171H410.158C413.631 176.171 415.809 174.356 415.809 169.814C415.809 167.697 415.323 165.214 413.254 164.243C412 163.695 411.315 163.695 408.217 163.695V176.171H408.215ZM151.056 122.957C136.395 112.472 110.273 113.313 88.9951 126.036C78.1002 132.548 65.2813 143.683 58.7934 157.065C52.1736 170.722 55.7129 187.873 64.9556 195.674C78.1015 206.772 103.114 204.281 119.552 196.265C135.848 188.319 148.404 176.829 155.437 164.76C160.871 155.435 166.354 133.901 151.056 122.957ZM136.96 179.921L134.234 187.264L128.441 191.068L125.473 188.685C125.473 188.685 114.562 195.316 97.0483 196.738C79.6549 198.16 63.2901 187.161 63.2901 171.276C63.2901 158.921 69.1661 145.448 85.44 133.968C105.628 119.726 139.158 116.544 150.579 137.64C161.701 158.181 136.96 179.921 136.96 179.921Z" fill="#282A74"/>
<path d="M106.18 114.004C103.362 115.305 100.833 116.81 97.0836 117.492C97.0836 117.492 95.9192 139.783 92.2678 156.243L69.5957 156.323C69.5957 170.949 75.9399 189.05 82.3381 189.05C88.4568 189.05 92.3522 176.115 94.5148 164.505H101.114L101.033 173.52H106.64L106.556 164.505H111.163V173.499H116.644V164.505H121.586C122.764 186.856 126.303 199.474 131.681 205.997C137.761 198.046 141.73 179.743 141.73 156.076L126.944 156.119C126.882 152.648 126.862 149.343 126.862 146.607H121.13C121.13 149.967 121.222 153.113 121.296 156.16H116.642V146.611H111.163V156.202H106.512L106.18 114.004ZM101.404 129.328L101.165 156.233L96.7526 156.241C99.8977 142.95 101.404 129.328 101.404 129.328ZM74.9496 164.504H90.0274C89.0133 169.857 86.5078 179.453 82.2115 179.453C76.2129 179.453 74.9496 164.504 74.9496 164.504ZM127.235 164.504H136.25C136.25 171.522 134.335 183.806 131.681 188.925C128.88 185.146 127.725 174.832 127.235 164.504Z" fill="#282A74"/>
</svg>
