<svg width="480" height="320" viewBox="0 0 480 320" fill="none" xmlns="http://www.w3.org/2000/svg">
<path d="M295.007 243.139H322.504L376.418 147.245L345.376 243.139H383.497L416.173 110.223H369.336L341.839 161.339L355.723 110.223H311.071L290.917 143.933L292.112 205.9L318.966 149.461L295.007 243.139Z" fill="#003E68"/>
<path d="M158.311 90.0487C193.053 105.437 213.178 96.1411 237.818 99.7179C257.493 102.57 276.213 106.626 290.916 127.07L306.707 99.7179C354.092 98.6102 405.075 101.098 419.712 93.9165L424.615 77.0574C407.732 83.9638 343.813 84.9335 298.95 83.831L287.654 101.651C279.756 95.6427 265.502 87.6049 240.815 84.2388C218.489 81.2045 195.153 89.4673 167.568 76.7832L158.311 90.0487Z" fill="#E2001A"/>
<path d="M232.919 243.216C196.447 243.216 166.878 213.208 166.878 176.189C166.878 139.177 196.447 109.171 232.919 109.171C269.393 109.171 298.961 139.177 298.961 176.189C298.96 213.209 269.393 243.216 232.919 243.216ZM266.467 176.19C266.467 157.388 251.448 142.145 232.919 142.145C214.392 142.145 199.372 157.39 199.372 176.19C199.372 195 214.393 210.242 232.919 210.242C251.448 210.242 266.467 195 266.467 176.19Z" fill="#003E68"/>
<path d="M191.806 110.223L159.128 243.139H123.186L128.359 228.771H102.764L93.2322 243.139H55.3846L144.976 110.223H191.806ZM153.413 148.079L119.917 201.128H137.075L153.413 148.079Z" fill="#003E68"/>
</svg>
