<svg width="480" height="320" viewBox="0 0 480 320" fill="none" xmlns="http://www.w3.org/2000/svg">
<path d="M165.647 180.048H163.326C163.254 180.046 163.184 180.067 163.127 180.109C163.069 180.151 163.028 180.211 163.01 180.278L157.152 196.441C157.152 196.625 157.152 196.717 157.31 196.717H159.758C159.839 196.721 159.919 196.695 159.98 196.643C160.042 196.592 160.081 196.519 160.089 196.441L161.242 193.233H167.668L168.805 196.441C168.868 196.625 168.979 196.717 169.137 196.717H171.6C171.789 196.717 171.837 196.625 171.789 196.441L165.979 180.278C165.955 180.211 165.911 180.152 165.851 180.111C165.792 180.07 165.72 180.048 165.647 180.048ZM162.126 190.639L164.431 184.177H164.51L166.768 190.639H162.126ZM183.221 189.58C184.173 189.257 185 188.657 185.589 187.861C186.174 187.013 186.477 186.011 186.458 184.99C186.466 184.301 186.332 183.618 186.063 182.98C185.777 182.405 185.386 181.885 184.911 181.445C184.406 181.01 183.822 180.672 183.189 180.447C182.492 180.197 181.754 180.072 181.01 180.079H174.395C174.205 180.079 174.11 180.186 174.11 180.309V196.441C174.105 196.478 174.109 196.516 174.121 196.552C174.134 196.588 174.155 196.62 174.182 196.647C174.21 196.674 174.243 196.694 174.28 196.706C174.317 196.718 174.356 196.722 174.395 196.717H176.842C177 196.717 177.095 196.625 177.095 196.441V190.163C177.095 190.143 177.099 190.124 177.107 190.106C177.115 190.088 177.127 190.072 177.142 190.059C177.157 190.046 177.174 190.037 177.193 190.031C177.212 190.025 177.233 190.023 177.253 190.025H180.189L183.474 196.487C183.495 196.568 183.544 196.639 183.613 196.689C183.682 196.74 183.767 196.766 183.853 196.763H186.663C186.702 196.763 186.739 196.753 186.773 196.734C186.806 196.715 186.833 196.688 186.853 196.656C186.867 196.622 186.875 196.585 186.875 196.548C186.875 196.511 186.867 196.475 186.853 196.441L183.221 189.58ZM180.9 187.354H177.253C177.142 187.354 177.095 187.354 177.095 187.231V182.765C177.095 182.765 177.095 182.642 177.253 182.642H180.9C181.595 182.613 182.276 182.838 182.81 183.271C183.044 183.495 183.228 183.763 183.35 184.059C183.472 184.355 183.531 184.672 183.521 184.99C183.531 185.314 183.473 185.636 183.351 185.936C183.229 186.237 183.045 186.511 182.81 186.74C182.271 187.162 181.592 187.38 180.9 187.354ZM192.695 180.294V196.425C192.695 196.609 192.695 196.702 192.442 196.702H189.963C189.805 196.702 189.726 196.609 189.726 196.425V180.294C189.726 180.125 189.726 180.033 189.963 180.033H192.442C192.616 180.033 192.695 180.125 192.695 180.294ZM203.542 180.048H201.237C201.163 180.045 201.091 180.066 201.03 180.108C200.97 180.15 200.926 180.21 200.905 180.278L195.047 196.441C195.047 196.625 195.047 196.717 195.205 196.717H197.653C197.734 196.721 197.814 196.695 197.876 196.643C197.937 196.592 197.976 196.519 197.984 196.441L199.137 193.233H205.563L206.716 196.441C206.724 196.517 206.761 196.587 206.819 196.638C206.877 196.689 206.953 196.717 207.032 196.717H209.495C209.684 196.717 209.732 196.625 209.684 196.441L203.874 180.278C203.853 180.21 203.809 180.15 203.749 180.108C203.689 180.066 203.616 180.045 203.542 180.048ZM200.021 190.639L202.311 184.177L204.569 190.639H200.021ZM224.795 180.294V196.425C224.8 196.463 224.797 196.501 224.784 196.537C224.772 196.573 224.751 196.605 224.723 196.632C224.696 196.659 224.662 196.679 224.626 196.691C224.589 196.703 224.549 196.707 224.511 196.702H222.221C222.133 196.705 222.047 196.68 221.975 196.63C221.903 196.579 221.851 196.508 221.827 196.425L214.816 185.006H214.706V196.425C214.706 196.609 214.627 196.702 214.453 196.702H212.258C212.084 196.702 212.005 196.609 212.005 196.425V180.294C212.005 180.125 212.084 180.033 212.258 180.033H214.563C214.654 180.033 214.744 180.058 214.821 180.104C214.899 180.15 214.963 180.215 215.006 180.294L221.985 191.79H222.127V180.294C222.127 180.125 222.127 180.033 222.363 180.033H224.542C224.578 180.03 224.614 180.036 224.648 180.048C224.681 180.06 224.712 180.079 224.737 180.104C224.763 180.129 224.783 180.159 224.795 180.191C224.808 180.224 224.813 180.259 224.811 180.294H224.795ZM235.627 180.048H233.337C233.264 180.045 233.191 180.066 233.131 180.108C233.071 180.15 233.027 180.21 233.006 180.278L227.148 196.441C227.148 196.625 227.148 196.717 227.306 196.717H229.753C229.834 196.721 229.914 196.695 229.976 196.643C230.038 196.592 230.077 196.519 230.085 196.441L231.237 193.233H237.664L238.816 196.441C238.824 196.517 238.861 196.587 238.919 196.638C238.978 196.689 239.054 196.717 239.132 196.717H241.595C241.785 196.717 241.832 196.625 241.785 196.441L235.974 180.278C235.953 180.21 235.909 180.15 235.849 180.108C235.789 180.066 235.716 180.045 235.643 180.048H235.627ZM232.121 190.639L234.411 184.177H234.49L236.748 190.639H232.121ZM257.116 180.048H254.811C254.737 180.045 254.665 180.066 254.605 180.108C254.545 180.15 254.501 180.21 254.48 180.278L248.622 196.441C248.622 196.625 248.622 196.717 248.78 196.717H251.243C251.321 196.717 251.397 196.689 251.456 196.638C251.514 196.587 251.551 196.517 251.558 196.441L252.711 193.233H259.138L260.29 196.441C260.298 196.517 260.335 196.587 260.393 196.638C260.451 196.689 260.527 196.717 260.606 196.717H263.069C263.259 196.717 263.306 196.625 263.259 196.441L257.448 180.278C257.43 180.211 257.389 180.151 257.332 180.109C257.274 180.067 257.204 180.046 257.132 180.048H257.116ZM253.706 190.639L255.995 184.177L258.253 190.639H253.706ZM276.932 180.294V182.381C276.932 182.565 276.838 182.642 276.68 182.642H268.785C268.674 182.642 268.611 182.642 268.611 182.78V187.093C268.609 187.116 268.612 187.139 268.619 187.161C268.627 187.182 268.64 187.202 268.657 187.218C268.673 187.234 268.693 187.247 268.716 187.254C268.738 187.262 268.762 187.264 268.785 187.262H275.401C275.575 187.262 275.653 187.262 275.653 187.492V189.61C275.653 189.749 275.653 189.825 275.401 189.825H268.785C268.762 189.823 268.738 189.826 268.716 189.833C268.693 189.841 268.673 189.853 268.657 189.869C268.64 189.886 268.627 189.905 268.619 189.927C268.612 189.948 268.609 189.971 268.611 189.994V196.502C268.611 196.686 268.532 196.778 268.374 196.778H265.864C265.69 196.778 265.611 196.686 265.611 196.502V180.294C265.611 180.125 265.69 180.033 265.864 180.033H276.601C276.636 180.03 276.671 180.035 276.704 180.048C276.737 180.06 276.767 180.079 276.791 180.105C276.816 180.13 276.834 180.16 276.844 180.192C276.855 180.225 276.858 180.26 276.853 180.294H276.932ZM292.343 187.784V189.211C292.343 189.917 292.343 190.593 292.343 191.253C292.286 191.799 292.175 192.339 292.012 192.864C291.683 194.115 290.897 195.206 289.801 195.934C288.679 196.668 287.347 197.038 285.996 196.993C284.62 197.044 283.262 196.691 282.096 195.98C280.986 195.26 280.187 194.167 279.853 192.91C279.775 192.649 279.696 192.389 279.632 192.143C279.569 191.897 279.538 191.56 279.506 191.237C279.475 190.915 279.506 190.47 279.427 190.025C279.348 189.58 279.427 188.996 279.427 188.336C279.427 187.676 279.427 187.109 279.427 186.663C279.427 186.218 279.427 185.789 279.506 185.436C279.585 185.083 279.506 184.806 279.632 184.545C279.759 184.284 279.775 184.008 279.853 183.747C280.192 182.493 280.989 181.401 282.096 180.677C283.268 179.98 284.622 179.628 285.996 179.664C286.732 179.662 287.466 179.76 288.175 179.956C288.789 180.127 289.375 180.386 289.911 180.723C290.397 181.028 290.825 181.412 291.175 181.859C291.491 182.272 291.756 182.721 291.964 183.195C291.964 183.348 291.964 183.456 291.854 183.517L289.722 184.469C289.661 184.485 289.596 184.481 289.538 184.456C289.48 184.43 289.434 184.386 289.406 184.33C289.08 183.711 288.596 183.182 288.001 182.796C287.398 182.41 286.685 182.221 285.964 182.258C285.216 182.217 284.476 182.422 283.864 182.842C283.317 183.253 282.919 183.823 282.727 184.469C282.727 184.576 282.632 184.76 282.585 184.944C282.538 185.129 282.585 185.389 282.506 185.681C282.486 186.044 282.486 186.408 282.506 186.771C282.506 187.17 282.506 187.676 282.506 188.306C282.506 188.935 282.506 189.38 282.506 189.841C282.506 190.301 282.506 190.608 282.506 190.93C282.519 191.167 282.546 191.403 282.585 191.636C282.585 191.821 282.696 192.02 282.727 192.174C282.933 192.84 283.365 193.418 283.953 193.814C284.541 194.21 285.25 194.4 285.964 194.353C286.675 194.352 287.373 194.167 287.985 193.816C288.562 193.458 288.992 192.915 289.201 192.281C289.292 191.969 289.361 191.651 289.406 191.329C289.461 190.922 289.488 190.512 289.485 190.102C289.485 190.084 289.482 190.067 289.474 190.051C289.467 190.035 289.456 190.02 289.443 190.009C289.429 189.997 289.413 189.989 289.396 189.983C289.379 189.978 289.361 189.977 289.343 189.979H286.517C286.343 189.979 286.264 189.871 286.264 189.703V187.784C286.259 187.75 286.262 187.716 286.272 187.684C286.283 187.652 286.302 187.623 286.326 187.599C286.351 187.575 286.381 187.557 286.414 187.546C286.447 187.536 286.482 187.533 286.517 187.538H292.185C292.185 187.538 292.264 187.615 292.264 187.784H292.343ZM308.417 180.294V196.425C308.417 196.609 308.417 196.702 308.148 196.702H305.685C305.527 196.702 305.448 196.609 305.448 196.425V189.718C305.448 189.718 305.448 189.595 305.275 189.595H298.769C298.659 189.595 298.596 189.595 298.596 189.718V196.425C298.596 196.609 298.517 196.702 298.359 196.702H295.88C295.706 196.702 295.627 196.609 295.627 196.425V180.294C295.627 180.125 295.706 180.033 295.88 180.033H298.359C298.517 180.033 298.596 180.125 298.596 180.294V186.832C298.593 186.855 298.596 186.878 298.604 186.9C298.612 186.921 298.624 186.941 298.641 186.957C298.658 186.973 298.678 186.986 298.7 186.993C298.722 187.001 298.746 187.004 298.769 187.001H305.275C305.298 187.004 305.322 187.001 305.344 186.993C305.366 186.986 305.386 186.973 305.403 186.957C305.42 186.941 305.432 186.921 305.44 186.9C305.448 186.878 305.451 186.855 305.448 186.832V180.294C305.448 180.125 305.527 180.033 305.685 180.033H308.148C308.209 180.044 308.262 180.077 308.297 180.126C308.333 180.175 308.347 180.235 308.338 180.294H308.417ZM319.249 180.048H316.864C316.791 180.045 316.718 180.066 316.658 180.108C316.598 180.15 316.554 180.21 316.533 180.278L310.675 196.441C310.675 196.625 310.675 196.717 310.833 196.717H313.28C313.361 196.721 313.441 196.695 313.503 196.643C313.565 196.592 313.604 196.519 313.612 196.441L314.764 193.233H321.191L322.343 196.441C322.351 196.517 322.388 196.587 322.446 196.638C322.505 196.689 322.581 196.717 322.659 196.717H325.122C325.312 196.717 325.359 196.625 325.312 196.441L319.501 180.278C319.483 180.208 319.439 180.146 319.379 180.104C319.318 180.062 319.244 180.042 319.17 180.048H319.249ZM315.743 190.639L318.033 184.177H318.112L320.37 190.639H315.743ZM340.517 180.294V196.425C340.522 196.461 340.518 196.498 340.507 196.533C340.495 196.567 340.476 196.599 340.45 196.625C340.425 196.652 340.393 196.672 340.358 196.685C340.324 196.699 340.286 196.704 340.249 196.702H337.959C337.87 196.703 337.782 196.678 337.708 196.628C337.634 196.578 337.579 196.507 337.549 196.425L330.538 185.006H330.428V196.425C330.428 196.609 330.349 196.702 330.191 196.702H327.917C327.743 196.702 327.664 196.609 327.664 196.425V180.294C327.664 180.125 327.664 180.033 327.917 180.033H330.222C330.314 180.032 330.404 180.056 330.482 180.102C330.56 180.148 330.623 180.214 330.665 180.294L337.644 191.79H337.754V180.294C337.754 180.125 337.833 180.033 338.007 180.033H340.186C340.22 180.033 340.254 180.04 340.286 180.053C340.318 180.066 340.346 180.086 340.37 180.11C340.394 180.134 340.412 180.163 340.424 180.195C340.436 180.227 340.44 180.26 340.438 180.294H340.517ZM357.302 180.048H354.981C354.908 180.05 354.837 180.073 354.778 180.114C354.719 180.155 354.674 180.212 354.649 180.278L348.791 196.441C348.791 196.625 348.791 196.717 348.965 196.717H351.412C351.57 196.717 351.68 196.625 351.744 196.441L352.88 193.233H359.323L360.46 196.441C360.523 196.625 360.633 196.717 360.791 196.717H363.238C363.428 196.717 363.491 196.625 363.428 196.441L357.633 180.278C357.604 180.199 357.547 180.131 357.472 180.089C357.397 180.047 357.308 180.032 357.223 180.048H357.302ZM353.781 190.639L356.07 184.177H356.149L358.423 190.639H353.781ZM382.06 189.104C383.028 188.773 383.86 188.145 384.43 187.314C384.999 186.484 385.276 185.496 385.218 184.499C385.23 183.803 385.09 183.113 384.807 182.473C384.54 181.892 384.153 181.369 383.67 180.938C383.16 180.505 382.578 180.157 381.949 179.91C381.246 179.685 380.51 179.571 379.77 179.572H373.139C372.949 179.572 372.87 179.572 372.87 179.803V196.026C372.87 196.21 372.949 196.303 373.139 196.303H375.602C375.76 196.303 375.839 196.21 375.839 196.026V189.703C375.836 189.68 375.839 189.657 375.847 189.635C375.855 189.614 375.867 189.594 375.884 189.578C375.901 189.562 375.921 189.549 375.943 189.542C375.965 189.534 375.989 189.531 376.012 189.534H378.949L382.218 196.026C382.245 196.107 382.297 196.178 382.368 196.227C382.439 196.277 382.525 196.303 382.612 196.303H385.407C385.502 196.303 385.549 196.303 385.612 196.195C385.641 196.116 385.641 196.029 385.612 195.949L382.06 189.104ZM379.739 186.878H376.091C375.981 186.878 375.918 186.878 375.918 186.725V182.366C375.915 182.343 375.918 182.32 375.926 182.298C375.934 182.277 375.946 182.257 375.963 182.241C375.98 182.225 376 182.212 376.022 182.205C376.044 182.197 376.068 182.195 376.091 182.197H379.739C380.438 182.178 381.119 182.414 381.649 182.857C381.885 183.082 382.07 183.353 382.192 183.652C382.314 183.95 382.371 184.27 382.36 184.591C382.363 184.916 382.297 185.237 382.166 185.535C382.036 185.834 381.844 186.103 381.602 186.326C381.054 186.755 380.363 186.973 379.66 186.94L379.739 186.878ZM368.875 180.232V196.425C368.875 196.609 368.875 196.702 368.623 196.702H366.144C365.986 196.702 365.907 196.609 365.907 196.425V180.294C365.907 180.125 365.986 180.033 366.144 180.033H368.623C368.717 180.033 368.796 180.125 368.796 180.294L368.875 180.232ZM399.365 194.276V196.364C399.365 196.548 399.27 196.64 399.113 196.64H388.376C388.202 196.64 388.123 196.548 388.123 196.364V180.294C388.123 180.125 388.123 180.033 388.376 180.033H390.855C391.012 180.033 391.091 180.125 391.091 180.294V193.969C391.091 194.077 391.091 194.092 391.265 194.092H399.16C399.205 194.115 399.242 194.151 399.265 194.195C399.288 194.239 399.295 194.289 399.286 194.338L399.365 194.276ZM404.828 180.232V196.425C404.828 196.609 404.749 196.702 404.591 196.702H402.097C401.939 196.702 401.86 196.609 401.86 196.425V180.294C401.86 180.125 401.939 180.033 402.097 180.033H404.591C404.67 180.033 404.749 180.125 404.749 180.294L404.828 180.232ZM421.392 180.232V196.425C421.396 196.461 421.393 196.498 421.381 196.533C421.37 196.567 421.35 196.599 421.325 196.625C421.299 196.652 421.268 196.672 421.233 196.685C421.198 196.699 421.161 196.704 421.123 196.702H418.834C418.744 196.703 418.656 196.678 418.583 196.628C418.509 196.578 418.453 196.507 418.423 196.425L411.413 185.006H411.318V196.425C411.318 196.609 411.223 196.702 411.065 196.702H408.855C408.697 196.702 408.618 196.609 408.618 196.425V180.294C408.618 180.125 408.697 180.033 408.855 180.033H411.176C411.267 180.033 411.356 180.058 411.434 180.104C411.512 180.15 411.575 180.215 411.618 180.294L418.597 191.79H418.692V180.294C418.687 180.26 418.69 180.225 418.701 180.192C418.711 180.16 418.73 180.13 418.754 180.105C418.778 180.079 418.808 180.06 418.841 180.048C418.874 180.035 418.909 180.03 418.944 180.033H421.076C421.109 180.035 421.142 180.043 421.171 180.057C421.201 180.071 421.228 180.091 421.25 180.115C421.272 180.14 421.289 180.168 421.3 180.198C421.31 180.229 421.315 180.261 421.313 180.294L421.392 180.232ZM436.392 180.232V182.32C436.392 182.504 436.392 182.581 436.155 182.581H428.26C428.15 182.581 428.086 182.581 428.086 182.719V186.771C428.084 186.794 428.087 186.817 428.095 186.838C428.102 186.86 428.115 186.879 428.132 186.896C428.148 186.912 428.169 186.924 428.191 186.932C428.213 186.939 428.237 186.942 428.26 186.94H434.876C435.034 186.94 435.129 187.016 435.129 187.201V189.288C435.134 189.322 435.131 189.356 435.12 189.388C435.11 189.42 435.091 189.449 435.067 189.473C435.042 189.497 435.012 189.515 434.979 189.526C434.946 189.536 434.91 189.539 434.876 189.534H428.26C428.15 189.534 428.086 189.534 428.086 189.656V193.908C428.086 194.016 428.086 194.031 428.26 194.031H436.155C436.188 194.028 436.221 194.033 436.253 194.045C436.284 194.056 436.312 194.074 436.334 194.098C436.357 194.122 436.374 194.15 436.384 194.181C436.394 194.212 436.397 194.244 436.392 194.276V196.364C436.392 196.548 436.313 196.64 436.155 196.64H425.418C425.244 196.64 425.165 196.548 425.165 196.364V180.294C425.165 180.125 425.165 180.033 425.418 180.033H436.155C436.234 180.033 436.313 180.125 436.313 180.294L436.392 180.232ZM451.376 191.759C451.383 192.46 451.244 193.154 450.966 193.801C450.695 194.432 450.279 194.994 449.75 195.443C449.152 195.918 448.466 196.278 447.729 196.502C446.82 196.779 445.871 196.914 444.918 196.901C444.298 196.9 443.68 196.843 443.071 196.732C442.439 196.609 441.871 196.441 441.318 196.287C440.8 196.084 440.299 195.843 439.818 195.566C439.389 195.314 438.987 195.021 438.618 194.691C438.492 194.568 438.46 194.43 438.618 194.323L440.197 192.573C440.339 192.45 440.45 192.419 440.56 192.573C440.849 192.795 441.155 192.995 441.476 193.171C441.823 193.41 442.2 193.606 442.597 193.755C442.986 193.945 443.401 194.079 443.829 194.154C444.284 194.259 444.75 194.311 445.218 194.307C446.073 194.368 446.923 194.134 447.618 193.647C447.881 193.44 448.093 193.178 448.238 192.88C448.383 192.583 448.457 192.257 448.455 191.928C448.467 191.639 448.412 191.351 448.295 191.086C448.177 190.82 448 190.583 447.776 190.393C447.051 189.912 446.205 189.631 445.329 189.58L444.429 189.472C443.02 189.329 441.683 188.797 440.576 187.937C440.126 187.524 439.775 187.02 439.546 186.46C439.316 185.901 439.216 185.3 439.25 184.699C439.236 183.988 439.376 183.282 439.66 182.627C439.923 182.034 440.322 181.509 440.829 181.092C441.361 180.635 441.984 180.29 442.66 180.079C443.436 179.84 444.247 179.726 445.06 179.741C446.092 179.729 447.119 179.869 448.108 180.156C448.992 180.442 449.828 180.856 450.587 181.383C450.637 181.432 450.665 181.499 450.665 181.568C450.665 181.637 450.637 181.703 450.587 181.752L449.387 183.548C449.368 183.576 449.343 183.6 449.312 183.616C449.282 183.632 449.248 183.641 449.213 183.641C449.178 183.641 449.144 183.632 449.114 183.616C449.083 183.6 449.058 183.576 449.039 183.548C448.403 183.15 447.719 182.83 447.002 182.596C446.336 182.354 445.629 182.234 444.918 182.243C444.194 182.197 443.48 182.428 442.929 182.888C442.706 183.081 442.528 183.317 442.406 183.582C442.283 183.846 442.22 184.133 442.218 184.423C442.206 184.714 442.264 185.005 442.388 185.271C442.511 185.538 442.696 185.772 442.929 185.957C443.657 186.441 444.51 186.718 445.392 186.756L446.292 186.894C447.693 187.011 449.022 187.547 450.097 188.429C450.539 188.875 450.876 189.41 451.083 189.996C451.291 190.581 451.364 191.204 451.297 191.821L451.376 191.759Z" fill="#197EF2"/>
<path d="M453.102 157.516C453.105 157.923 453.068 158.329 452.991 158.729C452.904 159.525 452.685 160.302 452.344 161.031C452.02 161.495 451.632 161.913 451.191 162.274C448.999 164.052 446.677 165.673 444.244 167.125C439.886 170.025 436.997 171.484 435.623 171.484C433.128 171.484 431.865 169.857 431.865 166.633C431.883 164.065 432.419 161.526 433.444 159.158C433.665 158.591 433.839 158.33 433.965 158.33C434.091 158.33 433.965 158.33 433.965 158.514C433.929 158.784 433.87 159.051 433.791 159.312C433.174 161.167 432.797 163.091 432.67 165.037C432.636 165.453 432.702 165.871 432.864 166.257C433.026 166.644 433.278 166.988 433.602 167.263C433.849 167.492 434.142 167.672 434.462 167.791C434.782 167.909 435.123 167.964 435.465 167.953C437.044 167.953 440.202 166.526 444.67 163.656L449.549 160.586C450.334 160.077 451.083 159.518 451.791 158.913C452.001 158.744 452.146 158.512 452.202 158.253C452.202 157.961 451.87 157.562 451.239 157.086C450.073 156.283 448.824 155.599 447.512 155.045C446.079 154.4 444.687 153.672 443.344 152.865C441.702 151.728 440.27 150.326 439.112 148.721C438.842 148.434 438.521 148.195 438.165 148.015C437.897 147.877 437.754 147.509 437.754 146.971V144.838C437.753 144.701 437.78 144.566 437.833 144.439C437.928 144.362 438.086 144.439 438.386 144.546L442.112 146.281L442.523 146.48C443.107 146.833 443.344 147.094 443.186 147.248C443.028 147.401 442.286 147.524 441.086 147.463C442.67 148.91 444.496 150.083 446.486 150.931C447.844 151.576 448.934 152.083 449.723 152.466C450.287 152.689 450.818 152.983 451.302 153.341C451.947 153.828 452.451 154.467 452.766 155.199C453.082 155.93 453.197 156.728 453.102 157.516ZM423.907 136.442C423.749 134.278 423.67 133.158 423.67 133.111C423.67 132.789 423.67 132.712 423.86 132.927C424.902 134.032 425.439 134.355 425.439 133.818C425.428 133.575 425.375 133.336 425.281 133.111C425.194 132.701 425.068 132.301 424.902 131.914C424.649 131.362 424.381 130.594 424.002 129.658C423.623 128.722 423.37 128.016 423.149 127.463C423.006 127.081 422.843 126.707 422.66 126.343C422.502 126.036 422.344 126.036 422.202 126.343C421.704 127.26 421.362 128.25 421.191 129.274C421.593 130.141 421.782 131.087 421.744 132.037C421.744 132.544 421.839 134.078 422.012 136.718C422.186 139.358 422.439 143.119 422.77 147.938C423.102 152.758 423.402 156.488 423.56 159.143C423.718 161.798 423.86 163.471 423.86 163.993C423.86 164.515 423.86 165.221 423.86 165.743C423.86 166.265 423.86 166.802 423.718 167.278C423.667 167.701 423.667 168.129 423.718 168.552C423.718 168.767 423.844 168.705 424.017 168.445C424.191 168.184 424.128 168.23 424.207 168.076C424.286 167.923 424.365 167.754 424.475 167.57C425.363 165.269 425.797 162.827 425.754 160.371C425.754 159.491 425.418 154.753 424.744 146.158C424.318 141.799 424.081 138.576 423.907 136.442ZM264.984 134.907C265.142 137.563 265.427 141.292 265.742 146.127C266.058 150.962 266.374 154.677 266.563 157.363C266.753 160.049 266.832 161.645 266.832 162.182C266.832 162.719 266.832 163.395 266.832 163.963C266.832 164.531 266.753 164.991 266.69 165.498C266.617 165.919 266.617 166.35 266.69 166.771C266.69 166.986 266.8 166.925 266.958 166.664C267.116 166.403 267.069 166.449 267.148 166.326C267.227 166.143 267.317 165.964 267.416 165.789C268.303 163.494 268.736 161.057 268.695 158.606C268.695 157.7 268.379 152.988 267.7 144.378C267.4 140.08 267.148 136.857 266.99 134.677C266.832 132.498 266.737 131.392 266.737 131.331C266.737 131.27 266.737 130.963 266.927 131.147C267.969 132.267 268.506 132.59 268.506 132.052C268.489 131.804 268.43 131.561 268.332 131.331C268.25 130.925 268.123 130.528 267.953 130.149C267.716 129.597 267.432 128.845 267.053 127.893L266.137 125.698C265.916 125.161 265.742 124.792 265.632 124.578C265.521 124.363 265.316 124.286 265.174 124.578C264.677 125.501 264.336 126.496 264.163 127.525C264.579 128.388 264.78 129.334 264.748 130.287C264.763 130.702 264.763 132.252 264.984 134.907ZM295.348 155.321C293.412 155.299 291.488 155.015 289.632 154.477L286.364 156.012C285.243 156.518 284.058 157.025 282.874 157.547H282.669C282.572 159.671 281.768 161.707 280.379 163.349C278.047 165.658 275.35 167.591 272.39 169.074C270.516 170.278 268.481 171.228 266.342 171.898C266.2 171.898 264.463 172.297 261.1 173.065L256.79 174.093L254.421 174.538C253.848 174.656 253.268 174.738 252.684 174.784C252.574 174.784 252.511 174.784 252.511 174.784C253.1 174.354 253.755 174.017 254.453 173.786L256.853 172.773C258.211 172.19 260.153 171.391 262.679 170.394C266.121 168.966 268.995 167.631 271.348 166.418C277.948 162.97 281.248 160.53 281.248 159.097C281.249 158.707 281.168 158.32 281.011 157.961C279.98 158.216 278.916 158.324 277.853 158.284C275.058 158.284 273.637 157.347 273.637 155.475C273.621 154.076 274.126 152.719 275.058 151.653C275.378 151.215 275.792 150.851 276.272 150.585C276.752 150.32 277.287 150.161 277.837 150.118C278.316 150.174 278.778 150.326 279.193 150.564C279.609 150.801 279.97 151.12 280.253 151.499C281.104 152.414 281.807 153.449 282.337 154.569C282.478 154.55 282.616 154.514 282.748 154.462L284.327 153.817C284.958 153.587 285.716 153.265 286.648 152.911C286.237 152.143 286.021 151.291 286.016 150.425C286.007 148.822 286.403 147.24 287.169 145.82C287.67 144.858 288.344 143.99 289.158 143.257C289.033 142.408 289.076 141.543 289.285 140.709C289.379 140.371 289.49 140.203 289.585 140.203C289.809 140.245 290.024 140.328 290.216 140.448L293.579 142.137C294.037 142.351 294.258 142.536 294.258 142.72C294.258 142.904 293.958 143.042 293.358 143.042C293.06 143.043 292.763 143.007 292.474 142.935C293.446 143.801 294.504 144.572 295.632 145.237C296.523 145.696 297.364 146.241 298.143 146.864C298.64 147.332 299.03 147.896 299.288 148.52C299.547 149.144 299.667 149.814 299.643 150.486C299.683 151.634 299.428 152.774 298.901 153.802C298.664 154.224 298.329 154.587 297.922 154.861C297.116 155.219 296.231 155.372 295.348 155.306V155.321ZM279.464 154.861C278.674 153.771 277.885 153.218 277.19 153.218C276.132 153.218 275.611 153.51 275.611 154.063C275.611 154.615 276.337 155.045 277.79 155.045C278.069 155.059 278.348 155.059 278.627 155.045L279.464 154.861ZM292.348 148.445C292.312 147.616 292.05 146.811 291.59 146.112C291.069 145.314 290.643 144.915 290.279 144.915C289.916 144.915 289.048 145.391 288.258 146.327C287.568 146.993 287.138 147.872 287.043 148.813C287.07 149.167 287.192 149.508 287.397 149.802C287.602 150.095 287.883 150.331 288.211 150.486C288.816 150.828 289.479 151.061 290.169 151.177C291.606 150.256 292.348 149.397 292.348 148.414V148.445ZM292.537 151.653C293.81 151.983 295.12 152.158 296.437 152.175C298.016 152.175 298.79 151.945 298.79 151.438C298.714 151.029 298.535 150.644 298.269 150.318C297.67 149.7 296.971 149.182 296.201 148.783C295.259 148.317 294.388 147.728 293.611 147.033C293.537 148.613 293.174 150.167 292.537 151.622V151.653ZM261.337 164.193C261.725 163.442 261.951 162.622 262 161.783C262.011 161.296 261.875 160.817 261.608 160.405C261.341 159.993 260.956 159.667 260.5 159.465C259.309 158.95 258.079 158.524 256.821 158.191C257.374 157.771 257.877 157.292 258.321 156.764C258.991 155.652 259.284 154.363 259.158 153.08C259.202 152.308 259.084 151.535 258.811 150.809C258.445 149.994 257.996 149.217 257.469 148.491L256.726 147.417C256.49 147.033 256.237 146.726 256 146.373C255.72 146.038 255.491 145.666 255.321 145.268C255.751 145.4 256.197 145.473 256.648 145.483C257.011 145.483 257.169 145.483 257.169 145.268C257.146 145.089 257.056 144.925 256.916 144.807L253.758 141.983C253.458 141.661 253.237 141.738 253.126 142.183L252.558 144.608C252.558 144.7 252.558 144.807 252.795 144.899C253.014 145.024 253.182 145.22 253.269 145.452C253.458 145.897 253.647 146.327 253.774 146.695C253.938 147.038 254.075 147.392 254.184 147.754C254.931 149.066 255.758 150.332 256.663 151.545C257.233 152.254 257.73 153.015 258.148 153.817C257.104 154.784 255.845 155.504 254.469 155.92C254.105 156.027 252.984 156.334 251.137 156.795C250.916 156.795 250.758 157.086 250.616 157.531C250.474 157.977 250.395 158.284 250.316 158.575C250.237 158.867 250.174 159.128 250.126 159.281C250.073 159.477 250.101 159.685 250.205 159.86C250.308 160.035 250.479 160.164 250.679 160.218C251.626 160.448 252.558 160.709 253.474 160.954C254.39 161.2 255.369 161.43 256.284 161.691C259.016 162.458 260.374 162.996 260.374 163.226C260.374 163.456 259.395 164.178 257.405 165.344C256.269 166.004 255.148 166.618 254.026 167.14C252.918 167.708 251.779 168.221 250.616 168.675C248.275 169.696 245.758 170.279 243.195 170.394C242.059 170.49 240.917 170.313 239.868 169.879C238.819 169.446 237.896 168.769 237.179 167.907C236.131 166.55 235.576 164.892 235.6 163.195C235.79 160.464 236.553 157.8 237.842 155.367C238.026 155.067 238.145 154.732 238.189 154.385C238.788 154.348 239.368 154.164 239.873 153.85C240.379 153.536 240.794 153.102 241.079 152.589C241.698 151.457 242.003 150.187 241.963 148.905C241.927 148.484 241.825 148.07 241.663 147.678C241.442 147.048 241.221 146.711 241 146.711C240.779 146.711 240.842 146.864 240.7 147.094C240.211 148.629 239.974 149.489 239.974 149.565C239.974 149.642 240.068 149.826 240.289 150.041C240.511 150.256 240.653 150.394 240.653 150.471C240.471 150.705 240.23 150.888 239.953 151.004C239.676 151.12 239.373 151.164 239.074 151.131C238.421 151.127 237.793 150.893 237.305 150.471C237.099 150.337 236.925 150.16 236.797 149.953C236.668 149.746 236.589 149.514 236.563 149.274C236.563 149.274 236.705 148.844 236.942 147.892C236.963 147.77 236.963 147.646 236.942 147.524C236.942 147.294 236.942 147.156 236.689 147.156C236.437 147.156 236.389 147.294 236.184 147.493C235.853 147.969 235.553 148.43 235.253 148.905C234.953 149.381 234.653 149.811 234.321 150.287C233.891 150.841 233.336 151.291 232.698 151.603C232.059 151.914 231.356 152.079 230.642 152.083C229.759 152.128 228.882 151.909 228.131 151.453C227.799 151.26 227.528 150.982 227.347 150.649C227.166 150.316 227.082 149.941 227.105 149.565C227.104 149.168 227.173 148.773 227.31 148.399C227.421 148 227.31 147.785 227.01 147.785C226.888 147.798 226.77 147.836 226.663 147.897C226.557 147.958 226.466 148.04 226.395 148.138C225.255 149.295 224.042 150.381 222.763 151.392C221.406 152.288 219.792 152.745 218.152 152.697C217.818 152.725 217.48 152.685 217.162 152.579C216.844 152.473 216.552 152.304 216.305 152.083C215.986 151.713 215.735 151.292 215.563 150.839C215.405 150.44 215.263 150.287 215.137 150.287C215.01 150.287 214.947 150.394 214.837 150.686C214.616 151.453 214.442 152.006 214.316 152.42C214.233 152.666 214.17 152.917 214.126 153.172C214.175 153.509 214.293 153.833 214.473 154.124C215.528 156.051 216.106 158.189 216.163 160.371C215.398 161.469 214.415 162.408 213.273 163.134C211.506 164.597 209.578 165.869 207.526 166.925C205.692 168.041 203.605 168.705 201.447 168.859C200.754 168.866 200.071 168.701 199.461 168.382C198.85 168.063 198.333 167.598 197.958 167.032C197.256 166.078 196.875 164.936 196.868 163.763C196.998 161.827 197.375 159.914 197.989 158.069C198.001 158.029 198.001 157.986 197.989 157.946C199.18 157.9 200.362 157.72 201.51 157.409C203.128 156.908 204.645 156.139 205.994 155.137C207.249 154.331 208.323 153.287 209.152 152.067C209.746 150.954 210.039 149.713 210.005 148.46C209.901 147.508 209.577 146.591 209.058 145.778C208.538 144.965 207.837 144.276 207.005 143.764C205.039 142.389 202.988 141.133 200.863 140.003C199.019 139.053 197.354 137.808 195.936 136.319C196.294 136.4 196.659 136.446 197.026 136.458C197.626 136.458 197.926 136.319 197.926 136.105C197.926 135.89 197.547 135.598 196.805 135.26L193.379 133.725C193.173 133.618 193.157 133.511 193.379 133.357C197.488 130.537 201.904 128.164 206.547 126.281C212.973 123.442 217.047 122.014 218.737 122.014C219.826 122.014 220.316 122.214 220.316 122.644C220.316 122.72 220.316 122.797 220.316 122.828C219.987 123.38 219.595 123.895 219.147 124.363C218.563 125.023 217.805 125.898 216.858 127.018C216.466 127.494 216.128 128.008 215.847 128.553C215.502 129.149 215.216 129.776 214.995 130.425C214.868 131.07 214.805 131.408 214.884 131.408C215.059 131.179 215.207 130.932 215.326 130.671C215.907 129.673 216.601 128.741 217.395 127.893C217.758 127.509 218.073 127.171 218.373 126.803C218.67 126.439 218.992 126.096 219.337 125.775C220.764 124.355 221.664 122.513 221.895 120.541C221.946 120.099 221.821 119.654 221.547 119.298C221.362 119.148 221.148 119.035 220.917 118.967C220.687 118.898 220.445 118.875 220.205 118.898C217.995 118.898 213.494 120.433 206.737 123.35C199.979 126.266 195.684 128.66 193.6 130.425C192.779 131.147 192.368 133.05 192.368 136.181C192.368 136.319 192.557 136.442 192.889 136.58C193.076 136.666 193.251 136.775 193.41 136.903C194.731 138.551 196.271 140.022 197.989 141.277C198.858 141.906 200.658 143.042 203.389 144.669C204.51 145.345 205.505 145.989 206.358 146.603C207.117 147.083 207.835 147.622 208.505 148.215C208.9 148.583 209.089 148.844 209.089 149.013C209.059 149.203 208.971 149.379 208.837 149.519C207.388 151.127 205.589 152.401 203.571 153.248C201.552 154.095 199.365 154.494 197.168 154.416C195.147 154.416 194.136 153.495 194.136 151.576C194.136 151.238 194.136 150.809 194.247 150.333C194.292 150.193 194.324 150.049 194.342 149.903C194.342 149.719 194.247 149.642 194.057 149.642C193.751 149.718 193.45 149.815 193.157 149.934C184.599 153.679 177.542 155.521 171.92 155.521C168.02 155.521 165.162 154.784 163.331 153.357C162.775 152.973 162.316 152.47 161.99 151.888C161.665 151.305 161.48 150.658 161.452 149.995C161.443 149.047 161.593 148.104 161.894 147.202C162.005 146.895 162.131 146.542 162.273 146.204C162.418 145.873 162.545 145.535 162.652 145.191C162.814 144.87 162.905 144.52 162.92 144.163C162.941 144.108 162.941 144.048 162.92 143.994C162.81 143.994 162.573 144.316 162.178 144.93C161.132 146.816 160.589 148.927 160.599 151.07C160.528 152.914 161.151 154.72 162.352 156.15C163.931 158.084 166.741 159.036 170.499 159.036C176.436 159.036 183.857 156.994 192.715 153.004C192.794 153.004 192.826 153.004 192.826 153.004C192.801 153.94 192.978 154.871 193.347 155.736C193.68 156.442 194.232 157.029 194.926 157.415C195.62 157.8 196.42 157.965 197.215 157.885H197.594C196.564 160.25 196.027 162.791 196.015 165.359C195.989 166.815 196.348 168.253 197.057 169.534C197.467 170.368 198.119 171.067 198.933 171.544C199.747 172.021 200.687 172.257 201.636 172.22C204.561 171.986 207.357 170.954 209.705 169.243C210.836 168.522 211.927 167.743 212.973 166.91C213.847 166.219 214.66 165.459 215.405 164.638C216.684 163.18 217.316 160.294 217.316 156.043C217.614 156.119 217.922 156.156 218.231 156.15C219.995 156.094 221.678 155.417 222.968 154.247C223.806 153.487 224.582 152.666 225.289 151.791C225.355 151.692 225.443 151.61 225.547 151.552C225.652 151.493 225.769 151.459 225.889 151.453C225.889 151.453 226.031 151.453 226.079 151.638C226.044 152.537 226.262 153.429 226.71 154.216C227.088 154.69 227.583 155.062 228.149 155.299C228.715 155.535 229.334 155.627 229.947 155.567C231.041 155.537 232.102 155.203 233.006 154.605C233.91 154.006 234.619 153.168 235.047 152.19C235.868 153.725 236.816 154.446 237.858 154.446H237.921C237.71 154.678 237.525 154.93 237.368 155.198C235.386 158.213 234.379 161.737 234.479 165.313C234.398 167.445 235.054 169.542 236.342 171.269C237.108 172.197 238.095 172.93 239.217 173.406C240.339 173.882 241.563 174.086 242.784 174.001C245.787 173.737 248.707 172.897 251.374 171.53C254.221 170.421 256.861 168.866 259.19 166.925C260.086 166.151 260.816 165.212 261.337 164.162V164.193ZM252.132 136.672C251.015 137.048 249.953 137.564 248.974 138.207C248.974 138.207 249.195 138.33 249.574 138.33C250.438 138.313 251.297 138.194 252.132 137.977L253.711 137.639C254.074 137.639 254.642 137.025 255.432 135.828C256.002 135.109 256.401 134.275 256.6 133.388C256.6 132.789 255.905 132.39 254.516 132.283C253.126 132.175 252.432 131.945 252.432 131.546C252.432 131.147 252.716 131.039 253.253 130.564C253.55 130.248 253.925 130.01 254.342 129.873C254.563 129.873 254.674 129.95 254.721 130.088C254.742 130.157 254.786 130.217 254.846 130.258C254.906 130.3 254.979 130.321 255.053 130.318C255.353 130.318 255.621 130.026 255.905 129.443C256.102 128.991 256.209 128.506 256.221 128.016C256.221 127.463 255.953 127.171 255.384 127.171C254.816 127.171 253.805 127.862 252.621 129.259C251.556 130.401 250.888 131.84 250.711 133.372C250.699 133.668 250.785 133.96 250.955 134.206C251.125 134.451 251.372 134.638 251.658 134.738C251.901 134.852 252.163 134.92 252.432 134.938C252.782 134.995 253.135 135.031 253.49 135.045C253.814 135.036 254.139 135.072 254.453 135.153C254.453 135.445 253.711 135.936 252.132 136.672ZM418.981 126.588C418.291 126.689 417.624 126.902 417.007 127.218C415.812 127.813 414.551 128.277 413.249 128.599C412.001 128.944 410.709 129.115 409.412 129.105C408.439 129.109 407.471 128.974 406.538 128.706C405.644 128.458 404.803 128.052 404.059 127.509C403.937 127.426 403.82 127.333 403.712 127.233L403.412 127.003C403.049 127.003 402.812 127.402 402.702 128.246C402.919 128.51 403.119 128.787 403.302 129.075C403.488 129.305 403.652 129.551 403.791 129.811C403.94 130.063 404.041 130.339 404.091 130.625C404.172 130.977 404.21 131.338 404.202 131.699C404.202 132.175 404.28 132.405 404.391 132.405C404.58 132.175 404.73 131.915 404.833 131.638C404.942 131.408 405.022 131.166 405.07 130.917C405.117 130.756 405.117 130.586 405.07 130.425C405.056 130.282 405.056 130.139 405.07 129.996C405.672 130.294 406.316 130.506 406.981 130.625C407.661 130.761 408.354 130.828 409.049 130.825C410.532 130.815 412.007 130.619 413.438 130.241C414.981 129.827 416.477 129.267 417.907 128.568L418.317 128.399H418.617H418.965C419.093 128.46 419.194 128.563 419.249 128.691C419.084 128.902 418.899 129.097 418.696 129.274L418.428 129.551C418.36 129.589 418.301 129.642 418.254 129.704C417.894 130.114 417.567 130.55 417.275 131.009C417.015 131.441 416.833 131.913 416.738 132.405C416.865 132.482 417.149 132.221 417.575 131.607C417.748 131.398 417.933 131.198 418.128 131.009C418.349 130.732 418.649 130.425 418.996 129.996C419.347 129.618 419.649 129.201 419.896 128.752C420.07 128.414 420.161 128.041 420.165 127.663C420.189 127.504 420.172 127.341 420.116 127.19C420.059 127.039 419.964 126.904 419.841 126.797C419.717 126.69 419.567 126.615 419.406 126.579C419.245 126.542 419.077 126.546 418.917 126.588H418.981ZM308.201 160.509C308.295 160.509 308.39 160.509 308.501 160.371C309.073 159.66 309.482 158.838 309.701 157.961C309.701 157.838 309.274 157.47 308.343 156.887C307.856 156.507 307.327 156.182 306.764 155.92C306.764 155.92 306.622 156.012 306.543 156.135L305.374 158.437C305.374 158.575 305.374 158.637 305.374 158.652C306.337 159.235 307.269 159.88 308.137 160.509H308.201ZM319.127 152.267C319.577 152.415 320.044 152.512 320.517 152.558C320.785 152.558 320.927 152.558 320.927 152.344C320.911 152.223 320.871 152.107 320.809 152.001C320.746 151.896 320.663 151.804 320.564 151.73C319.806 151.024 319.174 150.41 318.685 149.934C318.195 149.458 317.848 149.09 317.595 148.844C317.343 148.598 317.359 148.629 317.28 148.629C317.201 148.629 317.106 148.767 317.059 149.028C316.727 150.563 316.538 151.515 316.538 151.653C316.56 151.868 316.667 152.066 316.838 152.205C317.144 152.52 317.361 152.906 317.469 153.326C317.951 155.022 318.618 156.664 319.459 158.222C319.898 158.96 320.278 159.73 320.596 160.525C320.596 161.108 319.695 162.059 317.895 163.395C315.797 164.918 313.517 166.191 311.106 167.186C308.341 168.386 305.355 169.033 302.327 169.089C300.965 169.164 299.605 168.925 298.356 168.392C297.108 167.858 296.007 167.045 295.143 166.019C293.935 164.682 293.243 162.978 293.185 161.2C293.232 160.382 293.358 159.57 293.564 158.775C293.643 158.483 293.706 158.222 293.785 157.9C293.864 157.578 293.927 157.301 294.006 157.01C294.085 156.718 294.006 156.426 294.006 156.426C294.006 156.426 293.785 156.58 293.643 156.902C293.192 157.99 292.89 159.13 292.743 160.294C292.609 161.174 292.535 162.061 292.522 162.95C292.51 164.03 292.686 165.104 293.043 166.127C293.629 168.058 294.863 169.743 296.548 170.914C298.233 172.085 300.273 172.674 302.343 172.589C306.206 172.467 309.971 171.372 313.269 169.411C315.881 168.073 318.241 166.314 320.248 164.208C321.344 162.808 321.878 161.067 321.748 159.312C321.683 157.92 321.295 156.561 320.611 155.337C319.585 153.449 319.095 152.42 319.064 152.267H319.127ZM387.922 144.807C388.504 144.086 388.923 143.255 389.154 142.367C389.154 142.244 388.68 141.922 387.78 141.292C387.292 140.924 386.762 140.61 386.201 140.356C386.201 140.356 386.059 140.433 385.98 140.602L384.765 142.873C384.765 143.011 384.765 143.088 384.765 143.119C385.747 143.654 386.678 144.276 387.543 144.976C387.654 145.053 387.765 144.991 387.922 144.807ZM388.112 151.96C387.954 151.714 387.78 151.714 387.622 151.96C387.224 152.798 387.009 153.707 386.991 154.631C387.001 154.759 387.039 154.885 387.101 154.999C387.833 155.909 388.37 156.953 388.68 158.069C388.438 158.539 388.05 158.923 387.572 159.168C387.093 159.413 386.548 159.506 386.012 159.435C385.285 159.468 384.565 159.275 383.959 158.882C383.464 158.51 383.077 158.018 382.838 157.455C382.588 156.814 382.434 156.142 382.38 155.459C382.38 154.723 382.27 153.925 382.254 153.234C382.238 152.543 382.159 151.392 382.143 150.164C382.128 148.936 382.049 147.539 382.001 145.897C381.891 142.674 381.812 139.988 381.701 137.87C381.591 135.751 381.48 134.109 381.37 133.019C381.219 131.524 380.982 130.038 380.659 128.568C380.447 127.557 380.102 126.577 379.633 125.652C379.633 125.391 379.443 125.284 379.333 125.284C379.222 125.284 379.191 125.422 379.08 125.698C378.691 126.501 378.446 127.363 378.354 128.246C379.072 130.464 379.553 132.747 379.791 135.061C379.791 135.828 379.933 137.179 380.012 139.22C380.091 141.262 380.201 143.825 380.312 147.14C380.422 150.456 380.501 152.605 380.58 154.431C380.622 155.65 380.743 156.865 380.943 158.069C381.049 158.769 381.24 159.454 381.512 160.11C381.701 160.676 382.008 161.198 382.412 161.645C382.797 162.1 383.306 162.44 383.88 162.627C384.561 162.88 385.284 163.005 386.012 162.996C386.653 162.975 387.276 162.778 387.807 162.428C388.338 162.077 388.756 161.588 389.012 161.016C389.632 159.797 389.915 158.443 389.833 157.086C389.863 156.086 389.691 155.091 389.328 154.155C389.017 153.362 388.58 152.621 388.033 151.96H388.112ZM395.47 139.19C395.549 141.185 395.659 143.794 395.738 147.14C395.817 150.486 395.928 152.605 396.038 154.4C396.149 156.196 396.259 157.47 396.354 158.069C396.502 158.751 396.697 159.423 396.938 160.079C397.143 160.642 397.454 161.162 397.854 161.614C398.256 162.044 398.752 162.38 399.307 162.597C399.992 162.85 400.721 162.975 401.454 162.965C402.098 162.936 402.72 162.733 403.25 162.377C403.781 162.022 404.198 161.529 404.454 160.954C405.051 159.74 405.322 158.399 405.244 157.056C405.289 156.059 405.133 155.063 404.786 154.124C404.498 153.36 404.105 152.637 403.617 151.975C403.428 151.76 403.254 151.76 403.128 151.975C402.736 152.815 402.521 153.724 402.496 154.646C402.489 154.787 402.528 154.926 402.607 155.045C403.329 155.951 403.841 156.998 404.107 158.115C403.864 158.581 403.478 158.962 403.003 159.206C402.528 159.451 401.987 159.547 401.454 159.481C400.717 159.518 399.988 159.312 399.386 158.898C398.893 158.53 398.515 158.035 398.296 157.47C398.037 156.838 397.883 156.169 397.838 155.49C397.838 154.738 397.728 153.955 397.696 153.265C397.665 152.574 397.696 151.407 397.554 150.195C397.412 148.982 397.475 147.57 397.428 145.958C397.349 142.72 397.238 140.018 397.159 137.9C397.08 135.782 396.938 134.171 396.796 133.081C396.641 131.586 396.403 130.1 396.086 128.63C395.882 127.609 395.542 126.618 395.075 125.683C394.965 125.452 394.886 125.345 394.775 125.345C394.665 125.345 394.617 125.452 394.507 125.744C394.111 126.551 393.86 127.418 393.765 128.307C394.507 130.52 394.994 132.805 395.217 135.122C395.217 135.798 395.296 137.179 395.391 139.19H395.47ZM416.186 168.537C415.693 168.179 415.164 167.87 414.607 167.616C414.528 167.616 414.481 167.616 414.386 167.831L413.47 169.657C413.03 169.226 412.537 168.85 412.002 168.537C411.594 168.228 411.142 167.979 410.659 167.8C410.659 167.8 410.517 167.8 410.438 167.984L409.286 170.21C409.286 170.332 409.286 170.425 409.286 170.44L410.723 171.376C411.196 171.683 411.623 172.005 412.096 172.358C412.207 172.358 412.317 172.358 412.396 172.19C412.761 171.585 413.088 170.96 413.375 170.317C413.865 170.624 414.323 170.946 414.796 171.269C415.27 171.591 415.665 171.852 416.075 172.144C416.186 172.144 416.265 172.144 416.375 172.036C416.954 171.3 417.363 170.452 417.575 169.55C417.164 169.149 416.696 168.808 416.186 168.537ZM234.479 139.159C234.558 139.266 234.668 139.159 234.779 139.051C235.315 138.307 235.711 137.475 235.947 136.596C235.947 136.488 235.489 136.12 234.589 135.506C234.099 135.148 233.569 134.845 233.01 134.6C232.932 134.6 232.884 134.692 232.789 134.846L231.605 137.118C231.605 137.23 231.605 137.291 231.605 137.302L233.026 138.238C233.547 138.53 234.005 138.821 234.479 139.159ZM233.468 143.61C233.61 143.702 233.689 143.61 233.768 143.487C234.151 142.898 234.479 142.276 234.747 141.63C235.268 141.952 235.726 142.213 236.168 142.536L237.447 143.411C237.558 143.487 237.668 143.411 237.747 143.303C238.334 142.574 238.754 141.732 238.979 140.832C238.979 140.725 238.521 140.387 237.558 139.773C237.078 139.396 236.547 139.086 235.979 138.852C235.9 138.852 235.821 138.852 235.742 139.051L234.842 140.863C234.356 140.456 233.827 140.101 233.263 139.804C232.867 139.487 232.426 139.228 231.953 139.036C231.874 139.036 231.795 139.113 231.732 139.236L230.532 141.553C230.514 141.614 230.514 141.677 230.532 141.738L231.984 142.658C232.568 142.981 233.026 143.272 233.468 143.61ZM371.17 136.918C371.012 134.738 370.933 133.633 370.933 133.572C370.933 133.265 370.933 133.173 371.122 133.388C372.149 134.508 372.701 134.815 372.701 134.263C372.688 134.026 372.634 133.792 372.543 133.572C372.446 133.17 372.32 132.775 372.164 132.39C371.912 131.822 371.643 131.055 371.264 130.134C370.885 129.213 370.633 128.491 370.412 127.939C370.268 127.558 370.105 127.184 369.922 126.818C369.764 126.496 369.591 126.496 369.464 126.818C368.96 127.739 368.618 128.735 368.454 129.765C368.85 130.634 369.034 131.579 368.991 132.528C368.991 133.019 369.101 134.554 369.275 137.21C369.449 139.865 369.701 143.595 370.033 148.414C370.364 153.234 370.664 156.979 370.822 159.634C370.98 162.29 371.122 163.947 371.122 164.485C371.122 165.022 371.122 165.697 371.122 166.234C371.122 166.771 371.043 167.293 370.996 167.769C370.957 168.203 370.957 168.64 370.996 169.074C370.996 169.289 371.138 169.227 371.296 168.966C371.369 168.848 371.432 168.725 371.485 168.598L371.77 168.091C372.65 165.784 373.084 163.338 373.049 160.878C373.049 160.003 372.717 155.26 372.038 146.68C371.58 142.321 371.328 139.082 371.17 136.918ZM344.485 149.074C344.596 149.166 344.675 149.074 344.785 148.951C345.369 148.221 345.789 147.379 346.017 146.48C346.017 146.373 345.543 146.035 344.627 145.421C344.132 145.067 343.603 144.759 343.048 144.5C342.969 144.5 342.89 144.5 342.796 144.715L341.627 147.018C341.627 147.14 341.627 147.202 341.627 147.232C342.627 147.775 343.582 148.39 344.485 149.074ZM360.543 145.345C361.12 144.625 361.53 143.792 361.743 142.904C361.743 142.781 361.301 142.428 360.385 141.83C359.887 141.475 359.359 141.162 358.806 140.893C358.727 140.893 358.648 140.97 358.57 141.139L357.385 143.411C357.385 143.549 357.385 143.625 357.385 143.656C358.372 144.2 359.312 144.821 360.196 145.513C360.354 145.559 360.433 145.529 360.543 145.345ZM361.633 153.571C363.059 155.377 363.801 157.605 363.733 159.88C363.786 160.857 363.627 161.833 363.265 162.746C362.903 163.658 362.347 164.486 361.633 165.175C360.548 166.292 359.238 167.178 357.784 167.781C356.331 168.383 354.765 168.687 353.185 168.675C351.922 168.731 350.659 168.538 349.475 168.107C347.894 167.333 346.441 166.335 345.164 165.145L344.548 165.574C341.736 168.001 338.124 169.373 334.364 169.442C332.595 169.616 330.811 169.302 329.217 168.537C327.18 167.416 325.506 165.114 325.348 160.724C325.348 160.724 325.348 160.724 325.348 160.647V160.294C325.348 159.665 325.348 159.128 325.348 158.621C325.348 158.115 325.348 157.378 325.348 156.426C325.348 155.229 325.238 153.832 325.19 152.298C325.143 150.763 325.048 149.059 324.969 147.278C324.89 145.498 324.811 143.871 324.732 142.305C324.653 140.74 324.59 139.236 324.48 138.069C324.369 136.903 324.338 135.936 324.29 135.414C324.148 134.324 324.022 133.234 323.801 132.098C323.58 130.963 323.343 129.796 323.011 128.584C323.098 127.709 323.344 126.857 323.738 126.066C323.832 125.759 323.911 125.606 323.99 125.606C324.069 125.606 324.18 125.744 324.29 125.974C324.721 126.917 325.033 127.906 325.222 128.921C325.459 130.134 325.68 131.623 325.869 133.372C325.869 133.71 325.869 134.401 326.043 135.521C326.217 136.642 326.169 137.9 326.232 139.389C326.296 140.878 326.359 142.459 326.438 144.178C326.517 145.897 326.611 147.524 326.659 149.12C326.706 150.717 326.801 152.083 326.832 153.326C326.864 154.569 326.927 155.505 326.927 156.058C326.927 157.593 327.038 158.898 327.101 159.788C327.101 159.788 327.432 165.789 337.601 165.206H337.98H338.327C340.088 164.978 341.77 164.352 343.238 163.379C342.554 162.646 341.742 162.038 340.838 161.584C340.256 161.238 339.604 161.018 338.927 160.939C338.263 160.899 337.6 161.026 337.001 161.307C336.886 161.4 336.74 161.449 336.59 161.445C336.448 161.445 336.369 161.445 336.369 161.231C336.378 161.092 336.416 160.956 336.48 160.831L337.601 158.345C337.79 157.915 338.848 157.47 340.759 157.102C341.69 156.918 342.622 156.749 343.49 156.657C344.339 156.548 345.193 156.492 346.048 156.488C348.786 156.338 351.499 157.066 353.769 158.56C354.259 158.898 354.496 159.174 354.496 159.266C354.467 159.467 354.397 159.66 354.291 159.834L353.185 161.875L351.196 162.612L348.512 163.702C349.863 164.802 351.6 165.352 353.359 165.237C355.054 165.184 356.729 164.863 358.317 164.285C359.933 163.7 361.41 162.802 362.659 161.645C362.659 161.062 362.233 160.571 361.333 160.11C360.56 159.713 359.696 159.512 358.822 159.527H356.47C356.075 159.542 355.682 159.475 355.317 159.329C354.952 159.183 354.623 158.963 354.354 158.683C353.814 158.081 353.537 157.3 353.58 156.503C353.61 155.194 354.051 153.925 354.843 152.865C355.094 152.376 355.467 151.956 355.927 151.643C356.388 151.329 356.922 151.132 357.48 151.07C358.327 151.135 359.146 151.396 359.868 151.832C360.59 152.267 361.195 152.863 361.633 153.571ZM359.943 156.396C359.658 155.858 359.235 155.4 358.715 155.067C358.195 154.733 357.596 154.536 356.975 154.492C356.233 154.492 355.854 154.723 355.854 155.229C355.854 155.736 356.312 156.135 357.275 156.211C357.543 156.211 357.891 156.211 358.364 156.288L359.943 156.396ZM346.001 161.752C347.02 161.177 348.074 160.664 349.159 160.218C347.964 159.628 346.626 159.368 345.29 159.465C344.67 159.457 344.051 159.514 343.443 159.634C344.374 160.24 345.232 160.945 346.001 161.737V161.752ZM416.581 152.328C416.391 151.822 416.17 151.377 415.965 150.793C415.76 150.21 415.523 149.842 415.302 149.397C415.734 149.489 416.172 149.555 416.612 149.596C416.77 149.596 416.833 149.596 416.833 149.504C416.673 149.217 416.459 148.962 416.202 148.752C415.267 147.877 414.386 146.95 413.565 145.974C413.423 145.836 413.344 145.759 413.312 145.759C413.281 145.759 413.123 145.912 413.044 146.189C412.965 146.465 412.87 147.033 412.744 147.724C412.674 148.17 412.647 148.623 412.665 149.074C412.665 149.074 412.823 149.335 413.012 149.658C413.244 150.025 413.42 150.423 413.533 150.839C413.833 151.745 414.323 152.958 415.033 154.554L415.191 154.876C415.612 155.662 415.971 156.478 416.265 157.317C416.172 157.691 415.962 158.029 415.665 158.284C415.204 158.73 414.708 159.141 414.181 159.511C413.111 160.317 411.993 161.06 410.833 161.737L410.312 162.059L409.286 162.658C409.286 162.658 398.044 170.025 393.496 168.26C393.069 168.111 392.692 167.851 392.407 167.508C391.943 166.868 391.715 166.095 391.759 165.313C391.871 163.635 392.266 161.986 392.928 160.432C393.433 159.253 393.825 158.03 394.096 156.779C394.096 156.779 394.096 156.672 394.096 156.641C394.096 156.611 393.828 156.81 393.622 157.178C392.091 159.776 391.164 162.668 390.907 165.651C390.871 167.085 391.377 168.483 392.328 169.58C392.42 169.699 392.52 169.812 392.628 169.918C392.709 170.017 392.799 170.11 392.896 170.194C394.617 171.729 397.475 171.438 400.175 170.501C402.639 169.65 404.992 168.522 407.186 167.14L407.423 167.017C409.23 166.013 410.985 164.922 412.681 163.748C413.953 162.854 415.118 161.824 416.154 160.678C416.513 160.279 416.787 159.815 416.96 159.312C417.076 159.043 417.171 158.766 417.244 158.483C417.452 157.794 417.568 157.082 417.591 156.365C417.591 156.104 417.591 155.812 417.591 155.521C417.396 154.414 417.056 153.336 416.581 152.313V152.328ZM178.678 149.258C178.805 149.258 178.884 149.258 178.978 149.105C179.365 148.517 179.692 147.896 179.957 147.248C180.478 147.555 180.936 147.846 181.378 148.169C181.821 148.491 182.247 148.783 182.657 149.044C182.768 149.044 182.878 149.044 182.957 148.936C183.538 148.211 183.953 147.374 184.173 146.48C184.173 146.373 183.715 146.005 182.768 145.391C182.286 145.021 181.755 144.717 181.189 144.485C181.189 144.485 181.031 144.485 180.936 144.7L180.036 146.496C179.545 146.096 179.016 145.741 178.457 145.437C178.061 145.129 177.626 144.871 177.163 144.669C177.068 144.669 176.989 144.669 176.942 144.884L175.868 147.186C175.868 147.278 175.868 147.355 175.868 147.371C176.357 147.693 176.847 147.985 177.305 148.307C177.763 148.629 178.236 148.921 178.678 149.258ZM432.986 145.022C433.371 144.742 433.665 144.36 433.833 143.922C434.001 143.484 434.036 143.008 433.933 142.551C433.903 142.626 433.866 142.697 433.823 142.766C433.554 143.503 433.018 143.671 432.433 143.104C432.208 142.866 432.05 142.576 431.975 142.261C431.9 141.946 431.911 141.617 432.007 141.308C432.112 140.878 432.239 140.464 432.386 140.065C432.533 139.665 432.66 139.266 432.765 138.867C432.765 138.652 432.828 138.422 432.954 138.177L433.191 137.256C433.426 136.195 433.399 135.096 433.112 134.048C432.871 132.944 432.325 131.926 431.533 131.101C431.146 130.709 430.735 130.339 430.302 129.996C430.302 129.996 430.302 129.996 430.223 129.996C430.104 130.328 430.004 130.666 429.923 131.009C429.939 131.1 429.989 131.182 430.065 131.239C430.412 131.561 430.791 131.822 431.123 132.175C431.805 132.947 432.297 133.861 432.56 134.846C432.829 135.774 432.904 136.744 432.781 137.701C432.758 137.882 432.721 138.062 432.67 138.238C431.662 139.911 431.215 141.848 431.391 143.779C431.583 144.234 431.874 144.642 432.244 144.976C432.357 145.035 432.482 145.069 432.61 145.077C432.738 145.085 432.866 145.066 432.986 145.022Z" fill="#197EF2"/>
<path d="M149.31 142.52L110.262 145.805L117.557 135.06L33.6511 131.146L78.4147 148.491L25.8984 152.926L63.2567 161.645L36.8091 185.804L86.6253 166.633L62.5777 195.688L127.394 162.243L114.589 155.873L149.31 142.52Z" fill="#197EF2"/>
</svg>
