<svg width="480" height="320" viewBox="0 0 480 320" fill="none" xmlns="http://www.w3.org/2000/svg">
<path d="M288.025 166.284C287.632 165.895 287.29 165.589 286.877 165.293C286.625 165.533 286.343 165.839 286.081 166.173C286.484 166.478 286.846 166.775 287.259 167.136C287.542 166.895 287.743 166.654 288.025 166.284ZM289.97 166.163C289.577 165.775 289.234 165.469 288.821 165.172C288.569 165.414 288.287 165.719 288.025 166.052C288.428 166.358 288.791 166.654 289.204 167.016C289.486 166.776 289.688 166.534 289.97 166.163ZM299.58 170.167C299.58 169.194 298.543 168.017 296.991 166.859L297.233 166.396L295.591 165.812V165.756C296.739 165.293 297.837 164.885 298.905 164.542C299.449 164.366 300.014 164.209 300.527 164.088C300.8 163.708 301.061 163.328 301.283 162.949L301.212 162.875C298.895 163.569 296.971 164.181 295.792 164.727C295.338 164.94 295.148 165.126 295.037 165.293C294.906 165.496 294.805 165.728 294.805 165.913C294.805 166.228 294.876 166.561 295.168 166.765C296.82 167.942 297.757 168.832 298.2 169.388C298.583 169.869 298.895 170.361 298.895 170.778C298.895 170.889 298.704 171.074 298.341 171.278C297.656 171.667 296.689 171.76 295.651 171.76H294.835C294.301 171.76 293.948 171.658 293.626 171.408C293.394 171.232 293.273 171.009 293.273 170.658C293.273 170.426 293.374 169.963 293.515 169.555L293.455 169.489L292.77 169.944L292.327 171.24C291.914 171.408 291.45 171.537 290.986 171.64C289.868 171.88 288.73 172.056 287.551 172.056C286.292 172.056 285.174 171.917 284.348 171.463C283.552 171.019 283.018 170.277 283.018 169.415C283.018 169.008 283.119 168.535 283.31 168.007L282.907 167.85C282.473 168.6 282.312 169.342 282.312 170.092C282.312 171.222 282.897 172.075 283.793 172.603C284.679 173.122 285.869 173.317 287.249 173.317C288.498 173.317 289.989 173.048 291.158 172.733C291.883 172.538 292.397 172.325 292.729 172.14C293.112 172.77 293.797 172.946 294.784 172.946H295.419C297.293 172.946 298.3 172.603 298.935 172.084C299.329 171.714 299.58 171.028 299.58 170.167ZM310.894 168.22C311.176 167.979 311.378 167.739 311.66 167.368C311.267 166.979 310.925 166.674 310.512 166.376C310.26 166.618 309.977 166.924 309.715 167.257C310.119 167.562 310.482 167.859 310.894 168.22ZM310.26 165.515C309.867 165.126 309.524 164.82 309.111 164.524C308.859 164.765 308.577 165.071 308.315 165.404C308.718 165.709 309.081 166.007 309.494 166.368C309.776 166.126 309.977 165.886 310.26 165.515ZM309.715 167.488C309.323 167.099 308.98 166.794 308.567 166.497C308.316 166.737 308.033 167.043 307.771 167.378C308.174 167.683 308.537 167.979 308.95 168.34C309.232 168.1 309.434 167.859 309.715 167.488ZM312.406 168.952C312.083 169.202 311.781 169.481 311.499 169.786C311.63 170.333 311.751 170.926 311.751 171.287C311.751 171.565 311.499 171.705 311.216 171.705C310.733 171.705 310.169 171.343 310.169 170.639C310.169 170.38 310.219 170.027 310.299 169.731L310.239 169.694L309.634 170.019C309.322 170.982 309.272 171.251 308.919 171.492C308.646 171.668 308.315 171.761 308.022 171.761C307.347 171.761 306.742 171.168 306.742 170.538C306.742 170.353 306.752 170.168 306.803 169.982L306.783 169.916C305.454 170.185 304.194 170.565 303.026 171.01C302.884 171.417 302.784 171.798 302.723 172.131C303.117 172.529 303.459 172.937 303.459 173.243C303.459 173.687 303.107 174.142 302.461 174.753C301.665 175.373 300.82 175.781 299.862 175.781C299.459 175.781 299.056 175.716 298.633 175.541L298.482 175.8C299.399 176.393 300.215 176.699 300.92 176.699C301.575 176.699 302.28 176.402 303.147 175.568C303.66 174.993 303.892 174.466 303.922 173.808C303.943 173.419 303.962 173.029 303.962 172.64C303.962 172.427 303.922 172.186 303.841 171.954C304.477 171.667 305.192 171.463 306.179 171.176C306.169 172.242 306.865 172.946 307.841 172.946C308.567 172.946 309.071 172.52 309.433 172.149H309.514C309.876 172.622 310.339 172.918 310.773 172.918C311.357 172.918 311.882 172.483 312.264 171.899C312.445 171.575 312.627 171.047 312.627 170.63C312.627 170.241 312.587 169.676 312.466 168.981L312.406 168.952ZM327.859 172.946C329.401 172.946 330.116 172.807 330.569 172.39C330.972 171.899 331.275 171.361 331.275 170.666C331.275 169.749 330.73 168.591 330.267 167.84H330.217C329.955 168.137 329.704 168.489 329.461 168.887C329.985 169.832 330.468 170.74 330.468 171.176C330.468 171.333 330.247 171.463 329.894 171.583C329.451 171.731 328.766 171.759 327.91 171.759H324.183L323.488 172.816L323.548 172.945C325.15 172.945 326.248 173.344 326.48 173.789C326.399 173.974 326.026 174.196 325.573 174.428C324.355 174.975 323.287 175.225 322.359 175.225C321.413 175.225 320.536 174.938 319.922 174.353C319.398 173.853 319.116 173.121 319.116 172.334C319.116 171.712 319.308 170.953 319.729 170.008L319.348 169.85C318.783 170.73 318.4 171.981 318.4 172.908C318.4 173.955 318.652 174.854 319.276 175.493C319.86 176.086 320.757 176.494 322.046 176.494C323.528 176.494 325.442 175.845 326.742 174.771C326.873 174.576 327.195 173.918 327.195 173.612C327.195 173.426 327.185 173.205 327.155 172.945H327.859V172.946ZM329.663 175.559C330.066 175.864 330.428 176.161 330.841 176.522C331.124 176.281 331.325 176.04 331.607 175.67C331.214 175.281 330.872 174.975 330.459 174.679C330.206 174.92 329.925 175.225 329.663 175.559ZM327.719 175.679C328.122 175.985 328.484 176.282 328.897 176.643C329.18 176.402 329.381 176.161 329.664 175.791C329.271 175.402 328.928 175.096 328.515 174.8C328.262 175.04 327.981 175.346 327.719 175.679ZM334.025 163.597C333.713 163.856 333.32 164.246 333.037 164.579C333.199 166.182 333.4 168.646 333.4 170.341V171.25C333.4 171.862 333.39 172.519 333.289 173.103L333.42 173.168C334.005 172.575 334.277 172.186 334.307 171.676C334.357 171.269 334.377 170.713 334.377 170.148C334.377 167.989 334.327 165.644 334.116 163.625L334.025 163.597ZM348.815 169.221C347.646 168.406 346.225 167.609 345.268 166.748H345.188C345.097 167.063 345.036 167.378 345.006 167.675C344.613 167.878 344.301 168.184 344.019 168.536C343.576 169.101 343.385 169.657 343.385 170.222C343.385 170.658 343.445 171.102 343.607 171.491C342.982 171.713 342.306 171.76 341.813 171.76H340.735C340.453 169.861 339.496 168.665 338.57 168.665C337.934 168.665 337.4 169.045 337.017 169.555C336.725 169.934 336.504 170.417 336.504 171.047C336.504 172.344 337.552 172.946 339.606 172.946H340.1C339.969 173.419 339.637 173.789 339.153 174.243C338.286 175.058 337.37 175.521 336.352 175.521C335.748 175.521 335.265 175.382 334.872 175.188L334.701 175.494C335.668 176.04 336.685 176.43 337.602 176.43C338.136 176.43 339.254 175.929 340.03 174.845C340.453 174.261 340.745 173.529 340.796 172.946H341.863C342.639 172.946 343.506 172.742 344.624 172.315C345.944 172.705 347.223 172.946 348.059 172.946C349.439 172.946 350.063 172.13 350.063 171.213C350.063 170.388 349.691 169.833 348.815 169.221ZM338.236 171.621C337.612 171.454 337.138 171.176 337.138 170.704C337.138 170.333 337.712 169.888 338.276 169.888C338.649 169.888 339.022 170.074 339.344 170.407C339.687 170.75 339.939 171.24 340.049 171.759C339.395 171.76 338.791 171.76 338.236 171.621ZM344.996 171.25C344.26 170.907 343.887 170.472 343.887 170.175C343.887 169.693 344.794 168.711 345.55 168.711C345.983 168.711 346.587 169.406 346.587 170.185C346.588 170.695 345.49 171.092 344.996 171.25ZM348.361 171.908C347.625 171.908 347.031 171.816 346.487 171.648C346.93 170.936 347.182 170.231 347.263 169.49C348.532 170.232 349.429 170.889 349.429 171.491C349.429 171.732 348.926 171.908 348.361 171.908ZM360.349 165.58C359.956 165.2 359.553 164.866 359.141 164.589C358.868 164.875 358.596 165.2 358.324 165.533C358.727 165.849 359.12 166.145 359.512 166.487C359.856 166.219 360.128 165.914 360.349 165.58ZM361.81 167.599C361.518 167.989 361.276 168.378 361.035 168.767C361.357 169.249 361.639 169.861 361.881 170.592C362.032 171.055 362.193 171.593 362.193 172.232C362.193 172.408 361.941 172.687 361.498 173.002C360.864 173.456 359.866 173.808 359.06 173.808C358.305 173.808 357.589 173.557 357.157 173.187C356.763 172.853 356.481 172.362 356.481 171.575C356.481 171.148 356.703 170.435 357.045 169.842L356.663 169.647C356.199 170.351 355.796 171.167 355.796 172.344C355.796 173.993 356.995 175.151 358.889 175.151C360.078 175.151 361.378 174.586 362.244 173.743C362.647 173.354 362.96 172.307 362.96 171.38C362.96 169.972 362.578 168.795 361.882 167.581L361.81 167.599ZM372.117 165.775C371.724 165.395 371.321 165.061 370.908 164.783C370.635 165.071 370.364 165.395 370.091 165.728C370.495 166.044 370.888 166.34 371.28 166.682C371.624 166.414 371.895 166.108 372.117 165.775ZM378.292 164.57C377.899 164.19 377.496 163.856 377.082 163.579C376.81 163.866 376.539 164.19 376.267 164.524C376.67 164.839 377.063 165.135 377.455 165.477C377.798 165.21 378.071 164.903 378.292 164.57ZM377.516 166.525C377.063 166.525 376.62 166.766 376.217 167.145C375.734 167.609 375.461 168.285 375.461 168.97C375.461 169.221 375.522 169.443 375.612 169.637C375.965 170.351 376.861 170.639 378.03 170.639C378.393 170.639 378.806 170.639 379.168 170.601C379.188 170.666 379.188 170.74 379.188 170.805C379.188 171.046 378.645 171.398 378 171.574C377.425 171.732 376.67 171.759 375.803 171.759H374.554C373.699 171.759 372.932 171.584 372.257 171.25V171.213L374.011 169.721L374.363 168.711C373.618 168.424 372.61 168.248 371.441 168.248C370.454 168.248 369.527 168.396 368.741 168.554L368.428 168.591L368.036 169.657L368.066 169.674H368.378C368.549 169.674 368.821 169.851 369.073 170.064C369.547 170.463 370.021 170.972 370.484 171.259V171.297C369.416 171.732 368.71 171.759 367.844 171.759H367.28C367.149 171.759 366.888 171.741 366.636 171.658C366.243 171.528 365.88 171.259 365.88 170.666V170.138C365.88 167.858 365.88 165.459 365.719 163.43L365.648 163.392C365.357 163.606 365.044 163.911 364.702 164.254C364.852 166.218 364.964 168.063 364.964 169.823C364.964 171.185 364.974 171.843 365.588 172.418C366 172.797 366.515 172.946 367.311 172.946H367.734C368.943 172.946 370.021 172.687 371.26 171.862H371.299C372.277 172.557 373.527 172.946 374.655 172.946H375.774C377.566 172.946 378.736 172.696 379.369 172.029C379.712 171.658 379.863 171.157 379.863 170.565C379.863 169.674 379.692 168.97 379.44 168.359C378.987 167.238 378.333 166.525 377.516 166.525ZM376.086 168.563C376.086 168.211 376.63 167.739 377.295 167.739C378.112 167.739 378.806 168.656 379.008 169.536C377.416 169.546 376.086 169.313 376.086 168.563ZM371.462 170.852C370.988 170.547 370.545 170.222 370.212 169.935C370.001 169.75 369.799 169.555 369.618 169.407V169.369C370.212 169.268 370.827 169.202 371.483 169.202C372.188 169.202 372.802 169.313 373.356 169.434V169.471C372.711 170.036 372.097 170.463 371.503 170.852H371.462V170.852ZM382.584 163.597C382.272 163.856 381.879 164.246 381.597 164.579C381.758 166.182 381.96 168.646 381.96 170.341V171.25C381.96 171.862 381.949 172.519 381.848 173.103L381.979 173.168C382.564 172.575 382.836 172.186 382.866 171.676C382.916 171.269 382.936 170.713 382.936 170.148C382.936 167.989 382.886 165.644 382.674 163.625L382.584 163.597ZM394.059 167.841C393.797 168.137 393.546 168.49 393.304 168.888C393.827 169.833 394.31 170.741 394.31 171.176C394.31 171.334 394.089 171.464 393.737 171.584C393.293 171.732 392.608 171.759 391.751 171.759H391.439C391.308 171.759 391.046 171.741 390.795 171.658C390.402 171.528 390.039 171.259 390.039 170.666V170.138C390.039 167.858 390.039 165.459 389.878 163.43L389.807 163.392C389.515 163.606 389.203 163.911 388.86 164.254C389.011 166.218 389.122 168.063 389.122 169.823C389.122 171.185 389.133 171.843 389.747 172.418C390.16 172.797 390.674 172.946 391.47 172.946H391.701C393.243 172.946 393.958 172.807 394.411 172.39C394.814 171.899 395.116 171.361 395.116 170.666C395.116 169.749 394.572 168.591 394.109 167.84H394.059V167.841ZM394.361 165.858C393.968 165.478 393.565 165.145 393.152 164.867C392.88 165.154 392.608 165.478 392.336 165.812C392.739 166.127 393.132 166.423 393.524 166.766C393.867 166.497 394.14 166.191 394.361 165.858ZM399.529 175.679C399.932 175.985 400.295 176.282 400.708 176.643C400.99 176.402 401.191 176.161 401.474 175.791C401.081 175.402 400.738 175.096 400.325 174.8C400.074 175.04 399.791 175.346 399.529 175.679ZM401.474 175.559C401.877 175.864 402.24 176.161 402.652 176.522C402.934 176.281 403.135 176.04 403.418 175.67C403.025 175.281 402.683 174.975 402.27 174.679C402.018 174.92 401.736 175.225 401.474 175.559ZM402.38 172.391C402.783 171.899 403.085 171.362 403.085 170.667C403.085 169.75 402.541 168.591 402.078 167.841H402.028C401.766 168.137 401.514 168.49 401.272 168.888C401.796 169.833 402.28 170.741 402.28 171.176C402.28 171.334 402.058 171.464 401.705 171.584C401.262 171.732 400.577 171.759 399.72 171.759H399.408C399.277 171.759 399.015 171.741 398.764 171.658C398.371 171.528 398.008 171.259 398.008 170.666V170.138C398.008 167.858 398.008 165.459 397.847 163.43L397.776 163.392C397.484 163.606 397.172 163.911 396.829 164.254C396.98 166.218 397.091 168.063 397.091 169.823C397.091 171.185 397.102 171.843 397.716 172.418C398.129 172.797 398.643 172.946 399.439 172.946H399.67C401.212 172.946 401.927 172.808 402.38 172.391ZM408.304 168.165L408.243 168.155C407.991 168.535 407.76 168.915 407.527 169.313C407.971 169.934 408.374 170.611 408.737 171.352C408.797 171.51 408.878 171.685 408.878 171.843C408.878 171.945 408.848 172.093 408.767 172.25C408.102 173.622 406.652 174.743 405.23 174.752C404.787 174.752 404.425 174.678 404.113 174.585L404.002 174.9C404.989 175.363 405.845 175.613 406.591 175.613C407.095 175.613 407.638 175.364 408.253 174.771C409.039 173.899 409.522 173.019 409.522 172.195V171.176C409.522 170.379 409.28 169.879 409.018 169.415L408.304 168.165ZM413.754 161.948C413.473 162.049 413.2 162.077 412.929 162.077C412.162 162.077 411.438 161.8 410.743 161.8C410.027 161.8 409.825 162.392 409.825 162.828L410.168 163.393H410.239C410.461 163.013 410.642 162.68 410.803 162.68C411.307 162.68 412.031 162.837 412.667 162.837C413.231 162.837 413.695 162.689 414.077 162.392C414.178 162.225 414.269 161.957 414.369 161.698L414.319 161.652C414.137 161.781 413.936 161.883 413.754 161.948ZM412.425 163.597C412.112 163.856 411.719 164.246 411.438 164.579C411.599 166.182 411.8 168.646 411.8 170.341V171.25C411.8 171.862 411.79 172.519 411.689 173.103L411.82 173.168C412.405 172.575 412.677 172.186 412.707 171.676C412.757 171.269 412.777 170.713 412.777 170.148C412.777 167.989 412.727 165.644 412.515 163.625L412.425 163.597ZM423.617 168.378C422.942 167.609 422.025 166.924 421.209 166.46L421.129 166.469C420.897 166.812 420.615 167.294 420.615 167.526C420.615 167.637 420.696 167.757 420.938 167.869C421.653 168.202 422.418 168.703 422.992 169.268C423.587 169.869 423.94 170.528 423.94 171.028C423.94 171.102 423.869 171.186 423.738 171.25C423.003 171.63 422.339 171.852 421.552 171.852C420.293 171.852 419.93 171.222 419.9 170.426H419.507C419.457 170.723 419.457 170.954 419.457 171.102C419.457 172.474 420.243 173.058 421.391 173.058C422.339 173.058 423.295 172.687 424.192 172.196C424.454 171.695 424.615 171.148 424.615 170.574C424.615 169.796 424.232 169.082 423.617 168.378ZM83.4161 150.804L59.4681 142.134L103.921 143.324L100.049 149.229L83.4161 150.804ZM120.876 147.838L55.3846 154.64L75.1651 158.851L61.2691 172.143L120.876 147.838ZM88.1816 162.169L75.718 177.866L110.004 159.319L102.985 156.001L88.1816 162.169ZM424.615 153.89C424.615 155.886 421.319 156.613 418.64 156.613C415.9 156.613 414.54 155.894 414.54 155.894C414.324 155.78 414.032 155.85 413.891 156.05L413.751 156.249C413.611 156.449 413.495 156.412 413.495 156.167V153.818C413.495 153.573 413.671 153.468 413.885 153.586C413.885 153.586 415.953 154.715 418.661 154.715C420.14 154.715 420.885 154.456 420.877 153.937C420.868 153.283 420.013 153.256 417.586 153.035C414.759 152.778 413.513 151.939 413.513 150.545C413.513 148.714 416.245 147.758 419.161 147.811C422.288 147.868 423.97 148.656 423.97 148.656C424.192 148.759 424.372 149.044 424.372 149.288V150.618C424.372 150.862 424.19 150.98 423.967 150.879C423.967 150.879 421.725 149.867 419.762 149.708C418.535 149.609 417.185 149.792 417.185 150.474C417.185 151.156 419.08 151.2 420.422 151.276C424.294 151.491 424.615 153.097 424.615 153.89ZM400.029 147.883C399.792 147.883 399.76 147.991 399.957 148.122L401.223 148.966C401.418 149.097 401.58 149.398 401.58 149.634V154.8C401.58 155.037 401.418 155.338 401.222 155.469L399.957 156.312C399.76 156.443 399.792 156.551 400.029 156.551L411.677 156.551C411.912 156.551 412.106 156.358 412.106 156.121V153.109C412.106 152.872 411.999 152.84 411.868 153.037L411.029 154.296C410.897 154.493 410.596 154.654 410.36 154.654H405.573C405.336 154.654 405.143 154.461 405.143 154.224V153.74C405.143 153.503 405.336 153.31 405.573 153.31H408.161C408.397 153.31 408.697 153.469 408.827 153.664C408.957 153.859 409.063 153.824 409.063 153.588V151.266C409.063 151.029 408.957 150.994 408.827 151.189C408.697 151.383 408.397 151.542 408.161 151.542H405.573C405.336 151.542 405.143 151.348 405.143 151.112V150.08C405.143 149.844 405.336 149.65 405.573 149.65H410.351C410.587 149.65 410.887 149.811 411.019 150.007L411.868 151.281C411.999 151.477 412.106 151.445 412.106 151.208V148.313C412.106 148.077 411.912 147.882 411.677 147.882H400.029V147.883ZM394.793 147.883C394.557 147.883 394.364 148.075 394.364 148.31V152.888C394.364 153.123 394.234 153.174 394.076 153L389.684 148.198C389.525 148.025 389.201 147.883 388.967 147.883H385.129C384.893 147.883 384.701 148.075 384.701 148.31V156.126C384.701 156.361 384.893 156.553 385.129 156.553H388.836C389.071 156.553 389.105 156.445 388.91 156.314L387.664 155.473C387.469 155.341 387.31 155.041 387.31 154.806V151.524C387.31 151.289 387.44 151.239 387.598 151.412L392.01 156.238C392.169 156.412 392.491 156.553 392.727 156.553H396.544C396.78 156.553 396.972 156.361 396.972 156.126V149.638C396.972 149.402 397.132 149.102 397.327 148.971L398.582 148.122C398.778 147.991 398.744 147.884 398.509 147.884H394.793V147.883ZM383.091 148.122C383.287 147.991 383.254 147.883 383.018 147.883H378.326C378.089 147.883 377.895 148.077 377.895 148.314V156.122C377.895 156.358 378.089 156.552 378.326 156.552H383.018C383.254 156.552 383.287 156.445 383.091 156.314L381.818 155.465C381.62 155.334 381.459 155.033 381.459 154.797V149.64C381.459 149.404 381.62 149.103 381.818 148.971L383.091 148.122ZM368.888 154.655C368.651 154.655 368.457 154.461 368.457 154.225V149.639C368.457 149.403 368.618 149.102 368.815 148.971L370.088 148.122C370.284 147.991 370.252 147.883 370.016 147.883H365.324C365.087 147.883 364.893 148.077 364.893 148.314V156.122C364.893 156.358 365.087 156.552 365.324 156.552H376.187C376.422 156.552 376.617 156.358 376.617 156.122V153.109C376.617 152.873 376.509 152.84 376.378 153.038L375.539 154.297C375.407 154.494 375.107 154.655 374.871 154.655H368.888ZM358.642 150.676C358.642 150.188 358.161 149.791 357.568 149.791C356.977 149.791 354.055 149.792 354.055 149.792C353.818 149.792 353.625 149.986 353.625 150.222V151.113C353.625 151.35 353.818 151.543 354.055 151.543H357.674C358.176 151.543 358.642 151.103 358.642 150.676ZM354.055 153.317C353.818 153.317 353.624 153.511 353.624 153.748V154.799C353.624 155.036 353.785 155.336 353.982 155.467L355.251 156.313C355.446 156.444 355.414 156.551 355.178 156.551H350.491C350.254 156.551 350.06 156.358 350.06 156.121V148.312C350.06 148.076 350.254 147.882 350.491 147.882L358.953 147.882C360.663 147.882 362.051 149.025 362.051 150.436C362.051 151.516 361.237 152.439 360.088 152.813C361.636 152.813 361.671 154.769 362.567 155.844C362.711 156.019 363.084 156.211 363.258 156.264C363.496 156.338 363.511 156.55 363.406 156.551H359.599C358.136 156.551 358.086 153.317 356.603 153.317H354.055ZM348.657 148.122C348.853 147.991 348.82 147.883 348.585 147.883H343.892C343.655 147.883 343.461 148.077 343.461 148.314V156.122C343.461 156.358 343.655 156.552 343.892 156.552H348.585C348.82 156.552 348.854 156.445 348.657 156.314L347.383 155.464C347.185 155.333 347.024 155.032 347.024 154.795V149.641C347.024 149.405 347.185 149.104 347.383 148.972L348.657 148.122ZM342.163 156.313C342.36 156.444 342.328 156.551 342.092 156.551H337.048C336.811 156.551 336.517 156.386 336.392 156.185L335.405 154.562C335.282 154.36 334.986 154.195 334.751 154.195H330.882C330.645 154.195 330.35 154.36 330.228 154.563L330.048 154.858C329.924 155.061 329.985 155.333 330.183 155.464L331.456 156.313C331.651 156.444 331.619 156.551 331.384 156.551H327.053C326.816 156.551 326.725 156.386 326.847 156.184L331.68 148.25C331.804 148.048 332.098 147.883 332.335 147.883H335.629C335.865 147.883 336.16 148.048 336.282 148.25L340.308 154.858C340.431 155.061 340.693 155.333 340.89 155.464L342.163 156.313ZM333.673 152.427C333.909 152.427 334.002 152.262 333.879 152.06L333.039 150.681C332.917 150.48 332.715 150.48 332.591 150.681L331.752 152.06C331.629 152.262 331.721 152.427 331.959 152.427H333.673ZM309.953 147.883C309.717 147.883 309.524 148.075 309.524 148.31V152.888C309.524 153.123 309.395 153.174 309.236 153L304.844 148.198C304.685 148.025 304.362 147.883 304.127 147.883H300.291C300.055 147.883 299.862 148.075 299.862 148.31V156.126C299.862 156.361 300.055 156.553 300.291 156.553H303.997C304.232 156.553 304.266 156.446 304.071 156.314L302.824 155.473C302.629 155.341 302.47 155.041 302.47 154.806V151.524C302.47 151.289 302.601 151.239 302.759 151.412L307.171 156.238C307.33 156.412 307.653 156.553 307.888 156.553H311.706C311.94 156.553 312.134 156.361 312.134 156.126V149.638C312.134 149.402 312.293 149.102 312.488 148.971L313.743 148.122C313.938 147.991 313.904 147.884 313.669 147.884H309.953V147.883ZM298.153 156.313C298.35 156.444 298.318 156.551 298.082 156.551H293.039C292.802 156.551 292.507 156.386 292.384 156.185L291.395 154.562C291.273 154.36 290.978 154.195 290.742 154.195H286.872C286.635 154.195 286.341 154.36 286.219 154.563L286.039 154.858C285.916 155.061 285.976 155.333 286.173 155.464L287.447 156.313C287.643 156.444 287.61 156.551 287.374 156.551H283.043C282.806 156.551 282.714 156.386 282.837 156.184L287.67 148.25C287.794 148.048 288.088 147.883 288.325 147.883H291.618C291.855 147.883 292.15 148.048 292.272 148.25L296.298 154.858C296.422 155.061 296.683 155.333 296.88 155.464L298.153 156.313ZM289.664 152.427C289.9 152.427 289.993 152.262 289.869 152.06L289.031 150.681C288.908 150.48 288.706 150.48 288.582 150.681L287.743 152.06C287.621 152.262 287.712 152.427 287.949 152.427H289.664ZM281.383 148.122C281.579 147.991 281.547 147.883 281.311 147.883H276.62C276.383 147.883 276.19 148.077 276.19 148.314V151.114C276.19 151.35 275.995 151.544 275.76 151.544H271.504C271.267 151.544 271.073 151.35 271.073 151.114V149.639C271.073 149.403 271.234 149.102 271.432 148.971L272.705 148.122C272.902 147.991 272.87 147.883 272.633 147.883H267.941C267.704 147.883 267.51 148.077 267.51 148.314V156.122C267.51 156.358 267.704 156.552 267.941 156.552H272.633C272.87 156.552 272.902 156.445 272.705 156.314L271.432 155.465C271.234 155.334 271.073 155.033 271.073 154.797V153.741C271.073 153.505 271.267 153.311 271.504 153.311H275.76C275.995 153.311 276.19 153.505 276.19 153.741V156.123C276.19 156.359 276.383 156.553 276.62 156.553H281.311C281.547 156.553 281.58 156.445 281.382 156.314L280.111 155.466C279.915 155.335 279.753 155.034 279.753 154.798V149.64C279.753 149.404 279.915 149.103 280.111 148.971L281.383 148.122ZM260.52 147.811C256.141 147.811 254.413 148.696 253.976 150.115C253.83 150.587 253.762 151.288 253.762 152.213C253.762 153.095 253.825 153.791 253.986 154.285C254.513 155.892 256.882 156.613 260.456 156.613C263.601 156.613 264.918 155.493 264.918 155.493C265.098 155.34 265.352 155.375 265.484 155.572L265.899 156.195C266.03 156.391 266.138 156.359 266.138 156.123V152.572C266.138 152.336 265.943 152.142 265.708 152.142H261.438C261.201 152.142 261.17 152.246 261.37 152.373C261.37 152.373 262.24 152.927 262.592 153.247C262.866 153.496 262.492 154.144 262.065 154.396C261.723 154.596 261.158 154.716 260.456 154.716C259.549 154.716 257.661 154.657 257.448 153.72C257.383 153.44 257.325 152.942 257.325 152.213C257.325 151.484 257.374 150.985 257.448 150.711C257.652 149.942 259.147 149.7 260.193 149.7C263.601 149.7 265.801 151.42 265.801 151.42C265.988 151.565 266.14 151.491 266.14 151.255V150.25L266.138 148.635C266.138 148.398 266.01 148.35 265.854 148.528L265.726 148.672C265.572 148.85 265.283 148.887 265.087 148.755C265.088 148.754 263.695 147.811 260.52 147.811ZM241.113 147.883C240.876 147.883 240.682 148.077 240.682 148.314V156.122C240.682 156.358 240.876 156.552 241.113 156.552H245.805C246.042 156.552 246.074 156.445 245.877 156.314L244.604 155.465C244.407 155.334 244.246 155.033 244.246 154.797V153.741C244.246 153.505 244.44 153.311 244.677 153.311H248.458C248.695 153.311 248.994 153.47 249.124 153.665C249.254 153.86 249.36 153.826 249.36 153.589V151.267C249.36 151.03 249.254 150.995 249.124 151.19C248.994 151.385 248.695 151.543 248.458 151.543H244.677C244.44 151.543 244.246 151.35 244.246 151.113V150.081C244.246 149.845 244.44 149.651 244.677 149.651H250.649C250.886 149.651 251.187 149.812 251.319 150.009L252.167 151.282C252.298 151.479 252.406 151.446 252.406 151.21V148.313C252.406 148.077 252.212 147.882 251.976 147.882H241.113V147.883ZM239.213 156.313C239.409 156.444 239.376 156.551 239.14 156.551H234.097C233.86 156.551 233.566 156.386 233.444 156.184L232.455 154.563C232.331 154.36 232.037 154.195 231.8 154.195H227.933C227.696 154.195 227.402 154.36 227.278 154.563L227.098 154.858C226.975 155.061 227.036 155.333 227.232 155.464L228.506 156.313C228.703 156.444 228.67 156.551 228.434 156.551H224.103C223.867 156.551 223.774 156.386 223.896 156.184L228.731 148.25C228.854 148.048 229.148 147.883 229.384 147.883H232.678C232.914 147.883 233.209 148.048 233.332 148.25L237.358 154.858C237.481 155.061 237.743 155.333 237.939 155.464L239.213 156.313ZM230.723 152.427C230.96 152.427 231.053 152.262 230.93 152.06L230.09 150.681C229.967 150.48 229.766 150.48 229.642 150.681L228.803 152.06C228.679 152.262 228.773 152.427 229.01 152.427H230.723ZM210.912 156.313C211.109 156.444 211.076 156.551 210.839 156.551H205.796C205.559 156.551 205.265 156.386 205.143 156.184L204.154 154.563C204.031 154.36 203.736 154.195 203.5 154.195H199.632C199.395 154.195 199.101 154.36 198.978 154.563L198.798 154.858C198.674 155.061 198.735 155.333 198.932 155.464L200.205 156.313C200.402 156.444 200.369 156.551 200.133 156.551H195.802C195.565 156.551 195.472 156.386 195.595 156.184L200.429 148.25C200.553 148.048 200.847 147.883 201.083 147.883H204.377C204.613 147.883 204.908 148.048 205.031 148.25L209.057 154.858C209.18 155.061 209.441 155.333 209.638 155.464L210.912 156.313ZM202.422 152.427C202.658 152.427 202.752 152.262 202.629 152.06L201.789 150.681C201.666 150.48 201.464 150.48 201.341 150.681L200.502 152.06C200.378 152.262 200.472 152.427 200.709 152.427H202.422ZM191.986 147.883C191.751 147.883 191.559 148.075 191.559 148.31V152.888C191.559 153.123 191.429 153.174 191.27 153L186.878 148.198C186.719 148.025 186.396 147.883 186.162 147.883H182.324C182.089 147.883 181.896 148.075 181.896 148.31V156.126C181.896 156.361 182.088 156.553 182.324 156.553H186.031C186.266 156.553 186.299 156.445 186.104 156.314L184.859 155.473C184.664 155.341 184.504 155.041 184.504 154.806V151.524C184.504 151.289 184.635 151.239 184.793 151.412L189.205 156.238C189.363 156.412 189.686 156.553 189.921 156.553H193.739C193.974 156.553 194.167 156.361 194.167 156.126V149.638C194.167 149.402 194.326 149.102 194.521 148.971L195.776 148.122C195.971 147.991 195.937 147.884 195.703 147.884H191.986V147.883ZM180.532 156.313C180.729 156.444 180.696 156.551 180.46 156.551H175.417C175.18 156.551 174.886 156.386 174.762 156.184L173.774 154.563C173.651 154.36 173.356 154.195 173.12 154.195H169.251C169.014 154.195 168.72 154.36 168.597 154.563L168.417 154.858C168.294 155.061 168.354 155.333 168.551 155.464L169.824 156.313C170.021 156.444 169.988 156.551 169.752 156.551H165.421C165.184 156.551 165.091 156.386 165.214 156.184L170.049 148.25C170.171 148.048 170.466 147.883 170.702 147.883H173.995C174.232 147.883 174.526 148.048 174.649 148.25L178.676 154.858C178.799 155.061 179.061 155.333 179.257 155.464L180.532 156.313ZM172.043 152.427C172.279 152.427 172.372 152.262 172.25 152.06L171.409 150.681C171.287 150.48 171.084 150.48 170.962 150.681L170.122 152.06C169.999 152.262 170.092 152.427 170.328 152.427H172.043ZM163.463 148.122C163.659 147.991 163.627 147.883 163.39 147.883H158.698C158.461 147.883 158.268 148.077 158.268 148.314V156.122C158.268 156.358 158.461 156.552 158.698 156.552H163.39C163.626 156.552 163.659 156.445 163.463 156.314L162.19 155.465C161.992 155.334 161.831 155.033 161.831 154.797V149.641C161.831 149.405 161.992 149.104 162.19 148.972L163.463 148.122ZM152.287 150.676C152.287 150.188 151.807 149.791 151.214 149.791C150.622 149.791 147.701 149.792 147.701 149.792C147.464 149.792 147.27 149.986 147.27 150.222V151.113C147.27 151.35 147.464 151.543 147.701 151.543H151.319C151.822 151.543 152.287 151.103 152.287 150.676ZM147.701 153.317C147.464 153.317 147.27 153.511 147.27 153.748V154.799C147.27 155.036 147.432 155.336 147.628 155.467L148.897 156.313C149.093 156.444 149.061 156.551 148.824 156.551H144.137C143.9 156.551 143.707 156.358 143.707 156.121V148.312C143.707 148.076 143.9 147.882 144.137 147.882L152.599 147.882C154.31 147.882 155.698 149.025 155.698 150.436C155.698 151.516 154.884 152.439 153.735 152.813C155.283 152.813 155.318 154.769 156.214 155.844C156.359 156.019 156.732 156.211 156.905 156.264C157.143 156.338 157.159 156.55 157.053 156.551H153.246C151.782 156.551 151.734 153.316 150.25 153.316H147.701V153.317ZM142.22 156.313C142.418 156.445 142.385 156.552 142.148 156.552H137.105C136.868 156.552 136.574 156.387 136.451 156.185L135.462 154.563C135.338 154.36 135.044 154.195 134.807 154.195H130.938C130.702 154.195 130.407 154.36 130.285 154.563L130.105 154.858C129.981 155.061 130.042 155.333 130.239 155.464L131.512 156.313C131.709 156.445 131.676 156.552 131.44 156.552H127.109C126.872 156.552 126.778 156.387 126.902 156.185L131.736 148.249C131.859 148.047 132.154 147.882 132.39 147.882H135.683C135.92 147.882 136.214 148.047 136.338 148.249L140.364 154.858C140.487 155.061 140.749 155.333 140.945 155.464L142.22 156.313ZM133.731 152.427C133.967 152.427 134.06 152.262 133.937 152.06L133.097 150.681C132.975 150.48 132.773 150.48 132.65 150.681L131.81 152.06C131.687 152.262 131.78 152.427 132.016 152.427H133.731Z" fill="#197EF2"/>
</svg>
