<svg width="480" height="320" viewBox="0 0 480 320" fill="none" xmlns="http://www.w3.org/2000/svg">
<path d="M290.88 209.504C290.88 209.504 290.499 203.401 294.313 195.833C294.313 195.833 306.144 181.397 275.999 156.596C275.999 156.596 258.512 142.894 256.734 134.149L270.052 145.439L269.736 143.53C269.736 143.53 254.792 129.697 254.792 129.065L254.636 125.248L269.101 140.031C269.101 140.031 268.243 137.36 266.875 135.994L253.677 121.115L254.062 116.979L267.986 134.149L267.829 132.399C267.829 132.399 256.349 118.06 254.063 112.718L254.952 109.032C254.952 109.032 272.123 144.453 302.487 151.48C302.487 151.48 314.886 155.008 320.131 156.026C320.131 156.026 330.15 158.696 324.426 167.282" fill="#949599"/>
<path d="M125.207 210.014L107.275 137.14H94.3031L55.3845 210.393H67.5953L77.2289 189.791L100.12 189.315L104.983 210.014H125.207ZM100.215 182.352H80.9484L93.9211 157.836M136.272 210.061L143.282 157.742H159.735L158.783 168.234C158.783 168.234 165.268 156.026 174.235 156.981L171.755 174.148C171.755 174.148 160.67 168.932 157.339 180.89L153.774 210.061M195.968 210.061H179.752L187.003 159.076H203.027M211.94 210.061L221.098 141.908L236.931 141.717L231.399 180.063H234.643L254.484 158.314L269.169 158.506L248.758 180.063L263.448 210.299L242.796 210.061L234.261 187.121H230.253L227.2 209.823" fill="#0D3F84"/>
<path d="M292.717 210.968L330.837 165.979C330.837 165.979 334.306 160.051 345.099 159.784C355.892 159.515 376.876 155.976 381.87 154.602C386.866 153.227 419.271 143.195 424.615 137.179C424.615 137.179 417.463 144.113 414.474 145.29C414.474 145.29 394.544 153.839 389.2 155.06L387.256 157.043C387.256 157.043 408.148 150.786 408.892 149.871L403.482 153.925C403.482 153.925 387.868 158.636 384.158 159.486L381.564 161.929C381.564 161.929 397.703 157.501 398.64 157.043C398.64 157.043 394.805 160.033 394.062 160.598C394.062 160.598 379.973 164.132 378.971 164.525L376.834 166.358L391.182 162.694C391.182 162.694 368.937 176.432 360.499 178.111C360.499 178.111 341.329 183.673 332.038 184.828C322.749 185.985 319.26 191.698 315.681 194.599C312.105 197.497 300.371 209.559 292.717 210.968Z" fill="#949599"/>
</svg>
