<svg width="480" height="320" viewBox="0 0 480 320" fill="none" xmlns="http://www.w3.org/2000/svg">
<path d="M87.1208 134.382H113.716L145.072 185.396H122.909L118.437 177.751H83.0029L77.9671 185.396H55.3845L87.1208 134.382ZM92.2748 164.899H109.992L100.72 149.909M148.39 185.317V134.33C148.39 134.33 205.174 134.212 215.089 134.553C223.364 134.868 226.498 147.719 224.728 158.762C222.721 171.233 207.863 170.577 207.863 170.577L224.938 185.554H200.06L183.195 171.417H168.848V185.317H148.39ZM168.848 159.404H201.319C201.319 159.404 204.702 159.194 204.479 153.293C204.27 147.365 201.109 147.798 201.109 147.798L168.809 147.851M229.58 185.554H250.038V134.304H229.58V185.554ZM256.792 134.513H287.584L320.684 168.689L320.802 134.369H339.791L339.673 185.527H307.832L276.607 152.65V185.357L256.661 185.305M423.853 154.801L423.315 144.743C423.315 144.743 422.633 133.464 399.815 133.32C376.983 133.189 364.747 133.32 364.747 133.32C364.747 133.32 346.965 134.684 346.414 146.093C345.863 157.502 346.152 169.345 346.152 169.345C346.152 169.345 345.457 184.557 364.485 186.577L406.739 186.708C415.394 187.088 423.787 184.006 424.391 175.036C425.073 164.991 423.984 165.384 423.984 165.384L404.706 165.253C404.706 165.253 405.244 170.826 399.67 171.089C394.097 171.364 371.147 170.551 371.147 170.551C371.147 170.551 366.806 169.607 366.662 165.515C366.531 161.45 366.806 152.769 366.806 152.769C366.806 152.769 367.396 147.863 371.554 147.863C375.711 147.863 397.913 148.27 397.913 148.27C397.913 148.27 405.782 149.096 404.431 155.063" fill="#0066B0"/>
</svg>
