<svg width="480" height="320" viewBox="0 0 480 320" fill="none" xmlns="http://www.w3.org/2000/svg">
<path d="M90.149 174.453C90.149 173.937 90.2363 173.344 90.4263 172.722L65.4297 177.253C65.4983 178.178 65.6121 179.07 65.7626 179.929L90.2519 175.491C90.1833 175.119 90.1489 174.769 90.1489 174.453" fill="#D40E8C"/>
<path d="M101.761 201.292C106.448 201.292 111.706 200.697 116.808 199.773L141.35 195.321V180.686L73.2266 193.034C80.5715 199.261 91.8452 201.292 101.761 201.292Z" fill="#009989"/>
<path d="M103.61 183.927C96.5631 183.927 92.8563 180.969 91.2209 178.084L66.3828 182.589C67.3234 185.766 68.8637 188.447 70.84 190.694L110.968 183.421C109.092 183.722 106.682 183.927 103.61 183.927Z" fill="#F8A800"/>
<path d="M65.3516 174.496L92.2399 169.62C94.2611 167.405 97.9415 165.509 104.14 165.509C107.767 165.509 110.383 165.717 112.261 165.993L141.351 160.72V151.463L67.7215 164.813C66.2869 167.529 65.4203 170.732 65.3516 174.496Z" fill="#70B62B"/>
<path d="M100.445 150.247C92.3258 150.247 77.2713 152.365 69.7969 161.666L116.807 153.139C116.807 153.139 111.528 150.247 100.445 150.247Z" fill="#00873B"/>
<path d="M123.562 121.367L69.6719 131.137L78.8002 144.461C83.5533 141.563 93.0542 137.354 101.234 137.354C109.417 137.354 116.804 141.826 116.804 148.14V153.14L140.545 148.839L141.327 148.696C140.997 135.931 134.529 126.396 123.562 121.367" fill="#A71580"/>
<path d="M103.084 117.356C79.5936 117.356 67.9844 128.672 67.9844 128.672L118.601 119.495C114.001 118.096 108.804 117.356 103.084 117.356Z" fill="#E6420F"/>
<path d="M116.805 182.362L141.347 177.913V168.999L116.805 173.448V182.362Z" fill="#009EE2"/>
<path d="M116.805 170.676L141.347 166.227V163.49L116.805 167.941V170.676Z" fill="#8E7A3B"/>
<path d="M330.756 76.3481L305.895 80.8552V105.8L330.756 101.293V76.3481Z" fill="#0046BA"/>
<path d="M391.051 182.321L385.812 183.279C383.854 183.638 381.249 183.89 377.827 183.89C367.51 183.89 364.34 177.561 364.34 174.397C364.34 171.233 367.51 165.43 378.356 165.43C389.199 165.43 391.051 167.277 391.051 167.277V182.321ZM377.299 117.176C353.761 117.176 342.123 128.516 342.123 128.516L352.968 144.336C357.727 141.439 367.246 137.219 375.447 137.219C383.645 137.219 391.051 141.702 391.051 148.029V153.039C391.051 153.039 385.762 150.137 374.654 150.137C363.544 150.137 339.48 154.093 339.48 174.921C339.48 195.755 359.579 201.292 375.978 201.292C380.676 201.292 385.941 200.696 391.054 199.769L415.646 195.312V149.61C415.646 129.572 400.837 117.176 377.299 117.176Z" fill="#0046BA"/>
<path d="M305.898 119.422V155.07V199.821L330.76 195.314V155.07V114.915L305.898 119.422Z" fill="#0046BA"/>
<path d="M174.109 117.178L152.891 121.023V155.07V169.112V184.516V199.818L174.109 195.97L177.753 195.309V184.516V168.032V167.848V157.301V156.75V152.933C177.753 144.046 186.638 138.511 196.218 138.14C199.349 138.019 202.77 138.408 205.579 139.043V117.415C202.469 116.854 200.432 116.572 196.218 116.703C184.326 117.072 177.557 124.772 174.109 130.809V117.178Z" fill="#0046BA"/>
<path d="M280.533 143.76C288.906 133.692 293.551 124.563 295.419 121.32L263.505 127.105C258.48 134.82 249.196 145.578 241.085 151.792V135.241V92.6079L216.223 97.1176C216.223 110.541 216.223 145.699 216.225 159.367H216.223V199.817L241.085 195.313V175.499C244.17 174.045 246.112 172.551 246.112 172.551L270.467 200.086L297.831 195.123L266.211 159.367C269.207 156.399 274.956 150.464 280.533 143.76Z" fill="#0046BA"/>
<path d="M350.479 210.885C346.736 210.885 343.285 211.491 341.79 211.797V216.717C343.61 216.317 347.026 215.664 349.917 215.664C351.822 215.664 355.219 215.919 356.575 217.631C357.492 218.793 357.795 220.474 357.468 222.634C357.217 224.314 356.688 226.074 355.735 227.467C355.074 228.437 354.099 229.282 353.24 229.949L356.292 234.179C357.391 233.368 359.132 231.935 360.295 230.246C361.27 228.832 362.046 226.817 362.482 224.575C363.457 219.56 362.794 215.719 360.617 213.759C357.838 211.257 353.074 210.885 350.479 210.885ZM342.677 243.651L348.432 242.611V220.426L342.677 221.472V243.651ZM318.558 226.572C318.558 228.284 317.084 229.617 314.928 230.357C314.185 230.607 313.757 230.67 313.757 230.67L313.594 229.701C312.579 223.24 311.118 216.794 309.253 210.543L303.95 211.628C305.628 217.276 307.298 224.246 308.259 230.486C306.772 230.072 305.023 229.251 304.304 228.906L301.625 232.491C303.078 233.431 306.603 235.243 312.18 235.243C319.615 235.243 324.231 231.732 324.231 226.076V210.564L318.558 211.736L318.558 226.572ZM375.053 210.851C369.928 210.851 366.696 212.674 365.386 213.596L367.851 217.194C369.513 216.343 372.102 215.345 374.469 215.345C377.801 215.345 380.409 217.294 380.409 219.775V234.197L386.079 233.17V220.023C386.079 214.278 381.957 210.851 375.053 210.851ZM411.308 227.878L411.842 225.426C412.576 222.038 413.184 218.58 413.643 215.137L414.254 210.567L408.668 211.581C408.336 214.373 407.886 217.302 407.329 220.284L406.901 222.573L397.675 210.424L391.326 211.578L394.303 215.105L393.392 219.301C392.655 222.699 392.047 226.161 391.59 229.59L390.977 234.166L396.565 233.152C396.982 229.609 397.553 226.05 398.259 222.549L398.713 220.302L409.279 234.308L415.646 233.149L411.308 227.878ZM330.741 211.578L336.495 210.532V223.155L330.741 224.198V211.578Z" fill="#0046BA"/>
</svg>
