<svg width="480" height="320" viewBox="0 0 480 320" fill="none" xmlns="http://www.w3.org/2000/svg">
<path d="M134.917 168.779L133.387 174.348C132.645 174.408 131.979 174.431 131.385 174.416C127.87 174.325 125.127 173.534 123.17 172.054C121.214 170.573 120.532 168.765 121.121 166.624C121.692 164.542 123.362 162.809 126.129 161.423C128.897 160.036 131.981 159.382 135.375 159.471C139.155 159.57 141.957 160.326 143.761 161.744C145.574 163.155 146.154 165.041 145.509 167.389L143.577 174.427L134.801 174.196L136.627 167.549C136.834 166.791 136.695 166.18 136.219 165.71C135.743 165.244 134.995 164.996 133.979 164.97C133.058 164.945 132.2 165.131 131.415 165.528C130.628 165.922 130.157 166.403 130.002 166.97C129.837 167.569 130.009 168.062 130.51 168.467C131.015 168.864 131.737 169.076 132.676 169.102C133.436 169.122 134.193 169.013 134.917 168.779ZM367.573 174.485L366.823 177.524H352.432L355.099 166.705C354.696 166.721 354.079 166.794 353.785 166.968C353.737 167.09 353.698 167.259 353.672 167.363L351.166 177.524L336.836 177.274H312.486L315.323 167.381H314.468L314.45 167.451L311.388 177.858H294.681L276.717 177.264L275.098 177.391C274.328 177.453 273.549 177.488 272.775 177.467C269.275 177.375 265.644 176.642 262.798 174.488C259.967 172.344 258.691 169.29 259.647 165.815C260.569 162.453 263.218 160.203 266.231 158.693C269.564 157.021 273.208 156.322 276.924 156.42C280.408 156.51 284.299 157.129 287.108 159.337C287.608 159.725 288.048 160.144 288.427 160.59L289.204 158.019C289.012 157.537 288.906 157 288.906 156.405C288.906 152.461 293.585 151.087 296.785 151.087C299.957 151.087 304.866 152.472 304.661 156.632L304.8 157.072C305.291 156.898 305.793 156.755 306.303 156.646L318.424 156.578L319.452 152.996L330.975 153.253C332.602 151.693 335.378 151.087 337.504 151.087C341.543 151.087 346.757 153.705 345.393 158.447C348.67 156.71 352.783 156.121 356.349 156.121C360.594 156.121 366.306 156.894 368.704 160.881C369.535 160.099 370.484 159.424 371.53 158.852C374.045 157.475 376.731 156.519 379.547 156.132C380.047 156.055 380.537 155.999 381.042 155.959C381.532 155.923 382.022 155.902 382.514 155.902C385.611 155.902 389.367 156.268 391.917 158.202C394.09 159.852 395.202 161.566 395.68 163.751L395.744 163.48C396.598 159.373 399.447 156.91 403.613 156.491L403.758 156.478L418.883 156.397L416.342 167.726H413.899C413.416 167.726 411.794 167.57 410.933 167.612C410.227 172.395 407.489 177.413 402.171 177.825L402.053 177.835H386.502L386.962 176.14C384.525 177.013 381.897 177.457 379.403 177.612L379.308 177.619H379.213C379.035 177.619 378.858 177.622 378.681 177.63C378.405 177.644 378.13 177.651 377.854 177.651C374.749 177.651 371.688 177.045 368.977 175.484C368.453 175.183 367.984 174.85 367.573 174.485ZM169.549 159.47L168.422 164.491C169.243 163.311 170.378 162.323 171.828 161.53C174.13 160.269 176.466 159.476 178.836 159.151C179.257 159.085 179.681 159.036 180.107 159.004C180.519 158.972 180.932 158.955 181.346 158.955C184.91 158.955 187.429 159.514 188.904 160.633C191.282 162.44 191.741 164.089 191.753 166.833L178.954 166.939L179.305 165.173L182.583 164.759C180.469 163.574 176.567 163.892 175.709 166.418C175.372 167.41 175.56 168.204 176.226 168.78C176.891 169.357 177.84 169.607 179.073 169.644C181.914 169.732 182.117 168.684 182.777 167.624L191.456 167.86C189.078 172.663 182.985 174.258 178.046 174.566C177.813 174.566 177.586 174.57 177.365 174.583C177.146 174.593 176.92 174.597 176.686 174.597C173.821 174.597 171.369 174.012 169.331 172.839C167.291 171.665 166.606 169.776 167.274 167.168C167.281 167.145 167.281 167.119 167.276 167.086C167.269 167.054 167.273 167.017 167.287 166.972C167.301 166.929 167.305 166.891 167.298 166.858C167.293 166.825 167.293 166.797 167.3 166.777C167.543 166.018 167.875 165.318 168.3 164.673C166.359 164.653 163.448 163.97 162.513 166.104C162.258 169.597 160.552 174.46 156.417 174.782H144.976L146.261 170.048H149.476C150.876 170.068 151.808 169.386 152.274 168.004L153.207 164.145C153.771 161.358 155.502 159.82 158.401 159.53L169.549 159.471L169.549 159.47ZM209.674 159.63H198.13C195.233 160.254 193.607 161.948 192.946 164.816L189.963 174.805H200.291L202.687 166.66C203.026 165.258 203.791 164.555 204.847 164.328H208.628L209.674 159.63ZM247.089 168.779L245.561 174.348C244.817 174.408 244.151 174.431 243.558 174.416C240.044 174.325 237.3 173.534 235.344 172.054C233.387 170.573 232.705 168.765 233.293 166.624C233.865 164.542 235.535 162.809 238.302 161.423C241.07 160.036 244.152 159.382 247.549 159.471C251.328 159.57 254.129 160.326 255.935 161.744C257.748 163.155 258.326 165.041 257.681 167.389L255.75 174.427L246.972 174.196L248.799 167.549C249.007 166.791 248.867 166.18 248.393 165.71C247.915 165.244 247.168 164.996 246.151 164.97C245.23 164.945 244.373 165.131 243.588 165.528C242.802 165.922 242.331 166.403 242.176 166.97C242.01 167.569 242.182 168.062 242.683 168.467C243.187 168.864 243.91 169.076 244.849 169.102C245.609 169.122 246.366 169.013 247.089 168.779ZM223.324 167.498L232.082 167.524C231.173 169.591 229.371 171.263 226.682 172.539C223.984 173.811 221.02 174.407 217.763 174.323C214.333 174.232 211.663 173.425 209.764 171.894C207.867 170.364 207.257 168.537 207.939 166.403C208.586 164.381 210.332 162.678 213.182 161.301C216.035 159.923 219.135 159.282 222.478 159.369C225.399 159.446 227.793 160.076 229.661 161.269C231.541 162.459 232.462 163.939 232.454 165.707L223.511 165.675C222.94 165.042 222.069 164.712 220.893 164.681C219.893 164.655 219.006 164.836 218.237 165.221C217.468 165.609 216.985 166.109 216.788 166.724C216.588 167.348 216.766 167.876 217.312 168.317C217.857 168.759 218.637 168.991 219.653 169.018C221.133 169.056 222.36 168.548 223.324 167.498Z" fill="#FF0000"/>
<path fill-rule="evenodd" clip-rule="evenodd" d="M140.083 146.666H139.695C139.307 147.055 136.013 146.085 135.044 145.698C133.107 145.504 131.362 145.311 129.231 145.311H125.162C111.211 145.311 95.9031 151.898 87.3768 157.517C82.1455 161.198 77.8821 164.299 73.6193 168.756C71.2944 170.888 69.7438 173.019 67.6129 175.345C66.4504 176.507 62.575 181.931 61.9937 182.319L62.1876 182.513C62.1876 182.513 64.7066 179.606 65.0939 179.413C66.0624 178.251 67.0316 177.282 68.0009 176.312C69.744 174.763 72.6508 171.855 74.3945 170.5C79.2394 167.012 83.1141 163.332 88.3461 160.23C94.1593 156.936 97.6467 154.805 104.429 152.092C108.692 150.542 119.349 148.411 125.162 148.411C131.169 148.411 136.4 149.573 140.47 151.511C142.989 152.867 143.764 153.642 145.895 155.192C147.639 156.355 149.383 159.455 150.352 160.036C150.352 152.673 144.926 149.379 139.888 147.055L140.083 146.666Z" fill="#757776"/>
<path fill-rule="evenodd" clip-rule="evenodd" d="M89.5088 185.225C93.5784 177.282 98.6156 170.887 105.01 165.266C107.917 162.555 111.405 159.648 114.893 157.517C116.055 156.548 125.744 150.928 125.744 150.735C123.225 150.735 119.349 150.735 117.606 151.51C115.667 152.673 113.729 153.254 111.793 154.417C107.917 156.936 105.01 158.679 101.135 161.392C96.2913 165.075 86.9898 174.568 85.4401 180.963L89.5088 185.225ZM128.456 142.209L128.069 140.078H122.062L128.456 142.209ZM136.4 134.653C137.758 134.653 139.695 134.653 141.052 134.458C142.989 134.07 142.989 134.265 142.989 136.783L136.4 134.653ZM139.695 146.666H140.083C142.02 146.666 145.895 144.922 148.802 144.922H151.127C154.034 144.922 155.584 145.89 157.716 146.278C157.716 143.953 156.746 138.14 155.584 137.171C154.615 136.396 148.802 134.458 147.058 134.458L145.508 128.839C144.733 128.839 142.408 128.258 141.052 128.064C139.501 127.677 138.338 127.483 136.4 127.289C133.495 126.708 130.007 126.514 126.518 126.514H123.806C111.598 126.514 98.035 130.389 89.5088 134.265C84.2768 136.784 80.5953 138.915 75.9454 141.822C74.2008 142.79 71.1014 144.923 69.7448 146.084C68.9696 146.86 67.8071 147.635 66.8379 148.409C66.2566 148.991 64.513 150.541 63.9316 150.928L64.125 151.123L64.3189 150.928C64.513 150.928 64.513 150.735 64.7069 150.735C64.9002 150.541 65.0941 150.541 65.2882 150.347C65.6762 149.96 66.0627 149.766 66.4499 149.573C67.2252 148.991 68.1943 148.603 68.9696 148.023C70.7141 147.054 72.4579 146.084 74.2008 145.116C78.077 143.178 81.3706 141.822 85.4401 140.078C91.6399 137.559 103.654 134.265 112.18 134.265H116.83C119.349 134.265 121.674 134.459 123.806 134.653C125.744 134.845 128.844 135.815 130.2 135.815C131.363 140.658 130.394 139.497 135.045 141.047C137.176 141.822 136.788 140.853 138.533 142.597C139.307 143.565 139.695 145.116 139.695 146.666V146.666Z" fill="#757776"/>
<path d="M276.019 192.643L273.371 181.244H277.712L279.44 189.683L287.573 181.244H291.818L280.289 192.643H276.019ZM297.203 190.016L300.849 190.38C300.05 191.179 299.047 191.787 297.835 192.203C296.624 192.623 295.227 192.829 293.651 192.829C291.156 192.829 289.491 192.363 288.658 191.423C288.004 190.672 287.899 189.722 288.343 188.578C288.877 187.208 289.914 186.135 291.461 185.36C293.003 184.584 294.728 184.199 296.631 184.199C298.764 184.199 300.29 184.603 301.21 185.417C302.126 186.229 302.234 187.471 301.532 189.146H292.015C291.79 189.793 291.9 190.297 292.347 190.657C292.79 191.017 293.455 191.197 294.327 191.197C294.922 191.197 295.457 191.105 295.933 190.919C296.413 190.731 296.84 190.43 297.203 190.016H297.203ZM298.279 187.808C298.497 187.173 298.403 186.693 297.992 186.364C297.58 186.035 296.983 185.871 296.208 185.871C295.379 185.871 294.629 186.045 293.952 186.393C293.279 186.738 292.829 187.211 292.605 187.808H298.279ZM316.321 192.643H312.525L314.165 188.428C314.511 187.538 314.652 186.961 314.592 186.699C314.531 186.438 314.344 186.233 314.037 186.087C313.728 185.945 313.318 185.871 312.808 185.871C312.146 185.871 311.517 185.973 310.914 186.18C310.311 186.39 309.845 186.664 309.518 187.006C309.193 187.349 308.849 187.981 308.489 188.904L307.034 192.643H303.239L306.451 184.387H309.975L309.503 185.6C311.12 184.665 312.88 184.199 314.781 184.199C315.616 184.199 316.353 184.286 316.976 184.459C317.6 184.635 318.042 184.856 318.291 185.125C318.542 185.395 318.671 185.699 318.676 186.043C318.687 186.384 318.567 186.873 318.319 187.511L316.321 192.643ZM329.502 190.016L333.15 190.38C332.351 191.179 331.347 191.787 330.134 192.203C328.924 192.623 327.528 192.829 325.95 192.829C323.456 192.829 321.792 192.363 320.957 191.423C320.305 190.672 320.198 189.722 320.644 188.578C321.176 187.208 322.214 186.135 323.762 185.36C325.304 184.584 327.029 184.199 328.93 184.199C331.064 184.199 332.59 184.603 333.511 185.417C334.426 186.229 334.535 187.471 333.832 189.146H324.314C324.091 189.793 324.199 190.297 324.648 190.657C325.09 191.017 325.755 191.197 326.626 191.197C327.222 191.197 327.757 191.105 328.233 190.919C328.713 190.731 329.139 190.43 329.502 190.016ZM330.58 187.808C330.798 187.173 330.704 186.693 330.293 186.364C329.88 186.035 329.283 185.871 328.509 185.871C327.679 185.871 326.929 186.045 326.253 186.393C325.579 186.738 325.129 187.211 324.906 187.808H330.58ZM334.041 192.643L334.703 190.941L341.462 187.388C342.57 186.807 343.385 186.396 343.899 186.151C343.455 186.168 342.87 186.177 342.149 186.18L337.073 186.197L337.777 184.387H349.643L349.04 185.934L342.14 189.572L339.738 190.779C340.804 190.742 341.468 190.723 341.72 190.723H347.596L346.849 192.643H334.041ZM358.855 192.643L359.335 191.408C358.637 191.848 357.815 192.196 356.866 192.451C355.917 192.703 354.966 192.829 354.022 192.829C353.055 192.829 352.242 192.706 351.568 192.468C350.899 192.222 350.478 191.881 350.303 191.438C350.133 191 350.201 190.388 350.502 189.611L352.535 184.387H356.329L354.854 188.18C354.404 189.343 354.198 190.055 354.237 190.316C354.274 190.576 354.447 190.785 354.756 190.938C355.064 191.091 355.507 191.166 356.074 191.166C356.726 191.166 357.345 191.065 357.937 190.86C358.529 190.654 358.979 190.403 359.285 190.1C359.593 189.793 359.98 189.051 360.438 187.869L361.793 184.387H365.589L362.377 192.643H358.855ZM375.642 190.016L379.288 190.38C378.489 191.179 377.485 191.787 376.274 192.203C375.062 192.623 373.669 192.829 372.089 192.829C369.594 192.829 367.93 192.363 367.097 191.423C366.443 190.672 366.337 189.722 366.782 188.578C367.315 187.208 368.355 186.135 369.903 185.36C371.445 184.584 373.17 184.199 375.069 184.199C377.204 184.199 378.73 184.603 379.649 185.417C380.566 186.229 380.675 187.471 379.973 189.146H370.455C370.229 189.793 370.34 190.297 370.786 190.657C371.23 191.017 371.893 191.197 372.766 191.197C373.362 191.197 373.895 191.105 374.374 190.919C374.853 190.731 375.28 190.43 375.642 190.016ZM376.718 187.808C376.937 187.173 376.842 186.693 376.431 186.364C376.02 186.035 375.423 185.871 374.648 185.871C373.817 185.871 373.067 186.045 372.391 186.393C371.719 186.738 371.267 187.211 371.044 187.808H376.718ZM381.705 192.643L386.139 181.244H389.936L385.503 192.643H381.705ZM394.464 186.905L391.158 186.547C391.855 185.748 392.75 185.16 393.845 184.773C394.943 184.393 396.42 184.199 398.286 184.199C399.982 184.199 401.197 184.315 401.938 184.546C402.672 184.778 403.144 185.071 403.344 185.425C403.542 185.782 403.461 186.432 403.09 187.381L402.056 189.931C401.776 190.657 401.626 191.192 401.616 191.537C401.603 191.881 401.69 192.25 401.869 192.643H398.11C398.07 192.498 398.029 192.284 397.996 191.999C397.986 191.868 397.974 191.784 397.962 191.741C397.17 192.105 396.374 192.376 395.565 192.559C394.753 192.739 393.924 192.83 393.092 192.829C391.617 192.829 390.539 192.598 389.869 192.141C389.195 191.678 388.998 191.094 389.272 190.388C389.453 189.924 389.81 189.507 390.339 189.141C390.867 188.774 391.522 188.495 392.295 188.303C393.065 188.108 394.141 187.938 395.513 187.794C397.36 187.6 398.661 187.42 399.408 187.256L399.492 187.039C399.655 186.615 399.591 186.32 399.301 186.139C399.012 185.961 398.368 185.871 397.369 185.871C396.689 185.871 396.134 185.947 395.696 186.102C395.259 186.253 394.849 186.521 394.464 186.905ZM398.856 188.679C398.334 188.77 397.52 188.882 396.412 189.014C395.312 189.144 394.574 189.272 394.197 189.393C393.626 189.596 393.277 189.853 393.157 190.163C393.036 190.47 393.133 190.733 393.444 190.957C393.754 191.179 394.212 191.29 394.826 191.29C395.514 191.29 396.215 191.161 396.938 190.903C397.475 190.707 397.869 190.465 398.123 190.179C398.296 189.993 398.482 189.637 398.684 189.115L398.856 188.679Z" fill="#030303"/>
<path d="M276.387 168.778L274.856 174.347C274.115 174.408 273.449 174.431 272.854 174.415C269.34 174.324 266.596 173.534 264.641 172.054C262.683 170.572 262.001 168.764 262.59 166.623C263.161 164.541 264.831 162.809 267.599 161.423C270.366 160.035 273.45 159.382 276.847 159.47C280.626 159.569 283.427 160.325 285.229 161.743C287.044 163.155 287.624 165.04 286.979 167.388L285.046 174.426L276.27 174.196L278.096 167.548C278.304 166.791 278.165 166.179 277.688 165.709C277.213 165.243 276.466 164.995 275.449 164.969C274.528 164.945 273.671 165.131 272.885 165.527C272.097 165.921 271.626 166.403 271.471 166.97C271.307 167.568 271.479 168.062 271.979 168.467C272.485 168.863 273.208 169.075 274.144 169.101C274.904 169.121 275.663 169.012 276.387 168.778ZM364.432 174.47L366.506 166.061C367.577 161.711 363.848 159.173 356.35 159.173C348.798 159.173 343.818 161.711 342.744 166.061L340.67 174.47H348.776L350.709 166.632C350.958 165.617 351.257 165.076 351.808 164.632C352.626 163.997 353.869 163.648 355.249 163.648C356.406 163.648 357.381 163.934 357.928 164.41C358.471 164.887 358.558 165.425 358.277 166.569L356.328 174.47H364.432ZM415.066 159.47L413.899 164.672C411.958 164.672 408.98 163.939 408.03 166.103C407.777 169.596 406.07 174.46 401.934 174.781H390.493L391.78 170.048H394.993C396.394 170.068 397.326 169.386 397.792 168.004L398.725 164.144C399.289 161.358 401.021 159.819 403.918 159.529L415.066 159.47ZM337.504 154.14C340.17 154.14 342.332 155.154 342.332 156.404C342.332 157.655 340.17 158.669 337.505 158.669C334.838 158.669 332.676 157.655 332.676 156.404C332.676 155.154 334.838 154.14 337.505 154.14H337.504ZM296.785 154.14C299.454 154.14 301.615 155.154 301.615 156.404C301.615 157.655 299.454 158.669 296.785 158.669C294.12 158.669 291.958 157.655 291.958 156.404C291.958 155.154 294.12 154.14 296.785 154.14ZM321.737 156.1L316.538 174.222H325.52L330.854 156.303L321.737 156.1ZM332.879 159.684L328.49 174.222H337.675L341.86 159.684H332.879ZM291.89 159.684L287.501 174.222H296.686L300.871 159.684H291.89ZM392.922 166.833L380.123 166.938L380.474 165.173L383.752 164.759C381.638 163.573 377.735 163.892 376.877 166.417C376.541 167.41 376.728 168.203 377.394 168.78C378.059 169.357 379.008 169.606 380.242 169.644C383.083 169.732 383.286 168.683 383.945 167.623L392.624 167.86C390.247 172.663 384.153 174.258 379.213 174.565C378.987 174.564 378.76 174.57 378.534 174.582C378.307 174.592 378.081 174.597 377.854 174.597C374.99 174.597 372.538 174.011 370.497 172.839C368.458 171.664 367.774 169.775 368.44 167.167C368.448 167.141 368.45 167.113 368.445 167.085C368.438 167.053 368.44 167.016 368.455 166.971C368.47 166.928 368.473 166.89 368.466 166.857C368.461 166.824 368.461 166.797 368.467 166.776C369.185 164.537 370.695 162.789 372.996 161.529C375.299 160.269 377.634 159.475 380.004 159.15C380.426 159.085 380.849 159.035 381.275 159.003C381.702 158.971 382.114 158.954 382.515 158.954C386.078 158.954 388.597 159.514 390.073 160.632C392.451 162.44 392.91 164.088 392.923 166.833L392.922 166.833ZM318.489 159.63H306.945C304.047 160.253 302.422 161.948 301.761 164.815L298.779 174.804H309.105L311.502 166.66C311.84 165.258 312.606 164.554 313.663 164.327H317.442L318.489 159.63Z" fill="white"/>
</svg>
