<svg width="480" height="320" viewBox="0 0 480 320" fill="none" xmlns="http://www.w3.org/2000/svg">
<path d="M374.1 145.543C374.1 146.208 374.1 146.873 374.432 147.537C375.761 150.528 378.752 152.522 382.74 150.861C383.737 150.528 410.325 139.894 410.325 139.894C410.325 139.894 400.022 166.481 399.358 167.478C397.696 171.134 399.69 174.789 402.681 175.786C403.346 176.119 404.01 176.119 404.675 176.119C407.334 176.119 409.328 174.457 410.657 171.798C410.989 171.466 423.951 135.573 424.283 134.576C424.283 133.911 424.615 132.914 424.615 131.917C424.615 130.256 423.951 128.594 422.621 127.265C421.292 125.935 419.63 125.271 417.969 125.271C416.972 125.271 416.307 125.271 415.31 125.603C414.978 125.935 381.411 138.564 378.42 139.561C375.429 140.558 374.1 142.885 374.1 145.543Z" fill="#E41E26"/>
<path d="M75.6576 194.065L73.6635 187.75H63.0286L61.0346 194.065H55.3848L65.355 164.154H71.3371L81.3074 194.065H75.6576ZM68.3461 170.801L64.6903 183.097H72.3342L68.3461 170.801ZM103.574 190.077C101.58 193.732 97.9244 194.729 93.9363 194.729C88.9512 194.729 84.2984 192.735 82.6367 187.418C82.3044 186.421 82.3044 185.091 82.3044 184.094H87.9542C87.9542 184.759 88.2865 185.756 88.6189 186.421C89.6159 188.747 91.6099 189.744 94.2687 189.744C96.2627 189.744 98.9214 189.08 98.9214 186.421C98.9214 185.756 98.9214 185.424 98.5891 185.091C97.9244 183.762 95.598 183.097 94.2687 182.433C91.6099 181.436 88.6189 180.106 86.2925 178.445C84.2984 176.783 83.3014 174.789 83.3014 172.13C83.3014 166.48 88.2865 163.489 93.604 163.489C97.2597 163.489 101.248 165.151 102.91 168.807C103.574 170.136 103.574 171.465 103.907 172.795H98.2567C98.2567 170.136 95.9304 168.474 93.2716 168.474C91.2776 168.474 88.9512 169.471 88.9512 171.798C88.9512 173.792 91.6099 174.789 93.2716 175.454C95.9304 176.451 99.2538 177.448 101.58 179.109C103.907 180.771 104.571 182.765 104.571 185.424C104.571 187.085 104.239 188.747 103.574 190.077ZM108.559 164.154H114.209V194.065H108.559V164.154ZM137.473 194.065L135.479 187.75H124.844L122.85 194.065H116.868L126.838 164.154H132.82L143.123 194.065H137.473ZM130.161 170.801L126.506 183.097H134.15L130.161 170.801ZM163.396 194.065L150.767 173.127V194.065H145.449V164.154H151.431L163.728 185.091V164.154H169.045V194.065H163.396ZM191.312 194.065L189.318 187.75H178.683L176.689 194.065H170.707L180.677 164.154H186.659L196.962 194.065H191.312ZM184.333 170.801L180.677 183.097H188.321L184.333 170.801ZM230.861 194.065L228.867 187.75H218.232L216.238 194.065H210.256L220.226 164.154H226.208L236.178 194.065H230.861ZM223.549 170.801L219.894 183.097H227.537L223.549 170.801ZM239.834 164.154H245.484V194.065H239.834V164.154ZM266.754 194.065L260.771 182.765H256.783V194.065H251.134V164.154H259.11C261.436 164.154 264.095 164.154 266.421 164.819C270.077 166.148 272.071 169.139 272.071 173.127C272.071 176.783 270.409 179.774 266.754 181.436L273.733 193.732H266.754V194.065ZM263.763 169.804C262.433 169.139 260.771 169.139 259.442 169.139H256.783V177.78H260.439C263.43 177.78 266.089 176.783 266.089 173.459C266.089 171.798 265.092 170.468 263.763 169.804ZM276.391 194.065V164.154H282.041V189.08H295.003V194.065H276.391ZM298.326 164.154H303.976V194.065H298.326V164.154ZM327.24 194.065L314.943 173.127V194.065H309.293V164.154H315.608L327.572 185.091V164.154H332.889V194.065H327.24ZM338.207 194.065V164.154H356.818V169.139H343.857V176.118H355.821V181.103H343.857V189.08H357.483V194.065H338.207ZM380.414 190.077C378.42 193.732 374.764 194.729 370.776 194.729C365.791 194.729 361.138 192.735 359.477 187.418C359.144 186.421 359.144 185.091 359.144 184.094H364.794C364.794 184.759 365.126 185.756 365.459 186.421C366.456 188.747 368.782 189.744 371.109 189.744C373.103 189.744 375.761 189.08 375.761 186.421C375.761 185.756 375.429 185.424 375.429 185.091C374.764 183.762 372.438 182.765 371.109 182.433C368.45 181.436 365.459 180.106 363.132 178.445C361.138 176.783 360.141 174.789 360.141 172.13C360.141 166.48 365.126 163.489 370.444 163.489C374.1 163.489 378.088 165.151 379.749 168.807C380.414 170.136 380.414 171.465 380.747 172.795H375.097C375.097 170.136 372.77 168.474 370.112 168.474C368.118 168.474 365.791 169.471 365.791 171.798C365.791 173.792 368.45 174.789 370.112 175.454C372.77 176.451 376.094 177.448 378.42 179.109C380.746 180.771 381.411 182.765 381.411 185.424C381.411 187.085 381.079 188.747 380.414 190.077Z" fill="#737272"/>
</svg>
