<svg width="480" height="320" viewBox="0 0 480 320" fill="none" xmlns="http://www.w3.org/2000/svg">
<path d="M288.046 179.108C268.866 188.436 254.934 207.702 256.198 221.766C180.481 199.287 110.026 207.733 58.9374 233.23C55.9765 234.709 53.2071 234.435 57.9079 231.655C109.63 201.064 209.188 173.969 288.043 179.108" fill="#86D0F4"/>
<path d="M424.615 150.43L421.902 163.18C421.902 163.18 421.104 168.911 417.073 171.005C413.04 173.101 406.434 173.085 406.434 173.085H334.958L339.203 153.112C332.135 168.655 313.651 176.038 280.982 176.038C265.13 176.038 248.66 174.676 239.639 167.76L240.775 173.085H205.375L203.893 163.41H169.2L163.6 173.086H128.204L174.786 100.116C174.786 100.116 179.362 92.5632 182.942 90.7735C187.053 88.7172 194.544 88.8338 194.544 88.8338H222.815L235.366 147.715H273.435C272.951 150.547 273.611 152.436 275.697 153.732C277.924 154.913 281.456 155.504 286.649 155.504C297.032 155.504 300.467 152.673 301.318 148.661C301.845 146.182 300.839 143.705 296.503 142.995L259.714 137.331C243.957 134.854 239.238 125.413 241.747 113.615C246.386 91.7843 269.001 85.8838 296.374 85.8838C333.9 85.8838 347.276 95.679 344.669 113.497H305.964C306.692 110.074 305.136 107.948 302.319 106.77C299.645 105.471 295.969 105 292.311 105C282.398 105 278.451 107.477 277.697 111.018C277.198 113.378 277.932 114.913 281.135 115.384L319.646 121.284C333.226 123.356 341.551 129.151 342.131 139.356L352.871 88.8338H386.145L373.049 150.43H424.615ZM218.372 130.446C218.372 130.446 207.427 125.203 194.126 125.971C173.985 127.137 167.015 139.759 167.015 139.759C167.015 139.759 175.552 133.771 191.157 134.524C201.979 135.048 208.263 139.062 208.263 139.062C208.263 139.062 209.686 134.527 212.245 132.699C214.919 130.789 218.372 130.445 218.372 130.445M380.62 198.665C380.62 198.641 381.539 194.657 382.663 189.813C383.362 186.805 384.058 183.796 384.751 180.786L384.796 180.566H391.265C397.39 180.566 397.733 180.573 397.694 180.706C397.671 180.783 397.522 181.422 397.363 182.125C397.258 182.599 397.148 183.072 397.034 183.544C396.997 183.675 396.706 183.683 392.366 183.683H387.736L387.694 183.864C387.67 183.962 387.453 184.906 387.21 185.962C386.968 187.016 386.75 187.943 386.727 188.02C386.686 188.151 386.923 188.16 390.925 188.16C394.605 188.16 395.167 188.175 395.167 188.277C395.167 188.342 395.041 188.926 394.888 189.576L394.566 190.937L394.524 191.117H390.294C387.901 191.117 386.045 191.148 386.02 191.188C385.976 191.259 385.016 195.415 385.016 195.532C385.016 195.565 387.096 195.593 389.639 195.593H394.262L393.901 197.151L393.539 198.71H387.08C383.526 198.71 380.62 198.69 380.62 198.665ZM360.957 198.665C360.957 198.641 361.877 194.657 363 189.813C363.7 186.805 364.396 183.796 365.088 180.786L365.134 180.566H368.91L371.582 186.718C373.052 190.101 374.267 192.857 374.282 192.842C374.298 192.827 374.95 190.066 375.732 186.708L377.153 180.603L378.966 180.582C379.978 180.569 380.779 180.592 380.779 180.631C380.779 180.708 376.725 198.342 376.655 198.568C376.615 198.7 376.47 198.708 374.726 198.689L372.841 198.667L370.26 192.712C369.368 190.649 368.472 188.587 367.571 186.528C367.471 186.314 367.379 186.668 366.2 191.804C365.725 193.872 365.25 195.94 364.775 198.008L364.613 198.707H362.785C361.78 198.707 360.957 198.687 360.957 198.662V198.665ZM353.364 198.665C353.364 198.641 354.283 194.657 355.407 189.813C356.106 186.805 356.802 183.796 357.495 180.786L357.54 180.566H359.368C360.374 180.566 361.196 180.589 361.196 180.617C361.196 180.645 360.261 184.706 359.119 189.641C357.975 194.576 357.04 198.636 357.04 198.662C357.04 198.688 356.213 198.71 355.202 198.71C354.191 198.71 353.364 198.69 353.364 198.665V198.665ZM337.777 198.665C337.777 198.641 338.697 194.657 339.82 189.813C340.52 186.805 341.216 183.796 341.908 180.786L341.953 180.566H345.618L345.567 180.826C345.54 180.969 344.77 184.305 343.857 188.24C342.944 192.174 342.212 195.42 342.23 195.453C342.248 195.486 344.221 195.513 346.614 195.513C349.008 195.513 350.965 195.534 350.965 195.559C350.965 195.617 350.334 198.381 350.277 198.57C350.238 198.701 349.87 198.71 344.006 198.71C340.58 198.71 337.777 198.69 337.777 198.665ZM331.364 189.168C332.458 188.889 333.375 188.235 333.751 187.466C333.92 187.121 333.978 186.867 334.005 186.359C334.076 185.005 333.555 184.297 332.188 183.892C331.829 183.786 331.318 183.763 329.231 183.764H326.707L326.086 186.501C325.744 188.006 325.465 189.27 325.466 189.308C325.468 189.346 326.67 189.359 328.166 189.336C330.268 189.304 330.974 189.267 331.364 189.168ZM319.633 198.667C319.633 198.615 323.703 180.906 323.762 180.701C323.801 180.564 324.021 180.558 328.412 180.587L333.022 180.616L333.841 180.829C335.921 181.372 337.211 182.528 337.674 184.264C337.854 184.938 337.851 186.487 337.669 187.232C337.203 189.138 335.717 190.65 333.613 191.359C332.809 191.63 331.993 191.764 330.8 191.822L329.698 191.876L332.189 194.913C333.56 196.584 334.824 198.122 334.998 198.33L335.314 198.71H330.909L327.978 195.073C326.366 193.073 325.023 191.436 324.995 191.436C324.966 191.436 324.59 192.992 324.16 194.893C323.729 196.795 323.357 198.431 323.334 198.53L323.293 198.71H321.463C320.457 198.71 319.633 198.691 319.633 198.667ZM312.04 198.665C312.04 198.641 312.96 194.657 314.083 189.813C314.782 186.805 315.478 183.796 316.171 180.786L316.216 180.566H318.044C319.05 180.566 319.873 180.589 319.873 180.617C319.873 180.645 318.937 184.706 317.795 189.641C316.652 194.576 315.717 198.636 315.717 198.662C315.717 198.688 314.889 198.71 313.878 198.71C312.867 198.71 312.04 198.69 312.04 198.665V198.665ZM305.246 192.13C305.246 192.027 304.994 190.313 304.686 188.319C304.379 186.326 304.127 184.658 304.127 184.612C304.127 184.566 304.078 184.581 304.019 184.645C303.901 184.774 299.571 192.196 299.571 192.269C299.571 192.295 300.848 192.315 302.409 192.315H305.246V192.13ZM291.751 198.642C291.766 198.603 294.224 194.522 297.213 189.572L302.648 180.571H306.898L308.392 189.543C309.213 194.477 309.884 198.56 309.883 198.614C309.881 198.691 309.468 198.715 308.085 198.715H306.288L306.25 198.534C306.228 198.436 306.118 197.726 306.005 196.956C305.928 196.415 305.845 195.875 305.756 195.337L305.712 195.116L297.876 195.158L295.8 198.715H293.762C292.641 198.715 291.737 198.683 291.751 198.646V198.642ZM402.998 198.833C401.038 198.511 399.413 197.658 398.419 196.431C397.702 195.544 397.243 194.285 397.243 193.199V192.715H400.819L400.857 193.295C400.941 194.58 401.862 195.526 403.377 195.882C404.091 196.049 405.508 195.997 406.066 195.783C406.567 195.59 407.136 195.089 407.324 194.677C407.522 194.241 407.522 193.349 407.326 192.915C407.022 192.247 406.554 191.96 404.077 190.917C401.648 189.895 401.179 189.632 400.441 188.885C399.476 187.91 399.085 186.973 399.083 185.626C399.082 184.748 399.194 184.253 399.577 183.45C400.055 182.45 400.851 181.678 401.967 181.135C403.268 180.502 403.93 180.368 405.756 180.37C407.046 180.37 407.379 180.399 407.969 180.547C409.425 180.912 410.481 181.498 411.37 182.434C412.289 183.4 412.745 184.55 412.748 185.901L412.75 186.481H409.073L409.072 185.901C409.072 185.303 408.878 184.746 408.536 184.356C408.218 183.994 407.604 183.601 407.131 183.456C405.395 182.925 403.608 183.381 403.027 184.504C402.855 184.838 402.797 185.592 402.915 185.952C403.163 186.702 403.672 187.03 406.266 188.106C407.371 188.565 408.481 189.061 408.733 189.209C409.389 189.594 410.516 190.734 410.776 191.277C411.11 191.974 411.24 192.595 411.245 193.515C411.253 194.946 410.867 195.989 409.975 196.952C409.13 197.866 408.05 198.453 406.655 198.76C405.855 198.935 403.865 198.975 402.999 198.833L402.998 198.833Z" fill="#00529B"/>
<path d="M277.064 223.257C277.095 223.122 278.06 218.952 279.21 213.99L281.3 204.969H283.161C284.601 204.969 285.021 204.99 285.02 205.062C285.019 205.114 284.063 209.275 282.895 214.31L280.772 223.462L277.009 223.502L277.064 223.257ZM284.883 223.182C284.964 222.824 288.972 205.404 289.036 205.133L289.077 204.961L293.82 204.988C298.329 205.015 298.595 205.024 299.201 205.173C300.539 205.503 301.314 205.912 302.126 206.719C303.043 207.631 303.408 208.613 303.414 210.183C303.423 212.48 302.484 214.163 300.54 215.34C299.405 216.027 298.118 216.361 296.366 216.424C295.694 216.448 295.154 216.496 295.166 216.53C295.183 216.58 297.979 220.005 300.319 222.843L300.861 223.5H296.356L293.336 219.751C291.676 217.69 290.305 216.016 290.289 216.031C290.274 216.046 289.882 217.725 289.419 219.76L288.576 223.462L284.811 223.502L284.883 223.182ZM297.156 213.646C298.27 213.274 299.074 212.575 299.389 211.701C299.561 211.224 299.583 210.334 299.435 209.825C299.226 209.104 298.42 208.486 297.415 208.277C297.172 208.226 296.061 208.194 294.547 208.194H292.077L292.036 208.363C291.823 209.245 290.798 213.774 290.798 213.832C290.798 213.881 291.78 213.897 293.668 213.879L296.538 213.852L297.156 213.646ZM303.398 223.256C303.429 223.121 304.395 218.952 305.544 213.99L307.634 204.969H314.221C318.204 204.969 320.808 204.996 320.808 205.038C320.808 205.148 320.128 208.069 320.086 208.135C320.066 208.168 317.927 208.195 315.333 208.195H310.617L310.565 208.439C310.536 208.573 310.314 209.54 310.071 210.588C309.828 211.637 309.63 212.54 309.63 212.595C309.63 212.679 310.381 212.697 313.944 212.697C316.773 212.697 318.258 212.722 318.258 212.772C318.258 212.813 318.106 213.492 317.92 214.28C317.734 215.068 317.583 215.727 317.583 215.742C317.583 215.758 315.619 215.78 313.218 215.791L308.853 215.81L308.393 217.836C308.139 218.95 307.908 219.954 307.879 220.068L307.826 220.274H312.554C315.155 220.274 317.283 220.299 317.283 220.331C317.283 220.361 317.124 221.087 316.931 221.943L316.579 223.5H303.344L303.398 223.256ZM319.829 223.256L321.974 213.99L324.064 204.969H325.925C327.174 204.969 327.786 204.994 327.786 205.047C327.786 205.091 327.009 208.479 326.06 212.577C325.111 216.676 324.335 220.067 324.335 220.114C324.335 220.177 325.522 220.199 328.823 220.199H333.31L332.93 221.849L332.55 223.499L319.774 223.501L319.829 223.257V223.256ZM334.626 223.43C334.639 223.392 337.149 219.223 340.203 214.166L345.755 204.97L350.106 204.969L351.632 214.103C352.471 219.127 353.174 223.296 353.193 223.368C353.227 223.491 353.105 223.499 351.357 223.499H349.484L349.404 223.03C349.305 222.418 349.21 221.805 349.119 221.191L348.913 219.822L340.881 219.86L338.777 223.493L336.689 223.497C335.444 223.498 334.611 223.472 334.626 223.43ZM348.429 216.937C348.473 216.892 347.269 209.018 347.218 209.023C347.168 209.026 342.686 216.734 342.654 216.869C342.634 216.955 343.1 216.973 345.511 216.973C347.096 216.973 348.409 216.956 348.428 216.937H348.429ZM355.391 223.257C355.421 223.122 356.387 218.952 357.536 213.99L359.627 204.969H363.481L363.851 205.813C364.055 206.277 365.282 209.095 366.578 212.075C367.874 215.055 368.957 217.469 368.984 217.439C369.012 217.41 369.664 214.667 370.435 211.346C371.206 208.024 371.854 205.23 371.877 205.137L371.917 204.969H373.79C375.538 204.969 375.66 204.977 375.624 205.1C375.602 205.172 374.654 209.282 373.515 214.235C372.376 219.186 371.427 223.297 371.405 223.369C371.369 223.49 371.21 223.501 369.439 223.499L367.512 223.497L364.774 217.167C363.268 213.685 362.026 210.845 362.014 210.856C362.002 210.867 361.341 213.709 360.545 217.17L359.098 223.463L355.335 223.503L355.391 223.257ZM375.497 223.261C375.528 223.125 376.494 218.952 377.644 213.99L379.734 204.969H383.226C386.922 204.969 387.545 205.011 388.779 205.348C389.531 205.554 390.878 206.215 391.485 206.676C392.866 207.725 393.8 209.264 394.191 211.133C394.419 212.224 394.418 214.045 394.188 215.194C393.413 219.08 390.654 222.006 386.793 223.034C385.266 223.441 385.24 223.443 380.179 223.478L375.44 223.51L375.497 223.261L375.497 223.261ZM385.317 220.06C387.729 219.438 389.533 217.659 390.246 215.198C390.479 214.394 390.584 213.197 390.497 212.338C390.3 210.396 389.186 209.053 387.244 208.414C386.761 208.255 386.558 208.239 384.73 208.213L382.743 208.183L381.362 214.135C380.603 217.408 379.966 220.131 379.947 220.187C379.917 220.271 380.321 220.282 382.303 220.254C384.433 220.224 384.761 220.202 385.317 220.059V220.06Z" fill="#86D0F4"/>
</svg>
