<svg width="480" height="320" viewBox="0 0 480 320" fill="none" xmlns="http://www.w3.org/2000/svg">
<path d="M424.615 149.802L421.922 162.691C421.922 162.691 421.125 168.455 417.145 170.562C413.164 172.668 406.551 172.668 406.551 172.668H335.396L339.621 152.528C332.579 168.145 314.209 175.644 281.693 175.644C265.894 175.644 249.544 174.28 240.543 167.339L241.645 172.669H206.435L204.965 162.878H170.428L164.856 172.669H129.646L176 99.1716C176 99.1716 180.531 91.6109 184.145 89.7518C188.248 87.6455 195.718 87.7688 195.718 87.7688H223.826L236.317 147.012H274.161C273.67 149.863 274.344 151.784 276.426 153.085C278.63 154.263 282.182 154.82 287.326 154.82C297.675 154.82 301.103 151.97 301.962 147.942C302.512 145.464 301.471 142.923 297.185 142.241L260.567 136.539C244.89 134.06 240.237 124.517 242.685 112.68C247.279 90.6822 269.813 84.7949 297.064 84.7949C334.417 84.7949 347.705 94.6482 345.133 112.62H306.617C307.35 109.149 305.759 107.043 303.002 105.865C300.37 104.564 296.696 104.13 293.022 104.13C283.163 104.13 279.244 106.609 278.448 110.203C277.958 112.62 278.632 114.107 281.877 114.604L320.21 120.553C333.744 122.66 342.011 128.423 342.561 138.772L353.277 87.8939H386.344L373.302 149.926H424.616V149.802H424.615ZM219.417 129.599C219.417 129.599 208.516 124.331 195.29 125.138C175.266 126.315 168.286 139.019 168.286 139.019C168.286 139.019 176.797 133.008 192.351 133.751C203.129 134.309 209.374 138.337 209.374 138.337C209.374 138.337 210.783 133.751 213.355 131.954C215.987 129.971 219.417 129.599 219.417 129.599Z" fill="#054C91"/>
<path d="M290.302 178.914C270.915 188.49 256.872 208.147 258.114 222.574C181.682 199.579 110.533 208.21 58.9557 234.293C55.9738 235.805 53.178 235.554 57.9619 232.655C110.16 201.406 210.701 173.622 290.302 178.914Z" fill="#87CEEE"/>
<path d="M302.91 179.891H306.697L309.553 196.608H305.518L304.959 192.861H297.448L294.715 196.608H290.494L302.91 179.891ZM304.463 189.69L303.657 184.214L299.745 189.69H304.463ZM316.693 180.064H320.603L315.762 196.665H311.851L316.693 180.064ZM325.074 180.064H331.593C334.262 180.064 336 180.582 337.242 181.678C338.173 182.542 338.607 183.637 338.607 185.021C338.607 188.019 336.621 190.151 332.834 190.901L335.876 196.55H331.468L328.674 191.247H325.757L324.204 196.55H320.293L325.074 180.064ZM330.226 188.134C332.709 188.134 334.571 187.211 334.571 185.425C334.571 184.848 334.386 184.445 334.014 184.099C333.516 183.637 332.647 183.407 331.405 183.407H328.117L326.75 188.192L330.226 188.134ZM343.637 180.064H347.547L343.698 193.322H352.638L351.644 196.665H338.794L343.637 180.064ZM359.778 180.064H363.688L358.847 196.665H354.935L359.778 180.064ZM368.219 180.064H371.883L377.097 190.613L380.139 180.064H384.05L379.207 196.665H375.918L370.517 185.77L367.351 196.665H363.439L368.219 180.064ZM388.272 180.064H401.618L400.626 183.292H391.189L390.197 186.693H398.514L397.522 189.863H389.202L388.209 193.38H397.769L396.776 196.608H383.304L388.272 180.064ZM399.82 193.841L402.738 191.535C404.103 192.976 405.655 193.725 407.766 193.725C409.38 193.725 410.497 193.034 410.497 191.996C410.497 191.19 409.877 190.729 407.456 189.806C405.159 188.883 403.049 187.788 403.049 185.309C403.049 181.908 406.339 179.833 410.188 179.833C413.23 179.833 415.403 180.813 416.893 182.312L414.161 184.848C412.795 183.695 411.616 183.061 409.878 183.061C408.202 183.061 407.271 183.925 407.271 184.732C407.271 185.655 407.954 186 410.436 186.923C412.92 187.846 414.721 188.999 414.721 191.419C414.721 194.878 411.43 196.954 407.581 196.954C404.227 196.896 401.557 195.858 399.82 193.841Z" fill="#054C91"/>
<path d="M281.609 204.631C283.352 204.361 285.114 204.226 286.878 204.227C288.961 204.227 290.509 204.455 291.848 205.136C293.187 205.716 294.17 206.801 294.17 208.239C294.17 210.383 292.294 211.745 290.122 212.275V212.351C292.056 212.855 293.277 214.192 293.277 216.059C293.277 217.875 292.116 219.213 290.539 220.095C288.843 221.054 286.312 221.457 282.978 221.457C280.716 221.457 278.901 221.331 277.919 221.155L281.609 204.631ZM282.681 218.557C283.225 218.61 283.772 218.635 284.318 218.632C286.64 218.632 288.753 217.851 288.753 215.958C288.753 214.268 287.086 213.763 285.091 213.763H283.752L282.681 218.557ZM284.407 211.115H285.836C288.187 211.115 289.795 210.257 289.795 208.819C289.795 207.583 288.605 207.054 286.968 207.054C286.223 207.054 285.628 207.104 285.3 207.18L284.407 211.115ZM308.248 214.142H301.104L300.181 218.254H308.188L307.504 221.357H295.211L299.021 204.354H310.897L310.182 207.457H302.622L301.789 211.09H308.933L308.248 214.142ZM314.409 204.354H318.696L315.6 218.178H323.309L322.594 221.357H310.6L314.409 204.354ZM340.424 220.575C338.876 221.004 336.466 221.534 333.935 221.534C331.167 221.534 328.904 220.928 327.238 219.667C325.631 218.456 324.707 216.589 324.707 214.42C324.707 211.24 326.256 208.491 328.816 206.65C331.078 205.06 334.173 204.178 337.656 204.178C340.275 204.178 342.209 204.606 342.984 204.935L341.704 208.012C340.78 207.66 339.233 207.306 337.447 207.306C335.452 207.306 333.666 207.785 332.327 208.668C330.601 209.829 329.439 211.847 329.439 214.167C329.439 217.018 331.434 218.456 334.589 218.456C335.572 218.456 336.286 218.329 336.763 218.153L337.567 214.571H334.471L335.126 211.67H342.418L340.424 220.575ZM351.882 204.354L348.073 221.357H343.787L347.596 204.354H351.882ZM360.038 204.354L357.835 214.142C357.687 214.722 357.627 215.403 357.627 216.16C357.627 217.521 358.609 218.582 360.544 218.582C362.777 218.582 364.265 217.32 364.979 214.166L367.181 204.354H371.468L369.295 214.016C368.134 219.162 365.455 221.634 360.008 221.634C355.871 221.634 353.341 219.843 353.341 216.211C353.341 215.479 353.461 214.647 353.639 213.84L355.753 204.354H360.038V204.354ZM388.285 221.357L389.505 214.343C389.832 212.502 390.279 210.156 390.844 207.708H390.755C389.654 209.904 388.403 212.25 387.302 214.116L383.195 221.079H379.861L379.147 214.192C378.968 212.325 378.82 209.979 378.701 207.708H378.641C378.076 209.954 377.48 212.502 376.974 214.343L374.979 221.357H371.051L374.928 204.354H381.826L382.451 210.812C382.57 212.401 382.778 214.343 382.808 216.235H382.928C383.701 214.343 384.772 212.351 385.636 210.812L389.357 204.354H395.16L392.452 221.357H388.285Z" fill="#87CEEE"/>
</svg>
