<svg width="480" height="320" viewBox="0 0 480 320" fill="none" xmlns="http://www.w3.org/2000/svg">
<path d="M264.453 177.171C247.218 185.552 234.699 202.864 235.834 215.503C167.795 195.303 104.484 202.893 58.5769 225.804C55.9162 227.133 53.4276 226.887 57.6518 224.388C104.129 196.9 193.591 172.552 264.45 177.171" fill="#86D0F4"/>
<path d="M387.174 151.401L384.735 162.858C384.735 162.858 384.018 168.007 380.397 169.889C376.772 171.772 370.836 171.758 370.836 171.758H306.608L310.423 153.81C304.071 167.777 287.462 174.412 258.106 174.412C243.861 174.412 229.061 173.188 220.955 166.973L221.976 171.758H190.165L188.834 163.064H157.659L152.627 171.759H120.82L162.679 106.188C162.679 106.188 166.79 99.4015 170.008 97.7933C173.701 95.9455 180.432 96.0503 180.432 96.0503H205.837L217.116 148.96H251.324C250.889 151.506 251.482 153.203 253.356 154.368C255.357 155.429 258.532 155.96 263.198 155.96C272.528 155.96 275.615 153.416 276.38 149.811C276.853 147.583 275.949 145.358 272.053 144.719L238.994 139.63C224.835 137.404 220.595 128.92 222.849 118.318C227.018 98.7016 247.34 93.3994 271.937 93.3994C305.657 93.3994 317.677 102.201 315.334 118.213H280.554C281.209 115.136 279.811 113.226 277.279 112.167C274.876 111.001 271.573 110.577 268.286 110.577C259.378 110.577 255.831 112.803 255.154 115.985C254.705 118.106 255.365 119.485 258.243 119.908L292.849 125.21C305.052 127.072 312.532 132.279 313.054 141.449L322.704 96.0503H352.605L340.836 151.401H387.174ZM201.845 133.443C201.845 133.443 192.01 128.731 180.057 129.422C161.959 130.469 155.695 141.812 155.695 141.812C155.695 141.812 163.367 136.43 177.39 137.107C187.114 137.578 192.761 141.185 192.761 141.185C192.761 141.185 194.039 137.11 196.339 135.467C198.742 133.751 201.844 133.442 201.844 133.442M347.64 194.744C347.64 194.722 348.466 191.142 349.476 186.789C350.104 184.086 350.73 181.383 351.352 178.678L351.392 178.481H357.206C362.709 178.481 363.018 178.487 362.982 178.607C362.962 178.675 362.828 179.249 362.685 179.881C362.59 180.307 362.492 180.732 362.39 181.156C362.356 181.274 362.094 181.282 358.194 181.282H354.035L353.996 181.444C353.975 181.532 353.78 182.381 353.562 183.329C353.344 184.277 353.148 185.109 353.127 185.178C353.091 185.297 353.303 185.304 356.9 185.304C360.206 185.304 360.712 185.318 360.712 185.41C360.712 185.468 360.598 185.993 360.461 186.577L360.172 187.8L360.134 187.961H356.333C354.182 187.961 352.515 187.989 352.492 188.025C352.453 188.089 351.59 191.824 351.59 191.929C351.59 191.959 353.459 191.983 355.744 191.983H359.899L359.574 193.384L359.249 194.785H353.445C350.252 194.785 347.64 194.767 347.64 194.744ZM329.971 194.744C329.971 194.722 330.797 191.142 331.807 186.789C332.435 184.086 333.061 181.383 333.683 178.678L333.724 178.481H337.117L339.518 184.009C340.839 187.049 341.931 189.525 341.945 189.512C341.959 189.498 342.545 187.018 343.247 184L344.525 178.514L346.154 178.494C347.063 178.483 347.783 178.504 347.783 178.539C347.783 178.608 344.14 194.454 344.077 194.657C344.041 194.775 343.911 194.783 342.344 194.766L340.65 194.746L338.331 189.395C337.529 187.541 336.724 185.688 335.914 183.837C335.824 183.645 335.741 183.964 334.682 188.579C334.255 190.437 333.828 192.295 333.401 194.154L333.256 194.782H331.614C330.71 194.782 329.971 194.764 329.971 194.741V194.744ZM323.148 194.744C323.148 194.722 323.974 191.142 324.983 186.789C325.612 184.086 326.237 181.383 326.86 178.678L326.9 178.481H328.543C329.447 178.481 330.186 178.501 330.186 178.526C330.186 178.552 329.346 182.201 328.319 186.635C327.292 191.07 326.452 194.718 326.452 194.741C326.452 194.765 325.708 194.785 324.8 194.785C323.891 194.785 323.148 194.767 323.148 194.744V194.744ZM309.142 194.744C309.142 194.722 309.968 191.142 310.978 186.789C311.606 184.086 312.232 181.383 312.854 178.678L312.894 178.481H316.187L316.142 178.714C316.117 178.842 315.425 181.84 314.605 185.376C313.784 188.912 313.126 191.828 313.143 191.858C313.159 191.887 314.932 191.912 317.083 191.912C319.233 191.912 320.992 191.93 320.992 191.953C320.992 192.005 320.425 194.489 320.374 194.659C320.339 194.777 320.008 194.785 314.739 194.785C311.66 194.785 309.142 194.767 309.142 194.744ZM303.379 186.21C304.362 185.959 305.186 185.372 305.524 184.68C305.676 184.371 305.728 184.142 305.752 183.686C305.816 182.47 305.347 181.833 304.119 181.469C303.796 181.374 303.337 181.353 301.462 181.354H299.194L298.636 183.814C298.328 185.166 298.078 186.301 298.079 186.336C298.08 186.37 299.161 186.382 300.505 186.361C302.394 186.332 303.028 186.299 303.379 186.21ZM292.838 194.746C292.838 194.7 296.494 178.786 296.547 178.602C296.583 178.478 296.78 178.473 300.726 178.499L304.868 178.525L305.604 178.717C307.474 179.205 308.633 180.243 309.049 181.803C309.211 182.409 309.208 183.801 309.044 184.47C308.626 186.183 307.29 187.542 305.4 188.179C304.678 188.423 303.944 188.543 302.872 188.595L301.882 188.643L304.12 191.373C305.352 192.874 306.487 194.256 306.644 194.443L306.929 194.785H302.969L300.336 191.517C298.887 189.719 297.681 188.249 297.655 188.249C297.63 188.249 297.292 189.646 296.905 191.355C296.518 193.063 296.184 194.534 296.163 194.623L296.126 194.785H294.482C293.578 194.785 292.838 194.767 292.838 194.746ZM286.014 194.744C286.014 194.722 286.841 191.142 287.85 186.789C288.478 184.086 289.104 181.383 289.727 178.678L289.767 178.481H291.41C292.313 178.481 293.053 178.501 293.053 178.526C293.053 178.552 292.212 182.201 291.186 186.635C290.158 191.07 289.318 194.718 289.318 194.741C289.318 194.765 288.575 194.785 287.666 194.785C286.757 194.785 286.014 194.767 286.014 194.744V194.744ZM279.909 188.872C279.909 188.78 279.683 187.239 279.406 185.448C279.13 183.657 278.904 182.157 278.904 182.116C278.904 182.075 278.86 182.089 278.807 182.146C278.701 182.262 274.809 188.931 274.809 188.997C274.809 189.02 275.957 189.038 277.359 189.038H279.909V188.872ZM267.782 194.723C267.796 194.689 270.004 191.021 272.691 186.573L277.574 178.485H281.393L282.736 186.547C283.474 190.981 284.077 194.649 284.076 194.699C284.075 194.767 283.703 194.789 282.46 194.789H280.845L280.811 194.627C280.792 194.538 280.693 193.9 280.592 193.208C280.522 192.723 280.447 192.237 280.367 191.753L280.328 191.555L273.287 191.592L271.421 194.789H269.59C268.583 194.789 267.77 194.761 267.782 194.727V194.723ZM367.749 194.895C365.988 194.606 364.527 193.839 363.634 192.736C362.99 191.94 362.577 190.808 362.577 189.833V189.398H365.791L365.825 189.919C365.901 191.074 366.728 191.923 368.089 192.243C368.731 192.394 370.004 192.346 370.505 192.155C370.955 191.981 371.467 191.531 371.636 191.161C371.814 190.769 371.814 189.967 371.638 189.577C371.365 188.977 370.944 188.719 368.719 187.782C366.536 186.863 366.115 186.627 365.451 185.956C364.584 185.079 364.233 184.238 364.231 183.027C364.229 182.238 364.33 181.794 364.675 181.072C365.104 180.173 365.819 179.48 366.822 178.992C367.992 178.423 368.586 178.303 370.227 178.305C371.386 178.305 371.685 178.33 372.215 178.463C373.524 178.791 374.473 179.318 375.272 180.159C376.097 181.027 376.507 182.06 376.51 183.275L376.512 183.796H373.208L373.207 183.275C373.207 182.737 373.033 182.236 372.725 181.886C372.439 181.56 371.887 181.207 371.463 181.077C369.902 180.6 368.297 181.01 367.775 182.019C367.62 182.319 367.568 182.996 367.675 183.32C367.897 183.994 368.355 184.289 370.685 185.256C371.678 185.668 372.676 186.114 372.903 186.247C373.492 186.593 374.504 187.618 374.738 188.105C375.038 188.732 375.155 189.29 375.159 190.116C375.166 191.402 374.82 192.339 374.018 193.205C373.259 194.026 372.288 194.554 371.035 194.829C370.316 194.987 368.527 195.023 367.749 194.895L367.749 194.895Z" fill="#00529B"/>
<path d="M415.599 214.01C417.263 213.861 418.44 213.315 419.55 212.179C420.65 211.051 421.244 209.514 421.256 207.761C421.272 205.293 419.952 203.787 417.48 203.455C416.839 203.369 414.415 203.352 414.414 203.433C414.414 203.463 413.865 205.847 413.194 208.73C412.522 211.614 411.972 213.997 411.972 214.027C411.972 214.106 414.672 214.092 415.599 214.01ZM408.022 216.848C408.022 216.822 408.848 213.241 409.858 208.888C410.867 204.535 411.712 200.882 411.735 200.77L411.777 200.567L415.124 200.597C418.428 200.626 418.482 200.63 419.236 200.813C422.189 201.53 424.019 203.388 424.509 206.169C424.651 206.976 424.651 208.614 424.507 209.425C423.84 213.223 421.078 215.892 416.962 216.716C416.488 216.811 415.662 216.836 412.204 216.862C409.903 216.879 408.021 216.872 408.021 216.847L408.022 216.848ZM390.353 216.842C390.353 216.82 391.18 213.24 392.189 208.888C393.199 204.535 394.043 200.884 394.066 200.776L394.106 200.578H397.499L399.901 206.106C401.221 209.147 402.313 211.623 402.327 211.609C402.341 211.595 402.927 209.116 403.629 206.098L404.907 200.611L406.536 200.592C407.445 200.581 408.166 200.601 408.166 200.636C408.166 200.706 404.522 216.551 404.459 216.756C404.423 216.873 404.293 216.881 402.726 216.863L401.032 216.844L398.713 211.493C397.912 209.639 397.106 207.786 396.297 205.935C396.206 205.743 396.124 206.062 395.064 210.676L393.783 216.251L393.639 216.88H391.996C391.093 216.88 390.353 216.861 390.353 216.839V216.842ZM384.176 210.97C384.176 210.877 383.95 209.337 383.674 207.545C383.397 205.754 383.171 204.255 383.171 204.214C383.171 204.173 383.127 204.186 383.074 204.244C382.968 204.359 379.077 211.029 379.077 211.095C379.077 211.118 380.225 211.137 381.627 211.137H384.176V210.97ZM372.05 216.821C372.063 216.787 374.272 213.119 376.958 208.671L381.842 200.582H385.661L387.003 208.645C387.741 213.079 388.344 216.747 388.343 216.796C388.341 216.866 387.971 216.886 386.727 216.886H385.113L385.078 216.725C385.059 216.636 384.96 215.998 384.859 215.306C384.789 214.82 384.714 214.335 384.635 213.851L384.595 213.653L377.554 213.69L375.688 216.886H373.857C372.85 216.886 372.037 216.859 372.05 216.824V216.821ZM359.038 216.842C359.038 216.82 359.864 213.24 360.874 208.888C361.502 206.184 362.128 203.481 362.75 200.776L362.79 200.578H366.083L366.038 200.812C366.013 200.94 365.321 203.938 364.501 207.474C363.68 211.009 363.022 213.926 363.039 213.956C363.055 213.985 364.828 214.01 366.978 214.01C369.129 214.01 370.888 214.028 370.888 214.051C370.888 214.103 370.321 216.586 370.27 216.757C370.235 216.875 369.904 216.882 364.635 216.882C361.556 216.882 359.038 216.864 359.038 216.842ZM353.347 208.308C354.329 208.057 355.153 207.47 355.492 206.778C355.644 206.468 355.696 206.24 355.72 205.784C355.784 204.568 355.315 203.931 354.087 203.567C353.764 203.471 353.305 203.452 351.429 203.452H349.162L348.604 205.912C348.296 207.264 348.046 208.399 348.047 208.434C348.049 208.468 349.129 208.479 350.472 208.459C352.362 208.43 352.996 208.397 353.347 208.308ZM342.806 216.844C342.806 216.797 346.462 200.883 346.515 200.7C346.551 200.576 346.748 200.572 350.694 200.597L354.836 200.623L355.572 200.814C357.442 201.303 358.601 202.341 359.017 203.901C359.178 204.507 359.176 205.899 359.012 206.568C358.594 208.281 357.258 209.64 355.368 210.277C354.645 210.52 353.912 210.641 352.84 210.693L351.849 210.741L354.088 213.471C355.32 214.972 356.455 216.354 356.612 216.541L356.896 216.882H352.937L350.304 213.614C348.855 211.817 347.649 210.346 347.623 210.346C347.598 210.346 347.26 211.744 346.873 213.453C346.485 215.161 346.152 216.632 346.131 216.721L346.094 216.882H344.45C343.545 216.882 342.806 216.865 342.806 216.844ZM328.369 216.842C328.369 216.82 329.195 213.24 330.205 208.888C331.215 204.535 332.059 200.884 332.081 200.776L332.121 200.578H337.935C343.439 200.578 343.747 200.585 343.711 200.704C343.691 200.773 343.558 201.347 343.414 201.979C343.319 202.405 343.221 202.83 343.118 203.254C343.085 203.372 342.823 203.38 338.923 203.38H334.764L334.726 203.541C334.704 203.63 334.509 204.478 334.291 205.427C334.073 206.375 333.878 207.207 333.857 207.276C333.82 207.395 334.033 207.402 337.629 207.402C340.935 207.402 341.441 207.416 341.441 207.508C341.441 207.566 341.328 208.091 341.19 208.675L340.901 209.898L340.863 210.06H337.063C334.912 210.06 333.244 210.087 333.222 210.123C333.182 210.186 332.319 213.921 332.319 214.027C332.319 214.056 334.189 214.081 336.474 214.081H340.628L340.303 215.482L339.979 216.882H334.174C330.981 216.882 328.369 216.864 328.369 216.842ZM313.038 216.649C313.065 216.521 313.101 216.395 313.143 216.271C313.173 216.191 315.56 213.266 318.447 209.771L323.697 203.416L316.214 203.379L316.248 203.217C316.266 203.129 316.406 202.499 316.558 201.818L316.834 200.578H329.371L329.328 200.812C329.301 200.955 329.258 201.094 329.2 201.228C329.153 201.328 326.776 204.253 323.919 207.728L318.724 214.046L326.478 214.083L326.168 215.429C325.998 216.169 325.858 216.799 325.857 216.829C325.855 216.858 322.961 216.883 319.422 216.883H312.988L313.038 216.649ZM303.482 216.721C303.833 215.257 306.535 203.466 306.535 203.4C306.535 203.33 306.012 203.306 304.141 203.291L301.747 203.272L302.009 202.123C302.153 201.49 302.293 200.884 302.321 200.776L302.371 200.578H308.798C312.333 200.578 315.225 200.603 315.225 200.632C315.225 200.662 315.09 201.275 314.924 201.996L314.622 203.307H312.271C310.977 203.307 309.903 203.333 309.883 203.365C309.864 203.396 309.181 206.313 308.366 209.847C307.85 212.091 307.331 214.334 306.808 216.577L306.733 216.881H303.443L303.482 216.721ZM293.247 216.842C293.247 216.82 294.074 213.24 295.083 208.888C295.712 206.184 296.337 203.481 296.959 200.776L297 200.578H298.643C299.547 200.578 300.286 200.599 300.286 200.625C300.286 200.649 299.446 204.298 298.419 208.733C297.392 213.168 296.551 216.816 296.551 216.839C296.551 216.863 295.808 216.882 294.899 216.882C293.991 216.882 293.247 216.864 293.247 216.842ZM272.747 216.723C272.71 216.55 271.338 200.921 271.34 200.704C271.341 200.588 271.471 200.578 273.065 200.578C274.737 200.578 274.789 200.585 274.789 200.721C274.789 200.963 275.509 211.521 275.526 211.539C275.535 211.548 276.9 209.086 278.559 206.069L281.576 200.583H282.959C283.719 200.583 284.341 200.605 284.342 200.634C284.342 200.664 284.584 203.088 284.88 206.021C285.176 208.954 285.419 211.392 285.419 211.44C285.419 211.493 285.443 211.501 285.482 211.458C285.516 211.42 286.796 208.958 288.326 205.985L291.108 200.58H294.883L286.045 216.884H282.996L282.955 216.507C282.933 216.3 282.695 213.811 282.428 210.977C282.137 207.89 281.916 205.85 281.877 205.889C281.841 205.925 280.46 208.406 278.807 211.401L275.802 216.849L272.781 216.887L272.747 216.723ZM259.706 216.993C257.945 216.703 256.484 215.938 255.591 214.834C254.947 214.037 254.534 212.906 254.534 211.93V211.496H257.748L257.782 212.016C257.858 213.172 258.686 214.022 260.047 214.341C260.688 214.491 261.961 214.445 262.463 214.252C262.912 214.079 263.425 213.629 263.593 213.258C263.771 212.867 263.771 212.065 263.595 211.675C263.322 211.075 262.901 210.816 260.676 209.88C258.493 208.961 258.072 208.725 257.408 208.054C256.541 207.178 256.19 206.336 256.188 205.125C256.186 204.336 256.288 203.892 256.632 203.17C257.062 202.271 257.776 201.578 258.779 201.089C259.949 200.52 260.543 200.401 262.184 200.402C263.344 200.402 263.643 200.428 264.173 200.561C265.481 200.889 266.43 201.415 267.229 202.257C268.054 203.125 268.464 204.158 268.467 205.373L268.469 205.893H265.165L265.164 205.373C265.163 204.835 264.99 204.334 264.682 203.984C264.396 203.659 263.845 203.305 263.42 203.175C261.86 202.698 260.254 203.108 259.732 204.117C259.577 204.417 259.525 205.095 259.632 205.418C259.854 206.093 260.312 206.387 262.642 207.354C263.635 207.766 264.633 208.212 264.86 208.345C265.449 208.69 266.462 209.716 266.695 210.203C266.995 210.83 267.112 211.387 267.117 212.214C267.123 213.5 266.777 214.437 265.975 215.303C265.216 216.124 264.245 216.652 262.992 216.927C262.273 217.085 260.485 217.121 259.706 216.993H259.706Z" fill="#86D0F4"/>
</svg>
