<svg width="480" height="320" viewBox="0 0 480 320" fill="none" xmlns="http://www.w3.org/2000/svg">
<path d="M288.046 179.108C268.866 188.436 254.934 207.702 256.198 221.766C180.481 199.287 110.025 207.733 58.9372 233.23C55.9763 234.709 53.2069 234.435 57.9077 231.655C109.63 201.064 209.188 173.969 288.042 179.108" fill="#86D0F4"/>
<path d="M424.615 150.43L421.902 163.18C421.902 163.18 421.104 168.911 417.073 171.005C413.04 173.101 406.434 173.085 406.434 173.085H334.958L339.203 153.112C332.135 168.655 313.652 176.038 280.983 176.038C265.13 176.038 248.66 174.676 239.639 167.76L240.775 173.085H205.375L203.893 163.41H169.2L163.6 173.086H128.204L174.786 100.116C174.786 100.116 179.362 92.5632 182.942 90.7735C187.053 88.7172 194.544 88.8338 194.544 88.8338H222.815L235.366 147.715H273.435C272.951 150.547 273.611 152.436 275.697 153.732C277.924 154.913 281.457 155.504 286.649 155.504C297.032 155.504 300.467 152.673 301.318 148.661C301.845 146.182 300.84 143.705 296.503 142.995L259.714 137.331C243.957 134.854 239.238 125.413 241.747 113.615C246.387 91.7843 269.001 85.8838 296.374 85.8838C333.9 85.8838 347.276 95.679 344.669 113.497H305.964C306.692 110.074 305.136 107.948 302.319 106.77C299.645 105.471 295.969 105 292.311 105C282.398 105 278.451 107.477 277.698 111.018C277.198 113.378 277.932 114.913 281.135 115.384L319.646 121.284C333.227 123.356 341.551 129.151 342.131 139.356L352.871 88.8338H386.145L373.049 150.43H424.615ZM218.372 130.446C218.372 130.446 207.427 125.203 194.126 125.971C173.985 127.137 167.015 139.759 167.015 139.759C167.015 139.759 175.552 133.771 191.157 134.524C201.979 135.048 208.263 139.062 208.263 139.062C208.263 139.062 209.686 134.527 212.245 132.699C214.919 130.789 218.372 130.445 218.372 130.445M380.62 198.665C380.62 198.641 381.539 194.657 382.663 189.813C383.362 186.805 384.058 183.796 384.751 180.786L384.796 180.566H391.266C397.39 180.566 397.733 180.573 397.694 180.706C397.671 180.783 397.522 181.422 397.363 182.125C397.258 182.599 397.148 183.072 397.034 183.544C396.997 183.675 396.706 183.683 392.366 183.683H387.736L387.694 183.864C387.67 183.962 387.453 184.906 387.211 185.962C386.968 187.016 386.75 187.943 386.727 188.02C386.686 188.151 386.923 188.16 390.925 188.16C394.605 188.16 395.167 188.175 395.167 188.277C395.167 188.342 395.041 188.926 394.888 189.576L394.566 190.937L394.524 191.117H390.294C387.901 191.117 386.045 191.148 386.02 191.188C385.976 191.259 385.016 195.415 385.016 195.532C385.016 195.565 387.096 195.593 389.639 195.593H394.262L393.901 197.151L393.54 198.71H387.08C383.527 198.71 380.62 198.69 380.62 198.665ZM360.957 198.665C360.957 198.641 361.877 194.657 363 189.813C363.7 186.805 364.396 183.796 365.088 180.786L365.134 180.566H368.91L371.582 186.718C373.052 190.101 374.267 192.857 374.283 192.842C374.298 192.827 374.95 190.066 375.732 186.708L377.153 180.603L378.966 180.582C379.978 180.569 380.78 180.592 380.78 180.631C380.78 180.708 376.725 198.342 376.655 198.568C376.615 198.7 376.47 198.708 374.726 198.689L372.841 198.667L370.26 192.712C369.368 190.649 368.472 188.587 367.571 186.528C367.471 186.314 367.379 186.668 366.2 191.804C365.725 193.872 365.25 195.94 364.775 198.008L364.613 198.707H362.785C361.78 198.707 360.957 198.687 360.957 198.662V198.665ZM353.364 198.665C353.364 198.641 354.283 194.657 355.407 189.813C356.106 186.805 356.802 183.796 357.495 180.786L357.54 180.566H359.368C360.374 180.566 361.196 180.589 361.196 180.617C361.196 180.645 360.262 184.706 359.119 189.641C357.975 194.576 357.041 198.636 357.041 198.662C357.041 198.688 356.213 198.71 355.202 198.71C354.191 198.71 353.364 198.69 353.364 198.665V198.665ZM337.778 198.665C337.778 198.641 338.697 194.657 339.821 189.813C340.52 186.805 341.216 183.796 341.909 180.786L341.953 180.566H345.618L345.567 180.826C345.54 180.969 344.77 184.305 343.857 188.24C342.944 192.174 342.212 195.42 342.23 195.453C342.248 195.486 344.221 195.513 346.614 195.513C349.008 195.513 350.965 195.534 350.965 195.559C350.965 195.617 350.334 198.381 350.278 198.57C350.238 198.701 349.87 198.71 344.006 198.71C340.58 198.71 337.778 198.69 337.778 198.665ZM331.364 189.168C332.458 188.889 333.375 188.235 333.751 187.466C333.921 187.121 333.979 186.867 334.005 186.359C334.077 185.005 333.555 184.297 332.188 183.892C331.829 183.786 331.318 183.763 329.231 183.764H326.708L326.086 186.501C325.744 188.006 325.465 189.27 325.466 189.308C325.468 189.346 326.67 189.359 328.166 189.336C330.268 189.304 330.974 189.267 331.364 189.168ZM319.634 198.667C319.634 198.615 323.703 180.906 323.762 180.701C323.801 180.564 324.021 180.558 328.412 180.587L333.022 180.616L333.841 180.829C335.922 181.372 337.212 182.528 337.675 184.264C337.854 184.938 337.851 186.487 337.669 187.232C337.203 189.138 335.717 190.65 333.614 191.359C332.81 191.63 331.993 191.764 330.8 191.822L329.698 191.876L332.189 194.913C333.56 196.584 334.824 198.122 334.998 198.33L335.315 198.71H330.909L327.978 195.073C326.366 193.073 325.024 191.436 324.995 191.436C324.967 191.436 324.591 192.992 324.16 194.893C323.729 196.795 323.358 198.431 323.335 198.53L323.293 198.71H321.463C320.457 198.71 319.634 198.691 319.634 198.667ZM312.04 198.665C312.04 198.641 312.96 194.657 314.083 189.813C314.782 186.805 315.479 183.796 316.171 180.786L316.216 180.566H318.044C319.05 180.566 319.873 180.589 319.873 180.617C319.873 180.645 318.937 184.706 317.795 189.641C316.652 194.576 315.717 198.636 315.717 198.662C315.717 198.688 314.89 198.71 313.878 198.71C312.867 198.71 312.04 198.69 312.04 198.665V198.665ZM305.246 192.13C305.246 192.027 304.994 190.313 304.687 188.319C304.379 186.326 304.127 184.658 304.127 184.612C304.127 184.566 304.079 184.581 304.019 184.645C303.901 184.774 299.571 192.196 299.571 192.269C299.571 192.295 300.848 192.315 302.409 192.315H305.246V192.13ZM291.751 198.642C291.766 198.603 294.224 194.522 297.213 189.572L302.648 180.571H306.898L308.392 189.543C309.213 194.477 309.884 198.56 309.883 198.614C309.882 198.691 309.468 198.715 308.085 198.715H306.288L306.25 198.534C306.228 198.436 306.118 197.726 306.006 196.956C305.928 196.415 305.845 195.875 305.756 195.337L305.712 195.116L297.876 195.158L295.8 198.715H293.762C292.641 198.715 291.737 198.683 291.751 198.646V198.642ZM402.998 198.833C401.038 198.511 399.413 197.658 398.419 196.431C397.702 195.544 397.243 194.285 397.243 193.199V192.715H400.819L400.857 193.295C400.941 194.58 401.863 195.526 403.377 195.882C404.091 196.049 405.508 195.997 406.066 195.783C406.567 195.59 407.136 195.089 407.324 194.677C407.522 194.241 407.522 193.349 407.326 192.915C407.023 192.247 406.554 191.96 404.078 190.917C401.649 189.895 401.18 189.632 400.441 188.885C399.476 187.91 399.086 186.973 399.083 185.626C399.082 184.748 399.194 184.253 399.578 183.45C400.055 182.45 400.851 181.678 401.967 181.135C403.269 180.502 403.93 180.368 405.756 180.37C407.046 180.37 407.379 180.399 407.969 180.547C409.425 180.912 410.481 181.498 411.37 182.434C412.289 183.4 412.745 184.55 412.749 185.901L412.75 186.481H409.073L409.072 185.901C409.072 185.303 408.879 184.746 408.536 184.356C408.218 183.994 407.604 183.601 407.132 183.456C405.395 182.925 403.609 183.381 403.027 184.504C402.855 184.838 402.797 185.592 402.916 185.952C403.163 186.702 403.673 187.03 406.266 188.106C407.371 188.565 408.481 189.061 408.734 189.209C409.389 189.594 410.516 190.734 410.776 191.277C411.11 191.974 411.24 192.595 411.245 193.515C411.253 194.946 410.868 195.989 409.975 196.952C409.13 197.866 408.05 198.453 406.655 198.76C405.855 198.935 403.865 198.975 402.999 198.833L402.998 198.833Z" fill="#00529B"/>
<path d="M282.829 223.462C279.317 222.917 277.007 220.65 277.007 217.748V217.314L280.626 217.353L280.605 217.7C280.578 218.142 280.767 218.796 281.036 219.186C281.427 219.755 281.922 220.1 282.787 220.407C283.292 220.586 284.621 220.662 285.236 220.547C286.435 220.321 287.157 219.619 287.239 218.595C287.294 217.908 287.121 217.416 286.681 217.004C286.24 216.591 285.841 216.388 283.748 215.51C281.666 214.637 280.865 214.2 280.278 213.619C279.331 212.681 278.925 211.813 278.857 210.582C278.739 208.437 279.776 206.735 281.802 205.748C282.71 205.306 283.437 205.115 284.638 205.005C288.246 204.674 291.357 206.265 292.234 208.891C292.416 209.438 292.552 210.49 292.484 210.846L292.438 211.094H288.831L288.826 210.527C288.82 209.782 288.624 209.327 288.091 208.823C287.262 208.039 285.922 207.706 284.58 207.953C283.343 208.179 282.617 208.964 282.622 210.069C282.625 210.865 282.957 211.325 283.883 211.815C284.108 211.934 285.033 212.336 285.94 212.707C288.471 213.744 288.969 214.033 289.83 214.963C290.658 215.856 290.989 216.769 290.989 218.159C290.989 219.108 290.863 219.713 290.515 220.427C289.832 221.832 288.517 222.822 286.708 223.294C286.071 223.46 285.799 223.488 284.622 223.507C283.877 223.52 283.07 223.5 282.83 223.462H282.829ZM293.036 223.083C293.066 222.952 294.008 218.881 295.13 214.037L297.17 205.231L301.639 205.256C305.994 205.279 306.122 205.284 306.688 205.443C309.1 206.118 310.384 207.686 310.573 210.184C310.636 211.025 310.474 212.127 310.171 212.913C309.511 214.625 308.029 215.983 306.13 216.615C304.895 217.028 304.657 217.051 301.239 217.094L298.055 217.134L296.656 223.284L292.982 223.323L293.036 223.083ZM304.607 213.82C305.514 213.519 306.167 212.968 306.539 212.192C306.751 211.749 306.766 211.661 306.766 210.911C306.766 210.163 306.751 210.075 306.547 209.667C306.278 209.128 305.881 208.812 305.219 208.607C304.779 208.472 304.542 208.459 302.408 208.459C300.252 208.459 300.075 208.468 300.039 208.587C299.974 208.803 298.824 213.893 298.824 213.966C298.824 214.007 299.875 214.023 301.477 214.006C303.959 213.98 304.162 213.968 304.607 213.82ZM307.401 223.252C307.414 223.215 309.863 219.147 312.843 214.212L318.26 205.24H322.506L323.995 214.153C324.813 219.055 325.499 223.123 325.518 223.193C325.551 223.313 325.432 223.321 323.726 223.321H321.898L321.822 222.864C321.779 222.612 321.653 221.805 321.543 221.069L321.342 219.733L313.504 219.771L311.452 223.316L309.414 223.318C308.199 223.32 307.386 223.294 307.401 223.254V223.252ZM320.869 216.916C320.913 216.872 319.737 209.19 319.687 209.194C319.639 209.198 315.265 216.718 315.235 216.851C315.215 216.935 315.67 216.952 318.022 216.952C319.569 216.952 320.85 216.936 320.868 216.917L320.869 216.916ZM327.663 223.083C327.692 222.952 328.634 218.882 329.756 214.041L331.795 205.237H333.611C335.016 205.237 335.426 205.258 335.425 205.329C335.424 205.38 334.491 209.44 333.352 214.352L331.28 223.283L327.608 223.323L327.663 223.083ZM335.276 223.083C335.305 222.952 336.248 218.882 337.369 214.041L339.408 205.237H343.17L343.531 206.061C343.729 206.514 344.926 209.264 346.191 212.172C347.456 215.08 348.513 217.435 348.539 217.406C348.566 217.377 349.203 214.702 349.955 211.46C350.707 208.219 351.34 205.493 351.362 205.403L351.402 205.238H353.229C354.935 205.238 355.053 205.246 355.018 205.366C354.998 205.436 354.071 209.447 352.96 214.279C351.849 219.111 350.923 223.122 350.902 223.191C350.866 223.31 350.711 223.319 348.983 223.318L347.103 223.317L344.431 217.139C342.962 213.742 341.749 210.971 341.738 210.982C341.727 210.993 341.082 213.765 340.306 217.143L338.893 223.283L335.222 223.322L335.276 223.083Z" fill="#86D0F4"/>
</svg>
