<svg width="480" height="320" viewBox="0 0 480 320" fill="none" xmlns="http://www.w3.org/2000/svg">
<mask id="mask0_730_18488" style="mask-type:luminance" maskUnits="userSpaceOnUse" x="53" y="85" width="372" height="150">
<path d="M53.2178 85.8896H424.616V234.773H53.2178V85.8896Z" fill="white"/>
</mask>
<g mask="url(#mask0_730_18488)">
<path d="M288.032 179.166C268.813 188.477 254.89 207.781 256.172 221.79C180.491 199.325 110.021 207.781 58.9411 233.236C55.9515 234.688 53.2181 234.432 57.9161 231.698C109.679 201.119 209.192 174.041 288.032 179.166Z" fill="#72CDF4"/>
</g>
<mask id="mask1_730_18488" style="mask-type:luminance" maskUnits="userSpaceOnUse" x="53" y="85" width="372" height="150">
<path d="M53.2178 85.8896H424.616V234.773H53.2178V85.8896Z" fill="white"/>
</mask>
<g mask="url(#mask1_730_18488)">
<path d="M424.616 150.466L421.882 163.193C421.882 163.193 421.113 168.916 417.013 171.051C412.999 173.187 406.336 173.102 406.336 173.102H334.841L339.112 153.114C332.022 168.66 313.572 176.006 280.857 176.006C264.969 176.006 248.569 174.639 239.515 167.72L240.625 173.016H205.262L203.81 163.364H169.13L163.493 173.016H128.215L174.768 100.069C174.768 100.069 179.38 92.5523 182.968 90.7585C187.068 88.7084 194.585 88.7939 194.585 88.7939H222.858L235.415 147.647H273.511C272.998 150.466 273.682 152.345 275.732 153.626C277.953 154.822 281.455 155.42 286.665 155.42C297.086 155.42 300.503 152.601 301.357 148.587C301.87 146.109 300.845 143.632 296.574 142.949L259.759 137.311C244.042 134.834 239.258 125.353 241.821 113.565C246.433 91.7835 268.984 85.8896 296.403 85.8896C333.902 85.8896 347.312 95.7127 344.664 113.48H305.97C306.739 110.063 305.116 107.928 302.297 106.732C299.649 105.45 295.976 104.938 292.303 104.938C282.394 104.938 278.465 107.415 277.696 110.917C277.184 113.309 277.953 114.846 281.113 115.273L319.637 121.167C333.218 123.217 341.504 129.026 342.102 139.276L352.864 88.7939H386.177L373.108 150.38H424.616V150.466ZM218.416 130.478C218.416 130.478 207.483 125.267 194.158 126.036C173.999 127.232 167.08 139.788 167.08 139.788C167.08 139.788 175.622 133.809 191.253 134.578C202.101 135.09 208.337 139.105 208.337 139.105C208.337 139.105 209.789 134.578 212.352 132.699C214.914 130.82 218.416 130.478 218.416 130.478Z" fill="#00539B"/>
</g>
<mask id="mask2_730_18488" style="mask-type:luminance" maskUnits="userSpaceOnUse" x="53" y="85" width="372" height="150">
<path d="M53.2178 85.8896H424.616V234.773H53.2178V85.8896Z" fill="white"/>
</mask>
<g mask="url(#mask2_730_18488)">
<path d="M302.809 180.875H306.568L309.387 198.727H305.372L304.774 194.798H297.257L294.609 198.727H290.424L302.809 180.875ZM304.347 191.296L303.578 185.488L299.649 191.296H304.347Z" fill="#00539B"/>
</g>
<mask id="mask3_730_18488" style="mask-type:luminance" maskUnits="userSpaceOnUse" x="53" y="85" width="372" height="150">
<path d="M53.2178 85.8896H424.616V234.773H53.2178V85.8896Z" fill="white"/>
</mask>
<g mask="url(#mask3_730_18488)">
<path d="M315.623 198.726H311.693L316.477 181.045H320.321L315.623 198.726Z" fill="#00539B"/>
</g>
<mask id="mask4_730_18488" style="mask-type:luminance" maskUnits="userSpaceOnUse" x="53" y="85" width="372" height="150">
<path d="M53.2178 85.8896H424.616V234.773H53.2178V85.8896Z" fill="white"/>
</mask>
<g mask="url(#mask4_730_18488)">
<path d="M324.762 181.045H331.254C333.902 181.045 335.695 181.643 336.891 182.839C337.745 183.693 338.258 184.974 338.258 186.426C338.258 189.587 336.293 191.893 332.535 192.747L335.525 198.812H331.083L328.35 193.174H325.445L323.908 198.812H319.979L324.762 181.045ZM329.887 189.672C332.279 189.672 334.158 188.647 334.158 186.768C334.158 186.17 333.987 185.743 333.56 185.316C333.048 184.803 332.193 184.547 330.997 184.547H327.752L326.385 189.672H329.887Z" fill="#00539B"/>
</g>
<mask id="mask5_730_18488" style="mask-type:luminance" maskUnits="userSpaceOnUse" x="53" y="85" width="372" height="150">
<path d="M53.2178 85.8896H424.616V234.773H53.2178V85.8896Z" fill="white"/>
</mask>
<g mask="url(#mask5_730_18488)">
<path d="M343.298 195.224H352.096L351.156 198.726H338.429L343.212 181.045H347.056L343.298 195.224Z" fill="#00539B"/>
</g>
<mask id="mask6_730_18488" style="mask-type:luminance" maskUnits="userSpaceOnUse" x="53" y="85" width="372" height="150">
<path d="M53.2178 85.8896H424.616V234.773H53.2178V85.8896Z" fill="white"/>
</mask>
<g mask="url(#mask6_730_18488)">
<path d="M358.332 198.726H354.402L359.186 181.045H363.115L358.332 198.726Z" fill="#00539B"/>
</g>
<mask id="mask7_730_18488" style="mask-type:luminance" maskUnits="userSpaceOnUse" x="53" y="85" width="372" height="150">
<path d="M53.2178 85.8896H424.616V234.773H53.2178V85.8896Z" fill="white"/>
</mask>
<g mask="url(#mask7_730_18488)">
<path d="M376.269 192.32L379.344 181.045H383.187L378.404 198.726H375.073L369.691 187.11L366.616 198.726H362.772L367.556 181.045H371.143L376.269 192.32Z" fill="#00539B"/>
</g>
<mask id="mask8_730_18488" style="mask-type:luminance" maskUnits="userSpaceOnUse" x="53" y="85" width="372" height="150">
<path d="M53.2178 85.8896H424.616V234.773H53.2178V85.8896Z" fill="white"/>
</mask>
<g mask="url(#mask8_730_18488)">
<path d="M399.674 184.547H390.363L389.338 188.135H397.624L396.684 191.551H388.399L387.459 195.31H396.941L396.001 198.726H382.676L387.374 181.045H400.614L399.674 184.547Z" fill="#00539B"/>
</g>
<mask id="mask9_730_18488" style="mask-type:luminance" maskUnits="userSpaceOnUse" x="53" y="85" width="372" height="150">
<path d="M53.2178 85.8896H424.616V234.773H53.2178V85.8896Z" fill="white"/>
</mask>
<g mask="url(#mask9_730_18488)">
<path d="M398.904 195.737L401.809 193.26C403.175 194.798 404.713 195.566 406.763 195.566C408.3 195.566 409.496 194.798 409.496 193.687C409.496 192.833 408.898 192.321 406.507 191.381C404.2 190.441 402.15 189.245 402.15 186.597C402.15 183.01 405.396 180.789 409.154 180.789C412.23 180.789 414.28 181.814 415.817 183.437L413.169 186.085C411.802 184.889 410.607 184.206 408.898 184.206C407.275 184.206 406.336 185.145 406.336 186C406.336 186.939 407.019 187.366 409.411 188.306C411.802 189.331 413.682 190.527 413.682 193.089C413.682 196.848 410.35 198.983 406.677 198.983C403.175 198.983 400.613 197.873 398.904 195.737Z" fill="#00539B"/>
</g>
<mask id="mask10_730_18488" style="mask-type:luminance" maskUnits="userSpaceOnUse" x="53" y="85" width="372" height="150">
<path d="M53.2178 85.8896H424.616V234.773H53.2178V85.8896Z" fill="white"/>
</mask>
<g mask="url(#mask10_730_18488)">
<path d="M294.267 208.977H284.7L283.675 212.735H292.132L291.192 216.323H282.736L280.942 223.156H277.013L281.796 205.475H295.207L294.267 208.977Z" fill="#72CDF4"/>
</g>
<mask id="mask11_730_18488" style="mask-type:luminance" maskUnits="userSpaceOnUse" x="53" y="85" width="372" height="150">
<path d="M53.2178 85.8896H424.616V234.773H53.2178V85.8896Z" fill="white"/>
</mask>
<g mask="url(#mask11_730_18488)">
<path d="M298.538 205.475H305.03C307.678 205.475 309.472 206.073 310.668 207.268C311.522 208.123 312.034 209.404 312.034 210.856C312.034 214.016 310.07 216.323 306.311 217.177L309.301 223.242H304.859L302.126 217.604H299.222L297.684 223.242H293.755L298.538 205.475ZM303.578 214.102C305.97 214.102 307.849 213.077 307.849 211.198C307.849 210.6 307.678 210.173 307.251 209.746C306.738 209.233 305.884 208.977 304.688 208.977H301.443L300.076 214.102H303.578Z" fill="#72CDF4"/>
</g>
<mask id="mask12_730_18488" style="mask-type:luminance" maskUnits="userSpaceOnUse" x="53" y="85" width="372" height="150">
<path d="M53.2178 85.8896H424.616V234.773H53.2178V85.8896Z" fill="white"/>
</mask>
<g mask="url(#mask12_730_18488)">
<path d="M322.541 205.304H326.299L329.118 223.156H325.103L324.506 219.227H316.989L314.341 223.156H310.155L322.541 205.304ZM324.078 215.725L323.31 209.916L319.38 215.725H324.078Z" fill="#72CDF4"/>
</g>
<mask id="mask13_730_18488" style="mask-type:luminance" maskUnits="userSpaceOnUse" x="53" y="85" width="372" height="150">
<path d="M53.2178 85.8896H424.616V234.773H53.2178V85.8896Z" fill="white"/>
</mask>
<g mask="url(#mask13_730_18488)">
<path d="M344.75 216.75L347.825 205.475H351.669L346.885 223.156H343.554L338.258 211.539L335.098 223.156H331.254L336.037 205.475H339.625L344.75 216.75Z" fill="#72CDF4"/>
</g>
<mask id="mask14_730_18488" style="mask-type:luminance" maskUnits="userSpaceOnUse" x="53" y="85" width="372" height="150">
<path d="M53.2178 85.8896H424.616V234.773H53.2178V85.8896Z" fill="white"/>
</mask>
<g mask="url(#mask14_730_18488)">
<path d="M352.522 215.725C352.522 210.087 357.306 205.133 363.285 205.133C366.702 205.133 368.923 206.585 370.375 208.891L367.129 211.112C366.104 209.66 364.908 208.72 362.773 208.72C359.527 208.72 356.537 211.795 356.537 215.554C356.537 218.116 358.331 219.825 360.893 219.825C362.602 219.825 363.712 219.141 365.079 218.116L367.641 220.764C365.933 222.302 363.883 223.498 360.979 223.498C356.025 223.498 352.522 220.508 352.522 215.725Z" fill="#72CDF4"/>
</g>
<mask id="mask15_730_18488" style="mask-type:luminance" maskUnits="userSpaceOnUse" x="53" y="85" width="372" height="150">
<path d="M53.2178 85.8896H424.616V234.773H53.2178V85.8896Z" fill="white"/>
</mask>
<g mask="url(#mask15_730_18488)">
<path d="M386.604 208.891H377.208L376.269 212.564H384.469L383.529 215.981H375.329L374.304 219.739H383.785L382.846 223.156H369.521L374.304 205.475H387.458L386.604 208.891Z" fill="#72CDF4"/>
</g>
</svg>
