<svg width="480" height="320" viewBox="0 0 480 320" fill="none" xmlns="http://www.w3.org/2000/svg">
<path d="M316.816 223.798C315.549 224.875 314.326 225.635 313.148 226.079C311.982 226.522 310.727 226.744 309.384 226.744C307.167 226.744 305.462 226.206 304.271 225.129C303.08 224.039 302.484 222.651 302.484 220.966C302.484 219.977 302.706 219.078 303.15 218.267C303.606 217.443 304.195 216.784 304.917 216.29C305.652 215.796 306.476 215.422 307.388 215.168C308.06 214.991 309.074 214.82 310.43 214.655C313.192 214.326 315.226 213.933 316.531 213.477C316.54 213.179 316.547 212.881 316.55 212.583C316.55 211.19 316.227 210.207 315.581 209.637C314.706 208.864 313.407 208.478 311.684 208.478C310.075 208.478 308.884 208.763 308.111 209.333C307.35 209.891 306.787 210.885 306.419 212.317L303.073 211.861C303.378 210.429 303.878 209.276 304.575 208.402C305.272 207.515 306.279 206.837 307.597 206.368C308.915 205.886 310.442 205.646 312.178 205.646C313.901 205.646 315.302 205.848 316.379 206.254C317.456 206.659 318.248 207.172 318.755 207.793C319.262 208.402 319.617 209.175 319.819 210.112C319.933 210.695 319.991 211.747 319.991 213.268V217.83C319.991 221.01 320.06 223.025 320.199 223.874C320.352 224.71 320.643 225.515 321.074 226.288H317.501C317.146 225.578 316.917 224.748 316.816 223.798ZM316.531 216.157C315.289 216.664 313.426 217.094 310.943 217.449C309.536 217.652 308.542 217.88 307.958 218.134C307.376 218.387 306.926 218.761 306.609 219.255C306.292 219.737 306.134 220.275 306.134 220.871C306.134 221.783 306.476 222.543 307.16 223.152C307.857 223.76 308.871 224.064 310.202 224.064C311.519 224.064 312.691 223.779 313.718 223.209C314.744 222.626 315.498 221.834 315.98 220.833C316.347 220.06 316.531 218.919 316.531 217.411V216.157M325.331 202.357V198.423H328.753V202.357H325.331ZM325.331 226.288V206.102H328.753V226.288H325.331ZM333.942 226.288V206.102H337.021V209.162C337.807 207.73 338.529 206.786 339.188 206.33C339.86 205.874 340.595 205.646 341.393 205.646C342.546 205.646 343.718 206.013 344.909 206.748L343.731 209.922C342.895 209.428 342.058 209.181 341.222 209.181C340.475 209.181 339.803 209.409 339.207 209.865C338.612 210.309 338.187 210.93 337.934 211.728C337.554 212.945 337.363 214.275 337.363 215.72V226.288H333.942ZM346.905 226.288V198.423H350.327V226.288H346.905ZM355.668 202.357V198.423H359.089V202.357H355.668ZM355.668 226.288V206.102H359.089V226.288H355.668ZM364.316 226.288V206.102H367.395V208.972C368.878 206.754 371.02 205.646 373.82 205.646C375.037 205.646 376.152 205.867 377.165 206.311C378.192 206.742 378.959 207.312 379.465 208.022C379.972 208.731 380.327 209.574 380.53 210.55C380.657 211.183 380.72 212.292 380.72 213.876V226.288H377.298V214.009C377.298 212.615 377.165 211.576 376.899 210.892C376.633 210.195 376.158 209.643 375.474 209.238C374.802 208.82 374.01 208.611 373.098 208.611C371.64 208.611 370.38 209.073 369.315 209.998C368.263 210.923 367.737 212.678 367.737 215.263V226.288H364.316M399.804 219.787L403.339 220.224C402.781 222.29 401.749 223.893 400.241 225.033C398.733 226.174 396.806 226.744 394.462 226.744C391.51 226.744 389.166 225.838 387.43 224.026C385.706 222.201 384.844 219.648 384.844 216.366C384.844 212.97 385.719 210.334 387.468 208.459C389.216 206.583 391.485 205.646 394.272 205.646C396.971 205.646 399.176 206.564 400.887 208.402C402.598 210.239 403.453 212.824 403.453 216.157C403.453 216.36 403.447 216.664 403.434 217.069H388.38C388.507 219.287 389.134 220.985 390.261 222.163C391.39 223.342 392.796 223.931 394.481 223.931C395.736 223.931 396.807 223.601 397.694 222.942C398.581 222.284 399.284 221.232 399.804 219.787ZM388.57 214.256H399.841C399.689 212.558 399.259 211.285 398.549 210.435C397.459 209.118 396.046 208.459 394.31 208.459C392.739 208.459 391.415 208.985 390.338 210.037C389.273 211.088 388.684 212.495 388.57 214.256ZM406.285 220.262L409.669 219.73C409.858 221.086 410.384 222.125 411.246 222.847C412.12 223.57 413.337 223.931 414.896 223.931C416.467 223.931 417.633 223.614 418.393 222.981C419.153 222.334 419.533 221.58 419.533 220.719C419.533 219.946 419.198 219.337 418.526 218.894C418.057 218.59 416.891 218.204 415.029 217.734C412.52 217.101 410.777 216.556 409.802 216.1C408.839 215.631 408.103 214.991 407.597 214.18C407.102 213.357 406.855 212.45 406.855 211.462C406.855 210.562 407.058 209.732 407.463 208.972C407.872 208.21 408.451 207.553 409.155 207.052C409.687 206.659 410.41 206.33 411.322 206.064C412.247 205.785 413.235 205.646 414.287 205.646C415.871 205.646 417.259 205.874 418.45 206.33C419.654 206.786 420.541 207.407 421.111 208.193C421.681 208.966 422.074 210.005 422.289 211.31L418.944 211.766C418.792 210.727 418.349 209.916 417.614 209.333C416.891 208.75 415.865 208.459 414.535 208.459C412.963 208.459 411.842 208.719 411.17 209.238C410.498 209.758 410.163 210.366 410.163 211.063C410.163 211.506 410.302 211.906 410.581 212.26C410.86 212.628 411.297 212.932 411.892 213.173C412.235 213.299 413.242 213.591 414.914 214.047C417.335 214.693 419.02 215.225 419.971 215.644C420.933 216.049 421.688 216.645 422.233 217.43C422.778 218.216 423.05 219.192 423.05 220.358C423.05 221.498 422.714 222.575 422.042 223.589C421.383 224.59 420.427 225.369 419.172 225.927C417.918 226.472 416.499 226.744 414.914 226.744C412.292 226.744 410.29 226.199 408.908 225.109C407.54 224.02 406.665 222.404 406.285 220.263" fill="#8F969C"/>
<path d="M55.3845 187.485H74.9969C93.7819 148.175 127.521 139.138 152.046 134.602C87.9546 135.51 70.5232 164.617 55.3845 187.485V187.485Z" fill="url(#paint0_linear_730_18614)"/>
<path d="M192.446 112.703C186.162 103.065 175.18 102.938 168.311 105.656C159.656 109.081 158.844 120.937 163.104 125.822C165.255 129.73 191.726 138.631 197.106 143.984C215.529 162.383 201.368 183.31 185.85 187.335C169.949 191.458 148.09 187.357 141.669 170.961L151.871 165.946M151.871 165.946C170.968 193.743 205.727 169.909 187.244 151.237C184.632 148.38 158.206 137.465 154.719 134.786C146.683 128.194 146.987 114.976 151.491 107.441C160.385 92.0146 184.834 89.8976 199.606 107.676L192.446 112.704M241.271 106.102V187.457H229.204V106.102H205.848V96.37H265.016V106.102H241.271ZM272.381 96.3552V187.426H283.735V106.898H304.901C316.757 107.184 322.561 117.769 322.58 125.874C322.598 134.39 313.966 142.108 305.388 141.931H292.656L293.466 143.472L321.039 187.102L321.85 187.426H334.663L333.934 186.291L312.2 152.636C324.107 150.168 334.692 139.184 334.663 127.172C334.633 113.982 325.179 96.7475 305.793 96.4361L304.901 96.3552H272.381ZM410.991 187.457L399.703 162.155H361.555L350.266 187.457H337.81L381.018 93.2559L424.615 187.457H410.991ZM381.018 120.893L366.226 152.034H394.642L381.018 120.893ZM123.714 145.806L112.426 151.256L128.775 187.457H142.399L123.714 145.806ZM99.5799 93.2559H98.8014L75.0564 144.249H88.2913L98.8014 120.893L106.976 138.021L118.264 134.128L99.5799 93.2559Z" fill="#002E5E"/>
<defs>
<linearGradient id="paint0_linear_730_18614" x1="78.1556" y1="189.691" x2="150.577" y2="116.971" gradientUnits="userSpaceOnUse">
<stop stop-color="#8F969C"/>
<stop offset="0.1832" stop-color="#44494D" stop-opacity="0.9829"/>
<stop offset="0.2677" stop-color="#44494D" stop-opacity="0.9573"/>
<stop offset="0.5" stop-color="#E4E5E7"/>
<stop offset="1" stop-color="#8F969C"/>
</linearGradient>
</defs>
</svg>
