<svg width="480" height="320" viewBox="0 0 480 320" fill="none" xmlns="http://www.w3.org/2000/svg">
<g clip-path="url(#clip0_742_295)">
<path d="M110.735 208.291C104.605 212.756 97.2988 215.579 89.7596 216.406C81.3813 217.342 72.737 215.857 65.1894 212.078C57.6577 208.344 51.242 202.406 46.9316 195.191C42.7891 188.306 40.5872 180.266 40.6827 172.232C40.6758 162.987 43.7441 153.789 49.2317 146.354C54.5852 139.06 62.2142 133.452 70.8121 130.602C74.1539 129.475 77.6337 128.772 81.1461 128.478C89.3502 127.78 97.7478 129.425 105.06 133.22C112.126 136.852 118.166 142.437 122.359 149.181C126.135 155.236 128.414 162.224 128.89 169.347C129.414 176.547 128.151 183.88 125.197 190.474C122.055 197.546 117.008 203.755 110.735 208.291ZM110.735 208.291C110.735 208.291 110.735 208.292 110.735 208.292L110.588 208.089L110.735 208.291C110.735 208.291 110.735 208.291 110.735 208.291ZM66.5884 135.914L66.5891 135.913C71.1647 133.616 76.1838 132.223 81.2842 131.767C89.7311 131.036 98.3954 132.973 105.674 137.327L105.675 137.328C112.035 141.096 117.341 146.62 120.836 153.133L120.837 153.134C124.642 160.155 126.291 168.317 125.536 176.265L125.536 176.267C124.848 184.08 121.806 191.66 116.939 197.807L116.938 197.808C111.929 204.173 104.991 209.005 97.2668 211.452L97.266 211.453C89.4824 213.949 80.9503 214.027 73.1242 211.675L73.1234 211.675C65.5932 209.436 58.7548 204.953 53.6814 198.959L53.6807 198.959C48.2623 192.613 44.8728 184.569 44.135 176.26L44.1348 176.258C43.3898 168.436 44.9888 160.404 48.6641 153.458L48.6645 153.457C52.6143 145.932 58.9797 139.704 66.5884 135.914Z" fill="#A71511" stroke="#A71511" stroke-width="0.5"/>
<path d="M81.4407 152.559C81.4216 148.707 83.7753 145.059 87.192 143.214C89.0771 143.485 90.9601 144.055 92.5194 145.162C94.1638 146.295 95.3609 147.953 96.1491 149.748C98.243 148.504 100.842 147.886 103.238 148.596C106.431 149.446 108.872 152.398 109.102 155.628C109.273 157.436 108.757 159.258 107.813 160.809C109.865 162.043 111 164.369 111.153 166.672C111.577 171.851 108.227 177.021 103.338 178.977C100.889 179.935 98.0491 180.48 95.5079 179.547C94.1297 179.067 93.1307 177.918 92.579 176.622C93.0839 176.977 93.5525 177.44 94.1851 177.561C95.5867 177.862 96.803 176.378 98.1982 177.004C98.9161 177.257 99.1206 178.058 99.0886 178.73C100.333 178.052 101.423 177.033 101.922 175.699C102.789 173.461 102.288 170.908 101.146 168.853C99.6467 166.175 96.7945 164.417 93.7932 163.782C89.7907 162.903 85.309 163.93 82.3226 166.743C80.0839 168.858 78.7866 171.749 78.0624 174.674C76.8418 179.912 77.3829 185.576 79.7622 190.434C81.5813 194.188 84.5592 197.432 88.2996 199.424C91.8335 201.349 95.9339 202.121 99.9513 202.03C100.318 202.021 100.684 202.034 101.048 202.061C95.9041 204.458 90.0037 205.326 84.393 204.272C77.6854 203.105 71.4868 199.324 67.5205 193.887C63.6736 188.704 61.9248 182.232 61.8992 175.872C61.912 172.338 61.814 168.749 60.8405 165.321C60.3187 163.492 59.5241 161.657 58.1012 160.323C57.4047 159.655 56.5058 159.231 55.5664 158.995C57.4175 157.79 59.5603 156.859 61.8246 156.922C64.6236 156.922 67.2351 158.419 69.0052 160.479C70.9436 162.707 72.1322 165.498 72.6988 168.356C74.9184 165.494 75.436 161.505 74.1302 158.158C73.2164 155.763 71.3739 153.784 69.1479 152.483C70.1704 150.98 71.7339 149.822 73.5423 149.41C76.5053 148.684 79.8645 149.97 81.4407 152.559Z" fill="#A71511"/>
<path d="M162.475 151.537C163.642 149.823 165.847 149.006 167.927 149.075C177.313 149.092 186.698 149.063 196.087 149.092C195.59 150.691 195.465 152.446 194.526 153.884C193.479 155.339 191.665 156.227 189.833 156.272C187.328 156.325 184.819 156.288 182.314 156.264C182.25 167.393 182.314 178.527 182.284 189.657C182.314 191.753 181.104 193.923 179.071 194.802C177.677 195.349 176.167 195.554 174.722 195.928C174.735 184.934 174.73 173.936 174.722 162.942C174.679 161.183 175.292 159.342 176.708 158.162C178.106 156.897 180.165 156.884 181.898 156.317C174.919 156.247 167.936 156.317 160.957 156.292C161.425 154.698 161.57 152.976 162.475 151.537Z" fill="#A71511"/>
<path d="M147.078 167.262C150.015 164.162 154.113 162.486 158.001 160.785C162.619 162.776 167.68 164.876 170.433 169.208C173.048 173.319 172.637 178.312 172.649 182.927C172.649 187.259 172.641 191.592 172.654 195.928C170.915 195.432 168.966 195.352 167.466 194.292C166.138 193.321 165.359 191.741 165.279 190.153C165.128 186.969 165.476 183.773 165.154 180.597C164.722 182.044 164.693 183.648 163.842 184.95C162.753 186.566 160.733 187.412 158.772 187.424C156.091 187.469 153.409 187.372 150.727 187.441C150.757 189.456 150.937 191.725 149.487 193.377C148.071 195.243 145.511 195.36 143.391 195.924C143.424 189.705 143.37 183.483 143.416 177.264C143.449 173.674 144.518 169.962 147.078 167.262ZM151.875 173.089C150.648 175.29 150.706 177.865 150.698 180.295C155.558 180.36 160.419 180.287 165.283 180.331C165.288 177.921 165.367 175.386 164.19 173.182C162.937 170.683 160.448 169.075 157.98 167.814C155.584 169.099 153.141 170.651 151.875 173.089Z" fill="#A71511"/>
<path d="M190.672 167.224C193.313 164.143 196.994 162.478 200.486 160.785C204.284 162.62 208.362 164.454 210.977 168.086C212.863 170.691 213.611 174.029 213.63 177.274C213.668 183.491 213.622 189.707 213.653 195.92C211.71 195.36 209.348 195.231 208.101 193.291C206.854 191.63 207.013 189.413 207.032 187.421C204.59 187.405 202.145 187.474 199.7 187.43C197.765 187.409 195.774 186.301 194.931 184.39C194.477 183.221 194.372 181.943 193.96 180.757C193.854 183.898 194.02 187.043 193.929 190.183C193.843 192.074 192.841 193.993 191.186 194.795C189.95 195.372 188.597 195.561 187.305 195.928C187.339 189.707 187.282 183.483 187.331 177.262C187.373 173.658 188.336 169.921 190.672 167.224ZM195.558 172.029C193.914 174.412 193.865 177.496 193.937 180.326C198.309 180.33 202.678 180.322 207.05 180.334C207.069 177.964 207.141 175.468 206.117 173.291C204.995 170.739 202.72 169.122 200.482 167.804C198.65 168.917 196.794 170.15 195.558 172.029Z" fill="#A71511"/>
<path d="M237.702 167.437C240.633 164.225 244.833 162.519 248.796 160.785C252.797 162.523 257.035 164.257 259.97 167.526C262.364 170.17 263.362 173.727 263.396 177.175C263.443 183.421 263.404 189.666 263.417 195.916C261.793 195.477 260.034 195.339 258.566 194.49C257.17 193.625 256.29 192.107 256.117 190.535C255.872 187.234 256.316 183.908 255.944 180.61C255.554 181.967 255.499 183.433 254.802 184.692C253.774 186.486 251.587 187.441 249.506 187.425C246.846 187.433 244.185 187.392 241.529 187.425C241.614 189.471 241.682 191.757 240.227 193.427C238.801 195.258 236.255 195.359 234.145 195.928C234.157 189.796 234.145 183.668 234.153 177.54C234.2 173.942 235.155 170.178 237.702 167.437ZM242.515 173.37C241.402 175.514 241.546 177.963 241.508 180.29C246.364 180.322 251.223 180.302 256.083 180.302C256.079 178.076 256.197 175.75 255.225 173.67C254.036 170.945 251.418 169.11 248.745 167.831C246.266 169.163 243.712 170.783 242.515 173.37Z" fill="#A71511"/>
<path d="M268.637 161.999C269.754 161.341 271.011 161.179 272.2 160.785C272.187 170.306 272.194 179.824 272.2 189.345C272.237 190.993 271.823 192.71 270.823 193.874C269.653 195.34 267.865 195.38 266.348 195.928C266.361 186.297 266.348 176.666 266.354 167.035C266.324 165.03 267.133 162.944 268.637 161.999Z" fill="#A71511"/>
<path d="M277.117 161.909C278.684 160.906 280.655 160.809 282.489 160.793C286.514 160.821 290.54 160.748 294.565 160.813C302.435 161.268 308.605 169.1 307.112 176.32C306.49 179.995 304.118 183.283 300.895 185.399C303.026 188.907 305.144 192.419 307.31 195.907C304.864 195.769 302.331 196.216 299.95 195.55C297.262 194.454 296.399 191.575 294.79 189.508C293.789 188.103 291.972 187.47 290.242 187.429C287.718 187.356 285.198 187.413 282.679 187.405C282.722 189.378 282.912 191.571 281.518 193.215C280.099 195.185 277.389 195.388 275.133 195.826C275.318 185.939 275.137 176.044 275.223 166.152C275.219 164.589 275.698 162.859 277.117 161.909ZM282.679 167.911C282.804 174.31 282.506 180.725 282.813 187.117C283.283 185.594 283.296 183.884 284.323 182.565C285.466 181.042 287.481 180.275 289.422 180.279C291.351 180.189 293.323 180.486 295.225 180.068C298.44 179.199 300.709 175.759 299.82 172.669C299.139 170.115 296.632 167.927 293.763 167.915C290.065 167.886 286.372 167.915 282.679 167.911Z" fill="#A71511"/>
<path d="M310.262 160.785C311.782 161.224 313.442 161.346 314.816 162.211C316.349 163.231 317.17 165.124 317.139 166.968C317.143 174.244 317.139 181.519 317.111 188.791C319.671 188.839 322.226 188.778 324.786 188.811C326.812 188.803 328.914 189.956 329.731 191.923C330.225 193.206 330.419 194.587 330.754 195.924C325.995 195.92 321.239 195.924 316.483 195.928C314.769 195.887 312.881 195.652 311.577 194.392C310.522 193.279 310.285 191.65 310.278 190.16C310.258 180.369 310.293 170.579 310.262 160.785Z" fill="#A71511"/>
<path d="M335.179 163.379C336.825 161.44 339.94 161.375 342.466 160.785C342.431 170.452 342.476 180.123 342.446 189.79C342.471 191.794 341.221 193.879 338.965 194.798C337.305 195.428 335.459 195.627 333.684 195.928C333.844 187.115 333.714 178.298 333.749 169.484C333.769 167.419 333.404 165.078 335.179 163.379Z" fill="#A71511"/>
<path d="M346.924 162.472C348.952 160.119 353.035 160.371 354.85 162.854C360.088 170.119 365.224 177.459 370.438 184.741C370.422 178.828 370.434 172.911 370.438 166.994C370.389 164.857 371.593 162.614 373.653 161.805C374.923 161.33 376.279 161.122 377.594 160.785C377.557 170.453 377.598 180.12 377.573 189.784C377.598 191.937 376.684 194.294 374.653 195.302C372.441 196.562 369.439 195.761 367.985 193.738C362.812 186.504 357.696 179.226 352.515 172.001C352.507 177.91 352.54 183.822 352.507 189.735C352.552 191.852 351.372 194.059 349.353 194.888C348.075 195.379 346.707 195.583 345.392 195.928C345.392 186.277 345.388 176.625 345.392 166.974C345.372 165.361 345.786 163.67 346.924 162.472Z" fill="#A71511"/>
<path d="M380.534 177.952C380.825 169.138 388.489 160.903 397.551 160.81C401.627 160.765 405.706 160.818 409.786 160.785C409.282 162.959 409.077 165.613 406.949 166.904C403.701 168.976 399.638 167.18 396.128 168.336C392.769 169.049 390.227 171.699 388.976 174.78C394.77 174.793 400.56 174.789 406.354 174.825C405.907 176.295 405.776 177.882 405.034 179.25C404.042 180.968 402.016 181.921 400.056 181.884C396.333 181.908 392.61 181.864 388.89 181.9C390.465 185.837 394.442 188.768 398.756 188.792C401.557 188.979 404.763 188.116 407.183 189.96C409.13 191.308 409.274 193.84 409.799 195.928C405.715 195.912 401.631 195.936 397.551 195.92C394.225 195.875 390.928 194.813 388.214 192.908C383.379 189.59 380.324 183.805 380.534 177.952Z" fill="#A71511"/>
<path d="M416.173 163.653C418.302 161.705 421.257 160.742 424.157 160.787C429.566 160.803 434.98 160.791 440.393 160.795C439.976 162.279 439.825 163.86 439.087 165.238C438.089 166.897 436.119 167.848 434.183 167.897C430.556 167.974 426.925 167.799 423.306 167.954C421.603 167.966 420.159 169.417 420.063 171.044C419.775 172.91 421.424 174.715 423.331 174.784C425.981 174.877 428.64 174.784 431.294 174.808C437.584 174.499 443.106 180.882 441.812 186.862C441.144 190.436 438.774 193.838 435.268 195.253C433.615 195.96 431.779 195.944 430.013 195.92C424.717 195.908 419.424 195.916 414.128 195.916C414.629 193.887 414.75 191.464 416.607 190.094C417.993 188.927 419.892 188.692 421.661 188.777C424.867 188.789 428.076 188.83 431.282 188.801C434.02 188.85 435.802 185.106 433.895 183.138C432.584 181.455 430.213 182.008 428.348 181.919C425.743 181.793 423.072 182.199 420.526 181.553C416.979 180.52 414.241 177.56 413.147 174.166C412.016 170.487 413.214 166.21 416.173 163.653Z" fill="#A71511"/>
</g>
<defs>
<clipPath id="clip0_742_295">
<rect width="404" height="123" fill="white" transform="translate(38 111)"/>
</clipPath>
</defs>
</svg>
