<svg width="480" height="320" viewBox="0 0 480 320" fill="none" xmlns="http://www.w3.org/2000/svg">
<path d="M142.55 201.412C18.4142 189.936 19.0153 102.766 233.646 92.4678C107.328 104.208 11.6366 161.846 142.55 201.412H142.55Z" fill="#FA8B11"/>
<path d="M156.089 153.563C156.089 133.687 172.256 117.527 192.127 117.527C211.989 117.527 228.154 133.687 228.154 153.563C228.154 173.428 211.989 189.593 192.127 189.593C172.256 189.593 156.088 173.428 156.088 153.563H156.089ZM228.216 181.104V198.713H237.604V108.438H228.216V126.006C219.905 115.15 206.818 108.132 192.127 108.132C167.071 108.132 146.7 128.51 146.7 153.563C146.7 178.604 167.072 198.981 192.127 198.981C206.818 198.981 219.905 191.971 228.216 181.104ZM317.95 153.563C317.95 133.687 334.112 117.527 353.977 117.527C373.856 117.527 390.014 133.687 390.014 153.563C390.014 173.428 373.856 189.593 353.977 189.593C334.112 189.593 317.95 173.428 317.95 153.563ZM390.075 181.104V198.713H399.463V108.438H390.075V126.006C381.763 115.15 368.677 108.132 353.977 108.132C328.937 108.132 308.559 128.51 308.559 153.563C308.559 178.604 328.937 198.981 353.977 198.981C368.677 198.981 381.763 191.971 390.075 181.104ZM310.13 108.398H245.326V117.794H273.033V198.714H282.426V117.794H310.13V108.398Z" fill="#25439A"/>
<path d="M139.642 211.016H159.329C171.018 211.016 176.849 212.329 176.849 214.956C176.849 215.732 176.421 216.296 175.569 216.667C174.713 217.044 173.027 217.472 170.502 217.903C173.259 218.247 178.451 218.853 180.072 219.722C181.529 220.501 182.261 221.33 182.261 222.2C182.261 223.633 180.332 224.866 176.462 225.884C172.599 226.89 167.93 227.397 162.453 227.397H139.642L139.642 211.016ZM159.37 216.965C160.825 217.03 162.527 216.923 164.461 216.643C167.051 216.281 168.346 215.706 168.346 214.927C168.346 213.535 165.325 212.854 159.296 212.865H146.883V216.965H159.37ZM162.391 225.548C165.874 225.548 168.847 225.215 171.319 224.572C173.784 223.9 175.02 223.112 175.02 222.188C175.02 221.25 173.784 220.458 171.319 219.806C168.847 219.148 165.874 218.815 162.391 218.815H146.883V225.548H162.391ZM212.531 221.33L212.404 221.277L241.247 227.397H229.165L203.45 221.947V227.397H196.002V211.016H216.389C222.019 211.016 226.824 211.525 230.8 212.532C234.779 213.535 236.766 214.737 236.766 216.172C236.766 217.605 234.779 218.815 230.8 219.817C226.824 220.823 222.019 221.33 216.389 221.33H212.531V221.33ZM216.321 212.865H203.45V219.484H216.321C219.905 219.484 222.967 219.159 225.508 218.516C228.048 217.876 229.319 217.084 229.319 216.172C229.319 215.26 228.048 214.485 225.508 213.83C222.967 213.187 219.905 212.865 216.322 212.865H216.321ZM283.002 222.242H263.756L255.446 227.397H249.747L249.839 226.046L273.52 211.42L297.112 226.1L296.926 227.397H291.281L283.002 222.242ZM266.741 220.396H280.271L273.514 216.201L266.741 220.396ZM347.175 225.294C344.179 226.783 338.369 227.533 329.736 227.533C318.437 227.533 311.794 225.989 309.797 222.896L316.172 222.669C318.156 224.866 322.71 225.941 329.815 225.941C333.927 225.941 337.126 225.642 339.418 225.052C341.711 224.465 342.852 223.728 342.852 222.869C342.852 221.717 340.631 220.902 336.177 220.418C334.918 220.272 331.93 220.017 327.217 219.628C321.631 219.186 317.782 218.678 315.658 218.089C312.798 217.287 311.372 216.296 311.372 215.142C311.372 213.455 313.97 212.275 319.159 211.552C321.893 211.205 325.214 211.016 329.14 211.016C335.46 211.016 340.155 211.432 343.218 212.252C345.607 212.891 347.107 213.72 347.71 214.783L340.793 214.873C339.191 213.269 335.254 212.476 328.978 212.476C326.373 212.476 323.967 212.65 321.766 212.97C318.826 213.428 317.352 214.057 317.352 214.873C317.352 215.503 318.168 216.053 319.805 216.481C321.436 216.924 325.158 217.363 330.963 217.779C336.165 218.168 339.961 218.572 342.357 218.973C347.099 219.749 349.464 221.047 349.464 222.858C349.464 223.713 348.701 224.53 347.175 225.295V225.294ZM373.888 227.397H365.297V211.016H373.888V227.397ZM397.976 225.548H420.551V227.397H391.414V211.016H397.976V225.548Z" fill="#FA8B11"/>
</svg>
