<svg width="480" height="320" viewBox="0 0 480 320" fill="none" xmlns="http://www.w3.org/2000/svg">
<path d="M133.429 141.752C133.429 161.167 117.695 176.9 98.2804 176.9C78.8649 176.9 63.1289 161.167 63.1289 141.752C63.1289 122.335 78.8649 106.6 98.2804 106.6C117.695 106.6 133.429 122.335 133.429 141.752Z" fill="#F04A00"/>
<path d="M96.1125 116.631C95.4703 116.631 94.8939 117.032 94.6665 117.633L77.8774 161.924C77.6994 162.402 77.7634 162.935 78.0518 163.352C78.1934 163.559 78.3833 163.728 78.6052 163.845C78.8271 163.962 79.0741 164.023 79.3248 164.022H84.6111C85.2535 164.022 85.8293 163.621 86.0552 163.021L98.311 130.604C98.5384 129.993 98.7176 129.417 98.9183 128.83C99.1306 129.445 99.3229 130.052 99.5702 130.684C99.5536 130.647 111.176 162.995 111.176 162.995C111.395 163.612 111.977 164.022 112.632 164.022H118.452C118.96 164.022 119.437 163.774 119.723 163.352C119.866 163.146 119.957 162.908 119.987 162.659C120.018 162.41 119.987 162.158 119.898 161.924L103.111 117.633C102.883 117.032 102.308 116.631 101.664 116.631L96.1125 116.631Z" fill="white"/>
<path d="M133.845 172.214C133.403 172.212 133.003 172.483 132.844 172.91L120.143 206.537C120.03 206.849 120.067 207.223 120.272 207.508C120.47 207.807 120.802 207.977 121.153 207.984L125.128 207.974C125.575 207.977 125.976 207.708 126.13 207.282L135.404 182.802C135.612 182.232 135.778 181.693 135.947 181.174C136.134 181.73 136.309 182.267 136.535 182.853C136.539 182.826 145.277 207.293 145.277 207.293C145.43 207.717 145.836 208 146.284 208.004L150.679 208C151.038 208 151.364 207.83 151.565 207.536C151.75 207.253 151.805 206.878 151.682 206.555L139.033 172.908C138.871 172.497 138.489 172.224 138.041 172.212L133.845 172.214ZM159.123 173.23L155.529 173.83C155.012 173.918 154.638 174.348 154.636 174.883C154.636 174.883 154.629 180.493 154.636 182.098C153.402 182.114 151.491 182.117 151.491 182.117C150.899 182.107 150.408 182.593 150.41 183.181L150.406 186.003C150.413 186.594 150.89 187.06 151.477 187.07C151.477 187.07 153.402 187.067 154.629 187.078C154.626 188.893 154.62 200.317 154.62 200.317C154.614 204.521 155.485 208.415 161.863 208.421C163.369 208.421 165.145 208.234 166.496 207.929C166.987 207.805 167.325 207.387 167.325 206.885L167.344 203.77C167.336 203.417 167.171 203.117 166.904 202.908C166.632 202.719 166.278 202.637 165.96 202.74C165.148 202.99 164.017 203.135 162.863 203.123C161.136 203.121 160.346 203.123 160.354 198.835C160.354 198.835 160.361 188.873 160.357 187.078C161.834 187.078 165.677 187.083 165.677 187.083C166.272 187.083 166.744 186.608 166.756 186.015L166.759 183.192C166.749 182.605 166.276 182.117 165.685 182.117C165.685 182.117 161.838 182.112 160.367 182.107C160.365 180.46 160.367 174.278 160.367 174.278C160.365 173.977 160.22 173.675 159.978 173.466C159.749 173.268 159.433 173.175 159.123 173.23ZM171.901 172.516C171.308 172.516 170.836 172.991 170.828 173.578L170.808 206.975C170.812 207.576 171.282 208.047 171.876 208.039L175.467 208.044C176.056 208.052 176.53 207.576 176.532 206.979L176.562 173.587C176.56 173 176.086 172.516 175.49 172.529L171.901 172.516ZM200.623 199.86L200.63 190.532C200.63 184.681 197.443 181.712 191.142 181.703C188.164 181.709 185.236 182.338 182.469 183.566C182.059 183.761 181.799 184.192 181.849 184.654L182.181 187.807C182.214 188.181 182.444 188.507 182.775 188.663C183.114 188.818 183.506 188.795 183.814 188.6C185.625 187.453 188.249 186.717 190.516 186.722C193.722 186.722 194.859 187.897 194.852 191.253C194.852 191.253 194.852 191.535 194.844 191.777C186.037 192.045 180.392 195.297 180.392 201.625C180.392 205.803 183.363 208.473 187.964 208.473C190.733 208.484 193.237 207.449 195.047 205.671C195.036 206.119 195.041 206.551 195.024 206.999C195.035 207.587 195.515 208.08 196.103 208.068L199.646 208.065C199.931 208.074 200.212 207.949 200.417 207.745C200.614 207.532 200.715 207.244 200.717 206.956C200.623 204.869 200.614 202.209 200.623 199.86H200.623ZM188.929 203.432C187.177 203.432 186.12 202.515 186.109 200.959C186.113 197.754 189.28 196.739 194.791 196.554C194.497 199.948 192.177 203.441 188.929 203.433L188.929 203.432ZM204.422 189.773C204.426 195.229 208.692 196.471 211.826 197.378C214.731 198.235 216.011 198.784 216.001 200.406C215.993 202.596 213.428 203.356 211.232 203.348C209.643 203.344 207.867 203.082 206.206 202.631C205.888 202.533 205.549 202.592 205.293 202.783C205.027 202.977 204.853 203.296 204.853 203.617L204.75 206.928C204.745 207.456 205.099 207.903 205.608 208.01C207.195 208.315 209.104 208.507 210.843 208.507C217.335 208.511 221.868 204.99 221.871 199.922C221.871 194.731 217.638 193.446 214.534 192.5C211.562 191.606 210.248 191.034 210.251 189.39C210.25 187.598 211.652 186.67 214.396 186.682C215.914 186.689 217.501 186.95 218.988 187.453C219.314 187.551 219.661 187.496 219.949 187.301C220.221 187.113 220.387 186.797 220.405 186.459L220.496 183.354C220.515 182.826 220.14 182.376 219.626 182.254C217.756 181.91 216.126 181.731 214.791 181.73C208.498 181.724 204.43 184.881 204.422 189.773H204.422ZM225.08 192.607C224.493 192.603 224.019 193.082 224.009 193.674L224.013 196.53C224.013 197.118 224.486 197.601 225.076 197.594H232.525C233.119 197.612 233.603 197.133 233.598 196.53L233.605 193.674C233.605 193.084 233.124 192.607 232.53 192.603L225.08 192.607ZM249.094 181.755C246.432 181.745 244.086 182.713 242.344 184.426C242.347 184.346 242.357 184.24 242.348 184.156L242.361 173.638C242.367 173.049 241.887 172.567 241.298 172.576H237.708C237.114 172.567 236.627 173.028 236.637 173.628L236.613 206.404C236.608 206.885 236.927 207.313 237.391 207.436C239.874 208.117 242.185 208.39 245.584 208.386C253.79 208.399 258.904 202.917 258.904 194.074C258.918 186.239 255.341 181.75 249.095 181.755H249.094ZM245.915 203.426C244.53 203.433 243.395 203.307 242.344 203.047C242.344 201.72 242.348 195.54 242.348 195.54C242.347 191.929 244.217 186.847 248.375 186.856C249.518 186.847 252.984 186.859 252.998 194.338C252.984 200.456 250.668 203.437 245.915 203.426ZM263.349 172.581C262.767 172.581 262.289 173.069 262.289 173.653L262.268 207.04C262.274 207.632 262.741 208.111 263.331 208.111L266.919 208.117C267.514 208.117 268.002 207.642 267.995 207.044L268.013 173.653C268.025 173.059 267.536 172.588 266.949 172.586L263.349 172.581ZM289.467 182.2C288.879 182.209 288.405 182.687 288.404 183.266L288.405 194.713C288.391 199.805 285.778 203.51 282.179 203.498C280.043 203.487 278.801 202.708 278.805 198.668L278.816 183.266C278.816 182.687 278.338 182.2 277.743 182.195L274.153 182.19C273.566 182.195 273.083 182.687 273.09 183.259L273.072 199.867C273.065 205.5 275.991 208.601 281.27 208.598C284.133 208.602 286.633 207.562 288.471 205.718C288.435 206.203 288.434 206.654 288.434 207.063C288.434 207.651 288.918 208.135 289.499 208.125L293.042 208.135C293.629 208.135 294.115 207.662 294.106 207.067L294.125 183.282C294.131 182.692 293.652 182.214 293.057 182.2H289.467H289.467ZM309.204 181.785C302.326 181.791 297.693 187.212 297.682 195.292C297.68 203.973 301.857 208.565 309.752 208.57C312.756 208.575 315.624 208.044 318.014 207.056C318.447 206.885 318.723 206.431 318.666 205.96L318.331 202.904C318.295 202.55 318.085 202.244 317.777 202.073C317.474 201.896 317.104 201.911 316.792 202.066C315.116 202.922 312.587 203.475 310.383 203.478C307.937 203.478 306.303 202.954 305.244 201.845C304.134 200.703 303.593 198.803 303.554 196.113C305.424 196.104 305.404 196.113 318.374 196.118C318.915 196.118 319.367 195.714 319.445 195.2C319.536 194.407 319.548 193.731 319.542 193.279C319.549 187.986 316.847 181.791 309.204 181.785V181.785ZM304.023 191.387C304.73 188.827 306.423 186.654 309.006 186.65C310.251 186.654 311.338 187.096 312.165 187.945C312.968 188.767 313.456 189.963 313.606 191.406L304.023 191.387Z" fill="#2461AA"/>
<path d="M322.673 204.878C322.674 206.901 324.313 208.53 326.329 208.548C328.402 208.547 330.021 206.934 330.021 204.885C330.018 202.84 328.405 201.219 326.326 201.238C324.317 201.233 322.674 202.878 322.673 204.878ZM331.546 196.043C331.533 206.288 337.711 208.458 342.887 208.448C346.001 208.456 347.842 207.739 349.451 207.096C349.912 206.929 350.2 206.459 350.151 205.987L349.811 202.878C349.777 202.532 349.568 202.221 349.254 202.053C348.955 201.873 348.582 201.878 348.266 202.035C346.827 202.772 344.671 203.251 342.763 203.248C338.274 203.248 337.455 200.612 337.458 195.421C337.468 187.965 340.345 186.963 343.16 186.958C344.855 186.963 346.6 187.305 348.227 187.96C348.534 188.072 348.878 188.038 349.166 187.867C349.444 187.709 349.642 187.407 349.673 187.078L350.065 183.921C350.099 183.673 350.043 183.422 349.907 183.213C349.771 183.004 349.564 182.85 349.325 182.78C347.526 182.195 345.487 181.91 343.406 181.91C337.994 181.907 331.542 184.365 331.546 196.043V196.043ZM364.162 181.843C356.857 181.819 351.757 187.385 351.753 195.329C351.738 203.775 355.956 208.614 363.291 208.601C370.617 208.624 375.749 202.944 375.76 194.819C375.764 186.564 371.532 181.838 364.162 181.843V181.843ZM363.816 203.412C358.695 203.412 357.615 198.858 357.618 195.043C357.632 189.067 360.829 186.93 363.831 186.917C368.845 186.925 369.89 191.359 369.886 195.068C369.878 201.214 366.751 203.417 363.816 203.412ZM398.848 185.775C397.846 183.618 395.682 181.796 391.832 181.803C389.083 181.803 386.616 182.847 384.787 184.672C384.802 184.197 384.816 183.746 384.82 183.342C384.813 182.751 384.335 182.271 383.75 182.271L380.206 182.254C379.617 182.269 379.129 182.74 379.134 183.342L379.123 207.122C379.123 207.717 379.603 208.201 380.187 208.195L383.777 208.197C384.37 208.191 384.847 207.717 384.847 207.126L384.866 195.801C384.861 190.715 387.463 186.9 390.921 186.895C393.315 186.917 394.165 188.164 394.174 191.721L394.157 207.118C394.156 207.721 394.63 208.201 395.218 208.206H398.752C399.351 208.199 399.818 207.728 399.827 207.132L399.832 195.797C399.833 190.231 402.92 186.917 405.903 186.909C407.957 186.912 409.147 187.709 409.14 191.77L409.122 207.147C409.137 207.727 409.618 208.206 410.206 208.21H413.79C414.376 208.23 414.849 207.733 414.852 207.151L414.863 190.646C414.878 184.936 411.989 181.819 406.77 181.81C403.084 181.803 400.453 183.637 398.848 185.775Z" fill="#F04A00"/>
</svg>
