<svg width="480" height="320" viewBox="0 0 480 320" fill="none" xmlns="http://www.w3.org/2000/svg">
<path fill-rule="evenodd" clip-rule="evenodd" d="M200.908 138.115H142.407C137.59 138.115 135.783 138.417 132.172 142.631L99.9639 183.26H121.037L142.1 156.778C145.717 152.56 147.524 152.263 152.335 152.263H190.974L200.908 138.115Z" fill="#4E4A7A"/>
<path fill-rule="evenodd" clip-rule="evenodd" d="M186.76 158.279H155.342C150.531 158.279 148.724 158.58 145.114 162.794L128.861 183.259H149.928L155.04 176.94C158.651 172.728 160.459 172.426 165.275 172.426H176.832L186.76 158.279ZM217.473 197.558C217.425 197.725 217.394 197.907 217.346 198.088C216.43 201.511 215.286 202.156 211.614 202.309C210.65 202.346 209.709 202.362 208.752 202.362L206.442 202.32C203.324 202.283 200.937 202.195 201.698 198.347C201.856 197.484 202.041 196.636 202.277 195.772C203.23 192.203 204.333 190.22 208.323 189.944C209.51 189.849 210.686 189.849 211.85 189.849C213.373 189.849 214.924 189.849 216.4 190.015C218.884 190.289 218.751 192.096 218.215 194.284H214.597C214.916 193.084 214.32 192.923 213.242 192.867C212.904 192.85 212.554 192.85 212.198 192.85H211.168L209.27 192.867C206.84 192.887 206.586 193.766 205.967 196.088C205.291 198.588 205.242 199.252 207.889 199.323L209.336 199.361C209.98 199.361 210.607 199.342 211.253 199.342C212.525 199.342 213.362 199.233 213.814 197.558H217.473ZM226.721 189.884L229.391 189.835L232.363 189.849C236.63 189.849 237.776 190.859 236.593 195.278L236.438 195.87C235.189 200.524 234.491 202.103 228.92 202.283L226.093 202.345C225.699 202.359 225.305 202.365 224.912 202.362C224.071 202.357 223.231 202.326 222.393 202.27C219.739 202.065 218.372 201.151 219.035 198.186C219.204 197.433 219.402 196.677 219.607 195.924C220.897 191.102 221.77 189.963 226.721 189.884ZM223.241 196.436C222.7 198.46 222.614 199.252 224.821 199.306C225.478 199.342 226.16 199.342 226.823 199.342C227.462 199.342 228.094 199.323 228.74 199.323C230.469 199.323 231.626 199.252 232.242 197.298C232.411 196.75 232.574 196.194 232.723 195.646C232.923 194.893 233.196 193.754 232.802 193.27C232.465 192.887 231.446 192.849 230.71 192.849C229.482 192.849 228.228 192.849 226.992 192.867C225.73 192.904 224.484 192.812 223.809 194.508C223.627 194.982 223.502 195.46 223.368 195.941L223.241 196.436ZM241.024 200.005L239.209 202.23H235.057L245.183 189.963H250.23L253.641 202.23H249.512L248.951 200.005H241.024ZM246.943 192.607L243.014 197.46H248.276L246.943 192.607ZM258.765 198.311C258.765 198.381 258.752 198.45 258.728 198.516C258.433 199.637 259.501 199.618 260.333 199.653C260.93 199.653 261.514 199.678 262.098 199.678C262.925 199.678 263.763 199.654 264.619 199.601C265.461 199.564 266.282 199.582 266.559 198.534C266.823 197.539 265.933 197.449 265.124 197.449H264.515C262.479 197.449 260.412 197.449 258.408 197.322C256.04 197.152 255.595 196.069 256.214 193.766C256.702 191.944 257.366 190.698 259.446 190.196C260.85 189.849 263.629 189.835 265.053 189.835L267.655 189.871C269.152 189.884 270.845 189.906 271.338 191.354C271.551 192.078 271.302 192.923 271.116 193.692H267.458C267.644 192.777 267.15 192.572 266.331 192.536C265.726 192.517 265.124 192.517 264.529 192.517C263.576 192.517 262.623 192.572 261.659 192.607C260.985 192.644 260.242 192.79 260.049 193.531C259.723 194.726 261.048 194.598 261.888 194.634L264.379 194.67C265.203 194.67 266.011 194.688 266.837 194.688C269.693 194.688 271.22 195.236 270.363 198.425C269.554 201.44 268.083 201.994 265.191 202.217C263.563 202.309 261.979 202.345 260.375 202.345C259.545 202.345 258.699 202.345 257.884 202.283C255.57 202.14 254.141 201.843 254.889 199.047L255.089 198.311H258.765ZM288.411 189.963L287.59 193.038H282.123L279.663 202.23H275.927L278.392 193.038H272.912L273.732 189.963H288.411ZM295.758 200.012L293.946 202.234H289.784L299.912 189.963H304.958L308.363 202.234H304.252L303.685 200.012H295.758ZM301.672 192.615L297.743 197.474H303.005L301.672 192.615ZM313.505 202.234H309.776L313.06 189.963H316.791L313.505 202.234ZM319.727 189.963H331.156C334.036 189.963 335.008 190.884 334.217 193.845C333.983 194.694 333.682 195.632 333.023 196.371C332.349 197.105 331.413 197.266 330.576 197.528C332.087 197.725 332.905 198.19 332.452 199.883L331.819 202.234H328.033L328.347 201.058C328.707 199.716 328.816 199.094 327.25 199.094H321.017L320.172 202.234H316.44L319.727 189.963ZM327.461 196.11H327.941C329.684 196.11 329.93 195.761 330.3 194.404C330.449 193.754 330.557 193.259 329.919 193.054C329.607 192.964 329.227 192.946 328.877 192.946H322.668L321.817 196.11H327.461ZM341.795 189.963L339.329 199.168H347.81L346.986 202.234H334.766L338.058 189.963H341.795ZM352.53 202.234H348.794L352.084 189.963H355.816L352.53 202.234ZM358.733 189.963H364.671L369.603 199.168L372.068 189.963H375.581L372.297 202.234H366.36L361.422 193.024L358.956 202.234H355.443L358.733 189.963ZM390.231 194.863L389.58 197.285H380.282L379.705 199.457H389.658L388.916 202.233H375.225L378.512 189.963H392.2L391.454 192.765H381.502L380.935 194.863H390.231ZM395.696 198.316C395.694 198.384 395.682 198.451 395.66 198.516C395.36 199.642 396.432 199.626 397.27 199.66C397.861 199.66 398.44 199.678 399.029 199.678C399.857 199.678 400.688 199.66 401.55 199.607C402.394 199.57 403.215 199.59 403.491 198.54C403.764 197.546 402.865 197.449 402.057 197.449H401.448C399.405 197.449 397.348 197.449 395.341 197.321C392.972 197.152 392.526 196.074 393.142 193.778C393.628 191.952 394.298 190.705 396.378 190.21C397.782 189.86 400.56 189.835 401.978 189.835L404.581 189.871C406.089 189.89 407.771 189.906 408.271 191.36C408.475 192.084 408.235 192.926 408.042 193.701H404.383C404.569 192.784 404.076 192.579 403.263 192.544C402.654 192.525 402.057 192.525 401.46 192.525C400.507 192.525 399.55 192.579 398.59 192.615C397.916 192.65 397.174 192.8 396.975 193.536C396.661 194.73 397.983 194.598 398.813 194.64L401.309 194.674C402.133 194.674 402.943 194.694 403.768 194.694C406.62 194.694 408.15 195.25 407.295 198.431C406.481 201.445 405.01 201.994 402.122 202.217C400.496 202.309 398.903 202.348 397.302 202.348C396.475 202.348 395.632 202.348 394.817 202.296C392.503 202.144 391.074 201.854 391.822 199.053L392.021 198.316H395.696ZM76.912 200.035L75.1227 202.234H71.0103L81.029 190.106H86.0084L89.3773 202.234H85.3083L84.7493 200.035H76.912ZM82.7592 192.722L78.8778 197.528H84.0729L82.7592 192.722ZM104.353 190.106L103.532 193.144H98.1376L95.7022 202.234H92.0062L94.4416 193.144H89.0235L89.8432 190.106H104.353ZM109.848 190.106L107.415 199.203H115.794L114.978 202.234H102.904L106.154 190.106H109.848ZM121.44 200.035L119.65 202.234H115.539L125.552 190.106H130.531L133.901 202.234H129.832L129.277 200.035H121.44ZM127.288 192.722L123.406 197.528H128.602L127.288 192.722ZM137.77 190.106H143.642L148.512 199.203L150.949 190.106H154.427L151.178 202.234H145.307L140.435 193.128L137.993 202.233H134.521L137.77 190.106ZM170.72 190.106L169.912 193.144H164.511L162.076 202.234H158.387L160.817 193.144H155.403L156.21 190.106H170.72ZM173.234 202.234H169.545L172.794 190.106H176.482L173.233 202.234H173.234ZM192.643 197.626C192.602 197.78 192.571 197.962 192.523 198.142C191.613 201.524 190.481 202.162 186.862 202.309C185.919 202.346 184.974 202.364 184.03 202.362L181.745 202.324C178.664 202.296 176.308 202.206 177.049 198.401C177.207 197.546 177.4 196.707 177.622 195.851C178.575 192.331 179.659 190.365 183.608 190.094C184.778 190.004 185.939 190.004 187.087 190.004C188.593 190.004 190.125 190.004 191.582 190.16C194.042 190.433 193.909 192.217 193.384 194.382H189.798C190.125 193.199 189.527 193.038 188.467 192.981C188.13 192.964 187.778 192.964 187.442 192.964H186.416L184.542 192.981C182.137 193 181.884 193.869 181.269 196.164C180.605 198.636 180.565 199.293 183.181 199.367L184.603 199.402C185.241 199.402 185.868 199.385 186.5 199.385C187.754 199.385 188.582 199.274 189.028 197.626H192.643Z" fill="#110E39"/>
<path fill-rule="evenodd" clip-rule="evenodd" d="M215.05 117.952H129.465C124.642 117.952 122.845 118.253 119.228 122.466L71.0776 183.259H92.1452L129.164 136.615C132.774 132.402 134.584 132.1 139.394 132.1H205.116L215.05 117.952Z" fill="#9993B5"/>
<path fill-rule="evenodd" clip-rule="evenodd" d="M257.289 117.638L268.421 175.507C268.939 178.256 270.803 180.916 272.327 183.174H240.416C241.802 181.892 242.749 180.419 243.146 178.751C244.231 174.23 242.417 169.514 241.616 165.482H214.79L208.521 174.429C207.624 175.707 206.677 177.176 206.327 178.654C205.948 180.22 205.954 181.756 206.519 183.174H188.148C192.289 179.445 195.73 175.309 198.955 170.891L233.882 121.569C233.551 120.092 233.074 118.813 232.174 117.638H257.289ZM235.954 134.535L221.938 154.88H239.426L235.954 134.535Z" fill="#110E39"/>
<path fill-rule="evenodd" clip-rule="evenodd" d="M337.396 131.195C334.127 128.447 330.3 128.447 325.772 128.447H312.118C305.137 128.447 304.349 130.117 302.74 136.796L296.09 164.5C294.486 171.185 296.758 172.361 302.847 172.361H315.82C320.141 172.361 324.361 171.969 328.793 170.299L323.734 183.174H283.552C271.858 183.174 268.639 175.309 271.255 164.404L277.982 136.403C280.598 125.499 287.597 117.638 299.284 117.638H338.291L337.396 131.195ZM393.944 117.638L405.09 175.507C405.614 178.256 407.476 180.916 408.989 183.174H377.075C378.469 181.892 379.416 180.419 379.814 178.751C380.899 174.23 379.083 169.514 378.275 165.482H351.458L345.183 174.429C344.291 175.707 343.351 177.176 342.994 178.654C342.614 180.22 342.614 181.756 343.187 183.174H324.813C328.948 179.445 332.392 175.309 335.622 170.891L370.553 121.569C370.211 120.092 369.74 118.813 368.842 117.638H393.944ZM372.62 134.535L358.601 154.88H376.093L372.62 134.535Z" fill="#110E39"/>
</svg>
