<svg width="480" height="320" viewBox="0 0 480 320" fill="none" xmlns="http://www.w3.org/2000/svg">
<g clip-path="url(#clip0_730_18616)">
<mask id="mask0_730_18616" style="mask-type:luminance" maskUnits="userSpaceOnUse" x="45" y="-35" width="390" height="390">
<path d="M45.1826 -34.8167H434.817V354.817H45.1826V-34.8167Z" fill="white"/>
</mask>
<g mask="url(#mask0_730_18616)">
<path d="M162.062 170.542H161.683C160.869 173.773 155.984 174.314 152.226 174.314C144.704 174.314 140.32 173.008 140.32 166.999C140.32 161.339 144.451 159.59 152.226 159.59C155.291 159.59 159.992 159.549 161.182 162.237H161.683V158.515C161.683 156.313 161.496 154.917 156.795 154.917C154.101 154.917 152.41 155.373 152.41 157.482H141.631C141.631 150.166 149.092 150.21 156.795 150.21C167.83 150.21 172.462 151.194 172.462 159.323V174.048H161.683L162.062 170.542ZM151.099 166.768C151.099 169.33 154.169 169.33 155.794 169.33C160.305 169.33 161.683 168.926 161.683 166.457C161.683 164.481 159.305 164.308 155.794 164.308C153.166 164.308 151.099 164.621 151.099 166.768ZM201.543 156.134H189.073V166.682C189.134 168.073 189.507 168.656 191.517 168.656C194.335 168.656 194.208 167.224 194.335 165.602L194.395 164.345H202.983V166.457C202.983 172.879 199.657 174.311 190.887 174.311C183.995 174.311 178.291 173.684 178.291 167.76V156.134H174.28V150.479H178.291V145.492H189.073V150.479H201.543M204.985 174.048H215.761V140.38H204.985V174.048ZM239.947 170.542H239.573C238.757 173.773 233.869 174.314 230.113 174.314C222.592 174.314 218.207 173.008 218.207 166.999C218.207 161.339 222.342 159.59 230.113 159.59C233.181 159.59 237.877 159.549 239.073 162.237H239.573V158.515C239.573 156.313 239.386 154.917 234.682 154.917C231.988 154.917 230.298 155.373 230.298 157.482H219.521C219.521 150.166 226.977 150.21 234.682 150.21C245.712 150.21 250.355 151.194 250.355 159.323V174.048H239.573L239.947 170.542ZM228.981 166.768C228.981 169.33 232.052 169.33 233.684 169.33C238.193 169.33 239.573 168.926 239.573 166.457C239.573 164.481 237.19 164.308 233.684 164.308C231.054 164.308 228.981 164.621 228.981 166.768ZM273.787 157.168C273.413 155.194 271.096 155.194 269.402 155.194C263.764 155.194 263.764 155.689 263.764 157.08C263.764 158.245 263.89 159.056 269.402 159.144C280.555 159.323 285.506 159.771 285.506 166.372C285.506 173.28 278.048 174.314 269.402 174.314C260.883 174.314 253.298 174.451 253.298 166.685H264.077C264.077 169.335 266.771 169.335 269.402 169.335C274.29 169.335 275.043 169.11 275.043 167.268C275.043 164.934 273.16 164.934 269.402 164.934C255.745 164.934 253.298 162.732 253.298 157.929C253.298 150.344 260.253 150.212 269.402 150.212C275.42 150.212 283.942 150.254 283.942 156.046V157.168M310.698 150.479H315.649V176.823C315.649 179.732 314.228 181.794 311.388 183.02C309.087 184.007 305.684 184.499 301.173 184.499C296.664 184.499 293.445 184.078 291.521 183.245C288.978 182.077 287.798 179.933 288.016 176.823H292.964C292.964 178.921 293.676 180.282 295.094 180.911C296.136 181.387 298.16 181.626 301.173 181.626C304.551 181.626 306.872 181.359 308.125 180.82C309.841 180.103 310.698 178.682 310.698 176.557V171.122H310.575C309.571 173.247 306.041 174.311 299.982 174.311C294.888 174.311 291.397 173.31 289.519 171.309C287.845 169.599 287.009 166.594 287.009 162.283C287.009 157.973 287.76 154.979 289.266 153.308C291.106 151.24 294.677 150.212 299.982 150.212C305.536 150.212 309.065 151.301 310.575 153.486L310.698 153.442V150.479ZM292.15 162.283C292.15 165.846 292.461 168.073 293.088 168.969C294.174 170.613 296.87 171.441 301.173 171.441C305.475 171.441 308.252 170.575 309.505 168.834C310.297 167.727 310.698 165.544 310.698 162.283C310.698 158.693 310.214 156.343 309.255 155.237C308.045 153.802 305.351 153.085 301.173 153.085C296.994 153.085 294.344 153.846 293.214 155.372C292.502 156.359 292.15 158.663 292.15 162.283ZM318.907 174.048H323.853V140.38H318.907V174.048ZM340.901 174.314C334.795 174.314 330.842 173.55 329.027 172.024C327.207 170.501 326.297 167.258 326.297 162.284C326.297 157.289 327.207 154.029 329.027 152.5C330.842 150.977 334.795 150.216 340.901 150.216C346.998 150.216 350.954 150.977 352.771 152.5C354.588 154.029 355.498 157.289 355.498 162.284C355.498 167.258 354.588 170.501 352.771 172.024C350.954 173.55 346.998 174.314 340.901 174.314ZM340.901 153.083C336.552 153.083 333.888 153.575 332.912 154.565C331.928 155.552 331.436 158.125 331.436 162.284C331.436 166.419 331.928 168.976 332.912 169.96C333.888 170.947 336.552 171.444 340.901 171.444C345.239 171.444 347.908 170.947 348.89 169.96C349.871 168.976 350.36 166.419 350.36 162.284C350.36 158.125 349.871 155.552 348.89 154.565C347.908 153.575 345.239 153.083 340.901 153.083ZM362.958 174.049H358.01V140.383H362.958V153.529H363.082C364.25 151.316 367.783 150.211 373.668 150.211C378.936 150.211 382.488 151.303 384.321 153.488C385.789 155.195 386.52 158.126 386.52 162.285C386.52 166.568 385.808 169.526 384.384 171.17C382.548 173.265 378.974 174.315 373.668 174.315C368.113 174.315 364.588 173.265 363.082 171.17L362.958 171.261V174.049ZM372.294 171.445C376.387 171.445 378.999 170.725 380.129 169.29C380.967 168.24 381.385 165.906 381.385 162.285C381.385 158.398 380.849 155.891 379.78 154.769C378.716 153.645 376.222 153.084 372.294 153.084C368.242 153.084 365.63 153.774 364.462 155.149C363.538 156.229 363.082 158.604 363.082 162.285C363.082 166.054 363.7 168.526 364.932 169.691C366.163 170.857 368.618 171.445 372.294 171.445ZM416.281 157.973V174.044H411.335V171.62L411.211 171.526C410.376 172.727 408.85 173.522 406.637 173.91C405.254 174.176 403.165 174.314 400.369 174.314C396.188 174.314 393.18 173.896 391.344 173.055C389.007 171.982 387.833 170.017 387.833 167.18C387.833 164.153 388.96 162.108 391.217 161.025C392.974 160.192 396.127 159.771 400.68 159.771C407.074 159.771 410.516 160.563 411.019 162.152H411.335V157.797C411.335 155.793 410.56 154.46 409.015 153.803C407.882 153.324 405.735 153.085 402.56 153.085C399.847 153.085 397.92 153.217 396.795 153.487C394.915 153.935 393.977 154.878 393.977 156.313V157.124H388.839V156.626C388.839 153.877 390.115 152.052 392.661 151.155C394.414 150.523 397.526 150.212 401.999 150.212C406.884 150.212 410.31 150.597 412.275 151.375C414.945 152.513 416.281 154.715 416.281 157.973ZM392.974 166.726C392.974 168.821 393.642 170.168 394.978 170.765C395.94 171.215 398.027 171.438 401.246 171.438C404.506 171.438 406.78 171.246 408.072 170.858C410.161 170.231 411.211 168.958 411.211 167.045C411.211 165.038 410.329 163.754 408.575 163.183C407.445 162.825 405.004 162.644 401.246 162.644C398.027 162.644 395.918 162.85 394.915 163.271C393.623 163.782 392.974 164.934 392.974 166.726ZM419.667 174.048H424.618V140.38H419.667V174.048ZM94.4356 124.68C72.869 124.68 55.3848 140.493 55.3848 160.001C55.3848 168.361 58.604 176.031 63.9702 182.076L60.5036 187.632L64.8801 183.074L64.8856 183.077L67.7612 180.083C67.7612 180.083 67.7584 180.077 67.7584 180.072L94.3229 152.38L105.704 172.528L75.9865 179.074L120.186 178.997L94.595 132.947L66.2739 178.378C62.0568 173.221 59.5551 166.876 59.5551 160.001C59.5551 142.78 75.17 128.821 94.4356 128.821C113.701 128.821 129.316 142.78 129.316 160.001C129.316 177.221 113.701 191.178 94.4356 191.178C84.5279 191.178 75.5961 187.483 69.2484 181.556L66.2244 184.415C73.3363 191.131 83.343 195.318 94.4356 195.318C116.008 195.318 133.489 179.503 133.489 160.001C133.489 140.493 116.008 124.68 94.4356 124.68Z" fill="#B1121A"/>
</g>
</g>
<defs>
<clipPath id="clip0_730_18616">
<rect width="480" height="320" fill="white"/>
</clipPath>
</defs>
</svg>
