<svg width="480" height="320" viewBox="0 0 480 320" fill="none" xmlns="http://www.w3.org/2000/svg">
<path d="M132.134 223.101C128.607 222.505 126.408 219.497 126.408 215.27C126.408 211.681 128.047 208.831 130.679 207.846C133.792 206.681 137.381 207.385 139.269 209.529C140.622 211.066 140.972 212.247 140.972 215.27C140.972 217.479 140.908 218.009 140.526 218.968C139.255 222.162 136.016 223.757 132.134 223.101ZM135.982 220.078C137.102 219.224 137.416 218.129 137.416 215.072C137.416 212.69 137.378 212.426 136.92 211.608C136.192 210.31 135.349 209.816 133.863 209.816C132.18 209.816 131.419 210.259 130.698 211.657C130.238 212.55 130.109 213.099 130.028 214.512C129.859 217.488 130.455 219.264 131.966 220.291C132.556 220.691 132.845 220.749 133.967 220.687C135.019 220.63 135.417 220.509 135.982 220.078ZM103.892 222.658C103.589 221.826 100.279 207.907 100.355 207.784C100.407 207.701 101.151 207.634 102.01 207.634C103.324 207.634 103.589 207.689 103.68 207.981C103.741 208.172 104.241 210.514 104.794 213.186C105.345 215.858 105.874 218.12 105.968 218.214C106.171 218.417 106.104 218.633 107.368 213.683C107.926 211.502 108.513 209.248 108.673 208.675L108.964 207.634H110.84C112.621 207.634 112.72 207.656 112.82 208.08C113.345 210.292 115.102 217.988 115.102 218.072C115.102 218.13 115.208 218.143 115.338 218.1C115.471 218.056 116.056 215.775 116.677 212.878L117.78 207.733L119.317 207.675C120.531 207.63 120.854 207.675 120.854 207.895C120.854 208.423 117.24 222.411 117.039 222.658C116.908 222.821 116.266 222.906 115.171 222.906C113.813 222.906 113.48 222.846 113.379 222.584C113.311 222.406 112.711 219.974 112.046 217.179C111.381 214.384 110.748 212.124 110.639 212.159C110.53 212.192 109.848 214.529 109.122 217.351C108.397 220.173 107.745 222.577 107.673 222.694C107.479 223.008 104.008 222.975 103.892 222.658H103.892ZM148.96 222.782C148.883 222.705 148.821 219.265 148.821 215.138V207.633H152.752C157.075 207.633 158.234 207.83 159.33 208.753C160.222 209.503 160.587 210.342 160.575 211.619C160.561 213.201 159.944 214.194 158.419 215.091C158.078 215.292 158.101 215.337 158.708 215.651C159.529 216.075 160.038 217.182 160.222 218.939C160.32 219.792 160.459 220.64 160.638 221.48C160.793 222.168 160.92 222.771 160.92 222.819C160.92 222.979 157.572 222.907 157.472 222.746C157.418 222.658 157.234 221.52 157.064 220.217C156.636 216.942 156.562 216.856 154.154 216.856H152.292L152.192 219.831L152.093 222.806L150.596 222.863C149.773 222.895 149.037 222.858 148.96 222.781V222.782ZM156.438 213.602C157.456 212.645 157.223 210.933 156.006 210.429C155.681 210.295 154.768 210.219 153.865 210.253L152.292 210.311L152.233 211.981C152.201 212.899 152.224 213.778 152.284 213.934C152.371 214.159 152.763 214.204 154.161 214.149C155.704 214.089 155.994 214.019 156.438 213.602ZM170.363 222.596C170.205 222.184 170.204 208.359 170.362 207.947C170.458 207.698 170.803 207.634 172.045 207.634H173.608L173.66 213.931L173.713 220.229L176.985 220.328L180.258 220.427V222.807L175.371 222.86C171.045 222.907 170.471 222.876 170.363 222.596ZM187.792 222.676C187.737 222.529 187.714 219.107 187.743 215.07L187.795 207.733L191.143 207.678C194.944 207.616 196.293 207.85 197.831 208.837C199.399 209.843 200.281 211.446 200.583 213.841C200.805 215.605 200.552 217.793 199.971 219.144C199.438 220.382 197.778 221.941 196.479 222.423C195.21 222.893 187.957 223.105 187.793 222.676H187.792ZM195.197 219.728C196.446 219.027 197.067 217.643 197.091 215.509C197.132 211.689 195.683 210.079 192.357 210.25L191.167 210.311L191.113 215.068C191.084 217.684 191.107 219.948 191.166 220.101C191.346 220.569 194.164 220.309 195.197 219.729V219.728ZM210.526 222.262C210.142 221.07 207.133 208.448 207.133 208.031C207.133 207.641 207.226 207.621 208.77 207.675L210.406 207.733L211.412 212.707C212.534 218.243 212.629 218.596 212.878 218.146C212.969 217.982 213.591 215.706 214.259 213.088C214.928 210.47 215.524 208.172 215.582 207.981C215.674 207.682 215.95 207.634 217.552 207.634H219.415L219.607 208.378C219.712 208.787 220.268 211.154 220.843 213.637C221.463 216.316 221.973 218.125 222.097 218.083C222.212 218.045 222.799 215.701 223.4 212.873L224.494 207.733L226.028 207.675C227.367 207.625 227.562 207.66 227.562 207.957C227.562 208.29 224.37 220.993 223.968 222.262L223.763 222.906H222.005C221.038 222.906 220.205 222.837 220.152 222.752C220.1 222.668 219.51 220.287 218.842 217.462C218.172 214.636 217.573 212.239 217.509 212.135C217.3 211.798 217.104 212.419 215.857 217.354C215.181 220.026 214.546 222.368 214.444 222.559C214.289 222.85 213.973 222.906 212.497 222.906H210.734L210.526 222.262ZM235.43 222.774C235.357 222.701 235.298 219.265 235.298 215.138V207.633H236.863C238.107 207.633 238.453 207.698 238.549 207.947C238.615 208.119 238.67 211.415 238.67 215.269C238.67 219.125 238.615 222.419 238.549 222.592C238.455 222.838 238.119 222.906 236.996 222.906C236.207 222.906 235.502 222.846 235.43 222.774L235.43 222.774ZM248.287 222.676C248.231 222.529 248.208 219.107 248.237 215.07L248.289 207.733L252.157 207.742C255.733 207.749 256.113 207.785 257.196 208.213C259.411 209.09 260.716 210.939 261.116 213.771C261.689 217.821 260.147 221.16 257.159 222.338C256.154 222.734 255.588 222.794 252.207 222.864C249.136 222.927 248.37 222.89 248.287 222.676ZM254.954 220.099C256.051 219.727 256.744 219.13 257.153 218.207C257.95 216.406 257.8 213.174 256.855 211.772C256.11 210.667 255.272 210.318 253.348 210.315L251.661 210.311L251.608 215.068C251.578 217.684 251.598 219.937 251.651 220.076C251.775 220.4 254.021 220.415 254.954 220.099ZM269.151 222.777C269.077 222.702 269.016 219.265 269.016 215.138V207.633H274.052C279.611 207.633 279.33 207.565 279.33 208.922C279.33 210.247 279.428 210.212 275.747 210.212H272.406L272.288 210.856C272.224 211.211 272.243 211.992 272.331 212.592L272.492 213.683L275.622 213.737L278.753 213.792L278.694 215.026L278.636 216.261L275.504 216.316L272.374 216.37L272.43 218.299L272.487 220.228L275.958 220.327L279.429 220.426V222.806L274.358 222.859C271.568 222.888 269.226 222.851 269.151 222.777ZM55.6494 197.586C55.2589 197.429 55.3172 195.214 55.7151 195.061C56.2946 194.838 318.793 194.923 319.21 195.146C319.509 195.306 319.593 195.565 319.593 196.329C319.593 197.093 319.509 197.352 319.209 197.512C318.818 197.722 56.1676 197.795 55.6494 197.586ZM196.522 185.216C191.526 184.65 188.485 183.396 187.603 181.539C187.183 180.653 187.148 178.947 187.533 178.143L187.8 177.585H201.084L201.145 178.432C201.233 179.645 201.744 179.932 203.648 179.836C204.903 179.772 205.253 179.671 205.979 179.161C206.448 178.831 206.92 178.31 207.028 178.003C207.2 177.515 207.156 177.386 206.676 176.973C205.995 176.388 204.762 176.029 201.58 175.491C195.556 174.472 193.381 173.546 192.44 171.603C191.885 170.456 192.008 169.211 192.857 167.398C194.84 163.161 198.646 160.849 205.127 159.945C208.323 159.499 213.51 159.355 216.944 159.616C222.223 160.018 224.842 160.927 225.894 162.722C226.361 163.518 226.413 163.778 226.325 164.874C226.269 165.56 226.1 166.38 225.948 166.696L225.673 167.272H212.984L212.929 166.776C212.796 165.591 212.662 165.357 211.944 165.057C210.607 164.499 208.545 165.027 207.77 166.129C207.097 167.083 207.057 167.511 207.588 168.042C208.175 168.63 209.2 168.846 213.381 169.265C217.412 169.669 219.023 170.003 220.563 170.755C223.086 171.985 223.545 174.025 221.999 177.141C219.838 181.498 215.901 183.853 208.962 184.94C206.658 185.301 198.807 185.475 196.522 185.216ZM55.6897 184.81C55.6172 184.692 55.7324 184.402 55.945 184.165C56.1576 183.928 61.2662 177.664 67.2977 170.246C73.3285 162.828 78.4395 156.603 78.6552 156.412C79.0184 156.091 79.8099 156.065 89.1302 156.065C94.6745 156.065 99.258 156.139 99.3138 156.23C99.4824 156.503 96.6399 184.506 96.4168 184.775C96.2593 184.965 94.5052 185.023 88.8903 185.023C82.4405 185.023 81.556 184.986 81.4512 184.713C81.3862 184.543 81.4766 183.684 81.6533 182.806C81.8293 181.927 81.9248 181.129 81.8653 181.032C81.8058 180.936 79.9773 180.858 77.8017 180.858H73.846L72.4205 182.791C71.6358 183.855 70.8994 184.791 70.7841 184.871C70.4346 185.114 55.8409 185.055 55.6897 184.81ZM83.5369 174.05C83.8375 173.688 85.759 164.531 85.5743 164.343C85.3982 164.165 78.6075 173.599 78.6075 174.022C78.6075 174.425 83.2041 174.45 83.5369 174.05ZM102.875 184.579C102.938 184.332 104.822 180.174 107.063 175.339C109.303 170.504 111.135 166.42 111.135 166.265C111.135 166.028 110.39 165.982 106.567 165.982C102.855 165.982 101.98 165.931 101.893 165.707C101.781 165.412 104.29 160.229 104.664 159.985C104.99 159.773 148.863 159.804 149.2 160.016C149.425 160.159 148.637 162.016 145.188 169.462C142.828 174.559 140.944 178.807 141.003 178.901C141.061 178.995 143.565 179.073 146.568 179.073H152.028L152.655 178.364C153.001 177.975 156.59 173.713 160.633 168.893L167.981 160.131L177.243 160.079L186.506 160.027V160.725C186.506 161.649 184.347 184.456 184.229 184.774C184.158 184.966 182.609 185.022 177.4 185.022C173.693 185.022 170.618 184.953 170.566 184.867C170.513 184.782 170.6 184.095 170.758 183.339C170.917 182.584 171.001 181.851 170.948 181.709C170.872 181.512 170.016 181.453 167.278 181.453H163.706L162.396 183.238L161.086 185.023H143.362C132.876 185.023 125.592 184.948 125.526 184.841C125.464 184.742 127.326 180.527 129.663 175.475C132.001 170.423 133.87 166.22 133.818 166.136C133.766 166.051 131.587 165.982 128.977 165.982C124.669 165.982 124.21 166.014 124.017 166.329C123.9 166.52 121.907 170.782 119.588 175.8L115.371 184.924L109.066 184.976L102.761 185.028L102.875 184.579ZM172.516 175.514C172.666 175.27 174.206 167.978 174.208 167.502C174.208 167.303 174.126 167.169 174.026 167.205C173.738 167.31 168.06 175.145 168.06 175.438C168.06 175.64 168.56 175.701 170.229 175.701C171.423 175.701 172.452 175.616 172.516 175.514ZM231.727 184.812C231.727 184.604 251.238 161.26 251.648 160.977C251.765 160.896 255.854 160.829 260.735 160.828L269.61 160.825V161.473C269.61 162.579 267.457 184.619 267.328 184.826C267.253 184.95 264.756 185.023 260.648 185.023H254.088L254.199 184.279L254.45 182.593L254.591 181.651H247.432L246.184 183.337L244.935 185.023H238.331C233.802 185.023 231.728 184.957 231.728 184.812H231.727ZM256.016 175.913C256.154 175.69 257.71 168.283 257.71 167.851C257.71 167.683 257.624 167.598 257.518 167.664C257.097 167.924 251.555 175.727 251.665 175.906C251.817 176.151 255.864 176.158 256.016 175.913ZM269.532 184.856C269.431 184.694 279.973 161.369 280.369 160.875C280.613 160.571 291.929 160.511 292.115 160.811C292.223 160.988 282.006 183.644 281.397 184.577C281.106 185.023 281.099 185.023 275.37 185.023C272.215 185.023 269.588 184.948 269.531 184.856H269.532ZM286.47 184.816C286.47 184.55 296.902 161.671 297.301 161.061L297.604 160.6L308.549 160.679C320.404 160.766 320.776 160.797 322.628 161.882C324.723 163.11 324.887 165.934 323.07 169.54C321.675 172.31 319.4 173.75 315.675 174.219C315.034 174.299 314.634 174.446 314.634 174.602C314.634 174.741 315.706 177.061 317.015 179.759C318.324 182.456 319.345 184.745 319.284 184.843C319.221 184.945 316.332 185.023 312.646 185.023C306.628 185.023 306.107 184.996 305.949 184.676C305.856 184.485 305.162 182.343 304.409 179.916C303.655 177.488 302.942 175.502 302.824 175.502C302.706 175.502 301.734 177.444 300.665 179.816C299.596 182.189 298.596 184.331 298.442 184.577L298.163 185.023H292.316C288.398 185.023 286.47 184.955 286.47 184.816ZM309.065 170.812C310.228 170.232 311.263 168.889 311.263 167.957C311.263 167 310.64 166.684 308.604 166.609L306.778 166.541L305.745 168.791C305.176 170.028 304.712 171.107 304.714 171.188C304.716 171.27 305.458 171.337 306.364 171.337C307.748 171.337 308.18 171.253 309.065 170.812ZM362.749 184.411C362.006 183.529 361.713 182.902 361.212 181.124C360.561 178.821 360.608 174.956 361.318 172.297C361.867 170.241 362.646 168.302 363.014 168.074C363.516 167.765 362.673 165.445 361.709 164.48C361.453 164.225 361.245 163.886 361.245 163.726C361.245 163.567 360.911 163.273 360.503 163.073C359.935 162.794 359.685 162.502 359.438 161.825C359.197 161.162 358.973 160.896 358.544 160.756C357.638 160.462 356.96 159.9 356.356 158.946C355.786 158.045 355.618 157.932 353.26 156.881C352.468 156.527 351.482 155.869 350.853 155.274C349.904 154.376 349.648 154.243 348.525 154.062C346.833 153.789 344.769 152.667 343.507 151.333C340.764 148.434 340.695 148.377 339.797 148.237C338.421 148.023 338.309 147.963 337.769 147.146C337.443 146.653 336.524 145.889 335.233 145.038C324.256 137.8 315.845 126.088 311.104 111.437C309.529 106.577 308.466 101.477 308.416 98.545L308.387 96.8591L309.257 96.7971C309.735 96.763 310.202 96.8101 310.294 96.9025C310.386 96.9948 310.556 98.183 310.671 99.5429C311.016 103.613 311.767 107.206 313.179 111.536C314.148 114.51 315.021 116.595 315.298 116.592C315.424 116.591 315.727 116.281 315.971 115.904C317.049 114.24 320.634 111.864 324.732 110.098C326.106 109.507 327.313 108.942 327.416 108.844C327.531 108.733 327.472 107.745 327.259 106.234C327.071 104.896 326.813 102.3 326.687 100.465C326.49 97.5979 326.498 97.1039 326.744 96.9477C327.085 96.732 329.711 96.7035 330.032 96.9124C330.163 96.9979 330.348 98.2834 330.48 100.033C330.868 105.159 331.143 107.303 331.429 107.412C331.573 107.468 332.963 107.154 334.518 106.715C339.076 105.43 342.743 104.617 348.154 103.692C349.518 103.46 350.678 103.224 350.732 103.17C350.788 103.116 350.832 101.674 350.832 99.9656V96.8597H355.195L355.352 99.0415C355.439 100.241 355.556 101.525 355.614 101.894L355.719 102.565L357.341 102.436C364.383 101.879 369.663 101.905 375.403 102.525C376.768 102.672 377.427 102.674 377.572 102.529C377.686 102.415 377.851 101.183 377.939 99.7908C378.026 98.3993 378.143 97.1448 378.197 97.0035C378.271 96.8107 378.824 96.7612 380.431 96.8033L382.567 96.8597V103.38L384.055 103.644C388.828 104.488 394.243 105.638 397.474 106.493C401.382 107.527 401.621 107.571 401.791 107.297C401.934 107.066 402.448 102.158 402.612 99.4382C402.686 98.2382 402.834 97.1448 402.944 97.0085C403.152 96.7506 405.563 96.6552 406.154 96.8808C406.404 96.9775 406.466 97.324 406.463 98.6163C406.458 100.327 406.044 104.807 405.665 107.244C405.54 108.047 405.513 108.769 405.606 108.85C405.697 108.931 406.532 109.295 407.459 109.66C412.767 111.746 415.962 113.748 417.223 115.778C417.602 116.39 417.662 116.419 417.89 116.107C418.028 115.918 418.51 114.724 418.961 113.452C420.728 108.475 421.951 103.581 422.46 99.4475C422.621 98.1334 422.826 96.9849 422.915 96.8957C423.003 96.8064 423.422 96.7618 423.845 96.7965L424.615 96.8597L424.588 98.744C424.527 102.98 422.859 109.912 420.412 116.099C415.99 127.277 409.197 136.586 400.768 143.017C399.587 143.919 398.755 144.725 398.424 145.291C397.867 146.241 397.562 146.414 396.067 146.634C395.159 146.768 394.934 146.929 392.98 148.851C390.631 151.163 388.365 152.953 387.051 153.539C386.384 153.835 385.951 153.896 385.209 153.798L384.239 153.669L382.411 155.537C381.086 156.891 380.365 157.473 379.79 157.652C378.828 157.953 378.303 158.383 378.303 158.87C378.303 159.571 377.516 161.295 376.913 161.917C376.352 162.496 376.323 162.59 376.547 163.123C376.932 164.035 376.826 167.923 376.346 170.567C376.117 171.834 375.601 173.976 375.201 175.327C374.453 177.85 374.415 178.116 374.644 179.222C374.736 179.667 374.678 180.018 374.458 180.355C373.878 181.239 374.039 181.728 375.13 182.407C376.307 183.139 376.687 183.797 376.355 184.527L376.129 185.023H373.174C369.856 185.023 369.634 184.939 369.852 183.773C369.92 183.411 370.375 182.45 370.863 181.639C371.891 179.93 372.005 179.271 371.273 179.271C370.652 179.271 370.623 179.214 370.354 177.465C370.079 175.673 369.905 175.279 369.626 175.818C369.08 176.871 367.958 180.603 367.755 182.043C367.611 183.06 367.366 183.911 367.104 184.3C366.695 184.909 366.645 184.925 364.98 184.981C363.283 185.037 363.274 185.035 362.749 184.412L362.749 184.411ZM364.019 179.154C364.022 178.524 364.208 177.866 365.097 175.334C365.837 173.227 365.808 171.463 365.006 169.767C364.613 168.937 364.337 168.562 364.21 168.689C363.694 169.206 363.351 171.891 363.34 175.502C363.327 179.217 363.48 180.615 363.834 180.054C363.934 179.896 364.017 179.491 364.019 179.154ZM372.424 175.155C372.492 174.637 372.606 172.605 372.678 170.64C372.794 167.421 372.771 166.998 372.447 166.376C372.249 165.996 372.036 165.156 371.972 164.51C371.848 163.258 371.361 162.68 371.361 163.786C371.361 164.123 371.218 165.269 371.044 166.331C370.679 168.566 370.763 170.09 371.357 171.932C371.585 172.641 371.826 173.869 371.892 174.659C371.959 175.45 372.078 176.097 372.156 176.097C372.236 176.097 372.356 175.673 372.424 175.155H372.424ZM367.973 165.505C368.1 165.352 368.15 165.011 368.084 164.749C367.988 164.365 368.068 164.224 368.495 164.03C369.028 163.787 369.071 163.472 368.692 162.573C368.579 162.305 368.713 162.194 369.359 162.02C369.966 161.856 370.197 161.679 370.291 161.306C370.554 160.259 368.907 159.519 368.339 160.428C368.023 160.934 367.748 160.93 367.279 160.412C367.075 160.185 366.607 159.874 366.243 159.722C365.404 159.372 365.591 159.04 366.627 159.04C367.71 159.04 367.611 158.482 366.466 158.145C365.408 157.833 364.394 157.201 364.05 156.639C363.901 156.397 363.732 155.678 363.675 155.041C363.617 154.404 363.47 153.874 363.349 153.863C362.979 153.836 362.608 153.812 362.237 153.791C361.541 153.743 360.846 153.676 360.154 153.59C359.109 153.459 358.807 153.506 357.695 153.974C356.231 154.59 355.875 154.549 354.504 153.606C353.787 153.113 353.093 152.86 351.738 152.596C350.577 152.371 349.382 151.97 348.401 151.478C346.216 150.379 345.491 150.469 346.857 151.667C347.331 152.084 347.836 152.308 348.493 152.394C349.7 152.552 350.158 152.741 351.626 153.686C352.28 154.107 353.396 154.699 354.105 155.002C354.814 155.304 355.822 155.811 356.346 156.129C357.247 156.675 357.824 156.73 357.314 156.22C357.185 156.091 357.08 155.825 357.08 155.629C357.08 155.093 358.426 155.15 359.282 155.721C359.847 156.1 360.057 156.47 360.584 158.023C361.551 160.866 362.18 161.352 365.276 161.643C366.376 161.747 367.314 161.869 367.359 161.915C367.405 161.961 367.392 162.129 367.331 162.288C367.26 162.474 366.806 162.623 366.067 162.703C363.961 162.931 363.674 163.528 365.446 163.997C366.96 164.399 366.987 164.678 365.559 165.184C364.597 165.525 364.95 165.784 366.377 165.784C367.307 165.784 367.815 165.695 367.973 165.505H367.973ZM376.731 155.531C377.612 154.735 378.802 153.126 378.633 152.957C378.575 152.9 377.786 152.973 376.88 153.12L375.231 153.387L375.216 154.825C375.202 156.088 375.244 156.263 375.56 156.263C375.759 156.263 376.286 155.934 376.732 155.531L376.731 155.531ZM379.691 152.891C379.691 152.782 379.562 152.693 379.405 152.693C379.248 152.693 379.064 152.782 378.996 152.891C378.929 153 379.058 153.09 379.282 153.09C379.507 153.09 379.691 153 379.691 152.891ZM362.931 151.503C363.258 151.286 363.733 151.108 363.987 151.108C364.239 151.107 364.82 150.889 365.276 150.622C366.923 149.66 369.159 149.779 370.58 150.903C371.1 151.315 371.43 151.435 371.83 151.358C372.14 151.299 372.709 151.405 373.151 151.605C373.924 151.953 373.932 151.952 374.578 151.46C376.296 150.152 377.807 149.8 378.911 150.451C379.417 150.751 379.596 150.759 380.528 150.524C383.151 149.862 388.211 147.977 389.329 147.245C389.598 147.069 389.806 146.739 389.805 146.491C389.803 145.959 389.232 145.049 388.639 144.634C388.23 144.347 388.14 144.391 386.875 145.503C384.831 147.299 383.499 148.233 381.878 149.009C380.44 149.697 379.492 149.907 379.492 149.538C379.492 149.438 380.229 148.752 381.128 148.013C383.013 146.466 386.037 143.58 386.037 143.329C386.037 143.069 384.543 142.492 382.665 142.027C380.373 141.458 376.334 140.892 376.135 141.112C376.048 141.209 375.728 141.958 375.427 142.776C374.303 145.819 372.599 148.822 371.636 149.453C370.663 150.09 370.678 149.542 371.718 146.32C372.833 142.87 373.277 141.057 373.063 140.841C372.839 140.616 366.893 140.44 363.377 140.555C360.447 140.65 360.253 140.68 360.253 141.043C360.253 141.663 360.797 143.664 361.768 146.614C362.397 148.527 362.609 149.425 362.464 149.569C361.802 150.232 359.759 147.327 358.353 143.725C357.83 142.385 357.307 141.181 357.191 141.048C356.784 140.584 349.836 141.769 347.708 142.666C347.299 142.839 346.964 143.104 346.964 143.256C346.964 143.573 350.1 146.58 351.46 147.567C352.665 148.441 353.51 149.239 353.51 149.504C353.51 150.483 349.361 148.341 346.746 146.013C344.61 144.11 344.851 144.23 344.266 144.776C343.58 145.417 343.149 146.282 343.292 146.733C343.492 147.364 347.359 148.995 351.536 150.208C355.145 151.258 356.027 151.373 357.604 151.008C359.203 150.637 360.397 150.767 361.3 151.411C362.1 151.981 362.201 151.986 362.931 151.503ZM393.258 145.819C397.178 143.564 400.373 141.15 403.542 138.045C405.208 136.413 405.674 135.839 405.674 135.422C405.674 134.583 404.21 132.589 402.838 131.557C401.465 130.525 399.522 129.484 398.985 129.493C398.744 129.496 398.289 130.137 397.541 131.526C396.145 134.121 393.238 138.489 391.587 140.47C391 141.174 390.416 141.88 389.835 142.588L389.367 143.161L389.971 143.982C390.302 144.433 390.686 145.239 390.823 145.773C390.978 146.378 391.181 146.743 391.362 146.743C391.521 146.743 392.374 146.327 393.258 145.819H393.258ZM342.26 145.539C342.465 145.165 342.898 144.523 343.223 144.113C343.573 143.669 343.752 143.268 343.663 143.122C343.581 142.985 342.972 142.25 342.31 141.487C339.998 138.82 337.48 135.09 334.98 130.627C334.69 130.109 334.319 129.685 334.157 129.685C333.692 129.685 332.103 130.551 330.785 131.522C328.858 132.942 327.317 135.072 327.7 135.787C327.942 136.238 331.149 139.179 333.214 140.843C335.886 142.995 341.241 146.427 341.698 146.281C341.803 146.248 342.055 145.914 342.26 145.539ZM346.94 141.598C348.247 140.931 351.145 140.065 353.609 139.606C354.918 139.363 356.111 139.127 356.259 139.083C356.592 138.984 356.546 138.699 355.631 135.239C355.242 133.766 354.646 131.178 354.307 129.487C354.072 128.313 353.835 127.14 353.596 125.966C353.514 125.577 353.378 125.52 352.532 125.52C350.31 125.52 343.997 126.509 340.332 127.43C337.982 128.021 337.047 128.388 337.047 128.72C337.047 129.084 339.114 133.077 340.257 134.92C342.344 138.287 345.255 141.973 345.831 141.979C346.027 141.981 346.526 141.81 346.94 141.598ZM389.142 140.049C391.697 136.846 393.388 134.21 395.186 130.627C396.042 128.923 396.144 128.6 395.906 128.361C395.564 128.019 391.709 127.056 388.517 126.516C385.494 126.005 380.131 125.41 379.972 125.569C379.906 125.635 379.557 127.147 379.198 128.927C378.751 131.092 378.254 133.246 377.709 135.388C377.248 137.161 376.918 138.733 376.976 138.881C377.038 139.042 377.546 139.203 378.241 139.282C380.182 139.502 383.457 140.315 385.344 141.045C386.325 141.426 387.27 141.748 387.443 141.761C387.617 141.773 388.376 141.009 389.142 140.049ZM368.584 138.518C370.711 138.583 372.63 138.676 372.848 138.725C373.549 138.88 373.789 138.491 374.159 136.598C374.701 133.828 375.523 127.98 375.577 126.512L375.625 125.223L373.641 125.097C371.07 124.934 360.733 124.934 359.063 125.097C357.808 125.22 357.772 125.238 357.716 125.818C357.656 126.449 358.597 133.287 359.173 136.393C359.361 137.41 359.622 138.348 359.753 138.479C359.93 138.655 360.599 138.676 362.353 138.558C363.652 138.471 366.457 138.453 368.584 138.518ZM408.396 132.71C409.639 131.2 411.494 128.545 412.726 126.512C414.282 123.945 416.583 119.469 416.583 119.01C416.583 118.405 415.312 116.913 413.862 115.818C411.794 114.254 405.392 111.256 404.986 111.662C404.923 111.725 404.562 113.005 404.184 114.507C403.328 117.905 402.02 121.842 400.719 124.934C400.172 126.236 399.724 127.38 399.724 127.475C399.724 127.571 400.638 128.104 401.757 128.66C404.281 129.914 405.981 131.255 406.765 132.61C407.092 133.176 407.418 133.642 407.49 133.645C407.562 133.649 407.969 133.228 408.396 132.709V132.71ZM326.712 132.452C327.567 131.192 329.392 129.737 331.573 128.576C332.512 128.078 333.279 127.559 333.279 127.424C333.279 127.289 332.916 126.336 332.473 125.308C331.331 122.655 329.642 117.562 328.837 114.344C328.459 112.834 328.097 111.544 328.031 111.48C327.79 111.238 323.716 112.948 321.45 114.242C319.581 115.309 317.442 117.255 316.801 118.472L316.321 119.386L317.312 121.308C319.706 125.948 324.972 133.468 325.814 133.449C325.938 133.446 326.342 132.997 326.712 132.451V132.452ZM338.692 125.821C340.024 125.44 342.006 124.946 343.097 124.722C345.515 124.227 351.283 123.338 352.084 123.338C353.072 123.338 353.104 123.109 352.609 119.669C352.357 117.924 351.958 114.487 351.722 112.033C351.166 106.256 351.267 106.678 350.435 106.678C347.523 106.678 332.508 109.555 331.813 110.247C331.191 110.865 335.366 126.512 336.154 126.512C336.219 126.512 337.361 126.201 338.692 125.821ZM397.711 124.726C398.672 122.287 400.045 117.373 400.776 113.753C401.386 110.732 401.396 110.603 401.046 110.346C399.819 109.447 382.995 106.357 382.33 106.908C382.187 107.026 382.07 107.446 382.069 107.842C382.063 109.335 380.822 120.016 380.368 122.458C380.22 123.264 380.499 123.455 382.072 123.619C385.262 123.953 391.816 125.231 394.766 126.097C396.867 126.713 396.941 126.678 397.711 124.726ZM370.86 122.705C373.585 122.829 375.878 122.866 375.957 122.787C376.116 122.627 376.542 118.485 377.003 112.627C377.171 110.5 377.362 108.248 377.428 107.622C377.542 106.538 377.524 106.474 377.046 106.293C376.03 105.906 365.972 105.639 360.959 105.865C358.347 105.983 356.134 106.156 356.042 106.248C355.755 106.534 357.134 122.531 357.463 122.735C357.558 122.794 359.496 122.76 361.771 122.66C364.562 122.538 367.518 122.552 370.86 122.705Z" fill="#FBB920"/>
<path d="M132.134 223.1C128.607 222.505 126.408 219.497 126.408 215.27C126.408 211.681 128.047 208.831 130.679 207.846C133.793 206.681 137.381 207.384 139.269 209.529C140.622 211.066 140.972 212.246 140.972 215.27C140.972 217.479 140.908 218.009 140.526 218.968C139.255 222.161 136.016 223.756 132.134 223.1ZM135.982 220.078C137.102 219.223 137.416 218.129 137.416 215.071C137.416 212.689 137.378 212.425 136.92 211.608C136.192 210.31 135.349 209.815 133.863 209.815C132.18 209.815 131.419 210.258 130.698 211.657C130.238 212.549 130.109 213.098 130.028 214.512C129.859 217.488 130.455 219.264 131.966 220.29C132.556 220.691 132.845 220.748 133.967 220.687C135.019 220.629 135.417 220.509 135.982 220.078ZM103.892 222.658C103.589 221.826 100.279 207.907 100.355 207.784C100.407 207.701 101.151 207.633 102.01 207.633C103.324 207.633 103.589 207.689 103.68 207.981C103.741 208.171 104.241 210.514 104.794 213.186C105.345 215.857 105.874 218.12 105.968 218.214C106.171 218.417 106.104 218.633 107.368 213.683C107.926 211.501 108.513 209.247 108.673 208.675L108.964 207.633H110.84C112.621 207.633 112.72 207.656 112.82 208.08C113.345 210.291 115.102 217.988 115.102 218.071C115.102 218.13 115.208 218.143 115.338 218.1C115.471 218.056 116.056 215.774 116.677 212.877L117.78 207.733L119.317 207.674C120.531 207.629 120.854 207.675 120.854 207.895C120.854 208.423 117.24 222.411 117.039 222.658C116.908 222.82 116.266 222.906 115.171 222.906C113.813 222.906 113.48 222.846 113.379 222.583C113.311 222.406 112.711 219.973 112.046 217.179C111.381 214.383 110.748 212.124 110.639 212.158C110.53 212.192 109.848 214.528 109.122 217.35C108.397 220.172 107.745 222.577 107.673 222.693C107.479 223.007 104.008 222.975 103.892 222.658H103.892ZM148.96 222.781C148.883 222.704 148.821 219.264 148.821 215.138V207.633H152.752C157.075 207.633 158.234 207.83 159.33 208.752C160.222 209.502 160.587 210.342 160.575 211.618C160.561 213.201 159.944 214.194 158.419 215.09C158.078 215.291 158.101 215.337 158.708 215.65C159.529 216.075 160.038 217.181 160.222 218.938C160.32 219.792 160.459 220.64 160.638 221.48C160.793 222.168 160.92 222.771 160.92 222.818C160.92 222.978 157.572 222.907 157.472 222.745C157.418 222.657 157.234 221.519 157.064 220.216C156.636 216.941 156.562 216.856 154.154 216.856H152.292L152.192 219.831L152.093 222.806L150.596 222.863C149.773 222.895 149.037 222.857 148.96 222.781V222.781ZM156.438 213.602C157.456 212.645 157.223 210.933 156.006 210.429C155.681 210.294 154.768 210.219 153.865 210.252L152.292 210.311L152.233 211.98C152.201 212.898 152.224 213.778 152.284 213.934C152.371 214.159 152.763 214.204 154.161 214.149C155.704 214.088 155.994 214.019 156.438 213.602ZM170.363 222.595C170.205 222.184 170.204 208.359 170.362 207.947C170.458 207.698 170.803 207.633 172.045 207.633H173.608L173.66 213.931L173.713 220.228L176.985 220.327L180.258 220.427V222.807L175.371 222.859C171.045 222.906 170.471 222.876 170.363 222.595ZM187.792 222.675C187.737 222.528 187.714 219.106 187.743 215.07L187.795 207.733L191.143 207.678C194.945 207.616 196.293 207.85 197.831 208.836C199.399 209.842 200.281 211.446 200.583 213.841C200.805 215.604 200.552 217.792 199.971 219.143C199.438 220.381 197.778 221.941 196.479 222.422C195.21 222.893 187.957 223.104 187.793 222.675H187.792ZM195.197 219.728C196.446 219.026 197.067 217.642 197.091 215.508C197.132 211.688 195.683 210.079 192.357 210.25L191.167 210.311L191.113 215.068C191.084 217.683 191.107 219.948 191.166 220.1C191.346 220.569 194.164 220.309 195.197 219.729V219.728ZM210.526 222.261C210.142 221.07 207.133 208.448 207.133 208.03C207.133 207.641 207.226 207.621 208.77 207.675L210.406 207.733L211.412 212.707C212.534 218.243 212.629 218.596 212.878 218.146C212.969 217.982 213.591 215.706 214.259 213.088C214.928 210.47 215.524 208.171 215.582 207.981C215.674 207.682 215.95 207.633 217.552 207.633H219.415L219.607 208.377C219.712 208.786 220.268 211.153 220.843 213.637C221.463 216.316 221.973 218.124 222.097 218.083C222.212 218.045 222.799 215.7 223.4 212.873L224.494 207.733L226.028 207.674C227.367 207.624 227.562 207.66 227.562 207.957C227.562 208.29 224.37 220.992 223.968 222.261L223.763 222.906H222.005C221.038 222.906 220.205 222.836 220.152 222.752C220.1 222.668 219.51 220.287 218.842 217.461C218.172 214.636 217.573 212.239 217.509 212.135C217.3 211.797 217.104 212.419 215.857 217.353C215.181 220.025 214.546 222.368 214.444 222.559C214.289 222.849 213.973 222.906 212.497 222.906H210.734L210.526 222.261ZM235.43 222.774C235.357 222.701 235.298 219.264 235.298 215.138V207.633H236.863C238.107 207.633 238.453 207.697 238.549 207.946C238.615 208.119 238.67 211.414 238.67 215.269C238.67 219.124 238.615 222.419 238.549 222.592C238.455 222.838 238.119 222.905 236.996 222.905C236.207 222.905 235.502 222.846 235.43 222.773L235.43 222.774ZM248.287 222.675C248.231 222.528 248.208 219.106 248.237 215.07L248.289 207.733L252.157 207.741C255.733 207.749 256.113 207.785 257.196 208.213C259.411 209.09 260.716 210.939 261.116 213.77C261.689 217.821 260.147 221.159 257.159 222.337C256.154 222.733 255.588 222.794 252.207 222.864C249.136 222.927 248.37 222.89 248.287 222.675ZM254.954 220.099C256.051 219.727 256.744 219.13 257.153 218.207C257.95 216.405 257.8 213.174 256.855 211.772C256.11 210.667 255.272 210.318 253.348 210.314L251.661 210.311L251.608 215.068C251.578 217.683 251.598 219.937 251.651 220.076C251.775 220.399 254.021 220.415 254.954 220.099ZM269.151 222.776C269.077 222.702 269.016 219.264 269.016 215.138V207.633H274.052C279.611 207.633 279.33 207.565 279.33 208.922C279.33 210.247 279.428 210.211 275.747 210.211H272.406L272.288 210.856C272.224 211.21 272.243 211.991 272.331 212.591L272.492 213.682L275.622 213.737L278.753 213.791L278.695 215.026L278.636 216.261L275.504 216.315L272.374 216.37L272.43 218.299L272.487 220.228L275.958 220.327L279.429 220.426V222.806L274.358 222.859C271.568 222.888 269.226 222.851 269.151 222.776ZM55.6494 197.586C55.2589 197.428 55.3172 195.213 55.7151 195.06C56.2946 194.838 318.793 194.923 319.21 195.145C319.509 195.306 319.593 195.565 319.593 196.329C319.593 197.092 319.509 197.351 319.209 197.512C318.819 197.721 56.1676 197.794 55.6494 197.586ZM196.522 185.216C191.526 184.649 188.485 183.396 187.603 181.539C187.183 180.653 187.148 178.946 187.533 178.142L187.8 177.585H201.084L201.145 178.431C201.233 179.644 201.744 179.931 203.648 179.835C204.903 179.772 205.253 179.67 205.979 179.161C206.448 178.83 206.92 178.31 207.028 178.003C207.2 177.515 207.156 177.386 206.676 176.973C205.995 176.388 204.762 176.029 201.58 175.49C195.556 174.471 193.381 173.546 192.44 171.603C191.885 170.456 192.008 169.211 192.857 167.398C194.84 163.161 198.646 160.848 205.127 159.945C208.323 159.498 213.51 159.354 216.944 159.616C222.223 160.018 224.842 160.926 225.894 162.721C226.361 163.518 226.413 163.777 226.325 164.873C226.269 165.559 226.1 166.379 225.949 166.696L225.673 167.271H212.984L212.929 166.776C212.796 165.591 212.662 165.356 211.944 165.056C210.607 164.498 208.545 165.027 207.77 166.128C207.097 167.082 207.057 167.511 207.588 168.041C208.175 168.629 209.2 168.846 213.381 169.265C217.412 169.669 219.023 170.002 220.563 170.754C223.086 171.985 223.545 174.024 221.999 177.14C219.838 181.498 215.901 183.853 208.962 184.94C206.658 185.3 198.807 185.474 196.522 185.216ZM55.6897 184.809C55.6172 184.692 55.7324 184.402 55.945 184.165C56.1576 183.927 61.2662 177.664 67.2977 170.246C73.3285 162.828 78.4395 156.602 78.6552 156.412C79.0184 156.09 79.81 156.064 89.1302 156.064C94.6745 156.064 99.258 156.139 99.3138 156.23C99.4824 156.503 96.6399 184.505 96.4168 184.774C96.2593 184.965 94.5052 185.022 88.8903 185.022C82.4405 185.022 81.556 184.985 81.4512 184.713C81.3862 184.543 81.4766 183.684 81.6533 182.805C81.8293 181.926 81.9248 181.128 81.8653 181.032C81.8058 180.936 79.9773 180.857 77.8017 180.857H73.846L72.4205 182.791C71.6358 183.855 70.8994 184.791 70.7841 184.871C70.4346 185.114 55.8409 185.055 55.6897 184.809ZM83.5369 174.049C83.8375 173.687 85.759 164.531 85.5743 164.343C85.3982 164.164 78.6075 173.599 78.6075 174.022C78.6075 174.425 83.2041 174.45 83.5369 174.049ZM102.875 184.579C102.938 184.332 104.822 180.174 107.063 175.338C109.303 170.503 111.135 166.42 111.135 166.264C111.135 166.027 110.39 165.982 106.567 165.982C102.855 165.982 101.98 165.93 101.893 165.706C101.781 165.411 104.29 160.228 104.664 159.985C104.99 159.772 148.863 159.804 149.2 160.016C149.425 160.158 148.637 162.015 145.188 169.462C142.828 174.559 140.944 178.806 141.003 178.9C141.061 178.995 143.565 179.072 146.568 179.072H152.028L152.655 178.364C153.001 177.974 156.59 173.713 160.633 168.893L167.981 160.13L177.243 160.079L186.506 160.027V160.725C186.506 161.649 184.347 184.455 184.229 184.774C184.158 184.966 182.609 185.022 177.4 185.022C173.693 185.022 170.618 184.952 170.566 184.867C170.513 184.782 170.6 184.095 170.758 183.339C170.917 182.583 171.002 181.85 170.948 181.709C170.872 181.512 170.016 181.452 167.278 181.452H163.706L162.396 183.237L161.086 185.022H143.362C132.876 185.022 125.592 184.948 125.526 184.841C125.464 184.742 127.326 180.527 129.663 175.474C132.001 170.423 133.87 166.22 133.818 166.135C133.766 166.05 131.587 165.982 128.977 165.982C124.669 165.982 124.21 166.014 124.017 166.329C123.9 166.52 121.907 170.781 119.588 175.8L115.371 184.923L109.066 184.975L102.761 185.028L102.875 184.579ZM172.516 175.513C172.666 175.27 174.206 167.977 174.208 167.502C174.208 167.302 174.126 167.169 174.026 167.204C173.738 167.309 168.06 175.144 168.06 175.438C168.06 175.64 168.56 175.7 170.229 175.7C171.423 175.7 172.452 175.616 172.516 175.513ZM231.727 184.812C231.727 184.604 251.238 161.26 251.648 160.977C251.765 160.896 255.854 160.829 260.735 160.828L269.61 160.825V161.472C269.61 162.578 267.457 184.618 267.328 184.826C267.253 184.949 264.756 185.022 260.648 185.022H254.088L254.199 184.279L254.45 182.593L254.591 181.651H247.432L246.184 183.337L244.935 185.022H238.331C233.802 185.022 231.728 184.956 231.728 184.812H231.727ZM256.016 175.913C256.154 175.69 257.711 168.283 257.711 167.85C257.711 167.682 257.624 167.598 257.518 167.663C257.097 167.923 251.555 175.727 251.665 175.905C251.817 176.151 255.864 176.158 256.016 175.913ZM269.532 184.856C269.431 184.694 279.973 161.368 280.369 160.874C280.613 160.571 291.929 160.51 292.115 160.811C292.223 160.988 282.006 183.644 281.397 184.576C281.106 185.022 281.099 185.022 275.37 185.022C272.215 185.022 269.588 184.948 269.531 184.856H269.532ZM286.47 184.816C286.47 184.549 296.902 161.671 297.301 161.061L297.604 160.6L308.549 160.679C320.404 160.765 320.777 160.797 322.628 161.881C324.723 163.11 324.887 165.933 323.07 169.54C321.675 172.31 319.4 173.749 315.675 174.218C315.034 174.299 314.634 174.446 314.634 174.601C314.634 174.74 315.706 177.061 317.015 179.758C318.324 182.456 319.345 184.744 319.284 184.843C319.221 184.944 316.332 185.022 312.646 185.022C306.628 185.022 306.107 184.995 305.949 184.675C305.856 184.484 305.162 182.342 304.409 179.915C303.655 177.488 302.942 175.502 302.824 175.502C302.706 175.502 301.734 177.443 300.665 179.816C299.596 182.189 298.596 184.331 298.442 184.576L298.163 185.022H292.316C288.398 185.022 286.47 184.954 286.47 184.816ZM309.065 170.812C310.228 170.232 311.263 168.889 311.263 167.957C311.263 166.999 310.64 166.684 308.604 166.608L306.778 166.541L305.745 168.791C305.176 170.027 304.712 171.106 304.714 171.188C304.716 171.27 305.458 171.337 306.364 171.337C307.748 171.337 308.18 171.253 309.065 170.812Z" fill="#022663"/>
</svg>
