<svg width="480" height="320" viewBox="0 0 480 320" fill="none" xmlns="http://www.w3.org/2000/svg">
<path d="M175.62 186.597H55.5073L108.202 120.868H228.316L175.62 186.597Z" fill="white"/>
<path d="M269.921 121.996H273.497L281.047 139.742H276.996L275.385 135.79H267.934L266.322 139.742H262.37L269.921 121.996ZM273.999 132.367L271.658 126.653L269.316 132.367H273.999ZM279.533 122.122H294.134V125.695H288.772V139.742H284.895V125.695H279.533V122.122ZM300.938 136.219H309.724V139.742H297.063V122.122H300.938V136.219ZM318.481 121.996H322.055L329.607 139.742H325.554L323.944 135.79H316.492L314.882 139.742H310.929L318.481 121.996ZM322.559 132.367L320.218 126.653L317.877 132.367H322.559ZM344.258 132.971V122.122H348.085V139.742H344.788L336.255 128.54V139.742H332.429V122.122H336.003L344.258 132.971ZM351.015 122.122H365.615V125.695H360.253V139.742H356.377V125.695H351.015V122.122ZM368.629 122.123H372.506V139.743H368.629V122.123ZM376.273 130.983V130.932C376.273 125.923 380.049 121.82 385.461 121.82C388.782 121.82 390.772 122.928 392.407 124.538L389.941 127.384C388.581 126.149 387.197 125.395 385.435 125.395C382.464 125.395 380.324 127.862 380.324 130.882V130.931C380.324 133.952 382.414 136.47 385.435 136.47C387.448 136.47 388.682 135.665 390.066 134.406L392.533 136.898C390.721 138.836 388.707 140.044 385.309 140.044C380.124 140.044 376.273 136.042 376.273 130.983ZM262.672 163.304L264.963 160.56C266.55 161.869 268.21 162.7 270.224 162.7C271.81 162.7 272.767 162.071 272.767 161.037V160.986C272.767 160.005 272.163 159.502 269.218 158.746C265.668 157.841 263.378 156.859 263.378 153.36V153.31C263.378 150.113 265.944 147.999 269.545 147.999C272.111 147.999 274.302 148.804 276.089 150.238L274.075 153.159C272.515 152.077 270.98 151.422 269.493 151.422C268.008 151.422 267.23 152.102 267.23 152.958V153.007C267.23 154.166 267.983 154.543 271.03 155.325C274.604 156.256 276.618 157.54 276.618 160.609V160.661C276.618 164.16 273.95 166.123 270.149 166.123C267.48 166.123 264.787 165.191 262.672 163.304ZM279.211 157.111V157.061C279.211 152.051 283.162 147.949 288.598 147.949C294.036 147.949 297.937 152.001 297.937 157.011V157.061C297.937 162.069 293.985 166.173 288.548 166.173C283.11 166.173 279.211 162.12 279.211 157.111ZM293.884 157.111V157.061C293.884 154.04 291.67 151.522 288.548 151.522C285.426 151.522 283.26 153.99 283.26 157.011V157.061C283.26 160.082 285.476 162.598 288.597 162.598C291.719 162.598 293.884 160.132 293.884 157.111ZM301.383 158.319V148.251H305.26V158.219C305.26 161.089 306.695 162.573 309.06 162.573C311.427 162.573 312.862 161.139 312.862 158.344V148.251H316.738V158.193C316.738 163.529 313.743 166.147 309.011 166.147C304.28 166.147 301.383 163.505 301.383 158.319ZM319.535 148.25H334.134V151.825H328.772V165.871H324.895V151.825H319.535V148.25ZM340.938 155.224H348.088V148.25H351.965V165.871H348.088V158.798H340.938V165.871H337.062V148.25H340.938V155.224ZM369.882 151.699H360.443V155.273H368.748V158.722H360.443V162.422H370.008V165.871H356.591V148.25H369.882V151.699ZM379.985 148.124H383.561L391.111 165.871H387.059L385.449 161.918H377.997L376.386 165.871H372.435L379.985 148.124ZM384.062 158.495L381.722 152.782L379.38 158.495H384.062ZM392.865 163.304L395.156 160.56C396.742 161.869 398.403 162.7 400.417 162.7C402.003 162.7 402.961 162.071 402.961 161.037V160.986C402.961 160.005 402.356 159.502 399.41 158.746C395.861 157.841 393.57 156.859 393.57 153.36V153.31C393.57 150.113 396.138 147.999 399.738 147.999C402.304 147.999 404.495 148.804 406.282 150.238L404.268 153.159C402.707 152.077 401.171 151.422 399.686 151.422C398.201 151.422 397.423 152.102 397.423 152.958V153.007C397.423 154.166 398.176 154.543 401.223 155.325C404.796 156.256 406.809 157.54 406.809 160.609V160.661C406.809 164.16 404.143 166.123 400.342 166.123C397.673 166.123 394.98 165.191 392.865 163.304ZM409.054 148.25H423.652V151.825H418.291V165.871H414.414V151.825H409.054V148.25ZM269.083 173.912H270.072L276.52 187.852H275.391L273.631 183.977H265.464L263.704 187.852H262.636L269.083 173.912ZM273.196 183.047L269.557 175.038L265.899 183.047H273.196ZM281.566 174.01H282.595V187.852H281.566V174.01ZM288.825 174.01H294.639C296.339 174.01 297.704 174.543 298.534 175.375C299.187 176.028 299.583 176.956 299.583 177.945V177.985C299.583 180.298 297.862 181.622 295.529 181.938L300.097 187.852H298.792L294.381 182.118H289.852V187.852H288.825V174.01H288.825ZM294.52 181.188C296.834 181.188 298.555 180.022 298.555 178.025V177.985C298.555 176.125 297.09 174.959 294.579 174.959H289.851V181.188H294.52ZM306.132 186.904H314.26V187.852H305.103V174.01H306.132V186.904ZM318.502 174.01H319.53V187.852H318.502V174.01ZM336.28 186.053V174.01H337.269V187.852H336.499L326.748 175.552V187.852H325.759V174.01H326.728L336.28 186.053ZM353.211 174.959H344.391V180.397H352.322V181.346H344.391V186.904H353.31V187.852H343.364V174.01H353.211V174.959ZM357.705 185.835L358.376 185.064C359.899 186.468 361.304 187.12 363.339 187.12C365.417 187.12 366.839 185.953 366.839 184.371V184.332C366.839 182.869 366.07 182.018 362.924 181.385C359.602 180.714 358.257 179.586 358.257 177.49V177.45C358.257 175.394 360.137 173.812 362.708 173.812C364.724 173.812 366.05 174.366 367.454 175.493L366.801 176.304C365.496 175.176 364.189 174.741 362.668 174.741C360.63 174.741 359.287 175.908 359.287 177.352V177.391C359.287 178.855 360.038 179.744 363.32 180.417C366.523 181.07 367.868 182.217 367.868 184.233V184.273C367.868 186.507 365.95 188.05 363.28 188.05C361.067 188.05 359.365 187.319 357.705 185.835Z" fill="black"/>
<path d="M237.451 120.817H251.648L198.605 186.685H184.409L237.451 120.817Z" fill="#C9CBCC"/>
<path d="M373.9 176.51V172.86H372.537V172.372H375.817V172.86H374.447V176.51H373.9ZM376.362 176.51V172.372H377.186L378.166 175.302C378.256 175.575 378.322 175.778 378.363 175.914C378.41 175.764 378.484 175.543 378.583 175.251L379.575 172.371H380.311V176.509H379.783V173.046L378.581 176.51H378.086L376.889 172.987V176.51H376.362Z" fill="#231F20"/>
<path d="M138.962 186.678L132.999 176.616L123.967 182.266L119.929 186.678H138.962ZM112.434 120.824C116.444 123.65 119.434 128.454 119.434 128.454L134.23 153.977L147.357 155.427C147.357 155.427 177.745 153.46 179.089 153.869C181.907 154.733 183.74 158.658 183.74 158.658L153.096 165.45L143.689 170.445L149.838 181.386C149.838 181.386 150.301 179.756 150.69 179.501C151.08 179.241 154.37 177.198 154.986 177.367C155.601 177.531 156.595 178.707 158.156 181.673C158.987 183.248 159.66 185.016 160.189 186.679H175.656L228.666 120.824H112.434ZM118.16 172.288L123.466 160.186L108.763 134.615C108.763 134.615 105.832 129.127 105.608 124.031L55.3853 186.678H108.659C111.807 181.869 114.974 177.072 118.16 172.288Z" fill="#E31B23"/>
</svg>
