<svg width="480" height="320" viewBox="0 0 480 320" fill="none" xmlns="http://www.w3.org/2000/svg">
<path d="M249.293 167.357C229.872 167.357 250.065 150.706 250.065 150.706C235.729 166.738 257.563 162.885 257.563 162.885C259.79 162.885 262.576 161.545 265.928 158.861C269.28 156.171 274.097 151.409 280.37 144.566L304.839 118.033H303.192L287.265 118.131C271.753 118.131 275.035 135.395 275.035 135.395L273.906 136.117C264.45 117.826 286.958 115.773 286.958 115.773L310.496 115.659L305.145 126.539L294.75 149.101C292.324 154.346 290.964 157.803 290.646 159.469C290.646 159.469 288.915 165.217 296.776 158.625L297.828 159.678C297.828 159.678 279.392 172.012 283.583 162.944L289.415 150.296L290.517 147.864L292.43 143.707H283.116L279.306 147.864L277.066 150.296C271.574 156.279 267.145 160.466 263.774 162.858C263.774 162.858 256.885 167.357 249.294 167.357H249.293ZM285.173 141.469L293.457 141.488L301.785 123.358L285.173 141.469ZM321.034 150.381H320.666C313.408 160.84 307.844 166.08 303.982 166.08C301.695 166.08 301.085 164.328 302.15 160.84C302.454 159.843 302.947 158.597 303.638 157.1L309.887 143.501C310.868 141.38 311.453 139.99 311.653 139.348C312.005 138.203 311.758 137.634 310.916 137.634C309.519 137.634 306.779 139.647 302.699 143.668L303.874 141.09C308.297 136.773 311.758 134.606 314.247 134.606C316.308 134.606 316.915 135.996 316.07 138.767C315.792 139.689 315.132 141.252 314.112 143.474L307.817 157.099C307.252 158.319 306.897 159.187 306.74 159.704C306.278 161.205 306.474 161.95 307.322 161.95C308.399 161.95 310.539 160.286 313.752 156.946C316.957 153.607 320.159 149.721 323.354 145.292L327.905 135.346L332.567 134.975L328.379 143.495L322.114 157.163C321.136 159.284 320.544 160.668 320.352 161.313C319.995 162.474 320.24 163.051 321.079 163.051C322.491 163.051 325.231 161.038 329.296 157.013L328.122 159.59C323.683 163.911 320.225 166.08 317.748 166.08C315.686 166.08 315.083 164.684 315.931 161.901C316.218 160.962 316.869 159.396 317.881 157.203L321.034 150.381ZM355.52 139.397C352.742 139.544 347.41 144.701 339.558 155.313L334.911 165.448L330.27 165.786L334.471 157.231L340.701 143.643C341.338 142.283 341.807 141.09 342.114 140.089C342.596 138.5 342.413 137.707 341.555 137.707C340.041 137.707 337.238 139.791 333.14 143.979L334.281 141.507C338.976 136.909 342.533 134.606 344.953 134.606C347.005 134.606 347.554 136.138 346.628 139.187C346.215 140.531 345.629 142.029 344.871 143.682L341.807 150.368H342.09C345.201 145.733 348.369 141.948 351.579 139.015C354.799 136.078 357.368 134.606 359.299 134.606C360.294 134.606 361.103 134.896 361.712 135.474C361.712 135.474 363.511 139.15 356.576 148.085H355.032C355.032 148.085 360.282 139.15 355.52 139.397ZM374.386 157.749L373.391 159.961C367.611 164.041 363.125 166.08 359.932 166.08C357.908 166.08 356.546 165.159 355.846 163.319C355.147 161.481 355.239 159.104 356.133 156.189C357.729 150.977 360.765 146.078 365.243 141.488C369.73 136.904 373.716 134.606 377.208 134.606C378.475 134.606 379.332 135.161 379.779 136.267C380.225 137.378 380.174 138.817 379.634 140.585C378.55 144.131 376.227 147.182 372.657 149.722C369.092 152.272 365.382 153.548 361.513 153.548L361.106 154.799C359.455 160.204 360.149 162.907 363.191 162.907C365.822 162.907 369.552 161.188 374.386 157.749ZM362.071 151.853C365.364 151.523 368.191 150.452 370.541 148.648C372.886 146.848 374.504 144.511 375.379 141.65C376.244 138.821 375.883 137.413 374.299 137.413C372.585 137.413 370.482 138.885 367.983 141.832C365.481 144.776 363.511 148.116 362.071 151.853ZM388.174 125.587L387.25 124.503C406.052 109.09 402.443 119.175 402.443 119.175L384.977 157.146C383.999 159.271 383.415 160.661 383.218 161.307C382.859 162.47 383.1 163.052 383.942 163.052C384.899 163.052 387.253 161.41 391 158.111C391.293 157.858 391.804 157.417 392.534 156.807L391.366 159.365C386.631 163.837 383.053 166.08 380.629 166.08C378.604 166.08 378.025 164.662 378.894 161.834C379.25 160.668 379.878 159.104 380.774 157.146L396.96 121.969C396.96 119.893 388.174 125.587 388.174 125.587ZM413.237 150.323H412.853C409.815 154.967 406.715 158.753 403.547 161.681C400.384 164.608 397.808 166.08 395.822 166.08C392.805 166.08 392.045 163.644 393.535 158.764C395.179 153.39 398.436 148.129 403.324 142.977C408.381 137.648 413.375 134.976 418.315 134.976C420.355 134.976 422.455 135.089 424.615 135.306L420.572 143.492L414.319 157.163C413.339 159.302 412.754 160.682 412.557 161.314C412.201 162.475 412.445 163.052 413.285 163.052C414.712 163.052 417.448 161.039 421.502 157.014L420.327 159.591C415.892 163.912 412.431 166.08 409.953 166.08C407.892 166.08 407.289 164.681 408.14 161.892C408.427 160.967 409.075 159.394 410.095 157.172L413.237 150.323ZM418.324 139.255C416.842 138.221 415.225 137.706 413.475 137.706C410.879 137.706 408.159 139.817 405.309 144.069C401.944 149.086 399.661 153.599 398.436 157.606C397.551 160.502 397.763 161.951 399.075 161.951C400.304 161.951 402.57 160.287 405.888 156.955C409.212 153.621 412.398 149.818 415.442 145.535L418.324 139.255ZM220.469 175.161H421.882V177.219H220.469V175.161ZM125.195 204.34L137.331 178.052L140.071 172.017L143.858 163.782H127.883L121.335 170.913L117.5 175.083C108.074 185.354 100.475 192.53 94.688 196.634C94.688 196.634 82.8744 204.34 69.8567 204.34C36.5401 204.34 71.1783 175.789 71.1783 175.789C46.5827 203.285 84.0507 196.682 84.0507 196.682C87.8651 196.682 92.6421 194.382 98.4021 189.766C104.145 185.167 112.407 176.99 123.17 165.253L165.15 119.726H162.322L134.999 119.901C108.378 119.901 114.018 149.515 114.018 149.515L112.078 150.755C95.8554 119.374 134.468 115.85 134.468 115.85L174.857 115.659L165.677 134.319L139.7 190.683C139.7 190.683 132.868 202.988 145.895 202.988V204.34L125.195 204.34ZM131.408 159.938L145.608 159.97L159.911 128.872L131.408 159.938ZM179.406 135.949H234.022C241.047 135.949 253.826 122.313 257.052 119.548C260.275 116.787 266.442 115.968 266.442 115.968H189.207L179.406 135.949ZM169.368 158.698H209.791C216.815 158.698 229.597 145.062 232.823 142.295C236.045 139.543 242.22 138.724 242.22 138.724H178.578L169.368 158.698ZM158.715 181.45H185.067C192.088 181.45 204.867 167.815 208.096 165.057C211.322 162.292 217.49 161.471 217.49 161.471H167.925L158.715 181.45ZM157.261 184.347H192.029C192.029 184.347 185.856 185.155 182.636 187.92C179.411 190.69 166.625 204.323 159.6 204.323H148.049L157.261 184.347Z" fill="#850E07"/>
<path d="M215.807 201.076L222.992 184.426H225.614L233.224 201.076H230.406L228.266 196.061H220.378L218.393 201.076H215.807ZM221.1 194.257H227.494L225.551 189.64C224.95 188.228 224.507 187.07 224.229 186.188C223.979 187.275 223.632 188.336 223.194 189.361L221.1 194.257ZM238.641 201.076L231.43 184.426H234.097L238.951 196.532C239.316 197.427 239.643 198.337 239.929 199.26C240.222 198.337 240.553 197.427 240.922 196.532L245.958 184.426H248.469L241.209 201.076H238.641ZM251.142 201.076V184.426H253.611V201.076H251.142ZM255.886 201.076L263.067 184.426H265.686L273.303 201.076H270.481L268.345 196.061H260.457L258.472 201.076H255.886ZM261.175 194.257H267.573L265.627 189.64C265.026 188.228 264.586 187.07 264.304 186.188C264.057 187.275 263.711 188.337 263.272 189.361L261.175 194.257ZM275.222 201.076V184.426H277.687V192.682L286.96 184.426H290.294L282.473 191.179L290.638 201.076H287.379L280.744 192.676L277.687 195.301V201.076H275.222ZM291.978 192.971C291.978 190.141 292.833 187.962 294.537 186.442C296.242 184.921 298.372 184.166 300.913 184.166C302.557 184.166 304.054 184.498 305.411 185.174C306.764 185.863 307.838 186.846 308.629 188.144C309.422 189.434 309.818 190.98 309.818 192.772C309.818 195.228 309.051 197.232 307.524 198.783C305.835 200.491 303.626 201.348 300.895 201.348C298.146 201.348 295.936 200.461 294.259 198.711C292.738 197.136 291.978 195.21 291.978 192.971ZM294.525 193.002C294.525 195.047 295.144 196.635 296.378 197.763C297.615 198.891 299.111 199.453 300.877 199.453C302.691 199.453 304.208 198.885 305.433 197.74C306.662 196.598 307.274 194.921 307.274 192.723C307.274 191.294 306.96 190.015 306.329 188.897C305.84 188.029 305.11 187.341 304.129 186.828C303.142 186.307 302.041 186.037 300.925 186.043C299.069 186.043 297.533 186.622 296.335 187.745C295.126 188.879 294.525 190.624 294.525 193.002ZM312.865 201.076V184.426H316.59L321.015 196.212L321.899 198.68C322.117 198.059 322.449 197.178 322.895 196.007L327.37 184.427H330.704V201.077H328.314V187.105L322.881 201.076H320.662L315.253 186.791V201.076H312.865ZM334.642 201.076V184.426H341.667C343.317 184.426 344.539 184.535 345.327 184.745C346.401 185.029 347.258 185.566 347.898 186.345C348.541 187.123 348.864 188.082 348.864 189.218C348.864 190.714 348.342 191.934 347.295 192.875C346.251 193.822 344.446 194.293 341.884 194.293H337.111V201.076H334.642ZM337.111 192.32H341.93C343.45 192.32 344.558 192.079 345.264 191.571C345.967 191.076 346.32 190.322 346.32 189.308C346.32 188.65 346.148 188.089 345.801 187.613C345.454 187.154 345.032 186.828 344.539 186.659C344.052 186.471 343.167 186.393 341.884 186.393H337.111V192.32ZM348.062 201.076L355.24 184.426H357.868L365.479 201.076H362.66L360.521 196.061H352.632L350.648 201.076H348.062ZM353.351 194.257H359.748L357.802 189.64C357.198 188.228 356.761 187.07 356.48 186.188C356.233 187.275 355.886 188.337 355.445 189.361L353.351 194.257ZM367.395 201.076V184.426H369.942L379.73 197.54V184.426H382.084V201.076H379.561L369.787 187.98V201.076H367.395ZM386.734 201.076V184.426H389.206V201.076H386.734ZM392.211 196.333L394.443 196.061C394.504 197.341 394.77 198.209 395.243 198.68C395.719 199.145 396.378 199.38 397.21 199.38C397.802 199.38 398.308 199.26 398.761 199.018C399.214 198.783 399.51 198.475 399.661 198.119C399.878 197.63 399.986 196.876 399.986 195.88V184.426H402.458V195.772C402.458 197.811 401.996 199.235 401.079 200.08C400.168 200.92 398.879 201.348 397.216 201.348C395.593 201.348 394.383 200.968 393.589 200.208C392.669 199.345 392.211 198.052 392.211 196.333ZM404.501 201.076L411.686 184.426H414.304L421.921 201.076H419.103L416.963 196.061H409.072L407.083 201.076H404.501ZM409.787 194.257H416.184L414.242 189.64C413.64 188.228 413.197 187.07 412.92 186.188C412.669 187.274 412.324 188.336 411.887 189.361L409.787 194.257Z" fill="black"/>
</svg>
