<svg width="480" height="320" viewBox="0 0 480 320" fill="none" xmlns="http://www.w3.org/2000/svg">
<mask id="mask0_730_18330" style="mask-type:luminance" maskUnits="userSpaceOnUse" x="55" y="92" width="370" height="136">
<path d="M55.3846 92.7686H424.812V227.231H55.3846V92.7686Z" fill="white"/>
</mask>
<g mask="url(#mask0_730_18330)">
<path d="M91.5029 204.461C91.0642 202.584 90.7365 200.683 90.5214 198.768C88.2667 201.197 85.5324 203.132 82.4914 204.45C79.4504 205.767 76.169 206.44 72.8549 206.424C61.8624 206.424 55.3846 199.946 55.3846 189.935C55.3846 180.513 60.292 174.82 70.1068 172.661C83.0622 169.52 89.9326 170.502 89.9326 166.183V164.809C89.9326 161.472 87.3807 159.902 82.6696 159.902C77.3697 159.902 74.4253 162.061 73.6401 166.183H56.7587C58.5254 153.424 67.1624 147.535 83.0622 147.535C92.877 147.535 99.7473 149.891 103.477 154.798C107.01 159.313 107.206 165.005 107.206 172.661V193.861C107.206 198.768 107.992 201.713 109.955 202.694V204.853H91.5029V204.461ZM78.7437 181.494C74.6215 182.672 72.6586 184.242 72.6586 187.776C72.6009 188.667 72.734 189.56 73.049 190.396C73.364 191.232 73.8537 191.991 74.4853 192.623C75.1169 193.255 75.876 193.744 76.7119 194.059C77.5478 194.374 78.4412 194.507 79.3326 194.45C85.6141 194.45 89.9326 190.524 89.9326 184.635V178.157C86.9881 180.12 82.8659 180.316 78.7437 181.494Z" fill="#153152"/>
</g>
<mask id="mask1_730_18330" style="mask-type:luminance" maskUnits="userSpaceOnUse" x="55" y="92" width="370" height="136">
<path d="M55.3846 92.7686H424.812V227.231H55.3846V92.7686Z" fill="white"/>
</mask>
<g mask="url(#mask1_730_18330)">
<path d="M166.291 204.461H148.428V196.805C146.654 199.659 144.16 201.995 141.196 203.58C138.233 205.165 134.906 205.942 131.547 205.835C119.18 205.835 112.899 199.553 112.899 186.99V148.517H131.154V179.727C131.154 187.972 132.725 191.898 138.81 191.898C145.484 191.898 148.036 187.579 148.036 178.353V148.517H166.291V204.461Z" fill="#153152"/>
</g>
<mask id="mask2_730_18330" style="mask-type:luminance" maskUnits="userSpaceOnUse" x="55" y="92" width="370" height="136">
<path d="M55.3846 92.7686H424.812V227.231H55.3846V92.7686Z" fill="white"/>
</mask>
<g mask="url(#mask2_730_18330)">
<path d="M171.002 148.517H188.473V158.331C192.398 150.676 197.895 147.339 206.924 147.143V165.202C205.428 164.982 203.921 164.851 202.409 164.809C196.913 164.809 193.184 166.379 191.024 169.913C189.258 172.661 189.061 177.765 189.061 185.42V204.068H170.806V148.517H171.002Z" fill="#153152"/>
</g>
<mask id="mask3_730_18330" style="mask-type:luminance" maskUnits="userSpaceOnUse" x="55" y="92" width="370" height="136">
<path d="M55.3846 92.7686H424.812V227.231H55.3846V92.7686Z" fill="white"/>
</mask>
<g mask="url(#mask3_730_18330)">
<path d="M210.654 148.517H228.909V204.264H210.654V148.517Z" fill="#153152"/>
</g>
<mask id="mask4_730_18330" style="mask-type:luminance" maskUnits="userSpaceOnUse" x="55" y="92" width="370" height="136">
<path d="M55.3846 92.7686H424.812V227.231H55.3846V92.7686Z" fill="white"/>
</mask>
<g mask="url(#mask4_730_18330)">
<path d="M254.231 209.564C255.213 212.901 257.961 214.079 262.672 214.079C271.113 214.079 273.468 210.35 273.468 201.909V196.02C269.792 201.959 263.169 205.421 256.194 205.05C242.846 205.05 232.835 193.861 232.835 176.391C232.835 158.92 242.65 147.143 256.391 147.143C259.866 146.981 263.324 147.729 266.422 149.313C269.521 150.896 272.152 153.261 274.057 156.172V148.713H291.135V194.842C291.135 204.461 290.939 211.527 287.798 216.631C283.479 223.305 275.039 227.231 263.261 227.231C246.38 227.231 237.743 221.735 235.976 209.564H254.231ZM262.083 190.524C268.954 190.524 273.076 185.42 273.076 176.194C273.076 166.38 269.346 161.276 262.476 161.276C255.605 161.276 251.68 166.38 251.68 176.194C251.68 185.224 255.802 190.524 262.083 190.524Z" fill="#153152"/>
</g>
<mask id="mask5_730_18330" style="mask-type:luminance" maskUnits="userSpaceOnUse" x="55" y="92" width="370" height="136">
<path d="M55.3846 92.7686H424.812V227.231H55.3846V92.7686Z" fill="white"/>
</mask>
<g mask="url(#mask5_730_18330)">
<path d="M296.239 148.516H314.101V156.172C315.805 153.253 318.285 150.864 321.265 149.27C324.245 147.676 327.609 146.939 330.983 147.142C344.527 147.142 349.631 153.816 349.631 168.146V204.461H331.375V176.39C331.375 166.183 330.983 161.079 323.72 161.079C317.046 161.079 314.494 165.398 314.494 174.624V204.461H296.239V148.516Z" fill="#153152"/>
</g>
<mask id="mask6_730_18330" style="mask-type:luminance" maskUnits="userSpaceOnUse" x="55" y="92" width="370" height="136">
<path d="M55.3846 92.7686H424.812V227.231H55.3846V92.7686Z" fill="white"/>
</mask>
<g mask="url(#mask6_730_18330)">
<path d="M377.308 225.661C373.775 227.231 368.868 227.231 362.782 227.231H357.875V212.705H361.408C367.493 212.705 370.242 211.724 370.242 207.012C369.817 203.874 368.889 200.825 367.493 197.983L348.649 148.517H368.279L378.879 186.598L389.675 148.517H409.108L386.73 210.546C383.786 218.594 381.627 223.698 377.308 225.661Z" fill="#153152"/>
</g>
<mask id="mask7_730_18330" style="mask-type:luminance" maskUnits="userSpaceOnUse" x="55" y="92" width="370" height="136">
<path d="M55.3846 92.7686H424.812V227.231H55.3846V92.7686Z" fill="white"/>
</mask>
<g mask="url(#mask7_730_18330)">
<path d="M229.891 134.187C229.891 136.167 229.304 138.102 228.204 139.749C227.104 141.395 225.54 142.678 223.711 143.436C221.882 144.194 219.869 144.392 217.927 144.006C215.985 143.619 214.201 142.666 212.801 141.266C211.401 139.866 210.447 138.082 210.061 136.14C209.675 134.198 209.873 132.185 210.631 130.356C211.389 128.527 212.672 126.963 214.318 125.863C215.964 124.763 217.9 124.176 219.88 124.176C221.202 124.149 222.516 124.39 223.742 124.883C224.969 125.377 226.083 126.114 227.018 127.049C227.953 127.983 228.69 129.098 229.183 130.324C229.677 131.551 229.918 132.865 229.891 134.187Z" fill="#AD1923"/>
</g>
<mask id="mask8_730_18330" style="mask-type:luminance" maskUnits="userSpaceOnUse" x="55" y="92" width="370" height="136">
<path d="M55.3846 92.7686H424.812V227.231H55.3846V92.7686Z" fill="white"/>
</mask>
<g mask="url(#mask8_730_18330)">
<path d="M282.89 92.7686C285.299 92.6874 287.66 93.4513 289.565 94.9278L288.19 96.8908C286.74 95.7373 284.94 95.1139 283.087 95.1241C282.158 95.0891 281.233 95.2495 280.37 95.5949C279.508 95.9403 278.727 96.463 278.08 97.1292C277.432 97.7954 276.932 98.5902 276.611 99.4621C276.29 100.334 276.155 101.264 276.216 102.191C276.154 103.127 276.286 104.067 276.604 104.95C276.922 105.833 277.419 106.641 278.065 107.323C278.71 108.005 279.489 108.547 280.353 108.913C281.217 109.28 282.148 109.464 283.087 109.454C285.089 109.374 286.985 108.531 288.387 107.098V104.35H283.479V102.191H290.742V111.417H288.387V109.454C286.85 110.898 284.803 111.675 282.694 111.613C280.202 111.577 277.826 110.555 276.085 108.771C274.345 106.986 273.382 104.585 273.408 102.093C273.434 99.6007 274.447 97.2202 276.224 95.4726C278.001 93.725 280.398 92.7527 282.89 92.7686Z" fill="#153152"/>
</g>
<mask id="mask9_730_18330" style="mask-type:luminance" maskUnits="userSpaceOnUse" x="55" y="92" width="370" height="136">
<path d="M55.3846 92.7686H424.812V227.231H55.3846V92.7686Z" fill="white"/>
</mask>
<g mask="url(#mask9_730_18330)">
<path d="M293.49 93.1611H296.042V105.135C296.042 106.385 296.539 107.583 297.422 108.466C298.306 109.35 299.504 109.846 300.753 109.846C302.003 109.846 303.201 109.35 304.085 108.466C304.968 107.583 305.464 106.385 305.464 105.135V93.3574H308.016V105.331C307.881 107.165 307.058 108.88 305.71 110.132C304.363 111.384 302.592 112.08 300.753 112.08C298.914 112.08 297.144 111.384 295.796 110.132C294.449 108.88 293.625 107.165 293.49 105.331V93.1611Z" fill="#153152"/>
</g>
<mask id="mask10_730_18330" style="mask-type:luminance" maskUnits="userSpaceOnUse" x="55" y="92" width="370" height="136">
<path d="M55.3846 92.7686H424.812V227.231H55.3846V92.7686Z" fill="white"/>
</mask>
<g mask="url(#mask10_730_18330)">
<path d="M323.327 109.257V111.417H312.138V93.1611H322.935V95.3204H314.69V101.013H321.364V103.368H314.69V109.257H323.327Z" fill="#153152"/>
</g>
<mask id="mask11_730_18330" style="mask-type:luminance" maskUnits="userSpaceOnUse" x="55" y="92" width="370" height="136">
<path d="M55.3846 92.7686H424.812V227.231H55.3846V92.7686Z" fill="white"/>
</mask>
<g mask="url(#mask11_730_18330)">
<path d="M327.646 93.1607H333.338C334.529 93.1193 335.719 93.2516 336.872 93.5533C337.824 93.9838 338.629 94.6844 339.187 95.5683C339.745 96.4522 340.032 97.4804 340.011 98.5254C339.99 99.5705 339.663 100.586 339.07 101.447C338.477 102.308 337.644 102.976 336.675 103.368C336.893 103.613 337.09 103.876 337.264 104.153L341.19 111.22H338.246L334.32 103.957H330.394V111.22H327.646V93.1607ZM333.927 101.994C334.371 102.013 334.813 101.941 335.227 101.78C335.641 101.619 336.016 101.374 336.33 101.06C336.644 100.746 336.889 100.37 337.05 99.9567C337.211 99.543 337.284 99.1004 337.264 98.657C337.313 98.1165 337.21 97.5733 336.967 97.088C336.724 96.6026 336.352 96.1944 335.89 95.9089C335.072 95.6165 334.206 95.4832 333.338 95.5163H330.394V101.994H333.927Z" fill="#153152"/>
</g>
<mask id="mask12_730_18330" style="mask-type:luminance" maskUnits="userSpaceOnUse" x="55" y="92" width="370" height="136">
<path d="M55.3846 92.7686H424.812V227.231H55.3846V92.7686Z" fill="white"/>
</mask>
<g mask="url(#mask12_730_18330)">
<path d="M344.331 93.1611H346.883L355.127 105.135C355.716 106.117 356.697 107.883 356.697 107.883C356.585 106.971 356.52 106.054 356.501 105.135V93.1611H359.053V111.613H356.501L348.257 99.6389C347.668 98.6574 346.686 96.8907 346.686 96.8907C346.798 97.8029 346.864 98.7201 346.883 99.6389V111.613H344.331V93.1611Z" fill="#153152"/>
</g>
<mask id="mask13_730_18330" style="mask-type:luminance" maskUnits="userSpaceOnUse" x="55" y="92" width="370" height="136">
<path d="M55.3846 92.7686H424.812V227.231H55.3846V92.7686Z" fill="white"/>
</mask>
<g mask="url(#mask13_730_18330)">
<path d="M364.157 107.49C365.442 108.687 367.113 109.383 368.868 109.453C369.259 109.503 369.656 109.47 370.034 109.355C370.411 109.24 370.76 109.046 371.056 108.786C371.353 108.526 371.592 108.206 371.756 107.848C371.92 107.489 372.006 107.1 372.008 106.705C372.008 102.779 363.175 103.564 363.175 97.8718C363.212 97.1447 363.395 96.4326 363.714 95.7782C364.033 95.1238 364.481 94.5407 365.031 94.0639C365.581 93.5872 366.222 93.2266 366.915 93.0039C367.608 92.7812 368.339 92.701 369.064 92.7681C370.981 92.732 372.852 93.3557 374.364 94.5348L373.186 96.694C372.023 95.7304 370.574 95.1783 369.064 95.1236C368.663 95.0747 368.256 95.1079 367.867 95.2211C367.479 95.3343 367.118 95.5252 366.806 95.7822C366.494 96.0392 366.238 96.357 366.052 96.7162C365.866 97.0754 365.756 97.4685 365.727 97.8718C365.727 101.601 374.56 100.62 374.56 106.705C374.538 107.437 374.364 108.156 374.049 108.817C373.735 109.479 373.287 110.067 372.734 110.547C372.181 111.026 371.534 111.386 370.835 111.603C370.136 111.82 369.399 111.89 368.671 111.809C366.413 111.852 364.227 111.006 362.586 109.453L364.157 107.49Z" fill="#153152"/>
</g>
<mask id="mask14_730_18330" style="mask-type:luminance" maskUnits="userSpaceOnUse" x="55" y="92" width="370" height="136">
<path d="M55.3846 92.7686H424.812V227.231H55.3846V92.7686Z" fill="white"/>
</mask>
<g mask="url(#mask14_730_18330)">
<path d="M389.479 109.257V111.417H378.29V93.1611H388.89V95.3204H380.842V101.013H387.516V103.368H380.842V109.257H389.479Z" fill="#153152"/>
</g>
<mask id="mask15_730_18330" style="mask-type:luminance" maskUnits="userSpaceOnUse" x="55" y="92" width="370" height="136">
<path d="M55.3846 92.7686H424.812V227.231H55.3846V92.7686Z" fill="white"/>
</mask>
<g mask="url(#mask15_730_18330)">
<path d="M397.134 103.761L391.049 93.1611H393.993L397.33 99.2463C397.767 100.009 398.16 100.795 398.508 101.602L399.686 99.2463L403.023 93.1611H405.967L399.882 103.761V111.613H397.33V103.761H397.134Z" fill="#153152"/>
</g>
<mask id="mask16_730_18330" style="mask-type:luminance" maskUnits="userSpaceOnUse" x="55" y="92" width="370" height="136">
<path d="M55.3846 92.7686H424.812V227.231H55.3846V92.7686Z" fill="white"/>
</mask>
<g mask="url(#mask16_730_18330)">
<path d="M411.464 92.7686L409.697 97.8722H407.734L408.912 92.7686H411.464Z" fill="#153152"/>
</g>
<mask id="mask17_730_18330" style="mask-type:luminance" maskUnits="userSpaceOnUse" x="55" y="92" width="370" height="136">
<path d="M55.3846 92.7686H424.812V227.231H55.3846V92.7686Z" fill="white"/>
</mask>
<g mask="url(#mask17_730_18330)">
<path d="M414.212 107.49C415.497 108.687 417.168 109.383 418.923 109.453C419.314 109.503 419.712 109.47 420.089 109.355C420.466 109.24 420.815 109.046 421.112 108.786C421.409 108.526 421.647 108.206 421.811 107.848C421.975 107.489 422.061 107.1 422.064 106.705C422.064 102.779 413.23 103.564 413.23 97.8718C413.267 97.1447 413.45 96.4326 413.769 95.7782C414.088 95.1238 414.536 94.5407 415.086 94.0639C415.636 93.5872 416.277 93.2266 416.97 93.0039C417.663 92.7812 418.394 92.701 419.119 92.7681C421.036 92.732 422.907 93.3557 424.419 94.5348L423.241 96.694C422.078 95.7304 420.629 95.1783 419.119 95.1236C418.718 95.0747 418.311 95.1079 417.923 95.2211C417.534 95.3343 417.173 95.5252 416.861 95.7822C416.549 96.0392 416.293 96.357 416.107 96.7162C415.922 97.0754 415.811 97.4685 415.782 97.8718C415.782 101.601 424.615 100.62 424.615 106.705C424.593 107.437 424.419 108.156 424.105 108.817C423.79 109.479 423.342 110.067 422.789 110.547C422.236 111.026 421.589 111.386 420.89 111.603C420.191 111.82 419.454 111.89 418.727 111.809C416.468 111.852 414.283 111.006 412.641 109.453L414.212 107.49Z" fill="#153152"/>
</g>
<mask id="mask18_730_18330" style="mask-type:luminance" maskUnits="userSpaceOnUse" x="55" y="92" width="370" height="136">
<path d="M55.3846 92.7686H424.812V227.231H55.3846V92.7686Z" fill="white"/>
</mask>
<g mask="url(#mask18_730_18330)">
<path d="M331.375 131.831H324.505L322.738 137.131H319.99L326.664 118.68H329.412L336.086 137.131H333.338L331.375 131.831ZM328.038 121.232C327.85 122.103 327.588 122.957 327.253 123.783L325.29 129.672H330.786L328.824 123.783C328.517 122.947 328.254 122.095 328.038 121.232Z" fill="#153152"/>
</g>
<mask id="mask19_730_18330" style="mask-type:luminance" maskUnits="userSpaceOnUse" x="55" y="92" width="370" height="136">
<path d="M55.3846 92.7686H424.812V227.231H55.3846V92.7686Z" fill="white"/>
</mask>
<g mask="url(#mask19_730_18330)">
<path d="M338.638 118.68H341.19V137.131H338.638V118.68Z" fill="#153152"/>
</g>
<mask id="mask20_730_18330" style="mask-type:luminance" maskUnits="userSpaceOnUse" x="55" y="92" width="370" height="136">
<path d="M55.3846 92.7686H424.812V227.231H55.3846V92.7686Z" fill="white"/>
</mask>
<g mask="url(#mask20_730_18330)">
<path d="M346.294 118.679H351.986C353.177 118.638 354.367 118.77 355.52 119.072C356.472 119.502 357.277 120.203 357.835 121.087C358.393 121.971 358.68 122.999 358.659 124.044C358.638 125.089 358.311 126.105 357.718 126.966C357.125 127.827 356.292 128.495 355.323 128.887C355.541 129.132 355.738 129.394 355.912 129.672L359.838 136.738H356.894L352.968 129.475H349.042V136.738H346.49V118.679H346.294ZM352.575 127.513C353.019 127.532 353.461 127.459 353.875 127.298C354.289 127.137 354.664 126.892 354.978 126.578C355.292 126.265 355.537 125.889 355.698 125.475C355.859 125.062 355.932 124.619 355.912 124.176C355.961 123.635 355.858 123.092 355.615 122.607C355.372 122.121 354.999 121.713 354.538 121.427C353.72 121.135 352.854 121.002 351.986 121.035H349.042V127.513H352.575Z" fill="#153152"/>
</g>
<mask id="mask21_730_18330" style="mask-type:luminance" maskUnits="userSpaceOnUse" x="55" y="92" width="370" height="136">
<path d="M55.3846 92.7686H424.812V227.231H55.3846V92.7686Z" fill="white"/>
</mask>
<g mask="url(#mask21_730_18330)">
<path d="M373.775 134.776V137.131H362.979V118.68H365.531V134.776H373.775Z" fill="#153152"/>
</g>
<mask id="mask22_730_18330" style="mask-type:luminance" maskUnits="userSpaceOnUse" x="55" y="92" width="370" height="136">
<path d="M55.3846 92.7686H424.812V227.231H55.3846V92.7686Z" fill="white"/>
</mask>
<g mask="url(#mask22_730_18330)">
<path d="M376.719 118.68H379.271V137.131H376.719V118.68Z" fill="#153152"/>
</g>
<mask id="mask23_730_18330" style="mask-type:luminance" maskUnits="userSpaceOnUse" x="55" y="92" width="370" height="136">
<path d="M55.3846 92.7686H424.812V227.231H55.3846V92.7686Z" fill="white"/>
</mask>
<g mask="url(#mask23_730_18330)">
<path d="M384.375 118.68H386.927L395.171 130.654C395.76 131.635 396.742 133.402 396.742 133.402C396.63 132.49 396.564 131.572 396.545 130.654V118.68H399.097V137.131H396.545L388.301 125.157C387.712 124.176 386.731 122.409 386.731 122.409C386.843 123.321 386.908 124.239 386.927 125.157V137.131H384.375V118.68Z" fill="#153152"/>
</g>
<mask id="mask24_730_18330" style="mask-type:luminance" maskUnits="userSpaceOnUse" x="55" y="92" width="370" height="136">
<path d="M55.3846 92.7686H424.812V227.231H55.3846V92.7686Z" fill="white"/>
</mask>
<g mask="url(#mask24_730_18330)">
<path d="M415.193 134.776L414.212 137.131H404.004V118.68H414.801V120.839H406.556V126.728H413.23V128.887H406.556V134.776H415.193Z" fill="#153152"/>
</g>
</svg>
