<svg width="480" height="320" viewBox="0 0 480 320" fill="none" xmlns="http://www.w3.org/2000/svg">
<path d="M304.995 103.88C314.115 113.237 322.456 121.337 331.692 131.052L348.675 148.38L348.426 148.75C337.206 164.709 324.074 180.423 309.316 193.322C304.754 197.338 299.919 201.538 295.361 204.96V204.996C304.236 192.522 313.573 180.487 324.853 169.624V169.383C314.175 158.588 304.754 148.689 294.076 137.951L293.779 88.3389C295.578 94.5755 300.32 99.0773 304.995 103.88Z" fill="#00907F"/>
<path d="M345.969 174.841C331.03 191.515 313.633 206.333 296.12 219.83C317.717 189.358 344.587 162.062 374.401 139.569C365.939 151.509 356.221 163.865 345.969 174.841Z" fill="#0254A1"/>
<path d="M368.401 168.548L383.939 184.499L394.677 195.418L412.013 213.172C415.937 217.067 419.804 220.613 424.615 222.171H400.741L376.144 221.81L358.683 203.992C354.185 199.197 350.109 194.876 345.43 190.374C338.889 196.851 331.933 203.51 324.974 209.449C320.231 213.108 315.372 217.007 310.633 220.364C322.628 204.168 337.632 188.273 353.466 175.611C357.546 172.431 361.771 168.865 365.915 165.925L368.401 168.548ZM62.9866 138.292H78.6524L83.7044 166.821H86.1541V174.322H75.0823L73.8053 165.544H67.7333L66.5085 174.318H55.3845V166.817H58.035L62.9866 138.292ZM70.7974 144.211L68.5003 159.315H73.0383L70.7974 144.211ZM86.8087 150.283H97.6274V167.837H101.712V150.283H110.285V167.837H112.378V174.318H101.712V170.748L98.037 174.318H95.3344C93.8525 174.318 92.0132 174.318 90.7402 173.302C89.158 172.073 89.1057 170.134 89.1057 168.608V156.765H86.8087V150.283ZM134.782 150.283V157.632H126.979V156.05H123V158.243L135.244 161.255V168.604C135.196 173.395 133.561 174.266 129.839 174.314H114.578V166.813H123V168.6H126.674V165.74L114.578 162.833V156.098C114.631 151.609 115.803 150.332 120.45 150.279H134.782V150.283ZM150.797 150.283V156.765H148.452V167.837H150.797V174.318H139.931V156.765H137.633V150.283H139.931V142.577H148.452V150.283H150.797ZM152.484 150.283H163.455V152.938L166.058 150.283H168.15C169.423 150.336 170.909 150.336 171.977 151.508C172.949 152.528 172.949 153.701 172.997 154.769V160.741H166.315V156.765H163.455V167.837H165.805V174.318H152.484V167.837H154.729V156.765H152.484V150.283ZM196.422 167.837H198.719V174.318H187.9V171.563L184.836 174.318H179.684C178.459 174.266 177.033 174.266 175.909 173.041C174.84 171.869 174.84 170.234 174.84 169.013V165.544C174.937 161.464 176.571 160.644 179.989 160.596H187.9V156.155H183.001V158.757H175.503V155.797C175.503 154.52 175.551 152.942 176.624 151.713C177.897 150.388 179.684 150.336 181.165 150.287H190.707C192.241 150.34 194.024 150.34 195.301 151.817C196.374 153.042 196.422 154.52 196.422 155.898V167.837ZM183.005 168.499H187.904V164.977H183.005V168.499ZM210.566 167.837H212.911V174.318H199.747V167.837H202.04V144.774H199.747V138.292H210.566V167.837ZM213.831 150.283H224.701V167.837H226.995V174.318H213.831V167.837H216.128V156.765H213.831V150.283ZM219.85 139.722C221.894 139.722 223.525 141.356 223.525 143.396C223.525 145.488 221.894 147.123 219.85 147.123C217.758 147.123 216.128 145.488 216.128 143.396C216.132 141.356 217.762 139.722 219.85 139.722ZM250.371 167.837H252.668V174.318H241.849V171.563L238.785 174.318H233.637C232.408 174.266 230.978 174.266 229.858 173.041C228.786 171.869 228.786 170.234 228.786 169.013V165.544C228.886 161.464 230.524 160.644 233.938 160.596H241.849V156.155H236.95V158.757H229.448V155.797C229.448 154.52 229.5 152.942 230.569 151.713C231.846 150.388 233.637 150.336 235.115 150.287H244.656C246.186 150.34 247.969 150.34 249.25 151.817C250.323 153.042 250.371 154.52 250.371 155.898V167.837ZM236.95 168.499H241.849V164.977H236.95V168.499ZM268.286 150.283H271.249C272.832 150.283 274.868 150.336 276.149 151.914C277.221 153.191 277.221 155.131 277.221 156.608V167.837H279.57V174.318H268.699V156.813H264.615V174.318H256.041V156.813H253.897V150.283H264.615V153.857L268.286 150.283ZM76.9899 215.328H79.287V221.81H68.4642V219.055L65.4041 221.81H60.2518C59.0269 221.762 57.5973 221.762 56.4728 220.537C55.4046 219.364 55.4046 217.73 55.4046 216.509V213.039C55.505 208.955 57.1395 208.14 60.557 208.088H68.4642V203.65H63.5648V206.252H56.0672V203.293C56.0672 202.016 56.1194 200.438 57.1876 199.209C58.4647 197.883 60.2518 197.831 61.7296 197.783H71.2713C72.8053 197.835 74.5884 197.835 75.8654 199.313C76.9377 200.538 76.9899 202.016 76.9899 203.397V215.328ZM63.5648 215.995H68.4642V212.477H63.5648V215.995ZM79.797 197.775H90.6679V215.328H92.961V221.81H79.797V215.328H82.094V204.257H79.797V197.775ZM85.8208 187.213C87.8608 187.213 89.4953 188.848 89.4953 190.892C89.4953 192.984 87.8648 194.615 85.8208 194.615C83.7285 194.615 82.094 192.984 82.094 190.892C82.094 188.848 83.7285 187.213 85.8208 187.213ZM93.4228 197.775H104.394V200.429L106.996 197.775H109.089C110.362 197.827 111.848 197.827 112.916 199C113.884 200.02 113.884 201.197 113.936 202.265V208.236H107.253V204.257H104.394V215.328H106.739V221.81H93.4188V215.328H95.6677V204.257H93.4188V197.775H93.4228ZM140.172 197.574H131.955V193.285H126.75V200.124H134.1V206.758H126.75V214.312H131.955V209.666H140.734V221.81H114.755V214.312H117.104V193.285H114.755V185.784H140.172V197.574ZM163.596 197.775V204.309H161.094L157.677 209.666L161.351 215.328H163.596V221.81H155.633L153.697 218.188C153.187 217.268 153.087 217.015 152.625 215.891C152.014 217.473 151.809 217.83 151.091 219.208L149.617 221.806H141.553V215.324H144.003L147.521 209.662L144.003 204.305H141.553V197.771H149.512L151.404 201.14C152.066 202.417 152.219 202.723 152.629 203.996C153.135 202.466 153.291 202.108 154.111 200.578L155.637 197.771H163.596V197.775ZM175.234 197.775V200.988L178.752 197.775H182.579C184.009 197.827 185.748 197.879 186.868 199.51C187.683 200.682 187.735 202.522 187.735 204.309V215.228C187.735 216.862 187.683 218.85 186.764 220.18C185.595 221.81 183.904 221.81 182.43 221.81H178.399L175.234 218.798V225.179H177.836V231.661H164.363V225.179H166.66V204.309H164.363V197.775H175.234ZM175.234 215.328H179.061V204.309H175.234V215.328ZM189.727 197.775H200.699V200.429L203.297 197.775H205.393C206.662 197.827 208.148 197.827 209.216 199C210.184 200.02 210.184 201.197 210.236 202.265V208.236H203.55V204.257H200.695V215.328H203.044V221.81H189.723V215.328H191.972V204.257H189.723V197.775H189.727ZM232.95 211.501H220.91V215.991H224.79V213.288H232.95V216.2C232.95 217.73 232.902 219.26 231.629 220.537C230.356 221.81 228.97 221.81 227.593 221.81H218.204C213.714 221.81 212.128 220.686 212.128 215.842V204.461C212.128 202.931 212.128 201.297 212.742 200.076C213.863 197.779 216.212 197.779 217.69 197.779H226.569C231.368 197.831 232.898 198.855 232.946 203.494V211.501H232.95ZM224.79 203.542H220.91V206.911H224.79V203.542ZM256.009 197.775V205.124H248.206V203.542H244.227V205.734L256.471 208.746V216.095C256.423 220.894 254.788 221.762 251.062 221.81H235.805V214.312H244.227V216.095H247.897V213.24L235.805 210.333V203.598C235.854 199.104 237.03 197.827 241.673 197.779H256.009V197.775ZM279.12 197.775V205.124H271.31V203.542H267.334V205.734L279.582 208.746V216.095C279.526 220.894 277.896 221.762 274.169 221.81H258.913V214.312H267.334V216.095H271.008V213.24L258.913 210.333V203.598C258.961 199.104 260.137 197.827 264.78 197.779H279.12V197.775Z" fill="#00907F"/>
</svg>
