<svg width="480" height="320" viewBox="0 0 480 320" fill="none" xmlns="http://www.w3.org/2000/svg">
<path d="M94.062 143.065L88.0765 185.282H80.1022L80.8543 180.404L80.7073 180.182C76.9999 184.135 73.2006 186.112 69.3092 186.112C65.4491 186.112 62.1629 184.483 59.4504 181.224C56.7398 177.965 55.3845 174.024 55.3845 169.404C55.3845 161.387 57.9054 154.777 62.9501 149.576C67.9947 144.375 75.0377 141.772 84.0827 141.772C87.7616 141.772 91.0877 142.204 94.062 143.065ZM81.8359 173.064L85.291 148.682C84.4336 148.621 83.6066 148.59 82.8109 148.59C76.5333 148.59 71.7571 150.587 68.4803 154.581C65.2035 158.575 63.5656 163.035 63.5656 167.962C63.5656 171.359 64.3556 174.137 65.9357 176.295C67.5157 178.453 69.5169 179.531 71.942 179.531C73.8739 179.531 75.9918 178.576 78.2926 176.665C80.5925 174.754 81.7743 173.553 81.8359 173.064ZM134.816 143.077L113.126 186.111H109.167L99.5467 143.077H107.449L113.21 169.861L126.708 143.077H134.816ZM173.411 143.065L167.426 185.282H159.452L160.204 180.404L160.057 180.182C156.349 184.135 152.55 186.112 148.659 186.112C144.799 186.112 141.512 184.483 138.8 181.224C136.088 177.965 134.733 174.025 134.733 169.405C134.733 161.388 137.254 154.778 142.299 149.577C147.343 144.376 154.386 141.773 163.431 141.773C167.111 141.772 170.437 142.204 173.411 143.065ZM161.185 173.064L164.64 148.682C163.783 148.621 162.956 148.59 162.16 148.59C155.883 148.59 151.107 150.587 147.83 154.581C144.553 158.575 142.915 163.035 142.915 167.962C142.915 171.359 143.705 174.137 145.285 176.295C146.865 178.453 148.866 179.531 151.291 179.531C153.223 179.531 155.341 178.576 157.642 176.665C159.942 174.754 161.124 173.553 161.185 173.064Z" fill="#ED1C24"/>
<path d="M180.17 154.871L193.626 141.594V149.122H205.126V155.583H193.626V173.273C193.626 177.405 195.348 179.471 198.795 179.471C201.373 179.471 204.096 178.641 206.963 176.981V183.626C204.202 185.163 201.191 185.932 197.931 185.932C194.644 185.932 191.909 184.975 189.728 183.062C189.043 182.487 188.478 181.838 188.031 181.117C187.584 180.396 187.209 179.453 186.907 178.287C186.604 177.121 186.453 174.9 186.453 171.623V155.583H180.17V154.871ZM215.741 133.888C216.924 133.888 217.936 134.296 218.777 135.11C219.618 135.925 220.039 136.924 220.039 138.106C220.039 139.263 219.618 140.261 218.777 141.102C217.936 141.944 216.924 142.364 215.741 142.364C214.637 142.364 213.665 141.937 212.824 141.082C211.983 140.228 211.563 139.236 211.563 138.105C211.563 137.001 211.983 136.023 212.824 135.168C213.665 134.314 214.637 133.888 215.741 133.888V133.888ZM212.214 149.121H219.386V185.28H212.214V149.121ZM247.047 149.003C252.562 149.003 257.145 150.781 260.796 154.337C264.447 157.894 266.272 162.363 266.272 167.743C266.272 172.967 264.42 177.304 260.717 180.756C257.015 184.207 252.352 185.932 246.732 185.932C241.296 185.932 236.752 184.18 233.1 180.677C229.449 177.174 227.625 172.796 227.625 167.546C227.625 162.244 229.47 157.83 233.16 154.299C236.85 150.768 241.479 149.003 247.047 149.003ZM246.643 155.464C243.199 155.464 240.375 156.592 238.167 158.848C235.959 161.104 234.856 163.977 234.856 167.466C234.856 170.93 235.985 173.757 238.245 175.947C240.505 178.139 243.41 179.233 246.959 179.233C250.48 179.233 253.364 178.126 255.611 175.908C257.858 173.691 258.982 170.851 258.982 167.388C258.982 163.952 257.812 161.104 255.473 158.848C253.134 156.592 250.19 155.464 246.643 155.464ZM281.323 149.121V153.685C284.528 150.128 288.168 148.35 292.242 148.35C294.501 148.35 296.603 148.934 298.547 150.103C300.491 151.271 301.97 152.872 302.982 154.906C303.994 156.939 304.5 160.162 304.5 164.57V185.28H297.328V164.652C297.328 160.952 296.763 158.308 295.633 156.72C294.504 155.132 292.611 154.337 289.957 154.337C286.567 154.337 283.69 156.037 281.324 159.435V185.28H274.032V149.121H281.323Z" fill="black"/>
<path d="M324.854 185.061V142.323H338.386C342.46 142.323 345.708 143.424 348.13 145.624C350.553 147.826 351.765 150.782 351.765 154.491C351.765 156.978 351.145 159.179 349.904 161.095C348.662 163.011 346.964 164.401 344.809 165.267C342.653 166.134 339.561 166.566 335.534 166.566H331.019V185.061H324.854ZM337.322 147.776H331.019V161.113H337.688C340.164 161.113 342.073 160.529 343.413 159.359C344.752 158.189 345.422 156.515 345.422 154.338C345.422 149.963 342.722 147.776 337.322 147.776ZM357.059 142.382H363.165V179.489H382.371V185.061H357.059V142.382ZM424.615 175.162V181.86C420.13 184.31 414.952 185.535 409.08 185.535C404.31 185.535 400.263 184.577 396.94 182.662C393.616 180.747 390.986 178.107 389.05 174.744C387.113 171.382 386.146 167.743 386.146 163.83C386.146 157.614 388.361 152.388 392.794 148.148C397.227 143.909 402.694 141.789 409.194 141.789C413.677 141.789 418.659 142.955 424.142 145.287V151.867C419.151 149.022 414.274 147.599 409.507 147.599C404.618 147.599 400.559 149.143 397.33 152.23C394.102 155.317 392.489 159.183 392.489 163.828C392.489 168.515 394.078 172.366 397.256 175.382C400.434 178.398 404.501 179.906 409.454 179.906C414.629 179.904 419.684 178.324 424.615 175.162Z" fill="#58595B"/>
</svg>
