<svg width="480" height="320" viewBox="0 0 480 320" fill="none" xmlns="http://www.w3.org/2000/svg">
<path fill-rule="evenodd" clip-rule="evenodd" d="M416.792 175.389C415.066 172.727 394.086 139.387 394.086 139.387H365.442L348.692 167.812C350.814 155.992 337.179 154.386 330.078 153.161C324.107 152.134 320.853 152.494 317.325 151.401C312.394 149.875 313.49 145.493 319.592 145.493C328.777 145.493 336.693 144.944 347.375 152.576V139.387H307.462C301.594 139.387 284.924 138.958 284.924 152.811C284.924 164.074 299.704 167.067 305.818 167.719C314.623 168.658 318.262 168.071 318.262 171.123C318.262 172.291 318.683 174.069 314.507 174.996C311.621 175.638 300.537 175.231 290.325 172.415C281.999 170.117 280.071 163.059 279.644 157.73V139.387H263.795V141.307C263.795 141.307 263.795 141.422 266.261 141.658C268.724 141.892 270.839 143.653 270.839 146.705C270.839 149.759 271.073 153.748 271.073 164.314L245.6 139.387H217.309V166.076C217.309 170.182 215.9 173.118 211.793 173.118H180.802V162.091H194.694C202.05 162.091 201.581 163.813 202.832 166.865H204.163V154.882H180.802V147.528H200.877C209.563 147.528 208.741 150.932 211.09 155.628H212.731V139.387H161.199L161.164 139.455H137.604V142.479C142.77 142.479 147.034 145.531 145 149.29C144.824 149.612 144.577 150.044 144.27 150.563C141.509 155.236 133.97 167.014 131.691 170.563L131.775 170.211C125.419 160.151 112.352 139.387 112.352 139.387H83.7102L63.5342 173.621C59.8811 178.372 55.3848 177.862 55.3848 177.862V180.615H81.3621V177.578C77.919 177.578 72.4506 177.734 74.4847 173.979C75.0858 172.87 76.5574 170.115 78.3349 166.778H99.5914C100.78 168.795 108.141 180.573 108.141 180.573H138.661L156.445 153.666V172.354C156.445 178.576 153.802 176.522 149.578 177.462V180.552H233.391V177.462C233.391 177.462 226.818 178.753 226.818 174.29V152.576L253.349 180.552H342.679C342.679 180.552 342.848 180.643 343.155 180.552H363.093V177.578C359.652 177.578 354.184 177.734 356.217 173.979C356.817 172.87 358.29 170.115 360.069 166.778H381.323C382.512 168.795 383.665 170.723 384.705 172.415C389.702 180.552 392.158 180.552 395.494 180.552H424.616V177.57C420.545 177.57 418.512 178.05 416.792 175.389ZM82.8321 158.328C85.8841 152.588 88.5718 147.528 88.5718 147.528C88.5718 147.528 91.3047 152.424 94.6878 158.328H82.8321ZM364.567 158.328C367.616 152.588 370.304 147.528 370.304 147.528C370.304 147.528 373.038 152.424 376.421 158.328H364.567Z" fill="#09BDD5"/>
</svg>
