<svg width="480" height="320" viewBox="0 0 480 320" fill="none" xmlns="http://www.w3.org/2000/svg">
<path d="M403.98 148.75C413.354 135.622 416.004 131.434 422.869 121.007C423.911 119.423 425.188 117.059 424.337 114.867C423.562 112.863 421.524 112.339 420.653 112.116C403.674 107.76 372.166 102.657 365.401 101.92C332.393 97.1959 324.664 99.4581 323.214 104.308C320.797 112.405 335.127 120.632 358.606 133.122C358.402 142.932 359.321 151.123 361.347 157.464C363.617 164.574 367.156 169.003 371.864 170.626C377.584 172.601 387.315 171.001 401.252 152.572C402.199 151.321 403.069 150.027 403.98 148.75Z" fill="#2E4B9E"/>
<path d="M327.566 106.145C327.564 105.326 328.366 103.919 337.306 103.908C343.201 103.9 351.362 104.623 362.207 106.117C360.572 112.435 359.795 118.888 359.251 125.378C359.176 126.3 359.095 127.217 359.012 128.136C350.421 123.565 342.414 119.224 336.449 115.176C328.986 110.109 327.568 107.396 327.566 106.145Z" fill="#00B6DC"/>
<path d="M389.863 147.65C390.727 148.108 393.382 149.172 396.87 150.68C387.643 162.606 379.148 168.279 373.362 166.285C367.754 164.353 364.143 155.143 363.343 141.487C363.23 139.58 363.179 137.576 363.179 135.501C371.119 139.489 381.344 143.968 389.863 147.65Z" fill="#7DC243"/>
<path d="M420.085 116.68C419.83 117.123 419.621 117.574 419.025 118.491C412.092 129.1 409.598 132.915 399.671 146.886C397.698 146.03 395.723 145.183 393.755 144.324C384.255 140.229 372.038 134.922 363.409 130.459C363.577 128.98 363.726 127.403 363.886 125.763C364.498 119.366 365.152 112.954 366.807 106.729C376.107 107.97 404.857 112.771 420.085 116.68Z" fill="#8DD5EA"/>
<path d="M330.226 195.491C330.537 190.799 332.963 186.966 338.049 186.966C343.68 186.966 345.872 190.799 345.872 195.491H330.226ZM358.544 203.471V200.89C358.544 188.764 353.069 178.05 337.97 178.05C325.298 178.05 316.145 185.872 316.145 199.326C316.145 212.779 326.391 220.681 339.847 220.681C345.088 220.681 350.253 219.898 354.788 218.1V208.164C350.564 210.432 346.182 211.294 342.35 211.294C335.468 211.294 331.163 209.104 330.382 203.471H358.544ZM311.927 180.316C308.718 178.752 304.966 178.05 300.74 178.05C287.286 178.05 277.038 185.872 277.038 199.402C277.038 212.858 287.284 220.681 300.74 220.681C304.496 220.681 308.718 220.055 312.238 218.881L311.927 208.398C309.578 209.649 306.373 210.353 303.166 210.353C297.065 210.353 291.589 206.131 291.589 199.637C291.589 192.597 296.284 188.373 302.385 188.373C305.747 188.373 308.329 189.077 310.91 190.641L311.927 180.316ZM226.824 219.742H240.903V202.533C240.903 193.772 243.876 189.784 249.665 189.784C253.499 189.784 256.157 192.365 256.157 200.03V219.742H270.239V194.319C270.239 185.87 265.778 178.048 254.672 178.048C248.258 178.048 242.627 180.629 239.812 186.496H239.654V178.986H226.826V219.742H226.824ZM190.222 206.834C190.222 202.922 193.976 201.437 198.747 201.437C200.86 201.437 202.892 201.592 204.693 201.671C204.693 206.442 201.328 211.292 196.01 211.292C192.727 211.294 190.222 209.649 190.222 206.834ZM218.619 219.742C217.993 216.535 217.838 213.326 217.838 210.121V194.946C217.838 182.508 208.84 178.052 198.436 178.052C192.414 178.052 187.172 178.912 182.165 180.944L182.399 190.486C186.311 188.296 190.848 187.434 195.385 187.434C200.471 187.434 204.614 188.922 204.695 194.476C202.894 194.165 200.392 193.929 198.123 193.929C190.613 193.929 177.081 195.415 177.081 207.853C177.081 216.691 184.276 220.681 192.333 220.681C198.121 220.681 202.033 218.412 205.24 213.326H205.397C205.397 215.439 205.631 217.55 205.708 219.742H218.619ZM168.639 162.013H154.558V172.34H168.639V162.013ZM154.56 219.742H168.641V178.986H154.56V219.742ZM116.628 219.742H132.662L147.761 178.988H133.758L125.233 208.01H125.076L116.628 178.988H101.529L116.628 219.742ZM68.5252 206.834C68.5252 202.922 72.2791 201.437 77.0523 201.437C79.1633 201.437 81.1977 201.592 82.9959 201.671C82.9959 206.442 79.6315 211.292 74.3135 211.292C71.0299 211.294 68.5252 209.649 68.5252 206.834ZM96.9219 219.742C96.2962 216.535 96.1388 213.326 96.1388 210.121V194.946C96.1388 182.508 87.1435 178.052 76.7395 178.052C70.7171 178.052 65.4757 178.912 60.4684 180.944L60.7025 190.486C64.6139 188.296 69.1509 187.434 73.6879 187.434C78.7739 187.434 82.9193 188.922 82.9981 194.476C81.1977 194.165 78.6952 193.929 76.4267 193.929C68.9168 193.929 55.3845 195.415 55.3845 207.853C55.3845 216.691 62.5816 220.681 70.6362 220.681C76.4245 220.681 80.3359 218.412 83.5428 213.326H83.6982C83.6982 215.439 83.9323 217.55 84.011 219.742H96.9219Z" fill="#2E4B9E"/>
</svg>
