<svg width="480" height="320" viewBox="0 0 480 320" fill="none" xmlns="http://www.w3.org/2000/svg">
<path d="M160.384 186.268H148.864V143.817H160.384V182.178V186.268ZM154.628 139.117C150.946 139.117 148.07 136.27 148.07 132.645C148.07 129.11 151.007 126.239 154.628 126.239C158.355 126.239 161.269 129.05 161.269 132.645C161.269 136.213 158.296 139.116 154.628 139.116M274.893 187.148C268.388 187.148 262.975 184.903 259.246 180.654C255.849 176.792 253.968 171.323 253.968 165.268C253.968 159.034 256.178 153.342 260.218 149.231C264.234 145.122 269.827 142.863 275.939 142.863C280.733 142.863 284.605 143.915 288.294 145.985L287.904 155.478C284.91 153.218 281.098 151.927 277.172 151.927C270.405 151.927 265.493 157.315 265.493 164.734C265.493 170.694 268.525 177.648 277.084 177.648C281.186 177.648 284.701 175.986 287.117 174.582L290.138 182.776C287.072 184.874 280.991 187.148 274.893 187.148ZM110.253 186.269H98.0366L92.3416 171.799H72.4172L67.073 186.269H55.3846L78.2184 127.249H86.6184L110.253 186.269ZM76.0423 162.135H88.6433L84.2279 149.577C83.575 147.809 82.9963 146.014 82.4933 144.198C82.0901 145.705 81.502 147.381 80.7883 149.397L76.0423 162.135ZM145.385 143.817H133.856L123.597 171.331L113.509 143.817H101.894L117.401 181.647C118.573 184.586 120.351 186.272 123.717 186.272H127.724L145.385 143.817ZM180.175 187.148C171.882 187.148 166.088 181.461 166.088 173.324C166.088 164.753 172.599 159.62 183.936 159.236L190.811 158.992V158.423C190.811 153.05 186.648 151.924 183.161 151.924C179.685 151.924 176.304 152.968 172.558 155.222L168.654 147.749C173.277 144.674 179.111 142.863 185.527 142.863C196.952 142.863 202.51 147.953 202.51 158.423V177.833C202.51 181.567 202.832 184.078 203.486 186.274H196.836C194.002 186.274 192.9 185.138 192.056 182.878C188.668 185.744 184.773 187.148 180.175 187.148ZM190.811 167.271L185.366 167.432C178.419 167.641 177.62 170.448 177.62 172.532C177.62 175.846 179.952 177.824 183.86 177.824C186.603 177.824 188.946 177.027 190.811 175.463V167.271ZM306.693 187.148C298.404 187.148 292.6 181.461 292.6 173.324C292.6 164.753 299.11 159.62 310.457 159.236L317.328 158.992V158.423C317.328 153.05 313.165 151.924 309.682 151.924C306.201 151.924 302.821 152.968 299.075 155.222L295.175 147.749C299.788 144.674 305.631 142.863 312.048 142.863C323.473 142.863 329.031 147.953 329.031 158.423V177.833C329.031 181.567 329.354 184.078 330.003 186.274H323.353C320.519 186.274 319.417 185.138 318.573 182.878C315.185 185.744 311.29 187.148 306.692 187.148M317.328 167.271L311.882 167.432C304.936 167.641 304.137 170.448 304.137 172.532C304.137 175.846 306.465 177.824 310.377 177.824C313.129 177.824 315.457 177.027 317.328 175.463V167.271ZM248.847 186.268H237.317V161.405C237.317 155.517 235.569 152.889 231.677 152.889C228.647 152.889 225.37 154.235 221.655 157.019V186.268H210.135V143.817H214.543C217.9 143.817 219.998 145.105 220.951 147.734L221.011 147.957C225.91 144.434 230.331 142.863 235.263 142.863C241.83 142.863 248.845 146.907 248.845 158.252L248.847 186.268ZM407.745 185.041C406.327 180.652 401.856 177.236 386.135 176.051C388.648 178.965 391.289 181.743 394.063 184.351H402.046C405.356 184.351 406.811 184.629 407.745 185.041M347.422 139.682C346.69 156.695 355.804 173.836 385.847 176.022L386.144 176.049C370.882 158.322 360.597 135.624 356.47 116.726C356.47 116.726 348.089 124.118 347.422 139.68M394.062 184.351C382.227 184.351 361.788 184.356 361.788 184.356C362.211 185.361 363.698 186.065 367.061 186.265C387.213 187.459 390.07 203.275 418.909 203.275C421.448 203.275 423.027 203.128 424.615 202.827C413.223 199.323 402.977 192.732 394.062 184.351" fill="#DA291C"/>
</svg>
