<svg width="480" height="320" viewBox="0 0 480 320" fill="none" xmlns="http://www.w3.org/2000/svg">
<path d="M219.837 129.835L210.516 129.779L202.485 129.833L176.684 174.015L166.556 191.516L176.56 191.487L183.591 191.439L210.387 146.029L219.837 129.835ZM187.101 129.833L177.005 129.866L169.75 129.81L142.73 175.54V129.835L126.684 129.833L126.574 191.565L142.595 191.449C147.436 191.491 151.527 188.883 155.191 182.856L176.883 146.776L187.101 129.833V129.833ZM245.62 164.515L240.026 164.604L234.417 164.659L240.091 155.479L245.657 146.398L245.62 164.515ZM240.261 130.761C237.521 132.064 235.177 134.674 232.952 138.28L217.073 164.537L210.919 164.604L210.244 165.696L204.135 175.54L210.168 175.466H210.277L210.168 175.699L200.623 191.439L210.062 191.498L218.08 191.449L227.744 175.384L239.953 175.352L245.657 175.395V191.439H261.579L261.694 129.81L244.651 129.807C243.127 129.785 241.704 130.117 240.261 130.761ZM100.401 164.69L94.7848 164.752L89.1989 164.709L94.8567 155.53L100.424 146.445L100.401 164.69ZM95.0434 130.913C92.2911 132.22 89.9613 134.716 87.7207 138.447L71.8303 164.699L65.7 164.659L58.9083 175.59L65.0574 175.526L55.3848 191.486L72.8521 191.497L82.5359 175.43L94.7169 175.403L100.434 175.436V191.486L116.364 191.491L116.466 129.866L99.44 129.858C97.9051 129.835 96.4698 130.279 95.0434 130.912M293.97 177.721C291.675 177.715 289.797 177.365 288.49 176.586C287.069 175.808 286.08 174.482 285.546 172.717C285.021 170.95 285.021 168.661 285.493 165.795C285.955 162.955 286.842 159.655 288.207 155.711C288.77 154.159 289.547 152.639 290.434 151.118C291.432 149.581 292.426 148.159 293.544 146.95C294.633 145.643 295.753 144.676 296.874 143.919C297.945 143.161 299.06 142.712 299.93 142.729C304.665 142.634 309.413 142.689 314.219 142.712C316.008 139.656 317.89 136.478 319.785 133.42C320.899 131.441 322.11 129.478 323.232 127.515C322.132 127.515 320.935 127.487 319.83 127.593C313.994 127.565 308.184 127.515 302.34 127.576C301.481 127.696 300.475 127.884 299.381 128.106C298.283 128.313 297.179 128.537 296.088 128.975C294.984 129.269 293.771 129.719 292.536 130.14C291.29 130.706 290.085 131.361 288.931 132.098C283.391 135.471 278.744 140.255 275.086 145.824C271.314 151.298 268.749 157.455 267.491 163.465C266.351 169.505 266.528 175.321 268.472 180.29C270.416 185.123 274.021 189.105 279.722 191.247C280.59 191.582 281.358 191.807 282.23 191.924C283.116 192.161 283.983 192.252 284.979 192.361C285.955 192.381 286.943 192.493 288.031 192.504C294.314 192.653 300.678 192.493 306.935 192.537C309.055 188.825 311.171 185.105 313.169 181.382L315.272 177.646L309.909 177.618C304.643 177.694 299.357 177.646 293.97 177.721ZM408.645 164.471L403.03 164.563L397.434 164.619L403.122 155.322L408.657 146.253L408.644 164.471L408.645 164.471ZM403.269 130.727C400.529 132.025 398.218 134.635 395.991 138.239L380.076 164.485L373.821 164.451L368.715 172.888L367.044 175.384L368.68 175.402L373.2 175.43L368.634 183.11L363.64 191.405L368.576 191.332L381.089 191.311L390.779 175.351L402.974 175.322L408.579 175.25V191.391L424.592 191.291L424.615 129.778H407.683C406.155 129.765 404.603 130.08 403.27 130.727M361.787 176.661C367.407 161.348 364.014 158.343 352.657 153.48C346.107 151.079 337.767 150.111 338.56 145.731C338.77 142.302 343.072 142.955 343.44 142.955L348.826 142.891C354.316 142.811 359.689 142.738 365.188 142.786C366.415 140.593 367.644 138.4 368.982 136.226C370.642 133.262 372.195 130.42 373.872 127.478C372.236 127.57 370.685 127.549 369.035 127.549C361.118 127.478 364.385 127.443 356.599 127.493C350.357 127.493 340.972 126.804 333.557 130.017C329.098 131.951 325.862 135.373 323.013 140.946C312.287 161.963 332.418 166.2 334.807 167.058C338.057 168.212 345.76 168.781 345.604 172.807C345.603 176.246 342.458 177.652 339.676 177.652C332.644 177.652 326.496 177.652 319.478 177.722C318.299 177.706 317.119 177.699 315.94 177.7C315.94 177.7 317.156 190.454 331.302 191.978C346.654 193.628 354.916 188.779 361.787 176.661" fill="#1A3374"/>
</svg>
