<svg width="480" height="320" viewBox="0 0 480 320" fill="none" xmlns="http://www.w3.org/2000/svg">
<path fill-rule="evenodd" clip-rule="evenodd" d="M135.951 137.234C136.969 137.107 138.115 137.362 139.006 137.743C140.406 138.507 141.551 139.78 142.06 141.307C142.697 143.216 142.315 145.507 141.17 147.035C140.151 148.562 138.369 149.453 136.588 149.453C134.933 149.453 133.278 148.562 132.26 147.289C130.987 145.762 130.606 143.598 131.115 141.689C131.496 140.162 132.515 138.762 133.915 137.998C134.551 137.616 135.187 137.362 135.951 137.234ZM78.5492 141.689H93.3133C94.7134 150.089 96.2407 158.617 97.768 167.017C94.4588 167.017 91.1496 167.526 87.8404 168.035C83.6403 168.799 79.3129 169.69 75.1127 170.963C70.9126 172.108 66.5851 173.508 62.5123 175.036C60.3486 175.927 58.3121 176.69 56.2757 177.581C63.6578 165.617 71.1671 153.653 78.5492 141.689ZM83.8948 152.253C81.3493 157.09 78.8037 162.053 76.2582 166.89H85.4222C84.913 162.053 84.4039 157.09 84.0221 152.253H83.8948ZM392.924 148.435C403.488 149.58 414.052 150.853 424.616 152.126C415.706 157.853 406.669 163.581 397.633 169.054C399.415 165.108 401.197 161.035 403.106 157.09C399.669 154.162 396.36 151.235 392.924 148.435ZM153.77 151.871C156.188 151.744 158.479 151.871 160.77 152.38C163.061 152.889 165.352 153.78 167.007 155.435C168.025 156.453 168.789 157.471 169.425 158.617C170.189 160.017 170.698 161.417 170.825 162.944C171.589 159.635 172.352 156.453 172.989 153.144H183.935C183.425 155.053 183.044 156.962 182.535 158.871C182.662 158.871 182.662 158.871 182.662 158.999C183.807 157.344 184.953 155.944 186.353 154.671C187.626 153.526 189.153 152.762 190.935 152.508C192.589 152.253 194.371 152.635 196.026 153.271C194.499 156.199 193.099 158.999 191.699 161.799C190.553 161.671 189.535 161.544 188.389 161.671C187.371 161.799 186.226 162.053 185.335 162.69C184.062 163.453 183.171 164.599 182.535 165.999C181.516 167.781 181.007 169.817 180.498 171.726C179.734 175.163 178.971 178.727 178.207 182.163H166.625C167.261 179.363 167.77 176.69 168.407 174.017C167.643 175.29 166.752 176.436 165.607 177.454C164.461 178.472 163.061 179.363 161.661 180.127C160.261 180.763 158.734 181.272 157.206 181.654C155.297 182.036 153.515 182.163 151.606 182.036C149.315 182.036 147.024 181.781 144.988 181.145C143.333 180.508 141.806 179.745 140.533 178.599C139.388 177.454 138.369 176.181 137.733 174.781C137.224 173.763 136.842 172.617 136.715 171.472C135.951 174.908 135.187 178.472 134.297 182.036H122.714L128.06 158.362C122.842 166.253 117.751 174.145 112.659 182.036H102.35C100.441 172.363 98.5317 162.69 96.6225 153.144H107.441C108.077 159.253 108.587 165.363 109.223 171.472L109.35 171.345C112.659 165.235 115.969 159.253 119.278 153.144H140.788C140.279 155.308 139.897 157.471 139.388 159.508C140.279 158.235 141.424 156.962 142.57 155.944C143.97 154.799 145.497 153.908 147.152 153.271C149.188 152.508 151.479 151.998 153.77 151.871ZM154.024 159.38C153.388 159.508 152.752 159.635 152.115 160.017C151.479 160.271 150.843 160.781 150.333 161.417C149.824 162.053 149.315 162.817 149.061 163.581C148.17 165.49 147.661 167.526 147.788 169.563C147.788 170.708 148.17 171.726 148.806 172.49C149.315 173.254 149.952 173.89 150.843 174.272C151.733 174.654 152.879 174.781 153.897 174.526C154.788 174.399 155.679 173.89 156.315 173.381C157.334 172.363 158.097 171.217 158.734 169.944C159.497 168.163 159.879 166.126 159.752 164.09C159.752 163.199 159.625 162.181 159.116 161.29C158.734 160.653 157.97 160.144 157.206 159.762C156.188 159.38 155.17 159.253 154.024 159.38ZM100.568 166.635C101.332 167.399 102.095 168.035 102.859 168.672C102.477 169.69 101.968 170.708 101.586 171.599C103.623 170.326 105.659 168.926 107.696 167.526C105.277 167.272 102.986 167.017 100.568 166.635ZM93.6952 167.653C95.0952 167.526 96.368 167.399 97.768 167.399C97.8953 168.035 98.0226 168.544 98.0226 169.054C95.2225 169.435 92.2951 169.944 89.495 170.708C83.1312 172.235 76.8946 174.399 70.9126 176.817C67.0943 178.472 63.2759 180.127 59.7122 182.036C59.5849 182.036 59.5849 182.163 59.4576 182.163C58.0576 182.036 56.7848 182.163 55.3848 182.036C58.5667 180.381 61.7486 178.727 64.9305 177.199C68.8761 175.417 72.6944 173.763 76.7673 172.235C80.3311 170.835 84.1494 169.563 87.8404 168.672C89.7496 168.29 91.786 167.908 93.6952 167.653ZM96.2407 169.69C96.8771 169.563 97.5135 169.563 98.1499 169.563C98.2771 170.326 98.4044 171.217 98.659 171.981C96.2407 172.363 93.9497 172.745 91.6587 173.254C88.8586 173.89 86.0585 174.654 83.3857 175.545H78.931C81.8584 174.017 85.0403 172.745 88.2222 171.726C90.8951 170.835 93.5679 170.072 96.2407 169.69ZM93.6952 173.254C95.3498 172.872 97.0044 172.617 98.659 172.49C99.2954 175.672 99.8045 178.854 100.314 182.163H86.8222C86.6949 179.872 86.4404 177.708 86.1858 175.545C88.7314 174.654 91.1496 173.89 93.6952 173.254ZM66.3306 182.163C67.2215 181.527 68.1125 181.018 69.1307 180.508C68.7489 181.018 68.4943 181.527 68.2397 182.163C67.6034 182.036 66.967 182.163 66.3306 182.163Z" fill="#AD0D17"/>
<path fill-rule="evenodd" clip-rule="evenodd" d="M247.191 138.38C248.337 138.253 249.355 138.507 250.373 139.016C251.773 139.78 252.919 141.053 253.301 142.707C253.81 144.489 253.428 146.398 252.282 147.926C251.773 148.689 251.01 149.326 250.119 149.708C249.228 150.089 248.21 150.344 247.191 150.217C245.537 149.962 244.009 149.071 243.119 147.671C242.1 146.144 241.846 143.98 242.355 142.198C242.991 140.798 244.009 139.525 245.537 138.762C246.046 138.507 246.682 138.38 247.191 138.38ZM302.684 138.38C303.83 138.253 304.848 138.38 305.866 138.889C307.266 139.653 308.284 140.925 308.793 142.325C309.303 144.235 309.048 146.271 307.903 147.798C307.012 149.071 305.612 149.962 304.084 150.217C302.302 150.471 300.393 149.708 299.248 148.435C297.975 147.035 297.339 145.126 297.72 143.344C297.975 141.689 298.866 140.162 300.266 139.271C301.03 138.762 301.793 138.507 302.684 138.38ZM283.974 143.089H295.429L286.647 182.036C282.829 182.163 279.011 182.036 275.192 182.036L283.974 143.089ZM216.136 143.598H229.627C231.536 154.544 233.318 165.617 235.227 176.563C235.355 176.181 235.355 175.672 235.482 175.29C237.137 168.163 238.664 161.035 240.318 153.908H251.773C249.737 163.326 247.573 172.745 245.41 182.036C241.591 182.036 237.9 182.163 234.082 182.036H223.772C223.518 179.999 223.391 177.836 223.136 175.799H209.899C208.754 177.836 207.735 179.999 206.717 182.036H193.099C200.735 169.308 208.499 156.453 216.136 143.598ZM220.972 153.653C218.681 158.235 216.39 162.944 213.972 167.654H222.372C221.991 162.944 221.481 158.235 221.1 153.653H220.972ZM270.356 155.435C271.883 154.035 273.792 153.271 275.829 153.271C277.229 153.144 278.629 153.526 280.029 154.035C278.629 156.835 277.229 159.635 275.829 162.308C274.556 162.181 273.283 162.053 272.138 162.181C271.119 162.308 270.229 162.69 269.465 163.199C268.192 164.09 267.174 165.363 266.538 166.635C265.519 168.672 265.01 170.708 264.628 172.872C263.865 175.927 263.228 178.981 262.465 182.036C258.646 182.036 254.828 182.036 251.01 182.163C253.173 172.745 255.21 163.326 257.374 153.908H268.065C267.683 155.69 267.174 157.599 266.792 159.381L266.919 159.508C267.938 158.108 269.083 156.581 270.356 155.435ZM327.249 153.653C329.031 153.271 330.812 153.144 332.722 153.271C334.376 153.399 336.031 154.035 337.304 155.18C338.322 156.071 339.085 157.471 339.213 158.871C340.104 157.981 341.122 157.09 342.14 156.453C343.286 155.562 344.686 154.926 345.958 154.417C348.886 153.399 351.94 153.144 354.995 153.271C357.413 153.271 359.959 153.653 362.25 154.417C363.904 155.053 365.432 155.944 366.577 157.217C367.086 157.853 367.596 158.617 368.105 159.253C368.486 158.49 368.996 157.853 369.632 157.217C370.905 156.071 372.432 155.18 373.959 154.671C376.123 153.78 378.541 153.399 380.96 153.271C383.505 153.144 385.923 153.271 388.469 153.653C389.487 153.908 390.505 154.162 391.524 154.671C392.924 155.18 394.069 156.199 394.833 157.471C395.469 158.362 395.851 159.508 396.106 160.653C392.415 160.908 388.851 161.29 385.287 161.672C385.16 160.908 384.778 160.272 384.142 159.89C383.251 159.253 382.105 159.126 381.087 159.126C380.069 159.253 379.05 159.381 378.287 159.762C377.778 160.144 377.396 160.399 377.269 160.908C377.014 161.29 377.014 161.799 377.141 162.181C377.269 162.563 377.65 162.817 377.905 163.072C378.287 163.453 378.796 163.581 379.178 163.708C380.196 163.963 381.214 164.09 382.232 164.344C384.523 164.599 386.814 164.981 388.978 165.744C389.869 165.999 390.887 166.508 391.651 167.017C392.287 167.526 392.796 168.163 393.305 168.926C393.687 169.69 393.942 170.581 393.942 171.472C394.069 172.617 393.942 173.89 393.56 174.908C393.051 176.436 392.16 177.709 390.887 178.727C390.251 179.363 389.614 179.872 388.851 180.254C387.196 181.272 385.287 181.781 383.505 182.163C380.832 182.672 378.16 182.8 375.614 182.8C373.196 182.672 370.905 182.545 368.614 181.781C367.596 181.527 366.705 181.145 365.941 180.509C365.305 180.127 364.668 179.618 364.286 178.981C363.523 179.618 362.759 180.127 361.995 180.509C360.213 181.527 358.177 182.036 356.141 182.418C354.741 182.672 353.34 182.8 351.94 182.8C350.413 182.8 348.758 182.8 347.231 182.545C345.704 182.418 344.304 182.163 342.904 181.654C341.504 181.145 340.358 180.509 339.213 179.745C337.94 178.599 336.922 177.327 336.158 175.799C335.649 177.963 335.267 179.999 334.758 182.163C330.94 182.036 327.121 182.036 323.303 182.163C324.067 178.599 324.83 175.163 325.594 171.726C325.976 170.199 326.358 168.545 326.612 166.89C326.867 165.872 327.121 164.726 327.249 163.708C327.376 162.944 327.249 162.053 326.612 161.544C325.976 161.035 325.085 161.035 324.321 161.162C323.43 161.29 322.539 161.672 321.776 162.308C320.758 163.072 319.994 164.217 319.357 165.363C318.594 166.763 318.085 168.29 317.83 169.817C316.812 173.89 315.921 177.963 315.03 182.036C311.084 182.163 307.266 182.036 303.448 182.163C305.484 172.745 307.648 163.326 309.812 153.908H320.503C320.248 155.308 319.867 156.708 319.612 157.981C319.485 158.108 319.612 158.235 319.739 158.235C320.63 157.217 321.776 156.199 323.049 155.435C324.321 154.671 325.721 154.035 327.249 153.653ZM352.704 159.635C351.304 159.762 349.904 160.653 349.013 161.672C347.995 162.817 347.358 164.217 346.977 165.617C350.668 165.49 354.486 165.617 358.177 165.49C358.432 164.981 358.432 164.472 358.432 163.963C358.432 163.199 358.304 162.308 357.922 161.672C357.541 161.162 357.159 160.653 356.65 160.272C355.504 159.635 354.104 159.381 352.704 159.635ZM369.25 168.163C369.123 169.054 368.996 169.945 368.741 170.836H345.958C345.958 171.981 346.213 173.254 346.977 174.272C347.358 174.908 347.868 175.545 348.631 175.799C349.14 176.181 349.904 176.308 350.54 176.436C351.304 176.563 352.195 176.436 352.959 176.308C354.359 176.054 355.504 175.29 356.395 174.272L356.777 173.89C358.559 174.017 360.468 174.145 362.377 174.399C362.377 174.272 362.504 174.272 362.632 174.272C366.323 174.017 370.014 173.636 373.705 173.381C373.832 174.145 374.214 174.908 374.723 175.418C375.232 176.054 376.123 176.436 377.014 176.69C378.032 176.945 379.178 176.818 380.323 176.563C381.214 176.308 381.978 176.054 382.614 175.418C383.251 174.781 383.378 173.89 383.123 173.127C382.996 172.617 382.741 172.363 382.232 172.108C381.851 171.854 381.341 171.854 380.96 171.726C379.814 171.472 378.669 171.217 377.396 171.09C375.487 170.708 373.45 170.326 371.541 169.563C370.777 169.181 369.886 168.799 369.25 168.163ZM295.939 153.908H307.521C306.63 157.726 305.739 161.544 304.848 165.49C303.575 170.963 302.302 176.563 301.157 182.163C297.211 182.163 293.393 182.036 289.575 182.163C291.738 172.745 293.775 163.326 295.939 153.908Z" fill="#5B5B5E"/>
</svg>
