<svg width="480" height="320" viewBox="0 0 480 320" fill="none" xmlns="http://www.w3.org/2000/svg">
<path d="M284.597 136.574C278.531 154.941 261.212 168.242 240.837 168.242C215.429 168.242 194.757 147.57 194.757 122.161C194.757 96.7532 215.429 76.08 240.837 76.08C248.573 76.08 255.866 78.0059 262.272 81.3881L263.924 79.9382C256.85 76.0513 248.908 74.0176 240.837 74.0264C214.296 74.0264 192.705 95.618 192.705 122.161C192.705 148.702 214.294 170.292 240.837 170.292C262.397 170.292 280.692 156.044 286.799 136.465L284.597 136.574Z" fill="#003366"/>
<path d="M209.997 136.995C237.787 134.435 265.319 130.178 292.46 123.34C292.039 125.217 291.62 127.088 291.198 128.965C256.481 136.88 232.26 137.607 209.997 136.995Z" fill="#00B2E2"/>
<path d="M214.418 134.233C240.445 130.145 267.093 123.668 294.461 114.41C294.031 116.33 293.602 118.249 293.173 120.169C262.816 129.713 236.93 133.974 214.419 134.233" fill="#00B2E2"/>
<path d="M218.657 131.301C244.183 124.937 270.175 116.027 296.485 105.363C296.056 107.294 295.623 109.224 295.191 111.157C267.319 122.101 241.537 129.304 218.657 131.301Z" fill="#57C8E7"/>
<path d="M222.885 127.83C248.622 120.01 273.938 108.244 298.993 94.1484C298.465 96.5178 297.935 98.8862 297.406 101.256C267.396 116.157 241.971 125.699 222.885 127.83Z" fill="#98DAE9"/>
<path d="M228.362 124.16C257.268 110.182 280.767 95.6991 301.939 80.9951L300.187 88.8226C276.182 104.149 252.222 116.843 228.362 124.16Z" fill="#57C8E7"/>
<path d="M232.574 119.618C260.996 101.651 285.65 83.3743 305.584 64.7075C304.874 67.8944 304.158 71.0869 303.445 74.271C279.864 94.6183 255.731 108.631 232.574 119.618ZM307.211 53.333C304.527 53.4071 301.85 53.4728 299.167 53.5413C289.226 65.6945 279.202 76.2089 269.124 85.8122C258.203 96.2154 247.228 105.546 236.243 114.726C260.305 98.4894 284.18 80.305 307.211 53.333ZM90.5625 256.487H156.069V258.214H90.5625V256.487ZM323.441 256.487H389.438V258.214H323.441V256.487Z" fill="#00B2E2"/>
<path d="M107.147 207.664L99.4139 223.085H114.835L107.147 207.664ZM97.9436 226.17L93.9799 233.906C93.0975 235.718 89.8671 234.444 90.7485 232.487L105.533 203.355C105.828 202.715 106.51 202.422 107.147 202.422C107.784 202.422 108.372 202.715 108.715 203.355L123.453 232.34C124.727 234.442 121.104 235.667 120.175 233.758L116.353 226.166H97.9436V226.17ZM132.416 231.274H153.325C155.625 231.274 155.674 234.629 153.325 234.778H129.136C127.228 234.778 126.64 233.207 127.717 231.835L149.655 205.778H129.825C127.671 205.778 127.619 202.576 129.825 202.424H153.129C155.138 202.424 155.676 203.999 154.549 205.472L132.416 231.274ZM163.657 231.42H182.999C185.054 231.42 185.348 234.775 182.999 234.775H162.381C161.01 234.775 160.129 233.761 160.129 232.541V204.612C160.129 203.44 161.011 202.422 162.381 202.422H183.046C185.151 202.422 185.053 205.677 183 205.677H163.66V217.128H182.072C184.03 217.128 184.128 220.38 182.072 220.38H163.661L163.657 231.42ZM194.995 220.038H204.889C211.303 220.038 214.092 216.976 213.995 213.215C213.949 209.095 210.567 205.787 204.889 205.787H194.995V220.038ZM194.995 223.198V232.931C194.995 235.241 191.423 235.241 191.423 232.986V204.182C191.423 203.129 192.155 202.425 193.233 202.425H204.838C213.309 202.425 217.618 207.345 217.618 213.217C217.618 218.281 214.924 221.945 208.902 222.996L216.837 231.779C218.696 233.686 216.003 235.894 214.387 234.186L204.497 223.2H194.995V223.198ZM227.219 231.473H238.188C242.496 231.473 247.245 230.299 247.245 225.165C247.245 221.145 243.916 219.418 239.656 219.418H227.219V231.473ZM227.219 205.731V216.105H237.206C241.417 216.105 245.089 214.94 245.089 211.223C245.089 206.848 240.095 205.731 237.062 205.731H227.219ZM238.188 234.776H225.455C224.48 234.776 223.645 233.964 223.645 232.945V204.252C223.645 203.237 224.478 202.422 225.455 202.422H237.062C241.613 202.422 248.666 204.001 248.666 211.223C248.666 213.869 247.441 216.211 244.894 217.277C248.468 218.451 250.918 221.045 250.918 225.165C250.918 232.742 244.357 234.776 238.188 234.776ZM270.016 207.664L262.282 223.085H277.705L270.016 207.664ZM260.81 226.17L256.846 233.906C255.964 235.718 252.732 234.444 253.615 232.487L268.401 203.355C268.695 202.715 269.379 202.422 270.016 202.422C270.653 202.422 271.238 202.715 271.583 203.355L286.323 232.34C287.597 234.442 283.974 235.667 283.043 233.758L279.222 226.166H260.81V226.17ZM291.024 204.212C291.024 201.794 294.694 201.843 294.694 204.212V233.107C294.694 235.33 291.024 235.424 291.024 233.107V204.212ZM318.883 205.716H309.481C307.036 205.716 307.036 202.422 309.481 202.422H320.5C321.379 202.422 322.166 203.174 322.264 204.073V223.192C322.31 229.93 316.092 234.821 309.631 234.821C303.411 234.821 298.369 230.329 298.026 224.339C297.878 222.041 301.453 221.593 301.649 224.284C301.942 228.828 305.515 231.476 309.63 231.476C314.38 231.476 318.883 227.929 318.883 223.189V205.716ZM341.752 207.664L334.018 223.085H349.438L341.752 207.664ZM332.545 226.17L328.582 233.906C327.702 235.718 324.468 234.444 325.353 232.487L340.137 203.355C340.43 202.715 341.115 202.422 341.752 202.422C342.389 202.422 342.977 202.715 343.319 203.355L358.059 232.34C359.333 234.442 355.707 235.667 354.779 233.758L350.959 226.166H332.545V226.17ZM385.188 204.15C385.188 202.074 388.912 201.976 388.912 204.15V232.512C388.912 234.986 385.53 235.229 384.504 233.496L366.192 208.745L366.582 215.565V233.004C366.582 235.427 362.859 235.479 362.859 233.004V204.695C362.859 202.223 365.6 201.826 366.825 203.658L385.676 229.104L385.185 221.642V204.151L385.188 204.15ZM178.236 247.617L172.884 258.404H183.555L178.236 247.617ZM171.864 260.561L169.121 265.97C168.51 267.238 166.277 266.35 166.887 264.978L177.117 244.606C177.321 244.158 177.793 243.95 178.236 243.95C178.461 243.945 178.682 244.005 178.874 244.121C179.066 244.237 179.221 244.405 179.322 244.606L189.519 264.877C190.401 266.352 187.893 267.205 187.249 265.87L184.606 260.561H171.864ZM192.765 245.209C192.765 243.514 195.306 243.545 195.306 245.209V265.471C195.306 267.031 192.765 267.097 192.765 265.471V245.209ZM202.93 256.269H209.772C214.213 256.269 216.143 254.131 216.075 251.5C216.038 248.616 213.703 246.304 209.771 246.304H202.929L202.93 256.269ZM202.93 258.479V265.287C202.93 266.901 200.455 266.901 200.455 265.324V245.179C200.455 244.442 200.964 243.95 201.709 243.95H209.737C215.6 243.95 218.584 247.389 218.584 251.5C218.584 255.043 216.716 257.605 212.55 258.343L218.04 264.484C219.325 265.819 217.466 267.36 216.344 266.169L209.5 258.481L202.93 258.479ZM223.999 266.58C223.083 266.58 222.713 266.127 222.713 265.282V245.167C222.713 243.516 225.22 243.516 225.22 245.167V264.268H237.892C239.622 264.268 239.622 266.58 237.892 266.58H223.999ZM241.988 245.209C241.988 243.514 244.529 243.545 244.529 245.209V265.471C244.529 267.031 241.988 267.097 241.988 265.471V245.209ZM264.957 245.066C264.957 243.609 267.531 243.536 267.531 245.066V264.99C267.531 266.725 265.197 266.897 264.482 265.684L251.812 248.288L252.079 253.08V265.334C252.079 267.037 249.504 267.071 249.504 265.334V245.444C249.504 243.71 251.402 243.43 252.25 244.714L265.295 262.595L264.954 257.35V245.067L264.957 245.066ZM275.525 264.231H288.908C290.332 264.231 290.534 266.58 288.908 266.58H274.643C273.695 266.58 273.088 265.87 273.088 265.015V245.451C273.088 244.633 273.695 243.918 274.643 243.918H288.943C290.4 243.918 290.332 246.199 288.906 246.199H275.522V254.217H288.261C289.616 254.217 289.684 256.497 288.261 256.497H275.522L275.525 264.231ZM295.41 260.691C296.29 263.515 300.052 264.13 302.762 264.13C305.642 264.13 310.113 263.246 310.113 259.804C310.113 256.843 306.556 256.597 302.827 256.294C298.153 255.919 293.139 255.481 293.139 250.402C293.139 245.907 298.29 243.901 302.421 243.901C305.978 243.901 310.42 244.75 311.843 248.634C312.35 249.995 310.046 250.61 309.54 249.452C308.521 246.862 304.895 246.422 302.455 246.422C300.187 246.422 295.782 247.34 295.782 250.439C295.782 253.404 299.17 253.709 303.1 254.019C307.742 254.423 312.722 254.667 312.722 259.775C312.722 264.986 306.928 266.583 302.762 266.583C299.307 266.583 294.021 265.395 292.904 261.306C292.494 259.804 295.138 259.295 295.41 260.691Z" fill="#003366"/>
</svg>
