<svg width="480" height="320" viewBox="0 0 480 320" fill="none" xmlns="http://www.w3.org/2000/svg">
<path d="M162.84 169.345C167.213 167.082 169.024 164.134 169.024 160.509C169.024 155.45 165.287 152.401 159.251 152.401L152.121 152.403C146.62 152.403 143.52 154.74 143.52 160.196V182.767C143.52 183.478 143.633 183.587 144.359 183.587H148.137C148.872 183.587 148.985 183.478 148.985 182.767L148.98 174.514H145.781C145.489 174.514 145.276 174.386 145.242 174.135C145.198 173.888 145.357 173.659 145.613 173.622L148.967 173.185C152.397 172.677 155.314 172.053 157.777 171.32L164.183 182.863C164.374 183.221 164.525 183.586 164.935 183.586H169.959C170.257 183.586 170.411 183.402 170.411 183.15C170.411 183.076 170.411 182.965 170.33 182.862L162.84 169.345ZM148.976 160.426C149.013 158.154 149.609 157.191 152.341 157.191H159.019C162.179 157.191 163.566 158.476 163.566 160.663C163.566 163.276 162.197 166.56 148.976 168.693M213.931 164.662C208.303 163.189 207.39 162.224 207.39 160.315C207.39 158.472 209.188 157.183 211.379 157.183L222.906 157.178C223.24 157.178 223.515 156.915 223.515 156.589V152.985C223.515 152.659 223.241 152.399 222.906 152.399L211.679 152.403C205.812 152.403 201.943 156.055 201.943 160.574C201.943 166.206 206.731 167.934 213.057 169.601C218.711 171.093 220.882 172.306 220.882 174.844C220.882 177.12 218.604 178.794 215.883 178.794H203.427C203.084 178.794 202.814 179.066 202.814 179.387V182.994C202.814 183.32 203.093 183.585 203.427 183.585H215.617C221.545 183.585 226.343 179.555 226.343 174.593C226.343 168.623 221.73 166.704 213.931 164.663M109.462 158.283C109.462 154.787 107.065 152.398 101.837 152.398H87.8576C87.4165 152.398 87.0556 152.751 87.0556 153.179V156.4C87.0556 156.837 87.4164 157.178 87.8576 157.178H102.091C102.93 157.178 103.669 157.479 103.669 158.398C103.669 161.282 84.8297 167.871 84.8297 177.472C84.8297 180.831 87.0143 183.587 92.8202 183.587H108.66C109.101 183.587 109.462 183.234 109.462 182.806V179.574C109.462 179.142 109.101 178.794 108.66 178.794H92.4203C91.7507 178.794 90.7834 178.113 90.7834 177.027C90.7834 170.527 109.462 165.799 109.462 158.283M70.8398 152.398H58.1801C57.8411 152.398 57.5715 152.663 57.5715 152.994V156.594C57.5715 156.92 57.841 157.19 58.1801 157.19H70.8311C73.8873 157.196 75.6219 158.527 75.8654 161.472H79.0891C79.3803 161.472 79.5869 161.6 79.626 161.848C79.6716 162.098 79.513 162.324 79.2565 162.359L75.9002 162.8C61.2147 164.974 55.3848 169.217 55.3848 175.473C55.3848 180.537 59.1213 183.585 65.1534 183.585H72.7483C78.25 183.585 81.3497 181.242 81.3497 175.79V162.028C81.3497 156.246 77.8023 152.399 70.8398 152.399M75.8916 175.557C75.8571 177.829 75.2546 178.79 72.5267 178.794H65.386C62.2211 178.794 60.843 177.505 60.843 175.318C60.843 172.712 62.671 169.43 75.8916 167.291M128.656 152.398H123.468C116.501 152.398 112.951 156.246 112.951 162.028V173.955C112.951 179.737 116.501 183.585 123.468 183.585H128.656C135.621 183.585 139.17 179.737 139.17 173.955V162.028C139.17 156.246 135.621 152.399 128.656 152.399M133.712 167.291V173.99C133.712 176.959 132.073 178.794 128.652 178.794H123.468C120.05 178.794 118.407 176.959 118.407 173.99V161.998C118.407 159.024 120.05 157.189 123.468 157.189H128.652C132.073 157.189 133.712 159.024 133.712 161.998M198.952 160.506C198.952 155.45 195.217 152.398 189.185 152.398H183.501C176.53 152.398 172.98 156.246 172.98 162.028V173.955C172.98 179.737 176.53 183.585 183.501 183.585H196.152C196.486 183.585 196.761 183.315 196.761 182.989V179.385C196.761 179.063 196.487 178.794 196.152 178.794H183.501C180.451 178.788 178.71 177.457 178.473 174.512C178.473 174.512 178.436 174.007 178.436 173.423V173.184C193.12 171.006 198.952 166.765 198.952 160.506M178.436 166.015H178.445V161.998C178.445 159.024 180.079 157.189 183.501 157.189H188.946C192.111 157.189 193.493 158.476 193.493 160.661C193.493 163.276 191.661 166.558 178.436 168.693M272.653 166.615L271.288 162.491L274.436 162.107" fill="#002754"/>
<path d="M256.557 161.709L259.911 160.315L271.288 162.491L272.653 166.615" fill="#4FC6E0"/>
<path d="M237.426 136.183L234.477 141L243.08 145.204" fill="#002754"/>
<path d="M232.509 149.636L234.476 141L243.08 145.202" fill="#4FC6E0"/>
<path d="M256.557 175.729L267.956 171.982L272.653 166.615L256.557 161.711" fill="#008ABF"/>
<path d="M247.502 175.729L239.035 183.587H252.347L256.557 175.729V161.711" fill="#002754"/>
<path d="M247.501 175.729L246.142 170.82L256.557 161.71M232.509 149.636L243.08 145.201L255.163 157.178H234.25" fill="#008ABF"/>
<path d="M255.163 157.179H234.25L246.142 170.821L256.557 161.709" fill="#4FC6E0"/>
<path d="M375.037 182.237V164.393C375.037 155.418 369.429 154.522 365.651 154.522H362.673C358.897 154.522 353.289 155.418 353.289 164.393V182.237C353.289 182.898 353.776 183.576 354.563 183.576H355.098C355.885 183.576 356.371 182.898 356.371 182.237V164.393C356.371 158.122 359.25 157.407 362.675 157.407H365.651C369.075 157.407 371.955 158.122 371.955 164.393V182.237C371.955 182.898 372.442 183.576 373.229 183.576H373.763C374.55 183.576 375.037 182.898 375.037 182.237M346.898 150.37V146.54C346.898 145.827 346.253 145.201 345.518 145.201H345.197C344.462 145.201 343.814 145.827 343.814 146.54V150.37C343.814 151.146 344.473 151.709 345.197 151.709H345.518C346.242 151.709 346.898 151.146 346.898 150.37ZM346.898 182.237V156.12C346.898 155.407 346.253 154.781 345.518 154.781H345.197C344.462 154.781 343.814 155.407 343.814 156.12L343.816 182.237C343.816 182.952 344.462 183.576 345.197 183.576H345.518C346.253 183.576 346.898 182.952 346.898 182.237M310.356 150.37V146.543C310.356 145.83 309.713 145.204 308.976 145.204H308.656C307.919 145.204 307.271 145.83 307.271 146.543V150.37C307.271 151.149 307.932 151.707 308.656 151.707H308.976C309.7 151.707 310.356 151.148 310.356 150.37M310.356 182.239V156.118C310.356 155.405 309.713 154.781 308.976 154.781H308.656C307.919 154.781 307.271 155.405 307.271 156.118V182.239C307.271 182.952 307.919 183.578 308.656 183.578H308.976C309.713 183.578 310.356 182.952 310.356 182.239ZM300.972 181.048V164.393C300.972 158.693 299.016 154.52 291.534 154.52C287.993 154.52 286.163 154.729 283.913 154.989C283.081 155.096 282.361 155.409 282.361 156.274V156.583C282.361 157.559 283.322 157.77 283.991 157.715C286.487 157.459 288.032 157.25 291.534 157.25C296.447 157.25 297.888 159.148 297.888 164.393V165.899H294.149C284.393 165.899 280.6 168.469 280.603 174.222V174.894C280.603 180.78 283.496 183.576 291.749 183.576C294.453 183.576 297.307 183.159 299.899 182.478C300.744 182.272 300.972 181.785 300.972 181.048M297.888 180.287C296.675 180.502 294.166 180.846 291.749 180.846C284.972 180.846 283.739 178.846 283.739 174.894V174.223C283.739 170.177 286.085 168.68 294.149 168.68H297.888M337.404 182.237V146.54C337.404 145.879 336.917 145.201 336.128 145.201H335.595C334.809 145.201 334.319 145.879 334.319 146.54V182.237C334.322 182.898 334.809 183.576 335.595 183.576H336.13C336.919 183.576 337.404 182.898 337.404 182.237M328.561 154.679C327.857 154.574 326.081 154.52 324.457 154.52C319.621 154.52 316.78 156.127 316.78 161.498V182.239C316.78 182.939 317.36 183.576 318.162 183.576H318.588C319.351 183.576 319.919 182.926 319.919 182.239L319.917 161.498C319.917 157.759 321.034 157.25 324.457 157.25H328.514C329.348 157.25 330.003 157.018 330.003 156.222V155.859C330.003 155.205 329.64 154.794 328.561 154.679M401.895 168.584V167.186C401.891 159.732 398.554 154.522 390.909 154.522C383.591 154.522 379.761 159.982 379.761 167.24V170.651C379.761 180.652 385.349 183.576 392.135 183.576C394.559 183.576 397.631 183.213 400.213 182.691C401.132 182.511 401.519 182.141 401.519 181.359V180.996C401.519 180.218 400.911 179.915 400.352 179.915C400.27 179.915 400.184 179.928 399.958 179.977C397.369 180.49 394.459 180.849 392.135 180.849C386.973 180.849 382.847 179.118 382.847 170.654V169.926H400.513C401.239 169.926 401.895 169.365 401.895 168.587M390.909 157.253C396.62 157.253 398.798 160.737 398.809 167.143H382.847C382.872 161.131 385.316 157.253 390.909 157.253ZM424.615 176.203C424.615 181.185 421.259 183.817 414.903 183.817C412.399 183.817 408.877 183.439 406.919 183.067C406.188 182.919 405.517 182.683 405.517 181.985V181.404C405.517 180.787 405.936 180.42 406.641 180.42H406.967C409.386 180.811 412.705 181.27 415.014 181.27C419.709 181.27 421.713 179.752 421.713 176.203C421.713 174.146 420.6 173.053 416.04 170.634L412.54 168.775C408.588 166.682 405.788 164.899 405.788 161.035C405.788 156.737 408.932 154.27 414.409 154.27C418.133 154.27 420.152 154.505 421.935 154.711L422.261 154.748C423.454 154.911 423.63 155.531 423.63 155.885V156.311C423.63 157.015 423.213 157.4 422.452 157.402H422.233L421.626 157.332C419.994 157.141 417.266 156.817 414.627 156.817C411.064 156.817 408.691 157.53 408.691 161.032C408.691 163.164 410.362 164.443 413.871 166.342L417.538 168.303C421.681 170.527 424.615 172.398 424.615 176.2" fill="#008ABF"/>
</svg>
