<svg width="480" height="320" viewBox="0 0 480 320" fill="none" xmlns="http://www.w3.org/2000/svg">
<path d="M271.714 143.752H250.852V177.844C250.852 189.127 243.981 192.072 239.437 192.072C232.815 192.072 229.129 189.127 229.129 180.663V143.752H208.268V182.01C208.268 198.687 213.548 209.232 231.837 209.232C239.191 209.232 247.295 205.192 251.221 198.697H251.468V207.404H271.714V143.752Z" fill="#8CD0E0"/>
<path d="M276.616 207.389H297.477V119.845H276.616V207.383V207.389ZM145.569 207.389H206.185V191.451H172.08L203.865 159.568V143.752H148.142V159.691H177.342L145.579 191.208V207.392L145.569 207.389ZM55.3848 207.389H78.8217L84.3417 191.697H114.905L120.302 207.389H144.108L111.339 119.851H88.154L55.3848 207.383L55.3848 207.389ZM99.5571 144.122H99.8032L109.496 174.777H89.6186L99.5571 144.122Z" fill="#002E5F"/>
<path d="M387.985 119.875H393.689V124.367H387.979L387.985 119.875Z" fill="#5061AA"/>
<path d="M366.954 168.017H384.416V186.632H366.954V168.017Z" fill="#8B328A"/>
<path d="M378.437 190.614H389.913V197.568H378.437V190.614Z" fill="#5D80C0"/>
<path d="M371.631 193.863H385.425V207.519H371.634L371.631 193.863Z" fill="#E94E29"/>
<path d="M388.717 181.466H400.526V186.635H388.723L388.717 181.466Z" fill="#D5262A"/>
<path d="M384.4 172.054H396.508V175.115H384.4V172.054Z" fill="#F6A022"/>
<path d="M400.511 181.466H408.972V183.795H400.511V181.466Z" fill="#6A95CD"/>
<path d="M384.4 157.229H395.97V172.06H384.4V157.229Z" fill="#306FB6"/>
<path d="M361.803 145.856H384.418V168.02H361.803V145.856Z" fill="#73C8DD"/>
<path d="M348.646 145.863H363.748V158.122H348.646V145.863Z" fill="#92C143"/>
<path d="M368.24 125.106H393.828V146.02H368.24V125.106Z" fill="#5061AA"/>
<path d="M395.947 148.57H414.593V171.33H395.947V148.57Z" fill="#169BD6"/>
<path d="M393.016 161.524H408.976V181.524H393.013L393.016 161.524Z" fill="#F6A022"/>
<path d="M384.4 175.069H396.21V186.617H384.4V175.069Z" fill="#D5262A"/>
<path d="M377.498 182.321H392.735V190.691H377.492L377.498 182.321Z" fill="#199AA6"/>
<path d="M408.954 169.303H412.216V179.324H408.954V169.303Z" fill="#A5BFDF"/>
<path d="M414.585 147.866H423.117V153.14H414.588L414.585 147.866Z" fill="#3FB7AF"/>
<path d="M413.794 153.137H419.948V156.567H413.794V153.137Z" fill="#AE2258"/>
<path d="M384.4 136.968H395.97V157.257H384.4V136.968Z" fill="#79C199"/>
<path d="M395.947 128.799H411.51V148.568H395.953L395.947 128.799Z" fill="#E5DF1F"/>
<path d="M393.81 125.106H405.154V143.642H393.81V125.106Z" fill="#33BACF"/>
<path d="M409.139 143.128H424.616V148.574H409.139V143.128Z" fill="#6CA9DB"/>
<path d="M411.526 131.189H418.917V143.134H411.526V131.189Z" fill="#DE5097"/>
<path d="M416.698 134.946H423.554V139.956H416.698V134.946Z" fill="#604596"/>
<path d="M414.938 139.958H424.615V144.964H414.938V139.958Z" fill="#FAD803"/>
<path d="M387.939 119.66H393.754V124.368H387.939V119.66ZM368.24 119.805H378.794V131.506H368.24V119.805Z" fill="#5061AA"/>
<path d="M335.64 119.805H368.286V146.02H335.64V119.805Z" fill="#0BB8E7"/>
<path d="M352.385 110.768H363.745V125.552H352.385V110.768Z" fill="#41AD4C"/>
<path d="M328.77 143.783H349.846V151.999H328.77V143.783Z" fill="#E7B720"/>
<path d="M378.77 112.109H386.954V125.106H378.77V112.109Z" fill="#B9CF37"/>
<path d="M389.699 161.524H393.013V164.829H389.689L389.699 161.524Z" fill="#92C143"/>
</svg>
