<svg width="480" height="320" viewBox="0 0 480 320" fill="none" xmlns="http://www.w3.org/2000/svg">
<path d="M106.664 130.377H92.9567L62.6543 188.589H76.988C76.988 188.589 82.9477 176.889 84.2456 174.377H101.271C101.64 177.863 102.739 188.589 102.739 188.589H116.383L109.241 130.377H106.664Z" fill="#1A65AA"/>
<path d="M106.664 132.561H94.2865L66.2656 186.403H75.6579C75.6579 186.403 82.5057 172.942 82.8924 172.193H103.24C103.364 173.384 104.717 186.403 104.717 186.403H113.899L107.313 132.561L106.664 132.561ZM100.684 134.022H106.015C106.162 135.251 112.067 183.383 112.255 184.948H106.036C105.912 183.755 104.57 170.734 104.57 170.734H82.0039C82.0039 170.734 75.1357 184.199 74.7579 184.948H68.6742C69.7213 182.916 94.7801 134.775 95.1664 134.022H100.684Z" fill="white"/>
<path d="M75.5533 157.571L72.9688 158.985L105.071 169.933C105.071 169.933 92.1396 159.057 90.2849 157.602C91.8889 155.858 103.828 142.178 103.828 142.178L75.5533 157.571Z" fill="white"/>
<path d="M76.1826 158.728L99.0201 146.183L88.3382 157.753L100.716 167.507L76.1826 158.728Z" fill="#D81B18"/>
<path d="M120.037 176.031L152.319 142.843L154.13 141.011H127.136L127.889 137.136L128.59 133.262H163.555L162.623 138.053L161.734 142.843L129.461 176.043L126.862 178.629H154.465L153.807 182.135L153.147 185.644H118.234L119.114 180.843L120.037 176.031Z" fill="#1A65AA"/>
<path d="M163.554 130.345H126.161L125.019 136.606L123.608 143.915H147.21C142.234 149.041 117.343 174.629 117.343 174.629L116.255 180.293L114.727 188.56H155.566L157.984 175.717H133.837C144.036 165.225 154.235 154.733 164.434 144.24L165.492 138.586L167.073 130.345L163.554 130.345ZM160.015 136.172C159.911 136.7 159.669 137.968 159.649 138.089H130.664C130.664 138.015 130.886 136.894 131.022 136.172H160.015ZM154.404 144.879C154.404 144.879 157.88 141.351 159.313 139.89C159.169 140.671 159.115 140.984 159.022 141.451C157.837 142.665 127.355 174.012 127.355 174.012C127.355 174.012 123.628 177.739 122.454 178.906C122.601 178.173 122.665 177.869 122.737 177.445C123.899 176.242 154.404 144.879 154.404 144.879V144.879ZM126.862 181.544H150.96C150.96 181.544 150.813 182.23 150.717 182.728H121.733C121.81 182.334 121.883 181.939 121.952 181.544H126.862H126.862ZM162.614 176.031L194.895 142.842L196.707 141.011H169.692L170.445 137.135L171.169 133.261H206.11L205.187 138.052L204.299 142.842L172.026 176.043L169.43 178.629H197.03L196.372 182.135L195.714 185.644H160.802L161.691 180.843L162.614 176.031Z" fill="#1A65AA"/>
<path d="M206.11 130.345H168.737L167.586 136.606L166.173 143.915H189.786C184.79 149.041 159.91 174.629 159.91 174.629L158.823 180.293L157.291 188.56H198.131L200.548 175.717H176.401C180.414 171.602 206.998 144.24 206.998 144.24L208.057 138.586L209.629 130.345L206.11 130.345ZM202.582 136.172C202.475 136.7 202.236 137.968 202.216 138.089H173.228C173.251 138.015 173.45 136.894 173.598 136.172H202.582ZM196.969 144.879C196.969 144.879 200.445 141.351 201.881 139.89C201.791 140.412 201.693 140.932 201.587 141.451C200.413 142.665 169.931 174.012 169.931 174.012C169.931 174.012 166.193 177.739 165.03 178.906C165.166 178.173 165.229 177.869 165.301 177.445C166.476 176.242 196.969 144.879 196.969 144.879V144.879ZM169.429 181.544H193.513C193.513 181.544 193.398 182.23 193.302 182.728H164.309C164.393 182.252 164.508 181.623 164.52 181.544H169.429H169.429ZM246.52 167.089C245.366 173.24 242.845 178.058 238.968 181.544C235.137 185.005 230.372 186.739 224.667 186.739C218.52 186.739 214.028 184.993 211.167 181.507C209.176 179.067 208.195 175.957 208.195 172.147C208.195 170.575 208.36 168.89 208.706 167.089L215.116 133.261H222.466L215.837 168.251C215.586 169.465 215.482 170.592 215.502 171.644C215.482 173.849 216.016 175.623 217.115 176.937C218.663 178.859 221.367 179.811 225.22 179.811C228.76 179.811 231.765 178.77 234.226 176.69C236.707 174.596 238.276 171.791 238.98 168.251L245.588 133.261H252.927L246.52 167.089Z" fill="#1A65AA"/>
<path d="M252.927 130.345H243.168L236.11 167.718C235.556 170.586 234.321 172.8 232.351 174.455C230.413 176.1 228.07 176.901 225.221 176.901C222.31 176.901 220.343 176.294 219.376 175.109C218.719 174.313 218.413 173.162 218.424 171.671C218.424 171.576 218.707 168.848 218.707 168.848L225.985 130.345H212.707L205.828 166.549C205.828 166.555 205.282 172.147 205.282 172.147C205.282 176.624 206.499 180.398 208.905 183.351C212.321 187.533 217.64 189.654 224.667 189.654C231.094 189.654 236.56 187.65 240.927 183.707C245.251 179.806 248.113 174.398 249.388 167.634L256.446 130.345L252.927 130.345ZM249.241 136.172H249.396C248.36 141.748 243.662 166.555 243.662 166.555C242.612 172.026 240.393 176.341 237.021 179.377C233.713 182.371 229.671 183.828 224.667 183.828C219.388 183.828 215.713 182.461 213.431 179.664C211.87 177.753 211.106 175.292 211.106 172.147L211.565 167.634C211.565 167.634 216.76 140.278 217.533 136.172H218.946C216.955 146.687 214.966 157.202 212.978 167.718C212.99 167.659 212.592 171.701 212.592 171.701C212.56 174.524 213.336 176.947 214.865 178.802C216.968 181.402 220.467 182.728 225.221 182.728C229.449 182.728 233.104 181.446 236.121 178.911C239.095 176.397 241.031 172.993 241.827 168.812C241.827 168.812 247.233 140.297 248.006 136.172H249.24H249.241ZM263.923 133.261H280.835C285.808 133.261 289.495 134.129 291.912 135.873C294.332 137.619 295.527 140.257 295.527 143.816C295.527 149.32 294.038 153.833 291.044 157.336C288.038 160.844 284.205 162.596 279.506 162.596H275.516L288.97 185.644H280.059L266.205 159.723H266.185L261.284 185.644H253.945L263.923 133.261ZM266.623 157.402H274.131C278.865 157.402 282.33 156.475 284.531 154.602C286.729 152.748 287.819 149.812 287.787 145.811C287.787 144.015 287.115 142.769 285.8 142.056C284.467 141.351 282.114 141.011 278.759 141.011H269.787L266.623 157.402Z" fill="#1A65AA"/>
<path d="M267.575 130.345H261.506L250.403 188.56H263.693C263.693 188.56 266.07 176.016 267.515 168.361C271.114 175.096 274.717 181.829 278.323 188.56H294.05C294.05 188.56 283.85 171.09 280.521 165.409C285.621 165.158 289.922 163.13 293.254 159.236C296.701 155.199 298.449 150.01 298.449 143.816C298.449 138.178 295.821 135.099 293.62 133.507C290.657 131.382 286.478 130.345 280.836 130.345L267.575 130.345ZM267.575 136.172H280.836C285.157 136.172 288.301 136.863 290.205 138.241C291.243 138.989 292.616 140.377 292.616 143.816C292.616 148.647 291.379 152.455 288.826 155.439C286.397 158.298 283.337 159.686 279.506 159.686H270.425C270.425 159.686 280.53 176.983 283.891 182.728H281.819L264.875 151.062L263.315 159.189C263.315 159.189 259.608 178.812 258.866 182.728H257.462C258.561 176.983 265.568 140.194 266.332 136.172H267.575H267.575Z" fill="#1A65AA"/>
<path d="M269.788 138.089H267.388L263.096 160.313H274.132C279.63 160.313 283.651 159.184 286.415 156.827C289.285 154.382 290.73 150.676 290.707 145.795C290.707 142.948 289.441 140.701 287.171 139.487C285.347 138.529 282.688 138.089 278.759 138.089H269.788ZM278.759 143.916C282.645 143.916 284.029 144.424 284.427 144.638C284.603 144.738 284.875 144.869 284.875 145.811V145.922C284.875 149.004 284.133 151.11 282.645 152.388C280.992 153.785 278.133 154.486 274.132 154.486H270.166C270.847 150.964 271.692 146.528 272.197 143.916H278.759H278.759ZM306.491 133.262H323.401C328.365 133.262 332.061 134.13 334.469 135.873C336.887 137.619 338.101 140.257 338.101 143.816C338.101 149.32 336.595 153.833 333.613 157.336C330.607 160.844 326.773 162.596 322.068 162.596H318.082L331.536 185.644H322.648L308.782 159.724H308.753L303.852 185.644H296.508L306.491 133.262ZM309.192 157.403H316.7C321.431 157.403 324.895 156.475 327.099 154.602C329.286 152.748 330.373 149.812 330.365 145.811C330.365 144.015 329.695 142.769 328.354 142.057C327.033 141.351 324.691 141.011 321.327 141.011H312.353L309.192 157.403Z" fill="#1A65AA"/>
<path d="M310.155 130.345H304.071L292.991 188.56H306.269L310.082 168.361L320.9 188.56H336.615C336.615 188.56 326.407 171.09 323.098 165.409C328.195 165.158 332.499 163.13 335.83 159.235C339.275 155.198 341.023 150.009 341.023 143.816C341.023 138.178 338.386 135.099 336.185 133.506C333.234 131.382 329.046 130.345 323.401 130.345H310.155ZM310.155 136.172H323.401C327.725 136.172 330.878 136.863 332.77 138.241C333.811 138.989 335.19 140.377 335.19 143.816C335.19 148.647 333.944 152.455 331.4 155.439C328.962 158.298 325.913 159.686 322.068 159.686H313.002C313.002 159.686 323.098 176.983 326.455 182.728H324.387C322.931 180.01 307.443 151.062 307.443 151.062L305.891 159.189C305.891 159.189 302.173 178.812 301.432 182.728H300.038C301.129 176.983 308.133 140.194 308.897 136.172H310.155Z" fill="#1A65AA"/>
<path d="M312.353 138.089H309.956L305.672 160.313H316.7C322.206 160.313 326.219 159.184 328.991 156.827C331.861 154.382 333.306 150.676 333.274 145.795C333.274 142.948 332.017 140.701 329.727 139.487C327.924 138.529 325.264 138.089 321.327 138.089H312.353ZM321.327 143.916C325.221 143.916 326.594 144.424 326.992 144.638C327.18 144.738 327.43 144.869 327.43 145.811V145.922C327.43 149.004 326.709 151.11 325.212 152.388C323.579 153.785 320.701 154.486 316.7 154.486H312.73C313.411 150.964 314.259 146.528 314.773 143.916H321.327ZM361.789 133.262H373.713L380.146 185.644H372.447L370.97 171.436H349.503L342.26 185.644H334.521L361.789 133.262ZM353.357 164.053H370.229L367.526 136.57H367.538L353.357 164.053Z" fill="#1A65AA"/>
<path d="M373.714 130.345H360.017L329.727 188.56H344.048C344.048 188.56 350.02 176.865 351.297 174.347H368.342C368.7 177.833 369.808 188.56 369.808 188.56H383.432L376.301 130.345L373.714 130.345ZM367.754 136.172H371.149C371.674 140.501 376.177 177.277 376.858 182.728H375.067C374.712 179.257 373.598 168.52 373.598 168.52H347.715C347.715 168.52 341.767 180.225 340.477 182.728H339.326C342.952 175.774 362.155 138.88 363.56 136.172H367.754Z" fill="#1A65AA"/>
<path d="M366.332 132.527L364.939 135.236L348.563 166.974H373.455L370.051 132.527H366.332ZM365.591 146.702C366.24 153.336 366.722 158.169 367.013 161.135H358.132C360.09 157.355 362.355 152.983 365.591 146.702H365.591Z" fill="#1A65AA"/>
<path d="M163.554 132.527H127.984L127.156 137L126.245 141.734H152.394C152.195 141.933 151.996 142.133 151.796 142.331L119.365 175.687L118.405 180.702L117.354 186.371H153.744L155.344 177.905H128.633C129.291 177.23 129.972 176.555 129.972 176.555L162.415 143.194L163.335 138.183L164.422 132.527H163.554ZM162.666 133.988C162.435 135.145 161.901 137.92 161.901 137.92C161.901 137.92 161.137 142.093 161.065 142.502C160.759 142.807 128.936 175.539 128.936 175.539L125.094 179.36H153.585C153.397 180.339 152.696 184.094 152.538 184.912H119.103C119.313 183.755 119.838 180.979 119.838 180.979C119.838 180.979 120.643 176.784 120.718 176.389C121.021 176.085 152.832 143.352 152.832 143.352L155.87 140.278H128.016C128.215 139.235 128.59 137.273 128.59 137.273C128.59 137.273 129.043 134.844 129.198 133.988H162.666ZM206.11 132.527H170.549L169.733 137L168.813 141.734H194.959C194.708 141.999 194.373 142.331 194.373 142.331L161.933 175.687L160.969 180.702L159.922 186.371H196.321L197.921 177.905H171.189C171.858 177.23 172.539 176.555 172.539 176.555L204.979 143.194L205.902 138.183L206.999 132.527H206.11ZM205.231 133.988C204.973 135.298 204.718 136.609 204.466 137.92C204.466 137.92 203.69 142.093 203.63 142.502C203.327 142.807 171.504 175.539 171.504 175.539L167.659 179.36H196.15C195.974 180.339 195.262 184.094 195.106 184.912H161.67C161.89 183.755 162.403 180.979 162.403 180.979C162.403 180.979 163.199 176.784 163.283 176.389C163.586 176.085 195.409 143.352 195.409 143.352L198.435 140.278H170.581C170.789 139.235 171.169 137.273 171.169 137.273C171.169 137.273 171.608 134.844 171.764 133.988H205.23H205.231ZM252.928 132.527H244.992L238.257 168.116C237.607 171.466 236.099 174.162 233.765 176.131C231.44 178.094 228.561 179.083 225.221 179.083C221.609 179.083 219.074 178.209 217.68 176.483C216.697 175.304 216.215 173.675 216.224 171.65C216.224 171.624 216.57 168.403 216.57 168.403L223.337 132.527H214.519L207.985 166.959L207.461 172.147C207.461 176.104 208.508 179.408 210.602 181.975C213.587 185.618 218.321 187.47 224.667 187.47C230.54 187.47 235.505 185.655 239.462 182.08C243.44 178.514 246.048 173.509 247.251 167.231L253.807 132.527H252.928ZM249.241 133.988H252.059C251.733 135.628 245.805 166.959 245.805 166.959C244.678 172.916 242.214 177.64 238.476 181.006C234.812 184.325 230.162 186.012 224.667 186.012C218.783 186.012 214.424 184.34 211.744 181.053C209.881 178.766 208.929 175.769 208.929 172.147L209.419 167.231C209.419 167.231 215.503 135.136 215.734 133.988H221.586C221.284 135.638 215.128 168.116 215.128 168.116L214.782 171.654C214.75 174.015 215.344 175.958 216.55 177.404C218.237 179.487 221.148 180.55 225.221 180.55C228.904 180.55 232.109 179.435 234.708 177.241C237.296 175.058 238.981 172.072 239.681 168.393C239.681 168.393 245.975 135.141 246.203 133.988H249.241H249.241ZM267.576 132.527H263.315L253.066 186.371H261.881C261.881 186.371 265.871 165.278 266.52 161.865C268.184 164.979 279.63 186.371 279.63 186.371H290.248C290.248 186.371 277.934 165.314 276.783 163.329H279.506C284.404 163.329 288.469 161.467 291.587 157.806C294.699 154.184 296.268 149.471 296.268 143.816C296.268 140.032 294.95 137.167 292.342 135.284C289.798 133.46 285.933 132.528 280.836 132.528L267.576 132.527ZM267.576 133.988H280.836C285.621 133.988 289.201 134.822 291.483 136.465C293.713 138.073 294.791 140.477 294.791 143.816C294.791 149.115 293.346 153.507 290.488 156.869C287.609 160.229 284.017 161.868 279.506 161.868H274.239C274.239 161.868 286.541 182.927 287.704 184.912H280.51L265.871 157.566L265.472 159.591C265.472 159.591 260.886 183.791 260.675 184.912H254.823C255.137 183.268 264.299 135.125 264.521 133.988H267.575H267.576Z" fill="white"/>
<path d="M269.788 140.278H269.19L265.743 158.13H274.132C279.032 158.13 282.679 157.132 285.001 155.161C287.36 153.162 288.543 150.015 288.511 145.811C288.511 143.738 287.724 142.256 286.132 141.418C284.686 140.649 282.269 140.278 278.759 140.278H269.788ZM278.758 141.734C281.975 141.734 284.228 142.057 285.451 142.701C286.541 143.283 287.055 144.298 287.055 145.811V145.931C287.055 149.627 286.048 152.356 284.06 154.052C282.007 155.792 278.666 156.67 274.132 156.67H267.514C267.797 155.173 270.194 142.774 270.393 141.734H278.758ZM310.154 132.527H305.882L295.631 186.371H304.457C304.457 186.371 308.45 165.278 309.084 161.865L322.206 186.371H332.813C332.813 186.371 320.513 165.314 319.345 163.329H322.068C326.971 163.329 331.033 161.467 334.166 157.806C337.264 154.184 338.824 149.471 338.824 143.816C338.824 140.032 337.518 137.167 334.907 135.284C332.372 133.46 328.497 132.528 323.401 132.528L310.154 132.527ZM310.154 133.988H323.401C328.195 133.988 331.769 134.822 334.047 136.465C336.289 138.073 337.379 140.477 337.379 143.816C337.379 149.115 335.925 153.507 333.052 156.869C330.185 160.229 326.582 161.868 322.068 161.868H316.804C316.804 161.868 329.106 182.927 330.28 184.912H323.075C322.676 184.169 308.45 157.566 308.45 157.566L308.04 159.591C308.04 159.591 303.462 183.791 303.231 184.912H297.387C297.702 183.268 306.866 135.125 307.088 133.988H310.154H310.154Z" fill="white"/>
<path d="M312.353 140.278H311.759L308.312 158.13H316.7C321.587 158.13 325.244 157.132 327.581 155.161C329.926 153.162 331.117 150.015 331.088 145.811C331.088 143.738 330.292 142.256 328.697 141.418C327.243 140.649 324.835 140.278 321.327 140.278H312.353ZM321.327 141.734C324.543 141.734 326.805 142.057 328.016 142.701C329.095 143.283 329.632 144.298 329.632 145.811V145.931C329.632 149.627 328.616 152.356 326.626 154.052C324.587 155.792 321.232 156.67 316.7 156.67H310.083C310.363 155.173 312.76 142.774 312.95 141.734H321.327ZM373.714 132.527H361.336L333.33 186.371H342.711C342.711 186.371 349.57 172.911 349.954 172.163H370.313C370.44 173.35 371.778 186.371 371.778 186.371H380.972L374.363 132.527H373.714ZM367.755 133.988H373.085C373.224 135.22 379.129 183.351 379.316 184.912H373.097C372.984 183.723 371.623 170.702 371.623 170.702H349.068C349.068 170.702 342.206 184.169 341.819 184.912H335.727C336.783 182.885 361.841 134.749 362.239 133.988H367.755Z" fill="white"/>
<path d="M366.886 136.236L352.154 164.781H371.037L368.008 134.042L366.886 136.236ZM367.036 139.126C367.434 143.099 369.295 161.959 369.421 163.329H354.552C355.475 161.527 365.181 142.713 367.036 139.126Z" fill="white"/>
<path d="M390.343 188.8C389.287 188.8 388.468 188.502 387.882 187.905C387.285 187.304 387.003 186.46 386.982 185.367C386.982 184.398 387.222 183.565 387.715 182.863C388.197 182.174 388.889 181.659 389.807 181.33L394.771 179.576L395.284 179.393C395.956 179.161 396.447 178.848 396.761 178.465C397.084 178.079 397.191 177.633 397.096 177.157C397.044 176.823 396.857 176.507 396.519 176.226C396.037 175.826 395.434 175.639 394.711 175.639C393.724 175.639 392.763 175.786 391.82 176.103C390.885 176.425 389.913 176.889 388.91 177.545L389.359 175.179C390.487 174.466 391.451 173.967 392.27 173.686C393.078 173.409 393.958 173.267 394.921 173.267C396.542 173.267 397.725 173.686 398.489 174.524C399.043 175.131 399.32 175.916 399.32 176.889C399.32 177.224 399.285 177.603 399.213 178.01L397.223 188.439H395.037L395.463 186.12C395.319 186.352 395.14 186.554 394.95 186.738C393.663 188.113 392.114 188.8 390.343 188.8H390.343ZM396.49 180.733L395.149 181.288L391.999 182.498C391.064 182.857 390.375 183.251 389.957 183.677C389.527 184.111 389.316 184.607 389.325 185.168C389.337 185.713 389.515 186.147 389.861 186.46C390.196 186.775 390.658 186.937 391.263 186.937C392.573 186.937 393.675 186.446 394.555 185.472C395.368 184.551 395.965 183.251 396.343 181.565L396.49 180.733ZM403.702 173.628C404.195 173.785 404.636 173.859 405.026 173.859C405.346 173.859 405.738 173.785 406.197 173.628L403.393 188.439H400.898L403.702 173.628ZM405.727 169.754C406.269 169.754 406.667 169.858 406.907 170.063C407.14 170.262 407.221 170.571 407.14 170.957C407.065 171.366 406.858 171.671 406.551 171.87C406.249 172.072 405.81 172.177 405.262 172.177C404.708 172.177 404.322 172.072 404.091 171.87C403.864 171.671 403.78 171.366 403.864 170.957C403.947 170.57 404.134 170.262 404.437 170.063C404.743 169.858 405.17 169.754 405.727 169.754H405.727ZM409.817 173.628H412.185L411.588 176.823C411.926 176.23 412.257 175.711 412.618 175.251C413.685 173.926 414.848 173.267 416.114 173.267C416.573 173.267 416.982 173.319 417.349 173.425L416.636 176.214C416.293 176.042 415.831 175.957 415.263 175.957C414.251 175.957 413.371 176.355 412.667 177.157C411.957 177.958 411.377 179.188 410.931 180.854L409.505 188.439H407.013L409.817 173.628Z" fill="#1A65AA"/>
</svg>
