<svg width="480" height="320" viewBox="0 0 480 320" fill="none" xmlns="http://www.w3.org/2000/svg">
<path d="M79.3841 184.301C79.3333 187.529 78.1688 189.782 75.8936 191.064C73.7045 192.335 71.1571 192.954 68.2527 192.93H55.4215C55.88 192.605 56.1984 192.236 56.3722 191.819C56.5584 191.392 56.6522 190.807 56.6522 190.066V166.077C56.6522 165.414 56.5722 164.842 56.4091 164.362C56.2353 163.934 55.8953 163.557 55.3846 163.231H66.4729C69.1988 163.206 71.5832 163.726 73.6199 164.794C75.669 165.86 76.7243 167.778 76.7874 170.547C76.7612 172.227 76.052 173.652 74.6568 174.821C73.26 175.991 71.3678 176.791 68.9803 177.22C72.7446 177.467 75.4398 178.254 77.0643 179.58C78.6364 180.906 79.4117 182.482 79.3841 184.301ZM71.1894 171.038C71.1894 169.809 70.9433 168.814 70.4525 168.054C69.9864 167.335 69.3511 166.823 68.5435 166.523C67.8004 166.209 66.999 166.014 66.1406 165.935C65.2714 165.881 64.4577 165.855 63.7023 165.855C63.0101 165.855 62.524 165.881 62.2456 165.935V176.184H63.3624C64.0039 176.184 64.7807 176.105 65.6868 175.948C66.5626 175.802 67.4192 175.558 68.2404 175.221C69.0726 174.842 69.7726 174.318 70.3387 173.65C70.9063 172.984 71.1894 172.112 71.1894 171.038ZM73.1507 184.691C73.1246 183.315 72.8292 182.228 72.2616 181.426C71.6678 180.636 70.894 180.053 69.9372 179.676C68.9855 179.276 67.9797 179.021 66.9528 178.917C65.8945 178.84 64.9053 178.802 63.9854 178.802C63.4424 178.802 62.8624 178.84 62.2471 178.917V190.073C63.7085 190.255 65.1515 190.333 66.5744 190.307C67.3928 190.307 68.1927 190.198 68.9757 189.976C69.7434 189.769 70.4356 189.45 71.054 189.023C72.4 188.184 73.1 186.738 73.1507 184.691ZM104.24 192.962C104.979 192.636 105.091 191.93 104.571 190.838L101.378 183.437C99.4795 183.295 97.5768 183.223 95.6734 183.223C93.752 183.223 91.8107 183.295 89.8508 183.437L87.1449 190.059C86.768 190.902 86.5788 191.539 86.5788 191.968C86.5788 192.371 86.768 192.702 87.1449 192.962H81.6346C82.0623 192.702 82.433 192.358 82.7438 191.928C83.0683 191.501 83.3468 190.967 83.5806 190.33L93.0429 166.651C93.432 165.574 93.6136 164.962 93.589 164.82C93.589 164.56 93.4967 164.255 93.3151 163.905C93.1336 163.566 92.8413 163.351 92.4398 163.26H98.827L110.178 190.292C110.84 191.747 111.534 192.635 112.261 192.961H104.24M95.4765 169.247L90.9215 180.714C92.4921 180.817 94.0105 180.869 95.4765 180.869C97.0087 180.869 98.5854 180.819 100.208 180.714L95.4765 169.247ZM150.227 187.101C150.227 188.732 149.875 190.409 149.169 192.142C147.937 192.753 146.497 193.196 144.849 193.47C143.226 193.73 141.691 193.859 140.245 193.859C135.824 193.833 132.239 192.464 129.489 189.749C126.663 187.086 125.226 183.44 125.177 178.817C125.177 174.347 126.554 170.501 129.306 167.28C132.03 164.032 136.019 162.369 141.272 162.291C144.174 162.342 146.681 162.703 148.792 163.371L149.376 168.892C148.472 167.746 147.309 166.801 145.887 166.058C144.478 165.369 142.952 165.009 141.305 164.985C139.934 164.985 138.645 165.168 137.439 165.531C136.231 165.96 135.164 166.671 134.235 167.66C132.273 169.549 131.28 172.858 131.255 177.585C131.227 180.646 132.039 183.603 133.689 186.457C134.542 187.798 135.636 188.879 136.97 189.699C138.314 190.585 139.95 191.027 141.871 191.027C143.582 191.001 145.152 190.469 146.586 189.426C147.981 188.409 149.169 187.206 150.149 185.81C150.199 186.217 150.224 186.418 150.224 186.418C150.224 186.418 150.227 186.649 150.227 187.101ZM185.756 177.867C185.706 182.669 184.207 186.521 181.26 189.422C178.326 192.378 174.485 193.879 169.738 193.933C165.204 193.881 161.609 192.444 158.952 189.621C156.268 186.852 154.914 183.138 154.891 178.483C154.941 173.555 156.471 169.64 159.48 166.74C162.452 163.802 166.287 162.319 170.985 162.293C175.568 162.319 179.163 163.74 181.77 166.56C184.403 169.355 185.73 173.124 185.756 177.867ZM179.746 180.019C179.774 176.717 179.043 173.462 177.559 170.252C176.779 168.726 175.759 167.492 174.502 166.552C173.244 165.626 171.696 165.149 169.859 165.123C168.313 165.149 166.996 165.469 165.916 166.081C164.809 166.723 163.884 167.589 163.143 168.684C161.695 170.956 160.974 173.573 160.974 176.534C160.948 179.796 161.72 182.982 163.295 186.087C164.101 187.549 165.132 188.738 166.389 189.65C167.621 190.589 169.124 191.072 170.898 191.096C173.842 191.045 176.062 189.852 177.56 187.516C179.017 185.298 179.746 182.8 179.746 180.019ZM218.297 163.259C217.493 163.766 217.078 164.637 217.052 165.871V192.961H214.765L196.074 170.115V190.327C196.074 190.81 196.174 191.278 196.375 191.733C196.589 192.201 196.9 192.61 197.306 192.962H191.602C192.111 192.533 192.454 192.102 192.626 191.675C192.763 191.259 192.833 190.799 192.833 190.293V166.143C192.833 165.429 192.751 164.857 192.59 164.429C192.414 164.002 192.087 163.611 191.602 163.259H197.097L213.809 183.721V165.698C213.809 165.14 213.703 164.678 213.489 164.314C213.286 163.911 212.991 163.56 212.599 163.259H218.297ZM251.067 163.259C250.263 163.766 249.848 164.637 249.823 165.871V192.961H247.535L228.846 170.113V190.325C228.846 190.809 228.946 191.276 229.149 191.732C229.365 192.199 229.674 192.608 230.079 192.961H224.374C224.884 192.531 225.225 192.101 225.4 191.673C225.536 191.258 225.605 190.798 225.605 190.292V166.143C225.605 165.429 225.524 164.857 225.364 164.429C225.187 164.002 224.859 163.611 224.373 163.259H229.868L246.582 183.721V165.698C246.582 165.14 246.474 164.678 246.26 164.314C246.059 163.911 245.762 163.56 245.37 163.259H251.067ZM277.565 192.962H257.184C257.667 192.562 257.996 192.158 258.173 191.745C258.308 191.321 258.376 190.778 258.376 190.119V166.226C258.376 165.511 258.296 164.925 258.135 164.469C257.961 164.014 257.632 163.611 257.147 163.26H276.228L276.644 166.572C276.153 166.258 275.573 166.075 274.905 166.023H263.973V176.004C267.421 176.056 270.833 175.919 274.209 175.593L274.755 179.343C274.289 179.019 273.659 178.805 272.866 178.7C272.084 178.65 271.412 178.622 270.846 178.622H263.971V189.906C265.594 190.101 267.206 190.198 268.806 190.198C270.504 190.224 272.129 190.182 273.676 190.081C275.225 189.964 276.691 189.547 278.076 188.833L277.565 192.962ZM307.307 187.101C307.307 188.732 306.955 190.409 306.249 192.142C305.017 192.753 303.578 193.196 301.928 193.47C300.305 193.73 298.769 193.859 297.325 193.859C292.905 193.833 289.32 192.464 286.571 189.749C283.745 187.086 282.308 183.44 282.257 178.817C282.257 174.347 283.632 170.501 286.384 167.28C289.11 164.032 293.098 162.369 298.351 162.291C301.255 162.342 303.761 162.703 305.873 163.371L306.456 168.892C305.552 167.746 304.389 166.801 302.968 166.058C301.56 165.369 300.034 165.009 298.386 164.985C297.016 164.985 295.727 165.168 294.519 165.531C293.311 165.96 292.244 166.671 291.313 167.66C289.353 169.549 288.36 172.858 288.335 177.585C288.307 180.646 289.118 183.603 290.766 186.457C291.622 187.798 292.716 188.879 294.048 189.699C295.393 190.585 297.028 191.027 298.951 191.027C300.66 191.001 302.232 190.469 303.666 189.426C305.061 188.409 306.249 187.206 307.229 185.81C307.278 186.217 307.304 186.418 307.304 186.418C307.304 186.418 307.307 186.649 307.307 187.101ZM337.661 162.983C337.208 163.845 336.542 164.632 335.662 165.348C334.805 166.143 334.031 166.551 333.339 166.578C331.376 166.551 329.173 166.514 326.732 166.461V189.999C326.732 190.598 326.83 191.156 327.035 191.675C327.224 192.208 327.545 192.638 328.001 192.962H319.898C320.774 192.222 321.188 191.267 321.135 190.096V166.461H313.727C313.137 166.461 312.547 166.498 311.958 166.578C311.328 166.694 310.756 166.911 310.239 167.223L311.522 163.259H331.608C333.645 163.257 335.662 163.166 337.661 162.983Z" fill="#003A77"/>
<mask id="mask0_730_18606" style="mask-type:luminance" maskUnits="userSpaceOnUse" x="365" y="140" width="60" height="29">
<path d="M365.982 161.499C378.95 157.224 393.218 152.323 397.662 150.492C402.108 148.663 413.132 143.065 414.064 140.231C419.94 141.253 423.783 147.534 424.615 148.658C424.474 148.66 425.012 150.558 423.752 152.918C420.745 158.564 404.837 165.405 396.452 168.577C384.014 166.16 374.155 163.636 365.982 161.499Z" fill="white"/>
</mask>
<g mask="url(#mask0_730_18606)">
<mask id="mask1_730_18606" style="mask-type:luminance" maskUnits="userSpaceOnUse" x="-113" y="-41" width="593" height="839">
<path d="M-112.858 -40.6416H479.854V797.731H-112.858V-40.6416Z" fill="white"/>
</mask>
<g mask="url(#mask1_730_18606)">
<path d="M399.095 197.87L351.917 156.13L399.095 197.87ZM399.095 197.87L351.917 156.13L352.229 155.776L399.407 197.516L399.095 197.87Z" fill="#0066B3"/>
</g>
<mask id="mask2_730_18606" style="mask-type:luminance" maskUnits="userSpaceOnUse" x="-113" y="-41" width="593" height="839">
<path d="M-112.858 -40.6416H479.854V797.731H-112.858V-40.6416Z" fill="white"/>
</mask>
<g mask="url(#mask2_730_18606)">
<path d="M399.407 197.516L352.229 155.777L352.54 155.426L399.718 197.164L399.407 197.516Z" fill="#0066B2"/>
</g>
<mask id="mask3_730_18606" style="mask-type:luminance" maskUnits="userSpaceOnUse" x="-113" y="-41" width="593" height="839">
<path d="M-112.858 -40.6416H479.854V797.731H-112.858V-40.6416Z" fill="white"/>
</mask>
<g mask="url(#mask3_730_18606)">
<path d="M399.718 197.164L352.54 155.426L352.852 155.07L400.03 196.81L399.718 197.164Z" fill="#0065B1"/>
</g>
<mask id="mask4_730_18606" style="mask-type:luminance" maskUnits="userSpaceOnUse" x="-113" y="-41" width="593" height="839">
<path d="M-112.858 -40.6416H479.854V797.731H-112.858V-40.6416Z" fill="white"/>
</mask>
<g mask="url(#mask4_730_18606)">
<path d="M400.03 196.809L352.852 155.07L353.166 154.718L400.342 196.457L400.03 196.809Z" fill="#0065B1"/>
</g>
<mask id="mask5_730_18606" style="mask-type:luminance" maskUnits="userSpaceOnUse" x="-113" y="-41" width="593" height="839">
<path d="M-112.858 -40.6416H479.854V797.731H-112.858V-40.6416Z" fill="white"/>
</mask>
<g mask="url(#mask5_730_18606)">
<path d="M400.342 196.458L353.166 154.718L353.48 154.366L400.656 196.103L400.342 196.458Z" fill="#0065B0"/>
</g>
<mask id="mask6_730_18606" style="mask-type:luminance" maskUnits="userSpaceOnUse" x="-113" y="-41" width="593" height="839">
<path d="M-112.858 -40.6416H479.854V797.731H-112.858V-40.6416Z" fill="white"/>
</mask>
<g mask="url(#mask6_730_18606)">
<path d="M400.656 196.102L353.48 154.366L353.789 154.012L400.968 195.751L400.656 196.102Z" fill="#0064AF"/>
</g>
<mask id="mask7_730_18606" style="mask-type:luminance" maskUnits="userSpaceOnUse" x="-113" y="-41" width="593" height="839">
<path d="M-112.858 -40.6416H479.854V797.731H-112.858V-40.6416Z" fill="white"/>
</mask>
<g mask="url(#mask7_730_18606)">
<path d="M400.968 195.751L353.789 154.012L354.103 153.658L401.279 195.398L400.968 195.751Z" fill="#0064AF"/>
</g>
<mask id="mask8_730_18606" style="mask-type:luminance" maskUnits="userSpaceOnUse" x="-113" y="-41" width="593" height="839">
<path d="M-112.858 -40.6416H479.854V797.731H-112.858V-40.6416Z" fill="white"/>
</mask>
<g mask="url(#mask8_730_18606)">
<path d="M401.279 195.398L354.103 153.658L354.415 153.304L401.593 195.045L401.279 195.398ZM401.593 195.044L354.415 153.304L354.729 152.952L401.907 194.692L401.593 195.044Z" fill="#0064AE"/>
</g>
<mask id="mask9_730_18606" style="mask-type:luminance" maskUnits="userSpaceOnUse" x="-113" y="-41" width="593" height="839">
<path d="M-112.858 -40.6416H479.854V797.731H-112.858V-40.6416Z" fill="white"/>
</mask>
<g mask="url(#mask9_730_18606)">
<path d="M401.907 194.692L354.729 152.952L355.04 152.602L402.217 194.338L401.907 194.692Z" fill="#0063AD"/>
</g>
<mask id="mask10_730_18606" style="mask-type:luminance" maskUnits="userSpaceOnUse" x="-113" y="-41" width="593" height="839">
<path d="M-112.858 -40.6416H479.854V797.731H-112.858V-40.6416Z" fill="white"/>
</mask>
<g mask="url(#mask10_730_18606)">
<path d="M402.217 194.338L355.04 152.601L355.354 152.246L402.531 193.986L402.217 194.338Z" fill="#0063AD"/>
</g>
<mask id="mask11_730_18606" style="mask-type:luminance" maskUnits="userSpaceOnUse" x="-113" y="-41" width="593" height="839">
<path d="M-112.858 -40.6416H479.854V797.731H-112.858V-40.6416Z" fill="white"/>
</mask>
<g mask="url(#mask11_730_18606)">
<path d="M402.531 193.986L355.354 152.246L355.664 151.894L402.842 193.634L402.531 193.986ZM402.842 193.634L355.664 151.894L355.977 151.539L403.154 193.28L402.842 193.634ZM403.154 193.28L355.977 151.539L356.287 151.187L403.466 192.927L403.154 193.28Z" fill="#0063AC"/>
</g>
<mask id="mask12_730_18606" style="mask-type:luminance" maskUnits="userSpaceOnUse" x="-113" y="-41" width="593" height="839">
<path d="M-112.858 -40.6416H479.854V797.731H-112.858V-40.6416Z" fill="white"/>
</mask>
<g mask="url(#mask12_730_18606)">
<path d="M403.466 192.927L356.289 151.186L356.603 150.834L403.779 192.575L403.466 192.927Z" fill="#0062AB"/>
</g>
<mask id="mask13_730_18606" style="mask-type:luminance" maskUnits="userSpaceOnUse" x="-113" y="-41" width="593" height="839">
<path d="M-112.858 -40.6416H479.854V797.731H-112.858V-40.6416Z" fill="white"/>
</mask>
<g mask="url(#mask13_730_18606)">
<path d="M403.779 192.575L356.603 150.834L356.915 150.48L404.091 192.221L403.779 192.575Z" fill="#0062AB"/>
</g>
<mask id="mask14_730_18606" style="mask-type:luminance" maskUnits="userSpaceOnUse" x="-113" y="-41" width="593" height="839">
<path d="M-112.858 -40.6416H479.854V797.731H-112.858V-40.6416Z" fill="white"/>
</mask>
<g mask="url(#mask14_730_18606)">
<path d="M404.091 192.221L356.915 150.48L357.227 150.128L404.405 191.867L404.091 192.221Z" fill="#0062AA"/>
</g>
<mask id="mask15_730_18606" style="mask-type:luminance" maskUnits="userSpaceOnUse" x="-113" y="-41" width="593" height="839">
<path d="M-112.858 -40.6416H479.854V797.731H-112.858V-40.6416Z" fill="white"/>
</mask>
<g mask="url(#mask15_730_18606)">
<path d="M404.405 191.868L357.227 150.128L357.54 149.774L404.717 191.514L404.405 191.868Z" fill="#0062AA"/>
</g>
<mask id="mask16_730_18606" style="mask-type:luminance" maskUnits="userSpaceOnUse" x="-113" y="-41" width="593" height="839">
<path d="M-112.858 -40.6416H479.854V797.731H-112.858V-40.6416Z" fill="white"/>
</mask>
<g mask="url(#mask16_730_18606)">
<path d="M404.717 191.514L357.54 149.774L357.852 149.422L405.029 191.161L404.717 191.514Z" fill="#0062AA"/>
</g>
<mask id="mask17_730_18606" style="mask-type:luminance" maskUnits="userSpaceOnUse" x="-113" y="-41" width="593" height="839">
<path d="M-112.858 -40.6416H479.854V797.731H-112.858V-40.6416Z" fill="white"/>
</mask>
<g mask="url(#mask17_730_18606)">
<path d="M405.029 191.16L357.852 149.422L358.163 149.068L405.342 190.809L405.029 191.16Z" fill="#0061A9"/>
</g>
<mask id="mask18_730_18606" style="mask-type:luminance" maskUnits="userSpaceOnUse" x="-113" y="-41" width="593" height="839">
<path d="M-112.858 -40.6416H479.854V797.731H-112.858V-40.6416Z" fill="white"/>
</mask>
<g mask="url(#mask18_730_18606)">
<path d="M405.342 190.809L358.163 149.068L358.477 148.714L405.654 190.453L405.342 190.809Z" fill="#0061A9"/>
</g>
<mask id="mask19_730_18606" style="mask-type:luminance" maskUnits="userSpaceOnUse" x="-113" y="-41" width="593" height="839">
<path d="M-112.858 -40.6416H479.854V797.731H-112.858V-40.6416Z" fill="white"/>
</mask>
<g mask="url(#mask19_730_18606)">
<path d="M405.654 190.453L358.477 148.714L358.789 148.363L405.965 190.103L405.654 190.453ZM405.965 190.103L358.789 148.363L359.101 148.008L406.279 189.747L405.965 190.103Z" fill="#0061A8"/>
</g>
<mask id="mask20_730_18606" style="mask-type:luminance" maskUnits="userSpaceOnUse" x="-113" y="-41" width="593" height="839">
<path d="M-112.858 -40.6416H479.854V797.731H-112.858V-40.6416Z" fill="white"/>
</mask>
<g mask="url(#mask20_730_18606)">
<path d="M406.279 189.748L359.101 148.009L359.413 147.656L406.592 189.397L406.279 189.748Z" fill="#0061A8"/>
</g>
<mask id="mask21_730_18606" style="mask-type:luminance" maskUnits="userSpaceOnUse" x="-113" y="-41" width="593" height="839">
<path d="M-112.858 -40.6416H479.854V797.731H-112.858V-40.6416Z" fill="white"/>
</mask>
<g mask="url(#mask21_730_18606)">
<path d="M406.592 189.397L359.413 147.656L359.726 147.304L406.903 189.042L406.592 189.397Z" fill="#0060A7"/>
</g>
<mask id="mask22_730_18606" style="mask-type:luminance" maskUnits="userSpaceOnUse" x="-113" y="-41" width="593" height="839">
<path d="M-112.858 -40.6416H479.854V797.731H-112.858V-40.6416Z" fill="white"/>
</mask>
<g mask="url(#mask22_730_18606)">
<path d="M406.903 189.041L359.726 147.303L360.038 146.949L407.217 188.689L406.903 189.041Z" fill="#0060A7"/>
</g>
<mask id="mask23_730_18606" style="mask-type:luminance" maskUnits="userSpaceOnUse" x="-113" y="-41" width="593" height="839">
<path d="M-112.858 -40.6416H479.854V797.731H-112.858V-40.6416Z" fill="white"/>
</mask>
<g mask="url(#mask23_730_18606)">
<path d="M407.217 188.689L360.038 146.95L360.35 146.597L407.529 188.335L407.217 188.689ZM407.529 188.335L360.35 146.597L360.664 146.243L407.841 187.983L407.529 188.335ZM407.841 187.983L360.664 146.243L360.975 145.89L408.152 187.629L407.841 187.983Z" fill="#0060A6"/>
</g>
<mask id="mask24_730_18606" style="mask-type:luminance" maskUnits="userSpaceOnUse" x="-113" y="-41" width="593" height="839">
<path d="M-112.858 -40.6416H479.854V797.731H-112.858V-40.6416Z" fill="white"/>
</mask>
<g mask="url(#mask24_730_18606)">
<path d="M408.152 187.629L360.975 145.889L361.289 145.537L408.465 187.277L408.152 187.629Z" fill="#055FA5"/>
</g>
<mask id="mask25_730_18606" style="mask-type:luminance" maskUnits="userSpaceOnUse" x="-113" y="-41" width="593" height="839">
<path d="M-112.858 -40.6416H479.854V797.731H-112.858V-40.6416Z" fill="white"/>
</mask>
<g mask="url(#mask25_730_18606)">
<path d="M408.464 187.277L361.289 145.538L361.601 145.183L408.777 186.924L408.464 187.277Z" fill="#0A5FA5"/>
</g>
<mask id="mask26_730_18606" style="mask-type:luminance" maskUnits="userSpaceOnUse" x="-113" y="-41" width="593" height="839">
<path d="M-112.858 -40.6416H479.854V797.731H-112.858V-40.6416Z" fill="white"/>
</mask>
<g mask="url(#mask26_730_18606)">
<path d="M408.777 186.923L361.601 145.182L361.913 144.831L409.092 186.57L408.777 186.923Z" fill="#0E5FA4"/>
</g>
<mask id="mask27_730_18606" style="mask-type:luminance" maskUnits="userSpaceOnUse" x="-113" y="-41" width="593" height="839">
<path d="M-112.858 -40.6416H479.854V797.731H-112.858V-40.6416Z" fill="white"/>
</mask>
<g mask="url(#mask27_730_18606)">
<path d="M409.092 186.571L361.913 144.831L362.225 144.478L409.403 186.215L409.092 186.571Z" fill="#115FA3"/>
</g>
<mask id="mask28_730_18606" style="mask-type:luminance" maskUnits="userSpaceOnUse" x="-113" y="-41" width="593" height="839">
<path d="M-112.858 -40.6416H479.854V797.731H-112.858V-40.6416Z" fill="white"/>
</mask>
<g mask="url(#mask28_730_18606)">
<path d="M409.403 186.215L362.225 144.477L362.538 144.125L409.715 185.864L409.403 186.215Z" fill="#115FA3"/>
</g>
<mask id="mask29_730_18606" style="mask-type:luminance" maskUnits="userSpaceOnUse" x="-113" y="-41" width="593" height="839">
<path d="M-112.858 -40.6416H479.854V797.731H-112.858V-40.6416Z" fill="white"/>
</mask>
<g mask="url(#mask29_730_18606)">
<path d="M409.715 185.865L362.538 144.125L362.85 143.771L410.026 185.512L409.715 185.865Z" fill="#145EA3"/>
</g>
<mask id="mask30_730_18606" style="mask-type:luminance" maskUnits="userSpaceOnUse" x="-113" y="-41" width="593" height="839">
<path d="M-112.858 -40.6416H479.854V797.731H-112.858V-40.6416Z" fill="white"/>
</mask>
<g mask="url(#mask30_730_18606)">
<path d="M410.026 185.512L362.85 143.771L363.162 143.419L410.338 185.158L410.026 185.512Z" fill="#175EA2"/>
</g>
<mask id="mask31_730_18606" style="mask-type:luminance" maskUnits="userSpaceOnUse" x="-113" y="-41" width="593" height="839">
<path d="M-112.858 -40.6416H479.854V797.731H-112.858V-40.6416Z" fill="white"/>
</mask>
<g mask="url(#mask31_730_18606)">
<path d="M410.338 185.159L363.162 143.42L363.475 143.067L410.652 184.805L410.338 185.159Z" fill="#1A5EA2"/>
</g>
<mask id="mask32_730_18606" style="mask-type:luminance" maskUnits="userSpaceOnUse" x="-113" y="-41" width="593" height="839">
<path d="M-112.858 -40.6416H479.854V797.731H-112.858V-40.6416Z" fill="white"/>
</mask>
<g mask="url(#mask32_730_18606)">
<path d="M410.652 184.805L363.475 143.067L363.785 142.713L410.964 184.452L410.652 184.805Z" fill="#1C5EA1"/>
</g>
<mask id="mask33_730_18606" style="mask-type:luminance" maskUnits="userSpaceOnUse" x="-113" y="-41" width="593" height="839">
<path d="M-112.858 -40.6416H479.854V797.731H-112.858V-40.6416Z" fill="white"/>
</mask>
<g mask="url(#mask33_730_18606)">
<path d="M410.964 184.453L363.785 142.713L364.099 142.361L411.277 184.098L410.964 184.453ZM411.278 184.098L364.099 142.361L364.411 142.006L411.59 183.747L411.278 184.098Z" fill="#1E5DA1"/>
</g>
<mask id="mask34_730_18606" style="mask-type:luminance" maskUnits="userSpaceOnUse" x="-113" y="-41" width="593" height="839">
<path d="M-112.858 -40.6416H479.854V797.731H-112.858V-40.6416Z" fill="white"/>
</mask>
<g mask="url(#mask34_730_18606)">
<path d="M411.59 183.746L364.411 142.005L364.725 141.654L411.903 183.391L411.59 183.746Z" fill="#205DA0"/>
</g>
<mask id="mask35_730_18606" style="mask-type:luminance" maskUnits="userSpaceOnUse" x="-113" y="-41" width="593" height="839">
<path d="M-112.858 -40.6416H479.854V797.731H-112.858V-40.6416Z" fill="white"/>
</mask>
<g mask="url(#mask35_730_18606)">
<path d="M411.903 183.391L364.725 141.655L365.036 141.301L412.213 183.04L411.903 183.391Z" fill="#215DA0"/>
</g>
<mask id="mask36_730_18606" style="mask-type:luminance" maskUnits="userSpaceOnUse" x="-113" y="-41" width="593" height="839">
<path d="M-112.858 -40.6416H479.854V797.731H-112.858V-40.6416Z" fill="white"/>
</mask>
<g mask="url(#mask36_730_18606)">
<path d="M412.213 183.04L365.036 141.301L365.35 140.948L412.527 182.685L412.213 183.04Z" fill="#235D9F"/>
</g>
<mask id="mask37_730_18606" style="mask-type:luminance" maskUnits="userSpaceOnUse" x="-113" y="-41" width="593" height="839">
<path d="M-112.858 -40.6416H479.854V797.731H-112.858V-40.6416Z" fill="white"/>
</mask>
<g mask="url(#mask37_730_18606)">
<path d="M412.527 182.685L365.35 140.949L365.662 140.594L412.838 182.335L412.527 182.685Z" fill="#255C9F"/>
</g>
<mask id="mask38_730_18606" style="mask-type:luminance" maskUnits="userSpaceOnUse" x="-113" y="-41" width="593" height="839">
<path d="M-112.858 -40.6416H479.854V797.731H-112.858V-40.6416Z" fill="white"/>
</mask>
<g mask="url(#mask38_730_18606)">
<path d="M412.838 182.334L365.662 140.593L365.974 140.242L413.152 181.979L412.838 182.334Z" fill="#255C9F"/>
</g>
<mask id="mask39_730_18606" style="mask-type:luminance" maskUnits="userSpaceOnUse" x="-113" y="-41" width="593" height="839">
<path d="M-112.858 -40.6416H479.854V797.731H-112.858V-40.6416Z" fill="white"/>
</mask>
<g mask="url(#mask39_730_18606)">
<path d="M413.152 181.979L365.974 140.242L366.287 139.889L413.464 181.628L413.152 181.979Z" fill="#265C9E"/>
</g>
<mask id="mask40_730_18606" style="mask-type:luminance" maskUnits="userSpaceOnUse" x="-113" y="-41" width="593" height="839">
<path d="M-112.858 -40.6416H479.854V797.731H-112.858V-40.6416Z" fill="white"/>
</mask>
<g mask="url(#mask40_730_18606)">
<path d="M413.464 181.628L366.287 139.888L366.599 139.536L413.776 181.272L413.464 181.628Z" fill="#285C9E"/>
</g>
<mask id="mask41_730_18606" style="mask-type:luminance" maskUnits="userSpaceOnUse" x="-113" y="-41" width="593" height="839">
<path d="M-112.858 -40.6416H479.854V797.731H-112.858V-40.6416Z" fill="white"/>
</mask>
<g mask="url(#mask41_730_18606)">
<path d="M413.776 181.272L366.599 139.536L366.911 139.181L414.089 180.92L413.776 181.272Z" fill="#295C9D"/>
</g>
<mask id="mask42_730_18606" style="mask-type:luminance" maskUnits="userSpaceOnUse" x="-113" y="-41" width="593" height="839">
<path d="M-112.858 -40.6416H479.854V797.731H-112.858V-40.6416Z" fill="white"/>
</mask>
<g mask="url(#mask42_730_18606)">
<path d="M414.089 180.921L366.911 139.181L367.225 138.829L414.401 180.567L414.089 180.921Z" fill="#2B5B9D"/>
</g>
<mask id="mask43_730_18606" style="mask-type:luminance" maskUnits="userSpaceOnUse" x="-113" y="-41" width="593" height="839">
<path d="M-112.858 -40.6416H479.854V797.731H-112.858V-40.6416Z" fill="white"/>
</mask>
<g mask="url(#mask43_730_18606)">
<path d="M414.401 180.567L367.225 138.829L367.536 138.477L414.713 180.214L414.401 180.567Z" fill="#2B5B9D"/>
</g>
<mask id="mask44_730_18606" style="mask-type:luminance" maskUnits="userSpaceOnUse" x="-113" y="-41" width="593" height="839">
<path d="M-112.858 -40.6416H479.854V797.731H-112.858V-40.6416Z" fill="white"/>
</mask>
<g mask="url(#mask44_730_18606)">
<path d="M414.713 180.214L367.536 138.476L367.85 138.124L415.027 179.862L414.713 180.214Z" fill="#2C5B9C"/>
</g>
<mask id="mask45_730_18606" style="mask-type:luminance" maskUnits="userSpaceOnUse" x="-113" y="-41" width="593" height="839">
<path d="M-112.858 -40.6416H479.854V797.731H-112.858V-40.6416Z" fill="white"/>
</mask>
<g mask="url(#mask45_730_18606)">
<path d="M415.027 179.862L367.85 138.124L368.159 137.769L415.338 179.508L415.027 179.862Z" fill="#2D5B9C"/>
</g>
<mask id="mask46_730_18606" style="mask-type:luminance" maskUnits="userSpaceOnUse" x="-113" y="-41" width="593" height="839">
<path d="M-112.858 -40.6416H479.854V797.731H-112.858V-40.6416Z" fill="white"/>
</mask>
<g mask="url(#mask46_730_18606)">
<path d="M415.338 179.509L368.159 137.769L368.473 137.417L415.65 179.155L415.338 179.509Z" fill="#2E5B9B"/>
</g>
<mask id="mask47_730_18606" style="mask-type:luminance" maskUnits="userSpaceOnUse" x="-113" y="-41" width="593" height="839">
<path d="M-112.858 -40.6416H479.854V797.731H-112.858V-40.6416Z" fill="white"/>
</mask>
<g mask="url(#mask47_730_18606)">
<path d="M415.65 179.154L368.473 137.416L368.785 137.062L415.962 178.802L415.65 179.154Z" fill="#2F5A9B"/>
</g>
<mask id="mask48_730_18606" style="mask-type:luminance" maskUnits="userSpaceOnUse" x="-113" y="-41" width="593" height="839">
<path d="M-112.858 -40.6416H479.854V797.731H-112.858V-40.6416Z" fill="white"/>
</mask>
<g mask="url(#mask48_730_18606)">
<path d="M415.962 178.803L368.785 137.063L369.099 136.711L416.276 178.45L415.962 178.803Z" fill="#2F5A9B"/>
</g>
<mask id="mask49_730_18606" style="mask-type:luminance" maskUnits="userSpaceOnUse" x="-113" y="-41" width="593" height="839">
<path d="M-112.858 -40.6416H479.854V797.731H-112.858V-40.6416Z" fill="white"/>
</mask>
<g mask="url(#mask49_730_18606)">
<path d="M416.276 178.45L369.099 136.71L369.411 136.356L416.588 178.096L416.276 178.45Z" fill="#305A9A"/>
</g>
<mask id="mask50_730_18606" style="mask-type:luminance" maskUnits="userSpaceOnUse" x="-113" y="-41" width="593" height="839">
<path d="M-112.858 -40.6416H479.854V797.731H-112.858V-40.6416Z" fill="white"/>
</mask>
<g mask="url(#mask50_730_18606)">
<path d="M416.588 178.097L369.411 136.357L369.723 136.005L416.901 177.744L416.588 178.097Z" fill="#315A9A"/>
</g>
<mask id="mask51_730_18606" style="mask-type:luminance" maskUnits="userSpaceOnUse" x="-113" y="-41" width="593" height="839">
<path d="M-112.858 -40.6416H479.854V797.731H-112.858V-40.6416Z" fill="white"/>
</mask>
<g mask="url(#mask51_730_18606)">
<path d="M416.901 177.744L369.723 136.004L370.036 135.65L417.213 177.39L416.901 177.744Z" fill="#325999"/>
</g>
<mask id="mask52_730_18606" style="mask-type:luminance" maskUnits="userSpaceOnUse" x="-113" y="-41" width="593" height="839">
<path d="M-112.858 -40.6416H479.854V797.731H-112.858V-40.6416Z" fill="white"/>
</mask>
<g mask="url(#mask52_730_18606)">
<path d="M417.213 177.391L370.036 135.651L370.348 135.299L417.525 177.038L417.213 177.391Z" fill="#335998"/>
</g>
<mask id="mask53_730_18606" style="mask-type:luminance" maskUnits="userSpaceOnUse" x="-113" y="-41" width="593" height="839">
<path d="M-112.858 -40.6416H479.854V797.731H-112.858V-40.6416Z" fill="white"/>
</mask>
<g mask="url(#mask53_730_18606)">
<path d="M417.525 177.038L370.348 135.298L370.66 134.944L417.839 176.684L417.525 177.038Z" fill="#335998"/>
</g>
<mask id="mask54_730_18606" style="mask-type:luminance" maskUnits="userSpaceOnUse" x="-113" y="-41" width="593" height="839">
<path d="M-112.858 -40.6416H479.854V797.731H-112.858V-40.6416Z" fill="white"/>
</mask>
<g mask="url(#mask54_730_18606)">
<path d="M417.839 176.684L370.66 134.945L370.971 134.593L418.15 176.332L417.839 176.684Z" fill="#345998"/>
</g>
<mask id="mask55_730_18606" style="mask-type:luminance" maskUnits="userSpaceOnUse" x="-113" y="-41" width="593" height="839">
<path d="M-112.858 -40.6416H479.854V797.731H-112.858V-40.6416Z" fill="white"/>
</mask>
<g mask="url(#mask55_730_18606)">
<path d="M418.15 176.332L370.972 134.593L371.285 134.24L418.462 175.978L418.15 176.332Z" fill="#355997"/>
</g>
<mask id="mask56_730_18606" style="mask-type:luminance" maskUnits="userSpaceOnUse" x="-113" y="-41" width="593" height="839">
<path d="M-112.858 -40.6416H479.854V797.731H-112.858V-40.6416Z" fill="white"/>
</mask>
<g mask="url(#mask56_730_18606)">
<path d="M418.462 175.977L371.285 134.24L371.598 133.886L418.774 175.625L418.462 175.977Z" fill="#365897"/>
</g>
<mask id="mask57_730_18606" style="mask-type:luminance" maskUnits="userSpaceOnUse" x="-113" y="-41" width="593" height="839">
<path d="M-112.858 -40.6416H479.854V797.731H-112.858V-40.6416Z" fill="white"/>
</mask>
<g mask="url(#mask57_730_18606)">
<path d="M418.774 175.625L371.598 133.886L371.909 133.532L419.088 175.272L418.774 175.625Z" fill="#375896"/>
</g>
<mask id="mask58_730_18606" style="mask-type:luminance" maskUnits="userSpaceOnUse" x="-113" y="-41" width="593" height="839">
<path d="M-112.858 -40.6416H479.854V797.731H-112.858V-40.6416Z" fill="white"/>
</mask>
<g mask="url(#mask58_730_18606)">
<path d="M419.088 175.271L371.909 133.532L372.221 133.18L419.4 174.918L419.088 175.271Z" fill="#375896"/>
</g>
<mask id="mask59_730_18606" style="mask-type:luminance" maskUnits="userSpaceOnUse" x="-113" y="-41" width="593" height="839">
<path d="M-112.858 -40.6416H479.854V797.731H-112.858V-40.6416Z" fill="white"/>
</mask>
<g mask="url(#mask59_730_18606)">
<path d="M419.4 174.918L372.221 133.18L372.535 132.826L419.711 174.566L419.4 174.918Z" fill="#385896"/>
</g>
<mask id="mask60_730_18606" style="mask-type:luminance" maskUnits="userSpaceOnUse" x="-113" y="-41" width="593" height="839">
<path d="M-112.858 -40.6416H479.854V797.731H-112.858V-40.6416Z" fill="white"/>
</mask>
<g mask="url(#mask60_730_18606)">
<path d="M419.711 174.565L372.535 132.826L372.848 132.474L420.023 174.213L419.711 174.565Z" fill="#395895"/>
</g>
<mask id="mask61_730_18606" style="mask-type:luminance" maskUnits="userSpaceOnUse" x="-113" y="-41" width="593" height="839">
<path d="M-112.858 -40.6416H479.854V797.731H-112.858V-40.6416Z" fill="white"/>
</mask>
<g mask="url(#mask61_730_18606)">
<path d="M420.023 174.214L372.848 132.474L373.16 132.119L420.336 173.86L420.023 174.214Z" fill="#395795"/>
</g>
<mask id="mask62_730_18606" style="mask-type:luminance" maskUnits="userSpaceOnUse" x="-113" y="-41" width="593" height="839">
<path d="M-112.858 -40.6416H479.854V797.731H-112.858V-40.6416Z" fill="white"/>
</mask>
<g mask="url(#mask62_730_18606)">
<path d="M420.336 173.859L373.16 132.118L373.471 131.766L420.648 173.507L420.336 173.859ZM420.648 173.507L373.471 131.766L373.783 131.412L420.96 173.152L420.648 173.507Z" fill="#3A5794"/>
</g>
<mask id="mask63_730_18606" style="mask-type:luminance" maskUnits="userSpaceOnUse" x="-113" y="-41" width="593" height="839">
<path d="M-112.858 -40.6416H479.854V797.731H-112.858V-40.6416Z" fill="white"/>
</mask>
<g mask="url(#mask63_730_18606)">
<path d="M420.96 173.152L373.783 131.412L374.097 131.062L421.273 172.801L420.96 173.152Z" fill="#3B5794"/>
</g>
<mask id="mask64_730_18606" style="mask-type:luminance" maskUnits="userSpaceOnUse" x="-113" y="-41" width="593" height="839">
<path d="M-112.858 -40.6416H479.854V797.731H-112.858V-40.6416Z" fill="white"/>
</mask>
<g mask="url(#mask64_730_18606)">
<path d="M421.273 172.801L374.097 131.06L374.409 130.708L421.586 172.449L421.273 172.801Z" fill="#3C5793"/>
</g>
<mask id="mask65_730_18606" style="mask-type:luminance" maskUnits="userSpaceOnUse" x="-113" y="-41" width="593" height="839">
<path d="M-112.858 -40.6416H479.854V797.731H-112.858V-40.6416Z" fill="white"/>
</mask>
<g mask="url(#mask65_730_18606)">
<path d="M421.586 172.448L374.409 130.708L374.721 130.354L421.899 172.094L421.586 172.448Z" fill="#3C5693"/>
</g>
<mask id="mask66_730_18606" style="mask-type:luminance" maskUnits="userSpaceOnUse" x="-113" y="-41" width="593" height="839">
<path d="M-112.858 -40.6416H479.854V797.731H-112.858V-40.6416Z" fill="white"/>
</mask>
<g mask="url(#mask66_730_18606)">
<path d="M421.899 172.094L374.721 130.354L375.034 130.002L422.211 171.741L421.899 172.094Z" fill="#3D5692"/>
</g>
<mask id="mask67_730_18606" style="mask-type:luminance" maskUnits="userSpaceOnUse" x="-113" y="-41" width="593" height="839">
<path d="M-112.858 -40.6416H479.854V797.731H-112.858V-40.6416Z" fill="white"/>
</mask>
<g mask="url(#mask67_730_18606)">
<path d="M422.211 171.742L375.034 130.002L375.346 129.648L422.525 171.388L422.211 171.742Z" fill="#3D5692"/>
</g>
<mask id="mask68_730_18606" style="mask-type:luminance" maskUnits="userSpaceOnUse" x="-113" y="-41" width="593" height="839">
<path d="M-112.858 -40.6416H479.854V797.731H-112.858V-40.6416Z" fill="white"/>
</mask>
<g mask="url(#mask68_730_18606)">
<path d="M422.525 171.387L375.346 129.648L375.658 129.294L422.836 171.033L422.525 171.387Z" fill="#3E5692"/>
</g>
<mask id="mask69_730_18606" style="mask-type:luminance" maskUnits="userSpaceOnUse" x="-113" y="-41" width="593" height="839">
<path d="M-112.858 -40.6416H479.854V797.731H-112.858V-40.6416Z" fill="white"/>
</mask>
<g mask="url(#mask69_730_18606)">
<path d="M422.836 171.034L375.658 129.294L375.97 128.943L423.148 170.683L422.836 171.034Z" fill="#3F5691"/>
</g>
<mask id="mask70_730_18606" style="mask-type:luminance" maskUnits="userSpaceOnUse" x="-113" y="-41" width="593" height="839">
<path d="M-112.858 -40.6416H479.854V797.731H-112.858V-40.6416Z" fill="white"/>
</mask>
<g mask="url(#mask70_730_18606)">
<path d="M423.148 170.683L375.97 128.943L376.283 128.588L423.46 170.327L423.148 170.683Z" fill="#3F5591"/>
</g>
<mask id="mask71_730_18606" style="mask-type:luminance" maskUnits="userSpaceOnUse" x="-113" y="-41" width="593" height="839">
<path d="M-112.858 -40.6416H479.854V797.731H-112.858V-40.6416Z" fill="white"/>
</mask>
<g mask="url(#mask71_730_18606)">
<path d="M423.46 170.327L376.283 128.588L376.596 128.237L423.774 169.975L423.46 170.327ZM423.774 169.975L376.596 128.237L376.909 127.882L424.086 169.621L423.774 169.975Z" fill="#405590"/>
</g>
<mask id="mask72_730_18606" style="mask-type:luminance" maskUnits="userSpaceOnUse" x="-113" y="-41" width="593" height="839">
<path d="M-112.858 -40.6416H479.854V797.731H-112.858V-40.6416Z" fill="white"/>
</mask>
<g mask="url(#mask72_730_18606)">
<path d="M424.086 169.622L376.909 127.883L377.221 127.53L424.397 169.27L424.086 169.622Z" fill="#40558F"/>
</g>
<mask id="mask73_730_18606" style="mask-type:luminance" maskUnits="userSpaceOnUse" x="-113" y="-41" width="593" height="839">
<path d="M-112.858 -40.6416H479.854V797.731H-112.858V-40.6416Z" fill="white"/>
</mask>
<g mask="url(#mask73_730_18606)">
<path d="M424.397 169.269L377.221 127.53L377.533 127.176L424.709 168.917L424.397 169.269Z" fill="#41558F"/>
</g>
<mask id="mask74_730_18606" style="mask-type:luminance" maskUnits="userSpaceOnUse" x="-113" y="-41" width="593" height="839">
<path d="M-112.858 -40.6416H479.854V797.731H-112.858V-40.6416Z" fill="white"/>
</mask>
<g mask="url(#mask74_730_18606)">
<path d="M424.709 168.917L377.533 127.176L377.844 126.824L425.023 168.563L424.709 168.917ZM425.023 168.563L377.847 126.824L378.156 126.47L425.334 168.209L425.023 168.563Z" fill="#42548E"/>
</g>
<mask id="mask75_730_18606" style="mask-type:luminance" maskUnits="userSpaceOnUse" x="-113" y="-41" width="593" height="839">
<path d="M-112.858 -40.6416H479.854V797.731H-112.858V-40.6416Z" fill="white"/>
</mask>
<g mask="url(#mask75_730_18606)">
<path d="M425.334 168.209L378.156 126.47L378.469 126.119L425.646 167.857L425.334 168.209Z" fill="#42548E"/>
</g>
<mask id="mask76_730_18606" style="mask-type:luminance" maskUnits="userSpaceOnUse" x="-113" y="-41" width="593" height="839">
<path d="M-112.858 -40.6416H479.854V797.731H-112.858V-40.6416Z" fill="white"/>
</mask>
<g mask="url(#mask76_730_18606)">
<path d="M425.646 167.857L378.469 126.119L378.781 125.764L425.958 167.503L425.646 167.857Z" fill="#43548D"/>
</g>
<mask id="mask77_730_18606" style="mask-type:luminance" maskUnits="userSpaceOnUse" x="-113" y="-41" width="593" height="839">
<path d="M-112.858 -40.6416H479.854V797.731H-112.858V-40.6416Z" fill="white"/>
</mask>
<g mask="url(#mask77_730_18606)">
<path d="M425.958 167.503L378.781 125.763L379.096 125.411L426.272 167.151L425.958 167.503Z" fill="#43538D"/>
</g>
<mask id="mask78_730_18606" style="mask-type:luminance" maskUnits="userSpaceOnUse" x="-113" y="-41" width="593" height="839">
<path d="M-112.858 -40.6416H479.854V797.731H-112.858V-40.6416Z" fill="white"/>
</mask>
<g mask="url(#mask78_730_18606)">
<path d="M426.272 167.151L379.096 125.411L379.407 125.058L426.584 166.797L426.272 167.151Z" fill="#44538C"/>
</g>
<mask id="mask79_730_18606" style="mask-type:luminance" maskUnits="userSpaceOnUse" x="-113" y="-41" width="593" height="839">
<path d="M-112.858 -40.6416H479.854V797.731H-112.858V-40.6416Z" fill="white"/>
</mask>
<g mask="url(#mask79_730_18606)">
<path d="M426.584 166.797L379.407 125.057L379.719 124.705L426.897 166.444L426.584 166.797Z" fill="#44538C"/>
</g>
<mask id="mask80_730_18606" style="mask-type:luminance" maskUnits="userSpaceOnUse" x="-113" y="-41" width="593" height="839">
<path d="M-112.858 -40.6416H479.854V797.731H-112.858V-40.6416Z" fill="white"/>
</mask>
<g mask="url(#mask80_730_18606)">
<path d="M426.897 166.445L379.719 124.705L380.03 124.352L427.209 166.089L426.897 166.445Z" fill="#44538C"/>
</g>
<mask id="mask81_730_18606" style="mask-type:luminance" maskUnits="userSpaceOnUse" x="-113" y="-41" width="593" height="839">
<path d="M-112.858 -40.6416H479.854V797.731H-112.858V-40.6416Z" fill="white"/>
</mask>
<g mask="url(#mask81_730_18606)">
<path d="M427.209 166.09L380.03 124.352L380.344 123.998L427.521 165.739L427.209 166.09Z" fill="#45528B"/>
</g>
<mask id="mask82_730_18606" style="mask-type:luminance" maskUnits="userSpaceOnUse" x="-113" y="-41" width="593" height="839">
<path d="M-112.858 -40.6416H479.854V797.731H-112.858V-40.6416Z" fill="white"/>
</mask>
<g mask="url(#mask82_730_18606)">
<path d="M427.521 165.739L380.344 123.998L380.655 123.646L427.835 165.385L427.521 165.739Z" fill="#45528A"/>
</g>
<mask id="mask83_730_18606" style="mask-type:luminance" maskUnits="userSpaceOnUse" x="-113" y="-41" width="593" height="839">
<path d="M-112.858 -40.6416H479.854V797.731H-112.858V-40.6416Z" fill="white"/>
</mask>
<g mask="url(#mask83_730_18606)">
<path d="M427.835 165.385L380.656 123.645L380.967 123.293L428.146 165.031L427.835 165.385Z" fill="#46528A"/>
</g>
<mask id="mask84_730_18606" style="mask-type:luminance" maskUnits="userSpaceOnUse" x="-113" y="-41" width="593" height="839">
<path d="M-112.858 -40.6416H479.854V797.731H-112.858V-40.6416Z" fill="white"/>
</mask>
<g mask="url(#mask84_730_18606)">
<path d="M428.146 165.032L380.967 123.294L381.282 122.941L428.458 164.679L428.146 165.032Z" fill="#465189"/>
</g>
<mask id="mask85_730_18606" style="mask-type:luminance" maskUnits="userSpaceOnUse" x="-113" y="-41" width="593" height="839">
<path d="M-112.858 -40.6416H479.854V797.731H-112.858V-40.6416Z" fill="white"/>
</mask>
<g mask="url(#mask85_730_18606)">
<path d="M428.458 164.679L381.282 122.941L381.595 122.586L428.77 164.328L428.458 164.679Z" fill="#475189"/>
</g>
<mask id="mask86_730_18606" style="mask-type:luminance" maskUnits="userSpaceOnUse" x="-113" y="-41" width="593" height="839">
<path d="M-112.858 -40.6416H479.854V797.731H-112.858V-40.6416Z" fill="white"/>
</mask>
<g mask="url(#mask86_730_18606)">
<path d="M428.77 164.328L381.595 122.586L381.907 122.233L429.084 163.973L428.77 164.328Z" fill="#475189"/>
</g>
<mask id="mask87_730_18606" style="mask-type:luminance" maskUnits="userSpaceOnUse" x="-113" y="-41" width="593" height="839">
<path d="M-112.858 -40.6416H479.854V797.731H-112.858V-40.6416Z" fill="white"/>
</mask>
<g mask="url(#mask87_730_18606)">
<path d="M429.084 163.973L381.907 122.233L382.218 121.881L429.396 163.62L429.084 163.973Z" fill="#475188"/>
</g>
<mask id="mask88_730_18606" style="mask-type:luminance" maskUnits="userSpaceOnUse" x="-113" y="-41" width="593" height="839">
<path d="M-112.858 -40.6416H479.854V797.731H-112.858V-40.6416Z" fill="white"/>
</mask>
<g mask="url(#mask88_730_18606)">
<path d="M429.396 163.621L382.219 121.881L382.531 121.527L429.709 163.265L429.396 163.621Z" fill="#475188"/>
</g>
<mask id="mask89_730_18606" style="mask-type:luminance" maskUnits="userSpaceOnUse" x="-113" y="-41" width="593" height="839">
<path d="M-112.858 -40.6416H479.854V797.731H-112.858V-40.6416Z" fill="white"/>
</mask>
<g mask="url(#mask89_730_18606)">
<path d="M429.709 163.265L382.531 121.527L382.844 121.175L430.021 162.913L429.709 163.265Z" fill="#485087"/>
</g>
<mask id="mask90_730_18606" style="mask-type:luminance" maskUnits="userSpaceOnUse" x="-113" y="-41" width="593" height="839">
<path d="M-112.858 -40.6416H479.854V797.731H-112.858V-40.6416Z" fill="white"/>
</mask>
<g mask="url(#mask90_730_18606)">
<path d="M430.021 162.913L382.844 121.175L383.156 120.821L430.333 162.561L430.021 162.913Z" fill="#485087"/>
</g>
<mask id="mask91_730_18606" style="mask-type:luminance" maskUnits="userSpaceOnUse" x="-113" y="-41" width="593" height="839">
<path d="M-112.858 -40.6416H479.854V797.731H-112.858V-40.6416Z" fill="white"/>
</mask>
<g mask="url(#mask91_730_18606)">
<path d="M430.333 162.561L383.156 120.822L383.468 120.468L430.646 162.207L430.333 162.561Z" fill="#485087"/>
</g>
<mask id="mask92_730_18606" style="mask-type:luminance" maskUnits="userSpaceOnUse" x="-113" y="-41" width="593" height="839">
<path d="M-112.858 -40.6416H479.854V797.731H-112.858V-40.6416Z" fill="white"/>
</mask>
<g mask="url(#mask92_730_18606)">
<path d="M430.646 162.206L383.468 120.467L383.78 120.116L430.956 161.854L430.646 162.206Z" fill="#495086"/>
</g>
<mask id="mask93_730_18606" style="mask-type:luminance" maskUnits="userSpaceOnUse" x="-113" y="-41" width="593" height="839">
<path d="M-112.858 -40.6416H479.854V797.731H-112.858V-40.6416Z" fill="white"/>
</mask>
<g mask="url(#mask93_730_18606)">
<path d="M430.956 161.854L383.78 120.117L384.093 119.763L431.27 161.501L430.956 161.854Z" fill="#494F85"/>
</g>
<mask id="mask94_730_18606" style="mask-type:luminance" maskUnits="userSpaceOnUse" x="-113" y="-41" width="593" height="839">
<path d="M-112.858 -40.6416H479.854V797.731H-112.858V-40.6416Z" fill="white"/>
</mask>
<g mask="url(#mask94_730_18606)">
<path d="M431.27 161.501L384.093 119.763L384.405 119.409L431.584 161.147L431.27 161.501Z" fill="#494F85"/>
</g>
<mask id="mask95_730_18606" style="mask-type:luminance" maskUnits="userSpaceOnUse" x="-113" y="-41" width="593" height="839">
<path d="M-112.858 -40.6416H479.854V797.731H-112.858V-40.6416Z" fill="white"/>
</mask>
<g mask="url(#mask95_730_18606)">
<path d="M431.584 161.147L384.405 119.409L384.717 119.057L431.895 160.795L431.584 161.147Z" fill="#4A4F84"/>
</g>
<mask id="mask96_730_18606" style="mask-type:luminance" maskUnits="userSpaceOnUse" x="-113" y="-41" width="593" height="839">
<path d="M-112.858 -40.6416H479.854V797.731H-112.858V-40.6416Z" fill="white"/>
</mask>
<g mask="url(#mask96_730_18606)">
<path d="M431.895 160.795L384.717 119.057L385.03 118.703L432.209 160.441L431.895 160.795Z" fill="#4A4F84"/>
</g>
<mask id="mask97_730_18606" style="mask-type:luminance" maskUnits="userSpaceOnUse" x="-113" y="-41" width="593" height="839">
<path d="M-112.858 -40.6416H479.854V797.731H-112.858V-40.6416Z" fill="white"/>
</mask>
<g mask="url(#mask97_730_18606)">
<path d="M432.209 160.441L385.03 118.703L385.343 118.351L432.518 160.09L432.209 160.441Z" fill="#4A4E84"/>
</g>
<mask id="mask98_730_18606" style="mask-type:luminance" maskUnits="userSpaceOnUse" x="-113" y="-41" width="593" height="839">
<path d="M-112.858 -40.6416H479.854V797.731H-112.858V-40.6416Z" fill="white"/>
</mask>
<g mask="url(#mask98_730_18606)">
<path d="M432.518 160.09L385.342 118.351L385.656 117.997L432.832 159.735L432.518 160.09Z" fill="#4A4E83"/>
</g>
<mask id="mask99_730_18606" style="mask-type:luminance" maskUnits="userSpaceOnUse" x="-113" y="-41" width="593" height="839">
<path d="M-112.858 -40.6416H479.854V797.731H-112.858V-40.6416Z" fill="white"/>
</mask>
<g mask="url(#mask99_730_18606)">
<path d="M432.832 159.734L385.656 117.996L385.968 117.643L433.144 159.382L432.832 159.734Z" fill="#4B4E83"/>
</g>
<mask id="mask100_730_18606" style="mask-type:luminance" maskUnits="userSpaceOnUse" x="-113" y="-41" width="593" height="839">
<path d="M-112.858 -40.6416H479.854V797.731H-112.858V-40.6416Z" fill="white"/>
</mask>
<g mask="url(#mask100_730_18606)">
<path d="M433.144 159.382L385.968 117.643L386.279 117.291L433.456 159.029L433.144 159.382ZM433.456 159.027L386.279 117.291L386.593 116.938L433.772 158.676L433.456 159.027Z" fill="#4B4E82"/>
</g>
<mask id="mask101_730_18606" style="mask-type:luminance" maskUnits="userSpaceOnUse" x="-113" y="-41" width="593" height="839">
<path d="M-112.858 -40.6416H479.854V797.731H-112.858V-40.6416Z" fill="white"/>
</mask>
<g mask="url(#mask101_730_18606)">
<path d="M433.772 158.677L386.593 116.939L386.905 116.585L434.082 158.323L433.772 158.677Z" fill="#4B4D82"/>
</g>
<mask id="mask102_730_18606" style="mask-type:luminance" maskUnits="userSpaceOnUse" x="-113" y="-41" width="593" height="839">
<path d="M-112.858 -40.6416H479.854V797.731H-112.858V-40.6416Z" fill="white"/>
</mask>
<g mask="url(#mask102_730_18606)">
<path d="M434.082 158.322L386.905 116.584L387.217 116.23L434.395 157.97L434.082 158.322Z" fill="#4C4D81"/>
</g>
<mask id="mask103_730_18606" style="mask-type:luminance" maskUnits="userSpaceOnUse" x="-113" y="-41" width="593" height="839">
<path d="M-112.858 -40.6416H479.854V797.731H-112.858V-40.6416Z" fill="white"/>
</mask>
<g mask="url(#mask103_730_18606)">
<path d="M434.395 157.971L387.217 116.231L387.529 115.879L434.707 157.617L434.395 157.971Z" fill="#4C4D80"/>
</g>
<mask id="mask104_730_18606" style="mask-type:luminance" maskUnits="userSpaceOnUse" x="-113" y="-41" width="593" height="839">
<path d="M-112.858 -40.6416H479.854V797.731H-112.858V-40.6416Z" fill="white"/>
</mask>
<g mask="url(#mask104_730_18606)">
<path d="M434.707 157.616L387.529 115.878L387.842 115.524L435.019 157.265L434.707 157.616Z" fill="#4C4C80"/>
</g>
<mask id="mask105_730_18606" style="mask-type:luminance" maskUnits="userSpaceOnUse" x="-113" y="-41" width="593" height="839">
<path d="M-112.858 -40.6416H479.854V797.731H-112.858V-40.6416Z" fill="white"/>
</mask>
<g mask="url(#mask105_730_18606)">
<path d="M435.019 157.266L387.843 115.525L388.152 115.173L435.33 156.911L435.019 157.266Z" fill="#4C4C80"/>
</g>
<mask id="mask106_730_18606" style="mask-type:luminance" maskUnits="userSpaceOnUse" x="-113" y="-41" width="593" height="839">
<path d="M-112.858 -40.6416H479.854V797.731H-112.858V-40.6416Z" fill="white"/>
</mask>
<g mask="url(#mask106_730_18606)">
<path d="M435.33 156.91L388.152 115.172L388.466 114.818L435.644 156.558L435.33 156.91Z" fill="#4D4C7F"/>
</g>
<mask id="mask107_730_18606" style="mask-type:luminance" maskUnits="userSpaceOnUse" x="-113" y="-41" width="593" height="839">
<path d="M-112.858 -40.6416H479.854V797.731H-112.858V-40.6416Z" fill="white"/>
</mask>
<g mask="url(#mask107_730_18606)">
<path d="M435.644 156.558L388.466 114.819L388.779 114.467L435.956 156.206L435.644 156.558Z" fill="#4D4C7F"/>
</g>
<mask id="mask108_730_18606" style="mask-type:luminance" maskUnits="userSpaceOnUse" x="-113" y="-41" width="593" height="839">
<path d="M-112.858 -40.6416H479.854V797.731H-112.858V-40.6416Z" fill="white"/>
</mask>
<g mask="url(#mask108_730_18606)">
<path d="M435.956 156.206L388.779 114.466L389.092 114.112L436.27 155.852L435.956 156.206Z" fill="#4D4B7E"/>
</g>
<mask id="mask109_730_18606" style="mask-type:luminance" maskUnits="userSpaceOnUse" x="-113" y="-41" width="593" height="839">
<path d="M-112.858 -40.6416H479.854V797.731H-112.858V-40.6416Z" fill="white"/>
</mask>
<g mask="url(#mask109_730_18606)">
<path d="M436.27 155.852L389.092 114.113L389.403 113.761L436.58 155.5L436.27 155.852Z" fill="#4D4B7E"/>
</g>
<mask id="mask110_730_18606" style="mask-type:luminance" maskUnits="userSpaceOnUse" x="-113" y="-41" width="593" height="839">
<path d="M-112.858 -40.6416H479.854V797.731H-112.858V-40.6416Z" fill="white"/>
</mask>
<g mask="url(#mask110_730_18606)">
<path d="M436.58 155.499L389.403 113.76L389.715 113.406L436.893 155.146L436.58 155.499Z" fill="#4D4B7E"/>
</g>
<mask id="mask111_730_18606" style="mask-type:luminance" maskUnits="userSpaceOnUse" x="-113" y="-41" width="593" height="839">
<path d="M-112.858 -40.6416H479.854V797.731H-112.858V-40.6416Z" fill="white"/>
</mask>
<g mask="url(#mask111_730_18606)">
<path d="M436.893 155.145L389.715 113.406L390.029 113.054L437.205 154.793L436.893 155.145Z" fill="#4E4B7D"/>
</g>
<mask id="mask112_730_18606" style="mask-type:luminance" maskUnits="userSpaceOnUse" x="-113" y="-41" width="593" height="839">
<path d="M-112.858 -40.6416H479.854V797.731H-112.858V-40.6416Z" fill="white"/>
</mask>
<g mask="url(#mask112_730_18606)">
<path d="M437.205 154.793L390.029 113.054L390.34 112.7L437.517 154.44L437.205 154.793Z" fill="#4E4B7D"/>
</g>
<mask id="mask113_730_18606" style="mask-type:luminance" maskUnits="userSpaceOnUse" x="-113" y="-41" width="593" height="839">
<path d="M-112.858 -40.6416H479.854V797.731H-112.858V-40.6416Z" fill="white"/>
</mask>
<g mask="url(#mask113_730_18606)">
<path d="M437.517 154.44L390.34 112.7L390.652 112.347L437.83 154.086L437.517 154.44Z" fill="#4E4A7C"/>
</g>
<mask id="mask114_730_18606" style="mask-type:luminance" maskUnits="userSpaceOnUse" x="-113" y="-41" width="593" height="839">
<path d="M-112.858 -40.6416H479.854V797.731H-112.858V-40.6416Z" fill="white"/>
</mask>
<g mask="url(#mask114_730_18606)">
<path d="M437.83 154.086L390.652 112.346L390.964 111.994L438.143 153.732L437.83 154.086Z" fill="#4E4A7B"/>
</g>
<mask id="mask115_730_18606" style="mask-type:luminance" maskUnits="userSpaceOnUse" x="-113" y="-41" width="593" height="839">
<path d="M-112.858 -40.6416H479.854V797.731H-112.858V-40.6416Z" fill="white"/>
</mask>
<g mask="url(#mask115_730_18606)">
<path d="M438.143 153.732L390.964 111.994L391.278 111.642L438.454 153.381L438.143 153.732Z" fill="#4E4A7B"/>
</g>
<mask id="mask116_730_18606" style="mask-type:luminance" maskUnits="userSpaceOnUse" x="-113" y="-41" width="593" height="839">
<path d="M-112.858 -40.6416H479.854V797.731H-112.858V-40.6416Z" fill="white"/>
</mask>
<g mask="url(#mask116_730_18606)">
<path d="M438.454 153.382L391.278 111.642L391.591 111.287L438.768 153.027L438.454 153.382Z" fill="#4E4A7B"/>
</g>
<mask id="mask117_730_18606" style="mask-type:luminance" maskUnits="userSpaceOnUse" x="-113" y="-41" width="593" height="839">
<path d="M-112.858 -40.6416H479.854V797.731H-112.858V-40.6416Z" fill="white"/>
</mask>
<g mask="url(#mask117_730_18606)">
<path d="M438.768 153.026L391.591 111.287L391.904 110.935L439.082 152.676L438.768 153.026ZM439.082 152.676L391.904 110.935L439.082 152.676Z" fill="#4F497A"/>
</g>
</g>
<mask id="mask118_730_18606" style="mask-type:luminance" maskUnits="userSpaceOnUse" x="255" y="126" width="170" height="23">
<path d="M255.467 130.718C278.95 129.786 359.644 126.614 369.148 126.24C378.653 125.868 396.73 126.056 400.833 127.173C404.931 128.292 410.335 128.852 414.436 132.397C418.536 135.941 423.285 143.59 424.591 148.626C421.997 145.113 418.753 142.828 415.182 142.285C405.425 140.799 396.359 141.353 373.065 141.539C349.768 141.724 320.323 142.097 301.688 140.231C283.049 138.367 266.463 134.263 255.467 130.718Z" fill="white"/>
</mask>
<g mask="url(#mask118_730_18606)">
<mask id="mask119_730_18606" style="mask-type:luminance" maskUnits="userSpaceOnUse" x="-113" y="-41" width="593" height="839">
<path d="M-112.858 -40.6416H479.854V797.731H-112.858V-40.6416Z" fill="white"/>
</mask>
<g mask="url(#mask119_730_18606)">
<path d="M272.02 198.879L248.706 128.096L272.02 198.879ZM272.02 198.879L248.706 128.096L249.949 127.684L273.264 198.468L272.02 198.879Z" fill="#EA233A"/>
</g>
<mask id="mask120_730_18606" style="mask-type:luminance" maskUnits="userSpaceOnUse" x="-113" y="-41" width="593" height="839">
<path d="M-112.858 -40.6416H479.854V797.731H-112.858V-40.6416Z" fill="white"/>
</mask>
<g mask="url(#mask120_730_18606)">
<path d="M273.264 198.469L249.949 127.684L251.194 127.276L274.509 198.059L273.264 198.469Z" fill="#EA233A"/>
</g>
<mask id="mask121_730_18606" style="mask-type:luminance" maskUnits="userSpaceOnUse" x="-113" y="-41" width="593" height="839">
<path d="M-112.858 -40.6416H479.854V797.731H-112.858V-40.6416Z" fill="white"/>
</mask>
<g mask="url(#mask121_730_18606)">
<path d="M274.509 198.059L251.194 127.276L252.44 126.865L275.753 197.648L274.509 198.059Z" fill="#EA233A"/>
</g>
<mask id="mask122_730_18606" style="mask-type:luminance" maskUnits="userSpaceOnUse" x="-113" y="-41" width="593" height="839">
<path d="M-112.858 -40.6416H479.854V797.731H-112.858V-40.6416Z" fill="white"/>
</mask>
<g mask="url(#mask122_730_18606)">
<path d="M275.753 197.648L252.44 126.865L253.684 126.456L276.998 197.238L275.753 197.648Z" fill="#EA233A"/>
</g>
<mask id="mask123_730_18606" style="mask-type:luminance" maskUnits="userSpaceOnUse" x="-113" y="-41" width="593" height="839">
<path d="M-112.858 -40.6416H479.854V797.731H-112.858V-40.6416Z" fill="white"/>
</mask>
<g mask="url(#mask123_730_18606)">
<path d="M276.998 197.237L253.684 126.456L254.929 126.045L278.242 196.828L276.998 197.237Z" fill="#EA243A"/>
</g>
<mask id="mask124_730_18606" style="mask-type:luminance" maskUnits="userSpaceOnUse" x="-113" y="-41" width="593" height="839">
<path d="M-112.858 -40.6416H479.854V797.731H-112.858V-40.6416Z" fill="white"/>
</mask>
<g mask="url(#mask124_730_18606)">
<path d="M278.242 196.829L254.929 126.045L256.175 125.635L279.488 196.418L278.242 196.829Z" fill="#EA243A"/>
</g>
<mask id="mask125_730_18606" style="mask-type:luminance" maskUnits="userSpaceOnUse" x="-113" y="-41" width="593" height="839">
<path d="M-112.858 -40.6416H479.854V797.731H-112.858V-40.6416Z" fill="white"/>
</mask>
<g mask="url(#mask125_730_18606)">
<path d="M279.488 196.418L256.175 125.635L257.419 125.226L280.733 196.009L279.488 196.418Z" fill="#EA243A"/>
</g>
<mask id="mask126_730_18606" style="mask-type:luminance" maskUnits="userSpaceOnUse" x="-113" y="-41" width="593" height="839">
<path d="M-112.858 -40.6416H479.854V797.731H-112.858V-40.6416Z" fill="white"/>
</mask>
<g mask="url(#mask126_730_18606)">
<path d="M280.733 196.008L257.419 125.225L258.662 124.814L281.977 195.597L280.733 196.008Z" fill="#EA243A"/>
</g>
<mask id="mask127_730_18606" style="mask-type:luminance" maskUnits="userSpaceOnUse" x="-113" y="-41" width="593" height="839">
<path d="M-112.858 -40.6416H479.854V797.731H-112.858V-40.6416Z" fill="white"/>
</mask>
<g mask="url(#mask127_730_18606)">
<path d="M281.977 195.598L258.662 124.815L259.908 124.407L283.222 195.189L281.977 195.598Z" fill="#EA243A"/>
</g>
<mask id="mask128_730_18606" style="mask-type:luminance" maskUnits="userSpaceOnUse" x="-113" y="-41" width="593" height="839">
<path d="M-112.858 -40.6416H479.854V797.731H-112.858V-40.6416Z" fill="white"/>
</mask>
<g mask="url(#mask128_730_18606)">
<path d="M283.222 195.189L259.908 124.407L261.154 123.995L284.468 194.78L283.222 195.189Z" fill="#EA243A"/>
</g>
<mask id="mask129_730_18606" style="mask-type:luminance" maskUnits="userSpaceOnUse" x="-113" y="-41" width="593" height="839">
<path d="M-112.858 -40.6416H479.854V797.731H-112.858V-40.6416Z" fill="white"/>
</mask>
<g mask="url(#mask129_730_18606)">
<path d="M284.468 194.779L261.154 123.995L262.397 123.584L285.711 194.369L284.468 194.779Z" fill="#EA243A"/>
</g>
<mask id="mask130_730_18606" style="mask-type:luminance" maskUnits="userSpaceOnUse" x="-113" y="-41" width="593" height="839">
<path d="M-112.858 -40.6416H479.854V797.731H-112.858V-40.6416Z" fill="white"/>
</mask>
<g mask="url(#mask130_730_18606)">
<path d="M285.711 194.369L262.397 123.584L263.643 123.177L286.957 193.96L285.711 194.369Z" fill="#EA243B"/>
</g>
<mask id="mask131_730_18606" style="mask-type:luminance" maskUnits="userSpaceOnUse" x="-113" y="-41" width="593" height="839">
<path d="M-112.858 -40.6416H479.854V797.731H-112.858V-40.6416Z" fill="white"/>
</mask>
<g mask="url(#mask131_730_18606)">
<path d="M286.957 193.959L263.643 123.176L264.886 122.766L288.201 193.549L286.957 193.959ZM288.201 193.549L264.886 122.766L266.132 122.356L289.446 193.138L288.201 193.549Z" fill="#EA243B"/>
</g>
<mask id="mask132_730_18606" style="mask-type:luminance" maskUnits="userSpaceOnUse" x="-113" y="-41" width="593" height="839">
<path d="M-112.858 -40.6416H479.854V797.731H-112.858V-40.6416Z" fill="white"/>
</mask>
<g mask="url(#mask132_730_18606)">
<path d="M289.446 193.138L266.132 122.356L267.377 121.945L290.692 192.728L289.446 193.138Z" fill="#EA263B"/>
</g>
<mask id="mask133_730_18606" style="mask-type:luminance" maskUnits="userSpaceOnUse" x="-113" y="-41" width="593" height="839">
<path d="M-112.858 -40.6416H479.854V797.731H-112.858V-40.6416Z" fill="white"/>
</mask>
<g mask="url(#mask133_730_18606)">
<path d="M290.692 192.728L267.377 121.945L268.623 121.536L291.935 192.318L290.692 192.728Z" fill="#EA263B"/>
</g>
<mask id="mask134_730_18606" style="mask-type:luminance" maskUnits="userSpaceOnUse" x="-113" y="-41" width="593" height="839">
<path d="M-112.858 -40.6416H479.854V797.731H-112.858V-40.6416Z" fill="white"/>
</mask>
<g mask="url(#mask134_730_18606)">
<path d="M291.935 192.318L268.623 121.537L269.866 121.126L293.179 191.909L291.935 192.318Z" fill="#EA263B"/>
</g>
<mask id="mask135_730_18606" style="mask-type:luminance" maskUnits="userSpaceOnUse" x="-113" y="-41" width="593" height="839">
<path d="M-112.858 -40.6416H479.854V797.731H-112.858V-40.6416Z" fill="white"/>
</mask>
<g mask="url(#mask135_730_18606)">
<path d="M293.179 191.909L269.866 121.126L271.11 120.717L294.425 191.498L293.179 191.909Z" fill="#EA263B"/>
</g>
<mask id="mask136_730_18606" style="mask-type:luminance" maskUnits="userSpaceOnUse" x="-113" y="-41" width="593" height="839">
<path d="M-112.858 -40.6416H479.854V797.731H-112.858V-40.6416Z" fill="white"/>
</mask>
<g mask="url(#mask136_730_18606)">
<path d="M294.425 191.498L271.11 120.716L272.356 120.306L295.67 191.089L294.425 191.498Z" fill="#EA263B"/>
</g>
<mask id="mask137_730_18606" style="mask-type:luminance" maskUnits="userSpaceOnUse" x="-113" y="-41" width="593" height="839">
<path d="M-112.858 -40.6416H479.854V797.731H-112.858V-40.6416Z" fill="white"/>
</mask>
<g mask="url(#mask137_730_18606)">
<path d="M295.67 191.089L272.356 120.306L273.599 119.896L296.916 190.679L295.67 191.089Z" fill="#EA263B"/>
</g>
<mask id="mask138_730_18606" style="mask-type:luminance" maskUnits="userSpaceOnUse" x="-113" y="-41" width="593" height="839">
<path d="M-112.858 -40.6416H479.854V797.731H-112.858V-40.6416Z" fill="white"/>
</mask>
<g mask="url(#mask138_730_18606)">
<path d="M296.916 190.678L273.599 119.895L274.845 119.484L298.159 190.267L296.916 190.678Z" fill="#EA263B"/>
</g>
<mask id="mask139_730_18606" style="mask-type:luminance" maskUnits="userSpaceOnUse" x="-113" y="-41" width="593" height="839">
<path d="M-112.858 -40.6416H479.854V797.731H-112.858V-40.6416Z" fill="white"/>
</mask>
<g mask="url(#mask139_730_18606)">
<path d="M298.159 190.268L274.845 119.485L276.09 119.077L299.405 189.859L298.159 190.268Z" fill="#EA263B"/>
</g>
<mask id="mask140_730_18606" style="mask-type:luminance" maskUnits="userSpaceOnUse" x="-113" y="-41" width="593" height="839">
<path d="M-112.858 -40.6416H479.854V797.731H-112.858V-40.6416Z" fill="white"/>
</mask>
<g mask="url(#mask140_730_18606)">
<path d="M299.405 189.858L276.09 119.077L277.336 118.666L300.649 189.448L299.405 189.858Z" fill="#EA263B"/>
</g>
<mask id="mask141_730_18606" style="mask-type:luminance" maskUnits="userSpaceOnUse" x="-113" y="-41" width="593" height="839">
<path d="M-112.858 -40.6416H479.854V797.731H-112.858V-40.6416Z" fill="white"/>
</mask>
<g mask="url(#mask141_730_18606)">
<path d="M300.649 189.448L277.336 118.666L278.58 118.257L301.892 189.037L300.649 189.448Z" fill="#EA283B"/>
</g>
<mask id="mask142_730_18606" style="mask-type:luminance" maskUnits="userSpaceOnUse" x="-113" y="-41" width="593" height="839">
<path d="M-112.858 -40.6416H479.854V797.731H-112.858V-40.6416Z" fill="white"/>
</mask>
<g mask="url(#mask142_730_18606)">
<path d="M301.892 189.036L278.58 118.256L279.825 117.846L303.14 188.629L301.892 189.036Z" fill="#EA283B"/>
</g>
<mask id="mask143_730_18606" style="mask-type:luminance" maskUnits="userSpaceOnUse" x="-113" y="-41" width="593" height="839">
<path d="M-112.858 -40.6416H479.854V797.731H-112.858V-40.6416Z" fill="white"/>
</mask>
<g mask="url(#mask143_730_18606)">
<path d="M303.14 188.629L279.825 117.846L281.069 117.436L304.383 188.219L303.14 188.629Z" fill="#EA283C"/>
</g>
<mask id="mask144_730_18606" style="mask-type:luminance" maskUnits="userSpaceOnUse" x="-113" y="-41" width="593" height="839">
<path d="M-112.858 -40.6416H479.854V797.731H-112.858V-40.6416Z" fill="white"/>
</mask>
<g mask="url(#mask144_730_18606)">
<path d="M304.383 188.218L281.069 117.435L282.312 117.026L305.629 187.807L304.383 188.218ZM305.629 187.807L282.312 117.026L283.558 116.615L306.872 187.397L305.629 187.807Z" fill="#EA283C"/>
</g>
<mask id="mask145_730_18606" style="mask-type:luminance" maskUnits="userSpaceOnUse" x="-113" y="-41" width="593" height="839">
<path d="M-112.858 -40.6416H479.854V797.731H-112.858V-40.6416Z" fill="white"/>
</mask>
<g mask="url(#mask145_730_18606)">
<path d="M306.872 187.397L283.558 116.615L284.805 116.206L308.118 186.986L306.872 187.397Z" fill="#EA283C"/>
</g>
<mask id="mask146_730_18606" style="mask-type:luminance" maskUnits="userSpaceOnUse" x="-113" y="-41" width="593" height="839">
<path d="M-112.858 -40.6416H479.854V797.731H-112.858V-40.6416Z" fill="white"/>
</mask>
<g mask="url(#mask146_730_18606)">
<path d="M308.118 186.987L284.805 116.207L286.049 115.796L309.362 186.579L308.118 186.987Z" fill="#EA283C"/>
</g>
<mask id="mask147_730_18606" style="mask-type:luminance" maskUnits="userSpaceOnUse" x="-113" y="-41" width="593" height="839">
<path d="M-112.858 -40.6416H479.854V797.731H-112.858V-40.6416Z" fill="white"/>
</mask>
<g mask="url(#mask147_730_18606)">
<path d="M309.362 186.579L286.049 115.796L287.294 115.385L310.605 186.168L309.362 186.579ZM310.605 186.168L287.294 115.385L288.538 114.978L311.853 185.757L310.605 186.168Z" fill="#EA283C"/>
</g>
<mask id="mask148_730_18606" style="mask-type:luminance" maskUnits="userSpaceOnUse" x="-113" y="-41" width="593" height="839">
<path d="M-112.858 -40.6416H479.854V797.731H-112.858V-40.6416Z" fill="white"/>
</mask>
<g mask="url(#mask148_730_18606)">
<path d="M311.853 185.757L288.538 114.977L289.781 114.564L313.096 185.347L311.853 185.757Z" fill="#EA283C"/>
</g>
<mask id="mask149_730_18606" style="mask-type:luminance" maskUnits="userSpaceOnUse" x="-113" y="-41" width="593" height="839">
<path d="M-112.858 -40.6416H479.854V797.731H-112.858V-40.6416Z" fill="white"/>
</mask>
<g mask="url(#mask149_730_18606)">
<path d="M313.096 185.348L289.781 114.564L291.029 114.155L314.342 184.937L313.096 185.348Z" fill="#EA293D"/>
</g>
<mask id="mask150_730_18606" style="mask-type:luminance" maskUnits="userSpaceOnUse" x="-113" y="-41" width="593" height="839">
<path d="M-112.858 -40.6416H479.854V797.731H-112.858V-40.6416Z" fill="white"/>
</mask>
<g mask="url(#mask150_730_18606)">
<path d="M314.342 184.937L291.029 114.155L292.272 113.746L315.586 184.528L314.342 184.937Z" fill="#EA293D"/>
</g>
<mask id="mask151_730_18606" style="mask-type:luminance" maskUnits="userSpaceOnUse" x="-113" y="-41" width="593" height="839">
<path d="M-112.858 -40.6416H479.854V797.731H-112.858V-40.6416Z" fill="white"/>
</mask>
<g mask="url(#mask151_730_18606)">
<path d="M315.586 184.528L292.272 113.746L293.518 113.334L316.829 184.117L315.586 184.528Z" fill="#EA293D"/>
</g>
<mask id="mask152_730_18606" style="mask-type:luminance" maskUnits="userSpaceOnUse" x="-113" y="-41" width="593" height="839">
<path d="M-112.858 -40.6416H479.854V797.731H-112.858V-40.6416Z" fill="white"/>
</mask>
<g mask="url(#mask152_730_18606)">
<path d="M316.829 184.117L293.518 113.334L294.761 112.925L318.075 183.706L316.829 184.117Z" fill="#EA293D"/>
</g>
<mask id="mask153_730_18606" style="mask-type:luminance" maskUnits="userSpaceOnUse" x="-113" y="-41" width="593" height="839">
<path d="M-112.858 -40.6416H479.854V797.731H-112.858V-40.6416Z" fill="white"/>
</mask>
<g mask="url(#mask153_730_18606)">
<path d="M318.076 183.707L294.761 112.925L296.008 112.515L319.32 183.298L318.076 183.707Z" fill="#EA293D"/>
</g>
<mask id="mask154_730_18606" style="mask-type:luminance" maskUnits="userSpaceOnUse" x="-113" y="-41" width="593" height="839">
<path d="M-112.858 -40.6416H479.854V797.731H-112.858V-40.6416Z" fill="white"/>
</mask>
<g mask="url(#mask154_730_18606)">
<path d="M319.32 183.297L296.008 112.514L297.251 112.106L320.564 182.886L319.32 183.297Z" fill="#EA293D"/>
</g>
<mask id="mask155_730_18606" style="mask-type:luminance" maskUnits="userSpaceOnUse" x="-113" y="-41" width="593" height="839">
<path d="M-112.858 -40.6416H479.854V797.731H-112.858V-40.6416Z" fill="white"/>
</mask>
<g mask="url(#mask155_730_18606)">
<path d="M320.565 182.887L297.251 112.107L298.496 111.696L321.809 182.478L320.565 182.887Z" fill="#EA293D"/>
</g>
<mask id="mask156_730_18606" style="mask-type:luminance" maskUnits="userSpaceOnUse" x="-113" y="-41" width="593" height="839">
<path d="M-112.858 -40.6416H479.854V797.731H-112.858V-40.6416Z" fill="white"/>
</mask>
<g mask="url(#mask156_730_18606)">
<path d="M321.809 182.477L298.496 111.695L299.742 111.283L323.055 182.068L321.809 182.477Z" fill="#EA293D"/>
</g>
<mask id="mask157_730_18606" style="mask-type:luminance" maskUnits="userSpaceOnUse" x="-113" y="-41" width="593" height="839">
<path d="M-112.858 -40.6416H479.854V797.731H-112.858V-40.6416Z" fill="white"/>
</mask>
<g mask="url(#mask157_730_18606)">
<path d="M323.055 182.068L299.742 111.284L300.986 110.876L324.3 181.657L323.055 182.068Z" fill="#EA293D"/>
</g>
<mask id="mask158_730_18606" style="mask-type:luminance" maskUnits="userSpaceOnUse" x="-113" y="-41" width="593" height="839">
<path d="M-112.858 -40.6416H479.854V797.731H-112.858V-40.6416Z" fill="white"/>
</mask>
<g mask="url(#mask158_730_18606)">
<path d="M324.3 181.657L300.986 110.876L302.231 110.465L325.544 181.248L324.3 181.657Z" fill="#EA2B3D"/>
</g>
<mask id="mask159_730_18606" style="mask-type:luminance" maskUnits="userSpaceOnUse" x="-113" y="-41" width="593" height="839">
<path d="M-112.858 -40.6416H479.854V797.731H-112.858V-40.6416Z" fill="white"/>
</mask>
<g mask="url(#mask159_730_18606)">
<path d="M325.544 181.248L302.231 110.465L303.475 110.056L326.789 180.837L325.544 181.248Z" fill="#EA2B3D"/>
</g>
<mask id="mask160_730_18606" style="mask-type:luminance" maskUnits="userSpaceOnUse" x="-113" y="-41" width="593" height="839">
<path d="M-112.858 -40.6416H479.854V797.731H-112.858V-40.6416Z" fill="white"/>
</mask>
<g mask="url(#mask160_730_18606)">
<path d="M326.789 180.838L303.475 110.056L304.721 109.646L328.033 180.429L326.789 180.838Z" fill="#EA2B3D"/>
</g>
<mask id="mask161_730_18606" style="mask-type:luminance" maskUnits="userSpaceOnUse" x="-113" y="-41" width="593" height="839">
<path d="M-112.858 -40.6416H479.854V797.731H-112.858V-40.6416Z" fill="white"/>
</mask>
<g mask="url(#mask161_730_18606)">
<path d="M328.033 180.428L304.721 109.645L305.964 109.234L329.278 180.017L328.033 180.428Z" fill="#EA2B3D"/>
</g>
<mask id="mask162_730_18606" style="mask-type:luminance" maskUnits="userSpaceOnUse" x="-113" y="-41" width="593" height="839">
<path d="M-112.858 -40.6416H479.854V797.731H-112.858V-40.6416Z" fill="white"/>
</mask>
<g mask="url(#mask162_730_18606)">
<path d="M329.278 180.018L305.964 109.235L307.209 108.826L330.524 179.609L329.278 180.018ZM330.524 179.607L307.209 108.826L308.455 108.415L331.768 179.198L330.524 179.607Z" fill="#EA2B3E"/>
</g>
<mask id="mask163_730_18606" style="mask-type:luminance" maskUnits="userSpaceOnUse" x="-113" y="-41" width="593" height="839">
<path d="M-112.858 -40.6416H479.854V797.731H-112.858V-40.6416Z" fill="white"/>
</mask>
<g mask="url(#mask163_730_18606)">
<path d="M331.768 179.198L308.455 108.415L309.698 108.006L333.014 178.787L331.768 179.198Z" fill="#EA2B3E"/>
</g>
<mask id="mask164_730_18606" style="mask-type:luminance" maskUnits="userSpaceOnUse" x="-113" y="-41" width="593" height="839">
<path d="M-112.858 -40.6416H479.854V797.731H-112.858V-40.6416Z" fill="white"/>
</mask>
<g mask="url(#mask164_730_18606)">
<path d="M333.014 178.787L309.698 108.005L310.944 107.595L334.257 178.378L333.014 178.787Z" fill="#EA2B3E"/>
</g>
<mask id="mask165_730_18606" style="mask-type:luminance" maskUnits="userSpaceOnUse" x="-113" y="-41" width="593" height="839">
<path d="M-112.858 -40.6416H479.854V797.731H-112.858V-40.6416Z" fill="white"/>
</mask>
<g mask="url(#mask165_730_18606)">
<path d="M334.257 178.378L310.944 107.595L312.188 107.186L335.503 177.967L334.257 178.378Z" fill="#EA2B3E"/>
</g>
<mask id="mask166_730_18606" style="mask-type:luminance" maskUnits="userSpaceOnUse" x="-113" y="-41" width="593" height="839">
<path d="M-112.858 -40.6416H479.854V797.731H-112.858V-40.6416Z" fill="white"/>
</mask>
<g mask="url(#mask166_730_18606)">
<path d="M335.503 177.967L312.188 107.185L313.433 106.774L336.746 177.557L335.503 177.967Z" fill="#EA2C3E"/>
</g>
<mask id="mask167_730_18606" style="mask-type:luminance" maskUnits="userSpaceOnUse" x="-113" y="-41" width="593" height="839">
<path d="M-112.858 -40.6416H479.854V797.731H-112.858V-40.6416Z" fill="white"/>
</mask>
<g mask="url(#mask167_730_18606)">
<path d="M336.746 177.558L313.433 106.775L314.68 106.364L337.992 177.147L336.746 177.558Z" fill="#EA2C3E"/>
</g>
<mask id="mask168_730_18606" style="mask-type:luminance" maskUnits="userSpaceOnUse" x="-113" y="-41" width="593" height="839">
<path d="M-112.858 -40.6416H479.854V797.731H-112.858V-40.6416Z" fill="white"/>
</mask>
<g mask="url(#mask168_730_18606)">
<path d="M337.992 177.147L314.68 106.364L315.922 105.955L339.237 176.737L337.992 177.147Z" fill="#EA2C3E"/>
</g>
<mask id="mask169_730_18606" style="mask-type:luminance" maskUnits="userSpaceOnUse" x="-113" y="-41" width="593" height="839">
<path d="M-112.858 -40.6416H479.854V797.731H-112.858V-40.6416Z" fill="white"/>
</mask>
<g mask="url(#mask169_730_18606)">
<path d="M339.237 176.737L315.922 105.955L317.168 105.546L340.481 176.329L339.237 176.737Z" fill="#EA2C3E"/>
</g>
<mask id="mask170_730_18606" style="mask-type:luminance" maskUnits="userSpaceOnUse" x="-113" y="-41" width="593" height="839">
<path d="M-112.858 -40.6416H479.854V797.731H-112.858V-40.6416Z" fill="white"/>
</mask>
<g mask="url(#mask170_730_18606)">
<path d="M340.481 176.329L317.168 105.545L318.412 105.135L341.727 175.918L340.481 176.329Z" fill="#EA2C3E"/>
</g>
<mask id="mask171_730_18606" style="mask-type:luminance" maskUnits="userSpaceOnUse" x="-113" y="-41" width="593" height="839">
<path d="M-112.858 -40.6416H479.854V797.731H-112.858V-40.6416Z" fill="white"/>
</mask>
<g mask="url(#mask171_730_18606)">
<path d="M341.727 175.918L318.412 105.135L319.658 104.725L342.972 175.508L341.727 175.918Z" fill="#EA2C3E"/>
</g>
<mask id="mask172_730_18606" style="mask-type:luminance" maskUnits="userSpaceOnUse" x="-113" y="-41" width="593" height="839">
<path d="M-112.858 -40.6416H479.854V797.731H-112.858V-40.6416Z" fill="white"/>
</mask>
<g mask="url(#mask172_730_18606)">
<path d="M342.972 175.507L319.658 104.724L320.901 104.316L344.216 175.098L342.972 175.507Z" fill="#EA2C3E"/>
</g>
<mask id="mask173_730_18606" style="mask-type:luminance" maskUnits="userSpaceOnUse" x="-113" y="-41" width="593" height="839">
<path d="M-112.858 -40.6416H479.854V797.731H-112.858V-40.6416Z" fill="white"/>
</mask>
<g mask="url(#mask173_730_18606)">
<path d="M344.216 175.098L320.901 104.317L322.147 103.904L345.459 174.686L344.216 175.098Z" fill="#EA2C3E"/>
</g>
<mask id="mask174_730_18606" style="mask-type:luminance" maskUnits="userSpaceOnUse" x="-113" y="-41" width="593" height="839">
<path d="M-112.858 -40.6416H479.854V797.731H-112.858V-40.6416Z" fill="white"/>
</mask>
<g mask="url(#mask174_730_18606)">
<path d="M345.459 174.686L322.147 103.904L323.392 103.495L346.705 174.278L345.459 174.686Z" fill="#EA2C3E"/>
</g>
<mask id="mask175_730_18606" style="mask-type:luminance" maskUnits="userSpaceOnUse" x="-113" y="-41" width="593" height="839">
<path d="M-112.858 -40.6416H479.854V797.731H-112.858V-40.6416Z" fill="white"/>
</mask>
<g mask="url(#mask175_730_18606)">
<path d="M346.705 174.278L323.392 103.495L324.636 103.084L347.948 173.867L346.705 174.278Z" fill="#EA2C3E"/>
</g>
<mask id="mask176_730_18606" style="mask-type:luminance" maskUnits="userSpaceOnUse" x="-113" y="-41" width="593" height="839">
<path d="M-112.858 -40.6416H479.854V797.731H-112.858V-40.6416Z" fill="white"/>
</mask>
<g mask="url(#mask176_730_18606)">
<path d="M347.948 173.867L324.636 103.084L325.881 102.677L349.196 173.457L347.948 173.867Z" fill="#EA2E3F"/>
</g>
<mask id="mask177_730_18606" style="mask-type:luminance" maskUnits="userSpaceOnUse" x="-113" y="-41" width="593" height="839">
<path d="M-112.858 -40.6416H479.854V797.731H-112.858V-40.6416Z" fill="white"/>
</mask>
<g mask="url(#mask177_730_18606)">
<path d="M349.196 173.457L325.881 102.677L327.125 102.266L350.44 173.049L349.196 173.457ZM350.44 173.049L327.125 102.266L328.371 101.855L351.683 172.637L350.44 173.049Z" fill="#EA2E3F"/>
</g>
<mask id="mask178_730_18606" style="mask-type:luminance" maskUnits="userSpaceOnUse" x="-113" y="-41" width="593" height="839">
<path d="M-112.858 -40.6416H479.854V797.731H-112.858V-40.6416Z" fill="white"/>
</mask>
<g mask="url(#mask178_730_18606)">
<path d="M351.683 172.637L328.372 101.855L329.616 101.446L352.929 172.227L351.683 172.637ZM352.929 172.227L329.616 101.446L330.861 101.035L354.174 171.817L352.929 172.227Z" fill="#EA2E3F"/>
</g>
<mask id="mask179_730_18606" style="mask-type:luminance" maskUnits="userSpaceOnUse" x="-113" y="-41" width="593" height="839">
<path d="M-112.858 -40.6416H479.854V797.731H-112.858V-40.6416Z" fill="white"/>
</mask>
<g mask="url(#mask179_730_18606)">
<path d="M354.174 171.817L330.86 101.035L332.107 100.626L355.418 171.407L354.174 171.817Z" fill="#EA2E3F"/>
</g>
<mask id="mask180_730_18606" style="mask-type:luminance" maskUnits="userSpaceOnUse" x="-113" y="-41" width="593" height="839">
<path d="M-112.858 -40.6416H479.854V797.731H-112.858V-40.6416Z" fill="white"/>
</mask>
<g mask="url(#mask180_730_18606)">
<path d="M355.418 171.407L332.107 100.626L333.35 100.215L356.664 170.998L355.418 171.407Z" fill="#EA2E3F"/>
</g>
<mask id="mask181_730_18606" style="mask-type:luminance" maskUnits="userSpaceOnUse" x="-113" y="-41" width="593" height="839">
<path d="M-112.858 -40.6416H479.854V797.731H-112.858V-40.6416Z" fill="white"/>
</mask>
<g mask="url(#mask181_730_18606)">
<path d="M356.664 170.998L333.35 100.215L334.594 99.8057L357.909 170.587L356.664 170.998Z" fill="#EA2E3F"/>
</g>
<mask id="mask182_730_18606" style="mask-type:luminance" maskUnits="userSpaceOnUse" x="-113" y="-41" width="593" height="839">
<path d="M-112.858 -40.6416H479.854V797.731H-112.858V-40.6416Z" fill="white"/>
</mask>
<g mask="url(#mask182_730_18606)">
<path d="M357.909 170.588L334.594 99.8062L335.84 99.3955L359.155 170.179L357.909 170.588Z" fill="#EA2E3F"/>
</g>
<mask id="mask183_730_18606" style="mask-type:luminance" maskUnits="userSpaceOnUse" x="-113" y="-41" width="593" height="839">
<path d="M-112.858 -40.6416H479.854V797.731H-112.858V-40.6416Z" fill="white"/>
</mask>
<g mask="url(#mask183_730_18606)">
<path d="M359.155 170.178L335.84 99.3951L337.085 98.9844L360.396 169.766L359.155 170.178Z" fill="#EA2F40"/>
</g>
<mask id="mask184_730_18606" style="mask-type:luminance" maskUnits="userSpaceOnUse" x="-113" y="-41" width="593" height="839">
<path d="M-112.858 -40.6416H479.854V797.731H-112.858V-40.6416Z" fill="white"/>
</mask>
<g mask="url(#mask184_730_18606)">
<path d="M360.396 169.766L337.085 98.985L338.331 98.5758L361.642 169.357L360.396 169.766ZM361.642 169.357L338.331 98.5758L339.574 98.165L362.885 168.947L361.642 169.357ZM362.885 168.947L339.574 98.165L362.885 168.947Z" fill="#EA2F40"/>
</g>
</g>
<mask id="mask185_730_18606" style="mask-type:luminance" maskUnits="userSpaceOnUse" x="255" y="126" width="170" height="23">
<path d="M255.467 130.718C278.95 129.786 359.644 126.614 369.148 126.24C378.653 125.868 396.73 126.056 400.833 127.173C404.931 128.292 410.335 128.852 414.436 132.397C418.536 135.941 423.285 143.59 424.591 148.626C421.997 145.113 418.753 142.828 415.182 142.285C405.425 140.799 396.359 141.353 373.065 141.539C349.768 141.724 320.323 142.097 301.688 140.231C283.049 138.367 266.463 134.263 255.467 130.718Z" fill="white"/>
</mask>
<g mask="url(#mask185_730_18606)">
<mask id="mask186_730_18606" style="mask-type:luminance" maskUnits="userSpaceOnUse" x="-113" y="-41" width="593" height="839">
<path d="M-112.858 -40.6416H479.854V797.731H-112.858V-40.6416Z" fill="white"/>
</mask>
<g mask="url(#mask186_730_18606)">
<path d="M362.888 168.948L339.575 98.1666L340.82 97.7559L364.133 168.54L362.888 168.948Z" fill="#EA2F40"/>
</g>
<mask id="mask187_730_18606" style="mask-type:luminance" maskUnits="userSpaceOnUse" x="-113" y="-41" width="593" height="839">
<path d="M-112.858 -40.6416H479.854V797.731H-112.858V-40.6416Z" fill="white"/>
</mask>
<g mask="url(#mask187_730_18606)">
<path d="M364.133 168.54L340.82 97.7559L342.064 97.3467L365.379 168.13L364.133 168.54Z" fill="#EA3643"/>
</g>
<mask id="mask188_730_18606" style="mask-type:luminance" maskUnits="userSpaceOnUse" x="-113" y="-41" width="593" height="839">
<path d="M-112.858 -40.6416H479.854V797.731H-112.858V-40.6416Z" fill="white"/>
</mask>
<g mask="url(#mask188_730_18606)">
<path d="M365.379 168.13L342.064 97.3467L343.309 96.9375L366.624 167.721L365.379 168.13Z" fill="#EB3C47"/>
</g>
<mask id="mask189_730_18606" style="mask-type:luminance" maskUnits="userSpaceOnUse" x="-113" y="-41" width="593" height="839">
<path d="M-112.858 -40.6416H479.854V797.731H-112.858V-40.6416Z" fill="white"/>
</mask>
<g mask="url(#mask189_730_18606)">
<path d="M366.624 167.721L343.309 96.9375L344.553 96.5283L367.868 167.308L366.624 167.721Z" fill="#EB424A"/>
</g>
<mask id="mask190_730_18606" style="mask-type:luminance" maskUnits="userSpaceOnUse" x="-113" y="-41" width="593" height="839">
<path d="M-112.858 -40.6416H479.854V797.731H-112.858V-40.6416Z" fill="white"/>
</mask>
<g mask="url(#mask190_730_18606)">
<path d="M367.868 167.308L344.553 96.5279L345.798 96.1172L369.111 166.9L367.868 167.308Z" fill="#EB484E"/>
</g>
<mask id="mask191_730_18606" style="mask-type:luminance" maskUnits="userSpaceOnUse" x="-113" y="-41" width="593" height="839">
<path d="M-112.858 -40.6416H479.854V797.731H-112.858V-40.6416Z" fill="white"/>
</mask>
<g mask="url(#mask191_730_18606)">
<path d="M369.111 166.9L345.798 96.1174L347.045 95.7051L370.357 166.49L369.111 166.9Z" fill="#EC4D51"/>
</g>
<mask id="mask192_730_18606" style="mask-type:luminance" maskUnits="userSpaceOnUse" x="-113" y="-41" width="593" height="839">
<path d="M-112.858 -40.6416H479.854V797.731H-112.858V-40.6416Z" fill="white"/>
</mask>
<g mask="url(#mask192_730_18606)">
<path d="M370.357 166.489L347.045 95.7045L348.288 95.2969L371.6 166.077L370.357 166.489Z" fill="#EC5255"/>
</g>
<mask id="mask193_730_18606" style="mask-type:luminance" maskUnits="userSpaceOnUse" x="-113" y="-41" width="593" height="839">
<path d="M-112.858 -40.6416H479.854V797.731H-112.858V-40.6416Z" fill="white"/>
</mask>
<g mask="url(#mask193_730_18606)">
<path d="M371.6 166.077L348.288 95.2975L349.533 94.8867L372.848 165.67L371.6 166.077Z" fill="#EC5759"/>
</g>
<mask id="mask194_730_18606" style="mask-type:luminance" maskUnits="userSpaceOnUse" x="-113" y="-41" width="593" height="839">
<path d="M-112.858 -40.6416H479.854V797.731H-112.858V-40.6416Z" fill="white"/>
</mask>
<g mask="url(#mask194_730_18606)">
<path d="M372.848 165.67L349.533 94.8867L350.777 94.4775L374.092 165.259L372.848 165.67Z" fill="#ED5C5C"/>
</g>
<mask id="mask195_730_18606" style="mask-type:luminance" maskUnits="userSpaceOnUse" x="-113" y="-41" width="593" height="839">
<path d="M-112.858 -40.6416H479.854V797.731H-112.858V-40.6416Z" fill="white"/>
</mask>
<g mask="url(#mask195_730_18606)">
<path d="M374.092 165.259L350.777 94.4771L352.022 94.0664L375.337 164.849L374.092 165.259Z" fill="#ED6160"/>
</g>
<mask id="mask196_730_18606" style="mask-type:luminance" maskUnits="userSpaceOnUse" x="-113" y="-41" width="593" height="839">
<path d="M-112.858 -40.6416H479.854V797.731H-112.858V-40.6416Z" fill="white"/>
</mask>
<g mask="url(#mask196_730_18606)">
<path d="M375.337 164.85L352.022 94.067L353.268 93.6562L376.581 164.439L375.337 164.85Z" fill="#ED6564"/>
</g>
<mask id="mask197_730_18606" style="mask-type:luminance" maskUnits="userSpaceOnUse" x="-113" y="-41" width="593" height="839">
<path d="M-112.858 -40.6416H479.854V797.731H-112.858V-40.6416Z" fill="white"/>
</mask>
<g mask="url(#mask197_730_18606)">
<path d="M376.581 164.439L353.268 93.6563L354.512 93.2471L377.826 164.029L376.581 164.439Z" fill="#EE6A68"/>
</g>
<mask id="mask198_730_18606" style="mask-type:luminance" maskUnits="userSpaceOnUse" x="-113" y="-41" width="593" height="839">
<path d="M-112.858 -40.6416H479.854V797.731H-112.858V-40.6416Z" fill="white"/>
</mask>
<g mask="url(#mask198_730_18606)">
<path d="M377.826 164.028L354.512 93.2467L355.758 92.8359L379.07 163.619L377.826 164.028Z" fill="#EE6E6C"/>
</g>
<mask id="mask199_730_18606" style="mask-type:luminance" maskUnits="userSpaceOnUse" x="-113" y="-41" width="593" height="839">
<path d="M-112.858 -40.6416H479.854V797.731H-112.858V-40.6416Z" fill="white"/>
</mask>
<g mask="url(#mask199_730_18606)">
<path d="M379.07 163.619L355.758 92.836L357.001 92.4268L380.315 163.208L379.07 163.619Z" fill="#EE7270"/>
</g>
<mask id="mask200_730_18606" style="mask-type:luminance" maskUnits="userSpaceOnUse" x="-113" y="-41" width="593" height="839">
<path d="M-112.858 -40.6416H479.854V797.731H-112.858V-40.6416Z" fill="white"/>
</mask>
<g mask="url(#mask200_730_18606)">
<path d="M380.315 163.208L357.001 92.4264L358.246 92.0156L381.561 162.799L380.315 163.208Z" fill="#EF7674"/>
</g>
<mask id="mask201_730_18606" style="mask-type:luminance" maskUnits="userSpaceOnUse" x="-113" y="-41" width="593" height="839">
<path d="M-112.858 -40.6416H479.854V797.731H-112.858V-40.6416Z" fill="white"/>
</mask>
<g mask="url(#mask201_730_18606)">
<path d="M381.561 162.799L358.246 92.0156L359.49 91.6064L382.805 162.389L381.561 162.799Z" fill="#EF7A79"/>
</g>
<mask id="mask202_730_18606" style="mask-type:luminance" maskUnits="userSpaceOnUse" x="-113" y="-41" width="593" height="839">
<path d="M-112.858 -40.6416H479.854V797.731H-112.858V-40.6416Z" fill="white"/>
</mask>
<g mask="url(#mask202_730_18606)">
<path d="M382.805 162.389L359.49 91.607L360.736 91.1963L384.05 161.979L382.805 162.389Z" fill="#EF7E7D"/>
</g>
<mask id="mask203_730_18606" style="mask-type:luminance" maskUnits="userSpaceOnUse" x="-113" y="-41" width="593" height="839">
<path d="M-112.858 -40.6416H479.854V797.731H-112.858V-40.6416Z" fill="white"/>
</mask>
<g mask="url(#mask203_730_18606)">
<path d="M384.05 161.979L360.736 91.1959L361.981 90.7852L385.294 161.568L384.05 161.979Z" fill="#F08282"/>
</g>
<mask id="mask204_730_18606" style="mask-type:luminance" maskUnits="userSpaceOnUse" x="-113" y="-41" width="593" height="839">
<path d="M-112.858 -40.6416H479.854V797.731H-112.858V-40.6416Z" fill="white"/>
</mask>
<g mask="url(#mask204_730_18606)">
<path d="M385.294 161.569L361.981 90.7856L363.225 90.3779L386.539 161.158L385.294 161.569Z" fill="#F08586"/>
</g>
<mask id="mask205_730_18606" style="mask-type:luminance" maskUnits="userSpaceOnUse" x="-113" y="-41" width="593" height="839">
<path d="M-112.858 -40.6416H479.854V797.731H-112.858V-40.6416Z" fill="white"/>
</mask>
<g mask="url(#mask205_730_18606)">
<path d="M386.539 161.157L363.225 90.3775L364.47 89.9668L387.783 160.75L386.539 161.157Z" fill="#F08A8B"/>
</g>
<mask id="mask206_730_18606" style="mask-type:luminance" maskUnits="userSpaceOnUse" x="-113" y="-41" width="593" height="839">
<path d="M-112.858 -40.6416H479.854V797.731H-112.858V-40.6416Z" fill="white"/>
</mask>
<g mask="url(#mask206_730_18606)">
<path d="M387.783 160.75L364.47 89.9674L365.716 89.5566L389.029 160.34L387.783 160.75Z" fill="#F18D8F"/>
</g>
<mask id="mask207_730_18606" style="mask-type:luminance" maskUnits="userSpaceOnUse" x="-113" y="-41" width="593" height="839">
<path d="M-112.858 -40.6416H479.854V797.731H-112.858V-40.6416Z" fill="white"/>
</mask>
<g mask="url(#mask207_730_18606)">
<path d="M389.029 160.34L365.716 89.5567L366.96 89.1475L390.274 159.929L389.029 160.34Z" fill="#F19194"/>
</g>
<mask id="mask208_730_18606" style="mask-type:luminance" maskUnits="userSpaceOnUse" x="-113" y="-41" width="593" height="839">
<path d="M-112.858 -40.6416H479.854V797.731H-112.858V-40.6416Z" fill="white"/>
</mask>
<g mask="url(#mask208_730_18606)">
<path d="M390.274 159.929L366.96 89.1471L368.203 88.7363L391.518 159.519L390.274 159.929Z" fill="#F19598"/>
</g>
<mask id="mask209_730_18606" style="mask-type:luminance" maskUnits="userSpaceOnUse" x="-113" y="-41" width="593" height="839">
<path d="M-112.858 -40.6416H479.854V797.731H-112.858V-40.6416Z" fill="white"/>
</mask>
<g mask="url(#mask209_730_18606)">
<path d="M391.518 159.519L368.203 88.7363L369.449 88.3271L392.763 159.11L391.518 159.519Z" fill="#F1999D"/>
</g>
<mask id="mask210_730_18606" style="mask-type:luminance" maskUnits="userSpaceOnUse" x="-113" y="-41" width="593" height="839">
<path d="M-112.858 -40.6416H479.854V797.731H-112.858V-40.6416Z" fill="white"/>
</mask>
<g mask="url(#mask210_730_18606)">
<path d="M392.763 159.11L369.449 88.3267L370.696 87.916L394.009 158.699L392.763 159.11Z" fill="#F29CA2"/>
</g>
<mask id="mask211_730_18606" style="mask-type:luminance" maskUnits="userSpaceOnUse" x="-113" y="-41" width="593" height="839">
<path d="M-112.858 -40.6416H479.854V797.731H-112.858V-40.6416Z" fill="white"/>
</mask>
<g mask="url(#mask211_730_18606)">
<path d="M394.009 158.7L370.695 87.9166L371.938 87.5059L395.252 158.289L394.009 158.7Z" fill="#F2A1A8"/>
</g>
<mask id="mask212_730_18606" style="mask-type:luminance" maskUnits="userSpaceOnUse" x="-113" y="-41" width="593" height="839">
<path d="M-112.858 -40.6416H479.854V797.731H-112.858V-40.6416Z" fill="white"/>
</mask>
<g mask="url(#mask212_730_18606)">
<path d="M395.252 158.289L371.938 87.5059L373.185 87.0967L396.498 157.878L395.252 158.289ZM396.498 157.878L373.185 87.0967L396.498 157.878Z" fill="#F3A5AD"/>
</g>
</g>
<mask id="mask213_730_18606" style="mask-type:luminance" maskUnits="userSpaceOnUse" x="255" y="126" width="170" height="23">
<path d="M255.467 130.718C278.95 129.786 359.644 126.614 369.148 126.24C378.653 125.868 396.73 126.056 400.833 127.173C404.931 128.292 410.335 128.852 414.436 132.397C418.536 135.941 423.285 143.59 424.591 148.626C421.997 145.113 418.753 142.828 415.182 142.285C405.425 140.799 396.359 141.353 373.065 141.539C349.768 141.724 320.323 142.097 301.688 140.231C283.049 138.367 266.463 134.263 255.467 130.718Z" fill="white"/>
</mask>
<g mask="url(#mask213_730_18606)">
<mask id="mask214_730_18606" style="mask-type:luminance" maskUnits="userSpaceOnUse" x="-113" y="-41" width="593" height="839">
<path d="M-112.858 -40.6416H479.854V797.731H-112.858V-40.6416Z" fill="white"/>
</mask>
<g mask="url(#mask214_730_18606)">
<path d="M396.498 157.878L373.186 87.0978L374.427 86.6855L397.742 157.469L396.498 157.878Z" fill="#F3A5AD"/>
</g>
<mask id="mask215_730_18606" style="mask-type:luminance" maskUnits="userSpaceOnUse" x="-113" y="-41" width="593" height="839">
<path d="M-112.858 -40.6416H479.854V797.731H-112.858V-40.6416Z" fill="white"/>
</mask>
<g mask="url(#mask215_730_18606)">
<path d="M397.742 157.469L374.427 86.6856L375.674 86.2764L398.987 157.058L397.742 157.469Z" fill="#F29FA6"/>
</g>
<mask id="mask216_730_18606" style="mask-type:luminance" maskUnits="userSpaceOnUse" x="-113" y="-41" width="593" height="839">
<path d="M-112.858 -40.6416H479.854V797.731H-112.858V-40.6416Z" fill="white"/>
</mask>
<g mask="url(#mask216_730_18606)">
<path d="M398.987 157.058L375.674 86.2764L376.918 85.8672L400.233 156.649L398.987 157.058Z" fill="#F29A9F"/>
</g>
<mask id="mask217_730_18606" style="mask-type:luminance" maskUnits="userSpaceOnUse" x="-113" y="-41" width="593" height="839">
<path d="M-112.858 -40.6416H479.854V797.731H-112.858V-40.6416Z" fill="white"/>
</mask>
<g mask="url(#mask217_730_18606)">
<path d="M400.233 156.649L376.918 85.8673L378.162 85.4551L401.476 156.24L400.233 156.649Z" fill="#F19598"/>
</g>
<mask id="mask218_730_18606" style="mask-type:luminance" maskUnits="userSpaceOnUse" x="-113" y="-41" width="593" height="839">
<path d="M-112.858 -40.6416H479.854V797.731H-112.858V-40.6416Z" fill="white"/>
</mask>
<g mask="url(#mask218_730_18606)">
<path d="M401.476 156.24L378.163 85.4555L379.409 85.0479L402.722 155.829L401.476 156.24Z" fill="#F19092"/>
</g>
<mask id="mask219_730_18606" style="mask-type:luminance" maskUnits="userSpaceOnUse" x="-113" y="-41" width="593" height="839">
<path d="M-112.858 -40.6416H479.854V797.731H-112.858V-40.6416Z" fill="white"/>
</mask>
<g mask="url(#mask219_730_18606)">
<path d="M402.722 155.829L379.409 85.0463L380.653 84.6387L403.966 155.42L402.722 155.829Z" fill="#F08B8C"/>
</g>
<mask id="mask220_730_18606" style="mask-type:luminance" maskUnits="userSpaceOnUse" x="-113" y="-41" width="593" height="839">
<path d="M-112.858 -40.6416H479.854V797.731H-112.858V-40.6416Z" fill="white"/>
</mask>
<g mask="url(#mask220_730_18606)">
<path d="M403.966 155.418L380.653 84.6379L381.898 84.2256L405.211 155.007L403.966 155.418Z" fill="#F08586"/>
</g>
<mask id="mask221_730_18606" style="mask-type:luminance" maskUnits="userSpaceOnUse" x="-113" y="-41" width="593" height="839">
<path d="M-112.858 -40.6416H479.854V797.731H-112.858V-40.6416Z" fill="white"/>
</mask>
<g mask="url(#mask221_730_18606)">
<path d="M405.211 155.007L381.898 84.2256L383.142 83.8164L406.457 154.599L405.211 155.007Z" fill="#F0807F"/>
</g>
<mask id="mask222_730_18606" style="mask-type:luminance" maskUnits="userSpaceOnUse" x="-113" y="-41" width="593" height="839">
<path d="M-112.858 -40.6416H479.854V797.731H-112.858V-40.6416Z" fill="white"/>
</mask>
<g mask="url(#mask222_730_18606)">
<path d="M406.457 154.6L383.142 83.817L384.388 83.4062L407.7 154.189L406.457 154.6Z" fill="#EF7A79"/>
</g>
<mask id="mask223_730_18606" style="mask-type:luminance" maskUnits="userSpaceOnUse" x="-113" y="-41" width="593" height="839">
<path d="M-112.858 -40.6416H479.854V797.731H-112.858V-40.6416Z" fill="white"/>
</mask>
<g mask="url(#mask223_730_18606)">
<path d="M407.7 154.189L384.388 83.4063L385.631 82.9971L408.946 153.779L407.7 154.189Z" fill="#EF7573"/>
</g>
<mask id="mask224_730_18606" style="mask-type:luminance" maskUnits="userSpaceOnUse" x="-113" y="-41" width="593" height="839">
<path d="M-112.858 -40.6416H479.854V797.731H-112.858V-40.6416Z" fill="white"/>
</mask>
<g mask="url(#mask224_730_18606)">
<path d="M408.946 153.779L385.631 82.9971L386.877 82.5879L410.189 153.369L408.946 153.779Z" fill="#EE6F6E"/>
</g>
<mask id="mask225_730_18606" style="mask-type:luminance" maskUnits="userSpaceOnUse" x="-113" y="-41" width="593" height="839">
<path d="M-112.858 -40.6416H479.854V797.731H-112.858V-40.6416Z" fill="white"/>
</mask>
<g mask="url(#mask225_730_18606)">
<path d="M410.189 153.369L386.877 82.5875L388.122 82.1768L411.437 152.96L410.189 153.369Z" fill="#EE6A69"/>
</g>
<mask id="mask226_730_18606" style="mask-type:luminance" maskUnits="userSpaceOnUse" x="-113" y="-41" width="593" height="839">
<path d="M-112.858 -40.6416H479.854V797.731H-112.858V-40.6416Z" fill="white"/>
</mask>
<g mask="url(#mask226_730_18606)">
<path d="M411.437 152.96L388.122 82.1773L389.366 81.7666L412.681 152.551L411.437 152.96Z" fill="#ED6463"/>
</g>
<mask id="mask227_730_18606" style="mask-type:luminance" maskUnits="userSpaceOnUse" x="-113" y="-41" width="593" height="839">
<path d="M-112.858 -40.6416H479.854V797.731H-112.858V-40.6416Z" fill="white"/>
</mask>
<g mask="url(#mask227_730_18606)">
<path d="M412.681 152.551L389.366 81.7666L390.611 81.3574L413.924 152.14L412.681 152.551Z" fill="#ED5D5E"/>
</g>
<mask id="mask228_730_18606" style="mask-type:luminance" maskUnits="userSpaceOnUse" x="-113" y="-41" width="593" height="839">
<path d="M-112.858 -40.6416H479.854V797.731H-112.858V-40.6416Z" fill="white"/>
</mask>
<g mask="url(#mask228_730_18606)">
<path d="M413.924 152.139L390.611 81.3565L391.855 80.9473L415.17 151.727L413.924 152.139Z" fill="#EC5759"/>
</g>
<mask id="mask229_730_18606" style="mask-type:luminance" maskUnits="userSpaceOnUse" x="-113" y="-41" width="593" height="839">
<path d="M-112.858 -40.6416H479.854V797.731H-112.858V-40.6416Z" fill="white"/>
</mask>
<g mask="url(#mask229_730_18606)">
<path d="M415.17 151.728L391.855 80.9478L393.1 80.5371L416.413 151.319L415.17 151.728Z" fill="#EC5054"/>
</g>
<mask id="mask230_730_18606" style="mask-type:luminance" maskUnits="userSpaceOnUse" x="-113" y="-41" width="593" height="839">
<path d="M-112.858 -40.6416H479.854V797.731H-112.858V-40.6416Z" fill="white"/>
</mask>
<g mask="url(#mask230_730_18606)">
<path d="M416.413 151.318L393.1 80.5367L394.346 80.126L417.659 150.909L416.413 151.318Z" fill="#EB494F"/>
</g>
<mask id="mask231_730_18606" style="mask-type:luminance" maskUnits="userSpaceOnUse" x="-113" y="-41" width="593" height="839">
<path d="M-112.858 -40.6416H479.854V797.731H-112.858V-40.6416Z" fill="white"/>
</mask>
<g mask="url(#mask231_730_18606)">
<path d="M417.659 150.909L394.346 80.126L395.59 79.7168L418.904 150.5L417.659 150.909ZM418.904 150.5L395.59 79.7168L418.904 150.5Z" fill="#EB424A"/>
</g>
</g>
<mask id="mask232_730_18606" style="mask-type:luminance" maskUnits="userSpaceOnUse" x="255" y="126" width="170" height="23">
<path d="M255.467 130.718C278.95 129.786 359.644 126.614 369.148 126.24C378.653 125.868 396.73 126.056 400.833 127.173C404.931 128.292 410.335 128.852 414.436 132.397C418.536 135.941 423.285 143.59 424.591 148.626C421.997 145.113 418.753 142.828 415.182 142.285C405.425 140.799 396.359 141.353 373.065 141.539C349.768 141.724 320.323 142.097 301.688 140.231C283.049 138.367 266.463 134.263 255.467 130.718Z" fill="white"/>
</mask>
<g mask="url(#mask232_730_18606)">
<mask id="mask233_730_18606" style="mask-type:luminance" maskUnits="userSpaceOnUse" x="-113" y="-41" width="593" height="839">
<path d="M-112.858 -40.6416H479.854V797.731H-112.858V-40.6416Z" fill="white"/>
</mask>
<g mask="url(#mask233_730_18606)">
<path d="M418.904 150.5L395.59 79.7184L396.835 79.3076L420.147 150.091L418.904 150.5Z" fill="#EB424A"/>
</g>
<mask id="mask234_730_18606" style="mask-type:luminance" maskUnits="userSpaceOnUse" x="-113" y="-41" width="593" height="839">
<path d="M-112.858 -40.6416H479.854V797.731H-112.858V-40.6416Z" fill="white"/>
</mask>
<g mask="url(#mask234_730_18606)">
<path d="M420.147 150.091L396.835 79.3076L398.079 78.8984L421.394 149.68L420.147 150.091Z" fill="#EB3E48"/>
</g>
<mask id="mask235_730_18606" style="mask-type:luminance" maskUnits="userSpaceOnUse" x="-113" y="-41" width="593" height="839">
<path d="M-112.858 -40.6416H479.854V797.731H-112.858V-40.6416Z" fill="white"/>
</mask>
<g mask="url(#mask235_730_18606)">
<path d="M421.394 149.68L398.079 78.8986L399.325 78.4863L422.637 149.269L421.394 149.68Z" fill="#EB3C47"/>
</g>
<mask id="mask236_730_18606" style="mask-type:luminance" maskUnits="userSpaceOnUse" x="-113" y="-41" width="593" height="839">
<path d="M-112.858 -40.6416H479.854V797.731H-112.858V-40.6416Z" fill="white"/>
</mask>
<g mask="url(#mask236_730_18606)">
<path d="M422.637 149.269L399.325 78.4863L400.571 78.0771L423.883 148.859L422.637 149.269Z" fill="#EB3945"/>
</g>
<mask id="mask237_730_18606" style="mask-type:luminance" maskUnits="userSpaceOnUse" x="-113" y="-41" width="593" height="839">
<path d="M-112.858 -40.6416H479.854V797.731H-112.858V-40.6416Z" fill="white"/>
</mask>
<g mask="url(#mask237_730_18606)">
<path d="M423.883 148.859L400.571 78.0772L401.813 77.668L425.126 148.451L423.883 148.859Z" fill="#EA3643"/>
</g>
<mask id="mask238_730_18606" style="mask-type:luminance" maskUnits="userSpaceOnUse" x="-113" y="-41" width="593" height="839">
<path d="M-112.858 -40.6416H479.854V797.731H-112.858V-40.6416Z" fill="white"/>
</mask>
<g mask="url(#mask238_730_18606)">
<path d="M425.126 148.451L401.813 77.6681L403.059 77.2559L426.372 148.04L425.126 148.451Z" fill="#EA3241"/>
</g>
<mask id="mask239_730_18606" style="mask-type:luminance" maskUnits="userSpaceOnUse" x="-113" y="-41" width="593" height="839">
<path d="M-112.858 -40.6416H479.854V797.731H-112.858V-40.6416Z" fill="white"/>
</mask>
<g mask="url(#mask239_730_18606)">
<path d="M426.372 148.04L403.059 77.2553L404.303 76.8477L427.617 147.628L426.372 148.04Z" fill="#EA2F3F"/>
</g>
<mask id="mask240_730_18606" style="mask-type:luminance" maskUnits="userSpaceOnUse" x="-113" y="-41" width="593" height="839">
<path d="M-112.858 -40.6416H479.854V797.731H-112.858V-40.6416Z" fill="white"/>
</mask>
<g mask="url(#mask240_730_18606)">
<path d="M427.617 147.628L404.303 76.8482L405.549 76.4375L428.861 147.219L427.617 147.628Z" fill="#EA2B3D"/>
</g>
<mask id="mask241_730_18606" style="mask-type:luminance" maskUnits="userSpaceOnUse" x="-113" y="-41" width="593" height="839">
<path d="M-112.858 -40.6416H479.854V797.731H-112.858V-40.6416Z" fill="white"/>
</mask>
<g mask="url(#mask241_730_18606)">
<path d="M428.861 147.219L405.549 76.4371L406.792 76.0264L430.107 146.809L428.861 147.219Z" fill="#EA283B"/>
</g>
<mask id="mask242_730_18606" style="mask-type:luminance" maskUnits="userSpaceOnUse" x="-113" y="-41" width="593" height="839">
<path d="M-112.858 -40.6416H479.854V797.731H-112.858V-40.6416Z" fill="white"/>
</mask>
<g mask="url(#mask242_730_18606)">
<path d="M430.107 146.809L406.792 76.0264L408.038 75.6172L431.352 146.4L430.107 146.809ZM431.352 146.4L408.038 75.6172L431.352 146.4Z" fill="#EA233A"/>
</g>
</g>
</svg>
