<svg width="480" height="320" viewBox="0 0 480 320" fill="none" xmlns="http://www.w3.org/2000/svg">
<path d="M188.258 53.333C188.258 53.333 281.997 87.9947 305.832 176.734C305.699 176.024 239.386 254.965 190.376 201.274C190.376 201.274 154.493 169.94 188.258 53.333Z" fill="#1B3E90"/>
<path d="M189.576 168.875C188.617 168.875 187.624 168.746 186.763 168.313C186.296 168.083 185.869 167.753 185.338 167.781C185.338 168.183 185.436 168.612 184.874 168.612H182.129C182.015 168.611 181.905 168.566 181.824 168.486C181.743 168.406 181.696 168.297 181.693 168.183V145.861C181.696 145.746 181.742 145.637 181.824 145.557C181.905 145.476 182.014 145.431 182.129 145.429H185.237C185.351 145.432 185.459 145.477 185.54 145.558C185.621 145.638 185.667 145.746 185.67 145.86V152.818C186.296 152.818 186.465 152.716 187.028 152.483C188.088 152.022 189.081 151.791 190.237 151.791C195.009 151.791 197.591 155.796 197.591 160.234C197.591 165.034 194.61 168.875 189.576 168.875ZM188.948 154.538C188.153 154.538 187.357 154.705 186.662 155.101C185.898 155.531 185.67 156.032 185.67 156.887V163.645C185.67 165.599 187.357 166.125 189.013 166.125C190.237 166.125 191.432 165.664 192.292 164.803C193.451 163.645 193.617 161.856 193.617 160.301C193.617 157.219 192.427 154.538 188.948 154.538ZM211.976 168.611H209.228C208.697 168.611 208.765 168.15 208.792 167.784H208.501C207.904 167.784 207.438 168.053 206.909 168.282C205.815 168.776 205.053 168.943 203.861 168.943C200.817 168.943 198.495 167.322 198.495 164.11C198.495 160.702 200.88 159.639 203.765 158.677L207.174 157.553C207.871 157.322 208.464 157.252 208.464 156.36C208.464 154.87 206.808 154.538 205.615 154.538C203.728 154.538 202.041 155.104 200.384 155.896C200.221 155.964 200.053 156.062 199.853 156.062C199.558 156.062 199.49 155.764 199.49 155.53V153.708C199.49 153.179 199.687 153.047 200.154 152.851C201.974 152.089 204.227 151.79 206.18 151.79C209.294 151.79 212.407 152.685 212.407 156.361V168.183C212.405 168.296 212.359 168.404 212.279 168.484C212.198 168.564 212.09 168.609 211.977 168.611M208.433 159.971L205.917 160.798C204.457 161.265 202.471 161.957 202.471 163.779C202.471 165.5 203.996 166.127 205.486 166.127C206.28 166.127 207.106 165.995 207.739 165.5C208.366 165.005 208.433 164.443 208.433 163.678V159.971ZM221.846 168.875C220.883 168.875 219.891 168.746 219.028 168.313C218.566 168.083 218.134 167.753 217.605 167.781C217.605 168.183 217.706 168.612 217.143 168.612H214.393C214.28 168.61 214.172 168.564 214.092 168.484C214.011 168.404 213.965 168.296 213.963 168.183V145.861C213.965 145.747 214.011 145.639 214.091 145.559C214.171 145.478 214.279 145.432 214.393 145.429H217.504C217.618 145.432 217.726 145.477 217.807 145.558C217.888 145.638 217.934 145.746 217.937 145.86V152.818C218.566 152.818 218.733 152.716 219.295 152.483C220.355 152.022 221.348 151.791 222.506 151.791C227.276 151.791 229.86 155.796 229.86 160.234C229.86 165.034 226.877 168.875 221.846 168.875ZM221.215 154.538C220.42 154.538 219.624 154.705 218.929 155.101C218.168 155.531 217.937 156.032 217.937 156.887V163.645C217.937 165.599 219.624 166.125 221.283 166.125C222.506 166.125 223.699 165.664 224.557 164.803C225.718 163.645 225.884 161.856 225.884 160.301C225.884 157.219 224.692 154.538 221.215 154.538ZM244.384 167.95C243.091 168.546 240.974 168.875 239.55 168.875C234.283 168.875 231.367 165.633 231.367 160.47C231.367 155.433 234.516 151.724 239.683 151.724C240.906 151.724 242.166 151.887 243.324 152.218C243.955 152.387 244.947 152.55 244.947 153.377V155.168C244.947 155.365 244.846 155.562 244.618 155.562C244.416 155.562 244.151 155.464 243.983 155.365C242.863 154.8 241.6 154.474 240.344 154.474C236.668 154.474 235.343 156.887 235.343 160.301C235.343 163.546 236.533 166.063 240.146 166.063C241.502 166.063 242.894 165.698 244.085 165.068C244.252 164.969 244.45 164.87 244.649 164.87C245.113 164.87 244.947 166.726 244.947 167.055C244.947 167.649 244.88 167.717 244.384 167.95ZM259.324 167.318C257.702 168.778 255.876 169.11 253.756 169.11C251.641 169.11 249.884 168.778 248.26 167.318C246.278 165.535 245.679 162.982 245.679 160.4C245.679 157.782 246.278 155.265 248.297 153.477C250.016 151.989 251.773 151.724 253.992 151.724C259.456 151.724 261.908 155.296 261.908 160.462C261.908 163.052 261.346 165.535 259.324 167.318ZM253.823 154.472C250.581 154.472 249.653 157.65 249.653 160.333C249.653 163.015 250.545 166.329 253.823 166.329C257.038 166.329 257.934 163.114 257.934 160.462C257.934 157.846 257.038 154.472 253.823 154.472ZM276.273 167.95C274.98 168.546 272.854 168.875 271.421 168.875C266.151 168.875 263.24 165.633 263.24 160.47C263.24 155.433 266.384 151.724 271.556 151.724C272.787 151.724 274.052 151.887 275.213 152.218C275.843 152.387 276.836 152.55 276.836 153.377V155.168C276.836 155.365 276.74 155.562 276.504 155.562C276.305 155.562 276.04 155.464 275.877 155.365C274.749 154.8 273.484 154.474 272.221 154.474C268.536 154.474 267.214 156.887 267.214 160.301C267.214 163.546 268.401 166.063 272.022 166.063C273.383 166.063 274.783 165.698 275.973 165.068C276.139 164.969 276.338 164.87 276.538 164.87C277.001 164.87 276.836 166.726 276.836 167.055C276.836 167.649 276.771 167.717 276.273 167.95ZM292.502 168.611H288.959C288.391 168.611 288.331 168.479 288.031 168.051L283.228 161.065C283.031 160.764 282.732 160.832 282.397 160.832V168.183C282.395 168.296 282.349 168.404 282.269 168.484C282.189 168.564 282.081 168.609 281.968 168.611H278.854C278.742 168.609 278.634 168.563 278.554 168.483C278.475 168.404 278.429 168.296 278.427 168.183V145.862C278.429 145.749 278.474 145.641 278.554 145.56C278.633 145.479 278.741 145.432 278.854 145.429H281.968C282.081 145.431 282.19 145.478 282.27 145.559C282.351 145.639 282.396 145.748 282.398 145.862V158.413H282.797C283.031 158.413 283.129 158.348 283.292 158.18L288.293 152.55C288.557 152.252 288.694 152.052 289.088 152.052H292.137C292.334 152.052 292.601 152.187 292.601 152.418C292.601 152.649 292.365 152.882 292.238 153.045L286.472 159.207L292.696 167.587C292.865 167.784 293.031 168.017 293.031 168.282C293.031 168.546 292.697 168.611 292.502 168.611Z" fill="white"/>
<path d="M136.159 265.645C136.159 265.783 136.066 265.897 135.884 266.014C135.7 266.149 135.469 266.249 135.182 266.348C134.872 266.445 134.556 266.517 134.235 266.563C133.902 266.63 133.564 266.665 133.224 266.667C131.697 266.667 130.611 266.317 129.971 265.615C129.328 264.912 129.009 263.891 129.009 262.556V253.011C129.009 252.744 128.919 252.61 128.738 252.61H126.873C126.526 252.61 126.353 252.444 126.353 252.112V251.391C126.353 251.073 126.526 250.907 126.874 250.907H128.738C128.919 250.907 129.009 250.772 129.009 250.539V247.177C129.009 246.829 129.178 246.661 129.507 246.661H130.56C130.913 246.661 131.089 246.83 131.089 247.177V250.538C131.089 250.772 131.19 250.907 131.395 250.907H135.671C135.998 250.907 136.159 251.073 136.159 251.391V252.112C136.159 252.444 135.997 252.61 135.671 252.61H131.395C131.189 252.61 131.088 252.744 131.088 253.012V262.52C131.088 263.372 131.267 264.01 131.622 264.409C131.98 264.829 132.542 265.044 133.318 265.044C133.728 265.044 134.077 265.011 134.373 264.928C134.666 264.863 134.912 264.795 135.104 264.712C135.298 264.629 135.462 264.543 135.594 264.477C135.726 264.409 135.832 264.376 135.915 264.376C136.078 264.376 136.159 264.458 136.159 264.645M146.971 252.494C146.971 252.727 146.859 252.86 146.637 252.86C146.535 252.86 146.427 252.826 146.315 252.795C146.201 252.763 146.067 252.712 145.901 252.675C145.74 252.626 145.525 252.595 145.261 252.543C144.937 252.505 144.611 252.489 144.286 252.494C143.942 252.491 143.599 252.525 143.262 252.595C142.956 252.66 142.669 252.791 142.419 252.979C142.169 253.173 141.97 253.426 141.839 253.715C141.696 254.013 141.626 254.399 141.626 254.832V265.931C141.626 266.247 141.463 266.414 141.139 266.414H140.1C139.773 266.414 139.609 266.248 139.609 265.931V251.39C139.609 251.056 139.765 250.905 140.066 250.905H141.138C141.403 250.905 141.535 251.042 141.535 251.325V251.657C141.535 251.826 141.606 251.908 141.748 251.908C141.953 251.908 142.194 251.84 142.466 251.709C142.743 251.574 143.052 251.423 143.399 251.273C143.765 251.098 144.141 250.947 144.527 250.822C144.941 250.687 145.374 250.62 145.81 250.622C146.282 250.622 146.59 250.671 146.746 250.757C146.814 250.786 146.873 250.834 146.913 250.897C146.954 250.959 146.974 251.033 146.971 251.107M161.602 265.93C161.602 266.249 161.47 266.415 161.198 266.415H160.177C159.907 266.415 159.775 266.262 159.775 265.964C159.775 265.78 159.681 265.681 159.495 265.681C159.255 265.684 159.017 265.734 158.795 265.828C158.551 265.946 158.261 266.049 157.929 266.179C157.544 266.314 157.152 266.426 156.755 266.515C156.307 266.615 155.777 266.666 155.168 266.666C154.277 266.666 153.445 266.549 152.675 266.316C151.902 266.08 151.281 265.681 150.816 265.126C150.583 264.856 150.383 264.56 150.22 264.243C150.063 263.901 149.946 263.543 149.87 263.174C149.783 262.727 149.728 262.274 149.705 261.819C149.672 261.246 149.658 260.672 149.66 260.098V251.391C149.66 251.054 149.813 250.906 150.124 250.906H151.273C151.583 250.906 151.734 251.054 151.734 251.391V261.202C151.734 261.871 151.802 262.454 151.934 262.939C152.063 263.423 152.291 263.822 152.615 264.141C152.939 264.457 153.364 264.693 153.888 264.861C154.412 265.028 155.063 265.111 155.83 265.111C156.172 265.111 156.561 265.061 156.994 264.981C157.429 264.893 157.818 264.795 158.162 264.644C158.626 264.457 158.969 264.26 159.191 264.056C159.415 263.841 159.523 263.473 159.523 262.969V251.391C159.523 251.054 159.668 250.906 159.961 250.906H161.138C161.447 250.906 161.602 251.054 161.602 251.391M174.402 262.203C174.402 263.676 173.956 264.775 173.072 265.526C172.188 266.28 170.918 266.667 169.269 266.667C168.616 266.667 168.074 266.633 167.636 266.548C167.203 266.488 166.778 266.381 166.369 266.229C165.938 266.099 165.671 265.964 165.557 265.829C165.446 265.713 165.388 265.547 165.388 265.311V264.056C165.388 263.842 165.503 263.722 165.723 263.722C165.848 263.722 165.995 263.792 166.169 263.927C166.378 264.085 166.597 264.23 166.825 264.36C167.127 264.525 167.445 264.66 167.773 264.762C168.136 264.891 168.588 264.943 169.119 264.943C170.197 264.943 170.985 264.762 171.485 264.36C171.983 263.961 172.232 263.341 172.232 262.47C172.232 261.967 172.12 261.534 171.895 261.166C171.669 260.8 171.203 260.368 170.49 259.88L167.895 258.11C167.02 257.527 166.433 256.952 166.138 256.405C165.842 255.852 165.695 255.233 165.695 254.564C165.695 253.379 166.086 252.444 166.874 251.741C167.654 251.039 168.842 250.686 170.43 250.686C171.081 250.686 171.618 250.72 172.032 250.803C172.453 250.888 172.893 251.023 173.365 251.207C173.666 251.321 173.865 251.458 173.956 251.573C174.051 251.692 174.095 251.842 174.095 252.026V253.192C174.095 253.428 173.995 253.561 173.79 253.561C173.665 253.561 173.515 253.496 173.331 253.379C173.15 253.247 172.927 253.128 172.66 252.978C172.395 252.825 172.079 252.713 171.713 252.576C171.298 252.449 170.865 252.387 170.43 252.392C169.474 252.392 168.774 252.594 168.336 252.978C167.901 253.361 167.68 253.83 167.68 254.349C167.674 254.774 167.802 255.19 168.048 255.536C168.292 255.868 168.74 256.251 169.394 256.705L172.11 258.512C172.945 259.063 173.536 259.629 173.881 260.215C174.228 260.8 174.402 261.467 174.402 262.203ZM185.675 265.645C185.675 265.783 185.582 265.897 185.4 266.014C185.219 266.149 184.983 266.249 184.698 266.348C184.388 266.445 184.072 266.517 183.751 266.563C183.418 266.63 183.08 266.665 182.74 266.667C181.211 266.667 180.127 266.317 179.487 265.615C178.844 264.912 178.525 263.891 178.525 262.556V253.011C178.525 252.744 178.435 252.61 178.251 252.61H176.389C176.042 252.61 175.869 252.444 175.869 252.112V251.391C175.869 251.073 176.042 250.907 176.39 250.907H178.251C178.434 250.907 178.525 250.772 178.525 250.539V247.177C178.525 246.829 178.692 246.661 179.023 246.661H180.076C180.426 246.661 180.602 246.83 180.602 247.177V250.538C180.602 250.772 180.705 250.907 180.911 250.907H185.187C185.511 250.907 185.675 251.073 185.675 251.391V252.112C185.675 252.444 185.511 252.61 185.187 252.61H180.911C180.705 252.61 180.602 252.744 180.602 253.012V262.52C180.602 263.372 180.781 264.01 181.138 264.409C181.496 264.829 182.058 265.044 182.831 265.044C183.243 265.044 183.593 265.011 183.886 264.928C184.136 264.878 184.382 264.806 184.62 264.712C184.814 264.629 184.978 264.543 185.11 264.477C185.242 264.409 185.348 264.376 185.428 264.376C185.592 264.376 185.675 264.458 185.675 264.645M201.282 258.226C201.282 258.591 201.101 258.777 200.733 258.777H190.835C190.53 258.777 190.377 258.928 190.377 259.213C190.377 261.002 190.825 262.383 191.72 263.423C192.619 264.444 193.923 264.944 195.634 264.944C196.425 264.944 197.085 264.892 197.616 264.775C198.065 264.693 198.505 264.571 198.931 264.41C199.204 264.289 199.473 264.162 199.739 264.027C199.932 263.91 200.103 263.858 200.246 263.858C200.468 263.858 200.58 263.995 200.58 264.242V265.128C200.58 265.33 200.55 265.478 200.487 265.562C200.427 265.665 200.305 265.745 200.124 265.815C198.778 266.383 197.218 266.665 195.45 266.665C192.923 266.665 191.071 265.966 189.89 264.594C188.707 263.207 188.117 261.251 188.117 258.744C188.117 257.373 188.28 256.172 188.604 255.167C188.931 254.148 189.399 253.313 190.012 252.66C190.623 251.991 191.356 251.504 192.209 251.173C193.065 250.857 194.011 250.688 195.053 250.688C195.906 250.688 196.712 250.82 197.464 251.105C198.215 251.405 198.879 251.823 199.45 252.393C200.023 252.961 200.468 253.697 200.794 254.565C201.118 255.434 201.282 256.455 201.282 257.624M199.053 256.706C199.053 255.35 198.654 254.298 197.86 253.528C197.067 252.777 196.031 252.393 194.747 252.393C194.032 252.393 193.407 252.525 192.868 252.777C192.329 253.044 191.875 253.378 191.507 253.796C191.146 254.207 190.866 254.682 190.683 255.198C190.502 255.691 190.409 256.212 190.408 256.738C190.408 256.841 190.429 256.921 190.467 256.971C190.509 257.04 190.61 257.072 190.776 257.072H198.687C198.809 257.072 198.9 257.057 198.959 257.002C199.021 256.971 199.053 256.872 199.053 256.706ZM217.749 265.93C217.749 266.249 217.603 266.415 217.313 266.415H216.289C216.017 266.415 215.885 266.28 215.885 266.016C215.885 265.881 215.791 265.813 215.608 265.813C215.417 265.815 215.229 265.86 215.058 265.945C214.809 266.052 214.556 266.147 214.298 266.23C213.923 266.349 213.543 266.45 213.158 266.532C212.599 266.626 212.032 266.671 211.465 266.666C209.233 266.666 207.497 265.979 206.255 264.611C205.019 263.257 204.399 261.334 204.399 258.877C204.399 257.524 204.578 256.337 204.933 255.32C205.288 254.281 205.785 253.428 206.424 252.743C207.068 252.069 207.854 251.545 208.725 251.209C209.617 250.857 210.601 250.688 211.68 250.688C212.206 250.683 212.731 250.727 213.248 250.82C213.684 250.924 214.057 251.004 214.358 251.106C214.664 251.222 214.905 251.308 215.076 251.404C215.247 251.489 215.377 251.541 215.457 251.541C215.597 251.541 215.672 251.404 215.672 251.139V244.942C215.672 244.604 215.833 244.42 216.167 244.42H217.282C217.593 244.42 217.749 244.604 217.749 244.942M215.672 254.384C215.672 253.763 215.33 253.281 214.651 252.876C213.969 252.492 213.1 252.311 212.045 252.311C210.262 252.311 208.904 252.842 207.966 253.931C207.035 255.001 206.568 256.637 206.568 258.812C206.568 259.747 206.667 260.6 206.87 261.365C207.074 262.122 207.399 262.786 207.847 263.34C208.302 263.892 208.887 264.322 209.549 264.593C210.239 264.894 211.074 265.044 212.045 265.044C213.145 265.044 214.021 264.844 214.68 264.424C215.343 264.027 215.671 263.527 215.671 262.939L215.672 254.384ZM238.306 265.645C238.306 265.783 238.214 265.897 238.031 266.014C237.849 266.149 237.616 266.249 237.328 266.348C237.019 266.445 236.703 266.517 236.382 266.563C236.049 266.63 235.71 266.665 235.371 266.667C233.842 266.667 232.761 266.317 232.118 265.615C231.477 264.912 231.159 263.891 231.159 262.556V253.011C231.159 252.744 231.066 252.61 230.884 252.61H229.02C228.675 252.61 228.499 252.444 228.499 252.112V251.391C228.499 251.073 228.676 250.907 229.021 250.907H230.884C231.066 250.907 231.159 250.772 231.159 250.539V247.177C231.159 246.829 231.322 246.661 231.654 246.661H232.707C233.061 246.661 233.236 246.83 233.236 247.177V250.538C233.236 250.772 233.338 250.907 233.538 250.907H237.818C238.142 250.907 238.306 251.073 238.306 251.391V252.112C238.306 252.444 238.142 252.61 237.818 252.61H233.538C233.338 252.61 233.235 252.744 233.235 253.012V262.52C233.235 263.372 233.414 264.01 233.769 264.409C234.124 264.829 234.689 265.044 235.464 265.044C235.871 265.044 236.221 265.011 236.516 264.928C236.812 264.863 237.059 264.795 237.25 264.712C237.444 264.629 237.608 264.543 237.738 264.477C237.872 264.409 237.982 264.376 238.062 264.376C238.223 264.376 238.306 264.458 238.306 264.645M255.043 258.625C255.043 259.83 254.896 260.914 254.597 261.905C254.305 262.872 253.864 263.727 253.27 264.426C252.682 265.144 251.938 265.697 251.039 266.083C250.144 266.467 249.086 266.663 247.868 266.663C245.523 266.663 243.752 265.945 242.549 264.543C241.349 263.123 240.747 261.166 240.747 258.693C240.747 257.506 240.893 256.42 241.176 255.434C241.461 254.447 241.899 253.597 242.492 252.894C243.08 252.192 243.822 251.655 244.719 251.272C245.613 250.872 246.673 250.688 247.897 250.688C250.258 250.688 252.039 251.391 253.241 252.796C254.442 254.198 255.043 256.137 255.043 258.625ZM252.876 258.561C252.876 257.475 252.747 256.555 252.493 255.766C252.238 254.983 251.891 254.33 251.453 253.832C251.026 253.334 250.488 252.944 249.882 252.694C249.238 252.455 248.556 252.335 247.869 252.342C247.132 252.342 246.463 252.461 245.862 252.694C245.257 252.929 244.721 253.313 244.304 253.811C243.869 254.33 243.529 255.001 243.283 255.802C243.039 256.625 242.917 257.591 242.917 258.744C242.917 260.914 243.381 262.49 244.304 263.475C245.235 264.46 246.427 264.942 247.897 264.942C248.628 264.942 249.293 264.828 249.895 264.593C250.502 264.337 251.041 263.943 251.468 263.442C251.917 262.92 252.262 262.27 252.511 261.469C252.749 260.668 252.876 259.696 252.876 258.561ZM279.631 265.93C279.631 266.249 279.488 266.415 279.197 266.415H278.172C277.907 266.415 277.772 266.28 277.772 266.016C277.772 265.881 277.679 265.813 277.495 265.813C277.304 265.814 277.116 265.859 276.945 265.945C276.743 266.033 276.49 266.129 276.181 266.23C275.806 266.35 275.425 266.45 275.04 266.532C274.483 266.626 273.918 266.671 273.353 266.666C271.116 266.666 269.382 265.979 268.14 264.611C266.904 263.257 266.284 261.334 266.284 258.877C266.284 257.524 266.458 256.337 266.813 255.32C267.168 254.281 267.671 253.428 268.309 252.743C268.953 252.069 269.738 251.545 270.608 251.209C271.504 250.857 272.487 250.688 273.565 250.688C274.175 250.688 274.698 250.738 275.13 250.82C275.571 250.924 275.939 251.004 276.246 251.106C276.549 251.222 276.793 251.308 276.959 251.404C277.135 251.489 277.262 251.541 277.339 251.541C277.482 251.541 277.552 251.404 277.552 251.139V244.942C277.552 244.604 277.718 244.42 278.05 244.42H279.167C279.478 244.42 279.631 244.604 279.631 244.942M277.552 254.384C277.552 253.763 277.215 253.281 276.538 252.876C275.851 252.492 274.991 252.311 273.934 252.311C272.148 252.311 270.786 252.842 269.851 253.931C268.92 255.001 268.454 256.637 268.454 258.812C268.454 259.747 268.555 260.6 268.755 261.365C268.959 262.122 269.28 262.786 269.729 263.34C270.186 263.89 270.771 264.32 271.432 264.593C272.127 264.894 272.958 265.044 273.934 265.044C275.028 265.044 275.906 264.844 276.564 264.424C277.228 264.027 277.552 263.527 277.552 262.939L277.552 254.384ZM296.924 258.226C296.924 258.591 296.742 258.777 296.371 258.777H286.474C286.168 258.777 286.015 258.928 286.015 259.213C286.015 261.002 286.464 262.383 287.361 263.423C288.26 264.444 289.559 264.944 291.275 264.944C292.066 264.944 292.727 264.892 293.258 264.775C293.706 264.694 294.145 264.572 294.57 264.41C294.844 264.29 295.114 264.162 295.381 264.027C295.573 263.91 295.741 263.858 295.886 263.858C296.104 263.858 296.219 263.995 296.219 264.242V265.128C296.219 265.33 296.189 265.478 296.127 265.562C296.07 265.665 295.944 265.745 295.762 265.815C294.417 266.383 292.859 266.665 291.088 266.665C288.561 266.665 286.708 265.966 285.528 264.594C284.346 263.207 283.757 261.251 283.757 258.744C283.757 257.373 283.919 256.172 284.245 255.167C284.572 254.148 285.041 253.313 285.65 252.66C286.262 251.991 286.995 251.504 287.848 251.173C288.706 250.857 289.653 250.688 290.689 250.688C291.545 250.688 292.351 250.82 293.102 251.105C293.854 251.405 294.521 251.823 295.088 252.393C295.661 252.961 296.104 253.697 296.433 254.565C296.757 255.434 296.923 256.455 296.923 257.624M294.692 256.706C294.692 255.35 294.295 254.298 293.499 253.528C292.706 252.777 291.667 252.393 290.384 252.393C289.671 252.393 289.043 252.525 288.504 252.777C287.968 253.044 287.514 253.378 287.148 253.796C286.785 254.206 286.505 254.682 286.321 255.198C286.142 255.691 286.05 256.212 286.049 256.738C286.049 256.841 286.068 256.921 286.107 256.971C286.148 257.04 286.251 257.072 286.412 257.072H294.326C294.448 257.072 294.541 257.057 294.601 257.002C294.66 256.971 294.692 256.872 294.692 256.706ZM303.12 265.93C303.12 266.249 302.949 266.415 302.602 266.415H301.624C301.28 266.415 301.106 266.249 301.106 265.93V244.942C301.106 244.604 301.259 244.42 301.565 244.42H302.664C302.97 244.42 303.12 244.604 303.12 244.942M310.823 245.96C310.823 246.525 310.691 246.927 310.437 247.144C310.183 247.362 309.83 247.479 309.387 247.479C308.939 247.479 308.586 247.347 308.332 247.095C308.076 246.841 307.952 246.46 307.952 245.924C307.952 245.405 308.076 245.04 308.332 244.788C308.586 244.553 308.939 244.421 309.387 244.421C309.83 244.421 310.183 244.553 310.437 244.788C310.692 245.04 310.823 245.424 310.823 245.96ZM310.395 265.93C310.395 266.249 310.232 266.415 309.906 266.415H308.897C308.55 266.415 308.376 266.249 308.376 265.93V251.391C308.376 251.056 308.539 250.903 308.863 250.903H309.906C310.232 250.903 310.395 251.056 310.395 251.391V265.93ZM327.131 251.139C327.131 251.222 327.061 251.458 326.918 251.824L321.783 265.78C321.646 266.146 321.513 266.379 321.402 266.499C321.293 266.599 321.112 266.667 320.868 266.667H319.494C319.248 266.667 319.069 266.618 318.96 266.516C318.849 266.413 318.714 266.146 318.549 265.746L313.479 251.793C313.374 251.508 313.323 251.321 313.323 251.241C313.323 251.002 313.457 250.904 313.724 250.904H315.129C315.391 250.904 315.568 251.021 315.648 251.275L320.01 264.041C320.093 264.292 320.189 264.424 320.288 264.424C320.391 264.424 320.482 264.292 320.565 264.041L324.993 251.171C325.054 250.99 325.197 250.904 325.42 250.904H326.796C327.019 250.904 327.131 250.99 327.131 251.139ZM342.16 258.226C342.16 258.591 341.981 258.777 341.612 258.777H331.716C331.41 258.777 331.254 258.928 331.254 259.213C331.254 261.002 331.703 262.383 332.6 263.423C333.496 264.444 334.8 264.944 336.514 264.944C337.304 264.944 337.969 264.892 338.497 264.775C338.946 264.692 339.386 264.57 339.814 264.41C340.086 264.289 340.354 264.161 340.62 264.027C340.812 263.91 340.98 263.858 341.125 263.858C341.346 263.858 341.46 263.995 341.46 264.242V265.128C341.46 265.33 341.429 265.478 341.366 265.562C341.305 265.665 341.183 265.745 341.001 265.815C339.656 266.383 338.098 266.665 336.33 266.665C333.8 266.665 331.946 265.966 330.768 264.594C329.588 263.207 328.997 261.251 328.997 258.744C328.997 257.373 329.157 256.172 329.484 255.167C329.81 254.148 330.28 253.313 330.886 252.66C331.494 252 332.248 251.491 333.088 251.173C333.943 250.857 334.894 250.688 335.931 250.688C336.784 250.688 337.587 250.82 338.341 251.105C339.096 251.405 339.759 251.823 340.33 252.393C340.898 252.961 341.346 253.697 341.673 254.565C341.996 255.434 342.16 256.455 342.16 257.624M339.931 256.706C339.931 255.35 339.534 254.298 338.74 253.528C337.947 252.777 336.905 252.393 335.625 252.393C334.912 252.393 334.285 252.525 333.746 252.777C333.21 253.044 332.753 253.378 332.384 253.796C332.023 254.206 331.744 254.682 331.563 255.198C331.38 255.69 331.286 256.212 331.286 256.738C331.286 256.841 331.304 256.921 331.348 256.971C331.389 257.04 331.487 257.072 331.651 257.072H339.565C339.687 257.072 339.78 257.057 339.839 257.002C339.9 256.971 339.931 256.872 339.931 256.706ZM353.647 252.494C353.647 252.727 353.539 252.86 353.31 252.86C353.209 252.86 353.1 252.826 352.991 252.795C352.88 252.763 352.738 252.712 352.58 252.675C352.416 252.626 352.201 252.595 351.933 252.543C351.61 252.505 351.284 252.489 350.959 252.494C350.614 252.492 350.27 252.526 349.932 252.595C349.629 252.661 349.343 252.792 349.095 252.979C348.847 253.174 348.648 253.427 348.517 253.715C348.372 254.013 348.297 254.399 348.297 254.832V265.931C348.297 266.247 348.137 266.414 347.812 266.414H346.773C346.45 266.414 346.283 266.248 346.283 265.931V251.39C346.283 251.056 346.441 250.905 346.744 250.905H347.813C348.077 250.905 348.209 251.042 348.209 251.325V251.657C348.209 251.826 348.281 251.908 348.422 251.908C348.626 251.908 348.868 251.84 349.142 251.709C349.448 251.557 349.757 251.411 350.07 251.273C350.437 251.099 350.814 250.948 351.201 250.822C351.616 250.687 352.051 250.619 352.489 250.622C352.955 250.622 353.266 250.671 353.417 250.757C353.486 250.785 353.546 250.833 353.587 250.896C353.628 250.958 353.649 251.032 353.647 251.107" fill="#1B3E90"/>
</svg>
