<svg width="480" height="320" viewBox="0 0 480 320" fill="none" xmlns="http://www.w3.org/2000/svg">
<path d="M424.615 188.6H55.3845V131.4H424.615V188.6Z" fill="#FF0033"/>
<path d="M199.041 145.812C196.305 145.812 193.357 146.328 191.11 147.896C188.895 149.466 187.577 152.124 187.577 154.816C187.577 161.371 193.726 162.768 198.911 163.773C200.161 164.015 202.298 164.346 202.298 166.036C202.298 167.562 200.122 167.713 199.041 167.713C196.585 167.713 194.732 166.828 194.009 164.375L186.161 165.792L186.307 166.345L186.486 166.866L186.682 167.388L186.893 167.876L187.122 168.348L187.366 168.788L187.642 169.228L187.919 169.635L188.229 170.026L188.538 170.4L188.88 170.742L189.222 171.084L189.597 171.394L189.971 171.703L190.362 171.98L190.769 172.24L191.176 172.485L191.616 172.712L192.055 172.924L192.511 173.119L192.967 173.299L193.439 173.445L193.928 173.592L194.417 173.722L194.905 173.836L195.426 173.934L195.931 174.015L196.452 174.08L196.989 174.129L197.51 174.162L198.048 174.194H198.585C204.298 174.194 210.896 171.546 210.896 164.912C210.896 161.895 209.489 159.31 206.792 157.862C204.383 156.615 201.604 156.187 198.992 155.663C197.95 155.422 195.947 155.141 195.947 153.693C195.947 152.246 197.54 151.918 198.667 151.918C200.796 151.918 202.327 152.636 203.128 154.686L210.131 152.569C208.443 147.786 203.822 145.812 199.041 145.812H199.041ZM260.529 145.812C257.799 145.812 254.868 146.328 252.615 147.896C250.407 149.466 249.081 152.124 249.081 154.816C249.081 161.371 255.23 162.768 260.415 163.773C261.658 164.015 263.786 164.346 263.786 166.036C263.786 167.562 261.616 167.713 260.529 167.713C258.08 167.713 256.236 166.828 255.513 164.375L247.664 165.792L247.827 166.345L247.99 166.866L248.185 167.388L248.397 167.876L248.625 168.348L248.869 168.788L249.146 169.228L249.423 169.635L249.732 170.026L250.042 170.4L250.384 170.742L250.726 171.084L251.1 171.394L251.475 171.703L251.866 171.98L252.272 172.24L252.68 172.485L253.119 172.712L253.559 172.924L254.015 173.119L254.471 173.299L254.943 173.445L255.432 173.592L255.92 173.722L256.425 173.836L256.93 173.934L257.435 174.015L257.956 174.08L258.493 174.129L259.014 174.162L259.551 174.194H260.105C265.811 174.194 272.4 171.546 272.4 164.912C272.4 161.895 270.986 159.31 268.296 157.862C265.886 156.615 263.108 156.187 260.496 155.663C259.454 155.422 257.435 155.141 257.435 153.693C257.435 152.246 259.044 151.918 260.17 151.918C262.3 151.918 263.831 152.636 264.632 154.686L271.634 152.569C269.947 147.786 265.316 145.812 260.528 145.812H260.529ZM391.19 145.812C388.455 145.812 385.514 146.328 383.259 147.896C381.052 149.466 379.727 152.124 379.727 154.816C379.727 161.371 385.875 162.768 391.06 163.773C392.311 164.015 394.447 164.346 394.447 166.036C394.447 167.562 392.278 167.713 391.19 167.713C388.741 167.713 386.881 166.828 386.158 164.375L378.326 165.792L378.472 166.345L378.635 166.866L378.831 167.388L379.042 167.876L379.271 168.348L379.514 168.788L379.792 169.228L380.068 169.635L380.378 170.026L380.687 170.4L381.029 170.742L381.371 171.084L381.745 171.394L382.12 171.703L382.511 171.98L382.918 172.24L383.341 172.485L383.765 172.712L384.204 172.924L384.66 173.119L385.116 173.299L385.605 173.445L386.077 173.592L386.566 173.722L387.07 173.836L387.575 173.934L388.08 174.015L388.601 174.08L389.138 174.129L389.676 174.162L390.197 174.194H390.751C396.463 174.194 403.044 171.546 403.044 164.912C403.044 161.895 401.648 159.31 398.958 157.862C396.541 156.615 393.753 156.187 391.141 155.663C390.092 155.422 388.096 155.141 388.096 153.693C388.096 152.246 389.705 151.918 390.832 151.918C392.962 151.918 394.486 152.636 395.294 154.686L402.28 152.569C400.592 147.786 395.978 145.812 391.19 145.812H391.19ZM78.5076 146.218V173.787H91.1438C93.6372 173.787 96.5996 173.754 98.7324 172.224C100.701 170.82 101.549 168.166 101.549 165.792C101.549 162.495 99.3858 160.085 96.2082 159.523C99.0247 158.8 100.865 156.345 100.865 153.449C100.865 151.197 99.7839 148.945 97.9341 147.619C96.2041 146.373 94.0812 146.218 91.9906 146.218H78.5076ZM117.833 146.218L109.268 173.787H116.14L117.833 168.365H125.194L126.757 173.787H135.404L126.757 146.218H117.833ZM144.359 146.218V173.787H165.073V167.192H152.648V162.731H162.695V156.592H152.648V152.569H165.073V146.218H144.359ZM216.676 146.218L225.974 162.128V173.787H234.165V162.128L242.812 146.218H235.419L230.794 155.289L225.974 146.218H216.676ZM280.004 146.218V152.847H285.785V173.787H293.829V152.846H299.496V146.218H280.004ZM308.794 146.218V173.787H329.491V167.192H317.066V162.731H327.113V156.592H317.066V152.569H329.49V146.218H308.794ZM339.88 146.218V173.787H346.246V154.083L351.506 173.787H356.896L361.928 154.083L361.993 173.787H369.874V146.218H358.736L354.958 160.842L350.953 146.218H339.88ZM86.2743 152.114H89.5639C91.172 152.114 92.8697 152.408 92.8697 154.458C92.8664 154.798 92.7939 155.134 92.6567 155.444C92.5194 155.755 92.3203 156.035 92.0714 156.266C91.4685 156.828 90.4977 156.787 89.6942 156.787H86.2743V152.114ZM121.497 154.328L123.744 162.34H119.233L121.497 154.328ZM86.2748 162.649H89.6134C90.3763 162.649 91.3465 162.662 92.0719 163.023C92.8759 163.426 93.3907 164.266 93.3907 165.19C93.3907 165.953 92.9843 166.668 92.3814 167.111C91.6993 167.673 90.7838 167.632 89.9386 167.632H86.2754L86.2748 162.649Z" fill="white"/>
</svg>
