<svg width="480" height="320" viewBox="0 0 480 320" fill="none" xmlns="http://www.w3.org/2000/svg">
<path d="M219.836 166.27V217.022C220.404 217.022 221.738 216.271 222.328 216.015C223.094 215.674 224 215.455 224.896 215.411C227.104 215.271 229.297 215.591 231.441 215.662C235.542 215.788 238.604 214.7 241.411 212.314C242.65 211.247 243.531 209.907 244.306 208.589C247.843 202.53 245.839 195.921 241.487 191.167C240.554 190.145 238.964 188.438 237.76 187.945C237.76 187.716 238.309 187.105 238.44 186.862C238.67 186.392 238.806 185.888 238.919 185.377C239.621 182.014 238.264 178.769 236.376 176.415C234.551 174.145 232.079 173.008 229.528 172.085C228.325 171.685 227.104 171.312 225.878 170.927C224.99 170.662 224.041 170.429 223.235 169.945C222.378 169.42 221.68 168.699 221.045 167.906C220.652 167.413 220.233 166.884 220.012 166.27H219.836ZM227.489 178.53C229.76 179.74 232.797 181.763 232.247 184.924C232.076 185.834 231.692 186.636 231.039 187.291C230.43 187.855 229.669 188.241 228.899 188.524C228.588 188.636 228.267 188.739 227.942 188.851C227.794 188.851 227.904 189.078 227.917 189.204C228.066 190.285 228.448 191.231 229.151 191.998C229.687 192.568 230.408 192.832 231.039 193.232C233.026 194.523 235.448 195.451 236.804 197.536C238.669 200.397 238.229 205.058 235.319 207.103C234.676 207.548 233.972 207.895 233.229 208.135C232.806 208.247 232.398 208.376 231.97 208.488C231.75 208.505 231.497 208.518 231.241 208.563C230.028 208.518 228.811 208.505 227.59 208.488V208.387C227.405 208.387 227.489 207.839 227.489 207.682V178.529V178.53ZM312.681 180.669C311.87 181.593 310.817 182.261 309.912 183.086C308.722 184.113 307.556 185.148 306.362 186.157V186.258H306.261V186.359C306.748 186.359 307.089 187.044 307.193 187.416C307.319 187.896 307.235 188.564 307.243 189.103V209.62C307.243 210.939 307.504 215.159 306.891 215.939V216.04H306.79V216.115H313.033C313.033 215.959 312.865 215.788 312.807 215.662C312.685 215.322 312.617 214.966 312.605 214.605C312.484 212.152 312.58 209.767 312.58 207.229C312.697 207.229 312.681 207.217 312.681 207.329C313.055 207.329 313.488 207.707 313.764 207.909C315.845 209.344 317.118 211.333 317.514 213.8C317.632 214.423 317.698 215.383 317.414 215.939C317.414 216.038 317.43 216.04 317.313 216.04V216.115H323.557C323.557 215.237 323.391 214.43 323.229 213.623C322.612 210.574 321.341 207.556 318.899 205.467C318.543 205.157 318.19 204.849 317.766 204.661V204.485C318.109 204.485 318.567 203.964 318.824 203.78C321.126 201.892 322.4 199.076 322.499 196.026H318.395C317.887 196.026 317.148 195.935 316.81 196.177C316.8 196.191 316.81 196.189 316.81 196.202H316.759C316.822 196.472 316.852 196.739 316.911 197.008V198.09C316.726 199.552 314.439 201.969 313.033 202.521V202.622H312.857V186.434C312.857 185.542 313.01 181.055 312.681 180.669ZM350.041 180.669C347.936 182.499 345.819 184.323 343.697 186.157C343.575 186.157 343.621 186.229 343.621 186.359C344.062 186.359 344.4 187.089 344.477 187.416C344.486 188.039 344.488 188.681 344.502 189.304V209.721C344.502 211.026 344.78 215.159 344.15 215.94V216.04H344.074V216.115H350.343C350.343 216.003 350.343 216.04 350.217 216.04C350.172 215.829 350.088 215.587 350.016 215.385C349.97 215.063 349.935 214.743 349.89 214.429C349.89 212.03 349.864 209.628 349.864 207.229H350.041C350.041 207.372 350.343 207.485 350.468 207.556C352.884 208.888 354.759 211.456 354.849 214.354C354.871 214.905 354.896 215.5 354.698 215.939C354.698 216.038 354.719 216.04 354.597 216.04V216.115H360.84C360.84 212.551 359.063 208.255 356.662 205.869C356.175 205.39 355.654 204.903 355.05 204.661V204.485C355.456 204.485 356.012 203.873 356.309 203.603C358.472 201.572 359.668 199.107 359.758 196.026C359.019 196.026 354.362 195.916 354.119 196.127C354.065 196.145 354.319 197.802 354.219 198.241C353.877 199.645 351.735 202.028 350.343 202.521V202.622H350.141V182.18C350.141 181.686 350.189 181.069 350.041 180.669ZM277.436 195.951C276.882 196.135 276.272 196.185 275.749 196.454C275.33 196.651 274.919 196.907 274.491 197.109V197.184H274.415C274.415 196.915 273.899 196.225 273.66 196.127C273.219 195.929 272.517 196.026 271.999 196.026H268.978C268.541 196.044 268.103 196.063 267.643 196.077C267.562 196.121 267.456 196.162 267.366 196.202C267.281 196.458 267.811 197.133 267.87 197.461C267.87 198.156 267.89 198.837 267.895 199.5V216.04H267.97C267.97 216.183 268.38 216.115 268.524 216.115H273.71V206.348C273.71 205.482 273.53 203.844 273.836 203.176C274.291 202.153 275.602 201.485 276.706 201.741C277.364 201.898 278.149 202.521 278.342 203.176C278.572 203.924 278.418 205.025 278.418 205.895V212.641C278.418 213.431 278.257 214.507 278.519 215.184C278.658 215.583 279.081 215.946 279.5 216.04C280.046 216.175 280.702 216.098 281.288 216.115H285.114V216.04C284.663 216.04 284.404 215.095 284.359 214.781C284.337 213.974 284.309 213.188 284.309 212.39V204.636C284.309 202.412 284.369 200.331 283.377 198.644C283.066 198.088 282.5 197.558 282.018 197.159C281.432 196.648 280.83 196.268 280.105 196.102C279.275 195.913 278.346 195.951 277.436 195.951ZM254.879 196.001C254.283 195.997 253.662 196.026 253.092 196.026C252.709 196.156 252.329 196.237 251.959 196.354C251.292 196.604 250.41 197.291 249.995 197.914C248.351 200.269 248.334 203.675 247.78 206.599C247.667 207.425 247.543 208.253 247.453 209.092C247.358 209.756 247.258 210.536 247.352 211.232C247.519 212.38 248.174 213.409 249.039 214.202C250.724 215.736 253.568 216.414 256.037 216.015C256.384 215.943 256.731 215.846 257.019 215.662C257.285 215.492 257.554 215.134 257.9 215.134C258.256 215.12 258.429 215.515 258.681 215.713C258.919 215.91 259.206 216.041 259.512 216.09C261.305 216.104 263.085 216.098 264.874 216.115V216.04C263.923 216.04 263.836 212.647 263.917 211.836C264.044 210.517 263.993 209.072 263.993 207.682V201.287C263.993 200.166 263.809 198.655 264.043 197.637C264.147 197.139 264.536 196.499 264.874 196.127V196.026H260.493C259.98 196.026 259.313 195.943 258.907 196.127C258.533 196.284 258.382 196.654 258.278 197.008H258.177V196.907C258.006 196.907 257.797 196.661 257.649 196.58C257.302 196.396 256.927 196.233 256.566 196.152C256.045 196.037 255.477 196.005 254.879 196.001ZM294.303 196.001C293.705 195.994 293.097 196.026 292.516 196.026C292.142 196.156 291.78 196.241 291.383 196.354C290.639 196.654 289.76 197.308 289.319 197.99C287.76 200.331 287.765 203.497 287.229 206.323C286.936 207.811 286.535 209.777 286.751 211.383C286.836 212.073 287.202 212.733 287.607 213.271C289.215 215.343 291.889 216.313 294.656 216.115C295.751 216.017 296.746 215.657 297.777 215.486V219.69C297.763 220.242 297.837 220.843 297.702 221.326C297.639 221.609 297.498 221.846 297.299 222.057C296.704 222.662 296.098 222.685 295.386 223.039C293.439 223.039 289.901 223.247 288.765 221.906H288.689V221.805C288.518 221.805 288.588 222.353 288.588 222.51V229.282H288.689C288.689 228.161 292.011 228.349 292.894 228.25C294.53 228.066 296.262 228.199 297.853 227.872C299.701 227.491 301.561 226.149 302.309 224.373C303.516 221.619 303.316 218.131 303.316 214.781V199.777C303.316 199.1 303.261 198.339 303.391 197.739C303.513 197.187 303.898 196.727 304.096 196.203C304.245 196.203 304.222 196.156 304.222 196.026H300.093C299.526 196.026 298.834 195.943 298.357 196.127C297.947 196.243 297.767 196.641 297.677 197.008C297.47 197.008 297.131 196.647 296.947 196.53C296.635 196.418 296.335 196.306 296.015 196.203C295.501 196.062 294.901 196.009 294.303 196.001V196.001ZM332.821 196.001C332.128 196.002 331.448 196.026 330.782 196.026C330.538 196.102 330.311 196.153 330.077 196.202C327.553 196.202 325.835 198.343 325.218 200.482C324.772 202.016 324.68 203.765 324.513 205.366C324.333 206.945 324.057 208.811 324.286 210.502C324.575 212.443 325.928 214.287 327.685 215.184C330.006 216.359 333.796 216.416 336.395 215.663C338.306 215.093 339.98 213.596 340.701 211.735C341.629 209.466 340.84 205.414 340.524 202.975C340.421 202.037 340.305 201.064 340.021 200.23C339.692 199.217 339.111 198.178 338.309 197.411C336.974 196.153 334.899 195.996 332.821 196.001ZM255.937 200.583C256.869 200.583 257.739 200.575 258.253 201.287C258.519 201.646 258.592 209.217 258.353 209.872C258.119 210.536 257.478 211.232 256.843 211.559C256.609 211.657 256.377 211.737 256.138 211.836C255.066 211.836 254.228 211.439 253.822 210.502C253.547 209.861 253.61 209.241 253.646 208.488C253.669 206.232 253.969 202.701 255.131 201.086C255.338 200.786 255.657 200.726 255.937 200.583ZM295.285 200.583C296.114 200.583 297.178 200.529 297.601 201.237C297.903 201.663 297.908 209.544 297.651 210.149C297.224 211.073 296.536 211.472 295.738 212.037C294.774 212.037 294.12 211.935 293.548 211.181C292.304 209.45 293.36 202.618 294.505 201.111C294.73 200.811 294.974 200.74 295.285 200.583ZM332.116 200.834C332.94 200.834 333.674 200.83 334.205 201.413C335.156 202.422 335.076 204.845 335.162 206.348C335.202 206.989 335.294 207.737 335.213 208.387C335.145 209.279 334.911 210.114 334.533 210.854C334.213 211.437 333.681 211.669 333.199 212.037C332.374 212.037 331.725 212.01 331.184 211.458C329.851 210.122 330.142 207.221 330.228 205.265C330.291 203.947 330.326 202.485 331.033 201.489C331.308 201.077 331.711 201.045 332.116 200.834H332.116ZM215.557 203.428C215.327 204.038 214.903 204.615 214.524 205.14C212.654 207.593 209.849 208.346 207.173 209.369C205.438 210.023 203.732 210.904 202.214 212.012C197.082 215.685 195.11 221.727 194.133 227.771C193.821 229.633 193.503 231.545 193.503 233.537H193.428C193.428 233.676 192.379 233.623 192.194 233.713C191.734 233.713 191.147 233.618 190.759 233.788C189.092 233.788 187.586 233.802 186.202 233.335C185.274 233.026 184.52 232.443 183.609 232.102V232.026H183.534C183.534 235.094 184.669 237.216 187.26 238.723C188.062 239.175 188.958 239.62 189.953 239.704C190.823 239.79 191.727 239.713 192.547 239.654C192.547 240.255 191.982 241.563 191.766 242.147C190.248 246.2 187.249 249.362 183.383 251.335C182.491 251.788 181.57 252.331 180.588 252.644V252.821C180.845 252.947 181.103 253.043 181.369 253.173C181.774 253.317 182.147 253.475 182.552 253.601C184.242 253.982 186.238 254.168 188.166 254.029C195.934 253.419 199.212 246.312 199.671 239.226C201.221 239.226 202.822 238.817 204.404 238.975C205.071 239.042 205.764 239.123 206.368 239.352C206.791 239.523 207.195 239.691 207.601 239.831C207.601 239.122 207.218 238.314 206.997 237.69C205.852 234.722 203.473 233.918 200.476 233.537C200.698 232.115 200.935 230.717 201.156 229.282C201.855 225.524 203.197 216.184 208.054 216.04V249.875C208.054 250.7 208.164 251.703 207.979 252.443C207.857 252.994 207.446 253.671 206.896 253.954C206.896 254.11 207.707 254.054 207.878 254.054H216.639V253.954C216.215 253.954 215.868 253.366 215.783 253.047C215.476 252.11 215.632 250.789 215.632 249.699V206.876C215.632 205.859 215.836 204.32 215.557 203.428ZM221.447 223.568V223.668C220.812 223.668 220.144 224.04 219.685 224.398C216.535 226.923 218.44 232.242 222.58 231.699C226.937 231.143 227.614 225.002 223.487 223.769C222.86 223.585 222.195 223.568 221.447 223.568ZM316.961 233.537C316.645 233.676 316.312 233.808 315.979 233.964C315.771 233.991 315.575 234.034 315.349 234.065H311.599C311.134 234.065 310.475 233.996 310.088 234.166C308.303 234.166 306.591 235.043 305.582 236.406C303.523 239.147 305.364 242.309 307.671 244.211C309.19 245.458 310.82 246.028 311.397 248.113C311.541 248.624 311.476 249.1 311.12 249.472C310.237 250.334 307.673 249.134 306.916 248.591C306.515 248.25 306.125 247.9 305.733 247.559V247.484C305.516 247.484 305.566 247.841 305.556 248.012C305.552 250.228 305.556 252.455 305.556 254.683H305.733C305.733 254.567 305.757 254.561 305.833 254.507C306.595 254.023 307.55 254.054 308.577 254.054H312.051C312.547 254.041 313.058 254.013 313.562 254.004C314.873 253.717 316.053 252.846 316.86 251.738C319.748 247.639 316.155 244.263 313.285 241.568C312.641 240.953 311.363 240.421 311.372 239.402C311.372 239.057 311.461 238.838 311.749 238.673C312.024 238.484 312.408 238.384 312.782 238.496C313.823 238.77 314.147 239.402 315.526 239.402C315.868 239.402 316.192 239.356 316.457 239.226C316.799 239.087 316.98 238.798 317.062 238.471C317.179 237.946 317.227 233.734 316.961 233.537ZM300.572 233.914C299.139 233.927 297.768 234.026 297.475 234.317C296.858 234.913 297.072 236.229 297.072 237.162V244.362C297.072 245.851 297.268 247.625 296.695 248.818C296.199 249.84 295.784 249.861 294.933 250.404C293.527 250.404 292.759 249.019 292.39 247.912C292.02 246.79 292.074 245.005 291.962 243.758C291.719 240.946 291.471 238.132 291.232 235.324C291.246 234.786 291.51 234.263 291.987 234.065V233.964H286.096C285.686 234.247 285.341 234.487 285.165 234.972C284.944 235.608 285.109 236.423 285.19 237.086C285.388 238.588 285.587 240.09 285.794 241.593C286.416 244.956 286.394 250.615 288.891 252.871C289.368 253.283 289.888 253.54 290.452 253.828C291.195 254.195 292.027 254.543 292.969 254.583C294.195 254.65 295.828 254.787 296.896 254.23H297.073V257.251C297.037 258.705 297.022 259.816 295.864 260.65C295.323 261.036 294.695 261.034 294.127 261.33C292.397 261.33 290.145 261.364 289.117 259.92H289.017V259.819C288.868 259.819 288.966 260.305 288.966 260.449V266.667H289.117C289.117 266.51 289.291 266.517 289.394 266.49C289.926 266.262 290.613 266.328 291.257 266.314C292.307 266.283 293.476 266.272 294.58 266.214C295.329 266.191 296.182 266.175 296.871 265.987C299.02 265.422 301.918 263.475 302.837 261.304C303.793 258.99 303.492 255.898 303.492 253.072V236.809C303.492 236.128 303.374 235.304 303.567 234.695C303.649 234.421 303.853 234.195 304.096 234.065V233.964C303.497 233.964 302.005 233.902 300.572 233.914H300.572ZM279.022 233.939C278.674 233.944 278.336 233.995 278.091 234.116C277.735 234.259 277.617 234.584 277.436 234.871V234.946H277.386C277.386 234.798 277.114 234.691 276.983 234.619C275.676 233.866 274.063 233.964 272.351 233.964C271.95 234.104 271.532 234.226 271.117 234.342C270.504 234.58 269.698 235.164 269.28 235.702C268.766 236.388 268.342 237.225 268.121 238.068C267.473 240.553 267.195 243.214 266.812 245.797C266.641 246.963 266.32 248.432 266.636 249.598C266.938 250.76 267.755 251.796 268.751 252.594C270.17 253.715 273.376 254.374 275.372 253.903C275.732 253.831 276.031 253.748 276.328 253.551C276.567 253.394 276.777 253.086 277.084 253.072C277.467 253.046 277.609 253.445 277.839 253.651C278.078 253.84 278.345 253.945 278.62 254.004C279.3 254.017 279.983 254.041 280.659 254.054H284.032V253.979C283.879 253.979 283.786 253.793 283.705 253.677C283.002 252.51 283.126 250.894 283.126 249.346V240.283C283.148 238.781 283.179 237.272 283.201 235.752C283.278 235.214 283.685 234.478 284.032 234.065V233.964H280.054C279.736 233.964 279.37 233.935 279.022 233.939ZM220.894 233.964C220.407 234.292 220.136 234.565 219.987 235.148C219.956 235.641 219.948 236.135 219.912 236.633V249.346C219.912 250.378 220.094 252.504 219.76 253.324C219.652 253.58 219.492 253.738 219.307 253.953H219.182V254.054H226.432V253.953C225.04 253.953 225.374 250.88 225.374 249.8V239.755C225.352 238.293 225.099 236.523 225.324 235.047C225.396 234.652 225.538 234.249 225.903 234.065V233.964H220.893H220.894ZM228.219 233.964C228.85 234.915 228.572 237.849 228.572 239.226C228.562 243.823 228.572 248.4 228.572 252.997C228.526 253.337 228.449 253.627 228.219 253.878V253.953H228.118V254.054H234.563V253.953C233.955 253.953 234.11 250.499 234.11 249.8V245.62C234.11 244.768 233.962 243.75 234.16 242.952C234.553 241.36 235.863 240.217 237.408 239.805C238.462 239.518 239.971 239.959 240.706 240.56H240.807C240.604 239.054 240.414 237.519 240.202 236.004C240.14 235.632 240.165 235.091 239.976 234.795C239.714 234.414 239.232 234.232 238.818 234.115C236.939 233.577 235.67 234.693 234.463 235.827C233.611 235.827 233.833 234.619 233.833 233.964H228.219ZM242.217 233.964C242.46 234.207 242.676 234.399 242.77 234.695C243.018 235.461 242.888 236.415 242.947 237.262C243.032 238.854 243.129 240.454 243.223 242.046C243.499 246.611 244.946 249.711 248.384 252.518C248.97 253.003 249.541 253.657 250.222 253.953C250.222 254.093 250.313 254.054 250.449 254.054C250.683 253.444 250.89 252.815 251.129 252.191C251.683 250.859 252.211 249.507 252.765 248.188C253.031 247.566 253.299 246.945 253.57 246.325C253.728 246.083 254.006 245.903 254.326 245.948C254.542 245.993 254.724 246.155 254.854 246.325C255.368 247.137 255.634 248.179 256.012 249.044C256.715 250.632 257.506 252.391 258.001 254.055H258.178C258.178 253.937 258.263 253.936 258.353 253.878C259.205 253.326 259.982 252.578 260.77 251.914C261.19 251.511 261.618 251.116 262.054 250.731C262.779 249.807 263.39 248.746 263.917 247.71C265.332 244.988 265.321 240.612 265.478 237.262C265.505 236.397 265.469 235.571 265.654 234.795C265.713 234.481 265.919 234.222 266.208 234.065V233.964H260.947C260.163 233.964 259.291 233.885 258.656 234.141C258.602 234.253 258.877 234.452 258.958 234.569C259.543 235.25 259.412 239.135 259.21 240.157C259.075 240.821 258.937 241.514 258.807 242.147H258.706C258.499 241.738 258.26 241.314 258.026 240.888C257.332 239.61 256.655 238.277 255.735 237.111C255.303 236.546 254.784 236.058 254.35 235.475C253.102 235.475 250.449 241.081 249.718 242.046V242.146H249.618C249.474 241.483 249.33 240.789 249.19 240.107C248.987 238.744 249.007 237.133 249.165 235.752C249.201 235.501 249.225 235.223 249.265 234.972C249.356 234.657 249.604 234.356 249.87 234.141V234.065H249.995V233.964H242.217ZM275.146 238.496C275.938 238.496 276.908 238.49 277.386 239.1C277.516 239.284 277.581 239.499 277.613 239.755V245.268C277.613 246.093 277.799 247.292 277.461 247.987C277.196 248.588 276.667 249.141 276.076 249.472C275.842 249.584 275.631 249.688 275.397 249.8C274.595 249.8 273.886 249.654 273.408 249.044C272.106 247.295 273.172 240.609 274.289 239.075C274.514 238.779 274.843 238.64 275.145 238.496H275.146Z" fill="#254AA5"/>
<path d="M203.955 156.033C204.127 156.558 203.861 157.029 204.036 157.451C204.036 158.262 204.05 159.043 204.05 159.863C203.896 163.653 203.653 167.384 203.653 171.16C203.653 174.667 203.482 177.093 203.482 179.362C203.501 179.958 203.378 183.138 203.401 183.721C203.423 185.663 203.013 187.452 202.77 189.295C202.009 195.314 199.129 200.65 194.547 204.695C192.921 206.112 191.253 207.305 189.446 208.341C188.879 208.615 188.306 208.91 187.73 209.193C187.667 209.206 187.617 209.233 187.536 209.233H187.302C186.371 208.636 185.435 208.045 184.495 207.462C182.526 206.328 180.263 205.457 177.916 205.116C176.794 204.964 175.483 204.793 174.262 204.964C166.881 205.901 159.397 211.606 156.013 218.176C154.986 220.162 154.193 222.162 153.761 224.476C153.481 226.095 153.454 228.167 153.648 229.884C154.248 236.243 156.541 241.419 160.952 245.818C163.299 248.145 165.737 250.034 168.342 251.796C169.296 252.388 170.284 252.998 171.225 253.612C171.319 253.652 171.396 253.652 171.396 253.796H171.504V253.877C167.62 253.751 163.191 251.495 160.249 249.468C158.095 247.962 156.004 246.531 154.09 244.553C153.031 243.491 152.143 242.284 151.327 241.096C150.386 239.701 149.39 238.329 148.664 236.822C146.628 232.593 145.483 227.257 145.821 221.897C146.029 218.687 146.754 215.709 147.755 212.911C148.313 211.35 149.201 209.942 150.039 208.525C154.382 201.416 162.015 196.914 168.625 192.448C172.892 189.591 177.146 186.685 181.422 183.819C185.513 181.053 189.577 178.357 193.101 174.635C196.3 171.231 198.873 167.245 200.756 163.173C201.54 161.442 203.306 157.809 203.955 156.034" fill="#ED1C24"/>
<path d="M203.32 137.229C203.491 137.71 203.419 138.391 203.419 138.988V142.817C203.419 145.275 203.32 148.252 203.036 150.553C202.378 155.764 199.99 159.724 197.408 163.98C196.511 165.437 195.493 166.76 194.547 168.164C193.695 169.397 192.776 170.662 191.713 171.752C189.974 173.546 188.077 175.173 186.157 176.622C183.089 178.904 180.124 181.146 176.88 183.106C173.577 185.093 170.432 187.335 167.246 189.492C160.442 194.062 153.441 199.3 148.705 206.278C147.357 208.255 146.438 210.453 145.587 212.664C144.244 216.13 143.501 220.229 143.771 224.472C144.005 228.319 145.186 231.781 146.556 235.059C147.47 237.172 148.507 239.23 149.876 241.132C151.431 243.392 153.531 245.504 155.685 247.334C157.888 249.208 160.086 250.926 162.452 252.486C162.776 252.715 165.791 254.173 166.147 254.173C166.147 254.204 164.038 253.792 164.038 253.85C159.74 252.957 155.716 250.639 152.49 248.015C144.591 241.517 139.324 232.562 138.851 222.077C138.666 218.418 138.878 214.852 140.058 211.785C144.875 199.3 156.613 189.663 167.26 181.689C170.973 178.864 174.685 176.039 178.398 173.244C180.791 171.429 183.192 169.612 185.594 167.792C186.304 167.081 187.02 166.377 187.743 165.679C191.573 161.85 194.944 157.791 197.674 153.334C198.449 152.06 199.251 150.791 199.913 149.464C201.08 147.046 202.008 144.382 202.54 141.655C202.828 140.207 203.239 138.746 203.32 137.229" fill="#B49142"/>
<path d="M202.18 53.333C202.883 53.333 203.572 53.333 203.964 53.9158C204.437 54.593 204.217 56.5394 204.217 57.5215C204.252 62.3965 204.469 110.565 204.469 113.596C204.536 116.937 204.437 120.978 204.388 124.359C204.253 133.48 201.139 141.638 197.161 148.835C195.642 151.544 194.389 154.329 192.235 156.741C190.708 158.455 189.167 160.159 187.478 161.751C184.157 164.841 180.656 167.585 177.141 170.293C173.491 173.33 169.846 176.366 166.192 179.37C163.624 181.304 161.051 183.236 158.591 185.407C157.009 186.797 155.513 188.246 153.945 189.663C152.332 191.124 150.886 192.824 149.349 194.416C144.808 199.084 140.752 204.381 138.851 210.408C138.166 212.511 137.675 214.538 137.368 216.839C137.107 218.807 137.283 220.982 137.418 222.955C138.049 233.086 142.739 242.068 150.683 248.23C153.157 250.145 155.738 251.863 158.564 253.083C159.131 253.325 160.167 253.961 160.785 253.961V254.046C151.269 252.881 142.739 249.535 135.417 244.042C134.016 243.019 132.75 241.799 131.506 240.579C122.481 231.566 118.056 218.785 119.395 204.919C120.003 198.462 121.521 192.448 124.058 186.968C128.348 177.676 135.368 170.218 143.231 163.101C144.97 161.666 146.686 160.245 148.394 158.814C151.363 156.455 154.242 154.029 157.167 151.545C158.514 150.37 159.862 149.198 161.213 148.029C165.156 144.311 169.256 140.732 172.892 136.66C177.263 131.709 181.476 126.696 185.098 121.377C187.279 118.171 189.262 114.879 191.24 111.601C192.781 109.062 194.056 106.363 195.272 103.654C199.512 93.9631 202.238 82.6934 202.608 71.1146C202.729 67.4239 202.464 63.9618 201.973 60.6252C201.77 59.4772 201.572 58.3246 201.351 57.1632C201.179 56.3693 200.94 55.477 201.044 54.5935C201.125 53.9163 201.653 53.6026 202.18 53.3335" fill="#254AA5"/>
</svg>
