<svg width="480" height="320" viewBox="0 0 480 320" fill="none" xmlns="http://www.w3.org/2000/svg">
<path d="M388.081 204.177H404.447V234.209H424.531V246.788H388.08V204.177M328.156 204.177H350.684L365.877 246.788H348.72L345.921 237.573H332.113L329.499 246.789H313.189L328.156 204.177ZM334.375 227.311H343.844L339.124 213.333L334.375 227.311ZM250.777 204.176H277.587C284.979 204.176 292.244 206.551 292.244 214.677C292.244 223.651 283.453 225.234 283.453 225.234C289.374 226.039 293.035 230.676 293.035 234.944C293.035 245.699 284.357 246.787 275.51 246.787H250.777V204.176ZM266.168 237.996H270.45C273.433 237.996 276.668 236.894 276.668 233.601C276.668 229.94 273.616 229.262 270.564 229.262H266.167L266.168 237.996ZM266.168 220.471H270.253C273.135 220.471 276.244 219.623 276.244 216.387C276.244 213.207 273.559 212.231 270.62 212.231H266.168V220.471ZM203.204 247.508C188.308 247.508 179.588 240.003 179.588 225.475C179.588 211.185 188.308 203.441 203.204 203.441C218.101 203.441 227.019 211.185 227.019 225.475C227.019 240.003 218.101 247.508 203.204 247.508ZM203.204 237.262C209.677 237.262 209.861 230.053 209.932 225.475C209.861 221.503 209.437 213.688 203.204 213.688C197.169 213.688 196.675 221.503 196.675 225.475C196.675 230.053 197.339 237.262 203.204 237.262ZM124.878 204.176H141.245V234.208H161.328V246.787H124.877V204.176M98.5615 245.275C71.878 252.795 55.3848 242.421 55.3848 224.953C55.3848 209.83 69.179 199.258 96.8509 205.109V216.586C94.0812 214.678 72.1184 209.208 72.1184 225.984C72.1184 239.44 83.5385 236.979 84.5141 236.612V225.249H98.5615V245.277" fill="#9E9FA3"/>
<path d="M55.8506 185.139L106.335 115.943H96.3431V106.87L55.7515 162.498V185.366L55.8506 185.139ZM59.8932 185.366H120.991C141.216 185.366 167.107 182.652 167.107 155.191C167.107 138.641 153.54 129.045 141.922 127.49C141.922 127.49 165.129 124.889 165.129 100.637C165.129 84.5956 154.374 77.0483 140.777 74.264L121.839 100.227C125.909 111.308 117.5 115.773 110.503 115.773L59.8941 185.14L59.8932 185.366ZM107.621 162.173H96.3431V139.136H107.931C115.987 139.136 124.042 140.902 124.042 150.569C124.042 159.275 115.506 162.173 107.62 162.173M79.6369 73.0205L55.7515 105.767V122.091L91.5517 73.0205H79.6359M100.482 73.0205L55.7524 134.33V154.683L115.323 73.0205H100.484M121.033 73.0205L105.585 94.206C105.585 94.206 106.66 94.15 108.497 94.15C111.748 94.2344 116.935 94.8272 119.761 97.5419L137.188 73.6427C131.478 72.6946 121.033 73.0205 121.033 73.0205ZM55.7515 72.9498V89.7541L67.9489 73.0205L55.7515 72.9498ZM233.279 96.7499L245.689 133.61H220.743L233.279 96.7499ZM353.483 146.627L374.555 184.602H424.615L383.954 127.335L422.001 72.2432H376.534L358.204 105.767L341.47 72.4414H291.042L327.138 127.334L298.08 168.957L263.539 72.6102H204.151L164.719 184.956H207.684L214.609 160.646H251.158L258.564 184.956H333.738L353.483 146.626" fill="#00A651"/>
</svg>
