<svg width="480" height="320" viewBox="0 0 480 320" fill="none" xmlns="http://www.w3.org/2000/svg">
<path d="M96.4568 170.52L93.8877 171.193C93.3017 171.355 92.8403 171.617 92.7288 172.067C92.7031 172.164 92.69 172.265 92.6898 172.365C92.6898 172.941 93.1024 173.413 93.687 173.502H93.7119L96.3448 174.2C101.307 175.521 105.423 179.724 105.423 184.85C105.423 185.523 105.35 186.21 105.199 186.908C104.239 191.423 101.159 195.288 95.8839 195.288C95.7198 195.288 95.5464 195.288 95.3706 195.277C91.9299 195.115 88.7245 192.058 88.7245 188.566C88.7245 187.681 88.9233 186.771 89.3842 185.886C89.7466 185.174 90.4836 184.8 91.1066 184.462C91.905 184.051 92.5529 183.691 92.74 182.943C92.8251 182.617 92.8673 182.281 92.8656 181.943C92.8656 180.759 92.3546 179.625 91.3551 178.964C90.8441 178.614 90.3443 178.477 89.8586 178.477C88.4372 178.477 87.0523 179.673 85.9683 180.983C84.522 182.73 83.9355 184.562 83.9355 186.383C83.9355 189.44 85.5694 192.47 87.6134 194.978C90.3082 198.281 94.5492 199.655 98.777 199.703H99.0255C105.25 199.703 111.41 196.573 113.543 190.549C114.102 189.005 114.389 187.377 114.392 185.735C114.392 183.328 113.767 180.946 112.457 178.863C110.938 176.431 108.629 174.574 105.936 173.574L105.149 173.289L105.973 173.114C109.9 172.244 113.527 170.351 116.486 167.627C120.929 163.567 123.595 157.921 123.908 151.911C124.032 150.864 124.095 149.842 124.095 148.842C124.095 134.959 112.206 124.596 99.0241 120.916C96.0386 120.089 92.9548 119.669 89.8568 119.668C82.8051 119.669 75.9264 121.852 70.1648 125.917C62.2455 131.493 55.3848 139.698 55.3848 149.365C55.3848 150.523 55.4851 151.696 55.6839 152.894C56.6581 158.493 58.0542 164.394 63.592 167.175C64.7898 167.772 66.1611 168.322 67.4457 168.322C68.2188 168.322 68.9553 168.135 69.6398 167.649C70.9135 166.739 71.7598 165.278 71.7598 163.795C71.7598 163.221 71.6229 162.634 71.3378 162.062C70.5141 160.428 68.5427 160.028 66.697 159.828C66.6355 159.828 66.5601 159.816 66.4987 159.816C66.222 159.816 65.9623 159.867 65.6613 159.928C65.3875 159.978 65.0748 160.028 64.7645 160.028C64.5619 160.032 64.3598 160.007 64.1644 159.953C63.0673 159.604 62.4691 158.632 61.9328 157.795C61.7964 157.571 61.6707 157.359 61.5343 157.161C60.2497 155.312 59.7387 153.319 59.7387 151.297C59.7387 147.519 61.5451 143.627 63.4799 140.348C65.8367 136.344 69.6651 133.587 73.7312 131.516C77.7855 129.46 82.2253 128.399 86.6767 128.399C90.3682 128.399 94.0733 129.122 97.5534 130.607C103.714 133.224 109.513 137.516 111.747 144.089C112.52 146.359 112.919 148.717 112.919 151.073C112.919 155.064 111.783 159.018 109.426 162.372C106.357 166.75 104.749 168.073 96.4554 170.517" fill="#E22526"/>
<path d="M75.6533 138.413L69.3313 140.946C68.9431 141.094 68.6562 141.382 68.6562 141.681C68.6562 141.731 68.6693 141.792 68.6946 141.856C68.7931 142.155 69.0434 142.328 69.3172 142.328C69.3791 142.328 69.4429 142.317 69.5048 142.305L69.5296 142.292H69.5685L71.4508 142.255H71.4757C72.2858 142.255 72.8723 142.904 73.3078 143.378C73.322 143.401 73.3388 143.421 73.358 143.44C74.0195 144.163 74.5441 145.087 74.5441 146.095L74.7063 190.994C74.7063 192.292 74.1316 193.465 73.3969 194.387C72.7603 195.199 71.9253 195.847 71.0012 196.233L70.9759 196.246H70.9647L68.6079 196.819C68.1199 196.933 67.7842 197.207 67.7842 197.581C67.7842 198.005 68.1335 198.329 68.6079 198.329L81.2773 198.379C81.6768 198.379 82.0256 198.092 82.3383 197.668C82.6121 197.307 82.6875 196.819 82.6875 196.271L82.7124 137.378C82.7124 136.881 82.6758 136.456 82.3748 136.182C82.2014 136.018 81.9529 135.995 81.6266 135.995H81.1906L75.6538 138.414L75.6533 138.413ZM139.269 171.561L153.088 171.449H153.15C153.699 171.449 154.197 171.435 154.521 171.1C154.697 170.899 154.747 170.637 154.797 170.251C154.808 170.115 154.82 169.964 154.858 169.815C154.959 169.352 154.995 168.892 154.995 168.417C154.995 166.895 154.534 165.362 154.035 163.865C151.789 157.266 145.418 153.088 138.493 153.088H138.343C132.456 153.138 127.505 156.805 124.076 161.432C120.957 165.648 120.097 170.912 120.097 176.1V176.435C120.147 184.055 121.794 192.201 128.329 196.616C131.297 198.623 134.701 199.933 138.318 199.933C144.405 199.933 149.507 196.029 152.886 191.065C154.32 188.959 155.592 186.714 155.904 184.182L156.041 183.109V183.084C156.055 183.034 156.066 182.972 156.066 182.908C156.066 182.66 155.943 182.422 155.705 182.285C155.626 182.238 155.535 182.212 155.443 182.21C155.169 182.21 154.882 182.411 154.669 182.685L153.908 183.695C152.899 185.534 151.529 187.151 149.88 188.448C147.399 190.38 144.442 191.863 141.264 191.863C140.813 191.863 140.353 191.827 139.89 191.765C136.299 191.265 133.506 188.833 131.334 186.164C129.784 184.263 128.638 182.065 127.966 179.705C127.5 178.074 127.261 176.387 127.257 174.69C127.257 173.705 127.343 172.719 127.519 171.733L127.556 171.523H127.754L139.267 171.56L139.269 171.561ZM136.8 167.498L129.115 167.472C128.668 167.472 128.107 167.335 127.87 166.811C127.808 166.685 127.795 166.548 127.795 166.437C127.795 166.325 127.808 166.213 127.82 166.113C127.831 166.012 127.844 165.925 127.844 165.839C128.02 162.084 130.339 158.642 133.993 157.456C134.922 157.144 135.895 156.984 136.875 156.982C137.972 156.982 139.069 157.194 140.092 157.632C143.046 158.917 145.031 161.809 145.031 164.99C145.031 165.328 145.006 165.677 144.956 166.026C144.942 166.113 144.942 166.213 144.942 166.325C144.942 166.587 144.942 166.961 144.669 167.235C144.431 167.484 144.107 167.509 143.87 167.509H143.372L143.347 167.523L136.799 167.498H136.8ZM176.723 171.959L190.542 171.848H190.604C191.154 171.848 191.651 171.834 191.975 171.499C192.151 171.298 192.201 171.035 192.251 170.65C192.26 170.503 192.281 170.357 192.313 170.214C192.413 169.751 192.449 169.29 192.449 168.815C192.449 167.294 191.989 165.761 191.489 164.264C189.244 157.665 182.872 153.488 175.949 153.488H175.799C169.912 153.538 164.962 157.205 161.532 161.831C158.413 166.048 157.553 171.311 157.553 176.499V176.835C157.603 184.455 159.25 192.601 165.785 197.016C168.753 199.023 172.157 200.333 175.774 200.333C181.861 200.333 186.963 196.429 190.342 191.465C191.776 189.359 193.048 187.114 193.36 184.581L193.497 183.509V183.484C193.511 183.434 193.522 183.372 193.522 183.308C193.522 183.06 193.399 182.822 193.161 182.685C193.082 182.638 192.991 182.612 192.899 182.61C192.625 182.61 192.338 182.811 192.126 183.084L191.366 184.095C190.356 185.934 188.986 187.549 187.337 188.845C184.855 190.78 181.897 192.263 178.72 192.263C178.269 192.263 177.809 192.227 177.346 192.165C173.755 191.665 170.962 189.233 168.79 186.564C167.239 184.662 166.093 182.463 165.422 180.103C164.956 178.473 164.717 176.786 164.713 175.09C164.713 174.104 164.799 173.119 164.975 172.133L165.012 171.921H165.21L176.723 171.96V171.959ZM174.519 167.593L166.837 167.567C166.387 167.567 165.826 167.431 165.589 166.906C165.527 166.78 165.516 166.643 165.516 166.532C165.516 166.42 165.527 166.308 165.539 166.208C165.552 166.107 165.563 166.02 165.563 165.934C165.739 162.179 168.058 158.738 171.712 157.552C172.641 157.24 173.614 157.081 174.594 157.079C175.691 157.079 176.788 157.289 177.811 157.727C180.768 159.011 182.75 161.905 182.75 165.085C182.75 165.423 182.725 165.772 182.675 166.121C182.664 166.208 182.664 166.308 182.664 166.42C182.664 166.682 182.664 167.056 182.387 167.33C182.153 167.579 181.828 167.604 181.591 167.604H181.091L181.066 167.618L174.518 167.593H174.519ZM213.68 153.3C208.406 154.173 203.623 156.918 200.21 161.033C196.892 165.023 195.122 170.049 195.122 175.201C195.122 175.687 195.133 176.173 195.172 176.661C195.172 182.098 196.655 187.423 199.811 191.827C201.196 193.772 202.729 195.568 204.689 196.914C207.445 198.821 210.699 199.933 214.066 199.933H214.242C219.117 199.882 223.459 197.227 226.726 193.647C228.958 191.215 230.519 188.247 231.304 185.004L231.728 183.57C231.789 183.346 231.839 183.095 231.839 182.871C231.839 182.547 231.739 182.31 231.516 182.16C231.376 182.079 231.217 182.036 231.055 182.036C230.567 182.036 230.131 182.422 230.131 182.933V182.997L230.106 183.045L229.444 184.343C228.709 185.814 227.737 187.174 226.526 188.272C224.094 190.503 220.913 191.625 217.685 191.625C217.054 191.627 216.425 191.586 215.8 191.502C212.184 191.014 209.14 188.895 206.82 186.2C203.804 182.671 203.243 177.97 203.243 173.53V172.743C203.291 169.002 203.516 164.961 205.848 161.744C207.395 159.611 209.291 157.402 212.058 156.804C212.857 156.631 213.706 156.517 214.554 156.517C215.976 156.517 217.397 156.854 218.545 157.865C219.38 158.6 219.955 159.611 220.341 160.608C220.528 161.096 220.564 161.593 220.603 162.054C220.639 162.554 220.678 163.003 220.852 163.414C221.787 165.584 223.77 167.469 225.939 167.469C226.564 167.469 227.226 167.306 227.885 166.943C229.371 166.12 230.155 164.461 230.356 162.741C230.379 162.565 230.379 162.403 230.379 162.23C230.379 159.96 228.547 158.239 226.813 156.631C226.701 156.53 226.601 156.43 226.5 156.343C223.995 154.011 220.726 152.775 217.397 152.775C216.149 152.778 214.907 152.951 213.705 153.289L213.68 153.3V153.3Z" fill="#E22526"/>
<path d="M234.476 169.104L234.289 192.851C234.277 193.786 233.764 194.585 233.253 195.207C232.759 195.809 232.125 196.281 231.407 196.581L231.382 196.592H231.357L229.05 196.966C228.551 197.053 228.202 197.291 228.202 197.628C228.202 198.027 228.514 198.326 228.938 198.326L247.821 198.463C248.22 198.463 248.53 198.151 248.558 197.752V197.715C248.558 197.304 248.206 196.953 247.807 196.953H247.77L246.187 196.766C245.04 196.629 244.317 195.682 243.73 194.92C243.255 194.286 242.906 193.562 242.733 192.764L242.719 192.739V192.714L242.532 166.049V166.01C242.532 165.711 242.557 165.412 242.682 165.1C242.795 164.801 243.007 164.564 243.194 164.365C243.269 164.276 243.331 164.203 243.392 164.114C244.953 162.182 246.961 160.573 249.393 159.875C250.552 159.537 251.8 159.264 253.034 159.264C254.131 159.264 255.218 159.476 256.226 160.026C258.672 161.358 260.13 163.941 260.155 166.697L260.381 192.738V192.775C260.381 193.649 260.155 194.548 259.568 195.233C259.096 195.782 258.496 196.107 257.859 196.318L255.977 196.953C255.916 196.978 255.866 197.003 255.802 197.016C255.204 197.215 254.805 197.377 254.805 197.751V197.801C254.844 198.251 255.217 198.55 255.729 198.55L274.061 198.538C274.586 198.538 275.022 198.215 275.072 197.74V197.653C275.072 197.179 274.672 196.779 274.173 196.779H274.112L274.075 196.791L274.036 196.779L272.491 196.456C271.618 196.268 270.919 195.732 270.383 195.096C269.822 194.447 269.372 193.638 269.361 192.714L269.124 168.294C269.099 165.949 268.761 163.603 267.851 161.447C266.603 158.44 264.796 155.572 261.852 154.137C260.331 153.388 258.672 153.078 256.988 153.078C255.989 153.078 254.98 153.19 253.981 153.377C251.912 153.787 250.066 154.86 248.231 155.935C246.349 157.032 244.615 158.342 243.043 159.811L242.632 160.199V159.637L242.384 133.721C242.37 133.309 242.158 132.909 241.808 132.699C241.643 132.6 241.454 132.548 241.261 132.549C241.085 132.549 240.912 132.585 240.75 132.66L228.852 137.773C228.388 137.974 228.064 138.273 228.064 138.597C228.064 138.661 228.079 138.723 228.103 138.798C228.151 138.939 228.242 139.061 228.362 139.148C228.483 139.235 228.627 139.283 228.776 139.284C228.925 139.284 229.075 139.234 229.212 139.133L229.274 139.097H229.337L230.846 139.01C230.896 138.996 230.932 138.996 230.982 138.996C231.695 138.996 232.317 139.32 232.853 139.708C233.59 140.256 233.789 141.13 233.976 141.878C234.065 142.227 234.152 142.562 234.277 142.864L234.289 142.914V142.95L234.476 169.104L234.476 169.104Z" fill="#E22526"/>
<path d="M290.388 153.47C285.114 154.343 280.331 157.089 276.918 161.203C273.6 165.193 271.83 170.22 271.83 175.371C271.83 175.857 271.841 176.343 271.88 176.831C271.88 182.268 273.363 187.594 276.519 191.997C277.904 193.94 279.439 195.738 281.397 197.084C284.153 198.992 287.409 200.103 290.774 200.103H290.95C295.825 200.053 300.167 197.397 303.434 193.817C305.666 191.385 307.227 188.417 308.011 185.174L308.436 183.74C308.497 183.516 308.547 183.265 308.547 183.041C308.547 182.717 308.447 182.48 308.224 182.33C308.083 182.249 307.924 182.206 307.762 182.206C307.277 182.206 306.839 182.592 306.839 183.103V183.167L306.814 183.215L306.154 184.513C305.417 185.985 304.445 187.345 303.236 188.442C300.801 190.673 297.623 191.796 294.393 191.796C293.767 191.796 293.145 191.759 292.508 191.672C288.892 191.184 285.848 189.065 283.528 186.37C280.511 182.841 279.951 178.14 279.951 173.701V172.913C279.998 169.172 280.224 165.131 282.556 161.914C284.103 159.781 285.999 157.573 288.766 156.974C289.565 156.801 290.414 156.687 291.262 156.687C292.684 156.687 294.105 157.025 295.252 158.035C296.088 158.77 296.663 159.781 297.048 160.778C297.236 161.264 297.272 161.763 297.311 162.224C297.347 162.724 297.386 163.174 297.559 163.584C298.495 165.754 300.477 167.639 302.649 167.639C303.272 167.639 303.934 167.476 304.593 167.114C306.078 166.29 306.863 164.632 307.064 162.911C307.089 162.735 307.089 162.574 307.089 162.4C307.089 160.13 305.255 158.409 303.521 156.801C303.409 156.701 303.309 156.6 303.208 156.514C300.703 154.182 297.436 152.945 294.105 152.945C292.857 152.948 291.615 153.121 290.413 153.459L290.388 153.47V153.47Z" fill="#E22526"/>
<path d="M314.626 155.278L308.977 157.649C308.401 157.884 307.94 158.146 307.94 158.546C307.94 158.571 307.952 158.621 307.952 158.658C308.027 159.057 308.376 159.319 308.751 159.319C308.901 159.319 309.038 159.283 309.175 159.207L309.239 159.171H309.312L311.157 159.244C312.132 159.294 313.017 159.743 313.701 160.405C314.625 161.291 315.011 162.511 315.025 163.722L315.061 193.855C315.061 194.852 314.251 195.539 313.629 196.011C313.003 196.474 312.269 196.698 311.532 196.785L309.351 197.072C308.664 197.159 308.103 197.385 308.103 197.831V197.921C308.164 198.357 308.527 198.644 308.926 198.644C309.001 198.644 309.1 198.63 309.189 198.605L309.225 198.594H309.262L329.654 198.63C329.791 198.63 329.928 198.619 330.065 198.594C330.465 198.493 330.765 198.256 330.802 197.871V197.796C330.802 197.309 330.378 196.91 329.917 196.91C329.817 196.91 329.705 196.935 329.593 196.985L329.529 197.011L329.467 196.996L327.236 196.734C326.287 196.623 325.477 196.173 324.804 195.564C323.944 194.791 323.293 193.704 323.293 192.507L323.181 164.334C323.17 163.46 323.729 162.787 324.192 162.201C324.254 162.114 324.329 162.025 324.391 161.938C324.902 161.277 325.513 160.629 326.287 160.168C326.337 160.142 326.387 160.104 326.437 160.081C326.898 159.805 327.459 159.47 328.107 159.47H328.233C328.755 159.506 329.168 159.793 329.529 160.042C329.705 160.154 329.866 160.268 330.028 160.355C330.515 160.603 330.964 160.941 331.388 161.265C332.237 161.902 332.997 162.475 333.969 162.5H334.108C335.792 162.5 337.375 161.676 338.246 160.218C338.671 159.519 338.858 158.796 338.858 158.085C338.858 156.152 337.487 154.256 335.666 153.234C334.904 152.796 334.094 152.634 333.246 152.634C332.073 152.634 330.864 152.958 329.729 153.346C328.395 153.795 327.298 154.667 326.175 155.552C326.063 155.627 325.951 155.714 325.851 155.803C324.932 156.526 324.065 157.314 323.257 158.16L322.844 158.585L322.833 157.984L322.782 154.555C322.771 153.957 322.495 153.371 321.984 153.059C321.811 152.947 321.598 152.896 321.372 152.896C321.185 152.896 320.998 152.922 320.8 152.946C320.649 152.972 320.487 152.983 320.325 152.997L314.626 155.278ZM369.14 177.121L369.115 163.714C369.115 161.444 368.593 159.186 367.281 157.34C365.636 155.033 363.042 153.749 360.26 153.163C358.351 152.779 356.409 152.582 354.461 152.576C352.579 152.576 350.806 152.774 349.446 153.213C345.743 154.411 342.001 156.142 340.379 159.722C340.367 159.76 340.354 159.811 340.331 159.847C339.806 160.995 339.306 162.129 339.306 163.29C339.306 163.564 339.332 163.826 339.381 164.088C339.843 166.183 341.166 168.154 343.31 168.154H343.448C345.531 168.079 346.74 166.133 347.228 164.125C347.265 163.938 347.29 163.751 347.29 163.55C347.29 163.215 347.239 162.866 347.178 162.491C347.114 162.129 347.052 161.729 347.052 161.332C347.052 161.193 347.052 161.07 347.078 160.933C347.178 160.071 347.29 159.124 347.739 158.275C348.898 156.043 351.417 155.209 353.749 155.145C353.838 155.145 353.925 155.134 354.012 155.134C356.07 155.134 358.152 155.893 359.548 157.502C360.621 158.75 361.271 160.333 361.271 161.98V162.017L361.232 169.925L345.693 176.099C343.436 176.996 341.314 178.218 339.781 180.064C337.885 182.359 336.788 185.216 336.788 188.095C336.788 189.555 337.075 191.016 337.673 192.423C339.357 196.352 343.037 198.996 347.301 199.371C347.639 199.407 347.975 199.421 348.312 199.421C352.328 199.421 356.083 197.338 358.214 193.858C359.238 192.211 359.749 190.279 359.937 188.321C359.998 187.559 360.074 186.811 360.074 186.062C360.074 184.842 359.886 183.633 359.214 182.496C358.527 181.337 357.117 180.19 355.821 180.19C355.26 180.19 354.71 180.402 354.224 180.938C353.749 181.46 353.537 182.097 353.537 182.745C353.537 183.457 353.788 184.18 354.224 184.792C354.436 185.09 354.785 185.241 355.198 185.428C355.583 185.59 356.044 185.789 356.357 186.188C356.918 186.925 357.192 187.822 357.192 188.707C357.192 188.771 357.181 188.832 357.181 188.894C357.131 190.066 356.519 191.088 355.784 191.887C354.687 193.099 353.163 193.658 351.618 193.658C351.132 193.658 350.644 193.596 350.158 193.484C347.888 192.973 346.43 191.077 345.581 189.094C345.157 188.12 344.97 187.087 344.97 186.062C344.97 184.629 345.344 183.183 345.981 181.86C346.952 179.877 348.611 178.294 350.658 177.383L350.683 177.369L361.347 173.717L361.458 192.948C361.47 194.88 361.732 196.827 363.078 198.186C364.301 199.407 366.06 199.857 367.842 199.857C369.925 199.857 371.921 198.921 373.332 197.327L375.537 194.844C375.627 194.744 375.713 194.657 375.8 194.557C376.236 194.107 376.624 193.672 376.624 193.272C376.624 193.135 376.574 192.973 376.411 192.798C376.304 192.679 376.173 192.585 376.027 192.52C375.881 192.456 375.723 192.423 375.563 192.424C375.177 192.424 374.789 192.624 374.566 192.973L374.515 193.035L374.454 193.06L372.321 194.009C372.101 194.106 371.863 194.157 371.622 194.157C371.072 194.157 370.55 193.909 370.137 193.61C369.503 193.135 369.389 192.387 369.277 191.775C369.227 191.527 369.191 191.29 369.129 191.064L369.115 191.027V191.002L369.14 177.121L369.14 177.121ZM381.681 174.739L381.631 193.747C381.62 194.456 381.619 195.344 381.081 196.003C380.652 196.531 380.046 196.886 379.375 197.003L378.09 197.201C377.403 197.313 376.917 197.438 376.917 197.888C376.917 198.349 377.267 198.673 377.677 198.673C377.766 198.673 377.864 198.661 377.965 198.622L378.001 198.597H378.051L393.892 198.698C394.029 198.698 394.177 198.673 394.328 198.636C394.764 198.522 395.077 198.248 395.077 197.849L395.062 197.812C395.051 197.338 394.641 196.978 394.177 196.978C394.105 196.978 394.029 196.989 393.954 197.014L393.892 197.025L393.817 197.014L392.446 196.64C391.683 196.423 391.003 195.979 390.499 195.366C389.95 194.744 389.514 193.945 389.514 193.049L389.378 160.204C389.378 160.079 389.378 159.956 389.364 159.818C389.353 159.668 389.339 159.517 389.339 159.355C389.339 159.006 389.403 158.621 389.688 158.283C390.051 157.884 390.562 157.674 391.11 157.674L403.547 157.697C404.108 157.697 404.644 157.973 404.993 158.409C405.286 158.767 405.444 159.216 405.44 159.679C405.44 159.855 405.417 160.042 405.367 160.218L405.393 188.815C405.393 191.61 405.627 194.489 407.4 196.622C409.095 198.655 411.541 199.979 414.208 200.015H414.309C416.866 200.015 419.159 198.656 421.12 196.935C421.979 196.173 422.714 195.276 423.376 194.291L424.154 193.142C424.392 192.793 424.615 192.38 424.615 192.045C424.615 191.869 424.553 191.707 424.341 191.584C424.216 191.511 424.075 191.472 423.931 191.47C423.632 191.47 423.344 191.645 423.207 191.933L423.182 191.983L423.144 192.019L422.146 192.88C422.135 192.893 422.11 192.905 422.096 192.918C421.711 193.254 421.298 193.617 420.812 193.854C420.147 194.177 419.417 194.344 418.678 194.34C418.106 194.34 417.531 194.239 416.994 194.077C415.735 193.689 414.677 192.843 413.965 191.757C413.23 190.66 412.979 189.35 412.979 188.054L412.904 159.915C412.904 159.753 412.879 159.592 412.842 159.393C412.817 159.192 412.781 158.98 412.781 158.757C412.781 158.457 412.856 158.134 413.129 157.857C413.465 157.522 413.928 157.372 414.389 157.372L420.226 157.346C421.2 157.346 422.06 156.637 422.06 155.676C422.06 154.752 421.286 154.018 420.387 154.018C420.312 154.018 420.239 154.029 420.164 154.043H420.139L414.962 154.054H414.688C414.328 154.054 413.904 154.043 413.541 153.78C413.066 153.457 412.756 152.92 412.756 152.345C412.756 152.272 412.767 152.209 412.767 152.147L412.717 143.217C412.717 142.555 412.569 141.957 412.069 141.807C411.982 141.795 411.921 141.781 411.871 141.781C411.533 141.781 411.36 142.105 411.122 142.681C411.022 142.904 410.921 143.142 410.799 143.329C410.461 143.814 410.299 144.39 410.123 144.987C410 145.436 409.863 145.923 409.637 146.359C408.802 148.006 407.754 149.578 406.345 150.798C404.836 152.108 403.014 152.931 401.17 153.481C399.71 153.917 398.202 154.155 396.68 154.155H396.516L391.416 154.104C390.867 154.093 390.219 154.043 389.758 153.568C389.417 153.217 389.225 152.748 389.221 152.259C389.221 152.172 389.233 152.096 389.247 152.01L389.258 143.217C389.258 142.094 389.571 141.008 390.118 140.022C390.78 138.852 391.69 137.679 393.1 137.205C393.5 137.061 393.922 136.989 394.346 136.992C395.594 136.992 396.792 137.542 397.851 138.104C398.875 138.651 399.673 139.5 400.433 140.299C400.819 140.709 401.081 141.195 401.332 141.645C401.681 142.268 401.992 142.831 402.516 143.203C403.477 143.864 404.625 144.314 405.722 144.314C406.496 144.314 407.255 144.09 407.917 143.566C408.838 142.842 409.187 141.82 409.187 140.698C409.187 139.788 408.953 138.827 408.59 137.967C408.004 136.518 406.618 135.633 405.259 134.773C405.225 134.746 405.187 134.726 405.147 134.711C403.128 133.427 400.757 132.94 398.375 132.94C397.577 132.94 396.792 132.988 396.007 133.089C392.078 133.563 388.473 135.446 385.904 138.439C384.207 140.422 383.21 142.854 382.512 145.35C382.174 146.57 382.112 147.83 382.062 149.114C382.012 150.15 381.975 151.211 381.763 152.247C381.737 152.382 381.724 152.52 381.725 152.658C381.7 152.957 381.688 153.356 381.426 153.655C381.276 153.828 381.09 153.967 380.881 154.062C380.672 154.157 380.446 154.206 380.216 154.205C380.105 154.205 379.993 154.191 379.879 154.179L376.561 154.241C375.676 154.266 374.928 154.939 374.916 155.802V155.825C374.916 156.735 375.615 157.447 376.511 157.447H379.518C380.016 157.447 380.691 157.458 381.163 157.908C381.688 158.407 381.674 159.156 381.674 159.667V159.703L381.688 174.745L381.681 174.739Z" fill="#E22526"/>
</svg>
