<svg width="480" height="320" viewBox="0 0 480 320" fill="none" xmlns="http://www.w3.org/2000/svg">
<path fill-rule="evenodd" clip-rule="evenodd" d="M140.493 266.666H339.507V53.333H140.493V266.666Z" fill="#274D91"/>
<path fill-rule="evenodd" clip-rule="evenodd" d="M153.789 66.1475H159.514V77.1305H165.238C165.99 77.1287 166.735 77.2756 167.431 77.5627C168.126 77.8498 168.758 78.2715 169.29 78.8035C169.822 79.3356 170.243 79.9675 170.53 80.6629C170.817 81.3584 170.964 82.1037 170.962 82.8561V115.652C170.964 116.404 170.817 117.149 170.53 117.844C170.243 118.54 169.821 119.171 169.289 119.703C168.757 120.235 168.125 120.656 167.43 120.943C166.735 121.23 165.99 121.377 165.238 121.375H153.789V66.1475ZM159.514 115.652H165.238V82.8561H159.514V115.652ZM176.686 85.2527C176.686 80.5342 180.552 76.6683 185.27 76.6683C189.988 76.6683 193.857 80.5342 193.857 85.2527V102.116H182.409V115.653H188.132V109.928H193.857V113.253C193.857 117.971 189.988 121.839 185.27 121.839C180.552 121.839 176.686 117.971 176.686 113.253V85.2527ZM182.409 96.3911H188.132V82.8561H182.409V96.3911ZM199.579 82.8561C199.577 82.1037 199.724 81.3584 200.011 80.6629C200.298 79.9675 200.72 79.3356 201.252 78.8035C201.784 78.2715 202.415 77.8498 203.111 77.5627C203.806 77.2756 204.551 77.1287 205.304 77.1305H211.026V82.8561H205.304V121.375H199.579V82.8561ZM216.596 126.945H226.806V121.375H221.082C220.33 121.377 219.585 121.23 218.89 120.943C218.194 120.656 217.563 120.235 217.031 119.703C216.499 119.171 216.077 118.539 215.79 117.844C215.503 117.149 215.356 116.404 215.358 115.652V85.2537C215.358 80.5342 219.225 76.6673 223.944 76.6673C228.661 76.6673 232.53 80.5342 232.53 85.2537V126.945C232.532 127.697 232.385 128.442 232.098 129.137C231.811 129.832 231.389 130.464 230.857 130.996C230.325 131.528 229.694 131.949 228.998 132.236C228.303 132.523 227.558 132.67 226.806 132.668H216.596V126.945ZM221.082 115.652H226.806V82.8561H221.082V115.652ZM238.253 85.2527C238.253 80.5342 242.121 76.6683 246.839 76.6683C251.557 76.6683 255.424 80.5342 255.424 85.2527V102.116H243.978V115.653H249.7V109.928H255.424V113.253C255.424 117.971 251.557 121.839 246.839 121.839C242.121 121.839 238.253 117.971 238.253 113.253V85.2527ZM243.978 96.3911H249.7V82.8561H243.978V96.3911ZM261.147 77.1305H272.596C273.348 77.1288 274.093 77.2758 274.788 77.563C275.483 77.8502 276.115 78.2719 276.647 78.8039C277.179 79.336 277.6 79.9679 277.887 80.6632C278.174 81.3586 278.32 82.1038 278.318 82.8561V121.375H272.596V82.8561H266.871V121.375H261.147V77.1305ZM170.962 183.315H159.513C158.761 183.316 158.016 183.169 157.321 182.882C156.625 182.595 155.994 182.174 155.462 181.642C154.93 181.11 154.509 180.478 154.222 179.783C153.935 179.088 153.788 178.343 153.789 177.591V156.476C153.788 155.723 153.934 154.978 154.221 154.283C154.508 153.587 154.93 152.956 155.462 152.424C155.994 151.892 156.626 151.47 157.321 151.183C158.016 150.896 158.762 150.749 159.514 150.751H165.238V144.795H155.027V139.071H165.238C165.99 139.069 166.735 139.215 167.43 139.502C168.126 139.789 168.757 140.211 169.289 140.743C169.821 141.275 170.243 141.906 170.53 142.602C170.817 143.297 170.964 144.042 170.962 144.794V183.315ZM159.513 177.591H165.238V156.476H159.514V177.591M182.409 133.812H176.685V128.088H182.409V133.812ZM182.409 183.78C180.909 183.707 179.484 183.104 178.386 182.078C177.304 181.072 176.685 179.602 176.685 178.055V139.072H182.409V183.78ZM188.132 144.795C188.13 144.043 188.277 143.298 188.564 142.603C188.851 141.907 189.273 141.276 189.805 140.744C190.337 140.212 190.968 139.79 191.664 139.503C192.359 139.216 193.104 139.07 193.857 139.072H199.579V144.795H193.857V183.315H188.132V144.795ZM165.238 206.951H159.514V245.934C158.014 245.863 156.588 245.261 155.492 244.235C154.409 243.228 153.789 241.759 153.789 240.212V190.244H159.514V201.227H165.238V206.951ZM168.099 206.951C168.098 206.199 168.245 205.454 168.532 204.759C168.819 204.064 169.24 203.432 169.772 202.9C170.304 202.369 170.936 201.947 171.631 201.66C172.326 201.373 173.071 201.226 173.823 201.228H179.547V206.951H173.823V245.471H168.099V206.951ZM201.049 245.471H189.602C188.85 245.473 188.105 245.326 187.41 245.039C186.715 244.752 186.083 244.33 185.552 243.798C185.02 243.266 184.598 242.635 184.311 241.94C184.024 241.245 183.877 240.5 183.879 239.748V218.632C183.877 217.88 184.024 217.135 184.311 216.44C184.598 215.744 185.019 215.113 185.551 214.581C186.083 214.049 186.714 213.627 187.41 213.34C188.105 213.053 188.85 212.906 189.602 212.908H195.326V206.951H185.117V201.228H195.326C196.078 201.226 196.823 201.373 197.518 201.66C198.213 201.947 198.845 202.369 199.377 202.9C199.909 203.432 200.33 204.064 200.617 204.759C200.904 205.454 201.051 206.199 201.049 206.951V245.471ZM189.602 239.748H195.326V218.632H189.602V239.748ZM206.773 201.228H218.22C218.972 201.226 219.717 201.373 220.413 201.66C221.108 201.947 221.74 202.369 222.271 202.9C222.803 203.432 223.225 204.064 223.512 204.759C223.799 205.454 223.946 206.199 223.945 206.951V245.471H218.22V206.951H212.497V245.471H206.773V201.228ZM240.419 206.951H234.696V220.488H240.419C241.172 220.486 241.917 220.633 242.612 220.92C243.307 221.206 243.939 221.628 244.471 222.16C245.003 222.691 245.425 223.323 245.712 224.018C245.999 224.713 246.146 225.458 246.144 226.211V237.35C246.144 242.068 242.274 245.934 237.558 245.934C232.838 245.934 228.971 242.068 228.971 237.35V234.024H234.696V239.748H240.419V226.211H234.696C233.944 226.212 233.199 226.066 232.503 225.779C231.808 225.492 231.177 225.07 230.645 224.539C230.113 224.007 229.691 223.375 229.404 222.68C229.117 221.985 228.97 221.24 228.971 220.488V209.35C228.971 204.632 232.838 200.764 237.558 200.764C242.274 200.764 246.144 204.632 246.144 209.35V212.676H240.418V206.951M251.17 201.228H262.619C263.371 201.227 264.115 201.373 264.811 201.66C265.506 201.947 266.137 202.369 266.669 202.901C267.201 203.432 267.622 204.064 267.909 204.759C268.196 205.454 268.343 206.199 268.341 206.951V239.748C268.343 240.5 268.196 241.245 267.909 241.94C267.622 242.635 267.201 243.267 266.669 243.798C266.137 244.33 265.506 244.752 264.811 245.039C264.116 245.326 263.371 245.473 262.619 245.471H256.894V256.299H251.17V201.228ZM256.894 239.748H262.619V206.95H256.894V239.747M274.066 209.35C274.066 204.632 277.933 200.764 282.65 200.764C287.37 200.764 291.237 204.632 291.237 209.35V237.35C291.237 242.068 287.37 245.934 282.651 245.934C277.932 245.934 274.066 242.068 274.066 237.35V209.35ZM279.789 239.748H285.514V206.95H279.789V239.747M296.96 206.951C296.959 206.199 297.106 205.454 297.393 204.759C297.68 204.064 298.101 203.432 298.633 202.9C299.165 202.369 299.797 201.947 300.492 201.66C301.187 201.373 301.932 201.226 302.684 201.228H308.408V206.951H302.684V245.471H296.96V206.951ZM324.187 206.951H318.463V245.934C316.963 245.863 315.538 245.261 314.441 244.235C313.357 243.228 312.74 241.759 312.74 240.212V190.244H318.463V201.227H324.187V206.951Z" fill="white"/>
</svg>
