<svg width="480" height="320" viewBox="0 0 480 320" fill="none" xmlns="http://www.w3.org/2000/svg">
<path fill-rule="evenodd" clip-rule="evenodd" d="M56.4182 234.149V209.37H70.9929V211.367H58.6223V221.599H69.1438V223.56H58.6229V234.149H56.4182ZM92.6477 234.149H79.14V209.37H81.3435V232.152H92.6482L92.6477 234.149ZM100.262 234.149V209.37H102.466V234.149H100.262ZM122.414 223.596V221.635H129.133V233.614C128.445 233.757 127.237 233.941 125.507 234.167C123.777 234.393 122.343 234.505 121.206 234.505C117.651 234.505 115.187 233.46 113.812 231.368C112.437 229.276 111.75 226.103 111.75 221.849C111.75 219.733 111.893 217.927 112.177 216.43C112.461 214.932 112.959 213.601 113.669 212.437C115.02 210.155 117.521 209.014 121.17 209.014C123.398 209.014 125.661 209.24 127.959 209.691L129.133 209.941L129.026 211.831C126.064 211.284 123.505 211.011 121.348 211.011C118.481 211.011 116.543 211.872 115.536 213.595C114.529 215.319 114.025 218.058 114.025 221.813C114.025 225.569 114.529 228.29 115.536 229.978C116.543 231.665 118.469 232.509 121.313 232.509C122.995 232.509 124.879 232.319 126.964 231.938V223.596H122.414ZM154.307 234.149V222.704H140.905V234.149H138.701V209.37H140.905V220.744H154.307V209.37H156.475V234.149H154.307ZM164.124 211.367V209.37H181.898V211.367H174.149V234.149H171.945V211.367L164.124 211.367ZM209.976 224.351V234.01H207.797V209.51H216.76C219.314 209.51 221.219 210.092 222.472 211.254C223.725 212.418 224.353 214.257 224.353 216.772C224.353 220.697 222.783 223.082 219.642 223.928L224.669 234.011H222.243L217.428 224.352L209.976 224.351ZM222.103 216.806C222.103 214.973 221.669 213.622 220.802 212.753C219.935 211.883 218.588 211.448 216.76 211.448H209.977V222.412H216.76C220.322 222.412 222.103 220.544 222.103 216.806H222.103ZM233.427 234.01V209.51H248.085V211.484H235.607V220.579H245.976V222.518H235.607V232.072H248.085V234.011L233.427 234.01ZM271.114 233.622C268.701 234.116 266.639 234.363 264.928 234.363C263.217 234.363 261.841 234.181 260.798 233.816C259.755 233.452 258.905 232.941 258.25 232.283C257.594 231.625 257.078 230.767 256.703 229.709C256 227.783 255.648 225.162 255.648 221.848C255.648 216.536 256.492 213.023 258.179 211.307C259.562 209.874 261.671 209.157 264.506 209.157C266.451 209.157 268.653 209.404 271.114 209.897L271.008 211.8C268.571 211.354 266.615 211.131 265.139 211.131C263.662 211.131 262.52 211.289 261.712 211.606C260.903 211.924 260.247 212.347 259.743 212.876C259.24 213.405 258.859 214.139 258.601 215.079C258.133 216.677 257.898 218.675 257.898 221.072C257.898 223.469 257.98 225.261 258.145 226.448C258.308 227.635 258.625 228.71 259.093 229.674C259.562 230.637 260.253 231.331 261.167 231.754C262.081 232.177 263.346 232.389 264.963 232.389C266.58 232.389 268.595 232.165 271.008 231.719L271.114 233.622ZM295.093 234.01V222.694H281.842V234.01H279.662V209.51H281.841V220.755H295.092V209.51H297.236V234.011L295.093 234.01ZM305.222 234.01L312.252 209.509H317.349L324.343 234.01H322.199L320.231 227.241H309.335L307.401 234.01H305.222ZM313.833 211.413L309.862 225.303H319.704L315.732 211.413L313.833 211.413ZM334.473 224.351V234.01H332.294V209.51H341.257C343.811 209.51 345.715 210.092 346.968 211.254C348.222 212.418 348.849 214.257 348.849 216.772C348.849 220.697 347.279 223.082 344.139 223.928L349.165 234.011H346.74L341.924 224.352L334.473 224.351ZM346.6 216.806C346.6 214.973 346.166 213.622 345.299 212.753C344.432 211.883 343.084 211.448 341.256 211.448H334.473V222.412H341.256C344.818 222.412 346.599 220.544 346.599 216.806H346.6ZM367.52 223.575V221.637H374.163V233.481C373.483 233.622 372.288 233.805 370.578 234.028C368.867 234.251 367.449 234.363 366.324 234.363C362.81 234.363 360.373 233.329 359.014 231.261C357.655 229.193 356.975 226.054 356.975 221.848C356.975 219.756 357.115 217.97 357.397 216.489C357.678 215.009 358.17 213.692 358.873 212.541C360.209 210.285 362.681 209.156 366.289 209.156C368.492 209.156 370.73 209.38 373.003 209.826L374.163 210.073L374.058 211.942C371.128 211.401 368.598 211.131 366.465 211.131C363.63 211.131 361.714 211.983 360.719 213.687C359.723 215.391 359.224 218.099 359.224 221.813C359.224 225.526 359.723 228.217 360.719 229.886C361.714 231.554 363.618 232.389 366.43 232.389C368.094 232.389 369.956 232.2 372.019 231.824V223.575H367.52ZM383.625 234.011V209.509H398.282V211.483H385.804V220.579H396.173V222.518H385.804V232.071H398.282V234.01L383.625 234.011ZM415.934 234.011H407.041V209.509H415.934C421.721 209.509 424.615 213.481 424.615 221.425C424.615 229.815 421.721 234.011 415.934 234.011ZM422.366 221.425C422.366 214.797 420.221 211.483 415.934 211.483H409.219V232.071H415.934C420.221 232.071 422.366 228.522 422.366 221.425Z" fill="#777777"/>
<path fill-rule="evenodd" clip-rule="evenodd" d="M173.432 85.4941H345.193L332.702 113.722H314.303L301.45 187.456H258.393L271.104 114.256L271.271 113.648H211.874L210.146 122.937H258.619L253.878 150.172L205.345 150.012L203.76 159.229L252.156 159.303L247.267 187.456H155.677L173.432 85.4941ZM307.4 187.457L352.572 85.4941H413.309L423.627 187.457H380.495L379.017 173.055H346.999L340.734 187.457H307.4ZM373.158 113.722L376.81 150.013H357.244L373.158 113.722ZM55.3845 187.458L73.2642 85.4941H140.002C156.928 85.4941 165.039 97.2404 162.226 109.452C159.413 121.663 150.98 125.447 145.037 128.992C150.745 131.878 160.159 142.452 156.927 158.932C152.879 179.582 136.402 187.457 117.46 187.457L55.3845 187.458Z" fill="#555555"/>
<path d="M112.774 128.941H132.617C132.941 128.941 133.259 129.033 133.533 129.205C133.807 129.378 134.028 129.625 134.168 129.917C134.308 130.209 134.363 130.535 134.326 130.857C134.289 131.179 134.162 131.484 133.96 131.737L93.888 181.753C93.6383 182.065 93.2878 182.28 92.8966 182.362C92.5055 182.444 92.0981 182.387 91.7444 182.201C91.3908 182.015 91.1129 181.711 90.9585 181.343C90.8041 180.974 90.7829 180.563 90.8984 180.181L102.735 140.929H82.9439C82.6188 140.929 82.3003 140.836 82.0254 140.663C81.7505 140.489 81.5305 140.241 81.3908 139.948C81.2511 139.654 81.1974 139.327 81.2361 139.004C81.2747 138.681 81.404 138.376 81.6091 138.124L121.149 89.4891C121.4 89.1803 121.751 88.9682 122.141 88.8889C122.531 88.8097 122.937 88.8682 123.289 89.0545C123.64 89.2407 123.917 89.5433 124.07 89.9105C124.224 90.2777 124.246 90.6868 124.131 91.0682L112.774 128.941Z" fill="#7FECDA"/>
</svg>
