<svg width="480" height="320" viewBox="0 0 480 320" fill="none" xmlns="http://www.w3.org/2000/svg">
<path d="M394.041 188.159L393.504 188.273L392.966 188.435L392.442 188.643L391.951 188.865L391.46 189.147L391.003 189.446L390.559 189.776L390.163 190.152L389.78 190.542L389.447 190.962L389.161 191.413L388.919 191.88L388.724 192.374L388.59 192.871L388.503 193.395L388.496 193.936L388.55 194.491L388.664 195.046L388.855 195.63L388.983 195.919L389.124 196.198L389.282 196.474L389.457 196.75L389.642 197.008L389.834 197.254L390.035 197.499L390.254 197.741L390.459 197.986L390.677 198.232L390.896 198.46L391.114 198.702L391.332 198.931L391.554 199.176L391.773 199.422L391.974 199.663L392.166 199.926L392.351 200.184L392.542 200.443L392.7 200.722L392.889 201.105L393.03 201.488L393.114 201.872L393.164 202.241L393.168 202.614L393.127 202.967L393.053 203.307L392.936 203.649L392.784 203.976L392.603 204.271L392.391 204.55L392.132 204.816L391.874 205.051L391.568 205.27L391.245 205.461L390.906 205.619L390.539 205.747L390.17 205.844L389.77 205.895L389.366 205.932L388.966 205.905L388.58 205.864L388.224 205.774L387.867 205.669L387.541 205.535L387.232 205.37L386.936 205.206L386.641 205.024L386.375 204.826L386.11 204.628L385.861 204.429L385.612 204.231L385.377 204.036L385.162 203.851L384.927 203.686L384.725 203.535L384.507 203.414L384.305 203.307L384.103 203.233L383.901 203.189L383.485 203.209L383.165 203.414L382.95 203.727L382.786 204.036L382.668 204.332L382.594 204.607L382.564 204.873L382.567 205.135L382.618 205.38L382.698 205.626L382.809 205.854L382.95 206.069L383.122 206.268L383.31 206.466L383.528 206.664L383.76 206.846L384.012 207.014L384.275 207.182L384.557 207.333L384.836 207.481L385.128 207.632L385.424 207.77L385.874 207.965L386.338 208.126L386.802 208.278L387.269 208.409L387.75 208.526L388.21 208.614L388.691 208.684L389.171 208.728L389.632 208.734L390.112 208.731L390.573 208.694L391.05 208.627L391.514 208.543L391.961 208.412L392.421 208.271L392.865 208.096L393.295 207.874L393.725 207.635L394.139 207.37L394.549 207.054L394.979 206.681L395.359 206.288L395.708 205.885L395.997 205.448L396.253 205.014L396.478 204.564L396.643 204.096L396.777 203.633L396.865 203.155L396.918 202.675L396.928 202.181L396.891 201.704L396.824 201.209L396.71 200.732L396.565 200.242L396.374 199.764L396.152 199.29L395.886 198.83L395.587 198.37L395.241 197.926L395.07 197.744L394.898 197.546L394.71 197.348L394.522 197.15L394.317 196.951L394.115 196.736L393.914 196.524L393.725 196.309L393.52 196.081L393.332 195.869L393.161 195.637L392.989 195.395L392.848 195.163L392.704 194.918L392.593 194.659L392.499 194.41L392.431 194.135L392.384 193.873L392.364 193.597L392.374 193.318L392.421 193.056L392.495 192.807L392.6 192.558L392.721 192.343L392.872 192.138L393.023 191.954L393.208 191.782L393.406 191.638L393.618 191.496L393.85 191.372L394.078 191.275L394.327 191.194L394.572 191.13L394.835 191.08L395.08 191.049L395.342 191.029L395.604 191.043L395.853 191.07L396.098 191.113L396.347 191.17L396.75 191.322L397.123 191.517L397.496 191.759L397.839 192.017L398.165 192.306L398.495 192.579L398.82 192.868L398.962 192.992L399.116 193.066L399.257 193.126L399.412 193.17L399.55 193.184H399.704L399.842 193.15L399.98 193.103L400.118 193.053L400.242 192.975L400.363 192.881L400.488 192.77L400.592 192.663L400.699 192.538L400.79 192.414L400.881 192.273L400.955 192.118L401.032 191.977L401.136 191.621L401.13 191.281L401.066 190.945L400.908 190.636L400.686 190.33L400.407 190.041L400.064 189.769L399.674 189.527L399.254 189.285L398.82 189.073L398.357 188.862L397.876 188.7L397.379 188.536L396.898 188.401L396.434 188.283L396.001 188.196L395.584 188.126L395.198 188.085L394.858 188.072L394.579 188.092L394.041 188.159ZM371.725 198.124L372.058 197.519L372.434 196.884L372.858 196.259L373.315 195.637L373.832 195.029L374.367 194.451L374.945 193.876L375.556 193.342L376.198 192.854L376.854 192.401L377.529 191.99L378.235 191.641L378.941 191.342L379.647 191.13L380.373 190.969L381.095 190.898L381.821 190.922L382.547 191.036L383.26 191.228L383.633 191.375L383.942 191.557L384.224 191.738L384.456 191.937L384.675 192.152L384.863 192.364L385.034 192.592L385.222 192.838L385.411 193.083L385.602 193.342L385.817 193.587L386.069 193.846L386.335 194.074L386.597 194.118L386.997 194.004L387.242 193.879L387.471 193.661L387.683 193.365L387.881 193.053L388.032 192.727L388.133 192.4L388.193 192.138L388.19 191.923L388.156 191.691L388.093 191.476L387.998 191.278L387.888 191.063L387.76 190.865L387.605 190.663L387.434 190.481L387.246 190.297L387.057 190.132L386.839 189.964L386.637 189.796L386.419 189.645L386.187 189.51L385.968 189.372L385.75 189.238L385.531 189.13L385.33 189.026L385.145 188.935L384.957 188.845L384.043 188.502L383.115 188.267L382.174 188.122L381.23 188.072L380.275 188.132L379.321 188.267L378.379 188.478L377.459 188.767L376.538 189.134L375.647 189.561L374.773 190.048L373.933 190.586L373.137 191.181L372.374 191.822L371.654 192.495L370.986 193.214L370.36 193.96L369.803 194.723L369.302 195.516L368.878 196.323L368.623 196.867L368.398 197.425L368.176 198L367.981 198.605L367.803 199.206L367.655 199.828L367.541 200.447L367.457 201.065L367.403 201.68L367.393 202.298L367.433 202.917L367.5 203.518L367.631 204.117L367.793 204.685L368.031 205.239L368.317 205.774L368.646 206.281L369.053 206.768L369.52 207.212L370.068 207.619L370.471 207.878L370.922 208.119L371.433 208.328L371.977 208.54L372.548 208.731L373.167 208.879L373.789 209.01L374.437 209.111L375.069 209.178L375.718 209.202L376.336 209.178L376.951 209.124L377.536 209.01L378.09 208.849L378.595 208.627L379.072 208.345L379.469 207.998L379.818 207.595L380.09 207.111L380.282 206.553L380.342 206.231L380.339 206.046L380.215 205.938L379.983 205.881L379.721 205.838L379.455 205.824L379.193 205.827L378.917 205.861L378.642 205.895L378.363 205.945L378.087 206.009L377.808 206.076L377.533 206.14L377.254 206.204L376.961 206.271L376.686 206.321L376.41 206.368L376.131 206.405L375.852 206.422L375.577 206.426L375.298 206.415L374.696 206.315L374.138 206.184L373.627 205.989L373.16 205.76L372.74 205.505L372.367 205.216L372.024 204.88L371.742 204.513L371.49 204.13L371.285 203.717L371.123 203.27L370.996 202.826L370.912 202.349L370.875 201.855L370.885 201.347L370.925 200.837L370.996 200.326L371.113 199.801L371.261 199.274L371.456 198.746L371.725 198.124ZM355.364 200.739L355.213 200.941L355.028 201.051L354.843 201.072L354.642 201.011L354.453 200.904L354.299 200.736L354.174 200.537L348.478 188.972L348.38 188.804L348.286 188.667L348.179 188.546L348.054 188.468L347.93 188.408L347.805 188.364L347.681 188.351H347.557L347.436 188.384L347.298 188.418L347.174 188.478L347.053 188.559L346.928 188.636L346.824 188.747L346.717 188.855L346.609 188.979L346.518 189.107L346.428 189.245L337.353 205.606L337.067 206.163L336.798 206.785L336.634 207.37L336.624 207.649L336.657 207.834L336.765 207.941L336.983 208.032L337.306 208.089L337.491 208.103L337.679 208.13L337.894 208.143L338.109 208.14L338.328 208.153L338.556 208.136L338.788 208.116L339.02 208.083L339.235 208.019L339.45 207.955L339.649 207.874L339.833 207.78L339.988 207.656L340.139 207.498L340.247 207.343L346.646 195.876L346.814 195.691L347.046 195.64L347.278 195.701L347.449 195.882L353.24 207.461L353.317 207.599L353.411 207.74L353.506 207.861L353.6 207.982L353.71 208.072L353.835 208.15L353.942 208.224L354.067 208.271L354.191 208.314L354.316 208.328H354.436L354.561 208.311L354.682 208.278L354.806 208.23L354.931 208.15L355.035 208.059L355.142 207.948L355.25 207.807L355.341 207.652L365.501 189.258L365.622 189.026L365.665 188.841L365.618 188.703L365.46 188.549L365.195 188.384L365.027 188.294L364.855 188.216L364.667 188.159L364.465 188.115L364.267 188.085L364.066 188.072L363.864 188.075L363.666 188.095L363.447 188.126L363.249 188.159L363.051 188.223L362.866 188.287L362.664 188.367L362.496 188.462L362.311 188.572L362.16 188.683L362.009 188.825L361.884 188.949L361.763 189.103L361.656 189.258L355.364 200.739ZM357.797 206.691L357.69 206.906L357.633 207.125L357.619 207.326L357.65 207.494L357.747 207.662L357.871 207.8L358.06 207.904L358.292 207.978L358.46 208.009L358.631 208.039L358.799 208.066L358.987 208.079L359.172 208.076L359.37 208.089L359.555 208.072L359.757 208.056L359.942 208.022L360.126 207.988L360.311 207.925L360.479 207.861L360.647 207.783L360.802 207.689L360.94 207.578L361.078 207.468L361.182 207.326L361.289 207.172L371.086 189.54L371.207 189.228L371.187 188.922L371.076 188.613L370.875 188.401L370.686 188.294L370.502 188.203L370.3 188.146L370.098 188.102L369.883 188.072L369.682 188.075L369.466 188.078L369.248 188.112L369.033 188.159L368.835 188.223L368.62 188.304L368.418 188.384L368.236 188.495L368.051 188.603L367.884 188.744L367.715 188.872L367.564 189.026L367.426 189.184L367.305 189.339L367.198 189.51L357.797 206.691ZM285.404 205.948L285.464 205.7L285.336 205.424L285.101 205.226L284.839 205.199L281.996 205.989L281.518 206.086L281.055 206.14L280.594 206.147L280.147 206.103L279.697 206.016L279.263 205.885L278.843 205.72L278.44 205.525L278.067 205.28L277.707 205.007L277.381 204.718L277.099 204.382L276.833 204.029L276.612 203.646L276.437 203.25L276.292 202.819L276.212 202.372L276.161 201.925L276.168 201.448L276.242 200.967L276.37 200.349L276.548 199.744L276.759 199.139L277.012 198.551L277.284 197.959L277.586 197.402L277.919 196.844L278.282 196.299L278.675 195.768L279.089 195.271L279.529 194.77L279.986 194.316L280.456 193.879L280.961 193.456L281.481 193.079L282.019 192.72L282.57 192.387L283.138 192.088L283.706 191.833L284.288 191.611L284.674 191.483L285.057 191.386L285.457 191.288L285.841 191.221L286.227 191.17L286.613 191.134L286.997 191.13L287.37 191.157L287.74 191.197L288.096 191.271L288.452 191.359L288.791 191.48L289.134 191.644L289.443 191.826L289.739 192.038L290.021 192.296L290.287 192.572L290.539 192.891L290.758 193.261L290.963 193.644L291.181 193.903L291.524 194.024L291.893 194.004L292.186 193.799L292.64 193.221L292.972 192.676L293.181 192.152L293.268 191.671L293.265 191.207L293.15 190.777L292.959 190.394L292.693 190.028L292.367 189.692L291.961 189.386L291.51 189.114L291.03 188.875L290.502 188.667L289.958 188.485L289.403 188.337L288.832 188.236L288.274 188.152L287.719 188.099L287.192 188.072L286.698 188.078L285.988 188.149L285.279 188.236L284.587 188.367L283.928 188.545L283.266 188.737L282.621 188.976L281.992 189.231L281.377 189.534L280.779 189.863L280.198 190.209L279.63 190.602L279.082 191.012L278.547 191.432L278.027 191.89L277.539 192.374L277.052 192.871L276.595 193.385L276.138 193.933L275.714 194.478L275.304 195.052L274.955 195.566L274.622 196.111L274.306 196.686L274.004 197.26L273.718 197.865L273.479 198.47L273.241 199.092L273.046 199.724L272.898 200.359L272.783 201.008L272.699 201.643L272.676 202.275L272.699 202.907L272.77 203.542L272.898 204.14L273.093 204.755L273.345 205.34L273.661 205.905L274.054 206.456L274.524 206.977L274.803 207.249L275.102 207.478L275.428 207.706L275.755 207.901L276.097 208.066L276.437 208.217L276.793 208.351L277.166 208.455L277.536 208.543L277.922 208.63L278.309 208.687L278.695 208.728L279.082 208.755L279.468 208.782L279.868 208.792L280.255 208.788L280.641 208.785L281.024 208.761L281.394 208.728L281.767 208.691L282.012 208.674L282.275 208.654L282.554 208.62L282.846 208.57L283.138 208.523L283.414 208.439L283.673 208.328L283.905 208.187L284.103 208.032L284.271 207.814L285.404 205.948ZM297.076 188.179L296.69 188.183L296.397 188.216L296.182 188.267L296.014 188.344L295.876 188.472L295.769 188.64L295.651 188.875L295.033 190.256L294.898 190.582L294.854 190.797L294.902 190.922L295.073 190.996L295.352 191.023L297.852 191.194L298.225 191.251L298.397 191.386L298.461 191.712L298.42 192.219L298.259 192.717L291.063 205.101L290.704 205.847L290.374 206.621L290.24 207.071L290.257 207.333L290.462 207.501L290.895 207.619L291.063 207.649L291.252 207.676L291.42 207.706L291.605 207.703L291.806 207.716L291.991 207.713L292.176 207.696L292.361 207.679L292.546 207.646L292.717 207.612L292.898 207.548L293.07 207.484L293.221 207.404L293.376 207.31L293.514 207.202L293.651 207.074L293.756 206.936L293.863 206.765L301.885 192.888L302.326 192.28L302.813 191.718L303.119 191.453L303.489 191.325L303.811 191.275L304.134 191.254L304.443 191.234L304.752 191.231L305.058 191.228L305.354 191.224L305.646 191.221L305.939 191.201L306.218 191.184L306.477 191.15L306.739 191.083L306.987 191.019L307.216 190.908L307.444 190.767L307.66 190.596L307.858 190.391L308.039 190.142L308.207 189.846L308.355 189.507L308.49 189.103L308.533 188.794L308.469 188.549L308.298 188.394L307.955 188.26L307.243 188.115L306.456 188.078L305.714 188.072L297.076 188.179ZM267.944 188.162L267.742 188.183L267.557 188.199L267.406 188.263L267.268 188.341L267.114 188.482L266.976 188.67L266.811 188.919L266.613 189.228L266.388 189.618L256.856 206.506L256.739 206.755L256.692 206.94L256.725 207.094L256.866 207.262L257.115 207.461L257.333 207.595L257.565 207.686L265.467 207.589L265.652 207.585L265.836 207.538L266.018 207.474L266.203 207.397L266.388 207.299L266.556 207.175L266.71 207.051L266.862 206.91L267.013 206.752L267.134 206.58L267.258 206.409L267.346 206.241L267.436 206.069L267.497 205.881L267.54 205.713L267.567 205.34L267.487 205.111L267.268 204.974L266.912 204.917L262.731 204.752L262.513 204.678L262.358 204.496L262.26 204.234L262.227 203.972L262.254 203.71L262.328 203.492L264.294 200.026L264.519 199.623L264.717 199.374L264.902 199.216L265.101 199.153L265.363 199.136L270.794 199.069L271.009 199.022L271.237 198.894L271.452 198.706L271.664 198.47L271.863 198.208L272.044 197.926L272.195 197.664L272.3 197.415L272.373 197.213L272.434 196.921L272.414 196.736L272.259 196.582L271.98 196.43L271.685 196.326L271.375 196.269L271.019 196.212L270.649 196.185L270.249 196.175L269.846 196.178L269.429 196.185L269.012 196.188L268.629 196.195L268.243 196.185L267.87 196.141L267.547 196.098L267.251 196.027L267.114 195.903L267.093 195.674L267.167 195.301L267.211 195.13L267.285 194.945L267.359 194.73L267.467 194.494L267.588 194.246L267.722 193.984L267.856 193.705L268.008 193.426L268.176 193.143L268.357 192.864L268.522 192.599L268.72 192.337L268.902 192.102L269.1 191.87L269.281 191.665L269.48 191.493L269.665 191.352L269.849 191.241L270.034 191.177L270.202 191.16L275.14 191.1L275.355 191.066L275.539 191.016L275.741 190.922L275.906 190.814L276.077 190.673L276.228 190.515L276.38 190.344L276.501 190.159L276.622 189.971L276.726 189.769L276.817 189.567L276.907 189.379L276.968 189.181L277.025 189.009L277.085 188.714L277.005 188.532L276.773 188.347L276.339 188.183L275.828 188.099L275.348 188.072L267.944 188.162ZM245.654 206.368L245.55 206.587L245.52 206.802L245.537 207L245.601 207.185L245.698 207.34L245.853 207.478L246.024 207.568L246.226 207.642L246.458 207.656L253.616 207.689L253.848 207.672L254.063 207.609L254.278 207.498L254.477 207.37L254.661 207.215L254.826 207.027L254.981 206.839L255.115 206.637L255.253 206.436L255.357 206.234L255.448 206.032L255.566 205.612L255.515 205.32L255.297 205.031L255.065 204.927L251.606 204.735L251.375 204.695L251.203 204.57L251.109 204.402L251.059 204.204L251.072 203.972L251.116 203.74L251.173 203.508L251.264 203.29L251.354 203.105L259.121 189.725L259.229 189.49L259.316 189.245L259.36 188.979L259.34 188.717L259.246 188.519L259.044 188.351L258.859 188.277L258.671 188.216L258.469 188.159L258.268 188.129L258.069 188.102L257.851 188.072L257.636 188.075L257.421 188.078L257.202 188.095L257.004 188.129L256.789 188.179L256.587 188.243L256.389 188.307L256.204 188.401L256.019 188.495L255.851 188.606L255.7 188.747L255.562 188.888L255.424 189.043L255.32 189.214L245.654 206.368ZM243.994 188.176L243.796 188.193L243.624 188.226L243.473 188.29L243.335 188.398L243.181 188.573L243.016 188.821L242.818 189.147L242.593 189.55L233.138 206.422L233.034 206.624L232.974 206.812L232.96 206.98L232.964 207.135L232.997 207.276L233.074 207.397L233.152 207.501L233.276 207.595L233.4 207.669L233.558 207.73L233.726 207.757L233.911 207.787L234.113 207.8L242.505 207.696L242.754 207.662L242.969 207.585L243.167 207.457L243.349 207.303L243.517 207.115L243.668 206.913L243.789 206.694L243.91 206.463L244.001 206.244L244.075 206.042L244.118 205.827L244.115 205.609L244.051 205.427L243.957 205.256L243.816 205.105L243.645 205.014L243.443 204.94L243.211 204.927L239.262 204.974L238.939 204.95L238.738 204.859L238.58 204.658L238.533 204.567L238.422 204.338L238.465 204.073L238.66 203.656L240.169 200.873L240.29 200.641L240.455 200.376L240.653 200.084L240.882 199.784L241.11 199.522L241.369 199.304L241.628 199.146L241.907 199.095L247.338 199.028L247.583 198.995L247.829 198.884L248.044 198.726L248.256 198.541L248.44 198.306L248.605 198.074L248.743 197.822L248.864 197.59L248.938 197.358L248.995 197.126L248.978 196.881L248.914 196.649L248.77 196.464L248.555 196.343L248.293 196.286L244.092 196.182L243.86 196.155L243.692 196.064L243.567 195.956L243.473 195.805L243.423 195.634L243.406 195.449L243.419 195.267L243.463 195.062L243.537 194.878L243.628 194.706L245.214 191.94L245.396 191.631L245.564 191.413L245.732 191.271L245.93 191.191L246.175 191.144L246.501 191.137L252.195 191.07L252.423 190.972L252.682 190.754L252.958 190.428L253.23 190.068L253.458 189.695L253.623 189.369L253.714 189.137L253.741 188.905L253.694 188.704L253.596 188.522L253.442 188.384L253.27 188.263L253.052 188.173L252.836 188.112L252.605 188.085L252.386 188.072L243.994 188.176ZM224.245 188.206L224.03 188.223L223.815 188.304L223.617 188.414L223.432 188.556L223.264 188.727L223.113 188.915L222.962 189.13L222.841 189.349L222.736 189.567L222.629 189.782L222.555 189.984L222.494 190.172L222.407 190.525L222.393 190.757L222.444 190.881L222.568 190.955L222.8 190.986L225.657 191.228L225.98 191.302L226.185 191.577L226.215 191.624L226.299 191.883L226.238 192.179L225.983 192.673L218.159 206.503L217.994 206.829L217.981 207.061L218.075 207.289L218.155 207.427L218.31 207.629L218.498 207.716L218.807 207.746L220.535 207.723L220.78 207.706L220.982 207.672L221.15 207.609L221.305 207.484L221.456 207.313L221.607 207.078L221.802 206.735L230.003 192.256L230.248 191.913L230.507 191.631L230.796 191.426L231.105 191.268L231.428 191.174L231.78 191.093L232.133 191.056L232.49 191.036L232.859 191.016L233.229 191.013L233.599 190.992L233.955 190.955L234.308 190.891L234.647 190.811L234.97 190.666L235.259 190.478L235.551 190.226L235.793 189.9L236.019 189.497L236.213 189.016L236.271 188.66L236.224 188.431L236.052 188.324L235.602 188.22L235.353 188.132L235.108 188.072L224.245 188.206ZM146.968 206.664L146.877 206.9L146.851 207.098L146.901 207.3L146.978 207.454L147.119 207.589L147.291 207.696L147.493 207.77L147.708 207.783L149.435 207.76L149.697 207.743L149.895 207.679L150.08 207.555L150.262 207.303L150.474 206.947L154.571 199.952L154.765 199.61L154.95 199.361L155.102 199.206L155.27 199.112L155.454 199.079L155.703 199.059L161.427 198.988L161.938 199.075L162.432 199.223L162.818 199.358L162.959 199.526L162.963 199.835L162.845 200.359L162.637 200.887L162.381 201.354L159.373 206.513L159.269 206.762L159.222 207.01L159.259 207.256L159.37 207.454L159.555 207.605L159.803 207.696L159.988 207.71L160.173 207.74L160.392 207.75L160.607 207.763L160.839 207.777L161.071 207.757L161.299 207.74L161.517 207.723L161.746 207.672L161.961 207.609L162.163 207.528L162.344 207.434L162.516 207.31L162.65 207.168L162.774 207.014L173.019 189.342L173.109 189.124L173.153 188.939L173.15 188.754L173.103 188.586L173.008 188.431L172.884 188.31L172.726 188.203L172.558 188.129L172.356 188.085L172.155 188.072L170.673 188.092L170.397 188.095L170.195 188.142L170.027 188.223L169.859 188.378L169.708 188.596L169.51 188.909L165.9 195.153L165.702 195.419L165.396 195.718L165.046 195.997L164.677 196.188L164.354 196.269L158.18 196.222L157.827 196.148L157.562 195.936L157.464 195.644L157.491 195.21L157.639 194.686L157.881 194.189L160.781 189.309L160.916 188.952L160.882 188.643L160.677 188.414L160.291 188.25L160.106 188.189L159.921 188.159L159.733 188.132L159.535 188.102L159.35 188.105L159.162 188.092L158.977 188.109L158.792 188.129L158.607 188.162L158.422 188.21L158.254 188.273L158.069 188.337L157.918 188.418L157.747 188.495L157.595 188.606L157.458 188.714L157.32 188.841L157.199 188.979L157.078 189.137L156.97 189.309L146.968 206.664ZM198.235 205.733L197.913 206.076L197.627 206.466L197.398 206.869L197.325 207.148L197.452 207.316L197.822 207.434L198.007 207.478L198.239 207.521L198.501 207.535L198.797 207.562L199.106 207.558L199.429 207.555L199.751 207.548L200.091 207.515L200.4 207.481L200.709 207.43L200.971 207.363L201.216 207.286L201.415 207.189L201.566 207.081L204.893 203.922L205.152 203.703L205.397 203.576L205.707 203.512L206.167 203.492L210.859 203.434L211.151 203.445L211.43 203.502L211.679 203.606L211.881 203.744L212.052 203.959L212.163 204.217L212.197 204.342L212.2 204.496V204.664L212.203 204.853L212.19 205.068L212.16 205.266L212.149 205.498L212.136 205.716L212.123 205.932L212.126 206.163L212.143 206.365L212.163 206.58L212.197 206.765L212.261 206.933L212.338 207.088L212.432 207.209L212.556 207.316L212.711 207.39L212.912 207.42L213.131 207.434L214.61 207.306L214.902 207.273L215.117 207.222L215.255 207.128L215.363 206.973L215.42 206.755L215.477 206.446L218.287 188.838L218.3 188.606L218.266 188.421L218.172 188.267L218.048 188.162L217.893 188.102L217.722 188.072L217.537 188.075L217.352 188.109L217.167 188.173L216.999 188.267L216.831 188.394L198.235 205.733ZM209.283 200.813L209.094 200.571L209.044 200.262L209.182 200.013L212.217 197.029L212.381 196.871L212.566 196.729L212.765 196.622L212.949 196.558L213.121 196.538L213.259 196.615L213.353 196.766L213.373 197.045L213.363 197.415L213.336 197.832L213.309 198.265L213.255 198.712L213.181 199.159L213.08 199.579L212.946 199.949L212.778 200.275L212.519 200.558L212.183 200.779L211.817 200.873L209.548 200.904L209.283 200.813ZM164.099 206.913L163.934 207.175L163.981 207.484L164.173 207.743L164.465 207.817L167.211 207.783L167.533 207.75L167.809 207.622L168.179 207.31L171.58 204.181L171.886 203.945L172.161 203.834L172.595 203.814L177.532 203.754L178.026 203.871L178.463 204.16L178.665 204.48L178.762 204.836L178.51 206.812L178.497 207.044L178.483 207.229L178.5 207.384L178.534 207.508L178.611 207.582L178.705 207.659L178.843 207.703L179.028 207.716L179.276 207.73L179.555 207.726L181.034 207.706L181.33 207.703L181.545 207.656L181.696 207.562L181.804 207.404L181.878 207.158L181.935 206.816L184.825 189.453L184.852 189.268L184.849 189.053V188.852L184.815 188.65L184.751 188.468L184.671 188.314L184.546 188.193L184.392 188.102L184.203 188.072L183.958 188.105L183.699 188.216L183.467 188.374L182.963 188.781L182.476 189.174L164.099 206.913ZM175.838 200.302L175.942 200.178L176.188 199.865L176.446 199.556L176.702 199.243L176.994 198.931L177.283 198.618L177.586 198.306L177.909 198.01L178.228 197.741L178.55 197.476L178.87 197.24L179.192 197.035L179.528 196.847L179.683 196.814L179.807 196.951L179.841 197.166L179.831 197.553L179.804 197.939L179.794 198.309L179.754 198.665L179.727 199.005L179.666 199.331L179.609 199.64L179.522 199.933L179.418 200.198L179.28 200.43L179.129 200.648L178.96 200.837L178.745 200.991L178.517 201.119L178.241 201.213L177.915 201.263L177.576 201.284L177.176 201.26L176.742 201.203L176.265 201.099L175.909 200.995L175.721 200.874L175.687 200.705L175.761 200.427L175.838 200.302ZM331.831 188.112L331.031 188.186L330.245 188.317L329.445 188.499L328.662 188.707L327.892 188.979L327.126 189.282L326.39 189.614L325.654 189.994L324.931 190.404L324.245 190.861L323.587 191.332L322.945 191.85L322.35 192.394L321.768 192.959L321.237 193.567L320.737 194.189L320.28 194.827L319.873 195.513L319.51 196.195L319.076 197.203L318.717 198.195L318.468 199.17L318.31 200.131L318.226 201.055L318.24 201.966L318.34 202.83L318.535 203.66L318.824 204.443L319.174 205.196L319.628 205.885L320.162 206.51L320.77 207.088L321.456 207.605L322.215 208.042L323.069 208.402L323.983 208.701L324.988 208.903L326.054 209.03L327.196 209.064L327.983 209.02L328.786 208.903L329.586 208.725L330.382 208.483L331.182 208.197L331.965 207.831L332.748 207.437L333.515 206.98L334.247 206.493L334.967 205.959L335.656 205.394L336.294 204.786L336.919 204.144L337.497 203.492L338.032 202.803L338.499 202.104L338.939 201.374L339.299 200.645L339.615 199.899L339.853 199.156L340.058 198.306L340.216 197.455L340.331 196.619L340.368 195.785L340.358 194.999L340.284 194.212L340.153 193.473L339.961 192.75L339.719 192.075L339.403 191.433L339.027 190.835L338.573 190.283L338.072 189.783L337.494 189.342L336.859 188.963L336.143 188.647L335.37 188.395L334.52 188.203L333.605 188.105L332.617 188.072L331.831 188.112ZM330.298 191.218L330.897 191.103L331.481 191.033L332.07 191.013L332.641 191.05L333.196 191.137L333.74 191.285L334.234 191.463L334.715 191.705L335.165 191.991L335.572 192.31L335.945 192.676L336.274 193.09L336.56 193.533L336.782 194.024L336.956 194.548L337.071 195.116L337.124 195.718L337.118 196.35L337.034 197.015L336.916 197.54L336.768 198.067L336.573 198.608L336.365 199.136L336.109 199.65L335.82 200.178L335.521 200.675L335.185 201.173L334.839 201.657L334.456 202.124L334.063 202.577L333.649 202.998L333.209 203.418L332.765 203.811L332.308 204.171L331.831 204.517L331.357 204.829L330.866 205.115L330.376 205.367L329.885 205.589L329.3 205.811L328.689 205.989L328.07 206.103L327.455 206.19L326.837 206.227L326.222 206.221L325.62 206.15L325.045 206.049L324.487 205.885L323.963 205.676L323.466 205.421L323.029 205.118L322.622 204.766L322.279 204.369L321.997 203.912L321.775 203.404L321.627 202.85L321.56 202.235L321.567 201.569L321.664 200.86L321.812 200.225L321.973 199.59L322.182 198.971L322.424 198.366L322.693 197.775L322.978 197.2L323.311 196.642L323.661 196.098L324.04 195.57L324.434 195.069L324.86 194.585L325.318 194.118L325.791 193.681L326.279 193.275L326.8 192.881L327.351 192.535L327.902 192.202L328.484 191.903L329.082 191.634L329.697 191.396L330.298 191.218ZM300.265 206.073L300.04 206.523L299.828 207.051L299.761 207.545L299.795 207.824L299.933 207.975L300.276 208.096L300.447 208.14L300.615 208.167L300.786 208.197L300.971 208.21L301.156 208.224L301.341 208.207L301.526 208.204L301.711 208.17L301.895 208.136L302.063 208.089L302.248 208.039L302.403 207.962L302.571 207.881L302.726 207.787L302.863 207.679L302.984 207.555L303.105 207.414L303.196 207.256L306.641 201.321L306.762 201.136L306.886 200.995L307.007 200.884L307.145 200.806L307.283 200.756L307.421 200.739L307.545 200.756L307.686 200.813L307.794 200.89L307.905 200.998L307.999 201.136L308.076 201.304L308.14 201.502L309.568 207.195L309.743 207.548L310.039 207.851L310.382 208.049L310.721 208.167L311.094 208.241L311.494 208.268L311.898 208.247L312.267 208.197L312.62 208.083L312.865 207.942L313.047 207.693L313.165 207.384V207.121L311.958 201.983L311.891 201.643L311.874 201.411L311.918 201.226L312.025 201.102L312.207 200.991L312.486 200.894L314.791 200.141L315.342 199.933L315.88 199.65L316.401 199.321L316.905 198.911L317.379 198.474L317.819 197.99L318.229 197.462L318.609 196.914L318.939 196.326L319.228 195.721L319.449 195.116L319.628 194.481L319.745 193.863L319.799 193.244L319.775 192.629L319.675 192.028L319.513 191.443L319.261 190.892L318.915 190.354L318.492 189.867L318.32 189.712L318.132 189.561L317.93 189.409L317.712 189.272L317.493 189.137L317.278 189.016L317.043 188.912L316.798 188.808L316.566 188.717L316.317 188.643L316.068 188.583L315.82 188.526L315.574 188.499L315.342 188.468L315.094 188.472L311.145 188.522L310.792 188.526L310.53 188.589L310.345 188.684L310.177 188.872L309.995 189.167L300.265 206.073ZM314.391 191.52L314.653 191.534L314.885 191.591L315.104 191.668L315.292 191.772L315.447 191.91L315.601 192.061L315.712 192.229L315.823 192.414L315.9 192.612L315.951 192.828L316.001 193.059L316.018 193.291L316.035 193.523L316.025 193.755L315.994 193.987L315.954 194.216L315.907 194.434L315.833 194.636L315.759 194.837L315.668 195.009L315.474 195.335L315.275 195.63L315.047 195.926L314.821 196.192L314.576 196.44L314.317 196.693L314.055 196.911L313.78 197.099L313.491 197.287L313.198 197.445L312.892 197.587L312.57 197.714L312.247 197.825L311.924 197.906L311.585 197.973L311.232 198.01L310.876 198.027L310.523 198.034L310.15 198.007L309.78 197.963L309.548 197.876L309.377 197.724L309.266 197.509L309.202 197.277L309.195 197.015L309.242 196.767L309.347 196.535L312.16 191.934L312.341 191.685L312.556 191.574L312.909 191.537L314.391 191.52ZM183.367 206.53L183.289 206.715L183.232 206.916L183.219 207.118L183.253 207.303L183.33 207.471L183.441 207.609L183.582 207.713L183.767 207.79L183.999 207.817L185.481 207.8L185.79 207.78L186.019 207.746L186.203 207.666L186.371 207.525L186.523 207.323L186.704 207.027L190.196 201.045L190.317 200.86L190.438 200.719L190.576 200.625L190.714 200.561L190.855 200.527L190.993 200.541L191.131 200.571L191.272 200.645L191.379 200.739L191.503 200.843L191.598 200.981L191.695 201.135L191.772 201.303L191.823 201.488L193.154 207.01L193.234 207.303L193.315 207.501L193.426 207.642L193.594 207.716L193.812 207.743L194.122 207.756L195.6 207.736L195.785 207.703L195.94 207.642L196.094 207.545L196.215 207.42L196.32 207.266L196.41 207.094L196.488 206.923L196.531 206.725L196.558 206.523L196.572 206.338L196.568 206.136L196.535 205.968L196.488 205.797L196.424 205.659L196.283 205.447L196.172 205.216L196.047 204.984L195.937 204.738L195.839 204.479L195.745 204.217L195.647 203.942L195.567 203.68L195.486 203.404L195.422 203.125L195.355 202.849L195.308 202.571L195.258 202.295L195.224 202.016L195.187 201.74L195.17 201.478L195.153 201.216L195.15 200.971L195.177 200.658L195.281 200.473L195.526 200.302L196.108 200.033L196.74 199.838L197.355 199.66L197.97 199.452L198.323 199.294L198.659 199.136L198.998 198.947L199.318 198.759L199.64 198.554L199.946 198.349L200.235 198.131L200.511 197.879L200.786 197.643L201.045 197.378L201.304 197.112L201.532 196.833L201.761 196.538L201.986 196.242L202.184 195.929L202.383 195.62L202.564 195.294L202.742 194.951L202.894 194.609L203.045 194.252L203.179 193.883L203.267 193.51L203.337 193.106L203.381 192.723L203.391 192.303L203.371 191.903L203.317 191.503L203.236 191.103L203.139 190.717L202.998 190.334L202.837 189.981L202.648 189.645L202.43 189.339L202.164 189.05L201.895 188.804L201.586 188.593L201.243 188.411L200.874 188.277L200.484 188.189L200.054 188.162L194.868 188.072L194.515 188.139L194.115 188.33L193.749 188.596L193.503 188.861L183.367 206.53ZM195.365 192.078L195.513 191.846L195.698 191.641L195.913 191.47L196.141 191.328L196.387 191.201L196.649 191.107L196.925 191.026L197.2 190.992L197.479 190.972L197.772 190.969L198.051 191.012L198.329 191.07L198.592 191.16L198.84 191.264L199.076 191.416L199.291 191.584L199.479 191.765L199.637 191.997L199.765 192.239L199.859 192.518L199.926 192.935L199.916 193.335L199.845 193.735L199.694 194.138L199.499 194.545L199.24 194.918L198.951 195.291L198.602 195.634L198.235 195.963L197.839 196.276L197.409 196.558L196.965 196.797L196.504 197.018L196.044 197.193L195.584 197.338L195.137 197.435L194.69 197.489L194.273 197.479L193.87 197.435L193.5 197.334L193.268 197.196L193.093 197.012L192.982 196.783L192.949 196.538L192.962 196.276L193.066 196.027L195.365 192.078ZM147.516 198.591L147.53 198.373L147.664 198.171L147.909 197.922L150.658 195.435L150.931 195.17L151.173 194.857L151.371 194.548L151.552 194.205L151.704 193.849L151.821 193.476L151.909 193.089L151.966 192.703L151.993 192.317L151.986 191.93L151.952 191.547L151.885 191.16L151.774 190.791L151.647 190.438L151.489 190.102L151.284 189.779L151.062 189.49L150.796 189.214L150.501 188.986L150.174 188.774L149.926 188.653L149.664 188.549L149.415 188.445L149.136 188.371L148.874 188.297L148.595 188.24L148.316 188.196L148.02 188.169L147.745 188.142L147.449 188.112L147.173 188.102L146.881 188.088L146.602 188.078L146.309 188.082L146.03 188.085L145.768 188.088L145.489 188.092L145.305 188.095H145.12L144.921 188.082L144.72 188.085L144.501 188.072L144.286 188.075L144.071 188.078L143.856 188.082L143.641 188.099L143.422 188.115L143.207 188.149L143.009 188.182L142.807 188.233L142.609 188.297L142.424 188.391L142.256 188.485L142.102 188.596L141.95 188.72L141.829 188.878L141.705 189.05L131.663 206.731L131.498 207.101V207.363L131.673 207.625L131.905 207.76L132.402 207.894L132.896 207.965L142.276 207.851L142.693 207.814L143.123 207.733L143.57 207.588L144.014 207.414L144.474 207.175L144.918 206.923L145.362 206.624L145.792 206.281L146.202 205.918L146.598 205.545L146.965 205.125L147.298 204.701L147.587 204.268L147.842 203.817L148.054 203.35L148.218 202.886L148.319 202.423L148.36 201.976L148.339 201.512L148.242 201.082L147.583 198.867L147.516 198.591ZM139.171 199.956L139.336 199.707L139.551 199.489L139.779 199.317L140.055 199.19L140.334 199.079L140.64 199.015L140.962 198.978L141.288 198.974L141.628 199.001L141.954 199.058L142.293 199.132L142.619 199.237L142.942 199.354L143.254 199.492L143.533 199.657L143.812 199.825L144.048 200.023L144.266 200.218L144.454 200.433L144.595 200.648L144.69 200.846L144.753 201.078L144.804 201.307L144.837 201.556L144.841 201.801L144.814 202.05L144.784 202.295L144.726 202.544L144.653 202.776L144.545 202.994L144.441 203.196L144.32 203.367L144.078 203.663L143.802 203.928L143.527 204.164L143.238 204.382L142.915 204.57L142.609 204.728L142.27 204.873L141.934 204.984L141.577 205.098L141.224 205.179L140.872 205.229L140.502 205.279L140.132 205.3L139.759 205.32L139.376 205.31L139.006 205.3L138.633 205.256L138.247 205.216L137.877 205.158L137.504 205.101L137.148 204.98L136.916 204.769L136.912 204.52L136.996 203.949L137.01 203.811L137.04 203.686L139.171 199.956ZM145.066 191.18L145.358 191.133L145.634 191.113L145.913 191.11L146.175 191.154L146.437 191.197L146.686 191.271L146.935 191.375L147.153 191.496L147.338 191.634L147.526 191.799L147.684 191.984L147.808 192.169L147.902 192.384L147.97 192.612L148.003 192.858L147.99 193.123L147.946 193.399L147.859 193.694L147.724 193.99L147.573 194.269L147.405 194.518L147.207 194.753L147.009 194.955L146.797 195.156L146.568 195.331L146.323 195.486L146.061 195.63L145.799 195.741L145.54 195.852L145.247 195.946L144.972 196.013L144.679 196.064L144.387 196.114L144.091 196.131L143.799 196.134L143.507 196.138L143.214 196.111L142.918 196.071L142.626 196.027L142.347 195.953L142.176 195.879L142.081 195.741L142.065 195.54L142.075 195.23L142.105 195.076L142.165 194.891L142.223 194.689L142.313 194.471L142.418 194.239L142.539 194.007L142.673 193.742L142.824 193.493L142.975 193.244L143.143 192.982L143.312 192.73L143.476 192.498L143.658 192.263L143.826 192.048L144.011 191.843L144.175 191.671L144.343 191.517L144.498 191.406L144.649 191.311L144.787 191.248L145.066 191.18ZM185.723 156.681L185.955 156.772L186.207 157.061L186.274 157.353L186.156 157.817L185.965 158.314L185.756 158.781L177.586 173.183L177.482 173.431L177.489 173.66L177.552 173.875L177.677 174.06L177.865 174.194L178.083 174.268L178.251 174.312L178.44 174.342L178.625 174.352L178.809 174.366L178.994 174.363L179.179 174.359L179.364 174.342L179.549 174.326L179.717 174.275L179.902 174.242L180.073 174.178L180.241 174.11L180.409 174.033L180.564 173.939L180.715 173.842L180.866 173.734L180.991 173.606L181.112 173.482L181.229 173.324L181.32 173.169L190.317 157.444L190.529 157.084L190.71 156.852L190.892 156.725L191.107 156.661L191.386 156.64L199.529 156.513L200.04 156.566L200.538 156.698L200.8 156.846L201.021 157.061L201.146 157.229L201.24 157.393L201.321 157.578L201.371 157.763L201.422 157.965L201.438 158.163L201.442 158.365L201.432 158.566L201.418 158.765L201.391 158.983L201.348 159.185L201.304 159.4L201.247 159.601L201.186 159.803L201.129 160.005L201.069 160.206L201.012 160.391L200.954 160.58L200.894 160.748L200.759 161.151L200.581 161.527L200.403 161.9L200.191 162.257L199.966 162.586L199.724 162.895L199.452 163.194L199.163 163.477L198.871 163.729L198.551 163.964L198.215 164.186L197.879 164.377L197.513 164.552L197.143 164.697L196.76 164.811L196.377 164.908L195.977 164.979L195.56 165.029L195.143 165.036L194.727 165.029L194.246 164.989L193.705 164.952L193.181 164.868L192.67 164.75L192.219 164.559L189.013 162.788L188.734 162.667L188.549 162.67L188.351 162.828L188.304 162.845L188.166 162.999L188.122 163.188L188.19 163.48L188.351 163.924L190.089 168.434L190.515 169.106L191.225 170.111L191.732 170.783L192.028 171.119L192.313 171.422L192.609 171.711L192.892 171.983L193.174 172.242L193.47 172.47L193.752 172.696L194.048 172.894L194.343 173.089L194.656 173.253L194.965 173.418L195.278 173.569L195.617 173.687L195.96 173.805L196.316 173.922L196.689 174.01L197.059 174.094L197.462 174.167L197.896 174.238L198.329 174.292L198.605 174.319L198.884 174.346L199.163 174.356L199.425 174.366L199.687 174.363L199.933 174.359L200.181 174.339L200.427 174.288L200.659 174.238L200.874 174.174L201.089 174.094L201.287 173.999L201.485 173.872L201.667 173.731L201.835 173.556L201.986 173.371L202.137 173.153L202.258 172.904L202.376 172.638L202.48 172.329L202.537 172.033L202.504 171.835L202.329 171.714L201.989 171.597L201.401 171.496L200.769 171.506L200.138 171.533L199.519 171.512L199.227 171.469L198.931 171.428L198.652 171.385L198.36 171.328L198.064 171.257L197.785 171.183L197.493 171.096L197.21 170.991L196.948 170.87L196.683 170.753L196.417 170.618L196.168 170.467L195.92 170.316L195.701 170.134L195.466 169.94L195.264 169.741L195.073 169.513L194.885 169.284L194.727 169.025L194.585 168.75L194.501 168.441L194.592 168.148L194.821 168.004L195.264 167.936L195.805 167.896L196.33 167.842L196.868 167.755L197.375 167.671L197.882 167.557L198.39 167.409L198.881 167.261L199.358 167.069L199.818 166.878L200.275 166.639L200.719 166.401L201.132 166.115L201.542 165.816L201.926 165.486L202.305 165.123L202.655 164.747L202.971 164.344L203.287 163.89L203.572 163.423L203.828 162.925L204.053 162.458L204.278 161.978L204.47 161.463L204.631 160.953L204.698 160.442L204.93 157.477L204.944 157.293L204.971 157.134L205.001 157.014L205.045 156.889L205.105 156.795L205.165 156.718L205.273 156.654L205.381 156.603L205.518 156.573L205.686 156.54L205.888 156.519L206.12 156.503L206.382 156.496L206.691 156.51L226.195 156.617L226.43 156.678L226.648 156.795L226.82 156.98L226.948 157.208L226.981 157.454L226.924 157.686L225.798 159.665L225.617 159.961L225.418 160.132L225.173 160.2L224.773 160.237L213.911 160.405L213.111 160.465L212.311 160.616L211.481 160.879L210.667 161.198L209.871 161.611L209.091 162.088L208.345 162.623L207.629 163.235L206.977 163.88L206.369 164.582L205.841 165.302L205.374 166.081L205.001 166.858L204.722 167.664L204.534 168.484L204.47 169.318L204.514 170.138L204.695 170.968L205.018 171.765L205.475 172.544L205.76 172.894L206.103 173.196L206.493 173.485L206.93 173.741L207.397 173.949L207.908 174.141L208.419 174.289L208.963 174.403L209.518 174.47L210.076 174.494L210.614 174.484L211.138 174.43L211.662 174.312L212.136 174.168L212.596 173.959L212.993 173.707L213.359 173.408L213.662 173.048L213.904 172.628L214.079 172.148L214.136 171.791L214.085 171.559L213.9 171.391L213.588 171.291L213.386 171.264L213.188 171.25L212.97 171.237L212.754 171.257L212.539 171.277L212.307 171.294L212.092 171.328L211.86 171.365L211.632 171.381L211.413 171.415L211.185 171.435L210.966 171.438L210.751 171.442L210.536 171.432L210.318 171.405L210.116 171.344L209.915 171.27L209.73 171.18L209.541 171.059L209.37 170.907L208.963 170.454L208.691 169.977L208.53 169.486L208.476 169.009L208.53 168.515L208.661 168.017L208.869 167.536L209.155 167.053L209.504 166.602L209.898 166.149L210.355 165.738L210.825 165.332L211.346 164.969L211.864 164.636L212.398 164.35L212.949 164.092L213.474 163.9L213.995 163.739L214.485 163.651L214.949 163.614L222.108 163.503L222.508 163.527L222.726 163.618L222.918 163.86L222.982 164.108L222.941 164.525L222.824 164.972L222.662 165.362L218.246 173.099L218.142 173.364L218.132 173.61L218.213 173.825L218.367 173.993L218.572 174.127L218.821 174.218L218.989 174.245L219.16 174.258L219.332 174.285L219.517 174.299L219.701 174.312L219.886 174.309L220.085 174.305L220.269 174.289L220.471 174.268L220.656 174.235L220.841 174.184L221.026 174.134L221.194 174.07L221.362 174.006L221.53 173.912L221.684 173.818L221.822 173.707L221.943 173.583L222.061 173.442L222.168 173.284L230.86 157.827L230.981 157.639L231.118 157.45L231.27 157.296L231.438 157.168L231.602 157.044L231.787 156.916L231.972 156.822L232.17 156.725L232.355 156.63L232.537 156.55L232.722 156.469L232.906 156.388L233.074 156.311L233.243 156.214L233.38 156.12L233.518 156.025L233.639 155.915L233.743 155.807L233.821 155.666L233.881 155.525L233.921 155.185L233.824 154.94L233.622 154.758L233.326 154.701L175.798 154.647L175.385 154.745L174.971 155L174.652 155.283L174.531 155.454L174.427 155.639L174.383 155.827L174.386 156.012L174.42 156.18L174.514 156.318L174.655 156.422L174.84 156.513L175.089 156.54L178.299 156.644L178.517 156.671L178.685 156.714L178.826 156.792L178.937 156.896L179.014 157.017L179.065 157.158L179.098 157.309V157.464L179.071 157.635L179.041 157.803L178.984 157.975L178.927 158.146L178.867 158.301L178.776 158.442L176.252 162.878L176.027 163.114L175.717 163.288L175.365 163.386L175.012 163.423L174.702 163.43L174.346 163.356L174.175 163.221L174.077 162.915L174.01 162.529L173.973 162.159L173.966 161.789L173.976 161.45L174.003 161.124L174.03 160.801L174.07 160.475L174.111 160.166L174.138 159.857L174.148 159.548L174.158 159.242L174.138 158.933L174.087 158.606L174.003 158.284L173.892 157.948L173.748 157.595L173.54 157.229L173.287 156.846L172.972 156.449L172.595 156.025L172.141 155.615L171.627 155.266L171.052 154.953L170.431 154.698L169.762 154.493L169.083 154.348L168.37 154.254L167.645 154.204L166.905 154.214L166.179 154.288L165.473 154.409L164.781 154.587L164.136 154.829L163.51 155.131L162.959 155.481L162.438 155.904L162.002 156.375L161.638 156.906L161.37 157.511L161.178 158.163L161.138 158.455L161.111 158.734L161.114 159.01L161.134 159.289L161.171 159.568L161.239 159.827L161.319 160.075L161.413 160.334L161.528 160.566L161.652 160.795L161.81 161.023L161.968 161.221L162.156 161.42L162.344 161.601L162.563 161.766L162.781 161.934L163.033 162.068L163.279 162.189L163.544 162.29L163.823 162.381L164.055 162.438L164.287 162.478L164.536 162.522L164.781 162.549L165.03 162.546L165.275 162.542L165.524 162.539L165.769 162.502L165.998 162.438L166.216 162.374L166.431 162.294L166.629 162.183L166.811 162.055L166.979 161.914L167.13 161.742L167.251 161.554L167.355 161.336L167.443 161.087L167.503 160.825L167.513 160.532L167.477 160.206L167.245 160.089L166.472 159.961L165.712 159.803L165.477 159.686L165.258 159.517L165.087 159.289L164.959 159.074L164.909 158.859L164.889 158.644L164.919 158.459L165.01 158.257L165.114 158.069L165.265 157.897L165.433 157.74L165.645 157.598L165.86 157.457L166.088 157.329L166.334 157.219L166.579 157.121L166.824 157.04L167.07 156.973L167.318 156.94L167.533 156.906L167.749 156.903L167.933 156.899L168.229 156.94L168.522 157.014L168.787 157.101L169.036 157.205L169.285 157.326L169.5 157.461L169.705 157.612L169.893 157.78L170.081 157.961L170.239 158.16L170.38 158.375L170.508 158.586L170.602 158.832L170.7 159.077L170.78 159.322L170.831 159.585L170.881 159.864L170.901 160.139L170.905 160.432L170.894 160.724L170.881 160.895L170.871 161.067L170.841 161.235L170.797 161.423L170.77 161.608L170.71 161.779L170.653 161.964L170.592 162.149L170.518 162.32L170.444 162.492L170.353 162.663L170.249 162.804L170.145 162.946L170.007 163.087L169.883 163.194L169.732 163.292L169.577 163.369L169.409 163.433L169.227 163.47L169.026 163.487L160.634 163.618L159.83 163.692L159.047 163.86L158.294 164.118L157.592 164.468L156.92 164.895L156.295 165.399L155.717 165.947L155.199 166.542L154.762 167.167L154.389 167.836L154.103 168.504L153.885 169.187L153.771 169.882L153.75 170.548L153.838 171.21L154.033 171.822L154.352 172.403L154.775 172.937L155.34 173.408L156.039 173.811L156.661 174.08L157.296 174.289L157.931 174.446L158.583 174.561L159.232 174.611L159.881 174.618L160.543 174.574L161.188 174.487L161.833 174.369L162.482 174.205L163.127 174.01L163.756 173.768L164.368 173.512L164.966 173.21L165.561 172.89L166.129 172.558L166.693 172.181L167.228 171.801L167.728 171.391L168.216 170.968L168.384 170.81L168.582 170.608L168.794 170.373L169.006 170.108L169.248 169.825L169.49 169.526L169.748 169.23L170.007 168.918L170.279 168.605L170.535 168.293L170.807 167.98L171.083 167.698L171.355 167.432L171.614 167.18L171.872 166.958L172.118 166.77L172.36 166.629L172.592 166.518L172.82 166.468L173.022 166.448L173.271 166.491L173.455 166.579L173.613 166.686L173.708 166.824L173.755 166.992L173.741 167.177L173.684 167.395L173.58 167.627L170.548 173.075L170.387 173.479L170.404 173.771L170.612 174.047L170.905 174.181L171.153 174.225L171.385 174.252L171.617 174.278L171.832 174.292L172.047 174.272L172.249 174.252L172.451 174.218L172.649 174.167L172.834 174.12L173.019 174.04L173.187 173.946L173.355 173.848L173.523 173.737L173.674 173.596L173.825 173.455L173.963 173.3L174.114 173.129L174.252 172.941L174.386 172.753L174.507 172.534L183.263 157.168L183.427 156.919L183.595 156.775L183.841 156.728L184.227 156.704L185.723 156.681ZM166.347 166.256L166.596 166.283L166.794 166.374L166.952 166.511L167.046 166.696L167.08 166.894L167.053 167.126L166.962 167.362L166.75 167.684L166.478 168.044L166.159 168.417L165.793 168.793L165.379 169.17L164.936 169.543L164.465 169.906L163.974 170.266L163.453 170.582L162.916 170.881L162.381 171.15L161.844 171.371L161.306 171.549L160.781 171.664L160.257 171.731L159.763 171.721L159.286 171.65L158.849 171.502L158.432 171.26L158.073 170.924L157.854 170.635L157.679 170.343L157.569 170.034L157.518 169.728L157.498 169.419L157.542 169.109L157.615 168.8L157.733 168.491L157.898 168.212L158.083 167.93L158.294 167.651L158.54 167.415L158.799 167.18L159.074 166.962L159.363 166.787L159.669 166.629L159.978 166.505L160.284 166.407L160.607 166.34L160.916 166.323L166.347 166.256ZM345.863 149.095L345.634 149.112L345.386 149.129L345.14 149.176L344.878 149.223L344.603 149.304L344.324 149.381L344.031 149.478L343.756 149.586L343.463 149.697L343.188 149.841L342.912 149.982L342.653 150.124L342.391 150.282L342.132 150.436L341.904 150.611L341.689 150.786L341.474 150.957L341.292 151.132L341.137 151.32L341.003 151.508L339.501 153.737L339.306 154.002L339.138 154.207L338.983 154.348L338.815 154.442L338.6 154.489L338.355 154.523H338.032L285.202 154.496L284.879 154.5L284.617 154.469L284.416 154.422L284.227 154.311L284.073 154.17L283.901 153.969L283.696 153.703L281.344 150.346L281.108 150.063L280.903 149.892L280.624 149.831L280.208 149.814L278.235 149.821L277.986 149.855L277.805 149.966L277.684 150.137L277.623 150.325L277.596 150.544L277.63 150.766L277.707 150.984L278.023 151.485L278.383 151.969L278.746 152.436L279.089 152.92L279.374 153.438L279.438 153.67L279.455 153.858L279.428 154.032L279.337 154.174L279.213 154.281L279.075 154.362L278.89 154.439L278.705 154.473L278.507 154.503L278.292 154.506L241.258 154.174L240.858 154.284L240.462 154.553L240.156 154.836L240.035 155.024L239.961 155.212L239.944 155.37L239.948 155.525L239.995 155.666L240.075 155.79L240.183 155.901L240.324 155.978L240.478 156.056L240.65 156.103L240.835 156.15H241.036L251.405 156.254L251.899 156.284L252.148 156.395L252.289 156.674L252.322 157.034L252.191 157.551L251.936 158.039L251.815 158.21L251.63 158.338L251.277 158.402L250.844 158.371L250.349 158.294L249.839 158.17L249.328 158.032L248.864 157.908L248.461 157.847L247.872 157.77L247.271 157.709L246.656 157.666L246.007 157.635L245.372 157.605L244.71 157.608L244.061 157.625L243.399 157.676L242.75 157.756L242.122 157.867L241.504 158.012L240.889 158.183L240.307 158.405L239.753 158.674L239.235 158.99L238.744 159.349L238.287 159.759L237.891 160.23L237.528 160.748L237.212 161.346L236.913 162.129L236.795 162.801L236.802 163.413L236.963 163.93L237.245 164.367L237.635 164.744L238.119 165.053L238.677 165.318L239.312 165.533L239.995 165.705L240.704 165.843L241.463 165.95L242.203 166.027L242.959 166.101L243.685 166.162L244.397 166.222L245.046 166.283L245.631 166.343L246.158 166.434L246.592 166.558L246.824 166.653L247.026 166.76L247.214 166.888L247.368 167.042L247.493 167.2L247.604 167.372L247.684 167.557L247.748 167.745L247.795 167.95L247.815 168.152V168.37L247.788 168.575L247.745 168.78L247.671 168.982L247.58 169.187L247.473 169.375L247.352 169.55L247.2 169.721L247.049 169.879L246.864 170.02L246.511 170.192L246.202 170.195L245.953 170.024L245.701 169.647L245.372 169.116L244.982 168.649L244.559 168.226L244.078 167.852L243.564 167.526L243.019 167.261L242.461 167.029L241.86 166.858L241.255 166.72L240.623 166.643L239.988 166.599L239.356 166.616L238.724 166.649L238.109 166.743L237.494 166.871L236.892 167.046L236.324 167.251L235.773 167.49L235.266 167.772L234.775 168.101L234.516 168.353L234.305 168.669L234.123 169.029L233.989 169.405L233.871 169.798L233.784 170.141L233.723 170.44L233.696 170.723L233.7 171.005L233.72 171.27L233.784 171.519L233.864 171.771L233.958 172.02L234.086 172.238L234.227 172.474L234.385 172.679L234.557 172.88L234.745 173.082L234.946 173.253L235.148 173.425L235.367 173.596L235.602 173.754L235.834 173.892L236.066 174.033L236.301 174.157L236.55 174.265L236.889 174.453L237.077 174.608L237.171 174.813L237.192 175.126L237.074 175.754L236.96 176.379L236.993 176.725L237.087 176.927L237.259 177.051L237.585 177.145L238.143 177.27L238.62 177.36L239.053 177.391L239.44 177.404L239.779 177.371L240.072 177.31L240.317 177.213L240.546 177.102L240.747 176.977L240.929 176.819L241.097 176.648L241.265 176.473L241.433 176.288L241.601 176.097L241.766 175.892L241.964 175.703L242.179 175.502L242.408 175.327L242.683 175.139L242.989 174.981L243.604 174.729L244.233 174.507L244.878 174.302L245.527 174.11L246.172 173.922L246.817 173.717L247.432 173.478L247.859 173.29L248.276 173.052L248.703 172.786L249.099 172.487L249.496 172.141L249.879 171.778L250.228 171.388L250.564 170.978L250.867 170.555L251.139 170.098L251.381 169.644L251.593 169.173L251.738 168.689L251.842 168.202L251.912 167.701L251.906 167.214L251.855 166.73L251.741 166.246L251.566 165.775L251.314 165.308L250.968 164.838L250.578 164.465L250.141 164.152L249.661 163.92L249.166 163.749L248.639 163.624L248.098 163.53L247.543 163.487L246.972 163.473L246.4 163.477H245.829L245.258 163.493L244.72 163.514H244.179L243.668 163.483L243.191 163.44L242.74 163.345L242.34 163.208L241.984 163.019L241.672 162.771L241.497 162.519L241.433 162.209L241.49 161.927L241.672 161.641L241.947 161.376L242.253 161.158L242.589 160.983L242.945 160.855L243.312 160.774L243.923 160.694L244.286 160.674L245.039 160.677L245.365 160.69L245.671 160.704L246.014 160.721L246.337 160.734L246.659 160.748L247.002 160.764L247.338 160.778L247.664 160.795L248.004 160.808L248.326 160.838L248.669 160.882L248.992 160.929L249.318 160.993L249.644 161.053L249.953 161.144L250.276 161.238L250.571 161.363L250.88 161.504L251.159 161.658L251.455 161.843L251.58 161.924L251.738 162.015L251.892 162.095L252.064 162.173L252.232 162.25L252.42 162.297L252.605 162.341L252.773 162.357L252.961 162.374L253.129 162.341L253.284 162.31L253.435 162.23L253.589 162.119L253.71 161.994L253.831 161.823L256.292 157.256L256.456 156.943L256.611 156.708L256.762 156.55L256.913 156.439L257.085 156.375L257.3 156.345H257.579L279.3 156.412L279.519 156.425L279.704 156.472L279.888 156.55L280.03 156.661L280.154 156.802L280.248 156.94L280.312 157.114L280.315 157.303L280.285 157.504L280.198 157.709L278.036 161.739L277.885 161.961L277.704 162.132L277.506 162.26L277.29 162.32L277.059 162.307L276.84 162.246L276.638 162.088L276.265 161.779L275.876 161.514L275.472 161.312L275.069 161.158L274.652 161.047L274.219 160.986L273.785 160.956L273.338 160.959L272.891 160.99L272.444 161.053L272 161.151L271.553 161.262L271.123 161.403L270.676 161.547L270.246 161.705L269.816 161.863L269.402 162.035L269.002 162.209L268.602 162.367L268.219 162.542L267.867 162.573L267.524 162.388L267.04 162.045L266.576 161.668L266.092 161.326L265.595 161.03L265.037 160.815L264.2 160.63L263.353 160.536L262.472 160.526L261.578 160.623L260.684 160.781L259.794 161.033L258.916 161.349L258.059 161.729L257.246 162.186L256.466 162.704L255.747 163.271L255.075 163.9L254.497 164.576L253.983 165.298L253.559 166.051L253.243 166.851L253.025 167.681L252.924 168.528L252.951 169.419L253.116 170.313L253.277 170.797L253.516 171.267L253.798 171.704L254.141 172.141L254.53 172.531L254.967 172.89L255.418 173.216L255.915 173.499L256.412 173.747L256.923 173.932L257.451 174.057L257.962 174.134L258.469 174.147L258.947 174.084L259.424 173.956L259.854 173.734L260.237 173.452L260.587 173.075L260.889 172.605L261.115 172.04L261.202 171.677L261.185 171.442L261.01 171.27L260.718 171.163L260.254 171.086L259.79 171.072L259.313 171.059L258.849 171.012L258.399 170.921L257.952 170.719L257.374 170.266L256.984 169.765L256.775 169.204L256.722 168.625L256.809 168.014L257.031 167.402L257.364 166.79L257.787 166.192L258.291 165.628L258.856 165.11L259.468 164.636L260.109 164.226L260.768 163.897L261.43 163.661L262.059 163.517L262.677 163.483L263.235 163.591L263.729 163.826L264.136 164.213L264.452 164.76L264.533 164.996L264.566 165.214L264.583 165.436L264.569 165.638L264.543 165.843L264.482 166.044L264.422 166.233L264.334 166.421L264.243 166.626L264.136 166.814L264.032 167.002L263.924 167.19L263.803 167.379L263.712 167.567L263.608 167.755L263.534 167.943L263.457 168.148L263.4 168.35L263.37 168.555L263.359 168.773L263.393 169.056L263.548 169.214L263.904 169.335L264.183 169.412L264.509 169.459L264.862 169.506L265.235 169.536L265.605 169.533L265.974 169.503L266.314 169.452L266.62 169.375L266.882 169.247L267.11 169.076L267.325 168.901L267.524 168.696L267.692 168.478L267.856 168.225L268.024 167.977L268.176 167.708L268.34 167.442L268.492 167.174L268.656 166.895L268.824 166.609L269.006 166.343L269.204 166.078L269.416 165.809L269.644 165.56L269.903 165.322L270.179 165.103L270.485 164.898L270.837 164.723L271.207 164.566L271.513 164.488L271.822 164.407L272.145 164.374L272.471 164.36L272.794 164.374L273.103 164.418L273.412 164.482L273.708 164.576L273.987 164.697L274.235 164.838L274.467 164.996L274.656 165.181L274.827 165.399L274.955 165.634L275.049 165.9L275.082 166.182L275.086 166.481L275.015 166.807L274.911 167.153L274.729 167.53L271.604 173.24L271.486 173.586L271.614 173.916L271.661 173.993L271.816 174.211L272.017 174.305L272.357 174.319L274.084 174.312L274.38 174.295L274.608 174.231L274.776 174.107L274.961 173.889L275.173 173.542L284.204 157.444L284.399 157.101L284.567 156.849L284.718 156.661L284.873 156.533L285.041 156.472L285.226 156.439L285.474 156.422L295.839 156.388L296.32 156.496L296.77 156.714L296.972 156.869L297.036 157.057L296.979 157.387L296.891 157.733L296.757 158.092L296.575 158.439L296.377 158.751L296.135 159.033L295.859 159.269L295.631 159.396L295.386 159.457L294.952 159.46L294.458 159.4L293.917 159.306L293.342 159.198L292.771 159.107L292.199 159.047L291.675 159.033L291.245 159.067L290.798 159.097L290.351 159.161L289.921 159.242L289.474 159.322L289.044 159.433L288.61 159.544L288.18 159.672L287.75 159.83L287.319 159.988L286.906 160.159L286.506 160.351L286.093 160.556L285.709 160.761L285.309 160.996L284.943 161.231L284.577 161.484L284.224 161.766L283.874 162.048L283.552 162.334L283.233 162.633L282.913 162.962L282.594 163.309L282.275 163.668L281.969 164.045L281.666 164.438L281.377 164.861L281.105 165.285L280.863 165.708L280.638 166.165L280.456 166.602L280.308 167.056L280.191 167.526L280.12 167.983L280.093 168.451L280.13 168.908L280.214 169.358L280.356 169.812L280.581 170.266L280.846 170.706L281.065 170.968L281.287 171.237L281.518 171.486L281.754 171.721L282.002 171.936L282.281 172.124L282.564 172.296L282.873 172.45L283.199 172.574L283.538 172.669L283.878 172.746L284.221 172.79L284.56 172.823L284.9 172.82H285.239L285.592 172.803L285.931 172.769L286.271 172.739L286.624 172.706L286.963 172.672L287.303 172.625L287.642 172.591L287.965 172.605L288.153 172.716L288.234 172.887L288.264 173.139L288.27 173.452L288.291 173.795L288.355 174.03L288.449 174.171L288.62 174.265L288.882 174.326L289.437 174.403H289.948L290.411 174.352L290.825 174.225L291.208 174.067L291.544 173.848L291.85 173.579L292.125 173.28L292.384 172.951L292.626 172.605L292.851 172.215L293.063 171.822L293.275 171.415L293.47 170.992L293.682 170.568L293.907 170.161L294.135 169.734L294.377 169.345L294.649 168.968L294.939 168.605L295.348 168.148L295.745 167.742L296.125 167.348L296.508 167.002L296.888 166.673L297.258 166.36L297.637 166.075L298.007 165.809L298.39 165.57L298.773 165.335L299.153 165.13L299.553 164.925L299.966 164.72L300.383 164.532L300.827 164.357L301.287 164.169L301.764 163.994L302.255 163.819L302.78 163.631L303.331 163.443L303.485 163.379L303.637 163.298L303.774 163.204L303.929 163.094L304.067 162.969L304.205 162.845L304.339 162.704L304.463 162.546L304.584 162.374L304.688 162.216L304.796 162.041L304.887 161.853L304.961 161.682L305.018 161.494L305.078 161.305L305.109 161.134L305.135 160.959V160.788L305.132 160.616L305.038 160.287L304.772 160.132L304.386 160.038L303.905 159.978L303.411 159.981L302.951 160.011L302.551 160.109L299.845 160.979H299.583L299.365 160.825L299.254 160.573L299.328 160.324L301.096 157.138L301.291 156.792L301.476 156.603L301.687 156.526L302.013 156.509L320.034 156.449L320.434 156.462L320.898 156.523L321.332 156.664L321.658 156.879L321.863 157.195L321.819 157.538L321.745 157.713L321.671 157.884L321.594 158.055L321.49 158.213L321.382 158.368L321.278 158.509L321.154 158.654L321.016 158.761L320.878 158.872L320.727 158.949L320.559 159.013L320.387 159.047L320.202 159.064H320.018L319.816 159.017L319.369 158.926L318.935 158.849L318.488 158.771L318.038 158.724L317.578 158.694L317.127 158.68L316.68 158.667H316.233L315.769 158.67L315.322 158.687L314.875 158.704L314.197 158.755L313.521 158.818L312.842 158.916L312.163 159.044L311.488 159.201L310.812 159.393L310.15 159.612L309.505 159.85L308.876 160.132L308.261 160.448L307.666 160.781L307.098 161.158L306.547 161.568L306.043 162.008L305.555 162.495L305.115 163.013L304.705 163.56L304.342 164.142L304.026 164.771L303.741 165.429L303.62 165.759L303.516 166.118L303.428 166.464L303.341 166.824L303.267 167.184L303.21 167.543L303.169 167.906L303.142 168.266L303.146 168.625L303.149 168.985L303.186 169.331L303.237 169.691L303.317 170.034L303.415 170.376L303.542 170.723L303.684 171.052L303.858 171.365L304.063 171.677L304.282 171.973L304.547 172.269L304.86 172.564L305.186 172.83L305.529 173.065L305.888 173.297L306.261 173.502L306.631 173.687L307.004 173.858L307.394 174.03L307.78 174.218L308.154 174.386L308.385 174.527L308.527 174.682L308.574 174.84L308.56 175.011L308.486 175.169L308.382 175.341L308.228 175.498L308.06 175.64L307.908 175.781L307.71 175.956L307.572 176.127L307.481 176.302L307.451 176.456L307.515 176.614L307.673 176.739L307.935 176.829L308.214 176.893L308.493 176.937L308.755 176.954L309.001 176.967L309.249 176.95L309.478 176.92L309.726 176.873L309.942 176.809L310.17 176.745L310.402 176.665L310.631 176.587L310.862 176.49L311.094 176.396L311.34 176.302L311.585 176.208L311.83 176.114L312.17 176.003L312.368 176.05L312.573 176.238L312.758 176.423L312.963 176.611L313.151 176.766L313.366 176.89L313.585 176.984L313.817 177.045L314.062 177.078L314.324 177.075L314.603 177.028L314.832 176.95L315.033 176.806L315.289 176.43L315.376 176.006L315.42 175.552L315.49 175.115L315.685 174.739L316.038 174.47L316.22 174.359L316.421 174.252L316.62 174.154L316.804 174.047L317.003 173.936L317.188 173.808L317.369 173.697L317.541 173.556L317.705 173.432L317.877 173.29L318.028 173.149L318.166 172.991L318.3 172.82L318.424 172.645L318.529 172.457L318.619 172.269L318.693 172.05L318.767 171.828L318.811 171.597L318.838 171.344L318.835 171.049L318.801 170.86L318.707 170.766L318.522 170.719H318.23L317.399 170.847L316.583 171.069L315.769 171.277L315.353 171.341L314.922 171.422L314.506 171.486L314.089 171.533L313.672 171.597L313.259 171.63L312.855 171.664L312.455 171.68H312.056L311.652 171.65L311.252 171.62L310.866 171.559L310.479 171.482L310.106 171.375L309.733 171.233L309.364 171.079L308.99 170.894L308.631 170.659L308.291 170.41L307.932 170.111L307.807 169.973L307.683 169.832L307.572 169.691L307.478 169.536L307.384 169.378L307.303 169.207L307.239 169.036L307.192 168.864L307.142 168.676L307.108 168.501L307.092 168.316L307.075 168.128L307.071 167.94L307.068 167.752L307.082 167.563L307.112 167.375L307.139 167.204L307.169 167.012L307.229 166.841L307.273 166.669L307.528 166.041L307.844 165.476L308.194 164.959L308.604 164.488L309.061 164.065L309.552 163.685L310.073 163.356L310.624 163.056L311.205 162.804L311.807 162.582L312.435 162.391L313.067 162.233L313.713 162.109L314.361 162.011L315.006 161.947L315.655 161.914L316.304 161.894H316.919L317.537 161.907L318.125 161.951L318.357 161.981L318.603 162.028L318.882 162.088L319.161 162.166L319.47 162.243L319.765 162.337L320.088 162.431L320.397 162.505L320.723 162.586L321.049 162.66L321.359 162.724L321.668 162.754L321.96 162.784L322.252 162.781L322.515 162.751L322.76 162.687L322.992 162.593L323.207 162.468L323.388 162.277L323.54 162.058L325.926 157.807L326.185 157.366L326.38 157.054L326.565 156.849L326.733 156.738L326.917 156.691L327.149 156.674L329.599 156.667L329.942 156.711L330.161 156.977L330.178 157.024L330.288 157.259L330.275 157.494L330.11 157.823L321.671 173.371L321.506 173.717L321.476 173.936L321.59 174.184H321.604L321.745 174.403L321.933 174.497L322.226 174.51L324.199 174.507L324.447 174.504L324.645 174.49L324.817 174.44L324.968 174.363L325.106 174.268L325.23 174.127L325.365 173.939L325.516 173.687L325.697 173.388L334.439 157.494L334.547 157.306L334.698 157.151L334.852 157.024L335.021 156.899L335.202 156.805L335.387 156.741L335.589 156.694L335.804 156.644L336.002 156.63H336.22L336.436 156.644L336.637 156.657L336.839 156.687L337.054 156.768L337.225 156.923L337.35 157.124L337.417 157.36L337.42 157.595L337.39 157.847L337.303 158.065L328.863 173.519L328.742 173.831L328.887 174.161L328.951 174.285L329.105 174.504L329.294 174.598L329.633 174.611L331.112 174.608H331.438L331.7 174.591L331.898 174.541L332.07 174.48L332.221 174.386L332.342 174.242L332.463 174.057L332.601 173.821L341.763 157.094L341.87 156.923L341.978 156.798L342.112 156.687L342.297 156.624L342.529 156.577L342.838 156.543H343.221L343.732 156.54L362.987 156.634L363.296 156.664L363.545 156.755L363.746 156.913L363.874 157.131L363.908 157.414L363.881 157.649L363.837 157.897L363.776 158.119L363.689 158.355L363.598 158.573L363.477 158.791L363.356 158.997L363.219 159.185L363.067 159.373L362.899 159.544L362.731 159.702L362.533 159.86L362.348 159.985L362.15 160.112L361.935 160.223L361.72 160.301L361.504 160.381L361.273 160.428L361.044 160.462H360.812L347.234 160.506L346.68 160.539L346.125 160.59L345.587 160.684L345.049 160.811L344.508 160.969L343.988 161.174L343.483 161.396L342.976 161.648L342.502 161.931L342.025 162.246L341.568 162.576L341.141 162.939L340.727 163.315L340.331 163.725L339.968 164.149L339.632 164.589L339.312 165.043L339.044 165.53L338.785 166.014L338.56 166.518L338.425 166.895L338.308 167.271L338.22 167.661L338.146 168.071L338.089 168.478L338.049 168.901L338.052 169.308L338.059 169.714L338.109 170.138L338.176 170.544L338.257 170.934L338.388 171.328L338.529 171.701L338.718 172.06L338.923 172.39L339.158 172.716L339.427 173.028L339.736 173.294L340.065 173.559L340.438 173.778L340.949 174.026L341.477 174.245L342.018 174.416L342.589 174.554L343.178 174.645L343.766 174.705L344.354 174.736L344.952 174.732L345.54 174.668L346.125 174.588L346.71 174.446L347.278 174.289L347.832 174.067L348.353 173.815L348.857 173.529L349.331 173.186L349.775 172.806L350.188 172.4L350.551 171.926L350.884 171.425L351.005 171.207L351.143 170.968L351.294 170.719L351.428 170.467L351.563 170.202L351.701 169.919L351.835 169.637L351.956 169.355L352.06 169.072L352.148 168.773L352.222 168.478L352.282 168.179L352.309 167.896L352.319 167.6L352.302 167.318L352.235 167.036L352.154 166.753L352.027 166.488L351.872 166.239L351.667 165.987L351.543 165.893L351.405 165.802L351.247 165.725L351.062 165.648L350.86 165.584L350.645 165.537L350.427 165.507L350.195 165.476L349.963 165.463L349.748 165.48L349.52 165.493L349.301 165.527L349.103 165.591L348.918 165.654L348.75 165.749L348.595 165.856L348.474 165.984L348.384 166.125L348.323 166.296L348.296 166.485L348.303 167.019L348.323 167.52L348.33 168.004L348.273 168.504L348.125 169.039L347.973 169.368L347.809 169.664L347.627 169.963L347.416 170.232L347.17 170.484L346.928 170.702L346.666 170.891L346.39 171.079L346.098 171.223L345.792 171.334L345.486 171.428L345.177 171.492L344.855 171.523L344.545 171.509L344.219 171.479L343.91 171.402L343.601 171.294L343.305 171.136L343.009 170.951L342.731 170.716L342.572 170.561L342.431 170.39L342.324 170.219L342.213 170.03L342.132 169.825L342.085 169.637L342.035 169.419L342.001 169.217L341.984 168.995L341.998 168.793L342.011 168.575L342.038 168.353L342.065 168.135L342.125 167.93L342.183 167.711L342.26 167.506L342.334 167.305L342.425 167.116L342.515 166.928L342.62 166.753L342.848 166.411L343.09 166.095L343.349 165.812L343.608 165.53L343.9 165.278L344.206 165.06L344.512 164.838L344.831 164.649L345.171 164.475L345.507 164.317L345.86 164.192L346.216 164.065L346.582 163.971L346.952 163.873L347.322 163.796L347.708 163.745L348.091 163.698L348.478 163.665L348.864 163.648H349.247L358.876 163.614H359.075L359.263 163.645L359.448 163.692L359.619 163.756L359.757 163.846L359.898 163.94L359.992 164.065L360.069 164.206L360.103 164.364L360.106 164.535L360.063 164.724L359.972 164.928L355.549 173.243L355.462 173.445L355.401 173.663L355.388 173.868L355.421 174.073L355.485 174.245L355.609 174.399L355.781 174.524L355.999 174.605L356.167 174.635L356.339 174.665L356.524 174.678L356.725 174.695H356.91L357.125 174.692L357.327 174.678L357.525 174.645L357.727 174.611L357.925 174.564L358.127 174.5L358.312 174.44L358.48 174.359L358.648 174.265L358.802 174.154L358.94 174.03L359.044 173.889L359.152 173.731L368.102 157.353L368.287 157.071L368.438 156.882L368.606 156.772L368.835 156.725L369.161 156.704L381.996 156.664L382.228 156.741L382.48 156.973L382.587 157.225L382.564 157.602L382.473 157.961L382.339 158.274L382.174 158.543L381.976 158.761L381.761 158.936L381.515 159.077L381.24 159.188L380.964 159.252L380.655 159.299L380.332 159.329L380.006 159.333L379.684 159.316L379.344 159.302L379.005 159.272L378.665 159.242L378.322 159.195L378 159.168L377.691 159.151L377.381 159.138H377.089L376.565 159.171L376.01 159.235L375.439 159.316L374.854 159.427L374.239 159.554L373.624 159.699L372.992 159.874L372.363 160.062L371.732 160.284L371.12 160.519L370.505 160.774L369.924 161.057L369.339 161.342L368.788 161.672L368.267 162.001L367.779 162.364L367.319 162.741L366.909 163.134L366.542 163.544L366.223 163.984L365.938 164.438L365.648 164.925L365.376 165.426L365.104 165.943L364.882 166.495L364.657 167.042L364.479 167.59L364.331 168.138L364.23 168.703L364.173 169.234L364.163 169.768L364.217 170.282L364.331 170.787L364.523 171.254L364.775 171.691L365.117 172.097L365.541 172.474L366.038 172.8L366.643 173.079L367.339 173.314L367.678 173.388L368.004 173.452L368.331 173.495L368.636 173.526H369.224L369.517 173.509L369.809 173.492L370.088 173.458L370.381 173.411L370.656 173.364L370.935 173.314L371.211 173.267L371.503 173.203L371.796 173.156L372.075 173.109L372.38 173.058L372.673 173.028L372.982 172.995L373.305 172.978L373.584 172.995L373.755 173.072L373.832 173.29L373.869 173.667L373.889 173.979L373.953 174.181L374.061 174.322L374.266 174.416L374.558 174.494L374.743 174.541L374.928 174.571L375.146 174.584L375.361 174.618L375.577 174.615H376.04L376.272 174.598L376.504 174.551L376.733 174.517L376.934 174.453L377.149 174.376L377.334 174.282L377.502 174.171L377.654 174.047L377.775 173.905L378.245 173.196L378.668 172.43L379.045 171.644L379.452 170.891L379.633 170.578L379.831 170.279L380.043 169.98L380.255 169.698L380.5 169.398L380.725 169.133L380.984 168.851L381.243 168.599L381.505 168.333L381.781 168.081L382.053 167.842L382.342 167.594L382.634 167.372L382.924 167.137L383.229 166.915L383.522 166.713L383.828 166.508L384.133 166.303L384.439 166.115L384.745 165.923L385.098 165.718L385.481 165.53L385.864 165.359L386.281 165.201L386.694 165.043L387.111 164.898L387.525 164.74L387.938 164.599L388.355 164.441L388.751 164.283L389.134 164.108L389.504 163.937L389.857 163.745L390.193 163.54L390.485 163.322L390.758 163.07L390.986 162.804L391.185 162.505L391.336 162.193L391.44 161.83L391.48 161.47L391.43 161.218L391.259 161.05L390.932 160.892L390.687 160.831L390.391 160.784L390.069 160.771H389.699L389.329 160.805L388.943 160.838L388.556 160.902L388.173 160.966L387.817 161.03L387.498 161.124L387.205 161.201L386.973 161.282L385.132 162.041L384.9 162.055L384.698 161.9L384.57 161.682L384.614 161.463L386.775 157.588L386.957 157.336L387.232 157.084L387.538 156.849L387.861 156.691L388.166 156.627L403.717 156.573L403.919 156.604L404.104 156.651L404.259 156.731L404.4 156.839L404.51 156.98L404.605 157.134L404.685 157.306L404.732 157.481L404.779 157.666L404.813 157.871L404.83 158.059L404.85 158.264V158.435L404.853 158.623L404.857 158.778L404.843 159.077L404.8 159.376L404.759 159.655L404.699 159.938L404.611 160.22L404.521 160.489L404.416 160.754L404.295 161.02L404.161 161.272L404.023 161.52L403.872 161.773L403.707 162.008L403.539 162.23L403.341 162.448L403.159 162.667L402.961 162.872L402.746 163.077L402.534 163.265L402.302 163.44L402.074 163.611L401.768 163.816L401.449 164.021L401.126 164.209L400.803 164.367L400.467 164.525L400.145 164.649L399.805 164.777L399.452 164.875L399.113 164.969L398.76 165.033L398.421 165.096L398.068 165.13L397.711 165.144L397.355 165.147H396.986L396.629 165.117L396.276 165.073L395.903 165.009L395.55 164.918L395.177 164.824L394.757 164.67L394.341 164.451L393.904 164.219L393.487 163.984L393.05 163.769L392.633 163.598L392.2 163.52L391.907 163.503L391.706 163.537L391.615 163.631L391.571 163.803L391.588 164.085L391.689 164.586L391.864 165.133L392.089 165.681L392.324 166.196L392.546 166.666L392.784 167.18L393.036 167.681L393.289 168.182L393.574 168.683L393.857 169.183L394.156 169.667L394.472 170.138L394.801 170.605L395.144 171.042L395.503 171.479L395.88 171.886L396.286 172.259L396.707 172.618L397.143 172.961L397.594 173.257L398.074 173.539L398.585 173.771L399.1 173.973L399.654 174.127L400.229 174.252L400.585 174.295L400.938 174.359L401.311 174.403L401.664 174.45L402.003 174.48L402.36 174.51H402.699L403.038 174.507L403.361 174.477L403.67 174.426L403.98 174.349L404.285 174.255L404.561 174.127L404.837 173.986L405.099 173.798L405.341 173.576L405.556 173.31L405.767 173.028L405.966 172.682L406.13 172.306L406.235 171.912L406.198 171.647L405.996 171.445L405.623 171.304L405.378 171.257L405.099 171.244L404.789 171.23L404.433 171.247L404.08 171.264L403.694 171.281L403.294 171.297L402.877 171.314H402.46L402.044 171.301L401.61 171.27L401.193 171.227L400.777 171.133L400.39 171.025L400.004 170.87L399.631 170.666L399.301 170.417L398.992 170.138L398.71 169.778L398.458 169.372L398.296 168.918L398.323 168.605L398.538 168.336L398.874 168.195L399.399 168.084L399.906 167.987L400.414 167.876L400.904 167.765L401.398 167.624L401.889 167.466L402.38 167.274L402.857 167.053L403.163 166.881L403.485 166.659L403.821 166.441L404.158 166.236L404.494 166.048L404.85 165.903L405.203 165.826H405.542L410.997 166.589L411.276 166.632L411.461 166.696L411.585 166.774L411.619 166.884L411.589 167.056L411.484 167.291L411.32 167.59L408.023 173.287L407.888 173.583L407.875 173.788L407.972 174.02L408.003 174.067L408.157 174.289L408.406 174.379L408.87 174.396L410.597 174.389L410.876 174.356L411.152 174.262L411.414 174.134L411.656 173.963L411.871 173.774L412.069 173.553L412.251 173.317L412.385 173.082L421.402 156.893L421.755 156.56L422.182 156.341L422.397 156.278L422.599 156.23L422.797 156.197L423.012 156.15L423.214 156.103L423.412 156.056L423.597 155.992L423.782 155.911L423.95 155.817L424.105 155.706L424.242 155.565L424.363 155.394L424.468 155.192L424.558 154.953L424.615 154.658L424.552 154.469L424.35 154.281L423.916 154.11L423.406 154.019L422.942 154.006L374.32 154.56H373.641L372.928 154.547L372.219 154.503L371.51 154.429L370.814 154.321L370.549 154.244L370.411 154.133L370.36 153.945L370.374 153.632L370.518 152.96L370.666 152.315L370.686 151.626L370.639 151.408L370.589 151.203L370.512 151.018L370.418 150.829L370.307 150.641L370.179 150.487L370.055 150.312L369.9 150.174L369.742 150.033L369.571 149.892L369.399 149.784L369.214 149.673L369.013 149.566L368.828 149.488L368.623 149.411L368.408 149.347L368.206 149.3L368.004 149.27L367.789 149.24L367.588 149.243L345.863 149.095ZM239.981 172.454L239.719 172.457L239.457 172.41L239.208 172.346L238.959 172.255L238.744 172.144L238.526 172.003L238.324 171.832L238.136 171.63L237.978 171.412L237.884 171.163L237.833 170.77L237.874 170.44L237.978 170.175L238.163 169.94L238.408 169.765L238.684 169.624L239.006 169.543L239.346 169.496H239.699L240.055 169.526L240.411 169.603L240.734 169.728L241.047 169.882L241.312 170.071L241.53 170.289L241.672 170.555L241.766 170.837L241.772 171.15L241.685 171.492L241.487 171.869L241.366 172.027L241.181 172.154L240.72 172.326L240.243 172.437L239.981 172.454ZM378.978 162.404L379.321 162.482L379.526 162.777L379.569 162.858L379.667 163.107L379.623 163.342L379.458 163.671L376.813 168.239L376.676 168.41L376.464 168.599L376.172 168.787L375.802 168.978L375.405 169.183L374.945 169.372L374.437 169.56L373.916 169.734L373.375 169.893L372.824 170.02L372.269 170.131L371.715 170.198L371.174 170.245H370.666L370.186 170.219L369.752 170.124L369.366 169.987L369.04 169.798L368.774 169.533L368.586 169.22L368.425 168.625L368.388 168.061L368.458 167.5L368.636 166.948L368.922 166.431L369.285 165.93L369.729 165.443L370.233 164.986L370.781 164.562L371.392 164.152L372.038 163.789L372.696 163.46L373.372 163.161L374.047 162.892L374.723 162.67L375.385 162.495L376.017 162.367L376.602 162.287L377.143 162.253L377.62 162.27L378.978 162.404ZM288.835 162.677L289.02 162.613L289.218 162.549L289.433 162.468L289.679 162.404L289.941 162.357L290.22 162.294L290.495 162.246L290.788 162.199L291.063 162.152L291.359 162.119L291.652 162.102L291.927 162.085L292.206 162.068L292.451 162.085L292.7 162.099L292.915 162.129L293.117 162.176L293.288 162.236L293.426 162.3L293.722 162.549L293.819 162.909L293.762 163.349L293.614 163.786L293.419 164.209L293.194 164.633L292.966 165.026L292.74 165.419L292.546 165.796L292.334 166.172L292.122 166.548L291.91 166.908L291.665 167.271L291.423 167.631L291.151 167.96L290.862 168.276L290.556 168.558L290.358 168.699L290.142 168.841L289.914 168.982L289.669 169.093L289.406 169.22L289.131 169.314L288.838 169.409L288.546 169.489L288.254 169.553L287.944 169.617L287.639 169.664L287.329 169.698L287.037 169.728H286.728L286.435 169.731L286.157 169.714L285.877 169.684L285.615 169.64L285.367 169.577L285.138 169.499L284.779 169.328L284.513 169.143L284.298 168.925L284.17 168.672L284.073 168.407L284.056 168.125L284.083 167.829L284.14 167.53L284.244 167.217L284.379 166.901L284.547 166.589L284.728 166.276L284.923 165.96L285.138 165.678L285.35 165.396L285.562 165.13L285.773 164.878L285.972 164.66L286.157 164.455L286.308 164.297L286.721 163.92L287.195 163.574L287.699 163.275L288.207 162.989L288.697 162.737L288.835 162.677ZM416.304 156.362L416.583 156.422L416.832 156.624L416.959 156.889L416.98 157.235L416.936 157.407L416.862 157.629L416.754 157.894L416.62 158.19L416.455 158.536L416.274 158.896L416.079 159.289L415.867 159.682L415.638 160.075L415.413 160.465L415.188 160.858L414.96 161.218L414.731 161.564L414.519 161.877L414.338 162.146L414.156 162.364L414.019 162.539L413.898 162.65L413.699 162.774L413.454 162.885L413.162 162.979L412.822 163.073L412.469 163.154L412.1 163.235L411.73 163.298L411.373 163.329L411.021 163.362H410.711L410.436 163.366L410.217 163.319L408.345 162.885L408.16 162.825L408.066 162.683L408.046 162.448L408.087 162.025L408.698 157.528L408.755 157.185L408.812 156.916L408.873 156.714L408.964 156.573L409.071 156.479L409.209 156.415L409.407 156.382H409.639L416.304 156.362ZM344.182 154.392L343.967 154.332L343.779 154.096L343.746 153.848L343.88 153.488L344.031 153.249L344.199 153.031L344.397 152.829L344.609 152.668L344.858 152.527L345.1 152.402L345.362 152.292L345.641 152.211L345.93 152.147L346.226 152.086L346.518 152.053L346.824 152.019L347.12 152.002H347.426L347.718 151.986L348.027 151.999H348.582L348.861 152.013H349.109L365.154 152.13L365.373 152.16L365.575 152.254L365.746 152.396L365.9 152.584L365.995 152.786L366.062 153.004L366.095 153.222L366.052 153.444L365.931 153.71L365.749 153.945L365.504 154.15L365.228 154.278L364.936 154.325L344.182 154.392ZM333.817 152.99L334.096 152.974L334.372 152.94L334.634 152.903L334.896 152.839L335.158 152.759L335.421 152.665L335.666 152.554L335.911 152.426L336.157 152.298L336.368 152.144L336.583 151.986L336.798 151.797L336.993 151.613L337.178 151.424L337.346 151.206L337.511 150.987L337.649 150.752L337.783 150.507L337.904 150.258L337.995 150.009L338.082 149.623L338.032 149.344L337.83 149.132L337.474 148.981L337.148 148.907L336.852 148.867L336.59 148.84L336.345 148.857L336.113 148.89L335.898 148.954L335.7 149.035L335.498 149.129L335.316 149.24L335.148 149.364L334.98 149.492L334.812 149.63L334.644 149.771L334.476 149.929L334.308 150.083L334.123 150.225L333.942 150.369L333.74 150.51L333.528 150.635L333.296 150.762L332.853 150.903L332.406 150.971L331.925 150.977L331.465 150.954L331.001 150.914L330.537 150.903L330.289 150.873L330.134 150.769L330.01 150.537L329.878 150.124L329.781 149.724L329.64 149.371L329.327 149.129L329.048 149.021L328.739 148.951L328.413 148.907L328.09 148.897L327.764 148.914L327.442 148.964L327.136 149.045L326.86 149.173L326.46 149.472L326.188 149.875L326.04 150.201L325.902 150.527L325.798 150.853L325.728 151.179L325.714 151.518L325.781 151.888L325.892 152.194L326.081 152.439L326.346 152.621L326.827 152.829L327.385 152.994L327.892 153.064L333.817 152.99Z" fill="black"/>
<path d="M61.5854 179.633L61.0141 179.639L60.4729 179.633L59.9957 179.636L59.5621 179.643L59.1621 179.646L58.8227 179.666L58.5001 179.686L58.2211 179.707L57.9758 179.724L57.7606 179.74L57.5758 179.774L57.4045 179.807L57.2531 179.855L57.1288 179.905L57.0213 179.965L56.9305 180.012L56.8532 180.093L56.7794 180.171L56.7188 180.248L56.6549 180.342L55.4618 182.207L55.3845 182.456L55.4517 182.701L55.6232 182.886L55.8685 182.943L139.888 182.967L140.197 182.947L140.412 182.836L140.61 182.617L140.849 182.227L150.955 164.361L151.046 164.099L151.026 163.883L150.901 163.712L150.73 163.591L150.498 163.504L150.249 163.443L150.017 163.43L125.822 163.416L125.422 163.423L125.13 163.473L124.945 163.568L124.794 163.722L124.642 163.988L122.444 168.458L121.947 169.392L121.372 170.306L120.751 171.193L120.065 172.067L119.319 172.881L118.526 173.677L117.702 174.427L116.832 175.146L115.914 175.804L114.98 176.433L114.002 177.018L113.004 177.539L111.975 178.013L110.947 178.429L109.888 178.796L108.826 179.102L107.751 179.33L106.685 179.515L105.606 179.619L104.544 179.649L61.5854 179.633ZM172.815 180.247L171.692 180.231L170.556 180.184L169.42 180.12L168.281 180.086L167.162 180.069L166.026 180.086L164.873 180.1L163.72 180.113L162.584 180.126H161.431L160.282 180.14L159.129 180.137H157.993L156.84 180.12L155.688 180.103L154.552 180.086L153.399 180.056L153.14 180.042L152.848 180.029L152.525 180.002L152.186 179.992L151.816 179.965L151.449 179.955L151.063 179.945L150.68 179.932L150.297 179.938L149.914 179.942L149.53 179.962L149.161 179.999L148.791 180.036L148.455 180.1L148.132 180.18L147.826 180.278L147.568 180.405L147.326 180.547L147.127 180.718L146.959 180.92L146.855 181.108L146.781 181.309L146.768 181.508L146.785 181.679L146.848 181.847L146.959 181.985L147.097 182.076L147.299 182.15L147.527 182.18L409.718 182.045L410.054 181.995L410.346 181.837L410.605 181.632L410.83 181.383L410.965 181.168V180.95L410.824 180.644L410.649 180.321L410.477 180.14L410.262 180.066L409.94 180.052L407.775 180.079L405.607 180.09L403.443 180.103L401.279 180.096L399.111 180.093L396.946 180.09L394.782 180.086L392.618 180.066L390.45 180.046L388.285 180.026L386.118 180.005L383.953 179.985L381.785 179.965L379.621 179.945L377.47 179.925L375.306 179.908L373.155 179.901L370.99 179.881L368.839 179.878L366.688 179.888L172.815 180.247ZM77.4602 145.308L77.2754 145.312L77.0906 145.342L76.9058 145.392L76.7074 145.47L76.5226 145.55L76.3378 145.644L76.1395 145.755L75.9714 145.883L75.7865 146.024L75.6185 146.179L75.4672 146.337L75.316 146.508L75.195 146.679L75.0707 146.848L74.9664 147.036L74.8757 147.221L74.8152 147.422L74.7581 147.611L74.7446 147.809L74.7311 147.994L74.7951 148.303L75.0303 148.377L75.4 148.464L75.7731 148.521L118.729 148.646L119.179 148.656L119.609 148.696L120.06 148.77L120.523 148.871L120.97 149.005L121.407 149.153L121.854 149.331L122.291 149.526L122.708 149.755L123.115 150.013L123.505 150.286L123.878 150.571L124.237 150.877L124.58 151.213L124.876 151.563L125.158 151.916L125.41 152.312L125.632 152.712L125.82 153.126L125.965 153.542L126.771 156.278L126.852 156.54L126.976 156.692L127.161 156.752L127.47 156.779L154.381 156.897L154.677 156.893L154.906 156.86L155.09 156.779L155.242 156.641L155.396 156.436L155.578 156.144L165.728 138.287L165.832 137.995L165.798 137.733L165.627 137.581L165.254 137.447L164.635 137.329L164.02 137.292L140.07 137.323L139.795 137.34L139.593 137.45L139.334 137.686L135.937 141.305L135.322 141.81L134.639 142.263L134.303 142.529L133.95 142.781L133.584 143.003L133.201 143.224L132.801 143.426L132.401 143.618L131.987 143.809L131.574 143.997L131.144 144.159L130.697 144.333L130.267 144.478L129.823 144.623L129.376 144.75L128.916 144.865L128.469 144.979L128.005 145.076L127.561 145.16L127.114 145.224L126.667 145.278L126.22 145.315L125.787 145.335L125.356 145.339L77.4602 145.308ZM98.2709 110.799L97.9785 110.802L97.5282 110.822L96.9904 110.846L96.4191 110.9L95.9115 110.98L95.5115 111.095L95.3134 111.236L94.1337 113.195L93.922 113.598L93.8783 113.861L93.9757 114.106L94.1 114.291L94.2883 114.382L94.5974 114.425L95.105 114.432L131.89 114.492L132.169 114.489L132.465 114.503L132.74 114.513L133.033 114.526L133.329 114.536L133.621 114.563L133.9 114.59L134.209 114.634L134.501 114.66L134.794 114.704L135.073 114.761L135.369 114.822L135.661 114.879L135.94 114.953L136.232 115.027L136.515 115.101L136.79 115.188L137.056 115.292L137.318 115.4L137.583 115.504L138.172 115.79L138.733 116.136L139.277 116.532L139.805 116.956L140.292 117.43L140.759 117.934L141.183 118.468L141.59 119.05L141.953 119.648L142.285 120.26L142.584 120.888L142.84 121.55L143.048 122.209L143.226 122.888L143.361 123.564L143.445 124.242L143.485 124.935L143.462 125.6L143.408 126.266L143.294 126.928L142.591 130.161L142.547 130.44L142.611 130.608L142.813 130.685L143.199 130.695L169.125 130.934L169.435 130.931L169.663 130.88L169.848 130.769L170.016 130.581L170.198 130.289L180.532 112.402L180.653 112.167L180.714 111.921L180.71 111.689L180.643 111.474L180.489 111.323L180.24 111.232L179.097 111.152L177.924 111.121L176.782 111.105L98.2709 110.799Z" fill="#00AEEF"/>
</svg>
