<svg width="480" height="320" viewBox="0 0 480 320" fill="none" xmlns="http://www.w3.org/2000/svg">
<path fill-rule="evenodd" clip-rule="evenodd" d="M268.393 134.33L271.791 133.581L276.159 133.113L281.741 133.581C283.44 133.675 284.652 134.33 285.38 135.08C285.866 135.735 286.351 136.486 286.594 137.609V140.606L285.139 149.507C284.652 150.538 284.652 151.38 284.652 151.849L285.139 153.817H277.372L276.887 152.786V151.38C275.673 152.411 274.459 153.068 273.247 153.535C272.033 154.004 270.577 154.285 268.393 154.285C265.723 154.285 264.025 153.723 262.813 152.599C261.598 151.475 261.114 150.257 261.598 148.571C262.083 146.978 262.326 145.76 263.54 144.823C264.754 143.699 266.937 142.95 269.363 142.481L275.673 141.169L278.586 140.419C279.07 139.296 279.07 138.734 278.586 138.359C278.101 137.89 277.372 137.797 276.644 137.797C275.432 137.797 274.218 137.89 273.247 138.359C273.004 138.734 272.033 139.296 271.791 140.139L264.025 139.296C264.511 138.077 265.239 137.141 265.966 136.392L268.393 134.33ZM259.172 141.169L256.744 153.817H248.738L250.678 142.294C251.164 141.357 251.164 140.702 250.678 140.232C250.193 139.483 249.95 139.203 248.738 139.203C247.767 139.203 247.037 139.483 246.31 140.232C245.825 140.889 245.339 142.012 245.096 143.417L242.912 153.817H234.904L236.845 142.762C237.331 141.825 237.331 141.169 236.845 140.889C236.845 140.419 236.845 139.952 236.603 139.67L234.904 139.203C234.176 139.203 233.206 139.483 232.477 140.232C231.75 140.889 231.263 142.012 230.779 143.512L228.837 153.817H220.829L224.712 133.581H232.477L231.75 136.485C232.963 135.268 234.419 134.33 235.632 133.862C236.845 133.394 238.058 133.113 239.758 133.113C241.456 133.113 242.669 133.394 243.397 134.049C244.611 134.518 245.096 135.455 245.339 136.485C247.037 135.268 248.251 134.33 249.464 133.862C250.678 133.394 251.892 133.113 253.59 133.113C255.532 133.113 257.231 133.675 258.443 135.08C259.657 136.392 259.657 138.359 259.172 141.169ZM277.858 144.354L274.218 145.292C272.519 145.76 271.305 146.041 270.821 146.509L270.091 147.914C269.606 148.571 270.091 149.039 270.578 149.507C270.821 149.789 271.305 149.976 272.033 149.976C273.247 149.976 274.218 149.788 274.945 149.32C275.673 148.851 276.644 148.383 276.887 147.914C277.372 147.259 277.372 146.509 277.858 145.385V144.354V144.354ZM289.02 153.817L292.66 133.581H300.427L299.698 136.954C300.912 135.548 302.369 134.612 303.581 134.049C304.795 133.394 306.494 133.113 308.192 133.113C310.134 133.113 311.833 133.675 313.047 135.08C314.259 136.392 314.259 138.359 313.774 141.076L311.346 153.817H303.338L305.28 142.762C305.766 141.544 305.28 140.606 304.795 139.952C304.552 139.483 304.068 139.203 303.338 139.203C302.126 139.203 301.155 139.483 300.427 140.232C299.698 141.076 299.213 142.294 298.727 144.167L297.272 153.817H289.02ZM413.756 175.005C413.505 175.371 413.188 175.708 412.785 176.019C411.571 176.958 410.359 177.425 408.417 177.425C406.476 177.425 405.262 176.958 404.049 176.206C402.835 175.364 401.865 174.429 401.621 173.022L404.777 172.274C405.262 173.022 405.505 173.49 406.476 173.957C406.719 174.429 407.69 174.616 408.902 174.616C409.145 174.616 410.116 174.429 410.359 174.144C410.844 173.864 410.844 173.396 410.844 172.741C410.844 171.993 410.116 171.335 408.417 170.68L407.69 170.399C406.476 169.932 405.262 169.273 404.777 168.712C404.049 167.87 403.563 167.118 403.563 166.183C403.563 164.776 404.05 163.654 405.262 162.718C406.476 161.966 407.69 161.499 409.145 161.499C410.359 161.499 411.571 161.779 412.785 162.621C413.133 162.838 413.459 163.055 413.756 163.276V175.005ZM413.756 165.678L412.058 166.183C412.058 165.435 411.571 164.963 411.33 164.589C410.844 164.121 410.116 164.028 409.145 164.028C408.417 164.028 407.931 164.121 407.69 164.496L407.203 165.715C407.203 166.463 407.931 167.118 409.632 167.777L410.844 168.244C412.058 168.712 412.785 169.18 413.756 169.932V165.678ZM401.865 164.308H394.584L393.856 167.87H400.409L399.923 170.399H393.372L392.644 174.335H400.651L400.409 177.145H389.004L391.915 161.779H402.349L401.865 164.308ZM388.518 161.779L386.091 177.145H383.422L378.568 165.902L376.383 177.145H373.957L376.383 161.779H379.782L384.634 171.993L386.091 161.779H388.518ZM366.435 174.335L365.948 177.145H355.757L358.183 161.779H361.824L359.397 174.335H366.435ZM367.162 177.145L370.075 161.779H373.715L370.803 177.145H367.162ZM355.514 166.183C355.514 167.309 355.029 168.057 354.543 168.805C353.815 169.647 353.088 170.119 352.117 170.399L353.815 177.145H350.66L348.961 170.867H345.807L344.593 177.145H341.682L344.108 161.779H350.175C351.874 161.779 353.088 162.153 354.3 162.905C355.03 163.654 355.514 164.776 355.514 166.183L355.514 166.183ZM351.389 164.589C350.903 164.308 350.175 164.121 349.447 164.121H347.019L346.05 168.525H348.961C349.691 168.525 350.66 168.338 350.903 167.87C351.389 167.399 351.874 166.931 351.874 166.183C351.874 165.528 351.874 165.06 351.389 164.589ZM341.196 161.779L338.527 177.145H334.886L337.556 161.779H341.196ZM329.063 164.776L326.392 170.867H330.034L329.063 164.776ZM331.489 161.779L333.915 177.145H330.762L330.275 173.396H325.423L323.481 177.145H321.055L327.849 161.779H331.489ZM305.766 170.399L304.552 177.145H301.155L303.581 161.779H306.978L306.009 167.777H311.346L312.074 161.779H315.714L313.047 177.145H309.648L310.618 170.399H305.766ZM298.486 162.621C299.698 163.373 299.941 164.121 300.427 165.247L297.515 166.183C297.271 165.435 296.787 164.963 296.301 164.589C296.059 164.121 295.087 164.028 294.359 164.028L292.66 164.496L292.419 165.715C292.419 166.463 293.147 167.118 294.845 167.777L296.059 168.244C297.272 168.712 298.486 169.18 298.727 169.932C299.213 170.68 299.698 171.522 299.698 172.461C299.698 173.864 299.213 175.083 297.999 176.019C296.787 176.958 295.573 177.425 293.631 177.425C291.933 177.425 290.234 176.958 289.02 176.206C287.808 175.364 287.565 174.429 287.078 173.022L289.991 172.274C290.234 173.022 290.719 173.49 291.448 173.957C291.933 174.429 292.66 174.616 293.874 174.616C294.359 174.616 295.087 174.429 295.573 174.144C296.059 173.864 296.301 173.396 296.301 172.741C296.301 171.993 295.573 171.335 293.631 170.68L292.66 170.399C291.448 169.932 290.234 169.273 289.991 168.712C289.506 167.87 289.02 167.118 289.02 166.183C289.02 164.776 289.507 163.654 290.234 162.718C291.448 161.966 292.66 161.499 294.359 161.499C295.573 161.499 297.272 161.779 298.486 162.621ZM287.078 164.308H279.8L279.07 167.87H285.38L285.139 170.399H278.586L278.101 174.335H285.866L285.38 177.145H274.218L276.887 161.779H287.565L287.078 164.308H287.078ZM273.247 168.712C273.247 170.119 273.004 171.522 272.519 172.741C272.033 173.957 271.305 174.896 270.091 175.738C269.606 176.206 268.879 176.677 268.151 176.77L265.723 177.145H259.172L261.598 161.779H266.451L268.393 161.966L270.091 162.434C271.305 162.905 272.033 163.654 272.519 164.776C273.004 165.902 273.247 167.118 273.247 168.712ZM266.451 164.589H264.754L262.812 174.335H265.239C266.451 174.335 267.665 173.864 268.393 172.928C269.363 171.806 269.607 170.399 269.607 168.712C269.607 167.309 269.363 166.37 268.879 165.528C268.393 164.963 267.665 164.589 266.451 164.589ZM245.339 176.206L252.376 161.779H256.016L258.443 177.145H255.045L254.804 173.396H249.464L247.767 177.145H235.39L238.058 161.779H241.456L239.272 174.335H245.825L245.339 176.206ZM253.59 164.776L250.677 170.867H254.318L253.59 164.776ZM181.03 125.898H198.017C200.93 125.898 202.871 126.554 204.085 127.96C205.298 129.365 206.269 130.864 205.783 132.925C205.298 134.612 204.57 136.017 203.356 137.141C202.143 137.89 200.93 138.546 199.716 139.014C201.657 139.483 202.871 140.232 203.842 141.544C204.57 142.574 205.055 144.167 204.57 145.854C204.085 147.26 203.842 148.664 202.628 149.788C201.657 150.912 200.444 151.849 199.23 152.599C198.503 153.068 197.29 153.348 195.591 153.535L191.708 153.817H175.933L181.03 125.899V125.898ZM212.578 125.898H220.829L219.858 131.238H211.849L212.578 125.899L212.578 125.898ZM189.281 131.52L188.311 136.86H192.435C193.649 136.86 194.862 136.673 195.348 136.205C196.076 135.735 196.561 134.986 196.561 134.143C196.804 133.394 196.561 132.737 196.076 132.269C195.591 131.802 194.377 131.52 193.164 131.52H189.281L189.281 131.52ZM186.369 147.914H190.737C192.435 147.914 193.649 147.633 194.377 146.978C194.862 146.509 195.348 145.854 195.591 144.916C196.076 144.167 195.591 143.417 195.348 142.949C194.862 142.481 193.649 142.106 191.951 142.106H187.097L186.369 147.914ZM211.364 133.581H219.616L215.49 153.817H207.482L211.364 133.581H211.364ZM232.477 162.718C233.69 163.56 234.176 164.776 234.419 166.183L231.75 166.837C231.263 165.996 230.779 165.435 230.536 164.963C230.05 164.496 229.322 164.121 228.353 164.121L227.138 164.589L225.925 165.902C225.682 166.464 225.197 167.309 225.197 168.244L224.712 171.054C224.712 172.086 225.198 173.022 225.682 173.676C225.925 174.429 226.411 174.803 227.624 174.803C228.353 174.803 229.322 174.429 229.565 173.864C230.05 173.396 230.536 172.461 230.536 171.335H227.624L228.109 168.992H234.176L232.963 177.145H231.263L230.779 175.364C230.536 176.019 230.05 176.486 229.322 176.771C228.353 177.238 227.624 177.425 226.896 177.425C225.198 177.425 223.984 176.771 222.77 175.551C221.557 174.335 221.072 172.741 221.072 170.68L222.042 166.837C222.285 165.528 222.77 164.496 223.984 163.56L225.925 162.153C226.896 161.686 227.624 161.499 228.837 161.499C230.05 161.499 231.263 161.966 232.477 162.718V162.718ZM220.343 161.779L217.431 177.145H215.004L209.909 165.902L207.725 177.145H205.298L208.209 161.779H211.364L215.975 171.993L217.431 161.779H220.343ZM199.716 164.776L196.804 170.867H200.444L199.716 164.776ZM191.222 162.718C191.951 163.373 192.435 164.308 192.435 165.528C192.435 166.463 191.951 167.309 191.707 167.87C190.737 168.525 190.009 168.993 189.281 169.18C190.009 169.46 190.494 169.932 190.737 170.586C191.222 171.148 191.708 171.993 191.708 172.741C191.708 174.144 191.222 175.27 190.494 176.019C189.281 176.771 188.067 177.145 185.883 177.145H178.603L181.03 161.779H187.097C189.281 161.779 190.494 162.153 191.222 162.718ZM189.281 165.996C189.281 165.435 188.795 164.963 188.311 164.776C188.067 164.496 187.583 164.308 186.854 164.308H183.943L183.457 168.057H186.369C187.097 168.057 188.067 167.87 188.311 167.399C188.795 167.118 189.281 166.651 189.281 165.996ZM185.641 170.212H183.214L182.243 174.615H185.641C186.369 174.615 187.097 174.428 187.583 173.957C188.067 173.489 188.311 173.022 188.311 172.273C188.311 171.615 188.067 171.147 187.583 170.867C187.097 170.399 186.854 170.212 185.641 170.212ZM191.222 177.144L198.503 161.779H202.143L204.57 177.145H201.414L200.93 173.396H196.076L194.135 177.145L191.222 177.144Z" fill="#3D7357"/>
<path fill-rule="evenodd" clip-rule="evenodd" d="M80.0771 126.086C84.4453 121.495 89.7839 118.123 95.3659 115.594C101.432 113.064 107.5 111.846 114.052 111.846C120.36 111.846 126.428 113.064 132.495 115.594C138.32 118.123 143.415 121.495 148.026 126.086C152.394 130.396 155.55 135.548 157.976 141.356C160.402 147.259 161.616 153.535 161.616 160.093C161.616 166.463 160.402 172.741 157.976 178.828C155.55 184.638 152.394 189.603 148.026 194.1C143.415 198.69 138.32 202.065 132.495 204.403C126.428 206.936 120.36 208.152 114.052 208.152C107.5 208.152 101.432 206.936 95.3657 204.403C89.7839 202.065 84.4451 198.69 80.0771 194.1C75.466 189.603 72.3111 184.638 69.8849 178.828C67.4579 172.741 66.2446 166.463 66.2446 160.093C66.2446 153.535 67.4577 147.259 69.8849 141.356C72.3111 135.548 75.466 130.396 80.0771 126.086V126.086ZM125.215 158.499L130.068 163.185C131.282 164.495 133.466 164.495 135.407 163.185L146.328 155.877L143.415 153.254H158.947L135.892 169.744C132.981 171.334 131.039 171.521 129.34 170.118C127.399 168.711 126.428 167.87 126.428 168.057C124.972 165.995 122.788 165.715 120.118 167.118L105.8 177.705H80.3204L104.587 159.436L69.1564 159.624L74.0106 154.939H118.905C121.332 154.659 123.273 155.877 125.215 158.499V158.499Z" fill="#E1241A"/>
<path fill-rule="evenodd" clip-rule="evenodd" d="M125.215 158.5L130.068 163.186C131.282 164.496 133.466 164.496 135.407 163.186L146.328 155.878L143.415 153.255H158.947L135.892 169.745C132.981 171.335 131.039 171.522 129.34 170.119C127.398 168.712 126.428 167.87 126.428 168.058C124.971 165.996 122.787 165.715 120.118 167.118L105.8 177.706H80.3202L104.587 159.437L69.1562 159.625L74.0104 154.94H118.905C121.332 154.66 123.273 155.877 125.215 158.5V158.5Z" fill="white"/>
</svg>
