<svg width="480" height="320" viewBox="0 0 480 320" fill="none" xmlns="http://www.w3.org/2000/svg">
<path d="M115.219 111.544C119.993 111.544 124.305 111.854 128.148 112.489C131.956 113.093 135.216 114.24 137.851 115.865C140.52 117.508 142.56 119.781 144.009 122.671C145.423 125.577 146.13 129.29 146.13 133.805C146.13 136.474 145.752 139.07 144.945 141.615C144.151 144.142 142.948 146.406 141.413 148.42C139.847 150.416 137.984 152.064 135.811 153.414C133.633 154.746 131.115 155.596 128.282 155.949V156.208C132.797 157.442 136.277 159.831 138.726 163.337C141.18 166.838 142.4 170.909 142.4 175.524C142.4 180.686 141.387 185.218 139.39 189.134C137.398 193.032 134.694 196.275 131.33 198.845C127.962 201.433 124.099 203.395 119.76 204.714C115.396 206.047 110.808 206.711 106.012 206.711H55.3848L75.2391 111.545L115.219 111.544ZM105.085 190.431C109.906 190.431 113.831 189.15 116.905 186.588C119.937 184.014 121.468 180.189 121.468 175.126C121.468 172.625 120.972 170.68 119.937 169.257C118.932 167.851 117.638 166.764 116.021 165.988C114.417 165.237 112.649 164.777 110.713 164.599C108.733 164.431 106.832 164.337 104.96 164.337H84.4501L78.8397 190.431L105.085 190.431ZM111.118 150.08C114.935 150.08 118.234 149.032 121.041 146.944C123.835 144.857 125.224 141.722 125.224 137.552C125.224 133.822 124.241 131.269 122.235 129.88C120.239 128.53 117.552 127.823 114.184 127.823H92.0574L87.4 150.08H111.118ZM178.094 137.84L163.453 206.713H144.539L159.042 137.84L178.094 137.84ZM205.417 137.84L203.287 147.491H203.546C209.687 139.845 217.726 136.02 227.679 136.02C241.086 136.02 247.8 142.187 247.8 154.524C247.8 155.241 247.702 156.142 247.524 157.246C247.347 158.367 247.145 159.492 246.925 160.648C246.705 161.795 246.471 162.899 246.253 163.917C246.041 164.917 245.857 165.763 245.795 166.358L237.283 206.713H218.373L226.743 166.375C226.894 165.331 227.149 163.917 227.477 162.132C227.796 160.363 227.942 158.971 227.942 158.005C227.942 155.965 226.972 154.279 225.088 152.942C223.164 151.609 221.112 150.945 218.878 150.945C216.04 150.945 213.53 151.493 211.357 152.605C209.175 153.709 207.303 155.158 205.755 156.926C204.19 158.72 202.918 160.743 201.9 163.059C200.844 165.366 200.08 167.707 199.58 170.105L191.843 206.713H173.059L187.302 137.84L205.417 137.84ZM298.387 137.84L295.437 150.458H281.978L274.923 184.728L274.535 186.648L274.375 187.92C274.375 189.175 274.59 190.136 274.996 190.809L276.514 192.327L278.584 192.922L280.801 192.996C283.091 192.996 285.35 192.862 287.589 192.598L284.371 207.097C282.427 207.286 280.482 207.433 278.52 207.576C276.558 207.701 274.569 207.779 272.538 207.779C270.296 207.779 268.122 207.576 265.927 207.171C263.737 206.784 261.8 206.067 260.062 205.05C258.355 204.023 256.949 202.622 255.936 200.854C254.909 199.077 254.431 196.761 254.538 193.915C254.538 193.031 254.624 192.026 254.801 190.918C254.978 189.814 255.194 188.632 255.482 187.395L263.188 150.455H250.807L253.731 137.836H265.866L270.118 116.947H289.046L284.785 137.836L298.387 137.84ZM313.59 178.058V180.844C313.59 184.846 314.845 188.08 317.303 190.564C319.813 193.061 323.62 194.29 328.77 194.29C330.663 194.29 332.306 194.018 333.772 193.427C335.238 192.857 336.532 192.107 337.636 191.232C338.757 190.365 339.719 189.317 340.586 188.174C341.418 187.028 342.185 185.915 342.91 184.845H361.82C360.319 188.752 358.525 192.181 356.494 195.113C354.458 198.045 352.013 200.521 349.159 202.517C346.33 204.514 343 206.01 339.236 206.989C335.445 207.972 331.103 208.456 326.105 208.456C321.482 208.456 317.286 207.839 313.53 206.601C309.73 205.338 306.522 203.444 303.887 200.935C301.209 198.39 299.152 195.255 297.69 191.534C296.207 187.821 295.491 183.465 295.491 178.489C295.491 172.995 296.374 167.69 298.152 162.567C299.928 157.474 302.421 152.968 305.664 149C308.924 145.05 312.874 141.889 317.583 139.539C322.284 137.189 327.597 136.003 333.427 136.003C338.261 136.003 342.608 136.629 346.571 137.874C350.521 139.121 353.894 141.014 356.705 143.541C359.517 146.059 361.656 149.212 363.234 152.994C364.782 156.767 365.55 161.118 365.55 166.082C365.55 169.45 365.188 173.029 364.48 176.854H313.715L313.59 178.058ZM346.826 159.661C346.524 157.919 345.925 156.353 345.04 154.947C344.122 153.525 342.858 152.369 341.168 151.545C339.473 150.691 337.265 150.264 334.505 150.264C331.84 150.264 329.477 150.674 327.454 151.467C325.415 152.269 323.62 153.339 322.115 154.667C320.606 156.008 319.343 157.539 318.316 159.333C317.286 161.092 316.419 162.964 315.712 164.909H347.278C347.278 163.132 347.137 161.39 346.826 159.661M397.564 137.84L394.761 150.212L395.028 150.475C397.167 145.671 400.393 142.035 404.697 139.591C408.983 137.15 413.684 135.912 418.738 135.912C420.691 135.912 422.653 136.054 424.616 136.339L420.734 154.744C419.41 154.473 418.074 154.213 416.758 153.942C415.422 153.691 414.098 153.541 412.757 153.541C409.121 153.541 406.029 154.162 403.502 155.417C400.949 156.663 398.819 158.35 397.094 160.48C395.365 162.601 393.993 165.029 392.976 167.733C391.954 170.45 391.121 173.257 390.53 176.198L384.122 206.713H365.307L379.59 137.84H397.564ZM161.182 127.151L164.645 111.545H183.688L180.234 127.151H161.182Z" fill="#3DAF29"/>
</svg>
