<svg width="480" height="320" viewBox="0 0 480 320" fill="none" xmlns="http://www.w3.org/2000/svg">
<path d="M190.139 180.65C189.082 180.65 188.426 180.736 186.723 181.059C186.074 178.539 185.908 177.653 185.831 173.096C183.308 179.024 178.512 182.199 172.092 182.199C164.697 182.199 159.659 177.4 159.659 170.415C159.659 166.754 161.2 163.343 163.803 161.474C166.403 159.602 168.033 158.957 176.24 157.004C180.789 155.859 181.926 155.542 185.343 153.754C185.259 147.729 182.336 145.215 175.667 145.215C171.606 145.215 168.678 146.192 164.778 148.875V143.023C168.595 141.154 172.011 140.421 176.398 140.421C183.146 140.421 188.592 142.699 190.705 146.515C192.006 148.794 192.411 151.233 192.411 155.703V156.271L192.327 162.933V166.426C192.327 174.15 192.572 176.424 193.792 181.061C191.598 180.736 191.109 180.65 190.139 180.65ZM185.587 157.976C182.577 159.601 181.279 160.172 178.759 160.902L173.801 162.36C168.921 163.834 166.891 165.859 166.891 169.6C166.891 173.827 169.982 176.839 174.284 176.839C179.569 176.839 183.877 172.774 185.017 166.755C185.422 164.482 185.587 162.528 185.587 159.602V157.976ZM217.526 182.199C206.23 182.199 198.021 173.498 198.021 161.394C198.021 149.361 206.391 140.421 217.771 140.421C221.427 140.421 224.431 141.068 228.336 142.78V149.285C225.491 146.845 222.567 145.782 218.986 145.782C211.02 145.782 205.498 152.205 205.498 161.312C205.498 170.657 210.694 176.833 218.825 176.833C222.806 176.833 226.06 175.531 229.311 172.682V178.539C225.573 181.141 222.158 182.199 217.526 182.199ZM251.904 182.199C240.608 182.199 232.401 173.498 232.401 161.394C232.401 149.361 240.769 140.421 252.149 140.421C255.809 140.421 258.814 141.068 262.714 142.78V149.285C259.868 146.845 256.945 145.782 253.369 145.782C245.406 145.782 239.876 152.205 239.876 161.312C239.876 170.657 245.077 176.833 253.203 176.833C257.189 176.833 260.443 175.531 263.689 172.682V178.539C259.952 181.141 256.537 182.199 251.904 182.199ZM302.784 159.687H274.175V160.983C274.175 167.65 275.395 170.824 278.811 173.74C281.406 175.857 284.577 176.999 288.316 176.999C293.434 176.999 297.34 175.532 301.321 172.202V178.291C296.851 181.059 292.624 182.194 287.179 182.194C274.822 182.194 266.776 174.15 266.776 161.794C266.776 149.117 274.579 140.421 286.037 140.421C296.444 140.421 302.865 147.088 302.865 157.973C302.868 158.381 302.868 159.034 302.784 159.687ZM286.287 145.462C280.597 145.462 276.942 148.469 274.824 154.807H295.958C295.548 148.96 291.893 145.462 286.287 145.462ZM313.107 124.899C314.41 124.899 315.79 124.656 317.411 124.327C317.088 133.024 316.927 142.536 316.927 152.853C316.927 162.042 317.006 171.544 317.411 181.389C315.868 181.059 314.488 180.822 313.107 180.822C311.803 180.822 310.505 181.059 309.041 181.389C309.363 172.769 309.53 163.266 309.53 152.853C309.53 142.693 309.363 133.191 309.041 124.327C310.505 124.656 311.887 124.899 313.107 124.899ZM343.589 146.272C338.953 146.272 334.399 149.683 331.56 155.212C331.476 159.201 331.476 160.744 331.476 163.341C331.476 169.522 331.638 174.069 332.127 181.059C330.419 180.736 329.846 180.65 328.062 180.65C326.353 180.65 325.705 180.736 323.996 181.059C324.406 176.752 324.566 171.387 324.566 161.227C324.566 153.835 324.24 145.953 323.914 141.555C325.627 141.798 326.353 141.889 327.412 141.889C328.55 141.889 329.204 141.799 330.828 141.555C330.985 143.347 331.066 145.458 331.066 148.389V149.037C333.835 144.323 336.513 141.965 340.416 140.908C341.548 140.583 342.939 140.421 344.398 140.421C345.457 140.421 346.106 140.421 347.572 140.663V147.168C345.779 146.434 345.051 146.272 343.589 146.272ZM386.499 153.344C384.712 159.276 383.492 163.174 382.92 164.966L379.427 175.693C376.089 185.853 375.199 187.965 373.493 191.215C372.6 192.844 371.622 194.225 370.403 195.202C368.292 196.989 365.363 197.962 362.197 197.962C360 197.962 358.947 197.799 356.428 196.742V190.727C358.376 192.029 359.352 192.433 360.977 192.433C365.119 192.433 367.803 189.275 370.16 181.544C368.126 177.155 367.558 175.855 364.959 170.007C363.012 165.457 361.547 162.039 360.489 159.6L356.667 150.497L353.905 144.16L352.686 141.553C355.046 141.795 356.019 141.887 357.4 141.887C358.864 141.887 359.601 141.797 361.465 141.553C362.684 145.461 364.876 151.635 366.424 155.453L368.216 159.847L373.416 172.682L377.397 159.439L378.528 155.617L380.074 150.095C380.808 147.411 381.212 145.787 382.192 141.555C383.979 141.798 384.71 141.889 386.252 141.889C387.717 141.889 388.533 141.799 390.563 141.555C388.856 146.029 388.367 147.411 386.499 153.344ZM408.766 182.199C403.807 182.199 399.583 181.142 394.95 178.62V173.255C398.932 175.852 403.564 177.158 408.687 177.158C413.967 177.158 417.627 174.317 417.627 170.253C417.627 166.427 415.759 165.136 406.736 162.934C401.785 161.719 399.173 160.661 397.231 158.869C395.36 157.249 394.219 154.646 394.219 151.883C394.219 144.973 400.315 140.421 409.58 140.421C414.372 140.421 418.366 141.398 422.831 143.595V149.285C419.009 146.597 414.618 145.219 409.743 145.219C404.868 145.219 401.372 147.655 401.372 151.152C401.372 153.911 403.321 155.702 407.956 156.842L412.831 158.056C421.039 160.091 424.616 163.584 424.616 169.431C424.616 177.082 418.195 182.199 408.766 182.199Z" fill="black"/>
<mask id="mask0_730_18466" style="mask-type:luminance" maskUnits="userSpaceOnUse" x="55" y="111" width="98" height="98">
<path d="M106.41 180.822C104.534 185.621 101.153 189.618 96.8555 192.439C87.589 198.507 74.9342 197.83 66.693 190.319C73.9201 202.737 90.2081 207.883 103.238 201.808C109.646 198.81 115.119 193.269 117.619 186.588C119.388 181.869 119.961 174.664 113.484 173.639C113.217 173.596 112.963 173.573 112.715 173.573C109.06 173.574 107.547 177.925 106.41 180.822ZM121.06 161.736C117.926 164.61 120.586 168.845 122.251 171.724C124.837 176.194 125.889 181.35 125.399 186.472C124.373 197.485 115.952 206.936 104.927 208.704C119.142 210.796 133.343 201.265 136.695 187.297C138.363 180.426 137.422 172.682 133.763 166.572C131.892 163.441 128.618 159.996 125.125 159.996C123.777 159.997 122.406 160.507 121.06 161.736ZM71.0228 184.682C77.3847 187.86 85.1287 188.664 91.8979 186.45C96.6893 184.891 102.682 180.845 99.461 175.146C97.3453 171.437 92.6204 173.087 89.4389 174.064C84.4998 175.604 79.2641 175.489 74.3447 173.86C63.8622 170.405 56.4948 160.107 57.2259 148.965C52.0444 162.346 58.1625 178.296 71.0228 184.682ZM116.483 148.397C116.766 152.625 121.743 153.183 125.051 153.672C130.145 154.445 134.811 156.827 138.521 160.416C146.489 168.082 148.65 180.583 143.146 190.266C153.642 180.469 155.052 163.461 146.246 152.095C141.878 146.504 135.241 142.412 128.176 141.462C127.347 141.357 126.463 141.296 125.569 141.296C121.03 141.297 116.116 142.913 116.483 148.397ZM105.068 130.18C101.428 133.677 97.7822 139.91 103.184 143.637C106.682 146.059 110.239 142.518 112.67 140.263C116.447 136.737 121.2 134.588 126.358 133.911C137.31 132.449 148.406 138.567 152.579 148.913C151.446 134.597 139.015 122.888 124.631 122.712C124.501 122.712 124.367 122.708 124.241 122.708C117.283 122.708 110.132 125.346 105.068 130.18ZM64.3361 148.845C65.8192 155.765 70.0358 162.346 75.9742 166.255C80.1958 169.028 87.0819 171.201 89.5225 165.105C91.1115 161.149 86.8518 158.476 84.1096 156.614C79.8401 153.712 76.6684 149.532 74.8739 144.687C71.0278 134.326 74.5072 122.136 83.6616 115.78C69.9668 120.053 61.3145 134.807 64.3361 148.845ZM88.1945 121.264C83.6936 126.728 81.1964 134.116 81.8401 141.226C82.2832 146.244 84.9047 152.959 91.1804 151.092C95.2641 149.866 94.7139 144.866 94.4444 141.556C94.0493 136.4 95.3478 131.333 98.021 126.92C103.716 117.432 115.412 112.548 126.084 115.75C121.366 112.548 115.844 111.008 110.337 111.008C101.993 111.008 93.6678 114.554 88.1945 121.264Z" fill="white"/>
</mask>
<g mask="url(#mask0_730_18466)">
<path d="M52.0444 111.008H155.051V210.796H52.0444V111.008Z" fill="url(#paint0_radial_730_18466)"/>
</g>
<defs>
<radialGradient id="paint0_radial_730_18466" cx="0" cy="0" r="1" gradientUnits="userSpaceOnUse" gradientTransform="translate(103.967 159.993) scale(48.8052 48.8052)">
<stop stop-color="#00A1E4"/>
<stop offset="0.2344" stop-color="#009DE0"/>
<stop offset="0.4071" stop-color="#0095D6"/>
<stop offset="0.5599" stop-color="#0089C8"/>
<stop offset="0.7014" stop-color="#0078B5"/>
<stop offset="0.8349" stop-color="#00629D"/>
<stop offset="0.9608" stop-color="#004A83"/>
<stop offset="1" stop-color="#00427B"/>
</radialGradient>
</defs>
</svg>
