<svg width="480" height="320" viewBox="0 0 480 320" fill="none" xmlns="http://www.w3.org/2000/svg">
<path d="M324.773 175.752L314.523 187.78H306.459L340.423 147.938H356.482L360.719 187.78H344.728L343.43 175.752H324.773ZM342.815 169.738L341.38 156.344L329.967 169.738H342.815Z" fill="#21409A"/>
<path fill-rule="evenodd" clip-rule="evenodd" d="M177.368 147.939C177.368 147.939 185.979 147.665 183.792 155.046L181.879 161.128C179.965 166.253 176.617 166.937 171.56 166.937C176.753 166.937 179.487 168.372 178.393 172.062L175.728 180.468C173.405 186.481 169.1 187.711 160.421 187.711H125.158L138.006 147.87H177.368V147.939ZM147.095 169.397L143.746 179.784H156.935C158.302 179.784 160.079 179.033 160.557 177.597L162.334 171.993C162.744 170.695 162.197 169.397 160.284 169.397L147.095 169.397ZM152.015 153.952L149.008 163.383H162.129C164.111 163.383 165.273 162.631 165.751 161.196L167.254 156.549C167.664 155.251 167.118 153.952 165.136 153.952H152.015ZM263.748 158.394H291.698C296.413 158.394 299.284 161.196 298.053 165.16L294.636 175.752H266.481L265.388 179.169C264.909 180.877 265.661 181.834 268.053 181.834H292.655L290.741 187.848H253.634C247.962 187.848 247.757 184.226 249.26 179.306L253.497 166.116C255.137 160.991 258.486 158.394 263.748 158.394V158.394ZM268.463 169.738L269.42 166.663C269.898 165.16 270.65 164.408 272.563 164.408H279.67C281.174 164.408 281.926 165.296 281.652 166.048L280.49 169.738H268.463Z" fill="#21409A"/>
<path d="M378.829 187.78H362.769L372.132 158.394H388.191L378.829 187.78ZM392.497 158.394H408.556L407.121 162.836C408.009 161.059 410.264 158.394 414.638 158.394H424.615L422.019 166.458H412.041C408.488 166.458 405.481 167.893 404.524 170.763L399.057 187.78H382.998L392.497 158.394ZM193.701 187.78H177.642L190.353 147.938H206.48L193.701 187.78Z" fill="#21409A"/>
<path fill-rule="evenodd" clip-rule="evenodd" d="M207.436 158.394H223.496L217.482 177.187C217.004 178.622 218.029 179.783 220.216 179.783H225.136C225.136 179.783 228.69 179.92 229.715 176.845L235.66 158.394H251.72L242.357 187.779H206.685C201.354 187.779 199.441 183.2 201.218 177.87L207.436 158.394Z" fill="#21409A"/>
<path d="M56.6826 105.773C56.6826 105.773 98.3004 109.805 101.854 118.416C105.408 127.026 74.314 167.004 74.314 167.004C74.314 167.004 94.0635 136.799 88.7333 123.815C83.4028 110.762 56.6826 105.773 56.6826 105.773Z" fill="#00C0F3"/>
<path d="M124.474 139.874C122.492 135.091 112.856 131.195 101.376 128.257C100.009 131.127 98.2323 134.407 96.2505 137.688C99.8724 140.694 102.811 144.18 104.383 148.143C112.583 168.098 82.3779 214.226 82.3779 214.226C82.3779 214.226 129.941 153.064 124.474 139.874Z" fill="url(#paint0_linear_730_18489)"/>
<path d="M87.4354 125.182C70.9659 122.038 55.3848 120.535 55.3848 120.535C55.3848 120.535 73.2891 123.952 87.7769 132.016C88.0504 129.487 87.982 127.164 87.4354 125.182Z" fill="#21409A"/>
<defs>
<linearGradient id="paint0_linear_730_18489" x1="75.3344" y1="174.166" x2="128.972" y2="164.708" gradientUnits="userSpaceOnUse">
<stop stop-color="#21409A"/>
<stop offset="0.0753" stop-color="#20429B"/>
<stop offset="0.146" stop-color="#1E489E"/>
<stop offset="0.2149" stop-color="#1A53A5"/>
<stop offset="0.2826" stop-color="#1560AE"/>
<stop offset="0.3495" stop-color="#0D71BA"/>
<stop offset="0.4158" stop-color="#0088CA"/>
<stop offset="0.4803" stop-color="#00A4DF"/>
<stop offset="0.5301" stop-color="#00C0F3"/>
<stop offset="0.5653" stop-color="#00B2E9"/>
<stop offset="0.7258" stop-color="#017FC3"/>
<stop offset="0.8566" stop-color="#165EAC"/>
<stop offset="0.9511" stop-color="#1E489E"/>
<stop offset="1" stop-color="#21409A"/>
</linearGradient>
</defs>
</svg>
