<svg width="480" height="320" viewBox="0 0 480 320" fill="none" xmlns="http://www.w3.org/2000/svg">
<path d="M149.897 175.328C149.897 179.74 148.039 181.83 144.324 181.83C140.608 181.83 138.75 179.74 138.75 175.328V129.812H128.301V175.095C128.301 185.545 134.338 191.118 144.324 191.118C154.309 191.118 160.347 185.313 160.347 175.095V129.812H149.897V175.328ZM79.7677 158.376C84.8766 156.286 86.9665 150.944 86.9665 145.604C86.9665 135.386 82.09 129.58 70.9434 129.58H55.3848V189.957H71.8726C83.7159 189.957 88.1281 182.526 88.1281 172.54C88.1281 164.877 84.8771 160.697 79.7682 158.375L79.7677 158.376ZM65.8345 138.172H69.7823C74.4268 138.172 76.5167 140.959 76.5167 146.765C76.5167 151.874 73.4977 154.428 69.5499 154.428H65.6021L65.8345 138.172ZM70.0142 181.598H65.8345V163.02H69.0855C75.3556 163.02 77.6778 166.039 77.6778 172.309C77.6778 178.346 75.588 181.597 70.0147 181.597L70.0142 181.598ZM180.087 163.484H193.556V154.428H180.087V138.869H197.504V129.812H169.637V190.189H198.665V181.132H180.087V163.484ZM106.94 129.812H96.7228V190.189H123.428V181.132H107.173V129.81L106.94 129.812ZM371.439 190.189H381.889V129.812H371.439V190.189ZM346.592 128.881C335.678 128.881 330.569 135.848 330.569 144.44V175.557C330.569 184.15 335.678 191.116 346.592 191.116C346.592 191.116 352.398 190.884 356.81 187.401L362.384 191.116V159.766H345.664V167.894H353.095V175.557C353.095 182.292 347.289 182.059 347.289 182.059H346.593C342.412 182.059 341.019 179.969 341.019 175.324V144.672C341.019 140.26 342.412 137.938 346.593 137.938C350.772 137.938 352.166 140.028 352.166 144.672V149.316H362.616V144.44C362.615 135.847 357.506 128.881 346.592 128.881ZM243.021 128.881C232.107 128.881 227.231 135.848 227.231 144.44V175.557C227.231 184.15 232.34 191.116 243.254 191.116C254.168 191.116 259.277 184.149 259.277 175.557V144.44C259.043 135.847 253.935 128.881 243.02 128.881H243.021ZM248.595 175.325C248.595 179.737 247.202 182.059 243.022 182.059C238.842 182.059 237.449 179.969 237.449 175.325V144.672C237.449 140.26 238.842 137.938 243.022 137.938C247.202 137.938 248.595 140.027 248.595 144.672V175.325ZM415.327 129.81V165.571L401.161 129.81H391.872V190.186H401.161V154.424L415.326 190.186H424.615V129.81H415.327ZM310.597 190.186H321.047V129.81H310.597V190.186ZM300.147 147.457C300.147 134.453 294.341 129.576 282.498 129.576H267.868V189.953H278.318V165.337C280.175 165.337 282.266 165.337 283.659 165.105L291.09 190.184H301.54L292.715 162.782C296.431 161.157 300.147 157.209 300.147 147.456L300.147 147.457ZM282.265 156.746H278.549V138.168H282.265C287.838 138.168 289.928 140.258 289.928 147.457C289.928 154.655 287.838 156.745 282.265 156.745V156.746Z" fill="#0000FF"/>
</svg>
