<svg width="480" height="320" viewBox="0 0 480 320" fill="none" xmlns="http://www.w3.org/2000/svg">
<path d="M423.757 189.662L421.55 190.717C421.452 190.321 421.237 189.964 420.933 189.692C420.619 189.409 420.26 189.269 419.858 189.269C419.417 189.269 418.988 189.418 418.574 189.723C418.163 190.024 417.926 190.398 417.865 190.839C417.825 191.022 417.819 191.189 417.85 191.338C417.88 191.49 417.956 191.633 418.078 191.777C418.197 191.917 418.306 192.039 418.409 192.139C418.51 192.24 418.681 192.352 418.921 192.471C419.164 192.593 419.341 192.683 419.45 192.745C419.56 192.802 419.779 192.906 420.098 193.046C420.421 193.189 420.644 193.277 420.765 193.32C421.711 193.74 422.433 194.254 422.926 194.86C423.419 195.463 423.577 196.311 423.395 197.398C423.194 198.728 422.552 199.829 421.474 200.706C420.397 201.582 419.192 202.02 417.865 202.02C416.675 202.02 415.689 201.704 414.904 201.071C414.118 200.435 413.622 199.552 413.421 198.423L415.719 197.519C415.938 198.262 416.231 198.828 416.596 199.212C416.958 199.592 417.512 199.784 418.257 199.784C418.884 199.79 419.494 199.577 419.98 199.181C420.482 198.779 420.786 198.253 420.887 197.611C420.966 197.124 420.878 196.704 420.616 196.338C420.352 195.977 420.001 195.696 419.557 195.493C419.113 195.292 418.635 195.067 418.123 194.814C417.638 194.579 417.163 194.321 416.702 194.041C416.267 193.783 415.936 193.393 415.704 192.879C415.47 192.367 415.406 191.755 415.507 191.049C415.707 189.884 416.277 188.919 417.214 188.164C418.151 187.409 419.213 187.032 420.403 187.032C421.188 187.032 421.894 187.279 422.518 187.771C423.142 188.268 423.556 188.898 423.757 189.662M411.82 195.04H400.669C400.468 196.369 400.727 197.493 401.454 198.412C402.178 199.328 403.216 199.785 404.564 199.785C406.36 199.785 407.948 198.808 409.342 196.854L411.214 198.035C410.328 199.301 409.266 200.284 408.024 200.977C406.786 201.674 405.453 202.021 404.022 202.021C401.947 202.021 400.383 201.321 399.32 199.922C398.265 198.521 397.896 196.784 398.219 194.708C398.584 192.511 399.488 190.682 400.939 189.224C402.391 187.76 404.193 187.033 406.351 187.033C407.437 187.033 408.399 187.249 409.236 187.681C410.07 188.116 410.699 188.704 411.123 189.449C411.548 190.195 411.829 191.05 411.972 192.018C412.112 192.986 412.06 193.993 411.82 195.04ZM401.091 192.986H409.583C409.583 191.938 409.245 191.056 408.569 190.341C407.893 189.625 407.039 189.267 406.001 189.267C404.963 189.267 403.968 189.632 403.009 190.356C402.053 191.081 401.414 191.957 401.091 192.986ZM387.098 187.426L386.828 189.148H386.888C388.154 187.739 389.627 187.033 391.301 187.033C392.227 187.033 392.996 187.197 393.611 187.532C394.226 187.864 394.649 188.311 394.88 188.874C395.111 189.44 395.254 190.094 395.303 190.84C395.355 191.586 395.301 192.371 395.139 193.199L393.809 201.629H391.389L392.658 193.622C392.738 193.077 392.796 192.627 392.826 192.277C392.856 191.924 392.85 191.534 392.811 191.111C392.771 190.688 392.665 190.356 392.491 190.116C392.321 189.872 392.059 189.671 391.706 189.51C391.356 189.349 390.905 189.267 390.361 189.267C389.719 189.267 389.149 189.389 388.653 189.632C388.161 189.872 387.768 190.165 387.476 190.506C387.184 190.85 386.928 191.294 386.706 191.835C386.484 192.381 386.322 192.87 386.222 193.302C386.122 193.734 386.021 194.264 385.921 194.888L384.862 201.629H382.445L384.682 187.426H387.098ZM379.613 187.426L377.385 201.629H374.981L377.205 187.426H379.613ZM378.243 180.867C378.636 180.526 379.068 180.353 379.537 180.353C380.008 180.353 380.386 180.526 380.666 180.867C380.946 181.208 381.046 181.613 380.967 182.075C380.906 182.56 380.681 182.967 380.288 183.299C379.899 183.631 379.47 183.798 378.998 183.798C378.523 183.798 378.149 183.631 377.869 183.299C377.586 182.967 377.477 182.56 377.537 182.075C377.62 181.613 377.854 181.208 378.243 180.867ZM373.985 176.697L370.025 201.628H367.606L371.565 176.697H373.985ZM362.076 187.426L361.835 188.965H361.896C362.52 188.299 363.074 187.813 363.558 187.502C364.042 187.188 364.644 187.033 365.371 187.033C366.035 187.033 366.72 187.255 367.426 187.696L365.913 189.903C365.895 189.882 365.834 189.833 365.734 189.751C365.63 189.672 365.56 189.617 365.521 189.586C365.46 189.54 365.395 189.499 365.326 189.465C365.252 189.424 365.176 189.388 365.097 189.358C365.023 189.335 364.948 189.315 364.873 189.297C364.777 189.278 364.68 189.267 364.583 189.267C364.081 189.267 363.622 189.401 363.21 189.662C362.797 189.924 362.474 190.226 362.243 190.569C362.008 190.91 361.799 191.352 361.607 191.896C361.415 192.441 361.281 192.894 361.199 193.256C361.108 193.678 361.028 194.101 360.959 194.526L359.839 201.629H357.422L359.659 187.426H362.076V187.426ZM354.731 187.426L352.494 201.629H350.078L352.315 187.426L354.731 187.426ZM353.356 180.867C353.748 180.526 354.183 180.353 354.655 180.353C355.13 180.353 355.507 180.526 355.787 180.867C356.07 181.208 356.174 181.613 356.092 182.075C356.031 182.56 355.806 182.967 355.41 183.299C355.02 183.631 354.585 183.798 354.114 183.798C353.639 183.798 353.262 183.631 352.978 183.299C352.695 182.967 352.586 182.56 352.646 182.075C352.729 181.613 352.963 181.208 353.356 180.867ZM347.39 187.426L345.153 201.629H342.733L343.038 199.666H342.976C341.485 201.237 339.732 202.021 337.718 202.021C336.37 202.021 335.226 201.668 334.288 200.962C333.35 200.259 332.702 199.347 332.34 198.226C331.975 197.109 331.895 195.886 332.096 194.556C332.441 192.462 333.345 190.682 334.818 189.221C336.287 187.76 338.059 187.033 340.137 187.033C341.084 187.033 341.945 187.243 342.721 187.666C343.495 188.086 344.145 188.701 344.608 189.449H344.669L344.97 187.426H347.39V187.426ZM340.046 189.267C338.676 189.267 337.48 189.772 336.464 190.779C335.447 191.787 334.827 192.986 334.604 194.376C334.364 195.847 334.577 197.116 335.24 198.184C335.907 199.252 336.963 199.785 338.415 199.785C339.903 199.785 341.148 199.267 342.146 198.226C343.144 197.192 343.762 195.916 344.005 194.407C344.224 192.934 343.984 191.711 343.278 190.734C342.575 189.757 341.497 189.267 340.046 189.267M424.615 154.786H421.161V158.606C419.615 155.605 417.11 154.059 413.699 154.059C408.017 154.059 404.151 158.198 404.151 165.015C404.151 171.658 408.063 175.983 413.882 175.983C417.022 175.983 419.615 174.385 421.249 171.427V175.112H424.615L424.615 154.786ZM421.249 165.154C421.249 169.838 418.705 172.52 414.609 172.52C410.29 172.52 407.837 169.747 407.837 164.838C407.837 160.197 410.29 157.516 414.475 157.516C418.386 157.516 421.249 160.425 421.249 165.155M397.922 175.113H401.377V161.29C401.377 156.698 398.65 154.059 394.146 154.059C391.054 154.059 388.692 155.377 386.915 158.198C385.734 155.468 383.369 154.059 380.095 154.059C377.048 154.059 374.732 155.331 373.095 157.924V154.786H369.635V175.113H373.095V164.61C373.095 164.111 373.046 163.609 373.046 163.153C373.046 161.607 373.229 160.334 374.093 159.245C375.186 157.833 376.866 157.06 378.731 157.06C382.189 157.06 383.78 159.059 383.78 163.153V175.113H387.234V164.61C387.234 164.154 387.189 163.743 387.189 163.335C387.189 161.652 387.417 160.38 388.284 159.245C389.371 157.833 391.011 157.06 392.874 157.06C396.328 157.06 397.922 159.059 397.922 163.153V175.113ZM365.18 154.786H361.726V158.606C360.18 155.605 357.678 154.059 354.27 154.059C348.585 154.059 344.717 158.198 344.717 165.015C344.717 171.658 348.627 175.983 354.446 175.983C357.587 175.983 360.18 174.385 361.817 171.427V175.112H365.18L365.18 154.786ZM361.817 165.154C361.817 169.838 359.27 172.52 355.173 172.52C350.858 172.52 348.402 169.747 348.402 164.838C348.402 160.197 350.858 157.516 355.039 157.516C358.95 157.516 361.817 160.425 361.817 165.155M332.847 175.113H336.304V165.197C336.304 159.881 338.127 157.242 341.806 157.242C342.442 157.242 343.169 157.379 343.946 157.65L345.127 154.512C344.367 154.242 343.567 154.104 342.762 154.104C339.667 154.104 337.758 155.559 335.939 159.017V154.786H332.847V175.113ZM307.792 165.016C307.792 167.974 308.884 170.613 311.02 172.746C313.114 174.843 315.841 175.984 318.842 175.984C321.8 175.984 324.527 174.794 326.666 172.746C328.757 170.656 329.893 167.974 329.893 165.016C329.893 162.064 328.757 159.334 326.666 157.286C324.527 155.195 321.843 154.06 318.842 154.06C315.841 154.06 313.114 155.15 311.02 157.24C308.884 159.334 307.792 162.064 307.792 165.016ZM311.477 165.016C311.477 160.698 314.751 157.335 318.842 157.335C322.89 157.335 326.164 160.697 326.164 165.016C326.164 169.338 322.89 172.703 318.842 172.703C314.795 172.703 311.477 169.338 311.477 165.016ZM286.6 175.113H290.058V164.61C290.058 162.38 290.058 160.7 291.239 159.245C292.377 157.833 294.148 157.06 296.196 157.06C299.833 157.06 301.607 159.059 301.607 163.153V175.113H305.064V161.29C305.064 156.698 302.155 154.059 297.425 154.059C294.239 154.059 291.783 155.285 290.058 157.924V154.786H286.6V175.113ZM282.144 154.786H278.69V158.606C277.144 155.605 274.642 154.059 271.234 154.059C265.549 154.059 261.681 158.198 261.681 165.015C261.681 171.658 265.591 175.983 271.41 175.983C274.551 175.983 277.144 174.385 278.781 171.427V175.112H282.144V154.786ZM278.781 165.154C278.781 169.838 276.234 172.52 272.137 172.52C267.822 172.52 265.366 169.747 265.366 164.838C265.366 160.197 267.822 157.516 272.004 157.516C275.915 157.516 278.781 160.425 278.781 165.155M248.038 157.014V146.146H249.904C255.543 146.146 258.319 147.056 258.319 151.786C258.319 156.287 255.5 157.014 249.904 157.014H248.038ZM248.038 160.517H250.996C254.359 160.517 256.998 160.426 259.18 158.88C261.228 157.426 262.5 154.741 262.5 151.557C262.5 148.374 261.228 145.69 259.18 144.235C256.998 142.689 254.314 142.601 250.996 142.601H244.173V175.113H248.038L248.038 160.517ZM229.031 165.473V164.789C229.031 158.06 225.212 154.012 219.253 154.012C213.343 154.012 209.112 158.471 209.112 164.879C209.112 171.521 213.298 175.982 219.481 175.982C223.666 175.982 226.849 174.11 228.894 170.431L226.258 168.656C224.576 171.612 222.391 173.067 219.664 173.067C215.753 173.067 212.932 170.203 212.932 165.79V165.473H229.031ZM225.3 162.655H212.932C213.297 159.198 215.799 157.062 219.116 157.062C222.802 157.062 225.075 159.061 225.3 162.655M191.697 154.786H188.24V166.929C188.24 172.888 191.469 175.983 197.382 175.983C203.475 175.983 206.658 172.797 206.658 166.655V154.786H203.201V164.789C203.11 170.154 201.929 172.656 197.473 172.656C193.015 172.656 191.697 170.154 191.697 164.789V154.786ZM180.193 175.114H183.65V137.388H180.193L180.193 175.114ZM161.184 145.965H164.093C169.233 145.965 171.598 146.92 171.598 151.604C171.598 155.56 169.324 156.832 164.093 156.832H161.184V145.965ZM161.184 159.879H165.231C167.231 159.879 168.822 159.925 170.189 160.743C171.96 161.744 172.87 163.519 172.87 165.883C172.87 167.929 172.051 169.703 170.734 170.656C169.324 171.66 167.185 171.751 164.093 171.751H161.184V159.879ZM157.319 175.114H164.093C168.734 175.114 171.917 174.977 174.279 172.655C175.916 171.024 176.963 168.565 176.963 165.883C176.963 161.52 174.553 158.47 170.734 157.879C173.826 156.97 175.554 154.605 175.554 151.147C175.554 148.238 174.328 145.737 172.28 144.236C170.235 142.736 167.642 142.599 164.093 142.599H157.319V175.114ZM55.3846 164.459C64.6786 159.836 73.7693 155.849 82.2334 152.818C91.427 149.525 109.629 143.852 123.334 146.439C128.401 147.398 131.88 149.303 133.66 152.42C135.388 155.441 135.428 159.203 133.66 163.659C131.919 168.053 128.675 172.825 123.955 178.172C119.38 183.353 113.501 188.672 106.397 193.958C99.0416 199.437 90.9066 204.485 82.233 209.425L84.0927 208.472C93.3867 203.526 101.559 198.244 109.496 192.522C117.046 187.086 123.3 181.517 128.495 176.018C133.626 170.592 137.081 165.585 139.031 161.029C141.007 156.415 140.812 152.426 139.031 149.309C137.302 146.287 134.363 143.67 128.705 143.329C111.288 142.276 97.0421 146.515 85.1245 150.904C76.0366 154.252 66.745 158.48 57.451 163.422L55.3846 164.459ZM64.472 132.167C73.3522 127.383 82.2325 123.396 90.9094 120.368C100.113 117.151 118.531 111.235 132.213 113.989C136.965 114.945 140.355 117.029 142.129 120.128C143.867 123.168 143.885 126.899 142.129 131.291C140.376 135.67 137.47 140.551 132.835 145.722C128.178 150.917 122.466 156.28 115.28 161.59C108.217 166.804 100.615 171.792 91.9412 176.579C92.1478 176.445 92.355 176.314 92.5621 176.177C101.853 171.238 110.439 165.793 118.376 160.075C125.926 154.634 132.247 149.076 137.379 143.65C142.573 138.151 145.836 133.272 147.705 128.579C149.552 123.941 149.89 120.118 148.119 117.02C146.381 113.977 142.753 111.801 137.379 111.04C121.988 108.855 104.337 114.863 94.0076 118.533C84.7557 121.823 75.8324 126.108 66.5384 130.971C65.8505 131.37 65.1627 131.769 64.472 132.167Z" fill="#2B5B83"/>
</svg>
