<svg width="480" height="320" viewBox="0 0 480 320" fill="none" xmlns="http://www.w3.org/2000/svg">
<path d="M204.202 95.6314C204.892 95.5117 205.582 95.2323 206.293 95.4039C197.633 98.3692 188.685 100.508 180.148 103.857C168.846 108.143 158.258 114.405 149.303 122.546C135.199 135.333 125.05 151.843 117.104 168.992C115.715 171.894 114.594 174.915 113.125 177.776C109.845 183.806 103 188.029 96.048 187.398C93.5457 187.223 91.1032 186.089 89.4031 184.238C87.4236 182.13 86.4977 179.177 86.5576 176.32C86.3301 170.569 88.4772 165.065 90.8917 159.957C97.377 146.831 108.112 136.315 119.834 127.79C132.621 118.575 146.9 111.579 161.694 106.235C175.463 101.29 189.739 97.7945 204.202 95.6314Z" fill="#1C316B"/>
<path d="M148.692 141.464C151.673 136.563 156.985 133.087 162.72 132.532C166.108 132.221 169.768 133.231 172.075 135.833C174.194 138.123 174.892 141.328 174.948 144.361C174.733 150.276 172.602 155.927 169.936 161.143C164.065 172.493 154.986 181.868 144.957 189.65C132.653 199.152 118.736 206.412 104.277 212.035C88.5451 218.141 72.0666 222.204 55.3846 224.65L55.3886 224.283C55.9474 224.167 56.5061 224.056 57.0568 223.896C65.8089 221.15 74.7086 218.816 83.2172 215.347C96.064 210.235 107.809 202.381 117.328 192.344C129.396 179.709 138.284 164.404 145.4 148.54C146.493 146.181 147.367 143.711 148.692 141.464Z" fill="#2C5FA1"/>
<path d="M387.787 172.549C391.164 172.11 394.6 172.605 397.872 173.471V176.64C394.528 175.506 390.896 174.297 387.364 175.338C385.221 175.921 383.697 177.761 382.926 179.772C381.749 182.742 381.673 186.106 382.523 189.175C383.194 191.625 384.97 193.888 387.436 194.698C389.719 195.441 392.221 195.333 394.496 194.619C394.492 191.989 394.492 189.363 394.496 186.737C395.633 186.733 396.775 186.733 397.92 186.737C397.92 189.997 397.928 193.258 397.916 196.522C393.909 197.771 389.535 198.302 385.445 197.133C382.005 196.115 379.682 192.89 378.872 189.514C377.79 185.088 378.153 179.996 380.999 176.276C382.595 174.121 385.165 172.884 387.787 172.549ZM414.259 172.836C417.156 171.934 420.301 172.489 423.143 173.355C423.111 174.381 423.103 175.406 423.107 176.436C420.904 175.614 418.585 174.588 416.183 175.067C414.299 175.35 412.734 177.494 413.541 179.345C414.163 180.918 415.736 181.736 417.109 182.546C419.256 183.803 421.578 184.925 423.251 186.824C425.178 189.163 425.03 192.871 423.019 195.117C421.387 197.145 418.653 197.803 416.159 197.775C414.036 197.835 411.976 197.269 409.941 196.762C409.881 195.616 409.877 194.467 409.897 193.322C412.619 194.555 415.728 195.884 418.725 194.826C421.239 193.932 421.926 190.288 419.938 188.528C417.128 186.082 413.146 185.072 410.939 181.923C408.791 178.731 410.687 174.002 414.259 172.836ZM173.962 172.98C176.473 173 178.983 172.916 181.493 173.04C183.361 173.136 185.428 173.61 186.614 175.191C188.066 176.887 188.006 179.461 186.889 181.317C186.039 182.921 184.419 183.911 182.786 184.569C185.017 185.22 187.32 186.457 188.206 188.744C189.675 191.889 187.771 196.187 184.287 196.873C180.879 197.448 177.403 197.093 173.962 197.189C173.962 189.119 173.958 181.049 173.962 172.98ZM177.367 175.554C177.363 178.248 177.363 180.942 177.371 183.636C179.29 183.584 181.517 183.628 182.982 182.171C184.479 180.694 184.798 177.749 182.938 176.436C181.282 175.406 179.23 175.59 177.367 175.554ZM177.371 185.755C177.363 188.708 177.363 191.661 177.367 194.615C179.326 194.523 181.402 194.774 183.253 193.996C185.464 192.859 185.624 189.53 183.876 187.91C182.228 186.126 179.685 185.707 177.371 185.755ZM200.003 197.193C199.991 189.119 199.991 181.049 200.003 172.98C201.141 172.976 202.282 172.976 203.423 172.98C203.427 180.187 203.419 187.399 203.427 194.607C207.055 194.615 210.687 194.603 214.315 194.611V197.189C209.545 197.193 204.772 197.185 200.003 197.193ZM223.334 172.98C224.475 172.976 225.613 172.976 226.754 172.98C226.762 177.673 226.758 182.366 226.758 187.06C226.794 189.087 226.686 191.274 227.752 193.086C229.376 195.433 232.856 195.7 235.291 194.603C237.582 193.413 237.677 190.516 237.677 188.257C237.677 183.165 237.669 178.072 237.677 172.98C238.675 172.976 239.677 172.976 240.678 172.98C240.674 178.336 240.694 183.691 240.67 189.047C240.627 191.318 240.315 193.848 238.583 195.505C236.524 197.696 233.279 197.991 230.458 197.672C228.231 197.448 226.016 196.387 224.739 194.499C223.49 192.687 223.378 190.396 223.334 188.269C223.326 183.173 223.33 178.076 223.334 172.98ZM254.204 172.984C258.709 172.976 263.215 172.976 267.721 172.98C267.721 173.838 267.721 174.696 267.725 175.558C264.361 175.562 260.996 175.554 257.632 175.562C257.624 178.14 257.632 180.718 257.628 183.296C260.445 183.312 263.263 183.296 266.081 183.304C266.077 184.154 266.081 185.004 266.081 185.855C263.263 185.859 260.449 185.851 257.632 185.859C257.628 188.776 257.628 191.689 257.632 194.607C261.232 194.615 264.827 194.603 268.427 194.611V197.189C263.686 197.193 258.945 197.193 254.204 197.189C254.2 189.119 254.204 181.049 254.204 172.984ZM287.336 172.98C288.43 172.976 289.527 172.976 290.625 172.976C292.297 179.333 293.917 185.703 295.589 192.06C297.122 185.707 298.626 179.341 300.151 172.984C301.244 172.976 302.342 172.976 303.443 172.976C304.92 179.242 306.281 185.539 307.794 191.797C309.538 185.519 311.33 179.25 313.101 172.98C314.031 172.976 314.957 172.976 315.891 172.98C313.636 181.049 311.365 189.115 309.107 197.185C307.969 197.193 306.832 197.193 305.694 197.185C304.27 190.975 302.865 184.757 301.424 178.547C299.923 184.761 298.455 190.979 296.954 197.189H293.57C291.483 189.123 289.407 181.049 287.336 172.98ZM329.001 172.98C330.139 172.976 331.28 172.976 332.421 172.98C332.425 181.049 332.425 189.119 332.421 197.189C331.28 197.193 330.139 197.193 329.001 197.189C328.993 189.119 328.993 181.049 329.001 172.98ZM348.273 172.98C349.387 172.976 350.504 172.976 351.626 172.976C355.7 179.19 359.735 185.427 363.806 191.645C363.818 185.424 363.806 179.202 363.814 172.98C364.796 172.976 365.781 172.976 366.767 172.98C366.771 181.049 366.771 189.119 366.767 197.189H363.423C359.34 190.963 355.285 184.721 351.207 178.491C351.199 184.721 351.211 190.955 351.203 197.189H348.273C348.269 189.119 348.269 181.049 348.273 172.98Z" fill="black"/>
</svg>
