<svg width="480" height="320" viewBox="0 0 480 320" fill="none" xmlns="http://www.w3.org/2000/svg">
<mask id="mask0_730_18600" style="mask-type:luminance" maskUnits="userSpaceOnUse" x="55" y="117" width="370" height="86">
<path d="M55.3809 202.175H424.613V117.836H55.3809V202.175Z" fill="white"/>
</mask>
<g mask="url(#mask0_730_18600)">
<path d="M84.8417 182.559C78.7849 182.559 73.218 180.486 68.8035 177.008C73.9364 165.422 84.395 149.879 98.6563 134.699C105.937 139.291 110.773 147.399 110.773 156.639C110.773 160.584 109.884 164.325 108.308 167.674C103.784 165.579 99.5651 162.96 95.9858 159.652L103.799 174.319C99.065 179.391 92.3278 182.559 84.8417 182.559ZM58.9187 156.639C58.9187 142.314 70.5221 130.711 84.8417 130.711C88.68 130.711 92.3177 131.546 95.6025 133.038C81.5519 145.457 70.6719 159.891 64.2343 172.365C60.9012 167.996 58.9187 162.556 58.9187 156.639ZM111.564 169.065C113.329 165.29 114.309 161.076 114.309 156.639C114.309 146.396 109.082 137.374 101.147 132.094C105.873 127.23 110.988 122.425 116.433 117.833C110.052 121.587 104.056 125.885 98.5141 130.528C94.4296 128.385 89.7766 127.167 84.8417 127.167C68.5725 127.167 55.3799 140.367 55.3799 156.639C55.3799 163.983 58.0708 170.71 62.5208 175.863C56.8752 188.07 55.8877 197.874 60.8631 201.19C66.1864 204.741 77.7669 198.303 84.7173 187.819C84.7173 187.819 73.9693 197.516 68.0648 195.293C64.4322 193.917 64.4195 188.36 67.415 180.391C72.299 183.981 78.3203 186.101 84.8417 186.101C92.9167 186.101 100.225 182.856 105.548 177.602L106.594 179.572C119.436 178.528 157.781 177.513 157.781 177.513C157.781 175.672 132.393 177.343 111.564 169.065Z" fill="#1D439C"/>
</g>
<path fill-rule="evenodd" clip-rule="evenodd" d="M287.362 153.926L292.163 147.549L275.441 147.544L279.561 142.081H296.283L301.096 135.707H267.707L244.738 166.187H278.132L282.928 159.805H266.212L270.631 153.926H287.362ZM310.552 135.707L287.593 166.187H304.251L327.214 135.707H310.552ZM366.057 135.707L354.42 151.159L350.841 135.707H337.821L314.858 166.187H325.877L337.418 150.872L340.961 166.187H354.118L377.087 135.707H366.057Z" fill="#1D439C"/>
<mask id="mask1_730_18600" style="mask-type:luminance" maskUnits="userSpaceOnUse" x="21" y="93" width="442" height="139">
<path d="M21.0273 231.304H462.048V93.4785H21.0273V231.304Z" fill="white"/>
</mask>
<g mask="url(#mask1_730_18600)">
<path d="M420.529 135.712L393.748 135.706C389.166 135.706 385.102 137.902 382.533 141.306L368.711 159.652C368.19 160.333 367.888 161.183 367.888 162.104C367.888 164.359 369.713 166.191 371.967 166.191H398.744C403.331 166.191 407.405 163.993 409.969 160.591L413.289 156.187H417.158L421.994 149.765H401.483L395.007 158.355C394.669 158.807 394.23 159.174 393.725 159.427C393.22 159.68 392.662 159.81 392.098 159.81H387.384C386.787 159.81 386.315 159.332 386.315 158.749C386.315 158.505 386.396 158.284 386.533 158.114L397.515 143.535C398.178 142.649 399.234 142.086 400.424 142.086H405.143C405.735 142.086 406.207 142.56 406.207 143.144C406.207 143.378 406.121 143.604 405.989 143.787L404.206 146.155H420.849L423.794 142.243C424.304 141.565 424.611 140.72 424.611 139.794C424.611 137.539 422.778 135.712 420.529 135.712ZM235.424 143.786L224.437 158.357C224.099 158.809 223.66 159.176 223.155 159.428C222.65 159.68 222.093 159.81 221.528 159.809H216.809C216.228 159.809 215.756 159.334 215.756 158.753C215.756 158.504 215.837 158.283 215.964 158.113L226.945 143.54C227.618 142.664 228.671 142.085 229.857 142.085H234.579C235.165 142.085 235.637 142.562 235.637 143.144C235.635 143.375 235.56 143.599 235.424 143.786ZM254.041 139.793C254.041 137.541 252.219 135.711 249.959 135.711H223.196C218.609 135.711 214.54 137.902 211.971 141.306L198.146 159.651C197.631 160.337 197.329 161.182 197.329 162.106C197.329 164.358 199.151 166.191 201.406 166.191H228.174C232.766 166.191 236.84 163.992 239.404 160.591L253.227 142.247C253.739 141.567 254.041 140.719 254.041 139.793ZM184.54 143.786L182.783 146.111C182.116 146.984 181.067 147.553 179.871 147.553L173.03 147.548L177.155 142.085H183.689C184.271 142.085 184.748 142.562 184.748 143.144C184.748 143.377 184.672 143.603 184.54 143.786ZM175.607 155.628L173.545 158.362C172.883 159.24 171.832 159.809 170.636 159.809H163.8L168.225 153.93H174.764C175.348 153.93 175.823 154.402 175.823 154.988C175.823 155.232 175.741 155.453 175.607 155.628ZM191.071 151.693C194.354 150.955 197.209 149.053 199.167 146.451L202.332 142.247C202.847 141.567 203.155 140.719 203.155 139.793C203.155 137.541 201.329 135.711 199.075 135.711H165.295L142.332 166.191H177.282C181.874 166.191 185.946 163.992 188.51 160.591L191.749 156.29C192.168 155.75 192.401 155.062 192.401 154.331C192.401 153.247 191.873 152.292 191.071 151.693Z" fill="#1D439C"/>
</g>
</svg>
