<svg width="480" height="320" viewBox="0 0 480 320" fill="none" xmlns="http://www.w3.org/2000/svg">
<path d="M424.451 242.169C425.737 246.412 419.051 253.612 419.051 257.405H415.194C415.901 254.898 416.737 252.969 417.894 250.205C419.051 247.376 422.716 242.298 418.216 241.205C409.023 239.148 407.737 252.133 405.037 257.341H401.437C403.88 251.298 406.387 245.319 408.894 239.405H411.916C413.073 239.34 412.044 239.662 412.237 240.305C416.03 239.469 423.423 238.633 424.451 242.169ZM402.016 235.033V235.933C399.958 237.219 397.966 237.798 395.458 238.955C395.587 236.962 399.508 235.676 402.016 235.033ZM402.016 241.912C401.116 239.79 396.487 239.34 393.98 239.533C384.594 240.112 382.408 247.248 381.123 255.091C384.851 258.755 393.53 258.241 397.258 254.769C399.123 252.969 403.173 244.612 402.016 241.912ZM385.301 254.769V254.126C385.301 253.676 385.301 253.226 385.365 252.776C385.365 252.519 385.43 252.326 385.43 252.069C385.494 251.619 385.558 251.169 385.687 250.655C385.88 249.755 386.137 248.791 386.523 247.955C386.973 246.862 387.487 245.833 388.194 244.933C388.708 244.226 389.287 243.583 389.93 243.005C390.444 242.619 390.958 242.233 391.473 241.976C393.337 241.076 395.587 241.076 398.094 242.491C397.258 249.498 393.851 258.369 385.301 254.769ZM379.323 239.469H382.923C380.801 245.705 377.973 251.298 375.723 257.405H371.865C374.373 251.555 376.88 245.576 379.323 239.469ZM366.465 239.469C369.872 239.34 375.851 239.726 374.565 244.226H370.965C369.937 244.355 371.287 242.169 370.065 241.848C362.672 239.469 360.937 243.326 359.008 247.826C358.237 249.691 356.565 252.455 356.887 253.805C357.787 257.276 366.144 255.733 367.044 252.583H370.644C369.487 258.112 356.822 259.076 353.287 254.962C354.572 247.441 356.822 239.855 366.465 239.469ZM352.708 242.491C353.737 246.926 347.308 253.291 347.308 257.469H343.129C344.608 254.255 345.829 250.783 347.308 247.569C336.829 243.969 329.565 258.626 342.229 255.026C340.944 259.591 331.815 257.212 331.494 254.448C330.722 247.569 339.658 244.869 347.951 245.769C348.465 244.869 348.915 243.905 348.53 242.748C347.051 238.44 339.015 244.998 338.629 240.626C342.808 239.533 351.68 238.119 352.708 242.491ZM329.372 239.469H332.972C330.465 245.448 328.022 251.491 325.515 257.405H321.915C324.229 251.298 326.737 245.383 329.372 239.469ZM322.172 240.112H325.772C321.015 246.026 316.065 251.683 311.115 257.469H306.358C306.743 251.748 307.129 246.091 307.579 240.433H311.179C311.051 245.191 310.408 249.433 310.279 254.191C314.008 250.462 318.186 244.548 322.172 240.112ZM292.472 236.769C293.179 236.962 294.658 236.448 294.851 237.09C290.286 244.291 284.629 250.398 279.872 257.405H283.729C285.4 255.798 286.108 251.941 288.808 251.105C291.058 251.169 294.208 251.041 297.165 251.105C297.101 253.162 297.293 255.798 296.843 257.405H300.701C300.829 250.269 301.022 243.262 301.279 236.19C298.901 236.319 292.729 234.583 292.472 236.769ZM297.358 245.255C297.293 246.541 297.165 247.762 297.101 248.791H290.222C292.279 245.319 294.979 242.555 297.101 239.212C297.165 239.405 297.165 239.533 297.229 239.726C297.422 240.626 297.486 241.655 297.486 242.683C297.422 243.519 297.358 244.419 297.358 245.255ZM264.186 249.369C264.765 246.219 267.465 243.905 265.665 241.269C263.35 237.99 252.872 239.469 249.85 242.491C248.629 243.776 244.579 252.005 245.093 254.448C246.186 259.783 262.643 257.983 262.707 252.326H259.107C258.143 255.283 251.715 257.083 248.95 254.448C248.5 252.776 249.465 250.526 250.429 249.369H264.186ZM258.143 241.333C259.493 241.269 260.907 241.655 262.129 242.491C262.45 244.933 261.293 245.898 260.907 247.569H250.943C251.265 244.098 254.607 241.398 258.143 241.333ZM243.55 235.29C242.714 236.576 241.75 239.405 241.429 239.405C236.543 239.662 230.95 238.826 227.35 242.426C225.743 244.033 221.886 252.198 222.593 254.705C223.557 258.176 230.822 257.855 234.55 256.505C232.75 257.983 236.093 257.212 238.15 257.405C241.107 249.819 244.772 241.783 247.407 234.39C244.836 234.39 244.129 234.198 243.55 235.29ZM240.85 241.333C238.214 247.441 236.479 258.883 226.514 254.769V254.705C227.35 247.441 229.857 239.34 240.85 241.333C240.85 241.333 240.85 241.269 240.85 241.333ZM206.779 242.812C207.55 247.055 201.507 253.098 201.378 257.469H197.2C198.614 254.191 199.964 250.848 201.378 247.569C194.5 246.798 188.778 248.662 189.421 254.448C190.386 256.248 194.564 255.798 196.3 255.026C195.143 259.526 185.821 257.276 185.564 254.448C184.857 247.762 193.536 244.869 201.7 245.769C202.6 245.191 202.986 243.969 202.6 242.748C201.186 238.505 193.086 244.933 192.7 240.626C197.2 239.405 205.943 238.248 206.779 242.812ZM162.807 242.683C163.578 246.926 157.535 252.969 157.407 257.341H153.228C154.642 254.062 155.992 250.719 157.407 247.441C150.528 246.669 144.807 248.533 145.45 254.319C146.414 256.119 150.592 255.669 152.328 254.898C151.171 259.398 141.85 257.148 141.592 254.319C140.885 247.633 149.564 244.741 157.728 245.641C158.628 245.062 159.014 243.841 158.628 242.619C157.214 238.376 149.114 244.805 148.728 240.498C153.228 239.276 161.971 238.119 162.807 242.683ZM184.921 242.169C186.207 246.476 179.585 253.612 179.521 257.405H175.664C176.885 252.133 180.678 247.891 180.743 242.426C170.328 237.54 168.785 251.233 165.507 257.405H161.907C164.414 251.491 166.857 245.448 169.364 239.469H172.385C173.414 239.276 172.9 240.112 172.707 240.369C176.5 239.405 183.828 238.633 184.921 242.169ZM115.942 235.612C117.228 235.612 117.806 235.676 119.542 235.612C119.092 236.705 118.964 237.026 118.642 237.99H115.042C115.428 236.769 115.621 236.512 115.942 235.612ZM141.335 235.612C142.621 235.612 143.2 235.676 144.935 235.612C144.485 236.705 144.357 237.026 144.035 237.99H140.435C140.821 236.769 141.014 236.512 141.335 235.612ZM380.801 235.612C382.087 235.612 382.665 235.676 384.401 235.612C383.951 236.705 383.823 237.026 383.501 237.99H379.901C380.287 236.833 380.48 236.576 380.801 235.612ZM331.172 235.612C332.458 235.612 333.037 235.676 334.772 235.612C334.322 236.705 334.194 237.026 333.872 237.99H330.272C330.658 236.833 330.787 236.576 331.172 235.612ZM139.792 239.469H143.392C140.692 246.155 138.507 251.298 136.192 257.405H132.592C134.649 251.169 137.542 245.641 139.792 239.469ZM114.206 239.405H117.806C115.428 245.769 113.049 251.233 110.606 257.341H107.006C109.064 251.105 111.956 245.576 114.206 239.405ZM134.714 240.112H137.992C133.299 246.091 128.285 251.748 123.335 257.469C120.956 257.598 119.221 257.791 118.578 257.148C119.092 251.683 119.478 246.091 119.799 240.369H123.399C123.271 245.126 122.821 249.562 122.499 254.126C126.421 250.591 130.342 244.291 134.714 240.112ZM110.285 234.519C110.542 234.583 111.056 234.648 111.056 234.969C107.714 242.169 104.628 249.691 101.799 257.405H97.9421C100.771 250.012 103.921 242.876 106.942 235.548C107.521 234.262 109.964 234.583 110.285 234.519ZM91.642 239.79C88.2348 239.983 85.7277 240.498 83.7991 242.233C82.3205 243.519 77.9491 252.005 78.7205 254.769C80.1348 259.783 92.6706 257.083 95.1777 254.448C96.0778 253.548 97.5563 250.333 98.1992 248.791C101.092 241.912 99.4206 239.276 91.642 239.79ZM82.6419 254.448C82.9634 248.083 87.5277 237.99 95.8206 242.491C94.8563 248.855 91.3206 259.333 82.6419 254.448ZM79.9419 237.99C78.5919 233.298 66.8918 235.869 61.6847 235.548C61.4918 235.74 61.4918 235.74 61.3632 236.126C60.5918 237.54 63.4204 236.255 63.4847 237.348C60.9132 244.162 58.0203 250.655 55.3846 257.405C65.9275 257.598 77.1133 258.369 77.2419 248.148C77.049 246.926 75.7633 246.862 75.4419 245.769C78.0776 244.548 80.7776 241.012 79.9419 237.99ZM59.9489 255.026C60.7204 252.198 61.8775 249.626 63.2275 247.248C67.149 247.376 72.099 246.541 73.7062 249.048C73.3847 255.348 66.5704 255.091 59.9489 255.026ZM72.099 244.548C69.9133 245.126 67.0204 245.062 64.0632 244.933C64.7704 242.362 66.1847 240.433 66.7633 237.733H66.8275C67.2776 237.733 67.6633 237.798 68.1133 237.733C69.4633 237.669 70.4919 237.669 71.649 237.669C73.7062 237.669 75.5705 237.926 76.4062 239.212C76.4062 242.426 74.6705 243.905 72.099 244.548ZM341.908 218.126C341.908 218.126 337.858 184.183 337.151 178.269C334.901 159.497 333.808 148.44 332.072 146.19C326.029 144.968 317.801 145.868 310.858 145.611C308.801 147.99 308.608 148.633 307.836 149.79C308.801 149.597 312.401 149.854 312.594 151.783C312.594 152.618 308.415 157.118 306.036 159.947C289.643 177.819 273.122 195.562 256.665 214.076C255.443 215.49 254.672 216.647 253.643 217.933H263.222C272.029 208.419 313.365 162.519 318.572 157.826C319.344 165.604 326.029 217.933 326.029 217.933L341.908 218.126ZM262.707 179.747C261.357 169.333 239.243 169.269 228.314 169.847C215.521 170.49 202.793 172.997 196.621 180.647C193.793 184.119 192.378 188.876 190.064 194.404C188.2 198.904 185.05 204.433 185.886 208.74C187.493 217.355 202.986 217.997 213.979 217.997C226.386 217.997 238.022 216.39 245.35 212.019C252.422 207.84 254.672 201.669 258.207 193.504C259.943 189.519 263.35 184.569 262.707 179.747ZM242.072 192.476C239.179 199.226 237.636 205.462 232.172 208.933C225.807 213.047 206.714 215.426 200.8 208.097C200.607 202.955 203.371 198.39 205.3 194.019C207.229 189.712 208.514 184.954 211.279 181.74C215.393 176.983 223.043 174.926 231.914 174.861C236.8 174.797 245.029 175.44 246.25 179.619C247.343 183.347 243.486 189.133 242.072 192.476ZM189.743 158.276C188.714 150.433 175.728 147.09 172.385 146.897C153.935 145.804 128.157 145.354 106.878 145.676C106.235 147.283 106.106 147.604 105.399 149.533C108.678 149.533 110.735 149.34 111.571 150.561C112.535 151.911 110.928 155.511 108.678 160.269C99.9349 179.104 92.2206 200.19 85.0848 217.997C116.199 217.547 163.514 222.305 178.364 203.34C180.293 200.897 182.157 197.426 182.543 193.762C183.828 182.64 173.8 182.576 165.507 180.583C173.607 178.783 182.221 174.797 186.464 168.754C188.264 166.054 190.193 161.876 189.743 158.276ZM165.828 192.862C166.6 199.419 160.492 205.976 155.928 208.74C143.842 216.069 120.506 212.855 102.699 213.497C107.071 203.597 110.799 193.054 115.556 183.604C116.006 183.797 164.157 178.783 165.828 192.862ZM162.743 174.604C152.135 180.712 131.178 179.426 117.292 179.362C121.021 169.461 125.071 159.819 128.928 150.047C129.249 149.79 129.571 149.597 129.892 149.468C145.9 149.404 146.092 149.34 154.385 149.468C161.392 149.597 170.843 150.561 172.643 155.447C175.535 163.354 167.628 171.776 162.743 174.604Z" fill="#0D2B60"/>
<path d="M394.816 62.3607C394.816 62.3607 384.98 65.7036 378.23 77.5323C371.801 88.7824 358.815 124.204 355.215 139.311C352.708 149.983 343.901 162.776 341.458 167.661C330.079 190.162 318.701 193.697 314.394 193.89C302.051 194.469 296.008 185.919 296.008 185.919L303.079 185.34C303.079 185.34 308.158 190.162 315.744 185.662C324.229 180.583 330.658 165.604 335.415 153.647C341.908 137.061 348.787 110.897 352.58 102.861C367.172 73.868 373.023 70.8465 380.094 66.6036C387.294 62.2322 394.816 62.3607 394.816 62.3607Z" fill="#D6430D"/>
<path d="M388.194 68.2106C384.658 70.6535 380.094 76.5035 380.094 76.5035C380.094 76.5035 387.873 63.3892 396.358 64.6106C407.737 66.2177 414.294 88.525 414.294 88.525C414.294 88.525 405.937 75.6035 398.737 69.6892C395.844 67.3749 391.151 66.1535 388.194 68.2106Z" fill="#D6430D"/>
<path d="M403.301 90.0684C403.301 90.0684 392.244 91.4185 385.494 103.247C379.065 114.497 376.044 119.254 369.165 133.14C364.28 142.912 353.672 167.019 351.23 171.905C339.851 194.405 329.887 196.976 325.579 197.169C313.236 197.748 305.779 190.162 305.779 190.162L312.851 189.583C312.851 189.583 318.058 193.698 324.615 188.362C337.344 178.012 344.929 152.683 353.287 136.354C357.915 127.226 364.28 115.14 368.651 109.161C376.237 98.7471 383.308 92.7685 391.858 90.3899C396.23 89.1684 403.301 90.0684 403.301 90.0684Z" fill="#F5A300"/>
<path d="M388.194 101.319C388.194 101.319 394.944 90.9043 403.366 92.3186C413.78 94.0543 420.787 117.969 420.787 117.969C420.787 117.969 409.794 98.2972 400.987 94.5686C395.78 92.3828 388.194 101.319 388.194 101.319Z" fill="#F5A300"/>
<path d="M393.98 131.726C393.98 131.726 384.144 132.947 378.423 142.204C375.015 147.733 362.03 170.362 362.03 170.362C362.03 170.362 352.322 184.119 348.915 188.426C344.287 194.405 335.994 199.483 331.687 199.676C320.244 200.19 316.194 193.633 316.194 193.633L321.465 193.247C321.465 193.247 326.608 196.012 331.237 193.505C337.987 189.84 345.829 176.276 349.815 169.976C353.287 164.447 359.908 154.226 364.151 148.183C368.137 142.461 376.43 134.49 384.915 131.983C388.387 131.018 393.98 131.726 393.98 131.726Z" fill="#AABC14"/>
<path d="M382.537 138.99C382.537 138.99 387.937 132.755 392.758 133.526C400.408 134.683 403.944 151.14 403.944 151.14C403.944 151.14 398.158 137.962 392.18 135.198C388.644 133.526 382.537 138.99 382.537 138.99Z" fill="#AABC14"/>
</svg>
