<svg width="480" height="320" viewBox="0 0 480 320" fill="none" xmlns="http://www.w3.org/2000/svg">
<path d="M67.9935 175.087H71.4919C73.8242 175.087 75.9378 173.047 75.9378 169.111C75.9378 165.394 73.7513 163.28 71.4919 163.28H67.9935V175.087ZM67.9935 154.753H71.0546C73.6055 154.753 75.0632 152.421 75.0632 149.87C75.0632 147.173 73.6784 144.841 71.0546 144.841H67.9935V154.753ZM55.3845 135.803H74.4073C83.4449 135.803 87.5993 140.613 87.5993 147.902C87.5993 153.004 85.3399 157.668 80.0193 158.761V158.907C86.3603 159.49 88.9841 164.957 88.9841 169.913C88.9841 178.294 84.9026 184.198 74.4073 184.198H55.3845V135.803ZM109.829 176.545C113.692 176.545 114.129 173.047 114.129 159.928C114.129 146.881 113.692 143.31 109.829 143.31C105.966 143.31 105.602 146.808 105.602 159.928C105.602 173.047 105.966 176.545 109.829 176.545ZM109.829 134.855C122.729 134.855 127.102 141.925 127.102 160C127.102 178.076 122.729 185.145 109.829 185.145C97.0013 185.073 92.5554 178.076 92.5554 160C92.5554 141.925 97.0013 134.855 109.829 134.855M154.944 164.446H155.09L160.119 135.803H178.121V184.125H166.387V148.12H166.241L159.536 184.125H150.425L143.793 148.12H143.647V184.125H131.84V135.803H149.842L154.944 164.446ZM196.269 175.087H199.768C202.1 175.087 204.214 173.047 204.214 169.111C204.214 165.394 202.027 163.28 199.768 163.28H196.269V175.087ZM196.269 154.753H199.331C201.882 154.753 203.339 152.421 203.339 149.87C203.339 147.173 201.882 144.841 199.331 144.841H196.269V154.753ZM183.661 135.803H202.683C211.648 135.803 215.875 140.613 215.875 147.902C215.875 153.004 213.616 157.668 208.295 158.761V158.907C214.636 159.49 217.26 164.957 217.26 169.913C217.26 178.294 213.179 184.198 202.683 184.198H183.661V135.803ZM237.74 145.715H237.595L234.096 166.196H241.166L237.74 145.715ZM229.723 135.803H245.539L257.346 184.125H243.936L242.624 175.671H232.639L231.327 184.125H217.916L229.723 135.803ZM273.381 156.283H275.932C279.503 156.283 281.179 153.951 281.179 150.526C281.179 146.59 279.649 144.913 275.859 144.913H273.454V156.283H273.381ZM260.772 135.803H280.523C290.144 135.803 293.788 141.196 293.788 148.703C293.788 155.117 291.237 159.345 285.552 160.219V160.365C291.675 160.875 293.424 164.738 293.424 171.225V175.306C293.424 177.784 293.424 181.064 294.08 182.011C294.444 182.522 294.663 183.105 295.465 183.469V184.125H282.054C280.815 181.574 280.815 176.982 280.815 174.942V171.662C280.815 166.196 279.722 164.738 276.661 164.738H273.308V184.125H260.699V135.803H260.772ZM311.864 175.087H314.342C319.225 175.087 319.808 173.047 319.808 160C319.808 146.954 319.225 144.913 314.342 144.913H311.864V175.087ZM299.255 135.803H317.549C332.125 135.803 332.854 147.319 332.854 160C332.854 172.682 332.125 184.198 317.549 184.198H299.255V135.803ZM337.883 135.803H350.492V184.125H337.883V135.803ZM384.748 146.08H368.713V154.388H383.727V164.228H368.713V173.848H385.331V184.125H356.104V135.803H384.748V146.08ZM402.531 156.283H405.009C408.581 156.283 410.33 153.951 410.33 150.526C410.33 146.59 408.799 144.913 405.009 144.913H402.604V156.283H402.531ZM389.995 135.803H409.674C419.295 135.803 422.939 141.196 422.939 148.703C422.939 155.117 420.461 159.345 414.703 160.219V160.365C420.825 160.875 422.647 164.738 422.647 171.225V175.306C422.647 177.784 422.647 181.064 423.23 182.011C423.522 182.522 423.886 183.105 424.615 183.469V184.125H411.205C409.966 181.574 409.966 176.982 409.966 174.942V171.662C409.966 166.196 408.872 164.738 405.811 164.738H402.531V184.125H389.922V135.803H389.995Z" fill="#231F20"/>
</svg>
