<svg width="480" height="320" viewBox="0 0 480 320" fill="none" xmlns="http://www.w3.org/2000/svg">
<path d="M194.627 137.206C194.627 136.708 194.959 136.376 195.456 136.376H219.849C230.137 136.376 235.613 141.189 235.613 148.988C235.613 154.132 232.129 157.285 228.478 158.446C232.792 159.774 236.609 163.59 236.609 169.73C236.609 177.861 231.133 183.171 220.181 183.171H195.456C194.959 183.171 194.627 182.839 194.627 182.341V137.206ZM203.421 144.01V155.459H218.854C223.998 155.459 226.487 153.468 226.487 149.651C226.487 145.669 223.832 143.844 218.854 143.844H203.421V144.01ZM203.421 162.926V175.869H219.185C224.993 175.869 227.648 173.546 227.648 169.398C227.648 165.084 224.827 162.926 219.185 162.926H203.421ZM247.561 159.94C247.561 145.835 258.181 135.713 272.119 135.713C286.058 135.713 296.678 145.835 296.678 159.94C296.678 173.878 286.058 184.166 272.119 184.166C258.015 184.166 247.561 174.044 247.561 159.94ZM287.717 159.94C287.717 150.979 281.578 143.844 272.285 143.844C262.993 143.844 256.853 151.145 256.853 159.94C256.853 169.066 262.993 176.035 272.285 176.035C281.412 176.201 287.717 168.9 287.717 159.94ZM307.962 159.94C307.962 145.835 318.582 135.713 332.52 135.713C346.459 135.713 357.079 145.835 357.079 159.94C357.079 173.878 346.459 184.166 332.52 184.166C318.416 184.166 307.962 174.044 307.962 159.94ZM348.118 159.94C348.118 150.979 341.979 143.844 332.686 143.844C323.394 143.844 317.254 151.145 317.254 159.94C317.254 169.066 323.394 176.035 332.686 176.035C341.813 176.201 348.118 168.9 348.118 159.94ZM397.734 170.725L411.672 137.04C411.838 136.708 412.004 136.542 412.336 136.542H423.786C424.284 136.542 424.615 136.874 424.615 137.372V182.673C424.615 183.171 424.284 183.503 423.786 183.503H416.65C416.153 183.503 415.821 183.171 415.821 182.673V145.005L400.223 183.171C400.057 183.503 399.891 183.669 399.559 183.669H394.581C394.249 183.669 393.917 183.503 393.917 183.171L378.485 145.337V182.673C378.485 183.171 378.153 183.503 377.655 183.503H371.018C370.52 183.503 370.188 183.171 370.188 182.673V137.372C370.188 136.874 370.52 136.542 371.018 136.542H382.965C383.297 136.542 383.629 136.708 383.629 137.04L397.734 170.725ZM158.95 160.105C158.784 158.778 157.623 157.948 156.295 158.114L129.414 161.765L157.125 150.149C158.453 149.651 159.116 147.992 158.618 146.665C158.121 145.337 156.461 144.673 155.134 145.171L133.562 154.298L154.47 138.202C155.798 137.206 155.963 135.381 154.968 134.053C153.972 132.726 152.147 132.56 150.819 133.556L133.396 146.996L148.496 127.084C149.492 125.757 149.326 123.765 147.833 122.604C146.505 121.608 144.514 121.774 143.352 123.267L130.907 139.695L140.199 117.792C140.863 116.132 140.199 114.307 138.54 113.477C136.881 112.813 135.055 113.477 134.226 115.137L116.139 157.45C114.479 161.267 110.497 163.922 106.016 163.922C101.702 163.922 98.2174 161.433 96.3921 157.616L76.9775 113.643C76.8115 113.145 76.1478 112.813 75.65 113.145C75.1522 113.311 74.8203 113.975 75.1522 114.473L92.4096 153.302L68.3487 122.272C67.8509 121.774 67.0213 121.608 66.5234 122.106C66.0256 122.604 65.8597 123.433 66.3575 123.931L90.4184 154.961L61.8772 133.224C61.2135 132.726 60.2178 132.892 59.72 133.556C59.2222 134.219 59.3882 135.215 60.0519 135.713L89.7546 158.446L58.2266 145.669C57.231 145.337 56.2353 145.669 55.7375 146.665C55.4057 147.66 55.7375 148.656 56.7332 149.154L89.7546 162.595L57.7288 158.446C56.5672 158.28 55.5716 159.11 55.4057 160.271C55.2397 161.433 56.0694 162.429 57.231 162.595L90.9162 166.909L60.7156 171.057C59.3882 171.223 58.5585 172.385 58.7244 173.712C58.8903 175.04 60.0519 175.869 61.3794 175.704L92.7415 171.389L66.6894 182.341C65.3619 182.839 64.6981 184.498 65.1959 185.826C65.6938 187.153 67.3531 187.817 68.6806 187.319L96.3921 175.704L75.484 191.965C74.1565 192.961 73.9906 194.786 74.9862 196.114C75.9818 197.441 77.8072 197.607 79.1347 196.612L100.872 179.852L86.4359 198.769C85.4403 200.096 85.6062 202.088 87.0996 203.249C88.4271 204.245 90.4184 204.079 91.5799 202.585L105.021 184.83L97.5537 202.419C96.8899 204.079 97.5537 205.904 99.213 206.734C100.872 207.397 102.698 206.734 103.527 205.074L109.335 191.302L115.807 206.07C115.973 206.568 116.636 206.9 117.134 206.568C117.632 206.402 117.964 205.738 117.632 205.24L110.331 188.647L112.488 183.669L127.09 202.585C127.588 203.083 128.418 203.249 128.916 202.751C129.414 202.253 129.579 201.424 129.082 200.926L113.484 180.848L114.645 177.861L138.042 195.782C138.706 196.28 139.702 196.114 140.199 195.45C140.697 194.786 140.531 193.791 139.868 193.293L115.807 174.874L116.305 173.712L147.169 186.324C148.164 186.655 149.16 186.324 149.658 185.328C149.99 184.332 149.658 183.337 148.662 182.839L119.125 170.891L153.474 175.372C154.636 175.538 155.632 174.708 155.798 173.546C155.963 172.385 155.134 171.389 153.972 171.223L124.933 167.573L156.793 163.258C158.121 162.595 159.116 161.433 158.95 160.105Z" fill="black"/>
</svg>
