<svg width="480" height="320" viewBox="0 0 480 320" fill="none" xmlns="http://www.w3.org/2000/svg">
<path fill-rule="evenodd" clip-rule="evenodd" d="M94.0898 257.619H98.0932V239.826H94.0898V234.487H135.015C139.612 235.673 143.616 242.345 137.24 247.092V247.832C139.612 248.722 141.391 251.392 141.095 255.246C140.65 259.102 139.167 261.624 135.015 262.809H94.0898V257.619ZM112.18 244.868H124.34C126.415 244.276 126.268 240.271 124.34 239.827H112.18V244.868ZM124.34 250.799H112.18V257.619H124.34C126.86 256.286 126.711 251.542 124.34 250.799ZM208.267 234.637V240.42H205.004V253.765C213.308 259.696 221.759 258.954 226.654 252.43V239.381H223.689V234.637H234.958V240.42H231.993V254.506C227.247 268.148 199.518 267.998 192.697 254.951V239.381H189.436V234.637H208.267ZM278.553 252.134H275.44L282.409 258.954H288.933V262.809H262.686V258.509H266.689L258.683 251.54H256.014V258.806H258.536V262.809H240.001V258.509H242.669V239.676H240.001V234.635H278.407C282.855 234.635 285.226 236.86 287.006 239.528C287.749 241.011 288.046 244.57 287.304 246.794C286.263 249.612 282.111 252.134 278.553 252.134ZM269.211 239.678H255.272V246.203H269.211C274.105 246.203 273.808 239.678 269.211 239.678ZM309.099 250.354H318.44L314.287 243.386L309.099 250.354ZM321.703 255.543H305.392L303.315 258.361H306.727V262.811H292.343V258.361H296.051L312.066 234.635H324.818L339.053 258.363H341.721V262.809H319.332V258.361H323.335L321.703 255.543ZM366.928 255.543L378.05 266.668H371.526L360.7 255.543H366.928ZM155.48 234.637H175.793C179.649 234.637 186.322 239.236 186.322 243.533V254.803C185.73 258.509 180.836 262.809 176.833 262.809H152.217C149.844 262.809 144.803 258.361 144.21 254.803V242.496C144.358 238.345 150.734 234.637 155.48 234.637ZM174.311 244.721V253.023C171.345 259.401 158.445 259.401 156.072 253.023V244.721C156.072 237.898 174.311 237.752 174.311 244.721Z" fill="#00A651"/>
<path fill-rule="evenodd" clip-rule="evenodd" d="M355.066 234.636H375.529C379.383 234.636 386.057 239.236 385.909 243.533V254.802C385.316 258.509 380.421 262.809 376.418 262.809H375.083L369.301 257.026C371.377 256.137 373.157 254.802 373.899 253.024V244.722C373.899 237.751 355.661 237.899 355.661 244.722V253.024C356.551 255.399 358.923 256.878 361.592 257.474L366.93 262.811H351.807C349.432 262.811 344.391 258.362 343.948 254.804V242.497C344.092 238.343 350.321 234.636 355.066 234.636ZM277.515 68.8581C298.571 68.8581 315.772 85.6119 315.772 106.223C315.772 126.834 298.571 143.59 277.515 143.59C256.458 143.59 239.259 126.836 239.259 106.223C239.259 85.6119 256.458 68.8564 277.515 68.8564V68.8581Z" fill="#00A651"/>
<path fill-rule="evenodd" clip-rule="evenodd" d="M309.839 126.094C309.692 126.392 309.542 126.539 309.394 126.686C308.524 125.817 307.582 125.023 306.577 124.314C299.163 118.828 288.783 115.565 277.514 115.565C266.097 115.565 255.865 118.826 248.45 124.315C247.412 125.056 246.374 125.796 245.484 126.686C245.336 126.539 245.336 126.391 245.188 126.094C246.077 125.353 246.967 124.611 248.005 123.87C255.568 118.384 265.947 114.974 277.512 114.974C288.929 114.974 299.309 118.384 306.872 123.87C307.912 124.611 308.951 125.353 309.839 126.095V126.094Z" fill="white"/>
<path fill-rule="evenodd" clip-rule="evenodd" d="M302.13 134.695C301.982 134.845 301.833 134.845 301.685 134.994L301.238 134.547C295.159 128.764 286.708 125.206 277.514 125.206C268.172 125.206 259.868 128.764 253.789 134.547C253.566 134.658 253.365 134.809 253.197 134.992C253.047 134.845 252.899 134.845 252.75 134.695C252.899 134.398 253.197 134.25 253.343 134.102C259.906 127.991 268.545 124.598 277.514 124.611C286.477 124.626 295.106 128.015 301.685 134.102C301.833 134.252 301.982 134.398 302.13 134.695Z" fill="white"/>
<path fill-rule="evenodd" clip-rule="evenodd" d="M289.675 141.663C289.525 141.663 289.228 141.663 289.082 141.813C288.635 141.218 288.192 140.624 287.747 140.181C286.518 138.65 284.96 137.415 283.189 136.568C281.418 135.721 279.479 135.283 277.515 135.287C273.512 135.287 269.804 137.066 267.136 140.181C266.689 140.626 266.246 141.218 265.801 141.811C265.651 141.663 265.504 141.663 265.354 141.663C265.801 140.921 266.244 140.328 266.689 139.737C269.507 136.622 273.215 134.695 277.515 134.695C281.666 134.695 285.522 136.622 288.192 139.736C288.785 140.328 289.228 140.921 289.675 141.663ZM309.543 85.9108C309.693 86.057 309.841 86.2064 309.841 86.3542C308.952 87.2442 307.913 87.9847 306.875 88.8747C299.312 94.3608 288.932 97.7714 277.515 97.7714C265.949 97.7714 255.569 94.3608 248.008 88.8747C246.97 87.9847 246.08 87.2442 245.042 86.3542C245.191 86.2064 245.339 86.057 245.339 85.9092C246.377 86.7992 247.267 87.5397 248.453 88.2836C255.868 93.768 266.1 97.1786 277.517 97.1786C288.786 97.1786 299.166 93.768 306.58 88.2819C307.617 87.5397 308.655 86.7975 309.543 85.9092V85.9108Z" fill="white"/>
<path fill-rule="evenodd" clip-rule="evenodd" d="M301.832 77.4561L302.277 77.9011L301.686 78.4938C295.458 84.4249 286.857 87.9832 277.515 87.9832C268.024 87.9832 259.572 84.4233 253.344 78.4938C253.047 78.3461 252.899 78.0488 252.604 77.9011L253.049 77.4561C253.346 77.7549 253.495 77.9011 253.791 78.0488C259.87 83.8321 268.173 87.3905 277.515 87.3905C286.709 87.3905 295.161 83.8321 301.239 78.1966C301.389 77.9027 301.684 77.7533 301.832 77.4561Z" fill="white"/>
<path fill-rule="evenodd" clip-rule="evenodd" d="M289.228 70.6367C289.378 70.7862 289.525 70.7862 289.821 70.7862C289.361 71.54 288.814 72.2367 288.19 72.8617C285.522 75.9734 281.665 77.9011 277.514 77.9011C273.213 77.9011 269.507 75.975 266.688 72.86C266.096 72.2673 265.65 71.5251 265.205 70.7845C265.353 70.7845 265.502 70.7845 265.798 70.6367C266.243 71.3789 266.686 71.9717 267.133 72.5645C269.801 75.53 273.509 77.4578 277.512 77.4578C281.515 77.4578 285.223 75.5317 287.744 72.5645C288.338 71.9701 288.785 71.3773 289.228 70.6384V70.6367ZM315.772 106.075V106.668H239.259V106.075H315.772Z" fill="white"/>
<path fill-rule="evenodd" clip-rule="evenodd" d="M250.676 115.417H255.274V96.5847H250.676V91.248H297.386C302.724 92.5814 307.172 99.5502 299.906 104.593V105.334C302.575 106.224 304.652 108.894 304.207 112.897C303.909 116.9 302.279 119.572 297.387 120.904H250.676V115.417ZM286.56 93.7686C284.187 98.2186 273.067 97.1791 269.211 94.0675V93.7686H286.56ZM269.211 97.3269C273.809 98.9575 283.891 98.2169 288.785 96.2891C289.525 98.9575 289.082 102.815 287.005 103.554H269.211V97.3269ZM287.3 117.197C280.924 114.38 273.658 114.825 269.21 116.16V117.345H287.003C287.152 117.345 287.3 117.197 287.3 117.197ZM269.211 113.342C271.88 112.452 283.891 113.045 289.379 114.082C290.12 111.265 289.379 107.409 287.005 106.669H269.211V113.342Z" fill="white"/>
<path fill-rule="evenodd" clip-rule="evenodd" d="M241.037 53.7317C231.103 58.625 224.577 66.0389 224.429 74.64C210.344 84.5744 216.718 107.558 223.539 120.31C225.763 117.79 224.282 110.821 222.947 105.928C222.206 102.962 221.464 88.5777 226.209 77.31C230.065 68.5611 237.922 60.7006 248.006 53.4362C256.607 52.8434 269.804 54.7712 276.476 60.1111C234.216 64.1128 221.761 108.3 248.154 136.178C255.272 143.739 264.614 147.595 273.658 153.675C266.244 155.9 257.2 155.01 247.709 156.344C238.367 157.529 234.216 166.427 240.888 173.247C243.111 173.247 244.595 169.689 246.671 168.503C247.561 167.91 249.786 168.206 251.564 170.281C244.446 169.393 243.558 182.59 254.975 184.221C255.568 183.63 254.085 182.738 254.234 181.405C254.382 180.07 256.458 178.291 256.903 180.217C257.05 180.666 257.2 181.255 257.643 181.405C258.236 181.554 258.384 180.96 258.533 180.367C258.83 179.477 261.054 179.477 261.054 180.666C261.054 181.85 261.5 181.702 261.647 181.702C262.239 181.702 262.239 181.405 262.387 180.812C262.684 179.922 264.464 180.367 264.464 180.961C264.612 182.147 266.688 182.74 267.875 182.887C276.179 183.777 293.084 181.702 296.642 187.781C297.827 187.04 297.53 185.855 301.238 185.26C305.094 184.814 311.322 186.743 313.397 188.671C315.473 190.746 316.808 194.452 314.286 195.49C314.138 190.746 311.913 191.19 307.021 191.638C301.831 192.229 294.268 196.234 306.575 195.49C305.24 196.825 302.571 198.158 298.271 197.567C294.713 197.27 293.97 199.792 297.826 200.236C300.199 200.535 305.24 200.385 307.02 198.456C308.65 196.53 309.392 199.346 308.355 200.086C304.351 202.755 298.566 203.646 291.895 203.498C284.331 203.498 275.287 207.057 267.43 210.763C265.353 211.802 265.799 213.137 264.018 212.84C262.98 212.691 262.535 211.356 261.645 211.356C251.413 215.806 241.627 216.1 231.247 214.766C219.681 213.283 210.339 206.464 199.515 199.346C206.336 198.011 209.153 196.38 210.341 193.119C206.781 195.49 197.143 198.308 190.915 191.782C193.733 192.231 199.664 192.672 200.849 189.114C204.705 188.521 205.595 185.703 204.705 184.963C193.436 192.526 184.687 188.669 183.055 183.332C184.39 183.777 189.58 185.853 192.396 183.332C196.547 183.035 199.365 179.477 198.772 178.439C191.061 183.038 178.458 183.927 174.751 174.288C174.898 174.587 182.462 178.142 186.761 174.733C191.211 174.882 195.51 170.877 195.065 169.84C191.505 171.62 168.522 175.178 168.967 160.35C169.115 161.092 175.046 166.876 179.792 164.501C185.723 166.577 191.358 164.354 190.764 163.019C180.087 161.981 175.639 162.278 171.043 159.163C167.187 156.642 164.222 152.194 165.261 146.56C169.412 152.045 171.34 152.639 175.936 152.639C181.72 155.457 187.948 155.605 188.986 154.715C187.355 153.529 183.055 152.491 175.343 150.266C167.93 148.041 161.109 139.889 163.926 130.693C167.337 138.552 169.71 140.628 175.196 140.775C181.869 145.076 187.8 146.411 190.173 145.818C187.95 143.743 182.166 141.073 179.051 140.332C169.71 137.959 162.296 130.693 166.004 116.458C167.931 123.576 170.897 128.618 175.79 128.765C179.053 132.769 184.094 134.994 187.802 135.884C190.025 137.662 192.4 138.997 193.881 138.849C193.733 133.659 181.573 131.731 174.605 125.207C168.823 119.869 165.115 103.706 173.419 96.4399C172.677 108.154 173.864 110.527 178.608 113.788C180.683 120.164 185.133 124.614 188.987 125.65C194.918 130.396 195.808 132.471 198.477 133.806C195.511 125.948 182.611 118.979 178.903 110.823C172.082 95.2543 182.611 78.645 189.728 78.2016C185.872 83.6877 182.166 89.916 187.207 98.5154C185.575 105.929 188.838 110.97 194.027 114.975C196.102 118.238 199.069 123.872 203.666 126.987C200.7 113.345 196.547 116.015 191.358 100.593C186.908 87.9899 193.434 65.1539 214.342 61.8911C205.296 68.86 201.887 72.7172 202.776 85.3199C197.587 93.6238 200.7 100.297 204.851 108.452C207.817 114.532 210.782 120.906 214.045 124.614C214.342 119.276 212.859 114.236 210.042 108.154C206.928 101.928 205.296 94.5121 206.336 86.6533C208.267 70.7844 219.686 54.4739 241.037 53.7317ZM283.594 190.745C284.632 190.745 285.373 191.485 285.373 192.375C285.378 192.57 285.341 192.764 285.264 192.943C285.187 193.122 285.073 193.283 284.928 193.413C286.263 193.116 287.3 191.93 288.338 189.853C283.297 192.227 280.924 188.667 278.256 190.002C279.74 191.633 281.074 192.671 282.259 193.116C282.074 192.913 281.968 192.65 281.962 192.375C281.962 191.485 282.706 190.745 283.594 190.745Z" fill="#D2AB67"/>
</svg>
