<svg width="480" height="320" viewBox="0 0 480 320" fill="none" xmlns="http://www.w3.org/2000/svg">
<path d="M308.544 218.399C304.476 203.101 300.41 187.803 296.345 172.504C308.733 170.125 318.836 165.448 326.381 158.528C334.663 150.928 340.252 141.9 342.984 131.696C343.962 128.038 344.452 124.552 344.452 121.247C344.452 115.695 343.073 110.657 340.32 106.189C338.307 102.927 335.426 100.378 331.678 98.5469L331.68 98.5476H408.129L394.416 221.602H357.316L360.955 201.592H321.053L308.544 218.399ZM365.677 175.605L373.858 130.632H373.52L340.39 175.605H365.677Z" fill="#202688"/>
<path d="M191.652 221.604C198.713 219.527 205.09 216.291 210.733 211.912C221.381 203.643 228.178 194.225 230.936 183.923C231.809 180.669 232.244 177.638 232.244 174.843C232.244 167.163 228.927 161.293 222.505 157.426C228.819 154.847 234.119 151.316 238.29 146.854C243.728 141.033 247.383 134.727 249.155 128.106C249.886 125.372 250.253 122.724 250.253 120.178C250.253 117.745 249.919 115.405 249.25 113.18C247.853 108.518 245.159 104.713 241.24 101.872C239.386 100.526 237.376 99.41 235.253 98.5479H313.462C325.504 98.5479 333.477 101.702 337.36 108.013C341.248 114.323 342.001 121.919 339.629 130.796C337.055 140.4 331.854 148.792 324.031 155.968C316.203 163.146 305.529 167.737 292.017 169.744L305.798 221.602H251.469L246.826 171.423L222.786 221.602H191.618L191.652 221.604ZM257.854 148.426H265.045C268.279 148.426 270.113 147.665 271.202 147.217C274.894 145.692 277.757 143.796 280.185 141.175C282.617 138.554 284.16 136.024 284.814 133.586C285.641 130.493 285.256 128.06 283.667 126.294C282.073 124.525 277.821 123.637 270.906 123.637H269.73L257.854 148.426Z" fill="#F7F619"/>
<path d="M240.028 101.104L240.551 101.43L241.239 101.872C245.162 104.716 247.854 108.518 249.25 113.18C249.916 115.398 250.253 117.753 250.253 120.178C250.253 122.72 249.881 125.387 249.155 128.106C247.384 134.727 243.728 141.033 238.29 146.854C234.736 150.656 230.17 153.865 224.719 156.393L222.602 157.374L224.472 158.77C229.629 162.615 232.243 168.023 232.243 174.843C232.243 177.638 231.803 180.691 230.936 183.923C228.178 194.225 221.381 203.643 210.733 211.912C207.23 214.632 203.21 216.996 198.79 218.938L192.729 221.603H222.787C222.787 221.603 243.178 179.038 246.827 171.423L251.469 221.602H305.797C305.797 221.602 292.769 172.581 292.017 169.744C305.47 167.747 316.242 163.111 324.031 155.968C331.82 148.822 337.071 140.352 339.63 130.797C340.519 127.47 340.964 124.27 340.964 121.283C340.964 116.36 339.756 111.896 337.36 108.013C333.491 101.732 325.449 98.5479 313.462 98.5479H235.923L240.028 101.104ZM240.319 148.754C246.073 142.593 249.951 135.89 251.84 128.829C252.63 125.873 253.032 122.962 253.032 120.178C253.032 117.481 252.655 114.855 251.915 112.381C250.597 107.984 248.197 104.307 244.877 101.327L313.462 101.33C324.421 101.33 331.662 104.069 334.992 109.472C337.111 112.911 338.187 116.884 338.187 121.283C338.187 124.026 337.767 126.987 336.942 130.077C334.521 139.113 329.548 147.134 322.152 153.919C314.778 160.681 304.503 165.079 291.605 166.994L288.529 167.453C288.529 167.453 301.315 215.559 302.18 218.821H254.004C253.782 216.414 248.668 161.144 248.668 161.144L221.036 218.821H205.127C207.721 217.381 210.206 215.84 212.438 214.108C223.577 205.458 230.705 195.544 233.621 184.642C234.551 181.177 235.02 177.881 235.02 174.843C235.02 167.87 232.468 162.264 227.685 157.989C232.66 155.456 236.933 152.38 240.319 148.754Z" fill="#202688"/>
<path d="M270.606 123.637H269.73L257.854 148.425H265.046C268.271 148.425 270.106 147.67 271.205 147.217C274.943 145.673 277.796 143.753 280.185 141.174C282.608 138.561 284.165 136.009 284.814 133.586C285.098 132.528 285.238 131.54 285.238 130.647C285.238 128.921 284.709 127.456 283.667 126.294C282.084 124.53 277.787 123.637 270.906 123.637H270.606ZM267.724 134.26C267.724 134.26 270.844 127.751 271.474 126.431C279.808 126.502 281.442 127.977 281.596 128.151C282.174 128.798 282.459 129.614 282.459 130.648C282.459 131.298 282.349 132.043 282.125 132.867C281.596 134.848 280.254 137.008 278.148 139.284C276.038 141.557 273.494 143.26 270.143 144.644C269.12 145.067 267.718 145.646 265.046 145.646H262.271C263.654 142.762 267.724 134.26 267.724 134.26Z" fill="#202688"/>
<mask id="mask0_730_18641" style="mask-type:luminance" maskUnits="userSpaceOnUse" x="66" y="83" width="197" height="148">
<path d="M161.213 195.019H166.61C180.802 195.019 189.179 190.264 191.727 180.755C192.622 177.402 192.301 174.762 190.771 172.829C189.232 170.899 185.306 169.932 178.985 169.932H173.271L161.213 195.019ZM184.463 146.635H185.36C190.924 146.635 192.546 146.25 195.79 145.468C199.031 144.693 201.913 143.069 204.438 140.596C206.962 138.124 208.566 135.636 209.234 133.135C210.037 130.139 209.648 127.804 208.072 126.138C206.494 124.471 202.742 123.637 196.813 123.637H195.513L184.463 146.635ZM262.151 230.344H66.1006V83.8857H255.198L262.151 230.344Z" fill="white"/>
</mask>
<g mask="url(#mask0_730_18641)">
<path d="M171.228 221.602C186.222 221.602 198.817 217.639 209.027 209.714C219.231 201.791 225.643 192.951 228.251 183.203C231.821 169.871 227.548 161.215 215.436 157.238L215.525 156.902C224.198 154.448 231.109 150.46 236.259 144.955C241.401 139.448 244.807 133.597 246.468 127.389C247.77 122.526 247.811 118.055 246.589 113.978C245.365 109.899 243.042 106.611 239.607 104.124C236.174 101.636 232.329 100.089 228.06 99.4706C223.788 98.8552 218.228 98.5475 211.373 98.5475L89.1439 98.5098L158.572 104.413L103.295 106.029L155.764 110.266L122.732 111.882L152.952 116.117L119.921 117.736L150.308 121.85L117.109 123.589L147.497 127.702L114.298 129.44L144.686 133.556L111.488 136.128L141.708 139.528L109.275 142.453L139.065 145.26L105.865 148.667L136.252 151.113L103.055 154.937L133.443 156.965L100.242 160.787L130.633 162.818L97.434 167.476L127.651 168.791L94.6208 173.745L124.841 174.645L91.811 180.015L122.201 180.375L88.9998 186.286L119.388 186.228L86.1887 192.138L116.578 192.078L83.3789 197.989L113.765 197.931L80.5691 203.842L110.956 203.786L77.7559 209.695L107.977 209.759L74.9461 215.546L105.333 215.491L72.7573 221.679L171.228 221.602Z" fill="#202688"/>
</g>
</svg>
