<svg width="480" height="320" viewBox="0 0 480 320" fill="none" xmlns="http://www.w3.org/2000/svg">
<path d="M109.058 145.42L113.797 133.213L143.695 133.449C149.434 133.53 149.826 130.285 151.987 127.637L147.343 142.692C146.475 145.243 143.872 145.739 139.791 145.707L109.058 145.42Z" fill="#2C5AA0"/>
<path d="M103.638 159.332L108.341 147.089L139.532 147.361C145.27 147.442 145.662 144.197 147.824 141.549L143.178 156.603C142.311 159.154 139.709 159.651 135.627 159.619L103.638 159.332Z" fill="#D40000"/>
<path d="M98.314 173.719L93.575 185.926L63.6766 185.689C57.9379 185.608 57.5462 188.853 55.3848 191.502L60.0295 176.447C60.897 173.896 63.4993 173.4 67.5813 173.431L98.314 173.719Z" fill="#2C5AA0"/>
<path d="M103.734 159.807L99.0307 172.049L67.8397 171.777C62.101 171.696 61.7093 174.941 59.5479 177.589L64.1926 162.535C65.0601 159.984 67.6627 159.488 71.7448 159.519L103.734 159.807ZM117.979 165.659L130.186 170.398L129.949 200.296C129.868 206.035 133.113 206.427 135.762 208.588L120.707 203.943C118.156 203.076 117.66 200.473 117.691 196.391L117.979 165.659Z" fill="#D40000"/>
<path d="M104.067 160.239L116.31 164.943L116.038 196.133C115.957 201.872 119.202 202.264 121.85 204.425L106.796 199.78C104.245 198.913 103.748 196.311 103.78 192.229L104.067 160.239Z" fill="#2C5AA0"/>
<path d="M89.6801 154.34L77.4731 149.601L77.7097 119.703C77.7907 113.964 74.5454 113.573 71.897 111.411L86.9514 116.056C89.5024 116.923 89.9988 119.526 89.9674 123.608L89.6801 154.34Z" fill="#D40000"/>
<path d="M103.592 159.761L91.3492 155.058L91.6215 123.867C91.7025 118.128 88.4575 117.737 85.8091 115.575L100.864 120.22C103.415 121.087 103.911 123.69 103.88 127.772L103.592 159.761Z" fill="#2C5AA0"/>
<path d="M313.871 188.279C311.452 188.279 309.928 186.302 309.928 183.52V158.641H315.396C320.179 158.641 321.646 152.894 321.646 152.894H309.928V141.402L290.662 158.641H297.545V184.057C297.545 191.424 303.554 195.281 309.837 195.281C314.051 195.281 318.45 193.487 321.14 189.805L321.122 189.768C320.2 188.665 319.388 187.474 318.698 186.212C316.902 187.653 315.214 188.279 313.87 188.279M182.935 188.009H177.105V163.762H182.936C189.933 163.762 195.583 168.703 195.583 175.885C195.583 183.16 189.84 188.009 182.936 188.009M177.105 136.913H180.961C187.958 136.913 192.352 140.594 192.352 147.508C192.352 153.344 187.599 158.014 180.961 158.014H177.105V136.913ZM193.79 159.902C201.772 157.655 205.897 152.087 205.897 146.34C205.897 137.807 198.092 131.162 187.24 131.162H160.51C162.483 132.6 163.83 134.936 163.83 137.448V193.849H186.613C199.619 193.849 209.845 186.479 209.845 176.065C209.845 168.162 203.206 161.608 193.79 159.902M251.182 146.161C254.945 146.161 258.084 143.017 258.084 139.156C258.084 135.383 254.945 132.239 251.182 132.239C247.323 132.239 244.273 135.383 244.273 139.156C244.273 143.017 247.323 146.161 251.182 146.161ZM257.547 189.327V152.893H243.108C244.632 153.973 245.26 155.23 245.26 157.294V189.447C245.26 189.465 245.26 189.487 245.258 189.507V193.849H257.546V189.327H257.547M240.789 154.608C239.173 152.72 236.749 151.639 234.236 151.639C231.009 151.639 227.509 153.434 225.266 157.836C224.64 154.87 222.666 152.894 218.986 152.894H210.825C212.349 153.972 212.978 155.23 212.978 157.294V193.847H225.265V189.365H225.266V166.726C226.698 162.683 230.107 160.797 233.339 160.797C236.387 160.797 239.351 162.413 240.789 165.375V154.606M277.621 167.265C273.494 165.557 271.345 164.212 271.345 161.698C271.345 158.286 275.29 157.477 277.982 157.477C282.377 157.477 286.5 160.17 288.566 163.85V153.614C285.874 152.447 281.299 151.639 277.89 151.639C269.82 151.639 261.567 155.23 261.567 164.481C261.567 170.858 265.422 175.346 272.508 178.13C277.89 180.196 279.955 182.082 279.955 184.865C279.955 188.187 276.546 189.267 273.407 189.267C268.92 189.267 265.422 187.201 263.808 182.62V193.395C265.963 194.205 269.641 195.104 273.406 195.104C281.66 195.104 290.989 190.974 290.989 181.363C290.989 175.165 286.863 171.128 277.621 167.265Z" fill="black"/>
<path d="M343.732 189.177C336.104 189.177 332.699 177.862 332.699 171.844C332.699 163.942 336.555 157.836 341.756 157.836C349.378 157.836 352.701 168.882 352.701 174.895C352.701 182.889 348.845 189.177 343.732 189.177ZM342.745 151.728C330.095 151.728 319.963 161.34 319.963 173.371C319.963 185.405 330.095 195.282 342.744 195.282C355.302 195.282 365.529 185.405 365.529 173.371C365.529 161.34 355.302 151.728 342.744 151.728M416.544 152.893C417.17 153.448 417.39 153.744 417.39 154.282C417.39 154.732 417.299 155.319 417.122 155.769L408.962 174.895L397.476 151.66L385.992 174.989L378.998 158.642C377.561 155.256 374.829 153.123 370.755 152.893H370.756H361.843C362.399 153.344 363.013 153.83 363.45 154.424C363.767 154.852 364.114 155.245 364.514 156.17L364.521 156.166L382.046 195.275L393.886 171.398L405.635 195.275L423.667 155.143C423.674 155.112 423.699 155.086 423.712 155.053L424.615 152.894H416.542" fill="black"/>
</svg>
