<svg width="480" height="320" viewBox="0 0 480 320" fill="none" xmlns="http://www.w3.org/2000/svg">
<path d="M149.103 132.767H115.858L111.566 144.57H144.813C147.817 144.57 151.139 142.135 152.235 139.124L156.528 127.316C155.431 130.328 152.128 132.582 149.103 132.767" fill="#0065A4"/>
<path d="M143.494 148.199H110.245L105.955 160.004H139.2C142.208 160.004 145.53 157.564 146.624 154.555L150.914 142.755C149.823 145.762 146.538 148.065 143.494 148.199Z" fill="#E31B23"/>
<path d="M62.8047 187.233H96.0529L100.341 175.433H67.0949C64.0908 175.433 60.7672 177.871 59.6743 180.88L55.3848 192.684C56.4777 189.673 59.7821 187.421 62.8047 187.234" fill="#0065A4"/>
<path d="M68.4147 171.801H101.665L105.954 159.998H72.7062C69.7028 159.998 66.3779 162.44 65.285 165.447L60.9951 177.249C62.0871 174.24 65.3707 171.936 68.4151 171.801M78.7521 116.797V150.087L90.5382 154.381V121.091C90.5382 118.084 88.1023 114.757 85.0989 113.661L73.3111 109.366C76.3162 110.462 78.567 113.772 78.7521 116.797Z" fill="#E31B23"/>
<path d="M94.1672 122.413V155.702L105.955 159.998V126.71C105.955 123.703 103.517 120.379 100.514 119.282L88.7246 114.987C91.7297 116.079 94.0305 119.364 94.1672 122.413Z" fill="#0065A4"/>
<path d="M133.156 203.204V169.916L121.368 165.621V198.907C121.368 201.916 123.805 205.241 126.81 206.338L138.597 210.634C135.592 209.538 133.344 206.23 133.156 203.205" fill="#E31B23"/>
<path d="M117.743 197.585V164.297L105.954 160.002V193.287C105.954 196.301 108.389 199.624 111.396 200.721L123.184 205.014C120.177 203.92 117.881 200.634 117.743 197.585" fill="#0065A4"/>
<path d="M318.577 196.87C316.261 196.87 314.802 194.977 314.802 192.313V168.493H320.037C324.617 168.493 326.021 162.989 326.021 162.989H314.802V151.986L296.354 168.493H302.945V192.828C302.945 199.881 308.699 203.575 314.714 203.575C318.75 203.575 322.961 201.857 325.537 198.332L325.521 198.296C324.637 197.24 323.86 196.1 323.199 194.892C321.479 196.271 319.863 196.87 318.577 196.87M193.208 196.611H187.626V173.396H193.209C199.909 173.396 205.318 178.126 205.318 185.003C205.318 191.969 199.819 196.611 193.209 196.611M187.626 147.688H191.318C198.018 147.688 202.225 151.212 202.225 157.832C202.225 163.42 197.674 167.891 191.318 167.891H187.626V147.688ZM203.602 169.699C211.244 167.548 215.194 162.216 215.194 156.714C215.194 148.545 207.722 142.182 197.331 142.182H171.737C173.625 143.558 174.916 145.795 174.916 148.201V202.203H196.73C209.184 202.203 218.974 195.146 218.974 185.175C218.974 177.608 212.618 171.332 203.602 169.699ZM258.553 156.543C262.157 156.543 265.162 153.533 265.162 149.836C265.162 146.223 262.157 143.213 258.553 143.213C254.859 143.213 251.938 146.223 251.938 149.836C251.938 153.533 254.859 156.543 258.553 156.543ZM264.648 197.874V162.989H250.823C252.282 164.022 252.884 165.226 252.884 167.203V197.989C252.884 198.006 252.884 198.027 252.882 198.046V202.203H264.647V197.874H264.648ZM248.602 164.631C247.055 162.823 244.734 161.788 242.328 161.788C239.238 161.788 235.887 163.506 233.74 167.722C233.14 164.882 231.249 162.989 227.727 162.989H219.913C221.372 164.022 221.973 165.226 221.973 167.203V202.203H233.739V197.912H233.74V176.235C235.111 172.364 238.374 170.558 241.469 170.558C244.388 170.558 247.225 172.105 248.602 174.941V164.63M283.869 176.749C279.917 175.114 277.859 173.826 277.859 171.42C277.859 168.152 281.637 167.378 284.214 167.378C288.423 167.378 292.369 169.956 294.348 173.479V163.679C291.77 162.561 287.39 161.788 284.126 161.788C276.399 161.788 268.497 165.226 268.497 174.084C268.497 180.19 272.188 184.488 278.973 187.153C284.126 189.131 286.103 190.937 286.103 193.601C286.103 196.782 282.839 197.816 279.833 197.816C275.538 197.816 272.188 195.838 270.643 191.452V201.768C272.706 202.544 276.228 203.405 279.833 203.405C287.735 203.405 296.667 199.45 296.667 190.249C296.667 184.314 292.717 180.448 283.869 176.749Z" fill="#231F20"/>
<path d="M347.17 197.73C339.866 197.73 336.606 186.895 336.606 181.133C336.606 173.568 340.298 167.721 345.278 167.721C352.576 167.721 355.758 178.297 355.758 184.055C355.758 191.709 352.065 197.73 347.17 197.73ZM346.224 161.873C334.113 161.873 324.411 171.076 324.411 182.595C324.411 194.117 334.112 203.575 346.224 203.575C358.247 203.575 368.04 194.117 368.04 182.595C368.04 171.076 358.247 161.873 346.224 161.873ZM416.886 162.989C417.485 163.519 417.696 163.803 417.696 164.318C417.696 164.75 417.609 165.311 417.438 165.742L409.626 184.055L398.629 161.808L387.633 184.144L380.935 168.493C379.56 165.25 376.944 163.208 373.043 162.989H373.044H364.511C365.043 163.42 365.63 163.886 366.049 164.454C366.352 164.864 366.685 165.24 367.068 166.126L367.076 166.122L383.856 203.568L395.192 180.706L406.442 203.568L423.708 165.142C423.716 165.112 423.736 165.087 423.75 165.056L424.615 162.989H416.885" fill="#231F20"/>
</svg>
