<svg width="480" height="320" viewBox="0 0 480 320" fill="none" xmlns="http://www.w3.org/2000/svg">
<path d="M55.3848 188.037C56.1955 187.623 56.5581 186.639 56.5581 185.798V165.157C56.5581 164.283 56.1955 163.329 55.3848 162.89H65.2226C69.6099 162.89 73.8901 164.685 73.8901 169.666C73.8901 172.308 71.5879 174.392 69.1051 174.86C72.6816 174.828 76.1373 177.012 76.1373 180.959C76.1373 186.599 70.2218 188.039 66.0609 188.039H55.3848V188.037ZM63.3486 165.056C62.8928 165.056 62.5761 165.056 61.7363 165.157V173.959H62.7321C65.7473 173.959 68.6615 173.027 68.6615 169.533C68.6615 166.067 66.3316 165.056 63.3486 165.056ZM63.9758 176.224C63.2569 176.224 62.6113 176.224 61.7363 176.29V185.585C62.827 185.799 64.0064 185.869 65.0941 185.869C67.6182 185.869 70.1851 184.744 70.1851 180.887C70.1851 177.081 67.1501 176.224 63.9758 176.224ZM85.8665 165.056C85.4168 165.056 85.0206 165.129 84.577 165.192V173.888C84.9885 173.917 85.3617 173.96 85.7686 173.96C88.5987 173.96 90.6929 172.398 90.6929 169.321C90.6929 166.175 88.6338 165.056 85.8665 165.056ZM98.5466 188.185C97.5829 188.185 96.5197 188.221 95.5988 187.948C93.887 187.444 91.5235 183.586 90.5843 182.073C89.1234 179.613 87.8537 176.224 84.5785 176.188V185.798C84.5785 186.639 84.9594 187.658 85.7702 188.037H78.2178C79.0117 187.623 79.3896 186.677 79.3896 185.798V165.157C79.3896 164.283 79.0102 163.329 78.2178 162.89H87.3106C91.2665 162.89 96.2168 164.409 96.2168 169.162C96.2168 173.15 92.9171 175.193 89.2381 175.193C94.4729 175.224 97.5477 187.503 103.327 187.538C101.777 187.997 100.162 188.185 98.5466 188.185ZM103.706 188.037C104.331 187.751 104.984 186.926 104.984 185.798V165.157C104.984 164.011 104.331 163.2 103.706 162.89H111.445C110.782 163.2 110.176 164.011 110.176 165.157V185.798C110.176 186.926 110.782 187.751 111.445 188.037H103.706ZM120.5 188.037C121.329 187.658 121.735 186.677 121.735 185.798V165.773H116.177C114.895 165.773 113.367 165.931 112.265 166.584L113.992 162.888H132.426C133.919 162.888 135.446 162.856 136.896 162.547C136.194 164.439 134.104 165.842 132.9 165.842C131.436 165.808 129.015 165.71 126.928 165.71V185.796C126.928 186.676 127.364 187.656 128.178 188.036H120.5V188.037ZM137.817 188.037C138.435 187.751 139.083 186.926 139.083 185.798V165.157C139.083 164.011 138.435 163.2 137.817 162.89H145.556C144.898 163.2 144.268 164.011 144.268 165.157V185.798C144.268 186.926 144.898 187.751 145.556 188.037H137.817ZM160.624 182.348C160.624 177.558 149.342 176.477 149.342 168.831C149.342 164.098 153.844 162.548 157.803 162.548C159.57 162.548 162.126 162.793 163.741 163.537L164.023 168.238C163.03 166.162 160.544 164.658 158.236 164.658C156.411 164.658 154.499 165.56 154.499 167.647C154.499 172.614 165.972 173.827 165.972 181.069C165.972 186.325 161.38 188.502 156.744 188.502C154.32 188.502 151.022 188.036 148.976 186.637C148.852 185.796 148.796 184.916 148.796 184.055C148.796 183.029 148.886 181.999 149.037 180.986C150.313 183.895 152.954 186.169 156.252 186.169C158.757 186.171 160.624 185.079 160.624 182.348ZM184.794 188.037C185.34 187.791 185.924 186.926 185.924 185.798V176.44C184.578 176.289 182.698 176.223 180.589 176.223C178.447 176.223 176.552 176.289 175.172 176.44V185.798C175.172 186.926 175.741 187.751 176.295 188.037H168.843C169.395 187.791 169.984 186.926 169.984 185.798V165.157C169.984 164.011 169.395 163.166 168.843 162.89H176.295C175.741 163.168 175.172 164.011 175.172 165.157V173.612C176.552 173.757 178.413 173.827 180.589 173.827C182.698 173.827 184.578 173.735 185.924 173.612V165.157C185.924 164.011 185.341 163.166 184.794 162.89H192.235C191.678 163.168 191.125 164.011 191.125 165.157V185.798C191.125 186.926 191.678 187.751 192.235 188.037H184.794ZM219.854 188.037C220.094 187.791 220.312 187.607 220.312 187.162C220.312 187.012 220.255 186.761 220.071 186.293C220.071 186.293 218.006 180.673 217.764 180.018C216.213 179.827 214.596 179.827 213.013 179.827C211.511 179.827 209.986 179.862 208.497 180.018C208.286 180.581 206.073 186.171 206.073 186.171C205.774 186.926 205.672 187.185 205.672 187.35C205.672 187.723 205.993 187.906 206.265 188.037H201.203C201.95 187.658 202.597 186.878 202.917 186.1L211.236 164.629C211.274 164.54 211.288 164.441 211.288 164.32C211.288 163.728 210.894 163.166 210.365 162.888H216.891L225.352 186.079C225.698 187.011 226.435 187.69 227.055 188.036H219.854V188.037ZM213.284 167.676L209.47 177.467C210.607 177.592 211.786 177.621 212.937 177.621C214.255 177.621 215.559 177.621 216.841 177.467L213.284 167.676ZM228.343 188.037C228.967 187.751 229.612 186.926 229.612 185.798V165.157C229.612 164.011 228.967 163.2 228.343 162.89H236.077C235.419 163.2 234.806 164.011 234.806 165.157V185.798C234.806 186.926 235.418 187.751 236.077 188.037H228.343ZM247.835 165.056C247.417 165.056 247.016 165.129 246.582 165.192V173.888C246.986 173.917 247.354 173.96 247.748 173.96C250.584 173.96 252.673 172.398 252.673 169.321C252.672 166.175 250.605 165.056 247.835 165.056ZM261.147 188.185C260.183 188.185 259.143 188.221 258.2 187.948C256.485 187.444 254.128 183.586 253.187 182.073C251.733 179.613 249.839 176.188 246.582 176.188V185.798C246.582 186.639 246.946 187.658 247.748 188.037H240.201C241.012 187.623 241.39 186.677 241.39 185.798V165.157C241.39 164.283 241.012 163.329 240.201 162.89H249.314C253.259 162.89 258.202 164.409 258.202 169.162C258.202 173.15 254.596 175.193 251.867 175.193C257.293 175.505 260.565 187.538 265.949 187.538C264.388 187.997 262.773 188.185 261.147 188.185ZM292.522 165.345L284.879 188.037C284.249 188.037 283.631 187.82 283.281 187.574C282.525 186.845 281.336 183.806 280.908 182.684L277.454 173.959L272.479 188.037H270.111L261.558 165.288C261.191 164.32 260.564 163.391 259.631 162.89H267.064C266.75 163.133 266.534 163.41 266.534 163.939C266.534 164.193 266.66 164.543 266.75 164.814L272.32 179.864L278.251 162.89L284.783 179.253L289.73 164.441C289.852 164.038 289.924 163.89 289.924 163.636C289.924 163.329 289.791 163.133 289.481 162.89H294.403C293.493 163.367 292.835 164.409 292.522 165.345ZM301.657 167.676L297.845 177.467C298.996 177.592 300.172 177.621 301.319 177.621C302.624 177.621 303.943 177.621 305.217 177.467L301.657 167.676ZM308.22 188.037C308.48 187.791 308.677 187.607 308.677 187.162C308.677 187.012 308.601 186.761 308.45 186.293C308.45 186.293 306.398 180.673 306.149 180.018C304.584 179.827 302.97 179.827 301.387 179.827C299.898 179.827 298.372 179.862 296.875 180.018C296.66 180.581 294.461 186.171 294.461 186.171C294.145 186.926 294.058 187.185 294.058 187.35C294.058 187.723 294.365 187.906 294.634 188.037H289.571C290.319 187.658 290.964 186.878 291.278 186.1L299.626 164.629C299.65 164.54 299.673 164.441 299.673 164.32C299.673 163.728 299.279 163.166 298.736 162.888H305.268L313.726 186.079C314.076 187.011 314.822 187.69 315.437 188.036H308.22V188.037ZM330.944 165.53L324.988 175.975V185.798C324.988 186.596 325.315 187.658 326.11 188.037H318.699C319.456 187.623 319.805 186.57 319.805 185.798V175.943L314.627 167.647C314.163 166.871 312.003 163.257 309.37 163.257C310.086 162.984 312.263 162.57 313.724 162.57C316.161 162.57 317.368 162.793 318.859 165.129L323.651 172.723C324.053 171.978 327.847 165.381 327.847 165.381C328.304 164.578 328.618 164.011 328.618 163.729C328.618 163.368 328.462 163.133 328.095 162.89H333.433C332.387 163.391 331.515 164.542 330.944 165.53ZM344.888 182.348C344.888 177.558 333.605 176.477 333.605 168.831C333.605 164.098 338.095 162.548 342.055 162.548C343.828 162.548 346.369 162.793 347.992 163.537L348.273 168.238C347.27 166.162 344.795 164.658 342.485 164.658C340.657 164.658 338.757 165.56 338.757 167.647C338.757 172.614 350.23 173.827 350.23 181.069C350.23 186.325 345.67 188.502 341.001 188.502C338.578 188.502 335.272 188.036 333.224 186.637C333.091 185.796 333.026 184.916 333.026 184.055C333.026 183.029 333.124 181.999 333.28 180.986C334.555 183.895 337.204 186.169 340.502 186.169C343.019 186.171 344.888 185.079 344.888 182.348Z" fill="#2E5C99"/>
<path d="M414.304 145.287C410.076 149.489 400.916 153.096 396.409 154.785C390.252 157.098 387.52 157.917 384.075 159.038C380.175 160.303 372.375 162.663 372.375 162.663C388.534 167.488 399.921 168.943 399.921 168.943C399.921 168.943 405.226 167.303 413.631 162.809C418.182 160.496 420.421 158.939 422.023 157.45C422.613 156.916 424.139 155.328 424.518 153.297C424.542 153.148 424.616 152.76 424.616 152.377C424.616 152.377 424.616 152.108 424.591 151.874C424.582 151.605 424.535 151.424 424.535 151.424C424.535 151.424 424.445 150.943 424.325 150.604C424.201 150.266 423.681 149.223 422.838 148.545C422.275 148.088 421.302 146.948 417.778 145.709C416.58 145.293 414.64 144.909 414.64 144.909L414.304 145.287Z" fill="url(#paint0_linear_730_18662)"/>
<path d="M424.614 152.27C424.614 152.27 424.59 151.821 424.479 151.44C424.394 151.1 424.242 150.776 424.014 150.435C423.739 150.029 423.367 149.554 422.818 149.027C422.404 148.636 421.949 148.29 421.402 147.923C419.197 146.479 416.352 145.665 413.834 145.321C409.931 144.802 405.455 144.894 405.032 144.879C403.592 144.859 394.291 144.935 391.9 144.978C381.282 145.197 368.284 145.226 364.879 145.226C329.727 145.387 314.426 144.629 297.397 141.215C282.91 138.338 274.873 135.604 274.873 135.604C287.651 135.162 362.208 132.069 375.809 131.708C384.714 131.457 391.036 131.403 396.095 131.695C398.689 131.841 401.103 132.061 404.135 132.576C406.854 133.042 409.323 133.831 410.761 134.365C413.789 135.486 416.343 137.108 417.605 138.769C417.605 138.769 417.978 139.151 418.484 139.831C419.052 140.62 419.711 141.591 419.935 141.954C421.778 144.747 422.653 146.502 422.957 147.114C423.286 147.756 423.577 148.423 423.86 149.076C424.137 149.725 424.25 150.118 424.339 150.392C424.533 151.079 424.58 151.704 424.59 151.845L424.614 152.27Z" fill="#CE210F"/>
<defs>
<linearGradient id="paint0_linear_730_18662" x1="408.917" y1="140.184" x2="390.046" y2="172.869" gradientUnits="userSpaceOnUse">
<stop stop-color="#E6EBEF"/>
<stop offset="0.0764" stop-color="#BBCEE5"/>
<stop offset="0.1854" stop-color="#85A9D8"/>
<stop offset="0.2796" stop-color="#5D8FCF"/>
<stop offset="0.3543" stop-color="#457EC9"/>
<stop offset="0.4" stop-color="#3C78C7"/>
<stop offset="0.9" stop-color="#2E5C99"/>
</linearGradient>
</defs>
</svg>
