<svg width="480" height="320" viewBox="0 0 480 320" fill="none" xmlns="http://www.w3.org/2000/svg">
<path d="M209.832 99.3038L240 54.7695L275.197 107.205L347.026 214.949H275.197L278.788 265.948H201.213L204.804 215.667C205.522 214.231 203.367 214.949 202.649 214.949H132.975L209.832 99.3038ZM221.325 90.6842L219.888 93.5574L214.142 164.669L193.311 133.064L183.973 147.429L199.058 171.133H279.507C280.943 171.851 280.943 170.415 281.661 169.697L296.027 147.429L286.69 133.064L265.859 164.669L260.113 93.5574L258.676 91.4025L240 62.6708L221.325 90.6842ZM196.184 128.754L210.55 149.584L214.142 102.177L196.184 128.754ZM265.859 102.177L269.45 149.584L283.098 129.472C283.816 128.754 283.098 127.317 282.38 126.599L265.859 102.177ZM168.171 171.133H193.311L180.382 152.458L168.171 171.133ZM286.69 171.133H311.83L299.619 152.458L286.69 171.133ZM164.58 176.161L141.594 210.639H200.494C203.367 210.639 205.522 208.484 205.522 205.611L206.241 196.992L203.367 194.837C204.804 194.119 206.959 193.4 206.959 191.245L207.677 180.471C207.677 177.598 204.804 176.161 202.649 176.161H164.58ZM210.55 210.639H237.127V197.71H242.874V210.639H269.45L266.577 176.161H213.424L210.55 210.639ZM272.324 176.161L275.197 210.639H338.407L329.787 197.71H305.365L306.802 202.738H301.055L296.746 184.062H301.774L303.929 192.682H326.196L315.421 176.161H272.324ZM209.832 215.667L206.241 261.638H273.76L270.169 215.667H209.832Z" fill="white"/>
<path d="M237.126 184.062H242.873V192.682H237.845L237.126 184.062ZM176.071 192.682L178.226 184.062H183.254L181.099 192.682H176.071ZM174.635 197.71H179.663L178.226 203.456H173.198L174.635 197.71Z" fill="white"/>
<path d="M239.282 53.333H240.718L347.744 214.949V215.667H275.915L279.506 266.666H200.494L204.085 215.667H132.256V214.949L239.282 53.333ZM209.832 99.3038L132.974 214.949H202.649C203.367 214.949 205.522 214.231 204.804 215.667L201.212 265.948H278.788L275.196 214.949H347.026L275.196 107.205L240 54.7696L209.832 99.3038Z" fill="#545454"/>
<path d="M221.324 90.6844L240 62.6709L258.676 91.4027L260.112 93.5575L265.859 164.669L286.689 133.064L296.027 147.43L281.661 169.697C280.943 170.415 280.943 171.852 279.506 171.133H199.057L183.973 147.43L193.311 133.064L214.141 164.669L219.888 93.5575L221.324 90.6844ZM164.579 176.161H202.649C204.804 176.161 207.677 177.598 207.677 180.471L206.959 191.246C206.959 193.4 204.804 194.119 203.367 194.837L206.24 196.992L205.522 205.611C205.522 208.485 203.367 210.639 200.494 210.639H141.594L164.579 176.161ZM176.072 192.682H181.1L183.255 184.063H178.227L176.072 192.682ZM174.635 197.71L173.199 203.457H178.227L179.663 197.71H174.635ZM210.55 210.639L213.423 176.161H266.577L269.45 210.639H242.873L242.155 197.71H237.127V210.639H210.55ZM237.127 184.063L237.845 192.682H242.873V184.063H237.127ZM272.323 176.161H315.421L326.195 192.682H303.928L301.773 184.063H296.745L301.055 202.738H306.801L305.365 197.71H329.787L338.406 210.639H275.196L272.323 176.161ZM209.832 215.668H270.168L273.76 261.638H206.24L209.832 215.668Z" fill="#F75423"/>
<path d="M196.184 128.755L214.142 102.178L210.55 149.585L196.184 128.755ZM265.859 102.178L282.38 126.6C283.098 127.318 283.816 128.755 283.098 129.473L269.45 149.585L265.859 102.178ZM168.171 171.134L180.382 152.458L193.311 171.134H168.171ZM286.689 171.134L299.619 152.458L311.83 171.134H286.689Z" fill="#5535B8"/>
</svg>
