<svg width="480" height="320" viewBox="0 0 480 320" fill="none" xmlns="http://www.w3.org/2000/svg">
<path d="M64.7881 137.539H83.0927C87.1027 137.539 89.977 138.446 91.7195 140.261C93.46 142.076 93.9549 144.679 93.2001 148.073C92.6472 150.559 91.6781 152.542 90.2948 154.02C88.9105 155.498 87.8068 156.548 86.9826 157.169C86.1585 157.791 84.8611 158.606 83.0896 159.614C84.4231 163.108 85.4409 165.603 86.146 167.099C86.8511 168.594 88.1143 170.854 89.9397 173.878L79.6303 179.674C76.8959 175.205 75.084 171.686 74.1977 169.115C73.3093 166.546 72.5276 162.59 71.8515 157.247C74.8344 155.534 76.8783 154.216 77.9799 153.291C79.0816 152.366 79.8944 151.56 80.4172 150.872C80.9401 150.183 81.2611 149.57 81.3801 149.032C81.5675 148.193 81.3977 147.613 80.8707 147.294C80.3427 146.975 79.8809 146.798 79.4854 146.764C79.0878 146.732 78.6436 146.714 78.1508 146.714H60.2148L64.7881 137.539ZM61.9583 148.126H73.036L67.3061 173.89H56.2285L61.9583 148.126ZM101.237 137.539H125.186L125.678 146.714H110.275L109.332 150.949H123.311L118.455 159.973H107.325L106.271 164.712H122.835L117.999 173.888H93.1525L101.237 137.539ZM145.466 173.89C138.398 173.89 133.673 172.361 131.294 169.302C128.915 166.244 127.47 163.404 126.964 160.782C126.457 158.16 126.525 155.405 127.168 152.513C128.215 147.809 130.464 144.137 133.918 141.498C137.37 138.86 141.7 137.54 146.905 137.54H160.62L161.059 146.715H147.607C144.792 146.715 142.634 147.211 141.13 148.203C139.625 149.195 138.631 150.783 138.145 152.968C137.479 155.96 137.965 158.64 139.601 161.01C141.237 163.38 143.48 164.564 146.328 164.564H147.33L148.653 158.615H144.749L146.79 149.439H161.666L156.228 173.892H145.466V173.89ZM169.736 137.539H180.761L172.676 173.889H161.652L169.736 137.539ZM181.069 152.211C181.704 149.354 182.734 146.859 184.159 144.724C185.583 142.59 187.592 140.75 190.187 139.203C192.781 137.658 196.857 136.884 202.414 136.884C207.9 136.884 211.612 137.624 213.552 139.103C215.492 140.583 216.7 142.388 217.174 144.522C217.65 146.657 217.573 149.136 216.944 151.958C216.436 154.244 215.594 156.606 214.42 159.042C213.245 161.48 211.132 164.656 208.08 168.571C205.029 172.487 200.356 174.445 194.061 174.445C189.841 174.445 186.759 173.319 184.815 171.066C182.871 168.816 181.559 166.059 180.878 162.798C180.195 159.538 180.222 156.261 180.954 152.967L181.069 152.211ZM191.772 153.186C191.052 156.422 191.136 159.245 192.026 161.654C192.914 164.064 194.273 165.268 196.102 165.268C197.931 165.268 199.847 164.004 201.852 161.477C203.855 158.949 205.218 156.068 205.937 152.832C206.439 150.574 206.244 148.924 205.351 147.879C204.458 146.834 202.78 146.311 200.319 146.311C197.857 146.311 195.958 146.826 194.621 147.853C193.285 148.881 192.361 150.542 191.852 152.833L191.772 153.186ZM254.906 172.367C254.342 169.209 254.526 165.529 255.46 161.329C257.059 154.138 260.364 148.375 265.372 144.041C270.38 139.707 276.279 137.539 283.066 137.539H291.717L292.262 146.714H282.977C281.535 146.714 280.251 146.832 279.127 147.067C278.001 147.303 276.863 147.714 275.713 148.302C274.562 148.892 273.657 149.487 272.993 150.093C272.319 150.597 271.774 151.068 271.36 151.504C270.946 151.941 270.346 152.663 269.56 153.672H277.631L278.842 148.227H289.868L284.161 173.89H273.135L275.545 163.05H265.944C265.685 165.637 265.619 167.518 265.744 168.693C265.87 169.868 266.325 171.614 267.111 173.932L256.931 179.626C256.449 178.147 256.031 176.786 255.675 175.543C255.32 174.299 255.062 173.241 254.906 172.367ZM297.989 137.539H309.068L303.023 164.713H316.211L311.428 173.889H289.905L297.989 137.539ZM244.616 137.539L242.093 148.882L235.169 137.539H224.305L216.403 173.071C216.339 173.358 216.288 173.627 216.241 173.889H227.617L227.734 173.828C227.546 173.089 227.475 172.618 227.52 172.417L227.946 170.502L231.397 154.981L230.982 151.151L238.761 163.856L236.53 173.889H247.607L255.692 137.539H244.616ZM63.851 118.677L67.478 114.893H88.0449C91.675 114.893 94.1278 114.941 95.4076 115.04C96.6852 115.137 97.9764 115.39 99.2799 115.796C100.421 116.122 101.248 116.545 101.765 117.066C102.282 117.587 102.47 118.181 102.327 118.848C102.25 119.206 102.162 119.462 102.063 119.617C101.964 119.772 101.719 120.016 101.336 120.35C100.951 120.683 100.458 121 99.8566 121.302C99.254 121.603 98.2518 121.997 96.8488 122.486L95.6902 122.876C97.9091 123.609 99.4166 124.212 100.213 124.683C102.014 125.693 102.787 126.798 102.531 128.004C102.372 128.752 101.824 129.431 100.888 130.042C99.9519 130.653 98.727 131.145 97.2133 131.52C94.5648 132.17 90.4853 132.496 84.974 132.496H62.8633L65.634 119.46H77.7998L75.8336 128.712H83.7646C84.4811 128.712 85.21 128.709 85.9514 128.699C86.6927 128.691 87.346 128.623 87.9114 128.492C88.9043 128.248 89.4458 127.915 89.5359 127.491C89.657 126.922 88.9799 126.311 87.5055 125.66C86.0311 125.009 83.0927 124.179 78.6923 123.169C81.1461 122.583 82.8369 122.168 83.7626 121.924C84.6882 121.679 85.6273 121.42 86.583 121.143C88.2551 120.654 89.1455 120.159 89.2522 119.654C89.3008 119.426 89.0969 119.223 88.6423 119.043C88.398 118.931 88.0335 118.849 87.5521 118.799C87.0686 118.75 86.583 118.718 86.0943 118.702C85.6035 118.686 84.6882 118.678 83.3432 118.678H63.851V118.677ZM110.161 118.677L113.788 114.893H135.901C140.74 114.893 144.322 115.219 146.649 115.87C147.875 116.213 148.801 116.701 149.429 117.337C150.055 117.973 150.291 118.656 150.135 119.389C149.872 120.628 148.58 121.751 146.26 122.761C145.317 123.185 144.368 123.543 143.41 123.837C142.451 124.13 140.862 124.545 138.642 125.083C140.95 126.875 142.733 128.179 143.994 128.992C145.254 129.807 147.358 130.979 150.304 132.511L139.961 135.003C135.851 132.835 132.908 131.133 131.133 129.894C129.357 128.656 127.257 126.783 124.833 124.273C127.247 123.671 129.099 123.178 130.39 122.795C131.681 122.412 132.889 122 134.013 121.56C135.623 120.941 136.482 120.379 136.59 119.875C136.679 119.451 136.257 119.118 135.324 118.873C135.069 118.807 134.698 118.759 134.213 118.726C133.726 118.693 133.036 118.677 132.14 118.677H110.161ZM109.24 132.495L112.016 119.435H124.249L121.473 132.495H109.24ZM155.348 132.495L159.089 114.894H171.188L167.446 132.495H155.348ZM175.76 118.677L179.521 114.893H212.321L214.272 118.677H201.3L198.363 132.494H186.13L189.067 118.677H175.76ZM216.848 132.495L220.59 114.894H232.689L228.947 132.495H216.848ZM251.616 126.709L242.835 122.486C241.574 121.883 240.678 121.302 240.148 120.74C239.617 120.179 239.42 119.581 239.555 118.946C239.804 117.775 241.018 116.807 243.197 116.041C245.376 115.276 247.988 114.894 251.037 114.894H266.159L268.111 118.678H256.819C255.923 118.678 255.096 118.767 254.343 118.946C253.587 119.125 253.184 119.336 253.132 119.581C253.094 119.76 253.194 119.922 253.432 120.068C253.66 120.264 253.975 120.468 254.379 120.678C254.872 120.891 255.197 121.045 255.355 121.142L263.769 125.195C264.134 125.374 264.599 125.606 265.167 125.89C265.733 126.175 266.054 126.35 266.13 126.415C267.157 127.067 267.585 127.791 267.416 128.589C267.303 129.126 266.855 129.647 266.077 130.151C263.772 131.713 260.066 132.495 254.959 132.495H239.634L237.749 128.711H248.437C250.05 128.711 251.244 128.675 252.021 128.601C252.798 128.528 253.225 128.312 253.301 127.954C253.36 127.677 253.186 127.441 252.78 127.246L251.616 126.709Z" fill="#08457D"/>
<path d="M73.9167 204.321L72.4651 201.679H64.3011L62.7283 204.321H56.4404L65.2091 189.114H71.6803L80.2678 204.321H73.9167ZM65.9339 198.675H70.8623L68.4126 193.815L65.9339 198.675ZM99.2858 189.115H105.212V204.322H99.2858V189.115ZM138.171 198.089L145.337 204.321H137.96L132.305 198.473V204.321H126.379V189.115H135.602C138.302 189.115 140.288 189.66 141.559 190.749C142.606 191.624 143.131 192.645 143.131 193.815C143.13 196.154 141.477 197.579 138.171 198.089ZM132.305 192.16V195.912H133.425C134.594 195.912 135.491 195.75 136.116 195.427C136.74 195.104 137.054 194.64 137.054 194.035C137.054 193.444 136.741 192.984 136.116 192.654C135.49 192.325 134.594 192.16 133.425 192.16H132.305ZM164.206 189.115H170.132V200.974H177.238V204.321H164.206V189.115ZM196.681 189.115H202.607V204.322H196.681V189.115ZM229.698 204.321H223.771V189.115H229.698L240.613 198.433V189.115H246.541V204.322H240.613L229.698 195.025V204.321ZM280.678 189.115V192.464H273.633V195.005H280.285V198.352H273.633V200.974H280.678V204.321H267.707V189.115H280.678ZM315.693 189.983L313.335 193.068C312.024 192.383 310.735 192.04 309.464 192.04C308.719 192.04 308.114 192.168 307.65 192.423C307.167 192.665 306.924 192.974 306.924 193.351C306.924 193.754 307.288 194.098 308.014 194.379C308.275 194.473 309.283 194.702 311.037 195.066C313.012 195.456 314.439 195.983 315.316 196.649C316.193 197.315 316.632 198.191 316.632 199.281C316.632 201.002 315.846 202.333 314.274 203.274C312.721 204.229 310.544 204.705 307.742 204.705C304.88 204.705 302.229 204.134 299.79 202.992L302.329 199.806C304.103 200.841 305.847 201.359 307.561 201.359C308.428 201.359 309.117 201.221 309.632 200.946C310.147 200.67 310.403 200.311 310.403 199.867C310.403 199.464 310.156 199.138 309.663 198.889C309.168 198.641 308.236 198.382 306.865 198.113C304.688 197.683 303.237 197.279 302.511 196.903C301.321 196.232 300.727 195.223 300.727 193.879C300.727 192.347 301.433 191.109 302.843 190.168C304.253 189.227 306.128 188.757 308.467 188.757C310.966 188.753 313.375 189.163 315.693 189.983Z" fill="black"/>
<path d="M399.241 189.658C423.257 169.759 431.724 140.35 418.153 123.972C404.582 107.593 374.113 110.447 350.097 130.345C326.081 150.244 317.614 179.653 331.184 196.031C344.755 212.41 375.225 209.556 399.241 189.658Z" fill="#08457D"/>
<path d="M258.4 183.31H316.165V180.258H263.856L258.4 183.31ZM86.6375 180.258L81.209 183.31L254.685 183.309L253.246 180.258H86.6375Z" fill="#B9202F"/>
<path d="M304.067 114.894L302.884 120.46H289.105L290.288 114.894H278.19L274.533 132.1C274.504 132.238 274.484 132.37 274.47 132.495H286.548L288.265 124.415H302.044L300.326 132.495H312.425L316.167 114.894H304.067Z" fill="#08457D"/>
<path d="M371.055 160.268C351.358 156.802 341.74 164.812 343.422 186.891H339.058L348.941 204.802L360.883 186.891H354.323C354.089 174.266 351.211 160.929 371.055 160.268ZM422.724 147.089L404.224 149.211L405.527 155.446C395.729 164.37 381.989 182.739 374.681 164.601C376.248 187.406 392.717 182.203 407.823 166.438L409.177 172.916L422.724 147.089ZM373.584 129.2L376.936 125.794L352.324 130.239L359.82 143.175L364.183 138.745C377.417 138.757 395.079 138.664 379.456 157.173C404.503 137.72 388.048 128.686 373.584 129.2Z" fill="white"/>
<path d="M55.3848 180.258V183.31H76.7531L74.6202 180.258H55.3848Z" fill="#B9202F"/>
</svg>
