<svg width="480" height="320" viewBox="0 0 480 320" fill="none" xmlns="http://www.w3.org/2000/svg">
<path d="M67.4095 183.386C67.4095 185.84 64.7241 187.817 61.3897 187.817C58.0665 187.817 55.3848 185.84 55.3848 183.386C55.3848 180.943 58.0702 178.943 61.3971 178.943C64.7241 178.936 67.4095 180.935 67.4095 183.386ZM71.6092 172.801C71.6092 174.856 69.2595 176.512 66.3428 176.53C63.4187 176.512 61.0615 174.856 61.0615 172.801C61.0615 170.745 63.4187 169.116 66.3428 169.116C69.2595 169.104 71.6092 170.745 71.6092 172.801ZM75.0592 163.968C75.0592 165.613 73.0526 166.952 70.5723 166.96C68.0846 166.96 66.0668 165.621 66.0668 163.968C66.0668 162.327 68.0883 160.985 70.5723 160.985C73.0526 160.985 75.0592 162.335 75.0592 163.968ZM84.2381 139.859C84.2307 140.508 83.1901 141.038 81.8959 141.038C80.6016 141.038 79.5461 140.508 79.5461 139.859C79.5461 139.199 80.6016 138.681 81.8959 138.681C83.1901 138.681 84.2307 139.195 84.2381 139.859ZM86.9497 133.038C86.9497 133.508 86.1627 133.881 85.1892 133.881C84.2083 133.881 83.4288 133.508 83.4213 133.038C83.4213 132.575 84.2083 132.184 85.1892 132.184C86.1627 132.184 86.9497 132.575 86.9497 133.038ZM85.6704 136.271C85.6704 136.82 84.7678 137.249 83.6302 137.256C82.515 137.256 81.6049 136.82 81.6049 136.271C81.6049 135.734 82.515 135.298 83.6302 135.298C84.764 135.298 85.6704 135.734 85.6704 136.271ZM77.9722 156.211C77.9722 157.542 76.2602 158.616 74.1454 158.616C72.0456 158.616 70.3299 157.542 70.3299 156.211C70.3299 154.887 72.0418 153.801 74.1454 153.801C76.2602 153.805 77.9722 154.887 77.9722 156.211ZM80.4972 149.747C80.4972 150.799 79.0389 151.668 77.2225 151.668C75.421 151.668 73.9627 150.799 73.9627 149.747C73.9627 148.673 75.421 147.807 77.2225 147.807C79.0389 147.807 80.4972 148.673 80.4972 149.747ZM81.4371 182.647C81.4371 184.859 78.9941 186.63 75.9805 186.63C72.9668 186.63 70.5164 184.851 70.5164 182.647C70.5164 180.443 72.9668 178.649 75.973 178.649C78.9941 178.649 81.4371 180.439 81.4371 182.647ZM93.4432 179.335C93.4432 181.278 91.2389 182.845 88.5199 182.845C85.8084 182.845 83.6041 181.278 83.6041 179.335C83.6041 177.392 85.8084 175.803 88.5199 175.803C91.2352 175.799 93.4432 177.388 93.4432 179.335ZM99.5712 172.566C99.5712 174.087 97.7697 175.333 95.5318 175.333C93.3201 175.333 91.5186 174.087 91.5186 172.566C91.5186 171.018 93.3201 169.772 95.5318 169.772C97.7622 169.772 99.5712 171.018 99.5712 172.566ZM93.708 160.496C93.708 161.518 92.3914 162.335 90.7839 162.335C89.154 162.335 87.8374 161.518 87.8374 160.496C87.8374 159.482 89.154 158.642 90.7839 158.642C92.3951 158.642 93.708 159.478 93.708 160.496ZM82.6567 144.343C82.6567 145.193 81.4184 145.887 79.8818 145.887C78.3563 145.887 77.1143 145.189 77.1143 144.343C77.1143 143.496 78.3563 142.81 79.8818 142.81C81.4147 142.81 82.6567 143.5 82.6567 144.343ZM98.497 165.542C98.497 166.788 96.9715 167.791 95.0731 167.791C93.1896 167.791 91.6604 166.781 91.6604 165.542C91.6604 164.319 93.1896 163.301 95.0843 163.301C96.9678 163.308 98.497 164.319 98.497 165.542Z" fill="#EE452A"/>
<path d="M117.627 182.457V149.628H122.864V161.753C124.542 161.164 126.138 160.869 127.638 160.869C130.912 160.869 133.441 161.955 135.243 164.133C136.802 166.024 137.589 168.504 137.589 171.54C137.589 175.524 136.261 178.526 133.598 180.503C131.289 182.26 128.078 183.125 123.975 183.125C122.226 183.125 120.104 182.912 117.627 182.457ZM122.864 165.77V178.75C123.609 178.865 124.288 178.936 124.889 178.936C129.778 178.936 132.225 176.579 132.225 171.88C132.225 169.593 131.614 167.866 130.416 166.71C129.353 165.688 127.943 165.166 126.138 165.166C125.109 165.174 124.02 165.367 122.864 165.77ZM142.971 182.845V162.772C146.018 161.53 149.095 160.907 152.217 160.907C153.709 160.907 155.118 161.108 156.428 161.522V165.942C155.316 165.532 154.085 165.341 152.758 165.341C151.217 165.341 149.71 165.614 148.218 166.173V182.856M159.9 161.257H165.148V174.144C165.148 175.945 165.532 177.172 166.278 177.802C166.931 178.373 168.053 178.657 169.62 178.657C170.675 178.657 171.839 178.511 173.126 178.258V161.257H178.385V182.095C174.871 182.782 171.809 183.121 169.172 183.121C165.849 183.121 163.432 182.45 161.925 181.122C161.138 180.357 160.605 179.44 160.292 178.328C160.031 177.336 159.9 176.027 159.9 174.36M184.14 182.099V177.318C186.202 178.612 188.153 179.261 189.988 179.261C192.323 179.261 193.494 178.53 193.494 177.064C193.494 176.064 192.8 175.27 191.431 174.632L189.309 173.625C187.351 172.719 185.993 171.716 185.188 170.638C184.49 169.698 184.14 168.564 184.14 167.277C184.14 165.181 184.975 163.562 186.661 162.391C188.134 161.38 190.021 160.866 192.353 160.866C194.27 160.866 196.138 161.261 197.914 162.052V166.568C196.146 165.479 194.415 164.927 192.722 164.927C190.387 164.927 189.227 165.625 189.227 167.016C189.227 167.572 189.462 168.053 189.939 168.422C190.38 168.762 191.383 169.273 192.931 170.022C195.083 171.115 196.534 172.092 197.261 172.913C198.193 173.994 198.671 175.296 198.671 176.848C198.671 179.026 197.802 180.708 196.097 181.89C194.605 182.931 192.644 183.453 190.193 183.453C188.097 183.442 186.075 182.991 184.14 182.099ZM202.867 182.099V177.318C204.948 178.612 206.902 179.261 208.73 179.261C211.065 179.261 212.236 178.53 212.236 177.064C212.236 176.064 211.538 175.27 210.155 174.632L208.051 173.625C206.086 172.719 204.724 171.716 203.93 170.638C203.225 169.698 202.867 168.564 202.867 167.277C202.867 165.181 203.717 163.562 205.399 162.391C206.858 161.38 208.741 160.866 211.091 160.866C213.015 160.866 214.858 161.261 216.659 162.052V166.568C214.88 165.479 213.161 164.927 211.453 164.927C209.125 164.927 207.965 165.625 207.965 167.016C207.965 167.572 208.2 168.053 208.678 168.422C209.125 168.762 210.11 169.273 211.673 170.022C213.825 171.115 215.268 172.092 215.995 172.913C216.939 173.994 217.398 175.296 217.398 176.848C217.398 179.026 216.536 180.708 214.828 181.89C213.344 182.931 211.371 183.453 208.931 183.453C206.839 183.442 204.814 182.991 202.867 182.099ZM241.276 173.047H226.469C226.689 177.038 228.923 179.056 233.152 179.056C235.741 179.056 238.091 178.306 240.179 176.766V181.17C237.755 182.636 235.144 183.364 232.35 183.364C228.673 183.364 225.857 182.278 223.914 180.059C222.228 178.161 221.385 175.572 221.385 172.35C221.385 168.657 222.463 165.737 224.645 163.577C226.551 161.712 228.975 160.772 231.903 160.772C233.965 160.772 235.759 161.291 237.277 162.279C238.613 163.152 239.601 164.323 240.25 165.781C240.944 167.333 241.272 169.724 241.272 172.958M226.808 169.291H236.207C235.972 166.278 234.514 164.771 231.825 164.771C230.4 164.771 229.251 165.229 228.352 166.125C227.55 166.915 227.043 167.96 226.808 169.291ZM246.676 149.628H251.932V182.853H246.676V149.628ZM257.739 182.099V177.318C259.801 178.612 261.76 179.261 263.598 179.261C265.922 179.261 267.093 178.53 267.093 177.064C267.093 176.064 266.403 175.27 265.019 174.632L262.912 173.625C260.958 172.719 259.589 171.716 258.794 170.638C258.082 169.698 257.739 168.564 257.739 167.277C257.739 165.181 258.578 163.562 260.275 162.391C261.737 161.38 263.621 160.866 265.956 160.866C267.88 160.866 269.73 161.261 271.505 162.052V166.568C269.749 165.479 268.011 164.927 266.332 164.927C263.979 164.927 262.834 165.625 262.834 167.016C262.834 167.572 263.065 168.053 263.542 168.422C263.964 168.762 264.978 169.273 266.53 170.022C268.686 171.115 270.133 172.092 270.864 172.913C271.796 173.994 272.277 175.296 272.277 176.848C272.277 179.026 271.416 180.708 269.696 181.89C268.201 182.931 266.235 183.453 263.8 183.453C261.692 183.442 259.69 182.991 257.739 182.099ZM286.562 167.594V163.077C289.304 161.6 292.112 160.869 294.947 160.869C298.05 160.869 300.068 161.779 301 163.603C301.467 164.525 301.713 166.225 301.713 168.732V182.416C298.002 182.957 294.98 183.211 292.649 183.211C289.927 183.211 287.995 182.666 286.82 181.543C285.798 180.551 285.302 179.078 285.302 177.116C285.302 174.17 286.533 172.1 289.009 170.902C290.643 170.101 293.127 169.53 296.443 169.157L296.879 169.12V168.348C296.879 167.065 296.636 166.21 296.107 165.77C295.641 165.371 294.876 165.174 293.78 165.174C291.512 165.174 289.091 165.983 286.562 167.594ZM296.98 178.821V173.073C294.283 173.297 292.441 173.696 291.426 174.315C290.55 174.856 290.124 175.647 290.124 176.725C290.124 178.358 291.064 179.164 292.989 179.164C294.056 179.175 295.38 179.056 296.98 178.821ZM308.128 151.567H313.529V157.184H308.128V151.567ZM308.217 161.306H313.465V182.853H308.217V161.306ZM320.231 182.845V162.772C323.278 161.53 326.355 160.907 329.496 160.907C330.973 160.907 332.375 161.108 333.695 161.522V165.942C332.573 165.532 331.346 165.341 330.025 165.341C328.47 165.341 326.967 165.614 325.486 166.173V182.856M337.914 149.628H343.173V182.853H337.914V149.628ZM349.901 151.567H355.309V157.184H349.901V151.567ZM349.983 161.306H355.235V182.853H349.983V161.306ZM362.015 182.845V162.354C365.406 161.377 368.658 160.903 371.795 160.903C375.185 160.903 377.576 161.627 378.963 163.104C380.116 164.346 380.698 166.307 380.698 169.004V182.845H375.439V169.362C375.439 167.728 375.073 166.624 374.331 166.005C373.663 165.461 372.597 165.174 371.142 165.174C369.904 165.174 368.606 165.379 367.274 165.77V182.845M405.762 173.047H390.951C391.171 177.038 393.394 179.056 397.612 179.056C400.223 179.056 402.565 178.306 404.654 176.766V181.17C402.237 182.636 399.611 183.364 396.833 183.364C393.159 183.364 390.339 182.278 388.388 180.059C386.718 178.161 385.856 175.572 385.856 172.35C385.856 168.657 386.949 165.737 389.112 163.577C391.018 161.712 393.446 160.772 396.366 160.772C398.436 160.772 400.227 161.291 401.748 162.279C403.087 163.152 404.068 164.323 404.736 165.781C405.407 167.333 405.747 169.724 405.747 172.958M391.298 169.291H400.697C400.462 166.278 399.003 164.771 396.303 164.771C394.889 164.771 393.729 165.229 392.834 166.125C392.032 166.915 391.533 167.96 391.298 169.291ZM410.111 182.099V177.318C412.181 178.612 414.131 179.261 415.966 179.261C418.297 179.261 419.465 178.53 419.465 177.064C419.465 176.064 418.764 175.27 417.384 174.632L415.272 173.625C413.329 172.719 411.949 171.716 411.151 170.638C410.457 169.698 410.111 168.564 410.111 167.273C410.111 165.177 410.939 163.559 412.632 162.387C414.098 161.377 415.981 160.862 418.32 160.862C420.241 160.862 422.102 161.257 423.87 162.048V166.565C422.117 165.476 420.371 164.924 418.667 164.924C416.358 164.924 415.19 165.621 415.19 167.012C415.19 167.568 415.425 168.049 415.892 168.418C416.332 168.758 417.342 169.269 418.89 170.018C421.046 171.111 422.497 172.089 423.224 172.909C424.157 173.991 424.616 175.292 424.616 176.844C424.616 179.022 423.761 180.704 422.057 181.887C420.554 182.927 418.596 183.449 416.156 183.449C414.072 183.442 412.043 182.991 410.111 182.099Z" fill="#011F65"/>
</svg>
