<svg width="480" height="320" viewBox="0 0 480 320" fill="none" xmlns="http://www.w3.org/2000/svg">
<path fill-rule="evenodd" clip-rule="evenodd" d="M55.4779 176.432C55.4779 176.432 53.8871 166.765 63.8548 167.486C63.8548 167.486 69.8618 168.213 75.6925 173.258C75.6925 173.258 81.1075 177.739 85.9446 167.344C85.9446 167.344 91.1732 146.16 97.2173 138.184C101.77 132.168 115.555 120.724 131.436 123.321C131.436 123.321 102.511 138.304 104.202 172.266C105.651 177.831 110.111 186.679 115.404 191.729C115.404 191.729 96.6041 213.808 75.8418 192.308L64.5756 177.731C64.5756 177.731 61.5584 173.18 57.3556 175.276L55.4779 176.432Z" fill="#CBA22E"/>
<path fill-rule="evenodd" clip-rule="evenodd" d="M176.619 146.856L169.911 178.363H189.31C193.169 178.363 196.138 177.375 198.216 175.349C200.294 173.322 201.324 171.035 201.324 168.546C201.324 165.129 199.626 162.938 196.258 161.925V161.833C198.309 161.198 199.83 160.188 200.776 158.774C201.704 157.369 202.149 155.844 202.149 154.253C202.149 153.012 201.88 151.877 201.277 150.829C200.683 149.786 199.858 148.96 198.809 148.317C197.752 147.681 196.666 147.287 195.525 147.13C194.394 146.973 192.9 146.856 191.137 146.856H176.619ZM252.283 146.856L249.769 158.591C248.136 156.202 245.724 155.029 242.514 155.029C239.369 155.029 236.762 156.447 234.703 159.322C232.643 162.19 231.641 165.592 231.641 169.459C231.641 172.356 232.328 174.636 233.701 176.354C235.065 178.06 237.004 178.912 239.592 178.912C240.965 178.912 242.152 178.716 243.154 178.318C244.138 177.918 245.297 177.13 246.531 175.989L246.624 176.126L246.16 178.363H254.296L261.05 146.856H252.283ZM280.69 146.856L278.176 158.591C276.543 156.202 274.121 155.029 270.912 155.029C267.776 155.029 265.16 156.447 263.109 159.322C261.05 162.19 260.048 165.592 260.048 169.459C260.048 172.356 260.734 174.636 262.098 176.354C263.471 178.06 265.41 178.912 267.989 178.912C269.362 178.912 270.559 178.716 271.552 178.318C272.554 177.918 273.695 177.13 274.929 175.989L274.975 176.126L274.567 178.363H282.694L289.457 146.856H280.69ZM293.566 146.856L286.757 178.363H295.57L297.713 168.5C298.205 166.224 298.91 164.462 299.866 163.249C300.83 162.036 301.962 161.422 303.242 161.422C304.393 161.422 304.977 162.086 304.977 163.34C304.977 163.718 304.699 165.172 304.152 167.77L301.916 178.363H310.683L313.336 165.943C313.902 163.247 314.199 161.422 314.199 160.509C314.199 158.99 313.679 157.691 312.649 156.628C311.62 155.572 310.089 155.075 308.039 155.075C304.764 155.075 302.073 156.166 299.958 158.363L299.866 158.272L302.287 146.856H293.566ZM372.014 146.856L354.202 178.363H364.704L367.125 173.203H377.404L377.859 178.363H387.395L382.377 146.856H372.014ZM396.079 146.856L394.845 152.884H403.612L404.846 146.856H396.079ZM184.977 153.249H189.133C190.664 153.249 191.666 153.461 192.186 153.888C192.714 154.317 193.011 154.944 193.011 155.714C193.011 156.355 192.77 156.992 192.278 157.633C191.805 158.268 191.147 158.71 190.367 158.911C189.588 159.11 188.503 159.185 187.074 159.185H183.743L184.977 153.249ZM330.591 155.075C326.639 155.075 323.708 155.632 321.825 156.811C319.941 157.981 318.707 159.673 318.179 161.833L326.352 162.701C326.816 161.665 327.372 161.013 327.994 160.692C328.625 160.372 329.413 160.189 330.415 160.189C331.371 160.189 332.169 160.394 332.744 160.738C333.328 161.079 333.607 161.536 333.607 162.107C333.607 162.471 333.504 162.982 333.337 163.66C332.484 163.918 330.796 164.166 328.263 164.436C325.415 164.721 323.198 165.063 321.556 165.441C319.895 165.819 318.485 166.524 317.353 167.587C316.23 168.645 315.665 170.179 315.665 172.199C315.665 173.974 316.314 175.554 317.585 176.902C318.847 178.25 320.906 178.912 323.791 178.912C326.621 178.912 329.172 177.858 331.464 175.76C331.464 176.595 331.584 177.458 331.779 178.363H340.323C339.943 177.285 339.729 176.248 339.729 175.213C339.729 173.993 340.091 171.839 340.824 168.728C341.613 165.446 342.012 163.087 342.012 161.651C342.012 159.505 341.251 157.891 339.683 156.765C338.115 155.638 335.082 155.075 330.591 155.075ZM375.753 155.075H375.845L376.81 166.537H370.326L375.753 155.075ZM421.6 155.075C420.366 155.075 419.262 155.395 418.223 156.08C417.184 156.77 415.978 158.118 414.615 160.144L414.522 160.052L415.533 155.578H407.351L402.471 178.363H411.284L413.065 169.87C413.631 167.216 414.438 165.269 415.487 164.071C416.535 162.865 417.917 162.244 419.596 162.244C420.116 162.244 420.7 162.361 421.378 162.518L424.615 155.76C423.539 155.303 422.537 155.075 421.6 155.075ZM207.261 155.578L204.608 167.77C204.014 170.558 203.699 172.493 203.699 173.477C203.699 174.985 204.209 176.243 205.248 177.313C206.296 178.376 207.855 178.912 209.951 178.912C213.44 178.912 216.39 177.534 218.765 174.802L218.857 174.893L218.078 178.363H226.298L231.187 155.578H222.373L220.23 165.441C219.739 167.696 219.052 169.441 218.078 170.647C217.123 171.846 215.972 172.473 214.655 172.473C213.532 172.473 212.966 171.829 212.966 170.601V170.555C212.966 170.162 212.966 169.814 213.013 169.55C213.059 169.286 213.263 168.354 213.607 166.72L216.028 155.578H207.261ZM394.251 155.578L389.362 178.363H398.129L403.065 155.578H394.251ZM244.843 160.92C245.715 160.92 246.494 161.262 247.171 161.925C247.858 162.595 248.173 163.564 248.173 164.893C248.173 166.79 247.765 168.652 246.893 170.464C246.03 172.276 244.768 173.158 243.154 173.158C242.264 173.158 241.559 172.824 241.002 172.153C240.455 171.476 240.186 170.515 240.186 169.231C240.186 166.94 240.64 164.968 241.549 163.34C242.477 161.715 243.572 160.92 244.843 160.92ZM273.24 160.92C274.112 160.92 274.882 161.262 275.569 161.925C276.246 162.595 276.58 163.564 276.58 164.893C276.58 166.79 276.162 168.652 275.3 170.464C274.428 172.276 273.175 173.158 271.552 173.158C270.661 173.158 269.956 172.824 269.409 172.153C268.861 171.476 268.583 170.515 268.583 169.231C268.583 166.94 269.038 164.968 269.956 163.34C270.874 161.715 271.969 160.92 273.24 160.92ZM182.51 165.167H187.76C189.393 165.167 190.479 165.444 191.007 165.943C191.536 166.437 191.824 167.095 191.824 167.953C191.824 170.392 189.968 171.605 186.304 171.605H181.09L182.51 165.167ZM332.373 168.181C332.002 170.37 331.306 171.901 330.23 172.792C329.144 173.691 328.05 174.163 326.946 174.163C326.157 174.163 325.48 173.943 324.979 173.523C324.469 173.094 324.246 172.524 324.246 171.788C324.246 171.09 324.598 170.477 325.294 169.961C325.999 169.448 328.346 168.858 332.373 168.181Z" fill="#1354A8"/>
<path fill-rule="evenodd" clip-rule="evenodd" d="M92.4648 170.226C92.4648 170.226 92.8155 161.435 99.0025 161.435C105.18 161.435 108.983 169.398 116.475 169.398C123.96 169.398 125.986 152.881 127.056 148.479C128.126 144.076 135.133 118.283 166.998 118.283C166.998 118.283 141.796 133.033 141.796 162.984C141.796 192.936 176.396 199.836 180.07 199.836C180.07 199.836 172.221 200.784 166.405 200.784C160.579 200.784 148.333 199.244 139.891 192.108C131.45 184.973 121.105 185.695 116.475 189.019C116.475 189.019 102.818 161.3 92.4648 170.226Z" fill="#BCBEC0"/>
</svg>
