<svg width="480" height="320" viewBox="0 0 480 320" fill="none" xmlns="http://www.w3.org/2000/svg">
<path d="M400.314 162.369C407.432 165.723 413.452 171.165 417.051 174.831C422.774 180.669 419.996 194.723 413.922 200.55C421.881 194.748 424.354 187.998 424.616 182.583V180.602C424.508 178.385 424.053 176.479 423.527 175.085C419.996 165.715 411.202 158.754 398.107 152.748C367.254 138.591 323.511 127.377 319.25 107.107C321.392 143.386 371.367 148.742 400.314 162.369" fill="url(#paint0_linear_730_18442)"/>
<path d="M412.862 178.591C427.661 192.181 411.221 202.623 407.379 205.055C415.504 200.565 421.915 193.147 422.278 185.23V183.823C422.036 178.569 419.055 173.16 412.094 168.292C390.215 152.995 334.262 142.555 328.615 133.105C339.981 162.16 393.329 160.646 412.862 178.591Z" fill="url(#paint1_linear_730_18442)"/>
<path d="M337.597 148.351C355.328 177.355 413.709 175.698 417.676 190.885C418.534 194.173 416.522 197.375 414.178 199.705C417.469 196.467 419.781 193.714 419.614 188.266C418.938 165.333 352.41 160.536 337.597 148.351Z" fill="url(#paint2_linear_730_18442)"/>
<path d="M389.3 212.864C413.379 205.567 428.829 191.024 407.393 184.397C418.837 189.867 409.392 206.125 389.3 212.864" fill="url(#paint3_linear_730_18442)"/>
<path d="M126.441 185.793H123.633L132.61 152.578L132.652 152.422H140.113L132.495 180.656C131.728 183.747 129.376 185.793 126.441 185.793Z" fill="#4B4B4D"/>
<path d="M133.218 151.995L133.178 152.152L124.2 185.364H127.008C129.947 185.364 132.303 183.317 133.068 180.226L140.677 151.995H133.218Z" fill="#A0A5A9"/>
<path d="M71.9121 185.793H59.3223L61.3278 184.314C62.0444 183.81 62.8422 182.531 63.1839 181.496C63.5894 180.346 64.3966 177.894 64.8355 176.498C65.5022 174.37 66.5977 170.711 68.1132 165.544C68.8588 162.962 69.5688 160.733 70.0699 158.96C71.2588 154.536 74.1659 151.662 78.2981 151.651C79.2992 151.639 80.3002 151.617 81.3008 151.585C82.0179 151.568 82.7352 151.56 83.4525 151.562C84.2125 151.562 84.8813 151.569 85.488 151.569C87.0735 151.569 88.2524 151.641 89.1063 151.808C89.9107 151.979 90.6285 152.225 91.2635 152.571C91.8874 152.922 92.4079 153.364 92.7957 153.903C93.1757 154.425 93.4546 155.035 93.6295 155.711C93.8007 156.321 93.8834 156.968 93.8795 157.653V157.881L93.8762 158.025C93.8504 158.744 93.7523 159.458 93.5834 160.157C93.3644 161.087 93.0482 161.991 92.6401 162.854C92.2473 163.685 91.761 164.469 91.1907 165.19C90.6636 165.853 90.0604 166.452 89.3935 166.974C88.7696 167.453 88.1852 167.831 87.6302 168.117L87.6024 168.132C87.8924 168.301 88.1697 168.491 88.4324 168.7C88.8891 169.083 89.2791 169.557 89.6013 170.111C89.9324 170.663 90.1635 171.257 90.2924 171.891C90.3935 172.397 90.444 172.941 90.444 173.514L90.4396 173.881L90.4318 173.975V173.979C90.3945 174.695 90.2894 175.406 90.1179 176.103C89.729 177.714 89.0332 179.234 88.0685 180.582C87.1024 181.933 85.9436 183.028 84.6102 183.829C83.2897 184.616 81.8953 185.146 80.4286 185.412C78.9425 185.678 76.1531 185.792 71.9126 185.795M74.0393 171.416L71.6715 179.511H75.4859C76.4415 179.511 77.1948 179.464 77.6953 179.386C78.2108 179.306 78.7158 179.169 79.2009 178.978C79.7053 178.772 80.0981 178.558 80.3686 178.361C80.6492 178.154 80.9247 177.886 81.2108 177.539C81.5057 177.169 81.7614 176.77 81.9736 176.347C82.1924 175.903 82.3648 175.437 82.488 174.958C82.578 174.586 82.6364 174.251 82.6464 173.963L82.6503 173.79C82.6525 173.643 82.6419 173.496 82.6186 173.351C82.5497 172.928 82.3975 172.596 82.1503 172.305C81.8981 172.004 81.5897 171.8 81.1536 171.652C80.7742 171.523 79.9525 171.417 78.8225 171.417H74.0409M80.4853 157.811C80.0131 157.811 79.542 157.815 79.1886 157.83C78.3603 157.927 78.0831 158.019 77.6059 159.405C77.2865 160.535 76.3559 163.554 75.9004 165.134H78.2492C79.6781 165.134 80.6592 165.088 81.077 165.022C81.5253 164.957 82.0269 164.821 82.598 164.601C83.1052 164.404 83.5661 164.104 83.9519 163.721C84.3963 163.285 84.7452 162.834 85.0213 162.321C85.296 161.831 85.5034 161.306 85.638 160.76L85.6547 160.684C85.7156 160.434 85.751 160.179 85.7602 159.922L85.7635 159.755C85.7652 159.636 85.7598 159.516 85.7474 159.398C85.6941 158.998 85.5797 158.75 85.3958 158.536C85.1869 158.316 84.9152 158.143 84.5141 158.022C84.1425 157.911 83.4208 157.83 82.4408 157.83H82.3764C82.3764 157.83 81.4319 157.81 80.4881 157.81" fill="#4B4B4D"/>
<path d="M86.3272 159.492C86.3169 159.749 86.2831 160.004 86.2261 160.255L86.2027 160.329C86.0705 160.877 85.8653 161.404 85.5927 161.896C85.3099 162.413 84.9486 162.884 84.5216 163.29C84.0994 163.703 83.6539 163.994 83.165 164.173C82.5972 164.392 82.0967 164.525 81.6439 164.595C81.23 164.661 80.2423 164.703 78.8189 164.703H76.474C76.924 163.125 77.8506 160.105 78.1739 158.977C78.6512 157.591 78.9295 157.503 79.7595 157.398C80.8206 157.355 82.9428 157.401 82.9428 157.401L83.0105 157.398C83.9916 157.398 84.7105 157.48 85.0755 157.594C85.4788 157.709 85.7511 157.884 85.9588 158.112C86.1466 158.319 86.2594 158.571 86.3099 158.967C86.3284 159.087 86.3364 159.209 86.3338 159.33L86.3272 159.492ZM83.2167 173.534C83.1964 173.87 83.1434 174.204 83.0583 174.53C82.9389 175.009 82.7658 175.473 82.5422 175.913C82.3309 176.338 82.0758 176.74 81.7811 177.112C81.4995 177.456 81.2217 177.726 80.9356 177.934C80.6695 178.131 80.2756 178.34 79.7667 178.544C79.284 178.741 78.7795 178.879 78.2639 178.955C77.7595 179.036 77.0106 179.083 76.049 179.083H72.2446L74.6079 170.99H79.325L79.3884 170.986C80.5239 170.986 81.3467 171.091 81.7222 171.221C82.1539 171.371 82.4678 171.58 82.7222 171.872C82.9667 172.168 83.1155 172.494 83.1855 172.926C83.2106 173.07 83.2227 173.215 83.2217 173.361L83.2167 173.534ZM93.3698 153.472V153.475C92.9732 152.935 92.4543 152.493 91.8349 152.14C91.2015 151.797 90.4849 151.547 89.6793 151.379C88.8266 151.211 87.6405 151.138 86.0572 151.138C84.9338 151.138 83.5939 151.114 81.8694 151.161C80.7467 151.193 79.7528 151.212 78.8667 151.223C74.7373 151.235 71.8224 154.11 70.6357 158.538C70.1391 160.306 69.433 162.533 68.6841 165.112C67.1702 170.282 66.073 173.935 65.4008 176.074C64.8716 177.746 64.3231 179.411 63.7553 181.07C63.4119 182.109 62.6158 183.38 61.8981 183.887L59.8848 185.365H72.4774C76.7206 185.365 79.5106 185.248 81.005 184.981C82.4622 184.72 83.8589 184.185 85.1794 183.402C86.5127 182.598 87.6771 181.507 88.6388 180.149C89.6028 178.801 90.2994 177.281 90.691 175.671C90.8592 174.976 90.9633 174.266 91.0021 173.552V173.549L91.0049 173.451L91.0171 173.087C91.0171 172.511 90.9638 171.965 90.8654 171.459C90.7358 170.83 90.5013 170.227 90.1716 169.676C89.8504 169.127 89.4638 168.652 89.0049 168.279C88.7432 168.064 88.465 167.871 88.1727 167.7L88.1966 167.684C88.7532 167.403 89.3405 167.023 89.9616 166.544C90.6326 166.024 91.2371 165.423 91.7615 164.755C92.3301 164.037 92.8146 163.256 93.2054 162.427C93.6128 161.562 93.9299 160.656 94.1515 159.726C94.3182 159.028 94.4153 158.316 94.4415 157.599L94.4493 157.451V157.22C94.4553 156.565 94.3714 155.912 94.1998 155.28C94.0402 154.63 93.7582 154.015 93.3687 153.471" fill="#A0A5A9"/>
<path d="M102.959 185.794H102.664C100.276 185.79 98.5059 185.414 97.2593 184.432C96.0904 183.502 95.5898 182.07 95.5898 180.395L95.5982 180.034C95.6337 178.977 95.8393 177.795 96.1759 176.465L100.616 160.072H108.064L103.702 176.308C103.498 177 103.392 177.596 103.381 178.053L103.377 178.154C103.389 178.852 103.527 179.134 103.86 179.414C104.204 179.695 104.974 179.929 106.241 179.929H106.26C108.432 179.913 109.544 179.396 110.351 178.471C111.17 177.539 111.708 175.974 112.191 173.789L115.912 160.072H123.238L117.551 181.82C117.437 182.21 117.344 182.605 117.273 183.005C117.187 183.541 117.421 184 117.637 184.306L118.714 185.657H109.343L109.696 184.03C107.685 185.571 105.293 185.794 102.96 185.794" fill="#4B4B4D"/>
<path d="M117.847 182.58C117.91 182.178 118 181.779 118.115 181.388L123.806 159.641H116.484L112.756 173.363C112.276 175.547 111.735 177.112 110.925 178.044C110.106 178.971 108.999 179.486 106.827 179.498H106.812C105.537 179.498 104.772 179.261 104.427 178.982C104.09 178.71 103.957 178.421 103.945 177.726V177.625C103.964 177.167 104.068 176.579 104.269 175.88L108.638 159.641H101.182L96.7439 176.036C96.4033 177.367 96.2067 178.548 96.1689 179.608L96.1572 179.969C96.1545 181.643 96.6589 183.075 97.8305 184.002C99.0683 184.985 100.844 185.359 103.233 185.363H103.525C105.858 185.363 108.25 185.142 110.266 183.602L109.91 185.231H119.28L118.203 183.877C117.987 183.573 117.76 183.113 117.845 182.58" fill="#A0A5A9"/>
<path d="M298.554 185.793L288.682 185.79L289.257 177.638H283.147C282.676 178.538 281.619 180.556 281.161 181.444C279.377 184.872 276.28 185.79 273.874 185.79H273.83C273.513 185.793 273.24 185.793 273.012 185.793C272.557 185.793 272.29 185.79 272.29 185.79L270.971 185.782L271.608 184.589C271.62 184.586 286.512 156.897 287.08 155.887C287.707 154.774 288.705 153.667 289.614 153.001C290.795 152.118 291.944 151.742 293.245 151.742L293.291 151.746C293.685 151.746 294.089 151.77 294.508 151.816C296.709 152.007 297.841 153.843 297.835 155.97L297.823 156.274V156.329C297.774 157.772 296.456 180.845 296.404 181.985L296.4 181.98V182.343L296.396 182.335C296.404 183.172 296.581 183.737 297.011 184.281H297.015C297.502 184.92 298.093 185.412 298.093 185.412L298.558 185.792M290.379 163.578L285.961 171.944H289.81L290.379 163.578Z" fill="#4B4B4D"/>
<path d="M290.375 171.515H286.529L290.946 163.149L290.375 171.515ZM297.581 183.853C297.152 183.308 296.964 182.747 296.958 181.91L296.962 181.914V181.552L296.97 181.555C297.015 180.415 298.337 157.344 298.39 155.9V155.847L298.394 155.541C298.41 153.418 297.272 151.582 295.075 151.391C294.671 151.344 294.265 151.319 293.859 151.315H293.804C292.512 151.312 291.362 151.69 290.176 152.569C289.267 153.236 288.27 154.345 287.639 155.459C287.072 156.469 272.178 184.153 272.178 184.161L271.541 185.351L272.86 185.363H274.433C276.839 185.363 279.948 184.448 281.728 181.012C282.193 180.132 283.245 178.109 283.71 177.209H289.829L289.25 185.363H299.123L298.661 184.986C298.661 184.986 298.068 184.492 297.578 183.852" fill="#A0A5A9"/>
<path d="M318.599 185.793H315.77L320.862 166.751C321.972 162.532 325.11 160.213 328.729 160.213H339.584L339.551 160.455L339.459 161.12C339.114 163.855 336.871 166.634 333.437 166.639H331.577C330.004 166.643 329.213 166.938 328.706 167.406C328.204 167.866 327.828 168.721 327.479 170.102L324.633 180.656C323.883 183.714 321.633 185.793 318.596 185.793" fill="#4B4B4D"/>
<path d="M329.388 159.78H329.323C325.696 159.778 322.549 162.096 321.438 166.321L316.338 185.365H319.17C322.208 185.365 324.461 183.29 325.207 180.227L328.052 169.673C328.405 168.295 328.779 167.441 329.287 166.979C329.79 166.515 330.572 166.216 332.158 166.216H334.011C337.435 166.204 339.685 163.429 340.034 160.691L340.124 160.028L340.156 159.78H329.388Z" fill="#A0A5A9"/>
<path d="M243.334 185.793H243.067C240.149 185.789 238.126 185.246 236.792 184.045C235.558 182.925 235.109 181.327 235.109 179.538C235.109 179.395 235.109 179.248 235.117 179.106C235.194 177 235.782 174.573 236.526 171.829C237.44 168.332 238.571 165.307 240.598 163.101C242.621 160.894 245.53 159.646 249.598 159.646H249.649C251.094 159.653 252.562 159.707 253.863 160.213C254.551 160.467 255.166 160.886 255.654 161.434L256.031 159.933H263.512L257.561 181.673C257.419 182.103 257.336 182.55 257.311 183.002V183.113C257.311 183.632 257.425 183.952 257.598 184.252L258.356 185.513H249.481L249.783 184.192C247.758 185.553 245.692 185.793 243.333 185.793M250.078 165.66C247.758 165.688 246.717 166.327 245.811 167.585C244.923 168.862 244.323 170.949 243.595 173.619C243.161 175.271 242.922 176.533 242.895 177.424L242.884 177.59C242.895 178.568 243.086 178.916 243.429 179.178C243.766 179.45 244.569 179.642 245.812 179.642H245.905C248.233 179.63 249.41 179.188 250.283 178.284C251.168 177.37 251.816 175.734 252.527 173.23H252.531C253.102 171.045 253.564 169.281 253.6 168.088V167.913C253.596 167.052 253.425 166.633 253.038 166.297C252.626 165.948 251.707 165.66 250.125 165.66H250.074" fill="#4B4B4D"/>
<path d="M254.172 167.667C254.13 168.851 253.68 170.622 253.106 172.804H253.102C252.394 175.307 251.736 176.944 250.859 177.854C249.985 178.756 248.809 179.205 246.48 179.211H246.415C245.154 179.222 244.342 179.026 243.999 178.751C243.656 178.487 243.464 178.137 243.458 177.161L243.465 177C243.489 176.108 243.73 174.845 244.175 173.19C244.893 170.521 245.497 168.433 246.384 167.155C247.288 165.897 248.325 165.264 250.647 165.235H250.679C252.277 165.232 253.197 165.522 253.603 165.875C253.999 166.205 254.17 166.628 254.174 167.484L254.172 167.667ZM258.127 181.246L264.079 159.505H256.599L256.227 161.005C255.727 160.443 255.105 160.041 254.43 159.784C253.135 159.279 251.666 159.225 250.224 159.221H250.18C246.108 159.217 243.196 160.465 241.175 162.674C239.143 164.882 238.013 167.904 237.092 171.401C236.353 174.147 235.763 176.579 235.69 178.672C235.682 178.822 235.674 178.965 235.674 179.115C235.674 180.896 236.128 182.499 237.356 183.619C238.692 184.818 240.716 185.359 243.634 185.364H243.898C246.258 185.364 248.323 185.13 250.35 183.768L250.047 185.084H258.92L258.165 183.817C257.996 183.529 257.883 183.203 257.883 182.687V182.572C257.895 182.213 257.966 181.776 258.125 181.246" fill="#A0A5A9"/>
<path d="M304.558 185.793H301.743L308.57 160.369L308.61 160.213H316.068L310.602 180.681C309.724 183.721 307.513 185.793 304.558 185.793" fill="#4B4B4D"/>
<path d="M309.183 159.78L309.138 159.944L302.311 185.364H305.124C308.075 185.364 310.291 183.295 311.169 180.256L316.633 159.78H309.183Z" fill="#A0A5A9"/>
<path d="M150.327 195.135H150.303C150.088 195.135 149.874 195.133 149.659 195.128H135.959L136.02 194.866C136.028 194.851 136.666 191.929 137.675 190.654C138.654 189.419 140.317 188.417 142.68 188.417H148.765C150.778 188.417 152.013 188.069 152.78 187.509C153.55 186.938 154.013 186.09 154.383 184.646L154.505 184.223C152.525 185.492 150.348 185.693 148.35 185.693H148.094C145.211 185.693 143.189 185.131 141.859 183.913C140.626 182.772 140.163 181.157 140.17 179.371C140.17 179.23 140.17 179.093 140.181 178.949C140.237 177.21 140.667 175.261 141.265 173.142C142.276 169.182 143.285 165.865 145.274 163.448C147.257 161.025 150.222 159.695 154.623 159.695H154.719C156.391 159.695 157.815 159.715 159.061 160.144C159.742 160.367 160.356 160.76 160.843 161.286L161.064 160.461L161.234 159.837H170.91L168.979 161.307C168.198 161.929 167.801 162.47 167.409 164.09L161.734 184.935C160.69 188.797 159.444 191.368 157.568 193C155.685 194.623 153.307 195.136 150.329 195.136M155.195 165.561C153.281 165.569 152.283 165.882 151.455 166.733C150.612 167.591 149.875 169.274 149.103 172.114C148.523 174.277 148.055 176.06 148.013 177.264V177.435C148.013 178.227 148.18 178.653 148.501 178.949C148.834 179.266 149.573 179.542 150.912 179.542H150.975C153.653 179.522 154.833 178.928 155.725 177.764C156.621 176.604 157.321 173.758 157.915 171.715C158.51 169.673 158.644 168.833 158.672 167.903V167.746C158.664 166.863 158.487 166.474 158.098 166.156C157.686 165.824 156.777 165.561 155.271 165.561H155.195Z" fill="#4B4B4D"/>
<path d="M159.24 167.479C159.208 168.406 159.076 169.242 158.482 171.286C157.893 173.335 157.186 176.174 156.293 177.341C155.395 178.502 154.215 179.099 151.544 179.122H151.532C150.16 179.124 149.406 178.844 149.07 178.52C148.744 178.222 148.582 177.799 148.581 177.009L148.582 176.835C148.617 175.634 149.086 173.845 149.672 171.688C150.443 168.849 151.178 167.161 152.023 166.305C152.847 165.456 153.848 165.144 155.759 165.132H155.791C157.324 165.132 158.249 165.392 158.662 165.726C159.057 166.05 159.234 166.434 159.238 167.32L159.24 167.479ZM171.474 159.405H161.8L161.635 160.035L161.41 160.856C160.921 160.334 160.309 159.943 159.63 159.716C158.381 159.289 156.963 159.272 155.288 159.265H155.213C150.799 159.265 147.823 160.592 145.843 163.022C143.853 165.436 142.846 168.753 141.832 172.715C141.236 174.834 140.806 176.781 140.745 178.523C140.741 178.662 140.737 178.8 140.737 178.945C140.735 180.73 141.2 182.344 142.431 183.484C143.762 184.698 145.785 185.264 148.666 185.264H148.834C150.857 185.272 153.063 185.081 155.082 183.799L154.952 184.217C154.583 185.661 154.122 186.511 153.349 187.079C152.587 187.641 151.349 187.99 149.33 187.99H143.252C140.883 187.988 139.225 188.99 138.239 190.226C137.234 191.502 136.596 194.429 136.585 194.443L136.526 194.701H150.23C150.435 194.701 150.651 194.713 150.869 194.713H150.901C153.873 194.713 156.256 194.196 158.142 192.576C160.012 190.942 161.252 188.376 162.306 184.507L167.975 163.667C168.375 162.037 168.767 161.5 169.546 160.882L171.474 159.405Z" fill="#A0A5A9"/>
<path d="M200.543 185.793H197.71L202.809 166.751C203.913 162.533 207.043 160.213 210.66 160.213H221.525L221.493 160.453L221.407 161.12C221.054 163.855 218.809 166.634 215.38 166.639H213.523C211.943 166.643 211.151 166.938 210.655 167.406C210.148 167.866 209.77 168.721 209.424 170.101L206.577 180.656C205.827 183.714 203.58 185.793 200.542 185.793" fill="#4B4B4D"/>
<path d="M221.976 160.691L222.067 160.024L222.095 159.779H211.259C207.628 159.775 204.484 162.094 203.381 166.32L198.285 185.364H201.113C204.152 185.364 206.402 183.29 207.146 180.226L209.992 169.672C210.346 168.294 210.721 167.44 211.228 166.978C211.724 166.514 212.514 166.214 214.098 166.214H215.948C219.38 166.202 221.623 163.429 221.977 160.691" fill="#A0A5A9"/>
<path d="M178.01 185.793H177.713C174.803 185.79 172.768 185.247 171.439 184.045C170.206 182.926 169.756 181.319 169.759 179.534C169.759 179.393 169.759 179.248 169.763 179.107C169.842 177 170.425 174.565 171.174 171.823C172.09 168.327 173.218 165.307 175.251 163.101C177.266 160.901 180.163 159.651 184.214 159.651H184.303C185.747 159.651 187.215 159.707 188.511 160.213C189.201 160.467 189.818 160.888 190.306 161.439L190.684 159.929H198.156L192.211 181.673C191.887 182.795 191.817 183.51 192.246 184.253L192.999 185.513H184.132L184.429 184.193C182.41 185.548 180.358 185.793 178.01 185.793M184.724 165.66C182.407 165.689 181.373 166.321 180.47 167.585C179.574 168.862 178.973 170.95 178.255 173.618C177.81 175.277 177.578 176.538 177.545 177.424V177.596C177.549 178.571 177.743 178.919 178.083 179.178C178.423 179.45 179.219 179.642 180.453 179.642H180.559C182.885 179.63 184.061 179.188 184.934 178.284C185.817 177.367 186.475 175.723 187.19 173.213L187.214 173.129C187.775 170.99 188.223 169.256 188.257 168.092V167.919C188.252 167.058 188.08 166.639 187.685 166.297C187.277 165.949 186.375 165.658 184.802 165.658H184.761V165.655L184.744 165.659H184.725" fill="#4B4B4D"/>
<path d="M188.825 167.667C188.785 168.833 188.337 170.564 187.783 172.698L187.751 172.785C187.038 175.3 186.386 176.944 185.501 177.851C184.634 178.757 183.452 179.205 181.128 179.211H181.054C179.801 179.222 178.997 179.026 178.648 178.751C178.314 178.487 178.12 178.142 178.114 177.169L178.118 176.996C178.141 176.108 178.384 174.854 178.824 173.19C179.548 170.521 180.142 168.436 181.032 167.155C181.938 165.895 182.973 165.264 185.291 165.235H185.315L185.322 165.232C186.918 165.232 187.842 165.522 188.254 165.875C188.646 166.205 188.816 166.634 188.821 167.49L188.825 167.667ZM192.778 181.246L198.732 159.5H191.257L190.881 161.01C190.378 160.443 189.757 160.041 189.083 159.784C187.783 159.279 186.313 159.221 184.869 159.221H184.821C180.752 159.221 177.844 160.465 175.822 162.674C173.798 164.882 172.662 167.901 171.745 171.396C171.001 174.142 170.41 176.579 170.339 178.672C170.331 178.817 170.327 178.962 170.327 179.107C170.327 180.893 170.772 182.499 172.015 183.619C173.347 184.818 175.369 185.364 178.283 185.364H178.577C180.929 185.364 182.98 185.119 185.003 183.768L184.701 185.084H193.571L192.818 183.828C192.392 183.081 192.459 182.372 192.777 181.246" fill="#A0A5A9"/>
<path d="M221.864 185.793H219.057L225.913 160.213H233.247L227.913 180.681C227.029 183.722 224.812 185.793 221.864 185.793Z" fill="#4B4B4D"/>
<path d="M219.622 185.363H222.435C225.382 185.363 227.601 183.296 228.481 180.257L233.82 159.779H226.486L219.622 185.363ZM55.3848 212.675L58.9358 199.253H62.2997L63.6902 204.369C64.1013 206.08 64.3546 207.478 64.5635 208.949H64.6246C64.7869 207.575 65.0746 206.103 65.6013 204.132L66.8796 199.252H69.5473L66.0202 212.674H63.053L61.5797 207.317C61.1186 205.504 60.8502 204.289 60.6152 202.636L60.5536 202.66C60.2953 203.972 59.8358 205.862 59.2808 207.977L58.0531 212.676L55.3848 212.675ZM77.25 204.969C76.9964 204.917 76.7383 204.89 76.4795 204.888C74.6273 204.888 73.1051 207.157 72.969 208.97C72.8978 209.927 73.2284 210.581 74.0234 210.581C74.8795 210.581 76.0067 209.606 76.625 207.216L77.25 204.969ZM75.84 212.674C75.9011 212.096 76.0095 211.438 76.1234 210.744H76.0645C75.0456 212.354 73.7712 212.892 72.6367 212.892C70.8823 212.892 69.7912 211.536 69.9423 209.505C70.1879 206.222 72.619 202.716 77.4189 202.716C78.5739 202.716 79.81 202.936 80.6077 203.194L79.1933 208.292C78.8583 209.546 78.5389 211.456 78.4878 212.675L75.84 212.674ZM87.9193 200.289L87.2226 202.936H89.2915L88.7126 205.108H86.6438L85.7393 208.413C85.6299 208.79 85.511 209.307 85.4871 209.646C85.4516 210.125 85.626 210.463 86.241 210.463C86.501 210.463 86.7799 210.463 87.0404 210.423L86.5343 212.674C86.1671 212.81 85.4438 212.891 84.8255 212.891C83.111 212.891 82.3655 211.994 82.4549 210.779C82.4949 210.245 82.5938 209.725 82.7899 208.969L83.8344 205.107H82.5994L83.1605 202.936H84.4143L84.911 201.104L87.9193 200.289ZM93.8075 201.721C93.0298 201.721 92.4715 201.182 92.5359 200.326C92.5741 199.882 92.7774 199.468 93.1056 199.167C93.4339 198.865 93.8633 198.697 94.3092 198.696C95.1475 198.696 95.7014 199.252 95.6397 200.109C95.562 201.125 94.7425 201.721 93.8253 201.721H93.8075ZM89.3648 212.675L91.9426 202.936H94.8092L92.2303 212.675H89.3648ZM99.1719 208.81C99.088 209.945 99.5886 210.701 100.585 210.701C102.156 210.701 103.205 208.413 103.33 206.738C103.396 205.842 103.09 204.888 101.934 204.888C100.281 204.888 99.2669 207.299 99.1725 208.81M106.297 206.719C106.031 210.286 103.407 212.891 100.021 212.891C97.553 212.891 96.0208 211.278 96.2003 208.87C96.4525 205.483 99.0091 202.716 102.475 202.716C105.083 202.716 106.463 204.509 106.297 206.719ZM107.65 212.675L109.374 206.103C109.706 204.868 109.943 203.791 110.127 202.936H112.677L112.357 204.55H112.398C113.408 203.273 114.664 202.716 115.959 202.716C117.551 202.716 118.375 203.691 118.25 205.365C118.218 205.803 118.082 206.54 117.967 207.018L116.468 212.675H113.603L115.02 207.276C115.111 206.918 115.172 206.552 115.203 206.184C115.254 205.504 115.048 205.026 114.332 205.026C113.396 205.026 112.214 206.2 111.655 208.35L110.516 212.675H107.65ZM127.583 204.969C127.329 204.917 127.071 204.89 126.812 204.888C124.958 204.888 123.436 207.157 123.3 208.97C123.228 209.927 123.558 210.581 124.356 210.581C125.211 210.581 126.339 209.606 126.958 207.216L127.583 204.969ZM126.171 212.674C126.232 212.096 126.342 211.438 126.455 210.744H126.395C125.376 212.354 124.102 212.892 122.968 212.892C121.215 212.892 120.122 211.536 120.275 209.505C120.519 206.222 122.951 202.716 127.749 202.716C128.903 202.716 130.141 202.936 130.938 203.194L129.525 208.292C129.19 209.546 128.87 211.456 128.819 212.675L126.171 212.674ZM131.77 212.675C131.77 212.675 134.488 202.465 134.914 200.925C135.427 199.054 136.665 198.536 138.4 198.536C135.067 210.946 134.638 212.675 134.638 212.675H131.77ZM152.809 212.294C152.067 212.612 150.831 212.892 149.217 212.892C145.675 212.892 143.447 210.72 143.712 207.179C143.936 204.169 145.465 201.821 147.597 200.465C149.066 199.489 150.751 199.033 152.642 199.033C154.096 199.033 155.165 199.372 155.527 199.612L154.573 201.94C154.192 201.74 153.332 201.5 152.179 201.5C151.024 201.5 149.901 201.859 149.035 202.539C147.832 203.453 147 204.985 146.861 206.858C146.702 208.989 147.788 210.424 150.16 210.424C151.096 210.424 152.042 210.264 152.741 209.986L152.809 212.294ZM162.698 204.969C162.444 204.917 162.186 204.89 161.927 204.888C160.075 204.888 158.551 207.157 158.417 208.97C158.345 209.927 158.674 210.581 159.469 210.581C160.327 210.581 161.454 209.606 162.071 207.216L162.698 204.969ZM161.288 212.674C161.348 212.096 161.457 211.438 161.569 210.744H161.51C160.493 212.354 159.22 212.892 158.086 212.892C156.331 212.892 155.239 211.536 155.391 209.505C155.635 206.222 158.068 202.716 162.865 202.716C164.02 202.716 165.259 202.936 166.056 203.194L164.641 208.292C164.307 209.546 163.985 211.456 163.935 212.675L161.288 212.674ZM166.983 212.675L168.511 206.879C168.9 205.406 169.143 203.773 169.304 202.936H171.792C171.685 203.594 171.576 204.251 171.465 204.925H171.526C172.298 203.631 173.463 202.716 174.794 202.716C174.973 202.713 175.153 202.719 175.331 202.736L174.566 205.523C174.427 205.523 174.269 205.503 174.109 205.503C172.278 205.503 171.301 207.136 170.798 209.046L169.853 212.673L166.983 212.675ZM175.29 212.675L176.817 206.879C177.208 205.406 177.448 203.773 177.609 202.936H180.099L179.772 204.925H179.831C180.605 203.631 181.77 202.716 183.101 202.716C183.281 202.716 183.46 202.716 183.638 202.736L182.871 205.523C182.731 205.523 182.574 205.503 182.416 205.503C180.585 205.503 179.605 207.136 179.104 209.046L178.157 212.673L175.29 212.675ZM188.037 201.721C187.26 201.721 186.705 201.182 186.768 200.326C186.807 199.882 187.01 199.468 187.338 199.166C187.667 198.864 188.097 198.696 188.543 198.696C189.377 198.696 189.933 199.252 189.869 200.109C189.793 201.125 188.975 201.721 188.056 201.721H188.037ZM183.596 212.675L186.173 202.936H189.042L186.461 212.675H183.596ZM197.007 205.624C197.043 205.146 196.669 204.808 196.013 204.808C194.677 204.808 193.839 205.904 193.571 206.819C195.799 206.839 196.938 206.521 197.005 205.644L197.007 205.624ZM197.995 212.117C196.817 212.693 195.388 212.892 194.314 212.892C191.526 212.892 190.211 211.3 190.399 208.768C190.622 205.803 193.001 202.715 196.527 202.715C198.496 202.715 199.828 203.811 199.694 205.624C199.509 208.114 197.032 209.007 193.137 208.91C193.117 209.187 193.184 209.627 193.362 209.905C193.703 210.402 194.341 210.66 195.176 210.66C196.232 210.66 197.144 210.424 197.95 210.044L197.995 212.117ZM200.519 212.675L202.044 206.879C202.434 205.406 202.677 203.773 202.837 202.936H205.328C205.217 203.599 205.108 204.262 205.001 204.925H205.059C205.833 203.631 206.998 202.716 208.331 202.716C208.509 202.716 208.689 202.716 208.868 202.736L208.101 205.523C207.962 205.523 207.805 205.503 207.645 205.503C205.813 205.503 204.836 207.136 204.331 209.046L203.385 212.673L200.519 212.675Z" fill="#A0A5A9"/>
<defs>
<linearGradient id="paint0_linear_730_18442" x1="401.473" y1="171.851" x2="325.06" y2="139.974" gradientUnits="userSpaceOnUse">
<stop stop-color="#ECEDED"/>
<stop offset="0.2637" stop-color="white"/>
<stop offset="1" stop-color="#CFD1D2"/>
</linearGradient>
<linearGradient id="paint1_linear_730_18442" x1="358.81" y1="130.306" x2="372.416" y2="195.264" gradientUnits="userSpaceOnUse">
<stop stop-color="#90BF9F"/>
<stop offset="0.0934" stop-color="#90BF9F"/>
<stop offset="0.6758" stop-color="#1FA22E"/>
<stop offset="0.8846" stop-color="#008132"/>
<stop offset="1" stop-color="#008132"/>
</linearGradient>
<linearGradient id="paint2_linear_730_18442" x1="371.57" y1="150.316" x2="371.674" y2="189.839" gradientUnits="userSpaceOnUse">
<stop stop-color="#DF846B"/>
<stop offset="0.0659" stop-color="#DF846B"/>
<stop offset="0.3516" stop-color="#E2001A"/>
<stop offset="0.85" stop-color="#AC0527"/>
<stop offset="1" stop-color="#AC0527"/>
</linearGradient>
<linearGradient id="paint3_linear_730_18442" x1="402.223" y1="205.956" x2="419.212" y2="177.02" gradientUnits="userSpaceOnUse">
<stop stop-color="#DF846B"/>
<stop offset="0.0659" stop-color="#DF846B"/>
<stop offset="0.3516" stop-color="#E2001A"/>
<stop offset="0.85" stop-color="#AC0527"/>
<stop offset="1" stop-color="#AC0527"/>
</linearGradient>
</defs>
</svg>
