<svg width="480" height="320" viewBox="0 0 480 320" fill="none" xmlns="http://www.w3.org/2000/svg">
<path d="M309.956 166.395H253.772L314.77 125.533L55.3848 171.727L352.677 71.0537L309.956 166.395Z" fill="#0067B0"/>
<path d="M290.011 204.776H285.771C285.582 200.696 284.022 197.472 281.765 195.254C280.319 193.834 277.699 190.79 267.653 190.765C252.163 190.731 245.242 205.699 245.212 215.703C245.192 223.965 249.417 243.686 271.181 243.795C277.4 243.83 284.574 241.847 289.756 238.734L289.762 243.203C283.533 246.661 274.007 248.947 267.305 248.947C257.221 248.947 247.494 246.461 240.424 240.602C233.256 234.737 229.484 226.406 229.484 216.551C229.484 196.028 249.343 185.405 266.552 185.529C274.1 185.579 280.877 187.388 288.151 189.371C289.332 189.69 289.468 189.775 290.025 189.983L290.011 204.776ZM324.735 203.267L315.298 225.23H334.187L324.735 203.267ZM335.757 247.353V244.876C338.068 244.926 337.729 244.887 339.952 244.866C341.287 244.851 342.094 243.525 340.994 240.885L336.165 229.579H313.415C312.947 230.74 307.979 241.627 307.646 242.49C307.008 244.158 308.657 244.831 310.202 244.866C311.532 244.896 312.628 244.886 314.228 244.876V247.353H294.168V244.707C295.977 244.726 296.376 244.707 298.269 244.737C300.357 244.772 300.789 243.173 302.205 240.063L308.124 227.203L319.445 202.245C320.108 200.82 322.086 196.296 322.654 194.871C323.127 193.984 324.258 191.318 324.632 190.431C325.011 189.544 326.142 186.789 326.43 185.987H331.334L355.912 240.243C357.328 243.442 358.225 244.722 360.452 244.742C361.174 244.747 363.332 244.707 365.016 244.707V247.353H335.757ZM393.037 214.527C397.63 214.558 405.473 214.503 407.087 214.527C409.36 214.558 411.531 213.482 411.522 210.652C411.512 208.912 411.571 207.178 411.522 205.948H415.01V225.444H411.423C411.382 223.457 411.423 222.928 411.423 222.086C411.463 218.788 409.917 218.439 407.222 218.354L393.076 218.374L393.026 243.153H418.128C419.355 243.153 421.188 241.888 421.188 239.659L421.223 232.799H424.616L424.586 247.343L370.994 247.353V245.41C372.887 245.419 372.737 245.37 374.042 245.385C376.405 245.41 378.727 243.028 378.727 239.834V194.114C378.721 190.79 376.205 188.853 373.883 188.817C372.658 188.798 371.94 188.743 370.236 188.817V186.435H423.051L423.071 200.496H420.152C420.122 197.826 420.132 197.169 420.141 194.766C420.141 192.285 417.74 190.595 415.073 190.6L393.056 190.591L393.037 214.527Z" fill="#231F20"/>
</svg>
