<svg width="480" height="320" viewBox="0 0 480 320" fill="none" xmlns="http://www.w3.org/2000/svg">
<path d="M398.837 184.967L94.0196 184.846L55.4316 90.3905C55.4316 90.3905 101.681 131.418 160.039 151.349C227.575 174.413 398.837 184.967 398.837 184.967Z" fill="#73D2F6"/>
<mask id="mask0_730_18694" style="mask-type:luminance" maskUnits="userSpaceOnUse" x="55" y="90" width="344" height="95">
<path d="M94.0199 184.845L398.839 184.964C398.839 184.964 227.576 174.409 160.042 151.347C101.682 131.415 55.4316 90.3888 55.4316 90.3888L94.0199 184.845Z" fill="white"/>
</mask>
<g mask="url(#mask0_730_18694)">
<path d="M397.847 181.786L93.4407 197.619L67.3906 124.668C67.3906 124.668 104.231 147.508 163.551 164.354C232.2 183.852 397.847 181.786 397.847 181.786Z" fill="#45B1E8"/>
<path d="M397.847 181.786L93.4407 197.619L67.3906 124.668C67.3906 124.668 104.231 147.508 163.551 164.354C232.2 183.852 397.847 181.786 397.847 181.786Z" stroke="white" stroke-width="3.49934" stroke-miterlimit="3.864"/>
<path d="M408.976 183.355L88.7185 214.702L54.6367 139.246C54.6367 139.246 90.9859 158.811 151.337 171.481C221.179 186.142 408.976 183.355 408.976 183.355Z" fill="#0F2752"/>
<path d="M408.976 183.355L88.7185 214.702L54.6367 139.246C54.6367 139.246 90.9859 158.811 151.337 171.481C221.179 186.142 408.976 183.355 408.976 183.355Z" stroke="white" stroke-width="3.49934" stroke-miterlimit="3.864"/>
</g>
<path d="M398.837 184.968L94.0196 184.844L55.4316 90.3869C55.4316 90.3869 101.682 131.416 160.039 151.345C227.575 174.409 398.837 184.964 398.837 184.964V184.968Z" stroke="white" stroke-width="0.252558" stroke-miterlimit="3.864"/>
<path d="M120.599 212.032C118.77 210.222 116.19 209.248 113.776 209.248C109.45 209.248 107.237 212.334 108.092 216.257C109.008 220.247 112.59 223.132 116.988 223.132C119.294 223.132 121.373 222.092 122.493 220.449L124.216 228.331C122.029 228.997 120.461 229.503 118.264 229.503C114.478 229.503 110.566 228.163 107.216 225.782C103.67 223.266 101.587 219.979 100.762 216.224C99.9848 212.771 100.667 209.449 102.68 206.968C104.78 204.419 108.321 202.877 112.141 202.877C114.411 202.877 116.578 203.346 118.876 204.151L120.599 212.032ZM136.764 211.361H136.691L135.56 219.408H141.435L136.764 211.361ZM134.724 224.439L133.814 228.831H126.32L131.14 203.546H138.853L154.72 228.831H147.187L144.455 224.439H134.724ZM162.13 223.265H170.599L171.848 228.833H156.313L150.681 203.548H157.745L162.13 223.265Z" fill="#0F2752"/>
<path d="M307.641 211.381H307.568L306.931 219.412H311.747L307.641 211.381ZM306.442 224.433L305.857 228.815H299.711L302.748 203.582H309.07L322.997 228.839L316.82 228.831L314.42 224.44L306.442 224.433ZM330.038 228.851H324.245L318.714 203.605H324.504L330.038 228.851ZM335.006 214.935H335.57C337.463 214.938 339.506 214.539 338.904 211.794C338.304 209.049 336.091 208.643 334.201 208.641H333.638L335.006 214.935ZM350.786 228.88H343.575L335.988 219.165H335.915L338.036 228.872H332.245L326.711 203.628H335.368C339.771 203.633 343.637 206.015 344.833 211.407C345.579 214.888 344.533 217.9 341.509 218.532L350.786 228.88ZM356.368 223.334H363.312L364.536 228.891H351.798L346.268 203.647H352.057L356.368 223.334ZM372.004 228.913H366.211L360.68 203.666H366.469L372.004 228.913ZM368.462 203.67H373.288L385.863 219.118H385.936L382.199 203.682L387.026 203.687L393.144 228.935H388.32L375.733 213.455H375.66L379.409 228.922L374.583 228.917L368.462 203.67ZM396.659 209.268L397.581 213.487H404.112L405.334 219.045H398.806L399.746 223.397H406.631L407.855 228.954H395.177L389.643 203.709H402.32L403.544 209.267L396.659 209.268ZM418.82 210.237C417.516 209.233 416.035 208.559 414.617 208.559C413.552 208.556 412.267 209.254 412.595 210.663C412.917 212.135 414.596 212.709 415.675 213.079L417.274 213.584C420.6 214.627 423.394 216.404 424.267 220.49C424.809 223.001 424.846 225.577 423.451 227.282C422.072 228.955 419.903 229.655 417.656 229.65C414.849 229.647 411.863 228.57 409.177 226.76L410.502 221.474C412.289 222.914 414.245 224.089 416.226 224.092C417.584 224.095 418.875 223.328 418.474 221.552C418.079 219.709 415.665 219.072 414.34 218.666C410.433 217.491 407.804 216.414 406.76 211.528C405.632 206.404 408.126 203.06 412.589 203.067C414.833 203.07 417.752 203.879 420.009 205.155L418.82 210.237ZM208.932 211.232H208.859L208.222 219.263H213.038L208.932 211.232ZM207.734 224.285L207.148 228.667H201.002L204.039 203.433H210.361L224.289 228.69L218.112 228.683L215.712 224.292L207.734 224.285ZM228.624 214.776H229.187C231.08 214.779 233.123 214.381 232.521 211.635C231.921 208.89 229.709 208.485 227.819 208.482H227.255L228.624 214.776ZM244.403 228.721H237.192L229.605 219.006H229.532L231.653 228.713L225.862 228.706L220.328 203.462H228.985C233.388 203.467 237.254 205.849 238.45 211.241C239.194 214.722 238.15 217.734 235.127 218.366L244.403 228.721Z" fill="#45B1E8"/>
<path d="M263.752 214.661C264.484 218.344 264.93 221.492 263.635 224.634C262.212 228.079 259.265 229.583 255.542 229.577C248.54 229.577 242.5 224.17 240.749 216.233C238.959 208.031 242.671 202.647 249.853 202.657C254.431 202.665 258.493 205.012 261.456 209.739L256.541 212.342C255.203 209.93 253.179 208.321 250.847 208.316C247.035 208.311 245.94 212.427 246.787 216.275C247.632 220.192 250.597 224.18 254.408 224.185C256.919 224.19 258.52 222.721 258.094 219.808H253.367L252.257 214.651L263.752 214.661ZM271.582 215.711C272.522 220.063 276.055 223.25 279.513 223.255C282.971 223.26 285.109 220.084 284.169 215.73C283.395 212.248 279.862 209.064 276.404 209.059C272.946 209.054 270.808 212.231 271.582 215.711ZM290.187 215.707C291.963 223.875 288.059 229.627 280.908 229.616C273.756 229.616 267.319 223.839 265.542 215.67C263.869 208.037 268.597 202.688 275.009 202.696C281.422 202.696 288.513 208.073 290.187 215.707ZM195.585 212.032C193.756 210.222 191.177 209.248 188.762 209.248C184.436 209.248 182.223 212.334 183.078 216.257C183.994 220.247 187.576 223.132 191.975 223.132C194.28 223.132 196.36 222.092 197.48 220.449L199.203 228.331C197.015 228.997 195.447 229.503 193.25 229.503C189.464 229.503 185.552 228.163 182.202 225.782C178.656 223.266 176.573 219.979 175.749 216.224C174.971 212.771 175.653 209.449 177.667 206.968C179.767 204.419 183.308 202.877 187.128 202.877C189.397 202.877 191.564 203.346 193.862 204.151L195.585 212.032Z" fill="#45B1E8"/>
</svg>
