<svg width="480" height="320" viewBox="0 0 480 320" fill="none" xmlns="http://www.w3.org/2000/svg">
<path d="M101.983 131.396H105.041L110.426 151.145L106.476 152.249C104.352 147.691 102.738 144.633 101.634 143.076C99.8219 140.556 97.5629 138.56 94.8605 137.087C92.157 135.616 89.1756 134.879 85.9212 134.879C82.099 134.879 78.58 135.907 75.3679 137.961C72.1545 140.016 69.55 143.026 67.5532 146.993C65.5563 150.96 64.5585 155.424 64.5585 160.382C64.5585 165.482 65.5708 170.03 67.5955 174.025C69.6189 178.021 72.3587 181.096 75.8136 183.248C79.2674 185.402 82.9905 186.479 86.983 186.479C90.7484 186.479 94.5996 185.399 98.5353 183.24C102.47 181.08 105.883 178.055 108.771 174.163L112.169 176.499C110.413 179.105 108.517 181.313 106.478 183.124C103.25 186.04 99.8956 188.193 96.4128 189.58C92.9301 190.966 89.1079 191.661 84.9463 191.661C75.7448 191.661 68.2695 188.25 62.5218 181.425C57.7634 175.763 55.3848 169.025 55.3848 161.21C55.3848 155.463 56.7015 150.261 59.335 145.603C61.9685 140.946 65.5998 137.243 70.2289 134.497C74.8581 131.752 79.8484 130.378 85.2 130.378C88.0593 130.378 90.7134 130.767 93.1632 131.546C95.6119 132.325 98.0956 133.578 100.617 135.304L101.983 131.396ZM148.726 166.052L148.733 161.423C148.733 158.28 147.853 156.036 146.094 154.692C144.334 153.347 141.853 152.675 138.645 152.675C137.057 152.675 135.666 152.865 134.474 153.248C133.283 153.63 132.324 154.154 131.601 154.82C130.878 155.486 130.346 156.243 130.006 157.092C129.864 157.404 129.524 158.607 128.985 160.702C128.332 163.25 127.017 164.524 125.034 164.524C123.901 164.524 122.989 164.148 122.295 163.398C121.6 162.648 121.255 161.636 121.255 160.361C121.255 158.492 121.948 156.66 123.336 154.861C124.723 153.064 126.839 151.576 129.685 150.402C132.53 149.228 135.892 148.64 139.772 148.64C143.396 148.64 146.496 149.198 149.073 150.315C151.648 151.433 153.546 153.037 154.764 155.13C155.613 156.573 156.038 159.204 156.038 163.021V179.355C156.038 181.674 156.108 183.188 156.251 183.895C156.563 185.111 157.106 186.023 157.887 186.631C158.666 187.238 159.677 187.543 160.924 187.543C162.226 187.543 163.783 187.243 165.595 186.644V190.344C163.244 191.024 161.136 191.365 159.267 191.365C157.256 191.365 155.566 191.082 154.193 190.516C152.819 189.949 151.693 189.122 150.816 188.031C149.938 186.941 149.373 185.646 149.118 184.145C145.719 186.806 142.647 188.675 139.902 189.751C137.156 190.828 134.381 191.365 131.577 191.365C127.67 191.365 124.499 190.303 122.064 188.18C119.629 186.056 118.412 183.565 118.412 180.704C118.412 178.978 118.858 177.335 119.751 175.778C120.645 174.221 122.005 172.847 123.833 171.659C125.66 170.47 128.531 169.423 132.442 168.515C136.352 167.609 141.78 166.789 148.726 166.052ZM148.703 169.748C142.132 170.71 138.067 171.376 136.508 171.743C133.419 172.451 131.21 173.229 129.879 174.079C128.546 174.929 127.598 175.842 127.031 176.819C126.465 177.797 126.182 178.835 126.182 179.94C126.182 181.044 126.501 182.113 127.139 183.146C127.775 184.18 128.675 184.993 129.838 185.587C130.999 186.181 132.231 186.479 133.535 186.479C135.376 186.479 137.459 186.04 139.782 185.162C142.105 184.285 145.08 182.572 148.707 180.024L148.703 169.748ZM168.142 135.431V131.906C171.992 131.624 175.744 130.435 179.395 128.339H182.539V180.619C182.539 182.827 182.68 184.215 182.964 184.78C183.331 185.573 183.87 186.154 184.578 186.521C185.285 186.889 186.644 187.073 188.655 187.073H190.014V190.64H168.143V187.073H170.351C171.738 187.073 172.778 186.862 173.473 186.44C174.166 186.017 174.661 185.441 174.958 184.71C175.256 183.979 175.404 182.516 175.404 180.32V135.43H168.142V135.431ZM194.557 155.817V152.207C196.687 152.007 198.546 151.656 200.137 151.155C201.727 150.652 203.545 149.815 205.59 148.64H208.742V155.774C211.97 153.227 214.49 151.514 216.302 150.635C219.077 149.304 221.723 148.64 224.243 148.64C225.97 148.64 227.663 148.959 229.319 149.595C230.976 150.232 232.306 151.018 233.312 151.952C234.316 152.886 235.172 154.16 235.881 155.774C238.853 153.141 241.607 151.294 244.141 150.232C246.674 149.17 249.245 148.64 251.849 148.64C254.341 148.64 256.542 149.157 258.453 150.19C260.364 151.224 261.751 152.519 262.615 154.076C263.479 155.633 263.91 157.913 263.91 160.913V180.62C263.91 182.687 263.952 183.89 264.037 184.229C264.176 184.767 264.48 185.277 264.943 185.759C265.408 186.241 265.936 186.58 266.529 186.778C267.118 186.976 268.215 187.075 269.821 187.075H271.173V190.643H249.896V187.075C252.331 187.048 253.909 186.87 254.631 186.545C255.354 186.22 255.891 185.69 256.245 184.953C256.599 184.217 256.775 182.772 256.775 180.621V161.891C256.775 159.512 256.563 157.87 256.136 156.964C255.711 156.058 254.952 155.302 253.859 154.692C252.77 154.083 251.413 153.779 249.797 153.779C247.782 153.779 245.668 154.316 243.455 155.393C240.503 156.865 238.177 158.521 236.476 160.361V180.62C236.476 182.573 236.566 183.855 236.751 184.464C236.935 185.072 237.246 185.582 237.685 185.993C238.124 186.404 238.633 186.688 239.214 186.842C239.794 186.998 241.203 187.075 243.44 187.075V190.643H222.545V187.075H223.734C225.404 187.075 226.586 186.877 227.28 186.481C227.972 186.085 228.517 185.476 228.916 184.655C229.197 184.003 229.341 182.659 229.341 180.62V162.527C229.341 159.866 229.135 158.068 228.723 157.133C228.312 156.2 227.524 155.407 226.361 154.755C225.198 154.104 223.836 153.777 222.275 153.777C220.431 153.777 218.573 154.23 216.7 155.136C213.92 156.468 211.366 158.208 209.04 160.36V182.189C209.04 183.491 209.217 184.447 209.571 185.056C209.925 185.664 210.484 186.154 211.249 186.521C212.013 186.889 213.061 187.073 214.392 187.073H215.964V190.64H194.644V187.073H195.785C197.726 187.073 199.007 186.918 199.627 186.605C200.527 186.18 201.175 185.501 201.569 184.566C201.795 184.057 201.907 182.74 201.907 180.616V155.817H194.557ZM327.251 131.396H334.2L352.637 180.927C353.543 183.414 354.456 185.06 355.377 185.865C356.297 186.671 357.535 187.073 359.092 187.073H360.026V190.64H338.943V187.073C339.623 187.016 340.287 186.988 340.938 186.988C342.297 186.988 343.189 186.847 343.614 186.563C344.435 186.026 344.846 185.347 344.846 184.524C344.846 183.93 344.45 182.472 343.658 180.15L339.739 168.683H318.275L313.653 181.509C313.172 182.84 312.93 183.759 312.93 184.269C312.93 184.836 313.079 185.331 313.376 185.755C313.673 186.179 314.077 186.498 314.586 186.711C315.096 186.923 315.918 187.029 317.05 187.029C317.814 187.029 318.436 187.044 318.918 187.072V190.639H301.209V187.072C302.851 187.072 304.033 186.909 304.756 186.584C305.478 186.259 306.107 185.734 306.645 185.012C307.182 184.29 307.89 182.769 308.769 180.447L327.251 131.396ZM319.771 164.523H338.067L328.952 139.041L319.771 164.523ZM363.076 155.732V152.207C365.426 151.928 367.401 151.537 369.001 151.033C370.6 150.529 372.419 149.732 374.458 148.64H377.558V182.7C377.558 183.889 377.729 184.781 378.068 185.376C378.408 185.97 378.882 186.403 379.491 186.671C380.1 186.94 381.211 187.074 382.825 187.074H384.821V190.641H363.076V187.074H364.817C366.714 187.074 367.988 186.904 368.639 186.564C369.291 186.225 369.751 185.743 370.02 185.121C370.29 184.499 370.424 183.039 370.424 180.747V155.732H363.076ZM373.864 129.485C375.223 129.485 376.384 129.96 377.347 130.908C378.31 131.858 378.79 133.01 378.79 134.369C378.79 135.728 378.31 136.889 377.347 137.852C376.384 138.815 375.223 139.296 373.864 139.296C372.505 139.296 371.344 138.815 370.381 137.852C369.419 136.891 368.938 135.728 368.938 134.369C368.938 133.01 369.419 131.857 370.381 130.908C371.344 129.96 372.505 129.485 373.864 129.485ZM389.45 155.732V152.207C391.512 152.039 393.346 151.697 394.955 151.179C396.564 150.662 398.4 149.815 400.46 148.64H403.636V156.667C405.646 154.204 407.982 152.251 410.644 150.806C413.305 149.361 415.698 148.64 417.82 148.64C419.915 148.64 421.571 149.135 422.789 150.126C424.007 151.117 424.616 152.319 424.616 153.735C424.616 154.755 424.212 155.654 423.405 156.431C422.598 157.211 421.628 157.6 420.496 157.6C419.986 157.6 419.548 157.53 419.179 157.387C418.811 157.246 418.273 156.934 417.566 156.453C416.008 155.434 414.706 154.924 413.659 154.924C412.243 154.924 410.686 155.518 408.987 156.708C406.836 158.237 405.151 159.738 403.933 161.21V180.789C403.933 182.487 404.025 183.641 404.21 184.25C404.393 184.859 404.698 185.383 405.123 185.821C405.548 186.261 406.071 186.579 406.695 186.777C407.318 186.975 408.408 187.074 409.965 187.074H411.366V190.641H389.409V187.074H391.235C392.963 187.074 394.095 186.92 394.634 186.607C395.369 186.181 395.915 185.594 396.269 184.844C396.623 184.094 396.8 182.742 396.8 180.789V155.732H389.45Z" fill="black"/>
</svg>
