<svg width="480" height="320" viewBox="0 0 480 320" fill="none" xmlns="http://www.w3.org/2000/svg">
<path d="M57.0716 133.299C58.9374 128.942 63.4125 126.049 68.0475 125.528C71.9466 125.102 75.9663 125.405 79.6931 126.64C79.4592 128.587 79.2155 130.539 78.9866 132.486C78.7158 132.607 78.1521 132.843 77.8789 132.961C77.6057 131.62 77.3571 130.268 77.1134 128.92C74.3466 127.413 71.0851 126.458 67.9417 127.229C64.7442 127.814 61.9946 130.232 60.9313 133.289C58.9325 138.894 59.0334 145.491 62.2137 150.645C64.2716 154.121 68.5595 155.876 72.498 155.327C74.738 155.12 76.6481 153.86 78.6863 153.052C77.9355 154.16 77.5171 155.861 75.986 156.134C72.4217 157.173 68.5743 157.178 64.9608 156.39C61.207 155.568 58.386 152.437 56.914 149.018C54.7257 144.068 54.9817 138.232 57.0716 133.299ZM278.257 126.667C279.537 125.798 281.133 126.126 282.577 126.131C282.417 127.297 282.206 128.457 282.036 129.616C280.251 129.395 277.733 127.846 276.525 129.899C275.513 132.885 276.18 136.159 276.022 139.265C277.489 139.278 278.954 139.32 280.421 139.418C280.19 139.908 279.729 140.883 279.498 141.37C278.339 141.37 277.182 141.382 276.03 141.402C276.212 146.234 275.417 151.189 276.566 155.923C277.438 155.991 278.317 156.075 279.2 156.151C279.22 156.459 279.252 157.075 279.274 157.387C276.175 157.323 273.069 157.296 269.969 157.488C269.942 157.21 269.888 156.661 269.854 156.388C270.622 156.151 271.387 155.91 272.153 155.657C272.512 151.002 272.48 146.32 272.234 141.656C271.712 141.616 270.661 141.54 270.139 141.503C270.819 140.666 271.68 139.918 272.133 138.921C272.547 136.947 272.173 134.8 273.105 132.942C274.302 130.512 275.966 128.188 278.257 126.667ZM146.312 127.088C148.49 126.645 150.679 126.261 152.865 125.872C152.446 134.118 152.596 142.372 152.547 150.628C152.485 152.408 152.717 154.172 153.177 155.896C153.697 155.935 154.735 156.016 155.26 156.055C155.22 156.353 155.144 156.951 155.1 157.249C153.101 157.257 151.107 157.377 149.116 157.53C149.091 156.511 149.071 155.494 149.059 154.475C147.319 155.861 145.463 157.387 143.161 157.626C140.508 157.975 137.78 156.329 136.739 153.889C134.95 150.005 135.378 145.072 138.137 141.742C140.862 138.768 145.224 137.158 149.153 138.527C148.995 135.105 149.534 131.603 148.586 128.257C147.725 128.068 146.76 127.952 146.312 127.088ZM143.279 140.028C140.793 140.952 139.72 143.733 139.594 146.19C139.442 149.06 139.631 152.395 141.785 154.554C143.459 156.215 146.401 155.659 147.732 153.852C149.842 151.187 149.231 147.568 149.219 144.417C149.384 141.444 146.105 138.852 143.279 140.028ZM209.539 127.261C213.504 127.214 217.477 127.423 221.435 126.958C224.259 126.66 227.769 127.317 229.192 130.079C231.734 135.706 227.053 142.82 220.96 142.995C219.543 142.921 217.399 142.94 217.096 141.129C219.304 141.515 221.999 142.02 223.688 140.105C226.26 137.043 226.336 131.435 222.76 129.082C220.874 128.107 218.619 128.491 216.717 129.217C216.343 135.066 216.571 140.944 216.315 146.8C216.32 149.766 216.111 152.809 216.862 155.713C217.891 156.235 219.375 156.134 219.816 157.431C216.301 157.328 212.771 157.621 209.29 157.158C210.189 156.57 211.378 156.331 212.114 155.512C212.559 154.128 212.535 152.661 212.618 151.221C212.731 144.666 212.746 138.108 212.731 131.551C212.675 130.603 212.719 129.488 212.013 128.75C211.181 128.265 210.245 127.935 209.539 127.261ZM317.15 141.144C317.11 137.259 317.081 133.377 317.196 129.493C348.45 129.476 379.702 129.545 410.959 129.724C410.991 130.084 411.057 130.825 411.094 131.196C401.652 132.476 391.894 135.002 384.389 141.151C361.969 141.198 339.557 141.22 317.15 141.144ZM159.073 132.703C159.668 131.711 160.104 130.202 161.569 130.387C163.41 130.027 164.493 132.58 163.42 133.929C162.804 135.342 161.123 134.731 159.964 134.561C159.664 133.943 159.367 133.324 159.073 132.703ZM263.057 134.618C261.302 133.328 262.528 130.153 264.751 130.492C266.063 130.296 266.469 131.797 266.959 132.686C266.794 133.139 266.457 134.042 266.292 134.49C265.268 134.822 264 135.529 263.057 134.618ZM285.206 130.842C286.609 129.919 288.95 131.1 288.608 132.89C288.643 134.296 287.043 135.573 285.684 135.039C283.744 134.714 283.427 131.595 285.206 130.842ZM80.2494 140.661C81.7287 139.465 83.4887 138.68 85.234 137.966C88.1804 136.787 92.2444 138.392 92.7687 141.742C93.357 146.241 92.4093 150.832 93.2069 155.32C94.2432 155.652 95.277 155.999 96.301 156.383C94.0536 157.311 91.5429 156.848 89.1823 157.089V154.507C87.2401 156.405 84.5472 158.293 81.7017 157.23C78.7847 156.42 78.3614 152.55 79.7029 150.246C81.581 146.758 85.9552 146.298 89.2955 144.952C89.1527 143.278 89.1995 141.05 87.4493 140.171C85.522 139.061 83.4297 140.378 81.8001 141.412C81.6672 141.926 81.4014 142.968 81.266 143.484C80.562 142.709 80.0475 141.742 80.2494 140.661ZM83.2746 149.961C82.3909 151.536 82.957 153.323 83.6266 154.847C84.9164 154.923 86.4967 155.376 87.4887 154.264C89.7558 152.444 89.1823 149.281 89.2069 146.736C86.9423 147.044 84.5718 147.977 83.2746 149.961ZM103.154 140.639C105.106 139.455 106.994 137.488 109.465 137.818C111.897 138.015 114.145 139.923 114.433 142.387C114.878 146.384 114.263 150.424 114.711 154.419C114.78 156.095 116.919 155.942 118.046 156.558C115.535 157.36 112.882 157.107 110.292 157.072C110.822 152.607 110.987 148.088 110.74 143.59C110.716 141.985 109.741 140.203 107.991 140.06C105.335 139.681 103.159 142.281 103.183 144.792C103.107 148.334 102.814 151.945 103.375 155.465C104.067 155.767 104.788 156.009 105.532 156.186C105.51 156.43 105.468 156.912 105.448 157.153C102.595 157.033 99.7472 157.033 96.8893 157.109C96.8278 156.848 96.6973 156.326 96.6333 156.07C97.1822 156.004 98.2752 155.868 98.8265 155.807C99.4025 153.702 99.4887 151.509 99.4321 149.338C99.3361 146.426 99.7299 143.47 99.0038 140.617C98.2013 140.469 97.3989 140.336 96.5964 140.198C96.6899 139.942 96.877 139.43 96.973 139.179C99.021 138.803 101.059 138.32 103.1 137.902C103.124 138.591 103.139 139.952 103.154 140.639ZM119.297 140.838C121.697 139.322 124.271 137.456 127.267 137.722C129.512 137.865 131.646 139.568 131.969 141.85C132.646 146.313 131.57 150.908 132.69 155.307C133.714 155.6 134.873 155.763 135.491 156.74C133.204 156.932 130.913 157.013 128.628 157.158C128.609 156.508 128.577 155.216 128.567 154.569C126.563 156.789 123.336 158.554 120.385 157.065C117.33 155.179 118.145 150.451 120.648 148.432C122.989 146.682 125.935 146.089 128.567 144.9C128.36 143.312 128.394 141.252 126.841 140.316C124.961 139.273 122.868 140.336 121.234 141.343C120.889 142.177 120.54 143.004 120.168 143.827C119.865 142.827 119.58 141.828 119.297 140.838ZM122.524 150.387C121.862 151.832 122.413 153.377 123.075 154.709C123.484 154.881 124.296 155.233 124.705 155.403C125.78 154.899 127.028 154.517 127.69 153.449C129.059 151.494 128.513 148.974 128.385 146.751C126.105 147.228 123.69 148.235 122.524 150.387ZM173.325 138.271C176.146 137.286 179.855 138.724 180.562 141.806C181.389 146.281 180.2 150.916 181.056 155.386C181.817 156.07 182.937 156.065 183.845 156.442C182.12 158.172 179.25 156.964 177.047 157.377C177.027 156.518 177.022 155.654 177.027 154.793C175.085 156.801 172.234 158.707 169.357 157.466C166.27 156.235 166.27 151.866 168.197 149.628C170.477 147.076 174.036 146.426 177.123 145.323C177.015 143.681 177.175 141.488 175.459 140.607C172.928 139.334 169.529 141.016 169.007 143.829C168.478 142.958 167.757 141.887 168.257 140.843C169.783 139.716 171.543 138.904 173.325 138.271ZM170.706 152.513C170.514 154.63 173.066 156.319 174.836 154.977C177.647 153.36 177.111 149.744 177.066 147.014C174.255 147.553 170.565 149.07 170.706 152.513ZM184.572 139.669C186.654 139.216 188.727 138.721 190.772 138.111C190.856 139.049 190.942 139.977 191.038 140.905C192.97 139.807 194.792 137.813 197.226 138.15C199.685 138.387 201.923 140.486 202.115 142.982C202.386 146.808 201.923 150.645 202.243 154.47C202.135 156.174 204.19 156.22 205.283 156.799C203.134 158.042 200.419 157.107 198.048 157.424C198.418 153.247 198.575 149.052 198.467 144.86C198.364 143.58 198.371 142.015 197.258 141.144C196.444 140.691 195.535 140.43 194.666 140.112C193.477 140.843 192.062 141.503 191.508 142.894C190.43 145.535 190.853 148.467 190.762 151.246C190.836 152.683 190.578 154.217 191.124 155.578C191.996 156.112 193.056 156.398 193.642 157.308C190.516 157.424 187.385 157.385 184.259 157.289C184.837 156.289 185.903 155.947 186.942 155.654C187.365 151.881 187.183 148.078 187.245 144.299C187.287 143.115 186.986 141.968 186.674 140.843C186.172 140.819 185.175 140.777 184.675 140.747C184.653 140.481 184.596 139.95 184.572 139.669Z" fill="#1A2647"/>
<path d="M227.336 141.137C230.282 139.49 233.745 137.085 237.231 138.687C239.473 139.569 240.36 142.067 240.236 144.314C240.352 147.857 239.88 151.436 240.32 154.965C240.525 156.154 242.038 156.029 242.924 156.376C242.92 156.632 242.905 157.141 242.897 157.395C240.761 157.415 238.622 157.452 236.483 157.545C236.458 156.922 236.406 155.674 236.382 155.049C234.728 156.526 232.83 158.101 230.481 158.082C228.941 157.919 227.119 157.203 226.656 155.569C225.713 153.092 226.733 150.072 228.928 148.612C231.23 147.098 233.933 146.407 236.51 145.533C236.433 143.839 236.483 141.585 234.659 140.77C232.054 139.529 228.948 141.42 228.281 144.11C227.774 143.182 227.513 142.168 227.336 141.137ZM231.259 149.656C229.812 151.027 229.662 153.641 231.094 155.059C232.367 156.159 234.324 155.453 235.269 154.259C237.007 152.344 236.428 149.56 236.414 147.212C234.563 147.669 232.603 148.204 231.259 149.656ZM157.248 139.113C159.203 138.754 161.138 138.34 163.099 137.993C162.871 143.906 162.442 149.873 163.156 155.768C164.126 155.97 165.098 156.181 166.066 156.41C165.815 156.6 165.327 156.989 165.081 157.186C162.297 157.301 159.508 157.159 156.731 157.392C156.685 157.109 156.589 156.533 156.547 156.248C157.45 156.093 158.354 155.918 159.259 155.733C159.346 151.697 159.346 147.662 159.351 143.62C159.255 142.658 159.451 141.557 158.861 140.718C158.078 140.381 157.273 140.073 156.466 139.8C156.663 139.628 157.051 139.285 157.248 139.113ZM247.072 140.666C250.038 137.986 254.432 137.762 258.088 139.012C257.896 140.681 257.622 142.335 257.204 143.96C256.436 142.722 255.961 141.112 254.508 140.501C252.396 139.367 248.985 139.834 248.239 142.429C247.001 146.621 247.518 151.817 250.782 154.985C253.15 156.836 256.168 155.564 258.388 154.151C258.275 156.789 255.498 157.415 253.369 157.703C250.811 158.02 247.774 157.567 246.154 155.332C242.947 151.113 242.922 144.295 247.072 140.666ZM259.208 139.95C261.268 138.776 263.67 138.591 265.95 138.129C265.814 143.603 265.548 149.095 265.819 154.567C265.674 156.112 267.434 156.132 268.483 156.393C268.468 156.642 268.448 157.139 268.433 157.388C265.27 157.186 262.092 157.57 258.947 157.205C259.781 156.297 260.945 156.024 262.105 155.807C261.989 150.803 262.668 145.757 261.854 140.797C260.975 140.521 260.091 140.241 259.208 139.95ZM281.022 139.738C283.235 139.032 285.529 138.572 287.813 138.148C287.626 142.936 287.488 147.724 287.525 152.509C287.577 153.533 287.459 154.628 287.943 155.576C288.736 156.359 290.161 156.24 290.732 157.333C287.69 157.311 284.623 157.589 281.593 157.353C281.428 157.198 281.093 156.876 280.926 156.723C282.004 156.238 284.256 156.442 284.012 154.648C284.108 150.537 284.155 146.417 284.035 142.306C284.111 140.639 282.1 140.376 281.022 139.738ZM295.527 139.992C298.464 137.865 302.321 137.873 305.681 138.872C305.514 140.482 305.346 142.099 305.118 143.704C304.35 143.239 304.037 142.412 303.746 141.607C301.662 139.381 297.046 139.025 295.877 142.348C294.563 146.473 295.207 151.522 298.208 154.786C300.554 156.809 303.798 155.652 306.107 154.168C305.755 155.111 305.617 156.376 304.507 156.74C301.108 158.16 296.387 158.421 293.79 155.362C290.403 150.889 290.624 143.335 295.527 139.992ZM317.15 154.252C317.081 150.451 317.095 146.65 317.15 142.847C338.964 142.793 360.783 142.796 382.599 142.862C379.764 146.187 377.642 150.058 376.364 154.237C356.63 154.385 336.893 154.343 317.15 154.252ZM317.127 156.09C336.733 156.083 356.342 155.994 375.948 156.135C375.306 159.874 375.419 163.667 375.928 167.408C356.322 167.485 336.721 167.517 317.12 167.445C317.127 163.655 317.095 159.871 317.127 156.09ZM59.0653 190.741C63.4074 181.203 67.4566 171.512 71.8037 161.973C72.1336 161.941 72.8031 161.885 73.1403 161.853C76.6234 171.445 79.2277 181.38 83.2105 190.786C83.7717 192.477 85.7434 192.489 87.176 192.888C87.5624 192.715 88.3427 192.368 88.7292 192.201C88.8941 187.374 88.8129 182.547 88.7711 177.732C87.8061 177.2 86.8486 176.649 85.9452 176.019C88.1434 175.408 90.3834 174.995 92.5889 174.446C92.3624 180.336 92.0892 186.261 92.579 192.139C93.672 192.501 94.755 192.888 95.8283 193.306C92.1655 194.215 88.3181 193.658 84.5692 193.811C81.4972 193.545 78.3243 194.306 75.3434 193.346C76.3969 192.898 77.4628 192.494 78.5409 192.093C77.8739 188.056 76.1975 184.287 75.0259 180.393C71.9686 180.302 68.909 180.309 65.8493 180.329C64.5496 183.15 63.4247 186.045 62.2456 188.915C61.7631 189.922 61.7927 191.042 61.8567 192.132C62.7674 192.551 63.6634 193.001 64.5594 193.454C61.6327 194.148 58.6025 193.658 55.6191 193.816C56.0721 192.154 58.4991 192.405 59.0653 190.741ZM66.9274 177.799C69.3225 177.951 71.7176 177.924 74.12 177.872C73.2831 174.906 72.2591 171.994 71.0899 169.151C69.48 171.923 68.2493 174.889 66.9274 177.799ZM114.398 163.541C117.967 163.647 121.532 163.593 125.096 163.485C124.773 164.861 123.272 164.807 122.174 165.085C120.97 167.97 121.347 171.148 121.278 174.19C121.426 180.031 121.172 185.897 121.664 191.726C124.301 192.216 127.082 192.56 129.711 191.869C131.496 191.406 132.143 189.493 133.071 188.122C134.046 190.01 133.155 192.1 133.005 194.059C127.912 194.155 122.812 193.966 117.721 194.059C116.513 194.111 115.331 193.786 114.191 193.422C115.028 192.974 115.875 192.546 116.719 192.125C117.704 186.222 117.295 180.181 117.406 174.222C117.221 171.18 117.714 168.016 116.655 165.087C116.099 165.031 114.991 164.91 114.44 164.848C114.428 164.519 114.408 163.861 114.398 163.541ZM89.1255 167.886C90.0683 166.419 91.8258 167.015 93.1181 167.539C93.2658 168.809 93.6055 170.515 92.1434 171.17C90.1791 172.462 87.6634 169.744 89.1255 167.886ZM137.029 167.492C138.844 166.517 141.002 167.049 141.556 169.193C141.111 169.86 140.869 170.702 140.224 171.216C139.277 171.679 138.221 171.285 137.234 171.216C136.869 170 136.724 168.74 137.029 167.492ZM317.1 169.235C328.293 168.809 339.503 169.087 350.705 168.996C359.269 169.107 367.84 168.841 376.401 169.183C377.637 173.415 379.985 177.164 382.646 180.639C360.81 180.733 338.983 180.713 317.154 180.72C317.076 176.9 317.127 173.07 317.1 169.235ZM183.533 175.765C185.965 173.54 189.465 173.587 192.515 174.111C192.67 175.711 192.658 177.333 192.589 178.943C192.325 178.914 191.784 178.86 191.513 178.832C191.188 177.395 190.728 175.61 188.963 175.438C186.55 174.66 184.04 177.434 185.44 179.682C187.122 182.116 191.03 181.351 192.645 183.952C195.045 187.125 193.347 191.913 189.92 193.56C187.498 194.973 184.645 194.178 182.157 193.407C182.095 191.96 182.073 190.507 182.117 189.055C182.442 189.003 183.092 188.898 183.414 188.839C183.459 189.343 183.54 190.347 183.584 190.847C185.071 192.031 187.225 193.257 189.071 192.068C190.883 191.015 190.678 188.462 189.618 186.933C188.138 184.674 184.955 184.967 183.163 183.098C181.177 181.166 181.327 177.511 183.533 175.765ZM166.573 177.936C168.928 174.626 173.805 172.563 177.554 174.781C179.387 175.684 180.148 177.671 180.992 179.396C180.018 180.725 179.291 182.572 177.608 183.133C174.585 183.369 171.535 183.143 168.515 183.426C168.628 186.618 169.768 190.205 172.901 191.632C175.314 192.738 177.866 191.502 179.909 190.185C179.89 192.826 177.152 193.72 175.001 194.133C171.73 194.84 167.909 193.557 166.233 190.547C163.892 186.727 164.279 181.676 166.573 177.936ZM171.683 175.817C169.6 176.824 169.157 179.34 168.729 181.388C171.429 181.498 174.164 181.7 176.837 181.21C176.601 179.815 176.478 178.355 175.818 177.065C175.003 175.709 173.12 175.054 171.683 175.817ZM97.1304 175.933C99.0726 175.229 101.167 175.052 103.171 174.569C103.146 175.751 103.132 176.944 103.119 178.126C104.111 176.959 105.005 175.655 106.282 174.786C107.649 174.19 109.187 174.589 110.62 174.604C110.381 176.09 110.004 177.555 109.581 179C108.5 177.772 106.863 176.41 105.258 177.715C102.268 180.57 102.942 185.109 102.797 188.848C102.942 190.04 102.403 191.768 103.668 192.484C104.284 192.656 105.509 193.008 106.12 193.181C103.181 194.571 99.6584 193.471 96.4904 193.848C96.4707 193.609 96.4264 193.141 96.4067 192.903C97.2658 192.755 98.1249 192.619 98.9839 192.469C99.3852 187.379 99.7224 182.153 98.8879 177.09C98.3144 177.023 97.1747 176.873 96.6012 176.797C96.7366 176.578 97.0049 176.152 97.1304 175.933Z" fill="#1A2647"/>
<path d="M133.812 176.755C135.5 174.901 138.311 175.315 140.529 174.576C140.212 179.334 140.312 184.092 140.246 188.855C140.32 190.007 140.083 191.334 140.815 192.324C141.583 192.609 142.375 192.833 143.183 192.991C143.195 193.188 143.232 193.582 143.244 193.776C140.263 193.783 137.277 193.98 134.296 193.924L133.514 193.126C134.513 192.875 135.522 192.656 136.532 192.439C136.842 187.391 136.94 182.3 136.436 177.264C135.559 177.102 134.685 176.932 133.812 176.755ZM143.571 176.939C145.442 175.315 148.157 175.526 150.402 174.741L150.417 177.577C151.985 176.496 153.479 175.196 155.325 174.625C158.387 174.101 161.629 176.698 161.715 179.829C161.962 183.61 161.474 187.433 161.942 191.199C162.146 192.732 164.047 192.678 165.112 193.294C162.749 194.313 160.091 193.663 157.605 193.845C157.944 189.207 158.402 184.526 157.836 179.905C157.74 178.401 156.672 176.991 155.079 176.979C152.591 176.612 150.673 179.007 150.481 181.296C150.176 184.954 150.36 188.646 150.597 192.309C151.448 192.558 152.295 192.811 153.142 193.067C153.058 193.313 152.893 193.793 152.805 194.039C150.028 193.909 147.224 194.187 144.465 193.919C144.253 193.747 143.85 193.399 143.638 193.232C144.701 192.755 146.533 192.755 146.599 191.206C146.806 186.775 146.774 182.315 146.493 177.877C145.526 177.562 144.541 177.257 143.571 176.939ZM317.171 182.379C339.623 182.332 362.077 182.278 384.536 182.332C391.824 188.427 401.429 190.817 410.648 192.115C410.795 192.481 411.093 193.222 411.246 193.594C400.405 193.953 389.545 193.68 378.697 193.796C358.163 193.852 337.634 193.83 317.109 193.847C317.085 190.025 317.053 186.199 317.171 182.379Z" fill="#1A2647"/>
<path d="M416.348 136.164C419.017 133.894 421.887 131.817 424.277 129.242C424.796 143.155 424.545 157.087 424.604 171.007C424.553 178.889 424.757 186.78 424.314 194.655C411.62 183.834 399.078 172.833 386.387 162.015C396.253 153.257 406.458 144.885 416.348 136.164Z" fill="#E12916"/>
</svg>
