<svg width="480" height="320" viewBox="0 0 480 320" fill="none" xmlns="http://www.w3.org/2000/svg">
<path fill-rule="evenodd" clip-rule="evenodd" d="M64.6957 125.735C72.4913 130.655 90.6142 144.375 90.6142 144.375C80.3735 137.7 72.2249 134.401 67.9718 132.95L64.6957 125.735ZM102.596 159.727C98.3662 156.277 96.5446 155.632 96.5446 155.632C90.4267 155.632 82.7595 154.059 81.8083 152.903C77.735 147.947 77.9619 139.887 77.9619 139.887C77.9619 139.887 76.537 144.916 79.6829 155.052C79.6829 155.052 92.8641 155.417 102.596 159.727ZM59.3693 113.998L62.9018 121.782C66.5075 122.895 75.4298 126.126 87.0441 133.694C87.0441 133.694 65.6905 117.531 59.3691 113.998" fill="#214598"/>
<path fill-rule="evenodd" clip-rule="evenodd" d="M156.98 164.004C152.757 164.004 151.024 162.342 149.619 160.933C148.212 159.524 146.059 159.723 146.059 159.723C146.059 159.723 148.622 162.912 148.575 162.898C137.314 158.476 106.772 167.021 90.2828 167.021C71.0685 167.021 59.9002 162.464 59.9002 160.436C59.9002 159.5 65.6471 159.115 65.6471 159.115L55.3848 157.732H80.648C87.1766 157.732 92.9886 159.056 92.9886 159.056C82.4676 159.056 75.9155 159.555 75.9155 161.136C75.9155 163.35 87.5594 164.925 92.5781 164.925C102.089 164.925 111.743 162.967 108.852 159.48C101.668 150.81 96.7027 147.071 96.7027 147.071C89.4244 122.848 67.0543 114.683 67.0543 114.683L63.4347 106.708C65.3156 107.681 69.0456 110.203 73.1999 113.148L71.323 106.13C76.4561 109.968 91.7965 126.814 91.7965 126.814C101.516 149.299 107.466 153.834 110.397 155.993C112.939 157.866 116.831 157.732 116.831 157.732H148.486C157.138 157.732 158.417 162.299 165.54 164.004H156.98Z" fill="#214598"/>
<path fill-rule="evenodd" clip-rule="evenodd" d="M226.171 185.879C224.764 185.879 223.434 187.201 223.434 188.596C223.434 189.991 224.764 191.314 226.171 191.314C227.58 191.314 228.912 189.991 228.912 188.596C228.912 187.201 227.58 185.879 226.171 185.879M228.912 211.483V194.827H221.413V195.734L224.208 196.719V211.483L221.413 212.466V213.376H231.707V212.466L228.912 211.483ZM126.691 206.155L125.341 209.821C123.741 211.164 120.636 212.067 118.921 211.979C116.685 211.868 114.832 211.014 113.415 209.439C111.363 207.155 110.37 203.506 110.617 199.159C110.999 192.508 114.023 188.073 118.319 187.864C122.144 187.684 124.536 189.236 125.207 189.741L125.977 193.325H127.003L127.617 187.848L127.583 187.826C127.556 187.807 124.739 185.794 117.887 185.879C113.672 186.021 110.222 187.594 107.905 190.424C105.914 192.859 104.816 196.163 104.816 199.727C104.816 204.426 106.016 208.039 108.381 210.465C110.475 212.612 113.51 213.784 117.157 213.853C122.934 214.013 126.188 212.656 127.317 212.063L127.352 212.048L127.79 206.155H126.691ZM269.031 211.483V202.259L269.032 201.649C269.038 199.478 269.044 197.603 268.271 196.299C267.426 194.874 265.754 194.223 262.843 194.181C258.847 194.14 257.13 196.36 256.374 197.388L256.001 194.827H248.814V195.734L251.608 196.719V211.483L248.814 212.466V213.376H259.279V212.466L256.485 211.483V203.196C256.485 201.11 256.611 200.447 257.041 199.251C257.74 197.303 259.498 196.098 260.73 196.098C262.543 196.098 263.169 196.757 263.684 197.974C264.073 198.936 264.071 200.244 264.069 202.849V211.483L261.275 212.466V213.376H271.831V212.466L269.031 211.483ZM171.745 211.483V201.649C171.753 199.478 171.757 197.603 170.983 196.299C170.141 194.874 168.465 194.223 165.556 194.181C161.562 194.14 159.845 196.36 159.089 197.388L158.716 194.827H151.528V195.734L154.321 196.719V211.483L151.528 212.466V213.376H161.992V212.466L159.199 211.483V203.196C159.199 201.11 159.324 200.447 159.756 199.251C160.452 197.303 162.213 196.098 163.442 196.098C165.258 196.098 165.882 196.757 166.399 197.974C166.788 198.936 166.786 200.244 166.781 202.849V211.483L163.987 212.466V213.376H174.543V212.466L171.745 211.483ZM216.051 211.483V184.371L208.597 184.975V185.879L211.39 186.863V196.966C210.371 195.306 208.721 194.398 206.475 194.27C200.736 194.132 197.328 197.509 197.121 203.532C196.988 207.059 197.914 209.987 199.73 211.773C201.273 213.293 203.397 213.992 206.045 213.853C208.885 213.682 210.71 211.471 211.31 210.175L211.391 213.376H218.845V212.466L216.051 211.483ZM206.732 212.062C205.747 212.062 204.924 211.726 204.277 211.061C203.049 209.8 202.449 207.331 202.544 203.923C202.613 201.477 203.051 198.233 204.739 196.678C205.406 196.06 206.219 195.776 207.156 195.823C210.034 195.987 211.433 198.594 211.433 203.792C211.433 209.979 208.204 212.062 206.732 212.062ZM240.939 194.827H234.038V195.752L236.899 196.745L241.944 204.102L236.899 211.458L234.038 212.45V213.376H240.939L247.3 204.102L240.939 194.827M192.68 211.483V201.286C192.68 199.313 192.68 197.884 191.457 196.455C190.703 195.561 189.471 194.957 187.794 194.669C186.45 194.434 185.191 194.462 184.587 194.475C184.484 194.477 184.405 194.481 184.348 194.481C181.808 194.481 179.175 195.541 177.125 197.388L177.077 197.432L179.499 200.643L179.756 200.179C180.65 198.537 182.001 196.058 184.431 196.098C186.095 196.135 187.887 197.073 187.932 199.579V202.245C186.118 202.247 184.49 202.362 183.089 202.587C179.663 203.129 175.803 205.162 176.199 209.117C176.48 211.957 178.895 213.873 182.073 213.778C183.525 213.737 184.873 213.329 185.97 212.6C186.844 212.016 187.516 211.254 187.894 210.429L187.934 213.376H195.475V212.466L192.68 211.483ZM187.804 207.69C187.634 209.074 187.077 210.133 186.148 210.84C185.483 211.347 184.616 211.649 183.831 211.649C182.209 211.649 181.317 210.69 181.106 208.718C180.958 207.266 181.254 206.125 181.986 205.33C182.463 204.809 183.134 204.434 183.977 204.219C185.583 203.798 187.561 203.859 187.934 203.875C187.942 204.308 187.95 206.5 187.804 207.69ZM147.1 211.483V201.286C147.1 199.313 147.1 197.884 145.876 196.455C145.122 195.561 143.891 194.957 142.213 194.669C140.867 194.434 139.61 194.462 139.004 194.475C138.903 194.477 138.822 194.481 138.765 194.481C136.225 194.481 133.593 195.541 131.542 197.388L131.497 197.432L133.918 200.643L134.173 200.179C135.069 198.537 136.421 196.058 138.85 196.098C140.512 196.135 142.306 197.073 142.351 199.579V202.245C140.537 202.247 138.907 202.362 137.508 202.587C134.082 203.129 130.22 205.162 130.619 209.117C130.899 211.957 133.314 213.873 136.49 213.778C137.942 213.737 139.292 213.329 140.387 212.6C141.262 212.016 141.935 211.254 142.312 210.429L142.351 213.376H149.892V212.466L147.1 211.483ZM142.221 207.69C142.051 209.074 141.495 210.133 140.567 210.84C139.902 211.347 139.036 211.649 138.25 211.649C136.628 211.649 135.736 210.69 135.525 208.718C135.377 207.266 135.673 206.125 136.403 205.33C136.883 204.809 137.553 204.434 138.396 204.219C140.003 203.798 141.98 203.859 142.351 203.875C142.359 204.308 142.367 206.5 142.221 207.69ZM356.959 185.879C355.55 185.879 354.22 187.201 354.22 188.596C354.22 189.991 355.55 191.314 356.959 191.314C358.367 191.314 359.699 189.991 359.699 188.596C359.699 187.201 358.366 185.879 356.959 185.879ZM359.699 211.483V194.827H352.199V195.734L354.994 196.719V211.483L352.199 212.466V213.376H362.493V212.466L359.699 211.483ZM385.226 211.483V201.649C385.232 199.478 385.238 197.603 384.465 196.299C383.622 194.874 381.948 194.223 379.039 194.181C375.043 194.14 373.326 196.36 372.568 197.388L372.197 194.827H365.009V195.734L367.802 196.719V211.483L365.009 212.466V213.376H375.473V212.466L372.681 211.483V203.196C372.681 201.11 372.805 200.447 373.237 199.251C373.934 197.303 375.694 196.098 376.924 196.098C378.739 196.098 379.363 196.757 379.88 197.974C380.269 198.936 380.267 200.244 380.263 202.849L380.261 211.483L377.468 212.466V213.376H388.025V212.466L385.226 211.483ZM402.558 201.835H395.187C395.493 199.386 396.47 195.454 399.564 195.711C401.812 195.883 402.58 199.093 402.558 201.835ZM405.072 196.656C403.728 195.15 401.857 194.298 399.665 194.191C394.06 193.929 390.095 197.603 389.797 203.337C389.671 206.737 390.505 209.375 392.27 211.179C393.977 212.924 396.56 213.822 399.746 213.779C403.347 213.733 405.473 211.807 407.022 209.906L406.049 208.689C403.669 210.964 401.775 211.927 400.089 211.868C395.538 211.712 394.997 207.645 395.086 203.652H407.208C407.377 200.816 406.604 198.373 405.072 196.656ZM419.11 201.403C418.625 201.245 418.127 201.11 417.646 200.98C415.749 200.471 414.109 200.031 413.963 198.379C413.916 197.826 414.103 197.321 414.506 196.921C415.165 196.257 416.369 195.914 417.644 196.023C420.107 196.023 421.51 197.315 421.51 197.315L422.013 199.946L423.168 199.95L423.669 195.383C422.297 194.837 420.395 194.225 417.766 194.225C415.881 194.225 414.245 194.596 413.039 195.298C411.64 196.111 410.868 197.321 410.701 198.894C410.233 203.295 413.316 204.463 416 205.282C417.804 205.835 421.389 206.711 421.125 209.046C420.837 211.558 418.457 211.852 417.054 211.852C414.285 211.852 412.674 210.039 412.674 210.039L412.262 206.757H411.064L410.46 212.006C411.743 212.63 413.493 213.66 416.979 213.779C421.575 213.936 424.123 211.166 424.516 208.555C425.23 203.852 422.001 202.263 419.11 201.403ZM342.188 186.863L339.434 185.879V184.975L346.89 184.371V211.483L349.683 212.466V213.376H339.391V212.466L342.186 211.483L342.188 186.863ZM314.572 185.879C313.165 185.879 311.834 187.201 311.834 188.596C311.834 189.991 313.165 191.314 314.572 191.314C315.981 191.314 317.313 189.991 317.313 188.596C317.313 187.201 315.981 185.879 314.572 185.879ZM317.313 211.483V194.827H309.814V195.734L312.606 196.719V211.483L309.814 212.466V213.376H320.108V212.466L317.313 211.483ZM330.441 211.483L334.165 212.466V213.376H322.93V212.466L325.722 211.483V196.719L322.93 195.734V194.827L329.914 194.829L330.319 197.544C331.59 195.723 333.247 194.987 334.051 194.84C335.134 194.629 337.437 194.467 338.769 195.585L337.129 200.041C336.121 198.241 335.256 197.513 334.232 197.43C333.194 197.349 332.403 197.572 331.817 198.117C330.891 198.973 330.441 200.69 330.441 203.366V211.483" fill="#ED192D"/>
<path fill-rule="evenodd" clip-rule="evenodd" d="M307.077 211.483L297.863 185.879H289.783V186.787L292.692 187.73L283.898 211.483L281.104 212.466V213.376H289.756V212.466L286.961 211.483L290.134 202.537H298.475L301.528 211.483L298.731 212.466V213.376H309.872V212.466L307.077 211.483ZM290.571 200.763L294.172 190.558L297.644 200.763H290.571Z" fill="#ED192D"/>
</svg>
