<svg width="480" height="320" viewBox="0 0 480 320" fill="none" xmlns="http://www.w3.org/2000/svg">
<path d="M138.171 178.131H131.622L129.309 191.305H130.836L131.876 185.42H136.275L136.881 184.065H132.102L132.904 179.486H137.929L138.171 178.131Z" fill="#A1ABB2"/>
<path d="M139.948 190.171C139.44 190.171 139.232 189.908 139.383 189.118L141.431 177.545L139.854 177.856L137.811 189.249C137.507 190.961 138.187 191.452 139.297 191.452C139.695 191.45 140.09 191.379 140.464 191.243L140.669 190.015C140.437 190.101 140.195 190.153 139.948 190.171Z" fill="#A1ABB2"/>
<path d="M144.772 189.704L143.981 181.575H142.442L143.543 191.265H144.067C143.052 193.484 142.339 193.722 141.659 193.722C141.351 193.728 141.044 193.671 140.758 193.554L140.533 194.852C140.842 195.002 141.186 195.067 141.528 195.04C142.601 195.04 143.879 194.774 145.407 191.387L149.94 181.587H148.433L144.772 189.704Z" fill="#A1ABB2"/>
<path d="M156.43 182.873H158.539L158.764 181.575H156.647L157.085 179.118L155.856 179.339L155.177 181.596H154.03L153.805 182.894H154.951L153.907 188.738C153.498 190.978 154.587 191.449 155.697 191.449C156.268 191.434 156.836 191.351 157.388 191.203L157.597 189.999C157.193 190.092 156.782 190.148 156.368 190.167C155.549 190.167 155.238 189.7 155.463 188.476L156.43 182.873Z" fill="#A1ABB2"/>
<path d="M164.711 181.387C163.654 181.459 162.628 181.781 161.718 182.324L162.492 178.004L160.931 178.307L158.65 191.264H160.157L161.492 183.643C162.152 183.266 163.241 182.758 164.052 182.758C164.863 182.758 165.236 183.266 164.973 184.831L163.843 191.264H165.33L166.558 184.266C166.931 182.12 166.067 181.387 164.711 181.387Z" fill="#A1ABB2"/>
<path d="M172.405 181.387H171.557C169.51 181.387 168.396 182.89 168.04 184.904L167.511 187.935C167.102 190.134 167.778 191.453 170.71 191.453C171.733 191.447 172.752 191.31 173.74 191.043L173.965 189.708C172.993 189.958 171.996 190.095 170.992 190.118C169.17 190.118 168.773 189.299 168.998 187.972L169.186 186.977H174.326L174.703 184.814C175.075 182.758 174.4 181.387 172.405 181.387ZM173.224 184.696L173.036 185.768H169.403L169.592 184.696C169.797 183.549 170.411 182.648 171.529 182.648H172.02C173.122 182.664 173.437 183.528 173.216 184.696H173.224Z" fill="#A1ABB2"/>
<path d="M195.062 181.403C194.926 181.393 194.789 181.393 194.652 181.403C193.768 181.403 192.216 181.984 191.601 182.89L191.827 181.591H190.381L188.686 191.281H190.229L191.458 184.319C192.072 183.418 193.624 182.89 194.472 182.89H194.828L195.062 181.403Z" fill="#A1ABB2"/>
<path d="M195.214 184.81L194.649 188.045C194.239 190.306 195.308 191.452 197.491 191.452C198.234 191.476 198.977 191.381 199.69 191.17L199.936 189.814C199.221 189.993 198.489 190.088 197.753 190.097C196.524 190.097 195.91 189.515 196.192 187.935L196.717 184.92C197.02 183.192 197.904 182.742 199.088 182.742C199.726 182.717 200.364 182.806 200.972 183.004L201.217 181.628C200.506 181.44 199.77 181.358 199.035 181.386C196.962 181.386 195.648 182.345 195.214 184.81Z" fill="#A1ABB2"/>
<path d="M210.398 181.575H208.891L207.199 191.265H208.702L210.398 181.575Z" fill="#A1ABB2"/>
<path d="M210.606 180.572L210.962 178.598L209.275 178.974L208.984 180.572H210.606Z" fill="#A1ABB2"/>
<path d="M212.957 184.92C213.256 183.192 214.141 182.742 215.328 182.742C215.965 182.717 216.602 182.806 217.208 183.004L217.454 181.628C216.742 181.44 216.006 181.358 215.271 181.386C213.199 181.386 211.884 182.345 211.45 184.81L210.885 188.045C210.475 190.306 211.544 191.452 213.727 191.452C214.472 191.476 215.215 191.38 215.93 191.17L216.172 189.814C215.458 189.993 214.725 190.088 213.989 190.097C212.761 190.097 212.146 189.515 212.429 187.935L212.957 184.92Z" fill="#A1ABB2"/>
<path d="M205.382 179.098L204.153 179.319L203.473 181.575H202.327L202.102 182.873H203.248L202.212 188.738C201.803 190.978 202.892 191.449 204.002 191.449C204.573 191.434 205.141 191.351 205.693 191.203L205.902 189.999C205.498 190.092 205.087 190.148 204.673 190.167C203.854 190.167 203.547 189.7 203.772 188.476L204.751 182.869H206.856L207.085 181.571H204.972L205.382 179.098Z" fill="#A1ABB2"/>
<path d="M184.028 178.499L178.164 191.248H179.859L181.088 188.418H185.662L185.92 191.248H187.518L186.088 178.094L184.028 178.499ZM181.702 187.099L184.675 180.354L184.933 180.203L185.556 187.099H181.702Z" fill="#A1ABB2"/>
<path d="M77.6424 158.703L60.2581 191.301H76.5408L85.3906 172.557L87.3768 171.423L89.6455 191.301H105.99L99.986 153.625L77.6424 158.703ZM55.3848 144.656L59.7503 154.297L125.245 148.834L127.522 144.656H55.3848ZM100.314 141.069H85.6486L87.8682 128.427L103.168 124.954L100.314 141.069Z" fill="#A1ABB2"/>
<path d="M341.282 154.255C342.248 148.891 345.574 145.737 352.183 145.737H354.505C361.082 145.737 364.023 148.891 363.048 154.337L361.668 162.077C360.734 167.549 357.478 170.677 350.869 170.677H348.481C341.871 170.677 338.96 167.565 339.881 162.077L341.282 154.255ZM345.262 162.077C344.853 164.534 346.081 166.439 349.587 166.439H350.488C354.018 166.439 355.853 164.534 356.27 162.077L357.655 154.337C358.064 151.88 356.926 149.976 353.395 149.976H352.495C349.001 149.964 347.077 151.88 346.667 154.337L345.262 162.077Z" fill="#CD163F"/>
<path d="M373.342 161.811H369.538L368.035 170.309H362.67L366.974 145.881H377.532C381.93 145.881 384.973 147.928 384.178 152.249L383.625 155.435C383.072 158.711 381.168 160.624 378.502 161.422L382.057 170.309H376.561L373.342 161.811ZM371.581 150.242L370.299 157.45H374.661C376.459 157.45 378.052 156.688 378.4 154.784L378.711 152.949C379.055 151.061 377.79 150.242 375.939 150.242H371.581Z" fill="#CD163F"/>
<path d="M386.903 145.889H402.874L402.096 150.242H396.772L393.254 170.309H387.931L391.448 150.242H386.133L386.903 145.889Z" fill="#CD163F"/>
<path d="M420.349 170.309H414.984L416.696 160.693H407.576L405.88 170.309H400.516L404.877 145.881H410.144L408.321 156.324H417.425L419.251 145.881H424.616L420.349 170.309Z" fill="#CD163F"/>
<path d="M321.51 140.299L316.428 141.454L311.354 170.317H317.025L320.588 150.091L331.109 170.317H335.962L341.232 140.311L335.327 141.65L332.01 160.525L321.51 140.299Z" fill="#CD163F"/>
<path d="M229.301 145.901H239.974C246.915 145.901 249.532 148.829 248.66 153.887L247.153 162.364C246.252 167.442 242.836 170.309 236.382 170.309H225.014L229.301 145.901ZM231.185 165.968H236.067C239.625 165.968 241.391 164.33 241.8 162.024L243.197 154.243C243.545 152.151 242.377 150.304 238.835 150.304H233.941L231.185 165.968Z" fill="#CD163F"/>
<path d="M252.788 145.901H258.21L253.906 170.309H248.5L252.788 145.901Z" fill="#CD163F"/>
<path d="M187.341 145.889L182.427 147.003L178.336 170.317H183.742L186.395 155.214L194.242 170.317H198.915L203.202 145.889L197.608 147.158L195.151 161.107L187.341 145.889Z" fill="#CD163F"/>
<path d="M289.021 145.889L284.103 147.003L280.012 170.317H285.422L288.071 155.214L295.918 170.317H300.59L304.882 145.889L299.284 147.158L296.827 161.107L289.021 145.889Z" fill="#CD163F"/>
<path d="M153.11 165.317L152.245 170.158C151.209 170.42 149.047 170.977 144.116 170.977C135.77 170.977 131.573 168.209 133.002 160.251L134.775 150.652C136.2 142.564 141.131 139.841 148.961 139.841C153.372 139.841 155.575 140.25 156.873 140.574L156.009 145.459C154.756 145.05 152.966 144.64 148.99 144.64C144.792 144.64 141.246 145.763 140.39 150.652L138.662 160.251C137.969 164.404 140.132 166.177 144.976 166.177C147.711 166.2 150.44 165.912 153.11 165.317Z" fill="#CD163F"/>
<path d="M172.946 145.877L165.869 147.494L153.723 170.309H159.685L162.089 165.182H170.497L171.16 170.309H176.844L172.946 145.877ZM164.186 160.8L168.453 151.844L168.891 151.594L170.009 160.8H164.186Z" fill="#CD163F"/>
<path d="M219.575 145.877L212.498 147.495L200.352 170.309H206.314L208.722 165.182H217.126L217.789 170.309H223.473L219.575 145.877ZM210.815 160.8L215.082 151.844L215.52 151.594L216.638 160.8H210.815Z" fill="#CD163F"/>
<path d="M274.59 145.877L267.509 147.494L255.379 170.309H261.342L263.75 165.182H272.153L272.816 170.309H278.501L274.59 145.877ZM265.826 160.8L270.093 151.844L270.531 151.594L271.649 160.8H265.826Z" fill="#CD163F"/>
</svg>
