<svg width="480" height="320" viewBox="0 0 480 320" fill="none" xmlns="http://www.w3.org/2000/svg">
<path d="M149.653 163.355C149.978 162.929 150.149 162.688 150.149 162.688L165.517 142.69L167.671 163.355H149.653ZM170.179 187.844H192.451L185.875 129.629H165.471C165.471 129.629 139.216 174.269 111.975 182.14C61.3958 196.769 83.4012 125.378 117.744 125.252C135.487 125.182 140.29 138.935 140.29 138.935L153.174 133.295C153.174 133.295 148.142 115.049 120.566 115.049C93.7318 115.049 77.0883 129.07 77.0883 129.07C40.2609 160.064 53.5502 193.841 92.5935 193.473C115.907 193.263 133.136 180.43 142.404 171.403H168.506L170.179 187.844ZM254.078 159.06L264.389 129.629H275.385L254.873 187.908H243.069L222.537 144.977L207.787 187.908H196.644L217.31 129.674H240.115L254.078 159.06Z" fill="#006BB6"/>
<path d="M289.228 117.869H309.353L285.341 187.773C285.341 187.773 280.372 204.951 261.048 204.951H244.144L246.564 198.236H254.607C254.607 198.236 261.048 199.107 264.942 187.773L289.228 117.869ZM315.261 129.673L294.505 187.844H342.156L344.641 180.532H317.807L324.166 161.74H348.803L351.35 154.091H326.751L332.431 137.321H358.192L360.744 129.673H315.261ZM362.142 137.321H381.614L363.692 187.844H384.421L401.522 137.321H422.061L424.615 129.673H364.348L362.142 137.321Z" fill="#006BB6"/>
<path d="M99.2321 170.463L101.379 165.235L90.2432 156.106L95.4711 154.633V146.716L101.646 147.79L103.66 144.029L109.428 150.471L109.021 135.981L113.316 138.535L118.957 130.213L122.444 138.535L127.006 136.254L120.965 150.345L129.693 144.029L129.553 148.057L136.935 146.584L133.04 154.092L137.202 156.646L122.305 165.635V170.463L112.115 168.048L111.441 173.818H110.235L110.768 167.916L99.2321 170.463Z" fill="#ED1C2E"/>
</svg>
