<svg width="480" height="320" viewBox="0 0 480 320" fill="none" xmlns="http://www.w3.org/2000/svg">
<path d="M372.996 123.701C372.221 123.701 368.228 124.494 368.228 125.399C368.228 126.691 369.521 126.564 369.521 129.278C369.521 131.475 366.677 132.754 361.25 132.754H339.158C302.459 132.754 286.03 154.07 286.03 168.155C286.03 172.807 287.73 176.048 290.96 176.048C293.932 176.048 296.887 174.108 296.887 172.815C296.887 170.748 293.546 167.649 293.546 161.446C293.546 149.946 308.524 135.34 342.121 135.34C348.583 135.34 349.099 135.858 349.099 136.633C349.099 137.667 334.89 165.065 320.676 183.673C313.44 193.106 298.448 209.267 289.532 209.267C284.492 209.267 281.395 208.078 280.103 203.556C279.198 200.196 278.814 199.299 277.651 199.299C276.746 199.299 271.05 201.499 271.05 203.825C271.05 209.898 275.058 214.413 281.261 214.413C297.672 214.413 311.371 198.657 325.068 182.891C327.781 182.762 330.11 182.622 335.278 182.622C343.032 182.622 343.684 182.757 343.684 183.403C343.684 184.825 340.047 208.337 340.047 211.18C340.047 211.568 342.639 214.413 343.415 214.413C345.741 214.413 356.042 211.153 362.354 209.321C362.388 212.9 363.317 213.901 366.234 213.901C368.689 213.901 371.524 212.746 377.468 210.291C384.834 207.319 385.874 207.187 385.874 206.411C385.874 206.024 385.75 205.63 385.362 205.63C384.846 205.63 380.058 207.974 376.957 207.974C373.468 207.974 372.431 206.542 372.431 200.727C372.431 193.749 379.947 160.68 379.947 159.129C379.947 158.225 379.553 157.836 379.166 157.836C378.132 157.836 375.422 158.607 369.736 159.641C360.561 161.321 360.172 161.312 360.172 161.958C360.172 162.604 360.558 162.739 364.564 162.739C369.345 162.739 369.844 163.502 369.844 166.861C369.844 171.118 363.583 200.41 362.516 207.651C360.739 207.842 358.901 207.974 356.858 207.974C351.69 207.974 351.174 207.046 351.174 197.871C351.174 182.106 355.423 156.274 359.041 135.34C367.44 135.34 374.936 131.339 374.936 127.204C374.936 124.62 374.159 123.701 372.996 123.701ZM106.196 131.461C98.572 131.461 91.7155 132.096 81.2486 138.169C64.4497 147.99 55.9238 167.39 55.9238 189.358C55.9238 205.123 62.3769 214.413 81.1139 214.413C93.907 214.413 103.084 209.647 112.905 205.253L112.797 202.909C105.948 205.881 96.2379 210.021 88.2263 210.021C74.6581 210.021 66.5116 199.163 66.5116 183.269C66.5116 147.991 87.2024 134.559 101.158 134.559C107.49 134.559 119.775 139.083 119.775 142.83C119.775 143.347 119.629 145.155 119.371 148.515H120.798C122.607 138.048 124.274 139.606 124.274 137.28C124.274 135.471 117.438 131.461 106.196 131.461L106.196 131.461ZM380.971 134.316C376.577 134.316 375.663 137.66 375.663 141.537C375.663 143.346 376.57 144.392 378.25 144.392C382.256 144.392 384.446 141.033 384.446 137.415C384.446 134.701 383.943 134.316 380.971 134.316ZM349.611 140.755L349.881 141.025C348.201 153.301 344.697 176.949 344.438 178.5C344.309 179.276 343.802 179.524 335.79 179.524C329.717 179.524 327.897 179.529 327.897 179.012C327.897 178.366 343.021 155.228 349.611 140.755ZM161.588 155.492C160.942 155.492 156.543 156.787 155.122 159.372C151.116 159.372 152.266 157.836 145.288 157.836C139.861 157.836 127.98 165.437 125.783 169.96C116.22 189.601 115.841 198.006 115.841 205.63C115.841 212.608 117.244 213.901 119.829 213.901C126.289 213.901 136.511 208.737 143.618 206.411C143.618 207.833 143.241 209.241 143.241 210.533C143.241 213.118 144.137 213.901 145.557 213.901C146.979 213.901 148.665 213.919 160.941 209.267C164.042 208.104 165.467 207.833 165.467 207.058C165.467 206.67 165.208 206.411 164.821 206.411C164.433 206.411 158.994 208.216 156.927 208.216C154.859 208.216 153.963 206.801 153.963 202.02C153.963 193.103 162.881 157.572 162.881 157.055C162.881 156.409 162.492 155.492 161.588 155.492ZM245.187 157.055C235.107 157.055 224.004 167.641 221.936 172.681C216.897 185.086 215.336 194.783 215.336 201.373C215.336 209.902 219.985 213.901 226.705 213.901C235.75 213.901 236.01 211.459 250.871 202.155C250.871 201.121 250.882 200.592 250.494 200.592C249.46 200.592 241.571 207.435 234.464 207.435C227.615 207.435 225.412 200.997 225.412 194.665C225.412 192.468 225.563 190.121 225.951 187.795C232.541 184.823 238.987 181.718 249.066 176.291C250.746 175.386 253.458 168.028 253.458 163.763C253.458 159.37 251.389 157.055 245.187 157.055ZM185.296 157.836C184.391 157.836 180.389 159.378 175.22 160.153C167.467 161.316 166.302 160.66 166.302 161.823C166.302 163.374 174.95 161.831 174.95 164.544C174.95 180.309 162.8 245.683 162.8 249.302C162.8 250.206 163.064 251.113 163.581 251.888C167.329 250.855 170.96 249.313 174.708 248.925V247.901C173.803 247.772 172.876 246.2 172.876 241.677C172.876 238.188 175.991 218.562 177.025 211.584C178.834 212.876 180.911 213.901 182.332 213.901C184.271 213.901 192.006 211.592 200.922 207.327C205.186 205.26 212.938 187.539 212.938 168.801C212.938 160.402 210.622 157.836 204.936 157.836C200.672 157.836 199.775 159.494 185.431 164.275C185.431 162.208 186.077 159.495 186.077 158.59C186.077 158.203 185.942 157.836 185.296 157.836ZM403.79 157.836C403.144 157.836 400.95 158.72 393.714 159.884C386.09 161.047 385.066 160.289 385.066 161.581C385.066 162.615 385.699 162.605 389.188 162.605C394.098 162.605 394.603 162.872 394.603 166.619C394.603 177.861 384.931 211.569 384.931 213.12C384.931 213.766 385.428 213.901 386.332 213.901C386.978 213.901 387.779 213.012 391.397 212.365C394.24 211.848 394.749 212.083 395.007 209.887C395.266 207.561 399.261 185.737 402.362 171.522C402.621 170.359 407.657 164.814 411.792 164.814C416.186 164.814 418.005 166.601 419.039 170.606L421.113 170.229C422.147 168.291 424.077 163.633 424.077 161.823C424.077 161.436 423.3 160.675 422.137 159.641C421.362 158.995 420.341 158.591 417.369 158.591C412.587 158.591 414.268 159.512 403.413 167.266C403.413 165.844 404.814 159.5 404.814 158.725C404.814 158.208 404.307 157.836 403.79 157.836V157.836ZM240.418 160.153C244.295 160.153 244.944 163.254 244.944 166.484C244.944 176.434 240.542 179.022 226.328 184.966C226.715 177.73 231.372 160.153 240.418 160.153ZM142.432 160.934C142.612 160.927 142.792 160.927 142.971 160.934C145.039 160.934 152.778 163.134 152.778 164.814C152.778 165.847 144.533 199.054 143.887 203.448C143.629 205.128 136.129 207.435 130.443 207.435C127.342 207.435 125.917 205.884 125.917 199.811C125.917 191.415 131.294 161.379 142.432 160.934ZM195.749 162.982C200.531 162.982 202.862 165.322 202.862 174.755C202.862 200.987 194.591 209.779 187.613 209.779C183.219 209.779 180.887 206.274 179.854 203.044L178.588 203.69C178.846 200.072 183.75 172.299 184.784 166.484C186.722 165.321 194.328 162.982 195.749 162.982Z" fill="#1F4FA2" stroke="#1F4FA2" stroke-width="2.69403" stroke-miterlimit="3.8637"/>
<path d="M200.202 68.0408C200.707 68.377 201.259 68.8812 201.835 69.1935C202.484 69.6258 202.964 70.1298 203.66 70.7542C205.341 71.9312 207.215 73.2999 208.824 74.7409C210.553 75.8935 211.753 77.3106 213.579 78.4152C217.421 81.0812 220.663 84.3469 223.809 87.8288C224.89 89.1499 226.475 90.0625 227.675 91.5031C228.06 91.5992 228.156 92.1998 228.492 92.5117C229.524 93.8329 230.293 95.2256 230.725 96.8587C230.846 97.3147 231.037 97.7712 231.206 98.2035C231.446 99.4039 232.046 100.437 232.358 101.59C233.511 104.207 234.256 106.993 236.081 109.322C237.329 111.7 239.515 113.717 241.436 115.638C241.556 115.878 241.556 116.046 241.364 116.239C241.172 116.479 240.691 116.287 240.691 116.719C240.427 116.911 240.139 117.68 239.683 117.391C239.491 117.896 238.674 117.727 238.722 118.352C238.506 118.544 238.098 118.736 238.122 119.096C238.194 119.337 238.53 119.241 238.722 119.361C238.866 119.048 238.963 118.544 239.395 118.544C239.515 118.76 239.803 118.736 239.947 118.688C239.995 118.232 240.475 118.256 240.836 118.28C241.268 118.376 241.148 117.487 241.652 117.8C241.82 118.04 242.06 118.424 242.396 118.424C242.613 118.328 242.541 118.064 242.445 117.944C242.229 117.68 241.94 117.535 241.916 117.271C242.18 117.295 242.492 117.247 242.445 116.911C242.373 116.695 242.733 116.767 242.805 116.863C242.997 117.079 242.901 117.968 243.405 117.535C243.429 117.344 243.573 117.199 243.813 117.271C244.245 117.727 244.51 116.983 244.894 116.911C244.894 116.575 245.447 116.791 245.303 116.383C244.846 116.215 243.982 117.055 243.886 116.118C244.173 115.927 244.486 116.239 244.63 115.831C244.462 115.47 244.822 115.11 245.23 115.374C245.471 115.518 245.375 115.038 245.303 114.966C245.23 114.87 245.158 114.702 245.23 114.606C245.326 114.582 245.518 114.414 245.711 114.486C245.686 114.558 245.759 114.654 245.855 114.606C246.023 114.654 246.143 114.558 246.191 114.414C245.975 114.414 246.047 114.173 246.119 114.077C246.191 114.029 246.191 113.957 246.191 113.861C246.623 113.621 246.623 114.558 246.935 114.077C247.56 114.029 247.296 114.87 247.752 114.75C247.872 114.966 247.944 114.654 248.088 114.822C248.208 114.726 248.136 114.558 248.16 114.414C247.824 114.221 247.872 113.885 247.536 113.861C247.464 113.621 248.04 114.101 247.872 113.597C247.632 113.285 247.344 113.909 247.007 113.597C246.935 113.477 246.719 113.429 246.791 113.261C247.32 113.549 247.2 112.348 247.608 113.069C247.872 113.165 247.968 113.501 248.352 113.453C248.496 113.429 248.592 113.309 248.689 113.189C248.616 113.093 248.545 112.924 248.616 112.853C248.328 112.78 248.016 112.876 247.752 112.66C247.656 112.204 248.088 111.988 248.424 111.916C249.313 111.268 250.418 111.123 251.546 111.027C251.979 111.219 252.459 111.508 252.963 111.292C254.524 110.571 255.749 109.562 257.31 108.842C257.622 108.842 257.982 108.842 258.126 109.13C257.982 109.442 257.67 109.755 257.502 109.995C256.71 110.739 255.701 111.316 254.716 111.772C254.38 112.276 253.804 112.925 253.444 113.525C252.723 114.774 252.171 116.167 251.546 117.319C251.378 118.64 250.514 119.649 250.466 120.994C250.37 121.138 250.394 121.354 250.177 121.474C250.225 121.786 250.153 122.243 249.985 122.555C249.433 126.397 252.219 128.967 253.924 131.848C256.181 134.538 258.895 137.492 261.921 139.629C261.728 139.653 262.713 140.446 263.602 140.734C266.291 143.376 268.741 145.777 270.734 148.803C271.119 149.716 271.287 150.676 272.007 151.445C272.031 151.493 271.983 151.541 271.959 151.564C273.544 153.582 274.312 155.911 275.465 158.073C275.753 159.658 276.762 161.123 277.242 162.684C277.626 163.356 277.819 164.149 278.251 164.725C278.611 165.613 279.187 166.478 279.332 167.366C280.028 168.111 279.908 169.312 280.485 170.152C280.893 171.449 281.013 172.842 281.709 174.019C281.973 174.859 281.733 175.916 282.189 176.66C282.141 176.756 282.093 176.877 282.117 176.997C282.285 177.117 282.213 177.693 282.334 177.885C282.189 179.134 282.574 181.079 282.526 182.352C282.67 182.76 282.141 182.616 281.997 182.568C281.925 181.655 281.229 181.031 281.181 180.118C280.989 179.879 280.676 179.782 280.772 179.446C280.893 179.398 280.989 179.278 281.109 179.158C281.061 178.749 280.7 178.509 280.485 178.077C279.86 178.005 280.556 176.997 279.956 176.852C279.235 176.324 279.187 175.58 278.876 174.835C278.227 174.547 278.995 173.802 278.467 173.394C278.683 173.898 278.011 174.595 278.539 174.907C278.347 175.772 279.115 176.372 278.659 177.261C278.803 177.573 279.212 177.957 278.876 178.294C279.019 178.437 279.163 178.654 278.995 178.822C278.827 179.182 278.395 179.134 278.059 179.23C278.131 179.062 277.722 179.062 277.915 178.822C277.963 178.509 277.554 178.582 277.506 178.293C277.194 177.741 277.602 176.78 276.906 176.516C276.81 176.276 276.834 175.988 276.834 175.7C276.426 175.724 276.234 175.484 276.017 175.171C276.065 174.907 275.777 174.979 275.873 174.691C276.258 174.667 276.498 174.259 276.834 174.163C276.498 173.202 276.138 172.265 276.017 171.233C275.801 170.848 275.897 170.368 275.609 170.008C274.841 170.848 275.681 171.953 275.417 172.938C275.369 173.731 275.873 174.643 275.201 175.363C275.153 175.411 275.105 175.46 275.081 175.507C274.889 176.3 275.897 177.597 274.673 177.813C274.456 177.237 274.265 176.612 274.048 176.108C273.904 175.484 273.568 174.883 273.16 174.427C272.824 174.859 272.391 174.331 272.007 174.211C271.983 173.659 271.311 173.418 271.215 172.866C270.854 172.362 270.23 172.05 270.518 171.377C270.71 171.233 271.263 171.425 271.071 170.969C270.926 170.512 271.911 170.801 271.479 170.224C271.239 170.128 271.359 169.864 271.215 169.744C271.311 168.807 270.998 167.943 271.215 167.03C270.95 166.862 270.902 166.622 270.926 166.358C271.311 166.31 271.07 165.902 271.142 165.685C270.974 165.637 270.686 165.517 270.806 165.277C270.662 164.989 271.095 164.941 270.806 164.725C270.518 164.388 271.07 164.052 270.734 163.788C270.566 163.308 271.334 163.044 270.854 162.636C270.494 162.996 270.158 163.668 270.398 164.173C270.878 164.245 270.326 164.749 270.398 165.061C270.23 165.157 270.47 165.469 270.182 165.469C270.014 166.022 270.254 166.814 269.99 167.246C269.606 167.414 270.59 167.03 269.99 168.255C269.75 168.855 269.846 169.648 269.918 170.296C269.606 170.32 270.374 170.032 269.846 170.897C269.726 170.945 269.365 171.377 269.438 171.497C269.245 171.738 269.077 171.665 268.837 171.569C268.789 170.897 268.117 170.489 268.093 169.816C268.357 169.552 269.389 169.744 268.909 169C268.381 168.759 269.077 168.135 268.549 167.847C268.597 167.727 268.453 167.414 268.693 167.511C268.765 167.463 268.765 167.414 268.693 167.366H268.549C268.597 166.886 268.453 166.022 268.693 165.685C268.453 165.517 268.333 165.181 268.285 164.869C268.837 164.557 267.9 163.692 268.693 163.716C268.381 163.116 269.27 162.948 268.957 162.347C268.645 162.203 268.501 161.867 268.501 161.531C269.077 161.579 268.837 160.93 268.909 160.594C268.501 160.426 268.909 159.874 268.501 159.778C267.732 160.45 268.717 161.579 267.876 162.155C267.925 162.636 267.42 162.9 267.613 163.428C267.42 163.668 267.132 163.932 267.348 164.245C267.276 164.365 267.492 164.533 267.396 164.725C266.892 165.013 267.3 165.662 266.796 165.949C266.628 166.358 266.483 167.414 266.604 167.439C266.82 167.943 266.387 168.231 266.051 168.519C265.907 168.543 265.835 168.735 265.643 168.663C265.499 168.543 265.499 168.375 265.451 168.183C265.883 168.063 266.076 167.319 265.907 167.294C265.835 166.886 266.003 166.502 266.315 166.286C266.531 165.301 265.619 164.365 266.315 163.572C266.531 162.708 265.547 161.651 266.652 161.123C267.012 160.859 266.892 160.258 267.204 159.922C266.652 159.754 267.276 158.601 266.604 159.033C266.676 159.442 266.483 159.802 266.244 160.042C266.291 160.474 266.219 160.859 266.051 161.195C265.883 161.147 265.763 161.267 265.715 161.411C265.667 162.347 264.706 162.66 264.971 163.788C265.091 164.053 264.755 163.956 264.755 164.173C264.346 164.869 265.427 165.157 264.755 165.734C264.802 165.998 264.587 166.166 264.562 166.43C264.106 166.622 264.058 165.877 263.818 165.613C263.866 165.349 263.698 165.133 263.938 165.061C264.25 164.677 263.938 164.028 264.226 163.644C264.01 163.38 263.794 163.14 263.89 162.756C263.962 162.564 264.322 162.42 264.01 162.227C263.89 162.131 263.866 162.011 263.89 161.867C263.986 161.915 264.01 161.795 264.082 161.747C264.13 161.171 264.226 161.003 264.634 160.667C265.283 160.714 264.706 159.73 265.379 159.778C265.811 159.61 265.427 159.274 265.451 159.033C264.995 158.793 266.051 157.929 265.163 157.808C264.755 158.049 264.85 158.721 264.826 159.225C264.755 159.538 264.418 159.201 264.346 159.513C264.538 160.066 264.106 160.33 263.746 160.594C262.953 160.618 263.89 161.627 263.193 161.867C263.025 161.939 262.881 162.155 262.737 162.275C262.545 162.756 263.17 163.692 262.449 163.572C262.113 163.236 262.185 162.78 261.849 162.492C261.801 162.275 261.897 162.131 262.041 162.011C261.969 161.675 261.873 161.051 262.401 161.003C262.545 160.738 262.089 160.714 262.257 160.45C262.089 160.33 261.897 160.522 261.777 160.666C261.728 160.978 261.728 161.315 261.441 161.531C261.152 161.675 261.152 161.315 261.032 161.195C260.744 160.618 261.368 159.874 260.552 159.562C260.744 159.249 261.104 159.057 260.96 158.553C260.888 158.433 260.744 158.505 260.624 158.481C260.288 158.673 260.36 159.346 259.879 159.369C259.447 159.225 259.351 158.889 259.135 158.553C259.231 158.241 259.735 158.361 259.735 157.952C260.024 157.785 260.504 157.761 260.552 157.328C260.456 156.248 261.969 156.2 261.705 155.023C261.825 154.903 262.185 154.927 262.041 154.614C261.753 154.783 260.864 154.519 260.96 155.239C260.696 155.551 260.408 156.007 260.288 156.463C259.783 156.704 259.639 157.016 259.135 157.4C259.159 157.616 259.135 157.833 258.943 157.952C258.63 157.952 258.367 157.833 258.054 157.88C257.718 157.496 257.094 156.896 257.91 156.656C258.847 156.776 258.222 155.503 258.991 155.359C259.303 155.383 259.303 155.119 259.543 154.951C259.591 154.783 259.471 154.663 259.327 154.614C258.775 154.446 258.919 155.143 258.318 154.903C258.15 155.599 257.622 155.887 257.43 156.512C256.95 156.872 256.614 156.368 256.085 156.248C255.845 156.32 255.533 156.176 255.341 155.911C255.316 155.767 255.341 155.647 255.485 155.575C255.629 155.551 255.821 155.623 255.941 155.503C255.989 155.119 255.293 155.431 255.125 155.239C254.956 155.287 254.836 155.527 254.596 155.431C254.308 155.095 255.244 154.687 254.524 154.495C254.885 154.254 254.572 153.942 254.86 153.75C254.764 153.606 254.596 153.702 254.452 153.678C254.164 153.918 253.996 154.543 253.563 154.423C253.684 154.086 253.276 154.134 253.179 153.942C252.603 154.23 252.483 153.414 251.883 153.606C251.931 153.006 250.346 152.862 251.21 152.453C251.546 152.285 251.378 151.781 251.618 151.493C251.354 151.3 251.402 151.781 251.138 151.781C250.706 152.021 250.297 151.661 250.057 151.373C249.769 151.204 249.961 150.82 249.721 150.628C249.385 150.82 249.073 150.82 248.761 150.628C248.568 150.412 248.184 150.196 248.424 149.883C248.713 149.499 249.193 149.524 249.577 149.331C249.217 148.347 248.761 149.811 248.208 149.139C247.992 149.355 247.68 149.571 247.416 149.475C247.007 149.211 246.647 148.947 246.791 148.443C246.888 148.323 247.152 148.491 247.128 148.251C246.839 148.155 246.479 148.323 246.191 148.107C245.903 147.89 245.686 147.602 245.783 147.242C245.23 146.834 244.51 146.714 244.342 145.945C244.245 145.801 244.005 145.945 243.886 145.801C243.309 145.465 244.27 144.096 242.997 144.456C242.829 144.36 242.589 144.192 242.589 143.976C242.733 143.856 242.445 143.76 242.396 143.64C242.012 143.52 241.844 143.208 241.652 142.967C241.34 142.175 240.163 141.815 240.211 140.926C239.611 141.022 239.827 140.206 239.202 140.374C238.722 140.013 238.854 139.96 238.65 139.629C238.53 139.317 238.674 138.789 238.194 138.765C237.714 138.092 236.897 137.876 236.489 137.06C235.84 137.468 235.24 138.044 235.408 138.957C235.096 139.245 235.384 140.638 235.48 140.662C235.144 141.358 235.552 142.103 235.12 142.751C235.168 143.111 235.096 143.616 234.928 143.976C235.288 144.961 234.232 145.825 234.784 146.882C234.664 147.17 234.832 147.794 234.376 147.986C233.751 147.602 233.247 148.155 232.622 147.77C232.478 147.986 232.166 148.155 231.878 148.179C231.422 147.77 231.494 146.834 230.509 147.098C230.437 147.314 230.101 147.626 229.909 147.29C229.645 147.506 229.405 147.194 229.092 147.29C228.876 146.978 228.756 146.281 228.276 146.882C228.084 146.81 228.036 147.098 227.867 147.098C227.531 146.306 226.258 147.05 226.379 145.873C226.138 145.657 226.282 145.297 226.258 144.984C226.379 144.865 226.691 144.865 226.667 144.576C226.403 144.36 226.21 144.72 225.97 144.72C225.994 145.009 225.73 145.225 225.442 145.129C225.154 145.081 224.938 144.816 224.625 144.72C224.65 144.36 224.338 144.384 224.145 144.576C224.169 144.816 223.761 144.841 223.593 144.72C223.473 144.672 223.376 144.552 223.257 144.456C223.521 144.048 222.8 143.904 222.993 143.496C222.272 143.255 221.455 143.208 220.831 142.751C220.399 143.111 220.351 142.439 220.087 142.343C220.039 141.935 220.591 142.151 220.543 141.742C220.231 141.478 220.159 141.238 219.751 141.07C219.294 141.19 219.006 141.142 218.646 140.854C218.694 140.47 218.502 140.302 218.79 139.917C218.19 139.605 219.15 138.981 218.454 138.813C218.43 138.525 218.262 138.116 217.901 138.356C217.637 138.404 217.349 138.332 217.373 137.948C217.013 137.348 217.733 137.011 217.493 136.387C217.709 136.003 218.43 136.075 218.526 135.763C218.598 135.355 219.078 135.547 219.27 135.234C219.054 135.09 218.766 134.946 218.526 135.09C218.022 135.331 217.565 135.859 217.037 135.355C216.724 134.922 216.292 134.706 216.292 134.154C216.629 134.082 216.821 133.77 216.965 133.458C216.869 133.385 216.821 133.289 216.677 133.337C216.653 133.529 216.509 133.818 216.292 133.602C216.388 133.265 216.004 133.337 215.932 133.049C216.22 132.617 216.172 132.065 216.629 131.704C216.437 131.44 216.124 131.152 216.341 130.816C216.509 130.504 216.556 130.095 216.821 129.879C216.749 129.495 216.869 129.087 217.373 129.063C218.141 128.678 218.934 129.014 219.678 128.51C220.207 128.27 220.423 129.159 220.903 128.655C221.383 129.014 221.696 128.342 221.912 129.135C222.248 128.919 222.656 128.63 223.137 128.655C223.305 128.871 223.281 129.303 223.665 129.327C223.689 129.135 223.857 128.99 224.073 129.063C224.217 129.207 224.241 129.471 224.481 129.543C224.529 129.399 224.385 128.727 224.818 129.063C224.986 129.999 226.283 128.294 225.706 129.735C225.634 129.807 225.538 129.879 225.562 129.999C225.61 130.143 225.755 130.047 225.85 130.072C226.042 128.942 227.411 129.735 227.411 128.51C228.06 128.414 228.132 127.718 228.564 127.358C228.54 126.925 228.011 126.613 228.204 126.085C227.027 125.533 226.499 124.452 226.187 123.227C225.394 122.626 224.217 122.338 224.289 121.186C224.289 120.633 223.785 120.129 223.401 119.841C223.161 119.457 222.632 119.096 222.44 118.76C222.68 118.568 222.32 118.472 222.392 118.28C222.44 117.848 222.368 117.223 221.768 117.199C221.264 117.176 221.72 116.263 221.023 116.239C220.759 116.095 220.591 115.759 220.759 115.422C220.999 115.326 220.855 115.038 220.831 114.894C220.591 114.75 220.111 114.918 220.087 114.558C220.183 114.029 220.207 113.621 219.871 113.189C219.655 113.141 219.294 113.333 219.27 112.997C218.838 112.42 220.447 111.676 219.054 111.844C218.958 111.628 218.694 111.724 218.646 111.508C218.118 110.763 219.39 110.571 218.862 109.995C218.574 110.091 218.262 110.475 217.973 110.139C217.733 109.875 217.877 109.274 217.709 108.986C218.55 108.89 218.141 107.93 218.982 107.834C219.078 107.713 219.246 107.641 219.27 107.497C218.43 107.113 218.405 108.458 217.709 108.458C217.613 108.578 217.445 108.481 217.301 108.506C217.037 108.29 216.965 107.881 217.085 107.569C217.565 107.497 217.83 106.897 218.237 106.681C218.694 106.465 218.958 106.128 219.054 105.672C218.454 105.048 217.998 106.32 217.301 106.273C217.109 106.465 216.845 106.513 216.628 106.609C216.292 106.32 216.653 106.008 216.749 105.744C217.109 105.888 216.965 105.456 217.085 105.336C217.493 104.591 219.006 104.952 218.718 103.703C218.478 103.559 218.118 103.342 217.901 103.703C217.493 104.183 216.941 104.615 216.292 104.64C216.124 104.471 215.812 104.519 215.74 104.303C215.644 103.847 216.196 103.775 216.412 103.487C217.061 103.415 217.517 102.574 218.237 102.55C218.357 102.238 218.094 102.022 217.829 102.214C217.253 102.742 216.341 102.478 215.74 102.958C215.476 102.982 215.308 102.766 215.068 102.742C214.948 102.454 214.948 101.926 215.332 101.878C215.596 101.902 215.836 101.83 216.004 101.661C216.076 101.469 215.692 100.797 216.22 101.061C216.22 101.205 216.388 101.277 216.485 101.397C216.941 101.566 217.085 101.013 217.301 100.773C217.277 100.629 217.493 100.413 217.229 100.316C216.46 100.413 215.86 100.917 215.068 100.917C214.755 100.725 215.068 100.413 215.068 100.173C215.524 100.005 215.908 99.9085 216.22 99.5721C216.437 99.5001 216.677 99.7886 216.821 99.5001C216.796 99.3321 216.821 99.116 217.037 99.092C217.277 99.116 217.517 99.3321 217.781 99.1639C217.998 98.8037 217.709 98.7079 217.493 98.5397C217.405 98.4515 217.317 98.3634 217.229 98.2754C216.028 98.2754 214.948 99.2357 213.771 98.6836C213.603 98.2754 214.059 98.4194 214.179 98.2035C214.539 97.8673 215.236 98.4913 215.524 97.7953C216.004 98.0832 216.268 97.1949 216.629 97.7953C217.037 97.747 217.229 97.6271 217.637 97.603C218.045 97.1467 218.526 96.8587 218.646 96.162C218.022 96.1381 217.349 95.6339 216.749 96.1143C216.268 95.9461 216.052 96.4022 215.596 96.3062C215.115 96.8587 214.371 96.7867 213.627 96.7867C213.53 96.6664 213.314 96.5225 213.507 96.3783C214.011 95.9701 214.852 96.3783 215.26 95.7059C215.692 95.1055 217.301 96.2342 216.892 94.8896C216.028 94.7452 214.923 94.3369 214.107 94.8896C213.627 94.9132 213.002 94.6254 212.618 95.0093C212.186 94.6731 211.417 95.3697 211.201 94.6254C210.937 94.0007 211.61 94.0007 211.874 93.7366C212.45 94.0728 212.93 93.6885 213.507 93.8086C213.627 93.7128 213.651 93.5923 213.627 93.4726C212.642 92.704 211.249 93.1841 210.168 93.0642C210.217 92.5117 209.352 92.8 209.568 92.2477C209.904 92.224 210.289 91.9354 210.577 92.2477C211.201 92.1517 211.681 92.392 212.282 92.3199C212.738 92.56 213.122 92.3678 213.579 92.6561C214.755 92.2477 213.53 93.6406 214.587 93.5205C215.476 93.2563 216.124 93.7366 217.037 93.8086C217.133 93.4004 217.565 93.7128 217.829 93.6645C217.637 93.4004 218.262 92.632 217.709 92.776C217.469 92.8479 217.349 93.2084 217.085 93.1841C216.964 93.0161 217.061 92.7519 216.821 92.6561C216.556 92.632 216.581 92.896 216.341 92.9921C216.076 93.0161 215.908 92.8002 215.668 92.776C215.115 92.1278 216.773 92.1517 215.812 91.6234C215.812 90.951 214.299 91.6473 214.659 90.5429C214.924 89.9903 216.028 90.8548 215.596 89.7983C215.043 89.0297 214.203 89.5822 213.434 89.3181C213.291 88.9819 212.618 89.1736 212.426 88.8617C212.186 88.4292 211.874 88.8376 211.61 88.5014C211.249 88.8617 210.793 88.4054 210.457 88.5014C209.952 87.8529 208.824 88.4292 208.271 87.757C207.455 87.3006 206.614 87.5407 205.702 87.3006C205.606 87.0363 205.221 86.8926 205.366 86.5564C205.63 86.3639 206.086 86.5802 206.446 86.6041C207.071 86.7964 207.791 86.4602 208.271 87.1566C209.256 87.3246 210.337 87.2765 211.202 87.757C212.042 87.0365 212.642 88.5495 213.627 88.3093C213.987 88.5495 214.491 88.4054 214.923 88.4533C215.043 88.3334 214.971 88.1171 214.996 87.9731C214.371 87.1805 213.17 87.1805 212.354 86.5564C211.729 86.4842 211.129 86.4361 210.649 86.076C210.265 85.8838 209.784 85.8838 209.376 85.7876C209.04 85.3794 208.391 86.076 208.271 85.4514C207.623 85.4995 207.239 85.3074 206.782 84.8509C206.302 84.7551 205.894 84.5149 205.366 84.5149C205.077 84.6589 204.741 84.635 204.405 84.707C204.405 84.5149 204.309 84.3708 204.141 84.2509C203.084 84.2509 203.468 83.0501 202.916 82.5457C203.108 82.1134 203.3 82.5457 203.541 82.5457C203.828 82.9302 204.525 82.5938 204.813 83.0982C205.101 83.0982 205.245 83.4823 205.509 83.5544C206.086 83.8425 206.806 83.8425 207.335 84.2986C208.079 84.4668 208.776 84.6827 209.376 85.1871C209.736 84.6827 210.144 85.2832 210.577 85.1871C211.345 85.6196 212.306 85.6677 212.954 86.1959C213.314 86.0277 214.227 86.5804 214.179 86.0039C213.987 85.8118 214.059 85.3074 213.627 85.4036C213.146 84.5871 211.994 85.0915 211.682 84.1783C211.057 84.395 210.649 83.6743 209.976 83.8425C209.784 83.5544 209.4 83.7944 209.16 83.6262C208.655 82.8099 207.599 83.194 207.191 82.2814C206.398 82.4977 206.11 81.2967 205.366 81.9935C204.813 81.849 204.357 81.4408 203.66 81.585C203.396 81.7772 203.396 82.2576 202.988 82.2095C202.796 82.1134 202.844 81.7051 202.508 81.7293C202.436 80.9607 201.667 80.6245 201.307 80.0241C201.379 79.8801 201.547 79.9521 201.643 79.832C202.244 79.976 203.396 79.4958 203.733 80.2402C204.309 80.4086 204.669 80.8887 205.294 80.7205C205.678 80.9847 206.23 81.0086 206.59 81.1768C207.119 81.609 207.671 81.441 208.223 81.8733C208.416 81.8011 208.68 81.6331 208.896 81.8011C209.16 82.2095 209.64 82.0896 209.904 82.4735C210.456 82.7139 211.081 82.762 211.537 83.2181C212.018 83.0982 212.21 83.6743 212.69 83.7704C213.218 83.7944 213.603 84.3229 214.179 84.0346C213.627 83.5061 213.05 82.5699 212.018 82.7381C211.682 82.6655 211.85 82.1134 211.393 82.2095C210.985 81.9693 210.505 81.1527 209.904 81.2488C208.536 81.7293 208.199 79.568 206.782 80.1682C206.134 79.6879 205.726 78.9433 204.765 78.9433C204.237 77.9588 202.868 78.7751 202.508 77.7186C201.643 77.8148 201.763 76.8541 201.019 76.638C201.067 76.1815 200.394 76.2056 200.538 75.7012C200.37 75.6054 200.418 75.4372 200.418 75.293C200.587 75.2211 200.683 75.125 200.899 75.2211C201.139 75.5093 201.883 74.7409 201.907 75.4853C202.244 75.5815 202.628 75.7974 202.724 76.1815C203.228 76.2778 203.637 76.8303 204.141 76.71C204.429 76.8062 204.813 76.8062 205.101 76.71C204.477 76.2298 203.853 75.4612 203.06 75.293C202.844 75.1731 202.436 74.9811 202.46 74.8129C202.147 74.4524 201.475 74.3085 201.355 73.8041C200.683 73.2277 200.37 72.3153 199.602 71.7632C199.746 71.4026 199.002 70.8984 199.746 70.8024C200.058 70.8507 200.25 70.7542 200.491 70.8024C199.794 70.298 199.722 69.4576 199.002 69.1933C198.617 69.0253 198.881 68.4007 198.521 68.2328C198.545 68.0408 198.401 67.4883 198.857 67.4883C199.314 67.6805 200.034 67.4883 200.202 68.0408Z" fill="white"/>
<path d="M209.904 90.0629C209.929 90.2069 209.904 90.327 209.761 90.3989C209.064 90.6151 208.463 89.7025 207.863 90.3989C207.575 90.3751 207.335 90.2311 207.119 90.0146C206.951 89.2464 207.671 89.7987 208.007 89.5343C208.608 89.4625 209.256 89.2701 209.568 89.9425C209.712 89.9188 209.736 90.1588 209.904 90.0629Z" fill="white"/>
<path d="M213.771 90.5423C213.963 90.7823 213.675 90.9747 213.507 91.1668C213.147 90.9747 212.498 91.5268 212.282 90.9507C212.042 91.1906 211.898 90.7823 211.682 90.8067C211.321 90.8067 210.937 90.8544 210.649 90.6864C210.529 90.6385 210.601 90.3982 210.577 90.2781C211.129 90.2061 211.754 90.3743 212.354 90.3984C212.498 90.254 212.498 89.9419 212.835 90.0622C213.075 90.35 213.363 90.5423 213.771 90.5423Z" fill="white"/>
<path d="M249.434 114.222C249.121 114.222 248.953 113.934 248.833 113.742C249.001 113.165 249.049 114.006 249.362 113.862C249.337 114.006 249.65 114.078 249.434 114.222Z" fill="white"/>
<path d="M237.57 120.322C237.281 120.009 237.113 120.61 236.825 120.322C237.066 119.938 237.858 120.274 237.834 119.625C237.882 119.913 237.81 120.154 237.57 120.322Z" fill="white"/>
<path d="M236.561 121.258C236.369 121.234 236.369 120.898 236.272 120.73C236.417 120.73 236.537 120.706 236.633 120.586C236.609 120.826 236.945 121.114 236.561 121.258Z" fill="white"/>
<path d="M199.816 68.1435C200.32 68.4795 200.872 68.9835 201.448 69.2957C202.096 69.7275 202.576 70.2315 203.272 70.8554C204.952 72.0312 206.824 73.3991 208.432 74.8389C210.16 75.9911 211.36 77.4066 213.183 78.5105C217.023 81.1744 220.263 84.4382 223.406 87.9181C224.486 89.2379 226.07 90.1497 227.27 91.5897C227.654 91.6855 227.75 92.2854 228.086 92.5977C229.118 93.9175 229.886 95.3094 230.318 96.9413C230.438 97.397 230.63 97.8531 230.798 98.2851C231.038 99.4851 231.638 100.517 231.95 101.669C233.101 104.284 233.846 107.068 235.669 109.396C236.917 111.772 239.101 113.788 241.021 115.708C241.141 115.948 241.141 116.116 240.949 116.308C240.757 116.548 240.277 116.356 240.277 116.787C240.013 116.98 239.725 117.747 239.269 117.459C239.077 117.963 238.261 117.795 238.309 118.42C238.093 118.611 237.685 118.803 237.709 119.164C237.782 119.403 238.117 119.307 238.309 119.427C238.453 119.115 238.549 118.611 238.981 118.611C239.101 118.828 239.389 118.803 239.533 118.755C239.581 118.299 240.061 118.323 240.421 118.348C240.853 118.443 240.733 117.555 241.237 117.867C241.405 118.107 241.645 118.492 241.981 118.492C242.197 118.395 242.125 118.131 242.029 118.012C241.813 117.747 241.525 117.603 241.501 117.34C241.765 117.363 242.077 117.316 242.029 116.98C241.957 116.764 242.317 116.836 242.389 116.931C242.581 117.148 242.485 118.035 242.989 117.603C243.013 117.412 243.156 117.267 243.397 117.34C243.829 117.795 244.093 117.052 244.477 116.98C244.477 116.644 245.029 116.859 244.885 116.452C244.429 116.283 243.565 117.123 243.469 116.187C243.757 115.996 244.069 116.308 244.213 115.9C244.045 115.539 244.405 115.18 244.813 115.444C245.053 115.588 244.957 115.107 244.885 115.035C244.813 114.94 244.741 114.772 244.813 114.676C244.909 114.652 245.101 114.484 245.293 114.556C245.269 114.628 245.341 114.724 245.437 114.676C245.605 114.724 245.725 114.628 245.772 114.484C245.556 114.484 245.628 114.244 245.701 114.148C245.772 114.1 245.772 114.028 245.772 113.932C246.205 113.692 246.205 114.628 246.516 114.148C247.141 114.1 246.876 114.94 247.332 114.82C247.453 115.036 247.524 114.724 247.668 114.892C247.789 114.796 247.717 114.628 247.74 114.484C247.404 114.292 247.453 113.956 247.117 113.932C247.045 113.692 247.62 114.172 247.453 113.668C247.213 113.356 246.925 113.98 246.588 113.668C246.516 113.548 246.301 113.5 246.373 113.332C246.901 113.62 246.781 112.42 247.188 113.14C247.453 113.236 247.548 113.572 247.932 113.524C248.077 113.5 248.172 113.38 248.268 113.26C248.196 113.164 248.124 112.996 248.196 112.924C247.908 112.852 247.596 112.948 247.333 112.732C247.236 112.276 247.668 112.06 248.004 111.988C248.893 111.34 249.996 111.196 251.124 111.1C251.556 111.292 252.036 111.58 252.54 111.364C254.1 110.644 255.324 109.636 256.883 108.916C257.196 108.916 257.556 108.916 257.699 109.204C257.555 109.516 257.244 109.828 257.076 110.068C256.284 110.812 255.276 111.388 254.292 111.844C253.956 112.348 253.38 112.996 253.02 113.596C252.3 114.844 251.748 116.236 251.124 117.387C250.956 118.707 250.092 119.715 250.044 121.059C249.948 121.203 249.972 121.419 249.756 121.539C249.804 121.851 249.732 122.307 249.564 122.619C249.012 126.459 251.796 129.027 253.5 131.906C255.756 134.594 258.468 137.546 261.491 139.682C261.299 139.706 262.284 140.498 263.171 140.786C265.859 143.425 268.307 145.825 270.298 148.849C270.683 149.761 270.851 150.721 271.571 151.489C271.594 151.537 271.546 151.585 271.523 151.609C273.107 153.625 273.874 155.952 275.026 158.112C275.314 159.696 276.322 161.16 276.802 162.72C277.186 163.392 277.378 164.184 277.81 164.76C278.17 165.648 278.746 166.512 278.89 167.399C279.586 168.143 279.466 169.343 280.042 170.183C280.45 171.479 280.57 172.871 281.265 174.047C281.53 174.887 281.29 175.943 281.746 176.687C281.697 176.783 281.65 176.903 281.674 177.023C281.841 177.143 281.77 177.719 281.89 177.911C281.746 179.159 282.13 181.102 282.082 182.374C282.226 182.782 281.697 182.638 281.554 182.59C281.482 181.678 280.786 181.054 280.738 180.142C280.546 179.902 280.234 179.807 280.33 179.471C280.45 179.422 280.546 179.303 280.666 179.182C280.618 178.774 280.258 178.534 280.042 178.102C279.418 178.03 280.114 177.023 279.514 176.879C278.794 176.351 278.746 175.607 278.434 174.863C277.786 174.575 278.554 173.831 278.026 173.423C278.242 173.927 277.57 174.623 278.098 174.934C277.906 175.799 278.674 176.399 278.218 177.286C278.362 177.599 278.77 177.983 278.434 178.318C278.578 178.462 278.722 178.678 278.554 178.846C278.386 179.206 277.954 179.159 277.618 179.255C277.69 179.087 277.282 179.087 277.474 178.846C277.522 178.534 277.114 178.606 277.066 178.318C276.754 177.767 277.162 176.807 276.466 176.543C276.37 176.303 276.394 176.015 276.394 175.727C275.986 175.751 275.794 175.511 275.578 175.199C275.626 174.935 275.338 175.007 275.434 174.719C275.818 174.695 276.058 174.287 276.394 174.191C276.058 173.231 275.698 172.295 275.578 171.263C275.362 170.879 275.458 170.399 275.17 170.039C274.402 170.879 275.242 171.983 274.978 172.967C274.93 173.759 275.434 174.671 274.762 175.391C274.714 175.439 274.666 175.487 274.642 175.535C274.45 176.327 275.458 177.623 274.234 177.839C274.018 177.263 273.826 176.639 273.61 176.135C273.466 175.511 273.13 174.911 272.722 174.455C272.386 174.887 271.954 174.359 271.571 174.239C271.546 173.687 270.874 173.447 270.779 172.895C270.419 172.391 269.795 172.079 270.083 171.407C270.275 171.263 270.827 171.455 270.635 170.999C270.491 170.543 271.475 170.831 271.042 170.255C270.803 170.159 270.923 169.895 270.779 169.775C270.874 168.839 270.563 167.975 270.779 167.063C270.514 166.895 270.467 166.656 270.491 166.391C270.874 166.344 270.634 165.935 270.706 165.72C270.539 165.671 270.251 165.552 270.371 165.312C270.227 165.024 270.659 164.976 270.371 164.76C270.082 164.424 270.634 164.088 270.298 163.824C270.131 163.344 270.899 163.08 270.419 162.672C270.059 163.032 269.723 163.704 269.963 164.207C270.443 164.28 269.891 164.784 269.963 165.096C269.795 165.192 270.035 165.503 269.747 165.503C269.579 166.055 269.819 166.847 269.554 167.279C269.171 167.448 270.155 167.063 269.554 168.287C269.315 168.887 269.411 169.679 269.483 170.327C269.171 170.351 269.939 170.063 269.411 170.927C269.291 170.975 268.931 171.407 269.003 171.527C268.811 171.767 268.643 171.695 268.403 171.599C268.355 170.927 267.683 170.519 267.659 169.847C267.923 169.583 268.955 169.775 268.475 169.031C267.947 168.791 268.643 168.168 268.115 167.88C268.163 167.759 268.019 167.448 268.259 167.543C268.331 167.495 268.331 167.448 268.259 167.399H268.115C268.163 166.92 268.019 166.056 268.259 165.719C268.019 165.552 267.899 165.215 267.851 164.904C268.403 164.592 267.467 163.728 268.259 163.752C267.947 163.152 268.835 162.984 268.523 162.384C268.211 162.24 268.067 161.904 268.067 161.568C268.643 161.616 268.403 160.968 268.475 160.632C268.067 160.464 268.475 159.912 268.067 159.816C267.299 160.488 268.283 161.616 267.443 162.192C267.491 162.672 266.987 162.936 267.179 163.464C266.987 163.704 266.699 163.968 266.915 164.28C266.843 164.4 267.059 164.568 266.963 164.76C266.459 165.047 266.867 165.696 266.363 165.984C266.195 166.391 266.051 167.448 266.171 167.471C266.387 167.975 265.955 168.264 265.619 168.551C265.475 168.575 265.403 168.767 265.211 168.695C265.067 168.575 265.067 168.408 265.019 168.215C265.451 168.095 265.643 167.352 265.475 167.328C265.403 166.919 265.571 166.535 265.883 166.319C266.099 165.336 265.187 164.4 265.883 163.608C266.099 162.744 265.115 161.688 266.219 161.16C266.579 160.896 266.459 160.296 266.771 159.96C266.219 159.792 266.843 158.64 266.171 159.072C266.243 159.48 266.051 159.84 265.811 160.08C265.859 160.512 265.787 160.896 265.619 161.232C265.451 161.184 265.331 161.304 265.283 161.448C265.235 162.384 264.275 162.696 264.539 163.824C264.659 164.088 264.323 163.992 264.323 164.207C263.915 164.904 264.995 165.191 264.323 165.768C264.371 166.031 264.155 166.199 264.131 166.463C263.675 166.656 263.627 165.912 263.387 165.648C263.435 165.383 263.267 165.168 263.507 165.095C263.819 164.712 263.507 164.064 263.795 163.68C263.579 163.416 263.363 163.176 263.459 162.792C263.531 162.6 263.891 162.456 263.579 162.264C263.459 162.168 263.435 162.048 263.459 161.904C263.555 161.952 263.579 161.832 263.651 161.784C263.699 161.208 263.795 161.04 264.203 160.704C264.851 160.752 264.275 159.768 264.947 159.816C265.379 159.648 264.995 159.312 265.019 159.072C264.563 158.832 265.619 157.968 264.731 157.848C264.323 158.088 264.419 158.76 264.395 159.264C264.323 159.576 263.987 159.24 263.915 159.552C264.107 160.104 263.675 160.368 263.315 160.632C262.523 160.656 263.459 161.664 262.763 161.904C262.595 161.976 262.451 162.192 262.307 162.312C262.115 162.792 262.739 163.728 262.019 163.608C261.683 163.272 261.755 162.816 261.419 162.528C261.371 162.312 261.467 162.168 261.611 162.048C261.539 161.712 261.443 161.088 261.971 161.04C262.115 160.776 261.659 160.752 261.827 160.488C261.659 160.368 261.467 160.56 261.347 160.704C261.299 161.016 261.299 161.352 261.011 161.568C260.723 161.712 260.723 161.352 260.604 161.232C260.316 160.656 260.939 159.912 260.123 159.6C260.316 159.288 260.675 159.096 260.532 158.592C260.46 158.472 260.316 158.544 260.195 158.52C259.86 158.712 259.932 159.384 259.451 159.408C259.02 159.264 258.924 158.928 258.708 158.592C258.803 158.28 259.307 158.4 259.307 157.992C259.595 157.824 260.075 157.8 260.123 157.368C260.027 156.288 261.539 156.24 261.275 155.064C261.395 154.945 261.755 154.969 261.611 154.657C261.323 154.824 260.435 154.56 260.532 155.28C260.267 155.593 259.979 156.048 259.86 156.504C259.356 156.744 259.212 157.056 258.708 157.44C258.731 157.656 258.708 157.872 258.516 157.992C258.204 157.992 257.94 157.872 257.628 157.92C257.292 157.536 256.668 156.936 257.483 156.696C258.42 156.816 257.796 155.544 258.563 155.4C258.875 155.424 258.875 155.16 259.116 154.992C259.163 154.824 259.044 154.705 258.899 154.657C258.347 154.488 258.492 155.185 257.892 154.945C257.724 155.64 257.196 155.928 257.004 156.552C256.524 156.912 256.188 156.408 255.66 156.288C255.42 156.36 255.108 156.216 254.916 155.952C254.892 155.808 254.916 155.688 255.06 155.616C255.204 155.592 255.396 155.664 255.516 155.544C255.564 155.16 254.868 155.472 254.7 155.28C254.532 155.328 254.412 155.568 254.172 155.472C253.884 155.136 254.82 154.728 254.1 154.536C254.46 154.296 254.148 153.985 254.436 153.793C254.34 153.649 254.172 153.744 254.028 153.721C253.74 153.96 253.572 154.585 253.14 154.464C253.26 154.129 252.852 154.177 252.756 153.985C252.18 154.273 252.06 153.457 251.46 153.648C251.508 153.049 249.924 152.905 250.788 152.497C251.124 152.329 250.956 151.825 251.196 151.537C250.932 151.345 250.98 151.825 250.716 151.825C250.284 152.065 249.876 151.705 249.636 151.417C249.348 151.249 249.54 150.865 249.3 150.673C248.965 150.865 248.652 150.865 248.34 150.673C248.148 150.457 247.764 150.241 248.004 149.929C248.292 149.545 248.772 149.569 249.156 149.377C248.796 148.393 248.34 149.857 247.789 149.185C247.572 149.401 247.26 149.617 246.997 149.521C246.588 149.257 246.229 148.993 246.373 148.489C246.469 148.369 246.732 148.537 246.708 148.297C246.421 148.201 246.061 148.369 245.772 148.153C245.484 147.937 245.269 147.649 245.365 147.289C244.813 146.881 244.093 146.761 243.925 145.993C243.829 145.849 243.589 145.993 243.469 145.849C242.893 145.513 243.853 144.145 242.581 144.505C242.413 144.409 242.173 144.241 242.173 144.025C242.317 143.906 242.029 143.809 241.981 143.689C241.597 143.569 241.429 143.257 241.237 143.017C240.925 142.225 239.749 141.866 239.797 140.978C239.197 141.073 239.413 140.258 238.789 140.425C238.309 140.066 238.441 140.012 238.237 139.682C238.117 139.37 238.261 138.842 237.782 138.818C237.301 138.146 236.485 137.93 236.078 137.114C235.429 137.522 234.83 138.098 234.998 139.01C234.686 139.298 234.974 140.69 235.07 140.713C234.733 141.409 235.142 142.153 234.71 142.802C234.757 143.162 234.686 143.665 234.517 144.025C234.877 145.009 233.822 145.873 234.373 146.929C234.254 147.217 234.421 147.841 233.966 148.033C233.341 147.649 232.838 148.201 232.214 147.817C232.07 148.033 231.758 148.201 231.47 148.225C231.014 147.817 231.086 146.881 230.102 147.145C230.03 147.361 229.694 147.673 229.502 147.337C229.238 147.553 228.998 147.241 228.686 147.337C228.47 147.025 228.35 146.329 227.87 146.929C227.678 146.857 227.63 147.145 227.462 147.145C227.126 146.353 225.854 147.097 225.974 145.921C225.734 145.705 225.878 145.345 225.854 145.033C225.974 144.913 226.286 144.913 226.262 144.626C225.998 144.409 225.806 144.769 225.566 144.769C225.59 145.057 225.326 145.273 225.038 145.177C224.751 145.129 224.534 144.865 224.222 144.769C224.246 144.409 223.935 144.433 223.742 144.625C223.766 144.865 223.359 144.889 223.19 144.769C223.071 144.721 222.975 144.601 222.854 144.505C223.119 144.097 222.399 143.953 222.59 143.545C221.871 143.306 221.054 143.257 220.431 142.801C219.999 143.162 219.95 142.489 219.687 142.393C219.639 141.986 220.191 142.202 220.143 141.794C219.831 141.53 219.759 141.289 219.351 141.121C218.895 141.242 218.607 141.194 218.247 140.906C218.295 140.522 218.103 140.354 218.391 139.97C217.791 139.658 218.751 139.034 218.055 138.866C218.031 138.578 217.863 138.17 217.503 138.41C217.239 138.458 216.951 138.386 216.975 138.002C216.615 137.402 217.335 137.066 217.095 136.442C217.311 136.058 218.031 136.13 218.127 135.818C218.199 135.41 218.679 135.602 218.871 135.29C218.655 135.146 218.367 135.002 218.127 135.146C217.623 135.386 217.167 135.914 216.639 135.41C216.327 134.978 215.895 134.762 215.895 134.21C216.231 134.138 216.423 133.826 216.567 133.514C216.471 133.442 216.423 133.346 216.279 133.394C216.255 133.586 216.111 133.874 215.895 133.658C215.991 133.322 215.607 133.394 215.535 133.106C215.823 132.674 215.775 132.122 216.231 131.762C216.039 131.498 215.727 131.21 215.943 130.874C216.111 130.562 216.159 130.155 216.423 129.938C216.351 129.555 216.471 129.146 216.975 129.123C217.743 128.739 218.535 129.074 219.279 128.571C219.807 128.331 220.023 129.218 220.503 128.715C220.983 129.074 221.295 128.403 221.511 129.194C221.847 128.979 222.255 128.691 222.735 128.715C222.903 128.93 222.878 129.362 223.263 129.387C223.287 129.194 223.454 129.051 223.671 129.123C223.814 129.267 223.838 129.53 224.079 129.602C224.126 129.459 223.982 128.787 224.414 129.123C224.582 130.059 225.878 128.355 225.302 129.795C225.23 129.866 225.134 129.938 225.158 130.059C225.206 130.202 225.35 130.106 225.446 130.131C225.638 129.003 227.006 129.795 227.006 128.57C227.654 128.475 227.726 127.779 228.158 127.419C228.134 126.987 227.606 126.675 227.798 126.147C226.622 125.595 226.094 124.515 225.782 123.291C224.99 122.691 223.814 122.403 223.886 121.251C223.886 120.699 223.382 120.195 222.999 119.908C222.759 119.523 222.23 119.164 222.039 118.828C222.278 118.635 221.919 118.539 221.991 118.348C222.039 117.916 221.967 117.291 221.367 117.267C220.863 117.244 221.319 116.332 220.622 116.308C220.359 116.164 220.191 115.828 220.359 115.492C220.599 115.396 220.455 115.107 220.431 114.964C220.191 114.82 219.711 114.988 219.687 114.628C219.783 114.1 219.807 113.692 219.471 113.26C219.255 113.212 218.895 113.404 218.871 113.068C218.439 112.492 220.047 111.748 218.655 111.916C218.559 111.7 218.295 111.796 218.247 111.58C217.719 110.836 218.991 110.644 218.463 110.068C218.175 110.164 217.863 110.548 217.575 110.212C217.335 109.948 217.479 109.348 217.311 109.06C218.151 108.964 217.743 108.004 218.583 107.908C218.679 107.788 218.847 107.716 218.871 107.572C218.031 107.188 218.007 108.532 217.311 108.532C217.215 108.652 217.047 108.556 216.903 108.58C216.639 108.364 216.567 107.956 216.687 107.644C217.167 107.572 217.431 106.972 217.839 106.756C218.295 106.54 218.559 106.204 218.655 105.748C218.055 105.125 217.599 106.396 216.903 106.349C216.711 106.54 216.447 106.589 216.231 106.684C215.895 106.396 216.255 106.085 216.351 105.82C216.711 105.964 216.567 105.533 216.687 105.413C217.095 104.669 218.607 105.029 218.319 103.781C218.079 103.637 217.719 103.421 217.503 103.781C217.095 104.261 216.543 104.693 215.895 104.716C215.727 104.549 215.415 104.597 215.343 104.381C215.247 103.925 215.799 103.853 216.015 103.565C216.663 103.493 217.119 102.653 217.839 102.629C217.959 102.317 217.695 102.101 217.431 102.293C216.855 102.821 215.943 102.557 215.343 103.037C215.079 103.061 214.911 102.845 214.671 102.821C214.551 102.533 214.551 102.005 214.935 101.957C215.199 101.981 215.439 101.909 215.607 101.741C215.679 101.549 215.295 100.877 215.823 101.141C215.823 101.285 215.991 101.357 216.087 101.477C216.543 101.645 216.687 101.093 216.903 100.853C216.879 100.709 217.095 100.493 216.831 100.397C216.063 100.493 215.463 100.997 214.671 100.997C214.359 100.805 214.671 100.493 214.671 100.253C215.127 100.085 215.511 99.9889 215.823 99.6529C216.039 99.5808 216.279 99.8691 216.423 99.5808C216.399 99.4132 216.423 99.1973 216.639 99.173C216.879 99.1973 217.119 99.413 217.383 99.245C217.599 98.8849 217.311 98.7889 217.095 98.6211C217.023 98.5491 216.927 98.4531 216.831 98.3569C215.631 98.3569 214.551 99.3171 213.375 98.765C213.207 98.3569 213.663 98.501 213.783 98.2851C214.143 97.9491 214.839 98.573 215.127 97.8773C215.607 98.1652 215.871 97.2773 216.231 97.8773C216.639 97.8292 216.831 97.7091 217.239 97.6851C217.647 97.2296 218.127 96.9413 218.247 96.2452C217.623 96.2212 216.951 95.7172 216.351 96.1973C215.871 96.0291 215.655 96.4852 215.199 96.3892C214.719 96.9413 213.975 96.8691 213.231 96.8691C213.135 96.7492 212.919 96.6051 213.111 96.4611C213.616 96.0534 214.455 96.4611 214.863 95.7891C215.295 95.1893 216.903 96.3172 216.495 94.9732C215.631 94.8292 214.527 94.4215 213.711 94.9732C213.231 94.9974 212.607 94.7093 212.223 95.0935C211.792 94.7573 211.023 95.4533 210.807 94.7093C210.543 94.0855 211.216 94.0855 211.479 93.8214C212.055 94.1574 212.535 93.7735 213.111 93.8934C213.231 93.7976 213.255 93.6773 213.231 93.5574C212.247 92.7894 210.856 93.2695 209.776 93.1492C209.824 92.5977 208.959 92.8856 209.176 92.3337C209.512 92.3096 209.896 92.0217 210.184 92.3337C210.807 92.2376 211.288 92.4776 211.887 92.4056C212.343 92.6454 212.727 92.4536 213.183 92.7414C214.359 92.3337 213.135 93.7254 214.191 93.6055C215.079 93.3417 215.727 93.8214 216.639 93.8934C216.735 93.4856 217.167 93.7976 217.431 93.7495C217.239 93.4856 217.863 92.7174 217.311 92.8613C217.071 92.9333 216.951 93.2936 216.687 93.2695C216.567 93.1015 216.663 92.8377 216.423 92.7414C216.159 92.7174 216.183 92.9814 215.943 93.0774C215.679 93.1015 215.511 92.8856 215.271 92.8613C214.719 92.2136 216.375 92.2376 215.415 91.7098C215.415 91.0376 213.903 91.7338 214.263 90.6298C214.527 90.0777 215.631 90.9417 215.199 89.8858C214.647 89.1178 213.807 89.6699 213.039 89.4059C212.895 89.0699 212.223 89.2619 212.031 88.95C211.792 88.5178 211.479 88.9259 211.216 88.5899C210.856 88.95 210.399 88.4939 210.064 88.5899C209.56 87.942 208.432 88.5178 207.879 87.846C207.064 87.3901 206.224 87.63 205.312 87.3901C205.216 87.126 204.832 86.9821 204.976 86.6459C205.24 86.4542 205.696 86.6701 206.056 86.694C206.68 86.8863 207.4 86.5501 207.879 87.2461C208.864 87.4141 209.944 87.366 210.807 87.846C211.647 87.1262 212.247 88.6378 213.231 88.3979C213.591 88.6378 214.095 88.4939 214.527 88.5418C214.647 88.4219 214.575 88.206 214.599 88.0619C213.975 87.27 212.775 87.27 211.959 86.6461C211.335 86.5739 210.735 86.5262 210.256 86.1663C209.871 85.9743 209.392 85.9743 208.983 85.8783C208.648 85.4701 208 86.1661 207.879 85.5421C207.232 85.5902 206.848 85.3981 206.392 84.942C205.912 84.8462 205.504 84.606 204.976 84.606C204.688 84.75 204.352 84.7263 204.016 84.7983C204.016 84.606 203.92 84.4623 203.752 84.3422C202.696 84.3422 203.08 83.1421 202.528 82.6385C202.72 82.2063 202.912 82.6385 203.152 82.6385C203.44 83.0226 204.136 82.6864 204.424 83.1904C204.712 83.1904 204.856 83.5742 205.12 83.6459C205.696 83.9342 206.416 83.9342 206.944 84.3901C207.688 84.5583 208.383 84.7742 208.983 85.278C209.343 84.7742 209.752 85.3741 210.184 85.278C210.951 85.7101 211.911 85.7582 212.559 86.286C212.919 86.118 213.831 86.6701 213.783 86.0942C213.591 85.9021 213.663 85.3981 213.231 85.4941C212.751 84.6782 211.6 85.182 211.288 84.2704C210.663 84.4865 210.256 83.7662 209.584 83.9342C209.392 83.6461 209.008 83.8863 208.767 83.7181C208.264 82.9024 207.208 83.2863 206.8 82.3745C206.008 82.5906 205.72 81.3905 204.976 82.0864C204.424 81.9425 203.968 81.5343 203.272 81.6782C203.008 81.8705 203.008 82.3502 202.6 82.3025C202.408 82.2063 202.456 81.7983 202.12 81.8224C202.048 81.0545 201.28 80.7181 200.92 80.1187C200.992 79.9746 201.16 80.0465 201.256 79.9266C201.856 80.0706 203.008 79.5906 203.344 80.3344C203.92 80.5026 204.28 80.9824 204.904 80.8146C205.288 81.0782 205.84 81.1025 206.2 81.2705C206.728 81.7025 207.28 81.5345 207.832 81.9665C208.024 81.8943 208.288 81.7265 208.504 81.8943C208.768 82.3025 209.248 82.1822 209.512 82.5664C210.064 82.8065 210.688 82.8544 211.144 83.3103C211.624 83.1904 211.815 83.7662 212.295 83.862C212.823 83.8863 213.207 84.4144 213.783 84.1265C213.231 83.5984 212.655 82.6626 211.624 82.8302C211.288 82.7584 211.455 82.2063 211 82.3025C210.591 82.0625 210.112 81.2464 209.512 81.3426C208.144 81.8224 207.807 79.6626 206.392 80.2627C205.744 79.7825 205.336 79.0387 204.376 79.0387C203.848 78.0548 202.48 78.8705 202.12 77.8146C201.256 77.9112 201.376 76.9509 200.632 76.735C200.68 76.2791 200.008 76.3028 200.152 75.7988C199.984 75.7032 200.032 75.535 200.032 75.3908C200.2 75.319 200.296 75.2228 200.512 75.319C200.752 75.6069 201.496 74.8389 201.52 75.5829C201.856 75.6789 202.24 75.895 202.336 76.2789C202.84 76.375 203.248 76.9269 203.752 76.807C204.04 76.9028 204.424 76.9028 204.712 76.807C204.088 76.3267 203.464 75.5588 202.672 75.3908C202.456 75.2711 202.048 75.0787 202.073 74.9113C201.76 74.551 201.088 74.4071 200.969 73.9031C200.296 73.3271 199.984 72.4155 199.217 71.8632C199.36 71.5033 198.616 70.9991 199.36 70.9033C199.672 70.9516 199.865 70.8552 200.104 70.9033C199.408 70.3993 199.336 69.5595 198.616 69.2957C198.232 69.1275 198.496 68.5034 198.136 68.3354C198.16 68.1435 198.016 67.5918 198.472 67.5918C198.929 67.7837 199.649 67.5918 199.816 68.1435Z" fill="#1F4FA2"/>
<path d="M209.512 90.1505C209.536 90.2946 209.512 90.4147 209.368 90.4867C208.672 90.7026 208.072 89.7906 207.472 90.4867C207.184 90.4625 206.944 90.3185 206.728 90.1026C206.56 89.3348 207.28 89.8867 207.616 89.6224C208.216 89.5505 208.864 89.3584 209.176 90.0306C209.32 90.0064 209.344 90.2465 209.512 90.1505" fill="#1F4FA2"/>
<path d="M213.375 90.63C213.567 90.87 213.279 91.0619 213.111 91.2537C212.752 91.0621 212.103 91.6138 211.888 91.0378C211.648 91.2778 211.504 90.87 211.288 90.8939C210.927 90.8939 210.544 90.942 210.256 90.774C210.136 90.7259 210.208 90.4861 210.184 90.366C210.735 90.294 211.36 90.4619 211.96 90.4861C212.103 90.342 212.103 90.03 212.439 90.1499C212.68 90.4378 212.968 90.63 213.375 90.63Z" fill="#1F4FA2"/>
<path d="M249.013 114.292C248.701 114.292 248.533 114.004 248.413 113.812C248.581 113.236 248.629 114.075 248.941 113.932C248.917 114.075 249.229 114.148 249.013 114.292Z" fill="#1F4FA2"/>
<path d="M237.157 120.387C236.869 120.075 236.701 120.675 236.413 120.387C236.653 120.004 237.445 120.34 237.421 119.691C237.469 119.98 237.397 120.219 237.157 120.387Z" fill="#1F4FA2"/>
<path d="M236.149 121.324C235.957 121.3 235.957 120.964 235.861 120.796C236.005 120.796 236.125 120.772 236.221 120.652C236.197 120.892 236.533 121.18 236.149 121.324Z" fill="#1F4FA2"/>
<path d="M231.285 223.033C230.47 223.033 230.116 223.652 229.965 224.165L227.648 231.52L228.187 231.708L231.958 225.323C232.17 224.931 232.416 224.54 232.416 224.057C232.416 223.333 231.768 223.033 231.285 223.033H231.285ZM355.161 223.033C354.316 223.033 353.626 223.724 353.626 224.569C353.626 225.414 354.316 226.105 355.161 226.105C356.006 226.105 356.697 225.414 356.697 224.569C356.697 223.724 356.006 223.033 355.161 223.033ZM183.275 223.41C184.452 226.609 188.799 240.947 189.795 244.236C190.157 244.145 190.484 244.101 190.846 244.101C191.208 244.101 191.534 244.145 191.897 244.236C193.767 238.593 196.831 229.716 197.797 226.94H197.851C199.842 232.914 201.65 238.593 203.401 244.236C204.071 244.057 204.777 244.057 205.448 244.236C206.504 241.037 211.492 226.246 212.668 223.41C212.307 223.501 211.98 223.572 211.618 223.572C211.256 223.572 210.929 223.501 210.567 223.41C209.993 226.035 206.057 238.587 205.152 241.273H205.098C204.042 238.134 200.238 226.669 199.332 223.41C199 223.501 198.668 223.572 198.336 223.572C198.004 223.572 197.671 223.501 197.339 223.41C196.584 226.518 192.66 237.953 191.573 241.273H191.519C189.105 233.639 187.831 229.536 186.293 223.41C185.779 223.501 185.297 223.572 184.784 223.572C184.271 223.572 183.788 223.501 183.276 223.41H183.275ZM219 229.526C214.564 229.526 212.103 232.558 212.103 237.447C212.103 241.46 215.086 244.532 219.431 244.532C221.301 244.532 223.262 243.666 224.469 242.701L224.657 241.219L224.496 241.138C223.439 242.345 221.569 243.266 219.97 243.266C216.62 243.266 214.743 240.828 214.743 237.689C214.743 237.418 214.767 237.156 214.797 236.854C216.124 236.824 217.402 236.746 218.73 236.746C220.873 236.746 223.024 236.824 225.196 236.854C225.227 236.462 225.25 236.061 225.25 235.669C225.25 232.32 223.224 229.526 219 229.526ZM238.828 229.526C237.44 229.526 235.988 230.613 234.841 232.786L234.787 232.732C234.787 231.978 234.798 231.271 234.949 229.822C234.556 229.913 234.129 229.957 233.737 229.957C233.315 229.957 232.922 229.913 232.47 229.822C232.591 232.418 232.578 234.504 232.578 236.073V237.043C232.578 240.422 232.591 242.757 232.47 244.236C232.922 244.145 233.315 244.101 233.737 244.101C234.129 244.101 234.556 244.145 234.949 244.236C234.828 242.848 234.814 241.243 234.814 235.992C234.814 233.639 235.955 231.816 237.886 231.816C238.489 231.816 239.157 232.06 239.367 232.301L239.583 232.14C239.583 231.324 239.587 230.171 239.798 229.688C239.406 229.537 239.19 229.526 238.828 229.526H238.828ZM248.177 229.526C243.742 229.526 241.28 232.558 241.28 237.447C241.28 241.46 244.263 244.532 248.608 244.532C250.479 244.532 252.439 243.666 253.646 242.701L253.808 241.219L253.673 241.138C252.617 242.345 250.746 243.266 249.147 243.266C245.797 243.266 243.92 240.828 243.92 237.689C243.92 237.418 243.918 237.156 243.947 236.854C245.275 236.824 246.58 236.746 247.908 236.746C250.05 236.746 252.201 236.824 254.373 236.854C254.404 236.462 254.428 236.061 254.428 235.669C254.428 232.32 252.402 229.526 248.177 229.526ZM285.706 229.526C282.207 229.526 278.378 231.551 278.378 237.043C278.378 242.534 282.207 244.532 285.706 244.532C289.207 244.532 293.034 242.534 293.034 237.043C293.034 231.551 289.207 229.526 285.706 229.526ZM318.332 229.526C316.944 229.526 315.491 230.613 314.345 232.786L314.291 232.732C314.291 231.978 314.275 231.271 314.426 229.822C314.037 229.912 313.639 229.957 313.24 229.957C312.818 229.957 312.4 229.913 311.947 229.822C312.068 232.418 312.082 234.504 312.082 236.073V237.043C312.082 240.422 312.068 242.757 311.947 244.236C312.4 244.145 312.818 244.101 313.24 244.101C313.633 244.101 314.033 244.145 314.426 244.236C314.305 242.848 314.318 241.243 314.318 235.992C314.318 233.639 315.458 231.816 317.389 231.816C317.993 231.816 318.66 232.06 318.871 232.301L319.087 232.14C319.087 231.324 319.091 230.171 319.302 229.688C318.91 229.537 318.694 229.526 318.332 229.526H318.332ZM367.797 229.526C365.624 229.526 364.09 230.501 362.974 232.22H362.893C362.893 231.406 362.94 230.637 363.001 229.822C362.548 229.913 362.09 229.957 361.789 229.957C361.336 229.957 360.885 229.912 360.442 229.822C360.623 231.543 360.684 233.643 360.684 235.453V238.605C360.684 240.416 360.623 242.516 360.442 244.236C360.885 244.146 361.336 244.101 361.789 244.101C362.241 244.101 362.692 244.146 363.136 244.236C362.955 242.516 362.893 240.416 362.893 238.605V236.046C362.893 232.908 364.182 231.089 366.988 231.089C368.98 231.089 370.275 232.712 370.275 235.669V237.501C370.275 239.824 370.12 242.033 370.06 244.236C370.482 244.145 370.876 244.101 371.299 244.101C371.721 244.101 372.113 244.145 372.565 244.236C372.505 242.939 372.511 241.684 372.511 240.357C372.511 238.304 372.619 236.5 372.619 234.78C372.619 230.616 370.029 229.526 367.797 229.526ZM381.887 229.526C378.748 229.526 376.121 231.08 376.121 234.429C376.121 236.632 377.245 238.087 379.085 238.902V238.956C378.09 239.136 376.93 240.134 376.93 241.461C376.93 242.638 377.605 243.524 378.842 243.886V243.94C377.244 244.423 375.61 245.754 375.61 247.927C375.61 250.613 378.051 252.265 381.914 252.265C386.983 252.265 389.053 248.925 389.053 246.149C389.053 244.006 387.589 242.359 383.907 242.269C382.791 242.239 381.71 242.219 380.594 242.188C379.236 242.159 378.816 241.709 378.816 240.653C378.816 239.868 379.546 239.252 380.27 239.252C380.844 239.252 381.398 239.333 381.941 239.333C385.351 239.333 387.545 237.5 387.545 234.483C387.545 232.975 386.708 231.349 385.47 230.685L385.524 230.631C386.61 230.661 387.745 230.783 388.892 230.873C388.862 230.662 388.811 230.465 388.811 230.253C388.811 230.042 388.862 229.818 388.892 229.607C388.499 229.697 387.617 229.769 386.44 229.769C386.018 229.769 385.244 229.694 384.339 229.634C383.252 229.574 382.642 229.526 381.887 229.526ZM395.492 229.526C392.658 229.748 391.047 231.618 391.047 234.079C391.047 239.179 398.186 236.965 398.186 240.707C398.186 242.487 396.758 243.428 395.25 243.428C393.56 243.428 392.251 242.169 391.828 241.353H391.478C391.478 241.957 391.154 243.023 390.912 243.536C391.757 244.019 392.951 244.532 394.792 244.532C398.141 244.532 400.234 242.057 400.234 239.764C400.234 234.665 393.121 237.086 393.121 233.163C393.121 231.383 394.504 230.631 395.681 230.631C397.039 230.631 398.02 231.551 398.321 232.517H398.698C398.759 232.064 399.094 230.934 399.426 230.361C398.49 230.06 397.536 229.526 396.058 229.526C395.858 229.526 395.681 229.511 395.492 229.526ZM264.342 229.822C265.187 231.723 268.989 240.643 270.377 244.263C269.26 246.889 267.935 249.558 266.335 252.184C266.667 252.093 267.027 252.022 267.359 252.022C267.691 252.022 268.051 252.093 268.383 252.184C269.65 248.08 277.022 232.026 278.109 229.822C277.784 229.912 277.449 229.957 277.112 229.957C276.775 229.957 276.44 229.912 276.115 229.822C274.908 233.625 273.276 237.938 271.616 241.407C269.956 237.394 268.354 233.625 267.117 229.823C266.664 229.912 266.204 229.957 265.743 229.957C265.29 229.957 264.794 229.913 264.342 229.822ZM295.809 229.822C295.84 231.512 295.89 233.2 295.89 234.618C295.89 236.096 295.782 237.49 295.782 239.602C295.782 242.74 297.683 244.532 300.82 244.532C302.722 244.532 304.509 243.52 305.535 241.65H305.589C305.589 242.494 305.595 243.361 305.535 244.236C305.927 244.145 306.328 244.101 306.721 244.101C307.113 244.101 307.487 244.145 307.879 244.236C307.788 242.546 307.771 240.763 307.771 238.982C307.771 235.785 307.806 232.96 307.987 229.822C307.594 229.913 307.2 229.957 306.748 229.957C306.322 229.959 305.897 229.914 305.481 229.822C305.542 231.271 305.535 233.15 305.535 234.78C305.535 239.517 305.519 239.733 304.916 241.03C304.402 242.116 303.238 242.97 301.548 242.97C300.371 242.97 299.535 242.499 298.961 241.865C298.449 241.292 298.018 240.283 298.018 238.201C298.018 235.244 298.134 232.176 298.315 229.822C297.908 229.91 297.492 229.956 297.075 229.957C296.683 229.957 296.232 229.913 295.809 229.822ZM328.624 229.822C330.615 234.621 332.97 241.067 333.905 244.236C334.176 244.176 334.495 244.101 334.766 244.101C335.038 244.101 335.33 244.176 335.602 244.236C336.718 240.585 338.594 235.469 339.589 233.055C341.189 236.978 342.415 240.585 343.442 244.236C343.653 244.176 343.951 244.101 344.223 244.101C344.495 244.101 344.789 244.176 345.031 244.236C346.751 239.438 348.749 234.65 351.012 229.822C350.741 229.913 350.425 229.957 350.123 229.957C349.791 229.957 349.485 229.913 349.153 229.822C347.826 233.625 345.895 238.785 344.87 241.38C343.421 237.367 342.04 233.625 341.044 229.822C340.742 229.913 340.483 229.957 340.182 229.957C339.88 229.957 339.594 229.913 339.293 229.822C338.176 233.594 336.241 239.087 335.305 241.38C333.736 237.367 332.479 233.594 331.453 229.822C331 229.913 330.504 229.957 330.052 229.957C329.573 229.957 329.095 229.912 328.624 229.822ZM353.787 229.822C353.968 231.543 354.03 233.643 354.03 235.453V238.605C354.03 240.416 353.968 242.516 353.787 244.236C354.24 244.146 354.7 244.101 355.161 244.101C355.614 244.101 356.056 244.145 356.508 244.236C356.327 242.516 356.266 240.416 356.266 238.605V235.453C356.266 233.643 356.327 231.543 356.508 229.822C356.065 229.912 355.614 229.957 355.161 229.957C354.7 229.957 354.24 229.912 353.787 229.822ZM381.914 230.388C383.875 230.388 385.201 231.82 385.201 234.295C385.201 236.527 384.18 238.551 381.887 238.551C379.564 238.551 378.465 236.904 378.465 234.429C378.465 231.986 379.741 230.388 381.914 230.388V230.388ZM219.08 230.469C222.218 230.469 222.771 233.553 222.771 235.696C221.504 235.726 220.085 235.803 218.757 235.803C217.49 235.803 216.088 235.726 214.851 235.696C215.001 233.523 216.123 230.469 219.08 230.469L219.08 230.469ZM248.231 230.469C251.369 230.469 251.949 233.553 251.949 235.696C250.682 235.726 249.262 235.803 247.935 235.803C246.668 235.803 245.239 235.726 244.001 235.696C244.152 233.523 245.274 230.469 248.231 230.469L248.231 230.469ZM285.706 230.469C289.267 230.469 290.394 233.663 290.394 237.043C290.394 240.422 289.267 243.589 285.706 243.589C282.146 243.589 281.046 240.422 281.046 237.043C281.046 233.663 282.146 230.469 285.706 230.469V230.469ZM404.41 241.003C403.474 241.003 402.713 241.792 402.713 242.727C402.713 243.662 403.474 244.452 404.41 244.452C405.345 244.452 406.134 243.662 406.134 242.727C406.134 241.792 405.345 241.003 404.41 241.003ZM382.264 244.101C385.462 244.101 386.844 245.089 386.844 247.442C386.844 250.158 384.412 251.402 381.968 251.402C379.463 251.402 377.549 250.35 377.549 247.604C377.549 245.039 379.307 244.101 382.264 244.101H382.264Z" fill="#1F4FA2"/>
</svg>
