<svg width="480" height="320" viewBox="0 0 480 320" fill="none" xmlns="http://www.w3.org/2000/svg">
<path d="M386.358 128.962C411.187 142.538 423.84 159.276 411.869 174.508C390.724 201.421 296.071 213.069 232.097 202.519C215.796 199.835 200.335 195.789 186.688 190.815C204.794 200.737 234.075 208.008 269.88 210.186C339.638 214.429 407.694 197.725 421.905 172.888C431.02 156.956 416.64 140.129 386.358 128.962ZM335.342 109.916C335.118 109.926 334.892 109.925 334.668 109.912C332.373 109.736 331.608 110.788 332.448 111.691C333.417 112.736 335.083 113.39 338.228 114.566C341.359 115.734 369.892 124.241 369.892 124.241C374.529 125.517 380.968 127.228 382.291 126.823C382.528 126.748 382.621 126.615 382.488 126.389C381.742 125.159 378.426 123.779 376.194 122.674C375.345 122.251 373.775 121.51 371.842 120.613C371.407 120.469 370.977 120.329 370.555 120.187L367.071 118.619C367.366 118.685 367.642 118.745 367.921 118.809C363.836 116.942 359.202 114.876 355.967 113.521C350.079 111.057 346.794 110.016 342.365 109.338C340.111 108.994 338.75 109.198 337.654 109.454L342.542 111.168L335.342 109.915" fill="#ED1B2D"/>
<path d="M370.556 120.185C370.979 120.326 371.408 120.468 371.843 120.612C375.817 121.914 380.108 123.288 383.409 125.288L393.433 120.057C393.433 120.057 390.058 119.001 388.299 118.812C385.808 118.553 384.272 119.2 380.752 119.796C376.324 120.545 373.767 120.099 367.922 118.808C367.641 118.745 367.366 118.686 367.071 118.619L370.556 120.185Z" fill="#ED1B2D"/>
<path d="M93.0927 172.812L90.4064 173.758C85.4901 175.501 80.159 176.582 76.2664 176.582C67.8807 176.582 64.894 172.526 69.0745 166.734C73.2201 160.983 82.0679 156.974 90.691 156.974C95.5293 156.974 99.9188 158.341 101.931 160.464L107.265 153.062C106.472 152.451 106.073 152.261 104.76 151.792C101.591 150.613 99.0303 150.238 94.8357 150.238C89.8199 150.238 84.9052 150.989 80.1598 152.501C71.0639 155.372 62.9055 160.793 58.5566 166.825C51.5978 176.49 56.3614 183.229 70.1779 183.229C76.0209 183.229 81.3644 182.286 88.3083 180.026L93.6452 172.626L93.0927 172.813M127.539 170.97H115.019L130.037 158.401L127.54 170.97M134.116 150.592H129.646L89.8448 183.062H100.58L108.254 176.637H126.439L125.145 183.062H136.065L139.591 161.56L141.391 150.591H134.116V150.592ZM164.817 163.923L170.168 156.497H175.293C179.054 156.497 180.072 157.733 178.288 160.213C176.782 162.308 173.866 163.78 171.15 163.83L169.858 163.875L169.053 163.923H164.817ZM176.546 183.062C176.954 180.028 177.397 177.004 177.796 173.968C178.323 170.59 177.865 168.733 176.341 167.876C178.61 167.21 179.506 166.878 181.093 166.163C184.432 164.587 187.335 162.309 189.05 159.924C191.243 156.881 191.321 153.879 189.299 152.212C187.6 150.927 185.696 150.592 179.792 150.592H164.173L140.769 183.063H151.023L156.121 175.992L160.565 169.828H162.055C163.842 169.828 164.082 169.828 164.839 170.017C166.436 170.451 167.104 172.257 166.631 175.069C166.346 177.595 165.607 180.548 165.395 183.063H176.545L176.546 183.062ZM216.209 165.648L211.895 171.634H217.684L214.968 175.405C212.066 176.159 209.427 176.534 206.949 176.534C199.215 176.534 196.516 172.576 200.525 167.015C205.011 160.792 213.463 156.93 222.497 156.93C227.102 156.93 231.502 157.873 234.905 159.613L235.386 159.852L240.411 152.875C238.544 152.027 237.801 151.743 236.101 151.323C233.422 150.613 229.979 150.236 226.49 150.236C211.968 150.236 197.379 156.882 190.281 166.733C183.316 176.39 188.31 183.229 202.299 183.229C209.091 183.229 216.715 181.578 222.666 178.89L232.212 165.647H216.209M273.829 166.967C269.747 172.625 261.48 176.72 254.159 176.72C246.544 176.72 244.264 172.765 248.471 166.92C252.819 160.888 260.526 157.072 268.204 157.072C276.004 157.072 278.234 160.937 273.829 166.967ZM284.353 166.782C291.077 157.447 286.178 150.238 273.192 150.238C260.14 150.238 244.912 157.447 238.184 166.782C231.527 176.022 236.366 183.229 249.237 183.229C262.402 183.229 277.628 176.115 284.353 166.782ZM347.372 176.899H326.003L331.733 168.855H350.518L354.434 163.367H335.639L340.29 156.836H360.742L364.656 151.349H335.827L313.715 182.392H343.462L347.372 176.899Z" fill="black"/>
<path d="M347.372 176.899H326.003L331.732 168.856H350.517L354.434 163.367H335.639L340.29 156.837H360.742L364.656 151.35H335.827L313.715 182.393H343.462L347.372 176.899Z" stroke="black" stroke-width="1.58457"/>
<path d="M388.305 156.837H399.958L403.866 151.35H372.515L368.604 156.837H379.605L361.405 182.393H370.11L388.305 156.837Z" fill="black"/>
<path d="M388.305 156.837H399.958L403.866 151.35H372.515L368.604 156.837H379.605L361.405 182.393H370.11L388.305 156.837Z" stroke="black" stroke-width="1.58457"/>
<path d="M331.185 132.185L330.845 132.359L330.402 132.548L329.928 132.457L329.052 131.638L326.68 136.59L326.612 136.741L326.506 136.862L326.402 136.944L326.258 137.01L326.125 137.052L325.951 137.06L325.846 137.043L325.772 136.982L325.704 136.884L325.072 134.626C323.015 136.553 323.467 135.966 320.527 135.61L319.641 138.22L319.451 138.489L319.053 138.758L318.876 138.855L317.457 139.219L320.303 142.541L320.327 142.81L320.199 142.995L319.938 143.366L318.547 144.538L323.443 143.806H323.858L324.011 143.899L324.061 143.985L322.727 145.577H323.901L324.796 143.984L324.968 143.899L325.255 143.806H325.665L329.54 144.538L329.783 143.366L330.176 142.81L330.585 142.541L338.11 139.219L337.192 138.855L337.149 138.758L337.138 138.489L337.327 138.22L340.107 135.61L337.313 135.975H336.999L336.75 135.879L336.685 135.516L336.946 134.626L333.135 136.884L332.934 136.982L332.775 137.043L332.636 137.06L332.482 137.052L332.397 137.01L332.353 136.944L332.374 136.862L332.423 136.741L332.573 136.59L337.161 131.638L335.137 132.457L334.534 132.548L334.354 132.359L334.261 132.185L334.931 129.117L331.185 132.186" fill="#ED1B2D"/>
<path d="M315.511 151.86L298.565 175.964C297.024 178.152 295.041 179.759 292.613 180.787C290.181 181.819 287.065 182.332 283.252 182.332C278.855 182.332 275.151 181.881 272.129 180.975L267.699 184.075C271.227 185.168 275.609 185.719 280.859 185.719C286.88 185.719 292.017 184.9 296.281 183.264C300.548 181.629 303.754 179.282 305.908 176.224L323.031 151.859H315.51L315.511 151.86Z" fill="black"/>
<path d="M315.511 151.86L298.565 175.964C297.024 178.152 295.041 179.759 292.613 180.787C290.181 181.819 287.065 182.332 283.252 182.332C278.855 182.332 275.151 181.881 272.129 180.975L267.699 184.075C271.227 185.168 275.609 185.719 280.859 185.719C286.88 185.719 292.017 184.9 296.281 183.264C300.548 181.629 303.754 179.282 305.908 176.224L323.031 151.859H315.51L315.511 151.86Z" stroke="black" stroke-width="2.37685"/>
</svg>
