<svg width="480" height="320" viewBox="0 0 480 320" fill="none" xmlns="http://www.w3.org/2000/svg">
<path d="M189.397 179.904L171.967 169.832L172.288 148.51L172.609 127.188L187.358 118.722L202.108 110.257L202.698 92.2292L203.288 74.2017L221.693 63.7684L240.098 53.334L258.517 63.654L276.935 73.9751L276.986 91.887L277.036 109.801L292.965 118.793L308.895 127.784V168.802L305.65 171.046C301.056 174.224 272.481 190.202 271.392 190.202C270.895 190.202 263.915 186.485 255.88 181.942C247.846 177.399 240.712 173.682 240.025 173.682C239.338 173.682 232.255 177.399 224.284 181.942C216.312 186.485 209.124 190.151 208.31 190.089C207.496 190.026 198.985 185.443 189.397 179.904ZM202.686 162.768L202.674 151.853L193.874 146.838C189.035 144.079 184.526 141.823 183.856 141.823C183.11 141.823 182.638 145.906 182.638 152.373V162.923L192.373 168.28C197.728 171.228 202.241 173.649 202.403 173.661C202.566 173.673 202.693 168.77 202.686 162.768ZM225.173 168.269L234.557 162.856V140.595L228.362 144.229C224.956 146.229 220.442 148.727 218.332 149.782L214.498 151.7V162.691C214.498 168.736 214.554 174.023 214.737 173.719C214.981 173.313 220.012 171.247 225.173 168.269ZM265.236 162.707V151.731L256.528 146.776C251.738 144.051 247.491 141.822 247.088 141.822C246.687 141.822 246.359 146.733 246.36 152.737L246.364 163.651L255.505 168.638C260.533 171.38 264.779 173.638 264.941 173.653C265.104 173.668 265.236 168.742 265.236 162.706V162.707ZM287.711 168.269L297.095 162.856V140.595L290.9 144.229C287.494 146.229 282.98 148.727 280.871 149.782L277.036 151.7V162.691C277.036 168.736 277.326 173.682 277.681 173.682C278.035 173.682 282.55 171.247 287.711 168.269ZM218.037 136.76C222.905 133.988 226.724 131.206 226.526 130.577C226.327 129.948 222.243 127.308 217.451 124.713L208.737 119.993L201.293 124.023C188.089 131.171 188.272 130.281 198.751 136.387C203.842 139.354 208.273 141.784 208.598 141.79C208.922 141.795 213.17 139.532 218.037 136.76ZM280.107 137.036C284.877 134.404 289.063 131.789 289.411 131.227C290.118 130.084 273.541 120.553 270.992 120.637C270.098 120.666 265.449 122.997 260.659 125.817L251.951 130.946L261.249 136.362C266.363 139.343 270.747 141.79 270.991 141.802C271.235 141.814 275.338 139.669 280.107 137.036ZM234.557 109.592V98.6011L230.722 96.6836C228.613 95.6287 224.1 93.1307 220.692 91.1307L214.498 87.4964V109.752L223.642 115.111C228.672 118.059 233.186 120.495 233.672 120.527C234.159 120.558 234.557 115.637 234.557 109.592ZM256.681 114.801L265.236 109.86V87.7182L255.796 93.067L246.357 98.4146V109.569C246.357 115.702 246.755 120.501 247.242 120.231C247.729 119.962 251.977 117.517 256.681 114.8V114.801ZM250.298 82.9925C260.707 77.1752 260.92 78.1133 247.537 70.7715L239.867 66.5638L230.165 72.1332L220.463 77.7027L230.165 83.1954C235.501 86.2161 240.144 88.5643 240.483 88.4109C240.821 88.2598 245.238 85.8208 250.299 82.9925H250.298Z" fill="#D40000"/>
<path d="M122.633 224.56L112.565 226.345C112.227 224.37 111.456 222.881 110.259 221.881C109.059 220.882 107.502 220.382 105.588 220.382C103.044 220.382 101.015 221.244 99.5009 222.97C97.987 224.697 97.2294 227.584 97.2294 231.631C97.2294 236.131 97.9988 239.309 99.5375 241.166C101.076 243.024 103.141 243.951 105.733 243.951C107.672 243.951 109.259 243.41 110.495 242.327C111.73 241.243 112.602 239.38 113.111 236.738L123.142 238.416C122.1 242.94 120.101 246.357 117.145 248.667C114.189 250.976 110.228 252.13 105.261 252.13C99.6153 252.13 95.1161 250.38 91.7603 246.88C88.4045 243.38 86.7266 238.535 86.7266 232.345C86.7266 226.083 88.4104 221.209 91.778 217.721C95.1456 214.233 99.7003 212.489 105.442 212.489C110.143 212.489 113.88 213.482 116.654 215.471C119.428 217.459 121.421 220.489 122.633 224.56ZM138.042 224.917L128.775 223.274C129.817 219.608 131.609 216.894 134.153 215.132C136.697 213.37 140.478 212.489 145.492 212.489C150.047 212.489 153.438 213.019 155.667 214.078C157.897 215.138 159.466 216.483 160.374 218.114C161.283 219.744 161.737 222.739 161.737 227.096L161.627 238.809C161.627 242.143 161.791 244.6 162.118 246.184C162.445 247.767 163.057 249.464 163.954 251.273H153.85C153.585 250.606 153.257 249.619 152.87 248.309C152.762 247.912 152.641 247.519 152.506 247.13C150.761 248.798 148.895 250.047 146.91 250.88C144.923 251.713 142.803 252.131 140.55 252.131C136.575 252.131 133.445 251.07 131.155 248.952C128.866 246.833 127.721 244.154 127.721 240.917C127.721 238.774 128.241 236.863 129.283 235.184C130.325 233.506 131.785 232.22 133.662 231.327C135.541 230.435 138.247 229.655 141.785 228.988C146.558 228.107 149.865 227.286 151.706 226.524V225.524C151.706 223.596 151.222 222.22 150.252 221.399C149.284 220.577 147.455 220.167 144.766 220.167C142.948 220.167 141.53 220.518 140.513 221.221C139.496 221.923 138.672 223.156 138.042 224.917ZM151.706 233.059C150.398 233.487 148.327 234 145.492 234.595C142.657 235.19 140.803 235.773 139.931 236.345C138.598 237.274 137.932 238.452 137.932 239.881C137.932 241.285 138.466 242.5 139.531 243.523C140.598 244.547 141.955 245.059 143.602 245.059C145.443 245.059 147.201 244.464 148.872 243.273C150.107 242.369 150.919 241.261 151.306 239.953C151.573 239.095 151.707 237.464 151.707 235.059L151.706 233.059ZM181.616 251.273H171.405V213.345H180.888V218.738C182.512 216.192 183.971 214.514 185.267 213.703C186.564 212.893 188.035 212.489 189.683 212.488C192.008 212.489 194.25 213.12 196.406 214.381L193.243 223.131C191.524 222.036 189.925 221.488 188.447 221.488C187.018 221.488 185.806 221.875 184.812 222.649C183.82 223.422 183.038 224.821 182.469 226.845C181.899 228.869 181.615 233.108 181.615 239.56L181.616 251.273ZM199.823 253.773L211.489 255.166C211.683 256.499 212.131 257.416 212.834 257.915C213.803 258.63 215.33 258.987 217.413 258.987C220.079 258.987 222.077 258.595 223.409 257.809C224.306 257.285 224.984 256.44 225.445 255.272C225.76 254.44 225.917 252.904 225.917 250.665V245.131C222.864 249.226 219.013 251.273 214.36 251.273C209.175 251.273 205.069 249.118 202.041 244.809C199.666 241.404 198.479 237.167 198.479 232.095C198.479 225.739 200.036 220.882 203.149 217.524C206.262 214.167 210.132 212.489 214.76 212.489C219.533 212.489 223.471 214.548 226.572 218.667V213.345H236.129V247.38C236.129 251.856 235.754 255.201 235.002 257.416C234.252 259.63 233.197 261.369 231.84 262.63C230.484 263.892 228.673 264.879 226.408 265.594C224.142 266.308 221.277 266.666 217.813 266.666C211.271 266.666 206.631 265.564 203.894 263.362C201.156 261.16 199.787 258.368 199.787 254.988C199.787 254.654 199.799 254.249 199.823 253.772V253.773ZM208.945 231.524C208.945 235.548 209.739 238.494 211.326 240.362C212.912 242.232 214.87 243.167 217.196 243.167C219.691 243.167 221.797 242.207 223.519 240.291C225.239 238.375 226.1 235.536 226.1 231.774C226.1 227.845 225.275 224.929 223.628 223.024C221.98 221.119 219.896 220.168 217.377 220.168C214.93 220.168 212.912 221.101 211.326 222.97C209.739 224.839 208.945 227.69 208.945 231.524ZM243.908 231.774C243.908 228.441 244.743 225.214 246.414 222.096C248.086 218.976 250.454 216.596 253.52 214.953C256.584 213.31 260.006 212.489 263.785 212.489C269.625 212.489 274.41 214.352 278.141 218.078C281.872 221.803 283.737 226.512 283.737 232.202C283.737 237.941 281.854 242.696 278.087 246.469C274.319 250.243 269.577 252.13 263.858 252.13C260.321 252.13 256.947 251.345 253.737 249.773C250.527 248.202 248.086 245.898 246.414 242.862C244.743 239.827 243.906 236.131 243.906 231.774H243.908ZM254.374 232.31C254.374 236.072 255.283 238.953 257.1 240.952C258.917 242.952 261.158 243.951 263.822 243.951C266.487 243.951 268.722 242.952 270.528 240.952C272.333 238.952 273.235 236.048 273.235 232.238C273.235 228.523 272.332 225.667 270.528 223.667C268.722 221.667 266.487 220.667 263.822 220.667C261.158 220.667 258.916 221.667 257.098 223.667C255.281 225.667 254.373 228.548 254.373 232.31H254.374ZM291.769 251.273V198.918H301.982V251.273H291.769ZM337.815 251.273V245.595C336.41 247.619 334.562 249.214 332.273 250.38C330.031 251.535 327.544 252.135 325.022 252.13C322.43 252.13 320.104 251.57 318.045 250.452C315.986 249.333 314.496 247.762 313.575 245.738C312.655 243.714 312.195 240.917 312.195 237.345V213.345H322.406V230.774C322.406 236.107 322.594 239.376 322.969 240.577C323.345 241.78 324.03 242.731 325.022 243.435C326.016 244.137 327.276 244.487 328.803 244.487C330.547 244.487 332.109 244.017 333.491 243.077C334.871 242.137 335.815 240.97 336.325 239.577C336.834 238.185 337.088 234.774 337.088 229.346V213.345H347.3V251.273H337.815ZM353.006 251.273L366.925 231.738L353.588 213.345H366.053L372.885 223.774L380.081 213.345H392.074L378.99 231.309L393.274 251.273H380.735L372.885 239.523L364.963 251.273H353.006Z" fill="black"/>
</svg>
