<svg width="480" height="320" viewBox="0 0 480 320" fill="none" xmlns="http://www.w3.org/2000/svg">
<path d="M55.7383 128.49H119.839V184.223H55.7383V128.49Z" stroke="#00A583" stroke-width="1.76581" stroke-miterlimit="3.864"/>
<path d="M79.9487 153.621L91.697 133.277L118.353 179.435H94.8572L79.9487 153.621ZM75.442 147.889L93.6604 179.436H57.2227L75.442 147.889Z" fill="#00A583"/>
<path fill-rule="evenodd" clip-rule="evenodd" d="M174.949 144.37C172.982 142.612 170.962 141.324 168.891 140.508C166.82 139.692 164.604 139.284 162.244 139.284C157.398 139.284 153.536 140.732 150.656 143.629C147.778 146.526 146.338 150.417 146.338 155.301C146.338 160.081 147.674 163.872 150.346 166.677C153.017 169.481 156.663 170.883 161.282 170.883C163.912 170.883 166.356 170.443 168.614 169.564C170.871 168.684 172.963 167.365 174.889 165.606L174.826 175.576C172.757 176.799 170.589 177.711 168.322 178.311C166.055 178.912 163.669 179.212 161.164 179.212C153.919 179.212 147.973 176.962 143.326 172.46C138.678 167.958 136.355 162.24 136.355 155.307C136.355 148.393 138.683 142.691 143.338 138.2C147.994 133.709 153.993 131.463 161.338 131.463C163.8 131.463 166.179 131.722 168.476 132.239C170.772 132.757 173.037 133.553 175.272 134.628L174.949 144.37ZM205.598 162.727C205.598 159.994 204.909 157.829 203.532 156.235C202.154 154.641 200.295 153.844 197.954 153.844C195.551 153.844 193.661 154.636 192.283 156.22C190.905 157.804 190.217 159.973 190.217 162.727C190.217 165.482 190.894 167.625 192.252 169.157C193.609 170.689 195.489 171.455 197.891 171.455C200.336 171.455 202.232 170.689 203.578 169.157C204.925 167.624 205.598 165.481 205.598 162.727ZM213.681 178.004H205.1L205.224 173.627C204.023 175.551 202.579 176.962 200.893 177.862C199.205 178.762 197.151 179.212 194.729 179.212C190.691 179.212 187.436 177.712 184.962 174.712C182.488 171.711 181.251 167.75 181.251 162.826C181.251 157.695 182.467 153.697 184.899 150.83C187.332 147.964 190.712 146.532 195.04 146.532C197.296 146.532 199.278 147.038 200.986 148.05C202.694 149.062 204.128 150.569 205.287 152.572V147.549H213.681V178.004ZM230.571 155.375C231.461 152.417 232.739 150.203 234.404 148.734C236.069 147.266 238.133 146.531 240.596 146.531C241.155 146.531 242.075 146.634 243.359 146.839L243.917 146.932L242.583 156.45C241.937 156.18 241.267 155.972 240.581 155.83C239.881 155.689 239.168 155.62 238.454 155.623C235.765 155.623 233.83 156.312 232.65 157.69C231.471 159.068 230.881 161.373 230.881 164.606V178.003H222.043V147.549H230.757L230.571 155.375ZM256.03 162.727C256.03 165.481 256.708 167.624 258.064 169.157C259.419 170.689 261.308 171.454 263.73 171.454C266.151 171.454 268.04 170.689 269.396 169.157C270.752 167.624 271.43 165.481 271.43 162.726C271.43 159.973 270.742 157.804 269.366 156.219C267.99 154.635 266.09 153.843 263.668 153.843C261.329 153.843 259.471 154.64 258.095 156.235C256.718 157.829 256.03 159.993 256.03 162.727ZM247.966 191.864V147.549H256.432V152.572C257.591 150.547 259.014 149.035 260.7 148.034C262.387 147.032 264.348 146.532 266.582 146.532C270.908 146.532 274.292 147.964 276.734 150.83C279.176 153.696 280.396 157.694 280.396 162.825C280.396 167.77 279.165 171.738 276.703 174.727C274.24 177.717 271.002 179.212 266.987 179.212C264.566 179.212 262.511 178.762 260.825 177.862C259.139 176.963 257.695 175.551 256.495 173.626C256.599 174.392 256.676 175.225 256.728 176.125C256.78 177.024 256.805 178.054 256.805 179.212V191.864H247.966ZM309.595 162.727C309.595 159.994 308.907 157.829 307.529 156.235C306.151 154.641 304.292 153.844 301.951 153.844C299.548 153.844 297.658 154.636 296.281 156.22C294.903 157.804 294.214 159.973 294.214 162.727C294.214 165.482 294.892 167.625 296.249 169.157C297.607 170.689 299.487 171.455 301.89 171.455C304.334 171.455 306.229 170.689 307.576 169.157C308.921 167.625 309.595 165.481 309.595 162.727ZM317.678 178.004H309.097L309.222 173.627C308.021 175.551 306.577 176.962 304.89 177.862C303.203 178.762 301.148 179.212 298.726 179.212C294.688 179.212 291.433 177.712 288.959 174.712C286.485 171.711 285.248 167.75 285.248 162.826C285.248 157.695 286.464 153.697 288.897 150.83C291.329 147.964 294.709 146.532 299.036 146.532C301.292 146.532 303.275 147.038 304.983 148.05C306.691 149.062 308.125 150.569 309.284 152.572V147.549H317.678V178.004ZM322.861 154.479V147.549H327.121V137.44H335.96V147.549H340.22V154.479H335.96V178.004H327.121V154.479H322.861ZM368.15 162.727C368.15 159.994 367.461 157.829 366.083 156.235C364.706 154.64 362.846 153.844 360.506 153.844C358.103 153.844 356.213 154.636 354.836 156.22C353.458 157.804 352.769 159.973 352.769 162.727C352.769 165.482 353.447 167.625 354.804 169.157C356.161 170.689 358.041 171.455 360.444 171.455C362.888 171.455 364.784 170.689 366.131 169.157C367.477 167.624 368.15 165.481 368.15 162.727H368.15ZM376.233 178.004H367.653L367.777 173.627C366.575 175.551 365.132 176.962 363.445 177.862C361.758 178.762 359.703 179.212 357.281 179.212C353.243 179.212 349.988 177.712 347.514 174.712C345.04 171.711 343.803 167.75 343.803 162.826C343.803 157.695 345.019 153.697 347.452 150.83C349.884 147.964 353.265 146.532 357.592 146.532C359.848 146.532 361.831 147.038 363.538 148.05C365.246 149.062 366.681 150.569 367.839 152.572V147.549H376.233V178.004ZM384.149 135.04C384.149 133.628 384.656 132.415 385.67 131.398C386.684 130.381 387.894 129.873 389.301 129.873C390.728 129.873 391.954 130.376 392.978 131.383C394.002 132.389 394.514 133.608 394.514 135.039C394.514 136.471 394.002 137.695 392.978 138.712C391.954 139.728 390.728 140.237 389.301 140.237C387.894 140.237 386.684 139.718 385.67 138.68C384.656 137.643 384.149 136.429 384.149 135.04ZM384.912 178.004V147.549H393.751V178.004H384.912ZM411.27 155.375C412.159 152.417 413.437 150.203 415.102 148.734C416.767 147.266 418.832 146.531 421.295 146.531C421.853 146.531 422.774 146.634 424.057 146.839L424.616 146.932L423.281 156.45C422.635 156.18 421.965 155.972 421.279 155.83C420.579 155.689 419.867 155.62 419.153 155.623C416.463 155.623 414.528 156.312 413.349 157.69C412.169 159.068 411.579 161.373 411.579 164.606V178.003H402.741V147.549H411.456L411.27 155.375Z" fill="#808285"/>
</svg>
