<svg width="480" height="320" viewBox="0 0 480 320" fill="none" xmlns="http://www.w3.org/2000/svg">
<path d="M351.288 126.826L277.961 160.001L351.288 193.175L424.616 160.001L351.288 126.826ZM86.8334 130.013C67.7523 130.013 55.3848 143.5 55.3848 160.419C55.3848 177.338 67.7523 190.825 86.8334 190.825C97.7959 190.825 106.848 186.675 111.741 179.219L107.546 189.599H124.418L128.393 179.137H150.39L154.277 189.599H171.415L168.702 182.887C173.721 188.45 182.242 190.825 191.443 190.825C199.994 190.825 208.443 189.021 213.667 184.171L211.473 189.599H228.346L232.321 179.137H254.317L258.204 189.599H275.342L251.755 131.239H235.059L218.915 171.186C218.854 160.721 209.698 156.815 200.63 154.452C191.442 152.082 182.344 151.265 182.344 146.769C182.344 142.928 186.761 141.783 190.294 141.783C195.329 141.783 199.37 143.5 199.104 148.813H215.536C215.447 135.653 204.163 130.013 191.619 130.013C179.782 130.013 165.912 134.999 165.912 147.75C165.912 158.458 175.365 162.217 184.375 164.588C193.474 166.958 202.485 167.939 202.485 173.088C202.485 177.42 197.361 179.055 192.414 179.055C185.435 179.055 180.842 176.848 180.488 169.982H164.057C164.061 170.514 164.082 171.033 164.116 171.541L147.828 131.239H131.132L115.14 170.809C115.387 169.575 115.554 168.291 115.632 166.958H99.201C98.5826 173.66 94.1656 177.747 86.4801 177.747C77.7251 177.747 74.1438 169.083 74.1438 160.419C74.1438 151.755 77.3559 143.091 86.4801 143.091C93.3706 143.091 98.3176 146.197 99.2011 152.082H115.632C115.19 138.023 100.438 130.013 86.8334 130.013ZM139.348 147.423H139.524L146.503 167.857H132.192L139.348 147.423ZM243.275 147.423H243.452L250.431 167.857H236.119L243.275 147.423Z" fill="#060129"/>
<path fill-rule="evenodd" clip-rule="evenodd" d="M312.513 156.632C312.093 156.632 310.827 156.585 310.669 157.201C310.51 157.817 311.901 158.361 312.637 158.559C313.374 158.756 315.926 159.394 322.155 160.792C326.889 161.854 337.848 164.379 343.932 165.781C344.07 169.217 347.322 171.941 351.289 171.943C355.254 171.939 358.503 169.216 358.642 165.782C364.723 164.38 375.688 161.855 380.423 160.792C386.652 159.394 389.204 158.756 389.941 158.559C390.677 158.361 392.068 157.817 391.909 157.201C391.751 156.585 390.485 156.632 390.066 156.632C389.702 156.632 362.049 160.025 354.95 160.025L347.633 160.025C340.533 160.026 312.876 156.632 312.513 156.632Z" fill="white"/>
</svg>
