<svg width="480" height="320" viewBox="0 0 480 320" fill="none" xmlns="http://www.w3.org/2000/svg">
<path d="M206.238 71.2494C206.256 71.4254 206.316 71.6038 206.339 71.7761C206.379 72.0764 206.406 72.3792 206.447 72.6684V72.6832C206.456 72.8186 206.474 72.9503 206.5 73.077C206.5 73.0894 206.507 73.1004 206.507 73.1189C206.507 73.1226 206.507 73.13 206.515 73.1374C206.515 73.141 206.515 73.1484 206.518 73.1607C206.529 73.2186 206.538 73.2715 206.556 73.333C206.593 73.4487 206.579 73.5361 206.608 73.6617C206.699 74.0063 206.683 74.3817 206.778 74.7201C206.917 75.2235 206.988 75.7847 207.132 76.2832C207.171 76.4272 207.132 76.5749 207.171 76.7287C207.215 76.8875 207.257 77.045 207.292 77.1989C207.331 77.3835 207.305 77.5841 207.349 77.7774C207.395 77.9484 207.455 78.1343 207.503 78.3029C207.556 78.506 207.56 78.7201 207.616 78.9429C207.68 79.1644 207.755 79.4106 207.792 79.6407C207.841 79.898 207.867 80.1946 207.916 80.4654C207.961 80.6869 208.085 80.9626 208.134 81.2124C208.153 81.2912 208.145 81.3749 208.16 81.4574C208.197 81.6395 208.25 81.8192 208.284 81.9841C208.303 82.0641 208.296 82.1355 208.318 82.2254C208.404 82.5454 208.507 82.9577 208.611 83.2814C208.633 83.3749 208.644 83.466 208.666 83.5607C208.734 83.7934 208.805 83.9607 208.825 84.085C208.851 84.1946 208.862 84.325 208.894 84.4383C208.943 84.6143 208.996 84.7669 209.029 84.9244C209.056 85.0414 209.071 85.1534 209.104 85.2777C209.146 85.4278 209.206 85.557 209.262 85.6998C209.364 85.9927 209.382 86.3103 209.483 86.5884C209.54 86.7644 209.619 86.9244 209.683 87.1054C209.732 87.274 209.739 87.4684 209.795 87.6555C209.884 87.9337 209.998 88.2623 210.101 88.5478C210.214 88.8838 210.293 89.2518 210.405 89.573C210.454 89.6937 210.447 89.8229 210.488 89.9657C210.586 90.2832 210.698 90.6364 210.798 90.9614C210.851 91.1312 210.858 91.2998 210.922 91.4598C211.032 91.7281 211.185 91.957 211.286 92.2389C211.372 92.4715 211.395 92.7103 211.486 92.9318C211.598 93.221 211.739 93.5275 211.851 93.8352C211.93 94.0494 211.957 94.266 212.043 94.4678C212.122 94.6377 212.225 94.821 212.3 94.9921C212.357 95.146 212.403 95.2986 212.462 95.4524C212.504 95.5694 212.628 95.7663 212.71 95.9263C212.808 96.1343 212.822 96.3632 212.904 96.5909C213.028 96.9404 213.196 97.2961 213.345 97.6149C213.406 97.7478 213.413 97.861 213.465 98.0001C213.545 98.229 213.702 98.4038 213.796 98.618C213.893 98.821 213.919 99.0401 214.006 99.2358C214.139 99.525 214.239 99.6703 214.239 100.085C214.235 100.12 214.223 100.153 214.186 100.164C214.104 100.195 214.014 100.063 213.968 100.021C213.747 99.8032 213.711 99.5903 213.579 99.2924C213.361 98.8395 213.093 98.4112 212.886 97.9657C212.78 97.7404 212.732 97.4857 212.629 97.2469C212.561 97.0992 212.47 96.954 212.4 96.8124C212.309 96.6057 212.25 96.3817 212.144 96.1946C211.994 95.9226 211.868 95.5952 211.748 95.2912C211.702 95.1681 211.695 95.0574 211.647 94.9466C211.59 94.8309 211.5 94.7189 211.444 94.6057C211.369 94.4161 211.323 94.1835 211.244 93.9903C211.076 93.6174 210.886 93.2346 210.744 92.8457C210.612 92.4887 210.552 92.149 210.416 91.7786C210.364 91.6358 210.293 91.4709 210.251 91.322C210.2 91.1903 210.196 91.0721 210.15 90.9441C210.037 90.6192 209.88 90.2734 209.743 89.9521C209.672 89.802 209.656 89.6518 209.593 89.4881C209.521 89.2887 209.435 89.0672 209.36 88.8666C209.265 88.6106 209.262 88.3054 209.161 88.0272C208.95 87.4463 208.675 86.8284 208.497 86.1995C208.464 86.0678 208.472 85.914 208.43 85.7687C208.332 85.461 208.229 85.114 208.132 84.7878C208.026 84.421 208.037 84.0309 207.925 83.6727C207.779 83.2087 207.615 82.7275 207.472 82.2672C207.427 82.1318 207.441 81.9841 207.401 81.834C207.3 81.477 207.183 81.0647 207.066 80.7361C207.001 80.5712 207.001 80.3915 206.944 80.2352C206.869 80.0543 206.681 80.1183 206.694 80.325C206.709 80.5183 206.777 80.7657 206.792 80.8641C206.817 80.9958 206.817 81.1324 206.844 81.2752C206.902 81.5214 206.985 81.7244 207.052 81.9521C207.128 82.186 207.128 82.4063 207.195 82.6463C207.23 82.7669 207.281 82.9047 207.316 83.0155C207.387 83.2567 207.387 83.5152 207.47 83.7355C207.53 83.9054 207.582 84.117 207.638 84.3017C207.672 84.421 207.664 84.5195 207.695 84.645C207.766 84.8592 207.834 85.0795 207.905 85.2974C207.939 85.429 207.928 85.5374 207.957 85.6469C208.003 85.8266 208.04 86.0014 208.092 86.1663C208.134 86.3201 208.133 86.533 208.186 86.7017C208.283 87.0044 208.393 87.3207 208.496 87.605C208.609 87.9226 208.62 88.2537 208.736 88.5749C208.947 89.1435 209.131 89.8032 209.343 90.3718C209.396 90.5232 209.374 90.6734 209.422 90.8297C209.493 91.0795 209.542 91.322 209.625 91.5681C209.67 91.6826 209.749 91.8057 209.797 91.9115C209.861 92.0469 209.876 92.2007 209.947 92.3423C209.996 92.458 210.068 92.5712 210.112 92.6992C210.18 92.8814 210.154 93.1004 210.222 93.2703C210.282 93.413 210.357 93.5632 210.409 93.7035C210.469 93.8635 210.465 94.0346 210.533 94.181C210.59 94.3103 210.683 94.4383 210.74 94.5552C210.798 94.6844 210.811 94.8087 210.863 94.9404C210.912 95.0807 210.987 95.2198 211.048 95.3441C211.108 95.4906 211.112 95.6617 211.18 95.8044C211.237 95.9361 211.327 96.0617 211.376 96.2044C211.425 96.3509 211.433 96.5072 211.484 96.6598C211.572 96.8863 211.713 97.082 211.801 97.2949C211.88 97.4487 211.883 97.6272 211.958 97.7872C212.037 97.9767 212.148 98.1515 212.234 98.341C212.355 98.5823 212.433 98.8407 212.538 99.077C212.723 99.4881 212.784 99.9484 212.976 100.355C213.115 100.65 213.301 100.938 213.436 101.233C213.512 101.398 213.534 101.572 213.611 101.728C213.697 101.908 213.844 102.057 213.928 102.241C213.993 102.421 214.043 102.603 214.121 102.777C214.225 103.006 214.374 103.217 214.484 103.435C214.54 103.563 214.563 103.691 214.63 103.82C214.742 104.063 214.927 104.273 215.041 104.513C215.098 104.676 215.155 104.841 215.214 105.001C215.338 105.262 215.534 105.483 215.667 105.75C215.754 105.944 215.813 106.15 215.934 106.329C216.113 106.604 216.227 106.79 216.398 107.076C216.513 107.26 216.659 107.525 216.755 107.724C216.841 107.918 216.993 108.081 217.083 108.275C217.173 108.468 217.286 108.667 217.393 108.851C217.507 109.054 217.622 109.204 217.75 109.392C217.962 109.706 218.09 110.042 218.293 110.352C218.425 110.579 218.597 110.799 218.75 111.009C219.164 111.578 219.753 112.592 220.008 112.937C220.222 113.211 220.393 113.544 220.585 113.829C220.739 114.054 220.924 114.278 221.083 114.488C221.216 114.654 221.322 114.848 221.456 115.027L221.555 115.162C226.857 121.893 232.294 126.356 236.904 129.274C239.327 130.796 240.636 131.238 240.636 131.238C240.943 131.361 240.731 131.583 240.577 131.688L213.251 149.155C213.164 149.214 212.954 149.37 213.033 149.544C213.1 149.676 213.38 149.603 213.455 149.577C235.388 141.877 251.297 135.548 261.023 130.934C270.891 126.254 274.201 123.577 273.841 122.245C273.502 120.988 269.839 121.528 266.82 121.258C264.083 121.008 260.566 120.518 256.339 119.045C252.384 117.674 248.559 116.102 245.22 114.297C245.22 114.297 243.867 113.589 243.732 113.505C243.45 113.34 243.23 113.215 242.956 113.049C242.765 112.93 242.568 112.821 242.364 112.724C242.132 112.623 241.972 112.502 241.772 112.373C241.564 112.249 241.283 112.113 241.076 111.985C240.769 111.8 240.579 111.649 240.291 111.443C240.11 111.306 240.027 111.278 239.781 111.129C239.642 111.039 239.374 110.895 239.249 110.811C238.981 110.635 238.811 110.49 238.542 110.309C238.386 110.197 238.225 110.094 238.058 109.999C237.868 109.876 237.681 109.723 237.515 109.603C237.422 109.531 237.276 109.452 237.194 109.363C237.003 109.179 236.804 109.004 236.598 108.838C236.409 108.699 236.232 108.524 236.044 108.389C235.932 108.303 235.734 108.131 235.61 108.042C235.313 107.828 235.124 107.664 234.821 107.446C234.629 107.304 234.468 107.118 234.275 106.971C234.057 106.811 233.861 106.629 233.641 106.469C233.494 106.361 233.331 106.24 233.222 106.129C233.076 105.96 232.94 105.836 232.792 105.667C232.683 105.541 232.467 105.413 232.346 105.285C232.14 105.035 231.906 104.81 231.649 104.613C231.503 104.478 231.46 104.414 231.403 104.339C231.358 104.282 231.306 104.214 231.185 104.085C231.064 103.968 231.028 103.931 230.971 103.882C230.917 103.833 230.859 103.774 230.696 103.617C230.616 103.526 230.542 103.429 230.474 103.328C230.395 103.226 230.328 103.125 230.278 103.076L229.931 102.702C229.845 102.618 229.762 102.531 229.683 102.441C229.627 102.377 229.577 102.308 229.535 102.234C229.486 102.166 229.436 102.097 229.388 102.041C229.297 101.94 229.23 101.973 229.215 101.988C229.161 102.022 229.14 102.131 229.204 102.246C229.275 102.394 229.388 102.558 229.46 102.655C229.471 102.677 229.486 102.692 229.493 102.708C229.523 102.752 229.553 102.798 229.576 102.843C229.614 102.912 229.658 102.987 229.707 103.051C229.819 103.205 229.936 103.329 230.058 103.448C230.093 103.49 230.131 103.531 230.171 103.568C230.254 103.651 230.31 103.737 230.374 103.833C230.44 103.924 230.511 104.028 230.601 104.118C230.632 104.155 230.665 104.208 230.703 104.246C230.735 104.303 230.775 104.355 230.822 104.4C230.894 104.464 230.961 104.529 231.022 104.604C231.139 104.718 231.247 104.833 231.361 104.928C231.441 105 231.531 105.093 231.614 105.174C231.846 105.443 232.089 105.706 232.284 105.96C232.4 106.106 232.609 106.216 232.741 106.313C232.888 106.417 232.998 106.608 233.114 106.755C233.194 106.856 233.392 107.03 233.484 107.132C233.71 107.425 233.862 107.578 234.155 107.797C234.331 107.925 234.473 108.046 234.608 108.22C234.694 108.325 234.943 108.574 235.043 108.688C235.281 109.002 235.397 109.284 235.356 109.299C235.192 109.344 234.788 108.981 234.55 108.827C234.353 108.699 234.321 108.641 234.132 108.506C234.097 108.472 233.793 108.26 233.694 108.132C233.563 108.006 233.44 107.874 233.323 107.736C232.987 107.308 232.878 107.279 232.488 106.907C232.204 106.629 231.859 106.387 231.584 106.139L231.338 105.876C231.248 105.786 231.137 105.7 231.056 105.611C230.923 105.45 230.758 105.134 230.601 105.019C230.442 104.899 230.323 104.779 230.163 104.662C230.102 104.618 230.049 104.55 229.994 104.505C229.914 104.441 229.824 104.379 229.761 104.308C229.577 104.067 229.387 103.824 229.203 103.584C229.113 103.465 228.985 103.37 228.906 103.252C228.716 102.996 228.563 102.731 228.382 102.488C228.117 102.149 227.745 101.907 227.496 101.56C227.24 101.214 227.086 100.806 226.843 100.436C226.735 100.275 226.571 100.161 226.462 100.012C226.39 99.9226 226.353 99.8192 226.289 99.7232C226.169 99.5263 226.011 99.3343 225.878 99.1435C225.708 98.8937 225.585 98.6192 225.419 98.3558C225.386 98.3189 225.329 98.1404 225.226 98.005C225.121 97.877 225.034 97.7269 224.916 97.5374C224.795 97.3527 224.74 97.2272 224.66 97.0992C224.57 96.9675 224.512 96.8493 224.452 96.757C224.399 96.6672 224.278 96.4986 224.234 96.4321C224.076 96.1897 224.038 96.0777 223.871 95.8524C223.766 95.7134 223.657 95.6063 223.571 95.6309C223.496 95.6863 223.526 95.77 223.537 95.8315C223.612 96.0309 223.612 95.9977 223.684 96.1343C223.82 96.3743 223.871 96.4912 224.001 96.7041C224.076 96.8124 224.181 97.0475 224.273 97.1718C224.364 97.3072 224.451 97.461 224.518 97.5681C224.584 97.685 224.68 97.9854 224.779 98.1146C224.854 98.2044 224.948 98.3927 225.018 98.5244C225.15 98.7927 225.322 99.0032 225.46 99.221C225.557 99.3934 225.648 99.5718 225.742 99.7417C225.925 100.025 226.149 100.288 226.334 100.574L226.67 101.177C226.782 101.345 226.934 101.483 227.036 101.648C227.166 101.852 227.244 102.07 227.376 102.273C227.478 102.427 227.619 102.576 227.722 102.729C227.898 102.995 228.058 103.251 228.239 103.513C228.34 103.644 228.478 103.765 228.582 103.905C228.725 104.09 228.836 104.323 228.982 104.483C229.156 104.648 229.211 104.744 229.343 104.905C229.553 105.153 230.062 105.868 229.976 105.875C229.672 105.912 229.104 105.259 228.857 105.022C228.668 104.842 228.462 104.7 228.329 104.527C228.14 104.266 228.001 103.977 227.804 103.727C227.737 103.633 227.628 103.562 227.558 103.477C227.427 103.304 227.306 103.124 227.148 102.982C227.092 102.918 227.017 102.857 226.955 102.789C226.72 102.489 226.528 102.166 226.299 101.859C226.206 101.733 226.078 101.616 225.989 101.489C225.91 101.391 225.872 101.275 225.807 101.173C225.716 101.029 225.596 100.894 225.5 100.751C225.433 100.646 225.387 100.544 225.323 100.437C225.2 100.249 225.034 100.088 224.912 99.8943C224.814 99.7404 224.784 99.5373 224.683 99.381C224.431 98.9921 224.148 98.5921 223.896 98.1995C223.834 98.0998 223.806 97.9854 223.742 97.8869C223.537 97.5694 223.345 97.2186 223.14 96.8986C223.065 96.7829 223.038 96.6487 222.959 96.533C222.865 96.3854 222.72 96.277 222.634 96.1343C222.563 96.026 222.533 95.909 222.473 95.7798C222.393 95.6145 222.305 95.453 222.209 95.2961C222.154 95.1952 222.127 95.0992 222.07 95.0032C221.827 94.6166 221.612 94.2131 221.427 93.7958C221.318 93.578 221.166 93.3724 221.059 93.1546C220.939 92.9047 220.83 92.6574 220.723 92.4198C220.662 92.2586 220.606 92.0912 220.545 91.93C220.426 91.6764 220.244 91.4623 220.131 91.1952C220.048 91.0192 220.003 90.8481 219.937 90.698C219.888 90.5995 219.798 90.5294 219.738 90.57C219.674 90.6118 219.656 90.6906 219.7 90.8334C219.782 91.1017 219.929 91.4094 219.996 91.562C220.139 91.8647 220.211 92.1798 220.346 92.4937C220.425 92.6598 220.532 92.8284 220.611 92.9921C220.753 93.285 220.874 93.5804 221.009 93.8561C221.084 94.0223 221.142 94.1798 221.228 94.3337C221.281 94.4075 221.349 94.4986 221.386 94.5946C221.47 94.7903 221.503 94.9983 221.596 95.1829C221.686 95.3835 221.832 95.5398 221.924 95.7367C222.392 96.725 222.859 97.6715 223.424 98.549C223.582 98.7952 223.657 99.0906 223.82 99.3367C223.979 99.5903 224.202 99.7872 224.366 100.035C224.499 100.238 224.531 100.526 224.652 100.747C224.833 101.08 225.072 101.358 225.272 101.668C225.327 101.754 225.34 101.852 225.401 101.942C225.476 102.062 225.573 102.179 225.647 102.297C225.749 102.457 225.806 102.646 225.91 102.795C226.03 102.955 226.203 103.091 226.321 103.263C226.472 103.462 226.57 103.694 226.72 103.907C226.832 104.042 226.996 104.147 227.105 104.284C227.28 104.51 227.862 105.284 228.033 105.509C228.298 105.84 228.769 106.33 228.984 106.764C229.048 106.904 229.288 107.225 229.228 107.285C229.108 107.371 228.523 106.734 228.422 106.64C228.18 106.4 227.969 106.079 227.752 105.808C227.704 105.747 227.141 105.193 227.096 105.134C227.035 105.064 226.981 104.99 226.934 104.911C226.769 104.677 226.681 104.398 226.508 104.172C226.441 104.079 226.336 104.015 226.262 103.923C226.142 103.76 226.048 103.56 225.92 103.385C225.717 103.113 225.464 102.865 225.268 102.592C225.041 102.296 224.888 101.94 224.67 101.649C224.56 101.502 224.417 101.366 224.313 101.211C224.264 101.147 224.245 101.072 224.2 101.001C224.124 100.878 224.014 100.742 223.953 100.607C223.889 100.484 223.849 100.368 223.781 100.255C223.548 99.8894 223.313 99.5115 223.088 99.1472C222.982 98.986 222.927 98.8087 222.825 98.6487C222.649 98.3841 222.432 98.1404 222.256 97.8697C222.053 97.5521 221.946 97.1657 221.739 96.8444C221.604 96.634 221.446 96.442 221.31 96.2254C221.163 96.0026 221.088 95.7355 220.956 95.493C220.843 95.2826 220.682 95.0857 220.582 94.8752C220.474 94.6463 220.393 94.4186 220.282 94.1786C220.222 94.0506 220.132 93.93 220.072 93.7934C220 93.6383 219.982 93.466 219.91 93.3121C219.71 92.869 219.406 92.4506 219.199 92.0075C219.05 91.691 218.915 91.3678 218.795 91.0389C218.731 90.8592 218.7 90.6844 218.625 90.5146C218.436 90.1072 218.207 89.6814 218.031 89.2789C217.955 89.061 217.872 88.853 217.801 88.6352C217.782 88.5712 217.775 88.5146 217.753 88.4506C217.67 88.261 217.557 88.0764 217.478 87.8844C217.414 87.6653 217.347 87.447 217.278 87.2297C216.992 86.5183 216.735 85.7134 216.464 84.9687C216.43 84.837 216.422 84.6684 216.374 84.5232C216.231 84.1437 216.091 83.763 215.955 83.381C215.876 83.1927 215.69 83.2567 215.733 83.4524C215.79 83.717 215.828 83.7774 215.868 83.9878C215.887 84.0924 215.907 84.1946 215.932 84.3017C215.962 84.4223 216.03 84.5626 216.064 84.6832C216.132 84.9084 216.139 85.1324 216.218 85.3503C216.326 85.653 216.432 85.9497 216.536 86.2672L216.633 86.7423C216.675 86.885 216.735 87.0377 216.798 87.173C216.948 87.5583 217.1 87.9263 217.24 88.3152C217.292 88.533 217.349 88.7521 217.404 88.97C217.454 89.093 217.544 89.2161 217.6 89.3367C217.648 89.445 217.653 89.5435 217.705 89.6506C217.802 89.8967 217.893 90.1527 218.005 90.4038C218.102 90.6069 218.208 90.81 218.291 91.0315C218.328 91.1349 218.328 91.2321 218.366 91.333C218.601 91.9854 218.863 92.6672 219.137 93.2814C219.209 93.4352 219.231 93.5915 219.299 93.7527C219.355 93.8807 219.438 94.0198 219.498 94.1417L219.588 94.3952C219.674 94.5761 219.82 94.7263 219.902 94.9084C220.142 95.413 220.358 95.8894 220.662 96.3238C220.937 96.7214 221.059 97.253 221.273 97.7355C221.377 97.9534 221.509 98.149 221.633 98.3497C221.697 98.4518 221.742 98.5675 221.791 98.677C221.923 98.9269 222.001 99.1447 222.161 99.3626C222.298 99.5423 222.284 99.5841 222.394 99.8377C222.424 99.9115 222.548 100.384 222.523 100.384C222.483 100.411 222.248 100.272 222.165 100.184C222.063 100.067 221.894 99.9127 221.78 99.6518C221.723 99.5238 221.606 99.2986 221.544 99.1743C221.397 98.853 221.148 98.5872 220.966 98.3029C220.854 98.138 220.794 97.9497 220.709 97.7638C220.559 97.4364 220.382 97.0967 220.222 96.7546C220.15 96.6106 220.049 96.4715 219.972 96.3472C219.882 96.2155 219.84 96.0715 219.754 95.9361C219.555 95.6387 219.374 95.3287 219.215 95.0081C219.102 94.778 219.05 94.538 218.94 94.3103C218.907 94.2352 218.843 94.17 218.804 94.0986C218.732 93.9854 218.694 93.85 218.638 93.7244C218.552 93.5472 218.422 93.3786 218.34 93.1952C218.174 92.8358 218.076 92.4567 217.909 92.106C217.83 91.9374 217.702 91.7983 217.62 91.6309C217.503 91.3774 217.484 91.0586 217.366 90.7878C217.06 90.0863 216.692 89.3638 216.428 88.6204C216.388 88.5035 216.373 88.3607 216.331 88.2315C216.219 87.9115 216.067 87.6161 215.946 87.301C215.897 87.1534 215.882 87.0254 215.834 86.8789C215.752 86.6647 215.649 86.4358 215.567 86.2229C215.548 86.1478 215.541 86.0727 215.514 85.9977C215.424 85.7934 215.368 85.5546 215.272 85.3429C215.219 85.2321 215.142 85.114 215.096 85.0007C215.02 84.7866 215.043 84.5183 214.971 84.3189C214.856 84.0112 214.735 83.701 214.628 83.3983C214.56 83.2223 214.549 83.0586 214.489 82.885C214.414 82.6881 214.342 82.4703 214.267 82.2697C214.192 82.0666 214.2 81.845 214.132 81.6272C214.073 81.4586 214.009 81.2924 213.956 81.1398C213.848 80.853 213.809 80.5454 213.702 80.2832C213.688 80.2292 213.669 80.1765 213.646 80.1257C213.62 80.0543 213.571 79.978 213.499 80.005C213.409 80.0247 213.413 80.1367 213.417 80.2081C213.432 80.4149 213.514 80.6143 213.578 80.7854C213.642 80.965 213.675 81.1595 213.724 81.3355C213.758 81.4463 213.754 81.5718 213.774 81.6887C213.814 81.8647 213.875 82.0284 213.924 82.186C213.964 82.3583 213.946 82.5183 213.982 82.6463C214.095 83.0094 214.211 83.4143 214.331 83.7589C214.384 83.9435 214.392 84.1478 214.443 84.3054L214.646 84.8518C214.707 85.0057 214.718 85.1521 214.778 85.2974C214.846 85.4549 214.924 85.6112 214.982 85.7872C215.054 86.0087 215.043 86.229 215.125 86.4395C215.246 86.7829 215.403 87.1066 215.524 87.4389C215.564 87.5595 215.576 87.6814 215.617 87.8057C215.715 88.0912 215.786 88.3964 215.889 88.6869C216.043 89.093 216.235 89.4906 216.38 89.893C216.52 90.2857 216.542 90.7669 216.713 91.1349C216.803 91.3195 216.976 91.4303 217.059 91.61C217.11 91.7257 217.096 91.8561 217.13 91.9915C217.178 92.149 217.256 92.2943 217.306 92.437C217.339 92.5626 217.377 92.6906 217.414 92.8149C217.46 92.965 217.568 93.1177 217.636 93.2567C217.742 93.4992 217.804 93.749 217.94 93.957C218.042 94.122 218.169 94.2672 218.254 94.4469C218.345 94.6463 218.385 94.8604 218.472 95.0647C218.607 95.365 218.768 95.6555 218.885 95.9706C218.993 96.2561 219.028 96.5589 219.164 96.81C219.296 97.0598 219.465 97.2814 219.606 97.5337L219.866 98.0875C219.931 98.234 220.07 98.3694 220.149 98.5183C220.251 98.7115 220.36 98.9072 220.446 99.0943C220.51 99.2444 220.536 99.3798 220.618 99.5078C220.742 99.701 220.832 99.8586 220.956 100.054C221.076 100.223 221.192 100.447 221.274 100.65C221.334 100.804 221.391 100.968 221.481 101.098C221.574 101.233 221.706 101.347 221.785 101.492C221.867 101.636 221.978 102.104 221.931 102.126C221.833 102.163 221.55 101.886 221.471 101.79C221.249 101.515 221.129 101.152 220.926 100.859C220.71 100.549 220.568 100.369 220.399 100.01C220.3 99.7958 220.128 99.4266 220 99.242C219.892 99.066 219.739 98.9134 219.646 98.7177C219.578 98.5527 219.544 98.3595 219.476 98.2007C219.364 97.9718 219.14 97.8192 219.032 97.5854C218.907 97.3146 218.847 97.0438 218.712 96.7977C218.654 96.6734 218.565 96.5392 218.507 96.4124C218.425 96.2586 218.398 96.1023 218.323 95.941C218.169 95.6198 217.948 95.3417 217.791 95.0204C217.633 94.693 217.548 94.3349 217.387 93.9964C217.305 93.8204 217.158 93.6641 217.073 93.4844C216.956 93.2432 216.901 92.9921 216.78 92.746C216.716 92.6032 216.612 92.4567 216.545 92.3115C216.441 92.1047 216.414 91.877 216.313 91.6592C216.091 91.1694 215.867 90.65 215.646 90.165C215.56 89.9767 215.541 89.7712 215.452 89.5841C215.374 89.4152 215.291 89.2482 215.204 89.0832C215.007 88.6487 214.943 88.1454 214.751 87.7084C214.65 87.4832 214.522 87.2777 214.444 87.034C214.305 86.6635 214.248 86.277 214.112 85.8918C213.902 85.3072 213.731 84.7041 213.524 84.1195C213.464 83.9509 213.456 83.7749 213.388 83.6001C213.331 83.4266 213.263 83.258 213.203 83.0869C213.161 82.9515 213.135 82.7509 213.091 82.5737C212.937 82.0801 212.778 81.5927 212.624 81.0918C212.587 80.9675 212.576 80.7595 212.538 80.6081C212.512 80.522 212.47 80.4223 212.441 80.3435C212.395 80.2352 212.399 80.1367 212.366 80.0186C212.245 79.6555 212.148 79.2383 212.033 78.8727C212.003 78.7595 211.988 78.5946 211.951 78.4703C211.792 77.9509 211.717 77.3281 211.505 76.8457C211.471 76.7521 211.411 76.6561 211.324 76.677C211.231 76.6992 211.249 76.8063 211.257 76.8949C211.284 77.1275 211.374 77.3355 211.411 77.5226C211.427 77.6063 211.427 77.7306 211.438 77.8377C211.445 77.9275 211.452 78.0334 211.486 78.1269C211.58 78.4297 211.692 78.7977 211.782 79.0967C211.813 79.2444 211.79 79.466 211.828 79.6284C211.96 80.1207 212.053 80.6992 212.232 81.1398C212.393 81.5423 212.42 82.0174 212.538 82.4481C212.572 82.6377 212.587 82.8297 212.613 83.0167C212.636 83.1989 212.741 83.3232 212.794 83.4721C212.835 83.594 212.835 83.6912 212.876 83.8044C212.974 84.1158 213.038 84.4198 213.16 84.7361C213.235 84.9515 213.352 85.1546 213.423 85.3638C213.46 85.4623 213.449 85.5509 213.472 85.6506C213.528 85.8721 213.562 86.0875 213.626 86.298C213.776 86.7214 213.928 87.1866 214.078 87.6124C214.161 87.8487 214.191 88.0789 214.273 88.3066C214.616 89.2198 214.952 90.1404 215.288 91.0475C215.34 91.2518 215.393 91.4537 215.452 91.6555C215.528 91.8586 215.648 92.0334 215.734 92.2143C215.844 92.4543 215.881 92.7004 215.969 92.9527C216.075 93.2469 216.212 93.4758 216.323 93.7774C216.379 93.925 216.427 94.0887 216.499 94.2278C216.544 94.3337 216.638 94.4309 216.687 94.5417C216.777 94.7226 216.795 94.9515 216.88 95.13C216.966 95.3146 217.123 95.4647 217.222 95.6284C217.327 95.786 217.334 95.9903 217.416 96.1675C217.536 96.4506 217.705 96.7029 217.822 96.9958C217.873 97.1214 217.897 97.2321 217.958 97.3503C218.015 97.4894 218.117 97.6137 218.18 97.7527L218.191 97.7749C218.201 97.7987 218.209 97.8235 218.214 97.8487C218.229 97.9066 218.248 97.978 218.266 98.0297C218.336 98.1938 218.435 98.3439 218.559 98.4727C218.582 98.4985 218.604 98.5261 218.623 98.5552C218.747 98.7435 218.758 99.0155 218.858 99.2297C218.955 99.429 219.132 99.5903 219.232 99.8057C219.304 99.9681 219.349 100.368 219.254 100.379C218.84 100.379 218.806 99.7983 218.671 99.498C218.561 99.2641 218.393 99.0672 218.268 98.8395C218.231 98.7669 218.198 98.6917 218.171 98.6143C218.149 98.5337 218.119 98.4554 218.081 98.3804C218.028 98.2721 218.028 98.2844 217.988 98.2057C217.957 98.1306 217.841 97.9804 217.803 97.9127C217.803 97.909 217.8 97.9054 217.8 97.8967C217.638 97.6469 217.531 97.2814 217.422 97.1115C217.36 97.013 217.275 96.9183 217.21 96.8223C217.112 96.6574 217.056 96.4641 216.975 96.2832C216.895 96.1183 216.768 95.9583 216.693 95.7823C216.6 95.5792 216.595 95.322 216.497 95.1152C216.449 95.002 216.351 94.89 216.304 94.7866C216.195 94.549 216.123 94.2943 216 94.0703C215.951 93.9509 215.854 93.8487 215.797 93.738C215.704 93.541 215.654 93.3281 215.555 93.146C215.337 92.757 215.102 92.3214 214.918 91.9103C214.816 91.6678 214.779 91.4229 214.673 91.1866C214.584 90.9823 214.459 90.7792 214.367 90.5835C214.307 90.4506 214.288 90.325 214.234 90.1761C214.15 89.9423 214.046 89.7084 213.963 89.4795C213.907 89.322 213.87 88.981 213.817 88.8383C213.764 88.666 213.67 88.4838 213.595 88.3115C213.476 88.0555 213.438 87.7946 213.331 87.5386C213.239 87.34 213.153 87.1385 213.075 86.9343C213.014 86.7644 213 86.6069 212.924 86.4469C212.876 86.3275 212.801 86.1884 212.756 86.0727C212.707 85.9189 212.662 85.6764 212.62 85.4807C212.545 85.2592 212.448 85.05 212.384 84.837C212.34 84.6795 212.332 84.3054 212.294 84.2081C212.073 83.5337 211.864 82.826 211.651 82.1589C211.552 81.8487 211.504 81.541 211.425 81.242C211.395 81.1214 211.387 80.9638 211.354 80.8457C211.297 80.6487 211.211 80.4543 211.151 80.2537C211.118 80.1257 211.098 79.9866 211.076 79.8512C211.043 79.7109 210.968 79.5681 210.911 79.429C210.787 79.029 210.715 78.6007 210.593 78.2106C210.555 78.0469 210.555 77.834 210.511 77.6875C210.361 77.1977 210.319 76.6389 210.18 76.1207C210.147 75.9779 210.119 75.8343 210.094 75.69C209.84 74.7386 209.726 73.6715 209.45 72.7509C209.397 72.5786 209.468 72.357 209.416 72.1638C209.363 71.9652 209.305 71.7678 209.243 71.5718C209.214 71.482 209.214 71.4032 209.19 71.3121C209.146 71.1583 209.071 71.0401 208.993 71.0537C208.888 71.0844 208.911 71.1755 208.915 71.3121C208.926 71.5189 208.948 71.6974 208.982 71.8709C209.019 72.0137 209.001 72.1355 209.044 72.2672C209.128 72.5601 209.153 72.981 209.206 73.2481C209.225 73.3638 209.21 73.5127 209.232 73.6444C209.258 73.7761 209.36 73.9546 209.393 74.1047C209.423 74.3004 209.423 74.554 209.45 74.7681C209.494 74.9503 209.544 75.1189 209.589 75.2924C209.626 75.4389 209.6 75.5792 209.647 75.7109C209.692 75.8574 209.76 75.989 209.79 76.1454C209.813 76.3103 209.79 76.5601 209.824 76.7103C210.04 77.546 210.104 78.538 210.348 79.3441C210.378 79.4598 210.385 79.5804 210.408 79.6986C210.614 80.3964 210.774 81.1534 210.981 81.85C211.003 81.9607 211.003 82.0715 211.034 82.1934C211.099 82.4358 211.167 82.7029 211.217 82.9503C211.243 83.0598 211.24 83.1681 211.267 83.2777C211.342 83.5349 211.435 83.7897 211.516 84.0407C211.546 84.1614 211.562 84.2844 211.584 84.4075C211.599 84.5023 211.659 84.6143 211.685 84.7078C211.727 84.858 211.716 84.997 211.764 85.1312C211.791 85.205 211.854 85.2961 211.877 85.3774C211.91 85.5275 211.929 85.6764 211.971 85.8266C212.027 85.9989 212.124 86.1761 212.2 86.3472C212.252 86.4937 212.252 86.6426 212.312 86.7804C212.406 87.029 212.511 87.3183 212.612 87.5829C212.687 87.8007 212.705 88.0174 212.777 88.2389C212.83 88.3817 212.901 88.5318 212.947 88.6721C212.98 88.7854 213.001 88.8974 213.033 89.0143C213.073 89.1189 213.187 89.285 213.262 89.4204C213.326 89.5755 213.299 89.781 213.348 89.9423C213.401 90.1146 213.498 90.2487 213.547 90.4026C213.601 90.5626 213.601 90.7275 213.641 90.8887C213.692 91.0118 213.774 91.13 213.824 91.242C213.873 91.381 213.925 91.5127 213.971 91.653C214.012 91.7367 214.08 91.8254 214.124 91.9164C214.2 92.0703 214.26 92.2414 214.324 92.3989C214.417 92.6278 214.421 92.9084 214.5 93.178C214.511 93.2494 214.511 93.4303 214.463 93.4524C214.364 93.4746 214.245 93.3023 214.166 93.2026C214.039 93.0187 213.929 92.8229 213.839 92.618C213.806 92.5421 213.78 92.4629 213.764 92.3817C213.692 92.2094 213.641 92.0149 213.56 91.8315C213.51 91.7257 213.439 91.6063 213.402 91.4894C213.349 91.3244 213.371 91.1238 213.311 90.9774C213.252 90.8604 213.157 90.7632 213.092 90.6352C213.057 90.5232 213.035 90.41 212.986 90.2955C212.929 90.1638 212.847 90.0395 212.772 89.9103C212.718 89.7934 212.72 89.669 212.678 89.5226C212.635 89.3523 212.577 89.186 212.506 89.0254C212.427 88.8641 212.334 88.7004 212.266 88.5355C212.232 88.4481 212.217 88.3509 212.191 88.261C212.145 88.1404 212.081 88.0026 212.03 87.8795C212.003 87.7897 211.98 87.6949 211.946 87.6014C211.884 87.4684 211.813 87.3183 211.764 87.1706C211.718 87.0512 211.707 86.9232 211.67 86.8014C211.592 86.5909 211.52 86.3521 211.449 86.149C211.403 85.9841 211.388 85.8241 211.34 85.6592C211.28 85.4746 211.194 85.285 211.13 85.1004C211.077 84.9466 211.059 84.7829 211.013 84.6204C210.942 84.421 210.841 84.2389 210.778 84.0174C210.734 83.8537 210.729 83.69 210.692 83.525C210.571 83.1263 210.446 82.6881 210.318 82.2894C210.182 81.8364 210.168 81.333 210.036 80.8727C209.942 80.5515 209.828 80.2327 209.729 79.9127C209.689 79.7515 209.689 79.5952 209.647 79.4303C209.544 79.0251 209.429 78.6229 209.304 78.2241C209.243 78.0272 209.262 77.8204 209.206 77.6087C209.146 77.3958 209.142 77.1386 209.071 76.9097C209.025 76.7706 208.976 76.6697 208.936 76.4912C208.906 76.3103 208.91 76.0998 208.886 75.9657C208.86 75.834 208.625 75.0426 208.6 74.8924C208.569 74.7447 208.569 74.474 208.554 74.3804C208.539 74.3127 208.422 73.9706 208.408 73.882C208.389 73.7921 208.389 73.6887 208.355 73.5189C208.318 73.3392 208.218 72.9466 208.197 72.8297C208.182 72.7214 208.182 72.49 208.16 72.3767C208.133 72.261 208.058 72.0026 208.006 71.8106C207.942 71.5829 207.992 71.3404 207.928 71.1263C207.881 70.9696 207.829 70.8148 207.77 70.6623C207.733 70.5357 207.703 70.4071 207.68 70.277C207.672 70.1601 207.664 69.9066 207.66 69.813C207.653 69.6814 207.596 69.4709 207.585 69.2838C207.57 69.051 207.533 68.8202 207.473 68.5946C207.446 68.5047 207.459 68.3927 207.439 68.3066C207.377 68.0567 207.312 67.8266 207.185 67.8426C207.092 67.8574 207.061 67.9324 207.099 68.0961C207.147 68.2918 207.167 68.4407 207.215 68.6352C207.238 68.7374 207.246 68.9946 207.246 69.0807C207.253 69.2198 207.264 69.2457 207.279 69.3798C207.29 69.429 207.306 69.562 207.324 69.6161C207.347 69.706 207.377 69.834 207.376 69.9017C207.369 69.9841 207.369 70.0814 207.369 70.2057C207.369 70.2697 207.376 70.2955 207.396 70.4063C207.425 70.5195 207.436 70.5417 207.444 70.6315C207.448 70.7152 207.44 70.794 207.444 70.8604C207.447 70.9469 207.46 71.0328 207.482 71.1164C207.531 71.274 207.643 71.509 207.598 71.7564C207.55 72.0149 207.628 72.261 207.689 72.4912C207.715 72.6377 207.685 72.7977 207.715 72.933C207.771 73.1337 207.819 73.3367 207.868 73.5361C207.914 73.7047 207.88 73.8537 207.925 74.0112C207.989 74.229 208.137 74.5281 208.161 74.6254C208.176 74.73 208.172 74.9921 208.198 75.1644C208.229 75.3367 208.273 75.525 208.288 75.6358C208.294 75.7454 208.281 75.7934 208.292 75.8721C208.304 75.9509 208.412 76.3398 208.431 76.4383C208.451 76.5392 208.442 76.5847 208.462 76.6881C208.484 76.7964 208.57 77.205 208.587 77.3404C208.611 77.4734 208.603 77.5484 208.625 77.6838C208.666 77.8869 208.75 78.0617 208.798 78.2574C208.824 78.4014 208.812 78.4974 208.828 78.6081C208.873 78.7964 208.929 78.9577 208.972 79.1398C208.988 79.2678 208.996 79.4069 209.022 79.5435C209.082 79.8438 209.126 80.1429 209.206 80.4321C209.258 80.6044 209.358 80.7632 209.411 80.9343C209.452 81.0881 209.467 81.2543 209.508 81.3983C209.546 81.5374 209.643 81.6592 209.67 81.7946C209.696 81.9177 209.696 82.0444 209.711 82.1638C209.745 82.3041 209.804 82.4395 209.835 82.5823C209.854 82.6894 209.846 82.7977 209.872 82.9109C209.91 83.0327 209.967 83.1472 210.004 83.2678C210.033 83.4192 210.033 83.5718 210.068 83.722C210.116 83.8992 210.191 84.0715 210.244 84.2352C210.293 84.389 210.27 84.5552 210.312 84.7226C210.412 85.0795 210.537 85.4734 210.651 85.8118C210.704 85.9915 210.697 86.1749 210.761 86.373C210.806 86.5047 210.869 86.5909 210.915 86.7041C210.96 86.8198 210.918 86.9503 210.96 87.082C211.016 87.301 211.05 87.5903 211.132 87.8032C211.208 88.0457 211.354 88.2414 211.439 88.4777C211.521 88.7177 211.525 88.9638 211.608 89.2198C211.69 89.4389 211.796 89.6383 211.878 89.834C211.95 90.0137 211.926 90.2401 211.99 90.4284C212.065 90.6315 212.212 90.7854 212.291 90.9909C212.373 91.2309 212.43 91.4623 212.508 91.7047C212.532 91.8046 212.552 91.9051 212.569 92.0063C212.655 92.309 212.822 92.5638 212.931 92.8592C212.972 92.9909 212.984 93.1115 213.022 93.237C213.093 93.4463 213.179 93.6678 213.279 93.8672C213.361 94.0432 213.475 94.2241 213.553 94.4087C213.628 94.5712 213.647 94.741 213.718 94.9183C213.786 95.0844 213.868 95.2678 213.94 95.4463C213.973 95.5521 213.977 95.6494 214.022 95.7466C214.23 96.2106 214.49 96.6881 214.7 97.141C214.816 97.3872 214.869 97.6604 214.991 97.9127C215.082 98.1097 215.198 98.3017 215.288 98.5195C215.34 98.6524 215.359 98.7841 215.416 98.9121C215.536 99.162 215.697 99.4167 215.808 99.6654C215.843 99.7207 215.921 99.9829 215.891 100.095C215.887 100.107 215.883 100.122 215.868 100.129C215.79 100.154 215.633 100.019 215.544 99.9324C215.247 99.637 215.201 99.0906 214.992 98.7127C214.928 98.6023 214.868 98.4889 214.814 98.373C214.777 98.2906 214.761 98.2155 214.724 98.133C214.596 97.8918 214.431 97.6727 214.316 97.4094C214.238 97.2272 214.225 97.0094 214.147 96.8297C213.803 96.1023 213.414 95.3983 213.083 94.6635C212.933 94.3312 212.907 93.9447 212.773 93.589C212.694 93.3749 212.569 93.1952 212.48 92.997C212.405 92.8395 212.387 92.6684 212.319 92.5109C212.222 92.3004 212.086 92.1047 212.009 91.8783C211.953 91.7306 211.937 91.5817 211.883 91.4327C211.812 91.2752 211.706 91.1398 211.635 90.9835C211.534 90.762 211.513 90.5306 211.441 90.2672C211.403 90.1244 211.343 89.9767 211.295 89.845C211.257 89.7244 211.246 89.5952 211.201 89.4783C211.103 89.2038 210.938 88.9614 210.835 88.6783C210.763 88.49 210.774 88.2463 210.699 88.0654C210.628 87.9115 210.507 87.786 210.453 87.6284C210.378 87.4623 210.446 87.2617 210.389 87.066C210.34 86.8764 210.265 86.7004 210.201 86.5269C210.16 86.4149 210.153 86.3054 210.122 86.1946C210.043 85.973 209.961 85.7454 209.872 85.5201C209.835 85.3995 209.835 85.2912 209.782 85.1878C209.722 85.0524 209.621 84.9281 209.576 84.778C209.516 84.5601 209.504 84.3324 209.446 84.1134C209.359 83.8204 209.254 83.5927 209.164 83.3072C209.15 83.2174 209.15 83.1312 209.126 83.0364C209.061 82.7866 209.018 82.5072 208.954 82.261C208.921 82.138 208.928 82.0395 208.897 81.9164C208.83 81.6842 208.758 81.4535 208.68 81.2247C208.639 81.082 208.632 80.9318 208.601 80.794C208.481 80.4272 208.378 79.994 208.272 79.6407C208.239 79.5349 208.254 79.4438 208.223 79.3232C208.133 79.0487 208.019 78.7078 207.955 78.4198C207.925 78.2512 207.921 78.0924 207.883 77.9361C207.843 77.7392 207.771 77.5509 207.737 77.3527C207.722 77.2666 207.737 77.1952 207.733 77.1164C207.704 76.9921 207.696 76.8703 207.676 76.7386C207.544 76.2364 207.348 75.6112 207.24 75.1017C207.205 74.9195 207.198 74.7349 207.179 74.5515C207.157 74.4309 207.152 74.277 207.108 74.1404C207.077 74.0161 207.011 73.8734 206.995 73.738C206.965 73.5201 206.961 73.3072 206.933 73.0943C206.929 73.0758 206.928 73.0635 206.921 73.0487C206.88 72.7878 206.745 72.2561 206.716 72.0457L206.622 71.2924C206.618 71.1238 206.588 70.9601 206.563 70.7878C206.532 70.5207 206.468 70.293 206.438 70.0223C206.412 69.8401 206.427 69.6777 206.401 69.525C206.393 69.4266 206.389 69.2617 206.266 69.2617C206.149 69.2617 206.164 69.4081 206.16 69.5177C206.138 69.7884 206.195 70.1503 206.209 70.314C206.234 70.6254 206.203 70.9257 206.238 71.2494ZM230.67 106.35C230.87 106.51 231.035 106.731 231.13 107.11C231.137 107.151 231.096 107.172 231.073 107.176C230.806 107.206 230.511 106.817 230.377 106.64C230.342 106.585 230.192 106.278 230.234 106.233C230.289 106.184 230.592 106.289 230.67 106.35ZM222.628 100.646C222.878 100.665 223.118 101.096 223.235 101.26C223.324 101.382 223.432 101.507 223.513 101.63C223.628 101.813 223.678 102.038 223.803 102.211C223.964 102.42 224.149 102.62 224.313 102.828C224.406 102.942 224.52 103.043 224.574 103.195C224.601 103.274 224.676 103.564 224.623 103.595C224.441 103.663 223.994 103.155 223.87 102.974C223.641 102.627 223.413 102.238 223.169 101.899C222.94 101.599 222.691 101.386 222.638 100.858C222.628 100.8 222.593 100.643 222.628 100.646ZM222.111 102.48C222.382 102.48 222.661 102.899 222.76 103.092C222.817 103.192 222.849 103.305 222.853 103.42C222.846 103.492 222.826 103.525 222.778 103.525C222.643 103.513 222.582 103.427 222.5 103.368C222.368 103.273 222.26 103.149 222.186 103.005C222.111 102.861 222.071 102.701 222.07 102.539C222.07 102.492 222.089 102.481 222.111 102.481M215.5 96.3952C215.438 96.2919 215.385 96.1832 215.343 96.0703C215.291 95.946 215.289 95.8327 215.238 95.7207C215.066 95.3318 214.879 94.9109 214.699 94.533C214.628 94.3755 214.531 94.0801 214.593 93.8746C214.609 93.8475 214.668 93.8672 214.692 93.893C214.75 93.9423 214.793 93.9829 214.835 94.0358C214.879 94.0887 214.889 94.1515 214.924 94.2044C215.007 94.3361 215.118 94.4678 215.185 94.6192C215.332 94.9244 215.366 95.2715 215.51 95.5755C215.598 95.7749 215.763 95.9447 215.86 96.1564C215.905 96.261 215.939 96.3743 215.973 96.4924C215.992 96.5786 215.984 96.7017 215.992 96.7669C216.006 96.8715 215.984 96.9429 215.946 96.9429C215.681 96.9232 215.599 96.5958 215.5 96.3952ZM214.411 100.75C214.426 100.72 214.437 100.708 214.453 100.712C214.678 100.746 214.897 101.289 215.003 101.487C215.123 101.7 215.317 101.868 215.425 102.095C215.516 102.288 215.542 102.54 215.658 102.735C215.733 102.885 215.876 103.002 215.964 103.146C216.092 103.327 216.168 103.567 216.265 103.772C216.367 104.001 216.524 104.184 216.614 104.405C216.651 104.502 216.671 104.662 216.64 104.766C216.633 104.799 216.607 104.837 216.565 104.837C216.276 104.825 216.187 104.392 216.057 104.196C215.947 104.027 215.861 103.849 215.753 103.679C215.674 103.563 215.579 103.443 215.515 103.313C215.433 103.144 215.4 102.968 215.304 102.815C215.251 102.732 215.168 102.665 215.112 102.586C214.942 102.371 214.805 102.133 214.704 101.878C214.678 101.78 214.651 101.686 214.633 101.589C214.572 101.42 214.494 101.249 214.444 101.083C214.411 100.993 214.396 100.81 214.411 100.75ZM72.3349 199.177C66.2426 199.177 62.0445 195.187 62.0445 187.899C62.0445 180.622 66.1294 175.871 72.5565 175.871C79.2272 175.871 81.626 181.057 81.626 181.057L81.7872 181.196V175.072C81.7872 175.072 77.7848 173.112 72.1035 173.112C61.8303 173.109 55.3848 179.443 55.3848 187.939C55.3848 194.784 60.7066 202.33 71.6826 202.33C75.8217 202.33 80.6562 200.68 80.6562 200.68L82.8765 193.098L82.6303 193.257C82.6291 193.257 79.0303 199.177 72.3349 199.177ZM180.502 201.654C180.502 201.654 178.134 201.187 179.632 198.032L181.849 193.466H192.456L194.608 198.032C196.117 201.187 193.742 201.654 193.742 201.654L193.556 201.851H205.214L205.02 201.654C205.02 201.654 202.869 201.638 201.131 198.032L188.677 172.137L176.309 198.032C174.458 201.579 172.42 201.654 172.42 201.654L172.227 201.851H180.689L180.502 201.654ZM187.388 181.881L191.369 191.06H183.009L187.388 181.881ZM348.504 190.819C348.504 190.819 350.395 191.097 350.395 194.435V197.895C349.01 198.494 347.517 198.803 346.009 198.801C339.93 198.801 335.753 194.817 335.753 187.562C335.753 180.298 339.827 175.541 346.24 175.541C352.892 175.541 355.281 180.732 355.281 180.732L355.435 180.858V174.744C355.435 174.744 351.459 172.803 345.766 172.803C335.536 172.803 329.105 179.109 329.105 187.589C329.105 194.419 334.412 201.946 345.363 201.946C347.059 201.946 348.849 201.67 350.395 201.339C351.718 201.064 353.024 200.714 354.308 200.293L356.335 199.604V194.433C356.335 191.094 358.23 190.817 358.23 190.817L358.42 190.628H348.325L348.504 190.819ZM376.691 172.481C368.25 172.481 360.651 177.936 360.651 187.62C360.651 195.546 366.006 202.225 376.021 202.225C379.343 202.225 384.016 201.63 387.786 197.786C389.157 196.363 390.219 194.673 390.907 192.821C391.504 191.103 391.786 189.305 391.786 187.455C391.786 179.051 385.94 172.483 376.691 172.483M383.786 195.787C382.262 197.747 379.734 199.232 376.529 199.232C369.691 199.232 366.364 192.742 366.364 186.979C366.364 180.021 370.454 175.569 376.094 175.569C382.74 175.569 386.063 181.256 386.063 187.736C386.064 190.586 385.539 193.507 383.786 195.787ZM417.099 173.551L417.285 173.75C417.285 173.75 419.184 174.026 419.184 177.392V177.524C419.177 177.614 419.177 177.705 419.177 177.806V193.132L402.433 173.551H394.659L394.832 173.743C394.832 173.743 396.729 174.022 396.729 177.356V198.016C396.729 201.356 394.832 201.616 394.832 201.616L394.659 201.824H402.168L401.968 201.615C401.968 201.615 400.083 201.342 400.083 198.016V179.093L419.861 202.059H422.512V177.391C422.512 174.026 424.415 173.75 424.415 173.75L424.616 173.551H417.099ZM240.122 201.651L239.932 201.859H250.027L250.012 201.851H251.701C255.462 201.851 260.42 201.726 264.475 198.003C266.789 195.844 268.833 192.198 268.833 187.363C268.833 182.312 266.545 177.589 261.913 175.312C258.667 173.71 254.748 173.589 253.225 173.589H250.02L250.027 173.585H239.932L240.122 173.774C240.122 173.774 242.003 174.044 242.003 177.387V198.047C242.003 201.385 240.122 201.651 240.122 201.651ZM247.942 177.387C247.942 177.098 247.964 176.841 247.999 176.591H250.784C253.699 176.591 259.672 176.72 262.112 182.555C262.787 184.154 263.029 185.881 263.029 187.601C263.029 192.241 260.984 196.967 255.109 198.406C253.82 198.72 252.304 198.848 250.975 198.848H247.998C247.96 198.582 247.941 198.314 247.941 198.046V177.387H247.942ZM120.124 201.673L119.929 201.857H130.048L129.865 201.673C129.865 201.673 127.966 201.376 127.966 198.04L127.992 176.309H132.628C135.964 176.309 137.568 178.746 137.568 178.746L137.764 178.894L137.782 173.257C137.782 173.257 137.304 173.583 133.971 173.583H116.035C112.694 173.583 112.227 173.258 112.227 173.258L112.212 178.894L112.4 178.746C112.4 178.746 113.928 176.309 117.259 176.309H122.009V198.04C122.009 201.377 120.124 201.673 120.124 201.673ZM161.315 201.673L161.123 201.857H171.249L171.049 201.673C171.049 201.673 169.161 201.376 169.161 198.04C169.161 194.708 169.142 180.671 169.142 177.343C169.142 173.999 171.034 173.758 171.034 173.758L171.224 173.572H161.112L161.289 173.756C161.289 173.756 163.188 173.999 163.188 177.343C163.188 180.671 163.203 185.45 163.203 185.45H149.275V177.343C149.275 173.999 151.178 173.774 151.178 173.774L151.358 173.582H141.256L141.449 173.774C141.449 173.774 143.333 173.999 143.333 177.343V198.04C143.333 201.375 141.449 201.673 141.449 201.673L141.256 201.857H151.358L151.178 201.673C151.178 201.673 149.275 201.376 149.275 198.04V188.22H163.203V198.04C163.203 201.377 161.315 201.673 161.315 201.673ZM111.979 198.042L99.5189 172.147L87.1509 198.042C85.3011 201.584 83.2531 201.665 83.2531 201.665L83.0722 201.857H91.5374L91.338 201.665C91.338 201.665 88.9749 201.19 90.474 198.042L92.6906 193.473H103.299L105.455 198.042C106.947 201.19 104.587 201.665 104.587 201.665L104.403 201.857H116.062L115.862 201.665C115.862 201.665 113.71 201.648 111.979 198.042ZM93.8574 191.072L98.2229 181.886L102.208 191.072H93.8574ZM202.708 177.387C203.632 178.794 208.366 185.408 210.917 189.264V198.04C210.917 201.375 209.022 201.673 209.022 201.673L208.837 201.857H218.949L218.756 201.673C218.756 201.673 216.879 201.376 216.879 198.04C216.879 196.629 216.853 193.116 216.853 189.264C219.413 185.408 224.148 178.821 225.081 177.412C227.279 174.076 229.8 173.774 229.8 173.774L229.993 173.582H221.108L221.308 173.774C221.308 173.774 223.803 174.474 221.923 177.412C220.998 178.836 218.213 182.827 215.676 186.677C213.124 182.825 210.382 178.806 209.461 177.385C207.573 174.442 210.09 173.772 210.09 173.772L210.277 173.58H198.616L198.8 173.772C198.799 173.775 200.495 174.047 202.708 177.387ZM281.269 201.626C281.269 201.626 279.37 201.363 279.37 198.027V190.025L283.717 190.032L288.81 199.385C289.738 201.161 290.894 201.85 292.39 201.85H297.344L297.172 201.647C295.844 201.139 295.536 200.523 293.988 197.635L289.404 189.079C289.675 188.964 289.951 188.84 290.214 188.691C292.996 187.174 294.693 184.379 294.693 181.688C294.693 179.407 293.759 175.359 287.472 173.934C286.063 173.617 284.502 173.577 282.447 173.577H279.368V173.568H271.365L271.384 173.58H271.365L271.561 173.774C271.561 173.774 273.441 174.041 273.441 177.38V198.026C273.441 201.361 271.561 201.625 271.561 201.625L271.365 201.834H271.384L271.365 201.85H281.459L281.444 201.835H281.459L281.269 201.626ZM280.715 176.277C282.34 176.277 284.021 176.277 285.038 176.583C287.684 177.322 289.036 178.928 289.036 181.909C289.037 183.005 288.719 184.077 288.121 184.996C287.524 185.915 286.672 186.64 285.67 187.084C284.874 187.448 284.367 187.665 281.131 187.665L279.371 187.66V176.277H280.715ZM319.422 201.665L319.228 201.859H330.853L330.668 201.665C330.668 201.665 328.516 201.638 326.785 198.058L314.367 172.227L302.027 198.058C300.177 201.587 298.155 201.664 298.155 201.664L297.962 201.859H306.406L306.222 201.665C306.222 201.665 303.84 201.205 305.343 198.058L307.563 193.486H318.132L320.292 198.058C321.786 201.205 319.422 201.664 319.422 201.664M308.724 191.097L313.086 181.934L317.048 191.097H308.724ZM210.428 242.938L207.241 248.885C206.126 250.859 205.574 251.719 204.504 251.719V251.998H207.188C207.833 251.998 209.653 251.915 210.832 249.795L214.016 243.841C215.125 241.867 215.672 241.003 216.761 241.003V240.725H214.065C213.427 240.725 211.604 240.811 210.428 242.938ZM232.287 234.849L232.062 234.628C231.048 233.576 230.369 233.003 229.534 232.778H231.263C232.789 232.778 234.021 233.482 234.021 234.35H234.2V230.755H231.113V227.743H231.263C232.789 227.743 234.021 228.444 234.021 229.331H234.2V225.717H231.113V225.02C231.113 224.469 231.551 223.454 232.275 223.454V223.26H226.289V223.454C227.006 223.454 227.443 224.468 227.443 225.02V225.717H223.105V225.02C223.105 224.469 223.532 223.454 224.233 223.454V223.26H218.275V223.454C218.982 223.454 219.432 224.468 219.432 225.02V225.717H216.234V229.331H216.414C216.414 228.444 217.651 227.743 219.176 227.743H219.433V230.755H216.235V234.348H216.415C216.415 233.482 217.652 232.778 219.177 232.778H220.97C220.134 233.003 219.457 233.574 218.435 234.628L218.217 234.849C217.409 235.67 216.806 237.015 215.292 237.015V237.19H218.875C219.979 237.19 220.133 237.205 222.016 235.233L222.249 235.017C222.949 234.266 224.02 233.136 225.248 232.9C226.478 233.137 227.535 234.268 228.264 235.017L228.481 235.235C230.377 237.204 230.516 237.19 231.619 237.19H235.209V237.017C233.697 237.017 233.1 235.67 232.287 234.849ZM223.108 227.744H227.444V230.756H223.108V227.744Z" fill="#B70031"/>
<path d="M232.367 249.377H222.103C221.331 249.377 220.915 248.842 220.915 248.174C220.915 246.893 220.942 245.989 220.942 245.989L230.287 245.98C232.239 245.98 234.188 244.445 234.188 242.21V237.681H215.695V237.859C216.559 237.859 217.29 238.787 217.29 240.645L217.249 248.509C217.249 250.192 218.33 251.506 220.6 251.506H233.884L234.909 247.869L234.659 247.896C234.42 249.002 233.885 249.377 232.367 249.377ZM220.961 239.701H230.501V241.932C230.472 243.606 230.008 243.955 228.327 243.955H220.961V239.701ZM256.008 231.665H248.537C247.006 231.665 245.767 230.957 245.767 230.096H245.593V233.696H258.956V230.096H258.771C258.771 230.957 257.532 231.665 256.008 231.665ZM255.283 223.456V223.264H249.311V223.456C249.914 223.456 250.329 224.055 250.437 225.08H245.157V228.664H245.336C245.336 227.8 246.58 227.1 248.101 227.1H256.575C258.114 227.1 259.346 227.8 259.346 228.663H259.519V225.08H254.152C254.254 224.055 254.673 223.456 255.283 223.456Z" fill="#B70031"/>
<path d="M248.013 230.166C248.376 231.187 249.216 231.203 250.283 231.203H251.597V231.116C251.25 231.116 250.794 230.825 250.572 230.166L250.138 228.836C249.799 227.807 248.95 227.807 247.868 227.807H246.594V227.901C246.918 227.901 247.367 228.196 247.59 228.839L248.013 230.166ZM256.632 230.134L257.067 228.812C257.281 228.152 257.718 227.867 258.055 227.867V227.773H256.781C255.703 227.773 254.856 227.773 254.512 228.811L254.07 230.132C253.862 230.788 253.415 231.085 253.071 231.085V231.167H254.378C255.441 231.167 256.293 231.167 256.632 230.134ZM215.939 230.609C214.805 230.609 214.225 229.756 213.059 227.759L211.756 225.516C210.506 223.399 208.593 223.303 207.901 223.303H205.059L205.056 223.588C206.209 223.588 206.786 224.452 207.951 226.438L209.247 228.678C210.49 230.815 212.423 230.891 213.098 230.891H215.939V230.609ZM211.73 233.56C210.476 231.433 208.557 231.329 207.872 231.329H205.037L205.034 231.629C206.187 231.629 206.76 232.5 207.928 234.478L209.221 236.722C210.472 238.851 212.405 238.946 213.068 238.946H215.917V238.668C214.775 238.668 214.191 237.793 213.019 235.819L211.73 233.56ZM248.192 234.963H244.848V235.155C245.725 235.155 246.518 236.098 246.518 237.959V243.625C246.518 248.508 246.136 251.853 244.287 251.853V252.029H246.518C249.194 252.029 249.706 249.455 249.798 245.915H255.019V247.902C255.019 248.868 254.973 249.894 253.367 249.894C252.503 249.894 252.013 249.657 251.328 248.883H251.147L252.907 252.028C253.495 252.118 253.807 252.159 254.626 252.159C255.44 252.159 258.328 252.178 258.328 247.901V234.962H248.192V234.963ZM249.826 243.955V241.596H255.02V243.955H249.826ZM250.675 237.169H255.019V239.622H249.825V237.169H250.675ZM272.538 249.377C270.988 249.377 266.235 249.441 265.602 249.441C264.849 249.441 264.422 248.894 264.422 248.235V247.598H269.736C271.264 247.598 272.496 248.182 272.496 249.069H272.691V245.582H264.407C264.407 244.987 264.4 244.327 264.4 243.65H271.264C272.787 243.65 273.766 244.235 273.766 245.1H273.951V241.624H264.381C264.381 240.95 264.37 240.281 264.37 239.657H271.245C272.765 239.657 273.751 240.231 273.751 241.119H273.944V237.622H264.355C264.355 236.535 264.351 235.82 264.351 235.82L269.507 235.807C271.456 235.807 273.533 234.403 273.533 232.164L273.458 229.284L265.602 229.292V227.026H271.359C272.89 227.026 274.111 227.727 274.111 228.599H274.296V224.989H265.601V224.936C265.601 224.382 266.035 223.363 266.736 223.363V223.17H260.781V223.363C261.489 223.363 261.923 224.383 261.923 224.936V229.293L259.994 229.298V232.909H260.167C260.167 232.035 261.392 231.314 262.923 231.314H269.851V231.628C269.851 233.052 269.734 233.72 268.049 233.72L260.781 233.708L260.743 248.557C260.743 250.238 261.836 251.56 264.091 251.56L274.053 251.501L275.078 247.864L274.821 247.891C274.578 249.001 274.054 249.377 272.538 249.377ZM177.276 246.478V246.275H173.729C172.689 246.275 171.584 246.075 170.055 248.072L168.385 250.211C167.711 251.083 167.053 251.823 165.637 251.823V252.006H169.142C170.176 252.006 171.258 252.178 172.821 250.211L174.498 248.073C175.184 247.202 175.852 246.478 177.276 246.478Z" fill="#B70031"/>
<path d="M182.769 238.74H176.818V238.916C177.53 238.916 177.957 239.937 177.957 240.504V247.765C177.957 248.735 177.934 249.758 176.672 249.758C175.815 249.758 175.316 249.516 174.631 248.745H174.449L176.206 251.884C176.772 251.976 177.346 252.018 177.92 252.01C178.726 252.01 181.625 252.026 181.625 247.764V240.503C181.625 239.934 182.063 238.915 182.77 238.915V238.74H182.769Z" fill="#B70031"/>
<path d="M169.342 243.616L169.567 243.837C171.436 245.896 172.447 245.63 173.492 245.63H177.216V245.458C175.798 245.458 175.063 244.705 174.273 243.837L174.044 243.616C172.134 241.56 171.15 241.825 170.112 241.825H166.359V242.021C167.772 242.021 168.542 242.744 169.342 243.616ZM191.161 250.211L189.472 248.074C187.966 246.075 186.838 246.275 185.813 246.275H182.281V246.478C183.671 246.478 184.361 247.203 185.035 248.074L186.713 250.211C188.281 252.178 189.355 252.008 190.379 252.008H193.899V251.824C192.486 251.824 191.839 251.084 191.161 250.211ZM188.908 237.537C187.126 236.162 186.22 235.546 185.486 235.267H191.504C193.013 235.267 194.252 235.984 194.252 236.848H194.428V233.256H181.625V230.904H189.287C190.822 230.904 192.043 231.608 192.043 232.485H192.239V228.881H181.625V226.835H190.958C192.478 226.835 193.698 227.53 193.698 228.405H193.884V224.81H181.623C181.623 224.247 182.062 223.233 182.769 223.233V223.051H176.818V223.233C177.527 223.233 177.953 224.247 177.953 224.808H165.649V228.405H165.822C165.822 227.53 167.061 226.835 168.577 226.835H177.954V228.881H167.303V232.485H167.488C167.488 231.607 168.713 230.904 170.233 230.904H177.953V233.255H165.104V236.848H165.278C165.278 235.984 166.51 235.267 168.026 235.267H174.054C173.312 235.546 172.417 236.163 170.624 237.537L169.302 238.593C166.238 240.851 166.166 240.866 165.081 240.866V241.074H169.234C170.677 241.074 171.286 241.052 174.439 238.593L175.758 237.537C178.448 235.438 178.66 235.291 179.769 235.285C180.874 235.291 181.076 235.44 183.769 237.537L185.09 238.593C188.242 241.053 188.849 241.074 190.292 241.074H194.457V240.865C193.351 240.865 193.292 240.851 190.228 238.593L188.908 237.537ZM182.32 245.629H186.043C187.072 245.629 188.091 245.896 189.979 243.838L190.204 243.616C190.99 242.746 191.765 242.021 193.178 242.021V241.824H189.424C188.388 241.824 187.407 241.56 185.497 243.616L185.254 243.837C184.459 244.705 183.742 245.458 182.321 245.458V245.629H182.32ZM124.775 223.416C125.649 223.416 126.356 225.293 126.356 226.808V248.509C126.356 250.035 125.648 251.271 124.783 251.271V251.451H149.9C151.163 251.449 152.373 250.946 153.265 250.053C154.158 249.16 154.66 247.95 154.661 246.688V223.235H124.775V223.416ZM130.026 225.248H150.988V246.417C150.951 248.102 149.614 249.44 147.94 249.44H130.026V225.248Z" fill="#B70031"/>
<path d="M140.159 240.543V233.498H131.449V243.355H137.332C137.703 243.357 138.07 243.286 138.413 243.145C138.756 243.004 139.067 242.798 139.33 242.536C139.593 242.275 139.801 241.964 139.944 241.622C140.086 241.28 140.159 240.913 140.159 240.543ZM137.247 240.543C137.245 240.752 137.16 240.953 137.011 241.1C136.862 241.247 136.661 241.33 136.451 241.331H134.382V235.516H137.247V240.543Z" fill="#B70031"/>
<path d="M149.861 247.474C148.369 246.886 147.912 246.31 147.037 243.219L146.299 240.426C147.029 238.894 147.772 237.369 148.527 235.85C149 234.85 149.288 234.022 150.143 233.679V233.498H145.782V233.621C146.524 233.896 146.61 234.61 145.738 236.392C145.621 236.626 145.509 236.848 145.405 237.063L143.789 231.002H146.865C148.946 231.002 149.538 231.713 149.617 232.199H149.807V228.983H148.002C148.732 227.362 149.009 226.938 149.616 226.879V226.684H145.148V226.807C145.797 227.051 145.916 227.651 145.344 228.983H143.228C142.89 227.651 143.135 227.073 143.816 226.819V226.703H138.131V226.887C139.382 227.133 139.712 227.962 140.001 228.983H131.399V232.199H131.575C131.654 231.713 132.25 231.002 134.327 231.002H140.528L143.269 241.472C141.761 244.463 140.872 245.509 138.712 245.509L134.202 245.501C132.611 245.501 131.514 245.087 131.039 244.378H130.861L132.659 247.521H138.913C141.254 247.521 142.832 246.499 144.123 244.595C144.635 246.144 145.295 247.599 147.44 247.599H149.859V247.474H149.861ZM351.466 225.564H341.992C341.992 224.223 342.429 223.402 343.122 223.402V223.221H337.183V223.402C337.895 223.402 338.33 224.224 338.33 225.565H324.71V225.738C325.589 225.738 326.296 227.629 326.296 229.142V231.61H329.968V227.584H349.535C350.499 227.584 351.781 227.436 351.377 229.135C351.127 230.271 350.853 231.608 350.853 231.608H354.486C354.486 231.608 354.897 229.877 355.104 228.911C355.91 225.248 352.555 225.565 351.466 225.565" fill="#B70031"/>
<path d="M332.895 235.336L336.107 231.666C337.471 230.097 338.032 229.404 339.352 229.404V229.182H336.011C334.58 229.182 333.984 229.197 331.843 231.666L328.641 235.336C327.278 236.909 326.716 237.587 325.403 237.587V237.827H328.731C330.169 237.827 330.764 237.799 332.895 235.336ZM351.845 249.478H341.936V241.019H350.38C351.883 241.019 353.114 241.738 353.114 242.599H353.307V239.011H326.902V242.599H327.076C327.076 241.736 328.3 241.019 329.828 241.019H338.265V249.478H328.363C326.84 249.478 325.601 248.77 325.601 247.898H325.425V251.498H354.773V247.898H354.58C354.582 248.77 353.358 249.478 351.845 249.478ZM351.563 235.336L348.355 231.666C346.22 229.197 345.621 229.182 344.182 229.182H340.859V229.404C342.171 229.404 342.718 230.097 344.096 231.666L347.294 235.336C349.432 237.8 350.027 237.827 351.466 237.827H354.79V237.587C353.494 237.587 352.922 236.909 351.563 235.335M300.186 229.203H300.372C300.372 228.336 301.594 227.63 303.105 227.63H311.564C313.084 227.63 314.319 228.336 314.319 229.203H314.499V225.601H309.128C309.128 224.27 309.562 223.456 310.27 223.456V223.264H304.33V223.456C305.02 223.456 305.472 224.27 305.472 225.601H300.185V229.203H300.186ZM313.411 249.873C312.396 249.873 312.494 248.283 312.494 247.645V234.156C312.494 232.887 312.732 229.378 308.884 229.378H302.624V243.627C302.624 248.509 302.239 251.836 300.4 251.836V252.012H302.624C305.779 252.012 305.942 248.386 305.942 243.819V231.58H307.291C308.991 231.58 309.148 232.93 309.183 234.61V247.446C309.183 248.894 309.032 252.157 312.014 252.157C312.892 252.157 313.585 251.836 313.948 251.73C314.491 250.434 315.14 248.96 315.14 248.96H314.97C314.971 248.96 314.448 249.874 313.411 249.874M290.97 228.801C291.306 228.801 291.759 229.373 291.977 230.721L292.419 233.437C292.764 235.553 293.187 235.56 294.276 235.56H295.568V235.361C295.228 235.361 294.785 234.781 294.558 233.436L294.116 230.721C293.787 228.621 293.344 228.602 292.266 228.602H290.97V228.801ZM294.275 247.202H295.567V247.014C295.227 247.014 294.785 246.429 294.556 245.08L294.115 242.37C293.776 240.261 293.343 240.251 292.265 240.251H290.969V240.427C291.305 240.427 291.758 241.018 291.976 242.371L292.417 245.082C292.766 247.19 293.185 247.203 294.275 247.203" fill="#B70031"/>
<path d="M300.973 240.476V236.888H299.2V224.849H292.023L292.087 224.744C292.862 223.425 293.632 222.852 294.012 222.852V222.664H291.506C290.316 222.664 289.817 222.671 288.611 224.744L287.039 227.41C286.259 228.734 285.495 229.299 285.109 229.299V229.476H287.417V236.886H285.634V240.475H285.822C285.822 239.831 286.466 239.31 287.417 239.064V243.628C287.417 248.509 287.032 251.837 285.191 251.837V252.009H287.392C290.583 252.009 290.714 248.385 290.714 243.82V238.897H295.89V247.881C295.89 248.854 295.829 249.879 294.245 249.879C293.381 249.879 292.899 249.641 292.213 248.87H292.036L293.774 252.008C294.355 252.094 294.687 252.139 295.497 252.139C296.311 252.139 299.199 252.155 299.199 247.88V239.063C300.133 239.309 300.776 239.831 300.776 240.473H300.973V240.476ZM295.891 236.888H290.716V227.051H295.891V236.888Z" fill="#B70031"/>
</svg>
