<svg width="480" height="320" viewBox="0 0 480 320" fill="none" xmlns="http://www.w3.org/2000/svg">
<path d="M71.1025 159.02C70.9341 159.042 70.7465 158.799 70.6666 158.684C70.6423 158.652 70.5502 158.455 70.5728 158.426C70.6092 158.398 70.8004 158.462 70.8507 158.504C70.9757 158.603 71.0764 158.742 71.1389 158.98C71.1407 159.008 71.1164 159.02 71.1025 159.02ZM67.0386 156.767C66.9239 156.809 66.6426 156.489 66.5644 156.371C66.4203 156.154 66.2744 155.913 66.1216 155.699C65.9792 155.51 65.8211 155.374 65.7846 155.043C65.7812 155.004 65.7586 154.905 65.7829 154.907C65.9375 154.919 66.0851 155.19 66.1632 155.296C66.2188 155.373 66.2849 155.449 66.3352 155.529C66.4116 155.645 66.4429 155.784 66.5228 155.894C66.62 156.026 66.7381 156.151 66.8423 156.284C66.8979 156.356 66.9726 156.418 67.0072 156.515C67.0229 156.566 67.0716 156.75 67.0386 156.767ZM65.875 156.722C65.7881 156.715 65.7516 156.661 65.6978 156.621C65.5553 156.515 65.4355 156.345 65.4321 156.098C65.4287 156.074 65.439 156.067 65.4564 156.067C65.6266 156.065 65.7985 156.328 65.8646 156.449C65.8836 156.486 65.9288 156.585 65.9219 156.654C65.9219 156.701 65.901 156.722 65.875 156.722ZM62.0072 157.504C62.0003 157.523 61.9864 157.545 61.9586 157.547C61.7745 157.542 61.7189 157.267 61.6391 157.142C61.573 157.036 61.514 156.923 61.4462 156.817C61.3976 156.746 61.3369 156.67 61.2969 156.586C61.2465 156.481 61.2239 156.368 61.1614 156.272C61.1302 156.222 61.0781 156.178 61.0416 156.131C60.9409 155.996 60.8505 155.854 60.7863 155.683C60.7724 155.623 60.755 155.564 60.7411 155.503C60.703 155.4 60.6561 155.287 60.6213 155.178C60.6022 155.124 60.5918 155.011 60.6022 154.973C60.6109 154.957 60.6178 154.945 60.6318 154.949C60.7724 154.97 60.9078 155.312 60.9773 155.439C61.0538 155.572 61.1719 155.68 61.2378 155.817C61.2969 155.944 61.3177 156.102 61.3838 156.223C61.4375 156.317 61.5244 156.392 61.5835 156.482C61.6582 156.599 61.712 156.75 61.771 156.878C61.837 157.024 61.9325 157.137 61.9898 157.278C62.0142 157.337 62.0228 157.439 62.0072 157.504ZM61.29 152.232C61.2535 152.168 61.2152 152.092 61.1892 152.024C61.1597 151.946 61.1562 151.875 61.125 151.8C61.0155 151.559 60.8939 151.293 60.7863 151.055C60.7394 150.954 60.6769 150.768 60.7203 150.642C60.7272 150.624 60.7637 150.635 60.7793 150.652C60.8158 150.685 60.8419 150.706 60.8731 150.742C60.8957 150.777 60.901 150.815 60.9253 150.85C60.979 150.932 61.0502 151.013 61.0902 151.105C61.1805 151.302 61.2049 151.52 61.2951 151.711C61.3525 151.837 61.4497 151.946 61.514 152.073C61.5453 152.144 61.5661 152.217 61.587 152.29C61.6008 152.345 61.5973 152.42 61.6008 152.463C61.6025 152.529 61.5957 152.569 61.573 152.573C61.4028 152.562 61.3525 152.354 61.29 152.232ZM98.0514 168.516C97.8378 167.729 95.5296 168.068 93.6314 167.894C91.9033 167.736 89.6873 167.427 87.0231 166.502C84.5291 165.637 82.1185 164.647 80.0153 163.509C80.0153 163.509 79.1661 163.061 79.0758 163.011C78.9003 162.905 78.7632 162.828 78.5912 162.721C78.4887 162.66 78.3308 162.566 78.2161 162.516C78.0684 162.455 77.9695 162.375 77.8427 162.297C77.7124 162.215 77.5353 162.13 77.4033 162.052C77.2105 161.932 77.0906 161.84 76.9083 161.71C76.7955 161.625 76.7381 161.6 76.5871 161.508C76.4967 161.455 76.3317 161.366 76.2518 161.312C76.0834 161.201 75.9757 161.109 75.8055 160.991C75.7031 160.918 75.6266 160.873 75.5034 160.796C75.3817 160.722 75.2637 160.626 75.1577 160.548C75.1004 160.503 75.0101 160.452 74.958 160.397C74.8371 160.282 74.7113 160.172 74.5811 160.067C74.463 159.978 74.35 159.869 74.2355 159.78C74.1608 159.726 74.034 159.621 73.9611 159.567C73.7701 159.43 73.6502 159.327 73.4609 159.19C73.3393 159.1 73.2368 158.98 73.1153 158.889C72.9798 158.789 72.8548 158.672 72.7142 158.572C72.6238 158.509 72.5196 158.429 72.4501 158.358C72.3599 158.249 72.2747 158.174 72.1792 158.066C72.1097 157.99 71.976 157.905 71.8978 157.827C71.7832 157.677 71.6165 157.519 71.4602 157.403C71.3681 157.318 71.3404 157.278 71.3039 157.233C71.2778 157.194 71.2431 157.151 71.1684 157.069C71.0937 156.993 71.0659 156.972 71.0364 156.939C71.0017 156.911 70.9617 156.875 70.8593 156.774C70.828 156.741 70.7742 156.666 70.7204 156.593C70.6735 156.529 70.63 156.465 70.5988 156.432C70.5068 156.335 70.4459 156.267 70.38 156.197C70.3265 156.144 70.2739 156.089 70.2219 156.034C70.1854 155.994 70.1576 155.947 70.1246 155.904C70.0985 155.86 70.069 155.818 70.0361 155.779C69.9805 155.718 69.9371 155.739 69.9266 155.746C69.8936 155.768 69.8797 155.834 69.9162 155.913C69.9666 156.005 70.0361 156.107 70.0794 156.166C70.0899 156.18 70.0986 156.192 70.1038 156.199C70.1212 156.229 70.1368 156.256 70.1542 156.286C70.1785 156.329 70.2046 156.376 70.2358 156.418C70.3071 156.514 70.3817 156.593 70.4563 156.668C70.4825 156.692 70.5068 156.719 70.5294 156.745C70.5797 156.797 70.6178 156.852 70.656 156.911C70.6978 156.969 70.7412 157.031 70.795 157.09C70.8211 157.115 70.8436 157.146 70.8628 157.173C70.8871 157.205 70.9114 157.24 70.9392 157.267C70.9826 157.309 71.0243 157.351 71.0659 157.392C71.133 157.465 71.2038 157.534 71.2778 157.599C71.3317 157.644 71.3856 157.702 71.441 157.755C71.5817 157.924 71.7363 158.092 71.8631 158.254C71.9343 158.344 72.0681 158.412 72.1497 158.474C72.24 158.542 72.3112 158.66 72.3825 158.75C72.438 158.816 72.5596 158.924 72.6169 158.994C72.7576 159.174 72.8549 159.271 73.0407 159.41C73.1535 159.49 73.2387 159.568 73.3255 159.676C73.3775 159.744 73.5373 159.898 73.5981 159.973C73.751 160.168 73.8204 160.35 73.7978 160.355C73.6936 160.383 73.4401 160.159 73.289 160.062C73.1656 159.977 73.1449 159.944 73.0267 159.855C73.0007 159.832 72.8131 159.702 72.7489 159.621C72.6985 159.575 72.5596 159.424 72.5161 159.372C72.3043 159.101 72.2331 159.086 71.9899 158.848C71.8128 158.674 71.5922 158.519 71.4203 158.365C71.3675 158.311 71.3165 158.255 71.2674 158.198C71.2102 158.141 71.1389 158.089 71.0868 158.032C71.0052 157.931 70.8975 157.731 70.802 157.66C70.7012 157.582 70.6266 157.51 70.5241 157.434C70.4876 157.41 70.4563 157.363 70.4182 157.333C70.3678 157.299 70.3105 157.257 70.2723 157.21C70.1542 157.059 70.0395 156.904 69.9162 156.753C69.8624 156.68 69.7842 156.621 69.7304 156.547C69.6158 156.383 69.5185 156.217 69.4022 156.064C69.2372 155.85 69.0027 155.697 68.8447 155.482C68.6815 155.26 68.5842 155.003 68.4314 154.77C68.3653 154.669 68.2628 154.598 68.19 154.502C68.1483 154.447 68.1257 154.383 68.0857 154.322C68.0041 154.197 67.9086 154.075 67.8252 153.957C67.7176 153.797 67.6446 153.625 67.5351 153.457C67.5195 153.434 67.4814 153.321 67.4136 153.238C67.3493 153.156 67.2921 153.063 67.2191 152.943C67.1427 152.826 67.108 152.748 67.0541 152.668C67.0003 152.585 66.9656 152.509 66.9291 152.453C66.8944 152.394 66.8162 152.288 66.7884 152.246C66.6894 152.094 66.6616 152.022 66.5591 151.882C66.4966 151.795 66.4272 151.724 66.3681 151.744C66.3229 151.778 66.3403 151.831 66.3507 151.87C66.3959 151.995 66.3959 151.972 66.4445 152.062C66.5278 152.212 66.5574 152.283 66.646 152.42C66.6859 152.486 66.7571 152.635 66.8144 152.715C66.87 152.799 66.9291 152.898 66.9673 152.965C67.0107 153.038 67.0715 153.229 67.1322 153.309C67.1757 153.367 67.2382 153.483 67.2817 153.566C67.3667 153.737 67.4744 153.87 67.563 154.002C67.622 154.112 67.6811 154.226 67.7384 154.334C67.8565 154.511 67.9972 154.676 68.1118 154.858C68.183 154.985 68.2524 155.112 68.3219 155.239C68.3931 155.343 68.4886 155.432 68.5564 155.537C68.6397 155.664 68.6849 155.803 68.7682 155.928C68.8342 156.026 68.9177 156.119 68.9836 156.217C69.0965 156.383 69.1972 156.548 69.3153 156.708C69.3814 156.795 69.4665 156.868 69.5307 156.956C69.6193 157.076 69.6904 157.219 69.7825 157.319C69.8936 157.424 69.9249 157.486 70.0118 157.585C70.1402 157.743 70.4616 158.195 70.406 158.198C70.2184 158.224 69.8554 157.813 69.7026 157.663C69.5845 157.545 69.4526 157.462 69.3709 157.351C69.2493 157.187 69.1608 157.003 69.0392 156.845C68.9958 156.786 68.9298 156.743 68.8864 156.687C68.803 156.58 68.7232 156.465 68.6276 156.371C68.5876 156.333 68.5442 156.298 68.5077 156.255C68.3602 156.065 68.2351 155.862 68.0927 155.664C68.0302 155.584 67.9537 155.513 67.893 155.435C67.8478 155.371 67.82 155.301 67.78 155.232C67.7227 155.143 67.6464 155.058 67.589 154.97C67.5456 154.904 67.5195 154.838 67.4744 154.77C67.3962 154.652 67.2921 154.549 67.2139 154.429C67.1531 154.332 67.1357 154.205 67.0715 154.106C66.91 153.86 66.7345 153.608 66.5765 153.361C66.5348 153.297 66.5175 153.226 66.4792 153.163C66.349 152.96 66.2292 152.741 66.1006 152.542C66.0537 152.467 66.0346 152.382 65.9877 152.309C65.9287 152.219 65.8384 152.147 65.7794 152.061C65.7342 151.991 65.7151 151.915 65.6803 151.837C65.6334 151.731 65.5675 151.628 65.5137 151.529C65.4806 151.468 65.4633 151.406 65.425 151.348C65.2704 151.107 65.1437 150.852 65.0187 150.584C64.9526 150.447 64.8555 150.319 64.7911 150.178C64.7164 150.023 64.6453 149.865 64.5775 149.716C64.5382 149.614 64.5011 149.512 64.4664 149.409C64.3916 149.249 64.2753 149.112 64.2041 148.945C64.1537 148.832 64.126 148.728 64.0791 148.632C64.0495 148.575 63.994 148.526 63.954 148.552C63.9123 148.577 63.9071 148.627 63.9332 148.716C63.9818 148.886 64.0756 149.079 64.119 149.176C64.2076 149.367 64.2527 149.567 64.3396 149.761C64.3848 149.871 64.4577 149.973 64.5063 150.077C64.5913 150.263 64.673 150.449 64.7582 150.624C64.8051 150.727 64.8432 150.826 64.8989 150.923C64.9266 150.973 64.9718 151.031 64.9944 151.086C65.0499 151.211 65.0656 151.343 65.1229 151.461C65.1819 151.585 65.2775 151.687 65.3348 151.807C65.6283 152.432 65.9235 153.028 66.2778 153.582C66.375 153.737 66.4272 153.924 66.5261 154.077C66.6286 154.238 66.7692 154.36 66.8701 154.516C66.9551 154.647 66.976 154.827 67.0541 154.966C67.1653 155.175 67.3181 155.35 67.445 155.546C67.4778 155.602 67.4883 155.663 67.523 155.72C67.5699 155.795 67.6325 155.867 67.6811 155.944C67.7436 156.046 67.7766 156.163 67.8478 156.257C67.9225 156.361 68.0302 156.444 68.1048 156.55C68.1969 156.677 68.2628 156.826 68.3602 156.956C68.4261 157.045 68.5303 157.108 68.5981 157.198C68.7057 157.339 69.0791 157.828 69.1868 157.965C69.35 158.176 69.6453 158.485 69.7808 158.761C69.8242 158.846 69.9718 159.049 69.9405 159.089C69.8624 159.141 69.4925 158.737 69.43 158.678C69.2754 158.53 69.1416 158.325 69.008 158.155C68.9749 158.117 68.6206 157.771 68.5911 157.733C68.5558 157.687 68.5217 157.64 68.4887 157.592C68.3896 157.444 68.3289 157.267 68.2247 157.128C68.1795 157.069 68.1118 157.026 68.0701 156.969C67.9885 156.861 67.9329 156.739 67.8512 156.63C67.728 156.456 67.5647 156.303 67.4379 156.131C67.3025 155.944 67.2034 155.722 67.0628 155.534C66.9933 155.442 66.9048 155.36 66.8388 155.26C66.8092 155.216 66.7988 155.173 66.7692 155.128C66.7189 155.051 66.6512 154.964 66.613 154.881C66.5765 154.801 66.5504 154.726 66.5053 154.655C66.3594 154.428 66.2136 154.186 66.0693 153.959C66.0017 153.856 65.9652 153.747 65.901 153.644C65.7915 153.476 65.6526 153.325 65.5449 153.155C65.4164 152.953 65.3469 152.71 65.2149 152.509C65.1315 152.375 65.0326 152.252 64.9492 152.118C64.8554 151.974 64.8102 151.805 64.7252 151.656C64.6522 151.522 64.5532 151.399 64.489 151.267C64.4177 151.121 64.3709 150.979 64.3014 150.828C64.2631 150.748 64.2041 150.666 64.1694 150.586C64.1225 150.482 64.1139 150.379 64.0652 150.282C63.9401 150.002 63.7508 149.739 63.6188 149.459C63.5252 149.259 63.4406 149.055 63.3653 148.848C63.3236 148.733 63.3045 148.624 63.2524 148.518C63.136 148.261 62.9936 147.991 62.8825 147.74C62.8339 147.602 62.787 147.469 62.7365 147.333C62.7279 147.295 62.7227 147.258 62.7088 147.217C62.6549 147.097 62.5837 146.979 62.5368 146.863C62.495 146.724 62.4516 146.585 62.4066 146.447C62.2277 145.999 62.0662 145.492 61.896 145.025C61.8752 144.942 61.8699 144.834 61.837 144.742C61.7477 144.504 61.6603 144.264 61.5747 144.025C61.5243 143.903 61.4097 143.943 61.4357 144.068C61.4705 144.231 61.4913 144.273 61.5208 144.403C61.533 144.471 61.5452 144.535 61.5591 144.601C61.5799 144.681 61.6198 144.765 61.6407 144.841C61.6876 144.985 61.691 145.126 61.7379 145.263C61.8092 145.456 61.8786 145.643 61.9429 145.841C61.9585 145.94 61.9811 146.039 62.0002 146.14C62.0297 146.232 62.0679 146.328 62.1009 146.411C62.1999 146.656 62.2955 146.892 62.3805 147.132C62.417 147.271 62.4535 147.408 62.4865 147.547C62.5229 147.623 62.5768 147.701 62.6098 147.776C62.641 147.844 62.648 147.906 62.6758 147.978C62.7383 148.132 62.7939 148.29 62.8651 148.448C62.9241 148.577 62.9936 148.707 63.0439 148.844C63.0683 148.912 63.0683 148.969 63.0926 149.035C63.242 149.445 63.4035 149.874 63.5806 150.263C63.624 150.359 63.6362 150.459 63.6814 150.557C63.7161 150.64 63.7681 150.727 63.8046 150.807C63.822 150.859 63.8411 150.913 63.8585 150.965C63.9123 151.079 64.0061 151.173 64.0599 151.288C64.2111 151.605 64.3465 151.91 64.5375 152.18C64.713 152.434 64.7911 152.767 64.9197 153.068C64.9874 153.21 65.069 153.332 65.1506 153.455C65.1906 153.521 65.2149 153.594 65.2496 153.665C65.3364 153.822 65.3834 153.957 65.4859 154.096C65.5675 154.211 65.5605 154.235 65.63 154.395C65.6491 154.442 65.7272 154.74 65.7116 154.74C65.6856 154.758 65.5379 154.669 65.4876 154.614C65.4215 154.539 65.3139 154.438 65.2427 154.277C65.2045 154.195 65.1315 154.054 65.0933 153.976C65.0012 153.778 64.8432 153.61 64.7286 153.427C64.6608 153.321 64.6244 153.205 64.5671 153.09C64.4715 152.88 64.3604 152.668 64.2579 152.451C64.2145 152.361 64.152 152.274 64.1016 152.194C64.0461 152.111 64.0217 152.022 63.9679 151.937C63.8515 151.755 63.7196 151.55 63.6258 151.35C63.5562 151.203 63.5198 151.055 63.4538 150.911C63.4313 150.866 63.3948 150.821 63.3653 150.777C63.3184 150.702 63.2992 150.621 63.2576 150.537C63.2055 150.428 63.1274 150.32 63.0752 150.207C62.9693 149.98 62.9086 149.744 62.8043 149.52C62.7522 149.415 62.6688 149.325 62.6202 149.221C62.5438 149.061 62.5369 148.86 62.4605 148.693C62.2642 148.248 62.0367 147.792 61.8699 147.328C61.8439 147.25 61.8334 147.159 61.8091 147.078C61.7362 146.876 61.6407 146.689 61.5678 146.491C61.5348 146.401 61.5243 146.317 61.4913 146.225C61.4427 146.091 61.3784 145.949 61.3298 145.812C61.3176 145.767 61.3107 145.718 61.2933 145.671C61.2325 145.544 61.1978 145.391 61.1387 145.258C61.1057 145.188 61.0571 145.117 61.0294 145.042C60.9825 144.909 60.9964 144.74 60.9478 144.615C60.88 144.426 60.8 144.221 60.7323 144.035C60.6907 143.926 60.6837 143.821 60.6456 143.71C60.6008 143.58 60.5545 143.45 60.5066 143.321C60.4614 143.193 60.4632 143.054 60.4198 142.918C60.3885 142.814 60.345 142.708 60.3103 142.611C60.2461 142.429 60.2183 142.236 60.1506 142.066C60.1402 142.034 60.128 142.001 60.1176 141.972C60.1002 141.925 60.069 141.88 60.0221 141.894C59.9682 141.908 59.9682 141.975 59.9717 142.02C59.9821 142.156 60.0325 142.278 60.069 142.387C60.1141 142.502 60.1349 142.625 60.1662 142.734C60.1836 142.806 60.1818 142.882 60.1992 142.957C60.2218 143.064 60.2634 143.167 60.2913 143.273C60.3173 143.377 60.3034 143.479 60.3277 143.561C60.3955 143.789 60.4718 144.045 60.5483 144.263C60.5795 144.376 60.5848 144.506 60.6196 144.603C60.6611 144.718 60.7046 144.834 60.7445 144.95C60.7828 145.048 60.7897 145.14 60.8296 145.232C60.873 145.327 60.9217 145.428 60.9582 145.537C61.0015 145.678 60.9964 145.817 61.0449 145.951C61.1248 146.166 61.2238 146.371 61.2968 146.578C61.3212 146.654 61.3298 146.736 61.3559 146.812C61.4201 146.991 61.4653 147.184 61.5313 147.364C61.6251 147.621 61.7449 147.873 61.8387 148.127C61.9289 148.377 61.9429 148.677 62.0471 148.912C62.1009 149.028 62.2121 149.098 62.2625 149.211C62.2989 149.282 62.2885 149.365 62.3128 149.45C62.3424 149.546 62.3875 149.643 62.424 149.732C62.4448 149.813 62.4656 149.891 62.4882 149.97C62.5212 150.065 62.5872 150.161 62.6289 150.253C62.6984 150.402 62.7331 150.558 62.8164 150.692C62.8842 150.793 62.9659 150.887 63.0214 150.999C63.0787 151.123 63.0995 151.256 63.1568 151.387C63.2419 151.578 63.3427 151.76 63.4139 151.958C63.4816 152.139 63.506 152.33 63.591 152.489C63.6779 152.646 63.7838 152.787 63.8689 152.941C63.9227 153.059 63.9766 153.176 64.0322 153.292C64.0755 153.386 64.1607 153.467 64.2145 153.566C64.2807 153.684 64.3421 153.805 64.3986 153.928C64.4421 154.021 64.4577 154.106 64.5097 154.186C64.5845 154.31 64.6418 154.409 64.7234 154.53C64.7911 154.64 64.871 154.779 64.9196 154.907C64.9579 155.004 64.9978 155.107 65.0534 155.188C65.1142 155.272 65.1923 155.346 65.2427 155.439C65.293 155.529 65.3642 155.822 65.3382 155.836C65.274 155.859 65.0933 155.687 65.0447 155.626C64.9023 155.454 64.8328 155.221 64.7026 155.039C64.5636 154.839 64.4768 154.728 64.3673 154.501C64.3066 154.37 64.1972 154.134 64.1225 154.018C64.0478 153.908 63.954 153.809 63.8966 153.688C63.8515 153.585 63.8289 153.464 63.7838 153.363C63.7161 153.219 63.5789 153.123 63.5094 152.972C63.4295 152.806 63.3948 152.634 63.3097 152.477C63.268 152.401 63.2142 152.316 63.1777 152.236C63.1291 152.137 63.1065 152.04 63.0596 151.939C62.9641 151.734 62.8199 151.562 62.7279 151.359C62.6272 151.15 62.5732 150.925 62.4709 150.715C62.4187 150.6 62.3249 150.503 62.2712 150.388C62.1999 150.237 62.1634 150.079 62.0922 149.926C62.0471 149.834 61.9828 149.744 61.9393 149.653C61.8786 149.521 61.856 149.377 61.7935 149.24C61.6548 148.925 61.5147 148.611 61.3732 148.297C61.3212 148.177 61.3072 148.054 61.2534 147.932C61.2015 147.826 61.1483 147.721 61.0936 147.616C60.9755 147.344 60.9321 147.024 60.8088 146.75C60.7463 146.609 60.6698 146.477 60.6125 146.328C60.5258 146.091 60.4944 145.848 60.4059 145.607C60.2738 145.239 60.1679 144.855 60.0359 144.49C59.996 144.381 59.9925 144.273 59.9509 144.158C59.9123 144.052 59.8729 143.945 59.8328 143.839C59.8049 143.75 59.7876 143.627 59.765 143.516C59.666 143.205 59.567 142.894 59.4698 142.58C59.4455 142.505 59.4419 142.371 59.4159 142.276C59.4003 142.222 59.3707 142.159 59.35 142.109C59.3274 142.038 59.3274 141.977 59.3048 141.902C59.2318 141.675 59.171 141.409 59.0981 141.182C59.0772 141.11 59.0703 141.008 59.0478 140.928C58.947 140.603 58.8966 140.206 58.7647 139.905C58.7438 139.846 58.7056 139.784 58.6483 139.799C58.591 139.813 58.6031 139.879 58.6083 139.933C58.6257 140.081 58.6813 140.207 58.7056 140.331C58.716 140.386 58.716 140.463 58.7195 140.529C58.7264 140.584 58.7334 140.652 58.7507 140.711C58.8116 140.904 58.8828 141.131 58.9383 141.321C58.9574 141.413 58.9401 141.555 58.9661 141.661C59.0494 141.968 59.1102 142.335 59.2215 142.611C59.3238 142.863 59.343 143.165 59.4159 143.438C59.4368 143.556 59.4437 143.676 59.4611 143.794C59.4802 143.908 59.5427 143.986 59.5774 144.082C59.6052 144.153 59.6018 144.214 59.6295 144.289C59.6868 144.485 59.7337 144.678 59.8032 144.876C59.8518 145.013 59.9266 145.141 59.9752 145.273C59.9942 145.334 59.989 145.388 60.0046 145.454C60.0394 145.591 60.062 145.727 60.1002 145.86C60.1975 146.13 60.2895 146.421 60.385 146.687C60.4388 146.836 60.4563 146.981 60.5066 147.125C60.7202 147.705 60.9356 148.28 61.1457 148.853C61.1805 148.981 61.217 149.11 61.2499 149.237C61.2968 149.365 61.3732 149.475 61.4271 149.591C61.4966 149.74 61.5173 149.897 61.5764 150.055C61.6407 150.24 61.7293 150.383 61.8004 150.576C61.8334 150.666 61.8665 150.768 61.9082 150.859C61.9394 150.925 61.9967 150.989 62.0297 151.057C62.087 151.17 62.0957 151.314 62.1495 151.428C62.2069 151.543 62.3024 151.639 62.3701 151.743C62.4292 151.843 62.4361 151.97 62.4865 152.083C62.5664 152.259 62.6688 152.42 62.7452 152.606C62.7765 152.684 62.7904 152.754 62.8251 152.828C62.8651 152.913 62.9294 152.995 62.9693 153.085C62.9693 153.085 62.9727 153.085 62.9762 153.094C62.9797 153.106 62.9867 153.123 62.9884 153.143C62.9989 153.177 63.011 153.222 63.0232 153.255C63.0405 153.304 63.0961 153.394 63.1187 153.427C63.1325 153.445 63.1743 153.49 63.2054 153.532C63.2212 153.547 63.235 153.566 63.2506 153.587C63.3253 153.707 63.3339 153.875 63.3965 154.009C63.4591 154.136 63.5684 154.24 63.631 154.374C63.6814 154.475 63.7057 154.726 63.6449 154.737C63.3844 154.737 63.3653 154.372 63.2784 154.181C63.2072 154.032 63.103 153.908 63.0249 153.766C63.0075 153.738 62.9832 153.681 62.9658 153.622C62.9499 153.572 62.9302 153.523 62.9068 153.476C62.8738 153.407 62.8738 153.417 62.8512 153.367C62.8269 153.318 62.754 153.226 62.7331 153.182C62.7309 153.18 62.7297 153.177 62.7297 153.174C62.6289 153.014 62.5629 152.787 62.4917 152.677C62.4517 152.618 62.3997 152.557 62.3597 152.496C62.2955 152.392 62.2607 152.269 62.2085 152.154C62.16 152.052 62.0818 151.949 62.0332 151.84C61.9758 151.711 61.9724 151.55 61.9099 151.42C61.8803 151.348 61.823 151.277 61.7883 151.211C61.7153 151.062 61.6719 150.904 61.599 150.758C61.566 150.687 61.5017 150.621 61.467 150.55C61.4097 150.425 61.3784 150.293 61.3141 150.178C61.1769 149.931 61.0294 149.659 60.9181 149.398C60.8505 149.245 60.8262 149.091 60.7619 148.943C60.7046 148.813 60.6247 148.686 60.5673 148.563C60.5257 148.481 60.517 148.398 60.484 148.306C60.4284 148.162 60.3642 148.012 60.3103 147.868C60.2791 147.767 60.2531 147.55 60.2218 147.463C60.1818 147.354 60.1263 147.236 60.0794 147.128C60.0064 146.97 59.9856 146.804 59.9144 146.644C59.8588 146.519 59.798 146.39 59.7529 146.263C59.7129 146.156 59.7025 146.055 59.6591 145.956C59.6261 145.879 59.5809 145.794 59.5531 145.716C59.5167 145.622 59.4924 145.468 59.4646 145.343C59.4176 145.206 59.3603 145.075 59.3186 144.94C59.2927 144.837 59.2891 144.605 59.2665 144.542C59.1207 144.122 58.9887 143.672 58.8549 143.252C58.7942 143.057 58.7647 142.863 58.7108 142.675C58.6917 142.597 58.6899 142.502 58.6691 142.425C58.6309 142.304 58.5806 142.178 58.5424 142.054C58.5215 141.968 58.5076 141.882 58.4919 141.798C58.4729 141.711 58.426 141.621 58.3913 141.534C58.3114 141.281 58.2662 141.011 58.1915 140.763C58.1672 140.661 58.1672 140.527 58.1394 140.433C58.0404 140.127 58.0196 139.771 57.9292 139.45C57.9085 139.356 57.8963 139.263 57.8737 139.177C57.7156 138.577 57.6444 137.903 57.4691 137.326C57.436 137.215 57.4794 137.074 57.45 136.954C57.4161 136.83 57.379 136.706 57.3388 136.583C57.3215 136.52 57.3197 136.473 57.3093 136.418C57.278 136.321 57.2345 136.242 57.1808 136.255C57.1165 136.274 57.1303 136.333 57.1321 136.414C57.139 136.55 57.1529 136.661 57.179 136.769C57.2015 136.861 57.1859 136.937 57.212 137.019C57.2676 137.204 57.285 137.469 57.3179 137.639C57.3283 137.708 57.3179 137.804 57.3318 137.885C57.3509 137.972 57.4169 138.083 57.4343 138.177C57.4534 138.3 57.4517 138.462 57.4707 138.597C57.4951 138.71 57.5298 138.82 57.5594 138.926C57.5837 139.018 57.5663 139.106 57.5941 139.191C57.6201 139.28 57.6671 139.367 57.6844 139.464C57.6983 139.57 57.6826 139.725 57.7052 139.82C57.8407 140.348 57.8806 140.973 58.0352 141.479C58.0543 141.552 58.0578 141.63 58.0752 141.703C58.2037 142.147 58.3026 142.62 58.4364 143.059C58.4538 143.127 58.452 143.198 58.4694 143.274C58.5128 143.429 58.5493 143.596 58.584 143.75C58.5997 143.825 58.5979 143.891 58.6187 143.96C58.6639 144.122 58.7195 144.278 58.7733 144.438C58.7924 144.518 58.8011 144.594 58.815 144.671C58.8289 144.732 58.8602 144.801 58.8792 144.86C58.9071 144.952 58.8984 145.041 58.9261 145.126C58.947 145.174 58.987 145.23 58.9992 145.282C59.0199 145.378 59.0321 145.471 59.0582 145.563C59.0964 145.675 59.1554 145.784 59.2006 145.893C59.2353 145.985 59.2353 146.079 59.2701 146.17C59.3326 146.322 59.4003 146.506 59.4611 146.673C59.5097 146.809 59.5167 146.948 59.5653 147.085C59.5983 147.177 59.6417 147.271 59.673 147.361C59.6938 147.43 59.706 147.5 59.7303 147.575C59.7529 147.639 59.8258 147.743 59.8727 147.832C59.9126 147.927 59.8935 148.057 59.923 148.162C59.956 148.267 60.0151 148.353 60.0515 148.45C60.0846 148.549 60.0828 148.655 60.1106 148.756C60.1384 148.834 60.1922 148.908 60.2235 148.981C60.2548 149.068 60.286 149.152 60.3173 149.237C60.3416 149.29 60.3885 149.35 60.4163 149.402C60.4614 149.499 60.4996 149.608 60.5396 149.709C60.5969 149.851 60.6021 150.029 60.6473 150.195C60.6594 150.244 60.6559 150.357 60.6299 150.369C60.5622 150.381 60.4875 150.275 60.4424 150.211C60.3642 150.1 60.2895 149.978 60.2322 149.846C60.2114 149.796 60.2009 149.749 60.1836 149.697C60.1402 149.587 60.1071 149.461 60.0568 149.351C60.0272 149.282 59.9821 149.209 59.9578 149.136C59.923 149.03 59.9387 148.905 59.897 148.813C59.8622 148.736 59.7998 148.674 59.765 148.598C59.7407 148.526 59.7268 148.453 59.6973 148.382C59.6591 148.297 59.6087 148.222 59.5601 148.141C59.5253 148.063 59.5306 147.986 59.5028 147.894C59.4732 147.785 59.4385 147.677 59.3916 147.578C59.3464 147.477 59.2874 147.377 59.2422 147.272C59.2215 147.215 59.211 147.156 59.1953 147.099C59.1676 147.021 59.1259 146.937 59.0964 146.861C59.079 146.802 59.0634 146.741 59.039 146.685C59.0026 146.6 58.9574 146.505 58.9227 146.411C58.8967 146.336 58.8932 146.255 58.8654 146.18C58.8185 146.046 58.7733 145.897 58.7264 145.767C58.6986 145.666 58.6899 145.563 58.6587 145.461C58.6205 145.343 58.5685 145.225 58.525 145.105C58.4919 145.009 58.4833 144.907 58.4554 144.808C58.4103 144.681 58.3461 144.563 58.3027 144.429C58.2766 144.322 58.2715 144.214 58.2489 144.113C58.1759 143.865 58.096 143.591 58.0178 143.335C57.9276 143.052 57.9189 142.731 57.8373 142.444C57.7782 142.239 57.7052 142.041 57.6427 141.84C57.6201 141.734 57.6167 141.637 57.5907 141.536C57.5274 141.279 57.4555 141.025 57.3752 140.774C57.3371 140.648 57.3492 140.52 57.3128 140.386C57.2763 140.251 57.2746 140.091 57.2312 139.947C57.2034 139.86 57.1704 139.796 57.1495 139.683C57.1252 139.57 57.1269 139.438 57.1113 139.353C57.0956 139.268 56.9498 138.768 56.9324 138.674C56.915 138.582 56.915 138.412 56.9046 138.351C56.8942 138.311 56.8196 138.095 56.8108 138.038C56.8004 137.983 56.8004 137.918 56.7795 137.807C56.7552 137.696 56.691 137.449 56.6806 137.378C56.6684 137.305 56.6684 137.161 56.6545 137.09C56.6388 137.019 56.5919 136.852 56.559 136.734C56.519 136.59 56.5521 136.439 56.5121 136.303C56.4818 136.204 56.4476 136.106 56.4096 136.01C56.3871 135.93 56.3593 135.817 56.354 135.767C56.3489 135.688 56.3437 135.532 56.3384 135.473C56.3367 135.393 56.302 135.258 56.295 135.14C56.2847 134.978 56.2499 134.808 56.2239 134.709C56.21 134.65 56.2152 134.58 56.203 134.526C56.1614 134.368 56.1231 134.223 56.0433 134.233C55.986 134.242 55.9634 134.29 55.9895 134.393C56.0172 134.516 56.0293 134.613 56.0625 134.733C56.0762 134.797 56.0814 134.959 56.0814 135.013C56.0865 135.1 56.0901 135.119 56.1005 135.204C56.1074 135.235 56.1213 135.315 56.1317 135.35C56.1439 135.405 56.1613 135.487 56.1596 135.527C56.1596 135.582 56.1578 135.641 56.1578 135.721C56.1578 135.763 56.1596 135.777 56.1752 135.848C56.1925 135.918 56.1995 135.933 56.2047 135.991C56.2082 136.041 56.203 136.09 56.2065 136.133C56.2065 136.189 56.2133 136.242 56.2308 136.293C56.2603 136.399 56.328 136.543 56.302 136.697C56.2707 136.862 56.321 137.019 56.3593 137.161C56.3766 137.253 56.3593 137.354 56.3766 137.442C56.4101 137.568 56.4419 137.694 56.4721 137.821C56.4982 137.925 56.4808 138.019 56.5086 138.12C56.5451 138.257 56.6407 138.444 56.6545 138.507C56.665 138.57 56.6632 138.738 56.6806 138.846C56.6997 138.952 56.7257 139.075 56.7326 139.143C56.7413 139.212 56.7309 139.242 56.7378 139.292C56.7448 139.342 56.8125 139.584 56.823 139.646C56.8368 139.709 56.8334 139.742 56.8473 139.806C56.8594 139.874 56.915 140.133 56.9255 140.216C56.9393 140.301 56.9358 140.35 56.9515 140.435C56.9758 140.563 57.028 140.671 57.054 140.794C57.0713 140.888 57.0661 140.945 57.0766 141.018C57.1043 141.135 57.1425 141.239 57.1633 141.348C57.1808 141.435 57.1825 141.519 57.1981 141.607C57.2381 141.793 57.2641 141.98 57.3162 142.166C57.3475 142.276 57.41 142.376 57.443 142.482C57.469 142.58 57.4777 142.686 57.5038 142.781C57.5298 142.863 57.5871 142.939 57.608 143.028C57.6219 143.104 57.6201 143.182 57.634 143.261C57.6532 143.347 57.6913 143.434 57.7088 143.524C57.7226 143.592 57.7156 143.658 57.7348 143.729C57.7574 143.808 57.7973 143.879 57.8164 143.954C57.8337 144.049 57.8337 144.145 57.858 144.242C57.8859 144.353 57.9328 144.462 57.9675 144.565C58.0005 144.66 57.9831 144.766 58.0127 144.871C58.0752 145.096 58.1498 145.346 58.2246 145.558C58.2575 145.671 58.2523 145.789 58.294 145.913C58.3252 145.994 58.36 146.05 58.3947 146.121C58.4207 146.194 58.3964 146.274 58.419 146.357C58.4555 146.494 58.4746 146.68 58.525 146.814C58.5788 146.965 58.6674 147.088 58.7195 147.236C58.7733 147.391 58.7768 147.545 58.8289 147.707C58.8758 147.844 58.947 147.971 58.9991 148.096C59.0425 148.205 59.0269 148.351 59.0686 148.469C59.1172 148.596 59.2058 148.693 59.2562 148.823C59.31 148.973 59.3464 149.122 59.3916 149.27C59.409 149.334 59.4194 149.396 59.4316 149.459C59.4871 149.653 59.5913 149.815 59.6591 149.999C59.6851 150.084 59.6921 150.157 59.7164 150.237C59.7633 150.371 59.8171 150.508 59.8796 150.633C59.93 150.748 60.0046 150.86 60.0568 150.975C60.1037 151.081 60.1124 151.187 60.1575 151.298C60.2009 151.404 60.2513 151.519 60.2913 151.628C60.3173 151.696 60.319 151.757 60.3486 151.819C60.4806 152.113 60.6404 152.41 60.7758 152.696C60.847 152.854 60.8817 153.024 60.9582 153.186C61.0155 153.311 61.0867 153.431 61.144 153.566C61.1787 153.651 61.1891 153.733 61.2256 153.813C61.2986 153.971 61.4028 154.131 61.4722 154.285C61.4913 154.327 61.5487 154.494 61.5243 154.558C61.5209 154.567 61.5209 154.579 61.5087 154.584C61.46 154.596 61.3628 154.513 61.3072 154.457C61.1179 154.277 61.0884 153.928 60.9582 153.69C60.9217 153.62 60.8748 153.545 60.8435 153.474C60.8244 153.422 60.814 153.374 60.7897 153.325C60.7081 153.17 60.6056 153.031 60.5344 152.868C60.4806 152.75 60.4736 152.616 60.4232 152.505C60.2096 152.043 59.9613 151.6 59.7563 151.137C59.6625 150.926 59.6417 150.689 59.5601 150.459C59.5097 150.324 59.4281 150.214 59.3707 150.086C59.3274 149.987 59.317 149.883 59.2701 149.78C59.211 149.65 59.1259 149.527 59.0755 149.382C59.046 149.291 59.0321 149.197 58.9974 149.106C58.954 149.004 58.8862 148.919 58.841 148.822C58.7768 148.676 58.7664 148.532 58.7195 148.365C58.6917 148.274 58.6552 148.182 58.6275 148.101C58.6049 148.024 58.5944 147.944 58.5684 147.872C58.5059 147.696 58.4017 147.543 58.3356 147.364C58.2922 147.245 58.3027 147.092 58.2489 146.975C58.2071 146.88 58.1308 146.803 58.0925 146.703C58.0491 146.597 58.0891 146.472 58.0543 146.348C58.023 146.23 57.9744 146.121 57.9362 146.008C57.9154 145.937 57.9085 145.869 57.8893 145.801C57.8337 145.659 57.7834 145.515 57.733 145.372C57.7052 145.299 57.7052 145.232 57.6757 145.166C57.6357 145.081 57.575 145.001 57.5419 144.909C57.5055 144.768 57.4951 144.622 57.4621 144.487C57.4065 144.303 57.3388 144.157 57.285 143.981C57.2746 143.926 57.2746 143.872 57.2571 143.809C57.2137 143.653 57.1929 143.478 57.1495 143.321C57.1321 143.245 57.1356 143.181 57.1165 143.106C57.073 142.958 57.0244 142.811 56.9793 142.67C56.9549 142.576 56.9515 142.484 56.9272 142.396C56.8559 142.165 56.7899 141.892 56.7223 141.67C56.7049 141.604 56.7083 141.543 56.6893 141.47C56.6337 141.293 56.5608 141.081 56.5207 140.899C56.5017 140.793 56.5 140.69 56.4774 140.593C56.4496 140.47 56.4062 140.352 56.3819 140.228C56.3732 140.171 56.3819 140.129 56.3767 140.081C56.3662 140.001 56.3593 139.923 56.3453 139.843C56.2637 139.521 56.1404 139.129 56.071 138.809C56.0484 138.693 56.0449 138.576 56.0328 138.462C56.0189 138.382 56.0136 138.288 55.9911 138.205C55.965 138.122 55.9286 138.035 55.9147 137.948C55.8973 137.811 55.8973 137.675 55.8764 137.543C55.8764 137.534 55.8713 137.524 55.8696 137.514C55.8417 137.349 55.7601 137.015 55.741 136.881C55.7202 136.723 55.7011 136.56 55.6803 136.406C55.6768 136.303 55.6595 136.195 55.6473 136.088C55.623 135.923 55.5847 135.779 55.5657 135.607C55.5535 135.494 55.5587 135.393 55.5448 135.296C55.5379 135.235 55.5344 135.131 55.4563 135.131C55.3816 135.131 55.392 135.219 55.3868 135.291C55.3764 135.461 55.4093 135.685 55.4233 135.791C55.4459 135.987 55.4301 136.18 55.4493 136.38C55.4632 136.492 55.4979 136.604 55.5101 136.71C55.5378 136.899 55.557 137.092 55.5813 137.272V137.283C55.5876 137.366 55.5987 137.449 55.6143 137.531C55.616 137.54 55.616 137.548 55.6194 137.555C55.6194 137.561 55.6194 137.564 55.6212 137.567C55.623 137.573 55.623 137.574 55.6247 137.581H55.6264C55.6327 137.619 55.6408 137.656 55.6508 137.693C55.6699 137.764 55.6629 137.823 55.6838 137.897C55.7411 138.116 55.7272 138.354 55.7897 138.566C55.8765 138.884 55.9217 139.236 56.0137 139.549C56.0363 139.641 56.0137 139.733 56.0398 139.832C56.0641 139.933 56.0902 140.028 56.1145 140.129C56.1388 140.247 56.1214 140.371 56.1544 140.492C56.1822 140.603 56.2152 140.716 56.2448 140.822C56.2795 140.952 56.2829 141.086 56.3177 141.227C56.3593 141.367 56.4062 141.522 56.4323 141.666C56.4601 141.829 56.4775 142.014 56.5087 142.187C56.5347 142.33 56.6129 142.502 56.6477 142.658C56.658 142.71 56.6528 142.762 56.6615 142.814C56.6807 142.927 56.7154 143.036 56.738 143.144C56.7501 143.195 56.7466 143.24 56.7623 143.294C56.8126 143.498 56.8787 143.757 56.9429 143.962C56.9585 144.018 56.9655 144.077 56.9793 144.136C57.0211 144.282 57.0645 144.389 57.0818 144.468C57.0957 144.535 57.1027 144.617 57.1217 144.692C57.153 144.803 57.186 144.9 57.2069 144.997C57.2242 145.074 57.2364 145.141 57.2572 145.218C57.2816 145.31 57.318 145.395 57.3562 145.485C57.4188 145.669 57.4257 145.866 57.4917 146.046C57.5316 146.152 57.582 146.256 57.6168 146.369C57.6463 146.473 57.6532 146.6 57.6844 146.718C57.7488 146.895 57.8165 147.099 57.8807 147.278C57.9572 147.491 58.0041 147.722 58.0753 147.924C58.1065 148.005 58.0996 148.083 58.1273 148.17C58.1864 148.37 58.2559 148.598 58.3219 148.801C58.3566 148.908 58.3566 149.013 58.4 149.115C58.4677 149.285 58.5667 149.428 58.631 149.603C58.6831 149.754 58.6953 149.904 58.7544 150.041C58.829 150.227 58.9124 150.416 58.987 150.612C59.0357 150.748 59.053 150.881 59.1086 151.008C59.1555 151.117 59.218 151.23 59.2701 151.342C59.3031 151.439 59.3361 151.533 59.3674 151.63C59.3951 151.705 59.4733 151.83 59.5272 151.929C59.588 152.062 59.5966 152.205 59.6487 152.349C59.7269 152.568 59.8363 152.79 59.9267 152.995C59.9631 153.075 59.9683 153.15 60.0013 153.235C60.0569 153.38 60.1507 153.49 60.2115 153.625C60.2705 153.754 60.2861 153.889 60.3417 154.013C60.4267 154.195 60.4875 154.289 60.4875 154.549C60.4858 154.574 60.4807 154.591 60.4528 154.601C60.4059 154.621 60.3504 154.537 60.3174 154.508C60.1784 154.374 60.1576 154.242 60.0691 154.053C59.937 153.766 59.7686 153.495 59.6383 153.217C59.5688 153.071 59.5411 152.912 59.4734 152.76C59.4316 152.67 59.3708 152.578 59.3309 152.488C59.2702 152.356 59.2389 152.219 59.1711 152.1C59.0756 151.929 58.9974 151.72 58.9193 151.527C58.8898 151.454 58.8863 151.383 58.855 151.312C58.8203 151.236 58.7647 151.17 58.7318 151.095C58.6831 150.979 58.6502 150.831 58.6015 150.708C58.4956 150.477 58.3774 150.232 58.2871 149.987C58.2055 149.763 58.1673 149.548 58.0857 149.318C58.051 149.224 58.0058 149.124 57.9728 149.028C57.9468 148.943 57.945 148.868 57.9155 148.789C57.8408 148.584 57.7453 148.365 57.655 148.169C57.6132 148.07 57.6011 147.976 57.5629 147.872C57.5195 147.743 57.4622 147.606 57.4171 147.483C57.3562 147.318 57.3545 147.125 57.292 146.953C57.16 146.581 56.9863 146.194 56.8717 145.803C56.8508 145.713 56.8578 145.621 56.8301 145.53C56.7659 145.324 56.704 145.117 56.6442 144.909C56.5765 144.678 56.5834 144.435 56.5122 144.209C56.4202 143.915 56.3142 143.61 56.2239 143.321C56.1979 143.234 56.21 143.142 56.1822 143.049C56.1214 142.826 56.0433 142.562 55.9686 142.356C55.9321 142.251 55.9321 142.139 55.8922 142.041C55.8453 141.921 55.7255 141.965 55.7358 142.099C55.7445 142.22 55.7863 142.375 55.7984 142.437C55.8123 142.521 55.8123 142.604 55.8313 142.693C55.8679 142.849 55.9182 142.979 55.9617 143.122C56.0103 143.271 56.0103 143.408 56.0502 143.561C56.0745 143.636 56.1041 143.719 56.1267 143.79C56.1718 143.943 56.1718 144.106 56.2239 144.245C56.2638 144.351 56.2934 144.485 56.3281 144.601C56.349 144.678 56.3454 144.74 56.3697 144.817C56.4097 144.956 56.4531 145.093 56.4983 145.232C56.5191 145.31 56.5122 145.379 56.5278 145.452C56.5591 145.563 56.5852 145.675 56.6164 145.777C56.6442 145.874 56.6407 146.01 56.6754 146.114C56.7363 146.303 56.8075 146.505 56.87 146.685C56.9429 146.885 56.9516 147.092 57.0228 147.297C57.153 147.654 57.2711 148.068 57.3996 148.431C57.4344 148.523 57.424 148.618 57.4518 148.719C57.4952 148.874 57.5299 149.028 57.5838 149.183C57.6098 149.256 57.6585 149.33 57.688 149.396C57.7313 149.485 57.74 149.58 57.7818 149.673C57.8148 149.744 57.8616 149.818 57.8894 149.893C57.9293 150.008 57.9155 150.15 57.9607 150.258C57.9936 150.345 58.0406 150.44 58.0753 150.53C58.1135 150.63 58.1117 150.737 58.1534 150.831C58.1864 150.911 58.2454 150.989 58.2837 151.069C58.3219 151.144 58.3288 151.223 58.3567 151.309C58.3914 151.395 58.4383 151.484 58.4747 151.566C58.5146 151.656 58.5163 151.76 58.5598 151.856C58.5945 151.937 58.6501 152.015 58.6831 152.104C58.7161 152.196 58.7179 152.295 58.7508 152.392C58.8064 152.533 58.8932 152.656 58.9541 152.79C58.9992 152.889 59.0044 153.002 59.0496 153.104C59.0999 153.222 59.1711 153.337 59.225 153.45C59.2945 153.606 59.3465 153.769 59.416 153.915C59.5307 154.176 59.5706 154.461 59.6904 154.716C59.7772 154.909 59.8971 155.086 59.9822 155.272C60.0273 155.378 60.043 155.489 60.0916 155.586C60.1437 155.699 60.2392 155.795 60.2896 155.911C60.3313 156.024 60.3643 156.14 60.4129 156.25C60.4807 156.394 60.5727 156.524 60.6386 156.665C60.6769 156.745 60.6942 156.823 60.7307 156.903C60.802 157.061 60.9217 157.189 60.9947 157.344C61.0295 157.444 61.0677 157.545 61.1024 157.649C61.1805 157.814 61.3038 157.955 61.3855 158.122C61.4411 158.245 61.481 158.374 61.5539 158.487C61.6651 158.662 61.738 158.776 61.8474 158.955C61.9187 159.07 62.0142 159.239 62.0714 159.363C62.1288 159.489 62.2243 159.591 62.2799 159.713C62.3372 159.832 62.4101 159.963 62.4744 160.076C62.5474 160.204 62.6203 160.296 62.7019 160.418C62.8304 160.614 62.9121 160.824 63.0406 161.024C63.1292 161.163 63.2316 161.303 63.3289 161.437C63.5911 161.797 63.9645 162.434 64.1225 162.649C64.2563 162.823 64.3657 163.032 64.489 163.212C64.581 163.356 64.6991 163.495 64.8017 163.627C64.8867 163.735 64.9527 163.853 65.0344 163.968L65.1004 164.054C68.4366 168.297 71.8667 171.104 74.7704 172.947L74.7687 172.948C76.3005 173.903 77.1256 174.181 77.1256 174.181C77.3183 174.263 77.188 174.404 77.0873 174.466L59.8658 185.481C59.812 185.517 59.68 185.614 59.7338 185.722C59.7738 185.804 59.9474 185.758 59.9943 185.743C73.8171 180.892 83.845 176.903 89.9756 173.994C96.1914 171.045 98.2789 169.357 98.0515 168.516M286.731 163.247V162.262H287.926C289.398 162.262 290.92 162.262 291.832 162.561C294.24 163.277 295.458 165.114 295.458 168.002C295.458 170.364 293.956 173.874 289.805 173.874C288.607 173.874 287.354 173.397 286.731 173.112V163.247ZM291.587 176.321C297.219 176.321 300.578 172.056 300.578 167.941C300.578 165.665 299.736 161.609 294.041 160.173C292.773 159.848 291.354 159.829 289.499 159.829L279.478 159.819L279.648 159.986C279.648 159.986 281.359 160.241 281.359 163.247V181.948C281.359 184.953 279.648 185.205 279.648 185.205L279.478 185.384H288.6L288.431 185.205C288.431 185.205 286.731 184.953 286.731 181.948V175.43C287.525 175.785 289.131 176.321 291.587 176.321M424.616 177.445L422.606 184.288C422.606 184.288 418.252 185.769 414.52 185.769C404.608 185.769 399.805 178.959 399.805 172.792C399.805 165.125 405.628 159.412 414.892 159.412C420.015 159.412 423.634 161.18 423.634 161.18V166.705L423.485 166.582C423.485 166.582 421.321 161.901 415.303 161.901C409.499 161.901 405.812 166.194 405.812 172.758C405.812 179.326 409.615 182.926 415.096 182.926C421.151 182.926 424.39 177.587 424.39 177.587L424.616 177.445ZM360.209 163.247V181.948C360.209 184.953 361.923 185.205 361.923 185.205L362.095 185.384H352.961L353.137 185.205C353.137 185.205 354.84 184.953 354.84 181.948V163.247C354.84 160.241 353.137 159.986 353.137 159.986L352.961 159.819H362.095L361.923 159.986C361.923 159.986 360.209 160.241 360.209 163.247ZM381.546 159.819C384.558 159.819 384.992 159.531 384.992 159.531V164.095L384.818 163.956C384.818 163.956 383.564 162.229 380.551 162.229H374.078V170.399H379.464C382.468 170.399 382.722 169.084 382.722 169.084L382.901 168.907V174.399L382.722 174.222C382.722 174.222 382.468 172.902 379.464 172.902H374.078V181.95C374.078 184.955 375.775 185.206 375.775 185.206L375.956 185.385H366.834L366.998 185.206C366.998 185.206 368.703 184.955 368.703 181.95V163.258C368.703 160.25 366.998 159.998 366.998 159.998L366.834 159.821H381.546V159.819ZM349.443 177.587L349.66 177.445L347.659 184.288C347.659 184.288 343.307 185.769 339.566 185.769C329.665 185.769 324.861 178.959 324.861 172.792C324.861 165.125 330.674 159.418 339.946 159.418C345.075 159.418 348.68 161.18 348.68 161.18V166.705L348.536 166.582C348.536 166.582 346.367 161.901 340.363 161.901C334.552 161.901 330.872 166.194 330.872 172.758C330.872 179.326 334.661 182.926 340.151 182.926C346.19 182.926 349.443 177.587 349.443 177.587ZM395.345 163.247V181.948C395.345 184.953 397.052 185.205 397.052 185.205L397.224 185.384H388.092L388.264 185.205C388.264 185.205 389.971 184.953 389.971 181.948V163.247C389.971 160.241 388.264 159.986 388.264 159.986L388.092 159.819H397.224L397.052 159.986C397.052 159.986 395.345 160.241 395.345 163.247ZM306.116 175.609L310.055 167.321L313.654 175.609H306.116ZM322.452 181.901L311.226 158.537L300.069 181.901C298.396 185.097 296.557 185.165 296.557 185.165L296.385 185.342H304.013L303.846 185.165C303.846 185.165 301.707 184.743 303.06 181.901L305.073 177.777H314.63L316.575 181.901C317.928 184.743 315.793 185.165 315.793 185.165L315.621 185.342H326.139L325.964 185.165C325.964 185.165 324.027 185.151 322.452 181.901ZM215.671 181.913C215.671 178.905 215.66 166.22 215.66 163.212C215.66 160.204 217.367 159.985 217.367 159.985L217.543 159.819H208.411L208.578 159.985C208.578 159.985 210.287 160.204 210.287 163.212C210.287 166.22 210.301 170.554 210.301 170.554H197.74V163.212C197.74 160.204 199.453 159.996 199.453 159.996L199.62 159.822H190.495L190.674 159.996C190.674 159.996 192.376 160.204 192.376 163.212V181.913C192.376 184.927 190.674 185.185 190.674 185.185L190.495 185.356H199.62L199.453 185.185C199.453 185.185 197.74 184.927 197.74 181.913V173.058H210.301V181.913C210.301 184.927 208.599 185.185 208.599 185.185L208.421 185.356H217.557L217.38 185.185C217.38 185.185 215.671 184.927 215.671 181.913ZM167.747 159.822C164.736 159.822 164.312 159.534 164.312 159.534L164.301 164.616L164.477 164.487C164.477 164.487 165.851 162.285 168.852 162.285H173.138V181.913C173.138 184.927 171.441 185.185 171.441 185.185L171.264 185.356H180.392L180.222 185.185C180.222 185.185 178.513 184.927 178.513 181.913L178.536 162.285H182.72C185.731 162.285 187.176 164.487 187.176 164.487L187.353 164.616L187.364 159.534C187.364 159.534 186.938 159.822 183.926 159.822H167.747ZM228.17 175.609L232.116 167.321L235.707 175.609H228.17ZM244.516 181.901L233.283 158.537L222.122 181.901C220.454 185.097 218.613 185.165 218.613 185.165L218.439 185.342H226.072L225.909 185.165C225.909 185.165 223.771 184.743 225.118 181.901L227.122 177.777H236.692L238.634 181.901C239.992 184.743 237.856 185.165 237.856 185.165L237.682 185.342H248.198L248.022 185.165C248.022 185.165 246.084 185.151 244.516 181.901M262.538 159.822L262.715 159.996C262.715 159.996 264.971 160.63 263.269 163.277C262.436 164.563 259.922 168.16 257.633 171.637C255.334 168.16 252.857 164.541 252.031 163.256C250.331 160.605 252.595 159.996 252.595 159.996L252.76 159.822H242.246L242.416 159.996C242.416 159.996 243.938 160.248 245.935 163.256C246.772 164.525 251.043 170.493 253.34 173.975V181.913C253.34 184.927 251.633 185.185 251.633 185.185L251.463 185.356H260.591L260.416 185.185C260.416 185.185 258.715 184.927 258.715 181.913C258.715 180.64 258.698 177.45 258.698 173.975C260.999 170.493 265.279 164.55 266.121 163.277C268.097 160.272 270.371 159.996 270.371 159.996L270.548 159.822H262.538H262.538ZM128.328 182.926C122.837 182.926 119.047 179.326 119.047 172.757C119.047 166.194 122.731 161.901 128.528 161.901C134.546 161.901 136.71 166.582 136.71 166.582L136.852 166.705V161.18C136.852 161.18 133.25 159.418 128.117 159.418C118.849 159.418 113.033 165.124 113.033 172.792C113.033 178.959 117.837 185.769 127.741 185.769C131.477 185.769 135.835 184.288 135.835 184.288L137.837 177.445L137.616 177.587C137.616 177.587 134.369 182.926 128.328 182.926ZM147.743 175.609L151.686 167.321L155.279 175.609H147.743ZM164.088 181.901L152.855 158.537L141.696 181.901C140.027 185.097 138.181 185.165 138.181 185.165L138.014 185.342H145.656L145.472 185.165C145.472 185.165 143.339 184.743 144.697 181.901L146.696 177.777H156.262L158.205 181.901C159.555 184.743 157.422 185.165 157.422 185.165L157.256 185.342H167.775L167.594 185.165C167.594 185.165 165.654 185.151 164.088 181.901Z" fill="#006B6E"/>
</svg>
