<svg width="480" height="320" viewBox="0 0 480 320" fill="none" xmlns="http://www.w3.org/2000/svg">
<path d="M307.475 145.078C305.982 145.078 304.935 146.321 304.935 147.747C304.935 149.128 305.982 150.417 307.475 150.417C308.972 150.417 310.016 149.128 310.016 147.747C310.016 146.321 308.972 145.078 307.475 145.078V145.078ZM118.638 146.107C111.482 146.107 101.723 149.885 101.723 162.605C101.723 174.706 109.888 178.973 118.541 178.973C122.936 178.973 126.631 177.761 127.9 177.141C128.983 174.282 129.463 172.043 129.733 169.036L128.511 168.779C127.107 172.584 125.973 177.398 118.445 177.398C110.198 177.398 106.482 169.847 106.482 161.705C106.482 152.798 111.171 147.65 118.606 147.65C126.354 147.65 126.932 153.465 127.386 155.369L128.607 155.112C128.607 152.729 128.308 149.938 127.9 148.037C126.721 147.27 123.262 146.107 118.638 146.107ZM287.601 146.107L286.283 146.558C285.922 147.464 285.542 148.436 285.19 149.388L275.766 173.474C274.675 176.243 274.441 176.757 272.712 177.044L271.876 177.204V178.234H281.394V177.204L278.662 176.819C278.16 176.77 277.567 176.634 277.567 175.725C277.567 175.353 277.955 174.038 278.5 172.509L280.783 165.918C282.366 165.632 283.958 165.434 285.542 165.434C287.228 165.434 288.915 165.583 290.592 165.918L293.744 174.921C293.832 175.258 294.033 175.593 294.033 175.919C294.033 176.443 293.435 176.682 292.617 176.819L290.592 177.204V178.234H301.816V177.204L300.015 176.915C298.841 176.68 298.383 175.577 297.699 173.668L287.601 146.107ZM285.704 152.571L289.853 164.084C288.401 163.897 286.961 163.86 285.512 163.86C284.155 163.86 282.754 163.992 281.394 164.084L285.704 152.571ZM142.082 155.851C137.279 155.851 134.375 159.059 133.013 160.964C133.333 161.828 133.671 162.286 134.171 162.862H134.557C135.42 161.096 136.524 158.103 140.152 158.103C143.548 158.103 144.365 160.808 144.365 163.955V165.05C140.378 166.284 132.563 168.153 132.563 174.343C132.563 176.969 134.803 178.973 138.159 178.973C141.69 178.973 143.394 177.939 144.848 176.947C145.3 177.939 146.103 178.973 148.418 178.973C150.316 178.973 151.272 178.209 151.858 177.783L151.633 177.109C151.457 177.203 151.282 177.301 150.829 177.301C148.337 177.301 148.321 173.719 148.321 170.386V163.569C148.321 158.706 147.245 155.851 142.082 155.851ZM182.184 155.851C180.594 155.851 176.455 157.092 175.141 157.524L175.334 158.681L176.331 158.392C176.421 158.392 176.752 158.327 176.975 158.327C178.248 158.327 178.228 159.669 178.228 164.341V173.571C178.228 176.527 177.823 176.854 176.235 177.044L175.141 177.204V178.234H185.272V177.204L184.21 177.044C182.536 176.854 182.184 176.527 182.184 173.571V160.9C182.864 160.094 184.35 158.103 187.073 158.103C191.738 158.103 191.735 162.875 191.735 164.726V173.571C191.735 176.527 191.325 176.854 189.742 177.044L188.648 177.204V178.234H198.746V177.204L197.717 177.044C196.043 176.854 195.691 176.527 195.691 173.571V166.849C195.691 162.79 195.65 161.911 195.466 160.385C196.739 159.013 198.188 158.102 200.225 158.102C205.253 158.102 205.242 162.616 205.242 166.946V173.571C205.242 176.527 204.836 176.854 203.249 177.044L202.155 177.204V178.234H212.253V177.204L211.224 177.044C209.547 176.854 209.198 176.527 209.198 173.571V165.821C209.198 161.106 209.168 155.851 201.736 155.851C198.431 155.851 195.941 157.988 194.855 158.938C194.358 157.563 192.74 155.851 188.938 155.851C185.357 155.851 183.223 158.053 182.184 159.099V155.851ZM223.637 155.851C218.836 155.851 215.956 159.059 214.601 160.964C214.91 161.828 215.263 162.286 215.758 162.862H216.144C217.004 161.096 218.111 158.103 221.739 158.103C225.138 158.103 225.952 160.808 225.952 163.955V165.05C221.963 166.284 214.118 168.153 214.118 174.343C214.118 176.969 216.386 178.973 219.746 178.973C223.278 178.973 224.949 177.939 226.403 176.947C226.856 177.939 227.692 178.973 230.005 178.973C231.908 178.973 232.855 178.209 233.445 177.783L233.22 177.109C233.036 177.203 232.838 177.301 232.385 177.301C229.892 177.301 229.909 173.719 229.909 170.386V163.569C229.909 158.706 228.804 155.851 223.637 155.851H223.637ZM242.58 155.851C240.989 155.851 236.883 157.092 235.568 157.524L235.761 158.681L236.758 158.392C236.848 158.392 237.141 158.327 237.369 158.327C238.639 158.327 238.655 159.669 238.655 164.341V173.571C238.655 176.621 238.245 176.854 236.662 177.044L235.568 177.204V178.234H245.666V177.204L244.638 177.044C242.96 176.854 242.58 176.621 242.58 173.571V160.675C243.394 159.583 244.871 158.103 247.275 158.103C252.669 158.103 252.644 162.723 252.644 167.203V173.571C252.644 176.621 252.238 176.854 250.65 177.044L249.557 177.204V178.234H259.688V177.204L258.626 177.044C256.947 176.854 256.6 176.621 256.6 173.571V166.496C256.6 161.012 256.593 155.851 249.525 155.851C246.073 155.851 243.622 157.87 242.58 158.875V155.851ZM309.952 155.851C308.363 155.851 304.228 157.09 302.909 157.524L303.102 158.681L304.099 158.392C304.193 158.392 304.48 158.327 304.71 158.327C305.977 158.327 305.997 159.667 305.997 164.341V173.571C305.997 176.763 305.591 176.854 304.002 177.044L302.909 177.204V178.234H313.007V177.204L311.977 177.044C310.306 176.854 309.952 176.763 309.952 173.571V155.851ZM321.047 155.851C319.78 155.851 316.747 156.763 314.486 157.62L314.841 158.745L315.258 158.617C315.616 158.523 315.957 158.327 316.318 158.327C317.586 158.327 317.605 159.368 317.605 164.277V173.571C317.605 176.86 317.199 176.854 315.612 177.044L314.519 177.204V178.234H325.356V177.204L324.295 177.044C321.89 176.854 321.561 176.86 321.561 173.571V160.804C321.561 160.095 322.265 158.938 323.715 158.938C324.35 158.938 326.813 159.767 327.446 160C328.493 159.146 329.094 158.438 329.729 157.298C329.145 156.916 327.695 155.851 326.289 155.851C323.98 155.851 322.042 158.177 321.369 158.938C321.369 157.652 321.233 156.667 321.047 155.851ZM374.141 155.851C369.337 155.851 366.436 159.059 365.072 160.964C365.394 161.828 365.765 162.286 366.262 162.862H366.616C367.47 161.096 368.617 158.103 372.244 158.103C375.645 158.103 376.457 160.808 376.457 163.955V165.05C372.467 166.284 364.623 168.153 364.623 174.343C364.623 176.969 366.896 178.973 370.25 178.973C373.784 178.973 375.458 177.939 376.907 176.947C377.358 177.939 378.171 178.973 380.476 178.973C382.38 178.973 383.361 178.209 383.949 177.783L383.724 177.109C383.542 177.203 383.339 177.301 382.889 177.301C380.393 177.301 380.412 173.719 380.412 170.386V163.569C380.412 158.706 379.308 155.851 374.141 155.851ZM413.889 155.851C409.949 155.851 406.654 157.992 406.654 161.897C406.654 169.669 416.72 167.38 416.72 173.861C416.72 175.534 415.515 177.398 413.471 177.398C409.845 177.398 408.306 174.292 407.393 171.191H406.171C406.171 173.056 406.354 175.445 407.039 177.591C408.256 178.165 409.848 178.973 412.796 178.973C417.099 178.973 420.644 176.811 420.644 172.285C420.644 164.664 410.577 166.235 410.577 160.804C410.577 158.711 411.752 157.427 413.471 157.427C416.422 157.427 417.878 160.846 417.878 162.99H419.292C419.292 160.465 419.135 158.95 418.681 157.234C417.685 156.619 416.293 155.851 413.889 155.851ZM150.379 156.559V157.62L151.569 158.005C153.342 158.581 153.331 159.332 153.916 160.9L159.351 173.796C159.938 175.28 160.702 177.111 160.702 179.07C160.702 183.54 156.233 184.519 153.691 186.853C153.375 187.277 153.106 188.329 153.016 189.328C153.337 189.376 153.6 189.425 153.916 189.425C158.448 189.425 160.522 184.568 162.245 180.227L167.198 168.104C168.47 164.867 170.562 159.713 171.604 158.617C171.923 158.285 172.417 158.088 172.826 157.942L173.759 157.62V156.559H164.561V157.62L166.973 158.038C167.514 158.133 168.324 158.23 168.324 158.81C168.324 160.14 163.752 172.254 163.211 173.636L158.033 160.385C157.803 159.818 157.583 159.133 157.583 158.938C157.583 158.417 158.348 158.223 159.03 158.038L160.799 157.62V156.559H150.379ZM330.148 156.559V157.62L331.498 157.942C332.811 158.279 332.969 159.393 333.46 160.869L339.57 178.973C340.208 178.875 340.885 178.344 341.339 177.912L347.096 162.894L353.302 178.973C353.711 178.832 354.487 178.439 354.942 177.912L360.795 161.383C361.567 159.148 361.92 158.325 363.142 157.942L364.172 157.62V156.559H355.361V157.62L356.872 157.909C358.413 158.195 358.898 158.293 358.898 159.099C358.898 159.772 358.552 160.891 358.415 161.318L354.974 173.185H354.879L348.672 156.816C348.305 156.816 347.697 157.045 347.385 157.234L341.371 173.185H341.306L337.447 160.707C337.317 160.274 337.127 159.72 337.127 159.195C337.127 158.338 337.478 158.18 338.702 157.942L340.343 157.62V156.559H330.148ZM382.47 156.559V157.62L383.627 158.005C385.396 158.581 385.417 159.332 386.007 160.9L391.443 173.796C392.031 175.28 392.793 177.111 392.793 179.07C392.793 183.54 388.293 184.519 385.75 186.853C385.443 187.277 385.167 188.329 385.074 189.328C385.393 189.376 385.69 189.425 386.007 189.425C390.537 189.425 392.617 184.568 394.336 180.227L399.258 168.104C400.526 164.867 402.624 159.713 403.663 158.617C403.979 158.285 404.484 158.088 404.884 157.942L405.849 157.62V156.559H396.652V157.62L399.032 158.038C399.573 158.132 400.415 158.23 400.415 158.81C400.415 160.14 395.847 172.254 395.302 173.636L390.124 160.385C389.906 159.818 389.674 159.133 389.674 158.938C389.674 158.417 390.444 158.222 391.121 158.038L392.89 157.62V156.559H382.47H382.47ZM143.754 167.3H144.365V175.34C144.052 175.812 142.923 177.301 140.924 177.301C138.34 177.301 136.712 175.676 136.712 172.96C136.712 168.483 141.172 167.3 143.754 167.3ZM225.342 167.3H225.953V175.34C225.635 175.812 224.504 177.301 222.512 177.301C219.925 177.301 218.299 175.676 218.299 172.96C218.299 168.483 222.753 167.3 225.342 167.3ZM375.846 167.3H376.457V175.34C376.14 175.812 375.002 177.301 373.015 177.301C370.433 177.301 368.802 175.676 368.802 172.96C368.802 168.483 373.254 167.3 375.846 167.3ZM70.1718 148.415L62.6847 157.935C62.6847 157.935 61.0131 159.952 64.7872 162.375L67.7569 158.547L68.3877 159.005L65.5379 162.975L68.3505 165.003L66.2046 167.729C66.2046 167.729 65.0609 169.254 66.3999 170.87L66.4195 170.947L62.3095 176.572C62.3095 176.572 61.9761 177.01 61.9352 177.194C61.8967 177.38 61.858 177.546 61.9352 177.61C62.0146 177.665 62.1937 177.748 62.5485 177.405C62.8969 177.048 67.5652 172.457 67.5652 172.457C67.5652 172.457 67.7365 172.105 68.3076 172.394C68.8773 172.683 69.4124 173.019 70.6306 172.029C71.8465 171.034 74.2684 167.514 74.2684 167.514L74.4629 167.54L74.8016 172.256L81.2315 172.276L89.8088 178.735L91.0057 178.675L77.0535 167.705L77.5396 167.2L80.6801 169.628L77.985 148.453L70.1718 148.415Z" fill="#18468B"/>
<path d="M71.5175 137.552C68.7008 137.518 67.0472 137.777 67.0472 137.777C65.1023 138.032 64.4103 138.582 64.4103 138.582C62.2378 139.933 62.4808 143.244 62.4808 143.244L64.6352 143.18L64.6674 143.534C64.8156 144.933 66.179 144.917 66.179 144.917C68.7057 144.688 69.3631 145.045 69.3631 145.045C70.2579 145.22 70.263 146.01 70.263 146.01L77.9173 145.946C77.9173 145.946 77.5169 140.133 76.6628 138.871C75.9575 137.847 74.7008 137.681 74.7008 137.681C73.5229 137.586 72.4566 137.563 71.5175 137.552ZM79.1071 148.937L79.5574 152.313L83.2556 152.41L83.8991 150.448C83.8991 150.448 81.7722 148.957 79.1072 148.937L79.1071 148.937ZM84.7349 150.963L84.0916 152.892L86.2143 155.368L88.6256 155.303C88.6256 155.303 87.5453 152.35 84.7349 150.963ZM79.6536 153.246L80.4255 158.552L84.1238 158.745L85.5385 155.818L83.2556 153.278L79.6536 153.246V153.246ZM88.7872 156.108L86.3752 156.204L85.0882 159.002L86.9863 161.156H89.6548C90.0347 158.148 88.7873 156.108 88.7873 156.108H88.7872ZM80.5542 159.453L81.2939 164.566L84.7349 164.501L86.4713 161.607L84.6064 159.581L80.5542 159.453ZM71.228 161.221L68.2372 164.92C70.4757 166.576 71.7746 164.63 71.7746 164.63C73.1822 162.933 71.228 161.221 71.228 161.221V161.221ZM86.9863 162.056L85.346 164.663L87.4358 166.591C88.9024 164.976 89.4299 162.057 89.4299 162.057H86.9863V162.056ZM84.7666 165.369L81.3907 165.466L82.0973 170.45C84.5616 169.817 86.8254 167.429 86.8254 167.429L84.7666 165.369Z" fill="#419629"/>
<path d="M71.3874 130.736C65.322 130.856 61 135.045 61 135.045L64.7628 138.68C66.4606 137.541 73.6388 138.068 73.6388 138.068C76.256 137.971 76.5004 139.419 76.5004 139.419C77.0847 140.708 77.6587 145.915 77.6587 145.915L69.972 145.948C69.453 147.267 70.1652 148.424 70.1652 148.424L81.0351 148.488H81.1954C81.5507 148.447 82.2714 147.856 82.6108 147.716C83.3315 147.42 84.0465 146.969 84.508 146.301C84.6127 146.141 84.6921 145.986 84.8296 145.851C85.277 145.4 85.9234 145.174 86.5345 145.143C87.4278 145.091 88.282 145.499 89.1714 145.561C89.9047 145.613 90.6689 145.521 91.3258 145.143C91.9973 144.755 92.5142 144.126 92.902 143.407C93.0945 143.033 93.192 142.582 93.4484 142.249C93.5987 142.051 93.7763 141.871 93.995 141.767C94.3657 141.597 94.7928 141.603 95.1847 141.702C95.7404 142.033 96.3327 142.292 96.9536 142.378C97.4178 142.44 97.8849 142.397 98.3044 142.185C98.5193 142.074 98.7328 141.893 98.8831 141.702C99.098 141.443 99.1872 141.102 99.2694 140.769L99.816 137.297C99.8672 136.97 99.9781 136.674 100.073 136.364C100.192 135.975 100.253 135.573 100.427 135.206C100.761 134.523 101.205 133.916 101.681 133.341V133.244C101.42 133.179 101.147 133.206 100.877 133.213C100.014 133.244 99.1487 133.386 98.3042 133.566C96.6374 133.942 95.0253 134.624 93.6739 135.753C93.4407 135.947 93.2193 136.184 92.9982 136.396L92.741 136.589C91.6628 136.851 90.6788 137.507 90.0073 138.454C89.8429 138.678 89.6835 138.912 89.557 139.162C89.4825 139.303 89.4566 139.453 89.3962 139.612C89.2768 139.921 89.1299 140.227 89.0105 140.545C88.8638 140.903 88.5912 141.227 88.2708 141.413C87.9752 141.578 87.6042 141.629 87.2735 141.67C86.4214 141.79 85.5693 141.772 84.7012 141.702C83.8421 141.77 82.9585 142.017 82.2251 142.539C81.9561 142.735 81.7116 142.981 81.4854 143.246C81.0956 143.693 80.8524 144.266 80.3918 144.629C78.8367 145.855 78.6195 145.949 78.2374 145.915L78.1728 145.304L84.6688 138.519L84.5403 138.486C83.0041 139.628 82.5146 137.522 82.5146 137.522C81.8753 135.091 79.6845 133.341 79.6845 133.341C76.5432 130.455 71.3874 130.736 71.3874 130.736V130.736ZM70.9372 149.742L71.4522 150.514L76.6295 150.579L77.0152 149.807L70.9372 149.742ZM71.9985 151.286L72.5127 151.993L75.536 152.058L76.0184 151.286H71.9985ZM72.9313 152.733L73.317 153.344H74.764L75.0857 152.733H72.9313ZM73.8958 154.502C71.5222 154.387 70.5515 156.013 70.5515 156.013C69.3743 158.096 70.6155 159.615 70.6155 159.615L73.8958 154.502ZM74.2175 154.502L77.7872 159.969C77.7872 159.969 78.8226 158.367 77.5294 156.303C77.5294 156.303 76.3886 154.562 74.2175 154.502ZM75.1503 173.154C74.9776 173.154 74.9144 173.379 74.8603 173.54L74.8286 178.074L74.8603 178.203V178.235L74.9571 178.3L77.8195 178.331C77.9543 178.331 78.0632 178.227 78.109 178.106C78.0632 177.687 78.0829 177.271 78.2052 176.853H78.2691C78.8225 177.638 79.6943 178.086 80.5849 178.331L84.7012 178.395L84.862 178.3L84.9259 178.043C84.9709 177.562 84.9955 177.042 84.9582 176.562C85.0165 176.41 84.9069 176.298 84.765 176.242C84.5775 176.174 84.373 176.251 84.1863 176.242C83.6349 176.193 83.0736 176.024 82.6107 175.694C82.1036 175.338 81.6638 174.847 81.4532 174.247C81.3407 173.969 81.3112 173.679 81.26 173.379L81.1314 173.251L75.1496 173.154H75.1503Z" fill="#C4122E"/>
<path d="M71.0036 137.199C68.4826 137.199 67.0307 137.423 67.0159 137.424C65.0197 137.684 64.2632 138.287 64.2182 138.324C63.2827 138.928 62.7508 139.866 62.4818 140.737C62.205 141.622 62.1616 142.462 62.1602 142.923V143.277L62.1924 143.599L64.3468 143.502L64.3791 143.567C64.4591 144.382 64.9179 144.846 65.3443 145.046C65.7734 145.254 66.1542 145.238 66.1801 145.238H66.2124C66.8454 145.184 67.3475 145.174 67.7556 145.174C68.3562 145.174 68.7552 145.226 68.9778 145.271L69.171 145.335H69.2672L69.2996 145.368C69.6607 145.444 69.7653 145.609 69.8461 145.753L69.9422 145.947V146.01H70.5858C70.5844 145.977 70.5737 145.727 70.4248 145.432C70.2872 145.147 69.9851 144.837 69.4921 144.724C69.4239 144.692 69.0228 144.5 67.7557 144.499C67.3257 144.499 66.7933 144.537 66.1479 144.596C66.0446 144.589 65.7502 144.522 65.5044 144.37C65.2685 144.216 65.0548 143.988 64.9902 143.502C65.0717 143.503 65.0928 143.502 65.2473 143.502C65.7517 143.502 66.5847 143.474 67.3701 143.374C67.7605 143.323 68.1349 143.25 68.4629 143.148C68.7889 143.041 69.0628 142.917 69.2672 142.666L68.7847 142.248C68.739 142.318 68.5431 142.42 68.2705 142.505C67.443 142.776 65.9778 142.83 65.2473 142.827H64.797L62.8036 142.923C62.8036 142.51 62.8443 141.716 63.0929 140.93C63.3389 140.141 63.7834 139.364 64.5722 138.872H64.6046C64.6438 138.839 65.3302 138.335 67.113 138.1L67.3701 138.067C67.8842 138.007 69.1415 137.874 71.0036 137.874C72.0537 137.874 73.3076 137.927 74.7018 138.035H74.7342C74.9449 138.065 75.8833 138.286 76.4067 139.064C76.5704 139.293 76.7383 139.873 76.8893 140.576C77.1232 141.631 77.3177 142.999 77.4357 144.081C77.5502 145.159 77.5938 145.947 77.5966 145.947L78.24 145.914C78.24 145.91 78.1304 144.443 77.9183 142.827C77.8136 142.016 77.6978 141.155 77.5319 140.415C77.3689 139.677 77.1849 139.078 76.9215 138.678C76.1082 137.515 74.7975 137.369 74.7666 137.36H74.7342C73.3244 137.249 72.0664 137.199 71.0036 137.199ZM67.5309 139.707C67.5309 139.707 66.3192 139.643 66.2124 140.962L68.9778 140.93C68.9778 140.93 68.8416 139.664 67.5309 139.707Z" fill="#18468B"/>
</svg>
