<svg width="480" height="320" viewBox="0 0 480 320" fill="none" xmlns="http://www.w3.org/2000/svg">
<path d="M80.4096 197.007C66.5193 193.119 57.574 182.074 55.8133 166.634C52.6492 138.89 67.1935 121.226 93.2327 121.188C107.223 121.168 118.102 126.713 118.102 133.866C118.102 137.272 116.132 142.341 114.176 143.964C113.334 144.662 111.664 144.083 107.682 141.711C96.9662 135.327 85.723 136.876 80.6967 145.427C78.344 149.43 77.8667 154.906 78.2478 159.33C78.2478 159.33 79.338 173.47 83.6055 177.41C86.5775 180.153 90.8294 181.695 95.4198 181.695C99.6006 181.695 107.144 178.9 109.867 176.342C112.444 173.92 113.673 174.793 116.306 180.915C119.507 188.355 118.041 191.214 108.874 195.411C104.431 197.445 102.247 197.848 94.4261 198.079C88.0799 198.266 83.7174 197.932 80.4096 197.007ZM144.37 196.81C133.618 193.905 127.423 188.508 122.21 177.503C119.471 171.721 119.113 159.772 118.956 158.539C118.8 157.306 119.507 145.993 121.98 140.948C128.408 127.836 139.329 121.202 154.501 121.192C162.96 121.187 166.186 122.007 172.493 125.771C181.486 131.14 185.636 140.324 185.636 154.86V163.276H140.711L141.32 166.525C142.066 170.503 144.537 175.481 146.765 177.495C153.35 183.45 167.007 182.883 175.338 176.308C177.151 174.877 179.033 173.953 179.521 174.255C181.188 175.285 184.759 183.387 184.759 186.138C184.759 189.748 180.985 193.274 174.412 195.805C167.427 198.493 152.453 198.995 144.37 196.81ZM165.395 146.671C164.501 141.013 163.37 139.042 160.032 137.315C156.042 135.252 148.625 136.011 145.61 138.791C142.95 141.244 140.906 145.584 140.906 148.777V150.998H166.079L165.395 146.671ZM225.92 197.16C223.715 196.566 220.163 195.056 218.026 193.806L214.141 191.534L212.565 193.631C211.098 195.583 210.417 195.728 202.698 195.728H194.407V88.0731L197.717 87.5441C201.834 86.8857 209.653 88.0617 211.533 89.622C214.957 92.4637 215.457 95.1943 215.457 111.048C215.457 119.513 215.692 126.44 215.979 126.44C216.267 126.44 217.549 125.705 218.83 124.808C222.969 121.905 227.544 120.954 235.527 121.335C244.364 121.758 249.495 123.817 254.462 128.935C261.796 136.492 263.703 142.725 263.677 159.061C263.662 169.139 263.369 171.554 261.534 176.753C258.971 184.016 255.594 188.424 251.227 192.254C246.86 196.083 243.573 196.465 240.453 196.965C236.016 197.678 231.329 198.619 225.92 197.16V197.16ZM234.633 178.446C238.8 175.404 240.374 170.812 240.74 160.634C241.137 149.588 240.068 144.97 236.114 140.656C233.375 137.668 232.813 137.45 226.987 137.121C221.035 136.784 217.749 137.451 216.473 138.726C215.198 140.002 215.457 142.092 215.457 142.092V159.155C215.457 177.992 215.271 177.349 221.369 179.611C225.552 181.163 231.645 180.627 234.633 178.446Z" fill="#496AA5"/>
<path d="M285.872 230.579C282.577 229.456 278.887 227.544 277.671 226.328C274.066 222.722 274.861 217.169 279.896 210.803L281.579 208.675L285.844 211.384C290.849 214.563 298.179 216.88 303.205 216.873C314.843 216.858 321.226 210.26 321.239 198.232L321.244 194.058L316.64 196.478C312.533 198.637 311.136 198.895 303.703 198.868C296.914 198.843 294.52 198.458 290.774 196.79C279.874 191.935 273.883 179.772 273.883 162.5C273.883 150.293 277.569 138.283 283.173 132.237C286.533 129.083 286.56 129.088 290.547 127.005C294.367 125.011 296.854 124.405 302.497 124.094C310.294 123.664 314.075 124.536 319.046 127.909L322.196 130.046L324.649 128.233C328.022 125.738 333.084 124.69 338.63 125.337L343.298 125.881L342.941 165.021C342.563 206.529 342.418 208.065 338.084 216.542C332.032 228.38 322.745 232.681 303.325 232.643C293.665 232.623 290.921 232.299 285.872 230.579H285.872ZM318.971 181.491L321.245 180.001V144.117L317.582 142.249C309.667 138.211 300.52 142.108 297.981 150.6C295.306 159.54 296.875 174.839 300.944 179.504C304.543 183.63 314.099 184.683 318.971 181.491H318.971ZM378.237 199.96C367.457 197.506 358.48 189.737 354.558 179.466C352.095 173.018 351.209 159.308 352.789 152.113C354.201 145.68 358.516 137.534 362.772 133.263C364.629 131.4 368.773 128.632 371.982 127.112C377.598 124.451 383.756 123.88 387.338 123.883C390.75 123.885 401.019 124.545 405.553 126.668C419.153 133.036 425.802 146.867 424.443 165.958C422.889 187.777 411.227 199.728 390.533 200.708C386.323 200.908 380.971 200.582 378.237 199.96ZM395.795 181.911C403.393 176.401 405.151 153.467 398.575 145.651C393.035 139.067 384.216 139.109 378.472 145.746C375.302 149.409 374.306 153.563 374.33 163.007C374.35 170.673 374.644 172.419 376.547 176.163C380.417 183.781 389.483 186.488 395.795 181.911Z" fill="#328A74"/>
</svg>
