<svg width="480" height="320" viewBox="0 0 480 320" fill="none" xmlns="http://www.w3.org/2000/svg">
<path fill-rule="evenodd" clip-rule="evenodd" d="M408.633 144.827C410.254 141.352 412.339 138.572 414.886 136.489L424.616 133.014C419.751 135.793 415.583 140.889 412.339 148.533L409.095 157.105C407.938 159.884 406.779 161.967 406.084 162.895C403.538 165.908 399.368 167.298 394.039 166.832C396.588 166.37 398.673 164.747 400.525 162.433C401.915 160.578 403.074 158.032 404.695 154.325C406.549 149.46 407.708 146.217 408.633 144.827H408.633ZM402.609 170.773L393.113 176.333C389.174 178.185 386.396 179.575 385.237 180.498C383.152 182.121 381.993 183.744 381.993 185.596C381.993 186.058 381.993 186.753 382.457 186.753C381.531 186.753 380.837 186.058 380.142 184.901C379.447 183.511 378.752 183.05 378.288 182.816C378.057 181.66 379.447 179.808 381.532 177.49C383.614 175.634 385.468 174.248 387.322 173.549L370.643 174.477C362.303 176.333 354.428 180.498 347.246 186.986L354.66 176.333C360.451 172.858 366.472 170.54 372.496 169.612C376.202 169.15 380.836 168.917 386.858 169.15L399.367 168.917C403.537 167.993 407.474 165.675 410.949 162.2C408.864 165.442 406.084 168.222 402.609 170.773L402.609 170.773ZM291.886 152.935C291.886 151.314 291.424 150.155 290.727 149.229C289.57 147.839 286.791 147.143 282.852 147.143H270.344L265.944 172.163H271.27L274.745 151.082H281.231C283.78 151.082 285.17 151.545 285.865 152.24C286.326 152.703 286.326 153.63 286.326 154.788L286.096 157.105L283.316 172.163H288.644L291.424 155.947L291.886 152.935ZM299.067 150.155C295.825 152.472 294.202 155.715 293.509 159.884L293.045 162.895C293.045 165.442 293.971 167.76 295.361 169.612C296.287 170.773 297.446 171.468 299.067 171.697L304.163 172.163H311.112C310.65 174.938 308.565 176.333 305.321 176.333H293.509L292.812 180.269H305.552C311.807 180.269 315.513 177.023 316.672 170.54L320.842 147.143H309.027C304.627 147.143 301.152 148.071 299.067 150.155L299.067 150.155ZM327.558 154.787L327.791 154.092C327.791 152.702 328.717 151.776 329.876 151.314L333.813 151.082H345.858L346.553 147.143H332.191C326.401 147.143 323.157 149.692 322.231 154.787C321.767 156.872 322 158.262 322.926 159.42C324.083 160.81 326.168 161.274 329.181 161.274H335.202C337.287 161.274 338.446 161.738 339.141 162.433L339.605 164.285V164.98C339.141 167.065 337.287 168.222 334.276 168.222H320.146L319.451 172.163H336.825C338.677 172.163 340.531 171.468 341.921 170.078C343.311 168.455 344.468 166.832 344.701 164.518L344.932 162.895C344.932 161.505 344.468 160.347 343.773 159.652C342.616 158.031 340.762 157.335 337.982 157.335H331.496C329.875 157.335 328.486 157.104 328.021 156.409C327.791 156.177 327.557 155.714 327.557 154.787H327.558ZM314.82 151.082L311.807 168.222H307.406L302.079 167.76C301.151 167.527 300.225 167.065 299.761 166.37C298.371 164.98 298.14 162.662 298.604 159.652C299.299 156.177 300.92 153.629 303.931 152.24C305.09 151.545 306.942 151.082 310.186 151.082L314.82 151.082ZM60.9445 150.155C58.1646 152.472 56.3118 155.715 55.6168 159.652L55.3848 162.2C55.3848 164.98 56.0798 167.298 57.7017 169.15C59.3226 171.235 62.5666 172.163 66.7363 172.163H75.7698L76.9277 165.675H69.515L65.1143 164.98C63.9563 164.285 63.4933 163.128 63.4933 161.738L63.7243 159.884C64.1872 157.567 64.8823 155.946 66.0413 155.019C67.1992 154.092 69.052 153.861 71.832 153.861H79.0127L80.1706 147.142H70.9048C66.736 147.142 63.4932 148.07 60.9442 150.154L60.9445 150.155ZM94.3021 153.63H103.105L104.263 147.143H94.302C85.7313 147.143 80.8666 151.314 79.4766 159.652L79.2457 162.895C79.2457 165.442 79.9407 167.527 81.0986 168.917C82.9514 171.002 85.9635 172.163 90.1321 172.163H99.8617L101.02 165.908H91.7539C89.669 165.908 88.0481 165.442 87.8162 164.98L87.3533 163.357L87.5842 162.662H101.484L102.642 156.642H88.7421V156.178C88.9741 155.251 89.6691 154.557 90.3641 154.093L94.3021 153.63ZM119.088 153.862C120.478 153.862 121.405 154.093 121.636 154.325L121.868 155.251L121.636 157.104L119.088 172.163H126.732L129.513 156.641L129.744 153.861C129.744 152.24 129.513 150.85 128.586 149.692C126.964 147.839 124.416 147.143 120.478 147.143H108.202L103.8 172.163H111.445L114.687 153.862L119.088 153.862ZM136.231 153.398L134.146 163.823C133.682 166.603 134.146 168.688 135.304 170.078C136.462 171.468 138.314 172.163 140.631 172.163H147.117L148.275 165.908H144.8C143.642 165.908 142.716 165.675 142.484 165.213L142.252 163.823V162.2L143.874 153.397H150.592L151.75 147.143L145.264 146.912L146.885 139.731H139.009L137.619 146.912H132.292L131.134 153.398H136.231ZM165.417 153.398V153.862L164.722 158.493H172.366L173.061 154.092L173.293 151.776C173.293 150.618 173.061 149.46 172.366 148.765C171.439 147.839 169.587 147.143 166.807 147.143H155.688L151.287 172.163H158.93L162.405 153.167H164.027L165.417 153.398ZM175.609 153.63H186.959C189.276 153.63 190.434 153.862 190.898 154.325C191.361 154.787 191.361 155.251 191.361 156.177V156.41H183.716C180.241 156.41 177.463 157.104 175.609 158.262C173.988 159.652 172.598 161.738 172.135 164.518C171.671 166.832 172.135 168.688 173.293 170.078C174.451 171.468 176.536 172.163 179.084 172.163H196.457L199.237 156.872L199.468 154.557C199.468 152.472 198.774 150.85 197.847 149.692C196.457 148.071 193.909 147.143 190.203 147.143H176.768L175.609 153.63ZM205.723 140.657L200.164 172.164H208.27L213.83 140.657H205.723ZM233.521 147.143L223.096 168.222L220.085 147.143H214.758L219.16 172.163H226.108L236.069 151.545L238.616 172.163H246.028L258.538 147.143H253.211L242.786 168.222L239.774 147.143H233.521ZM260.854 147.143L256.453 172.163H261.318L265.719 147.143H260.854ZM261.318 144.827H266.183L267.109 140.657H262.013L261.318 144.827ZM190.205 162.433L189.509 165.908H182.56C180.707 165.908 180.012 165.442 180.243 164.518C180.243 163.59 180.707 163.128 181.17 162.895C181.633 162.433 182.56 162.433 183.718 162.433H190.205Z" fill="#FE0009"/>
</svg>
