<svg width="480" height="320" viewBox="0 0 480 320" fill="none" xmlns="http://www.w3.org/2000/svg">
<path d="M229.55 147.95V110.248H290.959L268.759 132.623C259.27 142.387 253.882 147.68 238.51 147.95H229.55ZM267.257 185.663H304.959V124.253L282.584 146.454C272.825 155.942 267.527 161.331 267.257 176.697V185.663Z" fill="#D7083C"/>
<path d="M229.55 91.0359V53.334H348.335L326.135 75.7086C316.646 85.4675 311.264 90.7655 295.886 91.0359H229.55ZM324.173 185.664H361.88V66.4618L339.499 88.8702C328.599 99.5907 324.443 103.337 324.172 118.709V185.664" fill="#0063BE"/>
<path d="M221.489 213.421C220.955 215.756 219.993 219.046 216.101 220.362C215.241 220.655 213.919 220.886 212.755 220.886C211.782 220.886 209.982 220.418 208.913 219.867C206.91 218.844 204.97 217.274 203.643 214.344C202.535 211.858 202.012 208.376 202.118 205.502C202.287 202.628 202.979 200.445 203.524 199.005C204.925 195.31 207.782 192.863 211.545 192.593C219.617 191.98 221.36 197.588 221.579 199.855H229.488C229.431 197.808 228.768 192.278 223.256 188.611C219.538 186.136 215.482 185.805 212.608 185.805C202.158 185.805 197.388 191.862 195.121 199.382C194.458 201.649 194.109 204.9 194.16 206.542C194.244 209.192 194.598 211.897 195.071 213.776C197.135 221.931 203.812 228.096 212.26 227.989C217.552 227.928 221.703 226.195 224.42 223.99C227.418 221.555 229.454 217.516 229.51 213.421H221.489ZM237.12 208.747C237.12 206.953 239.55 203.021 243.555 203.246C247.537 203.477 249.281 207.223 249.348 208.747H237.12ZM257.684 214.743C257.853 211.217 257.296 207.257 254.557 202.976C252.661 200.046 248.971 197.172 243.049 197.172C239.589 197.172 231.377 197.712 229.42 209.214C229.032 211.492 229.15 213.455 229.263 215.193C229.431 216.982 229.949 218.714 230.118 219.186C230.837 221.161 232.902 224.215 235.596 225.829C237.728 227.112 240.714 227.989 243.673 227.989C248.982 227.989 255.811 224.558 257.543 217.105H249.562C249.169 218.63 247.408 220.745 245.507 221.099C242.763 221.611 239.714 221.048 238.071 218.945C236.912 217.46 236.789 216.07 236.733 214.743H257.684M309.538 227.089H317.339V209.715C317.339 206.79 318.998 204.327 322.547 204.327C326.052 204.327 327.441 206.88 327.441 209.72V227.089H335.298V207.51C335.298 202.082 331.17 197.38 325.062 197.369C322.171 197.369 319.032 198.612 317.39 201.233L317.204 201.229L317.007 198.135H309.538V227.091M283.012 217.113C283.361 219.002 285.554 224.998 289.998 226.983C291.843 227.811 294.723 228.193 296.618 228.193C298.784 228.193 301.292 227.889 303.379 227.091C308.452 225.161 309.712 220.634 309.712 217.709C309.712 214.019 306.877 211.195 303.114 210.256L293.192 207.787C290.267 207.056 291.157 204.136 292.557 203.377C294.902 202.129 297.124 202.421 298.896 203.029C301.495 203.928 301.855 205.588 301.855 207.157H308.733C308.733 204.986 308.142 201.594 304.267 199.153C301.585 197.471 299.036 196.768 295.797 196.875C292.557 196.988 289.536 197.955 287.804 199.26C285.959 200.61 284.334 202.95 284.39 206.797C284.446 209.457 286.64 213.085 290.723 214.069L299.88 216.409C304.234 217.529 302.203 223.063 296.562 222.557C292.349 222.18 291.19 220.481 290.425 217.113H283.012ZM354.427 213.985C354.427 217.242 353.713 221.123 349.079 221.826C345.726 222.366 343.426 221.241 342.982 219.509C342.307 217.118 343.938 215.194 346.795 214.66C348.533 214.334 351.958 213.535 354.427 212.146V213.985ZM363.134 227.096C363.134 227.096 361.97 225.656 361.981 224.711V207.477C361.981 203.366 359.006 199.62 356.402 198.546C354.9 197.921 351.964 197.016 348.949 197.016C344.815 197.016 337.233 198.27 337.008 207.162H343.651C343.741 205.323 344.776 202.865 348.724 202.764C352.228 202.674 353.854 204.474 354.247 205.638C354.636 206.791 353.662 207.714 351.958 208.197C350.091 208.715 346.525 209.513 344.719 209.789C337.452 210.897 334.938 215.307 334.899 219.059C334.843 224.267 341.227 227.928 346.03 227.901C350.378 227.878 352.583 226.264 354.377 223.57C354.428 224.38 354.608 226.376 354.866 227.096H363.134ZM256.796 217.112C257.144 219.002 259.338 224.998 263.787 226.983C265.626 227.81 268.506 228.193 270.401 228.193C272.567 228.193 275.076 227.889 277.168 227.09C282.235 225.161 283.495 220.633 283.495 217.708C283.495 214.019 280.661 211.195 276.898 210.256L266.976 207.787C264.051 207.056 264.945 204.136 266.34 203.377C268.686 202.129 270.908 202.421 272.68 203.029C275.278 203.928 275.638 205.588 275.638 207.157H282.517C282.517 204.986 281.926 201.594 278.051 199.153C275.368 197.471 272.82 196.768 269.58 196.875C266.34 196.988 263.32 197.955 261.588 199.26C259.743 200.61 258.123 202.95 258.179 206.797C258.23 209.457 260.423 213.085 264.507 214.069L273.664 216.409C278.017 217.528 275.992 223.063 270.345 222.557C266.132 222.18 264.974 220.481 264.209 217.112H256.796ZM360.76 245.409L356.592 256.748L352.79 245.409H350.248L355.158 260.634L354.275 263.008C353.988 263.807 353.505 264.206 352.931 264.324C352.391 264.437 351.761 264.324 351.159 264.093V266.292C351.474 266.495 351.902 266.664 352.475 266.664C353.043 266.691 353.701 266.579 354.444 266.264C355.276 265.893 356.103 265.094 356.531 263.862L363.331 245.408H360.76M335.956 245.408V260.409H338.357V252.439C338.296 248.406 340.467 247.152 342.469 247.152C344.129 247.152 345.501 248.119 345.467 249.981V260.409H347.869V248.749C347.554 246.522 346.238 245.78 345.501 245.38C345.123 245.205 344.128 245.009 343.043 244.98C341.952 244.953 340.782 245.121 340.067 245.667C339.499 245.948 338.869 246.578 338.414 247.292H338.357V245.408H335.956M329.353 256.066C329.353 256.55 327.778 259.098 324.527 259.008C323.21 258.981 321.838 258.294 321.894 256.438C321.921 255.324 322.895 254.61 323.323 254.413C324.724 253.783 327.412 253.839 329.353 253.069V256.066ZM331.839 248.124C331.782 246.639 330.235 245.667 328.351 245.239C327.412 245.009 326.58 244.98 325.781 244.98C324.408 244.98 323.469 245.267 322.698 245.639C321.124 246.381 320.409 247.725 320.207 248.58L320.122 249.896H322.378C322.44 249.21 322.608 247.124 325.437 247.124C327.041 247.124 329.122 247.607 329.324 248.665V250.436C329.324 251.24 328.436 251.522 328.121 251.584C326.698 251.921 325.297 251.668 322.581 252.467C321.039 252.922 319.611 253.896 319.436 256.382C319.24 259.323 321.326 261.067 324.667 261.067C326.641 261.067 328.267 259.779 329.437 258.896C329.521 259.897 330.584 261.067 331.664 261.067C332.469 261.067 332.952 260.982 333.526 260.808V258.924C333.351 259.008 333.155 259.008 332.98 259.008C332.378 259.008 331.839 258.552 331.839 258.125V248.124ZM313.491 248.608C315.347 251.15 314.976 255.408 313.722 257.152C312.974 258.209 311.748 258.636 310.578 258.609C309.408 258.582 308.26 258.035 307.608 257.18C306.804 256.094 305.521 252.123 307.462 248.867C308.064 247.894 309.177 247.32 310.347 247.236C311.523 247.151 312.749 247.579 313.491 248.608ZM306.46 266.663V258.811H306.517C306.691 259.211 307.147 259.722 307.833 260.15C308.491 260.583 309.689 261.067 311.089 261.067C312.49 261.067 314.087 260.606 315.488 259.126C316.978 257.607 317.665 254.778 317.406 252.095C317.181 249.35 316.005 246.724 313.778 245.61C312.917 245.183 311.832 244.98 310.78 244.98C309.745 244.98 308.806 245.183 308.204 245.554C307.203 246.15 306.635 246.668 306.207 247.292H306.145V245.408H304.064V266.663H306.46M280.851 260.408H283.253V250.751C283.393 248.692 284.879 247.152 286.768 247.152C287.966 247.152 289.339 247.669 289.536 249.638V260.408H291.937V250.239C292.134 248.693 293.163 247.152 295.34 247.152C296.825 247.152 297.911 247.725 298.226 249.694V260.408H300.622V248.693C300.622 247.32 299.677 245.982 298.709 245.436C297.995 245.037 296.966 244.952 295.937 244.98C295.278 244.98 294.362 245.092 293.737 245.38C292.821 245.779 292.337 246.465 291.707 247.241C291.133 246.297 290.677 245.953 290.137 245.554C289.367 244.98 288.562 244.98 287.651 244.98C286.481 244.98 285.508 245.205 284.822 245.582C284.164 245.926 283.652 246.752 283.309 247.32H283.253V245.408H280.851V260.409M275.216 253.007C275.216 255.465 274.074 258.665 270.901 258.665C267.757 258.665 266.587 255.465 266.587 253.007C266.587 250.555 267.757 247.382 270.901 247.382C274.074 247.382 275.216 250.555 275.216 253.007ZM277.673 253.007C277.673 246.325 273.641 244.98 270.901 244.98C268.156 244.98 264.129 246.325 264.129 253.007C264.129 259.694 268.156 261.067 270.901 261.067C273.641 261.067 277.673 259.694 277.673 253.006M261.542 246.009C260.31 241.78 257.458 239.182 253.055 239.237C250.456 239.264 248.172 240.526 247.284 241.381C244.854 243.698 243.999 247.208 243.971 250.155C243.944 253.097 244.854 256.612 247.284 258.924C248.172 259.778 250.456 261.038 253.055 261.067C257.796 261.123 261.058 257.551 261.941 252.781H259.197C258.139 256.752 256.255 258.665 253.201 258.665C251.541 258.665 249.854 258.007 248.712 256.668C247.486 255.211 246.659 252.697 246.715 250.155C246.659 247.607 247.486 245.098 248.712 243.642C249.854 242.297 251.541 241.639 253.201 241.639C256.086 241.639 257.852 243.383 258.769 246.009H261.542ZM233.459 249.896C233.459 246.549 231.147 244.812 228.171 244.812C225.286 244.812 224.144 246.527 223.604 247.438H223.542V245.211H219.717V260.409H223.716V251.697C223.716 249.379 225.089 248.181 226.86 248.181C229.403 248.181 229.459 250.065 229.459 251.179V260.409H233.458V249.897M213.817 252.81C213.817 254.756 213.243 257.44 210.161 257.44C207.073 257.44 206.505 254.756 206.505 252.81C206.505 250.87 207.073 248.181 210.161 248.181C213.243 248.181 213.817 250.87 213.817 252.81ZM217.934 252.81C217.934 247.326 214.244 244.812 210.161 244.812C206.072 244.812 202.388 247.326 202.388 252.81C202.388 258.294 206.072 260.814 210.161 260.814C214.244 260.814 217.934 258.294 217.934 252.81ZM193.49 260.409H197.489V252.495C197.489 250.808 198.062 248.867 201.173 248.867C201.544 248.867 201.977 248.867 202.32 248.924V244.868C202.062 244.841 201.803 244.812 201.544 244.812C199.12 244.812 198.203 246.297 197.376 247.838H197.32V245.206H193.49V260.409ZM189.001 241.094H185.002V245.206H182.944V248.069H185.002V257.293C185.002 259.267 185.627 260.578 189.086 260.578H189.603C190.227 260.578 190.857 260.551 191.487 260.521V257.495C191.2 257.522 190.914 257.552 190.661 257.552C189.03 257.552 189.001 257.208 189.001 256.325V248.069H191.487V245.206H189.001V241.094ZM177.51 252.664L182.51 245.206H177.797L175.283 249.633L172.707 245.206H167.853L172.825 252.664L167.65 260.409H172.482L175.109 255.836L177.741 260.409H182.679L177.51 252.664ZM158.297 251.297C158.528 249.295 159.523 248.097 161.413 248.097C162.695 248.097 164.27 248.839 164.495 251.297L158.297 251.297ZM164.326 255.954C164.011 257.04 162.869 257.614 161.756 257.614C158.527 257.614 158.296 255.043 158.184 253.896H168.612V253.182C168.612 246.241 164.467 244.812 161.469 244.812C154.81 244.812 154.18 250.668 154.18 252.495C154.18 258.756 157.47 260.814 161.756 260.814C164.354 260.814 167.38 259.611 168.438 255.955H164.326M151.254 243.524H157.453V239.896H140.77V243.524H146.968V260.409H151.254V243.524ZM125.871 242.838L128.925 251.955H122.474L125.871 242.838ZM121.754 254.183H129.729L131.844 260.409H134.842L127.53 239.581H124.24L116.669 260.408H119.526L121.754 254.182" fill="black"/>
</svg>
