<svg width="480" height="320" viewBox="0 0 480 320" fill="none" xmlns="http://www.w3.org/2000/svg">
<g clip-path="url(#clip0_730_18711)">
<path d="M171.429 90.1428V61.4475H308.769V206.704C311.936 201.757 314.706 197.007 316.685 191.664V60.8538C316.685 56.6979 313.518 53.334 309.165 53.334H171.231C166.877 53.334 163.711 56.6979 163.711 60.8538V99.4437C166.086 96.0797 168.658 93.1113 171.429 90.1428Z" fill="#E31837"/>
<mask id="mask0_730_18711" style="mask-type:luminance" maskUnits="userSpaceOnUse" x="145" y="52" width="606" height="215">
<path fill-rule="evenodd" clip-rule="evenodd" d="M145.307 266.672V52.9414H750.282V266.672H145.307Z" fill="white"/>
</mask>
<g mask="url(#mask0_730_18711)">
<mask id="mask1_730_18711" style="mask-type:luminance" maskUnits="userSpaceOnUse" x="-34" y="-359" width="2613" height="2020">
<path d="M2578.56 -358.488V1660.07H-33.6924V-358.488H2578.56Z" fill="white"/>
</mask>
<g mask="url(#mask1_730_18711)">
<path d="M308.77 229.863V258.756H171.429V113.301C168.46 118.248 165.888 122.998 163.711 128.539V259.152C163.711 263.308 166.877 266.87 171.231 266.87H309.166C313.52 266.87 316.686 263.308 316.686 259.152V220.76C314.312 223.926 311.739 226.894 308.77 229.863Z" fill="#E31837"/>
</g>
</g>
<path d="M153.618 160C153.618 112.308 192.406 73.5197 240.099 73.5197C265.826 73.5197 289.375 84.9981 305.207 103.402V91.7259C288.188 75.6963 265.43 65.4062 240.099 65.4062C187.854 65.4062 145.702 107.954 145.702 160C145.702 178.405 151.045 195.425 159.951 209.87V192.456C155.795 182.363 153.618 171.281 153.618 160ZM320.049 110.13V127.744C324.008 137.638 326.382 148.72 326.382 160C326.382 207.694 287.793 246.482 240.099 246.482C213.977 246.482 190.624 235.004 174.991 216.599V228.275C191.812 244.503 214.769 254.596 240.099 254.596C291.948 254.596 334.298 212.048 334.298 160C334.298 141.596 329.153 124.775 320.049 110.13Z" fill="#004B8D"/>
<path d="M236.536 139.221H238.516C240.297 139.221 242.275 137.638 242.275 135.462V131.701H234.162C232.776 131.701 231.787 131.701 230.6 131.899C224.464 133.087 221.496 137.044 221.496 142.783V182.363H228.027C230.204 182.363 231.787 180.779 231.787 178.801V153.272H235.943C237.922 153.272 239.505 151.688 239.505 149.512V145.752H231.787V143.377C231.787 139.221 234.36 139.221 236.536 139.221ZM199.728 152.48C203.29 152.48 205.665 153.47 206.654 156.438C207.247 157.625 208.238 158.615 210.019 158.615H217.143C215.757 149.512 208.633 144.564 199.926 144.564C187.854 144.564 181.125 152.48 181.125 164.156C181.125 175.436 187.854 183.551 199.926 183.551C208.633 183.551 215.757 178.603 217.143 169.499H210.019C208.238 169.499 207.247 170.291 206.654 171.677C205.665 174.249 203.29 175.436 199.728 175.436C193.197 175.436 191.02 169.499 191.02 164.156C191.02 158.615 193.197 152.48 199.728 152.48ZM285.219 144.564C280.074 144.564 276.116 147.533 273.939 150.897C272.158 146.345 268.002 144.564 263.451 144.564C258.701 144.564 254.941 146.742 252.171 150.501H251.972V148.126C251.972 146.742 250.39 145.752 248.41 145.752H242.473V182.363H249.004C250.785 182.363 252.368 180.779 252.368 178.801V161.188C252.368 153.866 257.316 152.48 259.492 152.48C265.826 152.48 265.429 157.625 265.429 161.584V182.363H272.158C273.939 182.363 275.522 180.779 275.522 178.801V161.979C275.522 157.23 276.709 152.48 282.251 152.48C287.989 152.48 288.583 156.438 288.583 161.584V182.363H294.916C295.385 182.365 295.849 182.274 296.282 182.096C296.715 181.918 297.108 181.655 297.44 181.324C297.771 180.993 298.033 180.6 298.211 180.166C298.39 179.733 298.481 179.269 298.479 178.801V157.824C298.479 148.126 293.135 144.564 285.219 144.564Z" fill="#6A737B"/>
</g>
<defs>
<clipPath id="clip0_730_18711">
<rect width="480" height="320" fill="white"/>
</clipPath>
</defs>
</svg>
