<svg width="480" height="320" viewBox="0 0 480 320" fill="none" xmlns="http://www.w3.org/2000/svg">
<path d="M226.934 118.229L222.792 121.665V138.763C222.792 138.763 223.104 139.856 221.776 139.856H218.884C218.884 139.856 218.024 140.012 217.633 138.841V127.598L213.178 131.112V138.607C213.178 138.607 213.334 139.934 211.771 139.856H209.348C209.348 139.856 208.175 140.09 208.254 138.763C208.332 137.357 208.254 132.907 208.254 132.907H203.642V138.919C203.642 138.919 203.72 139.778 202.47 139.856H199.187C199.187 139.856 198.171 139.778 198.171 138.841V132.985H194.263V138.841C194.263 138.841 194.497 140.09 192.856 139.934H188.479C188.479 139.934 187.619 139.778 187.854 138.06V118.932L183.633 121.509V140.09C183.633 140.09 184.336 142.51 187.619 142.432H195.357C195.357 142.432 196.139 142.276 196.217 141.105C196.217 141.105 196.373 142.432 197.467 142.432H202.86H204.267C204.267 142.432 205.831 142.432 205.909 141.339C205.909 141.339 206.221 142.432 206.925 142.432H214.428C214.428 142.432 215.288 142.354 215.523 141.417C215.523 141.417 215.757 142.432 217.555 142.432H224.12C224.12 142.432 226.543 142.432 226.934 140.012V118.229Z" fill="#00539B"/>
<path d="M334.642 118.074L331.047 121.431L331.125 142.355H334.799L334.642 118.074Z" fill="#00539B"/>
<path d="M235.853 118.074L231.945 121.197V142.355H235.932L235.853 118.074Z" fill="#00539B"/>
<path d="M174.809 127.99H165.195C165.039 127.99 165.117 139.389 165.117 139.389H160.115C157.301 139.545 157.379 141.965 157.379 141.965L157.535 146.65C158.552 149.617 161.834 148.445 161.834 148.445V142.434H163.866C167.462 142.356 167.775 139.857 167.775 139.857C169.26 143.293 174.34 142.122 174.34 142.122C179.421 141.028 179.499 137.203 179.499 137.203L179.577 133.768C179.108 129.317 174.809 127.99 174.809 127.99ZM175.2 133.299V138.062C175.2 138.062 174.731 140.092 171.995 140.014C171.995 140.014 169.729 140.17 169.181 137.749L169.338 130.254H173.402C173.402 130.254 175.356 130.957 175.2 133.299Z" fill="#00539B"/>
<path d="M336.447 202.393L335.352 205.672H333.867L337.541 195.288H339.26L343.012 205.672H341.527L340.355 202.393H336.447ZM340.042 201.378L338.948 198.411C338.713 197.708 338.557 197.084 338.401 196.537C338.244 197.162 338.088 197.786 337.853 198.411L336.759 201.378H340.042Z" fill="#00539B"/>
<path d="M351.844 195.288V205.672H350.438V195.288H351.844Z" fill="#00539B"/>
<path d="M360.133 195.445C360.836 195.289 361.852 195.211 362.868 195.211C364.354 195.211 365.37 195.445 365.995 196.07C366.542 196.538 366.855 197.241 366.855 198.022C366.855 199.427 365.917 200.286 364.822 200.676V200.754C365.682 201.066 366.151 201.769 366.386 202.862C366.777 204.346 367.011 205.282 367.245 205.673H365.76C365.604 205.36 365.37 204.502 365.057 203.174C364.744 201.769 364.119 201.223 362.868 201.145H361.54V205.673H360.133V195.445ZM361.54 200.208H362.947C364.432 200.208 365.37 199.427 365.37 198.256C365.37 196.929 364.354 196.304 362.868 196.304C362.165 196.304 361.696 196.382 361.462 196.46V200.208H361.54Z" fill="#00539B"/>
<path d="M374.668 195.288H376.075V204.501H380.765V205.594H374.746V195.288H374.668Z" fill="#00539B"/>
<path d="M384.903 195.288V205.672H383.496V195.288H384.903Z" fill="#00539B"/>
<path d="M393.195 205.673V195.289H394.759L398.276 200.52C399.057 201.769 399.683 202.862 400.23 203.877C400.074 202.472 400.074 201.223 400.074 199.583V195.211H401.402V205.595H399.995L396.556 200.364C395.775 199.193 395.071 198.022 394.524 196.929H394.446C394.524 198.256 394.524 199.505 394.524 201.223V205.673H393.195Z" fill="#00539B"/>
<path d="M415.307 200.831H411.087V204.579H415.776V205.672H409.68V195.288H415.542V196.381H411.087V199.66H415.307V200.831Z" fill="#00539B"/>
<path d="M423.281 204.033C423.907 204.424 424.845 204.736 425.783 204.736C427.189 204.736 428.049 204.033 428.049 202.94C428.049 202.003 427.502 201.379 426.017 200.91C424.219 200.286 423.125 199.427 423.125 197.943C423.125 196.304 424.532 195.133 426.642 195.133C427.737 195.133 428.596 195.367 429.065 195.679L428.675 196.772C428.284 196.616 427.58 196.304 426.642 196.304C425.157 196.304 424.61 197.163 424.61 197.865C424.61 198.802 425.235 199.349 426.799 199.895C428.675 200.598 429.612 201.457 429.612 202.94C429.612 204.58 428.362 205.907 425.783 205.907C424.766 205.907 423.594 205.595 422.969 205.282L423.281 204.033Z" fill="#00539B"/>
<path d="M180.745 158.985L180.589 159.063C179.651 158.048 178.478 157.267 177.15 156.643C175.821 156.018 174.336 155.706 172.694 155.706C171.131 155.706 169.724 156.018 168.395 156.565C167.067 157.111 165.972 157.892 165.035 158.985C164.097 160.078 163.393 161.327 162.846 162.889C162.299 164.45 162.064 166.168 162.064 168.119C162.064 170.306 162.299 172.257 162.768 174.131C163.237 176.005 164.018 177.644 164.956 178.972C165.894 180.299 167.145 181.392 168.63 182.173C170.115 182.953 171.835 183.344 173.71 183.344C174.414 183.344 175.117 183.266 175.821 183.11C176.524 182.953 177.228 182.719 177.853 182.329C178.478 182.017 179.104 181.626 179.651 181.158C180.198 180.689 180.745 180.143 181.214 179.518L181.448 179.674L179.963 183.968C179.025 184.359 178.009 184.671 176.915 184.905C175.821 185.139 174.648 185.218 173.554 185.218C171.287 185.218 169.177 184.827 167.301 184.124C165.425 183.344 163.784 182.329 162.377 180.923C161.048 179.518 159.954 177.879 159.172 175.927C158.391 173.975 158 171.867 158 169.447C158 168.119 158.156 166.792 158.469 165.543C158.782 164.216 159.251 163.045 159.798 161.874C160.345 160.702 161.126 159.609 161.908 158.673C162.768 157.658 163.706 156.877 164.8 156.096C165.894 155.393 167.067 154.847 168.395 154.457C169.724 154.066 171.131 153.832 172.694 153.832C175.039 153.832 177.306 154.222 179.338 155.081L180.745 158.985Z" fill="#00539B"/>
<path d="M206.149 170.072C205.68 170.072 205.055 170.072 204.273 170.072C203.57 170.072 202.71 170.072 201.85 170.072C200.991 170.072 200.053 170.072 199.115 170.072C198.177 170.072 197.239 170.072 196.379 170.072C195.441 170.072 194.659 170.072 193.8 170.072C193.018 170.072 192.315 170.072 191.689 170.15V176.396C191.689 177.567 191.689 178.66 191.767 179.518C191.846 180.377 191.846 181.158 191.846 181.861C191.924 182.485 191.924 183.032 192.002 183.5C192.08 183.969 192.158 184.281 192.236 184.593V184.671H187.781V184.593C187.859 184.281 187.938 183.969 188.016 183.5C188.094 183.032 188.172 182.485 188.172 181.861C188.25 181.236 188.25 180.455 188.25 179.518C188.25 178.582 188.25 177.567 188.25 176.396V162.577C188.25 161.405 188.25 160.312 188.25 159.454C188.25 158.595 188.172 157.814 188.172 157.111C188.094 156.487 188.094 155.94 188.016 155.472C187.938 155.003 187.859 154.691 187.781 154.379V154.301H192.236V154.379C192.158 154.691 192.08 155.003 192.002 155.472C191.924 155.94 191.846 156.487 191.846 157.111C191.767 157.736 191.767 158.517 191.767 159.454C191.767 160.312 191.689 161.405 191.689 162.577V167.964C192.315 167.964 193.096 168.042 193.878 168.042C194.659 168.042 195.519 168.042 196.457 168.042C197.317 168.042 198.255 168.042 199.193 168.042C200.131 168.042 200.991 168.042 201.85 167.964C202.71 167.964 203.492 167.886 204.273 167.886C205.055 167.886 205.68 167.807 206.227 167.807V162.577C206.227 161.405 206.227 160.312 206.149 159.454C206.149 158.595 206.071 157.814 206.071 157.111C205.993 156.487 205.993 155.94 205.915 155.472C205.837 155.003 205.758 154.691 205.68 154.379V154.301H210.135V154.379C210.057 154.691 209.979 155.003 209.901 155.472C209.823 155.94 209.745 156.487 209.745 157.111C209.666 157.736 209.666 158.517 209.666 159.454C209.666 160.312 209.666 161.405 209.666 162.577V176.317C209.666 177.489 209.666 178.582 209.666 179.44C209.666 180.299 209.745 181.08 209.745 181.783C209.823 182.407 209.823 182.954 209.901 183.422C209.979 183.891 210.057 184.203 210.135 184.515V184.593H205.68V184.515C205.758 184.203 205.837 183.891 205.915 183.422C205.993 182.954 206.071 182.407 206.071 181.783C206.149 181.158 206.149 180.377 206.149 179.44C206.149 178.504 206.227 177.489 206.227 176.317V170.072H206.149Z" fill="#00539B"/>
<path d="M236.561 184.594V184.516C236.561 184.438 236.639 184.36 236.639 184.203C236.639 184.047 236.639 183.969 236.639 183.813C236.639 183.345 236.561 182.876 236.483 182.33C236.404 181.783 236.17 181.159 235.857 180.378L233.591 174.678C232.887 174.678 231.949 174.6 230.855 174.6C229.683 174.6 228.432 174.6 227.103 174.6C226.165 174.6 225.149 174.6 224.289 174.6C223.43 174.6 222.57 174.6 221.866 174.678L219.756 180.222C219.6 180.768 219.365 181.315 219.131 181.939C218.896 182.564 218.818 183.188 218.818 183.813C218.818 183.969 218.818 184.125 218.818 184.282C218.818 184.438 218.896 184.516 218.896 184.516V184.594H215.145V184.516C215.379 184.282 215.614 183.813 216.004 183.11C216.395 182.408 216.708 181.549 217.099 180.534L227.729 153.677H229.214L239.296 179.441C239.531 180.066 239.765 180.612 240 181.237C240.234 181.783 240.469 182.33 240.703 182.798C240.938 183.267 241.094 183.657 241.329 183.969C241.485 184.282 241.641 184.438 241.641 184.594V184.672H236.561V184.594ZM224.602 172.805C225.306 172.805 226.087 172.805 226.791 172.805C227.572 172.805 228.276 172.805 228.979 172.805C229.683 172.805 230.386 172.805 231.089 172.805C231.793 172.805 232.34 172.805 232.887 172.805L227.65 159.298L222.57 172.805H224.602Z" fill="#00539B"/>
<path d="M245.461 184.438C245.617 184.204 245.774 183.892 245.93 183.423C246.086 182.955 246.243 182.408 246.321 181.784C246.477 180.769 246.633 179.676 246.79 178.426C246.946 177.177 247.102 175.928 247.337 174.523C247.493 173.195 247.728 171.79 247.884 170.385C248.04 168.979 248.197 167.574 248.431 166.247C248.587 164.842 248.744 163.592 248.9 162.265C249.056 161.016 249.213 159.845 249.291 158.752C249.447 157.659 249.525 156.8 249.603 156.019C249.682 155.239 249.76 154.614 249.76 154.224H252.105L263.751 179.051L275.319 154.224H277.116L280.165 179.285C280.243 180.066 280.321 180.769 280.477 181.315C280.555 181.862 280.712 182.33 280.79 182.798C280.868 183.189 281.024 183.501 281.102 183.813C281.181 184.048 281.259 184.282 281.337 184.438V184.516H276.647V184.438C276.725 184.282 276.804 184.048 276.804 183.657C276.882 183.345 276.882 182.877 276.882 182.408C276.882 182.252 276.882 182.018 276.882 181.862C276.882 181.705 276.882 181.471 276.804 181.237L274.459 161.016L263.516 184.438L262.266 184.282L251.245 160.86C250.776 164.217 250.463 167.262 250.151 170.073C249.994 171.244 249.916 172.493 249.76 173.664C249.603 174.835 249.525 176.006 249.369 177.021C249.291 178.036 249.213 178.973 249.135 179.754C249.056 180.534 249.056 181.159 249.056 181.549C249.056 182.018 249.056 182.486 249.056 182.798C249.056 183.189 249.135 183.501 249.135 183.735C249.135 184.048 249.213 184.282 249.213 184.516H245.539V184.438H245.461Z" fill="#00539B"/>
<path d="M312.92 158.049L320.658 178.504L328.162 158.439C328.474 157.581 328.709 156.878 328.787 156.332C328.943 155.785 329.021 155.238 329.021 154.848C329.021 154.692 329.021 154.614 329.021 154.458C329.021 154.302 329.021 154.224 328.943 154.145V154.067H332.773V154.145C332.539 154.458 332.226 154.926 331.913 155.629C331.601 156.332 331.288 157.112 330.897 158.127L320.58 184.906H319.095L311.591 164.998L304.713 184.906H303.228L293.771 159.142C293.536 158.518 293.302 157.971 293.067 157.425C292.833 156.878 292.598 156.332 292.364 155.941C292.129 155.473 291.973 155.082 291.817 154.77C291.66 154.458 291.504 154.224 291.426 154.145V154.067H296.819V154.145C296.819 154.302 296.819 154.458 296.819 154.536C296.819 154.614 296.819 154.692 296.819 154.848C296.819 155.317 296.897 155.863 296.975 156.332C297.053 156.8 297.288 157.503 297.522 158.283L304.791 178.348L311.748 158.205L312.92 158.049Z" fill="#00539B"/>
<path d="M338.09 184.204C338.168 183.891 338.246 183.579 338.324 183.111C338.403 182.642 338.481 182.096 338.481 181.471C338.559 180.847 338.559 180.066 338.559 179.129C338.559 178.27 338.559 177.177 338.559 176.006V162.343C338.559 161.172 338.559 160.079 338.559 159.22C338.559 158.361 338.481 157.581 338.481 156.878C338.402 156.253 338.403 155.707 338.324 155.238C338.246 154.77 338.168 154.458 338.09 154.145V154.067H342.701V154.145C342.623 154.458 342.545 154.77 342.467 155.238C342.389 155.707 342.311 156.253 342.311 156.878C342.232 157.503 342.232 158.283 342.232 159.22C342.232 160.079 342.154 161.172 342.154 162.343V176.084C342.154 177.255 342.154 178.348 342.232 179.207C342.311 180.066 342.311 180.847 342.311 181.549C342.389 182.174 342.389 182.72 342.467 183.189C342.545 183.657 342.623 183.969 342.701 184.282V184.36H338.09V184.204Z" fill="#00539B"/>
<path d="M352.465 154.067L372.397 177.177V162.343C372.397 161.172 372.397 160.079 372.397 159.22C372.397 158.361 372.318 157.581 372.318 156.878C372.24 156.253 372.24 155.707 372.162 155.238C372.084 154.77 372.006 154.458 371.928 154.145V154.067H375.367V154.145C375.288 154.458 375.21 154.77 375.132 155.238C375.054 155.707 374.976 156.253 374.976 156.878C374.898 157.503 374.898 158.283 374.898 159.22C374.898 160.079 374.898 161.172 374.898 162.343V184.75H374.194L354.263 161.64V176.084C354.263 177.255 354.263 178.348 354.263 179.207C354.263 180.066 354.341 180.847 354.341 181.549C354.419 182.174 354.419 182.72 354.498 183.189C354.576 183.657 354.654 183.969 354.732 184.282V184.36H351.293V184.282C351.371 183.969 351.449 183.657 351.527 183.189C351.606 182.72 351.684 182.174 351.684 181.549C351.762 180.925 351.762 180.144 351.762 179.207C351.762 178.348 351.762 177.255 351.762 176.084V162.343C351.762 161.172 351.762 160.079 351.762 159.22C351.762 158.361 351.684 157.581 351.684 156.878C351.606 156.253 351.606 155.707 351.527 155.238C351.449 154.77 351.371 154.458 351.293 154.145V154.067H352.465Z" fill="#00539B"/>
<path d="M407.965 180.766C407.965 180.922 407.965 181.078 407.887 181.235C407.887 181.391 407.809 181.547 407.652 181.625C407.105 182.093 406.48 182.562 405.777 182.952C405.073 183.343 404.37 183.733 403.588 183.967C402.806 184.201 401.947 184.514 401.009 184.67C400.071 184.826 399.133 184.904 398.117 184.904C395.772 184.904 393.662 184.514 391.707 183.811C389.753 183.108 388.112 182.015 386.705 180.61C385.298 179.205 384.282 177.565 383.501 175.613C382.719 173.661 382.328 171.553 382.328 169.133C382.328 167.806 382.484 166.479 382.797 165.23C383.11 163.902 383.579 162.731 384.204 161.56C384.829 160.389 385.533 159.296 386.471 158.359C387.33 157.344 388.347 156.563 389.519 155.783C390.691 155.08 391.942 154.534 393.271 154.143C394.678 153.753 396.163 153.519 397.726 153.519C398.351 153.519 398.976 153.519 399.602 153.597C400.227 153.675 400.852 153.753 401.478 153.909C402.103 154.065 402.728 154.143 403.275 154.377C403.901 154.534 404.448 154.768 404.917 154.924L406.245 158.828L406.089 158.906C405.62 158.437 404.995 157.969 404.37 157.5C403.744 157.11 403.041 156.72 402.259 156.407C401.478 156.095 400.696 155.861 399.914 155.705C399.133 155.548 398.273 155.47 397.413 155.47C395.772 155.47 394.287 155.783 392.958 156.329C391.629 156.876 390.457 157.656 389.441 158.749C388.503 159.842 387.721 161.092 387.174 162.653C386.627 164.215 386.393 165.932 386.393 167.884C386.393 170.07 386.627 172.022 387.174 173.896C387.721 175.769 388.425 177.331 389.441 178.658C390.457 179.985 391.707 181.078 393.271 181.859C394.834 182.64 396.553 183.03 398.586 183.03C399.524 183.03 400.305 182.952 401.009 182.796C401.712 182.64 402.337 182.484 402.806 182.25C403.275 182.015 403.666 181.781 403.901 181.469C404.135 181.157 404.291 180.922 404.291 180.688V179.829C404.291 178.814 404.291 178.034 404.291 177.253C404.291 176.55 404.213 175.926 404.213 175.379C404.135 174.833 404.135 174.364 404.057 174.052C403.979 173.661 403.901 173.349 403.822 172.959V172.881H408.434V172.959C408.356 173.271 408.278 173.583 408.2 173.974C408.121 174.364 408.043 174.833 408.043 175.379C407.965 175.926 407.965 176.55 407.965 177.331C407.965 178.034 407.965 178.892 407.965 179.907V180.766Z" fill="#00539B"/>
<path d="M427.506 158.828H427.115C427.037 158.515 426.88 158.125 426.646 157.735C426.411 157.344 426.099 156.954 425.786 156.563C425.395 156.173 425.005 155.939 424.457 155.705C423.91 155.47 423.285 155.314 422.582 155.314C421.956 155.314 421.409 155.392 420.862 155.627C420.393 155.861 419.924 156.095 419.611 156.485C419.299 156.876 419.064 157.344 418.83 157.813C418.674 158.359 418.595 158.906 418.595 159.53C418.595 160.545 418.83 161.482 419.377 162.419C419.924 163.356 420.549 164.215 421.331 165.151C422.113 166.088 422.972 166.947 423.91 167.884C424.848 168.821 425.708 169.68 426.49 170.695C427.271 171.71 427.897 172.647 428.444 173.74C428.991 174.833 429.225 175.926 429.225 177.175C429.225 178.112 429.069 178.97 428.756 179.907C428.444 180.844 428.053 181.625 427.428 182.406C426.802 183.186 426.021 183.733 425.083 184.201C424.145 184.67 422.972 184.904 421.644 184.904C420.94 184.904 420.237 184.826 419.533 184.67C418.908 184.514 418.283 184.358 417.736 184.123C417.188 183.889 416.641 183.655 416.251 183.421C415.782 183.186 415.469 182.952 415.156 182.718L415.625 178.034H416.094C416.251 178.658 416.485 179.361 416.798 179.907C417.11 180.532 417.501 181 417.97 181.469C418.439 181.937 418.986 182.328 419.611 182.562C420.237 182.796 420.862 182.952 421.565 182.952C422.191 182.952 422.816 182.874 423.363 182.64C423.91 182.406 424.301 182.093 424.692 181.703C425.083 181.313 425.317 180.844 425.552 180.298C425.786 179.751 425.864 179.205 425.864 178.58C425.864 177.721 425.708 176.862 425.395 176.16C425.083 175.457 424.692 174.676 424.223 174.052C423.754 173.349 423.207 172.725 422.582 172.1C421.956 171.475 421.331 170.851 420.706 170.226C420.08 169.602 419.455 168.899 418.83 168.274C418.205 167.65 417.657 166.869 417.188 166.088C416.719 165.308 416.329 164.527 416.016 163.59C415.703 162.731 415.547 161.716 415.547 160.701C415.547 159.608 415.782 158.593 416.172 157.735C416.563 156.876 417.11 156.095 417.736 155.47C418.361 154.846 419.142 154.377 419.924 153.987C420.784 153.675 421.565 153.519 422.503 153.519C423.129 153.519 423.754 153.597 424.301 153.675C424.848 153.753 425.317 153.909 425.786 154.065C426.255 154.221 426.568 154.377 426.88 154.534C427.193 154.69 427.428 154.846 427.662 154.924L427.506 158.828Z" fill="#00539B"/>
<path d="M205.524 123.541C206.344 123.541 207.009 122.877 207.009 122.058C207.009 121.238 206.344 120.574 205.524 120.574C204.704 120.574 204.039 121.238 204.039 122.058C204.039 122.877 204.704 123.541 205.524 123.541Z" fill="#00539B"/>
<path d="M207.637 127.054C208.458 127.054 209.122 126.39 209.122 125.57C209.122 124.751 208.458 124.087 207.637 124.087C206.817 124.087 206.152 124.751 206.152 125.57C206.152 126.39 206.817 127.054 207.637 127.054Z" fill="#00539B"/>
<path d="M203.649 127.054C204.469 127.054 205.134 126.39 205.134 125.57C205.134 124.751 204.469 124.087 203.649 124.087C202.829 124.087 202.164 124.751 202.164 125.57C202.164 126.39 202.829 127.054 203.649 127.054Z" fill="#00539B"/>
<path d="M252.188 124.243C253.008 124.243 253.673 123.579 253.673 122.76C253.673 121.941 253.008 121.276 252.188 121.276C251.368 121.276 250.703 121.941 250.703 122.76C250.703 123.579 251.368 124.243 252.188 124.243Z" fill="#00539B"/>
<path d="M256.173 124.165C256.993 124.165 257.658 123.501 257.658 122.682C257.658 121.862 256.993 121.198 256.173 121.198C255.352 121.198 254.688 121.862 254.688 122.682C254.688 123.501 255.352 124.165 256.173 124.165Z" fill="#00539B"/>
<path d="M296.899 124.634C297.719 124.634 298.384 123.97 298.384 123.15C298.384 122.331 297.719 121.667 296.899 121.667C296.079 121.667 295.414 122.331 295.414 123.15C295.414 123.97 296.079 124.634 296.899 124.634Z" fill="#00539B"/>
<path d="M317.212 147.194C317.212 147.975 316.587 148.678 315.727 148.678C314.867 148.678 314.242 148.053 314.242 147.194C314.242 146.414 314.867 145.711 315.727 145.711C316.587 145.711 317.212 146.414 317.212 147.194Z" fill="#00539B"/>
<path d="M335.436 115.576L334.967 116.591C333.794 116.748 332.544 116.982 331.293 117.762L331.215 117.684L331.684 116.904C331.84 116.748 332.075 116.591 332.231 116.513V116.435C331.606 116.201 331.137 115.811 331.137 115.186C331.137 114.561 331.528 114.093 331.84 113.781C332.309 113.312 333.091 113 333.56 113C334.029 113 334.576 113.312 334.576 113.781C334.576 114.093 334.42 114.405 334.107 114.718H333.951C333.872 114.483 333.794 114.249 333.638 114.171C333.482 114.015 333.325 113.937 333.091 113.937C332.778 113.937 332.387 114.093 332.231 114.249C332.075 114.327 331.918 114.483 331.918 114.64C331.918 114.874 332.075 115.108 332.309 115.264C332.622 115.498 333.169 115.654 333.638 115.654C334.185 115.654 334.888 115.576 335.357 115.498L335.436 115.576Z" fill="#00539B"/>
<path d="M97.8968 113.311C72.0254 113.311 51 134.312 51 160.155C51 185.997 72.0254 206.999 97.8968 206.999C123.768 206.999 144.794 185.997 144.794 160.155C144.794 134.312 123.768 113.311 97.8968 113.311ZM139.088 162.965C139.088 162.965 116.89 176.94 111.888 178.111C111.888 178.111 103.993 177.721 98.991 179.126C98.991 179.126 88.2048 182.405 83.5151 180.688C83.5151 180.688 94.5358 174.364 95.1611 172.568C95.1611 172.568 97.5841 170.616 93.2852 169.914C93.2852 169.914 75.8553 168.04 68.1173 169.836C68.1173 169.836 57.1747 171.944 54.7517 169.367C54.7517 169.367 73.1978 167.259 82.499 162.184C82.499 162.184 88.2048 158.593 97.1933 159.53L104.54 159.998C104.54 159.998 113.92 137.591 111.888 122.835C111.888 122.835 129.005 121.821 128.38 133.922C128.38 133.922 129.005 141.183 122.439 153.284C122.439 153.284 118.141 161.716 125.644 161.482H138.619C138.697 161.56 140.729 161.638 139.088 162.965Z" fill="#907835"/>
<path d="M322.059 127.6L308.694 127.444C302.284 129.084 302.519 134.315 302.519 134.861L302.597 135.174L308.225 135.096L308.381 130.411L322.137 130.489C323.466 131.192 323.622 132.207 323.622 132.207C323.622 132.207 323.701 135.564 323.701 137.36C323.701 137.438 323.701 137.672 323.701 137.75C323.622 139.468 321.825 139.78 321.825 139.78H299.627L299.705 128.147L295.25 131.192V139.78C295.25 139.78 292.592 139.78 290.638 139.78C289.075 139.78 287.981 139.78 288.684 139.546C288.919 139.468 289.075 139.39 289.231 139.233C290.482 138.14 290.873 135.174 290.873 135.174C291.42 129.006 285.323 127.913 285.323 127.913L270.004 127.757C264.689 129.318 265.001 135.33 265.001 135.33H270.629V130.255H271.567H283.604H285.245C285.245 130.255 286.574 130.645 287.043 131.738V138.375C287.043 138.375 287.121 140.092 283.995 139.858C283.526 139.858 264.22 139.858 264.22 139.858C262.813 139.702 262.031 138.375 262.031 138.375V127.991H249.995C244.836 129.708 244.914 134.705 244.914 134.705C244.289 140.717 250.698 142.356 250.698 142.356H256.247C257.889 142.2 259.843 140.405 259.843 140.405C261.25 142.434 264.533 142.356 264.533 142.356H296.11C296.11 142.356 297.282 142.278 297.438 141.185L297.595 140.248L297.673 140.795C297.829 142.044 299.158 142.278 299.158 142.278H322.997C327.765 140.951 327.765 135.954 327.765 135.954C328.312 129.162 322.059 127.6 322.059 127.6ZM258.123 137.984C257.029 139.624 253.903 139.78 253.903 139.78C251.245 139.936 249.447 138.375 249.447 138.375C248.197 136.735 248.275 134.861 248.588 133.768C249.213 131.348 250.776 131.036 250.776 131.036L258.28 130.958L258.123 137.984Z" fill="#00539B"/>
</svg>
