<svg width="480" height="320" viewBox="0 0 480 320" fill="none" xmlns="http://www.w3.org/2000/svg">
<path d="M197.244 148.967C212.356 148.967 226.301 154.543 234.437 167.796C234.753 168.543 234.878 169.244 234.783 169.869C234.672 170.602 234.257 171.244 233.5 171.75L220.073 179.987L217.232 175.467C213.284 169.655 208.403 165.005 197.476 165.005C183.531 165.005 174.225 174.305 174.225 188.018V215.677C174.225 228.928 183.295 238.925 197.008 238.925C206.078 238.925 213.284 233.578 218.164 227.07C219.325 225.447 220.949 224.279 223.51 225.908L234.552 233.663C234.552 233.663 234.112 235.312 232.193 238.089C230.263 240.864 229.321 241.716 229.321 241.716C220.723 251.246 210.031 254.963 197.244 254.963C172.138 254.963 155.402 241.25 155.402 215.912V188.255C155.402 163.147 172.838 148.967 197.476 148.967H197.244ZM387.046 148.967C402.153 148.967 416.101 154.543 424.234 167.796C424.555 168.543 424.68 169.244 424.585 169.869C424.474 170.602 424.059 171.244 423.302 171.75L409.873 179.987L407.033 175.467C403.084 169.655 398.204 165.005 387.277 165.005C373.332 165.005 364.028 174.305 364.028 188.018V215.677C364.028 228.928 373.096 238.925 386.809 238.925C395.879 238.925 403.086 233.578 407.965 227.07C409.128 225.447 410.751 224.279 413.311 225.908L424.355 233.663C424.355 233.663 423.914 235.312 421.989 238.089C420.065 240.864 419.12 241.716 419.12 241.716C410.52 251.246 399.828 254.963 387.046 254.963C361.939 254.963 345.199 241.25 345.199 215.912V188.255C345.199 163.147 362.634 148.967 387.277 148.967H387.046ZM318.451 151.06C317.566 151.06 316.689 151.234 315.871 151.573C315.054 151.912 314.311 152.408 313.685 153.034C313.059 153.66 312.563 154.403 312.224 155.22C311.885 156.038 311.711 156.915 311.711 157.8V186.269C311.711 189.055 313.42 191.55 316.02 192.553L321.126 194.527H263.359V151.06H248.939C248.36 151.06 247.788 151.174 247.253 151.396C246.719 151.617 246.234 151.941 245.825 152.35C245.416 152.759 245.092 153.245 244.87 153.779C244.649 154.314 244.535 154.886 244.536 155.465V252.868H256.62C257.504 252.869 258.381 252.695 259.198 252.357C260.016 252.019 260.759 251.523 261.385 250.898C262.01 250.273 262.507 249.53 262.846 248.713C263.184 247.896 263.359 247.019 263.359 246.135V201.386L265.333 206.492C265.824 207.759 266.687 208.849 267.808 209.618C268.929 210.387 270.257 210.799 271.616 210.801H311.711V252.87H326.136C328.57 252.87 330.539 250.9 330.539 248.464V151.06H318.451Z" fill="#373A36"/>
<path d="M148.735 119.466C150.148 118.163 151.28 117.151 151.987 116.58C152.232 116.381 149.962 118.379 148.735 119.466ZM194.781 112.736C187.782 109.945 177.706 105.812 173.617 103.568C165.394 99.0489 165.526 87.8697 152.895 85.6498C141.791 83.6955 132.406 94.6687 129.47 97.9453L55.3848 65.0371C55.3848 65.0371 56.227 66.581 57.6288 69.075C61.9437 76.7304 68.487 82.8803 76.3881 86.7179L124.229 109.967L68.5026 87.3783L68.5779 87.4919C72.9532 94.3726 79.1947 99.8673 86.5744 103.335L119.758 118.983L80.4529 103.712C84.0449 107.305 89.2559 112.138 94.3718 116.372C100.259 121.238 114.715 128.663 114.715 128.663C114.715 128.663 111.322 127.916 109.076 127.155C106.828 126.384 104.187 125.252 104.187 125.252L60.3203 171.032C60.3203 171.032 83.954 161.016 98.5702 155.569C112.24 150.478 124.701 142.599 135.161 132.431C140.083 127.645 145.108 122.812 148.54 119.645C149.206 119.058 150.534 117.896 152.854 115.862C163.577 106.461 169.713 108.451 177.726 109.93C181.825 110.687 188.965 112.374 194.466 113.718C195.088 113.868 195.383 112.971 194.781 112.736Z" fill="#FF4E00"/>
</svg>
