<svg width="480" height="320" viewBox="0 0 480 320" fill="none" xmlns="http://www.w3.org/2000/svg">
<path d="M169.695 119.234H136.98L55.3848 200.766H136.98L169.695 119.234Z" fill="#0093D0"/>
<path d="M131.444 150.612C130.171 149.976 129.343 148.703 129.343 147.239C129.343 145.202 130.998 143.484 133.098 143.484C135.135 143.484 136.854 145.138 136.854 147.239C136.854 148.703 135.963 150.039 134.69 150.612V151.694C135.835 151.821 137.236 152.267 138.127 152.712C138.508 152.649 139.018 152.649 139.527 152.649C144.237 152.649 147.546 155.767 147.546 160.032C147.546 162.705 145.191 165.124 142.518 165.124C139.845 165.124 137.426 162.514 137.936 159.841C137.936 159.841 137.681 160.732 137.681 161.878V175.371C137.554 176.898 135.517 185.363 125.97 185.363C116.423 185.363 114.386 176.898 114.259 175.371V161.878C114.259 160.796 113.941 159.841 113.941 159.841C114.45 162.387 111.968 165.124 109.358 165.124C106.685 165.124 104.33 162.705 104.33 160.032C104.33 155.767 107.64 152.649 112.35 152.649C112.859 152.649 113.368 152.649 113.75 152.712C114.577 152.267 116.041 151.758 117.187 151.694V150.612C115.914 149.976 115.086 148.703 115.086 147.239C115.086 145.202 116.741 143.484 118.842 143.484C120.942 143.484 122.597 145.138 122.597 147.239C122.597 148.703 121.706 150.039 120.433 150.612V152.012C120.751 152.14 121.069 152.203 121.387 152.394C121.96 151.121 123.106 150.167 124.442 149.721V148.575C123.17 148.003 122.278 146.666 122.278 145.202C122.278 143.165 123.933 141.447 126.034 141.447C128.07 141.447 129.789 143.102 129.789 145.202C129.789 146.666 128.898 148.003 127.688 148.575V149.721C129.025 150.167 130.171 151.121 130.744 152.394L131.698 152.012L131.444 150.612Z" fill="white"/>
<path d="M145.953 160.096C145.953 156.595 143.598 153.795 138.698 153.795C135.452 153.795 131.633 156.531 131.633 163.469V173.78C133.033 172.825 135.006 171.998 136.024 171.998V162.387C136.024 158.695 138.698 157.613 139.907 157.613C139.207 158.25 138.761 159.014 138.761 160.096C138.761 162.069 140.352 163.66 142.325 163.66C144.362 163.66 145.89 162.196 145.953 160.096Z" fill="#ED1B2F"/>
<path d="M105.666 160.096C105.666 156.595 108.021 153.795 112.922 153.795C116.168 153.795 120.05 156.531 120.05 163.469V173.78C118.65 172.825 116.677 171.998 115.659 171.998V162.387C115.659 158.695 112.985 157.613 111.776 157.613C112.476 158.25 112.922 159.014 112.922 160.096C112.922 162.069 111.267 163.66 109.358 163.66C107.257 163.66 105.73 162.196 105.666 160.096Z" fill="#ED1B2F"/>
<path d="M125.841 183.899C133.988 183.899 135.833 177.089 136.088 175.307V173.016C133.542 173.652 131.315 174.989 129.787 177.026C129.278 174.671 127.75 172.698 125.841 171.361C123.931 172.634 122.468 174.671 121.895 177.026C120.367 174.989 118.14 173.652 115.594 173.016V175.307C115.785 177.089 117.63 183.899 125.841 183.899Z" fill="#ED1B2F"/>
<path d="M126.416 147.812V150.676C127.816 150.867 129.025 151.821 129.471 152.967C127.816 154.049 126.479 155.704 125.843 157.74C125.206 155.704 123.87 154.049 122.215 152.967C122.724 151.821 123.87 150.867 125.27 150.676V147.812C124.124 147.557 123.233 146.475 123.233 145.266C123.233 143.802 124.442 142.656 125.843 142.656C127.307 142.656 128.452 143.802 128.452 145.266C128.452 146.475 127.561 147.557 126.416 147.812Z" fill="#ED1B2F"/>
<path d="M119.224 149.848V152.839C122.788 153.539 125.334 157.294 125.334 160.795V170.469C123.679 171.424 122.024 173.397 121.515 174.988C121.388 174.861 121.261 174.67 121.07 174.543V162.068C121.07 158.313 119.033 154.494 115.469 153.285C115.469 153.285 116.614 152.775 118.078 152.775V149.784C116.933 149.529 116.042 148.511 116.042 147.238C116.042 145.774 117.187 144.629 118.651 144.629C120.115 144.629 121.261 145.774 121.261 147.238C121.261 148.511 120.37 149.529 119.224 149.848Z" fill="#ED1B2F"/>
<path d="M133.607 149.848V152.775C135.071 152.775 136.217 153.285 136.217 153.285C132.589 154.558 130.616 158.376 130.616 162.068V174.543L130.17 174.988C129.661 173.333 128.006 171.36 126.352 170.469V160.795C126.352 157.294 128.897 153.539 132.462 152.839V149.784C131.316 149.529 130.425 148.511 130.425 147.238C130.425 145.774 131.571 144.629 133.034 144.629C134.498 144.629 135.644 145.774 135.644 147.238C135.708 148.511 134.817 149.593 133.607 149.848Z" fill="#ED1B2F"/>
<path d="M207.691 136.928H217.875V146.602H207.691V136.928ZM193.434 152.457V150.421H203.045V163.468H207.755V150.421H217.875V152.266H222.584V132.918H207.691V125.217H203.045V132.918H188.852V152.457H193.434ZM203.045 146.602H193.434V136.928H203.045V146.602Z" fill="#002052"/>
<path d="M323.737 125.326H328.574V131.958H344.465V136.104H322.356L322.217 140.664H340.181C339.905 145.086 339.628 150.198 339.352 154.344C339.075 158.075 338.661 159.871 337.417 160.976C336.312 161.944 333.272 162.22 329.541 162.773C329.265 160.976 328.436 159.456 327.606 157.798C332.028 157.522 334.377 157.936 334.654 155.449C334.93 153.1 335.206 149.369 335.206 144.809H321.941C320.974 157.246 315.861 160.147 311.163 163.187C310.058 161.944 309.09 160.7 307.57 159.595C317.796 155.035 317.657 147.849 317.796 136.104H308.123V131.958H323.876C323.737 132.097 323.737 125.326 323.737 125.326Z" fill="#002052"/>
<path d="M409.553 139.53L411.902 136.075C416.462 138.424 421.713 140.911 424.615 142.846C424.615 142.846 422.819 145.057 421.575 146.577C418.259 144.09 412.455 141.188 409.553 139.53ZM419.364 146.853V150.86H409.001V157.493H423.924V161.638H389.379V157.493H403.888V150.86H393.939V146.853H419.364ZM391.452 146.991C390.761 145.886 389.655 144.366 388.826 143.122C392.143 141.879 398.084 138.839 401.124 135.799C401.124 135.799 404.026 138.839 404.164 138.977C402.368 140.911 395.321 145.195 391.452 146.991ZM404.026 125.573H408.862V129.857H423.095V138.562H418.535V133.726H394.906V138.7H390.346V129.857H403.888C404.026 129.857 404.026 125.573 404.026 125.573Z" fill="#002052"/>
<path d="M252.04 144.372H254.527V140.918H247.618V136.772H255.77V133.456H235.872V136.772H243.611V140.918H236.84V144.234H243.611V150.038H235.182V153.63H256.323V150.038H247.756V144.234H251.763L249 145.892C250.105 146.998 251.349 148.656 252.178 149.761L254.941 147.965C253.974 146.86 252.592 145.201 252.04 144.372ZM233.385 162.888V159.71H257.843V162.75H262.265V126.961H229.102V162.75C229.102 162.888 233.385 162.888 233.385 162.888ZM257.981 156.256H233.385V130.831H257.843L257.981 156.256Z" fill="#002052"/>
<path d="M290.347 140.419C288.965 142.492 288.274 143.874 287.031 145.532H283.3L284.958 144.703C284.267 143.459 282.471 141.248 281.78 140.419H290.347ZM290.9 140.419H297.256V156.724C297.256 158.244 296.565 158.797 294.631 158.797H292.834C293.663 160.594 294.354 161.699 294.907 163.357C298.085 162.943 299.329 162.39 300.158 161.837C301.125 161.146 301.678 160.594 301.678 158.106V136.965H288.274V133.925H304.58V130.056H288.274V125.496H283.714V130.056H267.133V133.925H283.714V136.965H270.449V163.219H274.733V140.557H281.504L278.325 141.939C279.155 143.045 280.122 144.565 280.813 145.67H276.805V148.986H283.853V151.888H275.7V155.481H283.853V162.252H287.998V155.481H296.289V151.888H287.998V148.986H295.46V145.67H291.176C291.867 144.841 293.663 142.768 294.078 142.216L290.9 140.419Z" fill="#002052"/>
<path d="M358.713 135.526L355.397 136.079C355.95 138.29 356.226 140.086 356.502 141.468L359.68 140.777C359.542 139.533 358.989 136.77 358.713 135.526ZM360.786 142.573H354.568V134.421H360.786V142.573ZM363.826 160.813C365.208 161.504 366.451 162.333 367.557 163.024C370.32 159.984 372.531 155.701 372.393 143.817V142.712H375.848L375.571 158.188C375.571 160.951 375.986 161.919 378.611 162.057H382.066C383.309 162.057 384.138 160.261 385.244 156.392C384.138 155.839 382.618 155.01 381.789 154.181C381.513 155.839 381.237 157.497 380.822 157.912C380.546 158.188 380.269 158.05 380.131 158.05C379.855 158.05 379.717 157.773 379.855 157.221C379.855 153.075 380.269 139.119 380.269 139.119H368.524V147.41C368.524 153.628 366.866 158.464 363.826 160.813ZM358.575 147.41L355.12 147.824C355.535 149.897 355.95 152.937 356.226 154.457L359.68 153.628C359.542 151.97 358.851 148.653 358.575 147.41ZM347.935 142.573V146.442H350.837V147.548C350.699 152.937 349.731 157.221 347.797 160.122C348.764 160.951 350.146 162.195 351.251 163.301C353.6 159.846 354.568 155.977 354.568 146.442H360.786V156.806C360.786 158.05 360.095 158.05 356.502 158.05C357.331 159.431 357.608 160.675 357.884 162.333C362.997 161.781 364.517 160.675 364.517 158.741V131.104H359.266C359.542 129.861 360.095 127.512 360.371 126.545C359.542 126.268 356.64 125.854 356.226 125.715C356.088 126.959 355.811 129.17 355.397 131.104H350.837V142.573H347.935ZM376.815 131.795V125.439H372.255V131.795H365.622V135.664H384.138V131.795H376.815Z" fill="#002052"/>
<path d="M423.06 191.991V170.158H421.125V185.635L407.169 170.158H406.34V191.991H408.413V176.791L422.369 191.991H423.06ZM404.544 191.991L399.016 181.213C401.365 180.522 403.715 179.693 403.715 175.686C403.715 171.54 400.122 170.158 397.22 170.158H389.62V191.853H392.936V181.351H395.838L401.227 191.853C401.089 191.991 404.544 191.991 404.544 191.991ZM396.391 179.831H392.798V172.369H396.391C398.464 172.369 400.122 174.027 400.122 176.1C400.122 178.173 398.464 179.831 396.391 179.831ZM376.217 181.489H386.995V179.555H376.217V172.369H386.995V170.435H373.038V191.991H386.995V189.918H376.217V181.489ZM366.958 191.991H370.137V170.158H366.958V179.693H356.595V170.158H353.279V191.991H356.595V181.627H366.958V191.991ZM345.54 172.369H352.035V170.435H335.592V172.369H342.224V191.991H345.54V172.369ZM334.21 184.391V170.158H332.275V184.667C332.275 187.846 329.512 190.056 327.024 190.056C324.123 190.056 321.221 187.984 321.221 184.667V170.158H318.043V184.529C318.043 188.398 321.359 192.129 326.195 192.129C331.861 191.991 334.21 187.569 334.21 184.391ZM315.832 180.937C315.832 174.718 310.857 169.744 304.777 169.744C298.697 169.744 293.723 174.718 293.723 180.937C293.723 187.155 298.697 192.129 304.777 192.129C310.857 192.129 315.832 187.155 315.832 180.937ZM312.377 181.075C312.377 186.187 308.923 190.333 304.777 190.333C300.632 190.333 297.177 186.187 297.177 181.075C297.177 175.962 300.632 171.817 304.777 171.817C308.923 171.817 312.377 175.962 312.377 181.075ZM291.512 173.198V170.573C278.799 166.98 277.832 177.344 281.977 180.107C283.636 181.213 286.399 183.009 288.057 184.115C291.926 186.602 287.505 193.235 280.043 188.26V191.162C291.926 195.307 295.519 185.496 290.13 181.351C288.057 179.831 286.537 178.726 284.603 177.62C280.734 175.271 282.668 169.744 291.512 173.198ZM265.258 191.991H268.988L262.356 170.02H258.901L252.269 191.991H254.894L256.829 185.22H263.323L265.258 191.991ZM262.77 183.286H257.243L260.007 173.889L262.77 183.286ZM250.196 191.991H251.025V170.297H249.09V185.773L235.134 170.297H234.305V191.991H236.378V176.791C236.24 176.791 250.196 191.991 250.196 191.991ZM227.396 191.991H230.712V170.158H227.396V191.991ZM220.763 191.991H223.942V170.158H220.763V179.555H210.4V170.158H207.222V191.991H210.4V181.766H220.763V191.991ZM197.825 192.267C200.727 192.267 203.076 191.715 204.873 191.3V188.813C202.938 189.78 201.418 190.333 199.345 190.333C187.186 190.333 188.153 171.955 198.102 171.955C201.971 171.955 203.629 172.646 204.873 173.06V170.711C203.076 170.297 201.004 170.02 197.825 170.02C182.349 169.882 183.317 192.267 197.825 192.267Z" fill="#002052"/>
</svg>
