<svg width="480" height="320" viewBox="0 0 480 320" fill="none" xmlns="http://www.w3.org/2000/svg">
<path d="M239.999 266.667C298.909 266.667 346.665 218.911 346.665 160.001C346.665 101.09 298.909 53.334 239.999 53.334C181.088 53.334 133.332 101.09 133.332 160.001C133.332 218.911 181.088 266.667 239.999 266.667Z" fill="#07183E"/>
<path d="M236.515 71.7852L220.859 85.0325C215.696 86.1663 213.909 94.2981 221.805 100.258V119.441C206.638 119.912 193.216 126.857 180.515 132.258L174.579 125.893C167.806 124.197 161.382 123.837 155.912 127.355L155.482 154.882L198.665 207.957C208.728 196.683 209.755 188.737 221.805 192.731V246.323C230.058 252.807 239.535 250.726 249.074 248.215V182.839C261.511 181.455 273.544 186.78 284.687 193.161C291.898 178.953 295.912 167.212 324.515 136.645C317.633 125.539 310.751 119.585 303.87 112.129C284.699 113.613 268.244 112.482 249.074 117.462V103.699C248.044 96.7342 251.008 96.1608 258.708 92.9464C252.768 85.9007 248.62 78.8307 236.515 71.7852ZM276.343 135.699C283.369 141.209 280.649 143.486 280.3 146.538L267.052 165.205L249.074 166.151V141.118L276.343 135.699ZM221.805 143.097V172.516L201.16 175.957L188.859 145.506C196.292 142.613 208.013 143.446 221.805 143.097Z" fill="white"/>
</svg>
