<svg width="480" height="320" viewBox="0 0 480 320" fill="none" xmlns="http://www.w3.org/2000/svg">
<path fill-rule="evenodd" clip-rule="evenodd" d="M152.383 148.593C119.75 149.498 88.1697 156.904 85.2355 167.405C84.9674 168.358 84.9004 169.299 84.9004 170.258C84.9004 180.601 106.49 184.139 129.863 187.053C130.264 187.1 130.246 186.781 130.116 186.551C130.024 186.388 129.673 185.77 129.434 185.344C129.34 185.177 129.24 185.068 128.913 184.974C116.12 181.72 103.134 176.965 103.134 172.531C103.134 164.145 124.893 155.838 149.672 152.04C150.49 151.883 150.881 151.729 151.43 151.293C152.117 150.745 153.629 149.51 154.269 148.999C154.686 148.653 154.537 148.544 154.38 148.547C153.716 148.56 153.052 148.574 152.383 148.594V148.593Z" fill="#1B1D80"/>
<path fill-rule="evenodd" clip-rule="evenodd" d="M116.285 199.222C99.334 194.974 82.5344 180.747 85.1811 167.567C89.0482 148.336 114.91 129.708 147.185 120.953C147.913 120.739 148.182 120.258 147.249 120.258H103.199C95.572 120.258 93.9193 121.244 90.965 125.241C89.3913 127.367 76.2083 145.545 70.2635 153.738C69.4988 154.713 68.417 155.763 66.011 155.763H55.3848C55.3848 155.766 55.3848 155.768 55.3935 155.774C67.9868 191.353 81.5137 199.743 95.0634 199.743H116.458C116.759 199.743 117.062 199.418 116.285 199.222M319.284 127.662V130.711H305.88C305.581 130.711 305.285 130.769 305.009 130.883C304.732 130.997 304.481 131.165 304.27 131.376C304.058 131.587 303.89 131.838 303.776 132.115C303.661 132.391 303.603 132.687 303.603 132.986C303.604 133.589 303.845 134.166 304.272 134.592C304.699 135.018 305.277 135.257 305.88 135.258C305.88 135.258 311.496 135.204 312.433 135.191L312.419 140.756C312.102 149.58 307.982 154.931 306.218 157.209L305.741 157.847C305.468 158.056 305.247 158.326 305.096 158.635C304.944 158.945 304.867 159.285 304.87 159.629C304.87 160.881 305.895 161.905 307.145 161.905C307.84 161.905 308.606 161.578 309.015 161.115C308.995 161.122 309.062 161.088 309.062 161.088C310.675 159.811 316.01 154.784 317.036 143.42H331.49C331.49 145.74 331.423 148.463 331.288 151.768C331.053 157.484 327.1 157.35 325.192 157.272L325.077 157.268C323.411 157.091 320.915 156.484 320.897 156.484L320.284 156.41C319.681 156.41 319.103 156.649 318.677 157.075C318.251 157.501 318.012 158.079 318.012 158.682C318.012 159.73 318.72 160.638 319.738 160.887C319.738 160.914 322.147 161.743 324.384 161.776L324.831 161.783C327.683 161.823 330.905 161.871 333.178 159.673C335.099 157.805 336.054 154.626 336.115 149.968C336.217 148.042 336.261 144.964 336.261 143.208C336.261 142.66 336.261 142.241 336.248 142.029C336.151 140.24 334.794 138.896 333.112 138.896C333.112 138.896 318.703 138.876 317.272 138.876V135.195C317.55 135.195 337.573 135.262 337.573 135.262C338.175 135.26 338.753 135.021 339.179 134.595C339.604 134.169 339.845 133.592 339.846 132.99C339.846 132.387 339.607 131.809 339.18 131.382C338.754 130.956 338.176 130.716 337.573 130.716H324.044V127.602C324.044 126.406 322.93 125.397 321.633 125.397C320.357 125.397 319.285 126.437 319.285 127.666M393.134 146.651C392.835 146.65 392.539 146.709 392.263 146.823C391.987 146.937 391.736 147.105 391.524 147.316C391.313 147.527 391.145 147.778 391.031 148.054C390.917 148.33 390.858 148.626 390.858 148.925C390.858 150.181 391.874 151.202 393.134 151.202H404.413V156.986H390.982C390.38 156.988 389.802 157.228 389.376 157.654C388.95 158.08 388.709 158.658 388.706 159.26C388.706 160.511 389.733 161.536 390.982 161.536H422.344C423.59 161.536 424.616 160.511 424.616 159.26C424.613 158.658 424.373 158.081 423.948 157.655C423.522 157.229 422.946 156.989 422.344 156.986H409.088V151.202H420.376C421.632 151.202 422.655 150.181 422.655 148.925C422.654 148.321 422.413 147.742 421.986 147.316C421.559 146.89 420.979 146.65 420.376 146.651H393.134ZM404.391 127.737V129.264H392.691C390.953 129.284 389.541 130.699 389.541 132.426L389.547 132.505V137.066C389.547 138.322 390.564 139.34 391.817 139.34C392.115 139.341 392.411 139.282 392.687 139.168C392.963 139.054 393.214 138.886 393.425 138.675C393.636 138.464 393.803 138.213 393.917 137.937C394.031 137.661 394.089 137.365 394.089 137.066V133.809H399.39C399.491 134.64 399.427 135.483 399.204 136.29C398.547 138.593 396.211 140.195 392.252 141.055L392.1 141.088C390.941 141.212 390.092 142.132 390.092 143.284C390.092 144.512 391.189 145.556 392.489 145.556L392.74 145.536C401.56 144.724 403.905 140.126 404.334 136.403C404.418 135.541 404.461 134.675 404.463 133.809V133.782C404.718 133.782 408.653 133.809 408.914 133.809V142.075C408.916 142.893 409.238 143.678 409.811 144.262C410.385 144.845 411.163 145.182 411.981 145.199H418.6C422.032 145.199 423.483 142.806 423.497 142.792C423.758 142.41 423.892 141.814 423.917 141.38C423.984 140.286 423.5 139.995 422.988 139.67L422.871 139.59C422.059 139.079 421.173 139.242 420.214 140.065C419.085 141.034 418.13 140.885 418.116 140.885L414.243 140.872C414.243 140.872 413.884 140.878 413.656 140.652C413.517 140.522 413.444 140.325 413.444 140.069L413.458 133.81H419.578L419.086 135.639C419.043 135.815 419.018 135.995 419.014 136.175C419.014 136.569 419.125 136.958 419.342 137.308C419.5 137.563 419.706 137.784 419.95 137.958C420.193 138.132 420.469 138.256 420.761 138.322C421.988 138.612 423.418 137.746 423.704 136.541C423.744 136.441 424.62 134.027 424.589 132.631C424.555 130.411 423.483 129.303 421.303 129.252C421.22 129.252 410.352 129.265 409.004 129.265V127.739C409.004 126.506 407.932 125.463 406.661 125.463C406.363 125.463 406.067 125.522 405.792 125.637C405.516 125.751 405.266 125.919 405.056 126.13C404.845 126.342 404.678 126.593 404.565 126.869C404.452 127.145 404.394 127.44 404.395 127.739M238.756 132.031C238.439 132.384 238.317 132.877 238.369 133.476L238.376 133.523C238.376 133.55 238.416 133.923 238.436 134.153C238.123 134.153 227.971 134.18 227.971 134.18C227.032 134.18 225.978 134.924 225.978 135.992C225.978 136.978 226.843 137.799 227.873 137.799L238.922 137.826C239.584 141.979 240.465 145.471 241.599 148.487C240.174 150.714 238.843 152.491 238.284 153.194C238.03 153.461 237.815 154.301 237.815 154.935C237.815 155.191 237.841 155.417 237.928 155.553C238.225 156.066 238.681 156.393 239.223 156.462C239.822 156.538 240.442 156.296 240.961 155.772C241.464 155.27 241.757 154.801 242.199 154.083C242.199 154.083 243.143 152.649 243.355 152.325C244.422 154.396 245.359 155.77 245.371 155.783C245.54 156.058 245.776 156.286 246.057 156.446C246.338 156.605 246.655 156.69 246.978 156.693C247.332 156.692 247.678 156.59 247.976 156.401C248.275 156.212 248.515 155.943 248.667 155.624L248.752 155.453C249.069 154.859 249.9 153.267 250.46 149.971V149.958C250.514 149.246 250.354 148.663 249.997 148.257C249.713 147.921 249.309 147.739 248.838 147.709C248.117 147.682 247.303 148.096 247.115 148.97C247.115 148.97 246.81 150.338 246.647 151.041C246.401 150.499 245.757 149.022 245.705 148.921C247.438 146.037 248.627 143.362 249.35 140.756C249.356 140.735 249.41 140.079 249.41 140.079C249.378 139.59 249.156 139.134 248.79 138.808C248.612 138.647 248.403 138.525 248.176 138.447C247.95 138.369 247.71 138.337 247.47 138.354C247.095 138.377 246.736 138.514 246.441 138.748C246.147 138.981 245.931 139.3 245.824 139.66C245.818 139.681 244.877 142.565 244.024 144.322C243.505 142.592 243.042 140.508 242.583 137.826H248.672C249.668 137.826 250.476 137.004 250.476 135.99C250.476 134.972 249.668 134.151 248.672 134.151H247.707C247.712 134.078 247.72 134.015 247.72 133.962C247.726 133.5 247.565 133.052 247.267 132.7L247.046 132.434C246.885 132.236 246.684 132.074 246.457 131.956C246.231 131.839 245.982 131.77 245.727 131.753C245.471 131.729 245.213 131.757 244.968 131.834C244.723 131.911 244.496 132.037 244.3 132.203C244.181 132.303 244.086 132.427 244.021 132.568C243.956 132.708 243.923 132.861 243.923 133.016V133.043C243.923 133.396 244.121 133.779 244.385 134.104C243.96 134.11 242.347 134.125 242.151 134.125C242.124 133.938 242.026 133.342 242.026 133.342C241.885 132.104 241.262 131.479 240.167 131.479C239.579 131.479 239.079 131.676 238.75 132.027" fill="#DF0011"/>
<path fill-rule="evenodd" clip-rule="evenodd" d="M250.997 156.63C250.99 157.002 250.806 157.189 250.43 157.189L240.365 157.169L226 157.143C225.668 157.143 225.504 156.968 225.504 156.596L225.518 131.79C225.518 131.613 225.558 131.485 225.645 131.395C225.731 131.312 225.864 131.27 226.049 131.27L250.501 131.276C250.706 131.276 250.844 131.323 250.945 131.416C251.019 131.501 251.062 131.626 251.062 131.783L250.997 156.63ZM252.251 126.945L252.246 126.941L224.342 126.948C222.614 126.975 221.211 128.396 221.211 130.116V158.299C221.224 160.039 222.622 161.463 224.341 161.497H252.246C253.991 161.483 255.409 160.063 255.409 158.325C255.423 158.325 255.423 130.111 255.423 130.111C255.421 129.271 255.087 128.466 254.493 127.872C253.899 127.278 253.094 126.944 252.254 126.943L252.251 126.945Z" fill="#DF0011"/>
<path fill-rule="evenodd" clip-rule="evenodd" d="M229.992 145.878H235.283V142.337H229.992V145.878ZM238.507 139.953C238.246 139.306 237.64 138.887 236.952 138.887H228.319C228.067 138.888 227.818 138.946 227.591 139.055C227.363 139.165 227.164 139.325 227.006 139.522C226.757 139.838 226.622 140.228 226.623 140.63V147.595L226.66 147.944C226.732 148.331 226.936 148.681 227.238 148.933C227.54 149.186 227.92 149.325 228.314 149.327H236.953L237.451 149.251C238.161 149.037 238.652 148.357 238.652 147.601V140.63C238.651 140.397 238.601 140.166 238.507 139.953ZM235.604 150.062C235.56 150.074 231.196 151.473 228.208 151.438C226.796 151.422 226.092 152.398 226.035 153.299C226.007 153.7 226.179 154.127 226.514 154.481C226.956 154.948 227.6 155.253 228.157 155.26C233.289 155.294 237.16 153.574 237.191 153.55H237.202C238.171 153.103 238.972 152.025 238.529 150.914C237.866 149.251 235.623 150.054 235.604 150.062ZM208.602 147.237C208.602 147.344 208.584 147.571 208.457 147.714C208.407 147.761 208.348 147.798 208.284 147.822C208.219 147.846 208.151 147.857 208.082 147.853H198.026V135.161H208.004C208.209 135.161 208.363 135.211 208.457 135.319C208.559 135.428 208.571 135.583 208.571 135.644V135.684L208.602 147.184V147.237ZM193.465 147.862L183.353 147.853C183.31 147.853 182.895 147.832 182.869 147.286V135.677C182.869 135.62 182.874 135.433 182.997 135.3C183.086 135.207 183.222 135.161 183.384 135.161L193.465 135.184V147.862ZM210.177 130.606H198.05V127.321C198.049 126.712 197.807 126.129 197.377 125.699C196.947 125.269 196.363 125.026 195.755 125.025C195.454 125.026 195.156 125.085 194.878 125.201C194.6 125.317 194.347 125.486 194.135 125.699C193.922 125.912 193.754 126.165 193.639 126.443C193.524 126.722 193.465 127.02 193.465 127.321V130.605H181.408C179.672 130.605 178.262 132.047 178.262 133.781L178.265 149.235C178.267 150.071 178.598 150.872 179.187 151.464C179.775 152.057 180.573 152.395 181.408 152.404C181.408 152.404 192.105 152.425 193.465 152.425V159.827C193.465 160.435 193.707 161.018 194.137 161.448C194.567 161.877 195.15 162.119 195.758 162.119C196.366 162.119 196.949 161.877 197.378 161.448C197.808 161.018 198.05 160.435 198.05 159.827V152.439L210.166 152.464C211.922 152.464 213.343 151.04 213.343 149.296V133.767C213.342 132.928 213.008 132.124 212.414 131.531C211.82 130.938 211.016 130.605 210.177 130.606ZM282.987 146.086C282.987 145.844 282.994 144.082 282.994 143.849H292.055C292.055 144.082 292.031 145.844 292.028 146.086H282.987ZM282.994 138.077H292.055C292.055 138.311 292.031 140.078 292.028 140.311H282.987C282.987 140.078 282.994 138.311 282.994 138.078V138.077ZM278.318 140.322H269.155C269.155 140.083 269.159 138.318 269.161 138.079H278.318L278.318 140.322ZM278.318 146.107H269.155C269.155 145.867 269.159 144.108 269.161 143.868H278.318L278.318 146.107ZM297.574 156.582H297.571C297.509 156.559 291.407 154.006 285.539 149.904H293.082C293.912 149.904 294.708 149.575 295.296 148.989C295.884 148.402 296.215 147.607 296.218 146.776L296.205 146.565V146.321C296.205 144.879 296.179 137.613 296.179 137.613C296.181 136.804 295.869 136.027 295.308 135.444C294.747 134.862 293.982 134.52 293.174 134.492L282.851 134.487V132.358L296.345 132.329C297.613 132.329 298.612 131.372 298.612 130.145C298.612 128.915 297.574 127.915 296.313 127.915H282.851V127.484C282.851 126.238 281.828 125.228 280.581 125.228C279.982 125.227 279.407 125.464 278.982 125.888C278.558 126.311 278.319 126.885 278.318 127.484V127.915H264.861C263.623 127.915 262.591 128.915 262.591 130.145C262.591 131.366 263.623 132.358 264.861 132.358H278.318V134.487H267.964C265.978 134.559 264.836 135.701 264.836 137.637L264.823 146.728C264.842 146.741 264.842 146.782 264.842 146.782C264.843 147.612 265.173 148.407 265.76 148.994C266.347 149.581 267.142 149.911 267.972 149.913C267.972 149.913 274.678 149.904 275.458 149.904C271.179 153.085 263.371 156.391 263.286 156.427C262.909 156.617 262.593 156.908 262.373 157.268C262.152 157.627 262.036 158.041 262.036 158.462C262.036 158.761 262.095 159.056 262.209 159.332C262.323 159.607 262.491 159.858 262.702 160.069C262.913 160.279 263.164 160.446 263.44 160.559C263.716 160.673 264.012 160.731 264.31 160.73L264.891 160.647C264.992 160.647 273.286 158.148 278.292 152.702C278.298 153.347 278.292 160.243 278.292 160.243C278.292 161.5 279.332 162.51 280.581 162.51C281.828 162.51 282.828 161.5 282.828 160.243C282.828 160.243 282.835 154.097 282.828 152.52C286.484 156.619 295.391 160.647 295.49 160.692C295.829 160.899 296.778 161.031 297.184 161.031C298.371 161.031 299.301 160.003 299.301 158.692C299.301 157.744 298.409 156.978 297.574 156.582ZM369.194 136.68H368.906L368.796 136.7L368.695 136.707C367.112 136.707 365.85 138.042 365.766 139.82V150.685C365.568 155.218 363.666 157.873 363.277 158.366C363.248 158.398 363.221 158.432 363.195 158.467L363.137 158.552C363.102 158.614 362.747 159.294 362.747 159.819C362.747 161.033 363.74 162.03 364.953 162.03C365.297 162.031 365.635 161.952 365.943 161.799C366.25 161.646 366.517 161.423 366.722 161.148C366.729 161.141 370.528 157.19 370.528 150.975V150.914C370.534 149.938 370.476 141.285 370.476 141.285H374.331C374.331 142.281 374.336 148.593 374.336 153.173C374.336 155.661 374.336 157.631 374.331 157.944C374.354 159.781 375.495 161.636 377.638 161.628L380.348 161.625C380.424 161.636 382.673 161.825 383.874 157.744C383.874 157.726 383.957 157.407 383.957 157.407L384.097 156.564L384.101 156.426C384.136 155.968 384.199 155.007 382.597 154.518C381.625 154.219 380.827 154.647 380.449 155.661L380.223 156.304C380.034 156.934 379.945 157.156 379.608 157.182C379.608 157.182 379.021 157.186 378.762 157.19V139.797C378.762 139.767 378.681 136.86 375.714 136.68H369.193M369.618 127.523V130.183H365.483C364.163 130.183 363.089 131.181 363.089 132.397C363.089 133.622 364.163 134.621 365.482 134.621H379.547C380.854 134.621 381.926 133.622 381.926 132.396C381.926 131.181 380.854 130.183 379.547 130.183H374.066C374.06 129.935 374.066 127.513 374.066 127.513C374.065 126.923 373.83 126.357 373.413 125.94C372.996 125.523 372.431 125.288 371.841 125.286C370.609 125.286 369.618 126.291 369.618 127.523M357.942 142.378C357.72 142.378 356.308 142.385 355.891 142.385C356.193 142.031 356.391 141.602 356.391 141.109C356.395 140.993 356.387 140.876 356.368 140.761L355.881 137.652C355.85 137.396 355.766 137.149 355.634 136.927C355.502 136.705 355.326 136.513 355.116 136.363C354.919 136.226 354.696 136.131 354.461 136.083C354.226 136.035 353.984 136.035 353.749 136.083C352.83 136.262 352.195 137.091 352.195 138.05C352.195 138.156 352.201 138.267 352.217 138.377L352.701 141.488C352.749 141.809 352.868 142.115 353.049 142.385C352.669 142.385 351.328 142.385 351.107 142.387V134.64L357.942 134.624V142.378ZM362.681 142.354H362.462V132.321C362.462 131.063 361.467 130.043 360.25 130.043C360.25 130.043 356.925 130.056 356.587 130.056C356.66 129.773 356.98 128.504 356.98 128.504L357.107 128.162C357.152 127.986 357.176 127.804 357.178 127.622C357.177 127.224 357.068 126.834 356.861 126.494C356.713 126.243 356.517 126.025 356.284 125.85C356.052 125.676 355.787 125.549 355.505 125.478C355.223 125.407 354.929 125.393 354.642 125.436C354.354 125.48 354.078 125.58 353.829 125.73C353.58 125.879 353.363 126.075 353.191 126.309C353.02 126.543 352.897 126.809 352.83 127.091C352.83 127.091 352.13 129.878 352.075 130.075C351.874 130.075 348.994 130.093 348.994 130.093C348.967 130.075 348.902 130.075 348.902 130.075C347.678 130.075 346.685 131.106 346.685 132.357V142.392C345.425 142.402 344.407 143.379 344.407 144.581C344.407 145.777 345.417 146.752 346.675 146.758C346.669 146.993 346.657 148.03 346.657 148.03C346.663 148.02 346.643 148.255 346.643 148.255L346.645 148.331C346.616 149.942 346.512 151.55 346.332 153.152C346.332 153.139 346.309 153.369 346.309 153.369C345.799 157.666 344.958 159.36 344.952 159.376C344.864 159.684 344.804 159.99 344.804 160.295C344.804 161.499 345.795 162.487 347.009 162.487C347.429 162.485 347.841 162.364 348.195 162.138C348.549 161.912 348.832 161.589 349.01 161.209C349.108 161.029 350.097 159.187 350.685 153.895L350.715 153.575C350.878 151.96 351 150.172 351.063 148.265C351.063 148.255 351.093 147.148 351.093 146.764C351.319 146.764 352.483 146.758 352.709 146.758V152.223C352.709 153.414 353.453 154.277 354.483 154.277C355.522 154.277 356.308 153.395 356.308 152.223V146.738C356.533 146.738 357.808 146.729 358.042 146.729V157.306C358.042 157.494 357.985 157.633 357.861 157.739C357.397 158.125 356.2 157.913 355.749 157.834L355.506 157.799C354.31 157.848 353.495 158.709 353.495 159.925C353.495 160.892 353.859 161.203 354.255 161.526L354.358 161.611C354.897 162.072 355.786 162.111 355.902 162.104C358.764 162.215 360.326 161.872 361.275 160.951C362.096 160.147 362.461 158.859 362.461 156.803V146.728H362.681C363.889 146.728 364.778 145.811 364.778 144.541C364.778 143.274 363.889 142.354 362.68 142.354H362.681Z" fill="#DF0011"/>
<path fill-rule="evenodd" clip-rule="evenodd" d="M246.744 172.781C246.366 173.238 246.178 173.937 246.178 174.879V186.919C245.689 186.09 239.172 175.106 239.172 175.106C237.986 173.101 236.764 172.083 235.543 172.083C234.487 172.083 233.731 172.343 233.312 172.846C232.895 173.351 232.697 174.258 232.697 175.619V191.833C232.697 192.789 232.874 193.507 233.247 193.948C233.621 194.404 234.222 194.635 235.026 194.635C235.817 194.635 236.413 194.401 236.801 193.936C237.194 193.482 237.379 192.772 237.379 191.833V179.827C237.874 180.649 244.695 192.131 244.695 192.131C245.347 193.234 245.9 193.914 246.378 194.198C246.845 194.487 247.498 194.635 248.308 194.635C249.244 194.635 249.915 194.365 250.3 193.847C250.682 193.329 250.867 192.444 250.867 191.146V174.878C250.867 173.929 250.682 173.217 250.3 172.766C249.924 172.311 249.325 172.083 248.534 172.083C247.727 172.083 247.131 172.311 246.744 172.78M224.159 172.711C223.763 173.13 223.563 173.765 223.563 174.604V192.119C223.563 192.937 223.777 193.563 224.167 193.994C224.565 194.42 225.164 194.635 225.936 194.635C226.727 194.635 227.331 194.42 227.729 193.994C228.116 193.583 228.317 192.951 228.317 192.119V174.604C228.317 173.779 228.113 173.139 227.722 172.721C227.321 172.297 226.72 172.084 225.936 172.084C225.152 172.084 224.56 172.297 224.159 172.711ZM215.035 172.711C214.648 173.13 214.443 173.765 214.443 174.604V180.473H205.765V174.604C205.765 173.779 205.569 173.139 205.17 172.721C204.773 172.297 204.17 172.084 203.393 172.084C202.601 172.084 202.004 172.297 201.609 172.711C201.213 173.13 201.023 173.765 201.023 174.604V192.119C201.023 192.937 201.212 193.563 201.609 193.994C202.004 194.414 202.6 194.635 203.393 194.635C204.177 194.635 204.793 194.42 205.179 193.994C205.574 193.583 205.765 192.951 205.765 192.119V184.747H214.443V192.119C214.443 192.942 214.648 193.572 215.047 193.994C215.444 194.42 216.044 194.635 216.828 194.635C217.619 194.635 218.231 194.42 218.63 193.997C219.021 193.582 219.224 192.952 219.224 192.119V174.604C219.224 173.779 219.017 173.139 218.614 172.721C218.212 172.297 217.614 172.084 216.828 172.084C216.038 172.084 215.43 172.297 215.035 172.711ZM181.05 174.943C179.2 177.041 178.262 179.99 178.262 183.722C178.262 187.19 179.191 189.956 181.012 191.963C182.841 193.958 185.391 194.974 188.57 194.974C190.078 194.974 191.427 194.764 192.569 194.364C193.718 193.955 194.815 193.294 195.824 192.407C196.417 191.873 196.922 191.25 197.322 190.56C197.697 189.874 197.896 189.238 197.896 188.675C197.896 188.07 197.67 187.558 197.223 187.141C196.772 186.717 196.235 186.504 195.597 186.504C195.194 186.503 194.797 186.606 194.446 186.805C194.122 186.991 193.757 187.341 193.374 187.835L193.027 188.435L192.543 189.189C192.148 189.654 191.626 190.018 190.992 190.278C190.354 190.523 189.627 190.65 188.82 190.65C186.996 190.65 185.57 190.018 184.59 188.763C183.598 187.512 183.097 185.688 183.097 183.364C183.097 181.087 183.597 179.286 184.58 177.995C185.561 176.723 186.925 176.074 188.629 176.074C189.441 176.074 190.17 176.21 190.797 176.475C191.427 176.738 191.984 177.147 192.425 177.668L192.85 178.281C193.061 178.624 193.239 178.864 193.42 179.03C193.752 179.343 194.102 179.586 194.439 179.739C194.786 179.891 195.16 179.971 195.539 179.975C196.227 179.975 196.772 179.758 197.184 179.343C197.595 178.933 197.799 178.371 197.799 177.694C197.799 177.076 197.606 176.429 197.209 175.763C196.815 175.107 196.274 174.519 195.592 174.012C194.612 173.248 193.563 172.683 192.466 172.328C191.372 171.962 190.156 171.783 188.849 171.783C185.533 171.783 182.911 172.849 181.049 174.943M260.254 185.96C260.364 185.622 262.823 178.059 263.065 177.324C263.306 178.052 265.779 185.622 265.89 185.96H260.254ZM272.824 191.978C272.761 191.777 272.7 191.575 272.64 191.374L266.533 174.463C266.158 173.458 265.759 172.834 265.302 172.543C264.842 172.261 264.143 172.125 263.159 172.125C262.111 172.125 261.39 172.268 260.936 172.569C260.487 172.86 260.095 173.509 259.735 174.518L253.739 191.378C253.739 191.374 253.562 191.978 253.562 191.978L253.511 192.577C253.511 193.208 253.727 193.722 254.153 194.099C254.576 194.487 255.128 194.678 255.803 194.678C256.392 194.678 256.872 194.533 257.262 194.254C257.638 193.968 257.914 193.537 258.108 192.966C258.108 192.966 258.92 190.423 259.073 189.951H267.281L268.279 192.966C268.466 193.546 268.745 193.983 269.12 194.266C269.49 194.537 269.97 194.678 270.552 194.678C271.234 194.678 271.801 194.487 272.218 194.099C272.658 193.708 272.879 193.192 272.879 192.577C272.879 192.577 272.892 192.197 272.824 191.978ZM420.494 172.781C420.117 173.238 419.918 173.937 419.918 174.879V186.919C417.587 182.98 415.255 179.043 412.921 175.106C411.733 173.101 410.514 172.083 409.291 172.083C408.228 172.083 407.482 172.343 407.064 172.846C406.641 173.351 406.438 174.258 406.438 175.619V191.833C406.438 192.803 406.624 193.497 406.995 193.948C407.367 194.404 407.966 194.635 408.775 194.635C409.563 194.635 410.157 194.401 410.549 193.936C410.933 193.475 411.128 192.772 411.128 191.833V179.827C411.616 180.643 418.436 192.131 418.436 192.131C419.089 193.234 419.649 193.914 420.13 194.195C420.592 194.487 421.249 194.635 422.057 194.635C422.99 194.635 423.659 194.365 424.039 193.847C424.426 193.329 424.614 192.444 424.614 191.146V174.878C424.614 173.929 424.419 173.217 424.051 172.766C423.668 172.311 423.073 172.083 422.267 172.083C421.476 172.083 420.875 172.311 420.494 172.78M367.839 172.372C366.786 172.372 366.03 172.63 365.612 173.14C365.198 173.651 364.991 174.559 364.991 175.932V190.821C364.991 192.189 365.198 193.097 365.612 193.603C366.03 194.108 366.786 194.365 367.839 194.365H379.308C380.133 194.365 380.766 194.184 381.2 193.829C381.638 193.461 381.872 192.93 381.872 192.233C381.872 191.525 381.647 190.98 381.223 190.632C380.785 190.277 380.146 190.106 379.308 190.106H369.676V184.775H377.799C378.619 184.775 379.234 184.608 379.667 184.273C380.112 183.931 380.337 183.43 380.337 182.79C380.337 182.119 380.119 181.607 379.69 181.272C379.262 180.94 378.635 180.776 377.8 180.776H369.676V176.429H378.731C379.557 176.429 380.193 176.258 380.624 175.925C381.068 175.584 381.295 175.093 381.295 174.434C381.295 173.756 381.068 173.241 380.624 172.895C380.195 172.543 379.557 172.372 378.73 172.372L367.839 172.372ZM346.466 172.419C345.715 172.419 345.132 172.599 344.74 172.94C344.344 173.297 344.137 173.809 344.137 174.495C344.137 175.17 344.337 175.686 344.726 176.03C345.102 176.365 345.694 176.53 346.466 176.53H350.842V192.119C350.842 192.937 351.049 193.566 351.443 193.994C351.843 194.423 352.443 194.635 353.234 194.635C354.013 194.635 354.61 194.424 355.004 193.994C355.391 193.583 355.596 192.951 355.596 192.119V176.53H359.981C360.737 176.53 361.322 176.358 361.704 176.014C362.101 175.671 362.295 175.158 362.295 174.494C362.295 173.809 362.101 173.296 361.704 172.939C361.322 172.598 360.737 172.418 359.981 172.418L346.466 172.419ZM287.499 172.372C286.437 172.372 285.695 172.63 285.264 173.14C284.85 173.651 284.639 174.559 284.639 175.932V190.821C284.639 192.189 284.85 193.097 285.264 193.603C285.695 194.108 286.43 194.365 287.499 194.365H298.956C299.78 194.365 300.415 194.184 300.85 193.829C301.289 193.461 301.51 192.93 301.51 192.233C301.51 191.525 301.298 190.98 300.853 190.636C300.432 190.277 299.787 190.106 298.956 190.106H289.339V184.775H297.452C298.256 184.775 298.885 184.608 299.311 184.273C299.756 183.931 299.982 183.43 299.982 182.794C299.982 182.119 299.761 181.607 299.328 181.273C298.909 180.94 298.279 180.776 297.452 180.776H289.339V176.429H298.383C299.204 176.429 299.84 176.258 300.268 175.925C300.706 175.584 300.931 175.093 300.931 174.434C300.931 173.756 300.706 173.241 300.268 172.895C299.84 172.549 299.204 172.372 298.383 172.372L287.499 172.372ZM327.838 173.563C326.364 174.734 325.617 176.38 325.617 178.475C325.617 180.322 326.129 181.757 327.138 182.726C328.141 183.697 330.08 184.506 332.906 185.153L333.211 185.228C336.768 186.043 338.575 187.073 338.575 188.291C338.575 189.166 338.243 189.816 337.574 190.266C336.89 190.721 335.871 190.95 334.514 190.95C333.663 190.95 332.919 190.823 332.297 190.574C331.698 190.327 331.17 189.937 330.758 189.438L330.154 188.568C329.452 187.508 328.682 186.966 327.852 186.966C327.212 186.966 326.684 187.19 326.284 187.623C325.895 188.056 325.694 188.625 325.694 189.299C325.694 189.945 325.894 190.609 326.296 191.288C326.684 191.958 327.232 192.537 327.885 193.014C328.854 193.703 329.874 194.2 330.908 194.507C331.935 194.822 333.175 194.974 334.585 194.974C337.238 194.974 339.363 194.322 340.904 193.053C342.452 191.782 343.229 190.022 343.229 187.829C343.229 186.636 343.013 185.6 342.566 184.778C342.123 183.937 341.432 183.245 340.505 182.72C339.905 182.402 339.279 182.137 338.634 181.928C337.914 181.686 336.764 181.369 335.211 180.983L333.823 180.65C331.429 180.087 330.222 179.265 330.222 178.207C330.222 177.409 330.516 176.812 331.12 176.365C331.726 175.932 332.613 175.711 333.734 175.711C334.514 175.711 335.197 175.819 335.768 176.036C336.306 176.24 336.785 176.574 337.162 177.007L337.586 177.56C338.333 178.54 339.132 179.039 339.95 179.039C340.582 179.039 341.103 178.843 341.501 178.459C341.886 178.074 342.078 177.56 342.078 176.927C342.078 176.36 341.877 175.75 341.487 175.107C341.087 174.469 340.561 173.92 339.942 173.492C339.128 172.918 338.221 172.489 337.261 172.225C336.28 171.951 335.178 171.815 333.98 171.815C331.367 171.815 329.3 172.403 327.838 173.563ZM397.167 181.207C396.666 181.643 395.842 181.866 394.742 181.866H389.641V176.399H394.952C395.933 176.399 396.68 176.638 397.181 177.093C397.673 177.548 397.92 178.235 397.92 179.136C397.92 180.086 397.673 180.776 397.167 181.207ZM402.255 190.342C402.208 190.106 402.171 189.668 402.15 189.03L402.062 187.448C401.973 186.439 401.705 185.632 401.273 185.022C400.892 184.485 400.33 184.108 399.646 183.817C400.57 183.462 401.296 182.882 401.818 182.066C402.383 181.168 402.669 180.025 402.669 178.676C402.669 176.558 402.077 174.953 400.911 173.927C399.754 172.894 397.953 172.372 395.558 172.372H387.744C386.688 172.372 385.94 172.63 385.522 173.14C385.099 173.651 384.894 174.559 384.894 175.932V192.12C384.894 192.938 385.091 193.562 385.479 193.993C385.881 194.422 386.481 194.637 387.265 194.637C388.053 194.637 388.654 194.422 389.053 193.993C389.44 193.582 389.641 192.949 389.641 192.12V185.923H394.233C395.328 185.923 396.102 186.118 396.512 186.498C396.936 186.878 397.206 187.927 397.317 189.618C397.468 191.877 397.744 193.239 398.166 193.8C398.584 194.368 399.296 194.666 400.273 194.666C400.98 194.666 401.554 194.467 401.991 194.083C402.416 193.691 402.642 193.159 402.642 192.495C402.642 192.295 402.58 191.952 402.473 191.447L402.255 190.342ZM310.786 185.96C310.899 185.622 313.356 178.059 313.598 177.324C313.844 178.052 316.313 185.622 316.423 185.96H310.786ZM323.357 191.978C323.296 191.777 323.236 191.575 323.177 191.374L317.067 174.463C316.695 173.458 316.289 172.834 315.835 172.543C315.378 172.261 314.676 172.125 313.69 172.125C312.645 172.125 311.924 172.268 311.468 172.569C311.021 172.86 310.627 173.509 310.27 174.518L304.27 191.378C304.27 191.374 304.094 191.978 304.094 191.978L304.042 192.577C304.042 193.208 304.264 193.722 304.684 194.099C305.113 194.487 305.661 194.678 306.336 194.678C306.924 194.678 307.406 194.533 307.792 194.254C308.17 193.968 308.448 193.537 308.645 192.966L309.604 189.951H317.814C317.878 190.137 318.81 192.966 318.81 192.966C318.999 193.546 319.282 193.983 319.653 194.266C320.022 194.537 320.501 194.678 321.087 194.678C321.768 194.678 322.335 194.487 322.753 194.099C323.189 193.708 323.414 193.192 323.414 192.577C323.414 192.577 323.421 192.197 323.357 191.978Z" fill="#1B1D80"/>
</svg>
