<svg width="480" height="320" viewBox="0 0 480 320" fill="none" xmlns="http://www.w3.org/2000/svg">
<path d="M346.029 175.631C344.741 175.465 343.536 175.293 342.437 175.115C347.013 185.955 357.744 193.565 370.254 193.565C382.764 193.565 393.496 185.955 398.072 175.115C396.973 175.293 395.768 175.465 394.48 175.631C390 184.474 380.848 190.55 370.254 190.55C359.661 190.55 350.508 184.474 346.029 175.631M331 153.847C331 153.847 355.142 152.646 370.254 152.646C385.442 152.646 409.514 153.814 409.514 153.814V151.111C409.514 151.111 400.483 146.34 370.255 146.34C340.029 146.34 331 151.144 331 151.144V153.847ZM331 166.152C331 166.152 355.142 167.353 370.254 167.353C385.442 167.353 409.509 166.152 409.509 166.152V168.855C409.509 168.855 400.483 173.661 370.255 173.661C340.029 173.661 331 168.855 331 168.855V166.152ZM315.893 161.426C315.893 161.426 340.023 163.376 370.254 163.376C400.486 163.376 424.616 161.426 424.616 161.426V158.725C424.616 158.725 400.486 156.775 370.254 156.775C340.023 156.775 315.893 158.725 315.893 158.725V161.426ZM346.029 144.368C344.741 144.534 343.536 144.706 342.437 144.884C347.013 134.044 357.744 126.434 370.255 126.434C382.764 126.434 393.496 134.044 398.072 144.884C396.973 144.706 395.768 144.534 394.48 144.368C390 135.525 380.848 129.449 370.255 129.449C359.661 129.449 350.508 135.525 346.029 144.368M76.2148 145.004C74.9232 144.104 74.3754 143.83 73.2402 143.4C71.7118 142.851 70.0682 142.538 68.3836 142.538C60.9834 142.538 55.3848 148.255 55.3848 155.812C55.3848 163.761 60.9061 169.36 68.6978 169.36C69.9119 169.36 70.9682 169.243 72.2613 168.929C73.5528 168.616 74.1796 168.381 75.7458 167.677L74.8443 165.17C72.7697 166.032 71.0866 166.384 68.8935 166.384C62.8244 166.384 58.8694 162.116 58.8694 155.616C58.8694 149.703 62.7849 145.475 68.2667 145.475C70.7724 145.475 72.6529 146.062 74.6107 147.433L76.2148 145.004ZM79.6614 168.851H82.5981V151.113H79.6615L79.6614 168.851ZM83.067 144.927C83.067 143.869 82.2066 143.009 81.1487 143.009C80.0924 143.009 79.2304 143.869 79.2304 144.927C79.2304 145.983 80.0924 146.845 81.1487 146.845C82.2066 146.845 83.067 145.983 83.067 144.927ZM97.7079 151.857C96.9248 151.073 96.1022 150.644 95.4375 150.644C94.1049 150.644 93.0092 151.504 90.8161 154.324V151.113H87.8795V168.851H90.8161V158.279C92.5008 155.224 93.9091 153.619 95.0064 153.619C95.3586 153.619 95.6711 153.814 96.2584 154.324L97.7079 151.857ZM110.19 151.857C109.407 151.073 108.585 150.644 107.92 150.644C106.587 150.644 105.492 151.504 103.299 154.324V151.113H100.362V168.851H103.299V158.279C104.982 155.224 106.392 153.619 107.489 153.619C107.841 153.619 108.154 153.814 108.741 154.324L110.19 151.857ZM127.536 168.851V151.113H124.56V161.96C122.525 164.778 119.705 166.775 117.826 166.775C116.337 166.775 115.71 165.875 115.71 163.682V151.113H112.773V164.426C112.773 167.677 114.419 169.399 117.512 169.399C120.175 169.399 122.485 168.029 124.56 165.169V168.851L127.536 168.851ZM144.54 164.27C144.54 161.489 143.484 160.275 139.725 158.709C136.513 157.378 136.044 157.105 135.339 156.399C135.065 156.126 134.909 155.734 134.909 155.303C134.909 153.972 136.201 153.071 138.198 153.071C138.863 153.071 139.529 153.189 140.233 153.385C141.135 153.619 141.643 153.854 142.778 154.56L144.228 152.171C142.74 151.348 142.114 151.073 140.783 150.84C140.037 150.682 139.254 150.644 138.511 150.644C134.36 150.644 131.777 152.562 131.777 155.655C131.777 157.809 132.951 159.023 136.396 160.471C139.568 161.764 140.391 162.272 141.095 163.291C141.291 163.565 141.447 164.074 141.447 164.505C141.447 165.875 140.116 166.854 138.315 166.854C137.063 166.854 135.497 166.463 134.243 165.875C133.93 165.719 133.499 165.484 132.912 165.17L131.698 167.637C133.46 168.537 134.203 168.812 135.888 169.125C136.788 169.281 137.611 169.36 138.354 169.36C142.23 169.36 144.54 167.442 144.54 164.27ZM179.664 168.851L170.071 142.263H166.624L156.993 168.851H160.438L163.1 161.216H173.555L176.217 168.851H179.664ZM172.537 158.279H164.118L168.348 146.454L172.537 158.279ZM182.607 168.851H185.543V151.113H182.607V168.851ZM186.014 144.927C186.014 143.869 185.152 143.009 184.096 143.009C183.038 143.009 182.177 143.869 182.177 144.927C182.177 145.983 183.038 146.845 184.096 146.845C185.152 146.845 186.014 145.983 186.014 144.927ZM200.653 151.857C199.87 151.073 199.049 150.644 198.383 150.644C197.052 150.644 195.954 151.504 193.763 154.324V151.113H190.826V168.851H193.763V158.279C195.446 155.224 196.856 153.619 197.952 153.619C198.304 153.619 198.618 153.814 199.205 154.324L200.653 151.857ZM203.235 168.851H206.171V140.305H203.235V168.851ZM211.386 168.851H214.323V151.113H211.386V168.851ZM214.792 144.927C214.792 143.869 213.932 143.009 212.874 143.009C211.817 143.009 210.955 143.869 210.955 144.927C210.955 145.983 211.817 146.845 212.874 146.845C213.932 146.845 214.792 145.983 214.792 144.927ZM234.367 168.851V155.576C234.367 152.248 232.84 150.644 229.708 150.644C228.062 150.644 226.3 151.269 224.969 152.406C224.107 153.11 223.755 153.462 222.541 154.833V151.113H219.604V168.851H222.541V158.005C225.634 154.597 227.554 153.266 229.354 153.266C230.176 153.266 230.882 153.618 231.155 154.206C231.351 154.716 231.43 155.107 231.43 156.282V168.851H234.367ZM253.615 159.727V158.005C253.615 153.581 250.913 150.644 246.762 150.644C241.712 150.644 238.383 154.364 238.383 160.002C238.383 165.601 241.712 169.36 246.646 169.36C248.955 169.36 250.444 168.851 253.067 167.206L251.892 164.896C249.974 166.227 248.839 166.658 247.272 166.658C243.669 166.658 241.476 164.034 241.476 159.727H253.615ZM250.405 157.534H241.712C242.378 154.793 244.1 153.306 246.567 153.306C248.995 153.306 250.365 154.793 250.405 157.534ZM269.309 164.27C269.309 161.489 268.252 160.275 264.493 158.709C261.282 157.378 260.813 157.105 260.107 156.399C259.834 156.126 259.676 155.734 259.676 155.303C259.676 153.972 260.969 153.071 262.966 153.071C263.631 153.071 264.297 153.189 265.001 153.385C265.903 153.619 266.411 153.854 267.547 154.56L268.996 152.171C267.507 151.348 266.882 151.073 265.549 150.84C264.806 150.682 264.023 150.644 263.279 150.644C259.128 150.644 256.543 152.562 256.543 155.655C256.543 157.809 257.718 159.023 261.165 160.471C264.337 161.764 265.158 162.272 265.864 163.291C266.059 163.565 266.216 164.074 266.216 164.505C266.216 165.875 264.885 166.854 263.083 166.854C261.83 166.854 260.263 166.463 259.011 165.875C258.697 165.719 258.268 165.484 257.68 165.17L256.466 167.637C258.228 168.537 258.972 168.812 260.655 169.125C261.556 169.281 262.379 169.36 263.123 169.36C266.999 169.36 269.309 167.442 269.309 164.27Z" fill="#2250A9"/>
</svg>
