<svg width="480" height="320" viewBox="0 0 480 320" fill="none" xmlns="http://www.w3.org/2000/svg">
<path d="M263.47 73.5994L257.906 84.86H200.717L181.317 117.718L179.884 102.161L196.706 73.7619L263.47 73.5994Z" fill="#CCDBF3"/>
<path d="M205.136 91.4727H252.751L247.599 102.731H209.963L181.634 150.579L180.101 133.094L205.136 91.4727Z" fill="#5493D5"/>
<path d="M221.912 188.502L214.625 127.545L202.129 148.598L217.044 148.593L211.196 158.474H196.075L178.297 188.591H155.472C154.904 188.591 154.573 188.179 154.573 188.179L147.292 127.708L135.021 148.617L149.808 148.603L143.594 158.786L129.043 158.756C120.943 170.019 112.6 185.896 95.7458 189.079C86.5845 191.2 75.1288 190.466 67.9316 184.997C57.7031 177.244 51.4483 156.199 58.1933 137.988C62.8986 125.292 70.1366 116.444 81.0232 111.791C83.4748 110.894 84.8535 110.404 87.4026 109.913C106.895 106.172 125.86 110.049 125.86 110.049L120.29 119.546C105.511 119.383 88.4346 117.484 80.0942 137.988C75.676 148.682 76.356 161.164 80.6956 171.368C82.9844 175.285 87.3239 177.818 91.4117 178.306C100.822 177.244 106.876 172.839 112.028 166.39C118.41 157.085 124.123 147.436 129.782 137.988C135.346 128.704 140.872 119.205 146.344 109.835L175.193 109.913L170.856 119.871L172.736 137.988L176.255 171.368C176.255 171.937 176.092 172.43 176.991 171.937L196.993 137.988L213.661 109.835L242.117 109.913L237.293 119.871L239.332 137.988L245.145 188.548L221.912 188.502Z" fill="#1476C6"/>
<path d="M129.224 206.93L106.018 246.4H95.418L118.746 206.93H129.224Z" fill="#D3D3D3"/>
<path d="M137.995 206.93H149.507L126.057 246.4H114.179L137.995 206.93Z" fill="#A7A6A6"/>
<path d="M140.254 240.047C140.254 241.237 140.503 243.238 142.047 244.511C143.613 245.825 145.761 246.034 146.928 246.034C152.663 246.034 155.938 241.34 155.938 237.19C155.938 233.479 153.351 231.141 149.307 231.141C144.342 231.141 140.254 234.624 140.254 240.047ZM142.047 240.297C142.047 236 144.759 231.81 149.098 231.81C151.766 231.81 154.145 233.416 154.145 237.087C154.145 240.486 151.85 245.365 146.928 245.365C144.32 245.365 142.047 243.926 142.047 240.297ZM162.653 238.566C163.634 238.566 164.614 238.587 165.595 238.69C165.595 238.276 165.636 238.046 165.782 237.628C165.302 237.669 164.176 237.753 163.363 237.753H160.901C161.215 236.293 161.589 234.584 162.152 232.352C163.382 232.352 165.698 232.392 166.887 232.601C166.865 232.102 166.928 231.913 167.074 231.433C166.492 231.477 165.281 231.517 164.238 231.517C163.257 231.517 161.944 231.477 160.527 231.433C159.942 235.104 158.544 241.694 157.482 245.72C157.753 245.679 158.024 245.636 158.441 245.636C158.836 245.636 159.086 245.679 159.338 245.72C159.817 242.884 160.11 241.402 160.735 238.566H162.653ZM176.918 231.246C176.606 233.102 174.561 242.862 173.602 245.72C173.811 245.679 174.103 245.636 174.334 245.636C174.605 245.636 174.832 245.679 175.041 245.72C175.187 243.802 176.628 236.794 177.232 234.332C178.085 235.418 184.551 244.801 185.199 245.95H185.491C185.719 244.01 187.867 234.104 188.639 231.433C188.43 231.477 188.284 231.517 188.013 231.517C187.764 231.517 187.471 231.477 187.284 231.433C186.889 234.917 185.491 241.632 185.136 242.946C184.115 241.757 178.378 233.416 177.17 231.246H176.918ZM195.083 238.566C196.064 238.566 197.044 238.587 198.025 238.69C198.003 238.276 198.066 238.046 198.212 237.628C197.732 237.669 196.524 237.753 195.793 237.753H193.312C193.645 236.293 194 234.584 194.563 232.33C195.815 232.33 198.128 232.373 199.317 232.582C199.298 232.102 199.339 231.913 199.507 231.433C198.859 231.477 197.586 231.517 196.627 231.517C195.69 231.517 194.292 231.477 192.957 231.433C192.353 235.104 190.977 241.694 189.912 245.72C190.497 245.698 191.434 245.636 193.125 245.636C194.249 245.636 195.961 245.679 197.378 245.72C197.358 245.24 197.378 245.072 197.505 244.593C195.668 244.823 193.791 244.845 191.914 244.845C192.29 242.759 192.708 240.652 193.144 238.566H195.083ZM204.261 243.279C203.822 240.15 203.239 234.25 203.115 231.433C202.822 231.477 202.508 231.517 202.197 231.517C201.842 231.517 201.592 231.477 201.362 231.433C201.779 233.977 202.779 242.946 202.969 245.72C203.134 245.679 203.342 245.636 203.594 245.636C203.844 245.636 203.99 245.679 204.136 245.72C204.448 245.032 204.846 244.157 205.241 243.363C205.574 242.716 207.284 239.59 207.66 238.858C209.08 236.128 209.245 235.814 210.101 234.332H210.288C210.331 234.603 211.583 244.032 211.686 245.72C211.894 245.679 212.04 245.636 212.271 245.636C212.479 245.636 212.666 245.657 212.853 245.72C214.229 243.008 215.605 240.318 217.025 237.65C217.212 237.295 219.758 232.56 220.446 231.433C220.216 231.477 219.945 231.517 219.674 231.517C219.381 231.517 219.173 231.477 218.986 231.433C217.401 235.272 213.793 242.217 213.083 243.363H212.937C212.374 239.861 211.623 232.853 211.561 231.433C211.415 231.477 211.268 231.517 211.038 231.517C210.83 231.517 210.664 231.477 210.518 231.433C209.684 233.289 205.011 242.236 204.385 243.279H204.261ZM224.867 245.72C226.492 245.679 228.413 245.636 230.038 245.636C231.436 245.636 234.461 245.657 235.754 245.72C235.754 245.156 235.775 244.969 235.94 244.49C233.917 244.677 231.874 244.72 229.829 244.782C229.057 244.801 228.266 244.823 227.494 244.823L227.37 244.699C229.101 242.426 237.17 232.436 237.671 231.872L237.715 231.433C236.357 231.496 233.876 231.517 232.438 231.517C230.853 231.517 229.266 231.477 227.681 231.433C227.619 231.975 227.578 232.165 227.432 232.56C228.995 232.455 233.334 232.33 235.168 232.33L235.252 232.455C234.356 233.728 226.327 243.843 224.867 245.408V245.72ZM243.742 238.566C244.72 238.566 245.7 238.587 246.681 238.69C246.662 238.276 246.724 238.046 246.87 237.628C246.388 237.669 245.18 237.753 244.449 237.753H241.968C242.301 236.293 242.656 234.584 243.219 232.33C244.47 232.33 246.786 232.373 247.976 232.582C247.954 232.102 247.995 231.913 248.163 231.433C247.515 231.477 246.245 231.517 245.283 231.517C244.346 231.517 242.948 231.477 241.613 231.433C241.009 235.104 239.633 241.694 238.568 245.72C239.153 245.698 240.09 245.636 241.781 245.636C242.907 245.636 244.617 245.679 246.036 245.72C246.015 245.24 246.036 245.072 246.161 244.593C244.324 244.823 242.447 244.845 240.57 244.845C240.946 242.759 241.363 240.652 241.802 238.566H243.742ZM256.985 231.203C256.254 232.392 255.525 233.435 254.482 235.041C252.144 238.628 249.788 242.196 247.369 245.72C247.683 245.679 247.932 245.636 248.163 245.636C248.455 245.636 248.642 245.679 248.829 245.72C249.498 244.365 251.353 241.215 252.104 240.088C253.022 240.069 253.941 240.026 254.856 240.026C256.026 240.026 257.213 240.069 257.63 240.088C257.86 241.153 258.424 244.219 258.57 245.72C258.841 245.679 259.133 245.636 259.507 245.636C259.884 245.636 260.195 245.679 260.466 245.72C259.905 243.677 257.798 233.373 257.381 231.203H256.985ZM257.465 239.275C256.659 239.316 255.852 239.337 255.046 239.338C254.23 239.338 253.418 239.316 252.627 239.275L256.254 233.749H256.316L257.465 239.275ZM270.331 244.511C268.517 244.782 266.683 244.801 264.846 244.823C265.661 240.318 266.577 235.854 267.745 231.433C267.474 231.477 267.203 231.517 266.786 231.517C266.39 231.517 266.141 231.477 265.889 231.433C265.285 235.104 263.909 241.694 262.844 245.72C263.971 245.679 266.035 245.636 266.537 245.636C267.517 245.636 269.226 245.657 270.166 245.72C270.166 245.2 270.207 244.929 270.331 244.511ZM280.154 231.203C279.425 232.392 278.694 233.435 277.651 235.041C275.316 238.628 272.959 242.196 270.54 245.72C270.854 245.679 271.104 245.636 271.334 245.636C271.624 245.636 271.813 245.679 272 245.72C272.667 244.365 274.525 241.215 275.275 240.088C276.193 240.069 277.109 240.026 278.027 240.026C279.195 240.026 280.384 240.069 280.801 240.088C281.031 241.153 281.595 244.219 281.741 245.72C282.012 245.679 282.302 245.636 282.678 245.636C283.055 245.636 283.366 245.679 283.637 245.72C283.074 243.677 280.969 233.373 280.552 231.203H280.154ZM280.633 239.275C279.82 239.316 279.008 239.338 278.214 239.338C277.402 239.338 276.589 239.316 275.795 239.275L279.425 233.749H279.487L280.633 239.275ZM289.31 231.246C288.998 233.102 286.953 242.862 285.994 245.72C286.202 245.679 286.495 245.636 286.725 245.636C286.996 245.636 287.224 245.679 287.432 245.72C287.578 243.802 289.02 236.794 289.624 234.332C290.477 235.418 296.943 244.801 297.59 245.95H297.883C298.11 244.01 300.259 234.104 301.03 231.433C300.822 231.477 300.676 231.517 300.405 231.517C300.156 231.517 299.863 231.477 299.676 231.433C299.281 234.917 297.883 241.632 297.528 242.946C296.507 241.757 290.769 233.416 289.561 231.246H289.31ZM316.967 237.149C316.967 234.958 316.026 233.08 314.482 232.205C313.315 231.539 311.668 231.433 310.105 231.433C308.916 231.433 307.727 231.517 306.703 231.517C306.223 231.517 305.828 231.455 305.473 231.433C304.891 235.104 303.493 241.694 302.428 245.72C302.659 245.679 303.263 245.636 303.888 245.636C304.598 245.679 305.744 245.72 306.871 245.72C309.458 245.72 310.958 245.408 312.649 244.428C315.859 242.55 316.967 239.443 316.967 237.149ZM315.171 237.149C315.171 239.4 314.025 242.009 312.064 243.531C310.563 244.699 308.854 244.948 306.871 244.948C306.058 244.948 305.245 244.929 304.43 244.845C305.162 240.695 306.267 235.605 307.101 232.268C307.914 232.227 308.707 232.205 309.52 232.205C311.042 232.205 312.481 232.33 313.483 233.061C314.545 233.833 315.171 235.418 315.171 237.149ZM166.622 218.575C165.348 219.409 163.888 219.932 162.388 219.932C160.968 219.932 159.571 219.452 158.571 218.366C157.924 217.678 157.36 216.594 157.36 214.633C157.36 210.586 159.76 206.688 164.159 206.688C166.391 206.688 167.537 207.794 167.914 208.167C167.998 207.896 168.163 207.439 168.518 206.77C167.31 206.144 165.912 205.957 164.536 205.957C158.904 205.957 155.526 209.795 155.526 214.446C155.526 218.889 158.758 220.744 162.26 220.744C164.306 220.744 165.641 220.14 166.37 219.785C166.454 219.368 166.516 219.138 166.703 218.68L166.622 218.575ZM168.957 220.473C169.227 220.43 169.582 220.39 169.894 220.39C170.249 220.39 170.563 220.43 170.812 220.473C171.438 216.635 172.73 210.462 173.857 206.187C173.586 206.228 173.231 206.271 172.898 206.271C172.605 206.271 172.25 206.228 172.001 206.187C171.397 209.858 170.021 216.448 168.957 220.473ZM179.822 218.428C179.551 216.968 179.258 215.76 179.031 214.403C178.779 212.965 178.508 211.526 178.299 210.066C178.112 208.774 177.944 207.479 177.758 206.187C177.508 206.228 177.278 206.271 176.902 206.271C176.528 206.271 176.257 206.228 175.983 206.187C176.319 207.794 176.609 209.419 176.902 211.025C177.465 214.176 178.112 217.532 178.57 220.473C178.738 220.43 178.885 220.39 179.174 220.39C179.448 220.39 179.591 220.43 179.759 220.473C180.407 219.116 187.309 207.417 188.04 206.187C187.832 206.228 187.601 206.271 187.29 206.271C186.976 206.271 186.767 206.228 186.58 206.187C186.204 207.105 185.494 208.438 184.849 209.711C184.118 211.131 183.825 211.651 181.157 216.343C180.762 217.052 180.261 217.846 179.927 218.428H179.822ZM187.496 220.473C187.769 220.43 188.122 220.39 188.436 220.39C188.791 220.39 189.102 220.43 189.354 220.473C189.98 216.635 191.272 210.462 192.399 206.187C192.128 206.228 191.773 206.271 191.44 206.271C191.147 206.271 190.792 206.228 190.543 206.187C189.937 209.858 188.56 216.448 187.496 220.473ZM200.929 219.263C199.114 219.534 197.277 219.555 195.443 219.577C196.256 215.072 197.174 210.608 198.342 206.187C198.071 206.228 197.8 206.271 197.383 206.271C196.987 206.271 196.736 206.228 196.486 206.187C195.882 209.858 194.504 216.448 193.442 220.473C194.566 220.43 196.633 220.39 197.134 220.39C198.112 220.39 199.824 220.411 200.761 220.473C200.761 219.951 200.804 219.68 200.929 219.263ZM216.03 205.957C215.299 207.146 214.571 208.189 213.528 209.795C211.19 213.382 208.833 216.949 206.414 220.473C206.728 220.43 206.978 220.39 207.208 220.39C207.5 220.39 207.687 220.43 207.874 220.473C208.543 219.116 210.399 215.969 211.149 214.842C212.068 214.82 212.986 214.779 213.901 214.779C215.069 214.779 216.258 214.82 216.675 214.842C216.906 215.906 217.469 218.973 217.615 220.473C217.886 220.43 218.179 220.39 218.552 220.39C218.929 220.39 219.241 220.43 219.511 220.473C218.951 218.428 216.843 208.127 216.426 205.957H216.03ZM216.51 214.029C215.704 214.07 214.898 214.091 214.091 214.091C213.276 214.091 212.463 214.07 211.672 214.029L215.299 208.5H215.362L216.51 214.029ZM225.04 218.428C224.769 216.968 224.477 215.76 224.246 214.403C223.997 212.965 223.726 211.526 223.518 210.066C223.331 208.774 223.163 207.479 222.976 206.187C222.724 206.228 222.497 206.271 222.12 206.271C221.746 206.271 221.473 206.228 221.202 206.187C221.538 207.794 221.827 209.419 222.12 211.025C222.683 214.176 223.331 217.532 223.789 220.473C223.956 220.43 224.103 220.39 224.393 220.39C224.664 220.39 224.81 220.43 224.978 220.473C225.625 219.116 232.527 207.417 233.259 206.187C233.05 206.228 232.82 206.271 232.506 206.271C232.194 206.271 231.985 206.228 231.799 206.187C231.422 207.105 230.712 208.438 230.068 209.711C229.336 211.131 229.044 211.651 226.376 216.343C225.977 217.052 225.479 217.846 225.143 218.428H225.04ZM232.714 220.473C232.985 220.43 233.34 220.39 233.654 220.39C234.009 220.39 234.32 220.43 234.57 220.473C235.195 216.635 236.49 210.462 237.617 206.187C237.346 206.228 236.991 206.271 236.655 206.271C236.366 206.271 236.011 206.228 235.759 206.187C235.155 209.858 233.779 216.448 232.714 220.473ZM246.708 205.957C245.979 207.146 245.251 208.189 244.208 209.795C241.87 213.382 239.513 216.949 237.094 220.473C237.408 220.43 237.658 220.39 237.888 220.39C238.178 220.39 238.367 220.43 238.554 220.473C239.221 219.116 241.079 215.969 241.829 214.842C242.748 214.82 243.663 214.779 244.581 214.779C245.749 214.779 246.938 214.82 247.355 214.842C247.586 215.906 248.149 218.973 248.295 220.473C248.566 220.43 248.859 220.39 249.233 220.39C249.609 220.39 249.921 220.43 250.192 220.473C249.628 218.428 247.523 208.127 247.106 205.957H246.708ZM247.19 214.029C246.384 214.07 245.576 214.091 244.768 214.091C243.956 214.091 243.143 214.07 242.349 214.029L245.979 208.5H246.042L247.19 214.029ZM258.727 207.105C259.851 207.105 261.666 207.208 262.647 207.292C262.709 206.751 262.752 206.542 262.877 206.187C261.52 206.249 259.895 206.271 257.787 206.271C255.701 206.271 254.033 206.271 252.532 206.187C252.491 206.645 252.448 206.853 252.302 207.292C254.263 207.146 255.869 207.105 256.953 207.105C256.451 210.088 255.2 216.177 254.076 220.473C254.347 220.43 254.702 220.39 255.035 220.39C255.43 220.39 255.682 220.43 255.931 220.473C256.619 216.28 257.893 210.421 258.727 207.105ZM262.771 220.473C263.042 220.43 263.397 220.39 263.711 220.39C264.066 220.39 264.378 220.43 264.63 220.473C265.253 216.635 266.547 210.462 267.674 206.187C267.403 206.228 267.048 206.271 266.713 206.271C266.423 206.271 266.068 206.228 265.816 206.187C265.212 209.858 263.836 216.448 262.771 220.473ZM268.945 214.801C268.945 215.99 269.197 217.992 270.738 219.263C272.304 220.576 274.452 220.785 275.619 220.785C281.354 220.785 284.629 216.093 284.629 211.943C284.629 208.23 282.042 205.895 277.997 205.895C273.032 205.895 268.945 209.378 268.945 214.801ZM270.738 215.05C270.738 210.754 273.449 206.561 277.789 206.561C280.457 206.561 282.835 208.167 282.835 211.838C282.835 215.237 280.541 220.119 275.619 220.119C273.013 220.119 270.738 218.68 270.738 215.05ZM289.385 206C289.071 207.856 287.026 217.616 286.067 220.473C286.275 220.43 286.568 220.39 286.798 220.39C287.069 220.39 287.3 220.43 287.508 220.473C287.651 218.556 289.093 211.548 289.697 209.086C290.553 210.169 297.016 219.555 297.663 220.704H297.956C298.186 218.764 300.334 208.855 301.106 206.187C300.898 206.228 300.752 206.271 300.481 206.271C300.229 206.271 299.936 206.228 299.749 206.187C299.354 209.671 297.956 216.386 297.601 217.7C296.58 216.511 290.843 208.167 289.635 206H289.385ZM315.645 205.957C314.913 207.146 314.185 208.189 313.142 209.795C310.804 213.382 308.447 216.949 306.028 220.473C306.343 220.43 306.592 220.39 306.822 220.39C307.114 220.39 307.301 220.43 307.488 220.473C308.157 219.116 310.013 215.969 310.763 214.842C311.682 214.82 312.6 214.779 313.516 214.779C314.683 214.779 315.872 214.82 316.289 214.842C316.52 215.906 317.083 218.973 317.229 220.473C317.5 220.43 317.793 220.39 318.166 220.39C318.543 220.39 318.855 220.43 319.125 220.473C318.565 218.428 316.457 208.127 316.04 205.957H315.645ZM316.124 214.029C315.318 214.07 314.512 214.091 313.705 214.091C312.89 214.091 312.077 214.07 311.286 214.029L314.913 208.5H314.976L316.124 214.029ZM321.718 216.928C321.718 219.639 324.408 220.807 326.721 220.807C328.579 220.807 330.394 220.181 331.708 218.867C332.938 217.637 333.355 216.28 333.834 214.3C334.482 211.588 335.024 208.877 335.795 206.187C335.587 206.228 335.378 206.271 335.107 206.271C334.793 206.271 334.563 206.228 334.376 206.187C334.23 207.124 333.062 214.3 332.041 216.822C331.207 218.867 329.162 219.888 327.222 219.888C325.451 219.888 323.343 218.929 323.343 216.781C323.343 216.093 323.427 215.508 323.804 213.777C324.763 209.335 324.909 208.69 325.616 206.187C325.367 206.228 325.136 206.271 324.741 206.271C324.324 206.271 324.031 206.228 323.76 206.187C323.53 207.75 323.094 210.107 322.677 212.027C322.468 212.986 321.718 215.885 321.718 216.928ZM344.304 207.105C345.431 207.105 347.246 207.208 348.224 207.292C348.289 206.751 348.329 206.542 348.454 206.187C347.099 206.249 345.471 206.271 343.364 206.271C341.281 206.271 339.612 206.271 338.109 206.187C338.068 206.645 338.025 206.853 337.881 207.292C339.84 207.146 341.446 207.105 342.532 207.105C342.031 210.088 340.78 216.177 339.653 220.473C339.924 220.43 340.279 220.39 340.612 220.39C341.007 220.39 341.259 220.43 341.508 220.473C342.197 216.28 343.47 210.421 344.304 207.105ZM360.738 212.382C359.863 212.401 358.506 212.401 356.358 212.423C355.107 212.423 353.628 212.444 352.084 212.382C352.875 208.836 352.959 208.438 353.544 206.187C353.292 206.228 352.959 206.271 352.604 206.271C352.292 206.271 351.937 206.228 351.688 206.187C351.144 209.587 349.746 216.302 348.662 220.473C348.912 220.43 349.247 220.39 349.602 220.39C349.955 220.39 350.247 220.43 350.518 220.473C350.873 218.263 350.997 217.637 351.894 213.217C353.273 213.173 354.649 213.173 356.025 213.173C357.526 213.173 359.154 213.173 360.552 213.217C359.882 216.364 359.446 218.263 358.861 220.473C359.132 220.43 359.446 220.39 359.801 220.39C360.153 220.39 360.467 220.43 360.717 220.473C361.28 216.99 362.51 211.025 363.761 206.187C363.49 206.228 363.136 206.271 362.802 206.271C362.491 206.271 362.158 206.228 361.906 206.187C361.594 208.148 361.426 208.983 360.738 212.382ZM365.327 214.801C365.327 215.99 365.576 217.992 367.12 219.263C368.683 220.576 370.831 220.785 372.002 220.785C377.736 220.785 381.011 216.093 381.011 211.943C381.011 208.23 378.424 205.895 374.377 205.895C369.415 205.895 365.327 209.378 365.327 214.801ZM367.12 215.05C367.12 210.754 369.832 206.561 374.169 206.561C376.84 206.561 379.215 208.167 379.215 211.838C379.215 215.237 376.924 220.119 372.002 220.119C369.393 220.119 367.12 218.68 367.12 215.05ZM393.629 220.368C392.773 219.431 389.791 215.113 388.685 213.341C389.205 213.257 390.519 213.049 391.562 212.401C392.941 211.548 393.691 210.169 393.691 208.899C393.691 208.021 393.212 207.105 392.169 206.583C391.5 206.249 390.562 206.187 389.769 206.187C389.373 206.209 387.434 206.271 386.995 206.271C386.559 206.271 386.12 206.249 385.681 206.187C385.099 209.858 383.701 216.448 382.658 220.473C382.907 220.43 383.178 220.39 383.555 220.39C383.91 220.39 384.18 220.43 384.411 220.473C384.785 218.095 385.264 215.738 385.765 213.382C386.077 213.425 386.413 213.425 386.724 213.444C387.851 214.739 390.083 218.117 391.5 220.473C391.855 220.43 392.147 220.39 392.524 220.39C392.897 220.39 393.252 220.39 393.629 220.473V220.368ZM385.911 212.734C386.578 209.711 386.724 209.002 387.225 207.062C387.873 207 388.309 206.959 388.935 206.959C389.977 206.959 391.979 206.959 391.979 209.086C391.979 210.066 391.521 211.274 390.376 212.068C389.249 212.84 387.456 212.84 387.141 212.84C386.702 212.84 386.307 212.818 385.911 212.734ZM395.067 220.473C395.338 220.43 395.693 220.39 396.005 220.39C396.359 220.39 396.674 220.43 396.923 220.473C397.549 216.635 398.841 210.462 399.967 206.187C399.697 206.228 399.342 206.271 399.009 206.271C398.716 206.271 398.361 206.228 398.112 206.187C397.508 209.858 396.129 216.448 395.067 220.473ZM408.414 207.105C409.54 207.105 411.355 207.208 412.336 207.292C412.398 206.751 412.439 206.542 412.566 206.187C411.209 206.249 409.581 206.271 407.476 206.271C405.391 206.271 403.722 206.271 402.221 206.187C402.178 206.645 402.137 206.853 401.991 207.292C403.952 207.146 405.558 207.105 406.642 207.105C406.141 210.088 404.889 216.177 403.763 220.473C404.034 220.43 404.388 220.39 404.724 220.39C405.12 220.39 405.369 220.43 405.621 220.473C406.309 216.28 407.579 210.421 408.414 207.105ZM418.065 213.466C417.794 212.799 417.607 212.317 417.253 211.402C416.188 208.647 415.939 207.98 415.375 206.187C415.104 206.228 414.896 206.271 414.5 206.271C414.083 206.271 413.75 206.228 413.436 206.187C414.666 208.939 414.896 209.462 416.147 212.591C416.44 213.32 416.751 214.07 417.022 214.82C416.502 217.199 416.169 218.618 415.668 220.473C415.917 220.43 416.21 220.39 416.565 220.39C416.919 220.39 417.19 220.43 417.439 220.473C417.794 218.201 418.211 216.156 418.629 214.176C419.441 213.027 423.697 207.479 424.615 206.187C424.26 206.249 424.052 206.271 423.843 206.271C423.572 206.271 423.364 206.228 423.196 206.187C421.589 208.939 418.398 213.173 418.149 213.466H418.065Z" fill="#231F20"/>
</svg>
