<svg width="480" height="320" viewBox="0 0 480 320" fill="none" xmlns="http://www.w3.org/2000/svg">
<path d="M250.848 53.334C250.848 53.334 192.478 119.106 269.444 167.49C281.412 175.015 298.633 177.045 322.648 177.045V53.334H250.848Z" fill="#213381"/>
<path d="M157.353 266.667V53.334H186.796C186.796 53.334 175.037 104.842 196.61 139.597C219.855 177.046 248.549 185.828 279.258 188.411C279.258 188.411 300.178 190.477 322.648 182.987V266.667H157.353Z" fill="#213381"/>
<path d="M179.454 229.388L181.73 229.962C181.253 231.831 180.395 233.256 179.156 234.237C177.916 235.219 176.401 235.709 174.611 235.709C172.757 235.709 171.251 235.332 170.09 234.577C168.929 233.823 168.045 232.73 167.439 231.3C166.833 229.868 166.53 228.332 166.53 226.691C166.53 224.9 166.872 223.339 167.556 222.005C168.24 220.672 169.214 219.66 170.477 218.967C171.739 218.275 173.129 217.93 174.647 217.93C176.367 217.93 177.813 218.367 178.986 219.243C180.159 220.119 180.976 221.35 181.438 222.937L179.198 223.466C178.799 222.214 178.22 221.303 177.462 220.733C176.704 220.163 175.75 219.877 174.601 219.877C173.279 219.877 172.175 220.194 171.288 220.828C170.4 221.461 169.777 222.311 169.417 223.378C169.058 224.442 168.876 225.557 168.878 226.68C168.878 228.143 169.091 229.419 169.517 230.509C169.943 231.6 170.606 232.415 171.505 232.954C172.385 233.488 173.395 233.768 174.425 233.763C175.699 233.763 176.778 233.396 177.662 232.661C178.543 231.925 179.141 230.834 179.454 229.388ZM185.259 220.651V218.223H187.371V220.651H185.259ZM185.259 235.417V222.961H187.371V235.417H185.259ZM195.028 235.417L190.29 222.961H192.518L195.192 230.421C195.488 231.247 195.754 232.084 195.99 232.93C196.177 232.273 196.439 231.484 196.775 230.561L199.543 222.961H201.712L196.998 235.417H195.028ZM204.575 220.651V218.223H206.686V220.651H204.575ZM204.575 235.417V222.961H206.686V235.417H204.575ZM210.838 235.417V218.223H212.949V235.417H210.838ZM221.92 235.417L228.523 218.223H230.974L238.011 235.417H235.419L233.414 230.209H226.225L224.336 235.417H221.92ZM226.881 228.356H232.71L230.915 223.594C230.368 222.147 229.962 220.959 229.696 220.028C229.473 221.145 229.163 222.243 228.769 223.312L226.881 228.356ZM243.57 235.417L238.832 222.961H241.06L243.734 230.421C244.03 231.247 244.296 232.084 244.531 232.93C244.719 232.273 244.981 231.484 245.317 230.561L248.085 222.961H250.254L245.54 235.417H243.57ZM253.116 220.651V218.223H255.228V220.651H253.116ZM253.116 235.417V222.961H255.228V235.417H253.116ZM267.554 233.88C266.772 234.544 266.019 235.014 265.296 235.287C264.551 235.564 263.762 235.703 262.967 235.697C261.599 235.697 260.547 235.362 259.812 234.694C259.077 234.026 258.71 233.171 258.71 232.131C258.71 231.522 258.848 230.964 259.127 230.46C259.388 229.974 259.762 229.558 260.217 229.247C260.682 228.935 261.195 228.701 261.735 228.554C262.15 228.445 262.775 228.339 263.612 228.238C265.317 228.034 266.571 227.792 267.377 227.511C267.385 227.222 267.389 227.038 267.389 226.959C267.389 226.1 267.189 225.493 266.79 225.142C266.251 224.665 265.449 224.426 264.386 224.426C263.393 224.426 262.66 224.601 262.187 224.948C261.715 225.296 261.364 225.912 261.138 226.796L259.074 226.515C259.261 225.631 259.571 224.917 260.001 224.374C260.431 223.831 261.052 223.412 261.866 223.119C262.678 222.826 263.621 222.679 264.692 222.679C265.755 222.679 266.619 222.804 267.284 223.054C267.948 223.305 268.437 223.619 268.75 223.999C269.062 224.378 269.281 224.857 269.407 225.435C269.477 225.795 269.512 226.443 269.512 227.382V230.197C269.512 232.159 269.557 233.401 269.647 233.921C269.739 234.446 269.92 234.952 270.181 235.417H267.976C267.757 234.978 267.616 234.466 267.554 233.88ZM267.377 229.165C266.611 229.478 265.461 229.743 263.929 229.962C263.061 230.087 262.447 230.228 262.088 230.384C261.748 230.525 261.458 230.764 261.255 231.071C261.061 231.369 260.959 231.717 260.962 232.073C260.962 232.637 261.175 233.105 261.601 233.48C262.028 233.855 262.651 234.044 263.473 234.044C264.285 234.044 265.009 233.866 265.642 233.511C266.275 233.155 266.74 232.668 267.038 232.051C267.264 231.573 267.378 230.87 267.378 229.939V229.165H267.377ZM278.378 233.528L278.683 235.393C278.089 235.517 277.557 235.58 277.088 235.58C276.321 235.58 275.727 235.459 275.305 235.216C274.883 234.973 274.585 234.655 274.414 234.261C274.242 233.866 274.156 233.036 274.156 231.769V224.602H272.608V222.961H274.156V219.876L276.255 218.609V222.961H278.378V224.602H276.255V231.885C276.255 232.487 276.292 232.874 276.366 233.046C276.441 233.218 276.562 233.355 276.731 233.457C276.899 233.559 277.139 233.609 277.452 233.609C277.686 233.61 277.995 233.583 278.378 233.528ZM281.438 220.651V218.223H283.55V220.651H281.438ZM281.438 235.417V222.961H283.55V235.417H281.438ZM286.962 229.189C286.962 226.881 287.603 225.173 288.885 224.063C289.956 223.141 291.261 222.679 292.803 222.679C294.515 222.679 295.914 223.241 297.001 224.362C298.088 225.484 298.632 227.035 298.632 229.013C298.632 230.615 298.391 231.876 297.91 232.795C297.44 233.703 296.709 234.448 295.81 234.935C294.891 235.444 293.889 235.698 292.803 235.698C291.059 235.698 289.65 235.138 288.574 234.021C287.5 232.902 286.962 231.291 286.962 229.189ZM289.132 229.189C289.132 230.784 289.48 231.978 290.176 232.771C290.872 233.565 291.747 233.961 292.803 233.961C293.851 233.961 294.723 233.562 295.418 232.765C296.114 231.968 296.462 230.751 296.462 229.117C296.462 227.578 296.112 226.411 295.412 225.617C294.713 224.823 293.842 224.426 292.803 224.426C291.747 224.426 290.871 224.821 290.175 225.61C289.479 226.402 289.132 227.594 289.132 229.189ZM302.091 235.417V222.961H303.991V224.733C304.906 223.363 306.227 222.68 307.955 222.68C308.706 222.68 309.395 222.815 310.025 223.085C310.654 223.354 311.126 223.708 311.439 224.145C311.751 224.583 311.97 225.103 312.096 225.706C312.174 226.097 312.213 226.781 312.213 227.757V235.417H310.101V227.84C310.101 226.98 310.019 226.338 309.855 225.911C309.691 225.485 309.399 225.146 308.981 224.891C308.562 224.637 308.072 224.51 307.509 224.51C306.61 224.51 305.834 224.795 305.181 225.366C304.529 225.937 304.202 227.02 304.202 228.614V235.417H302.091ZM205.977 255.432L212.58 238.239H215.032L222.069 255.432H219.477L217.472 250.225H210.282L208.394 255.432H205.977ZM210.938 248.372H216.767L214.973 243.61C214.425 242.164 214.019 240.976 213.753 240.045C213.53 241.162 213.22 242.259 212.827 243.328L210.938 248.372ZM233.413 255.432V253.603C232.443 255.01 231.125 255.715 229.46 255.715C228.752 255.72 228.051 255.576 227.402 255.292C226.765 255.011 226.292 254.658 225.983 254.231C225.675 253.805 225.457 253.282 225.332 252.665C225.246 252.25 225.203 251.593 225.203 250.694V242.977H227.314V249.885C227.314 250.988 227.357 251.73 227.443 252.114C227.576 252.669 227.858 253.104 228.288 253.422C228.718 253.738 229.25 253.897 229.883 253.897C230.517 253.897 231.111 253.734 231.666 253.409C232.221 253.086 232.615 252.644 232.845 252.084C233.075 251.525 233.19 250.714 233.19 249.65V242.977H235.302V255.432H233.413ZM244.851 253.544L245.156 255.409C244.562 255.534 244.03 255.597 243.56 255.597C242.794 255.597 242.2 255.476 241.778 255.233C241.355 254.99 241.058 254.672 240.887 254.277C240.715 253.883 240.629 253.052 240.629 251.785V244.619H239.08V242.977H240.629V239.893L242.728 238.626V242.977H244.851V244.619H242.728V251.902C242.728 252.504 242.765 252.891 242.839 253.063C242.914 253.235 243.034 253.371 243.203 253.474C243.371 253.575 243.611 253.626 243.924 253.626C244.159 253.626 244.468 253.599 244.851 253.544ZM248.549 255.432V238.239H250.66V244.408C251.645 243.266 252.889 242.696 254.389 242.696C255.311 242.696 256.113 242.877 256.794 243.241C257.474 243.605 257.961 244.107 258.253 244.749C258.547 245.389 258.693 246.319 258.693 247.539V255.433H256.582V247.539C256.582 246.485 256.354 245.715 255.896 245.235C255.438 244.754 254.791 244.514 253.955 244.514C253.329 244.514 252.741 244.676 252.19 245C251.639 245.325 251.246 245.764 251.012 246.319C250.777 246.875 250.66 247.641 250.66 248.618V255.432H248.549ZM262.754 249.205C262.754 246.898 263.395 245.189 264.677 244.08C265.748 243.158 267.054 242.696 268.595 242.696C270.307 242.696 271.707 243.258 272.794 244.379C273.88 245.501 274.424 247.051 274.424 249.029C274.424 250.632 274.183 251.893 273.703 252.812C273.233 253.719 272.501 254.465 271.603 254.952C270.684 255.46 269.681 255.715 268.595 255.715C266.852 255.715 265.442 255.155 264.367 254.038C263.292 252.919 262.754 251.308 262.754 249.205ZM264.924 249.205C264.924 250.801 265.272 251.995 265.967 252.788C266.663 253.581 267.539 253.978 268.595 253.978C269.642 253.978 270.514 253.579 271.21 252.782C271.906 251.985 272.254 250.768 272.254 249.134C272.254 247.594 271.903 246.428 271.204 245.633C270.504 244.84 269.634 244.442 268.594 244.442C267.539 244.442 266.662 244.838 265.967 245.627C265.272 246.418 264.924 247.611 264.924 249.205ZM278.509 255.432V242.977H280.409V244.866C280.893 243.982 281.341 243.4 281.751 243.118C282.148 242.841 282.621 242.693 283.106 242.696C283.817 242.696 284.541 242.923 285.275 243.376L284.548 245.334C284.032 245.03 283.516 244.877 283 244.877C282.539 244.877 282.125 245.017 281.758 245.293C281.389 245.571 281.128 245.956 280.972 246.448C280.737 247.199 280.62 248.02 280.62 248.912V255.432H278.509ZM288.175 240.668V238.239H290.287V240.668H288.175ZM288.175 255.432V242.977H290.287V255.432H288.175ZM299.743 253.544L300.048 255.409C299.454 255.534 298.922 255.597 298.453 255.597C297.686 255.597 297.092 255.476 296.67 255.233C296.247 254.99 295.95 254.672 295.779 254.277C295.607 253.883 295.521 253.052 295.521 251.785V244.619H293.973V242.977H295.521V239.893L297.62 238.626V242.977H299.743V244.619H297.62V251.902C297.62 252.504 297.657 252.891 297.732 253.063C297.806 253.235 297.927 253.371 298.095 253.474C298.264 253.575 298.504 253.626 298.818 253.626C299.051 253.626 299.36 253.599 299.743 253.544ZM303.346 260.23L303.111 258.247C303.573 258.372 303.975 258.435 304.319 258.435C304.788 258.435 305.164 258.357 305.445 258.2C305.727 258.044 305.957 257.825 306.138 257.543C306.27 257.332 306.485 256.809 306.783 255.972C306.822 255.855 306.884 255.683 306.97 255.456L302.244 242.977H304.519L307.111 250.191C307.457 251.138 307.759 252.1 308.015 253.075C308.254 252.115 308.544 251.168 308.882 250.238L311.545 242.978H313.656L308.918 255.645C308.41 257.013 308.015 257.955 307.734 258.471C307.359 259.166 306.928 259.677 306.443 260.002C305.959 260.326 305.38 260.488 304.708 260.488C304.3 260.487 303.847 260.402 303.346 260.23Z" fill="white"/>
</svg>
