<svg width="480" height="320" viewBox="0 0 480 320" fill="none" xmlns="http://www.w3.org/2000/svg">
<path d="M380.713 192.767H369.203V137.718H334.749V127.226H380.713M113.229 160.187V159.992C113.229 141.655 127.483 126.113 147.614 126.113C167.733 126.113 181.785 141.365 181.785 159.807V159.991C181.785 178.346 167.554 193.886 147.434 193.886C127.298 193.887 113.229 178.621 113.229 160.187ZM169.707 160.187V159.992C169.707 147.265 160.525 136.688 147.434 136.688C134.412 136.688 125.336 147.079 125.336 159.809V159.992C125.336 172.735 134.503 183.305 147.614 183.305C160.624 183.305 169.707 172.914 169.707 160.187ZM185.639 127.228H215.032C222.618 127.228 228.334 129.193 232.175 133.044C235.061 135.934 236.569 139.579 236.569 143.895V144.082C236.569 151.947 232.175 156.258 227.196 158.696C234.979 161.302 240.219 165.701 240.219 174.601V174.792C240.219 186.493 230.567 192.767 215.972 192.767H185.639M212.701 154.856C220.187 154.856 225.052 151.946 225.052 145.958V145.775C225.052 140.521 221.03 137.433 213.541 137.433H196.967V154.856H212.701ZM216.057 182.565C223.921 182.565 228.702 179.561 228.702 173.572V173.381C228.702 167.765 224.316 164.578 215.226 164.578H196.969V182.565H216.057ZM268.867 126.764H279.554L308.384 192.767H296.21L289.568 176.95H258.575L251.846 192.767H240.043M285.346 166.741L274.038 140.521L262.79 166.741H285.346ZM313.733 127.226H325.231V182.282H359.699V192.767H313.733M414.098 137.718H384.779V127.226H424.615" fill="#0B4E9A"/>
<path d="M399.632 152.23H384.779V141.744H410.134" fill="#36A9E1"/>
<path d="M88.4831 137.718H109.926L120.421 127.225H88.625C69.0978 127.225 55.3848 142.222 55.3848 160.549V160.749C55.3848 179.249 69.3683 193.887 88.1549 193.887C99.442 193.887 106.613 189.935 112.989 183.775L107.027 175.117C101.603 180.269 96.3463 183.496 88.5334 183.496C76.281 183.496 67.2632 173.174 67.2632 160.551V160.378C67.2632 147.859 76.2189 137.691 88.4698 137.691" fill="#0B4E9A"/>
</svg>
