<svg width="480" height="320" viewBox="0 0 480 320" fill="none" xmlns="http://www.w3.org/2000/svg">
<mask id="mask0_730_18388" style="mask-type:luminance" maskUnits="userSpaceOnUse" x="55" y="140" width="370" height="40">
<path d="M55.3848 179.436H424.615V140.566H55.3848V179.436Z" fill="white"/>
</mask>
<g mask="url(#mask0_730_18388)">
<path d="M265.746 159.51C267.398 159.51 269.224 158.169 269.822 156.52L272 150.54C274.003 145.035 280.088 140.566 285.587 140.566H291.571L277.423 179.436H261.476L266.197 166.485H247.263C245.611 166.485 243.788 167.821 243.185 169.473L239.556 179.436H223.613L234.13 150.54C236.134 145.035 242.221 140.566 247.727 140.566H253.702L246.81 159.51H265.746Z" fill="#009EE0"/>
<mask id="mask1_730_18388" style="mask-type:luminance" maskUnits="userSpaceOnUse" x="55" y="140" width="370" height="40">
<path d="M55.3848 179.436H424.615V140.566H55.3848V179.436Z" fill="white"/>
</mask>
<g mask="url(#mask1_730_18388)">
<path d="M73.8412 172.46C72.1922 172.46 71.3412 171.124 71.9369 169.473L78.8295 150.54C79.432 148.889 81.2605 147.55 82.9118 147.55H112.754C112.957 143.51 110.245 140.564 105.784 140.564H76.4813C70.9755 140.564 64.8924 145.034 62.8893 150.54L55.9967 169.473C53.9958 174.976 56.8338 179.436 62.3373 179.436H91.6373C96.1036 179.436 100.945 176.503 103.686 172.46H73.8412Z" fill="#009EE0"/>
</g>
<mask id="mask2_730_18388" style="mask-type:luminance" maskUnits="userSpaceOnUse" x="55" y="140" width="370" height="40">
<path d="M55.3555 179.436H424.616V140.566H55.3555V179.436Z" fill="white"/>
</mask>
<g mask="url(#mask2_730_18388)">
<path d="M143.103 172.46C144.754 172.46 146.58 171.124 147.183 169.473L154.073 150.54C154.676 148.889 153.822 147.55 152.171 147.55H136.231C134.575 147.55 132.749 148.889 132.146 150.54L124.207 172.458L143.103 172.46ZM115.652 179.436C110.146 179.436 107.308 174.976 109.313 169.473L116.211 150.54C118.207 145.034 124.295 140.564 129.794 140.564H163.679C169.181 140.564 172.023 145.034 170.016 150.54L163.128 169.473C161.124 174.976 155.034 179.436 149.533 179.436H115.652ZM325.875 159.509C327.526 159.509 329.354 158.168 329.952 156.519L332.128 150.539C332.728 148.89 331.879 147.552 330.226 147.552H314.286C312.632 147.552 310.808 148.89 310.206 150.539L306.94 159.509H325.875ZM307.393 166.484C305.739 166.484 303.918 167.82 303.313 169.472L299.686 179.435H283.744L294.263 150.539C296.262 145.034 302.352 140.565 307.855 140.565H341.739C347.24 140.565 350.076 145.034 348.075 150.539L337.553 179.435H321.615L326.328 166.484H307.393ZM183.721 172.46L185.899 166.483C186.497 164.834 188.325 163.493 189.974 163.493H205.923C207.572 163.493 208.423 164.834 207.823 166.483L206.731 169.473C206.135 171.124 204.311 172.46 202.66 172.46H183.721ZM189.526 156.518L191.699 150.54C192.304 148.889 194.128 147.55 195.781 147.55H211.721C213.375 147.55 214.228 148.889 213.623 150.54L212.538 153.528C211.935 155.179 210.109 156.518 208.458 156.518H189.526ZM229.311 151.244L229.575 150.54C231.574 145.034 228.733 140.564 223.234 140.564H189.346C183.845 140.564 177.762 145.034 175.759 150.54L165.237 179.436H209.083C214.589 179.436 220.672 174.976 222.68 169.473L222.926 168.792C224.308 164.999 223.393 161.701 220.884 160.016C224.614 158.334 227.933 155.034 229.311 151.244Z" fill="#009EE0"/>
</g>
<path d="M399.298 140.564C396.582 140.564 393.724 141.652 391.286 143.416C390.131 141.652 388.066 140.564 385.347 140.564H367.871C362.367 140.564 356.277 145.035 354.277 150.538L343.762 179.434H359.706L370.221 150.538C370.822 148.889 372.645 147.551 374.301 147.551H379.285C380.932 147.551 381.783 148.889 381.182 150.538L370.608 179.434H386.553L397.125 150.538C397.73 148.889 399.554 147.551 401.207 147.551H406.191C407.84 147.551 408.689 148.889 408.091 150.538L397.516 179.434H413.458L423.976 150.538C425.977 145.035 423.148 140.564 417.642 140.564H399.298Z" fill="#009EE0"/>
</g>
</svg>
