<svg width="480" height="320" viewBox="0 0 480 320" fill="none" xmlns="http://www.w3.org/2000/svg">
<path d="M101.624 191.299L99.415 183.382L99.6877 183.277L104.022 190.23C106.15 189.271 108.248 187.916 109.949 186.491L105.99 180.116L106.215 179.928L111.847 184.88C113.73 183.276 115.457 181.248 116.737 179.316L111.578 174.719L111.736 174.473L118.035 177.32C119.426 175.161 120.582 172.634 121.269 170.143L115.558 167.496L115.629 167.213L121.88 167.953C122.552 165.459 122.853 162.741 122.824 159.999H102.168C102.145 167.136 96.3515 172.916 89.2088 172.916C82.0512 172.916 76.2491 167.114 76.2491 159.957C76.2491 153.402 81.1153 147.984 87.4317 147.117L82.1792 127.02C81.0617 127.203 79.6621 127.568 78.6286 127.969L83.8318 146.787L83.5454 146.898L73.8833 129.939C72.7248 130.452 71.4258 131.231 70.4483 131.949L80.0056 147.753L79.7717 147.937L66.643 134.9C65.6726 135.697 64.5379 136.817 63.7818 137.793L76.4575 149.871L76.2664 150.101L61.0731 141.33C60.2486 142.413 59.4205 143.906 58.8793 145.133L73.3987 153.128L73.2886 153.407L57.2815 148.961C56.7576 150.307 56.2873 152.042 56.064 153.475L71.3008 157.199L71.2472 157.503L55.5229 157.51C55.4717 158.269 55.3848 159.223 55.3848 159.993C55.3848 160.743 55.4681 161.648 55.5157 162.383L70.3137 162.258L70.3423 162.543L55.989 166.123C56.2516 167.824 56.6873 169.508 57.294 171.068L70.6334 167.409L70.7477 167.68L58.6483 174.378C59.3822 176.003 60.2714 177.553 61.3035 179.006L72.2813 172.656L72.4617 172.887L63.3711 181.722C64.5093 183.147 65.8297 184.46 67.2603 185.634L75.4341 177.547L75.6728 177.718L69.8309 187.621C71.3794 188.757 73.0454 189.724 74.8001 190.504L80.0806 181.452L80.3551 181.56L77.6196 191.675C79.4157 192.387 81.3653 192.891 83.396 193.206L85.9452 183.854L86.2369 183.9L86.2988 193.574C87.2335 193.653 88.1729 193.735 89.1278 193.735C90.272 193.735 91.4019 193.635 92.517 193.524L92.5211 184.551L92.8123 184.509L95.265 193.135C97.4484 192.789 99.5805 192.174 101.612 191.303M90.9578 126.35C90.3545 126.296 89.7491 126.268 89.1433 126.266C88.6438 126.266 87.9485 126.291 87.4674 126.342L87.6532 147.088C88.691 146.965 89.7398 146.966 90.7774 147.09L90.9578 126.35ZM91.1477 147.14C92.1383 147.289 93.1081 147.552 94.0374 147.926L99.6514 127.978C98.6089 127.589 97.5336 127.294 96.4384 127.097L91.1477 147.14ZM94.528 148.135C95.4007 148.529 96.2271 149.017 96.992 149.593L107.688 131.87C106.915 131.315 105.802 130.625 104.921 130.225L94.528 148.135ZM114.421 137.733C113.88 137.074 113.039 136.164 112.363 135.594L97.5945 150.076C98.2567 150.637 98.8606 151.263 99.3972 151.945L114.421 137.733ZM100.156 153.018C100.511 153.574 100.823 154.161 101.091 154.773L119.252 144.887C118.976 144.242 118.472 143.309 118.07 142.732L100.156 153.018ZM102.008 157.908C101.908 157.279 101.761 156.657 101.569 156.049L121.593 150.944C121.805 151.549 122.019 152.5 122.122 153.124L102.008 157.908Z" fill="#23459B"/>
<path d="M143.745 172.245H424.581V171.164H143.745V172.245ZM149.615 183.314L148.043 178.629H148.013L146.309 183.314H149.615ZM145.864 184.589L144.752 187.688H143.27L147.272 177.042H148.903L152.758 187.688H151.186L150.134 184.589H145.864ZM166.11 177.042V183.952C166.11 186.131 164.747 187.97 161.826 187.97C158.965 187.97 157.733 186.131 157.733 184.145V177.042H159.171V183.744C159.171 186.058 160.58 186.695 161.869 186.695C163.19 186.695 164.672 186.087 164.672 183.774V177.042H166.11ZM174.769 187.688H173.465V182.914C173.465 181.565 173.078 180.883 171.804 180.883C171.063 180.883 169.757 181.357 169.757 183.462V187.688H168.453V179.934H169.684V181.032H169.713C169.994 180.616 170.721 179.711 172.055 179.711C173.256 179.711 174.769 180.201 174.769 182.41V187.688ZM177.294 178.525V177.043H178.599V178.525H177.294ZM178.599 187.687H177.294V179.934H178.599V187.689M182.569 181.016V186.058C182.569 186.665 183.087 186.665 183.353 186.665H183.813V187.688C183.339 187.733 182.969 187.791 182.834 187.791C181.545 187.791 181.263 187.065 181.263 186.131V181.016H180.21V179.934H181.263V177.77H182.569V179.934H183.813V181.016H182.569ZM190.698 183.196C190.623 181.995 190.12 180.883 188.533 180.883C187.331 180.883 186.382 181.995 186.382 183.196H190.698ZM191.943 185.257C191.899 185.627 191.543 186.724 190.564 187.377C190.209 187.614 189.704 187.911 188.459 187.911C186.279 187.911 184.989 186.264 184.989 184.025C184.989 181.625 186.145 179.711 188.711 179.711C190.949 179.711 192.047 181.491 192.047 184.234H186.382C186.382 185.85 187.14 186.784 188.637 186.784C189.867 186.784 190.594 185.835 190.638 185.257H191.943ZM197.298 186.784C198.129 186.784 199.419 186.235 199.419 184.174C199.419 182.914 199.212 180.882 197.329 180.882C195.312 180.882 195.209 182.796 195.209 183.789C195.209 185.494 195.875 186.784 197.298 186.784ZM200.738 187.688H199.508V186.62H199.478C198.915 187.673 198.025 187.911 197.269 187.911C194.63 187.911 193.859 185.434 193.859 183.581C193.859 181.402 195.031 179.711 197.092 179.711C198.5 179.711 199.092 180.586 199.403 181.032L199.434 180.927V177.042H200.737V187.688M205.536 177.042H214.18V178.317H210.576V187.688H209.138V178.317H205.536V177.042ZM219.006 183.196C218.932 181.995 218.428 180.883 216.841 180.883C215.64 180.883 214.692 181.995 214.692 183.196H219.006ZM220.251 185.257C220.206 185.627 219.851 186.724 218.872 187.377C218.517 187.614 218.013 187.911 216.767 187.911C214.588 187.911 213.298 186.264 213.298 184.025C213.298 181.625 214.454 179.711 217.018 179.711C219.258 179.711 220.355 181.491 220.355 184.234H214.691C214.691 185.85 215.447 186.784 216.945 186.784C218.175 186.784 218.901 185.835 218.946 185.257H220.251ZM227.17 182.543C227.007 181.506 226.429 180.882 225.331 180.882C223.716 180.882 223.197 182.424 223.197 183.803C223.197 185.138 223.524 186.784 225.317 186.784C226.192 186.784 226.948 186.131 227.17 184.945H228.431C228.297 186.175 227.541 187.91 225.273 187.91C223.093 187.91 221.803 186.264 221.803 184.025C221.803 181.625 222.959 179.711 225.525 179.711C227.555 179.711 228.327 181.194 228.431 182.543H227.17ZM236.656 187.688H235.351V182.618C235.351 181.565 235.055 180.883 233.81 180.883C232.743 180.883 231.645 181.506 231.645 183.462V187.688H230.341V177.042H231.644V180.971H231.675C232.046 180.483 232.698 179.711 233.943 179.711C235.144 179.711 236.656 180.201 236.656 182.41V187.688ZM245.311 187.688H244.006V182.914C244.006 181.565 243.619 180.883 242.345 180.883C241.604 180.883 240.299 181.357 240.299 183.462V187.688H238.994V179.934H240.225V181.032H240.255C240.537 180.616 241.263 179.711 242.597 179.711C243.798 179.711 245.31 180.201 245.31 182.41V187.688M250.806 186.769C252.675 186.769 253.06 184.841 253.06 183.803C253.06 182.765 252.675 180.839 250.806 180.839C248.939 180.839 248.552 182.765 248.552 183.803C248.552 184.841 248.939 186.769 250.806 186.769ZM250.806 179.711C253.282 179.711 254.408 181.802 254.408 183.803C254.408 185.805 253.282 187.896 250.807 187.896C248.33 187.896 247.203 185.805 247.203 183.803C247.203 181.802 248.33 179.711 250.806 179.711ZM257.637 187.688H256.331V177.042H257.637V187.688ZM263.162 186.769C265.03 186.769 265.415 184.841 265.415 183.803C265.415 182.765 265.03 180.839 263.162 180.839C261.295 180.839 260.908 182.765 260.908 183.803C260.908 184.841 261.295 186.769 263.162 186.769ZM263.162 179.711C265.638 179.711 266.764 181.802 266.764 183.803C266.764 185.805 265.638 187.896 263.162 187.896C260.685 187.896 259.559 185.805 259.559 183.803C259.559 181.802 260.684 179.711 263.162 179.711ZM271.727 186.784C272.557 186.784 273.847 186.235 273.847 184.174C273.847 182.914 273.639 180.882 271.756 180.882C269.74 180.882 269.636 182.796 269.636 183.789C269.636 185.494 270.303 186.784 271.727 186.784ZM275.092 187.05C275.092 188.163 275.076 190.95 271.489 190.95C270.57 190.95 268.775 190.698 268.523 188.637H269.828C270.065 189.867 271.267 189.867 271.578 189.867C273.832 189.867 273.786 188.059 273.786 187.14V186.813H273.757V186.873C273.417 187.421 272.734 187.911 271.697 187.911C269.058 187.911 268.287 185.434 268.287 183.581C268.287 181.402 269.458 179.711 271.519 179.711C272.927 179.711 273.52 180.586 273.832 181.032H273.862V179.934H275.092V187.05ZM277.34 178.525V177.043H278.644V178.525H277.34ZM278.644 187.687H277.34V179.934H278.644V187.689M286.351 183.196C286.277 181.995 285.774 180.883 284.187 180.883C282.986 180.883 282.037 181.995 282.037 183.196H286.351ZM287.597 185.257C287.552 185.627 287.197 186.724 286.217 187.377C285.861 187.614 285.358 187.911 284.112 187.911C281.933 187.911 280.643 186.264 280.643 184.025C280.643 181.625 281.8 179.711 284.364 179.711C286.604 179.711 287.701 181.491 287.701 184.234H282.037C282.037 185.85 282.793 186.784 284.291 186.784C285.521 186.784 286.248 185.835 286.292 185.257H287.597ZM294.071 182.143C294.055 181.654 293.878 180.838 292.233 180.838C291.832 180.838 290.69 180.971 290.69 181.935C290.69 182.573 291.091 182.721 292.099 182.973L293.404 183.3C295.019 183.7 295.583 184.292 295.583 185.345C295.583 186.947 294.264 187.911 292.514 187.911C289.445 187.911 289.223 186.131 289.178 185.197H290.438C290.483 185.805 290.661 186.784 292.5 186.784C293.433 186.784 294.279 186.413 294.279 185.553C294.279 184.93 293.848 184.723 292.737 184.441L291.224 184.07C290.142 183.803 289.43 183.255 289.43 182.187C289.43 180.483 290.839 179.711 292.366 179.711C295.138 179.711 295.331 181.758 295.331 182.143H294.071ZM308.931 180.245C308.531 178.377 306.973 178.036 305.951 178.036C304.023 178.036 302.466 179.459 302.466 182.262C302.466 184.767 303.356 186.695 305.994 186.695C306.929 186.695 308.545 186.25 309.035 183.774H310.428C309.835 187.791 306.573 187.97 305.772 187.97C303.356 187.97 300.984 186.398 300.984 182.306C300.984 179.029 302.852 176.761 305.951 176.761C308.693 176.761 310.117 178.466 310.324 180.245H308.931ZM315.568 186.769C317.437 186.769 317.822 184.841 317.822 183.803C317.822 182.765 317.437 180.839 315.568 180.839C313.7 180.839 313.314 182.765 313.314 183.803C313.314 184.841 313.7 186.769 315.568 186.769ZM315.568 179.711C318.044 179.711 319.17 181.802 319.17 183.803C319.17 185.805 318.044 187.896 315.569 187.896C313.092 187.896 311.965 185.805 311.965 183.803C311.965 181.802 313.091 179.711 315.568 179.711ZM321.063 179.934H322.294V181.032H322.324C322.606 180.616 323.273 179.711 324.666 179.711C326.059 179.711 326.504 180.557 326.727 180.971C327.379 180.245 327.898 179.711 329.098 179.711C329.93 179.711 331.501 180.142 331.501 182.322V187.688H330.197V182.677C330.197 181.609 329.87 180.883 328.757 180.883C327.66 180.883 326.934 181.92 326.934 182.959V187.688H325.63V182.322C325.63 181.669 325.378 180.883 324.414 180.883C323.674 180.883 322.368 181.357 322.368 183.462V187.688H321.063V179.934ZM337.083 186.784C338.506 186.784 339.174 185.494 339.174 183.789C339.174 182.796 339.07 180.883 337.053 180.883C335.17 180.883 334.963 182.914 334.963 184.174C334.963 186.235 336.253 186.784 337.083 186.784ZM333.717 179.934H334.949V181.032H334.977C335.289 180.586 335.882 179.711 337.29 179.711C339.352 179.711 340.523 181.402 340.523 183.581C340.523 185.435 339.752 187.911 337.112 187.911C336.075 187.911 335.393 187.421 335.052 186.873H335.023V190.757H333.717V179.934M347.056 183.73C346.849 183.893 346.524 184.011 344.907 184.219C344.269 184.307 343.247 184.5 343.247 185.479C343.247 186.325 343.676 186.828 344.655 186.828C345.87 186.828 347.056 186.042 347.056 185.005V183.73ZM342.283 182.291C342.342 180.437 343.572 179.711 345.485 179.711C346.108 179.711 348.361 179.89 348.361 181.876V186.339C348.361 186.665 348.525 186.798 348.791 186.798C348.91 186.798 349.072 186.769 349.222 186.739V187.688C348.999 187.747 348.806 187.837 348.51 187.837C347.353 187.837 347.175 187.244 347.131 186.65C346.627 187.199 345.841 187.911 344.329 187.911C342.906 187.911 341.897 187.006 341.897 185.672C341.897 185.02 342.09 183.508 344.254 183.24L346.405 182.973C346.715 182.943 347.086 182.825 347.086 182.054C347.086 181.238 346.493 180.793 345.263 180.793C343.78 180.793 343.572 181.698 343.483 182.291H342.283ZM357.297 187.688H355.992V182.914C355.992 181.565 355.607 180.883 354.331 180.883C353.59 180.883 352.285 181.357 352.285 183.462V187.688H350.98V179.934H352.211V181.032H352.241C352.523 180.616 353.249 179.711 354.583 179.711C355.785 179.711 357.297 180.201 357.297 182.41V187.688ZM364.167 179.934H365.605C364.7 182.469 363.811 185.005 362.817 187.54C361.586 190.683 361.453 190.862 359.778 190.862C359.585 190.862 359.436 190.802 359.228 190.743V189.556C359.392 189.616 359.659 189.69 360.015 189.69C360.697 189.69 360.771 189.497 361.394 187.896L358.517 179.934H360L362.06 186.25H362.091L364.167 179.934Z" fill="#231F20"/>
<path d="M154.358 142.865V139.411C154.358 137.872 153.81 137.067 152.455 137.067C150.917 137.067 150.515 138.056 150.552 139.411V152.986C150.515 154.342 150.917 155.33 152.455 155.33C153.81 155.33 154.358 154.526 154.358 152.986V149.533H161.349V152.329C161.349 156.976 159.007 160.565 152.418 160.565C146.964 160.565 143.561 157.965 143.561 152.329V140.069C143.561 134.433 146.964 131.834 152.418 131.834C159.007 131.834 161.349 135.422 161.349 140.069V142.865H154.358ZM357.731 154.741C357.731 155.509 358.39 156.133 359.231 156.133C360.022 156.133 360.734 155.583 360.734 154.741V144.713C360.734 143.871 360.092 143.284 359.231 143.284C358.356 143.284 357.731 143.907 357.731 144.675V154.741ZM357.257 139.436L357.304 141.126H357.376C357.812 140.411 358.449 138.85 361.866 138.85C365.705 138.85 367.177 141.484 367.177 144.491V154.783C367.177 157.723 365.933 160.565 361.8 160.565C359.143 160.565 358.368 159.505 357.804 158.77H357.731V166.816H351.323V139.435L357.257 139.436ZM347.663 146.069H341.66V144.825C341.66 143.839 341.004 143.068 339.94 143.068C338.818 143.068 338.29 143.629 338.29 144.423C338.29 145.388 338.859 145.965 340.33 146.679C341.244 147.124 342.229 147.602 343.364 148.15C347.277 150.043 348.249 151.587 348.249 154.087C348.249 157.756 345.565 160.601 339.976 160.601C334.656 160.601 331.996 157.906 331.996 153.683V152.915H338.074V154.562C338.074 155.699 338.738 156.392 339.976 156.392C341.064 156.392 341.733 155.61 341.733 154.744C341.733 154.24 341.66 153.392 339.349 152.266C338.822 152.008 337.716 151.482 337.129 151.195C334.31 149.818 332.363 148.591 332.363 145.008C332.363 141.455 335.073 138.858 340.013 138.858C345.653 138.858 347.663 141.991 347.663 145.521V146.069ZM313.219 145.887C313.219 141.238 316.403 138.858 321.125 138.858C326.322 138.858 329.07 141.678 329.07 145.887V153.574C329.07 157.783 326.36 160.601 321.125 160.601C316.44 160.601 313.219 158.259 313.219 153.61V145.887ZM319.642 154.745C319.642 155.514 320.299 156.137 321.141 156.137C321.931 156.137 322.643 155.587 322.643 154.745V144.716C322.643 143.874 322.002 143.287 321.141 143.287C320.266 143.287 319.642 143.911 319.642 144.679V154.745ZM406.16 152.072V153.574C406.16 157.783 403.38 160.601 398.182 160.601C393.46 160.601 390.203 158.221 390.203 153.574V145.887C390.203 141.238 393.46 138.858 398.182 138.858C403.38 138.858 406.16 141.678 406.16 145.887V147.168H399.537V144.716C399.537 143.874 398.915 143.361 398.182 143.361C397.339 143.361 396.791 143.947 396.791 144.716V154.745C396.791 155.514 397.339 156.099 398.182 156.099C398.915 156.099 399.537 155.587 399.537 154.745V152.072H406.16ZM297.413 152.915V153.648C297.34 157.784 294.998 160.602 289.873 160.602C285.151 160.602 282.259 158.223 282.259 153.575V145.887C282.259 141.238 285.151 138.858 289.873 138.858C295.07 138.858 297.45 141.678 297.45 145.887V151.121H288.445V154.781C288.445 155.551 289.031 156.208 289.873 156.208C290.605 156.208 291.301 155.623 291.301 154.781V152.914L297.413 152.915ZM291.301 147.023V144.642C291.301 143.801 290.605 143.251 289.873 143.251C289.031 143.251 288.445 143.874 288.445 144.68V147.023L291.301 147.023ZM424.58 152.915V153.648C424.506 157.784 422.164 160.602 417.038 160.602C412.315 160.602 409.426 158.223 409.426 153.575V145.887C409.426 141.238 412.315 138.858 417.038 138.858C422.236 138.858 424.615 141.678 424.615 145.887V151.121H415.61V154.781C415.61 155.551 416.197 156.208 417.038 156.208C417.771 156.208 418.467 155.623 418.467 154.781V152.914L424.58 152.915ZM418.467 147.023V144.642C418.467 143.801 417.771 143.251 417.038 143.251C416.197 143.251 415.61 143.874 415.61 144.68V147.023L418.467 147.023ZM380.179 149.964C380.179 149.964 379.241 150.396 378.706 150.629C376.903 151.412 376.773 152.781 376.773 154.078C376.773 155.279 377.375 156.09 378.419 156.09C379.836 156.09 380.179 154.914 380.179 154.025V149.964ZM380.396 158.078C379.951 158.771 378.367 160.566 375.439 160.566C372.149 160.566 370.424 158.506 370.424 155.253V153.921C370.424 150.524 372.902 149 375.065 148.155C375.853 147.847 376.522 147.597 377.232 147.326C378.79 146.73 380.178 146.213 380.178 144.583C380.178 143.861 379.649 143.312 378.681 143.312C377.767 143.312 377.165 143.992 377.165 144.828V146.245H370.768V145.245C370.768 141.195 374.473 138.85 378.168 138.85C384.351 138.85 386.605 142.032 386.605 145.742V155.696C386.605 157.783 386.825 159.175 387.081 159.907H380.565L380.396 158.078ZM306.962 139.436L307.051 142.061H307.124C307.302 141.286 308.357 138.85 311.622 138.85V145.432C311.042 145.333 310.455 145.284 309.867 145.285C308.376 145.285 307.455 146.204 307.455 148.002V159.907H301.082V139.435L306.962 139.436ZM270.333 137.461H270.259L268.395 149.744H272.124L270.333 137.461ZM260.462 159.907L265.878 132.489H275.178L280.164 159.907H273.658L272.744 154.569H267.7L266.933 159.907H260.462ZM194.348 132.263H201.189V159.96H194.348L194.348 132.263ZM183.931 132.263H190.771V159.96H183.931V132.263ZM221.043 139.663L221.187 141.478H221.297C221.877 140.642 223.439 139.009 226.09 139.009C229.467 139.009 231.21 141.441 231.21 144.382V159.96H224.637V145.762C224.674 144.673 223.984 144.128 223.258 144.128C222.604 144.128 221.805 144.673 221.805 145.69V159.96H215.269V139.663H221.043ZM204.878 139.626H211.559V159.96H204.878V139.626ZM204.878 132.727H211.559V137.629H204.878V132.727ZM249.748 145.981H243.742V144.737C243.742 143.751 243.087 142.98 242.025 142.98C240.902 142.98 240.375 143.542 240.375 144.335C240.375 145.3 240.944 145.877 242.414 146.591C243.328 147.037 244.313 147.514 245.447 148.062C249.361 149.955 250.332 151.5 250.332 153.999C250.332 157.669 247.647 160.514 242.059 160.514C236.74 160.514 234.079 157.818 234.079 153.595V152.827H240.157V154.474C240.157 155.611 240.822 156.304 242.059 156.304C243.147 156.304 243.817 155.522 243.817 154.656C243.817 154.152 243.742 153.305 241.433 152.178C240.906 151.921 239.8 151.395 239.212 151.106C236.394 149.73 234.446 148.502 234.446 144.92C234.446 141.368 237.156 138.771 242.096 138.771C247.738 138.771 249.748 141.903 249.748 145.434V145.981ZM164.693 145.85C164.693 141.201 167.878 138.822 172.599 138.822C177.797 138.822 180.545 141.641 180.545 145.85V153.538C180.545 157.747 177.833 160.565 172.599 160.565C167.914 160.565 164.693 158.223 164.693 153.574V145.85ZM171.116 154.709C171.116 155.477 171.773 156.101 172.615 156.101C173.405 156.101 174.117 155.551 174.117 154.708V144.68C174.117 143.838 173.475 143.251 172.615 143.251C171.74 143.251 171.116 143.874 171.116 144.642V154.708" fill="#23459B"/>
</svg>
