<svg width="480" height="320" viewBox="0 0 480 320" fill="none" xmlns="http://www.w3.org/2000/svg">
<path d="M113.782 54.2725C96.0065 56.9388 74.9727 66.7645 74.9727 66.7645C74.9727 66.7645 189.376 153.716 207.522 166.677C242.974 192.007 260.231 194.451 293.017 172.726C293.189 172.651 303.805 165.689 303.954 165.59C294.054 166.109 283.833 160.53 272.377 151.938C235.642 124.436 162.368 69.8754 157.456 66.2464C140.42 53.5068 129.731 51.9026 113.782 54.2725Z" fill="#004EA2"/>
<path d="M274.675 140.237C292.993 153.964 306.177 163.716 327.508 149.594C329.779 148.063 402.658 99.9959 405.966 97.7983C387.524 83.9735 374.341 74.0981 352.936 88.2938C349.924 90.2685 295.092 126.436 291.735 128.658C281.835 135.077 272.873 135.719 266.281 133.942C266.332 134.016 274.601 140.188 274.675 140.237ZM359.108 69.6047C340.814 55.8539 327.631 46.1265 306.276 60.2482C303.98 61.7541 236.656 106.217 233.348 108.439C251.789 122.24 264.973 132.115 286.377 117.919C289.389 115.944 338.716 83.3805 342.073 81.1834C351.948 74.74 356.689 72.8389 362.589 72.0736C362.539 72.0231 359.182 69.6544 359.108 69.6047" fill="#7FBE25"/>
<path d="M281.116 264.739L280.005 219.51H254.577L244.406 250.222L234.259 219.51H208.83L207.694 264.739H223.766L223.989 230.571L236.135 264.739H252.701L264.872 230.571L265.044 264.739H281.116ZM315.063 240.15L320.889 227.559L326.715 240.15H315.063ZM332.295 219.51H309.458L283.61 264.764H303.706L310.372 250.444H331.455L338.047 264.763H358.143L332.295 219.51ZM175.575 251.901C172.81 253.851 168.219 255.234 164.12 255.234C160.047 255.234 155.479 253.851 152.69 251.901C149.406 249.58 147.308 246.791 147.11 242.396C147.307 237.952 149.406 235.187 152.69 232.866C155.479 230.916 160.047 229.558 164.12 229.558C168.219 229.558 172.81 230.916 175.575 232.867C178.908 235.187 180.957 237.952 181.155 242.396C180.958 246.791 178.908 249.58 175.575 251.901M200.041 242.396C200.041 242.198 200.067 242.026 200.067 241.878H200.041C199.745 234.965 196.881 230.2 192.042 225.929C187.327 221.757 178.538 218.153 164.12 218.153C149.752 218.153 140.938 221.757 136.223 225.929C131.359 230.2 128.496 234.965 128.248 241.878H128.198C128.198 242.026 128.198 242.199 128.223 242.396C128.198 242.569 128.198 242.717 128.198 242.89H128.248C128.496 249.803 131.359 254.592 136.223 258.839C140.938 262.986 149.752 266.615 164.12 266.615C178.538 266.615 187.327 262.986 192.042 258.839C196.881 254.592 199.745 249.803 200.041 242.89H200.067C200.067 242.717 200.041 242.569 200.041 242.396M410.457 230.324C400.582 227.707 387.892 228.176 381.621 232.447C378.14 234.792 376.042 237.656 376.042 242.347C376.042 246.568 378.486 249.877 382.313 252.296C388.164 255.999 400.508 256.419 411.642 253.777L410.556 264.393C388.805 269.75 374.24 264.467 367.796 260.591C361.5 256.74 357.131 250.37 357.131 242.199C357.131 234.916 360.069 230.052 365.155 225.682C371.499 220.276 386.337 215.388 408.754 219.93L410.457 230.324ZM121.682 230.324C111.806 227.707 99.1168 228.176 92.8461 232.447C89.3898 234.792 87.2666 237.656 87.2666 242.347C87.2666 246.568 89.7105 249.877 93.5373 252.296C99.3882 255.999 111.757 256.419 122.891 253.777L121.755 264.393C100.03 269.75 85.4639 264.467 79.0205 260.591C72.7255 256.74 68.3555 250.371 68.3555 242.199C68.3555 234.916 71.2686 230.052 76.3792 225.683C82.6992 220.276 97.5118 215.388 120.003 219.931L121.682 230.324Z" fill="#004EA2"/>
</svg>
