<svg width="480" height="320" viewBox="0 0 480 320" fill="none" xmlns="http://www.w3.org/2000/svg">
<path d="M80.945 116.87V122.356C80.7355 122.355 80.5261 122.345 80.3176 122.325C80.109 122.305 79.8996 122.295 79.6901 122.295H78.3751C77.7374 122.295 77.0997 122.315 76.462 122.356C75.8197 122.397 75.1806 122.48 74.5488 122.603C73.5523 122.644 72.5861 122.818 71.6494 123.127C70.7137 123.435 69.7871 123.815 68.8706 124.266C68.1527 124.596 67.4653 125.007 66.8086 125.5C66.1505 125.994 65.5434 126.527 64.9846 127.102C64.427 127.678 63.9191 128.305 63.4609 128.983C63.0027 129.661 62.6131 130.37 62.2949 131.11C61.9335 131.897 61.6339 132.711 61.3988 133.544C61.1595 134.387 61.0005 135.22 60.9202 136.04C60.8377 136.469 60.7778 136.902 60.7407 137.336C60.7011 137.787 60.6812 138.239 60.681 138.692C60.681 139.103 60.7115 139.514 60.7713 139.925C60.8298 140.335 60.8808 140.768 60.9202 141.22C61.0794 142.083 61.3186 142.914 61.6369 143.716C61.9564 144.518 62.3548 145.288 62.8334 146.028C63.7437 147.295 64.7857 148.462 65.9417 149.51C67.0975 150.559 68.3525 151.432 69.7069 152.131C70.976 152.54 72.2754 152.849 73.593 153.055C74.8979 153.26 76.2167 153.363 77.5376 153.363C78.0951 153.363 78.6641 153.343 79.2419 153.302C79.8117 153.262 80.3798 153.2 80.945 153.117V158.419H76.8209L72.7554 158.357C71.7193 158.275 70.6832 158.089 69.6471 157.802C68.6109 157.514 67.6155 157.145 66.6583 156.692C65.8155 156.319 65.0056 155.876 64.2374 155.367C63.4568 154.851 62.7263 154.262 62.0557 153.61C61.3404 153.036 60.6803 152.396 60.084 151.699C59.4811 150.994 58.9217 150.253 58.4089 149.48C57.7698 148.407 57.2202 147.283 56.7656 146.12C56.3055 144.943 55.9162 143.739 55.5996 142.514C55.4811 141.254 55.4115 139.989 55.3909 138.722C55.3707 137.479 55.4004 136.234 55.48 134.993C55.6403 133.884 55.8886 132.805 56.2272 131.757C56.5681 130.706 56.9981 129.685 57.5127 128.706C58.0645 127.729 58.6526 126.773 59.2757 125.84C59.8946 124.914 60.5844 124.038 61.3391 123.219C61.9358 122.521 62.6073 121.891 63.3414 121.339C64.0662 120.792 64.836 120.307 65.6427 119.89C66.8379 119.232 68.0536 118.689 69.2882 118.257C70.5361 117.822 71.8151 117.482 73.1143 117.24C73.9446 117.076 74.7823 116.953 75.6244 116.87C76.459 116.787 77.2972 116.746 78.1359 116.746C78.6132 116.746 79.0918 116.757 79.5703 116.777C80.049 116.799 80.5072 116.849 80.945 116.931V116.87ZM100.018 129.63C100.695 129.63 101.382 129.693 102.08 129.815C102.777 129.938 103.444 130.123 104.082 130.37C105.077 130.739 106.029 131.214 106.922 131.788C107.818 132.363 108.645 133.042 109.403 133.822C110.16 134.603 110.827 135.466 111.405 136.411C111.983 137.357 112.431 138.363 112.75 139.431C113.069 140.46 113.279 141.528 113.378 142.638C113.477 143.745 113.487 144.858 113.407 145.966C113.328 147.034 113.108 148.083 112.75 149.11C112.391 150.139 111.93 151.13 111.376 152.068C110.818 153.013 110.156 153.892 109.403 154.689C108.647 155.489 107.805 156.202 106.891 156.816C106.016 157.35 105.069 157.781 104.053 158.111C103.036 158.439 102.01 158.644 100.974 158.727C100.786 158.766 100.597 158.796 100.406 158.818C100.218 158.84 100.028 158.851 99.8383 158.85C99.6398 158.891 99.4501 158.911 99.2707 158.911H98.7029C98.0257 158.911 97.3575 158.871 96.7007 158.788C96.0426 158.706 95.3757 158.583 94.6971 158.419C93.7018 158.09 92.7344 157.647 91.7989 157.094C90.862 156.539 89.9952 155.911 89.1984 155.212C88.441 154.432 87.7537 153.579 87.1364 152.655C86.519 151.73 86.0098 150.754 85.6114 149.726C85.3326 148.904 85.1138 148.083 84.9546 147.261C84.7943 146.439 84.7153 145.596 84.7153 144.733V143.993C84.7153 143.912 84.7255 143.809 84.7446 143.685C84.7649 143.563 84.7751 143.439 84.7751 143.315C84.854 142.206 85.0641 141.117 85.4026 140.049C85.7413 138.979 86.1702 137.973 86.6882 137.028C87.2458 136.082 87.8733 135.209 88.5708 134.407C89.2684 133.607 90.055 132.877 90.932 132.219C91.8485 131.603 92.8044 131.099 93.8011 130.71C94.7977 130.319 95.8135 130.041 96.8496 129.877C97.375 129.794 97.9038 129.732 98.4343 129.693C98.9613 129.651 99.4908 129.651 100.018 129.693V129.63ZM100.734 134.624C100.585 134.624 100.435 134.614 100.286 134.593C100.158 134.573 100.028 134.563 99.8982 134.563C99.739 134.521 99.5889 134.5 99.4501 134.5H99.0007C98.8022 134.5 98.6036 134.51 98.4038 134.531C98.204 134.551 98.0055 134.563 97.8056 134.563C97.607 134.603 97.4072 134.644 97.2086 134.685C97.0038 134.728 96.8036 134.79 96.6103 134.871C95.8136 135.076 95.0765 135.394 94.3993 135.825C93.7209 136.257 93.1035 136.802 92.546 137.46C92.0674 137.993 91.6487 138.548 91.291 139.123C90.9321 139.699 90.6329 140.336 90.3936 141.035C90.2345 141.733 90.1149 142.452 90.0346 143.193C89.9556 143.929 89.9356 144.671 89.9749 145.411C90.0156 146.11 90.1352 146.809 90.3338 147.508C90.5336 148.207 90.792 148.863 91.1115 149.479C91.4297 150.137 91.8281 150.723 92.3067 151.237C92.7905 151.755 93.3099 152.24 93.8609 152.686C94.4499 153.092 95.0812 153.433 95.7435 153.703C96.4015 153.97 97.0686 154.144 97.7457 154.226C97.9835 154.268 98.223 154.299 98.4636 154.319C98.7029 154.339 98.9218 154.349 99.1217 154.349C99.599 154.349 100.078 154.309 100.556 154.226C101.025 154.147 101.485 154.023 101.931 153.857C102.608 153.651 103.236 153.363 103.813 152.994C104.391 152.623 104.94 152.172 105.457 151.637C105.975 151.185 106.433 150.652 106.833 150.034C107.231 149.418 107.549 148.782 107.789 148.124C107.987 147.631 108.127 147.137 108.207 146.645C108.286 146.151 108.327 145.638 108.327 145.103V144.455C108.327 144.23 108.307 144.014 108.267 143.809C108.307 143.069 108.247 142.35 108.088 141.651C107.927 140.948 107.686 140.266 107.37 139.617C107.052 138.918 106.653 138.291 106.175 137.737C105.696 137.182 105.178 136.698 104.621 136.287C104.07 135.84 103.455 135.477 102.798 135.209C102.14 134.942 101.452 134.768 100.734 134.685V134.624ZM126.958 129.692C127.286 129.65 127.615 129.629 127.945 129.63H128.872C129.19 129.63 129.509 129.641 129.828 129.661C130.147 129.682 130.445 129.712 130.725 129.753C131.96 130 133.115 130.431 134.191 131.048C135.268 131.665 136.203 132.445 137.001 133.391C137.877 132.322 138.913 131.479 140.11 130.863C141.305 130.247 142.58 129.877 143.935 129.753C144.653 129.712 145.359 129.722 146.057 129.785C146.756 129.847 147.447 129.98 148.119 130.185C148.678 130.308 149.196 130.482 149.673 130.709C150.152 130.936 150.589 131.212 150.989 131.541C151.427 131.87 151.846 132.23 152.244 132.62C152.64 133.007 153 133.43 153.32 133.884C153.718 134.542 154.047 135.219 154.306 135.918C154.565 136.616 154.775 137.356 154.934 138.137V158.418H149.972V140.295C149.932 139.756 149.852 139.22 149.733 138.692C149.61 138.148 149.451 137.612 149.255 137.089C148.857 136.391 148.329 135.794 147.671 135.302C147.012 134.809 146.286 134.5 145.489 134.377C145.332 134.336 145.172 134.305 145.01 134.285C144.851 134.264 144.672 134.254 144.473 134.254C143.875 134.254 143.287 134.367 142.709 134.593C142.131 134.819 141.604 135.158 141.125 135.61C140.607 136.103 140.189 136.699 139.87 137.398C139.551 138.097 139.392 138.836 139.392 139.617V158.418H134.311V139.863C134.271 139 134.081 138.168 133.743 137.367C133.404 136.565 132.936 135.877 132.339 135.301C132.059 135.054 131.741 134.85 131.382 134.685C131.023 134.521 130.665 134.418 130.306 134.377C130.186 134.377 130.077 134.367 129.978 134.346C129.877 134.325 129.788 134.315 129.708 134.315C129.629 134.274 129.539 134.254 129.439 134.254H129.111C128.881 134.253 128.652 134.264 128.423 134.284C128.208 134.304 127.996 134.356 127.796 134.438C126.958 134.645 126.221 135.054 125.584 135.672C124.946 136.288 124.467 137.007 124.149 137.829C124.034 138.224 123.943 138.625 123.879 139.031C123.821 139.422 123.79 139.843 123.79 140.295V140.48C123.79 140.562 123.811 140.623 123.85 140.664V158.418H118.769V139.185C118.769 138.65 118.818 138.127 118.919 137.613C119.018 137.1 119.148 136.576 119.307 136.041C119.745 135.014 120.323 134.079 121.041 133.237C121.753 132.398 122.578 131.662 123.491 131.048C124.05 130.719 124.618 130.452 125.195 130.247C125.771 130.041 126.36 129.876 126.958 129.753L126.958 129.692ZM175.454 129.692C175.613 129.733 175.782 129.753 175.962 129.753H176.469C177.466 129.795 178.453 129.959 179.429 130.247C180.405 130.535 181.332 130.946 182.209 131.479C182.727 131.685 183.204 131.942 183.643 132.25C184.081 132.558 184.5 132.917 184.898 133.329C185.935 134.315 186.771 135.456 187.408 136.75C188.046 138.045 188.445 139.412 188.605 140.85V158.418H183.703V142.082C183.662 141.507 183.553 140.911 183.373 140.295C183.195 139.679 182.946 139.104 182.626 138.569C182.029 137.501 181.232 136.616 180.236 135.918C179.239 135.219 178.143 134.767 176.948 134.562C176.669 134.479 176.36 134.428 176.021 134.408C175.693 134.388 175.364 134.378 175.035 134.377H174.647C174.507 134.377 174.378 134.398 174.259 134.439C174.139 134.439 174.009 134.449 173.87 134.469C173.741 134.489 173.611 134.499 173.481 134.5C172.246 134.542 171.09 134.86 170.015 135.456C168.938 136.051 168.061 136.884 167.384 137.953C166.866 138.816 166.467 139.74 166.188 140.727C165.91 141.713 165.77 142.74 165.77 143.808V144.671C165.77 144.835 165.78 144.989 165.8 145.134C165.819 145.278 165.85 145.411 165.889 145.534C165.93 146.151 166.029 146.757 166.188 147.353C166.348 147.949 166.566 148.534 166.846 149.11C167.122 149.639 167.442 150.145 167.802 150.621C168.161 151.093 168.539 151.534 168.938 151.946C169.377 152.357 169.854 152.705 170.372 152.993C170.884 153.278 171.425 153.506 171.986 153.672C172.426 153.836 172.884 153.959 173.361 154.042C173.835 154.123 174.315 154.165 174.796 154.165H175.006C175.065 154.165 175.115 154.145 175.155 154.103H175.514C176.071 154.062 176.599 153.959 177.098 153.795C177.596 153.631 178.083 153.404 178.562 153.117C179.08 152.788 179.568 152.408 180.027 151.976C180.485 151.545 180.874 151.083 181.192 150.59V156.508C180.275 157.206 179.28 157.74 178.203 158.11C177.127 158.48 176.011 158.706 174.857 158.789C174.617 158.829 174.388 158.85 174.168 158.85H173.481C173.011 158.81 172.543 158.759 172.077 158.696C171.622 158.635 171.173 158.542 170.731 158.418C169.974 158.254 169.247 157.987 168.55 157.617C167.852 157.247 167.185 156.816 166.547 156.323C165.986 155.867 165.447 155.383 164.933 154.873C164.418 154.363 163.938 153.817 163.499 153.24C163.058 152.62 162.658 151.972 162.304 151.299C161.945 150.621 161.646 149.932 161.406 149.233C161.168 148.415 160.988 147.581 160.869 146.737C160.749 145.889 160.689 145.034 160.69 144.179C160.69 143.398 160.749 142.627 160.869 141.867C160.988 141.109 161.147 140.358 161.346 139.617C161.583 138.843 161.883 138.091 162.244 137.367C162.598 136.654 162.997 135.964 163.439 135.302C163.869 134.735 164.338 134.2 164.843 133.699C165.338 133.209 165.867 132.755 166.428 132.342C166.985 131.89 167.594 131.499 168.251 131.171C168.909 130.843 169.576 130.596 170.253 130.432C171.095 130.184 171.954 129.998 172.824 129.877C173.695 129.754 174.575 129.712 175.454 129.753L175.454 129.692ZM197.194 129.877H202.454V158.542H197.194L197.194 129.877ZM199.585 120.137C200.103 120.137 200.582 120.25 201.02 120.476C201.458 120.702 201.817 121.02 202.096 121.431C202.215 121.596 202.325 121.78 202.424 121.987C202.522 122.188 202.612 122.394 202.694 122.603C202.694 122.685 202.704 122.757 202.723 122.819C202.743 122.88 202.754 122.953 202.754 123.034C202.754 123.075 202.764 123.127 202.783 123.188C202.803 123.25 202.813 123.301 202.813 123.342V123.713C202.813 123.836 202.803 123.949 202.783 124.051C202.764 124.154 202.754 124.247 202.754 124.329C202.71 124.419 202.67 124.512 202.634 124.606C202.591 124.718 202.551 124.831 202.514 124.945C202.355 125.192 202.186 125.418 202.006 125.623C201.827 125.829 201.617 126.014 201.379 126.178C201.059 126.301 200.721 126.393 200.362 126.456C200.006 126.517 199.647 126.548 199.286 126.548C199.006 126.507 198.734 126.423 198.479 126.302C198.219 126.177 197.969 126.033 197.732 125.87C197.493 125.665 197.284 125.428 197.104 125.161C196.928 124.899 196.778 124.62 196.656 124.329V124.021C196.617 123.98 196.597 123.928 196.597 123.867V123.713C196.636 123.137 196.756 122.603 196.954 122.11C197.154 121.616 197.453 121.164 197.852 120.753C198.054 120.628 198.264 120.515 198.479 120.415C198.698 120.311 198.908 120.26 199.107 120.26C199.187 120.22 199.266 120.198 199.346 120.198H199.585V120.137ZM224.442 129.692V134.254C223.844 134.254 223.247 134.285 222.649 134.346C222.062 134.406 221.482 134.52 220.915 134.685C220.397 134.85 219.91 135.065 219.451 135.332C218.993 135.599 218.545 135.918 218.106 136.288C217.709 136.697 217.349 137.14 217.03 137.613C216.711 138.085 216.453 138.61 216.253 139.185C216.094 139.843 215.974 140.49 215.895 141.127C215.815 141.771 215.775 142.42 215.775 143.069V158.418H210.694V129.877H215.476V133.391C215.807 132.965 216.156 132.553 216.523 132.157C216.898 131.749 217.331 131.396 217.807 131.11C218.246 130.822 218.723 130.575 219.241 130.37C219.759 130.164 220.277 130.02 220.796 129.939C221.183 129.859 221.571 129.787 221.962 129.722C222.347 129.66 222.737 129.629 223.128 129.629H223.456C223.555 129.629 223.666 129.651 223.784 129.692C223.904 129.692 224.013 129.702 224.114 129.722C224.213 129.743 224.323 129.753 224.442 129.753L224.442 129.692ZM246.965 116.993H252.224V145.473C252.224 146.13 252.285 146.757 252.404 147.353C252.523 147.949 252.684 148.535 252.882 149.11C253.121 149.645 253.41 150.127 253.749 150.559C254.085 150.988 254.455 151.389 254.855 151.76C255.652 152.254 256.479 152.623 257.336 152.87C258.193 153.117 259.08 153.22 259.996 153.178L265.974 153.117V158.419H259.338L257.186 158.233C255.831 158.07 254.546 157.699 253.33 157.124C252.115 156.549 251.01 155.788 250.013 154.843C249.615 154.391 249.237 153.918 248.878 153.425C248.515 152.927 248.176 152.413 247.861 151.884C247.62 151.177 247.421 150.456 247.264 149.726C247.103 148.975 247.003 148.212 246.965 147.445V116.993ZM271.649 129.877H276.91V158.542H271.649L271.649 129.877ZM274.041 120.137C274.559 120.137 275.036 120.25 275.475 120.476C275.913 120.702 276.272 121.02 276.551 121.431C276.67 121.596 276.78 121.78 276.879 121.987C276.98 122.192 277.069 122.398 277.149 122.603C277.149 122.685 277.158 122.757 277.178 122.819C277.199 122.88 277.209 122.953 277.209 123.034C277.209 123.075 277.218 123.127 277.238 123.188C277.259 123.25 277.269 123.301 277.269 123.342V123.713C277.269 123.836 277.259 123.949 277.238 124.051C277.219 124.142 277.21 124.235 277.209 124.329C277.165 124.419 277.125 124.512 277.089 124.606C277.046 124.718 277.006 124.831 276.97 124.945C276.817 125.183 276.647 125.409 276.462 125.623C276.282 125.829 276.072 126.014 275.833 126.178C275.515 126.301 275.176 126.393 274.817 126.456C274.462 126.517 274.102 126.548 273.742 126.548C273.462 126.507 273.19 126.423 272.935 126.302C272.675 126.178 272.425 126.033 272.187 125.87C271.948 125.665 271.739 125.428 271.56 125.161C271.383 124.899 271.233 124.62 271.112 124.329V124.021C271.071 123.98 271.052 123.928 271.052 123.867V123.713C271.092 123.137 271.211 122.603 271.41 122.11C271.609 121.616 271.909 121.164 272.307 120.753C272.51 120.628 272.719 120.515 272.935 120.415C273.154 120.311 273.364 120.26 273.562 120.26C273.642 120.22 273.721 120.198 273.801 120.198H274.041V120.137ZM293.697 129.692C294.024 129.65 294.354 129.629 294.684 129.63H295.61C295.928 129.63 296.248 129.641 296.566 129.661C296.886 129.682 297.184 129.712 297.464 129.753C298.698 130 299.854 130.431 300.93 131.048C302.007 131.665 302.942 132.445 303.739 133.391C304.616 132.322 305.652 131.479 306.849 130.863C308.044 130.247 309.318 129.877 310.673 129.753C311.39 129.712 312.098 129.722 312.795 129.785C313.495 129.847 314.186 129.98 314.857 130.185C315.415 130.308 315.934 130.482 316.412 130.709C316.89 130.936 317.328 131.212 317.728 131.541C318.166 131.87 318.583 132.23 318.983 132.62C319.379 133.007 319.739 133.43 320.058 133.884C320.457 134.542 320.785 135.219 321.045 135.918C321.303 136.616 321.513 137.356 321.672 138.137V158.418H316.711V140.295C316.67 139.756 316.59 139.22 316.471 138.692C316.349 138.148 316.189 137.612 315.994 137.089C315.594 136.391 315.067 135.794 314.409 135.302C313.753 134.809 313.025 134.5 312.228 134.377C312.07 134.336 311.91 134.305 311.749 134.285C311.59 134.264 311.41 134.254 311.212 134.254C310.614 134.254 310.026 134.367 309.448 134.593C308.87 134.819 308.343 135.158 307.864 135.61C307.346 136.103 306.927 136.699 306.609 137.398C306.29 138.097 306.131 138.836 306.131 139.617V158.418H301.049V139.863C301.01 139 300.82 138.168 300.482 137.367C300.143 136.565 299.675 135.877 299.076 135.301C298.798 135.054 298.479 134.85 298.12 134.685C297.761 134.521 297.404 134.418 297.045 134.377C296.925 134.377 296.816 134.367 296.715 134.346C296.616 134.325 296.527 134.315 296.447 134.315C296.368 134.274 296.277 134.254 296.178 134.254H295.85C295.61 134.254 295.381 134.264 295.162 134.284C294.946 134.304 294.734 134.356 294.533 134.438C293.697 134.645 292.96 135.054 292.322 135.672C291.685 136.288 291.206 137.007 290.888 137.829C290.768 138.24 290.678 138.64 290.618 139.031C290.558 139.422 290.529 139.843 290.529 140.295V140.48C290.529 140.562 290.549 140.623 290.589 140.664V158.418H285.508V139.185C285.508 138.65 285.557 138.127 285.658 137.613C285.757 137.1 285.887 136.576 286.046 136.041C286.484 135.014 287.062 134.079 287.78 133.237C288.492 132.398 289.317 131.662 290.23 131.048C290.787 130.719 291.356 130.452 291.934 130.247C292.51 130.041 293.099 129.876 293.697 129.753V129.692ZM331.074 129.877H336.335V158.542H331.074V129.877ZM333.465 120.137C333.983 120.137 334.461 120.25 334.899 120.476C335.338 120.702 335.696 121.02 335.976 121.431C336.096 121.596 336.205 121.78 336.305 121.987C336.402 122.188 336.492 122.394 336.573 122.603C336.573 122.685 336.583 122.757 336.604 122.819C336.623 122.88 336.633 122.953 336.633 123.034C336.633 123.075 336.643 123.127 336.664 123.188C336.683 123.25 336.693 123.301 336.693 123.342V123.713C336.693 123.836 336.683 123.949 336.664 124.051C336.643 124.154 336.633 124.247 336.633 124.329C336.59 124.42 336.55 124.512 336.513 124.606C336.471 124.718 336.431 124.831 336.394 124.945C336.235 125.192 336.065 125.418 335.886 125.623C335.706 125.829 335.498 126.014 335.258 126.178C334.94 126.301 334.6 126.393 334.243 126.456C333.887 126.517 333.527 126.548 333.166 126.548C332.886 126.507 332.615 126.423 332.36 126.302C332.099 126.178 331.849 126.033 331.611 125.87C331.371 125.663 331.16 125.425 330.984 125.161C330.808 124.899 330.657 124.62 330.536 124.329V124.021C330.496 123.98 330.476 123.928 330.476 123.867V123.713C330.517 123.137 330.635 122.603 330.835 122.11C331.034 121.616 331.333 121.164 331.731 120.753C331.934 120.628 332.144 120.515 332.36 120.415C332.579 120.311 332.788 120.26 332.986 120.26C333.066 120.22 333.146 120.198 333.225 120.198H333.465V120.137ZM345.411 122.479H350.552V129.877H360.713V134.624H350.671V150.836C350.671 150.96 350.68 151.052 350.701 151.114C350.721 151.175 350.731 151.248 350.731 151.329C350.81 151.657 350.919 151.967 351.06 152.254C351.195 152.538 351.389 152.789 351.627 152.994C351.945 153.24 352.315 153.425 352.733 153.549C353.152 153.672 353.561 153.754 353.959 153.795L360.593 153.733V158.419H352.285C351.757 158.376 351.236 158.272 350.731 158.11C350.213 157.945 349.734 157.72 349.297 157.432C348.777 157.145 348.29 156.795 347.831 156.384C347.373 155.974 346.985 155.5 346.665 154.967C346.387 154.514 346.158 154.052 345.978 153.579C345.8 153.111 345.67 152.626 345.59 152.131C345.552 151.896 345.522 151.659 345.501 151.422C345.481 151.207 345.471 150.99 345.47 150.774C345.43 150.561 345.41 150.344 345.41 150.127V149.418L345.411 122.479ZM376.518 129.322H377.474C377.793 129.322 378.112 129.342 378.431 129.383C379.081 129.426 379.73 129.498 380.373 129.6C381.032 129.703 381.659 129.857 382.256 130.062C383.173 130.349 384.07 130.73 384.946 131.202C385.823 131.676 386.64 132.219 387.397 132.836C388.233 133.617 388.981 134.459 389.639 135.363C390.297 136.267 390.864 137.253 391.342 138.323L373.11 149.048L370.78 144.856L384.109 136.905C383.747 136.489 383.357 136.098 382.943 135.734C382.525 135.363 382.037 135.035 381.48 134.747C380.921 134.5 380.334 134.295 379.715 134.131C379.099 133.966 378.469 133.863 377.833 133.822C377.234 133.822 376.648 133.874 376.07 133.976C375.489 134.079 374.919 134.234 374.366 134.439C373.131 134.849 372.055 135.548 371.138 136.534C370.221 137.521 369.564 138.671 369.166 139.986C369.086 140.274 369.016 140.572 368.956 140.881C368.896 141.189 368.846 141.487 368.807 141.775C368.767 142.071 368.747 142.369 368.747 142.668V143.562C368.786 144.507 368.937 145.421 369.195 146.305C369.455 147.189 369.823 148.041 370.301 148.863C370.74 149.645 371.288 150.374 371.944 151.053C372.603 151.73 373.31 152.315 374.066 152.809C374.745 153.178 375.452 153.446 376.189 153.61C376.925 153.775 377.677 153.857 378.431 153.857C378.869 153.857 379.298 153.836 379.715 153.796C380.131 153.755 380.542 153.672 380.941 153.549C381.497 153.344 382.037 153.096 382.555 152.809C383.068 152.525 383.567 152.216 384.05 151.884C384.568 151.515 385.026 151.093 385.424 150.62C385.817 150.155 386.158 149.649 386.441 149.11C386.679 148.499 386.868 147.87 387.009 147.23C387.148 146.591 387.238 145.941 387.277 145.288L392.299 146.337C392.219 147.404 392.02 148.411 391.701 149.357C391.381 150.304 390.961 151.213 390.446 152.07C389.928 152.933 389.329 153.723 388.652 154.442C387.979 155.158 387.238 155.809 386.441 156.385C385.604 156.96 384.737 157.432 383.841 157.803C382.943 158.172 382.017 158.419 381.061 158.542L380.343 158.664C380.105 158.706 379.866 158.747 379.626 158.788H378.132C377.653 158.788 377.174 158.767 376.697 158.727C376.217 158.685 375.738 158.624 375.263 158.542C374.306 158.459 373.37 158.224 372.454 157.833C371.537 157.442 370.679 156.96 369.882 156.385C368.408 155.11 367.183 153.62 366.206 151.914C365.23 150.21 364.522 148.391 364.085 146.46C364.045 146.13 364.025 145.812 364.025 145.504V143.902C364.025 143.675 364.045 143.46 364.085 143.254C364.085 142.802 364.114 142.34 364.174 141.868C364.233 141.394 364.303 140.952 364.384 140.541C364.58 139.564 364.86 138.605 365.22 137.675C365.581 136.745 366.021 135.849 366.535 134.994C367.094 134.171 367.746 133.416 368.478 132.744C369.214 132.066 370.027 131.476 370.899 130.987C371.775 130.493 372.681 130.114 373.618 129.846C374.555 129.579 375.521 129.425 376.518 129.383V129.322ZM419.475 116.931H424.616V144.794C424.576 146.028 424.397 147.209 424.077 148.339C423.759 149.47 423.32 150.57 422.762 151.637C422.405 152.457 421.953 153.233 421.417 153.949C420.884 154.663 420.273 155.315 419.594 155.891C418.917 156.426 418.189 156.898 417.412 157.309C416.633 157.72 415.824 158.07 414.991 158.357C414.593 158.398 414.164 158.47 413.706 158.572C413.247 158.675 412.799 158.748 412.362 158.788C412.162 158.788 411.953 158.799 411.733 158.819C411.504 158.84 411.275 158.85 411.045 158.85H410.448C410.368 158.85 410.279 158.839 410.18 158.819C410.079 158.799 409.97 158.788 409.85 158.788C408.973 158.788 408.108 158.706 407.25 158.542C406.4 158.379 405.569 158.131 404.769 157.802C404.013 157.391 403.285 156.908 402.587 156.353C401.89 155.798 401.262 155.193 400.705 154.534C400.101 153.87 399.552 153.159 399.061 152.408C398.566 151.654 398.136 150.861 397.776 150.035C397.457 149.212 397.197 148.367 396.999 147.507C396.799 146.644 396.68 145.761 396.64 144.857C396.6 143.048 396.839 141.281 397.357 139.555C397.875 137.829 398.632 136.247 399.629 134.809C400.785 133.411 402.119 132.26 403.634 131.357C405.148 130.452 406.762 129.856 408.475 129.568C410.069 129.486 411.634 129.61 413.169 129.939C414.702 130.267 416.166 130.781 417.561 131.48V136.596C416.96 136.183 416.331 135.812 415.679 135.487C415.028 135.161 414.36 134.872 413.677 134.623C413.119 134.418 412.55 134.284 411.972 134.223C411.394 134.161 410.827 134.151 410.269 134.193C409.711 134.193 409.153 134.264 408.595 134.408C408.04 134.551 407.499 134.747 406.981 134.993C405.865 135.404 404.88 136.051 404.022 136.936C403.165 137.819 402.538 138.857 402.139 140.048C401.9 140.622 401.73 141.222 401.631 141.836C401.532 142.448 401.483 143.066 401.482 143.686C401.482 144.302 401.541 144.908 401.661 145.503C401.78 146.1 401.941 146.685 402.139 147.261C402.498 148.37 403.016 149.407 403.693 150.373C404.372 151.34 405.169 152.172 406.085 152.871C406.603 153.158 407.13 153.394 407.669 153.58C408.207 153.764 408.775 153.898 409.373 153.979C409.611 154.022 409.85 154.052 410.09 154.072C410.329 154.093 410.568 154.103 410.807 154.103C411.126 154.103 411.454 154.083 411.794 154.042C412.133 154.001 412.461 153.959 412.779 153.918C413.338 153.754 413.885 153.548 414.424 153.302C414.962 153.055 415.456 152.722 415.888 152.316C416.804 151.658 417.582 150.846 418.219 149.881C418.857 148.915 419.276 147.857 419.474 146.706L419.475 116.931ZM266.957 174.675L420.697 177.779L266.97 188.434C267.48 186.238 267.751 183.942 267.751 181.581C267.751 179.2 267.476 176.888 266.957 174.675ZM213.876 188.426L60.1498 177.779L213.886 174.69C213.369 176.897 213.096 179.206 213.096 181.581C213.096 183.94 213.365 186.232 213.876 188.426M238.887 181.581C238.887 182.475 239.575 183.201 240.423 183.201C241.272 183.201 241.961 182.475 241.961 181.581C241.961 180.686 241.272 179.96 240.423 179.96C239.575 179.96 238.887 180.686 238.887 181.581ZM237.429 176.648C237.092 176.079 236.706 175.146 236.347 174.002C235.822 172.324 235.203 171.547 234.126 171.086C233.048 170.625 232.138 171.134 231.633 171.105C231.127 171.074 231.377 170.662 231.377 170.662C231.704 169.566 233.311 167.947 234.494 167.058C231.193 168.56 228.505 171.277 226.938 174.675C227.021 174.552 227.104 174.526 227.183 174.628C227.225 174.682 227.27 174.734 227.318 174.785C227.823 175.319 228.408 175.323 229.077 174.894C229.805 174.427 232.279 173.597 233.439 175.884C234.135 177.26 235.078 178.054 235.72 178.467C236.155 177.736 236.741 177.114 237.429 176.648M240.76 175.734C240.91 175.109 241.416 174.074 242.166 172.889C243.095 171.421 243.296 170.426 242.976 169.248C242.658 168.068 241.716 167.626 241.427 167.187C241.138 166.749 241.6 166.702 241.6 166.702C242.863 166.203 245.932 166.841 247.041 167.393C245.045 166.356 242.798 165.773 240.423 165.773C238.809 165.773 237.255 166.041 235.799 166.54C235.792 166.643 235.79 166.713 235.791 166.782C235.802 167.537 236.221 167.969 236.984 168.151C237.815 168.348 240.142 169.563 239.47 172.058C239.023 173.714 239.26 175.08 239.468 175.809C239.783 175.753 240.103 175.724 240.423 175.724C240.536 175.724 240.648 175.728 240.76 175.734ZM244.784 177.954C245.33 177.631 246.33 177.282 247.576 176.994C249.213 176.619 250.013 176.051 250.559 174.969C251.106 173.886 250.721 172.879 250.801 172.352C250.882 171.825 251.245 172.129 251.245 172.129C252.332 172.627 253.844 174.778 254.49 176.114C253.168 172.334 250.519 169.235 247.139 167.445C247.423 167.603 247.533 167.75 247.379 167.858C247.323 167.897 247.269 167.938 247.216 167.983C246.66 168.457 246.595 169.07 246.93 169.815C247.294 170.629 247.817 173.312 245.54 174.288C244.216 174.855 243.382 175.72 242.915 176.345C243.645 176.732 244.282 177.285 244.784 177.954M245.952 182.122C246.553 182.269 247.536 182.761 248.664 183.495C250.088 184.424 251.036 184.601 252.144 184.224C253.25 183.846 253.634 182.84 254.04 182.519C254.446 182.199 254.507 182.684 254.507 182.684C254.916 183.723 254.689 185.98 254.337 187.465C255.029 185.646 255.41 183.66 255.41 181.581C255.41 180.021 255.196 178.514 254.796 177.091C254.782 177.175 254.733 177.213 254.641 177.196C254.575 177.182 254.509 177.172 254.442 177.165C253.73 177.099 253.279 177.493 253.028 178.274C252.755 179.127 251.365 181.439 249.084 180.473C247.723 179.897 246.525 179.923 245.781 180.038C245.91 180.542 245.976 181.06 245.975 181.581C245.975 181.763 245.968 181.943 245.952 182.122M243.957 186.099C244.287 186.653 244.663 187.713 244.985 189.046C245.399 190.758 245.964 191.58 247.008 192.119C248.053 192.657 248.993 192.215 249.496 192.283C249.998 192.35 249.723 192.744 249.723 192.744C249.332 193.79 247.687 195.245 246.456 196.056C249.58 194.605 252.145 192.063 253.717 188.886C253.68 188.886 253.646 188.864 253.614 188.816C253.575 188.758 253.533 188.702 253.489 188.649C253.021 188.079 252.436 188.033 251.741 188.411C250.984 188.822 248.461 189.469 247.457 187.101C246.842 185.656 245.937 184.791 245.324 184.336C244.98 185.015 244.514 185.613 243.956 186.099M240.216 187.433C240.096 188.072 239.664 189.122 239.009 190.334C238.18 191.869 238.045 192.875 238.441 194.028C238.837 195.18 239.806 195.552 240.123 195.968C240.44 196.384 239.983 196.466 239.983 196.466C238.941 196.967 236.546 196.747 235.148 196.382C236.827 197.048 238.617 197.389 240.423 197.388C242.042 197.388 243.601 197.117 245.061 196.617C245.041 196.59 245.035 196.551 245.041 196.5C245.051 196.43 245.058 196.359 245.063 196.289C245.1 195.535 244.711 195.073 243.963 194.836C243.146 194.578 240.905 193.194 241.742 190.755C242.255 189.257 242.169 187.964 242.026 187.19C241.507 187.354 240.967 187.437 240.423 187.437L240.216 187.433ZM223.335 181.581C223.335 171.657 230.986 163.611 240.423 163.611C249.861 163.611 257.513 171.657 257.513 181.581C257.513 191.504 249.861 199.548 240.423 199.548C230.986 199.548 223.335 191.504 223.335 181.581M236.116 185.276C235.562 185.607 234.677 185.975 233.599 186.307C231.992 186.803 231.233 187.427 230.758 188.547C230.285 189.667 230.735 190.644 230.689 191.175C230.644 191.708 230.262 191.43 230.262 191.43C228.583 190.805 225.701 186.526 226.538 186.628C226.608 186.635 226.675 186.64 226.74 186.642C227.455 186.656 227.879 186.229 228.077 185.431C228.294 184.562 229.527 182.152 231.867 182.948C233.193 183.399 234.335 183.318 235.076 183.164C234.939 182.647 234.87 182.115 234.871 181.581C234.871 181.27 234.894 180.965 234.938 180.667C234.323 180.496 233.454 180.114 232.473 179.571C230.99 178.75 230.031 178.643 228.953 179.101C227.875 179.558 227.557 180.592 227.174 180.94C226.789 181.29 226.698 180.811 226.698 180.811C226.093 179.534 226.377 176.235 226.784 175.021C225.919 177.02 225.437 179.241 225.437 181.581C225.437 187.928 228.985 193.403 234.103 195.918C234.062 195.855 234.071 195.793 234.141 195.738C234.197 195.693 234.248 195.648 234.295 195.601C234.819 195.087 234.843 194.471 234.461 193.751C234.043 192.968 233.343 190.329 235.55 189.187C236.87 188.505 237.653 187.547 238.069 186.886C237.308 186.51 236.641 185.957 236.116 185.276Z" fill="#01145C"/>
<path d="M220.529 181.58C220.529 170.028 229.436 160.662 240.423 160.662C251.41 160.662 260.317 170.028 260.317 181.58C260.317 193.133 251.41 202.499 240.423 202.499C229.436 202.499 220.529 193.133 220.529 181.58Z" stroke="#01145C" stroke-width="3.77417" stroke-miterlimit="3.864"/>
</svg>
