<svg width="480" height="320" viewBox="0 0 480 320" fill="none" xmlns="http://www.w3.org/2000/svg">
<path d="M336.841 104.545L336.567 104.866C336.567 104.866 340.952 107.613 345.837 113.451C350.055 118.517 350.391 121.904 343.865 131.353C336.734 141.647 324.95 149.48 322.245 152.38L322.472 152.746L369.39 123.641C370.501 122.848 370.302 121.168 368.932 120.521L336.841 104.545ZM104.596 133.971C71.8653 133.971 55.3848 155.77 55.3848 176.295C55.3848 198.18 72.4542 215.738 102.437 215.088C110.376 215.099 120.938 212.858 124.475 212.426V200.124C120.177 201.706 111.367 201.887 103.54 200.628C89.5846 198.392 81.1846 189.973 81.1846 172.352C81.1846 157.28 87.6997 145.631 102.072 145.631C111.663 145.631 119.217 152.471 122.682 156.006V136.313C117.367 134.932 110.723 133.971 104.596 133.971ZM152.523 152.057C135.557 152.814 121.903 165.172 121.903 183.733C121.903 206.314 142.519 215.456 154.176 215.456C171.912 215.456 186.404 202.867 186.404 183.733C186.404 164.572 171.913 152.057 154.176 152.057C153.624 152.057 153.07 152.033 152.523 152.057ZM363.785 153.204C364.889 161.982 364.889 169.127 364.889 183.593C364.889 198.078 364.889 205.21 363.785 213.986H384.814C384.144 207.34 384.168 203.762 384.168 199.339V188.829H389.037L397.665 206.594C399.549 210.434 400.095 211.775 400.972 213.986H424.616C422.077 210.658 418.868 205.23 413.323 195.717L407.633 185.892C418.051 182.395 421.634 175.854 421.634 169.734C421.634 163.439 418.071 158.945 411.211 155.96C406.008 153.754 399.921 153.305 389.038 153.206H363.785V153.204ZM187.964 153.252C189.07 162.047 189.066 169.19 189.066 183.735C189.066 198.25 189.07 205.442 187.964 214.261H203.71C203.041 207.587 203.021 204.002 203.021 199.572V173.633H203.25L222.758 214.629L224.916 214.858L244.84 174.414H245.071V199.572C245.071 204.002 245.048 207.587 244.386 214.261H264.765C263.658 205.442 263.661 198.25 263.661 183.735C263.661 169.19 263.658 162.047 264.765 153.252H241.264L226.205 185.343H225.974L211.24 153.252H187.964ZM288.638 153.252L290.704 159.13C277.186 194.245 272.667 204.342 267.245 214.261H283.633C284.39 210.839 285.518 207.067 287.628 202.284H308.332C310.315 206.991 312.198 211.943 312.645 214.261H334.821C333.167 211.169 330.706 206.921 325.5 194.016C313.878 165.135 312.569 161.62 310.352 153.252H288.638ZM337.345 153.252C338.462 162.047 338.491 169.19 338.491 183.735C338.491 198.25 338.462 205.442 337.345 214.261H358.874C357.763 205.442 357.774 198.25 357.774 183.735C357.774 169.19 357.763 162.047 358.874 153.252H337.345ZM154.177 161.884C161.499 161.884 164.92 169.712 164.92 183.735C164.92 197.74 161.497 205.631 154.177 205.631C146.87 205.631 143.435 197.74 143.435 183.735C143.433 169.712 146.869 161.884 154.177 161.884ZM388.075 162.754C396.36 162.654 400.793 166.149 400.793 170.738C400.793 175.343 396.362 178.823 388.075 178.729C386.733 178.729 384.949 178.577 384.174 178.405V163.071C384.947 162.913 386.733 162.754 388.075 162.754ZM298.371 173.908H298.601C300.047 177.842 303.8 188.205 305.026 192.226H291.392C292.616 188.208 296.6 177.842 298.371 173.908Z" fill="#ED1B2D"/>
</svg>
