<svg width="480" height="320" viewBox="0 0 480 320" fill="none" xmlns="http://www.w3.org/2000/svg">
<path d="M297.906 176.122C294.605 176.122 293.625 179.712 293.618 182.42C293.618 182.42 302.031 182.44 302.024 182.42C302.206 179.929 301.206 176.122 297.906 176.122ZM297.801 174.278C306.866 174.278 309.659 180.952 309.852 184.748H293.61C293.397 189.397 295.88 194.564 301.532 194.564C305.285 194.564 307.238 192.035 308.191 190.377L309.477 190.973C308.078 194.374 304.39 198.399 297.681 198.38C291.793 198.364 285.812 194.374 285.812 186.352C285.808 178.12 292.436 174.27 297.801 174.278ZM254.125 175.738C256.236 175.664 264.84 174.866 264.84 174.866L264.879 178.376C267.702 176.424 270.736 174.313 274.327 174.975C279.606 175.947 280.645 180.282 280.621 183.199V193.158C280.645 194.514 281.249 196.327 283.654 196.327V197.446H269.969V196.319C271.247 196.327 273.071 195.858 273.095 192.999V183.3C273.095 181.219 272.173 179.864 270.705 179.29C268.489 178.407 266.316 179.697 264.894 181.146C264.894 181.146 264.917 191.919 264.917 192.964C264.917 194.301 265.266 196.327 267.904 196.327V197.454H254.377V196.331C255.899 196.331 257.379 195.579 257.387 192.879C257.387 192.879 257.379 181.7 257.387 180.278C257.387 177.795 256.813 176.753 254.125 176.768M182.845 196.3C179.242 196.369 178.758 192.337 177.681 189.881L169.066 166.883L163.418 166.875L153.8 191.597C153.079 193.174 152.336 194.952 150.678 195.936C150.282 196.54 148.566 196.366 148.566 196.366L148.586 197.411L159.475 197.439L159.448 196.404C158.406 196.412 157.367 196.23 156.744 195.172C156.019 192.395 157.55 189.807 158.475 187.313H168.202L170.155 192.686C170.31 193.596 170.612 194.696 169.926 195.417C169.167 196.327 168.086 196.234 167.091 196.447V197.377L182.492 197.427M159.409 184.729L163.441 174.177L167.226 184.729H159.409ZM199.37 196.362C199.37 196.362 200.769 196.424 201.16 195.998C202.26 195.467 202.554 194.374 202.694 193.321L202.709 178.55C201.981 176.478 200.602 176.54 199.448 176.389C199.541 176.087 199.483 175.73 199.483 175.436L210.12 174.905L210.093 180.952C212.173 178.349 214.427 173.58 218.626 174.905L220.149 175.498C219.758 177.985 219.142 180.615 218.615 183.145C216.697 181.905 214.346 180.053 211.987 181.642C211.154 182.254 210.519 183.063 210.089 183.931V193.201C210.166 194.471 210.643 195.54 211.561 195.998C212.378 196.397 213.343 196.342 213.343 196.342L213.288 197.419L199.347 197.377" fill="#003399"/>
<path d="M182.915 196.3C185.127 196.3 185.805 195.034 185.805 191.989V180.073C185.805 179.558 185.906 178.001 185.026 177.184C184.399 176.618 183.411 176.452 182.559 176.424V175.375L193.223 174.879V192.032C193.223 196.049 194.928 196.304 196.396 196.304V197.432H182.524M220.099 196.32C221.462 196.262 223.57 195.979 223.57 192.671V170.695C223.57 168.549 222.931 167.306 220.099 167.507V166.388L231.236 165.501C231.236 165.501 231.201 187.406 231.236 192.62C231.255 195.754 232.685 196.343 234.548 196.335C234.532 196.343 234.548 197.463 234.548 197.463H220.099C220.099 197.455 220.083 196.308 220.099 196.32ZM237.318 196.285C239.51 196.285 240.451 195.053 240.451 192.008C240.432 186.895 240.451 180.174 240.451 180.174C240.432 179.682 240.529 178.113 239.661 177.331C239.01 176.746 238.03 176.568 237.178 176.568V175.533L247.831 175.03C247.831 175.03 247.858 188.828 247.831 192.051C247.831 196.045 249.574 196.293 250.996 196.293V197.428H237.314M243.907 172.4C246.223 172.4 248.094 170.583 248.094 168.344C248.094 166.12 246.223 164.311 243.907 164.311C241.621 164.311 239.75 166.12 239.75 168.344C239.746 170.583 241.621 172.4 243.907 172.4ZM189.38 172.4C191.689 172.4 193.56 170.583 193.56 168.344C193.56 166.12 191.689 164.311 189.38 164.311C187.099 164.311 185.216 166.12 185.216 168.344C185.22 170.583 187.099 172.4 189.38 172.4ZM313.978 189.498C315.702 188.921 315.098 191.156 316.028 191.807C317.918 194.584 320.808 197.083 324.356 196.3C325.158 195.944 326.111 195.429 326.529 194.557C326.967 193.337 326.599 191.966 325.727 191.121C321.854 188.15 314.68 188.619 314.129 182.247C313.932 179.798 314.924 177.718 316.795 176.242C320.207 173.624 325.731 174.282 329.535 175.561C330.752 175.909 331.065 174.224 332.212 174.565L332.475 181.576L331.468 181.642C330.531 179.248 328.176 176.8 325.704 176.056C324.48 175.716 322.869 175.828 321.761 176.351C321.021 176.808 320.331 177.563 320.347 178.501C320.293 179.551 320.878 180.453 321.784 181.003C326.219 182.843 333.39 183.796 333.603 190.234C333.723 192.617 332.688 194.608 330.879 196.099C327.323 199.376 321.218 198.257 317.108 196.936C316.419 196.843 315.733 197.157 315.458 197.815V197.955L314.505 198.032C314.219 195.266 314.044 192.388 313.978 189.498ZM71.8171 123.633C77.1512 123.641 78.5651 125.288 80.5717 125.288C82.0127 125.288 82.3071 124.153 82.4349 123.73L83.7985 123.711V134.925H82.1676C81.819 131.485 79.4405 126 73.0024 126.008C67.6334 126.016 64.0929 131.207 64.0929 138.571C64.12 146.872 68.0828 152.051 74.304 152.051C78.0073 152.051 81.513 149.599 83.4924 147.151L84.9567 147.887C82.4 152.574 77.5656 155.607 70.9648 155.607C61.4355 155.615 55.3848 148.588 55.3848 139.384C55.3848 131.578 61.1256 123.606 71.8171 123.633ZM101.013 133.585C97.0427 133.593 95.47 137.908 95.4506 143.513C95.4428 149.731 97.1434 153.473 101.029 153.48C104.775 153.488 106.545 149.413 106.545 143.513C106.549 137.784 104.972 133.577 101.013 133.585ZM101.013 131.516C110.264 131.478 114.893 137.606 114.92 143.506C114.92 150.304 108.962 155.607 101.118 155.607C92.5995 155.592 87.2887 150.188 87.3158 143.513C87.3274 137.459 92.6383 131.544 101.013 131.516ZM117.415 133.008C119.549 132.927 128.121 132.136 128.121 132.136L128.203 135.654C131.027 133.678 134.033 131.586 137.643 132.229C142.923 133.209 143.942 137.544 143.942 140.449V150.436C143.942 151.768 144.573 153.589 146.975 153.597V154.708H133.285V153.581C134.552 153.589 136.384 153.136 136.384 150.261C136.403 148.65 136.384 142.665 136.384 140.565C136.403 138.478 135.485 137.141 134.017 136.564C131.778 135.692 129.636 136.971 128.214 138.419C128.214 138.419 128.222 149.196 128.222 150.234C128.222 151.582 128.59 153.593 131.224 153.593V154.72H117.69V153.589C119.193 153.589 120.707 152.845 120.707 150.141V137.552C120.719 135.065 120.118 134.007 117.418 134.034L117.415 133.008ZM148.513 134.127C152.123 131.671 155.846 127.821 158.379 124.765H159.193V132.679H165.917V135.158H159.165C159.165 135.158 159.15 142.94 159.165 147.728C159.177 150.575 160.359 152.001 162.489 152.001C163.512 151.993 164.554 151.551 165.29 150.796L166.456 151.3C164.678 154.232 161.989 155.572 158.751 155.584C153.793 155.592 151.681 152.311 151.693 148.704C151.709 145.632 151.709 135.158 151.709 135.158H148.513V134.127ZM229.218 133.353C225.921 133.353 224.941 136.944 224.926 139.651H233.332C233.506 137.157 232.499 133.353 229.218 133.353ZM229.094 131.516C238.17 131.516 240.947 138.164 241.16 141.979H224.902C224.693 146.624 227.176 151.788 232.824 151.788C236.589 151.788 238.542 149.254 239.487 147.6L240.781 148.208C239.367 151.609 235.691 155.626 228.981 155.607C223.089 155.592 217.12 151.609 217.12 143.571C217.12 135.34 223.74 131.493 229.094 131.516ZM307.684 149.866L307.653 142.758C303.151 144.284 301.586 145.807 301.594 149.215C301.594 150.684 302.396 152.113 304.221 152.121C305.739 152.125 307.161 150.711 307.684 149.866ZM300.397 155.65C296.698 155.65 293.715 153.159 293.715 149.68C293.715 143.01 303.779 141.371 307.68 140.643C307.68 136.208 304.418 135.491 302.307 135.506C299.007 135.506 297.298 137.676 296.702 138.687L295.47 138.094C296.399 135.541 299.057 131.513 305.41 131.489C312.545 131.489 315.261 135.251 315.268 140.287C315.268 140.287 315.261 149.328 315.268 150.85C315.268 151.908 315.706 152.225 316.155 152.225C316.903 152.218 317.472 151.207 317.689 150.618L318.96 151.187C318.181 153.229 315.993 155.654 313.06 155.646C310.043 155.646 308.687 153.635 308.098 152.272C306.913 153.287 304.035 155.65 300.397 155.65ZM320.599 153.573C321.962 153.535 324.05 153.236 324.05 149.932C324.073 149.018 324.073 130.718 324.05 127.98C324.05 125.814 323.415 124.552 320.579 124.772V123.645L331.755 122.746C331.755 122.746 331.708 144.66 331.755 149.886C331.763 153.012 333.177 153.589 335.063 153.589V154.708H320.614C320.599 154.708 320.575 153.562 320.599 153.573ZM169.171 153.601C171.414 153.593 172.324 152.353 172.324 149.343V137.501C172.324 136.994 172.406 135.433 171.538 134.639C170.895 134.062 169.915 133.895 169.063 133.883V132.837L179.723 132.349C179.723 132.349 179.743 146.124 179.723 149.37C179.723 153.36 181.451 153.589 182.88 153.589V154.716H169.167L169.171 153.601ZM175.803 129.719C178.085 129.719 179.956 127.898 179.956 125.671C179.956 123.432 178.085 121.619 175.803 121.619C173.494 121.619 171.619 123.432 171.619 125.671C171.619 127.898 173.498 129.719 175.803 129.719ZM185.658 133C187.784 132.919 196.365 132.129 196.365 132.129L196.407 135.657C199.243 133.682 202.284 131.578 205.863 132.233C211.162 133.205 212.177 137.548 212.177 140.453C212.177 140.453 212.162 149.328 212.177 150.428C212.177 151.761 212.793 153.581 215.206 153.589C215.195 153.581 215.206 154.708 215.206 154.708H201.524V153.573C202.783 153.581 204.616 153.128 204.616 150.25C204.623 148.638 204.616 142.657 204.616 140.558C204.623 138.462 203.705 137.141 202.237 136.564C200.01 135.692 197.848 136.963 196.454 138.412V150.227C196.454 151.578 196.799 153.585 199.452 153.585L199.437 154.716H185.91V153.581C187.44 153.581 188.947 152.837 188.947 150.134V137.544C188.966 135.069 188.358 134.007 185.658 134.027V133ZM243.128 133C245.247 132.919 253.843 132.129 253.843 132.129L253.889 135.657C256.725 133.682 259.762 131.578 263.337 132.233C268.64 133.205 269.648 137.548 269.632 140.453V150.428C269.648 151.761 270.26 153.581 272.665 153.589V154.708H258.987V153.573C260.25 153.581 262.075 153.128 262.082 150.25V140.554C262.082 138.458 261.176 137.137 259.723 136.56C257.492 135.688 255.327 136.959 253.928 138.408V150.223C253.928 151.575 254.284 153.581 256.915 153.581V154.712H243.384V153.581C244.914 153.581 246.409 152.837 246.429 150.134C246.429 150.134 246.409 138.97 246.429 137.544C246.429 135.069 245.82 134.007 243.128 134.027V133ZM274.099 134.127C277.717 131.683 281.439 127.836 283.973 124.772H284.79V132.686H291.491V135.173H284.743C284.743 135.173 284.728 142.944 284.743 147.743C284.774 150.598 285.933 152.016 288.071 152.016C289.094 152.008 290.128 151.575 290.879 150.8L292.038 151.311C290.252 154.244 287.567 155.588 284.337 155.588C279.367 155.603 277.294 152.326 277.294 148.72C277.318 145.648 277.318 135.173 277.318 135.173H274.11V134.127H274.099ZM350.341 131.28C356.93 130.99 360.42 134.72 361.559 139.303C363.837 148.398 358.759 157.292 350.341 163.018L350.356 159.775C351.294 159.268 353.851 157.122 354.563 155.994C353.49 155.611 351.53 155.344 350.341 155.359V151.261C352.355 151.137 355.439 151.513 357.341 151.954C358.15 150.691 358.596 149.634 358.906 148.208C356.849 147.836 352.557 147.929 350.341 148.251V145.388C352.626 144.749 357.693 144.269 359.646 144.478C359.804 143.591 359.766 142.44 359.464 141.41C357.503 141.255 352.557 141.852 350.341 142.522V140.182C352.39 139.314 357.042 138.493 358.995 138.361C358.828 137.536 358.298 136.568 357.709 136.025C355.869 136.161 352.464 136.885 350.341 137.579V135.394C351.596 134.817 354.304 134.154 355.714 134.046C354.951 133.531 352.491 132.81 350.356 132.969" fill="#003399"/>
<path d="M355.907 130.331C371.123 127.515 378.015 134.255 373.878 150.691C370.058 164.203 361.97 173.291 350.356 180.252V173.132C351.023 173.694 351.89 174.805 352.506 175.774C353.785 175.135 355.524 173.91 356.426 172.93C355.505 171.594 352.1 168.239 350.36 167.197C350.345 167.213 350.345 166.322 350.36 166.272C351.925 165.435 354.679 163.393 355.884 161.821C357.837 162.677 361.695 165.838 362.559 166.984C363.941 165.598 365.576 163.289 366.289 161.763C364.732 160.414 361.726 158.671 359.525 157.889C360.73 156.626 361.962 154.53 362.512 153.047C364.41 153.481 367.92 154.503 369.547 155.452C370.349 154.031 370.976 152.132 371.387 150.095C369.744 149.436 366.355 148.824 364.17 148.596C364.464 147.682 364.685 145.369 364.616 144.42C367.114 144.366 370.554 144.722 372.402 145.156C372.65 144.056 372.75 142.758 372.545 141.418C370.387 141.096 366.804 140.891 364.383 141.069C364.352 140.066 364.027 138.567 363.651 137.862C365.58 137.54 369.508 137.505 371.762 137.765C371.414 136.688 370.992 135.588 369.992 134.778C368.42 134.635 364.801 134.805 362.562 135.204C362.14 134.391 361.42 133.535 360.657 133.023C362.117 132.586 365.096 132.28 366.738 132.373C365.398 131.687 362.888 131.052 358.999 131.559C357.558 130.633 355.907 130.331 355.907 130.331Z" fill="#003399"/>
<path d="M350.36 129.41C360.951 126.051 382.032 127.961 394.28 138.989C404.228 147.941 411.03 159.299 411.863 174.918C412.378 184.436 409.926 192.904 407.587 197.533H424.616V123.297H350.356" fill="#003399"/>
<path d="M382.175 139.555C380.792 138.943 378.65 138.311 376.976 138.222C377.294 139.261 377.437 140.539 377.476 141.883C379.173 142.112 382.113 142.921 383.589 143.572C384.154 145.292 384.185 146.803 384.17 148.499C382.527 147.558 379.479 146.342 377.302 145.947C377.24 147.461 376.899 149.634 376.364 151.277C378.603 151.997 381.912 153.675 383.422 154.759C383.143 157.018 382.357 159.555 381.241 161.678C379.568 160.202 376.248 158.126 374.091 157.211C373.478 159.195 371.638 162.968 370.376 164.498C372.258 165.625 375.377 168.406 376.593 169.909C375.179 172.4 373.575 174.38 371.759 175.894C370.813 174.155 368.385 170.971 366.669 169.615C365.297 171.885 362.032 175.22 359.808 176.626C361.315 178.122 363.418 181.035 364.34 182.716C363.07 184.017 360.722 185.675 358.793 186.671C358.073 184.378 356.918 181.968 355.625 179.989C354.369 181.283 352.332 182.356 350.337 183.398V193.791C363.887 188.871 381.493 174.81 385.677 155.766C387.703 146.493 385.669 140.888 383.732 137.827C380.591 132.822 374.796 131.831 372.192 131.447C373.296 132.032 374.858 133.438 375.644 134.67C379.92 135.453 381.451 138.052 382.175 139.555Z" fill="#003399"/>
<path d="M350.341 197.482V196.615C354.629 195.301 359.661 192.571 361.78 190.719C362.535 192.505 363.287 195.456 363.504 197.145C365.425 195.964 367.749 194.395 369.33 192.52C368.869 191.009 367.916 188.956 366.955 187.488C369.733 185.621 373.32 182.185 375.435 179.524C376.291 180.86 377.325 183.181 377.864 184.951C379.952 183.219 382.539 180.093 383.802 177.955C383.016 176.498 381.691 174.767 380.285 173.45C382.373 170.944 384.612 166.59 385.278 164.347C386.475 165.025 388.54 167.329 389.303 168.492C390.779 165.78 391.685 162.921 392.161 159.807C391.216 158.695 389.543 157.347 388.001 156.653C388.501 154.895 389.024 151.939 388.9 150.006C390.225 150.576 392.053 151.92 392.948 152.904C393.184 150.92 392.979 148.987 392.464 147.039C391.615 146.171 389.717 145.044 388.567 144.715C388.447 143.425 387.924 141.809 387.494 140.953C388.447 141.155 390.329 142.309 391.05 142.929C390.329 141.155 388.311 139.412 386.773 138.823C386.312 138.002 385.425 136.638 384.592 135.855C393.18 138.753 394.195 144.846 394.83 147.264C396.252 156.471 394.331 164.672 390.225 172.617C385.018 182.673 378.611 188.476 367.521 197.479" fill="#003399"/>
<path d="M371.554 197.522C375.497 194.907 378.189 192.544 380.692 189.36C381.501 191.176 381.924 194.632 381.924 194.632C383.748 193.09 387.529 188.988 388.799 186.718C388.42 185.467 387.552 183.503 386.847 182.604C389.33 180.132 391.802 175.62 392.689 172.621C393.711 173.629 394.73 175.438 395.118 176.611C396.698 173.671 398.182 170.107 398.863 166.16C398.317 165.002 397.418 163.716 396.419 162.72C397.132 160.679 397.531 157.746 397.449 155.348C398.205 155.926 399.553 157.603 400.227 158.796C400.204 154.682 399.789 152.033 397.322 149.832C397.283 148.608 396.907 146.575 396.148 144.982C399.785 148.066 402.989 152.16 402.086 161.329C400.696 175.151 392.561 188.345 382.946 197.522M398.034 197.533C400.053 195.678 401.083 193.834 402.21 191.444C402.687 192.606 402.915 194.008 402.981 195.561C403.585 193.814 406.824 188.48 406.758 181C407.87 177.343 408.521 173.365 408.71 170.262C409.822 175.627 409.822 187.504 404.589 197.537" fill="#003399"/>
<path d="M405.17 165.164C405.414 163.727 405.088 161.399 404.05 159.861C404.104 158.768 403.845 156.084 403.62 154.902C405.77 157.842 407.591 161.131 406.874 168.848C405.669 179.322 402.516 189.847 394.498 197.533H391.387C391.457 196.645 391.317 194.302 390.841 192.745C393.827 189.665 397.058 184.575 398.278 180.86C399.127 182.561 399.557 184.168 399.793 186.225C401.865 182.456 403.477 176.99 403.938 173.26C403.643 172.098 403.097 170.936 402.516 170.08C403.244 168.24 403.872 164.753 403.888 162.847C404.391 163.363 404.918 164.525 405.17 165.164Z" fill="#003399"/>
</svg>
