<svg width="480" height="320" viewBox="0 0 480 320" fill="none" xmlns="http://www.w3.org/2000/svg">
<path d="M146.642 157.691C146.161 151.765 144.305 146.217 141.487 141.336H73.2201C70.4018 146.217 68.6142 151.765 68.0645 157.691H146.642ZM140.868 140.353C137.705 135.162 133.306 130.77 128.081 127.559H86.6262C81.4015 130.77 77.0018 135.162 73.8389 140.36L140.868 140.353ZM126.431 126.597C120.793 123.434 114.263 121.646 107.388 121.646C100.444 121.646 93.9135 123.434 88.276 126.597H126.431" fill="#018BC8"/>
<path d="M146.642 161.018C146.161 166.937 144.305 172.484 141.487 177.373H73.2201C70.4018 172.484 68.6142 166.937 68.0645 161.018H146.642ZM140.868 178.349C137.705 183.545 133.306 187.939 128.081 191.156H86.6262C81.4015 187.939 77.0016 183.545 73.8389 178.349H140.868ZM126.431 192.139C120.793 195.274 114.263 197.062 107.388 197.062C100.444 197.062 93.9135 195.274 88.276 192.139H126.431" fill="#00982D"/>
<path d="M183.422 153.251C183.353 152.88 183.079 151.828 182.528 150.914C181.704 149.635 179.16 147.187 175.516 147.187C172.285 147.187 169.879 148.886 168.916 149.806C167.198 151.388 165.341 154.433 165.341 159.59C165.341 160.662 165.548 166.8 169.397 170.107C170.086 170.678 171.941 172.851 175.516 172.851C180.054 172.851 182.185 170.39 182.941 168.856C183.353 168.038 183.698 166.671 183.766 166.1H190.984C190.984 166.918 190.984 170.452 187.891 173.662C185.829 175.862 182.116 178.845 175.379 178.845C173.385 178.845 168.435 178.405 164.104 174.472C161.63 172.28 158.123 167.654 158.192 159.74C158.192 157.341 158.88 153.196 159.842 150.996C163.555 142.622 171.666 141.316 175.379 141.316C183.422 141.316 187.135 145.083 188.853 147.999C190.091 150.192 190.435 152.343 190.572 153.271L183.422 153.251ZM216.559 153.759C219.583 156.365 221.027 160.503 221.027 164.437C221.027 170.308 217.933 175.821 212.296 177.704C211.334 178.068 209.821 178.474 207.416 178.474C206.453 178.474 204.322 178.42 201.984 177.553C196.622 175.463 194.009 170.252 194.009 164.635C194.009 159.582 196.072 156.365 197.378 154.832C198.959 153.148 202.122 150.7 207.622 150.7C209.134 150.749 213.121 150.852 216.559 153.759ZM200.747 164.677C200.747 171.249 204.322 173.216 207.552 173.216C208.034 173.216 209.341 173.16 210.646 172.542C212.571 171.53 214.358 169.165 214.358 164.45C214.358 163.948 214.358 162.092 213.809 160.462C213.258 159.005 211.815 155.973 207.552 156.028C204.39 156.083 200.747 157.94 200.747 164.677ZM231.202 151.312V154.365C231.27 154.31 231.202 154.633 231.408 154.433C232.646 153.113 234.914 150.741 239.108 150.741C240.345 150.741 243.988 151.167 246.325 154.536C248.044 157.039 247.975 159.995 247.975 162.855V177.766H241.239V164.34C241.239 161.17 241.17 159.238 239.795 157.761C239.382 157.28 238.007 156.475 236.496 156.475C234.983 156.475 233.952 156.887 232.989 157.74C231.339 159.129 231.202 161.219 231.202 164.388V177.766H224.533V151.312H231.202ZM331.779 142.444V151.312H336.592V155.746H331.779V166.993C331.779 166.993 331.71 168.987 331.779 170.004C331.849 170.568 331.849 171.751 332.397 172.109C333.017 172.514 333.773 172.734 335.217 172.734H337.073V177.766H333.154C332.536 177.766 331.916 177.841 331.298 177.718C330.405 177.54 327.517 177.766 326.142 174.961C325.454 173.531 325.386 172.205 325.317 169.242V155.746H321.33V151.312H325.317V142.444H331.779M260.145 142.444V151.312H264.956V155.746H260.145V166.993C260.145 166.993 260.076 168.987 260.145 170.004C260.213 170.568 260.213 171.751 260.763 172.109C261.381 172.514 262.138 172.734 263.582 172.734H265.438V177.766H261.587C260.9 177.766 260.282 177.841 259.664 177.718C258.769 177.54 255.882 177.766 254.576 174.961C253.82 173.531 253.75 172.205 253.75 169.242V155.746H249.763V151.312H253.75V142.444H260.145M292.044 172.555V174.652C292.044 174.804 292.044 175.669 292.25 176.289C292.456 176.948 292.456 177.203 292.868 177.766H286.405C286.199 177.1 286.062 175.952 285.924 175.291C285.924 175.414 285.718 175.098 285.375 175.394C283.312 177.285 280.357 178.096 277.538 178.096C273.344 178.096 267.776 175.649 267.776 169.976C267.776 168.705 268.188 165.941 271.076 164.023C273.413 162.504 276.643 161.892 279.256 161.487L281.319 161.239C281.868 161.184 283.037 160.971 283.518 160.779C284.962 160.256 285.237 160.071 285.237 158.531C285.237 157.238 284.274 156.523 283.656 156.118C282.625 155.451 281.25 155.43 281.113 155.43C280.838 155.43 279.806 155.423 279.05 155.581C275.681 156.241 275.681 158.812 275.613 159.225L269.426 159.239C269.426 158.723 269.494 157.197 269.907 156.076C270.731 153.876 271.969 153.051 272.795 152.494C274.375 151.367 276.988 150.542 281.181 150.542C287.918 150.542 290.806 153.574 291.63 156.578C292.044 157.926 292.044 158.929 292.044 160.353V172.555V172.555ZM285.443 164.161C284.137 164.772 283.45 164.896 282.143 165.206C280.975 165.515 279.669 165.763 278.501 166.134C277.606 166.375 276.506 166.746 275.75 167.302C274.994 167.922 274.581 168.781 274.581 169.832C274.581 170.753 274.994 171.311 275.132 171.62C275.75 172.418 276.713 173.098 278.638 173.098C279.6 173.098 282.419 173.229 284.48 170.899C285.031 170.328 285.443 169.564 285.443 168.313V164.161ZM313.012 159.974C313.012 160.524 312.806 159.665 312.461 159.012C312.118 158.152 310.88 155.925 307.718 155.925C304.969 155.925 303.592 157.547 303.111 158.304C302.012 160.05 301.531 163.302 301.531 163.858C301.531 169.914 304.693 172.974 307.581 172.974C311.98 172.974 312.53 170.637 312.942 169.929C313.287 169.42 313.287 168.856 313.424 168.224L319.542 168.19C319.542 168.19 319.474 169.97 319.199 170.733C317.755 174.542 315.28 176.246 314.043 176.899C312.942 177.457 310.33 178.22 307.306 178.22C303.043 178.165 300.774 176.439 299.4 175.229C295.137 171.586 294.931 166.087 294.931 164.47C294.931 163.557 294.999 161.383 295.755 158.957C296.787 155.877 299.95 150.57 307.718 150.57C309.918 150.57 311.293 150.955 312.118 151.223C315.693 152.302 318.854 156.227 319.199 159.974H313.012ZM373.097 142.065L385.196 177.766H377.84L375.434 169.901L362.234 169.937L359.966 177.766H352.747L365.259 142.065H373.097ZM373.921 164.855L368.972 148.933L364.022 164.855H373.921ZM387.672 141.722H394.271V147.73H387.672V141.722ZM387.672 151.402H394.271V177.766H387.672V151.402ZM406.164 151.326V154.254C406.164 154.254 406.095 154.66 406.921 153.615C409.395 150.432 411.733 150.872 414.619 150.872L414.688 156.613C414.482 156.564 413.795 156.675 413.108 156.675C412.488 156.675 410.702 156.798 408.982 157.96C405.889 160.174 406.439 163.501 406.439 169.729V177.766H399.632V151.312L406.164 151.326Z" fill="#0D294D"/>
</svg>
