<svg width="480" height="320" viewBox="0 0 480 320" fill="none" xmlns="http://www.w3.org/2000/svg">
<path d="M404.939 185.42C401.343 184.387 396.938 184.32 392.202 185.223C387.315 186.153 382.196 188.108 377.386 190.869C376.656 191.287 375.938 191.726 375.232 192.183H413.246C413.127 191.9 412.998 191.622 412.857 191.349C411.355 188.529 408.612 186.477 404.939 185.42H404.939Z" fill="#0060A9"/>
<path d="M414.706 182.122C412.896 178.722 409.599 176.251 405.172 174.982C400.846 173.732 395.543 173.65 389.838 174.739C383.965 175.858 377.801 178.208 372.017 181.536C367.653 184.044 363.675 186.995 360.255 190.251V192.184H373.043C374.532 191.006 376.117 189.896 377.787 188.851C383.781 185.092 390.435 182.564 396.527 181.726C402.558 180.896 407.75 181.757 411.147 184.159C413.811 186.037 415.299 188.761 415.583 192.184H416.033L416.195 190.567C416.515 187.42 416.01 184.578 414.706 182.122ZM361.641 163.877C361.175 164.149 360.712 164.417 360.255 164.694V170.106C373.429 160.477 387.687 157.125 399.429 156.368C389.536 153.52 375.288 156.03 361.641 163.877Z" fill="#0060A9"/>
<path d="M405.248 157.622C405.719 158.016 406.175 158.432 406.602 158.877C406.602 158.877 409.729 162.116 410.763 165.179L409.76 163.597C408.174 161.095 405.903 159.155 403.099 157.778C390.374 158.837 374.207 162.792 360.255 174.312V175.182C363.979 172.21 367.996 169.624 372.243 167.463C376.761 165.166 381.324 163.466 385.81 162.412C390.322 161.351 394.542 160.986 398.364 161.332C405.707 161.993 410.972 165.207 413.599 170.634C413.599 170.634 415.611 174.71 415.788 178.851L415.224 176.492C414.929 175.275 414.494 174.109 413.915 173.029C411.911 169.267 408.265 166.528 403.364 165.125C398.576 163.748 392.711 163.656 386.403 164.857C379.894 166.1 373.075 168.697 366.682 172.378C364.464 173.646 362.319 175.037 360.255 176.543V189.275C362.506 186.932 365.024 184.716 367.794 182.662C371.871 179.627 376.287 177.078 380.954 175.066C390.293 171.042 399.432 169.786 406.023 171.604C412.13 173.297 415.768 177.506 416.546 183.779C416.546 183.779 416.964 187.787 416.164 192.183H424.616V158.456C422.348 158.076 414.968 157.031 405.248 157.622ZM372.77 145.477C368.671 146.179 364.424 147.498 360.255 149.351V150.955C365.835 148.054 371.439 146.167 376.773 144.982C375.47 145.077 374.136 145.24 372.77 145.477H372.77Z" fill="#0060A9"/>
<path d="M360.255 127.814V144.98C360.255 144.98 367.495 142.481 375.184 143.648L372.12 143.766C368.355 143.907 364.303 144.777 360.255 146.28V148.186C366.559 145.288 373.971 143.821 380.409 144.272C396.53 141.542 409.367 144.871 409.367 144.871C406.864 144.451 397.003 143.065 384.848 144.902C385.997 145.168 387.824 145.713 389.673 146.792L388.171 146.255C386.7 145.732 385.099 145.36 383.396 145.136C376.076 146.384 368.022 148.826 360.255 153.344V154.294C371.957 147.902 384.547 145.51 393.678 148.794C408.3 147.74 419.06 150.717 419.06 150.717C416.605 150.303 407.871 149.067 396.617 150.116C397.247 150.467 399.986 152.066 401.149 153.703L400.482 153.164C398.96 151.946 397.18 150.977 395.194 150.256C384.581 151.413 371.937 154.642 360.255 162.424V163.305C361.26 162.652 362.28 162.023 363.315 161.419C371.664 156.533 380.479 153.549 388.135 153.019C394.151 152.603 399.308 153.698 403.295 156.204C415.395 155.962 424.045 158.293 424.615 158.451V127.814H360.255Z" fill="#0060A9"/>
<path d="M360.255 155.471V158.982C370.552 152.855 381.186 150.101 390.534 149.082C381.959 147.727 370.949 149.939 360.255 155.471ZM190.068 142.587H198.163C199.575 145.622 211.216 170.737 211.216 170.737H203.83L200.775 164.17H187.363L184.396 170.742H176.968L190.068 142.587ZM198.458 159.031L194.115 149.387L189.723 159.031H198.458ZM285.693 148.882C280.995 148.882 278.724 151.346 278.724 151.346L278.335 149.312H272.024C272.262 150.073 272.692 151.508 272.692 152.753V170.744H278.931V158.299C278.931 154.915 280.996 153.187 285.694 153.187C288.273 153.187 289.841 154.044 289.841 158.299V170.743H296.081V158.299C296.081 151.895 294.016 148.882 285.693 148.882H285.693ZM313.764 148.949C303.138 148.949 300.766 153.941 300.766 160.045C300.766 166.203 303.083 171.193 314.284 171.193C318.384 171.193 322.202 170.433 323.079 170.247C323.296 168.825 323.511 167.403 323.725 165.981C323.136 166.042 318.284 166.932 314.284 166.932C309.091 166.932 307.684 164.957 307.266 162.2H325.25V160.043C325.249 152.346 321.151 148.949 313.764 148.949ZM307.264 157.89C307.631 155.226 308.829 153.21 313.764 153.21C317.393 153.21 318.699 155.535 318.905 157.89H307.264ZM102.837 148.932C95.0329 148.932 89.8327 152.373 89.8327 160.071C89.8327 167.823 95.0329 171.217 102.837 171.217C110.641 171.217 115.835 167.822 115.835 160.071C115.836 152.372 110.642 148.932 102.837 148.932ZM102.837 166.961C97.6186 166.961 96.0772 164.377 96.0772 160.071C96.0772 155.825 97.6186 153.236 102.837 153.236C108.034 153.236 109.597 155.824 109.597 160.071C109.597 164.377 108.034 166.961 102.837 166.961ZM172.29 155.776C172.29 151.462 167.663 148.882 160.854 148.882C157.346 148.882 153.027 150.245 151.538 150.754C151.395 151.665 150.949 154.497 150.861 155.091C152.219 154.792 157.544 153.187 160.854 153.187C164.273 153.187 166.046 154.352 166.046 156.033V157.869C166.046 157.869 161.846 157.442 160.334 157.442C153.524 157.442 149.405 159.888 149.405 164.329C149.405 169.932 155.609 171.169 158.764 171.169C163.041 171.169 165.267 170.019 166.31 169.069L166.668 170.744H172.931C172.851 170.412 172.289 168.924 172.289 166.913L172.29 155.776ZM166.046 162.607C166.046 166.568 162.268 166.913 158.764 166.913C157.57 166.913 155.662 166.659 155.662 164.329C155.662 162.781 157.775 161.748 160.334 161.748H166.046V162.607ZM72.4192 141.754C79.7373 141.749 84.3028 144.056 86.823 147.715L80.2787 150.231C78.8599 148.247 76.4825 146.92 72.5097 146.897H72.3377C68.428 146.916 66.0787 148.162 64.6484 150.07C63.3964 151.754 62.7077 153.904 62.7077 156.343V156.755H62.7047C62.7312 159.091 63.4179 161.321 64.6484 162.962C66.0771 164.868 68.4271 166.107 72.3329 166.128L72.5061 166.123C76.4134 166.107 78.7787 164.831 80.2036 162.9L86.8224 165.426C84.2895 169.017 79.6826 171.217 72.4518 171.217H72.4143C65.9821 171.22 61.6556 169.516 59.0108 166.594C56.6089 163.979 55.3833 160.473 55.3848 156.606V156.344C55.3833 152.563 56.6138 149.05 59.0111 146.438C61.6559 143.526 65.976 141.752 72.4195 141.754H72.4192ZM253.957 167.35V142.6H247.709V167.35C247.709 168.858 248.233 170.384 248.363 170.744H254.612C254.515 170.389 253.957 168.93 253.957 167.35H253.957ZM233.086 158.247C233.11 154.934 235.535 153.187 239.844 153.187C240.555 153.187 243.381 153.558 244.596 153.702C244.524 153.153 244.092 150.473 243.913 149.391C243.027 149.226 241.033 148.883 239.844 148.883C236.186 148.883 234.129 150.22 232.979 151.246L232.449 149.313H226.182C226.3 149.747 226.831 151.2 226.841 152.704V170.739H233.084V158.247H233.086ZM133.528 148.907C129.623 148.907 126.607 151.19 126.607 151.19C126.607 151.19 126.273 149.92 126.139 149.34H119.857C120.081 150.108 120.516 151.61 120.516 153.213V177.564H126.761V169.095C128.01 170.006 130.356 171.194 133.528 171.194C143.986 171.194 145.497 166.208 145.497 160.049C145.497 153.948 143.986 148.907 133.528 148.907ZM133.528 166.938C128.214 166.938 126.761 163.923 126.761 160.05C126.862 155.923 128.213 153.214 133.528 153.214C138.32 153.214 139.259 156.225 139.259 160.05C139.259 163.923 138.32 166.938 133.528 166.938ZM347.762 150.027V154.883C346.537 154.229 345.262 153.73 343.939 153.396C342.635 153.064 341.296 152.895 339.951 152.894C338.47 152.894 337.349 153.073 336.588 153.433C335.837 153.794 335.456 154.328 335.456 155.038C335.456 156.049 337.076 156.874 340.316 157.504L340.568 157.564L342.471 157.944C344.896 158.427 346.67 159.198 347.796 160.268C348.923 161.337 349.485 162.787 349.485 164.597C349.485 166.79 348.632 168.437 346.909 169.529C345.192 170.621 342.606 171.173 339.158 171.173C337.629 171.173 336.06 171.06 334.457 170.836C332.811 170.61 331.181 170.279 329.577 169.844V164.981C331.013 165.667 332.517 166.201 334.064 166.575C335.583 166.95 337.052 167.133 338.476 167.133C340.034 167.133 341.213 166.94 342.02 166.558C342.823 166.175 343.221 165.63 343.221 164.905C343.221 164.201 342.936 163.656 342.37 163.271C341.803 162.892 340.45 162.489 338.316 162.058L336.479 161.717C333.936 161.243 332.082 160.485 330.912 159.462C329.752 158.439 329.166 157.059 329.166 155.342C329.166 153.293 330.049 151.697 331.825 150.557C333.594 149.418 336.085 148.85 339.293 148.85C340.733 148.85 342.165 148.949 343.597 149.14C345.005 149.334 346.397 149.63 347.762 150.027V150.027ZM266.445 167.35V149.3H260.202V167.35C260.202 168.949 260.796 170.524 260.881 170.744H267.104C266.993 170.34 266.445 168.889 266.445 167.35H266.445ZM263.303 147.663C264.659 147.663 265.58 147.479 266.085 147.107C266.585 146.736 266.832 146.062 266.832 145.093C266.832 144.16 266.59 143.508 266.11 143.142C265.621 142.782 264.706 142.596 263.355 142.596C261.979 142.596 261.052 142.784 260.56 143.162C260.073 143.539 259.825 144.216 259.825 145.188C259.825 146.122 260.065 146.766 260.533 147.123C261.012 147.481 261.933 147.663 263.303 147.663ZM220.586 167.35V149.3H214.344V167.35C214.344 168.949 214.937 170.524 215.025 170.744H221.246C221.135 170.34 220.586 168.889 220.586 167.35H220.586ZM217.448 147.663C218.8 147.663 219.724 147.479 220.227 147.107C220.726 146.736 220.977 146.062 220.977 145.093C220.977 144.16 220.734 143.508 220.255 143.142C219.759 142.782 218.851 142.596 217.498 142.596C216.122 142.596 215.196 142.784 214.701 143.162C214.216 143.539 213.967 144.216 213.967 145.188C213.967 146.122 214.204 146.766 214.673 147.123C215.156 147.481 216.077 147.663 217.448 147.663Z" fill="#0060A9"/>
</svg>
