<svg width="480" height="320" viewBox="0 0 480 320" fill="none" xmlns="http://www.w3.org/2000/svg">
<path d="M146.384 130.033C146.403 130.033 146.418 130.023 146.434 130.021C146.459 130.021 146.481 130.03 146.508 130.028C153.018 129.316 159.486 123.502 158.455 116.579C157.521 110.307 151.819 106.297 145.727 107.108C142.236 107.571 138.105 109.708 136.337 112.871C134.721 115.762 134.44 119.197 135.104 122.4C136.209 127.716 141.273 130.171 146.384 130.033Z" fill="#FABC27"/>
<path d="M70.0588 159.591C70.7894 153.134 66.0636 150.155 61.6614 149.04C57.823 148.103 54.6318 147.652 55.541 144.667C55.5844 144.565 55.6345 144.46 55.6812 144.351C57.0824 141.389 60.5521 139.832 65.1829 138.594C65.8234 138.429 66.484 138.264 67.1729 138.101C71.5601 137.098 76.6897 136.713 81.6707 135.827C83.8776 135.432 86.0261 134.946 88.0196 134.256C92.6286 132.231 95.5996 127.78 97.4713 123.259C98.2736 121.409 98.8792 119.544 99.3096 117.816C99.9902 115.099 100.521 112.723 101.366 110.955C102.217 109.377 103.381 108.315 105.276 108.053C108.961 107.641 110.429 111.663 111.629 117.474C112.997 124.16 112.805 133.567 116.054 139.33C117.804 141.672 121.105 142.515 125.099 142.506C129.816 142.483 135.39 141.274 140.401 139.796C146.663 137.939 152.124 136.259 155.579 136.569C157.379 136.731 158.662 137.433 159.286 138.95C159.439 139.369 159.509 139.789 159.501 140.216C158.757 143.842 152.48 148.066 144.409 152.942C134.254 159.054 121.397 164.544 116.169 170.785C115.267 171.989 114.74 173.307 114.528 174.71C113.068 180.843 118.069 188.865 123.788 195.388C129.286 201.61 134.382 206.931 134.167 210.423C133.948 211.123 133.453 211.736 132.647 212.256C131.79 212.81 130.762 213.03 129.605 212.992C125.04 212.835 118.266 208.504 110.79 203.021C101.416 196.138 92.5836 186.762 85.5141 183.878C84.8618 183.663 84.2179 183.534 83.584 183.519C78.3711 183.359 73.7938 189.611 70.8979 195.728C68.2489 201.361 66.3121 206.242 64.0519 205.805C63.5997 205.71 63.1411 205.417 62.6573 204.865C61.4162 203.433 60.9992 200.963 61.1226 197.785C61.281 194.671 61.9467 190.936 62.8408 186.837C64.5372 179.147 67.7084 170.769 69.2347 163.957C69.6034 162.417 69.8953 160.954 70.0588 159.591Z" fill="#34BDE6"/>
<path d="M170.938 183.719C169.86 186.028 167.859 187.028 166.089 187.028C164.319 187.028 162.703 185.797 163.009 183.642L164.858 170.864C165.165 168.632 167.09 167.476 168.936 167.476C170.553 167.476 172.169 168.554 172.324 170.864L183.716 167.476C182.562 158.932 175.864 156.547 170.476 156.547C162.394 156.547 153.541 160.627 152.157 170.402L150.308 183.41C148.924 193.11 156.544 197.96 164.626 197.96C170.014 197.96 177.712 195.189 181.791 186.26L170.938 183.719ZM184.639 183.872C183.331 193.187 190.797 197.96 198.879 197.96C207.038 197.96 215.891 193.264 217.201 183.872L218.97 171.25C220.357 161.396 212.888 156.623 204.806 156.547C196.647 156.623 187.795 161.396 186.41 171.25L184.639 183.872ZM203.036 168.094C204.576 168.094 206.346 169.171 206.116 171.018L204.344 184.028C204.037 186.183 202.112 187.028 200.419 187.028C198.726 187.028 197.186 185.874 197.416 184.028L199.188 171.018C199.418 169.171 201.497 168.094 203.036 168.094ZM240.831 156.547C231.21 156.547 224.05 161.242 222.589 172.095L219.124 197.189H232.134L235.597 172.249C236.212 167.862 242.371 167.169 245.834 168.4L247.374 157.548C244.141 156.7 242.217 156.547 240.831 156.547ZM258.458 182.256C267.695 184.334 277.934 180.563 279.319 171.171C280.781 161.396 274.316 156.547 266.079 156.547C257.843 156.547 248.99 161.781 247.606 171.788L245.987 183.18C244.603 192.879 252.146 197.96 260.152 197.96C264.771 197.96 270.235 197.112 275.779 191.494L269.543 185.182C265.848 188.645 257.611 188.261 258.458 182.256ZM260.228 170.787C260.537 168.554 262.692 167.246 264.539 167.246C267.003 167.246 267.927 169.093 267.618 170.941C267.156 174.943 262.846 175.944 259.69 174.559L260.228 170.787ZM278.78 197.189H291.788L295.868 168.4C296.637 168.094 297.638 167.938 298.562 167.938C300.564 167.938 302.334 168.786 301.948 171.633L298.33 197.189H311.263L314.88 171.557C316.419 160.548 308.799 156.547 299.178 156.547C294.02 156.547 288.555 157.778 284.091 159.78L278.78 197.189ZM355.524 142.691H342.437L340.436 157.316C338.819 156.777 337.049 156.547 335.356 156.547C327.658 156.547 320.191 161.011 318.96 169.94L317.035 183.565C315.495 194.418 322.885 197.96 331.276 197.96C337.126 197.96 343.206 196.42 348.211 194.572L355.524 142.691ZM336.125 187.491C335.356 187.722 334.509 187.876 333.663 187.876C331.506 187.876 329.429 186.952 329.736 184.643L331.738 170.787C332.123 168.324 334.432 167.323 336.434 167.323C337.435 167.323 338.28 167.476 338.896 167.785L336.125 187.491ZM353.676 183.872C352.368 193.187 359.834 197.96 367.917 197.96C376.075 197.96 384.928 193.264 386.236 183.872L388.008 171.25C389.392 161.396 381.926 156.623 373.843 156.547C365.685 156.623 356.832 161.396 355.446 171.25L353.676 183.872ZM372.074 168.094C373.612 168.094 375.383 169.171 375.151 171.018L373.381 184.028C373.073 186.183 371.149 187.028 369.456 187.028C367.761 187.028 366.223 185.874 366.454 184.028L368.223 171.018C368.455 169.171 370.534 168.094 372.074 168.094ZM388.315 197.189H401.323L405.403 168.4C406.174 168.094 407.173 167.938 408.097 167.938C410.099 167.938 411.869 168.786 411.485 171.633L407.867 197.189H420.798L424.416 171.557C425.956 160.548 418.334 156.547 408.712 156.547C403.556 156.547 398.09 157.778 393.626 159.78L388.315 197.189Z" fill="#EB2629"/>
</svg>
