<svg width="480" height="320" viewBox="0 0 480 320" fill="none" xmlns="http://www.w3.org/2000/svg">
<path d="M146.392 127.121H146.491C152.988 126.426 159.485 120.574 158.444 113.681C157.501 107.382 151.798 103.415 145.698 104.208C142.226 104.654 138.06 106.787 136.325 109.961C134.688 112.837 134.44 116.309 135.085 119.483C136.225 124.79 141.284 127.269 146.392 127.121Z" fill="#EB2227"/>
<path d="M70.0676 156.679C70.8115 150.232 66.0505 147.256 61.6862 146.116C57.8179 145.223 54.6438 144.727 55.5365 141.751L55.6853 141.454C57.0739 138.478 60.5455 136.941 65.2074 135.701C65.8521 135.552 66.4968 135.354 67.1911 135.205C71.5554 134.213 76.7132 133.816 81.6726 132.924C83.9044 132.527 86.0369 132.031 88.0207 131.337C92.6329 129.303 95.6086 124.84 97.4932 120.327C98.2867 118.492 98.8818 116.607 99.3281 114.871C100.022 112.144 100.518 109.763 101.362 108.027C102.205 106.44 103.395 105.399 105.279 105.101C108.949 104.704 110.437 108.722 111.627 114.524C113.016 121.219 112.818 130.642 116.041 136.395C117.777 138.726 121.1 139.569 125.067 139.569C129.779 139.569 135.383 138.329 140.392 136.841C146.641 135.006 152.096 133.32 155.568 133.618C157.353 133.767 158.643 134.461 159.287 135.998C159.436 136.395 159.486 136.841 159.486 137.288C158.742 140.908 152.443 145.124 144.409 150.033C134.242 156.134 121.398 161.639 116.19 167.887C115.297 169.078 114.752 170.417 114.554 171.805C113.115 177.955 118.075 185.94 123.828 192.486C129.333 198.735 134.441 204.041 134.193 207.513C133.994 208.207 133.498 208.852 132.655 209.348C131.812 209.894 130.771 210.142 129.63 210.092C125.067 209.943 118.273 205.629 110.834 200.124C101.461 193.23 92.6329 183.857 85.541 180.98C84.8963 180.782 84.2515 180.633 83.6068 180.633C78.3994 180.484 73.8368 186.733 70.9107 192.833C68.2822 198.487 66.2985 203.347 64.0667 202.901C63.6204 202.802 63.174 202.504 62.6781 201.959C61.4382 200.52 61.0415 198.041 61.1407 194.867C61.2894 191.742 61.9838 188.023 62.8765 183.906C64.5627 176.219 67.7367 167.838 69.2741 161.043C69.6213 159.506 69.9188 158.068 70.0676 156.679ZM388.363 194.271H401.356L405.423 165.457C406.217 165.16 407.208 165.011 408.101 165.011C410.085 165.011 411.87 165.854 411.474 168.73L407.853 194.271H420.797L424.418 168.631C425.955 157.621 418.318 153.604 408.696 153.604C403.539 153.604 398.083 154.844 393.62 156.828L388.363 194.271ZM372.096 165.209C373.633 165.209 375.419 166.3 375.171 168.135L373.385 181.129C373.088 183.262 371.154 184.154 369.467 184.154C367.781 184.154 366.244 183.014 366.492 181.129L368.277 168.135C368.475 166.251 370.558 165.209 372.096 165.209ZM353.696 180.98C352.407 190.304 359.846 195.065 367.93 195.065C376.113 195.065 384.941 190.354 386.23 180.98L388.016 168.383C389.404 158.514 381.915 153.753 373.832 153.703C365.649 153.803 356.821 158.564 355.432 168.383L353.696 180.98ZM336.14 184.601C335.396 184.849 334.504 184.997 333.66 184.997C331.528 184.997 329.445 184.055 329.742 181.774L331.726 167.937C332.123 165.457 334.404 164.465 336.438 164.465C337.43 164.465 338.273 164.614 338.917 164.912L336.14 184.601ZM355.581 139.768H342.488L340.504 154.398C338.868 153.852 337.132 153.604 335.446 153.604C327.759 153.604 320.27 158.068 319.03 166.995L317.096 180.633C315.559 191.494 322.948 195.015 331.329 195.015C337.182 195.015 343.282 193.478 348.241 191.643L355.581 139.768ZM278.809 194.271H291.803L295.87 165.457C296.614 165.16 297.655 165.011 298.548 165.011C300.532 165.011 302.317 165.854 301.92 168.73L298.3 194.271H311.244L314.864 168.631C316.402 157.621 308.764 153.604 299.143 153.604C293.985 153.604 288.53 154.844 284.066 156.828L278.809 194.271ZM260.261 167.887C260.559 165.656 262.741 164.366 264.576 164.366C267.055 164.366 267.948 166.201 267.651 168.086C267.204 172.103 262.89 173.095 259.716 171.706L260.261 167.887ZM258.476 179.344C267.7 181.427 277.966 177.657 279.355 168.235C280.793 158.464 274.346 153.604 266.113 153.604C257.881 153.604 249.003 158.861 247.615 168.83L245.978 180.236C244.589 189.957 252.128 195.015 260.162 195.015C264.774 195.015 270.23 194.172 275.784 188.568L269.535 182.27C265.865 185.741 257.633 185.345 258.476 179.344ZM240.87 153.654C231.249 153.654 224.107 158.365 222.619 169.226L219.148 194.321H232.141L235.613 169.375C236.208 164.961 242.407 164.317 245.829 165.507L247.367 154.646C244.193 153.803 242.258 153.654 240.87 153.654ZM203.079 165.209C204.616 165.209 206.402 166.3 206.154 168.135L204.368 181.129C204.071 183.262 202.137 184.154 200.451 184.154C198.764 184.154 197.227 183.014 197.425 181.129L199.211 168.135C199.459 166.251 201.542 165.209 203.079 165.209ZM184.68 180.98C183.39 190.304 190.829 195.065 198.913 195.065C207.096 195.065 215.924 190.354 217.213 180.98L218.999 168.383C220.387 158.514 212.899 153.753 204.815 153.703C196.681 153.803 187.804 158.564 186.415 168.383L184.68 180.98ZM170.942 180.831C169.851 183.162 167.867 184.154 166.082 184.154C164.296 184.154 162.709 182.914 163.007 180.782L164.842 167.987C165.14 165.755 167.074 164.614 168.909 164.614C170.545 164.614 172.132 165.705 172.281 167.987L183.688 164.614C182.547 156.084 175.852 153.703 170.446 153.703C162.362 153.703 153.535 157.77 152.146 167.54L150.311 180.534C148.922 190.254 156.56 195.065 164.644 195.065C170.049 195.065 177.736 192.288 181.803 183.361L170.942 180.831ZM410.73 204.091C411.077 202.454 412.912 201.76 414.697 201.76C416.334 201.76 417.97 202.405 418.417 203.843L420.202 203.099C419.557 200.917 417.276 199.925 414.995 199.925C412.317 199.925 409.49 201.314 408.944 204.041C408.548 207.166 411.027 207.959 413.507 208.455C415.639 208.902 417.623 209.348 417.127 211.58C416.78 213.266 414.846 214.06 413.011 214.06C411.325 214.06 409.688 213.316 409.242 211.828L407.456 212.572C408.101 214.803 410.432 215.894 412.763 215.894C415.54 215.894 418.417 214.506 418.962 211.679C419.706 207.86 416.83 207.265 414.201 206.769C412.168 206.372 410.333 205.976 410.73 204.091ZM391.537 202.008H399.67L399.918 200.173H389.95L387.768 215.696H397.736L397.984 213.861H389.851L390.545 208.852H398.034L398.282 207.017H390.793L391.537 202.008ZM375.419 213.167L369.269 200.173H367.285L365.103 215.696H366.938L368.674 203.248L374.675 215.696H376.906L379.089 200.173H377.254L375.419 213.167ZM356.375 200.173H354.54L352.357 215.696H354.192L356.375 200.173ZM333.561 215.696H342.835L343.083 213.861H335.644L337.578 200.173H335.743L333.561 215.696ZM315.36 207.662L316.154 202.008H320.27C322.303 201.959 323.642 202.653 323.295 204.835C322.998 206.968 321.559 207.662 319.476 207.662H315.36ZM321.609 215.696H323.841L319.724 209.348C322.403 209.199 324.634 207.91 325.081 204.835C325.477 201.512 323.394 200.173 320.419 200.173H314.517L312.335 215.696H314.17L315.063 209.348H317.443L321.609 215.696ZM303.656 200.173H301.821L299.639 215.696H301.474L303.656 200.173ZM286.943 208.852H282.182C283.322 206.521 284.413 204.389 285.505 202.107L286.943 208.852ZM286.893 200.173H284.661L276.925 215.696H278.859L281.289 210.737H287.29L288.431 215.696H290.365L286.893 200.173Z" fill="#EB2227"/>
</svg>
