<svg width="480" height="320" viewBox="0 0 480 320" fill="none" xmlns="http://www.w3.org/2000/svg">
<path d="M55.3848 145.967H91.8547C82.839 151.162 82.3808 161.146 84.8765 172.656L55.3848 145.967Z" fill="#ED1C24"/>
<path d="M63.332 150.5H65.1147V148.412H63.332V150.5ZM66.0316 147.24H68.1197V145.355H66.0316L66.0316 147.24ZM65.8276 153.913H68.1708V151.519H65.8276V153.913ZM68.782 151.264H71.6342V148.157H68.782V151.264ZM68.8838 157.02H71.5832V154.473H68.8838V157.02ZM72.1436 154.218H74.6395V151.722H72.1435L72.1436 154.218ZM75.1997 151.111H78.103V148.259H75.1997V151.111ZM78.8161 147.698H81.4646V144.846H78.8161V147.698ZM81.6175 158.038H85.0812V154.218H81.6175V158.038Z" fill="white"/>
<path d="M78.051 161.198H82.9917V157.683H78.051L78.051 161.198ZM72.1934 147.751H74.6385V145.561H72.1934V147.751ZM72.1934 160.942H75.1986V157.683H72.1934V160.942Z" fill="white"/>
<path d="M75.1992 163.897H78.459V160.688H75.1992V163.897ZM80.802 163.694H84.0621V160.434H80.802V163.694ZM81.1078 174.696H85.8451V166.189H81.1078V174.696Z" fill="white"/>
<path d="M78.2031 166.647H84.6209V163.082H78.2031V166.647Z" fill="white"/>
<path d="M76.7273 168.226H79.3252V165.781H76.7272L76.7273 168.226ZM73.8237 165.271H75.9123V163.438H73.8237V165.271ZM70.7168 162.317H72.7543V160.483H70.7168V162.317ZM75.0462 157.937H78.5608V154.422H75.0463L75.0462 157.937Z" fill="white"/>
<path d="M78.1016 154.829H81.6161V151.314H78.1016V154.829Z" fill="white"/>
<path d="M81.5156 151.672H84.8265V148.157H81.5156V151.672ZM84.7249 148.157H88.7487V144.643H84.7249V148.157Z" fill="white"/>
<path d="M308.28 159.515H308.331C310.979 159.515 312.864 159.108 314.036 158.191C315.156 157.325 315.767 155.848 315.767 153.861C315.767 152.894 315.564 152.079 315.207 151.366C314.85 150.601 314.341 150.041 313.628 149.583C313.119 149.226 312.507 148.972 311.794 148.819C311.081 148.666 309.91 148.564 308.28 148.564H300.843V159.515L308.28 159.515ZM103.418 165.373H105.914C105.914 166.85 105.608 168.225 105.048 169.499C104.487 170.67 103.672 171.739 102.654 172.707C100.718 174.439 98.1208 175.356 94.9116 175.356C91.1934 175.356 88.2901 174.032 86.0998 171.332C83.9604 168.684 82.8906 165.016 82.8906 160.381C82.8906 155.746 83.9604 152.13 86.1509 149.481C88.2901 146.832 91.2442 145.508 94.9624 145.508C98.0696 145.508 100.616 146.323 102.501 148.004C103.52 148.819 104.284 149.787 104.844 150.856C105.353 151.977 105.608 153.199 105.608 154.574H103.163C102.908 152.486 102.093 150.805 100.616 149.634C99.1393 148.411 97.2547 147.851 94.9624 147.851C92.0084 147.851 89.6652 148.921 88.0353 151.111C86.3544 153.301 85.5394 156.408 85.5394 160.33C85.5394 164.303 86.3544 167.461 88.0353 169.702C89.7163 171.944 92.0591 173.064 95.0644 173.064C97.5092 173.064 99.4451 172.351 100.922 170.976C101.686 170.262 102.297 169.499 102.755 168.53C103.163 167.614 103.418 166.544 103.418 165.373ZM404.395 165.933H406.993C406.993 168.174 407.706 169.855 409.081 171.077C410.507 172.3 412.443 172.911 414.939 172.911C417.129 172.911 418.861 172.452 420.134 171.434C421.407 170.466 422.019 169.142 422.019 167.41C422.019 165.78 421.611 164.558 420.694 163.743C419.828 162.877 418.097 162.113 415.448 161.399L412.749 160.738C409.896 160.025 407.858 159.057 406.739 157.936C405.618 156.765 405.057 155.135 405.057 153.097C405.057 150.805 405.923 148.972 407.604 147.596C409.285 146.17 411.526 145.508 414.327 145.508C417.282 145.508 419.625 146.272 421.305 147.8C422.986 149.328 423.852 151.416 423.852 154.116H421.204C421.204 152.13 420.592 150.601 419.37 149.481C418.148 148.36 416.416 147.8 414.225 147.8C412.137 147.8 410.507 148.258 409.387 149.175C408.266 150.143 407.655 151.467 407.655 153.148C407.655 154.473 408.062 155.491 408.775 156.204C409.488 156.968 410.762 157.529 412.494 157.987L415.804 158.853C419.013 159.668 421.306 160.687 422.63 161.96C423.954 163.183 424.616 164.914 424.616 167.156C424.616 169.651 423.75 171.586 422.019 173.064C420.287 174.541 417.944 175.254 414.939 175.254C411.577 175.254 408.979 174.49 407.145 172.911C405.312 171.332 404.395 169.091 404.395 166.137L404.395 165.933ZM381.168 174.49V146.221H399.658V148.564H383.766V158.853H398.333V161.094H383.766V172.147H400.168V174.49L381.168 174.49ZM353.46 174.49V146.221H356.311L372.305 170.466V146.221H374.802V174.49H371.949L356.007 150.245V174.49L353.46 174.49ZM344.291 174.49V146.221H346.939V174.49L344.291 174.49ZM323.662 174.49V146.221H326.362V172.147H340.777V174.49L323.662 174.49ZM289.841 174.49V146.221H292.541V174.49L289.841 174.49ZM210.229 174.49V146.221H212.878V174.49L210.229 174.49ZM195.101 174.49V148.564H186.341V146.221H206.562V148.564H197.801V174.49L195.101 174.49ZM113.656 159.515H121.194C123.792 159.515 125.677 159.108 126.848 158.191C128.02 157.325 128.631 155.848 128.631 153.861C128.631 152.894 128.427 152.079 128.071 151.365C127.714 150.601 127.205 150.041 126.492 149.583C125.982 149.226 125.371 148.971 124.607 148.819C123.894 148.666 122.722 148.564 121.143 148.564H113.656L113.656 159.515ZM121.143 161.858H113.656V174.49H111.058V146.221H121.143C122.009 146.221 122.722 146.272 123.334 146.272C124.098 146.323 124.709 146.374 125.269 146.527C126.237 146.679 127.052 146.985 127.816 147.392C128.937 148.004 129.752 148.87 130.363 149.99C130.974 151.111 131.28 152.333 131.28 153.759C131.28 155.491 130.923 156.968 130.159 158.14C129.344 159.311 128.223 160.177 126.695 160.687C127.867 161.094 128.733 161.705 129.191 162.469C129.701 163.234 130.057 164.863 130.261 167.257L130.617 171.485C130.617 171.842 130.617 172.096 130.668 172.351C130.719 172.554 130.821 172.86 130.974 173.216C131.076 173.573 131.28 173.879 131.534 174.082V174.49H128.631C128.58 174.337 128.478 174.185 128.427 174.032C128.376 173.879 128.325 173.624 128.223 173.268C128.173 172.911 128.122 172.656 128.122 172.554C128.071 172.249 128.02 171.944 128.02 171.586L127.714 167.869C127.714 166.645 127.561 165.627 127.307 164.813C127.052 163.946 126.746 163.335 126.339 162.928C125.575 162.215 124.098 161.858 121.907 161.858L121.143 161.858ZM137.596 160.381C137.596 164.252 138.512 167.308 140.346 169.6C142.18 171.791 144.676 172.911 147.834 172.911H147.885C150.992 172.911 153.487 171.791 155.372 169.6C157.257 167.359 158.174 164.252 158.174 160.381C158.174 156.51 157.257 153.454 155.372 151.162C153.539 148.921 151.043 147.749 147.885 147.749H147.834C144.727 147.749 142.231 148.921 140.397 151.213C138.512 153.454 137.596 156.561 137.596 160.381ZM147.885 175.254H147.834C143.861 175.254 140.753 173.929 138.411 171.23C136.068 168.633 134.896 165.016 134.896 160.381C134.896 155.797 136.068 152.18 138.411 149.532C140.753 146.832 143.861 145.508 147.834 145.508H147.885C151.858 145.508 155.016 146.832 157.308 149.532C159.651 152.18 160.822 155.797 160.822 160.381C160.822 164.965 159.651 168.582 157.308 171.23C155.016 173.929 151.858 175.254 147.885 175.254H147.885ZM169.38 163.539H180.331L174.829 149.022L169.38 163.539ZM174.829 165.831H168.564L165.254 174.49H162.554L173.302 146.221H176.408L187.156 174.49H184.405L181.196 165.831H174.829ZM222.862 163.539H233.812L228.362 149.022H228.311L222.862 163.539ZM228.362 165.831H222.046L218.786 174.49H216.036L226.783 146.221H229.89L240.638 174.49H237.938L234.678 165.831H228.362ZM268.907 163.539H279.858L274.408 149.022L268.907 163.539ZM274.408 165.831H268.091L264.832 174.49H262.132L272.829 146.221H275.936L286.683 174.49H283.983L280.775 165.831L274.408 165.831ZM308.28 146.221C309.146 146.221 309.91 146.272 310.521 146.272C311.234 146.323 311.896 146.374 312.406 146.527C313.373 146.679 314.239 146.985 314.952 147.392C316.073 148.004 316.939 148.87 317.55 149.99C318.161 151.111 318.467 152.333 318.467 153.759C318.467 155.491 318.059 156.968 317.295 158.14C316.531 159.311 315.36 160.177 313.883 160.687C315.054 161.094 315.869 161.705 316.379 162.469C316.837 163.233 317.194 164.863 317.397 167.257L317.754 171.485C317.754 171.842 317.805 172.096 317.856 172.351C317.907 172.554 317.958 172.86 318.11 173.216C318.263 173.573 318.416 173.879 318.671 174.082V174.49H315.818C315.716 174.337 315.666 174.185 315.615 174.032C315.564 173.879 315.462 173.624 315.411 173.268C315.309 172.911 315.258 172.656 315.258 172.554C315.207 172.249 315.156 171.943 315.156 171.586L314.851 167.869C314.851 166.645 314.749 165.627 314.494 164.813C314.239 163.946 313.883 163.335 313.475 162.928C312.711 162.215 311.285 161.858 309.095 161.858H300.843V174.49H298.246V146.221H308.28" fill="#363F9E"/>
</svg>
