<svg width="480" height="320" viewBox="0 0 480 320" fill="none" xmlns="http://www.w3.org/2000/svg">
<path fill-rule="evenodd" clip-rule="evenodd" d="M405.143 186.174H406.003L405.143 188.347V194.143H412.252L424.614 163.623H405.143V170.189H412.479L408.675 179.608H405.143V186.174ZM394.773 163.623L382.411 194.143H391.875L395.09 186.174H405.143V179.608H397.762L401.566 170.189H405.143V163.623H394.773ZM405.143 188.347V194.143H402.743L405.143 188.347ZM78.7038 210.037H79.5189C81.9189 210.037 83.6396 210.354 84.7264 210.988C86.3565 211.939 87.1716 213.388 87.1716 215.29C87.1716 217.147 86.3565 218.777 84.7264 220.226C83.1868 221.539 81.1944 222.218 78.7038 222.309V220.633C79.4736 220.316 80.1529 219.728 80.6963 218.867C81.5566 217.509 81.9642 216.06 81.9642 214.565C81.9642 213.524 81.6925 212.754 81.1491 212.166C80.6057 211.622 79.8359 211.35 78.8397 211.35H78.7038V210.037ZM75.0813 222.082L73.3153 228.241C73.0889 229.101 72.953 229.735 72.953 230.097C72.953 230.595 73.0889 231.003 73.4511 231.229C73.7681 231.501 74.4926 231.637 75.6699 231.637L75.4435 232.226H64.6211L64.8022 231.637C65.7079 231.637 66.3418 231.546 66.7494 231.365C67.1116 231.229 67.4286 230.958 67.7003 230.55C67.8814 230.324 68.1531 229.554 68.5154 228.241L72.5908 214.158C72.8624 213.207 72.9983 212.528 72.9983 212.12C72.9983 211.713 72.8172 211.35 72.4549 211.079C72.0927 210.807 71.4587 210.671 70.5078 210.626L70.6889 210.037H78.7038V211.35H78.0699L75.4435 220.814C76.1228 220.905 76.7114 220.95 77.1643 220.95C77.7076 220.95 78.251 220.814 78.7038 220.633V222.309C78.5227 222.354 78.2963 222.354 78.1152 222.354C77.2548 222.354 76.2586 222.263 75.0813 222.082ZM96.0016 217.056L92.5149 228.15C92.3338 228.694 92.2432 229.01 92.2432 229.237C92.2449 229.321 92.2771 229.401 92.3338 229.463C92.4243 229.554 92.5602 229.599 92.6508 229.599C93.1489 229.599 93.7828 229.146 94.6432 228.241C95.8205 226.973 97.0431 225.071 98.311 222.671L99.8506 217.69L104.017 217.509L100.756 228.377C100.485 229.327 100.349 229.826 100.349 229.961C100.349 230.052 100.394 230.143 100.485 230.233C100.506 230.275 100.538 230.309 100.578 230.334C100.618 230.358 100.664 230.37 100.711 230.369C100.892 230.369 101.028 230.324 101.164 230.188C101.571 229.871 102.115 229.237 102.749 228.331L103.292 228.694C101.752 231.365 100.077 232.678 98.2657 232.678C97.5865 232.678 97.0431 232.497 96.6809 232.18C96.2733 231.818 96.0922 231.365 96.0922 230.822C96.0922 230.233 96.228 229.509 96.4997 228.603L97.3601 225.795C95.9111 227.878 94.9149 229.237 94.2809 229.961C93.2847 231.048 92.4696 231.773 91.7904 232.135C91.1564 232.497 90.4772 232.678 89.8885 232.678C89.2999 232.678 88.8018 232.452 88.3942 232.044C87.9867 231.637 87.7603 231.093 87.7603 230.46C87.7603 229.871 87.9414 229.146 88.2131 228.195L90.2961 221.675C90.6131 220.588 90.7489 219.863 90.7489 219.501C90.7489 219.32 90.7036 219.184 90.6131 219.048C90.5225 218.958 90.4319 218.822 90.2508 218.777C90.0697 218.686 89.7527 218.641 89.3452 218.641L89.481 218.052L95.0054 217.056H96.0016ZM112.982 230.505C113.571 230.46 114.205 230.278 114.794 230.052C115.564 229.69 116.469 229.146 117.465 228.331L118.009 228.739C116.741 230.143 115.518 231.184 114.341 231.773C113.888 231.999 113.435 232.18 112.982 232.316V230.505ZM112.982 217.826C114.25 217.328 115.518 217.056 116.786 217.056C117.692 217.056 118.371 217.282 118.869 217.69C119.322 218.143 119.548 218.686 119.548 219.365C119.548 220.18 119.322 220.95 118.869 221.675C118.263 222.672 117.443 223.523 116.469 224.165C115.471 224.828 114.369 225.318 113.209 225.614C113.164 225.614 113.073 225.66 112.982 225.66V224.301C113.299 224.075 113.616 223.803 113.933 223.486C114.477 222.943 114.884 222.263 115.292 221.448C115.654 220.633 115.835 219.863 115.835 219.139C115.835 218.822 115.745 218.596 115.564 218.414C115.428 218.233 115.201 218.143 114.93 218.143C114.386 218.143 113.798 218.505 113.164 219.23C113.118 219.32 113.028 219.365 112.982 219.411V217.826ZM109.994 226.112C109.903 226.792 109.858 227.38 109.858 227.833C109.858 228.648 110.084 229.282 110.582 229.78C111.035 230.278 111.669 230.505 112.484 230.505H112.982V232.316C112.128 232.557 111.244 232.679 110.356 232.678C108.545 232.678 107.277 232.226 106.598 231.365C105.873 230.505 105.556 229.463 105.556 228.331C105.556 226.565 106.054 224.754 107.096 222.988C108.137 221.177 109.586 219.773 111.352 218.686C111.896 218.369 112.439 218.052 112.982 217.826V219.411C111.85 220.769 110.899 222.671 110.13 225.252C111.126 225.116 111.85 224.89 112.394 224.663C112.575 224.573 112.801 224.437 112.982 224.301V225.66C112.213 225.841 111.216 225.977 109.994 226.112ZM128.288 217.056L125.39 226.248C127.337 221.765 128.831 219.003 129.827 217.962C130.416 217.373 131.005 217.056 131.684 217.056C132.092 217.056 132.454 217.237 132.725 217.554C133.042 217.871 133.178 218.369 133.178 218.958C133.178 220.045 132.907 220.95 132.408 221.63C132.092 222.128 131.729 222.354 131.322 222.354C130.914 222.354 130.597 222.128 130.371 221.72C130.19 221.313 130.009 221.086 129.918 220.996C129.873 220.905 129.782 220.905 129.646 220.905C129.556 220.905 129.465 220.905 129.329 220.996C129.103 221.131 128.786 221.448 128.424 221.946C128.016 222.49 127.563 223.305 127.02 224.528C126.477 225.705 126.024 226.746 125.707 227.561C125.435 228.422 124.937 229.961 124.303 232.226H120.273L123.397 221.403C123.624 220.588 123.714 220.045 123.714 219.773C123.714 219.501 123.624 219.275 123.533 219.094C123.397 218.913 123.216 218.822 122.99 218.731C122.763 218.641 122.265 218.641 121.586 218.641L121.722 218.143L127.201 217.056H128.288ZM142.688 213.071L141.329 217.509H143.186L142.642 219.411H140.74L137.752 229.01C137.571 229.599 137.48 230.052 137.48 230.369C137.48 230.46 137.525 230.55 137.616 230.641C137.752 230.731 137.842 230.731 137.978 230.731C138.159 230.731 138.34 230.686 138.522 230.505C139.065 230.143 139.654 229.463 140.288 228.512L140.876 228.875C140.152 230.188 139.291 231.139 138.386 231.773C137.48 232.361 136.574 232.678 135.714 232.678C134.944 232.678 134.356 232.497 133.948 232.135C133.541 231.727 133.359 231.275 133.359 230.686C133.359 230.052 133.495 229.237 133.812 228.286L136.574 219.411H134.491L134.808 218.188C136.122 217.69 137.299 217.056 138.25 216.377C139.246 215.698 140.423 214.611 141.827 213.071H142.688ZM158.265 217.282L155.004 228.15L154.687 229.509C154.642 229.644 154.642 229.78 154.642 229.871C154.642 230.007 154.687 230.097 154.778 230.188C154.868 230.278 154.959 230.324 155.05 230.324C155.276 230.324 155.593 230.188 156 229.826C156.136 229.69 156.544 229.192 157.133 228.331L157.721 228.603C156.951 230.052 156.136 231.048 155.231 231.682C154.37 232.361 153.419 232.678 152.423 232.678C151.789 232.678 151.336 232.497 151.019 232.18C150.657 231.863 150.521 231.501 150.521 231.003C150.521 230.55 150.702 229.78 151.065 228.603L151.427 227.29C151 228.055 150.532 228.795 150.023 229.509V228.15C150.521 227.471 150.974 226.701 151.427 225.841C152.468 223.803 153.012 221.992 153.012 220.407C153.012 219.501 152.831 218.867 152.559 218.46C152.476 218.332 152.362 218.227 152.227 218.155C152.093 218.084 151.942 218.048 151.789 218.052C151.427 218.052 151.065 218.233 150.702 218.55C150.476 218.777 150.25 219.048 150.023 219.365V217.328C150.521 217.147 151.019 217.056 151.472 217.056C152.061 217.056 152.559 217.237 152.967 217.599C153.329 217.962 153.601 218.596 153.782 219.547L154.37 217.509L158.265 217.282ZM150.023 229.509C149.253 230.55 148.484 231.365 147.759 231.909C147.08 232.407 146.355 232.678 145.586 232.678C144.589 232.678 143.865 232.271 143.412 231.456C142.959 230.595 142.733 229.69 142.733 228.648C142.733 227.109 143.231 225.343 144.182 223.35C145.133 221.358 146.355 219.773 147.895 218.55C148.619 217.962 149.344 217.554 150.023 217.328V219.365C149.48 220.135 148.936 221.222 148.348 222.671C147.487 224.754 147.035 226.52 147.035 228.014C147.035 228.603 147.125 229.01 147.352 229.282C147.533 229.554 147.759 229.644 147.986 229.644C148.438 229.644 148.936 229.373 149.48 228.829L150.023 228.15V229.509ZM185.841 209.539L180.272 227.833C179.909 228.965 179.728 229.644 179.728 229.916C179.728 230.007 179.774 230.143 179.864 230.233C179.955 230.324 180.045 230.324 180.136 230.324C180.317 230.324 180.543 230.233 180.77 230.052C181.177 229.78 181.675 229.192 182.219 228.331L182.808 228.648C181.268 231.32 179.593 232.678 177.736 232.678C177.102 232.678 176.604 232.497 176.242 232.18C176.067 232.009 175.929 231.805 175.836 231.579C175.743 231.353 175.696 231.111 175.698 230.867C175.698 230.324 175.834 229.599 176.151 228.694L176.649 227.018C176.196 227.788 175.744 228.512 175.336 229.146V227.878C175.925 227.109 176.513 226.067 177.102 224.799C178.008 222.762 178.46 221.131 178.46 219.909C178.46 219.23 178.325 218.777 178.053 218.46C177.781 218.143 177.464 218.007 177.147 218.007C176.785 218.007 176.377 218.188 175.97 218.55C175.789 218.731 175.562 218.958 175.336 219.23V217.282C175.834 217.147 176.332 217.056 176.83 217.056C177.283 217.056 177.645 217.147 178.008 217.328C178.325 217.509 178.732 217.826 179.14 218.324L180.408 214.294C180.725 213.252 180.906 212.528 180.906 212.075C180.906 211.803 180.815 211.577 180.589 211.396C180.362 211.169 180.045 211.079 179.683 211.079C179.502 211.079 179.276 211.124 179.049 211.124L179.185 210.535L184.8 209.539H185.841ZM175.336 229.146C174.521 230.369 173.751 231.275 173.072 231.773C172.302 232.361 171.578 232.678 170.853 232.678C170.038 232.678 169.313 232.361 168.77 231.682C168.181 231.003 167.91 230.052 167.91 228.784C167.91 227.154 168.272 225.524 168.996 223.939C169.721 222.354 170.581 221.041 171.532 219.999C172.483 218.958 173.389 218.188 174.294 217.735C174.611 217.554 174.974 217.418 175.336 217.282V219.23C174.747 220.045 174.159 221.177 173.525 222.716C172.664 224.845 172.212 226.611 172.212 228.06C172.212 228.558 172.302 228.965 172.483 229.192C172.71 229.463 172.891 229.599 173.117 229.599C173.525 229.599 173.932 229.418 174.294 229.056C174.657 228.739 174.974 228.377 175.336 227.878V229.146ZM192.226 230.505C192.815 230.46 193.404 230.278 194.038 230.052C194.807 229.69 195.713 229.146 196.709 228.331L197.207 228.739C195.985 230.143 194.762 231.184 193.539 231.773C193.132 231.999 192.679 232.18 192.226 232.316V230.505ZM192.226 217.826C193.494 217.328 194.762 217.056 195.985 217.056C196.936 217.056 197.615 217.282 198.068 217.69C198.566 218.143 198.792 218.686 198.792 219.365C198.792 220.18 198.566 220.95 198.113 221.675C197.507 222.672 196.687 223.523 195.713 224.165C194.706 224.811 193.607 225.3 192.453 225.614C192.362 225.614 192.317 225.66 192.226 225.66V224.301C192.543 224.075 192.86 223.803 193.177 223.486C193.675 222.943 194.128 222.263 194.49 221.448C194.898 220.633 195.079 219.863 195.079 219.139C195.079 218.822 194.988 218.596 194.807 218.414C194.626 218.233 194.445 218.143 194.173 218.143C193.63 218.143 193.041 218.505 192.407 219.23L192.226 219.411V217.826ZM189.238 226.112C189.147 226.792 189.102 227.38 189.102 227.833C189.102 228.648 189.328 229.282 189.781 229.78C190.279 230.278 190.913 230.505 191.728 230.505H192.226V232.316C191.372 232.557 190.488 232.679 189.6 232.678C187.789 232.678 186.521 232.226 185.841 231.365C185.117 230.505 184.755 229.463 184.755 228.331C184.755 226.565 185.298 224.754 186.34 222.988C187.381 221.177 188.785 219.773 190.596 218.686C191.139 218.369 191.683 218.052 192.226 217.826V219.411C191.094 220.769 190.143 222.671 189.373 225.252C190.324 225.116 191.094 224.89 191.638 224.663C191.819 224.573 192.045 224.437 192.226 224.301V225.66C191.456 225.841 190.46 225.977 189.238 226.112ZM231.486 209.539L229.856 216.603H229.267C229.176 214.656 228.724 213.207 227.818 212.256C226.958 211.305 225.826 210.852 224.422 210.852C222.882 210.852 221.343 211.486 219.848 212.754C218.309 214.067 217.041 216.015 215.999 218.686C215.139 220.86 214.731 222.988 214.731 225.071C214.731 226.973 215.184 228.377 216.09 229.373C217.041 230.369 218.309 230.867 219.939 230.867C221.252 230.867 222.429 230.595 223.516 230.007C224.603 229.463 225.69 228.558 226.822 227.29H227.592C226.233 229.282 224.875 230.731 223.471 231.546C222.112 232.361 220.437 232.769 218.399 232.769C215.728 232.769 213.599 231.954 211.969 230.324C210.339 228.694 209.524 226.565 209.524 223.984C209.524 221.539 210.158 219.184 211.471 216.965C212.784 214.747 214.641 212.981 217.086 211.577C219.531 210.218 221.931 209.539 224.377 209.539C225.282 209.539 226.414 209.72 227.818 210.128C228.497 210.309 228.995 210.4 229.267 210.4C229.81 210.4 230.354 210.128 230.897 209.539H231.486ZM239.546 217.056L236.059 228.15C235.878 228.694 235.788 229.01 235.788 229.237C235.788 229.327 235.833 229.418 235.924 229.463C235.963 229.508 236.012 229.543 236.067 229.566C236.122 229.59 236.181 229.601 236.24 229.599C236.693 229.599 237.373 229.146 238.188 228.241C239.365 226.973 240.542 225.071 241.855 222.671L243.395 217.69L247.516 217.509L244.255 228.377C243.984 229.327 243.848 229.826 243.848 229.961C243.848 230.052 243.893 230.143 243.984 230.233C244.074 230.324 244.165 230.369 244.255 230.369C244.391 230.369 244.527 230.324 244.708 230.188C245.071 229.871 245.614 229.237 246.248 228.331L246.837 228.694C245.297 231.365 243.622 232.678 241.81 232.678C241.131 232.678 240.588 232.497 240.18 232.18C239.863 231.818 239.637 231.365 239.637 230.822C239.637 230.233 239.773 229.509 240.044 228.603L240.859 225.795C239.501 227.878 238.459 229.237 237.825 229.961C236.874 231.048 236.014 231.773 235.38 232.135C234.701 232.497 234.067 232.678 233.478 232.678C232.89 232.678 232.392 232.452 231.984 232.044C231.531 231.637 231.35 231.093 231.35 230.46C231.35 229.871 231.486 229.146 231.803 228.195L233.886 221.675C234.158 220.588 234.339 219.863 234.339 219.501C234.339 219.32 234.293 219.184 234.203 219.048C234.112 218.958 233.976 218.822 233.795 218.777C233.614 218.686 233.342 218.641 232.89 218.641L233.071 218.052L238.595 217.056H239.546ZM259.38 209.539L256.482 219.365C257.297 218.414 257.976 217.826 258.519 217.509C259.075 217.206 259.698 217.05 260.331 217.056C261.599 217.056 262.549 217.509 263.138 218.46C263.772 219.411 264.089 220.497 264.089 221.72C264.089 224.663 263.048 227.29 260.919 229.599C259.561 231.139 258.067 232.09 256.391 232.452V230.822C256.753 230.46 257.161 229.961 257.568 229.373C258.202 228.422 258.746 227.244 259.199 225.841C259.648 224.513 259.877 223.121 259.878 221.72C259.878 220.95 259.697 220.362 259.38 219.954C259.017 219.547 258.655 219.365 258.248 219.365C257.523 219.365 256.934 219.728 256.391 220.452V209.901L258.383 209.539H259.38ZM256.391 232.452C255.802 232.588 255.214 232.678 254.58 232.678C252.814 232.678 250.957 232.135 248.965 231.093L254.036 213.841C254.308 213.026 254.444 212.483 254.489 212.12C254.491 211.992 254.458 211.866 254.394 211.754C254.33 211.643 254.238 211.55 254.127 211.486C253.765 211.26 253.267 211.169 252.633 211.169L252.768 210.535L256.391 209.901V220.452L256.346 220.497C255.984 220.996 255.621 222.082 255.168 223.667L252.95 231.229C253.448 231.592 253.901 231.727 254.263 231.727C254.851 231.727 255.304 231.637 255.667 231.41C255.893 231.229 256.165 231.048 256.391 230.822V232.452ZM281.296 217.282L278.036 228.15L277.719 229.509C277.674 229.644 277.674 229.78 277.674 229.871C277.674 230.007 277.719 230.097 277.81 230.188C277.9 230.278 277.991 230.324 278.081 230.324C278.308 230.324 278.625 230.188 278.987 229.826C279.168 229.69 279.53 229.192 280.164 228.331L280.753 228.603C279.983 230.052 279.168 231.048 278.262 231.682C277.402 232.361 276.451 232.678 275.455 232.678C274.821 232.678 274.368 232.497 274.006 232.18C273.689 231.863 273.508 231.501 273.508 231.003C273.508 230.55 273.689 229.78 274.051 228.603L274.459 227.29C274.032 228.055 273.563 228.795 273.055 229.509V228.15C273.58 227.425 274.035 226.652 274.413 225.841C275.5 223.803 275.998 221.992 275.998 220.407C275.998 219.501 275.862 218.867 275.591 218.46C275.41 218.188 275.138 218.052 274.776 218.052C274.459 218.052 274.096 218.233 273.734 218.55C273.508 218.777 273.281 219.048 273.055 219.365V217.328C273.553 217.147 274.006 217.056 274.504 217.056C275.093 217.056 275.591 217.237 275.953 217.599C276.361 217.962 276.632 218.596 276.813 219.547L277.402 217.509L281.296 217.282ZM273.055 229.509C272.285 230.55 271.515 231.365 270.791 231.909C270.112 232.407 269.387 232.678 268.617 232.678C267.621 232.678 266.897 232.271 266.444 231.456C265.991 230.595 265.764 229.69 265.764 228.648C265.764 227.109 266.263 225.343 267.168 223.35C268.119 221.358 269.387 219.773 270.927 218.55C271.651 217.962 272.376 217.554 273.055 217.328V219.365C272.512 220.135 271.923 221.222 271.334 222.671C270.519 224.754 270.066 226.52 270.066 228.014C270.066 228.603 270.157 229.01 270.338 229.282C270.564 229.554 270.746 229.644 270.972 229.644C271.47 229.644 271.968 229.373 272.466 228.829C272.693 228.603 272.874 228.377 273.055 228.15V229.509ZM306.428 217.282L303.213 228.15L302.896 229.509C302.851 229.644 302.851 229.78 302.851 229.871C302.851 230.007 302.896 230.097 302.986 230.188C303.077 230.278 303.168 230.324 303.258 230.324C303.485 230.324 303.801 230.188 304.164 229.826C304.345 229.69 304.707 229.192 305.341 228.331L305.93 228.603C305.16 230.052 304.3 231.048 303.439 231.682C302.579 232.361 301.628 232.678 300.632 232.678C299.998 232.678 299.5 232.497 299.183 232.18C298.866 231.863 298.685 231.501 298.685 231.003C298.685 230.55 298.866 229.78 299.228 228.603L299.636 227.29C299.137 228.105 298.685 228.875 298.232 229.509V228.15C298.757 227.425 299.212 226.652 299.59 225.841C300.677 223.803 301.175 221.992 301.175 220.407C301.175 219.501 301.039 218.867 300.768 218.46C300.586 218.188 300.315 218.052 299.953 218.052C299.636 218.052 299.273 218.233 298.911 218.55C298.685 218.777 298.458 219.048 298.232 219.365V217.328C298.73 217.147 299.183 217.056 299.681 217.056C300.269 217.056 300.768 217.237 301.13 217.599C301.537 217.962 301.809 218.596 301.99 219.547L302.579 217.509L306.428 217.282ZM298.232 229.509C297.462 230.55 296.692 231.365 295.968 231.909C295.288 232.407 294.564 232.678 293.794 232.678C292.798 232.678 292.073 232.271 291.621 231.456C291.168 230.595 290.941 229.69 290.941 228.648C290.941 227.109 291.394 225.343 292.345 223.35C293.296 221.358 294.564 219.773 296.104 218.55C296.828 217.962 297.553 217.554 298.232 217.328V219.365C297.688 220.135 297.1 221.222 296.511 222.671C295.651 224.754 295.243 226.52 295.243 228.014C295.243 228.603 295.334 229.01 295.515 229.282C295.741 229.554 295.922 229.644 296.149 229.644C296.647 229.644 297.145 229.373 297.643 228.829C297.824 228.603 298.051 228.377 298.232 228.15V229.509ZM317.884 209.539L312.269 228.06C311.907 229.146 311.771 229.826 311.771 230.143C311.771 230.233 311.816 230.369 311.907 230.46C311.947 230.504 311.996 230.539 312.051 230.562C312.105 230.586 312.164 230.597 312.224 230.595C312.405 230.595 312.586 230.55 312.767 230.369C313.311 229.961 313.899 229.282 314.533 228.331L315.167 228.603C314.126 230.188 313.084 231.32 312.088 231.999C311.409 232.452 310.684 232.678 309.869 232.678C309.145 232.678 308.601 232.497 308.149 232.09C307.741 231.727 307.515 231.275 307.515 230.731C307.515 230.324 307.65 229.69 307.922 228.784L312.541 213.705C312.767 212.845 312.903 212.301 312.903 212.03C312.903 211.803 312.767 211.577 312.541 211.441C312.224 211.215 311.726 211.124 311.047 211.124L311.182 210.535L316.888 209.539H317.884ZM337.491 210.037L339.076 225.297L349.627 210.037H357.461L357.234 210.626C356.193 210.626 355.378 210.852 354.834 211.305C354.246 211.803 353.793 212.709 353.385 214.022L349.31 228.241C349.038 229.146 348.903 229.826 348.903 230.278C348.903 230.686 349.084 231.003 349.401 231.229C349.718 231.501 350.352 231.637 351.348 231.637L351.167 232.226H340.118L340.299 231.637C341.476 231.637 342.382 231.41 342.925 230.958C343.514 230.505 343.967 229.599 344.374 228.241L348.495 213.841L335.816 232.226H335.137L333.144 213.524L328.888 228.241C328.752 228.875 328.661 229.373 328.661 229.78C328.661 230.324 328.843 230.776 329.205 231.093C329.567 231.456 330.246 231.637 331.152 231.637L330.971 232.226H323.635L323.771 231.637C324.677 231.637 325.356 231.456 325.809 231.093C326.624 230.46 327.258 229.554 327.62 228.241L332.42 211.849C331.967 211.35 331.559 211.033 331.197 210.852C330.79 210.716 330.201 210.626 329.341 210.626L329.522 210.037H337.491ZM364.48 217.056L360.948 228.15C360.812 228.694 360.721 229.01 360.721 229.237C360.723 229.321 360.755 229.401 360.812 229.463C360.852 229.508 360.901 229.543 360.955 229.566C361.01 229.59 361.069 229.601 361.129 229.599C361.627 229.599 362.261 229.146 363.121 228.241C364.253 226.973 365.521 225.071 366.789 222.671L368.329 217.69L372.495 217.509L369.234 228.377C368.963 229.327 368.827 229.826 368.827 229.961C368.827 230.052 368.872 230.143 368.917 230.233C369.008 230.324 369.098 230.369 369.189 230.369C369.37 230.369 369.506 230.324 369.642 230.188C370.049 229.871 370.547 229.237 371.227 228.331L371.771 228.694C370.231 231.365 368.556 232.678 366.744 232.678C366.065 232.678 365.522 232.497 365.159 232.18C364.752 231.818 364.571 231.365 364.571 230.822C364.571 230.233 364.707 229.509 364.978 228.603L365.793 225.795C364.39 227.878 363.393 229.237 362.759 229.961C361.763 231.048 360.948 231.773 360.269 232.135C359.59 232.497 358.956 232.678 358.367 232.678C357.778 232.678 357.28 232.452 356.873 232.044C356.465 231.637 356.239 231.093 356.239 230.46C356.239 229.871 356.42 229.146 356.692 228.195L358.775 221.675C359.092 220.588 359.227 219.863 359.227 219.501C359.227 219.32 359.182 219.184 359.092 219.048C359.001 218.958 358.911 218.822 358.729 218.777C358.548 218.686 358.231 218.641 357.824 218.641L357.96 218.052L363.484 217.056H364.48ZM382.457 217.056L380.328 224.075C381.777 222.037 382.864 220.633 383.589 219.863C384.63 218.777 385.536 218.052 386.306 217.645C387.075 217.237 387.8 217.056 388.479 217.056C389.068 217.056 389.611 217.282 390.019 217.735C390.426 218.188 390.653 218.822 390.653 219.547C390.653 220.135 390.517 220.86 390.245 221.72L387.981 228.603C387.8 229.237 387.709 229.599 387.709 229.78C387.709 229.916 387.755 230.007 387.845 230.097C387.936 230.188 388.026 230.233 388.072 230.233C388.207 230.233 388.298 230.188 388.434 230.097C388.841 229.78 389.204 229.327 389.611 228.784C389.702 228.603 389.838 228.377 390.064 228.105L390.698 228.467C389.068 231.093 387.392 232.452 385.581 232.452C384.902 232.452 384.358 232.271 383.996 231.909C383.589 231.546 383.408 231.139 383.408 230.595C383.408 230.143 383.543 229.463 383.86 228.558L386.079 221.539C386.215 221.086 386.306 220.724 386.306 220.543C386.306 220.407 386.26 220.316 386.124 220.226C386.026 220.135 385.896 220.086 385.762 220.09C385.309 220.09 384.766 220.362 384.132 220.905C382.457 222.354 380.872 224.528 379.332 227.38L377.928 232.226H373.717L376.887 221.765C377.159 220.724 377.34 219.999 377.385 219.547C377.385 219.365 377.294 219.184 377.204 219.048C377.113 218.958 376.977 218.822 376.751 218.777C376.525 218.686 376.117 218.641 375.528 218.641L375.71 218.052L381.415 217.056H382.457ZM410.532 209.539L404.962 227.833C404.6 228.965 404.418 229.644 404.418 229.916C404.418 230.007 404.464 230.143 404.554 230.233C404.645 230.324 404.735 230.324 404.826 230.324C405.007 230.324 405.234 230.233 405.46 230.052C405.867 229.78 406.32 229.192 406.909 228.331L407.498 228.648C405.958 231.32 404.283 232.678 402.426 232.678C401.792 232.678 401.294 232.497 400.932 232.18C400.757 232.009 400.619 231.805 400.526 231.579C400.433 231.353 400.386 231.111 400.388 230.867C400.388 230.324 400.524 229.599 400.841 228.694L401.339 227.018C400.886 227.788 400.434 228.512 400.026 229.146V227.878C400.615 227.109 401.203 226.067 401.792 224.799C402.698 222.762 403.151 221.131 403.151 219.909C403.151 219.23 403.015 218.777 402.743 218.46C402.471 218.143 402.154 218.007 401.837 218.007C401.475 218.007 401.068 218.188 400.66 218.55C400.479 218.731 400.253 218.958 400.026 219.23V217.282C400.524 217.147 401.022 217.056 401.52 217.056C401.973 217.056 402.335 217.147 402.698 217.328C403.015 217.509 403.422 217.826 403.83 218.324L405.098 214.294C405.415 213.252 405.596 212.528 405.596 212.075C405.596 211.803 405.505 211.577 405.279 211.396C405.052 211.169 404.735 211.079 404.373 211.079C404.192 211.079 403.966 211.124 403.739 211.124L403.875 210.535L409.49 209.539H410.532ZM400.026 229.146C399.211 230.369 398.441 231.275 397.762 231.773C396.992 232.361 396.268 232.678 395.543 232.678C394.728 232.678 394.004 232.361 393.46 231.682C392.872 231.003 392.6 230.052 392.6 228.784C392.6 227.154 392.962 225.524 393.687 223.939C394.411 222.354 395.271 221.041 396.222 219.999C397.173 218.958 398.079 218.188 398.985 217.735C399.302 217.554 399.664 217.418 400.026 217.282V219.23C399.437 220.045 398.849 221.177 398.215 222.716C397.354 224.845 396.902 226.611 396.902 228.06C396.902 228.558 396.992 228.965 397.173 229.192C397.4 229.463 397.581 229.599 397.807 229.599C398.215 229.599 398.622 229.418 398.985 229.056C399.347 228.739 399.664 228.377 400.026 227.878V229.146ZM419.769 217.056C420.629 217.056 421.445 217.237 422.169 217.645C422.939 218.052 423.528 218.596 423.89 219.32C424.297 219.999 424.478 220.814 424.478 221.675C424.478 223.441 423.98 225.207 423.029 226.973C422.033 228.739 420.72 230.143 419.09 231.139C418.411 231.592 417.731 231.909 417.007 232.18V230.55C417.324 230.097 417.686 229.509 418.048 228.784C418.773 227.426 419.316 225.886 419.769 224.256C420.222 222.58 420.448 221.086 420.448 219.682C420.448 219.139 420.312 218.686 420.041 218.369C419.769 218.052 419.452 217.916 419.09 217.916C418.501 217.916 418.003 218.097 417.641 218.414C417.414 218.596 417.233 218.822 417.007 219.139V217.554C417.913 217.192 418.818 217.056 419.769 217.056ZM417.007 232.18C416.101 232.497 415.15 232.678 414.199 232.678C412.705 232.678 411.573 232.226 410.758 231.365C409.943 230.46 409.535 229.373 409.535 228.105C409.535 226.611 409.852 225.162 410.441 223.848C411.075 222.535 411.845 221.358 412.75 220.362C413.7 219.41 414.783 218.601 415.965 217.962C416.328 217.826 416.69 217.645 417.007 217.554V219.139C416.418 219.999 415.739 221.358 415.014 223.26C414.064 225.75 413.565 228.06 413.565 230.097C413.565 230.595 413.747 231.003 414.018 231.32C414.335 231.637 414.698 231.818 415.105 231.818C415.558 231.818 415.92 231.682 416.282 231.41C416.509 231.229 416.735 230.958 417.007 230.55V232.18Z" fill="#004FA3"/>
<path fill-rule="evenodd" clip-rule="evenodd" d="M144.545 194.144L55.3848 87.2324L78.3428 194.144H144.545Z" fill="#EF3E33"/>
<path fill-rule="evenodd" clip-rule="evenodd" d="M139.428 117.843L113.98 87.2324H63.0371L88.531 117.843H139.428ZM203.14 194.144L177.692 163.623H126.704L152.243 194.144H203.14ZM171.352 156.061L145.813 125.496H94.9158L120.364 156.061H171.352ZM247.2 176.801L252.498 163.759H222.838L210.521 194.144H240.136L245.434 181.102H236.06L233.434 187.623H222.566L229.63 170.28H240.407L237.826 176.801H247.2ZM267.848 187.578L277.584 163.623H287.048L274.686 194.144H244.845L257.207 163.623H266.671L256.935 187.578H267.848ZM367.152 170.189L357.462 194.144H347.998L360.36 163.623H390.201L377.839 194.144H368.375L378.11 170.189H367.152ZM303.757 176.031C304.436 176.031 305.025 175.895 305.614 175.623C306.157 175.397 306.7 175.035 307.153 174.627C307.561 174.219 307.878 173.721 308.149 173.178V173.087L309.327 170.189H302.716V163.623H321.417L317.342 173.993L317.206 174.265C316.798 175.17 316.255 175.985 315.53 176.665C314.86 177.378 314.041 177.935 313.131 178.295C312.497 178.567 311.817 178.748 311.183 178.838C311.274 178.929 311.41 179.019 311.5 179.11C311.953 179.608 312.406 180.197 312.678 180.921C312.976 181.607 313.13 182.347 313.131 183.095C313.131 183.865 312.949 184.589 312.678 185.268L309.055 194.144H302.716V186.491L303.35 184.906C303.44 184.589 303.485 184.317 303.485 184C303.485 183.593 303.44 183.185 303.259 182.868C303.143 182.545 302.958 182.251 302.716 182.008V176.031H303.757ZM302.716 170.189H298.414L297.236 173.087L296.059 176.031H302.716V182.008L302.67 181.963C302.67 181.917 302.67 181.917 302.625 181.917C302.353 181.646 302.036 181.419 301.719 181.283C301.402 181.102 300.995 181.057 300.587 181.057H293.976L291.35 187.578H302.217L302.716 186.491V194.144H279.214L291.621 163.623H302.716V170.189ZM336.36 186.174H337.266L336.36 188.347V194.144H343.47L355.832 163.623H336.36V170.189H343.741L339.892 179.608H336.36V186.174ZM325.991 163.623L313.629 194.144H323.093L326.308 186.174H336.36V179.608H328.979L332.783 170.189H336.36V163.623H325.991ZM336.36 188.347V194.144H334.006L336.36 188.347Z" fill="#004FA3"/>
</svg>
