<svg width="480" height="320" viewBox="0 0 480 320" fill="none" xmlns="http://www.w3.org/2000/svg">
<path d="M348.126 53.7385C346.478 53.9827 343.853 54.6543 342.327 55.2037C340.8 55.8142 338.236 56.73 336.527 57.3405C329.14 60.0266 313.633 68.8178 305.392 75.0449C302.705 77.0595 300.141 78.7689 299.714 78.7689C299.287 78.7689 300.691 75.4112 303.072 70.8935C306.063 65.2159 307.04 62.7739 306.551 62.2855C306.063 61.7971 305.33 62.1634 303.804 63.5065C302.644 64.4833 300.63 66.0706 299.287 66.9863C297.943 67.9021 295.624 69.6725 294.097 70.8935C292.571 72.1145 290.495 73.5797 289.396 74.1291C287.26 75.167 286.771 76.449 285.367 84.1413C284.696 87.9264 284.451 88.2927 282.498 89.2695C279.812 90.5515 276.881 90.6126 272.852 89.4526C269.372 88.4148 267.296 86.217 266.014 82.2487C265.404 80.2341 263.572 79.0131 263.572 80.6615C263.572 80.9667 260.947 83.8971 257.712 87.0717C251.973 92.6882 251.851 92.8714 252.584 94.5808C253.621 97.1449 256.124 99.1595 259.848 100.381C262.474 101.296 264.183 101.479 268.701 101.174C271.753 100.991 275.477 100.381 276.942 99.8921C282.315 97.9385 282.376 98.3048 278.163 108.989C276.454 113.323 274.378 118.695 273.524 120.893C268.823 133.286 264.488 142.81 261.741 146.839C259.482 150.075 255.636 154.165 253.988 155.02C252.156 155.936 250.752 154.471 250.752 151.418C250.752 148.121 254.72 136.4 258.2 129.257C259.787 125.96 261.13 123.091 261.13 122.847C261.13 122.603 261.741 121.321 262.413 119.977C263.145 118.634 263.939 116.803 264.244 115.826C264.793 113.872 264.183 113.75 260.703 115.032C255.27 116.986 251.301 117.841 247.761 117.841H243.914L244.281 115.216C245.624 105.936 245.441 104.776 242.571 102.884C240.679 101.602 238.542 102.578 236.466 105.57C234.513 108.378 233.902 110.087 233.048 114.849C232.437 118.085 232.498 119.062 233.353 121.321C233.902 122.725 234.574 123.946 234.879 123.946C236.222 123.946 236.1 126.754 234.513 130.844C232.681 135.606 227.797 145.924 224.501 151.723C220.227 159.232 213.329 164.3 211.253 161.43C209.971 159.66 210.337 156.058 212.23 151.906C213.206 149.77 214.916 145.863 216.137 143.176C217.297 140.49 219.372 135.972 220.716 133.103C223.524 127.12 224.806 123.396 224.256 122.847C224.012 122.664 222.547 122.969 220.96 123.457C219.372 124.007 217.175 124.678 216.076 124.861C214.305 125.228 213.756 125.777 212.535 128.402C211.741 130.173 211.07 131.882 211.07 132.31C211.07 133.225 206.796 143.36 202.095 153.372C198.616 161.003 194.647 166.925 191.9 168.695C190.191 169.855 185.978 170.038 184.208 169.122C181.338 167.596 182.621 160.087 187.627 148.976C188.726 146.473 191.229 140.795 193.06 136.461C194.953 132.065 196.662 128.158 196.845 127.731C197.334 126.571 194.892 126.937 189.458 128.708L184.635 130.356L180.606 139.819C173.89 155.63 172.059 158.744 165.221 165.582C161.925 168.939 158.933 171.503 158.689 171.32C158.384 171.137 157.956 168.146 157.773 164.727C157.407 157.523 155.331 148.671 153.622 146.778C153.011 146.107 152.462 145.252 152.462 144.886C152.462 144.519 151.119 142.993 149.471 141.467C145.441 137.682 141.107 136.278 136.162 137.316C131.4 138.231 126.882 140.612 123.341 144.031C113.94 153.127 108.75 162.651 105.454 176.815C104.294 181.821 103.805 186.583 103.683 195.191C103.622 197.816 103.378 199.037 102.89 199.037C101.485 199.037 94.8921 194.275 92.1449 191.284C86.7115 185.301 83.659 177.792 83.2927 169.306C83.0485 163.872 84.1474 152.395 85.3073 148.182C85.6126 146.961 86.162 145.008 86.4062 143.909C86.7115 142.871 87.5051 140.673 88.1766 139.147L89.4587 136.339L97.5783 135.972C108.689 135.545 122.12 131.943 133.109 126.571C141.473 122.481 154.11 114.666 158.445 110.942C162.963 107.035 168.884 100.442 171.754 96.107C176.088 89.5747 176.76 82.6761 173.402 77.9753C168.884 71.4429 160.765 71.0766 145.563 76.5711C132.255 81.394 121.693 87.7432 104.965 100.869C101.791 103.311 93.0606 112.163 87.383 118.695L83.72 122.969L79.5076 120.954C70.7164 116.864 64.9778 107.645 67.6639 101.846C67.9692 101.052 69.5565 99.5258 71.1438 98.488C77.4319 94.2145 86.6504 94.2755 88.9703 98.6101C90.0081 100.564 91.8396 101.663 92.8164 100.869C93.2438 100.564 95.8689 98.488 98.6772 96.2291C101.485 93.9703 105.637 91.0399 107.835 89.6968C114.123 85.9117 115.039 85.1181 114.245 83.836C112.474 80.9056 105.148 78.7689 96.9068 78.7689C82.6822 78.83 70.0449 83.9581 63.5126 92.383C53.1341 105.875 57.3465 120.71 74.1963 129.745C75.9057 130.661 77.3708 131.76 77.3708 132.126C77.3708 132.493 76.8214 133.592 76.0888 134.629C74.1352 137.499 70.7775 144.336 69.0681 148.854C66.504 155.631 63.8789 163.689 63.5736 165.765C63.4515 166.436 63.2684 167.657 63.0242 168.512C62.1695 172.297 61.4979 181.943 61.8642 185.301C62.7189 193.726 66.1377 204.043 70.0449 210.27C77.1266 221.503 90.3134 228.646 105.454 229.501L112.413 229.867L113.39 232.614C114.672 236.094 118.824 242.932 121.937 246.595C130.24 256.546 148.555 265.093 163.451 265.947C166.626 266.13 169.617 266.375 170.044 266.497C171.876 267.107 172.669 266.069 172.303 263.505C172.059 262.162 172.364 258.133 172.853 254.592C174.074 246.839 176.271 241.772 181.705 234.751C183.719 232.126 185.429 229.684 185.429 229.44C185.429 228.219 183.536 229.256 179.812 232.431C171.326 239.818 169.983 240.734 165.099 242.748C157.956 245.618 150.508 246.167 143.61 244.214C137.383 242.443 130.484 238.963 126.211 235.361C119.556 229.684 118.579 227.547 122.426 226.876C128.408 225.96 138.421 219.061 144.281 211.918C149.593 205.325 154.293 194.458 156.369 183.774C157.102 180.111 157.895 178.646 159.971 177.242C161.009 176.448 163.329 174.495 165.099 172.785C168.762 169.245 169.861 168.939 169.373 171.503C168.884 173.823 169.8 179.501 171.082 182.187C173.646 187.559 181.583 186.461 190.13 179.501L193.915 176.387L194.708 178.097C196.784 182.492 203.316 182.981 210.337 179.196C214.611 176.937 220.105 171.564 221.753 168.146C222.242 167.108 223.035 165.887 223.585 165.459C224.073 165.032 224.501 164.483 224.501 164.177C224.501 163.872 225.172 162.59 226.027 161.308C228.957 156.851 236.711 138.598 238.847 131.027C239.336 129.379 239.946 127.853 240.19 127.609C240.862 127.059 250.142 128.341 250.142 129.013C250.142 129.501 248.127 134.263 244.464 142.261C241.289 149.342 240.496 151.418 238.603 157.462C237.504 160.881 236.527 165.398 236.344 167.474C236.1 170.771 236.222 171.564 237.382 173.03C238.603 174.617 239.03 174.739 241.717 174.495C245.685 174.068 250.386 170.832 255.575 164.788L259.604 160.087L260.52 162.834C263.45 171.32 271.204 170.282 281.033 160.209C283.78 157.401 286.161 155.081 286.283 155.081C286.466 155.081 286.588 156.546 286.527 158.378C286.466 163.018 287.809 164.483 291.777 164.055C293.365 163.872 295.501 163.262 296.478 162.712C298.31 161.797 305.147 155.325 308.322 151.601C310.092 149.403 311.191 149.464 312.412 151.784C314.305 155.264 323.767 158.5 329.262 157.462C336.649 156.058 343.059 151.418 347.943 143.787C349.653 141.101 352.522 136.705 354.292 134.019C357.284 129.379 360.825 123.518 364.366 117.291C365.22 115.765 367.052 112.774 368.334 110.759C369.616 108.683 371.203 106.119 371.753 105.081C372.302 104.043 373.096 103.189 373.401 103.189C373.767 103.189 375.232 104.776 376.636 106.669C378.102 108.622 379.567 110.454 379.933 110.82C380.849 111.675 384.268 117.413 385.306 119.916C387.992 126.388 381.948 137.56 374.194 140.429C370.348 141.894 368.029 141.955 366.38 140.734C365.22 139.819 365.22 139.819 366.563 138.781C368.212 137.438 370.348 132.798 370.409 130.6C370.409 127.609 366.014 125.472 363.022 126.998C358.993 129.074 356.734 132.615 356.002 137.926C355.452 142.322 356.551 145.008 359.665 146.839C365.953 150.502 377.43 149.037 387.625 143.237C393.181 140.124 395.745 137.377 398.553 131.516C401.423 125.594 402.033 125.167 407.955 125.167C411.557 125.167 411.923 125.289 413.083 126.937C414.304 128.585 414.304 128.83 413.388 131.943C412.412 135.24 409.909 140.185 408.627 141.345C408.26 141.65 406.795 143.36 405.33 145.13C401.484 149.77 393.975 154.043 381.887 158.439C373.218 161.552 351.911 165.521 326.148 168.817C312.229 170.588 309.054 171.076 301.118 172.541C296.783 173.335 292.083 174.129 290.74 174.373C282.132 175.716 257.101 182.004 249.653 184.69C235.062 190.001 219.922 199.22 209.116 209.354C199.47 218.451 189.702 232.858 185.673 243.969C182.926 251.662 183.903 251.601 189.336 243.908C193.793 237.559 204.415 226.509 210.154 222.175C212.169 220.709 213.939 219.305 214.122 219.122C214.305 218.939 216.747 217.169 219.617 215.276C227.065 210.209 236.833 205.752 250.325 201.235C267.846 195.313 281.46 192.749 309.665 189.879C316.38 189.208 323.951 188.414 326.454 188.048C328.957 187.743 333.535 187.132 336.527 186.827C352.339 184.995 361.924 182.92 373.706 178.951C388.846 173.823 399.225 167.474 407.283 158.439C414.365 150.563 418.639 143.176 421.081 134.69C423.95 124.678 420.714 116.986 413.083 115.826C410.885 115.521 404.414 116.131 401.728 116.986C400.69 117.291 400.263 117.108 399.957 116.253C398.614 111.919 396.661 109.477 388.419 101.663C383.535 97.0838 379.567 92.9324 379.567 92.5051C379.567 92.0167 380.116 90.7347 380.727 89.6358C382.436 86.7054 384.451 80.3562 384.451 77.8532C384.451 75.2891 382.253 72.6639 380.116 72.6639C377.796 72.6639 373.645 75.0449 371.875 77.3648C369.005 81.1498 367.784 91.2231 369.86 93.7871C370.837 95.0081 370.654 98.488 369.494 100.747C368.883 101.907 367.357 104.41 366.075 106.302C364.793 108.195 363.022 111.064 362.107 112.713C359.359 117.658 352.644 127.548 351.972 127.548C351.728 127.609 351.24 126.51 350.874 125.167C349.225 118.94 346.234 113.75 341.289 108.134C339.824 106.485 338.664 104.837 338.664 104.349C338.664 103.86 339.518 101.357 340.495 98.7322C343.792 90.2463 343.548 82.4929 340.007 81.1498C335.306 79.3184 329.567 84.996 327.614 93.2987C327.003 96.046 328.102 103.494 329.567 106.363C330.178 107.584 330.727 109.05 330.727 109.599C330.727 110.576 326.393 119.184 325.172 120.649C324.866 121.076 323.767 123.091 322.73 125.167C321.509 127.731 320.349 129.257 319.006 129.929C314.183 132.554 311.008 136.583 310.275 141.101C309.909 143.604 309.299 144.275 306.185 145.557C304.415 146.351 303.865 146.351 302.95 145.679C301.912 144.947 302.095 144.214 305.514 133.958C307.528 127.975 310.764 119.306 312.656 114.727C314.549 110.148 316.136 105.753 316.197 104.959C316.38 103.25 315.526 103.189 309.36 104.532L305.392 105.387L303.072 112.041C293.975 138.17 288.42 147.389 280.544 149.22C279.262 149.526 278.652 149.22 277.37 147.694C276.515 146.656 275.782 145.069 275.782 144.214C275.782 142.688 278.713 133.836 282.986 122.419C284.024 119.733 286.1 114.117 287.626 109.904C294.342 91.7725 294.28 91.8946 296.356 90.5515C297.272 89.941 300.446 87.7432 303.377 85.6675C312.229 79.2573 316.991 76.8153 327.064 73.2744C332.498 71.3208 333.352 71.1987 341.106 71.1987C348.126 71.1377 349.653 71.3208 351.057 72.2366C353.132 73.5797 355.147 76.7543 355.147 78.5858C355.147 79.3794 355.513 79.9899 356.002 79.9899C356.429 79.9899 359.909 77.0595 363.633 73.3965C371.508 65.7653 371.753 65.0938 368.212 59.7824C365.159 55.0816 362.229 53.5554 356.063 53.3722C353.377 53.2501 349.836 53.4333 348.126 53.7385ZM378.102 82.7371C378.346 83.2866 377.735 84.8128 376.82 86.217L375.11 88.7811L373.706 87.1327C372.241 85.3623 372.302 83.9581 373.95 82.554C375.293 81.5161 377.674 81.6382 378.102 82.7371ZM164.916 83.7139C166.137 84.6907 166.503 85.4844 166.503 87.3769C166.503 90.4294 165.405 92.5051 162.413 95.3134C157.712 99.77 155.881 100.442 148.982 100.442H142.755L142.389 104.837C142.145 107.279 141.473 109.965 140.863 111.003C138.421 114.971 130.118 119.672 119.129 123.335C112.169 125.594 110.399 125.899 103.866 126.205C98.9214 126.449 96.3573 126.327 96.0521 125.899C95.4416 124.922 97.4562 121.992 102.462 116.498C109.727 108.5 119.678 100.319 129.446 94.3976C133.781 91.7725 150.692 84.3244 153.744 83.7139C161.314 82.1877 162.963 82.1877 164.916 83.7139ZM336.71 91.7114C337.626 92.6272 337.626 94.3366 336.71 96.9007C335.672 99.709 333.841 99.4037 332.62 96.2902C331.948 94.5197 331.948 93.665 332.437 92.5051C333.23 90.8568 335.428 90.4294 336.71 91.7114ZM240.74 112.041C241.106 113.628 239.702 116.62 238.481 116.62C237.321 116.62 236.833 113.934 237.687 112.163C238.786 110.087 240.251 110.026 240.74 112.041ZM336.466 119.55C340.495 129.929 340.068 136.827 334.879 144.519C333.047 147.267 328.651 149.77 325.843 149.709C323.096 149.648 319.128 148.366 319.128 147.572C319.128 147.145 320.41 146.168 321.997 145.313C325.965 143.176 327.247 141.284 327.308 137.132C327.308 134.813 327.003 133.469 326.271 132.615C325.721 132.004 325.233 130.966 325.233 130.356C325.233 129.745 327.064 125.838 329.262 121.687C332.314 115.948 333.474 114.239 334.024 114.727C334.451 115.093 335.55 117.291 336.466 119.55ZM139.397 146.534C140.74 146.534 145.747 151.418 146.601 153.494C148.311 157.706 148.311 158.439 146.052 161.308C144.831 162.834 143.182 164.361 142.328 164.788C140.191 165.704 140.801 167.047 143.243 166.803C147.639 166.497 151.058 170.588 150.447 175.411C149.959 178.768 148.555 180.478 143.915 182.981C141.717 184.141 138.97 185.728 137.81 186.461C136.65 187.254 133.781 188.78 131.522 189.879C129.263 190.978 127.187 192.199 127.004 192.505C126.272 193.726 132.743 192.321 137.871 190.124C146.113 186.644 145.747 186.766 145.747 187.682C145.747 189.269 139.153 194.702 134.086 197.266C127.432 200.563 124.013 201.479 117.603 201.479C109.788 201.479 110.032 201.845 110.093 189.757C110.155 181.271 110.338 179.135 111.498 175.227C115.161 163.14 122.914 151.174 129.324 147.694C131.339 146.595 134.697 145.985 136.833 146.29C137.81 146.412 138.97 146.534 139.397 146.534Z" fill="black"/>
<path d="M309.36 87.8035C305.331 89.8182 303.743 92.1991 304.293 95.4347C304.781 98.6093 307.101 99.7693 311.558 99.2198C315.526 98.7314 317.968 96.8999 319.372 93.4201C320.471 90.6118 319.983 88.5972 317.785 87.0709C315.77 85.6668 313.206 85.911 309.36 87.8035Z" fill="black"/>
</svg>
