<svg width="480" height="320" viewBox="0 0 480 320" fill="none" xmlns="http://www.w3.org/2000/svg">
<path d="M390.205 141.172L388.333 141.497L386.299 149.797L388.171 149.309L388.659 147.438L391.67 146.95L392.646 148.577L394.68 148.414L390.205 141.172ZM400.132 141.172L398.179 148.577L399.888 148.821L400.539 146.38C400.84 145.182 400.972 144.777 401.19 143.776L401.353 142.881C401.35 143.303 401.345 143.579 401.353 143.776C401.368 144.03 401.406 144.361 401.434 144.834C401.455 145.202 401.477 145.464 401.515 145.648L401.922 149.309L403.305 149.716L405.502 146.705C405.638 146.507 405.739 146.249 405.909 145.973C406.32 145.356 406.519 145.121 406.967 144.346L406.804 144.834C406.699 145.16 406.591 145.486 406.479 145.81C406.403 146.086 406.283 146.477 406.153 146.949C406.02 147.418 405.967 147.753 405.909 148.007L405.258 150.285L406.885 150.855L408.838 143.45L406.397 142.637L404.445 145.485C404.269 145.752 404.023 146.03 403.793 146.38C403.467 146.888 403.429 147.121 403.143 147.682C403.175 146.706 403.15 145.985 403.061 145.159L402.654 141.66L400.132 141.172V141.172ZM389.472 142.962C389.712 143.5 389.868 143.817 390.287 144.508L391.1 145.81L388.822 146.136L389.147 144.671C389.338 143.89 389.408 143.505 389.472 142.962ZM411.117 144.02C410.631 144.017 410.185 144.358 409.978 144.834C409.707 145.47 409.983 146.185 410.628 146.461C411.262 146.741 411.985 146.448 412.256 145.81C412.526 145.174 412.253 144.457 411.605 144.183C411.445 144.115 411.279 144.021 411.117 144.02ZM379.22 144.264L373.85 147.437L377.674 154.028L383.126 150.774L382.475 149.553L378.569 151.913L377.593 150.285L381.091 148.17L380.441 147.112L376.942 149.146L376.128 147.763L379.953 145.485L379.22 144.264ZM410.873 144.264C411.133 144.192 411.354 144.208 411.605 144.345C412.106 144.616 412.378 145.301 412.093 145.81C411.815 146.328 411.126 146.491 410.628 146.217C410.127 145.939 409.937 145.264 410.221 144.752C410.36 144.495 410.612 144.336 410.873 144.264V144.264ZM411.035 144.427L410.385 145.648L410.547 145.729L410.873 145.241L411.035 145.322L411.117 146.054L411.361 146.135L411.28 145.403C411.496 145.513 411.719 145.558 411.849 145.322C411.992 145.066 411.821 144.869 411.605 144.752L411.035 144.427V144.427ZM411.117 144.752L411.442 144.915C411.567 144.984 411.75 145.118 411.686 145.241C411.583 145.43 411.342 145.238 411.198 145.159L410.954 144.996L411.117 144.753V144.752ZM368.641 151.831L364.247 157.12L365.305 158.016L366.933 156.063L371.734 159.968L372.872 158.585L368.072 154.68L369.7 152.726L368.641 151.831ZM414.208 155.575C419.022 160.43 422.24 166.936 422.752 174.289C423.885 190.531 411.639 204.639 395.412 205.779C387.777 206.313 380.632 203.913 375.069 199.514C380.832 204.859 388.742 207.923 397.202 207.326C413.435 206.193 425.675 192.142 424.542 175.916C423.967 167.696 420.085 160.52 414.29 155.575H414.208ZM400.945 161.515C398.377 161.496 395.317 162.879 392.32 165.501C391.402 166.313 389.609 168.119 387.844 169.814L385.81 171.686C384.185 171.39 382.589 171.279 380.928 171.279C377.227 171.279 373.851 172.299 372.303 173.883C371.721 174.494 371.39 175.148 371.408 175.835C371.444 177.628 373.55 178.529 374.174 178.765C377.47 179.986 380.227 179.582 383.125 177.544C384.725 176.428 386.586 174.685 388.089 173.231C389.263 173.504 390.647 173.869 392.076 174.289L393.378 174.615C391.673 176.296 389.875 178.074 388.251 179.497L388.17 179.66C385.915 181.651 384.262 183.03 381.905 183.565C380.245 183.928 379.036 183.632 378.65 183.403C379.995 184.503 381.254 185.219 383.451 185.03C385.568 184.844 388.03 183.469 390.53 181.124L393.866 177.87L396.307 175.51C396.307 175.518 401.027 176.893 401.027 176.893C400.904 176.971 398.178 179.822 398.178 179.822L395.656 182.345C393.055 184.87 391.649 186.148 390.123 187.227C387.616 189.013 385.43 189.945 383.532 190.075C382.556 190.14 381.133 190.108 379.952 189.424C381.222 190.519 382.732 191.852 385.404 191.784C388.468 191.688 391.182 190.208 395.412 186.332C397.346 184.561 399.252 182.552 400.945 180.799L404.118 177.625C406.189 178.087 408.013 178.32 410.059 178.277C413.034 178.212 415.561 176.737 415.592 175.103C415.622 173.898 414.638 173.285 414.045 172.906C413.557 172.583 412.22 171.848 410.384 171.848C408.151 171.848 405.831 172.83 403.468 174.778L401.922 176.161C401.943 176.153 401.271 175.998 401.271 175.998L396.958 174.777C398.248 173.576 399.309 172.569 400.294 171.686C402.693 169.554 405.334 168.689 406.885 168.593C408.013 168.514 409.981 168.593 410.791 169.163C410.825 169.161 410.872 169.082 410.872 169.082C408.719 167.242 406.874 166.966 405.339 166.966C403.827 166.966 401.395 167.428 398.423 169.733C397.212 170.676 395.599 172.299 393.947 173.964C393.947 173.951 391.75 173.232 391.75 173.232L391.262 173.069L388.902 172.418C388.957 172.418 390.286 171.116 390.286 171.116C391.851 169.575 393.279 168.117 394.435 167.129C398.632 163.603 401.308 163.156 403.142 163.142C405.153 163.139 406.72 163.536 407.862 164.362C405.536 162.263 403.844 161.54 400.945 161.515ZM361.399 162.165L360.992 163.386L363.027 166.152C363.297 166.528 363.337 166.584 363.597 166.885C363.306 166.95 363.191 166.915 363.027 166.966L362.62 167.129L359.365 168.024L358.958 169.244L364.166 167.698L367.095 168.675L367.502 167.698L364.573 166.641L361.399 162.165ZM381.579 172.581C382.447 172.534 383.35 172.496 384.834 172.662C384.773 172.662 384.02 173.394 384.02 173.394L383.532 173.882C381.7 175.553 378.632 178.307 375.883 178.114C374.527 178.014 373.849 177.455 373.849 176.405C373.849 176.269 373.959 172.961 381.579 172.581H381.579ZM411.848 173.15C412.518 173.171 413.313 173.382 413.313 174.208C413.313 175.065 412.541 175.835 410.954 176.405C409.566 176.905 407.422 176.99 405.095 176.73C405.733 176.151 406.266 175.723 406.722 175.428C408.91 173.94 410.714 173.109 411.848 173.15ZM365.631 174.696L361.237 178.439L358.063 174.94L358.145 176.405L361.481 180.067L361.725 180.311L361.969 180.554H361.155L358.226 180.636V181.775L365.793 181.612V180.473L363.108 180.554L361.887 179.171L365.712 176.079L365.63 174.696L365.631 174.696ZM365.549 186.414C365.232 186.381 364.826 186.446 364.492 186.576C363.94 186.805 363.591 187.245 363.434 187.878C363.275 188.444 363.357 189.01 363.597 190.319L363.678 190.807C363.92 192.14 363.87 192.694 363.271 192.923C362.53 193.228 361.841 192.718 361.399 191.621C360.92 190.405 361.107 189.621 362.051 189.098L361.644 188.123C360.244 188.75 359.857 190.114 360.586 191.947C361.261 193.635 362.426 194.323 363.678 193.818C364.232 193.6 364.602 193.218 364.736 192.679C364.83 192.248 364.829 191.895 364.654 190.889L364.573 190.4L364.492 189.831C364.254 188.469 364.329 187.805 364.98 187.553C365.783 187.219 366.616 187.816 367.096 189.017C367.689 190.491 367.384 191.481 366.282 191.947L366.689 192.923C368.278 192.266 368.719 190.795 367.91 188.773C367.348 187.373 366.503 186.512 365.55 186.414H365.549ZM169.205 141.904C165.822 141.904 163.043 142.494 160.906 143.776C160.489 144.029 160.142 144.367 159.767 144.671C159.386 144.982 159.025 145.301 158.709 145.647C157.566 146.908 156.675 148.511 156.105 150.448C155.548 152.351 155.292 154.566 155.292 157.121C155.292 159.013 155.473 160.726 155.861 162.247C155.933 162.548 156.015 162.846 156.105 163.142C156.19 163.42 156.319 163.673 156.431 163.956C156.809 164.926 157.242 165.849 157.814 166.641C158.389 167.438 159.085 168.147 159.848 168.756C160.689 169.436 161.61 169.985 162.533 170.384C162.716 170.459 162.839 170.48 163.022 170.546C163.213 170.615 163.409 170.657 163.591 170.709V170.79C164.145 170.957 164.819 171.021 165.544 171.116C165.69 171.137 165.812 171.183 165.951 171.197C166.845 171.293 167.85 171.36 168.962 171.36H179.702V167.047H169.287C168.077 167.047 167.108 166.933 166.276 166.64C165.544 166.389 164.896 165.938 164.405 165.339C163.945 164.774 163.589 163.989 163.347 162.979C163.102 161.931 162.94 160.657 162.94 159.154C162.94 156.651 163.22 151.184 163.754 149.716C163.85 149.449 163.957 149.147 164.079 148.902C164.198 148.662 164.355 148.441 164.486 148.251C164.964 147.557 165.575 147.052 166.358 146.705C167.169 146.35 168.134 146.136 169.287 146.136H179.703V141.904H169.205ZM182.225 141.904V146.136H199.231L182.225 166.803V171.36H207.286V167.048H191.013L207.286 146.461V141.904H182.225ZM223.316 141.904C219.936 141.904 217.232 142.494 215.098 143.776C214.683 144.029 214.251 144.367 213.877 144.671C213.495 144.982 213.137 145.301 212.82 145.647C211.68 146.908 210.863 148.511 210.297 150.448C209.736 152.351 209.402 154.566 209.402 157.121C209.402 159.013 209.588 160.726 209.972 162.247C210.044 162.548 210.125 162.846 210.216 163.142C210.3 163.42 210.433 163.673 210.541 163.956C210.916 164.908 211.408 165.81 212.006 166.641C212.583 167.438 213.191 168.147 213.959 168.756C214.776 169.418 215.68 169.965 216.644 170.384C216.828 170.459 217.034 170.48 217.213 170.546C217.405 170.615 217.603 170.657 217.783 170.709V170.79C218.333 170.957 218.933 171.021 219.655 171.116C219.799 171.137 220.008 171.183 220.143 171.197C221.037 171.293 222.041 171.36 223.153 171.36H233.813V167.047H223.479C222.274 167.047 221.222 166.933 220.387 166.64C219.655 166.387 219.007 165.937 218.515 165.339C218.061 164.774 217.696 163.989 217.458 162.979C217.213 161.931 217.132 160.657 217.132 159.154C217.132 159.014 217.129 158.903 217.132 158.747H233.813V154.435H217.295C217.425 152.413 217.659 150.502 217.946 149.716C218.045 149.449 218.15 149.147 218.271 148.902C218.39 148.662 218.467 148.441 218.597 148.251C219.071 147.557 219.767 147.052 220.549 146.705C221.365 146.35 222.334 146.136 223.479 146.136H233.813V141.904H223.316ZM250.006 141.904C246.625 141.904 243.839 142.494 241.706 143.776C241.287 144.029 240.86 144.367 240.485 144.671C240.104 144.982 239.824 145.301 239.509 145.647C238.367 146.908 237.475 148.511 236.905 150.448C236.346 152.351 236.091 154.566 236.091 157.121C236.091 159.013 236.275 160.726 236.661 162.247C236.731 162.548 236.813 162.846 236.905 163.142C236.993 163.42 237.039 163.673 237.149 163.956H237.23C237.609 164.926 238.04 165.849 238.613 166.641C239.188 167.438 239.885 168.147 240.648 168.756C241.492 169.436 242.324 169.985 243.252 170.384C243.435 170.459 243.642 170.48 243.821 170.546C244.012 170.615 244.21 170.657 244.391 170.709V170.79C244.941 170.957 245.622 171.021 246.343 171.116C246.491 171.137 246.611 171.183 246.75 171.197C247.647 171.293 248.648 171.36 249.761 171.36H260.502V167.047H250.086C248.874 167.047 247.905 166.933 247.076 166.64C246.343 166.388 245.695 165.938 245.204 165.339H245.123C244.663 164.774 244.385 163.989 244.147 162.979C243.897 161.931 243.74 160.657 243.74 159.154C243.74 156.651 244.021 151.184 244.553 149.716C244.654 149.449 244.758 149.147 244.879 148.902C245 148.662 245.152 148.441 245.286 148.251C245.764 147.557 246.373 147.052 247.157 146.705C247.965 146.35 248.938 146.136 250.087 146.136H260.502V141.904H250.005H250.006ZM263.676 141.904V171.36H270.754V158.748H280.519V171.361H287.68V141.904H280.519V154.435H270.754V141.904H263.676ZM160.336 177.382L160.174 177.707L148.212 206.024L147.887 206.837H155.454L155.617 206.43L158.628 198.537H168.88L171.891 206.43L172.054 206.837H179.946L179.621 206.023L167.578 177.707L167.415 177.382H160.743H160.336ZM181.248 177.382V206.837H188.653V177.382H181.248ZM192.64 177.382V206.837H199.801V195.69H205.822L211.925 206.512L212.087 206.837H220.143L219.573 205.942L212.982 194.795C214.065 194.459 214.974 193.939 215.749 193.249C215.94 193.077 216.156 192.939 216.318 192.76C216.472 192.591 216.563 192.335 216.725 192.109H216.807C217.341 191.368 217.681 190.539 217.946 189.587C218.204 188.651 218.353 187.631 218.353 186.495C218.353 184.284 217.933 182.441 217.051 181.043C216.876 180.769 216.689 180.474 216.481 180.229C216.27 179.988 215.992 179.792 215.749 179.579C214.887 178.839 213.829 178.316 212.494 177.951C211.195 177.598 209.616 177.382 207.856 177.382H192.64ZM221.526 177.382V194.795C221.526 195.922 221.59 196.913 221.689 197.805C221.788 198.709 221.974 199.514 222.177 200.165C222.471 201.108 222.88 201.966 223.479 202.769C224.35 203.936 225.54 205.038 226.815 205.698C226.999 205.793 227.201 205.866 227.385 205.942C228.23 206.306 229.078 206.465 229.989 206.593C230.147 206.614 230.322 206.657 230.477 206.674C231.478 206.791 232.654 206.837 233.976 206.837H242.113V202.524H234.545C233.486 202.524 232.298 202.545 231.29 202.199C229.402 201.548 228.805 200.205 228.686 198.293C228.652 197.709 228.686 196.98 228.686 196.178V177.381H221.526L221.526 177.382ZM244.147 177.382V206.837H251.551V177.382H244.147ZM255.457 177.382V206.837H262.78L262.699 206.268L262.455 187.146L273.522 206.512L273.684 206.837H281.577V177.382H274.254V177.951L274.498 196.015L264.083 177.707L263.92 177.382H255.457ZM298.257 177.382C294.874 177.382 292.093 178.049 289.958 179.334C289.543 179.587 289.112 179.84 288.737 180.148C288.357 180.458 288.078 180.782 287.761 181.124C286.615 182.382 285.727 183.995 285.157 185.925C284.6 187.835 284.343 190.043 284.343 192.598C284.343 194.49 284.527 196.2 284.913 197.724C284.992 198.036 285.069 198.345 285.157 198.619C285.24 198.897 285.296 199.153 285.401 199.433H285.482V199.514C285.864 200.481 286.288 201.317 286.865 202.118C287.437 202.911 288.137 203.624 288.9 204.233C289.74 204.909 290.66 205.464 291.585 205.861C291.767 205.937 291.891 206.04 292.073 206.105C292.266 206.173 292.464 206.213 292.642 206.267C293.282 206.455 293.935 206.591 294.596 206.674C294.744 206.695 294.869 206.659 295.003 206.674C296.002 206.783 297.007 206.837 298.013 206.837H308.754V202.524H298.338C297.13 202.524 296.161 202.412 295.328 202.117C294.532 201.836 293.909 201.446 293.456 200.897C292.997 200.333 292.637 199.542 292.399 198.537C292.155 197.492 291.992 196.217 291.992 194.713C291.992 194.572 291.99 194.376 291.992 194.225H308.754V189.912H292.154C292.288 187.887 292.52 185.979 292.805 185.193C292.898 184.942 293.007 184.697 293.131 184.46C293.245 184.226 293.404 183.995 293.538 183.81V183.728C294.019 183.038 294.626 182.532 295.409 182.182C296.217 181.825 297.193 181.694 298.338 181.694H308.754V177.382H298.257H298.257ZM321.692 177.382C318.985 177.382 315.839 177.724 313.718 179.579C311.71 181.337 311.195 184.102 311.195 186.658C311.195 188.656 312.116 190.784 313.636 192.109C315.655 193.85 318.644 194.225 321.204 194.225H327.794C331.166 194.225 332.047 196.624 331.945 198.619C331.872 200.123 330.692 202.281 327.388 202.281H312.334V206.837H328.771C332.326 206.837 334.963 206.101 336.664 204.64C338.651 202.934 339.183 200.33 339.186 197.805C339.186 195.13 338.939 193.693 336.989 191.947C336.355 191.382 335.529 190.969 334.548 190.645C332.979 190.129 331.311 189.912 329.666 189.912H322.587C319.248 189.867 318.459 187.567 318.437 186.169C318.394 183.21 320.884 181.938 323.807 181.938H337.884V177.382H321.692ZM199.801 181.694H206.473C207.447 181.694 208.263 181.733 208.914 181.938C209.52 182.129 209.989 182.47 210.297 182.833C210.883 183.517 211.192 184.765 211.192 186.576C211.192 187.909 211.018 188.863 210.704 189.587C210.641 189.727 210.523 189.887 210.46 189.994C210.388 190.109 210.306 190.218 210.216 190.319C209.549 191.089 208.324 191.458 206.473 191.458H199.801V181.694ZM163.673 185.193L167.172 194.225H160.255L163.673 185.193Z" fill="#0F2C64"/>
<path fill-rule="evenodd" clip-rule="evenodd" d="M109.422 171.197H91.9514L93.3549 165.253H104.593C108.435 165.272 110.302 161.904 107.558 160.025C104.866 158.145 103.118 156.646 100.447 154.744C95.0376 150.909 97.5847 141.969 106.662 141.918H123.137L121.701 147.773H110.648C107.609 147.72 106.946 151.064 108.913 152.289L115.987 157.545C121.824 161.949 118.402 171.184 109.422 171.197ZM129.5 203.135C127.73 206.415 123.553 207.777 120.195 206.18C102.303 197.661 86.5335 185.72 73.4284 171.197H89.7711L91.2284 165.301H80.8971C80.6052 165.298 80.3094 165.309 80.017 165.272C78.4643 165.07 77.5571 164.415 77.0481 163.623C76.5343 162.831 76.3829 161.933 76.4967 161.215C76.5094 161.032 77.0481 158.777 77.0809 158.59L77.091 158.531L78.6332 152.366H78.6358C79.3194 149.513 81.7019 147.805 84.8875 147.72H95.4783L96.8888 141.875H89.6074L80.4393 145.31L81.3199 141.875H80.0227C77.0831 141.839 75.0284 142.1 73.5855 142.773C72.2835 143.379 71.2949 144.378 70.8875 145.866L66.6651 163.178C62.9837 158.505 59.5697 153.627 56.4397 148.568C54.4922 145.428 55.2927 141.098 58.4148 138.971C82.5102 122.538 111 113.28 140.175 112.602C143.953 112.51 147.155 115.478 147.464 119.219C148.08 126.791 148.099 134.4 147.523 141.976L131.96 141.968L117.207 171.133H127.986L129.726 167.251C129.895 166.858 130.076 166.734 130.584 166.743H138.315C138.464 166.735 138.787 166.795 138.802 167.174L138.897 171.133H142.393C139.296 182.246 134.971 192.979 129.499 203.135L129.5 203.135ZM138.619 161.462L138.268 149.528C138.252 149.109 137.896 149.079 137.708 149.497L132.278 161.551C132.054 162.022 132.191 162.474 132.601 162.44H138.05C138.519 162.411 138.668 162.038 138.62 161.462H138.619Z" fill="#EF001E"/>
</svg>
