<svg width="480" height="320" viewBox="0 0 480 320" fill="none" xmlns="http://www.w3.org/2000/svg">
<path d="M301.14 142.451C302.763 147.751 301.65 154.035 298.19 157.84C292.633 164.081 285.418 166.176 278.044 167.328C278.044 167.328 285.332 180.796 287.791 186.694H266.649C262.391 179.085 258.551 171.304 254.62 163.526C254.458 162.755 253.876 162.113 254.368 162.113C263.379 161.344 274.933 162.969 280.503 154.206C281.324 152.881 281.484 150.785 281.324 149.289C279.849 144.332 274.933 144.117 270.838 143.947C247.576 144.332 217.88 186.821 217.88 186.821L211.976 186.694C211.976 186.694 218.585 175.877 222.351 170.921C239.224 146.982 261.832 130.654 289.186 133.133C293.96 134.073 299.004 136.937 301.14 142.451ZM354.871 134.714L317.213 186.821H292.803C292.119 186.435 329.822 134.714 329.822 134.714H354.871ZM147.49 142.536C146.669 140.057 144.54 137.962 142.573 136.466C131.27 131.508 117.674 134.926 107.192 139.287C87.3725 146.726 54.7389 185.154 55.3945 186.694C63.2592 187.42 80.8206 186.991 80.8206 186.991C80.8206 186.991 87.5345 173.698 92.6146 168.953C105.229 168.739 118.006 167.797 130.128 168.568L117.744 186.694C117.744 186.694 121.61 186.821 123.245 186.608L142.411 162.286C146.177 156.984 149.948 149.933 147.49 142.536ZM142.411 150.487C140.773 155.061 138.646 160.19 134.713 162.286C122.753 162.286 110.633 162.885 98.5108 162.286C108.177 151.258 119.97 143.478 133.077 140.613C136.022 140.613 139.138 140.613 141.429 142.921C142.74 145.015 143.232 148.049 142.411 150.487ZM224.971 146.041C219.568 135.953 209.902 132.918 200.071 132.918C169.932 132.747 132.092 186.989 132.092 186.989L134.55 186.906H179.925C193.356 185.578 205.807 181.561 216.125 171.686C222.35 165.618 227.428 156.302 224.971 146.041ZM195.485 171.304C180.416 182.164 161.087 182.332 142.083 181.178C142.083 181.178 171.405 147.922 191.389 146.426C196.96 146.211 202.691 147.366 205.147 153.266C206.623 161.259 200.4 167.5 195.485 171.304ZM423.819 142.067C423.006 139.588 420.871 137.492 418.902 135.954C407.619 131.039 394.023 134.458 383.552 138.819C363.717 146.213 331.103 184.685 331.745 186.223C339.608 186.95 357.177 186.523 357.177 186.523C357.177 186.523 363.891 173.229 368.977 168.483C381.585 168.27 394.367 167.328 406.463 168.099L394.067 186.223C394.067 186.223 397.957 186.308 399.581 186.139L418.775 161.816C422.536 156.514 426.298 149.462 423.819 142.067ZM418.775 150.018C417.108 154.592 414.97 159.721 411.08 161.816C399.112 161.816 386.971 162.37 374.875 161.816C384.535 150.787 396.335 143.009 409.415 140.144C412.364 140.144 415.485 140.144 417.793 142.451C419.075 144.503 419.588 147.581 418.775 150.018Z" fill="#2B438F"/>
</svg>
