<svg width="480" height="320" viewBox="0 0 480 320" fill="none" xmlns="http://www.w3.org/2000/svg">
<path fill-rule="evenodd" clip-rule="evenodd" d="M94.8426 119.932L95.0064 120.765L100.235 154.419L133.408 159.918L134.225 160.084L133.408 160.25L100.235 165.582L95.0064 199.237L94.8426 200.069L94.6798 199.237L89.4493 165.582L56.2767 160.25L55.459 160.084L56.2767 159.918L89.4493 154.419L94.6798 120.765L94.8424 119.932" fill="white"/>
<path d="M94.8427 119.932L95.0063 120.765L100.235 154.419L133.408 159.918L134.225 160.084L133.408 160.25L100.235 165.583L95.0063 199.237L94.8427 200.069L94.6797 199.237L89.4493 165.583L56.2767 160.25L55.459 160.084L56.2767 159.918L89.4493 154.42L94.6797 120.765L94.8427 119.932" stroke="#289EE0" stroke-width="1.85637" stroke-miterlimit="2.6131"/>
<path fill-rule="evenodd" clip-rule="evenodd" d="M94.8428 160.084L100.235 165.583L94.8428 199.903V160.084ZM94.8428 120.1L100.235 154.42L94.8428 160.084V120.1M55.623 160.084L89.4495 165.583L94.8428 160.084H55.623Z" fill="#289EE0"/>
<path fill-rule="evenodd" clip-rule="evenodd" d="M94.8418 160.084H134.062L100.234 165.583L94.8418 160.084" fill="#289EE0"/>
<path d="M89.4492 154.418L94.8426 160.082" stroke="#289EE0" stroke-width="1.85637" stroke-miterlimit="2.6131"/>
<path d="M94.8418 160.084L101.378 166.582" stroke="white" stroke-width="1.56868" stroke-miterlimit="2.6131"/>
<path fill-rule="evenodd" clip-rule="evenodd" d="M145.991 148.754V165.082C145.991 166.915 145.828 167.081 143.54 167.414V168.081H151.057C153.999 168.081 155.96 167.581 157.594 165.915C159.718 164.082 161.026 160.583 161.026 156.918C161.026 153.419 159.718 150.087 157.594 147.921C155.96 146.422 154.162 145.756 151.221 145.756H143.54V146.588C145.665 146.755 145.991 146.921 145.991 148.754V148.754ZM151.221 146.755C153.509 146.755 154.98 147.421 156.123 148.921C157.594 150.587 158.248 153.253 158.248 156.918C158.248 160.75 157.43 163.415 155.96 165.248C154.816 166.581 153.181 167.248 150.73 167.248C148.933 167.248 148.77 166.915 148.77 165.414V146.755H151.221ZM171.648 167.414C170.667 167.414 170.503 166.747 170.503 164.748V158.417C170.503 157.251 170.341 156.418 170.013 155.752C169.523 154.419 167.889 153.419 166.092 153.419C163.477 153.419 161.352 155.085 161.352 157.084C161.352 157.751 161.68 158.084 162.334 158.084C163.15 158.084 163.477 157.75 163.477 156.752V156.085C163.477 155.085 164.457 154.252 165.928 154.252C167.562 154.252 168.216 155.085 168.216 157.251V159.084C163.314 159.75 160.699 161.75 160.699 164.415C160.699 166.747 162.334 168.414 164.621 168.414C166.582 168.414 167.562 167.747 168.543 165.748C168.706 167.581 169.36 168.414 170.667 168.414C171.157 168.414 171.648 168.247 172.302 168.081V167.414H171.648ZM168.216 162.582C168.216 165.748 167.4 167.081 165.438 167.081C163.967 167.081 162.987 166.081 162.987 164.249C162.987 161.916 164.621 160.583 168.216 159.918V162.582ZM172.465 154.086V154.585C174.262 154.585 174.426 154.752 174.426 156.251V165.915C174.426 167.248 174.262 167.581 172.465 167.581V168.248C174.1 168.081 174.753 168.081 175.569 168.081C176.55 168.081 177.204 168.081 178.838 168.247V167.581C177.041 167.581 176.713 167.248 176.713 165.915V153.253C175.406 153.586 174.1 153.919 172.465 154.086ZM177.041 149.42C177.041 148.422 176.387 147.755 175.569 147.755C174.753 147.755 174.1 148.422 174.1 149.42C174.1 150.42 174.753 151.087 175.569 151.087C176.387 151.087 177.041 150.42 177.041 149.42ZM180.309 154.753C180.963 154.753 181.126 154.918 181.126 156.085V165.915C181.126 167.248 180.799 167.581 179.165 167.581V168.248C180.635 168.081 181.126 168.081 182.27 168.081C183.25 168.081 183.904 168.081 185.375 168.247V167.581C183.74 167.581 183.414 167.248 183.414 166.081V158.75C183.414 156.086 184.394 154.918 186.355 154.918C187.989 154.918 188.643 155.752 188.643 158.251V166.081C188.643 167.248 188.153 167.581 186.682 167.581V168.248C188.153 168.081 188.806 168.081 189.787 168.081C190.767 168.081 191.258 168.081 192.728 168.247V167.581C191.258 167.581 190.932 167.248 190.932 166.081V158.417C190.932 156.085 191.911 154.918 193.709 154.918C195.343 154.918 195.997 155.752 195.997 158.251V166.081C195.997 167.248 195.67 167.581 194.199 167.581V168.248C195.67 168.081 196.16 168.081 197.14 168.081C198.285 168.081 198.939 168.081 200.409 168.247V167.581C198.611 167.581 198.285 167.248 198.285 165.915V158.251C198.285 157.251 198.121 156.418 197.958 155.752C197.631 154.419 196.16 153.419 194.363 153.419C192.565 153.419 191.585 154.086 190.44 155.918C189.787 154.252 188.806 153.419 187.009 153.419C185.375 153.419 184.231 154.086 183.25 155.752C183.087 154.918 183.087 154.086 182.923 153.253C181.779 153.586 180.799 153.752 179.165 154.086V154.585C179.818 154.585 179.981 154.585 180.309 154.752" fill="#231F20"/>
<path fill-rule="evenodd" clip-rule="evenodd" d="M199.919 148.254V148.755C201.716 148.755 201.88 148.922 201.88 150.587V165.915C201.88 167.248 201.716 167.582 199.919 167.582V168.248C201.552 168.081 202.206 168.081 203.024 168.081C204.004 168.081 204.657 168.081 206.292 168.248V167.582C204.494 167.582 204.167 167.248 204.167 165.915V147.421C202.86 147.922 201.552 148.088 199.919 148.254ZM212.664 167.414C210.051 167.414 208.906 165.415 208.906 160.584H217.404C217.241 155.918 215.443 153.419 212.175 153.419C208.743 153.419 206.618 156.252 206.618 161.083C206.618 165.749 208.743 168.414 212.338 168.414C215.116 168.414 217.077 166.581 217.404 163.416H216.259C215.933 166.082 214.625 167.414 212.664 167.414H212.664ZM208.906 159.417C209.233 155.918 210.213 154.086 212.175 154.086C213.972 154.086 214.953 155.918 215.116 159.418H208.906M218.221 154.419C219.691 154.586 219.856 154.753 220.018 155.918V165.915C220.018 167.248 219.691 167.582 217.894 167.582V168.248C219.528 168.081 220.018 168.081 220.999 168.081C222.143 168.081 222.633 168.081 224.268 168.248V167.582C222.47 167.582 222.143 167.248 222.143 165.915V159.584C222.143 156.585 223.123 154.586 224.594 154.586C225.084 154.586 225.411 154.919 225.411 155.419V156.252C225.411 156.918 225.902 157.251 226.555 157.251C227.209 157.251 227.699 156.752 227.699 155.918C227.699 154.419 226.719 153.419 225.248 153.419C223.777 153.419 222.633 154.419 221.979 156.086V155.752C221.816 154.919 221.816 154.419 221.653 153.253C220.509 153.587 219.528 153.752 217.894 153.92V154.419H218.221ZM236.85 167.082C233.091 167.082 230.968 163.416 230.968 156.918C230.968 150.088 233.091 146.422 237.014 146.422C239.792 146.422 241.59 148.254 242.406 151.92H243.06V145.422H242.57L241.426 147.421C240.119 145.923 238.648 145.256 236.523 145.256C231.457 145.256 228.189 149.92 228.189 156.918C228.189 163.916 231.457 168.581 236.523 168.581C240.609 168.581 243.223 165.582 243.387 160.584H242.243C242.08 164.749 240.119 167.081 236.85 167.081M245.675 150.587V165.915C245.675 167.248 245.348 167.582 243.55 167.582V168.248C245.021 168.081 245.675 168.081 246.656 168.081C247.636 168.081 248.289 168.081 249.761 168.248V167.582C248.289 167.582 247.962 167.248 247.962 166.082V158.585C247.962 156.086 248.943 154.753 250.905 154.753C252.702 154.753 253.355 155.918 253.355 158.585V166.082C253.355 167.248 253.028 167.582 251.558 167.582V168.248C253.028 168.081 253.519 168.081 254.663 168.081C255.643 168.081 256.297 168.081 257.768 168.248V167.582C255.97 167.582 255.643 167.248 255.643 165.915V158.585C255.643 157.584 255.48 156.585 255.317 155.918C254.663 154.419 253.192 153.419 251.558 153.419C250.087 153.419 248.78 154.086 247.962 155.419V147.421C246.492 147.922 245.185 148.088 243.55 148.254V148.755C245.348 148.755 245.675 148.922 245.675 150.587" fill="#231F20"/>
<path fill-rule="evenodd" clip-rule="evenodd" d="M257.603 154.42C259.074 154.586 259.238 154.754 259.238 155.919V165.916C259.238 167.249 258.911 167.583 257.113 167.583V168.249C258.748 168.082 259.402 168.082 260.382 168.082C261.362 168.082 262.016 168.082 263.487 168.249V167.583C261.853 167.583 261.526 167.249 261.526 165.916V159.585C261.526 156.586 262.506 154.586 263.977 154.586C264.467 154.586 264.794 154.919 264.794 155.42V155.919C264.631 156.087 264.631 156.252 264.631 156.252C264.631 156.919 265.12 157.252 265.774 157.252C266.592 157.252 267.082 156.753 267.082 155.919C267.082 154.42 265.938 153.42 264.631 153.42C262.997 153.42 261.852 154.42 261.198 156.087V155.753C261.198 154.92 261.035 154.42 261.035 153.254C259.728 153.588 258.748 153.753 257.277 153.921V154.42H257.603Z" fill="#231F20"/>
<path fill-rule="evenodd" clip-rule="evenodd" d="M271.658 169.914C271.004 171.746 270.023 172.58 268.225 172.58H267.899V174.079H268.389C270.351 174.079 271.658 173.079 272.475 170.58L277.867 155.752C278.194 154.754 278.685 154.42 279.992 154.253V153.587C278.848 153.753 278.358 153.753 277.54 153.753C276.724 153.753 276.397 153.753 275.417 153.587V154.253C276.724 154.253 277.05 154.42 277.05 154.919C277.05 155.086 277.05 155.253 276.887 155.752L273.782 164.583L270.677 155.752V155.253C270.514 155.086 270.514 155.086 270.514 154.919C270.514 154.42 270.84 154.253 271.984 154.253V153.587C270.678 153.753 270.186 153.753 269.043 153.753C268.063 153.753 267.572 153.753 266.265 153.587V154.253C267.572 154.42 267.899 154.586 268.389 155.586L272.638 167.582L271.658 169.914M279.829 168.581L280.483 167.082C281.626 168.082 282.606 168.415 283.913 168.415C286.529 168.415 288.489 166.582 288.489 164.082C288.489 162.25 287.673 161.251 285.548 160.25L284.404 159.751C281.789 158.418 281.299 158.085 281.299 156.919C281.299 155.42 282.443 154.253 284.077 154.253C285.875 154.253 286.692 155.42 287.019 157.919H287.673V153.253H287.182L286.692 154.42C285.711 153.753 284.895 153.42 283.75 153.42C281.299 153.42 279.501 155.086 279.501 157.585C279.501 159.252 280.155 160.084 282.28 161.251L283.587 161.751L284.567 162.418C286.038 163.084 286.529 163.75 286.529 164.749C286.529 166.249 285.221 167.582 283.587 167.582C281.626 167.582 280.483 166.082 279.992 163.416H279.339V168.581H279.829M288.816 148.255V148.755C290.613 148.755 290.777 148.922 290.777 150.588V165.916C290.777 167.249 290.45 167.582 288.653 167.582V168.249C290.287 168.082 290.94 168.082 291.92 168.082C292.901 168.082 293.391 168.082 295.027 168.248V167.582C293.391 167.582 293.064 167.249 293.064 165.916V147.422C291.594 147.922 290.287 148.089 288.816 148.255ZM300.909 167.415C298.295 167.415 297.151 165.415 297.151 160.584H305.649C305.483 155.919 303.686 153.42 300.419 153.42C296.988 153.42 294.864 156.252 294.864 161.084C294.864 165.749 296.988 168.415 300.582 168.415C303.362 168.415 305.322 166.582 305.649 163.416H304.503C304.179 166.082 302.869 167.415 300.909 167.415ZM297.151 159.418C297.478 155.919 298.458 154.087 300.419 154.087C302.216 154.087 303.196 155.919 303.362 159.418H297.151" fill="#231F20"/>
<path fill-rule="evenodd" clip-rule="evenodd" d="M305.976 154.42C307.446 154.586 307.61 154.753 307.61 155.919V165.915C307.61 167.248 307.283 167.582 305.483 167.582V168.248C307.12 168.082 307.773 168.082 308.753 168.082C309.734 168.082 310.387 168.082 311.858 168.248V167.582C310.224 167.582 309.897 167.248 309.897 165.915V159.584C309.897 156.586 310.877 154.586 312.348 154.586C312.838 154.586 313.165 154.919 313.165 155.419V155.919C313.001 156.086 313.001 156.252 313.001 156.252C313.001 156.919 313.494 157.252 314.145 157.252C314.962 157.252 315.454 156.752 315.454 155.919C315.454 154.42 314.308 153.42 313.001 153.42C311.531 153.42 310.224 154.42 309.57 156.086V155.752C309.57 154.919 309.57 154.42 309.407 153.253C308.1 153.587 307.283 153.753 305.649 153.92V154.42H305.976ZM331.795 165.249V165.915C331.958 166.082 331.958 166.248 331.958 166.415C331.958 167.082 331.468 167.248 329.997 167.415V168.248C331.631 168.082 332.448 168.082 333.755 167.914C335.226 167.914 335.881 168.082 337.513 168.248V167.415C335.552 167.248 335.226 166.915 334.735 165.415L328.2 145.09L321.173 165.083C320.356 167.082 320.029 167.248 318.068 167.415V168.248C319.539 168.082 320.029 168.082 321.009 168.082C321.989 168.082 322.643 168.082 324.113 168.248V167.415C322.48 167.415 321.989 167.082 321.989 166.415C321.989 166.082 322.153 165.583 322.316 164.749L323.46 161.583H330.651L331.795 165.249ZM327.383 150.421L330.324 160.584H323.787L327.383 150.421Z" fill="#231F20"/>
<path fill-rule="evenodd" clip-rule="evenodd" d="M341.763 167.414C339.149 167.414 338.006 165.415 338.006 160.583H346.504C346.504 155.918 344.704 153.419 341.273 153.419C337.842 153.419 335.716 156.251 335.716 161.083C335.716 165.748 337.842 168.414 341.6 168.414C344.377 168.414 346.174 166.581 346.504 163.416H345.358C345.031 166.081 343.724 167.414 341.763 167.414ZM338.006 159.417C338.332 155.918 339.476 154.086 341.273 154.086C343.07 154.086 344.051 155.918 344.214 159.417H338.006M347.318 154.419C348.791 154.585 348.954 154.753 348.954 155.918V165.915C348.954 167.248 348.625 167.582 346.828 167.582V168.248C348.464 168.081 349.118 168.081 350.098 168.081C351.078 168.081 351.732 168.081 353.202 168.248V167.581C351.568 167.581 351.242 167.248 351.242 165.915V159.584C351.242 156.585 352.222 154.585 353.692 154.585C354.182 154.585 354.509 154.918 354.509 155.419V155.918C354.346 156.085 354.346 156.251 354.346 156.251C354.346 156.918 354.836 157.251 355.489 157.251C356.306 157.251 356.799 156.752 356.799 155.918C356.799 154.419 355.653 153.419 354.346 153.419C352.712 153.419 351.568 154.419 350.915 156.085V155.752C350.915 154.918 350.751 154.419 350.751 153.253C349.444 153.586 348.464 153.752 346.994 153.919V154.419H347.318ZM362.19 153.419C358.759 153.419 356.47 156.418 356.47 160.917C356.47 165.415 358.759 168.414 362.027 168.414C365.295 168.414 367.584 165.415 367.584 160.917C367.584 156.418 365.295 153.419 362.19 153.419V153.419ZM362.027 167.747C359.903 167.747 358.92 165.415 358.92 160.917C358.92 156.585 359.903 154.086 362.027 154.086C364.151 154.086 365.131 156.418 365.131 160.917C365.131 165.415 364.151 167.747 362.027 167.747ZM369.052 168.58L369.708 167.081C370.688 168.081 371.832 168.414 373.139 168.414C375.753 168.414 377.716 166.581 377.716 164.082C377.716 162.249 376.897 161.25 374.773 160.25L373.629 159.75C371.015 158.417 370.523 158.084 370.523 156.918C370.523 155.419 371.669 154.252 373.139 154.252C374.936 154.252 375.917 155.419 376.243 157.918H376.897V153.253H376.407L375.917 154.419C374.936 153.752 374.119 153.419 372.976 153.419C370.523 153.419 368.726 155.085 368.726 157.584C368.726 159.251 369.381 160.083 371.342 161.25L372.649 161.75L373.793 162.417C375.263 163.083 375.753 163.75 375.753 164.748C375.753 166.248 374.446 167.582 372.812 167.582C370.852 167.582 369.542 166.081 369.052 163.416H368.565V168.581H369.052M378.204 154.419C379.677 154.585 379.838 154.918 379.838 156.251V171.913C379.838 173.246 379.677 173.579 377.877 173.579V174.245C379.513 174.078 380.003 174.078 380.984 174.078C382.127 174.078 382.618 174.078 384.251 174.245V173.579C382.454 173.579 382.127 173.246 382.127 171.913V166.081C383.271 167.914 384.088 168.414 385.722 168.414C388.828 168.414 390.95 165.415 390.95 160.917C390.95 156.585 388.663 153.419 385.558 153.419C383.925 153.419 382.781 154.252 381.964 155.918V155.585C381.801 154.585 381.801 154.086 381.637 153.419C380.328 153.586 379.677 153.752 378.367 153.92H377.877V154.419H378.204ZM385.395 154.252C387.356 154.252 388.502 156.585 388.502 160.917C388.502 165.415 387.519 167.582 385.395 167.582C383.271 167.582 382.127 165.248 382.127 160.75C382.127 156.418 383.271 154.252 385.395 154.252ZM402.391 167.414C401.574 167.414 401.245 166.747 401.245 164.748V158.417C401.245 157.251 401.245 156.418 400.921 155.752C400.431 154.419 398.794 153.419 396.834 153.419C394.383 153.419 392.259 155.085 392.259 157.085C392.259 157.751 392.586 158.084 393.24 158.084C394.056 158.084 394.383 157.751 394.383 156.752V156.085C394.383 155.085 395.364 154.252 396.671 154.252C398.304 154.252 399.121 155.085 399.121 157.251V159.084C394.22 159.75 391.606 161.75 391.606 164.415C391.606 166.747 393.24 168.414 395.527 168.414C397.324 168.414 398.304 167.747 399.448 165.748C399.614 167.582 400.101 168.414 401.574 168.414C402.062 168.414 402.391 168.248 403.208 168.081V167.414H402.391ZM399.121 162.582C399.121 165.748 398.141 167.081 396.344 167.081C394.873 167.081 393.893 166.081 393.893 164.249C393.893 161.916 395.527 160.583 399.121 159.918V162.582ZM412.36 153.086L411.54 154.585C410.726 153.752 409.907 153.419 408.763 153.419C405.332 153.419 403.045 156.418 403.045 161.083C403.045 165.415 405.332 168.414 408.6 168.414C411.214 168.414 412.847 166.747 413.177 163.416H412.033C411.706 166.081 410.56 167.414 408.926 167.414C406.639 167.414 405.495 165.248 405.495 161.083C405.495 156.585 406.802 154.252 408.926 154.252C410.726 154.252 411.706 155.419 412.194 158.084H412.847V153.086H412.36ZM419.875 167.414C417.261 167.414 416.117 165.415 416.117 160.583H424.616C424.616 155.918 422.818 153.419 419.385 153.419C415.954 153.419 413.83 156.251 413.83 161.083C413.83 165.748 415.954 168.414 419.712 168.414C422.492 168.414 424.289 166.581 424.616 163.416H423.472C423.145 166.081 421.999 167.414 419.875 167.414ZM416.281 159.417C416.444 155.918 417.588 154.086 419.385 154.086C421.182 154.086 422.162 155.918 422.328 159.417H416.281" fill="#231F20"/>
</svg>
