<svg width="480" height="320" viewBox="0 0 480 320" fill="none" xmlns="http://www.w3.org/2000/svg">
<path fill-rule="evenodd" clip-rule="evenodd" d="M408.526 195.278L409.482 192.709H147.639L146.675 195.278H408.526ZM98.6782 169.416C99.9021 168.252 103.253 167.806 104.985 169.422C106.917 171.226 106.431 173.297 105.113 174.797C103.196 176.985 96.0539 182.068 94.1816 183.223H92.9239C92.4688 182.619 89.7661 178.361 89.2103 176.362C88.6186 174.239 88.7214 171.568 91.0853 169.65C93.4634 167.708 96.152 167.798 98.6782 169.416ZM110.02 185.365C112.046 184.439 113.742 181.939 112.835 179.482C111.965 177.125 109.255 177.092 107.377 177.774C103.914 179.034 96.7071 183.611 95.4934 184.506L95.0498 185.687C95.8612 186.896 98.4659 190.009 100.209 191.354C101.956 192.705 104.513 193.499 107.091 192.054C109.766 190.56 110.622 187.765 110.02 185.365ZM87.7024 200.596C86.4744 201.748 83.1036 202.194 81.3645 200.586C79.4205 198.794 79.9073 196.736 81.2333 195.247C83.1604 193.075 90.3408 188.024 92.2226 186.877H93.4871C93.9476 187.476 96.6625 191.707 97.223 193.695C97.8194 195.801 97.7139 198.458 95.3385 200.362C92.9455 202.294 90.2428 202.201 87.7024 200.596ZM76.4148 184.632C74.3897 185.558 72.6938 188.058 73.5999 190.515C74.4708 192.874 77.1803 192.905 79.058 192.223C82.5214 190.963 89.7302 186.386 90.942 185.491L91.3882 184.311C90.5748 183.1 87.9701 179.988 86.2263 178.643C84.4797 177.295 81.923 176.498 79.3441 177.944C76.6725 179.437 75.8137 182.233 76.4148 184.632Z" fill="#65696E"/>
<path d="M180.955 167.219C180.13 171.544 175.655 179.602 167.47 179.602H160.538L168.41 157.873H175.258C179.34 157.873 181.995 161.826 180.955 167.219ZM175.755 151.796H162.623L150.434 185H166.809C177.534 185 185.728 178.82 188.257 167.751C190.294 158.822 185.719 151.843 175.755 151.795M199.657 173.176L209.688 158.975L209.358 173.175L199.657 173.176ZM216.998 184.998L216.462 151.795H207.965L182.774 184.998H191.274L196.44 177.82H209.291L209.093 184.998H216.998M303.218 173.176L313.251 158.975L312.919 173.175L303.218 173.176ZM320.559 184.998L320.025 151.795H311.529L286.339 184.998H294.836L300.005 177.82H312.853L312.655 184.998H320.56" fill="#65696E"/>
<path fill-rule="evenodd" clip-rule="evenodd" d="M229.654 174.254C228.962 177.246 229.664 179.607 236.357 179.607C241.364 179.607 244.126 177.716 244.599 175.354C245.439 171.12 240.336 171.752 235.072 170.132C230.67 168.778 226.646 167.64 227.56 161.986C228.288 157.506 233.727 150.908 245.446 150.908C256.047 150.908 258.842 154.986 257.259 161.056H249.94C250.427 160.111 250.245 158.492 249.232 157.675C248.044 156.712 246.009 156.115 243.891 156.115C240.387 156.115 236.412 158.062 235.912 160.519C235.136 164.274 242.562 164.664 244.318 165.026C249.098 166.013 254.654 167.156 253.32 173.665C252.108 179.569 244.73 185.494 234.122 185.494C225.492 185.494 220.265 181.702 221.99 174.257L229.654 174.254ZM265.459 174.254C264.768 177.246 265.466 179.607 272.162 179.607C277.172 179.607 279.934 177.716 280.402 175.354C281.244 171.12 276.144 171.752 270.874 170.132C266.474 168.778 262.452 167.64 263.365 161.986C264.093 157.506 269.534 150.908 281.254 150.908C291.852 150.908 294.648 154.986 293.064 161.056H285.746C286.23 160.111 286.051 158.492 285.037 157.675C283.849 156.712 281.814 156.115 279.694 156.115C276.189 156.115 272.22 158.062 271.715 160.519C270.941 164.274 278.367 164.664 280.123 165.026C284.904 166.013 290.461 167.156 289.125 173.665C287.911 179.569 280.536 185.494 269.928 185.494C261.297 185.494 256.071 181.702 257.796 174.257L265.459 174.254ZM358.272 171.915C356.432 176.134 353.78 185.79 337.649 185.79C328.846 185.79 325.606 181.384 326.62 176.118C327.156 173.317 327.81 171.382 328.697 169.187L335.25 151.796H343.387L336.65 169.746C336.028 171.332 335.448 172.988 334.971 174.691C333.988 178.207 336.271 179.815 339.14 179.815C347.796 179.815 348.725 175.297 350.4 171.687L357.878 151.795H365.664L358.272 171.915ZM373.25 151.795H381.37L371.213 178.866H389.998L387.45 185.001H360.72L373.25 151.795ZM422.135 157.926H410.868L400.704 184.999H392.419L402.65 157.926H390.592L393.104 151.795H424.615L422.134 157.926" fill="#65696E"/>
<path d="M149.298 215.172H145.135L149.577 209.003L149.298 215.172ZM149 205.656L137.18 221.169H140.808L143.346 217.717H149.174L149.093 221.169H152.497L152.514 205.657H148.999M253.155 215.172H248.992L253.433 209.003L253.155 215.172ZM252.856 205.656L241.037 221.169H244.664L247.203 217.717H253.03L252.947 221.169H256.351L256.37 205.657H252.856" fill="#65696E"/>
<path fill-rule="evenodd" clip-rule="evenodd" d="M181.781 221.171H177.934L178.757 205.656H182.168L181.237 217.304H181.278L189.126 205.656H192.671L181.781 221.171ZM218.288 205.656H221.749L215.824 221.171H212.353L218.288 205.656ZM321.155 205.656H324.616L318.691 221.171H315.22L321.155 205.656ZM286.165 208.526H281.294L282.391 205.654H295.34L294.251 208.526H289.605L284.822 221.171H281.394L286.165 208.526Z" fill="#65696E"/>
<path d="M361.264 212.168C360.77 215.111 358.478 218.687 355.105 218.687C352.61 218.687 351.885 216.814 352.24 214.677C352.741 211.69 354.933 208.136 358.463 208.136C360.975 208.136 361.626 209.988 361.264 212.168ZM358.922 205.26C353.648 205.26 349.649 209.641 348.8 214.677C348.061 219.057 350.2 221.566 354.58 221.566C360.045 221.566 363.878 217.053 364.735 211.932C365.467 207.568 363.144 205.26 358.922 205.26Z" fill="#65696E"/>
<path fill-rule="evenodd" clip-rule="evenodd" d="M391.554 205.656H395.089L397.462 216.696H397.505L401.594 205.656H404.733L398.822 221.171H395.403L392.963 210.284H392.913L388.851 221.17H385.644L391.554 205.656ZM79.7808 221.171C87.4494 206.958 104.42 195.17 119.348 189.483C115.61 173.61 113.778 145.82 116.392 123.872C104.076 145.448 78.8118 175.845 63.8601 191.518C67.6054 193.819 72.0777 198.333 73.8169 202.093C72.3238 203.604 71.7748 203.953 70.0722 205.584C66.3241 199.564 62.672 196.279 55.3848 192.713C78.185 168.586 102.891 140.698 124.788 98.4336C119.388 133.221 118.646 167.763 125.809 192.706C107.65 198.519 92.7027 211.145 86.7218 221.171H79.7815" fill="#65696E"/>
</svg>
