<svg width="480" height="320" viewBox="0 0 480 320" fill="none" xmlns="http://www.w3.org/2000/svg">
<path fill-rule="evenodd" clip-rule="evenodd" d="M370.908 145.381H406.216C407.182 145.381 408.008 144.967 408.285 143.726C408.699 142.071 406.491 124.969 374.632 124.969C374.632 124.969 373.942 124.969 373.804 125.521C373.804 126.072 374.081 126.21 374.355 126.348C376.011 126.762 391.595 131.865 391.595 137.52C391.595 138.622 391.182 140.14 385.666 140.14H372.425C371.598 140.14 369.668 140.278 369.116 142.76C368.564 145.243 370.356 145.381 370.908 145.381ZM368.564 154.897C367.874 154.897 366.22 154.621 366.77 152.276C367.322 149.794 369.254 149.657 370.081 149.657H403.734C404.284 149.657 406.078 149.794 405.526 152.276C404.974 154.621 398.631 169.793 363.323 169.793C362.909 169.793 362.634 169.516 362.634 169.103C362.634 168.689 363.048 168.551 363.461 168.413C363.736 168.413 382.77 164.138 384.425 158.621C384.425 158.621 385.942 154.897 380.976 154.897H368.564V154.897ZM109.14 182.343H88.1766C85.9703 182.343 84.5907 180.274 85.2799 177.792L88.0383 166.759C88.7285 164.276 91.2108 162.208 93.4171 162.208H114.382L109.14 182.343ZM122.518 131.727L117.691 149.518H91.4866C85.6941 149.518 79.6256 154.621 78.1085 160.965L72.0397 183.583C70.5226 189.929 73.8327 195.032 79.4877 195.032H118.381L135.069 131.727H122.518ZM232.99 149.518L224.44 182.343H203.476C201.269 182.343 199.89 180.274 200.58 177.792L207.889 149.518H196.304L187.478 183.583C185.822 189.929 189.132 195.032 194.787 195.032H233.68L245.541 149.518H232.99Z" fill="#C90015"/>
<path fill-rule="evenodd" clip-rule="evenodd" d="M312.294 195.031H299.744L311.606 149.517H324.156L312.294 195.031V195.031ZM325.396 145.381H312.846L316.432 131.727H328.982L325.396 145.381ZM333.257 195.031L341.809 162.207H351.048L354.359 149.517H342.911C337.258 149.517 331.19 154.62 329.534 160.965L320.708 195.031L333.257 195.031Z" fill="#666465"/>
<path fill-rule="evenodd" clip-rule="evenodd" d="M175.341 149.518L166.79 182.343H145.827C143.621 182.343 142.242 180.274 142.931 177.791L145.69 166.758C146.379 164.276 148.862 162.207 151.068 162.207H167.481L170.79 149.518H149.137C143.345 149.518 137.276 154.621 135.759 160.965L129.829 183.583C128.174 189.928 131.484 195.031 137.139 195.031H176.031L187.892 149.518H175.341Z" fill="#C90015"/>
<path fill-rule="evenodd" clip-rule="evenodd" d="M290.642 149.518L282.091 182.343H261.127C258.92 182.343 257.541 180.274 258.231 177.791L260.989 166.758C261.679 164.276 264.161 162.207 266.369 162.207H282.78L286.091 149.518H264.436C258.645 149.518 252.577 154.621 251.059 160.965L245.129 183.583C243.474 189.928 246.783 195.031 252.577 195.031H291.33L303.192 149.518H290.642Z" fill="#666465"/>
</svg>
