<svg width="480" height="320" viewBox="0 0 480 320" fill="none" xmlns="http://www.w3.org/2000/svg">
<path d="M123.951 182.375L90.9785 166.498V131.568L123.951 182.375ZM126.572 188.43L90.9785 173.402V188.43H126.572Z" fill="#98002E"/>
<path d="M58.0059 182.375L90.9782 131.568V166.498L58.0059 182.375Z" fill="#E31837"/>
<path d="M55.3848 188.43H90.9786V173.402L55.3848 188.43Z" fill="#E31837"/>
<path d="M129.453 178.018C130.745 178.018 131.816 179.051 131.816 180.344C131.816 181.636 130.782 182.707 129.49 182.707C128.198 182.707 127.127 181.673 127.127 180.381C127.127 179.051 128.161 178.018 129.453 178.018ZM129.453 182.338C130.561 182.338 131.447 181.451 131.447 180.344C131.447 179.236 130.561 178.35 129.453 178.35C128.345 178.35 127.459 179.236 127.459 180.344C127.459 181.451 128.345 182.338 129.453 182.338ZM128.936 181.71H128.604V179.015H129.638C130.265 179.015 130.487 179.273 130.487 179.753C130.524 180.159 130.192 180.491 129.822 180.528L130.635 181.71H130.265L129.453 180.528H128.973L128.936 181.71ZM128.936 180.196H129.379C129.748 180.196 130.155 180.159 130.155 179.716C130.155 179.384 129.822 179.273 129.564 179.273H128.973V180.196H128.936Z" fill="#98002E"/>
<path d="M154.375 182.375H170.363C186.83 182.375 196.615 173.846 196.615 159.704C196.615 145.563 186.83 137.07 170.363 137.07H154.375V182.375ZM164.492 144.935H170.363C181.033 144.935 186.387 150.215 186.387 159.704C186.387 169.193 181.033 174.473 170.363 174.473H164.492V144.935Z" fill="#003D79"/>
<path d="M250.264 154.867H231.027V144.935H252.775V137.07H220.873V182.375H253.476V174.51H231.027V162.732H250.264V154.867Z" fill="#003D79"/>
<path d="M291.619 137.07H281.465V182.375H311.151V174.51H291.619V137.07Z" fill="#003D79"/>
<path d="M325.145 144.935H340.357V182.375H350.548V144.935H365.797V137.07H325.145V144.935Z" fill="#003D79"/>
<path d="M424.614 182.374H414.017L409.587 171.039H391.162L386.731 182.374H376.836L395.777 136.885H406.005L424.614 182.374ZM406.707 163.432L400.393 147.334L394.042 163.432H406.707Z" fill="#003D79"/>
</svg>
