<svg width="480" height="320" viewBox="0 0 480 320" fill="none" xmlns="http://www.w3.org/2000/svg">
<mask id="mask0_730_18674" style="mask-type:luminance" maskUnits="userSpaceOnUse" x="55" y="118" width="370" height="84">
<path d="M55.3848 118.482H424.744V201.517H55.3848V118.482Z" fill="white"/>
</mask>
<g mask="url(#mask0_730_18674)">
<path d="M424.616 118.352V201.516H55.3848V118.352H424.616Z" fill="#FFCC00"/>
</g>
<path fill-rule="evenodd" clip-rule="evenodd" d="M120.326 133.32L108.615 149.719H173.429C174.175 149.994 175.481 149.656 175.511 150.89V151.411C173.286 155.322 170.134 158.94 167.7 162.734V163.124L167.57 163.385L167.7 163.515C167.744 164.788 170.355 164.742 171.214 164.686H197.504L205.313 153.884L205.706 153.233C207.758 149.851 207.521 145.413 205.574 142.04L205.183 141.129L204.532 140.348C200.964 135.062 194.439 133.403 188.394 133.32H120.326Z" fill="#D40511"/>
<path fill-rule="evenodd" clip-rule="evenodd" d="M103.798 186.551L127.485 153.754H157.421C160.104 153.984 160.009 155.172 158.46 157.137L152.473 165.597L152.213 165.988L151.823 166.508L151.69 166.768V167.81L151.823 168.07L152.083 168.33L152.473 168.46L152.996 168.591L153.647 168.721H153.907L154.297 168.851H194.513L193.863 169.762C186.422 179.803 174.264 186.928 161.586 186.551H103.798ZM239.542 168.851L226.66 186.551H192.819L205.574 168.851H239.542ZM291.474 164.686H208.439L231.215 133.32H265.052L252.037 151.411H267.134L280.149 133.32H314.117L291.474 164.686ZM288.48 168.851L275.596 186.551H241.757L254.64 168.851H288.48ZM55.3848 175.749H105.362L102.626 179.653H55.3848V175.749ZM55.3848 168.851H110.438L107.702 172.495H55.3848V168.851ZM55.3848 182.777H100.284L97.5507 186.551H55.3848V182.777ZM424.616 179.653H374.899L377.632 175.749H424.616V179.653ZM424.616 186.551H369.823L372.684 182.777H424.616V186.551ZM382.706 168.851H424.616V172.495H380.103L382.706 168.851ZM361.101 133.32L338.325 164.686H302.406L325.182 133.32H361.101ZM299.543 168.851L295.899 173.927C289.584 183.163 302.109 187.065 309.304 186.551H363.706L376.591 168.851H299.543Z" fill="#D40511"/>
</svg>
