<svg width="480" height="320" viewBox="0 0 480 320" fill="none" xmlns="http://www.w3.org/2000/svg">
<path d="M142.975 148.482L118.781 124.909L96.863 146.011L112.47 123.959L89.0589 146.011L104.482 124.805L81.3854 146.011L96.678 124.805L73.4512 146.264L89.0586 124.719L65.9064 146.011L81.2535 124.973L55.3848 148.482L79.6685 172.141L102.715 150.066L83.4396 175.816L110.259 150.066L87.4713 179.745L117.672 150.066L91.3738 183.546L125.606 150.066L95.5359 187.603L133.021 150.066L99.1789 191.153L142.975 148.482Z" fill="#0C4F87"/>
<path d="M394.541 155.418C393.654 159.479 393.393 165.018 398.32 165.018C403.246 165.018 405.403 159.479 406.289 155.418C407.189 151.294 407.753 145.817 402.51 145.817C397.268 145.817 395.441 151.294 394.541 155.417M403.913 166.31H403.659C401.197 170.064 396.399 171.787 391.915 171.787C382.884 171.787 380.518 163.232 382.199 155.541C383.983 147.355 390.028 139.047 399.439 139.047C403.419 139.047 407.102 140.402 408.742 143.602H408.867L412.615 126.432H424.616L414.918 170.865H403.233L403.913 166.31M360.096 143.355C363.482 140.278 366.91 139.047 370.951 139.047C377.774 139.047 381.885 143.355 380.393 150.185L375.882 170.864H363.881L367.842 152.711C368.374 149.694 368.329 146.432 364.602 146.432C358.665 146.432 358.04 152.771 357.959 153.14L354.091 170.864H342.091L347.099 147.91C347.704 145.14 348.045 143.294 348.455 139.971H360.644L360.096 143.355ZM321.951 165.018C327.004 165.018 329.219 159.787 330.174 155.418C331.127 151.048 331.195 145.817 326.141 145.817C321.089 145.817 318.874 151.048 317.92 155.418C316.966 159.786 316.899 165.018 321.951 165.018ZM342.489 155.418C340.004 166.802 330.391 171.787 320.475 171.787C310.558 171.787 303.119 166.802 305.604 155.418C308.089 144.032 317.704 139.047 327.62 139.047C337.536 139.047 344.976 144.032 342.489 155.418M261.306 145.078H261.431C264.569 140.833 269.087 139.231 273.825 139.231C277.675 139.231 281.605 141.202 282.111 144.955C285.064 141.264 289.879 139.171 294.645 139.047C301.465 139.047 305.578 143.355 304.088 150.186L299.574 170.864H287.573L291.536 152.711C292.068 149.694 292.021 146.432 288.295 146.432C282.358 146.432 281.732 152.77 281.652 153.141L277.783 170.864H265.783L269.744 152.711C270.277 149.694 270.232 146.432 266.505 146.432C260.568 146.432 259.941 152.77 259.862 153.141L255.993 170.864H243.992L249.002 147.91C249.607 145.14 249.948 143.294 250.356 139.971H262.231L261.306 145.078ZM225.695 165.018C230.875 165.018 232.351 160.279 233.252 156.156C230.725 156.156 228.352 156.033 226.535 156.834C224.578 157.695 222.947 158.802 222.478 160.956C221.994 163.172 223.422 165.018 225.695 165.018ZM230.484 170.865C230.445 169.879 230.661 168.894 231.145 166.679H231.017C229.081 168.894 225.734 171.787 219.797 171.787C212.282 171.787 209.225 167.849 210.736 161.51C212.5 154.002 220.245 150.925 230.604 150.925H234.393C234.983 148.217 236.475 144.279 231.635 144.464C228.702 144.585 227.15 147.355 226.811 149.202H215.505C216.396 144.833 219.283 142.309 222.814 140.894C226.42 139.416 230.606 139.047 234.143 139.047C240.585 139.047 247.776 141.694 246.133 148.647L242.668 164.526C242.386 165.817 242.342 167.171 241.979 170.865H230.484M201.824 134.678L203.625 126.432H215.751L213.951 134.678H201.824ZM193.99 170.865L200.732 139.971H212.732L205.99 170.865H193.99ZM160.637 162.248H166.574C173.459 162.248 180.932 157.818 182.933 148.648C184.934 139.479 179.395 135.048 172.511 135.048H166.574L160.637 162.248ZM175.087 126.432C190.749 126.432 199.783 132.215 196.195 148.647C192.611 165.079 181.052 170.864 165.388 170.864H146.125L155.822 126.432H175.087ZM403.262 195.763L406.621 179.671H400.603L401.049 177.523H415.551L415.103 179.671H409.082L405.725 195.763H403.262ZM389.309 177.523H400.005L399.556 179.671H391.399L390.23 185.354H397.916L397.467 187.478H389.782L388.04 195.763H385.503L389.309 177.523ZM372.37 188.968H379.162L377.719 180.025L372.37 188.968ZM377.021 177.523H379.683L383.142 195.763H380.43L379.485 191.014H371.152L368.216 195.763H365.654L377.021 177.523ZM355.805 185.38H359.734C360.008 185.38 361.427 185.38 362.198 184.975C362.57 184.773 363.591 184.116 363.915 182.601C364.535 179.645 361.948 179.645 360.953 179.645H357.024L355.805 185.38ZM355.034 177.523H361.45C362.372 177.523 364.262 177.523 365.406 178.382C366.575 179.241 366.922 180.63 366.624 182.095C366.352 183.384 365.654 184.521 364.684 185.329C363.739 186.112 362.893 186.365 362.321 186.517C363.938 186.972 364.535 187.755 364.312 190.028C364.113 192.176 363.964 193.743 364.237 195.764H361.575C361.426 194.551 361.65 192.327 361.774 190.938C362.024 188.286 361.55 187.528 358.541 187.528H355.406L353.691 195.764H351.228L355.034 177.523ZM348.542 182.45C348.568 181.819 348.791 179.291 345.333 179.291C341.005 179.291 339.289 183.788 338.643 186.819C337.92 190.255 338.12 193.97 342.223 193.97C343.318 193.97 344.413 193.693 345.359 192.884C346.154 192.177 346.477 191.393 346.627 190.963H349.362C348.244 194.551 344.687 196.041 341.601 196.041C335.284 196.041 335.235 190.382 335.98 186.845C336.777 183.005 339.463 177.271 345.856 177.271C348.393 177.271 351.751 178.306 351.203 182.45H348.542ZM323.121 185.38H327.05C327.324 185.38 328.743 185.38 329.514 184.975C329.886 184.773 330.906 184.116 331.231 182.601C331.851 179.645 329.264 179.645 328.27 179.645H324.341L323.121 185.38ZM322.35 177.523H328.767C329.687 177.523 331.578 177.523 332.723 178.382C333.891 179.241 334.238 180.63 333.941 182.095C333.668 183.384 332.97 184.521 332.001 185.329C331.055 186.112 330.21 186.365 329.638 186.517C331.255 186.972 331.851 187.755 331.627 190.028C331.429 192.176 331.28 193.743 331.554 195.764H328.892C328.743 194.551 328.967 192.327 329.09 190.938C329.34 188.286 328.867 187.528 325.858 187.528H322.722L321.007 195.764H318.545L322.35 177.523ZM315.734 177.523H318.22L314.416 195.763H311.928L315.734 177.523ZM298.969 188.968H305.76L304.317 180.025L298.969 188.968ZM303.62 177.523H306.282L309.741 195.763H307.028L306.084 191.014H297.751L294.815 195.763H292.253L303.62 177.523Z" fill="#323235"/>
</svg>
