<svg width="480" height="320" viewBox="0 0 480 320" fill="none" xmlns="http://www.w3.org/2000/svg">
<g clip-path="url(#clip0_730_18434)">
<mask id="mask0_730_18434" style="mask-type:luminance" maskUnits="userSpaceOnUse" x="-1249" y="-3390" width="6084" height="3904">
<path d="M-1248.02 513.166H4834.03V-3389.03H-1248.02V513.166Z" fill="white"/>
</mask>
<g mask="url(#mask0_730_18434)">
<path d="M326.131 55.9086H335.7V76.89H326.895C326.895 76.89 325.324 63.0527 306.455 64.491C306.455 64.491 286.37 66.3329 286.418 89.3317C286.418 89.3317 286.731 111.21 308.923 112.022C308.923 112.022 322.851 113.052 327.972 99.756H338.259C338.259 99.756 336.104 117.187 315.754 121.003C315.754 121.003 294.549 125.228 282.824 109.369C282.824 109.369 268.493 92.3413 280.308 70.42C280.308 70.42 289.47 54.6506 308.743 54.3801C308.743 54.3801 319.086 53.9339 326.14 60.2663L326.131 55.9086ZM127.157 84.3019C123.606 52.9437 90.8144 55.2791 90.8144 55.2791L68.9785 55.2364V63.3204H76.3931V110.671H68.9785V119.03L94.4078 119.073C107.524 118.85 114.758 112.921 114.758 112.921C129.582 102.316 127.157 84.3019 127.157 84.3019ZM107.661 106.09C107.661 106.09 100.83 111.17 87.126 110.671V63.5008C87.126 63.5008 110.937 60.7619 115.702 81.2923C115.702 81.2923 120.06 96.2499 107.661 106.09ZM406.323 70.5543C402.122 63.301 390.691 53.7834 375.235 54.9227C353.727 56.4939 336.173 77.2237 346.122 100.835C349.17 108.069 354.653 113.139 361.308 116.827C366.534 119.723 374.86 121.859 383.053 120.331C403.717 116.471 419.235 92.8554 406.323 70.5543ZM381.164 110.898C375.719 111.843 370.512 110.424 366.971 108.653C346.635 98.4852 351.501 66.3533 375.862 64.5352C381.648 64.0985 385.731 65.6032 389.163 67.5875C407.562 78.2443 402.298 107.224 381.164 110.898ZM196.612 70.5543C192.41 63.301 180.98 53.7834 165.524 54.9227C144.016 56.4939 126.461 77.2237 136.411 100.835C139.459 108.069 144.941 113.139 151.596 116.827C156.823 119.723 165.149 121.859 173.342 120.331C194.006 116.471 209.523 92.8554 196.612 70.5543ZM171.453 110.898C166.008 111.843 160.805 110.424 157.255 108.653C136.924 98.4852 141.789 66.3533 166.15 64.5352C171.937 64.0985 176.019 65.6032 179.451 67.5875C197.851 78.2443 192.586 107.224 171.453 110.898Z" fill="#9D9DA0"/>
<path d="M311.395 223.795C296.39 212.967 272.892 220.918 272.892 220.918L224.735 235.069C224.735 235.069 203.402 241.401 190.514 245.109C184.998 246.694 180.887 247.696 180.887 247.696C161.885 251.332 156.446 239.92 156.446 239.92C149.98 228.333 160.267 220.876 160.267 220.876C171.859 213.779 178.324 222.314 178.324 222.314C180.93 226.04 179.672 230.398 179.672 230.398L195.755 225.457C184.974 211.98 190.59 201.152 190.59 201.152C204.024 219.931 220.24 217.145 220.24 217.145C242.299 215.573 246.03 192.978 246.03 192.978C249.4 201.2 254.835 207.129 254.835 207.129C263.593 217.686 278.014 216.38 278.014 216.38C290.684 215.44 296.613 204.209 296.613 204.209C305.328 189.517 297.648 174.242 297.648 174.242C285.785 150.654 257.574 151.737 257.574 151.737L251.194 136.774C253.62 124.418 263.1 123.388 263.1 123.388C267.324 122.757 266.65 124.826 266.65 124.826C261.979 129.768 263.821 136.461 263.821 136.461C268.492 149.264 281.162 144.683 281.162 144.683C293.741 140.187 290.551 127.926 290.551 127.926C286.369 113.595 271.682 114.312 271.682 114.312C254.968 115.389 249.219 131.743 249.219 131.743L239.892 108.155C249.234 101.865 253.53 97.1945 253.53 97.1945C265.483 84.392 261.395 69.3869 261.395 69.3869C257.754 51.4151 244.904 53.3945 244.904 53.3945C228.328 54.5148 217.994 73.4313 217.994 73.4313C211.752 85.9205 212.155 96.7008 212.155 96.7008C212.065 107.979 215.255 117.321 215.255 117.321C201.105 126.891 192.926 135.649 192.926 135.649C178.505 148.903 180.346 168.626 180.346 168.626C180.978 185.43 187.49 196.168 187.49 196.168C184.438 201.736 183.043 212.744 183.043 212.744C172.172 208.249 162.289 213.779 162.289 213.779C145.532 223.301 151.1 241.587 151.1 241.587C155.012 256.905 169.163 262.653 169.163 262.653C184.03 269.261 199.082 263.869 199.082 263.869L226.89 255.514L270.286 242.887C289.203 236.778 295.493 236.332 295.493 236.332C316.787 233.317 318.852 245.541 318.852 245.541C320.784 253.805 310.944 258.927 310.944 258.927C301.198 263.688 295.445 260.408 295.445 260.408C290.504 257.176 292.212 254.299 292.212 254.299C292.839 252.277 292.165 250.392 292.165 250.392C289.877 245.27 284.351 247.112 284.351 247.112C275.095 250.074 279.586 258.97 279.586 258.97C284.214 267.239 297.425 266.655 297.425 266.655C321.681 265.35 323.974 247.606 323.974 247.606C326.803 232.961 311.395 223.795 311.395 223.795ZM295.777 181.457C295.777 181.457 299.532 196.139 287.945 198.997C287.945 198.997 279.538 202.182 272.85 188.065L259.126 156.161C259.126 156.161 289.739 156.408 295.777 181.457ZM242.612 185.07C242.612 185.07 245.488 191.269 238.838 196.885C238.838 196.885 231.115 202.41 222.442 193.382C222.442 193.382 215.388 186.551 209.82 170.017C209.82 170.017 220.914 161.349 231.381 158.924L242.612 185.07ZM231.157 70.5119C231.157 70.5119 231.741 62.3805 237.224 58.92C237.224 58.92 241.943 55.1889 245.308 62.6463C245.308 62.6463 249.984 70.4218 250.159 83.585C250.159 83.585 250.61 94.5884 244.098 99.8005L238.34 103.845C238.34 103.845 230.797 88.7022 231.157 70.5119ZM216.466 121.366C216.466 121.366 219.133 128.757 222.138 136.456C225.632 145.4 229.809 154.789 229.809 154.789C221.365 156.859 207.978 165.707 207.978 165.707C205.059 160.001 203.17 152.05 203.17 152.05C197.055 131.14 216.466 121.366 216.466 121.366Z" fill="#9D9DA0"/>
</g>
</g>
<defs>
<clipPath id="clip0_730_18434">
<rect width="480" height="320" fill="white"/>
</clipPath>
</defs>
</svg>
