<svg width="480" height="320" viewBox="0 0 480 320" fill="none" xmlns="http://www.w3.org/2000/svg">
<path fill-rule="evenodd" clip-rule="evenodd" d="M110.624 123.947H93.5633V152.839H93.3784C91.2272 149.984 88.7367 147.939 85.9085 146.702C83.0803 145.655 79.9294 145.133 76.4565 145.133C69.6634 145.292 64.4688 147.99 60.8718 153.231C57.2141 158.375 55.3848 164.234 55.3848 170.807C55.3848 178.492 57.3364 184.938 61.2415 190.147C65.0216 195.45 70.5703 198.181 77.8866 198.34C81.9141 198.277 85.4633 197.267 88.537 195.309C91.5803 193.371 93.6552 190.97 94.7626 188.11H94.9925V197.168H110.625V123.947H110.624ZM72.9393 171.188C72.9393 167.69 73.8618 164.733 75.7068 162.317C77.398 159.9 79.9199 158.66 83.2731 158.596C86.4726 158.66 88.9787 159.899 90.7933 162.317C92.6391 164.733 93.5936 167.928 93.6544 171.902C93.5936 175.655 92.5783 178.708 90.6093 181.061C88.6715 183.539 86.2252 184.813 83.273 184.876C80.0439 184.876 77.5526 183.572 75.7987 180.965C73.893 178.549 72.9393 175.29 72.9393 171.188Z" fill="#CF0038"/>
<path fill-rule="evenodd" clip-rule="evenodd" d="M118.391 195.229C125.556 197.373 132.857 198.446 140.298 198.446C148.867 198.515 156.323 196.8 162.666 193.296C169.112 189.76 172.437 183.31 172.642 173.945C172.642 170.513 172.174 167.636 171.237 165.313C170.267 162.956 168.932 160.996 167.232 159.435C165.603 157.876 163.746 156.558 161.666 155.483C159.62 154.443 157.454 153.593 155.164 152.934C153.069 152.247 150.971 151.571 148.869 150.906C146.753 150.282 144.846 149.675 143.147 149.085C141.448 148.462 140.095 147.682 139.089 146.745C138.014 145.844 137.477 144.648 137.477 143.156C137.616 139.965 139.253 137.972 142.386 137.175C143.813 136.76 145.276 136.482 146.774 136.343C148.271 136.273 149.628 136.238 150.848 136.238C156.628 136.238 162.164 137.365 167.457 139.622L168.71 124.303C163.459 122.537 157.143 121.62 149.763 121.551C146.022 121.551 142.298 121.863 138.591 122.488C134.849 123.216 131.4 124.43 128.243 126.129C125.153 127.828 122.648 130.168 120.725 133.151C118.7 136.132 117.688 139.86 117.688 144.333C117.756 150.886 119.645 155.688 123.354 158.741C125.053 160.301 126.959 161.601 129.074 162.642C131.153 163.717 133.251 164.618 135.364 165.346C137.652 166.041 139.818 166.717 141.864 167.374C143.908 168 145.746 168.675 147.375 169.403C149.109 170.097 150.46 171.015 151.429 172.161C152.365 173.304 152.834 174.761 152.834 176.529C152.764 179.442 151.513 181.385 149.082 182.355C146.753 183.361 143.905 183.829 140.534 183.759C132.161 183.621 125.334 181.99 120.054 178.867L118.391 195.229Z" fill="#343A90"/>
<path fill-rule="evenodd" clip-rule="evenodd" d="M177.686 197.168H196.856V171.171H204.509C223.908 170.963 233.748 162.984 234.024 147.235C234.096 130.894 223.101 122.76 201.044 122.829H177.686V197.168ZM196.855 136.878H202.158C205.765 136.878 208.794 137.555 211.248 138.907C213.593 140.47 214.802 143.126 214.873 146.876C214.802 150.658 213.593 153.332 211.248 154.895C208.795 156.457 205.765 157.203 202.158 157.133H196.855V136.878ZM227.838 197.168H247.319L253.007 181.31H280.039L285.374 197.168H306.415L278.681 122.829H255.171L227.838 197.168ZM277.003 167.25H258.385L267.952 138.155H268.214L277.003 167.25ZM366.308 179.909C360.863 182.406 354.864 183.688 348.31 183.758C341.152 183.758 335.407 181.659 331.071 177.46C326.602 173.331 324.332 167.606 324.264 160.285C324.332 153.205 326.4 147.462 330.465 143.056C334.463 138.58 339.891 136.308 346.749 136.238C353.234 136.238 359.501 137.982 365.55 141.467L367.113 125.399C360.226 122.972 353.103 121.69 345.747 121.551C333.652 121.551 323.81 124.74 316.217 131.117C308.524 137.598 304.611 147.321 304.475 160.285C304.745 174.148 309.246 183.992 317.981 189.816C322.047 192.797 326.514 194.963 331.385 196.314C336.224 197.735 341.045 198.446 345.848 198.446C350.719 198.376 354.851 198.014 358.244 197.355C361.604 196.803 364.593 196.163 367.214 195.437L366.308 179.909ZM424.616 183.119H391.892V166.272H421.745V152.233H391.892V136.878H423.456V122.829H372.744V197.168H424.616L424.616 183.119Z" fill="#363A90"/>
</svg>
