<svg width="480" height="320" viewBox="0 0 480 320" fill="none" xmlns="http://www.w3.org/2000/svg">
<path d="M55.3848 132.084H69.2142C73.8996 132.084 82.2543 132.084 87.6742 139.874C90.5504 143.825 91.5117 148.285 91.5117 152.857C91.5117 164.26 85.8669 173.856 70.0055 173.856H55.3848V132.084ZM66.0529 164.483H70.6249C78.583 164.483 80.8417 158.952 80.8417 153.025C80.8417 150.654 80.3337 147.662 78.8096 145.292C77.5689 143.428 75.4236 141.455 70.6816 141.455H66.0529V164.483ZM125.884 173.854H117.135V170.522C116.062 172.046 114.087 174.926 108.442 174.926C97.8306 174.926 96.7579 166.347 96.7579 162.111V142.525H106.129V159.631C106.129 163.074 106.861 166.122 111.095 166.122C115.779 166.122 116.513 162.791 116.513 159.573V142.525H125.884V173.854ZM134.515 149.639H129.886V142.525H134.515V132.084H143.883V142.525H148.401V149.639H143.883V173.854H134.515V149.639ZM184.131 161.943C182.439 169.055 176.173 174.87 167.705 174.87C158.223 174.87 150.941 167.42 150.941 158.106C150.941 148.905 158.109 141.455 167.48 141.455C175.778 141.455 182.494 146.928 184.076 154.606H174.592C173.576 152.461 171.714 150.204 167.82 150.204C165.618 150.091 163.756 150.937 162.4 152.406C161.103 153.873 160.368 155.905 160.368 158.164C160.368 162.736 163.359 166.122 167.818 166.122C171.712 166.122 173.574 163.864 174.59 161.945H184.131V161.943ZM188.416 132.084H197.787V145.405C199.481 142.582 202.642 141.455 205.971 141.455C210.77 141.455 213.591 143.147 215.285 145.913C216.978 148.623 217.431 152.348 217.431 156.357V173.854H208.062V156.806C208.062 155.058 207.835 153.42 207.101 152.234C206.311 151.05 205.071 150.259 203.039 150.259C200.442 150.259 199.086 151.445 198.467 152.799C197.789 154.153 197.789 155.677 197.789 156.468V173.854H188.418V132.084H188.416ZM224.482 132.084H239.836C244.125 132.084 247.569 133.043 249.939 134.905C252.368 136.711 253.667 139.477 253.667 143.033C253.667 146.251 252.198 149.526 248.812 151.445C255.529 153.815 255.699 159.403 255.699 161.154C255.699 164.483 254.4 168.154 251.862 170.241C248.022 173.459 245.256 173.854 238.2 173.854H224.482V132.084ZM235.152 147.945H238.933C239.668 147.945 240.797 147.945 241.755 147.549C242.716 147.098 243.449 146.25 243.449 144.614C243.449 143.033 242.714 142.242 241.811 141.847C240.907 141.455 239.777 141.455 238.931 141.455H235.15V147.945H235.152ZM235.152 164.483H240.176C240.852 164.483 242.208 164.483 243.337 163.975C244.521 163.467 245.482 162.449 245.482 160.476C245.482 158.668 244.578 157.764 243.449 157.314C242.376 156.863 241.022 156.863 240.174 156.863H235.15V164.483H235.152ZM260.604 132.084H269.974V139.196H260.604V132.084ZM260.604 142.525H269.974V173.854H260.604V142.525ZM276.692 142.525H285.498V146.027C286.402 144.333 288.038 141.455 293.456 141.455V150.88H293.116C288.319 150.88 286.062 152.631 286.062 157.033V173.854H276.692V142.525ZM329.016 173.854H320.097V170.468C319.194 171.767 316.935 174.872 310.615 174.872C301.133 174.872 294.921 167.535 294.921 158.107C294.921 147.496 302.485 141.457 310.445 141.457C315.976 141.457 318.628 144.165 319.646 145.183V132.084H329.016V173.854ZM304.29 158.106C304.29 162.904 307.735 166.122 312.137 166.122C314.394 166.122 316.484 165.218 317.953 163.75C319.419 162.283 320.267 160.251 320.154 157.937C320.154 155.679 319.251 153.76 317.842 152.404C316.429 150.992 314.454 150.202 312.25 150.202C306.834 150.202 304.292 154.436 304.292 158.049V158.106H304.29ZM394.517 132.084V187.917L340.585 132.084H394.517ZM374.108 173.854L357.347 157.652L340.585 173.854H374.108ZM424.616 132.084H400.911V155.788L424.616 132.084Z" fill="#072260"/>
</svg>
