<svg width="480" height="320" viewBox="0 0 480 320" fill="none" xmlns="http://www.w3.org/2000/svg">
<path d="M85.9133 120.395V127.615H66.9361V145.148H83.8506V152.367H66.9361V171.551H85.9133V178.771H55.3848V120.395H85.9133ZM118.505 153.811C107.985 155.049 101.59 157.112 101.59 165.363C101.59 171.345 105.509 173.82 111.904 173.82C114.379 173.82 116.854 173.407 118.505 172.582V153.811ZM111.079 179.596C97.671 179.596 91.0702 174.439 91.0702 165.569C91.0702 153.605 103.447 150.098 118.505 148.655V146.179C118.505 140.197 114.585 138.547 108.81 138.547C104.065 138.547 99.5274 139.991 96.4333 141.435L93.958 135.453C97.2584 134.009 103.034 131.946 110.873 131.946C120.98 131.946 129.025 135.866 129.025 147.829V176.295C124.899 178.358 118.711 179.596 111.079 179.596ZM148.827 179.596C143.051 179.596 138.101 178.152 135.213 176.295L138.101 169.694C139.957 171.138 143.258 172.376 147.383 172.376C151.921 172.376 155.015 169.694 155.015 165.982C155.015 162.062 152.746 160.206 147.796 158.349C138.513 155.049 136.657 150.305 136.657 145.56C136.657 138.341 142.845 132.359 152.127 132.359C157.49 132.359 161.616 133.597 164.916 135.659L162.235 141.641C160.791 140.61 157.903 139.166 154.396 139.166C149.858 139.166 147.383 142.054 147.383 145.148C147.383 148.861 150.477 150.717 154.603 152.367C164.091 155.874 166.36 160.618 166.36 165.775C166.36 173.201 159.553 179.596 148.827 179.596ZM189.876 179.389C180.181 179.389 176.468 173.407 176.468 167.013V139.578H171.105V132.978H176.261V122.87L187.4 119.982V132.978H195.445V139.578H187.4V166.394C187.4 169.901 188.844 172.376 192.763 172.376C193.795 172.376 194.414 172.17 195.445 171.964V178.358C194.414 178.771 192.557 179.389 189.876 179.389ZM221.023 138.547C214.628 138.547 210.09 143.498 210.297 154.43L230.512 151.542C230.718 142.26 227.211 138.547 221.023 138.547ZM211.122 159.587C211.947 168.044 216.279 172.376 224.53 172.376C230.099 172.376 234.224 171.138 236.906 169.901L239.588 176.502C236.081 178.358 230.924 179.802 223.498 179.802C209.678 179.802 200.808 171.345 200.808 155.874C200.808 141.022 208.853 132.359 221.642 132.359C234.637 132.359 241.65 140.404 241.238 155.874L211.122 159.587ZM270.116 139.785C266.403 138.547 262.278 138.753 259.802 140.197V178.771H248.664V135.453C253.821 133.184 260.009 131.946 272.385 132.153L270.116 139.785ZM304.77 178.771V146.386C304.77 142.673 302.914 138.753 295.9 138.753C292.188 138.753 290.331 139.166 288.268 139.991V178.771H277.13V135.453C281.668 133.39 288.062 132.153 296.313 132.153C310.958 132.153 315.703 138.753 315.703 146.179V178.771H304.77Z" fill="#013A81"/>
<path d="M157.49 202.905C156.459 203.73 154.396 203.937 152.539 204.143C150.683 204.556 149.033 205.174 149.033 207.443C149.033 209.712 150.683 210.331 152.746 210.331C157.49 210.331 157.696 206.618 157.696 205.174V202.905H157.49ZM143.67 198.367C143.876 192.798 149.033 190.941 153.983 190.941C158.315 190.941 163.678 191.973 163.678 197.13V208.475C163.678 210.537 163.884 212.394 164.503 213.425H158.315C158.109 212.806 157.903 211.981 157.903 211.363C156.046 213.425 153.158 214.044 150.477 214.044C146.351 214.044 143.051 211.981 143.051 207.443C143.051 202.493 146.764 201.255 150.477 200.843C154.19 200.224 157.696 200.43 157.696 197.955C157.696 195.273 156.046 195.067 153.777 195.067C151.508 195.067 150.064 196.098 149.858 198.367H143.67ZM168.423 191.56H174.404V213.632H168.423V191.56ZM179.355 191.56H185.131V195.686H185.337C186.368 193.004 189.462 190.941 192.35 190.941C192.763 190.941 193.382 190.941 193.588 191.148V196.717C192.969 196.511 192.144 196.511 191.319 196.511C186.781 196.511 185.337 199.811 185.337 203.524V213.425H179.355V191.56ZM212.565 198.78H212.359L208.646 213.632H202.458L195.444 191.56H201.839L205.964 206.618L209.677 191.56H215.453L219.166 206.618H219.372L223.291 191.56H229.48L222.673 213.632H216.484L212.565 198.78ZM245.775 202.905C244.744 203.73 242.681 203.937 240.825 204.143C238.968 204.556 237.318 205.174 237.318 207.443C237.318 209.712 239.175 210.331 241.031 210.331C245.775 210.331 245.982 206.618 245.982 205.174V202.905H245.775ZM231.955 198.367C232.367 192.798 237.318 190.941 242.269 190.941C246.6 190.941 251.964 191.973 251.964 197.13V208.475C251.964 210.537 252.17 212.394 252.789 213.425H246.6C246.394 212.806 246.188 211.981 246.188 211.363C244.331 213.425 241.444 214.044 238.762 214.044C234.637 214.044 231.336 211.981 231.336 207.443C231.336 202.493 235.049 201.255 238.762 200.843C242.475 200.224 245.982 200.43 245.982 197.955C245.982 195.273 244.125 195.067 242.062 195.067C239.793 195.067 238.349 196.098 238.143 198.367H231.955ZM267.434 216.313C266.196 219.82 264.134 221.264 260.008 221.264C258.771 221.264 257.533 221.264 256.295 221.057V216.107C257.533 216.107 258.564 216.313 259.802 216.313C261.865 216.107 262.484 213.838 261.865 212.188L254.026 191.56H260.421L265.371 206.618L270.116 191.56H276.304L267.434 216.313ZM283.317 206.412C283.317 209.094 285.586 210.125 287.855 210.125C289.712 210.125 291.774 209.506 291.774 207.237C291.774 205.381 289.299 204.762 284.967 203.937C281.461 203.112 277.954 201.874 277.954 198.161C277.954 192.592 282.905 191.148 287.443 191.148C292.187 191.148 296.725 192.798 297.138 198.161H291.362C291.156 195.892 289.299 195.273 287.236 195.273C285.793 195.273 283.936 195.479 283.936 197.336C283.936 199.605 287.236 199.811 290.743 200.636C294.25 201.461 297.756 202.699 297.756 206.825C297.756 212.6 292.806 214.457 287.649 214.457C282.492 214.457 277.542 212.6 277.335 206.618L283.317 206.412Z" fill="#EE3124"/>
<path d="M369.128 152.161C339.425 164.331 322.716 177.739 310.34 207.855C315.703 197.748 319.828 186.197 370.778 167.013C401.926 154.43 416.777 124.727 421.315 108.844C413.064 125.346 399.657 140.816 369.128 152.161Z" fill="url(#paint0_linear_730_18363)"/>
<path d="M361.909 176.502C332.206 188.673 315.498 202.287 303.121 232.196C308.484 222.089 312.61 210.538 363.766 191.354C395.119 178.771 409.971 149.068 414.303 132.979C405.639 149.687 392.438 165.157 361.909 176.502Z" fill="url(#paint1_linear_730_18363)"/>
<path d="M375.522 128.647C347.675 139.992 331.998 152.781 320.24 181.041C325.191 171.552 329.11 160.826 377.172 142.674C406.669 130.916 420.489 102.863 424.615 87.8047C416.777 103.482 404.4 117.921 375.522 128.647Z" fill="url(#paint2_linear_730_18363)"/>
<defs>
<linearGradient id="paint0_linear_730_18363" x1="310.519" y1="158.369" x2="421.484" y2="158.369" gradientUnits="userSpaceOnUse">
<stop stop-color="#ED1C2E"/>
<stop offset="0.1687" stop-color="#EF3D3D"/>
<stop offset="0.3427" stop-color="#F15B4A"/>
<stop offset="0.4068" stop-color="#F04641"/>
<stop offset="0.5112" stop-color="#ED1C2E"/>
<stop offset="0.519" stop-color="#ED2232"/>
<stop offset="0.5589" stop-color="#EF3F41"/>
<stop offset="0.6016" stop-color="#F1554D"/>
<stop offset="0.6482" stop-color="#F26555"/>
<stop offset="0.7013" stop-color="#F36E5A"/>
<stop offset="0.7753" stop-color="#F3715C"/>
<stop offset="0.8092" stop-color="#F04D49"/>
<stop offset="0.8421" stop-color="#EF323A"/>
<stop offset="0.8711" stop-color="#ED2231"/>
<stop offset="0.8933" stop-color="#ED1C2E"/>
<stop offset="1" stop-color="#ED1C2E"/>
</linearGradient>
<linearGradient id="paint1_linear_730_18363" x1="302.948" y1="182.659" x2="414.198" y2="182.659" gradientUnits="userSpaceOnUse">
<stop stop-color="#003473"/>
<stop offset="0.1941" stop-color="#38568E"/>
<stop offset="0.309" stop-color="#5B6C9F"/>
<stop offset="0.573" stop-color="#003473"/>
<stop offset="0.6202" stop-color="#1A427E"/>
<stop offset="0.6639" stop-color="#2B4B85"/>
<stop offset="0.6966" stop-color="#314E87"/>
<stop offset="0.8933" stop-color="#003473"/>
<stop offset="1" stop-color="#003473"/>
</linearGradient>
<linearGradient id="paint2_linear_730_18363" x1="320.308" y1="134.49" x2="424.815" y2="134.49" gradientUnits="userSpaceOnUse">
<stop stop-color="#003473"/>
<stop offset="0.2135" stop-color="#475C92"/>
<stop offset="0.4551" stop-color="#003473"/>
<stop offset="0.4745" stop-color="#0E3B79"/>
<stop offset="0.5104" stop-color="#214681"/>
<stop offset="0.5469" stop-color="#2D4C85"/>
<stop offset="0.5843" stop-color="#314E87"/>
<stop offset="0.6629" stop-color="#314E87"/>
<stop offset="0.6829" stop-color="#2A4A84"/>
<stop offset="0.7591" stop-color="#133E7B"/>
<stop offset="0.8309" stop-color="#053775"/>
<stop offset="0.8933" stop-color="#003473"/>
<stop offset="1" stop-color="#003473"/>
</linearGradient>
</defs>
</svg>
