<svg width="480" height="320" viewBox="0 0 480 320" fill="none" xmlns="http://www.w3.org/2000/svg">
<path d="M90.6458 132.76L94.8657 123.897H58.4129L60.5671 128.431C61.4222 130.398 61.8011 131.658 61.291 134.726C61.2764 134.812 55.8827 165.444 55.461 167.77C55.0286 170.197 56.492 171.34 58.4023 171.34H89.0814L87.0808 162.455H67.4134L69.3188 151.629H87.4617L89.0299 142.693H70.8997L72.6439 132.758H90.6458V132.76ZM380.883 132.76L385.107 123.897H350.385C350.385 123.897 351.245 125.713 352.543 128.431C353.393 130.398 353.775 131.658 353.266 134.726C353.251 134.812 347.848 165.444 347.429 167.77C346.995 170.197 348.467 171.34 350.371 171.34H379.323L377.323 162.455H359.388L361.288 151.629H377.703L379.275 142.693H362.868L364.615 132.758H380.883V132.76ZM156.347 135.882C157.153 133.329 159.942 132.761 164.028 132.761H171.397L174.624 123.898H162.024C157.455 123.898 147.015 123.466 144.774 133.64C141.672 147.803 160.045 151.896 159.12 158.339C158.568 162.123 154.959 162.457 149.976 162.457H138.972L141.036 171.342H153.499C159.953 171.342 168.962 170.165 171.08 162.135C174.903 147.689 154.29 142.979 156.347 135.882ZM293.913 137.896C294.518 130.128 289.668 123.898 277.503 123.898H259.718L261.855 128.432C262.711 130.399 263.089 131.658 262.582 134.718L256.129 171.342H266.809L269.939 153.563C269.939 153.563 270.726 153.455 272.917 153.571C275.856 153.738 276.335 155.81 282.261 171.342H293.946C287.662 155.651 286.534 152.828 284.572 150.871C289.349 148.951 293.419 144.313 293.914 137.896H293.913ZM283.193 138.814C282.511 142.698 279.123 145.591 274.902 145.591H271.345L273.604 132.76H277.708C281.667 132.76 283.795 135.362 283.193 138.814ZM191.03 132.76L184.226 171.341H195.382L202.184 132.76H214.58L217.798 123.897H176.751L179.977 132.76H191.03ZM398.582 132.76L391.785 171.341H402.94L409.739 132.76H421.392L424.615 123.897H386.046L389.268 132.76H398.582ZM327.515 114.15C326.984 114.108 326.453 114.062 325.923 114.011C312.403 112.589 308.951 111.555 307.995 94.2953C307.995 94.2953 307.928 93.4004 307.196 93.4004C306.455 93.4004 306.394 94.2953 306.394 94.2953C305.442 111.555 301.987 112.589 288.467 114.011C287.936 114.062 287.405 114.109 286.874 114.15C286.452 114.183 285.996 114.357 285.996 114.668C285.996 115.01 286.424 115.181 286.874 115.237C301.792 117.086 305.129 118.361 306.427 139.881C306.442 140.359 306.663 140.84 307.196 140.84C307.724 140.84 307.945 140.358 307.965 139.881C309.26 118.362 312.596 117.086 327.515 115.237C327.96 115.181 328.397 115.01 328.397 114.668C328.398 114.356 327.935 114.182 327.515 114.15ZM328.481 123.897L330.631 128.431C331.483 130.398 331.866 131.658 331.358 134.726L328.185 152.832C325.107 170.455 316.092 170.467 310.517 170.467C309.485 172.164 321.198 174.79 328.796 171.178C334.703 168.38 337.63 163.351 339.103 154.775C339.508 152.427 344.525 123.896 344.525 123.896H328.481V123.897ZM241.977 127.466C241.491 125.418 239.905 123.897 237.585 123.897H223.875L226.117 128.638C227.053 130.669 226.938 132.039 225.689 134.394L206.195 171.341H217.464L223.193 160.047H238.976L241.118 171.341H252.19C252.188 171.341 242.459 129.528 241.978 127.466H241.977ZM227.647 151.256L234.683 137.36L237.316 151.256H227.647ZM126.896 127.466C126.406 125.418 124.826 123.897 122.499 123.897H108.79L111.036 128.638C111.971 130.669 111.855 132.039 110.609 134.394L91.1083 171.341H102.38L108.107 160.047H123.886L126.029 171.341H137.101C137.101 171.341 127.38 129.528 126.896 127.466ZM112.561 151.256L119.597 137.361L122.229 151.256H112.561Z" fill="#D12149"/>
<path d="M166.68 195.378C171.684 195.378 175.668 199.43 175.668 204.582C175.668 209.7 171.684 213.787 166.68 213.787C161.678 213.787 157.692 209.7 157.692 204.582C157.692 199.43 161.679 195.378 166.68 195.378ZM161.891 204.582C161.891 207.711 163.922 210.658 166.644 210.658C169.377 210.658 171.439 207.824 171.439 204.658C171.439 201.491 169.41 198.544 166.682 198.544C164.057 198.544 161.892 201.379 161.892 204.582H161.891ZM189.173 219.051H220.37V222.29H189.173V219.051ZM202.566 197.852C202.566 195.142 201.711 194.495 201.711 194.495H207.22V200.312C207.22 207.272 212.817 210.361 218.447 210.361C218.726 210.361 218.692 210.51 218.555 210.657L216.245 213.493C212.536 213.493 207.187 211.354 205.156 207.306C204.911 206.864 204.769 206.864 204.526 207.306C202.464 211.354 197.077 213.455 193.44 213.455L191.129 210.619C190.993 210.471 190.952 210.325 191.236 210.325C196.727 210.325 202.566 207.306 202.566 199.647V197.852ZM202.566 197.852C202.566 195.142 201.711 194.495 201.711 194.495H207.22V200.312C207.22 207.272 212.817 210.361 218.447 210.361C218.726 210.361 218.692 210.51 218.555 210.657L216.245 213.493C212.536 213.493 207.187 211.354 205.156 207.306C204.911 206.864 204.769 206.864 204.526 207.306C202.464 211.354 197.077 213.455 193.44 213.455L191.129 210.619C190.993 210.471 190.952 210.325 191.236 210.325C196.727 210.325 202.566 207.306 202.566 199.647V197.852ZM227.655 211.982C227.655 212.463 227.934 212.719 228.316 212.719H239.373C242.205 212.719 243.637 212.169 244.617 211.394V196.04C244.617 193.318 243.76 192.693 243.76 192.693H248.709V203.516H253.149V206.755H248.709V225.9H244.618V214.669C243.182 215.702 241.503 215.96 238.004 215.96H227.617C224.888 215.96 223.526 214.593 223.526 211.504V198.323C223.526 195.817 222.668 195.046 222.668 195.046H239.123V198.285H227.655V203.772H238.427V206.975H227.655V211.982ZM260.993 199.502H257.357V196.299H264.909V195.429C264.909 192.851 264.054 192.137 264.054 192.137H269.282V196.299H276.904V199.502H273.2C273.968 200.679 274.457 202.076 274.457 203.591C274.457 207.601 271.132 210.88 267.078 210.88C263.051 210.88 259.732 207.601 259.732 203.591C259.728 202.131 260.168 200.705 260.993 199.502ZM263.897 203.591C263.897 205.797 265.399 207.674 267.115 207.674C268.793 207.674 270.331 205.835 270.331 203.664C270.331 201.453 269.039 199.573 267.151 199.573C265.474 199.573 263.897 201.414 263.897 203.591ZM275.226 211.318C279.67 211.318 283.275 214.743 283.275 218.977C283.275 223.175 279.67 226.6 275.225 226.6C270.822 226.6 267.22 223.175 267.22 218.977C267.22 214.743 270.822 211.318 275.226 211.318ZM275.226 214.634C273.201 214.634 271.449 216.514 271.449 218.978C271.449 221.408 273.201 223.285 275.225 223.285C277.292 223.285 279.073 221.408 279.073 218.978C279.073 216.513 277.292 214.634 275.225 214.634H275.226ZM289.218 199.539V203.145H284.778V211.504H280.648V196.04C280.648 193.387 279.791 192.693 279.791 192.693H284.778V199.54H289.218V199.539ZM322.383 206.681V209.956H292.239V206.681H303.745V203.404C303.745 201.004 302.887 200.274 302.887 200.274H308.008V206.681H322.383ZM314.795 197.883C314.795 197.404 314.655 197.219 314.099 197.219H295.666V193.941H318.675C318.921 193.941 318.994 194.091 318.994 194.31V199.278C318.994 202.74 318.537 203.663 317.527 204.987H313.469C314.586 203.481 314.794 201.968 314.794 198.876V197.883H314.795ZM307.309 211.355C311.716 211.355 315.32 214.817 315.32 219.015C315.32 223.174 311.716 226.599 307.309 226.599C302.905 226.599 299.303 223.174 299.303 219.015C299.303 214.818 302.905 211.355 307.31 211.355H307.309ZM307.309 214.669C305.246 214.669 303.429 216.583 303.429 219.016C303.429 221.407 305.246 223.322 307.309 223.322C309.408 223.322 311.192 221.407 311.192 219.016C311.193 216.583 309.409 214.669 307.309 214.669ZM180.338 225.9V196.046C180.338 193.27 179.481 192.692 179.481 192.692H184.415V225.899H180.338V225.9Z" fill="#4C5C65"/>
</svg>
