<svg width="480" height="320" viewBox="0 0 480 320" fill="none" xmlns="http://www.w3.org/2000/svg">
<path d="M84.395 135.657C78.2711 135.599 72.0779 137.305 66.9594 140.718C66.5114 140.907 65.5973 141.846 66.6492 141.786C69.2126 141.977 71.7862 141.872 74.354 141.901C79.8046 150.244 85.2138 158.647 90.6483 166.968H104.621C106.375 169.247 107.7 171.934 109.559 174.08C111.257 172.634 112.236 170.355 113.339 168.397C115.14 164.017 115.416 158.943 114.345 154.329C111.548 144.986 102.769 138.716 93.7171 136.529C90.6702 135.751 87.5265 135.551 84.3949 135.657L84.395 135.657ZM64.653 142.239C61.3209 145.056 58.1652 148.361 56.716 152.62C55.1595 156.061 55.1933 159.999 55.6856 163.681C55.9889 164.794 56.3177 165.963 56.8272 166.968C64.6834 166.873 72.5579 167.173 80.4028 166.776C81.2715 166.531 79.8901 165.552 79.8386 165.087C75.424 158.339 71.1292 151.529 66.6762 144.833C65.9958 144.048 65.4954 142.763 64.653 142.239ZM80.4028 174.425C74.1183 174.489 67.8047 174.35 61.5379 174.656C61.8882 175.916 63.4116 176.605 64.3346 177.473C70.4052 182.042 77.9872 184.789 85.6049 184.317C90.3035 184.393 95.0193 183.608 99.2981 181.598C102.979 180 106.498 177.745 109.105 174.656C107.381 174.301 105.344 174.571 103.51 174.464C95.8074 174.42 88.1051 174.407 80.4028 174.425ZM145.232 146.486V173.273C153.82 173.47 162.558 173.301 171.204 173.358C173.721 173.301 176.329 173.471 178.788 173.273C178.729 171.541 178.903 169.71 178.705 168.036C170.063 167.988 161.42 167.945 152.778 167.905L152.642 163.036C160.781 162.979 169.012 163.149 177.094 162.952C177.039 161.133 177.206 159.221 177.011 157.461H152.657V151.977C161.356 151.921 170.147 152.09 178.788 151.893C178.732 150.074 178.9 148.162 178.705 146.402H145.315L145.232 146.486V146.486ZM196.784 146.432C191.571 155.433 186.07 164.295 180.792 173.227C183.27 173.494 186.063 173.343 188.663 173.319C190.786 173.269 190.936 170.313 192.345 169.426H213.653C214.368 170.61 214.92 171.879 215.785 172.943C217.731 173.772 220.022 173.113 222.09 173.276C223.659 173.384 225.579 173.449 223.811 171.63C218.812 163.283 214.076 154.753 208.987 146.524C204.923 146.503 200.833 146.38 196.784 146.432ZM202.999 151.148C204.168 152.089 204.615 153.919 205.53 155.174C207.191 158.032 208.8 161.008 210.552 163.758C210.04 164.27 208.774 163.915 208.05 164.068C203.865 164.05 199.472 164.248 195.408 163.904C197.708 159.573 200.287 155.309 202.893 151.186C202.926 151.167 202.962 151.154 202.999 151.148ZM248.086 146.455C242.506 146.598 236.886 146.246 231.33 146.808C228.357 147.616 226.973 150.867 227.043 153.789C226.995 156.682 226.889 160.547 229.712 162.168C232.801 163.197 236.192 162.734 239.406 162.949C245.223 163.031 251.04 163.087 256.857 163.159C257.992 164.198 258.154 166.569 256.834 167.483C253.255 168.304 249.503 167.848 245.855 168.006C239.828 168.072 233.709 167.908 227.739 168.112C227.798 169.848 227.624 171.681 227.822 173.358C238.843 173.355 249.867 173.367 260.887 173.342C263.563 172.602 265.197 170.006 265.295 167.292C265.516 164.08 265.365 159.996 262.339 158.159C258.886 157.206 255.206 157.717 251.662 157.528C246.402 157.492 241.142 157.462 235.882 157.43C234.176 156.318 234.342 153.598 235.602 152.238C239.342 151.852 243.227 152.095 247.02 151.986C252.815 151.911 258.703 152.094 264.441 151.893C264.38 150.069 264.556 148.145 264.357 146.378C258.934 146.404 253.51 146.43 248.086 146.455L248.086 146.455ZM267.42 146.486C267.475 148.304 267.308 150.217 267.503 151.977H280.485C280.541 159.092 280.374 166.301 280.568 173.358C283.084 173.299 285.694 173.472 288.152 173.273V151.977C292.415 151.919 296.771 152.09 300.976 151.893C300.92 150.074 301.087 148.162 300.893 146.401H267.503L267.42 146.486V146.486ZM304.439 146.486V173.273C313.068 173.47 321.846 173.301 330.532 173.358C333.089 173.299 335.739 173.473 338.237 173.273C338.178 171.538 338.352 169.705 338.154 168.028H312.106V163.036C320.24 162.979 328.467 163.149 336.543 162.952C336.488 161.133 336.655 159.221 336.46 157.461H312.106V151.977C320.805 151.921 329.596 152.09 338.237 151.893C338.181 150.074 338.349 148.162 338.154 146.402H304.522L304.439 146.486ZM357.631 146.463C352.776 146.54 347.828 146.391 343.031 146.609C342.992 155.497 342.949 164.385 342.902 173.273C345.377 173.412 348.095 173.415 350.569 173.273C350.608 169.902 350.65 166.53 350.698 163.159C357.807 163.213 364.939 162.845 372.035 163.289C374.091 163.716 373.633 166.419 373.812 168.027C373.917 169.793 373.775 171.651 374.001 173.358C376.443 173.298 378.981 173.473 381.366 173.273C381.063 170.046 381.664 166.582 380.466 163.52C380.166 162.697 378.929 162.025 379.032 161.302C382.3 158.263 382.517 152.806 380.368 149.074C378.151 146.122 373.977 146.664 370.735 146.501C366.367 146.448 361.999 146.449 357.632 146.463H357.631ZM366.599 152.008C368.846 152.195 371.41 151.698 373.449 152.791C374.323 153.93 373.885 155.877 372.928 156.846C371.527 157.772 369.619 157.175 368.036 157.425C362.254 157.45 356.436 157.667 350.675 157.168C350.507 155.486 350.687 153.787 350.698 152.1C355.998 152.071 361.299 151.99 366.599 152.008V152.008ZM386.22 146.486V173.273C388.692 173.412 391.408 173.415 393.879 173.273C393.925 165.949 393.968 158.625 394.008 151.301C400.37 158.59 406.876 165.831 413.138 173.158C416.938 173.457 420.86 173.406 424.616 173.273V146.486C422.141 146.348 419.423 146.344 416.949 146.486C416.944 153.255 416.938 160.023 416.933 166.792C411.047 160.145 405.358 153.328 399.429 146.716C396.791 146.093 393.967 146.549 391.263 146.401C389.597 146.461 387.828 146.285 386.22 146.486Z" fill="#0000A0"/>
</svg>
