<svg width="480" height="320" viewBox="0 0 480 320" fill="none" xmlns="http://www.w3.org/2000/svg">
<path d="M99.5178 163.391H77.0332C76.0111 163.391 75.5466 163.855 75.5466 164.692C75.5466 166.736 76.6615 168.687 78.8914 170.545C81.1213 172.403 83.537 173.332 86.1385 173.332C87.6251 173.332 89.3904 173.054 91.2486 172.496C93.1069 171.939 94.6864 171.195 95.8942 170.359C97.0092 169.616 97.8454 169.244 98.4958 169.244C99.332 169.244 100.168 169.709 100.911 170.731C101.748 171.753 102.119 172.775 102.119 173.89C102.119 176.213 100.726 178.35 97.8454 180.487C92.8281 184.296 86.9747 186.154 80.378 186.154C73.6884 186.154 68.1137 184.203 63.561 180.301C61.3311 178.35 59.5658 176.12 58.1721 173.425C56.3139 169.802 55.3848 166.085 55.3848 162.09C55.3848 156.794 56.9643 151.963 60.2162 147.689C63.0035 143.972 66.5342 141.278 70.901 139.42C74.1529 138.026 77.6836 137.376 81.4 137.376C87.4393 137.376 92.5494 139.048 96.8233 142.486C98.9603 144.158 100.633 146.202 101.933 148.618C103.42 151.312 104.163 153.914 104.163 156.422C104.163 158.467 103.699 160.139 102.863 161.533C101.933 162.74 100.819 163.391 99.5178 163.391ZM78.3339 154.471H83.1653C85.2094 154.471 86.2314 153.542 86.2314 151.684C86.2314 150.012 85.7669 148.525 84.7448 147.503C83.7228 146.388 82.515 145.923 80.8425 145.923C79.0772 145.923 77.6836 146.667 76.6615 148.06C75.7324 149.361 75.2679 150.662 75.2679 152.056C75.2679 152.985 75.4537 153.635 75.9182 154.1C76.3828 154.285 77.1261 154.471 78.3339 154.471ZM134.453 137.19C140.027 137.19 144.673 138.583 148.482 141.371C150.526 142.857 151.92 144.53 152.756 146.481C153.592 148.432 153.964 151.034 153.964 154.378L153.871 161.44C153.871 166.364 154.243 169.523 154.893 171.01C155.265 171.753 155.543 172.125 155.915 172.31C156.194 172.496 156.937 172.682 157.959 172.868C158.981 173.054 159.446 173.704 159.446 174.912C159.446 176.398 158.795 178.071 157.588 179.65C156.38 181.323 154.8 182.716 152.849 183.831C150.433 185.225 147.925 185.968 145.323 185.968C141.978 185.968 139.377 184.853 137.426 182.531C136.775 181.694 136.125 181.323 135.567 181.323C134.917 181.323 134.081 181.694 133.059 182.531C129.9 184.853 126.276 185.968 122.281 185.968C118.1 185.968 114.755 185.039 112.154 183.274C110.481 182.066 109.181 180.579 108.159 178.628C107.137 176.77 106.672 174.726 106.672 172.682C106.672 169.337 107.973 166.457 110.667 163.948C114.848 159.953 121.073 157.909 129.342 157.909C131.201 157.909 132.316 157.723 132.78 157.352C133.245 156.98 133.523 156.144 133.523 154.843C133.523 151.498 133.152 148.99 132.501 147.503C131.758 146.016 130.643 145.273 129.064 145.273C128.135 145.273 127.298 145.552 126.555 146.109C125.812 146.667 124.883 147.689 123.768 149.268C120.98 153.263 118.007 155.308 114.941 155.308C113.362 155.308 112.154 154.843 111.132 153.914C110.11 152.985 109.645 151.777 109.645 150.29C109.645 148.804 110.296 147.224 111.503 145.738C112.711 144.251 114.384 142.857 116.521 141.742C122.188 138.676 128.135 137.19 134.453 137.19ZM131.201 164.784C129.807 164.784 128.599 165.342 127.577 166.457C126.555 167.572 125.998 168.966 125.998 170.545C125.998 172.032 126.369 173.332 127.113 174.261C127.856 175.191 128.785 175.655 129.993 175.655C132.501 175.655 133.802 173.518 133.802 169.244C133.802 167.479 133.616 166.364 133.245 165.714C132.966 165.156 132.223 164.784 131.201 164.784ZM181.652 137.19C183.231 137.19 185.833 137.561 189.456 138.212C190.2 138.305 190.757 138.398 191.222 138.398C191.779 138.398 192.801 138.119 194.381 137.561C195.124 137.283 195.774 137.097 196.239 137.097C197.725 137.097 199.212 138.026 200.699 139.884C201.906 141.371 202.928 143.043 203.672 144.808C204.415 146.574 204.787 148.153 204.787 149.454C204.787 150.755 204.322 151.777 203.486 152.613C202.557 153.449 201.442 153.914 200.141 153.914C199.026 153.914 198.004 153.635 197.168 153.078C196.332 152.52 194.845 151.312 192.987 149.547C190.943 147.596 189.27 146.574 187.97 146.574C187.041 146.574 186.297 146.945 185.647 147.596C184.996 148.246 184.625 148.99 184.625 149.919C184.625 151.498 186.111 152.892 189.085 154.285C194.473 156.701 198.562 159.303 201.442 162.183C203.858 164.599 205.065 167.572 205.065 171.01C205.065 175.469 203.114 179.093 199.212 182.066C195.867 184.668 191.779 185.968 186.948 185.968C185.74 185.968 183.417 185.783 180.165 185.318C177.099 184.946 175.334 184.76 174.962 184.76C174.59 184.76 174.033 184.853 173.568 184.946C172.639 185.039 171.989 185.132 171.524 185.132C170.038 185.132 168.83 184.76 167.994 184.017C166.693 182.809 165.485 180.951 164.37 178.443C163.255 175.934 162.698 173.704 162.698 171.939C162.698 169.058 163.813 167.572 166.135 167.572C167.065 167.572 167.808 167.851 168.551 168.408C169.294 168.966 170.874 170.545 173.29 173.147C174.59 174.54 175.705 175.469 176.542 176.027C177.378 176.584 178.307 176.77 179.329 176.77C180.351 176.77 181.187 176.491 181.837 175.934C182.488 175.376 182.767 174.633 182.767 173.704C182.767 172.31 181.559 171.01 179.05 169.802C173.94 167.293 170.224 164.692 167.994 161.997C165.764 159.303 164.556 156.237 164.556 152.706C164.556 148.897 165.671 145.645 167.994 142.95C171.338 139.234 175.891 137.19 181.652 137.19ZM254.494 160.696L248.176 177.978C246.597 182.252 245.017 185.783 243.438 188.477C241.858 191.171 240.093 193.494 238.049 195.445C233.961 199.348 228.944 201.392 223.09 201.392C218.352 201.392 214.542 200.184 211.662 197.675C209.432 195.724 208.317 193.308 208.317 190.428C208.317 188.012 209.061 185.968 210.64 184.296C212.22 182.624 214.171 181.787 216.401 181.787C218.723 181.787 220.489 182.531 221.975 184.11C222.626 184.853 223.09 185.411 223.276 185.968C223.462 186.526 223.834 187.734 224.298 189.499C224.67 190.893 225.413 191.636 226.714 191.636C227.736 191.636 228.479 191.171 229.222 190.335C229.966 189.499 230.244 188.384 230.244 187.176C230.244 185.69 229.408 183.181 227.736 179.65L216.215 155.215C215.007 152.706 214.078 151.126 213.52 150.476C212.87 149.826 211.569 149.082 209.525 148.153C208.875 147.875 208.317 147.41 207.853 146.667C207.388 145.923 207.202 145.18 207.202 144.53C207.202 141.742 209.99 139.791 215.657 138.769C219.374 138.119 223.648 137.747 228.479 137.747C231.824 137.747 234.518 138.119 236.469 138.769C239.071 139.698 240.372 141.278 240.372 143.508C240.372 144.344 240 145.273 239.257 146.295C238.514 147.317 238.235 148.246 238.235 148.99C238.235 149.733 238.421 150.569 238.699 151.405C239.071 152.241 239.721 153.635 240.836 155.586C242.044 157.816 243.066 158.931 243.995 158.931C245.017 158.931 246.039 157.909 247.061 155.958C248.083 154.007 248.641 152.149 248.641 150.29C248.641 148.804 248.269 147.596 247.433 146.76C246.225 145.366 245.575 144.065 245.575 143.043C245.575 141.464 246.69 140.163 248.827 139.141C250.964 138.212 253.844 137.654 257.468 137.654C264.25 137.654 267.595 139.234 267.595 142.486C267.595 143.694 267.223 144.623 266.573 145.366C265.923 146.109 264.622 146.76 262.856 147.41C261.37 147.967 260.162 148.897 259.233 150.29C257.932 152.241 256.353 155.772 254.494 160.696ZM308.941 118.607C312.471 118.607 316.095 118.886 319.811 119.537C322.784 120.001 325.014 120.744 326.315 121.674C327.616 122.603 328.266 123.81 328.266 125.39C328.266 126.412 327.987 127.155 327.523 127.713C327.058 128.27 326.036 128.921 324.457 129.757C322.599 130.686 321.577 131.801 321.298 133.102C321.019 134.402 320.74 139.42 320.555 148.06C320.462 156.515 320.369 161.533 320.276 163.205C320.183 164.877 319.997 166.55 319.718 168.129C318.789 172.775 316.931 176.398 314.144 179.093C311.821 181.23 308.941 182.995 305.317 184.203C301.693 185.411 297.977 186.061 293.982 186.061C290.451 186.061 286.921 185.597 283.39 184.668C279.859 183.738 276.793 182.438 274.192 180.858C272.055 179.557 270.289 177.699 269.081 175.469C267.781 173.239 267.13 170.731 267.13 168.222C267.13 165.063 268.152 162.369 270.104 160.325C272.148 158.281 274.656 157.166 277.629 157.166C280.603 157.166 283.111 158.002 285.155 159.767C287.199 161.533 288.221 163.762 288.221 166.364C288.221 167.014 288.035 168.129 287.664 169.709C287.571 169.988 287.571 170.359 287.571 170.731C287.571 171.753 287.943 172.589 288.686 173.239C289.429 173.89 290.358 174.169 291.566 174.169C293.703 174.169 295.375 173.239 296.676 171.288C297.977 169.337 298.627 166.829 298.627 163.762L298.534 159.396L298.442 147.689C298.163 140.627 297.977 136.446 297.791 135.146C297.605 133.845 297.327 132.823 296.676 132.08C296.212 131.429 295.747 131.058 295.375 130.872C295.004 130.686 293.982 130.407 292.402 129.943C291.659 129.757 291.009 129.385 290.451 128.642C289.894 127.899 289.615 127.155 289.615 126.319C289.615 124.647 290.265 123.253 291.659 122.231C293.053 121.209 295.19 120.373 298.256 119.722C301.786 118.979 305.317 118.607 308.941 118.607ZM374.815 163.391H352.423C351.401 163.391 350.937 163.855 350.937 164.692C350.937 166.736 352.052 168.687 354.281 170.545C356.511 172.403 358.927 173.332 361.529 173.332C363.015 173.332 364.78 173.054 366.639 172.496C368.497 171.939 370.076 171.195 371.284 170.359C372.399 169.616 373.235 169.244 373.886 169.244C374.722 169.244 375.558 169.709 376.301 170.731C377.138 171.753 377.509 172.775 377.509 173.89C377.509 176.213 376.116 178.35 373.235 180.487C368.218 184.296 362.365 186.154 355.768 186.154C349.078 186.154 343.504 184.203 338.951 180.301C336.721 178.35 334.956 176.12 333.562 173.425C331.704 169.802 330.775 166.085 330.775 162.09C330.775 156.794 332.354 151.963 335.606 147.689C338.394 143.972 341.924 141.278 346.291 139.42C349.543 138.026 353.074 137.376 356.79 137.376C362.829 137.376 367.939 139.048 372.213 142.486C374.35 144.158 376.023 146.202 377.324 148.618C378.81 151.312 379.553 153.914 379.553 156.422C379.553 158.467 379.089 160.139 378.253 161.533C377.324 162.74 376.209 163.391 374.815 163.391ZM353.631 154.471H358.462C360.507 154.471 361.529 153.542 361.529 151.684C361.529 150.012 361.064 148.525 360.042 147.503C359.02 146.388 357.812 145.923 356.14 145.923C354.374 145.923 352.981 146.667 351.959 148.06C351.03 149.361 350.565 150.662 350.565 152.056C350.565 152.985 350.751 153.635 351.215 154.1C351.68 154.285 352.516 154.471 353.631 154.471ZM410.214 149.733V165.807C410.214 167.758 410.679 169.244 411.608 170.452C412.537 171.66 413.745 172.31 415.231 172.31C416.439 172.31 418.112 171.753 420.156 170.638C420.62 170.359 421.085 170.173 421.549 170.173C422.293 170.173 423.036 170.638 423.686 171.567C424.337 172.496 424.616 173.518 424.616 174.54C424.616 176.491 423.501 178.443 421.364 180.208C416.811 184.017 411.422 185.968 404.918 185.968C399.808 185.968 395.72 184.575 392.654 181.694C389.588 178.814 388.008 175.005 388.008 170.359V148.339C388.008 147.596 387.915 147.131 387.73 146.945C387.544 146.76 387.079 146.667 386.336 146.667H381.597C380.668 146.667 380.111 146.481 379.832 146.202C379.553 145.923 379.46 145.18 379.46 144.065V141.928C379.46 140.999 379.832 140.256 380.575 139.791L402.41 126.04C402.967 125.762 403.618 125.576 404.454 125.576H408.356C409.192 125.576 409.657 125.762 409.936 126.133C410.214 126.505 410.307 127.248 410.307 128.27V134.681C410.307 135.61 410.493 136.261 410.772 136.539C411.05 136.818 411.701 137.004 412.723 137.004H421.549C422.757 137.004 423.501 137.19 423.872 137.654C424.244 138.119 424.43 138.955 424.43 140.442V143.229C424.43 144.716 424.244 145.831 423.779 146.388C423.315 146.945 422.479 147.224 421.364 147.224H412.723C411.794 147.224 411.236 147.41 410.958 147.689C410.4 148.246 410.214 148.804 410.214 149.733Z" fill="#FF6600"/>
</svg>
