<svg width="480" height="320" viewBox="0 0 480 320" fill="none" xmlns="http://www.w3.org/2000/svg">
<path d="M206.006 115.546L208.312 120.498C201.779 122.035 196.636 124.962 190.842 127.239L190.82 127.217L193.171 124.849C193.11 124.935 193.044 125.019 192.983 125.106L206.807 115.412L206.006 115.546Z" fill="#270080" stroke="#270080" stroke-width="1.25925"/>
<path d="M209.453 110.565L203.997 106.162C200.535 112.097 195.339 119.022 190.49 123.738C192.811 118.539 194.784 113.136 199.035 109.072L193.161 108.245L188.711 126.182L190.876 127.463L192.785 125.799C195.955 119.339 202.908 115.075 209.453 110.565Z" fill="#270080" stroke="#270080" stroke-width="1.25925"/>
<path d="M189.484 186.611L189.552 199.292" stroke="#270080" stroke-width="7.43019"/>
<path d="M189.379 173.861C185.519 177.606 183.512 182.987 189.275 189.304C195.122 183.065 193.188 177.658 189.379 173.861Z" fill="#5AA02C" stroke="#270080" stroke-width="1.25925"/>
<path d="M186.879 183.454L191.955 183.4" stroke="#270080" stroke-width="1.25925"/>
<path d="M192.313 177.166L189.735 183.245L193.216 183.563C193.793 181.222 193.343 179.073 192.313 177.166ZM186.493 177.19L188.958 183.316L185.471 183.57C184.938 181.218 185.428 179.077 186.493 177.19H186.493Z" fill="#5AA02C" stroke="#270080" stroke-width="1.25925"/>
<path d="M186.461 185.24L191.956 185.276" stroke="#270080" stroke-width="1.25925"/>
<path d="M178.059 194.475L189.471 200.002" stroke="#270080" stroke-width="7.43019"/>
<path d="M166.898 188.234C168.472 193.376 172.346 197.616 180.596 195.367C177.709 187.318 172.014 186.574 166.899 188.234H166.898Z" fill="#5AA02C" stroke="#270080" stroke-width="1.25925"/>
<path d="M174.297 194.834L176.563 190.291" stroke="#270080" stroke-width="1.25925"/>
<path d="M171.178 187.13L175.413 192.195L177.284 189.242C175.463 187.661 173.345 187.082 171.178 187.13ZM168.547 192.32L175.122 192.919L173.759 196.138C171.422 195.541 169.741 194.129 168.547 192.32Z" fill="#5AA02C" stroke="#270080" stroke-width="1.25925"/>
<path d="M175.695 196.019L178.232 191.145" stroke="#270080" stroke-width="1.25925"/>
<path d="M165.504 163.86C165.086 165.567 164.824 167.871 166.076 169.946L172.967 175.302L172.292 168.365C170.052 166.728 167.552 163.623 165.504 163.86ZM177.161 159.686C178.578 160.725 180.259 162.322 180.633 164.717L178.793 173.249L174.854 167.499C175.519 164.806 175.439 160.82 177.161 159.686Z" fill="#5AA02C" stroke="#270080" stroke-width="1.25925"/>
<path d="M171.53 161.207C170.712 165.082 169.647 168.983 171.617 172.572C168.827 168.082 163.163 167.19 157.762 165.97L172.246 182.609C175.866 186.813 182.748 184.858 183.311 178.48L185.572 158.33C181.057 161.624 178.947 166.259 178.158 171.631C176.558 166.17 174.115 163.456 171.53 161.207H171.53Z" fill="#5AA02C" stroke="#270080" stroke-width="1.51124"/>
<path d="M169.973 179.915C173.618 177.296 177.64 175.23 183.36 175.653M171.911 182.183C175.487 179.683 178.703 178.659 183.323 178.039L183.103 178.069L183.001 178.114" stroke="#270080" stroke-width="2.5185"/>
<path d="M179.359 184.383C181.903 190.841 188.386 198.018 192.229 202.796" stroke="#270080" stroke-width="7.80818"/>
<path d="M216.879 211.59L223.112 222.632" stroke="#270080" stroke-width="7.43019"/>
<path d="M210.578 200.504C209.03 205.655 209.897 211.331 218.007 214.043C220.077 205.746 215.754 201.965 210.578 200.504V200.504Z" fill="#5AA02C" stroke="#270080" stroke-width="1.25925"/>
<path d="M213.066 210.101L217.474 207.582" stroke="#270080" stroke-width="1.25925"/>
<path d="M214.751 201.963L215.46 208.527L218.655 207.111C218.019 204.784 216.579 203.126 214.751 201.963ZM209.68 204.818L214.815 208.968L211.893 210.887C210.282 209.093 209.668 206.985 209.68 204.818V204.818Z" fill="#5AA02C" stroke="#270080" stroke-width="1.25925"/>
<path d="M213.57 211.865L218.387 209.221" stroke="#270080" stroke-width="1.25925"/>
<path d="M210.727 224.022L223.386 223.293" stroke="#270080" stroke-width="7.43019"/>
<path d="M197.941 224.004C201.82 227.73 207.268 229.546 213.378 223.564C206.937 217.94 201.602 220.064 197.941 224.004Z" fill="#5AA02C" stroke="#270080" stroke-width="1.25925"/>
<path d="M207.615 226.167L207.383 221.096" stroke="#270080" stroke-width="1.25925"/>
<path d="M201.141 220.957L207.306 223.32L207.502 219.829C205.141 219.335 203.009 219.861 201.141 220.957ZM201.37 226.773L207.405 224.094L207.781 227.569C205.449 228.186 203.293 227.771 201.37 226.772V226.773Z" fill="#5AA02C" stroke="#270080" stroke-width="1.25925"/>
<path d="M209.416 226.522L209.258 221.029" stroke="#270080" stroke-width="1.25925"/>
<path d="M184.855 203.394C185.322 205.089 186.215 207.229 188.319 208.432L196.945 209.755L192.978 204.024C190.225 203.685 186.529 202.19 184.855 203.394ZM193.005 194.072C194.749 194.291 196.995 194.867 198.487 196.776L201.035 205.124L194.794 202.021C194.064 199.344 192.053 195.901 193.005 194.072Z" fill="#5AA02C" stroke="#270080" stroke-width="1.25925"/>
<path d="M188.826 198.143C189.998 201.927 190.967 205.852 194.436 208.028C189.812 205.465 184.431 207.444 179.119 209.008L199.873 216.488C205.081 218.398 210.141 213.339 207.527 207.494L199.69 188.793C197.35 193.869 197.764 198.945 199.69 204.021C195.633 200.03 192.179 198.85 188.826 198.143Z" fill="#5AA02C" stroke="#270080" stroke-width="1.51124"/>
<path d="M196.574 215.241C198.484 211.179 200.99 207.416 206.192 205M199.372 216.279C201.278 212.354 203.589 209.893 207.322 207.102L207.144 207.235L207.077 207.324" stroke="#270080" stroke-width="2.5185"/>
<path d="M206.949 214.574C212.316 218.977 218.231 221.446 223.914 223.747" stroke="#270080" stroke-width="7.80818"/>
<path d="M184.14 149.008L173.703 156.209" stroke="#270080" stroke-width="7.43019"/>
<path d="M194.615 141.736C189.347 140.658 183.77 142.032 181.799 150.352C190.248 151.667 193.625 147.023 194.615 141.736Z" fill="#5AA02C" stroke="#270080" stroke-width="1.25925"/>
<path d="M185.281 145.076L188.186 149.24" stroke="#270080" stroke-width="1.25925"/>
<path d="M193.538 146.023L187.064 147.318L188.762 150.373C191.022 149.531 192.543 147.948 193.538 146.023ZM190.239 141.229L186.567 146.716L184.393 143.979C186.035 142.212 188.08 141.412 190.239 141.229V141.229Z" fill="#5AA02C" stroke="#270080" stroke-width="1.25925"/>
<path d="M183.57 145.736L186.637 150.296" stroke="#270080" stroke-width="1.25925"/>
<path d="M171.207 143.998L173.071 156.54" stroke="#270080" stroke-width="7.43019"/>
<path d="M170.074 131.262C166.712 135.459 165.392 141.049 171.899 146.597C176.922 139.676 174.327 134.553 170.074 131.262Z" fill="#5AA02C" stroke="#270080" stroke-width="1.25925"/>
<path d="M168.789 141.092L173.819 140.404" stroke="#270080" stroke-width="1.25925"/>
<path d="M173.396 134.174L171.597 140.527L175.091 140.408C175.371 138.013 174.656 135.937 173.396 134.174ZM167.625 134.925L170.835 140.695L167.407 141.382C166.584 139.115 166.803 136.93 167.625 134.925Z" fill="#5AA02C" stroke="#270080" stroke-width="1.25925"/>
<path d="M168.598 142.916L174.054 142.266" stroke="#270080" stroke-width="1.25925"/>
<path d="M189.423 116.377C187.778 116.994 185.727 118.075 184.717 120.279L184.176 128.99L189.526 124.524C189.616 121.751 190.773 117.935 189.423 116.377ZM199.44 123.656C199.38 125.412 199.008 127.7 197.24 129.359L189.155 132.646L191.685 126.152C194.285 125.184 197.533 122.872 199.44 123.656Z" fill="#5AA02C" stroke="#270080" stroke-width="1.25925"/>
<path d="M195.012 119.861C191.35 121.369 187.527 122.687 185.672 126.337C187.809 121.501 185.355 116.32 183.319 111.17L177.735 132.512C176.301 137.871 181.794 142.455 187.38 139.326L205.301 129.841C200.036 127.966 195.017 128.835 190.135 131.209C193.745 126.81 194.61 123.264 195.012 119.861Z" fill="#5AA02C" stroke="#270080" stroke-width="1.51124"/>
<path d="M178.68 129.113C182.897 130.65 186.871 132.808 189.744 137.771M177.898 131.993C181.978 133.538 184.636 135.618 187.752 139.086L187.603 138.92L187.509 138.862" stroke="#270080" stroke-width="2.5185"/>
<path d="M180.277 139.387C176.375 145.127 174.07 153.003 172.289 158.87" stroke="#270080" stroke-width="7.80818"/>
<path d="M213.748 103.076C208.79 102.814 203.459 104.724 201.309 112.217C209.273 112.277 212.631 107.802 213.748 103.076Z" fill="#5AA02C" stroke="#270080" stroke-width="1.14742"/>
<path d="M204.787 107.179L207.399 110.429" stroke="#270080" stroke-width="1.14742"/>
<path d="M212.582 106.943L206.402 108.901L207.909 111.342C210.079 110.318 211.575 108.746 212.582 106.943ZM209.617 103.196L205.951 108.441L203.983 106.338C205.599 104.591 207.564 103.632 209.617 103.196Z" fill="#5AA02C" stroke="#270080" stroke-width="1.14742"/>
<path d="M203.144 107.972L205.897 111.547" stroke="#270080" stroke-width="1.14742"/>
<path d="M199.571 102.512C195.738 103.789 192.269 106.824 192.872 113.139C198.922 110.813 200.132 106.424 199.571 102.512Z" fill="#5AA02C" stroke="#270080" stroke-width="0.933815"/>
<path d="M194.008 108.287L196.955 109.97" stroke="#270080" stroke-width="0.933815"/>
<path d="M199.841 105.786L195.744 109.109L197.611 110.509C198.95 109.088 199.615 107.451 199.841 105.786ZM196.479 103.831L195.265 108.895L193.148 107.889C193.852 106.084 195.054 104.772 196.479 103.831Z" fill="#5AA02C" stroke="#270080" stroke-width="0.933815"/>
<path d="M193 109.377L196.149 111.264" stroke="#270080" stroke-width="0.933815"/>
<path d="M213.386 114.585C209.412 113.852 204.909 114.834 202.387 120.654C208.808 121.54 211.988 118.281 213.386 114.585Z" fill="#5AA02C" stroke="#270080" stroke-width="0.933821"/>
<path d="M205.724 116.955L207.491 119.852" stroke="#270080" stroke-width="0.933821"/>
<path d="M212.039 117.583L206.846 118.514L207.805 120.642C209.664 120.044 211.037 118.932 212.039 117.583ZM210.04 114.247L206.53 118.095L205.162 116.192C206.651 114.951 208.337 114.383 210.04 114.247Z" fill="#5AA02C" stroke="#270080" stroke-width="0.933821"/>
<path d="M204.314 117.423L206.161 120.596" stroke="#270080" stroke-width="0.933821"/>
<path d="M273.996 116.051L271.689 121.003C278.223 122.541 283.366 125.468 289.159 127.745L289.181 127.723L286.83 125.355C286.892 125.441 286.957 125.525 287.018 125.611L273.194 115.918L273.996 116.051Z" fill="#270080"/>
<path d="M270.549 111.071L276.004 106.668C279.467 112.603 284.663 119.529 289.511 124.245C287.191 119.045 285.217 113.642 280.966 109.578L286.841 108.751L291.291 126.688L289.125 127.969L287.217 126.305C284.047 119.845 277.094 115.581 270.549 111.071Z" fill="#270080"/>
<path d="M290.517 187.117L290.449 199.797" stroke="#270080" stroke-width="7.43019"/>
<path d="M290.621 174.367C294.481 178.112 296.488 183.493 290.725 189.81C284.877 183.571 286.812 178.164 290.621 174.367Z" fill="#5AA02C" stroke="#270080" stroke-width="1.25925"/>
<path d="M293.122 183.96L288.045 183.906" stroke="#270080" stroke-width="1.25925"/>
<path d="M287.687 177.672L290.265 183.751L286.784 184.069C286.206 181.728 286.656 179.578 287.687 177.672ZM293.506 177.696L291.042 183.822L294.528 184.076C295.062 181.723 294.572 179.583 293.506 177.696Z" fill="#5AA02C" stroke="#270080" stroke-width="1.25925"/>
<path d="M293.539 185.746L288.043 185.782" stroke="#270080" stroke-width="1.25925"/>
<path d="M301.944 194.98L290.531 200.508" stroke="#270080" stroke-width="7.43019"/>
<path d="M313.102 188.738C311.528 193.88 307.654 198.12 299.404 195.87C302.291 187.822 307.986 187.078 313.102 188.738Z" fill="#5AA02C" stroke="#270080" stroke-width="1.25925"/>
<path d="M305.704 195.338L303.438 190.795" stroke="#270080" stroke-width="1.25925"/>
<path d="M308.825 187.634L304.59 192.699L302.719 189.746C304.54 188.165 306.658 187.586 308.825 187.634H308.825ZM311.456 192.824L304.881 193.424L306.244 196.642C308.581 196.045 310.262 194.633 311.456 192.824Z" fill="#5AA02C" stroke="#270080" stroke-width="1.25925"/>
<path d="M304.307 196.523L301.77 191.648" stroke="#270080" stroke-width="1.25925"/>
<path d="M314.496 164.366C314.914 166.073 315.176 168.377 313.924 170.452L307.033 175.808L307.708 168.871C309.948 167.235 312.448 164.129 314.496 164.366V164.366ZM302.839 160.191C301.422 161.231 299.741 162.828 299.367 165.223L301.207 173.754L305.147 168.005C304.481 165.312 304.561 161.326 302.839 160.191Z" fill="#5AA02C" stroke="#270080" stroke-width="1.25925"/>
<path d="M308.47 161.713C309.288 165.588 310.353 169.489 308.383 173.079C311.174 168.588 316.837 167.696 322.239 166.476L307.754 183.115C304.134 187.319 297.252 185.364 296.689 178.986L294.428 158.836C298.943 162.13 301.053 166.765 301.843 172.137C303.443 166.676 305.885 163.962 308.47 161.713Z" fill="#5AA02C" stroke="#270080" stroke-width="1.51124"/>
<path d="M310.028 180.42C306.382 177.802 302.36 175.736 296.641 176.159M308.089 182.688C304.514 180.189 301.297 179.165 296.677 178.544L296.898 178.574L296.999 178.62" stroke="#270080" stroke-width="2.5185"/>
<path d="M300.641 184.889C298.098 191.347 293.252 199.028 288.023 202.924" stroke="#270080" stroke-width="7.80818"/>
<path d="M263.12 212.096L256.887 223.138" stroke="#270080" stroke-width="7.43019"/>
<path d="M269.419 201.012C270.967 206.162 270.1 211.839 261.99 214.551C259.92 206.254 264.243 202.473 269.419 201.012Z" fill="#5AA02C" stroke="#270080" stroke-width="1.25925"/>
<path d="M266.933 210.607L262.525 208.088" stroke="#270080" stroke-width="1.25925"/>
<path d="M265.248 202.469L264.539 209.033L261.344 207.617C261.98 205.29 263.419 203.632 265.248 202.469ZM270.319 205.324L265.184 209.474L268.105 211.393C269.717 209.599 270.331 207.491 270.319 205.323V205.324Z" fill="#5AA02C" stroke="#270080" stroke-width="1.25925"/>
<path d="M266.43 212.371L261.613 209.727" stroke="#270080" stroke-width="1.25925"/>
<path d="M269.273 224.528L256.613 223.799" stroke="#270080" stroke-width="7.43019"/>
<path d="M282.058 224.512C278.18 228.238 272.731 230.054 266.621 224.072C273.062 218.448 278.398 220.571 282.058 224.512Z" fill="#5AA02C" stroke="#270080" stroke-width="1.25925"/>
<path d="M272.383 226.673L272.615 221.602" stroke="#270080" stroke-width="1.25925"/>
<path d="M278.859 221.463L272.694 223.825L272.498 220.335C274.859 219.841 276.99 220.366 278.859 221.463ZM278.63 227.278L272.595 224.6L272.219 228.075C274.551 228.692 276.707 228.277 278.63 227.278Z" fill="#5AA02C" stroke="#270080" stroke-width="1.25925"/>
<path d="M270.586 227.028L270.744 221.535" stroke="#270080" stroke-width="1.25925"/>
<path d="M295.144 203.901C294.678 205.595 293.785 207.735 291.681 208.938L283.054 210.261L287.021 204.53C289.775 204.192 293.47 202.696 295.144 203.901L295.144 203.901ZM286.994 194.578C285.25 194.797 283.005 195.373 281.512 197.282L278.965 205.63L285.205 202.527C285.936 199.85 287.946 196.407 286.994 194.578Z" fill="#5AA02C" stroke="#270080" stroke-width="1.25925"/>
<path d="M291.173 198.65C290.001 202.433 289.032 206.358 285.563 208.534C290.187 205.971 295.568 207.95 300.88 209.514L280.126 216.994C274.918 218.904 269.858 213.846 272.472 208L280.309 189.299C282.649 194.375 282.235 199.451 280.309 204.527C284.366 200.536 287.82 199.355 291.173 198.65Z" fill="#5AA02C" stroke="#270080" stroke-width="1.51124"/>
<path d="M283.425 215.747C281.516 211.685 279.009 207.922 273.808 205.506M280.628 216.784C278.722 212.859 276.411 210.399 272.678 207.608L272.856 207.741L272.923 207.83" stroke="#270080" stroke-width="2.5185"/>
<path d="M273.051 215.08C267.684 219.483 261.769 221.952 256.086 224.252" stroke="#270080" stroke-width="7.80818"/>
<path d="M295.859 149.512L306.297 156.713" stroke="#270080" stroke-width="7.43019"/>
<path d="M285.387 142.242C290.655 141.164 296.232 142.537 298.204 150.858C289.754 152.173 286.377 147.528 285.387 142.242Z" fill="#5AA02C" stroke="#270080" stroke-width="1.25925"/>
<path d="M294.721 145.58L291.816 149.744" stroke="#270080" stroke-width="1.25925"/>
<path d="M286.465 146.526L292.939 147.822L291.241 150.877C288.981 150.035 287.459 148.452 286.465 146.527V146.526ZM289.764 141.732L293.436 147.22L295.61 144.482C293.968 142.716 291.923 141.915 289.764 141.732Z" fill="#5AA02C" stroke="#270080" stroke-width="1.25925"/>
<path d="M296.43 146.24L293.363 150.8" stroke="#270080" stroke-width="1.25925"/>
<path d="M308.794 144.502L306.93 157.045" stroke="#270080" stroke-width="7.43019"/>
<path d="M309.931 131.766C313.293 135.964 314.613 141.553 308.106 147.101C303.083 140.18 305.678 135.057 309.931 131.766V131.766Z" fill="#5AA02C" stroke="#270080" stroke-width="1.25925"/>
<path d="M311.215 141.595L306.186 140.908" stroke="#270080" stroke-width="1.25925"/>
<path d="M306.607 134.678L308.406 141.031L304.912 140.912C304.632 138.517 305.347 136.441 306.607 134.678ZM312.378 135.428L309.168 141.198L312.596 141.886C313.419 139.619 313.2 137.434 312.378 135.428Z" fill="#5AA02C" stroke="#270080" stroke-width="1.25925"/>
<path d="M311.406 143.418L305.949 142.768" stroke="#270080" stroke-width="1.25925"/>
<path d="M290.578 116.883C292.223 117.5 294.275 118.581 295.284 120.785L295.825 129.496L290.475 125.03C290.385 122.257 289.228 118.442 290.578 116.883V116.883ZM280.561 124.161C280.621 125.918 280.993 128.207 282.761 129.865L290.846 133.152L288.316 126.658C285.716 125.69 282.468 123.378 280.561 124.161Z" fill="#5AA02C" stroke="#270080" stroke-width="1.25925"/>
<path d="M284.988 120.365C288.651 121.872 292.474 123.19 294.329 126.84C292.191 122.005 294.646 116.824 296.681 111.674L302.266 133.016C303.7 138.375 298.207 142.959 292.62 139.83L274.699 130.345C279.965 128.47 284.983 129.339 289.866 131.713C286.256 127.314 285.39 123.767 284.988 120.365Z" fill="#5AA02C" stroke="#270080" stroke-width="1.51124"/>
<path d="M301.322 129.617C297.104 131.153 293.131 133.312 290.258 138.275M302.103 132.496C298.023 134.042 295.365 136.122 292.249 139.59L292.398 139.424L292.493 139.366" stroke="#270080" stroke-width="2.5185"/>
<path d="M299.725 139.891C303.627 145.631 305.554 151.744 307.335 157.611" stroke="#270080" stroke-width="7.80818"/>
<path d="M266.254 103.58C271.212 103.318 276.543 105.228 278.693 112.721C270.729 112.781 267.371 108.306 266.254 103.58Z" fill="#5AA02C" stroke="#270080" stroke-width="1.14742"/>
<path d="M275.213 107.683L272.601 110.933" stroke="#270080" stroke-width="1.14742"/>
<path d="M267.42 107.447L273.6 109.405L272.093 111.846C269.923 110.822 268.427 109.25 267.42 107.447ZM270.385 103.699L274.051 108.945L276.019 106.842C274.403 105.095 272.438 104.136 270.385 103.699Z" fill="#5AA02C" stroke="#270080" stroke-width="1.14742"/>
<path d="M276.858 108.476L274.105 112.05" stroke="#270080" stroke-width="1.14742"/>
<path d="M280.431 103.015C284.264 104.293 287.733 107.328 287.13 113.643C281.08 111.316 279.87 106.927 280.431 103.015Z" fill="#5AA02C" stroke="#270080" stroke-width="0.933815"/>
<path d="M285.996 108.791L283.049 110.474" stroke="#270080" stroke-width="0.933815"/>
<path d="M280.163 106.29L284.26 109.613L282.392 111.013C281.053 109.592 280.389 107.955 280.163 106.29ZM283.525 104.335L284.739 109.399L286.856 108.393C286.152 106.588 284.95 105.276 283.525 104.335Z" fill="#5AA02C" stroke="#270080" stroke-width="0.933815"/>
<path d="M287.004 109.881L283.855 111.768" stroke="#270080" stroke-width="0.933815"/>
<path d="M266.616 115.089C270.59 114.356 275.093 115.338 277.615 121.158C271.194 122.044 268.014 118.785 266.616 115.089Z" fill="#5AA02C" stroke="#270080" stroke-width="0.933821"/>
<path d="M274.276 117.459L272.509 120.356" stroke="#270080" stroke-width="0.933821"/>
<path d="M267.963 118.087L273.156 119.018L272.197 121.146C270.338 120.548 268.965 119.436 267.963 118.087ZM269.962 114.751L273.472 118.599L274.839 116.696C273.351 115.455 271.665 114.887 269.962 114.751Z" fill="#5AA02C" stroke="#270080" stroke-width="0.933821"/>
<path d="M275.688 117.926L273.841 121.1" stroke="#270080" stroke-width="0.933821"/>
<path d="M222.537 217.762C220.652 217.762 219.138 219.034 219.138 220.595C219.138 220.865 219.189 221.119 219.274 221.367C218.992 222.045 218.847 222.773 218.85 223.508C218.85 224.982 219.392 226.291 220.243 227.113C220.501 227.818 221.796 228.356 223.37 228.356C224.267 228.356 225.085 228.18 225.664 227.9C225.734 227.928 225.81 227.953 225.885 227.979C226.275 228.175 226.706 228.277 227.143 228.278C227.244 228.278 227.348 228.257 227.448 228.246C227.548 228.251 227.651 228.262 227.754 228.262C228.701 228.262 229.549 228.066 230.133 227.758C230.596 228.002 231.224 228.169 231.934 228.23C231.952 228.233 231.968 228.244 231.985 228.246C232.111 228.264 232.247 228.278 232.376 228.278C232.424 228.278 232.465 228.264 232.512 228.262C232.589 228.258 232.658 228.256 232.733 228.246C233.577 228.218 234.322 228.051 234.857 227.774C235.319 228 235.939 228.143 236.625 228.199C236.902 228.291 237.191 228.356 237.492 228.356C237.963 228.356 238.404 228.228 238.817 228.01C239.112 227.926 239.377 227.833 239.599 227.711C240.18 228.032 241.045 228.228 242.012 228.23H242.028C242.285 228.308 242.552 228.356 242.827 228.356C243.498 228.356 244.13 228.115 244.663 227.695C245.248 228.018 246.103 228.23 247.076 228.23C247.229 228.23 247.37 228.224 247.518 228.215C247.791 228.303 248.073 228.356 248.367 228.356C248.85 228.356 249.31 228.22 249.727 227.994C249.731 227.992 249.74 227.997 249.744 227.994C250.238 228.142 250.815 228.23 251.443 228.23C251.71 228.231 251.977 228.215 252.242 228.183C252.54 228.29 252.85 228.356 253.176 228.356C253.525 228.356 253.863 228.291 254.179 228.167C254.493 228.216 254.817 228.23 255.165 228.23C255.512 228.232 255.858 228.206 256.201 228.152C256.536 228.288 256.894 228.358 257.255 228.357C259.189 228.357 260.756 226.353 260.756 223.87C260.756 222.797 260.46 221.81 259.974 221.036C259.981 220.962 259.99 220.892 259.99 220.816C259.99 219.255 258.46 217.982 256.575 217.982C255.83 217.982 255.148 218.182 254.587 218.517C254.027 218.184 253.341 217.982 252.599 217.982C251.693 217.982 250.864 218.277 250.253 218.754C249.642 218.276 248.815 217.982 247.908 217.982C246.811 217.982 245.831 218.418 245.207 219.084C244.582 218.416 243.603 217.982 242.504 217.982C241.462 217.982 240.547 218.38 239.921 218.99C239.296 218.38 238.347 217.982 237.305 217.982C236.337 217.982 235.461 218.328 234.84 218.864C234.216 218.295 233.327 217.919 232.325 217.919C231.313 217.919 230.401 218.299 229.776 218.88C229.151 218.298 228.241 217.919 227.227 217.919C226.371 217.919 225.584 218.18 224.984 218.612C224.364 218.083 223.498 217.762 222.537 217.762L222.537 217.762Z" fill="#270080"/>
<path d="M237.639 226.752C238.969 226.752 240.047 225.117 240.047 223.101C240.047 221.084 238.969 219.449 237.639 219.449C236.309 219.449 235.23 221.084 235.23 223.101C235.23 225.117 236.309 226.752 237.639 226.752Z" fill="#008000"/>
<path d="M223.703 219.967C222.36 219.967 221.277 221.247 221.277 222.821C221.277 224.395 222.36 225.661 223.703 225.661C223.806 225.659 223.909 225.65 224.011 225.634V219.994C223.91 219.979 223.807 219.967 223.703 219.967H223.703ZM228.586 220.086C227.243 220.086 226.16 221.367 226.16 222.94C226.16 224.514 227.243 225.781 228.586 225.781C228.689 225.779 228.791 225.77 228.893 225.753V220.114C228.791 220.097 228.689 220.088 228.586 220.086ZM233.075 220.086C231.732 220.086 230.65 221.367 230.65 222.94C230.65 224.514 231.732 225.781 233.075 225.781C233.178 225.779 233.281 225.77 233.383 225.753V220.114C233.281 220.097 233.178 220.088 233.075 220.086ZM242.295 220.175C243.637 220.175 244.72 221.456 244.72 223.03C244.72 224.603 243.637 225.87 242.295 225.87C242.192 225.868 242.089 225.859 241.987 225.842V220.203C242.087 220.188 242.191 220.175 242.294 220.175H242.295ZM247.106 220.181C248.448 220.181 249.531 221.462 249.531 223.036C249.531 224.609 248.448 225.876 247.105 225.876C247.002 225.874 246.9 225.865 246.798 225.848V220.21C246.898 220.194 247.001 220.181 247.105 220.181H247.106ZM251.727 220.088C253.07 220.088 254.153 221.369 254.153 222.942C254.153 224.516 253.07 225.783 251.727 225.783C251.624 225.781 251.521 225.772 251.419 225.755V220.115C251.52 220.101 251.623 220.088 251.727 220.088L251.727 220.088ZM256.112 220.058C257.455 220.058 258.538 221.338 258.538 222.912C258.538 224.485 257.455 225.752 256.112 225.752C256.009 225.751 255.906 225.741 255.805 225.724V220.086C255.905 220.071 256.009 220.057 256.112 220.057L256.112 220.058Z" fill="#008000"/>
<path d="M234.753 160.898C222.247 146.271 197.885 165.944 157.277 155.377C165.542 158.364 166.311 163.537 184.705 163.57C186.766 165.365 188.029 167.348 197.885 167.31C198.922 168.821 204.49 168.973 210.174 169.091C211.585 170.068 211.759 171.417 217.654 171.05C216.098 171.324 217.662 173.022 224.912 172.363C226.894 172.183 228.02 175.859 227.094 175.859L219.613 179.675C219.447 181.41 220.594 183.941 223.265 184.007C224.114 185.156 223.989 185.277 227.094 185.298C228.341 186.149 229.587 186.648 230.834 185.833C231.853 187.12 233.052 187.394 234.574 185.833C235.478 187.212 236.925 186.783 238.314 186.545C239.673 187.418 240.655 187.351 241.342 186.545C242.881 187.34 244.045 186.885 245.082 186.01C249.384 187.26 249.877 186.152 250.782 185.298C254.303 185.139 253.661 183.94 253.275 182.805L248.644 176.037C250.461 174.508 251.094 173.673 255.234 173.811C257.724 173.69 259.357 172.574 259.509 171.05L278.21 171.584C289.198 171.512 293.172 169.79 296.198 167.844C301.367 167.169 305.606 165.374 306.172 162.857C313.173 159.532 314.718 157.455 316.858 154.13C291.787 167.496 255.232 145.043 245.228 158.55C238.627 157.085 235.994 159.085 234.752 160.898H234.753Z" fill="#270080" stroke="#270080" stroke-width="0.761503"/>
<path d="M233.113 178.234L231.576 184.664C231.294 186.207 234.524 186.2 234.45 184.643L233.804 178.258C233.67 177.669 233.249 177.778 233.113 178.234ZM236.639 178.234L235.102 184.664C234.82 186.207 238.05 186.2 237.976 184.643L237.33 178.258C237.197 177.669 236.776 177.778 236.639 178.234ZM241.491 179.306L241.805 185.017C241.945 186.368 244.364 185.626 243.953 184.344L242.014 179.168C241.78 178.707 241.489 178.895 241.491 179.306Z" fill="#DCDADD"/>
<path d="M262.827 167.377C266.688 169.35 266.647 171.881 266.48 174.429C264.576 170.842 261.833 171.034 259.112 171.124C258.988 169.349 260.558 168.523 262.513 167.912L262.827 167.377Z" fill="#1C005C"/>
<path d="M203.496 157.957C205.425 157.311 206.621 159.889 204.186 160.585C190.465 164.735 175.009 161.939 164.469 158.091C176.61 159.523 190.465 161.308 203.496 157.958V157.957ZM206.501 161.646C198.697 163.742 192.953 163.775 186.728 164.291C191.908 164.96 200.06 167.469 208.075 163.662C209.566 162.998 208.882 160.992 206.501 161.646ZM212.734 164.318C204.93 166.413 205.109 166.447 198.884 166.963C204.197 167.377 205.937 169.058 214.754 166.467C216.245 166.249 215.115 163.664 212.734 164.318ZM217.746 166.95C215.743 168.516 213.711 168.87 211.691 169.694C214.453 169.423 219.246 169.955 220.467 168.576C220.715 167.601 219.707 166.415 217.746 166.95H217.746ZM223.98 168.82C221.977 170.386 219.945 170.74 217.924 171.564C220.998 171.36 225.636 172.048 226.701 170.446C226.949 169.471 225.94 168.285 223.98 168.82ZM212.435 157.821C210.817 157.811 209.254 157.889 207.776 158.042C209.11 159.379 211.472 161.012 214.151 162.559L216.45 161.08C219.126 159.421 221.404 161.831 219.441 162.591L216.025 163.599C220.999 166.259 226.452 168.395 228.335 167.849C229.969 167.463 232.937 166.311 232.522 165.346C227.357 159.677 219.449 157.866 212.435 157.821ZM224.211 161.71C225.218 161.661 226.324 163.197 224.557 163.709L220.999 164.638C219.183 165.263 218.899 163.996 219.614 163.52L223.801 161.835C223.933 161.756 224.067 161.716 224.211 161.71ZM228.792 164.039C229.741 163.978 230.455 165.951 228.745 166.054L225.549 166.149C223.882 166.343 223.982 165.062 224.699 164.763L228.603 164.071C228.668 164.048 228.729 164.043 228.792 164.039Z" fill="#DCDADD"/>
<path d="M219.078 156.421C218.714 156.432 218.351 156.448 218.008 156.485C225.146 158.539 230.973 161.342 233.593 164.419C232.889 166.867 233.762 168.739 234.71 171.188C234.568 171.351 234.431 171.519 234.301 171.692L228.823 172.605C229.807 171.551 232.286 169.989 231.152 169.677L226.776 172.479C227.464 173.122 227.718 173.763 228.191 174.651C228.65 175.941 228.274 176.876 228.036 177.469L224.415 182.758C223.743 184.707 226.371 184.831 226.65 184.143L229.405 177.012V176.351C229.051 175.833 228.682 175.34 229.138 173.549L233.01 172.479C233.692 172.954 233.183 173.42 232.711 173.895C231.499 174.232 230.416 174.603 230.838 175.407L233.845 174.635C233.928 174.733 234.016 174.826 234.128 174.919C234.944 175.506 235.767 175.392 236.584 174.793C237.311 174.067 238.029 173.984 238.756 174.919C239.231 175.283 239.714 175.138 240.189 174.793C241.351 174.063 241.574 174.629 241.558 175.548C241.972 176.065 241.942 177.332 242.991 176.792L247.493 175.548C249.007 173.989 250.513 173.54 252.027 172.746C253.278 172.543 255.122 173.214 256.797 171.849L257.773 170.432L261.378 167C261.19 165.799 259.94 164.285 255.947 165.442C252.919 166.878 250.678 166.517 249.398 165.757L245.179 161.207C243.627 159.666 238.275 158.862 234.71 162.718C232.103 158.884 224.543 156.256 219.078 156.421ZM257.395 166.15C257.948 166.15 258.402 166.676 258.402 167.315C258.402 167.954 257.948 168.464 257.395 168.464C256.842 168.464 256.387 167.954 256.387 167.315C256.387 166.676 256.841 166.15 257.395 166.15Z" fill="#DCDADD"/>
<path d="M220.862 179.954C220.353 180.647 220.739 183.277 223.177 182.76L226.962 177.372L220.862 179.954ZM230.791 178.218L227.852 184.14C227.231 185.58 230.38 186.298 230.657 184.763L231.459 178.396C231.461 177.792 231.026 177.804 230.791 178.218ZM239.345 178.994L238.722 184.68C238.639 186.035 241.147 185.698 240.951 184.367L239.884 178.943C239.728 178.45 239.411 178.588 239.345 178.994ZM244.051 178.439L246.002 184.798C246.546 186.293 249.369 185.119 248.506 183.74L244.668 178.21C244.249 177.727 243.937 177.978 244.052 178.439L244.051 178.439ZM246.81 178.239L249.926 184.116C250.742 185.481 253.294 183.796 252.186 182.604L247.373 177.898C246.87 177.502 246.611 177.808 246.81 178.239ZM246.235 159.758C246.08 160.199 247.805 161.238 248.061 161.081C253.011 154.14 268.616 159.676 278.664 158.877C274.614 157.932 251.032 151.329 246.235 159.758H246.235ZM248.579 161.61L250.227 163.58C250.386 163.651 250.475 163.863 250.827 163.547L253.165 161.921C253.458 161.714 253.748 161.397 252.787 161.387L249.047 161.365C248.618 161.304 248.386 161.346 248.579 161.61Z" fill="#DCDADD"/>
<path d="M252.848 160.153L255.082 161.144C255.3 161.117 256.947 160.912 255.648 160.262L254.326 159.381C254.177 159.14 251.762 159.431 252.848 160.153ZM256.46 158.27C256.308 159.061 257.964 160.354 258.464 160.207C262.641 159.321 274.057 162.501 277.409 160.297C270.641 160.066 262.119 157.704 256.46 158.27ZM261.3 160.908C257.32 160.981 254.138 161.913 251.808 163.946L251.697 163.978C251.752 164.539 252.15 164.844 253.035 164.812L255.05 164.119C256.293 163.853 257.65 163.762 259.049 163.741C261.946 164.159 262.466 165.552 263.205 166.733C263.695 167.726 264.916 167.784 266.007 167.205L268.809 166.103C268.813 165.635 269.367 165.169 267.817 164.702C267.301 164.632 267.274 164.413 267.345 164.166L267.502 163.852C269.034 163.623 270.972 162.221 271.58 164.655C273.007 165.533 272.873 165.087 273.201 165.032C273.543 165.004 273.988 164.352 274.508 163.316C275.062 162.604 274.698 162.288 273.831 162.167L264.181 160.987C263.222 160.917 262.261 160.89 261.3 160.908ZM280.281 161.076L283.353 158.315C293.774 160.355 303.864 159.458 313.453 157.068C307.098 162.35 297.305 163.513 280.281 161.076Z" fill="#DCDADD"/>
<path d="M279.056 162.633L274.871 165.304C289.454 166.756 301.416 166.185 305.727 162.677C297.19 163.94 288.416 163.368 279.057 162.633L279.056 162.633ZM273.624 166.24L270.374 168.555C281.839 170.168 288.59 169.655 294.685 166.863C287.561 167.247 280.748 167.145 273.624 166.24ZM267.391 169.535L274.07 169.846C272.965 170.672 270.893 171.095 266.945 170.737L267.391 169.535Z" fill="#DCDADD"/>
<path d="M190.084 224.187C231.396 249.575 264.904 241.143 296.322 223.653L299.528 239.771L298.192 249.478L296.678 250.458C251.735 273.832 216.172 267.728 184.473 249.478L181.98 233.271L181.891 222.406L190.084 224.187Z" fill="#B6D1F5" stroke="#270080" stroke-width="5.03769"/>
<path d="M189.014 222.94C183.95 231.697 186.313 242.146 185.541 251.882C185.757 253.952 181.542 254.189 181.177 250.724C179.719 242.899 177.869 235.896 178.684 223.296C179.321 220.81 182.275 218.017 189.014 222.94Z" fill="#B6D1F5" stroke="#270080" stroke-width="3.30588"/>
<path d="M183.574 225.379C186.383 225.525 188.724 224.427 188.802 222.927C188.88 221.426 186.666 220.091 183.857 219.945C181.049 219.798 178.708 220.896 178.63 222.397C178.552 223.898 180.766 225.233 183.574 225.379Z" fill="#B6D1F5" stroke="#270080" stroke-width="3.3059"/>
<path d="M185.146 225.231C186.789 225.316 188.158 224.674 188.204 223.796C188.25 222.918 186.955 222.137 185.311 222.051C183.668 221.966 182.299 222.608 182.253 223.486C182.207 224.364 183.503 225.145 185.146 225.231Z" fill="black" stroke="#270080" stroke-width="0.729566"/>
<path d="M294.431 224.188C299.495 232.945 297.133 243.394 297.904 253.13C297.688 255.201 301.903 255.437 302.268 251.972C303.726 244.148 305.576 237.144 304.761 224.544C304.125 222.058 301.17 219.265 294.431 224.188Z" fill="#B6D1F5" stroke="#270080" stroke-width="3.30589"/>
<path d="M299.871 226.627C297.062 226.773 294.722 225.675 294.643 224.175C294.565 222.674 296.779 221.339 299.588 221.193C302.397 221.046 304.737 222.144 304.815 223.645C304.893 225.146 302.68 226.481 299.871 226.627Z" fill="#B6D1F5" stroke="#270080" stroke-width="3.30592"/>
<path d="M298.299 226.479C296.656 226.564 295.287 225.922 295.241 225.044C295.195 224.166 296.491 223.385 298.134 223.299C299.777 223.214 301.146 223.856 301.192 224.734C301.238 225.612 299.943 226.393 298.299 226.479Z" fill="black" stroke="#270080" stroke-width="0.72957"/>
<path fill-rule="evenodd" clip-rule="evenodd" d="M194.575 234.672C194.361 235.111 194.134 235.543 193.917 235.984C193.639 235.684 193.351 235.389 193.07 235.086C192.914 235.467 192.749 235.844 192.593 236.227C192.226 235.838 191.848 235.459 191.481 235.072C191.685 234.655 191.902 234.246 192.103 233.828C192.397 234.119 192.695 234.401 192.986 234.688C193.157 234.324 193.338 233.967 193.506 233.602C193.861 233.961 194.223 234.313 194.575 234.672ZM195.955 246.436L195.172 246.205C195.023 246.16 194.887 246.078 194.776 245.968C194.547 245.745 194.353 245.398 194.192 244.937C193.983 244.301 193.84 243.48 193.777 242.465C193.511 242.843 193.289 243.098 193.141 243.242C192.925 243.456 192.744 243.537 192.593 243.493C192.493 243.461 192.396 243.416 192.307 243.36C192.065 243.224 191.82 243.089 191.578 242.953C191.269 242.77 191.075 242.659 191.004 242.596C190.969 242.568 190.942 242.533 190.923 242.492C190.905 242.452 190.895 242.408 190.897 242.363C190.897 242.217 191.039 241.798 191.315 241.101C191.585 240.409 191.789 239.994 191.912 239.842C192.011 239.726 192.19 239.593 192.443 239.431C192.59 239.335 192.81 239.217 193.088 239.079C193.192 239.024 193.3 238.974 193.407 238.92C193.394 238.84 193.386 238.759 193.381 238.678C193.373 238.604 193.369 238.529 193.369 238.454C193.369 238.253 193.407 238.005 193.476 237.71C193.542 237.421 193.67 237.079 193.845 236.667C194.034 238.41 194.233 240.152 194.419 241.894C194.509 242.713 194.631 243.284 194.777 243.609C194.874 243.826 195.006 243.953 195.172 244.001L195.955 244.232V246.436ZM193.631 241.173C193.593 240.838 193.552 240.504 193.514 240.168C193.386 240.211 193.284 240.246 193.215 240.275C192.996 240.365 192.818 240.456 192.687 240.557C192.604 240.628 192.524 240.705 192.45 240.786C192.374 240.887 192.33 240.962 192.33 241.017C192.33 241.091 192.402 241.175 192.539 241.26C192.669 241.338 192.808 241.399 192.953 241.444C193.042 241.47 193.131 241.466 193.226 241.42C193.32 241.383 193.46 241.304 193.631 241.173V241.173Z" fill="#270080"/>
<path fill-rule="evenodd" clip-rule="evenodd" d="M199.272 247.413L195.535 246.313V244.11L198.675 245.034C198.64 244.691 198.559 244.354 198.436 244.032C198.377 243.878 198.237 243.596 198.02 243.18C198.175 242.584 198.341 241.991 198.497 241.393C198.79 241.942 199.002 242.482 199.111 243.015C199.216 243.551 199.272 244.311 199.272 245.3V247.413V247.413ZM199.178 248.813C198.961 249.3 198.737 249.783 198.52 250.271C198.239 249.97 197.953 249.676 197.673 249.373C197.517 249.756 197.352 250.133 197.196 250.514C196.829 250.128 196.451 249.748 196.084 249.359C196.288 248.896 196.502 248.437 196.706 247.972C196.997 248.259 197.295 248.541 197.589 248.829C197.752 248.441 197.925 248.055 198.091 247.666C198.448 248.049 198.818 248.426 199.178 248.813ZM204.563 249.158C204.563 249.489 204.422 249.877 204.144 250.339C203.869 250.803 203.537 251.178 203.167 251.47C202.759 251.799 202.397 251.905 202.103 251.819C201.752 251.716 201.372 251.472 200.974 251.084C200.624 250.742 200.071 250.127 199.334 249.206C199.415 249.061 199.499 248.921 199.583 248.779C199.938 249.21 200.229 249.509 200.448 249.687C200.657 249.861 200.899 249.99 201.16 250.068C201.433 250.148 201.711 250.128 201.984 249.995C202.257 249.862 202.639 249.593 203.106 249.151C203.759 248.534 204.098 248.023 204.098 247.594C204.098 247.376 204.029 247.073 203.907 246.687C203.764 246.247 203.585 245.865 203.379 245.535C203.491 244.839 203.606 244.145 203.716 243.448C203.981 243.908 204.195 244.397 204.341 244.936C204.488 245.475 204.563 246.053 204.563 246.679V249.158Z" fill="#270080"/>
<path fill-rule="evenodd" clip-rule="evenodd" d="M213.996 251.746L207.675 249.885C207.398 249.808 207.158 249.634 206.999 249.394C206.828 249.156 206.68 248.8 206.563 248.337C206.31 248.74 206.065 248.997 205.836 249.103C205.629 249.197 205.346 249.193 204.999 249.091L204.145 248.846V246.643L204.999 246.887C205.458 247.022 205.815 246.975 206.05 246.726C206.328 246.44 206.512 245.866 206.585 244.986C206.723 245.055 206.859 245.12 206.994 245.188C206.981 245.379 206.976 245.532 206.968 245.65C206.953 245.934 206.946 246.219 206.945 246.503C206.945 246.811 207.006 247.063 207.124 247.269C207.241 247.473 207.399 247.601 207.596 247.659C207.792 247.717 207.973 247.714 208.139 247.657C208.3 247.597 208.568 247.454 208.914 247.213C209.621 246.724 210.348 246.259 211.052 245.766C211.236 245.641 211.426 245.525 211.621 245.417C211.909 245.263 212.192 245.228 212.463 245.308C212.912 245.44 213.266 245.753 213.532 246.262C213.837 246.85 213.996 247.647 213.996 248.643V251.746V251.746ZM213.162 248.472C213.162 248.228 213.016 247.991 212.736 247.753C212.505 247.562 212.238 247.42 211.95 247.336C211.687 247.259 211.392 247.281 211.065 247.417C210.741 247.558 210.254 247.829 209.632 248.257L211.198 248.718C212.504 249.103 213.162 249.021 213.162 248.472V248.472Z" fill="#270080"/>
<path fill-rule="evenodd" clip-rule="evenodd" d="M219.074 253.233C218.656 253.11 218.166 252.857 217.599 252.466C217.105 252.123 216.658 251.772 216.286 251.391C216.056 251.796 215.771 252.015 215.431 252.064C215.271 252.091 215.044 252.054 214.763 251.971L213.582 251.624V249.42L214.763 249.768C215.12 249.873 215.408 249.902 215.618 249.841C215.883 249.764 216.079 249.564 216.179 249.221C216.401 248.596 216.702 248.131 217.049 247.783C217.362 247.475 217.627 247.363 217.849 247.428C218.054 247.488 218.309 247.976 218.602 248.896C218.913 249.873 219.074 250.729 219.074 251.465V253.233ZM217.959 250.459C217.959 250.336 217.872 250.111 217.702 249.766C217.513 249.384 217.342 249.174 217.207 249.134C217.049 249.088 216.916 249.292 216.811 249.748C217.018 249.915 217.176 250.04 217.283 250.13C217.604 250.389 217.786 250.521 217.827 250.533C217.916 250.559 217.959 250.53 217.959 250.458L217.959 250.459Z" fill="#270080"/>
<path fill-rule="evenodd" clip-rule="evenodd" d="M221.937 254.084L218.654 253.118V250.914C219.511 251.167 220.366 251.418 221.223 251.67C220.986 249.768 220.736 247.859 220.501 245.958C220.374 245.804 220.243 245.655 220.118 245.504C220.118 245.187 220.154 244.875 220.225 244.572C220.312 244.183 220.473 243.746 220.69 243.24C220.782 243.334 220.873 243.423 220.965 243.518C220.965 243.548 220.96 243.637 220.942 243.768C220.942 243.949 221.027 244.141 221.192 244.361C221.34 244.562 221.577 244.787 221.896 245.071C221.86 245.395 221.808 245.718 221.741 246.037C221.681 246.314 221.601 246.585 221.503 246.85C221.432 246.792 221.358 246.733 221.287 246.673C221.501 248.409 221.726 250.148 221.937 251.881V254.084M224.149 252.378C224.149 252.856 224.105 253.281 224.021 253.653C223.939 254.025 223.774 254.511 223.539 255.114C223.419 255.014 223.299 254.916 223.179 254.816C223.274 254.155 223.325 253.603 223.325 253.172C223.325 252.841 223.304 252.357 223.264 251.703C223.224 251.056 223.174 250.41 223.116 249.765C223.057 249.124 222.957 248.358 222.822 247.452C222.776 247.137 222.751 246.919 222.751 246.805C222.751 246.633 222.812 246.369 222.937 246C223.059 245.64 223.238 245.208 223.455 244.695C223.572 245.684 223.695 246.677 223.812 247.669C223.942 248.801 224.034 249.769 224.088 250.586C224.128 251.212 224.148 251.811 224.148 252.379M236.509 243.116C236.287 243.616 236.052 244.111 235.83 244.614C235.553 244.393 235.268 244.178 234.993 243.955C234.831 244.379 234.658 244.804 234.494 245.23C234.131 244.946 233.76 244.672 233.397 244.39C233.609 243.915 233.83 243.445 234.042 242.97C234.329 243.178 234.625 243.376 234.915 243.581C235.09 243.168 235.277 242.761 235.455 242.348C235.803 242.607 236.161 242.857 236.509 243.116ZM237.71 254.489C237.449 254.487 237.189 254.483 236.929 254.48C236.788 254.48 236.651 254.436 236.536 254.354C236.306 254.197 236.117 253.905 235.965 253.488C235.762 252.911 235.632 252.131 235.584 251.134C235.312 251.587 235.084 251.904 234.936 252.09C234.715 252.365 234.529 252.497 234.379 252.496C234.282 252.492 234.186 252.475 234.094 252.444C233.853 252.376 233.611 252.31 233.367 252.242C233.06 252.146 232.87 252.09 232.799 252.048C232.728 252.005 232.694 251.942 232.695 251.845C232.698 251.699 232.847 251.24 233.135 250.464C233.415 249.696 233.627 249.224 233.755 249.038C233.856 248.893 234.035 248.71 234.294 248.477C234.444 248.339 234.667 248.159 234.948 247.942C235.054 247.858 235.162 247.778 235.268 247.693C235.257 247.621 235.253 247.541 235.246 247.459C235.243 247.385 235.239 247.313 235.24 247.239C235.243 247.037 235.283 246.778 235.359 246.464C235.428 246.157 235.564 245.779 235.747 245.317C235.909 247.006 236.079 248.693 236.241 250.382C236.315 251.175 236.432 251.712 236.573 251.996C236.664 252.185 236.796 252.275 236.964 252.277C237.224 252.279 237.484 252.283 237.744 252.286L237.71 254.489ZM235.461 249.883C235.428 249.558 235.389 249.236 235.356 248.911C235.23 248.991 235.127 249.054 235.055 249.102C234.833 249.255 234.655 249.396 234.522 249.534C234.426 249.639 234.346 249.74 234.278 249.829C234.199 249.951 234.155 250.039 234.154 250.095C234.153 250.169 234.226 250.232 234.36 250.278C234.497 250.319 234.635 250.344 234.772 250.345C234.862 250.346 234.954 250.318 235.049 250.244C235.145 250.181 235.287 250.062 235.461 249.883Z" fill="#270080"/>
<path fill-rule="evenodd" clip-rule="evenodd" d="M241.03 254.528L237.293 254.483L237.328 252.279L240.467 252.317C240.43 251.953 240.351 251.637 240.243 251.383C240.186 251.246 240.047 251.003 239.836 250.648C240.002 250.009 240.178 249.369 240.343 248.727C240.632 249.193 240.833 249.673 240.938 250.175C241.034 250.681 241.079 251.426 241.063 252.415L241.03 254.528H241.03ZM240.91 255.954C240.687 256.502 240.451 257.049 240.228 257.598C239.952 257.376 239.666 257.162 239.389 256.939C239.227 257.365 239.057 257.79 238.892 258.214C238.53 257.932 238.159 257.658 237.796 257.374C238.006 256.852 238.231 256.334 238.44 255.81C238.731 256.015 239.026 256.214 239.316 256.419C239.486 255.985 239.667 255.549 239.837 255.113C240.192 255.396 240.557 255.669 240.91 255.954ZM246.553 254.036C246.538 254.968 246.223 255.874 245.64 256.78C245.054 257.684 244.465 258.129 243.899 258.122C243.57 258.118 243.205 257.97 242.825 257.678C242.439 257.388 241.83 256.822 241.043 255.962C241.127 255.806 241.216 255.652 241.3 255.497C241.72 255.894 242.073 256.151 242.346 256.286C242.569 256.398 242.826 256.454 243.111 256.458C243.499 256.463 243.886 256.326 244.266 256.034C244.716 255.687 245.193 255.151 245.677 254.382C245.508 254.413 245.373 254.428 245.258 254.426C244.863 254.421 244.552 254.242 244.331 253.889C244.106 253.534 243.991 253.065 244.001 252.465C244.014 251.666 244.165 250.876 244.449 250.13C244.755 249.313 245.106 248.914 245.488 248.919C245.804 248.923 246.078 249.216 246.288 249.811C246.493 250.407 246.599 251.113 246.586 251.947L246.553 254.036H246.553ZM245.864 252.383C245.766 251.515 245.543 251.074 245.204 251.07C245.079 251.069 244.981 251.132 244.908 251.261C244.831 251.394 244.79 251.545 244.789 251.698C244.786 251.892 244.862 252.053 245.018 252.178C245.172 252.312 245.38 252.377 245.635 252.38C245.714 252.381 245.788 252.382 245.865 252.383L245.864 252.383Z" fill="#270080"/>
<path fill-rule="evenodd" clip-rule="evenodd" d="M252.946 254.674L246.129 254.591L246.164 252.388L250.408 252.439C249.942 251.757 249.498 251.274 249.095 250.966C248.737 250.69 248.382 250.559 248.037 250.555C247.935 250.553 247.84 250.561 247.756 250.567C247.667 250.582 247.539 250.613 247.38 250.66C247.605 249.982 247.865 249.484 248.136 249.163C248.406 248.84 248.717 248.683 249.056 248.688C249.322 248.69 249.573 248.78 249.812 248.956C250.052 249.131 250.323 249.414 250.615 249.8C250.848 250.104 251.19 250.581 251.611 251.23C251.897 251.69 252.125 251.98 252.28 252.121C252.434 252.262 252.667 252.376 252.982 252.47L252.947 254.674L252.946 254.674ZM250.71 256.421C250.453 257.03 250.183 257.634 249.928 258.245C249.48 257.899 249.018 257.566 248.57 257.223C248.822 256.614 249.084 256.01 249.333 255.402C249.789 255.745 250.253 256.078 250.71 256.421Z" fill="#270080"/>
<path fill-rule="evenodd" clip-rule="evenodd" d="M255.81 254.707L252.527 254.667L252.562 252.464L255.131 252.495C254.922 250.66 254.701 248.822 254.493 246.987C254.37 246.869 254.242 246.757 254.118 246.641C254.124 246.317 254.165 245.994 254.241 245.679C254.334 245.265 254.503 244.783 254.728 244.216C254.819 244.284 254.91 244.348 255.001 244.416C255 244.446 254.991 244.536 254.974 244.673C254.971 244.854 255.052 245.021 255.213 245.195C255.361 245.354 255.596 245.512 255.911 245.706C255.869 246.045 255.812 246.383 255.74 246.717C255.674 247.015 255.59 247.308 255.489 247.596C255.418 247.558 255.345 247.521 255.274 247.48C255.459 249.155 255.659 250.831 255.845 252.504L255.81 254.707ZM258.059 252.378C258.054 252.818 258.004 253.257 257.91 253.688C257.822 254.083 257.646 254.616 257.4 255.285C257.284 255.218 257.165 255.155 257.046 255.088C257.151 254.401 257.209 253.834 257.216 253.404C257.221 253.072 257.211 252.595 257.18 251.952C257.15 251.313 257.111 250.68 257.062 250.056C257.013 249.432 256.923 248.694 256.804 247.826C256.763 247.524 256.741 247.313 256.742 247.199C256.745 247.028 256.811 246.746 256.94 246.342C257.068 245.947 257.257 245.465 257.483 244.891C257.585 245.847 257.693 246.805 257.795 247.763C257.907 248.859 257.984 249.8 258.025 250.603C258.056 251.194 258.067 251.786 258.059 252.378ZM271.775 244.138C271.56 244.776 271.333 245.411 271.119 246.048C270.838 245.94 270.55 245.841 270.27 245.731C270.114 246.22 269.948 246.708 269.792 247.198C269.425 247.061 269.05 246.938 268.683 246.803C268.884 246.199 269.101 245.593 269.305 244.99C269.596 245.078 269.895 245.156 270.188 245.246C270.351 244.742 270.525 244.239 270.688 243.737C271.048 243.875 271.417 244.002 271.775 244.138ZM273.884 251.006L268.874 252.959C268.39 253.148 268.073 253.264 267.918 253.299C267.75 253.338 267.576 253.348 267.405 253.33C267.078 253.3 266.803 253.104 266.599 252.72C266.392 252.337 266.283 251.863 266.283 251.288C266.283 251.068 266.288 250.865 266.308 250.678C266.324 250.501 266.354 250.281 266.402 250.025C266.466 249.653 266.548 249.322 266.627 249.055C266.711 248.788 266.864 248.406 267.071 247.918C267.181 247.984 267.295 248.046 267.405 248.112C267.234 248.61 267.117 248.985 267.058 249.26C266.997 249.513 266.966 249.773 266.964 250.034C266.964 250.342 267.038 250.586 267.183 250.775C267.323 250.973 267.52 251.054 267.752 251.04C267.889 251.035 268.073 251.003 268.3 250.938C268.539 250.872 268.774 250.795 269.004 250.705L273.323 249.021C273.211 248.65 273.119 248.397 273.047 248.253C272.963 248.084 272.823 247.873 272.642 247.626C272.815 246.932 273.002 246.234 273.177 245.538C273.473 245.999 273.677 246.453 273.764 246.896C273.841 247.288 273.884 247.897 273.884 248.715V251.006ZM276.09 247.79C276.091 248.246 276.05 248.7 275.968 249.149C275.884 249.578 275.718 250.178 275.483 250.941C275.364 250.923 275.244 250.907 275.126 250.888C275.218 250.164 275.269 249.576 275.269 249.145C275.269 248.814 275.249 248.345 275.208 247.719C275.167 247.106 275.118 246.493 275.06 245.881C275.001 245.281 274.902 244.583 274.767 243.769C274.718 243.487 274.695 243.285 274.695 243.171C274.695 243 274.756 242.693 274.879 242.24C275.004 241.795 275.182 241.241 275.399 240.58C275.517 241.489 275.642 242.397 275.759 243.308C275.886 244.352 275.981 245.256 276.032 246.038C276.073 246.636 276.09 247.222 276.09 247.79ZM283.274 246.422C283.274 247.353 282.973 248.362 282.402 249.461C281.83 250.559 281.248 251.2 280.682 251.385C280.353 251.493 279.986 251.469 279.601 251.307C279.21 251.149 278.596 250.792 277.792 250.204C277.874 250.02 277.96 249.836 278.042 249.654C278.468 249.907 278.825 250.043 279.098 250.086C279.325 250.12 279.583 250.09 279.869 249.996C280.259 249.869 280.644 249.602 281.016 249.184C281.46 248.687 281.932 247.99 282.402 247.063C282.236 247.15 282.095 247.212 281.983 247.249C281.59 247.377 281.276 247.303 281.047 247.028C280.817 246.751 280.692 246.324 280.692 245.724C280.692 244.915 280.835 244.092 281.106 243.249C281.399 242.333 281.743 241.817 282.126 241.692C282.442 241.589 282.723 241.787 282.937 242.31C283.156 242.832 283.274 243.498 283.274 244.332V246.421V246.422ZM282.557 245.011C282.445 244.181 282.215 243.818 281.876 243.928C281.751 243.969 281.654 244.066 281.585 244.218C281.506 244.383 281.471 244.54 281.471 244.694C281.471 244.888 281.549 245.022 281.708 245.093C281.861 245.175 282.073 245.169 282.33 245.085L282.557 245.011Z" fill="#270080"/>
<path fill-rule="evenodd" clip-rule="evenodd" d="M286.492 236.185C286.277 236.806 286.053 237.426 285.839 238.052C285.558 237.926 285.267 237.808 284.987 237.682C284.834 238.158 284.665 238.639 284.512 239.116C284.145 238.957 283.767 238.812 283.4 238.654C283.604 238.059 283.818 237.47 284.022 236.875C284.313 236.984 284.614 237.08 284.905 237.189C285.068 236.696 285.242 236.204 285.405 235.715C285.767 235.875 286.135 236.023 286.492 236.185V236.185ZM287.241 245.685L282.859 247.116V244.915C283.217 244.798 283.574 244.681 283.931 244.565C284.119 244.503 284.293 244.451 284.451 244.428C284.89 244.349 285.39 244.255 285.951 244.156C285.359 244.168 284.941 244.073 284.706 243.848C284.472 243.633 284.349 243.242 284.349 242.686C284.349 241.852 284.497 241.044 284.783 240.274C285.058 239.512 285.385 239.072 285.737 238.957C286.135 238.827 286.492 239.178 286.793 240.025C287.083 240.88 287.241 241.959 287.241 243.294V245.685ZM286.425 242.592C286.288 242.174 286.119 241.867 285.951 241.658C285.782 241.453 285.599 241.388 285.426 241.445C285.337 241.474 285.263 241.535 285.216 241.615C285.155 241.709 285.124 241.798 285.124 241.9C285.124 242.132 285.262 242.304 285.517 242.443C285.767 242.58 286.078 242.631 286.425 242.592Z" fill="#270080"/>
<path fill-rule="evenodd" clip-rule="evenodd" d="M290.109 244.75L286.824 245.822V243.621L289.39 242.783C289.156 241.025 288.906 239.272 288.666 237.519C288.543 237.444 288.411 237.376 288.283 237.301C288.283 236.986 288.324 236.649 288.395 236.301C288.482 235.86 288.64 235.322 288.86 234.68C288.951 234.72 289.043 234.75 289.135 234.79C289.135 234.818 289.125 234.914 289.11 235.053C289.11 235.234 289.197 235.372 289.36 235.49C289.507 235.6 289.742 235.68 290.064 235.766C290.028 236.121 289.977 236.475 289.911 236.826C289.846 237.151 289.766 237.472 289.671 237.789C289.599 237.776 289.528 237.762 289.457 237.743C289.671 239.346 289.895 240.946 290.109 242.549V244.75ZM292.314 241.676C292.314 242.153 292.273 242.602 292.191 243.027C292.109 243.448 291.941 244.041 291.706 244.789C291.589 244.763 291.467 244.738 291.349 244.711C291.441 243.991 291.492 243.408 291.492 242.978C291.492 242.649 291.472 242.178 291.431 241.547C291.39 240.931 291.341 240.315 291.283 239.7C291.222 239.099 291.125 238.394 290.992 237.566C290.941 237.287 290.921 237.08 290.921 236.969C290.921 236.797 290.982 236.495 291.104 236.047C291.227 235.613 291.405 235.068 291.625 234.422C291.742 235.338 291.865 236.253 291.982 237.174C292.109 238.226 292.206 239.135 292.257 239.92C292.298 240.518 292.313 241.106 292.313 241.676" fill="#270080"/>
<path fill-rule="evenodd" clip-rule="evenodd" d="M240.215 129.606C248.27 129.606 255.977 128.966 260.496 127.695C262.409 127.347 262.409 126.358 262.409 125.087C264.322 124.447 263.336 122.187 264.669 122.187C263.336 122.536 263.047 119.928 261.424 120.276C261.424 118.016 259.164 117.734 257.252 118.365C253.427 119.645 246.647 119.928 240.215 119.928C233.783 119.645 227.061 119.645 223.178 118.365C221.266 117.734 219.007 118.016 219.007 120.276C217.384 119.928 217.094 122.536 215.762 122.187C217.094 122.187 216.109 124.447 218.021 125.087C218.021 126.358 218.021 127.347 219.992 127.695C224.453 128.966 232.16 129.606 240.215 129.606Z" fill="#F8C300" stroke="black" stroke-width="2.40081" stroke-linecap="round" stroke-linejoin="round"/>
<path fill-rule="evenodd" clip-rule="evenodd" d="M240.54 92.6806L268.203 118.365L266.234 71.7258C265.944 64.657 259.802 66.2792 255.34 68.8288C250.82 71.7258 245.663 71.7258 240.215 69.8127C234.768 71.7258 229.611 71.7258 225.091 68.8288C220.629 66.2792 214.487 64.657 214.197 71.7258L212.227 118.365L240.54 92.6806Z" fill="#F8C300" stroke="black" stroke-width="1.28279" stroke-linecap="round" stroke-linejoin="round"/>
<path fill-rule="evenodd" clip-rule="evenodd" d="M248.27 77.8711L249.198 100.345L251.805 102.896L250.819 78.1535C250.183 78.1535 248.56 78.1535 248.27 77.8711Z" fill="#270080"/>
<path fill-rule="evenodd" clip-rule="evenodd" d="M241.491 97.793L245.374 115.474L244.098 116.745L242.766 115.757L240.563 99.9961L241.491 115.757L240.216 117.385L238.941 115.757L239.868 99.9961L237.667 115.757L236.333 116.745L235.059 115.474L238.941 97.793H241.491H241.491Z" fill="black" stroke="black" stroke-width="1.08437" stroke-linecap="square"/>
<path fill-rule="evenodd" clip-rule="evenodd" d="M217.384 70.1035L215.472 115.475L212.227 118.365L214.197 71.7267C215.124 71.0893 216.747 70.1035 217.384 70.1035Z" fill="#270080"/>
<path fill-rule="evenodd" clip-rule="evenodd" d="M221.265 73.3474L219.643 111.294L216.398 114.618L218.368 70.7988C219.006 71.4362 220.919 73 221.265 73.3474Z" fill="#270080"/>
<path fill-rule="evenodd" clip-rule="evenodd" d="M224.802 76.2433L223.527 107.896L220.92 110.448L222.543 74.332C223.179 74.9722 224.454 75.8949 224.802 76.2433Z" fill="#270080"/>
<path fill-rule="evenodd" clip-rule="evenodd" d="M228.626 77.8714L227.351 104.845L224.801 106.907L226.076 76.8828C226.714 77.1747 227.988 77.8714 228.626 77.8714H228.626Z" fill="#270080"/>
<path fill-rule="evenodd" clip-rule="evenodd" d="M232.16 77.8711L231.232 100.345L228.625 102.896L229.61 78.1535C230.247 78.1535 231.87 78.1535 232.16 77.8711Z" fill="#270080"/>
<path fill-rule="evenodd" clip-rule="evenodd" d="M263.046 70.1035L264.958 115.475L268.203 118.365L266.233 71.7267C265.306 71.0893 263.683 70.1035 263.046 70.1035Z" fill="#270080"/>
<path fill-rule="evenodd" clip-rule="evenodd" d="M259.166 73.3474L260.789 111.294L264.033 114.618L262.063 70.7988C261.425 71.4362 259.513 73 259.166 73.3474Z" fill="#270080"/>
<path fill-rule="evenodd" clip-rule="evenodd" d="M255.63 76.2433L256.904 107.896L259.512 110.448L257.889 74.332C257.253 74.9722 255.978 75.8949 255.63 76.2433Z" fill="#270080"/>
<path fill-rule="evenodd" clip-rule="evenodd" d="M251.804 77.8714L253.079 104.845L255.629 106.907L254.354 76.8828C253.716 77.1747 252.442 77.8714 251.804 77.8714H251.804Z" fill="#270080"/>
<path fill-rule="evenodd" clip-rule="evenodd" d="M231.523 90.0352L223.816 117.386L234.421 119.005L238.94 98.4333L231.523 90.0352ZM248.908 90.0352L256.614 117.386L246.01 119.005L241.49 98.4333L248.908 90.0352Z" fill="#F8C300" stroke="black" stroke-width="1.20041" stroke-linecap="round" stroke-linejoin="round"/>
<path d="M251.455 99.3666L250.528 101.626L245.517 96.834" stroke="black" stroke-width="1.28279" stroke-linecap="round" stroke-linejoin="round"/>
<path d="M242.519 104.79L246.04 110.138M244.942 115.476L246.069 110.138L247.053 104.715L249.412 107.916L250.446 104.234L253.748 107.614L252.069 113.781L249.751 109.968L248.477 113.847L246.098 110.147" stroke="black" stroke-width="1.28302" stroke-linecap="round" stroke-linejoin="round"/>
<path d="M228.973 99.3666L229.9 101.626L234.91 96.834" stroke="black" stroke-width="1.28279" stroke-linecap="round" stroke-linejoin="round"/>
<path d="M232.445 93.6973L233.494 103.536L236.681 99.3651" stroke="black" stroke-width="1.28279" stroke-linecap="round" stroke-linejoin="round"/>
<path d="M235.406 100.986L237.147 106.993" stroke="black" stroke-width="1.28279" stroke-linecap="round" stroke-linejoin="round"/>
<path d="M237.829 104.79L234.308 110.138M235.406 115.476L234.279 110.138L233.295 104.715L230.936 107.916L229.901 104.234L226.6 107.614L228.279 113.781L230.596 109.968L231.871 113.847L234.25 110.147" stroke="black" stroke-width="1.28302" stroke-linecap="round" stroke-linejoin="round"/>
<path d="M226.076 116.746L228.217 113.742L229.611 118.365L231.524 115.117L232.799 119.005" stroke="black" stroke-width="1.28279" stroke-linecap="round" stroke-linejoin="round"/>
<path d="M254.441 116.746L252.301 113.742L250.906 118.365L248.994 115.117L247.719 119.005" stroke="black" stroke-width="1.28279" stroke-linecap="round" stroke-linejoin="round"/>
<path fill-rule="evenodd" clip-rule="evenodd" d="M229.264 117.385C231.871 117.724 234.768 118.016 237.029 117.724C238.303 117.724 239.23 119.928 236.681 120.276C234.421 120.568 230.886 120.276 228.974 119.928C227.351 119.645 223.817 119.005 221.556 118.365C219.296 117.385 220.92 115.474 222.193 115.757C224.164 116.397 226.714 117.037 229.264 117.385ZM251.168 117.385C248.56 117.724 245.663 118.016 243.461 117.724C242.128 117.724 241.2 119.928 243.75 120.276C246.011 120.568 249.545 120.276 251.456 119.928C253.08 119.645 256.614 119.005 258.874 118.365C261.134 117.385 259.512 115.474 258.237 115.757C256.267 116.397 253.717 117.037 251.168 117.385Z" fill="#F8C300" stroke="black" stroke-width="1.28279" stroke-linecap="round" stroke-linejoin="round"/>
<path fill-rule="evenodd" clip-rule="evenodd" d="M221.267 116.106C219.297 115.758 218.37 118.018 219.008 119.298C219.298 118.658 220.631 118.658 220.921 118.018C221.267 117.038 220.631 117.038 221.267 116.106ZM228.975 122.038C228.975 120.757 230.249 120.917 230.249 119.646C230.249 119.006 229.902 118.018 229.265 118.018C228.627 118.018 227.989 118.658 227.989 119.298C227.699 120.569 228.975 120.757 228.975 122.038H228.975ZM238.148 118.366C240.058 118.366 239.869 120.917 238.942 122.188C238.942 121.266 237.319 120.917 237.319 120.277C237.319 119.298 238.784 119.298 238.148 118.366ZM259.166 116.106C261.136 115.758 262.063 118.018 261.426 119.298C261.136 118.658 259.803 118.658 259.513 118.018C259.166 117.038 259.803 117.038 259.166 116.106ZM251.457 122.038C251.457 120.757 250.184 120.917 250.184 119.646C250.184 119.006 250.531 118.018 251.169 118.018C251.806 118.018 252.444 118.658 252.444 119.298C252.733 120.569 251.458 120.757 251.458 122.038H251.457ZM242.286 118.366C240.374 118.366 240.564 120.917 241.491 122.188C241.491 121.266 243.113 120.917 243.113 120.277C243.113 119.298 241.649 119.298 242.286 118.366Z" fill="#F8C300" stroke="black" stroke-width="1.28279" stroke-linecap="round" stroke-linejoin="round"/>
<path d="M221.904 116.746C222.543 116.746 223.527 117.038 223.817 117.386L221.904 116.746ZM225.091 117.725C225.439 117.725 226.714 118.017 227.351 118.365L225.091 117.725ZM236.681 119.006C236.043 119.006 234.769 119.006 234.422 119.298L236.681 119.006ZM233.146 119.006C232.799 118.657 231.524 118.657 230.887 119.006H233.146Z" stroke="black" stroke-width="0.900305" stroke-linecap="round" stroke-linejoin="round"/>
<path fill-rule="evenodd" clip-rule="evenodd" d="M258.527 116.746C257.889 116.746 256.962 117.038 256.614 117.386L258.527 116.746ZM255.34 117.725C254.992 117.725 253.717 118.017 253.08 118.365L255.34 117.725ZM243.75 119.006C244.388 119.006 245.663 119.006 246.01 119.298L243.75 119.006ZM247.285 119.006C247.632 118.657 248.908 118.657 249.545 119.006H247.285Z" fill="white" stroke="black" stroke-width="0.900305" stroke-linecap="round" stroke-linejoin="round"/>
<path d="M248.047 93.6973L246.998 103.536L243.811 99.3651" stroke="black" stroke-width="1.28279" stroke-linecap="round" stroke-linejoin="round"/>
<path d="M244.898 100.984L243.158 106.991" stroke="black" stroke-width="1.28279" stroke-linecap="round" stroke-linejoin="round"/>
<path fill-rule="evenodd" clip-rule="evenodd" d="M221.368 121.84C221.152 121.793 221.039 121.624 221.093 121.426C221.159 121.181 221.356 121.04 221.542 121.106C221.661 121.143 221.878 121.36 221.878 121.445C221.879 121.529 221.765 121.746 221.716 121.746C221.695 121.746 221.662 121.765 221.643 121.784C221.602 121.831 221.476 121.859 221.368 121.84ZM243.553 123.422C243.473 123.394 243.345 123.215 243.345 123.13C243.346 122.97 243.577 122.716 243.72 122.716C243.791 122.716 243.985 122.819 244.057 122.895C244.189 123.026 244.16 123.252 243.995 123.384C243.914 123.441 243.672 123.469 243.553 123.422ZM243.7 124.42C243.53 124.363 243.468 124.288 243.454 124.1C243.44 123.902 243.459 123.864 243.666 123.751L243.814 123.676L243.954 123.742C244.148 123.827 244.234 123.921 244.241 124.043C244.248 124.184 244.144 124.335 243.982 124.401C243.84 124.467 243.832 124.467 243.7 124.42H243.7ZM221.784 123.187C221.888 123.092 221.89 123.008 221.789 122.961C221.725 122.932 221.688 122.942 221.562 122.998C221.436 123.064 221.413 123.083 221.42 123.149C221.428 123.215 221.482 123.234 221.671 123.252C221.688 123.252 221.739 123.224 221.784 123.187ZM225.189 124.966C225.098 124.938 224.872 124.881 224.688 124.844C224.264 124.759 223.605 124.618 223.427 124.561C223.352 124.533 223.215 124.505 223.123 124.476C222.955 124.439 222.868 124.42 222.591 124.326C222.508 124.297 222.303 124.241 222.136 124.203C221.969 124.156 221.773 124.1 221.702 124.072C221.63 124.043 221.546 124.015 221.514 124.015C221.482 124.015 221.41 123.996 221.355 123.968C221.299 123.93 221.166 123.902 221.059 123.893C220.836 123.874 220.669 123.789 220.574 123.667C220.493 123.554 220.491 123.469 220.566 123.318C220.598 123.252 220.623 123.177 220.624 123.149C220.624 123.121 220.651 123.074 220.684 123.045C220.717 123.017 220.744 122.979 220.744 122.97C220.744 122.932 220.884 122.725 220.968 122.64C221.077 122.527 221.303 122.424 221.43 122.414C221.505 122.414 221.571 122.396 221.604 122.367C221.64 122.33 221.722 122.311 221.868 122.301L222.079 122.283L222.161 122.132C222.207 122.057 222.244 121.953 222.245 121.897C222.246 121.85 222.267 121.774 222.293 121.727C222.318 121.68 222.357 121.558 222.38 121.464C222.464 121.096 222.525 120.899 222.561 120.861C222.614 120.814 222.609 120.786 222.518 120.673C222.469 120.616 222.411 120.579 222.37 120.579C222.269 120.579 222.103 120.635 222.051 120.692C221.947 120.805 221.81 120.87 221.705 120.87C221.561 120.88 221.377 120.776 221.308 120.654C221.253 120.56 221.254 120.55 221.317 120.428C221.358 120.343 221.411 120.287 221.464 120.258C221.59 120.211 221.91 120.24 221.984 120.306C222.037 120.343 222.076 120.353 222.244 120.334C222.352 120.315 222.448 120.296 222.456 120.287C222.464 120.277 222.531 120.249 222.604 120.24C222.678 120.23 222.745 120.202 222.754 120.183C222.763 120.155 222.818 120.127 222.876 120.117C222.935 120.108 222.998 120.08 223.017 120.061C223.036 120.033 223.091 120.014 223.138 120.014C223.205 120.014 223.236 120.033 223.276 120.108C223.321 120.193 223.323 120.221 223.291 120.39C223.271 120.494 223.229 120.635 223.199 120.692C223.169 120.748 223.144 120.852 223.145 120.908C223.146 120.983 223.124 121.049 223.086 121.096C223.053 121.134 223.027 121.191 223.027 121.228C223.027 121.266 223.007 121.313 222.982 121.341C222.956 121.36 222.921 121.464 222.904 121.567C222.887 121.671 222.856 121.774 222.836 121.812C222.815 121.84 222.79 121.925 222.78 122C222.77 122.076 222.742 122.151 222.718 122.17C222.694 122.198 222.675 122.254 222.675 122.301C222.676 122.349 222.652 122.443 222.621 122.499C222.591 122.556 222.557 122.678 222.547 122.763C222.536 122.848 222.51 122.942 222.489 122.97C222.467 123.008 222.441 123.102 222.43 123.177C222.418 123.262 222.39 123.356 222.366 123.394C222.326 123.45 222.328 123.469 222.383 123.535C222.473 123.657 222.736 123.742 223.004 123.742C223.213 123.742 223.224 123.733 223.299 123.638C223.344 123.591 223.385 123.488 223.397 123.412C223.408 123.337 223.436 123.234 223.459 123.187C223.483 123.149 223.501 123.036 223.5 122.942C223.499 122.791 223.491 122.772 223.39 122.697C223.29 122.622 223.285 122.603 223.318 122.537C223.351 122.462 223.489 122.396 223.619 122.396C223.646 122.396 223.7 122.367 223.74 122.339C223.779 122.311 223.841 122.273 223.877 122.264C223.913 122.254 223.994 122.198 224.057 122.141C224.189 122.019 224.271 122.019 224.338 122.132C224.379 122.198 224.379 122.226 224.333 122.349C224.306 122.424 224.283 122.546 224.284 122.622C224.285 122.688 224.267 122.772 224.244 122.791C224.221 122.819 224.189 122.904 224.173 122.97C224.156 123.045 224.122 123.158 224.098 123.224C224.073 123.281 224.053 123.394 224.053 123.45C224.053 123.516 224.026 123.62 223.993 123.686C223.907 123.855 223.918 123.949 224.027 124.006C224.052 124.015 224.107 124.043 224.149 124.062C224.191 124.09 224.279 124.109 224.346 124.109C224.413 124.109 224.526 124.128 224.598 124.156C224.671 124.194 224.816 124.222 224.921 124.232C225.109 124.25 225.115 124.25 225.198 124.156C225.251 124.1 225.298 123.996 225.321 123.893C225.342 123.808 225.366 123.704 225.376 123.667C225.405 123.554 225.356 123.412 225.262 123.318C225.096 123.168 225.165 122.961 225.383 122.961C225.477 122.961 225.733 122.857 225.8 122.791C225.983 122.622 226.096 122.575 226.208 122.631C226.296 122.678 226.324 122.8 226.269 122.895C226.246 122.932 226.209 123.045 226.187 123.139C226.164 123.234 226.119 123.412 226.086 123.525C226.053 123.638 226.005 123.836 225.979 123.959C225.954 124.09 225.907 124.269 225.876 124.363C225.845 124.458 225.82 124.561 225.821 124.589C225.821 124.618 225.793 124.712 225.758 124.787C225.656 125.022 225.506 125.069 225.189 124.966ZM221.281 124.975C221.08 124.787 221.113 124.655 221.409 124.429C221.536 124.335 221.613 124.345 221.758 124.476C221.981 124.683 221.99 124.815 221.793 124.985C221.695 125.069 221.653 125.088 221.539 125.088C221.421 125.098 221.387 125.079 221.281 124.975ZM222.512 125.352C222.316 125.305 222.203 125.107 222.261 124.909C222.312 124.74 222.342 124.721 222.6 124.721C222.889 124.712 222.945 124.768 222.947 125.022C222.949 125.164 222.938 125.192 222.867 125.258C222.783 125.343 222.622 125.38 222.512 125.352ZM258.503 125.38C258.412 125.305 258.393 125.277 258.392 125.173C258.391 125.013 258.486 124.891 258.693 124.796C258.969 124.674 259.081 124.683 259.185 124.872C259.323 125.117 259.316 125.211 259.151 125.38C259.06 125.465 259.043 125.474 258.834 125.474C258.629 125.474 258.605 125.474 258.503 125.38ZM224.147 125.851C224 125.813 223.924 125.7 223.922 125.521C223.921 125.39 223.93 125.371 224.025 125.295C224.086 125.248 224.182 125.201 224.258 125.192C224.366 125.182 224.406 125.192 224.492 125.248C224.715 125.408 224.762 125.559 224.633 125.71C224.496 125.87 224.366 125.907 224.147 125.851ZM233 126.246L232.887 126.152L232.902 125.907C232.911 125.776 232.938 125.606 232.962 125.55C232.987 125.484 233.006 125.333 233.006 125.22C233.005 125.107 233.024 124.957 233.047 124.881C233.07 124.815 233.109 124.561 233.133 124.316C233.157 124.072 233.189 123.836 233.205 123.798C233.22 123.751 233.232 123.648 233.231 123.554C233.23 123.469 233.254 123.309 233.284 123.196C233.319 123.074 233.338 122.904 233.338 122.735C233.338 122.584 233.351 122.414 233.368 122.358C233.385 122.302 233.398 122.226 233.398 122.189C233.397 122.113 233.501 121.944 233.547 121.944C233.562 121.944 233.623 122.019 233.684 122.104C233.744 122.189 233.866 122.32 233.954 122.405C234.342 122.763 234.325 122.735 234.199 122.848C234.152 122.895 234.101 122.932 234.084 122.932C234.067 122.932 234.017 122.97 233.973 123.017C233.906 123.083 233.893 123.121 233.893 123.252C233.893 123.337 233.872 123.469 233.847 123.525C233.805 123.638 233.762 124.024 233.746 124.448C233.743 124.533 233.728 124.627 233.712 124.646C233.696 124.674 233.678 124.881 233.671 125.117C233.664 125.352 233.645 125.559 233.63 125.587C233.615 125.606 233.601 125.681 233.6 125.738C233.595 125.983 233.543 126.19 233.472 126.265C233.417 126.322 233.373 126.341 233.258 126.341C233.136 126.341 233.096 126.331 233 126.246ZM244.735 125.973L244.893 125.926L244.882 125.776L244.871 125.625H244.745C244.64 125.616 244.606 125.625 244.54 125.7C244.424 125.823 244.411 125.907 244.499 125.973C244.54 126.002 244.573 126.02 244.575 126.02C244.576 126.02 244.648 126.002 244.735 125.973ZM243.814 126.604C243.751 126.519 243.748 126.501 243.777 126.341C243.795 126.237 243.811 126.077 243.813 125.973C243.814 125.87 243.832 125.757 243.852 125.719C243.871 125.681 243.886 125.616 243.886 125.559C243.885 125.484 243.912 125.437 244.005 125.343C244.071 125.286 244.124 125.22 244.124 125.201C244.124 125.164 244.36 124.975 244.41 124.975C244.43 124.975 244.47 124.957 244.5 124.919C244.53 124.891 244.591 124.862 244.635 124.862C244.68 124.862 244.753 124.834 244.797 124.796C244.872 124.731 244.876 124.712 244.874 124.476C244.872 124.316 244.852 124.166 244.822 124.09C244.795 124.015 244.776 123.921 244.78 123.893C244.783 123.855 244.774 123.685 244.759 123.525C244.736 123.252 244.724 123.205 244.653 123.139C244.61 123.092 244.557 123.055 244.537 123.055C244.498 123.055 244.356 122.895 244.376 122.866C244.584 122.65 244.956 122.302 244.998 122.283C245.083 122.254 245.211 122.311 245.244 122.396C245.26 122.433 245.283 122.612 245.294 122.782C245.306 122.951 245.329 123.177 245.346 123.271C245.363 123.365 245.393 123.667 245.413 123.94C245.432 124.213 245.462 124.476 245.478 124.533C245.495 124.589 245.52 124.834 245.533 125.088C245.546 125.333 245.571 125.587 245.588 125.644C245.646 125.86 245.89 125.983 246.063 125.898C246.092 125.879 246.222 125.851 246.351 125.832C246.653 125.785 246.658 125.776 246.632 125.343C246.613 125.041 246.603 125.004 246.53 124.909C246.486 124.862 246.416 124.806 246.375 124.796C246.291 124.778 246.239 124.702 246.238 124.608C246.238 124.542 246.394 124.392 246.492 124.354C246.526 124.345 246.616 124.288 246.693 124.222C246.864 124.081 246.977 124.072 247.083 124.184C247.152 124.26 247.159 124.297 247.182 124.693C247.199 124.994 247.221 125.135 247.256 125.201C247.292 125.258 247.307 125.361 247.309 125.578C247.31 125.776 247.328 125.907 247.361 125.983C247.403 126.077 247.404 126.105 247.366 126.18C247.343 126.228 247.315 126.303 247.304 126.341C247.28 126.416 247.234 126.435 246.955 126.444C246.83 126.444 246.674 126.463 246.607 126.482C246.541 126.501 246.364 126.519 246.214 126.519C245.574 126.538 244.7 126.604 244.653 126.651C244.617 126.679 244.515 126.698 244.244 126.698H243.883L243.814 126.604ZM230.172 124.203C230.252 124.147 230.258 124.072 230.185 124.053C230.091 124.034 230.015 123.902 230.009 123.761C229.997 123.488 229.874 123.478 229.643 123.714C229.577 123.78 229.476 123.874 229.419 123.911L229.315 123.996L229.39 124.072C229.517 124.194 229.659 124.25 229.892 124.25C230.04 124.25 230.125 124.241 230.172 124.203ZM231.111 127.084C231.065 127.065 231.027 127.047 231.027 127.037C231.027 127.009 230.74 126.83 230.696 126.83C230.678 126.83 230.655 126.802 230.645 126.755C230.635 126.708 230.599 126.585 230.564 126.482C230.503 126.303 230.504 126.162 230.566 126.124C230.612 126.096 230.595 126.002 230.535 125.955C230.499 125.917 230.404 125.898 230.269 125.889C229.985 125.87 229.952 125.86 229.852 125.776C229.78 125.719 229.76 125.672 229.738 125.512C229.722 125.408 229.689 125.305 229.658 125.267C229.603 125.211 229.508 125.201 229.48 125.239C229.472 125.258 229.423 125.277 229.373 125.286C229.311 125.295 229.271 125.333 229.252 125.38C229.236 125.418 229.188 125.503 229.144 125.559C229.07 125.653 229.058 125.653 228.872 125.663C228.765 125.663 228.632 125.644 228.577 125.625C228.458 125.578 228.326 125.559 227.997 125.531C227.525 125.503 227.306 125.54 227.27 125.653C227.219 125.804 226.838 126.133 226.671 126.162C226.604 126.171 226.491 126.199 226.419 126.228C226.348 126.246 226.276 126.256 226.26 126.246C226.243 126.237 226.084 126.218 225.905 126.19C225.568 126.152 225.443 126.096 225.442 125.983C225.441 125.917 225.649 125.813 225.728 125.842C225.814 125.87 225.956 125.87 225.955 125.832C225.955 125.823 226.029 125.794 226.119 125.776C226.209 125.757 226.299 125.719 226.319 125.7C226.338 125.672 226.394 125.653 226.442 125.653C226.514 125.653 226.547 125.625 226.619 125.512C226.668 125.437 226.707 125.361 226.707 125.333C226.707 125.314 226.734 125.267 226.767 125.22C226.802 125.173 226.826 125.107 226.825 125.041C226.824 124.975 226.844 124.872 226.869 124.806C226.912 124.683 226.911 124.665 226.845 124.476C226.807 124.363 226.759 124.26 226.738 124.25C226.717 124.232 226.683 124.175 226.663 124.128C226.611 123.977 226.667 123.846 226.882 123.61C226.904 123.591 226.932 123.525 226.943 123.478C226.964 123.375 227.032 123.318 227.135 123.318C227.21 123.318 227.353 123.478 227.354 123.563C227.354 123.591 227.377 123.657 227.404 123.695C227.434 123.733 227.465 123.864 227.482 124.024C227.512 124.297 227.56 124.58 227.597 124.693C227.628 124.787 227.793 124.909 227.882 124.909C227.925 124.909 228.042 124.928 228.142 124.957C228.242 124.975 228.403 124.994 228.499 124.994C228.673 124.994 228.675 124.994 228.853 124.815C228.951 124.712 229.032 124.618 229.031 124.599C229.026 124.486 228.636 124.269 228.322 124.222C228.212 124.203 228.135 124.062 228.159 123.93C228.18 123.827 228.326 123.629 228.469 123.525C228.523 123.488 228.704 123.422 228.871 123.375L229.174 123.29L229.258 123.121C229.417 122.81 229.753 122.565 230.022 122.565C230.156 122.565 230.184 122.575 230.291 122.716C230.321 122.744 230.377 122.819 230.416 122.866C230.534 123.008 230.602 123.187 230.584 123.299C230.567 123.403 230.612 123.573 230.658 123.573C230.699 123.573 231.141 124.006 231.162 124.062C231.173 124.1 231.193 124.119 231.208 124.119C231.246 124.119 231.3 124.316 231.302 124.458C231.305 124.665 231.258 124.693 230.935 124.702C230.78 124.702 230.592 124.721 230.518 124.749L230.382 124.787L230.375 124.947C230.365 125.164 230.42 125.23 230.657 125.258C230.756 125.277 230.851 125.305 230.869 125.314C230.886 125.333 230.935 125.343 230.979 125.343C231.022 125.343 231.085 125.361 231.117 125.39C231.171 125.427 231.177 125.465 231.18 125.804L231.185 126.171L231.283 126.199C231.338 126.218 231.399 126.246 231.419 126.265C231.491 126.331 231.585 126.303 231.624 126.209C231.643 126.152 231.671 126.086 231.685 126.049C231.699 126.02 231.723 125.823 231.738 125.616C231.753 125.408 231.785 125.182 231.808 125.117C231.83 125.06 231.862 124.844 231.879 124.655C231.895 124.467 231.924 124.288 231.943 124.269C231.961 124.241 231.982 124.062 231.99 123.855C232.001 123.554 232.014 123.469 232.056 123.422C232.1 123.375 232.108 123.309 232.104 123.008L232.1 122.64L231.978 122.546C231.897 122.48 231.856 122.424 231.856 122.367C231.855 122.264 231.883 122.236 232.035 122.179C232.109 122.151 232.225 122.113 232.291 122.085C232.358 122.066 232.425 122.028 232.442 122.01C232.494 121.944 232.663 121.84 232.707 121.84C232.73 121.84 232.771 121.859 232.799 121.887C232.864 121.963 232.87 122.236 232.809 122.349C232.783 122.405 232.766 122.518 232.767 122.631C232.768 122.735 232.748 122.876 232.723 122.951C232.696 123.017 232.663 123.29 232.645 123.573C232.627 123.846 232.597 124.09 232.577 124.128C232.557 124.166 232.542 124.279 232.543 124.392C232.544 124.495 232.525 124.702 232.5 124.834C232.476 124.975 232.444 125.201 232.428 125.343C232.413 125.493 232.382 125.653 232.358 125.71C232.335 125.757 232.308 125.898 232.299 126.011C232.289 126.124 232.257 126.265 232.227 126.322C232.197 126.378 232.172 126.444 232.172 126.472C232.173 126.548 232.017 126.821 231.973 126.821C231.953 126.821 231.923 126.849 231.906 126.877C231.89 126.905 231.835 126.934 231.785 126.943C231.734 126.962 231.655 126.99 231.61 127.028C231.513 127.094 231.231 127.122 231.111 127.084ZM256.599 124.796C256.786 124.712 256.839 124.618 256.766 124.476C256.703 124.363 256.61 124.326 256.46 124.335C256.285 124.345 256.143 124.458 256.144 124.58C256.145 124.665 256.165 124.693 256.275 124.768C256.346 124.815 256.414 124.853 256.427 124.853C256.439 124.853 256.516 124.825 256.599 124.796ZM254.181 124.815C254.31 124.759 254.326 124.74 254.326 124.655C254.326 124.523 254.206 124.363 254.029 124.269C253.841 124.166 253.774 124.166 253.69 124.279C253.625 124.363 253.624 124.373 253.672 124.505C253.699 124.571 253.721 124.655 253.721 124.674C253.721 124.74 253.905 124.881 253.978 124.881C254.01 124.881 254.101 124.853 254.181 124.815H254.181ZM253.104 124.919C253.114 124.872 253.113 124.759 253.101 124.665C253.083 124.542 253.059 124.486 252.986 124.429C252.877 124.335 252.82 124.345 252.69 124.476C252.607 124.561 252.594 124.589 252.591 124.74C252.586 124.985 252.619 125.013 252.878 125.013C253.084 125.013 253.084 125.013 253.104 124.919H253.104ZM250.697 125.371C250.802 125.314 250.827 125.258 250.8 125.126C250.76 124.938 250.517 124.881 250.399 125.032C250.363 125.079 250.334 125.135 250.334 125.145C250.334 125.164 250.314 125.192 250.29 125.211C250.255 125.239 250.253 125.258 250.28 125.305C250.299 125.343 250.33 125.38 250.348 125.39C250.405 125.427 250.608 125.418 250.697 125.371ZM254.527 125.71C254.612 125.644 254.619 125.559 254.544 125.493C254.456 125.418 254.295 125.418 254.13 125.493C254.032 125.54 254.004 125.568 254.004 125.625C254.004 125.672 254.028 125.71 254.074 125.729C254.176 125.766 254.472 125.757 254.527 125.71ZM249.83 127.113C249.795 127.084 249.806 126.943 249.846 126.905C249.866 126.896 249.917 126.868 249.959 126.858C250 126.849 250.054 126.821 250.079 126.792C250.104 126.774 250.192 126.745 250.275 126.736C250.574 126.689 250.835 126.453 250.836 126.228C250.837 126.162 250.827 126.096 250.815 126.077C250.781 126.03 250.258 126.058 249.975 126.133C249.907 126.152 249.874 126.133 249.792 126.058L249.691 125.964L249.677 125.531L249.663 125.107L249.793 124.966C249.865 124.881 249.957 124.768 249.996 124.702C250.035 124.636 250.076 124.58 250.087 124.58C250.098 124.571 250.159 124.523 250.224 124.467C250.35 124.354 250.559 124.241 250.7 124.203C250.749 124.194 250.803 124.166 250.821 124.137C250.839 124.119 250.892 124.1 250.941 124.09C251.015 124.081 251.041 124.1 251.113 124.213C251.16 124.288 251.201 124.382 251.203 124.429C251.205 124.476 251.229 124.571 251.254 124.636C251.279 124.702 251.309 124.825 251.32 124.919C251.332 125.013 251.357 125.098 251.375 125.126C251.421 125.173 251.788 125.201 251.851 125.154C251.887 125.135 251.903 125.051 251.912 124.853C251.92 124.702 251.945 124.552 251.971 124.495C251.996 124.448 252.026 124.363 252.037 124.316C252.066 124.175 252.305 123.836 252.448 123.742C252.518 123.695 252.591 123.648 252.612 123.629C252.633 123.61 252.68 123.582 252.717 123.573C252.808 123.544 252.829 123.507 252.828 123.375C252.827 123.262 252.735 123.139 252.544 122.979C252.498 122.942 252.46 122.895 252.46 122.866C252.458 122.782 252.548 122.622 252.687 122.462C252.759 122.377 252.818 122.302 252.818 122.283C252.819 122.273 252.866 122.236 252.924 122.198C253.006 122.141 253.045 122.141 253.104 122.16C253.185 122.189 253.208 122.226 253.283 122.48C253.382 122.81 253.405 122.904 253.429 123.092C253.443 123.196 253.463 123.29 253.475 123.309C253.486 123.328 253.62 123.365 253.772 123.403C253.924 123.431 254.078 123.478 254.114 123.497C254.149 123.516 254.213 123.544 254.254 123.554C254.358 123.591 254.498 123.686 254.499 123.733C254.499 123.751 254.511 123.77 254.524 123.77C254.557 123.77 254.71 123.996 254.85 124.25C255.008 124.533 254.999 124.523 255.251 124.523C255.454 124.523 255.477 124.514 255.534 124.439C255.568 124.401 255.596 124.326 255.595 124.288C255.594 124.194 255.672 124.09 255.862 123.921C255.935 123.855 256.024 123.77 256.06 123.742C256.178 123.638 256.311 123.554 256.363 123.554C256.39 123.554 256.54 123.601 256.696 123.667C256.925 123.761 256.994 123.798 257.063 123.893C257.213 124.1 257.533 124.184 257.691 124.062C257.733 124.024 257.783 124.006 257.801 124.006C257.819 124.006 257.834 123.977 257.833 123.959C257.833 123.893 257.709 123.563 257.672 123.516C257.655 123.497 257.627 123.384 257.609 123.252C257.592 123.13 257.549 122.97 257.515 122.904C257.473 122.81 257.447 122.678 257.434 122.49C257.424 122.339 257.388 122.123 257.355 122C257.322 121.887 257.294 121.746 257.294 121.708C257.291 121.492 257.109 121.209 256.924 121.134C256.882 121.115 256.814 121.078 256.772 121.059C256.662 121.002 256.518 121.012 256.454 121.078C256.424 121.106 256.371 121.134 256.336 121.134C256.272 121.134 256.078 121.294 256.078 121.341C256.078 121.36 256.034 121.369 255.979 121.369C255.898 121.379 255.861 121.351 255.781 121.256C255.727 121.191 255.682 121.115 255.682 121.106C255.682 121.087 255.626 121.021 255.559 120.974C255.46 120.889 255.437 120.852 255.436 120.767C255.435 120.682 255.45 120.654 255.51 120.626C255.551 120.607 255.585 120.579 255.585 120.569C255.585 120.55 255.636 120.531 255.698 120.513C255.761 120.503 255.92 120.466 256.053 120.437C256.388 120.343 256.99 120.343 257.137 120.428C257.191 120.456 257.27 120.484 257.313 120.494C257.412 120.522 257.675 120.757 257.728 120.88C257.751 120.927 257.782 120.983 257.798 120.993C257.814 121.002 257.836 121.059 257.849 121.125C257.861 121.2 257.889 121.294 257.912 121.341C257.946 121.407 257.992 121.708 258.038 122.17C258.047 122.245 258.108 122.527 258.156 122.706C258.173 122.763 258.207 122.913 258.232 123.036C258.256 123.149 258.298 123.271 258.324 123.299C258.351 123.328 258.372 123.365 258.373 123.394C258.374 123.507 258.687 123.704 258.869 123.695C259.028 123.695 259.266 123.591 259.415 123.45C259.499 123.375 259.601 123.299 259.641 123.29C259.722 123.271 259.855 123.337 259.903 123.422C259.96 123.516 260.056 123.601 260.183 123.676C260.319 123.751 260.369 123.855 260.317 123.949C260.3 123.977 260.262 124.006 260.234 124.006C260.205 124.006 260.109 124.043 260.021 124.081C259.932 124.119 259.834 124.156 259.803 124.156C259.772 124.156 259.6 124.203 259.421 124.26C259.242 124.316 258.925 124.401 258.717 124.448C258.35 124.523 257.857 124.655 257.796 124.702C257.78 124.712 257.712 124.731 257.645 124.74C257.439 124.778 257.421 124.787 257.402 124.891C257.378 125.022 257.1 125.314 256.895 125.427C256.753 125.503 256.724 125.503 256.37 125.503C256.163 125.503 255.97 125.493 255.94 125.484C255.91 125.484 255.876 125.437 255.865 125.39C255.853 125.343 255.803 125.277 255.753 125.239C255.656 125.173 255.546 125.173 255.299 125.248L255.189 125.277L255.17 125.568C255.16 125.729 255.134 125.889 255.112 125.926C255.09 125.964 255.058 126.02 255.042 126.049C255.026 126.086 254.944 126.171 254.859 126.237C254.774 126.312 254.651 126.425 254.585 126.482C254.448 126.614 254.331 126.632 254.249 126.538C254.219 126.501 254.159 126.482 254.108 126.482C254.006 126.482 253.771 126.388 253.623 126.284C253.532 126.218 253.341 125.907 253.34 125.823C253.34 125.804 253.312 125.766 253.279 125.738C253.23 125.691 253.178 125.672 253.028 125.681C252.924 125.681 252.778 125.7 252.703 125.71C252.628 125.729 252.446 125.757 252.298 125.776C252.15 125.794 251.985 125.823 251.932 125.851C251.879 125.87 251.777 125.898 251.707 125.907C251.521 125.945 251.464 126.011 251.466 126.199C251.468 126.303 251.452 126.369 251.425 126.388C251.401 126.406 251.374 126.463 251.364 126.51C251.338 126.623 251.09 126.868 250.914 126.943C250.831 126.981 250.713 127.037 250.652 127.065C250.56 127.122 250.48 127.131 250.195 127.131C250.006 127.131 249.841 127.122 249.83 127.113ZM247.427 127.376L247.357 127.329L247.418 127.244C247.452 127.197 247.53 127.15 247.592 127.122C247.803 127.056 247.945 126.971 248.118 126.811C248.213 126.717 248.29 126.623 248.29 126.595C248.29 126.566 248.326 126.501 248.371 126.444C248.45 126.359 248.453 126.341 248.447 126.049C248.441 125.747 248.426 125.681 248.313 125.512C248.26 125.427 248.079 125.295 247.895 125.201C247.773 125.145 247.729 125.022 247.792 124.919C247.819 124.881 247.902 124.721 247.978 124.561C248.054 124.41 248.133 124.25 248.153 124.213C248.207 124.109 248.343 124.1 248.435 124.203C248.521 124.297 248.661 124.552 248.662 124.599C248.662 124.627 248.688 124.665 248.72 124.693C248.79 124.759 248.939 125.013 248.939 125.069C248.939 125.098 248.976 125.173 249.02 125.239C249.074 125.324 249.101 125.408 249.103 125.503C249.105 125.578 249.126 125.691 249.151 125.757C249.224 125.926 249.201 126.51 249.114 126.67C249.078 126.736 249.038 126.792 249.026 126.792C249.014 126.792 248.963 126.849 248.914 126.915C248.82 127.037 248.499 127.263 248.414 127.263C248.387 127.263 248.345 127.291 248.32 127.329C248.279 127.395 248.251 127.395 247.886 127.414C247.563 127.423 247.484 127.414 247.427 127.376ZM244.661 127.555C244.563 127.461 244.542 127.414 244.541 127.32C244.54 127.216 244.559 127.178 244.655 127.075C244.832 126.896 244.919 126.896 245.224 127.047C245.516 127.197 245.615 127.207 245.641 127.103C245.667 127.009 245.835 126.915 245.994 126.915C246.095 126.915 246.153 126.934 246.233 126.99C246.335 127.075 246.34 127.084 246.342 127.273C246.344 127.451 246.341 127.461 246.225 127.564C246.113 127.668 246.095 127.668 245.956 127.659C245.78 127.64 245.674 127.555 245.645 127.423C245.624 127.32 245.589 127.291 245.562 127.367C245.554 127.386 245.51 127.414 245.466 127.423C245.383 127.442 245.244 127.536 245.145 127.621C245.107 127.659 245.042 127.677 244.935 127.677C244.792 127.677 244.772 127.668 244.661 127.555ZM242.113 125.983C242.18 125.955 242.194 125.936 242.18 125.889C242.169 125.86 242.146 125.766 242.127 125.691C242.098 125.578 242.083 125.559 242.019 125.559C241.95 125.559 241.821 125.625 241.705 125.738C241.647 125.785 241.611 125.907 241.642 125.955C241.711 126.049 241.914 126.058 242.113 125.983ZM239.774 126.868C239.841 126.811 239.843 126.802 239.84 126.265L239.837 125.719L239.755 125.644C239.677 125.578 239.649 125.578 239.091 125.55C238.771 125.54 238.456 125.512 238.392 125.493C238.307 125.465 238.232 125.465 238.122 125.484C238.022 125.503 237.903 125.503 237.781 125.484C237.328 125.408 237.027 125.465 236.917 125.644C236.866 125.729 236.866 125.738 236.915 125.813C236.943 125.86 237.001 125.907 237.043 125.917C237.085 125.917 237.183 125.945 237.26 125.964C237.346 125.992 237.529 126.011 237.73 126.011C237.911 126.011 238.216 126.02 238.408 126.03C238.6 126.039 238.866 126.058 239 126.058C239.175 126.058 239.268 126.077 239.33 126.115L239.416 126.171L239.399 126.453C239.382 126.717 239.384 126.736 239.452 126.792C239.533 126.858 239.631 126.915 239.675 126.915C239.691 126.915 239.736 126.896 239.774 126.868H239.774ZM239.518 127.79C239.518 127.781 239.442 127.734 239.35 127.696C239.171 127.612 239.018 127.489 238.925 127.348C238.859 127.254 238.783 127.009 238.781 126.887C238.781 126.83 238.762 126.811 238.712 126.792C238.506 126.755 237.982 126.689 237.597 126.67C237.355 126.661 236.903 126.623 236.591 126.595C235.914 126.529 235.656 126.538 235.566 126.632C235.531 126.67 235.489 126.745 235.471 126.792C235.453 126.849 235.387 126.952 235.324 127.037C235.261 127.122 235.21 127.207 235.21 127.226C235.21 127.235 235.197 127.254 235.18 127.254C235.163 127.254 235.125 127.273 235.095 127.301C235.018 127.376 234.862 127.489 234.782 127.517C234.744 127.536 234.68 127.574 234.638 127.593C234.53 127.659 233.772 127.659 233.65 127.602C233.602 127.583 233.521 127.564 233.47 127.564C233.419 127.564 233.351 127.546 233.319 127.517C233.27 127.489 233.265 127.47 233.29 127.395C233.324 127.301 233.426 127.273 233.817 127.273C234.035 127.263 234.098 127.254 234.225 127.188C234.377 127.103 234.637 126.915 234.657 126.868C234.663 126.858 234.693 126.821 234.724 126.802C234.755 126.774 234.789 126.708 234.799 126.651C234.809 126.595 234.843 126.491 234.875 126.435C234.943 126.293 234.934 126.218 234.82 125.889C234.702 125.55 234.66 125.474 234.526 125.361C234.357 125.22 234.361 125.154 234.55 124.966C234.633 124.881 234.749 124.74 234.808 124.646C234.904 124.505 234.925 124.495 235.01 124.495C235.091 124.505 235.117 124.533 235.191 124.665C235.305 124.872 235.461 125.239 235.461 125.295C235.461 125.314 235.482 125.38 235.506 125.427C235.53 125.474 235.566 125.568 235.585 125.625C235.633 125.766 235.66 125.785 235.911 125.804C236.175 125.832 236.178 125.823 236.201 125.474C236.21 125.333 236.231 125.211 236.248 125.192C236.264 125.182 236.278 125.135 236.277 125.107C236.276 125.041 236.126 124.627 236.087 124.58C236.036 124.533 236.057 124.382 236.133 124.26C236.175 124.184 236.22 124.128 236.233 124.128C236.247 124.128 236.31 124.1 236.373 124.053C236.531 123.949 236.767 123.921 236.869 123.996C236.934 124.053 236.945 124.081 236.959 124.316C236.975 124.542 236.984 124.58 237.056 124.636C237.1 124.674 237.169 124.702 237.21 124.702C237.25 124.702 237.308 124.721 237.338 124.749C237.384 124.787 237.49 124.796 237.977 124.796C238.65 124.806 239.026 124.825 239.074 124.853C239.092 124.862 239.209 124.872 239.334 124.872C239.459 124.872 239.732 124.881 239.94 124.891C240.305 124.909 240.322 124.919 240.411 125.004L240.503 125.088L240.509 125.474C240.517 125.917 240.543 125.973 240.739 125.973C240.91 125.973 240.959 125.926 240.972 125.719C240.978 125.625 241.001 125.54 241.023 125.521C241.044 125.503 241.082 125.446 241.106 125.38C241.157 125.267 241.368 125.051 241.466 125.022C241.502 125.013 241.559 124.975 241.592 124.947C241.625 124.919 241.693 124.891 241.743 124.881C241.961 124.844 242.2 124.759 242.257 124.712C242.297 124.674 242.369 124.646 242.46 124.646C242.576 124.636 242.612 124.655 242.662 124.712C242.735 124.787 242.748 124.853 242.777 125.248C242.789 125.418 242.813 125.587 242.832 125.625C242.85 125.672 242.873 125.879 242.883 126.086L242.901 126.463L242.807 126.585L242.712 126.708L241.732 126.717C241.193 126.727 240.705 126.736 240.648 126.745C240.534 126.774 240.507 126.83 240.509 127.056C240.51 127.122 240.49 127.178 240.453 127.216C240.422 127.244 240.388 127.291 240.378 127.329C240.36 127.404 240.16 127.555 240.03 127.593C239.989 127.612 239.935 127.64 239.91 127.659C239.839 127.715 239.611 127.819 239.562 127.819C239.538 127.819 239.518 127.809 239.518 127.79H239.518Z" fill="black"/>
<path fill-rule="evenodd" clip-rule="evenodd" d="M245.188 72.7692C245.458 72.7849 244.824 71.328 244.824 71.328C245.537 72.0564 248.229 72.2306 248.229 72.2306C246.614 71.5181 244.998 66.1339 245.189 61.8424C245.363 57.535 244.571 55.8406 243.937 55.2072C243.13 54.3996 240.533 53.6869 238.822 53.5919C237.857 53.5444 238.015 54.3204 238.015 54.3204C236.225 53.8611 234.436 53.6869 233.628 54.2253C232.868 54.7321 232.71 57.2659 233.264 56.8224C234.61 55.7456 235.782 56.7274 236.59 57.8993C237.302 58.9286 237.255 61.8424 236.225 65.2471C235.149 68.826 232.203 72.4048 232.203 72.4048C233.803 72.4048 236.051 70.9796 236.051 70.9796L235.513 73.2124C237.207 72.4048 238.553 71.1537 238.553 71.1537L240.169 72.8482C240.707 72.1355 241.784 71.1537 241.784 71.1537C241.784 71.1537 243.13 72.579 245.189 72.769L245.188 72.7692Z" fill="#F8C300" stroke="black" stroke-width="1.2809"/>
<path d="M238.648 62.4593C238.648 62.4593 237.745 69.0945 236.051 70.9789M240.073 62.2852C240.073 62.2852 239.725 68.9995 238.553 71.1532M241.34 62.5543C241.34 62.5543 241.34 69.9021 241.783 71.1532M242.939 62.9186C242.939 62.9186 243.304 69.0945 244.824 71.3274" stroke="black" stroke-width="1.33622"/>
<path fill-rule="evenodd" clip-rule="evenodd" d="M237.017 59.2458C236.938 58.6598 236.795 58.2005 236.589 57.8997C235.782 56.7278 234.61 55.7461 233.264 56.8228C233.264 56.8228 233.723 55.3976 234.705 55.3501C235.465 55.3026 237.191 55.9202 238.711 58.5173C238.711 58.5173 237.587 58.2639 237.318 58.5014C236.811 58.9449 237.017 59.2458 237.017 59.2458Z" fill="black" stroke="black" stroke-width="0.372597"/>
<path fill-rule="evenodd" clip-rule="evenodd" d="M233.121 55.0646C233.232 54.7005 233.407 54.3679 233.628 54.2254C234.436 53.6868 236.225 53.8611 238.015 54.3204C238.015 54.3204 237.856 53.5444 238.822 53.5919C240.533 53.6869 243.13 54.3996 243.937 55.2072C244.127 55.4131 244.349 55.7139 244.539 56.1732H244.507C244.112 55.6189 242.987 55.6506 242.718 55.6822C242.29 55.7297 242.021 55.7139 241.451 55.8564C241.182 55.9198 240.77 55.999 240.548 56.1732C240.374 56.3157 240.232 56.8383 239.963 56.8383C239.535 56.8383 239.567 56.7274 239.456 56.6008C239.313 56.4266 239.234 56.1731 239.092 56.189C238.648 56.2681 237.936 55.9198 237.033 55.2072C236.13 54.4946 235.782 54.3203 234.61 54.3996C233.454 54.4947 233.09 55.1438 233.09 55.1438L233.121 55.0646Z" fill="black" stroke="black" stroke-width="0.372597"/>
<path fill-rule="evenodd" clip-rule="evenodd" d="M239.741 56.1102C240.01 56.1102 240.216 55.9044 240.216 55.6351C240.216 55.3659 240.01 55.1602 239.741 55.1602C239.487 55.1602 239.266 55.366 239.266 55.6351C239.266 55.9044 239.487 56.1102 239.741 56.1102Z" fill="#F8C300" stroke="#1F1A17" stroke-width="0.372597"/>
<path d="M240.231 102.713C253.42 92.569 252.263 77.7094 252.263 77.7094C251.915 77.7791 251.585 77.8139 251.237 77.8139C248.47 77.8139 241.77 76.2312 240.231 74.2207C238.582 76.0403 231.94 77.8139 229.191 77.8139C228.843 77.8139 228.495 77.7791 228.164 77.7094C228.164 77.7094 227.042 92.569 240.231 102.713Z" fill="#F8C300" stroke="black" stroke-width="1.14015"/>
<path d="M251.592 78.506C251.474 78.5133 251.356 78.517 251.238 78.517C248.644 78.517 242.62 77.1863 240.299 75.1914C237.867 77.0344 231.743 78.517 229.192 78.517C229.072 78.517 228.954 78.5024 228.837 78.4808C228.831 79.0622 228.861 79.6645 228.897 80.2126C229.032 82.2608 229.391 84.3163 229.937 86.2941C231.654 92.5191 235.168 97.809 240.206 101.822C245.249 97.8058 248.767 92.5108 250.487 86.2814C251.034 84.3039 251.394 82.2486 251.53 80.2004C251.566 79.6636 251.596 79.0754 251.592 78.506Z" fill="white" stroke="black" stroke-width="0.249025"/>
<path fill-rule="evenodd" clip-rule="evenodd" d="M228.828 78.4635C228.828 78.4635 228.835 79.1184 228.842 79.2555C228.849 79.3922 228.872 79.8876 228.889 80.1198C228.907 80.352 228.974 81.2059 228.995 81.3738C229.017 81.5416 229.107 82.3349 229.139 82.5188C229.171 82.7029 229.285 83.449 229.308 83.5578C229.331 83.6667 229.441 84.2585 229.486 84.464C229.532 84.6694 229.76 85.6454 229.803 85.8066C229.846 85.9676 230.035 86.6549 230.097 86.8549C230.159 87.055 230.444 87.9557 230.507 88.1437C230.57 88.3317 230.877 89.168 230.959 89.3814C231.041 89.5949 231.379 90.4152 231.468 90.5977C231.556 90.7803 232.005 91.7522 232.087 91.9093C232.169 92.0663 232.663 92.9632 232.769 93.1511C232.875 93.3391 233.464 94.3458 233.53 94.4372C233.596 94.5283 234.126 95.3527 234.247 95.5165C234.368 95.6803 234.946 96.4737 235.107 96.6818C235.268 96.8899 235.754 97.5075 235.945 97.7193C236.136 97.9315 236.178 97.9826 236.253 98.0672C236.328 98.1519 236.394 98.2294 236.394 98.2294V77.1055C233.872 77.8334 231.381 78.456 228.828 78.4637V78.4635Z" fill="#CE1126"/>
<path fill-rule="evenodd" clip-rule="evenodd" d="M251.6 78.4734C251.6 78.4734 251.596 78.9727 251.584 79.2197C251.568 79.5421 251.55 79.8643 251.53 80.1864C251.511 80.4722 251.451 81.1571 251.427 81.3542C251.403 81.5516 251.326 82.2484 251.295 82.4323C251.264 82.6161 251.118 83.5599 251.092 83.678C251.067 83.7962 250.895 84.6595 250.854 84.8138C250.812 84.9682 250.592 85.904 250.516 86.1709C250.441 86.4381 250.182 87.3335 250.099 87.5752C250.016 87.8168 249.622 88.9512 249.57 89.0842C249.518 89.217 249.134 90.146 249.017 90.4145C248.9 90.683 248.461 91.6119 248.371 91.7891C248.281 91.9663 247.715 93.0295 247.656 93.1384C247.597 93.2471 246.878 94.4539 246.778 94.6003C246.677 94.7465 245.94 95.8097 245.793 96.0151C245.645 96.2205 244.936 97.1577 244.745 97.3765C244.555 97.5952 244.188 98.0303 244.129 98.0986L244.031 98.2118V77.1289C246.55 77.8488 249.044 78.6158 251.6 78.4734H251.6Z" fill="black"/>
<path d="M251.592 78.506C251.474 78.5133 251.356 78.517 251.238 78.517C248.644 78.517 242.554 77.1863 240.233 75.1914C237.8 77.0343 231.743 78.517 229.192 78.517C229.072 78.517 228.954 78.5024 228.837 78.4808C228.831 79.0622 228.861 79.6645 228.897 80.2126C229.032 82.2608 229.391 84.3161 229.937 86.2939C231.654 92.5191 235.193 97.8091 240.232 101.822C245.274 97.8058 248.767 92.5108 250.487 86.2813C251.034 84.3037 251.394 82.2485 251.53 80.2003C251.566 79.6636 251.596 79.0754 251.592 78.5058V78.506Z" stroke="black" stroke-width="0.588434"/>
</svg>
