<svg width="480" height="320" viewBox="0 0 480 320" fill="none" xmlns="http://www.w3.org/2000/svg">
<path fill-rule="evenodd" clip-rule="evenodd" d="M408.604 144.877C410.07 146.615 412.211 147.234 413.58 146.235C414.437 145.604 414.754 144.459 414.568 143.21C415.381 143.333 416.172 143.579 417.115 143.96C417.582 144.116 418.137 142.166 417.414 142.099C409.641 140.98 405.326 147.253 405.43 147.152C406.631 146.25 407.623 145.485 408.604 144.877ZM413.039 145.593C412.013 146.425 410.301 145.907 409.097 144.579C410.719 143.576 412.095 143.102 413.576 143.121C413.878 144.075 413.617 145.135 413.039 145.593ZM374.314 148.361C375.653 143.975 377.984 139.999 381.013 136.698C394.406 131.048 411.674 131.089 424.616 141.506C416.496 137.366 392.485 132.961 374.314 148.361ZM373.539 162.72C372.949 159.553 372.849 156.286 373.296 153.082C382.773 143.449 396.957 137.108 411.845 140.223C403.696 140.241 384.161 145.825 373.539 162.72ZM378.607 174.584C377.033 172.376 375.732 169.944 374.799 167.356C380.438 155.417 391.31 145.019 405.923 142.755C398.65 145.496 383.493 156.652 378.607 174.584ZM387.804 183.083C385.559 181.759 383.53 180.137 381.71 178.302C383.657 165.681 391.366 152.489 403.696 145.642C402.79 146.977 402.372 148.54 402.447 150.203C395.26 157.491 388.121 168.806 387.804 183.083ZM399.21 187.063C396.778 186.727 394.428 186.123 392.202 185.265C392.284 173.841 395.987 160.277 402.712 151.96C403.085 153.418 403.793 154.914 404.938 156.413C410.26 150.151 416.399 145.724 424.023 143.766C413.628 147.712 397.449 160.299 399.21 187.063ZM110.717 177.131H122.544C123.663 177.131 124.938 176.247 125.416 175.061L125.9 173.901H119.683L122.618 167.009H139.077V167.031L132.494 182.337C131.219 185.153 129.216 187.163 125.479 186.966L95.836 186.928L110.933 151.676C112.22 148.834 114.204 146.951 117.953 147.029H147.64L140.558 163.544H130.335L133.222 156.756H120.257C119.802 156.756 119.258 157.159 119.086 157.632L110.717 177.131ZM113.328 133.013L83.5992 133.066C79.8174 132.961 77.8594 134.904 76.5391 137.757C76.0319 138.828 75.2225 140.696 74.2193 143.046L55.3848 186.966H85.2775C89.0556 186.988 91.0286 185.112 92.3265 182.27C92.8113 181.2 93.658 179.316 94.6538 176.985L70.2771 176.911L75.2934 165.233H89.0556L93.3298 155.253H79.5936L84.457 143.915C84.6659 143.441 85.2029 143.039 85.6691 143.039H109.031L113.328 133.013ZM333.337 163.678H345.115C346.223 163.678 347.472 162.723 347.987 161.586L350.091 156.76H337.119C336.66 156.76 336.127 157.163 335.926 157.636L333.337 163.678ZM334.046 173.83H328.802C327.135 177.657 325.766 180.79 325.054 182.337C323.778 185.153 321.824 187.007 318.038 186.958H312.616L318.188 173.882C322.051 164.808 326.285 154.876 327.728 151.68C328.996 148.864 331.006 146.869 334.754 147.044L364.416 147.037C360.575 156.1 356.308 166.043 354.846 169.25C353.567 172.051 351.582 174.046 347.838 173.879L357.072 186.962H342.881L334.046 173.83ZM182.329 147.044L187.782 147.037C183.933 156.1 179.711 166.043 178.257 169.25C176.981 172.051 174.997 174.046 171.26 173.879H164.3C162.652 177.716 161.287 180.793 160.601 182.341C159.333 185.157 157.337 187.167 153.593 186.97L148.133 186.992L153.749 173.886H141.598C145.466 164.808 149.688 154.876 151.124 151.68C152.422 148.864 154.395 146.869 158.132 147.044L163.566 147.025L156.528 163.663L168.313 163.678C169.432 163.678 170.719 162.742 171.178 161.586C172.528 158.263 173.844 154.955 175.351 151.68C176.619 148.864 178.566 146.955 182.329 147.044ZM296.604 186.962L302.094 186.97C305.85 187.167 307.827 185.157 309.095 182.341L324.248 147.037L318.766 147.044C315.01 146.873 313.026 148.864 311.758 151.68C310.285 154.876 306.048 164.808 302.199 173.886L296.604 186.962ZM196.681 163.678H208.291C209.432 163.678 210.659 162.723 211.163 161.586L213.259 156.756H200.444C199.989 156.756 199.444 157.166 199.243 157.632L196.681 163.678ZM192.358 173.83L211.435 173.879C215.292 173.879 217.145 172.051 218.424 169.25C219.879 166.043 224.105 156.1 227.939 147.037L198.247 147.044C194.484 146.936 192.537 148.864 191.251 151.68L176.19 186.966H181.654C185.455 187.033 187.375 185.153 188.662 182.337C189.367 180.79 190.706 177.657 192.358 173.83ZM228.394 186.951L233.895 186.97C237.621 187.167 239.594 185.157 240.873 182.341C242.279 179.227 246.303 169.716 250.059 160.844C250.171 160.605 251.685 156.998 251.804 156.76H263.888L267.991 147.055L238.423 147.037C234.656 146.873 232.683 148.868 231.415 151.684L229.259 156.797L241.283 156.76L228.394 186.951ZM276.942 163.678H288.515C289.626 163.678 290.902 162.723 291.387 161.586L293.468 156.76H280.727C280.265 156.76 279.732 157.163 279.538 157.636L276.942 163.678ZM286.158 173.879H272.619C270.96 177.698 269.606 180.793 268.908 182.341C267.614 185.157 265.649 187.167 261.77 186.97L256.47 186.962L262.023 173.886C265.887 164.808 270.12 154.876 271.59 151.68C272.858 148.864 274.644 147.025 278.59 147.044H308.177L293.072 182.337C291.804 185.153 289.809 187.163 286.053 186.966H280.742L286.158 173.879Z" fill="#00265D"/>
</svg>
