<svg width="480" height="320" viewBox="0 0 480 320" fill="none" xmlns="http://www.w3.org/2000/svg">
<g clip-path="url(#clip0_730_18125)">
<path d="M107.844 111.213C108.458 110.933 109.148 111.014 109.801 111.002C111.63 111.033 113.461 110.98 115.291 111.02C116.129 111.033 116.971 111.646 117.057 112.512C117.163 114.063 116.977 115.626 117.132 117.173C117.27 118.139 118.233 118.723 119.167 118.638C127.165 118.644 135.164 118.638 143.16 118.64C145.423 118.689 147.586 119.799 149.067 121.482C151.279 124.072 152.119 127.811 151.051 131.064C150.489 132.69 149.639 134.194 148.945 135.763C145.419 143.249 141.874 150.724 138.362 158.216C137.872 159.116 137.556 160.102 137.017 160.975C136.698 161.523 136.041 161.71 135.44 161.677C132.73 161.669 130.018 161.671 127.308 161.677C126.591 161.659 125.773 161.576 125.257 161.021C124.913 160.429 125.122 159.684 125.397 159.101C129.825 149.72 134.24 140.33 138.667 130.949C139.032 130.291 139.095 129.294 138.332 128.892C137.202 128.281 135.857 128.58 134.635 128.566C133.072 128.495 131.511 128.606 129.951 128.521C127.302 128.645 124.652 128.424 122.001 128.555C117.468 128.505 112.93 128.58 108.395 128.499C107.711 128.495 107.148 127.936 106.93 127.325C106.808 126.725 106.867 126.108 106.859 125.501C106.867 121.301 106.863 117.104 106.859 112.904C106.838 112.224 107.203 111.495 107.844 111.213Z" fill="#948771"/>
<path d="M274.097 111.225C274.638 110.963 275.254 111.008 275.84 111.002C277.672 111.022 279.503 110.996 281.336 111.008C282.103 110.994 282.97 111.363 283.241 112.133C283.56 113.797 283.171 115.5 283.397 117.172C283.497 118.126 284.504 118.685 285.397 118.642C293.333 118.636 301.268 118.646 309.206 118.636C310.886 118.644 312.567 119.194 313.926 120.183C316.567 122.121 317.934 125.515 317.784 128.732C317.694 130.616 316.866 132.323 316.052 133.983C312.339 141.907 308.579 149.811 304.868 157.737C304.286 158.854 303.873 160.055 303.209 161.127C302.882 161.63 302.212 161.661 301.675 161.677C299.093 161.673 296.511 161.667 293.929 161.679C293.205 161.673 292.438 161.655 291.79 161.293C291.182 160.881 291.278 160.021 291.522 159.426C295.809 150.314 300.119 141.213 304.398 132.095C304.674 131.464 305.041 130.861 305.189 130.181C305.331 129.501 304.815 128.846 304.166 128.695C302.682 128.328 301.146 128.669 299.642 128.533C294.149 128.486 288.653 128.563 283.159 128.517C280.443 128.533 277.729 128.47 275.016 128.572C274.001 128.663 273.059 127.727 273.12 126.72C273.122 122.117 273.124 117.513 273.12 112.91C273.094 112.226 273.47 111.526 274.097 111.225Z" fill="#948771"/>
<path d="M237.37 118.5C237.307 118.498 237.243 118.5 237.179 118.506C231.209 118.522 225.239 118.492 219.272 118.522C215.776 118.959 212.752 121.445 211.273 124.581C205.901 136.082 200.534 147.587 195.164 159.087C194.946 159.668 194.639 160.344 194.981 160.934C195.311 161.519 196.019 161.779 196.666 161.756C198.912 161.752 201.16 161.758 203.407 161.754C204.381 161.744 205.204 161.054 205.668 160.242C206.526 158.795 207.116 157.214 207.879 155.72C208.211 155.119 208.368 154.39 208.862 153.899C210.297 153.852 211.733 153.901 213.167 153.881C218.236 153.885 223.304 153.883 228.371 153.881C228.54 155.927 228.338 157.977 228.444 160.023C228.397 160.965 229.295 161.86 230.247 161.756C232.556 161.754 234.865 161.752 237.177 161.758C238.233 161.87 239.12 160.808 239.029 159.795V120.42C239.097 119.484 238.316 118.534 237.37 118.5ZM224.444 127.982C225.366 127.985 226.289 127.993 227.211 127.991C228.061 127.92 228.827 128.734 228.772 129.568C228.778 133.965 228.78 138.363 228.772 142.762C228.833 143.606 228.037 144.359 227.205 144.321C222.533 144.319 217.862 144.335 213.192 144.311C215.597 139.155 218.045 134.018 220.454 128.862C220.7 128.415 221.125 127.983 221.677 128.012C222.598 127.984 223.521 127.98 224.444 127.982Z" fill="#001246"/>
<path d="M34.953 120.45C36.5767 119.367 38.473 118.646 40.4304 118.512C50.8725 118.506 61.3167 118.516 71.7609 118.506C72.2716 118.522 72.8352 118.417 73.2767 118.743C73.9319 119.119 74.1293 119.921 74.117 120.623C74.1089 122.86 74.1272 125.097 74.1089 127.333C74.1516 127.981 73.6877 128.71 72.9735 128.653C63.0096 128.651 53.0436 128.653 43.0776 128.651C42.3186 128.606 41.5759 129.111 41.3155 129.818C41.1893 130.808 41.3236 131.811 41.23 132.806C41.1893 133.526 41.169 134.393 41.7835 134.9C42.107 135.253 42.5953 135.377 43.0613 135.367C52.0873 135.371 61.1132 135.361 70.1392 135.373C71.0487 135.345 71.7832 136.175 71.767 137.06C71.7975 138.826 71.7629 140.592 71.7812 142.358C71.7751 142.956 71.8341 143.612 71.4902 144.138C71.2969 144.479 70.9185 144.643 70.6112 144.864C61.4937 144.84 52.3762 144.86 43.2586 144.852C42.6055 144.828 41.9096 145.065 41.5291 145.619C41.1303 146.133 41.2992 146.821 41.2626 147.422C41.3236 148.445 41.0612 149.492 41.3603 150.497C41.639 151.155 42.3491 151.548 43.0531 151.53C52.6855 151.53 62.3178 151.53 71.9501 151.53C72.8026 151.536 73.6633 151.479 74.5057 151.638C74.6135 152.362 74.1822 152.977 73.8953 153.602C72.8637 155.746 71.8382 157.891 70.8086 160.035C70.3854 160.828 69.7383 161.835 68.7068 161.756C56.3601 161.752 44.0156 161.756 31.6689 161.754C31.0178 161.782 30.4298 161.305 30.1755 160.733C29.9923 159.964 30.0229 159.164 30.0086 158.379C30.0534 153.17 29.97 147.962 30.0249 142.751C30.0717 137.949 29.8845 133.143 30.1287 128.342C30.5031 125.182 32.3302 122.251 34.953 120.45Z" fill="#001246"/>
<path d="M79.4563 120.443C79.4135 119.572 79.9649 118.616 80.8907 118.518C83.2734 118.496 85.654 118.518 88.0366 118.508C88.9543 118.439 89.7234 119.328 89.6909 120.213C89.6909 130.029 89.6909 139.845 89.6909 149.661C89.6156 150.645 90.46 151.581 91.4672 151.526C100.428 151.536 109.389 151.528 118.35 151.53C119.263 151.542 120.187 151.471 121.093 151.642C121.093 151.993 121.097 152.356 120.915 152.673C119.825 154.955 118.72 157.228 117.642 159.513C117.186 160.415 116.643 161.612 115.517 161.75C104.042 161.76 92.5679 161.752 81.0922 161.754C80.2559 161.787 79.5356 161.032 79.4949 160.218C79.3891 159.069 79.4787 157.912 79.4461 156.761C79.4502 155.811 79.4502 154.863 79.4461 153.913C79.4563 142.758 79.438 131.6 79.4563 120.443Z" fill="#001246"/>
<path d="M160.215 118.932C160.708 118.593 161.33 118.642 161.898 118.632C164.342 118.66 166.786 118.618 169.227 118.65C170.029 118.624 170.753 119.214 170.898 120C173.111 130.027 175.392 140.04 177.602 150.069C177.785 150.789 177.832 151.603 178.335 152.192C178.994 152.271 179.264 151.563 179.5 151.086C184.009 140.598 188.573 130.133 193.082 119.645C193.281 119.072 193.796 118.626 194.427 118.652C197.282 118.614 200.14 118.662 202.997 118.632C203.536 118.634 204.179 118.585 204.562 119.052C205.189 119.625 205.25 120.55 204.863 121.277C200.326 131.476 195.748 141.66 191.2 151.855C189.879 154.721 188.311 157.676 185.668 159.542C183.208 161.283 180.088 161.663 177.148 161.677C167.044 161.667 156.94 161.675 146.837 161.675C146.143 161.649 145.332 161.576 144.91 160.944C144.414 160.382 144.855 159.619 145.075 159.03C146.125 156.887 147.106 154.713 148.148 152.565C148.461 151.792 149.336 151.585 150.093 151.607C155.589 151.605 161.084 151.616 166.58 151.601C166.022 148.626 165.251 145.693 164.623 142.729C162.94 135.369 161.288 128.001 159.603 120.641C159.402 120.014 159.627 119.263 160.215 118.932Z" fill="#948771"/>
<path d="M245.761 120.431C245.594 119.495 246.361 118.476 247.338 118.508C249.647 118.508 251.955 118.512 254.264 118.508C255.184 118.437 255.957 119.332 255.951 120.211C255.953 130.094 255.949 139.975 255.953 149.856C255.931 150.786 256.789 151.575 257.713 151.526C265.988 151.537 274.263 151.526 282.539 151.531C284.134 151.581 285.743 151.413 287.328 151.644C287.422 152.363 286.995 152.978 286.718 153.605C285.67 155.752 284.653 157.914 283.607 160.062C283.19 160.849 282.559 161.827 281.542 161.756C270.141 161.752 258.741 161.756 247.34 161.756C246.447 161.783 245.655 160.91 245.763 160.023C245.763 146.826 245.767 133.628 245.761 120.431Z" fill="#001246"/>
<path d="M323.942 120.051C323.584 119.533 323.787 118.742 324.481 118.697C326.703 118.559 328.939 118.683 331.167 118.64C332.314 118.677 333.545 118.466 334.612 119.01C335.83 119.651 336.323 121.009 337.017 122.111C340.128 127.602 343.267 133.08 346.38 138.57C346.741 139.234 347.088 139.918 347.632 140.462C350.877 133.559 354.092 126.642 357.319 119.73C357.565 119.111 358.137 118.602 358.841 118.642C361.218 118.642 363.596 118.626 365.975 118.65C366.929 118.622 367.832 119.292 368.036 120.232C368.182 121.269 367.861 122.298 367.539 123.272C366.927 125.162 365.932 126.893 365.14 128.708C361.547 136.427 357.938 144.136 354.334 151.851C354.11 152.198 354.354 152.568 354.523 152.88C355.856 155.221 357.195 157.559 358.517 159.907C358.674 160.305 359.026 160.849 358.668 161.233C358.245 161.659 357.588 161.655 357.032 161.679C354.45 161.665 351.866 161.679 349.286 161.673C348.324 161.679 347.325 161.241 346.881 160.354C342.858 153.331 338.893 146.277 334.854 139.267C334.237 139.837 334.02 140.661 333.661 141.39C331.897 145.1 330.154 148.821 328.396 152.533C327.572 154.246 326.884 156.061 325.641 157.53C324.524 158.811 323.234 160.003 321.653 160.683C319.661 161.545 317.449 161.704 315.302 161.681C314.568 161.675 313.78 161.702 313.129 161.314C312.669 160.991 312.702 160.331 312.94 159.883C317.962 149.271 322.943 138.637 327.966 128.026C328.143 127.634 328.031 127.194 327.814 126.845C326.509 124.587 325.213 122.324 323.942 120.051Z" fill="#948771"/>
<path d="M383.061 118.549C387.737 118.458 392.423 118.537 397.101 118.51C414.671 118.51 432.238 118.51 449.806 118.51C450.347 118.474 450.886 118.888 450.974 119.43C451.088 120.059 450.779 120.654 450.526 121.208C449.672 122.982 448.868 124.778 448.019 126.552C447.629 127.405 446.906 128.07 446.062 128.464C445.126 128.876 444.078 128.777 443.085 128.787C422.468 128.785 401.85 128.787 381.234 128.785C380.227 128.734 379.183 128.933 378.213 128.604C377.413 128.263 377.492 127.218 377.783 126.552C378.727 124.559 379.645 122.554 380.587 120.558C381.061 119.56 382.03 118.886 383.061 118.549Z" fill="#001246"/>
<path d="M404.03 135.282C405.269 133.936 406.345 132.43 407.719 131.216C407.955 131.488 408.187 131.779 408.315 132.124C408.708 133.175 409.106 134.226 409.501 135.28C411.141 135.327 412.797 135.189 414.431 135.353C415.078 135.448 414.979 136.293 414.659 136.689C413.656 138 412.488 139.175 411.452 140.46C411.89 141.491 412.272 142.542 412.659 143.592C412.801 144.02 412.854 144.724 412.278 144.83C410.708 145.195 409.08 144.913 407.489 145.031C406.388 146.159 405.444 147.436 404.343 148.567C404.17 148.792 403.885 148.845 403.627 148.804C403.004 147.596 402.614 146.283 402.117 145.021C400.459 144.95 398.786 145.122 397.14 144.929C396.436 144.844 396.534 143.973 396.876 143.553C397.877 142.228 399.106 141.081 400.084 139.737C399.722 138.558 399.14 137.454 398.829 136.26C398.67 135.698 399.273 135.349 399.759 135.339C401.177 135.213 402.605 135.314 404.03 135.282Z" fill="#001246"/>
<path d="M367.861 151.558C377.874 151.492 387.891 151.55 397.906 151.53C409.984 151.532 422.064 151.526 434.142 151.534C434.809 151.467 435.542 151.993 435.487 152.705C435.542 153.231 435.265 153.696 435.059 154.155C434.229 155.914 433.409 157.678 432.589 159.442C431.973 160.776 430.575 161.912 429.039 161.758C407.074 161.744 385.107 161.766 363.143 161.748C362.18 161.748 361.806 160.585 362.194 159.828C362.846 158.303 363.59 156.82 364.28 155.314C364.758 154.384 365.051 153.31 365.845 152.581C366.4 152.064 367.094 151.648 367.861 151.558Z" fill="#001246"/>
<path d="M133.262 175.268C134.415 175.268 135.571 175.268 136.725 175.264C136.737 178.15 136.717 181.037 136.735 183.921C138.202 184.061 139.677 183.976 141.148 183.998C144.324 184.014 147.503 183.964 150.679 184.025C150.591 185.171 150.345 186.294 150.134 187.422C149.407 191.447 148.662 195.47 147.94 199.497C147.482 201.84 146.626 204.247 144.801 205.881C143.146 207.361 140.849 207.828 138.688 207.828C138.428 207.787 137.905 207.929 137.952 207.497C137.891 206.435 137.956 205.372 137.925 204.31C139.246 204.184 140.664 204.215 141.84 203.512C143.23 202.682 144.031 201.144 144.251 199.579C144.921 195.562 145.743 191.569 146.316 187.54C142.282 187.528 138.247 187.538 134.214 187.536C133.858 187.528 133.215 187.504 133.28 187C133.247 183.091 133.286 179.18 133.262 175.268Z" fill="#948771"/>
<path d="M109.12 183.99C109.099 191.929 109.128 199.866 109.109 207.804C115.679 207.825 122.251 207.829 128.821 207.804C128.806 203.108 128.82 198.41 128.816 193.713C128.844 191.744 128.797 189.749 128.327 187.826C127.845 185.799 126.01 183.953 123.831 183.995C118.927 183.995 114.023 184 109.12 183.99L109.12 183.99ZM118.199 187.471C120.015 187.471 121.832 187.471 123.647 187.476C124.878 187.442 125.02 188.964 125.148 189.871C125.223 194.702 125.157 199.534 125.184 204.369C121.041 204.357 116.894 204.356 112.752 204.374C112.745 198.741 112.745 193.109 112.752 187.476C114.566 187.475 116.384 187.472 118.199 187.471V187.471Z" fill="#948771"/>
<path d="M156.122 183.99C157.276 184 158.431 183.998 159.585 183.998C159.565 191.914 159.583 199.83 159.577 207.747C158.425 207.856 157.269 207.82 156.118 207.811C156.122 199.871 156.112 191.931 156.122 183.99Z" fill="#948771"/>
<path d="M166.544 184.004C167.755 183.992 168.965 183.992 170.178 184.008C171.763 190.751 173.37 197.488 174.941 204.235C176.74 204.27 178.638 203.663 179.757 202.187C180.988 200.661 181.23 198.641 181.267 196.749C181.261 192.499 181.265 188.251 181.263 184C182.441 183.992 183.619 183.982 184.797 184.015C184.826 187.514 184.801 191.013 184.809 194.512C184.805 196.717 184.917 198.984 184.217 201.111C183.515 203.638 181.704 205.873 179.291 206.953C177.808 207.653 176.14 207.84 174.514 207.822C171.354 207.803 168.196 207.842 165.036 207.801C165.008 206.626 165.018 205.451 165.016 204.276C167.144 204.131 169.283 204.428 171.407 204.186C170.396 200.186 169.476 196.163 168.477 192.158C167.856 189.434 167.11 186.741 166.544 184.004Z" fill="#948771"/>
<path d="M190.129 184.002C193.394 183.992 196.662 184.004 199.93 183.992C202.017 183.948 204.018 185.387 204.697 187.347C205.428 189.383 205.48 191.575 205.576 193.715C205.631 197.247 205.592 200.971 203.946 204.19C205.295 204.393 206.652 204.148 208.006 204.292C207.991 205.467 207.989 206.642 207.997 207.818C201.82 207.805 195.641 207.842 189.463 207.799C189.419 206.63 189.439 205.461 189.435 204.292C191.441 204.308 193.447 204.219 195.453 204.274C197.028 204.2 198.619 204.377 200.184 204.127C200.955 204.002 201.352 203.22 201.484 202.524C201.735 201.223 201.883 199.899 201.873 198.574C201.857 197.356 202.107 196.146 202.003 194.927C201.759 192.793 202.015 190.577 201.283 188.521C201.063 187.885 200.39 187.504 199.734 187.54C196.554 187.516 193.374 187.556 190.196 187.524C190.072 186.353 190.129 185.176 190.129 184.002Z" fill="#948771"/>
<path d="M225.555 184.004C230.114 183.99 234.674 184.002 239.234 183.996C240.854 183.964 242.254 185.078 243.053 186.41C243.778 187.697 243.948 189.203 244.016 190.654C244.256 192.812 244.105 194.985 244.146 197.151C244.15 200.699 244.138 204.249 244.154 207.799C242.949 207.826 241.747 207.836 240.544 207.791C240.512 202.824 240.54 197.86 240.53 192.893C240.514 191.411 240.66 189.879 240.156 188.458C239.999 187.964 239.582 187.496 239.02 187.546C235.732 187.514 232.444 187.546 229.154 187.534C229.109 191.279 229.148 195.026 229.136 198.773C229.119 200.575 229.26 202.427 228.723 204.176C228.177 205.979 226.574 207.371 224.747 207.773C223.306 208.169 221.797 207.984 220.356 207.698C220.356 206.551 220.354 205.404 220.358 204.259C221.571 204.337 222.824 204.775 224.008 204.294C224.971 204.004 225.571 203.011 225.538 202.033C225.555 196.025 225.524 190.013 225.555 184.004Z" fill="#948771"/>
<path d="M249.156 184.002C250.346 183.994 251.536 184.005 252.729 183.988C252.755 188.484 252.723 192.98 252.745 197.478C251.569 197.545 250.389 197.547 249.215 197.484C249.066 192.992 249.18 188.494 249.156 184.002Z" fill="#948771"/>
<path d="M258.388 183.99C261.426 184.002 264.464 184 267.502 183.992C268.645 183.925 269.842 184.065 270.818 184.715C272.043 185.36 272.766 186.633 273.142 187.922C273.71 189.72 273.73 191.628 273.781 193.496C274.015 195.162 273.777 196.834 273.712 198.503C273.571 200.466 273.079 202.394 272.237 204.174C273.59 204.395 274.963 204.164 276.326 204.308C276.308 205.477 276.312 206.646 276.316 207.815C270.658 207.824 265.001 207.809 259.343 207.824C258.785 207.809 258.211 207.884 257.672 207.724C257.603 206.701 257.613 205.67 257.65 204.645C257.591 204.136 258.219 204.306 258.533 204.247C261.316 204.375 264.1 204.146 266.883 204.284C267.689 204.215 268.708 204.31 269.284 203.632C270.09 202.152 270.013 200.405 270.179 198.775C270.141 195.738 270.369 192.678 269.856 189.667C269.752 189.04 269.496 188.454 269.243 187.877C268.741 187.692 268.224 187.51 267.683 187.53C264.586 187.532 261.491 187.542 258.396 187.528C258.321 186.349 258.394 185.169 258.388 183.99Z" fill="#948771"/>
<path d="M281.764 183.996C284.666 183.996 287.567 184 290.471 183.994C291.348 183.998 292.257 183.917 293.097 184.234C294.509 184.686 295.651 185.807 296.186 187.181C297.085 189.444 297.047 191.923 297.155 194.316C297.207 197.661 297.032 201.134 295.543 204.196C296.886 204.389 298.239 204.146 299.584 204.294C299.517 205.441 299.71 206.614 299.488 207.744C297.584 207.923 295.659 207.767 293.748 207.818C289.492 207.813 285.235 207.826 280.979 207.811C280.905 206.636 280.977 205.461 280.971 204.286C284.075 204.257 287.178 204.233 290.285 204.237C291.002 204.178 291.887 204.328 292.446 203.776C293.311 202.772 293.191 201.33 293.411 200.098C293.498 197.253 293.539 194.401 293.407 191.555C293.236 190.404 293.28 189.132 292.623 188.123C292.092 187.374 291.073 187.552 290.281 187.528C287.445 187.502 284.605 187.617 281.772 187.467C281.764 186.31 281.77 185.153 281.764 183.996Z" fill="#948771"/>
<path d="M314.464 184.004C315.613 183.992 316.765 183.998 317.919 183.996C317.9 188.498 317.945 193.002 317.896 197.504C316.757 197.533 315.617 197.526 314.48 197.516C314.431 193.012 314.464 188.508 314.464 184.004Z" fill="#948771"/>
<path d="M323.378 183.992C326.455 184.002 329.531 183.998 332.61 183.994C334.386 183.998 336.201 184.751 337.292 186.184C338.541 187.869 338.968 189.99 339.19 192.034C339.312 193.942 339.548 195.858 339.312 197.77C339.147 200.259 338.869 202.879 337.471 205.02C336.555 206.502 334.921 207.454 333.206 207.675C331.053 207.962 328.874 207.757 326.711 207.817C325.616 207.757 324.489 207.953 323.417 207.72C323.303 206.557 323.397 205.388 323.378 204.225C325.975 204.318 328.573 204.239 331.171 204.288C332.437 204.198 334.091 204.292 334.799 203.005C335.589 201.462 335.589 199.664 335.692 197.973C335.627 195.198 335.947 192.367 335.235 189.651C334.978 188.608 334.176 187.603 333.025 187.565C330.311 187.496 327.592 187.548 324.878 187.542C324.39 187.514 323.867 187.617 323.411 187.422C323.311 186.282 323.393 185.135 323.378 183.992Z" fill="#948771"/>
<path d="M345.109 184C349.624 183.992 354.141 184.004 358.659 183.994C359.867 183.976 361.043 184.552 361.841 185.447C362.872 186.503 363.294 187.991 363.434 189.424C363.727 191.993 363.625 194.581 363.642 197.161C363.646 200.407 363.633 203.652 363.65 206.898C363.637 207.192 363.633 207.493 363.556 207.779C362.411 207.874 361.257 207.825 360.113 207.758C360.095 204.355 360.113 200.953 360.103 197.549C360.042 195.111 360.227 192.663 360.003 190.232C359.865 189.324 359.885 188.19 359.041 187.609C357.765 187.439 356.471 187.577 355.189 187.534C351.834 187.518 348.481 187.566 345.128 187.51C345.111 186.338 345.12 185.169 345.109 184Z" fill="#948771"/>
<path d="M345.109 194.133C346.298 194.021 347.488 194.135 348.678 194.155C348.737 197.117 348.688 200.08 348.705 203.041C348.68 204.631 348.768 206.224 348.627 207.811C347.459 207.822 346.294 207.83 345.13 207.795C345.097 203.24 345.134 198.686 345.109 194.133Z" fill="#948771"/>
</g>
<defs>
<clipPath id="clip0_730_18125">
<rect width="421" height="97" fill="white" transform="translate(30 111)"/>
</clipPath>
</defs>
</svg>
