<svg width="480" height="320" viewBox="0 0 480 320" fill="none" xmlns="http://www.w3.org/2000/svg">
<path d="M123.655 117.547C124.194 117.301 124.799 117.372 125.372 117.361C126.976 117.388 128.582 117.342 130.187 117.377C130.922 117.388 131.661 117.927 131.735 118.689C131.828 120.052 131.666 121.426 131.801 122.786C131.923 123.636 132.767 124.149 133.586 124.075C140.601 124.08 147.616 124.075 154.629 124.076C156.613 124.119 158.51 125.095 159.809 126.575C161.749 128.852 162.486 132.139 161.549 134.999C161.057 136.429 160.311 137.751 159.702 139.13C156.61 145.712 153.501 152.284 150.421 158.871C149.991 159.661 149.714 160.528 149.241 161.296C148.961 161.778 148.385 161.942 147.858 161.913C145.482 161.906 143.103 161.908 140.726 161.913C140.098 161.897 139.38 161.824 138.927 161.337C138.625 160.816 138.809 160.161 139.05 159.649C142.933 151.401 146.806 143.146 150.689 134.898C151.008 134.319 151.063 133.443 150.394 133.09C149.404 132.553 148.224 132.815 147.152 132.803C145.781 132.74 144.413 132.838 143.044 132.763C140.72 132.872 138.397 132.678 136.072 132.794C132.096 132.749 128.116 132.815 124.139 132.744C123.539 132.74 123.045 132.249 122.854 131.712C122.747 131.184 122.799 130.642 122.792 130.108C122.799 126.416 122.795 122.725 122.792 119.033C122.774 118.436 123.093 117.795 123.655 117.547ZM269.464 117.558C269.938 117.327 270.479 117.367 270.993 117.361C272.599 117.379 274.205 117.356 275.813 117.367C276.486 117.354 277.246 117.679 277.483 118.355C277.763 119.818 277.423 121.316 277.621 122.786C277.708 123.625 278.591 124.116 279.375 124.078C286.334 124.073 293.294 124.082 300.255 124.073C301.729 124.08 303.203 124.563 304.395 125.433C306.712 127.137 307.911 130.12 307.779 132.949C307.7 134.605 306.974 136.106 306.26 137.565C303.003 144.532 299.706 151.481 296.451 158.449C295.94 159.431 295.578 160.487 294.996 161.43C294.709 161.872 294.122 161.899 293.651 161.913C291.386 161.91 289.122 161.904 286.857 161.915C286.222 161.91 285.549 161.894 284.982 161.576C284.448 161.214 284.532 160.457 284.746 159.934C288.506 151.924 292.286 143.922 296.039 135.906C296.281 135.351 296.602 134.821 296.733 134.223C296.858 133.625 296.404 133.049 295.835 132.917C294.534 132.594 293.187 132.894 291.868 132.774C287.05 132.733 282.23 132.801 277.412 132.76C275.03 132.774 272.649 132.719 270.27 132.808C269.38 132.888 268.554 132.066 268.607 131.18C268.609 127.133 268.611 123.086 268.607 119.039C268.584 118.437 268.914 117.822 269.464 117.558Z" fill="#948771"/>
<path d="M237.257 123.954C237.201 123.952 237.145 123.954 237.089 123.959C231.853 123.973 226.617 123.946 221.384 123.973C218.318 124.357 215.666 126.543 214.369 129.3C209.658 139.411 204.95 149.526 200.241 159.637C200.05 160.147 199.78 160.741 200.08 161.26C200.369 161.774 200.99 162.003 201.558 161.983C203.528 161.98 205.5 161.985 207.47 161.981C208.325 161.973 209.045 161.366 209.452 160.652C210.205 159.38 210.723 157.989 211.392 156.676C211.683 156.148 211.821 155.507 212.254 155.075C213.512 155.034 214.772 155.077 216.03 155.059C220.475 155.063 224.921 155.061 229.364 155.059C229.512 156.858 229.335 158.66 229.428 160.459C229.387 161.287 230.174 162.074 231.009 161.983C233.035 161.981 235.06 161.98 237.087 161.985C238.013 162.083 238.791 161.15 238.711 160.259V125.642C238.771 124.819 238.087 123.983 237.257 123.954ZM225.92 132.29C226.729 132.292 227.538 132.3 228.347 132.298C229.093 132.235 229.764 132.951 229.716 133.685C229.721 137.55 229.723 141.417 229.716 145.284C229.769 146.026 229.071 146.688 228.342 146.654C224.244 146.653 220.147 146.667 216.052 146.646C218.161 142.113 220.308 137.596 222.421 133.064C222.636 132.671 223.009 132.291 223.493 132.316C224.301 132.292 225.11 132.288 225.92 132.29H225.92ZM59.7287 125.669C61.1527 124.716 62.8159 124.082 64.5326 123.964C73.6907 123.959 82.8505 123.968 92.0104 123.959C92.4583 123.973 92.9526 123.88 93.3399 124.168C93.9145 124.498 94.0876 125.203 94.0769 125.82C94.0697 127.787 94.0858 129.753 94.0697 131.72C94.1072 132.289 93.7003 132.93 93.074 132.88C84.3352 132.878 75.5947 132.88 66.8542 132.878C66.1886 132.839 65.5372 133.283 65.3088 133.904C65.1982 134.775 65.316 135.656 65.2339 136.531C65.1982 137.164 65.1803 137.926 65.7193 138.372C66.003 138.683 66.4313 138.792 66.8399 138.783C74.756 138.786 82.6721 138.777 90.5881 138.788C91.3858 138.763 92.03 139.493 92.0158 140.271C92.0425 141.824 92.0122 143.376 92.0282 144.929C92.0229 145.455 92.0746 146.032 91.7731 146.494C91.6035 146.793 91.2716 146.938 91.0022 147.133C83.0058 147.111 75.0094 147.129 67.013 147.122C66.4402 147.1 65.8299 147.309 65.4962 147.796C65.1464 148.248 65.2946 148.853 65.2624 149.381C65.316 150.28 65.0858 151.201 65.3481 152.085C65.5926 152.663 66.2154 153.009 66.8328 152.993H92.1764C92.9241 152.998 93.6789 152.948 94.4177 153.087C94.5123 153.725 94.134 154.265 93.8823 154.815C92.9776 156.699 92.0782 158.586 91.1752 160.47C90.8041 161.168 90.2366 162.053 89.3319 161.983C78.5035 161.98 67.6769 161.983 56.8485 161.981C56.2774 162.006 55.7617 161.587 55.5387 161.084C55.3781 160.407 55.4048 159.704 55.3923 159.014C55.4316 154.435 55.3584 149.856 55.4066 145.275C55.4476 141.053 55.2835 136.827 55.4976 132.607C55.826 129.828 57.4284 127.251 59.7287 125.669ZM98.7612 125.661C98.7237 124.896 99.2073 124.055 100.019 123.97C102.109 123.95 104.197 123.97 106.286 123.961C107.091 123.9 107.766 124.682 107.737 125.46V151.349C107.671 152.215 108.412 153.037 109.295 152.989C117.154 152.998 125.013 152.991 132.872 152.993C133.673 153.004 134.483 152.941 135.278 153.091C135.278 153.4 135.281 153.719 135.122 153.998C134.166 156.003 133.197 158.002 132.251 160.011C131.851 160.804 131.375 161.857 130.388 161.978C120.323 161.987 110.261 161.98 100.196 161.981C99.4625 162.01 98.8308 161.346 98.7951 160.631C98.7023 159.621 98.7808 158.603 98.7523 157.592C98.7558 156.756 98.7558 155.923 98.7523 155.088C98.7612 145.28 98.7451 135.471 98.7612 125.661Z" fill="#001246"/>
<path d="M169.587 124.335C170.019 124.037 170.565 124.08 171.063 124.071C173.206 124.096 175.349 124.058 177.49 124.087C178.193 124.064 178.829 124.583 178.955 125.274C180.897 134.089 182.897 142.892 184.835 151.709C184.996 152.343 185.037 153.058 185.478 153.576C186.056 153.645 186.293 153.023 186.5 152.603C190.455 143.383 194.457 134.182 198.412 124.961C198.587 124.458 199.038 124.065 199.591 124.089C202.095 124.055 204.602 124.098 207.108 124.071C207.581 124.073 208.145 124.03 208.48 124.44C209.03 124.943 209.083 125.757 208.744 126.396C204.765 135.363 200.75 144.316 196.761 153.28C195.603 155.799 194.227 158.398 191.909 160.038C189.752 161.569 187.016 161.902 184.437 161.915C175.576 161.906 166.714 161.913 157.854 161.913C157.245 161.89 156.533 161.826 156.164 161.271C155.728 160.776 156.116 160.105 156.308 159.588C157.229 157.703 158.089 155.792 159.003 153.904C159.278 153.224 160.045 153.042 160.709 153.062C165.529 153.06 170.349 153.069 175.169 153.057C174.68 150.44 174.003 147.862 173.452 145.257C171.976 138.786 170.527 132.308 169.05 125.838C168.873 125.286 169.071 124.626 169.587 124.335Z" fill="#948771"/>
<path d="M244.614 125.65C244.468 124.828 245.14 123.932 245.997 123.961C248.022 123.961 250.046 123.964 252.071 123.961C252.878 123.898 253.556 124.685 253.551 125.458C253.552 134.146 253.549 142.833 253.552 151.52C253.533 152.338 254.286 153.032 255.096 152.989C262.354 152.998 269.611 152.989 276.869 152.993C278.268 153.037 279.679 152.889 281.07 153.093C281.152 153.724 280.777 154.265 280.534 154.816C279.615 156.704 278.723 158.605 277.806 160.493C277.44 161.185 276.887 162.045 275.994 161.983C265.996 161.979 255.997 161.983 245.999 161.983C245.215 162.006 244.521 161.239 244.616 160.459C244.616 148.856 244.619 137.253 244.614 125.65Z" fill="#001246"/>
<path d="M313.181 125.318C312.867 124.863 313.046 124.167 313.654 124.128C315.603 124.007 317.564 124.115 319.518 124.078C320.524 124.11 321.604 123.924 322.539 124.403C323.608 124.967 324.04 126.16 324.648 127.129C327.377 131.956 330.13 136.773 332.861 141.6C333.177 142.184 333.482 142.785 333.958 143.263C336.804 137.194 339.624 131.112 342.454 125.036C342.67 124.492 343.172 124.044 343.789 124.08C345.873 124.08 347.959 124.065 350.045 124.087C350.882 124.062 351.675 124.651 351.853 125.477C351.982 126.389 351.7 127.294 351.418 128.15C350.881 129.812 350.008 131.334 349.314 132.929C346.162 139.716 342.997 146.493 339.836 153.276C339.64 153.581 339.854 153.906 340.002 154.181C341.171 156.238 342.345 158.294 343.505 160.359C343.643 160.708 343.951 161.187 343.637 161.524C343.266 161.899 342.69 161.895 342.203 161.917C339.938 161.904 337.672 161.917 335.409 161.911C334.565 161.917 333.689 161.531 333.3 160.751C329.772 154.577 326.294 148.376 322.751 142.212C322.211 142.714 322.02 143.438 321.706 144.079C320.159 147.341 318.629 150.612 317.087 153.876C316.365 155.382 315.762 156.977 314.671 158.269C313.691 159.395 312.56 160.443 311.174 161.04C309.427 161.799 307.487 161.938 305.604 161.918C304.96 161.913 304.269 161.936 303.698 161.595C303.295 161.312 303.324 160.732 303.532 160.337C307.936 151.008 312.305 141.659 316.711 132.329C316.866 131.985 316.768 131.598 316.577 131.291C315.433 129.307 314.296 127.317 313.181 125.318Z" fill="#948771"/>
<path d="M365.032 123.997C369.133 123.917 373.243 123.986 377.346 123.963H423.57C424.044 123.931 424.517 124.295 424.594 124.771C424.694 125.325 424.423 125.848 424.201 126.335C423.452 127.894 422.747 129.474 422.003 131.033C421.66 131.783 421.027 132.368 420.286 132.714C419.465 133.077 418.546 132.989 417.675 132.998C399.593 132.996 381.511 132.998 363.43 132.996C362.547 132.952 361.631 133.127 360.78 132.837C360.079 132.538 360.148 131.619 360.403 131.033C361.231 129.281 362.036 127.518 362.862 125.764C363.278 124.886 364.128 124.293 365.032 123.997ZM383.422 138.708C384.509 137.525 385.453 136.201 386.657 135.134C386.864 135.373 387.067 135.628 387.18 135.932C387.524 136.856 387.874 137.781 388.22 138.707C389.659 138.748 391.111 138.626 392.544 138.771C393.112 138.855 393.024 139.597 392.744 139.945C391.864 141.098 390.84 142.131 389.932 143.261C390.315 144.167 390.651 145.092 390.99 146.014C391.115 146.391 391.161 147.01 390.656 147.103C389.278 147.424 387.851 147.176 386.455 147.279C385.49 148.272 384.662 149.394 383.697 150.388C383.545 150.586 383.295 150.633 383.068 150.597C382.522 149.535 382.18 148.38 381.744 147.271C380.29 147.208 378.823 147.36 377.379 147.19C376.762 147.115 376.848 146.35 377.147 145.98C378.025 144.815 379.103 143.807 379.962 142.625C379.644 141.589 379.134 140.618 378.861 139.569C378.721 139.074 379.25 138.767 379.676 138.758C380.92 138.648 382.173 138.737 383.422 138.708ZM351.7 153.018C360.482 152.96 369.267 153.011 378.05 152.993C388.643 152.995 399.238 152.99 409.831 152.997C410.416 152.938 411.058 153.4 411.01 154.027C411.058 154.489 410.816 154.897 410.635 155.301C409.907 156.848 409.188 158.399 408.469 159.949C407.928 161.122 406.702 162.121 405.355 161.986C386.091 161.973 366.826 161.993 347.562 161.977C346.718 161.977 346.39 160.954 346.731 160.288C347.302 158.948 347.955 157.644 348.56 156.32C348.979 155.502 349.236 154.558 349.932 153.918C350.419 153.463 351.028 153.097 351.7 153.018Z" fill="#001246"/>
<path d="M145.948 173.863C146.96 173.863 147.973 173.863 148.985 173.859C148.996 176.397 148.978 178.935 148.994 181.47C150.281 181.593 151.575 181.518 152.865 181.538C155.65 181.552 158.438 181.508 161.223 181.561C161.147 182.57 160.931 183.556 160.745 184.549C160.108 188.087 159.455 191.624 158.822 195.165C158.42 197.224 157.669 199.34 156.068 200.777C154.617 202.078 152.602 202.488 150.707 202.488C150.479 202.453 150.02 202.577 150.061 202.197C150.008 201.264 150.065 200.329 150.038 199.396C151.196 199.285 152.44 199.312 153.472 198.694C154.69 197.964 155.393 196.612 155.586 195.236C156.173 191.704 156.894 188.194 157.397 184.652C153.859 184.641 150.32 184.65 146.783 184.649C146.471 184.641 145.907 184.62 145.964 184.177C145.936 180.74 145.969 177.302 145.948 173.863ZM124.775 181.531C124.757 188.51 124.782 195.488 124.766 202.468C130.528 202.486 136.291 202.489 142.053 202.468C142.041 198.338 142.052 194.208 142.049 190.079C142.074 188.348 142.033 186.594 141.62 184.904C141.197 183.121 139.588 181.498 137.677 181.535C133.376 181.535 129.075 181.54 124.775 181.531ZM132.738 184.591C134.33 184.591 135.924 184.591 137.516 184.596C138.596 184.566 138.72 185.904 138.832 186.702C138.898 190.949 138.84 195.197 138.863 199.447C135.23 199.437 131.593 199.436 127.96 199.452C127.955 194.5 127.955 189.548 127.96 184.596C129.552 184.595 131.146 184.592 132.738 184.591ZM165.997 181.531C167.009 181.54 168.022 181.538 169.034 181.538C169.016 188.498 169.032 195.457 169.027 202.417C168.017 202.513 167.003 202.481 165.993 202.474C165.997 195.493 165.988 188.512 165.997 181.531ZM175.139 181.543C176.201 181.533 177.263 181.533 178.326 181.547C179.716 187.475 181.126 193.398 182.504 199.33C184.081 199.36 185.746 198.826 186.728 197.529C187.807 196.187 188.02 194.412 188.052 192.748C188.046 189.012 188.05 185.277 188.048 181.54C189.081 181.533 190.115 181.524 191.148 181.552C191.173 184.629 191.151 187.705 191.159 190.782C191.155 192.72 191.253 194.713 190.639 196.583C190.024 198.805 188.435 200.77 186.319 201.719C185.018 202.335 183.555 202.499 182.129 202.483C179.358 202.467 176.588 202.501 173.817 202.465C173.792 201.432 173.801 200.399 173.799 199.365C175.665 199.239 177.541 199.499 179.404 199.287C178.517 195.77 177.71 192.233 176.834 188.712C176.29 186.317 175.635 183.949 175.139 181.543ZM195.821 181.542C198.686 181.533 201.552 181.543 204.417 181.533C206.248 181.493 208.002 182.759 208.599 184.483C209.239 186.272 209.286 188.2 209.369 190.081C209.418 193.186 209.384 196.46 207.94 199.29C209.123 199.469 210.313 199.253 211.5 199.38C211.488 200.413 211.486 201.446 211.493 202.479C206.075 202.469 200.656 202.501 195.238 202.463C195.199 201.435 195.217 200.407 195.213 199.38C196.972 199.394 198.732 199.315 200.492 199.364C201.873 199.299 203.268 199.455 204.64 199.235C205.317 199.124 205.665 198.437 205.781 197.825C206 196.681 206.131 195.518 206.122 194.353C206.107 193.282 206.327 192.218 206.236 191.146C206.022 189.27 206.247 187.322 205.604 185.514C205.411 184.955 204.821 184.62 204.246 184.652C201.457 184.631 198.668 184.666 195.88 184.638C195.771 183.608 195.821 182.573 195.821 181.542ZM226.892 181.543C230.891 181.531 234.89 181.542 238.889 181.536C240.309 181.508 241.537 182.487 242.238 183.658C242.874 184.789 243.023 186.114 243.082 187.39C243.293 189.286 243.161 191.198 243.197 193.102C243.2 196.221 243.189 199.342 243.204 202.463C242.147 202.486 241.093 202.495 240.038 202.456C240.009 198.089 240.034 193.725 240.025 189.358C240.011 188.055 240.14 186.708 239.697 185.459C239.56 185.025 239.194 184.613 238.701 184.657C235.818 184.629 232.934 184.657 230.048 184.647C230.009 187.939 230.043 191.233 230.032 194.528C230.018 196.112 230.141 197.74 229.67 199.278C229.192 200.863 227.786 202.087 226.183 202.44C224.92 202.788 223.596 202.626 222.332 202.374C222.332 201.366 222.33 200.358 222.334 199.351C223.397 199.419 224.497 199.804 225.535 199.381C226.379 199.126 226.906 198.254 226.877 197.393C226.892 192.111 226.865 186.826 226.892 181.543ZM247.59 181.542C248.634 181.535 249.678 181.543 250.724 181.529C250.747 185.482 250.718 189.435 250.738 193.389C249.706 193.448 248.671 193.45 247.642 193.394C247.511 189.445 247.611 185.491 247.59 181.542ZM255.688 181.531C258.352 181.542 261.017 181.54 263.681 181.533C264.684 181.474 265.733 181.597 266.59 182.168C267.664 182.736 268.297 183.854 268.628 184.988C269.125 186.569 269.143 188.246 269.188 189.888C269.393 191.353 269.184 192.823 269.127 194.29C269.004 196.016 268.572 197.711 267.833 199.276C269.02 199.471 270.225 199.267 271.42 199.394C271.404 200.422 271.408 201.45 271.411 202.478C266.449 202.485 261.488 202.472 256.525 202.485C256.036 202.472 255.533 202.538 255.06 202.397C254.999 201.498 255.008 200.591 255.04 199.69C254.989 199.242 255.54 199.392 255.815 199.34C258.256 199.453 260.697 199.251 263.138 199.372C263.845 199.312 264.739 199.396 265.244 198.8C265.951 197.499 265.883 195.962 266.029 194.529C265.995 191.86 266.195 189.169 265.746 186.522C265.655 185.971 265.43 185.455 265.208 184.948C264.768 184.786 264.314 184.625 263.84 184.643C261.124 184.645 258.409 184.654 255.695 184.641C255.629 183.605 255.693 182.568 255.688 181.531ZM276.19 181.536C278.735 181.536 281.28 181.54 283.826 181.535C284.595 181.538 285.393 181.467 286.13 181.745C287.368 182.143 288.37 183.128 288.839 184.336C289.628 186.326 289.594 188.505 289.688 190.609C289.735 193.55 289.581 196.603 288.275 199.296C289.453 199.465 290.639 199.251 291.819 199.381C291.76 200.39 291.93 201.421 291.735 202.415C290.065 202.572 288.377 202.435 286.701 202.479C282.968 202.476 279.235 202.486 275.501 202.474C275.437 201.441 275.5 200.407 275.494 199.374C278.217 199.349 280.939 199.328 283.664 199.331C284.292 199.28 285.068 199.412 285.559 198.926C286.317 198.043 286.212 196.776 286.405 195.693C286.482 193.191 286.517 190.684 286.401 188.182C286.251 187.17 286.291 186.051 285.714 185.164C285.248 184.506 284.354 184.663 283.66 184.641C281.173 184.618 278.681 184.72 276.197 184.588C276.19 183.571 276.196 182.553 276.19 181.536ZM304.869 181.543C305.877 181.533 306.887 181.538 307.899 181.536C307.883 185.494 307.922 189.454 307.88 193.412C306.88 193.437 305.881 193.432 304.883 193.423C304.841 189.463 304.869 185.503 304.869 181.543ZM312.687 181.533C315.385 181.542 318.083 181.538 320.783 181.535C322.341 181.538 323.933 182.2 324.889 183.46C325.985 184.941 326.36 186.806 326.554 188.603C326.661 190.28 326.868 191.965 326.661 193.646C326.517 195.834 326.272 198.138 325.046 200.02C324.243 201.323 322.811 202.16 321.306 202.354C319.418 202.606 317.507 202.426 315.61 202.479C314.65 202.426 313.661 202.599 312.721 202.394C312.621 201.371 312.703 200.343 312.687 199.321C314.964 199.403 317.243 199.333 319.522 199.376C320.632 199.298 322.082 199.38 322.703 198.248C323.396 196.892 323.396 195.311 323.487 193.824C323.43 191.385 323.71 188.896 323.085 186.508C322.86 185.591 322.157 184.707 321.147 184.673C318.767 184.613 316.383 184.659 314.002 184.654C313.574 184.629 313.115 184.72 312.716 184.549C312.628 183.546 312.699 182.537 312.687 181.533ZM331.744 181.54C335.704 181.533 339.665 181.543 343.627 181.535C344.687 181.518 345.718 182.025 346.418 182.812C347.322 183.74 347.692 185.048 347.815 186.308C348.072 188.567 347.983 190.843 347.997 193.111C348.001 195.964 347.99 198.817 348.004 201.671C347.993 201.93 347.99 202.194 347.922 202.445C346.917 202.529 345.906 202.486 344.903 202.428C344.887 199.435 344.903 196.444 344.894 193.451C344.84 191.308 345.003 189.156 344.806 187.018C344.685 186.221 344.703 185.223 343.962 184.713C342.843 184.563 341.708 184.684 340.584 184.647C337.642 184.632 334.701 184.675 331.76 184.625C331.746 183.596 331.753 182.568 331.744 181.54ZM331.744 190.448C332.786 190.35 333.83 190.45 334.874 190.468C334.926 193.071 334.883 195.677 334.897 198.28C334.876 199.678 334.952 201.078 334.829 202.474C333.805 202.483 332.782 202.49 331.762 202.46C331.733 198.455 331.765 194.451 331.744 190.448Z" fill="#948771"/>
</svg>
