<svg width="480" height="320" viewBox="0 0 480 320" fill="none" xmlns="http://www.w3.org/2000/svg">
<path d="M85.6169 128.958V135.354H65.8652V139.979H84.1289V146.417H65.8251V150.922H86.0198V157.358H55.6885V128.958H85.6169ZM88.8727 128.958H102.349L109.51 147.503L116.669 128.958H130.105V157.358H120.049V139.175L113.331 157.358H105.487L98.8486 139.256V157.358H88.8727V128.958ZM144.101 139.779H153.635C155.163 139.779 155.486 139.658 155.767 139.538C156.532 139.255 157.014 138.572 157.014 137.486C157.014 136.681 156.652 136.037 155.727 135.635C155.325 135.434 154.641 135.394 153.675 135.394H144.101V139.779ZM144.061 150.881H154.36C155.365 150.881 156.09 150.841 156.532 150.64C157.859 150.157 158.1 149.152 158.1 148.186C158.1 147.1 157.578 146.376 156.733 146.134C156.09 145.934 155.406 145.934 154.159 145.934H144.061V150.881ZM133.884 128.958H157.698C159.67 128.998 162.365 129.038 164.335 130.446C166.387 131.935 166.75 134.348 166.75 135.635C166.75 139.175 164.738 141.146 161.278 141.991C162.968 142.232 165.02 142.555 166.589 144.203C167.796 145.491 168.198 146.939 168.198 148.951C168.198 152.892 165.905 155.226 163.089 156.312C160.715 157.197 157.939 157.358 155.727 157.358H133.884V128.958ZM181.389 140.583H189.032C190.601 140.583 193.175 140.543 193.175 138.009C193.175 137.365 192.974 136.681 192.451 136.198C191.647 135.474 190.601 135.394 189.836 135.394H181.389V140.583ZM171.211 128.957H192.089C194.584 128.998 197.64 129.038 200.014 130.768C202.066 132.336 203.353 135.112 203.353 137.969C203.353 139.979 202.709 141.951 201.542 143.359C199.934 145.29 198.003 145.692 196.796 146.015L203.915 157.358H192.653L186.819 147.019H181.389V157.358H171.211V128.957ZM214.292 128.958L218.999 137.486C219.723 138.975 219.843 139.216 220.487 140.744C221.17 139.176 221.332 138.733 222.217 136.923L226.642 128.958H238.388L225.516 148.91V157.358H215.459V148.91L202.425 128.958H214.292ZM256.528 140.583H264.17C265.74 140.583 268.314 140.543 268.314 138.009C268.314 137.365 268.113 136.681 267.59 136.198C266.786 135.474 265.74 135.394 264.975 135.394H256.528V140.583ZM246.35 128.957H267.228C269.722 128.998 272.779 129.038 275.153 130.768C277.205 132.336 278.492 135.112 278.492 137.969C278.492 139.979 277.848 141.951 276.681 143.359C275.073 145.29 273.142 145.692 271.934 146.015L279.054 157.358H267.792L261.958 147.019H256.528V157.358H246.35V128.957ZM291.483 157.357H281.305V128.957H291.483V157.357ZM305.551 150.921H310.016C313.476 150.921 315.447 150.277 316.614 149.233C317.981 148.025 318.907 145.652 318.907 143.238C318.907 140.543 317.82 138.491 316.373 137.325C314.602 135.917 312.189 135.716 310.298 135.716H305.551V150.921ZM295.615 128.957H311.746C314.683 128.957 322.929 128.797 326.872 135.676C327.475 136.721 328.842 139.216 328.842 143.439C328.842 145.652 328.44 147.904 327.555 149.916C326.831 151.565 325.503 153.858 322.245 155.548C319.188 157.157 316.373 157.358 313.637 157.358H295.615V128.957ZM341.27 150.921H345.735C349.195 150.921 351.166 150.277 352.333 149.233C353.7 148.025 354.626 145.652 354.626 143.238C354.626 140.543 353.54 138.491 352.092 137.325C350.321 135.917 347.908 135.716 346.016 135.716H341.27L341.27 150.921ZM331.334 128.957H347.465C350.402 128.957 358.648 128.797 362.591 135.676C363.194 136.721 364.561 139.216 364.561 143.439C364.561 145.652 364.159 147.904 363.274 149.916C362.55 151.565 361.223 153.858 357.964 155.548C354.907 157.157 352.092 157.358 349.356 157.358H331.334V128.957ZM377.23 128.958V150.439H391.712V157.358H367.012V128.958H377.23ZM424.214 128.958V135.354H404.462V139.979H422.725V146.417H404.422V150.922H424.616V157.358H394.284V128.958H424.214Z" fill="#00549F"/>
<path fill-rule="evenodd" clip-rule="evenodd" d="M247.621 140.582H236.462L232.451 147.026H247.621L247.621 140.582Z" fill="#00549F"/>
<path d="M68.6934 169.174C68.5424 168.811 68.3611 168.448 68.2092 168.085C68.1189 167.812 68.0278 167.541 67.9681 167.268C67.8769 167.541 67.7857 167.843 67.6651 168.145C67.5142 168.538 67.3319 168.901 67.1505 169.295L62.6434 178.158H73.2005L68.6934 169.174ZM66.4251 164.516H69.6314L80.5806 185.9H77.1018L74.5012 180.638H61.374L58.7725 185.9H55.3848L66.4251 164.516ZM95.5825 176.705C95.2197 175.767 94.1307 172.803 89.8657 172.803C85.3586 172.803 84.1187 175.858 83.7559 176.705H95.5825ZM98.5163 181.606C97.9722 182.664 97.488 183.601 96.0059 184.631C93.768 186.143 91.0753 186.354 89.7745 186.354C85.0871 186.354 80.7309 183.783 80.7309 178.43C80.7309 173.831 84.2696 170.655 89.6844 170.655C95.159 170.655 98.6986 174.195 98.8191 178.853H83.6648C83.7863 179.761 83.9373 180.759 84.7538 181.757C85.8733 183.149 87.9298 184.055 90.1381 184.055C91.4694 184.055 92.8603 183.693 93.9493 182.967C94.9777 182.271 95.3403 181.606 95.7637 180.849L98.5163 181.606ZM100.724 171.14H103.598V172.803C105.715 170.777 108.619 170.716 109.284 170.716C110.04 170.716 110.404 170.808 111.008 170.928V173.772C110.252 173.56 109.738 173.408 108.739 173.408C107.802 173.408 106.894 173.53 106.138 173.801C103.627 174.739 103.627 176.766 103.627 177.885V185.9H100.724V171.14ZM114.032 178.611C114.032 181.756 116.815 183.965 120.959 183.965C124.407 183.965 127.522 181.938 127.522 178.581C127.522 175.163 124.529 173.076 120.596 173.136C116.301 173.197 114.032 175.768 114.032 178.611ZM120.747 170.777C125.889 170.746 130.427 173.287 130.427 178.581C130.427 183.602 126.04 186.355 120.808 186.355C114.607 186.355 111.129 183.088 111.129 178.792C111.129 173.953 115.181 170.807 120.716 170.777H120.747ZM135.235 172.924C135.901 172.35 136.415 171.896 137.686 171.412C138.926 170.929 140.256 170.687 141.799 170.687C144.4 170.687 146.971 171.442 148.453 173.287C149.603 174.739 149.633 176.312 149.633 177.916V185.901H146.789V178.097C146.759 176.796 146.729 175.435 145.368 174.346C144.037 173.257 142.313 173.167 141.314 173.167C140.347 173.167 139.319 173.257 138.048 173.802C135.265 175.042 135.235 177.31 135.235 178.883V185.901H132.361V171.139H135.235V172.924ZM160.339 178.913C158.645 178.913 157.073 178.944 156.135 179.306C155.077 179.7 154.592 180.486 154.592 181.334C154.592 182.694 155.771 184.237 158.827 184.237C159.311 184.237 161.852 184.176 163.666 182.967C165.602 181.666 165.724 180.002 165.724 178.913H160.339ZM152.687 174.437C153.322 172.712 154.079 170.686 160.641 170.686C161.943 170.686 163.757 170.837 165.118 171.2C168.416 172.108 168.416 174.225 168.416 175.858V181.212C168.416 183.178 168.416 183.995 170.049 183.995C170.412 183.995 170.775 183.934 171.138 183.905V185.87C170.2 185.961 169.354 186.051 168.597 186.051C166.026 186.051 165.875 184.6 165.753 183.541C165.391 184.086 164.997 184.66 163.757 185.355C162.487 186.021 160.672 186.445 158.736 186.445C152.656 186.445 151.719 182.997 151.719 181.364C151.719 179.549 152.717 177.765 155.107 177.128C156.618 176.736 159.523 176.706 161.52 176.706H165.693C165.724 175.133 165.724 173.952 164.151 173.288C163.546 173.015 162.426 172.773 160.824 172.773C159.584 172.773 158.344 172.864 157.224 173.318C156.135 173.741 155.832 174.255 155.59 174.709L152.687 174.437ZM172.407 171.14H175.251V178.611C175.251 180.214 175.311 181.424 176.188 182.361C177.186 183.451 178.971 183.874 180.695 183.874C184.053 183.874 185.807 182.211 186.291 181.424C186.805 180.607 186.805 179.76 186.805 178.943V171.14H189.679V185.9H186.866V184.055C185.686 185.053 184.053 186.415 180.362 186.415C178.971 186.415 177.247 186.173 175.856 185.568C172.407 184.025 172.407 181.333 172.407 178.913V171.14ZM194.941 166.058H197.784V171.109H201.928V173.106H197.754L197.724 181.031C197.754 182.513 197.724 183.602 199.75 183.602C200.446 183.602 201.051 183.511 201.837 183.36V185.901C200.9 185.991 199.962 186.113 198.994 186.113C194.941 186.113 194.971 184.086 194.941 181.848V173.076L192.4 173.106V171.109H194.941V166.058V166.058ZM205.194 171.14H208.068V185.9H205.194V171.14ZM205.165 165.755H208.008V168.659H205.165V165.755ZM229.544 181.969C228.999 182.907 228.666 183.481 227.699 184.267C225.521 185.991 222.707 186.415 220.56 186.415C218.957 186.415 217.324 186.234 215.811 185.689C212.575 184.509 210.82 181.877 210.82 178.46C210.82 173.469 215.176 170.716 220.651 170.716C222.223 170.716 224.674 170.989 226.61 172.229C228.243 173.257 228.939 174.406 229.393 175.224L226.64 176.01C226.367 175.556 225.974 174.83 224.946 174.165C224.099 173.62 222.587 173.015 220.651 173.015C217.294 173.015 213.875 174.861 213.875 178.702C213.875 182.09 216.87 184.147 220.651 184.147C222.012 184.147 223.706 183.844 225.006 183.058C225.974 182.453 226.367 181.908 226.791 181.273L229.544 181.969ZM239.827 178.913C238.133 178.913 236.561 178.944 235.622 179.306C234.564 179.7 234.08 180.486 234.08 181.334C234.08 182.694 235.259 184.237 238.314 184.237C238.798 184.237 241.339 184.176 243.154 182.967C245.091 181.666 245.211 180.002 245.211 178.913H239.827ZM232.174 174.437C232.809 172.712 233.566 170.686 240.13 170.686C241.43 170.686 243.245 170.837 244.605 171.2C247.903 172.108 247.903 174.225 247.903 175.858V181.212C247.903 183.178 247.903 183.995 249.536 183.995C249.9 183.995 250.262 183.934 250.625 183.905V185.87C249.688 185.961 248.841 186.051 248.084 186.051C245.513 186.051 245.362 184.6 245.241 183.541C244.878 184.086 244.485 184.66 243.245 185.355C241.974 186.021 240.16 186.445 238.223 186.445C232.144 186.445 231.207 182.997 231.207 181.364C231.207 179.549 232.204 177.765 234.594 177.128C236.106 176.736 239.01 176.706 241.007 176.706H245.181C245.211 175.133 245.211 173.952 243.638 173.288C243.033 173.015 241.914 172.773 240.311 172.773C239.071 172.773 237.831 172.864 236.712 173.318C235.622 173.741 235.32 174.255 235.077 174.709L232.174 174.437ZM253.166 164.546H256.008V185.901H253.166V164.546ZM275.336 164.546V177.219C275.366 179.7 275.608 181.152 277.453 182.331C278.239 182.846 279.933 183.783 283.322 183.783C285.379 183.783 287.193 183.39 288.373 182.846C291.126 181.606 291.126 179.397 291.126 177.612V164.546H294.18V177.37C294.18 179.519 294.18 182.453 290.914 184.57C289.432 185.538 287.042 186.415 283.292 186.415C280.509 186.415 277.694 185.961 275.397 184.357C272.372 182.271 272.281 179.519 272.281 177.099V164.546L275.336 164.546ZM299.654 172.924C300.319 172.35 300.834 171.896 302.104 171.412C303.344 170.929 304.675 170.687 306.218 170.687C308.819 170.687 311.389 171.442 312.872 173.287C314.021 174.739 314.051 176.312 314.051 177.916V185.901H311.208V178.097C311.178 176.796 311.148 175.435 309.786 174.346C308.456 173.257 306.732 173.167 305.733 173.167C304.766 173.167 303.738 173.257 302.467 173.802C299.684 175.042 299.654 177.31 299.654 178.883V185.901H296.781V171.139H299.654V172.924ZM316.986 171.14H319.859V185.9H316.986V171.14ZM316.955 165.755H319.798V168.659H316.955V165.755ZM324.759 171.14L330.627 182.997L336.585 171.14H339.821L332.229 185.9H329.024L321.582 171.14H324.759ZM354.279 176.705C353.916 175.767 352.827 172.803 348.562 172.803C344.055 172.803 342.815 175.858 342.452 176.705H354.279ZM357.214 181.606C356.669 182.664 356.186 183.601 354.702 184.631C352.465 186.143 349.773 186.354 348.472 186.354C343.784 186.354 339.428 183.783 339.428 178.43C339.428 173.831 342.967 170.655 348.381 170.655C353.855 170.655 357.395 174.195 357.516 178.853H342.361C342.483 179.761 342.634 180.759 343.45 181.757C344.57 183.149 346.626 184.055 348.835 184.055C350.166 184.055 351.557 183.693 352.646 182.967C353.674 182.271 354.037 181.606 354.46 180.849L357.214 181.606ZM359.42 171.14H362.293V172.803C364.411 170.777 367.315 170.716 367.981 170.716C368.736 170.716 369.1 170.808 369.704 170.928V173.772C368.948 173.56 368.434 173.408 367.436 173.408C366.499 173.408 365.591 173.53 364.834 173.801C362.324 174.739 362.324 176.766 362.324 177.885V185.9H359.42V171.14ZM371.791 181.726C372.729 182.453 374.755 184.025 379.202 184.025C380.231 184.025 381.803 183.904 382.831 183.541C383.738 183.208 384.495 182.604 384.495 181.635C384.495 180.244 382.741 179.941 382.166 179.851C381.319 179.731 377.145 179.428 376.208 179.307C374.513 179.155 370.702 178.732 370.702 175.253C370.702 170.959 376.298 170.564 378.9 170.564C384.193 170.564 386.794 172.622 387.489 173.318L384.978 174.709C383.526 173.711 381.44 172.985 378.687 172.985C377.568 172.985 376.389 173.015 375.331 173.439C374.362 173.801 373.879 174.377 373.879 175.012C373.879 176.403 375.844 176.614 377.599 176.796C379.051 176.977 380.502 177.038 381.954 177.189C382.772 177.25 383.557 177.341 384.313 177.522C384.888 177.673 387.55 178.369 387.55 181.454C387.55 185.205 383.526 186.445 379.413 186.445C375.753 186.445 371.791 185.629 369.311 183.359L371.791 181.726ZM390.06 171.14H392.933V185.9H390.06V171.14ZM390.03 165.755H392.873V168.659H390.03V165.755ZM398.045 166.058H400.888V171.109H405.032V173.106H400.858L400.829 181.031C400.858 182.513 400.829 183.602 402.854 183.602C403.551 183.602 404.155 183.511 404.942 183.36V185.901C404.004 185.991 403.065 186.113 402.099 186.113C398.045 186.113 398.075 184.086 398.045 181.848V173.076L395.504 173.106V171.109H398.045V166.058V166.058ZM406.272 171.11H409.539L415.315 183.027L421.305 171.11H424.511L416.163 187.323C415.195 189.198 414.136 191.043 410.689 191.043C409.508 191.043 408.389 190.861 407.179 190.68V188.109C408.118 188.29 409.207 188.532 410.203 188.532C412.322 188.532 413.017 187.382 413.773 185.991L406.272 171.11Z" fill="#A29061"/>
</svg>
