<svg width="480" height="320" viewBox="0 0 480 320" fill="none" xmlns="http://www.w3.org/2000/svg">
<path d="M117.37 129.012L92.5794 157.518H117.266V162.478H92.5794L117.37 190.988H104.98L67.7819 162.478H55.3848L60.3443 157.518H67.7819L104.98 129.012H117.37Z" fill="#0067B1"/>
<mask id="mask0_730_18361" style="mask-type:luminance" maskUnits="userSpaceOnUse" x="55" y="129" width="370" height="62">
<path d="M55.3818 129.016H424.616V190.988H55.3818V129.016Z" fill="white"/>
</mask>
<g mask="url(#mask0_730_18361)">
<path fill-rule="evenodd" clip-rule="evenodd" d="M141.732 152.057V156.753H163.937V163.282H141.732V168.017H166.119V175.526H132.871V144.506H166.112V152.057H141.732ZM170.538 175.526V144.506H185.449L195.886 163.878L206.319 144.506H221.491V175.526H212.604V153.448H212.239L200.262 175.526H191.503L179.61 153.432H179.382V175.526H170.538ZM225.952 175.526V144.506H252.101C258.607 144.506 261.763 147.319 261.763 153.168C261.763 156.502 260.405 158.541 257.49 159.736C261.16 160.384 262.759 162.68 262.759 167.122C262.759 173.097 259.887 175.526 253.459 175.526H225.952ZM252.661 154.021C252.661 152.487 251.743 151.462 250.388 151.462H234.823V156.581H250.388C251.86 156.581 252.661 155.688 252.661 154.021ZM253.622 165.627C253.622 163.963 252.661 162.898 251.186 162.898H234.823V168.489H251.186C252.743 168.489 253.622 167.457 253.622 165.627ZM332.427 162.901L326.487 151.934L320.678 162.901H332.427ZM303.95 175.526L320.678 144.506H332.593L349.035 175.526H338.751L335.8 170.362H317.135L314.142 175.526H303.95ZM395.507 152.227V159.821H412.401C414.876 159.821 415.595 158.671 415.595 155.727C415.595 153.337 414.677 152.227 412.401 152.227H395.507ZM424.616 154.659C424.616 159.778 423.417 162.344 419.786 163.282C422.821 164.048 424.375 166.011 424.375 169.173V175.526H415.517V170.792C415.517 168.144 414.436 167.591 411.518 167.591H395.503V175.526H386.607V144.506H412.717C421.503 144.506 424.616 146.596 424.616 154.659ZM275.082 152.227V159.821H291.973C294.444 159.821 295.164 158.671 295.164 155.727C295.164 153.337 294.246 152.227 291.973 152.227H275.082ZM304.184 154.659C304.184 159.778 302.989 162.344 299.355 163.282C302.393 164.048 303.95 166.011 303.95 169.173V175.526H295.086V170.792C295.086 168.144 294.005 167.591 291.093 167.591H275.082V175.526H266.175V144.506H292.292C301.068 144.506 304.184 146.596 304.184 154.659ZM357.892 152.057V156.753H380.088V163.282H357.892V168.017H382.279V175.526H349.031V144.506H382.269V152.057H357.892Z" fill="#0067B1"/>
</g>
</svg>
