<svg width="480" height="320" viewBox="0 0 480 320" fill="none" xmlns="http://www.w3.org/2000/svg">
<path fill-rule="evenodd" clip-rule="evenodd" d="M151.395 75.3338C151.395 78.3213 148.95 80.6299 145.963 80.6299H129.667C126.68 80.6299 124.235 78.3213 124.235 75.3338V59.3098C124.235 56.458 126.68 54.0137 129.667 54.0137H145.963C148.95 54.0137 151.395 56.458 151.395 59.3098V75.3338Z" fill="#60B974"/>
<path fill-rule="evenodd" clip-rule="evenodd" d="M129.667 53.334C126.272 53.334 123.556 56.0499 123.556 59.3091V75.3331C123.556 78.5922 126.272 81.3082 129.667 81.3082H145.962C149.357 81.3082 152.073 78.5922 152.073 75.3331V59.3091C152.073 56.0499 149.357 53.334 145.962 53.334H129.667ZM124.914 75.3331V59.3091C124.914 56.7289 127.086 54.692 129.667 54.692H145.962C148.678 54.692 150.851 56.7289 150.851 59.3091V75.3331C150.851 77.9132 148.678 80.086 145.962 80.086H129.667C127.086 80.086 124.914 77.9132 124.914 75.3331ZM151.394 150.02C151.394 152.871 148.95 155.316 145.962 155.316H129.667C126.679 155.316 124.235 152.871 124.235 150.02V133.996C124.235 131.008 126.679 128.699 129.667 128.699H145.962C148.95 128.699 151.394 131.008 151.394 133.996V150.02Z" fill="#60B974"/>
<path fill-rule="evenodd" clip-rule="evenodd" d="M129.668 128.02C126.273 128.02 123.557 130.736 123.557 133.995V150.019C123.557 153.278 126.273 155.858 129.668 155.858H145.963C149.358 155.858 152.074 153.278 152.074 150.019V133.995C152.074 130.736 149.358 128.02 145.963 128.02H129.668ZM124.915 150.019V133.995C124.915 131.415 127.087 129.242 129.668 129.242H145.963C148.679 129.242 150.852 131.415 150.852 133.995V150.019C150.852 152.599 148.679 154.636 145.963 154.636H129.668C127.087 154.636 124.915 152.599 124.915 150.019ZM189.552 112.81C189.552 115.798 187.108 118.106 184.12 118.106H167.689C164.701 118.106 162.257 115.798 162.257 112.81V96.7863C162.257 93.9346 164.701 91.4902 167.689 91.4902H184.12C187.108 91.4902 189.552 93.9346 189.552 96.7863V112.81Z" fill="#60B974"/>
<path fill-rule="evenodd" clip-rule="evenodd" d="M167.69 90.8145C164.431 90.8145 161.715 93.5304 161.715 96.7895V112.814C161.715 116.073 164.431 118.789 167.69 118.789H184.119C187.379 118.789 190.095 116.073 190.095 112.814V96.7895C190.095 93.5304 187.379 90.9503 184.119 90.9503L167.69 90.8145ZM162.937 112.812V96.7876C162.937 94.2075 165.11 92.1705 167.69 92.1705H184.119C186.7 92.1705 188.872 94.2075 188.872 96.7876V112.812C188.872 115.392 186.7 117.565 184.119 117.565H167.688C165.11 117.565 162.937 115.394 162.937 112.812Z" fill="#60B974"/>
<path fill-rule="evenodd" clip-rule="evenodd" d="M151.395 112.678C151.395 115.529 148.95 117.974 145.963 117.974H129.667C126.68 117.974 124.235 115.529 124.235 112.678V96.6535C124.235 93.666 126.68 91.3574 129.667 91.3574H145.963C148.95 91.3574 151.395 93.666 151.395 96.6535V112.678Z" fill="#00976A"/>
<path fill-rule="evenodd" clip-rule="evenodd" d="M129.668 90.6789C126.273 90.6789 123.557 93.3948 123.557 96.6539V112.678C123.557 115.937 126.273 118.653 129.668 118.653H145.963C149.358 118.653 152.074 115.937 152.074 112.678V96.6539C152.074 93.3948 149.358 90.6789 145.963 90.6789H129.668ZM124.915 112.678V96.6539C124.915 94.0738 127.087 91.901 129.668 91.901H145.963C148.679 91.901 150.852 94.0738 150.852 96.6539V112.678C150.852 115.258 148.679 117.295 145.963 117.295H129.668C127.087 117.293 124.915 115.256 124.915 112.678ZM189.552 75.3338C189.552 78.3213 187.108 80.6299 184.12 80.6299H167.689C164.701 80.6299 162.257 78.3213 162.257 75.3338V59.3098C162.257 56.458 164.701 54.0137 167.689 54.0137H184.12C187.108 54.0137 189.552 56.458 189.552 59.3098V75.3338Z" fill="#00976A"/>
<path fill-rule="evenodd" clip-rule="evenodd" d="M167.69 53.334C164.431 53.334 161.715 56.0499 161.715 59.3091V75.3331C161.715 78.5922 164.431 81.3082 167.69 81.3082H184.119C187.379 81.3082 190.095 78.5922 190.095 75.3331V59.3091C190.095 56.0499 187.379 53.334 184.119 53.334H167.69ZM162.937 75.3331V59.3091C162.937 56.7289 165.11 54.692 167.69 54.692H184.119C186.7 54.692 188.872 56.7289 188.872 59.3091V75.3331C188.872 77.9132 186.7 80.086 184.119 80.086H167.688C165.11 80.086 162.937 77.9132 162.937 75.3331ZM189.551 150.02C189.551 152.871 187.107 155.316 184.119 155.316H167.688C164.7 155.316 162.256 152.871 162.256 150.02V133.996C162.256 131.008 164.7 128.699 167.688 128.699H184.119C187.107 128.699 189.551 131.008 189.551 133.996V150.02Z" fill="#00976A"/>
<path fill-rule="evenodd" clip-rule="evenodd" d="M167.69 128.02C164.431 128.02 161.715 130.736 161.715 133.995V150.019C161.715 153.278 164.431 155.858 167.69 155.858H184.119C187.379 155.858 190.095 153.278 190.095 150.019V133.995C190.095 130.736 187.379 128.02 184.119 128.02H167.69ZM162.937 150.019V133.995C162.937 131.415 165.11 129.242 167.69 129.242H184.119C186.7 129.242 188.872 131.415 188.872 133.995V150.019C188.872 152.599 186.7 154.636 184.119 154.636H167.688C165.11 154.636 162.937 152.599 162.937 150.019ZM227.303 112.81C227.303 115.798 224.859 118.106 221.871 118.106H205.575C202.588 118.106 200.144 115.798 200.144 112.81V96.7863C200.144 93.9346 202.588 91.4902 205.575 91.4902H221.871C224.859 91.4902 227.303 93.9346 227.303 96.7863V112.81Z" fill="#00976A"/>
<path fill-rule="evenodd" clip-rule="evenodd" d="M205.576 90.8145C202.181 90.8145 199.465 93.5304 199.465 96.7895V112.814C199.465 116.073 202.181 118.789 205.576 118.789H221.871C225.266 118.789 227.982 116.073 227.982 112.814V96.7895C227.982 93.5304 225.266 90.9503 221.871 90.9503L205.576 90.8145ZM200.823 112.812V96.7876C200.823 94.2075 202.86 92.1705 205.576 92.1705H221.871C224.587 92.1705 226.76 94.2075 226.76 96.7876V112.812C226.76 115.392 224.587 117.565 221.871 117.565H205.576C204.95 117.569 204.331 117.448 203.752 117.211C203.174 116.974 202.648 116.624 202.206 116.181C201.764 115.739 201.414 115.214 201.176 114.635C200.939 114.057 200.819 113.437 200.823 112.812Z" fill="#00976A"/>
<path fill-rule="evenodd" clip-rule="evenodd" d="M84.5847 215.203C79.1528 210.586 75.8937 202.709 76.0295 194.426C76.1653 181.797 81.1898 167.674 96.1274 167.674C110.386 167.674 115.411 177.721 115.682 194.018H86.4858C86.0785 205.425 92.0535 212.349 99.6582 212.213C104.818 212.078 108.349 210.312 113.645 207.866L116.497 213.707C113.102 215.878 110.386 217.372 107.127 218.324C100.201 220.227 90.6956 220.497 84.5847 215.203ZM86.8932 186.821H105.226C104.954 180.439 102.102 174.871 96.5348 174.871C90.424 174.871 87.708 180.439 86.8932 186.821Z" fill="black"/>
<path fill-rule="evenodd" clip-rule="evenodd" d="M74.2637 194.424C74.2637 203.251 77.6586 211.533 83.4979 216.558C91.7815 223.619 104.003 220.903 107.534 219.819C111.065 218.866 114.052 217.372 117.447 215.064L118.669 214.249L114.46 205.558L112.966 206.375C107.806 208.819 104.411 210.313 99.6577 210.447C96.806 210.582 94.3616 209.496 92.3247 207.595C89.7445 204.881 88.2508 200.669 88.2508 195.645H117.311V193.879C117.04 175.139 110.114 166.041 96.1289 166.041C80.2387 166.043 74.3995 180.707 74.2637 194.424ZM77.6586 194.832V194.424C77.6586 188.583 79.1524 169.302 96.127 169.302C107.806 169.302 113.373 176.499 113.916 192.252H84.8577V195.102C84.8577 201.212 86.6231 206.509 90.0161 209.903C92.5963 212.619 95.9912 213.977 99.7935 213.843C104.682 213.708 108.349 212.214 112.83 210.039C113.373 211.261 113.781 211.94 114.324 213.027C111.744 214.794 109.437 215.879 106.719 216.693C100.201 218.459 91.2383 218.73 85.6706 213.977C80.7819 209.632 77.6586 202.437 77.6586 194.832Z" fill="black"/>
<path fill-rule="evenodd" clip-rule="evenodd" d="M85.2627 186.683L85.127 188.584H106.988L106.853 186.819C106.581 178.535 102.507 173.239 96.532 173.239C90.2872 173.239 86.3491 177.994 85.2627 186.683ZM96.5339 176.5C100.879 176.5 102.916 180.708 103.46 185.189H88.9293C89.7422 180.845 91.781 176.5 96.5339 176.5ZM179.911 184.919C179.911 173.512 169.998 172.833 162.937 177.858C163.073 178.808 163.208 180.031 163.208 180.981V218.733H152.888L152.752 184.919C152.752 178.129 149.764 174.599 142.296 175.006C139.987 175.142 137.271 176.771 136.049 177.858V218.733H125.728V175.821C133.197 170.253 137.948 167.401 147.182 167.266C151.528 167.266 156.009 168.759 158.997 171.613C163.75 168.897 168.231 167.266 174.478 167.266C182.082 167.266 190.366 172.697 190.366 181.389V218.733H179.911V184.919Z" fill="black"/>
<path fill-rule="evenodd" clip-rule="evenodd" d="M124.781 174.463L124.102 175.006V220.36H137.681V178.672C138.903 177.72 140.94 176.769 142.434 176.635C145.422 176.5 147.594 177.043 148.952 178.263C150.31 179.623 151.125 181.794 151.125 184.917V220.358H164.976V180.981C164.976 180.166 164.841 179.487 164.705 178.672C168.236 176.5 172.174 175.956 174.754 177.312C177.062 178.535 178.285 181.117 178.285 184.917V220.358H191.998V181.388C191.998 171.611 182.9 165.636 174.48 165.636C168.777 165.636 164.16 166.856 159.271 169.574C156.012 166.994 151.666 165.5 147.185 165.5C137.544 165.772 132.791 168.623 124.781 174.463ZM147.185 168.895C151.259 168.895 155.197 170.389 157.913 172.833L158.864 173.784L159.95 173.107C164.839 170.253 169.048 169.033 174.48 169.033C181.27 169.033 188.739 173.786 188.739 181.39V216.967H181.678V184.921C181.678 179.896 179.776 176.094 176.382 174.329C172.308 172.292 166.74 173.108 161.987 176.501L161.036 177.18L161.308 178.265C161.444 179.082 161.58 180.032 161.58 180.981V216.965H154.518C154.518 213.978 154.382 184.919 154.382 184.919C154.382 180.845 153.432 177.858 151.259 175.821C149.222 173.919 146.235 173.107 142.161 173.24C139.309 173.376 136.321 175.413 134.828 176.637L134.284 177.18V216.967H127.359V176.771C134.556 171.475 138.902 169.031 147.185 168.895ZM208.971 215.202C203.539 210.585 200.28 202.708 200.416 194.425C200.416 181.796 205.576 167.673 220.514 167.673C234.772 167.673 239.797 177.72 239.931 194.017H210.872C210.465 205.424 216.44 212.348 224.044 212.212C229.203 212.076 232.734 210.311 238.031 207.865L240.883 213.706C237.488 215.877 234.772 217.371 231.513 218.323C224.452 220.226 215.082 220.496 208.971 215.202ZM211.279 186.82H229.612C229.34 180.438 226.489 174.87 220.785 174.87C214.81 174.87 212.094 180.438 211.279 186.82Z" fill="black"/>
<path fill-rule="evenodd" clip-rule="evenodd" d="M198.652 194.424C198.516 203.251 202.047 211.533 207.886 216.558C216.17 223.619 228.392 220.903 231.923 219.819C235.453 218.866 238.305 217.372 241.836 215.064L243.058 214.249L238.712 205.558L237.219 206.375C232.194 208.819 228.799 210.313 224.048 210.447C221.196 210.582 218.752 209.496 216.715 207.595C214.135 204.881 212.641 200.669 212.505 195.645H241.7V193.879C241.43 175.139 234.505 166.041 220.517 166.041C204.625 166.043 198.786 180.707 198.652 194.424ZM202.045 194.832V194.424C202.045 188.583 203.539 169.302 220.514 169.302C232.19 169.302 237.622 176.499 238.303 192.252H209.243V193.881C209.243 194.289 209.107 194.696 209.107 195.102C209.107 201.212 211.008 206.509 214.403 209.903C216.983 212.619 220.378 213.977 224.044 213.843C229.069 213.708 232.734 212.214 237.215 210.039C237.758 211.261 238.165 211.94 238.709 213.027C235.993 214.794 233.82 215.879 230.968 216.693C224.586 218.459 215.623 218.73 210.057 213.977C205.033 209.632 202.045 202.437 202.045 194.832Z" fill="black"/>
<path fill-rule="evenodd" clip-rule="evenodd" d="M209.65 186.683L209.378 188.585H231.377L231.241 186.819C230.97 178.536 226.896 173.239 220.787 173.239C214.674 173.239 210.736 177.994 209.65 186.683ZM220.785 176.5C225.266 176.5 227.303 180.708 227.711 185.19H213.316C214.131 180.846 216.032 176.5 220.785 176.5ZM271.166 175.821C266.411 175.821 263.289 177.315 260.707 179.488V218.733H250.523V177.315C253.784 173.513 257.857 170.933 262.473 169.169C267.361 167.402 272.116 166.182 280.398 167.947C278.906 171.208 277.546 173.651 276.324 176.367C273.882 175.957 272.116 175.684 271.166 175.821Z" fill="black"/>
<path fill-rule="evenodd" clip-rule="evenodd" d="M261.931 167.673C256.907 169.439 252.697 172.289 249.304 176.227L248.895 176.636V220.361H262.337V180.302C264.919 178.401 267.77 177.451 271.167 177.451H271.303C271.98 177.315 273.745 177.587 275.647 177.994L277.274 178.266L277.819 177.045C278.496 175.551 279.175 174.193 279.992 172.564L282.844 166.589L280.807 166.181C271.844 164.414 266.682 165.908 261.931 167.673ZM263.017 170.797C267.091 169.303 271.165 168.083 277.955 169.169C277.606 169.786 277.288 170.42 277.005 171.07C276.459 172.29 275.918 173.379 275.373 174.601C273.336 174.193 271.98 173.922 270.894 174.058H271.167C266.684 174.058 262.882 175.416 259.623 178.132L259.081 178.675V216.968H252.156V177.996C255.279 174.733 258.808 172.29 263.017 170.797ZM300.769 219.546C291.671 219.41 284.068 211.941 284.068 202.571C284.338 192.522 292.212 186.413 301.72 186.413H313.534V183.018C313.534 178.264 309.187 175.006 304.571 175.006C299.956 175.006 296.695 176.093 291.399 178.809L288.547 172.157C295.199 168.49 299.82 167.266 306.608 167.266C314.894 167.266 323.447 172.834 323.447 182.475V210.721C318.423 215.745 310.682 219.684 300.771 219.41V219.546H300.769ZM304.16 194.018C298.594 194.018 294.656 197.139 294.656 202.437C294.656 207.326 298.73 211.941 304.296 212.077C308.234 212.077 311.902 210.04 313.259 208.682V194.018H304.16Z" fill="black"/>
<path fill-rule="evenodd" clip-rule="evenodd" d="M287.733 170.66L286.373 171.338L290.582 180.979L292.078 180.3C297.508 177.586 300.631 176.635 304.569 176.635C308.098 176.635 311.904 179.08 311.904 183.018V184.783H301.72C290.584 184.783 282.572 192.116 282.435 202.573C282.435 212.622 290.582 221.041 300.769 221.315H302.397V221.179C311.086 220.905 318.83 217.648 324.669 211.945L325.211 211.401L325.075 182.479C325.075 171.479 315.571 165.504 306.608 165.504C299.273 165.636 294.521 166.994 287.733 170.66ZM306.606 168.895C313.941 168.895 321.68 173.65 321.68 182.475C321.68 182.475 321.816 205.558 321.816 210.04C318.419 213.163 311.493 218.052 300.767 217.78H299.136C291.533 216.694 285.694 210.311 285.694 202.571C285.967 194.018 292.484 188.041 301.718 188.041H315.16V183.018C315.16 177.586 310.407 173.239 304.569 173.239C299.954 173.239 296.557 174.461 292.21 176.5C291.669 175.142 291.127 174.055 290.718 172.833C296.286 169.981 300.36 169.031 306.606 168.895Z" fill="black"/>
<path fill-rule="evenodd" clip-rule="evenodd" d="M304.161 192.252C297.509 192.252 293.029 196.326 293.029 202.437C293.029 208.546 298.054 213.57 304.299 213.708C308.782 213.708 312.856 211.397 314.483 209.904L315.025 209.496V192.388L304.161 192.252ZM296.422 202.437C296.422 198.227 299.274 195.645 304.163 195.645C304.163 195.645 309.461 195.645 311.633 195.781V207.865C310.138 209.087 307.15 210.311 304.299 210.311C299.41 210.313 296.422 206.101 296.422 202.437ZM345.036 206.101C345.036 211.533 347.482 212.755 353.725 212.891V219.409C341.911 220.496 335.258 215.335 335.258 206.101V139.291H345.036V206.101Z" fill="black"/>
<path fill-rule="evenodd" clip-rule="evenodd" d="M345.035 137.662H333.494V206.102C333.494 210.719 335.122 214.386 337.974 217.101C341.506 220.361 347.072 221.719 353.862 221.04L355.357 220.904V211.264H353.726C347.615 210.991 346.8 209.904 346.8 206.104V137.662H345.035ZM343.407 141.057V206.102C343.407 212.349 346.531 214.114 352.096 214.521V217.782C346.936 218.054 342.728 216.966 340.146 214.521C337.974 212.62 336.885 209.768 336.885 206.102V141.057H343.407ZM383.06 172.969C373.826 172.969 369.482 183.697 369.482 193.746C369.482 203.524 373.552 213.98 382.515 213.98C387.949 213.98 393.109 210.993 395.01 209.635L395.825 209.227V177.451L395.01 176.907C391.208 174.463 387.675 172.834 383.06 172.969ZM372.873 193.746C372.873 187.771 375.046 176.364 383.058 176.364C386.587 176.228 389.439 177.315 392.426 179.216V207.326C390.393 208.546 386.451 210.585 382.513 210.585C375.452 210.583 372.873 200.534 372.873 193.746Z" fill="black"/>
<path fill-rule="evenodd" clip-rule="evenodd" d="M383.06 172.969C373.826 172.969 369.482 183.697 369.482 193.746C369.482 203.523 373.553 213.98 382.515 213.98C387.949 213.98 393.109 210.992 395.01 209.634L395.825 209.227V177.45L395.01 176.907C391.208 174.463 387.675 172.833 383.06 172.969ZM372.874 193.746C372.874 187.771 375.046 176.364 383.058 176.364C386.587 176.228 389.439 177.314 392.426 179.215V207.325C390.393 208.546 386.451 210.585 382.513 210.585C375.452 210.583 372.874 200.534 372.874 193.746Z" fill="black"/>
<path fill-rule="evenodd" clip-rule="evenodd" d="M394.061 139.156V169.709C389.987 167.943 385.639 166.857 381.024 166.857C366.763 166.857 360.111 181.523 360.111 193.337C360.111 204.88 365.951 219.546 380.209 219.409L380.073 219.544C389.172 219.544 396.912 216.149 404.11 210.582V139.156H394.061ZM394.196 208.277C391.209 210.178 386.861 212.215 382.516 212.215C374.234 212.215 371.247 201.487 371.247 193.747C371.247 185.599 374.37 174.601 383.061 174.601C387.271 174.601 390.528 175.959 394.196 178.266V208.277Z" fill="black"/>
<path fill-rule="evenodd" clip-rule="evenodd" d="M380.073 221.312C388.762 221.312 396.912 218.189 405.06 211.94L405.737 211.397V137.525H392.295V167.401C388.707 165.975 384.883 165.238 381.022 165.228C366.358 165.228 358.481 179.758 358.481 193.338C358.481 200.264 360.65 209.634 366.626 215.609C369.481 218.46 372.736 220.226 376.407 220.769L380.073 221.312ZM402.476 140.785V209.769C395.96 214.522 389.711 217.102 383.195 217.781H380.207C375.86 217.781 372.059 216.288 368.934 213.3C363.636 208.002 361.873 199.585 361.873 193.338C361.873 183.832 367.033 168.623 381.02 168.623C385.094 168.623 389.032 169.438 393.379 171.337L395.686 172.288V140.783L402.476 140.785Z" fill="black"/>
<path fill-rule="evenodd" clip-rule="evenodd" d="M383.06 172.969C373.826 172.969 369.482 183.697 369.482 193.746C369.482 203.523 373.553 213.98 382.515 213.98C387.949 213.98 393.109 210.992 395.01 209.634L395.825 209.227V177.45L395.01 176.907C391.208 174.463 387.675 172.833 383.06 172.969ZM372.874 193.746C372.874 187.771 375.046 176.364 383.058 176.364C386.587 176.228 389.439 177.314 392.426 179.215V207.325C390.393 208.546 386.451 210.585 382.513 210.585C375.452 210.583 372.874 200.534 372.874 193.746Z" fill="black"/>
<path fill-rule="evenodd" clip-rule="evenodd" d="M151.259 255.94C146.914 255.804 143.383 253.088 143.383 249.557C143.519 245.891 147.049 243.582 151.666 243.582H158.185V241.679C158.185 239.508 155.74 238.014 153.024 238.014C150.58 238.014 148.815 238.558 146.778 239.372L145.691 237.607C148.543 236.247 150.716 235.84 154.111 235.84C158.049 235.84 161.987 238.013 161.987 241.543V252.677C159.678 254.446 156.012 255.94 151.259 255.94ZM158.049 245.619H152.889C149.765 245.619 147.457 247.113 147.457 249.557C147.457 251.728 149.765 253.765 153.024 253.765C155.333 253.901 157.37 252.814 158.049 252.271V245.619Z" fill="#00976A"/>
<path fill-rule="evenodd" clip-rule="evenodd" d="M145.284 236.521L144.197 237.064L146.234 240.729L147.185 240.322C149.086 239.507 150.716 239.101 153.024 239.101C155.061 239.101 157.232 240.052 157.232 241.68V242.496H151.664C146.233 242.496 142.43 245.348 142.43 249.558C142.294 251.185 142.973 252.817 144.196 254.173C145.825 255.94 148.405 256.889 151.257 257.025C155.603 257.025 159.812 255.804 162.662 253.496L163.069 253.222V241.546C163.069 237.198 158.452 234.754 154.107 234.754C150.58 234.756 148.271 235.299 145.284 236.521ZM154.111 236.929C157.506 236.929 161.036 238.694 161.036 241.546V252.136C158.456 253.903 154.925 254.99 151.259 254.852C149.086 254.852 147.049 254.037 145.691 252.679C145.301 252.286 144.992 251.82 144.783 251.307C144.573 250.794 144.466 250.245 144.469 249.692V249.558C144.469 246.704 147.457 244.667 151.666 244.667H159.271V241.68C159.271 238.692 156.148 236.927 153.024 236.927C152.345 236.927 151.802 237.062 151.259 237.062C152.074 236.929 153.024 236.929 154.111 236.929ZM151.123 237.064C150.58 237.198 150.173 237.198 149.765 237.336C150.173 237.2 150.58 237.2 151.123 237.064ZM149.222 237.472C148.815 237.472 148.407 237.608 148 237.743C148.407 237.608 148.815 237.472 149.222 237.472ZM147.728 237.879C147.592 238.015 147.321 238.015 147.185 238.015C147.321 238.015 147.592 238.015 147.728 237.879Z" fill="#00976A"/>
<path fill-rule="evenodd" clip-rule="evenodd" d="M158.049 244.533L152.888 244.667C149.086 244.667 146.37 246.57 146.37 249.557C146.37 252.409 149.358 254.853 153.024 254.853C155.604 254.853 157.913 253.767 158.863 252.952L159.135 252.679V244.533H158.049ZM153.024 252.816C150.308 252.816 148.543 251.051 148.543 249.557C148.543 247.385 150.851 246.704 152.888 246.704H157.098V251.728C156.283 252.137 154.654 252.816 153.024 252.816ZM225.674 238.286C223.094 238.286 221.328 239.103 219.834 240.053V255.532H215.896V239.646C217.51 238.177 219.474 237.148 221.6 236.659C223.908 235.98 226.217 235.436 229.612 235.98C229.069 236.794 228.525 237.745 227.982 238.56C227.303 238.424 226.353 238.286 225.809 238.286H225.674Z" fill="#00976A"/>
<path fill-rule="evenodd" clip-rule="evenodd" d="M221.192 235.571C218.883 236.248 216.711 237.336 215.217 238.83L214.81 239.103V256.619H220.92V240.597C222.372 239.784 224.01 239.363 225.673 239.375H225.809C226.217 239.375 226.896 239.375 227.846 239.648H228.525L230.155 237.068L231.377 235.165L229.747 234.894C226.352 234.484 224.044 234.756 221.192 235.571ZM221.871 237.608C223.772 237.064 225.673 236.657 227.846 236.791C227.71 237.064 227.574 237.198 227.439 237.334C226.896 237.334 226.217 237.198 225.809 237.198H225.673C223.229 237.198 221.192 237.877 219.291 239.235L218.748 239.509V254.582H216.847V240.052C218.204 238.966 219.97 238.149 221.871 237.608ZM259.621 255.94H256.633L248.485 235.842H252.559L258.67 250.916L263.968 235.842H267.227L273.336 250.916L278.632 235.842H281.62L274.832 255.94H271.303L265.054 240.595L259.621 255.94Z" fill="#00976A"/>
<path fill-rule="evenodd" clip-rule="evenodd" d="M281.62 234.756H277.955C277.955 234.756 274.558 244.397 273.336 247.928C271.51 243.544 269.7 239.153 267.906 234.756H263.153C263.153 234.756 259.892 244.397 258.534 247.928C257.178 244.397 253.24 234.756 253.24 234.756H246.855L255.818 257.027H260.301C260.301 257.027 263.83 247.115 265.054 243.585C266.923 248.06 268.778 252.54 270.62 257.027H275.509L283.115 234.756H281.62ZM280.128 236.929C279.447 239.237 274.422 253.632 274.017 254.854H271.98C271.571 253.767 264.918 237.743 264.918 237.743C264.918 237.743 259.217 253.634 258.807 254.854H257.316C256.771 253.767 250.931 239.373 249.981 236.929H251.882C252.291 238.149 258.672 253.767 258.672 253.767C258.672 253.767 264.241 238.151 264.647 236.929H266.548C266.957 238.149 273.474 253.767 273.474 253.767C273.474 253.767 278.907 238.151 279.449 236.929H280.128ZM309.458 255.94C305.11 255.804 301.582 253.088 301.582 249.558C301.717 245.891 305.246 243.583 309.867 243.583H316.384V241.68C316.384 239.509 313.941 238.015 311.223 238.015C308.781 238.015 307.014 238.558 304.977 239.373L303.894 237.608C306.746 236.248 308.918 235.84 312.312 235.84C316.25 235.84 320.188 238.013 320.188 241.544V252.677C317.879 254.446 314.211 255.94 309.458 255.94ZM316.384 245.62H311.086C307.962 245.62 305.656 247.113 305.656 249.558C305.656 251.729 307.962 253.766 311.221 253.766C313.532 253.901 315.569 252.815 316.382 252.272V245.62H316.384Z" fill="#00976A"/>
<path fill-rule="evenodd" clip-rule="evenodd" d="M303.483 236.521L302.533 237.064L304.434 240.729L305.384 240.322C307.286 239.507 308.917 239.101 311.224 239.101C313.261 239.101 315.433 240.186 315.433 241.68V242.496H309.868C304.434 242.496 300.633 245.348 300.633 249.558C300.498 251.185 301.175 252.817 302.399 254.173C304.026 255.94 306.608 256.889 309.46 257.025C313.808 257.025 318.014 255.804 320.869 253.496L321.275 253.222V241.546C321.275 237.198 316.659 234.754 312.312 234.754C308.781 234.756 306.471 235.299 303.483 236.521ZM312.31 236.929C315.707 236.929 319.236 238.694 319.236 241.546V252.136C316.657 253.903 313.261 254.99 309.458 254.852C307.286 254.852 305.249 254.037 303.893 252.679C303.502 252.286 303.192 251.82 302.983 251.308C302.773 250.795 302.667 250.246 302.67 249.692V249.558C302.806 246.704 305.658 244.667 309.868 244.667H317.47V241.68C317.47 238.692 314.347 236.927 311.224 236.927C310.547 236.927 310.001 237.062 309.322 237.062C310.273 236.929 311.224 236.929 312.31 236.929ZM309.322 237.064C308.781 237.198 308.372 237.198 307.831 237.336C308.372 237.2 308.781 237.2 309.322 237.064ZM307.557 237.472C307.012 237.472 306.607 237.608 306.197 237.743C306.607 237.608 307.012 237.472 307.557 237.472ZM305.794 237.879C305.658 238.015 305.52 238.015 305.384 238.015C305.52 238.015 305.656 238.015 305.794 237.879Z" fill="#00976A"/>
<path fill-rule="evenodd" clip-rule="evenodd" d="M316.384 244.533L311.086 244.667C307.283 244.667 304.705 246.57 304.705 249.557C304.705 252.409 307.557 254.853 311.221 254.853C313.803 254.853 316.11 253.767 317.061 252.952L317.334 252.679V244.533H316.384ZM311.223 252.816C308.509 252.816 306.744 251.051 306.744 249.557C306.744 247.385 309.051 246.704 311.088 246.704H315.297V251.728C314.482 252.137 312.855 252.816 311.223 252.816ZM364.456 235.842V253.767C364.456 256.076 364.182 259.47 363.096 261.236C361.059 264.223 355.355 265.446 351.282 265.581L350.601 263.544C353.724 263.273 358.071 262.867 359.699 260.285C360.518 259.063 360.65 256.755 360.65 255.261V254.446C359.431 254.853 356.712 255.94 351.961 255.94C348.432 255.94 344.358 253.903 344.358 250.372V235.842H348.296V249.286C348.296 252.273 351.01 253.767 354.543 253.767C356.712 253.767 359.158 252.681 360.382 252.002V235.842H364.456Z" fill="#00976A"/>
<path fill-rule="evenodd" clip-rule="evenodd" d="M364.456 234.756H359.295V251.323C358.073 252.002 356.172 252.681 354.543 252.681C352.638 252.681 351.146 252.274 350.195 251.461C349.65 250.918 349.38 250.103 349.38 249.288V234.758H343.27V250.374C343.27 254.448 347.749 257.027 351.959 257.027C355.623 257.027 358.07 256.485 359.565 255.942C359.565 257.027 359.429 258.93 358.884 259.744C357.528 261.781 353.86 262.189 351.008 262.46L349.243 262.594L349.648 263.816L350.599 266.668H351.28C355.759 266.532 361.734 265.174 363.907 261.779C364.993 260.15 365.403 257.57 365.403 253.767V234.756H364.456ZM347.345 236.929V249.286C347.345 250.78 347.751 252.002 348.701 252.953C349.924 254.173 351.962 254.718 354.271 254.854H351.961C348.837 254.854 345.308 253.088 345.308 250.373V236.929H347.345ZM363.369 236.929V253.767C363.369 257.975 362.688 259.743 362.283 260.557C360.652 263.002 356.036 264.224 352.098 264.495C355.086 264.088 358.888 263.545 360.652 260.965C361.602 259.473 361.738 257.162 361.738 255.263V254.991L361.602 252.955L360.246 253.498H360.11C359.433 253.769 358.483 254.175 357.123 254.448C358.429 254.056 359.701 253.557 360.925 252.955L361.47 252.681V236.929H363.369ZM386.86 254.039L388.356 252.136C389.984 253.088 392.426 253.766 394.463 253.903C397.181 253.903 400.302 252.817 400.168 250.508C400.033 248.607 397.996 248.064 396.095 247.385C395.414 247.249 394.735 246.978 393.922 246.706C392.426 246.299 390.934 245.891 389.574 245.078C388.356 244.399 387.268 243.311 387.268 241.412C387.268 237.745 391.474 235.708 395.685 235.708C398.132 235.708 400.438 236.387 402.747 237.338L401.251 239.239C399.35 238.424 397.722 238.019 395.957 238.019C393.646 238.019 391.068 238.969 391.068 241.006C391.068 242.093 391.883 242.772 393.105 243.177C394.324 243.586 395.957 244.13 397.585 244.671C398.944 245.08 400.572 245.488 401.794 246.3C403.154 247.117 404.105 248.337 404.105 250.105C404.105 254.177 399.216 256.078 394.597 256.078C391.887 256.063 389.226 255.361 386.86 254.039Z" fill="#00976A"/>
<path fill-rule="evenodd" clip-rule="evenodd" d="M386.32 241.41C386.32 243.447 387.271 244.941 389.172 246.027C390.394 246.842 391.886 247.247 393.382 247.655L393.651 247.791C394.328 247.926 395.011 248.198 395.552 248.334L396.098 248.47C397.863 249.013 399.085 249.556 399.085 250.506C399.085 250.914 398.949 251.184 398.676 251.593C397.999 252.27 396.365 252.813 394.466 252.813C392.567 252.813 390.396 252.134 388.9 251.184L388.086 250.776L385.371 254.307L386.322 254.85C388.824 256.351 391.686 257.149 394.604 257.159C399.628 257.159 405.062 254.988 405.198 250.099C405.198 248.196 404.243 246.568 402.342 245.482C401.124 244.665 399.764 244.26 398.404 243.852L397.863 243.581L397.186 243.445C395.826 243.038 394.468 242.494 393.517 242.223C392.161 241.68 392.161 241.272 392.161 241.003C392.161 239.78 394.062 238.966 395.964 238.966C397.591 239.101 399.087 239.509 400.717 240.186L401.531 240.595L404.383 236.929L403.165 236.385C400.447 235.299 398.14 234.62 395.694 234.62C391.073 234.62 386.32 237.064 386.32 241.41ZM393.923 245.62C392.563 245.346 391.209 244.941 390.121 244.26C388.898 243.445 388.355 242.632 388.355 241.408C388.355 238.421 392.02 236.791 395.686 236.791C397.452 236.791 399.083 237.198 400.984 237.877L400.849 238.013C399.221 237.334 397.588 236.927 395.96 236.927C393.108 236.927 390.121 238.147 389.985 241.001C389.985 243.172 392.158 243.852 392.837 244.124C393.787 244.531 395.279 244.939 396.639 245.344L397.184 245.618L397.861 245.752C399.083 246.159 400.303 246.568 401.254 247.245C402.476 248.062 403.023 248.875 403.023 250.099C403.023 253.358 398.813 255.122 394.602 255.122C392.565 255.122 390.396 254.58 388.491 253.63C388.491 253.494 388.491 253.494 388.627 253.494C390.258 254.309 392.429 254.852 394.466 254.852C395.417 254.852 398.54 254.716 400.171 252.951C400.855 252.265 401.243 251.339 401.254 250.371C401.122 247.926 398.54 247.112 396.775 246.568L396.233 246.295C395.552 246.159 394.873 245.887 394.196 245.752L393.923 245.62ZM188.875 231.768C190.369 231.768 191.591 230.82 191.591 229.733C191.591 228.511 190.369 227.561 189.011 227.561C187.517 227.561 186.295 228.511 186.295 229.598V229.733C186.293 230.82 187.515 231.768 188.875 231.768Z" fill="#00976A"/>
<path fill-rule="evenodd" clip-rule="evenodd" d="M185.342 229.594V229.73C185.342 231.357 186.971 232.851 188.873 232.851C191.045 232.851 192.675 231.357 192.675 229.73C192.675 227.963 191.045 226.469 189.008 226.469C186.973 226.471 185.342 227.831 185.342 229.594ZM187.381 229.732V229.596C187.381 229.188 188.06 228.645 189.01 228.645C189.825 228.645 190.504 229.053 190.504 229.732C190.504 230.139 189.825 230.682 188.874 230.682C188.058 230.682 187.381 230.275 187.381 229.732ZM186.973 235.841H191.047V255.529H186.973V235.841ZM186.973 255.529V235.841V255.529Z" fill="#00976A"/>
<path fill-rule="evenodd" clip-rule="evenodd" d="M191.045 234.756H186.021V256.619H191.996V234.756H191.045ZM189.961 236.929V254.582H188.059V236.929H189.961Z" fill="#00976A"/>
</svg>
