<svg width="480" height="320" viewBox="0 0 480 320" fill="none" xmlns="http://www.w3.org/2000/svg">
<path d="M139.223 53.334H340.778V266.667H139.223V53.334Z" fill="#D71A21"/>
<path d="M248.885 106.232C247.613 107.873 246.919 109.889 246.911 111.966V129.967C246.817 131.331 246.3 132.6 245.454 133.681C244.984 134.151 242.211 136.642 241.976 136.924L243.527 136.971C244.044 136.501 249.402 131.754 249.919 131.096C251.47 129.404 252.363 127.195 252.363 124.892V107.595C252.341 106.722 252.492 105.853 252.806 105.039C253.121 104.224 253.594 103.48 254.197 102.848C254.854 102.143 256.923 100.404 257.298 99.9806L255.654 99.9336C255.325 100.357 249.449 105.668 248.885 106.232ZM235.678 171.705L242.211 177.393H246.582C250.765 177.393 254.807 175.748 257.769 172.787C260.448 170.108 261.435 166.488 261.435 163.104V153.751C261.388 151.636 260.494 149.614 258.897 148.205C258.614 147.923 256.688 146.089 256.688 146.089V153.28C256.688 153.28 258.803 155.443 259.179 155.866C261.106 157.934 261.106 161.694 254.948 167.664C253.867 168.697 250.813 171.611 246.583 171.611L235.678 171.705Z" fill="white"/>
<path d="M253.868 133.306C253.162 134.058 252.458 135.938 252.458 137.63V141.155H256.03C257.441 141.155 259.273 139.887 259.65 139.228V135.702C260.179 136.475 260.83 137.157 261.576 137.723C261.953 137.253 265.243 133.305 267.968 133.258C272.528 133.211 271.494 138.992 269.66 140.826C269.05 141.436 266.371 143.88 265.525 144.679C263.362 146.748 259.649 145.761 259.649 140.449C259.649 140.449 255.701 144.21 255.09 144.726C254.479 145.243 252.458 147.405 252.458 147.405V156.759C252.458 161.224 251.001 162.728 249.778 164.092C249.308 164.608 244.28 169.215 243.575 169.731L241.929 169.779C241.929 169.779 244.89 167.099 245.455 166.489C246.112 165.783 246.912 164.373 246.912 162.023C246.912 161.412 246.818 147.358 246.818 147.358H223.88C215.89 147.358 214.198 138.523 214.151 136.125V127.243C214.151 125.786 213.211 123.342 211.754 122.59H214.011C214.292 122.683 215.702 123.247 215.702 128.699C215.702 128.699 215.608 134.998 215.608 135.374C215.608 138.147 217.817 141.296 220.967 141.296L246.911 141.249C246.911 140.543 247.617 137.912 248.886 136.502C249.591 135.703 255.184 130.627 255.795 130.11H257.44C257.205 130.345 254.479 132.742 253.915 133.4L253.868 133.306ZM262.376 138.617C263.047 139.532 263.786 140.396 264.585 141.202C267.405 143.458 268.721 141.014 266.841 138.476C266.088 137.443 263.221 137.724 262.375 138.617H262.376Z" fill="white"/>
<path d="M234.55 155.349C234.55 156.617 230.555 159.955 230.32 160.143C230.039 158.78 229.004 157.323 226.043 154.314L230.414 149.944C233.375 152.905 234.55 153.564 234.55 155.349ZM242.165 105.104C243.058 105.997 244.937 108.347 243.81 109.522C242.958 110.379 242.112 111.241 241.271 112.107C241.177 111.543 239.721 110.133 239.721 110.133V114.881C239.674 116.807 238.968 117.325 238.968 117.325C238.968 117.325 242.493 120.802 242.493 125.315V129.921C242.514 130.353 242.446 130.785 242.292 131.189C242.138 131.593 241.903 131.962 241.601 132.271C241.271 132.647 238.029 135.938 237.511 136.36C236.759 137.018 235.82 137.394 234.832 137.347H222.66C220.733 137.347 218.759 135.843 218.759 134.339C218.759 133.963 218.806 129.827 218.806 129.827C219.416 130.532 220.074 131.378 221.578 131.378C222.8 131.378 224.022 130.438 224.352 130.062C224.681 129.686 233.564 120.473 233.564 120.473C233.564 120.473 229.428 116.619 226.703 114.786C225.386 113.894 223.6 115.022 223.318 116.197C222.472 119.863 223.318 125.409 223.318 125.409L219.981 122.072C218.618 120.709 218.665 117.654 220.309 116.056C220.544 115.773 223.036 113.047 226.138 113.047H230.979C234.222 113.047 237.794 116.291 237.794 116.291C238.076 115.961 238.265 115.585 238.312 115.162C238.312 113.47 238.265 109.005 238.265 109.005C235.82 106.561 235.491 104.023 236.666 102.848C238.875 100.639 239.675 99.8867 239.675 99.8867C239.675 99.8867 239.581 102.566 242.166 105.104H242.165ZM226.889 129.545C225.667 130.813 225.479 131.096 224.351 131.801H238.076C241.789 131.801 241.037 129.498 240.379 128.323C239.015 125.926 234.692 121.507 234.692 121.507C234.692 121.507 227.124 129.31 226.889 129.545Z" fill="white"/>
<path d="M211.237 142.047H208.981C208.981 142.047 211.379 143.363 211.379 146.794V157.745C211.379 164.842 217.254 171.423 224.398 171.423H230.367C233.939 171.423 235.208 170.576 237.371 168.65C238.169 167.944 239.203 166.769 239.58 166.347C240.802 164.936 242.165 163.809 242.165 160.142V156.57C242.165 153.468 240.378 152.199 239.486 151.306C238.8 150.629 238.11 149.955 237.418 149.285V156.617C237.418 156.617 238.921 158.215 239.58 158.732C242.681 161.176 240.237 165.407 237.324 165.407H224.21C219.415 165.5 212.883 161.223 212.883 153.984V148.063C212.929 142.047 211.237 142.047 211.237 142.047H211.237Z" fill="white"/>
<path d="M225.619 155.396C225.619 156.664 221.624 160.002 221.39 160.19C221.108 158.827 220.074 157.37 217.112 154.361L221.484 149.99C224.398 152.905 225.619 153.562 225.619 155.396ZM179.792 204.043H172.742C170.533 204.043 170.721 202.21 170.486 200.658V190.6C170.486 190.6 172.038 190.553 173.776 190.553C175.704 190.553 178.148 190.271 180.498 191.587C179.9 190.323 178.944 189.262 177.75 188.535C176.555 187.809 175.173 187.448 173.776 187.498H170.533V184.255C170.533 184.255 170.533 181.434 169.828 180.635H174.481C178.477 180.635 181.579 180.588 184.822 182.703C184.822 182.703 184.211 177.393 176.456 177.393H161.321C161.321 177.393 163.953 179.649 163.859 184.208L163.953 202.538C163.953 207.145 165.786 207.285 165.786 207.285H180.686C184.07 207.285 185.245 204.888 185.245 203.573L185.292 201.834C185.292 201.834 184.211 204.043 179.792 204.043ZM219.462 202.491V189.66C219.462 184.678 215.42 183.361 212.365 183.361C208.37 183.361 207.148 186.699 206.631 187.874C205.737 184.772 202.589 183.362 200.051 183.362C195.209 183.362 193.986 187.968 193.986 187.968C193.986 187.968 193.893 183.503 189.992 183.503H186.185C186.185 183.503 188.394 184.396 188.394 188.25V202.491C188.394 207.191 190.274 207.285 190.274 207.285H196.573C195.068 206.157 194.175 204.371 194.175 202.444V189.801C194.27 189.237 195.209 187.357 197.888 187.357C199.439 187.357 201.131 188.955 201.084 190.741V202.491C201.084 207.238 202.965 207.285 202.965 207.285H209.262C207.759 206.11 206.865 204.371 206.865 202.444V189.801C207.16 188.911 207.795 188.174 208.632 187.751C209.469 187.328 210.44 187.254 211.331 187.544C212.741 188.015 213.728 189.284 213.775 190.788V202.491C213.822 207.285 215.655 207.238 215.655 207.238H221.954C221.2 206.694 220.582 205.982 220.15 205.158C219.717 204.334 219.482 203.421 219.462 202.491ZM230.461 202.491C230.462 203.421 230.679 204.338 231.095 205.17C231.511 206.002 232.114 206.726 232.858 207.285H226.559C226.559 207.285 224.633 207.332 224.633 202.538V188.203C224.633 184.443 222.471 183.456 222.471 183.456H226.278C227.64 183.456 230.414 183.456 230.414 188.767V202.398L230.461 202.491ZM249.825 185.289C249.825 185.289 249.215 183.597 246.629 183.597C242.682 183.597 241.741 188.297 241.741 188.297C241.412 184.584 240.425 183.503 237.652 183.503H233.845C233.845 183.503 236.053 184.396 236.053 188.25V202.491C236.053 207.191 237.935 207.285 237.935 207.285H244.232C243.489 206.726 242.886 206.002 242.47 205.17C242.054 204.338 241.837 203.421 241.835 202.491V190.788C241.976 189.801 242.541 188.908 243.387 188.391C245.501 186.981 248.275 187.404 249.919 189.331L249.825 185.289ZM279.108 186.135C280.423 186.135 281.693 186.464 282.821 187.075V183.503H277.557V178.05C276.429 179.837 274.972 181.435 273.326 182.797C271.541 184.255 267.781 186.088 267.781 186.088L271.776 186.135V202.679C271.776 207.285 273.703 207.285 273.703 207.285H279.954C279.216 206.75 278.612 206.052 278.188 205.245C277.764 204.438 277.532 203.544 277.51 202.632V186.135H279.108ZM298.191 193.326C294.666 196.992 291.892 196.428 289.682 199.154C289.682 199.154 290.06 202.82 292.832 204.09C293.773 204.513 297.673 205.923 300.164 201.598V205.453C300.164 205.453 298.567 207.332 293.443 207.332C287.286 207.332 283.056 202.491 283.056 195.911C283.056 189.425 286.487 183.456 293.02 183.409C299.366 183.315 302.844 188.485 298.191 193.326ZM294.336 191.822C295.37 189.895 296.217 185.007 292.645 185.289C288.508 185.618 289.307 196.569 289.307 196.569C290.67 195.066 292.738 194.736 294.336 191.822ZM227.547 181.576C229.144 181.528 230.367 180.212 230.367 178.662C230.32 177.063 229.003 175.841 227.452 175.841C225.902 175.888 224.633 177.157 224.633 178.709C224.633 180.306 225.949 181.575 227.547 181.575V181.576ZM256.359 204.56C254.949 204.56 253.915 203.056 253.915 201.551C253.915 195.629 258.756 194.784 260.072 193.232V203.244C259.461 203.714 258.897 204.56 256.36 204.56H256.359ZM260.072 190.928C258.615 193.467 247.241 194.031 248.979 202.82C249.685 206.298 251.988 207.332 254.902 207.332C257.722 207.332 259.461 205.876 260.166 204.466C260.589 207.098 261.952 207.285 261.952 207.285H268.25C266.747 206.157 265.806 204.419 265.806 202.538V189.144C265.806 185.948 262.281 183.457 258.521 183.457C256.429 183.409 254.375 184.017 252.646 185.195V189.332C252.646 189.332 253.962 186.042 257.205 186.042C260.401 186.042 260.636 187.639 260.636 188.439C260.683 189.285 260.542 190.178 260.072 190.93V190.928ZM312.103 200.8C312.15 202.491 310.646 204.701 307.45 204.701C304.16 204.701 302.844 201.363 302.844 201.363V205.594C304.63 206.722 306.699 207.285 308.813 207.285C313.09 207.285 317.461 204.043 317.367 199.483C317.321 197.987 316.812 196.542 315.911 195.347C314.453 193.42 311.82 192.057 309.753 190.788C308.578 190.083 307.967 188.767 307.967 188.344C307.92 187.544 308.343 185.947 311.492 185.947C314.595 185.947 315.958 189.237 315.958 189.237V185.241C314.218 184.019 312.103 183.362 309.941 183.362C306.18 183.362 302.75 185.853 302.844 189.049C302.891 191.869 304.066 193.656 306.369 195.394C307.404 196.139 308.488 196.814 309.612 197.415C311.398 198.403 312.056 199.624 312.103 200.8Z" fill="white"/>
</svg>
