<svg width="480" height="320" viewBox="0 0 480 320" fill="none" xmlns="http://www.w3.org/2000/svg">
<path d="M338.434 86.3672C342.717 87.1782 355.981 89.8044 360.271 90.5811C360.565 90.6362 360.851 90.7319 361.254 90.8379C359.604 92.8809 357.836 94.6973 356.053 96.4939C344.577 108.045 331.993 118.307 318.967 128.034C301.215 141.297 282.671 153.32 263.067 163.674C248.652 171.285 233.811 177.906 218.117 182.472C214.658 183.477 211.161 184.348 207.635 185.084C207.455 185.12 207.25 185.094 207.15 185.303C207.095 185.821 206.695 185.937 206.291 186.078C205.48 186.36 204.645 186.323 203.813 186.33C202.334 186.345 200.86 186.335 199.378 186.499C198.608 186.583 197.694 186.84 197.086 185.989C200.38 185.469 203.688 185.043 206.949 184.313C217.457 181.951 227.367 178.005 236.922 173.1C253.798 164.433 269.012 153.335 283.507 141.183C294.426 132.032 304.773 122.261 314.761 112.108" fill="#D21C2D"/>
<path d="M197.087 185.991C200.432 185.632 203.839 186.145 207.151 185.305C208.189 185.503 209.22 185.309 210.242 185.203C213.449 184.876 216.651 184.509 219.852 184.161C220.032 184.047 220.248 184.022 220.332 184.223C220.44 184.483 220.208 184.638 220.006 184.722C219.328 185.008 218.594 185.074 217.883 185.199C215.972 185.54 214.068 185.925 212.146 186.197C205.893 187.179 199.625 188.074 193.323 188.698C183.244 189.696 173.132 190.249 163.008 190.538C152.692 190.826 142.37 190.871 132.051 190.675C118.894 190.426 105.742 189.915 92.605 189.142C80.5652 188.434 68.5358 187.593 56.5231 186.512C56.1457 186.478 55.7641 186.471 55.3867 186.453V171.188C64.4443 173.062 73.5345 174.775 82.6529 176.327C92.4095 177.98 102.195 179.477 112.004 180.787C121.739 182.098 131.502 183.205 141.284 184.106C150.086 184.91 158.906 185.502 167.736 185.881C176.076 186.24 184.421 186.292 192.769 186.178C194.211 186.16 195.649 186.057 197.086 185.991" fill="#AB1B2C"/>
<path d="M389.84 94.1816C392.004 94.3251 397.212 94.8387 397.619 94.8751C407.596 95.7734 411.077 95.9647 421.054 96.8402C422.146 96.94 423.5 97.0762 424.615 97.1708C423.525 98.066 423.837 97.8279 423.525 98.066C409.298 108.934 394.267 118.588 378.789 127.559C351.805 143.191 323.661 156.326 294.209 166.615C271.96 174.383 249.259 180.398 225.99 184.217C221.387 184.972 216.788 185.739 212.145 186.197C214.418 185.677 216.692 185.156 218.966 184.631C219.292 184.554 219.612 184.436 219.931 184.333C219.938 184.33 219.941 184.264 219.928 184.239C219.913 184.205 219.88 184.187 219.851 184.162C222.821 183.586 225.803 183.043 228.767 182.434C246.6 178.766 263.74 172.956 280.38 165.624C305.564 154.529 328.909 140.286 351.207 124.251" fill="#D21C2D"/>
<path d="M262.202 216.474C262.301 217.388 262.356 218.304 262.51 219.211C264.08 228.549 274.621 233.332 282.389 228.098C287.401 224.723 288.948 219.72 288.093 213.903C286.982 206.355 279.686 201.426 272.274 203.145C266.251 204.547 262.275 209.84 262.201 216.474M272.663 233.633C271.888 233.428 271.111 233.241 270.344 233.02C262.657 230.801 257.976 223.836 258.398 215.25C258.813 206.825 265.657 199.805 273.884 199.368C283.281 198.866 290.65 204.664 292.003 213.544C293.521 223.494 287.143 232.114 278.142 233.453C278 233.476 277.863 233.57 277.724 233.633H272.663ZM303.056 216.801C306.856 216.801 310.541 216.922 314.209 216.738C315.681 216.666 317.232 216.13 318.549 215.434C320.859 214.208 321.824 212.059 321.666 209.469C321.508 206.932 320.188 205.104 317.822 204.232C316.531 203.762 315.173 203.498 313.799 203.45C310.582 203.34 307.358 203.414 304.134 203.418C303.771 203.418 303.408 203.45 302.997 203.469C302.997 207.797 302.993 211.973 302.997 216.156C302.997 216.339 303.031 216.522 303.056 216.801ZM316.55 219.6L326.684 233.105C325.077 233.105 323.716 233.156 322.363 233.068C322.045 233.049 321.695 232.617 321.461 232.302C318.674 228.593 315.882 224.889 313.146 221.144C312.632 220.44 312.101 220.183 311.246 220.202C308.565 220.257 305.88 220.222 303.041 220.222V233.035H299.286V199.999C299.38 199.947 299.447 199.885 299.512 199.885C304.879 199.926 310.245 199.926 315.607 200.057C316.807 200.083 318.031 200.45 319.176 200.861C323.383 202.376 325.601 205.747 325.477 210.258C325.36 214.483 322.792 217.718 318.479 219.064C317.899 219.244 317.309 219.387 316.55 219.6ZM87.1633 199.848C88.1936 199.848 89.1554 199.767 90.09 199.885C90.5007 199.94 90.9488 200.329 91.2306 200.684C96.3875 207.217 101.524 213.764 106.665 220.308C108.202 222.262 109.743 224.21 111.478 226.411V199.921H115.082V232.991C113.329 233.35 112.042 233.093 110.821 231.501C104.516 223.29 98.0604 215.194 91.6569 207.059C91.4437 206.792 91.2129 206.542 90.7939 206.058V233.053H87.1633V199.848ZM128.382 229.509C131.727 229.509 134.951 229.7 138.149 229.47C144.821 228.988 149.495 223.866 149.846 216.929C150.177 210.462 145.716 204.701 139.287 203.739C136.315 203.295 133.249 203.5 130.227 203.417C129.629 203.402 129.028 203.417 128.382 203.417V229.509ZM124.531 216.36C124.531 211.262 124.549 206.164 124.513 201.066C124.505 200.138 124.736 199.8 125.723 199.826C130.01 199.936 134.327 199.698 138.586 200.101C145.136 200.721 150.18 203.97 152.572 210.276C154.971 216.599 154.032 222.607 149.406 227.723C146.094 231.391 141.723 232.946 136.869 233.093C133.117 233.203 129.358 233.086 125.602 233.134C124.703 233.144 124.513 232.817 124.517 232C124.546 226.788 124.531 221.576 124.531 216.36ZM59.0965 203.309V214.624H77.1021V218.067H59.031V220.133C59.031 222.854 59.0778 225.579 59.005 228.301C58.9717 229.386 59.2441 229.739 60.3805 229.727C66.2486 229.672 72.1177 229.702 77.9858 229.702H79.4352V233.033H55.3848V199.931H79.2148V203.309H59.0965ZM161.754 199.899H185.569V203.299H165.465V214.614H183.461V218.059H165.481C165.444 218.532 165.396 218.866 165.396 219.196C165.388 222.303 165.429 225.414 165.371 228.516C165.352 229.503 165.686 229.726 166.614 229.719C172.523 229.683 178.428 229.7 184.337 229.7H185.793V233.027H161.755L161.754 199.899ZM207.443 204.073C204.879 209.802 202.419 215.296 199.921 220.882H214.929L207.443 204.073ZM190.59 233.115C192.347 229.219 193.99 225.558 195.648 221.902C198.835 214.856 202.053 207.824 205.196 200.76C205.609 199.825 206.131 199.663 207.069 199.568C208.749 199.396 209.508 200.035 210.183 201.564C214.713 211.782 219.36 221.949 223.967 232.135C224.088 232.403 224.175 232.685 224.338 233.111C223.072 233.111 221.932 233.166 220.803 233.074C220.508 233.048 220.141 232.627 219.992 232.3C218.92 229.969 217.88 227.624 216.873 225.265C216.598 224.616 216.264 224.345 215.524 224.348C210.118 224.381 204.711 224.381 199.3 224.348C198.56 224.345 198.248 224.624 197.97 225.276C196.976 227.598 195.876 229.876 194.892 232.205C194.584 232.931 194.188 233.188 193.425 233.129C192.556 233.063 191.678 233.115 190.59 233.115ZM239.377 228.422C240.554 225.601 241.648 222.996 242.729 220.389C245.425 213.882 248.128 207.379 250.799 200.861C251.099 200.123 251.441 199.747 252.295 199.827C253.205 199.911 254.129 199.845 255.222 199.845C255.064 200.3 254.965 200.652 254.826 200.986C250.395 211.373 245.947 221.757 241.545 232.155C241.156 233.072 240.701 233.424 239.692 233.37C237.165 233.23 237.862 233.809 236.843 231.44C232.477 221.273 228.15 211.091 223.81 200.912C223.678 200.608 223.575 200.288 223.411 199.848C224.709 199.848 225.894 199.776 227.056 199.893C227.394 199.93 227.795 200.465 227.959 200.857C231.135 208.49 234.282 216.137 237.441 223.778C238.049 225.256 238.673 226.731 239.377 228.422ZM393.398 202.376V217.01C397.77 217.01 402.059 217.088 406.343 216.963C407.564 216.93 408.826 216.454 409.966 215.95C413.018 214.601 414.537 211.766 414.115 208.494C413.723 205.426 411.609 202.948 408.088 202.629C403.265 202.192 398.383 202.372 393.527 202.291C393.497 202.291 393.465 202.332 393.398 202.376ZM417.855 233.027C417.537 233.083 417.46 233.094 417.386 233.109C415.545 233.431 414.319 232.771 413.197 231.19C410.535 227.437 407.618 223.869 404.846 220.201C404.355 219.552 403.841 219.302 403.026 219.314C399.847 219.362 396.666 219.332 393.362 219.332V233.024H390.911V199.805C396.876 200.094 402.825 199.295 408.711 200.336C411.21 200.776 413.403 201.987 414.97 204.103C418.09 208.314 416.909 214.512 412.354 217.095C410.784 217.986 408.979 218.47 407.179 219.185C410.63 223.664 414.191 228.278 417.856 233.027M362.809 221.494C359.904 215.104 357.072 208.883 354.131 202.418C351.153 208.947 348.318 215.152 345.423 221.494H362.809ZM370.772 232.937C370.596 233.037 370.567 233.066 370.533 233.069C368.194 233.286 368.197 233.282 367.232 231.162C366.272 229.035 365.27 226.925 364.35 224.781C364.049 224.087 363.686 223.808 362.901 223.812C357.04 223.845 351.171 223.849 345.306 223.808C344.503 223.804 344.162 224.123 343.872 224.795C342.922 226.97 341.925 229.12 340.953 231.283C340.027 233.326 340.031 233.326 337.582 232.996C338.547 230.887 339.485 228.811 340.443 226.742C344.422 218.126 348.405 209.515 352.389 200.903C352.987 199.611 353.574 199.285 354.978 199.655C355.319 199.748 355.638 200.227 355.814 200.598C359.251 207.989 362.67 215.391 366.089 222.788C367.644 226.149 369.191 229.515 370.772 232.937ZM380.573 233.056H378.257V199.924H380.572L380.573 233.056Z" fill="#002D52" fill-opacity="0.9843"/>
</svg>
