<svg width="480" height="320" viewBox="0 0 480 320" fill="none" xmlns="http://www.w3.org/2000/svg">
<path d="M89.1814 115.217C65.341 115.217 55.3848 134.089 55.3848 148.9C55.3848 166.191 66.7192 182.06 88.2663 182.06C106.718 182.06 113.295 170.761 118.34 160.687L116.247 159.193C110.706 164.811 103.236 168.841 93.1107 168.841C79.6681 168.841 71.2244 161.529 70.6468 147.99H119.876C118.814 124.048 105.749 115.217 89.1814 115.217V115.217ZM87.8214 123.019C95.696 123.019 102.515 127.915 103.001 138.891H70.9054C73.3444 127.817 79.8774 123.019 87.8216 123.019H87.8214ZM150.483 181.076H133.277V137.068C133.277 129.133 131.603 126.818 127.774 126.839L127.284 125.843L149.063 114.217C149.944 113.724 150.483 114.062 150.483 114.734V124.66C153.911 120.904 161.711 115.055 173.69 115.055C182.329 115.055 195.979 118.967 195.979 137.927V181.076H178.773V141.205C178.773 134.115 175.826 127.142 165.041 127.142C156.551 127.142 150.483 132.543 150.483 140.874V181.076ZM243.823 181.076H233.566L206.97 123.809C205.51 120.822 203.438 119.028 200.777 118.539V117.381H222.369C223.382 117.381 223.526 117.689 224.018 118.741L242.175 161.604L260.667 117.381H274.997V118.438C271.901 119.37 269.28 121.848 267.466 126.238L243.823 181.076ZM308.795 115.046C288.088 115.046 273.887 129.39 273.887 148.967C273.887 164.721 283.187 182.071 307.497 182.071C331.453 182.071 342.886 166.135 342.886 148.305C342.886 129.362 330.336 115.046 308.795 115.046ZM307.549 123.044C307.674 123.041 307.796 123.044 307.921 123.044C316.928 123.044 324.631 131.529 324.631 149.592C324.631 167.336 317.944 174.223 309.555 174.223C299.93 174.223 292.085 163.766 292.085 147.033C292.085 129.75 299.679 123.243 307.549 123.044Z" fill="#260E62"/>
<path d="M374.127 181.076L347.531 123.809C346.071 120.822 343.999 119.028 341.338 118.539V117.381H362.93C363.943 117.381 364.088 117.689 364.579 118.741L382.736 161.604L389.557 145.292L402.864 138.179L383.53 182.753C378.98 192.72 376.131 196.21 372.676 199.603C369.615 202.501 363.213 206.017 352.402 206.017C348.704 206.017 346.059 205.605 346.059 205.605V197.397C346.059 197.397 349.023 197.84 352.323 197.84C358.004 197.84 360.713 197.302 364.523 194.461C368.301 191.652 371.707 186.204 374.127 181.076Z" fill="#260E62"/>
<path d="M393.961 134.757L401.226 117.381H424.615V118.438L393.961 134.757Z" fill="#A71A2D"/>
</svg>
