<svg width="480" height="320" viewBox="0 0 480 320" fill="none" xmlns="http://www.w3.org/2000/svg">
<path d="M363.372 153.192C362.477 153.392 361.607 153.587 360.774 153.775C354.473 155.187 350.076 156.175 349.65 156.273C349.603 156.282 349.557 156.291 349.507 156.299C349.457 156.307 349.406 156.313 349.356 156.318C349.302 156.322 349.249 156.326 349.195 156.328C348.894 156.335 348.593 156.32 348.294 156.282C348.021 156.248 347.749 156.206 347.479 156.154C347.191 156.098 346.904 156.037 346.618 155.971C346.328 155.905 346.033 155.834 345.742 155.764C345.449 155.692 345.161 155.62 344.879 155.554C344.61 155.49 344.339 155.429 344.068 155.372C343.809 155.318 343.563 155.275 343.336 155.243C343.13 155.214 342.923 155.198 342.715 155.196C342.297 155.229 341.88 155.275 341.464 155.335C341.265 155.363 341.072 155.392 340.885 155.422C340.697 155.453 340.516 155.483 340.339 155.513C341.429 156.219 346.181 159.302 353.061 163.765L361.79 169.427C363.854 166.567 365.013 163.373 365.013 160.002C365.013 157.624 364.432 155.338 363.372 153.192ZM346.448 141.532C345.774 143.896 345.101 146.259 344.427 148.623C344.345 148.907 344.062 149.206 343.673 149.511C343.282 149.816 342.784 150.128 342.277 150.433C341.767 150.741 341.249 151.045 340.822 151.332C340.391 151.621 340.052 151.893 339.908 152.138C339.845 152.245 339.786 152.36 339.727 152.477C339.668 152.594 339.61 152.716 339.551 152.84C339.441 153.084 339.337 153.33 339.239 153.579C340.598 153.285 346.331 152.045 354.032 150.38C356.073 149.939 358.25 149.468 360.508 148.98C357.288 145.324 352.519 142.326 346.781 140.368C346.667 140.762 346.556 141.154 346.448 141.532ZM325.078 142.704C329.467 145.485 332.592 147.465 332.899 147.659C333.207 147.854 333.428 148.173 333.603 148.557C333.78 148.944 333.907 149.395 334.026 149.851C334.145 150.311 334.253 150.772 334.389 151.175C334.527 151.578 334.69 151.921 334.921 152.133C335.021 152.226 335.128 152.32 335.242 152.416C335.356 152.513 335.476 152.61 335.598 152.706C335.721 152.803 335.847 152.9 335.973 152.995C336.098 153.089 336.224 153.182 336.345 153.272L339.691 143.283C340.166 141.868 340.667 140.375 341.177 138.851C337.99 138.204 334.6 137.855 331.087 137.855C327.022 137.855 323.126 138.323 319.514 139.178L325.078 142.704ZM325.35 154.138C325.397 154.128 325.444 154.12 325.494 154.112C325.543 154.105 325.594 154.1 325.645 154.095C325.697 154.091 325.749 154.087 325.802 154.085C325.855 154.083 325.911 154.081 325.967 154.081C326.19 154.081 326.431 154.1 326.682 154.13C326.944 154.162 327.206 154.205 327.465 154.257C327.735 154.309 328.013 154.371 328.294 154.436C328.574 154.502 328.857 154.572 329.138 154.641C329.417 154.71 329.692 154.781 329.962 154.846C330.231 154.911 330.494 154.973 330.745 155.025C330.981 155.076 331.219 155.118 331.459 155.152C331.682 155.182 331.89 155.2 332.075 155.2C332.302 155.182 332.521 155.161 332.734 155.138C333.137 155.092 333.539 155.037 333.939 154.971C334.128 154.94 334.31 154.908 334.485 154.877C333.448 154.189 329.133 151.326 323.5 147.586C320.203 145.397 316.905 143.209 313.609 141.019C303.754 144.894 297.162 151.944 297.162 160.002C297.162 160.042 297.167 160.084 297.167 160.125C303.28 158.827 308.941 157.624 313.542 156.647C317.478 155.81 321.414 154.974 325.35 154.138ZM352.488 170.478C346.658 166.511 342.832 163.907 342.47 163.662C342.11 163.417 341.838 163.018 341.617 162.543C341.396 162.074 341.227 161.532 341.072 160.992C340.917 160.458 340.777 159.925 340.61 159.47C340.446 159.017 340.258 158.639 340.006 158.405C339.894 158.298 339.779 158.194 339.66 158.094C339.539 157.989 339.412 157.884 339.28 157.779C339.151 157.674 339.019 157.571 338.886 157.47C338.755 157.369 338.623 157.271 338.497 157.177C338.136 158.342 336.689 163.007 334.56 169.867C333.481 173.348 332.193 177.5 330.754 182.141C330.865 182.141 330.976 182.145 331.087 182.145C341.764 182.145 351.285 178.924 357.504 173.891C355.697 172.661 354.016 171.517 352.488 170.478ZM333.806 159.219C334.275 158.896 334.643 158.593 334.806 158.321C334.873 158.211 334.937 158.093 335 157.973C335.065 157.851 335.128 157.727 335.188 157.602C335.249 157.477 335.308 157.352 335.364 157.225C335.422 157.1 335.477 156.975 335.529 156.854C334.103 157.166 328.023 158.505 319.49 160.383C313.393 161.725 305.981 163.357 298.075 165.096C300.973 173.125 310.555 179.467 322.784 181.476C324.049 177.968 325.181 174.827 326.131 172.187C328.203 166.441 329.535 162.742 329.661 162.395C329.785 162.05 330.132 161.689 330.591 161.326C331.048 160.965 331.616 160.6 332.19 160.243C332.76 159.889 333.333 159.544 333.806 159.219Z" fill="#FE5000"/>
<path d="M55.3848 141.936H91.868V149.674H65.611V155.017H90.4858V161.927H65.611V167.271H92.4653V175.285H55.3848V141.936ZM97.7225 141.936H128.585C136.463 141.936 138.582 145.851 138.582 151.84V153.959C138.582 158.427 137.569 161.051 132.87 162.157V162.249C135.909 162.803 138.443 164.138 138.443 169.62V175.284H128.218V171.277C128.218 167.778 127.204 166.626 124.026 166.626H107.949V175.284H97.7225V141.936ZM107.949 158.335H124.855C127.619 158.335 128.632 157.229 128.632 154.834V153.728C128.632 150.78 127.158 150.227 123.935 150.227H107.949V158.335Z" fill="#4B4F54"/>
<path fill-rule="evenodd" clip-rule="evenodd" d="M144.207 141.936H154.434V175.287H144.207V141.936Z" fill="#4B4F54"/>
<path d="M160.238 153.635C160.238 143.869 165.719 141.566 174.934 141.566H186.956C201.511 141.566 203.402 144.698 203.308 154.141H193.083V153.22C193.083 150.826 191.331 150.134 188.292 150.134H177.143C171.755 150.134 170.741 152.667 170.741 156.813V160.407C170.741 165.243 171.755 167.086 176.591 167.086H187.509C192.116 167.086 193.498 166.625 193.498 162.479H203.723V165.612C203.723 171.232 201.696 175.653 191.425 175.653H174.934C165.719 175.653 160.238 173.351 160.238 163.585V153.635ZM208.06 141.935H218.286V154.187H223.077L235.974 141.935H249.886L231.828 158.241L252.005 175.284H237.54L222.8 162.477H218.286V175.284H208.06V141.935Z" fill="#4B4F54"/>
<path d="M250.629 164.367H260.856C260.901 167.914 262.329 168.191 265.277 168.191H277.807C279.971 168.191 282.183 167.961 282.183 165.381C282.183 162.478 280.984 162.295 267.811 162.295C252.426 162.295 250.675 160.453 250.675 152.253C250.675 146.218 251.228 141.566 264.126 141.566H278.406C290.198 141.566 291.303 145.574 291.303 151.424V152.484H281.077C281.077 150.043 280.801 149.029 276.102 149.029H264.77C262.468 149.029 260.901 149.812 260.901 151.608C260.901 154.511 262.146 154.601 273.108 154.556C289 154.511 292.686 155.478 292.686 165.198C292.686 174.179 289.645 175.652 276.056 175.652H263.666C254.361 175.652 250.629 173.903 250.629 166.671V164.367ZM370.042 141.935H385.889L405.097 166.164H405.188V141.935H415.416V175.285H399.569L380.361 151.055H380.27V175.285H370.042V141.935ZM419.602 141.736H418.735V139.135H418.018V138.4H420.318V139.135H419.602V141.736ZM421.001 138.4H421.857L422.532 140.183L423.247 138.4H424.111L424.616 141.736H423.749L423.506 139.816H423.498L422.698 141.736H422.351L421.587 139.816H421.576L421.3 141.736H420.436L421.001 138.4Z" fill="#4B4F54"/>
</svg>
