<svg width="480" height="320" viewBox="0 0 480 320" fill="none" xmlns="http://www.w3.org/2000/svg">
<path d="M281.389 198.694H290.48V152.867H281.389V198.694ZM365.937 179.425H392.849V177.019C392.849 161.728 382.909 152.514 369.859 152.514C357.006 152.514 346.593 162.933 346.593 175.782C346.593 189.759 357.006 199.046 369.859 199.046C378.784 199.046 385.313 195.1 389.532 189.186L382.475 184.386C379.913 188.372 375.362 190.798 369.859 190.798C361.961 190.798 355.837 184.887 355.837 175.782C355.837 166.672 361.961 160.762 369.859 160.762C376.422 160.762 381.962 164.862 382.939 171.202H365.937V179.425ZM271.836 191.233C266.824 191.233 264.549 189.915 264.549 183.984V131.715H255.318V186.617C255.318 190.462 256.396 193.521 258.766 195.695C260.591 197.376 263.196 199.093 269.086 199.093C272.686 199.093 275.323 198.678 276.796 198.389V190.609C274.724 191.099 273.495 191.233 271.835 191.233M192.139 179.425H218.634V177.019C218.634 161.728 208.83 152.514 195.786 152.514C182.933 152.514 172.795 162.933 172.795 175.782C172.795 189.759 183.212 199.046 196.061 199.046C204.987 199.046 211.524 195.1 215.74 189.186L208.681 184.386C206.116 188.372 201.565 190.798 196.061 190.798C188.167 190.798 182.039 184.887 182.039 175.782C182.039 166.672 187.886 160.762 195.786 160.762C202.347 160.762 207.746 164.862 208.729 171.202H192.139V179.425ZM424.615 147.658H420.689C407.645 147.658 397.704 138.446 397.704 123.153V120.749H424.616L424.615 147.658ZM424.615 152.515H420.689C407.645 152.515 397.704 161.728 397.704 177.02V179.427H424.616L424.615 152.515ZM392.848 120.748V123.155C392.848 138.446 382.908 147.658 369.858 147.658H365.936V120.748H392.848ZM99.0764 141.114V131.716H55.3848V198.694H99.0764V189.298H65.9614V169.314H97.69V159.915H65.963V141.114H99.0764ZM123.235 199.216C116.265 199.529 108.641 197.872 103.878 195.13V195.125L106.652 186.919C110.747 189.321 115.869 191.01 121.003 191.078C127.337 191.169 130.753 189.329 130.718 185.771C130.68 182.838 128.711 181.494 118.87 179.39C109.104 177.304 104.151 173.227 104.234 165.416C104.318 157.398 110.803 152.303 122.17 152.083C128.855 151.955 135.063 153.692 138.383 155.752L135.746 163.563C132.156 161.619 128.336 160.016 122.722 160.094C117.073 160.176 114.273 161.976 114.182 165.137C114.08 168.705 117.065 169.777 125.378 171.375C135.893 173.401 140.684 177.379 140.545 185.083C140.406 192.964 134.399 198.717 123.236 199.216M166.513 191.233C161.496 191.233 159.22 189.915 159.22 183.984V160.811H170.79V152.866H159.22V140.474H149.993V152.866H142.7V160.811H149.993V186.617C149.993 190.462 151.072 193.521 153.438 195.695C155.267 197.376 157.869 199.093 163.758 199.093C167.361 199.093 169.998 198.678 171.468 198.389V190.609C169.393 191.099 168.167 191.233 166.513 191.233ZM245.679 152.591C239.766 152.977 236.27 155.822 234.115 159.996V152.867H225.302V198.695H234.395V172.482C234.395 165.441 238.731 161.843 245.419 161.035C247.038 160.837 249.726 160.959 251.343 161.284V152.867C249.919 152.627 247.56 152.465 245.679 152.592M322.772 152.514C316.505 152.514 311.25 155.17 308.228 159.154V152.865H299.691V198.695H308.506V171.138C309.831 165.369 313.686 161.322 320.718 161.322C328.808 161.322 331.421 167.329 331.421 172.506V198.695H340.373V169.733C340.373 159.946 333.362 152.515 322.772 152.515" fill="#1E59AE"/>
<path d="M387.355 150.086C387.355 154.461 390.898 158.013 395.282 158.013C399.649 158.013 403.195 154.461 403.195 150.086C403.195 145.712 399.649 142.162 395.282 142.162C394.241 142.162 393.211 142.366 392.249 142.764C391.287 143.162 390.413 143.746 389.677 144.481C388.941 145.217 388.357 146.091 387.959 147.053C387.56 148.014 387.355 149.045 387.355 150.086Z" fill="url(#paint0_radial_730_18759)"/>
<defs>
<radialGradient id="paint0_radial_730_18759" cx="0" cy="0" r="1" gradientUnits="userSpaceOnUse" gradientTransform="translate(393.265 148.132) scale(6.73158 6.73159)">
<stop stop-color="white"/>
<stop offset="1" stop-color="#F36118"/>
</radialGradient>
</defs>
</svg>
