<svg width="480" height="320" viewBox="0 0 480 320" fill="none" xmlns="http://www.w3.org/2000/svg">
<path fill-rule="evenodd" clip-rule="evenodd" d="M101.623 176.831L76.5365 161.766L118.067 136.713C118.067 136.713 84.3381 139.135 55.3848 162.909L89.4495 183.288V176.831H101.623ZM140.866 171.417H126.204V162.438H137.369V157.596H126.204V149.66H139.79V144.245H117.495V176.831H140.866V171.417ZM144.632 176.831C146.785 177.201 150.013 177.571 153.813 177.571C164.338 177.571 165.885 171.652 165.885 168.66C165.885 159.075 152.266 158.504 152.266 154.065C152.266 152.115 154.552 151.509 156.099 151.509C158.689 151.509 161.245 152.249 163.666 153.124V147.508C160.774 147.003 157.814 146.633 154.889 146.633C149.71 146.633 144.397 148.987 144.397 154.906C144.397 164.187 157.545 164.658 157.545 169.433C157.545 172.09 154.72 172.661 152.635 172.661C149.911 172.661 147.154 171.921 144.632 170.913V176.831H144.632ZM184.784 152.282H194.368V147.339H167.297V152.282H176.881V176.831H184.784V152.282ZM194.031 162.102C194.031 171.888 200.42 177.571 210.004 177.571C219.622 177.571 225.977 171.888 225.977 162.102C225.977 152.35 219.622 146.633 210.004 146.633C200.42 146.633 194.031 152.35 194.031 162.102ZM202.371 162.102C202.371 157.394 204.422 151.509 210.004 151.509C215.587 151.509 217.604 157.394 217.604 162.102C217.604 166.844 215.587 172.661 210.004 172.661C204.422 172.661 202.371 166.844 202.371 162.102ZM236.268 159.143H236.335L248.878 176.831H255.401V147.339H249.483V165.028H249.416L236.906 147.339H230.349V176.831H236.268V159.143ZM269.995 147.339H262.127V176.831H269.995V147.339ZM273.291 176.831H278.537L281.429 169.332H292.997L295.856 176.831H303.758L292.46 147.339H284.59L273.291 176.831ZM283.212 164.657L287.213 154.266L291.215 164.657H283.212ZM312.299 159.143H312.367L324.943 176.831H331.467V147.339H325.549V165.028H325.481L312.938 147.339H306.381V176.831H312.299V159.143ZM346.801 176.831H352.618L355.813 168.525H368.592L371.753 176.831H380.529L368.02 144.245H359.31L346.801 176.831ZM357.763 163.38L362.203 151.879L366.608 163.38H357.763ZM392.266 147.339H384.397V176.831H392.266V147.339ZM398.587 176.831H405.985V165.028H408.743L415.132 176.831H424.616L415.166 163.111C418.328 161.597 420.682 158.335 420.682 154.737C420.682 149.424 416.31 147.339 412.611 147.339H398.588V176.831H398.587ZM405.985 152.249H408.373C411.904 152.249 412.779 153.594 412.779 155.612C412.779 157.764 411.333 160.623 408.575 160.623H405.985V152.249Z" fill="#00529C"/>
</svg>
