<svg width="480" height="320" viewBox="0 0 480 320" fill="none" xmlns="http://www.w3.org/2000/svg">
<path d="M261.854 90.8231L261.608 90.5781L257.186 86.168L252.273 91.0682L257.186 95.9683L261.854 90.8231Z" fill="#BD8B13"/>
<path d="M271.681 90.8231L270.944 90.5781L266.522 86.168L261.609 91.0682L266.522 95.9683L271.681 90.8231Z" fill="#BD8B13"/>
<path d="M204.867 89.8428C204.867 90.8228 205.849 91.3128 206.586 91.5579C207.569 91.8029 208.551 92.5379 208.551 94.0079V131.739H250.312V132.474C250.312 132.719 250.312 132.719 250.312 133.454C250.312 136.64 251.294 138.6 253.014 139.335C253.014 139.335 253.996 140.07 255.47 140.07C256.453 140.07 257.435 139.825 258.664 139.09L259.401 138.845L258.664 138.11C257.681 137.13 256.944 134.189 256.944 132.474V132.229H272.42V97.4381C272.42 97.4381 270.455 101.848 262.84 107.483C262.84 107.483 263.085 108.953 264.559 109.689C266.524 110.669 266.279 111.894 266.279 111.894V125.859H256.698V125.124V124.389C256.698 120.959 255.716 112.629 246.381 112.629H246.136C243.433 112.629 240.731 112.629 238.521 112.629H237.784C232.379 112.629 229.432 111.894 228.449 110.424L228.203 109.689L227.958 109.934C226.975 110.669 226.238 111.894 226.238 113.364C226.238 115.569 227.712 118.264 229.677 118.264C231.151 118.264 233.116 118.264 235.081 118.264C238.521 118.264 242.451 118.264 242.451 118.264C250.066 118.264 250.312 121.694 250.312 123.164V124.879H214.693V78.8174C214.693 78.8174 210.517 84.4526 204.621 88.6177V88.8628V89.8428H204.867Z" fill="#BD8B13"/>
<path d="M180.544 137.375C180.544 137.375 179.807 143.01 191.353 143.01C200.687 143.01 200.933 137.13 200.933 137.13V115.569C200.933 114.099 200.687 110.424 196.757 110.424H164.331V107.974C164.331 107.239 164.577 107.239 165.314 106.994C167.033 106.014 167.279 104.789 167.034 104.299C163.349 102.094 159.664 97.1934 159.664 97.1934V116.059H192.09H192.335C193.318 116.059 194.792 116.304 194.792 118.509V133.7C194.792 133.7 194.792 136.885 191.598 136.885C186.44 136.885 186.685 134.19 186.685 134.19V125.859H159.664V132.475H181.035V137.375H180.544Z" fill="#BD8B13"/>
<path d="M316.391 94.0083C316.391 92.2932 317.373 91.8032 318.11 91.5582C318.847 91.3132 319.584 90.8232 319.83 89.3531V89.1081C319.83 88.3731 319.584 88.3731 318.847 88.1281C318.11 87.883 317.128 87.148 315.163 85.433C311.723 82.7379 310.987 81.2678 310.987 81.2678L310.004 79.5527V132.23H316.636C316.391 131.985 316.391 94.9883 316.391 94.0083Z" fill="#BD8B13"/>
<path d="M294.279 138.845L289.858 143.255L285.436 138.845L289.858 134.435L294.279 138.845ZM279.295 138.845L290.103 149.625L300.912 138.845L294.279 132.23L302.14 123.899V79.5527C302.14 79.5527 298.946 86.168 293.788 89.5981V89.8431C293.788 90.8232 294.525 91.3132 295.262 91.5582C295.999 91.8032 296.736 92.5382 296.736 94.0083C296.736 95.4783 296.736 120.714 296.736 120.714L290.103 127.575L283.471 120.714C283.471 120.469 283.471 94.9883 283.471 94.0083C283.471 92.2932 284.208 91.8032 284.945 91.5582C285.682 91.3132 285.927 90.8232 286.418 89.8431V89.5981C281.505 86.168 278.066 79.5527 278.066 79.5527V124.634L285.927 132.72L279.295 138.845Z" fill="#BD8B13"/>
<path d="M260.381 162.121L262.1 163.101C262.346 163.346 262.346 163.346 262.346 163.836V177.801H232.377L225.499 186.376V163.836V163.591L225.745 163.346L227.218 162.366V160.896H211.988V162.366L213.462 163.346L213.708 163.591V204.997V205.732L213.462 205.977L211.988 206.957V208.427H227.218V206.957L225.499 205.977L225.253 205.732V186.866L226.973 187.111L228.938 186.131L229.921 185.886C229.921 185.886 230.166 185.886 230.658 185.886H262.1V200.587L273.4 188.337V164.326L273.646 164.081L275.365 163.346V161.876H260.381V162.121Z" fill="#BD8B13"/>
<path d="M422.755 179.026C421.035 173.391 416.859 168.981 410.718 165.551C405.314 162.366 397.207 161.141 386.644 161.141H345.621V162.611L347.341 163.591V168.491H386.399C394.259 168.491 400.155 169.471 403.594 171.676C408.998 174.861 411.946 179.271 411.946 184.416C411.946 187.112 411.209 189.562 409.981 192.012C408.507 194.217 406.296 196.177 403.348 197.647C399.664 199.852 393.768 200.832 386.153 200.832H365.764V171.676H354.71V204.752V204.997L354.464 205.242L352.991 205.977V207.447H386.399C393.031 207.447 397.698 207.202 401.629 206.467C406.542 205.487 410.963 203.772 414.403 201.322C418.087 198.872 421.035 195.687 422.263 192.747C423.246 190.297 423.983 187.847 423.983 185.152C423.492 182.946 423 180.741 422.755 179.026Z" fill="#BD8B13"/>
<path d="M296.738 169.471L260.137 207.447H277.086V205.732H276.349H275.613H274.876L302.879 176.331L296.738 169.471Z" fill="#BD8B13"/>
<path d="M333.585 206.222V207.937H350.044L305.827 161.141L299.195 168.001L306.564 175.596L314.179 183.191H301.405L294.527 190.542L296.001 191.522L297.721 190.542H297.966C297.966 190.542 298.703 190.542 298.949 190.542H320.32L335.059 206.467C335.059 206.467 334.814 206.712 333.585 206.712H333.34V206.222H333.585Z" fill="#BD8B13"/>
<path d="M205.601 163.1L207.075 162.12V160.65H192.336V162.12L193.81 163.1L194.547 163.836V204.507V205.242L194.301 205.487L192.582 206.222V207.692H207.32V206.222L205.847 205.487L205.601 205.242V163.836V163.591V163.1Z" fill="#BD8B13"/>
<path d="M131.662 198.627H130.925H129.206L127.24 199.607C126.995 199.852 126.504 199.852 126.258 199.852H92.6041C84.989 199.852 79.0935 198.872 75.4088 196.667C69.5132 193.481 66.8111 189.316 66.8111 183.436C66.8111 180.986 67.548 178.291 69.2676 176.086C71.9697 171.921 76.1457 168.735 82.2869 167.755C84.0064 167.51 85.4803 167.51 86.4629 167.51H103.658C104.641 167.51 104.641 167.755 104.641 167.755L104.395 169.225H105.623L112.993 160.16H92.3585C87.4455 160.16 83.7608 160.16 81.3043 160.405C79.8304 160.405 78.6022 160.65 77.6196 161.14C74.1805 161.875 70.9871 163.345 68.0393 165.06C62.6351 168 58.9503 171.676 56.9852 175.841C56.0026 178.291 55.2656 180.986 55.2656 184.171C55.2656 191.766 59.4416 197.647 67.3024 202.302C70.7414 204.507 74.9175 205.732 79.3391 206.467C82.7782 207.202 87.1999 207.202 92.8498 207.202H124.047L131.662 198.627Z" fill="#BD8B13"/>
<path d="M114.713 187.356L122.082 178.291H73.1981L68.2852 185.641H112.256C112.993 185.641 113.239 185.886 113.239 185.886L112.993 187.356H114.713Z" fill="#BD8B13"/>
<path d="M118.398 160.65L111.52 169.226L112.993 169.471H113.239L115.204 168.491C115.941 168.246 116.187 167.756 116.924 167.756H143.945V204.262V204.507L143.699 204.752L142.226 205.732V207.202H157.456V205.732L155.982 204.752L155.736 204.507V204.262V168.001H179.564C180.547 168.001 180.547 168.246 180.547 168.246V169.716H182.02L189.39 160.65H118.398Z" fill="#BD8B13"/>
</svg>
