<svg width="480" height="320" viewBox="0 0 480 320" fill="none" xmlns="http://www.w3.org/2000/svg">
<path d="M82.4463 192.249L83.9376 185.059H64.0218V174.093H80.5005L81.9998 166.31H64.0218V156.227H82.3294L83.9376 149.047H55.4062V192.249H82.4463ZM331.116 173.41C332.729 173.609 334.925 173.926 336.015 174.471C337.108 175.021 338.025 175.821 338.673 176.611C339.319 177.4 339.785 178.291 340.066 179.282C340.348 180.274 340.492 181.273 340.492 182.286V182.895C340.492 184.676 340.167 186.202 339.521 187.475C338.873 188.751 337.953 189.78 336.762 190.569C335.566 191.359 333.296 191.992 331.616 192.358C329.936 192.725 328.088 192.903 326.062 192.903C324.364 192.903 322.543 192.77 320.602 192.513C318.659 192.247 316.719 191.813 314.778 191.205L316.128 185.282C318.029 185.808 319.749 186.125 321.285 186.348C322.822 186.571 324.361 186.648 325.898 186.68C327.341 186.712 328.269 186.702 329.228 186.595C330.111 186.497 330.77 186.239 331.254 185.917C331.743 185.593 332.195 185.091 332.336 184.591C332.461 184.171 332.495 183.924 332.495 183.318C332.495 182.387 332.235 181.731 331.772 181.106C331.307 180.478 330.345 180.136 328.846 179.934L324.34 179.314C321.182 178.913 317.939 178.049 316.439 176.555C314.943 175.058 314.193 173.075 314.193 170.611V170.002C314.193 166.81 315.376 164.409 317.745 162.811C320.113 161.214 324.446 160.201 328.856 160.201C331.039 160.201 333.011 160.363 334.774 160.688C336.536 161.012 337.937 161.376 338.99 161.78L337.546 167.525C336.129 167.155 334.689 166.892 333.33 166.714C331.847 166.517 330.542 166.427 329.005 166.427C326.214 166.427 324.412 166.586 323.42 167.166C322.429 167.756 322.001 168.311 322.001 169.606C322.001 170.696 322.359 171.305 322.963 171.767C323.572 172.235 324.542 172.607 326.076 172.812L331.116 173.41ZM302.335 160.767C300.022 160.18 297.765 160.031 295.16 160.031C292.682 160.031 289.697 160.339 287.743 160.927C285.792 161.512 284.131 162.413 282.767 163.625C281.401 164.84 280.351 166.398 279.617 168.298C278.88 170.199 278.514 172.461 278.514 175.095V177.219C278.514 182.358 279.553 186.13 281.632 188.533C283.711 190.941 287.562 192.489 291.683 192.489C295.965 192.489 298.645 191.316 300.835 189.208V190.588C300.835 193.945 300.266 195.95 298.86 197.648C297.454 199.347 294.95 200.089 291.717 199.945C289.458 199.847 288.155 199.711 286.435 199.432C284.713 199.148 283.107 198.77 281.637 198.326L280.226 204.754C282.198 205.44 284.226 205.937 286.305 206.24C288.384 206.543 290.686 206.636 293.203 206.697C298.411 206.817 302.385 205.28 305.136 202.449C307.888 199.615 309.111 195.612 309.111 190.434V163.306C307.223 162.296 304.642 161.355 302.335 160.767ZM300.838 177.937C300.838 180.768 300.29 182.852 299.203 184.187C298.111 185.521 296.369 186.191 293.982 186.191C292.605 186.191 291.486 185.989 290.614 185.582C289.742 185.178 289.067 184.583 288.581 183.793C288.091 183.001 287.759 182.044 287.581 180.909C287.398 179.777 287.305 178.463 287.305 176.967V174.784C287.305 171.549 287.921 169.239 289.155 167.865C290.388 166.491 292.339 165.802 295.011 165.802C296.061 165.802 297.114 165.906 298.166 166.105C299.219 166.307 300.107 166.631 300.835 167.075V177.937H300.838Z" fill="#8F174F"/>
<path d="M244.009 192.251V160.761H251.696L252.18 164.161C253.19 162.824 254.496 161.8 256.096 161.096C257.694 160.389 259.522 160.032 261.585 160.032C263.284 160.032 265.211 160.256 266.607 160.7C268.002 161.146 269.207 161.824 270.217 162.733C271.227 163.645 272.016 164.785 272.583 166.162C273.151 167.539 273.433 169.156 273.433 171.016V192.251H265.06V173.015C265.06 170.469 264.594 168.656 263.667 167.585C262.734 166.513 261.346 165.982 259.161 165.982C256.776 165.982 255.006 167.228 253.945 168.672C252.829 170.192 252.672 173.244 252.672 175.995V192.248H244.009V192.251ZM144.209 167.811C143.719 167.691 143.137 167.571 142.449 167.446C141.758 167.327 141.053 167.268 140.322 167.268C137.653 167.268 135.723 167.965 134.527 169.358C133.334 170.753 133.031 172.268 133.031 175.139V192.251H123.955V160.761H132.06L132.547 164.522C133.557 163.148 134.814 162.106 136.308 161.396C137.805 160.689 139.604 160.335 141.707 160.335C142.518 160.335 143.236 160.386 143.863 160.487C144.49 160.588 145.144 160.761 145.835 161.003L144.209 167.811ZM118.359 160.761V192.253H110.674L110.191 188.856C109.18 190.191 107.875 191.214 106.275 191.919C104.677 192.626 102.846 192.982 100.785 192.982C99.0842 192.982 97.1596 192.759 95.7613 192.312C94.3684 191.865 93.1642 191.19 92.154 190.278C91.1439 189.367 90.3544 188.226 89.7855 186.849C89.2193 185.475 88.9375 183.856 88.9375 181.995V160.761H97.3084V179.999C97.3084 182.543 97.7763 184.356 98.704 185.43C99.6344 186.498 101.025 187.03 103.21 187.03C105.594 187.03 107.365 185.783 108.425 184.34C109.542 182.819 109.699 179.765 109.699 177.019V160.761H118.359ZM233.923 148.049C235.616 148.049 236.911 148.424 237.669 149.131C238.426 149.841 238.806 150.933 238.806 152.228C238.806 153.522 238.426 154.615 237.669 155.322C236.911 156.029 235.616 156.361 233.923 156.361C232.235 156.361 230.893 156.029 230.135 155.322C229.377 154.615 228.997 153.522 228.997 152.228C228.997 150.933 229.377 149.841 230.135 149.131C230.893 148.424 232.235 148.049 233.923 148.049ZM229.723 160.761H238.269V192.253H229.723V160.761ZM225.345 160.761L216.059 192.253H208.382L202.896 173.21L197.478 192.253H189.519L180.024 160.761H188.926L193.613 180.307L198.773 162.095H207.146L212.298 180.105L216.931 160.761H225.345Z" fill="#8F174F"/>
<path d="M177.481 169.16C177.015 167.302 176.226 165.702 175.115 164.367C174.001 163.033 172.512 161.98 170.652 161.212C168.793 160.444 165.774 160.074 162.982 160.074C160.191 160.074 157.068 160.547 155.21 161.316C153.346 162.084 151.86 163.137 150.749 164.471C149.635 165.805 148.835 167.406 148.351 169.264C147.867 171.125 147.477 173.012 147.477 175.197V177.747C147.477 179.926 147.827 181.909 148.295 183.77C148.761 185.631 149.55 187.239 150.664 188.592C151.775 189.951 153.261 191.011 155.122 191.78C156.983 192.548 160.157 193.021 162.985 193.021C165.816 193.021 168.913 192.59 170.795 191.78C172.677 190.974 174.163 189.879 175.256 188.507C176.348 187.136 177.116 185.525 177.56 183.682C178.007 181.846 178.376 179.881 178.376 177.778V175.229C178.374 173.044 177.946 171.024 177.481 169.16ZM169.963 178.233C169.963 181.511 169.45 183.826 168.416 185.182C167.384 186.535 165.595 187.213 163.046 187.213C161.789 187.213 160.72 187.072 159.83 186.787C158.939 186.508 158.2 186.024 157.615 185.333C157.025 184.645 156.602 183.728 156.342 182.571C156.076 181.418 155.949 179.971 155.949 178.233V174.716C155.949 171.481 156.483 169.182 157.554 167.826C158.625 166.473 160.457 165.795 163.046 165.795C165.635 165.795 167.432 166.473 168.442 167.826C169.458 169.182 169.96 171.481 169.96 174.716V178.233H169.963Z" fill="#8F174F"/>
<path d="M370.562 113.439C363.698 112.501 360.213 116.321 355.407 119.832L338.976 132.736L338.971 132.738L342.134 134.41C342.139 134.416 342.147 134.418 342.155 134.424C346.27 136.446 351.994 135.755 355.891 132.868L362.829 127.355L365.482 125.244L378.704 114.739L370.562 113.439Z" fill="#7BCBE2"/>
<path d="M338.977 132.736L342.135 134.414C342.143 134.416 342.148 134.422 342.156 134.424C346.271 136.45 351.997 135.759 355.894 132.869L362.829 127.359L365.485 125.248L338.977 132.736Z" fill="#089BC9"/>
<path d="M398.62 121.409L389.8 119.822C389.8 119.822 383.659 118.363 378.529 122.337C378.529 122.337 374.741 125.155 371.947 127.335L365.734 132.255L351.364 143.686L351.244 143.781L355.582 146.075C359.7 148.109 365.437 147.421 369.339 144.528L382.189 134.35L392.551 126.189L398.62 121.409Z" fill="#8F174F"/>
<path d="M371.949 127.334C374.737 125.154 378.526 122.336 378.526 122.336C379.496 121.584 380.503 121.029 381.498 120.619L365.487 125.247L362.831 127.355L355.898 132.869C352.001 135.758 346.275 136.449 342.16 134.424C345.669 136.526 351.119 137.01 359.327 134.562L364.934 132.892L365.739 132.254L371.949 127.334ZM394.534 132.236C397.179 130.165 399.175 128.666 401.161 127.775L383.239 133.522L382.186 134.352L369.336 144.528C365.433 147.42 359.697 148.111 355.579 146.075C361.906 149.549 371.649 146.995 379.841 144.081L380.331 143.685C380.328 143.685 394.045 132.589 394.534 132.236ZM415.609 143.781C408.415 141.691 406.257 143.013 397.782 145.562H397.779L397.072 146.149V146.147L397.064 146.155L397.072 146.149L397.051 146.163L383.393 156.992C379.501 159.877 373.419 160.432 369.304 158.417C374.381 161.065 379.631 160.416 388.614 157.615L424.612 146.564L415.609 143.781Z" fill="#C8C4C3"/>
<path d="M417.996 128.847L408.474 127.114C402.77 126.056 400.072 127.901 394.532 132.237C394.043 132.593 380.328 143.686 380.328 143.686L364.932 156.108L369.267 158.402C373.388 160.438 379.496 159.885 383.396 156.993L397.054 146.163L397.073 146.15L397.065 146.155L417.996 128.847Z" fill="#8F174F"/>
<path d="M383.237 133.522L351.242 143.781L364.932 132.892L395.383 123.955L383.237 133.522ZM397.783 145.562L364.935 156.107L379.84 144.078L413 132.98L397.783 145.562Z" fill="#B4175E"/>
</svg>
