<svg width="480" height="320" viewBox="0 0 480 320" fill="none" xmlns="http://www.w3.org/2000/svg">
<path d="M113.98 164.645H76.1861C75.485 167.683 75.526 169.946 76.3089 171.433C77.3904 173.572 79.3919 174.641 82.3111 174.641C84.1543 174.641 86.0675 174.174 88.0453 173.239C89.2613 172.649 90.7097 171.606 92.3891 170.111L110.451 171.83C105.912 176.788 101.266 180.344 96.5112 182.497C91.7566 184.651 85.625 185.728 78.1164 185.728C71.5954 185.728 66.7815 184.807 63.6721 182.965C60.5629 181.124 58.4648 178.201 57.3795 174.19C56.293 170.183 56.6771 165.47 58.5295 160.053C61.1651 152.348 65.7625 146.111 72.3217 141.344C78.881 136.578 86.5045 134.193 95.1897 134.193C102.235 134.193 107.433 135.263 110.783 137.396C114.132 139.532 116.179 142.626 116.925 146.681C117.671 150.736 116.933 156.012 114.711 162.51L113.98 164.645ZM97.8514 155.588C98.7319 151.929 98.6502 149.313 97.6058 147.731C96.5601 146.149 94.746 145.36 92.1594 145.36C89.1716 145.36 86.3779 146.553 83.7768 148.939C82.1277 150.427 80.6451 152.644 79.3312 155.588L97.8514 155.588Z" fill="#FF0000"/>
<path d="M113.98 164.645H76.1861C75.485 167.683 75.526 169.946 76.3089 171.433C77.3904 173.572 79.3919 174.641 82.3111 174.641C84.1543 174.641 86.0675 174.174 88.0453 173.239C89.2613 172.649 90.7097 171.606 92.3891 170.111L110.451 171.83C105.912 176.788 101.266 180.344 96.5112 182.497C91.7566 184.651 85.625 185.728 78.1164 185.728C71.5954 185.728 66.7815 184.807 63.6721 182.965C60.5629 181.124 58.4648 178.201 57.3795 174.19C56.293 170.183 56.6771 165.47 58.5295 160.053C61.1651 152.348 65.7625 146.111 72.3217 141.344C78.881 136.578 86.5045 134.193 95.1897 134.193C102.235 134.193 107.433 135.263 110.783 137.396C114.132 139.532 116.179 142.626 116.925 146.681C117.671 150.736 116.933 156.012 114.711 162.51L113.98 164.645ZM97.8514 155.588C98.7319 151.929 98.6502 149.313 97.6058 147.731C96.5601 146.149 94.746 145.36 92.1594 145.36C89.1716 145.36 86.3779 146.553 83.7768 148.939C82.1277 150.427 80.6451 152.644 79.3312 155.588L97.8514 155.588Z" stroke="#FF0000" stroke-width="6.96142" stroke-miterlimit="1"/>
<path d="M167.822 184.634H150.178L152.912 176.639C149.165 179.917 145.719 182.249 142.571 183.641C139.424 185.031 135.904 185.727 132.012 185.727C126.821 185.727 123.286 184.171 121.399 181.059C119.512 177.949 119.676 173.157 121.89 166.683L132.628 135.287H151.608L142.327 162.42C141.268 165.518 141.086 167.718 141.78 169.017C142.475 170.318 143.857 170.969 145.922 170.969C148.171 170.969 150.309 170.104 152.335 168.368C154.362 166.634 156.144 163.521 157.68 159.029L165.8 135.287H184.697L167.822 184.634Z" fill="#FF0000"/>
<path d="M167.822 184.634H150.178L152.912 176.639C149.165 179.917 145.719 182.249 142.571 183.641C139.424 185.031 135.904 185.727 132.012 185.727C126.821 185.727 123.286 184.171 121.399 181.059C119.512 177.949 119.676 173.157 121.89 166.683L132.628 135.287H151.608L142.327 162.42C141.268 165.518 141.086 167.718 141.78 169.017C142.475 170.318 143.857 170.969 145.922 170.969C148.171 170.969 150.309 170.104 152.335 168.368C154.362 166.634 156.144 163.521 157.68 159.029L165.8 135.287H184.697L167.822 184.634Z" stroke="#FF0000" stroke-width="6.96142" stroke-miterlimit="1"/>
<path d="M196.443 135.289H214.123L211.355 143.383C214.252 139.887 216.829 137.483 219.088 136.168C221.344 134.853 223.804 134.195 226.464 134.195C229.246 134.195 231.999 135.056 234.719 136.777L224.262 150.268C222.353 149.339 220.749 148.875 219.451 148.875C216.977 148.875 214.71 149.897 212.651 151.939C209.718 154.82 206.903 160.207 204.201 168.101L198.546 184.634H179.565L196.443 135.289Z" fill="#FF0000"/>
<path d="M196.443 135.289H214.123L211.355 143.383C214.252 139.887 216.829 137.483 219.088 136.168C221.344 134.853 223.804 134.195 226.464 134.195C229.246 134.195 231.999 135.056 234.719 136.777L224.262 150.268C222.353 149.339 220.749 148.875 219.451 148.875C216.977 148.875 214.71 149.897 212.651 151.939C209.718 154.82 206.903 160.207 204.201 168.101L198.546 184.634H179.565L196.443 135.289Z" stroke="#FF0000" stroke-width="6.96142" stroke-miterlimit="1"/>
<path d="M227.765 160.101C230.337 152.581 234.992 146.383 241.734 141.509C248.473 136.634 256.158 134.195 264.789 134.195C274.657 134.195 281.133 137.058 284.218 142.784C286.692 147.396 286.776 153.076 284.467 159.823C281.874 167.407 277.235 173.62 270.552 178.463C263.868 183.306 256.088 185.729 247.211 185.729C239.291 185.729 233.576 183.716 230.065 179.693C225.769 174.711 225.002 168.18 227.765 160.101ZM246.76 160.056C245.262 164.438 245.04 167.677 246.096 169.775C247.152 171.874 249.023 172.923 251.707 172.923C254.422 172.923 257.003 171.89 259.455 169.821C261.904 167.755 263.911 164.438 265.474 159.87C266.931 155.612 267.135 152.443 266.09 150.359C265.043 148.276 263.223 147.235 260.633 147.235C257.887 147.235 255.258 148.292 252.745 150.405C250.231 152.521 248.236 155.738 246.76 160.056Z" fill="#FF0000"/>
<path d="M227.765 160.101C230.337 152.581 234.992 146.383 241.734 141.509C248.473 136.634 256.158 134.195 264.789 134.195C274.657 134.195 281.133 137.058 284.218 142.784C286.692 147.396 286.776 153.076 284.467 159.823C281.874 167.407 277.235 173.62 270.552 178.463C263.868 183.306 256.088 185.729 247.211 185.729C239.291 185.729 233.576 183.716 230.065 179.693C225.769 174.711 225.002 168.18 227.765 160.101V160.101ZM246.76 160.056C245.262 164.438 245.04 167.677 246.096 169.775C247.152 171.874 249.023 172.923 251.707 172.923C254.422 172.923 257.003 171.89 259.455 169.821C261.904 167.755 263.911 164.438 265.474 159.87C266.931 155.612 267.135 152.443 266.09 150.359C265.043 148.276 263.223 147.235 260.633 147.235C257.887 147.235 255.258 148.292 252.745 150.405C250.231 152.521 248.236 155.738 246.76 160.056V160.056Z" stroke="#FF0000" stroke-width="6.96142" stroke-miterlimit="1"/>
<path d="M323.17 135.289H332.166L327.439 149.108H318.444L306.294 184.636H287.314L299.464 149.108H292.449L297.176 135.289H304.191L304.953 133.06C305.641 131.049 306.614 128.836 307.873 126.424C309.131 124.01 310.619 122.039 312.336 120.506C314.052 118.976 316.149 117.739 318.626 116.794C321.101 115.85 324.415 115.377 328.567 115.377C331.882 115.377 336.566 115.764 342.623 116.537L336.624 127.957C334.495 127.586 332.733 127.401 331.342 127.401C329.64 127.401 328.321 127.688 327.384 128.259C326.445 128.832 325.612 129.735 324.879 130.972C324.491 131.655 323.923 133.092 323.17 135.289Z" fill="#FF0000"/>
<path d="M323.17 135.289H332.166L327.439 149.108H318.444L306.294 184.636H287.314L299.464 149.108H292.449L297.176 135.289H304.191L304.953 133.06C305.641 131.049 306.614 128.836 307.873 126.424C309.131 124.01 310.619 122.039 312.336 120.506C314.052 118.976 316.149 117.739 318.626 116.794C321.101 115.85 324.415 115.377 328.567 115.377C331.882 115.377 336.566 115.764 342.623 116.537L336.624 127.957C334.495 127.586 332.733 127.401 331.342 127.401C329.64 127.401 328.321 127.688 327.384 128.259C326.445 128.832 325.612 129.735 324.879 130.972C324.491 131.655 323.923 133.092 323.17 135.289V135.289Z" stroke="#FF0000" stroke-width="6.96142" stroke-miterlimit="1"/>
<path d="M346.171 116.549H365.151L341.864 184.634H322.885L346.171 116.549Z" fill="#FF0000"/>
<path d="M346.171 116.549H365.151L341.864 184.634H322.885L346.171 116.549Z" stroke="#FF0000" stroke-width="6.96142" stroke-miterlimit="1"/>
<path d="M365.304 135.289H385.264L384.229 168.138L404.868 135.289H423.481L385.911 188.042C381.635 194.033 377.976 198.078 374.937 200.176C370.643 203.14 365.139 204.623 358.425 204.623C355.701 204.623 351.621 204.251 346.182 203.505L349.214 190.295C351.643 191.153 354.526 191.583 357.868 191.583C360.096 191.583 362.072 191.076 363.793 190.065C365.516 189.051 367.304 187.24 369.156 184.632L365.304 135.289Z" fill="#FF0000"/>
<path d="M365.304 135.289H385.264L384.229 168.138L404.868 135.289H423.481L385.911 188.042C381.635 194.033 377.976 198.078 374.937 200.176C370.643 203.14 365.139 204.623 358.425 204.623C355.701 204.623 351.621 204.251 346.182 203.505L349.214 190.295C351.643 191.153 354.526 191.583 357.868 191.583C360.096 191.583 362.072 191.076 363.793 190.065C365.516 189.051 367.304 187.24 369.156 184.632L365.304 135.289Z" stroke="#FF0000" stroke-width="6.96142" stroke-miterlimit="1"/>
</svg>
