<svg width="480" height="320" viewBox="0 0 480 320" fill="none" xmlns="http://www.w3.org/2000/svg">
<mask id="mask0_730_18622" style="mask-type:luminance" maskUnits="userSpaceOnUse" x="267" y="154" width="38" height="29">
<path d="M272.403 159.222C275.462 157.068 279.188 155.8 283.213 155.804C293.597 155.804 302.019 164.223 302.019 174.61C302.019 174.61 301.455 172.566 300.198 169.972C299.61 168.756 298.86 167.416 297.954 166.11C297.139 164.932 296.021 163.874 294.961 162.84C293.956 161.859 292.733 161.133 291.463 160.5C288.724 159.132 285.648 158.453 283.213 158.453C274.287 158.453 267.057 165.685 267.057 174.61C267.057 174.986 267.073 175.357 267.1 175.727C267.987 176.156 268.925 176.584 269.911 177.008C269.772 176.229 269.695 175.429 269.695 174.61C269.695 167.143 275.743 161.088 283.213 161.091V161.102C291.912 161.106 298.993 168.559 298.993 177.264C298.993 179.239 298.626 181.15 297.959 182.925C299.081 182.957 300.156 182.962 301.18 182.947C303.003 180.045 304.061 176.614 304.061 172.932C304.061 162.559 295.67 154.134 285.272 154.134C280.294 154.134 275.769 156.069 272.403 159.222Z" fill="white"/>
</mask>
<g mask="url(#mask0_730_18622)">
<mask id="mask1_730_18622" style="mask-type:luminance" maskUnits="userSpaceOnUse" x="267" y="154" width="38" height="29">
<path d="M267.062 154.133H304.066V182.961H267.062V154.133Z" fill="white"/>
</mask>
<g mask="url(#mask1_730_18622)">
<path d="M272.403 159.222C275.462 157.068 279.188 155.8 283.213 155.804C293.597 155.804 302.019 164.223 302.019 174.61C302.019 174.61 301.455 172.566 300.198 169.972C299.61 168.756 298.86 167.416 297.954 166.11C297.139 164.932 296.021 163.874 294.961 162.84C293.956 161.859 292.733 161.133 291.463 160.5C288.724 159.132 285.648 158.453 283.213 158.453C274.287 158.453 267.057 165.685 267.057 174.61C267.057 174.986 267.073 175.357 267.1 175.727C267.987 176.156 268.925 176.584 269.911 177.008C269.772 176.229 269.695 175.429 269.695 174.61C269.695 167.143 275.743 161.088 283.213 161.091V161.102C291.912 161.106 298.993 168.559 298.993 177.264C298.993 179.239 298.626 181.15 297.959 182.925C299.081 182.957 300.156 182.962 301.18 182.947C303.003 180.045 304.061 176.614 304.061 172.932C304.061 162.559 295.67 154.134 285.272 154.134C280.294 154.134 275.769 156.069 272.403 159.222Z" fill="url(#paint0_radial_730_18622)"/>
</g>
</g>
<mask id="mask2_730_18622" style="mask-type:luminance" maskUnits="userSpaceOnUse" x="278" y="169" width="11" height="5">
<path d="M278.409 173.264H288.098C287.714 171.053 285.754 169.264 283.337 169.264C280.958 169.264 278.748 171.053 278.409 173.264Z" fill="white"/>
</mask>
<g mask="url(#mask2_730_18622)">
<mask id="mask3_730_18622" style="mask-type:luminance" maskUnits="userSpaceOnUse" x="278" y="169" width="11" height="5">
<path d="M278.409 169.264H288.098V173.264H278.409V169.264Z" fill="white"/>
</mask>
<g mask="url(#mask3_730_18622)">
<path d="M278.409 173.264H288.098C287.714 171.053 285.754 169.264 283.337 169.264C280.958 169.264 278.748 171.053 278.409 173.264Z" fill="url(#paint1_radial_730_18622)"/>
</g>
</g>
<mask id="mask4_730_18622" style="mask-type:luminance" maskUnits="userSpaceOnUse" x="272" y="163" width="25" height="20">
<path d="M272.354 174.611C272.354 175.876 272.565 177.089 272.948 178.224C274.128 178.666 275.366 179.092 276.658 179.494C275.872 178.247 275.443 176.746 275.443 175.116C275.443 170.6 278.239 166.862 283.31 166.862C288.516 166.862 291.279 170.925 291.001 175.473H278.274C278.314 178.305 280.447 180.578 283.587 180.578C285.928 180.578 287.454 179.245 288.516 177.426L290.861 178.693C290.045 180.131 288.926 181.243 287.567 181.974C288.951 182.183 290.286 182.353 291.577 182.489C292.153 181.874 292.671 181.19 293.112 180.445C292.889 181.187 292.592 181.894 292.237 182.562C293.235 182.661 294.193 182.732 295.132 182.791C295.887 181.09 296.31 179.22 296.31 177.279C296.31 170.018 290.517 163.748 283.218 163.748C277.214 163.748 272.354 168.612 272.354 174.611Z" fill="white"/>
</mask>
<g mask="url(#mask4_730_18622)">
<mask id="mask5_730_18622" style="mask-type:luminance" maskUnits="userSpaceOnUse" x="272" y="163" width="25" height="20">
<path d="M272.354 163.748H296.31V182.791H272.354V163.748Z" fill="white"/>
</mask>
<g mask="url(#mask5_730_18622)">
<path d="M272.354 174.611C272.354 175.876 272.565 177.089 272.948 178.224C274.128 178.666 275.366 179.092 276.658 179.494C275.872 178.247 275.443 176.746 275.443 175.116C275.443 170.6 278.239 166.862 283.31 166.862C288.516 166.862 291.279 170.925 291.001 175.473H278.274C278.314 178.305 280.447 180.578 283.587 180.578C285.928 180.578 287.454 179.245 288.516 177.426L290.861 178.693C290.045 180.131 288.926 181.243 287.567 181.974C288.951 182.183 290.286 182.353 291.577 182.489C292.153 181.874 292.671 181.19 293.112 180.445C292.889 181.187 292.592 181.894 292.237 182.562C293.235 182.661 294.193 182.732 295.132 182.791C295.887 181.09 296.31 179.22 296.31 177.279C296.31 170.018 290.517 163.748 283.218 163.748C277.214 163.748 272.354 168.612 272.354 174.611Z" fill="url(#paint2_radial_730_18622)"/>
</g>
</g>
<mask id="mask6_730_18622" style="mask-type:luminance" maskUnits="userSpaceOnUse" x="267" y="175" width="29" height="16">
<path d="M283.208 190.77C288.54 190.77 293.072 187.415 295.127 182.791C294.188 182.732 293.23 182.66 292.232 182.562C290.471 185.869 287.164 188.138 283.176 188.138V188.131C276.545 188.114 271.039 183.318 269.911 177.008C268.925 176.585 267.987 176.156 267.1 175.727C267.672 184.125 274.661 190.77 283.208 190.77Z" fill="white"/>
</mask>
<g mask="url(#mask6_730_18622)">
<mask id="mask7_730_18622" style="mask-type:luminance" maskUnits="userSpaceOnUse" x="263" y="168" width="36" height="30">
<path d="M263.382 176.709L293.299 168.802L298.851 189.787L268.934 197.693L263.382 176.709Z" fill="white"/>
</mask>
<g mask="url(#mask7_730_18622)">
<path d="M283.208 190.77C288.54 190.77 293.072 187.415 295.127 182.791C294.188 182.732 293.23 182.66 292.232 182.562C290.471 185.869 287.164 188.138 283.176 188.138V188.131C276.545 188.114 271.039 183.318 269.911 177.008C268.925 176.585 267.987 176.156 267.1 175.727C267.672 184.125 274.661 190.77 283.208 190.77Z" fill="url(#paint3_radial_730_18622)"/>
</g>
</g>
<mask id="mask8_730_18622" style="mask-type:luminance" maskUnits="userSpaceOnUse" x="272" y="178" width="20" height="8">
<path d="M283.64 185.902C286.841 185.902 289.584 184.611 291.57 182.49C290.279 182.353 288.944 182.183 287.561 181.974C286.342 182.63 284.933 182.983 283.367 182.983C280.337 182.983 277.982 181.607 276.652 179.494C275.36 179.092 274.122 178.666 272.941 178.224C274.449 182.688 278.667 185.902 283.64 185.902Z" fill="white"/>
</mask>
<g mask="url(#mask8_730_18622)">
<mask id="mask9_730_18622" style="mask-type:luminance" maskUnits="userSpaceOnUse" x="271" y="173" width="23" height="18">
<path d="M271.05 178.726L290.359 173.623L293.476 185.401L274.166 190.504L271.05 178.726Z" fill="white"/>
</mask>
<g mask="url(#mask9_730_18622)">
<path d="M283.64 185.902C286.841 185.902 289.584 184.611 291.57 182.49C290.279 182.353 288.944 182.183 287.561 181.974C286.342 182.63 284.933 182.983 283.367 182.983C280.337 182.983 277.982 181.607 276.652 179.494C275.36 179.092 274.122 178.666 272.941 178.224C274.449 182.688 278.667 185.902 283.64 185.902Z" fill="url(#paint4_radial_730_18622)"/>
</g>
</g>
<mask id="mask10_730_18622" style="mask-type:luminance" maskUnits="userSpaceOnUse" x="292" y="182" width="10" height="9">
<path d="M292.353 190.369C292.408 190.346 293 190.092 293.239 189.981C293.448 189.883 293.762 189.732 294.325 189.431C294.667 189.248 294.853 189.132 295.183 188.934C295.432 188.785 295.848 188.496 295.89 188.466C298.012 187.012 299.817 185.13 301.189 182.947C300.165 182.962 299.089 182.957 297.968 182.925C296.846 185.909 294.873 188.505 292.353 190.369Z" fill="white"/>
</mask>
<g mask="url(#mask10_730_18622)">
<mask id="mask11_730_18622" style="mask-type:luminance" maskUnits="userSpaceOnUse" x="290" y="180" width="14" height="13">
<path d="M290.507 183.41L300.607 180.741L303.025 189.881L292.925 192.551L290.507 183.41Z" fill="white"/>
</mask>
<g mask="url(#mask11_730_18622)">
<path d="M292.353 190.369C292.408 190.346 293 190.092 293.239 189.981C293.448 189.883 293.762 189.732 294.325 189.431C294.667 189.248 294.853 189.132 295.183 188.934C295.432 188.785 295.848 188.496 295.89 188.466C298.012 187.012 299.817 185.13 301.189 182.947C300.165 182.962 299.089 182.957 297.968 182.925C296.846 185.909 294.873 188.505 292.353 190.369Z" fill="url(#paint5_radial_730_18622)"/>
</g>
</g>
<mask id="mask12_730_18622" style="mask-type:luminance" maskUnits="userSpaceOnUse" x="55" y="129" width="370" height="62">
<path d="M55.3828 190.77H424.616V129.231H55.3828V190.77Z" fill="white"/>
</mask>
<g mask="url(#mask12_730_18622)">
<path d="M65.8565 151.604C66.0313 147.939 68.1259 146.022 72.3127 146.194C73.8868 146.194 75.1076 146.371 76.1549 146.717C77.201 147.069 77.7265 147.939 77.7265 149.337C77.5493 151.254 76.5032 152.128 74.2351 151.954H65.8565V151.604ZM74.9316 158.238C78.5991 158.238 81.7411 157.538 84.0092 155.969C86.2787 154.396 87.5007 151.954 87.5007 148.463C87.326 144.448 85.9291 141.481 83.1367 139.911C80.1695 138.339 76.678 137.468 72.3127 137.468C67.4269 137.468 63.4136 138.688 60.2704 141.13C57.1296 143.401 55.5593 147.069 55.3857 151.78V158.238C55.3857 162.952 56.9561 166.441 60.0968 168.538C63.0628 170.805 67.0798 171.852 72.1392 171.852C73.3625 171.852 74.7581 171.676 76.678 171.505L81.9134 170.63C83.6597 170.107 84.5335 169.059 84.5335 167.488V163.822C84.5335 162.253 83.8345 161.554 82.6124 161.554L81.9134 161.729C78.9474 162.253 75.9802 162.6 73.0117 162.6C71.0919 162.6 69.5215 162.253 68.1259 161.729C66.729 161.203 66.0313 160.158 65.8565 158.412V158.238H74.9316ZM173.148 162.601C168.435 162.777 166.342 160.159 166.515 154.573C166.342 149.162 168.435 146.545 173.148 146.717C177.86 146.545 179.953 149.162 179.779 154.573C179.953 160.159 177.86 162.777 173.148 162.601ZM173.148 137.469C161.976 137.292 156.217 142.878 156.042 154.573C156.042 160.856 157.439 165.395 160.406 168.011C163.373 170.631 167.736 171.852 173.148 171.852C178.908 171.852 183.096 170.631 186.063 168.011C189.031 165.395 190.427 160.856 190.427 154.573C190.427 142.878 184.668 137.292 173.148 137.469ZM228.505 162.601C223.793 162.777 221.697 160.159 221.872 154.573C221.697 149.162 223.793 146.545 228.505 146.717C233.218 146.545 235.312 149.162 235.137 154.573C235.312 160.159 233.218 162.777 228.505 162.601ZM228.505 137.469C217.334 137.292 211.573 142.878 211.399 154.573C211.399 160.856 212.797 165.395 215.763 168.011C218.73 170.631 223.093 171.852 228.505 171.852C234.264 171.852 238.454 170.631 241.421 168.011C244.391 165.395 245.785 160.856 245.785 154.573C245.785 142.878 240.026 137.292 228.505 137.469ZM347.772 162.601C343.057 162.777 340.964 160.159 341.136 154.573C340.964 149.162 343.057 146.545 347.772 146.717C352.482 146.545 354.579 149.162 354.402 154.573C354.579 160.159 352.482 162.777 347.772 162.601ZM347.772 137.469C336.6 137.292 330.841 142.878 330.665 154.573C330.665 160.856 332.062 165.395 335.029 168.011C337.994 170.631 342.359 171.852 347.772 171.852C353.529 171.852 357.718 170.631 360.686 168.011C363.654 165.395 365.05 160.856 365.05 154.573C365.05 142.878 359.29 137.292 347.772 137.469ZM381.505 140.609V143.053L382.903 142.18C384.648 140.609 386.394 139.559 387.963 138.688C389.536 137.816 391.454 137.464 393.55 137.464C398.262 137.643 401.055 139.559 402.277 143.402H402.799L404.198 142.18C406.115 140.609 407.863 139.559 409.433 138.688C411.004 137.816 412.922 137.464 415.018 137.464C421.476 137.816 424.619 141.306 424.619 148.117V168.708C424.443 170.279 423.57 171.154 421.996 171.329H416.586C415.018 171.154 414.145 170.279 413.971 168.708V150.908C414.319 148.286 413.272 146.89 410.83 146.717C408.908 146.89 406.988 147.939 404.719 149.509L403.148 150.735V168.708C402.973 170.279 402.102 171.154 400.357 171.329H395.12C393.55 171.154 392.677 170.279 392.503 168.708V150.908C392.849 148.286 391.802 146.89 389.536 146.717C387.613 146.89 385.521 147.765 383.249 149.337L381.505 150.559V168.708C381.505 170.279 380.633 171.154 378.889 171.329H373.651C372.079 171.154 371.209 170.279 371.032 168.708V140.609C371.209 138.865 372.079 137.991 373.651 137.991H378.889C380.633 137.991 381.505 138.865 381.505 140.609ZM114.494 168.709V166.095L113.098 167.141C111.177 168.539 109.433 169.583 107.861 170.458C106.116 171.329 104.196 171.678 102.102 171.854C95.643 171.506 92.5023 168.011 92.5023 161.204V140.434C92.6758 138.865 93.5496 137.992 95.1199 137.992H100.357C102.102 137.992 102.974 138.865 102.974 140.434V158.24C102.798 161.032 103.846 162.428 106.116 162.601C108.211 162.254 110.306 161.38 112.575 159.983L114.494 158.761V140.61C114.668 138.865 115.542 137.992 117.113 137.992H122.349C124.094 137.992 124.966 138.865 124.966 140.61V168.709C124.966 170.281 124.094 171.156 122.349 171.329H117.113C115.542 171.156 114.668 170.281 114.494 168.709ZM150.984 137.468C152.73 137.468 153.603 138.339 153.603 140.087V144.099C153.603 145.844 152.73 146.717 150.984 146.717H150.112C146.446 146.89 143.827 147.939 142.082 149.86V168.708C142.082 170.279 141.211 171.154 139.463 171.328H134.227C132.657 171.154 131.784 170.279 131.61 168.708V140.609C131.784 138.863 132.657 137.991 134.227 137.991H139.463C141.211 137.991 142.082 138.863 142.082 140.609V142.18C143.129 140.609 144.527 139.559 146.098 138.689C147.668 137.816 149.237 137.468 150.984 137.468ZM200.839 129.231H204.132C205.703 129.231 206.575 130.106 206.75 131.851V168.707C206.575 170.277 205.703 171.152 204.132 171.327H198.897C197.151 171.152 196.278 170.277 196.278 168.707L196.279 131.851C196.453 130.106 197.326 129.231 198.897 129.231H200.839ZM267.42 162.599H266.722C264.453 162.599 262.705 162.076 261.835 161.028C260.961 159.981 260.614 158.236 260.614 155.968V146.714H266.548C268.294 146.714 269.166 145.842 269.166 144.098V140.607C269.166 138.862 268.294 137.99 266.548 137.99H260.614V131.878C260.437 130.308 259.563 129.435 257.994 129.263H252.754C251.011 129.435 250.138 130.308 250.138 131.878V158.411C250.138 162.773 251.359 165.914 253.805 168.009C256.248 170.277 259.563 171.327 263.93 171.327H264.706C265.27 168.126 266.644 165.205 268.609 162.782C268.271 162.661 267.876 162.599 267.42 162.599ZM319.626 151.431H322.94C324.685 151.254 325.558 150.384 325.558 148.812V139.911C322.241 138.339 318.576 137.468 314.212 137.468C309.676 137.468 305.837 138.689 302.695 141.308C299.727 143.927 298.155 147.416 297.982 151.78V158.761C297.985 158.877 297.994 158.988 298 159.102C300.897 161.773 302.947 165.343 303.719 169.368C306.724 170.978 310.451 171.852 314.912 171.852C317.531 171.852 320.148 171.506 322.94 170.63C324.685 170.107 325.558 168.885 325.558 167.316V163.648C325.558 162.077 325.036 161.38 323.811 161.38L322.94 161.554C320.322 162.077 317.706 162.426 315.086 162.6C310.723 162.6 308.627 160.508 308.452 156.496V152.305C308.627 148.639 310.548 146.89 314.212 146.717C315.437 146.717 316.485 146.89 317.006 147.241V148.812C317.006 150.384 317.88 151.254 319.626 151.431Z" fill="#00457C"/>
</g>
<defs>
<radialGradient id="paint0_radial_730_18622" cx="0" cy="0" r="1" gradientUnits="userSpaceOnUse" gradientTransform="translate(290.74 164.393) scale(20.32 20.3077)">
<stop stop-color="white"/>
<stop offset="1" stop-color="#E4003C"/>
</radialGradient>
<radialGradient id="paint1_radial_730_18622" cx="0" cy="0" r="1" gradientUnits="userSpaceOnUse" gradientTransform="translate(290.741 164.393) scale(20.3188 20.3077)">
<stop stop-color="white"/>
<stop offset="1" stop-color="#E4003C"/>
</radialGradient>
<radialGradient id="paint2_radial_730_18622" cx="0" cy="0" r="1" gradientUnits="userSpaceOnUse" gradientTransform="translate(290.74 164.393) scale(20.32 20.3077)">
<stop stop-color="white"/>
<stop offset="1" stop-color="#E4003C"/>
</radialGradient>
<radialGradient id="paint3_radial_730_18622" cx="0" cy="0" r="1" gradientUnits="userSpaceOnUse" gradientTransform="translate(278.568 197.38) rotate(-14.8043) scale(20.8904 20.892)">
<stop stop-color="#E4003C"/>
<stop offset="0.1044" stop-color="white"/>
<stop offset="0.9286" stop-color="#E4003C"/>
<stop offset="1" stop-color="#E4003C"/>
</radialGradient>
<radialGradient id="paint4_radial_730_18622" cx="0" cy="0" r="1" gradientUnits="userSpaceOnUse" gradientTransform="translate(278.569 197.381) rotate(-14.8043) scale(20.8904 20.892)">
<stop stop-color="#E4003C"/>
<stop offset="0.1044" stop-color="white"/>
<stop offset="0.9286" stop-color="#E4003C"/>
<stop offset="1" stop-color="#E4003C"/>
</radialGradient>
<radialGradient id="paint5_radial_730_18622" cx="0" cy="0" r="1" gradientUnits="userSpaceOnUse" gradientTransform="translate(278.569 197.379) rotate(-14.8043) scale(20.8904 20.892)">
<stop stop-color="#E4003C"/>
<stop offset="0.1044" stop-color="white"/>
<stop offset="0.9286" stop-color="#E4003C"/>
<stop offset="1" stop-color="#E4003C"/>
</radialGradient>
</defs>
</svg>
