<svg width="480" height="320" viewBox="0 0 480 320" fill="none" xmlns="http://www.w3.org/2000/svg">
<path d="M124.164 169.679L111.154 160.58L98.1445 169.679L102.731 154.439L90.0938 144.816L106.007 144.489L111.154 129.454L116.398 144.489L132.217 144.816L119.579 154.439L124.168 169.677M329.166 136.504L313.533 133.761L305.576 147.503L303.329 131.748L287.791 128.369L302.02 121.376L300.429 105.547L311.475 116.976L325.985 110.576L318.587 124.634L329.166 136.502M214.401 103.544L201.391 94.4452L188.379 103.544L193.059 88.306L180.423 78.6823L196.242 78.3538L201.391 63.3223L206.633 78.3572L222.454 78.684L209.816 88.306L214.403 103.546M133.526 85.6275L146.537 94.7263L159.549 85.6275L154.961 100.877L167.598 110.489L151.781 110.818L146.537 125.859L141.389 110.818L125.57 110.489L138.112 100.877L133.526 85.6275ZM243.795 79.5813L258.868 84.4778L268.603 71.9707L268.694 87.8928L283.579 93.3972L268.508 98.3394L267.946 114.245L258.586 101.382L243.328 105.706L252.595 92.8164L243.795 79.5813Z" fill="#CD1339"/>
<path d="M97.11 178.393C97.11 178.393 77.8287 208.244 89.623 220.948C111.058 243.937 159.359 218.465 159.359 218.465C159.359 218.465 90.3714 257.754 74.7388 236.628C60.9788 218.176 97.11 178.393 97.11 178.393ZM267.944 176.447C342.736 139.818 439.713 136.439 401.709 187.811C401.616 187.998 421.367 134.202 267.944 176.447Z" fill="#122A4D"/>
<path d="M180.423 213.244L182.763 202.282H155.429L157.957 190.309H183.137L185.572 179.349H160.297L162.824 167.695H190.253L192.591 156.732H149.532L137.363 213.244H180.423ZM271.782 213.244L274.123 202.282H246.697L249.318 190.309H274.498L276.839 179.349H251.657L254.185 167.695H281.614L283.952 156.732H240.893L228.724 213.244H271.782Z" fill="#CD1339"/>
<path d="M187.537 213.244L193.62 202.208H216.554L217.959 213.244H235.652L225.448 156.732H206.351L171.904 213.244H187.537ZM199.986 191.245L212.717 167.768H212.903L215.059 191.245H199.986Z" fill="#122A4D"/>
<path d="M172.465 239.525L171.906 242.392H174.15L173.027 247.764C172.092 251.435 173.777 251.865 176.679 251.865C177.333 251.865 177.988 251.819 179.017 251.63L179.579 248.934C179.017 249.002 178.455 249.002 177.895 249.002C176.96 249.002 177.428 247.456 177.428 247.148L178.455 242.392H180.89L181.547 239.527H179.017L179.767 235.999L175.086 237.72L174.713 239.527H172.465M185.665 251.509L187.07 244.639C187.163 244.498 187.349 242.036 189.503 242.036C190.812 242.036 190.812 243.299 190.625 244.471L189.22 251.509H193.527L195.212 243.496C195.679 240.848 194.276 239.173 191.75 239.173C190.344 239.173 189.129 239.649 187.91 240.848L189.222 234.285H184.916L181.361 251.509H185.665ZM209.16 246.427C210.096 241.96 209.16 239.173 204.573 239.173C201.109 239.173 198.021 241.325 197.178 245.116C196.241 249.816 197.645 251.865 202.232 251.865C203.544 251.865 204.856 251.604 205.977 250.939C207.194 250.273 208.412 249.149 208.879 247.596H204.854C204.48 248.719 203.637 249.318 202.421 249.318C200.737 249.318 200.642 247.981 201.016 246.427H209.16ZM201.578 243.992C201.952 242.636 202.608 241.513 204.106 241.439C204.761 241.391 205.229 241.699 205.415 242.206C205.696 242.702 205.696 243.347 205.601 243.992H201.578ZM226.384 241.801C228.255 241.801 227.976 243.992 227.693 245.472C227.414 247.026 226.57 249.246 224.699 249.246C223.108 249.246 223.201 247.028 223.482 245.687C223.855 244.087 224.418 241.801 226.384 241.801ZM217.957 251.509H222.172L222.639 249.74H222.734C222.825 250.967 224.137 251.865 225.541 251.865C229.286 251.865 231.345 248.981 232.188 245.331C232.842 241.941 231.812 239.173 228.35 239.173C227.039 239.173 225.541 239.725 224.512 240.792L225.822 234.285H221.516L217.957 251.509ZM241.361 251.509H245.667C245.853 250.217 245.948 249.506 246.229 248.429L248.007 239.527H243.701L242.296 246.408C242.296 246.547 242.015 249 239.958 249C238.553 249 238.553 247.737 238.739 246.567L240.237 239.527H235.932L234.247 247.549C233.685 250.199 235.182 251.865 237.616 251.865C239.115 251.865 240.33 251.389 241.548 250.199L241.361 251.509ZM260.457 243.225C260.924 239.911 258.586 239.173 255.965 239.173C253.623 239.173 250.535 239.986 249.88 242.944C249.036 247.288 255.965 246.025 255.589 248.148C255.403 248.909 254.747 249.246 253.904 249.246C253.437 249.246 253.156 249 252.968 248.692C252.782 248.382 252.782 247.981 252.873 247.625H248.85C248.1 251.276 250.628 251.865 253.437 251.865C256.056 251.865 259.053 251.061 259.708 247.886C260.082 245.93 259.334 245.042 258.117 244.593C255.589 243.702 253.809 243.76 253.999 242.869C254.09 242.177 254.561 241.803 255.215 241.803C255.775 241.803 256.151 241.96 256.337 242.223C256.523 242.466 256.523 242.824 256.432 243.225H260.457ZM265.792 251.509L268.321 239.527H264.014L261.486 251.509H265.792ZM268.694 237.478L269.349 234.285H265.043L264.388 237.478H268.694ZM275.715 239.525H271.315C271.128 240.819 271.033 241.54 270.847 242.609L268.975 251.509H273.28L274.686 244.639C274.779 244.498 274.965 242.036 277.119 242.036C278.429 242.036 278.429 243.299 278.243 244.471L276.837 251.509H281.145L282.736 243.496C283.297 240.848 281.798 239.173 279.365 239.173C277.96 239.173 276.744 239.649 275.527 240.848L275.713 239.527M296.776 246.427C297.712 241.96 296.776 239.173 292.189 239.173C288.727 239.173 285.637 241.325 284.795 245.116C283.857 249.816 285.262 251.865 289.849 251.865C291.16 251.865 292.47 251.604 293.593 250.939C294.812 250.273 296.027 249.149 296.403 247.596H292.47C292.098 248.719 291.16 249.318 289.942 249.318C288.351 249.318 288.258 247.981 288.633 246.427H296.776ZM289.194 243.992C289.568 242.636 290.223 241.513 291.722 241.439C292.379 241.391 292.751 241.699 293.032 242.206C293.218 242.702 293.313 243.347 293.218 243.992H289.194ZM309.977 243.225C310.443 239.911 308.104 239.173 305.389 239.173C303.142 239.173 300.054 239.986 299.397 242.944C298.555 247.288 305.482 246.025 305.108 248.148C304.92 248.909 304.264 249.246 303.423 249.246C302.956 249.246 302.675 249 302.487 248.692C302.3 248.382 302.3 247.981 302.393 247.625H298.367C297.526 251.276 300.145 251.865 302.956 251.865C305.575 251.865 308.572 251.061 309.227 247.886C309.599 245.93 308.851 245.042 307.635 244.593C305.108 243.702 303.328 243.76 303.516 242.869C303.609 242.177 304.078 241.803 304.732 241.803C305.294 241.803 305.67 241.96 305.856 242.223C305.949 242.466 305.949 242.824 305.856 243.225H309.975M322.706 243.225C323.173 239.911 320.833 239.173 318.117 239.173C315.872 239.173 312.689 239.986 312.129 242.944C311.193 247.288 318.212 246.025 317.745 248.148C317.65 248.909 316.902 249.246 316.06 249.246C315.684 249.246 315.403 249 315.217 248.692C315.031 248.382 314.936 247.981 315.124 247.625H311.003C310.258 251.276 312.877 251.865 315.684 251.865C318.305 251.865 321.209 251.061 321.956 247.886C322.332 245.93 321.583 245.042 320.271 244.593C317.745 243.702 316.06 243.76 316.153 242.869C316.34 242.177 316.807 241.803 317.464 241.803C318.026 241.803 318.305 241.96 318.492 242.223C318.681 242.466 318.681 242.824 318.586 243.225H322.706ZM335.343 247.671C335.53 246.828 336.186 246.408 336.84 246.071C337.495 245.761 338.338 245.81 339.275 245.81C338.899 247.41 338.432 249.246 336.559 249.246C335.717 249.246 335.248 248.533 335.343 247.671ZM342.363 251.509C342.549 250.077 342.549 249.554 342.644 249.058L343.861 242.898C344.515 240.201 341.896 239.173 339.554 239.173C338.338 239.173 336.84 239.312 335.53 239.893C334.219 240.435 333.19 241.417 332.909 243.113H336.933C337.028 242.392 337.59 241.325 338.711 241.269C340.397 241.202 339.93 242.729 339.647 243.777H338.338C334.593 243.777 331.786 244.976 331.129 247.886C330.662 250.341 331.691 251.865 334.407 251.865C336.559 251.865 337.776 250.752 338.432 249.891H338.525C338.338 250.752 338.244 251.127 338.244 251.509H342.363ZM349.571 251.509L352.098 239.527H347.698L345.265 251.509H349.571ZM352.474 237.478L353.128 234.285H348.822L348.167 237.478H352.474ZM359.492 239.525H355.094C354.907 240.819 354.814 241.54 354.533 242.609L352.754 251.509H357.059L358.089 246.716C358.461 244.424 359.494 243.018 361.739 242.991C362.02 242.991 362.301 242.991 362.675 243.018L363.424 239.173C361.553 239.124 359.961 239.79 359.118 241.776H359.025L359.492 239.527M367.357 251.509L370.912 234.285H366.514L363.051 251.509H367.357ZM374.939 251.509L377.372 239.527H373.066L370.631 251.509H374.939ZM377.841 237.478L378.496 234.285H374.095L373.537 237.478H377.841ZM384.767 239.525H380.462C380.275 240.819 380.181 241.54 379.899 242.609L378.122 251.509H382.427L383.833 244.639C383.833 244.498 384.112 242.036 386.171 242.036C387.576 242.036 387.576 243.299 387.388 244.471L385.891 251.509H390.197L391.882 243.496C392.442 240.848 390.944 239.173 388.512 239.173C387.014 239.173 385.797 239.649 384.581 240.848L384.767 239.527M405.923 246.427C406.764 241.96 405.923 239.173 401.241 239.173C397.872 239.173 394.689 241.325 393.941 245.116C393.004 249.816 394.316 251.865 398.901 251.865C400.212 251.865 401.617 251.604 402.74 250.939C403.957 250.273 405.08 249.149 405.547 247.596H401.619C401.15 248.719 400.307 249.318 399.089 249.318C397.498 249.318 397.405 247.981 397.684 246.427H405.923ZM398.341 243.992C398.713 242.636 399.276 241.513 400.774 241.439C401.522 241.391 401.897 241.699 402.179 242.206C402.366 242.702 402.459 243.347 402.272 243.992H398.341Z" fill="#CD1339"/>
</svg>
