<svg width="480" height="320" viewBox="0 0 480 320" fill="none" xmlns="http://www.w3.org/2000/svg">
<g clip-path="url(#clip0_730_18345)">
<path d="M313.404 89.2276C297.787 67.4929 272.288 53.334 243.479 53.334C195.963 53.334 157.44 91.8565 157.44 139.373C157.44 145.413 158.064 151.299 159.246 156.984L245.754 118.623H198.436C206.322 101.709 223.473 89.972 243.365 89.972C257.027 89.972 269.4 95.5034 278.365 104.438L313.404 89.2276Z" fill="#00426C"/>
<path d="M331.032 85.002L244.611 173.072H134.706L331.032 85.002Z" fill="#008DBB"/>
<mask id="mask0_730_18345" style="mask-type:luminance" maskUnits="userSpaceOnUse" x="-63" y="-464" width="1415" height="1001">
<path d="M-62.918 536.119H1351.28V-463.82H-62.918V536.119Z" fill="white"/>
</mask>
<g mask="url(#mask0_730_18345)">
<path d="M243.167 188.923C231.536 188.948 220.254 184.955 211.229 177.618H165.015C179.377 205.983 209.03 225.457 243.281 225.457C278.533 225.457 308.937 204.938 322.787 175.23H277.866C268.469 184.052 256.056 188.951 243.167 188.925" fill="#00426C"/>
</g>
<path d="M152.918 257.072H145.056V263.2H153.846V266.326H141.248V245.465H153.381V248.591H145.056V253.976H152.918L152.918 257.072Z" fill="#00426C"/>
<mask id="mask1_730_18345" style="mask-type:luminance" maskUnits="userSpaceOnUse" x="-63" y="-464" width="1415" height="1001">
<path d="M-62.918 536.119H1351.28V-463.82H-62.918V536.119Z" fill="white"/>
</mask>
<g mask="url(#mask1_730_18345)">
<path d="M160.961 245.464V257.627C160.961 261.714 162.665 263.602 165.233 263.602C167.988 263.602 169.629 261.714 169.629 257.627V245.464H173.436V257.38C173.436 263.819 170.123 266.666 165.109 266.666C160.279 266.666 157.153 263.973 157.153 257.41V245.464H160.961ZM177.793 245.773C179.248 245.494 181.354 245.309 183.55 245.309C186.553 245.309 188.565 245.803 189.988 246.981C191.134 247.94 191.786 249.394 191.786 251.19C191.786 253.883 189.956 255.709 187.976 256.389V256.483C189.493 257.041 190.391 258.494 190.885 260.506C191.567 263.107 192.125 265.52 192.526 266.325H188.626C188.317 265.707 187.791 264.005 187.233 261.403C186.615 258.68 185.654 257.814 183.489 257.751H181.569V266.325H177.793V245.773ZM181.569 254.966H183.828C186.398 254.966 187.977 253.604 187.977 251.529C187.977 249.27 186.398 248.188 183.921 248.188C182.715 248.188 181.94 248.281 181.569 248.373V254.966ZM203.944 266.664C198.031 266.664 194.317 262.146 194.317 256.048C194.317 249.673 198.372 245.124 204.253 245.124C210.32 245.124 213.91 249.735 213.91 255.679C213.91 262.673 209.67 266.664 203.974 266.664H203.944ZM204.129 263.602C207.812 263.602 209.887 260.197 209.887 255.833C209.887 251.902 207.937 248.188 204.13 248.188C200.322 248.188 198.342 251.808 198.342 255.957C198.342 260.105 200.447 263.6 204.098 263.6L204.129 263.602ZM232.134 265.707C231.237 266.139 229.255 266.634 226.718 266.634C220.093 266.634 216.069 262.487 216.069 256.142C216.069 249.272 220.868 245.153 227.244 245.153C229.75 245.153 231.516 245.648 232.289 246.052L231.482 249.084C230.495 248.65 229.1 248.279 227.399 248.279C223.157 248.279 220.092 250.941 220.092 255.956C220.092 260.536 222.756 263.448 227.369 263.448C228.884 263.448 230.493 263.137 231.516 262.703L232.134 265.707ZM243.117 266.664C237.205 266.664 233.491 262.146 233.491 256.048C233.491 249.673 237.545 245.124 243.426 245.124C249.493 245.124 253.084 249.735 253.084 255.679C253.084 262.673 248.843 266.664 243.149 266.664H243.117ZM243.303 263.602C246.985 263.602 249.06 260.197 249.06 255.833C249.06 251.902 247.111 248.188 243.303 248.188C239.495 248.188 237.514 251.808 237.514 255.957C237.514 260.105 239.619 263.6 243.271 263.6L243.303 263.602ZM256.326 266.325V245.464H260.694L266.078 254.409C267.411 256.662 268.601 258.999 269.639 261.403L269.701 261.373C269.42 258.618 269.358 255.925 269.358 252.739V245.465H272.886V266.325H268.927L263.477 257.132C262.147 254.84 260.786 252.304 259.765 249.95L259.641 249.984C259.795 252.675 259.857 255.43 259.857 258.865V266.325H256.326Z" fill="#00426C"/>
</g>
<path d="M281.269 248.653H275.326V245.465H291.081V248.653H285.077V266.328H281.269V248.653Z" fill="#00426C"/>
<mask id="mask2_730_18345" style="mask-type:luminance" maskUnits="userSpaceOnUse" x="-63" y="-464" width="1415" height="1001">
<path d="M-62.918 536.119H1351.28V-463.82H-62.918V536.119Z" fill="white"/>
</mask>
<g mask="url(#mask2_730_18345)">
<path d="M293.521 245.773C294.976 245.494 297.081 245.309 299.278 245.309C302.282 245.309 304.294 245.803 305.717 246.98C306.862 247.939 307.512 249.394 307.512 251.19C307.512 253.883 305.687 255.708 303.706 256.389V256.483C305.221 257.041 306.12 258.494 306.612 260.506C307.296 263.106 307.853 265.52 308.255 266.325H304.354C304.045 265.707 303.52 264.005 302.96 261.403C302.344 258.68 301.381 257.813 299.218 257.751H297.298V266.325H293.521V245.773ZM297.298 254.966H299.557C302.127 254.966 303.706 253.604 303.706 251.529C303.706 249.27 302.127 248.188 299.649 248.188C298.443 248.188 297.667 248.28 297.298 248.373V254.966ZM319.671 266.664C313.76 266.664 310.044 262.145 310.044 256.048C310.044 249.673 314.099 245.124 319.98 245.124C326.047 245.124 329.637 249.735 329.637 255.678C329.637 262.673 325.397 266.664 319.701 266.664H319.671ZM319.856 263.602C323.539 263.602 325.614 260.197 325.614 255.833C325.614 251.902 323.664 248.188 319.856 248.188C316.049 248.188 314.069 251.808 314.069 255.957C314.069 260.104 316.173 263.6 319.825 263.6L319.856 263.602Z" fill="#00426C"/>
</g>
<path d="M332.912 245.465H336.72V263.138H345.294V266.326H332.912V245.465Z" fill="#00426C"/>
</g>
<defs>
<clipPath id="clip0_730_18345">
<rect width="480" height="320" fill="white"/>
</clipPath>
</defs>
</svg>
