<svg width="480" height="320" viewBox="0 0 480 320" fill="none" xmlns="http://www.w3.org/2000/svg">
<path fill-rule="evenodd" clip-rule="evenodd" d="M260.043 138.599H248.479V132.431H260.043C261.199 132.431 261.97 133.01 261.97 134.166V136.865C261.97 138.02 261.199 138.599 260.043 138.599H260.043ZM169.653 143.803C169.075 143.803 168.69 143.417 168.69 142.84V140.526H185.265V136.094H168.69V133.396C168.69 132.817 169.075 132.432 169.653 132.432H186.614V128H167.534C166.184 128 165.028 128.384 164.257 129.348C163.293 130.312 162.715 131.275 162.715 132.625V143.418C162.715 144.767 163.293 145.923 164.257 146.887C165.129 147.752 166.307 148.237 167.534 148.236H186.614V143.803L169.653 143.803ZM202.031 143.803L193.552 127.999H186.998L196.443 145.729C197.214 147.464 198.563 148.236 200.103 148.236H206.272L217.064 127.999H210.512L202.031 143.803ZM223.425 143.803C222.845 143.803 222.461 143.417 222.461 142.84V140.526H239.228V136.094H222.461V133.396C222.461 132.817 222.845 132.432 223.424 132.432H240.191V128H221.304C219.954 128 218.798 128.384 218.028 129.348C217.064 130.312 216.678 131.275 216.678 132.625V143.418C216.678 144.767 217.064 145.923 218.028 146.887C218.899 147.752 220.077 148.237 221.304 148.236H240.191V143.803L223.425 143.803ZM264.668 140.333C266.785 139.948 267.751 138.791 267.751 136.479V132.624C267.751 131.274 267.367 130.312 266.403 129.347C265.439 128.383 264.281 127.999 262.932 127.999H242.696V148.236H248.478V143.031H258.501C261.006 143.031 262.164 143.803 262.164 145.345V148.236H267.944V143.995C267.944 141.682 266.98 140.333 264.668 140.333ZM282.013 136.286V140.526H291.071C291.263 140.526 291.263 140.718 291.263 141.297V142.26C291.263 143.225 290.687 143.803 289.722 143.803H278.16C277.001 143.803 276.423 143.225 276.423 142.068V134.166C276.423 133.01 277.001 132.431 278.16 132.431H296.66C297.045 132.431 297.238 132.239 297.238 132.046C297.238 131.66 296.66 130.697 295.504 129.54C294.733 128.577 293.385 127.999 291.843 127.999H275.268C273.92 127.999 272.956 128.383 271.992 129.347C271.03 130.312 270.644 131.275 270.644 132.624V143.417C270.644 144.766 271.03 145.922 271.992 146.886C272.956 147.657 273.92 148.236 275.268 148.236H292.806C293.963 148.236 295.117 147.657 296.082 146.692C296.947 145.821 297.432 144.644 297.432 143.417V136.286H282.013ZM322.101 140.333C324.221 139.947 325.184 138.791 325.184 136.478V132.623C325.184 131.273 324.798 130.312 323.835 129.346C322.872 128.382 321.715 127.998 320.365 127.998H300.131V148.235H305.911V143.03H315.933C318.439 143.03 319.594 143.802 319.594 145.344V148.235H325.377V143.994C325.377 141.682 324.414 140.333 322.101 140.333ZM335.014 143.802C334.241 143.802 333.856 143.416 333.856 142.839V140.525H350.625V136.094H333.856V133.396C333.856 132.817 334.241 132.432 334.821 132.432H351.78V128H332.7C331.351 128 330.388 128.384 329.425 129.348C328.461 130.312 328.076 131.275 328.076 132.625V143.418C328.076 144.767 328.461 145.923 329.425 146.887C330.388 147.658 331.351 148.236 332.7 148.236H351.78V143.803L335.014 143.802ZM360.645 143.802C359.874 143.802 359.682 143.416 359.682 142.839V140.525H376.257V136.094H359.682V133.396C359.682 132.817 359.874 132.432 360.645 132.432H377.414V128H358.526C357.178 128 356.021 128.384 355.055 129.348C354.286 130.312 353.707 131.275 353.707 132.625V143.418C353.707 144.767 354.286 145.923 355.056 146.887C356.021 147.658 357.178 148.236 358.526 148.236H377.414V143.803L360.645 143.802ZM399.577 127.998V140.911L388.593 129.926C387.244 128.769 385.895 127.999 384.546 127.999H379.727V148.236H385.703V135.322L397.65 147.464C398.23 147.851 399.001 148.236 400.157 148.236H405.553V127.999L399.577 127.998ZM317.475 138.598H305.911V132.431H317.475C318.631 132.431 319.402 133.01 319.402 134.166V136.865C319.402 138.02 318.631 138.599 317.475 138.599V138.598Z" fill="#0B3E27"/>
<path fill-rule="evenodd" clip-rule="evenodd" d="M104.512 124.337C85.8181 126.264 76.5681 130.311 76.5681 136.479C76.5681 139.754 78.8795 142.645 83.698 144.959C88.7092 147.464 95.4543 149.005 104.512 149.776C96.2252 146.501 91.9857 142.26 91.9857 137.25C91.9857 132.045 96.2252 127.806 104.512 124.529V124.337ZM200.3 190.056C183.339 190.056 172.353 189.865 167.536 189.48C169.461 192.753 173.509 195.646 179.291 197.766C185.265 199.693 192.204 200.849 200.3 200.849H211.477C199.335 214.917 183.916 222.047 165.03 222.047C149.225 222.047 135.542 216.653 123.979 206.244C112.415 195.645 105.862 182.54 104.32 166.932C115.884 169.049 131.88 170.013 151.924 170.013H244.818L231.135 156.328C230.943 154.211 230.75 152.281 230.557 150.163H225.353C225.737 152.281 225.931 154.211 225.931 156.329H153.273C127.255 156.329 107.983 154.981 95.4535 152.281C83.3125 149.776 76.3754 146.307 74.64 141.682C74.4473 142.839 74.4473 143.802 74.4473 144.766C74.4473 150.355 77.1456 155.172 82.735 159.22C87.168 162.303 92.5639 164.615 98.9236 165.966C100.273 183.12 107.211 197.572 119.931 209.522C132.651 221.276 147.683 227.252 165.029 227.252C175.822 227.252 185.844 224.939 195.287 220.121C204.346 215.497 211.862 208.946 218.029 200.849H275.462L264.863 190.056H200.3ZM164.836 121.832C150.961 121.832 139.781 123.372 131.495 126.264C123.593 129.156 119.739 132.816 119.739 137.056C119.739 141.489 123.593 145.344 131.495 148.235C139.975 151.126 150.961 152.667 164.836 152.667C167.342 152.667 170.425 152.667 173.895 152.281C165.8 151.704 158.862 149.968 152.887 147.078C147.106 144.188 144.022 140.912 144.022 137.249C144.022 133.588 147.106 130.311 152.887 127.42C158.862 124.529 165.8 122.794 173.895 122.217C170.811 122.024 167.728 121.832 164.836 121.832ZM162.137 174.062C145.563 174.062 132.074 173.482 121.665 172.327C123.785 176.374 128.218 179.842 135.156 182.348C142.288 184.852 150.382 186.203 159.633 186.203H261.007L248.865 174.062H162.137ZM197.214 103.137C187.193 97.5465 176.593 94.8496 165.03 94.8496C153.466 94.8496 142.866 97.5472 132.843 103.137C123.014 108.532 115.113 116.049 109.139 125.3C99.6938 127.998 95.0695 131.853 95.0695 136.864C95.0695 141.297 98.7308 144.958 106.055 147.85C113.956 151.126 124.556 152.667 137.855 152.667C138.048 152.475 138.048 152.475 137.855 152.475C131.88 151.126 126.677 149.199 122.63 146.307C118.583 143.417 116.655 140.526 116.655 137.25C116.655 133.973 118.582 130.889 122.629 127.998C126.677 125.3 131.687 123.372 137.855 122.217C138.048 122.217 138.048 122.217 137.855 122.217C129.953 122.217 122.822 122.602 116.655 123.76C122.245 116.435 129.375 110.461 137.855 106.22C146.334 101.979 155.393 99.8601 165.03 99.8601C175.051 99.8601 184.494 102.173 193.168 106.799C201.84 111.23 208.779 117.397 214.561 125.106H220.728C214.753 115.664 207.044 108.34 197.215 103.137H197.214Z" fill="#0B3E27"/>
</svg>
