<svg width="480" height="320" viewBox="0 0 480 320" fill="none" xmlns="http://www.w3.org/2000/svg">
<path d="M382.191 114.35H412.599L382.881 147.768L413.006 181.459H381.371L366.718 165.028L352.2 181.459H321.652L351.514 147.907L321.652 114.35H353.158L367.95 130.651L382.191 114.35Z" fill="#FF5900"/>
<path d="M287.832 137.025V157.832H321.652V181.46H262.977V75.7461H321.652V99.3098H287.832V114.35H321.652V137.025H287.832Z" fill="#FF5900"/>
<path d="M238.227 75.7461V119.009H237.954C232.47 112.711 225.626 110.52 217.683 110.52C201.411 110.52 189.152 121.587 184.851 136.21C179.939 120.097 167.283 110.217 148.517 110.217C133.278 110.217 121.243 117.057 114.965 128.203V114.35H83.4635V99.3098H117.84V75.7461H55.3848V181.46H83.4635V137.025H111.453C110.618 140.288 110.171 143.785 110.171 147.475C110.171 169.524 127.02 185.001 148.517 185.001C166.597 185.001 178.513 176.513 184.811 161.04H160.746C157.492 165.694 155.024 167.07 148.517 167.07C140.972 167.07 134.465 160.489 134.465 152.686H183.465C185.591 170.2 199.236 185.304 217.956 185.304C226.033 185.304 233.429 181.331 237.949 174.625H238.222V181.47H262.973V75.7461H238.227ZM135.25 137.338C136.81 130.622 142.02 126.236 148.522 126.236C155.679 126.236 160.622 130.488 161.923 137.338H135.25ZM223.202 165.367C214.077 165.367 208.405 156.863 208.405 147.987C208.405 138.5 213.337 129.375 223.202 129.375C233.429 129.375 237.502 138.5 237.502 147.987C237.502 156.982 233.185 165.367 223.202 165.367ZM262.983 234.319V196.436H283.914V199.262H266.435V213.229H283.174V216.055H266.435V231.483H284.694V234.314H262.983V234.319ZM287.192 234.319L297.399 220.714L287.719 207.845H291.643L299.545 218.36L307.289 207.845H311.213L301.378 220.714L311.63 234.319H307.656L299.178 223.064L291.121 234.319H287.192ZM318.271 244.253H315.077V215.747C315.077 213.13 315.077 210.467 314.918 207.845H318.062L318.167 211.823C320.148 208.679 322.766 207.219 326.695 207.219C334.856 207.219 338.358 213.964 338.358 221.077C338.358 228.2 334.856 234.945 326.695 234.945C323.029 234.945 320.153 233.534 318.271 230.495V244.253ZM334.96 221.077C334.96 215.43 332.601 209.881 326.328 209.881C320.417 209.881 318.271 214.749 318.271 221.077C318.271 227.41 320.417 232.273 326.328 232.273C332.606 232.273 334.96 226.73 334.96 221.077ZM354.769 210.299C349.484 210.299 347.646 214.749 347.646 219.349V234.319H344.452V215.633C344.452 213.07 344.403 210.462 344.298 207.845H347.447L347.651 211.665C349.221 208.635 351.843 207.219 355.345 207.219C355.817 207.219 356.338 207.269 356.81 207.323V210.517C356.075 210.403 355.499 210.299 354.769 210.299ZM360.719 221.653C360.719 227.614 363.541 232.531 369.347 232.531C373.842 232.531 375.938 229.551 376.723 226.571H379.758C378.342 232.114 374.94 234.945 368.925 234.945C360.868 234.945 357.307 228.98 357.307 221.554C357.307 213.969 361.022 207.219 369.342 207.219C377.766 207.219 380.016 214.59 380.016 221.653H360.719ZM360.819 219.249H376.619C376.619 214.069 374.165 209.623 369.139 209.623C364.589 209.618 361.445 213.07 360.819 219.249ZM392.479 234.945C387.04 234.945 382.962 232.377 382.962 226.571H386.156C386.156 230.544 388.768 232.531 392.643 232.531C396.254 232.531 399.075 230.803 399.075 227.256C399.075 224.062 395.782 223.223 392.33 222.229C388.147 221.027 383.593 219.716 383.593 214.59C383.593 208.893 388.351 207.219 392.802 207.219C397.923 207.219 401.747 209.201 401.901 214.694H398.707C398.553 211.56 396.303 209.782 392.901 209.782C390.234 209.782 386.99 210.825 386.99 214.277C386.99 217.421 390.234 218.31 393.686 219.249C397.878 220.397 402.477 221.653 402.477 226.784C402.472 232.745 397.873 234.945 392.479 234.945ZM414.612 234.945C409.168 234.945 405.09 232.377 405.09 226.571H408.284C408.284 230.544 410.897 232.531 414.776 232.531C418.387 232.531 421.208 230.803 421.208 227.256C421.208 224.062 417.91 223.223 414.458 222.229C410.276 221.027 405.726 219.716 405.726 214.59C405.726 208.893 410.484 207.219 414.935 207.219C420.056 207.219 423.88 209.201 424.034 214.694H420.841C420.687 211.56 418.437 209.782 415.034 209.782C412.367 209.782 409.123 210.825 409.123 214.277C409.123 217.421 412.367 218.31 415.824 219.249C420.011 220.397 424.616 221.653 424.616 226.784C424.606 232.745 420.001 234.945 414.612 234.945Z" fill="#2A007C"/>
</svg>
