<svg width="480" height="320" viewBox="0 0 480 320" fill="none" xmlns="http://www.w3.org/2000/svg">
<path d="M86.5165 161.005C86.6476 160.81 86.7664 160.605 86.8973 160.409C86.9775 160.288 87.0617 160.17 87.1499 160.055C87.2357 159.941 87.362 159.83 87.41 159.695C87.425 159.661 87.4208 159.663 87.394 159.63C87.352 159.569 87.3349 159.506 87.2985 159.447C87.2527 159.364 87.2001 159.284 87.1414 159.21C86.9657 158.969 86.5648 158.311 86.2323 157.82C85.9036 157.329 85.4365 156.571 85.0723 156.08C85.0723 156.08 84.9321 156.31 84.6591 156.769C84.3907 157.23 83.9714 157.858 83.7212 158.209C83.5341 158.486 83.2378 158.872 82.7221 159.556C82.9469 159.888 83.3659 160.751 83.7303 161.275C84.0896 161.799 84.679 162.622 85.073 163.17C85.2686 162.929 85.402 162.771 85.5086 162.593C85.6226 162.42 85.8157 162.195 85.9072 162.019C86.0057 161.842 86.1534 161.615 86.4263 161.135C86.4504 161.088 86.4859 161.047 86.5165 161.005ZM85.1549 171.591C85.2642 171.339 85.4011 170.588 85.4935 170.139C85.5832 169.686 85.6123 169.116 85.6761 168.633C85.7438 168.151 85.656 167.335 85.6004 166.975C85.5422 166.61 85.4322 166.225 85.316 165.943C85.1991 165.656 85.0672 165.393 84.872 165.203C84.7969 165.397 84.7769 165.517 84.7239 165.674C84.6595 165.859 84.64 166.019 84.5656 166.214C84.4938 166.404 84.3651 166.859 84.318 166.963C84.2411 167.119 84.2318 167.268 84.1554 167.561C84.0831 167.853 84.044 168.36 84.0316 168.496C84.021 168.635 84.1681 169.551 84.2092 169.895C84.2579 170.244 84.4261 170.993 84.5262 171.29C84.6255 171.585 84.8361 172.042 84.8989 172.213C85.0459 172.07 85.0459 171.84 85.155 171.591M81.0286 169.083C81.1491 168.928 81.5155 168.435 81.8464 168.083C82.179 167.732 82.3221 167.348 82.4409 166.99C82.5641 166.629 82.7195 165.969 82.7494 165.617C82.7822 165.257 82.7298 165.101 82.7194 164.976C82.6965 164.747 82.667 164.689 82.5703 164.792C82.5098 164.846 82.2213 165.18 81.9938 165.445C81.7674 165.708 81.4028 166.235 81.2748 166.54C81.1426 166.848 80.9275 167.367 80.8561 167.739C80.779 168.106 80.7029 168.659 80.6844 168.819C80.667 168.979 80.6844 169.223 80.7054 169.398C80.8174 169.354 80.9145 169.237 81.0286 169.083ZM78.6828 166.527C78.9562 166.347 79.3182 166.165 79.8043 165.656C80.2891 165.149 80.4697 164.835 80.7387 164.375C81.007 163.915 81.0656 163.663 81.2173 163.403C81.3655 163.137 81.3774 163.082 81.2534 163.103C81.0774 163.139 81.0456 163.139 80.5872 163.411C80.1347 163.681 79.6245 164.249 79.4114 164.451C79.1935 164.654 78.6936 165.425 78.5639 165.672C78.4389 165.912 78.0953 166.633 77.9756 166.792C77.8535 166.957 77.999 166.916 78.2181 166.79C78.3503 166.701 78.4015 166.705 78.6828 166.527M76.9182 163.752C76.4229 163.87 75.7411 163.835 75.3561 163.822C75.4799 163.652 75.9374 163.314 76.3093 163.034C76.6863 162.753 77.2413 162.567 77.4316 162.472C77.6221 162.375 77.9202 162.229 78.1469 162.182C78.3733 162.127 78.3928 162.087 78.5927 162.048C78.8261 162.004 79.0032 162.022 79.3424 161.96C79.5295 161.922 79.6226 161.935 79.8454 161.996C79.9181 162.015 79.9494 162.054 79.891 162.118C79.85 162.165 79.7831 162.201 79.7292 162.237C79.6919 162.266 79.6565 162.293 79.6129 162.326C79.5292 162.384 79.4634 162.452 79.374 162.507C79.291 162.559 79.208 162.608 79.1268 162.66C78.9068 162.809 78.6868 162.957 78.4718 163.117C77.9718 163.485 77.4066 163.631 76.9182 163.752ZM79.7298 159.474C79.5635 159.347 79.1289 159.256 78.8591 159.201C78.5641 159.137 78.1304 159.036 77.8252 159.041C77.5239 159.047 77.0961 159.025 76.7322 158.999C76.3736 158.978 75.8501 159.026 75.4034 159.146C74.9526 159.268 74.4484 159.407 74.1383 159.532C73.9263 159.615 73.7017 159.682 73.4011 159.823C73.2412 159.9 73.0418 159.899 72.8147 160.027C72.5856 160.156 72.6041 160.194 72.6723 160.206C72.7366 160.22 72.9955 160.321 73.1787 160.335C73.4312 160.353 73.9819 160.499 74.6041 160.545C75.2297 160.598 75.876 160.587 76.4087 160.569C76.9481 160.553 77.5765 160.499 78.4102 160.205C78.6839 160.057 78.7904 160.097 79.0807 159.994C79.377 159.891 79.5347 159.815 80.0117 159.68C79.8701 159.578 79.8951 159.598 79.7297 159.474M85.242 152.657C85.2981 152.52 85.3411 152.408 85.3682 152.111C85.3928 151.84 85.4662 151.534 85.4878 151.264C85.5078 151 85.5876 150.482 85.5902 150.236C85.5945 149.85 85.5997 149.727 85.5929 149.485C85.5821 149.201 85.5557 148.245 85.407 147.654C85.2641 147.062 85.2493 146.745 84.8744 146.207C84.5166 146.593 84.4341 147.336 84.38 147.702C84.3279 148.068 84.279 148.681 84.2624 149.301C84.2341 150.16 84.3193 151.188 84.4204 151.593C84.5181 152.004 84.7178 152.832 84.8104 152.982C84.9638 153.217 84.9633 153.168 85.1203 152.915C85.1203 152.915 85.1745 152.822 85.242 152.657M86.867 153.827C86.8335 153.771 86.8041 153.592 86.8048 153.485C86.8002 153.318 86.7673 153.319 86.8457 153.035C86.9261 152.752 87.0684 152.081 87.1715 151.778C87.2737 151.472 87.533 150.902 87.7826 150.667C88.0321 150.435 88.5496 149.743 88.9523 149.42C88.9523 149.42 88.7702 150.67 88.6113 151.151C88.4655 151.608 88.3167 152.022 88.0633 152.592C87.8021 153.162 87.353 153.614 87.0522 153.864C86.9456 153.902 86.9015 153.885 86.867 153.827ZM89.1484 155.287C89.461 155.156 89.9126 154.797 90.3055 154.483C90.6977 154.165 90.8135 154.006 91.0518 153.71C91.2882 153.414 91.4811 152.919 91.5946 152.707C91.7117 152.489 91.891 152.274 91.6348 152.386C91.3717 152.495 91.363 152.536 90.9769 152.71C90.5874 152.877 90.6549 152.845 89.929 153.459C89.1984 154.07 88.7618 154.886 88.6198 155.411C88.6198 155.411 88.8395 155.418 89.1484 155.287ZM91.0558 156.895C91.3609 156.805 91.8739 156.436 92.3818 156.058C92.8864 155.682 93.1507 155.298 93.5576 154.754C93.3975 154.767 93.1304 154.8 92.7924 154.883C92.4544 154.963 92.2638 155.052 91.9739 155.193C91.6864 155.332 91.546 155.467 91.1717 155.621C90.8541 155.762 90.5732 155.969 90.3027 156.182C90.1826 156.279 90.0641 156.36 89.9769 156.489C89.8971 156.613 89.8359 156.785 89.774 156.919C89.7342 156.997 89.7 157.09 89.6892 157.176C89.6737 157.301 89.7985 157.262 89.8853 157.246C90.0112 157.227 90.1334 157.181 90.2527 157.147C90.4496 157.089 90.7595 156.988 91.0558 156.895ZM97.4211 159.389C97.3465 159.313 97.2203 159.207 96.9 159.093C96.5728 158.978 95.9857 158.842 95.6531 158.755C95.3174 158.659 94.9696 158.619 94.5862 158.588C94.1992 158.553 93.9842 158.548 93.4608 158.519C93.1746 158.5 92.6637 158.551 92.217 158.672C91.7682 158.792 90.5184 159.261 90.2232 159.352C89.9199 159.446 90.1365 159.585 90.213 159.672C90.2881 159.763 90.6231 159.868 90.7595 159.895C90.8935 159.918 91.1002 159.992 91.3837 160.04C91.6671 160.09 92.4142 160.171 93.2999 160.168C94.1837 160.155 94.788 160.135 95.5181 160.065C96.2482 159.994 97.0502 159.743 97.5864 159.557C97.5864 159.557 97.5029 159.46 97.4211 159.389M94.9765 163.095C94.8091 162.972 94.2924 162.714 93.9459 162.561C93.6013 162.411 93.0839 162.119 92.606 161.947C92.1287 161.77 91.6595 161.799 91.383 161.794C91.1115 161.789 90.8481 161.759 90.5446 161.833C90.5446 161.833 90.5747 161.983 90.7962 162.156C91.0174 162.333 91.758 162.681 92.1127 162.842C92.4612 163.005 93.0358 163.192 93.5934 163.294C94.1453 163.393 94.7305 163.399 95.2295 163.37C95.2295 163.37 95.1414 163.225 94.9764 163.095M92.2413 166.609C92.0073 166.245 91.7675 165.847 91.2625 165.32C90.7626 164.79 90.2301 164.391 89.9309 164.199C89.6338 164.005 89.3854 163.909 89.1522 163.734C88.9157 163.562 88.9665 163.723 89.2522 164.206C89.538 164.687 89.9886 165.486 90.1523 165.695C90.3172 165.902 90.6375 166.123 90.9635 166.316C91.2951 166.511 91.6636 166.706 91.8258 166.844C91.9883 166.979 92.32 167.141 92.4945 167.21C92.4643 167.038 92.4153 166.89 92.2413 166.609M88.9361 167.867C88.8643 167.279 88.5723 166.713 88.3539 166.473C88.1314 166.234 88.2437 166.321 87.9771 165.966C87.7086 165.611 87.3939 165.186 87.0963 164.899C86.9202 164.728 86.8926 164.66 86.8986 164.846C86.8986 164.846 86.9035 165.209 86.9173 165.329C86.9555 165.685 87.0211 166.24 87.3926 167.187C87.7711 168.134 88.3819 168.972 88.9686 169.639C89.1114 169.202 88.9978 168.455 88.9361 167.867M80.1734 157.162C79.9447 157.024 79.4744 156.694 78.9558 156.282C78.4413 155.87 78.1022 155.855 77.7447 155.737C77.3888 155.621 76.4761 155.462 76.3899 155.428C76.289 155.391 76.3017 155.383 76.1072 155.349C75.9835 155.334 75.9464 155.316 75.7198 155.352C75.7198 155.352 75.7979 155.486 75.8464 155.542C75.9006 155.602 76.0508 155.817 76.2282 155.95C76.5173 156.177 76.8743 156.356 77.2537 156.627C77.6387 156.902 78.137 157.057 78.7425 157.232C79.3484 157.402 79.9233 157.434 80.3625 157.472C80.7261 157.46 80.4019 157.301 80.1734 157.162ZM81.4554 155.628C81.4326 155.506 81.3304 155.212 81.1262 154.783C80.9388 154.4 80.6926 154.049 80.3968 153.743C80.1418 153.478 80.0453 153.371 79.9614 153.278C79.8834 153.187 79.6497 153.005 79.5325 152.93C79.4153 152.854 79.1287 152.599 78.8208 152.47C78.5024 152.336 78.3884 152.247 77.9463 152.076C77.5098 151.909 77.6046 152.067 77.6845 152.225C77.7712 152.386 77.9983 152.858 78.2362 153.298C78.4827 153.732 78.5958 153.852 78.8313 154.102C79.0617 154.363 79.4155 154.62 79.7085 154.837C79.9986 155.052 80.3266 155.213 80.5567 155.334C80.7837 155.459 81.1894 155.715 81.4791 155.846C81.4791 155.846 81.461 155.663 81.4554 155.628M82.5497 153.577C82.5325 153.306 82.4737 153.026 82.4314 152.792C82.397 152.593 82.3313 152.451 82.2504 152.196C82.1846 151.98 82.0334 151.798 81.9462 151.588C81.8595 151.384 81.5776 150.871 81.2868 150.488C81.0007 150.109 80.8029 149.805 80.4718 149.473C80.4718 149.473 80.4434 149.543 80.478 149.742C80.517 149.937 80.606 150.399 80.7344 150.832C80.8656 151.256 81.0458 151.775 81.2945 152.315C81.5455 152.851 82.0521 153.612 82.5359 154.123C82.5359 154.123 82.5697 153.848 82.5498 153.577M164.437 133.836L126.859 133.895L126.937 187.106L132.055 184.57L131.984 139.012L161.921 138.961C161.922 138.958 164.437 133.836 164.437 133.836Z" fill="#2C1E16"/>
<path d="M164.459 146.233L161.905 141.114L134.141 141.162L134.215 184.566L139.331 187.092L139.313 167.911L159.828 167.877L157.275 162.76L139.301 162.789L139.293 160.63L157.284 160.602L159.81 155.481L139.283 155.515L139.269 146.275L164.459 146.233H164.459V146.233ZM173.245 133.343L173.334 187.024L178.458 184.496L178.379 135.861L173.245 133.343V133.343ZM185.648 133.324L185.729 187.006L180.613 184.491L180.535 135.86L185.647 133.324H185.648ZM238.13 133.238L238.216 186.922L243.333 184.393L243.258 135.759L238.13 133.238L238.13 133.238ZM250.528 133.219L250.614 186.908L245.49 184.389L245.412 135.757L250.528 133.219V133.219ZM220.408 167.94L220.353 135.798L215.23 133.278L215.281 167.013C215.288 171.966 214.104 175.174 208.791 175.181C205.256 175.188 202.899 173.404 200.517 170.697L198.589 175.979C201.033 178.032 203.54 180.313 209.459 180.305C215.374 180.295 220.422 176.046 220.408 167.94" fill="#2C1E16"/>
<path d="M227.683 167.872L227.63 133.254L222.506 135.792L222.564 168.43C222.577 177.526 216.116 182.451 209.318 182.462C202.515 182.473 199.024 179.34 197.105 177.565L191.82 179.531C195.669 183.458 200.503 187.585 209.176 187.568C217.856 187.553 227.704 181.823 227.684 167.872M67.2663 178.983C67.161 178.982 63.1721 179.311 62.5701 179.524C62.8343 179.911 63.9159 181.127 64.4925 181.665C65.0632 182.202 66.7384 183.777 67.324 184.247C67.4033 184.293 67.3842 184.253 67.4533 183.995C67.5147 183.734 67.4328 178.978 67.2663 178.983M72.6933 175.282C72.4447 175.085 71.355 173.816 71.1694 173.615C70.9875 173.418 69.7419 172.005 69.6804 171.937C69.6188 171.871 69.508 171.646 69.4108 171.511C69.4108 171.511 69.595 175.753 69.6532 175.857C69.7097 175.957 72.3464 175.995 73.2153 175.784C73.2153 175.784 72.9502 175.475 72.6931 175.282M72.1104 186.672C72.1104 186.672 72.8862 187.094 73.0323 187.27C73.1804 187.446 73.7748 187.611 73.9899 187.815C73.9899 187.815 74.0788 187.678 74.1844 187.479C74.2681 187.323 74.3247 187.159 74.4356 186.965C74.5177 186.816 74.6064 186.759 74.7085 186.477C74.809 186.202 75.1144 185.552 75.2183 185.327C75.3215 185.099 77.4968 180.849 77.6681 180.506C77.8432 180.164 78.5392 178.901 78.7348 178.617C78.7348 178.617 78.6486 178.559 78.5477 178.489C78.4388 178.418 77.9168 178.123 77.7617 178.025C77.6046 177.927 77.6942 178.046 77.472 177.844C77.472 177.844 75.6123 181.09 75.5098 181.287C75.4135 181.484 75.1511 181.944 75.0398 182.175C74.9215 182.406 74.7343 182.825 74.6698 182.933C74.6107 183.039 72.661 185.905 72.5573 186.061C72.4052 186.292 72.3237 186.358 72.1104 186.672ZM70.1106 185.704C70.248 185.624 70.3834 185.513 70.5966 185.265C70.8122 185.014 75.3332 177.663 75.4571 177.525C75.5768 177.389 75.4578 177.254 75.3204 177.3C75.1825 177.352 69.5328 178.008 69.3179 178.163C69.3703 178.319 69.3222 178.687 69.3745 178.975C69.4156 179.256 69.8282 184.739 69.9058 184.992C70.0339 185.378 69.9183 185.369 70.1106 185.704ZM67.9883 169.704C67.9883 169.704 61.4311 177.259 61.3377 177.5C61.408 177.47 61.2453 177.697 61.4953 177.581C61.749 177.459 67.0658 176.165 67.1812 176.099C67.2567 176.023 67.9544 170.365 67.9883 169.704ZM60.1786 174.613C60.3638 174.357 63.5055 171.303 63.837 170.902C64.1654 170.503 65.8837 168.871 67.1501 167.303C67.0774 167.054 66.8677 166.449 66.7543 166.088C66.6461 165.746 66.5766 165.538 66.492 165.188C66.492 165.188 66.3562 165.391 66.2989 165.487C66.2432 165.575 66.0378 165.78 65.6387 166.278C65.2376 166.778 63.2592 168.756 62.579 169.548C61.8989 170.34 59.1165 173.039 58.6028 173.575C58.6028 173.575 58.6533 173.785 58.7444 173.964C58.8347 174.143 59.113 174.57 59.3706 175.128C59.3706 175.128 59.4706 175.319 59.5914 175.246C59.5914 175.246 59.9904 174.868 60.1786 174.613M57.7641 170.573C58.0087 170.43 59.0728 169.294 59.2744 169.099C59.2744 169.099 62.3495 166.056 63.153 165.326C63.9635 164.598 64.9606 163.38 65.8298 162.519C65.8298 162.519 65.781 161.083 65.8218 160.754C65.8646 160.424 65.83 159.918 65.8421 159.532C65.8495 159.144 65.8359 159.128 65.7596 159.051C65.7596 159.051 65.5633 158.944 65.3212 158.832C65.0828 158.719 62.3697 157.254 62.1497 157.159C61.9405 157.065 61.2859 156.84 60.9005 156.641C60.5166 156.444 56.4511 154.142 56.0086 154.012C56.0073 154.158 55.92 154.661 55.8812 155.011C55.8459 155.356 55.7186 155.787 55.707 156.122C55.7904 156.156 56.5305 156.501 56.9102 156.699C57.2978 156.897 60.1887 158.44 60.8736 158.746C61.559 159.06 64.3759 160.465 64.8583 160.757C64.7124 160.821 64.1734 161.318 63.894 161.516C63.613 161.721 62.0397 163.44 61.5277 163.934C61.0187 164.428 60.2473 165.131 59.9101 165.496C59.5754 165.865 57.3101 167.993 57.1154 168.112C56.9215 168.233 56.7167 168.43 56.6 168.48C56.6246 168.614 56.6853 169.106 56.7325 169.354C56.7904 169.603 56.8487 170.045 56.9006 170.197C56.9476 170.346 56.9973 170.677 57.154 170.965C57.2986 170.85 57.5014 170.719 57.7641 170.573Z" fill="#2C1E16"/>
<path d="M56.3195 159.634C55.9898 159.51 55.87 159.462 55.4014 159.334C55.4014 159.334 55.419 159.381 55.3887 159.715C55.3625 160.048 55.4739 161.692 55.5138 162.173C55.5548 162.653 55.7039 163.774 55.9055 164.905C55.9055 164.905 56.1616 164.821 56.4604 164.606C56.7567 164.397 58.0491 163.363 58.6007 162.926C59.1536 162.485 60.2093 161.585 60.4619 161.398C60.6946 161.22 60.8085 161.137 60.8085 161.137C60.6994 161.112 59.605 160.86 59.4025 160.78C59.1848 160.693 58.9842 160.668 58.6928 160.516C58.4081 160.367 57.8172 160.174 57.5664 160.047C57.3866 159.958 56.7474 159.793 56.3195 159.634ZM66.3135 155.694C66.3025 155.609 66.3663 155.343 66.3871 155.113C66.4075 154.888 66.4362 154.615 66.582 154.246C66.582 154.246 66.4533 154.184 66.2911 154.132C66.1578 154.089 63.313 152.926 62.4937 152.566C61.6707 152.204 58.3369 150.667 58.0236 150.482C57.7132 150.3 57.3781 150.191 57.1267 150.046C57.1267 150.046 56.917 150.42 56.8419 150.579C56.7722 150.735 56.6155 151.421 56.5963 151.764C56.5963 151.764 57.5255 152.041 57.591 152.075C57.6527 152.107 65.2674 155.458 66.2915 155.873C66.2915 155.873 66.3204 155.783 66.3137 155.694M67.046 151.273C66.8973 151.16 59.4387 147.238 59.2662 147.123C59.0926 147.009 58.7726 146.921 58.5577 146.77C58.5577 146.77 58.9646 146.547 59.1837 146.464C59.2945 146.428 59.5363 146.347 59.8779 146.275C60.2209 146.198 65.6064 144.958 65.7989 144.93C65.8886 144.916 65.9638 145.139 65.9829 145.202C65.9988 145.269 66.7917 147.662 66.922 148.177C67.0526 148.69 67.7018 151.122 67.6847 151.212C67.6705 151.303 67.7251 151.413 67.6482 151.506C67.6482 151.506 67.1973 151.392 67.046 151.273ZM62.024 142.871C62.2805 142.783 66.6022 141.974 66.8375 141.912C66.8208 141.778 66.6345 140.817 66.5925 140.513C66.551 140.215 66.2255 137.983 66.1393 137.716C66.0669 137.516 66.0637 137.453 65.9718 137.402C65.9718 137.402 65.8397 137.402 65.7611 137.436C65.7611 137.436 65.6352 137.53 65.3977 137.739C65.1651 137.947 64.3303 138.745 63.8029 139.246C63.2805 139.745 62.2939 141.022 61.9843 141.433C61.6701 141.841 61.1248 142.714 60.859 143.156C60.859 143.156 60.9989 143.115 61.1544 143.045C61.3414 142.956 61.8638 142.929 62.024 142.871ZM71.5551 146.066C72.513 145.16 73.3278 144.561 73.9883 144.181C73.8976 144.087 73.6673 144.061 73.5359 144.019C73.4029 143.983 69.2348 143.57 68.9778 143.543C68.7269 143.514 68.6705 143.554 68.4806 143.556C68.4806 143.556 68.7922 145.096 68.8153 145.422C68.8348 145.746 69.11 148.06 69.2115 148.576C69.3642 148.384 70.5929 146.966 71.5551 146.066ZM75.8292 142.126C75.6151 141.943 68.3858 136.413 68.2413 136.252C67.9618 135.948 67.939 136.001 67.9943 136.445C68.0466 136.843 68.2481 137.702 68.3547 138.225C68.4591 138.741 68.7821 140.267 68.9151 141.235C68.9151 141.235 69.4364 141.306 69.717 141.368C70.0015 141.432 75.5927 142.42 76.0604 142.415C76.1667 142.415 76.0548 142.312 75.8292 142.126ZM79.9367 140.872C79.8995 140.834 79.3505 140.289 79.0573 140.014C78.7568 139.743 77.7985 138.779 77.3023 138.331C76.4265 137.559 75.5498 136.788 74.6719 136.019C74.2513 135.648 72.1591 133.627 72.0326 133.454C72.0326 133.454 71.9688 133.456 71.7691 133.643C71.5686 133.825 70.6916 134.431 70.5961 134.487C70.5057 134.541 70.4906 134.576 70.6256 134.676C70.7607 134.776 77.3257 140.574 77.6003 140.79C77.8693 141.003 78.3982 141.386 78.4351 141.417C78.5062 141.476 78.5004 141.419 78.6547 141.373C78.8077 141.33 79.6222 141.129 80.0441 141.036C80.0441 141.036 79.9768 140.911 79.9367 140.872M76.4399 133.195C76.6263 133.431 80.2015 136.912 80.5366 137.24C80.8748 137.564 83.207 139.932 83.3524 140.039C83.4915 140.149 83.5971 140.289 83.6483 140.328C83.6483 140.328 86.8934 140.199 87.3058 140.287C87.3664 140.124 87.5987 139.733 87.7482 139.465C87.9027 139.196 89.2518 135.148 89.5853 134.341C89.9163 133.528 90.605 131.865 90.7464 131.511C90.8887 131.157 90.9365 130.926 91.0803 130.742C91.0803 130.742 90.9781 130.652 90.8435 130.624C90.7025 130.59 90.1948 130.533 90.0014 130.472C89.8236 130.427 89.6024 130.411 89.3389 130.357C89.3389 130.357 88.9155 131.168 88.8336 131.381C88.7494 131.598 87.6861 134.052 87.528 134.326C87.3689 134.601 85.7583 139.409 85.5139 139.768C85.5139 139.768 84.3538 138.399 83.9751 138.014C83.5929 137.626 79.9978 134.145 79.3616 133.509C78.7228 132.87 77.9816 132.175 77.3837 131.401C77.3837 131.401 77.2462 131.447 76.8431 131.563C76.4395 131.684 75.8215 131.945 75.5488 132.037C75.2798 132.131 75.3983 132.227 75.5254 132.372C75.8111 132.686 76.2922 133.014 76.4397 133.195" fill="#2C1E16"/>
<path d="M86.6179 130.039C86.6179 130.039 86.3286 130.05 86.0148 130.058C85.6084 130.053 85.2019 130.064 84.7963 130.09C84.2932 130.124 83.2857 130.152 82.4171 130.237C81.7761 130.301 81.3664 130.336 80.5059 130.586C80.5059 130.586 81.0104 131.16 81.2029 131.362C81.4024 131.562 82.1923 132.533 82.8765 133.317C83.5675 134.105 84.3665 134.986 84.7222 135.459C84.7222 135.459 86.3445 131.082 86.6179 130.039ZM90.4013 141.083C90.6919 141.156 91.2584 141.344 91.4751 141.41C91.6569 141.466 91.6254 141.386 91.7404 141.136C91.802 141.005 91.9605 140.727 92.2081 140.374C92.4606 140.024 94.0434 137.727 94.3731 137.358C94.7028 136.988 95.0282 136.413 95.3109 136.047C95.591 135.687 96.6339 134.458 96.8012 134.136C96.8788 133.992 97.0474 133.746 97.5208 133.063C97.5208 133.063 97.3975 132.975 97.2589 132.893C97.1187 132.806 96.7552 132.496 96.4 132.367C96.045 132.236 95.3819 131.864 94.9403 131.89C94.9403 131.89 94.5743 132.604 94.4046 132.887C94.2402 133.165 93.3159 134.59 93.0915 134.938C92.8641 135.286 90.2489 139.661 90.1018 139.914C89.9499 140.163 89.6811 140.563 89.4999 140.863C89.4999 140.863 90.1175 141.012 90.4014 141.083M94.8009 142.345C95.0322 142.282 98.6862 140.736 98.998 140.64C99.3118 140.546 99.4534 140.43 99.6978 140.245C99.7754 140.091 99.8931 139.9 99.8903 139.546C99.8888 139.19 100.149 135.352 100.167 134.951C100.19 134.514 100.292 134.216 100.107 134.427C99.9289 134.636 98.8623 136.051 98.5431 136.458C98.2089 136.865 96.7755 138.818 96.3463 139.418C95.9185 140.015 94.8273 141.747 94.4264 142.407C94.4264 142.407 94.5706 142.406 94.8008 142.345M99.8394 146.998C99.835 146.839 99.9121 143.816 99.9321 143.42C99.955 143.024 99.986 143.1 99.7744 143.142C99.6881 143.151 99.5252 143.215 99.3221 143.295C99.1602 143.36 97.584 143.675 97.277 143.75C96.9793 143.821 96.3893 143.859 96.0069 144.043C96.1021 144.067 96.5764 144.495 96.9122 144.78C97.2471 145.067 98.0258 145.709 98.466 146.107C98.9102 146.503 99.4823 147.055 99.7962 147.333C99.8917 147.42 99.8473 147.152 99.8394 146.998M104.051 146.34C104.491 145.796 106.383 143.468 106.682 143.263C106.985 143.059 107.396 142.64 107.615 142.472C107.836 142.299 107.967 142.187 107.863 142.21C107.76 142.233 107.577 142.286 107.312 142.331C107.044 142.378 104.317 142.943 103.89 143.01C103.468 143.081 102.867 143.138 102.231 143.335C102.239 143.49 102.114 144.928 102.113 145.287C102.106 145.651 102.029 146.733 102.029 146.918C102.03 147.102 101.966 147.71 101.956 147.917C101.943 148.125 101.918 148.551 101.937 148.951C101.931 149.021 101.983 148.986 102.132 148.797C102.249 148.592 103.609 146.883 104.051 146.34ZM103.889 153.468C103.981 153.361 104.115 153.197 104.267 153.046C104.423 152.895 108.924 147.936 109.145 147.734C109.372 147.532 109.523 147.303 109.577 147.218C109.615 147.169 109.913 146.849 110.083 146.722C110.255 146.599 110.042 146.775 111.024 145.961C110.969 145.896 110.79 145.575 110.718 145.437C110.651 145.305 110.437 145.06 110.221 144.713C110.003 144.365 109.888 144.225 109.699 144.034C109.699 144.034 109.492 144.189 109.33 144.326C109.157 144.46 108.042 145.808 107.855 146.008C107.673 146.208 107.44 146.64 107.277 146.837C107.118 147.033 105.76 148.415 105.435 148.711C105.109 149.012 103.324 151.016 103.172 151.152C103.023 151.283 103.009 151.366 102.808 151.545C102.886 151.65 102.921 152.073 102.976 152.31C103.025 152.553 103.214 153.542 103.327 153.924C103.479 153.8 103.79 153.572 103.889 153.468M106.639 140.095C106.459 139.872 106.276 139.595 106.05 139.334C105.82 139.065 104.067 137.114 103.859 136.843C103.647 136.571 103.17 136.196 103.008 136.009C102.846 135.829 102.869 135.893 102.789 135.795C102.734 135.733 102.67 135.634 102.619 135.678C102.549 135.738 102.569 135.846 102.55 135.991C102.512 136.284 102.521 136.401 102.448 136.743C102.388 137.022 102.177 140.174 102.166 140.426C102.155 140.681 102.114 141.242 102.114 141.242C102.114 141.242 106.176 140.696 106.33 140.661C106.548 140.61 106.583 140.611 106.946 140.56C106.946 140.56 106.808 140.32 106.639 140.095M105.899 157.094C106.065 156.958 110.016 153.904 110.263 153.702C110.514 153.494 111.131 153.076 111.661 152.639C112.189 152.204 112.678 151.855 113.463 151.367C113.463 151.367 113.449 150.979 113.333 150.56C113.22 150.142 112.67 148.766 112.67 148.766C112.668 148.766 112.346 149.06 112.179 149.196C112.016 149.332 106.123 154.483 105.649 154.88C105.175 155.273 104.405 155.988 104.243 156.125C104.075 156.262 103.985 156.308 104.011 156.508C104.03 156.643 104.032 157.09 104.067 157.383C104.099 157.674 104.18 158.231 104.129 158.532C104.083 158.835 104.071 159.51 104.006 159.889C104.253 159.955 107.139 161.067 107.644 161.257C108.147 161.449 109.157 161.831 109.717 162.037C110.283 162.239 111.537 162.706 111.98 162.894C112.426 163.075 113.368 163.48 113.889 163.66C113.951 163.454 113.975 163.044 113.979 162.563C113.978 162.085 113.948 161.789 113.92 161.415C113.92 161.415 113.697 161.286 113.439 161.177C113.184 161.073 111.728 160.507 111.12 160.31C110.51 160.117 105.546 158.298 105.335 158.185C105.128 158.07 105.203 157.998 105.32 157.829C105.42 157.679 105.667 157.278 105.899 157.094" fill="#2C1E16"/>
<path d="M114.204 158.092C114.218 157.836 114.217 157.44 114.216 157.094C114.215 156.425 114.109 155.26 114.079 154.717C114.071 154.609 114.062 154.234 114.07 153.955C114.076 153.671 113.905 153.894 113.73 154.042C113.548 154.189 109.93 156.995 109.822 157.112C109.707 157.226 109.401 157.36 109.464 157.4C109.53 157.444 109.645 157.442 109.843 157.507C110.09 157.586 112.531 158.42 112.896 158.563C113.26 158.702 113.869 158.863 114.163 159.021C114.18 158.802 114.194 158.347 114.204 158.092ZM112.904 167.352C112.741 167.273 112.399 167.14 112.103 166.945C111.808 166.752 111.372 166.505 111.038 166.251C110.698 166 109.433 165.399 108.921 165.117C108.404 164.839 105.562 163.341 105.192 163.144C104.831 162.953 104.165 162.636 103.645 162.362C103.645 162.362 103.653 162.744 103.644 162.977C103.635 163.215 103.646 163.964 103.651 164.172C103.654 164.38 103.657 164.503 103.775 164.594C103.891 164.687 108.714 167.439 109.071 167.623C109.426 167.804 112.088 169.343 112.234 169.414C112.442 169.245 112.505 169.023 112.653 168.795C112.755 168.64 112.911 168.379 113.007 168.167C113.099 167.957 113.234 167.732 113.323 167.571C113.323 167.571 113.086 167.441 112.904 167.352ZM109.653 172.195C109.401 171.955 105.669 169.334 104.99 168.798C104.313 168.265 102.921 167.272 102.834 167.186C102.718 167.076 102.643 167.022 102.625 167.188C102.605 167.363 102.572 167.581 102.624 167.953C102.673 168.321 102.775 169.428 102.834 169.829C102.889 170.23 102.961 171.167 102.987 171.674C103.017 172.184 103.104 172.914 103.125 173.501C103.125 173.501 103.592 173.463 103.931 173.45C104.27 173.432 109.871 172.87 110.296 172.683C110.296 172.683 109.91 172.435 109.653 172.195M100.71 171.397C100.692 171.136 100.676 170.874 100.661 170.613C100.401 170.842 100.29 170.998 100.089 171.252C99.8884 171.507 99.2106 172.416 98.8521 172.796C98.495 173.172 97.8843 173.757 97.6397 173.933C97.3983 174.107 96.4809 174.764 96.3497 174.851C96.2204 174.94 96.27 175.007 96.4174 175.036C96.569 175.063 99.8091 174.794 100.815 174.666C100.903 174.339 100.733 171.654 100.71 171.397M106.424 179.974C106.829 179.51 108.278 177.781 108.333 177.687C108.39 177.592 109.441 175.988 109.455 175.884C109.476 175.784 109.53 175.781 109.508 175.655C109.175 175.753 103.405 176.369 102.61 176.428C102.636 176.622 102.765 182.563 102.848 182.804L102.877 182.901L102.984 182.867C103.165 182.659 106.021 180.441 106.424 179.974ZM99.8968 177.26C99.8968 177.26 99.164 177.316 98.8315 177.268C98.5035 177.224 93.8982 177.234 93.4203 177.275C93.4203 177.275 93.6476 177.499 93.8834 177.805C94.1197 178.115 100.114 183.857 100.269 184.066C100.415 184.281 100.691 184.273 100.799 184.252C100.913 184.043 100.694 183.392 100.663 183.167C100.585 182.689 100.07 177.628 99.8966 177.261M97.5105 186.372C97.8563 186.265 98.0001 186.147 98.1053 186.051C98.0125 185.924 97.8343 185.718 97.3862 185.21C96.9391 184.704 92.6743 180.091 92.0719 179.467C91.4699 178.837 91.2763 178.627 90.7975 178.129C90.7975 178.129 90.557 178.227 90.2738 178.293C89.9841 178.362 89.6426 178.446 89.4727 178.5C89.299 178.552 89.2186 178.54 89.361 178.635C89.4966 178.73 93.2769 183.062 93.7925 183.624C94.3133 184.184 95.636 185.702 95.8223 185.939C96.0057 186.174 96.1107 186.398 96.4062 186.888C96.8262 186.762 97.1668 186.48 97.5105 186.372M89.4772 184.074C88.7974 183.36 88.181 182.661 87.286 181.6C86.3893 180.527 85.7029 179.916 84.7338 179.106C84.2781 179.099 82.3862 179.059 81.6489 178.958C81.5336 179.133 81.4561 179.296 81.3824 179.463C81.3065 179.62 78.9333 184.375 78.7556 184.735C78.5726 185.097 77.916 186.311 77.7815 186.598C77.654 186.887 77.7007 186.656 77.4215 187.071C77.1374 187.487 76.8656 188.017 76.6953 188.547C76.8406 188.655 77.1976 188.786 77.4714 188.902C77.7507 189.022 78.4267 189.132 78.7141 189.261C78.7457 189.11 82.5049 181.566 82.7732 181.007C83.0382 180.441 83.2307 180.367 83.5052 179.939C83.5052 179.939 86.6503 183.218 86.9779 183.651C87.3031 184.087 88.7589 185.968 89.2706 186.64C89.7794 187.31 90.4655 188.053 90.9279 188.829C90.9279 188.829 92.038 188.613 92.2758 188.512C92.5186 188.41 93.0787 188.284 93.2727 188.163C93.0467 187.99 90.1566 184.782 89.4772 184.074Z" fill="#2C1E16"/>
<path d="M83.4021 189.959C83.4021 189.959 83.5016 189.946 84.0869 189.958C84.5861 189.967 84.6122 189.931 85.0718 189.937C85.5297 189.942 86.1352 189.864 86.8134 189.707C87.4877 189.55 87.5693 189.548 88.089 189.441C88.5762 189.341 88.6237 189.288 88.4778 189.078C88.3288 188.868 87.9942 188.414 87.6848 187.999C87.3733 187.587 87.1287 187.292 86.6603 186.8C86.185 186.309 85.2327 185.41 84.886 185.023C84.5493 184.636 84.205 184.247 83.9061 183.881C83.7971 183.976 83.5981 184.438 83.4307 184.717C83.265 184.998 82.9902 185.672 82.8481 185.968C82.7103 186.26 82.0411 187.765 81.774 188.278C81.5054 188.785 81.4389 189.113 81.1737 189.572L81.1504 189.642L81.259 189.671C81.4112 189.681 81.5734 189.811 81.9291 189.824C82.2048 189.832 82.9186 189.985 83.4019 189.959M296.626 186.718L294.48 185.598L292.45 186.722L292.412 160.53L294.565 161.604L296.581 160.522L296.626 186.718H296.626ZM341.683 168.543L347.028 186.641L349.022 185.511L351.005 186.63L358.633 160.424L356.226 161.507L354.413 160.432L349.013 180.245L343.188 160.448L341.681 161.524L340.159 160.451L334.409 180.268L328.939 160.47L327.137 161.55L324.723 160.478L332.446 186.666L334.418 185.534L336.418 186.653L341.683 168.543V168.543ZM388.696 186.561L388.674 176.114L379.514 160.393L382.431 161.461L384.105 160.384L390.907 172.482L397.619 160.363L399.303 161.434L402.201 160.352L393.13 176.105L393.142 186.554L390.875 185.433L388.696 186.561H388.696H388.696ZM414.062 186.901C408.281 186.912 402.972 184.392 403.917 178.587L405.967 179.608L408.18 178.58C407.655 181.431 410.603 183.296 414.05 183.29C417.944 183.286 420.31 181.66 420.306 179.424C420.298 173.226 404.531 176.307 404.516 167.068C404.506 162.395 408.897 159.959 414.256 159.951C419.892 159.949 424.779 162.319 423.645 167.787L421.522 166.751L419.253 167.801C419.805 165.087 417.957 163.469 414.262 163.479C411.281 163.479 408.815 164.911 408.815 167.106C408.825 172.579 424.602 169.932 424.615 179.171C424.626 184.316 420.178 186.894 414.062 186.901M317.171 177.978C319.656 176.644 321.551 173.252 321.667 169.718C321.654 169.596 321.677 168.892 321.665 168.766C321.36 163.671 317.724 160.484 313.155 160.492L303.306 160.507L303.343 186.707L303.353 186.703L305.366 185.582L307.341 186.703L307.329 179.071L311.942 179.051C311.942 179.051 312.359 179.052 313.041 178.994L319.082 186.678L320.714 185.554L324.434 186.676L317.172 177.978L317.171 177.978ZM307.326 175.459L307.298 164.25L313.024 164.238C315.537 164.24 317.476 166.295 317.678 168.85C317.684 168.938 317.726 169.091 317.726 169.493C317.722 169.912 317.663 170.297 317.659 170.393C317.33 173.46 315.227 175.454 312.685 175.453L307.326 175.459ZM272.248 175.509L280.026 175.503L276.097 164.882L272.248 175.509ZM278.371 160.554L288.219 186.722L285.717 185.616L284.05 186.727L281.217 179.09L271.079 179.102L268.234 186.754L266.554 185.64L264.065 186.762L273.826 160.564L276.088 161.634L278.371 160.554H278.372H278.371ZM366.134 175.36L373.906 175.349L369.935 164.734L366.134 175.36H366.134ZM372.258 160.405L382.098 186.573L379.692 185.463L377.938 186.581L375.096 178.939L364.965 178.953L362.12 186.605L360.371 185.488L357.944 186.608L367.703 160.409L369.999 161.484L372.258 160.405V160.405Z" fill="#2C1E16"/>
</svg>
