<svg width="480" height="320" viewBox="0 0 480 320" fill="none" xmlns="http://www.w3.org/2000/svg">
<path d="M88.588 141.277C90.4416 140.297 92.524 139.787 94.6194 139.835C103.983 139.831 113.347 139.867 122.711 139.824C121.488 142.536 120.191 146.107 116.718 146.419C108.017 146.66 99.2939 146.396 90.5837 146.54C88.4311 146.504 86.2858 147.637 85.3738 149.638C83.4981 153.314 81.8144 157.088 79.972 160.785C87.436 160.78 94.9037 160.791 102.37 160.774C101.716 162.045 101.227 163.455 100.2 164.485C98.9487 165.471 97.2447 165.288 95.7585 165.333C89.9782 165.257 84.1904 165.395 78.412 165.251C76.3276 169.158 74.5682 173.223 72.5541 177.165C71.6365 179.024 69.6298 180.226 67.5528 180.154C63.4987 180.154 59.4352 180.301 55.3848 180.021V179.803C55.4549 179.819 55.5989 179.86 55.6728 179.877C59.1805 172.3 62.8377 164.803 66.4617 157.28C68.2433 153.512 71.2895 150.399 74.9596 148.424C79.4753 145.99 84.0446 143.66 88.588 141.277ZM127.378 143.123C128.317 141.133 130.47 139.892 132.645 139.857C136.625 139.795 140.605 139.881 144.588 139.817C138.728 152.142 132.728 164.406 126.826 176.712C126 178.726 123.977 180.174 121.778 180.142C117.689 180.2 113.598 180.155 109.511 180.161C115.459 167.816 121.42 155.472 127.378 143.123ZM160.551 140.051C161.855 139.403 163.367 140.138 164.076 141.303C169.908 149.323 175.775 157.318 181.664 165.292C182.312 166.174 182.8 167.149 183.28 168.129C187.011 160.749 190.48 153.233 194.091 145.795C195.019 143.954 195.701 141.739 197.652 140.707C200.349 139.265 203.532 140.014 206.456 139.854C199.95 153.292 193.457 166.734 186.959 180.178C183.664 180.131 180.364 180.246 177.075 180.128C175.027 180.063 173.447 178.547 172.286 177.011C167.735 170.954 163.177 164.901 158.624 158.856C157.644 157.614 156.691 156.353 156.015 154.916C152.312 162.29 148.902 169.809 145.245 177.207C144.403 178.834 142.712 180.028 140.866 180.128C138.713 180.251 136.561 180.146 134.412 180.172C138.99 170.352 143.681 160.573 148.359 150.8C149.873 147.58 152.135 144.626 155.247 142.826C156.972 141.822 158.722 140.852 160.551 140.051ZM224.05 140.051C225.328 139.416 226.816 140.103 227.538 141.24C233.383 149.265 239.257 157.28 245.157 165.27C245.818 166.158 246.306 167.157 246.797 168.142C250.947 159.875 254.829 151.466 258.895 143.151C259.746 141.336 261.609 140.136 263.578 139.927C265.692 139.747 267.815 139.887 269.931 139.83C263.508 153.312 256.951 166.73 250.452 180.183C247.142 180.128 243.824 180.251 240.511 180.128C238.317 180.013 236.713 178.293 235.502 176.635C230.338 169.677 225.027 162.829 219.924 155.825C219.758 155.692 219.424 155.415 219.258 155.284C215.933 162.388 212.471 169.424 209.118 176.515C208.358 178.256 206.837 179.803 204.885 180.063C202.585 180.305 200.266 180.107 197.962 180.194C201.693 171.925 205.698 163.765 209.587 155.561C211.249 152.291 212.519 148.736 214.984 145.948C217.4 143.182 220.808 141.619 224.05 140.051ZM293.425 141.336C295.257 140.343 297.319 139.807 299.411 139.839C303.838 139.839 308.27 139.835 312.707 139.839C315.925 139.828 319.093 141.019 321.568 143.07C324.4 145.252 327.314 147.329 330.118 149.544C331.379 150.41 331.473 152.099 330.755 153.364C326.501 162.312 322.117 171.201 317.867 180.155C314.193 180.155 310.512 180.205 306.836 180.144C304.857 180.281 303.225 177.981 304.192 176.19C305.769 172.503 307.718 168.981 309.345 165.314C300.651 165.294 291.961 165.309 283.268 165.309C281.364 169.161 279.544 173.061 277.642 176.915C276.786 178.71 274.988 180.094 272.959 180.128C268.779 180.238 264.599 180.102 260.421 180.19C264.049 172.557 267.723 164.947 271.386 157.331C273.164 153.576 276.158 150.447 279.808 148.475C284.337 146.073 288.884 143.708 293.425 141.336ZM290.861 149.649C288.991 153.32 287.307 157.086 285.455 160.773C294.162 160.797 302.861 160.778 311.568 160.778C313.316 157.108 315.092 153.451 316.883 149.799C317.163 149.025 317.841 148.189 317.424 147.347C316.742 146.356 315.463 146.544 314.435 146.5C308.28 146.546 302.124 146.461 295.973 146.54C293.819 146.483 291.767 147.689 290.861 149.649ZM345.554 144.432C346.366 142.176 348.181 140.175 350.682 139.929C354.893 139.699 359.123 139.935 363.338 139.815C357.655 152.086 351.607 164.197 345.795 176.41C345.002 178.374 343.2 180.015 341.016 180.128C336.786 180.242 332.553 180.146 328.318 180.172C334.067 168.255 339.825 156.353 345.554 144.432ZM382.165 144.089C385.626 142.479 388.881 139.9 392.862 139.859C397.495 139.828 402.133 139.807 406.765 139.87C410.971 140.014 414.559 142.433 417.687 145.028C419.965 146.984 422.793 148.364 424.616 150.798V152.291C423.548 155.046 422.302 157.739 420.923 160.346C419.371 163.126 415.985 164.009 413.042 164.306C408.175 164.692 403.292 164.205 398.428 164.579C398.564 164.768 398.845 165.142 398.982 165.323C401.775 166.357 405.831 165.375 407.52 168.427C409.885 172.357 412.25 176.288 414.65 180.2C409.898 180.109 405.138 180.235 400.381 180.142C398.564 180.214 396.862 179.223 395.95 177.676C393.764 174.261 391.811 170.709 389.684 167.262C388.872 165.923 387.613 164.729 385.992 164.563C383.258 164.291 380.505 164.522 377.765 164.435C375.757 168.434 373.861 172.483 371.88 176.493C371.04 178.453 369.21 180.104 366.989 180.124C362.804 180.261 358.624 180.109 354.441 180.19C358.348 172.069 362.119 163.87 366.197 155.84C369.48 149.66 376.414 147.296 382.165 144.089ZM384.543 149.365C382.754 152.838 381.144 156.403 379.396 159.894C386.394 159.883 393.393 159.916 400.39 159.875C402.738 159.881 405.548 159.397 406.794 157.145C408.068 154.747 409.115 152.23 410.35 149.814C410.649 149.027 411.342 148.158 410.875 147.297C410.153 146.393 408.929 146.507 407.906 146.494C401.754 146.54 395.605 146.454 389.455 146.535C387.467 146.546 385.466 147.561 384.543 149.365Z" fill="#0B1560"/>
</svg>
