<svg width="480" height="320" viewBox="0 0 480 320" fill="none" xmlns="http://www.w3.org/2000/svg">
<path d="M193.061 179.033C193.061 153.052 214.119 131.99 240.1 131.99C266.078 131.99 287.138 153.052 287.138 179.033C287.138 205.008 266.078 226.067 240.1 226.067C214.12 226.067 193.061 205.008 193.061 179.033Z" fill="white"/>
<path d="M193.061 179.033C193.061 153.052 214.119 131.99 240.1 131.99C266.078 131.99 287.138 153.052 287.138 179.033C287.138 205.008 266.078 226.067 240.1 226.067C214.12 226.067 193.061 205.008 193.061 179.033V179.033Z" stroke="black" stroke-width="5.14023" stroke-miterlimit="3.864" stroke-linecap="round" stroke-linejoin="round"/>
<path d="M235.586 83.2231C235.586 80.7243 237.604 78.7031 240.1 78.7031C242.593 78.7031 244.617 80.7243 244.617 83.2231C244.617 85.7132 242.593 87.74 240.1 87.74C237.604 87.74 235.586 85.7132 235.586 83.2231Z" fill="white"/>
<path d="M235.586 83.2231C235.586 80.7243 237.604 78.7031 240.1 78.7031C242.593 78.7031 244.617 80.7243 244.617 83.2231C244.617 85.7132 242.593 87.74 240.1 87.74C237.604 87.74 235.586 85.7132 235.586 83.2231Z" stroke="black" stroke-width="5.14023" stroke-miterlimit="3.864" stroke-linecap="round" stroke-linejoin="round"/>
<path fill-rule="evenodd" clip-rule="evenodd" d="M212.779 140.752C217.742 136.978 217.387 126.441 210.569 121.574C202.239 115.622 202.778 100.498 218.907 95.2761C229.327 91.9037 254.134 89.6232 272.695 99.5426C277.742 102.239 277.657 105.495 276.961 107.776C275.843 111.46 268.92 112.048 262.376 109.663C273.985 112.048 274.975 125.541 256.52 121.97C265.647 124.554 266.937 135.766 255.226 134.473C250.465 132.851 245.418 131.989 240.1 131.989C229.895 131.989 220.488 135.227 212.779 140.752Z" fill="white"/>
<path d="M212.779 140.752C217.742 136.978 217.387 126.441 210.569 121.574C202.239 115.622 202.778 100.498 218.907 95.2761C229.327 91.9037 254.134 89.6232 272.695 99.5426C277.742 102.239 277.657 105.495 276.961 107.776C275.843 111.46 268.92 112.048 262.376 109.663C273.985 112.048 274.975 125.541 256.52 121.97C265.647 124.554 266.937 135.766 255.226 134.473C250.465 132.851 245.418 131.989 240.1 131.989C229.895 131.989 220.488 135.227 212.779 140.752V140.752Z" stroke="black" stroke-width="5.14023" stroke-miterlimit="3.864" stroke-linecap="round" stroke-linejoin="round"/>
<path fill-rule="evenodd" clip-rule="evenodd" d="M245.421 132.284C243.654 132.087 241.878 131.989 240.1 131.99C233.588 131.99 227.414 133.278 221.787 135.666C224.067 129.809 223.159 123.807 217.719 119.983C211.067 115.326 209.896 106.796 221.484 102.821C228.136 100.54 237.566 99.5442 248.083 101.431C258.599 103.319 254.729 113.337 248.977 112.245C252.946 114.429 252.352 121.873 245.998 122.566C249.373 124.057 249.789 130.4 245.421 132.284Z" fill="white"/>
<path d="M245.421 132.284C243.654 132.087 241.878 131.989 240.1 131.99C233.588 131.99 227.414 133.278 221.787 135.666C224.067 129.809 223.159 123.807 217.719 119.983C211.067 115.326 209.896 106.796 221.484 102.821C228.136 100.54 237.566 99.5442 248.083 101.431C258.599 103.319 254.729 113.337 248.977 112.245C252.946 114.429 252.352 121.873 245.998 122.566C249.373 124.057 249.789 130.4 245.421 132.284V132.284Z" stroke="black" stroke-width="2.57011" stroke-miterlimit="3.864" stroke-linecap="round" stroke-linejoin="round"/>
<path fill-rule="evenodd" clip-rule="evenodd" d="M193.142 183.637C192.358 177.451 183.054 172.489 175.432 175.957C166.107 180.198 153.281 172.168 156.825 155.588C159.112 144.883 169.544 122.257 187.414 111.143C192.274 108.12 195.052 109.824 196.681 111.565C199.31 114.376 196.354 120.661 191.022 125.143C198.888 116.28 211.073 122.169 198.748 136.37C205.552 129.75 215.905 134.241 208.933 143.732C205.141 147.049 201.879 150.995 199.22 155.597C194.112 164.433 192.219 174.198 193.142 183.637H193.142Z" fill="white" stroke="#FF3E3D" stroke-width="0.538244"/>
<path d="M193.142 183.637C192.358 177.451 183.054 172.489 175.432 175.957C166.107 180.198 153.281 172.168 156.825 155.588C159.112 144.883 169.544 122.257 187.414 111.143C192.274 108.12 195.052 109.824 196.681 111.565C199.31 114.376 196.354 120.661 191.022 125.143C198.888 116.28 211.073 122.169 198.748 136.37C205.552 129.75 215.905 134.241 208.933 143.732C205.141 147.049 201.879 150.995 199.22 155.597C194.112 164.433 192.219 174.198 193.142 183.637H193.142Z" stroke="black" stroke-width="5.14023" stroke-miterlimit="3.864" stroke-linecap="round" stroke-linejoin="round"/>
<path fill-rule="evenodd" clip-rule="evenodd" d="M202.132 151.13C201.099 152.545 200.117 154.039 199.22 155.597C195.964 161.235 193.987 167.226 193.244 173.289C189.31 168.391 183.657 166.175 177.631 168.976C170.266 172.401 162.301 169.154 164.645 157.126C165.993 150.227 169.849 141.568 176.74 133.399C183.63 125.236 190.378 133.597 186.554 138.032C190.431 135.688 196.579 139.925 194.004 145.773C196.981 143.598 202.683 146.409 202.132 151.13Z" fill="white"/>
<path d="M202.132 151.13C201.099 152.545 200.117 154.039 199.22 155.597C195.964 161.235 193.987 167.226 193.244 173.289C189.31 168.391 183.657 166.175 177.631 168.976C170.266 172.401 162.301 169.154 164.645 157.126C165.993 150.227 169.849 141.568 176.74 133.399C183.63 125.236 190.378 133.597 186.554 138.032C190.431 135.688 196.579 139.925 194.004 145.773C196.981 143.598 202.683 146.409 202.132 151.13V151.13Z" stroke="black" stroke-width="2.57011" stroke-miterlimit="3.864" stroke-linecap="round" stroke-linejoin="round"/>
<path fill-rule="evenodd" clip-rule="evenodd" d="M220.561 221.883C214.818 219.472 205.869 225.046 205.059 233.384C204.072 243.577 190.704 250.669 178.117 239.311C169.986 231.977 155.605 211.635 154.918 190.599C154.734 184.879 157.597 183.324 159.921 182.785C163.663 181.915 167.633 187.614 168.844 194.478C165.102 183.234 176.297 175.621 182.433 193.392C180.097 184.198 189.166 177.474 193.905 188.261C194.88 193.2 196.66 198 199.319 202.601C204.424 211.44 211.926 217.969 220.561 221.883Z" fill="white"/>
<path d="M220.561 221.883C214.818 219.472 205.869 225.046 205.059 233.384C204.072 243.577 190.704 250.669 178.117 239.311C169.986 231.977 155.605 211.635 154.918 190.599C154.734 184.879 157.597 183.324 159.921 182.785C163.663 181.915 167.633 187.614 168.844 194.478C165.102 183.234 176.297 175.621 182.433 193.392C180.097 184.198 189.166 177.474 193.905 188.261C194.88 193.2 196.66 198 199.319 202.601C204.424 211.44 211.926 217.969 220.561 221.883V221.883Z" stroke="black" stroke-width="5.14023" stroke-miterlimit="3.864" stroke-linecap="round" stroke-linejoin="round"/>
<path fill-rule="evenodd" clip-rule="evenodd" d="M196.908 197.845C197.626 199.473 198.431 201.06 199.319 202.601C202.575 208.245 206.775 212.946 211.656 216.63C205.447 217.576 200.7 221.368 200.114 227.988C199.398 236.081 192.601 241.356 183.36 233.306C178.056 228.696 172.485 221.022 168.862 210.971C165.231 200.918 175.849 199.258 177.777 204.791C177.684 200.26 184.426 197.056 188.206 202.205C187.81 198.541 193.093 195.009 196.908 197.845H196.908Z" fill="white"/>
<path d="M196.908 197.845C197.626 199.473 198.431 201.06 199.319 202.601C202.575 208.245 206.775 212.946 211.656 216.63C205.447 217.576 200.7 221.368 200.114 227.988C199.398 236.081 192.601 241.356 183.36 233.306C178.056 228.696 172.485 221.022 168.862 210.971C165.231 200.918 175.849 199.258 177.777 204.791C177.684 200.26 184.426 197.056 188.206 202.205C187.81 198.541 193.093 195.009 196.908 197.845H196.908Z" stroke="black" stroke-width="2.57011" stroke-miterlimit="3.864" stroke-linecap="round" stroke-linejoin="round"/>
<path fill-rule="evenodd" clip-rule="evenodd" d="M267.223 217.248C262.263 221.02 262.616 231.562 269.428 236.429C277.771 242.381 277.224 257.499 261.096 262.724C250.672 266.099 225.868 268.38 207.311 258.455C202.258 255.755 202.345 252.502 203.041 250.218C204.162 246.54 211.079 245.955 217.632 248.331C206.02 245.955 205.027 232.456 223.485 236.027C214.353 233.449 213.065 222.237 224.776 223.524C229.54 225.152 234.585 226.005 239.902 226.005C250.11 226.005 259.511 222.776 267.223 217.248Z" fill="white"/>
<path d="M267.223 217.248C262.263 221.02 262.616 231.562 269.428 236.429C277.771 242.381 277.224 257.499 261.096 262.724C250.672 266.099 225.868 268.38 207.311 258.455C202.258 255.755 202.345 252.502 203.041 250.218C204.162 246.54 211.079 245.955 217.632 248.331C206.02 245.955 205.027 232.456 223.485 236.027C214.353 233.449 213.065 222.237 224.776 223.524C229.54 225.152 234.585 226.005 239.902 226.005C250.11 226.005 259.511 222.776 267.223 217.248Z" stroke="black" stroke-width="5.14023" stroke-miterlimit="3.864" stroke-linecap="round" stroke-linejoin="round"/>
<path fill-rule="evenodd" clip-rule="evenodd" d="M234.579 225.715C236.346 225.91 238.124 226.007 239.902 226.007C246.417 226.007 252.594 224.722 258.215 222.334C255.935 228.188 256.84 234.196 262.286 238.011C268.935 242.679 270.103 251.204 258.512 255.185C251.863 257.465 242.442 258.456 231.92 256.574C221.403 254.687 225.268 244.663 231.028 245.755C227.059 243.57 227.653 236.127 234.002 235.434C230.629 233.948 230.216 227.602 234.579 225.715H234.579Z" fill="white" stroke="#00A331" stroke-width="0.538244"/>
<path d="M234.579 225.715C236.346 225.91 238.124 226.007 239.902 226.007C246.417 226.007 252.594 224.722 258.215 222.334C255.935 228.188 256.84 234.196 262.286 238.011C268.935 242.679 270.103 251.204 258.512 255.185C251.863 257.465 242.442 258.456 231.92 256.574C221.403 254.687 225.268 244.663 231.028 245.755C227.059 243.57 227.653 236.127 234.002 235.434C230.629 233.948 230.216 227.602 234.579 225.715H234.579Z" stroke="black" stroke-width="2.57011" stroke-miterlimit="3.864" stroke-linecap="round" stroke-linejoin="round"/>
<path fill-rule="evenodd" clip-rule="evenodd" d="M286.91 174.316C287.696 180.497 296.998 185.459 304.617 181.99C313.945 177.747 326.768 185.779 323.229 202.356C320.937 213.071 310.511 235.697 292.638 246.804C287.778 249.824 285.002 248.121 283.377 246.379C280.744 243.572 283.697 237.287 289.033 232.808C281.164 241.673 268.982 235.781 281.304 221.583C274.503 228.197 264.15 223.71 271.119 214.212C274.911 210.901 278.176 206.958 280.831 202.351C285.934 193.514 287.836 183.755 286.91 174.316Z" fill="white"/>
<path d="M286.91 174.316C287.696 180.497 296.998 185.459 304.617 181.99C313.945 177.747 326.768 185.779 323.229 202.356C320.937 213.071 310.511 235.697 292.638 246.804C287.778 249.824 285.002 248.121 283.377 246.379C280.744 243.572 283.697 237.287 289.033 232.808C281.164 241.673 268.982 235.781 281.304 221.583C274.503 228.197 264.15 223.71 271.119 214.212C274.911 210.901 278.176 206.958 280.831 202.351C285.934 193.514 287.836 183.755 286.91 174.316V174.316Z" stroke="black" stroke-width="5.14023" stroke-miterlimit="3.864" stroke-linecap="round" stroke-linejoin="round"/>
<path fill-rule="evenodd" clip-rule="evenodd" d="M277.92 206.816C278.96 205.41 279.927 203.915 280.832 202.352C284.088 196.713 286.063 190.723 286.814 184.656C290.74 189.564 296.393 191.78 302.421 188.972C309.787 185.547 317.755 188.795 315.407 200.823C314.059 207.722 310.203 216.38 303.313 224.55C296.419 232.719 289.674 224.352 293.495 219.916C289.624 222.261 283.474 218.023 286.048 212.175C283.072 214.353 277.37 211.54 277.92 206.816Z" fill="white"/>
<path d="M277.92 206.816C278.96 205.41 279.927 203.915 280.832 202.352C284.088 196.713 286.063 190.723 286.814 184.656C290.74 189.564 296.393 191.78 302.421 188.972C309.787 185.547 317.755 188.795 315.407 200.823C314.059 207.722 310.203 216.38 303.313 224.55C296.419 232.719 289.674 224.352 293.495 219.916C289.624 222.261 283.474 218.023 286.048 212.175C283.072 214.353 277.37 211.54 277.92 206.816V206.816Z" stroke="black" stroke-width="2.57011" stroke-miterlimit="3.864" stroke-linecap="round" stroke-linejoin="round"/>
<path fill-rule="evenodd" clip-rule="evenodd" d="M259.441 136.113C265.187 138.527 274.14 132.95 274.944 124.618C275.928 114.416 289.299 107.327 301.886 118.685C310.014 126.021 324.398 146.367 325.082 167.397C325.272 173.122 322.412 174.672 320.082 175.208C316.339 176.078 312.37 170.382 311.155 163.523C314.898 174.768 303.709 182.372 297.575 164.601C299.905 173.798 290.836 180.526 286.098 169.738C285.128 164.799 283.342 159.997 280.684 155.395C275.581 146.553 268.079 140.03 259.441 136.113Z" fill="white"/>
<path d="M259.441 136.113C265.187 138.527 274.14 132.95 274.944 124.618C275.928 114.416 289.299 107.327 301.886 118.685C310.014 126.021 324.398 146.367 325.082 167.397C325.272 173.122 322.412 174.672 320.082 175.208C316.339 176.078 312.37 170.382 311.155 163.523C314.898 174.768 303.709 182.372 297.575 164.601C299.905 173.798 290.836 180.526 286.098 169.738C285.128 164.799 283.342 159.997 280.684 155.395C275.581 146.553 268.079 140.03 259.441 136.113V136.113Z" stroke="black" stroke-width="5.14023" stroke-miterlimit="3.864" stroke-linecap="round" stroke-linejoin="round"/>
<path fill-rule="evenodd" clip-rule="evenodd" d="M283.092 160.151C282.376 158.524 281.572 156.936 280.683 155.396C277.427 149.757 273.225 145.051 268.347 141.373C274.556 140.418 279.3 136.632 279.891 130.006C280.602 121.919 287.402 116.641 296.646 124.691C301.946 129.307 307.52 136.972 311.143 147.026C314.769 157.082 304.151 158.739 302.223 153.211C302.319 157.74 295.574 160.944 291.8 155.792C292.196 159.458 286.91 162.994 283.092 160.151H283.092Z" fill="white"/>
<path d="M283.092 160.151C282.376 158.524 281.572 156.936 280.683 155.396C277.427 149.757 273.225 145.051 268.347 141.373C274.556 140.418 279.3 136.632 279.891 130.006C280.602 121.919 287.402 116.641 296.646 124.691C301.946 129.307 307.52 136.972 311.143 147.026C314.769 157.082 304.151 158.739 302.223 153.211C302.319 157.74 295.574 160.944 291.8 155.792C292.196 159.458 286.91 162.994 283.092 160.151H283.092Z" stroke="black" stroke-width="2.57011" stroke-miterlimit="3.864" stroke-linecap="round" stroke-linejoin="round"/>
<path fill-rule="evenodd" clip-rule="evenodd" d="M275.173 101.229L288.57 87.931C283.214 86.242 279.44 89.1251 273.883 95.075C263.463 89.8181 252.559 87.6339 240.103 87.6339C227.638 87.6339 216.825 89.8181 206.402 95.075C200.845 89.1251 197.076 86.242 191.721 87.931L207.095 104.159C209.139 100.489 212.949 97.2041 218.907 95.2761C229.328 91.9037 254.135 89.6233 272.695 99.5427C273.74 100.105 274.527 100.635 275.173 101.229Z" fill="white"/>
<path d="M275.173 101.229L288.57 87.931C283.214 86.242 279.44 89.1251 273.883 95.075C263.463 89.8181 252.559 87.6339 240.103 87.6339C227.638 87.6339 216.825 89.8181 206.402 95.075C200.845 89.1251 197.076 86.242 191.721 87.931L207.095 104.159C209.139 100.489 212.949 97.2041 218.907 95.2761C229.328 91.9037 254.135 89.6233 272.695 99.5427C273.74 100.105 274.527 100.635 275.173 101.229V101.229Z" stroke="black" stroke-width="5.14023" stroke-miterlimit="3.864" stroke-linecap="round" stroke-linejoin="round"/>
<path d="M240.126 78.7034C242.617 78.7034 244.618 80.7246 244.618 83.2234C244.618 85.7135 242.593 87.7403 240.101 87.7403C252.559 87.7403 263.463 89.8196 273.883 95.0766C275.654 93.1748 277.262 91.5905 278.782 90.3643C278.782 90.3643 287.894 80.8032 276.265 76.027C270.706 73.7438 269.218 73.2458 251.95 67.095C243.42 64.6137 240.103 69.3782 240.103 73.3449C240.103 78.5723 240.127 78.7034 240.127 78.7034H240.126Z" fill="white"/>
<path d="M240.126 78.7034C242.617 78.7034 244.618 80.7246 244.618 83.2234C244.618 85.7135 242.593 87.7403 240.101 87.7403C252.559 87.7403 263.463 89.8196 273.883 95.0766C275.654 93.1748 277.262 91.5905 278.782 90.3643C278.782 90.3643 287.894 80.8032 276.265 76.027C270.706 73.7438 269.218 73.2458 251.95 67.095C243.42 64.6137 240.103 69.3782 240.103 73.3449C240.103 78.5723 240.127 78.7034 240.127 78.7034H240.126Z" stroke="black" stroke-width="5.14023" stroke-miterlimit="3.864" stroke-linecap="round" stroke-linejoin="round"/>
<path d="M272.596 94.58C278.348 84.8528 278.252 81.7775 272.299 79.896C261.582 76.3225 255.635 74.2288 251.759 72.9473C241.831 69.6739 241.548 78.9233 241.548 78.9233C243.348 79.5175 244.618 81.2124 244.618 83.222C244.618 85.7121 242.594 87.7389 240.101 87.7389C252.023 87.7389 262.583 89.8096 272.596 94.58Z" fill="white"/>
<path d="M272.596 94.58C278.348 84.8528 278.252 81.7775 272.299 79.896C261.582 76.3225 255.635 74.2288 251.759 72.9473C241.831 69.6739 241.548 78.9233 241.548 78.9233C243.348 79.5175 244.618 81.2124 244.618 83.222C244.618 85.7121 242.594 87.7389 240.101 87.7389C252.023 87.7389 262.583 89.8096 272.596 94.58V94.58Z" stroke="black" stroke-width="5.14023" stroke-miterlimit="3.864" stroke-linecap="round" stroke-linejoin="round"/>
<path d="M240.074 78.7034C237.581 78.7034 235.586 80.7246 235.586 83.2234C235.586 85.7135 237.604 87.7403 240.103 87.7403C227.638 87.7403 216.737 89.8196 206.317 95.0766C204.546 93.1748 202.939 91.5905 201.421 90.3643C201.418 90.3643 192.306 80.8032 203.935 76.027C209.494 73.7438 210.98 73.2458 228.247 67.095C236.78 64.6137 240.1 69.3782 240.1 73.3449C240.1 78.5723 240.074 78.7034 240.074 78.7034H240.074Z" fill="white"/>
<path d="M240.074 78.7034C237.581 78.7034 235.586 80.7246 235.586 83.2234C235.586 85.7135 237.604 87.7403 240.103 87.7403C227.638 87.7403 216.737 89.8196 206.317 95.0766C204.546 93.1748 202.939 91.5905 201.421 90.3643C201.418 90.3643 192.306 80.8032 203.935 76.027C209.494 73.7438 210.98 73.2458 228.247 67.095C236.78 64.6137 240.1 69.3782 240.1 73.3449C240.1 78.5723 240.074 78.7034 240.074 78.7034H240.074Z" stroke="black" stroke-width="5.14023" stroke-miterlimit="3.864" stroke-linecap="round" stroke-linejoin="round"/>
<path d="M207.607 94.58C201.853 84.8528 201.951 81.7775 207.904 79.896C218.625 76.3225 224.563 74.2288 228.448 72.9473C238.367 69.6739 238.65 78.9233 238.65 78.9233C236.85 79.5175 235.586 81.2124 235.586 83.222C235.586 85.7121 237.604 87.7389 240.103 87.7389C228.18 87.7389 217.617 89.8096 207.607 94.58Z" fill="white"/>
<path d="M207.607 94.58C201.853 84.8528 201.951 81.7775 207.904 79.896C218.625 76.3225 224.563 74.2288 228.448 72.9473C238.367 69.6739 238.65 78.9233 238.65 78.9233C236.85 79.5175 235.586 81.2124 235.586 83.222C235.586 85.7121 237.604 87.7389 240.103 87.7389C228.18 87.7389 217.617 89.8096 207.607 94.58Z" stroke="black" stroke-width="5.14023" stroke-miterlimit="3.864" stroke-linecap="round" stroke-linejoin="round"/>
<path d="M240.104 55.7793C242.078 60.043 245.162 66.7151 245.162 66.7151C241.615 67.6704 240.104 70.6848 240.104 73.3437C240.104 70.6848 238.586 67.6704 235.036 66.7151C235.036 66.7151 238.129 60.043 240.104 55.7793Z" fill="white"/>
<path d="M240.104 55.7793C242.078 60.043 245.162 66.7151 245.162 66.7151C241.615 67.6704 240.104 70.6848 240.104 73.3437C240.104 70.6848 238.586 67.6704 235.036 66.7151C235.036 66.7151 238.129 60.043 240.104 55.7793Z" stroke="black" stroke-width="5.14023" stroke-miterlimit="3.864" stroke-linecap="round"/>
<path d="M196.634 179.033C196.634 155.026 216.097 135.566 240.1 135.566C264.104 135.566 283.57 155.026 283.57 179.033C283.57 203.036 264.104 222.494 240.1 222.494C216.097 222.494 196.634 203.036 196.634 179.033Z" fill="#00499C"/>
<path d="M246.147 122.618L236.973 122.018M249.277 112.297L240.103 111.703M194.016 145.99L188.916 153.637M186.645 138.124L181.539 145.768M188.343 202.416L192.414 210.664M177.841 204.871L181.912 213.113M234.221 235.657L243.394 236.254M231.093 245.979L240.264 246.573M286.092 211.948L291.322 204.391M293.326 219.94L298.56 212.385M291.859 155.865L287.639 147.693M302.317 153.227L298.097 145.055M196.634 179.033C196.634 155.027 216.097 135.567 240.101 135.567C264.104 135.567 283.57 155.027 283.57 179.033C283.57 203.037 264.104 222.494 240.101 222.494C216.097 222.494 196.634 203.037 196.634 179.033V179.033Z" stroke="black" stroke-width="2.57011" stroke-miterlimit="3.864" stroke-linecap="round" stroke-linejoin="round"/>
<path fill-rule="evenodd" clip-rule="evenodd" d="M213.799 190.935C212.856 191.581 212.658 192.624 212.658 194.462C208.787 193.026 204.666 189.796 214.489 184.094C214.545 184.528 214.722 184.912 214.941 185.381C213.648 182.603 215.116 180.576 220.696 178.036C226.153 175.555 241.236 168.807 258.503 160.175C259.892 159.429 260.387 158.885 262.126 158.885H314.423C314.423 160.673 312.087 162.263 309.757 162.263C309.757 163.897 306.685 165.88 304.2 165.583C304.2 167.467 300.676 168.856 298.347 168.463C298.347 170.892 294.523 171.932 292.292 171.437C292.292 173.475 285.448 175.555 281.968 174.713C281.968 176.696 272.695 180.316 269.069 178.287L258.401 182.11L269.02 191.931C269.567 194.511 265.997 196.445 264.36 196.244C263.859 197.49 262.272 198.233 260.687 197.685C260.489 198.777 258.352 199.724 256.963 198.976C256.663 200.164 255.18 201.16 253.689 200.464C253.147 201.008 251.854 201.754 250.512 200.959C248.578 202.447 245.258 202.502 245.258 199.82C245.258 197.738 245.363 187.32 242.328 184.533C241.14 183.444 237.069 185.099 226.401 188.357C222.184 189.65 217.815 191.04 213.799 190.935H213.799Z" fill="#FFC726"/>
<path d="M213.799 190.935C212.856 191.581 212.658 192.624 212.658 194.462C208.787 193.026 204.666 189.796 214.489 184.094C214.545 184.528 214.722 184.912 214.941 185.381C213.648 182.603 215.116 180.576 220.696 178.036C226.153 175.555 241.236 168.807 258.503 160.175C259.892 159.429 260.387 158.885 262.126 158.885H314.423C314.423 160.673 312.087 162.263 309.757 162.263C309.757 163.897 306.685 165.88 304.2 165.583C304.2 167.467 300.676 168.856 298.347 168.463C298.347 170.892 294.523 171.932 292.292 171.437C292.292 173.475 285.448 175.555 281.968 174.713C281.968 176.696 272.695 180.316 269.069 178.287L258.401 182.11L269.02 191.931C269.567 194.511 265.997 196.445 264.36 196.244C263.859 197.49 262.272 198.233 260.687 197.685C260.489 198.777 258.352 199.724 256.963 198.976C256.663 200.164 255.18 201.16 253.689 200.464C253.147 201.008 251.854 201.754 250.512 200.959C248.578 202.447 245.258 202.502 245.258 199.82C245.258 197.738 245.363 187.32 242.328 184.533C241.14 183.444 237.069 185.099 226.401 188.357C222.184 189.65 217.815 191.04 213.799 190.935H213.799Z" stroke="black" stroke-width="2.57011" stroke-miterlimit="3.864" stroke-linecap="round"/>
<path fill-rule="evenodd" clip-rule="evenodd" d="M216.394 182.836C217.663 185.265 219.227 184.437 220.171 182.975C220.753 182.076 220.52 181.138 221.537 180.174C219.935 180.873 218.057 181.892 216.394 182.836Z" fill="black"/>
<path d="M309.512 162.159L280.631 161.314M304.002 165.584L279.734 163.548M298.198 168.415L278.4 165.832M292.341 171.493L276.216 168.464M282.218 174.764L271.402 172.032M268.874 178.136L262.473 174.714M264.456 195.852L260.987 188.81M260.585 197.39L257.804 189.896M256.913 198.828L254.784 190.691M253.788 200.319L251.901 191.536M250.415 200.96L248.68 192.08M220.89 187.092C218.062 187.989 214.891 189.276 213.598 191.067" stroke="black" stroke-width="2.57011" stroke-miterlimit="3.864" stroke-linecap="round" stroke-linejoin="round"/>
<path fill-rule="evenodd" clip-rule="evenodd" d="M216.553 180.37C217.541 179.621 218.895 178.858 220.695 178.037C223.863 176.601 230.279 173.718 238.489 169.862C238.489 169.862 232.304 161.469 217.718 161.469H168.494C168.494 163.548 170.979 166.676 172.86 166.676C172.86 168.511 175.638 171.141 178.37 170.745C178.37 172.087 182.788 173.87 185.415 173.322C185.415 175.011 190.724 175.46 193.252 174.866C193.252 176.849 199.059 176.499 203.128 175.413L212.258 178.832C212.258 178.832 213.997 181.066 216.553 180.37Z" fill="#FFC726"/>
<path d="M212.357 178.832L216.923 175.608M203.18 175.358L213.997 172.777M193.354 174.763L212.01 170.893M185.365 173.374L210.426 168.907M178.321 170.698L208.938 166.874M172.763 166.623L207.592 164.739M216.553 180.37C217.541 179.621 218.895 178.858 220.695 178.037C223.863 176.601 230.279 173.718 238.489 169.862C238.489 169.862 232.304 161.469 217.718 161.469H168.494C168.494 163.548 170.979 166.676 172.86 166.676C172.86 168.511 175.638 171.141 178.37 170.745C178.37 172.087 182.788 173.87 185.415 173.322C185.415 175.011 190.724 175.46 193.252 174.866C193.252 176.849 199.059 176.499 203.128 175.413L212.258 178.832C212.258 178.832 213.997 181.066 216.553 180.37V180.37Z" stroke="black" stroke-width="2.57011" stroke-miterlimit="3.864" stroke-linecap="round" stroke-linejoin="round"/>
</svg>
