<svg width="480" height="320" viewBox="0 0 480 320" fill="none" xmlns="http://www.w3.org/2000/svg">
<path d="M101.866 78.498H104.98C107.37 78.7097 109.732 79.2981 111.9 80.3393C117.486 83.0002 121.578 87.9455 124.694 93.1615C129.63 101.589 132.575 111.005 134.908 120.438C138.011 133.337 139.793 146.519 141.001 159.722C142.209 173.617 142.834 187.571 142.7 201.517C139.598 198.563 136.63 195.474 133.671 192.379C122.658 180.75 112.153 168.612 102.601 155.747C96.0349 146.843 89.8835 137.579 84.9542 127.658C81.8317 121.256 79.156 114.54 78.0692 107.463C77.2692 102.081 77.5166 96.3074 80.1037 91.4126C82.4385 86.8858 86.6268 83.591 91.2078 81.5282C94.5789 79.9811 98.1531 78.7959 101.866 78.498ZM94.0275 87.6809C91.2324 89.0027 88.6084 90.8686 86.8631 93.4594C84.729 96.4588 83.9253 100.202 83.9339 103.83C84.0336 109.023 85.4465 114.097 87.353 118.897C89.5524 124.516 92.4164 129.846 95.5081 135.015C100.711 143.584 106.606 151.712 112.847 159.548C118.701 166.944 124.898 174.069 131.283 181.012C133.028 182.714 134.491 184.699 136.382 186.248C136.514 184.661 136.38 183.072 136.382 181.483C135.894 167.108 134.782 152.737 132.604 138.512C130.895 127.769 128.696 117.025 124.806 106.838C122.914 101.973 120.612 97.2034 117.374 93.0803C114.617 89.6366 110.995 86.6126 106.584 85.671C102.322 84.6802 97.8909 85.8298 94.0275 87.6809ZM204.192 137.866C206.006 137.417 208.009 137.532 209.696 138.38C211.657 139.409 213.258 141.248 213.733 143.441C214.085 145.092 213.989 146.897 213.177 148.405C212.246 150.266 210.571 151.687 208.663 152.483C206.1 153.445 203.008 152.825 201.065 150.876C198.375 148.422 197.926 144.004 199.936 140.999C200.951 139.53 202.436 138.318 204.192 137.866ZM176.236 143.695C181.027 141.824 186.224 141.308 191.33 141.346C191.333 143.34 191.33 145.337 191.333 147.329C187.112 147.312 182.593 147.861 179.094 150.426C175.19 153.238 172.976 157.982 172.714 162.725C172.493 166.836 172.656 170.957 172.609 175.073C178.872 175.076 185.137 175.073 191.398 175.076C191.4 176.657 191.4 178.239 191.4 179.823C185.136 179.823 178.872 179.821 172.608 179.823C172.605 191.182 172.608 202.537 172.608 213.893C168.684 213.896 164.76 213.893 160.839 213.896C160.837 198.496 160.837 183.098 160.839 167.696C160.901 162.692 161.907 157.579 164.558 153.275C167.23 148.883 171.44 145.498 176.236 143.695ZM313.811 146.086C319.64 142.294 326.788 141.273 333.614 141.349C333.614 143.343 333.614 145.337 333.618 147.329C329.346 147.31 324.77 147.877 321.251 150.507C317.239 153.456 315.078 158.437 314.937 163.339C314.835 167.251 314.915 171.161 314.898 175.075C321.18 175.072 327.467 175.072 333.751 175.075C333.755 176.656 333.751 178.238 333.755 179.822C327.467 179.829 321.174 179.802 314.886 179.832C314.9 191.186 314.888 202.536 314.891 213.892C310.969 213.895 307.047 213.892 303.126 213.892C303.122 200.606 303.126 187.322 303.122 174.033C303.166 169.264 302.819 164.396 304.116 159.743C305.501 154.197 309.009 149.205 313.811 146.086ZM342.981 141.486C346.88 141.483 350.779 141.483 354.678 141.486C354.695 157.669 354.654 173.86 354.699 190.046C354.636 194.779 356.076 199.71 359.52 203.082C362.411 206.051 366.61 207.301 370.652 207.518C370.65 209.508 370.652 211.498 370.65 213.492C364.757 213.417 358.696 212.185 353.706 208.915C350.058 206.526 347.078 203.095 345.324 199.095C343.81 195.73 343.121 192.037 342.981 188.363C342.978 172.735 342.978 157.109 342.981 141.486ZM200.698 162.617C204.619 162.614 208.543 162.614 212.464 162.617C212.469 179.616 212.462 196.617 212.466 213.618C208.545 213.628 204.621 213.618 200.7 213.623C200.693 196.619 200.698 179.619 200.698 162.617ZM373.957 162.687C377.879 162.684 381.802 162.684 385.724 162.687C385.727 170.329 385.724 177.966 385.727 185.608C385.753 189.278 385.51 193.015 386.393 196.619C387.164 200.032 388.907 203.391 391.855 205.408C396.112 208.387 402.197 208.409 406.457 205.426C410.431 202.784 412.622 198.019 412.707 193.32C412.718 183.11 412.704 172.896 412.711 162.687C416.224 162.677 419.739 162.699 423.253 162.675C423.718 162.677 424.228 162.624 424.616 162.956V215.234C424.395 218.227 424.185 221.249 423.263 224.124C421.708 229.41 418.179 234.083 413.498 236.991C408.389 240.2 402.267 241.277 396.322 241.501H394.05V235.446C398.438 235.561 403.167 234.903 406.713 232.102C410.469 229.181 412.512 224.447 412.73 219.756C412.837 216.335 412.732 212.91 412.782 209.481C410.138 211.89 406.597 213.024 403.125 213.577C397.658 214.354 391.897 213.868 386.855 211.5C383.116 209.73 379.727 206.992 377.692 203.341C375.099 198.807 374.085 193.535 373.953 188.362C373.954 179.805 373.954 171.245 373.957 162.687ZM237.96 164.723C241.657 163.257 245.683 162.902 249.626 162.891C249.686 164.588 249.728 166.281 249.704 167.978C247.985 167.834 246.396 168.54 244.778 168.977C241.576 169.976 238.678 172.037 236.854 174.869C234.884 177.768 234.111 181.311 234.075 184.778C234.081 194.415 234.075 204.052 234.079 213.689C230.155 213.687 226.231 213.692 222.308 213.687C222.31 205.333 222.31 196.98 222.308 188.627C222.412 183.883 223.463 179.066 225.953 174.985C227.344 172.619 229.255 170.609 231.328 168.833C233.31 167.136 235.52 165.669 237.96 164.723ZM249.678 175.018C254.26 167.825 262.751 163.348 271.273 163.614C275.842 163.801 280.357 165.188 284.184 167.7C289.127 170.875 292.67 176.053 294.061 181.743C294.92 184.959 294.719 188.301 294.65 191.592C282.048 191.592 269.443 191.587 256.838 191.594C257.211 194.402 257.768 197.234 259.007 199.803C261.07 204.061 265.208 207.367 269.938 208.035C273.063 208.468 276.285 208.32 279.338 207.52C283.672 206.388 287.555 204.03 291.071 201.319C291.076 202.527 291.063 203.74 291.082 204.956C287.928 207.994 284.314 210.663 280.14 212.108C275.001 213.901 269.332 214.083 264.063 212.766C258.997 211.444 254.351 208.473 251.144 204.324C248.271 200.566 246.468 196.102 245.924 191.403C245.166 185.725 246.559 179.817 249.678 175.018ZM267.829 169.557C265.323 169.956 263.138 171.487 261.471 173.336C258.643 176.634 257.445 181.006 256.964 185.242C265.802 185.257 274.643 185.315 283.479 185.216C282.926 180.841 282.058 176.074 278.779 172.851C276.004 169.946 271.711 168.929 267.829 169.557ZM67.055 167.048C71.812 165.635 76.9037 166.483 81.5449 167.935C87.5302 169.857 93.1081 172.858 98.4509 176.134C110.06 183.401 120.625 192.202 130.716 201.428C134.844 205.282 138.971 209.138 142.839 213.252C135.531 213.29 128.218 212.969 120.925 212.468C108.041 211.514 95.1364 209.961 82.6403 206.597C75.7172 204.65 68.7572 202.222 62.9122 197.922C59.0439 195.071 55.7897 190.907 55.3848 185.968V183.358C55.7122 180.094 56.9269 176.975 58.5097 174.125C60.3645 170.831 63.3873 168.12 67.055 167.048ZM67.8341 171.87C65.4414 172.911 63.5473 174.87 62.3387 177.158C61.1522 179.428 60.2291 181.92 60.223 184.515C60.1725 187.515 61.5054 190.424 63.5436 192.587C65.6888 194.946 68.4335 196.663 71.2507 198.106C78.3794 201.602 86.1542 203.501 93.9143 204.999C101.84 206.467 109.859 207.405 117.896 208.028C122.577 208.361 127.266 208.686 131.964 208.679C130.529 206.999 128.866 205.527 127.245 204.032C122.301 199.41 117.18 194.981 111.895 190.754C105.369 185.586 98.6035 180.665 91.2853 176.67C87.0539 174.42 82.6613 172.345 77.9511 171.333C74.6243 170.634 71.0058 170.463 67.8341 171.87Z" fill="#F06519"/>
<path d="M94.0278 87.6806C97.8912 85.8308 102.32 84.68 106.584 85.6708C110.995 86.6123 114.616 89.6363 117.374 93.08C120.611 97.2031 122.914 101.972 124.806 106.838C128.696 117.025 130.896 127.768 132.604 138.512C134.784 152.737 135.894 167.108 136.384 181.483C136.38 183.072 136.514 184.661 136.384 186.247C134.492 184.699 133.029 182.714 131.283 181.012C124.898 174.069 118.7 166.944 112.848 159.548C106.605 151.713 100.711 143.584 95.5084 135.015C92.4167 129.847 89.5527 124.517 87.3545 118.897C85.448 114.098 84.0339 109.024 83.9342 103.83C83.9268 100.201 84.7293 96.4585 86.8634 93.4591C88.6099 90.8683 91.2327 89 94.0278 87.6806ZM98.0869 93.6917C95.1084 94.8265 92.4475 97.0961 91.3632 100.153C90.0364 103.808 90.5459 107.821 91.4912 111.507C93.2056 117.913 96.3183 123.837 99.6611 129.528C104.643 137.827 110.39 145.639 116.434 153.186C120.715 158.448 125.047 163.68 129.717 168.603C129.541 163.244 128.944 157.909 128.381 152.581C127.063 141.132 125.256 129.703 122.152 118.593C120.443 112.616 118.384 106.669 115.161 101.321C113.16 98.1115 110.621 94.9865 107.075 93.4333C104.221 92.1705 100.898 92.4523 98.0869 93.6917ZM67.8344 171.869C71.0061 170.463 74.6246 170.634 77.9501 171.33C82.6616 172.34 87.053 174.417 91.2844 176.665C98.6026 180.66 105.368 185.58 111.894 190.748C117.179 194.977 122.3 199.407 127.244 204.03C128.865 205.523 130.528 206.993 131.963 208.676C127.266 208.681 122.577 208.358 117.895 208.025C109.858 207.402 101.84 206.464 93.9133 204.996C86.1533 203.496 78.3785 201.599 71.2498 198.101C68.4325 196.656 65.6879 194.943 63.5427 192.582C61.5057 190.419 60.1728 187.51 60.222 184.51C60.2269 181.919 61.15 179.425 62.3377 177.156C63.5476 174.869 65.4417 172.91 67.8344 171.869ZM70.5741 176.302C68.9692 176.937 67.6424 178.167 66.8055 179.662C65.6165 181.798 64.9827 184.395 65.7396 186.784C66.5162 189.15 68.3932 190.958 70.3759 192.358C74.0953 194.883 78.3821 196.401 82.6677 197.664C88.1385 199.241 93.7472 200.282 99.3718 201.116C106.107 202.052 112.885 202.814 119.683 203.023C118.982 202.191 118.124 201.52 117.31 200.806C113.955 197.892 110.512 195.079 106.987 192.373C100.545 187.46 93.8616 182.774 86.5705 179.202C83.6523 177.792 80.6099 176.575 77.4184 175.957C75.1612 175.545 72.7464 175.441 70.5741 176.302Z" fill="#F79515"/>
<path d="M98.0869 93.6929C100.898 92.4511 104.22 92.1717 107.077 93.432C110.622 94.9852 113.161 98.1102 115.163 101.32C118.384 106.668 120.444 112.615 122.154 118.592C125.256 129.702 127.063 141.131 128.383 152.579C128.945 157.907 129.542 163.247 129.719 168.602C125.048 163.679 120.716 158.448 116.435 153.185C110.39 145.638 104.643 137.826 99.6623 129.527C96.3195 123.836 93.2069 117.912 91.4924 111.506C90.5447 107.821 90.0352 103.806 91.3644 100.152C92.4475 97.0972 95.1072 94.8277 98.0869 93.6929ZM70.5741 176.303C72.7477 175.442 75.1625 175.546 77.4197 175.962C80.6111 176.58 83.6524 177.796 86.5718 179.207C93.8629 182.779 100.546 187.465 106.988 192.375C110.514 195.081 113.957 197.894 117.312 200.809C118.125 201.523 118.982 202.196 119.685 203.025C112.887 202.816 106.108 202.054 99.3731 201.121C93.7484 200.287 88.1398 199.247 82.669 197.667C78.3846 196.407 74.0978 194.885 70.3772 192.363C68.3957 190.959 66.5175 189.154 65.7409 186.789C64.9839 184.4 65.6153 181.801 66.8067 179.666C67.6424 178.166 68.9692 176.935 70.5741 176.303Z" fill="#FFCF02"/>
</svg>
