<svg width="480" height="320" viewBox="0 0 480 320" fill="none" xmlns="http://www.w3.org/2000/svg">
<path d="M308.15 167.743H318.29L320.335 156.496H310.109L312.432 143.254L301.665 145.777L298.118 156.496H290.54L288.581 167.743H295.284L291.518 188.278C288.939 202.185 291.502 206.03 305.236 204.977C307.716 204.788 309.515 204.351 310.867 203.801L313.891 192.525C312.319 192.968 310.702 193.24 309.071 193.334C304.313 193.616 303.739 192.416 304.555 188.222L308.15 167.743ZM337.566 181.986L337.564 181.989H351.089L348.571 160.413L347.363 161.104L337.566 181.986ZM366.838 204.606H353.508L352.358 194.42L352.293 193.784H332.276L327.094 204.606H313.929L343.143 144.867L358.287 141.465L366.838 204.606ZM389.21 204.607H402.162L406.62 179.181C408.599 168.859 410.496 167.319 421.527 167.463L424.616 155.047C411.165 155.132 409.012 158.067 407.956 160.213L408.089 154.942L397.591 157.395L389.21 204.607ZM379.212 151.948H392.261L394.861 137.609L381.249 140.698L379.212 151.948ZM206.983 151.948H220.031L222.631 137.609L209.02 140.698L206.983 151.948ZM370.009 204.607H382.876L391.205 157.403H378.337L370.009 204.607ZM265.121 205.204C273.813 205.204 282.59 202.05 282.59 190.036C282.59 182.538 278.755 179.215 271.512 175.976C267.167 174.017 264.61 172.824 264.61 170.694C264.61 167.967 265.974 166.604 269.297 166.604C273.983 166.604 277.562 167.796 280.119 169.16L286.764 159.106C283.1 156.976 277.733 155.441 270.319 155.441C261.883 155.441 252 158.338 252 171.205C252 178.193 255.92 181.429 262.48 184.497C268.87 187.395 270.319 188.161 270.319 190.634C270.319 193.87 268.36 194.638 265.547 194.638C259.497 194.638 254.896 192.423 251.829 190.462L245.268 200.347C249.869 202.987 256.089 205.204 265.121 205.204V205.204ZM197.779 204.607H210.647L218.967 157.403H206.099L197.779 204.607ZM154.041 204.607H167.93L172.369 179.752H190.427L195.87 167.652H174.414L176.962 153.653H201.587L203.802 141.466H165.204L154.041 204.607ZM248.801 167.461C238.226 167.374 236.338 169.023 234.39 179.181L229.933 204.607H216.981L225.362 157.395L235.859 154.942L235.727 160.213C236.769 158.095 238.901 155.215 251.887 155.058L248.801 167.461Z" fill="#C31B31"/>
<path d="M55.3848 141.466L61.2962 154.517L149.948 147.119L153.031 141.466H55.3848ZM85.5128 160.482L61.9808 204.607H84.0228L96.0244 179.236L98.715 177.696L101.785 204.607H123.907L115.779 153.603L85.5128 160.482ZM116.109 136.61H96.257L99.3554 119.494L120.065 114.795L116.109 136.61" fill="#A1A7AA"/>
</svg>
