<svg width="480" height="320" viewBox="0 0 480 320" fill="none" xmlns="http://www.w3.org/2000/svg">
<path fill-rule="evenodd" clip-rule="evenodd" d="M239.998 53.334C298.749 53.334 346.667 101.25 346.667 160C346.667 218.751 298.749 266.667 239.998 266.667C181.25 266.667 133.332 218.751 133.332 160C133.332 101.25 181.25 53.334 239.998 53.334Z" fill="white"/>
<path fill-rule="evenodd" clip-rule="evenodd" d="M250.378 207.518C250.378 210.283 251.296 212.598 253.126 214.473C254.95 216.348 257.188 217.28 259.844 217.28C262.262 217.28 264.389 216.338 266.239 214.463C268.079 212.58 269.003 210.384 269.003 207.865C269.003 205.185 268.087 202.887 266.264 200.971C264.432 199.062 262.26 198.103 259.741 198.103C257.156 198.103 254.95 199.011 253.126 200.834C251.295 202.658 250.378 204.888 250.378 207.518ZM268.759 221.36V218.001C267.502 219.307 266.094 220.299 264.551 220.969C262.984 221.643 261.295 221.987 259.59 221.979C255.483 221.979 252.074 220.605 249.351 217.865C246.639 215.125 245.281 211.692 245.281 207.569C245.281 205.643 245.619 203.819 246.298 202.099C246.957 200.405 247.946 198.86 249.208 197.553C250.582 196.109 252.082 195.05 253.711 194.363C255.348 193.675 257.206 193.33 259.293 193.33C261.167 193.33 262.888 193.659 264.456 194.321C266.037 194.983 267.469 195.992 268.759 197.33V194.024H273.729V221.36H268.759ZM284.313 190.82H279.444V185.178H284.313V190.82ZM279.444 221.36V194.024H284.313V221.36H279.444ZM295.152 221.36H290.233V194.024H294.856V197.178C295.67 195.974 296.603 195.076 297.654 194.49C298.706 193.905 299.927 193.598 301.317 193.582V198.723C299.113 198.893 297.535 199.536 296.585 200.674C295.626 201.808 295.152 203.633 295.152 206.152V221.36Z" fill="#160A7F"/>
<path fill-rule="evenodd" clip-rule="evenodd" d="M239.998 59.3203C295.451 59.3203 340.679 104.549 340.679 160C340.679 215.452 295.451 260.681 239.998 260.681C184.547 260.681 139.32 215.452 139.32 160C139.32 104.549 184.547 59.3203 239.998 59.3203ZM309.284 89.4447V229.934H220.827L309.284 89.4447ZM171.633 89.9188H301.243L279.563 124.674L211.475 124.53L211.137 145.355L265.343 145.424L245.361 177.83L211.841 177.901V229.934H171.633V89.9188Z" fill="#160A7F"/>
</svg>
