<svg width="480" height="320" viewBox="0 0 480 320" fill="none" xmlns="http://www.w3.org/2000/svg">
<path d="M136.415 196.904C136.415 219.285 118.274 237.421 95.9025 237.421C73.522 237.422 55.3848 219.285 55.3848 196.906C55.3848 174.538 73.522 156.397 95.9025 156.397C118.274 156.397 136.415 174.538 136.415 196.906M249.61 155.984H264.21V217.169H249.61V155.984ZM332.906 194.276V217.101H320.739V197.991C320.739 192.289 317.038 190.737 314.321 190.737C311.002 190.737 307.297 192.712 307.297 198.174V217.102H292.694V177.137H304.591L305.698 182.831C308.639 179.321 312.797 177.137 318.71 177.137C325.104 177.137 332.906 182.831 332.906 194.278M378.051 211.463L383.737 204.353C387.202 207.503 390.984 208.112 393.88 207.855C395.824 207.686 396.762 206.632 396.762 205.617C396.762 204.687 396.215 204.059 391.54 202.658C385.068 200.786 379.373 197.507 379.373 190.256C379.373 181.835 386.081 177.39 394.036 177.39C400.278 177.39 404.481 179.023 409.004 182.222L404.609 190.126C400.993 187.277 397.533 186.488 395.127 186.617C393.355 186.718 392.088 187.997 392.088 189.086C392.088 189.868 393.021 190.572 396.842 191.812C405.495 194.545 409.789 197.036 409.789 204.523C409.789 212.014 404.481 217.156 393.644 217.156C387.718 217.156 382.416 215.368 378.051 211.463ZM271.155 177.119H285.986V217.081H271.156L271.155 177.119ZM244.505 177.125C238.376 177.125 234.554 178.66 231.703 182.815L230.559 177.125H218.65V217.091H232.863V202.148C232.863 189.024 244.59 191.498 244.59 191.498V177.125H244.505ZM176.301 197.187C176.301 192.458 172.262 189.197 168.427 189.197C164.269 189.197 160.559 192.458 160.559 197.187C160.559 202.085 164.269 205.261 168.427 205.261C172.262 205.261 176.301 202.083 176.301 197.187ZM190.248 177.209V217.17H176.341V212.134C174.14 214.772 169.207 217.17 164.802 217.17C153.871 217.17 147.43 209.505 147.43 197.187C147.43 184.873 154.975 177.209 164.922 177.209C170.546 177.209 175.238 178.93 178.024 182.867L179.099 177.209H190.248ZM197.036 177.124H211.868V217.09H197.036V177.124ZM362.62 192.96H351.112C351.112 192.96 351.121 192.529 351.213 191.973C351.444 190.64 352.137 189.431 353.172 188.559C354.206 187.688 355.515 187.209 356.867 187.207C359.692 187.207 362.033 189.25 362.517 191.936C362.517 191.936 362.618 192.372 362.618 192.959M359.321 206.946C355.273 206.946 351.564 204.179 350.941 200.517H375.95C376.102 199.584 376.262 197.71 376.262 196.776C376.262 185.33 368.08 177.225 357.093 177.225C345.567 177.225 337.305 185.56 337.305 197.092C337.305 208.854 345.878 216.955 357.333 216.955C364.091 216.955 369.428 214.672 372.916 211.617L367.311 203.783C364.904 205.985 362.422 206.946 359.321 206.946ZM212.81 164.283C212.81 163.185 212.594 162.098 212.174 161.084C211.754 160.069 211.138 159.148 210.362 158.371C209.585 157.595 208.664 156.979 207.649 156.56C206.635 156.14 205.547 155.924 204.45 155.924C203.352 155.924 202.265 156.14 201.251 156.56C200.237 156.98 199.315 157.596 198.539 158.372C197.763 159.149 197.147 160.07 196.727 161.084C196.307 162.099 196.091 163.185 196.092 164.283C196.092 168.901 199.833 172.641 204.451 172.641C206.668 172.641 208.793 171.761 210.361 170.193C211.928 168.626 212.809 166.5 212.809 164.283M286.979 164.283C286.979 163.185 286.763 162.099 286.343 161.084C285.924 160.07 285.308 159.149 284.532 158.372C283.756 157.596 282.834 156.98 281.82 156.56C280.806 156.14 279.719 155.924 278.621 155.924C277.523 155.924 276.436 156.14 275.422 156.56C274.407 156.979 273.486 157.595 272.709 158.371C271.933 159.148 271.317 160.069 270.897 161.084C270.477 162.098 270.261 163.185 270.261 164.283C270.261 168.901 274.003 172.641 278.621 172.641C280.838 172.641 282.964 171.761 284.531 170.193C286.099 168.626 286.979 166.5 286.979 164.283ZM70.662 115.614H66.29V103.932H70.662V100.991C70.662 90.5503 78.1096 82.9791 91.122 82.9791C93.0122 82.9791 95.1207 82.9917 95.1207 82.9917L95.0765 94.2551H94.156C86.7626 94.2551 84.6139 97.9878 84.6139 102.49V103.927H96.2644V115.609H85.3818V144.222H70.6632L70.662 115.614ZM101.624 82.9779H116.34V144.225H101.624V82.9779ZM218.864 103.923C212.694 103.923 208.852 105.462 205.977 109.643L204.825 103.923H192.846V144.141H207.147V129.106C207.147 115.89 218.945 118.386 218.945 118.386V103.922L218.864 103.923ZM150.757 124.111C150.757 119.351 146.691 116.067 142.834 116.067C138.643 116.067 134.911 119.351 134.911 124.111C134.911 129.035 138.643 132.238 142.834 132.238C146.691 132.238 150.757 129.035 150.757 124.111ZM164.792 103.998V144.223H150.797V139.156C148.578 141.812 143.617 144.223 139.182 144.223C128.181 144.223 121.699 136.504 121.699 124.11C121.699 111.716 129.293 103.999 139.307 103.999C144.961 103.999 149.685 105.738 152.488 109.698L153.573 103.998H164.792ZM171.373 103.922H186.297V144.141H171.373V103.922ZM187.253 90.9954C187.254 89.8904 187.037 88.796 186.614 87.7749C186.192 86.7538 185.573 85.8259 184.791 85.0442C184.01 84.2626 183.083 83.6425 182.062 83.2193C181.041 82.7962 179.947 82.5783 178.842 82.5781C177.178 82.5776 175.551 83.0707 174.167 83.9949C172.783 84.9191 171.704 86.233 171.066 87.7704C170.429 89.3078 170.262 90.9997 170.586 92.6321C170.91 94.2645 171.711 95.7641 172.888 96.9412C174.064 98.1184 175.563 98.9203 177.195 99.2455C178.828 99.5707 180.52 99.4045 182.057 98.7681C183.595 98.1317 184.91 97.0535 185.835 95.67C186.76 94.2865 187.254 92.6597 187.254 90.9954M414.429 179.228H412.614V178.249H417.361V179.228H415.52V184.662H414.43L414.429 179.228ZM424.616 178.25V184.656H423.526V180.367H423.513L421.752 183.424H421.041L419.288 180.367H419.279V184.655H418.184V178.249H419.279L421.392 182.089H421.405L423.523 178.25H424.616Z" fill="black"/>
</svg>
