<svg width="480" height="320" viewBox="0 0 480 320" fill="none" xmlns="http://www.w3.org/2000/svg">
<path d="M55.3848 163.406H81.7014V169.65H62.399V183.482H81.7014V189.723H62.399V212.677H55.3848V163.406ZM90.3252 163.406H96.761V212.677H90.3252V163.406ZM107.974 180.214H114.407V212.677H107.974V180.214ZM111.136 166.579C112.193 166.579 113.097 166.938 113.852 167.67C114.605 168.399 114.983 169.293 114.983 170.353C114.983 171.387 114.605 172.283 113.852 173.035C113.097 173.788 112.193 174.163 111.136 174.163C110.149 174.163 109.279 173.783 108.523 173.017C107.773 172.252 107.396 171.363 107.396 170.353C107.396 169.366 107.773 168.488 108.523 167.725C109.279 166.959 110.149 166.579 111.136 166.579M135.871 185.785C134.118 185.785 132.629 186.371 131.399 187.551C130.17 188.733 129.553 190.148 129.553 191.796C129.553 193.471 130.157 194.857 131.365 195.953C132.571 197.05 134.095 197.597 135.939 197.597C137.762 197.597 139.281 197.037 140.5 195.917C141.719 194.799 142.328 193.403 142.328 191.728C142.328 190.03 141.711 188.616 140.481 187.486C139.249 186.35 137.715 185.785 135.871 185.785ZM134.361 214.253C132.188 214.253 130.412 214.714 129.032 215.628C127.651 216.545 126.958 217.725 126.958 219.168C126.958 222.522 129.982 224.202 136.025 224.202C138.88 224.202 141.091 223.781 142.662 222.942C144.235 222.103 145.019 220.915 145.019 219.384C145.019 217.868 144.024 216.636 142.042 215.685C140.059 214.729 137.499 214.253 134.361 214.253ZM123.791 191.46C123.791 187.994 125.057 185.254 127.589 183.235C130.123 181.224 133.579 180.214 137.963 180.214H151.356V185.209H144.8C146.071 186.509 146.951 187.686 147.444 188.749C147.936 189.814 148.188 191.031 148.188 192.401C148.188 194.101 147.701 195.771 146.735 197.412C145.766 199.053 144.521 200.311 143 201.183C141.476 202.058 138.981 202.754 135.512 203.272C133.077 203.624 131.86 204.462 131.86 205.775C131.86 206.53 132.313 207.148 133.225 207.632C134.134 208.114 135.783 208.617 138.171 209.132C142.167 210.002 144.735 210.687 145.868 211.18C147.006 211.672 148.029 212.378 148.944 213.3C150.488 214.849 151.262 216.803 151.262 219.157C151.262 222.241 149.887 224.7 147.149 226.539C144.409 228.372 140.742 229.292 136.155 229.292C131.522 229.292 127.821 228.367 125.057 226.518C122.291 224.669 120.911 222.192 120.911 219.087C120.911 214.683 123.619 211.852 129.045 210.578C126.888 209.192 125.81 207.814 125.81 206.447C125.81 205.413 126.271 204.475 127.196 203.624C128.123 202.78 129.368 202.155 130.938 201.754C126.172 199.633 123.791 196.203 123.791 191.46ZM157.969 163.406H164.402V184.42C167.077 181.169 170.395 179.542 174.364 179.542C176.521 179.542 178.459 180.081 180.17 181.167C181.886 182.248 183.155 183.745 183.991 185.652C184.827 187.564 185.244 190.398 185.244 194.164V212.677H178.808V192.551C178.808 190.174 178.227 188.257 177.065 186.808C175.909 185.358 174.377 184.631 172.481 184.631C171.077 184.631 169.754 184.996 168.512 185.725C167.272 186.454 165.9 187.663 164.402 189.356V212.677H157.969V163.406ZM191.479 185.342L203.58 173.491V180.214H213.761V185.975H203.58V201.978C203.58 205.715 205.106 207.585 208.159 207.585C210.44 207.585 212.852 206.817 215.392 205.28V211.265C212.938 212.659 210.258 213.349 207.356 213.349C204.431 213.349 201.999 212.484 200.056 210.757C199.464 210.257 198.955 209.666 198.548 209.007C198.149 208.354 197.819 207.507 197.548 206.449C197.279 205.4 197.144 203.397 197.144 200.443V185.975H191.479V185.342ZM308.807 180.214H315.683L301.421 213.349H299.285L289.705 190.656L280.298 213.349H278.131L263.725 180.214H270.616L279.139 199.967L287.33 180.214H292.115L300.363 199.967L308.807 180.214ZM336.033 206.236V196.638L331.738 198.292C329.555 199.159 328.013 200.032 327.11 200.912C326.203 201.792 325.755 202.886 325.755 204.202C325.755 205.535 326.18 206.629 327.042 207.47C327.896 208.317 329.003 208.739 330.363 208.739C332.407 208.739 334.293 207.903 336.033 206.236ZM342.37 193.156V206.981C342.37 208.085 342.747 208.643 343.505 208.643C344.295 208.643 345.514 208.064 347.173 206.913V210.781C345.714 211.7 344.545 212.328 343.662 212.659C342.781 212.99 341.859 213.156 340.896 213.156C338.145 213.156 336.525 212.094 336.033 209.974C333.303 212.094 330.399 213.156 327.318 213.156C325.06 213.156 323.179 212.406 321.674 210.916C320.166 209.427 319.418 207.554 319.418 205.301C319.418 203.254 320.148 201.431 321.611 199.821C323.075 198.214 325.151 196.938 327.847 195.997L336.033 193.179V191.426C336.033 187.475 334.082 185.496 330.193 185.496C326.698 185.496 323.299 187.288 319.991 190.874V183.915C322.481 181 326.065 179.542 330.74 179.542C334.241 179.542 337.046 180.461 339.164 182.3C339.867 182.889 340.502 183.673 341.065 184.652C341.63 185.629 341.984 186.605 342.138 187.585C342.292 188.564 342.37 190.424 342.37 193.156M359.755 180.214V187.626L360.107 187.061C363.217 182.047 366.332 179.542 369.442 179.542C371.869 179.542 374.401 180.766 377.042 183.211L373.648 188.858C371.408 186.746 369.335 185.688 367.426 185.688C365.353 185.688 363.553 186.678 362.037 188.658C360.513 190.637 359.755 192.979 359.755 195.685V212.677H353.319V180.214H359.755ZM386.804 193.179H403.132C402.968 190.598 402.2 188.608 400.84 187.21C399.478 185.811 397.642 185.113 395.337 185.113C393.031 185.113 391.148 185.811 389.679 187.21C388.208 188.608 387.249 190.598 386.804 193.179ZM409.471 197.024H386.71C386.869 200.131 387.911 202.608 389.817 204.444C391.729 206.283 394.198 207.202 397.22 207.202C401.439 207.202 405.333 205.89 408.893 203.264V209.507C406.922 210.817 404.968 211.752 403.033 212.312C401.098 212.872 398.827 213.156 396.219 213.156C392.651 213.156 389.768 212.417 387.562 210.932C385.356 209.45 383.59 207.455 382.262 204.949C380.933 202.441 380.272 199.54 380.272 196.24C380.272 191.296 381.668 187.28 384.462 184.186C387.257 181.091 390.888 179.542 395.344 179.542C399.645 179.542 403.072 181.05 405.632 184.071C408.19 187.092 409.471 191.137 409.471 196.208V197.024Z" fill="#0B335E"/>
<path d="M226.014 210.381C226.014 210.381 262.407 155.331 335.937 135.096" stroke="#2D9EDF" stroke-width="11.5252" stroke-linecap="round" stroke-dasharray="30.73 30.73"/>
<path d="M424.612 115.857C424.662 116.094 424.193 116.847 423.7 117.318C422.979 118.019 420.976 120.381 413.001 122.103C405.015 123.824 394.909 125.686 394.17 125.806C393.433 125.924 392.06 125.642 391.312 127.994C390.573 130.341 381.725 162.143 381.725 162.143L379.068 162.711L376.031 129.429C376.031 129.429 357.154 133.167 355.192 133.13L350.413 145.854L347.946 146.156L348.467 133.276C348.467 133.276 345.831 132.87 345.402 132.787C345.199 132.745 345.045 132.745 345.006 132.557L345.004 132.534C344.978 132.362 345.105 132.307 345.277 132.182C345.634 131.935 347.887 130.505 347.887 130.505L342.232 118.925L344.616 118.206L354.101 127.937C355.88 127.116 374.672 122.954 374.672 122.954L364.076 91.254L366.741 90.707C366.741 90.707 387.617 116.276 389.244 118.128C390.872 119.975 392.013 119.167 392.737 118.985C393.461 118.79 403.468 116.44 411.467 114.802C419.471 113.177 422.244 114.534 423.187 114.882C423.831 115.117 424.555 115.599 424.607 115.836L424.611 115.857L424.612 115.857Z" fill="#2D9EDF"/>
<path d="M242.728 173.967L226.4 212.678H219.148L240.251 163.121H245.184L267.364 212.678H260.144L242.728 173.967Z" fill="#0B335E"/>
</svg>
