<svg width="480" height="320" viewBox="0 0 480 320" fill="none" xmlns="http://www.w3.org/2000/svg">
<path d="M419.955 188.776C419.244 188.271 418.436 188.067 417.524 188.067C416.715 188.067 416.004 188.271 415.397 188.573C414.79 188.876 414.383 189.282 413.977 189.79C413.571 190.298 413.37 190.903 413.167 191.612C412.965 192.321 412.862 192.928 412.862 193.639C412.862 194.45 412.965 195.159 413.167 195.869C413.37 196.58 413.673 197.187 413.977 197.693C414.383 198.199 414.788 198.605 415.397 198.91C416.004 199.215 416.715 199.416 417.524 199.416C418.133 199.416 418.639 199.314 419.146 199.111C419.65 198.908 420.057 198.603 420.361 198.301C420.664 197.996 420.969 197.49 421.172 197.084C421.373 196.578 421.474 196.071 421.474 195.463H423.297C423.095 197.186 422.488 198.502 421.474 199.515C420.461 200.427 419.043 200.935 417.321 200.935C416.307 200.935 415.293 200.732 414.585 200.429C413.776 200.023 413.165 199.517 412.659 198.91C412.153 198.303 411.749 197.49 411.442 196.68C411.14 195.768 411.038 194.856 411.038 193.842C411.038 192.831 411.14 191.917 411.442 191.005C411.749 190.093 412.153 189.384 412.659 188.675C413.165 188.067 413.874 187.458 414.686 187.155C415.497 186.749 416.41 186.548 417.422 186.548C418.133 186.548 418.842 186.65 419.449 186.853C420.057 187.056 420.664 187.359 421.173 187.663C421.677 188.069 422.084 188.474 422.388 189.083C422.691 189.589 422.894 190.299 422.996 191.007H421.173C421.068 189.993 420.662 189.284 419.955 188.776ZM406.681 186.851H408.505V200.529H406.681V186.851ZM397.358 192.729H403.639V194.248H397.358V200.531H395.534V186.853H404.553V188.372H397.36V192.729H397.358ZM386.314 192.729H392.595V194.248H386.314V200.531H384.49V186.853H393.511V188.372H386.316V192.729H386.314ZM379.524 196.377H373.749L372.23 200.531H370.406L375.777 186.853H377.804L383.172 200.531H381.145L379.524 196.377ZM376.687 188.472L374.357 194.856H379.017L376.687 188.472ZM367.569 199.923C367.569 199.72 367.467 199.418 367.467 199.113V198.099C367.467 197.795 367.366 197.391 367.366 197.086C367.264 196.781 367.264 196.477 367.162 196.174C367.061 195.869 366.961 195.565 366.756 195.363C366.555 195.16 366.35 194.959 366.149 194.858C365.844 194.756 365.542 194.655 365.034 194.655H360.577V200.533H358.753V186.855H365.239C366.555 186.855 367.569 187.159 368.277 187.767C368.986 188.374 369.393 189.286 369.393 190.399C369.393 191.21 369.189 191.919 368.785 192.629C368.379 193.239 367.772 193.643 366.961 193.946C367.365 194.047 367.67 194.149 367.975 194.352C368.176 194.555 368.379 194.758 368.582 194.961C368.684 195.162 368.887 195.467 368.887 195.771C368.988 196.076 368.988 196.381 369.09 196.683C369.09 196.988 369.09 197.392 369.191 197.697C369.191 198.002 369.191 198.406 369.293 198.711C369.394 199.015 369.394 199.32 369.496 199.623C369.597 199.927 369.699 200.232 369.9 200.433H367.873C367.67 200.429 367.569 200.226 367.569 199.923ZM367.266 191.917C367.467 191.612 367.57 191.208 367.57 190.702C367.57 189.993 367.367 189.485 366.963 188.979C366.557 188.575 365.949 188.372 365.139 188.372H360.581V193.133H364.329C364.735 193.133 365.139 193.133 365.545 193.032C365.951 192.93 366.254 192.831 366.559 192.626C366.86 192.526 367.061 192.221 367.266 191.917ZM352.574 200.531H350.75V188.372H346.19V186.853H357.132V188.372H352.574V200.531ZM337.779 199.923C337.779 199.72 337.677 199.418 337.677 199.113V198.099C337.677 197.795 337.576 197.391 337.576 197.086C337.474 196.781 337.474 196.477 337.373 196.174C337.271 195.869 337.17 195.565 336.967 195.363C336.766 195.16 336.562 194.959 336.359 194.858C336.055 194.756 335.752 194.655 335.244 194.655H330.786V200.533H328.962V186.855H335.445C336.764 186.855 337.777 187.159 338.486 187.767C339.195 188.374 339.601 189.286 339.601 190.399C339.601 191.21 339.398 191.919 338.992 192.629C338.588 193.239 337.978 193.643 337.168 193.946C337.574 194.047 337.877 194.149 338.182 194.352C338.383 194.555 338.588 194.758 338.789 194.961C338.89 195.162 339.093 195.467 339.093 195.771C339.195 196.076 339.195 196.381 339.295 196.683C339.295 196.988 339.295 197.392 339.396 197.697C339.396 198.002 339.396 198.406 339.498 198.711C339.599 199.015 339.599 199.32 339.701 199.623C339.802 199.927 339.904 200.232 340.107 200.433H338.08C337.982 200.429 337.881 200.226 337.779 199.923ZM337.576 191.917C337.779 191.612 337.881 191.208 337.881 190.702C337.881 189.993 337.679 189.485 337.273 188.979C336.867 188.575 336.26 188.372 335.449 188.372H330.889V193.133H334.639C335.045 193.133 335.449 193.133 335.855 193.032C336.262 192.93 336.564 192.831 336.869 192.626C337.17 192.526 337.373 192.221 337.576 191.917ZM323.999 186.851H325.823V200.529H323.999V186.851ZM319.035 196.377H313.26L311.741 200.531H309.917L315.286 186.853H317.313L322.683 200.531H320.656L319.035 196.377ZM316.196 188.472L313.864 194.856H318.526L316.196 188.472ZM294.21 186.851H303.633V188.37H296.034V192.727H303.127V194.247H296.034V199.01H303.734V200.529H294.21V186.851ZM285.799 200.531L281.038 186.853H282.961L286.914 198.707L290.866 186.853H292.792L287.929 200.531H285.799ZM277.491 186.851H279.315V200.529H277.491V186.851ZM266.649 186.851H268.473V199.01H275.665V200.529H266.647V186.851H266.649ZM143.639 146.727H148.199V152.097H143.639V178.848H137.458V152.097H132.898V146.727H137.458V138.214H137.56C137.662 136.999 137.966 135.783 138.472 134.769C138.978 133.654 139.689 132.742 140.499 131.931C141.31 131.121 142.323 130.514 143.438 130.008C144.553 129.602 145.668 129.299 146.985 129.299H147.594C147.795 129.299 147.998 129.4 148.201 129.4V135.177C147.998 135.075 147.795 135.075 147.594 134.974C147.391 134.974 147.188 134.872 146.985 134.872C146.073 134.872 145.364 135.177 144.655 135.886C144.047 136.595 143.743 137.304 143.743 138.216V138.622H143.641V146.727H143.639ZM154.582 178.846V129.5H160.762V178.947H154.582V178.846ZM170.794 139.936C169.781 139.936 168.97 139.632 168.363 138.923C167.754 138.214 167.451 137.505 167.451 136.491C167.451 135.579 167.756 134.769 168.363 134.06C168.97 133.351 169.781 133.047 170.693 133.047C171.605 133.047 172.415 133.351 173.124 134.06C173.833 134.769 174.138 135.48 174.138 136.491C174.138 137.403 173.833 138.214 173.124 138.923C172.517 139.532 171.705 139.936 170.794 139.936ZM167.652 145.207H173.833L173.732 178.947H167.551L167.652 145.207ZM199.774 145.309V185.027C199.672 186.243 199.367 187.359 198.862 188.372C198.356 189.386 197.645 190.298 196.834 191.108C196.024 191.917 195.112 192.526 193.997 192.93C192.882 193.336 191.767 193.639 190.55 193.639H189.335V187.864C189.638 188.067 190.042 188.169 190.55 188.169C191.462 188.169 192.171 187.864 192.78 187.257C193.39 186.648 193.692 185.837 193.692 184.925V184.519H193.794V177.631C192.374 178.34 190.855 178.746 189.335 178.746C188.119 178.746 186.904 178.545 185.89 178.037C184.775 177.631 183.863 177.024 183.053 176.213C182.242 175.403 181.633 174.491 181.127 173.477C180.622 172.464 180.418 171.351 180.418 170.134H180.317V153.618H180.418C180.418 152.503 180.622 151.388 181.127 150.376C181.633 149.365 182.242 148.451 183.053 147.64C183.863 146.83 184.775 146.324 185.89 145.816C187.004 145.41 188.121 145.209 189.335 145.209C190.855 145.209 192.273 145.514 193.794 146.223V145.311H199.774V145.309ZM193.186 153.413C193.186 153.007 193.085 152.603 192.882 152.197C192.679 151.792 192.376 151.488 191.97 151.285C191.564 150.98 191.159 150.779 190.654 150.576C190.148 150.373 189.742 150.271 189.337 150.271C188.525 150.271 187.714 150.576 187.107 151.183C186.498 151.792 186.193 152.499 186.193 153.312V169.726C186.193 170.536 186.498 171.245 187.107 171.855C187.714 172.462 188.423 172.767 189.337 172.767C189.742 172.767 190.247 172.665 190.654 172.565C191.159 172.464 191.566 172.159 191.97 171.956C192.376 171.651 192.679 171.349 192.882 171.044C193.085 170.638 193.186 170.335 193.186 169.827V153.413ZM225.612 148.043C226.118 148.65 226.727 149.359 227.132 150.07C227.536 150.779 227.841 151.589 228.145 152.501C228.45 153.413 228.651 154.528 228.651 155.745V178.846H222.369V155.339C222.369 154.833 222.267 154.427 221.962 154.021C221.66 153.616 221.355 153.21 220.949 152.906C220.545 152.601 220.14 152.298 219.633 152.197C219.127 151.994 218.619 151.892 218.215 151.892C217.709 151.892 217.201 151.994 216.695 152.197C216.086 152.4 215.58 152.603 215.074 152.906C214.569 153.208 214.162 153.615 213.858 154.021C213.553 154.427 213.35 154.933 213.35 155.339V178.846H207.169V129.5H213.35V147.232C214.161 146.727 215.174 146.219 216.086 145.914C217.1 145.61 218.113 145.51 219.125 145.51C220.441 145.51 221.658 145.713 222.773 146.219C223.788 146.625 224.802 147.232 225.612 148.043ZM245.674 161.723V169.626H245.776V170.032C245.776 170.944 246.081 171.755 246.688 172.362C247.295 173.071 248.108 173.376 249.018 173.376C249.221 173.376 249.424 173.376 249.627 173.274C249.828 173.274 250.031 173.173 250.234 173.073V178.949H249.018C247.702 178.949 246.586 178.746 245.471 178.24C244.356 177.836 243.343 177.125 242.534 176.317C241.722 175.506 241.015 174.592 240.507 173.479C239.999 172.366 239.695 171.249 239.595 170.034H239.494V151.997H235.033V146.523H239.593V129.5H245.774V146.826H250.334V152.298H245.774V161.721H245.674V161.723ZM267.662 150.474C267.459 150.474 267.256 150.373 266.852 150.373C266.041 150.373 265.33 150.576 264.52 151.082C263.71 151.486 263.204 152.095 263.001 152.804V178.946H256.72V145.309H263.001V146.119C264.42 145.408 265.94 145.004 267.561 145.004V150.474H267.662ZM272.931 153.616C272.931 152.4 273.236 151.287 273.742 150.273C274.247 149.259 274.857 148.347 275.665 147.537C276.476 146.727 277.388 146.119 278.503 145.713C279.618 145.307 280.731 145.004 282.049 145.004C283.67 145.004 285.19 145.408 286.609 146.119V145.309H292.689V179.051H286.609V178.24C285.09 178.949 283.57 179.254 282.049 179.254C280.833 179.254 279.618 179.053 278.503 178.545C277.388 178.139 276.374 177.43 275.564 176.721C274.753 175.911 274.044 174.999 273.537 173.985C273.031 172.87 272.828 171.755 272.828 170.642V153.62H272.931V153.616ZM278.807 170.132C278.807 170.943 279.112 171.753 279.719 172.362C280.329 172.97 281.139 173.274 282.051 173.274C282.455 173.274 282.963 173.173 283.367 172.97C283.873 172.767 284.279 172.565 284.684 172.261C285.09 171.956 285.393 171.653 285.596 171.247C285.9 170.843 286 170.437 286 170.032V153.314C286 152.907 285.898 152.503 285.596 152.097C285.291 151.691 284.986 151.388 284.684 151.083C284.278 150.779 283.873 150.578 283.367 150.474C282.861 150.373 282.455 150.273 282.051 150.273C281.139 150.273 280.43 150.578 279.719 151.185C279.112 151.794 278.807 152.501 278.807 153.314V170.132ZM298.768 168.41V153.718C298.768 152.501 298.969 151.388 299.477 150.375C299.983 149.259 300.592 148.347 301.504 147.537C302.314 146.727 303.328 146.119 304.443 145.611C305.558 145.207 306.773 144.903 307.99 144.903C309.609 144.903 311.028 145.309 312.548 146.018V129.5H318.729V178.947H312.548V178.137C311.128 178.846 309.609 179.252 307.99 179.252C306.773 179.252 305.556 179.051 304.443 178.543C303.328 178.137 302.316 177.428 301.504 176.719C300.694 175.909 299.985 174.997 299.477 173.983C298.969 172.97 298.768 171.856 298.666 170.64V168.41H298.768ZM304.646 170.739C304.646 171.55 304.951 172.36 305.558 172.866C306.167 173.475 306.978 173.778 307.89 173.778C308.296 173.778 308.802 173.677 309.31 173.575C309.817 173.474 310.221 173.169 310.626 172.968C311.032 172.663 311.335 172.36 311.54 171.954C311.842 171.55 311.946 171.144 311.946 170.738V153.917C311.946 153.511 311.842 153.107 311.54 152.701C311.235 152.296 310.932 151.992 310.626 151.687C310.221 151.383 309.817 151.181 309.31 150.978C308.804 150.777 308.398 150.674 307.89 150.674C306.978 150.674 306.269 150.978 305.558 151.586C304.951 152.193 304.646 152.902 304.646 153.816V170.739ZM325.214 153.616C325.214 152.4 325.519 151.287 326.025 150.273C326.53 149.259 327.14 148.347 327.95 147.537C328.761 146.727 329.673 146.119 330.788 145.713C331.903 145.307 333.118 145.004 334.334 145.004C335.955 145.004 337.476 145.408 338.894 146.119V145.309H344.972V179.051H338.894V178.24C337.373 178.949 335.854 179.254 334.334 179.254C333.118 179.254 331.903 179.053 330.788 178.545C329.673 178.139 328.661 177.43 327.849 176.721C327.038 175.911 326.329 174.999 325.822 173.985C325.316 172.87 325.113 171.755 325.113 170.642V153.62H325.214V153.616ZM331.09 170.132C331.09 170.943 331.395 171.753 332.002 172.362C332.61 172.97 333.42 173.274 334.332 173.274C334.738 173.274 335.244 173.173 335.649 172.97C336.154 172.767 336.561 172.565 336.965 172.261C337.371 171.956 337.676 171.653 337.877 171.247C338.182 170.843 338.283 170.437 338.283 170.032V153.314C338.283 152.907 338.182 152.503 337.877 152.097C337.572 151.691 337.27 151.388 336.965 151.083C336.561 150.779 336.154 150.578 335.649 150.474C335.143 150.373 334.737 150.273 334.332 150.273C333.42 150.273 332.711 150.578 332.002 151.185C331.393 151.794 331.09 152.501 331.09 153.314V170.132ZM362.807 150.474C362.606 150.474 362.401 150.373 361.997 150.373C361.188 150.373 360.478 150.576 359.667 151.082C358.857 151.486 358.351 152.095 358.148 152.804V178.946H351.867V145.309H358.148V146.119C359.567 145.408 361.087 145.004 362.708 145.004V150.474H362.807Z" fill="#1D1D1B"/>
<path d="M391.987 172.666V178.545H366.555V174.188L371.013 170.135C379.829 161.927 383.982 157.469 383.982 152.505C383.982 149.161 382.158 146.224 377.296 146.224C374.054 146.224 371.216 147.845 369.291 149.364L367.264 144.4C370 142.17 374.054 140.551 378.815 140.551C387.123 140.551 391.175 145.82 391.175 151.899C391.175 158.484 386.414 163.753 379.928 169.834L376.685 172.67V172.772H391.985V172.666H391.987ZM419.752 169.12V178.644H413.063V169.12H396.141V164.56L411.44 141.254H419.752V163.849H424.614V169.22H419.752V169.12ZM413.063 147.033C411.948 149.362 410.936 151.288 409.819 153.417L402.931 163.65L402.828 163.751H413.063V153.518C413.063 151.391 413.165 149.161 413.264 147.034H413.063V147.033Z" fill="#F8C024"/>
<path d="M91.7614 119.064C71.6974 119.064 55.3848 135.379 55.3848 155.441C55.3848 175.503 71.6974 191.818 91.7614 191.818C111.825 191.818 128.138 175.503 128.138 155.441C128.136 135.379 111.824 119.064 91.7614 119.064ZM91.7614 186.346C89.9374 186.346 88.2149 186.143 86.3909 185.84L87.9103 176.618C89.1269 176.821 90.3417 176.923 91.6598 176.923C103.616 176.923 113.343 167.196 113.343 155.24C113.343 143.282 103.616 133.555 91.6598 133.555C79.7023 133.555 69.9749 143.282 69.9749 155.24C69.9749 162.231 73.3183 168.412 78.3842 172.363L72.4063 179.557C65.2118 173.882 60.5521 165.067 60.5521 155.24C60.5521 138.115 74.4334 124.234 91.5565 124.234C108.68 124.234 122.563 138.115 122.563 155.24C122.564 172.363 108.884 186.346 91.7614 186.346ZM86.0863 163.344C83.5534 161.622 81.9325 158.683 81.9325 155.441C81.9325 150.071 86.2894 145.714 91.6598 145.714C97.0285 145.714 101.387 150.071 101.387 155.441C101.387 160.812 97.0303 165.168 91.6598 165.168C91.0506 165.168 90.4432 165.067 89.9355 164.965L91.2537 156.96L86.0863 163.344ZM91.7614 167.5C97.2334 167.5 101.895 163.85 103.313 158.886C103.516 159.191 103.922 159.392 104.326 159.392C105.035 159.392 105.746 158.784 105.746 157.972C105.746 157.162 105.137 156.554 104.326 156.554C104.123 156.554 103.922 156.656 103.719 156.757C103.82 156.252 103.82 155.845 103.82 155.338C103.82 148.649 98.3485 143.279 91.7632 143.279C85.178 143.279 79.706 148.751 79.706 155.338C79.706 159.39 81.6315 162.936 84.6703 165.065L80.5165 170.131C76.058 166.686 73.2205 161.316 73.2205 155.338C73.2205 153.514 73.5251 151.69 74.0309 149.967C74.234 150.069 74.4371 150.17 74.6402 150.17C75.3491 150.17 76.058 149.563 76.058 148.752C76.058 148.143 75.6537 147.637 75.0445 147.434C77.9835 141.05 84.4672 136.693 91.9663 136.693C102.2 136.693 110.611 145.104 110.611 155.338C110.611 162.936 106.051 169.524 99.4654 172.461C99.3638 171.853 98.7546 171.346 98.1472 171.346C97.4383 171.346 96.7294 171.953 96.7294 172.764C96.7294 172.967 96.8309 173.269 96.9325 173.472C95.3115 173.877 93.6906 174.181 91.9682 174.181C90.8531 174.181 89.738 174.08 88.7263 173.877L89.8414 167.393C90.3417 167.397 91.0506 167.5 91.7614 167.5Z" fill="#1D1D1B"/>
<path d="M72.5076 176.72C73.2917 176.72 73.9273 176.085 73.9273 175.301C73.9273 174.516 73.2917 173.881 72.5076 173.881C71.7235 173.881 71.0879 174.516 71.0879 175.301C71.0879 176.085 71.7235 176.72 72.5076 176.72Z" fill="#1D1D1B"/>
<path d="M91.7615 157.064C92.5456 157.064 93.1812 156.428 93.1812 155.644C93.1812 154.86 92.5456 154.225 91.7615 154.225C90.9774 154.225 90.3418 154.86 90.3418 155.644C90.3418 156.428 90.9774 157.064 91.7615 157.064Z" fill="#1D1D1B"/>
<path d="M102.703 132.437C103.486 132.437 104.121 131.802 104.121 131.019C104.121 130.236 103.486 129.602 102.703 129.602C101.92 129.602 101.285 130.236 101.285 131.019C101.285 131.802 101.92 132.437 102.703 132.437Z" fill="#1D1D1B"/>
<path d="M78.3845 149.767C79.1686 149.767 79.8042 149.131 79.8042 148.347C79.8042 147.563 79.1686 146.928 78.3845 146.928C77.6005 146.928 76.9648 147.563 76.9648 148.347C76.9648 149.131 77.6005 149.767 78.3845 149.767Z" fill="#1D1D1B"/>
</svg>
