<svg width="480" height="320" viewBox="0 0 480 320" fill="none" xmlns="http://www.w3.org/2000/svg">
<path d="M386.32 113.343H389.97C389.97 113.977 389.97 114.612 389.97 115.247V140.305C389.898 140.769 389.988 141.244 390.223 141.651C390.604 141.926 391.076 142.045 391.542 141.981H414.482C417.397 141.981 420.287 141.981 423.202 141.981C423.04 141.652 422.817 141.359 422.543 141.117C420.883 138.986 419.99 136.356 420.008 133.653C419.974 131.168 420.699 128.732 422.086 126.672C423.194 125.066 424.639 123.723 426.319 122.736C428.45 121.552 430.841 120.913 433.277 120.878C435.714 120.842 438.122 121.411 440.286 122.533C442.599 123.728 444.478 125.622 445.656 127.946C446.835 130.27 447.253 132.906 446.852 135.481C446.519 137.46 445.723 139.331 444.529 140.942C443.335 142.553 441.777 143.857 439.982 144.748C437.809 145.784 435.417 146.281 433.011 146.195H391.846C391.255 146.233 390.662 146.233 390.071 146.195C390.013 147.178 389.706 148.13 389.178 148.961C388.65 149.791 387.919 150.474 387.055 150.943C385.984 151.571 384.756 151.879 383.516 151.829C382.276 151.78 381.076 151.375 380.059 150.663C379.357 150.172 378.784 149.518 378.387 148.758C377.99 147.998 377.781 147.154 377.777 146.297H381.428C381.556 146.905 381.876 147.457 382.34 147.871C382.798 148.254 383.383 148.451 383.979 148.422C384.575 148.394 385.139 148.143 385.559 147.718C386.032 147.122 386.267 146.371 386.218 145.611C386.32 134.872 386.345 124.107 386.32 113.343ZM432.226 125.605C430.957 125.729 429.728 126.118 428.619 126.748C427.509 127.378 426.545 128.234 425.787 129.261C425.122 130.211 424.668 131.294 424.459 132.435C424.249 133.577 424.287 134.75 424.571 135.876C424.855 137.001 425.378 138.052 426.104 138.956C426.83 139.861 427.742 140.598 428.778 141.117C430.893 142.156 433.298 142.443 435.597 141.93C437.837 141.478 439.816 140.177 441.123 138.299C442.246 136.601 442.683 134.539 442.344 132.53C442.005 130.522 440.916 128.718 439.298 127.484C438.3 126.721 437.162 126.162 435.948 125.84C434.735 125.518 433.47 125.438 432.226 125.605Z" fill="#FD0202"/>
<path d="M377.926 113.573H381.449V144.191H377.926V113.573Z" fill="#FD0202"/>
<path d="M204.113 146.323V113.725H207.561V146.323H204.113Z" fill="#FD0202"/>
<path d="M262.394 114.614C262.879 114.583 263.36 114.713 263.764 114.984C264.167 115.254 264.47 115.651 264.625 116.112C264.75 116.488 264.786 116.888 264.728 117.281C264.671 117.673 264.523 118.047 264.296 118.371C263.986 118.646 263.614 118.84 263.212 118.938C262.809 119.035 262.39 119.032 261.989 118.93C261.495 118.827 261.054 118.55 260.747 118.15C260.44 117.749 260.287 117.251 260.316 116.747C260.34 116.197 260.565 115.676 260.948 115.282C261.332 114.889 261.847 114.651 262.394 114.614Z" fill="#FD0202"/>
<path d="M432.074 114.944C432.561 114.812 433.077 114.851 433.538 115.054C434 115.257 434.377 115.613 434.609 116.061C434.827 116.514 434.893 117.026 434.797 117.52C434.701 118.015 434.449 118.464 434.077 118.803C433.66 119.081 433.171 119.23 432.67 119.23C432.169 119.23 431.68 119.081 431.263 118.803C430.915 118.531 430.656 118.16 430.521 117.739C430.385 117.318 430.379 116.866 430.503 116.442C430.62 116.081 430.825 115.755 431.099 115.494C431.374 115.232 431.709 115.043 432.074 114.944Z" fill="#FD0202"/>
<path d="M358.665 123.881C360.085 122.789 361.818 122.183 363.608 122.154C364.668 122.178 365.712 122.415 366.679 122.851C367.646 123.287 368.515 123.914 369.235 124.693C370.298 125.822 370.903 127.306 370.934 128.857C370.934 131.243 370.934 133.63 370.934 136.042H366.777C366.739 136.056 366.698 136.059 366.659 136.053C366.619 136.046 366.582 136.029 366.551 136.003C366.52 135.977 366.497 135.944 366.483 135.906C366.469 135.868 366.465 135.827 366.472 135.788C366.472 133.731 366.472 131.675 366.472 129.618C366.474 129.153 366.362 128.695 366.145 128.283C365.929 127.871 365.614 127.519 365.23 127.257C364.59 126.877 363.839 126.724 363.101 126.826C362.453 126.897 361.849 127.187 361.388 127.649C360.927 128.11 360.637 128.716 360.566 129.365C360.566 132.03 360.566 134.721 360.566 137.413C360.539 137.801 360.667 138.184 360.921 138.479C361.23 138.731 361.613 138.874 362.011 138.885C363.659 139.012 365.306 138.885 366.954 139.088C367.802 139.19 368.605 139.527 369.272 140.06C369.939 140.594 370.444 141.304 370.731 142.109C370.887 142.906 370.881 143.727 370.711 144.521C370.541 145.316 370.211 146.067 369.742 146.73C368.397 148.711 366.58 150.324 364.456 151.423C362.331 152.522 359.966 153.074 357.575 153.026C355.68 153.025 353.805 152.64 352.062 151.894C350.32 151.148 348.746 150.056 347.436 148.685C346.436 147.625 345.657 146.377 345.143 145.013C344.63 143.648 344.392 142.195 344.445 140.738C344.445 134.544 344.445 128.349 344.445 122.18H349.033C349.084 122.559 349.084 122.943 349.033 123.322C349.033 129.034 349.033 134.772 349.033 140.485C349.019 141.914 349.377 143.323 350.072 144.572C351.08 146.318 352.682 147.643 354.584 148.304C355.917 148.753 357.329 148.92 358.73 148.793C360.131 148.666 361.49 148.249 362.721 147.568C363.904 146.849 364.923 145.888 365.712 144.75C365.928 144.428 366.075 144.065 366.143 143.683C366.143 143.252 365.636 143.125 365.281 143.125H361.428C360.698 143.151 359.971 143.027 359.291 142.76C358.611 142.494 357.992 142.091 357.474 141.576C356.487 140.283 355.985 138.683 356.054 137.057C356.054 134.975 356.054 132.919 356.054 130.837C355.989 129.723 356.066 128.606 356.282 127.511C356.604 126.049 357.452 124.757 358.665 123.881Z" fill="#FD0202"/>
<path d="M254.816 124.465C255.751 123.601 256.927 123.043 258.187 122.865C259.184 122.814 260.182 122.814 261.178 122.865C262.801 122.865 264.423 122.865 266.07 122.865C267.01 122.891 267.931 123.133 268.762 123.573C269.593 124.014 270.312 124.64 270.861 125.404C271.421 126.19 271.722 127.13 271.723 128.095C271.723 130.329 271.723 132.538 271.723 134.747C271.695 135.709 271.551 136.664 271.292 137.59C270.747 139.344 269.771 140.933 268.453 142.211C268.732 142.44 269.112 142.211 269.442 142.211H305.563C306.019 142.255 306.474 142.118 306.831 141.83C307.055 141.447 307.144 141 307.084 140.561C307.084 134.645 307.084 128.73 307.084 122.789C308.605 122.789 310.126 122.789 311.647 122.789C311.647 123.525 311.647 124.287 311.647 125.049V140.865C311.614 141.969 311.202 143.027 310.481 143.861C309.595 144.887 308.389 145.585 307.059 145.842C306.222 145.982 305.372 146.033 304.524 145.994H266.324C265.031 145.994 263.789 145.486 262.522 145.537C261.254 145.588 260.139 146.019 258.948 145.994H232.661C231.135 146.144 229.594 145.998 228.124 145.562C227.617 145.41 227.161 145.029 226.679 144.851C225.427 145.679 223.945 146.088 222.446 146.019C220.266 146.019 218.086 146.019 215.881 146.019V142.211H222.066C222.677 142.281 223.297 142.193 223.865 141.957C224.047 141.832 224.191 141.659 224.28 141.458C224.37 141.256 224.402 141.033 224.372 140.815C224.372 138.758 224.372 136.702 224.372 134.62C224.402 133.883 224.317 133.147 224.119 132.437C223.729 131.252 223.068 130.176 222.187 129.294C221.307 128.412 220.232 127.749 219.049 127.359C218.007 126.988 216.911 126.791 215.805 126.775V122.916C217.441 122.868 219.073 123.118 220.621 123.652C222.66 124.403 224.511 125.59 226.045 127.13C227.663 128.84 228.647 131.053 228.834 133.401C229.037 135.94 228.834 138.479 228.834 141.018C228.828 141.218 228.88 141.415 228.984 141.586C229.087 141.757 229.237 141.895 229.417 141.983C229.93 142.155 230.475 142.216 231.014 142.16H256.894C255.272 140.878 254.121 139.092 253.624 137.083C253.311 135.538 253.201 133.959 253.295 132.386V127.816C253.31 127.184 253.453 126.561 253.714 125.985C253.975 125.409 254.35 124.892 254.816 124.465ZM259.353 127.003C259.007 126.975 258.664 127.085 258.399 127.308C258.133 127.531 257.966 127.851 257.934 128.197C257.934 130.05 257.934 131.903 257.934 133.757C257.86 135.128 258.058 136.5 258.517 137.793C259.285 139.433 260.67 140.702 262.37 141.322C262.902 141.5 263.358 141.145 263.789 140.891C264.885 140.13 265.768 139.1 266.354 137.9C266.939 136.7 267.208 135.37 267.135 134.036C267.135 132.31 267.135 130.583 267.135 128.958C267.192 128.451 267.095 127.937 266.856 127.486C266.661 127.303 266.429 127.164 266.175 127.081C265.921 126.998 265.651 126.971 265.386 127.003H259.353Z" fill="#FD0202"/>
<path d="M184.902 123.094C187.136 123.053 189.344 123.567 191.33 124.591C193.317 125.614 195.019 127.115 196.284 128.959C197.141 130.281 197.679 131.785 197.855 133.351C197.931 134.348 197.931 135.35 197.855 136.347V140.053C197.902 140.75 197.859 141.449 197.729 142.135C197.49 143.262 196.85 144.264 195.929 144.953C194.724 145.855 193.25 146.32 191.746 146.273H184.902V142.465H191.493C192.033 142.529 192.577 142.384 193.014 142.059C193.286 141.705 193.413 141.26 193.369 140.815C193.369 138.632 193.369 136.448 193.369 134.265C193.303 133.184 192.998 132.132 192.476 131.183C191.955 130.235 191.229 129.414 190.352 128.781C188.842 127.656 187.013 127.042 185.13 127.029L184.928 126.75L184.902 123.094Z" fill="#FD0202"/>
<path d="M308.471 146.931C308.794 146.849 309.131 146.838 309.459 146.899C309.787 146.96 310.098 147.092 310.37 147.285C310.643 147.478 310.87 147.728 311.036 148.018C311.203 148.307 311.305 148.63 311.335 148.962C311.376 149.548 311.188 150.126 310.81 150.576C310.433 151.025 309.896 151.309 309.313 151.368C308.73 151.428 308.146 151.258 307.686 150.894C307.226 150.53 306.926 150.001 306.848 149.419C306.761 148.877 306.879 148.321 307.179 147.861C307.479 147.401 307.94 147.07 308.471 146.931Z" fill="#FD0202"/>
<path d="M334.305 146.931C334.603 146.86 334.912 146.849 335.215 146.899C335.517 146.949 335.806 147.058 336.066 147.221C336.325 147.384 336.55 147.598 336.726 147.849C336.903 148.1 337.027 148.383 337.093 148.683C337.184 149.122 337.144 149.577 336.979 149.993C336.813 150.41 336.529 150.768 336.162 151.024C335.795 151.279 335.361 151.421 334.914 151.432C334.466 151.443 334.026 151.321 333.647 151.083C333.268 150.845 332.968 150.501 332.783 150.093C332.598 149.685 332.536 149.232 332.606 148.79C332.676 148.347 332.875 147.935 333.177 147.605C333.479 147.274 333.871 147.04 334.305 146.931Z" fill="#FD0202"/>
<path d="M340.109 146.933C340.419 146.867 340.739 146.864 341.05 146.924C341.361 146.985 341.657 147.108 341.92 147.286C342.182 147.463 342.407 147.692 342.579 147.959C342.751 148.225 342.868 148.524 342.922 148.837C342.958 149.155 342.926 149.478 342.829 149.783C342.732 150.089 342.572 150.37 342.359 150.61C342.147 150.849 341.886 151.041 341.594 151.173C341.303 151.305 340.986 151.374 340.666 151.376C340.371 151.386 340.077 151.337 339.801 151.233C339.525 151.128 339.272 150.97 339.058 150.767C338.843 150.563 338.671 150.32 338.551 150.049C338.431 149.779 338.366 149.488 338.36 149.192C338.351 148.673 338.52 148.165 338.838 147.755C339.156 147.344 339.604 147.054 340.109 146.933Z" fill="#FD0202"/>
<path d="M184.496 167.37C184.567 166.833 184.824 166.337 185.222 165.971C185.621 165.604 186.136 165.389 186.676 165.364C189.845 165.364 193.013 165.364 196.182 165.364C196.819 165.36 197.434 165.595 197.905 166.024C198.237 166.346 198.46 166.765 198.542 167.22C198.624 167.676 198.561 168.146 198.362 168.563C198.153 168.925 197.854 169.225 197.494 169.434C197.134 169.644 196.725 169.755 196.308 169.756H188.881V177.195C189.259 177.259 189.644 177.259 190.022 177.195H195.801C196.365 177.186 196.914 177.377 197.351 177.735C197.787 178.093 198.082 178.595 198.184 179.15C198.208 179.466 198.169 179.784 198.067 180.085C197.966 180.385 197.805 180.662 197.595 180.899C197.384 181.136 197.128 181.328 196.842 181.464C196.555 181.6 196.245 181.676 195.928 181.689H188.957C188.881 182.066 188.881 182.454 188.957 182.831V194.586C189.002 195.161 188.85 195.734 188.526 196.211C188.308 196.535 188.007 196.795 187.655 196.964C187.304 197.134 186.913 197.207 186.524 197.176C186.034 197.094 185.583 196.858 185.237 196.502C184.89 196.146 184.666 195.688 184.597 195.195L184.496 167.37Z" fill="#FC0202"/>
<path d="M204.544 165.416C204.843 165.333 205.157 165.321 205.461 165.381C205.766 165.441 206.052 165.571 206.298 165.76C206.544 165.95 206.742 166.194 206.878 166.473C207.013 166.753 207.082 167.06 207.079 167.371V188.722C207.079 190.982 207.079 193.241 207.079 195.501C207.048 196.026 206.811 196.518 206.419 196.868C206.027 197.218 205.512 197.397 204.987 197.367C204.463 197.337 203.972 197.099 203.623 196.706C203.273 196.313 203.094 195.798 203.124 195.272C203.124 186.006 203.124 176.739 203.124 167.472C203.107 167.022 203.236 166.578 203.492 166.207C203.748 165.836 204.117 165.559 204.544 165.416Z" fill="#FC0202"/>
<path d="M237.503 165.619C238.641 165.421 239.796 165.336 240.95 165.365C242.493 165.296 244.027 165.635 245.398 166.348C246.768 167.061 247.927 168.123 248.758 169.427C249.392 170.536 249.691 171.805 249.619 173.08C249.547 174.355 249.107 175.582 248.352 176.612C247.752 177.43 247.004 178.127 246.147 178.669C247.375 179.058 248.501 179.717 249.442 180.598C250.93 181.969 251.837 183.859 251.977 185.879C252.237 187.91 251.811 189.97 250.769 191.731C249.727 193.493 248.127 194.855 246.223 195.603C244.951 196.231 243.592 196.667 242.193 196.897C240.361 197.222 238.501 197.358 236.641 197.304C236.088 197.24 235.579 196.969 235.217 196.545C234.855 196.121 234.667 195.576 234.689 195.019C234.689 186.082 234.689 177.247 234.689 168.234C234.664 167.594 234.882 166.968 235.298 166.482C235.936 165.99 236.701 165.691 237.503 165.619ZM239.049 170.062C239.049 172.169 239.049 174.276 239.049 176.409C240.02 176.418 240.988 176.324 241.939 176.13C243.055 175.9 244.053 175.278 244.753 174.378C245.002 174.01 245.159 173.587 245.212 173.146C245.265 172.704 245.212 172.256 245.057 171.839C244.917 171.476 244.696 171.149 244.41 170.885C244.125 170.621 243.782 170.426 243.409 170.316C242.037 169.857 240.568 169.769 239.151 170.062H239.049ZM239.049 180.903V192.657C239.775 192.72 240.504 192.72 241.229 192.657C242.747 192.578 244.209 192.057 245.437 191.16C246.061 190.646 246.578 190.014 246.956 189.299C247.335 188.584 247.568 187.802 247.642 186.996C247.755 186.249 247.707 185.487 247.501 184.76C247.296 184.033 246.938 183.359 246.451 182.781C245.59 181.89 244.474 181.287 243.257 181.055C241.889 180.86 240.504 180.809 239.125 180.903H239.049Z" fill="#FC0202"/>
<path d="M300.34 165.618C300.755 165.401 301.231 165.33 301.691 165.417C302.151 165.505 302.568 165.746 302.875 166.1C303.279 166.817 303.439 167.646 303.331 168.461C303.331 171 303.331 173.539 303.331 175.875C304.5 174.404 306.17 173.419 308.02 173.107C308.956 172.986 309.908 173.096 310.792 173.428C311.675 173.76 312.464 174.304 313.09 175.012C314.114 176.096 314.755 177.488 314.915 178.972C314.953 179.632 314.953 180.293 314.915 180.952C314.915 185.751 314.915 190.574 314.915 195.398C314.926 195.843 314.776 196.276 314.491 196.617C314.206 196.958 313.807 197.184 313.369 197.252C312.985 197.32 312.59 197.28 312.227 197.137C311.865 196.993 311.549 196.752 311.316 196.439C311.021 195.897 310.905 195.274 310.986 194.662V180.445C310.996 179.845 310.846 179.254 310.552 178.732C310.257 178.21 309.83 177.776 309.313 177.474C308.924 177.273 308.497 177.158 308.059 177.136C307.622 177.114 307.185 177.186 306.778 177.347C305.72 177.777 304.8 178.488 304.117 179.404C303.797 179.771 303.563 180.204 303.432 180.673C303.432 185.37 303.432 190.067 303.432 194.763C303.46 195.313 303.355 195.862 303.128 196.363C302.954 196.628 302.722 196.85 302.45 197.013C302.177 197.175 301.872 197.274 301.556 197.302C301.09 197.333 300.627 197.196 300.251 196.917C299.875 196.639 299.61 196.235 299.503 195.779C299.452 195.357 299.452 194.931 299.503 194.51C299.503 185.548 299.503 176.586 299.503 167.598C299.455 167.223 299.507 166.843 299.654 166.495C299.801 166.147 300.038 165.844 300.34 165.618Z" fill="#FC0202"/>
<path d="M333.465 166.303C333.697 165.915 334.056 165.619 334.481 165.466C334.906 165.314 335.371 165.313 335.797 165.466C336.203 165.615 336.552 165.89 336.794 166.25C337.035 166.61 337.156 167.038 337.14 167.471V194.535C337.203 194.929 337.176 195.332 337.062 195.714C336.947 196.097 336.749 196.448 336.481 196.744C336.304 196.928 336.091 197.075 335.856 197.175C335.621 197.275 335.368 197.326 335.112 197.326C334.857 197.326 334.604 197.275 334.369 197.175C334.134 197.075 333.921 196.928 333.744 196.744C333.302 196.169 333.061 195.464 333.059 194.738C332.465 195.534 331.702 196.188 330.826 196.653C329.949 197.118 328.981 197.383 327.99 197.429C327.018 197.451 326.054 197.247 325.175 196.833C324.295 196.419 323.523 195.806 322.92 195.043C322.011 193.798 321.341 192.395 320.943 190.905C320.455 189.016 320.242 187.066 320.309 185.116C320.233 182.751 320.63 180.395 321.475 178.185C322.024 176.822 322.894 175.611 324.01 174.656C324.76 174.041 325.644 173.61 326.59 173.399C327.537 173.187 328.519 173.2 329.46 173.437C330.577 173.738 331.593 174.334 332.4 175.164C332.686 175.471 332.991 175.759 333.313 176.027C333.313 173.488 333.313 171.127 333.313 168.69C333.128 167.897 333.181 167.067 333.465 166.303ZM327.761 177.195C327.113 177.318 326.515 177.627 326.038 178.083C325.042 179.262 324.455 180.732 324.365 182.273C324.149 184.23 324.149 186.205 324.365 188.163C324.483 189.486 324.927 190.76 325.658 191.869C326.043 192.334 326.534 192.699 327.09 192.933C327.646 193.168 328.25 193.264 328.851 193.215C329.754 193.195 330.615 192.832 331.26 192.199C331.811 191.765 332.306 191.262 332.73 190.701C333.099 190.074 333.25 189.342 333.161 188.62C333.123 187.943 333.123 187.265 333.161 186.589C333.161 184.608 333.161 182.628 333.161 180.648C333.136 180.332 333.002 180.036 332.78 179.81C332.152 178.825 331.278 178.02 330.246 177.474C329.466 177.128 328.599 177.031 327.761 177.195Z" fill="#FC0202"/>
<path d="M376.031 166.201C376.197 165.963 376.413 165.765 376.665 165.621C376.916 165.478 377.196 165.392 377.485 165.37C377.774 165.348 378.064 165.391 378.334 165.495C378.604 165.599 378.848 165.763 379.047 165.973C379.454 166.463 379.663 167.088 379.63 167.725V195.144C379.64 195.494 379.564 195.841 379.409 196.155C379.255 196.469 379.026 196.741 378.743 196.946C378.539 197.093 378.308 197.197 378.063 197.253C377.818 197.309 377.565 197.316 377.317 197.273C377.07 197.231 376.833 197.14 376.621 197.005C376.409 196.871 376.226 196.695 376.082 196.489C375.761 195.933 375.587 195.304 375.575 194.661C374.99 195.317 374.325 195.897 373.598 196.388C372.625 196.998 371.501 197.322 370.353 197.322C369.205 197.322 368.081 196.998 367.108 196.388C365.362 195.17 364.104 193.371 363.56 191.31C363.093 189.821 362.837 188.275 362.799 186.715C362.459 183.478 362.957 180.208 364.244 177.22C364.862 175.712 365.981 174.466 367.413 173.691C368.179 173.259 369.034 173.007 369.912 172.954C370.791 172.901 371.669 173.049 372.482 173.386C373.716 173.927 374.822 174.723 375.727 175.722V167.598C375.678 167.112 375.785 166.623 376.031 166.201ZM370.277 177.194C369.605 177.342 368.986 177.668 368.482 178.136C367.978 178.605 367.609 179.2 367.413 179.86C366.92 181.341 366.689 182.896 366.728 184.455C366.633 186.272 366.795 188.092 367.21 189.863C367.408 190.831 367.894 191.716 368.604 192.402C369.071 192.78 369.614 193.051 370.197 193.195C370.779 193.34 371.386 193.355 371.975 193.24C372.753 193.017 373.46 192.597 374.028 192.021C374.679 191.561 375.188 190.927 375.499 190.193C375.664 189.304 375.664 188.391 375.499 187.502C375.499 185.166 375.499 182.805 375.499 180.469C375.015 179.682 374.427 178.965 373.75 178.337C373.289 177.905 372.739 177.578 372.139 177.381C371.54 177.184 370.904 177.12 370.277 177.194Z" fill="#FC0202"/>
<path d="M225.409 173.412C225.651 173.273 225.919 173.185 226.197 173.155C226.475 173.125 226.755 173.152 227.022 173.235C227.288 173.319 227.535 173.456 227.746 173.64C227.957 173.823 228.128 174.048 228.248 174.3C228.421 174.762 228.482 175.258 228.425 175.747V187.35C228.481 187.906 228.42 188.468 228.248 189C227.847 189.683 227.322 190.286 226.701 190.777C225.637 191.818 224.522 192.859 223.381 193.849C223.166 193.995 222.987 194.187 222.855 194.411C222.723 194.635 222.643 194.885 222.62 195.144C222.62 197.683 222.62 200.399 222.62 203.04C222.633 203.43 222.529 203.815 222.321 204.145C222.113 204.476 221.811 204.736 221.454 204.893C220.985 205.078 220.463 205.079 219.993 204.895C219.523 204.712 219.14 204.357 218.92 203.903C218.746 203.345 218.685 202.758 218.742 202.177V195.144C218.749 194.957 218.714 194.771 218.64 194.6C218.565 194.428 218.453 194.276 218.311 194.154C216.79 192.732 215.244 191.31 213.748 189.838C213.482 189.585 213.274 189.276 213.138 188.934C213.002 188.592 212.943 188.225 212.963 187.858V176.255C212.885 175.561 212.963 174.859 213.191 174.199C213.393 173.813 213.716 173.505 214.111 173.322C214.506 173.139 214.95 173.091 215.375 173.187C215.799 173.282 216.18 173.515 216.459 173.85C216.738 174.184 216.899 174.601 216.917 175.037V186.487C216.925 186.714 216.983 186.938 217.089 187.14C217.194 187.342 217.343 187.518 217.525 187.654C218.615 188.67 219.655 189.711 220.719 190.726L224.268 187.35C224.547 187.147 224.42 186.791 224.445 186.487V175.392C224.419 175.006 224.494 174.621 224.663 174.273C224.832 173.926 225.089 173.629 225.409 173.412Z" fill="#FC0202"/>
<path d="M278.283 176.128C278.824 175.304 279.537 174.607 280.373 174.086C281.209 173.564 282.148 173.23 283.125 173.107C284.29 172.951 285.475 173.183 286.496 173.767C287.475 174.246 288.339 174.93 289.031 175.772C289.009 175.365 289.077 174.959 289.231 174.581C289.384 174.204 289.619 173.865 289.918 173.589C290.132 173.418 290.38 173.294 290.645 173.225C290.911 173.157 291.187 173.145 291.458 173.19C291.728 173.236 291.985 173.338 292.214 173.49C292.442 173.641 292.636 173.84 292.782 174.071C292.997 174.468 293.102 174.915 293.086 175.366C293.086 182.627 293.086 189.888 293.086 197.124C293.062 198.86 292.581 200.559 291.692 202.049C290.701 203.673 289.178 204.902 287.383 205.527C285.992 206.006 284.497 206.097 283.059 205.788C281.621 205.479 280.294 204.783 279.221 203.776C278.352 202.948 277.751 201.877 277.497 200.704C277.416 200.321 277.424 199.925 277.521 199.546C277.618 199.168 277.8 198.817 278.055 198.52C278.406 198.213 278.856 198.044 279.322 198.044C279.788 198.044 280.239 198.213 280.59 198.52C281.122 198.977 281.274 199.713 281.705 200.247C281.977 200.655 282.328 201.004 282.738 201.275C283.147 201.545 283.606 201.731 284.088 201.821C284.673 201.906 285.268 201.871 285.839 201.718C286.41 201.565 286.944 201.298 287.408 200.932C288.249 200.152 288.787 199.1 288.929 197.962C289.123 196.275 289.123 194.571 288.929 192.884C288.417 193.68 287.722 194.342 286.901 194.813C285.997 195.427 284.942 195.78 283.852 195.834C282.761 195.888 281.676 195.64 280.716 195.118C278.822 193.938 277.466 192.06 276.94 189.888C276.278 187.477 276.055 184.966 276.281 182.475C276.473 180.237 277.157 178.07 278.283 176.128ZM283.885 177.194C283.178 177.321 282.519 177.639 281.978 178.113C281.438 178.587 281.037 179.2 280.818 179.885C280.05 182.35 279.91 184.969 280.412 187.502C280.533 188.582 280.945 189.609 281.604 190.472C282.252 191.219 283.157 191.693 284.139 191.801C285.12 191.91 286.107 191.643 286.901 191.056C287.582 190.417 288.225 189.739 288.828 189.025C289.335 188.416 289.107 187.578 289.132 186.867C289.132 184.912 289.132 182.983 289.132 181.053C289.145 180.766 289.093 180.479 288.98 180.215C288.349 179.237 287.551 178.377 286.623 177.676C285.809 177.16 284.825 176.987 283.885 177.194Z" fill="#FC0202"/>
<path d="M260.316 173.639C261.944 173.061 263.701 172.955 265.386 173.335C267.187 173.818 268.747 174.948 269.771 176.508C270.488 177.74 270.856 179.145 270.836 180.57C270.836 185.343 270.836 190.116 270.836 194.915C270.87 195.317 270.802 195.721 270.638 196.089C270.474 196.458 270.219 196.779 269.898 197.022C269.447 197.271 268.918 197.338 268.419 197.211C267.92 197.084 267.488 196.771 267.211 196.336C266.948 195.79 266.81 195.191 266.805 194.585C266.071 195.508 265.145 196.261 264.093 196.793C263.077 197.261 261.954 197.444 260.843 197.324C259.731 197.203 258.673 196.783 257.781 196.108C256.923 195.399 256.275 194.468 255.906 193.417C255.115 191.401 255 189.183 255.576 187.095C255.877 186.018 256.42 185.024 257.162 184.188C257.904 183.352 258.827 182.697 259.86 182.271C262.148 181.573 264.6 181.626 266.856 182.424C266.957 181.402 266.957 180.373 266.856 179.352C266.653 178.749 266.284 178.216 265.79 177.816C265.296 177.416 264.699 177.165 264.068 177.092C262.867 177.009 261.665 177.227 260.57 177.727C260.223 177.897 259.841 177.986 259.454 177.986C259.068 177.986 258.686 177.897 258.339 177.727C257.924 177.47 257.627 177.059 257.513 176.583C257.399 176.107 257.477 175.606 257.731 175.188C258.441 174.452 259.333 173.918 260.316 173.639ZM261.913 185.978C261.455 186.04 261.017 186.208 260.635 186.467C260.252 186.727 259.935 187.073 259.708 187.476C259.251 188.44 259.109 189.524 259.302 190.573C259.425 191.287 259.782 191.939 260.316 192.427C260.755 192.892 261.329 193.208 261.956 193.331C262.583 193.453 263.233 193.377 263.814 193.112C264.629 192.69 265.366 192.132 265.994 191.462C266.336 191.137 266.603 190.742 266.778 190.304C266.953 189.865 267.032 189.394 267.008 188.923C267.008 188.238 267.008 187.552 267.008 186.867C267.008 186.587 266.729 186.486 266.527 186.435C265.061 185.976 263.517 185.821 261.989 185.978H261.913Z" fill="#FC0202"/>
<path d="M345.489 174.276C347.119 173.421 348.95 173.026 350.787 173.134C351.901 173.248 352.977 173.608 353.937 174.187C354.896 174.766 355.716 175.551 356.338 176.485C357.03 177.688 357.381 179.057 357.352 180.445C357.352 185.396 357.352 190.321 357.352 195.272C357.373 195.711 357.244 196.144 356.986 196.5C356.728 196.855 356.356 197.112 355.933 197.227C355.491 197.322 355.031 197.271 354.62 197.084C354.209 196.897 353.87 196.582 353.651 196.186C353.426 195.64 353.339 195.047 353.398 194.46C352.852 195.261 352.132 195.929 351.294 196.415C350.378 196.996 349.322 197.319 348.238 197.35C347.154 197.382 346.082 197.12 345.134 196.592C343.83 195.864 342.851 194.666 342.396 193.241C341.649 191.061 341.649 188.693 342.396 186.513C342.708 185.652 343.187 184.861 343.804 184.186C344.422 183.511 345.167 182.964 345.996 182.578C348.385 181.652 351.034 181.652 353.423 182.578C353.423 181.74 353.423 180.928 353.423 180.039C353.351 179.402 353.09 178.8 352.675 178.312C352.259 177.823 351.708 177.47 351.091 177.297C350.015 177.039 348.888 177.1 347.846 177.475C347.06 177.868 346.19 178.06 345.312 178.033C344.867 177.937 344.472 177.684 344.197 177.321C343.923 176.958 343.788 176.508 343.816 176.053C343.937 175.647 344.151 175.274 344.442 174.966C344.732 174.657 345.091 174.421 345.489 174.276ZM346.503 187.148C345.876 188.135 345.657 189.328 345.895 190.474C345.967 191.223 346.299 191.924 346.832 192.454C347.277 192.868 347.831 193.146 348.429 193.254C349.027 193.362 349.643 193.296 350.204 193.063C351.2 192.533 352.066 191.787 352.739 190.88C353.092 190.534 353.316 190.077 353.372 189.585C353.372 188.595 353.372 187.63 353.372 186.64C351.866 186.085 350.26 185.852 348.658 185.955C348.235 185.991 347.824 186.115 347.453 186.321C347.082 186.527 346.758 186.808 346.503 187.148Z" fill="#FC0202"/>
<path d="M437.751 166.583C438.042 166.254 438.43 166.028 438.859 165.937C439.288 165.845 439.734 165.894 440.134 166.075C440.474 166.231 440.762 166.481 440.964 166.796C441.167 167.111 441.274 167.478 441.274 167.852C441.274 169.121 441.274 170.391 441.274 171.686C441.224 172.167 441.224 172.652 441.274 173.133H444.113C444.393 173.13 444.67 173.184 444.927 173.294C445.185 173.403 445.417 173.564 445.609 173.768C445.941 174.162 446.124 174.661 446.124 175.177C446.124 175.692 445.941 176.192 445.609 176.586C445.446 176.776 445.243 176.929 445.016 177.034C444.789 177.139 444.541 177.194 444.291 177.195H441.578C441.401 177.195 441.224 177.195 441.249 177.474C441.249 181.13 441.249 184.786 441.249 188.442C441.162 189.46 441.309 190.485 441.68 191.438C441.907 191.932 442.262 192.358 442.707 192.67C443.153 192.982 443.673 193.17 444.215 193.215C444.817 193.168 445.42 193.31 445.938 193.621C446.336 193.924 446.61 194.36 446.713 194.85C446.815 195.339 446.738 195.85 446.496 196.287C446.342 196.598 446.103 196.858 445.807 197.038C445.511 197.218 445.169 197.31 444.823 197.302C443.809 197.386 442.788 197.265 441.822 196.947C440.855 196.629 439.962 196.119 439.196 195.449C438.125 194.363 437.47 192.934 437.345 191.412C436.99 188.036 437.345 184.659 437.168 181.257V177.195C436.493 177.258 435.814 177.258 435.14 177.195C434.631 177.068 434.191 176.749 433.912 176.304C433.633 175.859 433.537 175.323 433.644 174.808C433.724 174.401 433.927 174.029 434.227 173.742C434.527 173.456 434.908 173.27 435.317 173.209C435.934 173.171 436.552 173.171 437.168 173.209V168.461C437.151 167.788 437.356 167.128 437.751 166.583Z" fill="#0214FE"/>
<path d="M393.921 173.768C394.111 173.556 394.343 173.387 394.603 173.271C394.863 173.155 395.144 173.095 395.429 173.095C395.713 173.095 395.995 173.155 396.254 173.271C396.514 173.387 396.747 173.556 396.937 173.768C397.297 174.297 397.467 174.932 397.419 175.57C398.185 174.837 399.036 174.197 399.953 173.666C400.993 173.102 402.181 172.873 403.356 173.009C404.531 173.145 405.635 173.641 406.519 174.428C407.08 174.938 407.551 175.539 407.913 176.205C408.572 177.404 408.929 178.746 408.952 180.115V194.307C409.056 194.999 408.95 195.707 408.648 196.338C408.476 196.58 408.253 196.782 407.996 196.931C407.739 197.08 407.454 197.171 407.158 197.2C406.863 197.229 406.565 197.194 406.284 197.098C406.003 197.002 405.746 196.847 405.53 196.643C405.151 196.198 404.952 195.627 404.972 195.043V182.273C405.132 181.033 404.966 179.773 404.491 178.617C404.257 178.257 403.955 177.947 403.602 177.705C403.248 177.463 402.85 177.293 402.43 177.206C402.011 177.118 401.578 177.115 401.157 177.196C400.737 177.277 400.336 177.441 399.979 177.678C399.282 178.18 398.652 178.768 398.103 179.429C397.623 180.026 397.363 180.77 397.368 181.537C397.368 186.056 397.368 190.6 397.368 195.119C397.388 195.451 397.329 195.782 397.197 196.087C397.065 196.391 396.863 196.66 396.608 196.871C396.203 197.181 395.696 197.327 395.189 197.28C394.682 197.233 394.211 196.996 393.87 196.617C393.511 196.203 393.321 195.668 393.338 195.119V175.774C393.287 175.417 393.313 175.054 393.414 174.708C393.514 174.362 393.687 174.042 393.921 173.768Z" fill="#0214FE"/>
<path d="M419.373 173.693C420.419 173.196 421.567 172.951 422.724 172.978C423.882 173.004 425.017 173.301 426.039 173.845C427.491 174.632 428.648 175.871 429.335 177.374C430.372 179.828 430.857 182.48 430.754 185.143C430.728 185.603 430.527 186.036 430.192 186.352C429.858 186.669 429.415 186.845 428.954 186.844H419.576C419.155 186.78 418.728 186.78 418.308 186.844C418.341 187.965 418.529 189.075 418.866 190.144C419.05 190.746 419.357 191.302 419.767 191.778C420.177 192.255 420.682 192.641 421.249 192.912C421.867 193.2 422.555 193.308 423.232 193.223C423.909 193.138 424.548 192.862 425.076 192.429C425.634 191.851 426.089 191.181 426.42 190.449C426.693 190.053 427.099 189.768 427.564 189.646C428.03 189.525 428.523 189.576 428.954 189.789C429.267 189.962 429.524 190.222 429.695 190.537C429.866 190.852 429.943 191.209 429.918 191.566C429.827 192.436 429.554 193.276 429.118 194.033C428.681 194.79 428.09 195.446 427.383 195.958C426.271 196.78 424.97 197.306 423.6 197.488C422.231 197.67 420.837 197.502 419.55 196.999C417.943 196.339 416.61 195.147 415.773 193.623C415.211 192.584 414.793 191.474 414.531 190.322C413.502 186.339 413.733 182.134 415.19 178.288C415.544 177.281 416.097 176.355 416.816 175.565C417.534 174.776 418.404 174.139 419.373 173.693ZM418.942 179.558C418.556 180.582 418.342 181.662 418.308 182.756C421.122 182.756 423.935 182.756 426.774 182.756C426.77 181.251 426.31 179.781 425.456 178.542C425.025 178.041 424.472 177.659 423.851 177.432C423.23 177.204 422.562 177.14 421.909 177.244C421.257 177.348 420.642 177.618 420.122 178.027C419.603 178.437 419.197 178.972 418.942 179.583V179.558Z" fill="#0214FE"/>
<path d="M385.616 192.428C386.133 192.231 386.7 192.208 387.231 192.364C387.762 192.52 388.228 192.846 388.556 193.291C388.752 193.575 388.888 193.896 388.955 194.234C389.023 194.572 389.021 194.92 388.95 195.257C388.879 195.595 388.74 195.914 388.541 196.196C388.343 196.478 388.089 196.716 387.796 196.896C387.502 197.061 387.178 197.166 386.844 197.204C386.509 197.242 386.17 197.213 385.847 197.118C385.524 197.024 385.222 196.866 384.961 196.653C384.699 196.441 384.482 196.178 384.323 195.881C384.172 195.571 384.086 195.233 384.069 194.888C384.053 194.543 384.107 194.199 384.228 193.876C384.349 193.553 384.534 193.258 384.773 193.009C385.012 192.76 385.299 192.562 385.616 192.428Z" fill="#0214FE"/>
<path d="M34.0025 99.1774C37.8443 98.8978 41.7029 98.9488 45.536 99.3297C50.9514 99.84 56.282 101.025 61.4041 102.859C70.1792 106.155 78.1668 111.258 84.8513 117.838C86.6837 119.745 88.3779 121.782 89.921 123.931C109.118 148.354 128.324 172.752 147.538 197.125C151.061 201.669 154.661 206.163 158.184 210.708H78.4889C81.6595 207.833 84.64 204.754 87.4115 201.492C90.684 197.488 93.3645 193.033 95.3709 188.264C97.5571 183.302 99.0662 178.067 99.8576 172.701C100.371 169.146 100.541 165.55 100.365 161.962C99.9158 154.927 98.4294 147.997 95.9539 141.398C93.9245 135.928 91.0877 130.793 87.5383 126.165C83.738 121.312 79.2554 117.036 74.2304 113.471C65.7533 107.224 55.8244 103.248 45.3839 101.919C41.1738 101.472 36.9321 101.404 32.7098 101.716C32.4563 101.031 32.1774 100.142 32 99.3551C32.6605 99.233 33.3309 99.1735 34.0025 99.1774Z" fill="#FE0101"/>
<path d="M33.9492 106.666C37.5799 106.323 41.2382 106.408 44.849 106.92C44.6716 109.002 44.342 111.058 44.1139 113.114C44.081 113.688 43.9961 114.257 43.8604 114.816C43.6945 114.973 43.5165 115.117 43.3281 115.247C41.2749 116.491 39.2977 117.786 37.3459 119.208C36.1799 115.019 35.0645 110.855 33.9492 106.666Z" fill="#FE0101"/>
<path d="M49.9286 107.886C52.9266 108.413 55.8587 109.265 58.6738 110.425C57.2205 114.317 55.8094 118.303 54.4406 122.382C52.6916 120.351 51.0186 118.295 49.3709 116.264C49.2233 116.146 49.1052 115.995 49.0261 115.823C48.9469 115.651 48.9087 115.463 48.9147 115.274C49.1935 112.811 49.523 110.348 49.9286 107.886Z" fill="#FE0101"/>
<path d="M63.0537 112.431C65.5257 113.678 67.9136 115.085 70.2019 116.645L66.1715 123.297C65.9941 123.627 65.5631 123.601 65.259 123.678L58.9219 124.744C60.2907 120.656 61.6848 116.544 63.0537 112.431Z" fill="#FE0101"/>
<path d="M39.5824 123.448C41.5596 122.102 43.5875 120.909 45.59 119.563C47.7192 122.102 49.7725 124.641 51.9017 127.18C52.0905 127.387 52.2523 127.617 52.3833 127.865C52.3668 128.138 52.2979 128.406 52.1806 128.652C49.9246 134.72 47.7953 140.864 45.666 146.957C44.9816 147.186 44.3986 146.5 44.2972 145.891C42.6073 139.307 40.8752 132.731 39.1008 126.164C38.8833 125.512 38.7305 124.841 38.6445 124.159C38.9286 123.886 39.2433 123.648 39.5824 123.448Z" fill="#FE0101"/>
<path d="M70.3782 125.225C71.5949 123.346 72.7609 121.468 73.9269 119.563C76.0032 121.263 77.9755 123.085 79.8331 125.022C76.766 127.84 73.6988 130.683 70.7837 133.679C70.5049 131.623 70.2261 129.566 69.8966 127.535C69.7464 126.732 69.9195 125.901 70.3782 125.225Z" fill="#FE0101"/>
<path d="M57.8591 129.796L65.4636 128.603C65.8438 131.395 66.2494 134.188 66.655 136.955C66.655 137.361 66.8831 137.869 66.5029 138.148C61.7881 142.871 57.0733 147.542 52.181 152.087C51.6234 151.528 51.0657 150.919 50.4574 150.411C50.2799 150.259 50.0011 150.056 50.1532 149.802C52.4092 143.277 54.6145 136.752 56.9719 130.278C57.0226 129.872 57.5296 129.872 57.8591 129.796Z" fill="#FE0101"/>
<path d="M73.6758 137.538C76.7176 134.542 79.8608 131.648 83.0293 128.779C84.9368 131.247 86.6327 133.871 88.099 136.624C85.7669 137.513 83.4349 138.478 81.1028 139.392C80.8656 139.479 80.605 139.479 80.3677 139.392C78.1624 138.808 75.9318 138.148 73.6758 137.538Z" fill="#FE0101"/>
<path d="M83.1064 143.81L90.2546 140.992C91.1418 143.049 91.8516 145.181 92.5867 147.314C88.4549 148.406 84.2724 149.37 80.1406 150.437L82.3966 144.8C82.5487 144.445 82.6501 143.937 83.1064 143.81Z" fill="#FE0101"/>
<path d="M69.2335 141.931C69.487 141.702 69.7151 141.321 70.0954 141.499L77.4971 143.682C76.4324 146.221 75.4439 148.938 74.4046 151.578C74.2778 151.959 73.8216 152.01 73.492 152.137C67.3324 153.736 61.1981 155.437 55.0384 157.037C55.0384 156.808 54.7342 156.58 54.8863 156.326C55.0548 156.076 55.2599 155.854 55.4947 155.666C60.0574 151.172 64.7215 146.577 69.2335 141.931Z" fill="#FE0101"/>
<path d="M81.5586 155.057L93.8019 151.985C94.401 154.697 94.8244 157.445 95.0693 160.211C92.5344 160.211 89.9996 160.033 87.4648 159.906C87.1606 159.906 86.9831 159.653 86.755 159.5C85.0313 158.002 83.2569 156.555 81.5586 155.057Z" fill="#FE0101"/>
<path d="M56.414 161.785C62.8525 160.058 69.2657 158.332 75.6788 156.555C75.9519 156.679 76.2008 156.851 76.4139 157.062L82.6496 162.445C80.7738 164.273 78.9741 166.177 77.1743 168.081C75.0704 167.573 72.9919 166.913 70.8879 166.38L56.8956 162.445C56.818 162.44 56.7424 162.417 56.6742 162.38C56.606 162.342 56.5469 162.29 56.501 162.227C56.455 162.164 56.4235 162.092 56.4084 162.016C56.3934 161.939 56.3953 161.86 56.414 161.785Z" fill="#FE0101"/>
<path d="M86.8309 165.212C86.9109 165.084 87.0233 164.979 87.1568 164.907C87.2903 164.836 87.4402 164.801 87.5914 164.806C90.1262 164.806 92.7878 164.984 95.3987 165.035C95.3947 167.702 95.1998 170.367 94.8157 173.007C91.3936 172.042 87.9716 171.026 84.5242 170.138C83.8905 169.935 83.2568 169.833 82.6484 169.579C83.9919 168.081 85.4114 166.634 86.8309 165.212Z" fill="#FE0101"/>
<path d="M56.4401 167.369C62.7011 169.07 68.9368 170.923 75.1978 172.701C75.4767 172.701 75.8823 172.828 75.9583 173.183C76.9722 176.179 77.9608 179.225 78.9748 182.221C76.4399 183.313 73.753 184.278 71.1928 185.42C66.5541 180.012 61.8139 174.656 56.8456 169.578C56.5668 169.248 56.1359 168.943 56.1612 168.461C56.2271 168.091 56.3203 167.726 56.4401 167.369Z" fill="#FE0101"/>
<path d="M52.7061 175.622C53.1624 174.962 53.5933 174.302 54.1003 173.667C58.8404 178.542 63.3778 183.594 67.7631 188.9C67.8704 188.986 67.9496 189.102 67.9903 189.233C68.0309 189.364 68.0313 189.505 67.9912 189.636C67.4082 192.886 66.9266 196.186 66.3182 199.436C63.7834 199.004 61.0457 198.674 58.4095 198.268C58.08 198.268 57.9279 197.913 57.8519 197.608C56.0521 190.525 54.2017 183.543 52.4527 176.587C52.1992 176.206 52.4527 175.901 52.7061 175.622Z" fill="#FE0101"/>
<path d="M81.6562 174.505L93.7981 177.932C93.025 180.708 92.094 183.438 91.0098 186.107C88.9059 184.812 86.7766 183.568 84.6474 182.324C84.3939 182.172 84.115 182.02 84.039 181.69C83.2278 179.303 82.4674 176.891 81.6562 174.505Z" fill="#FE0101"/>
<path d="M74.668 189.304L81.4867 186.588C81.7909 186.41 82.0697 186.588 82.3232 186.791L88.7363 190.624C87.6591 192.682 86.4482 194.666 85.1115 196.565C84.5538 197.327 84.0215 198.139 83.3878 198.85C80.4727 195.677 77.5323 192.427 74.668 189.304Z" fill="#FE0101"/>
<path d="M72.0718 193.647C74.8347 196.592 77.4963 199.639 80.3353 202.584C78.4849 204.463 76.6091 206.316 74.6066 208.068C73.3899 206.088 72.2492 204.107 71.0578 202.127C70.9366 201.976 70.8509 201.799 70.807 201.61C70.7632 201.421 70.7622 201.225 70.8043 201.035C71.2099 198.573 71.6662 196.11 72.0718 193.647Z" fill="#FE0101"/>
<path d="M59.3477 203.092L65.9889 203.955C66.3438 203.955 66.8508 203.955 67.0536 204.412C68.2703 206.595 69.5884 208.728 70.8558 210.861C68.2189 212.633 65.4572 214.211 62.5922 215.583C61.5276 211.419 60.463 207.255 59.3477 203.092Z" fill="#FE0101"/>
<path d="M77.0212 211.8C77.5028 211.444 77.883 210.86 78.4914 210.708H158.187C158.567 210.708 158.719 211.241 158.972 211.52C161.178 214.364 163.383 217.182 165.639 220H86.2226C78.7955 220 71.3685 220 63.9414 220C64.3079 219.772 64.6889 219.569 65.0821 219.391C69.3275 217.306 73.3312 214.761 77.0212 211.8Z" fill="#0012FE"/>
</svg>
