<svg width="480" height="320" viewBox="0 0 480 320" fill="none" xmlns="http://www.w3.org/2000/svg">
<path d="M59.4676 180V145.111H51.4297V138.336H59.5101V130.545C59.9945 128.185 61.3517 126.091 63.313 124.68C65.2742 123.268 67.6964 122.641 70.0997 122.924H82.8583V128.216H72.1836C72.1836 128.216 65.8043 128.216 65.8043 133.509V137.743H73.2468V145.153H65.8043V180H59.4676Z" fill="#CBB36D"/>
<path d="M94.2885 122.857H88.5742V180H94.2885V122.857Z" fill="#CBB36D"/>
<path d="M145.717 180V132.471C145.701 132.039 145.773 131.609 145.929 131.205C147.162 128.322 149.349 125.946 152.127 124.471C154.905 122.997 158.107 122.513 161.2 123.101H182.197C182.197 123.101 193.226 123.101 194.286 132.598V150.284C194.279 151.487 194.021 152.676 193.531 153.776C193.04 154.876 192.326 155.863 191.434 156.675C190.542 157.487 189.491 158.108 188.347 158.497C187.202 158.886 185.99 159.036 184.785 158.937H160.351V152.606H179.397C179.397 152.606 187.881 152.606 187.881 148.385V134.92C187.881 134.92 187.881 128.588 177.319 128.588H160.351C160.351 128.588 151.868 128.588 151.868 135.975V180H145.717Z" fill="#747474"/>
<path d="M235.362 173.374V180H214.658C214.658 180 203.106 179.789 200 170.335V151.722C200 151.722 201.574 142.859 213.209 142.859H235.155C236.515 142.836 237.866 143.092 239.127 143.612C240.388 144.132 241.534 144.906 242.496 145.886C243.458 146.867 244.216 148.034 244.727 149.32C245.237 150.605 245.488 151.982 245.466 153.368L245.714 161.387C245.714 161.387 245.259 164.046 241.325 163.92H215.694V158.644H240.538C240.538 158.644 243.023 151.173 233.54 150.203H214.369C214.369 150.203 206.087 148.979 206.087 156.323V167.929C206.087 167.929 207.702 173.416 215.942 173.416L235.362 173.374Z" fill="#747474"/>
<path d="M285.714 149.19H268.61C268.61 149.19 261.041 149.19 261.041 154.502V180H254.285V152.929C254.285 152.929 254.67 143.92 266.429 142.857H285.714V149.19Z" fill="#747474"/>
<path d="M351.429 145.715H345.715V180.001H351.429V145.715Z" fill="#747474"/>
<path d="M348.574 134.286C351.73 134.286 354.288 131.728 354.288 128.572C354.288 125.416 351.73 122.857 348.574 122.857C345.418 122.857 342.859 125.416 342.859 128.572C342.859 131.728 345.418 134.286 348.574 134.286Z" fill="#CBB36D"/>
<path d="M392.738 137.144H372.425V142.086H388.172C388.172 142.086 397.777 142.086 397.58 148.245V170.244C397.58 170.244 398.21 174.741 392.738 174.296H374.276C373.11 174.338 371.953 174.087 370.903 173.565C369.854 173.042 368.944 172.264 368.253 171.297C367.976 170.894 367.825 170.414 367.82 169.92V162.83L375.693 162.344L366.402 157.522C364.631 157.522 362.899 158.292 362.859 159.953C362.859 162.789 362.859 169.879 362.859 172.108C362.874 172.563 362.953 173.014 363.096 173.445C363.779 175.272 364.959 176.859 366.495 178.016C368.03 179.172 369.857 179.85 371.756 179.968H391.006C391.006 179.968 400.69 180.818 402.816 173.89C402.874 173.474 402.874 173.051 402.816 172.634V145.53C402.816 145.53 402.895 138.116 392.738 137.144Z" fill="#747474"/>
<path d="M428.574 146.913C427.601 146.517 420.79 144.093 403.447 149.249L380.646 153.126L366.306 143.52C365.97 143.201 365.563 142.974 365.122 142.859C364.107 142.859 361.103 142.639 364.276 146.869C364.297 146.986 364.297 147.105 364.276 147.222L367.702 155.726L375.401 159.78C375.664 159.919 375.953 159.994 376.247 160H378.235L420.536 153.875C420.536 153.875 428.32 152.862 428.447 146.781C428.457 146.811 428.474 146.839 428.496 146.862C428.518 146.885 428.545 146.902 428.574 146.913Z" fill="#C7AF73"/>
<path d="M314.288 179.981C305.892 180.167 297.525 178.994 289.542 176.511C289.252 176.392 289.022 176.17 288.9 175.893C288.778 175.615 288.775 175.303 288.891 175.023L290.584 170.892C290.662 170.703 290.814 170.549 291.009 170.465C291.203 170.38 291.425 170.37 291.626 170.438C305.041 175.313 324.881 173.123 325.054 173.123C330.307 172.09 330.481 169.198 330.481 168.661C330.481 163.703 325.098 163.373 324.056 163.373H297.313C296.073 163.394 294.842 163.161 293.703 162.691C292.565 162.22 291.546 161.523 290.715 160.646C288.958 158.239 288.243 155.28 288.718 152.383C289.071 150.314 290.1 148.402 291.658 146.919C293.217 145.436 295.225 144.457 297.4 144.121C327.442 139.989 335.517 147.178 336.689 148.789L333.086 152.012C332.77 152.279 332.375 152.446 331.955 152.49C331.535 152.535 331.111 152.454 330.741 152.259C327.833 150.689 318.977 147.467 298.529 150.235C298.529 150.235 295.403 150.979 295.186 153.086C294.967 154.333 295.197 155.614 295.837 156.721C295.837 156.721 296.315 157.3 297.53 157.382H324.099C325.729 157.293 327.362 157.513 328.902 158.029C330.442 158.546 331.859 159.348 333.071 160.39C334.282 161.431 335.264 162.691 335.96 164.097C336.656 165.503 337.051 167.026 337.123 168.578C337.384 171.429 335.474 177.668 326.227 179.444C322.26 179.821 318.275 180 314.288 179.981Z" fill="#747474"/>
<path d="M132.068 143.031V150.836C132.09 151.168 132.09 151.502 132.068 151.834V168.355C132.056 169.969 131.425 171.513 130.31 172.65C129.196 173.788 127.689 174.426 126.118 174.426H113.84C113.068 174.457 112.299 174.331 111.575 174.056C110.85 173.78 110.186 173.361 109.621 172.821C109.024 172.408 108.54 171.844 108.215 171.183C107.89 170.523 107.735 169.788 107.764 169.049C107.743 168.818 107.743 168.586 107.764 168.355V163.151V142.857H100V170.393C99.9832 172.56 100.617 174.68 101.815 176.464C102.544 177.806 103.584 178.944 104.842 179.776C106.1 180.608 107.539 181.108 109.03 181.234C115.19 181.797 125.907 181.711 125.907 181.711C128.004 181.615 130.077 181.221 132.068 180.54C132.149 180.513 132.235 180.506 132.319 180.519C132.403 180.532 132.483 180.565 132.553 180.616C132.622 180.666 132.68 180.733 132.72 180.81C132.76 180.887 132.782 180.973 132.785 181.06V194.286H140V143.031H132.068Z" fill="#CBB36D"/>
</svg>
