<svg width="480" height="320" viewBox="0 0 480 320" fill="none" xmlns="http://www.w3.org/2000/svg">
<g clip-path="url(#clip0_742_203)">
<path fill-rule="evenodd" clip-rule="evenodd" d="M241.034 56.0582C242.294 56.909 241.72 55.481 242.735 57.3647C243.759 59.2688 243.442 58.6003 242.94 59.6334C244.21 60.555 243.677 59.127 244.681 61.1829C245.87 63.6237 245.02 61.983 244.599 63.4516C246.055 64.0795 245.522 62.8743 246.403 64.4745C246.762 65.1328 246.977 65.7202 247.376 66.3177C246.966 66.8545 247.018 66.5405 246.628 67.2596C246.69 67.3001 246.792 67.2495 246.833 67.3305C246.925 67.5432 247.991 67.4723 248.534 68.556C248.903 69.2953 249.211 69.984 249.549 70.6018L248.842 71.5538C250.737 72.6983 249.282 70.3081 251.762 74.8859L251.455 75.2809C251.178 75.6758 251.321 75.21 251.106 75.8379C252.408 76.6684 251.957 75.1998 252.93 77.0836C253.299 77.7926 253.647 78.5015 253.965 79.1193L257.254 79.3016C255.133 80.203 250.973 80.9727 248.432 81.5905L237.007 84.3756C234.691 84.9631 234.189 83.8085 231.361 81.9652C229.578 80.7904 226.145 78.1572 224.352 77.4583L230.059 87.3127C198.294 89.5813 163.363 104.743 139.109 120.572C131.434 125.576 124.784 130.721 117.858 136.281C113.523 139.744 105.244 147.573 101.996 151.574L99.0548 154.855C86.8304 168.842 66.3574 199.154 79.3503 225.76C84.9757 237.265 94.9151 243.464 106.894 247.646C118.944 251.849 138.146 253.125 151.6 251.11C140.698 250.492 127.407 246.056 120.061 241.063C112.724 236.08 105.459 228.221 103.738 215.723C100.459 191.893 118.134 168.832 128.094 157.114C130.963 153.741 135.205 149.346 138.31 146.479C140.995 144.008 143.505 141.304 146.425 139.025C149.366 136.726 152 134.296 155.033 132.027C169.47 121.251 183.826 112.025 200.672 104.206C209.781 99.9725 220.54 95.2428 230.756 92.326L230.367 101.775C231.965 99.5674 233.472 96.3872 234.886 93.9363C235.306 93.2172 235.593 92.6703 236.002 91.9411C236.494 91.0397 236.576 90.6245 237.447 90.2802C240.07 89.2269 260.297 84.7301 262.972 84.4162C262.572 84.7301 262.644 84.6795 262.162 84.9023C261.896 85.0339 261.578 85.1454 261.302 85.2568C260.615 85.5505 260.072 85.7834 259.447 86.0467C258.299 86.543 256.844 87.0494 255.779 87.6672C255.666 88.7509 255.891 89.7231 255.102 90.3409C254.539 90.7866 255.031 90.0472 254.436 90.8574L255.543 91.3335L255.42 94.9086L254.19 95.5466C254.508 96.1948 254.57 96.0024 255.195 96.2758C255.225 96.286 255.307 96.3062 255.348 96.3366C255.205 99.8408 255.789 99.6383 254.119 100.276C254.508 101.401 253.934 100.621 255.082 101.107L254.99 104.206L253.883 104.834C254.211 105.533 254.334 105.29 254.928 105.634C254.908 106.14 254.908 107.568 254.815 107.984C254.59 108.925 254.426 108.439 253.75 109.209C253.924 109.412 253.822 109.29 254.119 109.503C254.149 109.523 254.221 109.574 254.262 109.604L254.611 112.592L253.934 113.483C255.041 114.567 254.426 114.82 254.467 116.876C255.85 114.415 256.803 108.277 258.217 106.242C259.211 105.907 260.523 105.907 260.902 105.057C261.65 103.365 260.205 103.183 259.283 102.768L262.378 93.2375C263.505 93.0248 265.195 92.8324 265.605 91.8702C265.831 91.3132 265.759 90.7258 265.349 90.3207C265.001 89.9662 264.437 89.9156 263.935 89.7738C263.884 89.7636 263.792 89.7333 263.751 89.7231C263.71 89.713 263.628 89.6927 263.576 89.6624C264.13 88.0419 264.868 84.7402 265.759 83.6059C268.413 82.7957 272.604 82.3703 275.022 81.4183C276.764 80.7296 278.619 79.0687 280.258 78.0154C281.037 77.5191 281.529 77.4786 281.652 76.4962C280.668 76.0101 274.049 75.4024 272.624 75.7062C269.95 76.2936 266.927 77.3064 264.314 77.7115C262.757 76.4557 260.738 74.3795 259.57 72.7388C259.898 72.5362 262.039 71.5741 260.461 70.1157C259.539 69.2548 258.187 70.1562 256.834 70.1258C255.697 68.4142 250.911 64.201 249.907 62.7527C250.409 62.216 251.7 61.3551 250.553 60.1398C249.815 59.3599 248.473 59.998 247.438 60.0992C246.864 59.4713 246.321 59.0966 245.727 58.4687C244.026 56.6558 242.437 54.6707 240.521 53.0098C240.777 53.6782 240.962 53.9111 241.269 54.5695C241.884 55.8557 241.433 55.0049 241.034 56.0582Z" fill="#056739"/>
<path fill-rule="evenodd" clip-rule="evenodd" d="M74.5851 234.825C74.1445 233.863 73.6014 233.154 73.0583 232.232C71.511 229.579 69.974 226.267 69.0108 223.37C65.6704 213.394 65.9368 203.712 68.2218 193.503C69.4207 188.136 69.2875 191.549 68.5087 186.201C68.1296 183.659 67.8632 181.046 67.73 178.393C66.7053 157.853 74.5851 138.985 84.3297 127.217C95.2835 113.99 108.307 104.986 125.942 100.419C135.604 97.9169 146.65 97.3295 156.836 98.869C160.412 99.4057 160.34 98.9196 163.26 97.5017C167.451 95.4559 177.79 90.9996 181.633 89.9058C179.983 88.417 170.105 85.7129 167.031 84.9938C129.169 76.2434 92.2197 90.7464 70.097 120.056C47.8308 149.549 45.6688 191.225 66.1008 223.613C67.5353 225.892 72.7406 233.488 74.5851 234.825Z" fill="#ED1B24"/>
<path fill-rule="evenodd" clip-rule="evenodd" d="M180.885 252.315H186.674C221.564 252.315 264.017 239.585 292.257 219.764C294.736 218.022 298.456 215.318 300.71 213.333L303.292 211.024L292.687 217.567C282.901 223.35 267.429 229.933 256.465 233.234C236.145 239.352 217.435 242.967 194.636 242.967C176.704 242.967 159.305 239.848 144.847 233.245C119.865 221.831 111.822 199.306 126.362 176.853C128.37 173.764 133.463 167.029 136.137 164.588L139.847 160.952C138.576 161.691 137.572 162.532 136.383 163.403C134.446 164.801 127.755 170.29 126.393 171.88C125.419 173.035 124.374 173.733 123.38 174.858C120.511 178.129 117.498 181.502 115.111 185.279C98.5214 211.52 109.66 234.065 138.535 244.962C150.77 249.581 166.498 252.315 180.885 252.315Z" fill="black"/>
<path fill-rule="evenodd" clip-rule="evenodd" d="M399.767 170.381C396.929 170.999 390.145 170.918 387.03 170.736C382.993 170.503 380.155 168.457 378.536 166.229C376.691 163.697 375.697 159.757 376.486 155.98C377.234 152.374 379.366 149.883 381.886 148.434C385.247 146.5 389.336 146.976 393.557 146.976C398.189 146.976 401.048 146.946 404.163 149.477C406.366 151.28 408.251 154.035 408.374 158.299C408.518 163.332 406.868 164.75 404.983 167.677C403.855 167.404 399.921 163.778 398.978 162.958C397.502 161.682 396.939 162.036 394.521 162.036C392.82 162.046 391.119 162.006 389.428 162.066C389.776 162.502 389.633 162.34 390.053 162.715C390.453 163.069 390.371 162.968 390.729 163.241C391.201 163.586 391.611 163.92 392.072 164.294C393.711 165.621 398.681 169.267 399.767 170.381ZM405.556 175.081C407.288 176.235 406.94 177.218 409.942 177.187C412.145 177.167 414.348 177.197 416.551 177.167C415.834 176.215 410.792 172.802 409.942 171.88C410.874 170.169 412.206 169.5 413.559 165.915C414.522 163.373 415.024 160.385 414.881 157.347C414.584 151.392 411.776 146.773 408.477 144.272C403.927 140.818 399.695 140.524 392.83 140.524C385.954 140.524 381.415 140.464 376.609 143.938C364.149 152.931 368.74 177.167 388.014 177.187C395.351 177.187 399.326 177.835 405.556 175.081Z" fill="#056739"/>
<path fill-rule="evenodd" clip-rule="evenodd" d="M278.352 177.117L284.797 177.187L284.807 146.976C290.269 146.966 295.617 146.976 300.966 146.976C306.417 146.976 310.854 146.703 311.869 152.04C312.842 157.226 310.537 161.074 305.516 161.317C301.396 161.52 292.881 160.77 289.48 161.449L289.5 166.958L303.138 167.009C303.979 167.242 312.145 176.975 313.016 177.177H321.808C321.419 176.337 311.951 167.272 310.957 166.087C313.047 164.75 313.969 164.821 316.008 162.198C317.33 160.507 318.16 158.188 318.386 155.453C318.877 149.549 316.613 144.849 312.996 142.601C308.528 139.816 302.677 140.525 296.867 140.525C290.935 140.525 284.264 140.241 278.423 140.555L278.352 177.117Z" fill="#056739"/>
<path fill-rule="evenodd" clip-rule="evenodd" d="M322.883 177.167C331.572 177.187 329.697 178.079 332.197 173.926C333.796 171.283 346.256 150.116 347.014 149.316C347.495 149.731 354.771 161.783 355.119 162.725L343.776 162.745C343.284 164.173 341.194 166.766 341.04 167.951H358.111C358.767 168.396 363.501 176.286 363.819 177.177H371.688C371.176 175.871 369.618 173.572 368.809 172.265L351.41 143.705C350.467 142.155 349.555 140.018 347.27 140.028C345.006 140.028 344.155 141.973 343.192 143.563C341.102 147.027 323.334 175.921 322.883 177.167Z" fill="#056739"/>
<path fill-rule="evenodd" clip-rule="evenodd" d="M234.649 164.021V177.177H241.176V164.021C241.176 162.694 244.814 159.099 245.849 157.924L260.799 140.565C259.323 140.454 257.622 140.525 256.116 140.525C254.312 140.525 252.868 140.13 251.915 141.264L242.744 151.999C241.658 153.184 239.086 156.527 238.041 157.296C236.872 155.635 232.897 151.422 231.237 149.285C230.489 148.313 229.72 147.574 228.9 146.591C228.101 145.639 227.445 144.809 226.585 143.877C223.152 140.099 225.14 140.525 219.945 140.525C218.48 140.525 216.44 140.403 215.047 140.585L229.874 157.782C230.909 159.028 234.649 162.644 234.649 164.021Z" fill="#056739"/>
<path fill-rule="evenodd" clip-rule="evenodd" d="M92.8945 250.999C94.9234 252.842 100.58 255.85 103.582 257.339C124.598 267.73 147.612 269.563 170.288 263.649C175.494 262.292 186.642 258.17 190.105 255.567C186.007 255.779 181.375 256.478 177.246 256.934C155.523 259.314 133.144 263.132 111.533 257.815C108.06 256.954 105.057 256.093 101.748 254.878L92.8945 250.999Z" fill="black"/>
<path fill-rule="evenodd" clip-rule="evenodd" d="M189.266 177.177H220.426H220.703L220.692 170.766H196.08H195.803L195.793 140.545L189.389 140.524L189.266 177.177Z" fill="#056739"/>
<path fill-rule="evenodd" clip-rule="evenodd" d="M153.352 177.177L159.797 177.157V146.976H184.789L184.83 140.616L153.475 140.524L153.352 177.177Z" fill="#056739"/>
<path fill-rule="evenodd" clip-rule="evenodd" d="M420.465 177.004C421.561 177.379 425.711 177.278 427.002 177.096L426.992 140.565L420.506 140.534L420.465 177.004Z" fill="#056739"/>
<path fill-rule="evenodd" clip-rule="evenodd" d="M265.082 177.126L271.609 177.187V140.524H265.164L265.082 177.126Z" fill="#056739"/>
<path fill-rule="evenodd" clip-rule="evenodd" d="M405.02 185.016L404.959 182.311L402.612 182.23L402.551 199.833L405.123 199.843C406.014 194.657 403.094 184.793 409.037 184.084C412.562 183.669 413.023 186.839 413.013 189.755C413.013 193.118 413.013 196.49 413.013 199.853H415.779C415.779 196.571 415.749 193.27 415.769 189.988C415.79 187.031 417.122 184.59 419.724 184.185C423.69 183.567 423.69 187.639 423.69 189.755C423.7 193.118 423.69 196.49 423.69 199.853H426.456C426.446 196.571 426.959 186.221 425.555 184.104C424.54 182.565 422.522 181.39 419.97 181.825C417.593 182.23 416.435 183.952 415.472 185.674C414.724 184.529 414.919 184.145 413.812 183.081C411.957 181.309 409.15 181.349 407.357 182.666C405.953 183.689 405.891 184.408 405.02 185.016Z" fill="black"/>
<path fill-rule="evenodd" clip-rule="evenodd" d="M223.564 199.853L225.5 199.823L229.097 187.112C229.794 188.176 231.515 194.597 232.171 196.754C233.237 200.279 232.591 199.853 235.44 199.853C236.096 196.339 240.43 183.932 240.399 182.231H238.34C237.745 183.406 235.952 189.756 235.327 191.842L234.599 194.222C234.579 194.283 234.548 194.344 234.528 194.404L234.169 195.073L230.286 182.221L228.247 182.231C227.355 184.216 225.285 193.685 224.527 194.81C223.4 192.855 221.873 184.884 220.602 182.231H218.051C218.02 183.335 221.197 193.057 221.894 195.468C222.17 196.42 222.836 199.367 223.564 199.853Z" fill="black"/>
<path fill-rule="evenodd" clip-rule="evenodd" d="M263.721 191.083C265.299 195.681 258.803 200.512 255.278 197.261C253.648 195.752 252.88 190.232 263.721 191.083ZM251.958 186.657L254.427 187.032C255.196 185.867 255.421 183.618 259.95 183.892C263.26 184.094 263.834 185.705 263.864 188.936C259.223 188.682 250.41 188.885 251.517 195.944C252.245 200.562 258.28 201.16 261.221 199.56C262.911 198.648 262.901 197.949 263.895 197.058L264.162 199.722L266.928 199.864C266.272 195.296 267.584 185.472 264.797 183.082C262.604 181.198 253.075 180.266 251.958 186.657Z" fill="black"/>
<path fill-rule="evenodd" clip-rule="evenodd" d="M164.377 191.073C165.934 195.681 159.479 200.532 155.944 197.251C155.247 196.602 154.796 195.265 155.216 193.939C156.22 190.728 161.631 190.87 164.377 191.073ZM152.624 186.657L155.083 187.021C155.851 185.745 155.862 185.128 157.03 184.52C158.003 184.013 159.325 183.821 160.606 183.892C163.875 184.094 164.489 185.735 164.53 188.925C159.93 188.703 151.066 188.855 152.173 195.944C152.89 200.552 158.956 201.16 161.877 199.57C162.84 199.043 163.25 198.587 163.803 197.899C163.895 197.787 164.039 197.585 164.141 197.483C164.346 197.251 164.346 197.251 164.551 197.068L164.817 199.712L167.584 199.864C167.215 196.724 167.246 194.141 167.246 190.951C167.256 188.095 167.369 184.722 165.463 183.082C163.26 181.198 153.73 180.266 152.624 186.657Z" fill="black"/>
<path fill-rule="evenodd" clip-rule="evenodd" d="M380.46 184.145C387.766 182.596 388.339 196.754 382.304 197.939C378.431 198.689 376.709 195.499 376.474 192.146C376.197 188.409 377.068 184.864 380.46 184.145ZM380.337 181.816C369.988 183.386 371.34 202.082 382.683 200.218C392.633 198.588 391.352 180.145 380.337 181.816Z" fill="black"/>
<path fill-rule="evenodd" clip-rule="evenodd" d="M305.299 194.799L302.758 195.225C304.264 201.99 314.849 201.443 317.257 197.513C318.282 195.842 318.148 193.432 317.083 191.943C314.91 188.905 307.727 189.918 306.549 187.568C305.442 185.37 307.85 184.104 309.89 184.054C312.841 183.962 313.455 185.006 314.706 186.687L317.083 186.251C316.55 180.701 305.063 179.881 303.588 185.664C302.973 188.044 304.008 189.766 305.473 190.778C308.271 192.683 316.519 191.67 314.88 196.096C314.009 198.435 309.254 198.536 306.897 197.007C305.811 196.298 306.078 195.954 305.299 194.799Z" fill="black"/>
<path fill-rule="evenodd" clip-rule="evenodd" d="M278.884 203.681C278.741 205.93 278.628 206.183 281.19 206.173C285.565 206.173 286.385 201.514 287.891 197.331C288.69 195.113 293.189 183.537 293.219 182.23L290.986 182.251L286.2 195.235C285.042 193.736 282.634 184.904 281.333 182.241L278.648 182.23C278.853 184.165 282.02 192.065 282.88 194.516C283.557 196.44 285.053 198.759 284.233 200.856C283.085 203.772 282.214 203.843 278.884 203.681Z" fill="black"/>
<path fill-rule="evenodd" clip-rule="evenodd" d="M164.5 162.036H183.303L183.323 156.415H164.52L164.5 162.036Z" fill="#056739"/>
<path fill-rule="evenodd" clip-rule="evenodd" d="M361.987 194.049L359.415 193.644C358.37 199.873 350.583 200.055 350.47 191.193C350.378 183.466 355.726 183.142 357.735 184.884C359.098 186.079 358.729 186.646 359.559 188.297L361.936 187.922C361.598 179.678 347.621 178.645 347.539 190.95C347.468 203.175 361.024 202.82 361.987 194.049Z" fill="black"/>
<path fill-rule="evenodd" clip-rule="evenodd" d="M201.574 185.775L201.513 182.281L199.125 182.241L199.074 199.822L201.697 199.853C202.968 194.971 198.736 184.914 207.815 184.438V181.815C204.802 181.451 203.48 182.717 202.24 184.884L201.574 185.775Z" fill="black"/>
<path fill-rule="evenodd" clip-rule="evenodd" d="M181.777 199.853H184.267H184.544V182.241L181.777 182.23V199.853Z" fill="black"/>
<path fill-rule="evenodd" clip-rule="evenodd" d="M330.672 199.782L331.584 199.873L333.756 199.853L334.658 199.782V196.004L330.672 195.934V199.782Z" fill="black"/>
<path fill-rule="evenodd" clip-rule="evenodd" d="M181.686 178.818L184.565 178.959V176.134L181.645 176.276L181.686 178.818Z" fill="black"/>
<path fill-rule="evenodd" clip-rule="evenodd" d="M181.686 178.818C181.952 179.476 183.366 179.274 184.616 179.142C184.934 178.2 184.862 176.985 184.688 175.992C184.094 175.901 183.663 175.891 183.048 175.891C181.788 175.881 181.952 175.891 181.645 176.276L184.565 176.134V178.96L181.686 178.818Z" fill="#717171"/>
</g>
<defs>
<clipPath id="clip0_742_203">
<rect width="375" height="214" fill="white" transform="translate(52 53)"/>
</clipPath>
</defs>
</svg>
