<svg width="480" height="320" viewBox="0 0 480 320" fill="none" xmlns="http://www.w3.org/2000/svg">
<path d="M68.5616 153.918V168.683C68.5616 175.763 68.7684 179.721 69.182 180.557C69.5956 181.392 70.8674 181.806 72.9973 181.798H76.335V184C72.1991 183.822 69.2213 183.733 67.4015 183.733L55.3848 184V181.798H57.9283C59.9011 181.798 61.0654 181.405 61.4211 180.619C61.9008 179.556 62.1407 175.573 62.1407 168.67V153.918L56.6752 154.265V152.677C58.4701 151.796 60.292 150.868 62.1407 149.892V145.065C62.0672 143.016 62.4091 140.973 63.1457 139.06C63.8157 137.513 65.1661 135.689 67.1968 133.588C69.9058 130.776 72.0006 128.937 73.4812 128.073C74.6213 127.453 75.9068 127.151 77.2035 127.198C78.3227 127.218 79.4345 127.385 80.5101 127.694C80.4357 128.985 80.3984 130.021 80.3984 130.796C80.3984 131.572 80.4357 132.657 80.5101 134.022L79.5671 134.463C78.1688 133.183 76.3385 132.478 74.4428 132.49C72.317 132.49 70.8053 133.212 69.9078 134.655C69.0104 136.098 68.5616 139.614 68.5616 145.201V150.258C72.6602 150.237 76.0124 150.111 78.618 149.879L78.8847 150.258L78.2643 153.899L73.5991 153.788C72.4535 153.8 70.7743 153.843 68.5616 153.918Z" fill="#204CA1"/>
<path d="M95.5479 127.638C95.1343 135.053 94.9276 141.758 94.9276 147.75V167.255C94.9276 174.997 95.0909 179.388 95.4177 180.426C95.5955 180.959 96.4227 181.3 97.8992 181.449L101.125 181.791V183.993C98.3624 183.815 95.7258 183.726 93.2153 183.726C90.4277 183.726 86.7778 183.815 82.2656 183.993V181.791L85.5288 181.524C86.9722 181.4 87.7994 181.034 88.0103 180.426C88.3371 179.441 88.5004 174.95 88.5004 166.951V147.583L88.4508 140.293L88.3391 135.33C88.3391 134.09 88.2006 133.331 87.9235 133.054C87.5202 132.65 86.6827 132.433 85.3799 132.433H82.278V130.156C87.5554 129.677 91.7678 128.69 94.9151 127.197L95.5479 127.638Z" fill="#204CA1"/>
<path d="M104.996 204.353L106.777 198.435H107.651C108.227 199.165 108.921 199.794 109.705 200.296C110.331 200.691 111.055 200.906 111.795 200.916C113.367 200.916 114.798 200.155 116.088 198.633C117.379 197.111 119.366 192.876 122.05 185.928C120.938 182.995 118.713 177.395 115.375 169.128L111.845 160.443L108.997 153.805C108.112 151.46 106.785 150.287 105.015 150.287H103.52V148.072C106.15 148.25 108.476 148.339 110.499 148.339C112.066 148.339 115.72 148.25 121.461 148.072V150.275H118.651C117.915 150.218 117.18 150.392 116.547 150.771C116.342 150.905 116.173 151.089 116.057 151.306C115.941 151.523 115.881 151.766 115.884 152.012C116.01 152.912 116.252 153.792 116.603 154.63C119.159 161.661 122.172 169.194 125.642 177.23C128.98 169.877 131.885 162.786 134.359 155.957C134.858 154.788 135.226 153.566 135.457 152.316C135.457 151.488 134.596 150.957 132.876 150.721L130.066 150.306V148.072C133.052 148.25 135.707 148.339 138.031 148.339C140.231 148.339 142.444 148.25 144.669 148.072V150.275H143.342C142.711 150.288 142.096 150.466 141.555 150.79C140.95 151.13 140.442 151.619 140.078 152.21C139.251 153.501 136.908 158.416 133.05 166.957C131.987 169.31 129.276 175.679 124.916 186.064C121.074 194.816 118.899 199.622 118.39 200.482C117.483 202.073 116.176 203.401 114.599 204.334C113.082 205.225 111.352 205.69 109.593 205.681C108.828 205.676 108.067 205.561 107.335 205.339C106.522 205.095 105.738 204.764 104.996 204.353Z" fill="#204CA1"/>
<path d="M163.133 134.147C162.955 137.79 162.866 141.674 162.866 145.797V167.467C162.866 175.081 163.094 179.343 163.549 180.253C164.004 181.163 165.501 181.616 168.04 181.612H170.658V184.006C166.179 183.829 162.649 183.74 160.068 183.74C157.79 183.74 153.755 183.829 147.965 184.006V181.612H151.377C152.969 181.612 154.003 181.415 154.479 181.022C154.938 180.632 155.223 179.831 155.354 178.634C155.484 177.437 155.62 173.758 155.769 167.61V147.354L155.633 139.494C155.583 136.231 155.236 134.233 154.59 133.501C153.945 132.769 152.372 132.403 149.869 132.403H147.971V130.009C151.135 130.137 155.145 130.201 160 130.201C162.858 130.201 166.032 130.124 169.523 129.971C171.827 129.868 173.572 129.818 174.759 129.823C180.88 129.823 185.332 130.935 188.116 133.16C190.899 135.385 192.272 138.396 192.235 142.193C192.216 145.016 191.387 147.774 189.847 150.14C188.178 152.753 185.838 154.87 183.072 156.269C180.194 157.805 176.979 158.602 173.717 158.589C171.805 158.539 169.903 158.296 168.04 157.864L167.283 155.022C169.105 155.521 170.979 155.803 172.867 155.86C176.358 155.86 179.129 154.803 181.18 152.69C183.231 150.576 184.265 147.681 184.282 144.004C184.282 140.464 183.188 137.699 181 135.71C178.812 133.721 175.555 132.728 171.229 132.732C168.473 132.777 165.741 133.255 163.133 134.147Z" fill="#CD2031"/>
<path d="M223.129 156.61C225.61 160.179 228.683 164.328 232.347 169.055L239.637 178.509C240.927 180.131 241.787 181.055 242.218 181.282C242.625 181.505 243.081 181.622 243.545 181.624H244.532V184.018C242.431 183.84 240.596 183.752 239.029 183.752C237.507 183.755 235.987 183.845 234.475 184.018L221.044 165.878C218.538 162.541 215.849 159.278 212.979 156.089L213.358 154.798C214.826 154.923 215.914 154.985 216.621 154.985C220.843 154.985 224.152 153.897 226.547 151.721C228.942 149.546 230.137 146.636 230.133 142.993C230.133 139.729 229.121 137.182 227.099 135.35C225.077 133.517 222.159 132.601 218.345 132.601C215.609 132.617 212.897 133.119 210.336 134.084C210.034 138.108 209.883 142.41 209.883 146.988V165.314C209.883 174.247 210.09 179.21 210.504 180.203C210.917 181.196 212.309 181.682 214.679 181.661H217.669V184.056C213.471 183.878 209.993 183.789 207.234 183.789C205.059 183.789 201.13 183.878 195.447 184.056V181.611H198.295C200.47 181.611 201.761 181.138 202.166 180.191C202.571 179.243 202.778 174.254 202.786 165.221V146.976C202.786 139.117 202.553 134.727 202.085 133.805C201.618 132.883 200.094 132.415 197.513 132.403H195.466V130.008C200.172 130.186 203.764 130.275 206.242 130.275C207.896 130.275 210.299 130.211 213.451 130.083C217.094 129.959 219.712 129.896 221.305 129.896C225.68 129.896 229.001 130.358 231.268 131.28C233.359 132.035 235.154 133.438 236.39 135.285C237.627 137.132 238.241 139.326 238.142 141.547C238.154 145.081 236.769 148.477 234.289 150.996C231.733 153.729 228.013 155.601 223.129 156.61Z" fill="#CD2031"/>
<path d="M246.827 156.993C246.827 148.668 249.516 141.964 254.892 136.881C260.269 131.798 267.422 129.254 276.351 129.25C285.111 129.25 291.978 131.61 296.954 136.329C301.929 141.048 304.411 147.315 304.398 155.132C304.398 163.557 301.503 170.602 295.713 176.269C289.923 181.935 282.646 184.768 273.882 184.768C268.39 184.768 263.654 183.655 259.675 181.43C255.675 179.155 252.419 175.77 250.301 171.684C247.929 167.156 246.735 162.104 246.827 156.993ZM254.532 153.891C254.532 159.607 255.515 164.585 257.479 168.824C259.444 173.063 262.07 176.24 265.358 178.353C268.73 180.487 272.653 181.589 276.643 181.523C280.258 181.605 283.825 180.67 286.935 178.824C289.996 176.886 292.409 174.078 293.864 170.76C295.552 167.194 296.393 162.852 296.389 157.732C296.389 152.355 295.459 147.768 293.598 143.972C291.956 140.409 289.291 137.416 285.942 135.373C282.439 133.384 278.461 132.387 274.434 132.488C270.776 132.391 267.157 133.269 263.95 135.032C260.963 136.779 258.559 139.368 257.039 142.476C255.31 146.024 254.457 149.934 254.551 153.879L254.532 153.891Z" fill="#CD2031"/>
<path d="M303.629 182.132H360.015L374.495 114.318H341.726L303.629 182.132Z" fill="#FFD300"/>
<path d="M392.618 127.867C419.35 128.177 424.617 114.367 424.617 114.367L424.462 114.429C411.973 119.901 395.825 117.91 384.516 118.431C360.848 119.523 347.708 144.245 347.708 144.245C340.493 154.264 339.588 157.583 329.519 158.662C323.588 159.283 318.669 164.401 316.665 166.783C316.044 167.527 315.703 168.024 315.703 168.024C315.703 168.024 327.366 164.804 335.704 168.545C344.042 172.286 351.214 171.417 364.161 169.786C374.558 168.47 387.983 170.108 387.983 170.108C384.987 168.191 378.876 166.752 373.194 166.293C367.511 165.834 360.333 161.479 360.333 161.479C371.215 160.238 377.034 154.506 377.034 154.506C377.034 154.506 372.691 156.565 366.394 154.921C361.152 153.538 353.286 155.554 353.286 155.554C353.286 155.554 359.874 150.746 370.371 151.652C386.78 153.06 392.928 143.029 392.928 143.029C392.928 143.029 386.563 145.293 376.581 143.848C367.666 142.551 359.21 145.752 359.21 145.752C359.21 145.752 369.757 140.2 382.381 140.857C399.541 141.751 407.339 130.77 407.339 130.77C400.871 132.502 394.121 132.924 387.487 132.011C377.561 130.727 366.065 136.093 366.065 136.093C373.851 130.669 383.129 127.794 392.618 127.867Z" fill="#CD2031"/>
</svg>
