<svg width="480" height="320" viewBox="0 0 480 320" fill="none" xmlns="http://www.w3.org/2000/svg">
<path d="M89.4841 84.1836V84.1881C75.4489 84.1881 70.3525 93.732 69.0773 98.5175C66.5253 107.444 66.5753 110.357 64.6632 111.954C59.8807 116.093 55.3848 117.347 55.3848 122.765C55.3848 130.738 67.4775 127.872 67.4775 143.177V186.554C67.4775 194.844 71.3442 197.689 79.957 197.689C88.2422 197.689 91.7298 193.889 91.7298 186.554V141.577C91.7298 137.114 93.3311 133.64 95.5661 132.044C98.1166 130.127 106.123 128.192 106.123 122.448C106.123 119.896 104.516 117.005 101.008 115.411C96.2257 113.176 95.2492 111.952 95.2492 109.396C95.2492 107.165 96.8687 105.544 101.967 102.678C107.387 99.8034 106.701 96.0065 106.701 92.5037C106.701 88.0305 101.944 84.1836 95.5661 84.1836H89.4841ZM123.908 84.6324V84.6355C118.172 84.6355 114.375 89.139 114.375 94.8738V186.043C114.375 194.335 117.859 197.875 127.426 197.875C135.399 197.875 139.264 194.344 139.264 187.639V96.4689C139.264 88.5036 135.723 84.6324 129.027 84.6324H123.908ZM233.76 88.7917C228.338 88.7917 225.827 92.9662 225.827 98.7086V185.079C225.827 195.287 228.349 197.877 236.643 197.877C243.973 197.877 243.324 195.64 250.972 195.64C258.628 195.64 259.327 199.795 271.124 199.795C290.89 199.795 306.188 185.115 306.188 155.141C306.188 129.314 291.789 115.278 272.021 115.278C263.085 115.278 258.631 118.8 253.527 118.8C249.063 118.8 246.875 113.666 246.875 109.205V98.7071C246.875 92.0109 243.342 88.7933 238.88 88.7933L233.76 88.7917ZM353.662 112.592C332.936 112.592 313.162 124.981 313.162 157.506C313.162 184.612 330.706 198.967 353.982 198.967C377.897 198.967 389.362 184.618 389.362 179.516C389.362 175.687 383.646 171.264 378.551 171.264C370.262 171.264 368.011 182.397 354.305 182.397C346.01 182.397 337.734 174.76 337.734 167.744C337.734 162.325 341.531 159.426 348.867 159.426H382.07C389.728 159.426 392.886 157.55 392.886 150.215C392.883 143.841 388.422 112.595 353.663 112.592H353.662ZM153.718 115.411C149.252 115.411 144.133 117.05 147.959 129.807C148.914 133.316 169.005 192.588 169.005 198.01C169.005 202.476 165.854 206.655 159.797 207.924C154.051 209.202 150.517 211.721 150.517 216.817C150.517 222.237 154.051 225.459 159.155 225.459H167.093C176.334 225.459 186.56 222.578 192.938 202.805L218.15 126.288C218.471 125.005 218.787 123.404 218.787 121.169C218.787 117.977 215.581 115.414 211.749 115.414H206.312C200.255 115.414 196.453 118.307 195.179 123.733L188.458 154.633C187.503 159.42 185.568 164.549 182.381 164.549C179.83 164.549 177.647 162.919 176.047 154.949L169.647 125.649C168.056 118.953 164.895 115.411 159.472 115.411H153.718ZM353.662 129.166C361.318 129.166 368.058 134.873 368.058 139.977C368.058 144.443 362.576 146.695 352.056 146.695C343.443 146.695 339.005 144.118 339.005 139.34C339.009 133.601 347.288 129.166 353.662 129.166ZM266.328 130.251C279.079 130.251 284.822 142.713 284.822 158.977C284.822 176.199 275.893 184.444 265.691 184.444C254.85 184.444 247.198 175.229 247.198 156.74C247.198 138.25 256.44 130.25 266.328 130.25V130.251ZM409.519 169.667C398.674 169.667 395.503 173.794 395.503 184.636C395.503 191.649 396.762 198.966 409.837 198.966C419.081 198.966 423.915 195.792 423.915 183.996C423.915 176.339 422.593 169.667 409.519 169.667ZM237.794 206.388C226.932 206.388 223.716 210.552 223.716 221.421C223.716 228.449 225.01 235.817 238.112 235.817C247.377 235.817 252.119 232.618 252.119 220.784C252.123 213.118 250.9 206.388 237.794 206.388ZM272.28 206.388C261.414 206.388 258.202 210.552 258.202 221.421C258.202 228.449 259.488 235.817 272.594 235.817C281.859 235.817 286.609 232.618 286.609 220.784C286.614 213.118 285.384 206.388 272.28 206.388ZM307.277 206.388C296.415 206.388 293.266 210.552 293.266 221.421C293.266 228.449 294.49 235.817 307.595 235.817C316.86 235.817 321.673 232.618 321.673 220.784C321.673 213.118 320.384 206.388 307.277 206.388ZM341.763 206.388C330.897 206.388 327.69 210.552 327.69 221.421C327.69 228.449 328.976 235.817 342.081 235.817C351.346 235.817 356.156 232.618 356.156 220.784C356.156 213.118 354.872 206.388 341.763 206.388ZM376.249 206.388C365.387 206.388 362.171 210.552 362.171 221.421C362.171 228.449 363.465 235.817 376.567 235.817C385.832 235.817 390.642 232.618 390.642 220.784C390.645 213.118 389.359 206.388 376.249 206.388ZM410.224 206.388C399.362 206.388 396.146 210.552 396.146 221.421C396.146 228.449 397.437 235.817 410.542 235.817C419.809 235.817 424.617 232.618 424.617 220.784C424.617 213.118 423.33 206.388 410.224 206.388Z" fill="#5A3F99"/>
</svg>
