<svg width="480" height="320" viewBox="0 0 480 320" fill="none" xmlns="http://www.w3.org/2000/svg">
<path fill-rule="evenodd" clip-rule="evenodd" d="M145.684 138.469V172.141C145.684 175.24 144.338 179.875 131.949 179.875C119.56 179.875 118.211 175.24 118.211 172.141V138.469H111.173V172.525C111.173 180.862 118.019 184.496 130.726 184.496C137.224 184.496 142.014 183.398 145.608 182.377V197.598H152.536L152.5 138.469H145.684ZM81.8427 122.4C74.425 122.4 63.4206 123.959 63.4206 131.599V138.469H55.3848V142.409H63.4206V183.425H70.1574V142.409H80.7618L80.7651 138.469H70.1574V132.446C70.1574 126.581 76.9405 125.647 81.8427 125.647C89.9545 125.647 93.9908 126.264 93.9908 135.226L93.9875 183.425H100.721V123.485H93.9908C90.2387 123.485 88.4273 122.4 81.8427 122.4ZM417.214 142.77C413.142 142.77 409.836 146.116 409.836 150.237C409.836 154.364 413.142 157.714 417.214 157.714C421.327 157.714 424.616 154.364 424.616 150.237C424.616 146.116 421.327 142.77 417.214 142.77Z" fill="#FF8200"/>
<path fill-rule="evenodd" clip-rule="evenodd" d="M363.452 148.644C368.688 148.044 373.379 147.75 376.334 147.74C374.708 141.41 367.277 138.938 355.016 138.938C344.425 138.938 334.975 142.628 334.975 142.628V151.42C334.975 151.42 341.523 146.098 355.198 146.098C359.677 146.098 362.15 146.906 363.452 148.644H363.452ZM200.044 170.735C199.664 175.606 194.464 178.242 189.413 178.242C178.472 178.242 176.938 173.441 176.938 162.474C176.938 151.52 179.083 146.729 188.874 146.729C195.221 146.729 199.664 149.348 200.044 154.216C200.348 158.153 200.507 160.165 200.507 162.474C200.507 164.789 200.348 167.035 200.044 170.735ZM200.507 141.624C195.988 139.849 192.55 138.921 186.96 138.921C169.9 138.921 164.697 145.414 164.697 162.474C164.697 179.463 172.346 186.033 189.413 186.033C199.812 186.033 207.372 182.106 212.747 182.106V125.021H200.507L200.507 141.624ZM399.169 139.966L386.929 139.969V147.38H399.169V139.966ZM364.88 170.625C364.88 177.044 358.93 178.666 354.854 178.666C347.903 178.666 344.343 176.554 344.343 172.009C344.343 164.335 354.094 160.388 364.88 159.731V170.625ZM401.747 151.764L398.194 151.77C348.567 151.77 332.485 161.072 332.485 171.709C332.485 181.588 340.902 185.922 354.524 185.922C363.313 185.922 372.209 182.089 376.863 182.089V158.137C382.668 157.396 387.008 157.276 387.008 157.276V184.969H399.238V164.122C399.238 156.675 401.747 151.764 401.747 151.764V151.764ZM301.344 178.242C296.289 178.242 291.093 175.606 290.713 170.735C290.409 167.035 290.253 164.789 290.253 162.474C290.253 160.165 290.409 158.153 290.713 154.213C291.093 149.348 295.539 146.729 301.886 146.729C311.674 146.729 313.819 151.52 313.819 162.474C313.819 173.441 312.289 178.242 301.344 178.242ZM303.793 138.921C298.206 138.921 294.766 139.849 290.253 141.624V125.022H278.013V182.106C283.384 182.106 290.937 186.033 301.344 186.033C318.407 186.033 326.059 179.463 326.059 162.474C326.059 145.414 320.853 138.921 303.793 138.921ZM255.68 171.045C255.68 174.145 254.679 178.769 245.499 178.769C236.319 178.769 235.331 174.145 235.331 171.045V140.006H223.08V174.062C223.084 182.399 231.569 186.033 244.282 186.033C255.525 186.033 262.784 182.556 266.384 182.169L267.914 182.009V140.005H255.68L255.68 171.045Z" fill="#006496"/>
</svg>
