<svg width="480" height="320" viewBox="0 0 480 320" fill="none" xmlns="http://www.w3.org/2000/svg">
<path fill-rule="evenodd" clip-rule="evenodd" d="M177.341 188.36C178.57 188.36 179.448 187.305 179.448 186.16V182.204C179.448 181.059 178.481 180.091 177.341 180.091H150.951C149.81 180.091 148.844 181.059 148.844 182.204V237.25C148.844 238.042 149.371 238.834 150.075 238.92C150.249 239.187 152.449 239.359 152.802 239.359C153.153 239.45 156.672 239.187 156.846 238.92C157.55 238.744 158.166 238.042 158.166 237.25V212.186H175.141C176.284 212.186 177.343 211.222 177.343 209.987V206.383C177.343 205.243 176.286 204.274 175.141 204.274H158.166V188.358H177.341V188.36ZM189.921 180.025H185.173C184.032 180.025 183.061 180.899 183.061 182.049V230.834C183.061 236.551 185.614 239.891 192.032 239.891C194.583 239.891 196.694 239.538 198.455 238.836C199.507 238.488 199.949 237.782 199.774 236.727L199.068 232.857C198.806 231.626 198.102 231.183 196.871 231.454C195.993 231.626 194.852 231.889 194.06 231.889C192.301 231.889 192.034 230.744 192.034 228.458V182.049C192.03 180.899 191.064 180.025 189.921 180.025ZM230.296 196.801H225.015C223.872 196.801 222.903 197.417 222.638 198.648L216.13 225.206C215.516 227.668 215.077 229.868 214.724 231.456C214.638 229.601 214.373 227.844 213.932 226.088L206.545 198.738C206.195 197.503 205.314 196.801 204.081 196.801H198.278C197.133 196.801 196.255 197.679 196.694 198.997L207.951 234.265C208.39 235.582 209.008 236.111 210.329 236.111H213.319C213.354 236.408 213.243 237.24 213.006 238.183C211.949 241.881 210.106 244.429 207.024 246.013L205.793 246.629C204.827 247.154 204.211 248.389 204.741 249.354L206.585 252.961C207.115 254.015 208.258 254.368 209.224 253.929L211.159 253.051C215.817 250.938 219.248 246.895 221.01 240.385L231.878 199.089C232.227 197.679 231.437 196.801 230.296 196.801ZM273.277 180.091H268.796C267.651 180.091 266.678 181.059 266.678 182.118L266.768 216.323C266.768 220.455 267.211 225.909 267.651 230.479C266.415 226.166 265.365 221.861 263.776 217.993L248.915 181.675C248.476 180.71 247.244 180.091 246.104 180.091H237.836C236.689 180.091 235.723 180.973 235.723 182.118V237.34C235.723 238.391 236.689 239.359 237.836 239.359H242.496C243.639 239.359 244.606 238.391 244.606 237.34L244.519 202.516C244.519 199.261 243.727 192.23 243.284 187.744C244.431 192.23 245.574 197.154 247.154 200.845L262.631 237.689C263.075 238.744 263.867 239.359 265.008 239.359H273.277C274.418 239.359 275.476 238.391 275.476 237.34V182.118C275.476 181.059 274.418 180.091 273.277 180.091ZM296.994 196.276C286.088 196.276 279.575 204.541 279.575 217.995C279.575 231.626 285.998 239.891 296.994 239.891C307.986 239.891 314.232 231.454 314.232 217.995C314.232 204.625 307.896 196.276 296.994 196.276ZM296.818 232.155C292.065 232.155 288.811 228.458 288.811 217.995C288.811 207.795 291.975 203.839 296.818 203.839C301.656 203.839 304.91 207.795 304.91 217.995C304.908 228.458 301.656 232.155 296.818 232.155ZM340.662 196.892C339.783 196.452 338.557 196.276 336.968 196.276C332.659 196.276 329.491 198.648 327.119 202.346L326.602 198.558C326.344 197.417 325.285 196.801 324.23 196.801H320.52C319.375 196.801 318.411 197.679 318.411 198.829V237.343C318.411 238.488 319.375 239.362 320.52 239.362H325.354C326.504 239.362 327.472 238.488 327.472 237.343V224.68C327.472 216.325 327.128 210.564 330.123 207.873C332.363 205.85 335.432 205.625 338.466 206.474C339.578 206.785 340.752 206.125 341.105 204.804L342.422 199.879C342.775 198.736 342.246 197.591 340.662 196.892ZM373.264 180.025H368.429C367.289 180.025 366.406 180.899 366.406 182.049V201.633C364.297 198.293 361.038 196.274 356.645 196.274C352.862 196.274 349.431 198.121 347.322 200.579C343.805 204.715 342.569 210.077 342.569 217.903C342.569 234.345 348.462 239.889 356.729 239.889C361.219 239.889 364.822 237.603 366.843 233.819L367.545 237.34C367.812 238.654 368.871 239.359 370.184 239.359H373.262C374.407 239.359 375.375 238.485 375.375 237.34V182.049C375.375 180.899 374.409 180.025 373.264 180.025ZM359.458 231.975C354.616 231.975 352.158 228.544 352.158 218.168C352.158 212.541 352.86 209.024 354.095 206.913C355.236 204.894 356.996 203.925 359.458 203.925C364.03 203.925 366.669 208.587 366.669 218.258C366.669 227.842 364.207 231.975 359.458 231.975ZM388.93 195.98L388.693 195.967H384.022C382.791 195.967 381.999 196.85 381.999 197.99L381.978 236.517C381.978 237.662 382.947 238.54 384.088 238.54H388.93C390.071 238.54 390.949 237.662 390.949 236.517V198.003C390.949 196.858 390.157 195.98 388.93 195.98ZM423.873 232.328C423.692 231.273 422.814 230.571 421.492 230.92C419.822 231.359 417.713 231.712 415.685 231.712C409.091 231.712 406.099 227.313 406.099 217.642C406.099 208.848 409.616 204.102 415.16 204.102C417.36 204.102 419.03 204.717 420.351 205.157C421.845 205.686 422.461 204.894 422.814 203.925L424.041 200.232C424.394 199.263 423.873 198.295 422.547 197.77C420.528 196.978 417.713 196.276 414.893 196.276C403.553 196.276 396.601 205.419 396.601 217.642C396.601 232.504 403.643 239.891 414.545 239.891C417.622 239.891 420.528 239.538 423.163 238.656C424.394 238.221 424.747 237.252 424.574 236.198L423.873 232.328Z" fill="#837A66"/>
<path fill-rule="evenodd" clip-rule="evenodd" d="M155.041 113.403C154.705 110.626 154.195 107.84 153.451 105.065C148.722 87.398 136.503 73.6307 120.815 65.8867L142.005 144.995C142.957 145.53 143.896 146.089 144.823 146.673L155.041 113.403ZM144.766 155.304L144.405 153.953L107.33 180.96C99.655 197.186 99.6907 215.289 106.059 231.349L145.894 153.556C145.888 153.554 145.886 153.547 145.881 153.543C145.516 154.134 145.155 154.728 144.766 155.304Z" fill="#C12D27"/>
<path fill-rule="evenodd" clip-rule="evenodd" d="M144.404 153.952L144.766 155.303C145.154 154.727 145.514 154.133 145.879 153.544C145.761 153.408 145.642 153.275 145.528 153.137L144.404 153.952Z" fill="#9E2C21"/>
<path fill-rule="evenodd" clip-rule="evenodd" d="M112.131 153.864C120.816 147.536 131.623 145.591 142.665 147.448L142.008 144.994C129.205 137.79 114.185 134.849 98.9662 137.685C80.1315 141.189 64.7507 152.828 55.3848 168.577L106.397 159.087C108.099 157.165 110.004 155.41 112.131 153.864Z" fill="#C12D27"/>
<path fill-rule="evenodd" clip-rule="evenodd" d="M144.478 147.797L144.825 146.671C143.899 146.087 142.96 145.53 142.008 144.992L142.665 147.446C143.266 147.549 143.873 147.673 144.478 147.797Z" fill="#9E2C21"/>
<path fill-rule="evenodd" clip-rule="evenodd" d="M148.69 148.565L153.93 148.574C161.361 143.71 166.899 136.914 169.462 128.577C173.204 116.402 169.855 103.383 161.493 92.4121L155.046 113.402C156.529 125.668 154.149 137.815 148.69 148.565Z" fill="#C12D27"/>
<path fill-rule="evenodd" clip-rule="evenodd" d="M146.507 147.782C147.411 147.511 148.322 147.252 149.238 147.021L148.451 148.565H148.69C154.148 137.815 156.529 125.669 155.041 113.404L144.822 146.672C145.39 147.032 145.944 147.408 146.507 147.782Z" fill="#9E2C21"/>
<path fill-rule="evenodd" clip-rule="evenodd" d="M131.369 154.445L106.395 159.088C99.4664 166.904 96.0188 177.557 96.1092 189.136L107.326 180.961C107.599 180.379 107.866 179.791 108.162 179.213C113.589 168.618 121.713 160.256 131.369 154.445Z" fill="#C12D27"/>
<path fill-rule="evenodd" clip-rule="evenodd" d="M144.261 153.418C143.696 153.626 143.135 153.838 142.562 154.032L143.104 152.256L131.368 154.444C121.71 160.255 113.586 168.618 108.164 179.213C107.867 179.791 107.6 180.379 107.327 180.961L144.404 153.952L144.261 153.418ZM142.446 149.128C142.314 148.933 142.169 148.746 142.034 148.548H142.957L142.663 147.447C131.62 145.59 120.815 147.536 112.128 153.864C110.002 155.41 108.096 157.166 106.395 159.087L131.368 154.444C134.884 152.325 138.594 150.545 142.446 149.128Z" fill="#9E2C21"/>
<path fill-rule="evenodd" clip-rule="evenodd" d="M153.931 148.574C152.817 149.303 151.651 149.98 150.456 150.621C150.552 150.696 150.651 150.763 150.746 150.837L149.697 151.034C148.672 151.562 147.615 152.043 146.54 152.505C146.359 152.808 146.159 153.102 145.974 153.4L145.895 153.56C153.088 161.825 162.351 166.827 172.484 166.852C184.53 166.877 195.392 159.881 203.014 148.688L153.931 148.574Z" fill="#C12D27"/>
<path fill-rule="evenodd" clip-rule="evenodd" d="M145.879 153.546C145.883 153.548 145.885 153.554 145.892 153.558L145.971 153.399C145.942 153.449 145.911 153.498 145.879 153.546ZM150.745 150.836C150.65 150.764 150.551 150.697 150.455 150.619C150.203 150.756 149.953 150.901 149.696 151.031L150.745 150.836ZM146.635 152.329C146.602 152.386 146.572 152.449 146.539 152.504C147.614 152.041 148.673 151.56 149.696 151.033L147.98 151.354L146.635 152.329Z" fill="#9E2C21"/>
<path fill-rule="evenodd" clip-rule="evenodd" d="M148.568 148.806C149.255 149.003 149.936 149.205 150.617 149.43L149.728 150.079C149.968 150.26 150.215 150.436 150.455 150.621C151.65 149.982 152.816 149.306 153.93 148.575L148.69 148.566C148.65 148.644 148.608 148.728 148.568 148.806Z" fill="#9E2C21"/>
<path fill-rule="evenodd" clip-rule="evenodd" d="M150.618 149.43C149.937 149.205 149.256 149.004 148.569 148.806C148.611 148.729 148.651 148.644 148.691 148.567H148.452L149.239 147.023C148.321 147.254 147.412 147.512 146.508 147.783C145.945 147.409 145.391 147.033 144.823 146.674L144.477 147.8C143.872 147.674 143.266 147.55 142.664 147.449L142.958 148.55H142.035C142.17 148.747 142.313 148.934 142.447 149.13C138.588 150.552 134.878 152.329 131.371 154.445L143.107 152.258L142.565 154.033C143.138 153.84 143.699 153.628 144.264 153.42L144.407 153.956L145.529 153.138C145.645 153.277 145.762 153.409 145.88 153.546C145.914 153.496 145.943 153.449 145.972 153.399C146.157 153.098 146.357 152.806 146.538 152.504C146.571 152.449 146.601 152.386 146.634 152.329L147.979 151.355L149.695 151.033C149.952 150.901 150.202 150.758 150.454 150.621C150.214 150.439 149.968 150.26 149.727 150.079L150.618 149.43Z" fill="#702216"/>
</svg>
