<svg width="480" height="320" viewBox="0 0 480 320" fill="none" xmlns="http://www.w3.org/2000/svg">
<path d="M408.978 152.916V153.101C408.978 166.61 399.032 174.984 383.024 174.984C373.494 174.984 364.01 171.977 356.377 166.472C354.619 165.222 353.554 163.048 353.554 160.781C353.554 156.849 356.654 153.795 360.633 153.795C362.252 153.795 363.64 154.258 364.982 155.183C370.903 159.532 376.918 161.66 383.395 161.66C390.01 161.66 393.943 159.069 393.943 154.674V154.489C393.943 150.094 390.797 148.105 379.37 145.19C366.092 141.813 355.914 138.066 355.914 123.631V123.446C355.914 110.909 366.092 102.211 380.665 102.211C389.039 102.211 396.58 104.339 403.195 108.503C404.815 109.475 406.526 111.51 406.526 114.517C406.526 118.45 403.427 121.503 399.448 121.503C398.06 121.503 396.904 121.179 395.608 120.393C390.103 117.154 385.153 115.581 380.48 115.581C374.743 115.581 371.042 118.126 371.042 122.058V122.243C371.042 127.194 374.373 128.72 386.633 131.866C400.003 135.243 408.978 140.194 408.978 152.916ZM235.721 102.257C216.706 102.304 202.365 118.033 202.365 138.76V167.212C202.365 171.422 205.788 174.799 209.952 174.799C214.162 174.799 217.539 171.375 217.539 167.212V138.76C217.539 126.268 225.034 117.478 235.721 117.478C246.454 117.524 253.949 126.268 253.949 138.76V167.212C253.949 171.422 257.326 174.799 261.536 174.799C265.746 174.799 269.123 171.375 269.123 167.212V138.76C269.123 117.987 254.781 102.304 235.721 102.257ZM196.952 102.581C193.204 100.731 188.624 102.257 186.774 106.005L166.927 146.208L147.033 106.005C145.183 102.257 140.603 100.731 136.855 102.581C133.108 104.432 131.535 109.012 133.432 112.759L158.46 163.372L147.82 184.931C145.969 188.678 147.496 193.258 151.289 195.109C152.354 195.618 153.51 195.895 154.62 195.895C157.396 195.895 160.126 194.322 161.421 191.639L200.375 112.759C202.226 109.012 200.699 104.478 196.952 102.581ZM82.7266 119.051C78.5629 119.051 75.1394 122.428 75.1394 126.638C75.1394 130.848 78.5166 134.226 82.7266 134.226C86.8904 134.226 90.3139 130.848 90.3139 126.638C90.3139 122.428 86.8904 119.051 82.7266 119.051ZM94.1538 84.7235C93.5523 84.7235 92.9046 84.6772 92.3032 84.631C91.2392 84.5847 90.0363 84.4922 88.7409 84.4922C68.755 84.4922 56.4488 96.9371 55.431 117.941C55.3848 118.265 55.3848 118.635 55.3848 118.959V166.934C55.3848 171.144 58.762 174.521 62.972 174.521C67.182 174.521 70.5593 171.144 70.5593 166.934V120.855C70.5593 101.887 80.9686 99.713 88.7409 99.713C89.5737 99.713 90.4527 99.7592 91.4242 99.8055C92.2107 99.8517 92.9509 99.898 93.7374 99.9443C97.9474 100.083 101.417 96.7521 101.556 92.5883C101.648 88.3321 98.3638 84.8623 94.1538 84.7235ZM116.592 84.9086C112.382 84.9086 109.004 88.2858 109.004 92.4958V166.934C109.004 171.144 112.382 174.521 116.592 174.521C120.802 174.521 124.179 171.144 124.179 166.934V92.4958C124.179 88.3321 120.755 84.9086 116.592 84.9086ZM311.362 102.257C291.607 102.304 276.664 117.663 276.294 138.019V139.083C276.664 159.532 291.607 174.845 311.362 174.845C314.369 174.845 317.052 174.614 318.348 174.336C322.465 173.55 325.195 169.571 324.408 165.454C323.622 161.336 319.643 158.653 315.572 159.439C315.248 159.486 313.675 159.671 311.362 159.671C299.703 159.671 291.515 151.019 291.422 138.574C291.515 126.176 299.704 117.524 311.316 117.478C323.067 117.524 331.255 126.268 331.255 138.76V167.212C331.255 171.422 334.633 174.799 338.843 174.799C343.053 174.799 346.43 171.422 346.43 167.212V138.76C346.522 117.987 331.44 102.304 311.362 102.257ZM417.815 116.923C421.608 116.923 424.616 113.87 424.616 110.169V110.122C424.616 106.421 421.655 103.414 417.861 103.414C414.067 103.414 411.06 106.514 411.06 110.169V110.215C411.107 113.87 414.067 116.923 417.815 116.923ZM417.815 115.859C414.576 115.859 412.171 113.314 412.171 110.169V110.122C412.171 106.976 414.623 104.432 417.861 104.432C421.1 104.432 423.505 106.976 423.505 110.122V110.169C423.551 113.314 421.1 115.859 417.815 115.859ZM415.085 112.898C415.085 113.314 415.455 113.685 415.872 113.685C416.288 113.685 416.658 113.314 416.658 112.898V111.233H417.954L419.619 113.314C419.804 113.592 419.943 113.685 420.267 113.685C420.637 113.685 421.007 113.361 421.007 112.898C421.007 112.667 420.914 112.528 420.822 112.343L419.665 110.909C420.544 110.539 421.1 109.845 421.1 108.734V108.688C421.1 108.04 420.868 107.532 420.498 107.115C419.989 106.606 419.249 106.329 418.277 106.329H415.872C415.455 106.329 415.085 106.699 415.085 107.115V112.898ZM416.658 109.891V107.763H418.231C419.018 107.763 419.527 108.133 419.527 108.827V108.873C419.527 109.475 419.11 109.891 418.277 109.891H416.658Z" fill="#00B0AA"/>
<path d="M331.857 206.212C331.857 204.871 330.793 203.807 329.451 203.807C328.11 203.807 327.046 204.871 327.046 206.212V227.864H317.793C315.526 227.864 308.633 227.864 308.633 217.362V206.212C308.633 204.871 307.569 203.807 306.227 203.807C304.885 203.807 303.821 204.871 303.821 206.212V217.362C303.821 227.124 308.91 232.675 317.793 232.675H329.498C330.793 232.675 331.857 231.611 331.857 230.269V229.853V206.212Z" fill="#00B0AA"/>
<path d="M340.693 222.543V195.109C340.693 193.767 339.629 192.703 338.288 192.703C336.946 192.703 335.882 193.767 335.882 195.109V222.543C335.882 223.885 336.946 224.995 338.288 224.995C339.629 224.949 340.693 223.885 340.693 222.543Z" fill="#00B0AA"/>
<path d="M318.718 197.237C319.366 197.237 319.967 197.006 320.43 196.543C320.893 196.081 321.124 195.479 321.124 194.831C321.124 194.184 320.893 193.582 320.43 193.12C319.967 192.657 319.366 192.426 318.718 192.426C318.071 192.426 317.469 192.657 317.006 193.12C316.544 193.582 316.312 194.184 316.312 194.831C316.312 195.479 316.59 196.081 317.006 196.543C317.423 197.006 318.071 197.237 318.718 197.237Z" fill="#00B0AA"/>
<path d="M290.497 203.807C289.155 203.807 288.091 204.871 288.091 206.213V220.046H279.44C277.173 220.046 270.233 220.046 270.233 209.544V195.017C270.233 193.675 269.169 192.611 267.828 192.611C266.486 192.611 265.422 193.675 265.422 195.017V209.544C265.422 219.305 270.511 224.857 279.44 224.857H290.451C291.792 224.857 292.856 223.793 292.856 222.451V206.167C292.903 204.871 291.838 203.807 290.497 203.807Z" fill="#00B0AA"/>
<path d="M290.358 197.237C291.006 197.237 291.607 197.006 292.07 196.543C292.532 196.081 292.764 195.479 292.764 194.831C292.764 194.184 292.486 193.582 292.07 193.12C291.607 192.657 291.006 192.426 290.358 192.426C289.71 192.426 289.109 192.657 288.646 193.12C288.183 193.582 287.952 194.184 287.952 194.831C287.952 195.479 288.23 196.081 288.646 196.543C289.109 197.006 289.71 197.237 290.358 197.237Z" fill="#00B0AA"/>
<path d="M258.066 203.806C256.725 203.806 255.661 204.87 255.661 206.212V214.354C255.661 214.585 255.614 220.091 251.312 220.091H244.002L244.28 219.443C244.974 217.87 245.344 216.02 245.344 214.354V206.212C245.344 204.87 244.28 203.806 242.938 203.806C241.597 203.806 240.532 204.87 240.532 206.212V214.354C240.532 214.585 240.486 220.091 236.184 220.091H230.308V206.165C230.308 204.824 229.244 203.76 227.902 203.76C226.561 203.76 225.497 204.824 225.497 206.165V227.817H216.429C214.162 227.817 207.223 227.817 207.223 217.315V206.165C207.223 204.824 206.158 203.76 204.817 203.76C203.475 203.76 202.411 204.824 202.411 206.165V217.315C202.411 227.077 207.5 232.628 216.429 232.628H227.856C229.198 232.628 230.262 231.564 230.262 230.223V224.902H251.913C258.159 224.486 260.426 218.379 260.426 214.354V206.212C260.472 204.87 259.362 203.806 258.066 203.806Z" fill="#00B0AA"/>
<path d="M362.622 228.975C361.974 228.975 361.373 229.252 360.91 229.669C360.448 230.131 360.17 230.733 360.17 231.38C360.17 231.982 360.448 232.629 360.91 233.092C361.373 233.555 361.974 233.786 362.622 233.786C363.223 233.786 363.871 233.508 364.334 233.092C364.796 232.629 365.028 232.028 365.028 231.38C365.028 230.733 364.796 230.131 364.334 229.669C363.871 229.252 363.27 228.975 362.622 228.975Z" fill="#00B0AA"/>
<path d="M355.59 228.975C354.989 228.975 354.341 229.252 353.879 229.669C353.416 230.131 353.185 230.733 353.185 231.38C353.185 231.982 353.462 232.629 353.879 233.092C354.341 233.508 354.943 233.786 355.59 233.786C356.192 233.786 356.839 233.508 357.302 233.092C357.765 232.629 357.996 232.028 357.996 231.38C357.996 230.733 357.765 230.131 357.302 229.669C356.839 229.252 356.238 228.975 355.59 228.975Z" fill="#00B0AA"/>
<path d="M393.943 199.69C388.438 199.505 383.349 201.17 379.74 204.362L379.555 204.547C379.231 204.825 378.861 205.149 378.537 205.473L377.751 206.213V195.156C377.751 193.814 376.687 192.75 375.345 192.75C374.003 192.75 372.939 193.814 372.939 195.156V214.91C372.939 215.558 373.217 216.159 373.68 216.622C374.142 217.085 374.744 217.316 375.391 217.316C376.039 217.316 376.641 217.038 377.103 216.622C377.334 216.345 377.566 216.021 377.658 215.604L377.797 215.095C378.075 214.216 378.26 213.846 378.584 213.245C379.046 212.366 379.694 211.441 380.573 210.376C381.128 209.636 381.961 208.942 382.747 208.248L382.932 208.063C385.616 205.704 389.502 204.455 393.758 204.594C400.79 204.871 402.178 207.693 402.178 212.227V220.184H362.345L362.623 219.537C363.317 217.917 363.687 216.113 363.687 214.448V206.12C363.687 204.779 362.623 203.715 361.281 203.715C359.939 203.715 358.875 204.779 358.875 206.12V214.355C358.875 214.586 358.829 220.092 354.526 220.092H349.622V206.12C349.622 204.779 348.558 203.715 347.217 203.715C345.921 203.715 344.811 204.779 344.811 206.12V222.775C344.811 227.263 341.064 230.224 339.352 230.871C338.103 231.334 337.501 232.722 337.964 233.971C338.427 235.174 339.861 235.822 341.064 235.359C344.302 234.156 348.281 230.455 349.345 225.32L349.437 224.95H404.63C405.972 224.95 407.036 223.839 407.036 222.498V212.134C407.082 204.177 402.687 200.013 393.943 199.69Z" fill="#00B0AA"/>
</svg>
