<svg width="480" height="320" viewBox="0 0 480 320" fill="none" xmlns="http://www.w3.org/2000/svg">
<g clip-path="url(#clip0_754_1110)">
<path d="M317.046 112.75L269.679 206.136C262.6 220.071 255.293 229.708 247.768 235.047C240.238 240.385 230.012 243.054 217.091 243.054C212.93 243.054 208.664 242.662 204.28 241.876C199.897 241.091 195.965 240.077 192.484 238.841L199.229 215.412C202.036 216.532 204.822 217.349 207.571 217.853C210.325 218.357 213.158 218.612 216.082 218.612C220.014 218.612 223.331 218.219 226.027 217.434C228.723 216.649 231.026 215.354 232.936 213.56C233.382 213.109 233.865 212.605 234.369 212.043C234.873 211.48 235.52 210.636 236.306 209.517L216.077 112.75H244.733L256.025 179.502L287.886 112.75H317.046Z" fill="#033C4F"/>
<path d="M403.854 145.11C404.3 142.075 404.528 138.987 404.528 135.84C404.528 128.087 402.39 121.963 398.123 117.468C393.851 112.974 388.285 110.724 381.434 110.724C361.831 110.724 354.657 122.557 354.657 122.557H354.153L355.814 112.745H328.002L312.66 209.67H340.642L348.904 157.921C350.364 148.374 352.64 141.263 355.729 136.599C358.817 131.934 362.781 129.605 367.616 129.605C371.097 129.605 373.708 130.618 375.453 132.64C377.194 134.662 378.064 137.809 378.064 142.08C378.064 144.553 377.81 147.138 377.305 149.833C377.194 150.422 377.072 151.001 376.945 151.579H402.496C403.095 149.297 403.552 147.143 403.854 145.11Z" fill="#033C4F"/>
<path d="M150.226 131.084C129.244 131.084 109.981 139.389 95.9823 154.471C82.4505 169.048 75 188.651 75 209.67H102.621C102.621 195.639 107.45 182.713 116.227 173.261C124.94 163.874 137.018 158.705 150.226 158.705C152.795 158.705 155.347 158.902 157.863 159.278L162.166 131.992C158.229 131.392 154.233 131.084 150.226 131.084Z" fill="#033C4F"/>
<path d="M152.97 77C131.266 77 111.318 85.5861 96.7995 101.177C82.7423 116.269 75 136.567 75 158.329H102.621C102.621 143.577 107.731 129.965 117.012 119.999C126.246 110.081 139.019 104.621 152.97 104.621C157.475 104.621 161.917 105.173 166.226 106.266L170.54 78.9051C164.793 77.6421 158.913 77 152.97 77Z" fill="#033C4F"/>
<path d="M182.639 79.0854L161.965 209.67H189.946L210.621 79.0854H182.639Z" fill="#033C4F"/>
</g>
<defs>
<clipPath id="clip0_754_1110">
<rect width="330" height="167" fill="white" transform="translate(75 77)"/>
</clipPath>
</defs>
</svg>
