<svg width="480" height="320" viewBox="0 0 480 320" fill="none" xmlns="http://www.w3.org/2000/svg">
<path fill-rule="evenodd" clip-rule="evenodd" d="M248.27 79.4512L197.313 162.614H183.452L176.93 172.397H192.013L197.72 178.512H295.558L295.966 162.614H231.148L283.736 79.4519H277.366L239.658 140.243L236.906 138.51L273.544 79.4512H264.933L227.225 140.243L224.473 138.511L261.11 79.4512H248.27Z" fill="black" stroke="black" stroke-width="4.07652"/>
<path d="M115.609 240.785V251.789H116.357C117.507 251.789 118.447 251.612 119.176 251.256C119.905 250.901 120.521 250.301 121.026 249.458C121.531 248.615 121.86 247.476 122.014 246.04H122.685V259.495H122.014C121.771 256.953 121.109 255.277 120.029 254.467C118.949 253.657 117.725 253.252 116.357 253.252H115.609V261.451C115.609 262.821 115.683 263.677 115.829 264.019C115.977 264.362 116.264 264.661 116.692 264.918C117.121 265.175 117.699 265.303 118.428 265.303H119.291V266.035H105.695V265.303H106.558C107.312 265.303 107.92 265.165 108.38 264.888C108.712 264.704 108.968 264.388 109.147 263.94C109.288 263.624 109.358 262.794 109.358 261.451V243.827C109.358 242.457 109.288 241.601 109.147 241.259C109.006 240.916 108.722 240.616 108.293 240.36C107.865 240.103 107.287 239.974 106.558 239.974H105.695V239.243H127.632V246.929H126.846C126.667 245.124 126.21 243.788 125.475 242.918C124.74 242.049 123.676 241.436 122.282 241.081C121.515 240.883 120.096 240.785 118.025 240.785H115.609ZM143.989 238.868C148.131 238.71 151.496 239.955 154.085 242.602C156.673 245.25 157.968 248.562 157.968 252.54C157.968 255.939 157.003 258.929 155.072 261.51C152.515 264.935 148.904 266.647 144.238 266.647C139.559 266.647 135.942 265.014 133.385 261.748C131.365 259.166 130.355 256.103 130.355 252.56C130.355 248.582 131.669 245.266 134.295 242.612C136.923 239.958 140.154 238.71 143.989 238.868ZM144.219 240.133C141.841 240.133 140.032 241.384 138.792 243.887C137.782 245.941 137.277 248.892 137.277 252.738C137.277 257.308 138.057 260.687 139.617 262.874C140.703 264.402 142.225 265.166 144.18 265.166C145.497 265.166 146.597 264.836 147.479 264.178C148.604 263.335 149.479 261.988 150.106 260.137C150.732 258.287 151.046 255.873 151.046 252.896C151.046 249.353 150.726 246.702 150.087 244.944C149.447 243.185 148.632 241.943 147.642 241.219C146.651 240.495 145.51 240.133 144.219 240.133ZM185.561 238.631V247.917H184.814C184.251 245.494 183.203 243.636 181.669 242.346C180.135 241.055 178.396 240.409 176.453 240.409C174.829 240.409 173.34 240.89 171.985 241.852C170.63 242.813 169.639 244.071 169.013 245.625C168.207 247.614 167.805 249.827 167.805 252.264C167.805 254.661 168.099 256.844 168.687 258.814C169.275 260.783 170.196 262.271 171.448 263.278C172.701 264.286 174.325 264.79 176.319 264.79C177.955 264.79 179.454 264.421 180.815 263.684C182.177 262.946 183.612 261.675 185.12 259.87V262.182C183.663 263.75 182.145 264.885 180.566 265.59C178.987 266.295 177.143 266.647 175.034 266.647C172.26 266.647 169.796 266.074 167.642 264.928C165.488 263.782 163.826 262.136 162.656 259.989C161.486 257.842 160.902 255.557 160.902 253.133C160.902 250.578 161.551 248.154 162.848 245.862C164.146 243.57 165.897 241.793 168.102 240.528C170.307 239.263 172.65 238.631 175.13 238.631C176.958 238.631 178.888 239.04 180.921 239.856C182.097 240.33 182.845 240.567 183.165 240.567C183.573 240.567 183.928 240.413 184.229 240.103C184.529 239.793 184.724 239.303 184.814 238.631L185.561 238.631ZM204.085 249.498L213.232 261.293C214.522 262.953 215.635 264.079 216.568 264.672C217.246 265.093 217.961 265.304 218.716 265.304V266.035H205.178V265.304C206.034 265.225 206.587 265.086 206.836 264.889C207.086 264.691 207.211 264.447 207.211 264.158C207.211 263.605 206.622 262.564 205.447 261.036L199.483 253.311L198.524 254.141V261.452C198.524 262.848 198.6 263.717 198.754 264.059C198.907 264.402 199.201 264.695 199.636 264.939C200.07 265.182 200.767 265.304 201.726 265.304V266.035H188.61V265.304H189.474C190.228 265.304 190.835 265.166 191.296 264.889C191.628 264.705 191.883 264.389 192.062 263.941C192.203 263.625 192.273 262.795 192.273 261.451V243.828C192.273 242.458 192.203 241.602 192.062 241.259C191.921 240.917 191.637 240.617 191.209 240.36C190.781 240.103 190.202 239.975 189.474 239.975H188.611V239.244H201.554V239.975C200.672 239.975 200.001 240.107 199.541 240.37C199.208 240.555 198.946 240.864 198.754 241.299C198.601 241.628 198.524 242.471 198.524 243.828V252.165L208.17 244.124C209.512 243.004 210.183 242.109 210.183 241.437C210.183 240.936 209.908 240.541 209.359 240.252C209.077 240.107 208.38 240.015 207.269 239.975V239.244H217.412V239.975C216.505 240.041 215.792 240.209 215.274 240.479C214.756 240.749 213.564 241.661 211.698 243.215L204.085 249.498ZM228.956 240.785V251.691H229.474C231.123 251.691 232.318 251.157 233.059 250.09C233.801 249.023 234.274 247.45 234.478 245.369H235.207V259.396H234.478C234.325 257.869 234.002 256.617 233.51 255.642C233.018 254.668 232.446 254.012 231.793 253.677C231.142 253.341 230.195 253.172 228.956 253.172V260.72C228.956 262.195 229.016 263.097 229.138 263.427C229.259 263.756 229.486 264.026 229.818 264.237C230.151 264.447 230.688 264.553 231.429 264.553H232.982C235.411 264.553 237.358 263.973 238.821 262.814C240.285 261.655 241.337 259.89 241.976 257.519H242.685L241.515 266.035H219.042V265.304H219.905C220.659 265.304 221.266 265.165 221.726 264.889C222.059 264.705 222.315 264.388 222.493 263.94C222.634 263.624 222.704 262.795 222.704 261.451V243.827C222.704 242.615 222.672 241.871 222.608 241.595C222.481 241.134 222.244 240.778 221.899 240.528C221.413 240.159 220.748 239.975 219.905 239.975H219.042V239.244H240.806V247.166H240.077C239.707 245.23 239.186 243.84 238.515 242.998C237.843 242.155 236.894 241.535 235.667 241.14C234.951 240.903 233.609 240.785 231.64 240.785H228.956ZM256.626 258.784H245.447V254.694H256.626V258.784ZM296.53 239.244V239.975C296.044 240.014 295.635 240.152 295.303 240.39C294.97 240.627 294.676 240.989 294.421 241.476C294.344 241.634 293.941 242.655 293.213 244.539L285.063 266.647H284.315L277.872 249.379L270.778 266.647H270.068L261.516 244.776C260.646 242.576 260.039 241.246 259.694 240.785C259.349 240.324 258.767 240.054 257.949 239.975V239.244H269.224V239.975C268.317 240.001 267.712 240.143 267.412 240.399C267.112 240.656 266.962 240.976 266.962 241.358C266.962 241.858 267.275 242.919 267.901 244.539L273.002 257.539L277.086 247.384L276.012 244.539C275.424 242.984 274.97 241.947 274.651 241.427C274.331 240.906 273.964 240.535 273.548 240.311C273.133 240.087 272.522 239.975 271.717 239.975V239.244H284.315V239.975C283.433 239.988 282.8 240.06 282.417 240.192C282.149 240.284 281.937 240.439 281.784 240.656C281.631 240.873 281.55 241.132 281.554 241.397C281.554 241.7 281.842 242.629 282.417 244.183L287.153 256.867L291.391 245.388C291.839 244.203 292.113 243.393 292.216 242.958C292.318 242.523 292.369 242.122 292.369 241.753C292.369 241.213 292.19 240.788 291.832 240.478C291.474 240.169 290.79 240.001 289.78 239.974V239.244H296.53ZM297.796 239.244H311.219V239.975H310.548C309.538 239.975 308.844 240.083 308.467 240.301C308.09 240.518 307.821 240.818 307.661 241.2C307.502 241.581 307.422 242.536 307.422 244.065V257.183C307.422 259.581 307.598 261.168 307.949 261.945C308.301 262.722 308.879 263.368 309.685 263.881C310.49 264.395 311.506 264.652 312.733 264.652C314.14 264.652 315.338 264.326 316.329 263.674C317.32 263.022 318.061 262.123 318.553 260.977C319.045 259.831 319.292 257.835 319.292 254.99V244.065C319.292 242.866 319.17 242.01 318.927 241.496C318.684 240.982 318.377 240.627 318.007 240.429C317.431 240.126 316.62 239.975 315.572 239.975V239.244H324.565V239.975H324.028C323.299 239.975 322.692 240.126 322.206 240.429C321.72 240.732 321.369 241.186 321.151 241.792C320.985 242.214 320.902 242.971 320.902 244.065V254.239C320.902 257.388 320.701 259.66 320.298 261.056C319.895 262.452 318.914 263.736 317.355 264.909C315.795 266.081 313.666 266.667 310.969 266.667C308.719 266.667 306.981 266.358 305.754 265.739C304.079 264.895 302.896 263.815 302.206 262.498C301.516 261.181 301.171 259.409 301.171 257.183V244.065C301.171 242.523 301.088 241.565 300.921 241.19C300.755 240.814 300.467 240.514 300.058 240.291C299.649 240.067 298.895 239.961 297.796 239.975V239.244ZM350.049 256.63L349.071 266.035H325.984V265.304H326.847C327.601 265.304 328.208 265.165 328.669 264.889C329.001 264.705 329.256 264.388 329.435 263.94C329.576 263.624 329.646 262.795 329.646 261.451V243.827C329.646 242.457 329.576 241.601 329.435 241.259C329.295 240.916 329.01 240.617 328.582 240.36C328.154 240.103 327.575 239.975 326.847 239.975H325.984V239.244H339.848V239.975H338.716C337.962 239.975 337.355 240.113 336.895 240.39C336.562 240.574 336.3 240.89 336.108 241.338C335.968 241.654 335.897 242.484 335.897 243.827V260.898C335.897 262.268 335.974 263.14 336.128 263.516C336.281 263.891 336.582 264.171 337.029 264.356C337.348 264.474 338.122 264.533 339.349 264.533H341.516C342.897 264.533 344.047 264.283 344.968 263.782C345.888 263.282 346.684 262.492 347.355 261.412C348.026 260.331 348.662 258.738 349.263 256.63H350.049ZM362.283 240.785V251.789H363.031C364.181 251.789 365.121 251.612 365.85 251.256C366.579 250.901 367.195 250.301 367.7 249.458C368.205 248.615 368.534 247.476 368.688 246.04H369.359V259.495H368.688C368.445 256.953 367.783 255.277 366.703 254.467C365.623 253.657 364.399 253.252 363.031 253.252H362.283V261.451C362.283 262.821 362.357 263.677 362.503 264.019C362.651 264.362 362.938 264.661 363.366 264.918C363.794 265.175 364.373 265.303 365.102 265.303H365.965V266.035H352.369V265.303H353.232C353.986 265.303 354.594 265.165 355.054 264.888C355.386 264.704 355.642 264.388 355.821 263.94C355.962 263.624 356.032 262.794 356.032 261.451V243.827C356.032 242.457 355.962 241.601 355.821 241.259C355.68 240.916 355.396 240.616 354.967 240.36C354.539 240.103 353.961 239.974 353.232 239.974H352.369V239.243H374.306V246.929H373.52C373.341 245.124 372.884 243.788 372.149 242.918C371.414 242.049 370.35 241.436 368.956 241.081C368.189 240.883 366.77 240.785 364.699 240.785H362.283Z" fill="black"/>
<path d="M322.898 138.56C322.898 160.299 314.262 181.147 298.89 196.519C283.519 211.891 262.67 220.527 240.931 220.527C219.192 220.527 198.344 211.891 182.972 196.519C167.601 181.147 158.965 160.299 158.965 138.56C158.965 116.821 167.601 95.9728 182.972 80.6012C198.344 65.2295 219.192 56.5938 240.931 56.5938C262.67 56.5938 283.519 65.2295 298.89 80.6012C314.262 95.9728 322.898 116.821 322.898 138.56V138.56Z" stroke="black" stroke-width="16.3087"/>
</svg>
