<svg width="480" height="320" viewBox="0 0 480 320" fill="none" xmlns="http://www.w3.org/2000/svg">
<path d="M423.508 154.707C423.631 155.076 423.631 155.322 423.631 155.692C423.631 155.322 423.508 155.076 423.508 154.707ZM240 90.8301C137.477 90.8301 55.3848 121.599 55.3848 159.999C55.3848 198.276 138.216 229.169 240 229.169C341.785 229.169 424.616 198.153 424.616 159.999C424.616 121.845 341.785 90.8301 240 90.8301Z" fill="#D3D2D2"/>
<path d="M58.2148 160.001C58.2148 196.678 139.569 226.462 239.999 226.462C340.43 226.462 421.784 196.801 421.784 160.001C421.784 123.324 340.43 93.5391 239.999 93.5391C139.569 93.5391 58.2148 123.324 58.2148 160.001Z" fill="url(#paint0_radial_730_18329)"/>
<path d="M71.877 160C71.877 162.462 72.3693 164.923 73.3539 167.385C72.9846 165.785 72.7385 164.185 72.7385 162.585C72.7385 132.185 147.938 107.57 240.862 107.57C326.277 107.57 396.8 128.37 407.508 155.446C400.369 127.016 328.123 104.739 240 104.739C147.2 104.616 71.877 129.477 71.877 160Z" fill="url(#paint1_linear_730_18329)"/>
<path d="M414.155 160C414.155 193.477 336.124 220.677 240.001 220.677C154.339 220.677 83.2008 199.138 68.5547 170.83C79.7547 200.369 152.739 223.138 241.232 223.138C337.478 223.138 415.385 196.184 415.385 163.077C415.385 159.754 414.524 156.43 413.047 153.23C413.785 155.323 414.155 157.661 414.155 160Z" fill="url(#paint2_linear_730_18329)"/>
<path d="M272.493 165.908C268.554 169.97 268.308 175.262 270.893 177.601C271.754 178.462 272.862 178.832 273.97 178.955C272.247 176.862 271.508 172.678 273.6 169.478C273.231 168.493 273.108 167.385 273.354 166.278C273.354 166.032 273.231 165.785 272.985 165.785C272.739 165.662 272.616 165.785 272.493 165.908Z" fill="url(#paint3_linear_730_18329)"/>
<path d="M312.739 174.523C312.739 175.139 312.985 176.247 313.108 177.108C313.354 176.739 313.477 176.37 313.723 175.877C313.846 175.508 313.846 175.508 313.6 175.385C313.231 175.262 312.739 174.893 312.739 174.647C312.616 174.647 312.616 174.647 312.739 174.523Z" fill="url(#paint4_linear_730_18329)"/>
<path d="M317.416 161.23C318.77 162.461 319.508 163.938 319.631 165.415C319.631 166.03 320.247 166.154 320.616 165.538C320.739 165.415 320.862 165.169 320.985 164.923C320.862 164.8 320.739 164.677 320.616 164.43C320.124 163.815 318.77 162.461 317.416 161.23Z" fill="url(#paint5_linear_730_18329)"/>
<path d="M263.385 158.77C264.369 160.246 264.862 162.216 264.862 164.8C264.862 165.416 265.354 165.416 265.6 164.923C265.723 164.677 265.969 164.431 266.092 164.185C265.477 161.846 264.246 159.631 263.385 158.77Z" fill="url(#paint6_linear_730_18329)"/>
<path d="M299.447 172.308C295.754 176.739 293.785 181.293 293.785 185.724C293.785 187.324 294.401 189.293 295.754 189.908C296.247 190.155 296.616 190.278 297.108 190.401C296.985 189.785 296.862 189.17 296.862 188.678C296.862 184.124 298.216 179.57 301.908 175.016C306.339 169.601 311.016 166.893 314.216 168.37C314.093 167.139 313.477 166.155 312.124 165.539C311.508 165.293 310.893 165.17 310.154 165.17C306.954 165.17 303.016 167.878 299.447 172.308Z" fill="url(#paint7_linear_730_18329)"/>
<path d="M226.339 162.83C221.416 164.677 216.492 167.63 213.046 172.184C209.108 177.353 208.123 183.63 210.708 187.323C211.323 188.184 212.062 188.8 212.923 189.169C211.569 184.861 212.554 179.077 215.877 174.646C219.323 170.092 223.139 168.369 227.446 166.4C228.062 166.153 228.062 165.784 227.939 165.292C227.692 164.43 227.2 162.215 226.954 161.723C227.077 162.338 226.954 162.707 226.339 162.83Z" fill="url(#paint8_linear_730_18329)"/>
<path d="M263.262 176.738C258.708 183.754 254.4 190.523 249.846 197.661C249.6 198.031 249.354 198.154 248.985 198.277H240C239.631 198.277 239.508 198.154 239.385 197.908C239.631 199.015 240 200.984 240.123 201.477C240.246 201.846 240.492 201.969 240.739 201.969H250.954C251.323 201.969 251.692 201.723 251.816 201.354C256 194.831 260.431 187.815 264.616 181.292C265.6 184.615 265.969 186.092 267.816 187.692C269.539 189.292 271.139 189.661 273.6 189.661C275.816 189.661 277.908 188.8 280.492 187.692C281.477 187.323 282.216 186.831 282.954 186.338C282.954 185.108 283.077 183.877 283.323 182.769C283.323 182.646 283.2 181.908 282.585 182.277C281.354 183.138 279.877 184 277.908 184.738C275.569 185.6 274.462 185.969 272.246 185.969C269.539 185.969 267.077 184.738 265.354 182.031C264.369 180.554 264 178.338 263.877 176.738C263.877 176.615 263.754 176.492 263.631 176.492C263.508 176.615 263.385 176.615 263.262 176.738Z" fill="url(#paint9_linear_730_18329)"/>
<path d="M342.522 180.432C338.092 185.847 333.292 190.893 328.615 194.462C321.353 200.124 314.215 201.478 310.645 197.909C309.292 196.555 308.553 194.709 308.553 192.986C308.553 192.124 308.061 192.124 307.692 192.493C303.384 196.678 295.999 201.355 289.23 198.032C285.907 196.309 284.061 193.232 283.322 189.786C283.692 192.247 284.307 195.816 285.415 198.032C286.153 199.509 287.876 201.232 288.984 201.724C295.015 204.678 303.507 201.355 309.045 196.062C309.045 195.939 309.168 195.939 309.168 195.939C309.415 196.924 309.784 198.032 309.784 198.155C310.153 199.386 310.768 200.493 311.261 201.109C315.076 205.416 322.953 203.447 331.322 197.047C335.999 193.478 339.445 189.909 343.63 184.986C343.753 184.739 343.753 184.493 343.753 184.001C343.507 182.893 343.138 181.047 342.892 180.062C342.645 180.062 342.645 180.309 342.522 180.432ZM283.199 189.539C283.199 189.539 283.199 189.662 283.199 189.539V189.539Z" fill="url(#paint10_linear_730_18329)"/>
<path d="M285.292 165.538C284.923 168.246 283.446 170.584 280.984 171.815C278.892 172.8 276.43 172.677 274.707 171.077C274.215 170.584 273.846 169.969 273.477 169.354C273.969 171.323 274.338 172.8 274.83 173.661C276.43 176.123 279.261 176.738 282.338 175.015C284.553 173.784 286.523 171.2 286.277 167.138C286.153 165.046 285.538 162.954 284.553 161.23C285.292 162.584 285.538 164.061 285.292 165.538Z" fill="url(#paint11_linear_730_18329)"/>
<path d="M348.43 140.184C347.076 142.645 319.999 183.753 318.276 188.061C317.784 189.414 317.661 190.399 318.276 191.138C318.891 191.876 319.63 192.122 320.614 192.122C320.738 191.63 320.861 191.014 321.107 190.399C322.83 186.091 348.184 147.691 349.538 145.23C349.661 144.984 349.661 144.738 349.538 144.614C349.414 144.245 348.553 140.184 348.553 139.814C348.553 139.938 348.553 140.061 348.43 140.184Z" fill="url(#paint12_linear_730_18329)"/>
<path d="M236.186 159.385L236.432 159.631C238.032 162.092 238.893 165.416 239.016 168.985C239.139 169.723 239.386 169.723 239.755 169.354C240.124 168.985 240.37 168.616 240.739 168.369C240.247 166.523 239.509 164.8 238.77 163.2C238.524 162.462 237.293 160.369 236.186 159.385Z" fill="url(#paint13_linear_730_18329)"/>
<path d="M249.97 167.508C244.185 171.939 239.262 178.832 236.801 181.908C235.324 183.755 233.97 186.339 230.155 190.524C224.124 197.047 216.124 200.862 208.493 198.155C204.308 196.801 201.231 193.355 200.124 189.17C199.878 188.308 199.385 188.185 199.016 188.678C197.785 190.278 195.201 192.493 193.108 193.97C192.862 194.093 192.247 194.462 191.755 194.216C191.262 193.97 189.785 191.755 189.416 191.139C189.416 191.016 189.293 191.016 189.293 190.893C189.785 193.601 189.908 193.97 190.647 195.201C191.508 196.555 192.37 197.539 192.493 197.662C192.985 197.908 193.478 197.662 193.724 197.539C195.324 196.678 198.524 194.216 200.001 192.493C200.37 192.124 200.862 192.37 200.985 192.739C201.601 194.585 202.462 195.939 203.324 197.539C204.308 199.262 206.401 200.985 209.108 201.724C212.555 202.708 216.37 202.832 221.293 200.985C225.231 199.508 229.416 196.432 232.616 192.862C236.431 188.678 237.785 186.093 239.262 184.247C241.724 181.17 245.662 175.755 251.078 171.078C252.924 169.478 255.016 168.37 256.37 168.862C257.108 166.893 256.739 165.785 256.001 165.17C255.755 165.047 255.385 164.924 255.016 164.924C253.539 165.17 251.693 166.278 249.97 167.508Z" fill="url(#paint14_linear_730_18329)"/>
<path d="M152.984 161.969C149.661 163.692 145.723 166.523 143.754 170.462C142.154 173.662 141.908 177.477 144.246 181.169C144.492 181.415 144.615 181.785 144.861 182.031C144.123 178.954 144.984 175.754 146.092 173.292C148.061 169.354 150.769 167.508 153.477 165.785C154.584 165.046 155.2 164.308 154.461 162.462C154.215 161.969 154.092 160.985 153.969 160.123C154.092 160.862 153.723 161.6 152.984 161.969Z" fill="url(#paint15_linear_730_18329)"/>
<path d="M177.723 122.708C168.246 126.277 164.062 133.785 166.031 138.831C166.4 139.815 167.016 140.554 167.877 141.046C167.262 136.369 170.708 128.862 179.816 125.785C191.754 121.846 205.046 124.308 215.754 126.646C217.231 125.662 218.585 125.046 219.816 124.308C220.431 123.938 219.692 123.569 219.569 123.569C211.077 121.969 202.216 120 193.6 120C188.185 120 182.892 120.738 177.723 122.708Z" fill="url(#paint16_linear_730_18329)"/>
<path d="M217.476 150.893C213.168 151.139 206.522 151.754 201.968 152.37C200.86 152.493 200.737 152.739 200.491 153.108C193.23 165.046 185.599 177.846 177.106 186.462C167.999 195.693 160.491 198.154 152.491 198.154C143.26 198.277 135.014 192.985 132.922 183.754C134.03 188.923 137.353 195.077 141.168 197.785C145.106 200.493 148.922 201.477 153.353 201.477C162.46 201.6 170.83 197.908 179.691 188.923C188.183 180.308 195.568 168.246 202.706 156.308C202.953 155.939 203.199 155.693 204.43 155.57C208.983 154.954 213.045 154.708 217.106 154.339C218.337 154.216 219.199 154.093 219.691 154.585C221.168 156.062 222.768 157.416 223.999 158.031C224.737 158.031 225.353 158.154 225.845 158.646C226.337 158.523 226.706 158.277 227.076 158.031C227.568 157.539 227.568 156.923 227.568 156.431C227.445 155.446 227.076 153.477 226.83 152.985C227.076 153.354 226.953 153.97 226.46 154.462C226.091 154.831 225.599 155.2 224.983 155.2C224.491 155.2 224.122 154.954 223.507 154.708C222.153 153.97 220.43 152.739 219.322 151.385C219.076 151.016 218.83 150.893 218.337 150.893C217.845 150.77 217.722 150.893 217.476 150.893Z" fill="url(#paint17_linear_730_18329)"/>
<path d="M178.339 158.03C177.354 158.769 175.877 158.646 175.262 157.661C175.016 157.292 174.893 156.923 174.893 156.676C174.77 158.276 175.385 160.492 175.877 161.23C176.37 162.092 177.97 162.461 179.201 161.599C181.908 159.507 184.493 158.399 187.201 157.784C187.939 156.799 188.677 155.692 189.539 154.461C189.662 154.338 189.662 154.215 189.539 154.215C189.539 154.092 189.416 154.092 189.17 154.092C185.354 154.215 181.785 155.446 178.339 158.03Z" fill="url(#paint18_linear_730_18329)"/>
<path d="M293.539 120.123C293.539 120.246 293.662 120.246 293.662 120.369C293.662 120.246 293.662 120.123 293.539 120.123Z" fill="url(#paint19_linear_730_18329)"/>
<path d="M294.031 121.846C293.908 124.431 291.816 127.015 286.77 129.723C280.985 132.923 275.077 133.784 268.8 133.907C253.662 134.031 239.508 128.123 224.985 124.923C224.985 125.538 225.108 126.277 224.616 126.769C216.493 132.8 209.231 138.831 204.308 147.323C204.185 147.569 204.185 147.692 204.554 147.692C205.908 147.569 207.139 147.569 208.37 147.446C212.8 140.431 217.6 136.492 224.862 131.077C225.354 130.707 225.97 130.338 225.723 128.861C240.37 132.061 251.446 137.477 270.4 137.6C276.062 137.6 283.939 135.754 288.246 133.169C293.17 130.215 294.523 128 294.646 125.784C294.646 125.046 294.523 123.938 294.4 123.446C294.277 122.707 294.154 121.723 293.908 120.984C294.031 121.107 294.031 121.477 294.031 121.846Z" fill="url(#paint20_linear_730_18329)"/>
<path d="M223.509 139.692C223.386 139.815 223.14 140.061 222.894 140.184C221.417 141.661 221.047 143.63 221.17 145.107C221.294 145.722 221.54 145.845 221.786 145.722C222.032 145.722 222.401 145.599 222.647 145.476C222.77 144.615 223.14 143.876 223.878 143.138C224.494 142.645 225.232 142.399 225.847 142.522C226.463 141.415 226.586 140.061 225.847 139.445C225.601 139.199 225.232 139.076 224.74 139.076C224.494 139.199 224.001 139.322 223.509 139.692Z" fill="url(#paint21_linear_730_18329)"/>
<path d="M229.293 144.861C227.939 147.569 225.6 148.922 223.385 149.661C223.385 149.661 222.893 149.784 223.016 150.153C223.016 150.646 224.616 151.63 225.6 152.246C225.724 152.246 225.97 152.122 225.97 152.122C227.077 151.63 228.924 150.522 230.031 148.184C230.77 146.707 231.139 145.476 230.77 142.769C230.524 140.922 230.154 139.199 229.662 138.461C230.77 140.43 230.4 142.892 229.293 144.861Z" fill="url(#paint22_linear_730_18329)"/>
<path d="M188.924 132.432C189.17 133.047 189.17 134.155 188.678 135.385C184.616 144.862 176.986 152.247 167.632 152.616C161.97 152.739 157.786 149.909 155.816 145.724C157.293 148.924 160.247 151.755 162.832 153.355C164.801 154.585 167.386 155.324 170.216 155.201C179.939 154.832 187.324 146.832 189.786 140.062C190.401 138.216 189.909 136.247 189.663 135.016C189.416 134.401 189.293 133.293 188.924 132.432Z" fill="url(#paint23_linear_730_18329)"/>
<path d="M423.508 154.707C423.631 155.076 423.631 155.322 423.631 155.692C423.631 155.322 423.508 155.076 423.508 154.707ZM56.6155 160.861C56.6155 152.738 60.1848 144.738 67.6925 137.107C94.154 110.399 163.323 92.4301 239.631 92.0608C340.8 91.6916 423.139 121.845 423.385 159.261C423.385 167.384 419.692 175.261 412.185 182.892C385.723 209.599 316.677 227.692 240.369 227.938C139.2 228.43 56.8617 198.276 56.6155 160.861ZM240 90.8301C137.477 90.8301 55.3848 121.599 55.3848 159.999C55.3848 198.276 138.216 229.169 240 229.169C341.785 229.169 424.616 198.153 424.616 159.999C424.616 121.845 341.785 90.8301 240 90.8301Z" fill="#4F4C4D"/>
<path d="M56 159.999C56 161.845 56.2462 163.568 56.6154 165.415C56.3692 163.938 56.1231 162.338 56.1231 160.861C56.1231 152.615 59.8154 144.368 67.3231 136.738C93.9077 109.907 163.2 91.8145 239.631 91.5684C250.215 91.5684 260.677 91.8145 270.769 92.4299C260.8 91.8145 250.462 91.4453 240 91.4453C137.969 91.4453 56 121.968 56 159.999Z" fill="url(#paint24_linear_730_18329)"/>
<path d="M423.877 159.261C423.877 167.507 420.061 175.63 412.431 183.261C385.969 209.968 316.677 228.184 240.246 228.553C229.415 228.553 218.831 228.307 208.492 227.691C218.708 228.307 229.169 228.676 239.877 228.676C341.415 228.676 423.877 197.661 423.877 159.999C423.877 158.522 423.754 157.168 423.508 155.691C423.877 156.922 423.877 158.153 423.877 159.261Z" fill="url(#paint25_linear_730_18329)"/>
<path d="M65.7227 159.999C65.7227 193.476 143.753 220.676 239.876 220.676C336.123 220.676 414.03 193.476 414.03 159.999C414.153 126.522 336.246 99.4453 240 99.4453C143.753 99.4453 65.7227 126.522 65.7227 159.999ZM71.8765 159.999C71.8765 129.353 147.077 104.615 240 104.615C332.8 104.615 408.123 129.353 408.123 159.999C408.123 190.645 332.923 215.384 240 215.384C147.2 215.384 71.8765 190.645 71.8765 159.999Z" fill="url(#paint26_linear_730_18329)"/>
<path d="M338.584 139.445C337.845 139.445 337.599 139.568 337.23 140.184C336.122 142.276 323.076 161.722 320.737 165.538C320.368 166.153 319.876 166.03 319.753 165.415C319.507 163.199 317.537 160.615 314.461 159.384C312.122 158.399 309.784 158.276 307.445 158.522C303.137 159.138 299.322 161.353 295.999 163.938C290.953 167.753 286.522 172.799 280.984 176.491C277.907 178.461 273.722 180.307 270.891 177.599C268.307 175.261 268.676 169.968 272.491 165.907C272.861 165.538 273.353 165.784 273.353 166.276C272.984 168.122 273.476 169.968 274.83 171.199C276.553 172.676 279.014 172.922 281.107 171.938C283.568 170.707 285.045 168.368 285.414 165.661C286.03 161.476 282.83 157.907 278.891 157.538C275.691 157.291 272.491 158.399 269.537 160.984C268.061 162.215 267.199 163.199 265.845 165.045C265.476 165.538 264.984 165.538 265.107 164.922C265.23 159.63 263.014 156.676 258.707 156.553C255.261 156.43 251.691 158.276 248.861 160.615C245.784 163.076 243.076 166.399 240.122 169.476C239.753 169.845 239.384 169.845 239.384 169.107C239.261 165.538 238.399 162.215 236.799 159.753C236.184 158.891 234.953 158.522 233.968 159.015C233.476 159.261 231.876 159.999 230.645 160.984C230.03 161.476 229.784 162.215 230.03 163.076C231.63 168.368 231.261 174.276 229.168 179.322C227.199 183.999 223.384 188.061 218.953 189.538C215.999 190.522 212.922 190.03 211.076 187.445C208.491 183.876 209.476 177.599 213.414 172.307C216.861 167.753 221.784 164.799 226.707 162.953C227.322 162.707 227.445 162.338 227.199 161.845C226.953 160.984 226.461 159.876 226.337 159.384C225.845 158.153 224.614 158.03 223.014 158.153C219.445 158.522 216.245 159.753 212.922 161.476C204.553 165.907 200.368 174.645 198.522 179.322C197.661 181.538 196.922 182.891 195.937 184.122C194.584 185.845 192.984 187.322 189.907 189.907C189.661 190.153 189.414 190.645 189.661 191.138C190.03 191.753 191.507 193.968 191.999 194.215C192.491 194.461 193.107 194.091 193.353 193.968C195.445 192.491 198.03 190.276 199.261 188.676C199.63 188.184 200.122 188.43 200.368 189.168C201.476 193.353 204.553 196.676 208.737 198.153C216.368 200.738 224.368 197.045 230.399 190.522C234.214 186.338 235.568 183.753 237.045 181.907C239.507 178.83 244.43 171.938 250.214 167.507C252.307 165.907 254.891 164.676 256.122 165.415C257.107 166.03 257.476 167.63 255.876 170.584C249.968 181.415 241.23 194.215 239.63 197.291C239.384 197.784 239.63 198.276 240.122 198.276H249.107C249.599 198.276 249.845 198.03 249.968 197.661C254.522 190.522 258.83 183.753 263.384 176.738C263.63 176.368 263.876 176.615 263.876 176.861C263.999 178.461 264.368 180.676 265.353 182.153C267.076 184.861 269.537 185.968 272.245 186.091C274.461 186.091 275.568 185.845 277.907 184.861C279.876 184.122 281.353 183.261 282.584 182.399C283.322 181.907 283.445 182.768 283.322 182.891C282.214 188.553 283.568 195.322 289.23 198.03C295.999 201.353 303.384 196.676 307.691 192.491C308.061 192.122 308.553 192.122 308.553 192.984C308.676 194.584 309.414 196.553 310.645 197.907C314.214 201.476 321.476 200.122 328.614 194.461C333.291 190.891 338.091 185.845 342.522 180.43C342.645 180.184 342.768 179.938 342.522 179.568C341.907 178.83 340.922 178.091 340.184 177.476C339.937 177.23 339.445 177.353 339.199 177.476C334.645 181.784 330.707 186.584 324.799 190.645C322.83 191.999 319.63 193.107 318.276 191.261C317.784 190.522 317.784 189.538 318.276 188.184C319.999 183.876 347.076 142.768 348.43 140.307C348.676 139.938 348.43 139.568 347.937 139.568C345.107 139.445 341.414 139.445 338.584 139.445ZM295.753 190.03C294.399 189.291 293.784 187.322 293.784 185.845C293.907 181.415 295.876 176.861 299.445 172.43C303.876 167.015 308.799 164.184 311.999 165.661C315.322 167.261 314.214 171.076 312.737 174.153C312.614 174.399 312.614 174.645 312.737 174.768C312.737 175.138 313.23 175.384 313.599 175.507C313.722 175.507 313.845 175.63 313.722 175.999C312.614 178.461 311.507 179.938 310.03 182.03C308.676 183.999 307.199 185.599 305.353 187.076C303.261 188.799 300.553 190.645 297.968 190.645C297.23 190.645 296.368 190.399 295.753 190.03Z" fill="url(#paint27_linear_730_18329)"/>
<path d="M194.831 114.461C192.246 114.461 189.661 114.584 187.077 114.83C170.461 116.184 154.707 125.538 154.584 139.815C154.584 147.076 159.754 152.861 167.631 152.615C176.984 152.246 184.615 144.861 188.677 135.384C190.154 131.815 187.323 130.338 186.092 132.43C183.754 136.122 180.307 138.953 176.738 140.799C172.307 142.892 167.631 142.399 166.277 138.83C164.307 133.784 168.492 126.276 177.969 122.707C191.631 117.661 206.031 120.984 219.815 123.569C220.061 123.569 220.8 123.938 220.061 124.307C217.6 125.661 215.138 126.769 211.323 129.969C208.615 132.307 205.046 135.384 202.338 138.707C199.631 142.03 197.661 144.984 195.077 148.307C194.707 148.799 194.338 148.799 194.338 148.799C188.061 149.907 182.031 150.522 176.369 154.461C175.261 155.199 174.769 156.676 175.384 157.784C176 158.769 177.477 158.892 178.461 158.153C181.907 155.569 185.477 154.338 189.661 154.215C189.784 154.215 189.907 154.215 190.031 154.338V154.584C183.877 163.076 182.4 165.046 177.723 170.338C175.384 173.046 173.046 175.384 170.461 177.722C160 187.446 148.677 187.322 144.615 181.169C142.154 177.476 142.523 173.661 144.123 170.461C146.092 166.522 150.031 163.692 153.354 161.969C154.584 161.353 154.954 159.753 153.723 158.399C152.984 157.415 151.015 157.292 149.661 157.538C145.354 158.276 140.307 161.599 137.231 165.538C133.907 169.969 132.184 175.261 132.677 181.169C133.661 191.999 142.523 198.153 152.615 198.153C160.615 198.03 168.246 195.692 177.231 186.461C185.723 177.846 193.477 165.046 200.615 153.107C200.861 152.738 200.984 152.492 202.092 152.369C206.646 151.753 213.292 151.138 217.6 150.892C218.584 150.892 218.707 150.892 219.077 151.384C220.184 152.738 221.907 153.969 223.261 154.707C223.877 155.076 224.246 155.199 224.738 155.199C225.354 155.199 225.846 154.83 226.215 154.461C226.707 153.969 226.831 153.353 226.584 152.861C226.338 152.369 223.384 150.769 223.261 150.153C223.138 149.784 223.631 149.661 223.631 149.661C225.846 148.922 228.061 147.569 229.538 144.861C230.892 142.276 231.138 138.707 228.677 136.861C226.461 135.138 223.138 135.384 220.554 137.846C217.969 140.184 217.107 143.507 217.477 146.461C217.477 146.953 217.477 147.199 216.861 147.199C212.923 147.569 209.107 147.569 204.8 147.815C204.554 147.815 204.431 147.692 204.554 147.446C209.477 138.953 216.738 132.922 224.861 126.892C225.354 126.522 225.231 125.784 225.231 125.046C239.877 128.246 253.907 134.153 269.046 134.03C275.323 134.03 281.354 133.046 287.015 129.846C292.061 127.138 294.154 124.553 294.277 121.969C294.4 120.122 293.169 119.015 291.323 119.384C276.061 122.953 261.415 122.83 246.154 120.984C228.677 118.769 212.061 114.461 194.831 114.461ZM221.169 145.107C220.923 143.507 221.415 141.292 223.261 139.815C224.123 139.076 225.354 138.83 225.969 139.446C226.831 140.184 226.338 141.907 225.6 143.015C224.738 144.369 223.138 145.476 221.784 145.722H221.661C221.538 145.846 221.292 145.722 221.169 145.107Z" fill="url(#paint28_linear_730_18329)"/>
<defs>
<radialGradient id="paint0_radial_730_18329" cx="0" cy="0" r="1" gradientUnits="userSpaceOnUse" gradientTransform="translate(238.4 854.656) scale(797.114 777.268)">
<stop stop-color="#00050D"/>
<stop offset="0.7" stop-color="#051125"/>
<stop offset="0.904" stop-color="#173E7E"/>
<stop offset="0.955" stop-color="#4CA9E3"/>
<stop offset="1" stop-color="#4CA9E3"/>
</radialGradient>
<linearGradient id="paint1_linear_730_18329" x1="239.681" y1="230.777" x2="239.681" y2="90.075" gradientUnits="userSpaceOnUse">
<stop stop-color="#08142E"/>
<stop offset="0.809" stop-color="#17326E"/>
<stop offset="1" stop-color="#0D69A9"/>
</linearGradient>
<linearGradient id="paint2_linear_730_18329" x1="241.904" y1="230.848" x2="241.904" y2="90.1334" gradientUnits="userSpaceOnUse">
<stop stop-color="#08142E"/>
<stop offset="0.809" stop-color="#17326E"/>
<stop offset="1" stop-color="#0D69A9"/>
</linearGradient>
<linearGradient id="paint3_linear_730_18329" x1="271.515" y1="206.608" x2="271.515" y2="109.118" gradientUnits="userSpaceOnUse">
<stop stop-color="#08142E"/>
<stop offset="0.809" stop-color="#17326E"/>
<stop offset="1" stop-color="#0D69A9"/>
</linearGradient>
<linearGradient id="paint4_linear_730_18329" x1="313.17" y1="207.006" x2="313.17" y2="108.217" gradientUnits="userSpaceOnUse">
<stop stop-color="#08142E"/>
<stop offset="0.809" stop-color="#17326E"/>
<stop offset="1" stop-color="#0D69A9"/>
</linearGradient>
<linearGradient id="paint5_linear_730_18329" x1="106385" y1="203.136" x2="106385" y2="112.64" gradientUnits="userSpaceOnUse">
<stop stop-color="#08142E"/>
<stop offset="0.809" stop-color="#17326E"/>
<stop offset="1" stop-color="#0D69A9"/>
</linearGradient>
<linearGradient id="paint6_linear_730_18329" x1="264.81" y1="204.45" x2="264.81" y2="110.907" gradientUnits="userSpaceOnUse">
<stop stop-color="#08142E"/>
<stop offset="0.809" stop-color="#17326E"/>
<stop offset="1" stop-color="#0D69A9"/>
</linearGradient>
<linearGradient id="paint7_linear_730_18329" x1="303.905" y1="206.992" x2="303.905" y2="108.363" gradientUnits="userSpaceOnUse">
<stop stop-color="#08142E"/>
<stop offset="0.809" stop-color="#17326E"/>
<stop offset="1" stop-color="#0D69A9"/>
</linearGradient>
<linearGradient id="paint8_linear_730_18329" x1="218.579" y1="206.898" x2="218.579" y2="108.289" gradientUnits="userSpaceOnUse">
<stop stop-color="#08142E"/>
<stop offset="0.809" stop-color="#17326E"/>
<stop offset="1" stop-color="#0D69A9"/>
</linearGradient>
<linearGradient id="paint9_linear_730_18329" x1="115208" y1="206.883" x2="115208" y2="108.948" gradientUnits="userSpaceOnUse">
<stop stop-color="#08142E"/>
<stop offset="0.809" stop-color="#17326E"/>
<stop offset="1" stop-color="#0D69A9"/>
</linearGradient>
<linearGradient id="paint10_linear_730_18329" x1="313.38" y1="207.001" x2="313.38" y2="108.348" gradientUnits="userSpaceOnUse">
<stop stop-color="#08142E"/>
<stop offset="0.809" stop-color="#17326E"/>
<stop offset="1" stop-color="#0D69A9"/>
</linearGradient>
<linearGradient id="paint11_linear_730_18329" x1="279.966" y1="207.026" x2="279.966" y2="108.311" gradientUnits="userSpaceOnUse">
<stop stop-color="#08142E"/>
<stop offset="0.809" stop-color="#17326E"/>
<stop offset="1" stop-color="#0D69A9"/>
</linearGradient>
<linearGradient id="paint12_linear_730_18329" x1="333.801" y1="206.908" x2="333.801" y2="108.281" gradientUnits="userSpaceOnUse">
<stop stop-color="#08142E"/>
<stop offset="0.809" stop-color="#17326E"/>
<stop offset="1" stop-color="#0D69A9"/>
</linearGradient>
<linearGradient id="paint13_linear_730_18329" x1="238.428" y1="205.905" x2="238.428" y2="109.553" gradientUnits="userSpaceOnUse">
<stop stop-color="#08142E"/>
<stop offset="0.809" stop-color="#17326E"/>
<stop offset="1" stop-color="#0D69A9"/>
</linearGradient>
<linearGradient id="paint14_linear_730_18329" x1="223.112" y1="206.957" x2="223.112" y2="108.993" gradientUnits="userSpaceOnUse">
<stop stop-color="#08142E"/>
<stop offset="0.809" stop-color="#17326E"/>
<stop offset="1" stop-color="#0D69A9"/>
</linearGradient>
<linearGradient id="paint15_linear_730_18329" x1="148.724" y1="206.884" x2="148.724" y2="108.26" gradientUnits="userSpaceOnUse">
<stop stop-color="#08142E"/>
<stop offset="0.809" stop-color="#17326E"/>
<stop offset="1" stop-color="#0D69A9"/>
</linearGradient>
<linearGradient id="paint16_linear_730_18329" x1="192.817" y1="207.001" x2="192.817" y2="108.398" gradientUnits="userSpaceOnUse">
<stop stop-color="#08142E"/>
<stop offset="0.809" stop-color="#17326E"/>
<stop offset="1" stop-color="#0D69A9"/>
</linearGradient>
<linearGradient id="paint17_linear_730_18329" x1="180.028" y1="206.929" x2="180.028" y2="108.302" gradientUnits="userSpaceOnUse">
<stop stop-color="#08142E"/>
<stop offset="0.809" stop-color="#17326E"/>
<stop offset="1" stop-color="#0D69A9"/>
</linearGradient>
<linearGradient id="paint18_linear_730_18329" x1="182.352" y1="206.989" x2="182.352" y2="108.312" gradientUnits="userSpaceOnUse">
<stop stop-color="#08142E"/>
<stop offset="0.809" stop-color="#17326E"/>
<stop offset="1" stop-color="#0D69A9"/>
</linearGradient>
<linearGradient id="paint19_linear_730_18329" x1="293.6" y1="205.166" x2="293.6" y2="108.636" gradientUnits="userSpaceOnUse">
<stop stop-color="#08142E"/>
<stop offset="0.809" stop-color="#17326E"/>
<stop offset="1" stop-color="#0D69A9"/>
</linearGradient>
<linearGradient id="paint20_linear_730_18329" x1="249.484" y1="206.945" x2="249.484" y2="108.329" gradientUnits="userSpaceOnUse">
<stop stop-color="#08142E"/>
<stop offset="0.809" stop-color="#17326E"/>
<stop offset="1" stop-color="#0D69A9"/>
</linearGradient>
<linearGradient id="paint21_linear_730_18329" x1="223.892" y1="203.607" x2="223.892" y2="110.437" gradientUnits="userSpaceOnUse">
<stop stop-color="#08142E"/>
<stop offset="0.809" stop-color="#17326E"/>
<stop offset="1" stop-color="#0D69A9"/>
</linearGradient>
<linearGradient id="paint22_linear_730_18329" x1="227.039" y1="206.947" x2="227.039" y2="108.321" gradientUnits="userSpaceOnUse">
<stop stop-color="#08142E"/>
<stop offset="0.809" stop-color="#17326E"/>
<stop offset="1" stop-color="#0D69A9"/>
</linearGradient>
<linearGradient id="paint23_linear_730_18329" x1="172.913" y1="206.974" x2="172.913" y2="108.343" gradientUnits="userSpaceOnUse">
<stop stop-color="#08142E"/>
<stop offset="0.809" stop-color="#17326E"/>
<stop offset="1" stop-color="#0D69A9"/>
</linearGradient>
<linearGradient id="paint24_linear_730_18329" x1="199.42" y1="262.114" x2="156.764" y2="102.921" gradientUnits="userSpaceOnUse">
<stop stop-color="#B2B1B1"/>
<stop offset="0.35" stop-color="#DEDDDE"/>
<stop offset="0.65" stop-color="#DEDDDE"/>
<stop offset="1" stop-color="#B2B1B1"/>
</linearGradient>
<linearGradient id="paint25_linear_730_18329" x1="311.654" y1="175.254" x2="269.196" y2="16.7984" gradientUnits="userSpaceOnUse">
<stop stop-color="#B2B1B1"/>
<stop offset="0.35" stop-color="#DEDDDE"/>
<stop offset="0.65" stop-color="#DEDDDE"/>
<stop offset="1" stop-color="#B2B1B1"/>
</linearGradient>
<linearGradient id="paint26_linear_730_18329" x1="240.014" y1="89.1274" x2="240.014" y2="230.554" gradientUnits="userSpaceOnUse">
<stop stop-color="white"/>
<stop offset="0.552" stop-color="white"/>
<stop offset="0.691" stop-color="#FAFAFA"/>
<stop offset="0.8" stop-color="#D3D2D2"/>
<stop offset="1" stop-color="#BDBCBC"/>
</linearGradient>
<linearGradient id="paint27_linear_730_18329" x1="268.948" y1="134.411" x2="268.948" y2="204.55" gradientUnits="userSpaceOnUse">
<stop stop-color="white"/>
<stop offset="0.552" stop-color="white"/>
<stop offset="0.691" stop-color="#EFEEEE"/>
<stop offset="0.8" stop-color="#E9E9E9"/>
<stop offset="1" stop-color="#D3D2D2"/>
</linearGradient>
<linearGradient id="paint28_linear_730_18329" x1="-117945" y1="107.662" x2="-117945" y2="204.958" gradientUnits="userSpaceOnUse">
<stop stop-color="white"/>
<stop offset="0.552" stop-color="white"/>
<stop offset="0.691" stop-color="#EFEEEE"/>
<stop offset="0.8" stop-color="#E9E9E9"/>
<stop offset="1" stop-color="#D3D2D2"/>
</linearGradient>
</defs>
</svg>
