<svg width="480" height="320" viewBox="0 0 480 320" fill="none" xmlns="http://www.w3.org/2000/svg">
<path fill-rule="evenodd" clip-rule="evenodd" d="M113.032 169.198L110.832 179.56C110.73 179.961 110.678 180.373 110.677 180.786C110.677 181.234 110.874 181.633 111.267 181.986C111.659 182.339 112.06 182.514 112.469 182.514L112.213 183.797H97.6768C97.0966 183.797 96.6625 183.619 96.3715 183.265C96.0823 182.916 95.9368 182.44 95.9368 181.846C95.9368 181.622 95.9713 181.325 96.0391 180.955L103 148.355C103.069 147.947 102.932 147.556 102.591 147.185C102.25 146.813 101.875 146.627 101.465 146.627L101.772 145.346H127.772L126.442 151.587C126.272 152.404 125.888 153.055 125.291 153.538C124.694 154.021 124.002 154.262 123.217 154.262H116.154L115.028 159.723H124.446L123.422 164.517C123.251 165.331 122.869 165.975 122.271 166.439C121.674 166.901 120.982 167.135 120.198 167.135H116.257C115.507 167.135 114.824 167.293 114.209 167.607C113.595 167.925 113.203 168.453 113.032 169.198ZM142.514 145.346H152.238C155.242 145.346 157.715 146.192 159.66 147.882C161.605 149.572 162.577 151.959 162.577 155.042C162.577 156.156 162.458 157.234 162.219 158.274L159.148 172.428C158.261 176.626 156.725 179.615 154.541 181.398C152.631 182.997 150.004 183.797 146.66 183.797H136.167C132.96 183.797 130.579 183.007 129.026 181.427C127.474 179.849 126.698 177.518 126.698 174.434C126.698 172.613 126.92 170.719 127.363 168.75L129.616 158.218C130.503 154.169 131.782 151.141 133.454 149.135C135.604 146.609 138.624 145.346 142.514 145.346ZM144.458 156.491L141.182 171.872C141.081 172.393 141.029 172.838 141.029 173.208C141.029 174.138 141.507 174.602 142.463 174.602C143.11 174.602 143.597 174.445 143.921 174.127C144.245 173.812 144.492 173.246 144.662 172.428L148.042 156.77C148.11 156.324 148.144 156.027 148.144 155.877C148.144 154.801 147.649 154.262 146.66 154.262C145.568 154.262 144.834 155.005 144.458 156.491ZM183 148.02L177.779 172.205C177.711 172.578 177.676 172.799 177.676 172.876C177.676 173.69 178.257 174.099 179.416 174.099C180.065 174.099 180.534 173.98 180.824 173.739C181.114 173.498 181.344 172.987 181.516 172.204L186.582 148.355C186.651 147.983 186.514 147.603 186.173 147.213C185.831 146.823 185.474 146.628 185.098 146.628L185.354 145.346H199.583C200.163 145.346 200.582 145.504 200.838 145.82C201.093 146.136 201.221 146.59 201.221 147.185L201.119 148.02L195.949 172.428C195.063 176.666 193.612 179.654 191.599 181.398C189.79 182.962 187.248 183.741 183.973 183.741H172.251C169.146 183.741 166.869 182.989 165.419 181.482C163.968 179.979 163.243 177.759 163.243 174.826C163.243 173.04 163.499 170.998 164.011 168.694L168.361 148.356C168.43 147.983 168.293 147.602 167.951 147.213C167.61 146.823 167.252 146.628 166.878 146.628L167.133 145.346H181.362C181.942 145.346 182.36 145.504 182.616 145.82C182.871 146.136 183 146.59 183 147.185V148.02ZM229.116 168.083L230.908 173.208C231.146 173.655 231.47 174.036 231.88 174.351C232.273 174.661 232.761 174.829 233.262 174.826H234.745L233.517 181.178C233.176 182.922 231.949 183.797 229.832 183.797H222.975C222.086 183.797 221.319 183.545 220.671 183.045C220.022 182.542 219.613 181.919 219.442 181.178L216.474 169.81L214.272 180.675L214.221 181.234C214.221 181.604 214.367 181.913 214.657 182.154C214.947 182.395 215.314 182.514 215.757 182.514L215.501 183.797H201.323C200.743 183.797 200.309 183.619 200.018 183.265C199.728 182.916 199.583 182.44 199.583 181.846C199.583 181.622 199.617 181.325 199.686 180.955L206.647 148.355C206.715 147.947 206.578 147.556 206.237 147.185C205.896 146.813 205.521 146.627 205.11 146.627L205.418 145.346H229.116C234.439 145.346 237.101 148.039 237.101 153.425C237.101 154.169 237.066 154.819 236.998 155.376C236.864 156.117 236.744 156.86 236.64 157.605C235.957 160.949 235.053 163.402 233.927 164.961C232.801 166.519 231.198 167.561 229.116 168.083ZM219.954 153.983L218.47 160.893H220.466C221.626 160.893 222.427 159.835 222.871 157.716C222.94 157.308 223.009 156.909 223.077 156.519C223.144 156.128 223.178 155.803 223.178 155.543C223.178 154.504 222.769 153.983 221.95 153.983L219.954 153.983ZM268.732 145.346H285.931C285.931 148.132 285.572 150.249 284.855 151.699C284.002 153.408 282.637 154.262 280.76 154.262H274.925C273.525 154.262 272.827 154.856 272.827 156.045C272.827 156.714 273.184 157.383 273.901 158.051L279.429 163.234C280.656 164.384 281.604 165.538 282.27 166.688C282.936 167.841 283.268 169.141 283.268 170.589C283.268 171.407 283.182 172.148 283.013 172.82L281.936 177.665C281.494 179.71 280.777 181.196 279.788 182.125C278.594 183.237 276.853 183.797 274.567 183.797H258.802C257.54 183.797 256.55 183.555 255.834 183.073C255.117 182.591 254.759 181.716 254.759 180.454C254.759 179.895 254.827 179.319 254.964 178.724L256.346 172.316H257.369C257.438 172.949 257.685 173.498 258.111 173.959C258.538 174.424 259.041 174.658 259.622 174.658H267.912C268.391 174.658 268.732 174.497 268.936 174.183C269.142 173.868 269.244 173.487 269.244 173.04C269.244 172.41 269.038 171.918 268.629 171.582L262.282 165.723C261.293 164.832 260.585 163.94 260.159 163.048C259.732 162.146 259.519 161.052 259.519 159.751C259.519 158.414 259.783 156.37 260.312 153.639C260.842 150.9 261.704 148.884 262.897 147.575C264.296 146.089 266.242 145.346 268.732 145.346ZM291.304 145.346H312.238C312.785 145.346 313.314 145.226 313.824 144.984C314.336 144.742 314.661 144.399 314.798 143.953H315.974L313.927 152.478C313.586 153.667 312.579 154.262 310.907 154.262H307.888L302.155 180.786C302.087 181.157 302.241 181.538 302.615 181.93C302.99 182.321 303.366 182.514 303.742 182.514L303.384 183.797H289.154C288.063 183.797 287.516 183.202 287.516 182.014C287.516 181.863 287.55 181.566 287.619 181.122L293.402 154.262H289.871C289.324 154.262 288.872 154.401 288.514 154.68C288.158 154.955 287.898 155.335 287.772 155.767H286.493L288.541 146.85C288.676 146.33 288.949 145.949 289.36 145.708C289.768 145.467 290.417 145.346 291.304 145.346ZM341.361 183.797H328.156C327.269 183.797 326.612 183.639 326.186 183.321C325.759 183.007 325.511 182.458 325.443 181.678L324.983 175.993H319.045L316.947 180.563C316.913 180.675 316.897 180.769 316.897 180.843C316.897 180.916 316.88 181.066 316.845 181.29C316.845 181.622 316.99 181.912 317.28 182.154C317.558 182.39 317.913 182.518 318.278 182.514L318.023 183.797H306.914C305.481 183.797 304.766 183.185 304.766 181.958C304.766 181.622 304.85 181.269 305.021 180.899L320.07 149.135C320.171 148.912 320.223 148.633 320.223 148.299C320.223 147.891 320.061 147.51 319.737 147.157C319.412 146.804 319.063 146.628 318.687 146.628L318.994 145.346H334.247C335.032 145.346 335.698 145.578 336.243 146.043C336.788 146.507 337.062 147.167 337.062 148.021L339.418 180.563C339.418 181.048 339.655 181.493 340.134 181.902C340.612 182.311 341.106 182.514 341.618 182.514L341.361 183.797ZM324.574 162.287L322.066 168.527H324.983L324.574 162.287ZM373.454 168.083L375.245 173.208C375.484 173.655 375.808 174.036 376.217 174.351C376.611 174.661 377.098 174.829 377.599 174.826H379.084L377.855 181.178C377.514 182.922 376.285 183.797 374.17 183.797H367.311C366.426 183.797 365.656 183.545 365.008 183.045C364.361 182.542 363.95 181.919 363.781 181.178L360.811 169.81L358.61 180.675L358.559 181.234C358.559 181.604 358.705 181.913 358.994 182.154C359.284 182.395 359.652 182.514 360.094 182.514L359.839 183.797H345.662C345.081 183.797 344.646 183.619 344.356 183.265C344.066 182.916 343.921 182.44 343.921 181.846C343.921 181.622 343.955 181.325 344.024 180.955L350.985 148.355C351.052 147.947 350.916 147.556 350.575 147.185C350.234 146.813 349.859 146.627 349.45 146.627L349.757 145.346H373.454C378.777 145.346 381.439 148.039 381.439 153.425C381.439 154.169 381.406 154.819 381.335 155.376C381.201 156.117 381.082 156.86 380.977 157.605C380.295 160.949 379.392 163.402 378.266 164.961C377.139 166.519 375.536 167.561 373.454 168.083H373.454ZM364.291 153.983L362.807 160.893H364.803C365.964 160.893 366.766 159.835 367.208 157.716C367.276 157.308 367.346 156.909 367.414 156.519C367.483 156.128 367.516 155.803 367.516 155.543C367.516 154.504 367.107 153.983 366.287 153.983L364.291 153.983ZM117.904 219.056H109.637C109.081 219.056 108.67 218.958 108.403 218.759C108.136 218.563 107.981 218.221 107.938 217.731L107.649 214.173H103.932L102.619 217.032C102.6 217.089 102.589 217.147 102.586 217.207C102.586 217.253 102.576 217.347 102.555 217.487C102.555 217.696 102.646 217.875 102.827 218.029C103.008 218.178 103.217 218.256 103.452 218.256L103.291 219.056H96.3376C95.4405 219.056 94.992 218.672 94.992 217.906C94.992 217.696 95.0455 217.476 95.1524 217.242L104.574 197.357C104.637 197.217 104.67 197.043 104.67 196.833C104.67 196.577 104.568 196.34 104.366 196.116C104.162 195.896 103.943 195.787 103.709 195.787L103.901 194.983H113.45C113.941 194.983 114.358 195.131 114.7 195.421C115.041 195.71 115.213 196.123 115.213 196.658L116.686 217.032C116.686 217.336 116.835 217.616 117.136 217.871C117.435 218.126 117.745 218.256 118.064 218.256L117.904 219.056ZM107.393 205.59L105.823 209.498H107.649L107.393 205.59ZM132.292 196.658L127.902 217.172C127.86 217.406 127.955 217.644 128.19 217.889C128.425 218.133 128.661 218.256 128.895 218.256L128.671 219.056H119.762C119.079 219.056 118.738 218.686 118.738 217.941C118.738 217.847 118.758 217.661 118.801 217.382L123.192 196.868C123.234 196.634 123.149 196.396 122.935 196.151C122.721 195.91 122.497 195.787 122.262 195.787L122.422 194.983H131.331C131.694 194.983 131.956 195.081 132.116 195.28C132.276 195.476 132.356 195.763 132.356 196.134L132.292 196.658ZM151.006 209.219L152.127 212.427C152.277 212.707 152.48 212.945 152.737 213.141C152.983 213.337 153.288 213.442 153.602 213.439H154.531L153.763 217.417C153.548 218.511 152.779 219.056 151.455 219.056H147.16C146.605 219.056 146.125 218.899 145.719 218.584C145.313 218.27 145.057 217.881 144.949 217.417L143.091 210.299L141.713 217.102L141.682 217.451C141.682 217.685 141.772 217.875 141.954 218.029C142.135 218.178 142.365 218.256 142.642 218.256L142.483 219.056H133.606C133.243 219.056 132.97 218.945 132.788 218.724C132.607 218.504 132.516 218.206 132.516 217.836C132.521 217.648 132.543 217.461 132.58 217.277L136.939 196.868C136.981 196.613 136.896 196.368 136.682 196.134C136.469 195.902 136.234 195.787 135.977 195.787L136.169 194.983H151.006C154.338 194.983 156.005 196.668 156.005 200.042C156.005 200.507 155.984 200.916 155.942 201.262C155.857 201.727 155.782 202.193 155.717 202.66C155.289 204.751 154.724 206.286 154.018 207.264C153.314 208.24 152.309 208.893 151.006 209.219ZM145.27 200.392L144.342 204.716H145.591C146.317 204.716 146.819 204.055 147.097 202.73C147.14 202.471 147.183 202.224 147.224 201.979C147.263 201.777 147.285 201.572 147.289 201.367C147.289 200.717 147.032 200.392 146.52 200.392L145.27 200.392ZM177.283 213.298H181.417C181.738 213.298 182.074 213.212 182.426 213.04C182.778 212.865 182.987 212.649 183.051 212.393H183.788L182.859 216.788C182.709 217.557 182.421 218.102 181.993 218.427C181.46 218.846 180.638 219.056 179.527 219.056H172.315C170.159 219.056 168.61 218.602 167.669 217.696C166.836 216.882 166.42 215.648 166.42 213.998C166.42 212.928 166.591 211.623 166.933 210.089L168.696 201.682C169.144 199.497 170.009 197.808 171.29 196.623C172.466 195.529 173.812 194.983 175.328 194.983H186.223C186.16 195.403 186.053 195.99 185.903 196.745C185.79 197.336 185.661 197.923 185.518 198.507C185.348 199.228 185.134 199.727 184.877 200.007C184.536 200.381 183.98 200.566 183.211 200.566H179.91C179.141 200.566 178.586 200.762 178.244 201.157C177.903 201.553 177.657 202.146 177.508 202.937L175.745 211.208C175.681 211.463 175.649 211.694 175.649 211.904C175.649 212.833 176.193 213.298 177.283 213.298H177.283ZM207.501 219.056H199.234C198.679 219.056 198.267 218.958 198.001 218.759C197.733 218.563 197.578 218.221 197.535 217.731L197.248 214.173H193.53L192.217 217.032C192.197 217.089 192.186 217.147 192.184 217.207C192.184 217.253 192.174 217.347 192.153 217.487C192.153 217.696 192.244 217.875 192.425 218.029C192.607 218.178 192.814 218.256 193.049 218.256L192.89 219.056H185.935C185.039 219.056 184.59 218.672 184.59 217.906C184.59 217.696 184.643 217.476 184.75 217.242L194.172 197.357C194.235 197.217 194.267 197.043 194.267 196.833C194.267 196.577 194.166 196.34 193.963 196.116C193.76 195.896 193.541 195.787 193.306 195.787L193.499 194.983H203.048C203.539 194.983 203.956 195.131 204.297 195.421C204.639 195.71 204.809 196.123 204.809 196.658L206.284 217.032C206.284 217.336 206.434 217.616 206.733 217.871C207.032 218.126 207.342 218.256 207.661 218.256L207.501 219.056ZM196.991 205.59L195.421 209.498H197.247L196.991 205.59ZM227.594 209.219L228.715 212.427C228.865 212.707 229.068 212.945 229.324 213.141C229.581 213.341 229.868 213.439 230.189 213.439H231.119L230.35 217.417C230.136 218.511 229.367 219.056 228.042 219.056H223.748C223.193 219.056 222.713 218.899 222.307 218.584C221.9 218.27 221.644 217.881 221.537 217.417L219.679 210.299L218.3 217.102L218.269 217.451C218.269 217.685 218.36 217.875 218.541 218.029C218.722 218.178 218.952 218.256 219.23 218.256L219.069 219.056H210.194C209.831 219.056 209.557 218.945 209.376 218.724C209.194 218.504 209.104 218.206 209.104 217.836C209.104 217.696 209.125 217.511 209.167 217.277L213.526 196.868C213.569 196.613 213.483 196.368 213.27 196.134C213.056 195.902 212.822 195.787 212.565 195.787L212.757 194.983H227.594C230.926 194.983 232.593 196.668 232.593 200.042C232.593 200.507 232.572 200.916 232.529 201.262C232.444 201.727 232.37 202.193 232.305 202.66C231.878 204.751 231.311 206.286 230.606 207.264C229.901 208.24 228.896 208.893 227.594 209.219ZM221.857 200.392L220.929 204.716H222.178C222.905 204.716 223.406 204.055 223.684 202.73C223.727 202.471 223.769 202.224 223.813 201.979C223.851 201.777 223.872 201.572 223.876 201.367C223.876 200.717 223.621 200.392 223.108 200.392L221.857 200.392ZM244.354 212.184L245.122 208.624L245.188 208.17C245.188 207.96 245.058 207.859 244.803 207.859C244.546 207.859 244.417 207.74 244.417 207.509L244.481 207.055L245.411 202.902H252.494C253.006 202.902 253.406 203.073 253.694 203.409C253.983 203.747 254.126 204.125 254.126 204.545C254.126 205.08 254.084 205.52 253.999 205.869L252.301 214.067C251.916 215.928 251.33 217.224 250.538 217.959C249.748 218.689 248.423 219.057 246.564 219.057H238.81C236.652 219.057 235.103 218.603 234.164 217.696C233.33 216.882 232.913 215.637 232.913 213.963C232.913 212.893 233.084 211.589 233.426 210.054L235.188 201.647C235.637 199.462 236.503 197.773 237.785 196.588C238.958 195.494 240.304 194.948 241.822 194.948H254.929C254.861 195.665 254.743 196.377 254.576 197.077C254.404 197.798 254.217 198.392 254.014 198.857C253.812 199.322 253.503 199.658 253.085 199.867C252.668 200.077 252.193 200.182 251.66 200.182H246.245C245.645 200.182 245.18 200.339 244.85 200.654C244.519 200.968 244.278 201.482 244.13 202.206L242.047 211.974C242.003 212.299 241.982 212.508 241.982 212.603C241.982 213.184 242.313 213.473 242.976 213.473C243.723 213.473 244.182 213.043 244.354 212.184H244.354ZM266.239 194.983H272.329C274.208 194.983 275.757 195.511 276.975 196.571C278.192 197.63 278.803 199.122 278.803 201.053C278.804 201.734 278.729 202.413 278.577 203.077L276.654 211.939C276.099 214.567 275.138 216.441 273.77 217.557C272.574 218.557 270.929 219.056 268.836 219.056H262.266C260.258 219.056 258.766 218.563 257.795 217.574C256.823 216.585 256.337 215.127 256.337 213.194C256.337 212.054 256.477 210.869 256.755 209.634L258.164 203.042C258.719 200.507 259.521 198.612 260.567 197.357C261.913 195.774 263.804 194.983 266.239 194.983H266.239ZM267.458 201.961L265.408 211.589C265.343 211.917 265.31 212.194 265.31 212.428C265.31 213.009 265.61 213.298 266.208 213.298C266.614 213.298 266.918 213.2 267.12 213.005C267.325 212.806 267.479 212.453 267.586 211.939L269.701 202.136C269.745 201.856 269.765 201.671 269.765 201.577C269.765 200.902 269.454 200.566 268.836 200.566C268.152 200.566 267.692 201.031 267.458 201.961ZM294.796 224.087H92.8633L94.003 224.681L295.937 227.01L294.796 224.087ZM301.063 227.586H385.366L308.182 215.347L293.086 194.948L299.638 220.301L301.063 227.586ZM93.9253 245.174H96.2151L96.9126 243.007H100.777L101.586 245.174H104.012L100.163 234.983H97.7216L93.9253 245.174ZM100.275 241.297H97.5129L98.5871 238.046C98.629 237.92 98.7406 237.448 98.8803 236.638C99.0045 237.378 99.1029 237.832 99.1586 238.004L100.275 241.297ZM109.341 245.174H112.229C113.722 245.174 114.991 245.118 116.191 244.234C117.404 243.335 118.06 241.923 118.06 240.098C118.06 238.304 117.417 236.892 116.218 235.98C115.116 235.137 113.804 234.983 112.062 234.983H109.341V245.174ZM111.476 243.335V236.837H112.661C114.809 236.837 115.87 237.762 115.87 240.084C115.87 242.395 114.838 243.335 112.661 243.335H111.476ZM122.021 245.174V234.983H119.886V245.174H122.021ZM126.82 245.174H128.842L132.552 234.983H130.223L128.255 241.269C128.117 241.695 127.977 242.366 127.852 243.265C127.642 242.168 127.489 241.524 127.433 241.339L125.494 234.983H123.134L126.82 245.174ZM135.803 245.174V234.983H133.669V245.174H135.803ZM137.435 243.878C137.965 244.874 139.067 245.447 140.615 245.447C142.848 245.447 144.144 244.146 144.144 242.307C144.144 241.025 143.335 240.056 141.661 239.273C140.546 238.759 139.652 238.532 139.652 237.591C139.652 236.92 140.197 236.42 141.061 236.42C141.745 236.42 142.247 236.707 142.554 237.305L143.81 236.078C143.14 235.151 142.289 234.738 141.089 234.738C138.928 234.738 137.574 236.008 137.574 237.619C137.574 239.045 138.425 239.787 139.89 240.57C141.257 241.297 142.081 241.482 142.081 242.381C142.081 243.178 141.494 243.72 140.462 243.72C139.638 243.72 138.928 243.265 138.62 242.507L137.435 243.878ZM148.064 245.174V234.983H145.93V245.174H148.064ZM155.234 243.507C153.323 243.507 152.095 241.997 152.095 240.098C152.095 238.218 153.379 236.68 155.234 236.68C157.061 236.68 158.359 238.217 158.359 240.098C158.359 241.997 157.089 243.507 155.234 243.507ZM160.549 240.098C160.549 238.66 160.018 237.333 159.001 236.322C157.996 235.322 156.629 234.753 155.234 234.753C153.84 234.753 152.458 235.322 151.453 236.322C150.436 237.333 149.906 238.647 149.906 240.098C149.906 241.724 150.588 243.192 151.844 244.22C152.806 245.002 154.006 245.447 155.234 245.447C156.629 245.447 157.968 244.887 159 243.877C160.005 242.894 160.549 241.552 160.549 240.098ZM162.349 245.174H164.385V239.357C164.385 238.861 164.385 238.19 164.245 237.333C164.581 238.19 164.888 238.801 165.138 239.13L169.671 245.174H171.764V234.983H169.728V240.685C169.728 241.168 169.728 241.825 169.866 242.692C169.533 241.839 169.226 241.241 168.975 240.913L164.567 234.983H162.349V245.174ZM183.161 243.507C181.25 243.507 180.022 241.997 180.022 240.098C180.022 238.218 181.306 236.68 183.161 236.68C184.988 236.68 186.286 238.217 186.286 240.098C186.286 241.997 185.016 243.507 183.161 243.507ZM188.476 240.098C188.476 238.66 187.946 237.333 186.927 236.322C185.923 235.322 184.556 234.753 183.161 234.753C181.744 234.76 180.386 235.324 179.381 236.322C178.363 237.333 177.833 238.647 177.833 240.098C177.833 241.724 178.516 243.192 179.771 244.22C180.734 245.002 181.933 245.447 183.161 245.447C184.556 245.447 185.895 244.887 186.928 243.877C187.932 242.894 188.476 241.552 188.476 240.098ZM190.276 245.174H192.41V240.769H196.149V238.916H192.41V236.823H196.149V234.983H190.276V245.174ZM202.077 245.174H204.21V240.769H207.949V238.916H204.21V236.823H207.949V234.983H202.077V245.174ZM214.491 243.507C212.58 243.507 211.352 241.997 211.352 240.098C211.352 238.218 212.635 236.68 214.491 236.68C216.318 236.68 217.615 238.217 217.615 240.098C217.615 241.997 216.346 243.507 214.491 243.507ZM219.805 240.098C219.805 238.66 219.276 237.333 218.258 236.322C217.252 235.322 215.886 234.753 214.491 234.753C213.096 234.753 211.715 235.322 210.711 236.322C209.693 237.333 209.163 238.647 209.163 240.098C209.163 241.724 209.846 243.192 211.101 244.22C212.064 245.002 213.264 245.447 214.491 245.447C215.886 245.447 217.226 244.887 218.257 243.877C219.262 242.894 219.805 241.552 219.805 240.098ZM230.184 234.983H228.064V240.982C228.064 242.65 227.311 243.521 225.86 243.521C224.423 243.521 223.684 242.678 223.684 240.982V234.983H221.564V241.325C221.564 244.091 222.973 245.447 225.888 245.447C228.776 245.447 230.184 244.077 230.184 241.325V234.983ZM234.522 239.329V236.651H234.843C236.196 236.651 236.964 236.85 236.964 238.032C236.964 239.217 236.168 239.329 234.843 239.329H234.522ZM239.6 245.174L236.852 240.542C238.149 240.371 239.07 239.287 239.07 237.875C239.07 235.952 237.87 234.983 235.442 234.983H232.388V245.174H234.522V240.413L237.145 245.174H239.6ZM244.483 243.878C245.012 244.874 246.114 245.447 247.663 245.447C249.894 245.447 251.192 244.146 251.192 242.307C251.192 241.025 250.383 240.056 248.708 239.273C247.593 238.759 246.699 238.532 246.699 237.591C246.699 236.92 247.243 236.42 248.108 236.42C248.793 236.42 249.295 236.707 249.601 237.305L250.858 236.078C250.187 235.151 249.337 234.738 248.136 234.738C245.976 234.738 244.621 236.008 244.621 237.619C244.621 239.045 245.472 239.787 246.937 240.57C248.304 241.297 249.128 241.482 249.128 242.381C249.128 243.178 248.541 243.72 247.509 243.72C246.685 243.72 245.976 243.265 245.669 242.507L244.483 243.878ZM259.115 234.983H252.085V236.837H254.527V245.174H256.659V236.837H259.115V234.983ZM258.528 245.174H260.818L261.515 243.007H265.378L266.187 245.174H268.615L264.764 234.983H262.324L258.528 245.174ZM264.876 241.297H262.114L263.188 238.046C263.23 237.92 263.342 237.448 263.482 236.638C263.608 237.378 263.705 237.832 263.761 238.004L264.876 241.297ZM271.795 239.329V236.651H272.117C273.469 236.651 274.236 236.85 274.236 238.032C274.236 239.217 273.441 239.329 272.117 239.329H271.795ZM276.872 245.174L274.125 240.542C275.422 240.371 276.343 239.287 276.343 237.875C276.343 235.952 275.142 234.983 272.716 234.983H269.66V245.174H271.795V240.413L274.419 245.174H276.872ZM281.207 245.174H283.499L284.196 243.007H288.059L288.868 245.174H291.297L287.446 234.983H285.004L281.207 245.174ZM287.558 241.297H284.795L285.87 238.046C285.911 237.92 286.023 237.448 286.163 236.638C286.289 237.378 286.385 237.832 286.441 238.004L287.558 241.297ZM294.602 245.174H296.624L300.335 234.983H298.005L296.039 241.269C295.899 241.695 295.759 242.366 295.633 243.265C295.425 242.168 295.271 241.524 295.215 241.339L293.276 234.983H290.917L294.602 245.174ZM303.584 245.174V234.983H301.451V245.174H303.584ZM304.67 245.174H306.96L307.659 243.007H311.522L312.331 245.174H314.759L310.909 234.983H308.466L304.67 245.174ZM311.02 241.297H308.259L309.332 238.046C309.374 237.92 309.486 237.448 309.625 236.638C309.751 237.378 309.847 237.832 309.903 238.004L311.02 241.297ZM321.202 234.983H314.172V236.837H316.614V245.174H318.748V236.837H321.202V234.983ZM324.761 245.174V234.983H322.625V245.174H324.761ZM331.93 243.507C330.019 243.507 328.792 241.997 328.792 240.098C328.792 238.218 330.075 236.68 331.929 236.68C333.757 236.68 335.055 238.217 335.055 240.098C335.055 241.997 333.786 243.507 331.929 243.507H331.93ZM337.244 240.098C337.244 238.66 336.715 237.333 335.696 236.322C334.693 235.322 333.326 234.753 331.929 234.753C330.513 234.76 329.155 235.324 328.15 236.322C327.131 237.333 326.602 238.647 326.602 240.098C326.602 241.724 327.285 243.192 328.54 244.22C329.503 245.002 330.702 245.447 331.929 245.447C333.326 245.447 334.665 244.887 335.696 243.877C336.701 242.894 337.244 241.552 337.244 240.098ZM339.045 245.174H341.081V239.357C341.081 238.861 341.081 238.19 340.942 237.333C341.275 238.19 341.583 238.801 341.835 239.13L346.368 245.174H348.46V234.983H346.423V240.685C346.423 241.168 346.423 241.825 346.563 242.692C346.229 241.839 345.921 241.241 345.67 240.913L341.262 234.983H339.045V245.174ZM350.901 247.485L353.007 243.122H350.916L349.604 247.485H350.901ZM361.03 245.174V234.983H358.895V245.174H361.03ZM363.303 245.174H365.34V239.357C365.34 238.861 365.34 238.19 365.2 237.333C365.535 238.19 365.841 238.801 366.093 239.13L370.625 245.174H372.72V234.983H370.681V240.685C370.681 241.168 370.681 241.825 370.821 242.692C370.488 241.839 370.18 241.241 369.927 240.913L365.521 234.983H363.303V245.174ZM382.971 237.633L383.04 235.452C382.092 234.978 381.045 234.733 379.985 234.739C376.666 234.739 374.504 237.077 374.504 240.084C374.504 243.15 376.723 245.447 379.944 245.447C381.047 245.447 382.036 245.174 382.943 244.633L382.957 242.395C382.108 243.192 381.117 243.576 379.971 243.576C377.907 243.576 376.694 242.195 376.694 240.084C376.694 237.903 378.047 236.494 380.181 236.494C381.368 236.494 382.232 236.962 382.971 237.633V237.633ZM384.799 244.192C384.799 244.831 385.315 245.377 385.971 245.377C386.626 245.377 387.142 244.845 387.142 244.192C387.142 243.521 386.612 242.993 385.971 242.993C385.329 242.993 384.799 243.521 384.799 244.192Z" fill="#13007C"/>
<path d="M132.045 93.6676L148.651 71.9375L149.663 93.6676M149.663 93.6676H174.575L150.251 107.646L151.081 137.954L132.178 117.949L98.2266 137.54L121.585 106.792L109.161 93.6676H132.045M202.109 93.6676L218.716 71.9375L219.728 93.6676M219.728 93.6676H244.639L220.314 107.646L221.145 137.954L202.241 117.949L168.289 137.54L191.648 106.792L179.225 93.6676H202.109M272.173 93.6676L288.778 71.9375L289.792 93.6676M289.792 93.6676H314.702L290.377 107.646L291.21 137.954L272.304 117.949L238.353 137.54L261.711 106.792L249.288 93.6676H272.173M342.236 93.6676L358.842 71.9375L359.855 93.6676M359.855 93.6676H384.767L360.441 107.646L361.272 137.954L342.368 117.949L308.416 137.54L331.776 106.792L319.351 93.6676H342.236" stroke="#13007C" stroke-width="1.75094" stroke-miterlimit="2.613"/>
</svg>
