<svg width="480" height="320" viewBox="0 0 480 320" fill="none" xmlns="http://www.w3.org/2000/svg">
<path d="M363.801 154.289C356.391 150.418 350.241 150.125 347.363 150.125H337.355L336.82 149.183H348.585C349.4 149.183 359.154 149.043 364.896 150.584C372.078 152.506 377.043 156.275 378.011 156.912C378.979 157.536 392.081 166.92 392.081 166.92C392.081 166.92 389.878 169.174 387.726 169.174C385.689 169.174 383.486 167.607 383.486 167.607C383.486 167.607 376.47 162.553 375.401 161.801C374.331 161.05 368.793 156.925 363.789 154.302L363.801 154.289Z" fill="#358E9D"/>
<path d="M363.265 161.687C368.218 164.972 371.134 167.379 372.089 168.066C373.031 168.754 377.437 171.899 377.437 171.899C377.437 171.899 379.461 173.478 381.944 173.478C383.829 173.478 386.146 171.288 386.146 171.288C386.146 171.288 375.629 163.865 374.674 163.202C373.719 162.528 370.345 159.866 364.055 158.211C358.796 156.823 351.322 156.861 350.825 156.861H341.25L341.81 157.829C341.81 157.829 349.03 157.842 349.577 157.842C350.736 157.842 358.045 158.198 363.265 161.662V161.687Z" fill="#358E9D"/>
<path d="M364.883 146.534C371.262 149.959 377.578 154.696 378.749 155.549C379.933 156.402 389.521 163.265 389.521 163.265C389.521 163.265 391.762 164.78 393.812 164.78C395.811 164.78 398.078 162.565 398.078 162.565C398.078 162.565 382.773 151.551 381.398 150.583C380.022 149.615 374.509 145.095 365.66 142.994C358.733 141.237 347.172 141.441 346.369 141.441H332.363L332.924 142.409H345.147C347.681 142.409 357.447 142.536 364.87 146.534H364.883Z" fill="#358E9D"/>
<path d="M420.346 146.383C418.461 146.052 415.979 145.899 415.979 145.899L412.592 146.867L410.656 145.25C410.656 145.25 414.693 145.568 415.813 145.733C416.781 145.733 416.462 145.25 415.966 144.269C415.482 143.301 414.362 143.301 414.362 143.301H404.188C404.188 143.301 402.367 143.314 400.279 142.83C398.178 142.346 397.35 140.768 397.35 140.768C396.536 142.639 399.77 144.817 399.77 144.817L409.841 152.036C411.14 152.851 412.261 152.202 412.261 152.202C412.261 152.202 414.845 150.903 416.297 150.585C417.596 150.266 421.619 150.101 422.103 150.266C423.236 150.432 424.522 151.565 424.522 151.565C425.172 147.032 422.256 146.739 420.333 146.383H420.346Z" fill="#202D5C"/>
<path d="M366.867 131.421C373.883 134.502 383.917 142.002 385.381 143.072C386.858 144.141 401.31 154.493 401.31 154.493C401.31 154.493 403.576 156.11 405.677 156.11C407.778 156.11 409.853 153.996 409.853 153.996C409.853 153.996 389.43 139.315 387.953 138.259C386.476 137.202 379.702 131.497 367.109 128.174C358.489 125.895 343.668 125.997 341.949 125.997H323.461L324.034 126.977H340.981C345.26 126.977 357.598 127.334 366.88 131.421H366.867Z" fill="#202D5C"/>
<path d="M365.798 138.96C358.222 135.165 348.876 134.694 343.439 134.694H328.478L327.918 133.726H344.178C345.935 133.726 358.248 133.599 366.397 135.445C375.794 137.585 383.879 143.747 384.719 144.333C385.521 144.893 404.073 158.199 404.073 158.199C404.073 158.199 401.96 160.376 399.68 160.376C397.592 160.376 395.326 158.759 395.326 158.759C395.326 158.759 383.255 150.101 382.084 149.273C380.925 148.446 372.852 142.474 365.798 138.947V138.96Z" fill="#202D5C"/>
<path d="M94.2576 181.959C94.2576 181.959 93.1244 181.704 91.7493 181.704C88.6934 181.704 86.4269 183.054 85.803 185.091C85.663 185.473 85.6248 186.326 85.6248 186.759C85.6248 189.344 87.4328 190.795 89.6484 190.795C90.0685 190.795 90.7688 190.693 91.3673 190.464C92.9589 189.878 94.2576 188.809 94.2576 187.179V181.959ZM96.3586 193.52C96.1548 193.52 95.2635 193.571 94.8943 193.151C94.5378 192.82 94.5378 192.323 94.5378 191.916V190.617C93.2008 192.59 90.9471 193.927 87.5602 193.851C82.2378 193.698 81.0664 189.522 81.0664 187.217C81.0664 186.402 81.1428 184.849 82.3524 183.194C84.2369 180.545 88.1459 179.679 91.6347 179.679C93.1244 179.679 94.2576 179.896 94.2576 179.896V177.566C94.2576 176.738 94.2576 175.325 93.43 174.332C92.717 173.504 91.4055 172.88 89.0754 172.88C85.4465 172.88 83.0655 174.93 83.0655 174.93L83.4984 172.18C83.4984 172.18 85.9558 170.512 89.903 170.512C93.2008 170.512 95.48 171.416 96.817 172.765C98.3576 174.37 98.7396 175.847 98.7396 178.801V193.52H96.3586Z" fill="#474343"/>
<path d="M111.027 173.593C107.207 174.318 106.787 177.336 106.787 179.462V193.519H102.305V173.427C102.305 171.492 101.031 171.084 101.031 171.084H105.462C106.443 171.084 106.787 171.632 106.787 172.243V173.465C106.927 173.058 108.531 170.919 111.498 170.817C112.465 170.779 113.573 170.868 114.172 171.224L114.757 174.051C114.095 173.682 112.847 173.236 111.014 173.58L111.027 173.593Z" fill="#474343"/>
<path d="M132.534 193.519C132.382 193.519 131.452 193.569 131.032 193.149C130.701 192.818 130.701 192.207 130.701 191.914V190.615C129.491 192.589 127.314 193.837 124.322 193.837C121.979 193.837 120.387 193.302 118.999 191.8C117.535 190.17 117.166 188.145 117.166 185.408V173.095C117.166 171.503 115.791 171.083 115.829 171.096H120.005C121.037 171.096 121.661 171.618 121.661 172.395V185.917C121.661 189.915 122.845 191.048 125.646 191.048C127.951 191.048 130.459 189.495 130.459 187.114V171.109H134.903V193.531H132.547L132.534 193.519Z" fill="#474343"/>
<path d="M193.893 193.52C192.963 193.52 192.403 193.125 192.403 191.992V165.533C192.403 163.865 191.117 163.229 191.117 163.229H195.446C196.732 163.229 197.305 163.852 197.305 164.782V193.533H193.867L193.893 193.52Z" fill="#474343"/>
<path d="M254.959 172.956C250.439 172.905 249.65 177.566 249.65 182.531C249.65 188.707 251.203 191.661 254.959 191.661C258.27 191.661 259.823 187.841 259.823 182.531C259.823 178.202 259.416 173.007 254.959 172.956ZM254.87 193.851C247.536 193.813 244.9 189.267 244.9 182.43C244.9 176.19 247.536 170.575 254.87 170.613C262.293 170.664 264.56 176.267 264.56 182.43C264.56 188.732 260.995 193.902 254.87 193.851Z" fill="#474343"/>
<path d="M321.871 191.889C320.279 193.239 318.178 193.901 315.836 193.927H315.594C312.079 193.927 310.157 192.984 309.316 192.501L308.68 189.839C308.68 189.839 311.748 191.851 314.944 191.851C318.026 191.851 319.783 190.196 319.579 187.458C319.261 183.091 309.151 184.135 309.151 176.903C309.151 172.93 312.385 170.842 316.358 170.791H316.612C320.712 170.791 322.227 172.23 322.227 172.23L322.851 174.713C322.851 174.713 321.094 172.981 317.58 172.981C313.798 172.981 313.429 176.011 313.505 176.852C313.747 179.029 315.403 179.551 318.369 180.85C321.463 182.174 323.908 183.88 323.908 187.165C323.908 189.254 323.106 190.858 321.896 191.889H321.871Z" fill="#474343"/>
<path d="M327.932 193.518C327.104 193.518 326.658 193.085 326.658 192.347V173.107C326.658 171.63 325.258 171.096 325.258 171.096H329.829C330.746 171.096 331.102 171.58 331.102 172.433V193.518H327.932Z" fill="#474343"/>
<path d="M204.945 171.097C205.798 171.097 206.231 171.504 206.231 172.255V174.013C207.453 172.026 209.631 170.766 212.61 170.766C214.953 170.766 216.544 171.3 217.932 172.816C219.397 174.458 219.766 176.47 219.766 179.22V193.532H217.092C215.946 193.532 215.284 192.755 215.284 191.686V178.736C215.284 174.738 214.087 173.605 211.311 173.605C209.007 173.605 206.485 175.158 206.485 177.552V193.545H202.042V173.058C202.042 171.479 200.807 171.122 200.807 171.122H204.958L204.945 171.097Z" fill="#474343"/>
<path d="M347.21 181.959C347.21 181.959 346.077 181.704 344.689 181.704C341.633 181.704 339.366 183.054 338.742 185.091C338.602 185.473 338.577 186.326 338.577 186.759C338.577 189.344 340.372 190.795 342.6 190.795C343.021 190.795 343.734 190.693 344.319 190.464C345.911 189.878 347.21 188.809 347.21 187.179V181.959ZM349.311 193.52C349.094 193.52 348.228 193.571 347.834 193.151C347.515 192.82 347.515 192.323 347.515 191.916V190.617C346.166 192.59 343.899 193.927 340.512 193.851C335.19 193.698 334.031 189.522 334.031 187.217C334.031 186.402 334.095 184.849 335.33 183.194C337.202 180.545 341.111 179.679 344.587 179.679C346.102 179.679 347.235 179.896 347.235 179.896V177.566C347.235 176.738 347.363 175.427 346.433 174.319C345.758 173.466 344.332 172.855 341.913 172.88C337.762 172.956 336.043 174.93 336.043 174.93L336.489 172.18C336.489 172.18 338.933 170.512 342.881 170.512C346.178 170.512 348.445 171.416 349.782 172.765C351.335 174.37 351.704 175.847 351.704 178.801V193.52H349.323H349.311Z" fill="#474343"/>
<path d="M152.232 178.646C152.232 177.373 152.066 175.514 151.047 174.445C150.334 173.693 149.214 173.171 147.61 173.171C143.255 173.171 142.758 178.965 142.758 182.084V182.415C142.797 186.834 144.057 191.214 147.699 191.214C149.672 191.214 151.047 190.45 152.232 188.96V178.634V178.646ZM153.619 193.518C152.741 193.518 152.435 193.226 152.435 192.411V191.303C150.755 192.805 149.125 193.799 146.667 193.837H146.578C140.174 193.837 137.945 188.425 137.945 182.415C137.945 177.908 139.677 170.599 146.795 170.599C151.06 170.599 152.244 173.171 152.244 173.171V165.532C152.244 163.927 150.92 163.1 150.92 163.1H154.396C155.733 163.1 156.726 164.029 156.726 165.035V193.518H153.632H153.619Z" fill="#474343"/>
<path d="M173.165 181.959C173.165 181.959 172.044 181.704 170.657 181.704C167.601 181.704 165.334 183.054 164.71 185.091C164.583 185.473 164.532 186.326 164.532 186.759C164.532 189.344 166.327 190.795 168.556 190.795C168.976 190.795 169.689 190.693 170.275 190.464C171.866 189.878 173.165 188.809 173.165 187.179V181.959ZM175.253 193.52C175.049 193.52 174.158 193.571 173.789 193.151C173.445 192.82 173.445 192.323 173.445 191.916V190.617C172.108 192.59 169.854 193.927 166.455 193.851C161.145 193.698 159.961 189.522 159.961 187.217C159.961 186.402 160.037 184.849 161.26 183.194C163.144 180.545 167.04 179.679 170.529 179.679C172.044 179.679 173.165 179.896 173.165 179.896V177.566C173.165 176.738 173.165 175.325 172.337 174.332C171.637 173.504 170.313 172.88 167.995 172.88C164.367 172.88 161.973 174.93 161.973 174.93L162.418 172.18C162.418 172.18 164.876 170.512 168.81 170.512C172.121 170.512 174.387 171.416 175.724 172.765C177.265 174.37 177.647 175.847 177.647 178.801V193.52H175.253Z" fill="#474343"/>
<path d="M237.298 178.646C237.298 177.373 237.132 175.514 236.127 174.445C235.426 173.693 234.293 173.171 232.689 173.171C228.334 173.171 227.825 178.965 227.825 182.084V182.415C227.876 186.834 229.123 191.214 232.778 191.214C234.764 191.214 236.114 190.45 237.298 188.96V178.634V178.646ZM238.699 193.518C237.82 193.518 237.502 193.226 237.502 192.411V191.303C235.834 192.805 234.191 193.799 231.721 193.837H231.606C225.24 193.837 223.012 188.425 223.012 182.415C223.012 177.908 224.731 170.599 231.848 170.599C236.114 170.599 237.285 173.171 237.285 173.171V165.532C237.285 163.927 235.974 163.1 235.974 163.1H239.463C240.8 163.1 241.78 164.029 241.78 165.035V193.518H238.699Z" fill="#474343"/>
<path d="M270.621 171.097C271.486 171.097 271.919 171.504 271.919 172.255V174.013C273.129 172.026 275.306 170.766 278.299 170.766C280.641 170.766 282.22 171.3 283.608 172.816C285.072 174.458 285.454 176.47 285.454 179.22V193.532H282.768C281.635 193.532 280.972 192.755 280.972 191.686V178.736C280.972 174.738 279.776 173.605 276.987 173.605C274.682 173.605 272.174 175.158 272.174 177.552V193.545H267.718V173.058C267.718 171.479 266.482 171.122 266.482 171.122H270.608L270.621 171.097Z" fill="#474343"/>
<path d="M73.8983 193.672C72.0903 193.914 71.008 194.003 69.2508 194.003C64.6416 194.003 61.713 192.615 59.4847 190.438C56.2251 187.204 55.3848 181.83 55.3848 178.469C55.3848 175.757 55.8431 170.434 60.1978 166.335C62.2096 164.45 65.3419 162.846 70.0403 162.846C74.2294 162.846 76.2412 164.043 76.2412 164.043L77.0179 166.818C76.8524 166.742 74.6878 165.494 71.0844 165.494C63.6866 165.494 60.5798 170.575 60.5798 178.482C60.5798 190.438 66.3987 191.38 69.6965 191.38C72.0393 191.38 72.9816 191.011 72.9816 191.011V179.131H70.4095C68.6779 179.131 67.9394 179.398 67.9394 179.398L68.3086 176.992H77.8073V192.819C76.2539 193.226 75.4263 193.468 73.8729 193.672H73.8983Z" fill="#474343"/>
<path d="M293.272 182.314C293.272 182.314 294.405 182.556 295.793 182.556C300.772 182.556 301.905 180.111 302.134 177.285C302.325 174.763 301.65 172.255 297.754 172.739C294.214 173.185 293.272 175.489 293.272 178.367C293.272 180.748 293.285 182.314 293.285 182.314M299.982 170.523C305.292 170.905 306.476 174.865 306.476 177.157C306.476 177.985 306.4 179.538 305.177 181.181C303.293 183.842 299.396 184.695 295.92 184.695C294.405 184.695 293.285 184.491 293.285 184.491V186.567C293.285 190.489 295.373 191.545 298.823 191.494C302.682 191.444 305.737 189.062 305.737 189.062L305.305 191.813C305.305 191.813 301.803 193.85 297.856 193.85C294.545 193.85 292.05 192.971 290.725 191.596C289.083 189.89 288.803 187.598 288.803 184.644V179.742C288.803 175.566 290.522 169.849 299.982 170.523Z" fill="#474343"/>
</svg>
