<svg width="480" height="320" viewBox="0 0 480 320" fill="none" xmlns="http://www.w3.org/2000/svg">
<path fill-rule="evenodd" clip-rule="evenodd" d="M158.188 136.478C167.316 130.598 178.931 129.862 190.548 132.068C202.166 135.01 212.122 141.623 223.74 144.562C237.847 148.97 251.954 147.501 266.055 146.031C279.331 144.562 292.61 138.682 305.057 134.27L313.897 131.421C301.449 135.833 288.173 141.713 274.898 143.182C260.79 144.653 246.684 146.121 232.582 141.713C220.963 138.772 211.004 132.157 199.39 129.215C187.773 127.014 176.155 127.749 167.03 133.627L158.188 136.478Z" fill="#ED1639"/>
<path d="M158.189 136.524C167.318 130.644 178.933 129.91 190.551 132.115C202.169 135.056 212.125 141.67 223.743 144.609C237.85 149.015 251.957 147.548 266.06 146.076C279.336 144.609 292.616 138.729 305.06 134.319L313.902 131.47C301.454 135.881 288.178 141.758 274.902 143.228C260.795 144.699 246.688 146.167 232.585 141.758C220.967 138.819 211.007 132.204 199.393 129.265C187.775 127.062 176.157 127.797 167.032 133.675L158.189 136.524Z" stroke="#ED1639" stroke-width="2.04303" stroke-miterlimit="2.6131"/>
<path fill-rule="evenodd" clip-rule="evenodd" d="M141.543 119.477C153.491 112.837 168.703 112.009 183.913 114.498C199.125 117.82 212.16 125.288 227.369 128.608C245.841 133.587 264.309 131.927 282.78 130.266C300.163 128.608 317.546 121.969 333.845 116.988L345.419 113.771C329.124 118.748 311.742 125.39 294.354 127.052C275.887 128.707 257.416 130.369 238.948 125.39C223.738 122.068 210.698 114.599 195.488 111.281C180.278 108.788 165.068 109.62 153.118 116.261L141.543 119.477Z" fill="#ED1639"/>
<path d="M141.543 119.527C153.491 112.888 168.704 112.06 183.914 114.549C199.125 117.87 212.161 125.335 227.371 128.657C245.843 133.635 264.312 131.974 282.783 130.313C300.165 128.657 317.549 122.018 333.847 117.038L345.421 113.821C329.126 118.799 311.742 125.436 294.356 127.099C275.889 128.753 257.418 130.414 238.95 125.436C223.739 122.117 210.699 114.65 195.489 111.332C180.278 108.841 165.069 109.671 153.118 116.31L141.543 119.527Z" stroke="#ED1639" stroke-width="2.04303" stroke-miterlimit="2.6131"/>
<path fill-rule="evenodd" clip-rule="evenodd" d="M173.277 106.478C182.959 99.8387 195.281 99.0067 207.598 101.496C219.92 104.818 230.481 112.284 242.799 115.608C257.761 120.585 272.721 118.923 287.68 117.268C301.763 115.608 309.066 111.976 322.265 106.996L329.477 103.977C316.28 108.959 311.137 112.387 297.057 114.047C282.098 115.707 267.137 117.365 252.175 112.387C239.857 109.07 229.296 101.597 216.976 98.2796C204.655 95.7902 192.333 96.618 182.657 103.256L173.277 106.478Z" fill="#ED1639"/>
<path d="M173.279 106.529C182.961 99.8903 195.283 99.0599 207.6 101.547C219.922 104.868 230.483 112.336 242.802 115.657C257.766 120.635 272.725 118.972 287.685 117.318C301.766 115.657 309.07 112.026 322.27 107.048L329.483 104.03C316.283 109.01 311.142 112.436 297.062 114.097C282.101 115.758 267.141 117.414 252.178 112.436C239.859 109.121 229.298 101.65 216.979 98.3325C204.658 95.8435 192.335 96.6718 182.659 103.309L173.279 106.529Z" stroke="#ED1639" stroke-width="2.04303" stroke-miterlimit="2.6131"/>
<path fill-rule="evenodd" clip-rule="evenodd" d="M201.447 94.5446C208.852 88.5696 218.276 87.821 227.701 90.0632C237.127 93.051 245.204 99.7734 254.631 102.761C266.075 107.24 277.518 105.747 288.966 104.255C299.737 102.761 300.58 101.019 310.676 96.5384L313.252 95.532C303.155 100.013 306.906 99.8639 296.138 101.357C284.69 102.852 273.247 104.345 261.806 99.8639C252.378 96.8767 244.301 90.1537 234.875 87.1617C225.449 84.9243 216.027 85.6699 208.62 91.6473L201.447 94.5446Z" fill="#ED1639"/>
<path d="M201.451 94.5963C208.856 88.6238 218.28 87.8755 227.706 90.1164C237.132 93.1037 245.208 99.8245 254.635 102.812C266.078 107.292 277.521 105.799 288.97 104.307C299.742 102.812 300.583 101.071 310.683 96.5913L313.259 95.5843C303.161 100.064 306.911 99.9149 296.144 101.41C284.696 102.902 273.251 104.397 261.808 99.9149C252.382 96.9277 244.305 90.2068 234.878 87.2175C225.453 84.9786 216.031 85.7249 208.624 91.7015L201.451 94.5963Z" stroke="#ED1639" stroke-width="2.04303" stroke-miterlimit="2.6131"/>
<path fill-rule="evenodd" clip-rule="evenodd" d="M186.391 153.305C192.05 150.045 199.255 149.64 206.462 150.86C213.668 152.488 219.846 156.156 227.053 157.786C235.8 160.228 244.551 159.415 253.301 158.6C261.536 157.786 270.471 156.068 278.192 153.622C278.192 153.622 267.017 156.205 258.786 157.02C250.033 157.833 241.286 158.65 232.534 156.205C225.328 154.572 219.153 150.91 211.947 149.278C204.741 148.06 197.536 148.465 191.871 151.726L186.391 153.306" fill="#ED1639"/>
<path d="M186.395 153.349C192.054 150.089 199.26 149.683 206.466 150.904C213.672 152.531 219.851 156.2 227.058 157.829C235.804 160.272 244.556 159.456 253.305 158.643C261.54 157.829 270.476 156.112 278.197 153.667C278.197 153.667 267.023 156.248 258.79 157.064C250.038 157.875 241.291 158.693 232.539 156.248C225.333 154.617 219.158 150.955 211.952 149.323C204.746 148.104 197.54 148.51 191.876 151.768L186.395 153.349Z" stroke="#ED1639" stroke-width="2.04303" stroke-miterlimit="2.6131"/>
<path fill-rule="evenodd" clip-rule="evenodd" d="M201.524 166.922C205.156 164.027 209.781 163.664 214.404 164.75C219.03 166.199 222.992 169.46 227.619 170.905C233.231 173.078 238.847 172.355 244.461 171.632C245.44 171.498 251.242 169.874 251.754 169.739C252.622 169.508 259.935 166.538 260.251 166.384C260.889 166.075 250.13 169.933 247.981 170.225C242.367 170.953 236.75 171.676 231.133 169.502C226.512 168.052 222.551 164.798 217.924 163.346C213.301 162.26 208.675 162.623 205.043 165.52L201.523 166.922" fill="#ED1639"/>
<path d="M201.527 166.965C205.159 164.07 209.785 163.706 214.408 164.793C219.034 166.241 222.996 169.502 227.622 170.948C233.235 173.12 238.851 172.397 244.465 171.674C245.444 171.539 251.247 169.916 251.759 169.782C252.626 169.55 259.94 166.58 260.254 166.426C260.895 166.117 250.136 169.973 247.984 170.267C242.371 170.995 236.754 171.718 231.137 169.544C226.515 168.096 222.554 164.841 217.928 163.389C213.304 162.304 208.678 162.668 205.046 165.562L201.527 166.965Z" stroke="#ED1639" stroke-width="2.04303" stroke-miterlimit="2.6131"/>
<path fill-rule="evenodd" clip-rule="evenodd" d="M228.965 82.6116C232.601 79.429 237.223 79.03 241.849 80.2235C246.471 81.8154 250.433 85.4017 255.059 86.9947C260.673 89.3852 266.289 88.5889 271.903 87.7927C272.882 87.6456 274.1 87.1478 274.612 86.9983C275.482 86.7398 276.789 86.1437 277.104 85.9775C277.743 85.6351 277.577 85.918 275.422 86.2443C269.808 87.0447 264.192 87.841 258.578 85.4481C253.952 83.858 249.99 80.2711 245.368 78.6787C240.743 77.4834 236.121 77.8807 232.485 81.0674L228.965 82.6116" fill="#ED1639"/>
<path d="M228.969 82.6679C232.604 79.4851 237.226 79.0857 241.853 80.2797C246.475 81.8711 250.439 85.4575 255.063 87.0489C260.677 89.4413 266.292 88.6445 271.906 87.8499C272.886 87.7006 274.104 87.2024 274.616 87.0531C275.487 86.7946 276.793 86.1996 277.11 86.0315C277.748 85.6909 277.58 85.9768 275.424 86.3005C269.813 87.1015 264.197 87.8961 258.584 85.5038C253.957 83.9145 249.994 80.3281 245.373 78.7367C240.746 77.5405 236.124 77.9379 232.489 81.1249L228.969 82.6679Z" stroke="#ED1639" stroke-width="2.04303" stroke-miterlimit="2.6131"/>
<path fill-rule="evenodd" clip-rule="evenodd" d="M75.0719 242.345C61.4044 242.345 55.3848 234.343 55.3848 217.248C55.3848 200.528 61.0673 193.512 75.2101 193.512C79.3091 193.512 83.0723 194.11 86.7515 195.444V203.221H85.8046C85.6021 198.562 81.5662 195.642 74.8146 195.642C65.0259 195.642 62.0142 202.672 62.0142 217.629C62.0142 232.722 66.601 239.993 76.6608 239.993C82.4809 239.993 84.7416 238.297 84.7416 233.267V218.041H77.2099V215.573H90.3045V239.523C84.604 241.378 79.5384 242.345 75.0719 242.345ZM110.861 211.172V196.697H116.104C123.528 196.697 127.203 199.892 127.203 206.281C127.203 212.6 123.934 215.453 116.787 215.453C112.359 215.453 110.861 215.046 110.861 211.172ZM125.502 216.972V216.005C131.125 214.028 133.831 210.63 133.831 205.466C133.831 197.991 128.556 194.35 117.806 194.35H97.7016V195.316C101.929 195.662 103.837 198.264 104.247 203.561V237.654C104.384 240.252 105.541 241.633 107.45 241.633H116.851C130.095 241.633 136.317 237.992 136.317 229.291C136.22 222.288 132.751 218.415 125.502 216.972H125.502ZM117.777 239.285H110.861V221.271C110.861 218.415 113.122 217.805 118.118 217.805C125.854 217.805 129.689 221.406 129.689 228.815C129.689 235.68 125.58 239.285 117.777 239.285ZM181.961 219.952C182.236 220.7 182.371 221.173 182.371 221.515C182.371 223.481 181.278 224.225 178.757 224.225H166.62L175.075 200.618L181.961 219.952ZM195.872 241.632L178.894 193.522C175.415 194.007 173.713 195.734 172.484 199.129L157.827 240.234C157.757 240.445 157.757 240.583 157.757 240.794C157.746 241.644 158.358 242.345 159.247 242.345C159.931 242.345 160.543 241.855 160.746 241.226L164.429 230.545C165.314 227.878 167.292 226.577 170.223 226.577H184.364L189.666 241.632H195.872ZM211.168 241.632H209.256C206.665 241.632 205.029 240.165 204.555 237.377V204.118C204.075 198.54 202.03 195.749 197.667 195.331V194.35H211.168V241.632ZM232.96 209.875V196.707H237.539C245.539 196.707 249.78 200.171 249.78 206.484C249.78 213.337 245.879 216.867 238.225 216.867C233.232 216.867 232.96 215.235 232.96 209.875ZM256.902 237.976L246.359 217.957C252.352 216.525 255.675 212.455 255.675 207.094C255.675 199.289 251.203 194.34 236.378 194.34H219.835V195.286H220.311C225.086 195.286 226.45 196.982 226.45 202.073V237.363C226.922 240.026 228.684 241.633 230.924 241.633H232.96V224.244C233.097 220.279 234.328 219.121 238.496 219.121C238.975 219.121 239.523 219.185 240.07 219.185L251.54 240.724C252.015 241.644 253.101 242.345 254.114 242.345C255.811 242.345 257.244 241.016 257.244 239.238C257.244 238.798 257.105 238.388 256.901 237.976M309.189 238.918C308.78 241.037 307.484 242.225 305.511 242.225C303.805 242.225 302.717 241.106 302.034 238.871L290.794 203.368H289.909L279.208 241.632H273.556L264.902 202.959C263.676 197.518 263.201 195.4 258.089 195.4H257.066V194.35H268.652L277.848 233.398H278.802L289.157 196.129C289.633 194.898 290.588 194.197 291.679 194.197C292.907 194.197 293.792 194.829 294.336 196.129L306.191 233.398H307.144L314.64 195.106C314.776 194.27 315.524 193.637 316.276 193.637C317.23 193.637 317.913 194.552 317.913 195.516V195.858L309.19 238.918M343.737 219.952C344.012 220.7 344.149 221.173 344.149 221.515C344.149 223.481 343.056 224.225 340.533 224.225H328.398L336.85 200.618L343.737 219.952ZM357.649 241.632L340.672 193.522C337.192 194.007 335.49 195.734 334.26 199.129L319.602 240.234C319.532 240.445 319.532 240.583 319.532 240.794C319.524 241.644 320.135 242.345 321.026 242.345C321.707 242.345 322.32 241.855 322.524 241.226L326.207 230.545C327.092 227.878 329.068 226.577 332.002 226.577H346.139L351.443 241.632H357.649ZM378.501 219.487V241.632H376.385C373.931 241.632 372.431 240.165 371.885 237.377V219.624L360.5 199.968C359.611 198.471 358.794 197.314 357.91 196.705C356.616 195.818 354.977 195.401 352.862 195.401V194.35H365.068L377.28 216.093L389.755 194.22C390.031 193.802 390.506 193.522 390.986 193.522C391.799 193.522 392.415 194.15 392.415 195.123C392.415 195.401 392.35 195.674 392.211 195.875L378.501 219.487ZM409.933 195.869C404.405 195.869 401.06 198.932 401.06 203.692C401.06 206.687 402.356 208.931 405.088 210.904C407.268 212.535 410.817 213.828 414.981 216.278C421.303 220.017 424.616 222.873 424.616 229.065C424.616 237.09 418.324 242.345 408.226 242.345C403.039 242.345 398.485 240.637 395.296 237.57C394.751 237.09 394.411 236.615 394.411 236.004C394.411 235.186 395.091 234.506 395.701 234.506C396.043 234.506 396.38 234.645 396.653 234.849C400.516 237.57 404.269 238.93 408.02 238.93C414.981 238.93 418.462 236.207 418.462 230.902C418.462 224.986 414.435 223.216 408.157 219.552C399.974 214.839 395.022 211.834 395.022 205.074C395.022 198.064 400.516 193.522 410.342 193.522C414.3 193.522 417.779 194.558 421.067 196.865V204.049H420.235C420.235 199.06 416.212 195.869 409.933 195.869Z" fill="#143771"/>
</svg>
