<svg width="480" height="320" viewBox="0 0 480 320" fill="none" xmlns="http://www.w3.org/2000/svg">
<path d="M293.274 106.729C293.274 121.492 288.107 134.041 277.526 144.376C267.192 154.71 254.643 159.878 239.879 159.878C225.116 159.878 212.567 154.71 202.232 144.376C191.898 134.041 186.484 121.492 186.484 106.729C186.484 91.9653 191.652 79.4163 202.232 69.0818C212.567 58.7473 225.116 53.334 239.879 53.334C254.643 53.334 267.192 58.5012 277.526 69.0818C287.861 79.6623 293.274 92.2113 293.274 106.729ZM290.567 106.729C290.567 92.7035 285.646 80.8926 275.558 70.8042C265.715 60.9618 253.659 55.7946 239.633 55.7946C225.608 55.7946 213.797 60.7158 203.709 70.5581C193.866 80.4005 188.699 92.4574 188.699 106.483C188.699 120.508 193.62 132.319 203.709 142.407C213.551 152.25 225.608 157.417 239.633 157.417C253.659 157.417 265.715 152.496 275.558 142.407C285.646 132.811 290.567 120.754 290.567 106.729ZM287.369 106.729C287.369 112.142 286.63 117.309 284.908 121.985L284.416 121.738C285.646 117.555 286.138 113.865 286.138 110.42C286.138 107.221 285.646 104.76 284.416 102.792C283.186 100.823 281.955 99.8392 279.987 99.8392C277.526 99.8392 276.542 101.069 276.542 103.53C276.542 104.514 277.28 105.991 279.003 108.205C280.725 110.42 281.463 113.126 281.463 116.571C281.463 119.524 280.725 122.969 279.495 127.152C276.788 136.01 271.621 142.653 263.747 147.575C256.611 152.004 248.491 154.218 239.633 154.218C232.99 154.218 228.068 153.48 224.624 151.758L224.87 151.266C227.822 152.496 231.513 152.988 236.188 152.988C239.387 152.988 241.848 152.496 243.816 151.266C245.785 150.035 246.523 148.805 246.523 147.083C246.523 144.622 245.293 143.392 242.832 143.392C241.848 143.392 240.371 144.13 238.157 145.852C235.942 147.575 233.236 148.313 230.037 148.313C227.084 148.313 223.393 147.575 219.21 146.344C210.352 143.638 203.709 138.47 198.787 130.597C194.358 123.461 192.144 115.341 192.144 106.237C192.144 102.546 192.882 97.3786 194.604 91.2271L195.096 91.4732C193.866 94.918 193.374 98.8549 193.374 102.792C193.374 109.682 195.343 113.126 199.526 113.126C201.986 113.126 202.97 111.896 202.97 109.682C202.97 108.697 202.232 107.221 200.51 104.76C198.787 102.3 198.049 99.8392 198.049 96.6404C198.049 93.6877 198.787 89.9968 200.018 85.8138C202.724 76.9557 207.892 70.3121 215.765 65.3909C222.901 60.9618 231.021 58.7473 239.879 58.7473C245.293 58.7473 250.214 59.4855 254.889 61.2079L254.643 61.7C252.182 60.4697 248.245 59.7315 243.324 59.7315C240.125 59.7315 237.665 60.2236 235.696 61.4539C233.728 62.6842 232.99 63.9145 232.99 65.883C232.99 68.3436 234.22 69.3278 236.68 69.3278C237.665 69.3278 239.141 68.5897 241.356 66.8672C243.57 65.1448 246.277 64.4066 249.476 64.4066C252.428 64.4066 256.119 65.1448 260.302 66.3751C269.16 69.0818 275.804 74.249 280.725 82.1229C285.154 89.7507 287.369 97.6246 287.369 106.729ZM269.652 121C269.652 117.801 268.668 115.095 266.946 112.634C265.223 110.42 262.763 109.189 259.81 109.189C257.349 109.189 255.135 109.928 253.659 111.65C251.936 113.126 251.198 115.095 251.198 117.309C251.198 119.278 251.69 120.754 252.674 121.985C253.659 123.215 254.889 123.953 256.365 123.953C257.842 123.953 258.334 123.215 258.334 121.985C258.334 121.492 258.088 120.754 257.349 119.77C256.365 119.032 255.873 118.048 255.873 117.063C255.873 114.849 257.103 113.865 259.318 113.865C262.763 113.865 264.485 116.325 264.239 121C264.239 123.707 263.501 125.921 261.778 127.398C260.056 129.12 258.088 129.858 255.627 129.858C252.674 129.858 250.214 128.628 248.245 126.168C246.277 123.707 245.293 121 245.293 117.555C245.293 109.928 248.491 105.252 254.643 103.53C256.119 103.776 257.103 104.022 257.842 103.776C261.286 103.776 262.763 103.038 262.763 101.316C262.763 99.8392 261.286 99.101 258.58 99.101C256.365 99.101 255.135 99.3471 254.889 99.5931C253.905 99.101 253.166 98.1168 252.428 96.8865C259.318 91.7192 262.763 87.0441 262.763 82.8611C262.763 79.4163 261.04 77.9399 257.595 77.9399C254.643 77.9399 252.182 79.4163 249.968 82.615C247.999 85.5677 246.769 89.0126 246.769 92.7035C246.769 94.1798 246.769 95.4101 247.015 96.1483C244.308 98.1168 240.371 100.577 235.45 103.776C235.45 102.3 235.696 100.823 235.942 99.3471C238.649 96.3943 240.125 94.1798 240.125 92.4574C240.125 91.2271 239.633 90.4889 238.403 90.4889C235.45 90.4889 233.728 92.9495 232.744 98.1168C230.775 100.577 228.807 101.808 226.592 101.808C225.362 101.808 224.377 101.069 224.131 99.5931C227.084 98.6089 229.791 96.3943 232.744 93.1956C235.45 89.7507 236.68 86.552 236.68 83.1071C236.68 79.9084 234.958 78.432 231.759 78.432C228.561 78.432 225.854 80.4005 223.393 84.0914C220.933 88.0283 219.702 91.9653 219.702 95.9022C217.488 95.9022 216.504 94.4259 216.504 91.4732C216.504 90.735 216.504 89.7507 216.75 88.7665C216.996 87.7823 216.996 87.2902 216.996 87.0441C216.996 86.0599 216.504 85.8138 215.765 85.8138C213.305 85.8138 212.075 88.0283 212.321 92.2113C212.321 97.1325 214.781 99.8392 219.702 100.085C220.441 103.776 222.655 105.499 225.854 105.499C228.314 105.499 230.283 104.76 231.759 103.53C231.759 104.268 231.513 105.252 231.267 106.237C226.838 108.451 224.131 109.928 222.655 110.912C219.948 112.634 217.488 114.357 215.765 115.833C212.321 119.032 210.352 122.477 210.352 126.414C210.352 128.874 211.09 130.843 212.567 132.565C214.043 134.287 216.258 135.026 218.964 135.026C225.854 135.026 230.529 130.597 233.482 121.985C234.466 119.278 234.958 114.849 235.45 108.451C240.371 105.745 244.8 102.792 248.983 99.8392C249.476 100.577 249.968 101.316 250.46 101.562C243.57 105.252 239.879 110.912 239.879 118.54C239.879 122.723 241.11 126.414 243.816 129.366C246.769 132.811 250.46 134.78 255.381 134.78C259.318 134.78 262.763 133.303 265.469 130.597C268.176 127.398 269.652 124.445 269.652 121ZM230.775 110.666C230.037 115.587 228.807 120.016 226.838 123.461C224.624 127.644 221.917 129.858 218.964 129.858C216.75 129.858 215.519 128.628 215.519 125.921C215.765 120.754 220.687 115.587 230.775 110.666ZM232.497 83.1071C232.497 84.8296 231.759 87.0441 230.037 89.5047C228.314 91.9653 226.346 93.9338 223.885 95.164C223.885 92.7035 224.87 89.9968 226.592 86.798C228.314 83.5993 230.037 82.1229 231.513 82.1229C232.251 82.1229 232.497 82.369 232.497 83.1071ZM258.58 83.8453C258.58 86.0599 256.365 89.0126 251.69 92.9495C251.69 89.9968 252.428 87.5362 253.659 85.3217C254.889 83.1071 256.119 82.1229 257.349 82.1229C258.334 82.1229 258.58 82.615 258.58 83.8453Z" fill="#00B2E3"/>
<path d="M160.155 262.484C157.694 263.96 155.234 264.944 152.527 265.683C149.82 266.421 146.868 266.667 144.161 266.667C140.224 266.667 136.779 265.929 133.826 264.698C130.874 263.468 128.659 261.5 126.691 259.285C124.722 257.07 123.492 254.364 122.754 251.411C122.016 248.458 121.523 245.26 121.523 241.815C121.523 238.37 122.016 235.171 122.754 232.218C123.738 229.02 124.968 226.313 126.691 224.098C128.413 221.884 130.874 219.915 133.58 218.439C136.287 216.963 139.732 216.225 143.423 216.225C146.375 216.225 149.082 216.717 151.789 217.455C154.495 218.193 156.71 219.669 158.924 221.638C159.663 222.13 159.663 222.868 159.17 223.606L157.448 225.821C156.956 226.559 156.464 226.559 155.726 226.067C154.249 224.837 152.527 223.606 150.312 222.868C148.098 222.13 145.883 221.638 143.423 221.638C140.716 221.638 138.255 222.13 136.287 223.114C134.319 224.098 132.596 225.575 131.366 227.543C130.136 229.512 129.151 231.48 128.659 233.941C128.167 236.401 127.675 239.108 127.675 241.815C127.675 244.767 127.921 247.474 128.659 249.935C129.151 252.395 130.136 254.364 131.612 256.332C132.842 258.055 134.565 259.531 136.779 260.515C138.994 261.5 141.454 261.992 144.407 261.992C146.129 261.992 148.098 261.746 150.066 261.499C152.035 261.253 154.003 260.515 155.726 259.531V245.014H145.145C144.161 245.014 143.915 244.521 143.915 243.783V241.323C143.915 240.338 144.407 240.092 145.145 240.092H159.909C160.893 240.092 161.139 240.584 161.139 241.323V260.761C161.385 261.253 160.893 261.992 160.155 262.484Z" fill="#636569"/>
<path d="M181.562 265.929C180.578 265.929 180.332 265.437 180.332 264.698V218.439C180.332 217.455 180.824 217.209 181.562 217.209H207.645C208.629 217.209 208.875 217.701 208.875 218.439V220.9C208.875 221.884 208.383 222.13 207.645 222.13H186.237V238.124H205.184C206.168 238.124 206.414 238.616 206.414 239.354V241.815C206.414 242.799 205.922 243.045 205.184 243.045H186.237V260.761H207.645C208.629 260.761 208.875 261.254 208.875 261.992V264.452C208.875 265.437 208.383 265.683 207.645 265.683H181.562V265.929Z" fill="#636569"/>
<path d="M260.546 261.253C258.577 263.222 256.116 264.452 253.656 265.436C251.195 266.421 248.243 266.667 245.29 266.667C241.599 266.667 238.154 265.929 235.448 264.698C232.741 263.468 230.526 261.5 228.558 259.285C226.589 257.07 225.359 254.364 224.621 251.165C223.883 248.212 223.391 244.767 223.391 241.323C223.391 237.878 223.883 234.679 224.621 231.726C225.605 228.774 226.835 226.067 228.558 223.606C230.28 221.392 232.495 219.423 235.448 218.193C238.4 216.963 241.353 216.225 245.044 216.225C250.949 216.225 255.87 217.947 259.807 221.146C260.546 221.638 260.546 222.376 260.053 223.114L258.577 225.329C258.085 226.067 257.347 226.067 256.609 225.575C255.132 224.345 253.41 223.36 251.687 222.622C249.719 221.884 247.75 221.392 245.29 221.392C242.583 221.392 240.369 221.884 238.4 222.868C236.432 223.852 234.709 225.329 233.479 227.051C232.249 228.774 231.265 230.988 230.526 233.449C229.788 235.909 229.542 238.616 229.542 241.323C229.542 244.275 229.788 246.982 230.28 249.443C230.772 251.903 231.757 254.118 232.987 255.84C234.217 257.563 235.94 259.039 237.908 260.023C239.877 261.007 242.337 261.499 245.044 261.499C247.504 261.499 249.965 261.007 251.933 260.269C253.902 259.531 255.624 258.301 257.101 257.07C257.839 256.578 258.331 256.578 258.823 257.316L260.546 259.531C261.284 260.023 261.284 260.515 260.546 261.253Z" fill="#636569"/>
<path d="M309.266 265.929C308.528 265.929 307.79 265.437 307.544 264.698C307.052 262.73 306.314 260.761 305.822 258.793C305.083 256.825 304.591 254.61 303.853 252.642H282.692C281.462 256.825 280.231 261.008 279.001 264.944C278.755 265.437 278.755 265.683 278.509 265.929C278.263 266.175 278.017 266.175 277.525 266.175H274.08C273.342 266.175 272.85 265.929 272.85 265.437C272.85 265.191 272.85 264.944 273.096 264.698C275.802 256.086 278.509 247.966 281.216 240.339C283.922 232.711 286.875 225.575 289.828 218.685C290.074 217.947 290.812 217.455 291.796 217.455H294.995C295.979 217.455 296.471 217.947 296.963 218.685C299.916 225.329 302.623 232.465 305.575 240.339C308.528 248.212 311.235 256.332 313.695 264.698C313.941 265.191 313.941 265.683 313.941 265.683C313.941 266.175 313.449 266.667 312.711 266.667H309.266V265.929ZM293.026 223.36C291.304 227.297 289.828 231.234 288.351 235.171C286.875 239.354 285.399 243.291 283.922 247.474H301.885C300.408 243.291 299.178 239.108 297.456 235.171C296.225 231.234 294.749 227.297 293.026 223.36Z" fill="#636569"/>
<path d="M358.479 252.887C358.479 255.102 357.987 256.824 357.249 258.547C356.511 260.269 355.28 261.746 353.804 262.976C352.328 264.206 350.605 265.19 348.637 265.682C346.668 266.421 344.208 266.667 341.747 266.667C338.302 266.667 335.103 266.175 332.643 264.944C330.182 263.96 327.968 262.73 326.491 261.253C325.753 260.761 325.753 260.023 326.245 259.285L327.968 257.07C328.46 256.332 329.198 256.332 329.69 256.824C331.167 258.055 332.889 259.285 334.857 260.023C336.826 261.007 339.04 261.253 341.501 261.253C344.946 261.253 347.406 260.515 349.375 259.039C351.343 257.563 352.328 255.594 352.328 252.887C352.328 250.673 351.589 248.704 349.867 247.474C348.145 245.998 345.438 244.767 341.747 243.783C339.779 243.291 337.81 242.553 336.088 241.815C334.365 241.077 332.889 240.092 331.413 239.108C330.182 238.124 329.198 236.647 328.214 235.171C327.476 233.695 326.984 231.726 326.984 229.512C326.984 227.297 327.476 225.575 328.214 223.852C328.952 222.13 330.182 220.654 331.413 219.669C332.643 218.685 334.611 217.701 336.58 216.963C338.548 216.471 340.763 215.979 343.223 215.979C346.422 215.979 348.883 216.471 351.097 217.209C353.312 217.947 355.034 218.931 356.511 220.162C357.249 220.654 357.249 221.392 356.757 222.13L355.28 224.345C354.788 225.083 354.296 225.083 353.558 224.591C352.328 223.606 350.851 222.868 349.129 222.13C347.406 221.392 345.438 221.146 343.223 221.146C341.501 221.146 340.025 221.392 338.548 221.884C337.318 222.376 336.334 222.868 335.35 223.606C334.365 224.345 333.873 225.329 333.627 226.067C333.381 227.051 333.135 228.035 333.135 229.266C333.135 230.496 333.381 231.48 333.627 232.218C333.873 232.957 334.611 233.941 335.35 234.679C336.088 235.417 337.318 235.909 338.548 236.647C339.779 237.14 341.501 237.878 343.223 238.37C345.192 238.862 347.16 239.6 348.883 240.338C350.605 241.077 352.328 242.061 353.558 243.045C355.034 244.029 356.018 245.506 356.757 246.982C357.495 248.458 358.479 250.673 358.479 252.887Z" fill="#636569"/>
</svg>
