<svg width="480" height="320" viewBox="0 0 480 320" fill="none" xmlns="http://www.w3.org/2000/svg">
<path d="M239.991 266.667C298.915 266.667 346.666 218.915 346.666 160.009C346.666 101.103 298.915 53.334 239.991 53.334C181.085 53.334 133.333 101.103 133.333 160.009C133.333 218.915 181.085 266.667 239.991 266.667Z" fill="white"/>
<path d="M263.928 132.228C263.928 120.099 272.139 108.335 276.619 110.551C281.726 113.111 272.792 124.535 263.928 132.228ZM208.091 136.647C208.091 126.895 217.713 108.365 223.59 110.324C230.539 112.641 217.835 131.331 208.091 136.647ZM198.334 206.394C193.911 206.594 190.95 203.764 190.95 199.041C190.95 186.35 208.561 174.224 221.862 167.715C219.502 185.435 213.516 205.711 198.334 206.394ZM279.584 165.038C269.54 165.038 261.864 172.426 261.864 181.286C261.864 188.674 266.305 194.582 272.196 194.582C274.281 194.582 276.345 193.394 276.345 190.755C276.345 186.894 271.251 185.966 271.634 180.224C271.891 176.436 275.461 173.902 279.005 173.902C286.088 173.902 289.402 180.768 289.402 187.852C289.114 198.792 281.06 206.39 271.621 206.39C259.204 206.39 251.228 194.582 251.228 181.874C251.228 162.952 263.645 155.569 270.149 153.805C270.21 153.805 287.138 156.814 286.611 149.351C286.367 146.069 281.486 144.806 277.96 144.671C274.037 144.519 270.075 145.929 270.075 145.929C268.02 144.884 266.592 142.843 265.709 140.492C277.825 131.323 286.393 122.467 286.393 112.419C286.393 107.103 282.84 102.375 276.044 102.375C263.928 102.375 254.768 117.739 254.768 131.627C254.768 133.983 254.768 136.355 255.377 138.419C247.688 144.027 241.972 147.523 231.64 153.727C231.64 152.434 231.91 149.095 232.781 144.776C236.321 140.931 241.184 135.171 241.184 130.735C241.184 128.671 240.013 126.89 237.627 126.89C231.728 126.89 227.304 135.763 226.12 141.967C223.46 145.233 218.14 149.369 213.699 149.369C210.159 149.369 208.971 146.117 208.67 144.928C219.903 141.084 233.791 125.719 233.791 111.831C233.791 108.883 232.607 102.375 223.747 102.375C210.451 102.375 199.236 122.18 199.236 137.527C194.494 137.527 192.731 132.511 192.731 128.667C192.731 124.818 194.207 120.991 194.207 119.803C194.207 118.618 193.615 117.147 191.834 117.147C187.411 117.147 184.751 123.055 184.751 129.851C185.055 139.307 191.255 145.233 199.523 145.812C200.707 151.432 205.723 156.753 211.922 156.753C215.771 156.753 220.495 155.569 223.747 152.621C223.46 154.685 223.172 156.465 222.868 158.229C209.859 165.038 200.402 169.762 191.834 177.442C185.055 183.655 181.211 191.922 181.211 198.414C181.211 207.291 186.819 215.559 198.339 215.559C211.922 215.559 222.276 204.631 227.304 189.554C229.66 182.47 230.604 172.152 231.209 162.683C244.784 154.99 251.228 150.557 258.325 145.524C259.208 147 260.101 148.18 261.272 149.064C255.072 152.316 240.3 161.481 240.3 183.045C240.3 198.409 250.632 215.554 271.033 215.554C287.873 215.554 299.393 201.662 299.393 188.361C299.389 176.258 292.593 165.038 279.584 165.038ZM330.388 190.42C330.344 190.512 330.179 190.634 329.843 190.525C329.582 190.433 329.526 190.311 329.526 190.142C329.539 189.976 333.096 179.458 333.065 167.406C333.035 154.38 327.749 146.4 320.971 146.4C316.821 146.4 313.87 149.364 313.87 153.805C313.87 161.781 323.613 162.378 323.613 179.806C323.613 186.889 322.137 193.686 319.786 201.069C308.841 237.998 273.976 255.143 240.013 255.143C224.344 255.143 213.215 251.921 209.907 250.437C209.772 250.358 209.645 250.101 209.754 249.84C209.828 249.644 210.059 249.492 210.194 249.553C211.535 250.071 221.091 253.079 232.916 253.079C245.912 253.079 253.601 247.763 253.601 241.255C253.601 237.123 250.349 233.871 246.217 233.871C238.236 233.871 237.631 243.915 220.499 243.915C213.115 243.915 206.611 242.439 198.935 240.066C162.285 228.842 144.84 194.282 144.853 160.009C144.866 143.308 149.551 130.008 149.625 129.886C149.686 129.799 149.895 129.703 150.152 129.799C150.413 129.886 150.469 130.099 150.456 130.178C150.034 131.562 146.93 141.092 146.93 152.917C146.93 165.926 152.246 173.602 159.042 173.602C162.873 173.602 166.125 170.654 166.125 166.518C166.125 158.529 156.369 157.645 156.369 140.505C156.369 133.116 157.858 126.612 160.213 118.936C171.446 82.2951 206.023 65.1239 240.004 64.8583C255.795 64.7364 269.609 69.4646 270.141 69.8869C270.232 69.9653 270.323 70.1656 270.232 70.405C270.106 70.6924 269.923 70.7228 269.836 70.7054C269.67 70.6924 260.684 66.9351 247.083 66.9351C234.379 66.922 226.399 72.2423 226.399 79.0472C226.399 82.8785 229.363 86.1307 233.783 86.1307C241.763 86.1307 242.355 76.387 259.5 76.387C266.867 76.387 273.375 77.8456 281.051 80.2183C317.997 91.4466 334.807 126.311 335.125 160.005C335.299 177.259 330.436 190.311 330.388 190.42ZM240.008 58.3626C183.867 58.3626 138.366 103.85 138.366 160.005C138.366 216.146 183.867 261.634 240.008 261.634C296.137 261.634 341.638 216.146 341.638 160.005C341.638 104.155 296.137 58.3626 240.008 58.3626ZM240.008 266.667C181.207 266.667 133.333 219.098 133.333 160.009C133.333 101.19 181.207 53.334 240.008 53.334C298.793 53.334 346.666 101.19 346.666 160.009C346.666 219.098 298.793 266.667 240.008 266.667Z" fill="#3B73B9"/>
</svg>
