<svg width="480" height="320" viewBox="0 0 480 320" fill="none" xmlns="http://www.w3.org/2000/svg">
<path fill-rule="evenodd" clip-rule="evenodd" d="M55.3848 159.834C55.3848 163.91 56.2081 168.787 62.4973 168.787H77.8806V157.87H65.8339V162.385H73.2351V164.493H63.5104C59.8596 164.493 60.3914 160.951 60.3914 159.909C60.3914 157.314 60.8749 155.905 63.2936 155.905H77.8799V151.212H63.3668C57.6357 151.212 55.3848 154.595 55.3848 159.834ZM101.841 164.492H87.1481V162.384H101.841V158.125H87.1481V156.269H101.841V151.212H82.2502V168.787H101.841V164.492ZM106.208 151.212V168.787H110.779V155.832L120.647 168.787H127.324V151.212H122.752V164.164L112.884 151.212H106.208ZM151.866 164.492H137.173V162.384H151.866V158.125H137.173V156.269H151.866V151.212H132.275V168.787H151.866V164.492ZM178.149 157.47C178.149 155.031 178.101 151.211 172.272 151.211H156.236V168.787H160.953V163.656H168.281L172.382 168.787H178.476L174.087 163.146C177.302 162.669 178.149 160.385 178.149 157.47ZM170.929 159.354H160.95V156.043H171.001C172.344 156.043 173.286 156.442 173.286 157.536C173.286 158.626 173.068 159.354 170.929 159.354ZM206.903 168.787H224.534V164.492H211.8V151.212H206.903V168.787ZM188.827 151.212L178.96 168.788H184.33L186.266 165.33H197.752L199.675 168.788H205.045L195.176 151.212H188.827ZM188.69 160.992L192.002 155.08L195.322 160.992H188.69ZM253.853 151.212H239.343V168.788H254.726C260.628 168.788 261.835 165.074 261.835 159.835C261.835 154.596 259.586 151.212 253.853 151.212ZM253.708 164.492H243.984V155.905H253.925C256.635 155.905 256.827 157.605 256.827 159.908C256.828 162.018 256.876 164.492 253.708 164.492ZM287.536 151.212V168.787H292.109V155.832L301.976 168.787H308.652V151.212H304.08V164.164L294.212 151.212H287.536ZM320.645 151.212L310.776 168.788H316.146L318.082 165.33H329.57L331.491 168.788H336.861L326.992 151.212H320.645ZM320.505 160.992L323.817 155.08L327.137 160.992H320.505ZM261.112 151.212L271.199 162.712V168.787H276.206V162.712L286.291 151.212H279.905L273.763 158.779L267.498 151.212H261.112ZM338.674 151.212V168.787H343.246V155.377L349.92 168.787H354.129L360.806 155.377V168.787H365.375V151.212H357.83L352.024 163.455L346.22 151.212H338.674ZM375.598 168.787L375.561 151.212H370.662V168.787H375.598ZM379.04 159.834C379.04 165.073 380.247 168.787 386.152 168.787H400.009V164.511C400.009 164.511 389.27 164.492 387.166 164.492C383.999 164.492 384.047 162.018 384.047 159.908C384.047 157.603 384.24 155.905 386.948 155.905H400.009V151.212H387.021C381.289 151.212 379.04 154.595 379.04 159.834ZM419.429 158.089H408.834C408.073 158.089 407.22 157.871 407.22 157.034C407.22 156.197 408.073 155.979 408.834 155.979C410.939 155.979 424.035 155.961 424.035 155.961V151.685H407.672C403.502 151.685 402.487 153.832 402.487 157.034C402.487 160.235 403.502 162.384 407.672 162.384H418.267C419.03 162.384 419.881 162.599 419.881 163.439C419.881 164.276 419.03 164.491 418.267 164.491C416.164 164.491 403.065 164.51 403.065 164.51V168.786H419.429C423.6 168.786 424.616 166.638 424.616 163.439C424.616 160.236 423.6 158.089 419.429 158.089Z" fill="#231F20"/>
</svg>
