<svg width="480" height="320" viewBox="0 0 480 320" fill="none" xmlns="http://www.w3.org/2000/svg">
<path d="M82.044 133.094L74.145 146.473L81.8465 159.605L68.7637 152.002L55.3848 160L68.7638 168.047L81.8465 160.247L74.145 173.626L82.044 186.906L89.9431 173.626L82.2908 160.247L95.3242 168.047L108.703 160L95.3242 152.002L82.2908 159.605L89.9431 146.473L82.044 133.094ZM130.129 149.237C127.26 149.237 124.967 149.52 123.218 150.077C121.466 150.632 120.133 151.558 119.268 152.792C118.729 153.533 118.247 154.415 117.836 155.458C117.428 156.499 117.001 157.97 116.553 159.852C116.168 161.534 116.01 162.755 116.01 163.604C116.01 165.563 116.727 167.058 118.232 167.998C119.734 168.94 122.041 169.38 125.143 169.38C126.778 169.38 128.482 169.275 130.179 169.034C131.875 168.796 133.453 168.462 134.918 167.998L137.14 159.506H128.895L127.661 164.344C127.122 164.453 126.798 164.542 126.674 164.542C125.224 164.542 124.501 163.73 124.501 162.172C124.501 159.95 125.145 158.315 126.427 157.235C127.706 156.155 129.667 155.606 132.351 155.606C133.957 155.606 135.868 155.797 138.028 156.198L139.51 150.373C138.246 150.004 136.826 149.727 135.214 149.534C133.601 149.342 131.889 149.237 130.129 149.237V149.237ZM331.851 149.336C328.78 149.336 326.418 149.717 324.791 150.422C323.162 151.123 321.883 152.296 320.94 154.026C320.277 155.278 319.732 156.819 319.262 158.618C318.792 160.417 318.521 162.012 318.521 163.357C318.521 164.87 318.869 166.041 319.509 166.912C320.149 167.784 321.144 168.408 322.57 168.787C323.998 169.167 326.014 169.38 328.543 169.38C330.319 169.38 331.774 169.242 332.987 169.034C334.197 168.825 335.305 168.511 336.245 168.047C337.187 167.585 337.973 166.971 338.615 166.22C339.255 165.472 339.796 164.538 340.244 163.456C340.738 162.267 341.174 160.863 341.527 159.21C341.883 157.559 342.021 156.228 342.021 155.162C342.021 153.692 341.723 152.541 341.083 151.706C340.441 150.872 339.389 150.243 337.923 149.879C336.458 149.516 334.442 149.336 331.851 149.336V149.336ZM415.729 149.336C414.325 149.336 412.98 149.417 411.73 149.534C410.48 149.648 409.412 149.796 408.472 150.027C407.53 150.26 406.75 150.543 406.102 150.867C405.067 151.376 404.191 152.318 403.535 153.73C402.879 155.142 402.548 156.688 402.548 158.371C402.548 159.897 403.079 160.997 404.127 161.629C404.714 161.955 405.314 162.178 405.954 162.271C406.594 162.364 407.763 162.403 409.459 162.419H411.977C412.579 162.419 412.866 162.628 412.866 163.011C412.866 163.829 411.252 164.246 408.028 164.246C406.177 164.246 403.995 164.04 401.511 163.702L400.326 168.639C402.486 169.024 404.499 169.271 406.349 169.38C407.506 169.457 408.571 169.479 409.558 169.479C413.03 169.479 415.798 169.153 417.803 168.491C419.177 167.999 420.249 167.137 421.012 165.875C421.776 164.613 422.147 163.031 422.147 161.185C422.147 160.537 422.025 159.966 421.801 159.457C421.576 158.949 421.246 158.505 420.814 158.173C420.384 157.841 419.89 157.693 419.333 157.63C418.932 157.553 418.079 157.482 416.815 157.482H412.866C412.064 157.482 411.631 157.235 411.631 156.741C411.631 155.876 413.371 155.458 416.766 155.458C418.478 155.458 420.589 155.572 423.134 155.803L424.616 149.978C423.859 149.84 423.073 149.717 422.295 149.632C421.515 149.547 420.559 149.48 419.432 149.435C417.55 149.374 416.316 149.336 415.729 149.336L415.729 149.336ZM394.352 149.534C391.451 149.534 389.194 149.844 387.589 150.422C385.985 150.999 384.729 151.98 383.787 153.384C382.94 154.585 382.273 156.147 381.763 158.074C381.254 160 380.973 161.905 380.973 163.801C380.973 165.126 381.25 166.213 381.813 167.06C382.375 167.907 383.268 168.499 384.478 168.886C385.689 169.269 387.289 169.479 389.218 169.479C390.898 169.479 392.524 169.364 394.105 169.133C395.687 168.902 397.121 168.596 398.401 168.195L399.734 162.468C397.079 163.132 394.858 163.456 393.069 163.456C391.85 163.456 390.987 163.319 390.501 163.011C390.016 162.703 389.761 162.135 389.761 161.333C389.761 159.745 390.369 158.493 391.588 157.63C392.806 156.765 394.554 156.346 396.821 156.346C398.039 156.346 399.481 156.536 401.116 156.89L402.696 150.422C401.122 150.083 399.696 149.863 398.401 149.731C397.105 149.601 395.74 149.534 394.352 149.534V149.534ZM222.647 149.929L218.796 149.978H207.194L202.307 168.738H210.65L212.131 163.06L215.785 168.738H233.459L235.088 166.171H241.95V168.738H249.849V149.978H236.125L224.967 168.442L220.376 161.431C221.658 161.431 222.667 161.335 223.338 161.135C224.009 160.934 224.594 160.503 225.165 159.901C225.783 159.237 226.257 158.418 226.596 157.383C226.936 156.35 227.14 155.213 227.14 154.026C227.14 152.575 226.756 151.563 226.053 150.916C225.352 150.268 224.221 149.928 222.647 149.928V149.929ZM141.879 149.978L136.992 168.738H155.801L157.036 163.801H146.125L146.619 161.827H157.579L158.566 158.025H147.557L148.149 155.902H159.109L160.639 149.978L141.879 149.978ZM162.713 149.978L157.825 168.738H165.823L168.193 158.963L170.661 168.738H179.449L184.287 149.978H176.29L173.623 160.641L171.353 149.978L162.713 149.978ZM186.361 149.978L181.522 168.738H200.283L201.566 163.801H190.606L191.1 161.827H202.06L203.047 158.025H192.088L192.631 155.902H203.59L205.121 149.978L186.361 149.978ZM255.527 149.978L250.639 168.738H266.437L268.165 162.221H260.266L263.524 149.978H255.527ZM286.234 149.978L275.274 168.689H283.864L285.395 166.171H292.257V168.689H300.008V149.978L286.234 149.978ZM302.674 149.978L300.996 156.198H305.932L302.723 168.689H310.869L314.078 156.198H318.818L320.496 149.978L302.674 149.978ZM345.082 149.978L340.194 168.738H347.995L350.809 157.975L351.599 168.738H356.091L362.411 158.173L359.596 168.738H367.446L372.334 149.978H361.423L355.992 160.098L355.351 149.978L345.082 149.978ZM374.21 149.978L369.52 168.738H377.468L382.356 149.978H374.21ZM241.851 154.865L242 161.432H237.853L241.851 154.865ZM292.257 154.865V161.382H288.258L292.257 154.865ZM214.106 155.359H216.13C217.303 155.359 218.085 155.452 218.401 155.606C218.717 155.76 218.846 156.088 218.846 156.643C218.846 157.075 218.776 157.474 218.599 157.828C218.421 158.183 218.186 158.481 217.907 158.667C217.724 158.789 217.4 158.866 216.969 158.914C216.537 158.959 215.893 158.963 215.044 158.963H213.168L214.106 155.359L214.106 155.359ZM331.012 155.952C332.663 155.952 333.53 156.489 333.53 157.63C333.53 159.36 333.113 160.851 332.295 162.024C331.476 163.195 330.419 163.752 329.185 163.752C327.534 163.752 326.717 163.159 326.717 161.925C326.717 160.29 327.159 158.852 328 157.679C328.842 156.506 329.823 155.952 331.012 155.952H331.012Z" fill="black"/>
</svg>
