<svg width="480" height="320" viewBox="0 0 480 320" fill="none" xmlns="http://www.w3.org/2000/svg">
<path d="M86.2517 128.611C69.7112 128.611 56.1662 141.635 55.3848 158.046C57.3384 155.05 61.2456 152.055 67.2366 150.101C71.5345 148.668 78.0465 147.757 84.6888 147.757C98.2338 147.757 111.258 151.534 117.249 158.046C116.467 141.635 102.922 128.611 86.2517 128.611ZM87.9448 171.07C81.1723 171.07 75.4417 172.112 69.9717 172.112C64.5016 172.112 59.1617 170.028 56.2964 167.423C59.6827 180.838 71.795 190.606 86.2517 190.606C97.843 190.606 109.565 183.182 109.565 178.103C109.565 173.674 100.969 171.07 87.9448 171.07Z" fill="url(#paint0_radial_730_18319)"/>
<path d="M118.68 169.247C118.68 164.297 116.857 160.39 111.908 157.395C105.787 153.748 95.3674 151.273 85.0784 151.273C79.2176 151.273 72.8358 152.055 68.017 153.618C62.0259 155.702 57.207 159.739 57.207 162.474C57.207 165.6 63.4586 168.595 69.9706 168.595C74.1382 168.595 78.9571 167.684 86.9018 167.684C105.656 167.684 112.559 172.763 112.559 177.191C112.559 182.922 104.614 188.001 97.0605 190.085V191.387C111.387 187.741 118.68 179.796 118.68 169.247Z" fill="url(#paint1_linear_730_18319)"/>
<path d="M66.9763 166.251C72.9673 161.432 84.6889 156.222 98.8851 156.222C102.011 156.222 104.746 156.743 108.393 157.524C103.704 155.18 95.1081 153.227 86.5123 153.227C79.2188 153.227 72.5766 154.268 68.0182 156.092C63.4598 157.785 59.8131 161.041 59.8131 162.604C59.6828 164.297 64.632 166.251 66.9763 166.251Z" fill="url(#paint2_linear_730_18319)"/>
<path d="M86.2512 131.738C74.79 131.738 65.543 138.25 65.543 146.325C65.543 147.758 65.8034 149.19 66.3244 150.493C66.5849 150.363 66.8454 150.232 67.2361 150.232C71.534 148.8 78.046 147.888 84.6883 147.888C92.2422 147.888 99.6659 149.06 105.787 151.274C106.569 149.711 106.959 148.149 106.959 146.455C107.09 138.25 97.7123 131.738 86.2512 131.738Z" fill="url(#paint3_linear_730_18319)"/>
<path d="M179.113 148.148C178.722 149.581 177.42 150.102 176.117 149.711C173.643 149.06 170.647 148.148 166.74 148.148C155.93 148.148 151.502 155.832 151.502 163.516C151.502 170.68 156.06 174.066 161.27 174.066C165.047 174.066 165.959 173.154 166.48 171.07L167.782 165.34H161.4L162.963 157.656H176.117C178.332 157.656 179.634 159.219 179.113 161.433L176.508 174.066C175.727 178.103 172.601 180.969 168.433 181.62C167.131 181.75 164.135 182.141 159.968 182.141C147.725 182.141 140.432 175.238 140.432 164.298C140.432 150.492 149.288 140.204 166.48 140.204C171.038 140.204 174.555 140.724 177.811 141.376C179.243 141.766 180.676 142.939 179.894 145.283L179.113 148.148ZM208.938 174.066C209.98 173.675 211.152 174.457 210.892 175.759L210.371 178.364C210.11 179.797 209.459 180.578 208.026 180.969C205.031 181.75 201.644 182.141 198.779 182.141C188.751 182.141 183.541 176.541 183.541 168.335C183.541 161.302 188.23 150.492 201.645 150.492C209.589 150.492 215.58 154.921 215.58 163.647C215.58 164.298 215.45 165.34 215.45 165.6C215.059 167.814 213.627 169.377 210.892 169.377H193.309C193.439 172.633 195.132 175.238 201.124 175.238C203.859 175.238 206.594 174.847 208.938 174.066ZM206.984 163.516C206.984 160.26 205.552 157.525 201.514 157.525C197.216 157.525 194.872 160.651 194.091 163.516H206.984ZM230.428 151.274C231.99 151.274 232.902 152.316 232.902 153.618V154.139L232.251 157.395H232.381C234.074 153.879 237.461 150.492 241.758 150.492C243.452 150.492 245.666 151.013 245.666 152.967C245.666 153.228 245.666 153.488 245.535 153.748L244.493 157.525C244.103 158.828 243.061 159.74 241.237 159.349C240.717 159.219 239.805 159.088 238.893 159.088C234.465 159.088 231.86 162.865 231.079 167.424L228.865 178.103C228.344 180.448 227.041 181.359 224.697 181.359H217.794L222.483 158.958C223.004 156.353 223.525 153.748 223.785 151.013H230.428V151.274ZM248.14 159.219C248.661 156.614 249.182 154.009 249.443 151.274H255.824C257.257 151.274 258.299 152.316 258.299 153.618C258.299 153.879 258.299 154.139 258.169 154.4L257.648 156.744H257.778C260.383 152.967 264.16 150.623 268.458 150.623C271.974 150.623 275.621 152.707 276.402 156.744C279.007 152.967 282.784 150.623 287.212 150.623C291.901 150.623 296.59 152.837 296.59 159.609C296.59 161.563 296.329 164.298 295.938 166.382L293.464 178.234C292.943 180.578 291.64 181.49 289.296 181.49H282.393L285.389 166.772C285.78 165.21 285.91 163.516 285.91 162.344C285.91 160.391 284.998 159.219 282.524 159.219C278.226 159.219 277.054 164.298 276.272 167.554L274.058 178.234C273.537 180.578 272.235 181.49 269.89 181.49H262.988L265.983 166.772C266.374 165.21 266.504 163.516 266.504 162.344C266.504 160.391 265.592 159.219 263.118 159.219C258.82 159.219 257.648 164.298 256.866 167.554L254.652 178.234C254.131 180.578 252.829 181.49 250.485 181.49H243.582L248.14 159.219ZM319.121 177.322C316.777 180.708 312.739 182.271 308.572 182.271C302.32 182.271 298.804 179.145 298.804 173.936C298.804 165.991 306.227 162.475 315.474 162.475C317.558 162.475 319.642 162.605 321.075 162.735C321.205 162.344 321.205 161.954 321.205 161.433C321.205 159.349 319.121 157.656 315.735 157.656C312.088 157.656 309.223 158.437 305.837 160L306.879 152.446C310.004 151.404 313.26 150.753 317.949 150.753C325.112 150.753 331.103 153.618 331.103 161.042C331.103 165.34 329.019 171.201 327.847 178.885C327.587 180.578 326.545 181.62 324.591 181.62H318.6L319.121 177.322ZM312.088 175.238C316.516 175.238 319.251 172.112 320.033 168.075C319.121 167.945 317.949 167.945 317.298 167.945C312.349 167.814 308.702 169.508 308.702 172.373C308.702 173.805 309.874 175.238 312.088 175.238ZM338.397 159.219C338.918 156.614 339.439 154.009 339.699 151.274H346.472C348.034 151.274 348.946 152.316 348.946 153.618V154.139L348.555 156.223H348.686C351.681 152.967 355.067 150.623 360.147 150.623C366.398 150.623 369.785 155.051 369.785 161.042C369.785 163.126 369.654 164.298 369.003 167.424L366.919 178.234C366.398 180.578 365.096 181.49 362.752 181.49H355.458L358.323 167.293C358.584 165.731 358.975 164.298 358.975 162.735C358.975 160.912 357.802 159.219 354.937 159.219C350.509 159.219 347.904 162.996 347.123 167.554L344.909 178.234C344.388 180.578 343.085 181.49 340.741 181.49H333.838L338.397 159.219ZM379.813 151.274H386.716C388.8 151.274 389.841 152.707 389.841 154.139C389.841 154.4 389.842 154.79 389.711 155.051L384.892 178.234C384.371 180.578 383.069 181.49 380.725 181.49H373.692L379.813 151.274ZM382.418 138.641H390.232C391.665 138.641 392.577 139.552 392.577 140.724C392.577 140.855 392.577 141.245 392.446 141.506L392.056 143.46C391.665 145.153 390.493 146.195 388.669 146.195H380.985L382.418 138.641ZM412.633 177.322C410.289 180.708 406.252 182.271 402.084 182.271C395.833 182.271 392.316 179.145 392.316 173.936C392.316 165.991 399.74 162.475 408.987 162.475C411.071 162.475 413.154 162.605 414.587 162.735C414.717 162.344 414.717 161.954 414.717 161.433C414.717 159.349 412.634 157.656 409.247 157.656C405.601 157.656 402.735 158.437 399.349 160L400.391 152.446C403.517 151.404 406.773 150.753 411.461 150.753C418.625 150.753 424.616 153.618 424.616 161.042C424.616 165.34 422.532 171.201 421.36 178.885C421.099 180.578 420.057 181.62 418.234 181.62H412.243L412.633 177.322ZM405.601 175.238C410.029 175.238 412.764 172.112 413.545 168.075C412.634 167.945 411.461 167.945 410.81 167.945C405.861 167.814 402.214 169.508 402.214 172.373C402.214 173.805 403.386 175.238 405.601 175.238Z" fill="#007952"/>
<defs>
<radialGradient id="paint0_radial_730_18319" cx="0" cy="0" r="1" gradientUnits="userSpaceOnUse" gradientTransform="translate(86.3125 159.604) scale(30.9605 30.9605)">
<stop offset="0.3" stop-color="#2E8F6F"/>
<stop offset="0.4572" stop-color="#168B69"/>
<stop offset="0.6883" stop-color="#00835E"/>
<stop offset="0.9" stop-color="#007952"/>
</radialGradient>
<linearGradient id="paint1_linear_730_18319" x1="63.6268" y1="150.796" x2="115.234" y2="180.592" gradientUnits="userSpaceOnUse">
<stop stop-color="#55AE58"/>
<stop offset="0.4147" stop-color="#51AD58"/>
<stop offset="0.5906" stop-color="#45A758"/>
<stop offset="0.7212" stop-color="#2E9E58"/>
<stop offset="0.75" stop-color="#249B58"/>
<stop offset="0.8189" stop-color="#139957"/>
<stop offset="0.8903" stop-color="#039056"/>
<stop offset="0.9626" stop-color="#008253"/>
<stop offset="1" stop-color="#007952"/>
</linearGradient>
<linearGradient id="paint2_linear_730_18319" x1="80.7232" y1="150.899" x2="86.8243" y2="166.123" gradientUnits="userSpaceOnUse">
<stop stop-color="#C7E0BF"/>
<stop offset="0.1083" stop-color="#AFD4A6"/>
<stop offset="0.229" stop-color="#98C98F"/>
<stop offset="0.3623" stop-color="#87C17E"/>
<stop offset="0.5131" stop-color="#78BA72"/>
<stop offset="0.6959" stop-color="#6EB76A"/>
<stop offset="1" stop-color="#6CB669"/>
</linearGradient>
<linearGradient id="paint3_linear_730_18319" x1="86.2487" y1="131.705" x2="86.2487" y2="151.152" gradientUnits="userSpaceOnUse">
<stop stop-color="white"/>
<stop offset="0.2634" stop-color="#CFDCD2"/>
<stop offset="0.6194" stop-color="#85B09B"/>
<stop offset="0.8739" stop-color="#4E9779"/>
<stop offset="1" stop-color="#2E8F6F"/>
</linearGradient>
</defs>
</svg>
