<svg width="480" height="320" viewBox="0 0 480 320" fill="none" xmlns="http://www.w3.org/2000/svg">
<path fill-rule="evenodd" clip-rule="evenodd" d="M299.01 53.334L228.281 124.432H168.269L111.121 181.579H181.032V252.677L252.13 181.579H311.732L368.879 124.432H299.01V53.334ZM284.61 87.86V124.432H247.998L284.61 87.86ZM174.037 138.831H213.922L185.532 167.18H145.688L174.037 138.831ZM234.457 138.831H274.342L245.543 167.18H205.699L234.457 138.831ZM294.469 138.831H334.354L305.964 167.18H266.12L294.469 138.831ZM232.003 181.17L195.432 217.741V181.579L232.003 181.17ZM251.72 224.369V266.667H263.665C276.395 266.667 287.924 262.582 287.924 245.722C287.924 228.446 276.395 224.369 263.666 224.369H251.72ZM260.352 230.914H265.302C272.311 230.914 279.251 236.251 279.251 245.722C279.251 254.777 272.311 260.122 265.302 260.122H260.352V230.914ZM346.749 224.287C345.754 224.26 344.779 224.317 343.804 224.369H328.586V266.667H337.217V251.04H343.394C347.069 251.04 348.318 252.285 349.53 255.581L354.112 266.667H364.38L357.385 251.9C356.135 249.437 355.708 248.609 353.662 247.359C353.662 247.359 361.074 245.312 360.657 237.091C360.657 227.013 353.71 224.477 346.749 224.287ZM337.217 231.323H342.985C347.494 231.323 351.197 232.582 351.576 237.091V238.277C351.197 242.824 347.494 244.045 342.985 244.045H337.217V231.323ZM296.545 266.667H321.626V259.697H305.146V224.349H296.545L296.545 266.667Z" fill="#231F20"/>
</svg>
