<svg width="480" height="320" viewBox="0 0 480 320" fill="none" xmlns="http://www.w3.org/2000/svg">
<path d="M203.166 53.4922L214.629 92.4182L176.645 80.4086V152.419L214.857 140.41L203.62 179.242H272.721L261.894 140.971L299.151 151.859V80.6423L262.121 91.5771L273.312 53.4922H203.166Z" fill="white"/>
<path d="M299.151 141.344C288.051 137.045 269.309 130.316 249.202 127.886C251.568 148.541 258.118 167.793 262.303 179.195H213.492C217.677 167.793 224.228 148.587 226.593 127.886C206.441 130.316 187.744 137.045 176.645 141.344V91.2029C187.744 95.5021 206.441 102.231 226.593 104.661C224.228 84.0065 217.677 64.8005 213.492 53.3984H262.303C258.118 64.8005 251.568 84.0065 249.202 104.708C269.354 102.278 288.051 95.5488 299.151 91.2497V141.344Z" fill="#ABB5BC"/>
<path d="M209.58 87.1842C206.577 74.1465 201.983 62.1369 199.071 53.3984H206.668C211.672 66.5295 217.131 85.1748 218.951 96.8105C207.624 94.9413 189.427 89.3805 176.645 84.1935V76.3896C185.151 79.427 196.842 84.1 209.58 87.1842Z" fill="#003E81"/>
<path d="M209.58 145.363C196.842 148.447 185.151 153.167 176.645 156.157V148.354C189.427 143.213 207.624 137.606 218.905 135.783C217.131 147.372 211.672 166.017 206.668 179.149H199.071C201.983 170.457 206.577 158.4 209.58 145.363Z" fill="#003E81"/>
<path d="M266.215 145.363C269.217 158.447 273.812 170.457 276.723 179.148H269.126C264.122 166.017 258.663 147.372 256.844 135.736C268.171 137.559 286.322 143.166 299.15 148.307V156.111C290.643 153.167 278.952 148.447 266.215 145.363Z" fill="#003E81"/>
<path d="M266.215 87.1842C278.952 84.1 290.643 79.3803 299.15 76.3896V84.1935C286.367 89.3337 268.171 94.9413 256.844 96.8105C258.663 85.2215 264.077 66.5295 269.126 53.3984H276.723C273.812 62.1369 269.217 74.1465 266.215 87.1842Z" fill="#003E81"/>
<path d="M92.8205 264.892H56.0684V213.952H69.2308V254.977H92.8205V264.892ZM138.291 264.892H125.983V260.618C123.761 262.328 121.538 263.695 119.658 264.55C117.778 265.405 115.556 265.918 112.82 265.918C108.547 265.918 105.299 264.721 103.077 262.328C100.855 259.935 99.6581 256.345 99.6581 251.559V226.601H111.966V245.747C111.966 247.627 111.966 249.336 112.137 250.533C112.308 251.901 112.479 252.926 112.991 253.781C113.504 254.636 114.017 255.319 115.043 255.661C115.897 256.003 117.094 256.174 118.803 256.174C119.829 256.174 121.026 256.003 122.222 255.661C123.419 255.319 124.786 254.636 125.983 253.952V226.772H138.291V264.892ZM174.872 220.619H174.017C173.504 220.448 172.82 220.277 171.795 220.106C170.94 219.935 169.915 219.764 168.889 219.764C166.496 219.764 164.786 220.277 163.932 221.131C163.077 221.986 162.564 223.695 162.564 226.089V226.43H172.137V234.807H163.077V264.892H150.769V234.807H145.47V226.43H150.769V225.405C150.769 220.789 151.966 217.2 154.53 214.807C157.094 212.413 160.855 211.217 165.812 211.217C167.692 211.217 169.231 211.217 170.769 211.388C172.308 211.559 173.504 211.73 174.701 211.901V220.619H174.872ZM204.103 264.55C202.735 264.892 201.367 265.234 199.829 265.405C198.291 265.576 196.581 265.747 194.359 265.747C189.573 265.747 185.983 264.721 183.59 262.841C181.197 260.96 180 257.542 180 252.926V234.977H174.872V226.601H180V215.661H192.308V226.601H203.761V234.977H192.308V252.242C192.308 253.268 192.479 254.123 192.82 254.977C193.162 255.832 193.675 256.345 194.53 256.858C195.385 257.371 196.581 257.542 198.12 257.542C198.803 257.542 199.658 257.371 200.684 257.2C201.709 256.858 202.393 256.687 202.906 256.516H203.932V264.55H204.103ZM272.65 226.43L260.684 264.892H247.692L239.829 238.909L232.137 264.892H218.974L207.179 226.43H220.171L226.667 252.926L234.872 226.43H245.812L253.675 252.926L260.171 226.43H272.65ZM303.419 254.807V246.772C301.709 246.943 300 247.114 297.949 247.285C296.068 247.456 294.53 247.798 293.504 248.14C292.308 248.482 291.282 249.166 290.598 249.849C289.914 250.533 289.573 251.559 289.573 252.755C289.573 253.61 289.573 254.123 289.744 254.636C289.914 255.148 290.256 255.661 290.769 256.003C291.282 256.516 291.966 256.858 292.65 257.029C293.333 257.2 294.53 257.371 296.068 257.371C297.265 257.371 298.632 257.2 299.829 256.687C301.367 256.345 302.393 255.661 303.419 254.807ZM303.419 260.789C302.735 261.302 301.88 261.815 301.026 262.67C300 263.354 299.145 263.866 298.291 264.379C297.094 264.892 295.897 265.405 294.53 265.576C293.162 265.918 291.795 265.918 290.256 265.918C286.667 265.918 283.59 264.721 281.026 262.499C278.461 260.277 277.265 257.371 277.265 253.781C277.265 251.046 277.949 248.653 279.145 246.943C280.342 245.234 282.222 243.695 284.444 242.67C286.667 241.644 289.573 240.96 292.991 240.448C296.41 239.935 299.829 239.764 303.419 239.422V239.251C303.419 237.2 302.564 235.661 300.855 234.807C299.145 233.952 296.581 233.61 293.162 233.61C291.111 233.61 288.889 233.952 286.667 234.636C284.444 235.319 282.735 235.832 281.709 236.345H280.513V227.114C281.88 226.772 283.932 226.43 286.838 225.918C289.744 225.405 292.65 225.234 295.726 225.234C302.735 225.234 307.863 226.26 310.94 228.482C314.017 230.704 315.556 233.952 315.556 238.567V264.721H303.419V260.789ZM351.795 220.619H350.94C350.427 220.448 349.744 220.277 348.718 220.106C347.863 219.935 346.838 219.764 345.812 219.764C343.419 219.764 341.709 220.277 340.855 221.131C340 221.986 339.487 223.695 339.487 226.089V226.43H349.06V234.807H340.171V264.892H327.863V234.807H322.564V226.43H327.863V225.405C327.863 220.789 329.06 217.2 331.624 214.807C334.188 212.413 337.949 211.217 342.906 211.217C344.786 211.217 346.325 211.217 347.863 211.388C349.402 211.559 350.598 211.73 351.795 211.901V220.619ZM381.367 220.619H380.513C380 220.448 379.316 220.277 378.291 220.106C377.436 219.935 376.41 219.764 375.385 219.764C372.991 219.764 371.282 220.277 370.427 221.131C369.573 221.986 369.06 223.695 369.06 226.089V226.43H378.632V234.807H369.573V264.892H357.265V234.807H352.137V226.43H357.436V225.405C357.436 220.789 358.632 217.2 361.197 214.807C363.761 212.413 367.521 211.217 372.479 211.217C374.359 211.217 375.897 211.217 377.436 211.388C378.974 211.559 380.171 211.73 381.367 211.901V220.619ZM423.932 247.798H395.726C395.897 250.875 397.094 253.097 399.145 254.636C401.197 256.174 404.444 257.029 408.547 257.029C411.111 257.029 413.675 256.516 416.068 255.661C418.461 254.807 420.513 253.781 421.88 252.584H423.248V262.499C420.513 263.695 417.778 264.379 415.385 264.892C412.991 265.405 410.256 265.576 407.179 265.576C399.487 265.576 393.504 263.866 389.402 260.448C385.299 257.029 383.248 252.071 383.248 245.576C383.248 239.251 385.128 234.294 389.06 230.533C392.991 226.772 398.291 224.892 405.128 224.892C411.453 224.892 416.068 226.43 419.145 229.678C422.222 232.755 423.932 237.371 423.932 243.354V247.798ZM411.624 240.619C411.624 238.054 410.94 236.174 409.744 234.807C408.547 233.439 406.667 232.926 404.103 232.926C401.709 232.926 399.829 233.61 398.291 234.807C396.752 236.003 395.897 238.054 395.726 240.789H411.624V240.619Z" fill="#003E81" stroke="#003E81" stroke-width="3.4188"/>
</svg>
