<svg width="480" height="320" viewBox="0 0 480 320" fill="none" xmlns="http://www.w3.org/2000/svg">
<mask id="mask0_730_18705" style="mask-type:luminance" maskUnits="userSpaceOnUse" x="55" y="124" width="370" height="72">
<path d="M55.3828 195.812H424.615V124.193H55.3828V195.812Z" fill="white"/>
</mask>
<g mask="url(#mask0_730_18705)">
<path d="M74.6672 172.265C74.6672 167.855 72.6821 163.787 67.7775 163.787C62.7694 163.787 61.0353 168.445 61.0353 172.708C61.0353 176.875 63.0671 181.189 67.7775 181.189C72.7804 181.189 74.6672 176.673 74.6672 172.265ZM80.3145 184.311C80.3145 192.047 75.8578 195.812 67.7258 195.812C62.5702 195.812 56.8192 193.827 56.2705 187.833H61.9282C62.6193 191.053 65.1971 191.602 68.0751 191.602C72.6329 191.602 74.6672 189.267 74.6672 185.053V181.14H74.5662C72.9797 183.964 70.0577 185.651 66.8846 185.651C58.7552 185.651 55.3828 179.505 55.3828 172.165C55.3828 165.275 59.6947 159.33 66.9829 159.33C70.2026 159.33 73.1272 160.616 74.5662 163.543H74.6672V160.026H80.3145V184.311ZM103.55 170.583C103.302 167.009 100.97 163.789 97.1057 163.789C93.1873 163.789 90.5086 166.76 90.361 170.583H103.55ZM90.361 174.3C90.361 178.314 92.5402 181.883 97.2533 181.883C100.571 181.883 102.505 180.447 103.501 177.62H108.848C107.665 183.226 102.802 186.342 97.2533 186.342C89.1756 186.342 84.7084 180.788 84.7084 172.861C84.7084 165.57 89.4707 159.33 97.1057 159.33C105.186 159.33 110.142 166.613 109.198 174.3H90.361ZM113.54 160.025H118.845V164.977H118.944C119.585 162.251 123.01 159.332 126.429 159.332C127.767 159.332 128.015 159.425 128.559 159.477V164.925C127.767 164.78 126.925 164.679 126.131 164.679C122.316 164.679 119.187 167.759 119.187 173.461V185.651H113.54V160.025ZM131.984 160.025H137.334V163.589H137.484C139.221 161.063 141.252 159.332 145.365 159.332C148.491 159.332 151.413 160.665 152.552 163.589C154.491 160.962 156.817 159.332 160.583 159.332C165.99 159.332 169.16 161.754 169.16 167.956V185.651H163.51V170.678C163.51 166.563 163.262 163.789 158.852 163.789C155.034 163.789 153.396 166.268 153.396 170.629V185.651H147.746V169.193C147.746 165.618 146.656 163.789 143.232 163.789C140.313 163.789 137.631 166.219 137.631 170.435V185.651H131.984V160.025ZM202.294 160.025H207.651V163.789L207.747 163.89C209.486 161.063 212.359 159.332 215.729 159.332C221.332 159.332 224.803 162.251 224.803 168.054V185.651H219.15V169.537C219 165.52 217.517 163.789 214.145 163.789C210.374 163.789 207.951 166.76 207.951 170.531V185.651H202.294V160.025ZM227.267 160.025H233.264L238.272 179.155H238.37L243.179 160.025H248.883L253.49 179.155H253.591L258.794 160.025H264.552L256.516 185.651H250.713L245.956 166.612H245.855L241.15 185.651H235.197L227.267 160.025ZM267.773 160.026H273.423V185.651H267.773V160.026ZM267.773 150.255H273.423V155.61H267.773V150.255ZM279.565 160.025H284.922V163.789L285.021 163.89C286.752 161.063 289.628 159.332 293 159.332C298.598 159.332 302.066 162.251 302.066 168.054V185.651H296.416V169.537C296.269 165.52 294.783 163.789 291.411 163.789C287.642 163.789 285.217 166.76 285.217 170.531V185.651H279.565V160.025ZM325.616 172.265C325.616 167.855 323.631 163.787 318.719 163.787C313.716 163.787 311.977 168.445 311.977 172.708C311.977 176.875 314.011 181.189 318.719 181.189C323.73 181.189 325.616 176.673 325.616 172.265ZM331.264 184.311C331.264 192.047 326.802 195.812 318.67 195.812C313.519 195.812 307.768 193.827 307.225 187.833H312.875C313.571 191.053 316.144 191.602 319.019 191.602C323.585 191.602 325.616 189.267 325.616 185.053V181.14H325.515C323.926 183.964 321.002 185.651 317.831 185.651C309.702 185.651 306.335 179.505 306.335 172.165C306.335 165.275 310.639 159.33 317.927 159.33C321.154 159.33 324.076 160.616 325.515 163.543H325.616V160.026H331.264V184.311ZM340.637 177.422C340.981 180.74 343.414 181.881 346.437 181.881C348.616 181.881 352.286 181.436 352.136 178.509C351.989 175.54 347.871 175.194 343.758 174.252C339.594 173.359 335.525 171.87 335.525 166.663C335.525 161.065 341.579 159.331 346.238 159.331C351.492 159.331 356.298 161.461 356.948 167.209H351.047C350.503 164.479 348.368 163.788 345.842 163.788C344.204 163.788 341.181 164.186 341.181 166.417C341.181 169.192 345.345 169.639 349.507 170.53C353.624 171.474 357.789 172.96 357.789 178.015C357.789 184.11 351.642 186.343 346.336 186.343C339.845 186.343 335.129 183.468 334.982 177.422H340.637ZM190.656 172.812C188.922 173.951 186.248 173.899 183.717 174.347C181.29 174.746 179.105 175.636 179.105 178.612C179.105 181.188 182.327 181.881 184.312 181.881C186.794 181.881 190.656 180.597 190.656 177.026V172.812ZM196.309 180.026C196.309 182.751 196.826 184.757 197.297 185.668H191.691C191.35 184.77 191.215 184.187 191.104 183.224C188.873 185.404 185.255 186.343 182.229 186.343C177.622 186.343 173.453 183.869 173.453 178.861C173.453 172.463 178.564 171.425 183.321 170.879C187.436 170.087 191.003 170.63 191.003 167.261C191.003 164.282 187.933 163.787 185.702 163.787C182.527 163.787 180.296 165.076 180.05 167.856H174.397C174.793 161.261 180.347 159.331 186.052 159.331C191.055 159.331 196.309 161.36 196.309 166.761V180.026Z" fill="#760B39"/>
<path d="M379.699 153.475C379.267 152.942 378.809 152.285 378.11 151.068C377.473 149.966 371.554 139.724 370.376 137.682C369.201 135.64 367.672 133.151 361.706 133.151C360.448 133.151 359.007 133.151 357.539 133.295C358.667 134.556 359.744 136.28 360.976 138.41C364.338 144.233 369.186 152.632 369.512 153.193C369.727 153.566 370.446 154.855 370.902 155.489C372.605 156.548 377.23 156.591 379.699 153.475Z" fill="#FAB20B"/>
<path d="M402.856 124.191C396.89 124.191 395.363 126.683 394.185 128.725C393.008 130.768 381.922 149.964 381.288 151.066C380.587 152.283 380.131 152.94 379.699 153.473C382.168 156.59 386.791 156.546 388.496 155.487C388.949 154.853 389.671 153.567 389.886 153.191C390.21 152.63 400.223 135.276 403.585 129.45C404.817 127.323 405.894 125.599 407.02 124.339C405.558 124.191 404.116 124.191 402.856 124.191Z" fill="#760B39"/>
<path d="M379.698 153.475C377.228 156.592 372.603 156.548 370.9 155.489C372.87 158.245 376.074 160.039 379.698 160.039C383.318 160.039 386.525 158.245 388.495 155.489C386.792 156.548 382.167 156.592 379.698 153.475Z" fill="#A90650"/>
<path d="M397.291 153.475C396.858 152.942 396.4 152.285 395.699 151.068C395.065 149.966 389.143 139.724 387.968 137.682C386.796 135.64 385.266 133.151 379.298 133.151C378.04 133.151 376.598 133.151 375.131 133.295C376.257 134.556 377.336 136.28 378.568 138.41C381.93 144.233 386.778 152.632 387.104 153.193C387.319 153.566 388.038 154.855 388.494 155.489C390.197 156.548 394.822 156.591 397.291 153.475Z" fill="#FAB20B"/>
<path d="M420.447 124.191C414.484 124.191 412.954 126.683 411.776 128.725C410.601 130.768 399.514 149.964 398.882 151.066C398.183 152.283 397.725 152.94 397.293 153.473C399.762 156.59 404.382 156.546 406.087 155.487C406.54 154.853 407.263 153.567 407.48 153.191C407.803 152.63 417.817 135.276 421.179 129.45C422.408 127.323 423.488 125.599 424.614 124.339C423.149 124.191 421.71 124.191 420.447 124.191Z" fill="#760B39"/>
<path d="M397.292 153.475C394.823 156.592 390.198 156.548 388.495 155.489C390.465 158.245 393.669 160.039 397.292 160.039C400.911 160.039 404.12 158.245 406.089 155.489C404.384 156.548 399.761 156.592 397.292 153.475ZM393.407 147.093C391.73 144.195 389.592 140.496 388.492 138.589C386.758 141.594 384.954 144.717 383.582 147.093C385.443 150.316 386.929 152.891 387.105 153.191C387.319 153.566 388.039 154.855 388.497 155.487C388.95 154.855 389.672 153.566 389.887 153.191C390.006 152.984 391.458 150.468 393.407 147.093Z" fill="#A90650"/>
</g>
</svg>
