<svg width="480" height="320" viewBox="0 0 480 320" fill="none" xmlns="http://www.w3.org/2000/svg">
<path opacity="0.25" d="M272.681 85.0566C268.022 85.0566 263.396 85.4862 258.836 86.3453C293.598 92.855 319.934 120.711 319.934 157.356C319.934 183.461 298.786 207.252 272.681 207.252C246.577 207.252 225.429 186.104 225.396 160.033C225.396 139.248 238.944 120.909 258.836 114.829C254.342 113.474 249.683 112.78 244.991 112.78C218.886 112.78 197.738 136.572 197.738 162.676C197.738 199.322 224.074 227.211 258.836 233.687C263.396 234.547 268.055 234.976 272.715 234.976C304.8 234.976 332.193 214.819 342.866 186.435V133.598C332.127 105.246 304.767 85.0566 272.681 85.0566Z" fill="#37322D"/>
<path d="M258.835 86.3455C254.275 85.4863 249.649 85.0568 244.99 85.0568C209.038 85.0568 179.001 110.368 171.732 144.139C171.467 145.296 170.476 146.089 169.287 146.089H132.806C131.418 146.089 130.295 147.212 130.295 148.567V171.235C130.295 172.623 131.418 173.746 132.806 173.746H164.826C166.213 173.746 167.337 174.87 167.337 176.257V187.492C167.337 188.682 166.907 189.838 166.114 190.764C149.097 210.524 119.291 212.771 99.4982 195.753C79.705 178.736 77.491 148.93 94.5086 129.137C108.453 112.946 131.485 108.121 150.749 117.374C151.906 117.968 153.326 117.539 154.02 116.415L165.652 96.8534C166.346 95.6638 165.982 94.1438 164.793 93.4168C164.76 93.3838 164.727 93.3838 164.66 93.3507C154.053 87.8655 142.257 84.9907 130.295 85.0237C88.9242 85.0568 55.3848 118.629 55.3848 160C55.3848 201.371 88.9242 234.943 130.328 234.943C151.476 234.976 171.6 226.054 185.808 210.392C186.734 209.367 188.32 209.301 189.344 210.226C189.41 210.293 189.476 210.326 189.509 210.392C207.022 229.656 233.259 238.446 258.835 233.688C224.073 227.211 197.737 199.322 197.737 162.677C197.737 136.572 218.885 112.78 244.99 112.78C271.094 112.78 292.242 133.928 292.242 160.033C292.242 180.818 278.694 199.124 258.835 205.237C263.329 206.625 267.988 207.319 272.68 207.286C298.785 207.286 319.933 183.494 319.933 157.39C319.9 120.711 293.597 92.8551 258.835 86.3455ZM422.104 205.138H372.968C371.58 205.138 370.457 204.014 370.457 202.626V89.7159C370.457 88.3281 369.333 87.2046 367.979 87.2046H345.311C343.923 87.2046 342.799 88.3281 342.799 89.7159V227.806C342.799 230.581 345.046 232.795 347.789 232.795H422.104C423.492 232.795 424.616 231.672 424.616 230.284V207.616C424.616 206.261 423.492 205.138 422.104 205.138Z" fill="#FF7020"/>
</svg>
