<svg width="480" height="320" viewBox="0 0 480 320" fill="none" xmlns="http://www.w3.org/2000/svg">
<path fill-rule="evenodd" clip-rule="evenodd" d="M201.673 157.512L364.567 149.883L376.656 141.434L201.674 157.16L201.673 157.512ZM222.916 146.95L397.192 128.523L414.325 116.437L222.915 146.597L222.916 146.95ZM142.292 151.057L327.48 121.014L343.091 110.1L142.174 150.704L142.292 151.057Z" fill="#E42237"/>
<path fill-rule="evenodd" clip-rule="evenodd" d="M137.361 167.017C148.51 167.017 156.489 174.53 156.489 186.733C156.49 198.94 148.51 206.568 137.362 206.568C126.096 206.568 118.115 198.94 118.115 186.733C118.115 174.529 126.095 167.017 137.362 167.017H137.361ZM126.565 186.733C126.565 195.067 130.907 199.642 137.362 199.642C143.817 199.642 148.158 195.062 148.158 186.733C148.158 178.519 143.818 173.939 137.363 173.939C130.907 173.939 126.564 178.518 126.565 186.733ZM221.271 205.746H209.419L209.42 167.839H223.033C235.59 167.839 243.804 173.353 243.804 186.617C243.804 200.228 234.064 205.746 221.271 205.746ZM222.329 174.293H217.282V199.056H222.093C229.839 199.056 235.353 195.417 235.353 186.849C235.353 178.399 231.013 174.294 222.329 174.294V174.293ZM282.65 205.746L270.446 189.433C276.665 188.376 280.537 184.267 280.537 178.047C280.537 171.712 275.726 167.839 266.337 167.839H251.666L251.668 205.746H259.646V186.617L272.909 205.746H282.65ZM259.646 184.853V174.058H265.282C269.74 174.058 272.441 175.231 272.441 178.87C272.441 182.508 269.858 184.853 265.28 184.853H259.646ZM296.849 205.746H288.987L288.988 167.839H296.849V205.746ZM350.131 189.665V205.746H342.151L342.149 167.839H350.131V182.979H367.967V167.839H375.833V205.746H367.967L367.969 189.665L350.131 189.665ZM182.309 167.017C193.458 167.017 201.438 174.53 201.438 186.733C201.438 198.94 193.458 206.568 182.309 206.568C171.044 206.568 163.062 198.94 163.062 186.733C163.062 174.529 171.044 167.017 182.309 167.017ZM171.513 186.733C171.513 195.067 175.855 199.642 182.309 199.642C188.646 199.642 193.107 195.066 193.107 186.733C193.107 178.519 188.646 173.943 182.309 173.939C175.857 173.939 171.513 178.518 171.513 186.733ZM333.23 197.647C330.882 198.704 327.95 199.407 325.252 199.407C317.622 199.407 313.28 195.417 313.28 186.849C313.28 179.34 317.271 174.058 324.781 174.058C327.597 174.058 329.827 174.409 333.115 175.818L333.816 168.542C331.118 167.72 327.95 167.132 325.367 167.132C311.167 167.132 304.83 176.173 304.83 187.084C304.83 198.234 311.167 206.448 323.608 206.448C326.776 206.448 330.415 205.746 333.817 204.569L333.23 197.647ZM109.431 166.311C105.441 164.788 100.629 163.613 95.4654 163.73C86.1932 163.73 77.8614 169.598 77.8614 181.451C77.8614 192.014 83.9642 198.704 94.5257 198.704C97.3424 198.704 100.043 198.234 102.272 197.532V180.514H110.957V203.516C106.028 205.391 99.3393 206.568 93.7051 206.568C78.4491 206.568 68.4723 196.12 68.4746 181.806C68.4739 165.845 79.975 155.867 96.1692 155.867C100.864 155.867 106.028 156.924 110.134 158.45L109.431 166.311Z" fill="#360054"/>
</svg>
