<svg width="480" height="320" viewBox="0 0 480 320" fill="none" xmlns="http://www.w3.org/2000/svg">
<path fill-rule="evenodd" clip-rule="evenodd" d="M261.427 53.334L252.034 61.7873H244.306L247.014 67.2037L242.405 74.4474L249.95 83.8116L256.472 81.5428L260.729 86.8828L265.17 77.4057L274.716 71.1526L268.739 63.733L268.972 62.6971L261.427 53.334ZM357.987 143.511C355.341 140.799 348.916 140.257 345.282 140.257C336.374 140.257 325.897 144.895 325.453 145.093L324.502 145.518L344.474 168.511L345.229 168.064C345.274 168.035 349.958 165.29 357.296 163.409L357.509 163.354L357.68 163.217C358.344 162.697 359.054 162.197 359.666 161.807L359.077 162.921C359.085 162.917 361.184 162.551 361.184 162.551L362.124 162.385C368.986 161.243 373.819 161.401 376.141 161.475C377.788 161.531 378.344 161.55 378.687 160.841C378.78 160.65 378.814 160.435 378.787 160.224C378.759 160.013 378.671 159.814 378.532 159.653C376.079 156.713 373.521 154.498 370.955 152.835C370.961 152.824 370.968 152.817 370.974 152.804C371.045 152.658 371.071 152.494 371.05 152.333C371.029 152.172 370.961 152.02 370.854 151.898C366.797 147.03 362.365 144.376 357.987 143.511Z" fill="black"/>
<path fill-rule="evenodd" clip-rule="evenodd" d="M357.681 144.248C354.884 141.711 349.195 141.039 345.282 141.039C336.437 141.039 325.772 145.809 325.772 145.809L328.359 148.845C329.399 148.045 332.348 146.16 336.352 146.848C336.352 146.848 332.534 147.339 329.773 150.507L331.311 152.309C332.31 151.501 335.586 149.209 339.755 149.927C339.755 149.927 335.841 150.425 332.745 153.992L334.052 155.529C335.203 154.632 338.907 152.093 343.072 152.812C343.072 152.812 339.157 153.314 335.486 157.215L337.221 159.252C337.221 159.252 341.971 156.428 349.561 154.479L357.598 144.595C357.598 144.595 355.553 149.775 353.519 153.607C353.834 153.549 354.153 153.493 354.475 153.44C364.88 151.706 370.691 152.92 370.257 152.4C366.351 147.714 362.039 145.351 357.682 144.248H357.681Z" fill="white"/>
<path fill-rule="evenodd" clip-rule="evenodd" d="M321.93 144.593H178.487C178.487 144.593 183.087 137.814 182.837 137.95L186.002 141.385C186.002 141.385 189.118 138.789 194.053 134.633L199.161 139.201C200.036 140.259 201.638 140.865 203.949 140.865C205.532 140.865 208.633 139.131 210.02 137.138L210.04 137.079C210.138 139.414 212.014 140.865 215.59 140.865C216.936 140.865 219.372 139.613 220.926 138.013C221.274 139.97 222.877 140.865 224.261 140.865C227.478 140.865 231.032 138.74 232.104 138.05L230.969 140.086H238.687L239.448 138.717L240.854 140.085H248.137L249.804 137.093L252.434 139.755C252.873 140.188 253.651 140.953 254.891 140.953C258.009 140.953 260.56 138.938 261.901 137.617L260.525 140.085H268.242L269.026 138.678L270.409 140.085H277.692L279.315 137.174L282.126 139.999C282.698 140.535 283.429 140.753 284.65 140.753C287.651 140.753 289.925 139.085 291.301 137.766C291.715 139.695 293.559 140.865 296.769 140.865C298.116 140.865 300.552 139.613 302.105 138.013C302.454 139.97 304.054 140.865 305.44 140.865C307.421 140.865 310.074 139.629 310.85 139.247L310.382 140.085H318.098L320.234 136.252L323.638 139.5L323.672 139.489C324.171 139.856 324.955 140.085 326.14 140.085H338.854V137.397L333.276 131.043C334.488 129.035 338.033 123.374 335.488 121.945L328.873 114.128C328.366 113.23 327.398 112.773 326 112.773C324.092 112.773 322.555 113.105 321.341 113.558L321.778 112.773H312.274L312.05 113.172L311.253 114.602L310.573 113.113L309.435 112.773H301.26L301.036 113.172L300.967 113.297C300.379 112.997 299.499 112.771 298.172 112.771C295.116 112.771 291.377 113.725 288.072 117.247L287.122 115.169C287.086 114.749 286.957 114.343 286.746 113.979C286.639 113.806 286.511 113.648 286.364 113.507L285.754 113.088C285.37 112.9 284.88 112.771 284.234 112.771C281.376 112.771 279.461 113.737 278.324 114.592C278.235 114.258 278.077 113.947 277.859 113.679C277.36 113.076 276.586 112.771 275.563 112.771C273.889 112.771 272.543 113.103 271.482 113.549L271.915 112.771H262.411L259.237 118.471L257.408 114.469C257.352 114.298 257.278 114.134 257.187 113.979L257.176 113.962L256.312 113.143C255.913 112.924 255.385 112.771 254.676 112.771C251.819 112.771 249.905 113.737 248.766 114.592C248.677 114.258 248.519 113.947 248.301 113.679C247.803 113.076 247.028 112.771 246.004 112.771C244.332 112.771 242.986 113.103 241.925 113.549L242.358 112.771H232.863L231.063 116.001L229.588 112.771H220.086L219.02 114.686L218.185 112.771H208.672L205.688 118.187C205.688 118.187 205.117 115.409 204.434 114.251C203.936 113.406 202.884 113.207 201.199 113.207C199.234 113.207 196.917 109.3 196.069 108.176C197.603 104.438 196.34 100.949 194.587 97.9432C192.767 94.8222 187.434 86.2681 187.434 86.2681L187.441 86.3213C187.078 85.8064 186.672 85.3232 186.227 84.877C182.417 81.0653 175.366 79.2148 164.674 79.2148C157.501 79.2148 141.672 81.4505 127.46 87.604C115.48 92.7902 101.203 102.358 101.203 118.494C101.203 122.279 102.071 126.367 104.79 129.821L110.145 137.255L110.152 137.235C112.9 140.872 117.486 143.422 124.2 144.592H111.147L114.895 149.275H115.269L114.895 150.673H112.802L126.151 162.894H141.878L131.779 179.336L137.584 190.031L144.808 200.007L167.376 162.892H206.989L215.771 165.672L218.556 168.795L228.965 171.07L231.75 174.19L239.241 176.271L241.208 178.477L227.528 201.228L227.568 201.503L228.578 208.572L227.33 211.675L228.378 219.016L227.367 221.721L228.415 229.062L227.828 231.065L228.876 238.406L229.332 238.675L229.231 239.186L230.24 246.254L230.771 246.733L231.781 253.805L232.749 253.559L233.758 260.626L241.873 266.667L294.341 179.397H310.102L315.175 176.273L325.399 174.193L327.881 171.072L342.294 168.796L321.93 144.593Z" fill="black"/>
<path fill-rule="evenodd" clip-rule="evenodd" d="M172.592 105.626C166.349 109.476 156.837 112.475 144.408 112.746C149.159 109.528 157.844 106.245 172.592 105.626ZM187.898 114.128C187.805 114.56 187.751 114.999 187.737 115.44C187.704 116.717 186.925 118.44 185.529 120.31L181.991 118.475C184.169 117.179 186.181 115.734 187.898 114.128ZM181.038 96.0762C180.653 97.6445 179.722 99.3046 178.286 100.947L174.562 95.3812C174.82 95.3801 175.079 95.3745 175.337 95.3745C177.565 95.3745 179.459 95.6258 181.038 96.0762ZM126.651 110.713C126.509 111.39 126.437 112.08 126.436 112.772C126.436 114.579 127.361 116.103 129.116 117.312L132.405 122.247C133.274 124.664 136.511 126.496 142.202 127.352C138.036 128.146 133.836 128.638 129.818 128.638C124.025 128.638 120.023 127.092 117.395 125.112C117.875 120.154 121.249 115.157 126.651 110.713ZM146.413 144.592C149.043 144.2 151.641 143.618 154.187 142.852L153.118 144.592H146.413ZM245.568 62.5672L247.911 67.251L244.269 72.9729L250.252 70.8922L253.114 75.8338L257.014 67.51L264.559 62.5672H258.576L260.136 55.5449L252.334 62.5672H245.568Z" fill="white"/>
<path fill-rule="evenodd" clip-rule="evenodd" d="M175.945 129.333L177.68 131.674C177.68 131.674 183.964 128.976 190.252 120.403C191.206 119.102 194.868 119.027 194.004 120.587L193.982 120.835L193.163 122.322C192.574 123.51 191.321 125.304 190.817 126.818C189.62 130.41 191.424 132.802 196.018 132.802C197.601 132.802 200.702 131.067 202.089 129.074L202.111 129.013C202.207 131.35 204.085 132.802 207.661 132.802C209.005 132.802 211.442 131.548 212.996 129.946C213.346 131.905 214.946 132.802 216.332 132.802C219.547 132.802 223.103 130.676 224.173 129.985L223.04 132.021H230.755L236.187 122.27C237.393 120.493 238.837 121.31 238.008 122.89L232.922 132.02H240.204L245.118 123.203C245.246 122.958 245.376 122.714 245.509 122.472C246.737 120.438 248.316 121.255 247.458 122.892L245.493 126.42C244.942 127.427 242.318 132.89 246.959 132.89C250.077 132.89 252.626 130.877 253.969 129.554L252.594 132.022H260.312L265.742 122.271C266.949 120.496 268.393 121.312 267.564 122.891L262.477 132.022H269.76L274.672 123.204C274.8 122.959 274.93 122.716 275.063 122.473C276.291 120.44 277.87 121.256 277.011 122.894L275.047 126.421C274.498 127.429 271.874 132.891 276.513 132.891C279.514 132.891 281.992 131.024 283.368 129.706C283.781 131.634 285.625 132.805 288.836 132.805C290.182 132.805 292.619 131.55 294.171 129.949C294.522 131.907 296.123 132.805 297.507 132.805C299.487 132.805 302.142 131.568 302.916 131.186L302.449 132.025H310.166L315.496 122.452C316.933 120.445 319.475 121.263 318.494 122.892L316.24 126.42C315.61 127.427 312.889 132.022 318.207 132.022H330.922V129.334C322.046 129.334 322.046 128.206 323.498 125.879L325.207 123.203C326.409 121.184 331.382 113.554 326.001 113.554C322.596 113.554 320.472 114.673 319.372 115.491L320.453 113.554H312.736L306.179 125.259C304.27 128.728 302.103 127.081 303.101 124.936L309.442 113.554H301.725L301.215 114.472C300.982 114.144 300.274 113.553 298.18 113.553C295.306 113.553 287.835 114.332 283.666 126.731C282.582 127.344 281.475 126.802 282.06 125.877L283.55 123.202C284.598 121.183 288.935 113.552 284.242 113.552C279.571 113.552 277.653 116.325 277.653 116.325L277.575 116.51C277.889 114.847 277.523 113.551 275.57 113.551C271.785 113.551 269.81 115.371 269.195 116.062L270.597 113.55H262.879L256.022 125.859C253.579 128.235 251.78 127.01 252.502 125.876L253.992 123.199C255.04 121.181 259.377 113.551 254.685 113.551C250.012 113.551 248.096 116.324 248.096 116.324L248.018 116.509C248.33 114.846 247.964 113.549 246.011 113.549C242.226 113.549 240.251 115.37 239.639 116.061L241.038 113.549H233.321L228.086 122.948C222.519 129.684 220.537 127.717 221.922 124.93L228.261 113.549H220.544L215.113 123.173C212.794 128.114 208.719 128.202 210.886 124.127L216.847 113.549H209.13L204.257 122.395L204.149 122.621C201.09 127.585 197.248 127.885 199.246 124.128L201.977 119.284C202.65 118.144 206.379 113.551 201.262 113.982C196.147 114.417 195.367 113.811 195.367 112.337C195.367 110.861 196.581 108.088 194.151 108.088C191.723 108.088 188.603 112.077 188.516 115.459C188.431 118.841 183.834 124.999 175.945 129.334V129.333Z" fill="white"/>
<path fill-rule="evenodd" clip-rule="evenodd" d="M291.264 125.517C292.813 118.888 298.122 117.559 298.792 118.815L296.294 123.176C294.125 127.686 290.581 128.433 291.264 125.518V125.517Z" fill="black"/>
<path fill-rule="evenodd" clip-rule="evenodd" d="M293.062 160.472H334.643L331.94 157.35H294.937L296.607 154.575H329.54L326.837 151.454H298.483L300.264 148.495H324.275L321.574 145.374H163.796L180.28 118.233L177.679 115.634C177.679 115.634 151.407 129.419 129.817 129.419C116.293 129.419 112.389 121.357 112.389 118.233C112.389 103.146 139.963 87.2799 170.396 87.2799C193.286 87.2799 181.581 113.552 142.561 113.552C138.661 113.552 134.499 113.552 134.499 110.69C134.499 107.828 142.562 97.4232 172.736 97.4232L174.037 94.5611C174.037 94.5611 170.395 93.5208 165.452 93.5208C151.665 93.5208 127.214 100.544 127.214 112.77C127.214 116.932 133.197 119.793 145.422 119.793C152.187 119.793 188.863 113.029 188.862 93.7798C188.862 83.1152 178.716 79.9941 164.672 79.9941C149.845 79.9941 101.983 89.3572 101.983 118.491C101.983 129.937 109.786 137.221 128.515 137.221C137.62 137.221 148.545 137.221 164.153 128.117L153.552 145.371H112.769L115.265 148.492H151.638L149.821 151.45H114.893L118.497 154.571H147.903L132.677 179.359L137.618 188.463L158.204 154.572H256.481L254.813 157.348H208.114L210.9 160.47H252.937L251.569 162.743H221.31L224.094 165.866H249.693L248.443 167.947H231.584L234.369 171.071H246.567L228.336 201.392L229.036 206.288L250.209 171.071H252.648L228.137 211.839L228.838 216.735L256.289 171.072H258.728L228.179 221.885L228.879 226.781L262.37 171.072H264.809L228.641 231.23L229.338 236.126L268.448 171.074H270.886L230.001 239.078L230.701 243.975L274.529 171.075H276.966L231.545 246.628L232.242 251.522L280.608 171.075H283.045L233.523 253.452L234.22 258.344L286.686 171.075H302.449L307.522 167.953H288.563L289.815 165.871H317.745L320.227 162.748H291.693L293.062 160.472Z" fill="white"/>
<path fill-rule="evenodd" clip-rule="evenodd" d="M294.84 151.453H292.403L294.182 148.495H296.621L294.84 151.453ZM288.761 151.453H286.323L288.101 148.495H290.54L288.761 151.453ZM282.778 157.35L284.446 154.574H286.885L285.217 157.35H282.778ZM282.678 151.453H280.241L282.02 148.495H284.459L282.678 151.453ZM276.698 157.35L278.365 154.574H280.804L279.135 157.35H276.698ZM276.6 151.453H274.162L275.941 148.495H278.38L276.6 151.453ZM270.618 157.35L272.284 154.574H274.723L273.056 157.35H270.618ZM270.52 151.453H268.082L269.86 148.495H272.298L270.52 151.453ZM264.537 157.35L266.204 154.574H268.644L266.976 157.35H264.537ZM264.44 151.453H262.002L263.78 148.495H266.219L264.44 151.453ZM258.456 157.35L260.124 154.574H262.562L260.894 157.35H258.456ZM260.137 148.495L258.361 151.453H160.101L161.898 148.495H260.137ZM253.335 165.868H255.773L254.522 167.949H252.083L253.335 165.868ZM259.018 160.472L257.65 162.746H255.211L256.579 160.472H259.018ZM259.416 165.868H261.853L260.602 167.949H258.165L259.416 165.868ZM265.099 160.472L263.73 162.746H261.291L262.661 160.472H265.099ZM265.497 165.868H267.934L266.681 167.949H264.244L265.497 165.868ZM271.178 160.472L269.81 162.746H267.372L268.74 160.472H271.178ZM271.576 165.868H274.014L272.763 167.949H270.326L271.576 165.868ZM277.26 160.472L275.892 162.746H273.453L274.82 160.472H277.26ZM277.656 165.868H280.095L278.845 167.949H276.405L277.656 165.868ZM283.339 160.472L281.971 162.746H279.532L280.9 160.472H283.339ZM283.735 165.868H286.175L284.924 167.949H282.485L283.735 165.868ZM286.981 160.472H289.42L288.053 162.746H285.613L286.981 160.472ZM292.965 154.574L291.294 157.35H288.86L290.525 154.574H292.965ZM350.224 143.985C350.224 143.985 346.842 143.553 344.674 146.586C343.569 148.133 342.679 146.24 343.634 145.2C344.589 144.16 348.835 142.684 350.224 143.985ZM349.792 145.286C349.792 145.286 347.711 144.411 347.711 146.672C347.71 148.321 351.438 145.286 349.792 145.286Z" fill="black"/>
</svg>
