<svg width="480" height="320" viewBox="0 0 480 320" fill="none" xmlns="http://www.w3.org/2000/svg">
<path d="M78.5258 182.347L71.4793 191.74C71.4793 191.74 138.181 200.666 195.958 146.177C195.958 146.177 167.304 198.318 63.9637 203.016L55.3848 214.695C55.3848 214.695 143.346 213.344 181.396 169.659C181.396 169.659 201.597 147.583 218.977 105.307C218.977 105.307 194.083 175.774 78.5258 182.346" fill="#C93551"/>
<path d="M242.207 191.003C238.285 201.014 228.754 206.641 220.914 203.573C213.074 200.502 209.898 189.897 213.821 179.886C217.739 169.876 227.27 164.247 235.112 167.318C242.949 170.389 246.127 180.991 242.207 191.003ZM232.7 156.074C232.7 156.074 192.923 157.236 192.923 188.884C192.923 188.884 189.733 214.433 223.7 214.433C223.7 214.433 260.862 218.205 263.766 183.075C263.766 183.075 268.122 156.074 232.7 156.074" fill="#5A5C5D"/>
<path d="M377.171 195.487L392.648 170.121L399.42 195.487H377.171ZM406.905 158.107H393.549C393.549 158.107 385.235 156.901 377.175 169.8C368.328 183.956 348.692 212.038 348.692 212.038L356.215 157.977H335.361C335.361 157.977 327.514 157.76 322.034 167.219L307.416 192.906L300.11 164.21C300.11 164.21 298.711 157.76 292.155 157.76L268.401 157.654L260.283 213.272H276.542L283.51 168.849L295.704 213.272H310.802L336.932 169.139L330.834 213.272H365.967L370.031 206.302H402.259L403.711 213.272H424.616L406.905 158.107Z" fill="#5A5C5D"/>
</svg>
