<svg width="480" height="320" viewBox="0 0 480 320" fill="none" xmlns="http://www.w3.org/2000/svg">
<path d="M87.0754 124.07C95.0609 123.021 103.382 124.68 110.315 128.794C117.721 133.123 123.512 140.148 126.283 148.271C129.237 156.795 128.831 166.436 125.126 174.668C121.71 182.41 115.471 188.83 107.874 192.538C99.6963 196.571 89.9859 197.332 81.2654 194.695C72.9364 192.213 65.5715 186.636 60.9471 179.274C57.3016 173.509 55.2886 166.694 55.3883 159.861C55.3366 150.575 59.1742 141.393 65.6527 134.771C71.3223 128.927 78.9976 125.086 87.0754 124.07ZM77.1434 153.279C76.6706 153.549 76.1572 153.815 75.5958 153.648C72.6299 153.142 69.6676 152.581 66.7054 152.034C66.1329 151.983 65.4828 151.691 64.9472 152.034C62.5021 153.382 60.0902 154.793 57.6635 156.175C76.0242 166.469 94.4071 176.726 112.812 186.938C112.856 182.647 112.838 178.351 112.834 174.055C108.638 173.28 104.439 172.534 100.247 171.736C104.402 169.383 108.579 167.067 112.779 164.799C112.868 160.622 112.794 156.441 112.816 152.26C106.352 155.935 99.9142 159.65 93.4357 163.296C91.6997 162.277 89.9305 161.313 88.2056 160.267C96.4349 155.517 104.79 150.985 113.06 146.306C113.052 141.895 113.063 137.482 113.056 133.072C101.085 139.809 89.1105 146.535 77.1434 153.279ZM146.756 139.029C151.144 139.026 155.532 139.026 159.92 139.026C159.964 143.968 159.824 148.906 159.946 153.844C164.714 153.874 169.479 153.815 174.247 153.822C174.28 148.884 174.255 143.945 174.258 139.003C178.665 138.996 183.067 139.003 187.47 139.003C187.455 153.135 187.492 167.27 187.492 181.402C183.082 181.394 178.672 181.424 174.262 181.372C174.258 175.669 174.262 169.97 174.258 164.267C169.479 164.264 164.699 164.264 159.92 164.267C159.92 169.97 159.924 175.669 159.92 181.369C155.524 181.431 151.129 181.406 146.734 181.372C146.726 167.259 146.767 153.142 146.756 139.029ZM235.099 139.003C239.029 139 242.962 139 246.892 139.003C246.888 144.178 246.892 149.349 246.918 154.524C248.48 153.124 250.087 151.691 252.071 150.926C254.545 149.959 257.301 149.785 259.908 150.247C262.582 150.742 265.068 152.441 266.276 154.912C267.469 157.235 267.665 159.902 267.665 162.465C267.665 168.777 267.665 175.09 267.661 181.402C263.716 181.406 259.772 181.402 255.823 181.402C255.808 175.817 255.853 170.232 255.797 164.648C255.738 163.085 255.694 161.257 254.423 160.142C252.506 158.557 249.234 159.071 247.956 161.231C246.907 163.045 246.94 165.224 246.892 167.252C246.903 171.957 246.866 176.663 246.914 181.372C242.977 181.431 239.036 181.391 235.099 181.402C235.095 167.27 235.095 153.135 235.099 139.003ZM330.732 181.398C335.999 167.244 341.377 153.131 346.707 139.003C351.483 139 356.259 139 361.038 139.003C366.357 153.135 371.679 167.267 376.991 181.398C372.422 181.409 367.856 181.391 363.287 181.409C362.56 179.097 361.869 176.77 361.201 174.439C356.188 174.384 351.176 174.403 346.164 174.414C345.477 176.744 344.797 179.075 344.11 181.402C339.649 181.402 335.19 181.406 330.732 181.398ZM349.067 165.206C352.173 165.254 355.28 165.231 358.39 165.22C356.831 160.164 355.317 155.093 353.74 150.04C352.092 155.067 350.633 160.153 349.067 165.206ZM380.884 139.003C384.814 139 388.74 139.003 392.67 139C392.729 141.674 392.699 144.352 392.651 147.03C388.736 147.026 384.821 147.03 380.909 147.026C380.858 144.352 380.891 141.678 380.884 139.003ZM207.77 150.114C211.235 149.903 214.725 149.995 218.175 150.405C220.993 150.753 223.94 151.805 225.724 154.132C227.213 156.212 227.926 158.79 228 161.327C228.059 166.369 227.941 171.411 228.062 176.452C228.062 178.203 228.768 179.821 229.436 181.402C225.75 181.406 222.068 181.406 218.382 181.391C217.706 180.261 217.336 178.994 217.111 177.708C215.682 178.894 214.226 180.109 212.487 180.803C209.369 182.07 205.908 182.274 202.592 181.926C199.869 181.612 197.136 180.371 195.518 178.085C192.992 174.646 193.594 169.106 197.144 166.583C199.851 164.744 203.171 164.315 206.296 163.617C209.742 162.93 213.199 162.192 216.472 160.884C216.361 159.658 216.254 158.092 214.987 157.482C213.018 156.721 210.769 156.936 208.786 157.545C207.401 157.992 206.717 159.366 206.178 160.603C202.414 160.26 198.662 159.824 194.905 159.436C195.445 157.227 196.231 154.93 198.03 153.416C200.645 150.971 204.346 150.413 207.77 150.114ZM209.716 168.858C208.387 169.342 206.802 169.774 206.13 171.152C205.317 172.67 206.182 174.768 207.833 175.267C210.662 176.102 214.023 174.949 215.622 172.438C216.605 170.746 216.428 168.714 216.457 166.838C214.23 167.588 211.958 168.168 209.716 168.858ZM292.644 150.561C295.499 149.826 298.632 149.73 301.417 150.815C303.33 151.562 304.966 152.998 305.893 154.838C307.046 157.061 307.311 159.614 307.315 162.084C307.319 168.522 307.297 174.96 307.337 181.402C303.385 181.406 299.433 181.398 295.481 181.406C295.477 175.817 295.466 170.229 295.448 164.64C295.392 163.13 295.367 161.39 294.203 160.26C292.293 158.505 288.818 159.067 287.555 161.331C286.605 163.004 286.598 164.991 286.546 166.864C286.55 171.71 286.513 176.556 286.52 181.402C282.59 181.394 278.657 181.428 274.727 181.372C274.719 171.156 274.731 160.943 274.756 150.73C278.417 150.712 282.077 150.727 285.737 150.719C285.741 152.356 285.737 153.988 285.745 155.621C287.636 153.471 289.797 151.336 292.644 150.561ZM415.758 150.634C418.647 149.327 421.919 150.254 424.615 151.598C423.43 154.402 422.181 157.183 420.948 159.968C419.119 159.255 416.833 158.594 415.123 159.935C412.977 161.682 412.678 164.681 412.386 167.248C412.098 171.961 412.246 176.685 412.22 181.402C408.271 181.402 404.323 181.402 400.378 181.406C400.363 171.178 400.375 160.951 400.371 150.723C404.042 150.719 407.714 150.723 411.385 150.723C411.381 152.348 411.407 153.973 411.415 155.599C412.571 153.737 413.62 151.543 415.758 150.634ZM380.88 150.734C384.81 150.69 388.743 150.675 392.677 150.727C392.733 160.954 392.692 171.178 392.696 181.406C388.758 181.398 384.821 181.406 380.884 181.402C380.876 171.178 380.891 160.958 380.88 150.734Z" fill="#084294"/>
</svg>
