<svg width="480" height="320" viewBox="0 0 480 320" fill="none" xmlns="http://www.w3.org/2000/svg">
<path d="M86.9828 116.759C91.467 115.616 96.0602 114.928 100.676 114.621C92.2719 115.36 83.8554 117.675 76.7551 122.338C72.3096 125.277 68.3478 129.27 66.3706 134.294C64.7645 138.311 64.6925 142.915 66.2229 146.965C68.0321 151.856 71.7503 155.812 75.9724 158.762C79.5207 161.255 83.5046 163.053 87.5975 164.448C91.7846 165.844 96.0528 167.177 99.8319 169.51C102.252 170.997 104.471 172.952 105.786 175.507C106.755 173.611 108.245 172.019 109.932 170.744C113.911 167.751 118.707 166.186 123.379 164.65C128.417 162.981 133.325 160.704 137.473 157.352C141.259 154.315 144.459 150.32 145.793 145.597C146.962 141.595 146.563 137.203 144.839 133.424C142.644 128.563 138.636 124.745 134.183 121.924C127.186 117.531 119.004 115.31 110.82 114.625C118.76 115.12 126.66 116.801 133.993 119.921C138.684 121.934 143.15 124.559 146.967 127.965C150.123 130.795 152.84 134.201 154.487 138.134C155.764 141.13 156.353 144.42 156.141 147.674C155.929 151.699 154.551 155.635 152.308 158.975C149.294 163.499 144.935 166.966 140.26 169.656C137.414 171.292 134.421 172.656 131.353 173.819C126.878 175.54 122.449 177.502 118.517 180.281C114.669 182.961 111.317 186.408 109.002 190.503C107.48 193.158 106.428 196.063 105.782 199.052C104.599 193.665 101.949 188.6 98.1002 184.636C93.3981 179.699 87.2154 176.517 80.9219 174.098C76.3748 172.387 71.9349 170.31 67.9325 167.53C63.6014 164.537 59.7374 160.655 57.4888 155.84C55.2052 150.975 54.7104 145.243 56.3498 140.109C58.0242 134.779 61.674 130.284 65.9608 126.796C72.0678 121.875 79.421 118.696 86.9828 116.759Z" fill="#E60012"/>
<path d="M94.4128 116.755C95.8712 116.471 97.3334 116.181 98.8213 116.098C93.2977 116.777 87.8627 118.533 83.0922 121.424C79.4092 123.704 76.0548 126.813 74.2899 130.837C72.7705 134.223 72.728 138.218 74.1385 141.645C75.6302 145.346 78.5655 148.278 81.8461 150.458C86.6442 153.624 92.2048 155.452 97.8134 156.537C100.621 157.063 103.61 157.665 105.776 159.674C108.01 157.601 111.109 157.03 113.998 156.486C118.536 155.599 123.004 154.196 127.095 152.014C130.837 150.006 134.339 147.26 136.492 143.537C138.436 140.227 139.001 136.108 137.852 132.427C136.71 128.644 134.038 125.515 130.953 123.135C126.342 119.613 120.772 117.532 115.108 116.439C114.31 116.268 113.496 116.186 112.686 116.107C114.53 116.184 116.339 116.583 118.139 116.965C124.106 118.317 129.947 120.695 134.762 124.531C138.009 127.138 140.78 130.531 141.999 134.565C143.225 138.532 142.715 142.979 140.662 146.585C138.471 150.489 134.893 153.399 131.077 155.627C127.891 157.483 124.473 158.904 120.981 160.058C117.475 161.238 113.825 161.983 110.41 163.436C108.569 164.219 106.804 165.388 105.776 167.151C104.735 165.369 102.947 164.197 101.087 163.414C97.2614 161.804 93.1574 161.042 89.2694 159.615C83.9378 157.713 78.6892 155.179 74.5446 151.246C71.7256 148.571 69.5656 145.062 69.0413 141.165C68.5114 137.574 69.3681 133.848 71.2382 130.758C73.0917 127.642 75.7889 125.099 78.7686 123.067C83.4707 119.891 88.8817 117.892 94.4128 116.755Z" fill="#E60012"/>
<path d="M85.4297 121.892C88.8026 119.778 92.5835 118.327 96.4807 117.55C92.9213 118.427 89.4801 119.891 86.5023 122.051C83.9583 123.923 81.7448 126.424 80.7626 129.474C79.8414 132.247 80.1553 135.365 81.514 137.942C83.3841 141.546 86.7589 144.118 90.3404 145.872C96.3367 148.757 103.171 149.641 109.76 149.006C115.289 148.432 120.839 146.741 125.325 143.37C128.155 141.232 130.555 138.229 131.173 134.656C131.749 131.577 130.799 128.355 128.947 125.874C126.412 122.428 122.607 120.144 118.662 118.648C117.486 118.202 116.282 117.84 115.064 117.537C118.274 118.165 121.392 119.289 124.289 120.807C127.811 122.692 131.092 125.328 133.016 128.895C134.515 131.638 134.954 134.967 134.072 137.978C133.11 141.349 130.739 144.136 128.007 146.239C124.4 148.993 120.126 150.792 115.721 151.796C113.279 152.366 110.759 152.521 108.318 153.118C107.356 153.336 106.465 153.823 105.789 154.543C104.258 152.887 101.846 152.869 99.7815 152.483C94.5681 151.825 89.4229 150.19 85.0217 147.275C82.0771 145.314 79.4149 142.715 78.0174 139.414C76.7473 136.471 76.7454 133.026 78.0045 130.078C79.4574 126.605 82.2931 123.888 85.4297 121.892Z" fill="#E60012"/>
<path d="M104.756 120.175C107.147 119.911 109.628 120.594 111.533 122.06C113.727 123.712 115.148 126.335 115.331 129.077C115.523 131.501 114.759 133.991 113.226 135.885C111.583 137.953 109.056 139.295 106.416 139.454C103.92 139.635 101.378 138.765 99.5039 137.109C97.4713 135.346 96.2417 132.706 96.2011 130.017C96.1273 127.463 97.1168 124.903 98.8928 123.068C100.425 121.454 102.541 120.406 104.756 120.175ZM325.687 128.399C326.13 126.633 326.409 124.829 326.719 123.038C328.623 123.282 330.526 123.526 332.435 123.769C332.067 125.316 331.685 126.86 331.281 128.399C333.819 128.399 336.354 128.396 338.893 128.403C338.885 141.716 338.893 155.028 338.889 168.341C338.928 170.746 336.736 172.838 334.364 172.843C332.568 172.867 330.777 172.847 328.981 172.854C328.541 171.065 328.096 169.278 327.661 167.493C329.276 167.475 330.899 167.56 332.514 167.493C333.225 167.467 333.784 166.817 333.707 166.112C333.718 160.775 333.71 155.447 333.714 150.112H324.751C324.679 157.998 324.002 166.101 320.824 173.416C319.202 172.253 317.583 171.08 315.956 169.923C318.873 163.768 319.551 156.841 319.558 150.112C318.389 150.11 317.221 150.112 316.058 150.112C316.058 148.448 316.054 146.785 316.058 145.123H319.558V128.399H325.687ZM324.742 133.436V145.123H333.709V133.439C330.722 133.436 327.731 133.439 324.742 133.436ZM207.001 137.139C210.366 132.823 213.654 128.335 215.727 123.232C217.372 123.814 219.014 124.397 220.655 124.98C220.197 126.123 219.7 127.249 219.172 128.362H246.486V132.963C236.522 132.965 226.555 132.963 216.588 132.965C215.011 135.463 213.281 137.855 211.452 140.172C209.969 139.162 208.483 138.149 207.001 137.139ZM279.541 123.734H284.906V128.373H305.553V133.288H284.906V137.506H303.637V165.924C303.598 167.118 303.796 168.376 303.312 169.507C302.684 171.089 301.117 172.295 299.389 172.319C297.546 172.345 295.7 172.326 293.854 172.33C293.443 170.707 293.033 169.088 292.621 167.465C294.131 167.454 295.647 167.488 297.157 167.454C297.687 167.454 298.224 167.087 298.333 166.546C298.42 166.037 298.372 165.514 298.379 164.999V142.319C295.152 142.312 291.925 142.338 288.702 142.332C289.927 142.832 291.157 143.329 292.387 143.828C291.785 145.345 291.124 146.842 290.359 148.288C292.054 148.291 293.749 148.288 295.444 148.288V152.706H284.851C284.847 153.972 284.847 155.237 284.851 156.503C288.391 156.505 291.936 156.505 295.477 156.503C295.481 157.954 295.481 159.407 295.477 160.858H284.851V171.128H279.694C279.694 167.705 279.694 164.279 279.691 160.858H268.856C268.856 159.405 268.852 157.954 268.856 156.505C272.469 156.503 276.081 156.505 279.691 156.503C279.694 155.237 279.694 153.972 279.691 152.706H268.833C268.83 151.234 268.83 149.759 268.833 148.288C270.709 148.288 272.583 148.291 274.459 148.288C273.975 146.706 273.283 145.192 272.421 143.785C273.711 143.309 275.005 142.84 276.301 142.362C272.886 142.354 269.476 142.384 266.061 142.373V172.337H260.806V137.51H279.537V133.29H258.685C258.682 131.652 258.682 130.017 258.682 128.379C265.634 128.375 272.585 128.379 279.537 128.379C279.541 126.826 279.541 125.283 279.541 123.734ZM276.962 142.36C277.983 144.243 278.769 146.244 279.403 148.288H285.118C286.117 146.366 287.025 144.394 287.686 142.33C284.11 142.36 280.536 142.34 276.962 142.36ZM348.873 123.723H355.067C355.07 125.713 355.067 127.7 355.07 129.69H364.452C364.449 131.488 364.452 133.281 364.449 135.077C356.488 135.069 348.526 135.077 340.562 135.073V129.69H348.873C348.873 127.7 348.869 125.711 348.873 123.723ZM397.842 123.649H403.88V128.338C410.55 128.342 417.222 128.338 423.892 128.34V140.523C421.949 140.523 420.006 140.527 418.059 140.523V133.714C406.686 133.713 395.311 133.713 383.938 133.714V140.523C381.991 140.527 380.049 140.527 378.105 140.523V128.34H397.842C397.842 126.773 397.838 125.211 397.842 123.649ZM200.436 124.113C203.748 125.715 206.908 127.62 209.907 129.753C208.88 131.281 207.852 132.804 206.825 134.329C203.794 132.221 200.696 130.197 197.416 128.497C198.42 127.033 199.428 125.573 200.436 124.113Z" fill="#E60012"/>
<path d="M325.589 135.801C327.046 135.452 328.506 135.107 329.966 134.76C331.146 137.374 331.934 140.143 332.558 142.934C331.03 143.424 329.505 143.907 327.982 144.395C327.458 141.461 326.647 138.579 325.589 135.801ZM388.459 141.869C390.88 140.265 392.772 137.97 394.135 135.428C395.995 136.227 397.856 137.023 399.715 137.824C398.19 140.741 396.084 143.359 393.514 145.421C389.628 148.58 384.813 150.432 379.91 151.279C379.037 149.394 378.173 147.513 377.303 145.63C381.197 145.07 385.157 144.096 388.459 141.869ZM403.895 135.768H409.679C409.679 137.509 409.668 139.248 409.679 140.985C409.633 142.325 410.851 143.505 412.179 143.481C416.083 143.494 419.992 143.483 423.898 143.486V148.809C419.185 148.807 414.47 148.813 409.753 148.805C406.764 148.846 403.893 146.263 403.904 143.222C403.888 140.736 403.895 138.253 403.895 135.768ZM213.911 149.228C214.479 144.805 215.059 140.379 215.408 135.93H244.376C244.127 140.361 243.888 144.797 243.658 149.232C244.71 149.232 245.768 149.228 246.82 149.232C246.816 150.673 246.82 152.115 246.816 153.561H243.456C243.298 156.592 243.139 159.624 242.984 162.657C243.881 162.657 244.784 162.655 245.681 162.659V167.084H242.635C242.465 168.753 242.026 170.507 240.802 171.732C239.484 173.075 237.543 173.514 235.728 173.604C234.246 173.651 232.767 173.615 231.285 173.627L230.354 168.856C231.645 169.054 232.939 169.273 234.25 169.27C235.04 169.253 235.919 169.146 236.509 168.561C236.919 168.175 237.048 167.612 237.176 167.089C228.556 167.086 219.933 167.089 211.313 167.086C212.081 162.592 212.7 158.075 213.357 153.566C212.24 153.565 211.119 153.566 210.004 153.565C210.001 152.119 210.004 150.677 210.001 149.235C211.306 149.228 212.607 149.232 213.911 149.228ZM220.295 140.42C219.985 143.363 219.641 146.298 219.289 149.228C222.686 149.232 226.082 149.221 229.481 149.235C229.723 149.281 229.915 149.104 230.118 149.005C229.765 149.045 229.562 148.705 229.317 148.517C227.628 146.92 225.822 145.445 223.991 144.016C225.063 142.896 226.14 141.781 227.216 140.667C229.298 142.251 231.301 143.941 233.205 145.737C232.215 146.786 231.27 147.877 230.251 148.899C230.205 148.993 230.109 149.178 230.063 149.274C232.773 149.174 235.487 149.257 238.197 149.232C238.348 146.293 238.498 143.355 238.644 140.424C232.529 140.42 226.411 140.42 220.295 140.42ZM218.768 153.563C218.342 156.596 217.895 159.627 217.417 162.657H229.387C227.423 160.657 225.337 158.78 223.092 157.104C224.142 155.979 225.183 154.846 226.234 153.723C228.628 155.401 230.868 157.299 232.974 159.324C232.016 160.436 231.058 161.542 230.101 162.659C232.562 162.66 235.021 162.657 237.484 162.659C237.648 159.627 237.785 156.596 237.931 153.565C231.543 153.561 225.156 153.561 218.768 153.563ZM197.235 137.811C199.878 139.035 202.365 140.562 204.809 142.142C205.83 142.813 206.84 143.503 207.793 144.267C206.785 145.885 205.78 147.502 204.771 149.117C201.44 146.739 198.028 144.45 194.397 142.549C195.344 140.97 196.288 139.392 197.235 137.811ZM344.189 138.969C349.303 138.962 354.415 138.984 359.529 138.956C359.529 148.011 359.525 157.07 359.529 166.124C359.518 166.556 359.586 167.141 360.088 167.274C360.747 167.403 361.812 167.495 362.039 166.659C362.462 164.955 362.591 163.19 362.807 161.451C364.539 161.916 366.262 162.382 367.99 162.851C367.589 165.029 367.467 167.326 366.431 169.327C365.638 170.903 364.102 172.198 362.289 172.316C360.684 172.384 359.073 172.325 357.468 172.349C355.99 172.395 354.66 171.321 354.132 169.991C353.765 169.116 353.859 168.153 353.852 167.233C353.852 159.553 353.848 151.875 353.852 144.195C352.417 144.195 350.977 144.195 349.547 144.197C349.528 148.84 349.665 153.505 349.103 158.124C348.494 163.382 347.136 168.668 344.276 173.174C342.736 171.806 341.199 170.434 339.664 169.059C341.684 166.15 342.686 162.677 343.32 159.23C344.531 152.545 344.11 145.726 344.189 138.969ZM382.207 152.481C394.819 152.481 407.436 152.481 420.052 152.483V158.027C414.662 158.028 409.271 158.027 403.88 158.027V166.24H424.616V171.847H377.244C377.248 169.979 377.244 168.11 377.248 166.24H397.832C397.836 163.521 397.836 160.8 397.836 158.076H382.201C382.203 156.212 382.203 154.347 382.207 152.481ZM325.573 154.165C327.014 153.707 328.456 153.253 329.896 152.797C331.104 155.669 331.89 158.689 332.629 161.704C331.067 162.127 329.507 162.548 327.945 162.965C327.291 159.995 326.592 157.032 325.573 154.165ZM198.896 161.83C200.419 158.992 201.878 156.116 203.085 153.129C204.848 153.843 206.609 154.554 208.372 155.27C207.132 158.582 205.616 161.782 204.043 164.95C202.452 168.029 200.853 171.132 198.817 173.95C197.056 172.927 195.302 171.9 193.541 170.876C195.457 167.944 197.225 164.909 198.896 161.83ZM73.2554 178.956C78.0775 178.046 83.1212 178.971 87.515 181.074C92.6971 183.551 97.113 187.497 100.41 192.178C102.533 195.195 104.186 198.555 105.194 202.107C103.296 199.295 101.003 196.757 98.505 194.462C95.1598 191.423 91.3346 188.794 87.011 187.377C83.9427 186.426 80.5753 186.103 77.4646 187.037C75.816 187.537 74.2412 188.475 73.2646 189.924C72.408 191.161 72.0425 192.788 72.5077 194.24C73.0117 195.845 74.5588 197.074 76.248 197.132C78.2086 197.246 80.0843 195.747 80.4406 193.825C80.7692 192.191 80.0067 190.439 78.6424 189.501C80.2744 190.168 81.7329 191.309 82.6024 192.863C83.9648 195.204 83.9519 198.254 82.6172 200.599C81.5686 202.498 79.7058 203.829 77.7083 204.597C74.9815 205.653 71.9096 205.559 69.1422 204.706C66.3231 203.833 63.8345 201.933 62.2709 199.428C60.4395 196.522 59.8598 192.854 60.722 189.531C61.4272 186.723 63.0998 184.192 65.3428 182.377C67.5988 180.526 70.4197 179.505 73.2554 178.956ZM129.459 179.163C133.31 178.286 137.407 178.434 141.147 179.724C143.663 180.533 146.012 181.947 147.764 183.945C149.481 185.87 150.647 188.29 151.013 190.849C151.517 194.288 150.544 197.924 148.349 200.628C144.902 204.968 138.465 206.573 133.368 204.442C131.226 203.541 129.304 201.922 128.436 199.725C127.425 197.285 127.737 194.324 129.317 192.191C130.181 190.962 131.455 190.083 132.827 189.511C131.309 190.548 130.55 192.623 131.185 194.375C131.756 196.048 133.48 197.253 135.254 197.137C137.025 197.065 138.625 195.706 139.041 193.993C139.462 192.337 138.849 190.554 137.724 189.306C136.255 187.646 134.039 186.861 131.891 186.59C128.682 186.219 125.4 186.854 122.455 188.137C119.302 189.483 116.444 191.447 113.854 193.679C111.003 196.164 108.413 198.963 106.285 202.098C108.068 195.832 111.816 190.201 116.688 185.905C120.336 182.708 124.698 180.23 129.459 179.163ZM271.59 183.424C274.82 190.085 278.051 196.749 281.278 203.412H277.939C277.204 201.909 276.475 200.397 275.744 198.898C272.989 198.902 270.231 198.893 267.475 198.902C266.744 200.405 266.007 201.909 265.28 203.412H261.894C265.125 196.748 268.359 190.089 271.59 183.424ZM271.59 190.026C270.648 192.058 269.71 194.084 268.782 196.118C270.667 196.12 272.553 196.118 274.442 196.118C273.495 194.084 272.542 192.053 271.59 190.026ZM214.112 203.414C217.341 196.749 220.574 190.089 223.802 183.426C227.033 190.089 230.262 196.753 233.489 203.414H230.157C229.422 201.909 228.695 200.401 227.958 198.898C225.2 198.906 222.442 198.891 219.682 198.906C218.956 200.408 218.225 201.913 217.494 203.414H214.112ZM221 196.116C222.885 196.116 224.773 196.116 226.658 196.114C225.708 194.08 224.753 192.055 223.802 190.017C222.872 192.053 221.929 194.08 221 196.116ZM313.179 203.414C316.407 196.753 319.634 190.089 322.864 183.428C326.095 190.089 329.326 196.753 332.557 203.412C331.441 203.414 330.328 203.414 329.213 203.414C328.484 201.909 327.753 200.407 327.027 198.902C324.269 198.895 321.511 198.902 318.753 198.898C318.018 200.403 317.289 201.913 316.558 203.414H313.179ZM320.062 196.116C321.947 196.116 323.837 196.118 325.722 196.114C324.76 194.098 323.858 192.051 322.848 190.057C321.923 192.079 320.989 194.096 320.062 196.116ZM242.33 183.753C247.123 188.18 251.897 192.631 256.675 197.076C256.678 192.937 256.675 188.794 256.678 184.653H259.804V204.213C254.991 199.779 250.187 195.33 245.387 190.877C245.384 195.058 245.387 199.232 245.384 203.414H242.334C242.33 196.86 242.33 190.305 242.33 183.753ZM283.244 183.753C288.033 188.185 292.807 192.636 297.585 197.084V184.652C298.623 184.655 299.662 184.652 300.703 184.653C300.703 191.17 300.707 197.691 300.703 204.206C295.89 199.775 291.094 195.326 286.298 190.879C286.294 195.058 286.298 199.232 286.294 203.414C285.273 203.414 284.256 203.412 283.244 203.416C283.241 196.86 283.241 190.308 283.244 183.753ZM376.679 183.756C381.472 188.183 386.246 192.636 391.02 197.084C391.024 192.937 391.02 188.796 391.024 184.653C392.061 184.653 393.108 184.652 394.149 184.653C394.149 191.174 394.153 197.691 394.149 204.213C389.336 199.779 384.533 195.33 379.733 190.882C379.729 195.062 379.733 199.236 379.729 203.416C378.708 203.412 377.691 203.416 376.676 203.412C376.679 196.86 376.679 190.308 376.679 183.756ZM414.01 185.841C415.81 183.836 418.996 183.418 421.337 184.679C422.495 185.281 423.392 186.306 423.94 187.482C423.028 187.929 422.113 188.372 421.201 188.82C420.429 187.249 418.24 186.47 416.715 187.399C416.044 187.781 415.686 188.625 415.924 189.367C416.181 190.146 416.859 190.679 417.521 191.104C419.032 192.088 420.878 192.442 422.325 193.554C423.508 194.405 424.391 195.717 424.55 197.187C424.875 199.755 423.283 202.393 420.896 203.364C418.891 204.175 416.469 204.108 414.623 202.939C412.993 201.895 411.968 200.084 411.612 198.21C412.633 198.012 413.65 197.816 414.673 197.619C414.968 198.906 415.808 200.139 417.086 200.608C418.64 201.21 420.656 200.421 421.206 198.8C421.574 197.874 421.169 196.816 420.431 196.203C419.251 195.11 417.619 194.815 416.259 194.028C414.889 193.284 413.615 192.178 413.078 190.677C412.467 189.053 412.816 187.109 414.01 185.841ZM197.536 184.652H200.62C200.622 187.074 200.62 189.5 200.62 191.924C203.421 191.92 206.22 191.924 209.019 191.92C209.019 189.498 209.017 187.074 209.02 184.65H212.105V203.41H209.02C209.017 200.512 209.02 197.612 209.019 194.713C206.22 194.713 203.421 194.711 200.62 194.713V203.41H197.536C197.534 197.159 197.536 190.906 197.536 184.652ZM235.5 184.652H238.584V203.412H235.5C235.5 197.159 235.498 190.906 235.5 184.652ZM334.645 203.414C334.641 197.159 334.641 190.908 334.645 184.653H337.728V203.414H334.645ZM341.689 184.652C344.027 184.67 346.362 184.618 348.703 184.678C351.479 184.836 353.881 187.48 353.571 190.288C353.499 192.437 351.923 194.294 349.925 194.968C351.88 197.78 353.841 200.597 355.799 203.41C354.596 203.414 353.394 203.41 352.194 203.412C349.849 199.914 347.514 196.413 345.169 192.915C346.554 192.813 348.097 193.218 349.338 192.415C350.549 191.698 350.915 189.976 350.232 188.778C349.733 187.916 348.782 187.327 347.787 187.31C346.781 187.284 345.779 187.31 344.776 187.303V203.408H341.693C341.689 197.159 341.693 190.906 341.689 184.652ZM358.168 184.738C359.2 184.737 360.23 184.738 361.266 184.738V200.768H367.443C367.439 201.651 367.439 202.532 367.439 203.414C364.349 203.412 361.258 203.414 358.172 203.414C358.168 197.187 358.168 190.962 358.168 184.738ZM369.62 203.414C369.616 197.159 369.62 190.908 369.616 184.653H372.706V203.414C371.674 203.414 370.648 203.412 369.62 203.414ZM398.106 203.414V184.641C401.953 184.642 405.804 184.641 409.655 184.642C409.651 185.527 409.651 186.411 409.655 187.297H401.218C401.214 188.8 401.214 190.308 401.218 191.813C403.949 191.813 406.685 191.811 409.413 191.813V194.468H401.218C401.214 196.564 401.214 198.66 401.218 200.756C404.026 200.759 406.843 200.756 409.655 200.759C409.651 201.644 409.651 202.526 409.655 203.414H398.106Z" fill="#E60012"/>
</svg>
