<svg width="480" height="320" viewBox="0 0 480 320" fill="none" xmlns="http://www.w3.org/2000/svg">
<path d="M132.256 61.9531H133.707C139.812 67.5127 147.793 70.3572 155.658 72.3756C165.7 74.6885 176.467 75.7228 186.408 72.3971C199.38 69.1935 213.71 67.1967 226.453 72.3325C235.274 69.4737 245.021 69.1361 253.849 72.1314C266.756 67.2685 281.079 69.2079 294.123 72.5336C303.727 75.6797 314.106 74.6526 323.803 72.4977C331.855 70.4936 340.051 67.6348 346.286 61.9531H347.514C347.572 62.0393 347.687 62.2189 347.744 62.3123V63.4544C336.108 76.671 317.518 82.1875 300.344 81.5266C289.182 79.5513 278.084 76.2113 266.598 76.829C261.944 77.2672 256.499 77.1953 253.13 81.0023C253.116 84.9457 256.521 87.3807 258.151 90.6131C259.272 92.9116 256.097 95.009 254.136 93.8166C249.654 90.3257 245.631 84.7877 247.104 78.8043C242.406 78.3877 237.586 77.7197 232.939 78.8977C234.167 85.1109 229.685 90.3114 225.217 93.9244C223.415 94.9013 220.836 93.0409 221.662 90.9938C223.091 87.8333 226.123 85.5706 226.834 82.0223C224.37 77.5329 218.652 77.339 214.149 76.9008C201.909 75.8737 190.136 79.7955 178.212 81.62C161.62 81.7709 143.354 76.75 132.256 63.7201V61.9531ZM132.68 74.3509C133.075 74.1713 133.858 73.8122 134.253 73.6326C138.218 76.1682 143.095 76.1107 147.419 77.6838C151.966 79.4364 156.175 82.6472 158.15 87.2083C157.834 87.5316 157.202 88.178 156.886 88.4941C161.613 89.2986 168.185 92.2077 167.955 97.8175C160.061 96.697 150.256 97.1926 145.767 89.0903C147.843 85.7215 153.194 89.356 156.613 88.3001C148.037 85.4054 135.424 84.996 132.68 74.3509ZM345.754 73.6254C346.092 73.7834 346.753 74.0995 347.083 74.2575C346.121 78.9982 341.739 82.2018 337.566 84.1197C333.019 86.0806 328.005 86.4182 323.358 88.0631C326.748 89.5859 332.215 85.6425 334.118 89.1046C331.891 91.4966 329.701 94.1183 326.583 95.361C322.144 97.5877 316.98 96.1439 312.447 98.0402C312.224 97.6667 311.765 96.9269 311.542 96.5533C313.51 91.8988 318.265 89.2914 323.042 88.4438C322.712 88.1421 322.036 87.5388 321.699 87.2371C324.22 82.0223 329.305 78.4021 334.836 76.9655C338.485 75.888 342.493 75.7803 345.754 73.6254ZM210.586 80.0972C213.524 79.0988 219.162 78.4739 218.983 83.0351C218.106 83.9617 217.129 84.7877 215.887 85.1756C218.401 85.0319 220.8 87.0862 219.564 89.6865C217.424 92.4375 213.667 90.3186 210.787 90.9938C208.632 90.9794 205.364 92.9691 204.452 89.9666C206.7 86.9929 210.5 86.0519 213.919 85.1756C210.873 84.7661 206.8 86.1812 204.401 83.8252C204.509 80.9592 208.481 80.8802 210.586 80.0972ZM264.005 85.2187C259.789 85.0319 260.443 79.0988 264.472 79.343C268.215 80.0254 273.781 79.8458 275.67 83.6169C273.185 86.0303 269.184 84.8739 266.074 85.1756C269.292 85.9441 272.639 86.921 275.074 89.2986C275.074 89.7367 275.067 90.6202 275.067 91.0584C271.016 92.0568 266.706 90.2539 262.504 91.1302C258.151 90.7495 260.076 84.3711 264.005 85.2187ZM191.846 83.2649C193.993 82.8986 196.881 81.0166 198.425 83.5163C199.294 85.8939 196.658 87.1221 194.984 88.0487C187.047 93.005 176.345 90.8788 169.356 85.1899C168.336 84.6512 169.191 83.4948 169.37 82.7334C176.819 83.4732 184.404 84.4501 191.846 83.2649ZM281.841 86.1165C280.368 84.4429 282.315 81.5338 284.434 82.288C291.724 84.6943 299.532 83.7318 307.024 83.0997C308.633 82.9489 311.499 82.1516 311.003 84.7733C302.923 91.4247 290.108 93.4862 281.841 86.1165ZM198.842 88.9466C199.862 88.5228 200.968 88.9538 202.002 89.0759C202.06 89.7224 202.182 91.0081 202.239 91.6474C200.91 93.2707 199.445 94.8007 197.664 95.9356C191.415 99.1608 183.786 97.7673 177.731 94.6858C176.74 94.3841 176.804 92.8757 177.616 92.4016C184.641 91.0009 192.413 92.7248 198.842 88.9466ZM278.565 93.0696C276.798 91.396 277.962 87.783 280.699 88.8101C287.35 92.5955 295.28 91.1446 302.549 92.3585C303.404 96.0865 297.097 96.0003 294.648 97.3507C289.059 98.2916 282.372 97.8319 278.565 93.0696ZM205.062 97.0131C207.533 94.1614 211.311 92.3657 215.097 92.5094C218.207 92.7248 218.293 97.0777 215.765 98.2485C212.123 97.2214 207.526 100.741 204.753 97.9899C203.654 102.027 199.639 104.814 195.566 105.252C192.226 105.367 188.987 104.419 185.718 103.909C184.936 103.19 184.943 102.486 185.733 101.79C191.12 97.717 198.641 99.6564 204.078 95.8063C204.408 96.2086 204.732 96.6108 205.062 97.0131ZM264.35 92.6602C268.258 91.985 272.338 94.104 274.902 97.0059C275.239 96.6036 275.584 96.2086 275.936 95.8063C281.46 99.6348 288.98 97.796 294.483 101.847C294.468 102.515 294.461 103.19 294.447 103.858C291.839 104.225 289.246 104.692 286.668 105.23C281.826 105.769 276.295 103.205 275.046 98.1839C272.503 100.482 268.883 97.638 265.851 98.2988C262.375 99.1679 260.795 93.5078 264.35 92.6602ZM218.724 96.6395C222.222 94.0824 225.095 99.8144 221.655 101.754C218.925 103.499 214.228 108.463 211.527 105.079C213.265 101.804 216.354 99.4553 218.724 96.6395ZM258.044 96.4312C262.698 95.2317 264.724 101.366 267.834 103.844C269.328 108.175 262.842 105.697 261.082 104.131C258.446 102.795 254.589 99.0171 258.044 96.4312ZM153.216 99.2829C154.437 97.128 156.915 98.6795 158.79 98.5287C163.911 98.5933 169.543 98.1911 173.917 101.395C175.583 102.723 178.241 104.49 176.934 106.94C181.581 106.516 187.191 107.953 189.468 112.406C188.958 115.473 184.203 113.146 181.912 114.159L182.371 114.697C176.833 115.301 170.483 113.814 167.51 108.664C167.919 108.118 168.336 107.572 168.745 107.026C171.41 107.673 174.175 107.313 176.761 106.495C168.537 106.279 157.899 108.01 153.216 99.2829ZM319.767 98.6149C322.051 99.0889 325.139 96.8622 326.712 99.2541C321.67 107.515 311.549 106.609 303.239 106.502C306.026 108.42 310.429 105.769 312.454 108.642C309.164 112.93 303.655 115.653 298.225 114.482C295.84 113.692 293.319 113.836 290.855 114.001C290.144 108.441 298.627 106.372 303.152 106.954C302.879 106.365 302.606 105.776 302.348 105.187C306.047 99.4122 313.388 98.0187 319.767 98.6149ZM193.095 113.002C193.253 105.044 204.092 107.507 207.677 102.055C208.072 102.242 208.862 102.63 209.257 102.824C209.25 110.273 201.456 112.851 195.25 112.614L194.934 113.527C194.474 113.397 193.555 113.132 193.095 113.002ZM270.7 102.817C271.109 102.63 271.921 102.249 272.33 102.063C275.757 107.543 287.731 105.072 286.402 113.448C283.766 112.586 281.065 112.025 278.285 111.918C273.774 111.551 270.535 107.206 270.7 102.817ZM184.023 117.973C185.194 113.95 189.964 117.391 192.348 118.483C180.899 145.929 180.712 177.692 190.373 205.698C197.068 224.496 209.817 243.358 229.685 249.665C245.667 254.908 262.691 246.49 273.128 234.401C283.902 222.284 290.252 206.84 293.664 191.138C298.692 167.054 296.939 141.382 287.573 118.54C289.957 117.391 294.87 113.907 295.955 118.052C307.426 148.407 307.146 183.144 295.043 213.262C285.942 236.06 266.483 258.004 240.488 259.484H238.563C210.773 257.516 191.12 232.921 182.795 208.219C172.796 179.236 173.055 146.647 184.023 117.973ZM222.768 122.211C232.824 122.074 242.88 122.196 252.936 122.146C262.023 122.132 271.562 125.996 276.662 133.797C284.261 144.83 280.677 160.848 269.903 168.447C266.318 170.732 262.404 172.563 258.151 173.145C258.158 184.192 258.094 195.24 258.18 206.287C258.058 209.067 262.159 207.638 262.878 209.972C260.249 211.66 255.551 213.247 253.31 210.288C250.882 212.802 247.025 211.861 244.173 210.712C242.528 207.587 248.39 208.665 248.232 206.108C248.354 195.333 248.21 184.552 248.296 173.777C244.892 173.77 241.487 173.799 238.082 173.748C238.204 191.462 237.91 209.182 238.233 226.881C239.763 227.735 243.067 227.664 242.442 230.12C239.504 231.305 235.374 232.763 232.939 229.883C230.942 232.677 227.107 231.356 224.363 230.544C221.992 227.211 229.01 228.985 228.249 225.695C228.27 208.385 228.234 191.081 228.27 173.77C224.887 173.777 221.511 173.792 218.135 173.763C218.2 184.616 218.078 195.477 218.193 206.33C218.214 208.514 221.008 208.334 222.495 208.923C222.445 209.512 222.387 210.101 222.33 210.697C219.435 211.416 215.37 213.233 213.164 210.245C210.844 213.111 206.786 211.545 203.863 210.69C203.942 210.195 204.107 209.211 204.186 208.715C205.522 208.227 206.858 207.724 208.187 207.221C208.309 185.227 208.402 163.211 208.136 141.217C206.463 140.405 203.015 140.305 204.121 137.64C207.03 136.893 210.801 135.341 213.208 137.999C215.765 135.449 219.852 136.562 222.66 138.085C222.553 138.48 222.33 139.256 222.222 139.644C220.829 139.823 219.45 140.132 218.2 140.807C218.092 149.815 218.171 158.822 218.157 167.83C221.518 167.794 224.887 167.758 228.249 167.765C228.22 154.347 228.321 140.93 228.206 127.512C227.408 124.718 223.213 126.262 221.992 123.841C222.186 123.432 222.574 122.613 222.768 122.211ZM238.168 127.878C238.082 141.195 238.125 154.512 238.147 167.83C241.523 167.801 244.892 167.751 248.268 167.772C248.26 159.397 248.296 151.029 248.26 142.653C248.655 139.809 243.57 141.109 243.857 138.315C246.285 136.368 250.839 135.485 253.26 138.028C255.529 135.435 259.344 136.684 262.109 137.69C263.804 140.089 259.602 139.931 258.202 140.628C258.101 149.37 258.123 158.111 258.187 166.853C264.515 165.402 268.689 159.541 268.99 153.191C269.666 145.57 270.183 135.708 263.014 130.845C255.508 126.499 246.429 128.316 238.168 127.878Z" fill="black"/>
</svg>
