<svg width="480" height="320" viewBox="0 0 480 320" fill="none" xmlns="http://www.w3.org/2000/svg">
<path d="M96.0989 161.264C94.672 148.259 108.296 137.83 126.533 137.973C144.766 138.118 160.716 148.767 162.143 161.754C163.572 174.761 149.955 185.178 131.717 185.038C113.483 184.906 97.5311 174.253 96.0989 161.264ZM165.533 165.296C163.885 149.173 145.531 135.969 124.546 135.795C103.546 135.622 87.8707 148.552 89.5217 164.668C91.1691 180.789 109.521 193.997 130.511 194.173C151.502 194.341 167.187 181.414 165.533 165.296Z" fill="#FBB584"/>
<path d="M133.841 194.488C123.511 205.305 106.906 206.194 96.7803 196.493C86.649 186.801 86.8219 170.182 97.1666 159.381C107.508 148.577 124.107 147.681 134.233 157.377C144.355 167.076 144.186 183.698 133.841 194.488ZM95.5386 159.04C83.52 171.59 83.3242 190.907 95.0976 202.185C106.869 213.45 126.165 212.413 138.179 199.857C150.199 187.302 150.4 167.983 138.623 156.709C126.853 145.441 107.561 146.48 95.5386 159.04Z" fill="#F89B6C"/>
<path d="M96.6376 118.603C118.144 110.548 139.406 118.698 144.13 136.807C148.862 154.93 135.26 176.154 113.757 184.204C92.2492 192.273 70.983 184.116 66.2613 166.003C61.5237 147.889 75.135 126.669 96.6376 118.603ZM76.6642 125.531C54.3556 143.192 48.6779 168.794 63.9772 182.696C79.28 196.605 109.771 193.554 132.087 175.891C154.397 158.232 160.082 132.641 144.772 118.728C129.462 104.82 98.9729 107.863 76.6642 125.531Z" fill="#F37321"/>
<path d="M210.715 160.17H185.999V180.757H180.82V141.154H185.999V154.183H210.715V141.154H215.897V180.757H210.715V160.17ZM279.103 150.961C282.899 150.961 285.857 152.109 287.977 154.391C290.097 156.684 291.162 158.984 291.162 163.336V180.753H285.98V163.099C285.98 160.58 285.301 159.646 283.95 158.243C282.604 156.832 280.816 156.122 278.593 156.122H273.838C271.616 156.122 269.831 156.832 268.478 158.243C267.134 159.646 266.458 160.58 266.458 163.099V180.753H261.28V163.336C261.28 158.984 262.335 156.684 264.465 154.391C266.566 152.109 269.533 150.961 273.328 150.961H279.103ZM344.353 150.961V168.606C344.353 171.125 343.687 172.065 342.337 173.472C340.979 174.878 339.203 175.587 336.975 175.587H333.739C331.523 175.587 329.728 174.878 328.389 173.472C327.038 172.065 326.361 171.125 326.361 168.606V150.961H320.934V168.606C320.934 171.125 320.258 172.065 318.909 173.472C317.554 174.878 315.769 175.587 313.54 175.587H310.321C308.097 175.587 306.308 174.878 304.966 173.472C303.611 172.065 302.936 171.125 302.936 168.606V150.961H297.754V168.373C297.754 172.738 298.808 175.038 300.937 177.33C303.052 179.614 306.019 180.753 309.816 180.753H314.058C317.854 180.753 320.815 179.614 322.937 177.33C323.186 177.058 323.429 176.776 323.645 176.506C323.865 176.774 324.112 177.058 324.359 177.33C326.482 179.614 329.44 180.753 333.231 180.753H337.483C341.281 180.753 344.242 179.614 346.359 177.33C348.484 175.038 349.544 172.737 349.544 168.373V150.961H344.353ZM383.346 154.381C381.222 152.104 378.257 150.961 374.467 150.961H368.694C365.932 150.961 363.625 151.574 361.745 152.777V141.15H356.534V180.753H361.822V163.311C361.822 160.806 362.498 159.856 363.842 158.45C365.198 157.044 366.981 156.339 369.205 156.339H373.957C376.183 156.339 377.975 157.044 379.328 158.45C380.665 159.856 381.342 160.806 381.342 163.311V180.753H386.531V163.341C386.529 158.981 385.462 156.681 383.346 154.381ZM422.755 155.234C420.735 152.388 417.382 150.961 412.634 150.961H395.719V156.123H412.205C413.831 156.123 415.646 156.272 417.093 157.076C418.599 157.944 418.994 159.762 418.994 161.252H404.362C400.582 161.252 397.89 161.757 396.287 162.783C394.042 164.195 392.812 166.863 392.766 170.795C392.766 174.926 393.87 177.741 396.047 179.169C397.634 180.231 400.391 180.753 404.31 180.753H418.179C420.167 180.732 421.765 179.771 422.867 178.293C424 176.778 424.615 174.696 424.615 172.509V161.369C424.441 159.155 423.954 156.94 422.755 155.234ZM417.625 174.34C416.52 175.158 414.673 175.587 412.105 175.587H404.66C402.589 175.587 401.151 175.402 400.317 175.019C398.85 174.414 398.116 173.036 398.089 171.123C398.089 169.082 398.85 167.717 400.411 167.002C401.345 166.565 402.781 166.424 404.718 166.424H413.685C417.206 166.398 419.008 167.692 419.151 170.477C419.153 172.199 418.627 173.578 417.625 174.34ZM252.683 155.234C250.662 152.388 247.312 150.961 242.566 150.961H225.647V156.123H242.132C243.762 156.123 245.575 156.272 247.021 157.076C248.528 157.944 248.923 159.762 248.923 161.252H234.288C230.51 161.252 227.817 161.757 226.214 162.783C223.972 164.195 222.741 166.863 222.697 170.795C222.697 174.926 223.797 177.741 225.974 179.169C227.559 180.231 230.316 180.753 234.241 180.753H248.102C250.096 180.732 251.69 179.771 252.796 178.293C253.925 176.778 254.546 174.696 254.546 172.509V161.369C254.369 159.155 253.886 156.94 252.683 155.234ZM247.554 174.34C246.448 175.158 244.6 175.587 242.035 175.587H234.59C232.517 175.587 231.082 175.402 230.247 175.019C228.78 174.414 228.044 173.036 228.018 171.123C228.018 169.082 228.78 167.717 230.339 167.002C231.274 166.565 232.711 166.424 234.648 166.424H243.614C247.136 166.398 248.938 167.692 249.081 170.477C249.083 172.199 248.558 173.578 247.554 174.34Z" fill="black"/>
</svg>
