<svg width="480" height="320" viewBox="0 0 480 320" fill="none" xmlns="http://www.w3.org/2000/svg">
<path d="M354.845 117.418L338.265 164.964H319.043L333.528 117.418H354.845ZM220.797 126.592L207.924 164.964H188.215L204.311 117.418H237.436C245.751 117.418 254.94 118.538 258.148 122.794C261.223 126.869 258.46 132.209 255.966 134.742C250.436 140.358 240.757 141.669 240.757 141.669C240.757 141.669 244.023 148.709 246.375 153.084C248.919 157.812 253.336 164.964 253.336 164.964H232.86L221.257 137.228C221.257 137.228 232.141 137.639 236.559 134.293C239.38 132.159 239.265 129.447 238.274 128.226C237.283 127.006 235.113 126.745 232.213 126.63C230.573 126.565 225.187 126.573 220.797 126.592Z" fill="#231F20"/>
<path d="M285.889 126.593L273.017 164.964H253.293L269.404 117.418H302.53C310.843 117.418 320.034 118.538 323.242 122.794C326.315 126.869 323.55 132.209 321.058 134.742C315.53 140.358 305.849 141.668 305.849 141.668C305.849 141.668 309.116 148.709 311.469 153.083C314.011 157.812 319.041 164.964 319.041 164.964H297.953L286.352 137.228C286.352 137.228 297.235 137.639 301.651 134.294C304.472 132.158 304.358 129.446 303.366 128.226C302.375 127.005 300.207 126.745 297.305 126.629C295.665 126.565 290.281 126.573 285.889 126.593ZM349.284 153.36L344.046 163.74C344.046 163.74 356.004 166.253 368.799 165.827C373.669 165.664 381.278 165.406 388.105 163.225C393.109 161.626 396.83 159.608 399.664 156.677C402.254 153.997 403.662 151.154 403.944 148.513C404.28 145.281 403.419 143.578 401.543 141.626C397.148 137.054 383.347 136.051 377.315 133.831C376.772 133.631 374.756 132.718 375.282 130.728C375.743 128.983 378.325 126.676 387.404 126.533C399.664 126.34 405.386 128.841 405.386 128.841L410.291 118.82C410.291 118.82 406.994 117.861 401.73 117.423C398.612 117.055 395.011 116.792 391.592 116.913C388.69 117.016 385.095 117.095 381.347 117.507C377.578 117.92 373.877 118.557 370.342 119.556C366.903 120.529 363.651 121.859 360.729 123.699C354.995 127.309 351.792 134.33 354.952 139.028C355.645 140.058 357.679 141.676 358.914 142.28C360.282 142.95 361.91 143.533 363.651 144.053C370.107 145.977 377.692 146.727 380.78 148.565C383.57 150.227 383.174 153.056 379.664 154.811C375.409 156.939 366.879 156.869 359.333 155.848C355.645 155.35 349.284 153.36 349.284 153.36Z" fill="#231F20"/>
<path d="M60.7812 208.282C62.157 206.606 63.3799 205.288 64.4509 204.327L167.036 111.717L188.242 164.963H168.688L154.401 149.665H162.897L158.461 137.495L65.4381 205.282C64.0638 206.27 62.2915 207.408 60.7814 208.282" fill="#E51636"/>
<path d="M133.858 117.418L122.223 152.172L108.055 164.964H98.412L105.154 144.823H81.6565L74.9144 164.964H55.3848L71.3014 117.418H90.8309L84.7257 135.654H108.223L114.329 117.418H133.858ZM417.686 122.674H418.872C419.437 122.674 419.825 122.592 420.031 122.427C420.237 122.263 420.339 122.045 420.339 121.774C420.339 121.6 420.289 121.444 420.191 121.307C420.092 121.169 419.953 121.066 419.777 120.998C419.6 120.93 419.274 120.896 418.798 120.896H417.686V122.674ZM416.733 125.997V120.097H418.778C419.475 120.097 419.98 120.152 420.293 120.262C420.604 120.371 420.855 120.561 421.04 120.834C421.226 121.106 421.318 121.395 421.318 121.701C421.318 122.133 421.162 122.509 420.85 122.83C420.537 123.152 420.121 123.33 419.605 123.369C419.815 123.456 419.981 123.56 420.108 123.68C420.346 123.912 420.637 124.301 420.984 124.846L421.704 125.997H420.553L420.026 125.071C419.61 124.34 419.274 123.884 419.017 123.701C418.842 123.567 418.586 123.5 418.25 123.498H417.686V125.997H416.733ZM419.147 118.397C418.375 118.397 417.627 118.596 416.897 118.99C416.169 119.385 415.597 119.949 415.187 120.682C414.775 121.416 414.569 122.18 414.569 122.973C414.569 123.764 414.771 124.521 415.175 125.243C415.581 125.968 416.145 126.531 416.874 126.936C417.599 127.341 418.356 127.542 419.147 127.542C419.935 127.542 420.693 127.341 421.42 126.936C422.146 126.531 422.71 125.968 423.112 125.243C423.513 124.521 423.714 123.764 423.714 122.973C423.714 122.18 423.509 121.416 423.1 120.682C422.692 119.949 422.121 119.385 421.391 118.99C420.659 118.596 419.91 118.397 419.147 118.397ZM419.147 117.496C420.064 117.496 420.962 117.732 421.836 118.204C422.713 118.676 423.396 119.35 423.884 120.228C424.373 121.106 424.616 122.021 424.616 122.973C424.616 123.917 424.375 124.824 423.893 125.694C423.412 126.565 422.738 127.242 421.871 127.723C421.002 128.204 420.093 128.444 419.147 128.444C418.197 128.444 417.291 128.204 416.42 127.723C415.553 127.242 414.877 126.565 414.394 125.694C413.909 124.824 413.667 123.917 413.667 122.973C413.667 122.021 413.914 121.106 414.405 120.228C414.895 119.35 415.579 118.676 416.455 118.204C417.329 117.732 418.227 117.496 419.147 117.496Z" fill="#231F20"/>
</svg>
