<svg width="480" height="320" viewBox="0 0 480 320" fill="none" xmlns="http://www.w3.org/2000/svg">
<mask id="mask0_730_18391" style="mask-type:luminance" maskUnits="userSpaceOnUse" x="116" y="53" width="248" height="214">
<path d="M116.66 266.668H363.34V53.3334H116.66V266.668Z" fill="white"/>
</mask>
<g mask="url(#mask0_730_18391)">
<path d="M307.782 263.869C307.782 263.664 307.66 263.557 307.404 263.557H306.917C306.89 263.557 306.878 263.569 306.878 263.601V264.149C306.878 264.174 306.89 264.193 306.919 264.193H307.404C307.663 264.193 307.782 264.074 307.782 263.869ZM306.544 265.473C306.5 265.473 306.468 265.454 306.468 265.4V263.267C306.468 263.213 306.5 263.194 306.541 263.194H307.404C307.902 263.194 308.192 263.44 308.192 263.869C308.197 264.01 308.155 264.148 308.074 264.263C307.992 264.378 307.875 264.463 307.741 264.505L308.204 265.4C308.224 265.442 308.204 265.473 308.16 265.473H307.858C307.814 265.473 307.782 265.454 307.76 265.4L307.329 264.559H306.919C306.89 264.559 306.878 264.569 306.878 264.603V265.4C306.878 265.454 306.846 265.473 306.802 265.473H306.544ZM308.958 264.344C308.965 264.12 308.926 263.896 308.844 263.687C308.762 263.477 308.638 263.287 308.479 263.127C308.321 262.968 308.131 262.842 307.923 262.758C307.714 262.675 307.49 262.634 307.266 262.64C307.04 262.634 306.817 262.675 306.608 262.759C306.399 262.843 306.209 262.968 306.051 263.128C305.893 263.288 305.768 263.479 305.686 263.688C305.604 263.898 305.566 264.122 305.573 264.347C305.566 264.572 305.605 264.796 305.688 265.005C305.77 265.215 305.894 265.405 306.052 265.565C306.211 265.725 306.4 265.851 306.608 265.935C306.817 266.02 307.041 266.061 307.266 266.056C308.236 266.056 308.958 265.325 308.958 264.344ZM305.208 264.344C305.203 264.073 305.253 263.803 305.355 263.552C305.457 263.3 305.608 263.071 305.8 262.879C305.992 262.687 306.221 262.536 306.473 262.434C306.724 262.332 306.994 262.282 307.266 262.287C307.537 262.281 307.807 262.33 308.06 262.432C308.312 262.533 308.541 262.685 308.733 262.877C308.925 263.069 309.077 263.298 309.178 263.55C309.28 263.803 309.329 264.073 309.323 264.344C309.33 264.617 309.281 264.888 309.18 265.141C309.079 265.394 308.928 265.625 308.736 265.818C308.544 266.011 308.314 266.163 308.062 266.265C307.809 266.367 307.538 266.417 307.266 266.412C306.993 266.417 306.723 266.366 306.47 266.264C306.218 266.162 305.989 266.009 305.797 265.816C305.604 265.623 305.453 265.393 305.352 265.14C305.251 264.888 305.202 264.617 305.208 264.344ZM146.408 202.722V234.222C146.408 235.614 146.408 237.611 144.514 237.611H139.233V223.355H123.832V234.222C123.832 235.617 123.931 237.611 122.037 237.611H116.656V206.113C116.656 204.719 116.656 202.724 118.551 202.724H123.832V217.726H139.233V206.113C139.233 204.768 139.131 202.724 141.025 202.724L146.408 202.722ZM172.323 222.409L167.388 207.757L160.41 227.144L160.71 227.193C161.656 225.45 163.953 222.409 167.985 222.409H172.323ZM183.735 237.611H177.455L174.166 227.89H160.464L158.067 235.068C157.672 236.214 157.121 237.611 155.329 237.611H150.095L161.31 205.614C161.707 204.516 162.256 202.724 164.148 202.724H172.671L184.532 236.463C184.781 237.162 184.435 237.608 183.735 237.608M232.924 202.722L221.462 235.066C221.213 235.814 220.762 237.608 218.968 237.608H214.584L208.055 219.018L202.223 235.066C201.975 235.814 201.526 237.608 199.731 237.608H194.948L183.087 203.868C182.838 203.171 183.184 202.722 183.884 202.722H190.213L198.785 228.736L204.964 210.248L202.721 203.868C202.472 203.171 202.823 202.722 203.52 202.722H209.898L217.822 228.039L224.746 205.262C225.1 204.117 225.697 202.722 227.443 202.722H232.924ZM252.906 222.409L247.974 207.757L240.996 227.144L241.293 227.193C242.242 225.45 244.534 222.409 248.571 222.409H252.906ZM264.316 237.611H258.038L254.747 227.89H241.045L238.653 235.068C238.256 236.214 237.707 237.611 235.913 237.611H230.678L241.893 205.614C242.291 204.516 242.839 202.724 244.734 202.724H253.255L265.116 236.463C265.365 237.162 265.016 237.608 264.319 237.608M269.202 206.111C269.202 204.716 269.202 202.722 270.894 202.722H276.38V234.222C276.38 235.617 276.38 237.611 274.681 237.611H269.2L269.202 206.111ZM283.753 206.111C283.753 204.716 283.753 202.722 285.447 202.722H290.928V234.222C290.928 235.617 290.928 237.611 289.233 237.611H283.753V206.111ZM316.842 222.409L311.91 207.757L304.932 227.144L305.23 227.193C306.181 225.45 308.472 222.409 312.505 222.409H316.842ZM328.255 237.611H321.975L318.686 227.89H304.984L302.589 235.068C302.189 236.214 301.641 237.611 299.849 237.611H294.614L305.829 205.614C306.227 204.516 306.775 202.724 308.67 202.724H317.191L329.052 236.463C329.303 237.162 328.955 237.608 328.255 237.608M363.337 202.722V234.222C363.337 235.614 363.337 237.611 361.645 237.611H357.158L340.114 214.534V234.222C340.114 235.617 340.114 237.611 338.271 237.611H333.138V206.113C333.138 204.719 333.138 202.724 334.833 202.724H339.514L356.361 226.247V206.113C356.361 204.719 356.064 202.724 358.007 202.724L363.337 202.722ZM187.526 260.229L184.779 252.303H184.73L181.958 260.227L187.526 260.229ZM183.625 249.199C183.674 249.043 183.752 248.943 183.933 248.943H185.6C185.781 248.943 185.881 249.041 185.934 249.199L191.913 266.129C191.961 266.283 191.888 266.385 191.732 266.385H189.935C189.755 266.385 189.652 266.31 189.601 266.129L188.268 262.333H181.214L179.878 266.129C179.805 266.31 179.7 266.385 179.547 266.385H177.75C177.596 266.385 177.518 266.283 177.569 266.129L183.625 249.199ZM197.376 249.199C197.376 249.046 197.481 248.943 197.635 248.943H199.405C199.558 248.943 199.661 249.046 199.661 249.199V266.129C199.661 266.285 199.558 266.388 199.405 266.388H197.635C197.481 266.388 197.379 266.285 197.379 266.129L197.376 249.199ZM217.312 253.97C217.312 252.149 216.108 251.069 214.08 251.069H210.001C209.898 251.069 209.847 251.123 209.847 251.225V256.716C209.847 256.818 209.896 256.869 210.001 256.869H214.08C216.108 256.869 217.312 255.792 217.312 253.968M217.671 266.385C217.493 266.385 217.415 266.31 217.337 266.132L213.848 259H210.001C209.898 259 209.847 259.049 209.847 259.151V266.132C209.847 266.283 209.745 266.385 209.591 266.385H207.821C207.667 266.385 207.565 266.283 207.565 266.132V249.199C207.565 249.046 207.667 248.943 207.821 248.943H214.131C217.388 248.943 219.592 250.942 219.592 253.97C219.592 256.331 218.263 258.049 216.159 258.715L219.877 266.078C219.982 266.232 219.902 266.385 219.724 266.385H217.671ZM226.472 249.199C226.472 249.046 226.572 248.943 226.728 248.943H228.498C228.652 248.943 228.754 249.046 228.754 249.199V264.103C228.754 264.206 228.806 264.259 228.908 264.259H237.222C237.375 264.259 237.478 264.357 237.478 264.515V266.129C237.478 266.285 237.375 266.388 237.219 266.388H226.728C226.572 266.388 226.472 266.285 226.472 266.129V249.199ZM242.586 249.199C242.586 249.046 242.688 248.943 242.842 248.943H244.612C244.765 248.943 244.868 249.046 244.868 249.199V266.129C244.868 266.285 244.765 266.388 244.612 266.388H242.842C242.688 266.388 242.586 266.285 242.586 266.129V249.199ZM252.77 249.199C252.77 249.046 252.874 248.943 253.028 248.943H254.669C254.876 248.943 255.003 248.997 255.108 249.199L263.007 262.284H263.109V249.199C263.109 249.046 263.212 248.943 263.365 248.943H264.982C265.135 248.943 265.24 249.046 265.24 249.199V266.129C265.24 266.285 265.135 266.388 264.982 266.388H263.341C263.161 266.388 263.007 266.334 262.902 266.129L254.978 253.1H254.9V266.129C254.9 266.285 254.798 266.388 254.644 266.388H253.028C252.874 266.388 252.772 266.285 252.772 266.129L252.77 249.199ZM273.142 249.199C273.142 249.046 273.245 248.943 273.398 248.943H283.889C284.045 248.943 284.148 249.046 284.148 249.199V250.816C284.148 250.969 284.045 251.072 283.889 251.072H275.578C275.48 251.072 275.424 251.12 275.424 251.225V256.355C275.424 256.46 275.478 256.508 275.578 256.508H282.634C282.79 256.508 282.89 256.613 282.89 256.767V258.383C282.89 258.537 282.792 258.639 282.634 258.639H275.578C275.48 258.639 275.424 258.688 275.424 258.793V264.103C275.424 264.206 275.478 264.259 275.578 264.259H283.892C284.045 264.259 284.148 264.357 284.148 264.515V266.129C284.148 266.285 284.045 266.388 283.889 266.388H273.398C273.245 266.388 273.142 266.285 273.142 266.129V249.199ZM289.95 264.486C289.897 264.438 289.865 264.371 289.861 264.299C289.856 264.228 289.879 264.158 289.926 264.103L291.05 262.767C291.155 262.643 291.281 262.643 291.408 262.743C292.54 263.642 294.285 264.54 296.284 264.54C298.698 264.54 300.132 263.333 300.132 261.565C300.132 260.078 299.286 259.073 296.489 258.715L295.616 258.586C292.23 258.127 290.487 256.511 290.487 253.766C290.487 250.66 292.717 248.658 296.182 248.658C298.235 248.658 300.21 249.328 301.492 250.277C301.621 250.379 301.646 250.508 301.543 250.638L300.671 252.044C300.568 252.176 300.439 252.176 300.312 252.098C298.9 251.225 297.594 250.789 296.104 250.789C293.976 250.789 292.796 251.94 292.796 253.61C292.796 255.072 293.771 256.048 296.462 256.409L297.308 256.535C300.722 256.999 302.441 258.564 302.441 261.411C302.441 264.464 300.285 266.668 296.08 266.668C293.617 266.668 291.23 265.668 289.948 264.488" fill="#413691"/>
<path d="M254.221 104.401C251.954 111.513 251.154 118.225 251.9 126.092L251.902 126.127C251.905 126.146 251.907 126.165 251.907 126.185C252.363 130.898 253.365 136.023 254.935 141.899C256.203 146.665 256.618 151.407 256.447 155.956C255.35 167.635 248.255 176.422 239.732 181.342L239.719 181.334L239.732 181.339C240.346 176.088 240.156 169.819 238.771 162.161C236.964 152.17 233.197 148.867 232.664 148.199C232.629 148.157 232.59 148.12 232.61 148.074C232.62 148.04 232.72 147.996 232.751 147.974C235.896 146.007 238.647 143.627 239.936 142.53C240.926 141.689 240.536 141.311 239.546 141.764C236.911 142.974 232.505 144.517 226.924 145.209C222.019 145.814 216.204 145.741 209.877 144.517C209.877 144.517 205.445 143.859 206.098 139.348C206.279 138.088 206.915 136.793 207.422 135.538C207.583 135.14 208.007 133.919 207.778 132.929C207.72 132.68 207.405 132.222 207.222 131.941C206.895 131.442 206.776 130.752 207.115 129.947C207.405 129.264 208.57 128.265 210.211 128.106C212.079 127.931 214.385 128.201 216.15 127.887C218.723 127.431 220.259 125.69 219.954 125.12C219.751 124.739 217.46 125.2 216.679 125.356C215.531 125.585 213.444 124.659 212.352 124.303C210.655 123.749 209.772 123.308 208.305 123.935C207.388 124.325 206.666 126.173 206.41 125.315C206.288 124.917 206.518 124.483 206.834 124.015C207.132 123.574 207.729 122.742 207.81 122.272C207.905 121.736 208.029 120.98 206.554 119.931C205.506 119.195 204.786 118.59 204.343 118.142C202.926 116.711 202.68 115.231 205.396 112.922C207.337 111.269 211.62 106.846 212.922 104.145C213.13 103.721 214.163 102.031 213.027 100.339C212.149 99.037 211.993 98.7859 211.764 98.3397C211.135 97.128 211.586 96.0479 212.618 94.4315C213.125 93.6416 213.52 92.6834 214.6 89.3042C215.763 85.6065 217.739 82.216 220.383 79.3812L220.376 79.3885L220.385 79.3812C220.585 79.2105 223.599 75.8704 227.007 74.8708C227.846 76.2361 229.584 78.1061 233.076 79.8908C236.64 81.7144 240.565 82.7287 240.565 82.7287C240.565 82.7287 245.461 84.133 250.42 85.9104C254.377 87.3245 258.5 92.4566 258.5 93.5172C258.5 95.7066 256.349 97.7497 254.223 104.401" fill="white"/>
</g>
<path d="M183.254 110.413C183.254 138.575 203.422 161.973 229.95 166.645C229.774 168.482 229.513 170.31 229.17 172.123C227.349 181.137 221.176 189.424 217.836 191.389C226.764 190.616 233.861 187.946 238.089 183.76H238.079C237.782 183.762 234.988 183.728 234.741 183.723C236.428 183.075 238.096 182.28 239.713 181.349L239.715 181.346L239.717 181.332L239.727 181.339C240.342 176.087 240.151 169.817 238.767 162.159C236.962 152.17 233.196 148.864 232.659 148.198C232.625 148.154 232.589 148.118 232.606 148.074C232.618 148.037 232.715 147.996 232.749 147.974C235.895 146.004 238.645 143.627 239.934 142.53C240.922 141.688 240.532 141.31 239.544 141.764C236.906 142.973 232.503 144.517 226.92 145.209C222.015 145.814 216.2 145.74 209.873 144.514C209.873 144.514 205.443 143.861 206.096 139.35C206.274 138.087 206.911 136.793 207.418 135.537C207.579 135.142 208.003 133.918 207.774 132.928C207.718 132.68 207.403 132.224 207.218 131.941C206.891 131.441 206.774 130.751 207.113 129.944C207.401 129.264 208.566 128.264 210.209 128.106C211.019 128.03 211.914 128.035 212.811 128.045C213.976 128.055 215.149 128.064 216.149 127.886C218.718 127.433 220.254 125.69 219.952 125.119C219.747 124.739 217.455 125.2 216.675 125.356C215.529 125.585 213.442 124.656 212.35 124.302C210.653 123.749 209.77 123.308 208.3 123.934C207.386 124.327 206.664 126.172 206.406 125.314C206.289 124.917 206.513 124.483 206.83 124.015C207.128 123.573 207.725 122.742 207.81 122.269C207.9 121.738 208.03 120.982 206.552 119.936C205.504 119.192 204.782 118.592 204.338 118.139C202.922 116.713 202.676 115.233 205.394 112.919C207.332 111.268 211.616 106.846 212.92 104.144C213.125 103.72 214.161 102.031 213.025 100.339C212.15 99.0366 211.992 98.7854 211.762 98.3417C211.133 97.1276 211.582 96.0475 212.616 94.431C213.12 93.6411 213.515 92.6829 214.595 89.3062C215.758 85.6083 217.735 82.2182 220.381 79.3856H220.374C220.557 78.8346 220.871 74.4875 223.404 70.4354C224.327 68.665 225.482 67.0259 226.84 65.5617C227.854 64.4719 229.448 63.2065 231.55 61.9874C233.651 60.7684 236.253 59.5957 239.281 58.6936C242.916 57.6087 247.158 56.9089 251.871 56.9796C255.392 57.0308 258.744 57.3088 262.73 58.3767L262.738 58.3791C262.755 58.384 262.923 58.4279 263.213 58.5132C255.848 55.0923 247.824 53.324 239.703 53.3323C208.527 53.3323 183.254 78.8858 183.254 110.413ZM205.787 117.444C205.714 117.632 205.889 117.727 206.106 117.832C207.15 118.317 207.632 118.566 209.507 119.69C211.699 121.004 212.652 119.916 213.12 119.078C213.252 118.851 213.447 117.919 213.233 117.59C213.018 117.261 212.616 117.473 212.192 117.888C211.714 118.353 210.548 118.102 210.158 118.061C209.773 118.017 207.983 117.566 206.818 117.322C206.64 117.282 206.459 117.261 206.277 117.259C205.979 117.259 205.826 117.339 205.787 117.444Z" fill="url(#paint0_linear_730_18391)"/>
<mask id="mask1_730_18391" style="mask-type:luminance" maskUnits="userSpaceOnUse" x="116" y="53" width="248" height="214">
<path d="M116.66 266.668H363.34V53.3334H116.66V266.668Z" fill="white"/>
</mask>
<g mask="url(#mask1_730_18391)">
<path d="M231.444 91.0642C231.161 90.9788 223.684 89.338 221.204 89.5013C218.727 89.6598 216.591 91.1056 215.287 92.5952C214.698 93.2456 214.3 94.0465 214.138 94.909C214.029 96.1037 214.887 96.6717 215.899 96.3475C216.637 96.1134 217.179 95.5868 217.942 94.4531C218.41 93.7558 218.693 92.8683 219.414 92.4124C220.607 91.6566 222.655 91.4689 225.997 91.5566C228.557 91.6249 230.622 91.7517 231.127 91.7736C232.058 91.8151 231.846 91.1885 231.444 91.0642Z" fill="#413691"/>
<path d="M227.122 98.0083C225.722 97.1817 223.843 97.2281 223.474 97.1598C223.109 97.0916 223.036 96.7209 223.589 96.4528C224.345 96.0822 225.761 96.3894 225.813 96.1505C225.861 95.9432 225.537 95.4141 224.459 95.0045C223.879 94.7802 222.777 94.6315 221.975 94.7144C219.678 94.9582 218.454 96.3845 218.196 96.6478C217.938 96.9087 217.547 97.3061 217.447 97.9083C217.313 98.708 217.825 99.3248 218.313 100.117C218.562 100.517 218.781 100.81 218.862 101.112C218.976 101.543 218.901 101.721 218.545 101.999C218.14 102.316 218.376 102.867 219.186 102.643C220.1 102.385 220.6 102.126 221.29 101.546C222.275 100.717 222.258 100.185 222.948 99.4979C223.633 98.8104 225.8 98.8153 226.912 98.9713C228.221 99.1542 228.521 98.8323 227.119 98.0083" fill="#413691"/>
<path d="M296.74 108.667C296.716 106.127 296.001 101.056 295.887 99.9439C295.577 96.8719 294.838 92.5979 292.481 86.6929C289.906 80.2588 287.824 75.7191 281.524 69.5044C274.103 62.1853 265.357 59.1523 263.246 58.5233C262.934 58.4282 262.758 58.3843 262.739 58.3794L262.734 58.377C258.745 57.3091 255.393 57.0312 251.875 56.98C239.304 56.7922 230.078 62.0731 226.843 65.562C225.484 67.0255 224.328 68.6647 223.405 70.4358C220.874 74.4879 220.56 78.8349 220.377 79.3884L220.384 79.3811C220.579 79.2104 223.598 75.8727 227.006 74.8706C227.845 76.2384 229.583 78.1059 233.074 79.8906C236.639 81.7143 240.559 82.7261 240.559 82.7261C240.559 82.7261 245.46 84.1329 250.419 85.9078C254.376 87.3243 258.499 92.4565 258.499 93.5146C258.499 95.704 256.348 97.7472 254.222 104.401C251.95 111.513 251.155 118.225 251.899 126.092C251.899 126.102 251.899 126.114 251.904 126.124C251.904 126.143 251.904 126.165 251.909 126.185C252.362 130.895 253.364 136.023 254.932 141.898C256.205 146.665 256.614 151.409 256.448 155.956C255.349 167.637 248.254 176.422 239.73 181.342L239.718 181.332V181.347C238.124 182.267 236.46 183.061 234.742 183.724C235.855 183.741 236.967 183.753 238.08 183.758C245.238 183.675 255.366 182.293 264.045 173.194C267.042 170.053 269.39 166.769 270.872 163.673C271.479 162.378 274.061 157.782 275.521 148.659C275.714 147.44 276.358 143.52 276.358 143.52C276.358 143.52 276.762 146.311 276.814 148.803C276.879 152.221 277.006 156.517 274.975 163.032C275.665 162.881 279.047 160.362 283.053 154.94C284.516 152.96 285.866 150.892 287.1 148.759C292.854 139.75 296.94 129.016 296.74 108.667Z" fill="#413691"/>
<path d="M265.68 88.7242C265.641 89.1143 265.777 89.2557 266.131 88.9704C267.691 87.7148 270.275 85.7936 273.798 85.1621C278.011 84.4088 280.398 82.351 281.498 80.0227C282.156 78.6232 282.688 76.1071 284.741 74.6004C285.392 74.1201 284.726 73.9494 284.182 74.0494C283.67 74.142 280.886 74.893 279.074 76.8776C277.868 75.5854 277.955 73.8129 278.126 72.7864C278.204 72.4817 277.965 72.2623 277.56 72.5938C276.18 73.7056 275.259 75.1782 274.959 76.2412C274.959 76.2412 273.862 75.4513 274.425 73.4642C274.523 73.1326 274.291 73.257 274.171 73.3423C272.189 74.7881 272.36 76.9507 272.343 77.2432C272.343 77.2432 270.344 76.1339 267.277 75.7121C266.745 73.6714 263.476 73.1351 262.939 75.227C262.454 77.1238 265.609 78.5671 266.95 76.9921C266.95 76.9921 271.27 77.4456 275.108 81.2856C275.498 81.6757 275.625 81.9877 275.383 82.212C275.205 82.3778 274.652 82.0414 273.976 81.5733C273.216 81.0442 267.988 77.6772 263.468 79.991C263.239 80.108 263.224 80.3079 263.437 80.3567C264.29 80.6029 266.192 81.2588 266.67 82.5022C265.463 82.8191 263.529 83.553 262.142 86.4104C261.781 87.1516 262.249 87.254 262.642 86.9517C263.112 86.5957 265.933 85.0524 266.989 85.1621C266.989 85.1621 266.033 86.5616 265.68 88.7242ZM301.724 67.1886C301.546 68.6344 301.995 72.7035 303.107 76.4923C304.277 80.4932 302.2 84.026 298.604 86.1008C297.477 84.3551 295.207 83.4823 293.191 83.4092C292.006 83.3653 292.33 83.848 292.913 84.0918C301.283 87.5954 298.33 97.355 297.253 99.4274C296.146 101.541 296.409 104.335 296.409 104.335C293.808 103.575 291.421 104.077 289.322 104.408C285.165 105.069 282.398 104.33 280.233 103.34C278.514 102.553 275.81 100.763 275.398 97.3452C275.32 96.7211 274.918 96.2896 274.671 97.4476C274.252 99.4249 274.544 101.839 275.963 103.358C274.413 110.977 259.465 110.421 259.465 110.421C258.473 107.132 251.678 106.132 250.142 101.351C249.413 99.0836 250.01 96.7187 250.01 96.7187C253.918 97.6573 256.181 95.7751 257.449 94.1977C258.187 93.2761 257.597 93.2346 257.071 93.5711C252.121 96.6992 247.513 93.5735 246.55 89.1631C245.266 84.3381 240.562 82.7265 240.562 82.7265C243.988 80.5688 243.025 76.841 244.807 73.6861C249.505 65.3722 256.188 67.8615 256.188 67.8615C256.834 69.8364 258.804 71.2602 260.74 71.8453C261.869 72.1867 261.691 71.6259 261.179 71.2602C256.432 67.8396 257.605 62.3953 261.342 59.8548C267.862 55.4175 268.978 53.4939 268.978 53.4939C270.175 54.4009 273.35 55.1884 276.692 55.4834C284.177 56.149 285.94 60.0475 286.091 61.5347C285.209 62.0004 283.702 63.4022 283 65.6404C282.649 66.7668 283.214 66.5913 283.587 66.0842C286.501 62.093 290.09 62.8439 293.457 64.3873C295.583 65.3649 298.664 67.8518 301.724 67.191" fill="#EF3138"/>
</g>
<defs>
<linearGradient id="paint0_linear_730_18391" x1="225.517" y1="66.7868" x2="222.391" y2="144.623" gradientUnits="userSpaceOnUse">
<stop stop-color="#D2068A"/>
<stop offset="0.737" stop-color="#413691"/>
<stop offset="1" stop-color="#413691"/>
</linearGradient>
</defs>
</svg>
