<svg width="480" height="320" viewBox="0 0 480 320" fill="none" xmlns="http://www.w3.org/2000/svg">
<path d="M269.835 124.784C266.992 121.775 263.343 119.856 257.991 119.26C252.81 118.682 247.978 119.801 244.411 122.386C240.84 124.97 238.826 128.328 238.369 132.457C238.023 135.547 238.596 138.19 240.096 140.379C241.588 142.563 243.259 143.76 245.105 143.967C246.015 144.072 246.809 143.894 247.414 143.371C247.99 142.877 248.126 142.173 248.181 141.539C248.225 140.998 248.068 140.571 247.44 140.059C246.873 139.6 245.806 139.588 244.384 139.301C242.971 139.016 241.652 137.978 240.986 137.094C240.346 136.213 239.962 134.605 240.436 131.669C240.797 129.395 243.094 126.526 245.033 125.325C247.597 123.732 250.641 122.293 255.237 122.659C259.468 122.999 262.773 124.31 265.073 126.889C267.675 129.799 267.951 133.37 267.602 136.515C267.352 138.757 266.332 140.684 264.55 142.289C263.48 143.266 261.543 144.077 259.747 144.185C259.497 144.185 259.25 144.188 258.968 144.188C258.938 144.185 258.912 144.409 258.883 144.633L258.805 145.043V145.051H258.811C260.538 145.772 261.805 146.572 262.619 147.459C263.433 148.345 263.901 149.351 264.041 150.488C264.212 151.913 263.913 153.142 263.142 154.169C262.384 155.172 261.447 155.73 260.331 155.855C256.415 156.163 256.732 152.953 257.22 152.148C257.921 151 258.857 151.241 258.438 149.95C257.93 148.389 256.581 148.886 256.581 148.886C256.217 148.924 254.327 149.45 254.72 152.732C255.101 155.907 257.441 157.809 259.863 158.605V158.614C259.979 158.652 260.096 158.675 260.212 158.707C260.285 158.733 260.357 158.754 260.43 158.768C261.421 159.027 262.43 159.117 263.483 159.018C265.431 158.835 266.96 158.041 268.059 156.637C269.169 155.239 269.588 153.483 269.335 151.386C269.178 150.058 268.736 148.941 268.004 148.031C267.207 147.017 265.997 146.098 264.419 145.258C265.838 145.06 267.213 144.592 268.585 143.589C271.705 141.301 273.164 138.298 273.519 134.672C273.865 131.082 272.693 127.796 269.835 124.784ZM397.537 154.506C396.987 155.055 396.595 155.416 396.359 155.561C396.176 155.678 395.967 155.736 395.722 155.736C395.493 155.736 395.292 155.654 395.118 155.494C394.94 155.334 394.815 155.023 394.74 154.555C394.667 154.084 394.629 152.805 394.629 150.721V143.295C394.629 141.179 394.487 139.78 394.216 139.094C393.792 138.048 393.126 137.271 392.231 136.777C391.045 136.123 389.524 135.8 387.678 135.8C385.256 135.8 383.381 136.37 382.044 137.51C380.706 138.658 380.037 139.911 380.037 141.275C380.037 141.99 380.218 142.554 380.575 142.967C380.927 143.382 381.389 143.586 381.953 143.586C382.532 143.586 383 143.391 383.361 142.99C383.712 142.595 383.893 142.033 383.893 141.304L383.849 139.92C383.849 139.225 384.137 138.603 384.715 138.065C385.276 137.518 386.041 137.254 387.006 137.254C388.268 137.254 389.236 137.661 389.896 138.463C390.559 139.272 390.893 140.757 390.893 142.926V143.781C387.303 145.153 384.736 146.319 383.186 147.275C381.648 148.235 380.561 149.252 379.939 150.34C379.479 151.125 379.258 152.046 379.258 153.116C379.258 154.805 379.723 156.169 380.66 157.207C381.59 158.242 382.785 158.762 384.23 158.762C385.012 158.762 385.745 158.614 386.454 158.338C386.503 158.315 386.559 158.294 386.608 158.274C386.689 158.236 386.78 158.213 386.858 158.172L386.855 158.163C388.562 157.349 390.111 155.66 390.111 153.102C390.111 150.453 388.678 150.171 388.408 150.171C388.408 150.171 387.376 149.872 387.137 151.16C386.942 152.218 387.611 151.959 388.224 152.823C388.652 153.43 389.172 155.965 386.271 156.006C385.436 155.994 384.698 155.619 384.052 154.875C383.395 154.113 383.07 153.16 383.07 152.009C383.07 151.099 383.326 150.255 383.849 149.485C384.366 148.717 385.23 147.982 386.434 147.278C387.102 146.88 388.591 146.197 390.896 145.237V155.175C390.911 156.468 391.141 157.384 391.574 157.922C392.01 158.46 392.603 158.727 393.344 158.727C394.888 158.727 396.505 157.541 398.2 155.166L397.537 154.506ZM421.476 153.965C421.22 154.599 420.853 155.076 420.388 155.404C419.917 155.727 419.438 155.89 418.938 155.89C418.333 155.89 417.839 155.643 417.452 155.148C417.068 154.654 416.873 153.698 416.873 152.279V138.158H421.824V136.425H416.873V130.488H416.17C415.545 132.102 415.443 132.279 415.135 132.934C414.78 133.66 414.001 134.791 413.12 135.472C412.172 136.204 410.765 136.373 409.829 136.425H405.142V134.847C405.142 131.428 405.247 129.314 405.456 128.488C405.671 127.665 406.02 127.061 406.506 126.671C406.988 126.279 407.579 126.084 408.279 126.084C408.855 126.084 409.337 126.125 409.809 126.43C410.282 126.732 410.861 127.418 411.399 128.305C411.934 129.195 411.934 129.328 412.23 129.692C412.507 130.032 412.934 130.259 413.283 130.259C413.733 130.259 414.164 130.044 414.556 129.616C414.946 129.192 415.013 128.846 415.056 128.366C415.103 127.907 415.016 127.183 414.268 126.194C413.228 124.819 411.663 124.354 410.07 124.354C408.355 124.354 406.802 124.822 405.43 125.752C404.052 126.689 403.034 127.913 402.363 129.433C401.697 130.948 401.36 132.8 401.36 134.989V136.422H397.31V138.155H401.36V152.506C401.36 154.067 401.261 155.116 401.072 155.657C400.883 156.201 400.534 156.628 400.031 156.945C399.528 157.265 398.973 157.422 398.365 157.422H397.432V158.288H409.934V157.422H408.035C407.096 157.422 406.337 157.073 405.779 156.372C405.352 155.832 405.139 154.544 405.139 152.506V138.155H413.103V152.779C413.103 154.358 413.262 155.523 413.576 156.282C413.899 157.041 414.393 157.628 415.059 158.032C415.731 158.44 416.414 158.64 417.112 158.64C418.147 158.64 419.15 158.251 420.124 157.466C421.095 156.683 421.851 155.515 422.38 153.965H421.476ZM370.353 135.797L364.036 138.472L364.265 139.335C364.855 139.1 365.387 138.978 365.858 138.978C366.248 138.978 366.579 139.088 366.844 139.312C367.109 139.533 367.292 139.891 367.391 140.373C367.489 140.859 367.536 142.377 367.536 144.918V153.334C367.536 154.616 367.498 155.396 367.425 155.666C367.277 156.227 367.007 156.64 366.632 156.893C366.117 157.248 365.335 157.425 364.274 157.425V158.291H374.97V157.425C374.028 157.425 373.301 157.285 372.798 157C372.295 156.715 371.943 156.358 371.752 155.925C371.461 155.305 371.318 154.39 371.318 153.18V142.722C372.042 141.225 372.746 140.152 373.429 139.501C373.743 139.184 374.043 139.024 374.313 139.024C374.627 139.024 375.118 139.301 375.778 139.85C376.435 140.397 377.031 140.676 377.566 140.676C378.113 140.676 378.587 140.461 378.976 140.027C379.375 139.6 379.572 139.071 379.572 138.449C379.572 137.748 379.299 137.132 378.755 136.597C378.209 136.059 377.517 135.797 376.682 135.797C374.848 135.797 373.06 137.44 371.318 140.719V135.797H370.353ZM363.163 149.642C362.375 151.578 361.561 152.913 360.73 153.642C359.547 154.698 358.215 155.224 356.727 155.224C354.645 155.224 352.999 154.218 351.781 152.221C350.56 150.221 349.95 147.912 349.95 145.293C349.95 142.731 350.566 140.661 351.793 139.103C352.72 137.923 353.941 137.335 355.456 137.335C356.398 137.335 357.131 137.574 357.666 138.056C358.198 138.553 358.5 139.277 358.584 140.228C358.669 141.179 358.849 141.818 359.119 142.158C359.561 142.766 360.233 143.068 361.125 143.068C361.794 143.068 362.311 142.885 362.684 142.513C363.053 142.138 363.236 141.65 363.236 141.048C363.236 139.824 362.576 138.641 361.259 137.501C359.936 136.364 358.253 135.797 356.2 135.797C353.47 135.797 351.127 136.87 349.179 139.016C347.225 141.161 346.251 143.952 346.251 147.389C346.251 150.936 347.132 153.75 348.891 155.832C350.65 157.913 352.717 158.954 355.084 158.954C357.075 158.954 358.892 158.181 360.526 156.634C362.166 155.09 363.268 152.866 363.829 149.968L363.163 149.642ZM252.842 140.341V127.392H251.795L245.568 130.067L245.887 130.933C246.6 130.677 247.111 130.55 247.428 130.55C247.827 130.55 248.138 130.651 248.37 130.861C248.606 131.064 248.786 131.454 248.897 132.021C249.007 132.588 249.065 134.538 249.065 137.018V153.331C249.065 154.704 248.972 155.614 248.795 156.061C248.612 156.503 248.37 156.811 248.068 156.968C247.533 157.271 246.806 157.422 245.885 157.422V158.288H252.842V141.792V140.341ZM331.087 124.357L324.859 127.029L325.173 127.895C325.886 127.639 326.397 127.514 326.72 127.514C327.115 127.514 327.429 127.616 327.662 127.82C327.897 128.026 328.072 128.413 328.182 128.982C328.299 129.552 328.36 131.073 328.36 133.556V153.334C328.36 154.707 328.267 155.614 328.083 156.061C327.9 156.503 327.659 156.811 327.354 156.968C326.825 157.274 326.098 157.422 325.17 157.422V158.288H335.515V157.422C334.451 157.422 333.698 157.3 333.264 157.053C332.828 156.806 332.532 156.497 332.375 156.134C332.209 155.765 332.133 154.832 332.133 153.334V141.792C333.259 140.533 334.227 139.702 335.032 139.286C335.832 138.876 336.611 138.667 337.355 138.667C338.085 138.667 338.707 138.853 339.227 139.228C339.742 139.6 340.123 140.158 340.355 140.905C340.591 141.656 340.71 143.22 340.71 145.604V153.331C340.71 154.576 340.684 155.329 340.643 155.579C340.489 156.183 340.222 156.64 339.841 156.954C339.46 157.268 338.785 157.419 337.809 157.419H337.335V158.285H347.595V157.419C346.618 157.419 345.949 157.309 345.586 157.085C345.216 156.864 344.955 156.558 344.806 156.178C344.591 155.663 344.487 154.718 344.487 153.331V145.609C344.487 142.909 344.338 141.054 344.056 140.033C343.644 138.577 343.013 137.498 342.164 136.821C341.315 136.137 340.294 135.794 339.114 135.794C338.12 135.794 337.137 136.068 336.148 136.611C335.163 137.161 333.828 138.402 332.139 140.336V124.357H331.087ZM326.013 149.642C325.226 151.578 324.412 152.913 323.58 153.642C322.4 154.698 321.062 155.224 319.58 155.224C317.501 155.224 315.847 154.218 314.631 152.221C313.41 150.221 312.803 147.912 312.803 145.293C312.803 142.731 313.416 140.661 314.646 139.103C315.57 137.923 316.791 137.335 318.312 137.335C319.248 137.335 319.984 137.574 320.516 138.056C321.051 138.553 321.356 139.277 321.437 140.228C321.519 141.179 321.696 141.818 321.972 142.158C322.411 142.766 323.083 143.068 323.975 143.068C324.641 143.068 325.162 142.885 325.534 142.513C325.906 142.141 326.092 141.65 326.092 141.048C326.092 139.824 325.426 138.641 324.106 137.501C322.789 136.364 321.106 135.797 319.056 135.797C316.323 135.797 313.98 136.87 312.032 139.016C310.081 141.161 309.104 143.952 309.104 147.389C309.104 150.936 309.985 153.75 311.744 155.832C313.503 157.913 315.567 158.954 317.94 158.954C319.928 158.954 321.74 158.181 323.377 156.634C325.019 155.09 326.118 152.866 326.682 149.968L326.013 149.642ZM295.184 139.027C296.176 137.998 297.304 137.489 298.571 137.489C299.388 137.489 300.176 137.745 300.929 138.257C301.685 138.763 302.249 139.463 302.633 140.356C302.871 140.926 303.037 141.914 303.112 143.313H293.437C293.603 141.481 294.181 140.054 295.184 139.027ZM307.828 144.688C307.828 141.984 307.078 139.83 305.575 138.216C304.078 136.603 302.159 135.797 299.83 135.797C297.068 135.797 294.777 136.838 292.951 138.928C291.126 141.019 290.216 143.929 290.216 147.665C290.216 151.113 291.105 153.855 292.887 155.896C294.661 157.934 296.806 158.957 299.307 158.957C301.612 158.957 303.522 158.067 305.057 156.279C306.587 154.5 307.514 152.506 307.831 150.314L307.122 149.834C306.444 151.758 305.601 153.11 304.589 153.892C303.581 154.672 302.394 155.061 301.031 155.061C298.984 155.061 297.205 154.142 295.69 152.302C294.175 150.459 293.425 147.918 293.44 144.685H307.828V144.688ZM276.615 139.027C277.609 137.998 278.737 137.489 279.999 137.489C280.822 137.489 281.613 137.745 282.363 138.257C283.116 138.763 283.683 139.463 284.064 140.356C284.305 140.926 284.468 141.914 284.54 143.313H274.868C275.033 141.481 275.615 140.054 276.615 139.027ZM289.259 144.688C289.259 141.984 288.509 139.83 287.009 138.216C285.509 136.603 283.593 135.797 281.255 135.797C278.499 135.797 276.208 136.838 274.379 138.928C272.556 141.019 271.644 143.929 271.644 147.665C271.644 151.113 272.533 153.855 274.31 155.896C276.092 157.934 278.234 158.957 280.732 158.957C283.034 158.957 284.953 158.067 286.485 156.279C288.015 154.5 288.942 152.506 289.259 150.314L288.55 149.834C287.872 151.758 287.026 153.11 286.017 153.892C285.009 154.672 283.822 155.061 282.456 155.061C280.415 155.061 278.63 154.142 277.118 152.302C275.6 150.459 274.85 147.918 274.865 144.685H289.259V144.688ZM64.5109 132L67.1158 126.392H82.3241L78.9487 133.614C71.1105 129.564 64.5109 132 64.5109 132ZM75.3872 136.699C75.4075 136.815 75.614 136.876 75.614 136.876L76.8467 137.265C76.8467 137.265 77.0531 137.356 76.8263 137.681C76.1227 138.69 75.204 139.431 73.3143 139.431C71.4274 139.431 70.4942 138.42 70.4942 136.966C70.4942 135.911 71.4187 134.937 72.6165 134.486L80.2104 136.48V136.623L75.7186 136.614C75.7215 136.611 75.3697 136.588 75.3872 136.699ZM73.0788 146.301L67.1187 158.294H55.3848C56.6175 157.091 64.6533 151.293 69.0841 148.121C70.2558 147.284 72.0118 146.258 73.5207 145.447L73.0788 146.301ZM106.656 144.173C104.958 144.173 103.225 145.583 102.475 147.2C101.667 148.938 101.8 150.424 103.745 150.424C105.775 150.424 107.353 148.81 108.15 147.115C108.932 145.421 108.353 144.173 106.656 144.173ZM176.394 147.072L179.653 158.294H167.067L166.355 150.221H166.107L162.345 158.294H151.664L160.825 138.629L143.587 158.294H134.982L137.13 148.523H136.839L135.22 150.843L129.719 158.294H120.983L122.172 138.763L113.075 158.294H102.6L104.28 155.396H104.03C101.12 157.466 98.7621 158.791 95.7385 158.791C89.7785 158.791 89.2813 152.744 91.77 147.406C94.3575 141.856 100.527 135.812 106.734 135.812C109.383 135.812 111.136 136.765 111.706 138.917H111.953L112.836 136.312H133.586L130.423 148.523H130.751L132.99 144.88L139.095 136.312H146.091L143.256 148.523H143.506L145.742 144.88L151.638 136.312H161.903L167.302 124.72H177.987L168.785 144.47H169.035L170.774 142.6L177.016 136.312H189.477L176.394 147.072ZM230.659 135.812L225.606 146.659C224.798 145.993 224.26 145.458 222.893 145.458C220.117 145.458 217.939 147.115 216.666 149.845L212.729 158.294H202.048L212.287 136.309H222.966L221.35 139.248H221.597C224.859 136.353 227.095 135.73 230.659 135.812ZM192.608 144.548H197.542C198.222 143.057 197.792 141.693 196.28 141.693C194.692 141.693 193.311 143.019 192.608 144.548ZM188.724 158.794C181.912 158.794 177.307 155.233 180.781 147.656C184.127 140.368 191.765 135.815 198.655 135.815C206.362 135.815 210.119 140.865 205.81 149.104H190.517C189.7 150.883 189.072 152.872 191.276 152.872C192.375 152.872 193.553 152.084 194.233 151.052H204.47C200.652 156.349 193.698 158.794 188.724 158.794ZM99.6227 126.392L85.2459 158.294H69.8836C69.8836 158.294 75.3959 146.24 75.7506 145.566L76.492 143.97C79.7046 142.499 82.7747 141.44 84.208 141.426C86.8217 141.394 86.8799 142.368 86.9962 142.833C87.1154 143.304 87.3479 143.039 87.3479 143.039C87.3479 143.039 87.9963 141.865 87.848 140.897C87.3189 137.393 81.7397 136.699 81.7397 136.699C81.2716 135.579 80.8006 134.94 80.8006 134.94L84.8535 126.395H99.6227V126.392ZM64.4556 200.889C161.869 178.32 286.91 161.812 424.616 173.287C289.936 168.322 163.985 183.727 64.4556 200.889Z" fill="#807F83"/>
</svg>
