<svg width="480" height="320" viewBox="0 0 480 320" fill="none" xmlns="http://www.w3.org/2000/svg">
<path fill-rule="evenodd" clip-rule="evenodd" d="M85.7557 138.677H101.241V166.271H119.605V95.2988H101.24V120.115H85.7557V95.2988H67.3916V166.271H85.7557V138.677Z" fill="#13007C"/>
<path fill-rule="evenodd" clip-rule="evenodd" d="M164.631 161.161L163.34 144.485C157.484 149.646 151.527 152.128 146.168 152.128C144.083 152.128 142.197 151.829 140.31 151.035L167.61 131.877C163.836 120.66 155.201 114.406 144.479 114.406C129.789 114.406 118.274 126.12 118.274 141.208C118.274 156.197 128.498 167.033 144.381 167.033C151.727 167.033 158.477 165.13 164.631 161.162V161.161ZM133.759 141.109C133.56 140.215 133.461 139.422 133.461 138.528C133.461 132.969 138.226 127.907 143.885 127.907C146.168 127.907 147.855 128.503 149.245 129.893L133.759 141.109Z" fill="#13007C"/>
<path fill-rule="evenodd" clip-rule="evenodd" d="M190.032 166.122H204.327V133.165C204.327 119.467 199.86 114.9 183.184 114.9C178.816 114.9 174.349 115.298 169.883 115.894L167.897 127.706C171.57 127.11 175.34 126.912 179.214 126.912C185.963 126.912 188.744 128.103 188.744 132.57C188.744 133.065 188.744 133.563 188.643 134.059C186.062 132.669 183.482 131.974 181.098 131.974C170.18 131.974 162.934 138.923 162.934 149.545C162.934 159.868 169.585 167.03 179.214 167.03C183.482 167.03 187.154 165.524 190.032 162.645V166.122ZM184.276 153.814C181.298 153.814 179.014 151.431 179.014 148.452C179.014 145.376 181.496 142.993 184.276 142.993C187.154 142.993 189.637 145.474 189.637 148.453C189.637 151.331 187.253 153.814 184.276 153.814V153.814Z" fill="#13007C"/>
<path fill-rule="evenodd" clip-rule="evenodd" d="M246.32 115.105H228.65L223.389 146.175L218.228 115.105H200.558L213.165 166.129H233.813L246.32 115.105Z" fill="#13007C"/>
<path fill-rule="evenodd" clip-rule="evenodd" d="M290.957 114.982H272.59L266.832 140.095L259.288 114.982H240.511L258.692 164.019L251.844 182.796H270.506L290.957 114.982Z" fill="#13007C"/>
<path fill-rule="evenodd" clip-rule="evenodd" d="M310.58 95.2988H292.215V166.271H331.127L336.884 146.716H310.58V95.2988Z" fill="#FF0000"/>
<path fill-rule="evenodd" clip-rule="evenodd" d="M336.435 110.784H353.208V95.298H336.435V110.784ZM336.435 166.27H353.208V115.25H336.435V166.27ZM383.124 95.0033C381.438 94.9044 380.047 94.8047 378.855 94.8047C365.753 94.8047 359.003 101.157 359.003 113.864V115.254H355.031V130.441H359.003V166.275H375.779V130.441H383.124V115.255H375.779V114.956C375.779 111.979 377.367 110.887 380.939 110.887C381.438 110.887 382.132 110.986 383.125 110.986L383.124 95.0033ZM409.581 166.234L412.661 148.563C411.469 148.763 410.476 148.763 409.682 148.763C405.711 148.763 404.917 147.074 404.917 141.913V130.399H411.27V115.211H404.917V100.023L388.141 109.752V115.211H384.965V130.399H388.141V148.862C388.141 161.467 389.928 166.845 402.733 166.845C404.917 166.845 407.1 166.644 409.581 166.234Z" fill="#FF0000"/>
<path fill-rule="evenodd" clip-rule="evenodd" d="M90.2992 191.665C89.5755 191.529 88.9426 191.394 88.3548 191.304C87.5001 191.206 86.6402 191.159 85.7798 191.165C75.9731 191.165 69.2383 198.261 69.2383 207.529C69.2383 217.604 76.2884 224.348 87.3158 224.348C88.2197 224.348 89.1243 224.213 90.1183 224.076L91.113 219.186C89.7572 219.548 88.4464 219.773 87.1356 219.773C79.3168 219.773 74.1646 214.441 74.1646 207.483C74.1646 200.748 79.2267 195.685 86.1409 195.685C87.8135 195.685 89.4854 196.001 91.0679 196.588L90.2992 191.665ZM109.868 190.397L92.4614 223.662L96.582 224.844L103.315 211.548H115.473L122.026 224.844L126.635 223.662L109.868 190.397ZM109.643 199.209L113.756 207.483H105.393L109.643 199.209ZM128.76 191.574V224.303L133.595 223.889V209.018L144.443 224.754L149.007 222.801L139.154 209.424C143.81 208.656 146.701 205.178 146.701 201.018C146.701 197.359 144.894 194.287 142.182 192.838C140.194 191.8 137.844 191.574 134.952 191.574H128.76ZM133.595 195.865H135.449C139.697 195.865 141.866 197.585 141.866 200.838C141.866 204.091 139.607 206.125 135.358 206.125H133.595V195.865ZM180.101 195.64C177.344 192.657 172.78 190.713 167.898 190.713C162.928 190.713 158.543 192.612 155.334 196.136C152.442 199.299 150.86 203.459 150.86 207.709C150.86 217.514 158.182 224.754 167.898 224.754C172.418 224.754 176.621 223.117 180.778 219.863V205.449H169.3V209.831H175.989V217.243C173.639 219.186 170.973 220.135 167.899 220.135C160.895 220.135 155.787 214.576 155.787 207.709C155.787 200.838 160.895 195.279 167.899 195.279C171.334 195.279 174.182 196.453 177.074 198.938L180.101 195.64ZM201.885 190.713C197.592 190.713 193.704 192.161 190.813 194.737C186.97 198.126 184.847 202.782 184.847 207.709C184.847 212.68 186.97 217.287 190.813 220.725C193.705 223.302 197.592 224.754 201.885 224.754C206.857 224.754 211.24 222.846 214.449 219.323C217.322 216.137 218.916 212 218.924 207.709C218.924 202.782 216.845 198.171 213.003 194.737C210.111 192.206 206.224 190.713 201.885 190.713V190.713ZM201.885 195.279C208.891 195.279 213.997 200.838 213.997 207.709C213.997 214.577 208.846 220.135 201.885 220.135C194.88 220.135 189.773 214.621 189.773 207.709C189.773 200.838 194.88 195.279 201.885 195.279ZM250.424 190.397L233.016 223.662L237.136 224.844L243.871 211.548H256.028L262.582 224.844L267.192 223.662L250.424 190.397ZM250.198 199.209L254.311 207.483H245.951L250.198 199.209ZM269.676 224.303L274.468 223.889V191.12L269.675 191.574L269.676 224.303ZM281.337 191.574V224.303L286.174 223.889V209.018L297.02 224.754L301.583 222.801L291.732 209.424C296.386 208.656 299.277 205.178 299.277 201.018C299.277 197.359 297.471 194.287 294.759 192.838C292.772 191.8 290.422 191.574 287.53 191.574H281.337ZM286.174 195.865H288.025C292.274 195.865 294.444 197.585 294.444 200.838C294.444 204.091 292.184 206.125 287.935 206.125H286.173L286.174 195.865ZM305.064 223.889H322.374L324.181 219.277H309.901V191.12L305.064 191.574V223.889ZM327.661 224.303L332.45 223.889V191.12L327.661 191.574V224.303ZM344.157 223.889V202.286L365.308 225.205V191.12L360.519 191.574V213.222L339.321 190.352V224.303L344.157 223.889ZM388.539 223.889L390.256 219.277H376.698V209.424H386.416V204.907H376.698V195.955H388.856L387.68 191.574H371.862V223.889H388.539ZM411.093 195.911C408.966 192.568 405.624 190.713 402.008 190.713C396.086 190.713 392.154 194.332 392.154 199.981C392.154 204.772 394.686 207.209 399.792 209.198C403.724 210.736 406.256 211.639 406.256 215.072C406.256 217.874 404.221 219.999 401.193 219.999C398.752 219.999 396.585 218.555 394.956 215.709L391.296 219.142C394.054 222.846 397.261 224.618 401.193 224.618C406.932 224.618 411.227 220.405 411.227 214.801C411.227 211.007 409.148 207.889 405.441 206.305C400.333 204.136 396.945 203.324 396.945 199.619C396.945 196.998 398.933 195.099 401.645 195.099C404.04 195.099 406.256 196.452 407.927 199.074L411.093 195.911Z" fill="black"/>
</svg>
