<svg width="480" height="320" viewBox="0 0 480 320" fill="none" xmlns="http://www.w3.org/2000/svg">
<path d="M424.167 123.084L414.845 198.609L364.103 198.669L397.614 123.118L424.167 123.084Z" fill="#F02B35"/>
<path d="M424.167 123.084L414.845 198.609L364.103 198.669L397.614 123.118L424.167 123.084Z" stroke="#EF2C30" stroke-width="1.9819"/>
<path d="M393.304 150.525V161.97H381.641L381.586 172.317H393.241L393.304 183.943L404.024 184.004V172.195L415.859 172.255L415.804 162.03H404.025V150.525H393.305" fill="white"/>
<path d="M263.005 97.8037L263.084 98.3186C277.261 99.6399 295.704 104.123 297.151 104.595C297.151 104.595 302.533 105.667 307.951 107.64C314.567 110.05 321.765 114.043 321.765 117.621C321.765 120.067 317.317 127.458 286.193 131.421C285.428 131.518 259.934 134.692 227.638 136.072C213.755 136.667 194.302 137.258 163.535 136.072C117.916 134.314 94.3965 128.494 92.299 128.037C89.9498 127.526 66.4856 123.011 64.2025 118.305C62.7064 115.23 78.344 109.21 83.8176 107.728C92.0133 105.509 101.911 102.88 111.698 101.115C127.362 98.2817 141.982 96.8613 143.189 96.8613L142.304 95.1806C140.399 95.099 106.078 96.7419 83.6213 101.253C80.8777 101.802 62.5694 105.282 56.7937 113.789C55.9796 114.99 54.8196 120.013 57.1901 123.403C58.8125 125.725 62.7919 134.014 99.9905 141.582C107.605 143.133 147.512 148.965 190.132 148.478C191.292 148.466 211.948 148.423 240.944 145.052C262.305 142.568 291.706 137.553 303.157 132.599C305.712 131.491 326.26 126.492 324.063 116.298C323.361 113.032 316.364 107.876 301.714 104.453C299.587 103.953 275.619 98.6528 263.005 97.8047" fill="#F02B35"/>
<path d="M263.005 97.8037L263.084 98.3186C277.261 99.6399 295.704 104.123 297.151 104.595C297.151 104.595 302.533 105.667 307.951 107.64C314.567 110.05 321.765 114.043 321.765 117.621C321.765 120.067 317.317 127.458 286.193 131.421C285.428 131.518 259.934 134.692 227.638 136.072C213.755 136.667 194.302 137.258 163.535 136.072C117.916 134.314 94.3965 128.494 92.299 128.037C89.9498 127.526 66.4856 123.011 64.2025 118.305C62.7064 115.23 78.344 109.21 83.8176 107.728C92.0133 105.509 101.911 102.88 111.698 101.115C127.362 98.2817 141.982 96.8613 143.189 96.8613L142.304 95.1806C140.399 95.099 106.078 96.7419 83.6213 101.253C80.8777 101.802 62.5694 105.282 56.7937 113.789C55.9796 114.99 54.8196 120.013 57.1901 123.403C58.8125 125.725 62.7919 134.014 99.9905 141.582C107.605 143.133 147.512 148.965 190.132 148.478C191.292 148.466 211.948 148.423 240.944 145.052C262.305 142.568 291.706 137.553 303.157 132.599C305.712 131.491 326.26 126.492 324.063 116.298C323.361 113.032 316.364 107.876 301.714 104.453C299.587 103.953 275.619 98.6528 263.005 97.8047V97.8037Z" stroke="#EF2C30" stroke-width="1.9819"/>
<path d="M123.63 156.51H133.079V169.428H145.527V156.51H154.979V191.986H145.527V177.376H133.079V191.986H123.63V156.51ZM168.394 181.152C168.544 184.679 170.628 187.016 174.286 187.016C176.371 187.016 178.402 186.073 179.216 184.183H187.294C185.72 190.147 180.078 192.731 174.186 192.731C165.598 192.731 159.756 187.66 159.756 179.017C159.756 171.117 166.209 165.452 173.982 165.452C183.434 165.452 188.158 172.409 187.751 181.151L168.394 181.152ZM179.113 176.433C178.963 173.55 176.879 171.167 173.982 171.167C170.933 171.167 168.901 173.302 168.394 176.433H179.113ZM192.375 156.51H201.013V191.986H192.376L192.375 156.51ZM207.415 156.51H216.053V162.968H207.416L207.415 156.51ZM207.415 166.2H216.053V191.986H207.416L207.415 166.2ZM228.855 183.488C228.855 184.78 229.415 185.723 230.277 186.369C231.09 186.965 232.261 187.264 233.479 187.264C235.154 187.264 237.543 186.569 237.543 184.531C237.543 182.545 234.851 182.146 233.326 181.798C227.891 180.455 221.081 180.309 221.081 173.352C221.081 167.143 227.94 165.452 233.125 165.452C238.915 165.452 244.962 167.094 245.266 173.799H237.289C237.289 172.708 236.885 172.01 236.172 171.563C235.461 171.117 234.496 170.916 233.428 170.916C232.004 170.916 229.719 171.067 229.719 172.856C229.719 175.289 235.511 175.735 239.474 176.581C244.809 177.625 246.181 181.403 246.181 183.536C246.181 190.445 239.474 192.731 233.529 192.731C227.281 192.731 220.878 190.691 220.624 183.488H228.855ZM281.595 191.986H272.858L268.69 174.842H268.588L264.473 191.986H255.735L247.502 166.2H256.243L260.663 182.89H260.763L264.523 166.2H272.757L276.617 182.844H276.717L281.035 166.2H289.829L281.595 191.986ZM293.026 156.51H301.663V162.968H293.026V156.51ZM293.026 166.2H301.663V191.986H293.026V166.2ZM314.471 183.488C314.471 184.78 315.028 185.723 315.892 186.369C316.703 186.965 317.874 187.264 319.092 187.264C320.77 187.264 323.156 186.569 323.156 184.531C323.156 182.545 320.464 182.146 318.94 181.798C313.504 180.455 306.695 180.309 306.695 173.352C306.695 167.143 313.554 165.452 318.739 165.452C324.53 165.452 330.576 167.094 330.883 173.799H322.903C322.903 172.708 322.498 172.01 321.785 171.563C321.074 171.117 320.108 170.916 319.042 170.916C317.62 170.916 315.333 171.067 315.333 172.856C315.333 175.289 321.125 175.735 325.088 176.581C330.422 177.625 331.797 181.403 331.797 183.536C331.797 190.445 325.088 192.731 319.143 192.731C312.894 192.731 306.492 190.691 306.237 183.488H314.471ZM342.72 183.488C342.72 184.78 343.28 185.723 344.141 186.369C344.955 186.965 346.126 187.264 347.344 187.264C349.019 187.264 351.408 186.569 351.408 184.531C351.408 182.545 348.715 182.146 347.192 181.798C341.753 180.455 334.947 180.309 334.947 173.352C334.947 167.143 341.806 165.452 346.988 165.452C352.779 165.452 358.828 167.094 359.132 173.799H351.154C351.154 172.708 350.746 172.01 350.037 171.563C349.326 171.117 348.358 170.916 347.294 170.916C345.869 170.916 343.581 171.067 343.581 172.856C343.581 175.289 349.376 175.735 353.339 176.581C358.674 177.625 360.046 181.403 360.046 183.536C360.046 190.445 353.339 192.731 347.394 192.731C341.143 192.731 334.743 190.691 334.489 183.488H342.72Z" fill="black"/>
<path d="M335.655 206.775C336.151 206.61 339.801 206.194 339.967 204.286C340.134 202.379 333.248 202.045 333.248 202.045C333.248 202.045 330.011 201.3 326.362 201.715C322.71 202.13 319.558 204.29 319.309 204.62C318.728 205.86 321.136 206.942 321.136 206.942C321.136 206.942 325.532 208.268 328.104 208.185C330.674 208.102 335.655 206.775 335.655 206.775ZM318.314 197.648C317.069 198.312 316.239 204.453 322.129 201.715C324.287 200.552 327.358 198.312 328.351 196.238C329.265 194.411 328.433 194.827 327.273 195.078C321.798 195.159 318.644 197.234 318.314 197.648ZM319.391 207.023C318.853 207.103 317.899 207.272 317.65 209.428C317.565 211.753 318.314 212.083 319.64 212.997C320.969 213.91 322.379 213.328 323.873 213.661C325.781 214.157 326.692 214.657 326.692 214.657C326.692 214.657 327.606 214.739 327.358 213.246C327.358 212.083 326.362 211.172 322.792 208.767C322.21 208.268 319.93 206.941 319.392 207.023H319.391ZM314.762 212.651C314.099 214.145 314.181 219.452 319.159 220.698C320.322 221.031 323.226 224.846 324.47 225.097C325.714 225.345 326.297 223.437 325.548 219.287C323.888 216.137 315.425 211.159 314.762 212.651Z" fill="#C2C1C6" stroke="#C2C1C6" stroke-width="0.495476"/>
<path d="M311.776 210.744C310.613 211.241 309.949 218.212 310.116 219.287C310.28 220.368 312.024 223.353 313.021 223.438C314.016 223.52 314.431 218.293 314.431 218.293C314.431 218.293 312.936 210.244 311.776 210.745V210.744ZM306.068 211.74C306.761 211.825 306.993 212.351 307.538 212.42C308.076 212.49 308.99 212.208 309.35 212.42C309.709 212.633 310.642 213.357 309.865 214.723C309.522 215.405 305.983 219.326 305.983 219.326L303.825 222.479C303.825 222.479 303.394 224.183 302.362 224.183C301.325 224.183 301.238 222.228 301.238 221.712C301.238 221.197 302.792 216.94 302.792 216.94C302.792 216.94 305.379 211.653 306.068 211.74ZM304.639 208.834C304.805 207.007 302.815 207.007 302.4 206.929C301.986 206.844 299.994 207.093 299.994 207.093C299.994 207.093 299.164 206.759 297.422 207.426C295.678 208.088 291.615 213.979 291.615 213.979C291.615 213.979 288.545 216.385 288.378 216.8C288.211 217.215 287.382 219.122 291.118 218.708C294.849 218.293 302.4 214.726 302.4 214.726C302.4 214.726 305.054 212.486 304.639 208.834ZM302.234 204.604C302.898 202.612 301.901 202.282 300.657 202.032C299.413 201.784 295.763 201.537 295.763 201.537C295.763 201.537 292.693 201.7 292.36 202.365C292.029 203.029 295.099 204.522 295.099 204.522L299.745 206.18C299.745 206.18 301.572 206.596 302.234 204.604ZM300.99 201.285C302.483 201.7 303.479 202.196 303.975 201.285C304.473 200.373 302.732 198.466 303.313 197.717C303.894 196.969 303.975 196.969 304.058 196.224C304.142 195.476 301.901 193.239 298.997 191.083C296.923 190.25 294.933 189.671 294.933 189.671C294.933 189.671 291.697 187.927 289.706 188.506C287.715 189.087 290.037 190.998 290.037 190.998C290.037 190.998 294.979 195.809 295.678 197.138C296.379 198.466 299.497 200.869 300.99 201.285ZM304.512 194.649C305.923 195.009 309.115 195.279 309.865 194.649C310.431 191.942 303.196 188.245 302.634 188.514C302.07 188.786 302.259 193.474 304.512 194.649Z" fill="#C2C1C6" stroke="#C2C1C6" stroke-width="0.495476"/>
<path d="M311.018 193.76C311.843 194.172 313.95 193.924 314.87 194.336C315.787 194.748 315.694 195.818 318.442 195.654C319.909 195.86 322.173 191.653 323.478 187.299C324.783 182.945 325.135 178.439 324.218 178.604C323.761 178.604 320.736 180.086 311.934 189.971C311.387 190.877 309.186 193.265 311.018 193.76Z" fill="#C2C1C6" stroke="#C2C1C6" stroke-width="0.495476"/>
<path d="M311.057 199.906C309.631 199.993 308.378 201.745 308.291 203.15C308.201 204.553 309.717 205.956 311.324 206.044C312.931 206.131 313.824 204.99 314.181 203.15C314.537 201.308 312.484 199.816 311.057 199.906ZM309.783 196.962C309.694 196.291 309.477 194.964 307.377 195.553C305.278 196.14 305.054 198.04 305.054 198.04C305.054 198.04 304.94 201.491 306.881 200.862C308.983 199.956 310.368 198.759 309.783 196.962ZM314.592 196.14C312.799 195.617 311.974 196.814 311.787 197.226C311.602 197.636 311.488 198.833 313.171 199.956C314.855 201.079 316.165 199.023 316.353 198.647C316.54 198.272 316.39 196.664 314.592 196.141V196.14ZM316.054 201.38C315.565 201.417 315.079 202.536 315.042 202.648C315.005 202.762 314.519 204.223 315.193 205.119C315.866 206.017 316.99 205.793 316.99 205.793C316.99 205.793 317.923 205.38 318.109 203.772C318.297 202.164 316.54 201.34 316.054 201.38ZM314.592 206.316C313.472 206.279 312.611 207.851 312.611 207.999C312.611 208.15 311.9 210.208 313.621 210.694C315.341 211.18 315.304 210.879 316.091 210.131C317.513 208.975 316.912 207.888 316.688 207.328C316.464 206.764 315.717 206.353 314.592 206.316ZM305.839 202.014C304.531 201.826 303.371 203.51 303.258 204.146C303.146 204.784 303.371 205.978 304.307 206.466C305.24 206.952 305.913 206.839 306.998 206.017C308.085 205.193 307.26 203.1 307.26 203.1C307.26 203.1 307.15 202.202 305.839 202.014ZM310.442 206.841C309.882 206.242 308.42 205.83 307.972 205.98C307.522 206.128 306.027 207.439 305.876 208.113C305.728 208.783 306.251 211.329 307.746 211.217C309.245 211.103 310.217 209.944 310.217 209.944C310.217 209.944 311.263 208.562 311.189 207.925C311.189 207.44 311.002 207.44 310.441 206.841H310.442Z" fill="#D1C072" stroke="#D1C072" stroke-width="0.495476"/>
</svg>
