<svg width="480" height="320" viewBox="0 0 480 320" fill="none" xmlns="http://www.w3.org/2000/svg">
<path d="M348.054 187.907C348.054 187.907 348.105 187.761 348.225 187.628C348.405 187.428 348.835 187.274 349.196 187.266L357.244 187.262L358.005 184.545L350.067 184.544C348.405 184.544 347.073 184.925 346.082 185.673C345.362 186.218 344.871 186.941 344.531 187.847C344.03 189.654 344.771 190.451 344.771 190.451C344.771 190.451 345.472 191.612 348.115 191.562L351.818 191.567C352.299 191.567 352.519 191.685 352.629 191.847C352.679 191.922 352.699 192.013 352.699 192.088C352.699 192.164 352.679 192.276 352.679 192.276C352.679 192.276 352.619 192.474 352.569 192.661C352.569 192.661 352.519 192.806 352.399 192.939C352.209 193.14 351.788 193.293 351.428 193.301L343.199 193.297L342.398 196.116L350.527 196.117C352.189 196.117 353.53 195.737 354.511 194.988C355.332 194.364 355.893 193.475 356.173 192.407C356.173 192.407 356.243 192.098 356.263 191.609C356.273 191.123 356.103 190.583 355.843 190.243C355.582 189.904 354.782 189.095 352.419 189.095H348.765C348.275 189.095 348.105 188.892 348.024 188.803C347.954 188.713 347.924 188.574 347.924 188.469C347.924 188.348 347.954 188.251 347.974 188.191C347.984 188.13 348.004 188.092 348.054 187.907ZM344.561 184.625H339.816C339.816 184.625 335.842 190.596 335.251 191.492C335.241 191.499 335.211 191.599 335.211 191.599L335.201 191.598L335.221 191.494C335.121 190.453 334.58 184.625 334.58 184.625H330.496L332.068 196.116H332.078L331.557 196.813C331.487 196.908 331.407 196.991 331.297 197.064C330.676 197.504 329.385 197.381 328.214 197.327L327.793 197.312L327.052 200.086L328.824 200.107C330.886 200.131 332.448 199.74 333.609 198.913C334.02 198.62 334.37 198.274 334.66 197.876C335.011 197.401 335.882 196.246 335.982 196.116L344.561 184.625ZM323.709 192.534C323.599 192.89 323.288 193.299 322.337 193.299L320.665 193.303L318.663 193.299C318.283 193.299 318.043 193.192 317.913 193.017C317.863 192.949 317.812 192.837 317.802 192.744C317.802 192.664 317.802 192.547 317.823 192.48C317.823 192.48 317.853 192.397 317.873 192.318C318.123 191.517 319.074 191.553 319.234 191.553H323.989L323.709 192.534ZM323.048 195.423L322.858 196.117L326.261 196.115L328.474 188.269C328.764 187.168 328.714 186.311 328.244 185.688C327.683 184.937 326.562 184.558 324.91 184.558H316.871L316.121 187.242L324.249 187.244C324.6 187.252 324.94 187.406 325.01 187.608C325.06 187.74 325.02 187.885 325.02 187.885C324.97 188.071 324.94 188.183 324.91 188.283C324.91 188.288 324.75 188.831 324.67 189.108H319.955C317.002 189.108 314.939 190.106 314.259 192.618C314.199 192.837 314.159 193.175 314.159 193.425C314.159 193.965 314.229 194.531 314.559 194.97C315.12 195.734 316.241 196.103 317.973 196.117H320.676C321.787 196.117 322.588 195.764 323.038 195.414L323.048 195.423ZM310.845 184.625C310.845 184.625 306.871 190.596 306.28 191.492C306.28 191.499 306.25 191.599 306.25 191.599L306.23 191.597L306.25 191.494C306.15 190.452 305.61 184.625 305.61 184.625H301.535V184.627C301.505 184.663 297.561 190.6 296.97 191.492C296.96 191.499 296.93 191.599 296.93 191.599L296.92 191.597L296.94 191.494C296.84 190.452 296.3 184.625 296.3 184.625H292.215L293.787 196.116H297.701L302.206 189.573L303.097 196.116H307.021L315.59 184.625H310.845ZM291.134 184.556H289.723C289.002 184.556 288.191 184.708 287.5 185.153L287.36 185.262L287.34 185.257L287.39 185.104L287.53 184.561H284.137L280.883 196.115H284.447L286.419 189.034C286.619 188.327 287.13 187.796 287.871 187.582C288.031 187.534 288.151 187.502 288.351 187.487C288.351 187.487 289.342 187.432 290.293 187.515L291.134 184.556ZM279.172 180.135L278.381 182.947H282.005L282.795 180.135H279.172ZM277.94 184.533L274.687 196.116H278.311L281.564 184.533H277.94ZM269.822 192.534C269.712 192.89 269.391 193.299 268.45 193.299L266.768 193.303L264.766 193.299C264.386 193.299 264.156 193.192 264.026 193.017C263.976 192.949 263.925 192.837 263.915 192.744C263.905 192.664 263.915 192.547 263.935 192.48C263.935 192.48 263.956 192.397 263.986 192.318C264.236 191.517 265.177 191.553 265.337 191.553H270.092L269.822 192.534ZM269.161 195.423L268.961 196.117L272.364 196.115L274.577 188.269C274.877 187.168 274.827 186.311 274.357 185.688C273.796 184.937 272.675 184.558 271.013 184.558H262.984L262.234 187.242L270.352 187.244C270.713 187.252 271.053 187.406 271.123 187.608C271.163 187.74 271.133 187.885 271.133 187.885C271.083 188.071 271.053 188.183 271.013 188.283C271.013 188.288 270.863 188.831 270.783 189.108H266.058C263.105 189.108 261.042 190.106 260.362 192.618C260.312 192.837 260.262 193.175 260.262 193.425C260.262 193.965 260.342 194.531 260.662 194.97C261.233 195.734 262.354 196.103 264.076 196.117H266.778C267.89 196.117 268.691 195.764 269.141 195.414L269.161 195.423ZM352.639 134.715C340.557 134.715 333.299 137.094 330.446 147.347C330.446 147.344 329.755 149.331 329.134 151.535C328.163 154.964 327.092 159.17 327.092 159.17C326.011 163.157 326.121 166.304 327.893 168.697C330.236 171.839 335.031 173.433 342.138 173.433H361.168L363.981 163.638L344.311 163.626C342.509 163.626 341.147 163.15 340.507 162.282C339.976 161.571 339.976 160.59 340.346 159.365C340.346 159.363 340.937 156.463 341.698 153.715C342.389 151.235 343.259 148.869 343.259 148.869C344.25 145.792 346.893 144.344 350.457 144.344L357.625 144.234L369.067 144.344L371.74 134.715H352.639ZM318.784 119.903L316.121 129.324H328.254L330.906 119.903H318.784ZM314.659 134.637L303.758 173.433H315.89L326.802 134.637H314.659ZM287.971 119.893L276.909 159.336C275.768 163.474 276.088 166.754 277.88 169.099C280.093 172.014 284.397 173.433 291.054 173.433H296.82L299.473 163.777L298.452 163.797C294.608 163.94 290.213 164.317 289.022 162.765C288.592 162.2 288.511 161.514 288.802 160.502L293.236 144.526H304.518L307.281 134.715H295.989L300.104 119.893L287.971 119.893M242.232 146.387C242.603 145.193 243.664 143.824 246.827 143.824L252.844 143.71L259.13 143.824C260.402 143.824 261.433 144.172 261.873 144.758C262.043 144.988 262.124 145.255 262.124 145.568C262.124 145.758 262.094 145.97 262.033 146.195L260.952 150.003H241.211L242.232 146.387ZM230.01 147.139C230.01 147.149 226.196 161.003 226.196 161.003C225.214 164.694 225.375 167.563 226.936 169.652C228.818 172.163 232.582 173.433 238.128 173.433H265.027L267.659 163.992L240.781 163.996C239.64 163.996 238.759 163.651 238.308 163.031C238.078 162.718 237.958 162.336 237.958 161.9C237.958 161.605 238.018 161.289 238.118 160.957C238.118 160.941 238.639 159.124 238.909 158.194H270.442L273.646 146.823C274.016 145.494 274.196 144.266 274.196 143.138C274.196 141.333 273.726 139.802 272.785 138.562C270.863 136.026 267.119 134.766 261.353 134.715H249.21C238.819 134.715 232.352 138.893 230.01 147.139ZM215.805 134.943C215.805 134.943 202.5 154.945 200.508 157.946C200.498 157.968 200.388 158.302 200.388 158.302L200.358 158.299L200.398 157.953C200.068 154.462 198.276 134.943 198.276 134.943H184.602L189.847 173.433H202.981L231.701 134.943H215.805ZM171.828 119.893L156.762 173.433H169.566L184.632 119.893L171.828 119.893M126.246 146.387C126.617 145.194 127.679 143.824 130.849 143.824L136.565 143.71L143.154 143.824C144.428 143.824 145.452 144.173 145.894 144.758C146.065 144.988 146.151 145.255 146.151 145.568C146.151 145.758 146.117 145.97 146.052 146.195L144.977 150.003H125.221L126.246 146.387ZM114.017 147.139C114.017 147.149 110.204 161.003 110.204 161.003C109.216 164.694 109.382 167.563 110.949 169.653C112.828 172.163 116.594 173.434 122.141 173.434H149.046L151.793 163.993L124.795 163.997C123.652 163.997 122.774 163.651 122.318 163.032C122.084 162.718 121.97 162.336 121.97 161.9C121.97 161.605 122.022 161.29 122.126 160.957C122.131 160.941 122.653 159.124 122.919 158.194H154.467L157.673 146.823C158.033 145.494 158.214 144.267 158.214 143.138C158.214 141.334 157.743 139.802 156.812 138.563C154.882 136.026 151.144 134.767 145.373 134.716H133.226C122.822 134.716 116.363 138.893 114.017 147.139ZM91.7753 144.526C92.6052 144.526 93.3079 144.621 93.8715 144.817C95.267 145.307 95.8035 146.433 95.298 148.315C95.295 148.317 88.2495 173.434 88.2495 173.434H100.222L107.447 147.55C108.556 143.596 108.234 140.596 106.531 138.493C104.643 136.151 100.231 134.716 95.1098 134.716H84.9951C82.5986 134.716 79.8687 135.227 77.5702 136.716L77.0757 137.085L77.0097 137.062L77.1728 136.549L81.8047 119.893H70.4397L55.3848 173.434H67.3104L73.9374 149.715C74.6151 147.349 76.3299 145.572 78.7855 144.856C79.3461 144.693 79.7485 144.588 80.4092 144.536C80.4092 144.536 82.968 144.358 86.3716 144.353C88.2525 144.348 91.7753 144.526 91.7753 144.526" fill="#7B7678"/>
<path d="M392.331 134.475C388.757 134.475 385.824 137.359 385.824 140.919V166.759C385.824 170.316 388.757 173.235 392.331 173.235H418.148C421.732 173.235 424.615 170.316 424.615 166.759V140.919C424.615 137.359 421.732 134.475 418.148 134.475H392.331ZM399.559 141.451L402.222 141.639L409.98 152.494C410.33 152.494 417.358 152.495 417.358 152.494L419.18 152.651C420.211 152.808 421.772 153.918 421.832 153.964L422.213 154.246L421.832 154.528C421.772 154.582 420.211 155.715 419.18 155.873L417.358 156.029H409.98C409.78 156.315 402.222 166.885 402.222 166.885L399.559 167.072C399.559 167.072 402.972 157.032 403.253 156.217C401.921 156.165 399.479 156 399.469 155.997C399.469 155.997 394.343 155.495 394.023 155.466C393.813 155.692 390.99 158.625 390.99 158.626L388.897 158.407C388.897 158.407 390.399 154.445 390.489 154.214C390.399 153.983 388.897 150.117 388.897 150.117L390.99 149.898C390.99 149.898 393.843 152.858 394.053 153.088C394.884 152.994 399.469 152.497 399.499 152.494C399.499 152.494 402.462 152.339 403.253 152.306C402.972 151.491 399.719 141.952 399.719 141.952L399.559 141.451Z" fill="#EE2722"/>
</svg>
