<svg width="480" height="320" viewBox="0 0 480 320" fill="none" xmlns="http://www.w3.org/2000/svg">
<path d="M146.613 88.62V189.374C146.401 196.311 139.563 201.881 131.155 201.881C122.751 201.881 115.896 196.311 115.679 189.374V151.678H86.3176V189.374C86.0979 196.311 79.2575 201.881 70.8532 201.881C62.4449 201.881 55.6004 196.311 55.3848 189.374V88.62C55.3848 81.4365 62.3034 75.6855 70.8532 75.6855C79.3999 75.6855 86.3176 81.4365 86.3176 88.5318V120.321H115.679V88.62C115.679 81.4365 122.601 75.6855 131.155 75.6855C139.695 75.6855 146.613 81.4365 146.613 88.5318V88.62Z" fill="#1B3668"/>
<path fill-rule="evenodd" clip-rule="evenodd" d="M176.216 107.695C180.516 107.695 184.512 106.27 187.672 103.116C190.818 99.9628 192.247 96.2401 192.247 91.9437C192.247 87.3643 190.521 83.6417 187.382 80.4878C184.225 77.346 180.516 75.8984 176.217 75.8984C171.917 75.8984 167.907 77.346 164.754 80.4888C161.601 83.6417 160.168 87.3643 160.168 91.9447C160.168 96.2401 161.894 99.9628 165.037 103.116C168.194 106.27 171.917 107.695 176.216 107.695Z" fill="#1B3668"/>
<path d="M191.681 125.585V189.372C191.46 196.312 184.617 201.879 176.216 201.879C167.797 201.879 160.96 196.312 160.74 189.372V125.585C160.74 118.408 167.67 112.664 176.216 112.664C184.748 112.664 191.681 118.408 191.681 125.5V125.585Z" fill="#1B3668"/>
<path d="M393.183 200.317V200.023C388.372 201.671 383.321 202.509 378.236 202.504C353.4 202.504 333.147 182.832 331.887 158.028V125.482C332.145 118.45 339.093 112.808 347.624 112.808C356.136 112.808 363.093 118.45 363.343 125.481V125.863L363.303 156.304C363.428 164.511 370.057 171.119 378.224 171.119C386.48 171.119 393.144 164.384 393.144 156.089C393.144 155.951 393.154 155.823 393.184 155.702V125.481C393.421 118.449 400.371 112.808 408.893 112.808C417.429 112.808 424.379 118.449 424.616 125.481V125.862L424.576 200.579L424.579 200.993C424.356 224.639 405.441 244.153 382.064 244.316C374.852 244.316 369.061 237.234 369.061 228.514C369.061 219.958 374.501 212.972 381.615 212.594C387.931 212.072 393.186 206.818 393.186 200.317M244.13 113.261H253.905L254.231 113.251C261.323 113.251 267.081 120.25 267.081 128.877C267.081 137.399 261.475 144.346 254.507 144.516H242.574V189.417C242.324 196.335 235.496 201.88 227.099 201.88C218.719 201.88 211.885 196.335 211.641 189.417V189.046L211.691 118.827C211.691 95.3967 230.376 75.9689 253.499 75.8164C260.595 75.8164 266.303 82.7662 266.303 91.3621C266.303 99.7674 260.927 106.633 253.938 107.015C249.737 107.393 246.092 109.8 244.131 113.261" fill="#42B4E4"/>
<path fill-rule="evenodd" clip-rule="evenodd" d="M308.625 158.603C308.625 164.994 313.785 170.164 319.999 170.677H319.899C326.924 170.992 332.345 177.89 332.345 186.336C332.345 194.915 326.641 201.879 319.552 201.879C296.422 201.72 277.734 182.303 277.734 158.857V159.275L277.684 88.6536V88.2644C277.931 81.3558 284.768 75.8145 293.145 75.8145C301.538 75.8145 308.383 81.3558 308.623 88.2634V88.6536L308.625 158.603Z" fill="#42B4E4"/>
</svg>
