<svg width="480" height="320" viewBox="0 0 480 320" fill="none" xmlns="http://www.w3.org/2000/svg">
<mask id="mask0_730_18297" style="mask-type:luminance" maskUnits="userSpaceOnUse" x="55" y="114" width="370" height="92">
<path d="M55.3828 205.635H424.613V114.366H55.3828V205.635Z" fill="white"/>
</mask>
<g mask="url(#mask0_730_18297)">
<path d="M106.964 204.306C106.964 205.28 106.433 205.635 105.724 205.635H99.075C96.2409 205.635 95.5324 204.926 95.5324 201.736V185.428C95.5324 181.175 94.8239 180.466 91.4539 180.466H71.1588C67.6139 180.466 66.9939 181.086 66.9939 185.34V201.824C66.9939 204.926 66.1082 205.635 63.2719 205.635H56.5364C55.6507 205.635 55.3828 205.015 55.3828 204.041V147.141C55.3828 146.167 56.0049 145.724 56.5364 145.724H63.1833C66.1082 145.724 66.9939 146.346 66.9939 149.714V165.487C66.9939 170.009 67.791 170.272 71.1588 170.272H91.5424C94.733 170.272 95.5324 169.564 95.5324 165.753V118.265C95.5324 115.168 96.2409 114.368 99.075 114.368H105.724C106.787 114.368 106.964 115.077 106.964 115.963V204.306ZM127.246 167.083C127.246 170.185 127.423 170.451 130.082 170.451H137.083C142.048 170.451 143.819 169.388 145.856 165.401L152.771 151.927C154.987 147.674 157.024 145.723 162.166 145.723H166.151C166.773 145.723 167.925 146.08 167.128 147.674L155.605 170.185C154.365 172.667 153.657 174.264 153.657 175.59C153.657 177.009 154.365 179.049 155.784 181.971L167.039 203.863C167.57 205.017 166.685 205.634 165.799 205.634H161.632C156.404 205.634 154.365 204.04 151.883 199.165L145.147 185.782C143.022 181.44 141.248 180.377 136.818 180.377H129.905C127.511 180.377 127.246 180.82 127.246 183.922V202.532C127.246 204.749 126.36 205.634 124.055 205.634H116.7C115.812 205.634 115.635 205.191 115.635 204.04V126.932C115.635 126.044 115.991 125.603 116.788 125.603H124.41C126.447 125.603 127.246 126.664 127.246 128.614V167.083Z" fill="#6F2C91"/>
<path d="M182.394 153.948C180.83 155.186 180.307 157.73 180.307 158.906C180.307 159.688 180.633 159.884 182.2 159.884H192.244C193.808 159.884 194.917 160.014 195.178 159.688C195.439 159.428 195.634 159.035 195.634 158.644C195.634 156.622 195.049 154.406 193.809 153.492C192.832 152.708 191.266 152.252 188.33 152.252C185.395 152.252 183.634 152.905 182.394 153.948ZM176.59 148.99C178.938 147.033 182.787 145.795 188.851 145.795C194.722 145.795 198.049 146.839 200.201 148.601C202.354 150.492 204.113 154.406 204.113 164.06C204.113 165.233 203.983 165.95 202.875 165.95H182.329C180.569 165.95 180.242 166.209 180.242 167.058C180.242 169.21 180.83 170.776 182.2 171.949C183.504 173.254 186.505 173.973 191.005 173.973C195.375 173.973 199.613 173.318 201.832 172.992C202.354 172.863 202.875 173.318 202.875 173.906C202.81 175.667 201.374 178.406 199.745 179.384C198.505 180.168 194.461 180.95 188.721 180.95C182.526 180.95 178.156 179.713 175.808 177.624C173.133 175.211 171.438 171.363 171.438 163.796C171.438 155.775 173.721 151.274 176.59 148.99ZM228.635 159.558C230.983 159.558 231.701 159.1 232.612 157.078L235.941 150.036C237.114 147.491 238.224 146.383 241.551 146.383H244.681C245.334 146.383 245.919 146.774 245.528 147.491L240.05 159.1C239.071 161.122 238.745 161.904 238.745 163.144C238.745 164.189 239.333 165.82 240.311 168.037L245.463 179.19C245.854 179.972 245.334 180.43 244.681 180.43H241.419C237.635 180.43 236.656 179.384 235.613 176.842L232.288 169.145C231.375 166.993 230.852 166.406 228.506 166.406H226.484C224.46 166.406 223.613 166.797 222.829 168.492L218.981 176.971C217.938 179.451 216.633 180.43 213.371 180.43H210.047C209.327 180.43 208.936 179.905 209.327 179.19L215.134 166.928C216.046 164.906 216.439 163.796 216.439 162.688C216.439 161.515 215.981 160.208 215.134 158.318L210.112 147.491C209.721 146.774 210.112 146.383 210.958 146.383H214.285C218.003 146.383 218.852 147.296 220.025 149.904L222.896 156.752C223.874 159.165 224.46 159.558 226.613 159.558H228.635ZM275.396 154.012C274.091 153.034 272.331 152.578 268.678 152.578C265.744 152.578 263.655 152.775 262.547 152.969C261.568 153.099 261.242 153.492 261.242 155.056V171.493C261.242 172.862 261.568 173.32 262.679 173.448C264.245 173.709 265.874 173.841 268.025 173.841C272.004 173.841 274.026 173.189 275.137 171.949C276.571 170.644 277.679 167.516 277.679 162.949C277.679 157.536 276.506 154.926 275.396 154.012ZM267.896 145.795C276.18 145.795 279.768 146.512 282.049 148.601C284.333 150.621 286.028 155.121 286.028 162.426C286.028 170.97 283.745 175.211 281.267 177.427C278.984 179.451 275.07 180.689 268.874 180.689C266.528 180.689 264.504 180.624 262.547 180.559C261.765 180.494 261.242 180.559 261.242 181.799V193.212C261.242 194.648 260.851 195.039 259.678 195.039H254.003C253.286 195.039 252.96 194.842 252.96 194.06V148.601C252.96 147.296 253.351 146.838 254.459 146.707C257.592 146.186 263.461 145.795 267.896 145.795ZM294.894 148.012C294.894 147.23 295.221 146.904 295.936 146.839C299.461 146.25 304.22 145.926 307.875 145.926C311.852 145.926 314.919 146.12 316.289 146.839C317.656 147.557 318.505 149.775 318.505 152.579C318.505 153.097 318.114 153.491 317.592 153.491C316.092 153.361 313.418 153.164 311.524 153.164C309.569 153.164 307.156 153.231 305.266 153.426C303.568 153.687 303.308 153.882 303.308 156.102V179.385C303.308 180.102 302.982 180.428 302.133 180.428H295.806C295.158 180.428 294.894 180.169 294.894 179.385V148.012ZM333.308 153.948C331.742 155.186 331.221 157.73 331.221 158.906C331.221 159.688 331.545 159.884 333.112 159.884H343.156C344.723 159.884 345.831 160.014 346.092 159.688C346.351 159.428 346.546 159.035 346.546 158.644C346.546 156.622 345.963 154.406 344.723 153.492C343.744 152.708 342.178 152.252 339.244 152.252C336.309 152.252 334.548 152.905 333.308 153.948ZM327.504 148.99C329.852 147.033 333.699 145.795 339.765 145.795C345.634 145.795 348.961 146.839 351.115 148.601C353.268 150.492 355.027 154.406 355.027 164.06C355.027 165.233 354.897 165.95 353.789 165.95H333.241C331.481 165.95 331.154 166.209 331.154 167.058C331.154 169.21 331.742 170.776 333.112 171.949C334.416 173.254 337.417 173.973 341.919 173.973C346.287 173.973 350.527 173.318 352.746 172.992C353.268 172.863 353.789 173.318 353.789 173.906C353.724 175.667 352.288 178.406 350.657 179.384C349.419 180.168 345.373 180.95 339.635 180.95C333.438 180.95 329.068 179.713 326.722 177.624C324.043 175.211 322.352 171.363 322.352 163.796C322.352 155.775 324.635 151.274 327.504 148.99ZM386.788 146.968C388.223 147.946 389.069 150.556 389.134 152.316C389.134 152.971 388.484 153.362 388.028 153.295C385.615 153.033 382.092 152.578 378.571 152.578C374.918 152.578 372.438 152.904 371.591 153.491C370.874 154.012 370.287 155.252 370.287 156.362C370.287 157.209 370.483 157.862 370.937 158.188C372.309 159.164 385.548 161.447 387.765 162.949C388.94 163.733 389.918 165.427 389.918 168.755C389.918 173.709 388.484 176.711 386.657 178.275C384.764 179.777 381.178 181.017 374.395 181.017C368.526 181.017 365.72 180.429 364.417 179.58C363.113 178.539 361.937 175.668 361.937 174.296C361.937 173.514 362.46 173.123 363.048 173.188C365.916 173.579 369.634 174.102 373.678 174.102C377.005 174.102 379.288 173.776 380.2 173.188C381.049 172.538 381.31 171.689 381.31 170.449C381.31 169.473 381.049 169.079 380.591 168.818C378.765 167.317 365.85 165.1 363.698 163.666C362.59 163.011 361.937 160.469 361.937 158.708C361.937 153.098 363.439 150.1 365.461 148.404C367.483 146.773 371.263 145.859 377.463 145.859C382.289 145.859 385.548 146.186 386.788 146.968ZM421.484 146.968C422.921 147.946 423.765 150.556 423.832 152.316C423.832 152.971 423.178 153.362 422.724 153.295C420.311 153.033 416.788 152.578 413.264 152.578C409.614 152.578 407.134 152.904 406.287 153.491C405.57 154.012 404.982 155.252 404.982 156.362C404.982 157.209 405.179 157.862 405.635 158.188C407.004 159.164 420.244 161.447 422.463 162.949C423.636 163.733 424.614 165.427 424.614 168.755C424.614 173.709 423.178 176.711 421.354 178.275C419.462 179.777 415.876 181.017 409.091 181.017C403.222 181.017 400.416 180.429 399.113 179.58C397.808 178.539 396.633 175.668 396.633 174.296C396.633 173.514 397.156 173.123 397.741 173.188C400.614 173.579 404.33 174.102 408.374 174.102C411.7 174.102 413.984 173.776 414.898 173.188C415.744 172.538 416.006 171.689 416.006 170.449C416.006 169.473 415.744 169.079 415.291 168.818C413.463 167.317 400.547 165.1 398.396 163.666C397.288 163.011 396.633 160.469 396.633 158.708C396.633 153.098 398.134 150.1 400.154 148.404C402.18 146.773 405.961 145.859 412.158 145.859C416.984 145.859 420.244 146.186 421.484 146.968Z" fill="#ED1D24"/>
</g>
</svg>
