<svg width="480" height="320" viewBox="0 0 480 320" fill="none" xmlns="http://www.w3.org/2000/svg">
<path fill-rule="evenodd" clip-rule="evenodd" d="M150.296 138.617H169.749L163.178 155.977H178.982L185.647 138.617H205.1L188.791 181.095H169.338L176.003 163.736H160.26L153.439 181.095H133.986L150.296 138.617Z" fill="#231916"/>
<path d="M223.859 164.35L234.693 150.845L235.193 164.35H223.859ZM251.9 138.549H233.9C231.711 138.549 229.321 139.832 227.724 141.676L193.699 181.095H210.334L217.318 172.455H235.498L235.815 181.095H255.948" fill="#231916"/>
<path d="M87.2383 179.47H89.6275L89.5586 176.572L87.2431 179.47H87.2383Z" fill="#E60012"/>
<path d="M101.001 163.99C94.5493 170.231 84.9641 166.231 85.9305 158.566C86.6986 152.646 93.9173 146.777 99.4412 143.583C99.461 143.553 99.461 143.532 99.4412 143.484C98.7222 142.84 97.2238 141.267 96.2716 140.116C93.6207 136.934 88.9527 136.785 86.1913 140.29L70.3774 141.775C70.3387 141.775 70.3084 141.835 70.3774 141.874L87.3183 142.84C90.3028 143.002 91.3061 145.737 88.3708 147.942C77.6461 156.077 75.7274 164.684 78.1167 171.506C78.1365 171.546 78.0675 171.605 78.0572 171.546C77.0661 170.147 76.3103 168.438 75.94 166.643C70.7515 163.435 66.5777 157.219 66.5777 149.616C66.5777 138.507 75.5933 129.381 86.7752 129.381C97.9579 129.381 106.997 138.507 106.997 149.616C106.997 155.584 104.347 160.687 101.004 163.993M104.916 182.938H95.2191L98.6495 173.96H102.934L100.172 181.031H105.633L104.916 182.938M89.7586 182.938L89.7084 181.167H85.8454L84.4208 182.938H80.8922L88.0618 174.616C88.3707 174.233 88.9045 173.96 89.3863 173.96H93.2011L94.0675 182.938H89.7585M75.1341 183.26C73.9578 183.26 72.9546 183.123 72.162 182.938L72.8799 181.031C74.8365 181.266 76.521 181.09 77.1521 179.397L79.2455 173.96H83.5422L81.2636 179.942C80.0505 183.013 77.153 183.26 75.1341 183.26M118.054 162.779C118.266 160.785 118.203 157.937 117.88 155.831C117.88 155.811 117.841 155.811 117.821 155.831C117.202 158.889 115.22 163.038 110.936 166.431C110.896 166.431 110.846 166.382 110.896 166.352C114.66 162.353 116.889 157.398 117.236 152.334C116.518 149.548 115.429 146.823 114.041 144.421C114.041 144.421 113.982 144.421 114.001 144.451C114.757 149.589 113.543 156.388 108.529 161.899C108.478 161.899 108.46 161.849 108.478 161.849C112.776 155.657 113.914 148.129 112.033 141.355C106.311 133.616 97.1483 128.613 86.7713 128.613C76.4312 128.613 67.2296 133.616 61.5215 141.355C59.6264 148.129 60.7648 155.658 65.0501 161.849C65.1001 161.849 65.0501 161.899 65.0104 161.899C60.0203 156.388 58.7817 149.59 59.5612 144.451C59.5612 144.421 59.5017 144.421 59.5017 144.421C58.1148 146.823 57.0245 149.548 56.3434 152.334C56.6901 157.398 58.9197 162.351 62.6712 166.352C62.7213 166.382 62.6514 166.431 62.6117 166.431C58.351 163.038 56.3576 158.89 55.7019 155.831C55.7019 155.811 55.6623 155.811 55.6623 155.831C55.3401 157.937 55.3155 160.784 55.5007 162.779C56.6032 166.159 58.8942 169.007 61.2465 171.051C61.2862 171.06 61.2465 171.11 61.1776 171.11C58.5522 169.463 57.0907 167.866 56.076 166.43C56.0666 166.43 56.0364 166.43 56.0666 166.47C58.9519 180.549 71.6075 191.385 86.777 191.385C101.984 191.385 114.627 180.549 117.537 166.47C117.537 166.43 117.487 166.43 117.439 166.43C116.435 167.867 115.012 169.464 112.361 171.11C112.272 171.11 112.272 171.061 112.272 171.051C114.675 169.007 116.977 166.159 118.055 162.779" fill="#E60012"/>
<path d="M274.135 181.039C265.236 178.332 260.441 171.833 261.803 164.325C264.644 148.669 280.691 138.268 302.048 138.238C316.833 138.217 324.842 142.781 324.842 151.227V155.127H304.959V152.664C304.959 149.06 300.984 146.766 296.265 147.648C288.917 149.019 280.517 161.515 282.577 168.007C284.271 173.344 292.943 173.07 298.344 167.509L301.68 164.074H311.273C316.774 164.074 321.254 164.099 321.254 164.099C321.254 164.099 314.622 173.1 310.255 175.66C302.926 179.954 294.793 181.978 285.236 181.883C280.501 181.836 275.505 181.456 274.135 181.039Z" fill="#231916"/>
<path d="M419.035 167.335C419.035 167.335 421.727 163.219 423.504 160.214C424.685 158.218 424.572 154.848 424.572 154.848" stroke="black" stroke-width="0.202431"/>
</svg>
