<svg width="480" height="320" viewBox="0 0 480 320" fill="none" xmlns="http://www.w3.org/2000/svg">
<path fill-rule="evenodd" clip-rule="evenodd" d="M403.99 127.299H389.963V177.219H403.99L403.99 127.299Z" fill="#DE1E34"/>
<path fill-rule="evenodd" clip-rule="evenodd" d="M410.59 177.219V127.299H424.615V177.219H410.59Z" fill="#DE1E34"/>
<path fill-rule="evenodd" clip-rule="evenodd" d="M73.9487 127.299H55.3848V177.219H73.9487V152.465H85.2934V177.219H103.859V127.299H85.2934V146.688H73.9487V127.299Z" fill="#DE1E34"/>
<path fill-rule="evenodd" clip-rule="evenodd" d="M172.445 145.864L171.31 142.564H156.045V177.22H171.31V156.386C171.31 151.846 174.199 149.372 176.673 149.372C178.735 149.372 181.416 149.784 181.416 154.323V177.22H196.681V154.735C196.681 142.152 182.554 137.202 172.445 145.864Z" fill="#DE1E34"/>
<path fill-rule="evenodd" clip-rule="evenodd" d="M329.214 162.674L322.098 142.562H311.681L304.563 163.5L297.137 142.562H276.717L269.393 160.198L259.079 142.562H241.648L262.173 177.63L259.492 184.229C258.563 186.294 256.34 186.396 255.906 184.436C255.906 180.892 253.031 178.02 249.487 178.02C245.943 178.02 243.069 180.892 243.069 184.436C243.094 188.15 246.806 192.997 254.128 192.687C261.452 192.378 264.545 186.294 265.576 183.715L282.539 142.698L294.766 177.218H305.904L312.711 157.311L319.725 177.218H330.244L342.105 142.562H336.021L329.214 162.674Z" fill="#DE1E34"/>
<path fill-rule="evenodd" clip-rule="evenodd" d="M130.158 140.801C118.478 140.801 109.012 149.485 109.012 160.198C109.012 170.914 118.478 179.599 130.158 179.599C141.84 179.599 151.308 170.914 151.308 160.198C151.308 149.485 141.84 140.801 130.158 140.801ZM135.42 169.273C135.42 170.669 134.865 172.007 133.879 172.994C132.892 173.98 131.554 174.535 130.158 174.535C127.255 174.535 124.9 172.18 124.9 169.273V151.124C124.9 148.219 127.255 145.866 130.158 145.866C133.064 145.866 135.42 148.219 135.42 151.124V169.273Z" fill="#DE1E34"/>
<path fill-rule="evenodd" clip-rule="evenodd" d="M243.345 162.983C243.456 162.172 243.514 161.039 243.514 160.198C243.514 149.485 234.045 140.801 222.366 140.801C210.684 140.801 201.215 149.485 201.215 160.198C201.215 170.914 210.684 179.599 222.366 179.599C230.391 179.599 237.372 175.497 240.956 169.455L236.284 167.726C233.461 172.041 228.284 174.93 222.366 174.93C219.459 174.93 217.104 172.18 217.104 169.273V162.985L243.345 162.983H243.345ZM217.104 151.124C217.104 148.219 219.459 145.866 222.366 145.866C225.27 145.866 227.625 148.219 227.625 151.124V158.034H217.104V151.124Z" fill="#DE1E34"/>
<path fill-rule="evenodd" clip-rule="evenodd" d="M384.641 162.983C384.755 162.172 384.812 161.039 384.812 160.198C384.812 149.485 375.344 140.801 363.662 140.801C351.982 140.801 342.514 149.485 342.514 160.198C342.514 170.914 351.982 179.599 363.662 179.599C371.689 179.599 378.67 175.497 382.254 169.455L377.583 167.726C374.76 172.041 369.583 174.93 363.662 174.93C360.757 174.93 358.402 172.18 358.402 169.273V162.985L384.641 162.983ZM358.402 151.124C358.402 148.219 360.757 145.866 363.662 145.866C366.569 145.866 368.924 148.219 368.924 151.124V158.034H358.402V151.124Z" fill="#DE1E34"/>
</svg>
