<svg width="480" height="320" viewBox="0 0 480 320" fill="none" xmlns="http://www.w3.org/2000/svg">
<path d="M92.7727 134.044C94.0983 130.378 95.0195 126.577 95.7007 122.744C96.4189 126.708 97.3659 130.647 98.7782 134.427C100.041 137.82 101.919 140.927 103.578 144.126C105.098 147.043 106.311 150.3 105.908 153.641C105.663 156.697 103.816 159.543 101.127 161.015C99.4004 162.065 97.305 162.39 95.7026 163.651C94.9364 162.997 93.9838 162.637 93.0589 162.274C91.2774 161.593 89.4866 160.777 88.1445 159.388C86.0879 157.374 85.2497 154.389 85.4509 151.566C85.6392 148.236 87.2214 145.217 88.774 142.337C90.2361 139.638 91.7315 136.939 92.7727 134.044ZM94.545 154.67C93.1327 155.233 92.3537 156.959 92.8817 158.391C93.3487 159.855 95.0564 160.749 96.526 160.287C98.1266 159.877 99.1106 157.998 98.5272 156.447C98.0213 154.86 96.0681 153.977 94.545 154.67Z" fill="#E60012"/>
<path d="M55.3848 149.222C58.9257 147.134 63.1589 146.071 67.2536 146.76C69.8013 147.134 72.3065 148.277 73.9828 150.278C75.1625 151.654 75.9508 153.317 76.5139 155.03C77.0474 156.633 77.2911 158.322 77.9446 159.888C78.8437 162.192 80.3889 164.243 82.3957 165.696C84.7348 167.433 87.5298 168.35 90.2067 169.421C92.3353 170.333 94.4842 171.614 95.6769 173.673C96.4892 172.27 97.7851 171.225 99.1661 170.412C101.014 169.316 103.1 168.744 105.053 167.874C107.555 166.814 109.962 165.321 111.616 163.115C112.992 161.329 113.817 159.182 114.306 157C114.986 154.148 116.127 151.238 118.392 149.269C120.842 147.122 124.24 146.455 127.416 146.573C130.44 146.702 133.377 147.705 135.98 149.228C134.614 149.376 133.259 149.865 132.216 150.781C130.837 151.907 130.102 153.613 129.65 155.293C129.002 157.82 128.322 160.366 127.152 162.71C125.821 165.374 123.666 167.654 120.975 168.963C116.992 170.935 112.432 171.278 108.055 171.09C104.893 170.916 101.594 171.282 98.7747 172.822C97.6005 173.453 96.5445 174.3 95.6861 175.321C93.5538 172.783 90.2732 171.5 87.0369 171.175C84.8695 170.905 82.6911 171.197 80.5182 171.132C76.6948 171.046 72.7533 170.411 69.4228 168.432C67.357 167.213 65.6918 165.382 64.525 163.297C63.4284 161.305 62.7435 159.12 62.1472 156.937C61.6857 155.128 61.2537 153.23 60.074 151.731C58.9552 150.267 57.1958 149.396 55.3848 149.222H55.3848Z" fill="#E60012"/>
<path d="M82.22 148.805C83.0028 147.829 83.9904 147.046 84.98 146.289C83.0563 148.434 81.5425 151.2 81.74 154.165C81.8434 156.626 83.108 158.935 84.9707 160.514C87.1547 162.435 89.9332 163.456 92.647 164.376C93.7233 164.762 94.8495 165.151 95.6858 165.969C96.8913 164.822 98.5787 164.479 100.087 163.896C103.15 162.832 106.272 161.295 108.153 158.546C109.591 156.439 110.025 153.677 109.284 151.239C108.745 149.385 107.691 147.712 106.362 146.322C108.825 147.945 110.758 150.443 111.478 153.328C112.128 155.889 111.47 158.712 109.84 160.778C107.536 163.728 104.001 165.299 100.582 166.573C98.8021 167.294 96.7528 167.915 95.6802 169.634C94.7332 168.098 92.9609 167.44 91.3713 166.803C88.4396 165.699 85.447 164.522 83.0729 162.419C81.2951 160.887 79.9566 158.756 79.7055 156.393C79.3455 153.64 80.4902 150.897 82.22 148.805ZM80.9166 173.414C86.1061 171.572 92.4882 173.376 95.695 177.921C99.2562 172.844 106.811 171.182 112.201 174.21C114.662 175.591 116.507 177.869 117.762 180.361C119.159 183.077 119.8 186.092 120.976 188.893C121.692 190.58 122.59 192.312 124.129 193.386C125.739 194.464 127.683 194.832 129.559 195.134C125.431 197.045 120.723 197.64 116.23 196.995C112.622 196.484 109.157 194.9 106.493 192.402C104.294 190.364 102.736 187.733 101.643 184.964C101.014 183.446 100.659 181.783 99.6457 180.45C98.9387 179.466 97.8273 178.802 96.6291 178.619C96.655 178.536 96.6993 178.373 96.7251 178.29C99.2599 176.512 102.456 175.715 105.533 176.097C106.393 176.23 107.326 176.525 107.843 177.28C108.282 177.897 108.134 178.881 107.453 179.263C106.718 179.732 105.515 179.3 105.446 178.373C105.382 177.882 105.76 177.526 106.087 177.227C105.577 177.465 104.996 177.666 104.689 178.179C103.992 179.185 104.311 180.646 105.234 181.395C106.726 182.654 109.168 182.379 110.448 180.945C111.483 179.845 111.6 178.039 110.785 176.78C110.04 175.611 108.745 174.897 107.418 174.59C105.47 174.155 103.419 174.402 101.542 175.03C99.583 175.704 97.7258 176.834 96.4667 178.506C96.1898 178.624 95.8759 178.51 95.5861 178.536C94.0888 178.521 92.599 179.246 91.7202 180.465C90.7067 181.803 90.3578 183.476 89.7209 184.997C88.6298 187.759 87.068 190.388 84.8729 192.419C82.1166 195.007 78.4982 196.598 74.756 197.06C70.3825 197.604 65.8188 197.014 61.8164 195.134C63.9376 194.806 66.2102 194.37 67.8662 192.902C69.5997 191.257 70.4268 188.942 71.2114 186.747C72.1327 184.011 72.9505 181.183 74.5493 178.742C76.0446 176.361 78.2434 174.36 80.9166 173.414ZM82.9917 174.893C81.9541 175.309 80.9905 176.01 80.4569 177.009C79.772 178.281 79.9825 179.998 81.0126 181.026C82.1646 182.23 84.1289 182.547 85.6003 181.768C86.7486 181.194 87.4261 179.725 86.8778 178.512C86.6212 177.827 85.9437 177.483 85.3104 177.229C85.676 177.561 86.071 178 85.9049 178.538C85.6926 179.422 84.4834 179.721 83.804 179.184C83.1375 178.7 83.1338 177.644 83.6895 177.074C84.4889 176.219 85.7295 176.053 86.8372 176.014C89.599 175.931 92.4827 176.653 94.6759 178.375C94.7332 178.329 94.7904 178.277 94.8513 178.231C94.3252 177.875 93.943 177.362 93.4445 176.976C91.8661 175.713 89.9443 174.902 87.9652 174.546C86.3147 174.262 84.5646 174.277 82.9917 174.893Z" fill="#E60012"/>
<path d="M180.553 129.569C184.155 129.076 188.189 130.245 190.439 133.228C191.842 135.163 192.365 137.679 192.073 140.033C191.75 142.455 190.227 144.608 188.207 145.939C185.347 147.842 181.618 148.42 178.326 147.408C176.283 146.793 174.486 145.44 173.314 143.655C171.841 141.572 171.298 138.812 172.103 136.364C173.262 132.692 176.792 130.062 180.553 129.569ZM181.097 131.984C180.398 132.231 179.665 132.421 179.059 132.87C177.61 133.894 176.766 135.585 176.423 137.293C176.052 139.208 176.25 141.316 177.318 142.987C178.402 144.704 180.529 145.551 182.506 145.479C184.227 145.396 185.711 144.212 186.507 142.736C187.701 140.539 187.913 137.814 187.059 135.456C186.51 133.933 185.31 132.593 183.734 132.12C182.885 131.882 181.954 131.727 181.097 131.984ZM220.978 129.744C224.068 129.045 227.401 129.351 230.264 130.726C230.057 131.537 229.42 132.128 229.13 132.903C226.756 131.845 223.967 131.59 221.508 132.506C219.898 133.093 218.469 134.284 217.786 135.877C216.66 138.548 217.339 141.995 219.674 143.808C221.655 145.392 224.395 145.584 226.79 145.025C227.129 143.169 226.841 141.283 226.924 139.411C228.246 139.409 229.57 139.411 230.892 139.411C230.894 141.849 230.89 144.29 230.892 146.727C227.27 148.388 222.99 148.381 219.292 146.963C216.793 146.001 214.441 144.264 213.344 141.755C212.242 139.278 212.731 136.331 214.119 134.072C215.657 131.729 218.307 130.35 220.978 129.744ZM257.24 129.569C259.974 129.224 262.913 129.626 265.221 131.223C267.096 132.484 268.368 134.553 268.721 136.78C269.099 139.202 268.8 141.877 267.251 143.864C264.135 147.94 257.912 149.239 253.433 146.732C251.258 145.51 249.543 143.413 248.973 140.967C248.221 137.803 249.3 134.328 251.561 132.028C253.034 130.479 255.126 129.669 257.24 129.569ZM257.759 132.091C256.337 132.334 255.143 133.304 254.386 134.494C253.239 136.298 252.829 138.543 253.204 140.64C253.474 142.174 254.295 143.672 255.639 144.508C256.956 145.316 258.584 145.811 260.12 145.403C261.486 145.052 262.57 144.006 263.251 142.802C264.27 140.993 264.608 138.825 264.277 136.778C264.023 135.283 263.323 133.793 262.068 132.894C260.838 131.991 259.221 131.829 257.759 132.091ZM293.52 131.779C297.405 129.002 302.832 128.548 307.095 130.726C306.903 131.537 306.26 132.122 305.987 132.897C302.681 131.243 298.215 131.657 295.64 134.444C293.138 137.138 293.803 141.881 296.749 143.985C298.702 145.431 301.318 145.56 303.617 145.025C303.962 143.169 303.689 141.284 303.777 139.412C305.097 139.411 306.417 139.412 307.739 139.412C307.741 141.908 307.739 144.403 307.741 146.899C304.549 147.788 301.156 148.124 297.883 147.489C296.072 147.129 294.292 146.444 292.839 145.283C290.62 143.531 289.416 140.588 289.723 137.784C289.992 135.332 291.541 133.178 293.52 131.779ZM416.023 129.755C418.656 129.052 421.58 129.362 423.956 130.712C423.559 131.517 423.072 132.31 422.265 132.759C421.24 132.008 419.926 131.725 418.681 131.825C418.026 131.88 417.31 132.109 416.942 132.694C416.52 133.364 416.673 134.267 417.166 134.86C417.972 135.873 419.16 136.451 420.179 137.216C421.345 138.091 422.586 138.903 423.542 140.012C424.369 141.081 424.842 142.52 424.506 143.862C424.198 145.052 423.267 145.968 422.237 146.576C420.718 147.465 418.942 147.847 417.195 147.89C415.188 147.929 413.1 147.467 411.494 146.214C411.941 145.472 412.556 144.836 412.916 144.033C414.273 144.958 415.938 145.422 417.576 145.394C418.467 145.364 419.477 145.108 419.994 144.312C420.618 143.291 420.289 141.934 419.488 141.111C417.651 139.171 414.91 138.327 413.23 136.208C412.244 135.002 412.115 133.18 412.936 131.856C413.608 130.75 414.81 130.101 416.023 129.755ZM153.365 129.693C154.692 129.691 156.018 129.691 157.341 129.691C157.345 131.961 157.339 134.236 157.343 136.508C160.112 136.505 162.882 136.516 165.651 136.501C166.016 134.245 165.701 131.96 165.804 129.691C167.124 129.691 168.442 129.687 169.76 129.693C169.76 135.654 169.762 141.615 169.758 147.576C168.442 147.578 167.124 147.576 165.808 147.578C165.802 144.733 165.808 141.894 165.802 139.049C163.053 138.685 160.279 139.003 157.517 138.872C157.112 141.759 157.472 144.678 157.343 147.578C156.016 147.576 154.688 147.578 153.367 147.576C153.363 141.615 153.365 135.652 153.365 129.693ZM194.133 129.676C195.529 129.333 197.033 129.79 197.993 130.861C201.256 134.509 204.154 138.478 207.591 141.973C207.591 137.876 207.593 133.784 207.59 129.689C208.686 129.693 209.783 129.693 210.879 129.693C210.881 135.613 210.883 141.53 210.879 147.451C210.084 147.689 209.201 147.805 208.424 147.443C207.143 146.867 206.369 145.628 205.461 144.617C202.756 141.537 200.259 138.273 197.408 135.325C197.399 139.374 197.419 143.42 197.397 147.469C196.321 147.7 195.219 147.545 194.133 147.567C194.133 141.6 194.129 135.637 194.133 129.676Z" fill="black"/>
<path d="M233.665 129.69C235.044 129.683 236.423 129.705 237.804 129.675C237.807 132.179 237.806 134.688 237.804 137.191C240.392 134.857 242.617 132.16 245.068 129.686C246.446 129.692 247.825 129.69 249.202 129.69C246.804 132.433 244.217 135.003 241.598 137.536C244.356 140.987 247.496 144.107 250.418 147.413C248.768 147.419 247.047 148.068 245.447 147.452C243.878 146.549 243.108 144.812 242.019 143.449C240.682 141.819 239.201 140.316 237.813 138.729C237.806 141.537 237.813 144.345 237.809 147.151L238.077 147.341L237.569 147.452L237.772 147.566C236.406 147.585 235.042 147.57 233.674 147.574C233.668 141.614 233.676 135.649 233.665 129.69ZM270.951 129.672C272.312 129.35 273.787 129.755 274.743 130.792C278.088 134.407 280.954 138.45 284.421 141.967C284.424 137.872 284.417 133.779 284.424 129.69C285.523 129.692 286.618 129.686 287.718 129.692C287.712 135.611 287.714 141.528 287.718 147.444C286.834 147.718 285.833 147.803 285.004 147.313C283.728 146.58 282.953 145.275 281.965 144.221C279.383 141.262 276.959 138.162 274.241 135.319C274.234 139.368 274.25 143.414 274.234 147.463C273.148 147.696 272.041 147.539 270.944 147.566C270.949 141.6 270.946 135.637 270.951 129.672ZM324.652 129.692C325.689 129.686 326.729 129.69 327.768 129.692C330.072 135.679 332.642 141.561 335.197 147.441C333.774 147.777 332.312 147.498 330.868 147.568C330.192 145.942 329.563 144.297 328.996 142.624C326.631 142.62 324.266 142.624 321.907 142.622C321.013 144.204 320.441 145.94 319.647 147.574C318.552 147.576 317.459 147.572 316.372 147.576C319.11 141.603 321.707 135.565 324.652 129.692ZM325.525 133.807C324.563 135.998 323.537 138.16 322.771 140.431C324.55 140.427 326.33 140.427 328.11 140.427C327.294 138.203 326.502 135.967 325.525 133.807ZM336.065 129.686C337.388 129.692 338.716 129.69 340.038 129.69C340.041 135.651 340.038 141.614 340.038 147.576C338.712 147.576 337.383 147.577 336.059 147.574C336.063 141.611 336.056 135.649 336.065 129.686ZM343.298 129.696C346.139 129.664 348.999 129.487 351.825 129.854C353.398 130.089 355.117 130.534 356.149 131.839C357.301 133.393 357.198 135.672 356.149 137.25C355.479 138.26 354.427 138.945 353.332 139.423C354.82 142.2 356.982 144.559 358.326 147.415C356.828 147.417 355.333 147.417 353.836 147.415C351.973 145.236 350.902 142.528 349.196 140.241C348.607 140.239 348.019 140.239 347.439 140.243C347.088 142.62 347.395 145.022 347.293 147.411C345.958 147.42 344.625 147.419 343.292 147.413C343.305 141.505 343.294 135.6 343.298 129.696ZM347.288 132.062C347.288 134.06 347.287 136.057 347.289 138.051C348.715 138.395 350.406 138.358 351.539 137.305C352.876 136.148 353.022 133.809 351.641 132.631C350.452 131.586 348.724 131.688 347.288 132.062ZM359.206 129.69H363.168C363.172 134.806 363.166 139.916 363.17 145.032C365.802 145.406 368.461 145.087 371.106 145.194C371.106 145.99 371.106 146.784 371.105 147.577C367.141 147.577 363.172 147.579 359.21 147.577C359.204 141.614 359.204 135.651 359.206 129.69ZM372.138 129.692C373.464 129.69 374.791 129.686 376.117 129.692C376.113 135.653 376.109 141.614 376.117 147.576C374.856 147.587 373.601 147.539 372.345 147.635C371.939 147.546 372.17 147.014 372.131 146.73C372.151 141.051 372.137 135.369 372.138 129.692ZM379.381 129.679C380.228 129.494 381.162 129.433 381.951 129.871C383.143 130.519 383.741 131.802 384.605 132.79C387.299 135.902 390.105 138.908 392.86 141.971C392.863 137.876 392.858 133.781 392.861 129.69H395.978C395.978 135.657 395.983 141.629 395.974 147.6C394.968 147.79 393.862 147.714 393.022 147.077C391.883 146.233 391.135 145 390.181 143.968C387.687 141.081 385.263 138.131 382.682 135.319C382.259 139.393 382.632 143.492 382.501 147.576C381.461 147.576 380.418 147.574 379.381 147.577C379.383 141.611 379.386 135.646 379.381 129.679ZM399.26 129.69C402.888 129.692 406.515 129.686 410.143 129.694C410.136 130.486 410.138 131.28 410.139 132.07C407.837 132.073 405.537 132.07 403.24 132.073C403.237 133.667 403.235 135.262 403.24 136.857C405.471 137.241 407.741 136.909 409.986 136.999C409.986 137.806 409.986 138.614 409.983 139.421C407.736 139.403 405.484 139.417 403.24 139.414C403.235 141.288 403.24 143.16 403.237 145.032C405.64 145.408 408.075 145.087 410.498 145.192C410.498 145.99 410.501 146.784 410.494 147.577C406.75 147.574 403.006 147.579 399.266 147.576C399.258 141.614 399.258 135.649 399.26 129.69ZM222.741 164.442C226.47 164.172 230.188 163.713 233.859 162.993C234.3 162.88 234.662 163.253 234.855 163.602C235.251 164.324 235.431 165.131 235.725 165.895C232.491 166.644 229.155 166.753 225.887 167.261C225.51 167.78 225.793 168.516 225.752 169.122C229.875 169.511 234.021 169.186 238.155 169.295V172.015C235.33 172.018 232.504 172.011 229.681 172.018C231.931 174.481 235.324 175.447 238.518 175.927C238.145 177.001 237.462 177.932 237.106 179.01C236.236 178.757 235.374 178.491 234.527 178.17C234.527 182.248 234.529 186.33 234.527 190.408C233.379 190.412 232.232 190.412 231.084 190.408C231.064 189.983 231.132 189.538 230.977 189.132C230.729 188.988 230.419 189.071 230.152 189.045C226.06 189.068 221.971 189.034 217.882 189.06C217.201 189.057 217.491 189.969 217.435 190.408C216.289 190.412 215.142 190.408 213.998 190.412C214.382 186.38 214.066 182.331 214.151 178.297C213.269 178.456 212.465 178.873 211.585 179.032C211.088 178.098 210.612 177.147 209.999 176.285C213.097 175.249 216.353 174.25 218.829 172.018C216.006 172.007 213.182 172.018 210.361 172.015C210.359 171.11 210.359 170.206 210.361 169.295C214.304 169.295 218.248 169.292 222.196 169.295C222.364 168.622 222.265 167.926 222.245 167.241C219.154 167.505 216.053 167.399 212.951 167.411C212.759 166.434 212.393 165.5 212.244 164.512C215.733 164.787 219.25 164.691 222.741 164.442ZM225.732 176.938C227.689 176.859 229.655 177.136 231.601 176.813C229.371 175.875 227.445 174.343 225.878 172.515C225.525 173.964 225.798 175.465 225.732 176.938ZM221.578 173.348C221.375 173.575 221.166 173.798 220.961 174.014C219.758 175.1 218.377 175.954 217.099 176.946H222.256C222.185 175.652 222.435 174.339 222.202 173.056C222.124 172.504 221.759 173.204 221.578 173.348ZM217.433 179.861C217.432 180.424 217.432 180.989 217.433 181.556H231.073V179.671C226.526 179.601 221.982 179.972 217.433 179.861ZM217.456 186.332H231.073C231.075 185.65 231.075 184.973 231.073 184.292C226.572 184.281 222.067 184.314 217.565 184.277C217.315 184.938 217.459 185.647 217.456 186.332ZM263.871 163.331C264.972 163.323 266.066 163.327 267.165 163.327V166.229C268.703 166.561 270.279 166.308 271.832 166.388C271.834 165.367 271.832 164.348 271.836 163.327H275.113C275.113 164.296 275.109 165.267 275.113 166.236C276.704 166.55 278.33 166.316 279.938 166.384C279.946 167.239 279.944 168.097 279.944 168.952C278.367 168.959 276.791 168.948 275.214 168.959C275.013 169.799 275.122 170.662 275.124 171.509C276.903 171.513 278.683 171.509 280.464 171.513V174.245C278.733 174.249 276.997 174.238 275.268 174.252C276.418 176.477 278.808 177.559 280.992 178.508C280.568 179.578 279.828 180.483 279.405 181.554C277.871 180.743 276.527 179.647 275.118 178.652C275.114 180.531 275.118 182.412 275.118 184.288C271.987 184.292 268.852 184.288 265.719 184.292C265.47 185.074 265.581 185.903 265.897 186.645C269.157 186.562 272.428 186.858 275.677 186.494C276.552 185.394 276.383 183.909 276.49 182.593C277.708 182.925 278.949 183.225 280.101 183.762C279.763 185.265 279.78 186.913 278.917 188.248C278.268 189.239 277.033 189.568 275.919 189.629C272.646 189.882 269.351 189.989 266.076 189.734C264.955 189.605 263.666 189.557 262.836 188.682C261.951 187.788 261.953 186.428 262.042 185.259C262.177 183.572 262.52 181.862 262.156 180.182C261.372 180.59 260.659 181.12 259.91 181.585C258.979 180.867 258.427 179.811 257.842 178.823C260.14 177.915 262.378 176.562 263.724 174.424C262.359 174.616 260.988 174.106 259.631 174.387C258.372 174.743 258.159 176.263 257.181 176.975C255.584 176.067 254.342 174.634 252.656 173.866C253.26 172.99 253.983 172.209 254.569 171.324C256.321 172.046 257.779 173.279 259.382 174.26C259.387 173.344 259.385 172.428 259.387 171.513C260.842 171.52 262.3 171.498 263.755 171.527C264.041 170.752 263.844 169.923 263.866 169.122C262.59 169.118 261.311 169.114 260.035 169.122C259.969 168.793 259.897 168.468 259.834 168.142C259.265 168.566 258.955 169.231 258.414 169.681C256.764 168.69 255.534 167.082 253.701 166.375C254.351 165.402 255.034 164.37 256.112 163.825C257.38 164.843 258.698 165.895 260.31 166.288C261.442 166.58 262.625 166.545 263.777 166.393C264.034 165.387 263.836 164.351 263.871 163.331ZM267.156 169.118C267.167 169.916 267.165 170.711 267.165 171.509C268.721 171.513 270.279 171.509 271.832 171.509C271.834 170.711 271.834 169.916 271.832 169.118H267.156ZM267.469 174.751C266.827 175.174 266.504 175.89 266.277 176.597C268.424 176.608 270.577 176.612 272.729 176.593C272.413 175.709 271.76 175.028 271.276 174.247C270.006 174.066 268.579 173.994 267.469 174.751ZM265.61 179.185C265.609 179.975 265.609 180.762 265.612 181.554H271.636C271.638 180.76 271.638 179.975 271.636 179.185H265.61ZM350.378 163.644C351.794 163.305 353.249 163.569 354.685 163.497C355.067 164.222 355.54 164.907 355.772 165.699C359.446 165.71 363.118 165.699 366.792 165.703C366.794 167.867 366.792 170.03 366.794 172.19C365.526 172.194 364.259 172.194 362.993 172.19C362.993 171.051 362.994 169.908 362.993 168.767C356.609 168.382 350.214 168.721 343.824 168.605C343.82 169.801 343.824 170.996 343.822 172.192H340.215C340.215 170.025 340.215 167.857 340.219 165.694C343.924 165.701 347.631 165.719 351.336 165.683C351.277 164.903 350.786 164.279 350.378 163.644ZM302.225 163.67C303.325 163.67 304.424 163.663 305.526 163.678C305.509 164.507 305.293 165.311 304.983 166.076C306.294 166.299 307.642 166.325 308.95 166.079C308.842 172.814 309.61 179.551 309.214 186.282C309.144 187.432 308.993 188.835 307.889 189.479C306.536 190.214 304.922 189.967 303.451 189.902C303.347 188.918 302.915 188.002 302.873 187.007C303.805 187.137 304.749 187.216 305.692 187.181C306.462 184.105 305.803 180.917 306.022 177.791C304.523 177.814 303.017 177.802 301.516 177.802C300.964 181.975 301.073 186.405 299.114 190.245C298.152 189.675 297.174 189.114 296.339 188.361C297.744 185.061 298.378 181.441 298.21 177.86C297.589 177.773 296.965 177.799 296.347 177.826C296.339 176.964 296.341 176.106 296.343 175.249C296.969 175.246 297.6 175.246 298.228 175.249C298.226 172.234 298.226 169.212 298.228 166.199C299.255 166.166 300.299 166.362 301.311 166.127C301.56 166.098 301.632 165.851 301.719 165.647C301.955 165.009 302.066 164.333 302.225 163.67ZM301.344 168.769V175.246C302.908 175.246 304.464 175.249 306.026 175.242C306.032 173.086 306.028 170.926 306.028 168.769H301.344ZM313.265 163.674C314.467 163.667 315.674 163.67 316.876 163.67C317.301 164.741 317.873 165.762 318.117 166.901C319.959 166.905 321.798 166.897 323.64 166.905C323.633 167.87 323.635 168.838 323.637 169.803C318.912 169.807 314.194 169.807 309.469 169.803C309.467 168.838 309.467 167.867 309.469 166.901H314.315C314.099 165.782 313.632 164.741 313.265 163.674Z" fill="black"/>
<path d="M349.202 169.443C350.413 169.606 351.532 170.128 352.625 170.651C351.447 172.944 349.485 174.775 347.19 175.921C345.327 176.878 343.297 177.432 341.244 177.805C340.76 176.87 340.267 175.944 339.684 175.072C342.464 174.387 345.423 173.669 347.598 171.683C348.281 171.055 348.798 170.272 349.202 169.443ZM301.677 169.984C302.561 169.942 303.405 169.61 304.293 169.613C304.788 171.035 305.338 172.432 305.704 173.893C304.784 174.153 303.856 174.4 302.896 174.433C302.641 172.912 302.15 171.448 301.677 169.984ZM355.045 169.779C356.24 169.48 357.475 169.667 358.695 169.646C358.764 170.88 358.45 172.192 358.88 173.372C361.583 174.151 364.428 173.509 367.188 173.719C367.409 174.668 367.293 175.645 367.304 176.61C364.548 176.549 361.782 176.88 359.035 176.571C357.615 176.398 356.044 175.909 355.293 174.592C354.475 173.113 354.735 171.35 355.045 169.779ZM311.72 172.008C314.641 171.644 317.587 171.954 320.517 171.838C320.526 175.938 320.513 180.033 320.51 184.133C320.489 185.185 320.194 186.524 321.22 187.224C321.948 186.164 321.968 184.825 321.951 183.585C321.927 182.446 321.819 181.316 321.752 180.177C322.751 180.347 323.65 180.851 324.643 181.05C324.379 182.889 324.804 184.724 324.815 186.563C324.817 187.6 324.562 188.791 323.624 189.393C322.179 190.355 320.201 190.584 318.606 189.854C317.425 189.306 316.971 187.947 316.849 186.738C316.492 183.064 317.585 179.414 317.24 175.741C317.137 175.412 317.246 174.832 316.81 174.753C316.21 174.662 315.601 174.753 314.999 174.749C315.087 178.249 315.025 181.798 314.194 185.221C313.771 186.948 313.103 188.632 312.069 190.089C311.089 189.491 310.192 188.765 309.311 188.034C310.985 185.525 311.43 182.446 311.654 179.499C311.816 177.009 311.774 174.502 311.72 172.008ZM342.492 178.992C349.839 178.624 357.196 178.934 364.546 178.814C364.542 179.787 364.544 180.762 364.544 181.731C361.546 181.735 358.549 181.735 355.551 181.731C355.188 183.301 355.483 184.912 355.409 186.498C359.487 186.858 363.584 186.54 367.669 186.653C367.671 187.622 367.671 188.593 367.669 189.563H339.337V186.653C343.317 186.649 347.297 186.657 351.283 186.649C351.604 185.084 351.349 183.483 351.431 181.905C348.49 181.897 345.551 181.909 342.615 181.897C342.584 180.928 342.77 179.942 342.492 178.992ZM301.681 179.828C302.384 179.568 303.128 179.446 303.839 179.197C305.14 180.48 305.22 182.405 305.672 184.069C304.738 184.213 303.856 184.591 302.905 184.645C302.633 183.005 302.083 181.436 301.681 179.828ZM256.459 179.658C257.495 180.199 258.354 181.009 259.382 181.565C258.42 184.595 257.456 187.818 255.097 190.078C254.468 189.064 253.352 188.462 252.828 187.369C254.645 185.136 255.673 182.396 256.459 179.658Z" fill="black"/>
</svg>
