<svg width="480" height="320" viewBox="0 0 480 320" fill="none" xmlns="http://www.w3.org/2000/svg">
<path d="M240.315 222.772C271.671 222.772 297.09 197.353 297.09 165.996C297.09 134.64 271.671 109.221 240.315 109.221C208.96 109.221 183.541 134.64 183.541 165.996C183.541 197.353 208.96 222.772 240.315 222.772Z" fill="white" stroke="black" stroke-width="3.55448" stroke-linecap="round"/>
<path d="M240.314 188.149C252.547 188.149 262.464 178.232 262.464 165.998C262.464 153.765 252.547 143.848 240.314 143.848C228.08 143.848 218.163 153.765 218.163 165.998C218.163 178.232 228.08 188.149 240.314 188.149Z" stroke="black" stroke-width="3.5551" stroke-linecap="round"/>
<path d="M240.313 197.519C257.722 197.519 271.834 183.407 271.834 165.998C271.834 148.589 257.722 134.477 240.313 134.477C222.905 134.477 208.793 148.589 208.793 165.998C208.793 183.407 222.905 197.519 240.313 197.519Z" stroke="black" stroke-width="3.55554" stroke-linecap="round"/>
<path d="M240.314 208.453C263.76 208.453 282.767 189.445 282.767 165.999C282.767 142.552 263.76 123.545 240.314 123.545C216.868 123.545 197.861 142.552 197.861 165.999C197.861 189.445 216.868 208.453 240.314 208.453Z" stroke="black" stroke-width="3.5543" stroke-linecap="round"/>
<path d="M186.115 165.495L297.336 165.092M270.231 117.547L213.218 213.039M289.69 137.153L193.761 193.435M213.218 117.547L270.232 213.04M193.761 137.153L289.69 193.434" stroke="black" stroke-width="3.5545"/>
<path d="M239.709 92.8066C199.785 92.8066 167.398 125.138 167.398 165.064C167.398 204.988 199.785 237.375 239.709 237.375C279.635 237.375 312.022 204.988 312.022 165.064C312.022 125.138 279.635 92.8066 239.709 92.8066ZM239.709 111.135C269.507 111.135 293.638 135.267 293.638 165.064C293.638 194.86 269.507 219.048 239.709 219.048C209.912 219.048 185.725 194.86 185.725 165.064C185.725 135.267 209.914 111.135 239.709 111.135Z" fill="#0F77DA" stroke="black" stroke-width="3.90106" stroke-linecap="round"/>
<path d="M143.637 152.879L140.468 162.76L129.543 166.261L143.792 166.283L141.243 168.742L130.608 166.46L140.401 169.651L144.035 180.707L143.925 166.348L146.605 168.943L144.302 179.621L147.536 169.496L158.415 166.172L144.213 166.194L146.783 163.558L157.286 165.885L147.382 162.693L143.969 151.659V166.06L141.353 163.313L143.637 152.879ZM121.652 165.824H127.731V166.514H121.652V165.824ZM160.126 165.81H165.776V166.499H160.124L160.126 165.81ZM144.494 182.527V187.196H143.804V182.527H144.494ZM144.321 145.316V149.985H143.632V145.316H144.321Z" fill="#2A4064"/>
<path d="M132.679 164.321L133.507 164.073C134.456 160.42 136.69 157.092 141.704 155.817L141.94 155.046C137.152 156.068 134.014 159.098 132.681 164.323L132.679 164.321ZM155.428 164.401L154.607 164.142C153.707 160.476 151.52 157.117 146.524 155.771L146.298 154.998C151.072 156.086 154.168 159.157 155.43 164.401H155.428ZM155.424 167.672L154.607 167.947C153.771 171.626 151.642 175.024 146.673 176.457L146.46 177.235C151.214 176.062 154.255 172.936 155.424 167.672ZM132.652 167.782L133.473 168.048C134.346 171.72 136.513 175.093 141.496 176.473L141.718 177.251C136.952 176.128 133.877 173.034 132.654 167.782H132.652Z" fill="#2A4064"/>
<path d="M234.029 121.162H246.852V207.783H234.029V121.162Z" fill="#B66B13" stroke="black" stroke-width="2.66587" stroke-linecap="round"/>
<path d="M216.008 149.8C213.964 149.957 212.038 150.654 209.9 152.466C200.587 160.405 195.182 172.116 181.908 176.237C178.331 177.534 174.509 177.714 171.911 177.348C173.477 179.241 176.088 180.796 178.798 181.235L173.966 182.178C176.738 183.986 177.556 185.436 183.796 184.567C180.861 185.824 179.45 186.095 177.575 186.678C179.871 188.872 182.722 188.456 185.018 188.566L182.018 190.787C183.332 192.62 187.345 191.875 189.684 192.12L186.741 194.786C189.03 195.821 192.536 195.991 194.516 194.841L194.015 197.564C195.833 197.902 197.511 197.449 199.014 196.009L204.845 191.344L203.679 195.565C205.235 194.969 206.79 193.411 208.345 191.788L217.675 179.68C224.13 181.967 231.293 168.696 240.081 167.975L240.001 161.797C239.756 162.105 239.477 162.384 239.169 162.629C237.204 164.166 234.536 164.026 233.226 162.351C231.916 160.677 232.483 158.113 234.447 156.575C234.772 156.313 235.126 156.089 235.503 155.909C230.736 153.323 223.976 150.542 218.12 149.8C217.417 149.751 216.711 149.751 216.008 149.8Z" fill="#B66B13" stroke="black" stroke-width="2.22156"/>
<path d="M216.008 149.8C213.964 149.957 212.038 150.654 209.9 152.466C200.569 160.389 193.171 169.599 181.908 176.237C178.331 177.534 174.509 177.714 171.911 177.348C173.468 179.228 176.052 180.785 178.743 181.235C178.761 181.238 178.778 181.233 178.796 181.235C184.606 180.295 202.227 163.437 213.008 155.577C217.784 152.164 228.017 154.999 229.892 158.02C227.843 162.197 231.456 167.324 235.393 166.96C237.253 166.725 239.065 166.231 240.001 165.739V161.797C239.756 162.105 239.477 162.384 239.169 162.629C237.204 164.166 234.536 164.026 233.226 162.351C231.916 160.677 232.483 158.113 234.447 156.575C234.772 156.313 235.126 156.089 235.503 155.909C230.736 153.323 223.976 150.542 218.12 149.8C217.417 149.751 216.711 149.751 216.008 149.8Z" fill="#7D4A0D" stroke="black" stroke-width="1.66617"/>
<path d="M183.519 184.345C200.847 174.256 215.706 154.69 219.286 157.854C220.185 158.618 221.129 159.357 220.007 161.131" stroke="#6C400B" stroke-width="1.66617"/>
<path d="M185.518 188.455C202.846 178.365 217.705 158.798 221.285 161.961C221.763 162.677 222.41 163.321 221.896 164.462" stroke="#6C400B" stroke-width="1.66617"/>
<path d="M189.406 192.12C206.734 182.03 220.856 160.069 225.173 165.628L225.728 166.405" stroke="#6C400B" stroke-width="1.66617"/>
<path d="M194.297 194.526C211.159 183.674 225.132 163.465 228.848 166.467L229.438 167.218M205.122 190.787C220.023 175.225 227.414 167.771 228.226 170.737" stroke="#6C400B" stroke-width="1.66617"/>
<path d="M240.517 121.162V207.625" stroke="black" stroke-width="2.66587"/>
<path d="M228.388 118.93C226.14 118.944 226.332 119.831 226.332 121.761C226.332 123.968 228.051 125.26 229.609 125.26C231.125 125.26 232.169 124.028 232.22 121.928H234.165C237.061 122.731 239.319 124.622 240.106 127.037V121.928H240.717V127.037C241.503 124.622 243.762 122.731 246.66 121.928H249.381C249.435 124.028 250.419 125.26 251.937 125.26C253.494 125.26 255.268 123.968 255.268 121.761C255.268 119.555 255.458 118.734 252.047 118.985C251.781 119.002 251.562 119.05 251.326 119.095H230.221C229.993 119.054 229.752 119.002 229.499 118.985C229.129 118.952 228.758 118.933 228.387 118.928L228.388 118.93Z" fill="black"/>
<path d="M241.823 93.047C239.392 92.9723 236.466 94.9344 234.881 100.378V119.873H244.878V100.378C247.286 96.6068 244.949 93.1429 241.823 93.047Z" fill="#B66B13" stroke="black" stroke-width="2.66587"/>
<path d="M240.149 179.311C238.922 182.969 233.937 187.883 238.663 193.739C239.674 195.084 239.85 196.799 239.829 198.404C239.715 198.454 239.61 198.523 239.495 198.571C239.509 198.038 239.425 197.562 239.384 197.183C239.134 193.895 237.563 191.251 233.553 191.24C233.423 191.24 233.242 191.235 233.109 191.24C231.397 191.224 227.88 193.829 230.832 196.739C231.641 197.494 232.761 197.985 233.441 198.127C231.006 194.93 237.046 193.778 237.607 197.738C237.687 198.576 237.483 199.152 237.163 199.46C236.942 199.54 236.717 199.605 236.496 199.682C236.162 199.616 235.793 199.357 235.441 198.848C235.37 199.238 235.46 199.652 235.608 200.014C229.99 201.848 224.523 202.39 219.835 201.07C220.243 200.674 220.558 200.057 220.446 199.46C219.588 200.7 218.575 200.117 218.722 198.571C219.163 195.466 223.91 196.399 222.001 198.905C222.534 198.793 223.421 198.386 224.056 197.793C226.37 195.512 223.565 193.449 222.223 193.462C222.117 193.458 221.992 193.462 221.889 193.462C218.747 193.47 217.531 195.55 217.336 198.127C217.277 198.656 217.117 199.453 217.501 200.238C217.364 200.176 217.249 200.08 217.114 200.014C217.078 199.899 217.043 199.81 217.002 199.682C216.948 198.274 216.968 196.63 217.89 195.406C221.594 190.815 217.519 189.107 216.557 186.242C216.557 186.237 216.504 186.246 216.502 186.242C215.541 189.107 211.466 190.815 215.169 195.406C216.092 196.632 216.111 198.274 216.058 199.682C216.01 199.829 215.985 199.938 215.946 200.071C215.791 200.174 215.656 200.309 215.502 200.403C215.996 199.572 215.786 198.692 215.724 198.127C215.528 195.55 214.258 193.47 211.115 193.462C211.014 193.462 210.943 193.458 210.836 193.462C209.495 193.449 206.692 195.512 209.006 197.794C209.639 198.386 210.525 198.793 211.059 198.903C209.152 196.398 213.897 195.466 214.336 198.571C214.485 200.117 213.472 200.7 212.614 199.46C212.464 200.263 213.058 201.063 213.669 201.349C210.278 202.828 207.097 202.547 204.506 200.848L205.117 210.233C219.842 215.087 228.66 214.996 240.383 215.011H240.44C252.163 214.996 261.038 215.087 275.763 210.233L276.317 200.85C273.755 202.527 270.612 202.831 267.264 201.404C267.916 201.175 268.59 200.309 268.432 199.46C267.573 200.7 266.56 200.117 266.708 198.571C267.149 195.466 271.896 196.399 269.987 198.905C270.52 198.793 271.407 198.386 272.041 197.793C274.354 195.512 271.551 193.449 270.209 193.462C270.102 193.458 269.978 193.462 269.875 193.462C266.733 193.47 265.517 195.55 265.322 198.127C265.254 198.731 265.012 199.687 265.654 200.571C265.487 200.473 265.322 200.345 265.155 200.236C265.103 200.05 265.047 199.866 264.987 199.682C264.934 198.274 264.954 196.63 265.876 195.406C269.58 190.815 265.505 189.107 264.543 186.242C264.543 186.237 264.49 186.246 264.488 186.242C263.527 189.107 259.451 190.815 263.155 195.406C264.077 196.632 264.097 198.274 264.044 199.682C264.017 199.765 264.012 199.824 263.989 199.904C263.884 199.957 263.761 199.965 263.655 200.016C263.907 199.305 263.763 198.605 263.71 198.127C263.514 195.55 262.243 193.47 259.101 193.462C259 193.462 258.929 193.458 258.824 193.462C257.482 193.449 254.678 195.512 256.99 197.794C257.624 198.386 258.511 198.793 259.044 198.903C257.137 196.398 261.883 195.466 262.322 198.571C262.471 200.117 261.458 200.7 260.599 199.46C260.498 200.011 260.795 200.562 261.156 200.96C256.451 202.328 250.933 201.847 245.271 200.016C245.411 199.659 245.454 199.229 245.383 198.848C245.013 199.382 244.618 199.634 244.272 199.682C244.087 199.618 243.902 199.582 243.716 199.515C243.707 199.508 243.671 199.524 243.662 199.515C243.314 199.222 243.133 198.61 243.218 197.738C243.778 193.778 249.817 194.93 247.382 198.127C248.063 197.985 249.182 197.494 249.993 196.739C252.943 193.829 249.371 191.224 247.659 191.24C247.526 191.235 247.4 191.24 247.272 191.24C243.262 191.251 241.691 193.895 241.439 197.183C241.398 197.562 241.314 198.036 241.329 198.571C241.213 198.523 241.11 198.454 240.995 198.404C240.971 196.801 241.151 195.084 242.162 193.739C246.886 187.883 241.51 182.103 240.282 178.447C240.282 178.442 240.385 178.726 240.385 178.721L240.149 179.311Z" fill="#B66B13" stroke="black" stroke-width="1.33294"/>
<path d="M264.85 149.801C266.894 149.957 268.821 150.654 270.961 152.467C280.273 160.406 285.676 172.116 298.952 176.238C302.53 177.535 306.351 177.715 308.949 177.348C307.382 179.241 304.773 180.796 302.062 181.235L306.893 182.179C304.12 183.986 303.305 185.437 297.063 184.568C299.997 185.824 301.41 186.096 303.283 186.679C300.987 188.872 298.136 188.456 295.842 188.566L298.84 190.788C297.529 192.62 293.516 191.876 291.177 192.121L294.12 194.787C291.829 195.821 288.322 195.992 286.344 194.842L286.844 197.565C285.026 197.902 283.348 197.449 281.846 196.01L276.013 191.344L277.181 195.565C275.626 194.97 274.071 193.411 272.516 191.789L263.185 179.68C256.728 181.967 249.568 168.697 240.779 167.975L240.857 161.797C241.099 162.096 241.371 162.379 241.691 162.629C243.655 164.167 246.323 164.026 247.634 162.352C248.944 160.678 248.375 158.113 246.411 156.576C246.087 156.313 245.732 156.089 245.356 155.909C250.124 153.324 256.883 150.542 262.741 149.801C263.452 149.755 264.17 149.748 264.85 149.801Z" fill="#B66B13" stroke="black" stroke-width="2.22156"/>
<path d="M264.85 149.801C266.894 149.957 268.821 150.654 270.96 152.467C280.291 160.39 287.69 169.6 298.952 176.238C302.53 177.535 306.351 177.715 308.949 177.348C307.392 179.229 304.808 180.786 302.117 181.235C302.1 181.239 302.08 181.233 302.062 181.235C296.254 180.295 278.631 163.438 267.85 155.577C263.075 152.165 252.843 154.999 250.966 158.021C253.016 162.197 249.404 167.325 245.468 166.96C243.605 166.726 241.796 166.232 240.857 165.739V161.797C241.099 162.096 241.371 162.379 241.691 162.629C243.655 164.167 246.322 164.026 247.634 162.352C248.944 160.678 248.375 158.113 246.411 156.576C246.087 156.313 245.732 156.089 245.356 155.909C250.124 153.324 256.883 150.542 262.741 149.801C263.452 149.755 264.17 149.748 264.85 149.801Z" fill="#7D4A0D" stroke="black" stroke-width="1.66617"/>
<path d="M297.341 184.344C280.012 174.254 265.155 154.69 261.573 157.854C260.676 158.618 259.73 159.357 260.852 161.131" stroke="#6C400B" stroke-width="1.66617"/>
<path d="M295.341 188.456C278.013 178.365 263.155 158.798 259.574 161.961C259.096 162.677 258.449 163.321 258.964 164.462" stroke="#6C400B" stroke-width="1.66617"/>
<path d="M291.454 192.12C274.126 182.03 260.002 160.069 255.687 165.628L255.131 166.405" stroke="#6C400B" stroke-width="1.66617"/>
<path d="M286.562 194.526C269.701 183.674 255.726 163.465 252.012 166.467L251.422 167.218M275.736 190.787C260.836 175.225 253.444 167.771 252.632 170.737" stroke="#6C400B" stroke-width="1.66617"/>
<path fill-rule="evenodd" clip-rule="evenodd" d="M159.786 131.263L141.109 120.685L144.2 115.238C149.054 116.574 153.936 117.842 158.795 119.18C155.143 115.716 151.536 112.199 147.891 108.733L150.987 103.277L169.663 113.855L167.743 117.236L153.04 108.907C157.281 112.853 161.471 116.866 165.715 120.815L163.725 124.32C158.159 122.702 152.564 121.167 147.001 119.553L161.706 127.881L159.786 131.263ZM164.784 102.604C163.789 103.318 162.806 104.041 161.816 104.758C160.995 103.426 160.679 102.159 160.828 100.945C160.974 99.7315 161.733 98.4128 163.076 96.9963C164.29 95.7167 165.362 94.8974 166.263 94.5686C167.178 94.2522 168.01 94.1687 168.733 94.3713C169.465 94.5846 170.473 95.3008 171.772 96.5307C172.927 97.6397 174.076 98.7504 175.231 99.8594C176.219 100.796 177.001 101.438 177.561 101.788C178.187 102.182 178.861 102.494 179.567 102.717L176.864 105.57C176.594 105.445 176.212 105.271 175.716 105.013C175.57 104.931 175.422 104.854 175.272 104.781C175.315 105.676 175.186 106.571 174.891 107.418C174.602 108.218 174.148 108.948 173.558 109.561C172.499 110.678 171.339 111.275 170.102 111.317C168.868 111.356 167.757 110.942 166.787 110.024C166.177 109.466 165.73 108.752 165.493 107.96C165.273 107.201 165.282 106.393 165.52 105.639C165.742 104.864 166.256 103.883 166.995 102.692C168.001 101.093 168.651 99.9323 168.918 99.1983L168.618 98.914C168.045 98.3737 167.503 98.1213 166.995 98.1604C166.494 98.2013 165.888 98.6047 165.168 99.3654C164.679 99.8808 164.407 100.38 164.338 100.862C164.285 101.349 164.425 101.939 164.782 102.604H164.784ZM170.866 101.041C170.644 101.532 170.235 102.255 169.661 103.227C169.085 104.198 168.749 104.88 168.692 105.292C168.616 105.927 168.786 106.448 169.209 106.849C169.625 107.242 170.134 107.422 170.724 107.427C171.31 107.427 171.831 107.171 172.266 106.711C172.764 106.186 173.061 105.524 173.15 104.72C173.216 104.156 173.097 103.585 172.81 103.094C172.62 102.783 172.17 102.277 171.459 101.605L170.866 101.041ZM181.816 102.129C183.09 101.299 184.366 100.46 185.642 99.6302C186.047 99.9981 186.435 100.163 186.77 100.156C187.256 100.133 187.798 99.8577 188.416 99.3334C189.202 98.6687 189.696 98.0449 189.879 97.4619C190.003 97.0603 189.991 96.6444 189.811 96.1574C189.687 95.8198 189.328 95.2955 188.734 94.5935L187.265 92.8642C187.465 94.9116 186.847 96.5235 185.464 97.6948C183.925 98.9993 182.127 99.376 180.092 98.7718C178.499 98.2848 177.008 97.2771 175.663 95.6918C173.974 93.7048 173.171 91.7854 173.187 89.9566C173.196 88.1385 173.923 86.626 175.291 85.4673C176.704 84.2694 178.437 83.9069 180.44 84.4294L179.027 82.7623L181.863 80.3595L190.892 91.0016C192.076 92.395 192.852 93.5413 193.22 94.4211C193.583 95.3061 193.723 96.1201 193.664 96.8488C193.599 97.5757 193.318 98.3417 192.843 99.1361C192.358 99.9359 191.596 100.766 190.57 101.635C188.629 103.281 186.952 104.123 185.569 104.109C184.174 104.086 183.024 103.579 182.123 102.52C182.014 102.395 181.912 102.264 181.816 102.129ZM178.616 92.8802C179.688 94.142 180.705 94.8476 181.67 95.0307C182.631 95.2439 183.459 95.0289 184.151 94.4442C184.895 93.8132 185.278 92.9815 185.265 91.9525C185.254 90.9341 184.768 89.8198 183.772 88.6468C182.729 87.4205 181.704 86.722 180.719 86.5301C180.261 86.4323 179.786 86.443 179.332 86.5612C178.879 86.6793 178.459 86.9018 178.106 87.2108C177.754 87.4959 177.475 87.8608 177.292 88.2753C177.109 88.6897 177.028 89.1418 177.054 89.5941C177.092 90.5893 177.605 91.6877 178.616 92.8802ZM186.214 77.7007L189.906 75.6426C192.726 78.2907 195.602 80.8891 198.429 83.5336C197.629 79.7605 196.897 75.9625 196.103 72.1859C197.297 71.5212 198.497 70.853 199.695 70.1829C200.619 75.3903 201.44 80.6243 202.362 85.8316C202.535 86.77 202.682 87.7155 202.855 88.6574C202.999 89.6172 203.039 90.3814 203.006 90.9519C202.971 91.4889 202.843 92.0158 202.627 92.5087C202.414 92.9619 202.076 93.4151 201.641 93.847C201.144 94.3179 200.589 94.7223 199.988 95.0502C199.327 95.4181 198.628 95.7137 197.903 95.9317L196.019 93.289C196.562 93.1279 197.087 92.9093 197.583 92.6367C198.388 92.1871 198.863 91.6059 198.97 90.9092C199.067 90.1983 199.023 89.4021 198.802 88.5348C194.637 84.9003 190.384 81.3387 186.214 77.7007ZM207.721 72.9146C206.501 72.9999 205.286 73.1012 204.065 73.1918C204.065 71.6278 204.467 70.3838 205.22 69.4276C205.983 68.4714 207.321 67.7463 209.206 67.2416C210.913 66.7884 212.26 66.6533 213.198 66.8435C214.138 67.0568 214.892 67.4229 215.4 67.972C215.912 68.5372 216.395 69.6782 216.858 71.4057C217.259 72.9554 217.654 74.5034 218.055 76.0532C218.407 77.3684 218.741 78.3245 219.029 78.9181C219.319 79.5224 219.719 80.1213 220.25 80.7593L216.454 81.7724C216.291 81.5236 216.056 81.1752 215.773 80.6954C215.689 80.5504 215.602 80.4071 215.512 80.2653C215.039 81.1095 214.464 81.7759 213.806 82.3109C213.14 82.8412 212.37 83.2252 211.545 83.4377C210.058 83.834 208.764 83.7327 207.687 83.1195C206.61 82.5082 205.883 81.5733 205.536 80.283C205.31 79.4875 205.303 78.6452 205.519 77.8464C205.728 77.0769 206.15 76.43 206.757 75.8844C207.358 75.3387 208.311 74.7736 209.558 74.1498C211.252 73.3144 212.414 72.6658 213.026 72.1806L212.919 71.7825C212.717 71.0218 212.393 70.5206 211.938 70.2896C211.487 70.0603 210.758 70.0887 209.747 70.3571C209.059 70.5402 208.565 70.8227 208.261 71.196C207.954 71.5834 207.763 72.1592 207.721 72.9128V72.9146ZM213.719 74.7718C213.273 75.0739 212.546 75.4738 211.547 75.9999C210.55 76.5259 209.905 76.9312 209.645 77.2493C209.242 77.7522 209.114 78.2854 209.265 78.8488C209.413 79.4015 209.752 79.821 210.251 80.1338C210.749 80.443 211.329 80.4963 211.94 80.3346C212.638 80.148 213.239 79.7392 213.737 79.1012C214.09 78.6551 214.288 78.106 214.3 77.5372C214.3 77.1746 214.183 76.5082 213.93 75.5627L213.719 74.7718ZM228.004 79.366C226.698 79.597 225.392 79.8245 224.087 80.052L221.395 64.7339L225.031 64.0976L225.415 66.2783C225.845 65.1373 226.3 64.3696 226.737 63.9501C227.178 63.5287 227.738 63.2531 228.34 63.161C229.254 63.004 230.193 63.1139 231.045 63.4774C230.857 64.725 230.649 65.9744 230.459 67.2203C229.728 66.8844 229.073 66.7813 228.502 66.8808C227.995 66.9546 227.531 67.2037 227.189 67.5846C226.878 67.9703 226.663 68.5834 226.602 69.44C226.526 70.3056 226.714 72.0224 227.173 74.6332L228.004 79.366ZM242.386 78.9448L244.376 57.7422C245.768 57.8755 247.158 58.0088 248.542 58.1385L246.889 75.7333L257.247 76.7143L256.91 80.3186L242.386 78.9448ZM268.238 77.9211C269.459 78.472 270.685 79.0088 271.904 79.5526C271.055 80.898 269.981 81.7919 268.746 82.2896C267.49 82.8032 266.059 82.837 264.452 82.4317C261.921 81.7955 260.244 80.4768 259.476 78.4507C258.877 76.8298 258.817 74.978 259.339 72.8915C259.966 70.3891 261.104 68.603 262.707 67.4886C264.307 66.385 266.091 66.0882 268.021 66.5716C270.189 67.1172 271.734 68.2831 272.596 70.0799C273.445 71.8926 273.498 74.3097 272.676 77.3488L263.027 74.9229C262.76 76.1083 262.853 77.1053 263.274 77.9104C263.685 78.7279 264.349 79.238 265.24 79.462C265.847 79.6148 266.395 79.5757 266.894 79.334C267.383 79.0887 267.847 78.6266 268.238 77.9211ZM269.466 73.9418C269.725 72.7866 269.653 71.8358 269.267 71.0858C269.091 70.7366 268.841 70.4303 268.534 70.1884C268.227 69.9464 267.87 69.7747 267.49 69.6853C266.651 69.4756 265.869 69.6036 265.167 70.1118C264.466 70.6184 263.972 71.395 263.709 72.4934L269.468 73.9418H269.466ZM266.578 64.6095C267.546 63.3476 268.56 62.1036 269.528 60.8417L273.85 61.9276C272.249 63.0366 270.612 64.1136 269.016 65.2226L266.578 64.6095ZM271.725 85.3873L275.336 88.1971C275.119 88.7001 275.084 89.1178 275.212 89.4377C275.381 89.882 275.821 90.3085 276.513 90.7226C277.403 91.2522 278.148 91.5153 278.763 91.4993C279.184 91.4868 279.575 91.3393 279.975 91.0123C280.254 90.7866 280.629 90.273 281.098 89.4839L282.257 87.5307C280.385 88.3873 278.661 88.3233 277.11 87.4009C275.37 86.3648 274.428 84.7884 274.344 82.6699C274.282 81.0011 274.757 79.2665 275.82 77.4803C277.151 75.2392 278.699 73.8512 280.439 73.2736C282.166 72.696 283.826 72.8897 285.367 73.8067C286.959 74.754 287.866 76.2771 288.019 78.3352L289.133 76.4584C290.196 77.0911 291.266 77.7256 292.327 78.3601L285.198 90.3565C284.263 91.9276 283.433 93.0348 282.721 93.6693C282.006 94.302 281.276 94.6965 280.57 94.8778C279.865 95.0555 279.045 95.0342 278.139 94.8458C277.224 94.645 276.196 94.1971 275.036 93.5076C272.855 92.2102 271.515 90.895 271.076 89.5834C270.646 88.2576 270.751 87.0064 271.46 85.8085C271.544 85.6652 271.632 85.5248 271.725 85.3873ZM279.438 79.3589C278.59 80.7842 278.254 81.975 278.389 82.9436C278.507 83.9246 278.978 84.6391 279.758 85.1012C280.595 85.6006 281.505 85.693 282.47 85.3429C283.435 85.0052 284.329 84.1823 285.115 82.8618C285.939 81.4756 286.264 80.2795 286.126 79.2842C286.069 78.8188 285.905 78.373 285.646 77.9824C285.387 77.5917 285.04 77.267 284.633 77.0342C284.248 76.7942 283.811 76.649 283.359 76.6103C282.906 76.5717 282.451 76.6409 282.031 76.8121C281.107 77.1746 280.236 78.0171 279.436 79.3589H279.438ZM298.567 79.5011L300.795 76.414L304.012 78.7386L301.787 81.8275L298.568 79.5011H298.567ZM288.239 93.8221L297.339 81.2072L300.555 83.5336L291.456 96.1486L288.239 93.8221ZM304.065 100.147C304.865 101.224 305.674 102.291 306.475 103.364C305.073 104.121 303.701 104.379 302.381 104.212C301.033 104.047 299.763 103.377 298.561 102.243C296.658 100.448 295.842 98.4892 296.157 96.3423C296.423 94.6343 297.275 92.9868 298.746 91.4193C300.514 89.5407 302.379 88.5348 304.321 88.3446C306.253 88.1563 307.954 88.7659 309.411 90.1361C311.034 91.6663 311.816 93.4365 311.688 95.4199C311.551 97.4228 310.419 99.5609 308.222 101.818L300.978 94.9916C300.166 95.898 299.761 96.8115 299.732 97.7161C299.697 98.6349 300.029 99.4045 300.701 100.037C301.149 100.458 301.654 100.7 302.199 100.723C302.754 100.755 303.381 100.574 304.065 100.149V100.147ZM307.078 97.2735C307.872 96.3938 308.269 95.5247 308.297 94.6823C308.313 94.2915 308.243 93.902 308.093 93.541C307.942 93.1799 307.715 92.8561 307.426 92.5923C306.797 92.0005 306.051 91.7321 305.19 91.8334C304.332 91.9347 303.522 92.3719 302.756 93.2019L307.078 97.2718V97.2735ZM307.641 112.172L305.162 109.08L317.292 99.3369L319.595 102.207L317.864 103.599C319.078 103.426 319.966 103.457 320.551 103.641C321.12 103.807 321.618 104.168 322.008 104.656C322.577 105.367 322.924 106.215 323.034 107.187C321.85 107.622 320.652 108.038 319.469 108.472C319.421 107.676 319.193 107.054 318.829 106.602C318.482 106.167 318.061 105.883 317.581 105.783C317.086 105.694 316.447 105.797 315.673 106.163C314.873 106.515 313.46 107.5 311.393 109.16L307.643 112.172M334.325 109.672C332.528 110.125 330.703 110.514 328.908 110.967C329.1 111.54 329.34 112.073 329.533 112.647C331.483 112.629 333.379 112.727 335.331 112.716L334.325 109.672ZM321.626 111.175C320.619 111.292 319.641 111.591 318.74 112.058C317.158 112.869 315.934 113.864 315.118 115.002C314.297 116.155 313.911 117.465 313.902 118.88C313.883 120.273 314.24 121.551 314.862 122.763C315.875 124.743 317.382 126.072 319.439 126.655C321.477 127.218 323.526 127.046 325.625 125.969C327.699 124.906 329.075 123.362 329.795 121.371C330.504 119.384 330.33 117.372 329.288 115.338C328.666 114.085 327.721 113.021 326.551 112.256C325.401 111.511 324.054 111.127 322.684 111.152C322.328 111.156 321.971 111.134 321.626 111.175ZM323.194 115.014C323.477 115.014 323.775 115.058 324.036 115.117C325.097 115.357 325.817 115.981 326.286 116.898C326.761 117.826 326.814 118.784 326.389 119.786C325.97 120.774 325.097 121.627 323.74 122.324C322.353 123.035 321.157 123.218 320.114 122.983C319.062 122.738 318.287 122.189 317.812 121.261C317.578 120.819 317.446 120.329 317.428 119.829C317.41 119.329 317.505 118.831 317.708 118.373C318.129 117.387 319.042 116.479 320.409 115.778C321.436 115.25 322.346 115.005 323.194 115.012V115.014ZM336.792 114.388C334.961 114.68 333.166 114.893 331.337 115.185C331.479 115.773 331.606 116.349 331.746 116.937C333.69 117.095 335.581 117.346 337.526 117.509L336.792 114.388Z" fill="black"/>
<path d="M336.209 152.879L333.038 162.76L322.115 166.261L336.362 166.283L333.815 168.742L323.178 166.46L332.971 169.651L336.607 180.707L336.495 166.348L339.177 168.943L336.872 179.621L340.107 169.496L350.987 166.172L336.783 166.194L339.355 163.558L349.857 165.885L339.952 162.693L336.54 151.659V166.06L333.925 163.313L336.209 152.879ZM314.224 165.824H320.301V166.514H314.223L314.224 165.824ZM352.697 165.81H358.348V166.499H352.697V165.81ZM337.066 182.527V187.196H336.376V182.527H337.066ZM336.893 145.316V149.985H336.204V145.316H336.893Z" fill="#2A4064"/>
<path d="M325.25 164.321L326.077 164.073C327.026 160.42 329.262 157.092 334.273 155.817L334.512 155.046C329.722 156.068 326.585 159.098 325.252 164.323L325.25 164.321ZM347.999 164.401L347.176 164.142C346.277 160.476 344.089 157.117 339.095 155.771L338.868 154.998C343.641 156.086 346.739 159.157 347.999 164.401ZM347.994 167.672L347.176 167.947C346.341 171.626 344.214 175.024 339.243 176.457L339.029 177.235C343.783 176.062 346.826 172.936 347.994 167.672ZM325.224 167.782L326.045 168.048C326.916 171.72 329.082 175.093 334.067 176.473L334.288 177.251C329.521 176.128 326.446 173.034 325.224 167.782Z" fill="#2A4064"/>
<path d="M242.105 113.514C243.578 113.514 244.771 112.65 244.771 111.584C244.771 110.518 243.578 109.654 242.105 109.654C240.633 109.654 239.439 110.518 239.439 111.584C239.439 112.65 240.633 113.514 242.105 113.514Z" fill="#B66B13" stroke="black" stroke-width="2.22156"/>
<path d="M242.105 109.487C243.578 109.487 244.771 108.623 244.771 107.557C244.771 106.491 243.578 105.627 242.105 105.627C240.633 105.627 239.439 106.491 239.439 107.557C239.439 108.623 240.633 109.487 242.105 109.487Z" fill="#B66B13" stroke="black" stroke-width="2.22156"/>
<path d="M242.105 105.684C243.578 105.684 244.771 104.82 244.771 103.754C244.771 102.688 243.578 101.824 242.105 101.824C240.633 101.824 239.439 102.688 239.439 103.754C239.439 104.82 240.633 105.684 242.105 105.684Z" fill="#B66B13" stroke="black" stroke-width="2.22156"/>
<path d="M242.105 101.657C243.578 101.657 244.771 100.793 244.771 99.727C244.771 98.661 243.578 97.7969 242.105 97.7969C240.633 97.7969 239.439 98.661 239.439 99.727C239.439 100.793 240.633 101.657 242.105 101.657Z" fill="#B66B13" stroke="black" stroke-width="2.22156"/>
<path d="M239.377 99.8242V119.303" stroke="black" stroke-width="1.77725"/>
<path d="M205.741 202.996L206.143 209.824C227.063 214.756 255.478 215.815 274.88 209.362L275.26 202.998L274.908 203.163C268.279 204.094 265.219 202.212 264.394 201.348C262.622 203.2 261.376 202.808 259.995 202.998H259.251C249.629 203.584 242.98 201.206 240.517 199.58C238.393 201.604 230.608 202.964 223.722 202.998H221.626C219.474 202.806 217.994 202.038 216.561 201.229C214.992 202.344 210.158 204.132 206.182 202.998L205.741 202.996Z" stroke="black" stroke-width="0.884182"/>
<path fill-rule="evenodd" clip-rule="evenodd" d="M162.059 215.268L159.322 211.168L151.39 216.464L149.475 213.592L167.565 201.52L169.481 204.39L161.999 209.384L164.736 213.482L172.218 208.488L174.132 211.36L156.043 223.433L154.127 220.563L162.059 215.267M162.216 230.295C161.402 230.068 160.71 229.588 160.072 228.82C159.255 227.833 159.031 226.712 159.374 225.461C159.722 224.208 160.554 223.008 161.946 221.857L170.467 214.789L172.671 217.445L164.995 223.812C164.148 224.514 163.549 225.201 163.186 225.807C162.822 226.413 162.792 226.934 163.09 227.295C163.396 227.665 163.94 227.773 164.665 227.592C165.39 227.421 166.202 226.989 167.048 226.287L174.726 219.923L176.933 222.587L164.03 233.286L161.821 230.622L162.214 230.297M177.706 232.757C179.343 231.237 179.83 230.144 179.151 229.413C178.831 229.069 178.367 228.967 177.744 229.104C177.093 229.27 176.352 229.691 175.55 230.435L167.926 237.514L165.571 234.978L177.856 223.572L180.21 226.108L179.778 226.509C180.566 226.605 181.289 227.043 182.034 227.844C182.866 228.74 183.18 229.822 182.908 231.089C182.638 232.367 181.845 233.636 180.521 234.866L172.435 242.373L170.082 239.835L177.706 232.757ZM186.788 239.887C187.57 239.007 188.009 238.294 188.101 237.692C188.172 237.123 188.11 236.755 187.934 236.599C187.335 236.066 186.658 236.034 185.814 236.496C184.97 236.958 183.982 237.759 182.887 238.988C181.737 240.28 180.96 241.373 180.518 242.297C180.079 243.216 180.086 243.854 180.546 244.264C181.43 245.05 182.482 244.723 183.761 243.287L186.788 239.887ZM175.268 248.97C176.645 249.557 178.135 249.104 179.794 247.591C179.35 247.458 178.84 247.106 178.197 246.534C177.562 245.967 177.148 245.286 177.01 244.531C176.809 243.77 176.819 242.949 177.058 242.05C177.313 241.101 177.713 240.196 178.241 239.368C178.812 238.374 179.49 237.446 180.262 236.599C180.982 235.784 181.81 235.072 182.723 234.482C183.506 233.936 184.369 233.517 185.283 233.24C186.049 232.984 186.862 232.899 187.664 232.993C188.403 233.073 189.074 233.409 189.6 233.876C190.133 234.352 190.552 234.88 190.783 235.399C190.837 235.342 190.886 235.284 190.938 235.225L193.552 237.553L184.101 248.167C183.306 249.05 182.423 249.85 181.465 250.554C180.61 251.182 179.671 251.688 178.675 252.056C177.77 252.399 176.807 252.561 175.84 252.532C174.893 252.495 173.966 252.245 173.128 251.8C173.846 250.861 174.557 249.916 175.268 248.97ZM194.148 248.722C194.269 248.548 194.354 248.351 194.395 248.143C194.437 247.935 194.436 247.72 194.391 247.513C194.27 247.097 194.121 246.811 193.925 246.679C192.902 245.993 191.864 246.436 190.838 247.97C190.401 248.62 190.174 249.224 190.181 249.797C190.129 250.38 190.318 250.785 190.675 251.023C190.909 251.183 191.274 251.238 191.798 251.208C192.271 251.19 192.664 250.938 192.969 250.479C193.36 249.893 193.755 249.306 194.148 248.722ZM190.458 254.231C189.752 254.195 189.077 253.92 188.329 253.421C187.305 252.735 186.71 251.727 186.601 250.376C186.477 249.054 186.9 247.646 187.927 246.114C188.976 244.549 190.181 243.608 191.467 243.288C192.754 242.965 193.986 243.182 195.171 243.976C195.603 244.264 196.012 244.671 196.446 245.203C196.941 244.303 197.146 243.646 197.087 243.225C197.046 243.011 196.962 242.808 196.84 242.629C196.717 242.449 196.56 242.296 196.376 242.179C196.172 242.043 195.809 241.988 195.335 242.098C194.74 242.208 194.151 242.349 193.57 242.521C193.817 241.36 194.027 240.185 194.265 239.02C195.605 238.444 197.002 238.678 198.456 239.652C199.716 240.495 200.444 241.637 200.592 243.017C200.707 244.426 200.254 245.913 199.206 247.477L193.177 256.479L190.259 254.524L190.458 254.229V254.231ZM206.528 248.594C206.06 247.527 205.821 247.019 205.863 247.04C205.478 246.852 205.081 247.012 204.683 247.515C204.221 248.03 203.789 248.691 203.377 249.534L198.827 258.806L195.717 257.281L203.105 242.231L206.212 243.758L206.055 244.078C206.617 243.998 207.193 244.11 207.747 244.38C208.387 244.694 208.812 245.119 208.996 245.606C208.17 246.601 207.344 247.595 206.528 248.592M212.619 244.557C212.085 244.364 211.701 244.019 211.545 243.502C211.372 242.976 211.383 242.407 211.575 241.888C211.789 241.298 212.1 240.866 212.551 240.567C213.01 240.272 213.518 240.248 214.097 240.457C214.595 240.635 214.979 240.982 215.135 241.499C215.291 242.016 215.302 242.565 215.089 243.155C214.904 243.686 214.529 244.129 214.037 244.399C213.539 244.684 213.07 244.719 212.619 244.557ZM210.386 245.588L213.642 246.763L207.959 262.533L204.703 261.36L210.386 245.59V245.588ZM218.32 257.434C218.371 257.227 218.378 257.013 218.342 256.804C218.306 256.595 218.227 256.395 218.11 256.218C217.847 255.875 217.604 255.66 217.374 255.61C216.173 255.342 215.366 256.129 214.963 257.929C214.792 258.694 214.797 259.341 215.011 259.872C215.176 260.432 215.498 260.743 215.917 260.837C216.193 260.899 216.552 260.819 217.031 260.601C217.463 260.412 217.739 260.036 217.858 259.499L218.32 257.434ZM216.875 263.903C216.205 264.125 215.475 264.116 214.597 263.921C213.395 263.65 212.475 262.929 211.885 261.708C211.289 260.521 211.174 259.054 211.577 257.254C211.988 255.416 212.771 254.105 213.854 253.339C214.938 252.571 216.164 252.328 217.549 252.637C218.064 252.752 218.592 252.983 219.189 253.321C219.326 252.304 219.278 251.617 219.072 251.245C218.955 251.06 218.801 250.9 218.62 250.777C218.439 250.653 218.235 250.568 218.02 250.527C217.789 250.474 217.433 250.554 217.03 250.829C216.589 251.096 216.059 251.455 215.537 251.862C215.347 250.693 215.117 249.52 214.918 248.348C215.958 247.326 217.346 247.038 219.054 247.421C220.533 247.751 221.626 248.553 222.264 249.783C222.88 251.055 222.994 252.607 222.584 254.444L220.223 265.017L216.797 264.253L216.875 263.905V263.903ZM230.906 255.976C231.121 253.753 230.761 252.612 229.769 252.516C229.3 252.47 228.886 252.703 228.511 253.22C228.132 253.776 227.858 254.581 227.754 255.671L226.749 266.027L223.305 265.694L224.921 249.008L228.365 249.342L228.308 249.928C228.962 249.479 229.792 249.324 230.873 249.429C232.099 249.548 233.052 250.147 233.69 251.277C234.326 252.411 234.576 253.886 234.4 255.685L233.338 266.665L229.902 266.332L230.906 255.976ZM254.396 249.832C254.315 252.534 254.203 255.239 254.112 257.949L257.299 257.439C256.348 254.897 255.358 252.367 254.396 249.832ZM255.678 243.424C258.322 250.344 261.05 257.245 263.693 264.164L260.092 264.742C259.613 263.48 259.115 262.223 258.624 260.956L253.95 261.706C253.9 263.057 253.838 264.406 253.787 265.751L250.186 266.329C250.536 258.928 250.984 251.519 251.334 244.118L255.678 243.424ZM262.211 245.281C261.665 245.437 261.152 245.382 260.713 245.055C260.269 244.726 259.947 244.259 259.796 243.727C259.623 243.123 259.623 242.592 259.824 242.084C260.016 241.579 260.423 241.261 261.015 241.092C261.512 240.95 262.028 241.003 262.458 241.333C262.895 241.659 263.224 242.098 263.396 242.702C263.556 243.267 263.508 243.807 263.261 244.328C263.023 244.849 262.662 245.153 262.211 245.281ZM261.002 247.424L264.32 246.477L268.918 262.597L265.598 263.544L261.001 247.424H261.002ZM273.086 247.842C271.986 247.458 271.451 247.289 271.497 247.271C271.095 247.424 270.943 247.822 271.038 248.457C271.104 249.146 271.293 249.914 271.627 250.79L275.315 260.437L272.08 261.672L266.096 246.015L269.331 244.78L269.457 245.112C269.801 244.638 270.281 244.279 270.832 244.081C271.499 243.825 272.098 243.804 272.581 244.001C272.755 245.279 272.912 246.564 273.086 247.84M286.765 241.012L290.089 238.915L291.806 241.636L288.482 243.733L293.574 251.798L290.647 253.646L279.036 235.257L287.087 230.172L288.807 232.893L283.68 236.13L286.764 241.014M294.416 234.361C293.938 234.752 293.86 235.476 294.221 236.443C294.594 237.409 295.262 238.536 296.283 239.784C298.49 242.485 300.098 243.406 301.122 242.57C302.153 241.728 301.572 239.969 299.364 237.267C297.104 234.498 295.445 233.521 294.416 234.361ZM303.207 245.123C301.851 246.23 300.345 246.505 298.657 245.905C296.986 245.329 295.298 244.033 293.581 241.932C292.85 241.044 292.233 240.068 291.747 239.025C291.299 238.139 290.999 237.187 290.858 236.204C290.739 235.334 290.802 234.48 291.034 233.73C291.265 232.975 291.717 232.305 292.332 231.809C292.934 231.3 293.672 230.979 294.456 230.885C295.238 230.807 296.083 230.917 296.915 231.209C297.774 231.518 298.646 231.967 299.53 232.616C300.383 233.291 301.243 234.109 302.009 235.047C303.651 237.057 304.584 238.972 304.835 240.749C305.115 242.56 304.568 244.008 303.207 245.121V245.123ZM304.257 226.781C303.097 226.879 302.538 226.943 302.572 226.909C302.268 227.211 302.291 227.638 302.64 228.178C302.977 228.783 303.464 229.405 304.127 230.069L311.428 237.374L308.981 239.819L297.13 227.965L299.578 225.518L299.83 225.768C299.937 225.214 300.228 224.702 300.665 224.267C301.168 223.762 301.707 223.499 302.229 223.481C302.903 224.583 303.576 225.685 304.255 226.781M318.093 230.759C317.533 231.399 316.89 231.85 316.095 232.092C315.304 232.337 314.48 232.394 313.582 232.222C312.681 232.122 311.75 231.763 310.765 231.216C309.706 230.621 308.712 229.919 307.799 229.118C306.937 228.361 306.158 227.515 305.473 226.595C304.877 225.806 304.437 224.911 304.175 223.957C303.955 223.078 303.896 222.26 304.033 221.444C304.138 220.653 304.499 219.955 305.025 219.351C305.617 218.674 306.292 218.185 306.989 217.989C307.696 217.788 308.423 217.723 309.113 217.829C309.303 219.049 309.459 220.289 309.655 221.51C308.483 221.227 307.758 221.231 307.508 221.519C307.07 222.02 307.074 222.724 307.604 223.614C308.101 224.542 308.919 225.516 310.099 226.547C312.85 228.946 314.681 229.597 315.58 228.566C315.799 228.317 315.767 227.586 315.424 226.353C316.614 226.277 317.812 226.166 318.999 226.086C319.636 227.81 319.307 229.367 318.093 230.761M312.738 213.74C312.429 214.216 312.498 214.833 313.01 215.553C313.502 216.317 314.219 217.076 315.214 217.781L317.359 214.488C316.285 213.905 315.328 213.514 314.457 213.333C313.591 213.153 313.021 213.306 312.738 213.742V213.74ZM317.974 219.58C318.864 220.159 319.687 220.403 320.432 220.341C321.16 220.314 321.681 220.081 321.942 219.679C322.072 219.484 322.129 219.182 322.049 218.791C321.978 218.407 321.774 217.867 321.44 217.145C322.609 217.056 323.785 216.935 324.957 216.847C325.426 217.643 325.595 218.453 325.508 219.237C325.413 220.069 325.119 220.867 324.651 221.562C323.61 223.088 322.234 223.849 320.533 223.79C318.804 223.773 316.829 223.07 314.562 221.592C312.256 220.09 310.716 218.446 309.893 216.742C309.072 215.05 309.146 213.431 310.101 211.964C310.982 210.612 312.31 209.938 314.064 209.914C315.823 209.951 317.897 210.719 320.297 212.281L321.088 212.796L321.479 213.052C321.621 213.201 321.751 213.287 321.912 213.393L317.91 219.537L317.974 219.58ZM180.425 167.455L171.248 167.606L171.223 166.159L178.84 166.035L178.781 162.445L180.342 162.418L180.425 167.455ZM180.527 160.209L171.347 159.043L172.015 153.783L173.565 153.978L173.078 157.808L175.115 158.068L175.566 154.506L177.113 154.701L176.661 158.263L179.158 158.581L179.663 154.614L181.211 154.81L180.527 160.209ZM179.03 149.283L177.552 148.794L178.527 145.837L182.027 146.992C182.297 147.401 182.467 147.925 182.562 148.552C182.661 149.19 182.611 149.789 182.427 150.347C182.194 151.056 181.801 151.62 181.232 152.016C180.632 152.432 179.919 152.657 179.188 152.661C178.349 152.683 177.512 152.556 176.716 152.288C175.879 152.025 175.102 151.601 174.427 151.04C173.848 150.562 173.428 149.919 173.22 149.197C173.06 148.664 173.101 148.074 173.315 147.425C173.594 146.581 174.038 145.995 174.653 145.671C175.277 145.358 176.004 145.252 176.855 145.387C176.818 145.877 176.771 146.364 176.738 146.857C176.325 146.803 175.906 146.872 175.533 147.056C175.193 147.242 174.942 147.555 174.832 147.927C174.732 148.205 174.703 148.504 174.75 148.796C174.796 149.087 174.917 149.363 175.099 149.595C175.479 150.114 176.148 150.532 177.109 150.848C178.154 151.193 178.993 151.266 179.635 151.088C180.274 150.909 180.692 150.518 180.884 149.937C180.98 149.647 181.005 149.338 180.948 148.995C180.905 148.676 180.808 148.367 180.664 148.079L179.549 147.712L179.032 149.283M184.186 143.978L177.107 140.967L176.277 142.922L174.84 142.309L177.065 137.076L178.502 137.688L177.672 139.639L184.749 142.648L184.186 143.978ZM186.312 139.191L178.376 134.432L181.106 129.88L182.446 130.684L180.459 133.995L182.219 135.05L184.067 131.969L185.403 132.77C184.789 133.799 184.174 134.823 183.555 135.852L185.716 137.148L187.773 133.717L189.111 134.523L186.312 139.191ZM190.307 132.09L182.974 126.447L184.829 124.035C185.295 123.431 185.699 123.033 186.042 122.862C186.422 122.69 186.849 122.651 187.254 122.752C187.714 122.842 188.164 123.052 188.599 123.386C189.148 123.809 189.505 124.289 189.669 124.81C189.84 125.341 189.776 125.885 189.486 126.456C189.863 126.356 190.227 126.303 190.574 126.317C190.924 126.333 191.483 126.408 192.265 126.582C192.919 126.72 193.574 126.847 194.233 126.991C193.877 127.449 193.529 127.904 193.179 128.359C192.431 128.217 191.686 128.098 190.945 127.959C190.436 127.85 189.92 127.774 189.401 127.732C189.203 127.718 189.006 127.755 188.826 127.838C188.681 127.915 188.507 128.094 188.306 128.356L188.128 128.587L191.19 130.943L190.307 132.09ZM186.957 127.685L187.609 126.838C188.03 126.292 188.268 125.924 188.309 125.745C188.353 125.556 188.331 125.358 188.247 125.183C188.14 124.968 187.981 124.782 187.785 124.643C187.582 124.473 187.334 124.365 187.071 124.334C186.958 124.325 186.845 124.339 186.738 124.376C186.632 124.413 186.534 124.471 186.45 124.547C186.212 124.804 185.989 125.076 185.782 125.359C185.551 125.658 185.32 125.956 185.094 126.253L186.957 127.685ZM189.027 119.402L190.044 118.371L193.605 121.893C194.174 122.453 194.553 122.803 194.745 122.942C195.021 123.151 195.358 123.265 195.704 123.267C196.03 123.267 196.334 123.123 196.621 122.834C196.909 122.54 197.048 122.247 197.036 121.94C197.028 121.64 196.922 121.351 196.735 121.117C196.401 120.712 196.042 120.328 195.662 119.967L192.022 116.37L193.039 115.339L196.495 118.755C197.284 119.537 197.81 120.118 198.082 120.497C198.361 120.872 198.53 121.243 198.608 121.613C198.692 121.986 198.664 122.364 198.55 122.743C198.443 123.129 198.184 123.518 197.784 123.925C197.304 124.41 196.87 124.712 196.472 124.812C196.097 124.922 195.699 124.935 195.317 124.849C194.944 124.764 194.606 124.629 194.306 124.417C193.869 124.11 193.271 123.596 192.534 122.867L189.027 119.402ZM189.518 118.152L188.434 117.082L189.258 116.247L190.342 117.317L189.518 118.152ZM190.989 116.663L189.905 115.591L190.741 114.749L191.823 115.819L190.989 116.663ZM201.043 120.265C199.156 117.826 197.27 115.386 195.385 112.945L196.497 112.087C198.521 113.133 200.565 114.134 202.593 115.179L198.816 110.293L199.877 109.472L205.536 116.795L204.386 117.683C202.403 116.661 200.398 115.689 198.415 114.667L202.108 119.444L201.042 120.267M207.315 115.36L202.566 107.42L203.81 106.677C204.511 107.853 205.213 109.024 205.915 110.201C206.03 108.527 206.194 106.854 206.313 105.18L207.98 104.185C207.838 105.676 207.656 107.164 207.514 108.66C209.286 109.801 211.083 110.901 212.853 112.051L211.25 113.009C209.947 112.094 208.63 111.209 207.331 110.292C207.267 110.935 207.184 111.577 207.121 112.218L208.557 114.619L207.315 115.362M214.406 111.523L210.761 103.019L215.64 100.927L216.255 102.363L212.709 103.883L213.518 105.77L216.818 104.356L217.431 105.788L214.133 107.203L215.124 109.517L218.794 107.944L219.411 109.38L214.406 111.523ZM222.861 108.344L220.557 101.005L218.531 101.642L218.066 100.151L223.493 98.448L223.961 99.9391L221.938 100.572L224.24 107.912C223.78 108.054 223.321 108.2 222.861 108.344ZM250.623 107.108C250.442 103.909 250.216 100.719 250.033 97.5273L251.569 97.8508C251.675 100.207 251.816 102.564 251.924 104.924C252.955 102.806 254.021 100.703 255.052 98.5866L256.55 98.9047C255.093 101.75 253.591 104.574 252.13 107.428L250.623 107.108ZM255.649 108.002L258.784 99.2957L263.778 101.094L263.249 102.564L259.62 101.258L258.925 103.188L262.302 104.405L261.774 105.872L258.397 104.654L257.544 107.023L261.301 108.377L260.771 109.847L255.649 108.002ZM260.693 99.4219C261.114 98.8994 261.546 98.3911 261.967 97.8757L263.416 98.3946C262.781 98.8407 262.142 99.2691 261.511 99.7151L260.693 99.4219ZM266.476 102.214L268.883 103.305C269.425 103.552 269.818 103.787 270.05 104.029C270.365 104.348 270.584 104.752 270.679 105.248C270.777 105.745 270.786 106.296 270.687 106.893C270.58 107.498 270.349 108.198 269.99 108.985C269.675 109.678 269.336 110.247 268.979 110.688C268.534 111.23 268.079 111.612 267.605 111.857C267.249 112.049 266.835 112.124 266.375 112.11C266.032 112.104 265.616 111.985 265.131 111.765L262.653 110.64L266.476 102.214ZM267.148 104.235L264.616 109.815L265.597 110.26C265.964 110.428 266.238 110.521 266.427 110.542C266.675 110.569 266.906 110.537 267.12 110.434C267.333 110.327 267.573 110.112 267.836 109.773C268.165 109.312 268.443 108.817 268.666 108.297C268.961 107.645 269.142 107.124 269.215 106.733C269.286 106.343 269.279 106.017 269.211 105.747C269.142 105.484 268.991 105.249 268.781 105.075C268.623 104.938 268.278 104.747 267.74 104.503L267.148 104.235ZM269.028 113.693C270.621 111.045 272.211 108.406 273.802 105.767L278.347 108.504L277.54 109.84L274.232 107.85L273.173 109.606L276.251 111.459L275.448 112.796L272.37 110.942L271.07 113.1L274.495 115.161L273.688 116.499L269.028 113.691M275.254 117.671L281.034 110.539L282.159 111.45L277.362 117.369L280.152 119.629L279.168 120.841L275.254 117.671ZM280.319 121.877L287.293 115.796L288.713 117.424C287.411 119.126 286.12 120.845 284.819 122.549C286.675 121.481 288.553 120.438 290.414 119.373L291.834 121.001L284.86 127.083L283.98 126.075C285.811 124.476 287.645 122.88 289.476 121.282C287.336 122.526 285.184 123.756 283.047 125.005L282.132 123.957C283.661 122.011 285.171 120.043 286.7 118.097L281.204 122.89L280.319 121.877ZM286.218 128.656L293.61 123.088L296.801 127.325L295.554 128.267L293.231 125.183L291.592 126.418L293.75 129.283L292.509 130.218L290.35 127.355L288.336 128.873L290.739 132.061L289.492 133.003L286.218 128.656ZM290.215 134.302L291.681 133.463C294.045 133.534 296.402 133.671 298.756 133.739L297.1 130.845L298.454 130.069L301.06 134.619L299.803 135.34C297.344 135.26 294.895 135.113 292.438 135.04L294.461 138.571L293.105 139.348L290.215 134.3M294.109 140.885L295.703 140.331C298.014 140.834 300.303 141.397 302.608 141.902L301.513 138.76L302.988 138.244L304.708 143.185L303.34 143.661C300.941 143.139 298.559 142.542 296.156 142.014L297.496 145.861L296.021 146.377L294.109 140.885ZM306.095 146.592C306.176 147.059 306.262 147.534 306.344 148.01L301.412 148.879C300.902 148.962 300.397 149.069 299.897 149.201C299.567 149.307 299.28 149.517 299.078 149.8C298.89 150.061 298.835 150.395 298.906 150.795C298.977 151.199 299.133 151.488 299.389 151.648C299.638 151.816 299.935 151.899 300.235 151.886C300.76 151.845 301.282 151.773 301.799 151.673L306.834 150.784L307.085 152.212L302.304 153.054C301.207 153.246 300.427 153.342 299.967 153.347C299.549 153.358 299.133 153.281 298.746 153.121C298.393 152.973 298.087 152.732 297.861 152.423C297.607 152.108 297.438 151.677 297.338 151.113C297.221 150.445 297.228 149.919 297.374 149.535C297.512 149.153 297.719 148.826 298.014 148.568C298.296 148.31 298.604 148.119 298.95 147.989C299.453 147.811 300.217 147.628 301.238 147.447L306.095 146.592ZM306.832 147.712L308.329 147.445L308.533 148.604C308.035 148.693 307.533 148.781 307.037 148.867L306.832 147.712ZM307.197 149.777L308.693 149.514L308.899 150.678L307.401 150.941L307.197 149.777ZM298.294 155.926L307.465 154.693L307.657 156.12L303.589 156.667C305.085 157.438 306.557 158.249 308.046 159.013L308.306 160.94C306.994 160.225 305.697 159.468 304.378 158.754C302.629 159.928 300.912 161.146 299.155 162.322L298.906 160.463C300.264 159.637 301.597 158.771 302.947 157.94C302.382 157.625 301.828 157.294 301.264 156.98L298.486 157.353L298.294 155.926ZM206.661 224.993C207.306 221.853 207.9 218.709 208.54 215.579L209.935 216.281C209.437 218.588 208.977 220.906 208.478 223.211C210.015 221.427 211.579 219.665 213.12 217.884L214.492 218.576C212.354 220.95 210.184 223.3 208.04 225.687L206.661 224.993ZM212.807 228.089L216.191 219.477L221.128 221.416L220.559 222.87L216.967 221.459L216.216 223.369L219.553 224.681L218.985 226.129L215.647 224.818L214.726 227.163L218.443 228.624L217.872 230.078L212.807 228.088M221.146 227.786C221.615 227.842 222.084 227.899 222.553 227.949C222.488 228.568 222.553 229.044 222.736 229.378C222.912 229.716 223.222 229.936 223.65 230.041C224.1 230.151 224.471 230.119 224.762 229.924C225.04 229.743 225.238 229.464 225.317 229.143C225.367 228.951 225.364 228.748 225.306 228.557C225.217 228.354 225.074 228.18 224.892 228.052C224.745 227.937 224.4 227.722 223.867 227.382C223.174 226.956 222.712 226.529 222.502 226.104C222.198 225.497 222.127 224.8 222.303 224.144C222.415 223.682 222.619 223.277 222.921 222.927C223.204 222.59 223.583 222.348 224.007 222.233C224.434 222.113 224.914 222.123 225.45 222.253C226.326 222.466 226.925 222.875 227.242 223.477C227.553 224.087 227.626 224.791 227.45 225.628C226.975 225.539 226.499 225.45 226.024 225.365C226.078 224.887 226.028 224.522 225.886 224.27C225.738 224.018 225.464 223.851 225.068 223.755C224.659 223.653 224.316 223.684 224.032 223.847C223.94 223.901 223.86 223.974 223.798 224.06C223.736 224.147 223.693 224.246 223.671 224.35C223.62 224.549 223.649 224.76 223.751 224.938C223.876 225.178 224.261 225.482 224.889 225.859C225.518 226.236 225.98 226.573 226.25 226.876C226.527 227.187 226.714 227.567 226.792 227.976C226.881 228.408 226.858 228.907 226.717 229.479C226.593 229.989 226.362 230.444 226.035 230.841C225.73 231.214 225.317 231.483 224.853 231.612C224.396 231.736 223.861 231.722 223.254 231.573C222.377 231.36 221.761 230.933 221.423 230.283C221.091 229.646 220.986 228.813 221.146 227.784M228.232 232.541L228.425 230.864C229.877 229.001 231.386 227.187 232.845 225.331L229.54 224.949L229.717 223.397L234.914 223.998L234.747 225.438C233.231 227.371 231.66 229.257 230.139 231.189L234.187 231.656L234.008 233.208L228.232 232.541ZM236.713 233.405L236.437 224.156L238.753 224.089C239.636 224.062 240.207 224.08 240.475 224.171C240.886 224.306 241.241 224.588 241.534 225.041C241.819 225.504 241.979 226.095 242.002 226.836C242.018 227.405 241.95 227.883 241.806 228.272C241.662 228.663 241.46 228.969 241.229 229.2C241.021 229.409 240.768 229.568 240.489 229.664C240.145 229.765 239.65 229.822 238.993 229.842L238.049 229.87L238.152 233.364L236.713 233.407V233.405ZM237.923 225.674L238.001 228.301L238.796 228.278C239.366 228.26 239.745 228.2 239.933 228.097C240.127 227.993 240.282 227.829 240.374 227.629C240.48 227.402 240.528 227.152 240.516 226.902C240.515 226.607 240.425 226.32 240.26 226.076C240.118 225.874 239.905 225.735 239.663 225.687C239.492 225.651 239.146 225.64 238.623 225.655L237.923 225.676V225.674ZM243.857 233.288L242.978 224.076L246.008 223.788C246.772 223.716 247.334 223.739 247.694 223.874C248.05 224.016 248.352 224.275 248.604 224.681C248.846 225.079 249.001 225.552 249.052 226.102C249.118 226.792 249.011 227.379 248.743 227.855C248.475 228.338 248.028 228.662 247.417 228.839C247.744 229.047 248.032 229.28 248.261 229.54C248.485 229.806 248.816 230.268 249.223 230.961C249.564 231.534 249.918 232.099 250.266 232.677L248.542 232.842C248.14 232.197 247.717 231.569 247.309 230.933C247.043 230.487 246.747 230.06 246.424 229.653C246.299 229.499 246.137 229.378 245.953 229.303C245.798 229.248 245.551 229.243 245.22 229.275C245.126 229.286 245.025 229.293 244.929 229.302L245.297 233.151L243.857 233.29V233.288ZM244.79 227.832L245.851 227.729C246.541 227.663 246.971 227.586 247.14 227.494C247.304 227.395 247.43 227.244 247.501 227.066C247.585 226.841 247.614 226.599 247.584 226.36C247.569 226.094 247.476 225.839 247.316 225.626C247.246 225.538 247.16 225.466 247.061 225.414C246.962 225.361 246.853 225.33 246.742 225.322C246.39 225.323 246.039 225.345 245.69 225.388L244.566 225.495L244.79 227.83V227.832ZM252.818 232.261L250.291 223.358L255.393 221.91L255.82 223.413L252.109 224.466L252.669 226.44L256.126 225.459L256.552 226.956L253.094 227.937L253.783 230.363L257.626 229.271L258.052 230.775L252.818 232.261ZM261.04 230.103L257.554 221.531L259.554 220.717C260.743 222.504 261.95 224.281 263.132 226.067C262.73 223.963 262.353 221.848 261.946 219.745L263.96 218.928L267.445 227.498C267.031 227.668 266.615 227.835 266.199 228.004L263.451 221.251C263.94 223.675 264.397 226.113 264.884 228.539L263.594 229.063C262.25 226.986 260.882 224.919 259.538 222.841L262.286 229.595L261.04 230.103Z" fill="black"/>
</svg>
