<svg width="480" height="320" viewBox="0 0 480 320" fill="none" xmlns="http://www.w3.org/2000/svg">
<path d="M62.1235 155.063V159.266H71.5937V155.063H78.1004V167.657H71.6739V162.567H62.1563V167.657H55.5039V155.063H62.1235ZM99.393 155.063V158.025H86.766V159.685H98.5711V162.713H86.7989V164.597H100.182V167.657H80.3232V155.063H99.393ZM102.566 155.063V167.657H109.105V163.163H111.103C112.891 163.178 114.79 163.163 115.692 163.597C116.738 164.098 116.335 165.161 117.013 166.562C117.24 167.062 117.48 167.222 117.801 167.657H125.018C125.018 167.657 124.147 166.675 123.857 165.886C123.263 164.258 123.15 163.261 121.862 162.551C120.684 161.907 119.911 161.554 118.623 161.648L121.297 161.28C123.021 161.056 125.066 160.329 125.066 158.526C125.049 155.111 118.769 155.063 114.436 155.063H102.566ZM108.992 157.622L114.13 157.638C115.692 157.638 117.834 157.653 117.85 159.119C117.883 160.618 115.419 160.552 113.711 160.552L108.992 160.568V157.622ZM152.092 161.376C151.946 156.964 145.117 154.82 139.286 154.853C132.491 154.884 126.965 157.108 127.015 161.103C127.078 165.256 132.346 168.173 139.867 167.979C146.6 167.817 152.236 165.692 152.092 161.376M139.642 157.784C142.815 157.784 145.069 159.041 145.022 161.506C144.989 163.807 143.185 165.032 139.625 165.032C136.339 165.032 134.021 163.791 134.07 161.456C134.101 158.976 136.066 157.784 139.642 157.784ZM165.186 167.946C160.162 168.092 154.152 167.158 154.152 161.536V155.064H160.322V161.359C160.322 164.372 161.997 165.081 165.46 165.001C168.569 164.935 170.275 164.372 170.275 161.262V155.064H176.299V161.94C176.299 167.175 171.596 167.738 165.186 167.946ZM186.849 155.078L189.861 158.235L192.502 155.078H200.217L193.421 160.892L201.49 167.658H193.049L189.539 163.792L186.09 167.674H178.441L185.753 161.326L178.507 155.064L186.849 155.078ZM216.97 155.063V167.674H227.39C233.06 167.674 240.726 167.415 240.662 161.601C240.631 155.818 232.207 155.063 227.262 155.063L216.97 155.063ZM223.606 157.655H226.973C230.596 157.655 232.996 158.574 233.253 161.28C233.446 163.052 231.708 164.984 228.115 164.984H223.606V157.655ZM261.858 155.063V158.025H249.231V159.685H261.036V162.713H249.262V164.597H262.646V167.657H242.789V155.063H261.858ZM271.489 155.063L276.24 163.648L280.976 155.063H287.595L280.669 167.657H271.682L264.756 155.063H271.489ZM310.111 155.063V158.041H303.171V167.657H296.678V158.09H289.559V155.063H310.111ZM331.532 155.063V158.025H318.905V159.685H330.712V162.713H318.938V164.597H332.323V167.657H312.464V155.063H331.532ZM341.309 160.667L348.783 155.063H357.849L350.119 159.845L358.671 167.69H350.054L345.594 162.922L341.324 165.869V167.657H334.64V155.063H341.309V160.667ZM387.687 179.91H402.291V140.096H387.687V141.718C387.687 141.718 394.177 140.843 394.177 147.958V173.794C394.177 174.918 394.177 178.412 387.687 178.412L387.687 179.91Z" fill="#004C93"/>
<path d="M360.102 140.09V141.712C360.102 141.712 366.592 140.837 366.592 147.954V173.791C366.592 174.91 366.587 178.379 360.182 178.41H55.3848V179.91H384.315V140.09H360.102ZM99.3554 152.226H80.3202V153.478H99.3553L99.3554 152.226Z" fill="#004C93"/>
<path d="M381.848 158.049C368.071 158.933 346.567 161.942 342.641 169.314C345.692 165.423 358.701 161.969 376.231 161.269C395.995 160.48 412.163 163.462 412.34 167.929C412.428 170.135 408.597 172.291 402.318 174.002C415.705 171.62 424.725 167.977 424.501 164.459C424.178 159.429 405.081 156.556 381.848 158.049H381.848Z" fill="#F9B41F" stroke="#FCB131" stroke-width="0.555905"/>
</svg>
