<svg width="480" height="320" viewBox="0 0 480 320" fill="none" xmlns="http://www.w3.org/2000/svg">
<path d="M282.912 127.437C279.643 132.297 276.052 138.37 272.106 146.15C268.127 153.98 264.539 162.004 262.314 168.108H275.587C276.399 165.564 277.388 162.99 278.435 160.574H300.243C301.297 162.98 302.232 165.404 303.098 168.108H316.373C314.011 161.991 310.576 154.021 306.607 146.198C302.651 138.409 299.106 132.307 295.773 127.437H282.912ZM289.33 137.047C292.068 141.951 294.524 146.923 297.26 153.045H281.42C284.089 147.043 286.548 142.073 289.33 137.047ZM187.765 127.437C187.117 133.676 186.785 141.106 186.785 147.769C186.785 154.381 187.114 161.034 187.773 168.108H200.354C199.812 162.845 199.547 158.334 199.368 153.009H212.028C212.95 154.028 214.461 155.967 216.05 158.477C217.899 161.384 219.327 164.247 220.915 168.108H234.98C233.133 164.586 231.133 161.407 228.127 157.167C226.409 154.749 224.784 152.782 223.295 151.308C228.572 149.454 231.836 145 231.836 139.586C231.836 136.491 230.725 133.561 228.794 131.539C226.049 128.701 221.786 127.437 214.962 127.437H187.765ZM199.746 135.055H210.812C214.885 135.055 216.867 135.553 218.134 136.902C218.887 137.658 219.337 138.866 219.337 140.138C219.337 142.331 218.205 144.272 216.221 145.488H199.36C199.368 142.482 199.495 139.057 199.746 135.055ZM137.481 127.437C136.881 133.883 136.493 141.177 136.493 147.794C136.493 154.381 136.932 161.614 137.484 168.113H176.296C176.094 165.401 175.936 162.926 175.792 160.002H149.372C149.168 156.955 149.073 154.148 149.068 151.411H173.44V143.739H149.068C149.068 141.509 149.145 138.25 149.37 135.546H175.759C175.89 132.693 176.048 130.297 176.306 127.437H137.481ZM82.0891 127.437C81.4429 133.513 81.1032 141.169 81.1032 147.769C81.1032 154.381 81.4046 160.852 82.0891 168.108H106.073C114.56 168.108 119.785 167.125 123.028 164.908C125.529 163.192 127.076 159.782 127.076 156.005C127.076 151.561 124.538 148.011 120.084 146.196C123.046 144.53 124.931 141.325 124.931 137.859C124.931 134.649 124.004 132.425 121.923 130.657C118.426 127.682 112.016 127.437 105.199 127.437H82.0891ZM94.0618 135.132H104.704C109.005 135.132 110.438 135.459 111.669 136.697C112.299 137.336 112.675 138.457 112.675 139.703C112.675 141.425 111.983 142.906 110.719 143.882H93.6864C93.7273 140.84 93.8499 138.01 94.0618 135.132ZM93.6762 151.25H108.995C111.211 151.25 112.34 151.551 113.334 152.396C114.263 153.191 114.695 154.174 114.695 155.507C114.695 156.907 114.289 157.997 113.456 158.825C112.264 159.943 110.583 160.421 107.649 160.421H94.0618C93.7937 157.185 93.689 153.924 93.6762 151.25ZM244.199 127.44C243.556 133.26 243.191 140.932 243.206 148.119C243.221 155.007 243.494 161.631 244.199 168.108H255.028C255.761 161.665 256.001 155.022 256.019 148.116C256.039 140.945 255.628 133.206 255.038 127.44H244.199ZM56.3762 127.44C55.7326 133.26 55.3699 140.932 55.3852 148.119C55.4006 155.007 55.6713 161.631 56.3762 168.108H67.2125C67.9403 161.665 68.1804 155.022 68.2008 148.116C68.2187 140.945 67.8101 133.206 67.2176 127.44H56.3762Z" fill="url(#paint0_linear_730_18544)"/>
<path d="M335.51 181.379L316.389 200.679V200.682C382.763 200.682 398.41 185.077 407.541 163.836L415.208 143.842C392.845 144.485 359.1 157.666 335.51 181.379Z" fill="url(#paint1_linear_730_18544)"/>
<path d="M380.094 136.235L358.58 158.027C379.006 143.355 399.376 134.503 419.67 132.217L424.617 119.315C394.575 119.315 390.484 125.884 380.094 136.235Z" fill="url(#paint2_linear_730_18544)"/>
<defs>
<linearGradient id="paint0_linear_730_18544" x1="185.879" y1="199.75" x2="185.879" y2="128.713" gradientUnits="userSpaceOnUse">
<stop stop-color="#A61C22"/>
<stop offset="0.8" stop-color="#DA1C2D"/>
<stop offset="1" stop-color="#DA1C2D"/>
</linearGradient>
<linearGradient id="paint1_linear_730_18544" x1="319.661" y1="206.349" x2="418.387" y2="149.349" gradientUnits="userSpaceOnUse">
<stop stop-color="#A61C22"/>
<stop offset="0.5" stop-color="#DC1C2E"/>
<stop offset="1" stop-color="#DC1C2E"/>
</linearGradient>
<linearGradient id="paint2_linear_730_18544" x1="357.77" y1="156.621" x2="424.061" y2="118.348" gradientUnits="userSpaceOnUse">
<stop stop-color="#ED7417"/>
<stop offset="0.85" stop-color="#FACD08"/>
<stop offset="1" stop-color="#FACD08"/>
</linearGradient>
</defs>
</svg>
