<svg width="480" height="320" viewBox="0 0 480 320" fill="none" xmlns="http://www.w3.org/2000/svg">
<path d="M83.7823 157.499C83.4696 158.812 83.2194 160.501 83.0317 161.815H61.3895V173.949C63.5162 173.762 66.1433 173.824 68.1449 173.824H77.6525V178.14H61.327V190.963H82.8441C83.0943 192.652 83.3445 193.965 83.7198 195.654H60.8266C59.0752 195.654 57.0736 195.466 55.3848 195.404V157.499C57.0736 157.436 59.1377 157.436 60.8266 157.436H83.7823V157.499ZM95.0413 157.499C98.3564 162.628 102.86 168.32 106.676 172.448C110.679 168.195 115.057 162.628 118.31 157.499H125.44C119.936 164.817 114.619 171.322 110.178 176.264C114.995 181.643 121.25 189.211 125.753 195.654H118.56C114.87 190.087 110.554 184.708 106.488 180.329C102.422 184.833 98.4189 189.649 94.4158 195.654H87.5353C93.2273 187.96 98.4815 181.455 102.985 176.264C98.6066 171.51 93.3524 164.754 87.7855 157.436L95.0413 157.499ZM149.209 157.499C154.338 157.499 157.716 158.249 160.406 160.188C163.095 162.127 164.784 165.693 164.784 169.008V169.821C164.784 173.824 163.471 177.014 161.094 179.078C158.404 181.455 154.338 182.394 149.334 182.394H137.763V195.717H131.758V157.624C133.447 157.561 135.261 157.561 137.012 157.561L149.209 157.499ZM137.763 177.64H149.022C152.587 177.64 155.152 177.077 156.653 175.638C158.154 174.2 158.717 172.198 158.717 169.758V169.133C158.717 167.006 157.841 165.067 156.59 163.879C155.026 162.378 152.212 161.815 148.584 161.815H137.7L137.763 177.64ZM187.552 157.499C192.619 157.499 196.81 158.124 199.499 159.751C202.251 161.439 203.753 164.504 203.753 168.257V168.883C203.753 173.511 201.313 177.264 197.31 179.454C200.625 183.269 204.691 189.649 207.255 195.654H200.938C198.436 190.087 194.871 184.082 191.555 180.642H178.545V195.654H172.165V157.561C173.854 157.499 176.043 157.499 177.857 157.499H187.552ZM178.483 175.888H193.995C196.559 174.575 197.81 172.073 197.81 168.82V168.507C197.81 166.381 197.185 164.629 195.871 163.629C194.37 162.378 191.555 161.815 187.677 161.815H178.483V175.888ZM242.033 157.499C241.72 158.812 241.47 160.501 241.282 161.815H219.578V173.949C221.704 173.762 224.394 173.824 226.396 173.824H235.841V178.14H219.578V190.963H241.157C241.408 192.652 241.658 193.965 242.033 195.654H219.077C217.326 195.654 215.262 195.466 213.573 195.404V157.499C215.262 157.436 217.388 157.436 219.077 157.436H242.033V157.499ZM274.184 162.69C270.18 161.752 266.865 161.377 263.237 161.377C256.482 161.377 254.168 163.879 254.168 166.881C254.168 169.696 256.419 171.823 261.298 173.136L264.739 174.012C269.242 175.2 271.869 176.389 273.746 177.89C275.81 179.641 276.56 181.705 276.56 184.896C276.56 191.526 271.556 195.967 261.924 195.967C256.795 195.967 252.229 195.091 247.913 193.59L248.851 189.149C252.917 190.525 257.233 191.338 261.924 191.338C268.116 191.338 270.806 188.774 270.806 185.083C270.806 183.645 270.368 182.206 269.555 181.455C268.492 180.392 266.552 179.516 262.612 178.453L259.297 177.577C250.853 175.263 248.288 171.698 248.288 166.756C248.288 160.439 254.105 156.623 263.05 156.623C267.491 156.623 271.682 157.311 274.872 158.187L274.184 162.69ZM309.149 162.69C305.146 161.752 301.831 161.377 298.203 161.377C291.447 161.377 289.133 163.879 289.133 166.881C289.133 169.696 291.385 171.823 296.264 173.136L299.704 174.012C304.207 175.2 306.834 176.389 308.711 177.89C310.775 179.641 311.526 181.705 311.526 184.896C311.526 191.526 306.522 195.967 296.889 195.967C291.76 195.967 287.194 195.091 282.878 193.59L283.816 189.149C287.944 190.525 292.198 191.338 296.889 191.338C303.081 191.338 305.771 188.774 305.771 185.083C305.771 183.645 305.333 182.206 304.52 181.455C303.457 180.392 301.518 179.516 297.577 178.453L294.262 177.577C285.818 175.263 283.253 171.698 283.253 166.756C283.253 160.439 289.07 156.623 298.015 156.623C302.456 156.623 306.647 157.311 309.774 158.187L309.149 162.69Z" fill="url(#paint0_linear_730_18308)"/>
<path d="M277.312 139.983C276.687 139.108 276.061 138.357 275.561 137.857C277.5 137.169 278.751 135.542 278.751 133.541C278.751 132.415 278.375 131.226 277.625 130.476C276.624 129.475 274.998 128.912 272.558 128.912H262.55C262.3 131.352 262.238 133.979 262.238 136.481C262.238 138.92 262.363 141.547 262.55 144.049H267.179C266.929 141.985 266.866 140.359 266.866 138.357H271.495C271.808 138.732 272.371 139.546 272.996 140.421C273.684 141.485 274.185 142.798 274.81 144.049H279.939C279.126 142.861 278.438 141.61 277.312 139.983ZM272.934 135.855H266.679C266.679 134.604 266.741 133.416 266.804 131.789H270.87C272.371 131.789 273.059 132.04 273.559 132.54C273.872 132.853 273.997 133.416 273.997 133.854C274.122 134.542 273.684 135.48 272.934 135.855ZM218.39 136.606C218.39 139.17 218.265 141.61 218.078 144.049H214.137C213.824 141.61 213.824 139.108 213.824 136.606C213.824 133.916 213.949 131.352 214.137 128.912H218.14C218.265 131.352 218.39 133.916 218.39 136.606ZM287.57 136.606C287.57 139.17 287.445 141.61 287.258 144.049H283.317C283.004 141.61 283.004 139.108 283.004 136.606C283.004 133.916 283.129 131.352 283.317 128.912H287.258C287.445 131.352 287.57 133.916 287.57 136.606ZM306.21 135.855C304.709 132.978 303.458 130.914 302.269 128.912H297.516C296.327 130.976 294.951 133.04 293.575 135.855C292.074 138.732 290.823 141.985 289.947 143.987H294.826C295.139 143.173 295.514 141.922 295.827 141.109H303.896C304.271 141.922 304.646 143.173 304.959 143.987H309.838C308.9 141.61 307.711 138.732 306.21 135.855ZM296.953 138.295C297.891 136.23 298.829 134.291 299.83 132.415C300.831 134.229 301.769 136.293 302.77 138.295H296.953ZM237.531 135.98C238.594 135.355 239.344 134.166 239.344 132.915C239.344 131.727 239.032 130.851 238.219 130.226C236.905 129.162 234.591 128.975 232.026 128.975H223.519C223.269 131.414 223.207 134.104 223.207 136.543C223.207 138.983 223.332 141.234 223.519 144.112H232.401C235.529 144.112 237.468 143.799 238.656 142.923C239.532 142.298 240.158 141.047 240.158 139.608C240.095 137.982 239.157 136.668 237.531 135.98ZM227.898 131.727H231.776C233.34 131.727 233.84 131.914 234.341 132.352C234.591 132.603 234.716 132.978 234.716 133.416C234.716 134.041 234.403 134.542 233.965 134.917H227.71C227.773 133.854 227.835 132.978 227.898 131.727ZM235.091 140.609C234.653 140.984 234.028 141.172 232.964 141.172H227.96C227.835 139.921 227.835 138.732 227.773 137.857H233.465C234.278 137.857 234.716 137.919 235.029 138.232C235.341 138.545 235.529 138.857 235.529 139.358C235.529 139.921 235.404 140.296 235.091 140.609ZM258.172 144.049H243.911C243.66 141.61 243.598 138.92 243.598 136.481C243.598 134.041 243.723 131.414 243.911 128.912H258.234C258.109 130.163 258.047 130.976 258.047 132.227H248.289C248.227 133.04 248.164 134.291 248.164 135.105H257.046V137.982H248.164C248.164 138.795 248.227 140.046 248.289 141.297H258.047C258.109 141.985 258.109 143.236 258.172 144.049Z" fill="#D7192C"/>
<path d="M338.61 180.579C361.378 157.686 393.904 144.989 415.484 144.426L408.041 163.754C399.221 184.27 384.147 199.282 320.096 199.282L338.61 180.579Z" fill="url(#paint1_linear_730_18308)"/>
<path d="M360.877 158.061L381.643 137.044C391.651 127.099 395.655 120.719 424.615 120.719L419.861 133.166C400.221 135.355 380.58 143.925 360.877 158.061Z" fill="url(#paint2_linear_730_18308)"/>
<defs>
<linearGradient id="paint0_linear_730_18308" x1="183.493" y1="229.62" x2="183.493" y2="157.486" gradientUnits="userSpaceOnUse">
<stop stop-color="#A80E1F"/>
<stop offset="0.8" stop-color="#D7192C"/>
</linearGradient>
<linearGradient id="paint1_linear_730_18308" x1="323.293" y1="204.715" x2="418.564" y2="149.71" gradientUnits="userSpaceOnUse">
<stop stop-color="#A80E1F"/>
<stop offset="0.5" stop-color="#D7192C"/>
</linearGradient>
<linearGradient id="paint2_linear_730_18308" x1="360.106" y1="156.744" x2="424.08" y2="119.808" gradientUnits="userSpaceOnUse">
<stop stop-color="#F68400"/>
<stop offset="0.85" stop-color="#FCD100"/>
</linearGradient>
</defs>
</svg>
