<svg width="480" height="320" viewBox="0 0 480 320" fill="none" xmlns="http://www.w3.org/2000/svg">
<g clip-path="url(#clip0_730_18657)">
<mask id="mask0_730_18657" style="mask-type:luminance" maskUnits="userSpaceOnUse" x="-13" y="47" width="507" height="226">
<path d="M-12.3418 47.9473H493.83V272.545H-12.3418V47.9473Z" fill="white"/>
</mask>
<g mask="url(#mask0_730_18657)">
<path d="M157.571 201.974C145.987 193.868 135.449 187.255 135.449 187.255C117.469 175.678 102.018 180.323 90.7273 187.689C100.927 181.412 112.746 182.113 123.671 193.445C127.864 197.788 139.224 201.974 148.086 204.063C156.544 206.061 163.726 206.273 157.571 201.974ZM104.808 153.783C105.142 165.752 98.6268 175.64 83.3548 179.433C77.4915 180.896 68.1867 188.641 61.9461 195.272C55.9904 201.6 52.2127 207.71 59.0161 204.528C71.8252 198.55 82.8241 192.731 82.8241 192.731C101.839 182.946 105.542 167.246 104.808 153.783ZM127.131 182.931C116.598 177.235 111.29 166.647 115.644 151.524C117.31 145.718 115.253 133.785 112.632 125.064C110.131 116.743 106.728 110.414 106.081 117.901C104.853 131.982 104.393 144.414 104.393 144.414C103.357 165.774 115.103 176.833 127.131 182.931Z" fill="#EB2027"/>
<path d="M199.672 151.836V170.01C199.672 174.401 202.05 178.428 205.877 180.519C207.616 181.47 209.586 181.974 211.576 181.974H261.574V173.621H211.566C210.64 173.621 209.72 173.231 209.044 172.554C208.347 171.861 207.963 170.958 207.963 170.01V151.836C207.963 150.889 208.347 149.985 209.046 149.289C209.723 148.613 210.645 148.224 211.576 148.224H261.574V139.871H211.576C209.585 139.871 207.614 140.374 205.877 141.326C202.05 143.419 199.672 147.447 199.672 151.836ZM333.582 170.01C333.582 170.964 333.198 171.868 332.5 172.556C331.826 173.232 330.904 173.621 329.971 173.621H287.893C286.96 173.621 286.064 173.242 285.372 172.556C284.677 171.865 284.295 170.961 284.295 170.01V151.836C284.295 150.888 284.677 149.984 285.37 149.29C286.067 148.602 286.966 148.224 287.904 148.224H329.976C330.902 148.224 331.823 148.613 332.502 149.289C333.2 149.981 333.582 150.885 333.582 151.836V170.01ZM339.076 177.71C340.883 175.551 341.877 172.817 341.876 170.01V151.836C341.877 149.029 340.883 146.295 339.076 144.141C338.104 142.981 336.959 142.033 335.668 141.327C333.935 140.374 331.965 139.871 329.971 139.871H287.904C285.907 139.871 283.938 140.374 282.209 141.326C280.922 142.032 279.775 142.979 278.802 144.141C276.994 146.29 276.223 149.022 276.224 151.836V170.01C276.223 172.824 276.994 175.558 278.802 177.708L279.109 178.076L279.281 178.248C280.147 179.165 281.131 179.929 282.208 180.519C283.942 181.472 285.91 181.975 287.904 181.975H329.971C331.965 181.975 333.933 181.472 335.665 180.519C336.749 179.929 337.735 179.165 338.597 178.25L339.076 177.71ZM176.949 181.974H185.239V139.871H176.949V181.974ZM415.241 149.286C415.938 149.99 416.321 150.894 416.321 151.837V181.974H424.611V151.837C424.611 149.032 423.617 146.298 421.812 144.14L421.328 143.598C420.467 142.681 419.484 141.917 418.404 141.327C416.67 140.376 414.702 139.873 412.709 139.873L357.234 139.871V181.974H365.526V148.224L412.714 148.224C413.634 148.224 414.554 148.611 415.241 149.286Z" fill="black"/>
</g>
</g>
<defs>
<clipPath id="clip0_730_18657">
<rect width="480" height="320" fill="white"/>
</clipPath>
</defs>
</svg>
