<svg width="480" height="320" viewBox="0 0 480 320" fill="none" xmlns="http://www.w3.org/2000/svg">
<path fill-rule="evenodd" clip-rule="evenodd" d="M137.128 160.07C137.128 179.301 121.433 194.856 102.202 194.856C82.971 194.856 67.416 179.301 67.416 160.07C67.416 140.698 82.971 125.143 102.202 125.143C121.433 125.143 137.128 140.698 137.128 160.07Z" fill="#2A94C2"/>
<path fill-rule="evenodd" clip-rule="evenodd" d="M84.9499 144.234C87.6364 144.234 89.7573 146.355 89.7573 149.041C89.7573 151.869 87.6364 153.99 84.9499 153.99C82.2619 153.99 80 151.869 80 149.041C80 146.355 82.2626 144.234 84.9499 144.234ZM154.803 148.758C154.803 149.889 153.955 150.88 152.824 150.88C151.693 150.88 150.703 149.889 150.703 148.758C150.703 147.627 151.693 146.778 152.824 146.778C153.955 146.778 154.803 147.627 154.803 148.758ZM154.238 171.948H151.269V155.122H154.238V171.948ZM161.167 157.101H161.308C162.439 155.546 163.995 154.697 165.974 154.697C170.641 154.697 171.772 158.092 171.772 161.908V171.948H168.803V162.474C168.803 159.788 168.661 157.242 165.409 157.242C161.449 157.242 161.167 160.918 161.167 164.029V171.948H158.338V155.122H161.167V157.101ZM188.175 169.685C186.761 171.383 184.639 172.373 182.377 172.373C177.428 172.373 174.317 168.272 174.317 163.605C174.317 158.798 177.428 154.697 182.377 154.697C184.639 154.697 186.761 155.686 188.175 157.525V143.244H191.144V171.948H188.175V169.685ZM177.287 163.324C177.287 166.716 179.124 169.827 182.801 169.827C186.477 169.827 188.316 166.859 188.316 163.463C188.316 160.071 186.337 157.242 182.66 157.242C179.407 157.242 177.287 160.211 177.287 163.324ZM196.376 164.172C196.376 167.282 198.639 169.827 201.892 169.827C204.295 169.827 205.85 168.272 206.982 166.292L209.527 167.706C207.83 170.674 205.143 172.373 201.749 172.373C196.659 172.373 193.549 168.555 193.549 163.748C193.549 158.798 196.377 154.697 201.608 154.697C206.982 154.697 209.81 159.081 209.668 164.171L196.376 164.172ZM206.557 161.768C206.274 159.223 204.153 157.242 201.609 157.242C199.205 157.242 196.942 159.223 196.517 161.768H206.557ZM214.759 157.526H214.9C216.315 155.687 218.436 154.698 220.698 154.698C225.648 154.698 228.757 158.94 228.757 163.605C228.757 168.414 225.648 172.373 220.698 172.373C218.436 172.373 216.315 171.383 214.9 169.545H214.76V182.272H211.931V155.122H214.76L214.759 157.526ZM214.617 163.323C214.617 166.716 216.598 169.827 220.133 169.827C223.809 169.827 225.789 166.859 225.789 163.463C225.789 160.071 223.668 157.242 220.132 157.242C216.88 157.242 214.617 160.211 214.617 163.324V163.323ZM233.566 164.172C233.706 167.282 235.828 169.827 239.081 169.827C241.626 169.827 243.182 168.272 244.313 166.292L246.717 167.706C245.018 170.674 242.334 172.373 238.938 172.373C233.849 172.373 230.738 168.555 230.738 163.748C230.738 158.798 233.566 154.697 238.798 154.697C244.313 154.697 247.14 159.081 246.858 164.171L233.566 164.172ZM243.747 161.768C243.463 159.223 241.343 157.242 238.938 157.242C236.394 157.242 234.131 159.223 233.707 161.768H243.747ZM252.231 157.101C253.504 155.546 254.917 154.697 257.039 154.697C261.705 154.697 262.695 158.092 262.695 161.908V171.948H259.868V162.474C259.868 159.788 259.726 157.242 256.331 157.242C252.372 157.242 252.231 160.918 252.231 164.029V171.948H249.261V155.122H252.23L252.231 157.101ZM279.239 169.685C277.826 171.383 275.705 172.373 273.441 172.373C268.493 172.373 265.382 168.272 265.382 163.605C265.382 158.798 268.351 154.697 273.441 154.697C275.705 154.697 277.826 155.686 279.239 157.525V143.244H282.066V171.948H279.239V169.685ZM268.209 163.323C268.209 166.715 270.19 169.827 273.867 169.827C277.401 169.827 279.381 166.858 279.381 163.462C279.381 160.07 277.26 157.242 273.724 157.242C270.472 157.242 268.209 160.21 268.209 163.323ZM287.44 164.172C287.44 167.282 289.704 169.827 292.956 169.827C295.36 169.827 296.915 168.272 298.046 166.292L300.449 167.706C298.895 170.674 296.067 172.373 292.673 172.373C287.724 172.373 284.472 168.555 284.472 163.748C284.472 158.798 287.441 154.697 292.673 154.697C298.046 154.697 300.874 159.081 300.592 164.171L287.44 164.172ZM297.622 161.768C297.197 159.223 295.217 157.242 292.673 157.242C290.128 157.242 287.864 159.223 287.582 161.768H297.622ZM305.964 157.101H306.107C307.238 155.546 308.793 154.697 310.772 154.697C315.439 154.697 316.57 158.092 316.57 161.908V171.948H313.742V162.474C313.742 159.788 313.459 157.242 310.207 157.242C306.248 157.242 305.964 160.918 305.964 164.029V171.948H303.138V155.122H305.965L305.964 157.101ZM333.115 160.071H332.973C331.699 158.515 330.004 157.242 327.741 157.242C324.348 157.242 321.803 160.211 321.803 163.605C321.803 166.859 324.063 169.827 327.599 169.827C330.004 169.827 331.699 168.696 333.115 166.859V170.675C331.559 171.806 329.861 172.373 327.882 172.373C322.792 172.373 318.974 168.555 318.974 163.605C318.974 158.515 322.935 154.697 327.882 154.697C329.72 154.697 331.56 155.263 333.115 156.394V160.071ZM337.639 164.172C337.639 167.282 339.902 169.827 343.153 169.827C345.558 169.827 347.114 168.272 348.245 166.292L350.649 167.706C349.093 170.674 346.407 172.373 342.872 172.373C337.922 172.373 334.67 168.555 334.67 163.748C334.67 158.798 337.497 154.697 342.872 154.697C348.245 154.697 351.072 159.081 350.79 164.171L337.639 164.172ZM347.82 161.768C347.396 159.223 345.416 157.242 342.872 157.242C340.326 157.242 338.063 159.223 337.781 161.768H347.82ZM377.373 171.948H374.547V169.685H374.405C372.992 171.524 371.012 172.373 368.607 172.373C363.659 172.373 360.548 168.272 360.548 163.605C360.548 158.798 363.659 154.697 368.75 154.697C371.012 154.697 373.132 155.686 374.405 157.525H374.547V155.122H377.374L377.373 171.948ZM363.517 163.323C363.517 166.716 365.496 169.827 369.03 169.827C372.707 169.827 374.689 166.859 374.689 163.463C374.689 160.071 372.567 157.242 369.03 157.242C365.638 157.242 363.517 160.211 363.517 163.324V163.323ZM385.293 148.758C385.293 149.889 384.303 150.88 383.172 150.88C382.182 150.88 381.193 149.889 381.193 148.758C381.193 147.627 382.182 146.778 383.172 146.778C384.303 146.778 385.293 147.627 385.293 148.758ZM384.585 171.948H381.758V155.122H384.585V171.948ZM391.939 156.96C392.928 155.687 393.918 154.697 395.757 154.697C396.606 154.697 397.453 154.981 398.302 155.404L396.887 158.092C396.323 157.667 395.898 157.242 395.191 157.242C392.08 157.242 391.939 161.344 391.939 163.605V171.948H389.11V155.122H391.939V156.96Z" fill="#111183"/>
<path fill-rule="evenodd" clip-rule="evenodd" d="M93.2942 185.242H89.0525V158.232C87.7801 159.93 76.6094 159.93 76.6094 159.93V160.919H80.8511V185.24H78.1653C78.5892 185.665 79.0131 185.948 79.4377 186.372H93.2949L93.2942 185.242Z" fill="white"/>
</svg>
