<svg width="480" height="320" viewBox="0 0 480 320" fill="none" xmlns="http://www.w3.org/2000/svg">
<path d="M133.332 53.334H346.665V266.667H133.332V53.334Z" fill="#3A469D"/>
<path d="M339.915 219.409L340.185 223.054V223.122H339.443C339.375 223.122 339.375 223.122 339.375 223.054L339.24 221.569L338.767 223.122C338.767 223.19 338.7 223.19 338.7 223.19H338.228C338.16 223.19 338.16 223.19 338.16 223.122L337.687 221.569L337.552 223.054V223.122H336.877C336.81 223.122 336.81 223.122 336.81 223.054L337.08 219.409C337.08 219.342 337.08 219.342 337.147 219.342H337.823C337.89 219.342 337.89 219.342 337.89 219.409L338.497 221.839L339.105 219.409C339.105 219.342 339.172 219.342 339.172 219.342H339.848C339.915 219.342 339.915 219.342 339.915 219.409ZM333.501 219.273H336.405C336.472 219.273 336.472 219.273 336.472 219.342V220.016C336.472 220.084 336.472 220.084 336.405 220.084H335.324V223.054C335.324 223.122 335.324 223.122 335.257 223.122H334.582C334.514 223.122 334.514 223.122 334.514 223.054V220.084H333.367V219.342C333.434 219.342 333.501 219.273 333.501 219.273Z" fill="white"/>
<path d="M317.638 258.565C307.916 258.498 299.882 250.194 299.612 239.865C299.41 229.266 307.849 220.422 317.908 220.422C327.697 220.49 335.866 228.726 336.068 239.055C336.338 249.722 327.832 258.701 317.638 258.565ZM318.313 226.836C311.764 226.566 306.431 232.506 306.431 239.46C306.431 246.211 311.359 251.949 317.705 252.017C324.321 252.084 329.52 246.009 329.452 239.122C329.317 232.574 324.591 226.971 318.313 226.836ZM268.355 259.241C254.38 258.633 243.174 246.886 242.904 232.236C242.701 216.979 254.043 204.287 269.165 204.287C273.891 204.287 281.587 204.557 290.431 213.874L285.435 219.139C277.807 211.713 272.136 211.173 269.165 211.308C255.663 211.713 249.992 223.595 250.262 232.034C250.532 244.928 260.861 252.084 268.828 252.355C278.347 252.625 287.528 244.928 287.663 235.207H269.638V228.118H295.359C296.574 248.979 282.397 259.983 268.355 259.241ZM142.988 257.89V204.49H150.752V257.89H142.988ZM206.921 258.565C195.511 258.093 189.57 249.114 189.3 239.798C188.693 229.401 196.794 220.355 207.258 220.422C209.756 220.422 212.186 221.232 213.604 221.84L216.305 223.19V230.954L215.157 229.671C214.279 228.726 210.161 226.768 206.786 226.836C200.507 226.903 196.119 232.304 195.984 238.65C195.646 246.009 200.102 251.679 207.123 252.084C207.663 252.084 218.33 251.679 218.33 239.257V204.49H225.351V239.46C225.351 249.114 217.992 259.106 206.921 258.565ZM178.094 257.89V238.515C178.094 227.781 172.828 227.578 170.06 227.308C166.414 226.701 161.486 230.549 161.486 236.76V257.958H154.735V237.165C154.735 226.295 162.566 220.625 170.262 220.557C173.976 220.557 185.115 223.73 185.115 236.827V257.89H178.094ZM229.874 212.658C230.212 206.988 238.178 207.258 238.043 212.726C237.84 218.599 229.537 217.857 229.874 212.658ZM230.752 257.89V220.895H237.84V257.89H230.752Z" fill="white" stroke="white" stroke-width="1.68776" stroke-miterlimit="10"/>
<path d="M275.106 144.135C276.784 144.135 278.144 142.774 278.144 141.097C278.144 139.419 276.784 138.059 275.106 138.059C273.429 138.059 272.068 139.419 272.068 141.097C272.068 142.774 273.429 144.135 275.106 144.135Z" fill="white"/>
<path d="M275.106 136.033C276.784 136.033 278.144 134.673 278.144 132.995C278.144 131.317 276.784 129.957 275.106 129.957C273.429 129.957 272.068 131.317 272.068 132.995C272.068 134.673 273.429 136.033 275.106 136.033Z" fill="white"/>
<path d="M258.903 127.933C260.581 127.933 261.941 126.573 261.941 124.895C261.941 123.218 260.581 121.857 258.903 121.857C257.225 121.857 255.865 123.218 255.865 124.895C255.865 126.573 257.225 127.933 258.903 127.933Z" fill="white"/>
<path d="M267.005 127.933C268.683 127.933 270.043 126.573 270.043 124.895C270.043 123.218 268.683 121.857 267.005 121.857C265.327 121.857 263.967 123.218 263.967 124.895C263.967 126.573 265.327 127.933 267.005 127.933Z" fill="white"/>
<path d="M273.757 96.8787C275.435 96.8787 276.795 95.5185 276.795 93.8407C276.795 92.1629 275.435 90.8027 273.757 90.8027C272.079 90.8027 270.719 92.1629 270.719 93.8407C270.719 95.5185 272.079 96.8787 273.757 96.8787Z" fill="white"/>
<path d="M281.858 96.8787C283.536 96.8787 284.896 95.5185 284.896 93.8407C284.896 92.1629 283.536 90.8027 281.858 90.8027C280.18 90.8027 278.82 92.1629 278.82 93.8407C278.82 95.5185 280.18 96.8787 281.858 96.8787Z" fill="white"/>
<path d="M289.96 96.8787C291.638 96.8787 292.998 95.5185 292.998 93.8407C292.998 92.1629 291.638 90.8027 289.96 90.8027C288.282 90.8027 286.922 92.1629 286.922 93.8407C286.922 95.5185 288.282 96.8787 289.96 96.8787Z" fill="white"/>
<path d="M298.059 96.8787C299.737 96.8787 301.097 95.5185 301.097 93.8407C301.097 92.1629 299.737 90.8027 298.059 90.8027C296.382 90.8027 295.021 92.1629 295.021 93.8407C295.021 95.5185 296.382 96.8787 298.059 96.8787Z" fill="white"/>
<path d="M306.161 129.283C307.839 129.283 309.199 127.923 309.199 126.245C309.199 124.567 307.839 123.207 306.161 123.207C304.483 123.207 303.123 124.567 303.123 126.245C303.123 127.923 304.483 129.283 306.161 129.283Z" fill="white"/>
<path d="M306.161 120.978C307.839 120.978 309.199 119.618 309.199 117.94C309.199 116.262 307.839 114.902 306.161 114.902C304.483 114.902 303.123 116.262 303.123 117.94C303.123 119.618 304.483 120.978 306.161 120.978Z" fill="white"/>
<path d="M306.161 112.879C307.839 112.879 309.199 111.519 309.199 109.841C309.199 108.163 307.839 106.803 306.161 106.803C304.483 106.803 303.123 108.163 303.123 109.841C303.123 111.519 304.483 112.879 306.161 112.879Z" fill="white"/>
<path d="M306.161 104.777C307.839 104.777 309.199 103.417 309.199 101.739C309.199 100.061 307.839 98.7012 306.161 98.7012C304.483 98.7012 303.123 100.061 303.123 101.739C303.123 103.417 304.483 104.777 306.161 104.777Z" fill="white"/>
<path d="M275.106 127.933C276.784 127.933 278.144 126.573 278.144 124.895C278.144 123.218 276.784 121.857 275.106 121.857C273.429 121.857 272.068 123.218 272.068 124.895C272.068 126.573 273.429 127.933 275.106 127.933Z" fill="white"/>
<path d="M281.182 121.924C282.86 121.924 284.22 120.563 284.22 118.886C284.22 117.208 282.86 115.848 281.182 115.848C279.505 115.848 278.145 117.208 278.145 118.886C278.145 120.563 279.505 121.924 281.182 121.924Z" fill="white"/>
<path d="M286.583 116.592C288.261 116.592 289.621 115.231 289.621 113.554C289.621 111.876 288.261 110.516 286.583 110.516C284.905 110.516 283.545 111.876 283.545 113.554C283.545 115.231 284.905 116.592 286.583 116.592Z" fill="white"/>
<path d="M292.659 110.515C294.337 110.515 295.697 109.155 295.697 107.477C295.697 105.8 294.337 104.439 292.659 104.439C290.981 104.439 289.621 105.8 289.621 107.477C289.621 109.155 290.981 110.515 292.659 110.515Z" fill="white"/>
<path d="M298.059 104.709C299.737 104.709 301.097 103.349 301.097 101.671C301.097 99.993 299.737 98.6328 298.059 98.6328C296.382 98.6328 295.021 99.993 295.021 101.671C295.021 103.349 296.382 104.709 298.059 104.709Z" fill="white"/>
<path d="M306.161 96.8787C307.839 96.8787 309.199 95.5185 309.199 93.8407C309.199 92.1629 307.839 90.8027 306.161 90.8027C304.483 90.8027 303.123 92.1629 303.123 93.8407C303.123 95.5185 304.483 96.8787 306.161 96.8787Z" fill="white"/>
<path d="M311.561 91.2068C313.239 91.2068 314.599 89.8467 314.599 88.1688C314.599 86.491 313.239 85.1309 311.561 85.1309C309.884 85.1309 308.523 86.491 308.523 88.1688C308.523 89.8467 309.884 91.2068 311.561 91.2068Z" fill="white"/>
<path d="M317.638 85.4685C319.315 85.4685 320.676 84.1084 320.676 82.4305C320.676 80.7527 319.315 79.3926 317.638 79.3926C315.96 79.3926 314.6 80.7527 314.6 82.4305C314.6 84.1084 315.96 85.4685 317.638 85.4685Z" fill="white"/>
</svg>
