<svg width="480" height="320" viewBox="0 0 480 320" fill="none" xmlns="http://www.w3.org/2000/svg">
<path d="M296.688 189.658C296.703 189.323 296.783 189.227 297.007 189.147C297.438 189.019 298.859 188.924 299.785 188.924C300.792 188.924 304.289 188.924 304.289 192.229C304.289 193.842 303.203 194.753 302.133 195.216L304.816 199.735C304.912 199.895 304.96 199.974 304.96 200.07C304.96 200.279 304.784 200.341 304.609 200.326H302.517C302.15 200.326 302.054 200.278 301.894 199.959L299.962 196.078C299.914 195.982 299.818 195.807 299.642 195.807C299.403 195.807 299.403 196.046 299.403 196.142V199.927C299.387 200.23 299.307 200.326 298.972 200.326H297.072C296.815 200.326 296.703 200.278 296.688 199.975V189.658ZM299.402 194.561C299.993 194.593 301.573 194.641 301.573 192.581C301.573 190.617 300.488 190.521 299.801 190.521C299.721 190.521 299.593 190.521 299.402 190.537V194.561ZM307.386 196.35C307.434 196.589 307.482 196.909 307.641 197.212C307.993 197.898 308.647 198.314 309.43 198.314C310.18 198.314 310.739 197.93 311.058 197.611C311.378 197.26 311.474 197.164 311.697 197.164C311.952 197.164 312.192 197.372 312.192 197.771C312.192 198.267 311.601 200.55 309.03 200.55C306.204 200.55 305.246 198.314 305.246 196.127C305.246 192.964 307.242 191.814 308.983 191.814C311.537 191.814 312.16 194.178 312.16 194.96C312.16 195.646 311.761 195.71 311.506 195.758L307.386 196.35ZM309.701 194.753C309.589 193.332 308.759 193.315 308.567 193.315C307.625 193.315 307.242 194.209 307.226 195.119L309.701 194.753ZM319.457 198.618C319.457 198.969 319.441 199.368 319.202 199.672C318.931 200.039 318.02 200.55 316.296 200.55C315.624 200.55 312.878 200.534 312.878 198.219C312.878 196.127 315.002 195.647 317.078 195.184V194.354C317.078 193.859 317.062 193.172 316.311 193.172C315.72 193.172 315.529 193.635 315.433 193.907C315.257 194.354 315.082 194.817 314.347 194.817C313.644 194.817 313.262 194.322 313.262 193.795C313.262 192.901 314.315 191.83 316.742 191.83C317.317 191.83 318.052 191.894 318.578 192.214C319.441 192.756 319.457 193.651 319.457 194.193V198.618ZM317.078 196.286C316.2 196.557 315.321 196.829 315.321 197.994C315.321 198.872 315.864 199.208 316.327 199.208C317.062 199.208 317.078 198.585 317.078 198.218L317.078 196.286ZM323.863 193.411C323.081 193.411 322.666 194.497 322.666 195.472C322.666 196.669 323.273 198.25 324.47 198.25C325.237 198.25 325.556 197.755 325.795 197.388C325.971 197.132 326.099 196.94 326.354 196.94C326.579 196.94 326.882 197.1 326.882 197.659C326.882 198.793 326.02 200.55 323.863 200.55C321.452 200.55 320.542 198.235 320.542 196.239C320.542 194.642 321.197 191.83 324.199 191.83C326.067 191.83 326.865 193.076 326.865 193.954C326.865 194.625 326.386 195.104 325.812 195.104C325.541 195.104 325.094 194.993 324.87 194.434C324.694 193.971 324.454 193.411 323.863 193.411ZM332.215 194.96C332.199 194.465 332.183 193.587 331.289 193.587C330.858 193.587 330.57 193.842 330.426 193.954V199.959C330.426 200.262 330.314 200.326 330.074 200.326H328.238C327.903 200.326 327.855 200.214 327.855 199.943V188.429C327.855 188.173 327.967 188.109 328.206 188.109H330.042C330.314 188.109 330.426 188.141 330.426 188.429V192.63C330.793 192.342 331.463 191.83 332.581 191.83C333.044 191.83 333.732 191.91 334.29 192.581C334.769 193.204 334.785 193.89 334.801 194.337V199.959C334.801 200.198 334.753 200.326 334.434 200.326H332.598C332.31 200.326 332.215 200.294 332.215 199.975V194.96ZM337.515 191.175C336.78 191.175 336.19 190.792 336.19 190.073C336.19 189.451 336.621 188.94 337.499 188.94C338.361 188.94 338.728 189.467 338.744 190.057C338.744 190.824 338.153 191.175 337.515 191.175ZM338.792 199.927C338.792 200.262 338.664 200.326 338.393 200.326H336.509C336.206 200.326 336.19 200.182 336.19 199.943V192.405C336.19 192.182 336.222 192.054 336.525 192.054H338.409C338.712 192.054 338.792 192.118 338.792 192.421V199.927ZM347.399 199.943C347.399 200.246 347.319 200.342 346.984 200.342H345.211C344.956 200.342 344.86 200.246 344.86 199.959V194.497C344.86 193.986 344.86 193.73 344.621 193.475C344.413 193.283 344.094 193.188 343.806 193.188C342.784 193.188 342.769 194.018 342.769 194.497V199.991C342.769 200.294 342.624 200.326 342.353 200.342H340.58C340.293 200.342 340.229 200.23 340.213 199.943V193.571C340.213 192.996 340.213 192.469 341.762 192.086C342.448 191.91 343.295 191.83 343.933 191.83C345.69 191.83 346.28 192.198 346.49 192.341C347.384 192.9 347.4 193.651 347.4 194.114L347.399 199.943ZM354.935 193.475C355.063 193.778 355.254 194.193 355.254 194.8C355.254 196.75 353.546 197.563 352.093 197.563C351.798 197.563 351.504 197.537 351.214 197.483C351.054 197.723 350.943 197.898 350.943 198.074C350.943 198.521 351.406 198.537 352.428 198.585L353.626 198.649C354.424 198.698 356.612 198.84 356.612 200.821C356.612 201.939 355.526 204.223 351.661 204.223C351.214 204.223 348.42 204.223 348.42 202.339C348.42 201.636 348.915 201.03 349.761 200.566C349.426 200.422 348.755 200.151 348.755 199.272C348.755 198.474 349.538 197.724 350.24 197.197C348.802 196.494 348.755 195.056 348.755 194.674C348.755 193.251 349.665 191.83 352.012 191.83C352.827 191.83 353.29 191.99 353.626 192.102C353.993 192.246 354.201 192.309 354.552 192.309C354.759 192.309 354.935 192.277 355.127 192.246C355.207 192.23 355.989 192.07 356.021 192.07C356.165 192.07 356.196 192.23 356.212 192.277C356.276 192.485 356.356 192.836 356.356 192.9C356.356 193.012 356.308 193.044 356.117 193.108L354.935 193.475ZM350.464 201.651C350.464 202.162 350.959 202.705 352.317 202.705C353.354 202.705 354.312 202.291 354.312 201.651C354.312 201.093 353.706 201.029 353.291 200.981C352.955 200.949 351.263 200.885 350.879 200.853C350.671 201.093 350.464 201.332 350.464 201.651H350.464ZM351.886 193.14C351.406 193.14 350.991 193.555 350.991 194.289C350.991 195.009 351.374 196.046 352.125 196.046C352.731 196.046 353.003 195.519 353.003 194.928C353.003 194.736 352.987 194.561 352.955 194.369C352.843 193.81 352.508 193.14 351.886 193.14ZM367.197 195.424H364.339V199.974C364.339 200.262 364.227 200.326 363.955 200.326H361.975C361.655 200.326 361.56 200.246 361.56 199.959V189.419C361.56 189.051 361.799 189.051 361.943 189.051H363.939C364.195 189.051 364.338 189.099 364.338 189.387V193.619H367.197V189.419C367.197 189.179 367.245 189.051 367.549 189.051H369.592C369.896 189.051 369.976 189.131 369.976 189.435V199.975C369.976 200.278 369.864 200.326 369.576 200.326H367.581C367.261 200.326 367.197 200.23 367.197 199.927V195.424ZM372.785 191.175C372.05 191.175 371.459 190.792 371.459 190.073C371.459 189.451 371.89 188.94 372.768 188.94C373.63 188.94 373.998 189.467 374.014 190.057C374.014 190.824 373.424 191.175 372.785 191.175ZM374.062 199.927C374.062 200.262 373.935 200.326 373.663 200.326H371.779C371.476 200.326 371.459 200.182 371.459 199.943V192.405C371.459 192.182 371.491 192.054 371.794 192.054H373.679C373.982 192.054 374.062 192.118 374.062 192.421V199.927ZM381.551 193.475C381.678 193.778 381.87 194.193 381.87 194.8C381.87 196.75 380.161 197.563 378.709 197.563C378.389 197.563 378.086 197.531 377.83 197.483C377.671 197.723 377.559 197.898 377.559 198.074C377.559 198.521 378.022 198.537 379.044 198.585L380.241 198.649C381.04 198.698 383.228 198.84 383.228 200.821C383.228 201.939 382.142 204.223 378.277 204.223C377.83 204.223 375.036 204.223 375.036 202.339C375.036 201.636 375.531 201.03 376.377 200.566C376.041 200.422 375.371 200.151 375.371 199.272C375.371 198.474 376.153 197.724 376.856 197.197C375.419 196.494 375.371 195.056 375.371 194.674C375.371 193.251 376.281 191.83 378.629 191.83C379.443 191.83 379.906 191.99 380.241 192.102C380.609 192.246 380.816 192.309 381.168 192.309C381.376 192.309 381.551 192.277 381.743 192.246C381.823 192.23 382.605 192.07 382.637 192.07C382.781 192.07 382.813 192.23 382.829 192.277C382.893 192.485 382.972 192.836 382.972 192.9C382.972 193.012 382.925 193.044 382.733 193.108L381.551 193.475ZM377.08 201.651C377.08 202.162 377.575 202.705 378.932 202.705C379.97 202.705 380.928 202.291 380.928 201.651C380.928 201.093 380.321 201.029 379.906 200.981C379.571 200.949 377.878 200.885 377.495 200.853C377.288 201.093 377.08 201.332 377.08 201.651ZM378.501 193.14C378.022 193.14 377.607 193.555 377.607 194.289C377.607 195.009 377.99 196.046 378.74 196.046C379.347 196.046 379.619 195.519 379.619 194.928C379.619 194.736 379.603 194.561 379.571 194.369C379.459 193.81 379.124 193.14 378.501 193.14ZM388.113 194.96C388.097 194.465 388.081 193.587 387.187 193.587C386.756 193.587 386.468 193.842 386.325 193.954V199.959C386.325 200.262 386.213 200.326 385.973 200.326H384.136C383.801 200.326 383.753 200.214 383.753 199.943V188.429C383.753 188.173 383.865 188.109 384.104 188.109H385.941C386.212 188.109 386.325 188.141 386.325 188.429V192.63C386.692 192.342 387.362 191.83 388.48 191.83C388.943 191.83 389.63 191.91 390.188 192.581C390.668 193.204 390.683 193.89 390.7 194.337V199.959C390.7 200.198 390.652 200.326 390.333 200.326H388.497C388.209 200.326 388.114 200.294 388.114 199.975L388.113 194.96ZM393.877 196.35C393.925 196.589 393.973 196.909 394.132 197.212C394.483 197.898 395.138 198.314 395.92 198.314C396.671 198.314 397.23 197.93 397.549 197.611C397.868 197.26 397.965 197.164 398.188 197.164C398.443 197.164 398.683 197.372 398.683 197.771C398.683 198.267 398.092 200.55 395.521 200.55C392.695 200.55 391.737 198.314 391.737 196.127C391.737 192.964 393.733 191.814 395.473 191.814C398.028 191.814 398.651 194.178 398.651 194.96C398.651 195.646 398.252 195.71 397.997 195.758L393.877 196.35ZM396.192 194.753C396.08 193.332 395.25 193.315 395.058 193.315C394.116 193.315 393.733 194.209 393.717 195.119L396.192 194.753ZM402.323 199.975C402.323 200.262 402.227 200.326 401.972 200.326H400.135C399.847 200.326 399.768 200.262 399.768 199.959V193.331C399.768 192.804 399.863 192.613 400.231 192.421C401.141 191.942 402.626 191.83 403.377 191.83C403.808 191.83 405.484 191.83 405.484 193.299C405.484 193.874 405.133 194.337 404.542 194.337C403.984 194.337 403.824 193.97 403.648 193.571C403.521 193.299 403.377 193.076 402.994 193.076C402.339 193.076 402.323 193.507 402.323 193.89V199.975Z" fill="#008EC8"/>
<path d="M199.749 181.611C199.749 183.296 198.951 183.56 197.799 183.56H189.559C188.318 183.472 187.609 183.206 187.609 181.611V122.864C187.697 121.623 187.875 121.003 189.469 121.003H197.888C199.217 121.003 199.749 121.269 199.749 122.863V181.611ZM238.913 181.7C238.913 183.295 238.381 183.56 236.964 183.56H229.874C228.103 183.56 227.926 182.852 227.926 181.522V151.572C227.926 148.028 227.838 142.535 220.305 142.535C213.217 142.535 213.217 147.94 213.217 149.978V181.434C213.217 183.206 212.773 183.56 211.091 183.56H204.09C202.672 183.56 202.23 183.206 202.23 181.7V146.699C202.23 143.155 202.406 141.117 206.394 139.256C211.091 137.129 216.229 136.51 221.369 136.51C230.23 136.51 233.33 138.724 234.837 139.966C238.825 143.243 238.913 147.408 238.913 150.509V181.7ZM263.728 157.155C267.803 159.105 274.183 162.295 274.183 170.801C274.183 175.763 271.436 184.713 258.234 184.713C246.005 184.713 241.753 177.536 241.753 173.991C241.753 171.333 243.702 169.206 246.271 169.206C248.753 169.206 249.993 170.978 251.233 172.662C253.36 175.674 254.955 177.978 258.499 177.978C261.689 177.978 264.081 175.763 264.081 172.485C264.081 169.472 262.133 167.788 261.247 166.991C260.006 166.104 254.601 163.535 252.386 162.472C249.727 161.231 242.638 157.775 242.638 149.534C242.638 143.243 246.803 136.51 258.056 136.51C268.778 136.51 272.766 142.446 272.766 145.991C272.766 148.471 270.994 150.333 268.513 150.333C265.765 150.333 264.613 148.383 263.638 146.699C262.752 145.016 261.246 142.357 257.613 142.357C253.981 142.357 252.296 145.369 252.296 147.674C252.296 152.104 256.196 153.788 259.298 155.117L263.728 157.155ZM284.198 160.344C285.705 172.573 292.172 174.966 296.426 174.966C301.122 174.966 304.667 172.13 306.971 169.116C308.388 167.079 308.831 166.547 309.983 166.547C311.134 166.547 312.287 167.521 312.287 169.295C312.287 171.775 308.653 184.713 294.742 184.713C283.046 184.713 274.895 176.206 274.895 160.522C274.895 142.889 285.262 136.509 294.742 136.509C308.565 136.509 311.844 148.915 311.844 153.167C311.844 156.269 309.805 156.536 308.742 156.712L284.198 160.344ZM300.768 152.104C300.413 146.433 296.958 143.155 293.06 143.155C286.945 143.155 284.198 148.738 283.755 154.851L300.768 152.104ZM313.262 117.458C313.262 116.04 313.705 115.775 315.3 115.775H322.302C323.807 115.775 324.25 115.863 324.25 117.458V181.7C324.25 183.295 323.719 183.56 322.302 183.56H315.3C313.794 183.56 313.262 183.472 313.262 181.7V117.458ZM361.437 163.978H343.449L337.158 181.877C336.626 183.295 336.36 183.561 334.854 183.561H329.005C328.386 183.561 327.322 183.561 327.322 182.409C327.322 182.231 327.765 180.903 327.854 180.725L349.474 122.687C349.917 121.447 350.183 121.004 351.601 121.004H356.74C358.069 121.004 358.335 121.181 358.867 122.332L380.487 181.169C380.753 181.7 380.842 182.055 380.842 182.409C380.842 183.473 379.955 183.561 379.335 183.561H370.386C368.879 183.561 368.526 183.473 367.905 181.966L361.437 163.978ZM359.221 157.333L352.399 136.864L345.664 157.333H359.221ZM387.401 135.278C383.68 135.278 381.376 133.062 381.376 129.961C381.376 126.86 383.502 124.378 387.401 124.378C391.211 124.378 393.072 126.86 393.161 129.695C393.248 132.974 390.857 135.278 387.401 135.278H387.401ZM392.983 181.611C392.983 183.029 392.806 183.561 391.034 183.561H383.325C381.907 183.561 381.819 183.118 381.819 181.701V139.522C381.819 138.28 381.996 137.661 383.502 137.661H391.034C392.718 137.661 392.895 138.105 392.983 139.61V181.611ZM406.273 181.7C406.184 183.118 405.918 183.561 404.411 183.561H397.146C395.639 183.561 395.196 183.206 395.196 181.701V144.661C395.196 141.913 395.551 140.762 397.766 139.61C400.778 137.927 407.158 136.51 413.982 136.51C419.475 136.51 424.615 137.927 424.615 143.155C424.615 145.813 422.754 147.939 419.918 147.939C417.526 147.939 416.728 146.61 415.399 144.572C414.602 143.509 413.626 142.091 410.969 142.091C406.361 142.091 406.272 145.193 406.272 147.408L406.273 181.7Z" fill="#004C81"/>
<path d="M63.6016 172.872C88.3992 176.756 98.7064 166.897 114.093 154.498C129.656 141.956 141.13 133.883 169.663 142.697C145.911 137.319 130.241 149.98 119.022 159.428C110.507 166.598 91.9837 181.536 63.6016 172.872V172.872Z" fill="#CF152D"/>
<path d="M73.7793 176.066C98.577 179.949 108.884 170.09 124.27 157.692C139.834 145.149 151.308 137.076 179.84 145.891C156.089 140.512 140.419 153.174 129.2 162.621C120.685 169.791 102.161 184.729 73.7793 176.065V176.066Z" fill="#008EC8"/>
<path d="M55.3848 170.034C77.0474 173.749 90.1456 163.106 105.577 150.763C120.257 139.022 129.438 131.438 157.724 139.005C133.828 134.931 121.497 145.94 110.278 155.388C101.763 162.559 83.1346 178.439 55.3848 170.034Z" fill="#FAD665"/>
</svg>
