<svg width="480" height="320" viewBox="0 0 480 320" fill="none" xmlns="http://www.w3.org/2000/svg">
<path d="M184.783 141.027H197.577V191.625H184.783V141.027ZM204.112 155.948H215.625V160.709H215.767C218.185 157.085 221.808 155.094 225.927 155.094C230.546 155.094 233.532 158.223 233.532 163.126V191.62H222.019V166.397C222.019 164.475 221.382 163.195 219.249 163.195C218.043 163.195 217.048 163.695 216.263 164.691L215.625 165.544V191.62H204.112V155.948ZM240.569 164.048H235.876V155.948H240.569V143.155H252.082V155.948H258.402V164.048H252.082V179.185C252.082 181.67 252.082 183.519 255.774 183.519C256.701 183.519 257.623 183.377 258.402 183.167V191.551C256.132 192.188 252.788 192.473 250.302 192.473C244.192 192.473 240.569 189.845 240.569 183.451V164.048ZM280.149 169.52C280.08 166.181 279.796 162.341 275.814 162.341C272.543 162.341 271.553 166.181 271.553 169.52H280.149ZM271.553 176.341C271.553 179.469 272.19 184.799 276.736 184.799C279.512 184.799 281.855 182.808 282.566 179.896L290.308 182.74C289.813 184.373 286.258 192.473 276.03 192.473C265.012 192.473 260.04 183.593 260.04 173.713C260.04 163.621 265.296 155.094 275.882 155.094C286.969 155.094 290.809 164.617 290.809 173.929V176.341H271.553ZM294.927 155.948H306.229V161.352H306.371C307.794 156.875 312.908 155.094 317.458 155.094V166.75C315.894 166.181 314.398 165.754 312.765 165.754C308.931 165.754 307.72 166.75 306.44 168.525V191.62H294.926L294.927 155.948Z" fill="#00386A"/>
<path d="M334.012 175.561C335.861 179.827 337.851 182.808 342.755 182.808C345.667 182.808 348.011 180.959 348.011 178.547C348.011 168.24 325.559 173.928 325.559 154.383C325.559 146.784 333.158 140.031 341.902 140.031C350.428 140.031 356.828 144.861 359.029 151.186L348.864 155.453C347.516 152.466 345.599 149.838 341.902 149.838C339.7 149.838 337.499 151.186 337.499 154.099C337.499 161.277 360.377 159.645 360.377 175.492C360.377 185.863 351.85 192.614 341.902 192.614C333.306 192.614 326.412 188.07 323.426 179.827L334.012 175.561ZM363.932 141.027H375.446V167.102H375.588L384.609 155.947H395.127L386.174 166.181L395.554 191.619H383.614L378.284 175.208H378.142L375.446 178.405V191.619H363.932V141.027Z" fill="#F7BE00"/>
<path d="M406.356 155.947L410.549 176.625H410.69L415.594 155.947H424.615L412.607 192.757C410.19 200.152 404.934 202.279 398.113 202.279C396.976 202.279 395.838 202.137 394.7 201.995V193.826C395.696 194.036 396.76 194.179 397.755 194.179C401.237 194.179 404.223 193.183 404.223 189.918C404.223 189.065 404.081 187.853 403.728 186.716L394.49 155.947H406.356Z" fill="#F7BE00"/>
<path fill-rule="evenodd" clip-rule="evenodd" d="M139.618 155.019C145.283 149.9 151.131 144.968 157.07 140.036C162.917 135.195 169.038 130.719 175.523 126.691C182.65 122.22 190.142 118.562 198.089 115.639L198.276 115.912C196.08 117.652 193.708 119.297 191.421 120.94C187.223 124.046 183.111 127.243 178.907 130.349C170.864 136.378 163.099 142.687 154.51 150.087C144.549 158.944 141.176 162.693 125.914 179.229C119.697 186.538 115.044 195.043 112.661 204.36C109.743 198.786 106.546 193.393 102.985 188.182C101.705 186.174 100.146 184.257 98.781 182.249C95.7661 178.131 92.4783 174.388 89.0939 170.549C79.9584 160.321 69.0823 151.817 55.3848 145.15C56.841 144.968 58.9398 145.059 62.512 145.241C67.3471 146.066 72.0061 147.983 76.0276 150.724C78.4908 152.369 80.965 154.103 83.2463 156.021C88.1737 159.95 92.7301 164.324 96.8583 169.086C99.7821 172.471 103.804 174.752 108.189 174.934C111.051 175.033 113.887 174.371 116.409 173.017C120.158 171.1 127.007 166.26 131.757 162.056L139.618 155.019Z" fill="#00386A"/>
<path fill-rule="evenodd" clip-rule="evenodd" d="M119.06 153.195C119.06 158.769 114.589 163.155 109.009 163.155C103.531 163.155 99.0488 158.769 99.0488 153.195C99.0488 147.711 103.531 143.229 109.009 143.229C114.589 143.229 119.06 147.711 119.06 153.195Z" fill="#F7BE00"/>
</svg>
