<svg width="480" height="320" viewBox="0 0 480 320" fill="none" xmlns="http://www.w3.org/2000/svg">
<path d="M108.62 193.871L98.9936 158.715L98.8262 158.334H108.518C110.526 158.334 111.661 159.552 111.661 159.552C111.661 159.552 134.93 184.589 141.189 189.536C146.23 193.517 149.317 193.796 151.689 193.796H155.595L126.532 125.867H108.415L79.5459 193.871H108.62Z" fill="black"/>
<mask id="mask0_730_18290" style="mask-type:luminance" maskUnits="userSpaceOnUse" x="55" y="125" width="21" height="70">
<path d="M55.3848 125.217H75.1665V194.262H55.3848V125.217Z" fill="white"/>
</mask>
<g mask="url(#mask0_730_18290)">
<path d="M55.3848 193.853H74.283V125.867H55.3848V193.853Z" fill="black"/>
</g>
<path d="M151.252 160.194V159.999C151.252 140.283 166.718 124.816 187.691 124.816C199.576 124.816 207.993 128.49 215.145 134.675L204.124 147.919C199.288 143.854 194.461 141.538 187.793 141.538C178.027 141.538 170.485 149.76 170.485 160.102V160.288C170.485 171.216 178.121 179.047 188.853 179.047C193.391 179.047 196.87 178.079 199.678 176.238V168.026H186.342V154.298H217.461V184.747C210.309 190.644 200.358 195.183 188.081 195.183C167.007 195.183 151.253 180.683 151.253 160.195" fill="black"/>
<path d="M230.924 144.264H232.821V127.561H230.924V144.264Z" fill="black"/>
<path d="M236.795 144.264H238.618V130.537L249.406 144.264H250.932V127.561H249.071V140.953L238.544 127.561H236.795V144.264Z" fill="black"/>
<path d="M259.602 144.264H261.536V129.272H267.153V127.561H253.984V129.272H259.602V144.264Z" fill="black"/>
<path d="M270.213 144.264H282.415V142.552H272.073V136.675H281.224V134.963H272.073V129.272H282.266V127.561H270.213V144.264Z" fill="black"/>
<path d="M285.764 144.264H287.624V137.754H292.423L297.259 144.264H299.565L294.432 137.419C297.073 136.972 298.97 135.336 298.97 132.545V132.508C298.97 131.206 298.487 130.016 297.705 129.235C296.627 128.156 294.99 127.561 292.944 127.561H285.764V144.264ZM287.624 136.08V129.272H292.794C295.473 129.272 297.073 130.537 297.073 132.583V132.62C297.073 134.777 295.287 136.08 292.757 136.08H287.624Z" fill="black"/>
<path d="M302.58 144.264H304.403V130.537L315.192 144.264H316.717V127.561H314.857V140.953L304.329 127.561H302.58V144.264Z" fill="black"/>
<path d="M319.045 144.264H320.979L322.951 139.837H332.065L334.037 144.264H336.046L328.419 127.412H326.671L319.045 144.264ZM323.695 138.126L327.527 129.607L331.321 138.126L323.695 138.126Z" fill="black"/>
<path d="M341.153 144.264H343.087V129.272H348.704V127.561H335.535V129.272H341.153V144.264Z" fill="black"/>
<path d="M351.316 144.264H353.214V127.561H351.316V144.264Z" fill="black"/>
<path d="M364.901 144.56C369.997 144.56 373.457 140.505 373.457 135.892V135.855C373.457 131.242 370.035 127.262 364.938 127.262C359.879 127.262 356.419 131.279 356.419 135.892V135.967C356.419 140.543 359.804 144.56 364.901 144.56ZM364.938 142.812C361.144 142.812 358.353 139.687 358.353 135.892V135.855C358.353 132.061 361.069 129.01 364.901 129.01C368.733 129.01 371.485 132.098 371.485 135.892V135.967C371.485 139.761 368.77 142.812 364.938 142.812Z" fill="black"/>
<path d="M376.536 144.264H378.359V130.537L389.148 144.264H390.673V127.561H388.813V140.953L378.285 127.561H376.536V144.264Z" fill="black"/>
<path d="M393.479 144.264H395.413L397.385 139.837H406.499L408.471 144.264H410.48L402.853 127.412H401.104L393.479 144.264ZM398.129 138.126L401.96 129.607L405.755 138.126L398.129 138.126Z" fill="black"/>
<path d="M413.347 144.264H424.619V142.515H415.207V127.561H413.347V144.264Z" fill="black"/>
<path d="M433.862 144.488C437.173 144.488 439.554 142.628 439.554 139.763V139.726C439.554 137.159 437.842 135.82 434.122 135.002C430.439 134.22 429.584 133.328 429.584 131.765V131.69C429.584 130.202 430.96 129.012 433.118 129.012C434.866 129.012 436.392 129.57 437.954 130.835L439.07 129.347C437.359 128.008 435.61 127.301 433.192 127.301C429.993 127.301 427.686 129.235 427.686 131.877V131.914C427.686 134.667 429.472 135.894 433.304 136.75C436.801 137.494 437.656 138.349 437.656 139.912V139.949C437.656 141.623 436.168 142.814 433.936 142.814C431.592 142.814 429.918 142.032 428.17 140.433L427.017 141.847C429.026 143.632 431.183 144.488 433.862 144.488H433.862Z" fill="black"/>
<path d="M229.324 168.151H231.259L233.23 163.724H242.345L244.316 168.151H246.325L238.699 151.299H236.95L229.324 168.151ZM233.974 162.013L237.806 153.494L241.601 162.013L233.974 162.013Z" fill="black"/>
<path d="M249.795 168.151H251.692V151.447H249.795V168.151Z" fill="black"/>
<path d="M256.119 168.151H257.979V161.64H262.778L267.614 168.151H269.921L264.787 161.306C267.428 160.859 269.326 159.222 269.326 156.432V156.395C269.326 155.093 268.842 153.902 268.061 153.121C266.982 152.042 265.345 151.447 263.299 151.447H256.119V168.151ZM257.979 159.966V153.158H263.15C265.828 153.158 267.428 154.423 267.428 156.469V156.507C267.428 158.664 265.642 159.966 263.113 159.966H257.979Z" fill="black"/>
<path d="M272.937 168.151H284.209V166.402H274.797V151.447H272.937V168.151Z" fill="black"/>
<path d="M287.369 168.151H289.266V151.447H287.369V168.151Z" fill="black"/>
<path d="M293.217 168.151H295.04V154.423L305.828 168.151H307.354V151.447H305.493V164.84L294.966 151.447H293.217V168.151Z" fill="black"/>
<path d="M311.132 168.151H323.334V166.439H312.992V160.562H322.143V158.85H312.992V153.158H323.185V151.447H311.132V168.151Z" fill="black"/>
<path d="M332.866 168.375C336.177 168.375 338.558 166.514 338.558 163.65V163.613C338.558 161.046 336.846 159.707 333.126 158.888C329.443 158.107 328.588 157.214 328.588 155.652V155.577C328.588 154.089 329.964 152.899 332.122 152.899C333.87 152.899 335.395 153.457 336.958 154.722L338.074 153.234C336.363 151.894 334.614 151.188 332.196 151.188C328.997 151.188 326.69 153.122 326.69 155.763V155.8C326.69 158.553 328.476 159.781 332.308 160.637C335.804 161.381 336.66 162.236 336.66 163.799V163.836C336.66 165.51 335.172 166.7 332.94 166.7C330.596 166.7 328.922 165.919 327.174 164.319L326.021 165.733C328.029 167.519 330.187 168.375 332.866 168.375H332.866Z" fill="black"/>
<path d="M238.513 192.336C241.34 192.336 243.684 191.145 245.247 189.769V183.11H238.327V184.784H243.424V188.95C242.271 189.88 240.485 190.624 238.588 190.624C234.533 190.624 231.966 187.686 231.966 183.668V183.631C231.966 179.911 234.644 176.786 238.327 176.786C240.708 176.786 242.122 177.567 243.424 178.683L244.651 177.269C242.977 175.855 241.229 175.037 238.401 175.037C233.379 175.037 230.031 179.092 230.031 183.668V183.742C230.031 188.504 233.268 192.336 238.513 192.336Z" fill="black"/>
<path d="M249.049 192.037H250.909V185.527H255.708L260.544 192.037H262.85L257.717 185.192C260.358 184.746 262.256 183.109 262.256 180.319V180.282C262.256 178.98 261.772 177.789 260.991 177.008C259.912 175.929 258.275 175.334 256.229 175.334H249.049V192.037ZM250.909 183.853V177.045H256.08C258.758 177.045 260.358 178.31 260.358 180.356V180.393C260.358 182.551 258.572 183.853 256.042 183.853H250.909Z" fill="black"/>
<path d="M273.125 192.336C278.222 192.336 281.682 188.281 281.682 183.668V183.631C281.682 179.018 278.259 175.037 273.163 175.037C268.103 175.037 264.644 179.055 264.644 183.668V183.742C264.644 188.318 268.029 192.336 273.125 192.336ZM273.163 190.587C269.368 190.587 266.578 187.462 266.578 183.668V183.631C266.578 179.836 269.294 176.786 273.125 176.786C276.957 176.786 279.71 179.873 279.71 183.668V183.742C279.71 187.537 276.994 190.587 273.163 190.587Z" fill="black"/>
<path d="M291.42 192.298C295.623 192.298 298.413 189.768 298.413 184.895V175.334H296.516V185.043C296.516 188.689 294.544 190.549 291.494 190.549C288.295 190.549 286.36 188.54 286.36 184.932V175.334H284.463V185.043C284.463 189.768 287.29 192.298 291.42 192.298Z" fill="black"/>
<path d="M301.959 192.039H303.819V186.124H307.874C311.445 186.124 314.459 184.264 314.459 180.656V180.618C314.459 177.345 311.966 175.336 308.209 175.336H301.959V192.039ZM303.819 184.413V177.047H308.06C310.738 177.047 312.561 178.312 312.561 180.693V180.73C312.561 182.925 310.738 184.413 307.948 184.413L303.819 184.413Z" fill="black"/>
</svg>
