<svg width="480" height="320" viewBox="0 0 480 320" fill="none" xmlns="http://www.w3.org/2000/svg">
<path d="M55.3848 160.012V111.717H80.0688V208.306H55.3848V160.012ZM86.2398 160.012V111.717H112.509L136.132 139.363L159.755 167.008V111.717H186.049V208.306L172.03 208.303L158.011 208.3L135.004 181.45L111.997 154.601V208.306H86.2398V160.012ZM193.83 160.012V111.717H217.17L217.238 141.599L217.306 171.482L242.943 141.666L268.579 111.851L284.889 111.782L301.198 111.713L301.108 111.934L301.017 112.156L261.087 160.232L221.157 208.306H193.83V160.012ZM231.504 206.764L232.725 205.221L270.899 158.536L309.075 111.851L322.553 111.782L336.031 111.712V208.307H311.615V186.842L295.048 186.862L278.48 186.882L269.626 197.592L260.772 208.302L245.528 208.304L230.284 208.306L231.504 206.764H231.504ZM311.884 156.604V148.367L311.652 148.622L311.421 148.877L309.565 151.023L307.709 153.17L302.674 159.005L297.639 164.841H311.884V156.604ZM342.202 160.001V111.695L369.234 111.787L396.265 111.879L398.898 112.478L401.531 113.076L403.692 113.865L405.854 114.654L407.633 115.629L409.412 116.603L411.175 117.906L412.938 119.209L415.218 121.575L417.499 123.94L418.852 125.945L420.204 127.949L421.147 129.828L422.089 131.706L422.79 133.655L423.49 135.605L424.053 138.351L424.616 141.096V148.609L424.175 151.158L423.734 153.707L422.8 156.51L421.866 159.315L420.506 161.916L419.146 164.517L417.463 166.759L415.781 169L413.525 171.165L411.269 173.329L409.567 174.485L407.865 175.641L405.685 176.663L403.506 177.684L401.226 178.343L398.947 179.002L396.388 179.437L393.828 179.872L389.815 180.132L385.8 180.392L376.477 180.397L367.154 180.403V208.306H342.202V160.001ZM391.034 155.233L392.777 154.643L394.03 153.719L395.282 152.794L396.15 151.533L397.018 150.272L397.514 148.679L398.009 147.085V144.279L397.613 142.945L397.217 141.611L396.299 140.32L395.382 139.029L394.09 138.111L392.798 137.193L391.044 136.61L389.29 136.028L378.222 135.925L367.154 135.823V156.029L378.222 155.926L389.29 155.824L391.034 155.233Z" fill="#007034"/>
</svg>
