<svg width="480" height="320" viewBox="0 0 480 320" fill="none" xmlns="http://www.w3.org/2000/svg">
<path d="M190.659 57.6565C205.345 55.3632 220.195 54.3554 235.039 53.8597C238.46 53.3149 241.93 53.4184 245.384 53.3585C252.46 53.4293 259.58 53.0589 266.623 53.8706C311.646 55.2161 356.647 59.9608 400.732 69.3248C393.803 69.1614 386.901 68.3443 379.972 68.1536C349.968 66.7645 319.784 68.3661 290.178 73.5465C286.065 74.2057 282.083 75.4695 278.074 76.559C266.792 79.811 255.543 83.4445 245.051 88.772C239.904 91.5175 234.691 94.617 231.095 99.3181C230.038 100.843 228.677 102.668 229.298 104.629C230.191 106.792 232.533 107.783 234.571 108.579C241.015 110.823 247.884 111.379 254.633 112.016C275.965 114.146 297.281 116.396 318.569 118.934C333.326 120.781 348.116 122.513 362.726 125.351C365.967 126.13 369.448 126.528 372.292 128.418C364.829 129.731 357.24 130.281 349.718 131.191C315.737 134.786 281.652 137.281 247.563 139.509C244.272 139.852 240.813 140.299 237.97 142.124C235.992 143.36 234.827 146.029 235.813 148.252C236.744 150.306 238.7 151.657 240.623 152.713C245.444 155.274 250.793 156.587 256.082 157.812C267.277 160.225 278.673 161.544 290.058 162.649C305.147 164.088 320.291 164.888 335.429 165.607C333.926 167.236 331.719 167.852 329.682 168.522C323.57 170.298 317.246 171.175 310.954 172.03C293.343 174.225 275.617 175.347 257.902 176.333C245.008 176.638 232.087 176.644 219.214 175.691C210.139 174.939 200.993 173.904 192.299 171.071C188.262 169.682 184.161 167.879 181.208 164.692C179.236 162.557 178.201 159.593 178.577 156.695C179.078 152.583 181.361 148.955 183.839 145.735C186.497 142.38 190.441 140.489 194.287 138.839C164.299 137.826 134.279 136.96 104.389 134.181C98.1953 133.555 91.9907 132.885 85.9005 131.567C83.5309 130.962 80.8181 130.494 79.2656 128.391C81.9948 126.01 85.6173 125.248 89.0219 124.371C96.9206 122.524 104.945 121.326 112.963 120.16C130.591 117.67 148.306 115.846 166.004 113.988C156.64 110.218 147.156 106.53 138.582 101.116C134.693 98.5936 130.803 95.7556 128.259 91.8062C126.533 89.2132 126.048 85.7215 127.448 82.8779C129.104 79.4134 132.285 77.0274 135.445 75.0119C141.714 71.1878 148.644 68.6276 155.6 66.356C167.083 62.7117 178.849 60.0043 190.659 57.6565ZM268.148 201.446C270.164 201.44 272.185 201.413 274.206 201.489C274.478 208.892 274.293 216.312 274.298 223.726C272.223 223.84 270.148 223.829 268.072 223.753C267.99 216.323 267.838 208.871 268.148 201.446ZM181.829 201.882C183.91 201.457 186.062 201.517 188.153 201.843C188.557 205.64 188.246 209.47 188.339 213.283C188.241 216.9 188.567 220.544 188.137 224.145C186.051 224.461 183.883 224.586 181.818 224.074C181.666 216.682 181.644 209.274 181.829 201.882ZM192.904 201.658C197.114 201.533 201.347 201.506 205.558 201.647C206.391 202.268 205.798 203.57 205.972 204.475C201.647 204.839 197.289 204.594 192.947 204.616C192.909 203.63 192.893 202.644 192.904 201.658ZM258.763 201.936C260.827 201.685 262.913 201.702 264.983 201.887C265.201 208.239 265.022 214.596 265.081 220.947C265.261 222.669 264.188 224.684 262.26 224.624C252.819 224.75 243.368 224.624 233.928 224.679C233.225 224.793 232.13 224.586 231.82 225.42C231.493 227.027 231.765 228.71 231.275 230.295C229.238 230.399 227.179 230.459 225.147 230.197C224.94 228.465 225.027 226.722 224.94 224.989C222.935 224.483 219.906 225.224 219.024 222.767C218.501 219.455 218.915 216.056 218.784 212.716C218.599 211.033 219.547 209.045 221.437 208.974C224.798 208.822 228.214 208.674 231.564 209.132C232.027 212.956 231.291 216.851 232.016 220.648C235.377 220.887 238.749 220.708 242.115 220.762C243.973 220.719 245.885 220.975 247.699 220.435C247.759 217.875 247.884 215.298 247.568 212.749C244.044 212.313 240.481 212.804 236.951 212.439C236.739 211.229 236.603 209.971 237.136 208.827C241.701 208.881 246.266 208.756 250.831 208.876C252.362 208.838 253.653 210.113 253.696 211.632C253.876 214.465 253.686 217.309 253.827 220.141C255.331 220.773 256.976 220.539 258.556 220.43C258.877 214.274 258.632 208.097 258.763 201.936ZM280.443 201.92C282.508 201.691 284.594 201.702 286.664 201.892C286.746 204.175 286.593 206.474 286.876 208.745C290.837 208.985 294.808 208.647 298.768 208.876C300.44 208.958 301.753 210.499 301.612 212.166C301.612 215.266 301.688 218.376 301.568 221.476C301.574 223.219 299.956 224.554 298.251 224.401C291.708 224.423 285.161 224.456 278.618 224.374C277.583 223.224 276.777 221.879 276.352 220.386C277.621 219.934 278.978 219.929 280.307 219.809C280.579 213.849 280.301 207.879 280.443 201.92ZM286.729 212.297C286.479 214.912 286.435 217.565 286.762 220.174C289.655 220.277 292.558 220.299 295.451 220.163C295.799 217.565 295.723 214.917 295.478 212.313C292.574 212.019 289.638 212.046 286.729 212.297ZM322.039 201.805C324.098 201.745 326.163 201.707 328.222 201.887C328.331 204.164 328.222 206.446 328.391 208.718C332.308 209.007 336.241 208.696 340.163 208.876C341.552 208.887 342.93 209.9 343.094 211.333C343.393 214.274 342.908 217.254 343.377 220.185C348.813 220.261 354.255 220.381 359.692 220.185C360.089 217.586 360.019 214.928 359.714 212.33C356.358 211.872 352.964 212.346 349.603 212.041C348.394 211.404 349.129 209.677 349.064 208.582C353.716 208.331 358.384 208.484 363.042 208.484C364.338 208.402 365.531 209.344 365.782 210.619C366.261 213.73 365.569 216.922 366.223 220.016C367.803 220.087 369.426 220.267 370.973 219.798C371.109 213.79 370.892 207.781 371.082 201.778C373.147 201.713 375.211 201.702 377.276 201.789C377.407 207.988 377.303 214.193 377.336 220.392C377.461 221.939 376.682 223.862 374.944 224.031C371.894 224.259 368.827 224.058 365.771 224.129C351.608 224.069 337.445 224.249 323.281 224.232C321.2 224.243 319.103 224.112 317.044 224.456C316.87 226.182 316.897 227.92 316.685 229.641C314.604 229.974 312.457 230.028 310.387 229.603C310.273 227.871 310.278 226.128 310.001 224.412C308.208 224.025 305.659 224.461 304.798 222.391C304.134 219.787 304.635 217.036 304.477 214.372C304.559 212.428 303.97 209.693 306.111 208.631C308.11 207.89 310.306 208.342 312.398 208.217C314.113 208.157 316.488 208.206 317.131 210.183C317.829 213.577 317.109 217.112 317.73 220.528C319.043 220.555 320.362 220.544 321.674 220.501C322.377 214.307 321.674 208.026 322.039 201.805ZM328.369 212.368C328.249 214.95 328.189 217.548 328.418 220.13C331.305 220.223 334.263 220.484 337.118 220.032C337.613 217.526 337.27 214.917 337.248 212.373C334.312 211.981 331.305 211.992 328.369 212.368Z" fill="#12470D"/>
<path d="M358.019 201.886C360.187 201.712 362.376 201.669 364.544 201.946C364.523 202.9 364.501 203.853 364.452 204.806C362.344 204.882 360.241 204.861 358.138 204.839C358.019 203.858 357.991 202.872 358.019 201.886ZM380.38 201.712C382.45 201.598 384.531 201.603 386.606 201.701C386.677 208.979 386.726 216.257 386.579 223.529C384.52 223.589 382.466 223.594 380.413 223.518C380.266 216.251 380.331 208.979 380.38 201.712ZM138.69 202.469C140.766 202.164 142.907 202.072 144.971 202.524C145.184 209.921 145.151 217.341 144.987 224.738C142.901 225.179 140.739 225.109 138.641 224.787C138.282 219.874 138.57 214.933 138.478 210.014C138.527 207.497 138.309 204.964 138.69 202.469ZM173.287 202.257C175.362 202.175 177.438 202.159 179.508 202.284C179.568 208.674 179.568 215.064 179.518 221.453C179.6 223.077 178.456 224.722 176.735 224.749C169.065 225.081 161.351 224.471 153.698 225.054C153.534 227.146 153.611 229.243 153.507 231.34C151.486 231.389 149.454 231.515 147.455 231.166C146.981 226.498 147.357 221.786 147.243 217.096C147.281 214.464 147.107 211.828 147.401 209.208C149.389 209.393 151.786 208.663 153.513 209.578C153.692 213.353 153.513 217.139 153.583 220.92C155.648 221.17 157.756 221.203 159.81 220.849C160.011 219.65 160.202 218.403 159.902 217.204C159.162 216.306 157.881 216.191 156.879 215.706C156.759 213.582 156.688 211.436 156.983 209.317C161.074 208.924 165.235 209.033 169.332 209.224C169.468 209.355 169.74 209.611 169.877 209.742C170.127 211.719 169.969 213.724 169.909 215.712C168.994 216.082 168.019 216.338 167.169 216.856C166.325 217.983 166.826 219.52 167.017 220.794C169.054 221.132 171.14 221.083 173.183 220.811C173.303 214.628 173.096 208.44 173.287 202.257ZM96.0318 203.107C100.346 203.101 104.666 202.998 108.975 203.167C109.002 204.114 109.007 205.068 109.007 206.021C104.671 206.201 100.33 206.103 95.9937 206.075C95.9447 205.084 95.9501 204.093 96.0318 203.107ZM122.528 209.573C122.375 207.955 124.195 207.334 125.508 207.394C128.678 207.405 131.865 207.176 135.013 207.584C135.34 212.024 135.073 216.485 135.171 220.936C135.111 222.232 135.351 223.79 134.349 224.809C133.385 225.909 131.794 225.784 130.47 225.86C120.098 225.844 109.727 225.888 99.3547 225.839C97.6007 225.986 95.5252 225.087 95.4489 223.088C95.3019 219.634 95.3727 216.175 95.4054 212.721C95.3346 211.098 96.6474 209.556 98.3252 209.622C101.855 209.573 105.407 209.442 108.937 209.742C109.394 213.419 108.909 217.139 109.231 220.827C110.315 220.843 111.399 220.843 112.483 220.822C112.739 217.128 112.352 213.413 112.717 209.725C114.754 209.464 116.825 209.398 118.867 209.622C119.891 209.649 119.657 210.951 119.733 211.632C119.761 214.682 119.684 217.738 119.761 220.794C122.784 220.909 125.818 220.892 128.841 220.8C128.89 219.629 128.89 218.463 128.852 217.297C126.831 217.139 124.222 217.853 122.729 216.093C122.266 213.969 122.555 211.741 122.528 209.573ZM193.502 209.861C194.156 208.685 195.626 208.445 196.858 208.472C199.02 208.483 201.188 208.385 203.345 208.549C204.587 208.619 205.715 209.6 205.927 210.831C206.369 214.099 205.628 217.46 206.407 220.691C207.507 220.762 208.608 220.745 209.708 220.653C210.422 216.687 209.762 212.623 210.225 208.63C212.274 208.298 214.36 208.38 216.425 208.543C217.024 212.634 216.555 216.807 216.697 220.93C216.909 222.701 215.733 224.716 213.777 224.629C207.965 224.716 202.141 224.667 196.329 224.656C194.924 224.749 193.42 223.927 193.181 222.45C192.788 219.961 193.093 217.428 192.995 214.922C193.072 213.239 192.728 211.425 193.502 209.861ZM203.378 227.658C207.676 227.669 211.969 227.571 216.261 227.718C216.299 228.66 216.316 229.608 216.321 230.561C211.979 230.741 207.632 230.638 203.291 230.621C203.242 229.63 203.258 228.639 203.378 227.658ZM133.984 238.122C135.988 237.915 138.009 237.943 140.014 238.079C140.684 240.47 140.265 242.976 140.374 245.422C140.281 250.335 140.57 255.265 140.21 260.168C138.118 260.517 135.956 260.555 133.869 260.152C133.624 255.249 133.82 250.33 133.76 245.422C133.809 242.987 133.575 240.53 133.984 238.122ZM197.01 240.122C199.162 239.98 201.324 239.996 203.482 240.1C203.498 241.069 203.482 242.039 203.411 243.009C201.303 243.074 199.189 243.08 197.075 242.998C197.032 242.039 197.016 241.08 197.01 240.122ZM239.058 240.133C241.21 239.969 243.373 240.018 245.535 240.067C245.59 241.053 245.574 242.05 245.448 243.036C243.335 243.058 241.216 243.101 239.102 242.971C239.075 242.023 239.058 241.075 239.058 240.133ZM143.092 244.316C144.677 244.076 146.284 244.223 147.88 244.18C148.392 244.73 148.899 245.286 149.427 245.825C149.819 245.275 150.212 244.725 150.598 244.174C157.495 244.229 164.397 244.158 171.293 244.207C172.099 244.109 173.042 244.512 172.867 245.487C172.867 250.374 172.993 255.271 172.78 260.157C169.947 260.571 167.071 260.288 164.217 260.364C160.959 260.293 157.685 260.538 154.439 260.201C154.155 256.943 154.297 253.664 154.341 250.401C158.579 250.281 162.828 250.515 167.066 250.254C167.011 249.633 166.946 249.017 166.87 248.407C162.005 248.396 157.135 248.347 152.271 248.423C150.816 248.402 149.307 249.453 149.231 250.989C149.019 254.061 149.351 257.15 149.04 260.217C146.921 260.44 144.731 260.636 142.64 260.092C142.482 255.086 142.493 250.063 142.612 245.062C142.732 244.877 142.972 244.501 143.092 244.316ZM160.513 253.778C160.49 254.566 160.486 255.354 160.502 256.142C162.49 256.344 164.489 256.306 166.483 256.197C166.586 255.369 166.576 254.535 166.461 253.718C164.484 253.495 162.479 253.446 160.513 253.778ZM176.19 244.392C182.155 244.055 188.158 244.087 194.123 244.371C194.526 248.886 194.221 253.424 194.314 257.951C194.205 260.854 194.646 263.823 193.91 266.667H187.902C187.706 264.58 187.739 262.472 187.423 260.397C183.669 260.206 179.916 260.473 176.168 260.206C175.956 254.939 175.869 249.649 176.19 244.392ZM181.823 248.167C181.687 250.782 181.605 253.419 181.883 256.028C183.8 256.126 185.723 256.11 187.641 256.061C188.191 253.44 187.886 250.728 187.749 248.075C185.778 247.955 183.784 247.873 181.823 248.167ZM197.544 244.3C199.478 244.071 201.444 244.125 203.373 244.414C203.77 246.724 203.558 249.083 203.601 251.414C203.547 254.323 203.754 257.248 203.438 260.152C201.335 260.44 199.173 260.544 197.092 260.092C196.841 255.739 197.048 251.381 196.961 247.034C197.054 246.119 196.705 244.953 197.544 244.3ZM218.168 244.398C221.409 243.984 224.688 244.278 227.951 244.196C230.615 244.278 233.311 243.951 235.948 244.447C236.28 249.671 236.329 254.939 236.024 260.168C233.175 260.642 230.277 260.304 227.406 260.391C224.171 260.293 220.919 260.577 217.699 260.173C217.394 256.932 217.509 253.669 217.601 250.423C221.839 250.259 226.083 250.515 230.321 250.265C230.266 249.638 230.206 249.017 230.141 248.396C226.105 248.325 222.057 248.521 218.026 248.282C217.879 246.98 217.846 245.667 218.168 244.398ZM224.258 253.697C223.337 254.132 223.828 255.32 223.735 256.11C225.772 256.328 227.848 256.431 229.874 256.044C229.874 255.325 229.869 254.601 229.863 253.882C228.033 253.43 226.11 253.413 224.258 253.697ZM239.004 247.034C239.135 246.108 238.639 244.42 239.995 244.278C241.853 244.131 243.798 243.967 245.59 244.61C245.726 249.709 245.65 254.813 245.633 259.912C243.634 260.735 241.428 260.277 239.336 260.288C238.612 255.924 239.222 251.441 239.004 247.034ZM248.406 244.616C249.926 243.788 251.789 244.332 253.45 244.202C253.832 244.746 254.224 245.286 254.616 245.825C255.036 245.291 255.461 244.757 255.875 244.218C259.225 244.283 262.608 243.918 265.925 244.452C266.41 248.2 265.936 251.986 266.235 255.75C267.39 255.995 268.578 256.001 269.733 255.745C270.021 251.975 269.488 248.178 270 244.43C272.064 244.087 274.2 244.033 276.259 244.458C276.733 248.184 276.286 251.942 276.596 255.679C277.735 256.033 278.922 255.995 280.077 255.734C280.371 251.97 279.908 248.184 280.393 244.436C285.579 243.891 290.83 244.338 296.044 244.196C299.857 244.289 303.686 243.973 307.489 244.387C307.875 249.655 307.848 254.977 307.608 260.25C303.763 260.577 299.9 260.315 296.044 260.38C293.767 260.299 291.451 260.609 289.213 260.081C289.109 256.867 289.158 253.647 289.174 250.428C293.429 250.221 297.694 250.586 301.943 250.205L301.78 248.44C296.882 248.396 291.98 248.276 287.088 248.511C286.576 251.616 287.11 254.775 286.767 257.891C286.565 259.427 285.051 260.5 283.542 260.359C276.803 260.375 270.07 260.359 263.332 260.37C261.878 260.451 260.102 259.907 259.677 258.338C259.061 255.238 259.895 252.008 259.268 248.925C258.004 248.107 256.261 248.462 254.899 248.908C254.643 252.656 255.041 256.42 254.66 260.163C252.557 260.429 250.389 260.56 248.308 260.07C248.085 256.093 248.27 252.111 248.199 248.129C248.232 246.958 248.074 245.749 248.406 244.616ZM295.428 253.718C295.325 254.535 295.325 255.363 295.406 256.191C297.395 256.306 299.399 256.344 301.382 256.137C301.366 255.385 301.562 254.584 301.262 253.865C299.388 253.228 297.356 253.615 295.428 253.718ZM310.915 244.452C312.974 244.049 315.109 244.082 317.179 244.43C317.724 248.271 317.12 252.171 317.544 256.023C319.277 256.115 321.009 256.11 322.747 256.072C323.324 252.275 322.785 248.407 323.057 244.588C325.149 243.957 327.442 244.011 329.545 244.561C329.741 248.32 329.523 252.079 329.681 255.837C334.382 256.268 339.122 255.984 343.839 256.05C343.855 255.211 343.861 254.377 343.866 253.544C340.118 253.223 336.349 253.495 332.596 253.326C332.198 250.374 332.247 247.345 332.579 244.392C338.195 243.978 343.855 244.251 349.488 244.273C349.521 245.58 349.521 246.898 349.488 248.211C346.045 248.364 342.592 248.167 339.149 248.336C339.132 248.935 339.127 249.529 339.122 250.128C342.581 250.254 346.045 250.085 349.504 250.237C349.559 252.623 349.668 255.015 349.488 257.401C349.368 258.839 348.251 260.282 346.726 260.321C341.213 260.522 335.679 260.146 330.182 260.489C328.87 261.878 329.943 264.21 329.294 265.953C327.203 266.111 325.094 266.198 323.019 265.861C322.66 264.106 323.449 262.026 322.398 260.495C318.59 260.048 314.712 260.735 310.91 260.124C310.583 254.917 310.566 249.655 310.915 244.452Z" fill="#12470D"/>
<path d="M122.432 202.508C126.773 202.176 131.142 202.312 135.484 202.426C135.527 203.423 135.505 204.425 135.38 205.422C131.093 205.411 126.801 205.493 122.513 205.373C122.47 204.42 122.443 203.461 122.432 202.508ZM247.645 227.549C249.803 227.31 251.982 227.321 254.139 227.544C254.155 228.503 254.133 229.467 254.052 230.431C251.943 230.475 249.841 230.475 247.738 230.437C247.675 229.476 247.644 228.513 247.645 227.549ZM108.672 228.639C113.002 228.399 117.36 228.399 121.696 228.639C121.713 229.609 121.707 230.578 121.664 231.548C117.349 231.63 113.035 231.624 108.721 231.553C108.655 230.584 108.65 229.609 108.672 228.639Z" fill="#13480E"/>
</svg>
