<svg width="480" height="320" viewBox="0 0 480 320" fill="none" xmlns="http://www.w3.org/2000/svg">
<path d="M262.627 210.142L282.586 202.099C282.586 202.099 323.598 197.169 332.832 209.67L314.64 218.763C314.637 218.766 304.318 205.16 262.627 210.142Z" fill="#0054A4"/>
<path d="M291.824 198.308L309.481 191.039C309.481 191.039 336.361 186.939 359.172 197.097L341.251 205.807C341.254 205.81 333.512 193.329 291.824 198.308Z" fill="#0054A4"/>
<path d="M349.125 214.148C349.125 214.148 376.285 216.727 407.516 212.395L396.381 220.054C396.381 220.054 363.249 225.214 331.195 222.938L349.125 214.148ZM374.93 201.415C374.93 201.415 393.387 205.687 424.615 201.369L413.495 208.613C413.495 208.613 389.324 212.332 357.273 210.053L374.93 201.415Z" fill="#EF3E33"/>
<path d="M79.1263 144.014L70.4537 138.766C65.0137 135.448 61.1426 132.175 58.8378 128.945C56.5329 125.707 55.3848 121.979 55.3848 117.77C55.3848 111.463 57.5608 106.329 61.9243 102.389C66.2878 98.4494 71.954 96.4824 78.9259 96.4824C85.5857 96.4824 91.7043 98.332 97.2617 102.043V115.076C91.5153 109.533 85.328 106.75 78.7054 106.75C74.9833 106.75 71.9197 107.623 69.5232 109.347C67.1152 111.09 65.9242 113.304 65.9242 115.998C65.9242 118.4 66.8117 120.642 68.5755 122.735C70.3421 124.834 73.1909 127.03 77.1106 129.335L85.829 134.523C95.5581 140.375 100.426 147.805 100.426 156.833C100.426 163.258 98.2868 168.477 94.0006 172.491C89.7172 176.514 84.1541 178.516 77.3025 178.516C69.4258 178.516 62.2536 176.05 55.7856 171.114V156.629C61.9329 164.558 69.0593 168.514 77.145 168.514C80.7182 168.514 83.6902 167.501 86.0638 165.488C88.4345 163.47 89.6285 160.941 89.6285 157.909C89.6285 152.99 86.1239 148.366 79.1263 144.014ZM145.77 124.922H158.176L135.711 150.703L162.786 177.599H148.782L122.355 150.803L145.77 124.922ZM111.552 97.6649H121.954V177.599H111.552V97.6649Z" fill="#A29490"/>
<path d="M174.437 204.598H162.806L180.567 166.61L160.312 124.922H172.166L186.379 154.816L200.054 124.922H211.669L174.437 204.598ZM229.018 138.631V167.171C232.562 168.239 236.207 168.771 239.941 168.771C244.556 168.771 248.321 167.136 251.244 163.844C254.159 160.568 255.617 156.342 255.617 151.186C255.617 145.955 254.251 141.691 251.528 138.41C248.794 135.129 245.237 133.48 240.857 133.48C236.971 133.48 233.015 135.206 229.018 138.631ZM218.613 97.6641H229.018V128.678C233.518 125.388 238.329 123.739 243.439 123.739C250.113 123.739 255.565 126.259 259.8 131.312C264.037 136.346 266.153 142.825 266.153 150.733C266.153 159.211 263.625 165.965 258.574 170.99C253.526 176.009 246.755 178.526 238.294 178.526C234.904 178.526 231.322 178.16 227.569 177.441C223.809 176.714 220.829 175.806 218.616 174.692V97.6641H218.613ZM311.308 177.598V170.856C309.087 173.287 306.538 175.171 303.678 176.505C300.815 177.848 297.966 178.526 295.134 178.526C291.787 178.526 288.709 177.69 285.886 176.035C283.06 174.38 280.939 172.121 279.49 169.275C278.055 166.438 277.334 161.702 277.334 155.102V124.924H287.739V154.959C287.739 160.494 288.537 164.345 290.141 166.544C291.738 168.743 294.544 169.834 298.553 169.834C303.555 169.834 307.81 167.406 311.314 162.555V124.922H321.722V177.598H311.308ZM333.552 173.816V162.59C336.499 164.665 339.505 166.346 342.583 167.635C345.652 168.926 348.243 169.564 350.345 169.564C352.521 169.564 354.388 169.029 355.965 167.952C357.523 166.876 358.316 165.593 358.316 164.099C358.316 162.57 357.804 161.287 356.796 160.282C355.782 159.257 353.606 157.8 350.242 155.887C343.539 152.142 339.139 148.947 337.06 146.295C334.984 143.635 333.945 140.746 333.945 137.614C333.945 133.566 335.522 130.264 338.655 127.702C341.801 125.139 345.844 123.868 350.789 123.868C355.928 123.868 361.202 125.32 366.605 128.2V138.476C360.446 134.802 355.401 132.95 351.485 132.95C349.469 132.95 347.843 133.377 346.597 134.241C345.36 135.094 344.748 136.225 344.748 137.64C344.748 138.86 345.3 140.025 346.431 141.127C347.553 142.238 349.535 143.572 352.352 145.139L356.071 147.246C364.841 152.219 369.236 157.711 369.236 163.741C369.236 168.055 367.553 171.606 364.171 174.363C360.79 177.129 356.444 178.518 351.132 178.518C348.009 178.518 345.223 178.18 342.769 177.51C340.332 176.843 337.255 175.614 333.552 173.816Z" fill="#A29490"/>
</svg>
