<svg width="480" height="320" viewBox="0 0 480 320" fill="none" xmlns="http://www.w3.org/2000/svg">
<g clip-path="url(#clip0_730_18877)">
<path fill-rule="evenodd" clip-rule="evenodd" d="M340.483 126.407H398.783V91.4775C398.783 91.4775 416.683 121.33 417.484 126.007C419.29 136.092 411.005 147.579 393.041 163.407C377.681 176.963 338.68 196.531 338.68 196.531C338.68 196.531 366.393 149.382 367.464 145.44C368.53 141.501 340.483 126.407 340.483 126.407Z" fill="#E2A556"/>
<path fill-rule="evenodd" clip-rule="evenodd" d="M371.805 185.714L398.049 228.52V195.463H458.488L428.97 176.764L458.822 126.741L429.704 142.235C429.704 142.235 427.57 143.637 427.164 141.1C426.833 138.629 432.242 123.135 426.098 113.785C421.887 107.305 410.268 108.04 408.463 109.442C406.662 110.911 405.594 117.39 405.594 117.39C405.594 117.39 410.672 113.048 416.013 113.785C421.422 114.519 422.759 120.864 423.225 126.741C423.959 135.355 416.013 147.243 411.737 152.988C407.402 158.73 390.504 177.432 371.805 185.714Z" fill="#E2A556"/>
<path fill-rule="evenodd" clip-rule="evenodd" d="M45.4203 184.511H29.7246L36.8715 147.378C37.4716 144.506 37.4044 142.636 36.737 141.635C36.0696 140.634 34.466 140.166 31.794 140.166L21.1758 140.099L23.3796 128.878L39.6082 128.945C45.5523 128.945 49.5615 130.215 51.6309 132.75C53.7002 135.223 54.1011 139.83 52.8311 146.444L45.4203 184.511ZM83.5527 129.08L77.4094 160.735L61.0463 163.875L67.7922 129.012L83.5527 129.08ZM110.868 129.147L104.724 160.802L88.3612 163.94L95.1072 129.08L110.868 129.147ZM158.889 184.843H141.659L133.309 157.129C132.776 157.328 132.375 157.463 132.106 157.662C131.565 158.257 131.216 159.002 131.105 159.799L126.23 184.775L110.601 184.711L113.54 169.682C114.81 163.138 116.946 158.262 120.019 155.125C121.688 153.386 124.828 151.452 129.504 149.18L119.152 129.147L137.986 129.212L146.535 153.386H146.801C147.404 153.187 147.869 152.318 148.203 150.717L152.344 129.279L167.973 129.346L164.967 144.773C164.033 149.581 162.029 153.386 158.891 156.26C156.488 158.397 153.415 160.068 149.608 161.335C150.942 164.206 152.88 169.082 155.484 175.828C156.351 178.032 157.484 181.038 158.889 184.843ZM197.624 184.977L181.93 184.912L189.077 147.779C189.61 144.975 189.61 143.104 188.943 142.101C188.273 141.1 186.672 140.564 184.002 140.564H173.381L175.518 129.346L191.814 129.411C197.758 129.411 201.765 130.681 203.834 133.151C205.906 135.691 206.307 140.231 205.037 146.909L197.624 184.977ZM276.431 154.325C274.426 164.545 270.357 172.424 264.077 177.967C257.398 183.978 248.717 186.917 237.962 186.917C228.477 186.85 221.666 183.911 217.525 178.034C213.987 172.959 212.916 166.679 214.388 159.204L220.132 129.483H234.157L228.679 157.864C231.951 157.864 234.424 157.196 236.025 155.794C238.029 153.992 239.499 150.784 240.432 146.043L243.64 129.545L257.667 129.613L253.989 148.648C252.59 155.926 248.78 160.937 242.569 163.606C238.831 165.21 233.821 166.012 227.543 166.012C227.142 167.947 227.81 169.817 229.478 171.757C231.749 174.426 235.355 175.763 240.231 175.763C245.841 175.828 250.383 174.292 253.857 171.151C258.063 167.346 261.069 161.001 262.737 152.119L267.145 129.613L281.172 129.68L276.431 154.325ZM308.624 129.747L302.543 161.402L286.182 164.543L292.928 129.68L308.624 129.747Z" fill="#232530"/>
</g>
<defs>
<clipPath id="clip0_730_18877">
<rect width="480" height="320" fill="white"/>
</clipPath>
</defs>
</svg>
