<svg width="480" height="320" viewBox="0 0 480 320" fill="none" xmlns="http://www.w3.org/2000/svg">
<path d="M71.6758 87.8809H114.478V201.888H71.6765L71.6758 87.8809Z" fill="#120A7F"/>
<path d="M309.721 87.8806H351.678V201.887H309.721V87.8806ZM366.073 108.525H407.584V201.928H366.073V108.525ZM276.527 87.439L217.143 87.4375L186.988 201.887H231.553L234.591 183.98H258.187L261.244 201.887H305.804L276.527 87.439ZM264.66 138.93C264.66 138.93 263.608 140.289 261.816 139.973C261.816 139.973 256.146 146.302 251.492 142.827C251.492 142.827 249.092 147.029 243.1 147.025C237.123 147.029 235.152 141.94 234.876 139.071C234.876 139.071 228.438 139.389 228.584 132.941C228.727 126.521 239.652 126.521 239.652 126.521C239.652 126.521 242.061 121.275 246.694 122.323C251.335 123.376 252.521 125.773 252.833 126.946C252.833 126.946 255.381 127.563 255.381 128.766C255.381 128.766 259.422 126.818 261.532 128.461C261.532 128.461 267.808 128.317 268.393 133.563C268.393 133.563 268.393 137.895 264.66 138.93Z" fill="#67BCD8"/>
<path d="M192.702 180.206H186.781C186.781 180.206 177.354 179.749 177.354 168.925V128.846H195.727V107.665L177.354 107.661V87.4062H132.585V107.661H123.652V128.845H132.585L132.582 180.928C132.582 180.928 130.712 201.887 150.98 201.879L186.99 201.886L192.702 180.206V180.206Z" fill="#120A7F"/>
<path d="M79.7614 227.085L83.0816 217.799L86.3123 227.081L79.7622 227.085H79.7614ZM73.7969 235.682L76.6769 235.676L78.9358 229.39H87.0958L89.2817 235.676H92.3662L84.7992 214.679H81.6091L73.7969 235.682ZM127.422 235.682H124.59V214.677H127.422V235.682ZM164.247 224.283V217.142L170.871 217.147C171.794 217.147 172.543 217.285 173.09 217.576C174.124 218.114 174.645 219.132 174.645 220.622C174.645 221.997 174.263 222.949 173.53 223.477C172.791 224.002 171.783 224.283 170.512 224.285L164.247 224.283ZM161.404 235.677H164.247V226.634H170.38C171.475 226.631 172.291 226.765 172.803 227.025C173.714 227.495 174.191 228.421 174.255 229.792L174.485 233.305C174.517 234.126 174.567 234.693 174.609 234.97C174.668 235.26 174.745 235.502 174.846 235.682L178.313 235.676V235.235C177.872 235.03 177.574 234.612 177.402 233.943C177.294 233.543 177.228 232.947 177.203 232.138L177.097 229.292C177.048 228.057 176.812 227.19 176.399 226.649C175.995 226.098 175.383 225.661 174.575 225.336C175.507 224.838 176.236 224.201 176.756 223.404C177.276 222.606 177.531 221.578 177.531 220.317C177.531 217.915 176.583 216.267 174.645 215.369C173.657 214.904 172.379 214.677 170.83 214.679H161.404V235.677H161.404ZM211.135 214.679L213.967 214.677V233.156H224.315V235.682L211.135 235.677V214.679ZM259.699 235.677L256.859 235.682V214.677L259.699 214.679V235.677ZM307.142 231.657V214.679H309.809V235.677L306.666 235.682L296.073 218.646V235.677L293.398 235.682V214.677H296.698L307.142 231.657ZM343.575 214.677L358.819 214.679V217.195L346.302 217.197V223.602H357.874V226.016H346.302V233.156H358.975L358.977 235.677L343.576 235.682V214.677H343.575ZM393.569 228.831C393.639 230.023 393.898 230.987 394.367 231.742C395.264 233.137 396.845 233.834 399.112 233.831C400.12 233.834 401.056 233.679 401.881 233.368C403.506 232.778 404.29 231.742 404.29 230.212C404.29 229.082 403.964 228.275 403.279 227.803C402.587 227.34 401.514 226.945 400.025 226.589L397.307 225.965C395.528 225.572 394.272 225.112 393.543 224.606C392.261 223.716 391.623 222.391 391.623 220.63C391.623 218.731 392.244 217.163 393.503 215.944C394.749 214.72 396.536 214.115 398.82 214.115C400.932 214.115 402.722 214.64 404.199 215.704C405.676 216.766 406.42 218.457 406.424 220.798H403.747C403.614 219.685 403.33 218.839 402.89 218.25C402.075 217.179 400.692 216.636 398.739 216.636C397.153 216.636 396.027 216.989 395.325 217.695C394.641 218.4 394.299 219.198 394.299 220.139C394.299 221.162 394.703 221.909 395.52 222.386C396.063 222.689 397.28 223.067 399.17 223.514L401.976 224.187C403.33 224.5 404.382 224.958 405.122 225.512C406.4 226.488 407.028 227.91 407.028 229.774C407.028 232.093 406.209 233.752 404.589 234.746C402.945 235.739 401.065 236.24 398.906 236.24C396.386 236.24 394.416 235.574 392.991 234.231C391.564 232.908 390.877 231.094 390.89 228.831H393.569Z" fill="#291481"/>
<path d="M366.301 87.793H379.918V106.797H366.301V87.793Z" fill="#009135"/>
<path d="M379.918 87.793H393.535V106.797H379.918V87.793Z" fill="white"/>
<path d="M393.535 87.793H407.152V106.797H393.535V87.793Z" fill="#E00016"/>
</svg>
