<svg width="480" height="320" viewBox="0 0 480 320" fill="none" xmlns="http://www.w3.org/2000/svg">
<mask id="mask0_730_18726" style="mask-type:luminance" maskUnits="userSpaceOnUse" x="55" y="131" width="370" height="58">
<path d="M55.3848 131.49H424.616V188.508H55.3848V131.49Z" fill="white"/>
</mask>
<g mask="url(#mask0_730_18726)">
<path fill-rule="evenodd" clip-rule="evenodd" d="M283.457 175.718V172.173C284.074 172.328 284.69 172.173 285.152 172.173C285.923 172.328 286.539 172.944 286.539 173.869L286.385 174.177C286.231 176.026 284.536 175.718 283.457 175.718ZM277.447 188.046H283.303L283.611 187.738V180.649H287.001C288.234 180.495 289.159 180.341 290.392 179.725C291.933 178.646 292.703 177.105 293.011 175.41C293.166 174.793 293.166 174.177 293.166 173.715C293.166 173.252 293.166 172.944 293.011 172.482C292.549 168.937 290.238 167.704 287.156 167.242H277.601L277.293 167.55V187.738L277.447 188.046Z" fill="#2E3192"/>
</g>
<mask id="mask1_730_18726" style="mask-type:luminance" maskUnits="userSpaceOnUse" x="55" y="131" width="370" height="58">
<path d="M55.3848 131.49H424.616V188.508H55.3848V131.49Z" fill="white"/>
</mask>
<g mask="url(#mask1_730_18726)">
<path fill-rule="evenodd" clip-rule="evenodd" d="M303.029 175.256H301.179V172.02L303.183 172.174C304.57 172.328 304.878 172.791 304.878 173.869C304.878 175.102 304.261 175.256 303.029 175.256ZM294.707 167.551V187.739L295.169 188.047H300.717L301.179 187.739L301.333 180.033C301.796 180.187 302.104 180.187 302.412 180.65L305.494 186.968L305.957 187.739L306.265 187.893H312.583L313.045 187.276V187.122L310.58 181.728C309.963 180.342 309.193 179.417 308.422 178.801L308.268 178.646V178.492H308.422C309.963 177.722 311.196 176.027 311.504 174.177V171.558C311.042 169.246 309.963 166.781 304.724 166.935H295.169L294.707 167.551Z" fill="#2E3192"/>
</g>
<mask id="mask2_730_18726" style="mask-type:luminance" maskUnits="userSpaceOnUse" x="55" y="131" width="370" height="58">
<path d="M55.3848 131.49H424.616V188.508H55.3848V131.49Z" fill="white"/>
</mask>
<g mask="url(#mask2_730_18726)">
<path fill-rule="evenodd" clip-rule="evenodd" d="M322.599 182.96H321.674C320.133 182.652 319.363 181.265 319.209 179.416V176.18C319.363 174.176 320.133 173.098 321.52 172.635L321.674 172.481H322.753C323.986 172.635 324.911 173.868 325.219 176.026V179.108C325.065 181.111 324.294 182.498 322.599 182.96ZM321.366 166.934H322.907C328.301 167.242 330.921 170.786 331.537 175.409V180.032C330.767 184.964 327.993 188.2 323.061 188.508H321.366C316.435 188.354 313.353 185.118 312.582 180.032C312.428 178.337 312.428 176.95 312.582 175.255C313.507 170.786 315.973 167.242 321.366 166.934Z" fill="#2E3192"/>
</g>
<mask id="mask3_730_18726" style="mask-type:luminance" maskUnits="userSpaceOnUse" x="55" y="131" width="370" height="58">
<path d="M55.3848 131.49H424.616V188.508H55.3848V131.49Z" fill="white"/>
</mask>
<g mask="url(#mask3_730_18726)">
<path fill-rule="evenodd" clip-rule="evenodd" d="M182.982 176.642V178.954C183.445 184.039 185.91 187.892 191.15 188.508H193.77C194.848 188.354 195.619 188.2 196.543 187.738C199.317 186.505 200.55 183.885 201.012 181.111V180.803L195.311 178.8C195.002 180.495 194.54 182.344 192.691 182.652H191.766C191.458 182.652 191.304 182.498 190.996 182.498C189.763 181.882 189.455 180.033 189.455 178.8V176.642C189.609 174.947 190.071 173.098 191.766 172.636H192.537C194.232 172.79 194.694 173.868 195.157 175.409H195.311L200.704 174.023L200.858 173.868L200.704 173.714C199.78 170.016 197.314 167.55 193.461 167.088H190.996C185.448 168.013 183.291 172.019 182.982 176.642Z" fill="#2E3192"/>
</g>
<mask id="mask4_730_18726" style="mask-type:luminance" maskUnits="userSpaceOnUse" x="55" y="131" width="370" height="58">
<path d="M55.3848 131.49H424.616V188.508H55.3848V131.49Z" fill="white"/>
</mask>
<g mask="url(#mask4_730_18726)">
<path fill-rule="evenodd" clip-rule="evenodd" d="M153.703 182.653V179.879H162.024V174.793H153.703V172.79H162.641V167.396H147.23V188.2H162.949V182.653H153.703Z" fill="#2E3192"/>
</g>
<mask id="mask5_730_18726" style="mask-type:luminance" maskUnits="userSpaceOnUse" x="55" y="131" width="370" height="58">
<path d="M55.3848 131.49H424.616V188.508H55.3848V131.49Z" fill="white"/>
</mask>
<g mask="url(#mask5_730_18726)">
<path fill-rule="evenodd" clip-rule="evenodd" d="M81.4294 175.872V172.482H83.1245C83.895 172.636 84.3573 173.252 84.3573 174.023V174.331C84.3573 176.026 82.5081 175.718 81.4294 175.872ZM74.957 188.2H81.4294V180.803H84.6655C85.1278 180.803 85.436 180.649 85.8983 180.649C86.5148 180.495 87.1312 180.341 87.9017 180.033C92.9871 177.413 91.4461 168.475 86.0524 167.551L84.9737 167.396H74.957V188.2Z" fill="#2E3192"/>
</g>
<mask id="mask6_730_18726" style="mask-type:luminance" maskUnits="userSpaceOnUse" x="55" y="131" width="370" height="58">
<path d="M55.3848 131.49H424.616V188.508H55.3848V131.49Z" fill="white"/>
</mask>
<g mask="url(#mask6_730_18726)">
<path fill-rule="evenodd" clip-rule="evenodd" d="M164.182 176.642V179.108C164.49 184.039 167.11 188.046 172.349 188.662H174.969C176.048 188.508 176.818 188.354 177.743 187.892C180.362 186.505 181.595 184.039 182.212 181.265V180.803L176.51 178.8L176.356 178.954C176.048 180.495 175.739 182.498 173.736 182.806H172.966C172.657 182.652 172.349 182.652 172.195 182.498C170.962 181.882 170.808 180.033 170.654 178.8V176.642C170.808 174.947 171.27 173.252 173.12 172.79L173.736 172.636C175.431 172.944 175.893 174.023 176.356 175.564H176.51L182.058 174.177L182.212 173.868L182.058 173.714C181.133 169.862 178.667 167.55 174.969 167.088H172.195C166.493 168.013 164.49 172.019 164.182 176.642Z" fill="#2E3192"/>
</g>
<mask id="mask7_730_18726" style="mask-type:luminance" maskUnits="userSpaceOnUse" x="55" y="131" width="370" height="58">
<path d="M55.3848 131.49H424.616V188.508H55.3848V131.49Z" fill="white"/>
</mask>
<g mask="url(#mask7_730_18726)">
<path fill-rule="evenodd" clip-rule="evenodd" d="M98.9961 179.108L99.1502 176.642C99.1502 173.714 100.691 172.636 102.232 172.636C103.927 172.636 105.314 173.868 105.314 176.642L105.16 179.108C105.16 181.111 104.39 183.115 102.078 183.115C99.9207 182.96 98.9961 181.111 98.9961 179.108ZM98.5338 167.704C96.8387 168.167 94.373 170.478 93.6025 172.173C92.9861 173.252 92.832 174.331 92.5238 175.255C92.3697 176.488 92.3697 177.721 92.5238 178.954C92.832 183.577 95.6058 187.892 100.691 188.354H103.465C104.236 188.2 105.006 188.2 105.931 187.892C109.629 186.659 111.478 182.652 111.787 178.954C111.787 177.721 111.787 176.334 111.633 175.101C111.478 174.023 111.17 172.944 110.862 172.019C109.783 169.862 107.934 168.167 105.777 167.55C105.16 167.242 104.39 167.242 103.619 167.088H100.845C99.9207 167.242 99.1502 167.396 98.5338 167.704Z" fill="#2E3192"/>
</g>
<mask id="mask8_730_18726" style="mask-type:luminance" maskUnits="userSpaceOnUse" x="55" y="131" width="370" height="58">
<path d="M55.3848 131.49H424.616V188.508H55.3848V131.49Z" fill="white"/>
</mask>
<g mask="url(#mask8_730_18726)">
<path fill-rule="evenodd" clip-rule="evenodd" d="M61.703 173.407H66.6343V188.2H73.1066V167.396H55.3848V188.2H61.703V173.407Z" fill="#2E3192"/>
</g>
<mask id="mask9_730_18726" style="mask-type:luminance" maskUnits="userSpaceOnUse" x="55" y="131" width="370" height="58">
<path d="M55.3848 131.49H424.616V188.508H55.3848V131.49Z" fill="white"/>
</mask>
<g mask="url(#mask9_730_18726)">
<path fill-rule="evenodd" clip-rule="evenodd" d="M119.8 173.407H128.276V167.396H113.328V188.2H119.8V173.407Z" fill="#2E3192"/>
</g>
<mask id="mask10_730_18726" style="mask-type:luminance" maskUnits="userSpaceOnUse" x="55" y="131" width="370" height="58">
<path d="M55.3848 131.49H424.616V188.508H55.3848V131.49Z" fill="white"/>
</mask>
<g mask="url(#mask10_730_18726)">
<path fill-rule="evenodd" clip-rule="evenodd" d="M136.134 175.872V172.482H137.83C138.6 172.636 139.216 173.252 139.216 174.023V174.331C139.062 176.026 137.059 175.718 136.134 175.872ZM129.662 188.2H136.134V180.803H139.525C139.833 180.803 140.295 180.649 140.758 180.649C141.374 180.495 141.99 180.341 142.607 180.033C147.692 177.413 146.151 168.475 140.758 167.551L139.679 167.396H129.816V188.2H129.662Z" fill="#2E3192"/>
</g>
<mask id="mask11_730_18726" style="mask-type:luminance" maskUnits="userSpaceOnUse" x="55" y="131" width="370" height="58">
<path d="M55.3848 131.49H424.616V188.508H55.3848V131.49Z" fill="white"/>
</mask>
<g mask="url(#mask11_730_18726)">
<path fill-rule="evenodd" clip-rule="evenodd" d="M412.441 167.242C410.13 167.858 408.588 169.399 407.972 171.711C407.818 173.406 407.818 174.947 408.743 176.488C409.975 178.029 411.362 178.799 413.212 179.416H413.366L413.52 179.57H413.674L413.828 179.724L414.444 179.878H414.599L414.753 180.032H415.061L415.677 180.186C416.448 180.494 417.372 180.803 417.835 181.727V182.806L417.681 183.114C417.064 183.885 416.602 183.885 415.677 183.885C414.444 183.577 413.982 182.806 413.674 181.727L413.52 180.957L413.212 180.649L407.818 180.957L407.51 181.265V182.19C408.28 186.504 410.9 188.508 415.061 188.662H416.756C420.609 188.354 423.228 186.813 424.153 182.96V180.032C423.382 176.95 421.225 175.717 418.451 174.793C417.681 174.639 416.91 174.33 416.14 174.176C415.523 174.022 414.907 173.868 414.444 173.56L414.29 173.406L414.136 173.252V172.481C414.444 172.019 414.599 171.865 415.215 171.711H415.677C416.756 171.865 417.064 172.481 417.372 173.406L417.526 174.022L417.989 174.33L423.228 174.022L423.691 173.56V173.098C423.382 171.402 423.074 170.17 421.995 168.783C420.454 167.396 418.759 166.933 416.756 166.779H415.061C414.136 166.933 413.366 166.933 412.441 167.242Z" fill="#2E3192"/>
</g>
<mask id="mask12_730_18726" style="mask-type:luminance" maskUnits="userSpaceOnUse" x="55" y="131" width="370" height="58">
<path d="M55.3848 131.49H424.616V188.508H55.3848V131.49Z" fill="white"/>
</mask>
<g mask="url(#mask12_730_18726)">
<path fill-rule="evenodd" clip-rule="evenodd" d="M341.708 166.933C336.314 167.242 333.695 170.94 333.078 176.025V179.108C333.54 182.652 334.927 186.042 338.318 187.583C339.396 188.046 340.783 188.2 341.862 188.2H344.328C347.102 187.891 349.105 186.813 351.416 185.118L351.57 184.963L351.879 184.655V176.18L351.416 175.871H342.941L342.478 176.18V180.494L342.941 180.803H346.177L346.023 182.035C344.79 182.96 343.095 183.422 341.554 182.806C340.321 182.19 339.859 180.803 339.705 179.724C339.705 177.567 339.088 173.868 341.4 172.481C342.941 171.711 344.482 172.327 345.252 173.868L345.406 174.176C345.56 174.176 345.715 174.33 345.715 174.33L351.108 173.252C351.416 172.943 351.416 172.789 351.416 172.327C350.184 168.474 347.872 166.933 343.865 166.779H341.708V166.933Z" fill="#2E3192"/>
</g>
<mask id="mask13_730_18726" style="mask-type:luminance" maskUnits="userSpaceOnUse" x="55" y="131" width="370" height="58">
<path d="M55.3848 131.49H424.616V188.508H55.3848V131.49Z" fill="white"/>
</mask>
<g mask="url(#mask13_730_18726)">
<path fill-rule="evenodd" clip-rule="evenodd" d="M373.298 188.046H388.246L388.709 187.738V182.961L388.246 182.652H379.463V179.57H387.476L387.784 179.262V175.101L387.476 174.639H379.463V172.328H388.092L388.246 172.173L388.401 172.019V167.396L388.092 167.242H373.298L372.99 167.55V187.738L373.298 188.046Z" fill="#2E3192"/>
</g>
<mask id="mask14_730_18726" style="mask-type:luminance" maskUnits="userSpaceOnUse" x="55" y="131" width="370" height="58">
<path d="M55.3848 131.49H424.616V188.508H55.3848V131.49Z" fill="white"/>
</mask>
<g mask="url(#mask14_730_18726)">
<path fill-rule="evenodd" clip-rule="evenodd" d="M394.874 167.242H394.72C392.563 167.858 391.176 169.399 390.405 171.711C390.097 173.406 390.251 174.947 391.176 176.488C392.409 178.029 393.796 178.799 395.645 179.416H395.799L395.953 179.57H396.107L396.261 179.724L396.878 179.878H397.032L397.186 180.032H397.494L398.111 180.186C399.035 180.494 399.806 180.803 400.268 181.727V182.806L400.114 183.114C399.498 183.885 399.035 183.885 398.265 183.885C397.032 183.577 396.57 182.806 396.107 181.727L395.953 180.957L395.491 180.649L390.097 180.957L389.789 181.265V182.19C390.56 186.504 393.333 188.508 397.494 188.662H399.189C403.042 188.354 405.508 186.813 406.432 182.96V180.032C405.662 176.95 403.658 175.717 400.884 174.793C400.114 174.639 399.343 174.33 398.419 174.176C397.802 174.022 397.186 173.868 396.724 173.56L396.57 173.406L396.415 173.252V172.481C396.724 172.019 396.878 171.865 397.494 171.711H397.957C399.035 171.865 399.498 172.481 399.652 173.406L399.806 174.022L400.268 174.33L405.508 174.022L405.97 173.56V173.098C405.662 171.402 405.199 170.17 404.121 168.783C402.734 167.396 400.884 166.933 399.035 166.779H397.34C396.57 166.933 395.645 166.933 394.874 167.242Z" fill="#2E3192"/>
</g>
<mask id="mask15_730_18726" style="mask-type:luminance" maskUnits="userSpaceOnUse" x="55" y="131" width="370" height="58">
<path d="M55.3848 131.49H424.616V188.508H55.3848V131.49Z" fill="white"/>
</mask>
<g mask="url(#mask15_730_18726)">
<path fill-rule="evenodd" clip-rule="evenodd" d="M362.358 175.255H360.355V172.019H362.513C363.437 172.173 363.9 172.173 364.208 173.252V173.868C363.9 174.947 363.591 175.101 362.358 175.255ZM353.883 167.55V187.738L354.345 188.046H360.047L360.355 187.738L360.509 180.033L360.663 180.187H360.817C361.434 180.495 361.742 180.957 362.05 181.574C363.129 183.731 364.054 185.734 364.978 187.892L365.132 188.046L365.441 188.2H371.759L372.221 187.584V187.429L372.067 187.121C371.451 185.888 370.834 184.502 370.372 183.269C370.064 182.498 369.601 181.574 369.139 180.803C368.677 180.187 368.369 179.57 367.598 179.108L367.444 178.954V178.8L367.598 178.646C369.293 177.875 370.218 176.334 370.68 174.331V171.711C369.91 168.475 368.06 167.396 364.978 167.242L364.516 167.088H354.345L353.883 167.55Z" fill="#2E3192"/>
</g>
<mask id="mask16_730_18726" style="mask-type:luminance" maskUnits="userSpaceOnUse" x="55" y="131" width="370" height="58">
<path d="M55.3848 131.49H424.616V188.508H55.3848V131.49Z" fill="white"/>
</mask>
<g mask="url(#mask16_730_18726)">
<path fill-rule="evenodd" clip-rule="evenodd" d="M326.453 159.23V138.888L326.915 138.426H332.463V145.515H337.086V138.426H343.25L342.942 159.23H336.932V151.062H332.309V159.23H326.453Z" fill="#2E3192"/>
</g>
<mask id="mask17_730_18726" style="mask-type:luminance" maskUnits="userSpaceOnUse" x="55" y="131" width="370" height="58">
<path d="M55.3848 131.49H424.616V188.508H55.3848V131.49Z" fill="white"/>
</mask>
<g mask="url(#mask17_730_18726)">
<path fill-rule="evenodd" clip-rule="evenodd" d="M346.332 159.384V138.271H359.893V143.665H352.496V145.514H360.201L360.047 150.754H352.496V153.065H360.355V159.229H351.88L346.332 159.384Z" fill="#2E3192"/>
</g>
<mask id="mask18_730_18726" style="mask-type:luminance" maskUnits="userSpaceOnUse" x="55" y="131" width="370" height="58">
<path d="M55.3848 131.49H424.616V188.508H55.3848V131.49Z" fill="white"/>
</mask>
<g mask="url(#mask18_730_18726)">
<path fill-rule="evenodd" clip-rule="evenodd" d="M395.644 138.578H403.657L396.415 146.746L403.195 159.228H396.723L392.254 151.369L390.559 153.218V159.228H384.395L384.549 138.578H390.559V144.126L395.644 138.578Z" fill="#2E3192"/>
</g>
<mask id="mask19_730_18726" style="mask-type:luminance" maskUnits="userSpaceOnUse" x="55" y="131" width="370" height="58">
<path d="M55.3848 131.49H424.616V188.508H55.3848V131.49Z" fill="white"/>
</mask>
<g mask="url(#mask19_730_18726)">
<path fill-rule="evenodd" clip-rule="evenodd" d="M316.283 159.846C309.964 159.846 304.879 154.914 304.879 148.904C304.879 143.048 309.964 138.117 316.283 138.117C319.827 138.117 322.909 139.658 324.912 141.816L320.135 146.285C319.365 145.052 317.978 144.281 316.283 144.281C313.663 144.281 311.505 146.285 311.505 148.75C311.505 151.216 313.663 153.373 316.283 153.373C317.978 153.373 319.365 152.603 320.289 151.37L325.221 155.993C323.371 157.996 320.752 159.538 317.978 159.538C317.361 159.846 316.899 159.846 316.283 159.846Z" fill="#2E3192"/>
</g>
<mask id="mask20_730_18726" style="mask-type:luminance" maskUnits="userSpaceOnUse" x="55" y="131" width="370" height="58">
<path d="M55.3848 131.49H424.616V188.508H55.3848V131.49Z" fill="white"/>
</mask>
<g mask="url(#mask20_730_18726)">
<path fill-rule="evenodd" clip-rule="evenodd" d="M299.483 138.426H306.109L305.801 139.35L299.02 158.767L298.866 159.23H292.856L292.702 158.767L285.922 139.35L285.613 138.426H292.548L292.702 138.888L296.092 148.288L299.328 138.888L299.483 138.426Z" fill="#2E3192"/>
</g>
<mask id="mask21_730_18726" style="mask-type:luminance" maskUnits="userSpaceOnUse" x="55" y="131" width="370" height="58">
<path d="M55.3848 131.49H424.616V188.508H55.3848V131.49Z" fill="white"/>
</mask>
<g mask="url(#mask21_730_18726)">
<path fill-rule="evenodd" clip-rule="evenodd" d="M369.91 159.075H363.438V138.271H369.602L369.91 138.58L374.687 147.518V138.271H381.159V159.075H375.612L375.303 158.921L369.91 149.213V158.459V159.075Z" fill="#2E3192"/>
</g>
<mask id="mask22_730_18726" style="mask-type:luminance" maskUnits="userSpaceOnUse" x="55" y="131" width="370" height="58">
<path d="M55.3848 131.49H424.616V188.508H55.3848V131.49Z" fill="white"/>
</mask>
<g mask="url(#mask22_730_18726)">
<path fill-rule="evenodd" clip-rule="evenodd" d="M413.212 137.346C419.53 137.346 424.616 142.585 424.616 148.749C424.616 155.068 419.376 160.153 413.212 160.153C407.048 160.153 401.809 155.068 401.809 148.749C401.809 147.671 401.809 146.13 402.425 145.051L408.743 138.27C409.976 137.654 411.209 137.346 413.212 137.346ZM413.212 144.126C415.832 144.126 417.989 146.284 417.989 148.903C417.989 151.523 415.832 153.681 413.212 153.681C410.592 153.681 408.435 151.523 408.435 148.903C408.435 146.13 410.592 144.126 413.212 144.126Z" fill="#2E3192"/>
</g>
<mask id="mask23_730_18726" style="mask-type:luminance" maskUnits="userSpaceOnUse" x="55" y="131" width="370" height="58">
<path d="M55.3848 131.49H424.616V188.508H55.3848V131.49Z" fill="white"/>
</mask>
<g mask="url(#mask23_730_18726)">
<path fill-rule="evenodd" clip-rule="evenodd" d="M283.303 159.074H277.139L277.293 132.414H283.303V159.074Z" fill="#2E3192"/>
</g>
<mask id="mask24_730_18726" style="mask-type:luminance" maskUnits="userSpaceOnUse" x="55" y="131" width="370" height="58">
<path d="M55.3848 131.49H424.616V188.508H55.3848V131.49Z" fill="white"/>
</mask>
<g mask="url(#mask24_730_18726)">
<path fill-rule="evenodd" clip-rule="evenodd" d="M326.453 159.23V138.888L326.915 138.426H332.463V145.515H337.086V138.426H343.25L342.942 159.23H336.932V151.062H332.309V159.23H326.453Z" fill="#2E3192"/>
</g>
<mask id="mask25_730_18726" style="mask-type:luminance" maskUnits="userSpaceOnUse" x="55" y="131" width="370" height="58">
<path d="M55.3848 131.49H424.616V188.508H55.3848V131.49Z" fill="white"/>
</mask>
<g mask="url(#mask25_730_18726)">
<path fill-rule="evenodd" clip-rule="evenodd" d="M346.332 159.384V138.271H359.893V143.665H352.496V145.514H360.201L360.047 150.754H352.496V153.065H360.355V159.229H351.88L346.332 159.384Z" fill="#2E3192"/>
</g>
<mask id="mask26_730_18726" style="mask-type:luminance" maskUnits="userSpaceOnUse" x="55" y="131" width="370" height="58">
<path d="M55.3848 131.49H424.616V188.508H55.3848V131.49Z" fill="white"/>
</mask>
<g mask="url(#mask26_730_18726)">
<path fill-rule="evenodd" clip-rule="evenodd" d="M395.644 138.578H403.657L396.415 146.746L403.195 159.228H396.723L392.254 151.369L390.559 153.218V159.228H384.395L384.549 138.578H390.559V144.126L395.644 138.578Z" fill="#2E3192"/>
</g>
<mask id="mask27_730_18726" style="mask-type:luminance" maskUnits="userSpaceOnUse" x="55" y="131" width="370" height="58">
<path d="M55.3848 131.49H424.616V188.508H55.3848V131.49Z" fill="white"/>
</mask>
<g mask="url(#mask27_730_18726)">
<path fill-rule="evenodd" clip-rule="evenodd" d="M316.283 159.846C309.964 159.846 304.879 154.914 304.879 148.904C304.879 143.048 309.964 138.117 316.283 138.117C319.827 138.117 322.909 139.658 324.912 141.816L320.135 146.285C319.365 145.052 317.978 144.281 316.283 144.281C313.663 144.281 311.505 146.285 311.505 148.75C311.505 151.216 313.663 153.373 316.283 153.373C317.978 153.373 319.365 152.603 320.289 151.37L325.221 155.993C323.371 157.996 320.752 159.538 317.978 159.538C317.361 159.846 316.899 159.846 316.283 159.846Z" fill="#2E3192"/>
</g>
<mask id="mask28_730_18726" style="mask-type:luminance" maskUnits="userSpaceOnUse" x="55" y="131" width="370" height="58">
<path d="M55.3848 131.49H424.616V188.508H55.3848V131.49Z" fill="white"/>
</mask>
<g mask="url(#mask28_730_18726)">
<path fill-rule="evenodd" clip-rule="evenodd" d="M299.483 138.426H306.109L305.801 139.35L299.02 158.767L298.866 159.23H292.856L292.702 158.767L285.922 139.35L285.613 138.426H292.548L292.702 138.888L296.092 148.288L299.328 138.888L299.483 138.426Z" fill="#2E3192"/>
</g>
<mask id="mask29_730_18726" style="mask-type:luminance" maskUnits="userSpaceOnUse" x="55" y="131" width="370" height="58">
<path d="M55.3848 131.49H424.616V188.508H55.3848V131.49Z" fill="white"/>
</mask>
<g mask="url(#mask29_730_18726)">
<path fill-rule="evenodd" clip-rule="evenodd" d="M369.91 159.075H363.438V138.271H369.602L369.91 138.58L374.687 147.518V138.271H381.159V159.075H375.612L375.303 158.921L369.91 149.213V158.459V159.075Z" fill="#2E3192"/>
</g>
<mask id="mask30_730_18726" style="mask-type:luminance" maskUnits="userSpaceOnUse" x="55" y="131" width="370" height="58">
<path d="M55.3848 131.49H424.616V188.508H55.3848V131.49Z" fill="white"/>
</mask>
<g mask="url(#mask30_730_18726)">
<path fill-rule="evenodd" clip-rule="evenodd" d="M413.212 137.346C419.53 137.346 424.616 142.585 424.616 148.749C424.616 155.068 419.376 160.153 413.212 160.153C407.048 160.153 401.809 155.068 401.809 148.749C401.809 147.671 401.809 146.13 402.425 145.051L408.743 138.27C409.976 137.654 411.209 137.346 413.212 137.346ZM413.212 144.126C415.832 144.126 417.989 146.284 417.989 148.903C417.989 151.523 415.832 153.681 413.212 153.681C410.592 153.681 408.435 151.523 408.435 148.903C408.435 146.13 410.592 144.126 413.212 144.126Z" fill="#2E3192"/>
</g>
<mask id="mask31_730_18726" style="mask-type:luminance" maskUnits="userSpaceOnUse" x="55" y="131" width="370" height="58">
<path d="M55.3848 131.49H424.616V188.508H55.3848V131.49Z" fill="white"/>
</mask>
<g mask="url(#mask31_730_18726)">
<path fill-rule="evenodd" clip-rule="evenodd" d="M283.303 159.074H277.139L277.293 132.414H283.303V159.074Z" fill="#2E3192"/>
</g>
<mask id="mask32_730_18726" style="mask-type:luminance" maskUnits="userSpaceOnUse" x="55" y="131" width="370" height="58">
<path d="M55.3848 131.49H424.616V188.508H55.3848V131.49Z" fill="white"/>
</mask>
<g mask="url(#mask32_730_18726)">
<path fill-rule="evenodd" clip-rule="evenodd" d="M232.912 138.271H263.578L250.326 150.754H262.346L250.634 163.39L262.191 175.256H250.326L263.578 188.201H232.758L220.43 175.256H212.57V167.397H230.446L237.843 174.794L250.326 175.256L238.151 163.082L250.326 150.754H238.151L230.446 158.613H212.57V150.754H220.43L232.912 138.271Z" fill="#2E3192"/>
</g>
<mask id="mask33_730_18726" style="mask-type:luminance" maskUnits="userSpaceOnUse" x="55" y="131" width="370" height="58">
<path d="M55.3848 131.49H424.616V188.508H55.3848V131.49Z" fill="white"/>
</mask>
<g mask="url(#mask33_730_18726)">
<path fill-rule="evenodd" clip-rule="evenodd" d="M167.109 138.117V143.973L172.657 138.117H181.595L173.582 146.592L181.133 159.383H174.044L169.113 151.524L167.109 153.373L167.264 159.537H160.483L160.637 138.271H167.109V138.117ZM67.713 159.383L74.6476 159.537L74.8017 138.271H68.0212L62.7817 147.363C62.7817 142.123 62.6276 136.73 62.6276 131.49H55.5389L55.3848 159.383H61.3948L67.713 148.904V159.383ZM90.5202 138.117C94.9892 138.733 98.9959 145.205 94.5269 148.442C94.8351 148.596 95.7598 148.75 96.068 149.058C100.075 153.219 96.6844 158.304 93.9105 159.075C92.8318 159.383 90.9826 159.229 89.5956 159.229H79.5789L79.2707 138.117H90.5202ZM90.3661 151.524C90.8285 151.832 90.8285 152.911 90.3661 153.219C89.1333 153.989 87.2841 153.527 85.8972 153.527L85.7431 151.215C86.9759 151.215 89.2874 150.753 90.3661 151.524ZM85.7431 143.818V145.514C86.5136 145.514 90.212 146.13 89.9038 144.281C89.5956 143.202 86.2054 143.818 85.7431 143.818ZM135.518 159.383L120.262 159.537L120.108 138.117H135.056V143.664H127.043V145.514H135.21L135.056 150.907H126.889V153.527H135.364L135.518 159.383ZM190.841 136.884C197.468 136.884 202.707 142.277 202.707 148.75C202.707 155.376 197.468 160.77 190.841 160.77C184.215 160.77 178.975 155.376 178.975 148.75C178.975 147.517 178.821 146.13 179.592 144.897L186.064 137.808C187.451 137.038 188.838 136.73 190.841 136.884ZM190.841 143.818C197.314 143.818 197.314 153.835 190.841 153.835C184.369 153.835 184.369 143.818 190.841 143.818ZM105.931 138.117L105.776 145.668L110.245 145.822L110.4 138.117H117.026L116.872 159.383H110.245V151.524H99.4582L99.6123 138.117H105.931ZM145.381 151.215L145.227 159.383H138.909V138.579L139.371 138.117H145.535L145.381 145.36H150.466L150.62 138.117H157.247L156.939 159.383H150.312L150.466 151.215H145.381Z" fill="#2E3192"/>
</g>
</svg>
