<svg width="480" height="320" viewBox="0 0 480 320" fill="none" xmlns="http://www.w3.org/2000/svg">
<path d="M159.963 131.232C151.709 133.469 146.205 136.047 143.626 138.627C141.39 140.863 139.843 143.787 138.638 147.57C124.708 185.579 117.486 206.042 116.969 208.623C115.249 213.436 115.937 216.533 119.033 217.737C121.785 219.113 125.052 217.561 129.007 212.917C136.058 205.007 146.034 190.391 159.275 169.066C171.313 149.117 177.677 137.595 178.538 134.671C179.053 132.092 177.161 130.372 172.861 129.857C168.562 129.34 164.263 129.685 159.963 131.233V131.232Z" fill="#F38F1F"/>
<path d="M268.993 102.34C276.389 95.2888 279.142 89.4417 277.592 85.142C276.045 81.187 270.369 79.9821 260.912 81.5295C235.975 85.8292 211.555 93.0531 187.306 102.855C185.415 103.715 171.829 109.907 146.894 121.6C143.97 122.977 142.767 124.18 143.282 125.213C143.798 126.416 147.926 125.555 155.32 122.632L189.887 109.39C210.523 103.2 220.843 104.059 220.843 111.97C220.843 113.688 214.824 121.43 202.958 135.359C186.448 153.931 172.002 173.024 159.619 192.795C152.568 203.635 147.752 213.434 144.829 222.546C141.906 232.526 142.25 239.233 146.035 242.499C151.881 247.829 161.511 247.66 174.926 241.981L226.345 217.909C247.326 208.79 270.886 202.774 297.199 200.02L330.047 197.789C331.249 196.235 328.155 194.69 320.759 193.312L290.32 190.907C258.161 190.389 227.205 193.487 197.454 200.536C194.186 201.055 191.779 200.362 190.231 198.473C188.339 196.068 189.027 192.796 192.122 188.843C212.072 162.359 237.696 133.466 268.994 102.34H268.993ZM182.492 99.072C186.275 96.4926 188.338 93.9121 188.51 91.5057C188.683 88.9263 186.962 87.0341 183.695 86.0022L170.97 86.3446C165.98 87.2059 161.682 89.0981 158.071 91.6775C154.459 94.2569 152.395 97.0092 152.051 99.5874C151.881 101.995 153.428 103.715 156.867 104.747L169.422 104.403C174.237 103.372 178.536 101.65 182.492 99.072Z" fill="#F38F1F"/>
<path d="M247.325 155.136C247.325 162.529 249.217 168.723 252.829 173.534C256.784 178.87 262.286 181.619 269.338 181.619C276.389 181.619 281.721 179.039 285.159 173.709C286.191 178.01 289.287 180.24 294.274 180.417H299.434C300.811 180.417 301.497 179.73 301.497 178.353V173.192C301.326 171.989 300.81 171.303 299.606 171.471H298.744L297.542 170.786C296.853 169.751 296.511 168.723 296.682 167.862V130.201C296.511 128.654 295.821 127.792 294.448 127.792H287.051C285.504 127.792 284.644 128.48 284.644 129.856L284.3 132.607C281.376 128.654 276.733 126.589 270.543 126.589C264.178 126.589 258.847 128.996 254.548 133.811C249.733 138.971 247.325 146.022 247.325 155.137V155.136ZM272.951 137.078C277.766 137.078 281.376 138.97 283.784 142.925V163.561C281.549 168.38 277.593 170.786 272.261 170.786C264.695 170.786 260.913 165.282 260.913 154.276C260.913 142.753 264.867 137.078 272.951 137.078ZM322.479 130.544C322.479 128.653 321.618 127.791 319.725 127.791H312.16C310.269 127.791 309.236 128.653 309.236 130.545V177.668C309.236 179.556 310.269 180.417 312.16 180.417H319.727C321.618 180.417 322.478 179.556 322.478 177.668L322.479 130.544ZM363.064 129.339V128.308L361.86 126.931L358.765 126.587C353.777 126.587 349.478 128.823 345.867 133.468V129.855C345.867 128.478 345.007 127.791 343.114 127.791H336.237C334.345 127.791 333.485 128.653 333.485 130.542V177.661C333.485 179.556 334.345 180.417 335.892 180.417H343.803C345.697 180.417 346.554 179.556 346.554 177.661V143.098C349.478 139.658 353.09 137.938 357.045 137.938L359.796 138.283H360.313L361.86 136.733L363.064 129.339ZM322.993 116.27C322.993 111.97 320.587 109.734 315.772 109.734C310.956 109.734 308.549 111.97 308.549 116.615C308.549 121.085 310.956 123.32 315.772 123.32C320.587 123.32 322.993 120.912 322.993 116.27Z" fill="#197FB0"/>
</svg>
