<svg width="480" height="320" viewBox="0 0 480 320" fill="none" xmlns="http://www.w3.org/2000/svg">
<path d="M72.6426 170.535H73.9476L73.8913 168.98" fill="#CC0000"/>
<path d="M80.0861 162.154C76.6092 165.54 71.4098 163.378 71.9384 159.223C72.3463 156.018 76.2756 152.826 79.249 151.093L79.2504 151.056C78.8627 150.687 78.0544 149.848 77.5331 149.218C76.0917 147.485 73.5705 147.411 72.0646 149.313L63.5106 150.111V150.164L72.6815 150.695C74.3091 150.787 74.8385 152.261 73.2695 153.451C67.4457 157.86 66.4076 162.533 67.7089 166.234L67.6651 166.254C67.1298 165.497 66.7301 164.57 66.5129 163.597C63.7137 161.839 61.4439 158.493 61.4439 154.363C61.4439 148.357 66.3379 143.413 72.3923 143.413C78.4467 143.413 83.3421 148.357 83.3421 154.363C83.3421 157.611 81.9184 160.37 80.0861 162.154M82.2254 172.427H76.9607L78.8278 167.565H81.1479L79.6717 171.397H82.6206L82.2254 172.427ZM74.0177 172.427L73.9821 171.47H71.8873L71.1154 172.427H69.2016L73.0856 167.925C73.271 167.711 73.5461 167.564 73.7989 167.564H75.8729L76.3371 172.427L74.0177 172.427ZM66.0798 172.591C65.4562 172.591 64.9142 172.527 64.4678 172.427L64.8638 171.394C65.9248 171.519 66.8347 171.427 67.1899 170.499L68.3177 167.564H70.6365L69.3951 170.799C68.7597 172.453 67.1936 172.591 66.0798 172.591ZM89.3349 161.497C89.4461 160.419 89.4172 158.876 89.2504 157.735H89.2215C88.8745 159.392 87.8008 161.635 85.4835 163.467L85.4576 163.434C87.4878 161.265 88.7017 158.592 88.89 155.838C88.5059 154.323 87.9127 152.857 87.1638 151.562L87.1379 151.572C87.5501 154.354 86.8916 158.028 84.1919 161.008L84.16 160.983C86.4846 157.637 87.0896 153.561 86.076 149.897C82.978 145.708 78.0025 142.99 72.3923 142.99C66.7828 142.99 61.8081 145.708 58.7093 149.897C57.6949 153.561 58.2999 157.636 60.6246 160.983L60.5949 161.008C57.8944 158.028 57.2374 154.354 57.6497 151.572L57.6223 151.562C56.8733 152.857 56.2793 154.323 55.8975 155.838C56.0843 158.592 57.2967 161.265 59.3277 163.434L59.3025 163.467C56.9845 161.635 55.9116 159.392 55.5646 157.735H55.5356C55.3688 158.876 55.3399 160.419 55.4511 161.497C56.0347 163.329 57.2849 164.865 58.5632 165.972L58.5402 166.008C57.1128 165.119 56.3135 164.25 55.7685 163.483L55.744 163.493C57.3123 171.13 64.1593 177.008 72.3923 177.008C80.6267 177.008 87.4723 171.13 89.0421 163.493L89.0176 163.483C88.4733 164.25 87.6732 165.119 86.2458 166.008L86.2236 165.972C87.5012 164.865 88.75 163.329 89.335 161.497" fill="#CC0000"/>
<path d="M422.315 163.142C420.54 167.757 414.42 169.187 407.807 169.187C401.191 169.187 396.95 167.751 397.942 163.142H406.346C406.126 164.376 406.873 165.161 409.358 165.161C411.841 165.161 413.449 164.355 413.906 163.142C415.068 160.13 398.437 163.074 401.083 156.176C402.565 152.317 408.401 150.502 414.982 150.502C421.56 150.502 425.303 151.925 424.51 156.174H416.27C416.402 155.036 416.049 154.173 413.575 154.173C411.096 154.173 409.772 155.052 409.342 156.176C408.148 159.253 424.956 156.257 422.315 163.142M275.224 168.663H266.817L273.586 151.037H281.995M338.794 168.663H330.395L337.161 151.037H345.56M392.943 168.663H372.515L379.276 151.037H399.715L398.416 154.42H386.383L385.017 157.978H395.022L393.725 161.356H383.718L382.352 164.925H394.376M225.929 168.663H219.133L213.434 158.252L209.435 168.663H202.653L209.414 151.037H217.309L222.347 160.299L225.896 151.037H232.695M367.3 168.663H360.499L354.8 158.252L350.801 168.663H344.021L350.785 151.037H358.681L363.713 160.299L367.263 151.037H374.066M123.864 162.762C121.565 168.757 115.89 169.254 111.851 169.254C109.587 169.254 107.629 169.026 106.01 168.663L107.446 164.927C111.294 165.377 114.589 165.038 115.874 161.679L119.962 151.04H128.369M172.091 156.655C171.594 157.943 170.01 158.885 168.48 158.885H163.816L165.53 154.423H170.209C171.731 154.423 172.584 155.372 172.091 156.655ZM171.489 151.04H158.422L151.655 168.666H160.059L162.515 162.268H167.186C174.953 162.268 179.135 160.189 180.493 156.655C181.848 153.124 179.266 151.04 171.489 151.04ZM300.872 156.655C300.371 157.943 298.787 158.885 297.263 158.885H292.594L294.307 154.423H298.986C300.514 154.423 301.366 155.372 300.872 156.655ZM300.272 151.04H287.202L280.438 168.666H288.842L291.295 162.268H293.834L295.498 168.666H304.674L302.426 161.628C306.151 160.756 308.361 159.043 309.27 156.655C310.636 153.124 308.047 151.04 300.272 151.04M318.683 164.927L324.024 151.04H315.62L308.862 168.666H327.937L329.373 164.927M136.135 161.813L140.659 156.174L140.869 161.813H136.135ZM147.845 151.04H140.328C139.414 151.04 138.416 151.575 137.749 152.344L123.662 168.666H130.609L133.403 165.196H140.995L141.127 168.666H149.534M187.122 161.813L191.651 156.174L191.855 161.813H187.122ZM198.834 151.04H191.315C190.403 151.04 189.405 151.575 188.733 152.344L174.654 168.666H181.595L184.392 165.196H191.982L192.111 168.666H200.52M251.286 161.813L255.815 156.174L256.025 161.813H251.286ZM263.001 151.04H255.484C254.564 151.04 253.572 151.575 252.9 152.344L238.816 168.666H245.765L248.554 165.196H256.146L256.28 168.666H264.679" fill="black"/>
</svg>
