<svg width="480" height="320" viewBox="0 0 480 320" fill="none" xmlns="http://www.w3.org/2000/svg">
<path d="M351.408 188.446H400.238V214.994H321.068V95.5273H351.408V188.446ZM282.664 191.766C285.478 186.987 288.21 182.159 290.857 177.285L307.314 215H274.131L271.657 208.882C271.66 208.876 279.863 196.527 282.664 191.766ZM255.169 95.5273H225.778L173.629 214.994H207.288L239.997 130.605L255.345 168.549C261.788 156.181 266.713 143.079 270.012 129.528L255.169 95.5273ZM139.498 95.5273H169.836V173.278C169.836 220.682 124.799 219.263 124.799 219.263C94.9364 219.261 79.7627 198.876 79.7627 198.876L103.464 180.859C111.999 193.186 123.38 192.235 123.38 192.235C137.603 192.235 139.5 174.695 139.5 174.695V95.5273H139.498Z" fill="black"/>
<path d="M302.578 53.334C319.644 205.512 199.228 266.667 199.228 266.667C308.741 176.592 272.711 53.334 272.711 53.334H302.578Z" fill="#E21F2A"/>
<path d="M272.712 53.334C292.626 186.076 185.482 242.014 185.482 242.014L199.235 266.665C309.691 173.749 272.712 53.334 272.712 53.334Z" fill="url(#paint0_linear_730_18667)"/>
<defs>
<linearGradient id="paint0_linear_730_18667" x1="232.073" y1="266.665" x2="232.073" y2="53.3321" gradientUnits="userSpaceOnUse">
<stop stop-color="#7A7C7F"/>
<stop offset="0.35" stop-color="#F5F5F5"/>
<stop offset="1" stop-color="#7A7C7F"/>
</linearGradient>
</defs>
</svg>
