<svg width="480" height="320" viewBox="0 0 480 320" fill="none" xmlns="http://www.w3.org/2000/svg">
<path d="M155.095 174.604C142.25 208.086 110.563 210.86 88.0032 210.86C75.3647 210.86 64.4272 209.583 55.3848 207.559L63.4074 186.698C84.8952 189.207 103.29 187.312 110.473 168.551L133.297 109.139H180.246M348.012 170.838L373.876 138.598L375.068 170.838H348.012ZM414.954 109.245H371.981C366.757 109.245 361.051 112.307 357.238 116.71L276.011 210.814H315.724L332.395 190.187H375.796L376.554 210.814H424.616" fill="black"/>
<path d="M202.982 109.645L193.811 132.476H228.66L201.147 210.485H247.003L274.517 132.476H309.367L318.539 109.645H202.982Z" fill="black" stroke="black" stroke-width="0.757277"/>
</svg>
