<svg width="480" height="320" viewBox="0 0 480 320" fill="none" xmlns="http://www.w3.org/2000/svg">
<path d="M189.651 92.9727H229.93L276.923 213.812H243.357L209.79 133.924L176.224 213.812H142.658L189.651 92.9727ZM109.091 92.9727H135.944V176.889C135.944 176.889 135.886 213.093 88.9512 213.812C68.1937 214.14 55.3848 198.371 55.3848 198.371L68.8113 180.245C68.8113 180.245 79.7339 190.29 88.9512 190.315C108.806 190.369 109.091 173.532 109.091 173.532V92.9727Z" fill="black"/>
<path d="M243.357 56.0508H270.21C270.21 56.0508 266.794 163.974 243.357 196.358C220.238 228.304 172.867 264.163 172.867 264.163L152.728 240.666C152.728 240.666 210.164 201.931 226.574 173.533C243.153 144.841 243.357 56.0508 243.357 56.0508Z" fill="#E11E28" stroke="white" stroke-width="1.67832"/>
<path d="M243.357 56.0508C243.357 56.0508 251.834 160.034 226.574 197.03C201.314 234.026 172.867 264.163 172.867 264.163L152.728 240.666C152.728 240.666 208.15 201.931 224.56 173.533C241.14 144.841 243.357 56.0508 243.357 56.0508Z" fill="white"/>
<path d="M244.352 55.3789C244.352 55.3789 252.828 159.362 227.569 196.358C202.309 233.354 173.863 263.491 173.863 263.491L153.723 239.994C153.723 239.994 209.146 201.259 225.555 172.861C242.135 144.169 244.352 55.3789 244.352 55.3789Z" fill="url(#paint0_linear_730_18306)"/>
<path d="M337.343 92.9727H377.622L424.615 213.812H391.049L357.482 133.924L323.916 213.812H290.35L337.343 92.9727Z" fill="black"/>
<defs>
<linearGradient id="paint0_linear_730_18306" x1="153.723" y1="159.435" x2="245.719" y2="159.435" gradientUnits="userSpaceOnUse">
<stop stop-color="#808080"/>
<stop offset="0.25" stop-color="#808080"/>
<stop offset="0.5" stop-color="#808080" stop-opacity="0.644"/>
<stop offset="1" stop-color="#808080"/>
</linearGradient>
</defs>
</svg>
