<svg width="480" height="320" viewBox="0 0 480 320" fill="none" xmlns="http://www.w3.org/2000/svg">
<path fill-rule="evenodd" clip-rule="evenodd" d="M240.001 66.8359C336.389 66.8359 414.529 108.546 414.529 160C414.529 211.453 336.389 253.164 240.001 253.164C143.612 253.164 65.4727 211.454 65.4727 160C65.4727 108.546 143.612 66.8359 240.001 66.8359Z" fill="#DF0915"/>
<path d="M240 253.165C336.39 253.165 414.528 211.454 414.528 160.001C414.528 108.547 336.39 66.8365 240 66.8365C143.612 66.8365 65.4722 108.547 65.4722 160.001C65.4722 211.454 143.612 253.165 240 253.165ZM240 263.253C191.755 263.253 146.24 253.14 111.84 234.778C94.5828 225.565 80.9368 214.716 71.2814 202.529C60.7333 189.217 55.3848 174.908 55.3848 160.001C55.3848 145.093 60.7333 130.785 71.2814 117.472C80.9368 105.286 94.5828 94.4366 111.84 85.2239C146.24 66.8614 191.755 56.748 240 56.748C288.246 56.748 333.76 66.8614 368.16 85.2239C385.417 94.4366 399.063 105.286 408.719 117.472C419.267 130.785 424.616 145.093 424.616 160.001C424.616 174.908 419.267 189.217 408.719 202.529C399.063 214.716 385.417 225.565 368.16 234.778C333.76 253.14 288.246 263.253 240 263.253Z" fill="white"/>
<path d="M168.684 186.246C163.935 192.808 153.368 204.473 136.566 205.24C120.978 205.952 107.556 201.183 105.138 182.793C104.268 177.692 104.852 174.138 104.852 174.138L114.463 174.159C114.463 174.159 114.51 179.703 117.226 184.174C119.233 187.477 123.339 189.129 126.446 189.121C130.381 189.111 135.21 187.129 138.983 182.102C142.756 177.075 170.411 127.19 170.411 127.19H133.111L139.328 116.83H208.744C208.745 116.83 173.432 179.684 168.684 186.246ZM248.115 205.24H218.76L224.286 187.973H196.312L180.771 205.24H166.266L246.388 116.484H275.743L248.115 205.24ZM205.636 177.612H227.393L239.826 139.623L205.636 177.612ZM361.391 127.19H342.051L297.154 205.24H264.692L309.242 127.19H285.413L291.629 116.484H367.262L361.391 127.19Z" fill="white"/>
</svg>
