<svg width="480" height="320" viewBox="0 0 480 320" fill="none" xmlns="http://www.w3.org/2000/svg">
<path d="M366.575 126.271L360.543 141.351L388.732 126.333L366.575 126.271Z" fill="#00A7E1"/>
<path d="M136.998 167.816H160.509L165.433 155.014H141.798L146.784 142.396H170.295L175.65 128.732H131.274L107.27 193.051H153.431L158.786 179.264H132.443L136.998 167.816Z" fill="#F15A22"/>
<path d="M165.988 179.264L160.51 193.112C172.696 194.405 183.098 192.989 183.098 192.989C190.299 192.312 202.424 189.973 208.949 174.278L227.167 128.732H206.364L190.422 168.124C190.422 168.124 187.899 176.679 178.79 178.956C175.528 179.818 169.619 179.449 165.988 179.264Z" fill="#F15A22"/>
<path d="M60.8626 179.264L55.3848 193.112C67.5714 194.405 77.9116 192.989 77.9116 192.989C85.1128 192.312 97.2379 189.973 103.762 174.278L121.98 128.732H101.115L85.1743 168.124C85.1743 168.124 82.6509 176.679 73.5416 178.956C70.4027 179.818 64.4324 179.449 60.8626 179.264Z" fill="#F15A22"/>
<path d="M271.667 128.732L256.402 169.97C252.771 179.202 249.447 179.695 244.4 179.695C238.492 179.695 239.969 174.832 240.769 172.001L257.079 128.732H236.461L219.658 173.971C213.811 190.096 227.167 193.482 233.753 193.482H244.524C250.432 193.482 269.02 191.881 274.682 176.679L292.408 128.794H271.667V128.732Z" fill="#F15A22"/>
<path d="M340.848 193.667H359.558L378.577 142.52H359.928L340.848 193.667Z" fill="#F15A22"/>
<path d="M420.676 142.52C410.644 142.52 404.796 148.305 401.719 151.998L405.473 142.52H386.824L367.744 193.667H386.455L395.564 169.416C400.242 158.522 410.213 157.845 411.936 157.845H419.014L424.615 142.52H420.676Z" fill="#F15A22"/>
<path d="M321.336 175.265C321.336 175.265 318.874 182.835 308.288 182.835C306.688 182.835 304.472 181.912 304.841 179.019C305.21 175.819 307.303 174.588 309.95 174.034L322.69 171.633L321.336 175.265ZM307.242 164.802C295.363 166.094 285.823 171.51 284.592 181.666C283.976 186.713 286.438 193.668 299.794 193.668C299.794 193.668 309.827 194.037 316.043 189.79L314.566 193.729H332.846L345.402 159.385L346.079 157.6C347.802 152.923 347.741 142.582 325.706 142.09C316.412 141.905 301.21 143.69 292.224 159.385H310.442C310.442 159.385 313.027 152.676 321.398 152.676C321.398 152.676 326.629 152.43 327.06 155.877C327.06 155.877 327.676 160.924 319.982 162.832C315.489 163.878 307.242 164.802 307.242 164.802Z" fill="#F15A22"/>
</svg>
