<svg width="480" height="320" viewBox="0 0 480 320" fill="none" xmlns="http://www.w3.org/2000/svg">
<path d="M420.492 161.967H421.183C421.514 161.967 421.739 161.917 421.859 161.821C421.979 161.721 422.041 161.59 422.041 161.429C422.041 161.329 422.01 161.232 421.953 161.151C421.897 161.069 421.815 161.007 421.713 160.969C421.61 160.928 421.42 160.907 421.139 160.907H420.492V161.967L420.492 161.967ZM419.927 163.943V160.43H421.136C421.549 160.43 421.85 160.463 422.032 160.524C422.213 160.587 422.368 160.707 422.474 160.867C422.585 161.028 422.641 161.2 422.641 161.382C422.641 161.636 422.547 161.859 422.363 162.049C422.178 162.239 421.935 162.348 421.631 162.371C421.754 162.421 421.853 162.485 421.926 162.556C422.07 162.693 422.243 162.927 422.448 163.252L422.875 163.943H422.184L421.874 163.387C421.628 162.951 421.429 162.679 421.28 162.567C421.177 162.488 421.025 162.447 420.826 162.45H420.492V163.943H419.927L419.927 163.943ZM421.358 159.415C420.899 159.415 420.454 159.532 420.021 159.766C419.588 160.003 419.248 160.337 419.005 160.776C418.759 161.212 418.636 161.666 418.636 162.14C418.636 162.608 418.756 163.059 418.999 163.489C419.239 163.919 419.573 164.256 420.006 164.496C420.436 164.736 420.887 164.856 421.359 164.856C421.827 164.856 422.278 164.736 422.708 164.496C423.141 164.256 423.478 163.92 423.715 163.489C423.955 163.059 424.075 162.608 424.075 162.14C424.075 161.666 423.952 161.212 423.709 160.776C423.466 160.337 423.126 160.003 422.69 159.766C422.257 159.532 421.812 159.415 421.359 159.415M421.359 158.873C421.903 158.873 422.439 159.014 422.96 159.298C423.481 159.576 423.888 159.98 424.18 160.504C424.47 161.025 424.616 161.569 424.616 162.14C424.616 162.699 424.47 163.243 424.186 163.762C423.899 164.28 423.495 164.681 422.98 164.968C422.462 165.254 421.923 165.398 421.359 165.398C420.794 165.398 420.252 165.254 419.737 164.968C419.219 164.681 418.818 164.28 418.528 163.762C418.241 163.243 418.098 162.699 418.098 162.14C418.098 161.569 418.241 161.025 418.534 160.504C418.827 159.98 419.233 159.576 419.754 159.298C420.275 159.014 420.811 158.873 421.358 158.873M171.902 159.773H157.439L152.527 165.127V165.276H170.254C172.944 165.276 174.483 164.998 175.599 164.322C177.501 163.125 178.002 161.57 178.002 156.825V138.745L171.931 138.759L171.902 159.773L171.902 159.773ZM184.726 165.276H211.685V159.697H190.504V154.39H205.652L210.45 149.127H190.505V144.069H211.685V138.724H184.726V165.276ZM239.173 149.249H223.698V144.106H239.173V149.249ZM235.98 138.723H217.595V165.277H223.733V154.632H237.162C240.608 154.632 241.793 154.473 242.759 153.914C244.413 152.875 245.2 150.484 245.2 146.339C245.2 144.586 244.843 142.911 244.158 141.433C243.228 139.443 241.038 138.723 235.98 138.723M272.218 149.249H256.739V144.106H272.218V149.249ZM269.024 138.723H250.639V165.277H256.777V154.632H270.21C273.652 154.632 274.838 154.473 275.806 153.914C277.457 152.875 278.248 150.484 278.248 146.339C278.248 144.586 277.885 142.911 277.206 141.433C276.272 139.443 274.085 138.723 269.024 138.723ZM336.997 149.249H321.913V144.305H343.205V138.723H325.575C318.111 138.723 316.138 140.401 316.138 146.738C316.138 150.526 316.961 152.794 318.685 153.994C319.548 154.591 321.053 154.831 323.672 154.831H338.109V160.012H316.533V165.275H334.52C339.438 165.275 340.225 165.196 341.554 164.4C343.349 163.361 343.849 161.69 343.849 156.825C343.849 154.474 343.635 152.996 343.132 152.001C342.236 150.206 340.082 149.249 336.997 149.249M408.112 138.723V159.453L392.024 138.723H383.088V165.275H389.188V144.984L404.845 165.275H414.247V138.723H408.112ZM283.41 165.276H310.369V159.697H289.188V154.39H304.336L309.13 149.127H289.188V144.069H310.369V138.724H283.41V165.276ZM349.81 165.276H376.769V159.697H355.589V154.39H370.736L375.534 149.127H355.589V144.069H376.769V138.724H349.81L349.81 165.276Z" fill="black"/>
<path d="M323.933 178.224L322.706 173.746H322.685L321.459 178.224H323.932H323.933ZM322.25 173.189H323.143L325.49 181.142H324.735L324.088 178.824H321.304L320.657 181.142H319.902L322.25 173.189ZM331.049 180.541H332.375C333.611 180.541 334.214 179.985 334.214 178.914C334.214 177.845 333.611 177.289 332.375 177.289H331.049L331.049 180.541ZM331.049 176.686H332.173C333.4 176.686 333.956 176.165 333.956 175.24C333.956 174.181 333.411 173.791 332.296 173.791H331.049V176.686ZM330.338 173.188H332.533C334.067 173.188 334.67 174.002 334.67 175.185C334.67 175.963 334.246 176.71 333.444 176.909V176.932C334.424 177.122 334.925 177.877 334.925 178.914C334.925 180.307 334.023 181.141 332.519 181.141H330.338V173.188ZM339.158 180.674C340.294 180.674 340.985 179.738 340.985 177.165C340.985 174.592 340.294 173.658 339.158 173.658C338.022 173.658 337.332 174.592 337.332 177.165C337.332 179.738 338.022 180.674 339.158 180.674ZM339.158 173.055C340.786 173.055 341.699 174.314 341.699 177.165C341.699 180.016 340.786 181.277 339.158 181.277C337.53 181.277 336.62 180.016 336.62 177.165C336.62 174.314 337.531 173.055 339.158 173.055ZM343.658 173.19H347.601V173.79H344.372V176.688H347.39V177.288H344.372V180.543H347.703V181.143H343.658V173.19ZM349.428 173.189H350.142V181.142H349.428V173.189ZM352.211 173.19H353.168L356.21 180.118H356.233V173.19H356.944V181.143H355.987L352.946 174.214H352.925V181.143H352.211V173.19H352.211ZM361.223 177.689V177.089H363.772V181.141H363.216V179.826H363.193C362.947 180.707 362.235 181.275 361.445 181.275C359.818 181.275 358.907 180.017 358.907 177.166C358.907 174.315 359.818 173.056 361.445 173.056C362.961 173.056 363.64 174.048 363.728 175.418H363.014C363.014 174.458 362.493 173.656 361.445 173.656C360.309 173.656 359.619 174.593 359.619 177.166C359.619 179.738 360.309 180.675 361.445 180.675C362.513 180.675 363.105 179.718 363.105 177.856V177.69H361.223V177.689ZM374.018 178.446C373.919 180.261 373.084 181.277 371.656 181.277C370.032 181.277 369.118 180.018 369.118 177.167C369.118 174.313 370.032 173.055 371.656 173.055C373.272 173.055 373.942 174.202 373.942 175.508H373.228C373.228 174.428 372.684 173.658 371.656 173.658C370.523 173.658 369.833 174.594 369.833 177.167C369.833 179.74 370.523 180.674 371.656 180.674C372.66 180.674 373.228 179.816 373.307 178.446H374.018ZM378.218 180.674C379.354 180.674 380.045 179.738 380.045 177.165C380.045 174.592 379.354 173.658 378.218 173.658C377.082 173.658 376.392 174.592 376.392 177.165C376.392 179.738 377.082 180.674 378.218 180.674ZM378.218 173.055C379.843 173.055 380.759 174.314 380.759 177.165C380.759 180.016 379.843 181.277 378.218 181.277C376.593 181.277 375.68 180.016 375.68 177.165C375.68 174.314 376.593 173.055 378.218 173.055ZM382.785 173.19H384.023L385.937 180.25H385.961L387.875 173.19H389.046V181.143H388.332V173.857H388.308L386.251 181.143H385.58L383.522 173.857H383.499V181.143H382.785L382.785 173.19ZM391.851 177.088H393.066C394.011 177.088 394.758 176.663 394.758 175.44C394.758 174.246 394.157 173.792 393.066 173.792H391.851V177.088ZM391.139 173.189H393.288C394.825 173.189 395.472 174.094 395.472 175.44C395.472 176.663 394.857 177.688 393.042 177.688H391.851V181.142H391.139V173.189ZM400.251 178.224L399.027 173.746H399.004L397.777 178.224H400.251ZM398.567 173.189H399.46L401.811 181.142H401.052L400.405 178.824H397.622L396.978 181.142H396.22L398.567 173.189ZM403.203 173.19H404.16L407.201 180.118H407.225V173.19H407.936V181.143H406.979L403.938 174.214H403.916V181.143H403.202V173.19H403.203ZM411.456 177.957L409.308 173.189H410.063L411.813 177.155L413.561 173.189H414.319L412.17 177.957V181.142H411.456V177.957Z" fill="#005DAA"/>
<path d="M106.934 154.535C106.088 154.333 105.148 154.123 104.256 153.915L67.2422 153.933C67.2422 153.933 73.8573 155.131 82.3812 156.808C90.1672 158.336 99.5487 160.271 106.934 162.053C122.418 165.8 133.881 171.807 133.881 171.807L149.594 153.893L142.999 153.895L133.881 164.286C133.881 164.286 122.418 158.283 106.934 154.536" fill="#C7C8CA"/>
<path d="M142.999 146.379L136.405 153.899L142.999 153.892L149.594 146.375L142.999 146.377V146.379ZM106.936 147.022C106.087 146.814 105.144 146.603 104.248 146.398L61.3164 146.414C61.3164 146.414 74.4739 147.723 83.5566 149.517C90.1865 150.829 97.7415 152.4 104.257 153.914L127.656 153.902C122.812 151.847 115.494 149.09 106.936 147.02" fill="#9D9FA2"/>
<path d="M133.883 156.769C133.883 156.769 131.577 155.563 127.657 153.9L104.258 153.914C105.151 154.122 106.09 154.333 106.936 154.535C122.418 158.281 133.883 164.285 133.883 164.285L142.998 153.891L136.403 153.898L133.883 156.769V156.769Z" fill="#737577"/>
<path d="M149.594 138.859L55.3848 138.897C55.3848 138.897 74.6424 140.235 83.8745 142.068C90.4253 143.362 97.8397 144.901 104.25 146.397L142.999 146.381L149.594 138.861V138.859Z" fill="#005DAA"/>
<path d="M127.656 153.901L136.402 153.899L142.997 146.379L104.248 146.398C105.144 146.606 106.086 146.816 106.935 147.021C115.491 149.091 122.809 151.848 127.656 153.903" fill="#003369"/>
<path d="M133.882 156.77L136.402 153.898L127.656 153.901C131.576 155.564 133.882 156.769 133.882 156.769" fill="#002355"/>
</svg>
