<svg width="480" height="320" viewBox="0 0 480 320" fill="none" xmlns="http://www.w3.org/2000/svg">
<path fill-rule="evenodd" clip-rule="evenodd" d="M417.227 142.103C417.38 138.1 416.536 134.714 414.535 132.251C408.379 124.941 393.68 129.867 381.828 143.179C369.9 156.493 365.284 173.191 371.362 180.501C377.517 187.814 392.216 182.964 404.144 169.652C405.992 167.497 407.761 165.266 409.223 163.032L389.602 161.033L417.998 157.338L386.675 152.874L424.615 148.951L393.68 145.795L417.227 142.103Z" fill="#FCAF1E"/>
<path fill-rule="evenodd" clip-rule="evenodd" d="M343.273 142.104C345.507 142.104 347.584 142.794 348.97 142.794C349.353 142.719 349.661 142.794 349.661 143.334C349.661 143.487 349.585 143.565 349.585 143.719C349.585 144.412 349.968 145.95 349.968 147.873C349.968 148.645 349.739 148.874 349.199 148.874C348.584 148.874 348.431 148.491 348.353 148.027C348.199 146.873 348.045 146.336 347.43 145.718C346.429 144.642 344.967 144.181 342.89 144.181C339.351 144.181 337.503 146.258 337.657 148.796C337.811 151.723 340.12 153.26 344.198 155.647C349.814 159.111 351.508 161.342 351.508 165.113C351.508 169.192 348.277 173.731 340.273 173.731C338.272 173.731 336.27 173.424 334.501 172.653C333.808 172.345 333.732 172.191 333.732 170.883C333.654 169.267 333.654 167.112 333.732 166.343C333.886 165.882 333.962 165.574 334.579 165.574C335.04 165.574 335.272 165.804 335.348 166.421C335.348 166.804 335.423 167.573 335.58 168.267C336.424 171.347 339.351 171.73 341.35 171.73C345.353 171.73 347.662 169.267 347.662 166.651C347.662 163.341 345.736 161.571 340.349 158.494C334.962 155.494 333.886 152.338 333.961 149.643C334.115 145.103 337.579 142.104 343.273 142.104ZM187.44 157.954C187.44 156.109 187.518 148.645 187.518 143.104C187.518 142.948 187.44 142.794 187.21 142.794H180.745C179.976 142.794 179.744 142.948 179.744 143.565C179.744 144.027 179.9 144.256 180.361 144.334C182.514 144.488 182.824 145.489 182.9 148.105C182.978 151.952 182.978 154.876 182.978 157.954C182.978 161.957 182.9 167.19 182.746 172.731C182.746 172.96 182.9 173.116 183.054 173.116H187.21C187.44 173.116 187.518 172.96 187.518 172.731C187.44 167.268 187.44 162.496 187.44 157.954H187.44ZM310.723 157.11C311.491 158.34 312.26 159.419 312.878 160.419C312.878 164.034 312.8 168.266 312.724 172.731C312.724 172.96 312.8 173.116 313.031 173.116H317.11C317.34 173.116 317.493 172.96 317.493 172.731C317.418 168.267 317.34 164.188 317.34 160.419C320.803 154.876 324.806 148.796 328.499 143.18C328.653 142.948 328.575 142.794 328.345 142.794H322.497C321.804 142.794 321.496 142.948 321.496 143.565C321.496 144.027 321.726 144.256 322.187 144.334C323.42 144.566 323.727 145.335 323.034 146.49C320.881 150.107 318.494 153.875 316.185 157.571C315.57 156.57 314.955 155.647 314.34 154.647C311.799 150.798 309.722 147.49 306.951 143.104C306.798 142.872 306.72 142.794 306.336 142.794H301.565C301.333 142.794 301.257 142.948 301.411 143.18C304.721 148.027 308.489 153.722 310.723 157.11ZM295.87 172.731C296.024 172.96 296.1 173.116 296.332 173.116H300.871C301.103 173.116 301.179 172.96 301.103 172.731C298.641 167.422 296.024 161.418 294.484 157.725C291.484 150.798 290.176 147.183 288.714 143.104C288.636 142.948 288.482 142.794 288.253 142.794H283.249C282.556 142.794 282.248 142.948 282.248 143.565C282.248 144.027 282.48 144.256 282.941 144.334C283.942 144.488 284.711 144.874 284.711 146.182C284.711 146.873 284.403 147.72 284.02 148.645C282.634 152.184 281.479 154.876 280.249 157.725C278.709 161.418 276.092 167.422 273.63 172.731C273.554 172.96 273.63 173.116 273.861 173.116H276.707C276.939 173.116 277.093 172.96 277.171 172.731C278.248 169.96 279.248 167.573 280.171 165.189H292.792C293.793 167.729 294.869 170.346 295.87 172.731H295.87ZM281.094 162.726C281.555 161.649 282.019 160.573 282.402 159.494C283.556 156.724 284.635 154.107 286.327 150.029C288.099 154.107 289.175 156.724 290.33 159.494C290.791 160.573 291.252 161.649 291.714 162.726H281.094ZM265.78 142.794C265.087 142.794 264.779 142.948 264.779 143.565C264.779 144.027 265.087 144.256 265.472 144.334C266.781 144.566 267.088 145.643 266.705 146.951C265.472 150.336 264.472 153.339 263.395 156.416C262.473 159.033 261.548 161.571 260.239 165.342C258.777 161.418 257.855 159.111 256.854 156.416C255.238 152.184 253.93 148.796 252.006 143.641C251.775 143.104 251.621 142.794 251.081 142.794C250.544 142.794 250.391 143.104 250.159 143.641C248.311 148.796 247.081 152.184 245.541 156.416C244.54 159.033 243.617 161.571 242.155 165.342C240.771 161.418 239.925 159.111 238.924 156.416C237.384 152.184 236 148.259 234.152 143.104C234.074 142.948 233.998 142.794 233.769 142.794H229.38C229.151 142.794 229.073 142.872 229.151 143.104C231.228 148.259 233.537 154.415 234.921 158.11C237.462 165.113 238.692 168.266 240.232 172.577C240.461 173.27 240.618 173.653 241.155 173.653C241.77 173.653 242.002 173.038 242.155 172.577C243.464 168.96 246.541 160.956 247.62 158.11C248.389 156.109 249.236 154.032 250.237 151.644C251.313 154.261 251.775 155.416 252.775 158.11C255.468 165.113 256.776 168.266 258.394 172.577C258.702 173.27 258.855 173.653 259.395 173.653C260.01 173.653 260.164 173.038 260.393 172.577C261.626 168.96 264.472 160.956 265.55 158.11C266.781 154.801 269.475 147.798 271.321 143.104C271.474 142.948 271.321 142.794 271.091 142.794H265.78ZM113.642 142.794C109.102 142.794 106.793 142.719 101.328 142.64C101.174 142.64 101.096 142.794 101.021 142.948L100.406 145.565C100.406 145.796 100.481 145.95 100.789 145.95C104.023 145.797 107.87 145.643 111.409 145.565C111.487 149.414 111.487 154.954 111.487 157.954C111.487 161.957 111.409 167.19 111.255 172.731C111.255 172.96 111.333 173.116 111.562 173.116H115.719C115.873 173.116 116.027 172.96 116.027 172.731C115.951 167.268 115.951 162.496 115.951 157.954C115.951 156.416 115.951 150.568 116.027 145.565C119.412 145.643 122.8 145.796 126.339 145.95C126.493 145.95 126.647 145.875 126.647 145.643L127.262 143.026C127.34 142.794 127.184 142.64 127.03 142.64C121.492 142.719 118.182 142.794 113.642 142.794V142.794ZM168.973 172.731C169.048 172.96 169.202 173.116 169.356 173.116H173.896C174.128 173.116 174.281 172.96 174.128 172.731C171.665 167.422 169.048 161.417 167.511 157.725C164.508 150.797 163.2 147.183 161.738 143.104C161.66 142.948 161.506 142.794 161.277 142.794H156.273C155.582 142.794 155.275 142.948 155.275 143.565C155.275 144.027 155.504 144.256 155.966 144.334C156.966 144.488 157.735 144.874 157.735 146.182C157.735 146.873 157.428 147.72 157.044 148.645C155.658 152.184 154.504 154.876 153.273 157.725C151.733 161.417 149.117 167.422 146.654 172.731C146.578 172.96 146.654 173.116 146.886 173.116H149.81C149.964 173.116 150.117 172.96 150.195 172.731C151.272 169.96 152.273 167.573 153.195 165.189H165.817C166.817 167.729 167.894 170.346 168.973 172.731ZM154.118 162.726C154.582 161.649 155.043 160.573 155.426 159.494C156.583 156.724 157.66 154.107 159.353 150.029C161.123 154.107 162.275 156.724 163.432 159.494C163.815 160.573 164.277 161.649 164.738 162.726H154.118ZM205.448 145.103C206.217 145.028 207.296 144.95 208.372 144.95C212.836 144.95 215.682 147.027 215.682 151.876C215.682 155.648 213.683 158.647 209.065 158.647C207.603 158.647 206.141 158.418 205.37 158.186C205.37 155.648 205.448 151.261 205.448 145.103V145.103ZM210.603 160.881C213.991 165.96 215.914 168.652 218.299 170.807C220.3 172.577 222.685 173.346 225.455 173.346C227.611 173.346 229.841 173.038 229.841 172.345C229.841 171.884 229.458 171.808 228.304 171.652C225.995 171.269 224.455 170.576 221.762 168.191C219.607 166.267 217.144 163.112 214.76 159.572C217.762 157.954 220.222 154.954 220.222 151.029C220.222 144.488 213.913 142.794 209.065 142.794H198.675C197.984 142.794 197.677 142.948 197.677 143.565C197.677 144.027 197.906 144.256 198.367 144.334C200.447 144.488 200.754 145.489 200.83 148.105C200.908 151.952 200.908 154.876 200.908 157.954C200.908 161.957 200.908 167.19 200.676 172.731C200.676 172.96 200.83 173.116 201.062 173.116H205.141C205.37 173.116 205.448 172.96 205.448 172.731C205.448 168.345 205.37 164.342 205.37 160.649C206.756 160.802 208.14 160.956 209.912 160.88H210.603V160.881ZM86.0145 170.422C85.9364 166.189 85.9364 162.343 85.9364 158.725C87.9378 158.801 91.477 159.111 94.2473 159.262C94.4791 159.262 94.5573 159.187 94.6329 158.955L95.248 156.341C95.248 156.109 95.1725 155.955 94.9405 155.955C91.7088 156.109 89.0166 156.184 85.9364 156.184C85.9364 153.646 85.9364 149.26 86.0145 145.335C88.5529 145.411 91.4014 145.718 95.0185 145.95C95.248 145.95 95.3261 145.875 95.4018 145.643L96.0169 143.026C96.0169 142.794 95.9413 142.64 95.7094 142.64C91.6307 142.719 88.3234 142.794 84.7062 142.794H79.1656C78.4724 142.794 78.1648 142.948 78.1648 143.565C78.1648 144.027 78.3966 144.256 78.858 144.334C81.0108 144.488 81.3208 145.489 81.3965 148.105C81.4746 151.952 81.4746 154.876 81.4746 157.954C81.4746 161.957 81.3965 167.19 81.2427 172.731C81.2427 172.96 81.3208 173.116 81.5502 173.116H85.707C89.0923 173.116 92.4777 173.192 96.095 173.192C96.3268 173.192 96.4026 173.116 96.4806 172.884L97.0177 170.268C97.0958 170.038 97.0177 169.882 96.7882 169.882C92.6315 170.19 88.8605 170.346 86.0145 170.422ZM68.0843 143.104C68.0843 142.948 67.9306 142.794 67.6987 142.794H60.9254C60.2347 142.794 59.9271 142.948 59.9271 143.565C59.9271 144.027 60.1566 144.256 60.6203 144.334C62.8511 144.566 63.3125 145.257 63.3906 148.105C63.4663 151.952 63.4663 154.876 63.4663 157.954C63.4663 163.651 63.4663 167.73 63.3906 171.652C63.3125 177.578 63.005 181.274 61.543 184.12C58.7726 189.431 55.3848 189.431 55.3848 190.429C55.3848 190.893 55.7704 191.2 56.1561 191.122C57.6182 190.815 68.0061 186.968 68.0061 172.809C68.0061 167.805 67.9306 163.573 67.9306 157.954C67.9306 156.109 68.0061 148.645 68.0843 143.104Z" fill="#00063F"/>
</svg>
