<svg width="480" height="320" viewBox="0 0 480 320" fill="none" xmlns="http://www.w3.org/2000/svg">
<g clip-path="url(#clip0_730_18763)">
<mask id="mask0_730_18763" style="mask-type:luminance" maskUnits="userSpaceOnUse" x="-58" y="-51" width="596" height="422">
<path d="M-57.9844 -50.7001H537.988V370.697H-57.9844V-50.7001Z" fill="white"/>
</mask>
<g mask="url(#mask0_730_18763)">
<path d="M140.836 153.872C140.575 152.42 140.072 151.099 139.328 149.907C138.584 148.716 137.503 147.766 136.088 147.059C134.674 146.351 132.811 145.997 130.503 145.997C128.271 145.997 126.296 146.332 124.583 147.003C122.87 147.672 121.381 148.566 120.116 149.683C118.848 150.8 117.788 152.104 116.932 153.592C116.072 155.091 115.343 156.661 114.754 158.284H141.228C141.228 156.796 141.096 155.324 140.836 153.872ZM112.967 169.343V171.689C112.967 175.04 114.007 177.759 116.094 179.843C118.178 181.928 121.381 182.971 125.701 182.971C127.265 182.971 128.661 182.73 129.89 182.244C131.119 181.761 132.197 181.147 133.129 180.401C134.059 179.658 134.878 178.801 135.587 177.832C136.293 176.865 136.943 175.934 137.54 175.04H153.403C152.136 178.317 150.646 181.183 148.934 183.641C147.221 186.098 145.173 188.164 142.791 189.84C140.407 191.516 137.634 192.763 134.469 193.582C131.302 194.401 127.636 194.811 123.466 194.811C119.593 194.811 116.076 194.289 112.912 193.248C109.745 192.205 107.046 190.622 104.813 188.5C102.578 186.377 100.846 183.752 99.6173 180.625C98.3898 177.497 97.7754 173.849 97.7754 169.678C97.7754 165.062 98.5187 160.613 100.01 156.329C101.498 152.049 103.602 148.251 106.32 144.936C109.039 141.623 112.37 138.979 116.317 137.005C120.265 135.033 124.695 134.045 129.61 134.045C133.632 134.045 137.299 134.567 140.613 135.609C143.925 136.652 146.757 138.234 149.102 140.356C151.447 142.478 153.271 145.122 154.575 148.287C155.878 151.453 156.531 155.119 156.531 159.29C156.531 162.121 156.231 165.137 155.637 168.337H113.079C113.003 168.711 112.967 169.047 112.967 169.343ZM198.212 135.609L195.754 146.22H184.472L178.552 174.928C178.402 175.525 178.291 176.064 178.218 176.547C178.144 177.033 178.106 177.385 178.106 177.608C178.106 178.652 178.273 179.452 178.608 180.01C178.944 180.569 179.371 180.998 179.893 181.295C180.413 181.594 180.992 181.761 181.624 181.798C182.238 181.835 182.853 181.853 183.469 181.853C185.404 181.853 187.302 181.742 189.165 181.518L186.484 193.694C184.845 193.842 183.206 193.974 181.568 194.085C179.93 194.197 178.255 194.252 176.543 194.252C174.679 194.252 172.838 194.085 171.013 193.75C169.187 193.414 167.55 192.819 166.097 191.962C164.645 191.107 163.49 189.934 162.636 188.444C161.778 186.955 161.388 185.019 161.462 182.636C161.462 181.892 161.537 181.054 161.685 180.122C161.834 179.192 162.021 178.206 162.244 177.162L168.723 146.22H158.336L160.792 135.609H170.958L174.531 118.072H190.393L186.819 135.609H198.212Z" fill="#A6A8AB"/>
<path d="M240.931 135.609L238.473 146.22H227.191L221.272 174.928C221.121 175.525 221.01 176.064 220.937 176.547C220.863 177.033 220.826 177.385 220.826 177.608C220.826 178.652 220.993 179.452 221.327 180.01C221.663 180.569 222.091 180.998 222.612 181.295C223.133 181.594 223.711 181.761 224.343 181.798C224.957 181.835 225.573 181.853 226.188 181.853C228.123 181.853 230.021 181.742 231.884 181.518L229.204 193.694C227.564 193.842 225.925 193.974 224.287 194.085C222.649 194.197 220.974 194.252 219.262 194.252C217.399 194.252 215.556 194.085 213.732 193.75C211.906 193.414 210.269 192.819 208.816 191.962C207.364 191.107 206.21 189.934 205.355 188.444C204.497 186.955 204.107 185.019 204.181 182.636C204.181 181.892 204.256 181.054 204.404 180.122C204.553 179.192 204.74 178.206 204.963 177.162L211.442 146.22H201.055L203.511 135.609H213.677L217.25 118.072H233.113L229.538 135.609H240.931ZM265.836 135.609L253.548 193.359H237.687L249.863 135.609H265.836ZM292.73 135.609L290.943 143.763H291.166C293.55 140.412 296.454 137.955 299.879 136.39C303.304 134.827 307.14 134.045 311.385 134.045C314.959 134.045 318.011 134.827 320.544 136.39C323.075 137.955 324.677 140.524 325.347 144.098C326.315 142.609 327.543 141.25 329.033 140.021C330.519 138.795 332.129 137.728 333.837 136.838C335.549 135.944 337.355 135.256 339.253 134.771C341.154 134.287 343.034 134.045 344.895 134.045C347.129 134.045 349.308 134.344 351.43 134.938C353.552 135.536 355.432 136.429 357.071 137.62C358.709 138.811 360.012 140.338 360.981 142.199C361.947 144.062 362.433 146.22 362.433 148.678C362.433 150.465 362.246 152.271 361.874 154.096C361.501 155.921 361.13 157.69 360.756 159.402L353.608 193.359H337.746L345.343 156.832C345.639 155.344 345.789 153.967 345.789 152.7C345.789 150.987 345.136 149.535 343.834 148.342C342.53 147.152 340.874 146.556 338.863 146.556C336.778 146.556 334.898 147.058 333.222 148.064C331.547 149.069 330.095 150.337 328.866 151.861C327.637 153.389 326.612 155.083 325.795 156.944C324.974 158.807 324.378 160.63 324.007 162.417L317.529 193.359H301.556L309.151 156.832C309.448 155.344 309.597 153.967 309.597 152.7C309.597 150.987 308.945 149.535 307.643 148.342C306.34 147.152 304.683 146.556 302.672 146.556C300.587 146.556 298.706 147.058 297.031 148.064C295.355 149.069 293.903 150.337 292.674 151.861C291.446 153.389 290.421 155.083 289.603 156.944C288.782 158.807 288.188 160.63 287.816 162.417L281.336 193.359H265.587L277.539 135.609H292.73ZM408.924 153.872C408.663 152.42 408.16 151.099 407.417 149.907C406.671 148.716 405.59 147.766 404.178 147.059C402.762 146.351 400.9 145.997 398.593 145.997C396.358 145.997 394.384 146.332 392.672 147.003C390.959 147.672 389.469 148.566 388.204 149.683C386.936 150.8 385.875 152.104 385.02 153.592C384.163 155.083 383.438 156.648 382.842 158.284H409.314C409.314 156.796 409.184 155.324 408.924 153.872ZM381.055 169.343V171.689C381.055 175.04 382.097 177.759 384.183 179.843C386.267 181.928 389.469 182.971 393.788 182.971C395.353 182.971 396.749 182.73 397.977 182.244C399.206 181.761 400.285 181.147 401.217 180.401C402.147 179.658 402.966 178.801 403.674 177.832C404.383 176.865 405.033 175.934 405.63 175.04H421.491C420.225 178.317 418.736 181.183 417.023 183.641C415.309 186.098 413.262 188.164 410.88 189.84C408.495 191.516 405.722 192.763 402.558 193.582C399.392 194.401 395.725 194.811 391.555 194.811C387.683 194.811 384.163 194.289 380.999 193.248C377.833 192.205 375.134 190.622 372.901 188.5C370.667 186.377 368.936 183.752 367.707 180.625C366.478 177.497 365.864 173.849 365.864 169.678C365.864 165.062 366.608 160.613 368.097 156.329C369.587 152.049 371.689 148.251 374.409 144.936C377.126 141.623 380.458 138.979 384.407 137.005C388.352 135.033 392.784 134.045 397.699 134.045C401.72 134.045 405.386 134.567 408.701 135.609C412.014 136.652 414.844 138.234 417.191 140.356C419.536 142.478 421.361 145.122 422.665 148.287C423.965 151.453 424.619 155.119 424.619 159.29C424.619 162.121 424.321 165.137 423.725 168.337H381.167C381.091 168.711 381.055 169.047 381.055 169.343Z" fill="#034EA1"/>
<path d="M84.7621 118.072L69.7943 190.23C69.5713 190.976 69.3483 191.925 69.1239 193.079C68.9009 194.233 68.5654 195.369 68.1194 196.486C67.672 197.603 67.1135 198.552 66.4445 199.334C65.7727 200.116 64.8794 200.507 63.763 200.507C62.7953 200.507 61.8467 200.488 60.9151 200.451C59.9828 200.413 59.0357 200.357 58.0666 200.284L55.3857 213.018C56.673 213.093 57.9579 213.205 59.2388 213.353C60.5435 213.501 61.8283 213.576 63.0919 213.576C66.6675 213.576 69.6456 213.203 72.0298 212.459C74.4105 211.714 76.4216 210.597 78.0604 209.109C79.6985 207.618 81.0017 205.719 81.9709 203.411C82.9371 201.102 83.7576 198.421 84.428 195.369L100.625 118.072H84.7621Z" fill="#A6A8AB"/>
<path d="M402.053 117.144C402.053 117.144 266.048 127.869 260.125 127.869C254.202 127.869 249.4 123.067 249.4 117.144C249.4 111.222 254.202 106.42 260.125 106.42C266.048 106.42 402.053 117.144 402.053 117.144Z" fill="#FFA000"/>
</g>
</g>
<defs>
<clipPath id="clip0_730_18763">
<rect width="480" height="320" fill="white"/>
</clipPath>
</defs>
</svg>
