<svg width="480" height="320" viewBox="0 0 480 320" fill="none" xmlns="http://www.w3.org/2000/svg">
<path d="M149.232 144.257L147.179 152.243H154.86L152.122 165.019C151.286 169.05 148.776 179.469 150.525 183.348C151.818 186.162 155.24 187.835 157.978 187.987C163.606 188.291 170.451 188.139 170.451 188.139L172.428 177.72L168.245 177.796C168.245 177.796 164.518 177.948 164.062 176.047C162.921 171.864 168.169 152.014 168.169 152.014H177.751L179.196 144.181L169.994 144.257L172.884 131.252C172.884 131.252 165.507 131.024 163.758 131.252C161.324 131.557 159.423 134.37 158.586 136.956C157.522 140.15 156.837 144.181 156.837 144.181L149.232 144.257ZM173.949 188.291C173.949 188.291 175.014 180.306 179.044 175.134C184.368 168.213 196.993 162.662 200.947 160.76C208.248 157.338 212.583 152.851 212.583 148.82C212.583 146.006 210.302 141.671 204.902 141.671C199.502 141.671 194.863 146.234 194.331 152.243H180.489C180.489 152.243 182.467 141.443 188.855 136.652C193.95 132.849 197.829 131.176 204.902 130.948C212.887 130.644 220.493 133.458 223.915 138.934C227.261 144.257 228.174 152.927 223.23 158.479C218.819 163.346 214.332 166.008 210.378 168.289C205.054 171.408 197.829 175.058 195.776 176.047C194.027 176.883 194.255 177.796 194.255 177.796H217.374C220.873 177.796 222.698 176.427 222.698 176.427C222.698 176.427 224.219 181.294 221.785 184.488C220.949 185.629 218.515 188.291 214.256 188.291H173.949ZM247.719 173.841L245.209 188.291H229.238L231.672 173.917L247.719 173.841ZM298.674 172.168C298.674 185.933 284.984 189.356 283.92 189.736C281.106 190.573 277.075 190.953 273.044 190.953C264.526 190.953 254.107 183.652 254.107 171.56C254.107 154.98 264.298 142.356 282.018 142.964C300.423 143.649 300.803 157.87 300.651 160.532H286.581C286.581 159.467 286.886 153.764 279.585 153.764C270.915 153.764 267.721 161.597 267.721 170.419C267.721 176.883 271.827 180.154 276.847 180.154C278.748 180.154 279.965 179.621 281.182 178.861C284.68 176.579 284.604 173.461 284.528 172.168H298.674ZM321.793 190.725C310.233 190.725 302.552 183.196 302.552 172.016C302.552 156.349 313.504 143.421 329.551 143.421C341.795 143.421 348.792 151.786 348.792 162.129C348.792 178.632 337.384 190.725 321.869 190.725H321.793ZM323.619 180.534C330.843 180.534 335.026 169.887 335.026 162.205C335.026 157.946 333.201 153.611 327.877 153.611C320.196 153.611 316.318 164.715 316.318 171.788C316.318 177.035 318.979 180.61 323.542 180.61H323.619V180.534ZM349.856 189.28L355.788 159.467C356.929 153.84 357.614 149.124 358.222 145.094H370.162L369.326 152.319H369.554C373.889 146.615 379.593 144.105 385.677 144.105C393.206 144.105 396.476 148.592 396.856 152.471C401.115 146.767 406.971 144.105 413.131 144.105C420.356 144.105 424.615 148.516 424.615 156.045C424.615 157.87 424.235 161.369 423.855 163.65L418.759 189.28H405.222L409.937 165.171C410.317 163.422 410.622 161.521 410.622 159.848C410.622 156.806 409.177 154.6 405.982 154.6C401.343 154.6 396.704 160.38 394.879 169.278L390.924 189.204H377.539L382.483 164.943C382.787 163.194 383.091 161.521 383.091 160C383.091 156.958 382.026 154.6 378.68 154.6C373.965 154.6 369.021 160.76 367.424 169.43L363.47 189.28H349.856Z" fill="#E2231A"/>
<path d="M126.341 144.029C119.648 144.257 114.249 145.398 108.469 151.558C102.309 158.099 101.168 175.514 102.841 179.089C104.514 182.663 107.632 189.356 122.995 189.812C140.791 190.421 145.05 175.438 145.05 175.438H130.904C130.904 175.438 130.752 180.154 123.527 180.306C113.26 180.534 115.542 170.039 115.542 170.039H146.875C146.875 170.039 146.875 169.43 147.407 161.217C148.168 152.319 139.954 143.497 126.341 144.029ZM134.098 161.445L116.53 161.521C116.53 161.521 117.899 152.623 126.493 152.623C134.402 152.623 134.098 161.445 134.098 161.445ZM98.6582 131.328C95.9203 131.404 92.7261 131.937 90.9009 134.066C89.0756 136.272 88.087 140.455 87.6307 143.116C87.4786 143.801 87.4025 144.637 87.2504 145.55C87.5546 145.55 87.7828 145.55 87.9349 145.474C88.6193 145.474 90.2164 145.398 90.2164 145.398L96.3766 136.88H97.9737L94.3993 145.474L101.852 145.93L103.221 144.333C104.818 136.956 106.111 131.328 106.111 131.328C106.111 131.328 101.396 131.252 98.6582 131.328ZM94.4753 147.984L98.0497 156.502H96.4527L90.2925 147.984C90.2925 147.984 88.6193 147.984 88.0109 147.908C87.7067 147.908 87.3265 147.908 86.9462 147.832C86.4138 151.254 85.6533 155.741 84.6646 160.684C82.7634 170.267 82.9155 177.035 74.7019 177.035C72.0401 177.035 69.6064 175.819 69.6064 173.917C69.6064 170.419 70.1388 164.335 70.1388 164.335L55.9932 164.259C55.9932 164.259 55.3848 170.115 55.3848 176.351C55.3848 181.979 61.5449 189.28 73.7132 189.28C82.9915 189.28 89.1517 187.074 94.4753 179.469C97.1371 175.667 98.5061 166.616 100.559 156.806C101.168 153.916 101.776 151.026 102.385 148.288L101.852 147.68L94.4753 147.984ZM229.771 129.047C231.596 129.047 232.965 130.492 232.965 132.317C232.965 134.142 231.52 135.587 229.771 135.587C227.946 135.587 226.501 134.142 226.501 132.317C226.501 130.492 227.946 129.047 229.771 129.047ZM229.771 129.579C228.326 129.579 227.185 130.796 227.185 132.317C227.185 133.838 228.326 135.131 229.847 135.131C231.292 135.131 232.433 133.914 232.433 132.393C232.357 130.796 231.216 129.579 229.771 129.579ZM229.087 134.218H228.478V130.568C228.783 130.492 229.087 130.492 229.543 130.492C230.075 130.492 230.456 130.644 230.684 130.796C230.912 130.948 230.988 131.176 230.988 131.557C230.988 132.013 230.684 132.317 230.304 132.469C230.608 132.545 230.836 132.849 230.912 133.382C230.988 133.914 231.064 134.142 231.14 134.294H230.532C230.456 134.142 230.38 133.838 230.304 133.382C230.227 132.926 229.999 132.773 229.543 132.773H229.163V134.218H229.087ZM229.087 132.165H229.543C229.999 132.165 230.456 132.013 230.456 131.557C230.456 131.252 230.227 130.948 229.543 130.948H229.087V132.165Z" fill="#E2231A"/>
</svg>
