<svg width="480" height="320" viewBox="0 0 480 320" fill="none" xmlns="http://www.w3.org/2000/svg">
<path d="M69.0535 177.73C67.3182 177.73 65.6157 177.547 63.949 177.181C62.2823 176.814 61.0023 176.428 60.112 176.016C59.2217 175.604 58.4905 175.194 57.9199 174.783C56.961 174.144 56.2984 173.607 55.9336 173.172C55.5687 172.737 55.3848 172.248 55.3848 171.7C55.3848 171.244 55.522 170.735 55.7964 170.176C56.0708 169.617 56.4013 169.039 56.7895 168.447C57.223 167.807 57.6735 167.254 58.1428 166.786C58.6106 166.318 59.1641 166.083 59.8033 166.083C60.3053 166.083 60.8307 166.254 61.3796 166.597C61.9284 166.94 62.4756 167.26 63.0244 167.556C64.8751 168.447 66.6322 168.892 68.3005 168.892C70.1511 168.892 71.5091 168.493 72.3775 167.694C73.246 166.894 73.7652 165.815 73.9367 164.457C74.1082 163.097 74.1939 161.699 74.1939 160.26V132.269C74.1939 131.698 74.2516 131.263 74.3654 130.967C74.4792 130.671 74.6741 130.418 74.9485 130.214C75.2681 129.963 75.7982 129.774 76.5404 129.65C77.2825 129.525 78.2601 129.461 79.4699 129.461C81.7307 129.461 83.204 129.712 83.8885 130.214C84.3905 130.602 84.6415 131.287 84.6415 132.269V161.011C84.6415 162.952 84.4763 164.751 84.1442 166.406C83.8136 168.063 83.2757 169.524 82.5352 170.791C81.7915 172.059 80.9994 173.104 80.1544 173.927C78.9211 175.137 77.3916 176.074 75.5644 176.736C73.7371 177.399 71.5668 177.73 69.0535 177.73ZM107.286 177.421C104.957 177.421 102.827 177.062 100.897 176.342C98.9667 175.623 97.3046 174.579 95.9124 173.208C94.5201 171.838 93.4396 170.176 92.6756 168.224C91.9101 166.27 91.5281 164.061 91.5281 161.594C91.5281 159.196 91.8711 157.01 92.5556 155.034C93.24 153.058 94.2519 151.363 95.5865 149.946C96.9227 148.53 98.5738 147.428 100.537 146.641C102.501 145.852 104.751 145.459 107.286 145.459C109.707 145.459 111.814 145.858 113.607 146.658C115.4 147.458 116.884 148.537 118.06 149.895C119.235 151.254 120.11 152.841 120.68 154.658C121.251 156.473 121.536 158.386 121.536 160.395C121.536 162.223 121.262 163.411 120.715 163.958C120.418 164.254 119.949 164.483 119.31 164.642C118.671 164.801 117.826 164.882 116.775 164.882H101.324C101.461 165.545 101.723 166.156 102.111 166.716C102.5 167.276 103.008 167.761 103.636 168.172C104.263 168.584 105.018 168.91 105.897 169.148C106.775 169.388 107.797 169.508 108.962 169.508C110.744 169.508 112.194 169.395 113.314 169.165C113.884 169.052 114.421 168.914 114.924 168.754C115.428 168.593 115.975 168.514 116.569 168.514C117.208 168.514 117.682 168.73 117.991 169.164C118.3 169.597 118.613 170.18 118.933 170.912C119.413 171.962 119.651 172.898 119.651 173.721C119.651 174.109 119.525 174.491 119.274 174.869C119.023 175.244 118.418 175.604 117.458 175.947C116.681 176.244 115.785 176.501 114.768 176.719C113.752 176.936 112.587 177.107 111.274 177.232C109.962 177.357 108.633 177.421 107.286 177.421ZM101.051 158.27H112.356C112.356 156.945 112.06 155.81 111.466 154.862C110.872 153.914 110.147 153.264 109.29 152.908C108.434 152.555 107.629 152.378 106.874 152.378C105.71 152.378 104.676 152.675 103.775 153.269C102.872 153.863 102.216 154.616 101.804 155.529C101.393 156.443 101.142 157.357 101.051 158.27ZM139.419 177.421C137.684 177.421 136.222 177.249 135.034 176.906C133.846 176.563 132.829 176.038 131.984 175.33C130.978 174.53 130.26 173.52 129.826 172.298C129.393 171.077 129.176 169.655 129.176 168.033V153.987H126.229C125.178 153.987 124.516 153.895 124.243 153.713C123.831 153.507 123.626 152.926 123.626 151.965C123.626 151.189 123.699 150.333 123.849 149.396C123.997 148.459 124.231 147.706 124.55 147.135C124.801 146.747 125.155 146.485 125.612 146.348C126.069 146.21 126.652 146.142 127.36 146.142H129.107V140.456C129.107 139.085 129.358 138.15 129.86 137.646C130.272 137.281 131.402 136.859 133.252 136.379C134.714 136.059 135.9 135.899 136.814 135.899C137.134 135.899 137.447 135.933 137.756 136.001C138.063 136.07 138.309 136.173 138.492 136.31C138.88 136.653 139.075 137.451 139.075 138.708V146.142H145.378C146.384 146.142 147.034 146.234 147.33 146.416C147.764 146.667 147.98 147.25 147.98 148.164C147.98 148.964 147.906 149.831 147.758 150.768C147.608 151.705 147.374 152.458 147.054 153.028C146.803 153.417 146.449 153.674 145.993 153.799C145.536 153.925 144.953 153.987 144.245 153.987H139.072V166.56C139.072 167.405 139.299 168.055 139.756 168.512C140.099 168.9 140.659 169.095 141.435 169.095C142.12 169.095 142.829 168.981 143.559 168.752C143.902 168.638 144.256 168.512 144.621 168.375C144.985 168.238 145.328 168.169 145.648 168.169C146.311 168.169 147.064 168.877 147.909 170.293C148.593 171.618 148.936 172.577 148.936 173.171C148.936 173.741 148.679 174.256 148.166 174.713C147.652 175.169 147.029 175.581 146.298 175.946C145.773 176.242 144.934 176.563 143.78 176.905C142.634 177.249 141.178 177.421 139.419 177.421ZM173.095 179.134C171.93 179.134 171.09 179.066 170.577 178.928C170.062 178.791 169.657 178.598 169.361 178.345C168.859 177.957 168.608 177.284 168.608 176.325V167.04H152.61C151.833 167.04 151.239 166.858 150.827 166.491C150.508 166.286 150.279 165.887 150.143 165.292C150.007 164.698 149.937 164.139 149.937 163.613C149.937 162.7 149.965 161.975 150.023 161.438C150.079 160.902 150.233 160.398 150.484 159.931C150.735 159.463 151.021 159.011 151.34 158.577L167.956 135.284C168.756 134.12 169.646 133.371 170.628 133.041C171.61 132.71 172.638 132.545 173.712 132.545C174.602 132.545 175.357 132.671 175.973 132.922C176.589 133.173 177.035 133.561 177.309 134.087C177.583 134.612 177.721 135.194 177.721 135.835V159.335H180.187C180.781 159.335 181.232 159.365 181.54 159.421C181.848 159.479 182.094 159.564 182.276 159.678C182.551 159.861 182.733 160.096 182.825 160.38C182.917 160.667 182.962 161.094 182.962 161.664C182.962 162.509 182.883 163.275 182.722 163.959C182.562 164.644 182.323 165.285 182.003 165.877C181.707 166.357 181.324 166.671 180.856 166.819C180.387 166.969 179.765 167.042 178.988 167.042H177.721V176.326C177.721 176.875 177.663 177.298 177.549 177.594C177.435 177.89 177.229 178.143 176.932 178.347C176.657 178.598 176.229 178.793 175.647 178.93C175.064 179.066 174.214 179.134 173.095 179.134ZM159.975 159.332H168.608V146.999L159.975 159.332ZM195.089 190.541C193.444 190.541 192.17 190.386 191.269 190.079C190.367 189.771 189.916 189.159 189.916 188.246C189.916 187.812 190.013 187.332 190.208 186.807C190.402 186.281 190.682 185.665 191.048 184.956L196.633 173.239L185.568 151.554C185.203 150.846 184.922 150.178 184.727 149.549C184.532 148.922 184.436 148.412 184.436 148.024C184.436 147.247 184.886 146.694 185.789 146.363C186.69 146.033 187.998 145.866 189.712 145.866C190.968 145.866 191.927 145.964 192.59 146.157C193.252 146.351 193.744 146.602 194.063 146.911C194.383 147.218 194.612 147.522 194.748 147.818L201.839 162.823L208.792 147.681C209.067 147.042 209.551 146.578 210.248 146.293C210.944 146.008 211.977 145.864 213.348 145.864C215.13 145.864 216.447 146.008 217.305 146.293C218.161 146.578 218.59 147.177 218.59 148.091C218.59 148.524 218.48 149.022 218.265 149.581C218.047 150.141 217.768 150.774 217.425 151.482L199.748 188.72C199.473 189.245 199.143 189.633 198.755 189.884C198.366 190.135 197.858 190.307 197.23 190.399C196.601 190.496 195.887 190.541 195.089 190.541ZM236.37 177.421C233.995 177.421 231.814 177.037 229.826 176.273C227.84 175.509 226.131 174.423 224.704 173.019C223.276 171.615 222.163 169.931 221.363 167.966C220.563 166.002 220.164 163.833 220.164 161.457C220.164 159.081 220.563 156.912 221.363 154.948C222.163 152.983 223.276 151.299 224.704 149.895C226.131 148.491 227.838 147.4 229.826 146.624C231.814 145.847 233.994 145.459 236.37 145.459C239.887 145.459 242.952 146.31 245.567 148.011C248.182 149.712 249.992 151.784 250.997 154.229C252.003 156.674 252.505 159.083 252.505 161.457C252.505 163.832 252.106 166.002 251.306 167.966C250.506 169.931 249.393 171.615 247.965 173.019C246.537 174.423 244.836 175.509 242.862 176.273C240.885 177.037 238.722 177.421 236.37 177.421ZM236.37 169.37C238.334 169.37 239.829 168.655 240.857 167.227C241.884 165.801 242.399 163.877 242.399 161.456C242.399 159.605 242.107 158.071 241.524 156.848C240.943 155.626 240.183 154.764 239.246 154.262C238.309 153.76 237.35 153.509 236.368 153.509C234.382 153.509 232.862 154.223 231.812 155.649C230.762 157.078 230.236 159.012 230.236 161.457C230.236 162.645 230.373 163.724 230.648 164.694C230.922 165.665 231.315 166.499 231.83 167.195C232.343 167.892 232.982 168.428 233.747 168.804C234.513 169.182 235.388 169.37 236.37 169.37ZM268.777 177.421C267.293 177.421 265.912 177.193 264.632 176.736C263.352 176.28 262.251 175.595 261.325 174.681C260.4 173.768 259.675 172.627 259.15 171.256C258.625 169.886 258.363 168.298 258.363 166.495V148.679C258.363 148.108 258.425 147.679 258.551 147.394C258.676 147.109 258.876 146.851 259.15 146.622C259.424 146.371 259.903 146.182 260.589 146.056C261.273 145.931 262.2 145.867 263.364 145.867C265.556 145.867 266.961 146.119 267.579 146.621C268.081 147.054 268.332 147.74 268.332 148.675V164.674C268.332 165.862 268.548 166.803 268.982 167.5C269.415 168.197 269.93 168.626 270.524 168.785C271.118 168.944 271.723 169.025 272.34 169.025C273.413 169.025 274.412 168.694 275.338 168.032C276.263 167.369 276.908 166.616 277.273 165.771C277.638 164.926 277.822 164.139 277.822 163.408V148.677C277.822 148.106 277.88 147.678 277.993 147.392C278.107 147.107 278.302 146.85 278.577 146.621C278.873 146.37 279.358 146.181 280.033 146.055C280.706 145.93 281.626 145.866 282.791 145.866C285.03 145.866 286.434 146.117 287.005 146.619C287.279 146.847 287.479 147.105 287.605 147.391C287.73 147.676 287.794 148.105 287.794 148.675V174.198C287.794 174.769 287.73 175.198 287.605 175.483C287.479 175.768 287.279 176.032 287.005 176.27C286.731 176.51 286.258 176.693 285.583 176.819C284.91 176.945 284.001 177.008 282.861 177.008C281.695 177.008 280.798 176.944 280.17 176.819C279.542 176.694 279.08 176.506 278.782 176.255C278.28 175.843 278.029 175.159 278.029 174.2V172.864C277.504 173.822 276.727 174.68 275.7 175.433C274.672 176.186 273.57 176.707 272.395 176.992C271.214 177.277 270.011 177.421 268.777 177.421ZM299.918 177.421C299.165 177.421 298.433 177.26 297.726 176.941C297.018 176.621 296.391 176.194 295.842 175.656C295.293 175.12 294.854 174.491 294.522 173.772C294.191 173.052 294.026 172.282 294.026 171.46C294.026 170.296 294.363 169.217 295.036 168.224C295.71 167.229 296.486 166.516 297.365 166.081C298.243 165.648 299.094 165.431 299.918 165.431C301.014 165.431 302.047 165.774 303.017 166.459C303.988 167.143 304.696 167.96 305.141 168.908C305.587 169.856 305.81 170.706 305.81 171.46C305.81 172.67 305.473 173.766 304.799 174.749C304.126 175.731 303.337 176.415 302.436 176.803C301.534 177.192 300.696 177.397 299.918 177.421Z" fill="#DA2228"/>
<path d="M325.85 177.42C323.772 177.42 321.801 177.084 319.941 176.41C318.079 175.737 316.447 174.733 315.041 173.395C313.638 172.06 312.518 170.398 311.684 168.41C310.851 166.424 310.434 164.106 310.434 161.457C310.434 158.1 311.244 155.114 312.867 152.498C314.487 149.883 316.474 148.056 318.826 147.016C321.179 145.978 323.474 145.457 325.713 145.457C327.654 145.457 329.344 145.639 330.783 146.006C332.222 146.372 333.593 146.885 334.895 147.548C335.74 147.981 336.293 148.382 336.555 148.747C336.818 149.112 336.949 149.512 336.949 149.946C336.949 150.746 336.617 151.818 335.955 153.165C335.613 153.942 335.223 154.559 334.792 155.016C334.357 155.473 333.853 155.7 333.284 155.7C332.963 155.7 332.62 155.643 332.255 155.529C331.89 155.415 331.592 155.278 331.366 155.117C331.137 154.957 330.884 154.821 330.612 154.706C328.967 154.088 327.596 153.781 326.5 153.781C325.679 153.781 324.902 153.959 324.171 154.313C323.44 154.667 322.8 155.169 322.253 155.82C321.704 156.471 321.277 157.277 320.97 158.236C320.661 159.194 320.507 160.269 320.507 161.455C320.507 162.665 320.668 163.728 320.987 164.64C321.307 165.552 321.729 166.32 322.255 166.935C322.78 167.551 323.391 168.021 324.088 168.34C324.785 168.66 325.51 168.82 326.265 168.82C326.904 168.82 327.567 168.735 328.251 168.563C328.936 168.392 329.564 168.169 330.136 167.894C330.499 167.757 330.93 167.547 331.419 167.261C331.91 166.976 332.419 166.832 332.944 166.832C333.469 166.832 333.954 167.01 334.402 167.363C334.846 167.718 335.297 168.248 335.755 168.956C336.644 170.326 337.09 171.399 337.09 172.176C337.09 172.564 336.97 172.929 336.731 173.272C336.491 173.615 336.073 173.99 335.481 174.402C334.703 174.996 333.739 175.532 332.585 176.013C331.433 176.493 330.262 176.847 329.074 177.074C327.886 177.302 326.811 177.42 325.85 177.42ZM356.1 177.42C353.726 177.42 351.544 177.037 349.558 176.273C347.572 175.509 345.864 174.422 344.436 173.019C343.01 171.614 341.895 169.93 341.097 167.966C340.295 166.001 339.896 163.833 339.896 161.457C339.896 159.081 340.295 156.912 341.097 154.947C341.895 152.983 343.01 151.299 344.436 149.894C345.864 148.491 347.572 147.4 349.558 146.623C351.544 145.847 353.726 145.459 356.1 145.459C359.617 145.459 362.684 146.31 365.299 148.011C367.913 149.712 369.724 151.784 370.728 154.229C371.732 156.673 372.235 159.082 372.235 161.457C372.235 163.831 371.835 166.001 371.035 167.966C370.235 169.93 369.122 171.614 367.695 173.019C366.267 174.422 364.566 175.509 362.591 176.273C360.617 177.037 358.451 177.42 356.1 177.42ZM356.1 169.369C358.065 169.369 359.561 168.655 360.589 167.227C361.616 165.8 362.129 163.876 362.129 161.455C362.129 159.604 361.838 158.07 361.256 156.848C360.673 155.626 359.914 154.763 358.977 154.261C358.04 153.759 357.081 153.508 356.098 153.508C354.114 153.508 352.594 154.222 351.543 155.649C350.492 157.077 349.966 159.012 349.966 161.457C349.966 162.645 350.104 163.724 350.378 164.693C350.652 165.665 351.047 166.499 351.56 167.194C352.074 167.891 352.714 168.427 353.478 168.803C354.245 169.182 355.118 169.369 356.1 169.369ZM383.3 177.009C382.136 177.009 381.216 176.945 380.542 176.82C379.867 176.695 379.382 176.507 379.086 176.256C378.582 175.844 378.331 175.16 378.331 174.201V150.289C378.331 148.918 378.582 147.983 379.086 147.479C379.381 147.205 379.838 146.96 380.456 146.742C381.072 146.525 381.69 146.349 382.306 146.212C384.201 145.892 385.379 145.731 385.835 145.731C386.155 145.731 386.468 145.766 386.777 145.834C387.084 145.903 387.329 146.006 387.513 146.143C387.878 146.463 388.062 147.262 388.062 148.541V150.014C388.564 149.101 389.314 148.273 390.305 147.531C391.3 146.789 392.373 146.257 393.525 145.937C394.679 145.618 395.804 145.457 396.9 145.457C398.703 145.457 400.326 145.817 401.763 146.536C403.204 147.256 404.344 148.369 405.189 149.877C405.92 149.009 406.829 148.221 407.912 147.514C408.998 146.806 410.14 146.286 411.338 145.954C412.538 145.624 413.65 145.457 414.679 145.457C416.849 145.457 418.722 145.925 420.298 146.862C421.874 147.799 422.988 149.032 423.639 150.562C424.289 152.091 424.615 153.725 424.615 155.46V174.199C424.615 174.77 424.558 175.199 424.445 175.484C424.33 175.769 424.137 176.027 423.862 176.254C423.245 176.756 421.842 177.007 419.649 177.007C418.483 177.007 417.559 176.943 416.874 176.819C416.19 176.694 415.71 176.505 415.435 176.254C414.933 175.843 414.682 175.158 414.682 174.199V157.654C414.682 156.307 414.386 155.336 413.792 154.742C413.198 154.148 412.319 153.851 411.155 153.851C410.264 153.851 409.425 154.143 408.637 154.726C407.849 155.308 407.29 155.959 406.958 156.678C406.628 157.398 406.462 158.076 406.462 158.717V174.202C406.462 174.773 406.405 175.202 406.291 175.487C406.177 175.772 405.971 176.03 405.675 176.257C405.103 176.759 403.698 177.01 401.461 177.01C400.296 177.01 399.376 176.946 398.703 176.822C398.028 176.697 397.555 176.508 397.281 176.257C396.755 175.869 396.494 175.185 396.494 174.202V157.654C396.494 156.307 396.213 155.336 395.653 154.742C395.095 154.148 394.231 153.851 393.068 153.851C392.176 153.851 391.32 154.143 390.499 154.726C389.677 155.308 389.1 155.959 388.77 156.678C388.438 157.398 388.274 158.076 388.274 158.717V174.202C388.274 174.773 388.216 175.202 388.102 175.487C387.989 175.772 387.794 176.03 387.519 176.257C386.942 176.758 385.539 177.009 383.3 177.009Z" fill="#91C83E"/>
</svg>
