<svg width="480" height="320" viewBox="0 0 480 320" fill="none" xmlns="http://www.w3.org/2000/svg">
<mask id="mask0_730_18321" style="mask-type:luminance" maskUnits="userSpaceOnUse" x="55" y="141" width="370" height="38">
<path d="M55.3848 178.275H424.618V141.721H55.3848V178.275Z" fill="white"/>
</mask>
<g mask="url(#mask0_730_18321)">
<path d="M424.616 152.954H408.514L408.87 151.522C410.558 144.756 408.359 141.721 402.134 141.721H345.084V141.771H344.983C345.309 143.182 345.422 144.535 344.564 147.98L339.724 170.195C338.753 174.087 337.526 174.71 334.647 174.71H55.7464L55.3848 177.892H339.249C345.913 177.892 351.145 176.82 353.497 167.394L358.335 147.98C358.408 147.692 358.479 147.426 358.551 147.165H394.479C395.724 147.165 396.307 147.633 395.996 148.878L395.415 151.211C395.105 152.456 394.288 152.922 393.043 152.922H370.686C364.31 152.922 360.85 155.567 358.349 165.601C355.846 175.633 357.986 178.275 364.365 178.275H402.978C402.935 176.564 403.169 174.389 404.256 170.032L407.095 158.645H424.616V152.954ZM390.739 169.877C390.257 171.82 389.535 172.52 387.745 172.52H369.092C367.303 172.52 366.934 171.82 367.418 169.877L369.552 161.32C370.038 159.377 370.756 158.677 372.546 158.677H393.533L390.739 169.877Z" fill="#005199"/>
<path d="M93.8156 166.414C95.6471 166.414 96.4279 166.02 97.045 163.542L100.125 151.191C100.672 149 100.598 148.138 100.391 147.24H110.589C109.934 148.138 109.43 149 108.885 151.191L105.807 163.542C104.312 169.537 100.982 170.221 96.7446 170.221H85.3633L85.7465 165.804C86.5903 166.164 87.569 166.414 88.6827 166.414H93.8156ZM125.447 166.414C127.493 166.414 128.58 166.09 129.548 165.804L127.658 170.221H107.407C108.062 169.323 108.564 168.461 109.109 166.27L112.87 151.191C113.417 149 113.345 148.138 113.136 147.24H133.027L132.644 151.657C131.782 151.371 130.857 151.046 128.812 151.046H121.667L120.323 156.432H126.57C128.581 156.432 129.666 156.11 130.674 155.822L129.42 160.849C128.558 160.561 127.633 160.237 125.622 160.237H119.375L117.835 166.414H125.447ZM157.083 147.241L156.619 151.98C155.802 151.37 155.201 151.046 153.585 151.046H149.6L145.804 166.271C145.257 168.462 145.331 169.324 145.536 170.22H135.34C135.995 169.324 136.497 168.462 137.044 166.271L140.839 151.046H136.855C135.238 151.046 134.477 151.37 133.354 151.98L135.254 147.241H157.083Z" fill="#005199"/>
<path d="M172.464 170.221C172.671 168.965 172.408 167.709 172.138 166.487L171.383 163.184H159.104L156.27 167.061C154.951 168.891 154.656 169.503 154.476 170.221H151.461C152.296 169.467 152.996 168.677 153.694 167.743L167.603 148.678C167.405 148.032 167.191 147.744 166.777 147.242H171.408L175.936 166.09C176.332 167.815 176.701 169.215 177.275 170.221H172.464ZM168.358 150.402L160.395 161.317H170.987L168.358 150.402ZM178.496 170.221C178.998 169.215 179.302 168.281 179.714 166.63L183.654 150.833C184.066 149.18 184.226 148.246 184.226 147.242H188.535C188.031 148.246 187.727 149.18 187.315 150.833L182.947 168.353H193.179C195.836 168.353 197.058 168.209 197.731 168.103L196.988 170.221H178.496ZM199.105 170.221C199.607 169.215 199.911 168.281 200.323 166.63L204.263 150.833C204.673 149.18 204.835 148.246 204.833 147.242H209.142C208.64 148.246 208.336 149.18 207.924 150.833L203.556 168.353H213.788C216.445 168.353 217.665 168.209 218.339 168.103L217.596 170.221H199.105ZM224.952 166.629C224.542 168.283 224.38 169.214 224.38 170.22H220.073C220.575 169.214 220.879 168.283 221.291 166.629L225.229 150.833C225.641 149.181 225.803 148.247 225.801 147.242H230.11C229.608 148.247 229.304 149.181 228.892 150.833L224.952 166.629ZM246.927 170.221C247.134 168.965 246.873 167.709 246.602 166.487L245.846 163.184H233.567L230.733 167.061C229.414 168.891 229.119 169.503 228.941 170.221H225.924C226.759 169.467 227.459 168.677 228.157 167.743L242.066 148.678C241.868 148.032 241.654 147.744 241.24 147.242H245.871L250.4 166.09C250.795 167.815 251.164 169.215 251.738 170.221H246.927ZM242.822 150.402L234.859 161.317H245.45L242.822 150.402ZM269.188 170.221L260.055 149.828H259.983L255.865 166.344C255.525 167.709 255.347 168.999 255.221 170.221H252.6C253.309 168.965 253.964 166.488 254.626 163.828L257.418 152.627C258.08 149.97 258.368 148.246 258.402 147.242H263.105L272.435 167.849H272.543L276.715 151.119C277.055 149.756 277.235 148.462 277.358 147.242H279.945C279.056 149.218 278.725 150.545 278.331 152.125L273.819 170.221H269.188ZM300.373 147.242L300.015 149.539C298.902 149.109 297.322 149.109 294.523 149.109H287.7C286.445 149.109 286.067 149.467 285.691 150.975L281.823 166.487C281.448 167.995 281.644 168.353 282.902 168.353H289.723C292.524 168.353 294.103 168.353 295.755 167.923L294.967 170.22H282.294C278.559 170.22 277.445 169.358 278.339 165.767L281.85 151.693C282.744 148.104 284.289 147.242 288.022 147.242H300.373ZM320.659 147.242L320.31 149.361C319.691 149.253 318.541 149.109 315.885 149.109H306.514L304.348 157.797H312.858C315.513 157.797 316.735 157.653 317.623 157.545L317.031 159.917C316.197 159.809 315.049 159.665 312.392 159.665H303.882L301.716 168.353H311.087C313.743 168.353 314.964 168.209 315.637 168.103L314.93 170.22H297.264C297.766 169.214 298.072 168.283 298.482 166.629L302.423 150.833C302.835 149.181 302.995 148.247 302.995 147.242H320.659Z" fill="#696A6C"/>
</g>
</svg>
