<svg width="480" height="320" viewBox="0 0 480 320" fill="none" xmlns="http://www.w3.org/2000/svg">
<path d="M187.269 219.797L193.589 206.321L199.91 219.797H187.269ZM175.335 231.815H181.61L184.816 224.874H202.238L205.399 231.815H211.636L196.957 201.582H190.218L175.335 231.815ZM219.664 201.582H225.568V231.815H219.664V201.582ZM242.744 215.019V206.492H254.135C258.961 206.492 261.417 207.195 261.417 210.733C261.417 214.31 258.961 215.019 254.135 215.019H242.744ZM236.838 231.815H242.743V219.924H252.099L260.872 231.815H268.149L258.878 219.507C263.328 219.262 267.317 216.181 267.317 210.61C267.317 203.206 262.162 201.583 255.011 201.583H236.838V231.817H236.838V231.815ZM274.766 201.582H280.669L286.495 222.374H286.572L292.356 201.582H298.013L303.879 222.33H303.959L309.741 201.582H315.522L306.707 231.815H301.05L295.31 210.362H295.227L289.445 231.815H283.671L274.766 201.582ZM330.787 219.797L337.11 206.321L343.428 219.797H330.787ZM318.854 231.815H325.133L328.334 224.874H345.756L348.915 231.815H355.159L340.476 201.582H333.738L318.854 231.815ZM369.385 219.707L354.625 201.581H361.859L372.336 214.388L382.777 201.581H390.056L375.29 219.707V231.814H369.386L369.385 219.707ZM418.536 210.773C417.58 208.067 415.131 205.741 407.933 205.741C403.94 205.741 399.908 206.738 399.908 209.522C399.908 210.815 400.656 212.186 406.687 212.935L413.84 214.015C420.617 215.058 424.616 217.674 424.616 222.749C424.616 229.902 417.792 232.564 409.722 232.564C396.747 232.564 393.586 226.158 392.877 223.871L398.576 222.083C399.656 224.287 401.9 227.493 409.889 227.493C414.711 227.493 418.7 225.911 418.7 223.289C418.7 221.335 416.459 220.046 412.133 219.506L404.897 218.509C397.91 217.55 393.998 214.514 393.998 209.896C393.998 200.833 405.772 200.833 408.097 200.833C421.115 200.833 423.357 206.864 424.104 208.94L418.536 210.773ZM65.7681 112.197H78.0862V178.202C78.0862 188.465 70.5948 195.353 60.2076 195.353H55.3848V183.758H58.8811C63.109 183.758 65.7681 181.82 65.7681 177.233V112.197ZM65.7681 87.4355H78.0862V99.7558H65.7681V87.4355ZM98.3558 137.318C98.5953 128.019 104.032 123.069 111.282 123.069C118.531 123.069 123.843 128.019 124.201 137.318H98.3558ZM136.52 147.458V137.318C136.52 121.497 124.8 111.473 111.283 111.473C99.4391 111.473 86.0377 119.199 86.0377 142.996C86.0377 168.115 100.649 174.156 113.213 174.156C121.42 174.156 129.274 171.251 135.308 164.249L126.379 156.645C122.75 160.385 117.68 162.56 112.97 162.56C104.515 162.56 98.3564 157.484 98.3564 147.458H136.52ZM146.286 93.5954H158.604V112.197H167.535V121.618H158.604V157.243C158.604 160.628 159.93 161.835 162.941 161.835H167.535V173.429H161.137C152.558 173.429 146.286 167.985 146.286 158.331V121.618H140.116V112.197H146.286V93.5954ZM208.485 135.265C218.145 135.265 222.485 141.421 222.485 148.184C222.485 154.951 218.144 161.109 208.485 161.109H188.432V135.265H208.485ZM175.383 173.429H211.619C224.545 173.429 235.531 163.887 235.531 149.034C235.531 140.337 230.944 131.401 221.525 129.221V128.983C231.549 124.513 234.209 117.629 234.209 110.506C234.208 96.9789 225.503 87.4355 208.721 87.4355H175.383V173.429ZM207.27 99.0342C216.692 99.0342 221.159 104.708 221.159 111.352C221.159 118.111 216.692 123.674 207.27 123.674H188.432V99.0342H207.27ZM242.612 87.4355H254.93V157.606C254.93 160.384 256.501 161.835 259.53 161.835H263.75V173.429H258.316C249.373 173.429 242.612 169.566 242.612 158.57V87.4355ZM268.942 112.197H281.261V148.667C281.261 157.006 286.452 161.835 293.467 161.835C300.347 161.835 305.534 157.007 305.534 148.667V112.197H317.858V173.429H305.534V166.903H305.303C301.434 171.737 295.876 174.155 289.473 174.155C279.818 174.155 268.942 166.783 268.942 152.899V112.197ZM336.796 137.318C337.047 128.019 342.472 123.069 349.72 123.069C356.965 123.069 362.278 128.019 362.65 137.318H336.796ZM374.965 147.458V137.318C374.965 121.497 363.249 111.473 349.72 111.473C337.883 111.473 324.472 119.199 324.472 142.996C324.472 168.115 339.092 174.156 351.648 174.156C359.871 174.156 367.715 171.251 373.755 164.249L364.814 156.645C361.19 160.385 356.125 162.561 351.413 162.561C342.96 162.561 336.796 157.486 336.796 147.459L374.965 147.458Z" fill="#003876"/>
</svg>
