<svg width="480" height="320" viewBox="0 0 480 320" fill="none" xmlns="http://www.w3.org/2000/svg">
<path d="M175.172 159.019H166.058V178.633C166.058 182.19 168.143 182.97 171.351 182.97C172.571 182.97 173.871 182.797 175.172 182.797V193.652C172.48 193.738 169.788 194.082 167.1 194.082C154.51 194.082 151.297 190.439 151.297 178.197V159.019H143.833V149.11H151.297V134.961H166.058V149.11H175.172V159.019ZM249.473 159.019H240.354V178.633C240.354 182.19 242.439 182.97 245.652 182.97C246.867 182.97 248.173 182.797 249.473 182.797V193.652C246.781 193.738 244.089 194.082 241.397 194.082C228.806 194.082 225.598 190.439 225.598 178.197V159.019H218.129V149.11H225.598V134.961H240.354V149.11H249.473V159.019ZM96.5512 174.906C96.5512 188.079 89.7957 194.743 75.9654 194.743C60.4047 194.743 55.3848 185.771 55.3848 172.68V170.129H69.7918V175.564C69.7918 179.435 71.9323 181.576 75.7176 181.576C79.2598 181.576 81.2334 179.597 81.2334 173.914V134.727H96.5512V174.906ZM130.945 166.519C130.687 161.529 127.16 157.394 122.252 157.394C117.085 157.394 113.644 161.099 112.784 166.519H130.945ZM112.784 174.691C113.042 180.804 116.569 184.847 122.768 184.847C126.295 184.847 129.741 183.218 131.123 179.944H144.801C142.134 190.272 132.58 194.746 122.596 194.746C108.052 194.746 98.1489 185.971 98.1489 170.992C98.1489 157.309 109.084 147.497 122.252 147.497C138.263 147.497 146.263 159.55 145.58 174.691H112.784ZM189.559 178.78C189.559 181.012 190.501 182.647 191.963 183.76C193.334 184.792 195.313 185.303 197.372 185.303C200.206 185.303 204.239 184.104 204.239 180.582C204.239 177.146 199.69 176.463 197.114 175.866C187.925 173.543 176.422 173.29 176.422 161.266C176.422 150.538 188.021 147.618 196.77 147.618C206.557 147.618 216.774 150.452 217.29 162.041H203.814C203.814 160.153 203.121 158.949 201.922 158.174C200.723 157.405 199.093 157.061 197.286 157.061C194.883 157.061 191.022 157.319 191.022 160.411C191.022 164.616 200.803 165.386 207.503 166.848C216.521 168.65 218.834 175.172 218.834 178.866C218.834 190.799 207.503 194.746 197.459 194.746C186.897 194.746 176.078 191.229 175.653 178.78H189.559ZM270.984 185.755C277.922 185.755 280.229 181.818 279.885 172.658C277.831 173.939 274.061 174.197 270.893 175.052C267.639 175.826 264.901 177.193 264.901 180.704C264.901 184.302 267.73 185.755 270.984 185.755ZM252.144 162.725C252.402 156.9 255.14 153.13 259.077 150.823C263.019 148.591 268.15 147.736 273.205 147.736C283.741 147.736 293.923 150.048 293.923 162.639V182.081C293.923 185.841 293.923 189.955 295.643 193.467H280.998C280.487 192.095 280.31 190.724 280.143 189.272C276.373 193.209 270.807 194.742 265.498 194.742C257.022 194.742 250.347 190.466 250.347 181.307C250.347 166.829 266.101 167.947 276.206 165.893C278.686 165.377 280.057 164.521 280.057 161.783C280.057 158.439 276.034 157.153 273.033 157.153C269.01 157.153 266.445 158.955 265.756 162.725H252.144ZM316.352 150.41C314.125 151.868 312.395 153.998 311.342 156.771H311.175V148.958H297.006V193.515H311.6V171.451C311.6 165.875 315.371 160.89 322.587 160.89C324.262 160.89 325.759 161.149 327.323 161.538L316.352 150.41Z" fill="#100E0C"/>
<path fill-rule="evenodd" clip-rule="evenodd" d="M380.514 109.299L382.417 139.849H424.615L384.198 166.593L393.114 210.699L358.759 180.863L312.512 204.875L340.091 167.074L313.939 139.849H356.264L380.514 109.299Z" fill="#FE5815"/>
</svg>
