<svg width="480" height="320" viewBox="0 0 480 320" fill="none" xmlns="http://www.w3.org/2000/svg">
<path d="M230.832 266.667C289.742 266.667 337.498 218.911 337.498 160.001C337.498 101.09 289.742 53.334 230.832 53.334C171.921 53.334 124.165 101.09 124.165 160.001C124.165 218.911 171.921 266.667 230.832 266.667Z" fill="#0B3D91"/>
<path d="M224.534 75.0166C225.194 75.0166 225.73 74.4812 225.73 73.8208C225.73 73.1604 225.194 72.625 224.534 72.625C223.873 72.625 223.338 73.1604 223.338 73.8208C223.338 74.4812 223.873 75.0166 224.534 75.0166Z" fill="white"/>
<path d="M236.811 76.6123C237.471 76.6123 238.007 76.0769 238.007 75.4165C238.007 74.7561 237.471 74.2207 236.811 74.2207C236.151 74.2207 235.615 74.7561 235.615 75.4165C235.615 76.0769 236.151 76.6123 236.811 76.6123Z" fill="white"/>
<path d="M252.915 98.2959C253.575 98.2959 254.11 97.7605 254.11 97.1001C254.11 96.4397 253.575 95.9043 252.915 95.9043C252.254 95.9043 251.719 96.4397 251.719 97.1001C251.719 97.7605 252.254 98.2959 252.915 98.2959Z" fill="white"/>
<path d="M164.584 209.905C165.244 209.905 165.779 209.37 165.779 208.709C165.779 208.049 165.244 207.514 164.584 207.514C163.923 207.514 163.388 208.049 163.388 208.709C163.388 209.37 163.923 209.905 164.584 209.905Z" fill="white"/>
<path d="M167.693 219.472C168.353 219.472 168.889 218.936 168.889 218.276C168.889 217.615 168.353 217.08 167.693 217.08C167.032 217.08 166.497 217.615 166.497 218.276C166.497 218.936 167.032 219.472 167.693 219.472Z" fill="white"/>
<path d="M152.864 211.039C153.359 211.039 153.76 210.638 153.76 210.144C153.76 209.649 153.359 209.248 152.864 209.248C152.37 209.248 151.969 209.649 151.969 210.144C151.969 210.638 152.37 211.039 152.864 211.039Z" fill="white"/>
<path d="M201.495 229.835C201.991 229.835 202.393 229.433 202.393 228.937C202.393 228.441 201.991 228.039 201.495 228.039C200.999 228.039 200.597 228.441 200.597 228.937C200.597 229.433 200.999 229.835 201.495 229.835Z" fill="white"/>
<path d="M277.767 213.99C278.261 213.99 278.662 213.589 278.662 213.095C278.662 212.6 278.261 212.199 277.767 212.199C277.272 212.199 276.871 212.6 276.871 213.095C276.871 213.589 277.272 213.99 277.767 213.99Z" fill="white"/>
<path d="M299.931 189.917C300.427 189.917 300.83 189.515 300.83 189.019C300.83 188.523 300.427 188.121 299.931 188.121C299.435 188.121 299.033 188.523 299.033 189.019C299.033 189.515 299.435 189.917 299.931 189.917Z" fill="white"/>
<path d="M191.29 104.99C191.785 104.99 192.186 104.589 192.186 104.095C192.186 103.6 191.785 103.199 191.29 103.199C190.795 103.199 190.395 103.6 190.395 104.095C190.395 104.589 190.795 104.99 191.29 104.99Z" fill="white"/>
<path d="M215.685 87.0743C216.179 87.0743 216.58 86.6733 216.58 86.1787C216.58 85.6841 216.179 85.2832 215.685 85.2832C215.19 85.2832 214.789 85.6841 214.789 86.1787C214.789 86.6733 215.19 87.0743 215.685 87.0743Z" fill="white"/>
<path d="M213.035 85.3204C213.53 85.3204 213.931 84.9194 213.931 84.4248C213.931 83.9302 213.53 83.5293 213.035 83.5293C212.541 83.5293 212.14 83.9302 212.14 84.4248C212.14 84.9194 212.541 85.3204 213.035 85.3204Z" fill="white"/>
<path d="M210.644 83.5665C211.138 83.5665 211.539 83.1655 211.539 82.6709C211.539 82.1763 211.138 81.7754 210.644 81.7754C210.149 81.7754 209.748 82.1763 209.748 82.6709C209.748 83.1655 210.149 83.5665 210.644 83.5665Z" fill="white"/>
<path d="M195.117 109.617C195.612 109.617 196.013 109.216 196.013 108.722C196.013 108.227 195.612 107.826 195.117 107.826C194.623 107.826 194.222 108.227 194.222 108.722C194.222 109.216 194.623 109.617 195.117 109.617Z" fill="white"/>
<path d="M231.05 62.9981C231.544 62.9981 231.945 62.5972 231.945 62.1026C231.945 61.608 231.544 61.207 231.05 61.207C230.555 61.207 230.154 61.608 230.154 62.1026C230.154 62.5972 230.555 62.9981 231.05 62.9981Z" fill="white"/>
<path d="M236.952 88.8282C237.447 88.8282 237.848 88.4272 237.848 87.9326C237.848 87.4381 237.447 87.0371 236.952 87.0371C236.458 87.0371 236.057 87.4381 236.057 87.9326C236.057 88.4272 236.458 88.8282 236.952 88.8282Z" fill="white"/>
<path d="M227.644 83.7833C228.138 83.7833 228.539 83.3823 228.539 82.8877C228.539 82.3931 228.138 81.9922 227.644 81.9922C227.149 81.9922 226.748 82.3931 226.748 82.8877C226.748 83.3823 227.149 83.7833 227.644 83.7833Z" fill="white"/>
<path d="M211.699 90.6426C212.194 90.6426 212.595 90.2417 212.595 89.7471C212.595 89.2525 212.194 88.8516 211.699 88.8516C211.205 88.8516 210.804 89.2525 210.804 89.7471C210.804 90.2417 211.205 90.6426 211.699 90.6426Z" fill="white"/>
<path d="M282.013 237.648C282.507 237.648 282.908 237.248 282.908 236.753C282.908 236.258 282.507 235.857 282.013 235.857C281.518 235.857 281.117 236.258 281.117 236.753C281.117 237.248 281.518 237.648 282.013 237.648Z" fill="white"/>
<path d="M163.069 215.666C163.565 215.666 163.967 215.263 163.967 214.767C163.967 214.271 163.565 213.869 163.069 213.869C162.573 213.869 162.171 214.271 162.171 214.767C162.171 215.263 162.573 215.666 163.069 215.666Z" fill="white"/>
<path d="M225.411 227.226C225.907 227.226 226.309 226.824 226.309 226.328C226.309 225.832 225.907 225.43 225.411 225.43C224.915 225.43 224.513 225.832 224.513 226.328C224.513 226.824 224.915 227.226 225.411 227.226Z" fill="white"/>
<path d="M181.623 214.949C182.119 214.949 182.521 214.547 182.521 214.051C182.521 213.554 182.119 213.152 181.623 213.152C181.127 213.152 180.725 213.554 180.725 214.051C180.725 214.547 181.127 214.949 181.623 214.949Z" fill="white"/>
<path d="M189.377 227.607C189.873 227.607 190.275 227.205 190.275 226.709C190.275 226.213 189.873 225.811 189.377 225.811C188.881 225.811 188.479 226.213 188.479 226.709C188.479 227.205 188.881 227.607 189.377 227.607Z" fill="white"/>
<path d="M246.457 219.631C246.952 219.631 247.353 219.23 247.353 218.735C247.353 218.241 246.952 217.84 246.457 217.84C245.962 217.84 245.562 218.241 245.562 218.735C245.562 219.23 245.962 219.631 246.457 219.631Z" fill="white"/>
<path d="M277.926 201.871C278.42 201.871 278.821 201.47 278.821 200.976C278.821 200.481 278.42 200.08 277.926 200.08C277.431 200.08 277.03 200.481 277.03 200.976C277.03 201.47 277.431 201.871 277.926 201.871Z" fill="white"/>
<path d="M301.783 212.773C302.278 212.773 302.679 212.373 302.679 211.878C302.679 211.383 302.278 210.982 301.783 210.982C301.289 210.982 300.888 211.383 300.888 211.878C300.888 212.373 301.289 212.773 301.783 212.773Z" fill="white"/>
<path d="M309.915 217.977C310.41 217.977 310.811 217.576 310.811 217.081C310.811 216.587 310.41 216.186 309.915 216.186C309.42 216.186 309.02 216.587 309.02 217.081C309.02 217.576 309.42 217.977 309.915 217.977Z" fill="white"/>
<path d="M311.252 203.785C311.747 203.785 312.148 203.384 312.148 202.89C312.148 202.395 311.747 201.994 311.252 201.994C310.757 201.994 310.356 202.395 310.356 202.89C310.356 203.384 310.757 203.785 311.252 203.785Z" fill="white"/>
<path d="M192.624 183.695C193.119 183.695 193.52 183.294 193.52 182.8C193.52 182.305 193.119 181.904 192.624 181.904C192.129 181.904 191.729 182.305 191.729 182.8C191.729 183.294 192.129 183.695 192.624 183.695Z" fill="white"/>
<path d="M192.964 204.564C193.625 204.564 194.16 204.028 194.16 203.368C194.16 202.707 193.625 202.172 192.964 202.172C192.304 202.172 191.769 202.707 191.769 203.368C191.769 204.028 192.304 204.564 192.964 204.564Z" fill="white"/>
<path d="M200.139 219.71C200.8 219.71 201.335 219.175 201.335 218.514C201.335 217.854 200.8 217.318 200.139 217.318C199.479 217.318 198.943 217.854 198.943 218.514C198.943 219.175 199.479 219.71 200.139 219.71Z" fill="white"/>
<path d="M286.079 203.927C286.739 203.927 287.274 203.391 287.274 202.731C287.274 202.071 286.739 201.535 286.079 201.535C285.418 201.535 284.883 202.071 284.883 202.731C284.883 203.391 285.418 203.927 286.079 203.927Z" fill="white"/>
<path d="M317.01 202.173C317.671 202.173 318.206 201.637 318.206 200.977C318.206 200.317 317.671 199.781 317.01 199.781C316.35 199.781 315.814 200.317 315.814 200.977C315.814 201.637 316.35 202.173 317.01 202.173Z" fill="white"/>
<path d="M301.704 195.636C302.364 195.636 302.899 195.1 302.899 194.44C302.899 193.78 302.364 193.244 301.704 193.244C301.043 193.244 300.508 193.78 300.508 194.44C300.508 195.1 301.043 195.636 301.704 195.636Z" fill="white"/>
<path d="M286.079 196.272C286.739 196.272 287.274 195.737 287.274 195.077C287.274 194.416 286.739 193.881 286.079 193.881C285.418 193.881 284.883 194.416 284.883 195.077C284.883 195.737 285.418 196.272 286.079 196.272Z" fill="white"/>
<path d="M253.848 73.0721L256.821 72.7877L253.853 72.6203C253.808 72.3399 253.673 72.0816 253.469 71.8839C253.265 71.6861 253.003 71.5595 252.721 71.5228L252.437 68.5625L252.266 71.5467C252.002 71.6064 251.762 71.7469 251.58 71.9487C251.398 72.1505 251.283 72.4037 251.251 72.6734L248.211 72.9498L251.273 73.1146C251.384 73.6274 251.799 74.0287 252.32 74.1244L252.596 77.175L252.758 74.1297C253.308 74.0367 253.744 73.6142 253.848 73.0721ZM203.661 106.178L206.634 105.893L203.666 105.726C203.621 105.445 203.486 105.187 203.282 104.989C203.078 104.791 202.816 104.665 202.534 104.628L202.25 101.668L202.082 104.652C201.817 104.711 201.576 104.852 201.394 105.053C201.211 105.255 201.096 105.509 201.064 105.779L198.024 106.055L201.086 106.22C201.197 106.733 201.612 107.134 202.133 107.23L202.409 110.28L202.574 107.235C203.124 107.145 203.56 106.72 203.661 106.178ZM314.831 193.706L317.805 193.421L314.837 193.254C314.792 192.973 314.657 192.715 314.453 192.517C314.249 192.319 313.987 192.193 313.705 192.157L313.42 189.196L313.253 192.181C312.988 192.24 312.748 192.381 312.566 192.582C312.384 192.784 312.27 193.037 312.238 193.307L309.198 193.584L312.259 193.748C312.371 194.261 312.785 194.662 313.306 194.758L313.583 197.809L313.747 194.763C314.014 194.719 314.261 194.594 314.455 194.405C314.649 194.216 314.78 193.972 314.831 193.706ZM193.616 239.471L196.589 239.187L193.621 239.019C193.576 238.739 193.441 238.481 193.237 238.283C193.033 238.085 192.771 237.958 192.489 237.922L192.205 234.964L192.037 237.946C191.772 238.005 191.531 238.145 191.349 238.347C191.167 238.549 191.051 238.802 191.02 239.072L187.979 239.349L191.041 239.513C191.096 239.766 191.225 239.997 191.412 240.177C191.598 240.356 191.833 240.477 192.088 240.523L192.364 243.574L192.529 240.529C193.076 240.438 193.515 240.013 193.616 239.471ZM305.385 217.149L308.358 216.865L305.39 216.697C305.345 216.417 305.21 216.158 305.006 215.96C304.802 215.763 304.54 215.636 304.258 215.6L303.974 212.64L303.806 215.621C303.541 215.681 303.301 215.821 303.119 216.023C302.938 216.225 302.823 216.478 302.791 216.748L299.751 217.024L302.812 217.189C302.924 217.702 303.338 218.103 303.859 218.199L304.136 221.249L304.3 218.204C304.845 218.116 305.284 217.691 305.385 217.149Z" fill="white"/>
<path d="M256.127 134.45C243.725 139.27 231.629 143.573 221.422 146.767C200.681 153.261 143.933 170.842 109.653 193.005L112.523 194.121C133.41 182.322 146.987 178.615 160.037 174.51C174.227 170.045 220.101 159.309 240.874 153.463C247.892 151.489 256.111 148.903 264.817 145.757C262.751 142.876 260.614 140.047 258.407 137.272C257.655 136.318 256.893 135.377 256.127 134.45ZM271.28 155.334C268.277 157.362 265.76 158.98 263.998 160C253.794 165.9 204.046 199.861 192.728 207.673C181.41 215.486 149.997 245.142 140.75 253.752L140.431 257.257C170.247 230.471 179.601 223.865 191.452 214.848C206.121 203.687 236.465 183.04 246.779 176.423C256.638 170.098 265.529 164.281 273.509 158.959C273.379 158.741 273.249 158.523 273.119 158.302C272.518 157.316 271.904 156.328 271.28 155.334ZM317.887 106.109C303.362 114.623 280.469 124.899 258.259 133.618C258.79 134.269 259.319 134.925 259.845 135.587C262.327 138.712 264.668 141.859 266.871 145.007C284.33 138.577 303.487 129.946 318.687 119.499C311.446 126.361 287.506 144.253 272.909 154.226C273.661 155.451 274.389 156.676 275.093 157.896C297.208 143.097 312.089 132.204 320.76 124.92C332.718 114.876 359.983 92.3943 370.346 62.2598C352.167 85.3815 330.674 98.6125 317.887 106.109Z" fill="#FC3D21"/>
<path d="M217.106 186.412C214.755 183.452 211.502 179.487 209.06 176.412C205.871 172.401 202.85 168.26 200.003 164C199.1 164.226 198.199 164.452 197.298 164.677C200.641 169.894 204.354 175.102 208.398 180.194C211.353 183.914 214.04 186.909 215.416 188.772C215.695 189.149 216.248 189.983 216.995 191.094L219.602 189.324C218.735 188.384 217.903 187.412 217.106 186.412ZM234.273 201.995C232.341 200.167 227.656 197.113 222.78 192.532C221.704 193.271 220.617 194.02 219.527 194.775C222.676 199.213 226.965 204.663 230.324 206.252C235.384 208.649 236.747 204.339 234.273 201.995ZM259.845 135.587C231.964 100.494 197.904 81.2149 183.22 92.8834C171.814 101.945 176.496 128.428 192.217 156.248C193.031 155.969 193.836 155.695 194.633 155.424C178.766 128.319 174.424 103.13 185.181 94.5814C198.699 83.8403 231.339 103.194 258.412 137.269C264.017 144.322 268.943 151.401 273.116 158.302C289.092 184.743 293.994 208.654 282.956 218.415C279.578 221.402 269.257 222.573 255.736 216.488C255.548 216.725 255.851 217.365 256.087 217.522C267.758 222.215 278.938 224.003 284.582 219.52C298.145 208.742 287.726 170.68 259.845 135.587ZM140.269 139.751H158.126L173.114 165.182V145.332C173.114 143.1 170.283 140.19 169.287 139.751H181.644C180.886 139.951 178.455 142.9 178.455 145.332V174.51C178.455 176.303 181.046 178.775 182.282 179.731H165.062L149.835 154.181V174.27C149.835 176.264 151.788 178.177 153.821 179.811H140.667C142.541 179.014 144.334 176.503 144.494 174.51C144.653 172.517 144.494 146.807 144.494 145.691C144.494 143.259 142.142 141.266 140.269 139.751Z" fill="white"/>
<path d="M303.617 179.73H327.374C326.058 179.411 324.584 177.857 323.786 175.784C322.989 173.711 310.393 139.75 310.393 139.75H301.361C298.799 141.594 296.054 143.54 293.123 145.588C293.115 145.663 293.107 145.737 293.094 145.809C292.701 148.201 285.632 173.802 285.201 175.067C284.604 176.82 281.534 178.774 280.299 179.81H293.094C291.818 178.375 290.782 176.98 291.021 175.385C291.26 173.791 291.978 170.602 291.978 170.602H305.211C305.809 172.197 306.256 173.629 306.487 174.987C306.766 176.621 305.092 178.455 303.617 179.73ZM293.174 165.5L297.638 150.911L303.537 165.5H293.174ZM291.162 141.206C291.818 140.723 292.477 140.236 293.134 139.75H289.666C290.011 140.069 290.583 140.571 291.162 141.206ZM200.299 175.385C200.538 173.791 201.255 170.602 201.255 170.602H214.489C215.087 172.197 215.533 173.629 215.765 174.987C216.044 176.621 214.369 178.455 212.895 179.73H233.811C234.246 179.438 234.68 179.146 235.113 178.856C234.302 178.138 233.556 177.062 233.064 175.784C232.267 173.711 219.671 139.75 219.671 139.75H198.943C199.94 140.667 202.81 143.138 202.371 145.809C201.981 148.201 194.91 173.802 194.479 175.067C193.881 176.82 190.812 178.774 189.576 179.81H202.371C201.096 178.375 200.059 176.98 200.299 175.385ZM206.915 150.911L212.815 165.5H202.451L206.915 150.911ZM272.55 159.595C268.649 162.194 264.532 164.907 260.196 167.74C262.141 168.684 263.69 169.869 263.839 171.399C264.115 174.275 258.338 175.664 253.116 175.067C252.072 174.947 251.046 174.673 250.068 174.307C248.984 175.005 247.889 175.71 246.779 176.422C245.649 177.147 244.278 178.04 242.713 179.071V183.198C243.749 181.165 246.016 179.345 247.775 179.252C248.532 179.212 251.163 181.644 262.005 181.046C267.267 180.756 277.431 175.146 277.272 168.689C277.176 164.873 275.183 161.897 272.55 159.595ZM242.71 169.566V173.77C243.67 173.129 244.616 172.5 245.543 171.886C244.084 170.871 243.05 169.922 242.71 169.566ZM268.843 156.957C267.833 156.359 266.81 155.835 265.829 155.373C260.727 152.981 255.386 152.543 254.27 149.314C253.483 147.037 255.705 144.929 261.126 145.009C266.547 145.089 271.569 148.318 272.924 149.473V139.189C272.526 139.588 270.777 141.594 269.178 141.262C266.108 140.624 260.887 139.793 254.908 139.827C248.052 139.867 242.152 145.166 241.953 151.865C241.674 161.232 249.168 163.783 253.393 165.258C253.829 165.41 254.326 165.572 254.865 165.745C258.917 163.108 262.122 161.078 263.998 159.997C265.258 159.271 266.908 158.229 268.843 156.957Z" fill="white"/>
</svg>
