<svg width="480" height="320" viewBox="0 0 480 320" fill="none" xmlns="http://www.w3.org/2000/svg">
<path d="M102.207 96.248H140.928C153.727 96.248 160.208 96.248 167.013 98.3541C174.628 101.108 180.46 107.103 183.214 114.555C185.32 121.522 185.32 127.841 185.32 140.64V179.361C185.32 192.16 185.32 198.641 183.214 205.446C180.46 213.06 174.465 218.892 167.013 221.647C160.046 223.753 153.727 223.753 140.928 223.753H102.207C89.4081 223.753 82.9273 223.753 76.1226 221.647C68.5084 218.892 62.6759 212.898 59.9215 205.446C57.8154 198.479 57.8154 192.16 57.8154 179.361V140.802C57.8154 128.003 57.8154 121.522 59.9215 114.717C62.6759 107.103 68.6703 101.271 76.1226 98.5162C83.0892 96.2481 89.4081 96.248 102.207 96.248Z" fill="#1A3E6E" stroke="white" stroke-width="12.1512" stroke-miterlimit="10"/>
<path d="M77.0947 201.881L92.9726 121.683H93.9442L121.649 178.389L149.353 121.521H150.164L166.041 201.719H152.755L144.331 157.813L122.135 204.474H121.001L98.157 157.975L89.7319 201.881L77.0947 201.881Z" fill="white"/>
<path d="M190.344 149.874C191.153 150.36 191.964 150.522 192.612 150.846C193.259 151.008 193.908 151.17 194.718 151.17C196.338 151.17 197.472 150.683 198.282 149.55C199.092 148.415 199.416 146.796 199.416 144.528V122.331H205.249V145.337C205.249 148.902 204.439 151.494 202.656 153.438C201.036 155.22 198.444 156.192 195.366 156.192C194.556 156.192 193.746 156.192 193.097 156.03C192.288 155.868 191.64 155.868 190.991 155.706L190.344 149.874ZM210.92 145.338C210.92 142.097 212.054 139.343 214.16 137.237C216.266 135.13 219.02 133.997 222.26 133.997C225.5 133.997 228.255 135.13 230.361 137.237C232.467 139.343 233.602 142.097 233.602 145.338C233.602 148.578 232.467 151.332 230.361 153.438C228.255 155.544 225.5 156.678 222.26 156.678C219.02 156.678 216.266 155.544 214.16 153.438C211.892 151.332 210.92 148.578 210.92 145.338ZM216.428 145.338C216.428 147.444 216.914 149.064 218.048 150.36C219.02 151.656 220.478 152.304 222.098 152.304C223.719 152.304 225.015 151.656 226.149 150.36C227.121 149.064 227.768 147.444 227.768 145.338C227.768 143.232 227.283 141.611 226.149 140.315C225.177 139.019 223.719 138.371 222.098 138.371C220.478 138.371 219.02 139.019 218.048 140.315C217.076 141.611 216.428 143.232 216.428 145.338H216.428ZM237.976 122.818L243.484 121.846V138.047C244.618 136.751 245.752 135.941 247.048 135.293C248.345 134.645 249.641 134.321 251.099 134.321C253.529 134.321 255.311 134.969 256.445 136.265C257.579 137.561 258.228 139.343 258.228 141.773V155.706H252.719V142.907C252.719 141.611 252.395 140.639 251.748 139.991C251.099 139.343 250.127 139.019 248.993 139.019C247.211 139.019 245.752 139.505 244.78 140.315C243.808 141.125 243.322 142.422 243.322 143.879V155.706H237.814L237.976 122.818ZM269.568 155.706H264.06V134.969H269.083V138.371C270.217 137.075 271.513 135.941 272.809 135.293C274.105 134.645 275.563 134.321 277.183 134.321C279.613 134.321 281.395 134.969 282.529 136.265C283.826 137.561 284.312 139.343 284.312 141.773V155.706H278.804V142.907C278.804 141.611 278.48 140.639 277.832 139.991C277.183 139.343 276.211 139.019 275.077 139.019C273.295 139.019 271.837 139.505 270.865 140.315C269.893 141.125 269.406 142.421 269.406 144.042V155.706H269.568Z" fill="#003A70"/>
<path d="M192.125 201.072L198.929 166.562H199.415L211.405 191.027L223.232 166.562H223.556L230.36 201.072H224.69L221.125 182.116L211.728 202.206H211.243L201.36 182.116L197.796 201.072H192.125ZM253.69 195.078L253.204 200.1C251.583 200.748 250.125 201.234 248.668 201.558C247.371 201.882 245.913 202.044 244.779 202.044C241.539 202.044 238.784 200.91 236.678 198.803C234.572 196.697 233.438 193.943 233.438 190.702C233.438 187.462 234.572 184.709 236.678 182.602C238.784 180.496 241.539 179.362 244.779 179.362C247.695 179.362 250.125 180.171 251.908 181.792C253.69 183.412 254.662 185.68 254.662 188.434V190.54L254.176 191.351L239.271 191.837C239.432 193.619 240.081 195.077 241.215 196.049C242.349 197.021 243.807 197.508 245.751 197.508C246.885 197.508 248.181 197.346 249.478 196.859C250.449 196.697 251.908 196.049 253.69 195.077V195.078ZM239.109 188.921L249.477 188.435V188.111C249.477 186.815 248.991 185.843 248.182 185.033C247.372 184.223 246.237 183.899 244.779 183.899C243.321 183.899 242.025 184.385 241.053 185.195C239.919 186.005 239.271 187.301 239.109 188.921V188.921ZM264.545 201.072H259.037V180.334H264.059V183.736C265.193 182.44 266.489 181.306 267.785 180.658C269.082 180.01 270.539 179.686 272.16 179.686C274.59 179.686 276.372 180.334 277.506 181.63C278.641 182.926 279.288 184.709 279.288 187.138V201.072H273.942V188.272C273.942 186.977 273.618 186.005 272.97 185.356C272.322 184.709 271.35 184.385 270.216 184.385C268.433 184.385 266.976 184.87 266.003 185.68C265.031 186.49 264.545 187.787 264.545 189.407V201.072ZM282.367 201.072L293.384 184.708H283.663L284.797 180.334H302.457L291.439 196.698H302.457L301.16 201.072L282.367 201.072ZM306.021 172.557C306.021 171.586 306.344 170.775 306.993 170.127C307.641 169.479 308.451 169.155 309.261 169.155C310.233 169.155 311.043 169.479 311.529 170.127C312.177 170.775 312.501 171.585 312.501 172.557C312.501 173.529 312.177 174.177 311.529 174.826C310.882 175.473 310.071 175.797 309.261 175.797C308.289 175.797 307.479 175.473 306.993 174.826C306.345 174.34 306.021 173.529 306.021 172.557H306.021ZM312.177 201.072H306.669V180.334L312.177 179.362V201.072ZM336.966 195.077L336.48 200.1C334.859 200.748 333.402 201.233 331.943 201.558C330.647 201.882 329.189 202.044 328.055 202.044C324.815 202.044 322.061 200.91 319.954 198.803C317.848 196.697 316.714 193.943 316.714 190.702C316.714 187.462 317.848 184.709 319.954 182.602C322.06 180.496 324.815 179.362 328.055 179.362C330.971 179.362 333.401 180.171 335.184 181.792C336.966 183.412 337.938 185.68 337.938 188.434V190.54L337.452 191.351L322.547 191.837C322.709 193.619 323.357 195.077 324.491 196.049C325.625 197.021 327.083 197.508 329.027 197.508C330.161 197.508 331.457 197.346 332.754 196.859C333.725 196.697 335.184 196.049 336.966 195.077H336.966ZM322.384 188.921L332.753 188.435V188.111C332.753 186.815 332.266 185.843 331.457 185.033C330.647 184.223 329.513 183.899 328.054 183.899C326.596 183.899 325.3 184.385 324.328 185.195C323.356 186.005 322.708 187.301 322.384 188.921V188.921ZM342.15 195.401C343.608 196.211 344.904 196.697 346.038 197.183C347.172 197.507 348.306 197.831 349.278 197.831C350.25 197.831 350.899 197.67 351.384 197.345C351.871 197.021 352.195 196.535 352.195 195.887C352.195 195.401 352.033 194.915 351.547 194.591C351.223 194.267 350.412 193.781 349.116 193.295L347.172 192.485C345.39 191.674 343.932 190.864 343.122 189.73C342.15 188.759 341.826 187.462 341.826 186.004C341.826 184.06 342.474 182.44 343.932 181.305C345.39 180.171 347.172 179.524 349.602 179.524C350.737 179.524 352.033 179.686 353.167 180.01C354.301 180.334 355.597 180.82 356.731 181.468L356.245 186.328C354.786 185.518 353.329 184.87 352.357 184.384C351.223 183.898 350.412 183.736 349.764 183.736C349.116 183.736 348.468 183.898 347.982 184.222C347.495 184.546 347.334 185.032 347.334 185.518C347.334 186.004 347.496 186.328 347.82 186.652C348.144 186.976 348.631 187.3 349.44 187.624L352.681 189.083C354.625 190.054 356.083 190.864 356.731 191.836C357.379 192.808 357.865 193.943 357.865 195.401C357.865 197.507 357.218 199.127 355.759 200.261C354.301 201.557 352.357 202.044 350.089 202.044C348.793 202.044 347.334 201.882 346.038 201.558C344.742 201.234 343.446 200.91 342.15 200.262V195.401ZM374.067 201.72V209.82L368.558 211.117V180.334H374.067C374.877 180.01 375.687 179.848 376.497 179.686C377.307 179.524 378.117 179.524 378.927 179.524C382.168 179.524 384.922 180.496 387.028 182.602C389.134 184.709 390.106 187.301 390.106 190.703C390.106 194.105 388.972 197.021 386.704 198.965C384.436 201.072 381.519 202.044 377.793 202.044H376.335C375.525 201.882 374.877 201.882 374.067 201.72ZM374.067 184.222V197.67C374.715 197.831 375.201 197.993 375.687 197.993C376.173 197.993 376.821 198.155 377.307 198.155C379.413 198.155 381.195 197.508 382.491 196.049C383.788 194.753 384.436 192.808 384.436 190.54C384.436 188.434 383.788 186.652 382.653 185.356C381.519 184.06 379.899 183.412 377.955 183.412C377.307 183.412 376.659 183.412 376.173 183.574C375.363 183.736 374.715 183.898 374.067 184.222V184.222ZM400.151 201.072H394.642V168.183L400.151 167.211V201.072ZM423.805 200.1C422.671 200.748 421.537 201.233 420.403 201.558C419.269 201.882 417.973 202.044 416.676 202.044C413.112 202.044 410.358 201.072 408.09 198.965C405.822 196.859 404.85 194.105 404.85 190.702C404.85 187.462 405.984 184.87 408.413 182.602C410.844 180.334 413.76 179.362 417.325 179.362C418.296 179.362 419.431 179.524 420.565 179.686C421.699 180.009 422.995 180.333 424.453 180.819L423.806 185.518C422.509 185.032 421.537 184.546 420.565 184.383C419.593 184.06 418.783 184.06 417.972 184.06C415.704 184.06 414.084 184.708 412.626 185.842C411.33 187.139 410.682 188.758 410.682 190.702C410.682 192.809 411.33 194.429 412.626 195.563C413.922 196.697 415.704 197.345 417.972 197.345C419.106 197.345 420.079 197.183 421.213 196.859C422.347 196.536 423.319 195.887 424.615 195.239L423.805 200.1Z" fill="#003A70"/>
</svg>
