<svg width="480" height="320" viewBox="0 0 480 320" fill="none" xmlns="http://www.w3.org/2000/svg">
<path d="M55.3848 112.453H424.616V207.547H55.3848V112.453Z" fill="#3465CB"/>
<path d="M164.958 156.017H165.653L169.267 168.51H161.76L164.958 156.017ZM153.974 129.137L133.117 190.861H155.642L157.867 182.95H173.16L175.109 190.862H197.771L178.03 129.137L153.974 129.137ZM107.615 129.256L95.0896 150.36V129.256H73.9072V190.861H94.5571L94.5354 168.824L107.351 190.861H131.067L114.011 158.829L130.931 129.202L107.616 129.256L107.615 129.256ZM247.929 129.251L238.06 157.712L229.715 129.251H207.467L199.821 190.862H220.815L223.597 165.347L231.382 190.861H244.315L252.24 165.623L255.159 190.861H276.433L270.317 129.251H247.929ZM383.984 129.194V157.1L367.714 129.194H345.189L345.217 190.861H367.158V163.623L383.984 190.861H406.093V129.194H383.984ZM310.323 156.017H311.019L314.635 168.51H307.129L310.323 156.017ZM299.34 129.137L278.482 190.861H301.01L303.233 182.95H318.525L320.472 190.862H343.139L323.393 129.137L299.34 129.137Z" fill="white"/>
</svg>
