<svg width="480" height="320" viewBox="0 0 480 320" fill="none" xmlns="http://www.w3.org/2000/svg">
<path fill-rule="evenodd" clip-rule="evenodd" d="M55.3848 163.919V178.815H89.4132V161.8H96.05C100.285 161.8 107.344 162.505 113.771 163.919C121.255 165.541 127.891 168.224 127.891 172.037C127.891 175.214 122.95 178.815 122.809 178.815H171.452C171.452 178.815 170.252 173.449 167.71 169.92C166.086 167.592 164.04 165.543 160.932 163.921C158.25 162.508 154.789 161.379 150.06 160.602V159.825C152.249 159.825 158.109 157.707 163.191 154.318C170.038 149.728 171.309 141.187 171.309 141.187H123.16C123.16 141.187 127.185 144.507 127.185 147.541C127.185 153.894 104.454 158.694 96.1928 158.694H89.4153V141.187H55.3848V163.919ZM179.92 163.919V141.4H192.133V153.543L202.936 141.4H217.266L203.642 155.52L209.077 163.921L218.749 178.817H204.066L195.03 163.921L192.135 166.955V178.817H179.923V163.919H179.92ZM221.787 163.919C227.575 161.589 236.048 162.93 236.048 159.541C236.048 157.564 233.649 157.352 232.519 157.352C230.966 157.352 228.989 157.633 228.708 159.963H218.329C218.329 154.175 222.424 150.856 233.155 150.856C246.074 150.856 246.851 155.585 246.851 162.081V174.859C246.851 176.411 246.923 177.187 248.334 178.317V178.811H237.109L236.616 175.916C233.58 178.811 230.403 179.586 226.378 179.586C221.224 179.586 216.636 177.046 216.636 171.399C216.632 167.239 218.892 165.119 221.787 163.919ZM249.744 163.919L245.65 151.633H256.169L259.205 163.919L260.333 168.436L261.532 163.919L264.64 151.633H273.818L276.852 163.919L277.983 168.436L279.113 163.919L282.289 151.633H292.527L288.571 163.919L283.842 178.815H273.323L269.369 163.919L269.085 162.858L268.804 163.919L265.203 178.815H254.614L249.744 163.919ZM294.502 163.919C300.221 161.589 308.692 162.93 308.692 159.541C308.692 157.564 306.364 157.352 305.162 157.352C303.679 157.352 301.63 157.633 301.42 159.963H290.97C290.97 154.175 295.136 150.856 305.868 150.856C318.717 150.856 319.492 155.585 319.492 162.081V174.859C319.492 176.411 319.562 177.187 320.976 178.317V178.811H309.82L309.255 175.916C306.219 178.811 303.111 179.586 299.017 179.586C293.935 179.586 289.344 177.046 289.344 171.399C289.348 167.239 291.538 165.119 294.502 163.919ZM322.53 163.919C321.753 162.858 321.331 161.518 321.331 159.823C321.331 152.833 328.533 150.856 334.249 150.856C340.178 150.856 347.098 152.198 347.733 159.398H337.919C337.779 158.48 337.426 157.915 336.861 157.423C336.295 156.93 335.518 156.717 334.671 156.717C332.837 156.717 331.638 157.354 331.638 158.694C331.638 161.377 340.178 160.884 345.193 163.919C347.31 165.188 348.794 167.096 348.794 170.132C348.794 175.779 344.134 179.59 334.178 179.59C327.965 179.59 321.047 177.685 320.482 170.344H330.789C330.789 171.472 331.211 172.319 331.917 172.886C332.623 173.378 333.541 173.661 334.6 173.661C336.222 173.661 337.989 173.168 337.989 171.26C337.993 167.592 326.272 169.426 322.53 163.919ZM354.372 163.919C360.09 161.589 368.561 162.93 368.561 159.541C368.561 157.564 366.16 157.352 365.032 157.352C363.548 157.352 361.5 157.633 361.221 159.963H350.844C350.844 154.175 354.937 150.856 365.74 150.856C378.589 150.856 379.364 155.585 379.364 162.081V174.859C379.364 176.411 379.435 177.187 380.847 178.317V178.811H369.622L369.128 175.916C366.093 178.811 362.985 179.586 358.891 179.586C353.737 179.586 349.147 177.046 349.147 171.399C349.145 167.239 351.405 165.119 354.372 163.919ZM381.482 163.919V141.4H392.283V159.896L399.201 151.635H411.84L401.743 162.155L402.943 163.921L413.18 178.817H400.188L394.329 169.144L392.28 171.193V178.817H381.48V163.919H381.482ZM413.813 151.635V178.817H424.616V151.635H413.813ZM413.813 140.41V148.106H424.616V140.41H413.813ZM368.559 166.812C365.03 168.508 360.372 167.659 360.372 171.191C360.372 172.531 361.641 173.449 363.761 173.449C367.574 173.451 368.843 170.485 368.559 166.812ZM308.692 166.812C305.162 168.508 300.504 167.659 300.504 171.191C300.504 172.531 301.773 173.449 303.962 173.449C307.706 173.451 308.975 170.485 308.692 166.812ZM236.046 166.812C232.517 168.508 227.857 167.659 227.857 171.191C227.857 172.531 229.128 173.449 231.246 173.449C235.059 173.451 236.33 170.485 236.046 166.812Z" fill="#ED1C24"/>
</svg>
