<svg width="480" height="320" viewBox="0 0 480 320" fill="none" xmlns="http://www.w3.org/2000/svg">
<path d="M111.137 122.103C111.137 122.103 100.164 115.196 85.7371 119.259C85.7371 119.259 66.3242 124.845 59.6168 140.489C59.6168 140.489 50.585 155.02 58.91 171.073C58.91 171.073 63.8998 182.317 77.1996 185.502C77.1996 185.502 94.2066 190.078 106.671 180.639C106.671 180.639 125.491 170.708 125.969 149.737C125.969 149.737 127.793 131.246 111.137 122.103ZM120.274 158.676C116.821 168.023 101.382 178.388 101.382 178.388C73.7471 192.206 62.9619 172.173 62.9619 172.173C56.8698 159.167 64.3236 146.765 64.3236 146.765C71.4363 132.744 84.9203 127.183 84.9203 127.183C103.818 119.056 114.59 128.2 114.59 128.2C129.83 139.58 120.274 158.676 120.274 158.676Z" fill="#EC2227"/>
<path d="M80.843 138.713C80.843 138.713 73.4201 156.07 73.3163 157.116C73.3163 157.116 70.6979 165.272 71.9546 173.219L85.1086 173.606C85.1086 173.606 81.4695 171.857 83.7679 162.551C83.7679 162.551 85.3385 157.009 86.4877 156.591C86.4877 156.591 86.8003 156.07 87.0116 157.009C87.0116 157.009 89.6214 166.417 96.6328 173.531C96.6328 173.531 101.018 179.595 111.894 183.775C111.894 183.775 121.41 186.289 127.057 181.586C127.057 181.586 131.868 178.658 131.969 170.183C131.969 170.183 132.051 169.324 131.24 169.978C131.24 169.978 127.682 173.948 118.589 173.219C118.589 173.219 115.873 173.74 108.346 167.992L92.3449 154.818C92.3449 154.818 91.6146 154.294 92.6576 154.186C92.6576 154.186 101.962 152.515 104.685 150.317C104.685 150.317 113.054 146.205 114.196 140.075C114.196 140.075 115.93 133.356 113.254 129.409C113.254 129.409 112.315 128.78 112.003 129.513C112.003 129.513 107.218 134.449 103.091 137.097L90.7731 145.092C90.7731 145.092 89.8278 145.719 90.5667 144.256L94.1206 134.845C94.1206 134.845 96.1076 131.604 90.6718 132.023C90.6718 132.023 82.4778 132.85 77.949 138.431C77.949 138.431 77.598 138.609 78.227 138.818L80.843 138.713ZM146.107 167.867H138.65L144.215 139.947H151.664L148.924 153.195H148.998L159.272 139.947H165.145L155.525 152.344L164.332 167.867H155.869L148.765 154.623H148.692L146.107 167.867Z" fill="#EC2227"/>
<path d="M172.076 156.593C172.419 154.581 173.998 151.105 176.428 151.105C177.4 151.105 177.98 151.687 177.98 152.693C177.981 155.431 175.585 156.668 172.076 156.593ZM184.929 160.877C182.425 162.23 178.173 163.933 175.351 163.933C173.31 163.933 171.604 163.003 171.569 160.762C176.865 160.922 184.7 157.211 184.7 151.15C184.7 147.905 181.65 146.475 179.02 146.475C169.367 146.475 164.115 155.282 164.115 161.341C164.115 166.208 168.673 168.331 172.917 168.331C176.63 168.331 180.215 167.326 183.882 166.014L184.929 160.877ZM195.9 155.78H196.366C197.911 152.23 201.851 146.476 206.135 146.476C208.759 146.476 210.306 148.406 210.306 150.833C210.306 151.844 210.033 152.849 209.842 153.851L207.019 167.871H199.607L202.193 154.734C202.237 154.468 202.394 154.004 202.394 153.698C202.394 153.465 202.316 153.081 201.967 153.081C200.614 153.081 196.053 159.834 195.327 161.341L194.009 167.871H186.561L190.729 146.941H198.102L195.9 155.78ZM222.445 159.178L230.753 146.94H236.385L217.079 175.325H209.393L216.503 167.867L212.521 146.94H220.128L222.445 159.178ZM248.039 153.582C246.377 155.974 242.748 162.076 240.703 162.076C240.046 162.076 239.852 161.422 239.852 160.877C239.852 158.91 241.593 150.758 246.063 150.758C246.915 150.758 247.761 151.071 248.462 151.456L248.039 153.582ZM245.219 167.867H252.628L256.803 146.94H249.813C249.274 146.94 248.075 146.589 246.337 146.589C239.041 146.589 232.398 156.05 232.398 162.809C232.398 165.589 234.178 168.331 237.191 168.331C241.472 168.331 245.41 162.58 246.951 159.024H247.42L245.219 167.867ZM274.713 156.477L279.886 146.744H279.964L281.781 156.477H274.713ZM263.281 167.867H268.573L272.316 160.877H282.627L283.981 167.867H291.089L285.718 139.949H278.304L263.281 167.867ZM297.311 146.942H304.763L300.583 167.867H293.133L297.311 146.942ZM298.746 140.009H306.201L305.151 144.22H297.691L298.746 140.009ZM313.77 155.78H314.229C315.768 152.23 319.708 146.476 324.001 146.476C324.852 146.476 325.548 146.706 325.888 146.904L323.259 153.389C322.767 153.119 322.221 152.885 321.647 152.885C317.894 152.885 314.65 158.91 313.184 161.341L311.87 167.871H304.415L308.585 146.941H315.971L313.77 155.78ZM342.363 167.871L341.829 155.241H341.748L335.533 167.871H328.432L327.614 146.941H334.143L334.607 160.218H334.681L341.246 146.941H347.46L348.04 160.257H348.126L354.723 146.941H359.936L349.476 167.871H342.363ZM372.459 153.582C370.795 155.974 367.159 162.076 365.12 162.076C364.461 162.076 364.27 161.422 364.27 160.877C364.27 158.91 366.012 150.758 370.489 150.758C371.337 150.758 372.186 151.071 372.881 151.456L372.459 153.582ZM369.638 167.867H377.052L381.217 146.94H374.226C373.692 146.94 372.496 146.589 370.757 146.589C363.459 146.589 356.82 156.05 356.82 162.809C356.82 165.589 358.587 168.331 361.606 168.331C365.892 168.331 369.83 162.58 371.375 159.024H371.838L369.638 167.867ZM393.92 159.178L402.227 146.94H407.863L388.55 175.325H380.865L387.978 167.867L383.993 146.94H391.603L393.92 159.178ZM423.092 151.609C421.578 151.071 420.002 150.648 418.422 150.648C417.184 150.648 415.485 151.031 415.485 152.577C415.485 155.047 421.934 156.823 421.934 161.38C421.934 164.16 420.08 168.335 412.162 168.335C409.538 168.335 407.098 167.83 404.515 167.173L405.483 162.267C407.329 163.078 410.155 164.16 412.161 164.16C413.163 164.16 414.478 163.509 414.478 162.151C414.478 159.293 408.494 157.52 408.494 152.961C408.494 150.491 410.191 146.473 418.144 146.473C420.079 146.473 422.17 146.862 423.978 147.092L423.092 151.609Z" fill="#EC2227"/>
<path d="M219.371 181.563L219.481 181.677C219.186 182.044 218.693 182.229 218.013 182.229C217.914 182.229 217.427 182.189 216.543 182.116C215.655 182.04 215.176 182.006 215.106 182.006H209.917C206.919 184.966 205.428 187.419 205.428 189.38C205.428 190.73 206.102 191.737 207.449 192.4C208.41 192.885 209.462 193.121 210.609 193.121C211.796 193.104 212.941 192.889 214.047 192.483C214.898 192.189 216.111 191.618 217.678 190.766C217.808 190.858 217.956 190.904 218.123 190.904L218.065 191.605C214.741 194.348 211.673 195.723 208.864 195.723C207.382 195.723 206.038 195.396 204.81 194.747C203.171 193.876 202.352 192.581 202.352 190.881C202.328 189.488 202.997 187.912 204.346 186.145C205.025 185.259 206.234 183.942 207.978 182.196L198.855 182.641C198.21 182.678 197.885 182.467 197.885 182.003C197.885 181.595 198.094 181.126 198.525 180.587C198.949 180.053 199.298 179.785 199.58 179.785H210.134C210.527 179.402 211.136 178.844 211.969 178.113C212.34 178.113 212.644 178.159 212.885 178.249C212.905 178.636 212.765 178.991 212.47 179.301L211.995 179.795C213.179 179.872 214.358 179.952 215.545 180.045C217.188 180.155 218.276 180.336 218.815 180.597C219.003 180.692 219.185 181.015 219.371 181.563Z" fill="#010101"/>
<path d="M231.539 192.791H231.898C231.288 193.364 230.366 194.016 229.124 194.74C227.702 195.589 226.691 196.02 226.079 196.02C225.558 196.02 225.133 195.783 224.803 195.322C224.563 194.949 224.443 194.593 224.443 194.239V191.627C224.443 191.497 224.357 191.433 224.186 191.433C223.992 191.433 223.063 192.099 221.421 193.446C219.776 194.787 218.619 195.444 217.953 195.428C217.05 195.428 216.598 194.719 216.598 193.292C216.598 192.533 216.837 191.837 217.318 191.208C219.589 188.303 220.808 186.756 220.977 186.572C222.378 184.81 223.661 183.285 224.825 181.99C225.251 181.505 225.676 181.266 226.105 181.266C226.599 181.266 226.852 181.486 226.852 181.932C226.845 181.953 226.84 181.99 226.84 182.042C226.84 182.097 226.845 182.134 226.852 182.152C226.852 182.656 226.677 183.266 226.324 183.988C225.589 185.544 224.582 186.789 223.33 187.735C220.668 189.717 219.34 191.013 219.34 191.62C219.34 191.901 219.418 192.19 219.56 192.482C219.707 192.784 219.904 192.939 220.139 192.954C220.422 192.954 221.167 192.485 222.389 191.543C222.89 191.152 223.641 190.614 224.636 189.933C225.17 189.599 225.676 189.439 226.156 189.439C226.27 189.439 226.379 189.444 226.489 189.465C226.802 189.686 227.011 189.954 227.106 190.264C227.121 190.322 227.168 190.65 227.242 191.237C227.277 191.442 227.291 192.265 227.291 193.707C227.335 193.78 227.416 193.881 227.544 194.011C228.357 194.063 229.447 193.532 230.816 192.401H231.426C231.467 192.472 231.499 192.602 231.539 192.791Z" fill="#010101"/>
<path d="M235.021 190.274C235.021 190.996 233.978 191.455 231.893 191.662C232.096 191.216 232.492 190.81 233.081 190.44C233.677 190.069 234.156 189.887 234.526 189.887C234.855 189.886 235.021 190.017 235.021 190.274ZM237.326 189.839C237.326 188.977 236.816 188.55 235.803 188.571C234.897 188.571 233.686 188.977 232.169 189.787C230.304 190.77 229.373 191.841 229.397 193.003C229.397 193.908 229.864 194.595 230.812 195.056C231.515 195.39 232.293 195.553 233.166 195.553C234.132 195.553 235.21 195.275 236.412 194.719C237.168 194.363 238.284 193.728 239.766 192.796L239.459 192.627V192.655H239.873V191.935C237.569 192.987 235.804 193.515 234.588 193.515C233.068 193.515 232.146 193.211 231.814 192.603C235.504 192.125 237.341 191.203 237.326 189.839ZM284.885 191.763L286.194 190.492C285.337 191.821 284.125 193.017 282.557 194.076C281.056 195.08 279.817 195.578 278.842 195.578C278.49 195.578 278.01 195.421 277.402 195.105C276.677 194.734 276.318 194.335 276.318 193.906C276.318 193.706 276.584 193.387 277.124 192.964C277.493 192.683 277.865 192.393 278.258 192.102C278.126 191.951 277.835 191.766 277.389 191.546C276.931 191.322 276.677 191.207 276.619 191.207C276.549 191.207 276.359 191.323 276.069 191.542L275.657 191.818C275.507 191.929 275.338 192.033 275.155 192.125C274.997 191.99 274.808 191.894 274.605 191.846C274.825 191.496 275.19 191.097 275.711 190.644L275.683 190.589C275.612 190.445 275.579 190.282 275.596 190.12C275.688 189.859 276.093 189.408 276.807 188.764C277.512 188.12 278.045 187.803 278.393 187.803C278.583 187.803 278.81 187.932 279.066 188.193C279.025 188.564 278.98 188.807 278.921 188.917C278.868 189.027 278.724 189.221 278.487 189.503C278.884 189.706 279.297 189.919 279.702 190.143C280.252 190.46 280.53 190.763 280.53 191.061C280.53 191.449 280.282 191.794 279.789 192.092C279.285 192.387 279.024 192.626 279.007 192.814C279.007 193.294 279.508 193.538 280.506 193.538C281.392 193.538 282.694 192.946 284.415 191.762H284.885V191.763Z" fill="#010101"/>
<path d="M290.932 186.275C290.544 186.883 289.844 187.193 288.825 187.193C288.494 187.193 288.094 187.073 287.63 186.848C287.174 186.616 286.947 186.357 286.964 186.064C286.964 185.784 287.208 185.484 287.688 185.154C288.076 184.876 288.35 184.714 288.516 184.656C288.668 184.656 289.038 184.837 289.629 185.178C289.942 185.366 290.671 185.731 291.817 186.276H290.932V186.275ZM285.412 195.579C283.802 195.579 283.004 194.869 283.004 193.446C283.004 192.91 283.083 192.458 283.252 192.103C283.344 191.939 283.936 191.372 285.024 190.399C286.195 189.37 286.919 188.868 287.213 188.884C287.347 188.884 287.473 188.921 287.608 188.985L287.717 189.034H287.965V189.698C286.489 190.968 285.742 191.899 285.742 192.489C285.742 193.188 286.206 193.538 287.132 193.538C287.74 193.538 288.452 193.338 289.264 192.928C289.93 192.56 290.591 192.189 291.239 191.821L291.565 192.125V192.711C288.899 194.622 286.856 195.579 285.412 195.579Z" fill="#010101"/>
<path d="M305.151 192.465L305.371 192.716C304.047 193.642 303.148 194.236 302.685 194.496C301.485 195.203 300.489 195.557 299.69 195.557C298.978 195.557 298.391 195.356 297.94 194.971C297.426 194.538 297.17 193.914 297.17 193.076C297.17 192.819 297.198 192.544 297.256 192.27C295.995 193.329 295.13 194.016 294.645 194.332C293.463 195.145 292.461 195.557 291.655 195.557C290.948 195.557 290.359 195.348 289.877 194.951C289.396 194.554 289.16 194.024 289.16 193.371C289.16 191.974 290.236 190.808 292.404 189.872C294.026 189.163 295.358 188.829 296.394 188.868C297.572 188.889 298.057 188.907 297.837 188.922C297.837 189.021 297.878 189.29 297.977 189.733C297.716 190 297.473 190.135 297.258 190.135C297.159 190.135 297.022 190.118 296.835 190.08C296.655 190.043 296.516 190.022 296.422 190.022C295.734 190.022 294.906 190.274 293.926 190.772C292.797 191.345 292.235 191.962 292.235 192.625C292.235 193.149 292.561 193.371 293.202 193.291C293.851 193.291 294.655 193.005 295.618 192.429C296.504 191.879 297.211 191.287 297.75 190.653C298.102 190.248 298.456 189.662 298.805 188.906C299.302 187.835 299.599 187.203 299.691 187.019C300.079 186.37 300.808 185.345 301.879 183.937C303.264 182.142 304.184 181.243 304.626 181.243C304.846 181.226 305.024 181.403 305.188 181.771C305.31 182.049 305.371 182.252 305.371 182.381C305.371 183.566 304.845 184.742 303.798 185.908C302.836 186.835 301.867 187.759 300.883 188.686C299.848 189.72 299.331 190.684 299.331 191.568C299.331 192.219 299.541 192.721 299.969 193.074C300.316 193.369 300.775 193.516 301.326 193.516C301.934 193.516 302.865 193.126 304.099 192.352C304.446 192.126 304.8 191.945 305.154 191.797L305.46 192.101V192.576L305.151 192.465Z" fill="#010101"/>
<path d="M308.731 190.274C308.731 190.996 307.688 191.455 305.603 191.662C305.801 191.215 306.202 190.81 306.791 190.439C307.383 190.069 307.862 189.887 308.234 189.887C308.564 189.886 308.731 190.017 308.731 190.274ZM311.031 189.839C311.031 188.976 310.527 188.55 309.508 188.571C308.606 188.571 307.394 188.976 305.877 189.787C304.011 190.769 303.091 191.841 303.104 193.002C303.104 193.908 303.577 194.595 304.516 195.056C305.223 195.39 306.005 195.553 306.879 195.553C307.841 195.553 308.918 195.275 310.117 194.719C310.875 194.363 311.996 193.728 313.477 192.796L313.171 192.627V192.655H313.589V191.935C311.282 192.986 309.51 193.515 308.294 193.515C306.775 193.515 305.848 193.211 305.526 192.603C309.214 192.125 311.055 191.203 311.031 189.839ZM331.379 190.488L331.577 190.378C331.275 190.936 330.146 191.387 328.193 191.736C327.783 192.96 326.874 193.934 325.449 194.658C324.284 195.269 323.079 195.573 321.841 195.573C321.18 195.594 320.554 195.471 319.959 195.214C319.141 194.824 318.743 194.247 318.743 193.488C318.743 192.501 319.315 191.58 320.485 190.726C321.424 190.039 322.45 189.567 323.538 189.31L323.561 189.275C323.713 189.148 323.887 189.085 324.09 189.085H325.31C325.202 189.311 325.05 189.577 324.872 189.89C324.698 189.93 324.426 190.003 324.036 190.116C322.386 190.579 321.563 191.245 321.54 192.118C321.54 193.068 322.363 193.539 324.007 193.539C325.351 193.539 326.382 192.947 327.084 191.769C326.787 191.728 325.913 191.552 324.453 191.238C324.969 190.17 325.413 189.384 325.785 188.884C326.446 189.181 327.112 189.476 327.778 189.767C328.565 190.101 329.265 190.263 329.885 190.263C330.285 190.263 330.778 190.21 331.351 190.1L331.404 190.488H331.379Z" fill="#010101"/>
<path d="M335.302 190.322C335.43 190.361 335.864 190.382 336.601 190.382C336.572 190.382 336.919 190.367 337.66 190.339C338.396 190.311 339.149 190.296 339.906 190.296C339.322 190.925 338.62 191.33 337.769 191.514C337.496 191.57 336.673 191.644 335.329 191.735C334.737 191.775 334.281 191.83 333.967 191.901C333.859 191.938 333.689 192.094 333.482 192.364C333.267 192.628 333.134 192.891 333.081 193.151C333.115 193.852 333.134 194.776 333.134 195.923C333.134 196.347 332.808 197.391 332.167 199.057C331.402 201.029 330.748 202.019 330.174 202.019C329.543 202.019 329.242 201.555 329.254 200.635V200.441C329.272 200.368 329.283 200.319 329.283 200.302C329.283 198.49 329.606 196.856 330.248 195.395C330.289 195.307 330.585 194.733 331.141 193.675C331.658 192.699 331.923 192.19 331.923 192.155C331.923 192.078 331.853 191.978 331.721 191.848L331.639 191.735C330.915 191.698 330.211 191.582 329.508 191.376C329.508 190.989 329.589 190.732 329.768 190.602C329.949 190.47 330.318 190.275 330.864 190.018C331.419 189.762 331.766 189.63 331.923 189.63C332.068 189.63 332.324 189.682 332.681 189.783C333.036 189.884 333.284 189.934 333.417 189.934C333.435 189.934 334.091 188.882 335.382 186.779C336.119 185.519 337.066 183.953 338.213 182.067C338.436 181.677 338.829 181.412 339.401 181.265C339.922 181.265 340.178 181.609 340.178 182.287C340.178 183.541 339.739 184.83 338.851 186.139C338.244 187.08 337.057 188.476 335.302 190.322ZM373.287 195.26C372.472 195.26 371.869 194.758 371.487 193.756C371.355 193.247 371.168 192.595 370.932 191.822C370.78 191.21 370.532 190.278 370.18 189.02C369.936 188.079 369.716 187.124 369.489 186.165C369.195 185.014 368.818 184.123 368.354 183.473C367.959 182.917 367.321 182.645 366.443 182.645C365.132 182.645 363.46 183.308 361.425 184.637C359.906 185.711 358.379 186.78 356.844 187.855C358.487 188.079 360.621 188.178 363.227 188.157C364.13 188.157 365.479 188.113 367.269 188.021C367.378 188.004 367.646 187.95 368.073 187.855C368.41 187.78 368.66 187.745 368.82 187.745H369.4L369.347 188.217C369.329 188.455 369.192 188.657 368.936 188.825C367.418 189.825 364.645 190.34 360.62 190.379C359.471 190.396 358.035 190.35 356.326 190.239C356.222 190.239 355.609 190.156 354.46 189.991C354.27 189.953 354.154 189.932 354.103 189.932C354.083 189.973 354.025 190.049 353.934 190.156C349.548 194.193 346.623 196.215 345.142 196.215C344.845 196.215 344.567 196.133 344.285 195.969C344.012 195.8 343.873 195.582 343.873 195.323C343.873 194.936 345.027 193.939 347.336 192.325C348.478 191.552 349.95 190.544 351.745 189.308C351.507 189.192 351.15 189.033 350.69 188.833L350.637 188.189C350.946 187.932 351.381 187.63 351.918 187.286C352.468 186.948 352.833 186.776 353.019 186.776C353.128 186.776 353.412 186.884 353.865 187.098C354.316 187.307 354.571 187.414 354.629 187.414C354.683 187.373 354.815 187.282 355.011 187.136C362.519 182.238 367.054 179.791 368.602 179.791C369.591 179.791 370.488 180.521 371.266 181.981C371.775 182.999 372.314 184.53 372.871 186.582C373.124 187.672 373.513 189.181 374.039 191.1C374.423 192.374 374.77 193.009 375.089 193.009C375.362 193.009 375.743 192.818 376.223 192.432C376.558 192.113 376.897 191.807 377.237 191.503C377.579 191.195 377.92 190.953 378.245 190.767C378.262 190.767 378.453 190.896 378.8 191.152V191.35C378.1 192.294 377.248 193.142 376.247 193.899C375.09 194.801 374.105 195.26 373.287 195.26Z" fill="#010101"/>
<path d="M383.684 190.322C383.812 190.362 384.246 190.383 384.978 190.383C384.949 190.383 385.297 190.368 386.042 190.339C386.778 190.311 387.526 190.296 388.283 190.296C387.704 190.925 386.997 191.33 386.152 191.515C385.867 191.57 385.056 191.644 383.706 191.736C383.114 191.775 382.658 191.831 382.344 191.901C382.233 191.938 382.071 192.094 381.864 192.365C381.649 192.628 381.517 192.891 381.458 193.152C381.499 193.853 381.517 194.777 381.517 195.924C381.517 196.347 381.19 197.392 380.544 199.057C379.784 201.029 379.125 202.019 378.551 202.019C377.926 202.019 377.619 201.556 377.636 200.635C377.629 200.571 377.629 200.506 377.636 200.441C377.654 200.368 377.659 200.319 377.659 200.303C377.659 198.49 377.985 196.857 378.634 195.396C378.672 195.307 378.969 194.734 379.52 193.676C380.034 192.7 380.294 192.19 380.294 192.156C380.294 192.078 380.236 191.978 380.099 191.848L380.024 191.736C379.3 191.7 378.582 191.58 377.886 191.376C377.886 190.989 377.973 190.732 378.152 190.603C378.321 190.47 378.686 190.275 379.248 190.018C379.798 189.762 380.15 189.63 380.296 189.63C380.448 189.63 380.701 189.682 381.056 189.783C381.42 189.885 381.664 189.934 381.797 189.934C381.822 189.934 382.475 188.883 383.762 186.779C384.503 185.519 385.446 183.953 386.593 182.068C386.813 181.677 387.213 181.413 387.788 181.266C388.302 181.266 388.563 181.609 388.563 182.288C388.563 183.542 388.116 184.831 387.225 186.139C386.616 187.081 385.441 188.476 383.684 190.322Z" fill="#010101"/>
<path d="M396.441 191.763L397.74 190.492C396.892 191.821 395.676 193.017 394.108 194.076C392.607 195.08 391.373 195.578 390.396 195.578C390.049 195.578 389.566 195.421 388.953 195.105C388.233 194.734 387.869 194.335 387.869 193.906C387.869 193.706 388.142 193.387 388.68 192.964C389.044 192.683 389.421 192.393 389.816 192.102C389.682 191.951 389.391 191.766 388.94 191.546C388.489 191.322 388.233 191.207 388.175 191.207C388.107 191.207 387.915 191.323 387.621 191.542L387.21 191.818C387.058 191.929 386.892 192.033 386.711 192.125C386.554 191.995 386.376 191.899 386.156 191.846C386.376 191.496 386.748 191.097 387.262 190.644L387.234 190.589C387.163 190.445 387.142 190.282 387.155 190.12C387.246 189.859 387.646 189.408 388.359 188.764C389.072 188.12 389.598 187.803 389.965 187.803C390.144 187.803 390.358 187.932 390.623 188.193C390.583 188.564 390.537 188.807 390.479 188.917C390.428 189.027 390.284 189.221 390.04 189.503C390.445 189.706 390.856 189.919 391.256 190.143C391.811 190.46 392.089 190.763 392.089 191.061C392.089 191.449 391.84 191.794 391.342 192.092C390.843 192.387 390.583 192.626 390.573 192.814C390.573 193.294 391.064 193.538 392.059 193.538C392.948 193.538 394.25 192.946 395.969 191.762H396.441V191.763Z" fill="#010101"/>
<path d="M402.481 186.275C402.094 186.883 401.392 187.193 400.367 187.193C400.043 187.193 399.643 187.073 399.192 186.848C398.723 186.616 398.503 186.357 398.521 186.064C398.521 185.784 398.757 185.484 399.237 185.154C399.625 184.876 399.903 184.714 400.078 184.656C400.217 184.656 400.589 184.837 401.179 185.178C401.497 185.366 402.221 185.731 403.369 186.276H402.481V186.275ZM396.969 195.579C395.356 195.579 394.553 194.869 394.553 193.446C394.553 192.91 394.632 192.458 394.801 192.103C394.893 191.939 395.484 191.372 396.579 190.399C397.738 189.37 398.474 188.868 398.764 188.884C398.896 188.884 399.025 188.921 399.157 188.985L399.266 189.034H399.517V189.698C398.04 190.968 397.296 191.899 397.296 192.489C397.296 193.188 397.759 193.538 398.681 193.538C399.294 193.538 400.001 193.338 400.819 192.928C401.485 192.56 402.139 192.189 402.789 191.821L403.117 192.125V192.711C400.462 194.622 398.409 195.579 396.969 195.579Z" fill="#010101"/>
<path d="M403.941 195.578C403.275 195.578 402.645 195.408 402.054 195.08C401.226 194.647 400.809 194.019 400.809 193.185C400.809 191.961 401.868 190.903 403.994 190.018C405.638 189.331 406.999 188.986 408.066 188.986C408.476 188.986 408.848 189.096 409.183 189.322V190.152C408.848 190.358 408.459 190.459 408.02 190.459C407.904 190.459 407.656 190.444 407.268 190.404C406.954 190.386 406.718 190.38 406.548 190.38C405.639 190.38 404.915 190.574 404.355 190.96C403.879 191.272 403.636 191.663 403.636 192.124C403.636 192.532 403.821 192.869 404.191 193.133C404.558 193.404 405.079 193.536 405.745 193.536C406.277 193.536 407.001 193.359 407.905 193.006C408.605 192.696 409.308 192.38 410.012 192.067C410.326 191.92 410.534 191.841 410.62 191.841H411.397V192.567C410.546 193.144 409.423 193.746 408.021 194.373C406.241 195.176 404.885 195.578 403.941 195.578Z" fill="#010101"/>
<path d="M417.437 190.933C417.437 191.469 416.783 192.037 415.467 192.621C414.361 193.121 413.626 193.371 413.254 193.371C413.063 193.371 412.884 193.307 412.711 193.18C412.537 193.05 412.451 192.91 412.451 192.763C412.451 192.118 412.977 191.543 414.056 191.045C414.963 190.602 415.765 190.382 416.469 190.382C417.113 190.382 417.437 190.556 417.437 190.903V190.933ZM422.025 194.235C423.605 193.422 424.47 192.767 424.615 192.265V192.045L424.151 191.931C424.019 191.987 423.456 192.238 422.483 192.678C421.822 192.976 421.243 193.15 420.762 193.203C420.633 192.766 420.564 192.415 420.564 192.156C420.478 191.527 420.118 191.062 419.516 190.749C419.499 190.728 419.471 190.702 419.435 190.665C419.447 190.555 419.48 190.376 419.516 190.126C419.557 189.874 419.574 189.689 419.574 189.561C419.574 188.916 419.273 188.591 418.681 188.591C418.299 188.591 418.032 188.71 417.894 188.947C417.754 189.185 417.633 189.413 417.517 189.626C417.054 189.521 416.612 189.463 416.19 189.463C415.078 189.432 413.716 189.779 412.113 190.519C410.079 191.425 409.065 192.544 409.065 193.879C409.065 194.377 409.255 194.788 409.639 195.104C410.032 195.417 410.501 195.577 411.058 195.577C411.944 195.577 413.358 194.954 415.304 193.708C416.312 193.076 417.256 192.495 418.13 191.959C418.188 191.959 418.224 191.965 418.241 191.985L418.299 192.011V192.153C417.998 192.486 417.704 192.815 417.406 193.155C417.036 193.575 416.863 193.957 416.879 194.29C416.879 195.045 417.422 195.426 418.513 195.426C419.273 195.448 420.443 195.048 422.025 194.235ZM250.929 187.784C250.397 187.999 250.008 188.103 249.766 188.103C249.336 188.103 248.793 187.88 248.115 187.443C247.373 186.965 246.887 186.461 246.661 185.931C247.048 185.963 247.501 185.983 248.01 185.983C248.914 185.983 249.992 185.511 251.248 184.573C252.43 183.686 253.381 182.704 254.086 181.627C254.44 181.627 254.678 181.749 254.799 181.995C255.124 182.933 255.274 183.776 255.274 184.517C255.274 185.009 254.922 185.5 254.191 185.978C253.155 186.67 252.575 187.058 252.493 187.144C252.407 187.233 252.199 187.639 251.856 188.363C251.578 188.845 251.196 189.571 250.715 190.544C253.444 188.086 256.339 186.043 259.409 184.41C262.913 182.55 266.002 181.627 268.671 181.627C270.206 181.627 271.568 181.983 272.755 182.683C274.262 183.548 275.002 184.806 275.002 186.451C275.002 188.029 274.237 189.591 272.697 191.149C271.447 192.441 269.818 193.57 267.82 194.544C266.032 195.433 264.506 195.945 263.227 196.085C260.898 196.368 259.457 196.51 258.882 196.51C257.219 196.51 255.69 196.298 254.294 195.87C252.574 195.342 251.391 194.552 250.738 193.509C250.738 193.443 250.761 193.348 250.796 193.236C250.83 193.12 250.841 193 250.841 192.874H251.514C252.781 194.551 255.175 195.394 258.697 195.394C260.996 195.394 263.128 195.032 265.085 194.308C267.63 193.353 269.598 191.866 270.972 189.852C271.511 189.057 271.775 188.259 271.8 187.464C271.8 186.173 271.163 185.212 269.884 184.577C268.957 184.08 267.89 183.833 266.715 183.833C264.109 183.833 261.183 184.704 257.944 186.447C254.7 188.191 251.939 190.383 249.661 193.015C249.551 193.125 249.268 193.673 248.811 194.664C247.837 196.735 247.107 198.188 246.633 199.022C245.451 201.023 244.438 202.022 243.609 202.022C243.255 202.022 242.893 201.906 242.523 201.675C242.102 201.427 241.889 201.119 241.889 200.748C241.889 199.95 244.055 197.259 248.381 192.67C248.468 192.564 248.579 192.45 248.7 192.323C249.215 191.425 249.957 189.914 250.929 187.784Z" fill="#010101"/>
</svg>
