<svg width="480" height="320" viewBox="0 0 480 320" fill="none" xmlns="http://www.w3.org/2000/svg">
<path d="M233.207 53.334H244.716C244.811 57.2436 244.8 61.1428 244.779 65.0525C248.626 65.042 252.483 65.063 256.33 65.0315C256.361 68.8678 256.361 72.7041 256.246 76.5404C252.431 76.5404 248.605 76.5614 244.79 76.5404C244.79 80.3138 244.779 84.0977 244.811 87.8816C241.016 88.1226 237.222 88.0702 233.427 88.0388C233.406 84.2025 233.407 80.3557 233.386 76.5089C229.528 76.5614 225.682 76.5404 221.835 76.5509C221.772 72.7251 221.782 68.8888 221.772 65.063C225.65 65.0525 229.528 65.042 233.396 65.063C233.312 61.1533 233.658 57.2227 233.207 53.334V53.334ZM166.565 85.7328C178.158 82.9447 190.882 92.5878 190.631 104.652C191.522 115.197 182.298 125.081 171.806 125.28C162.404 126.087 153.201 119.159 151.22 109.977C148.316 99.4743 155.905 87.7138 166.565 85.7328ZM212.653 85.7118C224.235 82.9657 237.002 92.6297 236.677 104.694C237.61 115.543 227.736 125.595 216.95 125.312C207.433 125.72 198.544 118.247 197.046 108.887C194.918 98.6043 202.349 87.63 212.653 85.7118ZM258.762 85.7328C269.998 83.06 282.272 92.0428 282.702 103.667C283.603 111.56 279.086 119.494 272.073 123.089C264.705 127.062 254.946 125.657 248.94 119.851C242.201 113.541 240.796 102.43 245.848 94.6842C248.689 90.1037 253.447 86.7495 258.762 85.7328ZM304.944 85.7118C315.017 83.4478 325.939 90.3343 328.255 100.397C330.278 108.143 327.196 116.853 320.666 121.517C314.598 126.045 305.887 126.611 299.284 122.911C292.072 119.169 287.785 110.669 289.033 102.65C289.987 94.3802 296.737 87.1688 304.944 85.7118ZM170.265 154.356C169.971 146.348 170.108 138.319 170.192 130.311C216.279 130.448 262.367 130.343 308.455 130.364C308.466 138.34 308.466 146.306 308.455 154.272C262.388 154.325 216.321 154.168 170.265 154.356ZM56.5703 174.659C68.205 174.659 79.8396 174.649 91.4847 174.67C91.5057 185.801 91.4638 196.943 91.4952 208.085C103.036 197.038 114.314 185.728 125.854 174.68C137.583 174.649 149.312 174.649 161.041 174.68C147.52 188.422 133.632 201.807 120.215 215.643C137.122 232.036 153.452 249.037 170.506 265.252C170.653 235.065 170.527 204.867 170.569 174.67C182.466 174.649 194.362 174.649 206.259 174.67C206.259 197.572 206.238 220.475 206.259 243.377C225.262 243.325 244.255 243.44 263.248 243.314C263.51 251.081 263.29 258.859 263.374 266.625C217.191 266.625 170.999 266.667 124.816 266.604C113.895 255.546 102.826 244.635 91.8516 233.629C91.6944 244.645 91.8726 255.651 91.7573 266.667C80.0283 266.583 68.2993 266.678 56.5703 266.615L56.5703 174.659ZM273.153 174.659C292.313 174.596 311.474 174.785 330.634 174.565C336.682 191.011 341.976 207.739 347.688 224.311C348.16 223.567 348.831 222.938 349.072 222.068C354.533 206.251 360.119 190.476 365.633 174.67C384.898 174.649 404.163 174.638 423.429 174.68V266.563C411.637 266.709 399.834 266.615 388.043 266.615C388.022 245.463 388.147 224.3 387.98 203.138C386.334 204.06 386.166 206.146 385.464 207.708C378.62 227.361 371.597 246.951 364.752 266.604C353.663 266.604 342.563 266.751 331.483 266.531C324.534 246.438 317.344 226.439 310.331 206.377C310.08 205.255 309.451 204.438 308.466 203.914C308.434 224.814 308.476 245.725 308.455 266.636C296.684 266.636 284.913 266.636 273.143 266.625C273.163 235.977 273.132 205.318 273.153 174.659Z" fill="#00A1E4"/>
</svg>
