<svg width="480" height="320" viewBox="0 0 480 320" fill="none" xmlns="http://www.w3.org/2000/svg">
<path d="M228.553 161.262C228.553 161.262 230.965 155.598 231.994 153.966C231.994 153.966 234.939 158.01 235.981 161.333C235.981 161.333 232.658 161.853 228.553 161.262ZM159.609 156.959V150.577C159.609 150.577 159.676 145.814 163.443 145.814C167.228 145.814 166.752 150.443 166.79 151.027C166.822 151.624 166.58 156.959 159.609 156.959ZM171.407 140.993C171.407 140.993 153.038 142.367 143.129 141.444C143.129 141.444 141.95 141.127 141.624 142.491C141.624 142.491 140.982 143.53 142.017 144.248C143.052 144.97 146.058 146.727 146.058 153.244V165.818C146.058 165.818 146.646 172.731 141.883 175.331C141.883 175.331 140.912 175.66 141.429 177.034C141.429 177.034 141.496 178.27 142.87 178.078C144.231 177.877 151.926 177.292 162.481 178.011C162.481 178.011 163.388 178.078 163.641 177.481C163.909 176.909 163.979 176.839 163.979 176.839C163.979 176.839 164.896 175.928 163.513 175.015C162.152 174.104 159.868 172.731 159.676 166.933C159.481 161.128 159.676 161.004 159.676 161.004H160.52C160.52 161.004 163.443 160.735 165.404 165.185C165.404 165.185 169.19 174.296 169.771 175.401C170.362 176.516 171.467 178.858 175.575 178.465C179.677 178.078 198.825 176.705 219.165 178.532C219.165 178.532 221.382 178.858 222.228 176.705C222.228 176.705 225.745 167.259 226.589 165.751C226.589 165.751 234.022 165.559 238.063 165.623C238.063 165.623 239.555 168.169 239.555 171.233C239.555 174.296 236.891 175.015 236.891 175.015C236.891 175.015 235.779 175.465 236.303 176.839C236.303 176.839 236.498 178.145 237.802 178.011C239.099 177.877 250.765 176.775 268.357 177.877C268.357 177.877 269.533 178.34 269.919 176.775C269.919 176.775 270.638 175.535 269.399 174.948C269.399 174.948 264.783 173.91 264.783 166.537C264.783 159.17 264.846 153.966 264.846 153.966C264.846 153.966 268.357 158.978 272.529 166.479C276.701 173.97 278.918 177.168 278.918 177.168C278.918 177.168 281.004 181.209 285.103 179.056C289.208 176.909 293.639 174.43 296.181 172.664C296.181 172.664 297.165 172.213 296.635 170.964L296.252 170.188C296.252 170.188 296.181 169.734 294.817 169.6C294.817 169.6 291.754 170.322 291.683 165.952C291.626 161.591 291.421 155.397 291.683 149.078C291.683 149.078 291.818 145.162 295.402 144.057C295.402 144.057 296.699 143.932 296.114 142.367L295.724 141.578C295.724 141.578 295.724 140.926 294.817 141.06C293.907 141.194 288.821 141.645 283.419 141.194C283.419 141.194 282.244 141.194 282.106 142.491C282.106 142.491 281.787 143.67 282.701 144.057C283.611 144.446 286.799 145.622 287.003 150.634C287.192 155.666 287.259 162.63 287.259 162.63C287.259 162.63 279.829 151.682 275.072 143.277C275.072 143.277 274.296 140.993 271.481 141.194C268.696 141.386 261.971 141.712 257.087 141.249C257.087 141.249 255.716 141.06 255.522 142.626C255.522 142.626 255.132 143.99 256.304 144.574C256.304 144.574 260.217 147.053 260.217 147.9C260.217 148.753 260.144 166.086 260.144 166.086C260.144 166.086 260.479 173.191 258.585 172.277C258.585 172.277 257.48 172.993 254.809 168.102C252.138 163.214 248.682 156.244 243.082 142.683C243.082 142.683 241.903 138.907 239.498 138.907C239.498 138.907 238.063 138.978 236.568 139.811C235.067 140.668 230.307 143.338 225.359 144.776C225.359 144.776 224.055 145.162 224.442 146.466C224.442 146.466 224.253 147.437 225.681 147.977C227.113 148.491 228.352 149.079 228.742 149.788C228.742 149.788 227.247 154.612 224.506 159.576C221.768 164.521 218.257 172.731 208.153 172.731H204.176C204.176 172.731 203.138 172.855 203.138 171.428V160.94H205.744C205.744 160.94 209.974 160.023 212.002 165.499C212.002 165.499 212.386 167.192 213.82 166.537C213.82 166.537 215.446 166.345 215.318 164.713C215.191 163.09 215.066 158.653 215.382 154.746C215.382 154.746 215.516 153.573 214.21 153.315C214.21 153.315 213.172 152.794 212.386 153.64C211.606 154.484 209.974 156.5 206.259 156.5H203.208V146.727C203.208 146.727 203.138 146.082 203.588 146.015C204.042 145.948 209.718 144.574 213.038 147.242C216.36 149.922 216.564 151.027 217.273 152.008C217.273 152.008 217.922 153.64 219.615 152.538C219.615 152.538 220.925 152.334 220.27 150.315C219.615 148.283 219.426 147.58 218.321 142.492C218.321 142.492 218.117 140.338 215.906 140.543C213.692 140.735 199.818 142.367 186.782 141.319C186.782 141.319 185.418 140.993 185.152 142.434C185.152 142.434 184.561 143.402 185.67 144.312C185.67 144.312 189.51 146.082 189.51 152.851V164.195C189.51 164.195 190.168 173.191 186.976 173.191C186.976 173.191 185.603 173.775 183.264 169.147C180.92 164.521 180.789 164.387 180.789 164.387C180.789 164.387 178.898 158.317 170.748 158.065C170.748 158.065 182.022 156.177 180.98 147.705C180.98 147.705 180.789 141.249 172.323 140.993M325.041 153.506C328.564 158.518 329.024 160.87 329.024 160.87C326.229 161.333 321.603 160.806 321.603 160.806C322.958 157.154 325.041 153.506 325.041 153.506M354.568 164.067C354.568 164.067 354.823 172.597 351.632 172.009C351.632 172.009 350.517 172.731 347.85 167.843C345.185 162.962 341.726 155.985 336.122 142.434C336.122 142.434 334.95 138.648 332.538 138.648C332.538 138.648 331.11 138.719 329.612 139.553C328.107 140.409 323.354 143.086 318.406 144.517C318.406 144.517 317.093 144.903 317.486 146.207C317.486 146.207 317.288 147.187 318.728 147.705C320.159 148.235 321.402 148.81 321.785 149.532C321.785 149.532 320.294 154.349 317.553 159.304C314.818 164.262 312.4 171.491 305.956 174.747C305.956 174.747 304.708 175.015 305.11 176.516C305.567 178.206 306.413 177.753 306.413 177.753C313.904 176.967 316.189 177.619 317.885 177.753C319.575 177.877 319.313 176.516 319.313 176.516C319.766 175.66 319.185 175.143 319.185 175.143L318.469 174.229C318.469 174.229 315.665 173.507 319.639 165.498C319.639 165.498 327.075 165.307 331.11 165.364C331.11 165.364 332.615 167.901 332.615 170.964C332.615 174.037 329.938 174.747 329.938 174.747C329.938 174.747 328.826 175.207 329.344 176.571C329.344 176.571 329.545 177.877 330.851 177.753C332.152 177.618 353.788 176.705 371.38 177.81C371.38 177.81 372.613 177.877 372.936 176.775C372.936 176.775 373.658 175.401 372.422 174.622C372.422 174.622 368.962 173.057 368.706 167.527C368.441 161.975 368.515 151.481 368.515 151.481C368.515 151.481 368.25 145.622 371.959 143.804C371.959 143.804 372.936 143.338 372.422 142.031C372.422 142.031 372.16 140.802 370.978 140.926C369.808 141.06 357.5 141.712 351.702 140.993C351.702 140.993 350.386 140.926 350.134 142.031C350.134 142.031 349.485 143.086 350.597 143.932C351.702 144.775 354.567 146.727 354.567 152.794V164.067M395.221 156.704V150.315C395.221 150.315 395.355 145.565 398.94 145.565C402.523 145.565 402.578 149.586 402.393 150.906C402.211 152.209 401.875 156.704 395.221 156.704ZM406.431 140.473C406.431 140.473 392.094 142.166 378.804 140.869C378.804 140.869 377.111 140.409 376.91 142.166C376.91 142.166 376.786 143.338 377.507 143.804C378.223 144.248 381.152 146.015 381.347 152.136C381.548 158.26 381.673 156.499 381.548 164.847C381.548 164.847 382.053 172.855 377.507 174.814C377.507 174.814 376.328 175.072 376.98 176.775C376.98 176.775 377.373 178.078 378.469 177.618C378.469 177.618 389.161 176.909 398.419 177.686C398.419 177.686 399.466 178.079 399.786 176.705C399.786 176.705 400.632 175.794 399.335 174.814C398.022 173.846 395.681 172.143 395.413 168.035C395.151 163.924 395.221 160.678 395.221 160.678H396.138C396.138 160.678 399.201 160.279 401.284 165.105C403.373 169.926 404.804 173.45 404.804 173.45C404.804 173.45 406.165 177.293 408.386 178.532C408.386 178.532 409.296 179.385 412.685 178.983C412.685 178.983 418.225 178.666 423.697 176.13C423.697 176.13 424.933 175.862 424.537 174.43C424.537 174.43 424.805 173.309 423.246 172.993C421.681 172.664 420.512 171.166 419.4 168.945C418.285 166.738 416.589 163.473 416.589 163.473C416.589 163.473 414.315 157.819 406.881 157.742C406.881 157.742 417.11 155.985 417.11 148.283C417.11 140.607 407.999 140.473 407.999 140.473" fill="#1C4E9D"/>
<path d="M141.152 160.006C141.152 171.935 131.491 181.604 119.566 181.604C107.638 181.604 97.9648 171.935 97.9648 160.006C97.9648 148.068 107.638 138.398 119.566 138.398C131.491 138.398 141.152 148.068 141.152 160.006Z" fill="white"/>
<path d="M128.84 146.982C135.417 149.001 140.203 155.124 140.203 162.379C140.203 163.446 140.094 164.468 139.903 165.462L139.877 165.602C139.388 168.388 138.261 171.022 136.583 173.298L136.551 173.333C139.433 169.666 141.158 165.028 141.158 159.987C141.158 148.058 131.482 138.379 119.544 138.379C114.113 138.379 109.155 140.388 105.354 143.701L105.299 143.749C102.306 146.496 100.438 150.441 100.438 154.821C100.438 156.626 100.75 158.377 101.345 159.987L101.374 160.063C102.878 163.347 106.197 165.641 110.05 165.641C115.311 165.641 119.586 161.38 119.586 156.109L119.557 152.007C119.557 150.135 120.611 148.48 122.16 147.637L122.176 147.632C123.386 146.971 124.77 146.581 126.258 146.581C127.156 146.581 128.015 146.715 128.827 146.974L128.839 146.984" fill="#ED192D"/>
<path d="M103.015 173.902C106.98 178.617 112.921 181.62 119.566 181.62C125 181.62 129.974 179.614 133.769 176.301L133.82 176.263C136.813 173.506 138.685 169.56 138.685 165.184C138.685 163.376 138.366 161.629 137.775 160.015L137.746 159.948C136.238 156.645 132.929 154.358 129.066 154.358C123.805 154.358 119.537 158.622 119.537 163.884L119.566 167.998C119.566 169.873 118.512 171.522 116.959 172.365L116.944 172.376C115.733 173.037 114.34 173.423 112.868 173.423C111.964 173.423 111.101 173.277 110.293 173.03L110.283 173.018C103.702 170.992 98.9165 164.865 98.9165 157.623C98.9165 156.566 99.0217 155.531 99.2167 154.531L99.2347 154.397C99.7363 151.547 100.893 148.937 102.541 146.704L102.562 146.669C99.6864 150.337 97.9582 154.975 97.9582 160.006C97.9582 163.473 98.7792 166.76 100.229 169.667L100.051 169.801C100.051 169.801 99.2136 170.443 97.511 168.498C95.8147 166.536 85.8477 154.483 85.8477 154.483C85.8477 154.483 92.1729 147.704 98.3639 144.97C98.3639 144.97 99.9836 144.446 99.6003 143.018L99.3351 142.165C99.3351 142.165 99.2807 141.248 97.8368 141.443C96.4057 141.645 89.6237 142.165 82.8545 141.51C82.8545 141.51 81.8098 141.51 81.4202 142.367C81.4202 142.367 80.7621 143.472 81.4202 144.114C82.0751 144.775 84.423 146.401 84.423 148.615C84.423 148.615 84.931 150.251 81.3562 152.851C77.7659 155.464 75.5552 157.154 74.0603 157.943L74.1177 151.816C74.1177 151.816 73.926 146.669 77.6413 144.248C77.6413 144.248 78.5485 143.865 78.2258 143.018L77.9737 142.366C77.9737 142.366 77.7659 141.319 76.6607 141.443C76.6607 141.443 70.2173 142.165 57.3721 141.577C57.3721 141.577 56.5225 141.51 56.203 142.165L55.9442 142.683C55.9442 142.683 55.4873 143.865 56.203 144.382C56.925 144.903 59.9182 146.669 60.0523 152.065C60.0523 152.065 60.375 162.3 59.9182 166.274C59.4582 170.255 59.1387 172.535 55.9442 175.331C55.9442 175.331 55.0976 175.995 55.4873 176.966L55.9442 177.81C55.9442 177.81 56.2669 178.465 57.3721 178.34C58.4839 178.206 66.4989 177.417 76.6607 178.206C76.6607 178.206 77.3827 178.465 77.7053 177.752L78.1621 176.838C78.1621 176.838 78.6828 175.928 77.7053 175.206C76.7246 174.487 74.1179 172.411 74.0603 168.37C73.9965 164.329 73.9965 161.77 73.9965 161.77C73.9965 161.77 75.7567 162.495 85.1326 176.382C85.1326 176.382 88.458 182.375 95.4923 178.666C95.4923 178.666 100.639 175.861 102.789 174.037L103.016 173.903" fill="#1C4E9D"/>
</svg>
