<svg width="480" height="320" viewBox="0 0 480 320" fill="none" xmlns="http://www.w3.org/2000/svg">
<path d="M55.3848 130.662C72.8907 139.946 118.543 173.781 167.096 187.535C169.429 188.195 171.745 188.802 174.026 189.357C197.758 195.132 218.226 195.297 232.318 194.144C161.488 182.185 139.077 162.038 135.863 157.681C135.675 157.434 135.497 157.181 135.331 156.919C135.122 156.828 146.813 145.495 169.354 145.787C197.513 146.146 216.589 154.732 216.589 154.732C206.741 148.816 196.733 144.96 188.249 142.462C183.789 141.1 179.249 140.013 174.655 139.208C169.286 138.22 165.985 137.98 165.985 137.98C151.423 136.447 140.564 139.631 131.508 142.812C123.038 145.781 112.092 151.381 97.5843 145.152C91.3531 142.481 86.9962 141.594 79.8285 142.394C68.5257 137.706 59.9996 132.161 55.7528 130.33L55.3848 130.662Z" fill="url(#paint0_radial_730_18355)"/>
<path d="M424.502 116.225C424.614 115.712 424.823 114.431 424.048 114.275C423.139 114.095 422.059 116.606 421.765 117.164C419.36 121.737 419.785 123.39 420.21 130.558C420.633 137.725 419.645 141.829 419.36 143.149C419.076 144.47 418.323 146.545 419.22 146.639C420.114 146.733 420.633 145.883 422.283 141.876C423.936 137.866 424.314 131.924 424.359 128.295C424.403 124.954 423.876 121.628 424.184 118.311C424.247 117.61 424.354 116.913 424.502 116.225M380.286 127.568C379.674 127.28 378.68 129.382 377.218 131.531C375.753 133.677 374.193 135.54 371.265 135.3C368.338 135.064 369.422 131.531 369.706 130.243C369.933 129.205 370.165 128.173 370.321 127.124C370.405 126.551 370.517 125.927 370.454 125.346C370.418 125.002 370.199 124.819 369.837 124.864C369.068 124.958 368.29 126.159 367.941 126.772C367.477 127.586 367.162 128.475 366.854 129.357C366.432 130.574 366.157 131.828 365.787 133.059C365.456 134.154 365.316 134.68 365.316 134.68C353.932 141.937 328.797 145.23 317.745 145.563C306.692 145.9 294.042 143.464 287.57 140.696C281.099 137.926 280.296 135.444 280.012 135.634C279.73 135.828 277.886 138.977 276.28 140.839C274.676 142.701 270.568 145.993 268.112 142.701C265.656 139.407 264.05 138.88 263.15 138.737C257.816 137.887 250.919 146.234 249.595 150.338C248.604 152.772 247.281 156.83 247.8 156.83C248.319 156.83 248.366 156.543 250.776 152.726C253.813 147.913 257.531 146.281 260.175 146.854C262.821 147.428 262.49 151.294 266.127 151.435C271.89 151.722 276.186 144.752 276.8 144.085C277.415 143.415 277.227 143.415 278.123 143.942C279.021 144.466 294.513 152.154 311.699 152.676C336.875 153.44 365.263 138.761 365.266 138.737C365.266 138.737 365.36 143.084 369.094 142.701C374.809 142.367 378.824 133.393 379.909 131.101C380.995 128.809 380.633 127.729 380.286 127.568Z" fill="#20285C"/>
<path d="M341.778 121.442C344.351 122.26 346.218 124.378 346.505 125.059C346.789 125.739 346.575 126.203 346.969 126.276C347.261 126.328 347.871 125.637 348.056 125.475C349.36 124.328 350.621 123.093 351.756 121.773C351.896 121.614 352.027 121.448 352.15 121.275C352.298 121.34 352.463 121.39 352.627 121.442C355.198 122.26 357.065 124.378 357.352 125.059C357.638 125.739 357.422 126.203 357.816 126.276C358.108 126.328 358.72 125.637 358.902 125.475C360.209 124.328 361.47 123.093 362.605 121.773C363.218 121.059 363.601 120.461 363.189 119.515C362.837 118.707 362.156 118.026 361.504 117.468C360.579 116.675 359.586 115.964 358.538 115.343C358.003 115.026 357.153 114.298 356.48 114.493C355.927 114.655 355.359 115.471 354.986 115.875C354.022 116.922 353.096 118.004 352.212 119.119L352.168 119.176C351.792 118.514 351.214 117.946 350.655 117.469C349.681 116.631 348.631 115.886 347.519 115.242C346.925 114.901 346.033 114.196 345.337 114.648C344.742 115.036 344.211 115.79 343.741 116.314C342.925 117.229 341.991 118.162 341.311 119.187C340.13 120.976 340.99 121.192 341.778 121.442ZM252.806 121.442C255.38 122.26 257.247 124.378 257.534 125.059C257.818 125.739 257.604 126.203 257.998 126.276C258.29 126.328 258.899 125.637 259.085 125.475C260.389 124.328 261.651 123.093 262.785 121.773C262.924 121.614 263.056 121.448 263.179 121.275C263.327 121.34 263.491 121.39 263.655 121.442C266.227 122.26 268.094 124.378 268.38 125.059C268.667 125.739 268.451 126.203 268.845 126.276C269.137 126.328 269.749 125.637 269.931 125.475C271.238 124.328 272.5 123.093 273.634 121.773C274.247 121.059 274.63 120.461 274.218 119.515C273.866 118.707 273.185 118.026 272.533 117.468C271.608 116.675 270.615 115.964 269.567 115.343C269.032 115.026 268.182 114.298 267.509 114.493C266.956 114.655 266.388 115.471 266.015 115.875C265.051 116.922 264.125 118.004 263.241 119.119L263.197 119.176C262.821 118.514 262.243 117.946 261.684 117.469C260.71 116.631 259.66 115.886 258.548 115.242C257.953 114.901 257.062 114.196 256.366 114.648C255.771 115.036 255.24 115.79 254.769 116.314C253.954 117.229 253.021 118.162 252.34 119.187C251.159 120.976 252.019 121.192 252.806 121.442ZM369.386 153.318C368.46 152.525 367.468 151.814 366.419 151.193C365.882 150.877 365.035 150.151 364.362 150.346C363.807 150.505 363.238 151.321 362.868 151.728C361.904 152.773 360.978 153.855 360.094 154.969C360.08 154.988 360.065 155.008 360.049 155.026C359.674 154.366 359.096 153.795 358.537 153.318C357.562 152.481 356.511 151.735 355.398 151.091C354.806 150.753 353.915 150.046 353.218 150.5C352.624 150.885 352.092 151.639 351.623 152.163C350.806 153.078 349.871 154.012 349.195 155.037C348.012 156.827 348.872 157.042 349.659 157.292C352.233 158.11 354.1 160.23 354.383 160.908C354.67 161.589 354.457 162.055 354.851 162.126C355.142 162.178 355.752 161.487 355.938 161.326C357.241 160.178 358.503 158.942 359.638 157.623C359.778 157.465 359.909 157.298 360.029 157.125C360.186 157.189 360.346 157.245 360.508 157.292C363.082 158.11 364.946 160.23 365.233 160.908C365.52 161.589 365.306 162.056 365.7 162.126C365.989 162.178 366.601 161.487 366.787 161.326C368.09 160.178 369.353 158.942 370.484 157.623C371.102 156.911 371.482 156.312 371.068 155.365C370.716 154.557 370.036 153.876 369.386 153.318M288.743 153.318C287.817 152.525 286.824 151.814 285.776 151.193C285.239 150.877 284.391 150.151 283.719 150.346C283.164 150.505 282.595 151.321 282.225 151.728C281.261 152.773 280.335 153.855 279.45 154.969C279.435 154.989 279.422 155.008 279.406 155.026C279.031 154.366 278.452 153.795 277.894 153.318C276.918 152.481 275.867 151.735 274.754 151.091C274.163 150.753 273.271 150.046 272.575 150.5C271.981 150.885 271.448 151.639 270.979 152.163C270.163 153.078 269.227 154.012 268.552 155.037C267.368 156.827 268.228 157.042 269.016 157.292C271.59 158.11 273.457 160.23 273.74 160.908C274.027 161.589 273.814 162.055 274.207 162.126C274.499 162.178 275.109 161.487 275.294 161.326C276.598 160.178 277.86 158.942 278.994 157.623C279.135 157.465 279.265 157.298 279.385 157.125C279.542 157.189 279.702 157.245 279.865 157.292C282.439 158.11 284.303 160.23 284.589 160.908C284.876 161.589 284.663 162.056 285.056 162.126C285.345 162.178 285.958 161.487 286.143 161.326C287.447 160.178 288.709 158.942 289.841 157.623C290.458 156.911 290.839 156.312 290.424 155.365C290.073 154.557 289.392 153.876 288.743 153.318M418.439 107.541C419.37 105.322 418.728 104.928 418.439 104.928C417.795 104.928 416.004 108.148 414.071 112.338C412.137 116.526 412.173 119.678 412.21 121.827C412.246 123.972 412.067 131.351 411.923 132.172C411.118 136.798 408.557 139.942 404.941 138.761C402.255 137.364 402.307 119.626 402.92 118.954C405.739 115.845 415.164 103.242 415.474 102.902C417.904 99.8417 417.61 97.9541 417.61 94.1028C417.61 92.6482 416.827 93.2425 416.163 93.9461C416.05 94.0665 404.401 107.989 401.452 113.298C398.91 117.873 400.745 133.897 399.822 135.862C398.136 139.449 393.448 141.465 393.448 141.465C393.304 140.427 392.718 138.224 390.499 135.645C388.28 133.07 384.773 134.894 383.409 137.043C382.038 139.202 379.563 143.209 380.135 145.931C380.708 148.651 383.592 149.671 385.347 149.671C387.028 149.671 388.838 148.943 389.297 149.324C390.045 149.941 387.495 151.308 386.217 152.202C382.969 154.473 378.787 156.72 377.558 157.437C376.534 158.034 374.438 158.882 374.725 159.669C374.917 160.201 375.626 159.935 376.033 159.867C377.068 159.697 380.02 159.046 381.738 158.725C388.645 157.43 389.982 154.168 391.622 149.824C392.999 146.176 398.806 140.443 399.643 140.443C400.479 140.443 399.846 146.565 404.19 146.565C416.653 146.565 416.363 122.006 416.254 116.992C416.147 111.981 417.508 109.76 418.438 107.541M271.914 203.873L261.957 192.088L275.067 178.29H270.46L257.548 191.825V178.29H247.682V180.047L248.172 180.066C251.4 180.199 252.01 180.772 252.01 183.695V210.548H257.548V195.058L270.723 210.548H279.562V208.807L279.088 208.773C276.613 208.6 274.936 207.456 271.915 203.872M304.397 197.618C304.397 204.715 301.959 208.019 296.724 208.019C291.679 208.019 289.426 204.984 289.426 198.184V178.293H279.562V180.061L280.065 180.068C283.21 180.11 283.89 180.754 283.89 183.695V197.994C283.89 206.822 287.812 211.111 295.877 211.111C303.928 211.111 307.677 206.822 307.677 197.618V178.293H304.397V197.618ZM349.878 178.291L343.451 200.253L335.952 178.291H326.983V180.067H327.494C329.648 180.067 331.371 181.556 332.132 184.056L326.501 200.105L319.972 178.291H311.556V180.067H312.066C313.907 180.067 315.263 181.464 316.092 184.215L323.961 210.922H326.586L334.033 189.576L341.477 210.922H343.917L353.387 178.291H349.878ZM379.772 204.391L369.39 178.292H361.099V180.057L361.601 180.067C364.72 180.125 364.72 181.013 364.72 181.389C364.72 181.65 364.535 182.378 364.006 183.647L353.237 210.547H356.689L360.783 200.198H372.271L376.411 210.547H384.606V208.781L384.106 208.771C382.064 208.73 381.131 207.788 379.772 204.391ZM371.11 197.294H361.988L366.55 185.829L371.11 197.294ZM384.606 180.047L385.096 180.065C388.358 180.198 388.934 180.741 388.934 183.694V210.547H394.47V178.292H384.606V180.047ZM424.614 178.291H398.189V186.463H399.683L399.766 186.053C400.303 183.368 400.853 182.322 402.024 181.759C402.949 181.316 404.016 181.196 406.978 181.196H408.725V210.546H414.263V181.196H416.01C421.592 181.196 422.335 181.696 423.224 186.053L423.308 186.463H424.614V178.291ZM254.095 226.634L252.929 223.718H249.495L248.343 226.633H247.684L250.638 219.254C250.771 218.936 250.849 218.686 250.849 218.567C250.849 218.22 250.531 218.061 249.826 218.047V217.836H251.923L254.812 225.097C255.208 226.091 255.511 226.406 256.163 226.422V226.633L254.095 226.634ZM251.22 219.426L249.722 223.188H252.716L251.22 219.426ZM278.117 226.634V219.214C278.117 218.301 277.89 218.09 276.9 218.048V217.837H279.39V226.634H278.117ZM308.37 225.361C308.821 226.037 309.376 226.42 309.854 226.42V226.634H307.786L305.046 222.554H304.234V226.633H302.964V219.213C302.964 218.327 302.698 218.075 301.744 218.048V217.837H305.347C307.574 217.837 308.633 218.603 308.633 220.222C308.633 221.083 308.276 221.745 307.6 222.115C307.282 222.29 307.003 222.368 306.435 222.46L308.37 225.361ZM304.235 222.024C305.27 222.024 305.575 222.011 305.891 221.943C306.86 221.758 307.309 221.203 307.309 220.209C307.309 218.908 306.594 218.366 304.885 218.366C304.29 218.366 304.234 218.418 304.234 219.106L304.235 222.024ZM338.58 226.74H338.103L335.903 220.432L333.705 226.74H333.175L330.988 219.319C330.737 218.485 330.312 218.05 329.716 218.05V217.838H331.835L333.77 224.302L335.519 219.319C335.295 218.526 334.75 218.05 334.062 218.05V217.838H336.343L338.568 224.357L340.476 217.838H341.164L338.58 226.74ZM368.207 226.634L367.042 223.718H363.608L362.456 226.633H361.796L364.751 219.254C364.884 218.936 364.961 218.686 364.961 218.567C364.961 218.22 364.643 218.061 363.94 218.047V217.836H366.036L368.925 225.097C369.321 226.091 369.623 226.406 370.275 226.422V226.633L368.207 226.634ZM365.332 219.426L363.835 223.188H366.828L365.332 219.426ZM394.483 222.553V225.202C394.483 226.156 394.71 226.383 395.7 226.422V226.633H393.21V222.605L391.302 219.638C390.507 218.392 390.137 218.074 389.341 218.048V217.837H391.568L394.165 221.863L396.709 217.837H397.453L394.483 222.553ZM422.441 218.154C420.931 218.248 420.162 218.71 420.162 219.546C420.162 220.235 420.679 220.751 422.109 221.468C423.95 222.406 424.613 223.163 424.613 224.316C424.613 225.773 423.369 226.791 421.619 226.791C421.142 226.791 420.733 226.727 419.594 226.461C419.594 226.461 419.314 226.396 419.049 226.367L418.838 224.302H419.049C419.448 225.533 420.321 226.211 421.512 226.211C422.574 226.211 423.343 225.545 423.343 224.633C423.343 223.851 422.824 223.309 421.37 222.568C420.373 222.063 419.724 221.601 419.448 221.163C419.188 220.795 419.049 220.355 419.049 219.904C419.049 219.135 419.393 218.514 420.016 218.154C420.6 217.823 421.21 217.703 422.441 217.677V218.154Z" fill="#20285C"/>
<defs>
<radialGradient id="paint0_radial_730_18355" cx="0" cy="0" r="1" gradientUnits="userSpaceOnUse" gradientTransform="translate(184.027 169.027) scale(75.2024 75.2024)">
<stop stop-color="#00AEEF"/>
<stop offset="0.4758" stop-color="#00AEEF"/>
<stop offset="0.7988" stop-color="#0B4379"/>
<stop offset="1" stop-color="#1E285A"/>
</radialGradient>
</defs>
</svg>
