<svg width="480" height="320" viewBox="0 0 480 320" fill="none" xmlns="http://www.w3.org/2000/svg">
<path fill-rule="evenodd" clip-rule="evenodd" d="M240.05 53.334C198.91 53.334 165.695 86.5482 165.695 127.689C165.695 168.829 198.91 202.043 240.05 202.043C281.19 202.043 314.404 168.829 314.404 127.689C314.404 86.5482 281.19 53.334 240.05 53.334Z" fill="#C01A39"/>
<path fill-rule="evenodd" clip-rule="evenodd" d="M266.848 117.876H270.245C274.396 117.876 280.058 116.743 280.058 111.459C280.058 107.685 276.284 105.42 271.377 105.42C264.96 105.42 261.564 108.44 261.564 114.101H247.599C247.976 100.136 257.789 92.9648 270.999 92.9648C281.945 92.9648 294.023 97.4941 294.023 110.327C294.023 115.611 291.381 121.272 285.719 122.405C292.513 124.292 296.288 129.199 296.288 136.747C296.288 150.712 283.455 156.374 270.999 156.374C256.657 156.374 244.956 149.203 245.711 133.35H260.054C259.676 140.522 263.451 144.296 270.999 144.296C276.284 144.296 281.19 142.031 281.19 136.747C281.19 129.576 276.284 128.066 270.245 128.066C268.735 128.066 267.225 128.066 266.848 128.444V117.876Z" fill="white"/>
<path fill-rule="evenodd" clip-rule="evenodd" d="M192.87 70.3184H217.026V155.241H267.602V184.681H192.493C188.719 181.284 184.944 177.887 181.925 173.735V81.6414C185.322 77.4896 188.719 73.7153 192.87 70.3184Z" fill="white"/>
<path d="M83.0231 220.146H95.5665V212.812H61.8154V220.146H74.3532V254.293H83.0231V220.146ZM101.541 236.002C101.994 231.953 104.033 229.518 107.827 229.518C110.432 229.518 113.631 231.019 114.084 236.002H101.541ZM113.744 245.431C113.093 247.611 110.8 248.772 108.535 248.772C101.994 248.772 101.541 243.562 101.314 241.269H122.409V239.825C122.409 225.781 114.028 222.892 107.94 222.892C94.4905 222.892 93.2164 234.728 93.2164 238.437C93.2164 251.094 99.8703 255.256 108.535 255.256C113.801 255.256 119.917 252.821 122.041 245.431H113.744ZM145.315 243.194C145.315 244.638 143.928 248.574 139.822 248.574C133.706 248.574 133.593 241.92 133.593 238.579C133.593 234.756 134.924 229.66 139.992 229.66C143.758 229.376 145.032 232.604 145.372 234.643H153.583C152.819 225.044 144.862 222.864 139.992 222.864C129.601 222.864 125.269 229.971 125.269 239.91C125.269 246.365 127.93 255.199 139.483 255.199C150.752 255.199 153.243 246.365 153.527 243.194H145.315ZM185.692 233.001C185.692 226.234 181.02 222.723 174.989 222.723C170.6 222.723 167.146 224.959 166.098 227.508V212.784H158V254.265H166.098V236.653C166.098 231.953 168.873 229.518 172.469 229.518C177.594 229.518 177.707 233.341 177.707 235.606V254.265H185.805L185.692 233.001ZM220.038 233.001C220.038 226.234 215.366 222.723 209.335 222.723C203.502 222.723 201.208 226.177 200.104 228.017V223.515H192.374V254.265H200.444V236.653C200.444 231.953 203.219 229.518 206.815 229.518C211.94 229.518 212.053 233.341 212.053 235.606V254.265H220.151L220.038 233.001ZM247.984 239.032C247.984 242.967 246.823 248.404 240.594 248.404C234.337 248.404 233.176 242.967 233.176 239.032C233.176 235.096 234.337 229.66 240.594 229.66C246.823 229.66 247.984 235.096 247.984 239.032ZM256.309 239.032C256.309 227.932 248.862 222.836 240.594 222.836C232.326 222.836 224.88 227.932 224.88 239.032C224.88 250.131 232.326 255.199 240.594 255.199C248.862 255.199 256.309 250.131 256.309 239.032ZM269.475 212.614H261.575V254.123H269.475V212.614ZM297.79 239.032C297.79 242.967 296.629 248.404 290.4 248.404C284.142 248.404 282.981 242.967 282.981 239.032C282.981 235.096 284.142 229.66 290.4 229.66C296.629 229.66 297.79 235.096 297.79 239.032ZM306.114 239.032C306.114 227.932 298.667 222.836 290.4 222.836C282.132 222.836 274.685 227.932 274.685 239.032C274.685 250.131 282.132 255.199 290.4 255.199C298.667 255.199 306.114 250.131 306.114 239.032ZM317.808 239.032C317.808 231.868 321.149 229.66 324.151 229.66C328.681 229.66 330.974 233.709 330.974 238.692C330.974 242.911 329.7 247.583 324.236 247.583C319.422 247.583 317.808 242.967 317.808 239.032ZM331.258 223.487V228.046C330.295 226.035 327.973 222.666 322.254 222.666C315.486 222.666 309.484 227.876 309.484 238.522C309.484 249.253 315.316 254.407 322.735 254.407C327.577 254.407 329.587 252.141 330.918 249.791V253.472C330.918 258.456 328.908 260.523 324.575 260.523C319.903 260.523 319.252 258.965 318.912 257.408H310.135C310.475 263.949 317.185 266.667 323.528 266.667C338.619 266.667 339.186 257.804 339.186 252.481V223.487H331.258ZM353.909 212.246H345.698V219.778H353.909V212.246ZM345.698 254.123H353.909V223.544H345.698V254.123ZM366.934 236.002C367.5 231.953 369.482 229.518 373.163 229.518C375.712 229.518 379.109 231.019 379.393 236.002H366.934ZM379.109 245.431C378.543 247.611 376.278 248.772 374.013 248.772C367.5 248.772 366.934 243.562 366.651 241.269H387.887V239.825C387.887 225.781 379.393 222.892 373.446 222.892C359.855 222.892 358.723 234.728 358.723 238.437C358.723 251.094 365.235 255.256 374.013 255.256C379.109 255.256 385.339 252.821 387.321 245.431H379.109ZM417.334 233.001C416.768 224.336 409.406 222.807 403.46 222.807C393.833 222.807 391.002 228.612 391.002 233.114C391.002 244.61 410.255 240.731 410.255 245.884C410.255 247.045 409.123 249.055 405.159 249.055C400.062 249.055 398.363 247.158 398.363 244.553H389.869C390.152 252.764 397.797 255.171 404.876 255.171C409.689 255.171 418.184 253.557 418.184 244.61C418.184 233.284 398.93 236.823 398.93 231.953C398.93 230.622 399.496 228.952 404.026 228.952C408.273 228.952 409.123 231.019 409.406 233.001H417.334Z" fill="black"/>
</svg>
