<svg width="480" height="320" viewBox="0 0 480 320" fill="none" xmlns="http://www.w3.org/2000/svg">
<path d="M106.752 199.513H83.0441C82.8246 199.513 82.6051 199.513 82.3856 199.294L63.2874 185.025C63.0679 184.805 62.8484 184.586 62.8484 184.366L55.3848 161.317V160.658L62.8484 135.633C62.8484 135.414 63.0679 135.194 63.2874 134.975L82.8246 120.706C83.0441 120.486 83.2637 120.486 83.4832 120.486H106.313C106.533 120.486 106.752 120.486 106.972 120.706L126.509 134.975C126.728 135.194 126.948 135.414 126.948 135.633L134.412 160.439V161.097L127.167 184.366C127.167 184.586 126.948 184.805 126.728 185.025L107.63 199.294C107.191 199.513 106.972 199.513 106.752 199.513ZM84.1417 197.098H103.679C95.9958 189.635 88.3126 183.049 80.4099 177.122C81.0685 183.488 82.3856 190.293 84.1417 197.098ZM81.288 174.707C89.8492 180.854 97.7519 187.879 106.094 195.781C108.069 185.244 109.167 175.147 109.606 165.488C99.069 167.683 89.1907 170.976 81.288 174.707ZM111.801 166.585C111.362 175.805 110.264 185.464 108.508 195.342L124.314 183.708C120.582 176.683 116.631 170.976 111.801 166.585ZM65.9217 183.927L81.0685 195.123C79.5318 188.757 78.4342 182.391 77.7757 176.244C73.1658 178.659 69.2145 181.293 65.9217 183.927ZM58.6775 163.512L64.6046 181.952C67.8973 179.317 71.8487 176.683 76.4586 174.268C70.5316 170.317 64.8241 166.585 58.6775 163.512ZM113.338 164.61C117.948 169 122.119 174.268 125.631 180.854L131.558 162.414C125.631 162.634 119.484 163.512 113.338 164.61ZM79.5318 148.585C78.8733 156.268 78.8733 164.39 79.7514 172.512C87.8736 168.78 97.5324 165.488 107.85 163.293C101.703 158.683 95.3372 155.829 88.7516 152.756C85.6784 151.438 82.6051 150.121 79.5318 148.585ZM58.6775 160.658C65.0436 163.951 71.1901 167.683 77.1171 171.854C76.4586 163.951 76.4586 156.268 76.8976 148.585C69.873 151.878 63.7265 156.048 58.6775 160.658ZM110.923 140.463C111.801 147.487 112.021 154.951 112.021 162.195C118.387 160.878 124.753 160 130.68 159.561C124.753 152.536 118.387 146.39 110.923 140.463ZM81.5075 146.609C84.1417 147.926 86.776 149.024 89.8492 150.341C96.4348 153.195 103.02 156.268 109.606 161.097C109.606 153.634 109.386 146.17 108.289 138.926C98.4105 140.902 89.4102 143.316 81.5075 146.609ZM64.6046 138.267L59.1166 156.926C63.7265 152.975 69.434 149.463 75.8 146.39C71.4096 143.975 67.8973 141.341 64.6046 138.267ZM112.46 138.487C119.045 143.536 124.972 149.243 130.241 155.39L124.972 137.17L112.46 138.487ZM84.1417 123.56C82.1661 130.365 80.6294 137.389 79.7514 144.633C87.654 141.341 96.4348 138.706 106.094 137.17C100.167 132.56 93.142 128.389 84.1417 123.56ZM65.9217 136.072C69.2145 139.365 72.9463 141.999 77.3367 144.633C77.9952 138.048 79.3123 131.462 81.0685 125.096L65.9217 136.072ZM108.289 124.657C109.167 128.389 109.825 132.34 110.484 136.292C114.435 135.633 118.387 135.194 122.338 134.975L108.289 124.657ZM88.3126 122.901C95.7762 127.072 102.142 131.023 107.63 134.975C106.972 131.023 106.313 126.852 105.216 122.901H88.3126Z" fill="#FF000A"/>
<path d="M260.415 140.462L246.366 179.317H254.269L256.683 172.512H270.513L272.708 179.317H280.611L266.342 140.462H260.415ZM258.659 166.146L263.488 152.097L268.318 166.146H258.659ZM314.856 152.536C314.856 145.95 310.246 140.682 302.343 140.682H287.196V179.537H294.88V163.951H300.368L308.051 179.537H316.831L308.051 162.853C311.343 161.317 314.856 158.024 314.856 152.536ZM301.685 157.585H294.441V147.268H301.685C304.977 147.268 307.173 149.463 307.173 152.316C307.173 155.39 304.977 157.585 301.685 157.585ZM351.296 152.536C351.296 145.95 346.686 140.682 338.783 140.682H323.637V179.537H331.32V163.951H336.808L344.491 179.537H353.272L344.491 162.853C348.003 161.317 351.296 158.024 351.296 152.536ZM338.125 157.585H330.881V147.268H338.125C341.418 147.268 343.613 149.463 343.613 152.316C343.832 155.39 341.637 157.585 338.125 157.585ZM360.077 140.462H367.76V179.317H360.077V140.462ZM400.029 159.78C402.005 161.756 403.102 164.61 403.102 168.122C403.102 175.585 396.736 179.976 388.614 179.976C382.687 179.976 378.297 178.659 374.345 174.927L379.175 170.098C381.59 172.512 384.882 173.39 388.614 173.39C393.005 173.39 395.419 171.634 395.419 168.561C395.419 167.244 394.98 166.146 394.322 165.268C393.663 164.61 392.785 164.171 390.809 163.951L386.199 163.292C382.907 162.853 380.492 161.756 378.736 160C376.98 158.244 375.882 155.609 375.882 152.316C375.882 145.292 380.931 140.462 389.492 140.462C394.761 140.462 398.712 141.78 402.005 145.072L397.175 149.902C394.761 147.487 391.687 147.268 389.273 147.268C385.321 147.268 383.346 149.463 383.346 152.097C383.346 152.975 383.565 154.073 384.443 154.951C385.102 155.609 386.419 156.268 387.956 156.487L392.566 157.146C396.078 157.146 398.273 158.244 400.029 159.78ZM203.34 168.122C203.34 175.805 197.633 179.756 191.047 179.756C185.559 179.756 180.291 177.122 178.974 171.195L185.779 168.341C185.779 171.854 188.193 173.39 191.047 173.39C194.12 173.39 196.316 171.415 196.316 167.902C196.316 164.61 194.34 162.634 190.828 162.634H190.608V156.487H190.828C194.34 156.487 195.657 154.292 195.657 151.658C195.657 148.365 193.462 146.609 190.828 146.609C188.193 146.609 186.218 148.365 185.998 151.219L179.193 148.365C180.51 143.097 185.12 140.023 190.608 140.023C197.413 140.023 202.462 144.633 202.462 151.219C202.462 155.39 200.486 157.804 198.072 159.122C201.145 160.878 203.34 163.512 203.34 168.122ZM232.097 140.462H239.78V179.317H232.097V163.073H218.926V179.317H211.243V140.462H218.926V156.268H232.097V140.462ZM161.851 172.732H173.925V179.537H154.168V140.462H161.851V172.732ZM409.029 141.56H415.395V142.877H412.981V150.56H411.664V142.877H409.249V141.56H409.029ZM424.615 141.56V150.56H423.298V144.633L421.322 148.804H420.225L418.249 144.633V150.56H416.932V141.56H418.249L420.883 147.048L423.298 141.56H424.615Z" fill="#283030"/>
</svg>
