<svg width="480" height="320" viewBox="0 0 480 320" fill="none" xmlns="http://www.w3.org/2000/svg">
<path fill-rule="evenodd" clip-rule="evenodd" d="M230.823 138.053C231.042 137.889 231.37 137.67 231.588 137.452C232.571 136.578 233.445 135.595 234.319 134.557C234.592 134.175 234.865 133.792 235.084 133.355C235.357 132.864 235.685 132.864 236.067 133.137C236.613 133.519 236.832 133.956 236.558 134.612C236.395 134.994 236.231 135.431 236.067 135.813C235.794 136.523 232.954 143.46 235.685 141.603C237.214 140.565 238.634 137.07 239.672 135.486C239.726 135.376 239.781 135.322 239.836 135.267C240.546 135.649 240.873 136.414 240.655 137.233C240.436 137.998 240.163 138.708 239.89 139.473C239.672 140.128 239.563 140.784 239.563 141.548C240.109 141.548 240.491 141.275 240.764 141.057C241.747 140.183 242.457 139.418 243.167 138.271C243.932 136.906 244.751 135.595 245.516 134.175C246.008 133.246 246.445 132.263 246.936 131.171C246.609 131.225 246.39 131.225 246.172 131.225C244.642 131.444 243.113 131.662 241.583 131.935C241.365 131.99 241.147 131.99 240.928 131.826C240.71 131.608 240.382 131.553 240.109 131.444L239.453 131.28C239.235 131.171 239.016 130.898 239.071 130.679C239.071 130.406 239.235 130.297 239.453 130.242C239.781 130.133 240.109 130.024 240.491 130.024C242.294 129.86 244.096 129.696 245.898 129.587C246.39 129.532 246.827 129.532 247.319 129.532C247.537 129.532 247.646 129.423 247.756 129.204C248.029 128.549 248.302 127.839 248.629 127.183C248.848 126.692 249.012 126.2 249.23 125.763C249.503 125.217 249.831 125.217 250.104 125.763C250.268 126.036 250.377 126.364 250.487 126.692C250.705 127.402 250.541 128.057 250.268 128.713C250.159 128.931 250.104 129.15 249.94 129.423H250.487C252.398 129.477 254.31 129.477 256.222 129.532C256.986 129.532 257.696 129.641 258.461 129.751C258.516 129.751 258.625 129.805 258.68 129.805C259.007 129.914 259.062 130.078 258.898 130.406C258.734 130.734 258.57 130.898 258.243 130.898H256.659C254.638 130.734 252.562 130.788 250.541 130.898C250.268 130.898 249.94 130.952 249.613 130.952C249.394 130.952 249.285 131.061 249.176 131.28C248.302 132.809 245.844 139.2 245.516 140.128C245.352 140.62 245.298 141.166 245.188 141.712V142.095C245.298 142.969 245.571 143.187 246.335 142.859C246.663 142.695 246.991 142.532 247.319 142.313C248.629 141.111 249.94 139.801 250.978 138.271C251.36 137.725 251.688 137.124 251.907 136.414C252.016 136.141 252.016 135.813 252.016 135.486C252.016 135.212 252.016 135.049 252.234 134.939C252.453 134.83 252.617 134.994 252.781 135.158L252.944 135.486C253.163 135.977 253.436 136.469 253.655 136.96C253.928 137.507 253.928 137.998 253.655 138.49C253.054 139.582 253.108 140.729 253.272 142.04C253.545 141.931 254.31 141.603 255.02 141.275C256.167 140.729 257.423 140.019 258.079 139.582C258.297 139.418 258.516 139.309 258.68 139.036C259.827 137.288 261.356 136.086 263.158 135.212C263.595 134.994 264.087 134.885 264.578 134.776C265.398 134.612 266.053 135.049 266.436 135.923C266.599 136.25 266.436 136.633 266.108 136.687C265.015 136.851 264.196 137.288 263.322 137.78C261.957 138.599 260.537 140.128 259.936 141.33C260.919 141.385 261.957 141.439 262.776 140.838C263.923 140.019 264.524 139.036 265.07 138.162C265.179 137.943 265.343 137.725 265.507 137.561C265.78 137.233 265.944 137.233 266.272 137.561C266.436 137.78 266.709 138.162 266.763 138.599L267.091 138.271C268.074 137.124 268.893 136.36 269.877 135.103C270.04 134.885 270.477 134.339 270.696 134.12C270.914 133.847 271.078 133.902 271.351 134.065C271.734 134.284 271.952 134.721 272.116 135.103C272.225 135.376 272.171 135.649 272.061 135.923C271.788 136.523 271.515 137.07 271.242 137.67C270.587 138.872 269.877 140.456 269.713 141.33C269.549 142.149 269.822 142.477 270.532 141.931C270.914 141.658 271.351 141.275 271.898 140.674C272.99 139.418 273.7 138.544 274.41 137.07C274.519 136.851 274.629 136.687 274.738 136.469C274.902 136.141 275.229 136.086 275.448 136.414C275.666 136.742 275.885 137.124 276.049 137.507C276.267 137.943 276.267 138.435 276.103 138.927C275.939 139.527 275.612 140.565 275.612 141.057C276.049 141.002 276.431 140.893 276.868 140.729C277.414 140.565 277.742 140.292 277.851 139.582C278.124 137.998 279.217 135.977 280.145 134.994C280.528 134.612 280.91 134.229 281.347 133.902C282.166 133.301 283.095 133.028 284.078 132.973C284.733 132.973 284.952 133.137 285.17 133.847C286.317 137.397 282.876 139.254 280.637 140.893C281.074 140.948 281.456 140.893 281.838 140.838C283.422 140.565 284.952 140.128 286.481 139.527C287.41 139.2 288.284 138.872 289.212 138.544C289.758 138.326 290.086 138.599 290.086 139.254C290.086 139.691 289.977 140.019 289.704 140.292C289.485 140.511 289.212 140.729 288.884 140.893C287.737 141.439 286.59 141.876 285.389 142.258C284.296 142.586 283.204 142.969 282.111 143.296C281.511 143.46 280.91 143.515 280.309 143.569C279.49 143.624 278.78 143.405 278.233 142.586C277.633 142.859 276.977 143.132 276.376 143.405C276.103 143.515 275.83 143.624 275.557 143.679C275.12 143.788 274.902 143.624 274.738 143.187C274.574 142.641 274.41 141.876 274.301 141.385C274.028 141.658 273.7 141.876 273.427 142.149C273.154 142.368 272.881 142.586 272.608 142.859C272.061 143.351 271.461 143.842 270.751 144.17C270.04 144.553 269.494 144.443 269.003 143.569C268.566 142.75 268.293 141.985 268.238 141.548C268.183 141.275 268.129 140.948 268.074 140.674C267.146 141.33 266.217 141.985 265.343 142.695C264.961 143.023 264.578 143.242 264.142 144.061C262.885 146.246 262.175 148.54 261.465 151.052C261.465 151.107 261.411 151.162 261.356 151.271C261.247 151.162 261.137 151.107 261.137 150.998C260.919 150.561 260.755 150.069 260.591 149.632C260.427 149.304 260.427 148.977 260.591 148.54C261.192 146.573 262.23 144.279 262.885 143.242C260.919 143.733 259.062 143.624 257.915 141.931C257.751 142.04 257.587 142.149 257.478 142.258C256.44 143.023 255.293 143.679 254.146 144.225C253.545 144.553 252.562 144.116 252.344 143.624C251.852 142.368 251.961 141.33 251.961 139.801C251.797 139.964 251.688 140.128 251.579 140.238C250.65 141.494 249.558 142.641 248.411 143.733C247.974 144.116 247.537 144.443 246.991 144.553C245.571 144.935 244.096 144.006 243.878 142.313C243.823 141.767 243.768 141.221 243.714 140.565C243.55 140.784 243.441 140.948 243.331 141.111C242.785 141.985 242.13 142.805 241.365 143.515C240.819 144.006 240.327 144.443 239.563 144.607C238.962 144.771 238.416 144.443 238.361 143.733C238.361 143.187 238.416 142.586 238.525 142.04C238.579 141.603 238.689 141.166 238.798 140.729C238.197 141.439 237.705 142.095 237.105 142.75C236.722 143.187 235.63 144.498 234.647 144.279C234.101 144.17 233.554 143.897 233.227 143.351C233.063 143.078 233.008 142.805 233.008 142.532C233.008 141.33 233.172 140.183 233.609 139.091L233.773 138.599C233.773 138.599 233.773 138.544 233.718 138.49L233.008 139.2C232.517 139.746 231.97 140.128 231.37 140.511C230.168 141.275 228.966 142.149 227.874 143.078C226.945 143.897 225.143 144.826 224.05 143.842C222.958 142.914 222.74 141.057 223.013 139.691C223.286 138.326 223.941 137.124 224.815 136.141C228.42 131.99 230.496 135.759 230.769 136.96C230.823 137.452 230.823 137.889 230.823 138.053ZM224.706 141.822C225.198 141.767 225.744 141.548 226.126 141.385C226.836 141.111 227.492 140.565 227.983 140.183C228.42 139.801 228.748 139.527 229.021 139.091C229.622 138.162 229.731 136.906 229.458 136.305C229.294 135.868 228.092 135.322 226.399 137.397C225.744 138.162 225.252 138.981 224.924 139.964C224.706 140.511 224.542 141.111 224.706 141.822ZM279.107 139.145C280.418 138.49 281.183 138.053 282.221 137.179C282.712 136.742 283.04 136.414 283.586 135.649C283.695 135.486 284.023 135.103 283.859 134.83C281.62 135.431 280.145 136.96 279.107 139.145ZM215.311 134.721C216.131 134.175 217.387 133.465 218.916 133.465C219.79 133.465 220.5 133.847 220.883 134.83C221.101 135.431 221.319 136.086 221.319 136.742C221.647 143.679 213.236 146.683 208.211 146.683C207.774 146.683 207.391 146.573 206.954 146.464C206.572 146.355 206.408 146.136 206.408 145.7C206.408 145.044 206.463 144.443 206.681 143.842C206.845 143.351 207.064 142.805 207.555 142.586C207.719 142.477 207.774 142.313 207.665 142.149C207.501 141.876 207.391 141.548 207.173 141.33C206.627 140.674 206.081 140.729 205.589 141.439C205.48 141.603 205.425 141.712 205.37 141.876C204.333 144.006 205.152 146.956 207.064 148.103C208.429 148.922 210.122 148.704 211.597 148.376C216.294 147.338 223.832 143.132 222.74 136.796C222.357 134.448 221.647 132.591 218.971 131.608C219.626 130.624 220.336 129.532 219.845 128.221C218.807 125.326 215.967 125.872 213.4 126.856C212.744 127.074 212.362 127.293 211.925 127.566C210.341 128.494 209.03 129.587 207.828 131.007C207.61 131.225 207.501 131.498 207.61 131.826C207.828 132.481 208.265 132.864 208.812 133.137C208.921 133.192 209.303 132.645 209.576 132.318C210.996 130.679 212.089 129.969 214 129.04C214.492 128.822 214.874 128.713 215.038 128.658C214.984 129.04 214.874 129.696 214.765 129.969C214.437 131.171 214.219 131.99 213.837 133.192C213.072 135.595 211.925 137.834 210.614 139.964L209.959 140.948C209.795 141.166 209.74 141.439 209.904 141.712C210.122 142.149 210.45 142.477 210.942 142.532C211.379 142.586 211.597 142.258 211.761 141.931C213.181 139.746 214.328 137.397 215.257 134.885C215.257 134.83 215.257 134.776 215.311 134.721ZM218.152 129.259C217.605 130.133 217.278 130.515 216.458 131.116H216.349C216.404 129.86 215.967 129.204 215.147 128.494C216.24 128.057 217.496 127.893 218.425 128.003C218.534 128.33 218.261 128.986 218.152 129.259ZM313.627 142.258C314.119 142.313 314.501 142.313 314.883 142.04C316.522 140.948 317.997 139.582 319.362 138.053C319.472 137.943 319.526 137.78 319.581 137.67C320.291 135.431 320.728 133.082 321.711 130.952C322.203 129.86 323.896 127.02 325.698 125.053C326.19 124.507 326.518 124.179 326.681 124.289C327.009 124.562 327.883 126.419 328.047 127.675C328.211 128.658 327.61 129.587 327.173 130.461C326.681 131.444 326.135 132.427 325.534 133.41C324.223 135.54 322.694 137.452 321.11 139.309C320.728 139.746 320.564 140.893 320.782 141.385C321.056 142.04 321.274 141.931 321.492 141.822C324.223 140.128 326.081 137.288 327.173 135.595C327.228 135.486 327.282 135.431 327.337 135.322C327.501 135.103 327.665 135.103 327.828 135.267C328.156 135.704 328.429 136.141 328.648 136.633C328.702 136.742 328.648 137.015 328.538 137.179C327.828 138.435 326.681 140.62 326.299 141.712C328.32 141.221 330.942 139.254 333.29 135.704C333.618 135.158 334.437 133.738 335.038 134.502C335.257 134.83 335.53 135.103 335.694 135.486C335.803 135.759 335.912 136.032 335.912 136.36C335.912 136.96 335.857 137.507 335.857 138.107C335.857 138.217 335.858 138.38 335.803 138.599L336.021 138.38C336.731 137.616 337.387 136.906 338.097 136.196C338.37 135.923 338.698 135.704 339.025 135.431C339.189 135.322 339.408 135.212 339.626 135.212C340.009 135.212 340.282 135.322 340.446 135.704C340.609 136.032 340.828 136.414 340.883 137.343C340.937 137.834 340.828 138.326 340.555 138.981C340.282 139.637 340.063 140.347 339.845 141.057C339.736 141.33 339.681 141.603 339.572 142.04C340.391 141.767 341.32 141.002 342.084 140.511C342.303 140.347 342.467 140.128 342.521 139.801C343.34 137.124 344.87 134.994 347.055 133.519C347.328 133.355 347.601 133.192 347.928 133.082C349.185 132.427 349.567 133.956 349.676 134.339C349.786 134.721 349.567 135.813 349.294 136.523C348.748 137.834 347.929 138.817 346.891 139.637C345.908 140.401 344.051 141.712 343.45 142.258C343.832 142.805 345.58 142.586 346.29 142.532C348.092 142.313 349.84 141.767 351.588 141.275C352.189 141.111 353.827 140.565 354.264 140.401C354.756 140.238 354.756 140.292 354.92 140.838C355.029 141.166 355.138 141.494 355.193 141.876C355.248 142.258 355.193 142.368 354.92 142.477C354.592 142.586 354.264 142.75 353.991 142.805C352.298 143.296 350.605 143.788 348.857 144.225C347.601 144.553 345.471 144.88 343.941 144.443C343.395 144.279 343.013 143.952 342.794 143.351C342.74 143.187 342.685 143.078 342.576 142.914C342.467 142.969 341.593 143.569 340.937 143.842C340.664 143.952 340.391 144.116 340.118 144.17C339.244 144.389 338.971 144.116 338.643 143.242C338.206 142.095 338.37 141.002 338.698 139.91C338.862 139.364 339.025 138.763 339.244 138.107C339.135 138.217 339.025 138.271 338.971 138.326C336.622 140.456 335.093 143.952 334.383 144.607C333.946 145.044 333.727 145.044 333.4 144.498C333.29 144.334 333.236 144.116 333.127 143.952C332.853 143.515 332.799 143.078 332.908 142.586C333.072 141.985 333.837 139.418 334.11 138.326C333.727 138.817 332.744 140.019 332.143 140.729C331.106 141.985 329.194 143.788 327.337 144.607C326.791 144.826 326.299 144.716 325.917 144.225C325.425 143.624 325.097 142.969 324.934 142.149C324.934 141.985 324.879 141.822 324.824 141.603C324.66 141.767 324.497 141.876 324.387 141.985C323.459 142.859 322.476 143.733 321.383 144.443C320.782 144.826 320.564 144.716 320.127 144.17C319.526 143.405 318.871 142.477 318.871 141.822C318.27 142.586 317.614 143.132 316.959 143.624C316.14 144.17 315.32 144.389 314.337 144.443C313.409 144.498 312.207 143.242 312.262 141.658C312.262 141.166 312.371 140.729 312.535 140.238C312.644 139.855 312.863 139.473 313.081 139.145C313.573 138.326 314.119 137.507 314.61 136.742C314.72 136.578 314.774 136.469 314.883 136.305C314.61 136.141 314.446 136.305 314.283 136.523C313.682 137.288 313.081 138.053 312.48 138.872C311.879 139.637 308.657 142.532 307.564 143.078C306.581 143.569 305.653 144.17 304.615 144.389C304.069 144.498 303.959 144.443 303.686 143.897C303.249 142.969 302.867 142.04 303.031 140.948C303.031 140.893 303.031 140.893 302.976 140.838L300.846 141.658C300.628 141.712 300.628 141.931 300.573 142.095C300.3 143.733 300.027 145.426 299.808 147.065C299.699 147.666 299.645 148.267 299.535 148.867C299.535 149.086 299.481 149.25 299.262 149.304C299.044 149.359 298.934 149.195 298.825 149.031C298.388 148.321 298.224 147.502 298.388 146.683C298.607 145.426 298.771 144.116 298.989 142.859C299.044 142.641 299.044 142.477 299.044 142.204C298.552 142.313 297.132 142.695 296.04 142.75C295.657 142.75 295.166 142.641 294.783 142.258C294.456 142.586 294.183 142.914 293.855 143.187C293.582 143.46 293.309 143.788 292.981 144.006C292.489 144.389 292.107 144.334 291.725 143.842C291.67 143.788 291.615 143.733 291.561 143.624C291.178 143.023 291.178 142.805 291.725 142.313C295.93 138.435 298.934 132.481 299.972 130.898C300.464 131.389 300.846 131.935 301.174 132.536C301.228 132.645 301.228 132.755 301.228 132.918C301.283 133.683 301.228 137.561 300.901 139.309C301.01 139.309 301.119 139.254 301.228 139.254C301.829 139.036 302.266 138.763 302.812 138.217C303.304 137.78 303.796 137.233 304.724 136.086C304.943 135.813 305.161 135.759 305.325 136.032C305.598 136.414 305.817 136.851 306.035 137.288C306.144 137.561 306.035 137.78 305.926 137.998C305.434 139.2 304.997 140.401 304.56 141.603C304.451 141.822 304.451 142.04 304.396 142.368C304.56 142.313 304.615 142.313 304.67 142.313C307.947 141.166 311.661 136.796 312.262 135.54C312.371 135.322 312.426 135.158 312.316 134.885C312.262 134.776 312.262 134.666 312.262 134.557C312.262 134.393 312.316 134.229 312.371 134.12C312.426 134.065 312.644 134.12 312.699 134.175C312.917 134.339 313.136 134.339 313.354 134.339C314.119 134.284 314.883 134.229 315.648 133.847C316.085 133.629 316.249 133.683 316.522 134.175C316.686 134.502 316.795 134.776 316.959 135.103C317.068 135.322 317.068 135.595 316.959 135.813C316.741 136.414 314.119 140.674 313.627 142.258ZM300.136 134.83H300.081C298.88 136.687 297.678 138.49 296.422 140.456C297.405 140.183 298.279 139.964 299.208 139.746C299.481 139.691 299.59 139.527 299.59 139.254C299.645 138.927 299.699 138.544 299.754 138.217C299.863 137.015 300.027 135.923 300.136 134.83ZM322.148 134.721C322.148 134.721 322.203 134.721 322.203 134.776C324.114 132.372 325.753 128.931 326.19 128.057C326.299 127.839 326.299 127.675 326.081 127.456C325.534 128.167 322.967 131.334 322.148 134.721ZM344.815 138.599C345.853 138.107 347.929 135.868 348.147 135.103C346.781 135.595 345.471 136.96 344.815 138.599ZM306.964 133.082C306.254 133.847 306.254 133.902 306.69 134.83C306.69 134.885 306.745 134.939 306.745 134.994C307.018 135.54 307.237 135.649 307.674 135.212C308.274 134.612 308.875 134.011 309.421 133.41C309.476 133.355 309.531 133.137 309.531 133.028C309.312 132.427 309.039 131.881 308.602 131.389C308.056 131.99 307.51 132.536 306.964 133.082ZM329.959 130.843C329.631 131.28 329.248 131.717 328.921 132.154C328.648 132.427 328.538 132.645 328.702 132.973C328.866 133.301 329.03 133.683 329.249 133.956C329.412 134.175 329.576 134.284 329.849 134.12C330.396 133.738 330.832 133.246 331.106 132.755C331.269 132.427 331.215 132.372 331.16 132.208C330.996 131.608 330.723 131.061 330.341 130.515C330.068 130.679 330.013 130.788 329.959 130.843ZM254.365 132.755C254.091 133.028 253.764 133.301 253.436 133.629C253.108 133.847 252.999 134.011 253.163 134.339C253.327 134.666 253.545 134.994 253.764 135.376C253.928 135.649 254.201 135.704 254.419 135.54C254.583 135.486 254.747 135.322 254.856 135.158C254.965 134.994 255.238 134.612 255.457 134.339C255.566 134.229 255.512 134.065 255.402 133.902C255.184 133.465 254.911 133.028 254.528 132.645C254.474 132.645 254.419 132.7 254.365 132.755ZM184.615 150.124C175.766 150.124 168.557 157.334 168.557 166.182C168.557 175.03 175.766 182.24 184.615 182.24C193.463 182.24 200.673 175.03 200.673 166.182C200.673 157.334 193.463 150.124 184.615 150.124ZM184.615 173.61C180.518 173.61 177.132 170.278 177.132 166.127C177.132 162.031 180.464 158.644 184.615 158.644C188.711 158.644 192.098 161.976 192.098 166.127C192.098 170.278 188.766 173.61 184.615 173.61Z" fill="#87B9DD"/>
<path d="M177.515 185.9C172.108 191.908 164.242 195.731 155.503 195.731C139.172 195.731 125.899 182.459 125.899 166.127C125.899 149.796 139.172 136.523 155.503 136.523C164.242 136.523 172.053 140.292 177.515 146.355C173.801 147.721 170.578 150.069 168.175 153.073C164.898 149.905 160.419 147.939 155.503 147.939C145.453 147.939 137.315 156.077 137.315 166.127C137.315 176.123 145.453 184.316 155.503 184.316C160.419 184.316 164.898 182.35 168.175 179.182C170.578 182.24 173.801 184.589 177.515 185.9ZM237.542 150.342H223.013L225.144 151.872L221.812 165.417L218.043 150.342H203.405L206.081 152.254V180.001L203.405 181.913H216.24L214.274 180.492V161.867L221.375 181.967H222.139L229.295 161.922V180.547L227.274 182.022H240.219L237.542 180.056V150.342ZM274.356 161.266C274.356 169.077 267.747 171.863 261.52 171.863H255.731V180.001L258.407 181.967H244.479L247.155 180.001V152.309L244.479 150.342H262.831C270.478 150.342 274.356 154.056 274.356 161.266ZM265.835 160.939C265.835 157.17 263.159 156.897 260.21 156.897H255.731V165.363H260.373C263.76 165.363 265.835 164.598 265.835 160.939ZM305.817 180.001L308.494 181.913H295.439L297.078 180.711L295.931 176.942H285.225L284.078 180.656L285.717 181.858H272.608L275.285 179.892L285.553 152.199L282.877 150.288H294.839L305.817 180.001ZM293.855 170.661L290.414 159.573L287.192 170.661H293.855ZM112.736 180.001L115.412 181.913H102.358L103.997 180.711L102.849 176.942H92.0894L90.9423 180.656L92.5809 181.858H79.4722L82.1485 179.892L92.4171 152.199L89.7953 150.342H101.812L112.736 180.001ZM100.774 170.661L97.3329 159.573L94.1649 170.661H100.774ZM66.5819 175.085V150.342H55.3848L58.0611 152.309V180.001L55.3848 181.967H75.2118V172.409L73.3001 175.085H66.5819ZM373.218 150.342H362.349L365.025 152.309V167.93L354.757 150.342H343.887L346.564 152.309V180.001L343.887 181.967H356.832L354.811 180.492V164.707L364.206 180.602L362.349 181.967H375.949L373.218 180.001V150.342ZM423.141 157.17L424.616 159.191V150.342H398.343L401.02 152.309V180.001L398.343 181.967H424.561V172.354L422.595 175.03H409.486V168.585H418.444L419.918 170.606V159.901L418.444 161.922H409.486V157.17H423.141ZM391.352 150.342H380.155L382.831 152.309V180.001L380.155 181.967H394.028L391.352 180.001V150.342ZM338.535 164.325H324.115V170.825H329.249C327.665 174.594 324.716 174.594 323.514 174.594C318.38 174.594 316.577 170.115 316.577 165.964C316.577 161.266 319.636 157.552 323.733 157.334C326.518 157.17 328.812 158.098 330.724 160.065L329.905 162.741L331.816 161.321L338.48 156.46C334.766 151.38 329.358 148.758 323.35 149.086C314.829 149.578 308.384 156.787 308.384 165.964C308.384 175.904 314.611 182.841 323.569 182.841C325.59 182.841 329.249 182.404 332.089 178.963V181.967H340.61L338.589 180.492L338.535 164.325Z" fill="#4B4F54"/>
</svg>
