<svg width="480" height="320" viewBox="0 0 480 320" fill="none" xmlns="http://www.w3.org/2000/svg">
<path d="M111.698 210.534C111.529 210.464 111.519 210.435 111.645 210.385C111.732 210.35 112.633 210.02 113.648 209.65C115.694 208.904 117.689 208.073 119.191 207.341L120.18 206.858H267.445C393.693 206.858 414.709 206.879 414.709 207.005C414.709 207.255 413.242 210.364 413.059 210.504C412.921 210.608 382.635 210.633 262.397 210.627C179.628 210.624 111.813 210.581 111.698 210.534V210.534ZM80.5944 208.471C75.6929 208.033 72.557 207.221 68.6576 205.38C61.1476 201.834 56.5532 196.591 55.5658 190.441C55.3244 188.938 55.3244 186.627 55.5658 185.091C56.2985 180.423 57.8913 177.192 60.971 174.126C64.2727 170.839 68.8202 168.495 74.7926 167L76.0715 166.68H135.313L135.629 166.444C136.365 165.894 163.782 142.109 163.782 142.02C163.782 141.961 155.763 141.923 143.265 141.923C127.977 141.923 122.758 141.893 122.788 141.804C122.81 141.738 128.278 139.427 134.939 136.668L147.05 131.651L161.169 131.647L175.288 131.643L182.045 126.962C190.06 121.41 192.497 119.78 194.466 118.657C203.964 113.239 212.428 110.312 220.954 109.498C223.057 109.297 226.746 109.344 229.346 109.605C232.9 109.961 234.409 110.344 236.511 111.42C239.999 113.205 242.393 116.381 243.038 120.078C243.24 121.236 243.236 123.264 243.029 124.457C242.671 126.528 241.58 129.03 240.174 131.007C239.338 132.181 237.402 134.224 236.221 135.176C232.145 138.465 226.534 140.67 220.01 141.549C217.144 141.935 216.601 141.946 201.699 141.927L187.007 141.909L173.113 154.134C165.471 160.858 159.204 166.431 159.185 166.52C159.155 166.663 159.962 166.68 166.554 166.68H173.958L180.54 160.355C183.38 157.626 186.221 154.898 189.064 152.171C190.131 151.148 191.087 150.16 191.188 149.974C191.416 149.556 191.429 148.662 191.214 148.149C191.128 147.942 191.057 147.707 191.057 147.628C191.057 147.506 192.517 147.483 200.293 147.483C209.174 147.483 209.543 147.491 209.917 147.683C210.702 148.087 211.291 149.023 211.323 149.916C211.335 150.244 210.495 153.105 208.267 160.334C206.578 165.815 205.152 170.382 205.099 170.482C205.007 170.656 201.69 170.667 139.94 170.694L74.8771 170.722L73.8281 170.962C69.9278 171.855 66.5396 173.714 64.1446 176.274C63.137 177.351 63.1145 177.494 64.0346 176.968C67.3539 175.07 70.8458 173.94 74.405 173.611C75.7061 173.491 203.587 173.443 203.899 173.563C203.99 173.598 204.065 173.702 204.065 173.794C204.065 173.885 203.159 176.901 202.052 180.494C200.338 186.056 199.966 187.406 200.224 187.127C200.246 187.103 202.372 184.086 204.947 180.423C207.522 176.759 209.734 173.703 209.863 173.632C210.043 173.532 212.053 173.502 218.612 173.5C223.295 173.5 227.2 173.527 227.29 173.562C227.421 173.612 227.431 173.669 227.338 173.841C227.143 174.206 215.277 191.354 214.883 191.84C214.413 192.42 213.464 193.152 212.75 193.485L212.195 193.743L197.954 193.744C190.122 193.745 183.714 193.719 183.714 193.687C183.714 193.655 183.969 193.313 184.281 192.926C186.368 190.345 188.191 186.086 189.585 180.539C189.818 179.614 190.008 178.785 190.008 178.696C190.008 178.552 189.285 178.534 183.355 178.534H176.703L169.546 185.484C165.61 189.306 162.174 192.588 161.91 192.777C161.647 192.966 161.051 193.249 160.587 193.406L159.743 193.693L151.692 193.722C147.264 193.739 143.641 193.71 143.641 193.662C143.641 193.612 144.007 193.341 144.454 193.058C144.901 192.775 146.4 191.692 147.785 190.652C152.482 187.122 154.176 185.693 157.855 182.152C159.759 180.32 161.332 178.757 161.351 178.678C161.379 178.557 160.103 178.534 153.399 178.534H145.414L142.875 180.616C135.653 186.537 120.832 197.807 117.773 199.704C112.205 203.157 102.297 206.427 93.2353 207.802C89.9952 208.294 88.0131 208.447 84.4759 208.481C82.6009 208.499 80.8542 208.494 80.5946 208.471L80.5944 208.471ZM81.7482 200.032C83.3601 199.883 85.8905 199.444 87.5591 199.025C95.2363 197.096 105.174 191.483 116.104 182.905C118.235 181.231 121.192 178.749 121.192 178.633C121.192 178.569 111.837 178.542 95.5691 178.559L69.9465 178.587L68.907 178.938C66.1663 179.864 63.9411 181.283 62.7961 182.835C61.2099 184.985 60.4359 187.644 60.7662 189.807C61.0716 191.808 61.9362 193.428 63.6001 195.116C67.473 199.044 73.8243 200.765 81.7483 200.032H81.7482ZM193.97 166.549C194.149 166.327 196.835 158.773 196.795 158.604C196.752 158.425 188.749 166.326 188.749 166.547C188.749 166.739 193.815 166.741 193.97 166.549V166.549ZM221.426 131.338C228.543 130.387 234.481 126.897 236.637 122.396C237.201 121.22 237.284 120.686 237.066 119.655C236.507 117.016 234.696 115.249 231.812 114.524C230.99 114.318 230.596 114.287 228.769 114.285C226.495 114.284 225.578 114.397 223.185 114.975C219.728 115.81 215.108 118.352 208.625 122.986C204.921 125.634 197.771 131.206 197.771 131.445C197.771 131.603 220.203 131.502 221.426 131.339V131.338ZM124.889 204.002C124.913 203.93 125.99 203.092 127.284 202.139L129.636 200.407L273.563 200.382C352.722 200.368 417.552 200.397 417.629 200.446C417.737 200.514 417.584 200.929 416.944 202.306L416.12 204.078L270.483 204.104C155.069 204.125 124.855 204.103 124.889 204.001V204.002ZM235.586 193.614C235.349 192.966 229.346 173.872 229.346 173.766C229.346 173.689 229.421 173.598 229.512 173.563C229.776 173.462 261.063 173.492 261.224 173.594C261.334 173.663 259.869 175.877 254.995 183.007C251.489 188.134 248.474 192.488 248.294 192.683C248.114 192.877 247.638 193.196 247.235 193.391L246.504 193.746H241.069C236.816 193.746 235.623 193.717 235.586 193.614L235.586 193.614ZM272.514 193.488C270.641 193.053 268.782 192.269 267.232 191.258C266.321 190.664 264.693 188.984 264.205 188.133C263.15 186.296 262.863 185.004 262.947 182.474C263.014 180.431 263.218 179.298 263.871 177.346C264.482 175.518 265.469 173.675 265.898 173.56C266.194 173.481 280.585 173.483 280.793 173.563C280.884 173.599 280.959 173.67 280.959 173.721C280.959 173.773 279.972 175.225 278.767 176.948C277.561 178.672 276.516 180.191 276.444 180.325C276.257 180.675 276.184 182.302 276.335 182.76C276.661 183.748 278.405 184.619 280.055 184.619C280.746 184.619 282.033 184.297 282.706 183.956C284.403 183.095 287.082 180.346 289.242 177.25L289.809 176.437H296.969C301.012 176.437 304.155 176.478 304.187 176.53C304.219 176.581 303.73 177.301 303.102 178.13C299.527 182.846 295.742 186.754 292.22 189.364C290.07 190.956 287.991 192.034 285.409 192.894C282.855 193.744 282.828 193.747 277.895 193.739C273.75 193.732 273.518 193.721 272.514 193.488V193.488ZM288.932 193.67C288.932 193.625 289.373 193.364 289.912 193.089C291.692 192.184 294.545 190.17 298.226 187.221C299.731 186.015 301.224 184.609 306.211 179.697C309.585 176.375 312.423 173.624 312.518 173.585C312.733 173.497 348.75 173.475 348.979 173.563C349.071 173.598 349.145 173.702 349.145 173.794C349.145 173.886 348.239 176.901 347.132 180.494C345.419 186.052 345.045 187.41 345.304 187.128C345.326 187.104 347.433 184.11 349.985 180.475C352.538 176.841 354.72 173.784 354.835 173.683C355.029 173.511 355.571 173.499 362.995 173.499C367.369 173.499 371.022 173.528 371.114 173.563C371.205 173.598 371.28 173.669 371.28 173.721C371.28 173.836 359.627 191.327 359.173 191.894C358.764 192.404 357.75 193.175 357.066 193.497L356.541 193.743L342.668 193.745C335.037 193.745 328.794 193.719 328.794 193.687C328.794 193.655 329.05 193.313 329.362 192.927C331.487 190.297 333.316 185.983 334.732 180.265C334.989 179.227 335.21 178.165 335.222 177.905L335.246 177.433L334.564 177.44C334.189 177.443 331.357 177.51 328.271 177.588L322.661 177.73L321.82 178.525C321.358 178.963 317.94 182.271 314.226 185.878C310.511 189.484 307.256 192.589 306.992 192.778C306.728 192.967 306.132 193.25 305.668 193.407L304.824 193.694L296.878 193.723C292.507 193.74 288.931 193.716 288.932 193.67L288.932 193.67ZM362.153 193.653C362.153 193.602 362.301 193.5 362.482 193.425C362.663 193.35 362.945 193.175 363.109 193.037C363.274 192.899 366.408 188.475 370.075 183.206C374.703 176.556 376.813 173.607 376.974 173.564C377.394 173.451 415.169 173.494 415.339 173.607C415.467 173.692 415.327 173.877 414.585 174.6C413.029 176.116 411.267 177.114 409.251 177.621C408.712 177.757 408.252 177.923 408.229 177.991C408.132 178.284 413.172 187.527 414.503 189.496C415.405 190.831 417.95 193.113 418.91 193.448C419.081 193.507 419.22 193.599 419.22 193.651C419.22 193.706 415.646 193.745 410.58 193.745H401.939L401.206 193.378C400.803 193.177 400.265 192.829 400.012 192.606C399.717 192.346 397.853 189.723 394.83 185.314C392.234 181.527 390.052 178.44 389.982 178.455C389.913 178.47 387.801 181.479 385.289 185.143C380.421 192.246 379.935 192.861 378.729 193.463L378.162 193.745H370.158C365.628 193.745 362.153 193.705 362.153 193.653V193.653ZM211.996 170.58C211.967 170.533 215.245 165.804 219.281 160.073C224.705 152.369 226.619 149.576 226.619 149.362C226.619 149.202 226.453 148.755 226.252 148.368C226.05 147.98 225.885 147.623 225.885 147.573C225.885 147.443 238.016 147.46 238.489 147.591C238.943 147.717 239.642 148.365 239.928 148.924C240.178 149.416 245.633 170.341 245.56 170.531C245.518 170.641 242.376 170.667 228.779 170.667C219.578 170.667 212.026 170.628 211.996 170.58H211.996ZM246.713 170.57C246.68 170.517 249.873 165.832 253.809 160.159C259.441 152.038 260.973 149.763 261.005 149.464C261.056 148.995 260.861 148.607 260.301 148.065C260.066 147.837 259.873 147.613 259.873 147.567C259.873 147.521 263.678 147.483 268.328 147.483H276.783L277.154 147.853C277.523 148.223 277.524 148.226 277.47 148.981C277.441 149.398 277.314 149.998 277.189 150.315C277.001 150.791 273.235 156.364 263.845 170.063L263.432 170.667H255.102C250.145 170.667 246.748 170.628 246.713 170.57ZM267.636 170.555C267.636 170.258 272.967 162.229 275.258 159.075C278.269 154.93 280.021 152.961 281.727 151.804C285.515 149.235 289.408 147.478 292.468 146.954C293.571 146.766 294.189 146.749 299.773 146.749C306.336 146.75 306.814 146.78 308.956 147.323C312.734 148.28 315.287 149.981 316.481 152.335C316.621 152.61 316.835 153.247 316.958 153.752C317.247 154.94 317.274 157.349 317.015 158.77C316.718 160.395 316.033 162.106 315.286 163.087L315.027 163.428H307.958C302.685 163.428 300.89 163.397 300.89 163.307C300.89 163.24 301.489 162.261 302.221 161.13C302.953 160 303.693 158.802 303.865 158.47L304.179 157.864L304 157.298C303.768 156.56 303.055 155.765 302.293 155.392C301.582 155.044 300.602 154.96 299.197 155.126C296.436 155.452 294.185 156.444 292.5 158.078C291.576 158.973 290.009 161.042 286.263 166.313C284.828 168.332 283.54 170.138 283.402 170.325L283.151 170.667H275.393C269.982 170.667 267.636 170.633 267.636 170.555V170.555ZM315.576 170.572C315.576 170.52 320.191 165.939 325.831 160.391C331.47 154.844 336.167 150.155 336.268 149.971C336.496 149.557 336.509 148.662 336.295 148.149C336.208 147.942 336.137 147.707 336.137 147.628C336.137 147.506 337.597 147.483 345.373 147.483C354.255 147.483 354.624 147.491 354.998 147.683C355.783 148.087 356.372 149.022 356.404 149.916C356.415 150.244 355.576 153.105 353.348 160.334C351.658 165.815 350.232 170.382 350.179 170.483C350.087 170.657 349.154 170.667 332.829 170.667C322.63 170.667 315.576 170.628 315.576 170.572ZM339.051 166.549C339.232 166.326 341.929 158.72 341.876 158.578C341.82 158.427 333.829 166.34 333.829 166.547C333.829 166.739 338.895 166.741 339.051 166.549V166.549ZM357.077 170.58C357.047 170.533 360.325 165.804 364.361 160.072C369.786 152.368 371.699 149.576 371.699 149.361C371.699 149.202 371.534 148.755 371.332 148.368C371.13 147.98 370.965 147.621 370.965 147.57C370.965 147.517 374.208 147.49 378.544 147.507C385.726 147.534 386.144 147.546 386.522 147.733C386.74 147.842 386.996 148.078 387.089 148.258C387.311 148.687 387.287 149.465 387.034 150.025C386.922 150.271 383.806 155.016 380.108 160.57L373.386 170.667H365.258C360.788 170.667 357.106 170.628 357.077 170.58ZM378.995 170.57C378.962 170.516 382.25 165.713 386.303 159.896C393.093 150.148 393.673 149.281 393.709 148.839C393.731 148.554 393.679 148.196 393.58 147.961C393.489 147.742 393.414 147.545 393.414 147.523C393.414 147.501 398.366 147.483 404.417 147.483H415.421L416.402 147.742C418.95 148.413 420.783 149.442 422.295 151.05C424.398 153.284 425.171 157.089 424.202 160.432C423.555 162.664 422.036 165.258 419.038 169.251L418.014 170.614L398.534 170.641C386.617 170.658 379.032 170.629 378.995 170.57L378.995 170.57ZM403.373 166.048C405.444 165.865 406.518 165.514 407.581 164.673C408.351 164.065 408.967 163.166 409.86 161.345C410.98 159.064 410.997 158.495 409.961 157.954C409.548 157.738 409.307 157.715 406.493 157.625C404.774 157.57 403.43 157.568 403.381 157.62C403.16 157.85 398.345 165.76 398.345 165.892C398.345 166.003 398.527 166.051 399.053 166.078C400.627 166.16 402.237 166.149 403.373 166.048H403.373Z" fill="#030303"/>
</svg>
