<svg width="480" height="320" viewBox="0 0 480 320" fill="none" xmlns="http://www.w3.org/2000/svg">
<path d="M60.6419 131.144L82.4042 139.034C88.1043 136.976 94.0797 134.802 99.5933 132.804C83.4967 126.973 64.2969 120.013 58.0908 117.708C56.5825 117.162 55.3848 116.538 55.3848 118.14V124.421C55.3848 127.981 57.261 129.859 60.6419 131.144M55.4263 146.755C55.4994 148.274 56.1364 148.466 57.7558 147.979C58.5269 147.701 59.6799 147.286 61.1282 146.755C61.4893 146.623 61.8685 146.483 62.2649 146.338L62.2694 146.343C64.7235 145.451 67.8498 144.312 71.3743 143.036C65.6269 140.937 60.3042 139.027 57.3928 137.948C56.0931 137.462 55.4245 137.806 55.4245 139.303V145.258L55.4263 146.755ZM110.639 149.274C116.316 147.219 120.531 145.68 121.277 145.41C125.422 143.908 126.121 142.426 124.295 141.774C124.387 141.796 124.462 141.831 124.549 141.859C124.368 141.773 124.181 141.698 123.99 141.635C123.391 141.409 120.73 140.45 116.796 139.03C111.058 141.104 105.322 143.185 99.5879 145.271L110.639 149.274ZM110.603 128.811L77.464 117.014C74.0871 115.75 72.2131 113.852 72.2131 110.297V104.023C72.2131 102.405 73.4153 103.031 74.9092 103.588C85.9382 107.656 121.043 120.116 123.989 121.182C124.369 121.322 124.682 121.471 124.931 121.632C125.907 122.386 124.837 123.645 121.275 124.942C120.619 125.181 116.488 126.67 110.603 128.811Z" fill="#ED1650"/>
<path d="M124.301 121.305C126.211 121.983 125.422 123.432 121.278 124.942C119.106 125.729 77.6098 140.771 62.273 146.344V146.339C61.8685 146.484 61.4893 146.623 61.1263 146.75C59.6817 147.285 58.5269 147.701 57.7562 147.98C56.1364 148.467 55.5008 148.276 55.42 146.75C55.42 147.701 55.3884 149.61 57.0443 150.211L70.5721 155.129C70.5721 155.129 71.5292 155.436 72.4434 155.115C73.6569 154.69 123.541 136.577 123.541 136.577C125.978 135.677 126.123 133.625 126.123 127.709C126.123 122.19 126.123 121.951 124.301 121.307M99.5102 178.529C99.5102 175.931 99.7919 173.697 97.4778 174.538L72.0122 183.771V196.125L96.908 187.154C99.3576 186.265 99.5107 184.546 99.5107 181.944L99.5102 178.529ZM83.9848 204.558C83.9848 201.95 84.2768 199.734 81.9532 200.556L72.0118 204.191V216.56L81.3812 213.194C83.8353 212.294 83.9852 210.572 83.9852 207.97L83.9848 204.558ZM123.541 157.052L71.9987 175.756V163.293C71.9987 163.293 118.612 146.382 121.278 145.411C125.422 143.899 126.123 142.429 124.301 141.775C126.156 142.441 126.123 142.656 126.123 148.189C126.123 154.088 125.978 156.152 123.541 157.052ZM236.307 163.168H248.673L229.414 125.162C228.401 123.294 227.409 122.569 225.1 122.569H214.461L194.193 163.168H206.554L210.153 155.68H232.864L236.307 163.168ZM337.649 163.168H349.866L330.599 125.162C329.6 123.294 328.592 122.569 326.305 122.569H315.658L295.387 163.168H307.757L311.347 155.68H334.061L337.649 163.168ZM381.204 153.234C381.638 154.677 383.37 155.68 385.23 155.68H396.876L405.5 131.786L413.692 163.167H424.616L415.557 127.174C414.707 123.582 412.692 122.569 409.39 122.569H398.027L389.83 146.323L383.37 126.159C382.499 123.582 380.909 122.569 378.322 122.569H365.539L355.044 163.168H366.116L374.165 131.786L381.204 153.234ZM330.037 147.475H314.937L322.562 131.213L330.037 147.475ZM228.833 147.475H213.75L221.364 131.213L228.833 147.475ZM185.576 163.168L190.174 153.813H162.998V122.569H151.356V163.168H185.576ZM266.356 163.168H277.563V131.925L297.123 130.631V122.569H246.806V130.631L266.356 131.925V163.168ZM181.52 184.869L180.224 188.252C180.224 188.252 176.031 186.059 169.975 186.059C162.057 186.059 154.429 190.745 154.429 199.961C154.429 208.982 161.91 213.381 170.117 213.381C176.515 213.381 180.803 210.992 180.803 210.992L181.95 214.384C181.95 214.384 177.038 216.961 169.934 216.961C159.152 216.961 150.424 211.084 150.424 199.961C150.424 188.687 159.297 182.474 169.784 182.474C176.656 182.474 181.52 184.869 181.52 184.869ZM208.234 186.389L199.366 203.733H217.149L208.234 186.389ZM219.016 207.313H197.559L192.88 216.432H188.64L205.992 182.995H208.573C209.903 182.995 210.666 183.426 211.236 184.527L227.936 216.432H223.687L219.016 207.313ZM266.144 193.79C266.144 190.074 263.472 186.581 255.894 186.581H242.391V200.193C245.117 201.394 248.879 202.295 252.695 202.295C262.62 202.295 266.144 198.424 266.144 193.79ZM242.391 203.869V216.433H238.447V182.996H256.275C265.189 182.996 270.051 187.294 270.051 193.652C270.051 198.664 267.329 202.494 262.042 204.444L269.818 216.433H265.093L257.991 205.495C256.271 205.752 254.533 205.882 252.793 205.882C248.836 205.882 244.827 205.066 242.391 203.869ZM298.392 216.962C287.619 216.962 278.893 211.085 278.893 199.96C278.893 188.686 287.906 182.475 298.538 182.475C305.834 182.475 311.136 184.87 311.136 184.87L309.938 188.063C309.938 188.063 305.456 186.06 298.731 186.06C290.67 186.06 282.897 190.744 282.897 199.96C282.897 208.981 290.385 213.382 298.587 213.382C302.265 213.382 305.31 212.614 307.7 211.751V200.58H311.512V214.099C311.512 214.099 306.028 216.962 298.392 216.962ZM325.975 199.58C325.975 207.696 331.414 213.421 340.324 213.421C349.248 213.421 354.642 207.696 354.642 199.58C354.642 191.542 349.248 186.007 340.324 186.007C331.414 186.007 325.975 191.542 325.975 199.58ZM358.597 199.58C358.597 209.08 352.01 217.011 340.324 217.011C328.503 217.011 322.019 209.08 322.019 199.58C322.019 190.218 328.55 182.427 340.324 182.427C352.01 182.427 358.597 190.218 358.597 199.58Z" fill="#1B0088"/>
</svg>
