<svg width="480" height="320" viewBox="0 0 480 320" fill="none" xmlns="http://www.w3.org/2000/svg">
<path d="M150.424 90.7747V119.717L138.386 136.078H150.424V178.154H55.3848L119.075 90.6484L150.424 90.7747Z" fill="#DEBB5C"/>
<path fill-rule="evenodd" clip-rule="evenodd" d="M299.632 157.124H309.445V136.07H299.632C297.297 136.07 290.781 138.586 290.781 146.601C290.781 154.615 297.297 157.124 299.632 157.124ZM331.919 178.154H299.402C285.543 178.154 268.322 167.513 268.322 146.601C268.322 125.736 285.543 115.039 299.402 115.039H309.452V99.5H331.919V178.154L331.919 178.154Z" fill="#DEBB5C"/>
<path d="M370.603 136.079L333.551 136.119L349.02 115.041H374.91C384.218 115.041 392.596 123.426 392.596 132.726V136.079H424.614L409.114 157.117H392.596V178.156H350.33C340.596 178.156 329.773 170.204 329.773 157.125C329.773 144.046 340.596 136.079 350.33 136.079H370.603H370.603ZM189.123 136.079L152.064 136.119L167.533 115.041H193.422C202.731 115.041 211.116 123.426 211.116 132.726V178.156H168.842C159.108 178.156 148.285 170.204 148.285 157.125C148.285 144.046 159.108 136.079 168.842 136.079H189.123Z" fill="#DEBB5C"/>
<path d="M270.46 178.156H231.965C220.834 178.156 209.443 168.098 209.443 154.727V115.041H231.917V155.216C231.917 156.084 232.257 157.125 234.599 157.125H247.994V115.041H270.46V178.156H270.46Z" fill="#DEBB5C"/>
<path d="M267.116 118.385V174.811H231.965C222.641 174.811 212.788 166.204 212.788 154.727V118.385H228.565V155.208C228.565 158.071 230.561 160.469 234.6 160.469H251.339V118.385H267.116L267.116 118.385ZM147.078 174.811H61.9629L120.786 93.9943H138.953L90.1799 160.478H147.078V174.811Z" fill="#BA282E"/>
<path d="M103.322 153.773L147.078 93.9941V118.622L131.783 139.431H147.078V153.772H103.322V153.773Z" fill="#BA282E"/>
<path fill-rule="evenodd" clip-rule="evenodd" d="M168.836 139.432H192.461V136.316C192.461 133.689 190.844 132.727 189.117 132.727H158.691L169.222 118.394H193.416C200.886 118.394 207.764 125.28 207.764 132.727V174.811H168.836C160.711 174.811 151.623 168.114 151.623 157.126C151.631 146.121 160.71 139.432 168.836 139.432ZM169.798 153.773H192.461V160.479H169.798C167.4 160.479 165.972 159.035 165.972 157.126C165.972 155.217 167.408 153.773 169.798 153.773M351.286 153.773H373.949V160.478H351.286C348.896 160.478 347.46 159.034 347.46 157.126C347.46 155.217 348.887 153.773 351.286 153.773M389.26 153.773V174.811H350.331C342.198 174.811 333.111 168.114 333.111 157.126C333.111 146.113 342.198 139.432 350.331 139.432H373.949V136.316C373.949 133.689 372.332 132.727 370.612 132.727H340.186L350.709 118.394H374.911C382.373 118.394 389.26 125.28 389.26 132.727V139.432H417.997L407.419 153.773H389.26H389.26ZM328.567 102.846V174.811H299.396C286.956 174.811 271.653 165.275 271.653 146.603C271.653 127.978 286.956 118.386 299.396 118.386H312.783V102.846H328.567V102.846ZM312.783 160.47H299.64C296.044 160.47 287.437 157.007 287.437 146.603C287.437 136.198 296.043 132.727 299.64 132.727H312.783V160.47Z" fill="#BA282E"/>
<path d="M247.695 217.117C247.632 216.77 247.695 216.423 245.857 216.557C244.011 216.699 221.632 218.537 218.713 218.537C218.342 218.537 216.764 218.655 216.899 219.357C217.033 220.051 217.94 220.091 218.208 220.138C218.476 220.162 221.253 220.47 222.034 221.164C223.249 222.252 221.734 225.289 219.667 226.757C215.794 229.525 217.798 229.675 218.823 229.044C224.053 225.833 233.235 221.59 246.149 218.198C246.149 218.182 247.821 217.811 247.695 217.117Z" fill="white"/>
<path d="M218.871 218.568C218.508 218.568 216.939 218.678 217.073 219.356C217.206 220.043 218.13 220.098 218.39 220.129C218.65 220.169 221.403 220.453 222.168 221.155C223.351 222.244 221.829 225.225 219.794 226.685C216.007 229.39 217.979 229.525 219.005 228.893C224.085 225.77 233.212 221.558 245.999 218.213C245.999 218.213 247.663 217.826 247.537 217.148C247.474 216.808 247.537 216.47 245.723 216.611C243.885 216.737 221.758 218.567 218.871 218.567" fill="#FCFCFC"/>
<path d="M219.022 218.591C218.658 218.591 217.105 218.71 217.239 219.38C217.365 220.042 218.296 220.097 218.556 220.129C218.824 220.153 221.554 220.445 222.287 221.139C223.439 222.228 221.924 225.178 219.905 226.614C216.221 229.248 218.162 229.382 219.164 228.767C224.109 225.73 233.173 221.526 245.834 218.204C245.834 218.204 247.498 217.826 247.38 217.171C247.309 216.832 247.372 216.508 245.566 216.642C243.759 216.784 221.885 218.591 219.021 218.591" fill="#FAFBFB"/>
<path d="M219.17 218.631C218.807 218.631 217.269 218.733 217.403 219.388C217.521 220.042 218.476 220.082 218.736 220.121C218.989 220.153 221.694 220.437 222.412 221.131C223.532 222.228 222.025 225.115 220.022 226.55C216.433 229.122 218.334 229.256 219.336 228.641C224.14 225.714 233.14 221.517 245.675 218.228C245.675 218.228 247.332 217.85 247.213 217.211C247.15 216.879 247.205 216.572 245.422 216.713C243.624 216.824 222.01 218.631 219.17 218.631" fill="#F8F8F9"/>
<path d="M219.321 218.655C218.966 218.655 217.444 218.765 217.57 219.404C217.696 220.043 218.658 220.082 218.911 220.122C219.163 220.154 221.845 220.422 222.54 221.132C223.628 222.228 222.121 225.06 220.142 226.48C216.647 228.981 218.508 229.115 219.503 228.515C224.156 225.675 233.102 221.494 245.518 218.237C245.518 218.237 247.175 217.866 247.049 217.235C246.986 216.911 247.033 216.62 245.274 216.738C243.499 216.88 222.137 218.655 219.321 218.655Z" fill="#F6F6F7"/>
<path d="M219.47 218.686C219.114 218.686 217.608 218.797 217.734 219.428C217.853 220.043 218.823 220.083 219.083 220.114C219.335 220.146 221.994 220.422 222.664 221.124C223.714 222.213 222.215 225.005 220.25 226.409C216.858 228.855 218.689 228.981 219.667 228.381C224.179 225.636 233.061 221.471 245.359 218.244C245.359 218.244 247 217.866 246.882 217.266C246.826 216.943 246.874 216.667 245.123 216.793C243.371 216.927 222.254 218.687 219.47 218.687" fill="#F5F6F6"/>
<path d="M219.62 218.726C219.273 218.726 217.79 218.82 217.9 219.443C218.019 220.043 219.005 220.075 219.257 220.114C219.51 220.138 222.145 220.422 222.792 221.116C223.809 222.204 222.31 224.95 220.377 226.338C217.072 228.712 218.871 228.839 219.841 228.247C224.219 225.597 233.038 221.439 245.202 218.244C245.202 218.244 246.843 217.866 246.725 217.282C246.662 216.959 246.709 216.714 244.981 216.841C243.238 216.974 222.381 218.726 219.62 218.726Z" fill="#F3F4F4"/>
<path d="M219.779 218.748C219.432 218.748 217.957 218.85 218.075 219.458C218.186 220.041 219.18 220.065 219.432 220.097C219.676 220.137 222.295 220.405 222.919 221.107C223.897 222.211 222.406 224.893 220.497 226.266C217.286 228.585 219.045 228.695 220.008 228.104C224.236 225.548 233 221.415 245.046 218.267C245.046 218.267 246.67 217.872 246.56 217.32C246.497 216.997 246.544 216.76 244.841 216.879C243.113 217.012 222.509 218.748 219.779 218.748" fill="#F2F2F3"/>
<path d="M219.929 218.788C219.582 218.788 218.122 218.883 218.233 219.467C218.351 220.042 219.361 220.066 219.613 220.106C219.85 220.13 222.437 220.397 223.044 221.099C223.991 222.196 222.508 224.846 220.607 226.196C217.491 228.443 219.226 228.554 220.173 227.986C224.259 225.517 232.968 221.391 244.879 218.275C244.879 218.275 246.505 217.905 246.394 217.352C246.331 217.037 246.378 216.832 244.682 216.942C242.986 217.06 222.626 218.788 219.929 218.788Z" fill="#F1F1F2"/>
<path d="M220.079 218.812C219.739 218.812 218.288 218.898 218.399 219.474C218.517 220.034 219.542 220.066 219.779 220.097C220.023 220.121 222.587 220.397 223.171 221.092C224.078 222.188 222.595 224.776 220.725 226.14C217.704 228.31 219.401 228.42 220.347 227.852C224.283 225.47 232.929 221.384 244.722 218.275C244.722 218.275 246.347 217.905 246.236 217.384C246.173 217.069 246.221 216.871 244.54 216.982C242.86 217.116 222.76 218.812 220.079 218.812Z" fill="#EFF0F0"/>
<path d="M220.227 218.836C219.896 218.836 218.46 218.939 218.57 219.491C218.673 220.035 219.714 220.051 219.959 220.091C220.196 220.122 222.736 220.382 223.296 221.084C224.171 222.181 222.696 224.721 220.842 226.062C217.916 228.184 219.581 228.271 220.511 227.71C224.305 225.431 232.896 221.345 244.563 218.292C244.563 218.292 246.172 217.905 246.077 217.408C246.014 217.101 246.053 216.911 244.389 217.038C242.725 217.156 222.878 218.836 220.227 218.836Z" fill="#EEEFF0"/>
<path d="M220.377 218.875C220.046 218.875 218.626 218.962 218.728 219.514C218.838 220.035 219.888 220.05 220.125 220.082C220.361 220.106 222.877 220.374 223.414 221.068C224.266 222.173 222.782 224.657 220.952 225.991C218.129 228.05 219.753 228.129 220.685 227.576C224.337 225.399 232.856 221.32 244.397 218.291C244.397 218.291 246.006 217.913 245.911 217.424C245.848 217.124 245.88 216.95 244.239 217.069C242.598 217.211 222.996 218.875 220.377 218.875Z" fill="#EDEDEE"/>
<path d="M220.535 218.907C220.211 218.907 218.799 218.986 218.902 219.53C219.012 220.035 220.069 220.043 220.306 220.082C220.543 220.114 223.027 220.366 223.548 221.068C224.36 222.173 222.885 224.61 221.079 225.919C218.342 227.915 219.935 228.002 220.858 227.442C224.36 225.344 232.833 221.289 244.247 218.3C244.247 218.3 245.849 217.929 245.754 217.463C245.691 217.155 245.722 216.998 244.105 217.132C242.472 217.25 223.122 218.906 220.535 218.906" fill="#EBECED"/>
<path d="M220.694 218.93C220.362 218.93 218.966 219.025 219.077 219.546C219.171 220.042 220.252 220.042 220.488 220.082C220.717 220.106 223.178 220.366 223.676 221.068C224.456 222.165 222.989 224.555 221.198 225.848C218.556 227.773 220.118 227.86 221.033 227.316C224.393 225.32 232.802 221.281 244.098 218.314C244.098 218.314 245.684 217.937 245.589 217.495C245.534 217.187 245.566 217.06 243.957 217.179C242.339 217.297 223.25 218.93 220.694 218.93Z" fill="#EAEBEC"/>
<path d="M220.843 218.969C220.527 218.969 219.139 219.048 219.242 219.553C219.345 220.042 220.433 220.05 220.662 220.065C220.89 220.105 223.328 220.357 223.801 221.052C224.551 222.148 223.084 224.507 221.316 225.8C218.777 227.647 220.299 227.717 221.198 227.197C224.417 225.28 232.763 221.257 243.941 218.33C243.941 218.33 245.526 217.96 245.431 217.518C245.368 217.218 245.4 217.107 243.814 217.218C242.213 217.344 223.375 218.969 220.843 218.969Z" fill="#E9E9EA"/>
<path d="M220.993 219C220.678 219 219.313 219.071 219.416 219.568C219.503 220.042 220.599 220.042 220.836 220.066C221.057 220.097 223.47 220.349 223.928 221.044C224.646 222.148 223.178 224.443 221.435 225.721C218.982 227.504 220.473 227.575 221.364 227.054C224.44 225.248 232.731 221.233 243.767 218.338C243.767 218.338 245.36 217.959 245.266 217.549C245.203 217.257 245.235 217.154 243.664 217.273C242.087 217.391 223.494 219 220.993 219Z" fill="#E7E8E9"/>
<path d="M221.143 219.033C220.827 219.033 219.478 219.112 219.573 219.585C219.66 220.042 220.78 220.042 221.001 220.082C221.23 220.106 223.62 220.35 224.054 221.052C224.732 222.157 223.273 224.397 221.545 225.659C219.194 227.386 220.646 227.457 221.529 226.937C224.464 225.202 232.691 221.21 243.609 218.362C243.609 218.362 245.187 217.976 245.1 217.581C245.045 217.29 245.068 217.202 243.514 217.321C241.952 217.447 223.612 219.033 221.143 219.033Z" fill="#E6E7E8"/>
<path d="M221.301 219.065C220.986 219.065 219.653 219.136 219.747 219.609C219.834 220.043 220.954 220.043 221.183 220.066C221.404 220.106 223.778 220.343 224.189 221.037C224.828 222.141 223.376 224.342 221.672 225.589C219.408 227.245 220.828 227.308 221.704 226.795C224.496 225.163 232.669 221.187 243.46 218.37L244.951 217.613C244.88 217.329 244.903 217.25 243.373 217.377C241.827 217.487 223.747 219.065 221.301 219.065Z" fill="#E4E5E6"/>
<path d="M221.442 219.097C221.135 219.097 219.81 219.176 219.912 219.617C219.991 220.043 221.127 220.035 221.348 220.067C221.576 220.091 223.919 220.327 224.306 221.029C224.913 222.15 223.462 224.287 221.79 225.525C219.62 227.119 221 227.166 221.869 226.669C224.511 225.139 232.62 221.179 243.293 218.371L244.776 217.645C244.713 217.361 244.736 217.314 243.214 217.424C241.708 217.543 223.856 219.097 221.442 219.097Z" fill="#E3E4E5"/>
<path d="M221.601 219.128C221.294 219.128 219.984 219.199 220.079 219.632C220.166 220.043 221.31 220.035 221.53 220.066C221.744 220.098 224.07 220.327 224.433 221.037C225.009 222.141 223.566 224.223 221.901 225.462C219.827 226.985 221.183 227.032 222.035 226.535C224.536 225.092 232.59 221.155 243.137 218.394L244.62 217.676C244.556 217.392 244.572 217.369 243.073 217.487C241.575 217.582 223.984 219.127 221.601 219.127" fill="#E2E3E4"/>
<path d="M221.759 219.15C221.451 219.15 220.165 219.214 220.252 219.648L221.703 220.05C221.924 220.081 224.228 220.318 224.567 221.012C225.103 222.117 223.66 224.159 222.027 225.382C220.047 226.85 221.372 226.889 222.208 226.4C224.567 225.035 232.566 221.115 242.986 218.385L244.461 217.691C244.398 217.415 244.414 217.407 242.939 217.518C241.44 217.636 224.117 219.15 221.759 219.15Z" fill="#E0E1E2"/>
<path d="M221.909 219.191C221.609 219.191 220.331 219.254 220.418 219.664L221.878 220.05C222.09 220.074 224.362 220.311 224.686 221.013C225.191 222.125 223.763 224.121 222.146 225.327C220.26 226.716 221.546 226.763 222.383 226.274C224.591 225.012 232.527 221.108 242.821 218.41L244.304 217.731C244.233 217.455 244.249 217.463 242.79 217.565C241.314 217.676 224.236 219.191 221.909 219.191Z" fill="#DEE0E1"/>
<path d="M222.057 219.215C221.766 219.215 220.496 219.278 220.582 219.68L222.05 220.051C222.271 220.075 224.519 220.303 224.818 220.998C225.292 222.125 223.856 224.074 222.255 225.257C220.464 226.582 221.718 226.614 222.547 226.141C224.613 224.965 232.502 221.077 242.67 218.418L244.137 217.747C244.082 217.495 244.082 217.519 242.646 217.613C241.187 217.723 224.361 219.215 222.057 219.215Z" fill="#DEDFE0"/>
<path d="M222.207 219.245L220.748 219.695L222.223 220.049C222.436 220.081 224.66 220.302 224.936 221.004C225.386 222.109 223.951 224.01 222.373 225.185C220.684 226.439 221.892 226.479 222.712 226.005C224.637 224.901 232.462 221.051 242.504 218.417L243.971 217.778C243.916 217.517 243.924 217.549 242.488 217.651C241.052 217.754 224.479 219.245 222.207 219.245Z" fill="#DCDDDE"/>
<path d="M222.358 219.285L220.914 219.711L222.405 220.042C222.602 220.066 224.803 220.295 225.063 220.997C225.465 222.109 224.046 223.955 222.492 225.115C220.89 226.313 222.073 226.329 222.886 225.879C224.661 224.886 232.423 221.036 242.339 218.433L243.806 217.809C243.751 217.557 243.751 217.621 242.339 217.707C240.927 217.817 224.614 219.285 222.358 219.285Z" fill="#DBDCDE"/>
<path d="M222.516 219.309L221.08 219.727L222.579 220.042C222.776 220.066 224.953 220.287 225.19 220.981C225.561 222.109 224.149 223.892 222.611 225.06C221.104 226.187 222.248 226.211 223.052 225.754C224.677 224.846 232.392 221.013 242.189 218.449L243.649 217.85C243.578 217.597 243.586 217.668 242.198 217.763C240.793 217.865 224.725 219.309 222.516 219.309Z" fill="#D9DBDC"/>
<path d="M222.666 219.341L221.254 219.751L222.753 220.035C222.95 220.067 225.104 220.28 225.316 220.974C225.656 222.094 224.244 223.845 222.729 224.989C221.317 226.054 222.43 226.062 223.226 225.62C224.701 224.792 232.361 220.99 242.024 218.465L243.483 217.874C243.42 217.629 243.428 217.708 242.056 217.819C240.675 217.913 224.859 219.341 222.666 219.341" fill="#D8D9DB"/>
<path d="M222.824 219.38L221.428 219.767L222.934 220.035C223.132 220.059 225.262 220.271 225.443 220.974C225.75 222.094 224.339 223.782 222.848 224.918C221.53 225.912 222.619 225.919 223.4 225.478C224.733 224.752 232.329 220.974 241.874 218.465L243.334 217.889C243.263 217.652 243.263 217.755 241.913 217.85C240.541 217.96 224.978 219.38 222.824 219.38Z" fill="#D7D8DA"/>
<path d="M222.973 219.403L221.592 219.766L223.107 220.034C223.296 220.057 225.402 220.27 225.575 220.965C225.844 222.085 224.432 223.725 222.964 224.846C221.742 225.784 222.783 225.777 223.564 225.351C224.755 224.703 232.297 220.933 241.715 218.464L243.167 217.928C243.103 217.683 243.103 217.801 241.762 217.904C240.414 218.007 225.102 219.403 222.973 219.403Z" fill="#D5D7D8"/>
<path d="M223.122 219.442L221.758 219.789L223.272 220.018C223.47 220.05 225.552 220.263 225.694 220.957C225.938 222.085 224.527 223.663 223.083 224.775C221.955 225.635 222.965 225.627 223.73 225.216C224.771 224.665 232.257 220.925 241.558 218.48L243.001 217.951C242.93 217.715 242.93 217.865 241.613 217.951C240.288 218.046 225.229 219.442 223.122 219.442Z" fill="#D4D5D7"/>
<path d="M223.273 219.467L221.924 219.798L223.454 220.019C223.644 220.042 225.702 220.24 225.821 220.95C226.018 222.07 224.622 223.608 223.202 224.704C222.169 225.509 223.139 225.493 223.904 225.091C224.795 224.61 232.226 220.894 241.4 218.496L242.844 217.992C242.773 217.755 242.773 217.905 241.463 218.007C240.154 218.102 225.347 219.466 223.273 219.466" fill="#D3D4D6"/>
<path d="M242.679 218.014C242.616 217.793 242.608 217.951 241.322 218.046C240.028 218.149 225.474 219.505 223.431 219.505L222.09 219.829L223.628 220.01C223.817 220.042 225.845 220.247 225.955 220.941C226.121 222.069 224.725 223.56 223.32 224.641C222.382 225.39 223.32 225.358 224.07 224.956C224.819 224.57 232.187 220.87 241.235 218.519L242.679 218.014Z" fill="#D1D3D4"/>
<path d="M62.0267 203.391C63.8412 203.438 65.4267 203.462 67.1385 203.462H72.037C73.7493 203.462 75.3343 203.438 77.1565 203.391L77.2986 207.193H76.707L76.683 206.941C76.5415 205.418 76.0288 204.164 73.1337 204.164H72.1317C70.8538 204.164 70.8538 204.377 70.8538 204.842V215.934C70.8538 218.008 70.8853 218.971 73.094 219.168L73.6225 219.215V219.775C71.7376 219.689 70.9566 219.689 70.4439 219.689H68.7317C68.2194 219.689 67.4307 219.689 65.5449 219.775V219.223L66.0892 219.175C68.2825 218.978 68.3141 218.016 68.3141 215.941V204.85C68.3141 204.385 68.3141 204.172 67.0438 204.172H66.0342C63.1468 204.172 62.6341 205.418 62.4925 206.949L62.4609 207.201H61.877L62.0267 203.391ZM82.6075 210.814C83.4909 209.465 84.8554 208.802 86.473 208.802C90.1017 208.802 90.1964 211.319 90.1964 212.668V216.683C90.1964 218.489 90.3934 218.955 91.2294 219.105L91.9081 219.231V219.791C91.4188 219.767 90.6378 219.712 90.0701 219.712H88.1058C87.6007 219.712 86.8436 219.767 86.3783 219.791V219.223L87.088 219.097C88.0192 218.947 88.09 218.308 88.09 216.675V213.196C88.09 211.903 88.2871 209.583 85.8421 209.583C82.7022 209.583 82.6075 212.644 82.6075 213.859V216.675C82.6075 218.111 82.5601 219.05 83.8065 219.16L84.3193 219.215V219.775C83.862 219.751 83.0968 219.696 82.5841 219.696H80.6198C80.0913 219.696 79.2787 219.752 78.7899 219.775V219.223L79.3026 219.144C80.5801 218.978 80.5016 217.993 80.5016 216.675V206.491C80.5016 205.016 80.5016 204.235 79.1605 204.109L78.6478 204.061V203.572C79.768 203.462 80.6198 203.281 82.608 202.76V210.814H82.6075ZM103.733 217.945C102.258 219.838 100.451 220.059 99.4965 220.059C95.5842 220.059 93.6749 217.267 93.6749 214.553C93.6749 211.437 96.1992 208.802 99.5123 208.802C102.186 208.802 104.001 210.585 104.143 212.597V212.857L103.733 213.078H96.2624L96.1677 214.245C96.1677 217.369 97.9823 219.097 100.08 219.097C101.603 219.097 102.683 218.079 103.22 217.385L103.733 217.945ZM100.814 212.376C101.698 212.345 101.745 212.273 101.745 211.831C101.745 209.907 100.498 209.362 99.4492 209.362C97.7847 209.362 96.657 210.782 96.3882 212.447L100.814 212.376ZM255.371 210.593C254.929 209.323 254.464 209.22 254.022 209.196L253.706 209.173V208.613L256.373 208.684L258.889 208.613V209.173H258.526C258.132 209.173 257.477 209.221 257.477 209.875L257.674 210.79L259.457 216.706L262.399 208.613H262.881L265.704 216.73C266.336 215.137 267.314 212.297 267.708 210.814C267.898 210.096 268 209.323 266.675 209.197L266.406 209.173V208.613L268.395 208.684L270.035 208.613V209.173C268.978 209.441 268.631 210.198 268.465 210.688C267.708 212.675 267.29 214.798 265.31 219.736H264.798L261.902 212.084L259.039 219.736H258.526L255.371 210.593ZM282.105 217.953C281.497 219.152 280.63 219.593 279.896 219.593C278.973 219.593 278.065 218.931 277.774 217.811C276.638 218.765 275.344 219.594 273.759 219.594C272.015 219.594 271.108 218.497 271.108 217.401C271.108 214.947 273.948 214.041 276.599 212.952C277.719 212.486 277.671 212.392 277.671 211.918V211.579C277.671 209.741 277.348 208.913 275.447 208.913C274.05 208.913 273.293 209.236 273.222 210.277C273.19 210.554 273.19 211.429 272.165 211.429C271.691 211.429 271.258 211.137 271.258 210.53C271.258 209.331 272.851 208.345 275.786 208.345C279.659 208.345 279.777 210.159 279.777 212.62V216.225C279.777 217.203 279.777 218.505 280.653 218.505L281.513 217.89L281.631 217.708L282.105 217.953ZM277.671 213.062L277.229 213.268C275.447 214.041 273.317 215.003 273.317 216.959C273.317 217.787 273.853 218.568 274.949 218.568C276.101 218.568 277.308 217.487 277.671 217.18V213.062ZM283.28 210.664C282.838 209.67 282.523 209.181 281.56 209.181V208.621L284.108 208.7L286.901 208.621V209.181L286.435 209.236C285.772 209.299 285.378 209.355 285.378 209.891C285.378 210.404 285.63 210.995 286.064 212.06L288.005 216.714L289.985 211.95C290.521 210.656 290.569 210.238 290.569 209.915C290.569 209.284 289.93 209.252 289.661 209.236L289.228 209.181V208.621L291.113 208.7L292.777 208.621V209.181C291.626 209.118 291.357 210.498 290.372 212.747L286.214 222.418C285.189 224.808 284.574 226.141 283.674 226.141C283.28 226.141 282.957 225.833 282.957 225.407C282.957 225.131 283.083 224.745 283.595 224.413C284.424 223.814 284.597 224.429 285.599 222.134L286.9 219.144L283.28 210.664L283.28 210.664ZM302.094 216.352C302.094 217.219 302.094 218.852 303.608 218.852C304.247 218.852 305.005 218.402 305.423 217.669L305.856 218.008L305.644 218.363C304.902 219.475 303.758 219.602 303.072 219.602C300.161 219.602 299.987 217.693 299.987 216.643V209.292H298.694V209.024L298.954 208.858C300.65 207.785 301.36 206.563 301.699 205.853H302.094V208.661H304.925V209.292H302.094V216.352V216.352ZM319.275 213.985C319.275 217.227 316.513 219.601 313.303 219.601C310.1 219.601 307.331 217.227 307.331 213.985C307.331 210.719 310.101 208.345 313.303 208.345C316.506 208.345 319.275 210.719 319.275 213.985ZM316.782 213.985C316.782 209.236 314.163 208.897 313.303 208.897C312.451 208.897 309.832 209.237 309.832 213.985C309.832 218.687 312.451 219.041 313.303 219.041C314.163 219.041 316.782 218.687 316.782 213.985ZM330.658 210.349C331.541 209.008 332.906 208.337 334.523 208.337C338.143 208.337 338.238 210.861 338.238 212.21V216.218C338.238 218.032 338.435 218.497 339.271 218.639L339.95 218.773V219.325C339.461 219.31 338.68 219.255 338.12 219.255H336.155C335.643 219.255 334.893 219.31 334.42 219.325V218.774L335.138 218.64C336.061 218.497 336.14 217.858 336.14 216.218V212.747C336.14 211.453 336.329 209.118 333.884 209.118C330.752 209.118 330.658 212.194 330.658 213.409V216.218C330.658 217.661 330.602 218.592 331.849 218.718L332.361 218.765V219.318C331.904 219.302 331.139 219.247 330.634 219.247H328.669C328.133 219.247 327.321 219.302 326.839 219.318V218.765L327.344 218.687C328.622 218.521 328.543 217.535 328.543 216.218V206.041C328.543 204.574 328.543 203.793 327.202 203.667L326.69 203.62V203.123C327.81 203.036 328.67 202.839 330.658 202.318V210.349ZM353.683 213.985C353.683 217.227 350.915 219.601 347.712 219.601C344.501 219.601 341.741 217.227 341.741 213.985C341.741 210.719 344.501 208.345 347.712 208.345C350.915 208.345 353.683 210.719 353.683 213.985ZM351.191 213.985C351.191 209.236 348.58 208.897 347.712 208.897C346.852 208.897 344.241 209.237 344.241 213.985C344.241 218.687 346.853 219.041 347.712 219.041C348.58 219.041 351.191 218.687 351.191 213.985ZM359.292 216.872C359.292 217.835 359.347 218.568 360.57 218.719L361.004 218.758V219.325C360.082 219.271 359.158 219.245 358.235 219.247C357.359 219.247 356.358 219.27 355.474 219.325V218.758L355.916 218.718C357.138 218.56 357.194 217.835 357.194 216.872V206.041C357.194 204.85 357.257 203.762 355.672 203.636L355.332 203.62V203.123C356.668 202.939 357.991 202.671 359.292 202.318V216.872ZM366.392 216.564C366.392 217.905 366.455 218.678 367.733 218.734L368.174 218.765V219.325C367.125 219.262 366.565 219.247 366.068 219.247H364.601C364.112 219.247 363.544 219.262 362.495 219.325V218.765L362.937 218.734C364.207 218.671 364.278 217.905 364.278 216.564V211.469C364.278 210.293 364.112 209.662 363.134 209.678L362.4 209.702V209.15C364.436 208.724 365.263 208.534 366.392 208.195V216.565V216.564ZM366.392 203.967C366.392 204.701 365.776 205.324 365.043 205.324C364.309 205.324 363.702 204.701 363.702 203.967C363.704 203.612 363.846 203.272 364.097 203.021C364.348 202.77 364.688 202.628 365.043 202.626C365.776 202.626 366.392 203.233 366.392 203.967M378.848 205.647C378.848 204.969 378.848 203.785 377.506 203.667L376.962 203.62V203.123C378.309 202.944 379.642 202.675 380.953 202.318V215.476C380.953 218.032 381.513 218.276 382.547 218.276H382.981V218.781C382.003 218.986 381.364 219.144 379.66 219.641C379.487 219.239 379.289 218.663 379.147 217.708C378.193 218.892 376.867 219.586 375.274 219.586C372.071 219.586 369.91 217.046 369.91 213.961C369.91 210.972 372.189 208.321 375.274 208.321C376.252 208.321 377.743 208.621 378.848 209.868V205.647ZM378.848 212.968C378.848 209.567 376.796 209.157 375.858 209.157C374.422 209.157 372.41 210.207 372.41 213.946C372.41 217.834 374.217 218.852 375.708 218.852C377.238 218.852 378.848 217.898 378.848 215.161V212.968ZM395.547 217.953C394.932 219.152 394.072 219.593 393.339 219.593C392.415 219.593 391.5 218.931 391.216 217.811C390.089 218.765 388.787 219.594 387.201 219.594C385.466 219.594 384.559 218.497 384.559 217.401C384.559 214.947 387.39 214.041 390.041 212.952C391.161 212.486 391.114 212.392 391.114 211.918V211.579C391.114 209.741 390.79 208.913 388.89 208.913C387.501 208.913 386.736 209.236 386.657 210.277C386.633 210.554 386.633 211.429 385.616 211.429C385.142 211.429 384.701 211.137 384.701 210.53C384.701 209.331 386.294 208.345 389.229 208.345C393.102 208.345 393.228 210.159 393.228 212.62V216.225C393.228 217.203 393.228 218.505 394.103 218.505L394.956 217.89L395.074 217.708L395.547 217.953H395.547ZM391.114 213.062L390.68 213.268C388.89 214.041 386.759 215.003 386.759 216.959C386.759 217.787 387.296 218.568 388.4 218.568C389.544 218.568 390.751 217.487 391.114 217.18V213.062ZM396.715 210.664C396.281 209.67 395.958 209.181 395.002 209.181V208.621L397.543 208.7L400.335 208.621V209.181L399.87 209.236C399.215 209.299 398.821 209.355 398.821 209.891C398.821 210.404 399.065 210.995 399.499 212.06L401.44 216.714L403.42 211.95C403.964 210.656 404.011 210.238 404.011 209.915C404.011 209.284 403.372 209.252 403.104 209.236L402.663 209.181V208.621L404.548 208.7L406.204 208.621V209.181C405.061 209.118 404.792 210.498 403.814 212.747L399.657 222.418C398.624 224.808 398.017 226.141 397.109 226.141C396.715 226.141 396.399 225.833 396.399 225.407C396.399 225.131 396.518 224.745 397.03 224.413C397.866 223.814 398.039 224.429 399.041 222.134L400.335 219.144L396.715 210.664V210.664ZM413.335 208.345V211.468H412.847C412.617 210.27 411.797 208.897 410.251 208.897C409.297 208.897 408.658 209.465 408.658 210.27C408.658 211.492 410.054 212.06 411.087 212.636C412.554 213.441 414.266 214.206 414.266 216.273C414.266 218.205 412.617 219.601 410.59 219.601C409.786 219.601 408.752 219.381 407.829 218.687L407.34 219.428H406.946V215.879H407.411C407.632 217.085 408.437 219.041 410.472 219.041C411.773 219.041 412.554 218.229 412.554 217.275C412.554 216.328 411.931 215.823 411.348 215.428C409.423 214.166 407.064 213.732 407.064 211.334C407.064 209.931 408.121 208.345 410.125 208.345C411.134 208.345 412.033 208.692 412.555 208.953L413.035 208.345H413.335Z" fill="black"/>
<path fill-rule="evenodd" clip-rule="evenodd" d="M188.32 219.49C187.839 219.924 187.176 220.169 186.403 220.169C185.157 220.169 184.526 219.806 184.202 219.033C183.492 219.861 182.625 220.169 181.402 220.169C179.493 220.169 178.207 219.175 178.207 217.471C178.207 215.641 179.848 214.741 182.057 214.047L182.238 214.016C183.343 213.661 184.21 213.282 184.21 212.32V211.854C184.21 210.434 183.563 209.701 182.364 209.701C181.441 209.701 181.047 210.127 180.945 211.081C180.873 211.578 180.668 212.17 179.951 212.17C179.343 212.17 178.965 211.823 178.965 211.255C178.965 210.024 180.408 209.141 182.538 209.141C185.157 209.141 186.175 210.19 186.175 212.32V217.558C186.175 218.946 186.403 219.435 187.058 219.435L188.036 219.088L188.32 219.49ZM184.234 216.524V213.724C183.824 213.968 183.429 214.174 183.051 214.371C181.465 215.191 180.29 215.885 180.29 217.534C180.29 218.646 181.047 219.482 182.049 219.482C183.461 219.482 184.234 218.417 184.234 216.524Z" fill="#BA282E"/>
<path d="M119.494 212.706H124.63L122.081 206.261L119.494 212.706ZM124.89 213.361H119.234L118.784 214.473C118.24 215.846 117.901 217.037 117.901 217.692C117.901 218.725 118.642 219.191 120.07 219.388V219.813H114.438V219.364C116.102 219.261 116.86 217.163 118.689 212.714L122.665 203.02H123.194L128.203 215.317C129.244 217.889 129.796 219.317 131.366 219.364V219.814H124.535V219.364C125.86 219.293 126.554 218.915 126.562 218.102C126.562 217.668 126.333 217.014 125.963 216.067L124.89 213.361V213.361ZM141.621 209.511H137.961V209.969H138.142C139.673 209.969 139.72 210.482 139.72 213.172V216.24C139.72 217.202 139.688 217.881 139.184 218.48C138.679 219.08 137.913 219.467 137.156 219.467C135.744 219.467 135.034 218.504 135.034 216.642V209.519H131.28V209.977H131.461C132.999 209.977 133.054 210.49 133.054 213.18V216.548C133.054 218.883 134.048 220.176 136.486 220.176C137.85 220.176 138.765 219.775 139.72 218.898V220.066L140.296 219.995C141.313 219.83 142.276 219.711 143.206 219.585H143.262V219.206L143.206 219.198C142.007 219.119 141.684 218.67 141.684 217.132V209.511H141.621ZM145.597 211.981C145.597 213.858 147.151 214.489 148.799 215.428C149.92 216.035 150.708 216.721 150.708 217.763C150.708 218.804 149.999 219.546 148.934 219.546C147.364 219.546 146.425 218.725 145.794 216.414L145.786 216.351H145.463V220.019H145.77L145.786 219.987L146.465 219.498L146.953 219.672C147.388 219.869 148.121 220.169 149.075 220.169C151.111 220.169 152.523 218.835 152.523 216.998C152.523 216.106 152.176 215.404 151.592 214.82C151.056 214.284 150.227 213.819 149.304 213.329C147.987 212.612 147.127 212.162 147.127 211.136C147.127 210.276 147.821 209.74 148.736 209.74C150.014 209.74 150.961 210.671 151.34 212.422L151.347 212.478H151.679V209.338H151.355L151.34 209.377L150.89 209.748L150.417 209.583C150.014 209.409 149.383 209.172 148.634 209.172C146.906 209.156 145.597 210.332 145.597 211.981ZM161.082 219.317C160.529 219.885 159.772 220.168 158.802 220.168C156.869 220.168 155.962 219.293 155.962 217.581C155.962 215.988 156.049 210.119 156.049 210.119H154.724V209.543L154.771 209.527C156.175 209.307 156.94 208.494 157.508 206.742L157.516 206.703H158.013L157.989 209.504H160.656V210.111H157.989L157.942 216.871V217.163C157.942 218.607 158.352 219.404 159.528 219.404C160.017 219.404 160.403 219.261 160.75 218.914L161.082 219.317ZM165.365 209.204C164.308 209.561 163.22 209.817 162.115 209.969L162.06 209.985V210.371L162.115 210.379C163.401 210.474 163.756 210.908 163.756 212.462V216.13C163.756 218.859 163.756 219.364 162.162 219.364H162.012V219.822H167.771V219.364H167.558C166.627 219.364 166.225 219.198 166.004 218.788C165.76 218.331 165.736 217.471 165.736 216.193V214.119C165.736 211.705 166.659 210.127 167.518 210.127C167.921 210.127 168.126 210.387 168.339 210.703C168.568 211.042 168.82 211.428 169.372 211.428C169.948 211.428 170.334 211.066 170.334 210.521C170.334 209.693 169.593 209.164 168.505 209.164C167.353 209.164 166.367 209.764 165.688 211.129C165.691 210.523 165.659 209.917 165.594 209.314L165.586 209.275L165.389 209.204H165.365H165.365ZM172.481 205.228C172.481 205.906 172.977 206.403 173.656 206.403C174.35 206.403 174.831 205.906 174.831 205.228C174.831 204.597 174.279 204.061 173.656 204.061C173.032 204.061 172.481 204.597 172.481 205.228M174.61 209.196C173.529 209.504 172.409 209.74 171.068 209.969H171.013V210.355H171.068C172.362 210.466 172.709 210.9 172.709 212.454V216.13C172.709 218.859 172.709 219.364 171.124 219.364H170.966V219.822H176.456V219.364H176.299C174.737 219.364 174.689 218.883 174.689 216.13V209.18L174.61 209.196V209.196ZM192.619 209.204C191.56 209.56 190.469 209.816 189.361 209.969L189.314 209.985V210.371L189.37 210.379C190.647 210.474 191.002 210.908 191.002 212.462V216.13C191.002 218.859 191.002 219.364 189.416 219.364H189.259V219.822H194.757V219.364H194.591C193.029 219.364 192.982 218.891 192.982 216.13V212.919C192.982 212.146 193.03 211.46 193.51 210.876C194.016 210.269 194.773 209.906 195.538 209.906C196.942 209.906 197.652 210.86 197.652 212.73V216.13C197.652 218.899 197.613 219.364 196.066 219.364H195.909V219.822H201.399V219.364H201.249C199.687 219.364 199.64 218.843 199.64 216.13V212.706C199.64 210.474 198.701 209.164 196.311 209.164C194.954 209.164 193.984 209.519 192.974 210.442L192.84 209.275L192.635 209.204H192.619Z" fill="#BA282E"/>
<path d="M239.214 203.027C239.168 203.023 227.238 203.922 217.577 205.804C217.577 205.804 216.846 205.965 216.379 206.038C216.648 205.999 216.919 205.978 217.19 205.977C217.719 205.977 218.343 206.049 218.634 206.396C219.186 207.05 220.046 208.778 213.192 214.781C210.92 216.784 208.374 218.542 206.449 219.804V219.805L210.951 219.104C213.033 217.092 218.555 212.588 223.493 210.008C231.808 205.654 238.355 203.343 239.184 203.067L239.214 203.028V203.027H239.214Z" fill="url(#paint0_linear_730_18564)"/>
<path d="M217.19 205.977C216.741 205.977 216.362 206.04 216.362 206.04L209.428 207.61H209.381L209.429 207.641L213.538 208.233C215.952 207.105 217.577 206.734 218.665 206.734C218.737 206.734 218.8 206.734 218.863 206.742C218.809 206.63 218.743 206.524 218.666 206.426C218.658 206.411 218.642 206.403 218.634 206.395C218.342 206.056 217.719 205.977 217.19 205.977Z" fill="url(#paint1_linear_730_18564)"/>
<defs>
<linearGradient id="paint0_linear_730_18564" x1="221.538" y1="204.761" x2="223.993" y2="216.31" gradientUnits="userSpaceOnUse">
<stop stop-color="#DD181F"/>
<stop offset="0.093" stop-color="#AD0D10"/>
<stop offset="0.186" stop-color="#AD0D10"/>
<stop offset="0.279" stop-color="#AD0D10"/>
<stop offset="0.372" stop-color="#AD0D10"/>
<stop offset="0.463" stop-color="#890405"/>
<stop offset="0.5" stop-color="#790000"/>
<stop offset="1" stop-color="#790000"/>
</linearGradient>
<linearGradient id="paint1_linear_730_18564" x1="209.371" y1="206.892" x2="223.753" y2="206.892" gradientUnits="userSpaceOnUse">
<stop stop-color="#ED1C24"/>
<stop offset="0.093" stop-color="#E91B23"/>
<stop offset="0.186" stop-color="#DD181F"/>
<stop offset="0.279" stop-color="#C91319"/>
<stop offset="0.372" stop-color="#AD0D10"/>
<stop offset="0.463" stop-color="#890405"/>
<stop offset="0.5" stop-color="#790000"/>
<stop offset="1" stop-color="#790000"/>
</linearGradient>
</defs>
</svg>
