<svg width="480" height="320" viewBox="0 0 480 320" fill="none" xmlns="http://www.w3.org/2000/svg">
<path d="M151.964 176.82H126.09L134.787 143.299H140.324L133.047 171.268H153.37L151.964 176.82ZM183.825 176.82H157.284L165.996 143.299H192.624L191.102 148.844H170.011L168.054 156.355H188.174L186.651 161.907H166.648L164.256 171.268H185.347L183.825 176.82ZM205.351 148.844C203.395 148.844 202.206 149.823 201.771 151.565L197.306 168.656C197.089 169.527 197.089 170.18 197.422 170.616C197.741 171.051 198.394 171.269 199.379 171.269H215.904C217.861 171.269 219.05 170.289 219.484 168.439L223.949 151.456C224.167 150.585 224.167 149.932 223.833 149.497C223.514 149.062 222.862 148.844 221.876 148.844H205.351ZM214.701 176.821H198.074C195.451 176.821 193.494 176.168 192.407 174.753C191.32 173.338 191.218 171.16 191.871 168.439L196.335 151.456C197.741 146.122 201.22 143.299 206.554 143.299H223.181C225.906 143.299 227.747 143.952 228.834 145.36C229.921 146.776 230.037 148.844 229.385 151.674L224.92 168.656C223.616 173.991 220.035 176.82 214.701 176.82V176.821ZM263.304 176.82H260.478L240.692 151.674L234.169 176.82H229.268L237.981 143.299H242.546L242.764 143.517L260.912 167.241L267.116 143.299H272.016L263.304 176.82ZM320.185 156.573H336.275C338.232 156.573 339.421 155.702 339.855 153.852L340.522 151.456C340.74 150.585 340.74 149.932 340.406 149.497C340.087 149.062 339.421 148.844 338.551 148.844H322.142L320.185 156.573ZM339.203 176.82H333.449L331.376 162.234H318.764L314.967 176.82H309.415L318.112 143.299H339.754C342.48 143.299 344.32 143.952 345.407 145.36C346.495 146.776 346.712 148.844 345.958 151.674L345.306 153.961C344.103 158.641 341.392 161.363 337.145 162.016L339.203 176.82ZM352.148 171.269H369.977C373.355 171.269 374.442 170.289 375.312 166.914L378.906 153.198C379.443 151.347 379.443 150.259 379.008 149.606C378.573 149.062 377.602 148.844 375.964 148.844H358.019L352.148 171.269ZM368.673 176.82H345.19L353.887 143.299H377.268C380.646 143.299 382.82 144.054 384.009 145.476C385.212 147.103 385.313 149.606 384.343 153.415L380.748 167.133C379.008 173.991 375.529 176.82 368.673 176.82ZM400.215 148.844C398.258 148.844 397.055 149.823 396.62 151.565L392.17 168.656C391.953 169.527 391.953 170.18 392.272 170.616C392.605 171.051 393.257 171.269 394.127 171.269H410.754C412.609 171.269 413.812 170.289 414.348 168.439L418.813 151.456C419.03 150.585 418.914 149.932 418.595 149.497C418.262 149.062 417.726 148.844 416.74 148.844H400.215ZM409.448 176.821H392.923C390.213 176.821 388.358 176.168 387.271 174.753C386.183 173.338 385.966 171.16 386.734 168.439L391.083 151.456C392.489 146.122 396.084 143.299 401.404 143.299H418.045C420.654 143.299 422.611 143.952 423.597 145.36C424.684 146.776 424.901 148.844 424.249 151.674L419.784 168.656C418.378 173.991 414.783 176.82 409.448 176.82V176.821ZM280.815 156.137H302.559L303.863 151.347C303.979 150.803 304.095 150.041 303.762 149.606C303.428 149.062 302.559 149.062 302.022 149.062H285.381C283.54 149.062 282.453 149.823 282.018 151.674L280.815 156.137ZM303.109 176.82H297.239L301.036 162.016H279.293L275.495 176.82H269.726L276.249 151.456C277.67 145.904 281.148 143.067 286.686 143.067H303.211C305.936 143.067 307.893 143.836 308.98 145.258C310.067 146.666 310.285 148.844 309.632 151.674L303.109 176.82ZM104.008 176.168C84.0006 170.833 75.302 162.56 75.302 162.56C75.302 162.56 83.892 177.039 97.2671 182.699L98.0278 183.026L98.2455 183.135C98.5718 183.243 98.789 183.352 99.0062 183.461H99.3341C99.6604 183.461 99.9863 183.352 100.095 183.135L104.552 177.8C104.77 177.474 104.77 177.147 104.661 176.82C104.552 176.494 104.335 176.277 104.009 176.168H104.008ZM109.228 155.049C108.902 155.049 107.272 154.831 105.966 154.831C97.8102 154.831 76.3886 158.749 76.3886 158.749L109.011 163.322H109.119C109.228 163.322 109.228 163.322 109.337 163.213C109.663 162.995 109.663 162.669 109.663 162.56C109.772 161.581 110.098 158.205 110.207 156.355C110.207 155.702 109.772 155.158 109.228 155.049ZM76.389 153.852C86.6108 144.489 104.117 141.108 105.857 140.789C106.183 140.672 106.51 140.455 106.619 140.237C106.728 139.918 106.728 139.584 106.51 139.265C105.965 138.278 103.465 134.912 102.487 133.707C102.269 133.388 101.834 133.272 101.399 133.388L101.291 133.49H101.182L100.204 133.823C87.4806 138.713 79.7607 148.953 76.3886 153.852H76.389ZM71.2793 153.852C71.3875 152.653 71.9315 150.041 72.2573 149.17C75.6274 139.265 83.0218 131.864 86.0673 129.136C86.3936 128.918 86.5022 128.483 86.3936 128.047C86.1759 127.612 85.741 127.395 85.3061 127.395L78.891 127.946C78.7823 127.946 78.4561 128.047 78.2388 128.164C78.1298 128.164 78.0212 128.266 78.0212 128.266L76.9325 129.687C76.6067 130.123 76.2804 130.558 76.0627 130.993C75.9541 130.993 75.9541 131.095 75.9541 131.095L75.4106 131.966C73.7801 134.911 70.4095 143.067 71.2793 153.852ZM68.0162 154.287C68.0162 154.287 64.7543 148.3 64.3198 140.455V139.7C64.3198 139.265 63.9936 138.83 63.5587 138.612C63.1222 138.496 62.5786 138.714 62.3614 139.047C61.0567 141.108 59.752 144.707 59.6434 144.924C59.5348 145.142 59.5348 145.476 59.6434 145.686C61.274 149.497 68.0158 154.287 68.0158 154.287H68.0162ZM58.7736 169.636C58.5564 169.854 58.5564 170.18 58.5564 170.398C58.665 171.16 59.2085 174.644 60.0779 176.712C60.4046 177.474 61.1653 177.365 61.1653 177.365C61.8179 177.365 62.0351 176.385 62.2528 175.732C63.8849 169.963 67.7986 162.56 67.7986 162.56C67.7986 162.56 61.4916 165.934 58.7736 169.636ZM84.7626 187.707L84.3265 187.162H84.2179C72.8008 175.841 71.3875 163.104 71.3875 163.104C71.3875 163.104 68.777 181.61 78.4557 192.387C78.4557 192.387 78.6733 192.604 78.7819 192.604H79.1082L86.3936 191.516L86.6108 191.407C86.8285 191.298 86.9371 191.081 87.0461 190.972C87.2633 190.536 87.1543 190.101 86.8285 189.775C86.3932 189.339 85.6324 188.686 84.7626 187.707V187.707ZM67.146 157.988L63.8849 157.226C63.1222 157.117 59.5344 156.246 58.0125 154.94C57.9039 154.831 57.7952 154.723 57.7952 154.614C57.469 154.287 57.0345 154.178 56.7082 154.287C56.2729 154.396 56.0557 154.722 55.9454 155.158C55.7282 156.028 55.2933 159.62 55.4019 160.275C55.4019 160.492 55.6195 160.71 55.8372 160.928L56.1643 161.037L56.3819 160.928C58.0125 160.71 62.2524 159.402 64.1022 158.859L67.146 157.988Z" fill="#EC0928"/>
</svg>
