<svg width="480" height="320" viewBox="0 0 480 320" fill="none" xmlns="http://www.w3.org/2000/svg">
<path d="M55.3848 126.603H121.811V160H55.3848V126.603Z" fill="#00AADB"/>
<path d="M55.3848 160H121.811V193.396H55.3848V160Z" fill="#3FA74D"/>
<path d="M215.99 139.529C216.002 138.745 216.637 138.116 217.416 138.116H246.054C246.842 138.116 247.48 137.474 247.48 136.682V128.037C247.48 127.249 246.848 126.609 246.065 126.603H204.321C203.533 126.603 202.895 127.245 202.895 128.037V191.952C202.895 192.744 203.533 193.386 204.321 193.386H246.065C246.852 193.386 247.491 192.744 247.491 191.952V183.339C247.491 182.547 246.852 181.905 246.065 181.905H217.427C216.639 181.905 216.001 181.263 216.001 180.471V165.327C216.001 164.535 216.639 163.893 217.427 163.893H243.556C244.343 163.893 244.982 163.251 244.982 162.459V153.815C244.982 153.023 244.344 152.381 243.556 152.381H217.177C216.492 152.263 215.991 151.667 215.99 150.968V139.529H215.99Z" fill="#1D1D1B"/>
<path d="M337.495 139.529C337.506 138.761 338.117 138.138 338.88 138.116H367.518C368.305 138.116 368.944 137.474 368.944 136.682V128.037C368.944 127.245 368.305 126.603 367.518 126.603H325.774C324.986 126.603 324.348 127.245 324.348 128.037V191.952C324.348 192.744 324.986 193.386 325.774 193.386H367.518C368.305 193.386 368.944 192.744 368.944 191.952V183.339C368.944 182.547 368.305 181.905 367.518 181.905H338.88C338.105 181.882 337.489 181.241 337.495 180.461V165.327C337.495 164.535 338.134 163.893 338.922 163.893H365.051C365.838 163.893 366.477 163.251 366.477 162.459V153.815C366.477 153.023 365.838 152.381 365.051 152.381H338.63C337.973 152.243 337.501 151.663 337.495 150.989V139.529Z" fill="#1D1D1B"/>
<path d="M192.921 181.895H166.303C166.116 181.894 165.93 181.857 165.757 181.785C165.584 181.713 165.427 181.608 165.295 181.475C165.027 181.205 164.877 180.841 164.877 180.461V128.037C164.877 127.848 164.84 127.661 164.768 127.486C164.695 127.312 164.589 127.153 164.456 127.02C164.322 126.886 164.164 126.781 163.99 126.71C163.815 126.638 163.629 126.602 163.44 126.603H153.239C152.86 126.603 152.498 126.754 152.23 127.023C151.963 127.293 151.812 127.657 151.813 128.037V191.952C151.813 192.333 151.963 192.697 152.23 192.966C152.362 193.099 152.519 193.205 152.692 193.277C152.866 193.349 153.051 193.386 153.239 193.386H192.963C193.751 193.386 194.389 192.744 194.389 191.952V183.339C194.391 183.146 194.354 182.955 194.28 182.777C194.206 182.6 194.098 182.438 193.961 182.303C193.824 182.168 193.661 182.063 193.483 181.993C193.304 181.922 193.113 181.889 192.921 181.895Z" fill="#1D1D1B"/>
<path d="M423.211 181.895H396.592C395.805 181.895 395.166 181.253 395.166 180.461V128.037C395.166 127.847 395.128 127.658 395.055 127.482C394.981 127.306 394.873 127.146 394.737 127.012C394.602 126.879 394.441 126.774 394.264 126.704C394.088 126.634 393.899 126.6 393.709 126.604H383.465C382.678 126.604 382.039 127.246 382.039 128.037V191.953C382.039 192.744 382.678 193.386 383.465 193.386H423.19C423.977 193.386 424.616 192.744 424.616 191.953V183.339C424.621 182.551 423.994 181.906 423.211 181.895Z" fill="#1D1D1B"/>
<path d="M315.717 126.604H304.765C304.21 126.606 303.706 126.933 303.475 127.441L303.412 127.598L287.256 171.251V171.335L286.933 172.224C286.78 172.631 286.392 172.9 285.96 172.9C285.527 172.9 285.14 172.631 284.987 172.224L284.643 171.314V171.23L268.435 127.65L268.351 127.42C268.116 126.923 267.618 126.606 267.071 126.604H256.12C255.888 126.605 255.659 126.662 255.455 126.772C255.25 126.882 255.075 127.039 254.946 127.232C254.815 127.425 254.734 127.647 254.708 127.878C254.682 128.11 254.713 128.344 254.798 128.561L278.335 192.141L278.522 192.643C278.78 193.072 279.242 193.333 279.74 193.334H292.044C292.679 193.332 293.233 192.903 293.398 192.287L317.018 128.634L317.07 128.487C317.122 128.343 317.15 128.191 317.153 128.037C317.153 127.848 317.116 127.661 317.044 127.487C316.972 127.312 316.866 127.153 316.732 127.02C316.599 126.887 316.44 126.781 316.266 126.71C316.092 126.638 315.905 126.602 315.717 126.604Z" fill="#1D1D1B"/>
</svg>
