<svg width="480" height="320" viewBox="0 0 480 320" fill="none" xmlns="http://www.w3.org/2000/svg">
<path fill-rule="evenodd" clip-rule="evenodd" d="M66.7783 139.175C63.3322 148.967 59.9001 158.759 56.454 168.551C56.2299 169.377 55.9917 170.218 55.8236 171.016C55.6415 171.815 55.5154 172.599 55.4454 173.398C55.3754 174.21 55.3614 175.051 55.4174 175.835C55.4734 176.62 55.6135 177.334 55.8937 178.189C56.1739 179.043 56.5801 180.038 57.0984 180.907C57.6307 181.775 58.2891 182.518 59.0596 183.12C59.8301 183.736 60.7126 184.213 61.7633 184.591C62.8139 184.969 64.0467 185.221 65.0833 185.361C66.1199 185.487 66.9465 185.487 67.773 185.487H91.5175C91.7136 185.473 91.9097 185.459 92.1059 185.403C92.288 185.347 92.4701 185.235 92.6662 185.109C92.8623 184.983 93.0585 184.829 93.2266 184.633C93.4087 184.437 93.5628 184.185 93.6888 183.932C93.8149 183.68 93.927 183.414 94.025 183.148C94.8796 180.542 95.7201 177.937 96.3365 176.004C96.9528 174.07 97.3451 172.824 97.5692 172.095C97.7934 171.367 97.8354 171.171 97.8494 170.988C97.8634 170.806 97.8634 170.652 97.8354 170.498C97.8074 170.344 97.7373 170.19 97.6533 170.064C97.5552 169.938 97.4291 169.826 97.3031 169.756C97.177 169.686 97.0509 169.644 96.8968 169.616C96.7567 169.588 96.5886 169.588 96.4345 169.574H79.1199C78.8537 169.574 78.5736 169.574 78.3354 169.518C78.0833 169.462 77.8591 169.335 77.663 169.209C77.4529 169.083 77.2848 168.943 77.1307 168.775C76.9766 168.607 76.8645 168.397 76.7665 168.131C76.6824 167.865 76.6124 167.556 76.5984 167.22C76.5844 166.898 76.6124 166.562 76.6964 166.17C76.7805 165.763 76.9206 165.301 77.0466 164.839C79.9324 156.364 82.8182 147.888 85.6899 139.399C85.732 139.245 85.76 139.091 85.76 138.909C85.746 138.727 85.7039 138.517 85.6199 138.348C85.5358 138.18 85.4238 138.054 85.3117 137.956C85.1996 137.858 85.0736 137.816 84.9335 137.788C84.7934 137.76 84.6253 137.76 84.4572 137.746H68.7956C68.6695 137.76 68.5434 137.76 68.4033 137.788C68.2773 137.816 68.1372 137.858 68.0111 137.9C67.885 137.956 67.7589 138.026 67.6329 138.096C67.5208 138.166 67.4087 138.25 67.2967 138.362C67.1846 138.461 67.0725 138.587 66.9885 138.727C66.9044 138.867 66.8484 139.021 66.7783 139.175Z" fill="#FB0102"/>
<path fill-rule="evenodd" clip-rule="evenodd" d="M110.724 151.082C110.584 151.096 110.458 151.096 110.304 151.138C110.164 151.18 110.01 151.236 109.883 151.306C109.757 151.376 109.659 151.432 109.575 151.516C109.477 151.586 109.393 151.684 109.323 151.782C109.253 151.881 109.197 151.993 109.141 152.105L99.349 183.834C99.321 183.946 99.307 184.058 99.293 184.156C99.293 184.268 99.307 184.366 99.335 184.464C99.363 184.563 99.419 184.661 99.5031 184.745C99.5871 184.829 99.6992 184.913 99.7973 184.969C99.8953 185.025 99.9934 185.053 100.077 185.067L100.33 185.109H115.305C115.445 185.109 115.585 185.109 115.739 185.067C115.879 185.025 116.019 184.955 116.145 184.885C116.271 184.815 116.369 184.745 116.453 184.605C116.552 184.464 116.636 184.24 116.72 184.016C120.068 173.44 123.416 162.863 126.764 152.273C126.792 152.175 126.806 152.077 126.82 151.979C126.834 151.881 126.834 151.768 126.82 151.67C126.806 151.572 126.778 151.502 126.722 151.432C126.68 151.362 126.61 151.292 126.54 151.236C126.47 151.18 126.386 151.152 126.316 151.124C126.245 151.11 126.161 151.096 126.091 151.096H110.724V151.082Z" fill="#FB0102"/>
<path fill-rule="evenodd" clip-rule="evenodd" d="M155.567 168.438C152.569 174.77 138.533 175.54 141.545 167.107C142.455 164.557 145.873 162.232 149.431 161.938C153.382 161.602 157.626 164.109 155.581 168.452L155.567 168.438ZM171.159 166.995C175.459 152.076 153.886 142.242 134.106 156.404C124.594 163.212 121.288 176.591 131.206 182.642C136.235 185.71 141.292 186.425 148.241 185.318C157.08 183.917 168.273 176.997 171.159 166.981V166.995Z" fill="#FB0102"/>
<path d="M121.132 147.642C126.704 146.759 131.037 143.063 130.809 139.385C130.582 135.707 125.881 133.441 120.308 134.324C114.736 135.206 110.403 138.903 110.63 142.581C110.858 146.259 115.559 148.525 121.132 147.642Z" fill="#FB0102"/>
<path fill-rule="evenodd" clip-rule="evenodd" d="M180.683 150.898C177.279 161.755 173.875 172.626 170.471 183.482C170.429 183.693 170.387 183.889 170.401 184.071C170.401 184.253 170.457 184.421 170.527 184.561C170.597 184.701 170.695 184.799 170.807 184.883C170.92 184.967 171.032 185.023 171.144 185.051C171.242 185.079 171.326 185.079 171.41 185.079H186.273C186.413 185.079 186.567 185.079 186.721 185.051C186.875 185.023 187.057 184.967 187.197 184.911C187.338 184.855 187.436 184.799 187.534 184.715C187.632 184.631 187.716 184.519 187.786 184.407C187.856 184.295 187.898 184.183 187.954 184.071C189.831 177.711 191.694 171.351 193.571 164.991C193.697 164.655 193.824 164.333 194.048 164.109C194.272 163.898 194.608 163.814 195.084 163.716C195.561 163.632 196.177 163.548 196.989 163.492C197.802 163.436 198.811 163.394 199.581 163.38C200.352 163.352 200.898 163.352 201.304 163.408C201.71 163.464 201.977 163.59 202.159 163.716C202.355 163.842 202.467 163.968 202.593 164.165C202.705 164.347 202.817 164.599 202.873 164.977C202.929 165.355 202.929 165.846 202.873 166.28C202.817 166.7 202.691 167.064 202.509 167.597C202.327 168.129 202.103 168.857 201.248 171.561C200.394 174.265 198.909 178.958 197.438 183.65C197.41 183.749 197.396 183.847 197.382 183.959C197.368 184.071 197.368 184.197 197.382 184.309C197.396 184.421 197.438 184.533 197.508 184.645C197.578 184.757 197.662 184.855 197.774 184.925C197.886 184.995 198.012 185.037 198.124 185.051C198.236 185.065 198.32 185.079 198.404 185.079H213.646C213.828 185.079 214.01 185.079 214.15 185.037C214.304 184.995 214.43 184.925 214.542 184.841C214.654 184.757 214.752 184.659 214.836 184.561C214.906 184.463 214.962 184.379 215.005 184.295C216.756 178.523 218.521 172.752 220.272 166.98C220.384 166.574 220.51 166.168 220.636 165.509C220.762 164.851 220.874 163.926 220.944 163.184C221 162.441 221 161.867 220.944 161.153C220.888 160.438 220.776 159.584 220.65 158.911C220.524 158.239 220.398 157.763 220.216 157.328C220.034 156.908 219.795 156.53 219.487 156.054C219.193 155.563 218.829 154.961 218.409 154.429C217.988 153.882 217.498 153.406 216.882 152.916C216.265 152.439 215.537 151.949 214.878 151.585C214.22 151.221 213.618 150.982 213.015 150.744C212.413 150.506 211.797 150.268 211.054 150.086C210.312 149.904 209.429 149.778 208.084 149.722C206.739 149.666 204.946 149.666 203.447 149.708C201.949 149.764 200.772 149.862 199.707 150.002C198.656 150.142 197.718 150.324 196.863 150.52C195.995 150.716 195.21 150.926 194.384 151.151C193.571 151.375 192.731 151.599 191.862 151.725C190.994 151.837 190.083 151.837 189.425 151.781C188.78 151.725 188.388 151.627 187.926 151.501C187.464 151.389 186.917 151.263 186.441 151.165C185.951 151.053 185.53 150.968 184.984 150.912C184.452 150.856 183.807 150.828 183.065 150.828C182.322 150.828 181.482 150.87 180.655 150.912L180.683 150.898Z" fill="#FB0102"/>
<path fill-rule="evenodd" clip-rule="evenodd" d="M374.182 150.298C374.084 150.298 374 150.312 373.902 150.326C373.804 150.354 373.72 150.382 373.636 150.438C373.552 150.494 373.482 150.564 373.412 150.634C373.356 150.704 373.3 150.774 373.258 150.858C373.215 150.942 373.173 151.04 373.145 151.124C369.783 162.065 366.435 173.005 363.073 183.946C363.059 184.044 363.031 184.142 363.031 184.254C363.031 184.366 363.059 184.464 363.101 184.563C363.143 184.661 363.213 184.745 363.297 184.801C363.381 184.871 363.508 184.913 363.606 184.941C363.718 184.969 363.816 184.969 363.914 184.969H379.561C379.701 184.955 379.842 184.955 379.968 184.913C380.094 184.871 380.192 184.801 380.29 184.717C380.374 184.633 380.444 184.521 380.5 184.422C380.542 184.324 380.57 184.24 380.598 184.156L390.852 151.124C390.866 151.054 390.88 150.984 390.88 150.914C390.88 150.844 390.88 150.774 390.852 150.69C390.824 150.62 390.796 150.536 390.74 150.48C390.684 150.424 390.614 150.368 390.53 150.34C390.446 150.312 390.362 150.298 390.264 150.284C390.18 150.27 390.082 150.27 389.998 150.27H374.154L374.182 150.298Z" fill="#FB0102"/>
<path d="M384.932 147.093C390.505 146.211 394.838 142.514 394.61 138.836C394.383 135.158 389.681 132.892 384.109 133.775C378.537 134.658 374.204 138.354 374.431 142.032C374.659 145.71 379.36 147.976 384.932 147.093Z" fill="#FB0102"/>
<path fill-rule="evenodd" clip-rule="evenodd" d="M345.563 165.706C344.414 169.559 342.159 176.899 339.917 184.254C339.903 184.31 339.903 184.366 339.903 184.45C339.917 184.534 339.945 184.632 340.001 184.716C340.057 184.8 340.155 184.87 340.239 184.912C340.323 184.954 340.408 184.968 340.464 184.968C340.52 184.982 340.576 184.982 340.618 184.982H356.251C356.335 184.968 356.433 184.968 356.517 184.954C356.601 184.94 356.672 184.912 356.756 184.884C356.84 184.856 356.924 184.814 357.022 184.758C357.106 184.702 357.204 184.618 357.274 184.534C357.344 184.436 357.414 184.338 357.47 184.226C360.93 173.159 364.376 162.106 367.836 151.039C367.878 150.899 367.906 150.759 367.892 150.633C367.864 150.507 367.794 150.395 367.71 150.339C367.626 150.283 367.542 150.283 367.458 150.283C365.553 150.283 363.648 150.283 362.373 150.227C361.112 150.171 360.482 150.073 359.893 149.947C359.305 149.821 358.773 149.694 358.212 149.512C357.652 149.33 357.064 149.106 356.545 148.924C356.027 148.742 355.593 148.616 354.892 148.434C354.192 148.252 353.239 148.013 352.427 147.831C351.614 147.649 350.942 147.523 350.003 147.397C349.065 147.271 347.874 147.159 346.753 147.089C345.633 147.033 344.596 147.033 343.503 147.089C342.411 147.145 341.248 147.271 340.352 147.411C339.455 147.537 338.811 147.677 338.18 147.859C337.55 148.041 336.919 148.252 336.303 148.49C335.687 148.728 335.07 148.966 334.44 149.26C333.81 149.554 333.151 149.891 332.437 150.283C331.722 150.675 330.952 151.123 330.167 151.684C329.383 152.244 328.57 152.93 327.758 153.645C326.945 154.359 326.133 155.116 325.362 155.928C324.578 156.741 323.821 157.623 323.107 158.674C322.393 159.725 321.706 160.929 321.118 162.036C320.529 163.143 320.039 164.137 319.633 165.048C319.227 165.972 318.89 166.813 318.554 167.976C318.218 169.152 317.896 170.651 317.742 171.912C317.588 173.173 317.588 174.21 317.644 175.022C317.7 175.835 317.826 176.437 317.952 176.983C318.078 177.53 318.19 178.006 318.316 178.426C318.442 178.846 318.554 179.225 318.708 179.575C318.848 179.939 319.03 180.289 319.241 180.639C319.451 181.004 319.689 181.368 319.955 181.732C320.235 182.096 320.543 182.461 320.824 182.755C321.104 183.063 321.342 183.301 321.65 183.539C321.958 183.777 322.322 184.016 322.743 184.254C323.163 184.492 323.653 184.73 324.214 184.912C324.774 185.094 325.404 185.22 326.049 185.29C326.679 185.36 327.324 185.36 327.926 185.36C328.528 185.36 329.089 185.36 329.593 185.304C330.097 185.248 330.546 185.122 331.078 184.94C331.61 184.758 332.213 184.52 332.745 184.282C333.291 184.044 333.767 183.791 334.314 183.483C334.846 183.175 335.449 182.811 335.995 182.447C336.541 182.082 337.017 181.718 337.494 181.298C337.97 180.878 338.446 180.401 338.797 179.995C339.161 179.575 339.399 179.225 339.651 178.86C339.889 178.496 340.141 178.118 340.38 177.698C340.618 177.277 340.87 176.815 341.052 176.339C341.234 175.863 341.346 175.372 341.472 174.896C341.234 175.022 340.996 175.148 340.674 175.274C340.352 175.4 339.959 175.512 339.371 175.694C338.783 175.877 338.012 176.115 337.312 176.227C336.611 176.339 336.009 176.339 335.519 176.283C335.028 176.227 334.664 176.115 334.286 175.933C333.908 175.75 333.515 175.526 333.193 175.218C332.857 174.91 332.591 174.546 332.409 174.167C332.227 173.789 332.142 173.397 332.1 172.809C332.058 172.22 332.058 171.45 332.128 170.791C332.185 170.133 332.311 169.601 332.423 169.04C332.549 168.48 332.675 167.906 332.857 167.317C333.039 166.715 333.277 166.099 333.571 165.426C333.866 164.754 334.23 164.025 334.65 163.311C335.07 162.582 335.547 161.854 336.219 161.069C336.877 160.285 337.732 159.444 338.488 158.842C339.245 158.24 339.889 157.876 340.52 157.637C341.15 157.399 341.752 157.273 342.327 157.203C342.901 157.147 343.447 157.147 343.98 157.217C344.498 157.287 344.988 157.413 345.353 157.595C345.717 157.777 345.941 158.002 346.151 158.24C346.347 158.478 346.515 158.716 346.627 159.024C346.753 159.332 346.837 159.697 346.866 160.061C346.908 160.425 346.894 160.789 346.866 161.154C346.823 161.518 346.767 161.882 345.605 165.734L345.563 165.706Z" fill="#FB0102"/>
<path fill-rule="evenodd" clip-rule="evenodd" d="M396.429 150.298C392.955 161.449 389.495 172.599 386.021 183.764C385.993 183.89 385.965 184.03 385.965 184.17C385.965 184.311 386.007 184.465 386.091 184.591C386.161 184.717 386.273 184.801 386.413 184.857C386.553 184.913 386.735 184.955 386.861 184.969C386.987 184.983 387.072 184.983 387.156 184.983H401.71C401.837 184.983 401.949 184.983 402.131 184.941C402.299 184.899 402.537 184.829 402.747 184.717C402.957 184.605 403.167 184.437 403.307 184.241C403.448 184.044 403.532 183.82 403.616 183.582C405.157 178.245 406.698 172.894 408.238 167.556C408.393 167.108 408.547 166.66 408.729 166.282C408.911 165.903 409.135 165.609 409.373 165.343C409.611 165.091 409.863 164.867 410.102 164.685C410.34 164.488 410.592 164.32 410.844 164.18C411.11 164.026 411.39 163.9 411.713 163.788C412.035 163.676 412.413 163.564 412.791 163.494C413.156 163.424 413.52 163.368 413.87 163.368C414.22 163.368 414.542 163.396 414.823 163.438C415.103 163.494 415.313 163.55 415.593 163.648C415.859 163.746 416.195 163.858 416.518 163.97C419.221 160.692 421.911 157.414 424.615 154.15C424.488 153.8 424.376 153.464 424.194 153.113C424.012 152.763 423.774 152.427 423.452 152.077C423.13 151.727 422.723 151.39 422.289 151.096C421.855 150.816 421.407 150.578 420.944 150.41C420.482 150.228 420.02 150.088 419.431 149.962C418.857 149.835 418.157 149.709 417.19 149.667C416.223 149.625 414.963 149.653 413.842 149.751C412.721 149.849 411.713 150.018 410.732 150.158C409.751 150.298 408.799 150.424 407.86 150.508C406.922 150.592 405.969 150.662 405.031 150.676C404.092 150.69 403.153 150.676 402.425 150.606C401.696 150.536 401.192 150.424 400.24 150.368C399.273 150.312 397.858 150.312 396.443 150.312L396.429 150.298Z" fill="#FB0102"/>
<path fill-rule="evenodd" clip-rule="evenodd" d="M306.003 135.882C305.793 136.807 304.952 138.025 304.532 138.824C304.266 138.628 303.832 138.053 303.509 137.717C303.089 137.283 302.851 136.891 302.571 136.372C303.299 136.372 303.874 136.33 304.392 136.232C305.134 136.106 305.373 135.924 306.003 135.882ZM284.514 195.222C284.43 194.648 284.318 193.934 284.22 193.205L286.069 193.079H286.125C287.133 193.009 288.828 192.757 291.658 191.272C293.381 190.361 295.777 187.938 296.883 186.369C298.648 183.847 299.587 180.696 299.587 177.46V177.305C299.587 176.465 299.503 175.638 299.377 174.84C299.363 174.784 299.363 174.714 299.349 174.658L299.335 174.616C299.083 173.145 298.62 171.688 297.934 170.287C295.959 166.211 292.162 163.353 287.862 162.204C286.979 161.966 286.069 161.798 285.144 161.714L284.99 161.7L284.85 161.686C282.272 161.49 279.625 161.91 277.159 163.031C276.921 163.143 276.697 163.241 276.487 163.353C274.596 164.306 272.929 165.636 271.57 167.219L271.542 167.261L271.276 167.135C266.373 164.782 259.144 151.137 257.435 144.932C255.32 137.255 253.975 124.199 255.698 116.242C255.964 115.009 256.301 113.272 256.427 112.67C251.454 109.518 244.603 113.805 243.833 123.541C242.586 139.23 252.21 155.634 263.431 165.384C265.056 166.799 266.303 167.71 267.199 168.41L269.609 170.161C269.258 170.834 268.95 171.548 268.698 172.276C266.975 171.254 265.448 170.287 263.571 168.872C261.932 167.654 260.433 166.505 258.906 165.216C255.53 162.33 253.765 160.341 250.697 156.783C246.901 152.384 240.387 141.401 240.051 133.795C232.682 132.814 228.101 146.739 241.9 159.445C250.837 167.682 256.707 170.161 268.04 174.91C267.942 175.484 267.886 176.059 267.858 176.647L267.844 176.801C266.022 176.955 259.228 174.784 257.295 174.084C239.546 167.64 235.414 159.935 233.354 157.764C230.455 159.823 229.978 165.762 232.542 169.195C236.885 175.008 246.312 178.356 253.667 179.183C258.234 179.701 261.75 179.925 266.331 179.729L268.012 179.575C268.124 180.359 268.292 181.13 268.502 181.872L268.25 181.928L267.942 181.998H267.928C258.276 183.974 250.627 183.553 241.395 180.597C238.762 179.757 235.358 177.74 234.923 177.502C234.097 178.188 232.528 189.941 248.54 190.067C252.56 190.095 256.595 189.311 260.055 188.204C263.319 187.154 266.289 185.879 269.595 184.604C269.917 185.22 270.267 185.809 270.673 186.383L270.211 186.803C270.113 186.915 269.987 187.013 269.861 187.125C267.647 189.017 262.198 191.328 259.382 192.239C253.079 194.27 250.305 193.948 244.043 193.219C244.799 201.54 254.129 200.532 259.424 198.444C264.79 196.329 268.348 192.323 272.298 188.372C272.747 188.835 273.223 189.269 273.727 189.675C273.391 190.432 273.013 191.062 272.578 191.706C270.281 195.054 264.58 199.397 261.204 200.938C257.729 202.521 255.74 202.619 255.222 202.717C255.544 204.888 257.813 206.065 260.475 206.051C268.46 205.981 273.643 195.769 275.1 192.827L275.927 191.174C276.459 191.482 277.019 191.748 277.594 191.986L276.991 193.976C276.963 194.06 276.935 194.158 276.907 194.256V194.27C276.557 195.363 275.899 196.805 274.806 198.641C270.743 205.477 267.059 206.513 266.639 206.724C267.563 208.349 270.393 208.783 272.522 207.914C277.72 205.813 278.504 198.136 279.415 193.822L279.639 192.659C280.199 192.813 280.76 192.925 281.348 193.009L281.362 193.079C282.314 202.059 278.294 206.387 278.042 206.808C280.802 207.284 283.197 206.78 284.472 204.678C285.705 202.647 285.116 199.215 284.808 196.735C287.61 196.637 290.874 195.685 293.003 194.984C299.769 192.729 304.252 186.971 306.115 180.247C306.297 179.603 306.577 178.944 306.731 178.258C307.81 178.258 309.015 178.146 309.015 176.787C309.015 176.493 308.749 175.61 308.609 175.386C308.188 174.714 306.395 173.579 306.395 171.716C306.395 171.31 306.633 170.637 306.717 170.245C307.6 170.175 308.847 169.265 308.847 168.284C308.847 166.813 306.353 166.043 305.443 165.146C304.546 164.249 303.439 161.994 303.439 160.607C303.439 159.767 303.019 157.665 304.252 157.665C305.555 157.665 310.794 160.341 310.794 152.272C308.749 153.253 307.264 153.911 305.204 152.3C302.795 150.423 304.798 143.937 309.323 143.937C310.304 143.937 311.004 144.147 311.494 144.708C311.929 145.198 312.237 146.206 312.265 147.047C313.175 146.445 313.834 145.646 314.506 144.722C314.912 144.161 315.697 142.032 315.697 141.163C315.697 140.561 315.389 140.351 315.431 139.875C315.501 139.104 316.565 138.081 315.221 137.227C314.156 136.555 312.055 137.801 308.454 135.994C307.978 135.756 307.46 135.392 307.04 135.28C307.054 134.369 307.362 134.229 307.362 133.319C307.362 131.89 302.907 130.097 301.38 129.158C300.315 128.5 299.335 127.827 298.494 126.987C297.318 125.796 296.743 124.829 296.589 124.199C296.351 124.087 296.127 124.003 295.763 124.003C294.418 124.003 293.409 125.025 293.143 126.132C292.849 125.824 292.625 125.6 292.205 125.32C291.784 125.025 291.322 124.787 290.902 124.605C287.89 123.316 285.887 123.246 282.679 121.551C281.488 122.35 280.493 123.639 280.886 125.306C279.373 124.507 278.014 124.647 276.389 124.885C275.408 125.025 272.284 125.46 271.486 125.404C270.701 125.404 269.609 125.264 268.964 125.138C268.894 126.048 268.474 126.791 268.474 127.911C268.474 129.018 268.81 129.718 268.964 130.041C267.115 130.041 266.191 130.055 264.706 130.349C263.165 130.657 262.03 130.741 260.475 130.685C260.013 132.646 259.943 133.627 260.993 135.56C261.372 136.26 262.226 137.521 262.59 137.885C261.778 138.166 260.307 138.446 259.48 138.544C259.48 140.855 260.475 144.119 261.077 146.262C262.857 152.622 265.994 157.932 269.945 163.059C270.337 163.563 270.701 163.983 271.094 164.362C271.5 163.969 271.794 163.717 272.242 163.381C275.941 160.509 279.457 159.29 284.5 159.29C286.895 159.29 289.837 160.145 291.476 160.971C293.689 162.092 294.978 162.975 296.631 164.642C298.985 166.995 300.442 169.811 301.268 173.089C302.963 179.743 300.596 187.658 295.02 191.678C294.04 192.379 293.143 192.897 292.036 193.457C290.271 194.34 287.091 195.166 284.584 195.25L284.514 195.222ZM287.694 133.753C287.694 134.369 288.268 135.476 288.016 135.546C286.699 135.434 286.055 134.173 286.055 132.772C286.055 130.111 290.972 129.186 291.77 132.604C291.182 132.31 290.005 131.946 289.319 131.946C288.534 131.946 287.68 132.968 287.68 133.739L287.694 133.753Z" fill="#FB0102"/>
</svg>
