<svg width="480" height="320" viewBox="0 0 480 320" fill="none" xmlns="http://www.w3.org/2000/svg">
<path d="M106.263 96.8672C78.1638 96.8672 55.3848 119.646 55.3848 147.746C55.3848 175.843 78.1638 198.624 106.263 198.624C134.361 198.624 157.142 175.843 157.142 147.746C157.142 119.646 134.363 96.8672 106.263 96.8672ZM106.263 194.554C80.4121 194.554 59.455 173.597 59.455 147.747C59.455 121.898 80.4121 100.937 106.263 100.937C132.114 100.937 153.071 121.895 153.071 147.746C153.071 173.598 132.114 194.554 106.263 194.554Z" fill="#0096D7"/>
<path d="M139.296 161.875C140.302 161.877 141.171 161.587 141.868 160.83C141.977 160.706 142.076 160.468 142.3 160.559C142.496 160.639 142.485 160.867 142.512 161.048C142.748 162.503 141.545 164.241 140.015 164.779C135.173 166.481 130.175 167.486 125.095 168.024C120.182 168.544 115.256 169.037 110.313 169.079C101.937 169.155 93.5718 168.982 85.2197 168.308C84.8498 168.276 84.4751 168.266 84.1068 168.218C83.6029 168.156 83.1974 168.236 82.7662 168.593C81.7518 169.437 79.9154 169.24 78.9737 168.258C78.8154 168.09 78.6378 168.027 78.4181 168.016C75.6044 167.811 72.7924 167.604 69.9787 167.383C68.9499 167.296 68.0211 167.436 67.325 168.292C67.2426 168.394 67.1505 168.533 66.9809 168.442C66.8646 168.378 66.8808 168.244 66.8808 168.134C66.8663 166.084 67.9452 164.53 70.1209 164.451C71.1126 164.414 72.0462 164.118 72.857 163.522C73.6129 162.967 74.4027 162.815 75.3525 162.946C77.1809 163.19 79.0254 163.18 80.87 163.185C81.1413 163.185 81.3658 163.077 81.5774 162.912C82.6418 162.103 83.7821 162.12 84.937 162.663C85.2972 162.833 85.6138 162.884 86.003 162.82C92.2312 161.797 97.9151 159.339 103.345 156.22C109.758 152.542 115.427 147.902 120.807 142.864C125.263 138.689 129.713 134.502 134.257 130.422C136.636 128.294 139.398 126.787 142.707 126.638C143.669 126.599 144.625 126.646 145.547 126.924C145.72 126.976 145.938 127.019 145.922 127.265C145.909 127.476 145.728 127.513 145.563 127.525C143.625 127.638 142.339 128.823 141.136 130.178C136.336 135.581 131.7 141.121 127.131 146.723C123.471 151.199 119.767 155.639 116.089 160.092C115.731 160.528 115.382 160.962 115.043 161.403C114.918 161.562 114.713 161.733 114.807 161.948C114.905 162.183 115.175 162.104 115.372 162.104C117.074 162.098 118.777 162.072 120.481 162.07C122.813 162.064 125.144 162.067 127.478 162.067C127.471 162.001 135.355 161.867 139.296 161.875ZM80.6874 168.853C82.007 168.906 82.7823 168.489 83.1781 167.607C83.7579 166.292 84.3151 164.962 84.9047 163.652C85.1292 163.162 84.9645 162.925 84.5074 162.755C83.1183 162.248 81.8035 162.702 81.0541 164.025C80.4048 165.17 79.8088 166.349 79.0722 167.454C78.9543 167.627 78.9689 167.788 79.0706 168.006C79.4534 168.823 80.1883 168.807 80.6874 168.853ZM192.207 110.746L170.402 186.66H204.321L226.126 110.746H192.207ZM266.198 157.587H283.733L285.348 170.508H258.122M64.3563 207.304H71.0125L68.4055 217.405H75.0827L73.7034 222.684H60.3926L64.3563 207.304ZM79.434 207.304H86.0902L83.4833 217.405H90.1621L88.7828 222.684H75.4704L79.434 207.304ZM91.6691 218.182C91.6691 217.622 91.7224 217.008 91.8306 216.339C91.9372 215.672 92.0955 214.982 92.3039 214.272C92.5106 213.564 92.7674 212.858 93.0695 212.161C93.3715 211.464 93.7139 210.807 94.1032 210.188C94.5635 209.457 95.1046 208.869 95.7297 208.421C96.3564 207.977 97.0509 207.641 97.8181 207.409C98.587 207.178 99.4123 207.031 100.296 206.958C101.179 206.887 102.11 206.852 103.087 206.852C104.062 206.852 105.048 206.884 106.036 206.948C107.026 207.013 107.924 207.207 108.729 207.53C109.533 207.853 110.186 208.346 110.688 209.005C111.192 209.665 111.444 210.599 111.444 211.805C111.444 212.366 111.386 212.994 111.273 213.7C111.158 214.406 110.988 215.134 110.769 215.887C110.544 216.64 110.271 217.4 109.948 218.158C109.627 218.92 109.255 219.623 108.839 220.27C108.422 220.946 107.873 221.472 107.189 221.852C106.508 222.233 105.765 222.516 104.961 222.703C104.156 222.887 103.328 223.007 102.473 223.058C101.62 223.108 100.805 223.134 100.028 223.134C98.8357 223.134 97.7309 223.1 96.7101 223.034C95.6893 222.971 94.8074 222.777 94.0596 222.456C93.3134 222.133 92.7287 221.64 92.3039 220.98C91.8807 220.322 91.6691 219.389 91.6691 218.182ZM102.31 211.934C102.052 211.934 101.801 211.944 101.556 211.967C101.31 211.989 101.074 212.051 100.845 212.149C100.616 212.248 100.398 212.405 100.188 212.613C99.9793 212.821 99.7822 213.106 99.5965 213.461C99.4527 213.734 99.317 214.039 99.1878 214.377C99.0586 214.714 98.9439 215.052 98.8438 215.388C98.7436 215.725 98.6645 216.045 98.6063 216.347C98.5482 216.651 98.5207 216.893 98.5207 217.079C98.5207 217.481 98.5821 217.809 98.7016 218.059C98.8228 218.308 98.9795 218.505 99.1652 218.649C99.3526 218.793 99.5642 218.893 99.8032 218.952C100.039 219.009 100.267 219.038 100.482 219.038C100.869 219.038 101.207 219.015 101.493 218.973C101.779 218.933 102.034 218.856 102.258 218.747C102.483 218.639 102.678 218.492 102.851 218.306C103.022 218.122 103.187 217.875 103.347 217.575C103.405 217.475 103.492 217.297 103.605 217.048C103.72 216.798 103.841 216.497 103.962 216.152C104.083 215.808 104.188 215.43 104.272 215.01C104.36 214.593 104.402 214.17 104.402 213.74C104.402 213.18 104.24 212.74 103.917 212.417C103.591 212.096 103.056 211.934 102.31 211.934ZM116.504 219.172L113.295 207.304H120.489L121.33 214.088H121.395L125.335 207.304H132.96L121.781 222.682H113.897L116.504 219.172ZM134.362 207.304H145.994C146.582 207.304 147.149 207.364 147.695 207.485C148.243 207.606 148.727 207.83 149.149 208.152C149.572 208.475 149.913 208.922 150.171 209.487C150.43 210.056 150.559 210.783 150.559 211.674C150.559 212.162 150.523 212.652 150.451 213.149C150.378 213.645 150.276 214.162 150.141 214.7C150.005 215.239 149.835 215.811 149.635 216.421C149.435 217.032 149.197 217.696 148.926 218.413C148.637 219.203 148.262 219.87 147.795 220.416C147.329 220.962 146.817 221.398 146.254 221.727C145.694 222.059 145.116 222.299 144.521 222.449C143.925 222.6 143.354 222.676 142.808 222.676H130.164L134.362 207.304ZM137.894 218.591H140.351C140.724 218.591 141.062 218.523 141.364 218.387C141.667 218.25 141.932 218.069 142.16 217.836C142.391 217.607 142.58 217.341 142.732 217.04C142.884 216.74 143.001 216.423 143.087 216.092C143.245 215.449 143.357 214.958 143.421 214.63C143.486 214.299 143.518 214.041 143.518 213.855C143.518 213.338 143.389 212.965 143.132 212.736C142.874 212.506 142.414 212.39 141.753 212.39H139.6L137.894 218.591ZM167.812 207.304H179.338V222.682H172.705V220.442H167.276L165.94 222.682H158.574L167.812 207.304ZM172.703 211.201H172.66L169.256 216.738H172.703V211.201ZM184.463 207.304H200.339L199.068 212.172H189.89L189.459 213.894H198.635L197.776 217.211H188.598L188.232 218.591H197.408L196.351 222.684H180.5L184.463 207.304ZM202.621 207.304H215.328C216.06 207.304 216.656 207.378 217.116 207.53C217.575 207.682 217.938 207.903 218.203 208.197C218.47 208.493 218.647 208.851 218.741 209.274C218.835 209.699 218.88 210.182 218.88 210.728C218.88 211.704 218.754 212.545 218.505 213.249C218.255 213.955 217.906 214.538 217.462 215.005C217.016 215.472 216.493 215.816 215.889 216.04C215.284 216.263 214.64 216.373 213.95 216.373H212.787L217.247 222.684H209.557L206.367 217.341L204.988 222.684H198.419L202.621 207.304ZM207.144 214.8H210.095C210.466 214.8 210.791 214.735 211.064 214.606C211.337 214.477 211.56 214.31 211.733 214.11C211.903 213.91 212.035 213.68 212.12 213.432C212.206 213.181 212.249 212.929 212.249 212.689C212.249 212.316 212.127 212.043 211.881 211.87C211.639 211.697 211.285 211.611 210.828 211.611H207.963L207.144 214.8ZM222.48 207.304H238.356L237.085 212.172H227.907L227.476 213.894H236.652L235.791 217.211H226.615L226.248 218.591H235.424L234.368 222.684H218.516L222.48 207.304ZM237.752 218.182C237.752 217.622 237.803 217.008 237.913 216.339C238.02 215.672 238.178 214.982 238.386 214.272C238.593 213.564 238.85 212.858 239.15 212.161C239.454 211.464 239.797 210.807 240.186 210.188C240.646 209.457 241.187 208.869 241.812 208.421C242.437 207.977 243.132 207.641 243.901 207.409C244.671 207.178 245.497 207.031 246.378 206.958C247.262 206.887 248.191 206.852 249.169 206.852C250.145 206.852 251.129 206.884 252.119 206.948C253.109 207.013 254.009 207.207 254.813 207.53C255.617 207.853 256.27 208.346 256.772 209.005C257.276 209.665 257.526 210.599 257.526 211.805C257.526 212.366 257.472 212.994 257.357 213.7C257.242 214.406 257.073 215.134 256.851 215.887C256.63 216.64 256.355 217.4 256.032 218.158C255.709 218.92 255.34 219.623 254.923 220.27C254.504 220.946 253.955 221.472 253.274 221.852C252.59 222.233 251.849 222.516 251.045 222.703C250.24 222.887 249.41 223.007 248.556 223.058C247.701 223.11 246.887 223.134 246.11 223.134C244.918 223.134 243.814 223.1 242.793 223.034C241.772 222.971 240.888 222.777 240.142 222.456C239.396 222.133 238.81 221.64 238.386 220.98C237.963 220.322 237.752 219.389 237.752 218.182ZM248.393 211.934C248.134 211.934 247.884 211.944 247.637 211.967C247.393 211.989 247.155 212.051 246.929 212.149C246.697 212.249 246.48 212.405 246.272 212.613C246.063 212.821 245.866 213.106 245.681 213.461C245.535 213.734 245.4 214.039 245.27 214.377C245.141 214.714 245.028 215.052 244.926 215.388C244.826 215.725 244.749 216.045 244.691 216.347C244.632 216.651 244.602 216.893 244.602 217.079C244.602 217.481 244.663 217.809 244.784 218.059C244.907 218.308 245.062 218.505 245.248 218.649C245.434 218.793 245.647 218.893 245.884 218.952C246.122 219.009 246.346 219.038 246.564 219.038C246.95 219.038 247.288 219.015 247.577 218.973C247.864 218.933 248.118 218.856 248.343 218.747C248.565 218.639 248.762 218.492 248.935 218.306C249.103 218.122 249.271 217.875 249.431 217.575C249.488 217.475 249.573 217.297 249.69 217.048C249.803 216.798 249.924 216.497 250.043 216.152C250.166 215.808 250.273 215.43 250.355 215.01C250.444 214.593 250.484 214.17 250.484 213.74C250.484 213.18 250.321 212.74 250.001 212.417C249.673 212.096 249.14 211.934 248.393 211.934ZM270.839 207.304H283.912C284.831 207.304 285.56 207.394 286.091 207.572C286.621 207.75 287.02 207.982 287.286 208.262C287.551 208.543 287.718 208.846 287.782 209.177C287.847 209.505 287.881 209.828 287.881 210.146C287.881 211.238 287.721 212.111 287.406 212.763C287.091 213.417 286.669 213.916 286.148 214.26C285.624 214.606 285.028 214.832 284.36 214.94C283.693 215.047 283.006 215.104 282.305 215.104V215.144C282.78 215.16 283.25 215.194 283.715 215.252C284.18 215.309 284.607 215.431 284.985 215.619C285.366 215.804 285.678 216.071 285.912 216.415C286.148 216.761 286.267 217.219 286.267 217.794C286.267 218.927 286.067 219.82 285.663 220.463C285.263 221.109 284.75 221.598 284.125 221.928C283.499 222.259 282.814 222.466 282.069 222.553C281.323 222.642 280.612 222.682 279.937 222.682H266.646L270.839 207.304ZM274.198 219.172H277.364C277.797 219.172 278.146 219.13 278.419 219.043C278.692 218.957 278.9 218.838 279.044 218.688C279.185 218.54 279.285 218.358 279.335 218.159C279.385 217.959 279.412 217.736 279.412 217.492C279.412 217.219 279.309 216.996 279.101 216.825C278.892 216.654 278.537 216.567 278.035 216.567H274.911L274.198 219.172ZM275.662 213.829H278.892C279.28 213.829 279.59 213.79 279.819 213.711C280.049 213.632 280.225 213.525 280.344 213.388C280.467 213.252 280.546 213.097 280.58 212.926C280.617 212.757 280.635 212.574 280.635 212.387C280.635 211.728 280.06 211.398 278.912 211.398H276.327L275.662 213.829ZM288.48 218.182C288.48 217.622 288.533 217.008 288.643 216.339C288.748 215.672 288.908 214.982 289.116 214.272C289.325 213.564 289.58 212.858 289.882 212.161C290.186 211.464 290.528 210.807 290.916 210.188C291.376 209.457 291.919 208.869 292.545 208.421C293.17 207.977 293.863 207.641 294.634 207.409C295.403 207.178 296.226 207.031 297.11 206.958C297.993 206.887 298.922 206.852 299.901 206.852C300.877 206.852 301.862 206.884 302.852 206.948C303.842 207.013 304.74 207.207 305.544 207.53C306.349 207.853 307 208.346 307.505 209.005C308.008 209.665 308.26 210.599 308.26 211.805C308.26 212.366 308.201 212.994 308.088 213.7C307.975 214.406 307.802 215.134 307.584 215.887C307.36 216.64 307.089 217.4 306.764 218.158C306.442 218.92 306.073 219.623 305.654 220.27C305.236 220.946 304.687 221.472 304.005 221.852C303.324 222.233 302.581 222.516 301.776 222.703C300.973 222.887 300.143 223.007 299.289 223.058C298.434 223.11 297.62 223.134 296.843 223.134C295.651 223.134 294.545 223.1 293.524 223.034C292.503 222.971 291.62 222.777 290.875 222.456C290.127 222.133 289.541 221.64 289.118 220.98C288.692 220.322 288.48 219.389 288.48 218.182ZM299.121 211.934C298.864 211.934 298.612 211.944 298.367 211.967C298.121 211.989 297.884 212.051 297.657 212.149C297.425 212.249 297.208 212.405 297 212.613C296.792 212.821 296.595 213.106 296.409 213.461C296.265 213.734 296.13 214.039 296 214.377C295.871 214.714 295.755 215.052 295.655 215.388C295.554 215.725 295.475 216.045 295.417 216.347C295.362 216.651 295.332 216.893 295.332 217.079C295.332 217.481 295.391 217.809 295.514 218.059C295.637 218.308 295.792 218.505 295.978 218.649C296.162 218.793 296.375 218.893 296.612 218.952C296.85 219.009 297.076 219.038 297.292 219.038C297.678 219.038 298.016 219.015 298.304 218.973C298.593 218.933 298.846 218.856 299.072 218.747C299.294 218.639 299.492 218.492 299.662 218.306C299.833 218.122 299.998 217.875 300.159 217.575C300.218 217.475 300.303 217.297 300.418 217.048C300.531 216.798 300.652 216.497 300.773 216.152C300.896 215.808 301.001 215.43 301.085 215.01C301.172 214.593 301.214 214.17 301.214 213.74C301.214 213.18 301.051 212.74 300.728 212.417C300.405 212.096 299.869 211.934 299.121 211.934ZM311.849 207.304H318.503L315.899 217.405H322.577L321.197 222.684H307.888L311.849 207.304ZM327.295 207.304H333.885L329.706 222.682H323.221L327.295 207.304ZM335.264 207.304H341.962L341.318 218.374H341.36L346.27 207.304H353.508L345.236 222.682H335.261L335.264 207.304ZM355.037 207.304H361.629L357.45 222.682H350.965L355.037 207.304ZM368.177 207.304H379.701V222.682H373.067V220.442H367.64L366.306 222.682H358.938L368.177 207.304ZM373.066 211.201H373.024L369.622 216.738H373.069L373.066 211.201ZM385.193 207.304H392.757L394.136 216.221H394.18L396.502 207.304H403.136L398.999 222.682H391.676L389.867 214.669H389.823L387.695 222.682H381.059L385.193 207.304ZM403.092 218.182C403.092 217.622 403.146 217.008 403.257 216.339C403.362 215.672 403.522 214.982 403.732 214.272C403.939 213.564 404.194 212.858 404.496 212.161C404.799 211.464 405.142 210.807 405.533 210.188C405.99 209.457 406.531 208.869 407.158 208.421C407.783 207.977 408.477 207.641 409.248 207.409C410.017 207.178 410.84 207.031 411.725 206.958C412.609 206.887 413.538 206.852 414.515 206.852C415.492 206.852 416.476 206.884 417.466 206.948C418.456 207.013 419.354 207.207 420.158 207.53C420.963 207.853 421.615 208.346 422.118 209.005C422.621 209.665 422.872 210.599 422.872 211.805C422.872 212.366 422.815 212.994 422.704 213.7C422.588 214.406 422.418 215.134 422.197 215.887C421.975 216.64 421.701 217.4 421.379 218.158C421.056 218.92 420.685 219.623 420.268 220.27C419.85 220.946 419.301 221.472 418.619 221.852C417.936 222.233 417.193 222.516 416.388 222.703C415.57 222.89 414.739 223.008 413.901 223.058C413.047 223.108 412.231 223.134 411.456 223.134C410.264 223.134 409.156 223.1 408.136 223.034C407.117 222.971 406.234 222.777 405.486 222.456C404.74 222.133 404.155 221.64 403.732 220.98C403.304 220.322 403.092 219.389 403.092 218.182ZM413.733 211.934C413.476 211.934 413.228 211.944 412.979 211.967C412.738 211.989 412.499 212.051 412.271 212.149C412.039 212.249 411.824 212.405 411.616 212.613C411.407 212.821 411.209 213.106 411.023 213.461C410.868 213.758 410.731 214.064 410.613 214.377C410.483 214.714 410.37 215.052 410.268 215.388C410.168 215.725 410.089 216.045 410.033 216.347C409.976 216.651 409.945 216.893 409.945 217.079C409.945 217.481 410.007 217.809 410.128 218.059C410.249 218.308 410.404 218.505 410.59 218.649C410.777 218.793 410.99 218.893 411.228 218.952C411.464 219.009 411.69 219.038 411.906 219.038C412.294 219.038 412.632 219.015 412.919 218.973C413.208 218.933 413.46 218.856 413.685 218.747C413.909 218.639 414.105 218.492 414.277 218.306C414.447 218.122 414.615 217.875 414.773 217.575C414.83 217.475 414.917 217.297 415.032 217.048C415.143 216.798 415.266 216.497 415.387 216.152C415.508 215.808 415.613 215.43 415.699 215.01C415.786 214.593 415.828 214.17 415.828 213.74C415.828 213.18 415.663 212.74 415.342 212.417C415.017 212.096 414.479 211.934 413.733 211.934Z" fill="#0096D7"/>
<path d="M233.894 170.508H208.051H233.894ZM207.818 169.954L201.459 186.106L207.818 169.954ZM322.228 186.382L309.307 110.746H309.575H273.773L233.931 170.508H233.894V186.66H204.588H248.467L279.964 136.851L287.502 186.382" fill="#0096D7"/>
<path d="M199.975 170.506H238.739V186.658H199.975V170.506ZM341.506 111.359H405.285C409.765 111.359 413.306 111.797 415.896 112.673C418.487 113.55 420.432 114.666 421.726 116.034C423.023 117.4 423.827 118.889 424.142 120.5C424.457 122.113 424.615 123.69 424.615 125.229C424.615 130.554 423.842 134.81 422.302 137.995C420.761 141.184 418.71 143.615 416.156 145.298C413.596 146.979 410.691 148.084 407.434 148.61C404.178 149.134 400.832 149.395 397.401 149.395V149.605C399.712 149.677 402.006 149.851 404.283 150.13C406.557 150.411 408.625 151.007 410.482 151.917C412.337 152.826 413.845 154.123 415 155.805C416.16 157.484 416.735 159.728 416.735 162.527C416.735 168.062 415.756 172.402 413.792 175.555C411.831 178.706 409.327 181.089 406.283 182.701C403.238 184.313 399.888 185.327 396.248 185.747C392.604 186.17 389.138 186.38 385.847 186.38H321.017L341.506 111.359ZM357.897 169.254H373.341C375.444 169.254 377.158 169.044 378.49 168.623C379.821 168.203 380.837 167.626 381.538 166.89C382.241 166.155 382.714 165.3 382.958 164.315C383.2 163.336 383.326 162.251 383.326 161.057C383.326 159.728 382.819 158.641 381.805 157.798C380.787 156.956 379.056 156.538 376.604 156.538H361.364L357.897 169.254ZM365.042 143.196H380.803C382.695 143.196 384.202 143.004 385.321 142.621C386.44 142.237 387.301 141.712 387.897 141.042C388.49 140.378 388.876 139.624 389.054 138.785C389.228 137.944 389.317 137.07 389.317 136.159C389.317 132.938 386.514 131.326 380.91 131.326H368.3L365.042 143.196Z" fill="#0096D7"/>
</svg>
