<svg width="480" height="320" viewBox="0 0 480 320" fill="none" xmlns="http://www.w3.org/2000/svg">
<g clip-path="url(#clip0_730_18582)">
<mask id="mask0_730_18582" style="mask-type:luminance" maskUnits="userSpaceOnUse" x="-846" y="33" width="1353" height="1763">
<path d="M-845.5 33.5176H506.89V1795.72H-845.5V33.5176Z" fill="white"/>
</mask>
<g mask="url(#mask0_730_18582)">
<path d="M238.682 160.908L233.926 170.996H229.625L229.167 160.908H229.003L226.909 170.996H222.398L225.536 155.903H232.967L233.081 164.578H233.268L236.945 155.903H244.588L241.459 170.996H236.694L238.873 160.908H238.682ZM255.151 155.903H262.029L263.09 170.994H258.152L258.088 168.323H253.669L252.465 170.994H247.829L255.151 155.903ZM258.136 165.174L257.851 159.46H257.676L254.896 165.174H258.136ZM293.076 159.463H289.77L290.51 155.903H302.051L301.313 159.463H298.005L295.608 170.995H290.672L293.076 159.463ZM321.731 155.903H328.422L329.895 164.913H330.038L331.912 155.903H336.598L333.458 170.994H326.776L325.517 161.768H325.351L323.429 170.994H318.593L321.731 155.903Z" fill="#365181"/>
<mask id="mask1_730_18582" style="mask-type:luminance" maskUnits="userSpaceOnUse" x="55" y="115" width="370" height="90">
<path d="M55.3906 204.496H424.625V115.48H55.3906V204.496Z" fill="white"/>
</mask>
<g mask="url(#mask1_730_18582)">
<path d="M272.918 155.905H280.199C283.751 155.905 285.01 157.879 285.01 159.755C285.01 162.601 282.613 163.429 281.426 163.646V163.857C282.87 164.039 283.521 165.064 283.521 166.33C283.521 167.318 283.3 168.34 283.3 169.649C283.3 170.166 283.398 170.801 283.43 170.995H278.155C278.143 170.913 278.077 170.414 278.077 170.121C278.077 168.855 278.423 167.967 278.423 166.583C278.423 165.947 278.171 165.337 277.167 165.337H275.892L274.726 170.995H269.776L272.918 155.905ZM277.811 162.191C279.207 162.191 279.801 161.499 279.801 160.586C279.801 159.841 279.37 159.465 278.362 159.465H277.121L276.554 162.191H277.811ZM308.309 155.905H313.243L310.108 170.995H305.17L308.309 155.905ZM58.5345 155.905H63.466L61.0708 167.436H65.8975L65.194 170.995H55.3926L58.5345 155.905ZM115.618 155.905H120.549L119.201 162.391H119.327L123.698 155.905H128.953L123.5 163.026L126.228 170.995H120.977L118.931 164.292H118.808L117.414 170.995H112.476L115.618 155.905ZM141.205 165.337H138.264L137.087 170.997H132.151L135.29 155.904H140.224L139.047 161.567H141.991L143.17 155.904H148.101L144.964 170.997H140.028L141.205 165.337ZM175.9 155.905H186.268L185.528 159.465H180.091L179.629 161.688H184.558L183.814 165.251H178.889L178.436 167.436H184.121L183.374 170.995H172.758L175.9 155.905ZM156.989 155.905H167.359L166.619 159.465H161.18L160.72 161.688H165.649L164.903 165.251H159.978L159.525 167.436H165.21L164.463 170.995H153.849L156.989 155.905ZM80.9314 155.7C84.6038 155.7 86.5823 157.772 86.5823 161.028C86.5823 164.989 84.5354 171.207 78.0672 171.207C74.495 171.207 72.414 169.233 72.414 165.907C72.414 161.524 74.6794 155.7 80.9314 155.7ZM78.5932 167.434C80.7561 167.434 81.6804 162.043 81.6804 160.8C81.6804 160.126 81.3753 159.473 80.4031 159.473C78.1674 159.473 77.3091 164.967 77.3091 166.098C77.3091 167.177 77.9967 167.434 78.5932 167.434ZM195.671 155.905H201.258C206.024 155.905 207.995 158.571 207.995 161.524C207.995 167.131 204.464 170.995 198.542 170.995H192.525L195.671 155.905ZM198.196 167.436H199.635C201.636 167.436 203.027 164.798 203.027 161.54C203.027 160.365 202.497 159.465 200.735 159.465H199.854L198.196 167.436ZM105.406 165.337C104.582 169.396 101.601 171.204 98.1384 171.204C94.4864 171.204 92.4921 169.151 92.4921 165.902C92.4921 162.099 94.4273 155.699 101.018 155.699C104.035 155.699 106.446 156.817 106.371 160.032C106.36 160.497 106.262 161.259 106.221 161.567H101.626C101.642 161.473 101.727 161.052 101.727 160.613C101.727 159.761 101.1 159.474 100.518 159.474C98.2659 159.474 97.4053 164.9 97.4053 166.118C97.4053 167.029 97.9334 167.436 98.6665 167.436C99.4202 167.436 100.126 166.851 100.725 165.337H105.406ZM352.274 166.477C351.855 166.901 351.855 166.899 352.274 166.477V166.477Z" fill="#365181"/>
<path d="M389.95 150.186L405.225 150.571L387.083 160.837C388.074 157.185 388.957 153.856 389.95 150.186ZM389.866 132.231L387.222 146.081H374.661L389.866 132.231ZM424.627 146.081H391.109C395.505 129.527 399.485 115.484 399.485 115.484C399.485 115.484 384.395 131.619 370.998 146.081L238.141 146.359C238.147 146.359 238.195 146.359 238.28 146.361L238.141 146.359L367.701 149.626C357.736 160.224 352.484 166.269 352.274 166.478L352.324 166.43C352.75 166.048 370.689 149.701 370.689 149.701L386.455 150.097L384.083 162.535L310.2 204.334C310.018 204.434 309.913 204.491 309.904 204.5C309.904 204.5 368.571 173.673 383.384 166.182C383.384 166.182 378.184 193.314 378.184 193.433C378.184 193.426 378.188 193.408 378.193 193.38L378.184 193.433L378.25 193.166C378.723 191.397 381.842 180.733 386.077 164.939C405.359 155.104 424.627 146.081 424.627 146.081Z" fill="#365181"/>
</g>
</g>
</g>
<defs>
<clipPath id="clip0_730_18582">
<rect width="480" height="320" fill="white"/>
</clipPath>
</defs>
</svg>
