<svg width="480" height="320" viewBox="0 0 480 320" fill="none" xmlns="http://www.w3.org/2000/svg">
<path d="M79.0234 119.086H91.959L146.085 165.898V177.266L79.0234 119.086ZM101.742 119.086H114.678L146.085 145.983V157.416L101.742 119.086ZM124.461 119.086H137.396L146.084 126.317V137.75L124.461 119.086ZM160.326 193.812H162.422V195.178C162.422 197.076 163.288 197.986 166.068 197.986H172.996C176.233 197.986 177.19 197.182 177.19 194.401C177.19 191.968 176.371 191.353 173.589 191.353H169.352C162.538 191.353 160.304 190.87 160.304 185.733C160.304 181.318 162.537 180.327 167.14 180.327H171.949C177.487 180.327 178.877 181.987 178.877 185.439V186.106H176.78C176.735 183.031 176.462 182.469 170.604 182.469H168.235C163.927 182.469 162.4 182.737 162.4 185.921C162.4 188.222 163.016 188.996 166.503 188.996H173.112C177.463 188.996 179.287 190.469 179.287 193.76V195.016C179.287 199.78 175.961 200.127 172.656 200.127H166.457C163.198 200.127 160.325 199.46 160.325 195.231L160.326 193.812ZM182.364 191.566C182.364 186.617 185.326 186.054 188.199 186.054H191.479C195.126 186.054 196.562 187.793 196.562 190.683V191.057H194.741V190.736C194.741 188.461 193.465 187.926 191.503 187.926H187.902C186.057 187.926 184.325 188.247 184.325 191.646V194.508C184.325 197.557 185.92 198.254 188.291 198.254H191.595C193.419 198.254 194.946 197.613 194.946 195.391V194.936H196.769V195.338C196.769 198.79 195.31 200.129 191.662 200.129H187.241C185.486 200.129 182.364 199.564 182.364 194.615L182.364 191.566ZM199.388 191.592C199.388 187.099 202.099 186.054 205.814 186.054H208.619C212.334 186.054 215.045 187.099 215.045 191.592V194.587C215.045 199.084 212.334 200.128 208.619 200.128H205.814C202.099 200.128 199.388 199.084 199.388 194.587V191.592ZM213.086 191.727C213.086 188.543 211.489 187.926 209.21 187.926H205.223C202.944 187.926 201.349 188.543 201.349 191.727V194.455C201.349 197.639 202.944 198.254 205.223 198.254H209.21C211.489 198.254 213.086 197.639 213.086 194.455V191.727ZM219.398 188.141H216.846V186.267H219.397V183.03H221.356V186.267H229.131V188.141H221.356V194.936C221.356 197.478 222.109 198.255 224.251 198.255H224.868C227.466 198.255 227.876 197.613 227.876 194.749V193.732H229.47V195.23C229.47 197.96 229.243 200.126 225.004 200.126H223.933C220.263 200.126 219.398 198.04 219.398 195.819V188.141ZM232.138 199.915H234.096V180.543H232.138V199.915ZM250.072 198.549H250.027C249.503 199.779 248.889 200.128 245.878 200.128H241.184C238.222 200.128 237.446 198.602 237.446 196.035V195.123C237.446 192.021 239.315 191.645 242.733 191.645H245.878C248.433 191.645 249.344 191.966 250.027 193.278H250.072V190.709C250.072 188.249 248.751 187.928 245.743 187.928H242.871C240.41 187.928 239.93 188.622 239.93 189.747V190.229H237.971V189.559C237.971 187.069 239.315 186.054 242.825 186.054H245.924C249.571 186.054 252.034 186.696 252.034 190.762V199.914H250.072V198.549ZM250.072 195.632C250.072 193.758 248.66 193.519 245.651 193.519H242.644C240.114 193.519 239.407 193.946 239.407 195.659V196.086C239.407 197.613 239.863 198.254 242.552 198.254H245.15C248.705 198.254 250.072 197.96 250.072 196.247V195.632ZM255.496 186.267H257.32V188.621H257.366C258.094 186.509 259.621 186.055 262.06 186.055H265C268.669 186.055 269.831 188.221 269.831 190.684V199.912H267.872V191.243C267.872 189.237 267.392 187.927 263.587 187.927H263.087C258.504 187.927 257.457 188.942 257.457 192.155V199.912H255.496V186.267ZM287.858 199.914H286.035V197.748H285.989C285.419 199.404 283.825 200.128 281.772 200.128H279.04C275.482 200.128 273 199.084 273 194.376V191.968C273 187.605 274.435 186.054 279.153 186.054H282.139C284.373 186.054 285.441 186.669 285.853 188.087H285.9V180.542H287.858V199.914ZM274.958 194.349C274.958 196.997 275.665 198.254 278.856 198.254H282.048C284.964 198.254 285.9 196.809 285.9 194.322V191.727C285.9 188.461 284.281 187.927 281.638 187.927H278.994C276.304 187.927 274.958 188.516 274.958 191.673V194.349ZM294.08 183.86C294.08 185.761 293.737 187.017 291.528 187.017V185.466C292.324 185.466 292.529 185.143 292.529 184.019H291.665V180.543H294.08V183.86ZM296.476 195.205H298.299V195.873C298.299 197.559 299.051 198.253 301.056 198.253H305.25C308.191 198.253 309.124 198.121 309.124 196.087V195.981C309.124 194.669 308.806 193.948 306.459 193.948H300.419C297.66 193.948 296.635 192.904 296.635 190.309V189.505C296.635 187.284 297.706 186.053 302.537 186.053H305.547C309.968 186.053 310.584 187.554 310.584 189.479V190.2H308.76V190.067C308.76 187.981 307.576 187.927 305.431 187.927H302.013C299.211 187.927 298.596 188.249 298.596 189.799V190.309C298.596 191.432 298.914 192.074 300.965 192.074H306.138C309.079 192.074 311.085 192.421 311.085 196.114V196.167C311.085 199.993 308.075 200.127 305.682 200.127H302.081C299.187 200.127 296.476 200.127 296.476 196.035V195.205ZM333.623 180.543H336.404L346.204 199.914H343.674L341.622 195.818H328.404L326.354 199.914H323.823L333.623 180.543ZM335.013 182.683L329.475 193.679H340.551L335.013 182.683ZM348.663 183.057H350.624V180.543H348.663V183.057ZM348.663 199.915H350.624V186.27H348.663V199.915ZM354.75 186.267H356.573V188.248H356.619C357.347 186.482 358.828 186.055 360.174 186.055H362.019C365.689 186.055 366.897 187.445 366.897 190.79V192.42H365.073V191.832C365.073 188.462 364.482 187.927 360.994 187.927H359.786C357.712 187.927 356.711 189.478 356.711 191.243V199.912H354.75V186.267ZM369.496 199.915H371.457V180.543H369.496V199.915ZM375.692 183.057H377.653V180.543H375.692V183.057ZM375.692 199.915H377.653V186.27H375.692V199.915ZM381.618 186.267H383.442V188.621H383.487C384.215 186.509 385.742 186.055 388.181 186.055H391.122C394.79 186.055 395.953 188.221 395.953 190.684V199.912H393.994V191.243C393.994 189.237 393.514 187.927 389.708 187.927H389.206C384.626 187.927 383.579 188.942 383.579 192.155V199.912H381.618V186.267ZM399.122 191.566C399.122 186.617 402.037 186.054 404.819 186.054H407.964C411.473 186.054 414.004 187.097 414.004 191.966V193.493H401.08V194.347C401.08 197.452 402.356 198.254 405.776 198.254H408.465C410.926 198.254 411.929 197.878 412.043 195.792H414.004V196.06C414.004 199.19 411.791 200.129 408.144 200.129H404.592C402.037 200.129 399.122 199.564 399.122 194.535V191.566ZM412.043 190.71C412.043 189.318 411.155 187.926 407.964 187.926H405.091C401.992 187.926 401.263 188.515 401.08 191.619H412.043V190.71Z" fill="black"/>
<path d="M145.862 201.023V192.953H96.3049C78.1618 192.946 63.4554 178.234 63.4554 160.089L63.4741 119.031H55.3848L55.387 160.025C55.3848 182.714 73.634 201.023 96.3264 201.023L145.862 201.023Z" fill="#E2241C"/>
<path d="M96.3113 186.89C81.5688 186.885 69.6172 174.837 69.6172 160.092C69.6172 160.085 69.6172 160.075 69.6223 160.071L69.6369 119.052H77.8662V160.071C77.8662 170.281 86.1108 178.575 96.3187 178.575H96.3932L145.862 178.534V186.89H96.3113ZM166.701 161.601H191.937V166.338H161.085V118.978H166.701V161.601ZM211.823 132.807C224.705 132.807 227.216 135.776 227.216 149.793C227.216 163.748 224.705 166.715 211.822 166.715C198.941 166.715 196.429 163.748 196.429 149.792C196.429 135.776 198.94 132.806 211.823 132.806M211.823 162.675C221.138 162.675 221.799 161.286 221.799 149.793C221.799 138.236 221.138 136.849 211.823 136.849C202.508 136.849 201.847 138.236 201.847 149.792C201.847 161.285 202.507 162.675 211.823 162.675ZM264.211 170.252C264.211 179.092 257.34 181.051 248.951 181.051C240.892 181.051 234.548 179.849 235.077 170.252H240.296C240.296 176.629 243.468 177.008 248.95 177.008C255.161 177.008 258.927 176.376 258.992 169.873V162.232H258.859C257.407 166.275 251.792 166.716 247.697 166.716C236.466 166.716 234.02 161.159 234.02 149.793C234.02 138.744 235.805 132.808 247.697 132.808C252.518 132.808 256.812 133.437 258.859 137.417L258.992 137.355V133.187H264.212L264.211 170.252ZM258.992 149.793C258.992 140.574 258.331 136.848 248.951 136.848C239.305 136.848 239.438 141.078 239.438 149.793C239.438 157.748 238.844 162.676 248.951 162.676C258.992 162.676 258.992 157.181 258.992 149.793ZM296.517 166.337V162.926L296.385 162.801C294.404 166.59 289.318 166.716 284.957 166.716C277.161 166.716 271.744 165.327 271.744 156.675C271.744 147.518 276.698 146.257 285.287 146.257C288.722 146.257 295.461 146.573 296.188 149.602H296.518V143.478C296.518 137.417 293.148 136.848 287.27 136.848C283.171 136.848 278.153 136.848 278.217 141.394V142.53H272.8V141.836C272.8 133.312 278.944 132.742 286.674 132.807C295.394 132.742 301.803 133.628 301.737 143.732V166.337H296.517ZM296.385 156.487C296.385 150.234 292.487 150.297 285.881 150.297C279.672 150.297 277.161 150.676 277.161 156.042C277.161 162.357 279.87 162.675 285.881 162.675C291.1 162.675 296.385 162.548 296.385 156.487ZM315.94 137.227H316.073C317.725 133.249 322.812 132.806 326.775 132.806C335.693 132.806 339.988 135.081 339.855 144.299V166.338H334.636V143.92C334.636 137.859 332.193 136.848 326.312 136.848C317.79 136.848 315.94 139.374 315.94 147.015V166.338H310.721V133.185H315.94V137.227ZM372.491 166.337V162.926L372.358 162.801C370.376 166.59 365.291 166.716 360.93 166.716C353.134 166.716 347.717 165.327 347.717 156.675C347.717 147.518 352.671 146.257 361.261 146.257C364.695 146.257 371.434 146.573 372.16 149.602H372.491V143.478C372.491 137.417 369.121 136.848 363.243 136.848C359.145 136.848 354.125 136.848 354.191 141.394V142.53H348.773V141.836C348.773 133.312 354.917 132.742 362.647 132.807C371.367 132.742 377.776 133.628 377.71 143.732V166.337H372.491ZM372.358 156.487C372.358 150.234 368.46 150.297 361.854 150.297C355.645 150.297 353.134 150.676 353.134 156.042C353.134 162.357 355.843 162.675 361.854 162.675C367.073 162.675 372.358 162.548 372.358 156.487ZM391.847 124.471H386.628V118.977H391.847V124.471ZM391.847 166.337H386.628V133.186H391.847V166.337ZM405.259 133.185L404.996 137.291L405.126 137.416C406.911 133.755 411.072 132.807 414.97 132.807C421.641 132.807 424.616 135.964 424.616 142.151V144.551H419.661V142.341C419.661 138.236 418.207 136.847 413.848 136.847C407.372 136.847 405.259 139.816 405.392 145.689V166.336H400.172V133.185H405.259Z" fill="#E2241C"/>
</svg>
