<svg width="480" height="320" viewBox="0 0 480 320" fill="none" xmlns="http://www.w3.org/2000/svg">
<path fill-rule="evenodd" clip-rule="evenodd" d="M111.884 199.143H154.401C150.365 192.418 148.045 184.544 148.045 176.131C148.045 141.6 176.037 113.611 210.57 113.611L424.616 114.599L413.568 153.117H371.34L347.084 237.663H301.644L325.89 153.117H283.227C287.263 159.844 289.582 167.715 289.582 176.132C289.582 210.655 261.591 238.649 227.06 238.649L225.936 238.643L55.3859 237.664L90.6775 114.599H136.127L111.884 199.143ZM192.845 176.133C192.845 161.791 204.473 150.167 218.813 150.167C233.157 150.167 244.784 161.792 244.784 176.133C244.784 190.474 233.158 202.101 218.813 202.101C204.472 202.101 192.845 190.475 192.845 176.133ZM212.799 180.601L227.272 151.573C229.056 152.444 230.257 154.346 230.257 156.465C230.257 157.469 229.989 158.411 229.507 159.213L217.05 179.947L221.258 179.297C221.479 179.264 221.702 179.247 221.926 179.248C224.277 179.248 226.183 181.157 226.183 183.508H237.907L236.853 182.181H234.709L234.237 181.532H240.469C241.142 182.653 242.338 183.427 243.72 183.508L243.52 184.157H217.162L228.063 192.522C229.273 193.449 230.032 194.928 230.032 196.57C230.032 197.983 229.469 199.286 228.543 200.213L212.203 184.157H194.11L193.909 183.508L212.799 180.6M113.305 81.3501H116.769L112.001 97.979H108.536L113.305 81.3501ZM290.394 84.1205L291.191 81.3501H283.226C281.042 81.3501 278.78 82.3977 278.145 84.6112L277.391 87.2476C276.872 89.0565 277.907 90.7045 280.493 90.7045H284.377C284.931 90.7045 285.699 91.0138 285.262 92.5292L285.073 93.1973C284.721 94.4194 283.629 95.2088 282.628 95.2088H275.113L274.319 97.979H282.658C284.854 97.979 287.407 97.1214 288.245 94.2093L288.834 92.1602C289.668 89.2591 287.596 87.9325 285.601 87.9325H281.941C281.425 87.9325 280.699 87.8043 280.993 86.774L281.27 85.8071C281.644 84.496 282.354 84.1205 283.34 84.1205H290.394ZM231.461 81.3477H234.926L230.156 97.979H226.692L231.461 81.3477ZM189.403 81.3477H192.87L188.1 97.979H184.636L189.403 81.3477ZM217.608 81.3477H221.072L217.099 95.2088H224.715L223.921 97.979H212.837L217.608 81.3477ZM140.689 81.3501L135.925 97.979H139.251L141.14 91.3989H149.591L147.704 97.979H151.029L155.798 81.3501H152.473L150.385 88.6286H141.932L144.019 81.3501H140.689ZM257.681 97.979L262.451 81.3501H274.237L273.443 84.1205H264.828L263.734 87.9325L270.889 87.9306L270.095 90.7025H262.941L261.649 95.2088H270.263L269.467 97.979H257.681ZM236.393 97.979L241.157 81.3477H245.499L248.984 93.8217C249.272 94.8464 249.272 95.2088 249.272 95.2088L253.249 81.3477H256.209L251.444 97.979H246.991L243.61 85.5106C243.367 84.6091 243.343 84.0381 243.343 84.0381L239.354 97.979H236.393ZM133.618 84.1205L134.416 81.3501H126.45C124.266 81.3501 122.005 82.3977 121.37 84.6112L120.615 87.2476C120.096 89.0565 121.133 90.7045 123.718 90.7045H127.6C128.155 90.7045 128.924 91.0138 128.487 92.5292L128.296 93.1973C127.945 94.4194 126.854 95.2088 125.852 95.2088H118.338L117.543 97.979H125.884C128.079 97.979 130.631 97.1214 131.47 94.2093L132.059 92.1602C132.893 89.2591 130.821 87.9325 128.824 87.9325H125.165C124.648 87.9325 123.923 87.8043 124.217 86.774L124.496 85.8071C124.87 84.496 125.579 84.1205 126.565 84.1205H133.618ZM99.4505 81.3477H102.914L98.9395 95.2088H106.558L105.764 97.979H94.6809L99.4505 81.3477ZM67.5195 84.1205C68.6079 84.1205 68.7874 85.0528 68.6146 85.6527L68.0633 87.5754C67.611 89.138 66.1966 89.6639 65.4293 89.6639H61.2129L62.8031 84.1205H67.5195ZM60.1573 81.3477L55.3848 97.979H58.8501L60.5309 92.0882H65.7788C67.4792 92.0882 70.4673 91.2587 71.1865 88.7499L72.0555 85.7183C72.9804 82.4933 70.1839 81.3477 68.9553 81.3477H60.1573ZM198.793 81.3501H207.592C208.821 81.3501 211.611 82.4909 210.691 85.7164L210.156 87.5848C209.405 90.2103 206.2 90.4692 206.2 90.4692C208.751 91.522 208.839 92.1415 208.519 94.5147C208.201 96.8878 208.541 97.8502 208.685 97.979H205.541C205.541 97.979 204.897 97.0841 205.341 94.7576C205.87 91.9612 205.039 91.7566 204.266 91.7417H199.26L197.485 97.979H194.021L198.793 81.3501ZM206.155 84.1205C207.244 84.1205 207.421 85.0528 207.251 85.6527L206.7 87.5754C206.319 88.6194 205.041 88.9677 204.272 88.9677H200.057L201.44 84.1205H206.155ZM180.477 97.979L178.746 81.3501H174.934L163.503 97.979H167.184L169.375 94.5119L176.87 94.5147L177.015 97.979H180.477ZM176.766 92.0199L176.436 84.1177C176.42 83.745 176.492 83.2609 176.492 83.2609L175.964 84.1205L170.951 92.0219L176.766 92.0199ZM79.7193 95.2062H84.4209C85.6718 95.2062 87.121 94.1942 87.6143 92.4762L89.3055 86.5761C89.7306 85.0996 88.4851 84.1421 87.7236 84.1439L82.9398 84.1532C81.6132 84.1559 80.1829 85.2586 79.8109 86.5544L78.202 92.1583C77.5985 94.2623 78.8094 95.2062 79.7193 95.2062ZM83.2902 81.3717H87.9599C90.3986 81.3717 93.2528 83.5925 92.4473 86.405L90.4357 93.4262C89.6555 96.147 86.6994 97.979 83.9498 97.979H80.2816C76.7807 97.979 74.1021 95.4582 75.0495 92.1583L76.8882 85.7463C77.6689 83.0274 80.5519 81.3717 83.2908 81.3717" fill="#1A3171"/>
</svg>
