<svg width="480" height="320" viewBox="0 0 480 320" fill="none" xmlns="http://www.w3.org/2000/svg">
<path d="M55.3848 65.4414H424.616V254.555H55.3848V65.4414Z" fill="white"/>
<path d="M55.3848 65.4414V254.555H424.616V65.4414H55.3848ZM150.99 87.7873H262.89V133.28H233.317V230.159H180.105V133.28H150.991L150.99 87.7873ZM266.993 88.0063H320.204V178.312C320.204 178.312 324.019 187.865 334.075 187.865C346.351 187.865 349.537 178.312 349.537 178.312V88.0063H402.075V183.985C402.075 183.985 400.52 232.206 334.076 232.206C271.764 232.206 266.995 183.985 266.995 183.985L266.993 88.0063ZM77.9362 88.8814H130.671V184.721H175.07V230.394H77.9374V88.8814" fill="#ED1C24"/>
</svg>
