<svg width="480" height="320" viewBox="0 0 480 320" fill="none" xmlns="http://www.w3.org/2000/svg">
<path d="M271.809 153.781C266.34 153.781 263.698 155.873 263.478 159.8H268.873C268.946 158.772 269.533 158.002 271.809 158.002C273.827 158.002 274.781 158.662 274.781 159.653C274.781 160.534 274.231 160.864 272.873 161.011L269.35 161.377C264.579 161.892 262.413 163.873 262.413 167.47C262.413 170.81 264.468 173.379 268.836 173.379C271.809 173.379 273.57 172.425 275.112 170.516V172.828H280.176V160.68C280.176 155.579 277.204 153.781 271.809 153.781M274.892 165.635C274.892 167.653 272.983 169.158 270.047 169.158C268.616 169.158 267.771 168.497 267.771 167.25C267.771 166.295 268.359 165.488 270.23 165.231L273.424 164.791C273.974 164.718 274.561 164.608 274.892 164.497V165.635ZM253.972 161.231C258.67 161.855 261.019 163.323 261.019 167.176C261.019 171.067 258.266 173.379 252.431 173.379C246.081 173.379 243.843 170.847 243.733 167.14H249.201C249.348 168.498 250.302 169.158 252.431 169.158C254.596 169.158 255.477 168.644 255.477 167.617C255.477 166.663 254.743 166.222 252.834 165.965L250.889 165.708C246.815 165.158 244.467 163.58 244.467 159.909C244.467 156.386 247.072 153.78 252.541 153.78C257.605 153.78 260.321 155.799 260.578 159.799H255.183C255 158.735 254.412 158.074 252.541 158.074C250.706 158.074 250.008 158.698 250.008 159.506C250.008 160.313 250.449 160.754 252.027 160.974L253.972 161.231ZM235.015 153.781C239.823 153.781 242.282 155.909 242.282 162.002V172.828H236.74V162.258C236.74 159.799 235.675 158.699 233.363 158.699C231.271 158.699 230.023 159.799 230.023 162.258V172.828H224.482V154.331H229.693V156.46C230.464 155.028 232.042 153.781 235.015 153.781ZM213.832 153.781C208.364 153.781 205.721 155.873 205.501 159.799H210.896C210.969 158.772 211.557 158.001 213.832 158.001C215.851 158.001 216.805 158.662 216.805 159.653C216.805 160.534 216.255 160.864 214.897 161.011L211.373 161.377C206.602 161.891 204.437 163.873 204.437 167.47C204.437 170.81 206.492 173.378 210.859 173.378C213.832 173.378 215.594 172.424 217.135 170.516V172.828H222.2V160.68C222.2 155.579 219.228 153.78 213.832 153.78M216.915 165.635C216.915 167.653 215.007 169.158 212.071 169.158C210.639 169.158 209.795 168.497 209.795 167.249C209.795 166.295 210.382 165.488 212.254 165.231L215.447 164.791C215.998 164.717 216.585 164.607 216.915 164.497V165.635ZM195.629 153.78C200.326 153.78 202.786 155.909 202.786 162.001V172.828H197.243V162.258C197.243 159.799 196.179 158.698 193.867 158.698C191.775 158.698 190.527 159.799 190.527 162.258V172.828H184.985V147.174H190.564V156.129C191.518 154.771 193.023 153.78 195.629 153.78ZM179.138 154.331H183.359V158.845H179.138V166.038C179.138 168.02 180.166 168.534 181.781 168.534C182.441 168.534 183.359 168.424 183.359 168.424V172.865C183.359 172.865 182.074 173.159 180.717 173.159C176.276 173.159 173.597 171.14 173.597 166.663V158.845H170.807V154.331H173.597V148.936H179.138V154.331ZM159.761 153.633C159.761 149.156 162.587 146.77 167.027 146.77C168.459 146.77 169.376 146.991 169.376 146.991V151.468C169.376 151.468 168.606 151.395 167.945 151.395C166.22 151.395 165.302 151.982 165.302 153.597V154.331H169.376V158.845H165.302V172.828H159.761V158.845H156.971V154.331H159.761V153.634M149.961 154.331H155.503V172.828H150.292V170.7C149.521 172.131 147.943 173.379 145.043 173.379C140.309 173.379 137.85 171.25 137.85 165.158V154.331H143.392V164.901C143.392 167.36 144.456 168.461 146.695 168.461C148.713 168.461 149.961 167.36 149.961 164.901V154.331H149.961ZM125.555 167.653H136.602V172.828H119.61V147.138H125.555V167.653H125.555ZM74.6509 179.251C85.3254 179.251 93.919 170.619 93.919 159.983C93.919 149.308 85.3254 140.715 74.6509 140.715C64.015 140.715 55.3828 149.308 55.3828 159.983C55.3828 170.619 64.015 179.251 74.6509 179.251ZM83.3216 168.306L84.9399 166.766H84.5547C80.4697 166.766 76.8085 165.416 74.6894 163.143C76.462 162.064 78.6585 161.563 81.7026 161.563C82.5124 161.563 83.6683 161.64 84.7472 161.756L85.6722 160.869C84.0919 160.677 82.5889 160.6 81.3176 160.6C80.2769 160.6 79.3523 160.639 78.3889 160.716L79.0827 159.868C79.6219 159.829 80.7782 159.791 81.5487 159.791C83.5912 159.791 84.9398 159.868 86.4815 160.099L87.3678 159.251C85.7489 158.981 83.514 158.827 81.4715 158.827C81.0478 158.827 80.5085 158.827 79.8146 158.866L80.3153 158.018H81.125C84.0147 158.018 86.1731 158.172 88.1382 158.519L89.0247 157.671C86.8282 157.286 84.1691 157.055 81.4714 157.055H80.8168L81.2405 156.245H81.9729C84.786 156.245 87.3293 156.476 89.7953 156.939L90.7204 156.053C87.9459 155.514 84.9786 155.244 81.78 155.244C80.3926 155.244 79.0055 155.32 77.695 155.436C76.1539 158.75 73.6874 160.677 70.9129 160.639C69.834 160.6 68.4849 160.138 66.7508 159.213L65.1324 158.288L65.6331 157.826L69.3711 159.444L70.1809 158.827L62.6276 155.398L61.4715 156.284L58.7738 155.167L58.8128 156.284C62.4348 157.941 63.9378 158.866 67.7532 161.602C72.7245 165.147 77.1558 167.074 83.3217 168.307M74.651 177.864C64.8243 177.864 56.7702 169.81 56.7702 159.983C56.7702 150.118 64.8243 142.103 74.651 142.103C84.5164 142.103 92.5318 150.118 92.5318 159.983C92.5318 169.81 84.5164 177.864 74.651 177.864ZM303.318 146.587C311.282 146.587 314.916 150.404 315.76 155.873H309.594C308.86 153.267 307.098 151.872 303.318 151.872C298.62 151.872 296.602 154.882 296.602 159.983C296.602 165.085 298.62 168.094 303.318 168.094C307.098 168.094 308.86 166.7 309.594 164.094H315.76C314.916 169.562 311.282 173.379 303.318 173.379C294.033 173.379 290.436 167.691 290.436 159.983C290.436 152.276 294.033 146.587 303.318 146.587ZM323.1 151.872H317.558V147.138H323.1V151.872ZM323.1 172.829H317.558V154.331H323.1V172.829ZM333.082 158.846V166.039C333.082 168.021 334.11 168.535 335.725 168.535C336.385 168.535 337.303 168.425 337.303 168.425V172.866C337.303 172.866 336.018 173.159 334.66 173.159C330.219 173.159 327.54 171.141 327.54 166.663V158.846H324.751V154.331H327.54V148.936H333.082V154.331H337.303V158.846L333.082 158.846ZM358.479 154.331L347.872 179.288H342L345.303 172.021L337.89 154.331H344.019L348.056 165.452L352.35 154.331H358.479V154.331ZM376.499 167.654V172.829H359.506V147.138H365.452V167.654H376.499ZM384.059 151.872H378.517V147.138H384.059V151.872ZM384.059 172.829H378.517V154.331H384.059V172.829ZM396.795 153.781C401.603 153.781 404.062 155.909 404.062 162.002V172.829H398.52V162.259C398.52 159.8 397.455 158.699 395.143 158.699C393.051 158.699 391.803 159.8 391.803 162.259V172.829H386.261V154.331H391.473V156.46C392.244 155.029 393.822 153.781 396.795 153.781ZM424.54 165.085H411.328C411.585 167.874 412.759 168.938 415.512 168.938C417.604 168.938 418.448 168.351 418.778 167.14H424.247C423.916 170.737 421.017 173.379 415.512 173.379C408.538 173.379 405.823 169.452 405.823 163.58C405.823 158.625 408.061 153.781 415.218 153.781C421.934 153.781 424.614 157.671 424.614 163.543C424.614 163.984 424.614 164.571 424.54 165.085M418.962 161.268C418.741 159.359 417.934 158.075 415.218 158.075C412.833 158.075 411.768 159.066 411.401 161.268H418.962Z" fill="#05164D"/>
</svg>
