<svg width="480" height="320" viewBox="0 0 480 320" fill="none" xmlns="http://www.w3.org/2000/svg">
<path d="M71.9536 159.065L71.705 159.575C70.7233 159.366 68.9301 158.685 67.0715 157.834L66.8098 158.305L67.582 158.724C70.3046 160.125 71.1946 160.426 72.7653 160.426C75.9067 160.426 78.2889 158.646 79.3884 155.504C81.3387 155.111 83.8518 154.941 86.823 154.941C89.3754 154.941 91.5874 155.072 94.4278 155.412L93.7079 156.302C92.3859 156.132 89.9644 155.962 88.2235 155.962C86.1424 155.962 84.8204 156.013 84.1529 156.054L83.7995 156.813C85.5534 156.735 86.1817 156.735 87.543 156.735C89.8466 156.735 91.6659 156.813 93.1582 156.944L92.4252 157.873C89.755 157.795 88.5246 157.756 86.522 157.756C85.4225 157.756 84.611 157.795 83.3021 157.834L82.9617 158.593C84.1005 158.515 85.6712 158.475 87.3335 158.475C88.9042 158.475 90.7759 158.514 91.8754 158.553L91.1555 159.496C90.3964 159.445 88.9042 159.445 87.7524 159.445C85.9329 159.445 83.6293 159.537 82.4512 159.707L82.1109 160.387C84.2706 160.178 85.6319 160.086 88.0141 160.086C88.9434 160.086 89.5455 160.086 90.6057 160.178L89.7942 161.147C88.3544 161.068 87.8832 161.068 87.3335 161.068C83.302 161.068 80.6581 161.657 78.0271 163.149C80.4486 165.571 84.48 167.22 88.0926 167.22C88.3935 167.22 88.5638 167.22 89.3361 167.181L87.5821 168.922C77.9878 166.422 76.2863 165.741 67.4904 160.518C64.0087 158.516 61.1684 157.154 58.8646 156.474L59.1658 155.414C59.7156 155.505 60.9067 155.846 62.0062 156.225L62.5297 155.073L71.9536 159.065ZM57.464 159.916C57.464 170.452 66.0504 179.039 76.5871 179.039C87.2024 179.039 95.7889 170.492 95.7889 159.955C95.7889 149.17 87.294 140.714 76.4563 140.714C66.0504 140.714 57.464 149.379 57.464 159.916ZM97.8701 159.916C97.8701 171.683 88.3935 181.12 76.5871 181.12C64.8986 181.12 55.3828 171.644 55.3828 159.955C55.3828 148.018 64.8986 138.633 76.9667 138.633C88.4328 138.633 97.8701 148.279 97.8701 159.916M297.165 164.287C296.314 164.549 296.013 164.628 295.332 164.85C294.511 164.985 293.698 165.168 292.898 165.4C290.751 165.95 289.678 166.801 289.678 168.123C289.678 169.431 290.699 170.191 292.4 170.191C295.634 170.191 297.165 168.751 297.165 165.74V164.287ZM284.416 160.177C284.455 155.583 288.068 152.821 294.141 152.821C300.476 152.821 303.579 155.452 303.579 160.806V171.212C303.579 172.952 303.579 172.952 304.128 174.065H297.924L297.584 172.363C295.123 174.366 293.683 174.916 290.961 174.916C286.406 174.916 283.146 172.233 283.146 168.541C283.146 165.479 285.136 163.319 289.05 162.206C289.639 162.036 291.602 161.617 294.953 161.028C296.353 160.727 296.942 160.256 296.942 159.274C296.942 158.136 295.751 157.363 294.01 157.363C291.851 157.363 290.529 158.437 290.529 160.177H284.416ZM275.11 160.046C274.939 158.135 274.128 157.415 272.099 157.415C270.437 157.415 269.416 158.044 269.416 159.104C269.416 160.086 270.398 160.688 272.61 161.028L274.9 161.447C279.743 162.258 281.995 164.287 281.995 167.821C281.995 172.154 278.304 174.915 272.518 174.915C265.673 174.915 261.942 172.193 261.942 167.271H268.447V167.52C268.447 169.222 269.848 170.282 272.099 170.282C274.05 170.282 275.241 169.562 275.241 168.41C275.241 167.219 274.128 166.538 271.536 166.08L269.416 165.74C264.573 164.889 262.492 163.148 262.492 159.915C262.492 155.504 266.196 152.821 272.269 152.821C276.51 152.821 279.141 153.973 280.502 156.433C281.105 157.454 281.183 157.795 281.353 160.046L275.11 160.046ZM246.981 153.672L247.204 155.963C248.774 153.973 250.646 153.083 253.107 153.083C255.947 153.083 258.251 154.313 259.442 156.434C260.28 158.004 260.45 158.894 260.45 162.258V174.065H253.787V162.507C253.787 159.497 252.937 158.266 250.855 158.266C248.683 158.266 247.583 159.706 247.583 162.507V174.065H240.908V153.672H246.981ZM232.164 164.287C231.314 164.549 231.052 164.628 230.371 164.85C229.573 165.059 228.853 165.23 227.95 165.4C225.79 165.95 224.73 166.8 224.73 168.122C224.73 169.431 225.751 170.19 227.4 170.19C230.633 170.19 232.164 168.751 232.164 165.74V164.287ZM219.455 160.177C219.455 155.544 223.067 152.821 229.102 152.821C235.437 152.821 238.578 155.452 238.578 160.806V171.211C238.578 173.005 238.578 173.005 239.128 174.065H232.963L232.583 172.363C230.463 174.235 228.643 174.916 225.96 174.916C221.457 174.916 218.185 172.232 218.185 168.541C218.185 165.478 220.175 163.319 224.088 162.206C224.677 162.036 226.641 161.656 229.991 161.028C231.431 160.727 231.994 160.256 231.994 159.274C231.994 158.135 230.803 157.363 229.023 157.363C226.85 157.363 225.58 158.384 225.528 160.177H219.455ZM203.735 145.727V155.963C204.978 153.973 206.719 153.083 209.311 153.083C212.112 153.083 214.363 154.261 215.594 156.434C216.484 158.004 216.615 158.855 216.615 162.258V174.065H209.978V162.507C209.978 159.575 209.088 158.266 207.046 158.266C204.847 158.266 203.735 159.706 203.735 162.507V174.065H197.072V145.727H203.735ZM191.51 147.298V153.672H195.279V158.175H191.51V166.251C191.549 169.222 191.719 169.392 194.271 169.392H195.58V174.065H190.567C186.614 174.065 184.834 172.232 184.834 168.07V158.175H182.033V153.672H184.834V147.298L191.51 147.298ZM181.261 150.23H180.161C177.701 150.23 177.059 150.832 177.059 153.083V153.672H181.012V158.175H177.059V174.065H170.397V158.175H167.504V153.672H170.397V153.083C170.397 147.73 172.386 145.727 177.622 145.727H181.261V150.23ZM160.07 174.065L159.86 172.075C158.198 173.816 156.326 174.615 153.996 174.615C151.104 174.615 148.774 173.423 147.583 171.382C146.68 169.85 146.562 169.091 146.562 165.74V153.672H153.224V165.478C153.224 168.45 154.075 169.693 156.156 169.693C158.368 169.693 159.468 168.24 159.468 165.478V153.672H166.143V174.065H160.07ZM133.263 145.727V168.45H145.24V174.065H126.169V145.727M341.982 164.248C341.89 166.722 341.262 168.581 339.77 170.452C337.479 173.424 333.867 174.916 329.155 174.916C324.914 174.916 321.668 173.764 319.128 171.342C316.157 168.541 314.587 164.628 314.587 160.086C314.587 155.452 316.236 151.12 319.128 148.41C321.55 146.107 325.032 144.876 329.325 144.876C333.958 144.876 337.401 146.408 339.77 149.549C341.144 151.382 341.773 153.201 341.982 155.675H334.796C334.299 152.403 332.087 150.4 328.984 150.4C324.731 150.4 322.1 153.934 322.1 159.615C322.1 165.57 324.731 169.052 329.233 169.052C332.427 169.052 334.338 167.39 334.796 164.248M357.021 164.287C356.21 164.549 355.922 164.628 355.189 164.85C354.94 164.89 354.94 164.89 352.82 165.439C350.647 165.95 349.587 166.84 349.587 168.162C349.587 169.431 350.608 170.243 352.309 170.243C354.089 170.243 355.83 169.471 356.511 168.371C356.864 167.821 357.021 167.049 357.021 165.74L357.021 164.287ZM344.312 160.177C344.312 155.583 347.977 152.821 353.998 152.821C358.173 152.821 361.145 154.143 362.545 156.565C363.226 157.795 363.435 158.816 363.435 160.806V172.115C363.435 172.913 363.475 173.083 363.985 174.065H357.833L357.44 172.363C355.11 174.314 353.579 174.916 350.817 174.916C346.275 174.916 343.042 172.233 343.042 168.541C343.042 165.439 345.045 163.319 348.945 162.206C349.456 162.036 351.406 161.656 354.862 161.028C356.262 160.727 356.864 160.217 356.864 159.235C356.864 158.083 355.66 157.363 353.841 157.363C351.668 157.363 350.437 158.384 350.398 160.177M371.799 153.672L372.021 155.845C373.37 154.052 375.241 153.083 377.453 153.083C377.702 153.083 378.265 153.123 378.854 153.201V158.764C378.344 158.686 378.134 158.646 377.754 158.646C375.883 158.646 374.351 159.405 373.37 160.806C372.65 161.918 372.44 162.848 372.44 165.191V174.065H365.778V153.672M385.268 163.057C385.268 166.12 387.061 168.201 389.653 168.201C392.284 168.201 393.723 166.382 393.723 163.109C393.723 159.837 392.192 157.965 389.574 157.965C386.969 157.965 385.268 160.007 385.268 163.057V163.057ZM400.307 153.672V172.403C400.307 175.767 400.058 176.604 398.658 178.188C396.577 180.387 393.763 181.369 389.391 181.369C386.158 181.369 383.867 180.61 382.048 178.947C380.765 177.756 380.176 176.565 380.058 174.785H386.799C387.27 176.225 388.16 176.788 390.032 176.788C392.624 176.788 393.946 175.426 393.946 172.795V171.342C392.192 172.664 390.713 173.162 388.54 173.162C382.768 173.162 378.815 169.183 378.815 163.28C378.815 157.363 382.807 153.122 388.383 153.122C390.844 153.122 392.545 153.803 394.064 155.452L394.286 153.672M408.632 163.829C408.632 167.73 410.202 169.811 413.226 169.811C416.237 169.811 417.86 167.73 417.86 163.869C417.86 159.876 416.289 157.835 413.187 157.835C410.202 157.835 408.632 159.955 408.632 163.829H408.632ZM424.614 163.869C424.614 170.832 420.451 174.916 413.265 174.916C406.171 174.916 401.969 170.832 401.969 163.908C401.969 156.814 406.132 152.822 413.436 152.822C420.451 152.822 424.614 156.984 424.614 163.869Z" fill="#05164D"/>
</svg>
