<svg width="480" height="320" viewBox="0 0 480 320" fill="none" xmlns="http://www.w3.org/2000/svg">
<path d="M166.562 204.941C164.107 205.107 158.675 205.409 155.17 205.424C151.635 205.424 148.394 205.303 147.049 205.167C141.051 204.541 139.042 202.138 139.042 196.034V160.794C139.042 157.568 138.452 156.495 134.721 156.495H122.339V199.253C122.339 211.596 125.474 216.665 147.2 216.665C163.993 216.665 170.384 215.819 170.384 215.819C170.384 215.819 170.422 210.017 170.422 207.789C170.415 204.843 170.097 204.699 166.562 204.941M287.468 168.061H272.125C270.78 168.061 269.776 168.514 269.028 169.678L261.247 181.228H260.937L253.413 169.678C252.673 168.537 251.721 168.061 250.376 168.061H233.455L250.293 191.449L231.513 215.555H246.909C248.352 215.555 249.402 214.89 250.021 213.93L259.358 199.993H259.744L268.491 213.402C269.413 215.011 270.455 215.555 271.951 215.555H289.326L270.289 190.475L287.468 168.061ZM221.655 168.061H208.964V206.202C206.622 207.049 202.573 207.305 199.853 207.305C193.667 207.305 190.939 204.971 190.939 201.073V170.592C190.939 169.194 189.829 168.069 188.454 168.069H175.755V200.099C175.755 211.596 183.899 216.642 200.156 216.642C209.969 216.642 219.442 215.041 224.163 212.918V170.592C224.156 169.172 223.045 168.061 221.655 168.061ZM367.46 152.847H355.705V163.143H370.905V156.42C370.897 153.224 370.376 152.847 367.46 152.847ZM423.558 167.804C419.924 167.313 414.923 166.973 409.167 166.973C400.774 167.011 391.686 167.759 386.073 169.799V215.547H401.257V183.26C401.257 180.118 403.048 177.859 406.13 177.391C408.275 177.058 411.426 176.922 413.495 176.945C417.748 176.99 421.767 177.375 423.89 177.987C423.89 177.987 424.26 178.07 424.464 177.904L424.615 177.443V169.005C424.615 168.235 424.396 167.925 423.558 167.804M367.46 168.061H355.705V215.555H370.905V171.883C370.897 168.839 370.142 168.061 367.46 168.061M318.062 167.003C311.74 167.003 303.913 168.016 298.217 169.882C298.006 169.95 297.938 170.108 297.938 170.342V178.259C297.938 179.423 298.346 179.974 299.079 179.974C299.539 179.989 300.106 179.702 300.846 179.392C305.462 177.383 310.584 176.431 316.816 176.431C324.431 176.431 325.345 177.662 325.345 180.223C325.345 182.361 325.201 182.422 322.119 183.253C315.146 185.239 306.958 187.06 300.385 190.716C295.792 193.262 294.138 197.802 294.138 202.629C294.138 213.107 300.544 216.635 314.769 216.635C326.727 216.635 335.377 215.101 340.529 213.024V181.281C340.536 169.368 328.782 167.003 318.062 167.003M325.345 201.156C325.345 205.115 324.529 208.144 317.488 208.144C311.717 208.144 309.632 205.885 309.632 201.119C309.632 197.998 311.452 196.163 316.181 194.312C319.218 193.088 322.225 192.046 325.345 190.92V201.156ZM93.2177 110.319L63.8619 145.628C63.5596 145.96 63.4463 146.361 63.5823 146.67C63.7182 147.003 64.0204 147.207 64.4434 147.207L109.807 147.214C110.215 147.214 110.502 146.867 110.502 146.482C110.502 146.081 110.313 145.847 109.912 145.756C108.281 145.371 99.3745 143.445 92.9759 141.511C89.0098 140.31 87.4613 136.903 88.4963 132.355C89.637 127.316 94.4716 111.12 94.4868 111.075C94.6001 110.742 94.5245 110.319 94.1771 110.153C93.7917 109.942 93.4593 110.04 93.2177 110.319Z" fill="#00ABBF"/>
<path d="M87.3544 103.336C104.918 103.336 119.211 117.636 119.211 135.336C119.211 152.877 104.918 167.192 87.3544 167.192C69.6774 167.192 55.3848 152.877 55.3848 135.336C55.3848 117.644 69.6774 103.336 87.3544 103.336ZM87.3544 107.241C71.853 107.241 59.2827 119.812 59.2827 135.343C59.2827 150.83 71.853 163.4 87.3544 163.4C102.856 163.4 115.433 150.83 115.433 135.343C115.433 119.691 102.856 107.242 87.3544 107.242" fill="#00ABBF"/>
</svg>
