<svg width="480" height="320" viewBox="0 0 480 320" fill="none" xmlns="http://www.w3.org/2000/svg">
<path d="M95.422 129.16C112.772 129.16 121.883 139.457 121.883 153.786C121.883 173.687 102.459 190.84 81.4916 190.84C66.2189 190.84 55.3848 181.556 55.3848 166.873C55.3848 149.542 73.1627 129.16 95.422 129.16Z" fill="#C32537"/>
<path d="M79.6017 139.773L66.4774 171.564C73.299 165.302 82.9773 159.741 92.0716 159.243L100.075 139.773H79.6017ZM88.9778 167.948C76.8894 168.021 70.6288 171.665 64.4375 176.87H103.413L107.13 167.948H88.9778Z" fill="white"/>
<path d="M215.185 143.029C211.482 143.045 204.908 143.31 199.982 146.475C196.733 148.562 194.536 151.597 192.121 157.6C189.706 163.603 189.462 166.638 191.032 168.725C193.752 172.342 201.672 172.17 204.861 172.17C208.05 172.17 215.832 172.342 221.462 168.725C223.973 167.111 225.856 164.925 227.697 161.246H212.565L211.369 164.22C210.868 165.465 208.999 166.468 207.178 166.468C205.357 166.468 204.295 165.465 204.795 164.22L210.165 150.871C210.666 149.625 212.535 148.623 214.356 148.623C216.177 148.623 217.239 149.625 216.738 150.871L215.671 153.524H230.759C231.741 150.101 231.578 148.025 230.412 146.475C227.693 142.858 219.772 143.03 216.583 143.03C216.184 143.03 215.714 143.028 215.185 143.029ZM253.412 143.029C249.709 143.045 243.135 143.31 238.209 146.475C234.961 148.562 232.763 151.597 230.348 157.6C227.934 163.603 227.689 166.638 229.259 168.725C231.979 172.342 239.899 172.17 243.088 172.17C246.277 172.17 254.06 172.342 259.689 168.725C262.938 166.638 265.136 163.603 267.55 157.6C269.965 151.597 270.209 148.562 268.64 146.475C265.92 142.858 257.999 143.03 254.81 143.03C254.412 143.03 253.941 143.028 253.412 143.029ZM407.34 143.029C403.637 143.045 397.063 143.31 392.137 146.475C388.888 148.562 386.691 151.597 384.276 157.6C381.861 163.603 381.213 166.926 382.783 169.013C385.503 172.63 392.415 172.17 395.603 172.17C400.562 172.17 404.92 170.605 408.355 167.69C408.355 170.579 408.364 171.324 408.364 171.324C408.364 171.324 413.173 171.34 416.406 171.34L422.294 157.01L404.339 156.996L402.132 162.473L405.521 162.478L404.821 164.219C404.32 165.464 402.451 166.467 400.63 166.467C398.809 166.467 396.321 166.57 396.951 164.219L402.32 150.87C402.821 149.624 404.69 148.621 406.511 148.621C408.332 148.621 409.394 149.624 408.893 150.87L408.206 152.603H424.105C425.087 149.18 424.544 148.024 423.378 146.474C420.659 142.857 411.927 143.029 408.738 143.029C408.339 143.029 407.869 143.027 407.34 143.028L407.34 143.029ZM142.636 144.008L131.361 171.319H160.166L162.903 164.751H149.182L157.709 144.008L142.636 144.008ZM162.449 144.008L167.315 162.023L163.468 171.319H178.757L182.59 162.003L200.096 144.008H186.113L178.315 153.565V144.008L162.449 144.008ZM275.475 144.008L264.2 171.319H276.805L285.504 150.227L282.873 171.319H295.903L310.884 149.614L301.923 171.319H314.528L325.791 144.008H304.577L293.773 160.52L297.236 144.008H275.475ZM346.703 144.008L335.427 171.319H348.033L354.786 154.943L357.036 171.319H376.53L387.794 144.008H374.867L368.058 160.52L366.262 144.008H346.703ZM328.702 144.008L317.427 171.319H332.513L343.776 144.008H328.702ZM252.583 148.623C254.404 148.623 255.467 149.625 254.966 150.871L249.596 164.22C249.095 165.465 247.226 166.468 245.405 166.468C243.584 166.468 242.522 165.465 243.023 164.22L248.393 150.871C248.893 149.625 250.763 148.623 252.583 148.623Z" fill="black"/>
</svg>
