<svg width="480" height="320" viewBox="0 0 480 320" fill="none" xmlns="http://www.w3.org/2000/svg">
<path d="M93.1219 158.904H70.1913V114.324H55.3848V169.89H93.1219V158.904Z" fill="#00693F"/>
<path d="M91.9164 186.612C94.8621 187.248 97.8094 187.565 100.835 187.565C113.97 187.565 117.075 177.457 121.135 167.028L136.341 128.414H122.01L113.493 155.482H113.332L104.415 128.414H88.9707L105.77 170.849C104.735 174.509 102.027 176.58 98.5255 176.58C96.5347 176.58 94.7841 176.339 92.8713 175.703L91.9164 186.612Z" fill="#00693F"/>
<path d="M277.223 136.844H277.345L281.929 150.655H272.583L277.223 136.844ZM251.654 169.891H267.757L270.349 160.789H283.976L286.755 169.891H303.694L288.681 127.801H266.43L251.654 169.891ZM305.842 127.801H322V169.891H305.842V127.801ZM342.966 137.206H347.427C350.683 137.206 353.757 137.752 353.757 141.55C353.757 145.834 350.504 146.196 347.187 146.196H342.966V137.206ZM327.526 169.891H343.687V155.599H347.305C349.293 155.599 350.923 155.84 351.888 157.771C353.219 160.303 353.398 166.878 354.12 169.891H370.946C369.259 165.794 369.439 159.277 366.964 154.818C365.457 152.585 363.347 150.894 359.848 150.292V150.173C365.878 148.727 369.918 145.467 369.918 139.019C369.918 130.935 363.709 127.802 353.637 127.802H327.525V169.891H327.526Z" fill="black"/>
<path d="M375.686 209.817L380.959 193.065V183.106H367.969C360.327 183.106 359.609 182.267 357.417 182.101C357.088 182.078 356.663 182.245 356.47 182.51L348.945 192.472C348.578 192.962 348.224 193.904 347.623 193.865L345.377 193.681L349.507 179.914L346.867 178.932L349.507 177.95L345.377 164.184L347.623 164C348.224 163.962 348.577 164.901 348.945 165.391L356.47 175.353C356.663 175.619 357.088 175.782 357.417 175.764C359.607 175.6 360.966 174.759 367.969 174.759H380.959V164.795L375.686 148.043L371.534 139.268H373.61L375.3 140.066L391.317 164.797H392.598C393.159 164.797 393.257 163.468 393.859 163.468H397.894C398.298 163.468 398.686 164.039 398.686 164.468V167.66C398.686 168.028 398.494 168.641 398.145 168.641H393.606L397.483 174.821H409.544C414.301 174.821 419.554 175.15 423.567 177.664C424.984 178.542 424.945 179.321 423.567 180.198C419.554 182.716 414.301 183.042 409.544 183.042H397.483L393.606 189.221H398.145C398.494 189.221 398.686 189.834 398.686 190.202V193.394C398.686 193.826 398.298 194.399 397.894 194.399H393.859C393.257 194.399 393.16 193.066 392.598 193.066H391.317M219.262 149.273C219.262 142.982 215.758 138.445 210.503 138.445C204.932 138.445 201.827 143.221 201.827 148.714C201.827 151.803 202.54 154.437 203.854 156.373C205.348 158.573 207.622 159.859 210.503 159.859C213.082 159.859 215.427 158.539 217.042 156.373C218.417 154.521 219.262 152.058 219.262 149.273ZM187.019 148.394C187.019 138.206 193.31 127.458 204.771 127.458C210.503 127.458 215.362 128.971 219.025 133.745H219.183V110.18H233.59V169.889H220.376V162.488H220.217C218.389 167.103 212.575 170.844 205.968 170.844C196.444 170.844 190.334 164.777 188.044 156.373C187.365 153.886 187.019 151.195 187.019 148.394ZM167.683 149.273C167.683 142.982 164.179 138.445 158.922 138.445C153.351 138.445 150.244 143.221 150.244 148.714C150.244 151.803 150.959 154.437 152.271 156.373C153.766 158.573 156.042 159.859 158.922 159.859C161.5 159.859 163.846 158.539 165.46 156.373C166.839 154.521 167.683 152.058 167.683 149.273ZM135.439 148.394C135.439 138.206 141.727 127.458 153.192 127.458C158.922 127.458 163.782 128.971 167.444 133.745H167.603V110.18H182.012V169.889H168.797V162.488H168.638C166.808 167.103 160.996 170.844 154.39 170.844C144.865 170.844 138.755 164.777 136.465 156.373C135.784 153.886 135.439 151.195 135.439 148.394Z" fill="#00693F"/>
</svg>
