<svg width="480" height="320" viewBox="0 0 480 320" fill="none" xmlns="http://www.w3.org/2000/svg">
<path d="M224.421 243.154L223.661 242.525V224.504L224.372 223.826L225.058 223.172L233.735 223.244C241.089 223.317 242.584 223.39 243.467 223.729C246.776 224.964 248.197 227.411 247.339 230.341C246.825 232.013 245.526 233.369 243.491 234.338L242.045 234.992L243.246 236.905C243.883 237.971 244.766 239.352 245.183 240.006C245.624 240.684 245.967 241.435 245.967 241.725C245.967 242.961 244.227 244.026 242.952 243.566C242.192 243.275 241.726 242.646 239.103 238.528L237.069 235.307H228.318V238.431C228.318 241.943 228.073 242.912 227.068 243.421C226.063 243.954 225.279 243.857 224.421 243.154ZM241.628 230.608C243.27 229.808 243.442 228.113 241.996 227.532C241.432 227.338 239.128 227.193 234.765 227.12L228.318 227.023V231.238L234.52 231.141C239.986 231.068 240.795 231.02 241.628 230.608H241.628ZM64.5297 243.058C61.3185 242.525 57.3475 239.448 56.2449 236.639C55.7788 235.476 55.6562 234.701 55.6562 232.885C55.6562 230.875 55.7297 230.414 56.318 229.227C57.1518 227.507 59.4556 225.303 61.2942 224.48C63.9414 223.293 64.6766 223.196 72.4962 223.196H79.8253L80.5358 223.899C81.394 224.771 81.4427 225.376 80.6584 226.272L80.0701 226.95L72.741 227.071C66.0248 227.192 65.3384 227.266 64.1375 227.725C61.1468 228.912 60.0195 230.559 60.2156 233.393C60.3625 235.379 61.1468 236.857 62.5685 237.826C64.3827 239.061 65.2649 239.182 72.8145 239.182H79.7271L80.4871 239.812C81.7126 240.829 81.4183 242.331 79.8984 242.961C79.2367 243.227 77.6433 243.299 72.3736 243.275C68.6968 243.251 65.167 243.154 64.5297 243.058ZM160.69 242.985C159.905 242.597 159.734 242.355 156.008 235.622C154.194 232.376 152.674 229.736 152.601 229.736C150.117 233.615 147.559 237.959 144.929 241.968C144.341 242.646 144.022 242.815 143.262 242.815C142.698 242.815 142.085 242.622 141.693 242.307C140.443 241.338 140.639 240.878 145.86 232.231C148.507 227.871 150.934 224.044 151.277 223.753C151.669 223.366 152.184 223.196 152.821 223.196C153.459 223.196 153.974 223.366 154.366 223.753C154.709 224.044 156.842 227.725 159.145 231.916C164.735 242.185 164.195 240.975 163.73 241.871C163.509 242.282 162.97 242.767 162.504 242.961C161.498 243.373 161.425 243.373 160.69 242.985ZM316.218 243.034C313.154 242.525 309.575 239.885 308.178 237.051C307.418 235.549 307.369 235.258 307.369 233.006C307.369 230.899 307.443 230.414 308.007 229.227C309.232 226.684 312.198 224.456 315.581 223.559C316.61 223.293 318.62 223.196 324.209 223.196H331.489L332.151 223.753C333.009 224.48 333.058 225.667 332.273 226.418C331.758 226.926 331.538 226.951 324.454 227.071C317.762 227.192 317.076 227.266 315.875 227.725C313.056 228.839 311.928 230.365 311.904 233.03C311.904 235.815 313.595 237.995 316.39 238.819C317.321 239.085 318.963 239.182 322.983 239.182H328.327V232.11L329.038 231.407C329.577 230.899 329.994 230.705 330.656 230.705C331.317 230.705 331.734 230.899 332.273 231.407L332.984 232.11V236.881C332.984 239.812 332.886 241.822 332.714 242.137C332.151 243.179 331.219 243.3 324.111 243.275C320.434 243.251 316.88 243.154 316.218 243.033L316.218 243.034ZM401.201 242.937C398.039 242.065 395.097 239.764 393.675 237.123C392.965 235.743 392.916 235.525 392.916 233.006C392.916 230.656 392.989 230.196 393.553 229.009C395.612 224.673 400.539 222.203 406.422 222.566C407.794 222.663 409.559 222.881 410.344 223.1C413.653 223.947 416.202 226.006 417.624 228.961C418.31 230.414 418.408 230.826 418.408 232.763C418.408 234.314 418.285 235.283 417.942 236.155C416.937 238.819 414.413 241.265 411.398 242.5C410 243.058 409.437 243.13 406.152 243.203C403.431 243.275 402.132 243.203 401.201 242.936L401.201 242.937ZM409.363 238.819C410.858 238.383 412.476 237.051 413.163 235.719C414.315 233.49 413.923 230.269 412.28 228.646C409.902 226.321 403.456 225.909 400.098 227.871C398.333 228.937 397.45 230.584 397.45 232.909C397.45 235.912 398.823 237.777 401.838 238.843C403.088 239.279 407.843 239.279 409.363 238.819Z" fill="black"/>
<path d="M140.196 168.723C139.975 168.36 147.623 156.201 152.991 148.377C167.87 126.699 185.225 105.457 199.76 91.0698C207.629 83.2948 214.247 78.0391 217.924 76.6582C220.448 75.7136 222.36 76.2706 226.846 79.2739C230.523 81.7448 233.881 84.5786 239.445 89.9801C246.823 97.1494 253 103.786 259.937 112.021C261.334 113.692 262.682 115.291 262.952 115.582C263.344 116.018 263.369 116.139 263.099 116.236C262.903 116.308 259.128 117.738 254.667 119.409C219.124 132.852 181.156 149.128 148.726 164.848C144.094 167.076 140.27 168.82 140.196 168.723Z" fill="#F1C001"/>
<path d="M208.217 210.578C193.73 210.069 180.322 209.052 168.14 207.55C160.076 206.557 149.535 204.789 149.094 204.353C148.971 204.232 150.246 203.021 152.011 201.592C177.577 180.81 214.271 157.872 255.77 136.727C268.173 130.405 272.977 128.153 273.296 128.54C284.032 142.491 294.572 157.896 301.755 170.152C304.353 174.609 308.887 183.523 310.113 186.623C312.074 191.491 312.932 195.464 312.54 197.595C312.319 198.806 310.628 200.38 308.299 201.592C299.352 206.169 276.458 209.488 246.088 210.602C238.587 210.869 216.159 210.869 208.217 210.578Z" fill="#0086CD"/>
<path d="M346.585 203.894C334.353 203.337 316.95 201.811 315.136 201.132C314.572 200.914 314.572 200.914 315.43 200.066C315.944 199.558 316.361 198.88 316.459 198.347C316.851 196.264 315.969 192.291 314.131 187.714C313.469 186.115 312.979 184.735 313.028 184.662C313.076 184.565 314.082 184.71 315.258 184.977C320.847 186.212 330.259 187.544 338.373 188.247C344.55 188.78 367.223 188.852 371.832 188.368C382.127 187.254 388.867 185.267 393.672 181.876C397.104 179.479 399.04 176.208 399.653 171.825C400.559 165.357 397.251 160.828 388.426 156.396C382.641 153.489 378.646 152.109 361.414 147.143C344.501 142.275 335.995 139.319 329.524 136.098C324.671 133.676 321.116 131.278 318.077 128.396C315.038 125.489 313.42 123.455 312.145 120.863C310.699 117.956 309.522 112.168 310.258 111.586C310.699 111.223 321.876 106.742 330.382 103.496C335.358 101.607 338.03 100.687 338.201 100.856C338.348 101.001 338.152 101.437 337.564 102.14C334.647 105.7 334.108 110.617 336.191 114.856C336.951 116.358 339.721 119.119 342.05 120.669C347.908 124.545 353.448 126.676 369.503 131.302C389.897 137.164 397.447 139.731 404.334 143.147C410.291 146.101 413.845 148.596 417.571 152.375C422.522 157.461 424.312 161.385 424.581 167.779C424.949 176.015 422.179 182.482 415.757 188.44C404.531 198.904 383.843 204.208 355.041 204.015C351.193 203.99 347.393 203.942 346.585 203.894ZM55.3828 201.108V78.2334H79.4046C79.4632 114.444 79.4944 150.655 79.5272 186.866C96.7078 187.056 113.941 186.55 131.1 187.084C131.174 187.205 131.027 187.932 130.757 188.707C129.458 192.389 129.115 195.537 129.85 196.651C130.316 197.354 133.086 199.001 135.537 200.066C136.566 200.502 137.424 200.963 137.449 201.06L55.3828 201.108ZM314.228 98.4581C313.984 98.0465 316.557 94.8735 318.861 92.7177C327.833 84.3614 342.417 79.2507 362.149 77.5797C367.395 77.1434 381.073 77.2161 387.029 77.7004C393.941 78.2818 397.692 78.7421 398.01 79.0569C398.353 79.3958 398.059 79.4689 394.75 79.8078C380.166 81.237 358.178 85.9844 333.716 92.9355C328.249 94.4859 315.773 98.2163 314.817 98.5792C314.572 98.6762 314.327 98.6035 314.228 98.4581ZM410.56 96.2784C408.011 95.673 399.163 94.2194 395.241 93.7351C386.784 92.7177 384.333 92.5723 373.964 92.5C368.277 92.4756 363.62 92.3545 363.596 92.2574C363.546 91.7004 382.445 86.5898 392.103 84.5552C400.363 82.8114 412.938 80.9705 413.428 81.4548C413.526 81.5519 413.6 85.0394 413.575 89.1571C413.502 97.8044 413.82 97.0292 410.56 96.2784Z" fill="#1B3E92"/>
<path d="M140.613 168.143C140.761 167.852 141.962 165.866 143.261 163.734C158.679 138.617 181.549 109.333 199.884 91.1914C209.958 81.2123 217.116 76.1017 220.498 76.4893C224.077 76.9008 230.45 81.5028 239.323 90.1013C241.921 92.6206 245.525 96.254 247.314 98.1428C253.761 104.925 263.247 115.97 262.781 116.115C262.634 116.163 258.933 117.568 254.545 119.215C218.856 132.731 181.107 148.911 148.727 164.606C142.403 167.658 140.393 168.53 140.614 168.143H140.613Z" fill="#F1C001"/>
</svg>
