<svg width="480" height="320" viewBox="0 0 480 320" fill="none" xmlns="http://www.w3.org/2000/svg">
<path fill-rule="evenodd" clip-rule="evenodd" d="M210.988 145.009V188.17L211.018 187.882C211.018 189.432 209.756 190.728 208.205 190.728H185.912L178.372 202.212H215.938C219.658 202.212 222.731 199.337 223.024 195.68V122.248C223.024 119.464 220.757 117.201 217.976 117.201C217.159 117.203 216.354 117.404 215.632 117.787C214.91 118.17 214.292 118.724 213.833 119.4L150.705 215.321L163.584 215.351L210.987 143.425V145.009L210.988 145.009Z" fill="#151B59"/>
<path fill-rule="evenodd" clip-rule="evenodd" d="M236.257 197.423V119.417C236.096 109.987 228.395 102.4 218.914 102.4C213.089 102.4 207.913 105.295 204.777 109.73L135.242 215.223L148.574 215.288C148.598 215.24 148.63 215.197 148.67 215.161L212.639 117.963V117.897C213.902 116.376 215.841 115.373 217.977 115.373C221.763 115.373 224.867 118.465 224.867 122.25V195.682L224.835 195.743C224.51 200.374 220.662 203.995 215.939 203.995H177.174L170.092 214.834H219.301C228.848 214.834 236.291 207.102 236.291 197.523L236.257 197.423ZM379.429 145.011V188.171V187.884C379.429 189.433 378.17 190.73 376.615 190.73H354.355L346.787 202.214H384.349C388.072 202.214 391.175 199.338 391.436 195.682V122.25C391.436 119.466 389.17 117.203 386.388 117.203C385.571 117.205 384.766 117.406 384.045 117.789C383.323 118.172 382.706 118.726 382.246 119.402L319.121 215.322L332.031 215.353L379.399 143.426L379.429 145.01L379.429 145.011Z" fill="#151B59"/>
<path fill-rule="evenodd" clip-rule="evenodd" d="M404.669 197.423V119.417C404.51 109.987 396.808 102.4 387.358 102.4C381.502 102.4 376.357 105.295 373.218 109.73L303.655 215.223L317.017 215.288C317.017 215.223 317.052 215.192 317.082 215.161L381.047 117.963L381.082 117.897C381.724 117.11 382.533 116.475 383.451 116.038C384.368 115.602 385.371 115.375 386.387 115.373C390.207 115.373 393.246 118.465 393.246 122.249V195.743C392.923 200.374 389.074 203.995 384.348 203.995H345.618L338.502 214.834H387.714C397.257 214.834 404.7 207.102 404.7 197.523L404.669 197.423H404.669ZM100.526 205.095H100.201C95.4119 204.934 91.5948 201.017 91.5948 196.165C91.5948 194.512 92.0792 192.932 92.8576 191.57L151.26 102.788H137.927L80.9499 189.276L80.9802 189.468C79.5579 191.957 78.75 194.868 78.75 197.98C78.75 207.071 85.7706 214.509 94.7022 215.223H129.484L136.276 205.095H100.526Z" fill="#151B59"/>
<path fill-rule="evenodd" clip-rule="evenodd" d="M112.366 192.574C110.62 192.574 109.162 191.151 109.162 189.34C109.162 188.757 109.389 188.009 109.711 187.526L165.56 102.787H153.458L94.5376 192.343L94.4401 192.443C93.7932 193.544 93.4062 194.806 93.4062 196.164C93.4062 200.015 96.448 203.188 100.264 203.284L100.524 203.25H137.506L144.657 192.574H112.366ZM279.29 162.354H310.642H310.514C313.714 162.354 316.336 160.671 317.792 158.085L317.598 158.373L317.986 157.758C317.923 157.887 317.858 157.97 317.792 158.085L339.307 125.029L339.145 125.157C339.782 124.146 340.119 122.975 340.117 121.78C340.117 118.252 337.239 115.372 333.679 115.372V115.21H270.91L263.596 126.922H321.445C322.707 126.922 323.747 127.961 323.747 129.254C323.742 129.871 323.499 130.462 323.068 130.904L322.905 131.194L309.38 152L272.59 151.758L232.696 214.09H245.508L279.29 162.354Z" fill="#151B59"/>
<path fill-rule="evenodd" clip-rule="evenodd" d="M354.225 121.067C354.225 110.649 345.781 102.203 335.36 102.203L335.233 102.317H278.933L272.172 113.174H333.679C338.437 113.174 342.285 117.021 342.285 121.781C342.285 123.38 341.866 124.853 341.123 126.146L341.349 125.824L341.123 126.163V126.146L319.574 159.409L319.604 159.475C317.697 162.581 314.266 164.668 310.351 164.668L310.673 164.648H280.323L247.871 214.09H260.198L285.276 175.62H312.679L311.935 175.715C319.283 175.715 325.72 171.802 329.313 165.975L328.857 166.593L351.798 130.321C353.318 127.589 354.225 124.418 354.225 121.067Z" fill="#151B59"/>
</svg>
