<svg width="480" height="320" viewBox="0 0 480 320" fill="none" xmlns="http://www.w3.org/2000/svg">
<path d="M61.3477 226.506V175.498H416.129L418.532 180.017V226.506H61.3477Z" fill="#0B4B3B"/>
<path d="M61.3242 180.016H409.108V170.972H61.3242V180.016Z" fill="white"/>
<path d="M317.036 94.5977C316.714 95.0575 309.417 105.826 315.452 116.553L351.105 179.838H364.972L324.287 107.604L324.142 107.411C324.118 107.378 321.996 104.409 321.996 96.1524V87.4453L317.036 94.5977ZM320.193 113.878C319.197 112.117 318.81 110.351 318.662 108.653C319.088 109.621 319.469 110.224 319.697 110.552C319.83 110.787 351.625 167.236 355.665 174.394H354.276C352.792 171.743 320.193 113.878 320.193 113.878Z" fill="white"/>
<path d="M309.774 107.298C309.469 107.748 302.154 118.525 308.195 129.244L336.695 179.838H350.569L317.033 120.307L316.884 120.109C316.864 120.08 314.733 117.11 314.733 108.845V100.141L309.774 107.298ZM312.942 126.581C311.949 124.815 311.562 123.052 311.402 121.344C311.836 122.312 312.206 122.922 312.448 123.253C312.575 123.488 337.343 167.453 341.256 174.394H339.879C338.395 171.777 312.942 126.581 312.942 126.581Z" fill="white"/>
<path d="M303.25 119.088C302.934 119.551 295.628 130.318 301.669 141.045L323.514 179.824L337.402 179.846L310.497 132.095L310.356 131.9C310.338 131.871 308.21 128.897 308.21 120.643V111.93L303.25 119.088ZM306.41 138.371C305.42 136.605 305.021 134.843 304.879 133.136C305.305 134.11 305.683 134.712 305.907 135.044C306.035 135.267 324.338 167.736 328.08 174.394C327.427 174.394 327.158 174.386 326.7 174.386C325.254 171.827 306.41 138.371 306.41 138.371Z" fill="white"/>
<path d="M296.72 130.527C296.404 130.975 289.092 141.75 295.133 152.471L310.552 179.838H324.419L303.973 143.535L303.819 143.331C303.796 143.297 301.668 140.328 301.668 132.075V123.363L296.72 130.527ZM299.874 149.799C298.881 148.042 298.499 146.28 298.343 144.574C298.771 145.536 299.144 146.143 299.383 146.473C299.501 146.687 311.637 168.233 315.112 174.394H313.735C312.328 171.915 299.874 149.799 299.874 149.799Z" fill="white"/>
<path d="M290.183 142.129C289.873 142.583 282.57 153.356 288.608 164.077L297.483 179.838H311.35L297.436 155.139L297.291 154.936C297.271 154.912 295.145 151.933 295.145 143.678V134.968L290.183 142.129ZM293.343 161.414C292.35 159.647 291.968 157.885 291.814 156.177C292.237 157.145 292.618 157.754 292.855 158.086C292.964 158.28 299.123 169.224 302.041 174.402H300.666C299.389 172.141 293.342 161.414 293.342 161.414L293.343 161.414ZM370.733 94.782C370.417 95.2341 363.114 106.01 369.146 116.733L404.807 180.016H418.674L377.986 107.788L377.839 107.591C377.814 107.563 375.693 104.584 375.693 96.3321V87.625L370.733 94.782ZM373.895 114.062C372.902 112.302 372.512 110.536 372.355 108.828C372.784 109.793 373.162 110.408 373.396 110.73C373.523 110.972 405.321 167.411 409.361 174.572H407.978C406.492 171.927 373.895 114.062 373.895 114.062Z" fill="white"/>
<path d="M363.478 107.483C363.165 107.933 355.859 118.711 361.9 129.429L390.391 180.021L404.261 180.015L370.725 120.49L370.58 120.289C370.565 120.258 368.437 117.284 368.437 109.028V100.324L363.478 107.483ZM366.635 126.752C365.642 125 365.258 123.236 365.104 121.529C365.538 122.497 365.911 123.101 366.144 123.428C366.277 123.664 391.039 167.627 394.952 174.577H393.575C392.099 171.96 366.635 126.752 366.635 126.752Z" fill="white"/>
<path d="M356.954 119.274C356.629 119.726 349.326 130.503 355.367 141.222L377.214 180.01L391.102 180.032L364.204 132.281L364.053 132.08C364.026 132.055 361.905 129.075 361.905 120.819V112.115L356.954 119.274ZM360.108 138.552C359.109 136.791 358.725 135.028 358.58 133.321C358.996 134.289 359.378 134.898 359.614 135.22C359.738 135.452 378.027 167.91 381.772 174.571H380.4C378.955 172.005 360.108 138.553 360.108 138.553L360.108 138.552Z" fill="white"/>
<path d="M350.412 130.7C350.107 131.152 342.795 141.928 348.837 152.657L364.25 180.022L378.12 180.016L357.668 143.709L357.517 143.517C357.499 143.481 355.374 140.512 355.374 132.247V123.543L350.412 130.7ZM353.58 149.983C352.587 148.222 352.191 146.454 352.04 144.746C352.475 145.72 352.847 146.329 353.078 146.655C353.202 146.871 365.346 168.411 368.807 174.577H367.433C366.038 172.091 353.58 149.983 353.58 149.983Z" fill="white"/>
<path d="M343.889 142.307C343.567 142.765 336.272 153.545 342.305 164.263L351.186 180.022H365.056L351.136 155.314L350.994 155.122C350.967 155.088 348.842 152.118 348.842 143.863V135.154L343.889 142.307ZM347.048 161.587C346.05 159.833 345.662 158.07 345.517 156.363C345.934 157.331 346.324 157.934 346.546 158.262C346.658 158.466 352.829 169.401 355.743 174.578H354.36L347.048 161.587Z" fill="white"/>
<path d="M352.693 177.116L317.829 115.217C312.551 105.855 319.277 96.1523 319.277 96.1523C319.277 105.807 321.996 109.086 321.996 109.086L360.315 177.116H352.693ZM345.91 177.116L314.744 121.787C314.744 121.787 312.013 118.511 312.013 108.845C312.013 108.845 305.295 118.551 310.565 127.917L338.284 177.116H345.91ZM332.74 177.116L308.209 133.578C308.209 133.578 305.487 130.299 305.487 120.643C305.487 120.643 298.76 130.349 304.036 139.709L325.105 177.11L332.74 177.116ZM319.768 177.116L301.681 145.006C301.681 145.006 298.947 141.728 298.947 132.075C298.947 132.075 292.232 141.777 297.508 151.136L312.14 177.116H319.768ZM306.693 177.125L295.146 156.619C295.146 156.619 292.424 153.345 292.424 143.679C292.424 143.679 285.709 153.381 290.976 162.748L299.076 177.125H306.693Z" fill="#0B4B3B"/>
<path d="M406.383 177.296L371.519 115.392C366.244 106.035 372.97 96.3318 372.97 96.3318C372.97 105.986 375.698 109.27 375.698 109.27L414.02 177.296H406.383ZM399.606 177.302L368.437 121.967C368.437 121.967 365.712 118.686 365.712 109.029C365.712 109.029 358.997 118.735 364.264 128.094L391.986 177.302H399.606ZM386.442 177.302L361.914 133.764C361.914 133.764 359.18 130.479 359.18 120.82C359.18 120.82 352.462 130.527 357.744 139.88L378.808 177.288L386.442 177.302ZM373.461 177.302L355.373 145.193C355.373 145.193 352.651 141.911 352.651 132.248C352.651 132.248 345.933 141.954 351.2 151.321L365.845 177.302H373.461ZM360.401 177.302L348.847 156.796C348.847 156.796 346.125 153.517 346.125 143.863C346.125 143.863 339.405 153.569 344.677 162.927L352.769 177.302H360.401Z" fill="#BE2337"/>
<path d="M61.3242 173.695H406.383V177.296H61.3242V173.695Z" fill="#BE2337"/>
<path d="M269.845 214.987L270.958 210.175H273.887L285.431 189.149H282.517L283.589 184.35H301.299L300.22 189.15H297.605L298.453 210.175H301.621L300.507 214.986H287.754L288.898 210.175H291.732V205H282.472L279.861 210.175H282.721L281.6 214.986L269.845 214.987ZM291.531 200.658L291.185 188.877H290.878L284.739 200.658H291.531ZM302.49 214.987L303.442 210.867L317.336 197.836H312.045L311.416 200.578H307.065L308.655 193.642H326.264L325.327 197.836L311.43 210.867H317.835L318.648 207.29H323.073L321.305 214.987H302.49ZM339.121 209.356L337.953 214.283C336.077 215.161 334.238 215.604 332.444 215.604C331.064 215.604 329.953 215.202 329.102 214.416C328.265 213.612 327.833 212.572 327.833 211.286C327.833 210.334 327.961 209.345 328.215 208.319L330.538 198.22H328.073L329.096 193.654H331.59L333.795 185.142L340.129 185.106L338.122 193.654H341.021L339.99 198.22H337.105L334.806 208.094C334.694 208.603 334.625 208.999 334.625 209.309C334.625 210.051 335.078 210.423 335.973 210.423C336.818 210.423 337.862 210.068 339.121 209.356H339.121ZM356.934 208.585L361.766 210.766C359.62 213.99 356.414 215.592 352.152 215.592C349.187 215.592 346.82 214.75 345.047 213.083C343.291 211.393 342.407 209.158 342.407 206.35C342.407 202.763 343.584 199.65 345.951 197.047C348.318 194.416 351.241 193.11 354.729 193.11C357.436 193.11 359.682 193.964 361.494 195.684C363.297 197.404 364.204 199.718 364.204 202.633C364.204 203.605 364.101 204.624 363.894 205.683H348.712C348.623 206.159 348.573 206.625 348.573 207.057C348.573 208.378 348.945 209.43 349.669 210.187C350.405 210.94 351.363 211.325 352.557 211.325C354.407 211.325 355.858 210.411 356.934 208.585ZM349.51 202.18H357.942C358 201.859 358.03 201.534 358.03 201.208C358.03 200.052 357.696 199.124 357.002 198.433C356.325 197.726 355.486 197.381 354.49 197.381C352.217 197.381 350.556 198.976 349.51 202.18ZM382.369 207.131L387.042 209.43C384.594 213.538 381.196 215.592 376.86 215.592C373.925 215.592 371.576 214.727 369.808 212.994C368.035 211.268 367.148 208.975 367.148 206.126C367.148 202.638 368.357 199.65 370.786 197.156C373.204 194.658 376.103 193.42 379.484 193.42C381.37 193.42 383.064 193.964 384.58 195.054L384.908 193.642H389.705L387.878 201.636H383.078C382.916 199.565 381.74 198.518 379.564 198.518C377.962 198.518 376.606 199.26 375.494 200.738C374.38 202.213 373.831 204.051 373.831 206.226C373.831 207.441 374.17 208.422 374.847 209.182C375.533 209.95 376.402 210.334 377.472 210.334C379.431 210.334 381.066 209.268 382.369 207.131ZM415.512 194.003L414.425 198.178L412.557 198.158L408.851 211.762H411.735L410.831 215.232L403.477 215.282C403.477 215.282 404.231 212.164 404.364 212.164C404.5 212.164 403.8 212.451 402.94 213.03C401.893 213.725 400.942 214.269 400.087 214.629C398.772 215.22 397.546 215.519 396.384 215.519C393.532 215.519 391.44 214.381 390.098 212.105C388.839 209.939 388.585 207.403 389.359 204.506C390.24 201.252 391.889 198.566 394.324 196.426C396.866 194.212 399.735 193.11 402.913 193.11C405.159 193.11 406.903 193.884 408.156 195.436C408.339 195.725 408.608 196.154 408.986 196.71C409.001 196.729 409.019 196.744 409.04 196.754C409.061 196.765 409.084 196.771 409.108 196.772C409.19 196.772 409.734 194.02 409.734 194.02L415.512 194.003ZM405.886 204.264C406.321 202.638 406.208 201.247 405.564 200.087C404.878 198.828 403.746 198.202 402.165 198.202C400.569 198.202 399.088 198.823 397.705 200.064C396.366 201.252 395.483 202.65 395.048 204.264C394.626 205.869 394.756 207.252 395.468 208.428C396.189 209.667 397.342 210.272 398.929 210.272C400.475 210.272 401.943 209.643 403.315 208.39C404.612 207.217 405.467 205.836 405.886 204.264ZM248.76 201.586L248.067 204.246L246.873 204.24L244.522 212.894H246.35L245.778 215.111L241.092 215.146C241.092 215.146 241.575 213.157 241.658 213.157C241.745 213.157 241.299 213.334 240.755 213.704C240.077 214.156 239.481 214.496 238.936 214.726C238.094 215.111 237.306 215.294 236.572 215.294C234.763 215.294 233.424 214.567 232.57 213.119C231.766 211.732 231.611 210.125 232.106 208.28C232.66 206.205 233.716 204.494 235.261 203.138C236.888 201.731 238.707 201.019 240.739 201.019C242.165 201.019 243.282 201.512 244.08 202.502C244.182 202.688 244.362 202.961 244.603 203.318C244.618 203.345 244.652 203.356 244.677 203.356C244.733 203.356 245.085 201.598 245.085 201.598L248.76 201.586ZM242.629 208.118C242.911 207.092 242.833 206.2 242.422 205.464C241.986 204.66 241.268 204.264 240.254 204.264C239.246 204.264 238.309 204.66 237.42 205.446C236.566 206.206 236.003 207.107 235.728 208.118C235.456 209.147 235.534 210.024 235.985 210.778C236.452 211.561 237.186 211.951 238.194 211.951C239.174 211.951 240.111 211.561 240.996 210.748C241.819 209.998 242.363 209.135 242.629 208.118ZM146.571 201.586L145.878 204.246L144.69 204.24L142.339 212.894H144.164L143.592 215.111L138.906 215.146C138.906 215.146 139.389 213.157 139.469 213.157C139.558 213.157 139.116 213.334 138.565 213.704C137.899 214.156 137.294 214.496 136.747 214.726C135.908 215.111 135.129 215.294 134.387 215.294C132.573 215.294 131.247 214.567 130.393 213.119C129.58 211.732 129.425 210.125 129.916 208.28C130.483 206.205 131.529 204.494 133.075 203.138C134.702 201.731 136.524 201.019 138.553 201.019C139.976 201.019 141.096 201.512 141.891 202.502C141.999 202.688 142.175 202.961 142.417 203.318C142.427 203.33 142.44 203.34 142.454 203.347C142.469 203.353 142.484 203.357 142.5 203.356C142.546 203.356 142.899 201.598 142.899 201.598L146.571 201.586ZM140.446 208.118C140.728 207.092 140.644 206.2 140.242 205.464C139.809 204.66 139.085 204.264 138.071 204.264C137.062 204.264 136.119 204.66 135.236 205.446C134.38 206.206 133.814 207.107 133.539 208.118C133.27 209.147 133.348 210.024 133.802 210.778C134.266 211.561 135.002 211.951 136.005 211.951C136.997 211.951 137.922 211.561 138.81 210.748C139.63 209.998 140.177 209.135 140.446 208.118H140.446ZM68.0742 215.185L68.7909 212.067H70.6588L73.8139 198.421H71.4672L72.1881 195.294H81.4832L80.7563 198.421H78.8811L75.723 212.067H81.3062L82.7074 205.966H86.5153L84.3653 215.185H68.0742ZM85.8958 215.185L86.5713 212.214H88.0682L89.914 204.32H88.0358L88.7137 201.353H94.8526L92.3125 212.214H94.1919L93.5122 215.185H85.8958ZM92.2901 199.869H89.9806L92.6273 194.718H97.7196L92.2901 199.869ZM95.3036 215.185L95.9785 212.214H97.5098L99.3614 204.32H97.2865L97.9605 201.353H104.29L103.886 203.058C105.207 202.254 106.156 201.731 106.765 201.501C107.368 201.276 107.994 201.166 108.658 201.166C109.589 201.166 110.347 201.462 110.943 202.05C111.54 202.65 111.828 203.442 111.828 204.42C111.828 204.817 111.78 205.213 111.686 205.638L110.164 212.214H112.032L111.345 215.185H105.248L107.276 206.424C107.346 206.132 107.382 205.881 107.382 205.671C107.382 204.867 107.038 204.477 106.372 204.477C105.668 204.477 104.61 204.988 103.203 206.005L101.752 212.214H103.499L102.807 215.185H95.3036ZM124.064 211.071L127.195 212.48C125.803 214.567 123.731 215.604 120.962 215.604C119.045 215.604 117.517 215.061 116.372 213.973C115.231 212.87 114.659 211.422 114.659 209.604C114.659 207.279 115.423 205.257 116.96 203.552C118.497 201.858 120.39 201.013 122.651 201.013C124.402 201.013 125.859 201.563 127.034 202.674C128.209 203.782 128.786 205.275 128.786 207.155C128.786 207.787 128.726 208.44 128.596 209.135H118.741C118.692 209.445 118.658 209.74 118.658 210.033C118.658 210.911 118.89 211.603 119.364 212.111C119.833 212.61 120.461 212.859 121.237 212.859C122.429 212.859 123.363 212.264 124.063 211.071H124.064ZM119.255 206.877H124.73C124.771 206.67 124.792 206.461 124.793 206.25C124.793 205.517 124.572 204.914 124.127 204.471C123.684 204.013 123.135 203.788 122.49 203.788C121.027 203.788 119.948 204.822 119.255 206.877ZM146.057 215.185L147.162 210.423H149.908C150.221 211.975 151.308 212.749 153.164 212.749C154.947 212.749 155.852 212.25 155.852 211.274C155.852 210.935 155.705 210.642 155.43 210.403C155.157 210.148 154.223 209.853 152.632 209.48C151.034 209.108 149.954 208.535 149.384 207.775C148.81 206.992 148.535 206.25 148.535 205.535C148.535 204.282 149.067 203.253 150.142 202.426C151.21 201.61 152.58 201.196 154.243 201.196C155.519 201.196 156.594 201.501 157.471 202.08L157.638 201.353H160.611L159.698 205.396H156.84C156.527 204.32 155.674 203.788 154.296 203.788C153.645 203.788 153.128 203.912 152.741 204.161C152.35 204.409 152.154 204.728 152.154 205.121C152.154 205.384 152.275 205.609 152.522 205.804C152.772 205.999 153.657 206.277 155.191 206.626C156.725 206.986 157.799 207.527 158.408 208.257C159.005 208.975 159.316 209.803 159.316 210.748C159.316 212.078 158.742 213.175 157.593 214.035C156.438 214.898 154.956 215.341 153.15 215.341C151.551 215.341 150.242 215.025 149.248 214.393L149.067 215.185H146.057ZM184.31 195.294L185.054 212.067H187.077L186.35 215.185H178.08L178.82 212.067H180.659V208.7H174.633L172.941 212.067H174.766L174.044 215.185H166.427L167.145 212.067H169.053L176.563 198.421H174.638L175.342 195.294H184.31ZM180.529 205.88L180.3 198.246H180.108L176.106 205.881L180.529 205.88ZM197.554 211.071L200.687 212.48C199.294 214.567 197.223 215.604 194.461 215.604C192.537 215.604 191.006 215.061 189.864 213.973C188.717 212.87 188.145 211.422 188.145 209.604C188.145 207.279 188.921 205.257 190.449 203.552C191.977 201.858 193.882 201.013 196.137 201.013C197.891 201.013 199.357 201.563 200.532 202.674C201.702 203.782 202.287 205.275 202.287 207.155C202.287 207.787 202.224 208.44 202.089 209.135H192.239C192.178 209.43 192.149 209.731 192.15 210.033C192.15 210.911 192.382 211.603 192.859 212.111C193.331 212.61 193.949 212.859 194.718 212.859C195.918 212.859 196.861 212.264 197.554 211.071ZM192.753 206.877H198.228C198.262 206.673 198.288 206.454 198.288 206.25C198.288 205.517 198.061 204.914 197.619 204.471C197.177 204.013 196.637 203.788 195.982 203.788C194.507 203.788 193.44 204.822 192.753 206.877H192.753ZM196.369 199.869H194.059L196.7 194.718H201.792L196.369 199.869ZM202.692 215.185L203.36 212.214H205.021L206.865 204.32H204.978L205.657 201.353H211.325L210.377 205.328L210.44 205.384C211.905 203.247 212.919 202.006 213.485 201.678C214.048 201.359 214.645 201.196 215.253 201.196C215.609 201.196 216.031 201.246 216.495 201.326L215.654 205C215.191 204.902 214.766 204.855 214.37 204.855C212.084 204.855 210.615 206.327 209.945 209.277L209.265 212.214H211.421L210.737 215.185H202.692ZM225.904 211.071L229.036 212.48C227.643 214.567 225.573 215.604 222.811 215.604C220.892 215.604 219.356 215.061 218.221 213.973C217.075 212.87 216.495 211.422 216.495 209.604C216.495 207.279 217.27 205.257 218.798 203.552C220.326 201.858 222.231 201.013 224.483 201.013C226.242 201.013 227.706 201.563 228.883 202.674C230.052 203.782 230.637 205.275 230.637 207.155C230.637 207.787 230.572 208.44 230.436 209.135H220.59C220.533 209.431 220.505 209.732 220.506 210.033C220.506 210.911 220.732 211.603 221.218 212.111C221.682 212.61 222.304 212.859 223.074 212.859C224.268 212.859 225.211 212.264 225.904 211.071ZM221.102 206.877H226.577C226.613 206.673 226.638 206.454 226.638 206.25C226.638 205.517 226.418 204.914 225.969 204.471C225.533 204.013 224.986 203.788 224.331 203.788C222.867 203.788 221.789 204.822 221.102 206.877ZM247.897 215.185L249.001 210.423H251.745C252.06 211.975 253.149 212.749 254.999 212.749C256.796 212.749 257.69 212.25 257.69 211.274C257.69 210.935 257.553 210.642 257.28 210.403C257.007 210.148 256.073 209.853 254.476 209.48C252.88 209.108 251.794 208.535 251.222 207.775C250.659 206.992 250.368 206.25 250.368 205.535C250.368 204.282 250.909 203.253 251.98 202.426C253.055 201.61 254.421 201.196 256.088 201.196C257.364 201.196 258.438 201.501 259.311 202.08L259.489 201.353H262.45L261.543 205.396H258.682C258.368 204.32 257.52 203.788 256.134 203.788C255.491 203.788 254.979 203.912 254.582 204.161C254.19 204.409 253.997 204.728 253.997 205.121C253.997 205.384 254.123 205.609 254.365 205.804C254.612 205.999 255.508 206.277 257.041 206.626C258.57 206.986 259.639 207.527 260.242 208.257C260.854 208.975 261.162 209.803 261.162 210.748C261.162 212.078 260.584 213.175 259.428 214.035C258.277 214.898 256.796 215.341 254.993 215.341C253.387 215.341 252.092 215.025 251.095 214.393L250.909 215.185H247.897Z" fill="white"/>
</svg>
