<svg width="480" height="320" viewBox="0 0 480 320" fill="none" xmlns="http://www.w3.org/2000/svg">
<path d="M306.136 184.283H308.014L305.511 196.173H312.29L311.977 197.737H303.32L306.136 184.283Z" fill="#005E9E"/>
<path d="M316.984 184.283H318.861L316.045 197.737H314.168L316.984 184.283ZM320.634 180.633L317.61 183.24H316.358L318.548 180.633H320.634Z" fill="#005E9E"/>
<path d="M321.781 184.283H323.971L328.456 195.234L330.75 184.283H332.523L329.707 197.737H327.621L323.032 186.786L320.738 197.737H318.965L321.781 184.283Z" fill="#005E9E"/>
<path d="M335.546 184.283H345.35L345.037 185.952H337.007L336.172 190.019H343.577L343.264 191.584H335.859L334.921 196.173H343.056L342.743 197.737H332.73L335.546 184.283Z" fill="#005E9E"/>
<path d="M351.817 184.283H353.903L355.885 197.737H353.903L353.381 193.67H348.062L345.768 197.737H343.891L351.817 184.283ZM353.173 192.21L352.443 186.265L349.001 192.21H353.173Z" fill="#005E9E"/>
<path d="M367.567 184.283H369.653L371.635 197.737H369.653L369.131 193.67H363.812L361.518 197.737H359.641L367.567 184.283ZM368.819 192.21L368.089 186.265L364.647 192.21H368.819Z" fill="#005E9E"/>
<path d="M376.328 184.284H386.131L385.819 185.953H377.788L376.953 190.02H384.358L384.046 191.585H376.641L375.702 196.174H383.837L383.524 197.738H373.512L376.328 184.284ZM384.046 180.529L381.334 183.137H380.082L381.96 180.529H384.046Z" fill="#005E9E"/>
<path d="M388.948 184.283H395.205C396.248 184.283 397.083 184.387 397.604 184.7C398.751 185.326 399.169 186.369 398.856 187.934C398.647 188.768 398.334 189.394 397.917 189.915C397.5 190.437 396.874 190.854 396.248 191.167C396.77 191.375 397.083 191.688 397.291 192.001C397.5 192.314 397.5 192.94 397.396 193.67L397.083 195.443C396.978 195.964 396.978 196.381 396.978 196.59C396.978 197.007 397.083 197.32 397.396 197.424L397.291 197.737H395.101C395.101 197.633 394.997 197.424 394.997 197.32C394.997 197.112 394.997 196.799 395.101 196.277L395.518 193.983C395.623 193.148 395.414 192.523 394.892 192.21C394.58 192.001 394.058 192.001 393.328 192.001H389.156L387.905 197.737H386.027L388.948 184.283ZM393.641 190.437C394.475 190.437 395.205 190.228 395.831 189.915C396.353 189.602 396.77 188.976 396.978 188.038C397.187 187.099 396.978 186.473 396.353 186.056C396.04 185.848 395.518 185.743 394.892 185.743H390.408L389.469 190.332H393.641V190.437Z" fill="#005E9E"/>
<path d="M402.4 184.283H412.204L411.891 185.952H403.86L403.026 190.019H410.431L410.118 191.584H402.713L401.774 196.173H409.909L409.596 197.737H399.584L402.4 184.283Z" fill="#005E9E"/>
<path d="M418.671 184.283H420.756L422.738 197.737H420.756L420.235 193.67H414.916L412.621 197.737H410.744L418.671 184.283ZM420.026 192.21L419.296 186.265L415.855 192.21H420.026Z" fill="#005E9E"/>
<path d="M119.448 148.093C117.779 148.823 116.11 149.553 114.546 150.179C111 151.744 107.558 153.412 104.116 155.185C103.908 155.29 103.699 155.29 103.49 155.29C102.552 155.394 101.509 155.498 100.57 155.603C98.5886 155.915 96.7112 156.124 94.7296 156.541C91.7051 157.063 88.6805 157.584 85.656 158.21C81.067 159.253 76.478 160.296 71.7847 161.443C71.5761 161.443 71.4718 161.547 71.2632 161.547C70.6375 161.652 70.2203 161.443 70.0117 160.817C69.8031 160.192 69.9074 159.67 70.5332 159.357C71.3675 158.94 72.2019 158.627 73.0362 158.314C79.0854 156.02 85.2388 153.934 91.4965 152.161C95.9812 150.909 100.57 149.866 105.159 149.136C108.079 148.615 111 148.302 113.92 148.093C115.693 147.989 117.466 147.989 119.239 147.885C119.239 147.989 119.343 147.989 119.448 148.093C119.448 148.093 119.448 147.989 119.448 148.093Z" fill="#00A651"/>
<path d="M155.743 157.271C154.804 157.062 153.866 156.958 152.927 156.749C149.068 156.124 145.209 155.498 141.246 154.976C139.264 154.664 137.178 154.664 135.093 154.455C134.571 154.455 134.675 154.351 134.571 154.246C133.424 152.578 132.277 151.013 131.129 149.345C131.025 149.24 130.921 148.927 130.816 148.719C139.369 150.7 147.817 153.412 155.743 157.167V157.271Z" fill="#00A651"/>
<path d="M125.706 151.014C126.436 152.057 127.166 152.995 128.001 154.038H119.031L119.24 153.934C121.326 152.995 123.516 151.952 125.706 151.014Z" fill="#00A651"/>
<path d="M125.602 151.013C127.375 150.283 129.148 149.553 130.921 148.928C131.755 150.179 132.589 151.326 133.424 152.474C136.448 156.645 138.638 161.234 140.62 165.928C142.184 169.578 143.332 173.228 144.375 176.983C144.375 177.087 144.479 177.191 144.479 177.4C144.583 178.026 144.375 178.547 143.749 178.756C143.123 178.964 142.602 178.86 142.289 178.234C141.767 177.296 141.35 176.253 140.829 175.21C137.283 167.909 133.111 160.921 128.209 154.455C127.375 153.412 126.645 152.369 125.81 151.326C125.81 151.222 125.706 151.222 125.602 151.013Z" fill="#005E9E"/>
<path d="M125.601 142.462C124.349 142.358 123.098 142.149 121.846 142.045L118.091 141.732C117.779 141.732 117.57 141.628 117.361 141.419C115.588 139.646 113.815 137.769 111.938 135.996C107.871 132.033 103.49 128.278 99.1098 124.732C98.9012 124.628 98.6926 124.419 98.5883 124.211C98.1711 123.689 98.1711 123.168 98.5883 122.75C99.0055 122.229 99.5269 122.125 100.153 122.437L101.717 123.376C106.515 126.609 111.312 129.947 115.901 133.597C119.03 136.1 122.055 138.812 124.766 141.628C125.079 141.941 125.288 142.254 125.601 142.462Z" fill="#005E9E"/>
<path d="M131.442 148.823C130.295 149.24 128.209 150.075 127.062 150.596C117.675 154.246 108.914 159.044 100.362 164.467C94 168.535 87.7423 172.915 81.6932 177.608C76.687 181.572 71.6809 185.639 66.6747 189.602C63.6502 192.105 60.7299 194.713 57.7053 197.216C57.4967 197.425 57.1839 197.529 56.871 197.633C56.3495 197.842 55.9323 197.633 55.6194 197.216C55.3065 196.799 55.3065 196.382 55.6194 195.964C56.0366 195.443 56.5581 194.921 57.0796 194.4C61.7728 189.29 66.4661 184.179 71.5766 179.381C79.7116 171.664 88.3681 164.676 97.859 158.731C104.325 154.664 111.313 151.326 118.405 148.51C119.239 148.197 120.074 147.78 120.908 147.571C121.117 147.467 122.264 147.154 122.368 147.154C124.976 147.571 126.749 147.989 129.46 148.51C129.773 148.51 131.129 148.823 131.442 148.823Z" fill="#FFCB05"/>
<path d="M131.859 144.339C132.798 144.13 133.841 143.713 134.675 143.504C137.804 142.774 140.933 142.044 144.062 141.418C146.774 140.897 149.485 140.48 152.197 140.062H153.136C153.657 140.167 154.074 140.48 154.074 141.001C154.179 141.523 153.97 141.94 153.448 142.148C152.51 142.461 151.675 142.67 150.737 142.878C146.982 143.921 143.123 144.964 139.369 146.007C138.847 146.112 138.43 146.112 138.013 146.007C136.135 145.382 134.258 144.964 132.485 144.339C132.381 144.443 132.068 144.443 131.859 144.339Z" fill="#FFCB05"/>
<path d="M97.5466 145.174H90.8718C90.6632 145.174 90.3503 145.174 90.1417 145.07C89.7245 144.966 89.4116 144.653 89.3073 144.131C89.203 143.61 89.4116 143.193 89.9331 142.984L91.1846 142.671C92.9577 142.463 94.835 142.15 96.608 142.045C98.0681 141.837 99.6325 141.733 101.093 141.628C103.074 141.524 105.056 141.315 107.037 141.211C109.436 141.107 111.939 141.107 114.338 141.211C116.633 141.315 118.823 141.524 121.013 141.733C123.829 142.045 126.645 142.463 129.461 143.088C132.485 143.714 135.301 144.653 138.222 145.696C142.185 147.156 146.044 149.033 149.694 151.223C151.78 152.475 153.762 153.726 155.743 154.978C155.848 155.082 155.952 155.187 156.056 155.187C156.473 155.604 156.578 156.021 156.369 156.542C156.16 157.064 155.848 157.272 155.222 157.168C154.909 157.168 154.596 157.064 154.387 156.96C150.424 154.978 146.252 153.414 142.081 151.953C138.117 150.598 134.154 149.45 130.087 148.512C127.375 147.886 124.768 147.469 122.056 146.947C120.179 146.634 118.197 146.321 116.215 146.113C114.651 145.904 113.191 145.8 111.626 145.696C109.645 145.487 107.663 145.383 105.786 145.279C103.387 145.174 101.093 145.174 98.6939 145.07C98.4853 145.174 98.0681 145.174 97.5466 145.174Z" fill="#ED1C24"/>
<path fill-rule="evenodd" clip-rule="evenodd" d="M234.486 162.591L231.566 177.818H225.621L228.75 161.652C230.523 152.579 216.756 152.579 214.983 161.652L211.854 177.818H205.909L209.038 161.652C210.811 152.579 197.044 152.579 195.271 161.652L192.142 177.818H186.197L189.118 162.591C191.725 149.241 208.204 146.425 213.418 154.143C221.658 146.425 237.093 149.241 234.486 162.591Z" fill="#ED1C24"/>
<path fill-rule="evenodd" clip-rule="evenodd" d="M282.252 156.96C281.105 155.187 278.706 154.352 276.308 154.457C274.013 154.561 270.884 154.769 270.363 156.96C270.154 158.107 270.989 159.046 272.24 159.671C275.056 161.236 278.393 161.34 281.627 161.966C285.173 162.696 288.614 165.72 287.78 169.788C286.633 175.733 277.663 178.444 272.762 178.34C267.651 178.236 261.602 175.941 261.289 170.935H267.755C268.903 172.708 271.823 173.334 274.117 173.334C277.663 173.334 280.897 172.187 281.314 169.997C281.835 167.285 278.706 166.451 274.639 165.616C269.424 164.469 262.645 164.782 264.627 156.334C265.669 151.849 272.97 149.346 277.559 149.45C282.67 149.555 287.467 152.058 288.614 156.96H282.252Z" fill="#ED1C24"/>
<path fill-rule="evenodd" clip-rule="evenodd" d="M244.914 156.438C247.105 154.978 250.859 154.248 252.945 154.457C256.387 154.874 257.534 156.647 257.117 158.941C256.7 160.923 245.645 161.653 243.872 161.966C240.013 162.696 235.424 165.72 234.694 169.788C233.546 175.733 239.178 178.34 243.976 178.34C251.798 178.236 259.099 174.168 261.185 166.45C262.227 162.696 262.749 158.211 263.062 156.334C263.688 151.849 258.056 149.346 253.467 149.45C250.964 149.45 248.356 149.868 245.957 150.911L244.914 156.438ZM245.645 173.438C242.099 173.543 240.534 171.874 240.951 169.579C241.368 167.389 243.454 166.659 246.479 166.138C249.712 165.616 252.737 165.72 255.97 164.26C254.927 169.371 253.362 173.23 245.645 173.438Z" fill="#ED1C24"/>
<path fill-rule="evenodd" clip-rule="evenodd" d="M170.866 156.438C173.056 154.978 176.81 154.248 178.896 154.457C182.338 154.874 183.485 156.647 183.068 158.941C182.651 160.923 171.596 161.653 169.823 161.966C165.964 162.696 161.375 165.72 160.645 169.788C159.497 175.733 165.129 178.34 169.927 178.34C177.749 178.236 185.05 174.168 187.136 166.45C188.179 162.696 188.7 158.211 189.013 156.334C189.743 151.849 184.007 149.346 179.418 149.45C176.915 149.45 174.307 149.868 171.909 150.911L170.866 156.438ZM171.596 173.438C168.05 173.543 166.485 171.874 166.902 169.579C167.32 167.389 169.406 166.659 172.43 166.138C175.663 165.616 178.688 165.72 181.921 164.26C180.982 169.371 179.314 173.23 171.596 173.438Z" fill="#ED1C24"/>
<path fill-rule="evenodd" clip-rule="evenodd" d="M370.487 162.592L367.567 177.819H361.622L364.751 161.653C366.524 152.579 352.757 152.579 350.984 161.653L347.855 177.819H341.91L344.83 162.592C348.168 145.696 373.824 145.696 370.487 162.592Z" fill="#00A651"/>
<path fill-rule="evenodd" clip-rule="evenodd" d="M325.431 178.027C317.087 178.027 311.664 171.665 313.124 163.947C314.584 156.125 322.615 149.867 330.854 149.867C339.198 149.867 344.621 156.229 343.161 163.947C341.701 171.665 333.774 178.027 325.431 178.027ZM326.474 172.916C321.572 172.916 318.339 168.849 319.277 163.947C320.216 158.941 325.014 154.978 329.915 154.978C334.817 154.978 338.051 159.045 337.112 163.947C336.173 168.849 331.376 172.916 326.474 172.916Z" fill="#00A651"/>
<path fill-rule="evenodd" clip-rule="evenodd" d="M317.817 152.787L317.505 149.971H293.099L292.161 154.873H308.744L285.799 175.002L286.112 177.817H313.646L311.56 173.02H294.873L317.817 152.787Z" fill="#00A651"/>
<path fill-rule="evenodd" clip-rule="evenodd" d="M418.252 156.96C417.105 155.187 414.706 154.352 412.308 154.457C410.013 154.561 406.884 154.769 406.363 156.96C406.154 158.107 406.989 159.046 408.24 159.671C411.056 161.236 414.393 161.34 417.627 161.966C421.173 162.696 424.614 165.72 423.78 169.788C422.633 175.733 413.663 178.444 408.762 178.34C403.651 178.236 397.602 175.941 397.289 170.935H403.755C404.903 172.708 407.823 173.334 410.117 173.334C413.663 173.334 416.897 172.187 417.314 169.997C417.835 167.285 414.706 166.451 410.639 165.616C405.424 164.469 398.645 164.782 400.626 156.334C401.669 151.849 408.97 149.346 413.559 149.45C418.67 149.555 423.467 152.058 424.614 156.96H418.252Z" fill="#00A651"/>
<path fill-rule="evenodd" clip-rule="evenodd" d="M380.916 156.438C383.107 154.978 386.861 154.248 388.947 154.457C392.389 154.874 393.536 156.647 393.119 158.941C392.702 160.923 381.646 161.653 379.873 161.966C376.015 162.696 371.426 165.72 370.696 169.788C369.548 175.733 375.18 178.34 379.978 178.34C387.8 178.236 395.101 174.168 397.186 166.45C398.229 162.696 398.751 158.211 399.064 156.334C399.69 151.849 394.058 149.346 389.469 149.45C386.966 149.45 384.358 149.868 381.959 150.911L380.916 156.438ZM381.646 173.438C378.1 173.543 376.536 171.874 376.953 169.579C377.37 167.389 379.456 166.659 382.481 166.138C385.714 165.616 388.739 165.72 391.972 164.26C391.033 169.371 389.364 173.23 381.646 173.438Z" fill="#00A651"/>
</svg>
