<svg width="480" height="320" viewBox="0 0 480 320" fill="none" xmlns="http://www.w3.org/2000/svg">
<path fill-rule="evenodd" clip-rule="evenodd" d="M250.009 128.796C248.534 131.477 246.055 133.464 243.116 134.319C240.177 135.174 237.019 134.827 234.335 133.355C231.652 131.883 229.662 129.407 228.804 126.469C227.945 123.532 228.287 120.373 229.754 117.688C231.222 115.002 233.696 113.008 236.632 112.145C239.569 111.282 242.728 111.62 245.416 113.084C248.103 114.549 250.1 117.02 250.967 119.955C251.834 122.891 251.5 126.05 250.04 128.74M239.999 53.332L235.577 103.096C235.248 104.101 235.281 105.189 235.667 106.173C236.054 107.157 236.772 107.975 237.696 108.488C238.751 109.066 239.992 109.202 241.147 108.866C242.301 108.53 243.276 107.75 243.856 106.696L243.874 106.678C244.173 106.129 244.355 105.524 244.408 104.901C244.461 104.278 244.386 103.651 244.185 103.06L239.999 53.332ZM190.404 73.5835L222.464 111.898C223.429 113.806 225.649 114.829 227.776 114.211C228.93 113.874 229.904 113.093 230.483 112.039C231.062 110.986 231.199 109.745 230.865 108.59V108.565C230.687 107.965 230.388 107.409 229.986 106.931C229.583 106.453 229.086 106.063 228.525 105.787L190.404 73.5825V73.5835ZM170.261 122.908L220.024 127.33C222.054 127.997 224.348 127.15 225.415 125.21C225.993 124.155 226.129 122.914 225.794 121.76C225.458 120.605 224.677 119.63 223.624 119.05L223.606 119.033C223.057 118.734 222.452 118.552 221.829 118.499C221.206 118.445 220.579 118.521 219.987 118.722L170.26 122.907L170.261 122.908ZM190.664 172.504L228.979 140.444C230.886 139.481 231.909 137.259 231.293 135.133C230.956 133.979 230.174 133.005 229.121 132.426C228.067 131.847 226.826 131.71 225.671 132.044H225.645C225.046 132.221 224.489 132.521 224.011 132.923C223.533 133.326 223.144 133.823 222.867 134.383L190.664 172.504ZM239.569 193.065L243.993 143.302C244.321 142.297 244.289 141.209 243.902 140.225C243.515 139.241 242.798 138.423 241.873 137.911C240.818 137.333 239.577 137.197 238.423 137.533C237.268 137.868 236.293 138.649 235.713 139.702L235.695 139.72C235.396 140.269 235.214 140.874 235.161 141.497C235.108 142.12 235.184 142.747 235.384 143.339L239.57 193.065H239.569ZM289.167 172.872L257.107 134.556C256.143 132.649 253.922 131.625 251.795 132.243C250.641 132.58 249.667 133.361 249.088 134.415C248.509 135.468 248.372 136.709 248.706 137.864V137.89C248.884 138.49 249.183 139.046 249.586 139.524C249.988 140.002 250.485 140.392 251.046 140.668L289.167 172.872ZM309.728 123.13L259.964 118.708C257.934 118.04 255.64 118.887 254.572 120.827C253.994 121.882 253.858 123.123 254.194 124.277C254.53 125.432 255.31 126.407 256.363 126.987L256.382 127.004C256.931 127.303 257.536 127.484 258.158 127.538C258.781 127.591 259.408 127.515 260 127.315L309.727 123.13H309.728ZM289.326 74.1588L251.01 106.219C249.103 107.184 248.079 109.404 248.697 111.531C249.034 112.685 249.815 113.659 250.869 114.238C251.923 114.817 253.163 114.954 254.318 114.62H254.344C254.944 114.443 255.5 114.143 255.978 113.741C256.456 113.338 256.846 112.841 257.122 112.28L289.326 74.1588Z" fill="#C8AB37"/>
<path fill-rule="evenodd" clip-rule="evenodd" d="M303.909 96.7913L264.652 109.402C264.549 109.431 264.443 109.452 264.342 109.492L264.104 109.566L264.124 109.602C263.488 109.91 262.964 110.408 262.624 111.028C262.409 111.418 262.273 111.846 262.224 112.289C262.174 112.731 262.213 113.179 262.337 113.607C262.46 114.034 262.668 114.434 262.946 114.781C263.224 115.129 263.568 115.418 263.959 115.632C264.545 115.954 265.212 116.096 265.878 116.041C266.544 115.986 267.18 115.735 267.705 115.322L303.909 96.7913ZM303.894 149.943L267.221 131.103C267.125 131.051 267.036 130.992 266.937 130.949L266.717 130.832L266.704 130.871C266.037 130.639 265.314 130.621 264.637 130.819C264.209 130.943 263.809 131.149 263.461 131.427C263.113 131.705 262.824 132.049 262.609 132.439C262.394 132.83 262.258 133.258 262.209 133.701C262.16 134.144 262.199 134.592 262.323 135.019C262.51 135.661 262.882 136.234 263.392 136.666C263.902 137.098 264.528 137.37 265.192 137.449L303.895 149.944L303.894 149.943ZM266.805 59.1836L247.963 95.8575C247.911 95.9533 247.852 96.0431 247.809 96.1418L247.691 96.3616L247.73 96.3752C247.499 97.0422 247.481 97.7646 247.68 98.4421C247.803 98.87 248.01 99.2694 248.288 99.6174C248.566 99.9654 248.91 100.255 249.3 100.47C249.69 100.685 250.119 100.821 250.561 100.869C251.004 100.918 251.452 100.88 251.88 100.755C252.521 100.568 253.094 100.196 253.526 99.6861C253.957 99.176 254.23 98.55 254.308 97.8863L266.805 59.1836ZM213.379 59.3076L225.989 98.5632C226.02 98.6677 226.041 98.7722 226.081 98.8738L226.154 99.1112L226.191 99.0936C226.499 99.7293 226.997 100.253 227.617 100.592C228.007 100.807 228.435 100.943 228.878 100.993C229.32 101.042 229.768 101.004 230.196 100.88C230.623 100.756 231.022 100.549 231.37 100.27C231.718 99.9921 232.007 99.648 232.221 99.2577C232.543 98.6718 232.685 98.0041 232.63 97.338C232.574 96.6719 232.324 96.0368 231.911 95.5118L213.379 59.3076ZM175.504 96.7454L212.179 115.586C212.274 115.639 212.363 115.699 212.462 115.742L212.683 115.858L212.696 115.819C213.338 116.044 214.059 116.075 214.763 115.872C215.191 115.748 215.591 115.542 215.939 115.264C216.287 114.986 216.576 114.642 216.791 114.251C217.006 113.861 217.142 113.433 217.191 112.99C217.24 112.547 217.201 112.099 217.076 111.672C216.889 111.03 216.518 110.457 216.008 110.025C215.497 109.593 214.871 109.321 214.208 109.242L175.504 96.7454ZM175.882 150.136L215.137 137.526C215.242 137.495 215.347 137.474 215.448 137.434L215.685 137.362L215.667 137.325C216.302 137.017 216.826 136.519 217.165 135.899C217.381 135.51 217.517 135.081 217.567 134.639C217.616 134.196 217.578 133.748 217.454 133.32C217.33 132.892 217.123 132.493 216.845 132.145C216.566 131.798 216.222 131.508 215.832 131.294C215.246 130.972 214.578 130.83 213.912 130.885C213.245 130.94 212.61 131.191 212.085 131.605L175.883 150.136H175.882ZM213.486 187.576L232.327 150.902C232.379 150.806 232.438 150.716 232.481 150.617L232.598 150.398L232.559 150.385C232.784 149.741 232.815 149.02 232.611 148.317C232.488 147.889 232.281 147.49 232.003 147.142C231.725 146.794 231.381 146.504 230.991 146.289C230.601 146.074 230.172 145.939 229.729 145.89C229.287 145.841 228.839 145.88 228.411 146.004C227.769 146.191 227.196 146.563 226.764 147.073C226.333 147.583 226.06 148.209 225.982 148.873L213.486 187.576ZM266.858 187.5L254.248 148.246C254.218 148.141 254.197 148.036 254.157 147.935L254.083 147.697L254.047 147.715C253.739 147.08 253.241 146.556 252.621 146.217C252.231 146.002 251.803 145.866 251.361 145.816C250.918 145.767 250.47 145.805 250.042 145.929C249.615 146.053 249.216 146.26 248.868 146.538C248.52 146.816 248.231 147.16 248.017 147.55C247.695 148.136 247.553 148.804 247.608 149.471C247.663 150.137 247.913 150.772 248.327 151.297L266.858 187.5Z" fill="#C8AB37"/>
<path d="M96.7637 231.418L103.392 203.858L113.16 224.44L123.975 204.207L129.556 229.673M158.51 219.905L141.417 227.929L151.185 201.765L163.394 230.022M186.07 195.137L167.58 211.883L185.72 228.279M211.187 198.276L193.395 215.37L211.187 231.418M194.093 214.672H212.93M287.933 229.673L288.282 202.811L307.469 223.743L308.864 200.719M320.027 197.231L320.376 231.068M349.68 218.859L331.539 228.278L342.004 200.369L354.214 228.975M363.284 229.673V202.463L382.471 224.44L383.168 201.416M228.628 199.673L226.186 228.626L242.582 216.068L228.628 199.673ZM265.607 198.276L252.7 213.277L264.211 227.58L277.119 213.277L265.607 198.276Z" stroke="#162D50" stroke-width="12.2097"/>
<path d="M129.802 266.238L139.433 241.158H143.008L153.274 266.238H149.493L146.567 258.642H136.079L133.325 266.238H129.801M137.037 255.939H145.54L142.922 248.994C142.124 246.884 141.531 245.15 141.143 243.793C140.818 245.422 140.366 247.024 139.791 248.583L137.037 255.939ZM164.325 266.238V241.158H167.644V266.238H164.325ZM183.314 266.238V241.158H194.434C196.67 241.158 198.368 241.386 199.533 241.842C200.695 242.287 201.625 243.08 202.32 244.22C203.016 245.361 203.364 246.621 203.364 248.001C203.364 249.78 202.787 251.28 201.637 252.501C200.484 253.722 198.705 254.496 196.299 254.827C197.178 255.249 197.844 255.665 198.301 256.076C199.27 256.965 200.188 258.078 201.055 259.412L205.417 266.238H201.243L197.924 261.02C196.954 259.515 196.156 258.363 195.529 257.564C194.902 256.766 194.337 256.206 193.835 255.888C193.375 255.582 192.866 255.356 192.33 255.221C191.953 255.141 191.338 255.101 190.482 255.101H186.633V266.238H183.314ZM186.632 252.227H193.767C195.284 252.227 196.47 252.073 197.325 251.765C198.181 251.446 198.83 250.944 199.276 250.259C199.713 249.587 199.945 248.803 199.943 248.002C199.943 246.815 199.509 245.84 198.643 245.076C197.787 244.311 196.429 243.929 194.571 243.929H186.632V252.227ZM218.162 266.238V241.158H221.481V263.278H233.833V266.238H218.162ZM246.715 266.238V241.158H250.034V266.238H246.715ZM265.619 266.238V241.158H269.023L282.196 260.849V241.157H285.377V266.238H281.973L268.801 246.53V266.238H265.618M300.758 266.238V241.158H318.892V244.118H304.077V251.799H317.951V254.741H304.077V263.278H319.473V266.238H300.758ZM332.611 258.181L335.743 257.907C335.89 259.161 336.233 260.193 336.768 261.003C337.315 261.801 338.16 262.451 339.301 262.953C340.441 263.443 341.724 263.689 343.15 263.689C344.416 263.689 345.533 263.501 346.503 263.124C347.473 262.748 348.191 262.235 348.659 261.585C349.137 260.923 349.378 260.204 349.378 259.429C349.378 258.642 349.149 257.958 348.693 257.376C348.237 256.783 347.484 256.287 346.435 255.888C345.762 255.625 344.273 255.221 341.97 254.673C339.666 254.114 338.052 253.589 337.128 253.099C335.93 252.472 335.036 251.697 334.442 250.773C333.861 249.837 333.57 248.794 333.57 247.642C333.57 246.376 333.929 245.195 334.648 244.1C335.366 242.995 336.416 242.157 337.795 241.586C339.175 241.016 340.71 240.73 342.398 240.73C344.256 240.73 345.893 241.033 347.307 241.637C348.733 242.23 349.827 243.108 350.592 244.271C351.356 245.435 351.767 246.752 351.823 248.223L348.641 248.463C348.47 246.877 347.889 245.68 346.897 244.87C345.916 244.06 344.462 243.656 342.534 243.656C340.527 243.656 339.061 244.027 338.138 244.767C337.226 245.498 336.768 246.382 336.768 247.419C336.768 248.321 337.094 249.061 337.744 249.644C338.383 250.225 340.047 250.823 342.739 251.44C345.442 252.044 347.296 252.575 348.299 253.031C349.76 253.704 350.837 254.559 351.532 255.597C352.229 256.623 352.577 257.809 352.577 259.155C352.577 260.49 352.195 261.75 351.43 262.935C350.666 264.111 349.565 265.029 348.128 265.69C346.702 266.341 345.094 266.666 343.303 266.666C341.034 266.666 339.129 266.335 337.59 265.673C336.062 265.012 334.859 264.02 333.981 262.696C333.113 261.362 332.657 259.857 332.611 258.181Z" fill="#162D50"/>
</svg>
