<svg width="480" height="320" viewBox="0 0 480 320" fill="none" xmlns="http://www.w3.org/2000/svg">
<g clip-path="url(#clip0_730_18251)">
<mask id="mask0_730_18251" style="mask-type:luminance" maskUnits="userSpaceOnUse" x="145" y="-7" width="295" height="334">
<path d="M145.975 -6.14108H439.815V326.59H145.975V-6.14108Z" fill="white"/>
</mask>
<g mask="url(#mask0_730_18251)">
<path fill-rule="evenodd" clip-rule="evenodd" d="M395.336 185.56L393.003 191.236H402.202L404.536 185.56H395.336ZM391.879 194.002L383.914 213.374H393.113L399.387 198.096L401.076 194.002H391.879ZM422.986 193.542C422.826 193.513 422.613 193.513 422.345 193.513C420.783 193.498 419.23 193.796 417.759 194.394C416.243 195.057 414.831 195.988 413.574 197.155C413.816 196.577 414.032 196.004 414.191 195.488C414.353 194.971 414.461 194.485 414.486 194.028H405.343C405.266 194.492 405.158 194.948 405.019 195.394C404.82 196.037 404.588 196.667 404.323 197.279L399.389 209.306L397.697 213.405H406.869L409.954 205.904C410.866 203.657 411.965 202.106 413.25 201.225C414.542 200.345 416.308 199.892 418.589 199.892C418.91 199.892 419.258 199.892 419.636 199.925C420.009 199.948 420.386 199.983 420.786 200.012L423.415 193.574C423.284 193.542 423.146 193.542 422.986 193.542ZM363.265 202.291L367.984 197.009L372.275 192.173L372.679 202.291H363.265ZM380.802 185.588H370.208L367.984 187.931L343.982 213.374H353.554L357.929 208.362H372.758L372.866 213.374H383.512L380.802 185.588ZM332.826 195.793C331.887 194.276 329.928 193.542 326.951 193.542C325.319 193.535 323.697 193.834 322.151 194.427C320.596 194.999 318.99 195.913 317.325 197.126C317.675 196.338 317.891 195.697 318.048 195.215C318.208 194.699 318.289 194.302 318.289 193.999H309.119C309.024 194.481 308.908 194.958 308.771 195.427C308.588 196.047 308.373 196.655 308.126 197.246L302.091 211.947L301.502 213.372H310.649L314.586 203.808C315.339 201.988 316.28 200.622 317.377 199.709C318.477 198.795 319.792 198.375 321.268 198.375C322.528 198.375 323.304 198.704 323.627 199.373C323.922 200.044 323.789 201.134 323.171 202.624L318.745 213.372H327.919L332.449 202.317C333.631 199.465 333.765 197.279 332.826 195.793ZM291.447 205.298C290.858 206.723 290.025 207.784 288.953 208.484C288.387 208.863 287.773 209.14 287.133 209.306C286.446 209.487 285.742 209.569 285.037 209.55C284.099 209.55 283.43 209.364 283.052 209.031C282.679 208.67 282.625 208.151 282.866 207.512C283.27 206.573 284.073 205.935 285.306 205.538C285.789 205.39 286.405 205.265 287.133 205.207C288.285 205.054 289.788 204.991 291.582 204.991L291.447 205.298ZM302.091 196.154C301.904 195.854 301.666 195.605 301.369 195.368C299.893 194.152 297.159 193.542 293.11 193.542C291.111 193.532 289.114 193.675 287.133 193.969C285.6 194.243 284.259 194.605 283.108 195.124C280.612 196.154 278.896 197.765 277.983 199.892H286.459C286.676 199.558 286.863 199.281 287.133 199.007C287.427 198.704 287.775 198.495 288.175 198.284C288.899 197.948 289.84 197.765 290.939 197.765C292.175 197.765 293.004 198.009 293.404 198.495C293.808 198.981 293.808 199.737 293.404 200.709C293.381 200.772 293.352 200.864 293.298 200.951C293.242 201.075 293.19 201.136 293.19 201.167C291.169 201.185 289.149 201.277 287.133 201.441C283.911 201.685 281.284 202.171 279.302 202.864C276.242 203.96 274.204 205.721 273.186 208.184C273.186 208.209 273.186 208.209 273.159 208.242C272.622 209.609 272.622 210.764 273.159 211.677C273.319 211.919 273.534 212.13 273.777 212.341C274.876 213.346 276.86 213.832 279.675 213.832C281.688 213.832 283.484 213.557 285.093 213.01C285.816 212.764 286.486 212.461 287.133 212.13C287.96 211.676 288.749 211.138 289.49 210.522C289.274 211.038 289.144 211.52 289.007 211.98C288.899 212.461 288.82 212.919 288.82 213.372H297.318C297.318 213.071 297.372 212.703 297.453 212.341C297.559 211.947 297.723 211.461 297.99 210.825L302.037 200.951C302.066 200.925 302.066 200.892 302.091 200.864C302.87 198.889 302.87 197.312 302.091 196.154ZM273.159 196.096C273.104 195.937 273.022 195.792 272.919 195.668C271.953 194.243 269.968 193.542 266.964 193.542C265.322 193.548 263.692 193.857 262.138 194.457C260.554 195.032 258.972 195.945 257.39 197.126L262.138 185.586H252.937L242.104 211.98L241.514 213.405H242.104L250.712 213.372L254.652 203.808C255.406 201.988 256.343 200.622 257.417 199.709C258.516 198.828 259.806 198.375 261.28 198.375C262.511 198.375 263.289 198.704 263.612 199.347C263.96 200.012 263.852 201.016 263.318 202.352L258.757 213.372H267.982L272.703 201.897C272.894 201.441 273.051 200.983 273.159 200.559C273.748 198.737 273.748 197.248 273.159 196.098M204.183 185.586L189.969 202.805L189.7 185.588H173.798L162.375 213.407H171.574L180.771 190.994L181.467 213.405H188.765L207.561 190.992L198.362 213.405H207.534L215.849 193.147L218.959 185.588L204.183 185.586ZM231.481 205.298C230.893 206.723 230.061 207.784 228.989 208.484C228.412 208.864 227.787 209.141 227.136 209.306C226.443 209.485 225.732 209.567 225.021 209.55C224.082 209.55 223.41 209.393 223.035 209.031C222.662 208.67 222.608 208.151 222.878 207.545C223.251 206.601 224.053 205.935 225.289 205.538C225.772 205.418 226.387 205.298 227.136 205.207C228.32 205.054 229.794 204.991 231.593 204.991L231.481 205.298ZM242.102 196.154C241.899 195.86 241.665 195.596 241.404 195.368C239.932 194.152 237.168 193.542 233.117 193.542C231.116 193.527 229.117 193.68 227.136 193.999C225.755 194.21 224.397 194.587 223.087 195.124C220.595 196.154 218.907 197.765 217.966 199.925H226.468C226.655 199.584 226.873 199.281 227.136 199.007C227.461 198.737 227.783 198.495 228.185 198.284C228.935 197.948 229.85 197.765 230.975 197.765C232.18 197.765 233.009 198.009 233.416 198.495C233.818 198.981 233.841 199.737 233.416 200.742C233.389 200.817 233.352 200.888 233.306 200.951C233.252 201.075 233.229 201.136 233.198 201.167C231.175 201.186 229.154 201.277 227.136 201.441C223.893 201.714 221.265 202.2 219.31 202.901C217.941 203.355 216.788 203.96 215.849 204.716C214.641 205.66 213.728 206.815 213.167 208.184C212.443 209.97 212.63 211.369 213.755 212.341C214.267 212.799 214.964 213.163 215.849 213.405C216.867 213.679 218.153 213.832 219.685 213.832C221.669 213.832 223.466 213.557 225.075 213.01C225.797 212.764 226.495 212.461 227.136 212.13C227.973 211.677 228.774 211.158 229.528 210.522C229.326 210.99 229.163 211.478 229.041 211.98C228.918 212.443 228.845 212.921 228.826 213.405H237.357C237.34 213.046 237.376 212.686 237.465 212.341C237.572 211.947 237.757 211.461 238.004 210.85L242.049 200.983C242.075 200.925 242.075 200.892 242.102 200.864C242.882 198.889 242.882 197.312 242.102 196.154Z" fill="#004846"/>
</g>
<path fill-rule="evenodd" clip-rule="evenodd" d="M422.435 128.364C422.706 127.849 423.023 127.386 423.325 127.462C424.247 127.462 424.717 128.968 424.598 130.682C424.331 132.33 423.451 133.907 422.308 134.362C421.371 134.733 420.449 134.733 419.635 134.353C416.676 132.021 415.976 138.058 413.15 141.567C412.024 144.109 410.812 146.792 409.298 148.925C408.584 149.917 407.794 150.68 406.921 150.803C404.958 151.593 402.519 152.507 399.994 153.065C399.292 153.274 399.22 152.202 399.771 151.99C400.35 151.781 400.679 151.656 401.113 151.372C404.033 149.461 407.134 147.378 409.467 144.656C409.736 144.344 409.888 144.022 409.898 143.59C409.91 143.094 409.728 143.134 409.516 143.177C408.976 143.287 404.77 143.302 404.864 140.647C405.386 137.922 407.494 132.452 410.101 132.588C411.017 132.636 411.767 133.231 412.424 134.208C413.659 136.048 412.823 136.776 413.55 136.776C414.276 136.776 415.658 132.751 416.639 130.682C417.436 128.999 418.804 127.801 420.341 128.659C421.507 129.311 421.386 130.354 422.435 128.363V128.364ZM418.313 154.828C418.022 155.875 417.659 156.923 417.659 157.97C417.461 159.661 419.854 158.596 419.828 161.637C419.802 164.464 416.546 165.24 416.149 162.036C415.844 159.577 417.359 155.813 418.313 154.828ZM397.626 125.523C397.174 130.945 396.487 136.388 395.633 140.954C394.548 145.021 393.133 147.863 391.563 150.19C391.028 151 389.949 151.423 390.836 148.925C392.318 145.343 392.774 140.812 393.38 136.202C393.426 134.254 393.439 132.933 394.251 131.137L396.618 124.922C397.148 123.702 397.726 124.332 397.626 125.523ZM390.329 125.623C390.717 124.997 391.261 125.164 391.31 125.776C390.861 127.833 389.723 129.646 388.112 131.295C387.963 131.478 387.8 131.649 387.626 131.807C387.041 132.319 386.386 132.167 385.76 131.799C384.311 130.945 383.608 131.388 381.099 133.518C379.694 134.591 379.307 135.709 379.645 136.987L381.607 139.708C382.307 140.424 382.116 141.139 381.316 141.855L379.136 144.173C378.568 144.847 378.262 144.699 377.209 144.039C376.157 143.378 374.738 142.046 373.285 142.352C372.308 142.383 365.66 148.225 356.267 152.277C339.794 159.381 319.317 162.287 310.082 157.451C305.687 155.15 303.547 150.651 304.223 143.407L305.737 127.192C305.915 125.283 306.269 123.736 306.867 121.927C307.555 119.851 308.558 117.965 308.851 117.422C309.099 116.961 305.808 141.567 307.761 144.326C310.342 152.658 328.51 152.982 344.527 149.996C355.37 147.976 365.666 142.626 371.32 139.368C373.994 137.829 375.377 137.168 375.792 136.815C377.589 135.286 379.849 130.861 382.383 128.708C383.817 127.488 385.734 126.995 386.512 127.348C389.134 128.535 389.844 126.775 390.329 125.623ZM292.532 121.139C292.971 120.192 293.204 119.42 294.385 121.177C295.505 122.426 296.465 125.179 296.26 128.384C296.061 131.519 294.955 134.824 293.694 137.698C291.492 142.711 291.876 143.375 292.493 143.68C295.027 144.932 295.869 146.536 295.725 149.712C295.676 150.842 295.52 151.964 295.257 153.065C292.063 166.008 285.366 170.98 278.685 171.002C263.425 168.275 273.177 146.05 277.463 138.233C278.312 136.685 278.935 137.891 278.032 139.881C272.397 151.69 270.432 160.401 278.249 162.684C283.816 163.487 288.053 161.803 292.059 157.51C293.225 155.248 294.003 153.177 292.059 152.452C289.18 151.253 287.272 149.458 288.57 146.012C289.868 142.567 293.125 135.665 293.041 133.825C293.041 131.985 290.896 128.383 290.896 128.383C290.6 127.654 290.515 126.862 290.896 125.93C291.429 124.345 291.998 122.723 292.532 121.139ZM290.394 110.908C290.394 110.908 288.215 110.64 288.433 111.981C288.65 113.322 290.176 112.799 290.975 112.517C291.774 112.237 291.998 112.646 291.538 113.591C291.181 114.114 290.802 114.405 290.192 114.713C289.811 114.975 288.855 115.536 288.091 116.316C287.319 117.103 286.709 117.946 286.341 118.396C286.072 118.727 286.011 118.738 285.615 118.722C284.738 118.686 285.099 117.459 285.829 116.433C286.494 115.499 287.321 115.008 287.342 114.913C287.485 114.27 286.258 114.139 286.761 112.824C287.263 111.509 287.984 109.948 289.232 109.682C290.479 109.417 290.946 110.784 290.394 110.908ZM258.604 121.172C258.162 124.493 256.854 134.587 256.608 137.651C256.309 141.351 256.866 145.084 258.642 145.467C260.418 145.85 260.095 144.803 260.676 142.785C261.258 140.767 263.001 141.968 263.147 145.467C261.851 156.321 252.888 155.735 253.665 145.007L255.336 128.226C255.668 125.776 257.047 123.527 257.803 120.953C257.933 120.512 258.856 119.282 258.604 121.173V121.172ZM246.456 113.561C245.746 115.918 243.75 121.941 244.976 125.187C245.437 126.406 246.466 127.029 248.199 127.337C249.002 127.48 249.357 126.68 249.394 127.858C249.415 128.447 249.217 129.169 249.053 129.606C247.458 133.827 242.094 139.571 243.24 143.743C243.733 145.538 244.693 145.487 245.347 143.245C246.001 141.002 248.205 144.93 247.237 147.765C246.267 150.601 244.398 153.79 241.423 153.206C238.449 152.623 238.114 147.991 239.716 144.203C240.876 141.459 243.15 137.759 244.092 136.192C244.344 135.773 244.363 135.349 244.258 135.314C236.581 133.193 243.939 115.739 245.835 112.657C246.494 111.584 247.06 111.556 246.456 113.561ZM232.34 134.739C233.018 132.772 233.405 133.079 233.285 135.199C232.74 141.291 232.046 146.354 230.96 152.134C229.874 157.913 221.775 171.528 211.706 170.984C201.636 170.439 200.866 159.248 204.512 150.524C206.222 146.435 207.411 144.244 208.06 142.99C209.006 141.16 210.194 141.508 209.489 142.776C205.92 149.199 201.46 162.334 212.505 163.014C220.489 163.506 227.244 157.758 228.78 152.209C230.317 146.662 229.108 142.151 229.652 141.942C229.044 142.583 231.757 134.894 232.34 134.739ZM365.28 162.178C365.526 161.538 366.068 160.962 367.033 161.757C368.815 163.584 370.448 164.854 369.175 167.849C368.069 170.445 367.267 171.515 366.387 171.49C365.534 171.466 364.608 170.406 363.261 168.998C362.489 168.315 362.637 167.593 362.996 166.7L365.28 162.178ZM380.857 158.492C381.156 157.879 381.677 157.312 382.569 158.196L384.345 160.291C384.345 160.291 385.296 161.175 385.079 162.842C384.973 163.142 385.166 163.127 385.401 163.069L387.978 158.492C388.277 157.879 388.798 157.312 389.69 158.196L391.465 160.291C391.465 160.291 392.143 161.031 392.231 162.424C392.393 164.986 389.289 169.096 387.892 167.256C386.448 165.879 385.097 163.476 384.661 164.54C384.416 165.14 382.298 169.074 380.772 167.256L378.655 165.001C378.002 164.481 377.856 163.744 378.145 163.31L380.857 158.492ZM372.65 161.719C372.895 161.079 373.437 160.502 374.402 161.297C376.185 163.125 377.817 164.395 376.543 167.389C375.438 169.985 374.637 171.056 373.756 171.031C372.903 171.006 371.976 169.947 370.63 168.539C369.858 167.856 370.006 167.134 370.365 166.24L372.65 161.719Z" fill="#004846"/>
<path fill-rule="evenodd" clip-rule="evenodd" d="M384.05 167.999C384.295 167.357 384.837 166.782 385.802 167.577C387.585 169.404 389.218 170.674 387.944 173.669C386.838 176.265 386.037 177.335 385.156 177.31C384.302 177.286 383.376 176.227 382.03 174.818C381.258 174.135 381.406 173.413 381.764 172.519L384.05 167.999ZM217.895 141.476C218.141 140.836 218.683 140.26 219.648 141.055C221.43 142.882 223.063 144.153 221.789 147.146C220.684 149.743 219.882 150.813 219.002 150.789C218.149 150.763 217.222 149.705 215.876 148.296C215.105 147.613 215.252 146.892 215.61 145.997L217.895 141.476Z" fill="#004846"/>
<mask id="mask1_730_18251" style="mask-type:luminance" maskUnits="userSpaceOnUse" x="-356" y="-286" width="994" height="995">
<path d="M-355.979 -285.356H637.893V708.516H-355.979V-285.356Z" fill="white"/>
</mask>
<g mask="url(#mask1_730_18251)">
<path fill-rule="evenodd" clip-rule="evenodd" d="M82.0545 145.019L85.238 131.499C86.1847 128.645 88.5339 126.801 92.1101 126.913L103.07 127.187C107.039 127.299 109.381 131.829 108.442 136.303L107.649 141.548C106.878 147.144 103.47 151.155 97.7621 153.679C74.397 161.736 58.3037 172.402 60.765 190.41C63.2193 208.452 90.5534 210.577 105.924 189.007L141.575 138.974C154.878 120.314 174.996 111.823 198.529 109.088L230.155 106.171C224.91 123.505 213.725 135.517 196.517 138.708C166.616 144.177 144.668 150.222 132.634 163.966L121.176 177.22L103.905 198.789C96.1492 208.452 84.8944 211.973 72.2793 209.68C61.1577 207.169 54.6713 199.848 55.4497 184.379C56.221 168.882 67.2514 151.786 82.0545 145.019Z" fill="#004846"/>
<path fill-rule="evenodd" clip-rule="evenodd" d="M96.8984 209.457C103.167 204.324 105.229 203.987 113.111 192.08C120.986 180.181 137.696 162.566 148.032 156.416C158.383 150.273 168.207 148.211 179.497 145.974L196.095 142.616C193.584 158.933 181.067 167.257 163.67 169.269C146.349 171.338 132.949 175.09 124.401 184.984L109.696 201.863C106.411 205.768 101.9 208.445 96.8984 209.457Z" fill="#004846"/>
<path fill-rule="evenodd" clip-rule="evenodd" d="M124.078 211.559C114.121 208.985 113.56 196.363 126.421 187.913C139.211 179.428 156.602 179.534 163.123 192.675C154.919 189.645 149.94 188.04 145.536 196.468C141.118 204.911 133.959 214.125 124.078 211.559Z" fill="#004846"/>
</g>
</g>
<defs>
<clipPath id="clip0_730_18251">
<rect width="480" height="320" fill="white"/>
</clipPath>
</defs>
</svg>
