<svg width="480" height="320" viewBox="0 0 480 320" fill="none" xmlns="http://www.w3.org/2000/svg">
<path d="M193.918 137.168L158.55 172.528V137.202H146.02L115.814 167.373V137.202H103.3L55.3848 185.094L73.0856 185.086L103.3 154.876V185.094H115.814L146.02 154.903V185.094H158.55V185.086H163.784L193.955 154.929V172.575H176.322V185.094H206.457V137.202M259.578 149.713H289.754V137.202H272.105" fill="#273476"/>
<path d="M289.744 167.402V154.887H259.562V137.202H247.036V172.576H224.201V137.202H211.672V185.094H289.744V172.576H259.562V167.402M294.953 137.202V185.094H307.484L355.405 137.185H337.673L307.484 167.374V137.202M354.162 204.047L416.841 141.419L416.901 141.353C421.709 136.529 424.616 129.861 424.616 122.519V115.953L354.187 186.357M416.96 162.533C421.726 157.716 424.648 151.087 424.614 143.769L424.595 137.168L376.678 185.087V202.805M416.866 183.885C421.683 179.053 424.65 172.389 424.614 165.04V158.411L397.934 185.113V202.813" fill="#273476"/>
</svg>
