<svg width="480" height="320" viewBox="0 0 480 320" fill="none" xmlns="http://www.w3.org/2000/svg">
<path d="M105.67 141.389C105.67 141.389 105.178 146.571 105.754 147.746L104.775 145.752C102.425 140.965 96.0402 137.357 91.0536 135.731C88.916 134.944 86.3827 135.244 86.3827 135.244C83.8615 135.503 82.7107 135.847 82.7107 135.847C86.2189 136.778 89.4914 139.643 91.5811 143.099C93.8107 146.779 94.458 151.098 93.3551 154.938C93.3551 154.938 93.1993 155.534 93.1753 155.478C93.1753 155.478 87.1218 138.085 75.3747 137.198C69.1015 136.69 64.6383 139.335 62.0052 141.637C58.1894 144.969 55.6721 149.768 55.4364 154.163C54.9249 161.092 58.3572 166.845 59.416 168.44C62.4607 173.194 70.6838 181.469 78.4553 187.199C78.4553 187.199 87.6373 194.044 97.099 195.402H103.124C104.563 195.158 105.965 194.719 107.292 194.028C97.167 190.056 86.9021 182.732 79.9657 174.045C77.6082 170.609 74.8951 165.651 75.2348 161.419C75.6344 156.429 80.0616 152.705 85.108 153.112C88.5124 153.384 91.4572 155.474 92.7837 158.566C94.402 168.767 104.191 180.451 113.889 187.455C113.889 187.455 117.597 190.819 123.319 189.193L140.576 183.907L134.311 180.658C125.752 176.099 118.36 170.314 113.401 164.224C107.188 156.061 106.968 150.747 106.968 150.747C106.944 149.213 107.152 147.574 108.163 146.164C109.653 144.082 112.79 142.772 115.527 142.704C115.527 142.704 118.448 142.664 120.282 143.702C126.543 146.631 130.467 157.655 131.17 158.922C131.17 158.922 142.578 183.619 158.616 178.513C152.699 175.076 146.13 159.118 146.13 159.118C144.527 154.754 142.809 148.102 142.014 143.367C140.228 132.746 136.844 125.322 125.612 124.419C125.114 124.38 124.614 124.36 124.114 124.359C114.564 124.359 106.449 131.719 105.67 141.389" fill="url(#paint0_linear_730_18621)"/>
<path d="M193.616 195.636H196.792V184.404C196.792 182.335 195.681 181.452 193.08 181.452H183.347C182.776 181.452 181.577 181.739 181.173 182.814L180.69 184.109H185.52V195.636H188.701V184.109H193.616L193.616 195.636ZM177.501 183.777V195.636H180.606V181.451C177.337 181.447 177.501 183.777 177.501 183.777M182.225 147.189L178.992 152.231H184.378L186.748 149.031L189.277 152.231H194.2L188.981 145.047H186.292C183.539 145.047 182.225 147.189 182.225 147.189M207.448 147.189L204.211 152.231H209.598L211.967 149.031L214.492 152.231H219.415L214.2 145.047H211.515C208.758 145.047 207.448 147.189 207.448 147.189" fill="#2A46A2"/>
<path d="M177.379 163.952H195.831V166.429H202.863V163.952H216.96C219.062 163.229 220.328 162.13 220.924 160.132H202.863V157.719H216.984C219.054 157.319 220.36 156.209 220.936 153.923H202.863V143.307H216.984C219.114 143.083 220.42 141.976 220.94 139.483H181.119C178.11 139.483 177.379 143.307 177.379 143.307H195.831V153.923H181.095C177.882 153.923 177.379 157.719 177.379 157.719H195.831V160.132H181.507C177.922 160.132 177.379 163.952 177.379 163.952M204.032 184.006L198.218 195.634H201.787L203.153 192.673H207.245C208.487 192.549 209.282 191.794 209.586 190.439H204.188L207.301 183.575L210.233 190.439H210.186L212.519 195.634H216.423L209.786 181.449H207.337C205.223 181.229 204.033 184.006 204.033 184.006M255.113 184.006L249.3 195.634H252.864L254.23 192.673H258.326C259.569 192.549 260.364 191.794 260.667 190.439H255.277L258.39 183.575L261.315 190.439H261.267L263.597 195.634H267.508L260.867 181.449H258.418C256.304 181.229 255.113 184.006 255.113 184.006ZM322.634 184.006L316.825 195.634H320.389L321.755 192.673H325.847C327.093 192.549 327.884 191.794 328.188 190.439H322.794L325.907 183.575L328.836 190.439H328.788L331.121 195.634H335.033L328.388 181.449H325.939C323.829 181.229 322.634 184.006 322.634 184.006ZM381.928 166.278L392.077 166.233L419.547 166.186C421.781 165.918 423.399 164.544 424.482 161.978H406.365V155.226H419.22C421.717 154.69 423.183 153.32 423.671 150.958H386.415C383.295 150.958 381.928 155.226 381.928 155.226H399.381V161.978H386.415C383.474 161.866 381.928 166.278 381.928 166.278ZM269.918 133.941H262.538C259.129 133.937 258.486 137.772 258.486 137.772H283.727C286.14 137.617 287.527 136.394 288.082 133.941H276.902V132.063H272.111C269.558 132.063 269.918 133.941 269.918 133.941M342.361 134.6H339.201C336.264 134.707 336.672 138.104 336.672 138.104H352.542C355.052 137.812 356.466 136.634 356.75 134.6H348.587V132.063H345.386C342.038 132.063 342.361 134.6 342.361 134.6ZM405.401 140.294V144.749C405.401 146.895 406.756 147.985 409.437 147.985H417.82C421.228 147.985 423.202 146.587 423.849 143.726H413.764C412.565 143.726 412.39 142.983 412.39 142.535V140.294L405.401 140.294ZM259.049 144.03H283.726C285.772 143.906 287.102 142.823 287.893 140.621H262.657C260.176 140.621 259.049 144.03 259.049 144.03ZM207.893 133.845H189.816C189.816 132.039 186.883 132.059 186.883 132.059H182.88L184.099 133.797H181.553C178.357 133.953 177.729 137.241 177.729 137.241H217.37C218.989 136.602 219.971 135.579 220.695 133.797H213.914L214.997 132.059H211.525C207.633 132.059 207.893 133.845 207.893 133.845M259.049 150.567H283.73C285.716 150.478 287.118 149.284 287.897 147.014H262.481C260.024 147.014 259.049 150.567 259.049 150.567ZM249.25 137.773L245.702 146.1H248.795V166.282H254.285V138.752L257.09 132.247H255.12C251.152 132.059 249.25 137.773 249.25 137.773ZM258.722 166.281H287.771V157.967C287.771 155.241 286.688 153.867 284.255 153.507H258.722V166.281ZM279.836 162.589H265.239V157.108H281.258V161.167C281.258 162.11 280.779 162.59 279.835 162.59M389.91 143.031L383.145 147.986H392.107L401.066 140.294H396.211C393.27 140.086 389.91 143.031 389.91 143.031ZM336.953 144.849V156.84C336.953 161.754 335.463 164.739 334.824 166.014L334.804 166.053C334.782 166.1 334.758 166.145 334.732 166.189H340.122C340.263 166.053 340.407 165.92 340.553 165.79C342 164.471 343.214 163.424 343.214 156.416V145.208H348.493V166.189H352.413C355.869 166.021 357.255 164.875 357.467 161.978C357.015 161.974 356.552 161.957 356.16 161.854C355.429 161.654 355.277 161.219 355.277 160.883V147.949C355.277 144.489 353.787 142.523 350.718 141.931C350.115 141.856 349.316 141.748 348.437 141.8H339.91C336.889 141.784 336.953 144.848 336.953 144.848" fill="#2A46A2"/>
<path d="M388.491 137.772H417.06L417.155 140.877H424.136L423.96 137.237C423.445 134.704 421.235 133.517 417.016 133.517H406.367V132.059H402.811C399.255 132.059 399.379 133.517 399.379 133.517H385.606C381.163 133.597 381.506 137.441 381.506 137.441V140.877H388.491V137.772ZM360.711 183.774V195.633H368.786C370.36 195.557 371.267 194.698 371.555 193.028H364.123V181.448C360.711 181.448 360.711 183.774 360.711 183.774M411.941 193.028V195.637H421.007C424.184 195.637 424.615 194.239 424.615 192.733V189.912C424.615 187.962 424.32 187.147 422.466 187.147H415.257V184.066H422.657C423.784 183.918 424.407 183.087 424.587 181.453H415.553C415.337 181.453 415.106 181.489 414.87 181.521L414.698 181.549C413.435 181.857 411.941 182.776 411.941 184.362V186.856C411.941 188.162 412.153 189.357 414.686 189.569C414.786 189.565 414.942 189.581 415.078 189.589C415.245 189.605 415.397 189.617 415.553 189.617H421.307V193.03L411.941 193.028ZM397.5 183.774V195.633H406.886C408.129 195.565 408.84 194.754 409.18 193.028H400.817V189.616H406.894C408.44 189.368 408.92 188.301 409.176 187.146H400.817V181.449C397.341 181.449 397.5 183.774 397.5 183.774M401.061 184.066H406.894C408.448 183.818 408.928 182.679 409.176 181.449H402.898C402.087 181.572 401.604 181.996 401.392 182.783L401.061 184.066ZM314.375 135.367V147.817H313.06V151.789H314.375V157.962C314.375 160.787 314.199 162.549 312.641 166.281H317.727C319.549 164.192 320.197 161.89 320.197 157.543V151.789H322.606V161.658C323.757 161.263 324.56 160.583 324.935 159.696V151.789H327.501V166.185H333.262V151.789H334.485V147.817H333.262V138.304C332.955 135.619 331.336 134.26 328.324 134.172H321.743L322.634 132.242H320.089C315.266 132.242 314.375 135.367 314.375 135.367M327.501 147.817H323.497L324.096 147.298C324.164 147.234 324.236 147.178 324.3 147.126C325.039 146.515 325.099 146.463 324.944 141.36L322.606 141.288V147.817H320.197V138.431H327.501V147.817ZM285.584 183.774V195.633H289.041V181.449C285.289 181.389 285.584 183.774 285.584 183.774ZM374.096 183.774V195.633H377.557V181.449C373.805 181.389 374.096 183.774 374.096 183.774ZM337.002 183.774V195.633H340.455V181.449C336.703 181.389 337.002 183.774 337.002 183.774ZM272.714 183.782H278.715V187.047H272.866L279.087 195.637H282.859L278.296 188.769H280.725C281.988 188.637 282.363 188.11 282.555 187.298L282.551 184.078C282.551 182.58 281.401 181.449 279.878 181.449H275.175C273.241 181.449 272.714 183.782 272.714 183.782M272.578 181.449C269.094 181.449 269.262 183.99 269.262 183.99V195.637H272.578V181.449ZM347.858 183.782H353.86V187.047H348.014L354.235 195.637H358.003L353.44 188.769H355.87C357.132 188.637 357.512 188.11 357.703 187.298L357.691 184.078C357.691 182.58 356.545 181.449 355.022 181.449H350.319C348.386 181.449 347.858 183.782 347.858 183.782M347.718 181.449C344.242 181.449 344.402 183.99 344.402 183.99V195.637H347.718V181.449ZM233.084 184.126V195.637H240.692C242.01 195.59 242.941 195.546 243.516 195.454C244.184 195.334 244.903 195.058 245.47 194.694C246.469 194.127 247.209 193.344 247.672 192.369C248.195 191.374 248.443 190.187 248.443 188.733C248.443 187.231 248.195 185.996 247.676 184.961C247.171 183.946 246.376 183.104 245.391 182.544C244.695 182.112 244.02 181.84 243.265 181.681C242.777 181.576 241.926 181.449 240.692 181.449H239.988L238.69 181.548C238.015 181.548 237.395 182.224 237.044 182.859L236.496 183.838V181.449C232.636 181.449 233.084 184.126 233.084 184.126M239.425 193.028H236.496V184.11H239.425C239.869 184.11 240.356 184.162 240.728 184.206C241.874 184.358 242.809 184.709 243.509 185.257C244.456 186.04 244.939 187.191 244.939 188.685C244.939 190.147 244.46 191.318 243.604 191.981C242.861 192.517 241.974 192.825 240.728 192.976C240.336 193.028 239.893 193.028 239.425 193.028M226.83 195.633H229.955V184.402C229.955 182.691 229.955 181.449 227.897 181.449H223.194C222.738 181.449 222.023 182.012 221.727 182.811L221.252 184.106H226.874V184.406L226.83 195.633ZM217.936 184.034V195.633H221.156V181.449C217.74 181.689 217.936 184.034 217.936 184.034M295.438 184.054H300.892V195.566L303.993 195.55V184.318C303.985 182.608 303.953 181.381 301.891 181.389H297.496C295.41 181.389 295.438 184.054 295.438 184.054M291.974 184.127V195.614L295.194 195.598V181.414V181.422C291.822 181.422 291.974 184.127 291.974 184.127M385.607 184.054H391.061V195.566L394.166 195.55V184.318C394.158 182.608 394.122 181.381 392.064 181.389H387.665C385.575 181.389 385.607 184.054 385.607 184.054M382.147 184.158V195.614L385.359 195.598V181.413V181.421C381.991 181.421 382.147 184.159 382.147 184.159" fill="#2A46A2"/>
<defs>
<linearGradient id="paint0_linear_730_18621" x1="58.422" y1="116.968" x2="162.891" y2="125.374" gradientUnits="userSpaceOnUse">
<stop stop-color="#FBC707"/>
<stop offset="1" stop-color="#F68712"/>
</linearGradient>
</defs>
</svg>
