<svg width="480" height="320" viewBox="0 0 480 320" fill="none" xmlns="http://www.w3.org/2000/svg">
<path d="M156.914 186.13L155.204 179.825C154.263 176.379 153.501 173.302 153.51 172.988C153.518 172.674 159.622 172.417 159.622 172.417C163.205 172.417 166.828 172.616 166.669 172.194L160.824 156.652C160.824 156.652 155.789 163.491 150.611 171.524L141.197 186.131H108.397L108.852 184.417C110.015 180.04 113.225 163.135 113.009 162.531C112.875 162.158 109.668 167.229 105.883 173.801L99 186.13H82.8734L82.379 182.155C80.9498 170.521 79.3508 161.669 78.8477 162.605C78.5376 163.182 77.361 168.112 76.2331 173.559C75.1051 179.007 73.3958 186.13 73.3958 186.13H55.3828C55.3828 186.13 57.5128 175.578 59.4868 165.941C61.4608 156.303 63.8065 144.989 64.6997 140.798L66.3238 132.973H92.5753L92.5926 134.495C92.5926 134.495 94.7405 161.121 95.0627 161.443C95.2473 161.628 99.0958 155.258 103.615 147.289L111.831 132.973H137.527L134.102 150.471C134.102 150.471 130.831 167.498 131.018 167.686C131.35 168.017 141.307 153.017 149.753 139.464L153.908 132.973H173.661L178.938 150.893C181.84 160.636 184.446 168.608 184.729 168.608C185.012 168.608 186.936 160.636 189.004 150.893L192.765 132.973H209.007C209.007 132.973 226.458 133.094 228.21 133.565C234.167 135.169 238.097 140.286 238.097 146.438C238.097 150.723 236.943 153.282 233.35 156.961L230.216 160.17L232.745 168.77C234.136 173.499 235.601 178.551 236.001 179.994C236.934 183.368 237.538 182.297 239.201 174.322C239.9 170.969 243.871 151.846 243.871 151.846L247.687 132.973H265.525C265.525 132.973 256.3 182.255 255.16 186.13H218.798L214.761 172.073C212.54 164.131 210.796 157.594 210.886 157.546C219.358 156.26 224.332 147.25 212.929 147.655H208.011L203.923 166.703C202.53 173.187 201.098 179.663 199.627 186.13H156.914ZM265.525 155.269L279.174 132.973H298.286L291.359 145.479L284.433 156.404L286.908 164.982C286.908 164.982 289.33 174.376 289.264 175.374C289.198 176.372 289.658 178.92 290.286 181.036C291.659 185.658 291.725 187.118 290.544 186.725C290.058 186.563 289.178 184.775 288.588 182.752C287.864 180.272 287.264 179.325 286.745 179.844C286.228 180.361 286.224 181.523 286.733 183.367C287.6 186.507 286.624 187.78 285.278 185.266L284.384 183.596L283.109 185.288C281.9 186.71 279.897 186.012 278.199 186.13H273.866L265.525 155.269ZM294.151 186.221C293.278 184.808 290.686 175.79 290.677 174.131C290.671 173.188 290.976 172.417 291.355 172.417C291.93 172.417 293.052 175.602 295.695 184.733C296.098 186.126 294.841 187.338 294.151 186.221ZM319.367 186.321C319.179 186.007 318.275 183.062 317.359 179.777C315.783 174.131 315.753 172.011 317.272 173.611C317.87 174.24 321.142 185.029 321.142 186.37C321.142 187.074 319.795 187.037 319.367 186.321V186.321ZM323.549 185.559C322.608 183.755 320.381 175.905 320.381 174.395C320.381 173.726 320.709 173.179 321.11 173.179C321.729 173.179 322.564 175.571 325.434 185.559C325.644 186.293 325.463 186.893 325.03 186.893C324.598 186.893 323.931 186.293 323.549 185.559ZM326.128 180.758C323.892 173.68 323.831 173.179 325.214 173.179C325.844 173.179 326.867 175.48 327.88 179.175C329.722 185.895 329.84 186.893 328.795 186.893C328.394 186.893 327.194 184.132 326.128 180.758ZM331.866 185.476C331.001 183.859 317.333 135.907 317.333 134.489C317.333 132.625 318.76 133.627 319.537 136.037C319.976 137.399 323.267 148.798 326.85 161.369C330.433 173.941 333.551 184.826 333.781 185.559C334.336 187.337 332.827 187.271 331.866 185.476L331.866 185.476ZM334.945 182.131C333.445 177.55 321.143 134.546 321.143 133.884C321.143 133.706 321.572 133.56 322.096 133.56C322.693 133.56 325.819 143.165 330.477 159.31C334.562 173.472 337.904 185.472 337.904 185.976C337.904 188.423 336.341 186.391 334.945 182.131ZM340.109 184.797C338.907 181.673 325.714 135.453 325.714 134.368C325.714 133.854 326.108 133.565 326.589 133.725C327.285 133.957 342.447 184.174 342.47 186.321C342.484 187.749 340.834 186.683 340.108 184.797H340.109ZM341.48 175.298C339.546 168.895 336.201 157.334 334.046 149.608C331.891 141.883 329.956 135.112 329.744 134.561C329.533 134.011 329.856 133.56 330.462 133.56C331.236 133.56 332.755 137.693 335.571 147.465C337.776 155.112 341.063 166.34 342.875 172.417C346.751 185.407 346.929 186.261 345.831 186.648C345.336 186.822 343.561 182.194 341.48 175.298ZM349.085 186.321C347.631 183.86 333.807 134.356 334.406 133.757C335.318 132.846 336.051 134.792 340.172 149.058C342.37 156.668 345.674 167.983 347.513 174.204C349.352 180.425 350.856 185.826 350.856 186.204C350.856 187.036 349.558 187.122 349.085 186.321ZM350.583 177.56C347.708 167.926 347.36 165.927 348.44 165.26C348.787 165.045 350.376 169.396 351.972 174.929C353.567 180.461 355.034 185.417 355.232 185.94C355.429 186.464 355.09 186.893 354.48 186.893C353.718 186.893 352.492 183.956 350.583 177.56ZM356.292 182.131C351.527 167.455 348.661 154.73 350.544 156.613C351.131 157.2 359.237 184.446 359.237 185.832C359.237 188.416 357.708 186.494 356.292 182.131ZM368.44 185.686C368.477 184.799 368.657 184.618 368.9 185.226C369.12 185.776 369.093 186.433 368.84 186.686C368.587 186.94 368.407 186.49 368.44 185.686ZM371.322 184.797C370.127 181.776 369.514 175.647 370.504 176.607C371.222 177.304 373.713 184.804 373.713 186.269C373.713 187.727 372.085 186.725 371.322 184.798V184.797ZM374.861 182.512C374.176 180.102 373.072 176.368 372.408 174.214C371.697 171.905 371.447 169.714 371.8 168.88C372.248 167.823 373.019 169.409 374.846 175.147C378.373 186.219 378.509 186.893 377.21 186.893C376.519 186.893 375.641 185.255 374.861 182.512ZM380.169 185.94C379.974 185.417 378.286 179.748 376.417 173.344C374.149 165.573 373.214 161.172 373.606 160.112C374.046 158.924 375.189 161.854 378.15 171.756C382.319 185.696 382.568 186.893 381.308 186.893C380.876 186.893 380.363 186.464 380.169 185.94ZM382.107 178.724C377.244 162.92 375.237 155.44 375.237 153.119C375.237 148.801 376.523 152.07 381.332 168.607C386.807 187.437 386.531 186.23 385.459 186.628C384.984 186.805 383.563 183.453 382.107 178.724ZM405.351 185.94C404.323 182.825 397.332 158.847 397.332 158.437C397.332 158.164 397.804 157.941 398.382 157.941C398.96 157.941 399.773 159.227 400.19 160.798C400.607 162.37 402.363 168.487 404.092 174.393C405.821 180.299 407.236 185.527 407.236 186.012C407.236 187.195 405.746 187.139 405.35 185.94H405.351ZM409.897 186.122C409.101 184.833 401.903 159.999 401.903 158.541C401.903 157.792 402.246 157.179 402.665 157.179C403.084 157.179 403.427 157.275 403.427 157.392C403.427 157.508 405.31 163.937 407.61 171.677C409.912 179.417 411.797 186.007 411.801 186.321C411.809 187.16 410.451 187.018 409.897 186.122ZM413.727 185.94C410.268 175.595 405.169 155.894 405.703 154.942C406.29 153.897 406.425 153.891 406.799 154.893C407.844 157.69 415.617 185.034 415.617 185.913C415.617 187.171 414.146 187.192 413.727 185.942V185.94ZM416.836 182.512C416.116 180.102 412.673 168.188 409.186 156.036C403.702 136.93 402.673 131.79 404.746 133.864C405.104 134.222 420.189 185.824 420.189 186.69C420.189 186.802 419.729 186.893 419.166 186.893C418.582 186.893 417.584 185.018 416.836 182.512ZM421.431 183.274C420.79 181.283 418.85 174.684 417.121 168.607C415.392 162.531 412.46 152.379 410.607 146.047C408.753 139.714 407.236 134.314 407.236 134.047C407.236 133.779 407.678 133.56 408.219 133.56C408.81 133.56 410.162 136.821 411.615 141.751C415.988 156.59 423.998 185.27 423.998 186.089C423.998 188.185 422.475 186.514 421.431 183.274ZM298.023 185.559C297.242 184.294 293.715 171.222 293.715 169.593C293.715 165.705 295.103 168.307 297.392 176.484C298.722 181.235 299.81 185.349 299.81 185.626C299.81 186.316 298.459 186.266 298.023 185.559H298.023ZM301.372 183.274C300.942 181.703 299.605 176.988 298.402 172.798C296.393 165.8 296.063 162.241 297.568 163.794C298.324 164.575 303.619 182.933 303.619 184.774C303.619 187.179 302.178 186.217 301.372 183.274ZM358.226 174.545C352.726 156.42 351.133 149.741 352.082 148.791C352.667 148.207 353.456 150.001 354.837 155.051C355.902 158.945 358.257 167.184 360.071 173.36C362.385 181.237 363.129 184.829 362.566 185.393C362.002 185.957 360.706 182.718 358.226 174.545ZM302.255 171.473C300.409 165.048 299.396 160.231 299.756 159.588C300.589 158.099 300.778 158.55 303.907 169.525C306.814 179.723 307.07 181.22 306.013 181.874C305.654 182.096 303.963 177.416 302.255 171.473ZM382.635 166.174C376.561 145.407 376.314 144.369 377.234 143.448C378.384 142.299 388.631 177.857 387.654 179.604C387.118 180.562 385.857 177.189 382.635 166.174ZM305.326 166.89C302.618 157.241 301.994 152.808 303.603 154.652C304.297 155.446 309.714 174.106 309.714 175.701C309.714 176.359 309.411 177.086 309.041 177.314C308.671 177.543 306.999 172.852 305.326 166.89V166.89ZM360.088 166.512C353.241 142.913 353.19 142.701 353.892 140.957C354.265 140.032 354.591 139.446 354.618 139.655C354.644 139.865 356.895 147.751 359.618 157.179C362.341 166.607 364.569 175.093 364.57 176.036C364.571 180.073 363.139 177.028 360.088 166.512ZM309.476 166.975C305.452 153.518 305.075 151.832 305.801 150.534C306.355 149.544 306.86 150.436 308.077 154.554C311.939 167.629 312.887 171.835 312.14 172.582C311.635 173.087 310.742 171.209 309.476 166.975ZM383.474 154.384C380.518 144.025 378.702 136.326 378.937 135.146C379.254 133.553 379.668 134.265 381.114 138.894C384.607 150.077 389.713 168.619 389.713 170.125C389.713 174.493 387.927 169.985 383.474 154.384ZM363.6 164.036C365.673 170.186 356.953 143.294 355.428 134.49C355.428 133.979 355.75 133.56 356.144 133.56C357.506 133.56 366.3 164.51 365.932 168.015C364.914 169.385 364.087 165.556 363.6 164.036L363.6 164.036ZM314.094 168.117C312.903 166.084 308.172 146.911 308.602 145.861C308.985 144.928 309.395 145.385 310.209 147.655C312.554 154.193 315.617 166.924 315.061 167.823C314.739 168.344 314.304 168.477 314.094 168.117ZM316.726 162.486C316.344 161.453 314.889 156.403 313.492 151.264C311.707 144.694 311.193 141.682 311.76 141.115C312.326 140.548 313.052 142.077 314.205 146.268C315.107 149.545 316.487 154.492 317.273 157.261C318.118 160.241 318.439 162.717 318.06 163.33C317.576 164.114 317.252 163.91 316.726 162.486ZM389.574 160.608C386.91 152.687 381.984 134.178 382.423 133.739C382.675 133.487 383.196 133.601 383.58 133.992C384.914 135.349 391.312 158.995 391.082 161.72L390.856 164.417L389.574 160.608ZM363.428 148.209C361.432 141.2 359.635 135.036 359.436 134.513C359.237 133.989 359.602 133.56 360.247 133.56C360.892 133.56 361.602 134.16 361.823 134.894C365.045 145.557 368.38 157.702 368.38 158.773C368.38 159.523 368.083 160.32 367.719 160.545C367.356 160.77 365.425 155.218 363.429 148.209H363.428ZM317.087 149.214C314.192 138.699 313.834 136.608 314.925 136.608C315.593 136.608 320.147 151.341 320.885 155.888C321.119 157.33 320.99 158.707 320.599 158.949C320.207 159.191 318.627 154.81 317.087 149.214ZM414.949 146.096C413.115 139.587 411.848 134.028 412.133 133.743C412.989 132.887 413.827 134.885 416.672 144.561C419.72 154.928 420.144 157.273 419.046 157.661C418.627 157.809 416.783 152.605 414.949 146.096H414.949ZM389.367 145.665C387.772 140.055 386.303 135.037 386.103 134.513C385.904 133.989 386.268 133.561 386.913 133.561C387.558 133.561 388.261 134.161 388.475 134.894C392.83 149.838 393.469 152.621 392.897 154.165C392.398 155.515 391.673 153.767 389.367 145.664V145.665ZM416.708 135.264C417.598 134.373 418.513 136.301 420.417 143.084C423.185 152.942 423.357 153.967 422.348 154.591C420.787 151.912 416.005 137.164 416.708 135.264ZM369.038 152.227C368.074 150.711 363.695 134.182 364.14 133.737C365.05 132.828 366.017 134.837 367.993 141.741C369.759 147.912 370.403 154.373 369.038 152.227H369.038ZM403.048 148.04C402.544 147.225 398.898 135.083 398.871 134.132C398.863 133.818 399.306 133.561 399.856 133.561C400.666 133.561 404.951 145.929 404.951 148.266C404.951 149.068 403.583 148.905 403.048 148.04ZM424.12 148.796C422.009 142.16 421.168 138.126 422.047 138.855C423.721 140.244 424.892 143.866 424.556 146.613C424.383 148.025 424.187 149.007 424.12 148.796ZM392.884 143.275C390.516 135.558 390.154 133.327 391.334 133.72C392.704 136.169 395.719 144.756 395.808 146.513C395.808 149.576 394.308 147.915 392.884 143.275ZM398.601 147.465C397.945 146.376 395.046 136.057 395.046 134.812C395.046 134.124 395.378 133.561 395.783 133.561C396.47 133.561 400.379 145.097 400.379 147.124C400.379 148.131 399.145 148.368 398.601 147.465ZM369.596 140.458C368.837 137.756 368.045 135.099 367.836 134.553C367.62 133.992 367.986 133.561 368.68 133.561C369.353 133.561 369.907 133.818 369.912 134.132C369.918 134.446 370.374 136.246 370.929 138.132C371.484 140.018 371.722 142.418 371.457 143.465C371.054 145.061 370.752 144.574 369.596 140.458ZM372.189 134.748C372.189 134.095 372.532 133.561 372.951 133.561C373.37 133.561 373.713 133.883 373.713 134.278C373.713 134.672 373.37 135.206 372.951 135.466C372.532 135.724 372.189 135.402 372.189 134.748Z" fill="#4A1C2F" fill-opacity="0.9412"/>
</svg>
