<svg width="480" height="320" viewBox="0 0 480 320" fill="none" xmlns="http://www.w3.org/2000/svg">
<path d="M208.219 130.625L198.426 165.783H187.52L178.308 130.331L178.198 130.448V165.783H167.617V122.875H186.461L193.294 153.278H193.408L200.418 122.875H219.018V165.783H208.338V130.737L208.219 130.625ZM237.46 160.269C242.185 160.269 242.593 155.803 242.593 151.913C240.284 151.913 238.096 151.796 236.595 152.553C234.981 153.362 233.714 154.405 233.714 156.439C233.714 158.532 235.384 160.269 237.46 160.269ZM252.852 165.783H242.767V161.837H242.649C241.322 163.926 238.845 166.65 233.423 166.65C226.562 166.65 222.992 162.937 223.106 156.963C223.22 149.885 229.676 146.983 239.132 146.983H242.593C242.593 144.43 243.169 140.719 238.785 140.89C236.137 141.009 235.27 143.619 235.328 145.358H225.007C224.946 141.237 227.082 138.862 230.021 137.526C233.02 136.133 236.767 135.787 239.995 135.787C245.874 135.787 252.968 138.281 252.849 144.836V165.783H252.852ZM368.028 160.269C372.757 160.269 373.16 155.803 373.16 151.913C370.852 151.913 368.666 151.796 367.167 152.553C365.551 153.362 364.28 154.405 364.28 156.439C364.28 158.532 365.952 160.269 368.028 160.269ZM383.424 165.783H373.333V161.837H373.214C371.89 163.926 369.411 166.65 363.995 166.65C357.132 166.65 353.559 162.937 353.674 156.963C353.788 149.885 360.248 146.983 369.702 146.983H373.163C373.163 144.43 373.739 140.719 369.355 140.89C366.703 141.009 365.842 143.619 365.896 145.358H355.577C355.518 141.237 357.652 138.862 360.591 137.526C363.59 136.133 367.337 135.787 370.569 135.787C376.448 135.787 383.542 138.281 383.424 144.836V165.783ZM257.794 136.657H268.541V142.519L268.66 142.719C269.926 137.904 273.501 136.074 278.345 136.193V145.533C277.536 145.479 276.787 145.479 276.036 145.479C270.327 145.533 268.37 148.959 268.539 154.527V165.785H257.792V136.657M404.118 136.657H414.869V142.519L414.984 142.719C416.252 137.904 419.829 136.074 424.615 136.193V145.533C423.862 145.479 423.113 145.479 422.362 145.479C416.656 145.533 414.692 148.959 414.869 154.527V165.785H404.118V136.657Z" fill="#16375F"/>
<path d="M257.795 136.657H268.541V142.519L268.66 142.719C269.927 137.904 273.502 136.074 278.291 136.193V145.533C277.536 145.479 276.787 145.479 276.039 145.479C270.33 145.533 268.373 148.959 268.541 154.527V165.785H257.795V136.657ZM281.696 130.566L292.246 126.424V136.655H298.589V143.621H292.246V155.166C292.246 155.923 291.784 159.693 294.321 159.693C295.765 159.693 297.26 159.693 298.531 159.52V166.077C296.054 166.543 294.667 166.655 293.053 166.655C285.612 166.655 281.118 165.615 281.694 156.676V130.566M303.43 122.875H314.503V130.65H303.43V122.875ZM303.491 136.657H314.449V165.783H303.491V136.657ZM319.454 136.657H330.209V139.846C332.686 136.946 335.566 135.787 339.258 135.787C345.484 135.787 350.095 139.846 350.095 146.288V165.783H339.139V148.668C339.025 145.822 338.335 142.748 334.93 142.748C329.517 142.748 330.209 148.724 330.209 149.073V165.783H319.454V136.657ZM388.345 122.875H399.413V130.65H388.345V122.875ZM388.406 136.657H399.353V165.783H388.406V136.657Z" fill="#16375F"/>
<path d="M55.3848 165.765L81.0396 197.124H99.8854L74.2198 165.782L109.344 122.887L96.6427 122.889C92.6448 122.889 89.0159 124.718 86.6642 127.586L55.3848 165.765Z" fill="#E31E29"/>
<path d="M99.919 165.782L135.043 122.887L122.342 122.889C118.344 122.889 114.715 124.718 112.363 127.584L81.084 165.765L99.919 165.782ZM125.619 165.782L160.748 122.887L148.044 122.889C144.051 122.889 140.417 124.718 138.061 127.584L106.782 165.765L125.619 165.782Z" fill="#E31E29"/>
</svg>
