<svg width="480" height="320" viewBox="0 0 480 320" fill="none" xmlns="http://www.w3.org/2000/svg">
<path d="M386.841 119.904C388.767 118.403 390.636 116.824 392.55 115.297C391.648 117.514 390.179 119.402 388.767 121.303C388.123 120.832 387.479 120.368 386.841 119.904ZM371.014 136.098C375.847 130.627 380.893 125.311 386.37 120.478C386.976 121.071 387.588 121.664 388.2 122.256C383.445 127.695 378.876 133.34 373.579 138.283C372.735 137.542 371.877 136.814 371.014 136.098ZM324.701 158.794C325.854 159.116 327.021 159.497 327.987 160.231C331.589 162.764 335.404 164.98 339.374 166.881C340.25 167.397 341.268 167.391 342.254 167.3C342.267 167.494 342.306 167.867 342.319 168.054C350.78 172.436 360.394 173.764 369.706 175.162C386.396 177.05 403.228 176.876 419.944 178.436C421.561 178.635 423.282 178.803 424.616 179.84C415.104 180.021 405.586 179.918 396.075 180.195C380.364 180.859 364.609 180.768 348.937 182.231C346.288 182.45 343.64 182.663 340.991 182.792C344.935 180.71 349.394 179.731 353.196 177.379C348.357 177.192 343.459 177.127 338.678 177.991C337.743 176.689 336.815 175.388 335.862 174.099C335.604 173.757 335.353 173.416 335.101 173.074C331.628 168.312 328.026 163.653 324.701 158.794ZM55.3848 175.465C57.2986 170.393 58.7357 165.148 60.8622 160.147C64.4 160.27 67.9442 160.251 71.482 160.276C71.9137 162.963 72.571 165.612 73.2025 168.26C75.3871 165.702 77.6683 163.221 79.8464 160.656C83.3777 160.573 86.9219 160.566 90.4532 160.676C88.7327 165.625 86.9477 170.561 85.4784 175.594C82.7526 175.658 80.0268 175.632 77.3074 175.594C78.6091 172.236 79.9108 168.873 80.9934 165.438C77.8745 168.654 74.9747 172.082 72.1264 175.542C70.2576 175.529 68.3888 175.529 66.5201 175.542C65.6566 171.992 64.8575 168.422 64.2131 164.826C62.5828 168.215 61.5453 171.843 60.5142 175.452C58.8001 175.426 57.0924 175.446 55.3848 175.465V175.465ZM91.7163 166.604C94.1908 162.931 98.6952 161.275 102.929 160.798C106.679 160.592 110.804 160.579 114.077 162.673C115.611 163.582 116.152 165.335 116.61 166.946C114.142 166.972 111.68 166.965 109.212 166.952C108.754 165.483 107.91 163.853 106.144 163.827C101.969 163.273 99.0045 168.067 99.9969 171.811C101.479 173.603 104.417 173.435 106.074 171.959C108.561 169.536 112.299 170.961 115.372 170.986C110.9 176.322 103.187 177.211 96.762 175.703C94.5065 175.201 92.5991 173.822 90.9172 172.294C90.9237 170.393 90.4597 168.228 91.7163 166.604ZM121.591 161.236C126.308 161.34 131.025 161.391 135.736 161.481C138.223 161.546 140.981 161.849 142.856 163.653C145.054 166.044 144.512 169.936 142.347 172.159C139.815 174.801 136.212 176.451 132.533 176.425C127.229 176.477 121.932 176.27 116.629 176.219C118.395 171.263 120.109 166.282 121.591 161.236ZM128.686 165.071C127.964 167.732 127.01 170.316 126.205 172.952C128.789 172.881 131.94 173.622 133.912 171.476C135.452 169.955 136.515 166.972 134.634 165.303C132.7 164.761 130.664 165.051 128.686 165.071ZM157.955 161.546C161.608 161.172 165.436 161.288 168.877 162.706C171.049 163.627 173.079 165.631 173.047 168.138C173.117 170.967 171.01 173.338 168.684 174.679C164.044 177.366 158.373 177.765 153.186 176.767C150.486 176.245 147.593 175.007 146.31 172.41C145.234 170.252 146.355 167.745 147.837 166.082C150.434 163.279 154.275 162.061 157.955 161.546ZM155.519 173.48C157.549 173.951 160.049 174.531 161.705 172.862C163.426 171.051 164.644 168.306 163.722 165.825C162.839 164.89 161.447 164.652 160.223 164.813C156.215 165.026 153.901 170.045 155.519 173.48ZM178.737 162.074C181.752 162.132 184.768 162.171 187.791 162.19C189.595 164.987 191.425 167.79 193.59 170.329C194.499 167.648 195.356 164.942 196.219 162.242C197.921 162.274 199.622 162.287 201.323 162.3C199.654 167.339 198.069 172.398 196.432 177.437C193.609 177.385 190.787 177.366 187.965 177.327C185.89 174.292 183.789 171.283 181.656 168.293C180.67 171.212 179.645 174.131 178.769 177.089C177.106 177.134 175.444 177.134 173.788 177.102C175.463 172.101 177.119 167.094 178.737 162.074ZM206.594 162.461C209.475 162.448 212.362 162.461 215.242 162.57C217.175 165.548 219.263 168.415 221.293 171.328C222.35 168.486 223.233 165.593 224.135 162.706C225.72 162.693 227.299 162.693 228.891 162.706C227.344 167.713 225.624 172.675 224.186 177.72C221.396 177.675 218.58 177.894 215.803 177.566C213.406 174.808 211.621 171.573 209.372 168.699C208.405 171.611 207.432 174.531 206.562 177.482C204.957 177.482 203.353 177.482 201.748 177.475C203.424 172.494 205.009 167.474 206.594 162.461ZM234.291 162.867C241.212 162.86 248.133 163.144 255.053 163.105C254.821 164.233 254.577 165.361 254.345 166.495C250.079 166.559 245.806 166.134 241.547 166.45C241.192 167.184 240.935 167.951 240.657 168.712C244.118 168.918 247.591 168.808 251.065 168.931C250.762 169.949 250.465 170.961 250.175 171.985C246.734 171.946 243.299 171.934 239.865 171.85C239.523 172.733 239.195 173.615 238.872 174.498C243.164 174.576 247.462 174.653 251.761 174.685C251.406 175.832 251.058 176.979 250.71 178.12C243.673 177.972 236.63 177.907 229.587 177.894C231.114 172.874 232.763 167.887 234.291 162.867ZM259.957 163.202C262.696 163.221 265.435 163.253 268.18 163.279C267.02 167.126 265.725 170.941 264.752 174.84C268.799 174.924 272.852 174.969 276.905 174.975C276.577 176.116 276.254 177.25 275.939 178.39C269.114 178.397 262.297 178.249 255.472 178.204C256.729 173.139 258.527 168.222 259.957 163.202ZM278.548 178.416C280.159 173.441 281.474 168.376 283.04 163.389C285.869 163.466 288.698 163.524 291.527 163.537C290.393 167.378 289.181 171.193 288.105 175.052C292.229 175.226 296.36 175.259 300.49 175.278C300.181 176.432 299.872 177.585 299.575 178.745C292.564 178.635 285.56 178.429 278.548 178.416ZM68.7884 200.68C70.219 195.499 72.1135 190.46 73.7116 185.324C79.3308 185.975 85.008 185.627 90.6401 186.104C94.3003 186.523 97.2324 190.293 95.9822 193.953C93.9137 199.295 87.6243 201.486 82.2886 201.164C77.8036 200.732 73.2928 200.7 68.7884 200.68ZM80.8065 189.558C80.0332 192.161 79.0537 194.694 78.3449 197.31C80.523 197.297 82.8235 197.478 84.8534 196.524C86.7801 195.512 87.7725 193.366 87.8821 191.259C87.4052 190.757 86.9284 190.248 86.4515 189.738C84.5698 189.597 82.6882 189.552 80.8065 189.558ZM103.722 187.728C109.147 185.621 115.456 185.292 120.914 187.464C123.176 188.276 124.4 190.422 125.084 192.593C124.626 195.764 122.648 198.547 119.703 199.849C114.496 202.33 108.155 202.704 102.736 200.668C100.416 199.791 97.7286 198.051 97.8768 195.229C97.5932 191.685 100.693 188.939 103.722 187.728ZM107.201 198.045C108.825 198.348 110.623 199.005 112.17 198.064C114.825 196.414 116.642 192.896 115.379 189.842C114.225 189.597 113.085 189.062 111.886 189.21C108.091 189.842 105.539 194.546 107.201 198.045ZM127.062 199.121C127.184 194.758 129.44 190.873 130.522 186.71C133.345 186.748 136.167 186.864 138.99 187C137.888 190.641 136.096 194.146 135.877 197.993C138.378 199.031 141.116 199.018 143.597 197.916C145.099 194.397 146.162 190.705 147.367 187.077C149.326 187.103 151.279 187.122 153.231 187.148C152.153 190.655 151.017 194.144 149.822 197.613C149.3 199.366 147.902 200.738 146.181 201.318C141.832 202.917 137.037 202.672 132.552 201.86C130.464 201.563 128.712 200.352 127.062 199.121ZM156.653 190.995C161.183 187.154 167.563 186.613 173.227 187.406C176.211 187.889 179.735 188.978 180.863 192.116C178.15 192.136 175.437 192.136 172.731 191.987C171.706 191.233 170.675 190.164 169.29 190.28C165.088 190.364 162.092 195.519 163.896 199.25C165.056 199.482 166.203 199.843 167.395 199.836C169.148 199.688 170.501 198.464 171.809 197.426C170.308 197.246 168.806 197.11 167.298 196.975C167.608 196.015 167.917 195.061 168.226 194.101C172.26 194.191 176.294 194.301 180.328 194.288C179.652 197.149 178.653 199.92 177.802 202.73C176.114 202.884 174.503 202.614 173.143 201.557C170.121 202.014 167.266 203.496 164.134 203.297C160.59 203.174 156.511 202.13 154.507 198.934C153.051 196.228 154.423 192.832 156.653 190.995ZM187.146 187.676C190.02 187.696 192.888 187.747 195.755 187.792C194.57 191.665 193.287 195.506 192.011 199.353C195.942 199.411 199.88 199.475 203.81 199.508C203.127 200.642 203.359 203.161 201.536 203.039C195.085 203.039 188.641 202.794 182.191 202.775C183.84 197.742 185.587 192.741 187.146 187.676ZM203.617 203.097C208.424 198.071 213.27 193.083 218 187.979C221.138 188.089 224.277 188.024 227.408 188.263C228.736 193.302 230.102 198.335 231.623 203.322C228.588 203.258 225.553 203.264 222.524 203.245C222.376 202.362 222.227 201.473 222.086 200.584C218.864 200.571 215.635 200.294 212.42 200.519C211.414 201.241 210.648 202.227 209.81 203.123C207.748 203.136 205.679 203.103 203.617 203.097ZM214.881 197.394L221.28 197.471C220.861 195.57 220.449 193.676 220.004 191.781C218.232 193.592 216.595 195.525 214.881 197.394ZM240.406 188.527C245.181 187.651 250.278 187.477 254.931 189.036C256.445 189.481 257.393 190.795 258.166 192.084C255.575 192.11 252.991 192.116 250.407 192.013C248.532 190.183 245.884 190.757 243.609 191.311C244.086 191.949 244.311 193.031 245.304 193.025C248.854 193.85 253.152 192.851 256.11 195.422C258.076 197.22 256.6 200.152 254.686 201.325C250.523 203.877 245.4 204.134 240.657 203.774C237.506 203.387 233.621 202.762 232.216 199.482C234.896 199.443 237.577 199.482 240.258 199.598C242.307 201.028 245.007 201.331 247.346 200.513C247.578 200.146 248.036 199.417 248.261 199.05C245.065 198.013 241.656 198.225 238.415 197.452C236.501 196.962 234.207 195.577 234.439 193.296C234.568 190.26 237.938 189.146 240.406 188.527Z" fill="#050806"/>
<path d="M299.601 136.745C310.259 130.017 324.282 129.167 335.771 134.277C344.265 137.911 351.972 144.529 355.445 153.241C355.606 153.602 355.922 154.324 356.076 154.685C358.622 159.95 359.176 166.065 358.396 171.807C357.101 171.491 355.812 171.169 354.517 170.853C354.904 166.4 354.652 161.883 353.325 157.598C349.439 160.852 346.133 164.718 342.318 168.056C342.306 167.869 342.267 167.496 342.254 167.302C342.106 166.555 342.976 166.175 343.356 165.659C346.668 162.618 349.98 159.55 352.842 156.077C350.064 149.485 345.263 143.782 339.122 140.089C330.397 134.522 319.178 133.226 309.331 136.287C298.866 139.522 290.186 148.57 288.388 159.518C287.003 159.479 285.617 159.434 284.238 159.383C285.914 150.103 291.61 141.732 299.601 136.745ZM288.82 181.789C290.341 181.789 291.868 181.808 293.402 181.84C296.869 187.021 301.946 190.746 307.359 193.678C308.036 193.961 308.732 194.206 309.434 194.425C313.533 195.514 317.651 196.797 321.936 196.771C331.898 197.009 342.067 192.776 348.305 184.882C349.652 182.742 352.448 183.445 354.575 183.11C351.037 188.555 346.314 193.304 340.482 196.255C329.997 201.707 316.922 201.939 306.29 196.784C305.697 196.5 305.098 196.236 304.505 195.972C297.855 193.233 292.545 187.84 288.82 181.789Z" fill="#122E6D"/>
<path d="M364.988 142.228C366.503 140.095 368.513 137.955 371.329 137.91C371.31 138.851 371.291 139.785 371.278 140.726C368.616 143.491 365.24 145.411 362.572 148.163C360.42 150.347 358.229 152.499 356.076 154.684C355.922 154.323 355.606 153.601 355.445 153.241C358.989 149.909 362.211 146.223 364.988 142.228ZM309.357 193.052C318.604 187.317 327.033 180.357 335.101 173.075C335.352 173.417 335.604 173.758 335.861 174.1C327.355 181.253 318.849 188.477 309.434 194.424C308.732 194.205 308.036 193.96 307.359 193.677C308.049 193.542 308.713 193.329 309.357 193.052ZM271.685 193.264C272.51 189.359 273.921 185.499 276.241 182.232C274.714 186.634 272.11 190.932 272.594 195.765C272.89 199.928 276.699 203.175 280.771 203.395C289.277 204.11 297.423 200.308 304.505 195.971C305.098 196.235 305.697 196.499 306.29 196.783C300.509 199.315 295.038 202.711 288.768 203.962C284.457 204.851 279.502 205.379 275.622 202.885C272.536 200.83 270.873 196.899 271.685 193.264Z" fill="#60141F"/>
</svg>
