<svg width="480" height="320" viewBox="0 0 480 320" fill="none" xmlns="http://www.w3.org/2000/svg">
<path d="M163.515 184.171H136.631V163.582H157.73C157.73 163.582 157.219 161.2 157.219 159.498C157.219 157.967 157.73 155.415 157.73 155.415H136.631V134.826H163.515L170.151 126.488H127.953V193.529H170.151L164.366 184.171L163.515 184.171ZM300.658 193.529V155.585L310.697 145.205V193.529H300.658Z" fill="#333F48"/>
<path d="M300.658 155.585V193.53H310.697V145.206L300.658 155.585ZM300.828 126.488H319.035L300.828 144.695V126.488Z" fill="#333F48"/>
<path d="M300.828 126.487V144.693L319.034 126.487H300.828ZM199.927 163.58H216.262V182.127C203.16 187.572 189.548 184.85 182.232 174.47C174.064 162.729 177.127 142.311 192.271 136.866C199.757 134.143 209.286 134.654 217.113 134.824L225.791 126.486C212.349 126.486 198.226 124.955 188.357 128.528C159.261 139.418 161.473 183.488 192.951 192.847C194.483 193.357 198.226 193.868 201.799 193.868C211.328 194.209 218.814 191.146 225.791 188.423V155.413H199.927" fill="#333F48"/>
<path d="M264.246 163.581H280.58V182.128C267.479 187.403 253.866 184.68 246.55 174.301C238.382 162.73 241.445 142.142 256.589 136.697C264.075 133.974 273.604 134.655 281.601 134.655L290.279 126.487C276.667 126.487 262.714 124.786 252.845 128.529C223.579 139.249 225.961 183.489 257.269 192.678C258.971 193.188 262.714 193.699 266.117 193.869C275.816 194.038 283.133 191.146 290.279 188.254V155.244L264.246 155.413M106.004 126.487L84.905 153.372L63.8061 126.487H55.4688V193.528H64.8272V140.95L84.9051 168.005L105.153 140.95V193.528H114.341V126.487H106.004Z" fill="#333F48"/>
<path d="M106.004 126.489L84.905 153.373L63.8061 126.489H55.4688V193.529H64.8272V140.952L84.9051 168.006L105.153 140.952V193.529H114.341V126.489H106.004ZM328.563 126.488L319.886 134.826H343.877V193.529H353.235V134.826H390.839V193.529H401.218V134.826H424.529V126.488H328.563Z" fill="#333F48"/>
<path d="M328.562 126.488L319.885 134.826H343.876V193.529H353.235V134.826H390.838V193.529H401.218V134.826H424.529V126.488H328.562Z" fill="#333F48"/>
</svg>
