<svg width="480" height="320" viewBox="0 0 480 320" fill="none" xmlns="http://www.w3.org/2000/svg">
<path d="M239.999 264.124C297.506 264.124 344.124 217.506 344.124 159.999C344.124 102.493 297.506 55.875 239.999 55.875C182.493 55.875 135.875 102.493 135.875 159.999C135.875 217.506 182.493 264.124 239.999 264.124Z" stroke="black" stroke-width="12.7111"/>
<path d="M178.916 83.1992L233.227 130.666L192.712 243.555L291.36 114.417H300.783C302.685 122.026 320.978 99.6792 314.276 99.6792H302.614L306.205 94.9681H278.543C275.858 94.9681 272.747 97.297 271.378 99.7681L267.752 106.275C267.414 106.861 267.36 106.755 266.507 106.524L178.916 83.1992ZM289.316 99.6792H295.36L292.392 103.573H286.347L289.316 99.6792ZM299.645 103.573H309.529C312.8 103.573 309.956 106.31 308.747 107.395C309.245 107.768 309.867 107.626 310.4 107.377C308.943 109.048 305.387 110.524 301.76 110.524H294.329L299.627 103.573H299.645Z" fill="black"/>
</svg>
