<svg width="480" height="320" viewBox="0 0 480 320" fill="none" xmlns="http://www.w3.org/2000/svg">
<path d="M232.945 189.848H250.412V191.229H201.007V189.848H214.939V156.661H214.515L186.375 191.229H181.59L153.59 156.661H153.31V189.849H166.958V191.229H134.877V189.848H148.806V155.722H134.877V154.344H171.18L190.876 179.578L211.278 154.344H250.301V155.722H232.946L232.945 189.848Z" fill="#CF0F3D"/>
<path d="M333.096 191.225V189.876H344.278L377.268 154.34H381.962L413.571 189.875H424.616V191.224H380.856V189.875H395.214L386.794 180.315H356.976L348.422 189.875H362.499V191.224L333.096 191.225ZM358.494 178.966H385.414L372.438 163.9L358.494 178.966Z" fill="#1378C7"/>
<path d="M286.54 155.723V171.572C300.515 171.572 306.276 170.745 307.006 164.835H311.083V180.242H307.006C305.697 174.113 302.264 172.785 286.54 172.95V189.85H304.164C323.091 189.85 327.163 185.597 330.224 179.356H334.443L333.132 191.228H250.42V189.849H264.865V155.724H250.301V154.343H330.805L331.678 164.284H327.604C324.545 158.982 319.014 156.939 311.59 156.164C307.955 155.778 303.731 155.723 298.927 155.723H283.496H286.54ZM110.246 189.842C107.672 189.745 105.541 189.385 104.874 189.189C103.364 188.736 101.884 188.462 100.532 187.504C100.28 187.366 100.196 187.315 99.9503 187.18C99.8315 187.18 99.6691 186.956 99.5503 186.956C98.6869 186.274 97.9454 185.587 97.8242 184.49C97.6408 183.146 98.0937 181.878 98.9085 180.862H98.9158C99.1719 180.536 99.4656 180.242 99.7909 179.985C100.168 179.706 100.656 179.842 101.024 179.706C101.264 179.706 101.393 178.883 101.884 179.017C102.377 179.294 102.015 179.841 101.636 180.118V180.528C101.86 180.609 102.122 180.543 102.377 180.564C102.139 180.964 101.908 180.972 101.762 181.212C101.762 181.346 102.256 181.346 102.256 181.479C101.884 181.894 101.152 181.623 100.656 181.894V182.171C101.884 182.035 103.238 181.076 104.47 181.759C104.47 181.759 104.101 181.894 103.851 182.035C104.47 182.44 105.086 182.035 105.696 182.17C106.435 182.44 107.172 182.17 107.915 182.304C107.794 182.035 107.419 182.171 107.294 181.894C108.283 181.623 109.267 182.171 110.249 182.44C109.88 182.035 109.388 181.758 108.776 181.758C108.404 181.758 108.035 181.346 107.794 180.934V180.852C107.794 180.745 107.811 180.664 107.915 180.664C108.223 180.588 108.566 180.731 108.895 180.852C109.212 180.972 109.518 181.07 109.758 180.934C110.218 180.683 110.576 181.15 111.017 180.862H111.031C111.057 180.836 111.084 180.822 111.112 180.8C110.621 180.252 109.758 180.8 109.267 180.118C109.758 179.841 110.249 180.118 110.743 179.706C110.991 179.429 111.606 179.429 112.092 179.429C112.71 179.294 113.329 179.57 113.94 179.57C114.061 179.57 114.314 179.841 114.433 179.841C114.924 179.841 115.416 180.385 115.907 180.118C115.907 179.985 115.665 179.841 115.542 179.706C115.165 179.706 114.681 179.706 114.433 179.294C114.433 179.158 114.433 179.017 114.555 179.017C115.165 179.017 115.665 179.706 116.278 179.429C115.296 178.748 114.192 179.158 113.201 178.612C112.588 178.199 111.728 178.066 111.232 177.377C111.112 177.654 110.864 177.519 110.743 177.519C110.621 177.519 110.621 177.243 110.5 177.243C109.88 177.243 109.143 177.377 109.143 176.831C109.143 176.282 109.88 176.425 110.249 176.425C111.606 176.149 112.71 176.974 114.061 177.107C114.192 177.107 114.192 177.377 114.192 177.519C114.192 177.789 113.94 177.653 113.818 177.653C114.433 177.789 115.165 177.789 115.785 177.789C116.648 177.789 117.63 177.925 118.492 178.199C118.989 178.335 119.475 178.612 119.971 178.335C119.597 178.066 118.865 178.476 118.989 177.789C118.989 177.519 119.475 177.789 119.721 177.654L119.597 177.519C119.721 177.243 119.971 177.377 120.217 177.377C119.356 176.974 118.493 176.559 117.63 176.149C118.123 175.324 118.989 175.879 119.721 175.879C119.721 175.879 119.721 175.602 119.597 175.602C119.849 175.19 120.217 175.737 120.582 175.602C120.46 175.324 120.217 175.324 119.971 175.19C119.108 175.055 118.248 174.778 117.387 174.645C117.511 174.373 118.123 174.778 118.002 174.233C117.752 173.55 116.888 173.684 116.4 173.414C116.889 173.138 117.511 173.004 118.002 173.138C118.614 173.279 119.356 173.004 119.971 173.138C118.989 172.18 117.63 173.279 116.524 172.32C116.769 172.046 117.141 171.91 117.262 171.498C118.002 171.767 118.865 171.362 119.597 171.498C118.667 171.116 117.747 170.726 116.822 170.458C116.764 170.439 116.707 170.418 116.648 170.401C116.264 170.232 115.88 170.33 115.499 170.458C115.27 170.532 115.031 170.63 114.803 170.675C113.94 170.952 113.076 170.952 112.216 170.54C112.268 170.509 112.333 170.48 112.385 170.458C112.834 170.248 113.322 170.136 113.818 170.129H114.555C114.803 170.129 114.555 169.722 114.803 169.722C115.296 169.722 115.907 169.581 116.4 169.722C117.091 170.103 117.847 170.284 118.574 170.458C118.879 170.522 119.18 170.599 119.475 170.675C119.597 170.818 119.721 170.952 119.849 171.086C120.582 171.228 121.323 171.228 121.814 171.767C121.936 171.91 122.057 171.767 122.057 171.634C121.94 170.997 121.828 170.711 122.317 170.458L122.427 170.401C122.307 169.991 122.057 169.858 121.685 169.722C122.548 169.445 123.54 169.312 124.15 170.27H124.522C124.522 169.991 124.77 169.857 124.891 169.722C125.507 169.581 125.876 170.27 126.491 170.27C127.719 169.991 128.825 170.129 129.926 169.991C129.078 169.722 128.334 169.581 127.473 169.312C127.221 169.312 126.856 169.312 126.611 169.033C126.98 168.63 127.719 168.764 128.084 168.899C128.334 169.033 128.334 168.353 128.456 168.487C129.078 168.63 129.688 168.764 130.179 169.033C130.551 169.176 131.288 169.445 131.776 169.722C131.288 168.63 129.688 168.764 129.688 167.805C129.564 167.271 130.51 168.179 130.889 167.705C128.563 167.152 126.236 167.371 123.905 166.983C123.78 166.847 123.659 166.713 123.54 166.577C124.269 166.165 125.013 165.888 125.755 166.03C125.876 166.165 125.99 166.165 126.117 166.3C126.611 166.3 126.856 166.3 127.354 166.434V166.165C126.491 165.888 125.628 166.03 124.77 165.888C124.15 165.619 123.409 166.03 122.798 166.165C120.703 166.3 118.614 165.888 116.524 166.03C115.542 166.03 114.555 165.888 113.451 166.03C112.588 166.3 111.606 166.03 110.743 166.03C110.001 165.888 109.143 166.03 108.404 166.165C107.794 166.165 107.172 166.165 106.685 165.888C106.559 165.755 106.685 165.619 106.802 165.619C108.404 165.342 109.88 165.754 111.353 165.619C110.743 165.071 109.88 165.342 109.144 165.207C109.019 165.207 108.895 164.93 108.776 164.796C109.267 164.518 109.88 164.658 110.369 164.658C110.5 164.658 110.5 164.796 110.5 164.93H112.833L112.71 164.796C114.314 164.389 115.907 164.658 117.511 164.389C116.4 163.979 115.043 164.518 113.94 164.112C114.314 163.836 114.681 163.836 115.043 163.979C114.924 163.702 114.433 163.836 114.314 163.567C115.416 163.154 116.524 163.433 117.63 163.29C117.63 163.02 117.387 162.742 117.63 162.472C117.752 162.742 118.002 162.878 118.123 162.878C118.865 162.742 119.475 162.608 119.971 163.29C119.597 163.567 119.23 163.567 118.865 163.567C119.23 164.112 119.849 163.567 120.338 163.702C120.46 163.702 120.46 163.836 120.46 163.979C121.196 163.979 122.057 164.112 122.798 163.702C122.92 163.702 123.168 164.248 123.409 163.836C122.676 163.433 121.814 163.566 121.196 163.154C120.581 162.742 119.849 162.196 119.23 161.65C119.475 161.373 119.971 161.373 120.217 161.65C120.581 161.927 120.832 161.927 121.196 162.062C121.444 162.196 121.323 161.65 121.564 161.65C122.057 161.514 122.677 161.514 123.168 161.783C123.905 162.196 124.644 162.062 125.507 162.196C125.628 162.196 125.628 162.062 125.755 161.926C125.755 162.084 125.878 162.057 125.981 162.062C125.259 161.449 124.35 162.029 123.659 161.514C123.409 161.237 123.168 161.102 122.798 160.825C123.289 160.556 123.78 160.691 124.15 161.102C124.15 160.97 124.15 160.691 124.269 160.691C124.522 160.691 124.77 161.102 125.014 160.97C124.644 160.422 124.029 160.691 123.54 160.279C122.677 159.874 121.564 160.143 120.703 159.733C120.703 159.598 120.832 159.598 120.953 159.598C121.072 159.463 120.953 159.327 120.832 159.327C119.971 159.327 119.108 159.327 118.367 158.78C119.108 158.369 119.971 158.505 120.703 158.78C120.953 158.915 121.323 159.185 121.685 159.327C121.814 159.327 122.184 159.463 122.184 159.185C122.057 159.051 121.936 158.779 121.685 158.639C122.057 158.236 122.548 159.051 122.92 158.639C122.798 158.505 122.798 158.369 122.798 158.236C123.409 157.821 124.393 158.639 124.77 158.236C125.376 157.678 125.755 158.369 126.37 158.236C125.848 157.821 125.28 157.614 124.703 157.456C123.907 157.247 123.084 157.118 122.307 156.722C122.427 156.452 122.676 156.452 122.92 156.452C122.548 156.04 122.057 156.04 121.564 155.771C122.172 155.638 122.801 155.638 123.409 155.771C123.905 155.904 124.393 156.176 124.892 156.317C125.132 156.452 125.376 156.588 125.507 156.863C125.132 156.04 124.644 155.638 123.905 155.358C123.78 155.218 123.905 155.082 124.028 155.082C124.269 154.946 124.522 155.217 124.77 155.359C124.892 155.359 125.013 155.217 124.892 155.082C124.77 155.082 124.644 154.946 124.644 154.946C125.132 154.4 125.628 154.946 126.117 154.946C126.238 154.946 126.369 155.217 126.491 155.359C126.491 155.217 126.491 155.082 126.611 154.946C125.263 154.4 123.905 153.718 122.548 153.575C121.444 153.442 120.339 153.442 119.23 153.442C117.02 153.306 114.803 153.442 112.588 153.172C113.819 152.483 115.296 153.306 116.524 152.762C116.4 152.483 116.025 152.624 115.907 152.348C116.769 151.801 117.873 152.762 118.614 152.214C117.511 151.802 116.278 151.937 115.165 151.53C115.368 151.249 115.611 151.198 115.861 151.208C115.716 151.063 115.456 150.814 115.785 150.571C116.156 150.431 116.648 150.707 117.02 150.571C115.785 150.297 114.433 150.297 113.57 149.203C115.165 148.521 116.889 148.791 118.614 148.521C119.453 148.244 120.358 148.244 121.196 148.521C121.444 148.655 121.685 148.791 121.814 149.067C122.057 148.655 121.685 148.655 121.564 148.521C120.953 147.975 120.216 147.975 119.475 147.697C118.989 147.563 118.493 147.563 118.002 147.427C116.524 146.881 115.043 147.427 113.451 147.15C113.201 147.015 112.833 147.284 112.467 147.284C112.588 147.563 113.076 147.284 112.955 147.563C112.588 148.245 111.728 147.697 110.991 147.832C109.639 148.109 108.283 147.697 106.931 147.427C107.915 146.881 109.019 147.427 110.131 147.284C110.001 147.15 110.369 147.015 110.131 146.881C110.743 146.471 111.232 147.284 111.846 147.015C111.973 146.881 111.606 146.604 111.728 146.326C111.846 146.056 112.092 146.326 112.337 146.192V145.922C113.329 145.233 114.192 145.922 115.165 146.326C114.681 145.922 114.061 145.78 113.697 145.234C113.57 144.964 113.818 144.828 113.94 144.828C114.924 144.828 115.907 144.828 116.769 145.234C115.785 144.28 114.314 144.28 112.955 144.28C110.991 144.416 108.895 144.828 106.931 144.416C103.97 144.006 101.264 143.727 98.3226 143.047C98.1909 142.912 97.9454 142.769 97.9454 142.635C97.9454 142.087 98.5657 142.635 98.6869 142.223L98.5657 142.087C98.8137 141.817 99.1755 141.817 99.426 142.087C99.5503 142.223 99.426 142.364 99.2968 142.364H99.0543C98.9325 142.911 99.5503 142.635 99.6697 142.635C100.532 142.769 101.515 142.635 102.377 142.5C103.484 142.223 104.59 142.912 105.696 143.047C105.574 142.912 105.207 142.912 105.329 142.635C105.696 142.087 106.435 142.5 106.931 142.5C107.915 142.5 108.895 142.769 110.001 143.181C110.249 143.181 110.5 143.458 110.743 143.324C111.112 143.324 110.621 143.181 110.621 143.047C109.267 142.223 107.794 142.5 106.559 141.541C106.435 141.406 106.559 141.271 106.685 141.271C106.931 141.131 107.052 141.541 107.293 141.405C106.19 140.17 104.344 141.405 102.988 140.583C103.238 140.17 102.988 139.764 103.119 139.489C103.238 139.076 103.851 139.355 104.344 139.355C104.47 139.489 104.59 139.489 104.712 139.489C105.574 139.631 106.312 140.034 107.052 140.313C107.293 140.447 106.931 140.17 106.931 140.034C106.931 139.901 107.052 139.765 107.172 139.765C107.419 139.765 107.672 139.9 107.672 140.17C108.156 140.034 108.654 140.034 109.019 140.17C109.388 140.447 109.639 140.993 110.13 140.993C110.001 140.583 109.639 140.447 109.388 140.17C109.267 140.034 109.388 139.901 109.508 139.901H110.13C109.758 139.901 109.508 139.765 109.267 139.765C108.523 139.631 108.035 139.076 107.419 138.807C107.541 138.53 107.915 138.673 108.156 138.53C107.419 137.984 106.311 138.53 105.574 137.848C106.311 137.438 106.931 137.438 107.673 137.571C106.802 137.305 106.07 137.438 105.207 137.438C104.843 137.572 104.47 137.438 104.222 137.026C104.101 136.756 104.712 136.89 104.47 136.62C103.97 136.343 103.36 136.756 102.745 136.48L102.866 136.344C102.256 135.796 101.636 136.072 101.024 136.208C101.393 136.48 100.899 136.48 100.899 136.62C100.039 136.62 99.1762 136.89 98.3226 136.89C97.4525 137.025 96.4678 137.305 95.738 137.438C95.242 137.438 94.8752 136.756 94.2549 136.62C94.3792 136.343 94.7534 136.48 94.994 136.48C95.9786 136.344 97.09 136.756 98.0722 136.48C98.3226 136.48 98.9325 136.89 99.0543 136.208C98.8137 136.208 98.5657 136.343 98.4414 136.073C99.2968 135.662 100.168 136.073 101.024 135.662C100.532 135.662 100.168 135.25 99.7909 135.114C100.168 134.434 100.656 134.973 101.024 135.249C101.264 135.393 101.393 134.973 101.636 135.114C102.256 135.662 102.988 136.072 103.729 135.796C102.988 135.529 102.256 135.393 101.763 134.704C102.745 134.434 103.729 134.704 104.59 135.114C104.101 134.57 103.484 134.291 102.745 134.156C99.9171 133.879 97.2088 133.609 94.5029 133.879C94.2555 133.879 93.5183 134.434 93.3971 134.022C93.2752 133.333 94.2555 133.743 94.6223 133.333C94.1386 132.93 93.5189 133.61 93.2752 133.063C94.5029 132.516 95.8574 133.063 97.2088 133.333C97.09 132.787 96.4678 133.198 96.346 132.787C96.346 132.652 96.4678 132.515 96.5983 132.515C97.2088 132.515 97.946 132.93 98.4414 132.787C99.1755 132.515 100.039 132.93 100.776 132.93C100.28 132.375 99.6691 132.375 99.1755 132.239C98.0722 131.826 96.842 132.105 95.738 131.423L95.8574 131.281C95.738 131.281 95.6168 131.147 95.6168 131.147C96.4678 130.188 97.5811 131.281 98.4414 131.147C98.1909 131.147 98.0722 131.011 97.9454 130.878C98.3226 130.599 98.6869 130.878 99.0543 130.734C96.842 130.189 94.6217 130.189 92.2931 129.777C92.0451 129.777 92.1669 129.507 92.1669 129.372C93.0297 128.549 94.1386 129.372 95.1208 128.959C93.8931 128.823 92.5343 128.703 91.3066 128.823C90.1952 128.925 89.0845 129.028 87.9762 128.956C87.978 128.956 87.9805 128.958 87.9829 128.958C87.9829 129.094 88.474 129.238 88.1023 129.37C87.4918 129.506 86.8771 129.37 86.2666 129.64C86.7552 129.776 87.3731 129.506 87.8617 129.776C86.7552 130.465 85.2746 130.053 84.2906 130.878C84.0494 131.147 83.4272 130.878 83.0648 131.011C82.3263 131.423 81.3417 131.423 80.6026 131.972C81.5848 132.105 82.4451 131.972 83.4272 131.557C83.5583 131.557 83.6795 131.826 83.6795 131.826C84.5429 131.281 85.3965 131.557 86.3786 131.423C86.5097 131.281 86.7552 131.423 86.7552 131.146C86.8771 131.423 87.2512 131.693 86.8771 131.826C86.0137 132.105 85.2746 132.651 84.4217 132.374C84.0494 132.374 83.6802 132.374 83.3078 132.516C83.0648 132.651 82.8168 132.93 82.4451 132.93C82.5669 133.063 81.9565 133.197 82.3257 133.197C82.5669 133.197 82.698 132.93 83.0648 132.93C83.3078 132.93 83.1866 133.474 83.4278 133.333C83.5583 133.063 83.9232 132.93 84.0494 133.063C85.1509 133.197 86.3786 132.516 87.3725 133.063C87.3725 133.063 87.1226 133.609 86.8771 133.609C85.6494 133.609 84.4217 133.879 83.3078 134.022C82.3257 134.022 81.2174 134.434 80.1115 134.022C79.4937 133.879 79.0075 134.022 78.5115 134.434C79.0075 134.57 79.4937 134.291 79.8678 134.57C79.3743 135.114 78.6334 135.114 78.0229 135.529C77.7706 135.796 77.4075 135.932 77.1602 136.344C78.6334 135.662 80.2371 135.393 81.7158 134.838C81.9558 134.704 82.0802 135.393 81.7158 135.529C81.506 135.529 81.3035 135.806 81.1005 135.822C81.5485 135.886 81.9971 135.671 82.4451 135.796C82.6974 135.796 83.1866 135.796 83.3078 135.529C83.3078 135.393 82.9386 135.25 82.8168 135.114C83.5583 134.57 85.2746 134.291 85.1509 135.662C85.1509 135.932 84.786 135.796 84.6648 135.796C84.4217 135.662 84.6648 135.393 84.5429 135.25C84.2906 135.114 84.0494 135.529 83.8014 135.393C83.8014 135.796 84.5429 135.529 84.4217 136.072C84.2906 136.208 84.1712 136.48 84.0494 136.48C82.5663 136.208 81.3417 136.89 79.9897 136.756C79.4937 136.756 78.6334 136.479 78.2666 136.89C78.5115 136.89 78.8758 136.89 79.0075 137.167C79.0075 137.438 78.5115 137.438 78.3878 137.714C78.5115 137.714 78.6334 137.714 78.7546 137.848C79.0069 137.571 79.3743 137.571 79.618 137.571C81.5848 137.305 83.5583 137.026 85.5257 137.026C85.8949 137.026 86.7552 136.89 86.7552 137.305C86.6315 137.984 85.6494 137.572 84.9054 137.714C84.6648 137.848 84.4217 138.26 84.29 138.26C83.4272 138.53 82.698 137.984 81.8346 138.125C81.8346 138.26 81.8346 138.396 81.7158 138.396H79.9897L80.1115 138.53C79.9897 138.807 79.618 138.673 79.3743 138.673C78.3878 138.261 77.4075 137.849 76.2974 138.125C76.5448 138.125 76.9189 137.984 77.1602 138.125C77.4075 138.26 77.5245 138.396 77.77 138.396C78.0223 138.53 77.77 139.076 77.6512 139.076C76.6691 138.807 75.8057 138.807 74.9429 138.942C75.1952 139.354 75.6845 138.807 75.8057 139.222C75.8057 139.765 75.1952 139.222 75.0642 139.631C74.3325 139.222 73.5909 140.034 72.7355 139.901C73.4722 140.313 74.2112 139.765 75.0642 140.034C75.3146 140.034 75.5577 139.901 75.8057 139.765C76.9195 139.631 78.0229 139.631 79.1288 140.034C79.1288 140.034 79.1288 140.313 79.0075 140.313H78.0229C77.8937 140.313 77.8937 140.583 77.8937 140.583C78.6334 140.862 79.3743 140.17 80.1115 140.862C79.9897 140.993 79.8678 141.271 79.618 141.131C79.1288 140.993 78.6334 141.131 78.1448 140.993C78.1448 141.271 77.77 141.131 77.8943 141.271C78.266 141.541 78.7546 141.405 79.1288 141.405C79.1288 141.541 79.618 141.541 79.2482 141.817C79.2175 141.852 79.1747 141.873 79.1288 141.877C79.594 142.07 80.1515 141.975 80.6026 142.223C80.7312 142.364 80.6026 142.5 80.4783 142.5H79.9897C80.2377 142.912 80.8525 142.364 80.9743 142.912C80.9743 143.047 80.8525 143.181 80.7312 143.181C79.3743 143.181 78.0229 143.324 76.7878 142.499C76.6691 142.364 76.7878 142.223 76.9189 142.223C77.6512 142.087 78.1448 142.635 78.8758 142.635C78.1448 142.087 77.0309 142.364 76.2974 141.681C76.5448 141.405 76.7878 141.405 77.1602 141.405C76.4211 140.993 75.8063 141.541 75.0642 141.405C74.6998 141.271 74.4543 140.993 74.082 141.131V141.405C73.0974 141.817 72.1128 141.817 71.1306 142.223C71.9915 142.364 72.7355 141.817 73.5909 142.223C73.4722 142.5 72.9755 142.364 72.9755 142.769C73.5909 142.769 74.082 142.635 74.6998 142.912C73.2192 143.458 71.4955 143.181 70.0272 144.006C71.0118 143.727 71.8722 143.594 72.8543 143.727C73.0974 143.727 72.9762 144.139 73.0974 144.139C74.3325 143.727 75.3146 144.139 76.4205 144.416C76.5448 144.551 76.6691 144.686 76.7878 144.828C76.178 145.098 75.4365 144.686 74.8211 144.686C73.098 144.416 71.6242 145.098 70.0272 145.78C71.0118 145.51 72.1134 145.098 73.2192 145.234C73.3485 145.234 73.5909 145.644 73.7103 145.511C74.5731 145.511 75.4365 145.78 76.2968 145.644C77.4075 145.377 78.3878 145.377 79.4937 145.779C79.0075 146.056 78.3878 145.779 77.8937 145.922C77.8937 145.922 77.8937 146.192 78.0229 146.192C76.4211 147.015 74.8211 146.192 73.0974 146.471C72.3632 146.738 71.746 146.881 71.0112 146.881C72.1128 147.015 73.3478 146.326 74.3325 146.881C74.9429 147.284 75.9251 147.15 76.7878 147.15C76.9189 147.15 76.9189 147.284 76.9189 147.427C77.4075 147.427 77.4075 147.697 77.5245 148.109C76.2968 148.378 75.1952 147.697 73.9583 147.697C73.8365 147.697 73.8365 147.975 73.8365 147.975C74.3325 148.109 74.8211 147.832 75.1952 148.245C74.9429 148.521 74.8211 148.926 74.5737 149.067C73.7103 149.202 72.9762 148.79 72.1128 149.202C72.7355 149.202 73.4722 149.067 73.5909 149.613C73.7103 149.885 73.2192 149.613 73.0974 149.885C72.3632 149.479 71.6242 150.018 70.8851 150.018C71.25 150.297 71.6242 149.885 71.9915 150.018C72.1128 150.018 72.1128 150.161 72.1128 150.297C71.9915 150.431 71.9915 150.571 71.8728 150.571C71.4955 150.571 71.1306 150.707 70.7614 150.707C69.7792 150.843 68.6752 150.707 67.6906 150.707C67.6906 150.977 67.3189 150.843 67.4408 150.977C67.9337 151.12 68.5442 150.571 69.0377 150.977C68.3011 151.666 67.3189 150.977 66.5774 151.389C66.2106 151.666 65.7171 151.801 65.474 152.214C66.4562 152.078 67.3189 151.53 68.3011 151.801C68.3011 152.078 67.9337 152.078 67.9337 152.214C68.1798 152.348 68.6752 152.078 68.9158 152.348C68.3011 152.895 67.4408 152.895 66.8297 153.306C67.1971 153.441 67.6912 153.036 67.562 153.306C67.1971 153.988 66.2106 154.266 65.5928 154.812C66.0888 154.677 66.5774 154.534 67.0758 154.4C67.8143 154.266 68.6758 153.854 69.5263 153.988C69.9005 154.13 69.7786 154.534 69.5263 154.677C68.4248 154.677 67.4402 154.812 66.3343 155.082C65.8457 155.217 65.226 155.638 64.8537 156.176C65.5928 155.771 66.3343 155.082 67.1971 155.358C67.4408 155.358 67.9337 155.358 68.0531 155.638C68.0531 155.904 67.4408 156.317 67.562 156.317C68.3011 156.588 69.1638 156.04 69.9005 156.452C69.3405 156.956 68.2697 156.767 67.8026 157.456C67.7595 157.521 67.7195 157.599 67.6906 157.678C67.922 157.599 68.1485 157.516 68.3774 157.456C68.5183 157.435 68.6512 157.411 68.7971 157.411C70.5202 157.275 72.1128 156.588 73.8371 156.999C73.3593 157.196 72.8643 157.35 72.3583 157.456C70.0131 157.969 67.6168 157.597 65.29 158.124C65.7171 158.102 66.0888 158.334 66.4562 158.639C65.7171 159.051 64.8537 158.505 64.2438 158.916C63.7478 159.185 63.018 159.051 62.6438 159.733C63.3805 159.598 64.2438 158.779 64.6106 159.598C64.7325 160.012 63.6285 159.598 63.8783 160.279C63.8783 160.422 64.6106 160.012 64.8537 160.422C64.8537 160.556 64.4912 160.422 64.4912 160.691C65.474 160.825 66.4562 160.422 67.3189 160.825C66.5774 161.237 65.7171 160.97 64.9829 161.102V161.373C65.1042 161.514 65.474 161.373 65.3522 161.514C65.1042 161.926 64.3651 161.649 63.9909 162.062C64.4912 162.062 64.8537 162.062 65.3522 162.332C65.5928 162.608 66.3343 162.062 66.4562 162.472C66.5774 163.154 65.5928 163.02 65.1042 163.02C63.7478 163.02 62.3965 163.02 61.042 163.154V163.433C61.5355 163.29 62.0242 163.154 62.5177 163.433C61.4137 164.248 60.0666 163.836 58.8272 164.389C59.5688 164.389 60.3103 164.389 61.042 164.796C60.3097 165.483 59.3251 165.071 58.4623 165.342C60.1792 165.619 62.0242 165.071 63.7478 165.483C63.7478 165.755 63.5017 165.618 63.3805 165.755C62.8869 165.889 62.3958 165.619 61.9023 165.889C61.5355 166.029 61.1706 166.165 60.7989 166.165C60.6722 166.3 60.5509 166.434 60.3103 166.434C61.042 166.713 61.6592 165.889 62.3965 166.165C62.7657 166.434 63.3811 166.165 63.2592 166.577C63.2592 166.847 62.6438 166.713 62.3958 167.259C62.7651 167.259 63.2592 167.124 63.5023 167.526C62.5177 168.074 61.5355 168.074 60.5509 167.941C59.4469 167.671 58.2125 167.806 57.1085 167.941C57.4709 168.074 57.8469 167.941 58.0906 168.353C57.5995 168.764 56.9842 169.033 56.3675 169.312C56.7386 169.312 56.9842 169.176 57.2297 169.033C57.3491 169.033 57.5989 169.312 57.8475 169.176C57.8475 169.033 57.8475 168.899 57.9669 168.899C58.4623 168.899 58.9534 168.764 59.3257 169.033C59.0728 169.312 58.5842 168.899 58.4623 169.445C59.3257 169.581 60.5509 168.899 61.2925 169.581C60.5792 170.008 59.7971 170.249 59.0014 170.458C57.738 170.799 56.4432 171.071 55.3848 171.911C55.7565 171.911 56.3669 171.767 56.6174 171.767C58.3435 171.498 59.9355 171.228 61.6592 171.362C62.0242 171.362 62.7657 171.228 62.6438 171.767C62.3958 172.592 61.5355 172.866 60.5509 172.866C60.5509 172.866 60.5509 173.138 60.6722 173.138C61.1706 173.004 61.6592 173.138 62.0242 172.866C62.3958 172.726 62.7657 172.592 63.138 172.32C63.5023 172.18 63.8789 172.046 64.2438 172.18C64.3651 172.32 64.3651 172.457 64.3651 172.592C63.6285 173.415 62.6438 173.415 61.6592 173.684C62.3958 173.963 63.1374 173.415 63.9909 173.415C64.7325 173.55 65.3521 173.004 66.2106 173.138C66.0888 172.866 65.5928 173.004 65.7171 172.726C65.9669 172.32 66.8303 171.228 67.1971 171.767C67.4408 172.046 66.6986 172.32 66.8303 172.32C67.6906 173.279 68.5442 171.634 69.6574 172.046V171.767C69.2857 171.634 68.9158 171.91 68.5442 171.634C69.4075 171.086 70.5208 171.086 71.3811 170.54C71.4408 170.54 71.3552 170.509 71.2475 170.458C71.1405 170.401 71.0118 170.339 71.0118 170.27C71.0118 169.722 71.4955 169.858 71.746 169.858C73.3478 169.446 74.9429 168.764 76.4211 169.446C75.5577 169.722 74.8211 169.991 73.9583 169.858C74.3325 170.401 75.1952 169.446 75.3146 170.27C75.3315 170.331 75.3357 170.395 75.3269 170.458C75.2789 170.756 74.89 170.928 74.5731 170.818C74.6998 171.498 75.4365 170.818 75.3146 171.228C75.3146 171.362 75.0641 171.767 74.9429 171.767C74.3325 172.046 73.5909 171.634 72.9762 171.767C72.1128 172.046 71.25 171.634 70.3897 172.18C70.2678 172.32 70.3897 172.457 70.5208 172.457C69.9005 172.866 69.1638 172.457 68.6752 173.138H68.3011C69.1638 173.279 69.9011 173.004 70.7614 173.138L70.6395 173.279L70.7614 173.414C70.3897 173.55 70.1485 173.963 69.7792 174.097C69.0377 174.232 68.3011 173.827 67.562 174.373C68.1792 174.508 68.7971 174.232 69.4075 174.508C69.0383 174.778 68.5442 174.645 68.1792 174.778C68.1792 174.921 68.1792 175.055 68.3011 175.055C69.1638 175.055 70.1485 174.921 71.0118 175.19C70.3897 175.602 69.658 176.013 69.0377 176.282C69.0377 176.282 68.9158 176.013 68.7971 176.013C68.3011 176.013 67.9337 175.736 67.4408 175.603C66.8303 175.47 66.21 175.737 65.5928 175.88C65.7171 175.88 65.9669 175.88 65.9669 176.013C65.8457 176.282 65.474 176.149 65.226 176.149C64.3651 175.603 63.3805 175.879 62.5177 175.47C61.6592 175.055 60.6722 174.921 59.8143 175.324C59.8143 175.324 59.1965 175.324 59.4469 175.47C60.3103 175.737 61.4137 175.191 62.1552 175.737C61.1706 176.692 59.69 176.426 58.8272 177.377C60.4315 176.831 62.0242 176.559 63.6285 176.559C64.2438 176.559 64.9823 176.282 65.5928 176.831C64.2438 177.108 63.1374 177.789 61.7811 178.199C61.6592 178.335 61.6592 178.612 61.4137 178.747C60.1792 179.158 59.0728 179.706 58.0906 180.385C58.7078 180.528 59.3257 179.985 59.9355 179.985C60.6722 179.985 61.7811 178.884 62.5177 179.57C62.1029 180.154 61.2254 180.238 60.8272 180.852C60.7583 180.957 60.7128 181.076 60.6722 181.212C60.7442 181.055 60.8512 180.948 60.9749 180.852C61.0777 180.783 61.1848 180.724 61.2925 180.664C61.9023 180.529 62.3958 180.385 62.8869 179.985C63.1374 179.842 63.5023 180.118 63.7478 179.985C64.1195 179.706 64.4912 179.57 64.8537 179.43C64.9829 179.43 64.9829 179.57 64.9829 179.706C64.8537 179.985 64.4912 179.985 64.3651 180.252C64.7325 180.529 65.1042 179.985 65.474 179.985C66.0888 179.985 66.5774 179.158 67.0758 179.017C68.1792 178.612 69.2857 178.612 70.3897 178.335C70.7614 178.335 71.1306 178.066 71.4955 177.925C72.8543 177.653 74.082 177.519 75.4365 177.243C76.0562 177.108 76.6691 176.831 77.2814 177.243C75.8057 177.925 74.2106 178.199 72.6088 178.199C72.2346 178.335 71.9915 178.883 71.4955 179.017C69.9005 179.294 68.4248 179.294 66.9515 179.985C67.6906 180.385 68.5442 179.57 69.2857 180.118C69.2857 180.252 69.2857 180.528 69.1638 180.528C68.6205 180.695 68.1269 180.762 67.6143 180.852C67.3189 180.912 67.0186 180.972 66.6992 181.076C67.3189 180.934 68.0531 180.664 68.6752 181.076C68.4248 181.212 68.3011 181.479 68.1792 181.758C68.1792 181.894 68.4254 181.894 68.5442 181.894C68.7965 181.759 68.7965 181.479 69.0377 181.346C69.5263 181.076 70.0272 181.076 70.5208 181.076C70.6395 181.076 70.7608 181.346 70.7608 181.623C71.1928 181.46 71.586 181.114 72.0008 180.852C72.3035 180.671 72.6211 180.528 72.9762 180.528C74.3325 180.385 75.5577 180.252 76.9189 180.118C76.178 179.985 75.5577 180.252 74.8211 179.985C76.0562 179.294 77.4075 179.294 78.7546 178.883C79.0069 178.883 79.3743 178.748 79.2482 179.017C79.1288 179.57 78.266 179.017 77.8943 179.706C78.3878 179.985 78.8765 179.706 79.3743 179.841C79.4937 179.841 79.4937 179.57 79.618 179.57C80.9743 179.429 82.5669 179.017 83.6795 179.841C82.5669 180.252 81.3411 179.57 80.2377 179.841C79.3602 180.14 78.5454 180.431 77.5725 180.86L77.3005 180.862C77.0931 180.926 76.8832 181.002 76.6691 181.076H75.8057C74.6998 181.076 73.5909 181.076 72.4875 181.479C72.4875 181.479 72.4875 181.758 72.6088 181.758C71.3811 182.17 70.0272 182.85 68.7971 182.986C67.9337 182.986 67.0758 183.81 66.0888 184.081C66.6992 184.49 67.1971 183.811 67.9337 183.532C68.0531 183.532 68.1798 183.532 68.3011 183.668C68.4248 184.08 68.3011 184.357 68.0531 184.636C67.9337 184.903 68.1792 185.039 68.3011 185.175C68.5442 184.636 69.1638 184.081 69.6574 184.636C69.7792 184.769 69.6574 185.039 69.6574 185.175C70.1485 184.49 70.8851 183.944 71.6242 183.944C71.8722 183.944 71.8722 184.356 71.6242 184.49C72.2346 184.49 72.7355 184.081 73.2192 183.668C73.5909 183.532 73.9577 183.945 74.3331 183.668C75.1952 183.263 76.0562 182.85 77.0309 182.719C77.1602 182.719 77.1602 182.85 77.1602 182.986C77.5245 182.85 77.8943 182.719 78.266 182.719C78.3878 182.583 78.6334 182.719 78.6334 182.44C78.6334 182.583 79.1288 182.583 78.7546 182.85C79.9897 182.986 81.2174 182.583 82.4451 182.583C81.9565 182.171 81.3411 182.719 80.9743 182.171C80.9743 182.035 80.9743 181.894 81.0937 181.894C82.3257 181.894 83.6802 182.035 84.9054 181.894C84.29 181.346 83.4272 181.894 82.698 181.759C82.5669 181.759 82.5669 181.623 82.4457 181.479C82.6432 181.348 82.8501 181.232 83.0648 181.131C84.4998 180.566 86.3669 180.626 87.6186 180.528C87.7663 180.528 87.7805 180.681 87.7663 180.852C87.754 180.972 87.7374 181.1 87.7374 181.212C87.3731 182.44 86.9989 183.668 86.5097 184.769C85.8943 185.997 85.0315 187.091 83.9232 187.916C82.4451 188.872 80.8863 189.594 79.1078 189.845L60.0666 189.84C60.0666 190.217 60.0598 191.098 60.0666 191.23H134.878V189.842H110.246ZM114.803 176.831C115.043 176.974 115.416 176.974 115.665 177.243C115.296 177.377 114.681 177.789 114.314 177.377C114.192 177.107 114.803 177.377 114.681 177.107C114.555 176.974 114.192 177.243 114.192 176.974C114.314 176.692 114.584 176.711 114.803 176.831ZM119.849 166.713C120.703 166.847 121.685 166.713 122.548 167.259C122.677 167.393 122.548 167.526 122.427 167.526C121.936 167.526 121.518 167.643 121.073 167.393C120.581 167.123 120.09 167.259 119.597 166.983C119.721 166.847 119.721 166.713 119.849 166.713ZM117.142 156.04C117.263 156.04 117.289 156.498 117.511 156.317C118.002 155.905 118.493 156.317 118.989 156.452C118.989 156.588 119.475 156.722 119.108 156.863C118.492 156.998 117.873 156.998 117.263 156.863C117.02 156.722 116.648 156.176 117.141 156.04M62.8869 164.518C62.6438 163.836 64.2438 163.836 64.9829 163.836C65.1042 163.836 65.1042 163.979 65.226 163.979C64.6106 164.658 63.2592 165.342 62.8875 164.518M69.1645 168.487C68.9158 169.176 67.9337 168.63 67.3189 168.353C67.4408 168.074 67.8149 167.941 67.9343 168.074C68.4248 168.074 69.3066 168.091 69.1638 168.487M70.1485 167.805C69.9005 167.805 69.4075 167.941 69.4075 167.671C69.2857 167.393 69.9005 167.259 70.1485 167.526V167.805ZM70.1485 164.93C70.1485 165.071 70.1485 165.207 70.0272 165.207C69.0377 165.071 68.1792 165.619 67.1971 165.207C67.4408 165.071 67.562 164.93 67.8149 165.071V164.796C67.3189 164.93 66.8303 164.796 66.3343 164.796C66.3343 165.071 66.2106 165.071 66.0888 165.207C65.8457 165.342 65.8457 165.071 65.7171 164.93C65.7171 165.071 65.7171 165.207 65.5928 165.207C65.474 164.93 65.3521 165.342 65.226 165.207C65.1042 165.071 64.9829 165.071 65.1042 164.93C65.9669 164.388 66.8303 164.112 67.8149 164.248C67.9337 164.248 67.9337 164.389 67.9337 164.518C68.7971 164.518 69.5263 164.112 70.3891 164.518C70.2678 164.658 70.1491 164.658 70.0272 164.658C69.9005 164.796 70.0272 164.796 70.1485 164.93ZM99.426 176.692C99.1755 176.692 98.9325 176.831 98.8137 176.559C98.8137 176.692 98.8137 176.831 98.6869 176.831H97.5817C97.4525 176.831 97.4525 176.559 97.4525 176.425C97.5817 176.282 97.8248 176.149 98.0728 176.149C98.442 176.149 98.5663 176.282 98.8143 176.559C99.0543 176.425 99.298 176.282 99.5509 176.425C99.5509 176.559 99.4266 176.692 99.4266 176.692M97.3306 159.734V159.464C97.7023 159.464 98.1909 159.052 98.5657 159.464C98.1909 159.874 97.8242 159.874 97.3306 159.734ZM97.8242 169.446C97.7023 169.582 97.5811 169.722 97.4525 169.446C97.4525 169.177 97.4525 168.764 97.7023 168.631C97.9454 168.631 98.0715 169.177 97.8242 169.446ZM97.8242 172.047C97.9454 171.498 98.5657 171.362 99.1755 171.498C99.2974 171.498 99.2974 171.634 99.2974 171.768C99.1755 172.047 98.8801 172.106 98.6869 172.321C98.3226 172.726 97.9454 173.551 97.4525 173.415C96.9632 173.279 97.5811 172.593 97.8242 172.047ZM99.5503 174.097C99.5503 174.233 99.3878 174.135 99.2974 174.233C98.9325 174.645 98.6869 175.47 98.0722 175.055C98.4414 174.51 98.8137 173.964 99.2968 173.684C99.426 173.684 99.5503 173.684 99.5503 173.828V174.097ZM99.0543 167.124C98.8137 166.983 98.4845 166.623 98.8137 166.434C99.0537 166.302 99.426 166.434 99.6691 166.434C100.532 166.03 101.393 166.03 102.256 166.03C102.377 166.03 102.377 166.165 102.496 166.302C102.496 166.435 102.496 166.578 102.377 166.578C101.636 166.847 100.899 166.302 100.28 166.714C99.9171 166.847 99.5503 167.124 99.0543 167.124ZM102.497 172.726C101.884 172.726 101.264 172.867 100.657 172.726C100.899 172.18 101.515 172.457 101.763 172.047C102.124 172.321 102.625 171.911 102.866 172.321C102.988 172.593 102.625 172.593 102.497 172.726ZM103.851 176.15C103.851 176.014 103.851 175.88 103.97 175.88C104.101 175.88 104.101 175.856 104.222 175.88C105.086 176.014 105.946 176.014 106.802 176.426C106.685 176.559 106.559 176.831 106.435 176.831C105.696 176.559 105.086 176.693 104.47 176.426C104.344 176.426 103.97 176.426 103.851 176.15ZM106.685 179.43H105.947C105.947 179.571 105.947 179.706 105.825 179.706C105.329 179.571 104.843 179.706 104.471 179.43C104.843 178.612 105.574 179.017 106.311 179.017C106.435 179.017 106.685 178.884 106.802 179.158C106.802 179.294 106.802 179.43 106.685 179.43M113.94 172.593C113.201 172.867 112.092 173.279 111.606 172.457C111.353 172.18 111.982 171.992 112.092 172.047C112.71 172.321 113.451 171.911 113.94 172.593M112.955 169.177C113.076 169.446 112.588 169.446 112.216 169.446C111.728 169.446 111.112 169.582 110.743 169.177C111.484 168.9 112.71 168.354 112.955 169.177ZM110.864 166.578C111.232 166.847 111.606 166.983 111.973 166.983C112.092 166.983 112.216 167.124 112.216 167.26C112.092 167.527 111.837 167.455 111.728 167.393C111.232 167.124 110.621 167.527 110.249 166.983C110.5 166.847 110.621 166.435 110.865 166.578M108.156 173.415C108.523 173.415 108.891 173.313 109.267 173.415C109.758 173.551 110.369 173.415 110.743 173.827C110.864 173.964 110.743 174.097 110.621 174.097C110.001 173.964 109.388 174.233 108.776 173.964C108.524 173.964 108.283 173.964 108.035 173.684C107.915 173.551 108.035 173.415 108.156 173.415M108.156 179.294C107.672 179.43 107.293 179.571 106.802 179.43C107.052 179.294 107.293 178.884 107.541 179.017C107.793 179.158 108.035 179.017 108.156 179.294M107.293 175.88C106.802 175.737 106.311 176.014 105.946 175.88C105.825 175.737 105.574 175.88 105.574 175.603C105.574 175.47 105.574 175.47 105.696 175.325C105.825 175.191 105.868 175.615 106.07 175.47C106.435 175.191 107.052 175.325 107.419 175.604C107.541 175.737 107.419 175.881 107.293 175.881M107.293 169.722C107.293 169.992 106.931 169.722 106.802 169.992C106.685 170.13 106.559 169.992 106.559 169.858C106.685 169.722 106.774 169.582 107.052 169.582C107.172 169.582 107.293 169.722 107.293 169.722ZM106.685 167.672C106.802 167.672 106.802 167.806 106.931 167.942C106.931 168.075 106.931 168.22 106.802 168.22C106.559 168.22 106.311 167.942 106.07 168.075C105.452 168.22 104.843 167.942 104.344 168.354C104.843 168.487 105.452 168.22 105.946 168.487C104.843 169.033 103.484 169.446 102.377 169.177C102.294 169.147 102.208 169.124 102.12 169.107C102.151 169.16 102.184 169.238 102.256 169.313C101.884 169.582 101.636 169.858 101.152 169.858C101.023 169.858 101.023 169.992 100.9 169.992C100.776 169.992 100.776 169.858 100.776 169.722C100.997 169.236 101.417 169.183 101.86 169.074C101.259 169.031 100.637 169.158 100.168 168.631C100.776 167.942 101.636 167.942 102.377 168.22C102.256 168.354 102.256 168.354 102.125 168.487C102.625 168.22 103.36 168.631 103.608 168.075C103.729 167.942 103.119 167.942 103.119 167.672C103.119 167.527 103.484 167.393 103.729 167.393C104.223 167.393 104.843 167.672 105.329 167.672C105.825 167.806 106.19 167.672 106.685 167.672ZM106.311 165.756C106.311 165.62 106.19 165.62 106.07 165.62C106.07 165.755 106.07 165.889 105.946 165.889C105.574 165.889 105.329 165.756 104.964 165.62C103.97 165.484 102.988 165.755 102.124 165.207C102.377 164.113 103.36 165.071 104.101 164.659C102.625 163.98 100.899 165.484 99.6691 164.39C99.5503 164.249 100.168 164.249 100.411 164.113C100.168 163.836 99.9429 163.98 99.6691 163.98C99.5503 163.98 99.5503 163.836 99.426 163.836C100.039 163.154 100.657 162.742 101.393 162.332C101.762 162.063 102.625 162.196 103.119 162.742C102.625 163.021 101.884 162.609 101.515 163.29C101.515 163.433 101.515 163.703 101.636 163.703C102.015 163.703 102.377 163.567 102.745 163.567C103.483 163.703 103.969 164.249 104.712 163.98C104.964 163.836 105.207 163.433 105.574 163.567C105.946 163.703 105.946 164.249 105.574 164.39H104.964C105.086 165.343 106.312 164.518 106.685 165.343C106.802 165.62 106.435 165.62 106.311 165.756ZM101.763 155.218C101.884 154.946 102.139 155.014 102.378 155.082C102.866 155.218 103.36 154.813 103.729 155.218C103.238 155.772 101.636 156.318 101.763 155.218M107.541 151.802C108.156 151.53 109.267 151.39 109.388 152.079C109.508 152.214 108.915 152.274 108.654 152.348C107.672 152.625 106.685 152.896 105.696 152.348C106.312 152.215 106.931 151.938 107.672 151.938L107.541 151.802ZM109.508 162.332C109.508 162.196 109.639 162.196 109.758 162.063C109.758 162.196 109.88 162.175 110.001 162.196C110.743 162.332 111.484 162.332 112.092 162.742C111.606 162.878 111.728 163.021 111.484 163.433C110.864 163.021 109.88 163.29 109.388 162.609C109.388 162.473 109.639 162.473 109.758 162.473C109.639 162.473 109.508 162.473 109.508 162.332ZM109.388 156.453C109.388 156.318 109.639 156.318 109.758 156.318C109.88 156.318 110.742 156.318 110.369 156.722C110.13 156.863 109.639 156.722 109.388 156.453ZM107.915 153.306C108.523 153.037 109.164 152.844 109.758 153.173C110.001 153.306 110.249 153.038 110.5 153.306C109.758 153.719 108.776 153.719 107.915 153.306ZM107.541 155.772C107.793 155.905 108.404 155.905 108.283 156.177C107.915 156.999 106.685 156.177 105.946 155.905C106.435 155.638 107.105 155.523 107.541 155.772ZM106.07 153.173C106.07 153.038 106.311 153.038 106.435 153.038V153.306C106.311 153.306 106.07 153.306 106.07 153.173ZM105.946 158.094C105.329 158.506 104.59 158.639 103.851 158.37C104.223 158.236 104.59 158.236 104.843 157.822C105.207 158.094 105.574 157.822 105.946 158.094ZM106.559 159.598C106.435 159.464 106.559 159.328 106.685 159.328C106.802 159.328 106.828 159.245 106.931 159.328C107.419 159.734 108.156 159.185 108.654 159.734C108.654 159.874 108.654 160.012 108.523 160.012C107.915 159.734 107.172 160.143 106.559 159.598ZM106.931 163.29C106.802 163.021 107.069 162.609 107.794 162.609C107.915 162.609 107.915 162.742 108.034 162.742L107.915 162.878C108.404 163.021 109.019 162.878 109.508 163.433C109.639 163.567 109.508 163.703 109.388 163.703C108.523 163.703 107.293 164.113 106.931 163.29M109.019 164.39C108.776 164.39 108.283 164.518 108.035 164.113C109.143 163.836 110.249 163.836 111.353 163.836C111.728 163.836 112.216 163.836 112.588 164.113C111.484 165.071 110.249 164.39 109.019 164.39M113.57 161.65C113.57 161.784 113.57 161.927 113.451 161.927C112.216 161.927 110.864 162.196 109.639 161.514C110.001 161.102 110.621 161.65 110.991 161.102C111.231 160.825 111.663 161.223 112.092 161.102C112.588 160.971 113.329 160.971 113.57 161.65M111.973 151.53C111.846 151.53 111.727 151.53 111.727 151.39C111.905 151.258 112.12 151.187 112.341 151.187C112.562 151.187 112.777 151.258 112.955 151.39C112.833 151.666 112.588 151.53 112.337 151.53C113.329 152.078 114.433 151.121 115.296 151.666C114.433 151.938 113.563 151.998 112.588 152.215C111.973 152.348 111.727 151.802 111.232 151.666C111.484 151.256 111.728 151.802 111.973 151.53ZM111.112 152.625C111.112 152.763 111.112 152.897 110.991 152.897C110.249 152.484 109.508 153.306 108.776 152.763C109.267 152.348 109.865 152.348 110.5 152.348C110.743 152.348 110.991 152.348 111.112 152.625ZM106.311 150.708C107.794 150.977 109.143 150.572 110.5 150.977C110.131 151.666 109.508 150.977 109.019 151.256C108.776 151.39 108.404 151.666 108.156 151.53C107.541 151.121 106.802 151.256 106.19 150.977C106.07 150.844 106.19 150.708 106.311 150.708ZM104.471 148.522C104.964 148.655 105.452 148.791 105.825 149.068C105.696 149.203 105.696 149.34 105.574 149.34C104.964 149.204 104.223 149.48 103.729 148.927C103.969 148.791 104.094 148.415 104.47 148.521M100.656 144.829C101.884 144.829 103.119 144.417 104.223 145.234C104.344 145.377 104.223 145.511 104.101 145.511C103.484 145.511 102.745 144.965 102.124 145.377C101.393 145.78 100.411 145.377 99.5503 145.377C99.426 145.377 99.426 145.098 99.426 144.965C99.7909 144.553 100.28 144.83 100.657 144.83M100.657 149.48C100.899 149.48 101.264 149.48 101.152 149.75C101.023 150.572 99.9171 150.162 99.426 149.885C99.7909 149.75 100.168 149.48 100.657 149.48ZM100.039 157.276C100.168 157.411 100.411 157.411 100.532 157.679C100.532 157.822 100.532 157.958 100.411 157.958C100.039 158.093 99.5355 158.327 99.426 157.958C99.2968 157.545 99.7909 157.276 100.039 157.276ZM99.426 160.143L99.2968 160.279H99.0543C98.9325 160.144 99.0543 160.012 99.1755 160.012C99.2974 160.012 99.426 160.012 99.426 160.143ZM99.6691 139.489C99.7909 139.489 99.9577 139.453 100.038 139.632C100.168 139.902 100.656 139.632 100.776 139.902C100.411 140.035 99.7909 140.314 99.426 140.035C99.6691 139.902 99.426 139.632 99.6691 139.489ZM98.6869 139.766C98.8137 139.901 98.9331 140.035 98.6869 140.171C98.4414 140.171 98.0715 140.314 98.0715 140.035C97.9454 139.766 98.4894 139.549 98.6869 139.766ZM99.2974 140.583C99.4266 140.583 99.5497 140.447 99.6691 140.314C99.7909 140.314 99.9171 140.447 99.7909 140.583C99.2974 140.993 98.4414 141.131 97.8242 140.862C98.1909 140.314 98.7946 140.583 99.2974 140.583ZM98.1909 149.203C98.5657 149.203 98.9325 149.203 99.1755 149.48C98.8137 149.749 98.3226 150.161 97.8242 150.018C97.7023 150.018 97.7023 149.885 97.7023 149.749L97.9454 149.479C97.8242 149.479 97.4525 149.613 97.4525 149.339C97.5811 149.067 97.9454 149.203 98.1909 149.203ZM98.5657 153.718C98.6869 153.854 98.5657 153.988 98.4414 153.988H97.4525C97.3306 153.988 97.3306 153.854 97.2088 153.854C97.4525 153.442 98.1909 153.442 98.5657 153.719M96.842 138.942C96.9632 138.942 96.9632 139.076 96.9632 139.222C96.5989 139.631 95.9786 140.034 95.4857 139.631C95.738 139.222 96.1005 139.354 96.346 139.076C96.4678 138.942 96.7177 139.222 96.842 138.942ZM95.242 138.942H95.4857C95.6168 138.942 95.9786 138.673 95.9786 138.942C95.8574 139.222 95.4857 139.631 95.1208 139.222C95.1208 139.076 95.1208 138.942 95.242 138.942ZM91.1848 139.765C92.2931 139.631 93.2752 139.631 94.2555 140.034C94.1386 140.447 93.7712 140.313 93.5189 140.313C93.1497 140.447 92.7866 140.583 92.5343 140.447C92.1669 140.17 91.9165 140.034 91.5522 140.034C91.5522 140.313 91.4254 140.447 91.306 140.447C90.4432 140.582 89.5854 140.582 88.8463 140.17C89.5848 139.901 90.4432 139.856 91.1848 139.765ZM91.4254 150.707C91.4254 150.843 91.3066 150.977 91.3066 150.977C90.9417 150.707 90.2001 150.843 90.322 150.297C90.322 150.018 90.6888 149.885 91.0605 149.885C91.4254 149.885 91.5522 150.162 91.6709 150.297C91.6709 150.571 91.3066 150.431 91.1848 150.431L91.4254 150.708M90.0783 144.686C90.0783 144.552 90.4432 144.416 90.4432 144.686C90.4432 144.828 90.0783 144.828 90.0783 144.686ZM91.0605 151.666C91.1848 151.801 91.0605 151.937 90.9417 151.937C90.5694 151.937 90.322 151.937 89.9472 151.666L89.7072 151.937C89.4586 151.802 89.218 151.53 89.218 151.255C89.218 150.977 89.5946 151.053 89.8285 151.12C90.322 151.255 90.6888 151.389 91.0605 151.666ZM89.4586 153.442C89.4586 153.306 89.4586 153.172 89.5854 153.172C89.7066 153.172 89.6543 153.306 89.8285 153.306C89.9472 153.306 89.9472 153.441 90.0783 153.441C89.8285 153.718 89.7066 153.718 89.4586 153.441M89.3374 167.123C89.218 167.123 89.218 166.983 89.218 166.846C89.218 166.713 89.3374 166.713 89.3374 166.577C89.5854 166.713 89.5854 166.983 89.3374 167.123ZM88.722 146.881C88.5958 147.015 88.474 147.284 88.3552 147.284C87.8617 147.284 87.4918 147.696 87.1226 147.832C86.9983 147.832 86.9983 147.563 86.7552 147.563C86.0137 147.563 85.1509 147.697 84.4217 147.151C85.0315 146.604 85.7731 147.151 86.5097 146.881C87.1226 146.604 87.9829 146.471 88.722 146.881ZM82.0186 165.598C81.3485 165.943 80.5854 165.772 80.0752 165.319C80.3189 165.042 80.6906 165.319 80.9386 165.454C81.4272 165.562 81.7565 165.068 82.1208 165.135C82.7718 164.854 83.4371 164.725 84.1712 164.518C84.5429 164.518 84.7866 164.796 85.0315 165.071C83.9878 165.185 83.0365 165.692 82.0186 165.598ZM82.8168 166.982C82.0802 167.671 81.0937 167.526 80.4783 166.982C80.7306 166.713 81.0937 166.982 81.3411 167.124C81.9565 167.259 82.3257 166.434 82.8168 166.982ZM77.6512 165.342C77.4075 165.342 76.9189 165.483 76.9189 165.207C77.0309 164.518 77.8943 164.796 78.3878 164.658C79.1288 164.389 79.7202 164.518 80.6026 164.518C80.7312 164.518 80.7312 164.658 80.8525 164.658C79.8678 165.206 78.7546 164.93 77.6512 165.342ZM84.4217 160.279C84.2906 160.279 84.0494 160.143 84.0494 160.012C84.0494 159.733 84.2906 159.464 84.5429 159.597C84.786 159.874 85.0315 160.279 85.2752 160.691C85.2752 160.825 85.2752 160.97 85.1509 160.97C84.9054 160.97 84.786 160.825 84.6648 160.691V160.422C84.6648 160.279 84.5429 160.279 84.4217 160.279ZM80.4783 147.015C81.4629 146.604 82.5669 146.881 83.5583 147.284C83.4272 147.832 82.9386 147.696 82.4451 147.696C81.8346 147.696 81.3411 147.832 80.7312 147.563C80.9743 147.284 81.3411 147.427 81.7158 147.284C81.3411 147.15 80.8525 147.427 80.4789 147.015M84.2906 149.479C84.5429 149.613 84.2906 150.018 84.4217 150.161C84.6648 150.297 85.1226 150.087 85.2746 150.431C85.3965 150.708 85.0315 150.708 84.9054 150.843C84.4217 150.571 83.6802 151.255 83.4272 150.843C83.0648 150.297 83.6795 150.708 83.9232 150.431C82.8168 150.018 81.7158 150.297 80.6026 150.018C81.8346 149.885 83.0648 149.479 84.2906 149.479ZM86.0137 153.172C86.0137 153.306 85.866 153.382 85.7737 153.306C85.3965 153.036 84.9054 152.896 84.6648 152.483C84.6648 152.348 84.6648 152.214 84.786 152.214C85.2746 152.214 85.8949 152.624 86.0137 153.172ZM81.0937 154.4C81.3411 153.854 82.0802 154.13 82.698 154.4C82.4457 154.677 82.2045 154.812 82.0802 155.082C81.7158 155.217 80.9743 154.676 81.0937 154.4ZM83.0648 157.822C82.698 158.092 82.4691 158.369 82.0802 158.369H81.7158C81.5848 158.369 81.4629 158.236 81.5848 158.092C81.9565 157.678 82.698 157.411 83.0648 157.822ZM82.8168 155.082C83.3078 154.676 84.0494 154.812 84.6648 155.082C84.0494 155.638 83.3078 155.359 82.8168 155.082ZM85.2746 163.433C84.9054 163.702 84.5429 163.979 84.05 163.979C83.3078 163.979 82.698 164.518 81.9565 164.248C82.3257 163.566 83.0648 163.979 83.5583 163.566C83.9232 163.154 84.6648 163.289 85.2752 163.433M85.1509 167.526C85.1509 167.671 85.6494 167.671 85.2746 167.941C85.0315 168.074 84.6648 167.777 84.6648 168.074V168.353C84.1712 168.487 83.4278 168.764 83.0648 168.22C83.6802 167.526 84.4217 167.672 85.1509 167.526ZM86.6315 171.086C86.2666 171.767 85.5251 170.952 85.1509 171.498C84.9054 171.086 84.4217 171.633 84.1712 171.228C84.7866 170.675 85.8943 170.951 86.6315 171.086ZM86.2666 159.733C86.1355 159.733 85.8949 159.874 85.7731 159.598C85.7731 159.463 85.7731 159.327 85.8949 159.327C86.0137 159.327 86.0494 159.233 86.1349 159.327C86.2666 159.463 86.6315 159.597 86.2666 159.733ZM87.3731 160.279C86.9983 160.422 86.7552 160.556 86.3786 160.279C86.7552 160.012 86.9983 160.012 87.3731 160.279ZM86.2666 167.26C86.6315 167.393 87.3442 167.386 87.2512 167.942C87.122 168.631 86.2666 168.354 85.7731 167.942C85.8949 167.672 86.0137 167.26 86.2666 167.26ZM87.6186 169.177C87.7374 169.312 87.8617 169.722 87.6186 169.722C87.1226 169.858 86.3786 169.722 86.3786 169.313C86.3786 168.764 87.3035 168.823 87.6186 169.177ZM85.8949 171.767C86.3786 171.767 87.1226 171.634 87.618 171.767C87.8617 171.911 87.9829 172.457 87.7374 172.726C86.9989 171.768 85.7805 172.321 84.6648 172.321C84.4217 172.321 84.2906 172.18 84.1712 172.047C84.6648 171.634 85.3965 171.768 85.8943 171.768M87.8617 172.867C87.8617 173.005 87.9829 173.279 87.7374 173.415C87.6186 173.415 87.4918 173.279 87.2512 173.279C87.122 173.279 87.122 173.138 86.9989 173.005C87.2512 172.867 87.6186 172.867 87.8617 172.867ZM85.0315 157.822C85.5251 157.679 86.1595 156.889 86.5097 157.276C86.6315 157.411 86.9983 157.135 87.1226 157.276C87.3731 157.679 87.738 157.545 88.1023 157.822C88.2358 157.958 88.1023 158.094 87.9829 158.094C86.9983 158.094 86.0137 158.236 85.0315 157.822ZM86.9983 153.719C86.7552 153.719 86.8771 153.173 86.6315 153.037C86.9983 152.763 87.4112 152.715 87.7374 152.897C87.9835 153.037 88.3552 153.037 88.5958 153.306C88.2358 153.988 87.4918 153.442 86.9983 153.719ZM87.1226 141.542C87.2512 141.542 87.2512 141.682 87.3731 141.682C87.1226 141.954 86.8771 141.954 86.7552 141.682C86.7552 141.542 86.9983 141.542 87.1226 141.542ZM84.5429 140.447C84.9054 140.447 85.1485 140.552 85.5251 140.447C86.0137 140.314 86.3786 140.447 86.7558 140.583C86.3786 140.724 86.2666 140.993 86.0137 141.132C85.5251 141.406 84.9054 140.993 84.4217 140.724C84.4217 140.583 84.4217 140.447 84.5429 140.447M83.5583 140.724H84.0494C84.1712 140.724 84.1712 140.862 84.1712 140.993C83.9232 141.272 83.4272 141.43 83.4272 140.993C83.4272 140.862 83.5583 140.724 83.5583 140.724ZM83.0648 143.458C83.5583 143.325 84.0494 143.458 84.5429 143.594C84.1712 143.871 83.8014 143.594 83.4272 143.871C84.0494 143.871 84.6642 143.458 85.1509 144.14C84.2906 144.553 83.3078 144.553 82.3263 144.281C81.9565 144.281 81.7158 144.14 81.3417 144.417C81.2174 144.007 81.0937 143.871 80.7312 143.727C81.4629 143.325 82.3374 143.661 83.0648 143.458ZM81.9565 146.326C82.9638 146.057 84.0242 146.057 85.0315 146.326C85.0315 146.193 85.0315 146.057 85.1509 146.057C85.6494 146.057 86.3786 145.644 86.6315 146.326C86.7552 146.738 86.2666 146.605 86.1355 146.605C84.1712 146.882 82.2045 146.882 80.2377 146.738C80.7312 146.057 81.3411 146.471 81.9565 146.326ZM81.7158 156.999C81.4629 157.276 81.2174 157.276 80.8525 157.276C80.4783 157.276 80.1115 157.135 79.8678 156.999C80.4783 156.722 81.0937 156.722 81.7158 156.999M81.4629 160.825C80.7306 161.238 79.618 161.238 78.7552 160.971C79.0075 160.423 79.3583 160.556 79.7398 160.556C80.3571 160.556 80.9743 160.279 81.4629 160.825ZM78.1448 150.844V151.121C77.5245 151.39 76.7878 151.666 76.0562 151.256C76.6691 150.844 77.4075 151.121 78.1448 150.844ZM78.0229 154.678L77.8937 154.813C78.5115 155.359 79.2482 154.401 79.7398 154.946C79.7398 155.082 79.4297 154.963 79.3743 155.082C78.8758 156.177 77.5245 155.772 76.6691 155.492C76.2968 155.359 75.8057 155.359 75.4365 155.082C76.178 154.677 77.1595 154.267 78.0229 154.677M74.082 155.905C74.4543 155.772 74.6808 155.905 75.0642 155.905C75.6845 155.905 76.178 155.638 76.7878 155.772C76.9189 155.905 77.0309 156.177 77.2814 156.318C77.0309 156.722 76.5448 156.318 76.178 156.453V156.863C75.3146 157.411 74.5731 156.589 73.8365 156.177C73.9583 156.041 73.9583 155.905 74.0826 155.905M73.8365 159.598C74.0826 159.464 74.2112 159.734 74.3325 159.874C74.3325 160.012 74.3325 160.279 74.2112 160.279C73.8365 160.279 73.4722 160.423 73.0974 160.144C73.3478 160.012 73.5909 159.734 73.8365 159.598ZM73.098 163.021C75.4365 162.878 77.77 162.742 80.1115 162.609C79.4937 162.196 78.7546 162.609 78.1448 162.473C78.1448 162.473 77.6512 162.196 78.0229 162.063C79.7398 161.514 81.5965 161.853 83.4272 161.514C84.1712 161.374 84.9054 161.65 85.1509 162.332C85.3965 162.878 84.6648 162.609 84.5429 162.609C83.3078 162.742 81.9565 162.196 80.8525 162.878C81.5848 162.742 82.3257 162.742 83.0648 163.021C83.0648 163.021 83.5583 163.29 83.1866 163.29C81.7158 163.567 80.3571 163.836 79.0075 163.836C78.3878 163.98 77.6512 163.703 77.0309 163.567C75.4365 163.433 73.7103 163.433 72.1128 163.433C72.3632 163.021 72.8543 163.021 73.0974 163.021M76.178 164.39C75.9251 164.518 75.8057 164.659 75.5577 164.659C75.4365 165.756 74.2112 165.207 73.5909 165.756C73.2192 165.889 73.2192 165.343 72.9755 165.207C73.3478 164.93 73.8371 165.071 74.3325 164.93C74.5731 164.93 74.4543 164.518 74.4543 164.518C73.5909 164.249 72.7355 164.797 71.8722 164.518C71.746 164.389 71.3811 164.113 71.6242 164.113C73.4722 163.703 75.3146 163.567 77.1602 164.113V164.39C76.7878 164.39 76.4211 164.249 76.178 164.39ZM71.1306 174.644C70.8851 174.644 70.8851 174.232 70.7614 173.962C70.7614 173.55 71.3048 173.385 71.4955 173.55C71.9915 173.962 72.3632 173.683 72.8543 173.683C73.3478 173.826 73.9583 173.278 74.4543 173.137C74.6998 173.137 74.9429 173.278 75.1952 173.414C75.4365 173.414 75.8057 173.137 76.0562 173.414C74.5731 174.644 72.8543 174.372 71.1306 174.644ZM75.6845 175.469C75.5577 175.469 75.5577 175.736 75.5577 175.879C75.0641 176.282 74.3331 176.148 73.9577 175.879C73.4715 175.602 73.0974 176.282 72.6088 175.736C74.082 175.19 75.6845 175.054 77.1602 174.508C77.8943 174.231 78.7546 174.096 79.618 174.508C78.3872 175.19 77.0309 175.468 75.6845 175.468M79.618 172.319C78.7546 172.725 77.77 172.591 76.7878 172.591C75.3146 172.319 74.082 173.004 72.6094 173.414C72.4875 173.414 72.3632 173.137 72.3632 173.137C72.7355 172.591 73.3478 172.725 73.8365 172.455C73.9583 172.32 73.3478 172.32 73.3478 172.32C73.9583 171.766 74.6998 172.178 75.3146 172.046L75.1952 171.767C75.1952 171.497 75.5583 171.497 75.6845 171.361C76.2968 171.228 76.9189 171.497 77.5245 171.228C77.7706 170.951 78.0229 170.538 78.3878 170.401H79.1288L79.2482 170.674C79.0075 171.085 78.6328 171.085 78.266 171.361C78.3878 171.361 78.3878 171.497 78.3878 171.633C78.6334 171.633 78.8765 171.633 79.1288 171.361C79.4937 171.228 79.618 171.633 79.8678 171.91C79.9897 172.045 79.7392 172.179 79.618 172.319ZM80.6026 170.27C80.4783 169.991 80.1115 170.129 79.9897 170.129C78.8758 169.721 77.77 170.27 76.7878 170.539C76.4211 170.674 75.6845 170.951 75.5577 170.539C75.4365 169.991 76.178 170.27 76.5448 169.857C76.7878 169.721 77.2814 169.991 77.5245 169.857C78.7552 169.311 79.9897 169.311 81.2174 169.58C82.4451 169.721 83.802 169.721 84.9054 170.539C84.1712 170.818 83.5583 170.818 82.8168 170.818C82.4451 170.818 82.3257 170.27 81.9565 170.129C81.4629 170.129 80.9743 169.991 80.6026 170.27ZM87.9829 179.157C87.7374 179.705 87.2506 179.292 86.8771 179.429C86.5097 179.569 85.7731 179.922 85.7731 179.429C85.7731 179.293 85.8949 179.017 86.0137 179.017C86.3786 179.017 86.6315 178.882 86.8771 178.747C87.2512 178.747 87.6186 178.475 87.9829 178.747V179.157ZM88.1023 175.735C87.9829 176.012 87.4918 176.148 87.3731 175.879C87.3731 175.602 87.4918 175.324 87.6186 175.054C86.2666 175.19 85.0315 175.054 83.6802 175.324C82.9386 175.602 82.0568 175.848 81.5848 175.324C81.4629 175.19 81.0937 175.054 81.4629 174.921C82.698 174.508 84.2906 175.602 85.0322 174.231C86.0137 174.508 86.9983 173.962 87.8617 174.508C88.2358 174.644 88.2358 175.324 88.1017 175.736M88.2358 155.491C88.474 155.358 88.9251 155.637 88.9651 155.77C89.0962 156.175 88.5958 155.77 88.3552 155.903C88.3552 155.77 87.8617 155.637 88.2358 155.491ZM88.5958 164.796L88.722 164.929C89.3374 165.342 89.4586 166.3 88.8463 166.3C88.5958 166.3 88.2358 165.342 88.5958 164.796ZM89.0961 167.671C89.0961 167.392 89.3374 167.392 89.5854 167.671C89.3374 167.804 89.0961 167.94 89.0961 167.671ZM89.7066 169.444C89.4586 169.175 89.218 168.763 89.218 168.353C89.218 168.219 89.4586 168.219 89.5854 168.219C89.7066 168.219 89.6543 168.367 89.7066 168.486C89.8285 168.763 89.9472 169.175 89.7066 169.444ZM90.2002 157.544C89.9478 157.678 89.4586 156.998 89.9478 156.721C89.9478 156.721 90.1448 156.735 90.2002 156.862C90.322 157.134 90.4432 157.544 90.2002 157.544ZM90.5694 173.004C90.4432 173.004 90.4432 172.866 90.4432 172.725C90.4432 172.591 90.5694 172.591 90.5694 172.455C90.8106 172.591 90.8106 172.866 90.5694 173.004ZM91.4254 154.945C91.1848 155.081 91.0605 154.812 90.9417 154.676C90.9417 154.533 91.1848 154.533 91.3066 154.533C91.4254 154.533 91.4254 154.676 91.5522 154.676C91.5522 154.812 91.5522 154.945 91.4254 154.945ZM91.4254 153.172C91.4254 153.036 91.0605 153.036 91.3066 152.762C91.5522 152.482 91.9165 152.623 91.9165 152.895C91.9165 153.036 91.6709 153.305 91.4254 153.172ZM92.7866 169.58C92.4075 168.63 92.6555 167.525 92.4075 166.434C92.4075 166.164 92.7866 166.3 92.8986 166.3C93.1491 166.3 93.3971 166.577 93.3971 166.713C93.2752 167.671 93.5189 168.898 92.7866 169.58ZM92.2931 163.02C92.4075 162.877 92.4075 162.607 92.6562 162.741C92.7866 162.741 92.8728 162.922 92.7866 163.02C92.6555 163.153 92.6555 163.289 92.5343 163.289C92.4075 163.289 92.4075 163.154 92.2931 163.02M91.9165 161.926C91.802 161.783 91.9165 161.649 92.0457 161.649C92.2931 161.649 92.6555 161.513 92.8986 161.783C92.8986 161.783 93.0297 161.649 93.1491 161.649C93.2752 161.783 93.3971 161.926 93.5183 162.062C93.1491 162.471 92.2937 162.331 91.9165 161.926M92.2931 158.369C92.2931 158.092 92.8322 157.875 93.0297 158.092C93.1491 158.235 93.0297 158.505 92.8986 158.505H93.6402C93.7712 158.505 94.5029 158.638 94.1386 158.778C93.7712 159.05 93.0297 158.638 92.6555 159.05C92.6555 158.778 92.2931 159.05 92.2931 158.778C92.2931 158.657 92.2931 158.54 92.3669 158.512C92.322 158.486 92.2931 158.442 92.2931 158.369M93.2752 150.297C93.2752 150.57 92.6555 150.706 92.2931 150.57C92.4075 150.43 92.5343 150.161 92.7866 150.161C93.0297 150.161 93.3971 150.018 93.2752 150.297ZM92.7866 147.014H93.0297L92.8986 147.15L92.7866 147.014ZM93.3971 156.862C93.5189 156.721 93.7712 156.721 93.8931 156.721C93.8931 156.855 94.3337 156.986 94.0623 157.115C94.1206 157.139 94.1702 157.18 94.2047 157.233C94.2392 157.286 94.2569 157.347 94.2555 157.41C94.2555 157.678 93.8925 157.82 93.6402 157.82C93.3971 157.82 93.2752 157.274 93.6402 157.134C93.688 157.108 93.7395 157.091 93.7928 157.081C93.6451 157.031 93.4728 156.946 93.3971 156.862ZM93.1491 155.081H92.8986C92.8986 154.946 92.4075 154.812 92.7866 154.676C92.5343 154.399 92.5343 153.986 92.7866 153.854C93.0297 153.854 93.2752 153.718 93.5189 153.987C93.6402 154.13 94.0118 154.266 94.0118 154.399C93.7718 154.812 93.1491 154.266 92.7872 154.676C93.0297 154.676 93.3971 154.533 93.6402 154.812C93.6402 154.945 93.6402 155.081 93.5189 155.081H93.1491ZM93.2752 157.544C93.2752 157.678 93.2752 157.821 93.1491 157.821C92.8986 157.821 92.5337 157.956 92.4075 157.678C92.4075 157.41 92.7866 157.41 93.0297 157.41C93.1491 157.41 93.1491 157.544 93.2758 157.544M94.3792 154.945C94.1386 155.081 93.8931 155.217 93.6408 154.945C93.8931 154.676 94.1386 154.676 94.3792 154.945ZM94.1386 156.039C94.0118 155.77 93.5189 155.637 93.6402 155.217C93.7712 155.081 93.8925 155.217 93.8925 155.358C93.8925 155.217 94.0118 155.217 94.1386 155.217C94.3792 155.358 94.5029 155.637 94.3792 155.903C94.3792 155.903 94.2555 156.039 94.1386 156.039ZM92.7866 153.036C92.6555 153.036 92.6555 152.895 92.6555 152.762C93.0297 152.214 93.7712 152.482 94.2555 152.482C94.3792 152.482 94.3792 152.623 94.5029 152.623C94.0118 153.172 93.3971 153.036 92.7866 153.036M93.6402 147.562C93.3971 147.426 93.1491 146.881 93.5189 146.604C93.6402 146.604 93.8094 146.618 94.1386 146.737C94.5029 146.881 94.754 146.737 94.8752 147.15C94.994 147.426 94.7534 147.426 94.6229 147.562C94.2555 147.696 93.8931 147.696 93.6402 147.562M93.7712 151.937C93.7712 152.078 94.2555 152.214 93.8931 152.347C93.5189 152.347 93.1491 152.214 92.8986 152.078C93.1491 151.801 93.5189 151.937 93.7712 151.937M92.4075 156.589H92.6555C92.6555 156.722 93.1682 156.999 92.7866 156.999C92.6555 156.999 92.4075 157.135 92.2931 156.863C92.2931 156.722 92.2931 156.589 92.4075 156.589ZM93.5189 160.423C93.5189 160.143 94.0118 160.012 94.1386 160.279C94.2555 160.556 94.1386 161.102 93.8925 161.102C93.6402 161.238 93.5189 160.692 93.5189 160.423ZM94.2555 176.014C94.0118 175.055 93.7017 173.758 94.3792 173.005C94.5029 172.867 94.7534 173.005 94.7534 173.138C94.6223 174.097 94.7534 175.191 94.2549 176.014M94.7534 170.54C94.6223 170.402 94.5029 170.402 94.5029 170.271C94.7534 169.582 94.2555 168.764 94.994 168.354C95.242 169.033 95.1208 169.858 94.754 170.54M95.3638 167.393C95.242 167.527 95.1208 167.672 94.9946 167.806C94.8752 167.806 94.7534 167.806 94.7534 167.672C94.7534 167.26 94.7534 166.714 95.1208 166.714C95.1533 166.701 95.1878 166.692 95.2229 166.69L95.1208 166.578L95.242 166.435V166.69C95.5238 166.687 95.6451 167.088 95.3638 167.393ZM91.6715 142.223C91.802 142.223 91.802 142.364 91.802 142.5H92.7866C92.7866 142.364 92.7866 142.223 92.8986 142.223C93.0297 142.223 93.1491 142.5 93.1491 142.5C93.5183 142.223 94.0118 142.5 94.2555 142.769C93.5189 143.325 92.6555 142.769 91.9171 142.769C91.3066 142.769 90.5694 142.913 89.9478 142.5C90.8106 141.818 91.802 141.818 92.7866 141.818C93.8931 141.818 94.8752 141.542 95.9786 141.818C94.6223 142.636 93.1491 141.818 91.6709 142.223M97.3306 179.985C96.4678 179.57 97.3306 178.336 97.2088 177.377C97.3306 177.377 97.3306 176.831 97.5811 177.244C97.5811 177.377 97.5811 177.377 97.4518 177.521C97.4518 177.654 97.4906 177.692 97.5811 177.79C97.7023 177.926 97.9454 177.926 97.9454 178.066C97.9454 178.476 98.0722 178.612 97.9454 178.884C97.8242 179.294 97.4525 180.119 97.3306 179.985Z" fill="#007B5E"/>
</svg>
