<svg width="480" height="320" viewBox="0 0 480 320" fill="none" xmlns="http://www.w3.org/2000/svg">
<path fill-rule="evenodd" clip-rule="evenodd" d="M360.345 147.541C359.455 147.504 354.519 147.251 349.578 147.255C348.813 148.839 346.987 152.839 344.076 159.922C339.896 169.945 338.561 173.609 337.943 175.898C337.332 175.828 335.274 175.599 332.328 175.599C329.655 175.599 326.906 175.849 326.455 175.898C327.681 173.781 329.764 169.136 333.578 159.922C336.37 153.202 338.108 148.513 338.541 147.255C332.827 147.185 328.057 147.41 326.758 147.541C327.293 146.789 328.081 144.932 328.245 143.936C329.437 143.976 338.182 144.23 345.325 144.23C350.649 144.23 361.008 143.936 361.853 143.936C361.32 144.687 360.573 146.401 360.345 147.541ZM260.021 143.937C258.347 145.446 255.068 149.823 247.407 159.971C243.568 165.058 237.356 173.31 236.14 175.89C235.682 175.829 233.535 175.595 231.302 175.595C229.441 175.595 227.645 175.829 227.297 175.899C227.472 174.036 227.338 170.839 227.053 164.069C226.843 159.446 226.709 155.233 226.583 153.161C225.1 155.109 221.17 160.397 217.279 165.505C213.245 170.839 210.695 174.722 210.065 175.899C209.719 175.846 207.568 175.596 206.012 175.596C204.343 175.596 202.739 175.829 202.277 175.899C202.289 174.262 202.212 168.862 201.71 159.94C201.256 149.595 201.052 146.19 200.701 143.928C201.456 144.051 203.297 144.231 206.061 144.231C208.87 144.231 210.414 144.035 211.091 143.928C210.834 145.528 210.816 150.371 211.033 155.256C211.302 160.609 211.442 164.352 211.528 166.703C212.724 165.124 215.385 161.579 218.643 157.298C222.615 152.109 227.012 146.311 228.191 143.937C228.542 143.997 230.922 144.23 232.518 144.23C234.462 144.23 235.907 143.993 236.331 143.928C236.038 145.161 235.972 149.264 236.213 155.113C236.414 160.02 236.707 166.026 236.752 167.622C238.033 165.911 242.178 160.416 245.329 156.243C251.813 147.663 253.515 145.066 253.958 143.937C254.34 144.054 255.468 144.23 256.833 144.23C258.535 144.23 259.637 144.018 260.021 143.937ZM289.866 147.552C288.397 147.443 281.143 147.161 276.5 147.266C276.008 148.276 274.387 151.893 272.226 157.114C275.944 157.236 284.565 156.868 286.406 156.741C285.832 157.514 285.164 159.15 284.9 160.347C282.518 160.192 272.682 159.955 271.064 159.914C267.978 167.359 266.735 170.704 266.156 172.365C267.157 172.415 270.052 172.587 272.947 172.587C277.241 172.587 280.218 172.369 280.919 172.308C280.203 173.244 279.612 174.958 279.424 175.898C277.53 175.837 268.209 175.607 262.524 175.615C258.71 175.615 254.192 175.87 253.435 175.898C254.391 174.113 256.895 168.726 260.558 159.922C264.141 151.308 265.993 146.271 266.683 143.931C267.689 144.042 271.386 144.23 274.473 144.23C280.554 144.258 288.304 144.026 291.381 143.931C290.766 144.638 290.006 146.769 289.866 147.552ZM138.751 144.23C142.022 144.23 143.818 144.013 144.524 143.936C143.712 145.421 141.046 151.353 137.49 159.922C134.012 168.311 131.901 174.035 131.355 175.902C130.876 175.857 128.668 175.598 125.745 175.598C122.642 175.598 120.584 175.808 119.866 175.902C120.817 174.113 123.177 169.123 126.994 159.929C130.844 150.634 132.71 145.363 133.093 143.936C133.505 143.993 135.236 144.23 138.751 144.23ZM171.7 146.961C169.381 146.961 167.699 147.197 167.2 147.246C166.56 148.528 164.424 153.448 161.715 159.927C158.376 167.922 157.237 171.04 156.702 172.599C157.367 172.673 159.683 172.894 161.985 172.894C175.121 172.894 183.356 164.392 183.356 156.861C183.355 151.353 179.285 146.961 171.7 146.961ZM194.414 157.241C194.414 167.848 182.604 175.898 166.965 175.898C163.861 175.894 155.398 175.599 151.824 175.599C148.961 175.599 145.238 175.75 144.096 175.898C145.373 173.415 147.619 168.655 151.22 159.922C154.698 151.501 156.911 145.504 157.343 143.936C157.935 143.993 161.319 144.23 163.911 144.23C166.255 144.23 171.187 143.936 175.326 143.936C189.095 143.937 194.414 151.256 194.414 157.241ZM113.397 144.23C116.895 144.23 119.675 144.001 120.43 143.936C119.647 145.691 116.947 151.116 113.299 159.954C109.547 169.041 107.747 174.281 107.18 175.898C106.465 175.791 104.473 175.598 101.566 175.598C98.7693 175.598 96.3731 175.828 95.6835 175.898C96.6785 173.719 99.4348 167.998 102.818 159.954C104.15 156.791 105.15 154.056 106.121 151.352C104.018 153.447 95.8499 161.628 89.7343 167.679C86.0445 171.323 83.2069 174.314 82.1133 175.889C81.1161 175.525 78.9037 175.541 77.9731 175.893C77.8919 174.888 76.9809 171.63 75.0179 165.036C73.5848 160.231 71.3595 153.039 70.8177 151.271C70.0782 152.974 68.486 156.133 66.9431 159.95C63.0152 169.361 61.3127 174.13 60.8762 175.893C60.5496 175.804 59.4471 175.606 58.051 175.606C56.4302 175.606 55.8021 175.791 55.3848 175.889C56.3725 174.461 58.214 170.333 62.5217 159.921C66.2731 150.85 68.2529 145.478 68.6653 143.935C69.2367 144.037 71.2536 144.229 74.1596 144.229C76.7271 144.229 78.181 144.025 78.7042 143.935C78.7771 145.454 79.8303 148.924 81.5447 154.5C82.9004 158.913 84.5817 164.511 85.1946 166.501C86.4882 165.204 92.3674 159.362 97.1928 154.541C103.357 148.38 105.867 145.38 107.043 143.919C107.526 143.976 110.351 144.23 113.397 144.23ZM323.114 145.802C322.342 146.9 321.485 148.712 321.105 150.198C320.51 149.656 316.776 145.998 310.861 145.998C306.979 145.998 304.534 147.785 304.534 149.827C304.534 152.215 306.264 153.207 309.384 155.309C312.798 157.6 317.89 160.726 317.89 165.943C317.89 172.808 310.574 176.473 302.384 176.473C294.501 176.473 289.772 174.035 288.746 173.477C289.62 172.024 290.504 169.846 290.81 168.586C291.438 169.218 295.441 173.826 301.844 173.826C306.458 173.826 308.875 171.43 308.875 168.886C308.875 166.104 305.82 164.356 302.991 162.452C299.676 160.232 295.244 157.889 295.244 152.668C295.244 147.602 301.081 143.336 310.427 143.336C317.979 143.335 322.354 145.463 323.114 145.802Z" fill="black"/>
<path fill-rule="evenodd" clip-rule="evenodd" d="M389.376 186.361C390.552 185.655 424.635 167.67 424.614 147.265C424.605 135.823 413.74 122.408 380.234 111.758L386.543 128.32L389.376 186.361Z" fill="#2E3F79"/>
<path fill-rule="evenodd" clip-rule="evenodd" d="M386.336 127.788C379.514 124.368 371.33 121.574 361.863 120.215L389.378 186.363L406.961 143.92C402.995 138.802 396.044 132.658 386.336 127.788Z" fill="white"/>
<path fill-rule="evenodd" clip-rule="evenodd" d="M379.059 161.548L380.083 164.016C384.235 166.19 390.624 170.314 394.461 174.102L394.586 173.789C392.015 170.779 386.594 165.797 379.059 161.548ZM375.462 152.914L376.572 155.581C384.066 158.817 392.509 164.361 396.707 168.673L396.84 168.353C393.031 163.774 385.378 157.42 375.462 152.914ZM387.684 182.288L388.249 183.647C388.836 184.074 389.445 184.521 389.953 184.989L390.064 184.71C389.297 183.877 388.503 183.07 387.684 182.288ZM366.05 130.273L367.215 133.082C385.19 137.384 397.959 146.488 403.443 152.412L403.597 152.04C395.632 142.267 381.703 133.89 366.05 130.273ZM372.13 144.901L373.286 147.673C384.679 151.836 393.975 158.208 398.954 163.249L399.098 162.905C393.974 156.727 384.699 149.653 372.13 144.901ZM368.999 137.368L370.175 140.202C384.006 144.39 395.079 151.53 401.201 157.826L401.349 157.471C395.905 150.649 384.727 142.165 368.999 137.368ZM363.23 123.504L364.377 126.252C384.599 129.987 399.003 139.805 405.682 147.01L405.841 146.623C398.363 137.099 383.437 127.052 363.23 123.504ZM383.031 171.103L383.917 173.232C387.185 175.37 389.99 177.438 392.204 179.551L392.329 179.252C390.002 176.634 386.611 173.61 383.031 171.103Z" fill="#CAAB2E"/>
<path fill-rule="evenodd" clip-rule="evenodd" d="M397.973 165.629L397.831 165.961C394.151 162.092 385.051 155.567 374.901 151.567L373.767 148.835C385.324 153.665 393.426 160.237 397.973 165.629ZM380.98 166.183L381.949 168.509C386.656 171.291 390.472 174.069 393.334 176.822L393.457 176.519C390.092 172.785 385.997 169.346 380.98 166.183ZM377.22 157.14L378.295 159.719C384.53 162.687 391.998 167.742 395.586 171.386L395.714 171.065C392.88 167.569 385.679 161.302 377.22 157.14ZM367.498 133.764L368.679 136.605C384.667 140.921 396.301 148.88 402.322 155.118L402.47 154.755C396.758 147.57 384.397 138.233 367.498 133.764ZM364.623 126.848L365.782 129.636C382.23 132.975 397.183 141.748 404.563 149.705L404.721 149.332C397.64 140.405 383.682 130.77 364.623 126.848ZM370.541 141.083L371.709 143.887C383.847 147.819 394.563 154.804 400.078 160.536L400.226 160.185C394.671 153.542 384.417 145.684 370.541 141.083ZM385.234 176.399L386.001 178.246C387.899 179.621 389.634 180.905 391.079 182.268L391.198 181.98C390.439 181.123 387.799 178.374 385.234 176.399Z" fill="#CAAB2E"/>
<path fill-rule="evenodd" clip-rule="evenodd" d="M361.863 120.215L362.998 122.951C387.936 126.975 402.527 139.459 406.801 144.305L406.961 143.92C400.211 135.21 384.809 123.514 361.863 120.215Z" fill="#CAAB2E"/>
<path fill-rule="evenodd" clip-rule="evenodd" d="M340.369 188.786C339.39 188.757 333.715 188.596 331.504 188.596C330.718 190.324 329.257 193.484 328.597 195.158C330.961 195.236 336.722 194.994 337.893 194.908C337.645 195.466 337.263 196.578 337.124 197.312C335.349 197.045 328.837 197.045 327.809 197.017C327.218 198.449 325.323 203.225 324.609 205.269C325.268 205.318 327.077 205.466 328.919 205.466C331.645 205.466 333.508 205.338 334.235 205.277C333.929 205.962 333.562 207.083 333.447 207.669C332.243 207.624 326.155 207.493 322.543 207.497C320.12 207.497 317.502 207.669 317.019 207.69C317.787 205.983 320.191 200.743 321.734 197.017C323 193.915 325.029 188.326 325.784 186.361C326.839 186.434 328.435 186.545 330.103 186.545C333.966 186.557 339.354 186.434 341.31 186.377C341.024 186.898 340.574 188.038 340.369 188.786ZM226.689 186.553C227.841 186.557 229.609 186.401 230.189 186.348C229.516 187.772 227.722 191.494 225.465 197.012C223.4 201.998 221.963 206.073 221.395 207.669C221.093 207.636 219.709 207.476 218.097 207.476C216.349 207.476 215.092 207.603 214.635 207.669C215.414 205.95 217.235 202.104 219.33 197.025C221.318 192.195 222.897 187.772 223.423 186.348C223.897 186.418 225.546 186.553 226.689 186.553ZM285.631 186.553C286.782 186.557 288.552 186.401 289.129 186.348C288.458 187.772 286.659 191.494 284.405 197.012C282.336 201.998 280.902 206.073 280.335 207.669C280.033 207.636 278.646 207.472 277.038 207.472C275.286 207.472 274.032 207.603 273.574 207.669C274.354 205.95 276.174 202.104 278.268 197.025C280.252 192.195 281.837 187.772 282.364 186.348C282.838 186.418 284.484 186.553 285.631 186.553ZM266.088 186.549C267.137 186.549 269.092 186.398 269.544 186.361C268.489 188.687 266.575 192.811 264.806 197.009C263.924 199.237 262.022 204.091 261.626 205.269C262.03 205.277 264.043 205.449 265.877 205.449C267.834 205.449 270.456 205.277 270.92 205.265C270.66 205.781 270.247 207.008 270.135 207.669C268.782 207.608 264.381 207.468 260.843 207.472C257.798 207.476 255.2 207.607 253.951 207.669C255.446 204.563 257.147 200.673 258.666 197.009C260.282 193.106 262.168 187.874 262.728 186.361C263.224 186.413 265.025 186.549 266.088 186.549ZM204.788 199.778C204.849 197.985 204.792 193.599 204.723 191.654C203.551 192.7 198.134 198.132 196.827 199.778C198.203 199.934 203.49 199.934 204.788 199.778ZM194.913 201.764C194.003 202.606 190.675 206.303 189.536 207.669C189.278 207.608 188.421 207.476 187.646 207.476C186.862 207.476 185.919 207.607 185.555 207.669C186.556 206.886 192.161 201.267 196.353 196.943C200.551 192.63 205.987 186.848 206.445 186.344C206.841 186.426 207.821 186.537 208.421 186.537C209.147 186.537 210.143 186.389 210.352 186.344C210.355 187.538 210.213 192.138 210.327 197.053C210.461 202.346 210.772 206.778 210.944 207.668C210.549 207.619 209.365 207.475 207.621 207.475C206.303 207.475 205.192 207.582 204.534 207.668C204.645 205.9 204.808 202.925 204.746 201.768C202.375 201.583 196.84 201.583 194.913 201.764ZM361.852 187.275C361.361 187.722 360.664 188.83 360.34 189.606C359.595 189.13 357.184 187.484 353.768 187.484C351.157 187.484 349.034 188.502 349.034 190.496C349.034 192.31 350.752 193.069 352.763 194.423C354.997 195.926 358.103 198.001 358.103 201.03C358.103 205.908 352.312 208.239 347.179 208.239C341.93 208.239 338.738 206.68 338.044 206.372C338.732 205.609 339.482 204.44 339.852 203.466C340.554 203.971 343.118 206.306 347.465 206.306C349.979 206.306 352.441 205.239 352.441 202.937C352.441 201.029 350.282 199.847 348.416 198.686C345.943 197.143 343.383 195.883 343.383 192.403C343.383 189.01 347.421 185.785 353.62 185.785C358.528 185.786 361.194 187.02 361.852 187.275ZM305.062 193.878C306.892 197.37 308.463 200.615 309.262 201.966C311.644 196.562 314.452 188.142 314.975 186.361C315.271 186.431 315.958 186.554 316.541 186.554C317.55 186.554 318.114 186.427 318.453 186.353C317.554 188.208 315.285 193.272 313.88 197.022C311.92 201.761 310.605 206.037 310.014 207.67C309.695 207.609 308.633 207.477 307.417 207.477C306.217 207.477 305.4 207.617 305.107 207.67C304.628 206.591 302.55 202.319 300.73 198.799C298.804 195.073 297.696 192.832 296.949 191.601C295.004 196.189 292.129 203.493 290.93 207.666C290.593 207.576 290.263 207.477 289.574 207.477C288.917 207.477 287.977 207.617 287.694 207.666C288.443 205.943 290.741 200.674 292.258 196.944C294.37 191.757 295.665 187.543 296.086 186.361C296.367 186.41 298.009 186.538 298.624 186.538C299.416 186.538 301.131 186.398 301.43 186.344C301.939 187.571 302.926 189.807 305.062 193.878ZM240.336 196.258C240.611 196.27 240.965 196.278 241.231 196.278C245.669 196.278 248.453 194.173 248.453 190.862C248.453 189.492 247.335 188.375 245.661 188.375C244.819 188.375 243.97 188.514 243.656 188.568L240.336 196.258ZM239.813 197.55C238.213 201.185 236.446 206.151 235.956 207.669C234.853 207.534 233.743 207.468 232.632 207.472C231.013 207.472 229.641 207.619 229.249 207.669C230.53 205.199 232.536 200.669 234.315 196.299C235.772 192.725 237.56 187.801 238.034 186.352C238.504 186.41 239.809 186.553 241.271 186.553C242.337 186.553 244.199 186.36 246.158 186.36C252.266 186.36 254.199 188.641 254.199 190.985C254.199 194.062 251.726 196.93 245.855 197.402C247.291 200.924 248.951 204.351 250.823 207.661C250.159 207.591 249.219 207.488 246.823 207.488C245.165 207.488 244.525 207.607 244.026 207.668C243.04 204.907 241.313 200.746 239.813 197.55Z" fill="black"/>
<path fill-rule="evenodd" clip-rule="evenodd" d="M382.086 116.648L382.482 117.67C405.081 125.475 414.242 134.44 417.742 139.212L418.09 138.449C414.555 133.623 405.232 124.514 382.086 116.648Z" fill="white"/>
<path fill-rule="evenodd" clip-rule="evenodd" d="M415.806 138.439C415.607 138.688 415.172 139.202 414.117 140.259C413.434 140.942 412.75 141.624 412.064 142.304C411.957 141.965 411.672 141.006 411.442 140.251C411.149 139.296 410.964 138.703 410.952 138.438C410.868 138.459 410.613 138.492 410.178 138.492C409.68 138.492 409.333 138.459 409.238 138.441C409.164 138.703 408.83 139.626 408.186 141.177C407.448 142.962 407.131 143.676 406.961 143.92C407.028 143.9 407.139 143.868 407.416 143.868C407.655 143.868 407.848 143.905 407.9 143.92C407.977 143.615 408.266 142.794 408.943 141.181C409.205 140.527 409.478 139.989 409.605 139.695C409.694 139.997 410.075 141.23 410.32 142.055C410.658 143.181 410.814 143.753 410.83 143.924C410.988 143.867 411.363 143.854 411.536 143.919C411.725 143.647 412.211 143.128 412.847 142.504C413.887 141.471 415.288 140.071 415.647 139.708C415.479 140.174 415.309 140.641 415.083 141.18C414.501 142.561 414.031 143.544 413.858 143.919C413.977 143.908 414.39 143.867 414.868 143.867C415.365 143.867 415.703 143.9 415.832 143.919C415.924 143.643 416.235 142.737 416.874 141.18C417.5 139.671 417.961 138.739 418.097 138.438C417.97 138.45 417.492 138.491 416.893 138.491C416.53 138.491 416.167 138.473 415.806 138.439Z" fill="#CAAB2E"/>
</svg>
