<svg width="480" height="320" viewBox="0 0 480 320" fill="none" xmlns="http://www.w3.org/2000/svg">
<path d="M58.8519 156.617H58.3345C58.1722 158.278 57.9795 160.027 57.7564 161.865C57.5296 163.73 57.2861 165.593 57.0261 167.455C56.7636 169.335 56.4897 171.214 56.2043 173.092C55.9347 174.868 55.6609 176.643 55.3828 178.417C55.7074 178.375 56.0624 178.355 56.4479 178.355C56.8333 178.355 57.1883 178.375 57.5129 178.417C57.5129 177.586 57.5637 176.523 57.6651 175.225C57.7739 173.843 57.8956 172.463 58.0303 171.083C58.1746 169.597 58.3318 168.113 58.502 166.63C58.6743 165.124 58.8315 163.728 58.9737 162.441H59.0344C60.3496 165.133 61.6835 167.817 63.0359 170.491C64.3519 173.091 65.6251 175.713 66.855 178.355H67.1289C68.3461 175.531 69.6292 172.827 70.9783 170.242C72.3394 167.634 73.7139 165.034 75.1017 162.441H75.1624C75.4871 165.14 75.7609 167.787 75.984 170.382C76.2072 172.977 76.4304 175.656 76.6535 178.417C76.8897 178.376 77.1289 178.355 77.3687 178.355H78.7989C79.0386 178.355 79.2778 178.376 79.514 178.417C79.2689 176.681 79.0457 174.942 78.8445 173.201C78.6417 171.446 78.4388 169.671 78.2359 167.875C78.0298 166.049 77.832 164.222 77.6425 162.394C77.4424 160.467 77.2345 158.542 77.0187 156.617H76.6231C76.0768 157.645 75.5291 158.673 74.9798 159.7C74.3819 160.819 73.7885 161.94 73.1997 163.063C72.6097 164.189 72.0214 165.315 71.4348 166.443C70.8962 167.478 70.3536 168.511 69.8067 169.541C69.3576 170.386 68.9113 171.232 68.4678 172.08C68.1719 172.645 67.8778 173.21 67.5854 173.777C66.0674 170.933 64.5712 168.079 63.0969 165.212C61.6666 162.43 60.2517 159.565 58.8519 156.617ZM83.9568 165.088V170.444C83.9568 171.815 83.9314 173.164 83.8807 174.493C83.8308 175.801 83.775 177.109 83.7133 178.417C84.1799 178.375 84.677 178.355 85.2044 178.355C85.7319 178.355 86.2289 178.375 86.6956 178.417C86.6338 177.109 86.578 175.801 86.5281 174.493C86.477 173.144 86.4517 171.794 86.4521 170.444V165.088C86.4521 163.717 86.4774 162.373 86.5281 161.055C86.5789 159.736 86.6346 158.392 86.6956 157.022C86.4425 157.062 86.1889 157.098 85.9348 157.131C85.6926 157.162 85.4486 157.177 85.2044 157.177C84.9602 157.177 84.7163 157.162 84.4741 157.131C84.22 157.098 83.9663 157.062 83.7133 157.022C83.7742 158.392 83.83 159.736 83.8807 161.055C83.9314 162.373 83.9568 163.717 83.9568 165.088ZM107.632 165.088V166.178C106.536 166.198 105.476 166.22 104.452 166.24C103.392 166.261 102.332 166.272 101.272 166.272C100.176 166.272 99.1162 166.261 98.0915 166.24C97.0316 166.219 95.9716 166.198 94.9117 166.178V165.088C94.9117 163.717 94.937 162.373 94.9877 161.055C95.0385 159.736 95.0942 158.392 95.1551 157.022C94.9021 157.062 94.6485 157.098 94.3944 157.131C94.1522 157.162 93.9082 157.177 93.664 157.177C93.4198 157.177 93.1759 157.162 92.9337 157.131C92.6796 157.098 92.4259 157.062 92.1729 157.022C92.2338 158.392 92.2896 159.736 92.3403 161.055C92.3915 162.398 92.4169 163.743 92.4164 165.088V170.444C92.4164 171.815 92.391 173.164 92.3403 174.493C92.2905 175.801 92.2347 177.109 92.1729 178.417C92.6395 178.375 93.1366 178.355 93.664 178.355C94.1915 178.355 94.6885 178.375 95.1551 178.417C95.0933 177.109 95.0376 175.801 94.9877 174.493C94.9366 173.144 94.9113 171.794 94.9117 170.444V167.642C95.9716 167.621 97.0316 167.606 98.0916 167.595C99.1516 167.584 100.212 167.579 101.272 167.579C102.367 167.579 103.427 167.584 104.452 167.595C105.512 167.606 106.572 167.621 107.631 167.642V170.444C107.631 171.815 107.606 173.164 107.555 174.493C107.506 175.801 107.45 177.109 107.388 178.417C107.854 178.375 108.352 178.355 108.879 178.355C109.407 178.355 109.904 178.375 110.37 178.417C110.309 177.109 110.253 175.801 110.203 174.493C110.152 173.144 110.126 171.794 110.127 170.444V165.088C110.127 163.717 110.152 162.373 110.203 161.055C110.253 159.736 110.31 158.392 110.37 157.022C110.117 157.062 109.863 157.098 109.609 157.131C109.367 157.162 109.123 157.177 108.879 157.177C108.635 157.178 108.391 157.162 108.149 157.131C107.895 157.098 107.641 157.062 107.388 157.022C107.449 158.392 107.505 159.736 107.555 161.055C107.607 162.398 107.632 163.743 107.631 165.088H107.632ZM116.091 165.088V170.444C116.091 171.815 116.066 173.164 116.015 174.493C115.965 175.801 115.909 177.109 115.848 178.417C116.314 178.375 116.811 178.355 117.339 178.355C117.866 178.355 118.363 178.375 118.83 178.417C118.768 177.109 118.712 175.801 118.662 174.493C118.611 173.144 118.586 171.794 118.586 170.444V165.088C118.586 163.717 118.612 162.373 118.663 161.055C118.713 159.736 118.769 158.392 118.83 157.022C118.566 157.064 118.313 157.1 118.069 157.131C117.584 157.193 117.093 157.193 116.608 157.131C116.354 157.098 116.101 157.062 115.848 157.022C115.908 158.392 115.964 159.736 116.015 161.055C116.066 162.373 116.091 163.717 116.091 165.088ZM141.683 178.822H142.109V177.794C142.109 177.296 142.104 176.71 142.094 176.035C142.083 175.308 142.073 174.581 142.063 173.854C142.053 173.076 142.043 172.303 142.033 171.535C142.023 170.797 142.018 170.06 142.018 169.323V167.455C142.018 166.853 142.038 166.053 142.078 165.057C142.119 164.06 142.165 163.043 142.215 162.004C142.266 160.967 142.317 159.991 142.368 159.077C142.418 158.164 142.464 157.478 142.504 157.022C142.098 157.126 141.774 157.177 141.531 157.177C141.246 157.177 140.902 157.126 140.496 157.022C140.597 158.849 140.664 160.796 140.694 162.861C140.725 164.984 140.74 167.107 140.74 169.23V173.465C139.806 172.511 138.716 171.353 137.469 169.993C136.147 168.552 134.828 167.109 133.512 165.664C132.108 164.121 130.708 162.575 129.313 161.024C127.991 159.553 126.667 158.084 125.342 156.617H124.855C124.896 157.323 124.921 158.392 124.931 159.825C124.941 161.258 124.946 162.97 124.946 164.963C124.946 165.648 124.936 166.427 124.916 167.299C124.895 168.192 124.87 169.085 124.84 169.977C124.809 170.891 124.769 171.805 124.718 172.718C124.667 173.632 124.622 174.478 124.581 175.256C124.54 176.035 124.495 176.704 124.444 177.265C124.393 177.825 124.348 178.21 124.307 178.417C124.652 178.375 125.027 178.355 125.433 178.355C125.818 178.355 126.174 178.375 126.498 178.417C126.478 178.251 126.457 177.935 126.437 177.467C126.414 176.922 126.394 176.377 126.377 175.832C126.354 175.158 126.334 174.483 126.316 173.808C126.295 173.092 126.28 172.375 126.27 171.659C126.26 170.953 126.25 170.278 126.24 169.635C126.23 168.991 126.224 168.451 126.224 168.015C126.224 166.333 126.234 165.005 126.254 164.029C126.275 163.053 126.295 162.275 126.316 161.693C128.961 164.567 131.598 167.448 134.227 170.336C136.865 173.232 139.35 176.061 141.683 178.822ZM156.685 165.088V170.444C156.685 171.815 156.66 173.164 156.609 174.493C156.559 175.801 156.503 177.109 156.441 178.417C157.379 178.376 158.318 178.355 159.256 178.355H164.871C165.804 178.355 166.738 178.375 167.67 178.417C167.569 178.085 167.518 177.805 167.518 177.577C167.518 177.327 167.569 177.016 167.67 176.642C166.149 176.85 164.728 176.969 163.41 177C162.092 177.031 160.712 177.047 159.271 177.047C159.249 175.329 159.229 173.611 159.211 171.893C159.19 169.972 159.18 167.704 159.18 165.088C159.18 163.717 159.206 162.373 159.256 161.055C159.307 159.736 159.363 158.392 159.423 157.022C159.16 157.064 158.907 157.1 158.663 157.131C158.178 157.193 157.687 157.193 157.202 157.131C156.948 157.098 156.694 157.062 156.441 157.022C156.502 158.392 156.558 159.736 156.609 161.055C156.66 162.373 156.685 163.717 156.685 165.088ZM175.217 168.731C175.744 168.731 176.292 168.742 176.86 168.763C177.407 168.783 177.955 168.793 178.503 168.794C179.64 168.794 180.776 168.773 181.912 168.731L178.534 160.821L175.217 168.731ZM188.698 178.417C188.413 178.375 188.145 178.355 187.891 178.355H186.279C186.025 178.355 185.756 178.375 185.472 178.417C185.33 177.939 185.137 177.363 184.894 176.689C184.637 175.978 184.368 175.272 184.087 174.571C183.789 173.823 183.49 173.076 183.19 172.329C182.901 171.609 182.617 170.888 182.338 170.164C181.678 170.143 181.019 170.128 180.359 170.117C179.69 170.107 179.02 170.102 178.351 170.102C177.723 170.102 177.104 170.107 176.495 170.117C175.886 170.128 175.267 170.143 174.638 170.164C173.99 171.784 173.401 173.325 172.874 174.789C172.346 176.252 171.951 177.462 171.687 178.417C171.342 178.375 170.967 178.355 170.561 178.355C170.155 178.355 169.78 178.375 169.435 178.417C171.064 174.816 172.667 171.203 174.243 167.579C175.829 163.931 177.402 160.277 178.96 156.617H179.538C180.025 157.821 180.552 159.124 181.121 160.525C181.695 161.944 182.273 163.361 182.855 164.776C183.444 166.209 184.032 167.631 184.62 169.043C185.168 170.358 185.72 171.672 186.279 172.983C186.741 174.069 187.207 175.154 187.678 176.237C188.094 177.192 188.434 177.919 188.698 178.417ZM209.329 178.822H209.755V177.794C209.755 177.296 209.75 176.71 209.74 176.035C209.729 175.308 209.719 174.581 209.71 173.854C209.699 173.076 209.689 172.303 209.679 171.535C209.669 170.797 209.664 170.06 209.664 169.323V167.455C209.664 166.853 209.684 166.053 209.724 165.057C209.766 164.039 209.812 163.022 209.862 162.004C209.913 160.967 209.963 159.991 210.014 159.077C210.064 158.164 210.11 157.478 210.151 157.022C209.745 157.126 209.421 157.177 209.177 157.177C208.893 157.177 208.548 157.126 208.143 157.022C208.244 158.849 208.31 160.796 208.34 162.861C208.37 164.927 208.386 167.05 208.386 169.23V173.465C207.453 172.511 206.363 171.353 205.115 169.993C203.793 168.552 202.474 167.109 201.158 165.664C199.754 164.121 198.354 162.575 196.959 161.024C195.637 159.553 194.314 158.084 192.988 156.617H192.501C192.542 157.323 192.567 158.392 192.577 159.825C192.588 161.258 192.592 162.97 192.592 164.963C192.592 165.648 192.582 166.427 192.562 167.299C192.541 168.192 192.516 169.085 192.486 169.977C192.456 170.891 192.415 171.804 192.364 172.718C192.313 173.632 192.268 174.478 192.227 175.256C192.187 176.035 192.141 176.704 192.09 177.265C192.04 177.825 191.994 178.21 191.953 178.417C192.299 178.375 192.674 178.355 193.079 178.355C193.465 178.355 193.82 178.375 194.144 178.417C194.124 178.251 194.104 177.935 194.083 177.467C194.061 176.922 194.04 176.377 194.023 175.832C194.001 175.158 193.981 174.483 193.962 173.808C193.942 173.092 193.927 172.375 193.916 171.659C193.906 170.953 193.896 170.278 193.886 169.635C193.876 168.991 193.87 168.451 193.87 168.015C193.87 166.333 193.881 165.005 193.901 164.029C193.921 163.053 193.942 162.275 193.962 161.693C196.607 164.567 199.244 167.448 201.874 170.336C204.511 173.232 206.996 176.061 209.329 178.822ZM215.628 178.417C216.095 178.375 216.592 178.355 217.119 178.355C217.647 178.355 218.144 178.375 218.61 178.417C218.549 177.109 218.493 175.801 218.443 174.493C218.392 173.144 218.367 171.794 218.367 170.444V167.735C218.367 167.61 218.418 167.548 218.519 167.548C218.6 167.548 218.722 167.631 218.884 167.797C219.209 168.13 219.711 168.705 220.39 169.526C221.154 170.447 221.915 171.371 222.673 172.298C223.54 173.357 224.403 174.421 225.259 175.49C226.142 176.59 226.948 177.566 227.678 178.417C227.956 178.376 228.235 178.355 228.516 178.355H230.265C230.57 178.355 230.874 178.375 231.178 178.417C229.467 176.46 227.768 174.493 226.081 172.516C224.432 170.582 222.773 168.656 221.106 166.738C221.654 166.095 222.338 165.342 223.159 164.481C224.009 163.591 224.871 162.713 225.746 161.849C226.636 160.969 227.534 160.097 228.44 159.233C229.332 158.382 230.134 157.645 230.843 157.022C230.6 157.064 230.357 157.1 230.113 157.131C229.871 157.162 229.627 157.178 229.383 157.177C229.179 157.177 228.975 157.162 228.774 157.131C228.561 157.098 228.348 157.062 228.135 157.022C227.399 157.882 226.659 158.739 225.914 159.591C225.146 160.47 224.365 161.337 223.571 162.192C222.797 163.024 222.011 163.844 221.212 164.652C220.431 165.441 219.685 166.146 218.975 166.769C218.773 166.957 218.631 167.05 218.549 167.05C218.428 167.05 218.367 166.967 218.367 166.801V165.088C218.367 163.717 218.393 162.373 218.443 161.055C218.494 159.736 218.549 158.392 218.61 157.022C218.357 157.062 218.104 157.098 217.85 157.131C217.607 157.162 217.364 157.177 217.119 157.177C216.876 157.177 216.633 157.162 216.389 157.131C216.135 157.098 215.881 157.062 215.628 157.022C215.689 158.392 215.745 159.736 215.796 161.055C215.846 162.373 215.871 163.717 215.871 165.088V170.444C215.871 171.815 215.846 173.164 215.796 174.493C215.746 175.801 215.69 177.109 215.628 178.417H215.628ZM237.782 168.731C238.309 168.731 238.857 168.742 239.425 168.763C239.972 168.783 240.52 168.793 241.068 168.794C242.204 168.794 243.34 168.773 244.476 168.731L241.098 160.821L237.782 168.731ZM251.262 178.417C250.978 178.375 250.709 178.355 250.456 178.355H248.843C248.589 178.355 248.321 178.375 248.036 178.417C247.895 177.939 247.702 177.363 247.458 176.689C247.201 175.978 246.932 175.272 246.652 174.571C246.358 173.834 246.058 173.086 245.754 172.329C245.465 171.609 245.181 170.888 244.902 170.164C244.243 170.143 243.584 170.128 242.924 170.117C242.255 170.107 241.585 170.102 240.916 170.102C240.287 170.102 239.668 170.107 239.059 170.117C238.451 170.128 237.832 170.143 237.203 170.164C236.554 171.784 235.966 173.325 235.439 174.789C234.911 176.252 234.515 177.462 234.251 178.417C233.907 178.375 233.532 178.355 233.126 178.355C232.72 178.355 232.344 178.375 232 178.417C233.629 174.816 235.231 171.203 236.808 167.579C238.394 163.931 239.966 160.277 241.525 156.617H242.102C242.59 157.821 243.117 159.124 243.685 160.525C244.253 161.927 244.831 163.344 245.419 164.776C246.004 166.2 246.592 167.622 247.184 169.043C247.732 170.358 248.285 171.672 248.843 172.983C249.305 174.069 249.772 175.154 250.243 176.237C250.658 177.192 250.998 177.919 251.262 178.417H251.262Z" fill="#005DAB"/>
<path d="M166.179 190.813C166.179 191.96 166.172 193.058 166.158 194.106C166.145 195.154 166.097 196.046 166.014 196.782C166.33 196.754 166.667 196.74 167.025 196.74C167.382 196.74 167.718 196.754 168.035 196.782C168.008 196.485 167.983 196.092 167.963 195.603C167.941 195.072 167.924 194.541 167.911 194.01C167.897 193.426 167.887 192.842 167.88 192.258C167.873 191.698 167.87 191.139 167.87 190.58C168.09 190.141 168.351 189.649 168.654 189.103C168.956 188.558 169.307 187.946 169.705 187.266C170.104 186.586 170.564 185.829 171.087 184.993C171.674 184.056 172.265 183.121 172.861 182.19C172.517 182.26 172.249 182.296 172.056 182.296C171.863 182.296 171.596 182.26 171.252 182.19C170.966 182.821 170.671 183.448 170.365 184.069C170.049 184.714 169.719 185.354 169.375 185.992C169.032 186.629 168.688 187.252 168.344 187.861C168.001 188.47 167.671 189.029 167.354 189.539C166.669 188.304 165.992 187.065 165.323 185.822C164.677 184.62 164.048 183.409 163.436 182.19C163.247 182.217 163.058 182.242 162.869 182.264C162.681 182.285 162.492 182.296 162.302 182.296C162.11 182.296 161.921 182.285 161.735 182.264C161.546 182.242 161.357 182.217 161.168 182.19C161.306 182.416 161.505 182.752 161.766 183.198C162.027 183.644 162.319 184.147 162.642 184.707C162.965 185.266 163.306 185.854 163.663 186.47C164.021 187.086 164.361 187.673 164.684 188.233C165.007 188.792 165.302 189.302 165.571 189.762C165.839 190.222 166.042 190.573 166.179 190.813H166.179ZM175.85 191.769C175.85 191.174 175.902 190.601 176.005 190.049C176.108 189.496 176.283 189.004 176.531 188.572C176.778 188.14 177.108 187.797 177.521 187.542C177.933 187.287 178.442 187.16 179.047 187.16C179.652 187.16 180.16 187.287 180.573 187.542C180.985 187.797 181.315 188.14 181.563 188.572C181.81 189.004 181.985 189.496 182.089 190.049C182.192 190.601 182.243 191.174 182.243 191.769C182.243 192.364 182.192 192.937 182.089 193.49C181.985 194.042 181.81 194.534 181.563 194.966C181.315 195.398 180.985 195.741 180.573 195.996C180.16 196.251 179.652 196.378 179.047 196.378C178.442 196.378 177.933 196.251 177.521 195.996C177.108 195.741 176.778 195.398 176.531 194.966C176.283 194.534 176.108 194.042 176.005 193.49C175.902 192.937 175.85 192.364 175.85 191.769H175.85ZM174.036 191.769C174.036 192.732 174.183 193.55 174.479 194.223C174.775 194.895 175.163 195.44 175.644 195.858C176.125 196.276 176.665 196.57 177.263 196.74C177.861 196.909 178.456 196.994 179.047 196.994C179.652 196.994 180.25 196.909 180.841 196.74C181.432 196.57 181.968 196.276 182.449 195.858C182.931 195.44 183.319 194.895 183.614 194.223C183.91 193.55 184.058 192.732 184.058 191.769C184.058 190.806 183.91 189.988 183.614 189.316C183.319 188.643 182.931 188.098 182.449 187.68C181.968 187.263 181.432 186.958 180.841 186.767C180.25 186.576 179.652 186.48 179.047 186.48C178.456 186.48 177.861 186.576 177.263 186.767C176.665 186.958 176.125 187.263 175.644 187.68C175.163 188.098 174.775 188.643 174.479 189.316C174.183 189.988 174.036 190.806 174.036 191.769H174.036ZM186.347 193.575C186.347 194.679 186.652 195.525 187.264 196.113C187.876 196.701 188.718 196.995 189.791 196.995C190.451 196.995 191.062 196.835 191.626 196.517C192.19 196.198 192.65 195.699 193.008 195.019H193.049V195.932C193.049 196.081 193.046 196.23 193.038 196.378C193.032 196.513 193.022 196.648 193.008 196.782C193.275 196.754 193.543 196.74 193.812 196.74C194.081 196.74 194.349 196.754 194.616 196.782C194.588 196.195 194.567 195.607 194.554 195.019C194.54 194.396 194.533 193.773 194.533 193.15C194.533 192.003 194.541 190.916 194.554 189.889C194.568 188.863 194.609 187.797 194.678 186.693C194.541 186.721 194.404 186.746 194.266 186.767C194.122 186.789 193.978 186.799 193.833 186.799C193.688 186.799 193.543 186.789 193.399 186.767C193.255 186.744 193.11 186.72 192.966 186.693C192.98 186.948 192.991 187.216 192.997 187.5C193.004 187.783 193.008 188.08 193.008 188.392V190.176C193.008 191.012 193.004 191.67 192.997 192.152C192.991 192.633 192.97 193.015 192.936 193.299C192.901 193.582 192.857 193.808 192.801 193.978C192.746 194.148 192.671 194.354 192.575 194.594C192.396 194.977 192.114 195.299 191.729 195.561C191.344 195.823 190.863 195.954 190.285 195.954C189.887 195.954 189.539 195.879 189.244 195.731C188.949 195.582 188.705 195.394 188.512 195.168C188.333 194.969 188.182 194.676 188.059 194.286C187.935 193.897 187.873 193.334 187.873 192.598C187.873 191.536 187.89 190.498 187.925 189.486C187.959 188.473 188.01 187.542 188.079 186.693C187.735 186.763 187.454 186.799 187.234 186.799C187 186.799 186.711 186.763 186.367 186.693C186.381 187.287 186.392 187.875 186.398 188.456C186.405 189.036 186.409 189.574 186.409 190.07C186.409 190.594 186.398 191.121 186.377 191.652C186.357 192.183 186.347 192.824 186.347 193.575ZM202.535 188.434L202.679 188.328C202.679 188.045 202.686 187.73 202.7 187.383C202.714 187.036 202.755 186.778 202.823 186.608C202.686 186.551 202.573 186.516 202.483 186.501C202.394 186.487 202.287 186.48 202.164 186.48C201.16 186.48 200.253 187.245 199.441 188.774L199.4 188.753C199.4 188.484 199.404 188.201 199.411 187.903C199.418 187.606 199.448 187.202 199.503 186.693C199.359 186.72 199.215 186.744 199.07 186.767C198.941 186.788 198.81 186.798 198.678 186.799C198.533 186.799 198.389 186.789 198.245 186.767C198.101 186.744 197.956 186.72 197.812 186.693C197.854 187.627 197.878 188.456 197.885 189.178C197.891 189.9 197.895 190.537 197.895 191.089V191.769C197.895 192.973 197.891 193.989 197.885 194.817C197.878 195.646 197.854 196.301 197.812 196.782C198.1 196.753 198.389 196.739 198.678 196.74C198.953 196.74 199.228 196.754 199.503 196.782C199.462 196.47 199.438 196.063 199.431 195.561C199.424 195.058 199.421 194.332 199.421 193.384V191.047C199.421 190.636 199.469 190.25 199.565 189.889C199.661 189.528 199.799 189.217 199.978 188.955C200.156 188.693 200.377 188.484 200.637 188.328C200.899 188.172 201.194 188.095 201.524 188.095C201.731 188.095 201.933 188.13 202.132 188.201C202.332 188.271 202.466 188.349 202.535 188.434H202.535ZM204.576 194.807H204.329C204.329 195.019 204.284 195.285 204.195 195.603C204.106 195.922 204.019 196.173 203.937 196.357C204.226 196.527 204.583 196.676 205.009 196.803C205.435 196.931 205.965 196.994 206.597 196.994C207.175 196.994 207.69 196.906 208.144 196.729C208.597 196.552 208.986 196.304 209.309 195.985C209.632 195.667 209.879 195.309 210.051 194.913C210.223 194.516 210.309 194.113 210.309 193.702C210.309 193.107 210.189 192.64 209.948 192.3C209.708 191.96 209.409 191.695 209.051 191.504C208.694 191.313 208.302 191.164 207.876 191.058C207.45 190.951 207.058 190.827 206.7 190.686C206.343 190.544 206.044 190.35 205.803 190.102C205.563 189.854 205.443 189.503 205.443 189.05C205.443 188.739 205.497 188.47 205.607 188.243C205.718 188.017 205.855 187.833 206.02 187.691C206.183 187.55 206.372 187.442 206.577 187.372C206.783 187.302 206.989 187.266 207.196 187.266C207.663 187.266 208.055 187.401 208.371 187.67C208.687 187.939 208.9 188.243 209.01 188.583H209.258C209.285 188.413 209.347 188.172 209.443 187.861C209.539 187.549 209.642 187.287 209.752 187.075C209.416 186.954 209.083 186.827 208.752 186.693C208.402 186.551 207.972 186.48 207.463 186.48C206.913 186.48 206.425 186.562 205.999 186.724C205.573 186.887 205.215 187.11 204.927 187.394C204.638 187.677 204.418 188.013 204.267 188.402C204.116 188.792 204.04 189.22 204.04 189.688C204.04 190.282 204.16 190.75 204.401 191.089C204.642 191.429 204.94 191.702 205.298 191.907C205.655 192.113 206.047 192.272 206.473 192.385C206.9 192.498 207.292 192.629 207.649 192.778C208.006 192.927 208.305 193.118 208.546 193.352C208.787 193.585 208.907 193.922 208.907 194.361C208.907 194.672 208.852 194.948 208.742 195.189C208.632 195.43 208.484 195.628 208.298 195.784C208.113 195.94 207.9 196.06 207.659 196.145C207.417 196.23 207.163 196.273 206.906 196.272C206.618 196.272 206.346 196.223 206.092 196.124C205.838 196.024 205.611 195.901 205.411 195.752C205.212 195.603 205.04 195.444 204.896 195.274C204.752 195.104 204.645 194.948 204.576 194.807ZM220.207 183.846L218.496 184.59C218.523 185.043 218.541 185.482 218.548 185.907C218.554 186.331 218.565 186.686 218.578 186.969C218.29 186.969 217.836 186.948 217.217 186.905C217.231 186.975 217.241 187.046 217.248 187.117C217.255 187.188 217.258 187.259 217.258 187.33C217.258 187.415 217.255 187.496 217.248 187.574C217.241 187.656 217.231 187.737 217.217 187.818C217.347 187.805 217.478 187.794 217.609 187.786C217.726 187.78 217.843 187.776 217.96 187.776H218.62C218.621 189.083 218.597 190.389 218.548 191.695C218.529 192.183 218.511 192.672 218.496 193.16C218.482 193.607 218.475 194.021 218.475 194.403C218.475 195.253 218.682 195.897 219.094 196.336C219.506 196.775 220.145 196.995 221.012 196.995C221.273 196.995 221.544 196.963 221.826 196.899C222.108 196.835 222.366 196.782 222.599 196.74V196.23C222.462 196.272 222.301 196.308 222.115 196.336C221.929 196.364 221.782 196.378 221.672 196.378C221.259 196.378 220.943 196.286 220.723 196.102C220.503 195.918 220.338 195.674 220.228 195.37C220.118 195.065 220.053 194.722 220.032 194.339C220.011 193.95 220.001 193.561 220.001 193.171C220.001 192.704 220.004 192.173 220.012 191.578C220.019 190.983 220.029 190.413 220.042 189.868C220.056 189.323 220.073 188.852 220.094 188.456C220.115 188.059 220.132 187.833 220.145 187.776H221.156C221.376 187.776 221.582 187.779 221.774 187.786C221.967 187.794 222.153 187.804 222.331 187.818C222.318 187.776 222.311 187.705 222.311 187.606V187.16C222.311 187.047 222.318 186.969 222.331 186.926C221.885 186.953 221.438 186.971 220.991 186.979C220.579 186.986 220.297 186.99 220.145 186.99C220.173 186.466 220.197 185.946 220.218 185.429C220.238 184.912 220.269 184.384 220.311 183.846H220.207ZM225.136 191.769C225.136 191.174 225.188 190.601 225.29 190.049C225.394 189.496 225.569 189.004 225.816 188.572C226.064 188.14 226.394 187.797 226.806 187.542C227.219 187.287 227.727 187.16 228.332 187.16C228.937 187.16 229.446 187.287 229.858 187.542C230.271 187.797 230.601 188.14 230.848 188.572C231.096 189.004 231.271 189.496 231.374 190.049C231.477 190.601 231.529 191.174 231.529 191.769C231.529 192.364 231.477 192.937 231.374 193.49C231.271 194.042 231.096 194.534 230.848 194.966C230.601 195.398 230.271 195.741 229.858 195.996C229.446 196.251 228.937 196.378 228.332 196.378C227.727 196.378 227.219 196.251 226.806 195.996C226.394 195.741 226.064 195.398 225.816 194.966C225.569 194.534 225.394 194.042 225.29 193.49C225.188 192.937 225.136 192.364 225.136 191.769H225.136ZM223.322 191.769C223.322 192.732 223.469 193.55 223.765 194.223C224.06 194.895 224.448 195.44 224.93 195.858C225.411 196.276 225.951 196.57 226.548 196.74C227.147 196.909 227.741 196.994 228.332 196.994C228.937 196.994 229.535 196.909 230.126 196.74C230.718 196.57 231.254 196.276 231.735 195.858C232.216 195.44 232.604 194.895 232.9 194.223C233.196 193.55 233.343 192.732 233.343 191.769C233.343 190.806 233.196 189.988 232.9 189.316C232.604 188.643 232.216 188.098 231.735 187.68C231.254 187.263 230.718 186.958 230.126 186.767C229.535 186.576 228.937 186.48 228.332 186.48C227.741 186.48 227.147 186.576 226.548 186.767C225.951 186.958 225.411 187.263 224.93 187.68C224.448 188.098 224.06 188.643 223.765 189.316C223.469 189.988 223.322 190.806 223.322 191.769H223.322ZM245.985 182.529L246.108 182.466C246.108 182.182 246.118 181.899 246.139 181.616C246.16 181.333 246.177 181.05 246.19 180.766C246.067 180.724 245.93 180.703 245.778 180.703C245.38 180.703 244.991 180.802 244.613 181C244.235 181.198 243.922 181.425 243.675 181.68C243.4 181.963 243.152 182.313 242.932 182.731C242.712 183.149 242.523 183.591 242.365 184.059C242.208 184.523 242.087 184.999 242.004 185.482C241.922 185.963 241.881 186.409 241.881 186.82C241.647 186.82 241.403 186.817 241.149 186.809C240.898 186.802 240.647 186.799 240.396 186.799C240.41 186.869 240.42 186.94 240.427 187.011C240.434 187.082 240.437 187.153 240.437 187.224C240.437 187.295 240.434 187.365 240.427 187.436C240.42 187.507 240.41 187.578 240.396 187.648L241.138 187.606C241.385 187.592 241.633 187.585 241.881 187.585C241.881 189.157 241.874 190.696 241.86 192.205C241.845 193.732 241.79 195.258 241.695 196.782C242.011 196.754 242.314 196.74 242.602 196.74H243.036C243.187 196.74 243.338 196.754 243.489 196.782C243.448 195.249 243.424 193.716 243.417 192.183C243.41 190.661 243.407 189.128 243.407 187.585C243.764 187.585 244.118 187.592 244.469 187.606C244.819 187.62 245.173 187.634 245.531 187.648C245.517 187.578 245.507 187.507 245.499 187.436C245.493 187.365 245.49 187.295 245.489 187.224C245.49 187.153 245.493 187.082 245.499 187.011C245.507 186.94 245.517 186.869 245.531 186.799C245.173 186.799 244.819 186.802 244.469 186.809C244.115 186.817 243.761 186.82 243.407 186.82C243.335 186.362 243.277 185.901 243.231 185.439C243.183 184.958 243.159 184.59 243.159 184.335C243.159 184.052 243.19 183.783 243.252 183.528C243.314 183.273 243.414 183.05 243.551 182.859C243.689 182.667 243.864 182.512 244.077 182.391C244.29 182.271 244.548 182.211 244.85 182.211C245.276 182.211 245.655 182.317 245.985 182.529ZM248.005 186.884V190.728C248.005 191.21 248.002 191.734 247.995 192.3C247.988 192.86 247.978 193.419 247.964 193.978C247.951 194.502 247.934 195.026 247.913 195.55C247.892 196.046 247.868 196.456 247.84 196.782C248.149 196.754 248.458 196.74 248.768 196.74C249.071 196.74 249.38 196.754 249.696 196.782C249.669 196.456 249.644 196.046 249.624 195.55C249.602 195.026 249.585 194.502 249.572 193.978C249.559 193.419 249.548 192.86 249.542 192.3C249.535 191.776 249.531 191.252 249.531 190.728V186.884C249.531 186.402 249.535 185.878 249.542 185.312C249.548 184.746 249.559 184.186 249.572 183.634C249.586 183.082 249.603 182.554 249.624 182.051C249.644 181.549 249.669 181.12 249.696 180.766C249.311 180.837 249.002 180.872 248.768 180.872C248.535 180.872 248.225 180.837 247.84 180.766C247.868 181.12 247.892 181.549 247.913 182.051C247.933 182.554 247.95 183.082 247.964 183.634C247.978 184.186 247.988 184.746 247.995 185.312C248.002 185.878 248.005 186.402 248.005 186.884ZM255.841 196.803C255.085 198.658 254.164 200.513 253.078 202.368C253.353 202.298 253.587 202.262 253.779 202.262C253.972 202.262 254.205 202.298 254.48 202.368C254.591 202.014 254.759 201.536 254.985 200.935C255.212 200.333 255.477 199.66 255.78 198.917C256.082 198.173 256.412 197.387 256.77 196.559C257.127 195.731 257.488 194.895 257.852 194.053C258.208 193.23 258.565 192.409 258.924 191.589C259.275 190.789 259.598 190.059 259.894 189.401L260.657 187.701C260.87 187.227 261.024 186.891 261.121 186.693C260.845 186.763 260.619 186.799 260.44 186.799C260.261 186.799 260.034 186.763 259.759 186.693C259.347 188.052 258.876 189.44 258.347 190.856C257.817 192.272 257.264 193.603 256.687 194.849C256.128 193.479 255.578 192.106 255.037 190.728C254.516 189.4 254.041 188.054 253.614 186.693C253.435 186.721 253.271 186.746 253.119 186.767C252.818 186.809 252.513 186.809 252.212 186.767C252.047 186.744 251.882 186.719 251.717 186.693C251.813 186.919 251.958 187.266 252.15 187.733C252.343 188.201 252.566 188.742 252.821 189.358C253.075 189.974 253.346 190.633 253.635 191.334C253.924 192.035 254.205 192.722 254.48 193.394C254.755 194.067 255.013 194.708 255.254 195.316C255.495 195.925 255.69 196.421 255.841 196.803V196.803Z" fill="black"/>
<path fill-rule="evenodd" clip-rule="evenodd" d="M265.055 202.369C329.499 202.717 388.554 202.369 388.554 202.369L424.614 117.477C424.614 117.477 423.622 117.635 393.813 117.477C389.011 117.451 387.188 118.89 384.047 121.233C369.335 133.712 326.401 171.589 305.541 188.47C291.517 198.375 286.63 199.223 265.055 202.369H265.055Z" fill="#005DAB"/>
<path fill-rule="evenodd" clip-rule="evenodd" d="M391.406 150.985C380.541 156.464 376.534 160.714 372.332 167.843C371.612 166.506 370.787 165.179 369.739 163.875C366.468 159.802 361.646 155.837 355.385 151.797C354.18 151.06 353.622 151.591 353.574 152.803C353.772 163.664 356.623 170.33 360.591 174.83C363.694 178.348 367.4 180.719 371.415 180.79C369.289 187.208 363.36 194.217 351.609 202.366H355.801C367.612 193.703 371.912 188.111 373.951 180.621C374.224 180.581 374.499 180.563 374.771 180.509C384.979 178.483 394.362 167.036 393.105 151.934C392.97 150.728 392.333 150.559 391.406 150.985ZM390.838 153.941C391.136 166.995 382.79 176.462 374.409 178.184C374.476 177.649 374.6 177.112 374.614 176.578C374.669 174.492 374.282 172.444 373.54 170.43C377.757 162.964 380.867 159.186 390.838 153.941ZM356.032 155.078C361.185 158.574 365.215 161.989 367.908 165.342C370.938 169.116 372.367 172.765 372.267 176.515C372.25 177.151 372.121 177.804 372.011 178.454C368.419 178.57 365.285 176.512 362.435 173.28C359.245 169.662 356.534 164.257 356.032 155.078V155.078Z" fill="white"/>
<path fill-rule="evenodd" clip-rule="evenodd" d="M371.59 146.303C369.362 148.443 368.036 150.111 367.173 152.296C366.309 154.482 365.901 157.065 365.234 161.239L367.553 161.608C368.219 157.438 368.637 154.978 369.356 153.159C369.952 151.65 370.908 150.422 372.379 148.905C375.799 152.675 376.635 154.634 377.627 161.589L379.951 161.258C378.854 153.561 377.633 150.983 373.257 146.344C372.53 145.551 372.096 145.839 371.59 146.303H371.59Z" fill="white"/>
<path fill-rule="evenodd" clip-rule="evenodd" d="M363.715 151.846C362.301 150.734 362.177 151.505 361.889 152.44L360.387 157.323L362.63 158.014L363.642 154.726L366.814 157.105L368.223 155.227L363.715 151.846ZM381.059 151.869L377.302 154.874L378.77 156.707L381.308 154.676L382.587 157.744L384.754 156.841L382.876 152.334C382.349 151.095 381.678 151.404 381.059 151.869V151.869Z" fill="white"/>
</svg>
