<svg width="480" height="320" viewBox="0 0 480 320" fill="none" xmlns="http://www.w3.org/2000/svg">
<path d="M131.826 161.193C131.997 161.023 132.252 160.938 132.506 160.853C133.782 160.088 134.717 159.067 135.312 157.622C135.992 156.261 135.992 155.326 135.482 154.56C134.971 153.88 133.696 153.54 131.911 153.54H131.825V146.992H133.016C135.227 146.992 137.352 146.992 138.628 147.333C139.988 147.673 141.349 147.928 142.029 148.353C143.815 149.288 144.834 150.564 145.175 152.265C145.515 153.795 145.345 155.667 144.41 157.792C143.39 159.748 142.029 161.534 140.159 163.15C138.288 164.68 135.992 165.956 133.441 167.061C133.015 167.146 132.42 167.401 131.825 167.487V161.193H131.826ZM127.66 161.873L131.572 153.54H131.827V146.992H125.62L117.031 168.251L122.388 168.336C125.109 168.336 127.32 168.251 129.02 167.996C130.04 167.825 130.975 167.74 131.825 167.485V161.192C130.721 161.618 129.36 161.788 127.66 161.873ZM155.891 168.251L173.747 146.992H164.138L155.55 157.537L155.891 146.992H146.707L147.217 168.251H155.891Z" fill="#00A583"/>
<path d="M120.262 129.133C152.488 129.133 178.677 142.399 178.677 158.726C178.677 174.882 152.488 188.148 120.262 188.148C101.895 188.148 85.1439 183.726 74.5149 176.753H77.9161C88.3748 182.45 103.595 185.937 120.262 185.937C151.808 185.937 177.402 173.607 177.402 158.726C177.402 143.674 151.808 131.429 120.262 131.429C88.9705 131.429 63.2912 143.674 63.2912 158.726C63.2912 164.337 66.9476 169.61 73.1543 173.947H70.6032C65.2466 169.525 62.0156 164.252 62.0156 158.726C62.0156 142.399 88.2055 129.133 120.262 129.133Z" fill="#00A583"/>
<path d="M102.915 156.597L109.972 147.414H119.155L115.329 168.418H106.826L107.932 159.829L100.789 168.418H95.857L95.0069 159.063L93.7314 160.934H83.1875L95.6017 147.414H103L102.915 156.597Z" fill="#00A583"/>
<path d="M89.3953 165.358H78.9365L82.0824 161.957H92.4561L89.3953 165.358ZM85.9933 169.61H74.9397L77.5759 166.805H88.5444L85.9933 169.61ZM82.6772 173.947H70.9429L73.3246 171.396H84.8037L82.6772 173.947ZM78.5111 178.199H67.1171L69.0726 176.073H80.4665L78.5111 178.199ZM74.2598 182.451H63.1203L65.0766 180.325H76.2153L74.2598 182.451ZM70.3481 186.618H59.2094L60.7394 185.002H71.8781L70.3481 186.618ZM67.1171 190.869H55.3828L56.7434 189.253H68.7322L67.1171 190.869Z" fill="#00A583"/>
<path fill-rule="evenodd" clip-rule="evenodd" d="M208.509 145.951L213.654 159.513L219.11 145.951H225.677L229.514 171.33H222.915L221.058 156.719H220.992L214.903 171.33H212.274L206.455 156.719H206.389L204.269 171.33H197.703L202.01 145.951H208.509ZM246.04 145.109C247.859 145.109 249.614 145.428 251.307 146.067C252.999 146.705 254.503 147.612 255.822 148.787C257.139 149.962 258.177 151.351 258.935 152.953C259.694 154.556 260.073 156.294 260.073 158.168C260.073 160.178 259.729 162.048 259.041 163.776C258.354 165.504 257.377 166.998 256.113 168.255C254.847 169.512 253.356 170.479 251.639 171.155C249.922 171.832 248.056 172.171 246.04 172.171C244.024 172.171 242.159 171.833 240.444 171.155C238.73 170.479 237.236 169.508 235.963 168.242C234.689 166.977 233.71 165.483 233.025 163.763C232.34 162.044 231.998 160.178 231.998 158.167C231.998 156.293 232.377 154.555 233.136 152.952C233.895 151.35 234.933 149.961 236.25 148.786C237.567 147.611 239.075 146.705 240.773 146.066C242.471 145.428 244.227 145.109 246.04 145.109ZM246.04 151.505C244.764 151.505 243.573 151.817 242.47 152.442C241.366 153.066 240.49 153.895 239.84 154.927C239.191 155.96 238.866 157.055 238.866 158.209C238.866 159.639 239.188 160.932 239.832 162.087C240.475 163.243 241.346 164.147 242.445 164.799C243.544 165.451 244.742 165.777 246.04 165.777C247.344 165.777 248.544 165.45 249.64 164.795C250.736 164.14 251.604 163.236 252.245 162.083C252.887 160.93 253.207 159.639 253.207 158.209C253.207 157.054 252.883 155.96 252.237 154.927C251.591 153.895 250.716 153.066 249.615 152.442C248.514 151.817 247.322 151.505 246.04 151.505ZM278.611 165.743V171.33H264.103V145.951H270.701V165.743H278.611ZM281.812 171.33V145.951H291.171C292.919 145.951 294.578 146.274 296.15 146.921C297.723 147.568 299.1 148.466 300.283 149.617C301.466 150.767 302.392 152.119 303.061 153.673C303.729 155.227 304.063 156.882 304.063 158.641C304.063 160.959 303.481 163.091 302.317 165.039C301.153 166.987 299.581 168.523 297.6 169.646C295.62 170.769 293.477 171.331 291.171 171.331H281.812V171.33ZM288.41 151.539V165.743H289.889C291.242 165.743 292.473 165.488 293.579 164.979C294.686 164.469 295.565 163.679 296.218 162.611C296.87 161.543 297.195 160.218 297.195 158.641C297.195 156.405 296.53 154.663 295.198 153.413C293.867 152.164 292.119 151.538 289.955 151.538H288.41V151.539ZM323.726 166.921H314.643L312.892 171.331H305.889L315.646 145.952H322.854L332.415 171.331H325.377L323.726 166.921ZM321.943 161.872L319.254 153.794H319.189L316.46 161.872H321.943ZM350.172 145.951H357.341L346.505 171.33H341.384L330.714 145.951H337.883L344.007 161.371L350.172 145.951ZM360.001 145.951H366.598V171.33H360.001V145.951ZM387.487 166.921H378.405L376.653 171.331H369.65L379.408 145.952H386.616L396.176 171.331H389.14L387.487 166.921ZM385.704 161.872L383.016 153.794H382.95L380.221 161.872H385.704ZM405.865 145.951L417.942 161.469H418.017V145.951H424.614V171.33H418.017L405.931 155.783H405.865V171.33H399.267V145.951H405.865Z" fill="#808285"/>
</svg>
