<svg width="480" height="320" viewBox="0 0 480 320" fill="none" xmlns="http://www.w3.org/2000/svg">
<path d="M92.2891 139.486L76.5532 167.585L92.2891 195.498C92.2891 195.591 92.3828 195.591 92.4764 195.498L108.212 167.585L92.4764 139.486H92.2891ZM65.5007 128.527C65.5007 125.717 63.2527 123.469 60.4427 123.469C57.6327 123.469 55.3848 125.717 55.3848 128.527C55.3848 131.337 57.6327 133.585 60.4427 133.585C63.2527 133.585 65.5007 131.337 65.5007 128.527ZM92.3828 133.772C95.1928 133.772 97.4407 131.524 97.4407 128.714C97.4407 125.904 95.1928 123.656 92.3828 123.656C89.5728 123.656 87.3248 125.904 87.3248 128.714C87.3248 131.524 89.5728 133.772 92.3828 133.772ZM247.212 177.514C247.212 166.836 239.906 158.406 228.948 158.406C217.989 158.406 210.683 166.836 210.683 177.514C210.683 188.192 217.989 196.528 228.948 196.528C239.906 196.528 247.212 188.098 247.212 177.514ZM220.237 175.828C220.237 170.957 222.297 163.745 228.292 163.745C234.942 163.745 237.378 172.737 237.378 178.076C237.378 182.853 235.223 189.972 229.322 189.972C222.766 189.972 220.237 181.073 220.237 175.828ZM124.323 123.562C121.513 123.562 119.265 125.81 119.265 128.62C119.265 131.43 121.513 133.678 124.323 133.678C127.133 133.678 129.381 131.43 129.381 128.62C129.381 125.81 127.133 123.562 124.323 123.562Z" fill="#731472"/>
<path d="M125.259 137.144L108.212 167.492V195.03C108.212 195.124 108.306 195.217 108.399 195.217H125.165C125.259 195.217 125.353 195.124 125.353 195.03L125.259 137.144C125.353 137.051 125.353 137.051 125.259 137.144ZM154.483 195.311H160.29C160.758 195.311 161.133 194.936 161.133 194.468V162.996L175.558 194.655C175.745 195.311 176.494 195.498 177.15 195.498C177.806 195.498 178.461 195.217 178.649 194.655L194.291 160.374V194.468C194.291 194.936 194.759 195.311 195.228 195.311H203.189C203.657 195.311 204.032 194.936 204.032 194.468V147.26C204.032 146.605 203.657 146.136 202.908 146.136H194.197C193.823 146.136 193.448 146.23 193.354 146.605L178.461 179.294L163.381 146.605C163.194 146.23 162.913 146.136 162.538 146.136H154.202C153.734 146.136 153.359 146.511 153.359 146.979V194.468C153.546 194.936 154.015 195.311 154.483 195.311ZM333.947 195.311H341.44C341.908 195.311 342.283 194.936 342.283 194.468V166.837C342.283 164.401 343.782 163.652 346.217 163.652C349.401 163.652 350.713 164.963 353.242 166.93C353.523 167.118 353.897 167.211 354.178 167.211C354.459 167.211 354.647 167.024 354.834 166.743L357.831 162.434C358.019 162.06 358.206 161.779 358.206 161.498C358.206 161.217 358.112 161.029 357.738 160.748C355.302 158.875 350.994 158.313 346.217 158.313C337.412 158.313 332.916 160.093 332.916 166.837V194.374C333.01 194.936 333.385 195.311 333.947 195.311ZM269.317 158.407C256.953 158.407 253.769 161.498 253.769 170.396V194.468C253.769 194.936 254.237 195.311 254.705 195.311H262.199C262.667 195.311 263.042 194.936 263.042 194.468V170.396C263.042 165.525 264.54 163.746 269.317 163.746C273.251 163.746 275.967 165.619 275.967 170.396V194.468C275.967 194.936 276.436 195.311 276.904 195.311H284.397C284.866 195.311 285.24 194.936 285.24 194.468V170.396C285.24 160.186 277.466 158.407 269.317 158.407ZM376.565 196.529C380.78 196.529 385.838 194.562 388.554 190.815C388.928 190.347 389.397 189.691 389.397 189.129C389.397 188.848 389.303 188.661 389.116 188.473L387.055 185.851C387.055 185.663 386.774 185.57 386.587 185.57C386.4 185.57 386.306 185.663 386.118 185.851C384.245 187.63 381.904 189.691 378.157 189.691C372.537 189.691 368.041 184.071 368.041 176.484C368.041 170.021 369.914 163.652 376.658 163.652C380.124 163.652 381.904 165.525 383.777 166.93C384.058 167.118 384.433 167.211 384.62 167.211C384.995 167.211 385.088 167.024 385.369 166.743L388.366 162.434C388.647 162.06 388.741 161.779 388.741 161.498C388.741 161.217 388.554 161.029 388.273 160.748C385.931 158.969 380.78 158.313 376.658 158.313C365.699 158.313 358.393 166.649 358.393 177.421C358.3 188.192 365.606 196.529 376.565 196.529ZM59.3184 137.144V195.03C59.3184 195.124 59.412 195.217 59.5057 195.217H76.2719C76.3655 195.217 76.4592 195.124 76.4592 195.03V167.492L59.5057 137.144C59.412 137.051 59.3184 137.051 59.3184 137.144ZM325.142 194.468V169.178C325.142 161.591 319.616 158.407 310.436 158.407C300.321 158.407 291.422 164.308 291.422 177.514C291.422 191.471 299.009 196.529 306.315 196.529C310.717 196.529 313.902 194.281 315.775 192.501V194.468C315.775 194.936 316.244 195.311 316.712 195.311H324.299C324.674 195.311 325.142 194.936 325.142 194.468ZM315.775 187.068C313.808 188.754 311.186 190.347 308.938 190.347C304.536 190.347 301.164 187.068 301.164 176.39C301.164 165.713 305.753 163.746 310.436 163.746C313.527 163.746 315.775 165.338 315.775 169.178V187.068ZM415.342 169.928V194.374C415.342 194.843 415.717 195.217 416.185 195.217H423.772C424.24 195.217 424.615 194.843 424.615 194.374V169.928C424.615 162.247 418.433 158.313 411.97 158.313C408.598 158.313 405.788 158.781 402.416 161.498V143.233C402.416 142.671 402.042 142.296 401.573 142.296H393.986C393.518 142.296 393.143 142.671 393.143 143.233V194.468C393.143 194.936 393.518 195.311 393.986 195.311H401.573C402.042 195.311 402.416 194.936 402.416 194.468V166.837C405.133 164.495 407.193 163.746 410.097 163.746C413.094 163.746 415.342 165.994 415.342 169.928Z" fill="#731472"/>
</svg>
