<svg width="480" height="320" viewBox="0 0 480 320" fill="none" xmlns="http://www.w3.org/2000/svg">
<path d="M71.5793 160.892C71.2471 160.291 71.0489 159.625 70.9983 158.939C72.3187 158.911 73.6214 158.929 74.8944 158.979L71.5793 160.892ZM73.7183 154.245C74.5745 153.819 77.101 152.858 83.3737 152.042C83.3737 152.042 91.6932 150.996 98.4788 147.958L99.6131 144.551C93.2608 147.849 87.3423 148.702 83.373 149.441C79.6647 150.115 75.822 150.483 72.7235 151.871C70.8149 152.746 69.342 154.408 68.7258 156.443C67.2733 156.527 65.856 156.673 64.5152 156.898H64.5148C59.3708 157.521 55.3848 161.901 55.3848 167.214C55.3848 170.39 56.811 173.234 59.0576 175.14L59.0714 175.174H59.0717C59.0689 175.165 59.0668 175.156 59.0653 175.146C59.0653 175.146 59.0655 175.147 59.0657 175.147L59.0003 174.85C58.5936 172.715 59.6356 171.309 59.6356 171.309C60.8326 169.423 62.7842 168.544 65.7768 168.544C72.7861 168.544 80.2769 171.68 87.5208 174.713L89.2605 175.449L90.1069 173.005C82.2707 169.741 73.8472 165.97 65.7768 165.97C63.0635 165.97 60.1765 166.605 58.1609 168.978C58.0265 168.4 57.9588 167.808 57.9588 167.214C57.9588 163.213 60.979 159.905 64.8587 159.449C66.0486 159.267 67.2408 159.141 68.4268 159.056C68.5579 161.107 69.5266 162.931 70.9949 164.187L71.0001 164.185L71.0065 164.196L83.3505 157.069C79.9556 156.682 75.7092 156.315 71.5346 156.352C72.0161 155.436 72.7838 154.693 73.7189 154.245M115.646 151.124L118.313 164.961L126.014 151.124H130.992L127.361 170.23H123.731L126.839 153.845L117.791 170.23H115.921L112.813 153.845L109.706 170.23H107.093L110.723 151.124H115.646M136.347 163.253C136.347 165.859 137.529 168.32 140.582 168.32C145.615 168.32 147.21 161.401 147.21 157.608C147.21 154.684 145.78 153.064 143.139 153.064C138.464 153.064 136.347 158.911 136.347 163.225V163.253ZM132.249 162.385C132.249 157.348 135.687 150.864 143.167 150.864C147.705 150.864 151.28 153.266 151.28 158.39C151.28 162.703 148.805 170.52 140.582 170.52C135.082 170.52 132.249 167.045 132.249 162.414V162.385ZM158.324 151.124L167.015 164.817L169.627 151.124H172.268L168.637 170.23H166.245L157.554 156.537L154.941 170.23H152.301L155.932 151.124H158.324ZM190.803 151.124L190.363 153.353H184.34L181.15 170.23H177.327L180.517 153.353H174.494L174.907 151.124H190.803M205.268 151.124L204.801 153.44H196.798L195.698 159.23H203.151L202.71 161.488H195.258L194.076 167.856H202.683L202.271 170.23H189.785L193.415 151.124H205.268ZM211.399 151.124L220.09 164.817L222.703 151.124H225.343L221.712 170.23H219.32L210.63 156.537L208.017 170.23H205.377L209.007 151.124H211.399ZM240.44 151.124L239.972 153.44H231.967L230.868 159.23H238.32L237.88 161.488H230.427L229.245 167.856H237.853L237.44 170.23H224.953L228.584 151.124H240.44ZM256.228 169.072C254.055 170.028 252.433 170.52 250.068 170.52C243.824 170.52 241.074 166.148 241.074 162.095C241.074 156.827 244.87 150.864 253.065 150.864C255.183 150.864 256.833 151.211 258.346 151.732L257.658 153.932C256.255 153.44 254.826 153.179 253.587 153.179C248.335 153.179 245.172 157.608 245.172 162.298C245.172 164.904 246.574 167.248 249.489 167.885C250.645 168.117 251.718 168.117 252.928 167.943L253.918 162.79H249.902L250.315 160.59H257.85L256.228 169.072M266.678 153.324L265.413 159.896H266.569C268.439 159.896 269.675 159.866 270.721 159.259C271.821 158.563 272.564 157.116 272.564 155.872C272.564 153.295 270.225 153.324 267.861 153.324H266.678ZM267.916 151.124C270.666 151.124 272.069 151.153 273.636 151.674C274.764 152.079 276.55 153.208 276.55 155.467C276.55 159.693 272.206 161.024 270.418 161.169L276.304 170.23H271.959L266.87 161.835H265.056L263.487 170.23H259.666L263.296 151.124H267.916ZM282.381 163.253C282.381 165.859 283.564 168.32 286.617 168.32C291.65 168.32 293.245 161.401 293.245 157.608C293.245 154.684 291.814 153.064 289.174 153.064C284.5 153.064 282.381 158.911 282.381 163.225V163.253ZM278.284 162.385C278.284 157.348 281.721 150.864 289.203 150.864C293.74 150.864 297.316 153.266 297.316 158.39C297.316 162.703 294.84 170.52 286.617 170.52C281.117 170.52 278.285 167.045 278.285 162.414V162.385M313.535 162.529H319.036L317.468 155.582L313.535 162.529ZM319.806 151.124L324.729 170.23H320.796L319.503 164.556H312.409L309.217 170.23H306.248L317.523 151.124H319.806M334.656 151.124L331.054 170.23H327.204L330.834 151.124H334.656ZM341.465 153.324L340.2 159.896H341.355C343.225 159.896 344.463 159.866 345.508 159.259C346.608 158.563 347.35 157.116 347.35 155.872C347.35 153.295 345.013 153.324 342.647 153.324H341.465ZM342.703 151.124C345.453 151.124 346.856 151.153 348.423 151.674C349.55 152.079 351.338 153.208 351.338 155.467C351.338 159.693 346.993 161.024 345.205 161.169L351.09 170.23H346.745L341.658 161.835H339.842L338.275 170.23H334.452L338.082 151.124H342.703ZM360.441 151.124L357.251 167.856H365.446L365.006 170.23H352.987L356.618 151.124H360.441M375.593 151.124L371.99 170.23H368.14L371.771 151.124H375.593ZM381.377 151.124L390.067 164.817L392.68 151.124H395.321L391.69 170.23H389.297L380.607 156.537L377.994 170.23H375.354L378.984 151.124H381.377ZM410.727 151.124L410.26 153.44H402.257L401.157 159.23H408.61L408.17 161.488H400.716L399.534 167.856H408.142L407.73 170.23H395.245L398.874 151.124H410.727M423.955 153.874C423.103 153.585 421.673 153.121 420.023 153.121C417.767 153.121 416.008 154.106 416.008 155.64C416.008 156.711 416.75 157.203 418.483 158.563L419.115 159.026C421.453 160.822 423.405 162.212 423.405 164.701C423.405 167.161 421.37 170.52 416.063 170.52C413.725 170.52 411.855 169.998 410.15 169.188L410.975 167.074C412.35 167.654 413.999 168.261 415.925 168.261C418.841 168.261 419.885 166.641 419.885 165.453C419.885 164.354 419.088 163.688 416.888 162.067L416.42 161.719C414.11 160.04 412.46 158.737 412.46 156.392C412.46 153.237 415.485 150.864 419.913 150.864C421.508 150.864 423.103 151.124 424.616 151.703L423.955 153.874Z" fill="#2056AE"/>
</svg>
