<svg width="480" height="320" viewBox="0 0 480 320" fill="none" xmlns="http://www.w3.org/2000/svg">
<path fill-rule="evenodd" clip-rule="evenodd" d="M148.59 159.841C148.59 145.403 168.075 133.695 192.08 133.695C216.087 133.695 235.572 145.403 235.572 159.841C235.572 174.281 216.087 185.982 192.08 185.982C168.075 185.982 148.59 174.281 148.59 159.841ZM160.482 159.521C160.482 148.41 174.633 139.403 192.08 139.403C209.529 139.403 223.717 148.41 223.717 159.521C223.717 170.639 209.529 179.646 192.08 179.646C174.633 179.646 160.482 170.639 160.482 159.521H160.482ZM242.684 159.841C242.684 145.403 262.171 133.695 286.176 133.695C310.218 133.695 329.668 145.403 329.668 159.841C329.668 174.281 310.218 185.982 286.176 185.982C262.171 185.982 242.684 174.281 242.684 159.841ZM254.576 159.521C254.576 148.41 268.727 139.403 286.176 139.403C303.662 139.403 317.813 148.41 317.813 159.521C317.813 170.639 303.662 179.646 286.176 179.646C268.727 179.646 254.576 170.639 254.576 159.521Z" fill="#941125"/>
<path d="M104.285 185.347L133.217 147.639V185.29H142.107V135.249L131.29 135.282L99.098 179.049L66.2381 135.282L55.3848 135.249V185.29H64.3117V147.639L93.2438 185.347H103.839M424.578 171.842C415.317 179.609 395.423 186.897 382.013 186.264C357.971 186.264 338.521 174.556 338.521 160.118C338.521 145.679 357.971 133.973 382.013 133.973C401.796 133.973 418.799 142.555 424.06 153.43L412.5 155.837C409.537 147.458 397.498 139.993 382.197 139.993C364.75 139.993 350.451 150.125 350.451 160.277C350.451 170.431 364.453 180.241 381.902 180.241C398.461 180.241 414.65 168.231 414.65 168.231L414.724 165.98H387.719V159.644H424.616C424.616 159.644 424.578 171.441 424.578 171.842Z" fill="#941125"/>
</svg>
