<svg width="480" height="320" viewBox="0 0 480 320" fill="none" xmlns="http://www.w3.org/2000/svg">
<path fill-rule="evenodd" clip-rule="evenodd" d="M98.5469 151.85C98.5469 99.638 161.878 57.3164 240.001 57.3164C318.125 57.3164 381.453 99.638 381.453 151.85C381.456 204.063 318.125 246.385 240.001 246.385C161.878 246.385 98.5469 204.064 98.5469 151.851V151.85Z" fill="white"/>
<path fill-rule="evenodd" clip-rule="evenodd" d="M100.635 151.85C100.635 100.702 163.029 59.2383 240.002 59.2383C316.972 59.2383 379.368 100.702 379.368 151.852C379.368 203 316.972 244.465 240.002 244.465C163.029 244.464 100.635 202.999 100.635 151.85Z" fill="#176FC1"/>
<path fill-rule="evenodd" clip-rule="evenodd" d="M103.965 151.849C103.965 102.382 164.869 62.2852 240.002 62.2852C315.131 62.2852 376.036 102.878 376.036 152.345C376.036 201.811 315.131 241.417 240.002 241.417C164.869 241.417 103.965 201.316 103.965 151.85V151.849Z" fill="#D1295E"/>
<path fill-rule="evenodd" clip-rule="evenodd" d="M130.654 152.65C130.654 118.317 179.742 90.4844 240.299 90.4844C300.852 90.4844 349.942 118.317 349.942 152.65C349.942 186.981 300.852 214.816 240.299 214.816C179.742 214.816 130.654 186.981 130.654 152.65Z" fill="#176FC1"/>
<path fill-rule="evenodd" clip-rule="evenodd" d="M249.061 59.2543C249.061 59.2543 221.566 113.736 221.183 114.621C212.574 115.342 194.538 114.128 190.754 117.254C188.628 119.009 186.566 121.222 186.477 125.48C186.397 129.509 186.477 137.984 186.477 137.984L186.902 250.702C186.902 250.702 192.969 255.426 222.169 257.31C242.906 258.648 252.847 256.471 252.847 256.471L313.049 138.993C313.049 138.993 317.894 131.814 316.826 126.138C315.125 117.104 305.477 115.689 305.477 115.689L276.131 115.374L269.053 66.3288L274.966 65.8365L273.075 54.2358C273.075 54.2358 258.507 52.902 253.75 55.0593C250.842 56.375 249.061 59.2543 249.061 59.2543Z" fill="white"/>
<path d="M249.06 59.254C249.06 59.254 221.567 113.736 221.182 114.62C212.575 115.341 194.537 114.127 190.754 117.254C188.628 119.011 186.564 121.221 186.478 125.48C186.396 129.51 186.478 137.985 186.478 137.985L186.902 250.702C186.902 250.702 192.969 255.425 222.168 257.31C242.905 258.648 252.847 256.471 252.847 256.471L313.05 138.993C313.05 138.993 317.895 131.815 316.825 126.138C315.124 117.103 305.476 115.69 305.476 115.69L276.13 115.373L269.054 66.3284L274.966 65.8361L273.075 54.2355C273.075 54.2355 258.507 52.9026 253.75 55.0589C250.843 56.3746 249.06 59.254 249.06 59.254V59.254Z" stroke="white" stroke-width="2.47034" stroke-miterlimit="3.864"/>
<path fill-rule="evenodd" clip-rule="evenodd" d="M105.777 151.981C105.777 199.711 169.3 240.211 240.097 240.106C312.14 240 374.156 199.414 374.156 152.137C374.156 104.64 313.42 64.1841 239.992 64.1841C166.564 64.1841 105.777 103.918 105.777 151.65V151.981ZM103.141 151.891C103.141 101.978 164.416 61.5156 240.005 61.5156C315.59 61.5156 376.865 101.978 376.865 151.891C376.865 201.805 315.591 242.263 240.005 242.263C164.416 242.263 103.141 201.802 103.141 151.892V151.891Z" fill="white"/>
<path fill-rule="evenodd" clip-rule="evenodd" d="M131.559 152.312C131.559 186.417 180.228 213.903 240.268 213.903C300.304 213.903 348.973 186.252 348.973 152.146C348.973 118.04 300.304 90.3916 240.268 90.3916C180.229 90.3916 131.559 118.039 131.559 152.146V152.312ZM129.092 152.146C129.092 116.683 178.865 87.9375 240.268 87.9375C301.667 87.9375 351.441 116.683 351.441 152.146C351.441 187.608 301.667 216.354 240.268 216.354C178.865 216.354 129.092 187.608 129.092 152.146Z" fill="white"/>
<path d="M130.654 152.653H349.942M168.261 152.466C168.261 118.132 200.62 90.3008 240.534 90.3008C280.448 90.3008 312.805 118.132 312.805 152.466C312.805 186.8 280.449 214.632 240.534 214.632C200.619 214.632 168.261 186.8 168.261 152.466V152.466Z" stroke="white" stroke-width="2.47034" stroke-miterlimit="3.864"/>
<path d="M146.982 185.336C146.982 185.336 179.92 160.044 240.533 160.044C301.144 160.044 332.982 185.336 332.982 185.336M180.747 204.24C180.747 204.24 190.562 185.336 240.533 185.336C284.97 185.336 301.145 204.068 301.145 204.068M333.992 120.126C333.992 120.126 301.054 145.417 240.441 145.417C179.831 145.417 147.332 119.668 147.332 119.668" stroke="white" stroke-width="2.47034" stroke-miterlimit="3.864"/>
<path d="M300.788 100.449C300.788 100.449 290.413 120.123 240.441 120.123C196.005 120.123 180.721 99.6953 180.721 99.6953" stroke="white" stroke-width="2.47034" stroke-miterlimit="3.864"/>
<path fill-rule="evenodd" clip-rule="evenodd" d="M187.06 236.164L186.758 266.442L199.994 240.58L187.06 236.164Z" fill="white" stroke="white" stroke-width="2.47034" stroke-miterlimit="3.864"/>
<path fill-rule="evenodd" clip-rule="evenodd" d="M272.143 62.2705C269.567 62.4361 259.368 61.6127 257.998 62.8732C256.606 64.1536 254.161 68.907 254.161 68.907L226.529 123.258L202.842 123.587C200.126 123.682 196.592 123.835 195.606 125.642C194.619 127.452 194.866 130.993 194.866 130.993L195.114 232.592L245.863 132.021C245.863 132.021 246.336 131.143 246.757 130.055C248.404 125.809 245.771 123.176 240.261 123.176L224.964 123.259L225.104 117.42H240.038C256.05 117.171 255.23 128.934 251.198 135.271L189.437 256.285C189.437 256.285 188.923 133.458 189.109 129.758C189.274 126.467 188.818 122.573 192.397 119.887C195.03 117.912 198.319 118.078 201.855 117.666L222.991 117.254C226.311 109.97 249.388 64.4097 249.388 64.4097C249.388 64.4097 251.418 60.4065 252.35 59.4744C257.094 54.7274 263.041 56.5118 271.101 56.2956L272.143 62.2705Z" fill="#D1295E"/>
<path fill-rule="evenodd" clip-rule="evenodd" d="M193.863 191.039L191.82 182.633L214.334 138.223L220.69 138.232L193.863 191.039ZM193.796 219.349L190.195 213.549L228.572 138.24L234.999 138.231L193.796 219.349ZM229.077 210.299L215.047 238.48L208.577 237.59L223.155 208.735L223.312 178.111L229.038 177.894L229.077 210.299ZM221.404 239.374L229.407 223.626L229.771 240.045L227.318 239.795L224.529 239.598L221.404 239.374ZM236.351 240.044L235.821 213.918L277.649 131.775C279.225 128.841 278.995 124.823 276.197 123.824L268.717 123.59L261.152 73.207L267.181 73.2586L273.733 117.666L277.119 118.116C277.119 118.116 278.185 118.132 278.83 118.406C285.75 121.314 285.856 128.395 282.769 134.348L242.317 214.987L242.822 240.155L236.351 240.044Z" fill="#D1295E"/>
<path fill-rule="evenodd" clip-rule="evenodd" d="M248.193 239.105L248.239 265.501L259.785 242.876L248.193 239.105Z" fill="white" stroke="white" stroke-width="2.47034" stroke-miterlimit="3.864"/>
<path fill-rule="evenodd" clip-rule="evenodd" d="M276.152 117.925C276.152 117.925 303.34 117.73 304.077 117.829C304.815 117.928 306.992 118.349 307.695 118.652C310.864 120.016 314.364 123.578 314.44 127.536C314.523 131.814 312.713 134.938 310.986 137.902L249.963 256.943L250.036 187.19H255.767L255.722 232.427L305.892 134.766C307.204 132.309 308.436 129.235 308.436 128.277C308.436 126.878 307.121 124.82 306.135 124.408C305.569 124.175 304.49 123.917 304.49 123.917L271.278 123.575V117.841L276.152 117.925Z" fill="#D1295E"/>
<path fill-rule="evenodd" clip-rule="evenodd" d="M251.357 212.529L289.112 138.207L295.558 138.533L254.262 219.932L251.357 212.529ZM260.392 67.8832C260.392 67.459 260.475 67.0389 260.638 66.647C260.8 66.255 261.038 65.8989 261.338 65.5988C261.638 65.2988 261.994 65.0608 262.386 64.8984C262.778 64.736 263.198 64.6524 263.622 64.6523C264.046 64.6523 264.466 64.7358 264.858 64.8981C265.25 65.0604 265.606 65.2983 265.906 65.5982C266.206 65.8981 266.444 66.2542 266.607 66.6461C266.769 67.038 266.853 67.4581 266.853 67.8823C266.853 68.7391 266.512 69.5608 265.907 70.1666C265.301 70.7724 264.479 71.1128 263.622 71.1128C262.765 71.1128 261.944 70.7724 261.338 70.1666C260.732 69.5608 260.392 68.7391 260.392 67.8823V67.8832Z" fill="#D1295E"/>
<path fill-rule="evenodd" clip-rule="evenodd" d="M132.717 178.047L121.129 183.971L119.466 180.856L126.639 177.264L117.554 177.067L122.435 169.274L115.255 172.706L113.78 169.74L125.368 163.816L127.009 166.963L123.482 174.101L131.204 174.93L132.717 178.047ZM143.726 206.379L140.974 204.307L146.825 196.626L143.285 193.875L145.373 191.237L155.464 198.938L153.376 201.574L149.574 198.698L143.726 206.379ZM310.669 216.586L313.277 215.319C314.037 215.918 314.197 216.19 314.797 216.414C315.4 216.637 316.071 216.506 316.556 216.314C317.207 216.059 317.744 215.848 318.094 215.548C318.772 214.967 318.836 214.38 318.615 213.671C318.468 213.205 317.951 212.7 317.348 212.666C316.871 212.64 316.463 212.707 315.528 212.93L314.835 213.106C313.791 213.356 313.198 213.314 312.55 213.368C311.904 213.425 311.196 213.323 310.586 213.023C309.98 212.723 309.297 212.318 308.885 211.463C308.604 210.888 308.463 210.243 308.463 209.528C308.463 208.816 308.738 208.069 309.294 207.29C309.846 206.508 310.778 205.799 312.086 205.164C313.041 204.698 313.919 204.432 314.717 204.365C315.512 204.299 316.208 204.375 316.802 204.595C317.395 204.819 317.839 205.18 318.279 205.502C318.736 205.837 319.116 206.118 319.652 206.76L316.986 208.056C316.451 207.606 316.208 207.472 315.885 207.29C315.598 207.13 315.196 207.105 314.701 207.082C314.204 207.057 313.795 207.076 313.322 207.305C312.99 207.466 312.483 207.676 312.137 208.139C311.796 208.602 311.582 208.991 311.7 209.55C311.796 209.994 312.205 210.444 312.543 210.514C313.198 210.648 314.113 210.53 314.577 210.425L316.952 209.854C318.183 209.706 318.793 209.767 319.61 210.045C320.425 210.322 321.035 210.702 321.565 211.766C322.024 212.689 322.04 213.365 322.011 214.127C321.986 214.91 321.823 215.401 321.453 215.999C321.102 216.563 320.738 216.914 320.23 217.278C319.79 217.599 319.325 217.883 318.839 218.128C317.711 218.676 316.703 218.997 315.812 219.095C314.925 219.19 314.178 219.123 313.568 218.896C312.958 218.667 312.521 218.306 312.08 217.959C311.646 217.617 310.669 216.586 310.669 216.586ZM324.934 199.39L332.301 210.121L329.364 212.091L321.997 201.359L324.934 199.39ZM353.122 183.401L349.703 187.461L353.821 191.101L351.73 193.625L341.77 185.243L343.861 182.714L347.13 185.329L350.549 181.268L347.28 178.653L349.378 176.25L359.337 184.636L357.237 187.037L353.122 183.401ZM145.356 113.372L142.068 116.711L136.878 111.839L138.052 121.043L129.261 120.414L134.631 125.023L131.738 128.669L121.252 119.412L124.211 115.807L132.744 116.226L131.773 107.07L135.24 103.606L145.356 113.372ZM174.54 96.4813L170.952 98.1155L166.792 89.0114L161.596 91.3823L159.731 87.2587L173.729 80.8738L175.593 84.9983L170.655 87.2044L174.54 96.4813ZM344.684 103.006L335.758 114.479L331.65 111.123L340.572 99.6502L344.684 103.006ZM347.062 111.469L350.462 108.697L353.587 112.371L350.57 114.785C350.025 115.174 349.507 115.657 349.555 116.267C349.606 116.877 349.883 117.023 350.378 117.719C350.796 118.31 352.064 119.66 352.064 119.66L356.798 116.343L359.815 120.372L347.956 128.774L345.041 124.93L348.281 122.354C348.281 122.354 345.322 118.555 344.294 116.953C343.554 115.801 344.102 113.828 345.28 113.03L347.062 111.469ZM111.896 152.44C111.896 150.893 112.511 149.409 113.605 148.315C114.699 147.221 116.183 146.607 117.73 146.607C119.278 146.607 120.761 147.221 121.855 148.315C122.949 149.409 123.564 150.893 123.564 152.44C123.564 153.988 122.949 155.471 121.855 156.565C120.761 157.66 119.278 158.274 117.73 158.274C116.183 158.274 114.699 157.66 113.605 156.565C112.511 155.471 111.896 153.988 111.896 152.44ZM356.766 152.443C356.766 150.896 357.381 149.412 358.475 148.318C359.569 147.224 361.053 146.609 362.6 146.609C364.147 146.609 365.631 147.224 366.725 148.318C367.819 149.412 368.434 150.896 368.434 152.443C368.434 153.99 367.819 155.474 366.725 156.568C365.631 157.662 364.147 158.277 362.6 158.277C361.053 158.277 359.569 157.662 358.475 156.568C357.381 155.474 356.766 153.99 356.766 152.443ZM151.455 91.9831C150.365 91.9926 149.287 92.2168 148.283 92.6431C147.279 93.0694 146.369 93.6893 145.604 94.4675C144.84 95.2456 144.237 96.1668 143.828 97.1782C143.42 98.1897 143.215 99.2717 143.225 100.362C143.264 104.946 147.015 108.633 151.599 108.595C152.69 108.585 153.768 108.361 154.771 107.934C155.775 107.508 156.685 106.888 157.449 106.11C158.213 105.332 158.817 104.411 159.225 103.399C159.633 102.388 159.838 101.306 159.828 100.216C159.79 95.628 156.04 91.9415 151.455 91.9831ZM151.564 104.442C150.462 104.452 149.402 104.024 148.616 103.252C147.831 102.48 147.384 101.427 147.374 100.326C147.364 99.2241 147.792 98.1638 148.565 97.378C149.337 96.5923 150.389 96.1453 151.491 96.1356C152.592 96.1259 153.653 96.5542 154.438 97.3262C155.224 98.0983 155.671 99.1508 155.681 100.252C155.69 101.354 155.262 102.414 154.49 103.2C153.718 103.986 152.666 104.433 151.564 104.442ZM188.83 75.3848C184.242 75.4228 180.559 79.1735 180.6 83.764C180.639 88.3482 184.39 92.0347 188.974 91.9967C190.064 91.9869 191.142 91.7623 192.146 91.3359C193.15 90.9095 194.06 90.2895 194.824 89.5114C195.588 88.7333 196.191 87.8123 196.6 86.801C197.008 85.7897 197.213 84.7079 197.203 83.6174C197.165 79.0296 193.414 75.3431 188.83 75.3848ZM188.939 87.8441C187.837 87.8539 186.777 87.4256 185.991 86.6535C185.205 85.8815 184.758 84.8289 184.748 83.7274C184.739 82.6258 185.167 81.5655 185.939 80.7797C186.711 79.9939 187.764 79.547 188.865 79.5373C189.967 79.5277 191.027 79.9561 191.813 80.7282C192.598 81.5003 193.045 82.553 193.055 83.6545C193.064 84.7561 192.636 85.8163 191.864 86.602C191.092 87.3877 190.039 87.8345 188.938 87.8441M208.68 71.5625C208.372 71.5732 208.064 71.5934 207.757 71.6231L200.795 72.8583L203.365 88.1943L207.483 87.4505L206.915 84.0472L209.306 83.6319C210.851 83.4755 212.277 82.7308 213.288 81.552C214.3 80.3732 214.819 78.8507 214.739 77.2996C214.658 75.7485 213.984 74.2877 212.857 73.2197C211.729 72.1517 210.234 71.5584 208.68 71.5625ZM209.137 79.9961L206.331 80.4938L205.511 75.6897L208.329 75.2273C208.647 75.1627 208.975 75.1626 209.293 75.2271C209.611 75.2917 209.913 75.4195 210.18 75.603C210.448 75.7865 210.676 76.0219 210.85 76.2952C211.025 76.5686 211.143 76.8743 211.197 77.1942C211.251 77.5141 211.241 77.8416 211.166 78.1572C211.091 78.4729 210.953 78.7703 210.761 79.0317C210.569 79.2931 210.326 79.5131 210.047 79.6788C209.768 79.8445 209.459 79.9524 209.137 79.9961ZM133.572 182.162C131.659 182.162 129.825 182.922 128.473 184.275C127.12 185.627 126.36 187.462 126.36 189.374C126.345 190.331 126.52 191.281 126.876 192.169C127.232 193.057 127.76 193.866 128.431 194.548C129.102 195.229 129.903 195.771 130.785 196.14C131.667 196.51 132.615 196.7 133.571 196.7C134.528 196.7 135.475 196.51 136.357 196.14C137.24 195.771 138.04 195.229 138.711 194.548C139.382 193.866 139.911 193.057 140.267 192.169C140.622 191.281 140.797 190.331 140.782 189.374C140.782 187.462 140.022 185.628 138.67 184.276C137.318 182.923 135.484 182.163 133.572 182.162ZM133.572 193.211C132.555 193.21 131.58 192.806 130.861 192.086C130.142 191.367 129.738 190.391 129.738 189.374C129.738 188.871 129.838 188.373 130.031 187.908C130.223 187.443 130.506 187.021 130.862 186.665C131.218 186.309 131.64 186.027 132.105 185.835C132.571 185.642 133.069 185.544 133.572 185.544C134.075 185.544 134.574 185.642 135.039 185.835C135.504 186.027 135.926 186.309 136.282 186.665C136.638 187.021 136.921 187.443 137.114 187.908C137.307 188.373 137.406 188.871 137.406 189.374C137.406 190.391 137.003 191.367 136.284 192.086C135.565 192.806 134.589 193.21 133.572 193.211ZM160.073 201.907C156.091 201.907 152.861 205.137 152.861 209.121C152.861 211.033 153.621 212.868 154.973 214.22C156.326 215.573 158.16 216.333 160.073 216.333C161.985 216.333 163.82 215.573 165.172 214.22C166.525 212.868 167.285 211.033 167.285 209.121C167.284 207.208 166.525 205.373 165.172 204.021C163.82 202.668 161.985 201.908 160.073 201.907ZM160.073 212.956C159.056 212.956 158.081 212.552 157.362 211.833C156.643 211.114 156.239 210.138 156.239 209.122C156.239 208.105 156.643 207.13 157.362 206.411C158.081 205.691 159.056 205.288 160.073 205.288C161.089 205.288 162.064 205.691 162.783 206.41C163.502 207.129 163.906 208.104 163.906 209.121C163.906 210.138 163.502 211.113 162.783 211.832C162.064 212.551 161.089 212.955 160.073 212.955M178.321 210.511C178.112 210.37 177.685 210.138 177.685 210.138L172.319 207.75L166.72 219.848L169.589 221.154L171.173 217.808C171.173 217.808 173.484 218.811 173.557 218.846L173.868 223.105L177.213 224.417L176.737 219.207C177.934 218.934 178.979 218.211 179.658 217.189C180.366 216.126 180.623 214.825 180.372 213.573C180.121 212.32 179.383 211.219 178.321 210.511V210.511ZM177.088 215.105C176.984 215.335 176.835 215.543 176.65 215.715C176.465 215.888 176.248 216.022 176.011 216.111C175.774 216.2 175.522 216.241 175.269 216.232C175.016 216.223 174.767 216.164 174.537 216.059L172.37 215.188L173.975 211.654L176.137 212.554C176.367 212.659 176.574 212.808 176.747 212.993C176.919 213.178 177.053 213.395 177.142 213.632C177.23 213.869 177.271 214.122 177.262 214.374C177.252 214.627 177.193 214.876 177.088 215.106M324.827 100.645C324.172 100.954 323.446 101.087 322.723 101.028C322.001 100.969 321.306 100.722 320.709 100.31C319.803 99.6838 319.182 98.7234 318.983 97.6399C318.785 96.5563 319.024 95.4382 319.649 94.5313C320.194 93.7434 320.995 93.1683 321.915 92.9033C322.836 92.6384 323.82 92.6999 324.7 93.0775C325.581 93.4551 326.303 94.1256 326.746 94.9752C327.188 95.8248 327.323 96.8013 327.128 97.7391L330.649 100.252C332.242 96.6731 331.122 92.3568 327.78 90.0494C325.967 88.7993 323.731 88.3207 321.565 88.7188C319.399 89.1169 317.48 90.3591 316.23 92.1722C313.628 95.9483 314.577 101.123 318.353 103.728C321.511 105.905 325.641 105.589 328.434 103.217L324.827 100.645ZM341.858 197.078C341.925 197.382 341.954 197.694 341.944 198.006C341.926 198.509 341.809 199.004 341.599 199.461C341.39 199.919 341.092 200.331 340.724 200.674C340.355 201.017 339.923 201.284 339.451 201.459C338.979 201.635 338.477 201.716 337.974 201.698C337.471 201.68 336.977 201.562 336.519 201.353C336.061 201.144 335.649 200.846 335.306 200.478C334.963 200.109 334.696 199.676 334.521 199.205C334.345 198.733 334.264 198.231 334.282 197.728C334.319 196.712 334.759 195.752 335.503 195.059C336.248 194.367 337.238 193.998 338.254 194.035C338.721 194.054 339.181 194.158 339.611 194.341L342.212 191.934C341.081 191.151 339.75 190.708 338.375 190.658C336.464 190.589 334.604 191.282 333.203 192.585C331.803 193.888 330.977 195.693 330.908 197.604C330.838 199.516 331.53 201.377 332.832 202.778C334.134 204.18 335.94 205.007 337.851 205.077C339.106 205.121 340.351 204.838 341.462 204.254C342.574 203.67 343.514 202.806 344.19 201.748C344.866 200.69 345.254 199.474 345.316 198.22C345.377 196.965 345.111 195.717 344.543 194.597L341.858 197.078Z" fill="white"/>
<path fill-rule="evenodd" clip-rule="evenodd" d="M204.555 253.184L207.296 243.549L205.593 243.32L206.64 240.75L210.907 241.324L207.447 253.573L204.555 253.184ZM216.527 250.3C216.41 250.319 216.291 250.329 216.173 250.329C216.045 250.33 215.917 250.325 215.79 250.314C214.829 250.224 214.089 249.806 213.568 249.049C213.051 248.298 212.843 247.345 212.948 246.192C213.073 244.797 213.581 243.69 214.471 242.866C215.362 242.043 216.438 241.688 217.699 241.803C218.982 241.921 219.969 242.416 220.652 243.293C221.335 244.168 221.615 245.295 221.491 246.669C221.405 247.625 221.044 248.615 220.412 249.633C219.78 250.652 218.771 251.852 217.39 253.234L216.045 254.585L212.833 254.29L216.527 250.3ZM218.937 246.448C218.993 245.953 218.857 245.456 218.557 245.059C218.257 244.647 217.871 244.424 217.402 244.382C216.929 244.337 216.511 244.484 216.144 244.823C215.78 245.165 215.573 245.601 215.525 246.137C215.477 246.68 215.598 247.146 215.896 247.54C216.192 247.932 216.578 248.153 217.054 248.193C217.533 248.239 217.954 248.088 218.318 247.744C218.68 247.405 218.901 246.942 218.937 246.448ZM226.029 255.603C224.912 255.548 224.06 255.069 223.472 254.163C222.881 253.256 222.623 252.027 222.699 250.475C222.749 249.41 222.926 248.354 223.226 247.331C223.529 246.313 223.926 245.432 224.414 244.698C224.903 243.95 225.47 243.388 226.124 243.012C226.761 242.643 227.491 242.467 228.226 242.505C229.337 242.56 230.189 243.044 230.779 243.96C231.367 244.873 231.622 246.118 231.548 247.692C231.5 248.744 231.325 249.787 231.028 250.798C230.735 251.788 230.345 252.646 229.863 253.377C229.346 254.159 228.769 254.734 228.13 255.105C227.494 255.475 226.792 255.637 226.029 255.603H226.029ZM226.336 252.927C226.604 252.939 226.856 252.818 227.092 252.563C227.329 252.308 227.545 251.915 227.75 251.385C228.032 250.626 228.257 249.847 228.424 249.055C228.597 248.292 228.706 247.515 228.75 246.734C228.775 246.236 228.713 245.856 228.573 245.598C228.513 245.474 228.419 245.369 228.302 245.295C228.186 245.221 228.051 245.181 227.913 245.179C227.645 245.167 227.396 245.285 227.169 245.538C226.942 245.786 226.719 246.185 226.499 246.731C226.224 247.477 226.006 248.244 225.848 249.023C225.681 249.809 225.574 250.606 225.528 251.408C225.506 251.883 225.563 252.254 225.7 252.515C225.757 252.636 225.846 252.739 225.959 252.812C226.071 252.885 226.201 252.925 226.335 252.927M232.634 255.547L238.239 245.884L233.412 245.855L233.844 242.954L242.775 243.008L242.693 243.381L235.861 255.566L232.634 255.547Z" fill="#176FC1"/>
</svg>
