<svg width="480" height="320" viewBox="0 0 480 320" fill="none" xmlns="http://www.w3.org/2000/svg">
<path fill-rule="evenodd" clip-rule="evenodd" d="M156.615 83.6323C180.102 83.6323 201.586 92.7356 217.608 107.663C217.971 108.028 218.337 107.663 217.971 107.299C201.586 84.9055 175.186 70.3398 145.327 70.3398C95.6216 70.3398 55.3848 110.577 55.3848 160.28C55.3848 184.496 65.0343 206.526 80.5097 222.73C80.8731 222.913 81.2388 222.913 80.8731 222.365C71.9505 208.345 66.671 191.595 66.671 173.571C66.6731 124.05 106.91 83.6323 156.615 83.6323Z" fill="#005582"/>
<path fill-rule="evenodd" clip-rule="evenodd" d="M163.534 247.856C150.061 247.673 136.405 243.668 124.207 235.838C89.7957 213.262 79.9632 167.019 102.54 132.425C113.099 116.039 129.123 105.295 146.6 100.745C146.964 100.745 146.964 100.198 146.418 100.381C123.478 101.654 101.63 113.489 88.1569 134.063C65.5804 168.657 75.4126 214.903 109.824 237.479C125.299 247.494 142.959 251.133 159.71 249.131C160.985 248.95 162.258 248.585 163.534 248.402C164.08 248.402 164.08 247.856 163.534 247.856L163.534 247.856Z" fill="#005582"/>
<path fill-rule="evenodd" clip-rule="evenodd" d="M225.254 194.689C223.798 197.421 222.157 199.969 220.338 202.337C215.785 208.163 210.325 213.259 203.77 217.266C174.093 236.201 134.585 227.279 115.832 197.603C106.365 182.674 103.815 165.194 107.458 149.356C107.64 148.809 107.275 148.627 107.094 149.175C97.9908 168.291 98.7198 191.412 110.735 210.53C129.671 240.391 168.996 249.128 198.854 230.376C201.585 228.556 204.316 226.552 206.684 224.55C215.97 216.358 222.342 206.163 225.803 194.872C225.8 194.509 225.435 194.326 225.254 194.689Z" fill="#005582"/>
<path fill-rule="evenodd" clip-rule="evenodd" d="M184.47 181.946H175.732L166.082 143.348L154.065 181.946H138.953L158.072 123.502H173.547L182.833 160.644L202.496 123.502H217.608L220.521 181.946H206.319L204.681 144.623L184.47 181.946ZM221.795 135.519L223.616 123.502H275.502L273.866 135.519H255.113L248.193 181.946H233.446L240.365 135.519H221.795ZM293.892 123.502L289.524 154.089C288.612 159.369 287.703 169.567 301.722 169.567C308.46 169.567 314.649 166.834 316.107 157.184L321.204 123.502H335.952L330.856 159.186C328.488 175.206 317.382 182.673 301.907 182.673C279.331 182.673 274.051 168.653 274.051 161.188C274.051 160.096 274.231 156.455 274.78 152.449L279.148 123.5H293.892V123.502Z" fill="#005582"/>
<path fill-rule="evenodd" clip-rule="evenodd" d="M255.113 199.424H255.294L256.388 209.256H251.289L255.113 199.424ZM258.391 194.871H253.475L242.732 217.084H247.829L250.014 212.351H256.75L257.479 217.084H262.214L258.391 194.871ZM268.767 207.8C269.496 205.981 270.406 205.252 271.864 205.252C273.322 205.252 274.23 206.344 274.049 207.8H268.767ZM278.053 210.349C278.965 205.798 276.597 202.157 272.047 202.157C267.494 202.157 264.036 205.798 264.036 210.349C264.036 214.538 266.95 217.45 271.32 217.45C272.776 217.45 274.597 217.086 276.417 216.357L277.146 212.716C274.78 213.628 273.141 214.172 271.866 214.172C269.681 214.172 268.225 212.716 268.408 210.349H278.053ZM286.247 204.523V204.706C287.522 202.884 288.797 202.155 289.705 202.155C290.617 202.155 291.344 202.701 292.436 203.794L290.434 207.798C289.705 206.706 288.98 206.342 288.249 206.342C287.339 206.342 286.066 207.437 285.701 208.344L284.427 217.084H280.057L282.243 202.519H286.429L286.247 204.523ZM303.544 208.893C303.544 211.076 302.268 213.809 299.72 213.809C298.447 213.809 296.806 212.897 296.806 210.529C296.806 209.073 297.718 205.796 300.63 205.796C302.451 205.798 303.544 207.071 303.544 208.893ZM308.094 209.073C308.094 204.886 305 202.155 300.81 202.155C296.26 202.155 292.436 205.796 292.436 210.347C292.436 214.353 295.533 217.448 299.72 217.448C304.453 217.448 308.094 213.809 308.094 209.073ZM326.301 203.977H334.131L333.585 207.62H325.755L324.845 213.443H336.316L335.77 217.086H319.746L322.843 195.054H336.499L335.95 198.88H327.03L326.301 203.977ZM344.327 204.157C345.963 202.701 347.421 202.155 349.243 202.155C352.701 202.155 353.611 205.069 353.065 207.981L351.791 217.084H347.604L348.697 208.344C348.879 206.891 348.697 205.432 347.424 205.432C346.512 205.432 345.239 206.162 343.783 207.617L342.509 217.084H338.14L340.144 202.519H344.512L344.327 204.157ZM364.536 207.437C364.536 209.073 363.987 210.714 362.168 210.714C360.895 210.714 359.983 209.985 359.983 208.712C359.983 206.527 360.895 205.435 362.533 205.435C363.626 205.435 364.535 206.162 364.535 207.437L364.536 207.437ZM370.727 202.521H362.535C358.348 202.521 356.163 205.252 356.163 207.983C356.163 209.803 356.892 211.261 358.712 212.17C357.619 212.534 357.256 212.534 356.71 212.899C356.163 213.445 355.615 214.172 355.615 214.901C355.615 215.996 356.527 217.086 357.619 217.633C355.251 218.362 354.159 219.452 354.159 220.91C354.159 222.549 355.434 224.551 361.079 224.551C367.086 224.551 368.544 222.185 368.544 219.817C368.544 214.172 359.806 215.813 359.806 214.172C359.806 213.443 360.352 213.443 362.355 213.443C366.542 213.443 368.544 210.712 368.544 207.981C368.544 207.252 368.361 206.525 367.998 205.613H370.363L370.727 202.521ZM360.531 218.542C363.079 219.088 364.536 219.271 364.536 220.362C364.536 221.274 363.624 221.635 361.077 221.635C358.892 221.635 357.798 221.271 357.798 220.179C357.798 219.452 358.527 218.723 360.531 218.542ZM376.004 217.086H371.637L373.822 202.521H378.009L376.004 217.086ZM378.738 198.333C378.738 199.607 377.643 200.699 376.37 200.699C375.097 200.699 374.185 199.607 374.185 198.333C374.185 197.06 375.097 196.149 376.37 196.149C377.643 196.149 378.738 197.058 378.738 198.333ZM386.202 204.157C388.022 202.701 389.48 202.155 391.301 202.155C394.579 202.155 395.488 205.069 395.123 207.981L393.85 217.084H389.48L390.753 208.344C390.936 206.891 390.572 205.432 389.48 205.432C388.387 205.432 387.295 206.162 385.841 207.617L384.385 217.084H380.015L382.2 202.519H386.57L386.202 204.157ZM402.589 207.8C403.136 205.981 404.046 205.252 405.501 205.252C406.957 205.252 407.869 206.344 407.686 207.8H402.589ZM411.693 210.349C412.785 205.798 410.237 202.157 405.684 202.157C401.314 202.157 397.673 205.798 397.673 210.349C397.673 214.538 400.587 217.45 404.957 217.45C406.596 217.45 408.235 217.086 410.056 216.357L410.968 212.716C408.418 213.628 406.779 214.172 405.503 214.172C403.321 214.172 401.865 212.716 402.045 210.349H411.693ZM424.254 206.891C422.615 206.162 420.796 205.796 420.067 205.796C419.519 205.796 418.973 205.979 418.973 206.342C418.973 207.981 423.889 209.256 423.889 212.714C423.889 215.445 421.704 217.448 418.426 217.448C416.788 217.448 415.149 216.902 413.327 215.994L414.056 212.714C415.151 213.26 416.605 213.809 418.061 213.809C418.79 213.809 419.336 213.443 419.336 213.08C419.336 211.441 414.601 209.8 414.601 206.891C414.601 204.157 416.785 202.155 420.065 202.155C421.521 202.155 422.979 202.521 424.615 203.611L424.254 206.891Z" fill="#81A5B6"/>
</svg>
