<svg width="480" height="320" viewBox="0 0 480 320" fill="none" xmlns="http://www.w3.org/2000/svg">
<path d="M155.44 98.2712H162.754V143.21H155.44V98.2712ZM195.137 98.2712H202.452V143.21H195.137V98.2712ZM234.835 53.332H242.149V188.139H234.835V53.332ZM274.522 98.2712H281.836V165.696H274.522V98.2712ZM314.219 98.2712H321.533V143.21H314.219V98.2712ZM139.693 255.683H135.157V240.609C135.157 237.788 134.701 235.704 133.79 234.358C133.339 233.709 132.729 233.188 132.018 232.843C131.307 232.499 130.519 232.345 129.731 232.394C127.876 232.397 126.093 233.112 124.75 234.391C123.245 235.773 122.162 237.553 121.624 239.524V255.737H117.088V240.609C117.088 237.712 116.632 235.617 115.742 234.304C115.29 233.668 114.683 233.159 113.978 232.825C113.273 232.49 112.495 232.342 111.716 232.394C109.878 232.399 108.109 233.092 106.757 234.337C105.232 235.706 104.138 237.489 103.61 239.47V255.748H99.0625V228.726H103.197V234.564C104.196 232.674 105.674 231.08 107.484 229.941C109.271 228.855 111.329 228.295 113.42 228.324C115.396 228.209 117.34 228.863 118.846 230.148C120.182 231.397 121.048 233.067 121.299 234.879C123.708 230.538 127.134 228.368 131.576 228.368C132.924 228.324 134.263 228.615 135.472 229.214C136.504 229.733 137.377 230.52 138 231.493C138.655 232.602 139.107 233.818 139.335 235.085C139.624 236.562 139.762 238.063 139.748 239.567L139.693 255.683ZM145.271 228.726H149.818V244.017C149.818 249.515 151.761 252.268 155.646 252.275C156.563 252.274 157.473 252.116 158.337 251.809C159.232 251.493 160.076 251.051 160.844 250.495C161.636 249.901 162.338 249.196 162.928 248.401C163.566 247.544 164.087 246.606 164.48 245.612V228.726H169.027V250.105C169.027 251.19 169.504 251.722 170.47 251.754V255.683C170.09 255.748 169.743 255.802 169.385 255.835C169.111 255.867 168.836 255.885 168.56 255.889C167.72 255.939 166.889 255.689 166.216 255.184C165.926 254.936 165.69 254.633 165.52 254.291C165.35 253.95 165.251 253.578 165.229 253.198L165.077 249.942C164.636 250.805 164.081 251.604 163.427 252.319C162.739 253.073 161.967 253.746 161.126 254.326C160.281 254.912 159.361 255.383 158.392 255.726C157.421 256.063 156.402 256.235 155.375 256.236C154.005 256.308 152.653 255.897 151.555 255.075C150.623 254.354 149.922 253.377 149.536 252.264V266.665H145.195L145.271 228.726ZM202.962 233.566C202.1 232.644 201.043 231.925 199.869 231.461C198.489 230.909 197.014 230.636 195.528 230.658C193.097 230.658 191.339 231.113 190.232 232.025C189.692 232.471 189.263 233.037 188.979 233.677C188.694 234.317 188.562 235.015 188.593 235.715C188.565 236.414 188.714 237.108 189.028 237.733C189.364 238.296 189.838 238.763 190.406 239.09C191.153 239.521 191.951 239.857 192.782 240.088C193.748 240.37 194.877 240.653 196.179 240.924C197.481 241.195 198.936 241.575 200.086 241.944C201.135 242.268 202.13 242.747 203.038 243.366C203.825 243.905 204.469 244.628 204.915 245.471C205.379 246.43 205.602 247.488 205.566 248.553C205.59 249.681 205.341 250.798 204.839 251.809C204.356 252.726 203.66 253.515 202.81 254.109C201.871 254.754 200.817 255.215 199.706 255.466C198.423 255.77 197.107 255.919 195.789 255.911C191.779 255.998 187.883 254.576 184.871 251.928L186.173 249.758C187.321 250.909 188.691 251.813 190.2 252.416C191.981 253.167 193.899 253.536 195.832 253.502C197.608 253.598 199.376 253.192 200.932 252.33C201.529 251.96 202.015 251.437 202.338 250.814C202.661 250.191 202.809 249.492 202.767 248.792C202.8 248.034 202.62 247.281 202.246 246.621C201.863 245.999 201.329 245.484 200.694 245.124C199.882 244.654 199.014 244.29 198.111 244.038C197.084 243.735 195.89 243.431 194.53 243.127C193.097 242.79 191.849 242.443 190.775 242.042C189.809 241.743 188.897 241.292 188.073 240.707C187.378 240.202 186.812 239.54 186.423 238.775C186.03 237.903 185.841 236.953 185.87 235.997C185.85 234.84 186.091 233.694 186.575 232.644C187.034 231.678 187.719 230.837 188.572 230.191C189.492 229.509 190.529 229.001 191.632 228.693C192.91 228.334 194.233 228.159 195.561 228.172C197.2 228.149 198.83 228.429 200.368 228.997C201.777 229.542 203.081 230.328 204.221 231.32L202.962 233.566ZM219.056 256.063C217.464 256.094 215.899 255.648 214.563 254.782C213.286 253.946 212.215 252.833 211.427 251.526V263.865H208.822V235.715H211.155V239.589C211.969 238.344 213.057 237.301 214.335 236.54C215.618 235.764 217.09 235.358 218.589 235.367C219.912 235.357 221.22 235.654 222.409 236.236C223.554 236.796 224.575 237.578 225.415 238.536C226.266 239.513 226.935 240.634 227.39 241.846C227.856 243.085 228.095 244.397 228.096 245.721C228.104 247.075 227.884 248.422 227.445 249.703C227.032 250.893 226.402 251.997 225.589 252.959C224.793 253.892 223.814 254.653 222.713 255.195C221.579 255.766 220.326 256.063 219.056 256.063ZM218.318 253.762C219.332 253.777 220.335 253.542 221.237 253.078C222.094 252.622 222.853 252.003 223.473 251.255C224.107 250.494 224.597 249.622 224.916 248.683C225.245 247.73 225.414 246.729 225.415 245.721C225.417 244.67 225.222 243.628 224.84 242.649C224.468 241.711 223.936 240.844 223.266 240.088C222.604 239.351 221.804 238.75 220.911 238.319C219.996 237.884 218.995 237.662 217.981 237.668C217.272 237.679 216.571 237.815 215.909 238.07C215.19 238.346 214.508 238.711 213.879 239.155C213.255 239.588 212.705 240.119 212.251 240.728C211.823 241.283 211.539 241.936 211.427 242.628V248.759C211.727 249.47 212.121 250.138 212.599 250.745C213.056 251.35 213.596 251.888 214.205 252.34C214.8 252.795 215.458 253.161 216.158 253.426C216.849 253.664 217.576 253.778 218.307 253.762H218.318ZM236.756 256.063C235.805 256.073 234.86 255.911 233.967 255.585C233.161 255.295 232.423 254.845 231.796 254.261C231.207 253.708 230.731 253.044 230.396 252.308C230.063 251.575 229.893 250.779 229.897 249.975C229.886 249.096 230.099 248.23 230.516 247.457C230.935 246.689 231.526 246.028 232.241 245.525C233.048 244.958 233.948 244.535 234.9 244.277C236.018 243.975 237.172 243.829 238.329 243.843C239.358 243.846 240.386 243.933 241.4 244.104C242.354 244.265 243.288 244.523 244.189 244.874V243.073C244.23 242.309 244.118 241.545 243.859 240.826C243.6 240.106 243.199 239.446 242.681 238.884C242.146 238.355 241.508 237.942 240.805 237.673C240.103 237.404 239.352 237.284 238.601 237.321C237.504 237.325 236.418 237.535 235.399 237.939C234.248 238.395 233.155 238.985 232.144 239.698L231.221 237.983C232.4 237.179 233.672 236.519 235.009 236.019C236.242 235.583 237.542 235.363 238.85 235.367C239.907 235.314 240.964 235.474 241.957 235.838C242.951 236.201 243.861 236.761 244.634 237.484C245.375 238.253 245.95 239.166 246.323 240.167C246.696 241.167 246.86 242.234 246.805 243.3V252.308C246.805 253.024 247.12 253.393 247.727 253.393V255.694H246.696C246.191 255.697 245.699 255.533 245.296 255.227C245.081 255.067 244.905 254.859 244.783 254.62C244.66 254.381 244.595 254.117 244.591 253.849L244.504 252.286C243.617 253.475 242.44 254.416 241.086 255.021C239.736 255.68 238.258 256.035 236.756 256.063ZM237.407 254.066C238.589 254.063 239.758 253.812 240.836 253.328C241.898 252.888 242.829 252.182 243.538 251.277C243.723 251.046 243.879 250.795 244.005 250.528C244.117 250.294 244.18 250.039 244.189 249.779V246.524C243.31 246.187 242.402 245.929 241.476 245.753C240.564 245.583 239.638 245.496 238.709 245.493C237.124 245.405 235.547 245.782 234.173 246.578C233.619 246.898 233.163 247.364 232.853 247.924C232.543 248.484 232.392 249.118 232.415 249.758C232.418 250.294 232.525 250.825 232.73 251.32C232.933 251.844 233.252 252.315 233.663 252.699C234.111 253.128 234.638 253.467 235.215 253.697C235.898 253.971 236.628 254.107 237.363 254.098L237.407 254.066ZM250.169 245.645C250.159 244.283 250.406 242.932 250.896 241.662C251.354 240.45 252.052 239.342 252.947 238.406C253.841 237.475 254.916 236.736 256.105 236.236C257.386 235.682 258.769 235.405 260.164 235.422C261.902 235.384 263.615 235.831 265.113 236.713C266.484 237.536 267.589 238.738 268.292 240.175L265.764 240.978C265.219 239.98 264.408 239.153 263.42 238.591C262.407 238.008 261.256 237.708 260.088 237.722C259.103 237.715 258.128 237.926 257.234 238.341C256.366 238.739 255.584 239.303 254.933 240.001C254.264 240.733 253.744 241.588 253.403 242.519C253.025 243.536 252.838 244.614 252.85 245.699C252.841 246.785 253.036 247.864 253.425 248.879C253.777 249.831 254.308 250.707 254.987 251.461C255.645 252.179 256.433 252.764 257.31 253.187C258.19 253.608 259.155 253.824 260.131 253.816C260.77 253.816 261.405 253.728 262.02 253.556C262.631 253.38 263.218 253.129 263.767 252.807C264.274 252.51 264.738 252.145 265.145 251.722C265.502 251.35 265.776 250.906 265.948 250.42L268.477 251.19C268.192 251.915 267.776 252.58 267.251 253.154C266.705 253.772 266.068 254.303 265.362 254.728C264.608 255.197 263.794 255.562 262.942 255.813C262.051 256.054 261.131 256.174 260.207 256.171C258.858 256.169 257.525 255.887 256.29 255.343C255.055 254.8 253.947 254.006 253.034 253.013C252.13 252.05 251.419 250.923 250.94 249.692C250.423 248.406 250.161 247.031 250.169 245.645ZM280.317 256.063C278.969 256.076 277.634 255.809 276.395 255.279C275.156 254.748 274.041 253.965 273.122 252.981C272.218 252.018 271.507 250.891 271.027 249.66C270.522 248.382 270.268 247.019 270.278 245.645C270.269 244.285 270.523 242.936 271.027 241.673C271.998 239.232 273.882 237.266 276.28 236.192C277.545 235.648 278.907 235.368 280.284 235.368C281.661 235.368 283.024 235.648 284.289 236.192C285.471 236.722 286.535 237.486 287.414 238.439C288.285 239.39 288.973 240.494 289.443 241.694C289.928 242.94 290.175 244.265 290.17 245.601V246.22C290.185 246.357 290.185 246.495 290.17 246.632H273.035C273.109 247.659 273.362 248.666 273.784 249.606C274.183 250.478 274.73 251.275 275.401 251.961C276.048 252.63 276.824 253.161 277.682 253.523C278.54 253.884 279.462 254.069 280.393 254.066C281.052 254.068 281.71 253.98 282.346 253.805C282.962 253.632 283.555 253.388 284.115 253.078C284.642 252.787 285.124 252.421 285.547 251.993C285.956 251.561 286.286 251.062 286.524 250.517L288.792 251.125C288.478 251.864 288.037 252.544 287.49 253.133C286.916 253.746 286.258 254.276 285.537 254.706C284.771 255.175 283.946 255.54 283.084 255.791C282.177 256.001 281.247 256.092 280.317 256.063ZM287.674 244.646C287.614 243.631 287.36 242.636 286.926 241.716C286.531 240.867 285.987 240.095 285.32 239.437C284.664 238.794 283.89 238.286 283.041 237.939C281.735 237.404 280.302 237.26 278.916 237.526C277.53 237.792 276.252 238.456 275.238 239.437C274.576 240.098 274.045 240.879 273.675 241.738C273.266 242.657 273.023 243.642 272.959 244.646H287.674ZM300.86 241.89C300.863 240.225 301.153 238.573 301.717 237.006C302.276 235.414 303.13 233.941 304.235 232.665C305.364 231.361 306.744 230.298 308.294 229.54C310.001 228.714 311.878 228.301 313.774 228.335C315.96 228.267 318.118 228.841 319.982 229.985C321.636 231.025 322.964 232.511 323.812 234.271L321.642 235.574C320.884 233.976 319.638 232.661 318.082 231.819C317.4 231.446 316.67 231.168 315.912 230.994C315.17 230.832 314.414 230.748 313.655 230.744C312.147 230.713 310.656 231.056 309.314 231.743C308.087 232.38 307.008 233.267 306.145 234.347C305.285 235.428 304.631 236.656 304.213 237.972C303.783 239.289 303.563 240.667 303.562 242.052C303.555 243.535 303.82 245.006 304.343 246.393C304.855 247.726 305.589 248.963 306.514 250.051C307.417 251.104 308.525 251.965 309.77 252.579C311.02 253.212 312.405 253.536 313.807 253.523C314.601 253.52 315.391 253.422 316.162 253.23C316.981 253.03 317.77 252.72 318.506 252.308C319.264 251.878 319.964 251.352 320.589 250.745C321.254 250.079 321.8 249.304 322.206 248.455L324.377 249.606C323.955 250.621 323.331 251.541 322.543 252.308C321.757 253.087 320.866 253.752 319.895 254.283C318.925 254.823 317.889 255.235 316.813 255.509C315.768 255.786 314.692 255.929 313.611 255.932C311.826 255.949 310.063 255.528 308.478 254.706C306.943 253.908 305.576 252.821 304.452 251.505C303.323 250.174 302.435 248.658 301.826 247.023C301.198 245.384 300.871 243.645 300.86 241.89ZM335.956 256.063C334.618 256.078 333.292 255.814 332.062 255.287C330.833 254.76 329.727 253.982 328.815 253.002C327.926 252.061 327.229 250.955 326.764 249.747C326.021 247.868 325.823 245.818 326.191 243.831C326.56 241.845 327.481 240.002 328.848 238.515C329.74 237.564 330.809 236.797 331.995 236.257C333.244 235.702 334.595 235.416 335.961 235.416C337.328 235.416 338.679 235.702 339.928 236.257C341.121 236.783 342.201 237.535 343.108 238.471C344.936 240.454 345.944 243.056 345.929 245.753C345.939 248.442 344.931 251.036 343.108 253.013C342.223 253.961 341.156 254.721 339.971 255.249C338.708 255.81 337.338 256.088 335.956 256.063ZM328.718 245.796C328.708 246.863 328.896 247.923 329.271 248.922C329.623 249.851 330.142 250.708 330.801 251.451C331.445 252.169 332.227 252.748 333.102 253.154C333.987 253.559 334.95 253.766 335.923 253.762C336.896 253.768 337.857 253.553 338.734 253.133C339.611 252.71 340.399 252.124 341.057 251.407C341.731 250.661 342.261 249.796 342.619 248.857C343.012 247.858 343.207 246.793 343.195 245.721C343.203 244.652 343.008 243.591 342.619 242.595C342.261 241.649 341.731 240.777 341.057 240.023C340.407 239.309 339.626 238.727 338.756 238.308C337.884 237.882 336.926 237.663 335.956 237.668C334.983 237.665 334.021 237.884 333.145 238.308C332.265 238.72 331.481 239.311 330.845 240.045C330.18 240.812 329.654 241.69 329.293 242.638C328.9 243.645 328.705 244.717 328.718 245.796ZM359.136 238.015C357.495 238.029 355.896 238.535 354.546 239.47C353.242 240.396 352.274 241.721 351.789 243.246V255.661H349.185V235.693H351.638V240.49C352.281 239.138 353.21 237.942 354.361 236.984C355.365 236.095 356.656 235.598 357.997 235.585H358.648C358.814 235.571 358.981 235.571 359.147 235.585L359.136 238.015ZM371.899 256.063C370.31 256.092 368.75 255.646 367.417 254.782C366.137 253.946 365.061 252.834 364.27 251.526V263.865H361.665V235.715H364.009V239.589C364.823 238.344 365.91 237.301 367.189 236.54C368.471 235.762 369.944 235.357 371.443 235.367C372.763 235.356 374.067 235.653 375.252 236.236C376.398 236.793 377.421 237.575 378.258 238.536C379.989 240.529 380.941 243.081 380.939 245.721C380.947 247.075 380.727 248.422 380.287 249.703C379.875 250.893 379.245 251.997 378.432 252.959C377.64 253.897 376.66 254.659 375.556 255.195C374.422 255.767 373.169 256.065 371.899 256.063ZM371.172 253.762C372.182 253.777 373.181 253.542 374.08 253.078C374.939 252.62 375.701 252.001 376.326 251.255C376.958 250.493 377.443 249.621 377.759 248.683C378.093 247.731 378.262 246.729 378.258 245.721C378.26 244.67 378.065 243.628 377.683 242.649C377.32 241.706 376.786 240.838 376.109 240.088C375.45 239.347 374.65 238.746 373.754 238.319C372.84 237.882 371.838 237.66 370.824 237.668C370.115 237.68 369.414 237.816 368.752 238.07C368.034 238.349 367.353 238.713 366.722 239.155C366.098 239.588 365.548 240.119 365.094 240.728C364.67 241.286 364.387 241.937 364.27 242.628V248.759C364.575 249.468 364.968 250.135 365.442 250.745C365.901 251.348 366.442 251.885 367.048 252.34C367.646 252.791 368.303 253.156 369.001 253.426C369.699 253.666 370.434 253.78 371.172 253.762Z" fill="black"/>
</svg>
