<svg width="480" height="320" viewBox="0 0 480 320" fill="none" xmlns="http://www.w3.org/2000/svg">
<path d="M193.157 231.191H209.006L201.085 223.273L193.157 231.191ZM273.893 265.592L281.81 257.674H265.973L273.893 265.592ZM242.1 59.1406C205.14 59.1406 175.176 89.1036 175.176 126.068C175.176 163.025 205.14 192.985 242.1 192.985C279.055 192.985 309.02 163.025 309.02 126.068C309.018 89.1036 279.054 59.1406 242.1 59.1406Z" fill="#FEE407"/>
<path d="M319.96 262.717V227.33C319.96 227.33 321.889 224.506 324.252 223.598H304.813C304.813 223.598 307.98 224.954 309.22 226.875V262.962L308.086 264.407C308.086 264.407 305.149 261.246 300.746 255.135C296.336 249.033 279.258 223.596 279.258 223.596H264.456C266.036 224.501 266.831 226.304 265.927 227.893C265.025 229.48 243.88 262.487 243.88 262.487C243.88 262.487 236.535 230.264 236.194 228.572C235.856 226.87 235.856 225.064 239.81 223.596H221.385V224.729L202.85 254.232L182.164 223.034H163.737L167.697 225.853C167.697 225.853 161.56 257.056 160.975 259.182C160.633 260.456 157.155 265.255 155.77 265.255C155.77 265.289 155.75 265.649 155.75 265.649H172.142L172.11 265.215C170.083 265.215 168.032 262.818 168.711 259.767C169.39 256.715 175.153 230.491 175.153 230.491C175.153 230.491 190.982 254.006 195.274 259.994C197.759 263.27 203.751 266.665 203.751 266.665L226.212 230.791C226.212 230.791 232.127 257.736 232.636 260.281C233.136 262.824 230.484 265.198 228.506 265.198V265.584H255.466C255.466 265.584 255.412 265.198 255.466 265.198C254.224 265.198 252.155 263.201 253.653 260.704C255.153 258.207 273.017 229.457 273.017 229.457C273.017 229.457 291.96 259.74 293.207 261.885C294.447 264.033 291.992 265.671 290.482 265.671V266.074H323.913V265.698C322.644 265.619 319.96 262.717 319.96 262.717ZM174.646 95.9428C177.563 96.1466 181.837 98.3388 182.982 106.991C184.127 115.639 187.152 123.033 192.151 128.971C197.151 134.909 198.817 133.237 205.795 137.613C209.751 140.089 230.024 150.374 239.029 158.973C243.138 162.89 240.176 162.616 244.657 167.511C249.142 172.421 255.803 176.268 255.803 176.268C255.803 176.268 265.633 189.333 274.242 198.877C285.36 211.2 295.706 219.712 302.058 220.644L298.833 208.766C298.833 208.766 293.622 209.606 290.29 206.694C287.067 203.87 281.227 198.569 281.227 198.569C281.227 198.569 279.973 195.33 277.998 190.127C276.016 184.917 271.33 176.682 268.828 176.471C268.828 176.471 271.849 167.718 271.33 157.308C271.33 157.308 278.354 158.747 285.597 157.094C295.138 154.922 295.502 148.237 294.252 142.719C296.953 142.202 303.624 139.905 302.689 133.655C302.129 129.913 299.774 121.051 301.12 118.448C301.12 118.448 295.28 121.395 292.418 126.221C289.881 130.536 290.29 136.781 290.29 136.781C290.29 136.781 287.791 133.136 279.456 130.117C272.232 127.496 264.553 130.432 264.553 130.432C264.553 130.432 266.555 132.07 269.767 134.493C274.035 137.721 271.856 137.625 274.862 141.054C280.076 146.995 286.33 145.952 290.078 144.188C290.078 144.188 291.052 149.872 287.751 151.296C283.486 153.12 274.454 150.539 271.639 147.722C267.785 136.156 259.35 131.047 254.246 129.491C254.659 125.217 257.264 122.613 262.888 123.137C265.824 123.41 276.748 125.431 284.767 123.454C292.791 121.469 293.622 116.47 293.622 116.47C293.622 116.47 286.846 116.47 285.084 114.598C290.809 113.656 309.875 111.474 312.472 90.5271C312.472 90.5271 306.716 94.1617 301.544 93.3445C318.213 82.0902 315.609 59.7958 315.609 59.7958C315.609 59.7958 310.394 65.0025 301.024 72.5025C291.643 80.0059 276.069 88.7595 267.89 90.945C258.743 93.3967 256.851 91.4707 243.62 94.4869C232.486 97.033 227.267 102.513 227.267 108.139C227.267 114.598 231.116 119.181 231.116 119.181C231.116 119.181 227.181 116.107 224.657 111.056C221.012 103.766 222.937 98.4703 231.586 93.8887C242.604 94.3555 243.849 90.8405 243.849 90.8405C243.849 90.8405 236.584 90.9265 235.883 88.0299C235.883 88.0299 237.751 87.6373 241.041 86.7004C244.323 85.7652 250.028 83.1097 250.413 80.2165C250.413 80.2165 244.399 81.8526 236.27 81.4634L239.475 76.4656C239.475 76.4656 229.628 79.9031 229.085 77.5558L232.838 75.6804C232.838 75.6804 231.345 74.5144 227.99 72.6356C224.634 70.7602 220.022 70.7602 218.38 71.2269C216.736 71.692 216.507 72.0105 214.786 71.0719C213.071 70.1384 212.518 68.5747 213.453 67.316C214.392 66.0691 215.57 65.7489 217.673 64.5812C219.786 63.4101 220.569 60.3653 219.161 58.4157C217.924 56.7123 216.674 55.0177 215.413 53.332C215.413 53.332 214.865 54.9732 215.255 55.991C215.255 55.991 213.378 55.9152 212.205 56.4594C212.205 56.4594 213.742 57.2042 214.473 58.719C215.565 60.9871 211.349 62.8625 209.704 64.1953C207.433 66.0354 207.207 68.022 207.207 68.022C207.207 68.022 201.112 64.9738 199.552 61.0679C199.862 71.2235 207.283 74.0375 207.283 74.0375C207.283 74.0375 207.283 77.7109 207.676 80.2148L216.424 81.0708C216.424 81.0708 215.957 83.9623 214.084 83.9623C212.205 83.9623 210.641 83.7264 208.607 82.2452C208.607 82.2452 207.593 86.537 205.723 89.0443C205.723 89.0443 208.218 88.3096 210.099 88.3096C212.367 88.3096 213.56 89.9256 211.846 92.7665C210.27 95.3614 208.065 97.0431 204.132 96.3539C198.715 95.4221 194.758 96.3539 189.339 102.088C189.339 102.088 185.383 95.7338 185.383 90.8338L166.211 90.5221C166.211 90.5221 161.939 101.574 159.336 103.861L171.525 102.61C168.189 96.3539 171.731 95.7355 174.646 95.9428ZM215.484 76.1404C215.484 75.7311 215.646 75.3385 215.936 75.049C216.225 74.7596 216.618 74.597 217.027 74.597C217.437 74.597 217.829 74.7596 218.119 75.049C218.408 75.3385 218.571 75.7311 218.571 76.1404C218.571 76.5498 218.408 76.9424 218.119 77.2318C217.829 77.5213 217.437 77.6839 217.027 77.6839C216.618 77.6839 216.225 77.5213 215.936 77.2318C215.646 76.9424 215.484 76.5498 215.484 76.1404Z" fill="#015396"/>
</svg>
