<svg width="480" height="320" viewBox="0 0 480 320" fill="none" xmlns="http://www.w3.org/2000/svg">
<mask id="mask0_730_18231" style="mask-type:luminance" maskUnits="userSpaceOnUse" x="55" y="95" width="370" height="129">
<path d="M55.3867 223.52H424.619V95.9618H55.3867V223.52Z" fill="white"/>
</mask>
<g mask="url(#mask0_730_18231)">
<path d="M177.072 115.103C227.853 102.422 345.608 82.6453 374.633 145.45C381.867 161.104 393.846 143.078 424.622 162.676C402.269 169.526 398.043 188.507 371.211 203.711C322.398 231.368 245.376 209.701 177.072 215.78V214.735C206.055 211.816 227.204 212.016 229.903 204.789C231.854 199.571 215.944 196.865 200.331 196.522L200.335 195.975C249.284 196.358 288.519 191.867 316.841 177.949C337.492 167.795 333.491 155.968 294.839 140.31C284.42 124.657 267.775 114.332 177.072 116.528V115.103ZM152.926 157.42H120.705C120.819 161.875 123.992 164.1 130.222 164.1C134.737 164.1 137.82 162.993 139.477 160.78L150.709 163.785C147.916 168.252 141.388 170.485 131.124 170.485C123.6 170.485 117.61 169.085 113.164 166.284C108.885 163.593 106.75 160.074 106.75 155.718C106.75 151.406 108.947 147.789 113.344 144.87C117.745 141.955 123.395 140.497 130.308 140.497C137.22 140.497 142.715 141.963 146.798 144.886C150.881 147.813 152.926 151.839 152.926 156.963V157.42ZM138.224 151.782C137.999 150.218 137.085 148.957 135.489 148.009C133.892 147.058 131.981 146.585 129.756 146.585C124.853 146.585 121.971 148.316 121.117 151.782H138.224Z" fill="#DA1A15"/>
<path d="M203.685 155.492C203.685 159.661 201.398 163.197 196.83 166.116C192.261 169.027 186.66 170.484 180.033 170.484C173.35 170.484 167.752 169.027 163.241 166.116C158.725 163.197 156.472 159.661 156.472 155.492C156.472 151.328 158.738 147.788 163.282 144.873C167.822 141.958 173.407 140.501 180.033 140.501C186.66 140.501 192.261 141.958 196.83 144.873C201.398 147.788 203.685 151.328 203.685 155.492ZM188.836 155.521C188.836 153.455 188.052 151.818 186.476 150.618C184.904 149.413 182.748 148.813 180.005 148.813C177.257 148.813 175.101 149.413 173.525 150.618C171.953 151.818 171.165 153.455 171.165 155.521C171.165 157.587 171.953 159.212 173.525 160.396C175.101 161.58 177.257 162.172 180.005 162.172C182.748 162.172 184.904 161.58 186.476 160.396C188.052 159.212 188.836 157.587 188.836 155.521ZM205.746 167.078L208.833 159.529C213.287 162.085 218.313 163.363 223.911 163.363C227.736 163.363 229.651 162.587 229.651 161.04C229.651 160.023 228.847 159.305 227.246 158.888C225.009 158.517 222.804 158.137 220.632 157.757C212.091 156.287 207.825 153.515 207.825 149.441C207.825 146.799 209.339 144.647 212.365 142.99C215.39 141.328 219.591 140.499 224.956 140.499C230.382 140.499 236.008 141.349 241.838 143.043L238.756 149.837C234.767 148.065 230.717 147.179 226.613 147.179C223.196 147.179 221.485 147.861 221.485 149.22C221.485 150.053 222.367 150.678 224.143 151.09C226.483 151.547 228.822 151.996 231.166 152.454C235.281 153.282 238.278 154.324 240.164 155.569C242.165 156.932 243.165 158.708 243.165 160.901C243.165 163.734 241.52 166.045 238.241 167.821C234.959 169.597 230.545 170.483 225.013 170.483C217.762 170.483 211.34 169.352 205.746 167.078ZM87.9061 154.946C87.7918 153.105 86.9099 151.631 85.4605 150.521C83.8886 149.32 81.7329 148.716 78.9852 148.716C76.2416 148.716 74.0819 149.32 72.51 150.521C71.0606 151.627 69.897 153.268 69.7827 155.11L69.8072 169.763H55.3869C55.3869 164.675 55.3828 159.56 55.3828 155.395C55.3828 151.235 57.7222 147.691 62.2664 144.78C66.8064 141.861 72.3916 140.403 79.0179 140.403C85.6442 140.403 91.2417 141.861 95.8144 144.78C100.383 147.691 102.694 151.235 102.694 155.395V169.763H87.9061C87.9061 169.763 87.9143 155.101 87.9061 154.946Z" fill="#DA1A15"/>
</g>
</svg>
