<svg width="480" height="320" viewBox="0 0 480 320" fill="none" xmlns="http://www.w3.org/2000/svg">
<path fill-rule="evenodd" clip-rule="evenodd" d="M295.877 143.761C301.47 155.094 301.224 166.397 295.144 177.725L290.909 175.276C296.43 165.743 296.68 155.953 291.656 145.914L295.877 143.761ZM301.306 128.046H336.589C311.598 132.952 289.063 142.93 268.964 157.999C278.591 173.05 298.252 184.668 327.99 192.852H280.825C268.087 189.931 259.334 182.25 254.577 169.789C250.635 173.022 246.854 176.715 243.249 180.839C249.683 187.544 257.991 190.616 268.164 190.035C270.712 191.576 273.013 192.718 275.059 193.446C261.474 196.916 249.879 193.86 240.209 184.326L238.58 186.623H230.198L235.686 178.91C229.853 168.74 228.67 158.757 232.125 148.955C235.8 137.755 244.048 130.164 256.893 126.19C266.813 123.788 276.262 125.621 285.217 131.679C283.572 132.371 282.088 133.234 280.766 134.27C274.511 130.877 268.146 129.467 261.711 130.044C260.626 135.741 261.369 141.861 263.938 148.433C275.832 138.645 288.286 131.853 301.306 128.046M235.394 155.033C234.287 161.874 235.419 168.44 238.798 174.759C242.862 169.077 247.415 163.89 252.445 159.185C251.195 152.368 251.791 143.316 254.223 132.043C244.034 136.272 237.765 143.94 235.394 155.033" fill="#EE3224"/>
<path d="M83.9828 138.099L95.632 168.605H95.7493L101.874 138.099H110.523L101.458 180.977H92.026L80.2578 150.893H80.1371L74.0141 180.977H65.2461L74.2571 138.099H83.9828ZM120.347 163.564V165.263C120.347 167.696 121.1 169.667 122.611 171.175C124.126 172.687 126.447 173.442 129.578 173.442C130.713 173.442 131.723 173.269 132.614 172.915C133.508 172.563 134.287 172.12 134.967 171.58C135.64 171.04 136.238 170.413 136.748 169.715C137.263 169.018 137.731 168.338 138.165 167.696H149.662C148.748 170.068 147.669 172.149 146.426 173.925C145.182 175.708 143.696 177.207 141.97 178.421C140.243 179.639 138.23 180.545 135.938 181.138C133.642 181.734 130.98 182.029 127.96 182.029C125.151 182.029 122.598 181.653 120.304 180.892C118.011 180.14 116.052 178.99 114.431 177.455C112.812 175.912 111.556 174.014 110.667 171.745C109.775 169.474 109.332 166.828 109.332 163.805C109.332 160.459 109.872 157.232 110.952 154.126C112.032 151.023 113.555 148.268 115.527 145.861C117.495 143.465 119.913 141.546 122.776 140.115C125.64 138.683 128.852 137.969 132.411 137.969C135.331 137.969 137.991 138.343 140.394 139.104C142.794 139.855 144.845 141.003 146.549 142.546C148.248 144.085 149.571 145.999 150.515 148.293C151.463 150.589 151.934 153.25 151.934 156.271C151.934 158.322 151.716 160.511 151.285 162.834H120.428C120.376 163.074 120.349 163.319 120.347 163.564ZM140.553 152.343C140.36 151.29 139.998 150.337 139.461 149.469C138.918 148.607 138.135 147.917 137.109 147.406C136.085 146.889 134.737 146.634 133.062 146.634C131.441 146.634 130.011 146.878 128.766 147.36C127.525 147.847 126.447 148.496 125.53 149.308C124.609 150.118 123.829 151.075 123.22 152.14C122.598 153.224 122.073 154.356 121.642 155.543H140.837C140.837 154.461 140.741 153.398 140.553 152.343Z" fill="#5E6E66"/>
<path d="M154.232 138.102H164.501L170.57 152.277L181.555 138.102H192.725L174.892 158.817L185.517 180.979H175.131L168.405 165.667L156.156 180.979H144.807L164.263 158.398L154.232 138.102Z" fill="#5E6E66"/>
<path d="M189.865 146.026L196.672 138.099H233.762C233.762 138.099 231.003 141.422 229.485 146.026H216.633L209.308 180.977H199.819L207.146 146.026H189.865ZM326.809 178.544C324.383 180.806 320.856 181.933 316.207 181.933C314.531 181.933 312.908 181.757 311.346 181.397C309.78 181.034 308.403 180.445 307.199 179.622C306 178.805 305.04 177.732 304.318 176.41C303.6 175.089 303.239 173.491 303.239 171.609C303.239 170.45 303.318 169.335 303.481 168.278C303.638 167.217 303.821 166.123 304.021 165.003H312.545C312.35 165.902 312.16 166.802 311.977 167.703C311.794 168.583 311.707 169.367 311.707 170.046C311.707 171.366 312.18 172.37 313.122 173.05C314.057 173.729 315.128 174.071 316.329 174.071C317.531 174.071 318.501 173.871 319.242 173.47C319.983 173.07 320.585 172.538 321.043 171.876C321.501 171.22 321.855 170.437 322.095 169.536C322.333 168.632 322.574 167.703 322.816 166.745L328.287 140.503L338.245 138.099L331.883 168.786C330.918 173.029 329.229 176.281 326.809 178.544ZM347.352 163.564V165.263C347.352 167.696 348.108 169.667 349.621 171.175C351.134 172.687 353.453 173.442 356.583 173.442C357.72 173.442 358.731 173.269 359.624 172.915C360.516 172.563 361.296 172.12 361.975 171.58C362.648 171.04 363.246 170.413 363.754 169.715C364.262 169.018 364.734 168.338 365.171 167.696H376.673C375.752 170.068 374.676 172.149 373.436 173.925C372.19 175.708 370.704 177.207 368.973 178.421C367.248 179.639 365.238 180.545 362.942 181.138C360.645 181.734 357.99 182.029 354.966 182.029C352.155 182.029 349.608 181.653 347.314 180.892C345.016 180.14 343.06 178.99 341.439 177.455C339.817 175.912 338.566 174.014 337.672 171.745C336.783 169.474 336.339 166.828 336.339 163.805C336.339 160.459 336.879 157.232 337.96 154.126C339.039 151.023 340.56 148.268 342.535 145.861C344.504 143.465 346.919 141.546 349.782 140.115C352.643 138.683 355.857 137.969 359.416 137.969C362.335 137.969 364.995 138.343 367.4 139.104C369.802 139.855 371.85 141.003 373.557 142.546C375.254 144.085 376.577 145.999 377.523 148.293C378.466 150.589 378.939 153.25 378.939 156.271C378.939 158.322 378.726 160.511 378.291 162.834H347.434C347.382 163.104 347.352 163.349 347.352 163.564M367.563 152.343C367.372 151.29 367.004 150.337 366.469 149.469C365.924 148.607 365.143 147.917 364.116 147.406C363.092 146.889 361.742 146.634 360.068 146.634C358.448 146.634 357.016 146.878 355.78 147.36C354.533 147.847 353.453 148.496 352.536 149.308C351.617 150.118 350.849 151.06 350.228 152.14C349.608 153.224 349.081 154.356 348.647 155.543H367.846C367.846 154.461 367.749 153.398 367.563 152.343Z" fill="#5E6E66"/>
<path d="M380.251 146.028C378.931 142.487 376.207 139.765 372.766 138.102H414.755L413.077 146.028H400.226L392.903 180.979H383.412L390.738 146.028H380.251Z" fill="#5E6E66"/>
</svg>
