<svg width="480" height="320" viewBox="0 0 480 320" fill="none" xmlns="http://www.w3.org/2000/svg">
<path d="M55.3848 194.055V246.582H67.4318V211.542L109.078 246.647L109.208 231.038L67.432 194.055H55.3848Z" fill="#009FE3"/>
<path d="M163.278 213.715V224.448H115.9V213.715H163.278Z" fill="#009FE3"/>
<path d="M113.521 194.078H125.257V246.59H113.521V194.078Z" fill="#009FE3"/>
<path d="M166.398 194.055V205.713H178.122V194.055H166.398ZM166.398 210.117V246.582H178.122V210.117H166.398Z" fill="black"/>
<path d="M222.813 106.23C156.094 106.23 97.2046 111.909 61.4082 118.213C97.7845 113.011 150.485 107.908 211.72 107.981C321.287 108.113 412.071 116.178 412.132 128.77C412.153 132.982 401.08 137.165 390.629 140.947C394.306 140.068 400.399 137.811 390.111 141.141C382.815 143.502 368.568 147.339 353.387 149.302L350.537 149.755C394.552 145.074 422.477 138.287 422.56 128.381C422.681 113.888 331.985 106.23 222.812 106.23H222.813Z" fill="black"/>
<path fill-rule="evenodd" clip-rule="evenodd" d="M182.424 244.925V218.531H187.265V222.277C189.571 219.351 192.963 217.932 197.359 217.932C199.277 217.932 201.035 218.195 202.656 218.78C204.232 219.365 205.442 220.112 206.242 221.033C207.041 221.97 207.589 223.081 207.908 224.34C208.114 225.159 208.217 226.637 208.217 228.699V244.924H202.828V228.875C202.828 227.061 202.622 225.686 202.2 224.764C201.789 223.871 201.035 223.154 199.996 222.599C198.923 222.072 197.667 221.808 196.228 221.808C193.922 221.808 191.946 222.379 190.314 223.623C188.647 224.866 187.802 227.119 187.802 230.514V244.924H182.424M237.047 244.925V241.589C235.072 244.237 232.091 245.524 228.175 245.524C225.629 245.524 223.323 244.968 221.21 243.783C219.098 242.598 217.431 241.018 216.278 238.911C215.125 236.834 214.519 234.464 214.519 231.757C214.519 229.124 215.068 226.739 216.095 224.574C217.134 222.423 218.744 220.814 220.856 219.643C222.969 218.487 225.332 217.932 227.935 217.932C229.842 217.932 231.555 218.239 233.051 218.926C234.535 219.614 235.768 220.477 236.693 221.56V208.48H242.036V244.925H237.047ZM220.046 231.757C220.046 235.137 220.925 237.653 222.615 239.336C224.304 241.018 226.348 241.852 228.677 241.852C231.041 241.852 233.062 241.077 234.683 239.438C236.316 237.814 237.138 235.415 237.138 232.123C237.138 228.524 236.293 225.876 234.626 224.179C232.971 222.467 230.892 221.633 228.449 221.633C226.051 221.633 224.042 222.438 222.466 224.076C220.868 225.7 220.046 228.246 220.046 231.757ZM271.3 244.925V241.048C268.846 244.061 265.466 245.524 261.23 245.524C259.346 245.524 257.61 245.232 256.001 244.632C254.356 244.017 253.146 243.301 252.381 242.364C251.582 241.457 251.034 240.375 250.714 239.058C250.497 238.195 250.383 236.805 250.383 234.888V218.532H255.761V233.177C255.761 235.503 255.886 237.068 256.092 237.888C256.412 239.058 257.142 239.965 258.238 240.653C259.346 241.34 260.693 241.677 262.303 241.677C263.913 241.677 265.443 241.34 266.848 240.623C268.24 239.95 269.28 239.014 269.862 237.814C270.421 236.644 270.73 234.932 270.73 232.665V218.531H276.107V244.924H271.3M282.387 237.053C284.157 236.805 285.938 236.585 287.708 236.351C288.005 238.121 288.85 239.468 290.22 240.433C291.556 241.384 293.474 241.852 295.917 241.852C298.406 241.852 300.233 241.443 301.421 240.579C302.608 239.746 303.213 238.765 303.213 237.653C303.213 236.629 302.677 235.839 301.638 235.254C300.884 234.859 299.057 234.376 296.134 233.747C292.195 232.899 289.466 232.211 287.948 231.582C286.429 230.967 285.253 230.148 284.477 229.065C283.677 227.983 283.278 226.827 283.278 225.539C283.278 224.369 283.62 223.286 284.271 222.262C284.888 221.253 285.801 220.448 286.897 219.775C287.731 219.248 288.873 218.839 290.334 218.444C291.773 218.093 293.325 217.932 294.97 217.932C297.447 217.932 299.662 218.21 301.535 218.824C303.419 219.439 304.8 220.214 305.691 221.238C306.582 222.262 307.221 223.623 307.552 225.335C305.794 225.539 304.035 225.73 302.288 225.934C302.06 224.574 301.352 223.535 300.233 222.76C299.069 221.97 297.447 221.604 295.358 221.604C292.88 221.604 291.11 221.94 290.06 222.628C289.021 223.316 288.484 224.091 288.484 225.013C288.484 225.583 288.701 226.11 289.135 226.578C289.592 227.061 290.277 227.441 291.202 227.778C291.738 227.953 293.325 228.305 295.952 228.919C299.742 229.782 302.414 230.455 303.933 230.982C305.428 231.538 306.604 232.313 307.461 233.337C308.317 234.376 308.751 235.649 308.751 237.17C308.751 238.663 308.226 240.038 307.187 241.369C306.159 242.701 304.618 243.696 302.654 244.427C300.679 245.173 298.429 245.524 295.952 245.524C291.83 245.524 288.678 244.822 286.543 243.388C284.362 241.955 282.969 239.862 282.387 237.053ZM326.883 240.93C327.134 242.247 327.408 243.564 327.659 244.881C326.14 245.159 324.793 245.276 323.594 245.276C321.653 245.276 320.135 245.042 319.05 244.5C317.977 243.974 317.223 243.315 316.789 242.467C316.344 241.647 316.127 239.877 316.127 237.2V222.013H312.188V218.531H316.127V211.992C317.908 211.085 319.701 210.222 321.482 209.3V218.532H326.883V222.013H321.482V237.448C321.482 238.721 321.573 239.526 321.779 239.906C321.95 240.287 322.258 240.55 322.704 240.784C323.115 241.004 323.72 241.106 324.519 241.106C325.124 241.106 325.901 241.048 326.882 240.93M332.089 244.925V218.531H336.919V222.525C338.141 220.653 339.316 219.438 340.367 218.824C341.406 218.224 342.548 217.932 343.804 217.932C345.619 217.932 347.446 218.385 349.33 219.38C348.713 220.77 348.085 222.13 347.48 223.52C346.167 222.862 344.843 222.555 343.53 222.555C342.365 222.555 341.292 222.847 340.367 223.432C339.442 224.032 338.746 224.837 338.357 225.89C337.775 227.485 337.467 229.211 337.467 231.113V244.924H332.089M352.55 213.63V208.48H357.939V213.63H352.55ZM352.55 244.925V218.531H357.939V244.924H352.55V244.925ZM387.854 236.424C389.704 236.615 391.553 236.805 393.414 236.995C392.558 239.716 390.891 241.764 388.539 243.286C386.187 244.808 383.127 245.524 379.45 245.524C374.826 245.524 371.127 244.369 368.421 241.94C365.726 239.555 364.333 236.249 364.333 231.948C364.333 227.5 365.726 224.106 368.455 221.604C371.184 219.117 374.758 217.932 379.153 217.932C383.401 217.932 386.883 219.087 389.555 221.531C392.227 223.974 393.586 227.324 393.586 231.684C393.586 231.948 393.586 232.343 393.563 232.869H369.894C370.099 235.781 371.092 237.975 372.851 239.526C374.598 241.091 376.824 241.852 379.485 241.852C381.46 241.852 383.138 241.443 384.531 240.55C385.936 239.672 387.055 238.326 387.854 236.424H387.854ZM370.19 229.197H387.911C387.671 226.973 386.975 225.335 385.878 224.193C384.189 222.452 381.939 221.604 379.21 221.604C376.733 221.604 374.666 222.292 372.999 223.667C371.298 225.057 370.362 226.885 370.19 229.197ZM398.016 237.053C399.785 236.805 401.555 236.585 403.325 236.351C403.622 238.121 404.478 239.468 405.837 240.433C407.184 241.384 409.102 241.852 411.546 241.852C414.035 241.852 415.862 241.443 417.049 240.579C418.237 239.746 418.842 238.765 418.842 237.653C418.842 236.629 418.294 235.839 417.255 235.254C416.513 234.859 414.686 234.376 411.763 233.747C407.812 232.899 405.095 232.211 403.565 231.582C402.046 230.967 400.87 230.148 400.105 229.065C399.306 227.983 398.906 226.827 398.906 225.539C398.906 224.369 399.237 223.286 399.888 222.262C400.516 221.253 401.43 220.448 402.526 219.775C403.359 219.248 404.501 218.839 405.962 218.444C407.39 218.093 408.954 217.932 410.598 217.932C413.076 217.932 415.291 218.21 417.163 218.824C419.047 219.439 420.429 220.214 421.32 221.238C422.21 222.262 422.85 223.623 423.181 225.335C421.422 225.539 419.664 225.73 417.917 225.934C417.677 224.574 416.981 223.535 415.85 222.76C414.697 221.97 413.076 221.604 410.986 221.604C408.497 221.604 406.739 221.94 405.688 222.628C404.649 223.316 404.113 224.091 404.113 225.013C404.113 225.583 404.318 226.11 404.764 226.578C405.209 227.061 405.905 227.441 406.83 227.778C407.367 227.953 408.954 228.305 411.58 228.919C415.371 229.782 418.031 230.455 419.561 230.982C421.046 231.538 422.221 232.313 423.078 233.337C423.946 234.376 424.368 235.649 424.368 237.17C424.368 238.663 423.854 240.038 422.815 241.369C421.776 242.701 420.246 243.696 418.271 244.427C416.307 245.173 414.058 245.524 411.58 245.524C407.458 245.524 404.307 244.822 402.16 243.388C399.991 241.955 398.598 239.862 398.016 237.053Z" fill="black"/>
<path d="M182.424 244.925V218.531H187.265V222.277C189.571 219.351 192.963 217.932 197.359 217.932C199.277 217.932 201.035 218.195 202.656 218.78C204.232 219.365 205.442 220.112 206.242 221.033C207.041 221.97 207.589 223.081 207.908 224.34C208.114 225.159 208.217 226.637 208.217 228.699V244.924H202.828V228.875C202.828 227.061 202.622 225.686 202.2 224.764C201.789 223.871 201.035 223.154 199.996 222.599C198.923 222.072 197.667 221.808 196.228 221.808C193.922 221.808 191.946 222.379 190.314 223.623C188.647 224.866 187.802 227.119 187.802 230.514V244.924H182.424M271.3 244.925V241.048C268.846 244.061 265.466 245.524 261.23 245.524C259.346 245.524 257.61 245.232 256.001 244.632C254.356 244.017 253.146 243.301 252.381 242.364C251.582 241.457 251.034 240.375 250.714 239.058C250.497 238.195 250.383 236.805 250.383 234.888V218.532H255.761V233.177C255.761 235.503 255.886 237.068 256.092 237.888C256.412 239.058 257.142 239.965 258.238 240.653C259.346 241.34 260.693 241.677 262.303 241.677C263.913 241.677 265.443 241.34 266.848 240.623C268.24 239.95 269.28 239.014 269.862 237.814C270.421 236.644 270.73 234.932 270.73 232.665V218.531H276.107V244.924H271.3M282.387 237.053C284.157 236.805 285.938 236.585 287.708 236.351C288.005 238.121 288.85 239.468 290.22 240.433C291.556 241.384 293.474 241.852 295.917 241.852C298.406 241.852 300.233 241.443 301.421 240.579C302.608 239.746 303.213 238.765 303.213 237.653C303.213 236.629 302.677 235.839 301.638 235.254C300.884 234.859 299.057 234.376 296.134 233.747C292.195 232.899 289.466 232.211 287.948 231.582C286.429 230.967 285.253 230.148 284.477 229.065C283.677 227.983 283.278 226.827 283.278 225.539C283.278 224.369 283.62 223.286 284.271 222.262C284.888 221.253 285.801 220.448 286.897 219.775C287.731 219.248 288.873 218.839 290.334 218.444C291.773 218.093 293.325 217.932 294.97 217.932C297.447 217.932 299.662 218.21 301.535 218.824C303.419 219.439 304.8 220.214 305.691 221.238C306.582 222.262 307.221 223.623 307.552 225.335C305.794 225.539 304.035 225.73 302.288 225.934C302.06 224.574 301.352 223.535 300.233 222.76C299.069 221.97 297.447 221.604 295.358 221.604C292.88 221.604 291.11 221.94 290.06 222.628C289.021 223.316 288.484 224.091 288.484 225.013C288.484 225.583 288.701 226.11 289.135 226.578C289.592 227.061 290.277 227.441 291.202 227.778C291.738 227.953 293.325 228.305 295.952 228.919C299.742 229.782 302.414 230.455 303.933 230.982C305.428 231.538 306.604 232.313 307.461 233.337C308.317 234.376 308.751 235.649 308.751 237.17C308.751 238.663 308.226 240.038 307.187 241.369C306.159 242.701 304.618 243.696 302.654 244.427C300.679 245.173 298.429 245.524 295.952 245.524C291.83 245.524 288.678 244.822 286.543 243.388C284.362 241.955 282.969 239.862 282.387 237.053M326.883 240.93C327.134 242.247 327.408 243.564 327.659 244.881C326.14 245.159 324.793 245.276 323.594 245.276C321.653 245.276 320.135 245.042 319.05 244.5C317.977 243.974 317.223 243.315 316.789 242.467C316.344 241.647 316.127 239.877 316.127 237.2V222.013H312.188V218.531H316.127V211.992C317.908 211.085 319.701 210.222 321.482 209.3V218.532H326.883V222.013H321.482V237.448C321.482 238.721 321.573 239.526 321.779 239.906C321.95 240.287 322.258 240.55 322.704 240.784C323.115 241.004 323.72 241.106 324.519 241.106C325.124 241.106 325.901 241.048 326.882 240.93M332.089 244.925V218.531H336.919V222.525C338.141 220.653 339.316 219.438 340.367 218.824C341.406 218.224 342.548 217.932 343.804 217.932C345.619 217.932 347.446 218.385 349.33 219.38C348.713 220.77 348.085 222.13 347.48 223.52C346.167 222.862 344.843 222.555 343.53 222.555C342.365 222.555 341.292 222.847 340.367 223.432C339.442 224.032 338.746 224.837 338.357 225.89C337.775 227.485 337.467 229.211 337.467 231.113V244.924H332.089M398.016 237.053C399.785 236.805 401.555 236.585 403.325 236.351C403.622 238.121 404.478 239.468 405.837 240.433C407.184 241.384 409.102 241.852 411.546 241.852C414.035 241.852 415.862 241.443 417.049 240.579C418.237 239.746 418.842 238.765 418.842 237.653C418.842 236.629 418.294 235.839 417.255 235.254C416.513 234.859 414.686 234.376 411.763 233.747C407.812 232.899 405.095 232.211 403.565 231.582C402.046 230.967 400.87 230.148 400.105 229.065C399.306 227.983 398.906 226.827 398.906 225.539C398.906 224.369 399.237 223.286 399.888 222.262C400.516 221.253 401.43 220.448 402.526 219.775C403.359 219.248 404.501 218.839 405.962 218.444C407.39 218.093 408.954 217.932 410.598 217.932C413.076 217.932 415.291 218.21 417.163 218.824C419.047 219.439 420.429 220.214 421.32 221.238C422.21 222.262 422.85 223.623 423.181 225.335C421.422 225.539 419.664 225.73 417.917 225.934C417.677 224.574 416.981 223.535 415.85 222.76C414.697 221.97 413.076 221.604 410.986 221.604C408.497 221.604 406.739 221.94 405.688 222.628C404.649 223.316 404.113 224.091 404.113 225.013C404.113 225.583 404.318 226.11 404.764 226.578C405.209 227.061 405.905 227.441 406.83 227.778C407.367 227.953 408.954 228.305 411.58 228.919C415.371 229.782 418.031 230.455 419.561 230.982C421.046 231.538 422.221 232.313 423.078 233.337C423.946 234.376 424.368 235.649 424.368 237.17C424.368 238.663 423.854 240.038 422.815 241.369C421.776 242.701 420.246 243.696 418.271 244.427C416.307 245.173 414.058 245.524 411.58 245.524C407.458 245.524 404.307 244.822 402.16 243.388C399.991 241.955 398.598 239.862 398.016 237.053M237.047 244.925V241.589C235.072 244.237 232.091 245.524 228.175 245.524C225.629 245.524 223.323 244.968 221.21 243.783C219.098 242.598 217.431 241.018 216.278 238.911C215.125 236.834 214.519 234.464 214.519 231.757C214.519 229.124 215.068 226.739 216.095 224.574C217.134 222.423 218.744 220.814 220.856 219.643C222.969 218.487 225.332 217.932 227.935 217.932C229.842 217.932 231.555 218.239 233.051 218.926C234.535 219.614 235.768 220.477 236.693 221.56V208.48H242.036V244.925H237.047ZM220.046 231.757C220.046 235.137 220.925 237.653 222.615 239.336C224.304 241.018 226.348 241.852 228.677 241.852C231.041 241.852 233.062 241.077 234.683 239.438C236.316 237.814 237.138 235.415 237.138 232.123C237.138 228.524 236.293 225.876 234.626 224.179C232.971 222.467 230.892 221.633 228.449 221.633C226.051 221.633 224.042 222.438 222.466 224.076C220.868 225.7 220.046 228.246 220.046 231.757V231.757ZM352.55 213.63V208.48H357.939V213.63H352.55V213.63ZM352.55 244.925V218.531H357.939V244.924H352.55V244.925ZM387.854 236.424C389.704 236.615 391.553 236.805 393.414 236.995C392.558 239.716 390.891 241.764 388.539 243.286C386.187 244.808 383.127 245.524 379.45 245.524C374.826 245.524 371.127 244.369 368.421 241.94C365.726 239.555 364.333 236.249 364.333 231.948C364.333 227.5 365.726 224.106 368.455 221.604C371.184 219.117 374.758 217.932 379.153 217.932C383.401 217.932 386.883 219.087 389.555 221.531C392.227 223.974 393.586 227.324 393.586 231.684C393.586 231.948 393.586 232.343 393.563 232.869H369.894C370.099 235.781 371.092 237.975 372.851 239.526C374.598 241.091 376.824 241.852 379.485 241.852C381.46 241.852 383.138 241.443 384.531 240.55C385.936 239.672 387.055 238.326 387.854 236.424H387.854ZM370.19 229.197H387.911C387.671 226.973 386.975 225.335 385.879 224.193C384.189 222.452 381.939 221.604 379.21 221.604C376.733 221.604 374.666 222.292 372.999 223.667C371.298 225.057 370.362 226.885 370.19 229.197V229.197Z" stroke="black" stroke-width="1.39398"/>
<path d="M244.056 137.578L226.18 137.837C216.133 137.481 214.559 157.147 212.449 167.631L220.481 191.984L269.689 192.016L276.441 167.631C276.157 165.675 272.824 137.087 264.523 137.837L244.056 137.578Z" stroke="black" stroke-width="5.18152"/>
<path d="M213.73 172.094C211.806 172.656 200.95 174.585 201.095 176.713L201.051 191.983H221M275.947 172.094C277.87 172.656 288.727 174.585 288.581 176.713L288.626 191.983H268.677M213.203 167.009L219.156 168.383C237.569 152.827 263.581 162.216 269.443 168.75L276.222 166.185" stroke="black" stroke-width="5.18152"/>
<path d="M265.749 180.614C261.591 190.089 259.261 191.974 244.893 191.989C227.955 192.007 227.136 185.598 225.32 180.614C222.465 172.777 234.371 169.422 245.535 169.422C256.699 169.422 268.579 174.164 265.749 180.614V180.614Z" stroke="black" stroke-width="5.324"/>
<path d="M217.511 145.153L211.671 135.5L211.553 125.701C211.418 121.385 213.704 121.427 215.949 121.396H272.556C276.77 120.997 277.245 123.353 276.861 126.342L277.12 136.018L271.457 145.486" stroke="black" stroke-width="5.18152"/>
<path d="M255.154 121.944C255.295 124.149 247.575 127.155 244.911 127.072C242.128 126.985 235.028 124.213 235.186 121.944C235.639 115.459 239.656 115.716 245.17 115.716C250.684 115.716 254.722 115.184 255.154 121.944ZM243.888 108.113H245.537V114.708H243.888V108.113Z" fill="white" stroke="black" stroke-width="5.02089"/>
<path d="M235.277 103.625H253.597V111.869H235.278L235.277 103.625Z" fill="black"/>
<path d="M226.301 105.273H257.733V110.128H226.301L226.301 105.273Z" fill="black"/>
<path d="M256.908 98.9258L256.816 105.192H262.101L262.009 99.0174L256.908 98.9258ZM256.816 106.617V116.98H262.192V110.114L257.27 109.985L257.334 108.43L262.192 108.625V106.617H256.816Z" fill="black"/>
<path d="M259.438 73.3516L259.434 100.984" stroke="black" stroke-width="4.04159"/>
<path d="M259.699 112.461L259.6 121.164" stroke="black" stroke-width="4.51673"/>
<path d="M255.65 104.223H263.099V105.972H255.65V104.223ZM255.78 109.21H263.228V110.959H255.78V109.21Z" fill="black"/>
</svg>
