<svg width="480" height="320" viewBox="0 0 480 320" fill="none" xmlns="http://www.w3.org/2000/svg">
<path fill-rule="evenodd" clip-rule="evenodd" d="M417.617 143.086C412.69 119.214 393.746 95.7219 371.011 85.1116L370.253 83.5963C375.937 81.3222 381.241 82.0805 386.925 82.8388C391.472 82.8388 396.398 87.7644 399.808 83.5963C388.441 76.7758 375.937 73.3651 363.811 68.0608C311.522 55.1773 251.654 48.7364 195.195 57.0731C141.011 65.0293 74.7012 86.6269 61.8176 148.39C58.4083 181.735 71.2909 211.29 99.3298 230.614C173.218 277.979 292.955 278.736 367.22 232.509C398.67 213.942 424.436 181.356 417.616 143.086L417.617 143.086ZM369.874 201.059H367.979C366.463 173.778 372.526 148.012 374.8 121.488C372.525 116.562 368.736 112.394 363.81 110.12C357.748 109.362 353.201 111.636 350.17 116.562C342.971 143.844 344.486 175.293 341.455 204.849C341.455 209.016 345.244 212.806 349.033 214.321V216.595C305.459 242.36 250.516 246.149 197.09 241.603C167.155 237.056 138.737 230.236 114.487 212.048L114.108 209.774L130.78 160.516H132.675L156.925 220.763C162.988 226.068 169.05 230.614 178.145 228.72C180.418 226.825 184.207 224.552 184.586 221.521C186.48 182.114 191.406 144.601 204.289 110.12C203.91 106.331 200.5 102.921 197.09 101.027C187.996 97.6159 181.554 104.816 175.871 109.742C170.944 127.929 166.019 145.738 163.746 165.063H161.851C155.409 148.769 147.452 133.613 144.8 115.804C140.253 110.879 133.433 110.499 127.749 110.879C123.202 112.015 118.655 115.804 116.76 120.351C108.425 141.949 103.498 165.063 94.4047 186.282H92.1311C85.6898 173.02 83.0374 153.317 89.4787 139.297C119.035 88.1435 179.66 81.3235 234.982 77.9128C261.884 77.9128 290.303 78.6703 314.553 87.0069C344.866 92.6899 379.347 105.573 391.472 137.402C396.398 161.274 389.957 185.524 369.874 201.059H369.874ZM329.33 109.362C310.005 107.847 295.607 121.867 280.071 132.476H276.661C277.419 123.382 277.419 113.909 279.314 106.331C277.04 102.163 271.357 98.3743 265.673 97.9955C260.368 99.1317 255.063 102.542 253.548 107.847L249.001 151.421L242.938 157.106C241.801 161.273 245.212 163.547 247.106 166.578L239.907 215.837L241.044 223.794C242.938 228.341 247.864 231.372 252.79 231.751C258.474 230.993 264.915 227.962 266.81 221.899L270.599 185.903L271.736 184.008C278.935 187.797 285.756 192.344 292.576 197.27C305.08 203.333 311.9 220.384 328.194 217.353C330.467 216.216 334.256 214.7 335.014 211.29C336.529 205.607 334.636 200.301 331.984 195.754C316.068 183.629 299.776 170.368 283.861 159.378C294.47 150.285 306.596 143.086 318.342 135.507C324.026 126.792 348.276 135.507 339.182 117.32C336.908 113.531 333.119 110.499 329.331 109.362L329.33 109.362ZM222.856 103.679C219.067 104.816 215.277 107.468 214.141 110.879C208.078 144.98 203.91 179.462 197.468 213.564L198.605 221.521C200.5 226.067 205.805 227.962 209.593 230.614C214.141 230.993 220.582 230.236 222.856 224.931L239.149 111.636C235.359 106.71 230.055 102.163 222.856 103.679H222.856Z" fill="#C20437"/>
</svg>
