<svg width="480" height="320" viewBox="0 0 480 320" fill="none" xmlns="http://www.w3.org/2000/svg">
<path d="M92.9078 134.562V205.914H55.6328V75.5352H90.6959C90.6959 75.5352 95.5666 75.605 101.049 79.1658C105.755 82.2234 107.369 85.7541 107.369 85.7541L138.025 142.36L138.428 143.57C138.831 144.78 139.239 145.99 139.239 145.99V75.5352H176.514V205.914H142.327C142.327 205.914 136.892 205.719 132.646 203.026C126.899 199.383 124.982 195.626 124.982 195.626L94.5953 139.537L93.7885 137.923C93.5196 137.385 92.9078 134.562 92.9078 134.562M317.927 191.462C324.784 184.605 330.028 177.535 330.028 177.535H386.265V205.914H423.306V75.5352H380.527C380.527 75.5352 348.521 75.2965 328.548 105.25C322.632 114.124 320.616 126.763 308.38 144.377C298.274 158.937 288.077 168.184 288.077 168.184H225.286C225.286 168.184 223.344 159.584 223.344 140.747C223.344 121.788 225.286 112.58 225.286 112.58H305.288V75.5352H210.575C210.575 75.5352 197.723 76.0732 192.887 86.4261C189.235 94.2337 186.064 116.007 186.064 140.747C186.064 166.987 190.037 189.307 192.887 194.355C199.28 205.719 210.496 205.233 210.496 205.233H302.061C302.061 205.233 310.358 199.036 317.927 191.463L317.927 191.462ZM386.265 112.645V140.465H353.827C353.827 140.465 357.457 126.898 364.314 120.444C373.349 111.942 386.265 112.645 386.265 112.645" fill="#001171"/>
<path d="M62.9316 225.273V238.107H55.3848V212.96H62.9316L70.8254 225.955V212.96H78.3766V238.108H70.8254L62.9316 225.273ZM207.476 219.505C208.218 221.218 208.158 222.385 208.158 222.385H200.871C200.871 222.385 200.033 218.767 196.681 218.767C193.272 218.767 191.754 221.86 191.754 225.69C191.754 225.69 191.489 232.551 196.785 232.551C200.871 232.551 201.135 228.73 201.135 228.73H208.314C208.314 228.73 208.465 229.975 207.893 231.51C206.635 234.863 203.595 238.684 196.837 238.684C190.917 238.684 184.103 234.703 184.103 225.638C184.103 216.729 190.917 212.695 196.208 212.695C202.827 212.695 206.24 216.66 207.476 219.505ZM310.106 213.112H302.663L293.255 238.107H300.963L302.221 234.442H310.414L311.676 238.107H319.487L310.106 213.112ZM303.908 229.52L306.306 222.524L308.718 229.52H303.908ZM211.276 222.853C212.043 221.457 213.527 219.396 218.923 219.288C223.433 219.201 226.157 219.921 227.853 222.311C229.28 224.328 228.569 231.077 228.938 236.321C228.963 236.746 229.462 237.752 229.462 237.752H222.54C222.54 237.752 222.332 237.422 222.123 236.789C221.911 236.16 221.807 236.06 221.807 236.06C221.807 236.06 220.289 238.312 216.095 238.312C212.833 238.312 210.751 236.949 210.018 234.694C209.198 232.179 210.222 229.637 212.221 228.613C214.785 227.307 219.682 227.147 221.178 226.358C222.176 225.841 221.807 224.632 221.235 224.107C220.519 223.46 218.719 223.538 217.773 224.107C216.988 224.58 216.884 226.097 216.884 226.097L210.699 225.946C210.699 225.946 210.505 224.25 211.276 222.854V222.853ZM221.911 229.663C221.911 229.663 220.098 230.4 219.083 230.713C217.877 231.077 216.463 231.393 216.359 232.339C216.229 233.493 217.348 234.72 219.556 234.169C222.7 233.384 221.911 229.663 221.911 229.663ZM394.874 219.158C389.37 219.139 384.915 223.547 384.915 228.96C384.915 234.382 388.927 238.585 394.952 238.585C399.41 238.585 403.596 236.372 404.806 232.452H398.101C397.519 233.601 396.218 233.965 395.216 233.965C393.421 233.965 392.111 232.595 391.625 230.665H405.018C405.383 227.468 403.44 219.193 394.874 219.158ZM391.703 226.844C392.232 225.121 393.429 223.963 395.009 223.963C396.318 223.963 398.045 225.065 398.045 226.844H391.703ZM259.277 228.31C259.277 230.5 257.737 232.274 255.837 232.274C253.938 232.274 252.398 230.5 252.398 228.31C252.398 226.123 253.938 224.345 255.837 224.345C257.737 224.345 259.277 226.123 259.277 228.31ZM265.505 236.481V219.852H259.147V222.081C257.75 220.285 255.751 219.279 253.53 219.279C249.097 219.279 245.935 223.404 245.888 228.24C245.827 234.603 249.999 237.119 252.866 237.184C255.087 237.236 257.355 236.559 258.891 235.44V236.238C258.891 236.238 259.073 239.491 256.922 239.881C254.614 240.302 253.86 238.797 253.86 238.797H247.445C247.445 238.797 247.687 241.868 250.758 243.49C253.946 245.164 260.439 244.531 262.625 242.735C265.475 240.389 265.505 236.481 265.505 236.481M81.2393 213.016H88.0318V217.709H81.2393V213.016ZM81.2393 238.107H88.0318V220.294H81.2393V238.107ZM321.114 213.016H327.906V217.709H321.114V213.016ZM321.114 238.107H327.906V220.294H321.114V238.107ZM354.728 213.016H361.52V217.709H354.728V213.016ZM354.728 238.107H361.52V220.294H354.728V238.107ZM345.585 212.981H352.377V238.107H345.585V212.981ZM175.172 225.92V238.107H167.946V227.173C167.946 227.173 167.556 225.096 165.721 225.096C162.785 225.096 162.772 228.08 162.772 228.08V238.107H155.819V220.082H162.455L162.489 222.038C162.489 222.038 165.963 218.633 170.122 219.54C175.262 220.659 175.17 225.92 175.17 225.92M383.749 225.92V238.107H376.518V227.173C376.518 227.173 376.136 225.096 374.302 225.096C371.366 225.096 371.348 228.08 371.348 228.08V238.107H364.396V220.082H371.036L371.065 222.038C371.065 222.038 374.54 218.633 378.699 219.54C383.839 220.659 383.748 225.92 383.748 225.92M146.581 225.039C147.184 225.937 147.309 227.386 147.309 228.8C147.309 230.322 147.144 231.493 146.511 232.443C145.883 233.389 144.92 233.736 144.152 233.736C141.931 233.736 141.025 231.332 141.025 228.917C141.025 226.189 142.109 223.851 144.152 223.851C144.998 223.851 146.017 224.189 146.581 225.039ZM144.221 219.21C138.162 219.21 134.111 223.131 134.111 228.969C134.111 234.204 138.128 238.312 144.278 238.312C150.602 238.312 154.31 233.805 154.31 228.756C154.31 224.029 150.844 219.21 144.221 219.21ZM279.424 225.039C280.026 225.937 280.152 227.386 280.152 228.8C280.152 230.322 279.987 231.493 279.354 232.443C278.721 233.389 277.762 233.736 276.995 233.736C274.774 233.736 273.867 231.332 273.867 228.917C273.867 226.189 274.952 223.851 276.995 223.851C277.836 223.851 278.856 224.189 279.424 225.039ZM277.064 219.21C271.001 219.21 266.95 223.131 266.95 228.969C266.95 234.204 270.966 238.312 277.116 238.312C283.44 238.312 287.153 233.805 287.153 228.756C287.153 224.029 283.687 219.21 277.064 219.21ZM110.924 229.012C110.924 235.015 107.463 238.667 103.099 238.667C101.842 238.667 99.1871 238.194 97.7038 236.346V243.75H90.8379V220.168H97.4739L97.507 221.99C98.9209 220.364 101.012 219.28 103.098 219.28C107.461 219.28 110.922 223.244 110.922 229.012H110.924ZM100.761 224.996C98.6972 224.996 97.5301 226.909 97.5301 229.273C97.5301 231.636 98.7361 233.553 100.762 233.553C102.787 233.553 103.988 231.636 103.988 229.273C103.988 226.909 102.822 224.996 100.761 224.996ZM132.823 229.012C132.823 235.015 129.362 238.667 124.998 238.667C123.741 238.667 121.082 238.194 119.598 236.346V243.75H112.737V220.168H119.373L119.406 221.99C120.815 220.364 122.906 219.28 124.997 219.28C129.36 219.28 132.821 223.244 132.821 229.012H132.823ZM122.656 224.996C120.596 224.996 119.425 226.909 119.425 229.273C119.425 231.636 120.631 233.553 122.656 233.553C124.682 233.553 125.887 231.636 125.887 229.273C125.887 226.909 124.717 224.996 122.656 224.996ZM238.475 229.424V238.107H231.609V220.029H238.176L238.28 222.268C238.28 222.268 240.097 220.411 241.776 219.93C243.454 219.44 245.024 219.852 245.024 219.852V225.724C245.024 225.724 242.908 225.282 241.424 225.868C238.423 227.056 238.475 229.424 238.475 229.424M337.396 229.424V238.107H330.53V220.029H337.096L337.201 222.268C337.201 222.268 339.018 220.411 340.696 219.93C342.371 219.44 343.945 219.852 343.945 219.852V225.724C343.945 225.724 341.824 225.282 340.349 225.868C337.344 227.056 337.396 229.424 337.396 229.424M417.588 225.048H423.912C423.912 225.048 424.714 219.253 415.211 219.388C407.912 219.487 406.337 223.2 406.48 225.603C406.897 232.807 417.983 229.697 417.836 232.872C417.762 234.338 415.879 234.694 414.548 234.304C412.791 233.796 412.804 231.901 412.804 231.901H406.233C406.233 231.901 405.747 238.498 415.32 238.498C423.14 238.498 425.14 234.659 424.506 231.059C423.353 224.489 412.21 227.247 413.19 224.241C413.511 223.252 415.524 223.2 416.504 223.478C417.636 223.803 417.588 225.048 417.588 225.048Z" fill="#4A4B4F"/>
</svg>
