<svg width="480" height="320" viewBox="0 0 480 320" fill="none" xmlns="http://www.w3.org/2000/svg">
<path d="M56.6875 159.998C56.6875 133.092 78.5059 111.27 105.416 111.27C132.321 111.27 154.144 133.092 154.144 159.998C154.144 186.912 132.321 208.726 105.416 208.726C78.5059 208.726 56.6875 186.911 56.6875 159.998Z" fill="white"/>
<path d="M105.417 112.576C79.2604 112.576 57.9926 133.849 57.9926 159.997C57.9926 186.145 79.2604 207.416 105.417 207.416C131.556 207.416 152.832 186.145 152.832 159.997C152.832 133.849 131.556 112.576 105.417 112.576ZM105.417 210.028C77.8242 210.028 55.3848 187.589 55.3848 159.997C55.3848 132.416 77.8242 109.969 105.417 109.969C133.005 109.969 155.44 132.416 155.44 159.997C155.44 187.589 133.005 210.028 105.417 210.028Z" fill="#231F20"/>
<path d="M93.5416 153.767C91.1863 153.792 87.4155 154.168 85.5155 154.222C83.6074 154.28 82.1628 152.521 82.7754 150.72C83.4003 148.92 85.499 142.918 92.5359 136.245C100.276 128.902 107.524 126.729 108.708 126.419C109.909 126.104 111.606 126.501 112.818 127.461C122.314 135.053 120.882 142.38 127.29 148.44C131.739 152.645 129.363 158.635 125.733 161.346C120.373 165.361 103.021 172.278 98.132 173.251C94.4481 173.979 91.9065 173.346 91.2773 171.326C90.8468 169.898 92.3784 164.782 92.7715 161.54C93.1566 158.449 93.4627 154.284 93.5416 153.767" fill="#231F20"/>
<path fill-rule="evenodd" clip-rule="evenodd" d="M110.996 161.693C112.523 160.675 113.794 160.285 113.777 159.574C113.76 158.857 112.254 156.005 108.657 156.999C105.06 157.988 102.423 159.656 100.664 162.02C100.664 162.02 101.728 159.81 103.147 158.435C104.567 157.069 105.027 156.783 105.027 156.783C105.027 156.783 102.502 155.625 100.457 157.069C98.4204 158.506 97.2489 160.029 96.7274 163.146C96.21 166.254 96.9799 167.517 97.7166 167.691C98.4492 167.86 100.275 167.107 101.223 166.635C102.175 166.176 109.476 162.719 110.996 161.693" fill="#EA2227"/>
<path fill-rule="evenodd" clip-rule="evenodd" d="M95.0809 153.664C95.0809 153.664 95.0106 157.212 94.2697 161.425C93.5329 165.652 91.873 170.739 93.1977 171.592C95.4824 173.065 101.36 171 109.022 167.738C116.701 164.472 123.365 162.034 125.704 159.132C127.504 156.901 128.369 154.55 127.529 151.801C126.916 149.802 123.593 147.348 122.806 146.023C122.02 144.703 116.891 134.131 114.275 131.598C111.663 129.077 110.889 127.591 107.851 128.626C104.829 129.665 97.4074 133.261 92.4236 138.804C87.444 144.334 85.7138 147.633 84.3397 151.45C84.1078 152.095 85.1797 153.102 87.3282 152.778C89.4848 152.451 99.8371 151.967 105.574 152.952C111.303 153.954 120.381 154.674 122.641 154.107C124.876 153.536 125.882 153.081 124.495 154.451C122.38 156.541 119.313 159.468 107.909 165.101C105.487 166.302 97.0308 170.615 95.3956 169.153C94.1704 168.061 95.226 165.37 95.9917 160.643C96.5754 157.042 96.8901 153.644 96.8901 153.644L95.0812 153.664" fill="#FFCC08"/>
<path fill-rule="evenodd" clip-rule="evenodd" d="M106.931 139.529C107.188 139.032 108.301 137.422 109.299 137.182C110.313 136.95 111.223 137.513 110.333 138.237C109.435 138.958 108.694 139.061 108.16 139.4C107.626 139.744 106.67 140.03 106.931 139.529" fill="#231F20"/>
<path fill-rule="evenodd" clip-rule="evenodd" d="M113.733 183.054C113.733 184.056 112.657 186.167 108.749 188.712C107.458 189.536 104.403 189.619 101.361 189.619L100.835 189.545C99.8956 189.031 99.4277 188.344 99.4277 187.479C99.4277 187.049 99.5892 186.394 99.8956 185.537C100.202 184.66 100.359 184.01 100.359 183.571L100.202 183.22L100.049 182.843C100.049 182.611 100.802 182.168 102.292 181.535C103.815 180.897 104.834 180.57 105.359 180.57C106.854 180.57 108.564 180.823 110.505 181.324C112.653 181.866 113.733 182.446 113.733 183.054Z" fill="#FFCC08"/>
<path d="M107.532 184.772C106.932 184.325 106.294 184.205 104.969 183.99C104.593 183.907 104.013 183.99 103.955 183.99C104.059 183.99 103.906 184.031 103.475 184.118C103.305 184.689 103.223 185.008 103.223 185.066C103.223 185.807 103.715 186.175 104.68 186.175C105.168 186.175 105.723 186.055 106.344 185.819C106.973 185.575 107.382 184.996 107.532 184.772" fill="white"/>
<path fill-rule="evenodd" clip-rule="evenodd" d="M96.939 185.984C96.939 186.514 96.7487 187.652 96.3762 189.399C95.5732 189.552 94.7948 189.515 94.025 189.664C93.1019 189.834 92.2781 189.916 91.5828 189.916C90.163 189.916 89.302 189.568 88.9832 188.886C88.8798 188.244 88.7969 186.311 88.6977 185.657C88.4078 184.97 86.6239 185.077 85.3613 185.586C84.7281 185.856 84.7693 186.551 83.9415 187.454C83.1427 188.364 82.2651 189.415 81.1931 189.415C78.9703 189.415 77.9065 189.602 77.418 189.225C77.4551 188.712 77.3892 186.92 77.9066 185.793C78.3908 184.734 78.635 183.906 78.635 183.314L78.4777 182.59L78.3743 181.861C78.3743 180.814 79.6036 180.288 82.0747 180.288C83.4532 180.288 84.3886 180.441 84.877 180.735C85.1546 180.938 85.3324 181.298 85.3862 181.816C85.4605 182.416 85.225 183.095 85.5021 183.359L86.3878 182.991C86.8309 182.623 87.4432 182.039 88.6519 181.886C89.8982 181.733 91.413 181.277 92.0794 181.277C93.462 181.277 94.6582 182.089 95.9372 182.333C96.5624 183.202 96.939 184.904 96.939 185.984ZM134.47 177.929C134.019 178.421 132.649 179.543 130.368 181.273C128.282 182.884 127.168 183.823 127.032 184.117C127.694 184.688 128.75 185.292 130.207 185.913C131.49 186.41 132.79 186.92 134.102 187.437C134.077 187.789 133.274 188.161 131.713 188.534C130.327 188.877 129.18 189.055 128.282 189.072C127.694 188.836 126.548 188.55 124.846 188.207C123.6 187.946 122.35 187.681 121.1 187.437C120.587 187.466 120.156 187.702 119.809 188.136C119.287 188.836 118.973 189.225 118.865 189.308C118.376 189.714 117.673 189.904 116.733 189.871H116.108C115.727 189.444 115.537 189.13 115.537 188.906C115.537 188.691 115.603 188.364 115.748 187.925C115.918 187.474 116.005 187.139 116.005 186.919C116.005 186.683 115.918 186.336 115.748 185.868C115.57 185.375 115.487 185.019 115.487 184.788C115.487 184.341 115.62 183.897 115.897 183.479C116.762 183.277 117.602 182.478 118.401 181.083C119.023 179.85 119.648 178.62 120.276 177.391C120.931 176.074 121.539 175.387 122.089 175.329C122.441 175.308 122.946 175.267 123.6 175.209L124.432 174.687C124.78 174.36 125.219 174.199 125.732 174.199H128.232L128.39 174.419C128.207 174.721 127.226 176.021 125.413 178.305C124.138 179.94 123.493 181.236 123.493 182.209L123.758 182.726C123.936 182.635 125.318 181.745 127.918 180.056C129.652 178.935 131.196 178.119 132.545 177.602C133.377 177.676 134.019 177.788 134.47 177.929" fill="#FFCC08"/>
<path d="M183.053 133.459H196.224L207.289 165.899L207.429 165.757C206.887 159.54 205.864 153.398 205.864 147.176V133.459H219.168V187.336H205.864L195.545 156.254L195.409 156.399C195.752 161.469 196.361 166.47 196.361 171.548V187.336H183.053V133.459ZM245.296 174.686C250.532 174.686 250.739 163.759 250.739 160.397C250.739 157.036 250.532 146.104 245.296 146.104C240.076 146.104 239.877 157.036 239.877 160.397C239.877 163.759 240.076 174.686 245.296 174.686ZM245.296 132.527C259.361 132.527 264.854 147.251 264.854 160.397C264.854 173.548 259.361 188.271 245.296 188.271C231.251 188.271 225.754 173.548 225.754 160.397C225.754 147.251 231.251 132.527 245.296 132.527ZM307.621 133.459L296.561 159.47L308.909 187.336H294.044L285.426 162.612H285.493H285.356V187.336H271.51V133.459H285.356V156.399H285.426L293.03 133.459H307.621ZM345.823 168.97L344.325 156.465C343.915 153.112 343.646 149.68 343.302 146.328H343.174C342.772 149.68 342.416 153.112 341.883 156.465L339.983 168.97H345.823ZM348.468 187.336L347.454 180.403H338.153L336.994 187.336H322.734L335.028 133.459H351.928L362.79 187.336H348.468M367.343 187.336H381.185V133.459H367.343V187.336ZM402.892 158.402C406.555 158.402 408.525 155.041 408.525 151.539C408.525 146.825 405.814 144.825 402.014 145.028V158.319L402.892 158.402ZM409.61 187.336L401.944 164.897L401.807 165.037C401.878 167.686 402.014 170.336 402.014 172.969V187.336H388.168V133.459H401.534C413.551 133.459 422.235 137.172 422.235 151.398C422.235 157.322 419.797 162.612 414.296 164.897L424.615 187.336H409.61Z" fill="black"/>
</svg>
