<svg width="480" height="320" viewBox="0 0 480 320" fill="none" xmlns="http://www.w3.org/2000/svg">
<path d="M63.0279 154.504V166.809C63.0279 167.116 63.1335 167.348 63.3454 167.506C63.5566 167.663 63.9351 167.793 64.4793 167.892V168.366H55.3848V167.892C55.929 167.793 56.3066 167.664 56.5186 167.506C56.7306 167.347 56.8362 167.116 56.8362 166.809V149.672C56.8362 149.375 56.7306 149.148 56.5186 148.989C56.3066 148.832 55.929 148.703 55.3848 148.604V148.129H65.9089V148.604C65.2583 148.712 64.9334 148.94 64.9334 149.286C64.9334 149.523 65.1454 149.785 65.5685 150.071L82.6473 161.68V149.672C82.6473 149.375 82.5409 149.148 82.3297 148.989C82.1177 148.832 81.7401 148.703 81.1959 148.604V148.129H90.2904V148.604C89.7462 148.703 89.3677 148.831 89.1565 148.989C88.9445 149.148 88.839 149.375 88.839 149.672V166.809C88.839 167.116 88.9445 167.348 89.1565 167.506C89.3685 167.663 89.7462 167.793 90.2904 167.892V168.366H80.5371V167.892C81.1723 167.804 81.4899 167.59 81.4899 167.255C81.4899 167.057 81.1187 166.711 80.3788 166.218L63.0279 154.504ZM112.687 147.773C118.088 147.773 122.37 148.727 125.532 150.633C128.876 152.63 130.548 155.209 130.548 158.371C130.548 160.309 129.745 162.117 128.142 163.798C125.01 167.079 119.874 168.72 112.732 168.72C107.377 168.72 103.117 167.767 99.9552 165.86C98.2608 164.842 96.9743 163.622 96.0971 162.199C95.3254 160.944 94.9396 159.624 94.9396 158.24C94.9396 156.214 95.734 154.361 97.3227 152.68C100.364 149.469 105.485 147.834 112.687 147.773ZM112.71 151.213C109.758 151.213 107.298 151.786 105.331 152.931C102.999 154.284 101.834 156.056 101.834 158.248C101.834 160.439 102.999 162.212 105.331 163.565C107.298 164.709 109.773 165.282 112.755 165.282C115.737 165.282 118.204 164.709 120.157 163.565C121.323 162.883 122.215 162.048 122.836 161.062C123.38 160.183 123.653 159.274 123.653 158.337C123.653 156.047 122.487 154.244 120.156 152.932C118.174 151.805 115.691 151.234 112.71 151.213ZM143.612 165.028H162.641C163.109 165.028 163.465 164.96 163.707 164.822C163.949 164.682 164.146 164.435 164.297 164.08H165.023V169.312H164.297C164.146 168.956 163.949 168.71 163.707 168.572C163.465 168.433 163.11 168.364 162.641 168.364H135.402V167.891C135.946 167.792 136.324 167.664 136.536 167.505C136.748 167.347 136.853 167.115 136.853 166.808V149.686C136.853 149.38 136.748 149.148 136.536 148.989C136.324 148.832 135.946 148.703 135.402 148.604V148.129H145.064V148.604C144.52 148.693 144.141 148.819 143.93 148.982C143.718 149.145 143.613 149.38 143.613 149.686L143.612 165.028ZM169.717 166.809V149.672C169.717 149.375 169.611 149.148 169.399 148.989C169.187 148.832 168.81 148.703 168.265 148.604V148.129H177.928V148.604C177.384 148.693 177.005 148.819 176.794 148.982C176.582 149.145 176.476 149.374 176.476 149.672V166.809C176.476 167.116 176.586 167.35 176.805 167.513C177.025 167.676 177.398 167.801 177.928 167.892V168.366H168.265V167.892C168.81 167.793 169.187 167.664 169.399 167.506C169.611 167.347 169.717 167.116 169.717 166.809ZM191.127 154.504V166.809C191.127 167.116 191.233 167.348 191.445 167.506C191.656 167.663 192.035 167.793 192.579 167.892V168.366H183.484V167.892C184.028 167.793 184.406 167.664 184.618 167.506C184.83 167.347 184.936 167.116 184.936 166.809V149.672C184.936 149.375 184.83 149.148 184.618 148.989C184.406 148.832 184.028 148.703 183.484 148.604V148.129H194.008V148.604C193.358 148.712 193.033 148.94 193.033 149.286C193.033 149.523 193.245 149.785 193.668 150.071L210.747 161.68V149.672C210.747 149.375 210.64 149.148 210.429 148.989C210.217 148.832 209.84 148.703 209.295 148.604V148.129H218.39V148.604C217.846 148.703 217.467 148.831 217.256 148.989C217.044 149.148 216.938 149.375 216.938 149.672V166.809C216.938 167.116 217.044 167.348 217.256 167.506C217.468 167.663 217.846 167.793 218.39 167.892V168.366H208.637V167.892C209.273 167.804 209.59 167.59 209.59 167.255C209.59 167.057 209.219 166.711 208.479 166.218L191.127 154.504ZM240.786 147.773C246.188 147.773 250.47 148.727 253.631 150.633C256.975 152.63 258.647 155.209 258.647 158.371C258.647 160.309 257.846 162.117 256.242 163.798C253.11 167.079 247.972 168.72 240.83 168.72C235.474 168.72 231.217 167.767 228.055 165.86C226.36 164.842 225.074 163.622 224.197 162.199C223.425 160.944 223.039 159.624 223.039 158.24C223.039 156.214 223.833 154.361 225.422 152.68C228.462 149.469 233.584 147.834 240.786 147.773ZM240.809 151.213C237.857 151.213 235.397 151.786 233.43 152.931C231.099 154.284 229.933 156.056 229.933 158.248C229.933 160.439 231.099 162.212 233.43 163.565C235.397 164.709 237.873 165.282 240.855 165.282C243.837 165.282 246.304 164.709 248.256 163.565C249.421 162.883 250.314 162.048 250.935 161.062C251.48 160.183 251.752 159.274 251.752 158.337C251.752 156.047 250.587 154.244 248.256 152.932C246.274 151.805 243.791 151.234 240.809 151.213ZM271.711 160.108V166.824C271.711 167.12 271.821 167.349 272.039 167.515C272.26 167.678 272.632 167.802 273.163 167.893V168.368H263.501V167.893C264.045 167.794 264.423 167.667 264.635 167.507C264.846 167.35 264.953 167.12 264.953 166.824V149.685C264.953 149.379 264.846 149.147 264.635 148.989C264.423 148.831 264.044 148.702 263.501 148.603V148.129H282.87C285.228 148.129 287.101 148.218 288.484 148.396C289.867 148.575 291.073 148.886 292.101 149.33C293.296 149.845 294.186 150.542 294.777 151.421C295.336 152.271 295.616 153.18 295.616 154.149C295.616 157.449 292.811 159.382 287.202 159.946L293.212 165.535C294.271 166.512 295.045 167.143 295.536 167.425C296.026 167.708 296.628 167.862 297.339 167.892V168.366H286.154V167.892C286.924 167.812 287.309 167.636 287.309 167.358C287.309 167.18 286.954 166.75 286.245 166.068L279.973 160.109L271.711 160.108ZM271.711 156.771H282.144C283.687 156.771 284.775 156.742 285.41 156.684C286.006 156.633 286.592 156.508 287.157 156.312C288.305 155.907 288.879 155.176 288.879 154.119C288.879 153.061 288.305 152.33 287.157 151.925C286.597 151.724 286.013 151.597 285.421 151.546C284.809 151.493 283.715 151.465 282.144 151.465H271.71L271.711 156.771Z" fill="#254A78"/>
<path d="M357.038 151.667V172.616C357.038 173.138 357.153 173.532 357.378 173.801C357.605 174.071 358.01 174.29 358.593 174.458V175.266H348.852L339.4 174.913C339.983 174.745 349.839 174.071 350.066 173.801C350.293 173.532 350.406 173.138 350.406 172.616V143.439C350.406 142.933 350.293 142.547 350.066 142.278C349.839 142.009 349.436 141.79 348.852 141.621L337.369 140.812L360.124 140.814V141.621C359.429 141.807 359.079 142.194 359.079 142.783C359.079 143.187 359.306 143.632 359.761 144.121L378.053 163.882V143.439C378.053 142.933 377.939 142.547 377.713 142.278C377.486 142.009 377.082 141.79 376.498 141.621V140.814L396.934 140.954L386.238 141.621C385.655 141.79 385.249 142.009 385.024 142.278C384.797 142.547 384.683 142.933 384.683 143.439V172.615C384.683 173.137 384.797 173.532 385.024 173.8C385.249 174.069 395.943 174.885 396.526 175.054L386.238 175.265H375.793V174.458C376.472 174.305 376.814 173.945 376.814 173.372C376.814 173.035 376.418 172.446 375.622 171.606L357.038 151.667Z" fill="#D8AF72"/>
<path d="M367.454 196.65C388.93 196.65 406.34 179.104 406.34 157.46C406.34 135.816 388.93 118.27 367.454 118.27C345.978 118.27 328.568 135.816 328.568 157.46C328.568 179.104 345.978 196.65 367.454 196.65Z" stroke="#D8AF72" stroke-width="2.03058"/>
<path d="M367.148 205.382C393.615 205.382 415.07 183.882 415.07 157.359C415.07 130.837 393.615 109.336 367.148 109.336C340.682 109.336 319.227 130.837 319.227 157.359C319.227 183.882 340.682 205.382 367.148 205.382Z" stroke="#D8AF72" stroke-width="2.03058"/>
<path d="M367.454 214.521C398.799 214.521 424.209 188.929 424.209 157.36C424.209 125.791 398.799 100.199 367.454 100.199C336.109 100.199 310.699 125.791 310.699 157.36C310.699 188.929 336.109 214.521 367.454 214.521Z" stroke="#D8AF72" stroke-width="2.03058"/>
<path d="M377.71 174.722L356.592 175.802L367.354 231.172L377.71 174.722ZM372.43 124.972L367.557 88.8281L362.48 125.582L372.43 124.972Z" fill="white"/>
<path d="M374.595 155.974L362.14 142.707L367.555 92.4844L374.595 155.974ZM387.049 161.93L387.184 152.996L403.7 157.869L387.049 161.93ZM330.734 157.057L347.656 152.725V161.93L330.734 157.057ZM367.555 222.577L360.11 158.817L372.835 173.031L367.555 222.577Z" fill="#D8AF72"/>
<path d="M366.947 109.031L363.089 141.521L367.353 145.988L366.947 109.031ZM388.065 156.75L388.167 153.806L397.913 156.75H388.065ZM346.844 160.608L336.895 157.562H346.844V160.608ZM371.82 173.807L367.455 169.543V204.367L371.82 173.807Z" fill="white"/>
</svg>
