<svg width="480" height="320" viewBox="0 0 480 320" fill="none" xmlns="http://www.w3.org/2000/svg">
<path d="M324.178 184.418C323.257 184.418 321.941 184.286 320.888 184.023L321.019 182.707C321.941 182.97 323.125 183.102 323.915 183.102C325.232 183.102 326.153 182.838 326.285 182.049C326.285 181.259 325.495 180.995 324.178 180.732C321.546 180.206 321.019 179.284 321.019 178.231C321.019 176.388 322.599 175.862 324.573 175.862C325.495 175.862 326.811 175.993 327.733 176.257L327.601 177.573C326.679 177.31 325.626 177.178 324.837 177.178C323.652 177.178 322.862 177.441 322.862 178.1C322.862 178.626 323.125 179.021 325.1 179.416C327.733 179.942 328.127 181.127 328.127 181.917C328.127 183.891 326.416 184.418 324.178 184.418ZM312.331 179.153H317.07C317.465 177.968 316.939 177.046 315.096 177.046C313.911 177.178 312.595 177.705 312.331 179.153ZM315.359 183.102C316.412 183.102 317.334 182.97 318.518 182.443L318.781 183.76C317.992 184.155 316.544 184.418 315.096 184.418C311.937 184.418 310.489 182.443 310.489 180.074C310.489 177.178 312.595 175.73 314.964 175.73C318.123 175.73 319.44 177.31 318.387 180.337H312.068C312.331 181.917 313.516 183.102 315.359 183.102ZM301.801 177.046C302.854 176.388 303.907 175.73 305.355 175.73C307.461 175.73 308.251 176.915 308.251 178.889V184.286H306.671V179.021C306.671 177.705 306.013 177.178 304.828 177.178C303.907 177.178 302.854 177.705 301.801 178.363V184.155H300.221V175.862H301.801V177.046ZM295.877 175.993H297.457V184.286H295.877V175.993ZM291.533 173.097H293.113V184.286H291.533V173.097ZM286.136 177.046C286.268 177.046 286.268 177.046 286.136 177.046C287.19 176.388 288.243 175.73 289.559 175.73V177.178C288.637 177.178 287.19 177.705 286.136 178.363V184.155H284.557V175.862H286.136V177.046ZM280.213 175.993H281.793V184.286H280.213V175.993ZM273.368 174.94L271.525 179.942H275.211L273.368 174.94ZM274.421 173.097L278.633 184.286H276.791L275.737 181.39H271.13L270.077 184.286H268.234L272.447 173.097H274.421ZM280.213 173.097H281.793V174.677H280.213V173.097ZM295.877 173.097H297.457V174.677H295.877V173.097ZM380.122 142.559H382.755V145.849H380.122V142.559ZM424.614 142.559V165.594H421.982V164.278H421.85C420.007 165.594 418.164 165.989 416.322 165.989C410.661 165.989 407.765 161.909 407.765 157.17C407.765 152.168 410.925 148.087 416.453 148.087C418.296 148.087 420.139 148.482 421.85 149.14H421.982V142.559H424.614ZM421.982 162.304V151.378C420.139 150.72 418.428 150.325 416.848 150.325C413.426 150.325 410.398 152.694 410.398 157.038C410.398 161.514 413.294 163.752 416.848 163.752C418.559 163.752 420.007 163.357 421.982 162.304ZM389.995 150.72C392.628 149.272 394.865 148.087 397.761 148.087C402.105 148.087 403.816 150.457 403.816 154.406V165.594H401.184V154.537C401.184 151.51 399.736 150.325 396.84 150.325C394.865 150.325 392.496 151.378 389.995 152.958V165.594H387.362V148.35H389.995V150.72ZM380.122 148.35H382.755V165.594H380.122V148.35ZM357.613 165.726H354.191L347.741 148.35H350.637L355.902 163.225L361.036 148.35H363.932L369.197 163.225L374.331 148.35H377.227L370.908 165.726H367.486L362.352 152.299L357.613 165.726ZM344.976 142.559V165.594H342.344V164.278H342.212C340.369 165.594 338.526 165.989 336.684 165.989C331.023 165.989 328.127 161.909 328.127 157.17C328.127 152.168 331.287 148.087 336.815 148.087C338.658 148.087 340.501 148.482 342.212 149.14H342.344V142.559H344.976ZM342.344 162.304V151.378C340.501 150.72 338.79 150.325 337.21 150.325C333.788 150.325 330.76 152.694 330.76 157.038C330.76 161.514 333.656 163.752 337.21 163.752C338.921 163.752 340.501 163.357 342.344 162.304ZM319.045 150.72C319.176 150.72 319.176 150.851 319.045 150.72C321.414 149.272 323.652 148.087 326.548 148.087V150.588C324.573 150.588 321.546 151.51 319.045 153.089V165.726H316.412V148.35H319.045V150.72ZM297.194 157.038C297.194 160.724 299.3 163.752 303.512 163.752C307.724 163.752 309.83 160.592 309.83 157.038C309.83 153.484 307.724 150.325 303.512 150.325C299.3 150.193 297.194 153.484 297.194 157.038ZM294.561 157.038C294.561 152.168 297.589 148.087 303.512 148.087C309.567 148.087 312.463 152.168 312.463 157.038C312.463 161.909 309.436 165.989 303.512 165.989C297.457 165.989 294.561 161.777 294.561 157.038ZM287.19 165.594L274.553 146.771V165.594H271.788V142.559H275.079L287.716 161.382V142.559H290.48V165.594H287.19Z" fill="black"/>
<path d="M209.659 187.971H154.899L124.36 135.318L93.9533 187.971H55.3848L76.9726 150.719C82.8961 140.32 96.0594 132.027 106.327 132.027H161.086L191.493 184.812L222.032 132.027H260.601L239.013 169.279C233.089 179.679 219.926 187.971 209.659 187.971Z" fill="#CD202C"/>
</svg>
