<svg width="480" height="320" viewBox="0 0 480 320" fill="none" xmlns="http://www.w3.org/2000/svg">
<path d="M62.3426 101.012C60.7359 101.096 59.6713 101.201 58.3247 101.405C56.826 101.633 55.0869 102.003 53.6323 102.403C46.6881 104.311 40.676 108.256 36.9378 113.355C35.9566 114.692 35.1079 116.208 34.5094 117.68C33.7392 119.581 33.332 121.572 33.332 123.459C33.332 124.8 33.5503 126.228 33.8937 127.163C34.5707 129.005 35.9836 130.619 38.0048 131.857C41.1347 133.78 45.5156 134.654 49.9578 134.244C53.8702 133.881 57.6109 132.586 60.7874 130.496C63.1447 128.943 65.1242 127.006 66.797 124.614C67.2263 124.001 67.2582 123.937 67.2582 123.635C67.2582 123.434 67.2459 123.37 67.1944 123.277C67.0963 123.098 66.9785 122.978 66.8093 122.897C66.6793 122.833 66.6155 122.821 66.4585 122.823C66.2672 122.823 66.2623 122.826 65.3964 123.248C62.1341 124.842 59.2323 126 56.9486 126.625C55.759 126.949 54.4933 127.17 53.2325 127.27C52.369 127.339 51.0224 127.307 50.1222 127.197C46.7053 126.775 44.1444 125.156 43.2957 122.887C42.9646 122.004 42.8959 120.93 43.1069 119.917C43.3571 118.683 44.0243 117.402 45.0692 116.151C45.393 115.766 46.3079 114.866 46.7224 114.523C48.1795 113.326 49.7959 112.384 51.6381 111.655C54.7091 110.444 57.7409 110.073 60.4317 110.583C63.1937 111.108 65.5755 112.533 67.0497 114.545C67.2533 114.824 67.3784 115.018 67.8591 115.837C68.649 117.179 69.1052 118.58 69.2867 120.236C69.3407 120.731 69.3309 122.401 69.272 122.956C69.0782 124.732 68.6907 126.41 67.9818 128.546C67.241 130.773 65.47 134.119 63.1152 137.752C61.6484 140.011 60.1374 142.15 56.5905 146.972C52.1802 152.972 50.2939 155.685 48.1623 159.087C42.6678 167.861 40.2566 177.136 40.9704 186.749C41.1176 188.733 41.4683 191.169 41.7676 192.309C43.0554 197.21 45.3488 202.126 48.3266 206.369C51.9005 211.466 56.4335 215.806 61.9575 219.419L62.6075 219.843L63.1005 219.885C64.3171 219.988 64.6139 219.995 66.6646 219.995C68.8084 219.995 69.3039 219.978 71.0283 219.843C74.4084 219.586 78.5563 218.955 80.9062 218.347L81.0116 218.32L80.4793 218.067C79.5423 217.623 78.4165 217.022 77.4132 216.431C73.5793 214.165 70.16 211.283 67.3146 207.907C65.4038 205.641 63.7284 203.1 62.399 200.441C58.8717 193.393 57.7139 185.537 59.0262 177.592C59.5634 174.344 60.4808 171.361 61.7342 168.786C61.8373 168.577 62.3352 167.613 62.8454 166.649C65.7889 161.054 68.3007 156.232 71.2613 150.48L71.7961 149.447L71.8476 149.624C72.5908 152.18 73.2923 154.149 74.2342 156.313C78.181 165.403 84.6223 173.231 92.8567 178.941C100.608 184.32 109.809 187.612 119.198 188.363C119.488 188.387 119.797 188.412 119.895 188.424L120.067 188.439L120.447 187.666C121.96 184.61 122.959 182.193 124.016 179.024C124.369 177.955 124.394 177.879 124.384 177.869C124.379 177.864 124.026 177.84 123.601 177.815C114.764 177.285 106.392 174.253 99.2907 169.012C97.4804 167.675 95.9964 166.399 94.3285 164.748C92.1233 162.565 90.3915 160.475 88.6598 157.905C84.2421 151.356 81.6886 143.823 81.198 135.915C80.9945 132.628 81.1465 130.565 81.9413 125.745C82.1326 124.587 82.2209 123.954 82.297 123.201C82.66 119.669 82.4 116.409 81.512 113.431C80.938 111.493 80.0354 109.597 78.9193 107.998C77.8032 106.391 76.3904 104.932 75.083 104.032C72.4853 102.243 69.1224 101.235 65.0285 101.022C64.5649 100.997 62.7473 100.992 62.3426 101.012Z" fill="#20417C"/>
<path d="M248.623 129.814C242.972 129.974 237.624 131.438 232.868 134.131C229.532 136.023 226.53 138.534 224.114 141.458C220.626 145.68 218.364 150.725 217.562 156.055C217.194 158.496 217.13 161.113 217.381 163.549C218.234 171.84 222.515 179.363 229.329 184.551C232.066 186.636 235.272 188.326 238.618 189.442C241.206 190.31 243.82 190.845 246.6 191.083C248.383 191.235 250.429 191.245 252.229 191.11C259.188 190.59 265.661 188.027 270.864 183.732C272.176 182.645 273.8 181.036 274.887 179.743C277.803 176.263 279.888 172.23 280.994 167.913C281.885 164.432 282.145 160.782 281.747 157.211C280.864 149.227 276.773 141.946 270.297 136.825C265.48 133.015 259.531 130.636 253.205 129.988C251.726 129.836 250.075 129.775 248.623 129.814ZM250.743 141.191C252.501 141.304 254.179 141.625 255.761 142.157C262.769 144.51 267.729 150.671 268.59 158.096C268.683 158.906 268.705 159.225 268.722 160.149C268.784 163.5 268.067 166.65 266.598 169.517C264.92 172.789 262.384 175.463 259.22 177.298C256.696 178.757 253.909 179.598 250.868 179.812C250.318 179.854 248.864 179.854 248.292 179.812C244.735 179.569 241.476 178.436 238.584 176.434C236.889 175.259 235.326 173.726 234.09 172.019C232.378 169.652 231.215 166.885 230.72 163.983C230.143 160.601 230.418 157.122 231.514 153.948C232.464 151.191 234.046 148.677 236.116 146.634C239.111 143.676 243.004 141.804 247.206 141.304C247.605 141.255 248.145 141.208 248.569 141.184C248.93 141.161 250.353 141.169 250.743 141.191Z" fill="#20417C"/>
<path d="M368.429 129.815C361.305 130.035 355.313 132.797 351.705 137.527C350.093 139.638 349.019 142.18 348.641 144.77C348.411 146.352 348.423 148.231 348.683 149.963C349.328 154.29 351.479 157.604 355.252 160.088C356.127 160.665 356.841 161.067 357.977 161.617C360.025 162.61 362.088 163.363 366.02 164.555C369.628 165.649 370.68 165.99 371.981 166.5C373.285 167.01 374.161 167.45 375.034 168.024C375.594 168.389 375.856 168.6 376.276 169.014C377.301 170.028 377.784 171.119 377.836 172.525C377.885 173.969 377.482 175.407 376.707 176.557C376.403 177.004 376.192 177.259 375.807 177.639C374.448 178.983 372.476 179.849 370.08 180.151C369.393 180.237 368.99 180.259 368.058 180.261C367.045 180.261 366.616 180.237 365.718 180.126C362.191 179.685 358.808 178.198 355.919 175.814C355.387 175.375 354.683 174.715 354.325 174.323C354.16 174.141 354.018 173.991 354.008 173.991C354.001 173.991 352.271 175.691 350.169 177.769L346.348 181.544L346.605 181.841C346.927 182.214 347.986 183.261 348.46 183.678C350.922 185.844 353.797 187.62 356.883 188.888C360.81 190.5 364.97 191.265 369.434 191.201C370.604 191.184 371.093 191.159 372.091 191.071C379.118 190.455 384.672 187.755 388.042 183.315C390.48 180.104 391.668 176.025 391.439 171.654C391.143 165.951 388.641 161.906 383.612 158.997C381.672 157.873 379.219 156.858 375.957 155.825C375.088 155.55 374.502 155.371 372.407 154.736C368.838 153.657 367.023 152.965 365.569 152.138C363.202 150.799 362.098 149.178 362.098 147.054C362.098 145.074 363.108 143.306 364.904 142.138C366.069 141.38 367.452 140.936 369.13 140.779C369.589 140.737 370.811 140.737 371.291 140.782C373.801 141.007 376.079 141.824 378.299 143.286C379.275 143.931 380.357 144.821 380.995 145.508L381.25 145.783L384.853 142.028C386.833 139.962 388.56 138.162 388.685 138.032L388.913 137.794L388.78 137.637C388.555 137.374 387.812 136.634 387.444 136.305C384.137 133.352 379.847 131.274 375.167 130.357C373.045 129.94 370.636 129.748 368.429 129.815Z" fill="#20417C"/>
<path d="M154.501 160.507L154.508 189.942L160.886 189.952L167.266 189.957L167.273 171.239L167.281 152.523L181.966 171.239L196.652 189.957H207.702V131.075H201.329H194.957V149.773C194.957 160.056 194.949 168.472 194.94 168.467C194.925 168.467 188.317 160.053 180.252 149.771L165.583 131.075H160.04H154.496L154.501 160.507Z" fill="#20417C"/>
<path d="M291.441 160.514V189.957H304.214L304.219 184.842L304.228 179.728L310.832 176.26C314.462 174.354 317.437 172.794 317.44 172.801C317.442 172.806 319.537 176.652 322.093 181.349C324.646 186.044 326.749 189.905 326.766 189.92C326.785 189.949 328.183 189.957 333.587 189.957C337.325 189.957 340.382 189.952 340.382 189.942C340.382 189.935 337.514 184.923 334.012 178.803C330.506 172.686 327.639 167.677 327.639 167.672C327.639 167.665 327.82 167.564 328.046 167.451C330.838 166.007 333.577 163.502 335.299 160.821C336.639 158.729 337.539 156.421 337.958 153.997C338.878 148.672 337.711 143.374 334.703 139.221C334.063 138.335 333.455 137.631 332.638 136.827C331.147 135.362 329.52 134.207 327.622 133.27C325.068 132.007 322.26 131.286 319.189 131.102C318.897 131.085 313.849 131.075 305.089 131.075H291.441V160.514ZM318.514 142.478C320.395 142.748 321.88 143.425 323.086 144.573C324.222 145.652 324.973 147.014 325.309 148.603C325.446 149.263 325.475 149.577 325.475 150.426C325.475 151.311 325.434 151.667 325.26 152.349C324.909 153.722 324.092 154.937 322.782 156.04C321.014 157.529 315.671 160.686 308.825 164.29C307.03 165.234 304.275 166.649 304.233 166.649C304.221 166.649 304.214 161.196 304.214 154.532V142.412L311.2 142.424C317.638 142.432 318.208 142.437 318.514 142.478Z" fill="#20417C"/>
<path d="M400.965 160.514V189.957H445.667V178.588H429.703H413.737V165.56L425.872 165.555L438.001 165.548L438.009 159.867L438.016 154.191H425.877H413.737V142.414H444.813V131.075H422.889H400.965V160.514Z" fill="#20417C"/>
</svg>
