<svg width="480" height="320" viewBox="0 0 480 320" fill="none" xmlns="http://www.w3.org/2000/svg">
<path d="M247.5 201.861L243.208 182.021C233.213 220.077 198.926 248.279 157.506 248.279C108.944 248.279 69.6604 208.657 69.6604 159.999C69.6604 111.41 108.944 71.8595 157.506 71.8595C199.642 71.8595 234.642 100.875 243.208 139.885H257.493C248.204 93.3344 206.786 58.1289 157.508 58.1289C101.801 58.1289 55.3828 103.866 55.3828 159.999C55.3828 216.201 101.801 261.869 157.506 261.869C198.924 261.869 234.642 237.2 250.35 201.861H247.5Z" fill="#B1B4B6"/>
<path d="M94.6602 103.594L123.233 152.728L151.081 103.594H94.6602Z" fill="#E31836"/>
<path d="M157.51 139.884H186.073V150.621C189.65 141.922 198.224 138.523 206.072 138.523C222.506 138.523 228.218 146.815 228.218 158.778V201.862H198.224V166.115C198.224 162.513 198.224 157.689 193.214 157.689C187.502 157.689 187.502 162.513 187.502 166.115V201.862H157.508V139.884M268.923 180.387H269.638L276.068 139.884H311.774L318.916 180.385L325.346 139.884H353.204L337.485 201.86H300.347L293.205 159.795L285.355 201.86H247.503L232.5 139.886H261.779L268.923 180.385M386.765 138.523C375.337 138.523 370.342 139.541 361.052 142.061V159.317C366.764 156.396 374.623 154.087 381.767 154.087C388.911 154.087 397.475 155.104 397.475 162.989C394.622 162.716 390.34 162.175 386.049 162.175C371.057 162.175 353.918 165.979 353.918 185.011C353.918 197.922 365.344 203.152 376.769 203.152C385.333 203.152 392.477 199.824 396.768 192.889V201.86H424.617V164.146C424.617 141.585 403.902 138.523 386.765 138.523ZM397.475 176.378C397.475 181.88 394.622 187.525 388.195 187.525C383.913 187.525 381.051 185.826 381.051 181.613C381.051 175.155 388.195 174.545 394.622 174.545H397.475V176.378Z" fill="black"/>
</svg>
