<svg width="480" height="320" viewBox="0 0 480 320" fill="none" xmlns="http://www.w3.org/2000/svg">
<path d="M56.2949 86.1562V196.613H91.9843V157.017C91.9843 134.511 92.0141 117.452 92.0521 117.489C92.0905 117.533 100.345 132.041 110.404 149.738C120.462 167.435 128.741 181.927 128.793 181.942C128.839 181.964 129.571 181.711 130.423 181.386C133.847 180.062 137.271 178.916 140.527 178.006C142.87 177.347 145.421 176.721 145.733 176.721C145.961 176.728 145.962 176.731 145.658 176.856C140.56 178.987 133.058 183.377 126.141 188.274C121.805 191.345 115.647 196.175 115.647 196.508C115.647 196.596 121.294 196.613 155.799 196.613H195.951L197.589 195.328C213.437 182.995 232.184 172.214 253.891 162.929C269.815 156.123 287.065 150.332 305.896 145.486C307.601 145.049 314.139 143.46 315.745 143.097L316.548 142.924L316.586 134.09C316.632 124.576 316.626 124.811 317.045 123.22C317.577 121.21 318.641 119.381 320.124 117.924C321.174 116.896 322.67 115.827 323.925 115.213C325.691 114.348 328.39 113.79 331.723 113.605C333.443 113.509 372.73 113.509 375.743 113.605C378.825 113.701 380.447 113.922 382.151 114.462C384.464 115.194 386.653 116.678 387.658 118.21C388.7 119.786 389.054 121.318 389.145 124.603L389.19 126.331H422.648V121.605C422.648 119.016 422.611 116.191 422.573 115.341C422.139 106.736 420.252 101.212 416.09 96.4024C415.238 95.4187 413.243 93.5418 412.079 92.6389C410.641 91.5293 408.936 90.4236 407.932 89.9572C404.021 88.1519 395.417 86.7269 385.403 86.2312C382.999 86.113 323.227 86.1654 321.454 86.2841C318.639 86.4837 316.305 86.6846 314.76 86.8625C305.57 87.913 298.69 89.9981 294.148 93.1351C289.758 96.161 286.444 100.908 284.405 107.122C283.743 109.149 282.997 112.22 282.639 114.439C282.594 114.757 282.527 115.033 282.497 115.048C282.466 115.07 278.908 108.7 274.586 100.895C270.264 93.0966 266.648 86.5822 266.549 86.4264L266.368 86.1562H215.88L205.956 104.38C200.501 114.412 196.003 122.597 195.973 122.582C195.942 122.56 195.913 114.353 195.913 104.343V86.1562H160.231V127.352C160.231 150.02 160.202 168.578 160.164 168.6C160.133 168.623 149.525 150.142 136.606 127.525C123.679 104.916 113.056 86.3505 112.995 86.2764C112.889 86.1582 111.443 86.1562 84.5853 86.1562H56.2949ZM240.587 109.519C240.625 109.556 244.538 116.921 249.294 125.887C254.041 134.854 257.94 142.226 257.948 142.263C257.955 142.3 257.193 142.454 256.249 142.617C242.615 144.903 231.49 147.085 221.447 149.437C219.818 149.822 219.959 149.804 219.959 149.708C219.959 149.671 223.843 142.031 228.598 132.746C232.025 126.046 235.456 119.348 238.889 112.651C239.84 110.794 240.549 109.482 240.587 109.519ZM316.481 146.598C316.435 146.605 315.148 147.049 313.619 147.589C298.508 152.96 284.931 159.184 271.845 166.737C271.487 166.945 271.266 167.122 271.259 167.211C271.243 167.285 274.735 173.961 279.018 182.039L286.794 196.718L337.011 196.756C364.63 196.778 388.28 196.77 389.565 196.741C394.275 196.637 397.651 196.263 401.014 195.464C405.815 194.332 410.367 192.218 414.43 189.229C420.349 184.879 423.291 179.957 424.12 173.01C424.364 170.968 424.398 169.849 424.398 162.11V154.29H390.978L391.038 155.011C391.136 156.04 391.114 157.936 391 158.587C390.36 162.235 388.446 165.19 385.441 167.128C383.486 168.394 381.507 169.039 378.973 169.239C378.258 169.298 371.12 169.314 355.423 169.299C330.604 169.27 332.811 169.314 330.521 168.834C326.595 168.005 322.584 166.24 321.071 164.672C319.153 162.697 317.675 159.882 317.089 157.107C316.724 155.361 316.647 154.319 316.609 150.309C316.578 147.609 316.549 146.598 316.481 146.598H316.481Z" fill="#FF0000"/>
<path d="M55.3848 224.833V233.748H57.8953V226.083C57.8953 221.785 57.9261 218.433 57.9641 218.448C57.9944 218.455 61.5098 221.91 65.7703 226.105L73.5083 233.748H77.6016V215.918H74.8626V223.567C74.8626 227.777 74.8395 231.239 74.8093 231.254C74.7708 231.276 71.2713 227.836 67.0256 223.612L59.303 215.925H57.3477L55.3848 215.918V224.833ZM84.7232 215.999C82.1136 216.236 80.8429 216.842 80.1963 218.167C79.5419 219.499 79.4886 220.127 79.5266 225.425C79.5569 229.486 79.565 229.752 79.7169 230.367C80.1352 232.039 81.0487 233.03 82.5093 233.377C83.8179 233.688 83.9016 233.696 90.0415 233.726C96.2121 233.763 97.2241 233.726 98.5631 233.459C99.6813 233.23 100.1 233.045 100.625 232.534C101.401 231.779 101.842 230.663 102.025 229.013C102.147 227.866 102.124 220.978 101.987 220.135C101.781 218.803 101.439 217.975 100.815 217.309C100.366 216.835 99.902 216.568 99.1184 216.362C97.7414 215.991 97.277 215.969 91.1828 215.954C88.0482 215.94 85.1415 215.962 84.7232 215.999ZM97.2693 218.381C98.4712 218.663 98.9587 219.091 99.3088 220.164C99.4761 220.682 99.4761 220.749 99.4761 224.722C99.4761 228.31 99.4607 228.805 99.3462 229.257C98.9813 230.618 98.4487 231.047 96.752 231.365C96.1285 231.476 95.4588 231.491 90.7645 231.491C84.9285 231.491 84.5482 231.462 83.5742 231.017C82.9958 230.751 82.7299 230.492 82.4636 229.93C82.0222 228.99 81.9766 228.517 81.9766 224.759C81.9766 221.066 82.0145 220.638 82.4256 219.735C82.8136 218.884 83.2929 218.596 84.6621 218.396C85.7727 218.233 85.7121 218.233 91.4112 218.248C96.1131 218.255 96.7977 218.27 97.2693 218.381ZM104.155 224.833V233.748H106.742L106.757 230.322L106.78 226.904H120.247L120.742 227.141C121.267 227.392 121.502 227.651 121.715 228.214C121.822 228.48 121.845 228.968 121.868 231.136L121.898 233.748H124.47V231.173C124.47 228.332 124.439 228.117 123.999 227.444C123.732 227.03 123.07 226.423 122.59 226.15L122.248 225.957L122.652 225.765C123.252 225.476 123.823 224.936 124.082 224.403C124.402 223.738 124.485 223.279 124.523 221.903C124.607 219.217 124.234 218.093 122.842 216.827C122.424 216.443 122.241 216.339 121.715 216.162L121.084 215.955L112.624 215.932L104.155 215.91V224.833ZM120.605 218.529C121.282 218.855 121.556 219.188 121.769 219.942C121.944 220.564 121.899 222.694 121.701 223.301C121.472 223.989 120.977 224.396 120.148 224.566C119.555 224.685 106.963 224.685 106.833 224.559C106.765 224.492 106.742 223.686 106.742 221.392C106.742 219.698 106.765 218.285 106.795 218.255C106.826 218.233 109.816 218.218 113.438 218.226L120.027 218.248L120.605 218.529ZM125.885 216.369C125.854 216.8 125.839 217.232 125.839 217.664V218.507H130.313C133.691 218.507 134.81 218.529 134.878 218.596C134.947 218.663 134.97 220.46 134.97 226.216V233.748H137.633L137.648 226.142L137.671 218.544L141.954 218.522L146.23 218.507V215.918H125.939L125.885 216.369ZM147.676 224.833V233.748H148.384C148.779 233.748 149.357 233.77 149.677 233.792L150.263 233.844L150.278 229.856L150.301 225.868L158.32 225.846C164.179 225.839 166.363 225.853 166.438 225.913C166.53 225.979 166.545 226.704 166.545 229.922V233.844L167.063 233.8C167.344 233.77 167.938 233.748 168.394 233.748H169.208V215.918H166.545L166.53 219.521L166.507 223.131L158.488 223.153C152.629 223.161 150.445 223.146 150.369 223.087C150.278 223.02 150.263 222.354 150.263 219.462V215.918H147.676V224.833ZM171.186 224.833V233.748H189.142V231.528H181.693C175.493 231.528 174.237 231.513 174.161 231.425C174.1 231.358 174.077 230.551 174.093 228.598L174.115 225.868L181.214 225.846L188.305 225.832V223.538H181.275C175.424 223.538 174.237 223.523 174.161 223.434C174.1 223.368 174.077 222.606 174.093 220.793L174.115 218.248L181.518 218.226L188.914 218.211V215.918H171.186V224.833ZM191.273 224.833V233.748H193.859L193.874 230.322L193.898 226.904H207.364L207.745 227.074C208.232 227.289 208.437 227.481 208.681 227.939L208.886 228.31L208.909 231.025L208.932 233.748H211.595L211.572 231.062C211.549 228.458 211.542 228.369 211.367 227.955C211.131 227.378 210.575 226.749 209.921 226.312L209.381 225.95L209.799 225.728C210.712 225.254 211.237 224.581 211.481 223.567C211.58 223.153 211.595 222.724 211.572 221.207C211.542 219.55 211.519 219.306 211.374 218.862C211.032 217.871 210.02 216.687 209.198 216.317C208.3 215.918 208.293 215.918 199.444 215.918H191.273V224.833ZM207.593 218.455C208.658 218.936 209 219.654 209 221.377C209 223.316 208.658 224.078 207.623 224.477C207.311 224.603 206.794 224.611 200.677 224.633C195.769 224.647 194.042 224.633 193.966 224.566C193.874 224.5 193.86 223.938 193.86 221.392C193.86 219.698 193.882 218.285 193.912 218.255C193.943 218.233 196.925 218.218 200.547 218.226L207.137 218.248L207.593 218.455ZM213.565 224.833V233.748H216.076V226.083C216.076 221.659 216.107 218.433 216.145 218.448C216.183 218.455 219.698 221.91 223.951 226.105L231.689 233.748H235.782V215.918H233.043V223.567C233.043 227.777 233.021 231.239 232.99 231.254C232.952 231.276 229.452 227.829 225.207 223.604L217.484 215.925H215.528L213.565 215.918V224.833ZM254.324 217.153C249.569 225.336 244.836 233.57 244.836 233.651C244.836 233.726 245.141 233.748 246.381 233.748H247.918L249.021 231.913L250.124 230.086L257.002 230.063C261.887 230.056 263.911 230.071 263.979 230.13C264.033 230.174 264.596 231.003 265.235 231.979L266.391 233.748H267.867C269.267 233.748 269.343 233.74 269.321 233.614C269.305 233.533 266.939 229.523 264.056 224.7L258.813 215.918H255.039L254.324 217.153ZM259.772 222.813C261.309 225.41 262.564 227.563 262.564 227.607C262.564 227.696 251.562 227.711 251.502 227.622C251.479 227.585 252.665 225.373 254.134 222.702C256.432 218.522 256.812 217.856 256.896 217.967C256.942 218.041 258.242 220.224 259.772 222.813H259.772ZM271.771 224.833V233.748H274.509V215.918H271.77L271.771 224.833ZM277.173 224.833V233.748H279.835L279.85 230.322L279.873 226.904L286.378 226.882C292.032 226.867 292.937 226.882 293.34 226.978C294.025 227.156 294.314 227.37 294.611 227.955L294.862 228.458L294.884 231.099L294.908 233.748H297.563V231.536C297.563 229.131 297.495 228.362 297.228 227.792C297 227.303 296.292 226.564 295.729 226.231L295.288 225.964L295.668 225.779C296.269 225.484 296.893 224.877 297.144 224.344C297.487 223.589 297.586 222.827 297.54 221.096C297.487 219.032 297.319 218.455 296.444 217.397C295.714 216.524 295.105 216.176 293.979 215.999C293.667 215.947 290.616 215.917 285.336 215.917H277.172L277.173 224.833ZM293.242 218.359C293.964 218.574 294.307 218.847 294.611 219.447L294.862 219.95V221.429C294.862 222.687 294.839 222.968 294.718 223.309C294.63 223.56 294.491 223.789 294.308 223.983C294.126 224.177 293.905 224.33 293.66 224.433L293.265 224.611L286.653 224.633C281.745 224.647 280.018 224.633 279.942 224.566C279.851 224.5 279.835 223.938 279.835 221.392C279.835 219.698 279.859 218.285 279.888 218.263C279.911 218.234 282.818 218.211 286.348 218.211C292.526 218.211 292.77 218.218 293.242 218.359ZM312.819 215.999C310.787 216.191 309.319 216.716 308.596 217.515C308.078 218.092 307.66 219.202 307.378 220.726C307.226 221.533 307.203 221.984 307.173 224.226C307.12 227.673 307.272 229.264 307.797 230.796C308.056 231.536 308.352 231.964 308.931 232.423C309.798 233.111 310.962 233.511 312.583 233.666C313.921 233.8 322.755 233.777 323.828 233.637C326.057 233.348 327.442 232.593 327.929 231.395C328.089 231.01 328.104 230.825 328.134 229.25L328.165 227.533H325.715V228.48C325.715 230.063 325.486 230.596 324.627 231.003C323.66 231.469 323.409 231.491 318.601 231.491C314.051 231.491 313.237 231.447 312.088 231.151C311.776 231.069 311.343 230.907 311.129 230.788C310.802 230.603 310.696 230.492 310.506 230.108C309.95 229.005 309.866 228.191 309.912 224.389C309.942 221.614 309.958 221.296 310.102 220.697C310.429 219.388 310.817 218.833 311.594 218.589C312.605 218.263 312.902 218.248 317.84 218.248C322.39 218.248 322.58 218.255 323.295 218.411C323.706 218.5 324.231 218.663 324.475 218.781C324.847 218.959 324.939 219.047 325.121 219.395C325.372 219.883 325.487 220.52 325.487 221.481V222.206H327.936L327.906 220.593C327.875 218.744 327.807 218.485 327.175 217.671C326.384 216.665 325.242 216.191 323.089 215.991C322.093 215.903 313.822 215.91 312.818 215.999H312.819ZM334.777 224.744C331.969 229.604 329.671 233.614 329.671 233.659C329.671 233.726 330.089 233.748 331.216 233.748H332.753L333.863 231.913L334.974 230.086L341.852 230.071C345.634 230.056 348.769 230.078 348.814 230.108C348.86 230.137 349.355 230.855 349.91 231.713C350.465 232.564 351.006 233.377 351.104 233.503L351.287 233.748H354.186L354.156 233.577C354.132 233.488 351.766 229.486 348.898 224.685L343.686 215.954L341.784 215.932L339.89 215.918L334.777 224.744ZM344.569 222.717C346.121 225.351 347.399 227.548 347.399 227.592C347.399 227.659 346.014 227.681 341.891 227.681C338.855 227.681 336.359 227.659 336.344 227.622C336.321 227.592 337.462 225.469 338.87 222.909C341.891 217.412 341.609 217.915 341.678 217.915C341.708 217.915 343.009 220.076 344.569 222.717ZM356.073 224.833V233.748H358.735L358.75 230.322L358.773 226.904H372.165L372.697 227.163C373.199 227.407 373.245 227.451 373.496 227.932L373.762 228.443L373.785 231.092L373.816 233.748H376.464V231.617C376.464 229.272 376.403 228.51 376.159 227.888C375.961 227.37 375.254 226.601 374.637 226.231L374.189 225.964L374.568 225.779C375.086 225.528 375.748 224.921 375.969 224.5C376.365 223.738 376.426 223.346 376.418 221.429C376.418 219.831 376.395 219.595 376.25 219.062C376.06 218.411 375.764 217.886 375.246 217.286C374.721 216.687 374.287 216.384 373.61 216.154L373.002 215.954L364.541 215.932L356.073 215.91V224.833ZM372.02 218.322C372.226 218.381 372.583 218.537 372.811 218.67C373.161 218.876 373.268 218.995 373.496 219.425L373.762 219.935V221.422C373.762 222.68 373.74 222.968 373.618 223.301C373.367 224.004 372.887 224.396 372.066 224.566C371.472 224.685 358.957 224.685 358.827 224.559C358.758 224.492 358.736 223.686 358.736 221.392C358.736 219.698 358.758 218.285 358.789 218.263C358.812 218.234 361.718 218.211 365.241 218.211C370.651 218.211 371.701 218.226 372.02 218.322V218.322ZM384.338 215.999C382.763 216.125 381.363 216.45 380.724 216.827C379.705 217.427 379.035 218.389 378.655 219.787C378.495 220.364 378.487 220.578 378.465 224.537C378.434 228.961 378.465 229.538 378.784 230.448C379.081 231.269 379.91 232.335 380.572 232.749C381.242 233.163 382.733 233.526 384.376 233.666C385.624 233.777 394.922 233.785 395.599 233.681C397.098 233.444 398.064 233.022 398.832 232.268C399.395 231.728 399.73 231.158 399.981 230.345C400.141 229.826 400.156 229.612 400.179 227.178L400.218 224.574H388.333V227.015H392.814C396.71 227.015 397.303 227.03 397.387 227.126C397.455 227.208 397.47 227.511 397.448 228.295C397.394 229.589 397.273 230.011 396.778 230.5C396.063 231.225 395.302 231.306 389.595 231.306C384.453 231.306 383.668 231.239 382.505 230.707C381.873 230.418 381.668 230.24 381.44 229.812C381.051 229.064 381.013 228.702 380.975 225.395C380.937 222.065 380.983 221.34 381.302 220.342C381.668 219.217 382.193 218.832 383.707 218.559C384.513 218.411 384.825 218.403 388.827 218.396C393.407 218.396 393.773 218.418 395.105 218.818C396.618 219.276 397.082 219.794 397.143 221.111L397.174 221.836H399.996L399.958 220.852C399.928 220.076 399.875 219.757 399.715 219.276C399.228 217.812 398.109 216.827 396.398 216.362C395.02 215.991 394.686 215.969 389.74 215.947C387.192 215.94 384.757 215.962 384.338 215.999ZM407.285 215.999C405.216 216.177 403.816 216.68 403.177 217.464C402.637 218.123 402.256 219.247 402.104 220.593C402.005 221.533 402.005 228.258 402.112 229.242C402.256 230.655 402.553 231.499 403.162 232.246C403.74 232.963 404.554 233.333 406.083 233.585C406.776 233.696 407.559 233.711 413.213 233.711C419.741 233.711 420.204 233.696 421.392 233.407C422.465 233.148 423.05 232.808 423.53 232.15C424.062 231.432 424.397 230.463 424.549 229.161C424.61 228.702 424.625 227.008 424.61 224.241L424.579 220.024L424.374 219.284C424.085 218.233 423.788 217.708 423.172 217.146C422.738 216.746 422.571 216.65 422.069 216.487C421.285 216.236 420.41 216.088 419.155 215.992C417.945 215.903 408.335 215.91 407.285 215.999ZM419.855 218.381C420.456 218.529 421.018 218.788 421.247 219.04C421.498 219.299 421.795 219.927 421.94 220.482C422.054 220.926 422.069 221.429 422.069 224.684C422.061 227.703 422.038 228.495 421.947 228.976C421.635 230.544 420.981 231.113 419.185 231.388C418.402 231.506 410.451 231.565 408.724 231.462C406.342 231.321 405.581 231.032 405.079 230.056C404.607 229.139 404.539 228.51 404.539 224.759C404.531 221.296 404.577 220.771 404.912 219.905C405.269 218.988 405.65 218.692 406.768 218.463C407.841 218.248 408.602 218.226 413.973 218.241C418.66 218.255 419.406 218.277 419.855 218.381Z" fill="black"/>
</svg>
