<svg width="480" height="320" viewBox="0 0 480 320" fill="none" xmlns="http://www.w3.org/2000/svg">
<path d="M65.7246 143.861C67.8481 141.189 69.9092 138.017 71.9092 134.345C73.9092 130.674 76.1822 125.812 78.7303 119.76C78.907 119.335 79.172 118.681 79.5265 117.796C81.1357 113.904 82.463 110.886 83.5083 108.745C84.3396 106.993 85.0248 105.901 85.565 105.466C86.1052 105.033 86.8345 104.816 87.7552 104.816C88.9761 104.816 89.8345 105.334 90.3294 106.369C90.8243 107.404 91.0723 109.302 91.0723 112.062V113.362L90.6216 134.729L94.0452 123.528C95.266 119.564 96.531 116.344 97.8413 113.866C99.1505 111.388 100.566 109.496 102.088 108.186L103.575 114.238C102.673 115.495 101.633 117.48 100.456 120.197C99.2785 122.914 97.6918 127.032 95.6918 132.553L95.6658 132.606C93.1346 139.596 90.95 143.091 89.1097 143.091C88.0474 143.091 87.3 142.696 86.8674 141.909C86.4336 141.122 86.2173 139.719 86.2173 137.702V137.224L86.7213 111.557C83.625 119.786 80.8379 126.55 78.36 131.849C75.8821 137.149 73.6442 141.153 71.6442 143.86H65.7246V143.861ZM118.359 134.225C118.447 134.243 118.548 134.256 118.665 134.265C118.78 134.274 118.907 134.279 119.05 134.279C119.598 134.279 120.704 133.589 122.368 132.208L122.421 132.182V136.907C121.713 137.58 121.045 138.062 120.417 138.353C119.788 138.645 119.103 138.792 118.36 138.792C118.2 138.792 118.002 138.775 117.763 138.738C117.524 138.703 117.103 138.632 116.503 138.525C115.67 140.083 114.521 141.296 113.052 142.162C111.583 143.029 109.964 143.462 108.195 143.462C105.858 143.462 104.041 142.812 102.741 141.511C101.44 140.209 100.789 138.401 100.789 136.083C100.789 132.297 102.015 129 104.465 126.196C106.916 123.392 109.751 121.989 112.973 121.989C114.937 121.989 116.551 122.542 117.816 123.648C119.081 124.754 119.715 126.121 119.715 127.749C119.715 128.474 119.573 129.062 119.29 129.514C119.007 129.965 118.59 130.307 118.042 130.536C118.29 130.749 118.476 131.014 118.599 131.332C118.722 131.65 118.785 132.04 118.785 132.499C118.785 132.764 118.749 133.035 118.678 133.309C118.607 133.585 118.5 133.89 118.359 134.225ZM112.812 136.508C112.44 136.067 112.174 135.642 112.016 135.234C111.856 134.828 111.777 134.403 111.777 133.96C111.777 132.793 112.112 131.811 112.786 131.014C113.459 130.217 114.334 129.766 115.413 129.66C115.095 128.51 114.687 127.669 114.192 127.138C113.696 126.607 113.051 126.342 112.255 126.342C110.768 126.342 109.349 127.275 107.994 129.143C106.641 131.01 105.964 133.014 105.964 135.155C105.964 136.323 106.216 137.23 106.72 137.875C107.224 138.522 107.927 138.844 108.83 138.844C109.538 138.844 110.25 138.635 110.967 138.22C111.684 137.805 112.298 137.234 112.812 136.508Z" fill="black"/>
<path d="M120.457 138.37V133.752C122.351 132.248 123.917 130.858 125.155 129.584C126.392 128.31 127.295 127.16 127.862 126.133C127.473 125.567 127.194 125.071 127.027 124.646C126.858 124.222 126.774 123.815 126.774 123.426C126.774 122.523 127.035 121.78 127.557 121.196C128.078 120.611 128.738 120.32 129.534 120.32C130.419 120.32 131.1 120.617 131.578 121.209C132.056 121.803 132.338 122.7 132.428 123.904C132.534 123.904 132.693 123.894 132.906 123.878C133.702 123.824 134.25 123.798 134.551 123.798C136.108 123.798 137.241 124.015 137.949 124.448C138.656 124.882 139.011 125.567 139.011 126.505C139.011 126.895 138.932 127.354 138.772 127.885C138.612 128.417 138.382 129.01 138.082 129.663L135.083 135.927C134.994 136.104 134.889 136.317 134.765 136.565C134.517 137.061 134.394 137.335 134.394 137.388C134.394 137.583 134.416 137.729 134.46 137.827C134.505 137.924 134.57 137.973 134.66 137.973C134.995 137.973 135.951 137.486 137.526 136.513C139.101 135.54 140.72 134.363 142.383 132.983V137.761C139.942 139.566 137.735 140.969 135.761 141.968C133.787 142.968 132.279 143.468 131.235 143.468C130.173 143.468 129.354 143.232 128.78 142.764C128.205 142.295 127.917 141.627 127.917 140.76C127.917 139.875 128.536 138.23 129.775 135.823C129.935 135.505 130.058 135.266 130.147 135.106L133.013 129.506C133.137 129.241 133.226 129.025 133.278 128.856C133.331 128.688 133.357 128.542 133.357 128.418C133.357 128.17 133.282 127.998 133.132 127.9C132.981 127.804 132.694 127.754 132.269 127.754C132.18 127.754 132.017 127.768 131.778 127.794C131.539 127.82 131.356 127.833 131.234 127.833C129.73 129.957 128.097 131.878 126.337 133.593C124.575 135.309 122.616 136.901 120.457 138.37Z" fill="black"/>
<path d="M150.263 135.927C150.174 136.14 150.108 136.356 150.064 136.577C150.02 136.799 149.997 137.015 149.997 137.227C149.997 137.439 150.014 137.589 150.05 137.678C150.085 137.767 150.139 137.81 150.21 137.81C150.545 137.81 151.458 137.341 152.944 136.404C154.431 135.466 155.987 134.324 157.615 132.98V137.758C155.174 139.563 152.966 140.967 150.993 141.965C149.019 142.965 147.511 143.465 146.467 143.465C145.635 143.465 144.989 143.27 144.529 142.88C144.068 142.492 143.84 141.943 143.84 141.235C143.84 140.828 143.91 140.355 144.053 139.815C144.194 139.275 144.433 138.537 144.769 137.598L145.805 134.837C144.884 135.687 144.075 136.395 143.375 136.961C142.677 137.527 142.034 137.996 141.451 138.367V133.749C143.628 131.891 145.375 130.361 146.694 129.157C148.012 127.953 148.715 127.245 148.803 127.033L151.511 120.371H147.318L148.698 116.841H152.866C154.104 112.7 155.198 109.79 156.144 108.108C157.09 106.427 158.068 105.586 159.077 105.586C159.644 105.586 160.09 105.794 160.418 106.21C160.745 106.626 160.91 107.196 160.91 107.922C160.91 108.772 160.28 110.674 159.024 113.629C158.44 114.974 157.989 116.045 157.671 116.841H161.574L160.22 120.371H156.288L150.263 135.927Z" fill="black"/>
<path d="M156.66 138.367V133.748C157.831 132.786 158.981 131.799 160.111 130.789C161.207 129.807 162.268 128.821 163.297 127.83L171.286 108.693C171.993 106.994 172.696 105.734 173.396 104.91C174.094 104.087 174.806 103.676 175.533 103.676C176.118 103.676 176.582 103.871 176.926 104.26C177.272 104.65 177.444 105.181 177.444 105.852C177.444 107.498 176.775 109.847 175.439 112.9C174.102 115.952 172.231 119.381 169.826 123.185L165.525 133.909L174.337 126.954C175.84 125.751 177.119 124.871 178.173 124.313C179.225 123.756 180.125 123.478 180.867 123.478C181.433 123.478 181.93 123.633 182.354 123.942C182.779 124.251 182.992 124.619 182.992 125.044C182.992 125.38 182.753 126.053 182.275 127.061C182.115 127.415 181.991 127.698 181.904 127.91L178.241 135.926C178.117 136.209 177.971 136.52 177.803 136.855C177.634 137.191 177.55 137.369 177.55 137.386C177.55 137.581 177.572 137.727 177.617 137.824C177.66 137.922 177.727 137.97 177.816 137.97C178.135 137.97 179.085 137.479 180.67 136.497C182.253 135.515 183.877 134.343 185.541 132.98V137.759C182.993 139.634 180.737 141.054 178.772 142.019C176.809 142.984 175.179 143.465 173.888 143.465C173.109 143.465 172.481 143.289 172.003 142.934C171.525 142.58 171.286 142.111 171.286 141.528C171.286 141.156 171.357 140.74 171.499 140.279C171.64 139.82 171.914 139.147 172.323 138.263L175.799 130.592C172.667 132.839 169.277 135.565 165.633 138.768C161.986 141.97 159.721 143.572 158.838 143.572C158.413 143.572 158.046 143.386 157.736 143.014C157.427 142.643 157.272 142.201 157.272 141.687C157.272 141.474 157.308 141.236 157.378 140.97C157.45 140.705 157.555 140.413 157.696 140.095L159.608 136.14C159.077 136.601 158.568 137.016 158.081 137.388C157.594 137.756 157.121 138.084 156.66 138.367Z" fill="black"/>
<path d="M203.908 137.013C203.908 137.031 203.899 137.066 203.882 137.119C203.687 137.685 203.59 138.137 203.59 138.472C203.59 138.685 203.674 138.857 203.842 138.99C204.011 139.122 204.237 139.189 204.52 139.189C205.157 139.189 205.961 138.804 206.935 138.034C207.909 137.264 208.899 136.216 209.908 134.889C210.191 131.668 210.939 128.997 212.15 126.873C213.362 124.75 214.659 123.688 216.039 123.688C216.606 123.688 217.056 123.882 217.393 124.272C217.729 124.661 217.897 125.193 217.897 125.864C217.897 126.979 217.627 128.253 217.087 129.686C216.547 131.12 215.782 132.597 214.791 134.119C215.039 134.172 215.242 134.212 215.402 134.238C215.562 134.264 215.703 134.278 215.827 134.278C216.375 134.278 217.402 133.65 218.906 132.393L219.198 132.154V136.905C218.472 137.578 217.801 138.06 217.181 138.351C216.562 138.642 215.872 138.789 215.111 138.789C214.545 138.789 214.022 138.727 213.545 138.604C213.067 138.48 212.598 138.295 212.138 138.047C210.316 139.975 208.687 141.351 207.254 142.175C205.82 142.998 204.36 143.409 202.874 143.409C201.653 143.409 200.728 143.1 200.101 142.48C199.473 141.861 199.061 140.835 198.866 139.401C197.662 140.675 196.358 141.661 194.951 142.36C193.545 143.06 192.169 143.409 190.823 143.409C189.584 143.409 188.628 143.06 187.957 142.36C187.284 141.661 186.948 140.675 186.948 139.401C186.948 138.976 186.996 138.507 187.094 137.994C187.191 137.481 187.346 136.862 187.558 136.136C187.027 136.597 186.518 137.011 186.031 137.384C185.545 137.757 185.071 138.084 184.611 138.366V133.748C186.682 132.014 188.398 130.522 189.761 129.275C191.123 128.028 191.858 127.281 191.964 127.033L193.37 123.954H198.307L192.387 136.562C192.227 136.898 192.109 137.225 192.029 137.544C191.95 137.862 191.91 138.137 191.91 138.367C191.91 138.65 191.968 138.859 192.082 138.991C192.197 139.124 192.388 139.19 192.653 139.19C193.626 139.19 194.786 138.531 196.13 137.213C197.475 135.895 198.873 134.051 200.324 131.678C200.784 130.936 201.333 129.971 201.969 128.785C203.19 126.538 204.252 125.413 205.155 125.413C205.668 125.413 206.106 125.543 206.469 125.798C206.831 126.056 207.012 126.352 207.012 126.688C207.012 126.971 206.986 127.258 206.933 127.55C206.88 127.843 206.765 128.254 206.588 128.785L203.908 137.013Z" fill="black"/>
<path d="M237.724 137.759C235.017 139.794 232.659 141.246 230.651 142.112C228.643 142.98 226.692 143.412 224.798 143.412C222.373 143.412 220.533 142.802 219.277 141.581C218.021 140.36 217.393 138.564 217.393 136.193C217.393 132.725 218.706 129.748 221.334 127.261C223.961 124.775 227.036 123.531 230.558 123.531C232.31 123.531 233.654 123.903 234.593 124.646C235.532 125.389 236 126.451 236 127.831C236 129.973 234.832 131.883 232.496 133.565C230.159 135.247 227.028 136.378 223.099 136.963C223.171 137.6 223.457 138.1 223.962 138.462C224.466 138.825 225.143 139.006 225.993 139.006C227.444 139.006 229.174 138.493 231.182 137.467C233.19 136.441 235.371 134.945 237.724 132.981V137.759ZM222.94 133.141C225.293 132.805 227.213 132.203 228.7 131.335C230.186 130.469 230.929 129.566 230.929 128.628C230.929 128.239 230.797 127.924 230.531 127.685C230.265 127.446 229.911 127.327 229.468 127.327C228.406 127.327 227.213 127.889 225.885 129.013C224.559 130.137 223.577 131.512 222.94 133.141Z" fill="black"/>
<path d="M236.742 133.75C238.759 132.157 240.569 130.507 242.17 128.799C243.772 127.092 245.209 125.283 246.483 123.371C246.606 121.389 246.97 119.885 247.571 118.859C248.173 117.833 248.987 117.32 250.013 117.32C250.739 117.32 251.31 117.55 251.725 118.01C252.141 118.471 252.349 119.116 252.349 119.948C252.349 120.567 252.217 121.165 251.951 121.739C251.686 122.315 251.261 122.904 250.677 123.505C250.765 124.921 250.832 126.079 250.876 126.982C250.92 127.884 250.943 128.671 250.943 129.344C250.943 131.308 250.801 132.967 250.518 134.321C250.235 135.676 249.775 136.892 249.137 137.972C250.323 137.37 251.504 136.662 252.681 135.848C253.858 135.035 255.092 134.079 256.384 132.982V137.76C254.119 139.405 252.066 140.617 250.226 141.396C248.385 142.175 246.669 142.564 245.076 142.564H244.731C244.218 142.847 243.705 143.051 243.192 143.174C242.679 143.298 242.086 143.36 241.414 143.36C240.334 143.36 239.502 143.09 238.919 142.55C238.334 142.01 238.043 141.228 238.043 140.201C238.043 139.707 238.127 139.383 238.296 139.233C238.464 139.084 238.823 139.008 239.371 139.008C239.707 139.008 240.211 139.075 240.884 139.207C241.556 139.34 242.06 139.406 242.397 139.406C243.635 139.406 244.59 138.593 245.263 136.965C245.936 135.336 246.272 133.01 246.272 129.984V129.346C245.263 130.904 244.003 132.398 242.491 133.832C240.978 135.266 239.063 136.779 236.744 138.371V133.75H236.742Z" fill="black"/>
<path d="M264.267 135.927C264.179 136.14 264.112 136.356 264.068 136.577C264.024 136.799 264.001 137.015 264.001 137.227C264.001 137.439 264.019 137.589 264.054 137.678C264.089 137.767 264.143 137.81 264.214 137.81C264.55 137.81 265.462 137.341 266.948 136.404C268.435 135.466 269.992 134.324 271.619 132.98V137.758C269.178 139.563 266.97 140.967 264.996 141.965C263.024 142.965 261.515 143.465 260.471 143.465C259.64 143.465 258.993 143.27 258.533 142.88C258.073 142.491 257.844 141.943 257.844 141.235C257.844 140.828 257.915 140.355 258.056 139.815C258.198 139.275 258.437 138.537 258.773 137.598L259.808 134.837C258.888 135.687 258.079 136.395 257.379 136.961C256.68 137.527 256.038 137.996 255.455 138.367V133.749C257.632 131.891 259.379 130.361 260.697 129.157C262.016 127.953 262.719 127.245 262.807 127.033L265.515 120.371H261.321L262.702 116.841H266.87C268.109 112.7 269.201 109.79 270.148 108.108C271.095 106.427 272.072 105.586 273.081 105.586C273.648 105.586 274.095 105.794 274.422 106.21C274.75 106.626 274.914 107.196 274.914 107.922C274.914 108.772 274.285 110.674 273.029 113.629C272.445 114.974 271.994 116.045 271.676 116.841H275.577L274.224 120.371H270.295L264.267 135.927Z" fill="black"/>
<path d="M291.154 137.759C288.446 139.794 286.088 141.246 284.081 142.112C282.073 142.98 280.121 143.412 278.228 143.412C275.803 143.412 273.963 142.802 272.707 141.581C271.451 140.36 270.822 138.564 270.822 136.193C270.822 132.725 272.136 129.748 274.763 127.261C277.391 124.775 280.466 123.531 283.988 123.531C285.74 123.531 287.084 123.903 288.023 124.646C288.962 125.389 289.429 126.451 289.429 127.831C289.429 129.973 288.262 131.883 285.925 133.565C283.589 135.247 280.458 136.378 276.529 136.963C276.6 137.6 276.887 138.1 277.392 138.462C277.896 138.825 278.573 139.006 279.423 139.006C280.873 139.006 282.604 138.493 284.612 137.467C286.62 136.441 288.801 134.945 291.154 132.981V137.759ZM276.37 133.141C278.724 132.805 280.643 132.203 282.13 131.335C283.617 130.469 284.36 129.566 284.36 128.628C284.36 128.239 284.228 127.924 283.962 127.685C283.695 127.446 283.342 127.327 282.899 127.327C281.837 127.327 280.643 127.889 279.316 129.013C277.989 130.137 277.007 131.512 276.37 133.141Z" fill="black"/>
<path d="M290.172 138.37V133.752C292.065 132.248 293.632 130.858 294.87 129.584C296.107 128.31 297.011 127.16 297.577 126.133C297.188 125.567 296.909 125.071 296.742 124.646C296.574 124.222 296.489 123.815 296.489 123.426C296.489 122.523 296.749 121.78 297.272 121.196C297.794 120.611 298.453 120.32 299.249 120.32C300.133 120.32 300.815 120.617 301.293 121.209C301.771 121.803 302.054 122.7 302.142 123.904C302.249 123.904 302.407 123.894 302.62 123.878C303.417 123.824 303.966 123.798 304.266 123.798C305.823 123.798 306.956 124.015 307.663 124.448C308.371 124.882 308.726 125.567 308.726 126.505C308.726 126.895 308.646 127.354 308.487 127.885C308.327 128.417 308.097 129.01 307.797 129.663L304.798 135.927C304.71 136.104 304.603 136.317 304.48 136.565C304.232 137.061 304.108 137.335 304.108 137.388C304.108 137.583 304.131 137.729 304.175 137.827C304.219 137.924 304.286 137.973 304.375 137.973C304.711 137.973 305.667 137.486 307.241 136.513C308.816 135.54 310.435 134.363 312.098 132.983V137.761C309.657 139.566 307.449 140.969 305.475 141.968C303.503 142.968 301.994 143.468 300.95 143.468C299.888 143.468 299.07 143.232 298.495 142.764C297.919 142.297 297.632 141.627 297.632 140.76C297.632 139.875 298.251 138.23 299.49 135.823C299.65 135.505 299.773 135.266 299.862 135.106L302.728 129.506C302.851 129.241 302.941 129.025 302.993 128.856C303.046 128.688 303.072 128.542 303.072 128.418C303.072 128.17 302.998 127.998 302.847 127.9C302.696 127.804 302.409 127.754 301.984 127.754C301.896 127.754 301.731 127.768 301.492 127.794C301.253 127.82 301.072 127.833 300.949 127.833C299.445 129.957 297.812 131.878 296.052 133.593C294.291 135.309 292.33 136.901 290.172 138.37Z" fill="black"/>
<path d="M311.168 138.367V133.749C313.238 132.015 314.955 130.524 316.317 129.277C317.68 128.03 318.415 127.282 318.52 127.034L319.927 123.955H324.863L320.855 132.449C324.891 129.193 328.022 126.884 330.252 125.521C332.482 124.159 334.207 123.477 335.427 123.477C335.975 123.477 336.458 123.632 336.874 123.941C337.289 124.251 337.498 124.619 337.498 125.043C337.498 125.38 337.259 126.052 336.781 127.06C336.621 127.415 336.498 127.698 336.409 127.91L332.747 135.926C332.623 136.209 332.477 136.519 332.308 136.854C332.141 137.191 332.056 137.368 332.056 137.385C332.056 137.58 332.079 137.726 332.123 137.824C332.167 137.921 332.234 137.97 332.322 137.97C332.64 137.97 333.592 137.478 335.176 136.496C336.76 135.515 338.383 134.342 340.047 132.98V137.758C337.499 139.633 335.243 141.054 333.278 142.019C331.314 142.983 329.686 143.465 328.393 143.465C327.614 143.465 326.987 143.288 326.509 142.934C326.031 142.579 325.792 142.11 325.792 141.527C325.792 141.156 325.863 140.74 326.005 140.279C326.146 139.819 326.421 139.147 326.828 138.262L330.305 130.592C327.173 132.838 323.784 135.564 320.139 138.767C316.493 141.97 314.228 143.571 313.344 143.571C312.919 143.571 312.552 143.385 312.242 143.014C311.931 142.643 311.777 142.201 311.777 141.687C311.777 141.474 311.812 141.236 311.884 140.97C311.955 140.704 312.06 140.413 312.202 140.094L314.114 136.14C313.582 136.601 313.074 137.015 312.587 137.388C312.1 137.76 311.628 138.084 311.168 138.367ZM353.929 143.092C354.902 140.862 355.871 138.766 356.835 136.801C357.799 134.836 358.768 132.962 359.741 131.174C358.945 131.297 358.113 131.426 357.246 131.559C356.38 131.691 355.476 131.837 354.538 131.997L356.051 127.485C357.114 127.308 358.144 127.158 359.143 127.034C360.143 126.911 361.139 126.814 362.13 126.742C366.2 120.037 370.517 114.732 375.083 110.829C379.649 106.927 383.719 104.977 387.293 104.977C388.69 104.977 389.73 105.269 390.412 105.852C391.093 106.435 391.433 107.321 391.433 108.507C391.433 109.604 390.384 113.361 388.288 119.774C386.191 126.188 384.524 132.113 383.285 137.544C383.426 138.27 383.524 138.801 383.577 139.136C383.63 139.473 383.656 139.756 383.656 139.986C383.656 140.995 383.396 141.8 382.874 142.401C382.352 143.003 381.648 143.304 380.764 143.304C379.933 143.304 379.246 142.981 378.707 142.336C378.167 141.69 377.897 140.836 377.897 139.774C377.897 139.367 377.986 138.632 378.162 137.571C378.181 137.43 378.198 137.315 378.216 137.226C376.482 135.226 374.544 133.74 372.403 132.766C370.261 131.793 367.873 131.306 365.236 131.306H364.785C363.776 133.182 362.794 135.098 361.839 137.053C360.883 139.008 359.945 141.021 359.025 143.091H353.929V143.092ZM367.784 126.794C370.138 127.059 372.296 127.618 374.261 128.467C376.226 129.316 377.942 130.423 379.41 131.785C380.578 127.538 381.924 123.071 383.446 118.381C384.968 113.692 385.729 111.108 385.729 110.63C385.729 110.365 385.694 110.175 385.622 110.059C385.551 109.944 385.437 109.887 385.277 109.887C383.738 109.887 381.238 111.484 377.779 114.678C374.319 117.872 370.987 121.91 367.784 126.794ZM391.01 136.137C390.478 136.598 389.97 137.013 389.483 137.385C388.996 137.758 388.523 138.085 388.063 138.367V133.749C390.133 132.015 391.85 130.524 393.212 129.277C394.575 128.03 395.31 127.282 395.415 127.034L396.822 123.955H401.758L396.344 135.926L395.68 137.385C395.68 137.58 395.698 137.726 395.733 137.824C395.768 137.921 395.822 137.97 395.893 137.97C396.247 137.97 397.22 137.483 398.813 136.51C400.405 135.537 402.024 134.361 403.67 132.98V137.758C401.122 139.652 398.866 141.076 396.901 142.031C394.936 142.986 393.3 143.465 391.99 143.465C391.211 143.465 390.601 143.282 390.159 142.921C389.717 142.56 389.495 142.076 389.495 141.475C389.495 141.05 389.567 140.524 389.708 139.895C389.85 139.268 390.045 138.626 390.293 137.971L391.01 136.137ZM401.229 120.742C400.398 120.742 399.756 120.526 399.305 120.092C398.854 119.658 398.628 119.043 398.628 118.247C398.628 117.168 398.951 116.274 399.596 115.567C400.242 114.859 401.061 114.504 402.052 114.504C402.848 114.504 403.463 114.717 403.896 115.142C404.33 115.567 404.546 116.168 404.546 116.947C404.546 118.045 404.233 118.952 403.604 119.667C402.976 120.383 402.184 120.742 401.229 120.742Z" fill="black"/>
<path d="M402.689 138.37V133.752C404.583 132.248 406.149 130.858 407.387 129.584C408.625 128.31 409.529 127.16 410.095 126.133C409.705 125.567 409.427 125.071 409.259 124.646C409.092 124.222 409.007 123.815 409.007 123.426C409.007 122.523 409.267 121.78 409.789 121.196C410.311 120.611 410.97 120.32 411.766 120.32C412.651 120.32 413.333 120.617 413.811 121.209C414.289 121.803 414.572 122.7 414.66 123.904C414.767 123.904 414.925 123.894 415.138 123.878C415.934 123.824 416.483 123.798 416.783 123.798C418.341 123.798 419.473 124.015 420.181 124.448C420.889 124.882 421.243 125.567 421.243 126.505C421.243 126.895 421.164 127.354 421.004 127.885C420.845 128.417 420.615 129.01 420.315 129.663L417.316 135.927C417.227 136.104 417.121 136.317 416.998 136.565C416.75 137.061 416.626 137.335 416.626 137.388C416.626 137.583 416.649 137.729 416.693 137.827C416.737 137.924 416.804 137.973 416.892 137.973C417.229 137.973 418.184 137.486 419.759 136.513C421.334 135.54 422.952 134.363 424.616 132.983V137.761C422.174 139.566 419.967 140.969 417.993 141.968C416.02 142.968 414.512 143.468 413.468 143.468C412.405 143.468 411.588 143.232 411.012 142.764C410.437 142.297 410.149 141.627 410.149 140.76C410.149 139.875 410.769 138.23 412.008 135.823C412.167 135.505 412.291 135.266 412.379 135.106L415.246 129.506C415.369 129.241 415.458 129.025 415.511 128.856C415.564 128.688 415.59 128.542 415.59 128.418C415.59 128.17 415.515 127.998 415.364 127.9C415.214 127.804 414.926 127.754 414.501 127.754C414.413 127.754 414.249 127.768 414.01 127.794C413.771 127.82 413.59 127.833 413.466 127.833C411.962 129.957 410.329 131.878 408.569 133.593C406.807 135.309 404.848 136.901 402.689 138.37Z" fill="black"/>
<path d="M422.072 155.949H150.882L307.597 213.492H55.3848" stroke="#ED1C4E" stroke-width="14.1563"/>
</svg>
