<svg width="480" height="320" viewBox="0 0 480 320" fill="none" xmlns="http://www.w3.org/2000/svg">
<path fill-rule="evenodd" clip-rule="evenodd" d="M70.1291 128.606L70.2803 128.453H63.4398L55.3828 145.693H62.2234L66.3264 136.844L72.2552 145.693H78.4885L86.5455 128.453H79.705L75.7511 136.995L70.1291 128.606Z" fill="#006BAE"/>
<path fill-rule="evenodd" clip-rule="evenodd" d="M70.1291 128.301L75.7511 136.996L79.8562 128.301H86.5455L78.4885 145.694H72.2552L66.3264 136.845L62.2234 145.694H55.3828L63.4398 128.301H70.1291ZM403.33 128.301L409.108 136.996L413.059 128.301H419.9L411.843 145.694H405.461L399.683 136.845L395.427 145.694H388.739L396.794 128.301H403.33ZM265.458 145.083C264.091 145.387 263.33 145.541 261.811 145.694C260.139 145.847 259.076 145.847 257.708 145.847C256.341 145.847 255.275 145.694 254.212 145.541C253.147 145.234 252.237 144.929 251.475 144.473C250.107 143.557 249.347 142.49 249.042 141.27C248.586 139.896 248.891 138.524 249.5 136.845C250.107 135.624 250.866 134.404 251.931 133.337C252.845 132.269 254.212 131.353 255.578 130.437C257.099 129.675 258.771 129.063 260.29 128.607C261.963 128.147 263.635 127.996 265.458 127.996C266.826 127.996 268.043 128.147 269.259 128.301C270.324 128.607 271.541 128.912 272.606 129.368L270.78 133.488C269.868 133.03 268.956 132.725 268.045 132.418C267.131 132.267 266.221 132.114 265.156 132.114C263.332 132.114 261.66 132.572 260.139 133.334C258.618 134.25 257.555 135.471 256.946 136.843C256.336 138.215 256.338 139.436 256.946 140.2C257.706 141.116 258.769 141.572 260.29 141.572C260.595 141.572 260.899 141.572 261.204 141.419C261.509 141.419 261.509 141.419 261.811 141.267L262.876 139.284H260.139L262.114 135.776H269.866L265.458 145.083ZM225.785 131.505H227.306C228.369 131.505 229.13 131.658 229.586 132.116C229.89 132.421 229.89 133.032 229.434 133.795C229.13 134.711 228.522 135.32 227.762 135.627C227.155 136.085 226.092 136.238 224.873 136.238H223.505L225.785 131.505ZM219.249 145.694L222.138 139.438H224.417C227.457 139.438 229.888 138.98 231.865 138.064C233.842 136.996 235.363 135.622 236.121 133.792C237.035 131.963 236.882 130.589 235.817 129.673C234.6 128.757 232.623 128.301 229.586 128.301H220.161L212.104 145.694H219.249ZM159.357 128.301L156.317 134.708H163.918L166.958 128.301H174.405L166.046 145.694H158.596L161.638 139.286H154.188L150.997 145.694H143.701L152.06 128.301H159.357ZM129.41 132.725L131.541 128.301H151.148L148.869 132.725H142.635L136.253 145.694H129.41L135.644 132.725H129.41ZM93.5373 134.097C94.6004 133.488 95.8168 133.03 97.0332 133.03C98.2496 133.03 99.0081 133.488 99.6173 134.097C100.073 134.86 100.073 135.776 99.6173 136.996C99.1614 138.064 98.2496 138.98 97.1845 139.742C96.1214 140.507 94.905 140.812 93.6886 140.812C92.4722 140.812 91.7137 140.505 91.1045 139.742C90.6486 138.98 90.6486 138.064 91.1045 136.996C91.5604 135.778 92.4743 134.862 93.5373 134.097ZM83.3521 140.507C83.3521 141.574 83.808 142.49 84.5686 143.406C85.3291 144.322 86.2409 144.931 87.4573 145.389C88.5204 145.696 89.8901 146.001 91.5604 146.001C93.0814 146.001 94.7537 145.696 96.2727 145.389C97.7916 144.931 99.3127 144.322 100.68 143.406C102.201 142.49 103.418 141.574 104.328 140.507C105.393 139.44 106.153 138.219 106.76 136.998C107.216 135.627 107.521 134.406 107.37 133.337C107.37 132.269 106.914 131.353 106.153 130.437C105.544 129.675 104.481 129.063 103.418 128.607C102.201 128.147 100.834 127.996 99.1614 127.996C97.6404 127.996 95.9681 128.147 94.4491 128.607C92.9281 129.063 91.4091 129.675 90.0414 130.437C88.5204 131.353 87.3039 132.269 86.2409 133.337C85.3291 134.404 84.5686 135.624 83.9614 136.998C83.5055 138.219 83.2009 139.438 83.3521 140.507ZM201.921 134.097C202.984 133.488 204.2 133.03 205.417 133.03C206.633 133.03 207.392 133.488 207.85 134.097C208.459 134.86 208.459 135.776 208.001 136.996C207.392 138.064 206.633 138.98 205.568 139.742C204.503 140.507 203.286 140.812 202.072 140.812C200.856 140.812 199.944 140.505 199.488 139.742C199.032 138.98 199.032 138.064 199.488 136.996C199.944 135.778 200.702 134.862 201.921 134.097ZM191.734 140.507C191.734 141.574 192.189 142.49 192.95 143.406C193.559 144.322 194.622 144.931 195.685 145.389C196.902 145.696 198.269 146.001 199.942 146.001C201.461 146.001 202.982 145.696 204.654 145.389C206.175 144.931 207.694 144.322 209.062 143.406C210.583 142.49 211.797 141.574 212.711 140.507C213.774 139.44 214.535 138.219 215.144 136.998C215.6 135.627 215.904 134.406 215.751 133.337C215.751 132.269 215.295 131.353 214.535 130.437C213.774 129.675 212.862 129.063 211.646 128.607C210.585 128.147 209.064 127.996 207.543 127.996C205.873 127.996 204.352 128.147 202.831 128.607C201.309 129.063 199.79 129.675 198.421 130.437C196.902 131.353 195.685 132.269 194.62 133.337C193.708 134.404 192.948 135.624 192.341 136.998C191.734 138.219 191.582 139.438 191.734 140.507ZM296.319 128.301H303.462L299.207 137.608C298.598 138.828 298.447 139.744 298.901 140.354C299.207 140.965 299.966 141.27 301.333 141.27C302.548 141.27 303.613 140.963 304.525 140.354C305.439 139.742 306.199 138.828 306.655 137.608L310.909 128.301H318.052L313.798 137.759C312.582 140.505 310.605 142.488 308.174 143.862C305.741 145.234 302.701 145.999 299.052 145.999C295.556 145.999 293.125 145.236 291.909 143.862C290.692 142.488 290.692 140.505 291.909 137.759L296.319 128.301ZM381.748 132.879L381.596 139.44H375.668L381.748 132.879ZM369.888 145.694L372.626 142.641H381.596V145.694H388.437L387.523 128.301H380.227L362.896 145.694H369.888ZM128.347 129.521C127.131 128.605 125.003 128.301 121.811 128.301H112.084L104.027 145.694H111.17L114.668 138.37H116.643C118.467 138.524 119.076 140.658 119.076 144.169V145.694H125.916L125.612 140.202C125.612 139.591 125.461 138.675 125.156 138.219C125.005 137.912 124.547 137.608 124.244 137.456C125.461 136.998 126.068 136.54 126.979 135.778C127.74 135.166 128.347 134.253 128.805 133.337C129.564 131.658 129.41 130.437 128.347 129.521ZM122.116 133.641C121.963 134.253 121.204 134.862 120.444 135.166C119.834 135.471 118.315 135.778 116.948 135.778H115.58L117.859 131.049H119.227C120.444 131.049 121.355 131.355 121.811 131.66C122.116 131.963 122.418 132.725 122.116 133.641Z" fill="#006BAE"/>
<path fill-rule="evenodd" clip-rule="evenodd" d="M192.648 129.521C191.432 128.605 189.304 128.301 186.112 128.301H176.536L168.328 145.694H175.471L178.967 138.37H180.944C182.768 138.524 183.528 140.658 183.528 144.169C183.528 144.474 183.377 145.085 183.377 145.694H190.217L190.064 140.202C189.911 139.591 189.759 138.675 189.455 138.219C189.304 137.912 188.999 137.608 188.543 137.457C189.759 136.999 190.518 136.541 191.278 135.778C192.039 135.167 192.646 134.253 193.102 133.337C193.865 131.658 193.711 130.437 192.648 129.521ZM186.415 133.641C186.264 134.253 185.503 134.862 184.742 135.167C184.135 135.471 182.614 135.778 181.398 135.778H179.879L182.158 131.049H183.526C184.742 131.049 185.806 131.355 186.11 131.66C186.568 131.963 186.719 132.725 186.415 133.641ZM291.758 129.521C290.693 128.605 288.565 128.301 285.222 128.301H275.644L267.436 145.694H274.735L278.231 138.37H280.205C282.029 138.524 282.636 140.658 282.636 144.169V145.694H289.479L289.172 140.202C289.172 139.591 288.867 138.675 288.716 138.219C288.565 137.912 288.109 137.608 287.804 137.457C289.019 136.999 289.628 136.541 290.386 135.778C291.3 135.167 291.907 134.253 292.21 133.337C293.126 131.658 292.975 130.437 291.758 129.521ZM285.676 133.641C285.525 134.253 284.613 134.862 284.004 135.167C283.397 135.471 281.876 135.778 280.508 135.778H279.142L281.422 131.049H282.79C284.004 131.049 284.918 131.355 285.372 131.66C285.676 131.963 285.983 132.725 285.676 133.641ZM326.568 128.301L328.848 135.167L337.209 128.301H343.896L335.839 145.694H328.999L333.56 135.778L325.047 142.795L322.919 136.083L318.511 145.694H311.824L319.879 128.301H326.568ZM352.712 128.301L354.842 135.167L363.202 128.301H370.042L361.985 145.694H354.993L359.708 135.778L351.193 142.795L349.065 136.083L344.504 145.694H337.816L346.025 128.301H352.712Z" fill="#006BAE"/>
<path d="M92.4727 191.768C158.901 144.777 358.945 151.641 424.613 151.336" stroke="#006BAE" stroke-width="1.43387" stroke-miterlimit="2.6131"/>
</svg>
