<svg width="480" height="320" viewBox="0 0 480 320" fill="none" xmlns="http://www.w3.org/2000/svg">
<path fill-rule="evenodd" clip-rule="evenodd" d="M327.746 187.169H424.409V119.999H327.746V187.169Z" fill="#EA222F"/>
<path fill-rule="evenodd" clip-rule="evenodd" d="M39.4648 162.961V142.673H48.5003V145.744C49.6939 144.549 51.0579 143.697 52.4211 143.014C53.7851 142.504 55.4899 142.163 57.1955 142.163C58.7284 142.163 60.0934 142.334 61.286 142.843C62.4803 143.185 63.5028 143.868 64.3556 144.549C65.0376 145.402 65.548 146.254 65.8895 147.276C66.23 148.3 66.4008 150.005 66.4008 152.391V162.961H56.5134V152.562C56.5134 151.027 56.3427 149.834 55.8314 149.322C55.3201 148.639 54.4671 148.471 53.1031 148.471C51.9098 148.471 51.0579 148.81 50.3759 149.493C49.6939 150.176 49.3524 151.198 49.3524 152.562V162.961H39.4648Z" fill="#32448C"/>
<path fill-rule="evenodd" clip-rule="evenodd" d="M81.7469 152.904C81.7469 154.779 82.0884 155.972 82.7695 156.825C83.4516 157.677 84.475 158.017 85.8391 158.017C87.3732 158.017 88.3967 157.677 89.0778 156.825C89.5891 155.972 89.9297 154.779 89.9297 152.904C89.9297 151.028 89.5891 149.665 89.0778 148.811C88.3967 147.959 87.3732 147.618 85.8391 147.618C84.475 147.618 83.4516 147.959 82.7695 148.811C82.0884 149.665 81.7469 151.028 81.7469 152.904ZM71.8594 152.904C71.8594 149.494 73.0527 146.767 75.6094 144.891C77.9969 143.015 81.5771 141.993 85.8391 141.993C90.2711 141.993 93.6806 143.015 96.238 144.891C98.6246 146.767 99.988 149.494 99.988 152.904C99.988 156.143 98.6246 158.87 96.238 160.745C93.6806 162.791 90.2711 163.644 85.8391 163.644C81.5771 163.644 78.1668 162.791 75.6094 160.745C73.0527 158.87 71.8594 156.143 71.8594 152.904Z" fill="#32448C"/>
<path fill-rule="evenodd" clip-rule="evenodd" d="M105.609 162.961V142.673H114.644V146.424C115.326 144.89 116.35 143.868 117.542 143.185C118.736 142.504 120.44 142.163 122.486 142.163H123.339V150.176C122.998 150.176 122.657 150.176 122.316 150.176C121.975 150.176 121.634 150.176 121.293 150.176C119.248 150.176 117.884 150.515 116.86 151.198C116.008 151.88 115.497 153.073 115.497 154.607V162.961H105.609Z" fill="#32448C"/>
<path fill-rule="evenodd" clip-rule="evenodd" d="M134.592 162.961L126.238 142.673H136.126L139.877 155.118L143.627 142.673H151.98L155.901 155.118L159.482 142.673H169.028L161.187 162.961H151.47L147.889 151.198L144.309 162.961H134.592Z" fill="#32448C"/>
<path fill-rule="evenodd" clip-rule="evenodd" d="M182.326 150.516H191.191C191.02 149.323 190.679 148.301 189.828 147.789C189.146 147.108 187.952 146.767 186.588 146.767C185.395 146.767 184.372 147.108 183.519 147.789C182.837 148.472 182.326 149.323 182.326 150.516ZM190.679 156.995H200.055C199.373 159.212 197.84 160.915 195.624 161.939C193.236 163.132 190.168 163.644 186.417 163.644C181.985 163.644 178.746 162.791 176.188 160.745C173.632 158.87 172.438 156.312 172.438 153.074C172.438 149.665 173.632 146.937 176.188 144.891C178.916 143.015 182.326 141.993 186.758 141.993C191.191 141.993 194.6 143.015 197.158 145.232C199.715 147.277 200.908 150.347 200.908 154.097V154.608H182.326C182.326 155.972 182.837 156.995 183.519 157.677C184.372 158.359 185.565 158.699 186.929 158.699C187.952 158.699 188.633 158.53 189.315 158.188C189.997 158.017 190.338 157.507 190.679 156.995Z" fill="#32448C"/>
<path fill-rule="evenodd" clip-rule="evenodd" d="M215.232 152.732C215.232 154.267 215.573 155.46 216.084 156.312C216.767 157.165 217.79 157.507 219.153 157.507C220.517 157.507 221.71 157.165 222.222 156.312C223.074 155.631 223.245 154.437 223.245 152.732C223.245 151.199 222.904 150.177 222.222 149.323C221.54 148.472 220.517 148.13 219.153 148.13C217.79 148.13 216.767 148.472 216.084 149.323C215.573 150.006 215.232 151.199 215.232 152.732ZM206.879 165.178H216.767C216.937 165.689 217.108 166.03 217.619 166.201C218.13 166.372 218.641 166.542 219.665 166.542C221.199 166.542 222.052 166.201 222.562 165.689C223.074 165.178 223.415 163.985 223.415 162.28V161.257C222.562 161.768 221.54 162.28 220.347 162.621C219.323 162.962 217.959 163.132 216.426 163.132C213.015 163.132 210.459 162.28 208.413 160.405C206.367 158.529 205.344 155.972 205.344 152.904C205.344 149.664 206.367 146.937 208.242 145.061C210.117 143.186 212.675 142.163 215.914 142.163C217.79 142.163 219.323 142.505 220.688 143.015C222.052 143.527 223.074 144.21 224.097 145.403V142.673H232.962V161.427C232.962 165.007 231.768 167.394 229.723 168.928C227.507 170.463 224.097 171.145 218.982 171.145C215.573 171.145 212.675 170.633 210.629 169.61C208.583 168.587 207.219 167.053 206.879 165.178Z" fill="#32448C"/>
<path fill-rule="evenodd" clip-rule="evenodd" d="M239.949 140.628V134.83H250.007V140.628H239.949ZM239.949 162.961V142.673H250.007V162.961H239.949Z" fill="#32448C"/>
<path fill-rule="evenodd" clip-rule="evenodd" d="M274.048 153.927C273.023 154.267 271.83 154.608 270.125 154.949C267.74 155.461 266.545 156.143 266.545 156.995C266.545 157.677 266.715 158.017 267.227 158.359C267.74 158.699 268.42 158.87 269.274 158.87C270.977 158.87 272.172 158.53 272.853 158.017C273.706 157.335 274.048 156.312 274.048 154.949C274.048 154.608 274.048 154.437 274.048 154.267C274.048 154.097 274.048 154.097 274.048 153.927ZM274.899 162.962L274.216 161.087C273.023 161.939 271.66 162.621 270.125 163.132C268.762 163.473 267.057 163.644 265.183 163.644C262.454 163.644 260.236 163.132 258.704 162.109C257.17 160.915 256.316 159.382 256.316 157.335C256.316 155.29 257.17 153.755 258.704 152.904C260.236 151.881 263.134 151.199 267.227 150.687C267.74 150.687 268.42 150.687 269.445 150.516C272.513 150.347 274.048 149.665 274.048 148.472C274.048 147.959 273.706 147.618 273.194 147.277C272.684 146.937 271.66 146.937 270.467 146.937C269.445 146.937 268.762 146.937 268.079 147.447C267.569 147.789 267.227 148.13 267.227 148.811H257.509C257.509 146.596 258.704 144.891 260.919 143.698C263.134 142.505 266.545 141.993 270.808 141.993C272.853 141.993 274.728 142.164 276.433 142.505C278.309 142.674 279.673 143.186 280.524 143.698C281.719 144.379 282.571 145.062 283.083 145.913C283.424 146.767 283.764 147.789 283.764 149.323V160.745C283.764 161.087 283.764 161.427 283.934 161.768C284.276 161.939 284.447 162.28 284.786 162.45V162.962H274.899Z" fill="#32448C"/>
<path fill-rule="evenodd" clip-rule="evenodd" d="M290.926 162.961V142.673H299.963V145.744C301.156 144.549 302.52 143.697 303.883 143.014C305.247 142.504 306.952 142.163 308.657 142.163C310.191 142.163 311.555 142.334 312.748 142.843C313.943 143.185 314.965 143.868 315.817 144.549C316.5 145.402 317.009 146.254 317.351 147.276C317.692 148.3 317.863 150.005 317.863 152.391V162.961H307.974V152.562C307.974 151.027 307.806 149.834 307.294 149.322C306.781 148.639 305.93 148.471 304.566 148.471C303.371 148.471 302.349 148.81 301.837 149.493C301.156 150.176 300.815 151.198 300.815 152.562V162.961H290.926Z" fill="#32448C"/>
<path fill-rule="evenodd" clip-rule="evenodd" d="M332.18 162.961V154.778H342.066V162.961H332.18Z" fill="white"/>
<path fill-rule="evenodd" clip-rule="evenodd" d="M349.062 162.961V142.673H358.098V145.744C359.291 144.549 360.483 143.697 361.847 143.014C363.381 142.504 364.916 142.163 366.792 142.163C368.326 142.163 369.689 142.334 370.882 142.843C372.075 143.185 373.1 143.868 373.783 144.549C374.634 145.402 375.144 146.254 375.485 147.276C375.827 148.3 375.827 150.005 375.827 152.391V162.961H365.94V152.562C365.94 151.027 365.769 149.834 365.257 149.322C364.745 148.639 363.894 148.471 362.701 148.471C361.335 148.471 360.483 148.81 359.803 149.493C359.291 150.176 358.949 151.198 358.949 152.562V162.961H349.062Z" fill="white"/>
<path fill-rule="evenodd" clip-rule="evenodd" d="M391.341 152.904C391.341 154.779 391.682 155.972 392.192 156.825C392.875 157.677 393.897 158.017 395.432 158.017C396.795 158.017 397.82 157.677 398.5 156.825C399.183 155.972 399.523 154.779 399.523 152.904C399.523 151.028 399.183 149.665 398.5 148.811C397.82 147.959 396.795 147.618 395.432 147.618C393.897 147.618 392.875 147.959 392.192 148.811C391.682 149.665 391.341 151.028 391.341 152.904ZM381.281 152.904C381.281 149.494 382.647 146.767 385.033 144.891C387.589 143.015 390.999 141.993 395.432 141.993C399.693 141.993 403.274 143.015 405.66 144.891C408.219 146.767 409.411 149.494 409.411 152.904C409.411 156.143 408.219 158.87 405.66 160.745C403.274 162.791 399.693 163.644 395.432 163.644C390.999 163.644 387.589 162.791 385.033 160.745C382.647 158.87 381.281 156.143 381.281 152.904Z" fill="white"/>
<path fill-rule="evenodd" clip-rule="evenodd" d="M383.324 180.863C389.461 178.305 391.337 177.623 395.428 175.577C396.111 175.236 393.723 175.066 392.871 174.895C392.018 174.554 391.166 174.554 390.483 173.872C390.315 173.702 390.483 173.19 390.656 173.02C391.166 172.85 391.678 172.85 392.188 172.679C392.871 172.679 394.576 173.531 394.576 172.679C394.576 171.656 392.7 171.486 392.188 170.463C392.018 170.122 392.188 169.44 392.359 169.099C392.53 168.587 393.042 168.587 393.554 168.417C394.064 168.417 394.576 168.417 395.086 168.587C396.621 169.099 397.986 170.122 399.348 170.633C399.86 170.804 400.372 170.804 400.714 170.633C402.419 169.781 403.953 168.758 405.317 167.735C405.485 167.565 405.827 167.223 405.656 167.053C404.634 166.201 403.441 165.689 402.077 165.178C398.496 163.985 394.745 163.473 391.166 162.28C390.825 162.109 390.483 161.768 390.656 161.597C391.166 160.915 391.847 160.405 392.7 160.063C393.213 159.723 393.723 159.552 394.406 159.723C399.518 160.234 404.463 161.597 409.578 161.597C410.6 161.597 411.625 159.892 412.647 159.723C413.669 159.382 414.181 161.087 415.203 160.575C417.933 159.552 420.148 157.507 422.536 155.972C428.161 152.563 433.445 152.392 436.515 153.414C436.855 153.585 437.367 153.755 437.538 154.267C437.706 154.778 437.706 155.46 437.196 155.972C436.003 157.847 434.469 159.382 432.762 160.745C430.717 162.45 428.161 163.473 426.285 165.348C425.944 165.519 426.627 166.03 427.136 166.03C427.649 166.03 427.99 165.519 428.502 165.348C429.012 165.178 429.524 165.007 429.864 165.007C430.376 165.178 430.888 165.348 430.888 165.86C431.23 166.542 430.376 167.735 431.059 168.075C433.615 169.951 437.196 170.122 439.413 172.168C440.094 172.85 438.048 173.531 437.196 173.872C436.684 174.213 436.003 174.043 435.32 173.872C431.571 173.361 427.99 172.168 424.068 171.656C421.853 171.315 419.465 171.486 417.079 171.486C416.567 171.486 415.886 170.974 415.374 171.145C413.498 171.656 411.795 172.679 410.09 173.361C408.044 174.213 405.997 174.554 404.124 175.407C403.953 175.577 404.124 175.918 404.295 176.088C404.463 176.43 405.146 176.601 405.317 177.111C405.317 177.452 404.975 177.793 404.634 177.793C403.953 177.964 403.441 177.793 402.758 177.623C401.394 177.283 400.201 176.601 398.838 176.601C398.326 176.601 398.157 176.941 397.816 177.111C397.474 177.283 396.962 177.111 396.621 177.283C392.53 179.157 395.94 178.134 384.519 182.908C373.096 187.851 355.706 194.671 340.533 198.081C325.531 201.49 313.086 199.444 313.086 191.261C313.086 183.079 322.463 173.19 330.647 166.883L334.737 166.712L327.407 174.725C325.361 176.941 323.485 180.863 323.485 185.977C323.485 190.921 326.041 192.966 333.032 192.966C339.85 192.795 350.761 191.091 359.116 188.875C367.468 186.659 377.357 183.419 383.324 180.863Z" fill="#32448C"/>
<path fill-rule="evenodd" clip-rule="evenodd" d="M393.89 170.463C394.741 171.485 395.424 172.679 396.617 173.19C397.471 173.702 399.515 174.213 400.369 173.702C403.779 171.997 405.994 170.803 409.063 168.928C409.233 168.758 409.063 168.247 408.894 167.905C408.723 167.734 408.382 167.565 408.04 167.565C407.699 167.565 407.358 167.565 407.018 167.734C405.143 168.928 403.437 170.463 401.391 171.485C400.71 171.827 399.686 171.827 399.005 171.656C397.642 171.315 396.446 170.463 395.254 169.951C394.912 169.781 394.573 169.44 394.231 169.44C394.061 169.44 393.719 169.44 393.551 169.61C393.551 169.951 393.719 170.122 393.89 170.463Z" fill="white"/>
<path fill-rule="evenodd" clip-rule="evenodd" d="M410.088 163.985C410.088 163.644 409.917 163.132 410.088 162.792C410.427 162.45 410.768 162.11 411.28 161.939C411.622 161.598 412.132 161.087 412.473 161.428C412.986 161.939 412.815 162.792 412.644 163.303C412.644 163.644 412.303 163.985 411.961 164.155C411.451 164.326 411.11 164.667 410.598 164.667C410.256 164.667 410.256 164.155 410.088 163.985Z" fill="white"/>
<path fill-rule="evenodd" clip-rule="evenodd" d="M418.957 162.28C421.172 160.915 423.047 159.211 425.265 158.017C426.968 156.995 428.675 156.312 430.378 155.631C431.573 155.29 432.936 155.119 433.959 154.608C434.129 154.608 434.3 154.096 434.129 154.096C433.446 153.755 432.424 153.927 431.741 153.927C430.207 154.096 428.675 154.267 427.309 154.778C425.435 155.46 423.56 156.312 421.855 157.335C419.637 158.529 417.764 159.892 415.888 161.427C415.717 161.597 415.376 161.939 415.547 161.939C416.398 162.28 417.422 162.28 418.274 162.28C418.444 162.28 418.786 162.45 418.957 162.28Z" fill="white"/>
</svg>
