<svg width="480" height="320" viewBox="0 0 480 320" fill="none" xmlns="http://www.w3.org/2000/svg">
<g clip-path="url(#clip0_755_1292)">
<path d="M254.974 153.016C253.157 153.328 251.631 154.223 250.887 156.85H261.658C260.248 153.238 256.945 152.659 254.974 153.016Z" fill="#D81939"/>
<path d="M338.038 165.817C340.413 165.419 342.119 164.396 342.975 161.325L338.072 161.415C335.211 161.46 333.951 161.325 333.315 162.66C333.094 163.058 333.315 164.084 333.502 164.396C334.579 166.17 336.733 166.039 338.038 165.817Z" fill="#D81939"/>
<path d="M287.279 154.893C286.299 155.202 285.626 155.608 285.028 156.359C284.205 157.337 283.988 158.758 284.138 159.649C284.321 160.979 285.14 161.825 286.266 162.445C287.799 163.291 290.353 163.381 291.891 162.359C292.9 161.69 293.465 160.404 293.574 159.337C293.652 158.137 293.278 157.115 292.377 156.224C291.101 154.803 288.442 154.581 287.279 154.893Z" fill="#D81939"/>
<path d="M153.332 153.6C152.663 153.777 151.96 154.089 151.145 154.799C149.435 156.438 149.099 158.528 149.174 160.171C149.286 161.945 150.105 163.764 151.59 164.828C153.224 165.986 155.561 166.031 157.162 165.185C158.946 164.212 159.911 162.343 160.135 160.656C160.356 159.017 159.836 156.75 158.497 155.243C157.05 153.645 154.746 153.247 153.332 153.6Z" fill="#D81939"/>
<path d="M433.911 190.249C433.163 190.621 432.482 191.173 431.603 191.219C430.702 191.004 429.909 190.839 428.996 190.61C427.628 190.339 426.386 190.023 425.002 189.798C423.944 189.61 422.848 189.407 421.797 189.2C420.937 189.05 420.271 188.926 419.43 188.892C418.401 188.741 417.399 188.786 416.348 188.734C415.08 188.711 413.827 188.666 412.548 188.527C410.559 189.429 408.692 190.346 406.505 191.098C405.095 191.579 403.685 192.079 402.249 192.508C402.735 193.106 403.46 193.402 403.692 194.151C403.73 194.29 403.595 194.335 403.52 194.395C403.243 194.526 403.071 194.59 402.641 194.681C401.242 194.365 399.78 193.951 398.396 193.59L398.056 193.508C397.473 193.636 396.706 194.072 396.13 193.827C368.245 207.931 341.206 216.453 327.918 213.739C315.957 211.291 321.807 194.737 338.905 181.141L342.462 181.137C328.894 192.549 327.91 206.863 336.478 207.901C346.019 209.059 370.205 203.905 395.221 192.624C394.986 192.504 394.832 192.451 394.649 192.406C394.208 192.297 393.811 192.132 393.351 191.989C392.386 191.688 391.496 191.489 390.632 191.076C390.419 190.94 390.378 190.677 390.565 190.407C391.115 190.023 391.878 189.828 392.521 190.031C393.161 190.095 393.931 190.166 394.492 190.249L394.526 190.222C393.718 189.414 392.97 188.595 392.173 187.764C392.05 187.561 391.825 187.414 391.878 187.151C391.863 186.956 392.05 186.802 392.203 186.651C392.386 186.55 392.499 186.516 392.637 186.411C393.243 186.106 393.475 185.885 393.991 186.054C395.404 186.681 396.624 187.23 398.217 187.933C398.553 188.035 398.871 188.313 399.245 188.245C399.698 188.068 399.833 187.967 400.278 187.756C400.379 187.685 400.861 187.407 401.063 187.275C401.568 186.967 402.002 186.659 402.353 186.415C403.285 185.775 403.883 185.381 404.601 184.851C403.423 184.309 402.211 183.674 400.973 183.155C399.717 182.806 399.402 182.682 398.18 182.396C397.435 182.223 396.44 181.968 396.388 181.956C394.769 181.562 394.354 181.408 392.884 181.062C392.181 180.757 391.362 180.72 390.64 180.355C390.572 180.239 390.558 180.107 390.61 179.96C390.845 179.547 391.328 179.318 391.638 179.006C392.128 178.746 392.543 178.318 393.089 178.209C394.241 178.145 395.143 178.352 396.362 178.476C397.787 178.622 399.249 178.803 400.659 179.036C402.525 179.235 404.526 179.445 406.419 179.754C406.587 179.765 406.703 179.881 406.89 179.833C407.036 179.923 407.234 179.863 407.372 179.949C407.555 179.949 407.686 179.998 407.843 180.028C408.681 179.318 409.695 178.464 410.783 178.224C411.419 178.145 412.066 178.63 412.38 179.085C414.463 177.562 416.539 176.137 418.764 174.95C420.866 173.829 422.807 172.95 424.516 172.491C425.709 172.175 426.913 171.927 428.144 171.867C428.323 171.894 428.521 171.886 428.712 171.867C429.49 171.916 430.279 172.063 431.023 172.198C431.573 172.36 431.704 172.424 432.101 172.619C432.254 172.69 432.471 172.777 432.598 172.909C432.841 173.108 432.811 173.232 432.897 173.431C433.047 174.047 432.673 174.589 432.43 175.077C431.39 176.731 429.801 177.927 428.252 179.126C426.644 180.389 424.942 181.464 423.301 182.61C422.956 182.783 422.639 183.046 422.313 183.223C422.609 183.385 422.784 183.471 423.114 183.599L423.099 183.61C423.181 183.674 423.274 183.716 423.39 183.768C423.839 183.58 424.142 183.317 424.718 183.062C425.234 182.795 425.586 182.753 426.008 182.851C426.382 182.994 426.853 183.437 426.921 183.851C427.115 184.464 427.033 184.997 426.771 185.618C428.862 186.659 430.87 187.569 432.897 188.595C433.41 188.85 433.843 189.031 434.33 189.347C434.479 189.681 434.161 189.997 433.911 190.249ZM318.594 145.047H309.48V138.946H318.594V145.047ZM318.594 171.875H309.48V147.93H318.594V171.875ZM300.246 177.585C297.318 181.043 293.312 181.355 288.177 181.355C283.027 181.355 278.947 180.468 276.61 176.348C276.359 175.893 275.865 174.698 275.727 172.863H285.174C285.256 173.145 285.365 173.352 285.514 173.638C286.453 175.416 289.187 174.882 290.126 174.792C291.251 174.66 292.527 174.126 293.163 172.709C293.499 171.777 293.499 169.555 293.499 168.578C290.163 171.379 284.318 171.822 280.656 169.864C277.279 167.999 275.39 165.334 274.829 161.692C274.347 158.76 274.721 154.403 277.055 151.471C279.912 147.825 284.43 146.584 287.799 147.163C289.34 147.385 291.476 148.047 293.499 150.005V147.874H302.58V166.977C302.58 170.619 302.841 174.484 300.246 177.585ZM271.243 161.692H251.04C251.152 162.932 252.412 164.755 253.934 165.375C255.273 165.864 258.505 166.045 260.064 164.932C261.066 164.221 261.216 163.909 261.515 163.511L270.536 164.533L270.424 164.755C268.498 170.131 262.963 171.728 260.064 172.217C256.126 172.837 247.808 173.149 243.571 166.973C241.342 163.688 240.901 160.105 241.937 156.271C243.313 151.095 246.619 148.87 250.628 147.663C254.791 146.374 263.628 146.554 267.937 151.591C270.282 154.309 271.202 158.301 271.243 161.248V161.692ZM230.122 171.879H220.761L217.422 161.432C216.748 159.748 216.715 159.527 216.603 158.951C216.524 159.527 216.453 159.748 215.821 161.346L212.44 171.879H203.079L194.055 147.908H204.044L207.204 157.933C207.724 159.748 207.874 160.151 207.874 160.681C207.874 160.151 207.982 159.748 208.506 157.933L211.7 147.908H221.577L224.737 157.933C225.253 159.748 225.335 160.151 225.335 160.681C225.335 160.151 225.481 159.748 226.001 157.933L229.157 147.908H239.184L230.122 171.879ZM190.958 156.933C188.131 156.933 186.276 157.335 184.533 158.545V171.886H175.415V147.889H184.533V150.637C185.086 149.798 186.092 148.866 187.614 148.152C188.172 147.889 189.843 147.577 190.958 147.577V156.933ZM169.341 162.966C167.935 168.071 164.666 170.292 160.724 171.668C155.971 173.22 147.537 173.13 142.784 168.157C140.076 165.319 139.444 161.504 139.815 158.35C140.297 154.441 142.189 151.159 146.019 149.069C147.986 147.96 150.402 147.344 152.369 147.073C155.676 146.629 163.735 147.073 167.669 152.933C169.865 156.128 170.235 159.639 169.341 162.966ZM134.926 171.867H125.846V161.688C125.846 159.429 126.033 156.414 123.733 154.903C122.618 154.196 120.352 154.196 119.054 155.17C116.75 156.899 117.012 158.809 117.012 162.218V171.867H107.894V147.9H117.012V150.294C121.429 146.348 127.218 146.302 130.925 148.565C134.926 151.005 134.926 154.903 134.926 159.121V171.867ZM324.178 162.928C325.184 158.158 329.156 157.455 333.131 156.925C335.136 156.617 336.142 156.531 338.367 156.395C340.222 156.301 343.083 156.485 343.083 156.485C342.933 154.854 342.679 153.835 341.34 153.17C340.147 152.55 335.805 152.324 334.616 153.257C334.092 153.644 333.804 154.102 333.662 154.689H325.494C325.558 152.742 325.842 151.584 326.852 150.155C328.972 147.227 332.832 146.96 338.404 146.96C345.387 146.96 349.284 147.539 351.442 150.419C352.743 152.061 352.552 154.632 352.552 156.617V166.838C352.552 169.108 353.035 170.755 354.153 171.818L343.678 171.864C343.307 171.153 343.307 169.687 343.307 169.687C338.221 172.664 332.349 173.33 327.82 171.42L327.559 171.198C324.436 169.285 323.471 166.218 324.178 162.928ZM358.981 147.904H368.096V150.298C372.516 146.351 378.302 146.31 382.008 148.569C386.014 151.009 386.014 154.91 386.014 159.124V171.875H376.933V161.692C376.933 159.433 377.12 156.422 374.812 154.91C373.705 154.2 371.439 154.2 370.138 155.177C367.837 156.907 368.096 158.812 368.096 162.222V171.875H358.981V147.904ZM37.0078 228.004H456.904V92.0002H37.0078V228.004Z" fill="#D81939"/>
<path d="M418.218 178.675C417.514 179.126 416.037 180.359 415.992 180.416C414.87 180.277 413.819 180.25 412.75 180.134L412.974 180.013C414.395 178.844 415.656 178.093 417.234 177.127C418.636 176.27 420.708 175.161 422.414 174.428C423.951 173.83 425.518 173.341 427.197 173.093C428.121 172.954 429.045 172.875 429.976 173.18C428.955 173.405 428.342 173.582 427.242 174.044C426.285 174.443 424.759 175.059 423.528 175.668C421.714 176.578 420.188 177.412 418.218 178.675ZM408.655 182.592C408.43 182.427 408.385 182.201 408.296 181.964C408.213 181.408 408.217 181.089 408.382 180.709L408.636 180.487C408.924 180.284 409.111 180.115 409.429 179.923C409.705 179.739 409.892 179.626 410.162 179.521C409.99 179.987 410.068 180.201 410.225 180.731C410.285 180.991 410.498 181.171 410.558 181.34C409.919 181.754 409.309 182.235 408.655 182.592ZM405.019 187.389C403.381 188.264 401.567 189.272 399.163 190.347C398.542 190.629 397.88 190.79 397.154 190.655C396.664 190.591 396.601 190.644 396.156 190.516C395.292 189.629 394.349 188.742 393.474 187.847C393.377 187.689 393.134 187.584 393.067 187.407L393.635 187.088H393.848C395.142 187.656 395.991 188.095 397.248 188.716C397.73 188.952 398.213 189.178 398.706 189.373C399.282 189.426 399.634 189.163 400.146 188.964L400.517 188.742C401.235 188.283 401.508 188.144 401.915 187.862C403.292 186.968 404.324 186.355 405.629 185.528L405.891 185.351C406.56 185.626 406.856 185.765 407.499 186.024C406.657 186.528 405.82 186.96 405.019 187.389ZM432.897 188.595C430.873 187.565 428.865 186.659 426.774 185.618C427.033 184.998 427.115 184.464 426.924 183.855C426.853 183.438 426.382 182.994 426.012 182.848C425.589 182.754 425.237 182.795 424.718 183.062C424.145 183.318 423.842 183.581 423.39 183.769C423.274 183.716 423.18 183.675 423.102 183.611L423.113 183.6C422.784 183.472 422.612 183.385 422.317 183.224C422.642 183.047 422.96 182.784 423.3 182.611C424.942 181.464 426.647 180.389 428.252 179.126C429.8 177.927 431.393 176.732 432.429 175.078C432.676 174.589 433.046 174.048 432.897 173.432C432.811 173.232 432.841 173.108 432.598 172.909C432.474 172.777 432.257 172.695 432.1 172.62C431.707 172.424 431.577 172.36 431.027 172.199C430.283 172.063 429.493 171.917 428.716 171.868C428.525 171.887 428.327 171.898 428.143 171.868C426.917 171.928 425.712 172.176 424.516 172.496C422.81 172.95 420.865 173.83 418.767 174.954C416.542 176.138 414.463 177.563 412.38 179.081C412.069 178.63 411.422 178.145 410.783 178.224C409.698 178.465 408.681 179.318 407.843 180.025C407.69 179.998 407.559 179.95 407.376 179.95C407.233 179.863 407.035 179.923 406.893 179.833C406.706 179.882 406.586 179.765 406.422 179.754C404.529 179.446 402.525 179.235 400.662 179.036C399.252 178.803 397.79 178.623 396.361 178.476C395.142 178.352 394.245 178.145 393.089 178.209C392.543 178.318 392.128 178.747 391.642 179.006C391.328 179.318 390.849 179.547 390.609 179.961C390.557 180.107 390.576 180.239 390.643 180.359C391.361 180.72 392.18 180.758 392.887 181.062C394.353 181.408 394.768 181.562 396.388 181.957C396.444 181.968 397.435 182.224 398.179 182.397C399.402 182.682 399.716 182.806 400.973 183.156C402.214 183.675 403.422 184.31 404.6 184.851C403.886 185.381 403.284 185.776 402.353 186.415C402.001 186.659 401.567 186.968 401.063 187.276C400.861 187.411 400.382 187.686 400.277 187.757C399.836 187.968 399.697 188.069 399.249 188.246C398.875 188.313 398.557 188.035 398.22 187.934C396.627 187.231 395.404 186.682 393.994 186.054C393.474 185.885 393.242 186.111 392.636 186.411C392.498 186.517 392.386 186.55 392.203 186.652C392.053 186.802 391.862 186.956 391.877 187.152C391.825 187.415 392.053 187.562 392.176 187.765C392.973 188.595 393.717 189.415 394.525 190.223L394.491 190.249C393.931 190.17 393.164 190.095 392.524 190.031C391.877 189.828 391.114 190.024 390.568 190.407C390.378 190.678 390.422 190.941 390.632 191.076C391.496 191.49 392.386 191.689 393.351 191.99C393.815 192.132 394.207 192.298 394.652 192.407C394.832 192.452 394.989 192.505 395.221 192.625C370.208 203.906 346.018 209.059 336.482 207.901C327.913 206.864 328.897 192.553 342.462 181.137L338.909 181.141C321.81 194.737 315.961 211.292 327.917 213.739C341.205 216.453 368.245 207.931 396.133 193.828C396.709 194.068 397.472 193.64 398.059 193.508L398.4 193.591C399.783 193.952 401.246 194.365 402.645 194.681C403.071 194.591 403.243 194.527 403.523 194.399C403.594 194.335 403.729 194.286 403.692 194.151C403.46 193.403 402.734 193.106 402.248 192.508C403.688 192.08 405.094 191.58 406.504 191.099C408.692 190.347 410.558 189.43 412.548 188.528C413.827 188.667 415.08 188.712 416.351 188.734C417.399 188.787 418.405 188.742 419.433 188.892C420.274 188.926 420.94 189.05 421.797 189.2C422.848 189.407 423.943 189.61 425.002 189.798C426.389 190.024 427.627 190.343 428.996 190.606C429.909 190.843 430.701 191.005 431.603 191.219C432.485 191.174 433.166 190.621 433.914 190.249C434.165 189.997 434.479 189.685 434.329 189.347C433.847 189.031 433.413 188.851 432.897 188.595Z" fill="#003D4E"/>
<path d="M427.242 174.043C428.342 173.581 428.955 173.404 429.976 173.179C429.045 172.874 428.121 172.953 427.197 173.092C425.518 173.336 423.955 173.829 422.414 174.43C420.709 175.159 418.637 176.268 417.234 177.125C415.656 178.091 414.396 178.843 412.974 180.016L412.75 180.133C413.82 180.249 414.871 180.275 415.993 180.415C416.037 180.354 417.515 179.125 418.218 178.674C420.189 177.411 421.715 176.58 423.528 175.667C424.759 175.058 426.285 174.442 427.242 174.043Z" fill="white"/>
<path d="M410.159 179.52C409.894 179.625 409.707 179.738 409.426 179.922C409.108 180.11 408.925 180.283 408.633 180.49L408.379 180.708C408.218 181.087 408.211 181.407 408.297 181.963C408.383 182.2 408.428 182.425 408.656 182.591C409.306 182.234 409.916 181.753 410.559 181.339C410.496 181.174 410.286 180.993 410.227 180.73C410.069 180.2 409.987 179.986 410.159 179.52Z" fill="white"/>
<path d="M405.629 185.528C404.32 186.355 403.288 186.968 401.915 187.863C401.507 188.141 401.234 188.284 400.516 188.742L400.146 188.964C399.63 189.163 399.282 189.426 398.706 189.37C398.213 189.178 397.726 188.953 397.244 188.716C395.991 188.096 395.142 187.656 393.848 187.088H393.631L393.066 187.404C393.134 187.585 393.377 187.69 393.474 187.844C394.349 188.739 395.292 189.629 396.156 190.517C396.601 190.644 396.664 190.592 397.154 190.652C397.88 190.791 398.542 190.629 399.162 190.347C401.567 189.272 403.381 188.261 405.019 187.389C405.82 186.961 406.657 186.528 407.495 186.025C406.855 185.765 406.56 185.626 405.891 185.352L405.629 185.528Z" fill="white"/>
<path d="M130.925 148.564C127.219 146.301 121.429 146.346 117.012 150.297V147.899H107.895V171.87H117.012V162.22C117.012 158.807 116.754 156.901 119.054 155.172C120.352 154.195 122.619 154.195 123.733 154.905C126.033 156.416 125.85 159.427 125.85 161.69V171.87H134.927V159.119C134.927 154.905 134.927 151.004 130.925 148.564Z" fill="white"/>
<path d="M160.134 160.657C159.91 162.345 158.945 164.209 157.161 165.187C155.564 166.033 153.223 165.987 151.592 164.83C150.104 163.766 149.289 161.947 149.173 160.169C149.098 158.526 149.434 156.44 151.144 154.801C151.959 154.087 152.666 153.778 153.331 153.602C154.749 153.245 157.049 153.647 158.496 155.244C159.839 156.752 160.355 159.015 160.134 160.657ZM152.37 147.076C150.403 147.343 147.983 147.963 146.02 149.072C142.19 151.158 140.298 154.44 139.815 158.349C139.445 161.503 140.077 165.318 142.785 168.156C147.538 173.133 155.972 173.22 160.725 171.667C164.667 170.291 167.936 168.07 169.342 162.965C170.236 159.639 169.862 156.131 167.67 152.933C163.732 147.076 155.676 146.629 152.37 147.076Z" fill="white"/>
<path d="M226.005 157.932C225.485 159.751 225.339 160.149 225.339 160.679C225.339 160.149 225.257 159.751 224.741 157.932L221.581 147.906H211.704L208.506 157.932C207.986 159.751 207.878 160.149 207.878 160.679C207.878 160.149 207.728 159.751 207.208 157.932L204.048 147.906H194.059L203.083 171.877H212.444L215.825 161.345C216.457 159.751 216.528 159.525 216.607 158.95C216.719 159.525 216.752 159.751 217.426 161.431L220.765 171.877H230.126L239.188 147.906H229.161L226.005 157.932Z" fill="white"/>
<path d="M250.888 156.852C251.636 154.22 253.158 153.33 254.976 153.018C256.947 152.66 260.249 153.239 261.659 156.852H250.888ZM250.63 147.665C246.621 148.868 243.315 151.097 241.938 156.273C240.902 160.107 241.344 163.689 243.573 166.975C247.81 173.151 256.128 172.839 260.066 172.218C262.964 171.73 268.499 170.128 270.425 164.753L270.538 164.531L261.517 163.509C261.218 163.911 261.068 164.223 260.066 164.93C258.506 166.042 255.275 165.866 253.936 165.377C252.414 164.753 251.154 162.934 251.041 161.689H271.244V161.25C271.203 158.303 270.283 154.307 267.938 151.589C263.63 146.552 254.793 146.375 250.63 147.665Z" fill="white"/>
<path d="M291.892 162.357C290.351 163.38 287.804 163.293 286.267 162.444C285.141 161.823 284.322 160.978 284.139 159.647C283.989 158.76 284.21 157.335 285.029 156.358C285.631 155.606 286.304 155.204 287.281 154.892C288.444 154.584 291.103 154.805 292.382 156.222C293.279 157.113 293.653 158.136 293.575 159.335C293.466 160.402 292.902 161.692 291.892 162.357ZM302.584 147.87H293.504V150.005C291.481 148.047 289.341 147.381 287.804 147.163C284.435 146.584 279.917 147.825 277.059 151.471C274.726 154.407 274.348 158.76 274.834 161.692C275.391 165.334 277.28 167.999 280.657 169.868C284.322 171.822 290.168 171.379 293.504 168.578C293.504 169.556 293.504 171.777 293.167 172.709C292.528 174.126 291.252 174.66 290.13 174.792C289.192 174.882 286.454 175.416 285.519 173.638C285.37 173.352 285.261 173.142 285.179 172.863H275.728C275.866 174.698 276.364 175.893 276.614 176.348C278.948 180.468 283.028 181.355 288.178 181.355C293.317 181.355 297.322 181.043 300.251 177.585C302.842 174.484 302.584 170.619 302.584 166.977V147.87Z" fill="white"/>
<path d="M309.48 145.05H318.595V138.95H309.48V145.05Z" fill="white"/>
<path d="M309.48 171.871H318.595V147.926H309.48V171.871Z" fill="white"/>
<path d="M333.314 162.66C333.95 161.322 335.21 161.461 338.071 161.416L342.974 161.322C342.121 164.393 340.412 165.416 338.037 165.818C336.732 166.04 334.578 166.171 333.505 164.393C333.314 164.081 333.093 163.059 333.314 162.66ZM327.562 171.197L327.82 171.423C332.349 173.328 338.221 172.663 343.307 169.686C343.307 169.686 343.307 171.156 343.677 171.862L354.153 171.821C353.038 170.753 352.556 169.107 352.556 166.84V156.62C352.556 154.631 352.743 152.06 351.441 150.421C349.287 147.538 345.39 146.963 338.408 146.963C332.835 146.963 328.972 147.226 326.855 150.154C325.845 151.586 325.561 152.74 325.494 154.688H333.662C333.808 154.105 334.092 153.643 334.615 153.259C335.805 152.327 340.151 152.549 341.34 153.169C342.679 153.834 342.933 154.853 343.083 156.488C343.083 156.488 340.222 156.304 338.367 156.398C336.141 156.529 335.139 156.62 333.131 156.928C329.155 157.454 325.183 158.157 324.181 162.927C323.474 166.216 324.435 169.284 327.562 171.197Z" fill="white"/>
<path d="M368.099 162.224C368.099 158.814 367.841 156.905 370.141 155.176C371.442 154.202 373.708 154.202 374.819 154.909C377.123 156.42 376.932 159.435 376.932 161.694V171.873H386.017V159.123C386.017 154.909 386.017 151.011 382.011 148.571C378.305 146.308 372.519 146.353 368.099 150.296V147.902H358.984V171.873H368.099V162.224Z" fill="white"/>
<path d="M184.532 150.638V147.89H175.414V171.884H184.532V158.547C186.275 157.333 188.13 156.934 190.953 156.934V147.578C189.843 147.578 188.171 147.89 187.614 148.153C186.092 148.868 185.085 149.796 184.532 150.638Z" fill="white"/>
<path d="M32.3688 227.905H23.0938V91.9994H32.3688V227.905Z" fill="#003D4E"/>
</g>
<defs>
<clipPath id="clip0_755_1292">
<rect width="436" height="136" fill="white" transform="translate(22 92)"/>
</clipPath>
</defs>
</svg>
