<svg width="480" height="320" viewBox="0 0 480 320" fill="none" xmlns="http://www.w3.org/2000/svg">
<path d="M380.089 135.531C369.234 135.739 361.559 142.606 361.559 142.606C353.607 149.749 353.607 159.806 353.607 159.806C353.607 169.863 361.559 176.937 361.559 176.937C369.234 183.873 380.089 184.081 380.089 184.081H381.472C392.327 183.873 400.002 176.937 400.002 176.937C407.953 169.863 407.953 159.806 407.953 159.806C407.953 149.749 400.002 142.606 400.002 142.606C392.327 135.739 381.472 135.531 381.472 135.531H380.089ZM380.504 145.311C380.504 145.311 385.828 145.311 389.561 149.68C389.561 149.68 393.364 154.119 393.364 160.361C393.364 160.361 393.364 166.603 389.561 170.972C389.561 170.972 385.828 175.411 380.504 175.411C380.504 175.411 375.18 175.411 371.377 170.972C371.377 170.972 367.643 166.603 367.643 160.361C367.643 160.361 367.643 154.119 371.377 149.68C371.377 149.68 375.18 145.311 380.504 145.311ZM409.405 184.081H424.616V135.531H409.405V184.081M243.188 180.266C243.188 180.266 240.146 181.861 236.55 182.832L227.216 184.081H224.589L215.808 183.04C215.808 183.04 211.798 182.069 208.479 180.266C208.479 180.266 201.426 176.521 201.288 171.25V135.531H215.808V168.129C215.808 168.129 215.877 170.834 218.85 172.776C218.85 172.776 221.892 174.856 226.179 174.856C226.179 174.856 230.466 174.856 233.508 172.776C233.508 172.776 236.481 170.834 236.55 168.129V135.531H250.379V171.25C250.379 171.25 250.24 176.521 243.188 180.266ZM278.312 172.013L287.439 184.081H304.102L286.816 159.806L303.894 135.531H287.784L269.738 159.806V135.531H255.91V184.081H269.738L278.312 172.013ZM350.634 135.531V184.081H336.806V165.493H319.521V184.081H305.692V135.531H319.521V155.09H336.806V135.531H350.634ZM174.115 135.531C174.115 135.531 165.473 135.739 159.319 139.901C159.319 139.901 152.889 144.34 152.889 150.582C152.889 150.582 152.889 155.853 157.521 159.806L159.319 161.193C159.319 161.193 165.611 165.563 174.53 165.632H175.083C175.083 165.632 178.195 165.701 180.269 167.088C180.269 167.088 182.481 168.545 182.481 170.487C182.481 170.487 182.481 172.429 180.131 173.816C180.131 173.816 177.849 175.203 174.53 175.203C174.53 175.203 171.211 175.203 168.86 173.816C168.86 173.816 166.579 172.429 166.579 170.487L166.648 169.863H152.197C152.197 169.863 152.474 175.619 158.835 179.711C158.835 179.711 165.127 183.803 173.839 184.081H176.189C176.189 184.081 184.901 183.803 191.124 179.711C191.124 179.711 197.831 175.411 197.831 169.308C197.831 169.308 197.831 163.829 192.369 159.737L191.539 159.112L191.124 158.835C191.124 158.835 184.901 154.812 176.259 154.604H175.222L174.115 154.535C174.115 154.535 171.972 154.327 170.382 153.148C170.382 153.148 168.446 151.761 168.446 149.749C168.446 149.749 168.446 147.738 170.382 146.281C170.382 146.281 172.387 144.894 175.221 144.894C175.221 144.894 178.056 144.894 179.992 146.281C179.992 146.281 181.997 147.738 181.997 149.749V149.888H196.863C196.863 149.888 196.517 144.062 190.433 139.901C190.433 139.901 184.417 135.809 176.051 135.531H174.115Z" fill="#003970"/>
<path d="M92.9592 122.426C77.3805 122.426 66.364 133.373 66.364 133.373C55.3848 144.395 55.3848 159.982 55.3848 159.982C55.3848 175.568 66.364 186.553 66.364 186.553C77.3805 197.575 92.9592 197.575 92.9592 197.575C108.538 197.575 119.517 186.553 119.517 186.553C130.534 175.568 130.534 159.982 130.534 159.982C130.534 144.395 119.517 133.373 119.517 133.373C108.538 122.426 92.9592 122.426 92.9592 122.426ZM92.9592 127.287C92.9592 127.287 103.382 127.287 111.394 132.928L61.0228 167.255H87.1728L95.9266 192.565L111.394 133.039V133.002C111.394 133.002 113.842 134.672 116.031 136.862C116.031 136.862 125.637 146.436 125.637 159.982C125.637 159.982 125.637 173.564 116.031 183.139C116.031 183.139 107.574 191.637 95.9266 192.565L92.9592 192.676C92.9592 192.676 79.4205 192.676 69.7766 183.139C69.7766 183.139 62.9145 176.273 61.0228 167.255C61.0228 167.255 60.281 163.767 60.281 159.982C60.281 159.982 60.281 146.436 69.7766 136.862C69.7766 136.862 79.4205 127.287 92.9592 127.287ZM102.9 145.1V145.137L95.5928 176.756L90.2515 162.988L77.0466 162.134L102.789 145.212L102.9 145.1Z" fill="#9A9A9A"/>
</svg>
