<svg width="480" height="320" viewBox="0 0 480 320" fill="none" xmlns="http://www.w3.org/2000/svg">
<path d="M384.336 123.539H409.739V149.025H384.336V123.539Z" fill="white"/>
<path d="M408.435 141.316C408.435 141.78 408.252 142.224 407.925 142.553L403.74 146.737C403.578 146.899 403.384 147.028 403.172 147.116C402.959 147.204 402.731 147.249 402.501 147.249C402.272 147.249 402.046 147.203 401.834 147.115C401.515 146.983 401.242 146.759 401.05 146.472C400.858 146.184 400.755 145.847 400.755 145.501V137.882L391.901 146.738C391.572 147.065 391.127 147.248 390.664 147.248C390.434 147.249 390.206 147.203 389.994 147.115C389.781 147.027 389.589 146.898 389.426 146.735L386.475 143.778C385.792 143.094 385.794 141.989 386.475 141.306L395.326 132.457H387.71C387.365 132.457 387.027 132.355 386.739 132.162C386.452 131.97 386.228 131.697 386.096 131.378C385.964 131.059 385.929 130.707 385.996 130.368C386.064 130.029 386.23 129.718 386.475 129.473L390.659 125.289C390.987 124.959 391.431 124.775 391.895 124.775H406.688C407.653 124.775 408.435 125.559 408.435 126.525V141.316ZM412.016 122.286C409.137 119.554 404.327 118.227 397.307 118.227C390.2 118.227 385.33 119.598 382.412 122.419C379.462 125.27 378.029 129.82 378.029 136.333C378.029 142.646 379.438 147.046 382.33 149.794C385.17 152.488 389.998 153.799 397.091 153.799C404.105 153.799 408.944 152.46 411.888 149.704C414.902 146.883 416.371 142.335 416.371 135.798C416.371 129.493 414.945 125.071 412.016 122.286M161.828 148.182C161.74 147.563 161.583 147.03 161.345 146.556C161.005 145.876 160.525 145.342 159.908 144.96C159.311 144.595 158.624 144.403 157.924 144.403H130.81C130.103 144.403 129.418 144.597 128.817 144.964C128.176 145.36 127.664 145.953 127.345 146.675C127.163 147.087 127.03 147.549 126.937 148.086C126.856 148.547 126.819 149.043 126.819 149.601C126.819 150.165 126.858 150.66 126.938 151.112C127.036 151.66 127.179 152.127 127.369 152.531C127.695 153.227 128.2 153.8 128.814 154.174C129.414 154.544 130.105 154.74 130.81 154.739H138.809V185.572C138.809 186.319 139.023 187.035 139.424 187.638C139.734 188.098 140.314 188.725 141.332 189.078C141.712 189.212 142.161 189.317 142.703 189.396C143.194 189.468 143.739 189.504 144.367 189.504C145.021 189.504 145.573 189.468 146.064 189.395C146.586 189.314 147.023 189.211 147.396 189.081C148.417 188.725 148.994 188.104 149.31 187.634C149.712 187.026 149.925 186.314 149.925 185.572V154.739H157.924C158.63 154.739 159.32 154.544 159.913 154.18C160.501 153.82 160.973 153.308 161.314 152.665C161.568 152.187 161.734 151.649 161.827 151.014C161.887 150.59 161.915 150.126 161.915 149.601C161.915 149.082 161.887 148.62 161.828 148.182M134.217 181.004C133.901 180.41 133.477 179.926 132.95 179.562C132.325 179.128 131.578 178.898 130.796 178.898H119.785V148.156C119.785 147.412 119.571 146.698 119.166 146.085C118.862 145.63 118.283 145.01 117.251 144.646C116.874 144.513 116.441 144.411 115.917 144.332C115.434 144.26 114.88 144.224 114.226 144.224C113.597 144.224 113.054 144.258 112.559 144.332C112.026 144.409 111.58 144.513 111.194 144.647C110.167 145.01 109.588 145.633 109.289 146.084C108.882 146.692 108.668 147.409 108.668 148.156V184.247C108.668 186.44 109.645 187.638 110.462 188.253C111.386 188.952 112.457 189.323 113.563 189.323H130.795C131.578 189.323 132.323 189.093 132.955 188.657C133.517 188.267 133.96 187.734 134.276 187.07C134.49 186.615 134.641 186.102 134.726 185.541C134.788 185.119 134.816 184.646 134.816 184.095C134.817 183.549 134.79 183.077 134.728 182.65C134.637 182.022 134.469 181.485 134.217 181.004ZM84.2668 179.471C82.4654 179.471 81.0013 179.191 79.9151 178.637C78.8648 178.099 78.0516 177.375 77.4307 176.414C76.738 175.344 76.2323 174.016 75.9255 172.466C75.583 170.736 75.4108 168.802 75.4108 166.714C75.4108 164.867 75.5949 163.089 75.9585 161.428C76.2862 159.93 76.8263 158.619 77.5624 157.532C78.2551 156.509 79.1386 155.71 80.2578 155.091C81.3304 154.496 82.7496 154.197 84.4776 154.197C86.238 154.197 87.6847 154.481 88.7777 155.044C89.8474 155.593 90.6733 156.329 91.3062 157.296C92.0101 158.374 92.5264 159.689 92.8391 161.212C93.1892 162.907 93.3656 164.777 93.3656 166.774C93.3656 168.665 93.1847 170.474 92.8285 172.154C92.5052 173.669 91.9698 175.008 91.2351 176.127C90.5566 177.158 89.6828 177.957 88.5623 178.57C87.4648 179.167 86.021 179.471 84.2668 179.471ZM99.8695 149.95C98.1489 147.935 95.9757 146.387 93.4105 145.345C90.9359 144.341 88.0371 143.832 84.7957 143.832C81.4329 143.832 78.4159 144.395 75.8253 145.503C73.1764 146.636 70.9313 148.279 69.1516 150.382C67.4057 152.448 66.0859 154.963 65.2287 157.857C64.408 160.63 63.9922 163.731 63.9922 167.076C63.9922 170.543 64.3721 173.678 65.1239 176.39C65.9169 179.264 67.1631 181.726 68.8277 183.711C70.5274 185.747 72.7005 187.311 75.2815 188.367C77.7688 189.381 80.7065 189.896 84.0109 189.896C87.372 189.896 90.3905 189.334 92.9812 188.225C95.636 187.089 97.8811 185.431 99.6556 183.295C101.384 181.214 102.695 178.684 103.548 175.775C104.369 172.985 104.784 169.832 104.784 166.411C104.784 162.999 104.395 159.906 103.63 157.212C102.824 154.369 101.558 151.923 99.8695 149.95ZM377.291 174.89C376.809 173.761 376.16 172.769 375.364 171.948C374.595 171.152 373.705 170.473 372.722 169.924C371.823 169.422 370.894 168.976 369.942 168.586C369.053 168.224 368.156 167.882 367.252 167.561C366.456 167.278 365.736 166.972 365.115 166.652C364.592 166.384 364.177 166.079 363.878 165.746C363.758 165.615 363.619 165.41 363.619 164.994C363.619 164.759 363.665 164.55 363.754 164.35C363.836 164.168 363.965 164.008 364.147 163.861C364.343 163.703 364.623 163.571 364.977 163.471C365.401 163.353 365.925 163.293 366.533 163.293C367.449 163.293 368.265 163.391 368.957 163.584C369.72 163.798 370.392 164.027 370.956 164.265C371.531 164.506 372.008 164.733 372.379 164.937C373.645 165.637 374.439 165.571 375.158 165.151C375.588 164.9 375.903 164.497 376.094 163.949C376.212 163.614 376.29 163.212 376.332 162.721C376.369 162.307 376.387 161.793 376.387 161.153C376.387 160.594 376.369 160.138 376.332 159.754C376.296 159.363 376.25 159.035 376.199 158.771C376.127 158.402 376.015 158.068 375.859 157.778C375.678 157.438 375.412 157.131 375.042 156.837C374.744 156.602 374.332 156.362 373.742 156.083C373.187 155.815 372.533 155.578 371.742 155.356C370.988 155.143 370.141 154.966 369.225 154.826C368.295 154.685 367.322 154.613 366.337 154.613C364.366 154.613 362.551 154.867 360.942 155.367C359.301 155.877 357.878 156.615 356.713 157.555C355.52 158.518 354.594 159.697 353.958 161.06C353.325 162.413 353.004 163.912 353.004 165.518C353.004 167.078 353.245 168.453 353.717 169.602C354.187 170.747 354.826 171.743 355.61 172.569C356.37 173.366 357.243 174.048 358.2 174.593C359.086 175.101 360.003 175.554 360.945 175.95C361.854 176.33 362.747 176.682 363.603 176.993C364.382 177.276 365.087 177.583 365.693 177.9C366.2 178.165 366.601 178.468 366.885 178.8C367.069 179.013 367.15 179.248 367.15 179.565C367.15 179.911 367.09 180.204 366.972 180.44C366.864 180.659 366.707 180.831 366.486 180.977C366.191 181.175 365.826 181.332 365.398 181.444C364.943 181.564 364.397 181.627 363.775 181.627C362.741 181.627 361.815 181.504 361.023 181.262C360.166 181 359.404 180.714 358.767 180.416C358.104 180.104 357.55 179.819 357.123 179.571C356.404 179.152 355.855 178.967 355.342 178.967C354.889 178.967 354.482 179.073 354.132 179.276C353.714 179.522 353.4 179.917 353.194 180.457C353.063 180.799 352.972 181.212 352.914 181.72C352.865 182.159 352.839 182.71 352.839 183.406C352.839 184.504 352.918 185.336 353.085 185.955C353.286 186.714 353.598 187.282 354.034 187.697C354.382 188.029 354.868 188.349 355.526 188.678C356.116 188.974 356.849 189.262 357.702 189.534C358.555 189.805 359.522 190.031 360.576 190.204C361.646 190.381 362.777 190.471 363.942 190.471C365.875 190.471 367.701 190.237 369.37 189.779C371.089 189.307 372.607 188.584 373.883 187.626C375.196 186.642 376.229 185.397 376.947 183.932C377.665 182.473 378.03 180.783 378.03 178.91C378.03 177.39 377.782 176.037 377.291 174.89M348.548 171.946C347.778 171.152 346.887 170.471 345.904 169.924C345.006 169.421 344.077 168.974 343.125 168.585C342.236 168.223 341.34 167.881 340.436 167.56C339.638 167.278 338.919 166.972 338.299 166.652C337.776 166.381 337.36 166.077 337.059 165.746C336.94 165.615 336.803 165.408 336.803 164.992C336.803 164.757 336.848 164.548 336.936 164.35C337.02 164.167 337.149 164.006 337.328 163.86C337.526 163.701 337.807 163.569 338.16 163.471C338.585 163.351 339.109 163.293 339.718 163.293C340.633 163.293 341.447 163.39 342.14 163.584C342.901 163.798 343.573 164.026 344.139 164.264C344.713 164.506 345.192 164.732 345.562 164.937C346.829 165.636 347.622 165.57 348.342 165.151C348.773 164.898 349.087 164.497 349.278 163.948C349.397 163.613 349.473 163.21 349.515 162.721C349.554 162.307 349.571 161.792 349.571 161.151C349.571 160.594 349.552 160.137 349.515 159.752C349.477 159.361 349.431 159.034 349.381 158.771C349.311 158.4 349.198 158.067 349.043 157.776C348.862 157.437 348.596 157.13 348.225 156.837C347.927 156.602 347.514 156.362 346.926 156.081C346.37 155.813 345.716 155.577 344.926 155.354C344.169 155.143 343.323 154.965 342.408 154.826C341.477 154.683 340.505 154.611 339.52 154.611C337.547 154.611 335.733 154.866 334.127 155.366C332.484 155.876 331.062 156.614 329.897 157.553C328.704 158.517 327.777 159.697 327.141 161.058C326.51 162.413 326.188 163.912 326.188 165.516C326.188 167.076 326.429 168.451 326.9 169.601C327.371 170.745 328.009 171.743 328.794 172.567C329.554 173.365 330.426 174.048 331.383 174.593C332.268 175.099 333.193 175.555 334.131 175.95C335.036 176.329 335.931 176.682 336.785 176.992C337.565 177.274 338.27 177.581 338.878 177.898C339.383 178.165 339.784 178.468 340.069 178.799C340.252 179.011 340.334 179.248 340.334 179.564C340.334 179.909 340.274 180.201 340.156 180.44C340.047 180.659 339.891 180.829 339.67 180.977C339.374 181.174 339.009 181.331 338.582 181.443C338.126 181.564 337.581 181.625 336.96 181.625C335.923 181.625 334.997 181.503 334.206 181.262C333.349 180.998 332.589 180.714 331.951 180.416C331.287 180.104 330.733 179.816 330.304 179.568C329.587 179.151 329.038 178.967 328.525 178.967C328.073 178.967 327.666 179.07 327.316 179.276C326.9 179.519 326.583 179.915 326.378 180.455C326.248 180.798 326.155 181.212 326.1 181.718C326.047 182.158 326.023 182.71 326.023 183.406C326.023 184.502 326.104 185.334 326.267 185.954C326.472 186.712 326.782 187.282 327.216 187.697C327.563 188.029 328.052 188.347 328.71 188.678C329.3 188.973 330.032 189.26 330.884 189.533C331.739 189.805 332.705 190.031 333.76 190.204C334.83 190.379 335.961 190.469 337.123 190.469C339.059 190.469 340.885 190.236 342.555 189.778C344.274 189.307 345.791 188.582 347.067 187.625C348.381 186.639 349.411 185.396 350.131 183.931C350.849 182.472 351.213 180.781 351.213 178.908C351.213 177.388 350.964 176.036 350.474 174.888C349.992 173.76 349.344 172.769 348.548 171.946M304.82 164.922C305.207 164.419 305.683 164.03 306.274 163.731C306.847 163.439 307.553 163.293 308.371 163.293C309.995 163.293 311.132 163.756 311.852 164.713C312.447 165.508 312.809 166.578 312.924 167.905H303.615C303.68 167.543 303.765 167.184 303.871 166.831C304.094 166.092 304.413 165.449 304.82 164.922V164.922ZM320.208 159.186C318.952 157.745 317.334 156.608 315.398 155.804C313.494 155.014 311.195 154.613 308.569 154.613C306.073 154.613 303.787 155.036 301.773 155.869C299.734 156.715 297.973 157.96 296.546 159.571C295.13 161.168 294.038 163.127 293.305 165.39C292.584 167.609 292.217 170.126 292.217 172.87C292.217 175.739 292.566 178.29 293.253 180.454C293.963 182.693 295.065 184.585 296.531 186.073C297.995 187.564 299.834 188.686 301.996 189.411C304.092 190.113 306.548 190.471 309.292 190.471C310.792 190.471 312.232 190.37 313.568 190.174C314.872 189.983 316.06 189.754 317.091 189.489C318.131 189.226 319.014 188.945 319.713 188.654C320.592 188.292 321.073 188.011 321.376 187.685C321.595 187.451 321.784 187.19 321.936 186.908C322.088 186.615 322.204 186.275 322.274 185.891C322.326 185.596 322.365 185.259 322.391 184.854C322.415 184.492 322.428 184.052 322.428 183.536C322.428 182.937 322.41 182.45 322.373 182.047C322.326 181.528 322.229 181.106 322.077 180.763C321.867 180.288 321.56 179.933 321.17 179.703C320.422 179.267 319.478 179.284 318.155 179.804C317.666 179.999 317.03 180.222 316.267 180.461C315.523 180.696 314.622 180.913 313.589 181.107C312.588 181.301 311.397 181.396 310.046 181.396C308.796 181.396 307.73 181.238 306.874 180.925C306.069 180.629 305.438 180.223 304.942 179.68C304.44 179.124 304.081 178.458 303.843 177.643C303.7 177.153 303.597 176.624 303.533 176.061H319.861C321.346 176.061 322.253 175.422 322.753 174.888C323.453 174.138 323.806 173.061 323.806 171.688V170.374C323.806 168.19 323.522 166.131 322.958 164.256C322.377 162.319 321.453 160.612 320.208 159.187M292.428 160.627C292.428 159.81 292.415 159.167 292.395 158.688C292.372 158.159 292.328 157.757 292.271 157.456C292.211 157.13 292.135 156.862 292.039 156.632C291.905 156.31 291.698 156.021 291.42 155.768C291.162 155.534 290.826 155.341 290.392 155.18C290.066 155.056 289.701 154.952 289.276 154.858C288.872 154.772 288.474 154.707 288.1 154.67C286.912 154.548 285.891 154.624 284.832 154.906C284.069 155.113 283.306 155.472 282.565 155.973C281.955 156.386 281.316 156.931 280.661 157.592C280.615 157.212 280.484 156.853 280.276 156.54C280.013 156.145 279.626 155.836 279.12 155.617C278.735 155.451 278.258 155.334 277.654 155.262C277.139 155.201 276.498 155.171 275.747 155.171C275.007 155.171 274.399 155.201 273.885 155.262C273.316 155.332 272.846 155.441 272.451 155.593C271.887 155.809 271.462 156.129 271.187 156.539C270.924 156.934 270.783 157.405 270.783 157.902V187.18C270.783 187.719 270.96 188.225 271.293 188.642C271.599 189.024 272.03 189.307 272.61 189.506C273.033 189.651 273.548 189.754 274.191 189.821C274.764 189.882 275.487 189.911 276.338 189.911C277.191 189.911 277.914 189.883 278.488 189.821C279.129 189.754 279.645 189.652 280.068 189.506C280.65 189.305 281.081 189.021 281.385 188.639C281.717 188.225 281.892 187.719 281.892 187.18V169.348C282.392 168.583 282.863 167.929 283.297 167.4C283.765 166.824 284.213 166.364 284.626 166.034C285.009 165.728 285.369 165.506 285.7 165.372C286.293 165.133 286.87 165.172 287.305 165.274C287.596 165.341 287.862 165.414 288.097 165.487C288.359 165.573 288.595 165.651 288.8 165.723C289.75 166.058 290.63 165.95 291.267 165.461C291.647 165.17 291.927 164.733 292.104 164.162C292.223 163.779 292.306 163.297 292.358 162.687C292.406 162.136 292.428 161.463 292.428 160.627M255.587 172.704C255.585 173.733 255.479 174.759 255.27 175.766C255.07 176.74 254.759 177.62 254.348 178.377C253.965 179.083 253.492 179.634 252.906 180.057C252.395 180.427 251.773 180.608 250.998 180.608C250.172 180.608 249.379 180.31 248.574 179.7C247.715 179.046 246.791 178.115 245.82 176.93V168.261C246.331 167.603 246.821 167.041 247.276 166.586C247.798 166.061 248.306 165.636 248.781 165.319C249.225 165.025 249.651 164.813 250.052 164.692C250.45 164.569 250.857 164.508 251.261 164.508C252.053 164.508 252.675 164.68 253.164 165.036C253.718 165.44 254.156 165.977 254.507 166.675C254.888 167.442 255.163 168.336 255.327 169.339C255.5 170.405 255.587 171.54 255.587 172.704ZM264.052 159.985C262.979 158.33 261.57 157.009 259.864 156.056C258.144 155.098 256.067 154.611 253.691 154.611C252.554 154.611 251.465 154.735 250.452 154.98C249.435 155.225 248.437 155.604 247.485 156.105C246.553 156.593 245.628 157.208 244.736 157.933C244.672 157.987 244.605 158.041 244.539 158.095V157.9C244.539 157.405 244.4 156.933 244.135 156.539C243.864 156.134 243.453 155.816 242.908 155.601C242.516 155.442 242.046 155.332 241.47 155.262C240.966 155.201 240.35 155.169 239.643 155.169C238.902 155.169 238.293 155.2 237.779 155.262C237.205 155.332 236.734 155.442 236.343 155.601C235.797 155.818 235.384 156.135 235.116 156.537C234.851 156.933 234.711 157.405 234.711 157.9V198.797C234.711 199.322 234.878 199.82 235.192 200.239C235.487 200.634 235.924 200.942 236.499 201.159C236.927 201.321 237.446 201.439 238.086 201.518C238.672 201.593 239.384 201.629 240.267 201.629C241.149 201.629 241.859 201.593 242.443 201.52C243.085 201.439 243.604 201.322 244.036 201.158C244.608 200.939 245.045 200.633 245.339 200.239C245.655 199.822 245.82 199.323 245.82 198.797V188.098C246.465 188.57 247.123 188.98 247.78 189.314C248.549 189.703 249.352 189.998 250.172 190.186C250.986 190.373 251.881 190.469 252.837 190.469C255.103 190.469 257.156 190.023 258.947 189.14C260.744 188.253 262.266 186.971 263.467 185.325C264.637 183.724 265.536 181.772 266.138 179.522C266.726 177.322 267.025 174.83 267.025 172.114C267.025 169.816 266.792 167.612 266.334 165.567C265.859 163.465 265.093 161.587 264.052 159.985M224.26 171.949L231.172 159.339C231.522 158.702 231.703 158.148 231.724 157.649C231.757 156.859 231.377 156.162 230.682 155.738C230.228 155.462 229.631 155.305 228.804 155.24C228.183 155.193 227.391 155.171 226.384 155.171C225.482 155.171 224.778 155.193 224.237 155.242C223.642 155.296 223.168 155.379 222.779 155.495C222.267 155.656 221.871 155.879 221.572 156.177C221.322 156.427 221.126 156.718 220.99 157.043L217.09 164.4L213.143 157.003C212.957 156.635 212.725 156.316 212.449 156.06C212.096 155.733 211.634 155.514 211.038 155.394C210.639 155.315 210.13 155.26 209.479 155.222C208.869 155.188 208.087 155.171 207.085 155.171C205.954 155.171 205.071 155.206 204.392 155.278C203.563 155.364 202.963 155.52 202.503 155.767C201.737 156.181 201.317 156.892 201.35 157.715C201.371 158.195 201.52 158.712 201.838 159.345L208.939 172.174L201.202 185.924C200.882 186.534 200.736 187.071 200.759 187.574C200.795 188.304 201.19 188.927 201.873 189.324C202.323 189.588 202.904 189.745 203.7 189.823C204.322 189.883 205.118 189.911 206.133 189.911C207.091 189.911 207.848 189.895 208.443 189.859C209.137 189.82 209.681 189.736 210.112 189.601C210.642 189.438 211.053 189.215 211.36 188.93C211.651 188.662 211.88 188.331 212.047 187.947L216.176 180.012L220.305 187.945C220.477 188.345 220.724 188.686 221.039 188.958C221.366 189.239 221.788 189.452 222.327 189.609C222.774 189.739 223.341 189.821 224.056 189.859C224.687 189.895 225.489 189.911 226.514 189.911C227.597 189.911 228.488 189.883 229.164 189.823C229.998 189.751 230.608 189.607 231.087 189.368C231.852 188.987 232.312 188.331 232.347 187.569C232.368 187.092 232.243 186.575 231.968 185.985L224.26 171.949ZM199.104 181.743C198.892 181.239 198.598 180.846 198.224 180.57C197.817 180.273 197.341 180.115 196.844 180.115H182.967V170.972H194.382C194.854 170.973 195.316 170.834 195.709 170.572C196.105 170.308 196.415 169.919 196.635 169.415C196.798 169.039 196.914 168.589 196.986 168.033C197.049 167.548 197.08 166.973 197.08 166.271C197.08 165.603 197.049 165.019 196.986 164.531C196.914 163.966 196.799 163.508 196.635 163.131C196.424 162.645 196.131 162.262 195.763 161.994C195.356 161.696 194.879 161.539 194.382 161.539H182.967V154.004H196.712C197.227 154.004 197.712 153.836 198.111 153.522C198.457 153.251 198.736 152.867 198.942 152.373C199.101 151.99 199.211 151.534 199.284 150.978C199.347 150.485 199.379 149.917 199.379 149.238C199.379 148.513 199.347 147.923 199.284 147.431C199.213 146.882 199.103 146.427 198.948 146.031C198.736 145.507 198.438 145.103 198.062 144.833C197.668 144.553 197.203 144.405 196.712 144.405H175.509C174.438 144.405 173.514 144.737 172.759 145.392C171.943 146.098 171.53 147.16 171.53 148.547V185.572C171.53 186.959 171.943 188.021 172.759 188.726C173.515 189.383 174.438 189.713 175.509 189.713H196.844C197.342 189.713 197.82 189.556 198.22 189.26C198.594 188.988 198.892 188.594 199.105 188.086C199.265 187.701 199.378 187.243 199.449 186.687C199.51 186.198 199.542 185.602 199.542 184.914C199.542 184.229 199.51 183.633 199.449 183.145C199.378 182.587 199.265 182.128 199.103 181.743" fill="#D2120D"/>
</svg>
