<svg width="480" height="320" viewBox="0 0 480 320" fill="none" xmlns="http://www.w3.org/2000/svg">
<path d="M72.2959 111.91C81.5497 111.91 89.0551 119.409 89.0551 128.669C89.0551 137.91 81.5497 145.408 72.2959 145.408C63.0412 145.408 55.543 137.91 55.543 128.67C55.543 119.408 63.042 111.91 72.2959 111.91ZM72.2959 117.348C66.0552 117.348 60.9875 122.415 60.9875 128.67C60.9875 134.91 66.0552 139.971 72.2959 139.971C78.5437 139.971 83.6177 134.91 83.6177 128.67C83.6177 122.415 78.5429 117.348 72.2959 117.348Z" fill="#FDDD04"/>
<path d="M88.4908 194.397C87.0691 202.187 80.2602 208.093 72.079 208.093C62.8602 208.093 55.3907 200.594 55.3907 191.383C55.3856 188.747 56.0066 186.147 57.2027 183.798C58.3988 181.449 60.1357 179.418 62.2705 177.871L65.9594 181.795C64.3512 182.825 63.0279 184.243 62.1113 185.919C61.1947 187.594 60.7142 189.473 60.7141 191.383C60.7141 197.666 65.7961 202.755 72.0782 202.755C77.9786 202.755 82.8255 198.242 83.373 192.456L88.4908 194.397Z" fill="#00A650"/>
<path d="M66.7296 159.302C65.3687 160.035 64.1722 161.038 63.2139 162.251C62.2556 163.463 61.5558 164.859 61.1575 166.352C59.7287 171.697 62.3657 177.178 67.1568 179.495L69.2033 180.411C67.3624 180.788 64.7612 182.465 63.6662 183.731C60.4986 181.883 58.0277 179.043 56.6352 175.65C55.2426 172.257 55.0059 168.5 55.9616 164.959C57.0566 160.915 59.4521 157.674 62.6789 155.5L62.8207 155.812L63.8232 157.056L65.2944 158.528L66.7296 159.302Z" fill="#ED1C24"/>
<path d="M80.1364 176.703C78.5433 180.94 79.5809 185.893 83.1137 189.113C87.7478 193.335 94.9336 192.979 99.1342 188.36C100.242 187.143 101.076 185.704 101.579 184.138L106.903 185.104C106.211 187.663 104.914 190.018 103.122 191.971C96.91 198.815 86.3261 199.326 79.4957 193.101C74.8687 188.893 73.1562 182.674 74.4496 176.98L80.1364 176.703Z" fill="#00ADEF"/>
<path d="M81.487 142.673L81.4583 142.695H81.4655C78.7591 144.472 75.591 145.416 72.3535 145.41C68.9912 145.41 65.8219 144.443 63.1992 142.745C64.35 141.159 65.9924 139.859 67.8118 139.042C69.2048 139.66 70.719 139.972 72.3543 139.972C73.9672 139.972 75.4599 139.646 76.8601 139.027C78.7009 139.994 80.1147 141.095 81.487 142.673Z" fill="#111941"/>
<path d="M72.3551 132.719C75.5615 132.716 78.7006 133.639 81.3954 135.376C80.9762 136.151 79.8461 137.189 78.7233 137.95C78.0268 138.454 77.3366 138.81 76.8401 139.037L76.8115 139.03C75.4067 138.415 73.8888 138.1 72.3551 138.106C66.0857 138.106 61.0109 143.181 61.0109 149.436C61.0109 155.704 66.0857 160.786 72.3551 160.786C78.2467 160.786 83.0944 156.287 83.6419 150.516C85.1481 149.719 87.3093 148.121 89.0012 147.744L89.0721 149.436C89.0721 158.675 81.581 166.167 72.3551 166.167C63.114 166.167 55.6309 158.676 55.6309 149.436C55.6309 140.21 63.1148 132.719 72.3551 132.719Z" fill="#00ADEF"/>
<path d="M81.7461 155.792L81.8385 155.643C82.853 154.109 83.4733 152.349 83.6444 150.519L85.0015 149.551C86.2878 148.762 87.7947 148.009 89.0029 147.746L89.0746 149.438C89.0881 153.211 87.8872 156.715 85.5841 159.686C84.6039 158.379 83.3742 157.001 81.7461 155.792Z" fill="#111941"/>
<path d="M102.348 171.409C98.56 175.19 93.4142 176.804 88.4885 176.192C88.247 174.643 88.3107 172.411 88.7228 170.777C92.191 171.323 95.8664 170.278 98.5313 167.613C99.5872 166.56 100.425 165.31 100.997 163.933C101.568 162.556 101.863 161.079 101.863 159.589C101.863 158.098 101.568 156.621 100.997 155.244C100.425 153.867 99.5872 152.617 98.5313 151.564C94.1107 147.129 86.9384 147.129 82.4972 151.564C81.6376 152.439 80.9182 153.441 80.3646 154.535L80.2435 154.82L77.9978 153.654L75.8796 152.986L75.2109 152.83C76.0503 150.937 77.2308 149.214 78.6935 147.748C85.2259 141.23 95.8233 141.23 102.349 147.748C108.88 154.287 108.88 164.891 102.349 171.409" fill="#00A650"/>
<path d="M83.4678 169.312C83.4757 164.288 80.1342 159.689 75.0523 158.331C72.1387 157.557 69.1957 157.969 66.7364 159.298C65.9474 158.865 64.093 157.67 62.7207 155.439C66.6017 152.816 70.6604 151.572 76.4389 153.128C82.2166 154.67 87.7608 160.499 88.6781 166.945L83.4678 169.312Z" fill="#ED1C24"/>
<path d="M101.144 185.26C102.928 181.145 102.046 176.333 98.7773 172.779C94.3631 168.408 87.1988 168.329 82.7639 172.736C81.6339 173.98 80.6808 175.352 80.1341 176.859L74.8457 175.665C75.6683 173.127 77.0811 170.82 78.9682 168.934C82.3942 165.501 87.2697 163.76 91.911 164.036C96.1331 164.293 100.17 166.332 102.615 168.934C107.747 174.414 108.245 181.081 106.859 185.26H101.144Z" fill="#111941"/>
<path d="M83.1795 189.168C82.8033 186.908 81.8223 185.068 80.1161 183.347C77.1309 180.291 73.0084 179.275 69.2063 180.412L69.1776 180.39C67.2514 179.644 65.2615 178.656 63.6836 176.886C64.565 176.353 65.503 175.956 66.4409 175.607C72.2983 173.382 79.2419 174.74 83.9469 179.53C87.302 182.921 88.9795 187.434 88.8448 191.891C87.0175 191.606 84.9853 190.796 83.1795 189.168Z" fill="#FDDD04"/>
<path d="M392.525 170.157C389.93 171.742 387.841 173.618 386.277 175.815C384.756 177.99 384.031 180.051 384.117 182.041C384.23 184.969 385.929 187.364 389.212 189.283C391.992 190.919 395.574 191.885 399.952 192.212C402.631 192.418 405.332 192.383 408.033 192.013C412.046 191.426 415.836 189.802 419.029 187.301L416.79 184.116C414.97 185.112 412.674 185.879 410.166 186.1C391.871 187.791 400.037 170.96 412.547 170.512L414.188 170.399C416.96 170.399 419.462 171.295 421.24 172.723L424.615 170.235C423.03 167.932 420.073 166.184 415.44 165.594C413.847 165.381 411.196 165.416 410.358 165.416H390.286V166.766H393.655C395.126 166.817 394.927 168.01 394.359 168.693C393.975 169.155 393.349 169.674 392.525 170.157ZM175.694 165.375H199.249L192.284 183.755H204.992L202.106 191.19H173.199L181.366 169.626C181.765 168.545 181.011 166.719 179.071 166.69H175.694V165.375ZM358.743 165.382H382.29L372.504 191.19H356.241L364.408 169.555C365.069 167.835 363.583 166.705 362.112 166.705H358.743V165.382Z" fill="#111941"/>
<path d="M313.286 165.373H345.839C358.029 165.373 361.184 178.33 348.81 182.786C345.732 183.86 337.878 183.675 337.218 183.675H329.904L327.061 191.188H310.784L318.958 169.545C319.427 167.868 317.87 166.674 316.663 166.688H313.286V165.373ZM338.568 170.739H334.879L332.129 178.081H336.812L337.922 177.818C340.068 176.518 341.873 172.779 339.634 171.053L338.568 170.739ZM284.369 165.38C292.231 165.38 300.028 165.374 307.917 165.374L298.13 191.188H281.854L285.486 181.608L275.699 189.625L273.517 180.236L269.366 191.188H253.09L261.263 169.638C261.725 167.869 260.61 166.745 258.96 166.703H255.584V165.374H279.004L279.054 165.601L281.478 176.113L289.054 169.155C289.893 168.309 289.389 166.689 287.732 166.689H284.37L284.369 165.38ZM250.348 166.691H252.31V165.376H236.367V166.691H239.737C241.208 166.67 241.315 167.516 240.462 168.277L231.74 176.28L226.637 165.54L226.559 165.376H206.06V166.691H209.43C210.659 166.727 211.121 167.608 211.875 168.845L218.051 181.731L214.583 191.184H230.951L234.59 181.24L250.348 166.691ZM166.639 168.747C164.109 167.055 160.754 165.968 156.574 165.548C154.982 165.371 153.284 165.321 151.5 165.378H131.427V166.707H134.796C136.26 166.792 136.061 167.972 135.5 168.64C135.11 169.11 134.498 169.621 133.666 170.104C131.064 171.675 128.975 173.559 127.419 175.748C125.89 177.937 125.166 179.998 125.251 181.96C125.378 184.888 127.07 187.291 130.346 189.217C133.14 190.831 136.708 191.797 141.094 192.117C143.773 192.308 146.481 192.252 149.167 191.926C152.693 191.484 156.048 190.631 159.239 189.345C163.091 187.802 166.069 185.799 168.188 183.36C170.235 181.001 171.201 178.555 171.102 176.025C170.974 173.075 169.495 170.652 166.638 168.747M154.848 178.76C152.644 184.426 149.005 186.813 145.323 186.813C141.635 186.813 139.332 184.297 141.499 178.76C143.567 173.501 147.334 170.722 151.016 170.722C154.706 170.722 157.179 172.769 154.848 178.76Z" fill="#111941"/>
</svg>
