<svg width="480" height="320" viewBox="0 0 480 320" fill="none" xmlns="http://www.w3.org/2000/svg">
<g clip-path="url(#clip0_730_18219)">
<path d="M320.898 145.685C320.898 169.298 344.682 172.46 344.682 205.358C344.682 205.358 368.477 206.126 368.477 189.56C368.477 172.46 318.755 143.453 328.977 125.613C321.169 133.607 320.898 145.685 320.898 145.685Z" fill="#A7A9AC"/>
<path d="M330.186 124.311C319.58 143.064 369.642 172.832 369.642 188.625C369.642 194.052 369.084 197.812 365.137 200.153C365.137 200.153 384.097 191.476 386.762 179.799V173.952C383.11 155.239 348.386 140.776 348.034 126.171C347.832 117.987 355.785 115.727 355.785 115.727C354.642 115.649 353.497 115.61 352.352 115.609C335.701 115.605 330.186 124.311 330.186 124.311Z" fill="#A7A9AC"/>
<path d="M398.033 120.965C385.583 120.965 362.718 116.076 358.432 116.125C349.876 116.234 345.282 126.67 352.573 134.623C352.573 134.623 356.236 130.527 359.742 129.33C364.61 127.657 370.255 128.069 377.278 128.481C384.601 128.906 393.436 129.339 404.458 127.402C417.894 125.045 422.411 119.804 424.614 114.637C419.225 119.101 410.487 120.965 398.033 120.965Z" fill="#B5985A"/>
<path d="M404.956 128.311C393.929 130.248 385.103 129.819 377.776 129.391C370.748 128.978 365.104 128.57 360.236 130.244C356.726 131.437 353.176 135.254 353.176 135.254C353.176 135.254 362.063 144.546 367.388 148.193C370.817 137.174 392.522 141.513 401.394 138.343C412.574 134.352 417.268 127.636 419.043 123.188L418.991 123.168C415.913 125.339 411.49 127.163 404.956 128.311" fill="#B5985A"/>
<path d="M401.981 139.079C392.426 142.14 379.212 139.807 371.987 144.04C368.974 145.799 368.121 148.856 368.121 148.856C368.121 148.856 374.91 154.323 381.185 161.479C381.185 159.797 381.764 157.1 383.951 154.913C387.833 151.031 408.984 148.338 412.93 132.723C409.93 136.156 403.667 138.537 401.981 139.079" fill="#B5985A"/>
<mask id="mask0_730_18219" style="mask-type:luminance" maskUnits="userSpaceOnUse" x="-713" y="61" width="3602" height="4744">
<path d="M-712.725 4804.22H2888.37V61.3145H-712.725V4804.22Z" fill="white"/>
</mask>
<g mask="url(#mask0_730_18219)">
<path d="M295.95 159.771L305.4 134.878H299.705L290.243 159.771H295.95ZM211.649 159.771L221.112 134.878H215.417L205.954 159.771H211.649ZM170.264 159.771L179.727 134.878H174.026L164.569 159.771H170.264ZM290.419 134.879L283.112 154.294H278.613L279.394 152.206C280.293 149.813 279.09 147.874 276.686 147.874H260.84C259.861 147.874 258.845 148.196 257.915 148.741L263.121 134.879H257.438L250.138 154.294H246.408L248.923 147.613H243.228L240.719 154.294H226.751L228.492 149.658H221.954L217.963 160.28L212.566 160.274C212.101 161.867 212.281 163.218 213.074 164.296C213.879 165.374 215.453 165.777 217.102 165.777C218.682 165.777 220.219 165.448 221.725 164.358C223.225 163.273 223.9 161.867 224.507 160.28L224.699 159.772H286.824V159.605L296.107 134.879H290.419ZM272.794 154.628H255.678C256.087 153.55 256.651 152.67 257.723 152.67H271.573C272.652 152.67 273.203 153.55 272.794 154.628ZM189.796 154.858C186.685 155.57 184.646 158.495 184.076 160.274C183.611 161.867 183.791 163.218 184.59 164.296C185.39 165.374 188.104 166.39 189.74 166.39C191.333 166.39 195.274 166.39 198.59 164.358C200.164 163.391 201.669 161.867 202.252 160.28L202.45 159.772L204.514 154.294L206.255 149.658H199.711L195.912 159.772H187.955L189.796 154.858ZM170.557 134.879H164.862L157.475 154.294H144.027L144.269 153.668C144.629 152.695 145.713 151.908 146.68 151.908H153.453L155.541 146.411C154.389 146.411 154.327 147.018 153.131 147.018H143.067C141.871 147.018 140.253 147.991 139.807 149.181L137.88 154.294H130.865C130.871 151.728 129.012 149.9 125.982 149.9C122.958 149.9 119.661 151.728 117.659 154.294H109.634L117.015 134.879H111.32L101.857 159.772H115.862C116.197 161.922 117.963 163.397 120.689 163.397C123.404 163.397 126.335 161.922 128.361 159.772H161.1L170.557 134.879ZM125.288 156.531C124.866 157.584 123.645 158.44 122.536 158.44C121.439 158.44 120.875 157.584 121.297 156.531C121.712 155.478 122.933 154.616 124.036 154.616C125.139 154.616 125.697 155.478 125.288 156.531ZM97.2909 149.531L95.1901 154.731H85.9689L85.4546 155.264L86.4957 152.481H86.5204L89.3896 144.946C88.8443 145.057 87.1773 147.015 84.779 147.015H74.7214C73.5315 147.015 71.9079 147.988 71.4555 149.178L71.2696 149.661L70.2781 152.314L68.8404 156.144L67.4771 159.769H59.5139L61.3606 154.855C58.2373 155.567 56.2047 158.492 55.6408 160.271C55.176 161.869 55.3433 163.214 56.1489 164.293C56.9483 165.371 59.6688 166.387 61.2986 166.387C62.8913 166.387 66.8326 166.387 70.1542 164.361C71.722 163.394 73.2279 161.863 73.8228 160.277L74.0149 159.769L76.0723 154.291L76.7539 152.481H80.8068L78.0554 159.769H83.7627L83.8185 159.608H97.1174C97.5264 159.608 97.9353 159.478 98.3629 159.217C98.7781 158.957 99.0756 158.629 99.2243 158.226L102.49 149.531H97.2909ZM98.3722 144.935C98.1616 146.416 99.1778 147.612 100.659 147.612C102.14 147.612 103.51 146.416 103.726 144.935C103.943 143.466 102.921 142.258 101.446 142.258C99.9648 142.258 98.5953 143.466 98.3722 144.935ZM62.1892 169.762C61.9908 171.088 62.9018 172.148 64.2218 172.148C65.5356 172.148 66.7501 171.088 66.9546 169.762C67.1405 168.454 66.2358 167.383 64.922 167.383C63.6021 167.383 62.3813 168.454 62.1892 169.762ZM55.9494 169.762C55.7573 171.088 56.662 172.148 57.9758 172.148C59.2958 172.148 60.5166 171.088 60.7149 169.762C60.907 168.454 59.9898 167.383 58.6761 167.383C57.3623 167.383 56.1477 168.454 55.9494 169.762Z" fill="#B5985A"/>
<path d="M237.891 164.418C237.693 165.732 238.604 166.804 239.918 166.804C241.238 166.804 242.465 165.732 242.651 164.418C242.849 163.105 241.938 162.038 240.624 162.038C239.31 162.038 238.083 163.105 237.891 164.418ZM231.645 164.418C231.459 165.732 232.376 166.804 233.684 166.804C235.003 166.804 236.218 165.732 236.416 164.418C236.608 163.105 235.698 162.038 234.384 162.038C233.064 162.038 231.849 163.105 231.645 164.418ZM191.522 148.748C191.305 150.229 192.327 151.426 193.802 151.426C195.277 151.426 196.653 150.229 196.876 148.748C197.086 147.28 196.064 146.078 194.595 146.078C193.114 146.078 191.745 147.28 191.522 148.748ZM143.596 139.718C142.115 139.718 140.745 140.914 140.528 142.389C140.499 142.59 140.49 142.794 140.504 142.997V143.003C140.504 143.449 137.473 143.598 137.473 143.598L136.711 145.766C136.711 145.766 140.479 145.413 143.044 145.054C143.156 145.041 143.267 145.029 143.373 145.004H143.385H143.379C144.625 144.744 145.69 143.672 145.87 142.389C146.093 140.914 145.071 139.718 143.596 139.718ZM144.017 142.42C143.949 142.928 143.472 143.337 142.97 143.337C142.468 143.337 142.115 142.928 142.189 142.42C142.263 141.924 142.741 141.509 143.243 141.509C143.745 141.509 144.092 141.924 144.017 142.42Z" fill="#B5985A"/>
</g>
<path d="M55.9565 195.834L58.2609 188.494C60.7689 180.491 67.7149 178.961 76.8276 178.961C85.9402 178.961 91.9343 180.491 89.4198 188.494L87.1154 195.834C84.6074 203.837 77.6679 205.36 68.5422 205.36C59.436 205.36 53.4551 203.837 55.9565 195.834ZM78.1012 195.072L79.9461 189.216C81.1475 185.369 79.6113 184.994 74.9433 184.994C70.2689 184.994 68.6275 185.369 67.2816 189.216L65.4433 195.072C64.3601 198.952 65.765 199.34 70.4396 199.34C75.1075 199.34 76.8866 198.952 78.1012 195.072ZM97.3914 205.158H88.41L96.5641 179.172H110.798L112.098 195.487H112.413L123.639 179.172H138.221L130.073 205.158H121.099L128.242 185.232H127.933L113.148 205.158H105.381L103.011 185.232H102.742L97.3914 205.158ZM145.134 200.687L142.074 205.158H132.732L150.996 179.172H164.633L166.72 205.158H157.562L157.214 200.687H145.134ZM156.36 184.365H156.275L148.653 195.625H157.004L156.36 184.365ZM178.044 205.158H169.069L177.223 179.172H192.396L195.784 199.124H196.145L201.87 179.172H210.844L202.697 205.158H187.38L184.124 185.199H183.769L178.044 205.158ZM232.088 200.687L229.022 205.158H219.679L237.937 179.172H251.58L253.668 205.158H244.509L244.155 200.687H232.088ZM243.308 184.365H243.216L235.6 195.625H243.951L243.308 184.365ZM264.886 205.158H255.905L264.059 179.172H273.04L264.886 205.158ZM278.384 179.171H295.717C303.45 179.276 306.858 180.563 304.823 187.036C303.47 191.363 302.676 193.897 295.94 195.039L295.855 195.322C299.505 195.42 301.396 196.976 300.463 199.924L298.829 205.156H289.847L290.99 201.519C291.686 199.583 291.022 198.263 288.331 198.263H281.371L279.211 205.156H270.224L278.384 179.171ZM290.221 192.229C294.082 192.229 294.305 191.126 295.218 188.179C295.946 185.854 295.395 185.198 292.434 185.198H285.468L283.262 192.229H290.221Z" fill="#A7A9AC"/>
</g>
<defs>
<clipPath id="clip0_730_18219">
<rect width="480" height="320" fill="white"/>
</clipPath>
</defs>
</svg>
