<svg width="480" height="320" viewBox="0 0 480 320" fill="none" xmlns="http://www.w3.org/2000/svg">
<path d="M239.997 266.662C298.906 266.662 346.662 218.906 346.662 159.997C346.662 101.088 298.906 53.332 239.997 53.332C181.088 53.332 133.332 101.088 133.332 159.997C133.332 218.906 181.088 266.662 239.997 266.662Z" fill="#5752A6"/>
<path d="M239.997 266.662C298.906 266.662 346.662 218.906 346.662 159.997C346.662 101.088 298.906 53.332 239.997 53.332C181.088 53.332 133.332 101.088 133.332 159.997C133.332 218.906 181.088 266.662 239.997 266.662Z" fill="url(#paint0_radial_730_18318)"/>
<path d="M239.997 266.662C298.906 266.662 346.662 218.906 346.662 159.997C346.662 101.088 298.906 53.332 239.997 53.332C181.088 53.332 133.332 101.088 133.332 159.997C133.332 218.906 181.088 266.662 239.997 266.662Z" fill="url(#paint1_radial_730_18318)"/>
<path d="M239.997 266.662C298.906 266.662 346.662 218.906 346.662 159.997C346.662 101.088 298.906 53.332 239.997 53.332C181.088 53.332 133.332 101.088 133.332 159.997C133.332 218.906 181.088 266.662 239.997 266.662Z" fill="url(#paint2_radial_730_18318)"/>
<path d="M239.997 266.662C298.906 266.662 346.662 218.906 346.662 159.997C346.662 101.088 298.906 53.332 239.997 53.332C181.088 53.332 133.332 101.088 133.332 159.997C133.332 218.906 181.088 266.662 239.997 266.662Z" fill="url(#paint3_radial_730_18318)"/>
<path d="M239.997 266.662C298.906 266.662 346.662 218.906 346.662 159.997C346.662 101.088 298.906 53.332 239.997 53.332C181.088 53.332 133.332 101.088 133.332 159.997C133.332 218.906 181.088 266.662 239.997 266.662Z" fill="url(#paint4_radial_730_18318)"/>
<path fill-rule="evenodd" clip-rule="evenodd" d="M155.752 175.232C163.116 175.232 168.71 171.165 168.71 162.444C168.71 153.825 163.164 149.766 155.752 149.766C149.133 149.766 142.791 153.116 142.791 162.444C142.791 171.165 148.384 175.232 155.752 175.232ZM155.752 169.646C151.233 169.646 150.734 165.174 150.734 162.451C150.734 155.67 154.331 155.338 155.752 155.338C157.339 155.338 160.766 155.67 160.766 162.451C160.766 165.123 160.353 169.646 155.752 169.646ZM179.771 150.645H172.668V174.332H180.066V162.09C180.066 161.064 180.158 155.603 185.025 155.603C188.969 155.603 189.209 159.382 189.209 161.713V174.332H196.599V159.455C196.599 150.644 191.688 149.766 188.335 149.766C185.025 149.766 181.767 150.88 179.771 153.493M217.968 167.476C217.363 169.579 215.762 169.919 213.707 169.919C209.28 169.919 208.431 166.502 208.387 164.222H226.203L226.159 162.909C226.067 160.016 225.454 149.767 213.94 149.767C206.203 149.767 200.657 154.238 200.657 162.444C200.657 174.523 210.261 175.232 213.383 175.232C217.766 175.232 223.824 174.192 225.691 167.477M208.387 160.252C208.523 157.825 209.656 154.696 213.85 154.696C215.573 154.696 218.201 155.176 218.293 160.252H208.387ZM244.37 153.072L250.683 174.332H253.457L260.763 150.645H258.475L252.026 171.86L245.662 150.645H243.075L236.714 171.86L230.254 150.645H227.97L235.279 174.332H238.057M263.212 162.488C263.212 169.528 266.393 175.276 274.34 175.276C282.265 175.276 285.453 169.528 285.453 162.488C285.453 155.455 282.265 149.715 274.34 149.715C266.393 149.715 263.212 155.455 263.212 162.488ZM265.397 162.488C265.397 155.78 268.304 151.353 274.34 151.353C280.361 151.353 283.269 155.78 283.269 162.488C283.269 169.203 280.361 173.631 274.34 173.631C268.304 173.631 265.397 169.203 265.397 162.488ZM301.819 150.187H300.72C296.757 150.187 293.747 152.608 292.596 155.545H292.507V150.645H290.397V174.332H292.507V163.005C292.507 153.397 297.657 152.379 300.771 152.283H301.819" fill="white"/>
<path d="M305.707 141.699H307.751V174.33H305.707V141.699Z" fill="white"/>
<path fill-rule="evenodd" clip-rule="evenodd" d="M331.733 141.699V154.613C330.184 151.44 326.893 149.713 323.203 149.713C317.581 149.713 312.74 153.307 312.74 162.162C312.74 164.774 313.175 175.275 323.299 175.275C329.401 175.275 331.246 171.489 331.63 170.551H331.733V174.33H333.858V141.7M314.969 162.117C314.969 157.084 316.998 151.351 323.1 151.351C328.575 151.351 331.83 155.734 331.83 162.633C331.83 170.647 327.373 173.628 323.203 173.628C321.366 173.628 314.969 173.164 314.969 162.117Z" fill="white"/>
<defs>
<radialGradient id="paint0_radial_730_18318" cx="0" cy="0" r="1" gradientUnits="userSpaceOnUse" gradientTransform="translate(239.997 159.997) scale(107.093)">
<stop stop-color="#191987" stop-opacity="0"/>
<stop offset="0.5" stop-color="#191987" stop-opacity="0.2"/>
<stop offset="0.8" stop-color="#191987" stop-opacity="0.75"/>
<stop offset="1" stop-color="#191987"/>
</radialGradient>
<radialGradient id="paint1_radial_730_18318" cx="0" cy="0" r="1" gradientUnits="userSpaceOnUse" gradientTransform="translate(239.997 159.997) scale(128.512)">
<stop stop-color="white" stop-opacity="0.95"/>
<stop offset="0.25" stop-color="white" stop-opacity="0.85"/>
<stop offset="0.85" stop-color="white" stop-opacity="0"/>
<stop offset="1" stop-color="white" stop-opacity="0"/>
</radialGradient>
<radialGradient id="paint2_radial_730_18318" cx="0" cy="0" r="1" gradientUnits="userSpaceOnUse" gradientTransform="translate(239.997 159.997) scale(106.665)">
<stop stop-color="#534FA3"/>
<stop offset="0.47" stop-color="#191987" stop-opacity="0.55"/>
<stop offset="1" stop-color="#191987" stop-opacity="0"/>
</radialGradient>
<radialGradient id="paint3_radial_730_18318" cx="0" cy="0" r="1" gradientUnits="userSpaceOnUse" gradientTransform="translate(239.997 159.997) scale(106.665)">
<stop stop-color="white" stop-opacity="0.7"/>
<stop offset="0.25" stop-color="white" stop-opacity="0.35"/>
<stop offset="1" stop-color="#9592C7" stop-opacity="0"/>
</radialGradient>
<radialGradient id="paint4_radial_730_18318" cx="0" cy="0" r="1" gradientUnits="userSpaceOnUse" gradientTransform="translate(239.997 159.997) scale(106.665)">
<stop stop-color="#191987" stop-opacity="0"/>
<stop offset="0.89" stop-color="#191987" stop-opacity="0"/>
<stop offset="0.97" stop-color="#191987" stop-opacity="0.07"/>
<stop offset="1" stop-color="#191987" stop-opacity="0.2"/>
</radialGradient>
</defs>
</svg>
