<svg width="480" height="320" viewBox="0 0 480 320" fill="none" xmlns="http://www.w3.org/2000/svg">
<path d="M187.672 179.022C178.795 179.022 173.064 174.025 173.064 165.812C173.064 155.823 180.42 142.341 195.786 142.341C204.377 142.341 210.107 146.995 210.107 155.209C210.107 168.414 199.797 179.022 187.672 179.022ZM195.886 136.734C175.071 136.734 164.285 152.676 164.285 164.925C164.285 176.489 173.832 184.633 187.483 184.633C204.189 184.633 218.891 173.069 218.891 156.299C218.891 144.671 209.725 136.734 195.886 136.734ZM257.475 171.968L258.726 167.775C259.808 164.32 261.467 158.897 261.467 155.695C261.467 148.234 252.49 147.679 249.744 147.679C242.838 147.679 238.68 149.841 235.439 151.437L236.605 148.294L236.183 147.862C232.193 148.482 231.281 148.606 227.369 148.973L226.793 149.404C225.458 156.126 225.042 157.727 222.803 165.003L221.468 169.628L218.057 180.231L218.479 180.663L226.96 180.474L227.55 180.102C230.213 169.811 231.21 166.54 234.286 156.185C236.781 154.832 240.191 152.918 245.35 152.918C249.257 152.918 252.335 154.152 252.335 157.85C252.335 159.327 251.914 160.81 251.506 162.227L249.425 169.197L245.935 180.231L246.272 180.662L254.753 180.474L255.428 180.102M301.007 170.551L302.999 163.834L307.823 148.666L307.5 148.234L299.097 148.542L298.437 148.974C297.355 153.479 297.024 154.773 294.941 161.862L291.784 172.34C289.623 173.699 285.96 175.919 280.473 175.919C278.475 175.919 273.568 175.304 273.568 170.799C273.568 168.767 274.98 164.077 275.48 162.536C275.902 161.365 279.392 150.763 280.057 148.666L279.635 148.3L271.318 148.543L270.742 148.974C269.913 152.305 269.745 153.108 268.413 157.302L266.499 163.339C265.164 167.84 264.416 170.185 264.416 172.653C264.416 179.182 271.322 181.095 276.645 181.095C281.053 181.095 286.709 179.618 290.366 177.214L289.369 180.232L289.79 180.669L297.938 180.416L298.514 180.05M316.989 174.248L318.738 168.147C320.568 162.045 321.817 158.471 324.558 156.374C326.139 155.14 328.053 154.277 330.298 154.277C331.71 154.277 332.628 154.644 333.793 155.14L334.621 154.952L337.863 148.914L337.61 148.359C336.198 147.927 335.117 147.616 333.789 147.616C331.211 147.616 327.88 148.849 325.138 151.378C324.31 152.117 323.642 152.92 322.977 153.782L324.807 148.359L324.385 147.928C320.391 148.542 319.479 148.606 315.404 148.973L314.814 149.405C313.479 155.819 313.153 157.42 310.655 165.376L308.825 171.23L305.748 180.232L306.169 180.598L314.815 180.472L315.476 180.046" fill="#1D4A94"/>
<path d="M362.076 172.96C361.163 173.515 360.247 174.131 359.331 174.561C357.169 175.548 354.344 175.979 352.099 175.979C344.524 175.979 342.362 171.235 342.362 168.276C342.362 167.968 342.531 160.013 351.265 155.571C356.172 153.108 361.58 152.989 364.322 152.989C365.572 152.989 366.816 153.045 368.065 153.045L362.076 172.96ZM377.547 148.424L366.067 148.367C358.419 148.367 347.686 148.734 339.954 155.456C336.458 158.534 333.301 163.838 333.301 168.71C333.301 176.414 340.206 180.855 348.683 180.855C355.756 180.855 359.415 178.575 360.827 177.707L360.251 180.176L360.673 180.607L368.489 180.481L369.065 180.049C370.73 172.714 371.311 170.369 374.221 160.881L377.968 148.92M387.352 173.114L388.644 168.261C390.538 161.857 390.909 160.583 392.556 156.023L392.12 155.675L383.218 156.26L382.67 156.577C382.065 159.978 381.911 160.875 380.771 164.692L379.97 167.612C378.259 173.312 377.745 174.869 375.915 180.138L376.351 180.43L385.065 180.459L385.627 180.231M403.739 174.249L405.484 168.147C407.314 162.045 408.563 158.471 411.303 156.375C412.885 155.141 414.803 154.278 417.045 154.278C418.457 154.278 419.374 154.645 420.539 155.141L421.368 154.952L424.615 148.914L424.362 148.36C422.95 147.928 421.864 147.616 420.536 147.616C417.958 147.616 414.632 148.85 411.886 151.378C411.057 152.118 410.388 152.92 409.725 153.783L411.553 148.36L411.132 147.928C407.141 148.542 406.224 148.607 402.15 148.974L401.574 149.405C400.239 155.819 399.909 157.42 397.415 165.376L395.585 171.23L392.508 180.232L392.916 180.599L401.571 180.473L402.232 180.047M384.412 145.043C384.412 141.985 386.895 139.496 389.959 139.496C393.017 139.496 395.501 141.985 395.501 145.043C395.501 148.106 393.017 150.585 389.959 150.585C386.895 150.585 384.412 148.106 384.412 145.043Z" fill="#B9B7BA"/>
<path d="M111.366 204.881C88.1379 204.881 69.2461 185.985 69.2461 162.762C69.2461 139.534 88.1379 120.633 111.366 120.633C134.594 120.633 153.49 139.534 153.49 162.762C153.49 185.985 134.594 204.881 111.366 204.881ZM111.366 124.697C90.3832 124.697 73.3109 141.774 73.3109 162.762C73.3109 183.744 90.3832 200.816 111.366 200.816C132.354 200.816 149.425 183.744 149.425 162.762C149.425 141.774 132.354 124.698 111.366 124.698" fill="#1D4A94"/>
<path d="M111.366 204.881C88.1379 204.881 69.2461 185.985 69.2461 162.762C69.2461 139.534 88.1379 120.633 111.366 120.633C134.594 120.633 153.49 139.534 153.49 162.762C153.49 185.985 134.594 204.881 111.366 204.881V204.881Z" stroke="#1D4A94" stroke-width="0.123857" stroke-miterlimit="10"/>
<path d="M111.363 124.699C90.3809 124.699 73.3086 141.776 73.3086 162.764C73.3086 183.746 90.3809 200.818 111.363 200.818C132.352 200.818 149.422 183.746 149.422 162.764C149.422 141.776 132.352 124.7 111.363 124.7V124.699Z" stroke="#1D4A94" stroke-width="0.123857" stroke-miterlimit="10"/>
<path d="M55.3828 168.683H137.846L92.7631 115.094H72.8709L93.7241 164.99" fill="#DB1F26"/>
</svg>
