<svg width="480" height="320" viewBox="0 0 480 320" fill="none" xmlns="http://www.w3.org/2000/svg">
<path d="M333.787 202.416C334.055 202.295 334.339 201.872 334.339 201.318V196.735C333.68 196.661 332.759 196.629 331.726 196.629C330.677 196.629 329.749 196.661 329.073 196.735V201.318C329.073 201.872 329.351 202.276 329.623 202.416H325.972C326.243 202.295 326.532 201.872 326.532 201.318V191.208C326.532 190.647 326.243 190.233 325.972 190.097H329.623C329.351 190.233 329.073 190.646 329.073 191.208V195.349C329.749 195.421 330.66 195.456 331.726 195.456C332.759 195.456 333.68 195.41 334.339 195.349V191.208C334.339 190.647 334.055 190.233 333.787 190.097H337.431C337.158 190.233 336.888 190.646 336.888 191.208V201.318C336.888 201.872 337.158 202.276 337.431 202.416H333.787ZM321.946 199.629C321.946 197.282 316.42 196.753 316.42 193.008C316.42 190.689 318.626 189.93 320.565 189.93C321.43 189.93 322.682 190.049 323.473 190.414L323.611 192.717C323.125 191.699 321.907 190.962 320.776 190.962C319.882 190.962 318.945 191.405 318.945 192.427C318.945 194.861 324.565 195.456 324.565 199.002C324.565 201.578 322.316 202.643 320.045 202.643C318.857 202.643 317.241 202.416 316.24 201.73C316.179 201.318 316.151 200.887 316.151 200.467C316.151 199.964 316.196 199.459 316.27 198.964C316.896 200.388 318.188 201.502 319.804 201.502C321.032 201.502 321.946 200.966 321.946 199.629ZM310.774 202.416C311.077 202.276 311.395 201.872 311.395 201.318V191.208C311.395 190.647 311.077 190.249 310.774 190.097H314.565C314.243 190.249 313.935 190.646 313.935 191.208V201.318C313.935 201.872 314.243 202.276 314.565 202.416H310.774ZM302.292 202.416C302.697 202.23 302.896 201.75 302.896 201.318V191.51H300.174C299.546 191.51 298.798 191.586 298.257 191.907L299.104 190.097H308.133C308.865 190.097 309.613 190.081 310.323 189.93C309.98 190.857 308.956 191.544 308.365 191.544C307.649 191.527 306.461 191.48 305.44 191.48V201.318C305.44 201.75 305.653 202.23 306.052 202.416H302.292ZM294.065 202.416C294.371 202.276 294.691 201.872 294.691 201.318V191.208C294.691 190.647 294.371 190.249 294.065 190.097H297.856C297.53 190.249 297.234 190.646 297.234 191.208V201.318C297.234 201.872 297.53 202.276 297.856 202.416H294.065ZM291.538 202.488C291.065 202.488 290.545 202.505 290.094 202.372C289.255 202.124 288.098 200.235 287.637 199.494C286.921 198.289 286.299 196.629 284.695 196.611V201.318C284.695 201.73 284.881 202.23 285.279 202.416H281.58C281.968 202.212 282.154 201.75 282.154 201.318V191.208C282.154 190.78 281.968 190.311 281.58 190.097H286.034C287.972 190.097 290.396 190.841 290.396 193.169C290.396 195.123 288.781 196.124 286.978 196.124C289.543 196.138 291.048 202.154 293.879 202.172C293.12 202.396 292.329 202.488 291.538 202.488ZM285.327 191.158C285.106 191.158 284.913 191.193 284.695 191.225V195.484C284.897 195.498 285.079 195.519 285.279 195.519C286.666 195.519 287.691 194.754 287.691 193.247C287.691 191.707 286.682 191.158 285.327 191.158ZM274.603 196.629C274.252 196.629 273.935 196.629 273.506 196.661V201.214C274.041 201.318 274.619 201.352 275.151 201.352C276.387 201.352 277.644 200.802 277.644 198.913C277.644 197.049 276.158 196.629 274.603 196.629H274.603ZM274.296 191.158C274.072 191.158 273.918 191.158 273.506 191.208V195.519H273.994C275.47 195.519 276.899 195.063 276.899 193.352C276.899 191.654 275.757 191.158 274.296 191.158V191.158ZM270.395 202.416C270.791 202.212 270.969 201.73 270.969 201.318V191.208C270.969 190.78 270.791 190.311 270.395 190.097H275.214C277.363 190.097 279.459 190.977 279.459 193.417C279.459 194.71 278.331 195.731 277.115 195.961C278.866 195.944 280.56 197.015 280.56 198.947C280.56 201.711 277.662 202.416 275.623 202.416H270.395M412.213 199.63C412.213 197.284 406.686 196.755 406.686 193.01C406.686 190.691 408.886 189.931 410.826 189.931C411.695 189.931 412.939 190.051 413.736 190.415L413.872 192.718C413.381 191.701 412.168 190.964 411.037 190.964C410.141 190.964 409.211 191.406 409.211 192.429C409.211 194.863 414.831 195.457 414.831 199.004C414.831 201.579 412.597 202.645 410.31 202.645C409.122 202.645 407.503 202.417 406.5 201.731C406.434 201.32 406.404 200.889 406.404 200.468C406.404 199.965 406.451 199.46 406.527 198.965C407.152 200.389 408.449 201.503 410.065 201.503C411.298 201.503 412.213 200.967 412.213 199.63ZM405.383 191.392L402.465 196.509V201.32C402.465 201.713 402.626 202.231 403.015 202.417H399.386C399.756 202.214 399.927 201.698 399.927 201.32V196.493L397.39 192.429C397.163 192.049 396.106 190.278 394.817 190.278C395.167 190.145 396.234 189.942 396.948 189.942C398.142 189.942 398.734 190.051 399.465 191.195L401.811 194.916C402.008 194.55 403.866 191.319 403.866 191.319C404.09 190.925 404.245 190.648 404.245 190.51C404.245 190.333 404.169 190.218 403.989 190.099H406.604C406.09 190.344 405.664 190.907 405.383 191.392V191.392ZM394.251 202.417C394.379 202.297 394.476 202.207 394.476 201.988C394.476 201.915 394.439 201.793 394.364 201.562C394.364 201.562 393.359 198.809 393.237 198.489C392.471 198.395 391.679 198.395 390.903 198.395C390.175 198.395 389.426 198.413 388.693 198.489C388.588 198.764 387.512 201.503 387.512 201.503C387.355 201.874 387.313 202 387.313 202.08C387.313 202.264 387.464 202.352 387.596 202.417H385.116C385.483 202.231 385.798 201.85 385.952 201.469L390.042 190.951C390.053 190.907 390.065 190.859 390.065 190.799C390.065 190.51 389.872 190.235 389.606 190.099H392.804L396.948 201.459C397.12 201.915 397.485 202.248 397.788 202.417L394.251 202.417ZM391.037 192.442L389.17 197.24C389.732 197.301 390.31 197.314 390.871 197.314C391.51 197.314 392.157 197.314 392.781 197.24L391.037 192.442ZM386.56 191.301L382.818 202.417C382.509 202.417 382.206 202.311 382.035 202.191C381.665 201.834 381.083 200.344 380.871 199.796L379.181 195.521L376.744 202.417H375.584L371.394 191.274C371.213 190.799 370.907 190.344 370.451 190.099H374.091C373.938 190.218 373.832 190.353 373.832 190.612C373.832 190.736 373.894 190.907 373.938 191.04L376.667 198.413L379.571 190.099L382.771 198.114L385.195 190.859C385.255 190.662 385.291 190.589 385.291 190.465C385.291 190.313 385.224 190.218 385.072 190.099H387.482C387.037 190.333 386.715 190.843 386.56 191.301ZM371.192 202.49C370.721 202.49 370.211 202.507 369.748 202.373C368.909 202.125 367.753 200.237 367.293 199.495C366.581 198.29 365.652 196.613 364.057 196.613V201.32C364.057 201.731 364.237 202.231 364.627 202.417H360.932C361.328 202.214 361.513 201.752 361.513 201.32V191.209C361.513 190.781 361.328 190.313 360.932 190.099H365.396C367.328 190.099 369.748 190.843 369.748 193.17C369.748 195.124 367.982 196.125 366.647 196.125C369.304 196.278 370.907 202.174 373.544 202.174C372.78 202.398 371.989 202.49 371.192 202.49ZM364.672 191.159C364.466 191.159 364.27 191.195 364.057 191.226V195.486C364.255 195.5 364.436 195.521 364.627 195.521C366.018 195.521 367.041 194.756 367.041 193.248C367.041 191.709 366.029 191.159 364.672 191.159ZM355.122 202.417C355.428 202.277 355.745 201.874 355.745 201.32V191.209C355.745 190.648 355.428 190.251 355.122 190.099H358.911C358.589 190.251 358.289 190.648 358.289 191.209V201.32C358.289 201.874 358.589 202.277 358.911 202.417H355.122ZM347.747 192.442L345.878 197.24C346.435 197.301 347.012 197.314 347.576 197.314C348.222 197.314 348.86 197.314 349.488 197.24L347.747 192.442ZM350.965 202.417C351.083 202.297 351.189 202.207 351.189 201.988C351.189 201.915 351.162 201.793 351.072 201.562C351.072 201.562 350.059 198.809 349.94 198.489C349.18 198.395 348.389 198.395 347.613 198.395C346.877 198.395 346.131 198.413 345.401 198.489C345.298 198.764 344.213 201.503 344.213 201.503C344.067 201.874 344.017 202 344.017 202.08C344.017 202.264 344.174 202.352 344.307 202.417H341.829C342.194 202.231 342.511 201.85 342.667 201.469L346.743 190.951C346.761 190.907 346.768 190.859 346.768 190.799C346.768 190.51 346.575 190.235 346.316 190.099H349.513L353.657 201.459C353.826 201.915 354.188 202.248 354.492 202.417H350.965" fill="#1E5AAF"/>
<path d="M257.752 193.99C255.681 196.048 251.193 197.815 248.985 198.643C245.969 199.776 244.631 200.177 242.942 200.727C241.032 201.346 237.211 202.503 237.211 202.503C245.127 204.866 250.705 205.578 250.705 205.578C250.705 205.578 253.304 204.776 257.421 202.574C259.65 201.441 260.747 200.678 261.533 199.949C261.82 199.688 262.569 198.91 262.755 197.914C262.766 197.842 262.802 197.652 262.802 197.465C262.802 197.465 262.802 197.332 262.79 197.218C262.787 197.085 262.762 196.997 262.762 196.997C262.762 196.997 262.719 196.762 262.661 196.596C262.6 196.43 262.345 195.919 261.933 195.587C261.656 195.363 261.18 194.805 259.454 194.198C258.866 193.994 257.917 193.805 257.917 193.805L257.755 193.99" fill="url(#paint0_linear_730_18217)"/>
<mask id="mask0_730_18217" style="mask-type:luminance" maskUnits="userSpaceOnUse" x="189" y="187" width="226" height="19">
<path d="M414.867 187.233H189.484V205.578H414.867V187.233Z" fill="white"/>
</mask>
<g mask="url(#mask0_730_18217)">
<path d="M262.805 197.41C262.805 197.41 262.793 197.19 262.74 197.003C262.697 196.837 262.623 196.678 262.512 196.511C262.377 196.312 262.195 196.079 261.926 195.821C261.722 195.63 261.499 195.46 261.232 195.28C260.152 194.573 258.759 194.175 257.525 194.006C255.614 193.752 253.421 193.796 253.213 193.789C252.508 193.779 247.952 193.816 246.78 193.838C241.579 193.945 235.211 193.959 233.543 193.959C216.325 194.038 208.829 193.667 200.487 191.995C193.39 190.585 189.453 189.246 189.453 189.246C195.713 189.029 232.235 187.513 238.898 187.337C243.261 187.214 246.358 187.187 248.836 187.331C250.107 187.401 251.289 187.51 252.773 187.762C254.106 187.99 255.315 188.376 256.02 188.638C257.504 189.187 258.754 189.982 259.372 190.796C259.372 190.796 259.555 190.983 259.802 191.316C260.081 191.703 260.404 192.179 260.513 192.356C261.416 193.724 261.846 194.584 261.994 194.884C262.156 195.198 262.297 195.525 262.436 195.845C262.572 196.163 262.627 196.355 262.671 196.49C262.765 196.826 262.79 197.133 262.793 197.201L262.805 197.41Z" fill="#ED1B28"/>
</g>
<path d="M74.5326 189.813C75.0187 188.63 79.4104 179.775 80.7629 177.25C83.6224 171.911 85.6987 168.473 87.66 165.829L88.6514 164.492L88.4229 162.936C88.2974 162.08 88.1029 160.524 87.991 159.478L87.7876 157.576L88.9396 158.539C89.5734 159.07 90.3751 159.714 90.7215 159.97L91.3511 160.438L91.9909 159.736C97.1719 154.052 101.04 150.242 104.852 147.066C111.246 141.739 116.406 139.211 121.349 138.984C123.53 138.883 124.67 139.091 125.682 139.772C127.368 140.907 127.953 142.307 127.938 145.171C127.925 147.533 127.569 148.93 126.357 151.372C123.766 156.59 119.29 160.844 112.438 164.602L110.328 165.758L112.672 165.807C118.592 165.932 125.522 164.628 131.826 162.203C132.729 161.855 133.555 161.502 133.663 161.417C133.784 161.322 133.859 160.868 133.86 160.227C133.862 157.552 135.319 153.968 137.745 150.668C138.839 149.18 141.539 146.399 143.163 145.087C144.984 143.616 147.903 141.694 149.642 140.822C151.76 139.759 153.195 139.342 154.734 139.344C156.192 139.345 156.952 139.659 157.779 140.6C159.141 142.152 159.197 144.264 157.945 146.879C156.558 149.776 154.061 152.507 150.043 155.52C146.932 157.853 143.692 160.053 142.42 160.695C141.925 160.945 141.521 161.211 141.521 161.287C141.521 161.579 142.63 162.38 143.502 162.717C144.884 163.252 147.762 163.323 150.078 162.88C154.636 162.008 158.427 160.5 163.822 157.412C166.048 156.138 168.468 154.709 169.199 154.238C171.424 152.802 176.413 149.861 177.409 149.398C179.069 148.626 180.965 148.527 181.934 149.162C182.84 149.755 183.168 151.517 182.76 153.602L182.538 154.737L182.972 154.383C183.211 154.189 184.027 153.496 184.786 152.844C190.433 147.993 196.318 144.778 200.494 144.262C202.88 143.968 205.175 144.546 206.605 145.802C206.916 146.075 208.352 147.897 209.796 149.851C215.113 157.045 216.066 158.161 218.3 159.805C220.025 161.074 221.706 161.797 223.624 162.095C227.094 162.633 237.281 159.498 243.398 156.01L245.274 154.939L245.325 155.409C245.416 156.254 244.618 157.527 243.443 158.408C240.193 160.847 233.832 163.537 227.76 165.039C224.189 165.923 223.228 166.043 220.463 165.954C218.474 165.89 217.831 165.806 216.692 165.465C214.346 164.761 212.334 163.614 210.66 162.026C209.809 161.219 206.945 157.414 204.936 154.421C203.197 151.832 202.801 151.375 201.465 150.415C198.921 148.587 196.207 148.549 192.999 150.298C187.757 153.155 182.381 157.778 176.869 164.167C175.275 166.016 174.646 166.494 173.107 167.026C172.323 167.298 168.627 167.869 167.657 167.869C167.575 167.869 168.178 166.972 168.998 165.875C172.335 161.41 175.035 156.858 175.536 154.851C175.705 154.174 175.507 153.639 175.088 153.639C174.471 153.639 169.552 156.614 165.73 159.298C160.648 162.867 154.405 166.113 149.728 167.616C145.813 168.875 142.084 169.194 139.479 168.492C137.676 168.007 135.865 166.679 134.845 165.093C134.555 164.642 134.283 164.272 134.242 164.272C134.201 164.272 133.095 164.583 131.784 164.962C120.845 168.128 108.919 169.78 100.628 169.28C97.6767 169.102 94.7367 168.704 92.6882 168.206L91.4725 167.91L90.6391 169.18C88.4551 172.506 84.9905 179.525 82.6407 185.383C82.3131 186.2 81.9687 186.949 81.8758 187.048C81.7506 187.181 77.2405 189.181 74.4076 190.36C74.3401 190.388 74.3956 190.142 74.5308 189.813H74.5326ZM108.214 163.06C114.14 161.508 118.521 158.085 120.306 153.616C121.246 151.261 121.79 147.39 121.363 146.094C120.586 143.74 117.59 143.446 113.169 145.29C108.209 147.358 101.974 152.908 96.7003 159.947C95.8084 161.138 95.0786 162.166 95.0786 162.233C95.0786 162.377 97.5989 163.095 98.9099 163.323L100.239 163.554C100.454 163.592 101.932 163.601 103.523 163.576C106.154 163.535 106.579 163.488 108.214 163.06V163.06ZM143.555 156.683C147.808 153.854 151.39 150.063 152.158 147.574C152.803 145.488 152.476 144.283 151.171 143.931C149.955 143.604 148.447 144.319 146.074 146.351C142.972 149.005 141.053 152.044 140.364 155.391C140.11 156.62 140.031 158.35 140.22 158.539C140.352 158.671 141.655 157.947 143.555 156.683V156.683ZM59.5574 170.707C58.3623 170.31 57.6965 169.876 56.8616 168.947C55.8884 167.865 55.4941 166.751 55.4008 164.82C55.2552 161.808 55.9776 159.401 58.0871 155.865C59.9719 152.706 62.3692 149.63 64.7613 147.301C68.2766 143.878 69.4502 143.216 71.6627 143.404C72.3292 143.461 72.8746 143.532 72.8746 143.563C72.8746 143.594 71.5831 144.906 70.0044 146.479C66.7687 149.703 65.4865 151.368 64.1898 154.03C62.8111 156.859 62.2485 158.903 62.2439 161.098C62.2367 164.456 63.2418 165.706 65.9406 165.693C69.0902 165.679 72.5537 163.812 76.2527 160.134C79.0221 157.38 80.8684 154.366 82.1461 150.512C84.3161 143.966 82.9287 140.089 78.1666 139.394C75.3294 138.979 68.7402 140.442 65.0453 142.305C64.5781 142.541 63.6856 143.076 63.0622 143.493C62.4386 143.911 61.9285 144.221 61.9285 144.182C61.9285 143.899 62.6799 142.185 63.0269 141.676C63.953 140.32 65.9149 138.812 68.1052 137.775C71.8722 135.99 78.3369 134.925 81.8939 135.502C86.2042 136.202 88.418 138.386 88.6274 142.145C88.8222 145.645 87.5544 149.371 84.4509 154.421C82.511 157.577 81.1884 159.261 78.6698 161.781C74.3673 166.087 69.5643 169.238 65.4468 170.455C63.5293 171.022 60.8529 171.136 59.5571 170.707L59.5574 170.707ZM397.691 170.057C394.336 169.586 391.737 167.925 390.435 165.42C390.129 164.832 389.826 164.179 389.762 163.97C389.657 163.622 389.707 163.64 390.331 164.178C391.257 164.977 393.849 166.213 395.472 166.632C397.155 167.065 400.634 167.22 402.259 166.933C405.47 166.366 407.987 164.777 409.053 162.644C409.855 161.038 410.069 158.767 409.613 156.688C408.326 150.815 408.175 147.448 409.068 144.554C409.774 142.271 412.878 138.54 415.332 137.029C417.72 135.556 420.588 134.628 422.329 134.763C423.926 134.886 424.633 135.577 424.613 136.993C424.595 138.221 424.08 139.133 422.531 140.676C421.535 141.668 420.901 142.155 420.115 142.53C418.834 143.141 417.393 143.34 417.07 142.95C416.891 142.734 416.983 142.567 417.749 141.72C418.701 140.669 419.81 138.644 419.655 138.241C419.49 137.811 419.084 137.792 418.259 138.176C416.675 138.914 415.44 140.487 414.93 142.42C414.441 144.269 414.479 145.154 415.258 149.964C416.127 155.331 416.266 157.315 415.891 159.001C414.922 163.358 410.873 167.535 406.105 169.097C403.534 169.939 399.845 170.36 397.691 170.058L397.691 170.057ZM360.43 169.595C356.162 169.049 353.282 167.051 352.261 163.931C352.185 163.697 352.009 163.729 350.642 164.222C342.851 167.036 336.116 168.194 333.051 167.247C331.332 166.716 330.18 165.742 329.627 164.35C329.525 164.092 329.444 163.318 329.447 162.63C329.453 161.262 329.783 160.061 330.598 158.447C330.857 157.934 331.01 157.54 330.938 157.571C330.866 157.601 328.275 158.897 325.18 160.451C315.328 165.396 311.152 166.909 306.576 167.192C301.529 167.504 296.092 164.601 291.906 159.361L290.794 157.969L290.025 158.814C288.353 160.651 285.941 163.64 284.923 165.135L283.852 166.71L280.671 167.439C278.921 167.841 277.187 168.217 276.817 168.275L276.144 168.381L281.831 159.798C284.958 155.077 292.711 143.369 299.059 133.779C305.408 124.189 310.716 116.228 310.856 116.09C311.029 115.918 312.41 115.602 315.158 115.108C317.384 114.707 319.223 114.399 319.245 114.423C319.317 114.506 307.42 131.473 299.282 142.894C294.821 149.154 291.172 154.306 291.172 154.343C291.172 154.381 292.034 153.825 293.087 153.108C298.902 149.151 305.396 145.916 309.728 144.817C314.612 143.579 318.534 143.505 320.719 144.608C321.598 145.051 321.787 145.229 322.181 145.977C322.585 146.746 322.626 146.954 322.564 147.932C322.438 149.947 321.27 151.479 319.108 152.463C317.684 153.112 317.057 153.273 317.177 152.96C317.414 152.341 317.625 150.779 317.535 150.301C317.221 148.625 315.12 147.82 311.967 148.167C308.935 148.5 304.644 149.814 301.181 151.469C299.278 152.379 296.958 153.722 296.958 153.913C296.958 154.18 298.839 156.409 300.044 157.571C301.659 159.127 302.938 160.028 304.68 160.835C306.487 161.673 307.683 161.928 309.79 161.924C313.795 161.918 318.432 160.817 322.839 158.828C325.549 157.604 332.121 154.06 333.585 153.032C333.906 152.807 335.483 151.145 337.091 149.339L340.013 146.055L342.763 145.157C349.169 143.063 349.836 142.867 349.628 143.136C348.838 144.159 345.959 147.465 344.521 148.999C339.893 153.937 337.496 157.12 336.565 159.566C335.166 163.238 337.327 164.674 342.619 163.589C346.565 162.78 351.425 161.221 351.695 160.676C351.759 160.547 351.895 159.984 351.996 159.425C352.539 156.438 354.606 152.307 357.159 149.105C360.739 144.614 365.508 140.803 369.358 139.355C372.552 138.155 375.682 138.686 376.818 140.621C377.2 141.273 377.253 141.518 377.245 142.615C377.23 144.539 376.391 146.274 374.241 148.828C372.164 151.296 365.265 156.621 360.719 159.264C358.786 160.388 358.756 160.453 359.546 161.773C360.93 164.082 364.757 165.184 369.93 164.763C374.461 164.394 378.534 163.517 382.729 162.008C389.096 159.717 396.989 155.733 404.228 151.156C405.475 150.368 406.52 149.8 406.551 149.893C406.657 150.211 406.24 151.528 405.821 152.199C405.367 152.926 403.213 154.417 399.022 156.904C389.164 162.753 379.819 166.813 372.138 168.582C368.194 169.49 363.068 169.934 360.43 169.596L360.43 169.595ZM359.944 156.822C363.121 154.79 368.224 150.317 369.818 148.166C371.753 145.554 372.192 143.168 370.84 142.603C369.925 142.22 368.761 142.742 366.536 144.533C364.975 145.789 363.05 147.826 362.061 149.268C360.656 151.317 359.317 154.352 358.959 156.297C358.903 156.598 358.823 156.968 358.781 157.118C358.666 157.528 358.956 157.453 359.944 156.822H359.944ZM257.317 168.191C252.147 167.107 247.36 164.05 245.621 160.723L245.033 159.598L246.953 160.578C252.622 163.473 258.062 164.884 262.79 164.686C265.335 164.58 266.503 164.405 268.128 163.889C269.736 163.379 270.431 162.862 270.959 161.789C271.354 160.984 271.389 160.766 271.377 159.19C271.359 156.869 271.001 155.829 268.496 150.821C266.272 146.375 265.858 145.253 265.733 143.318C265.556 140.589 266.323 138.613 268.281 136.754C270.479 134.666 273.245 133.129 275.723 132.62C277.476 132.259 280.239 132.29 281.512 132.683C283.671 133.35 284.53 134.478 284.417 136.496C284.331 138.025 283.75 139.177 282.371 140.552C280.816 142.102 280.318 141.858 281.091 139.927C281.773 138.223 281.514 137.155 280.184 136.172C278.955 135.264 276.636 135.115 274.426 135.802C272.086 136.528 271.189 137.831 271.349 140.269C271.436 141.587 271.729 142.338 274.193 147.572C276.371 152.198 276.666 153.167 276.683 155.75C276.694 157.389 276.645 157.767 276.295 158.737C275.776 160.173 274.994 161.337 273.449 162.97C271.139 165.41 267.877 167.487 265.37 168.113C263.738 168.521 259.102 168.566 257.317 168.191V168.191ZM346.429 137.801C348.307 135.583 349.886 132.684 350.915 129.567L351.568 127.586L355.235 126.367C357.252 125.697 358.937 125.183 358.98 125.226C359.091 125.337 358.022 127.884 357.359 129.088C354.715 133.894 351.171 136.991 346.993 138.149L345.871 138.46L346.429 137.801Z" fill="#1E5AAF"/>
<defs>
<linearGradient id="paint0_linear_730_18217" x1="255.111" y1="191.49" x2="245.866" y2="207.501" gradientUnits="userSpaceOnUse">
<stop stop-color="#E4E6F5"/>
<stop offset="0.2948" stop-color="#4D72BF"/>
<stop offset="0.4" stop-color="#4D72BF"/>
<stop offset="0.9" stop-color="#1E5AAF"/>
<stop offset="1" stop-color="#1E5AAF"/>
</linearGradient>
</defs>
</svg>
