<svg width="480" height="320" viewBox="0 0 480 320" fill="none" xmlns="http://www.w3.org/2000/svg">
<path d="M106.62 190.024C103.896 198.155 101.82 203.274 100.4 205.387C98.9746 207.497 97.0043 208.498 94.4729 208.399C91.9975 208.304 90.7406 207.306 90.6897 205.415C90.6365 203.53 91.9495 198.579 94.6368 190.571L116.163 126.308C118.54 119.222 120.478 114.979 121.993 113.584C123.503 112.187 125.229 111.525 127.171 111.604C129.462 111.696 130.681 112.641 130.822 114.445C130.964 116.247 129.961 120.354 127.81 126.767L106.618 190.025L106.62 190.024ZM156.529 150.003C161.265 135.864 164.239 125.948 165.452 120.246C166.666 114.552 166.267 109.238 164.259 104.311C162.251 99.3836 158.685 95.5974 153.566 92.9537C148.442 90.3174 142.162 88.8434 134.711 88.5473C126.861 88.2356 119.558 89.2466 112.801 91.5691C106.044 93.896 100.138 97.355 95.0902 101.937C90.0406 106.528 86.2286 111.675 83.6484 117.375C81.066 123.079 77.4667 132.852 72.8298 146.688L64.9954 170.093C60.2574 184.242 57.2784 194.152 56.0673 199.846C54.8562 205.537 55.2579 210.85 57.2636 215.78C59.2686 220.706 62.842 224.476 67.9736 227.089C73.1008 229.7 79.3948 231.156 86.8415 231.45C94.6892 231.764 101.988 230.78 108.721 228.525C115.457 226.258 121.353 222.818 126.413 218.2C131.474 213.581 135.29 208.421 137.868 202.714C140.448 197.014 144.054 187.241 148.691 173.406L156.534 150.002L156.529 150.003Z" fill="#0079DB"/>
<path d="M306.644 92.7724L278.516 182.544C274.311 195.967 271.452 204.605 269.953 208.456C268.456 212.306 266.037 215.764 262.704 218.846C259.364 221.931 255.512 224.034 251.139 225.163C246.758 226.295 240.533 226.821 232.453 226.749L214.186 226.594L220.324 203.625C222.475 203.828 225.254 203.45 226.245 203.457C228.866 203.48 231.116 202.89 233.014 201.68C234.915 200.465 236.256 198.982 237.037 197.224C237.819 195.469 239.009 192.054 240.599 186.981L270.216 92.457L306.643 92.7709L306.644 92.7724ZM306.164 114.432L356.718 114.867L349.752 137.05L329.41 136.874L322.783 157.976L341.781 158.139L335.155 179.242L316.157 179.082L308.468 203.572L330.754 203.765L323.79 225.949L271.292 225.494L306.164 114.429V114.432ZM424.614 115.002L417.845 137.188L400.398 137.032L373.274 225.929L343.905 225.67L371.029 136.773L353.584 136.618L360.351 114.429L424.614 115.001V115.002Z" fill="black"/>
<path d="M164.29 136.952L169.846 114.434H223.016L152.242 225.948L144.768 225.925L145.16 201.287L186.904 137.343" fill="#0079DB"/>
<path d="M216.705 203.428L211.149 225.948H157.982L228.753 114.434L251.62 114.909L194.088 203.04" fill="black"/>
</svg>
