<svg width="480" height="320" viewBox="0 0 480 320" fill="none" xmlns="http://www.w3.org/2000/svg">
<path d="M131.61 123.562L55.3848 187.889H120.082L131.61 123.562Z" fill="#2E378F"/>
<path d="M122.702 151.662L123.236 130.629L121.466 132.123L120.974 151.844L118.592 160.594H118.596C118.592 160.597 118.59 160.597 118.585 160.597L118.592 160.594L114.508 153.134L112.332 139.832L110.796 141.126L112.718 153.134V162.524L112.77 162.505C112.739 162.52 112.708 162.533 112.677 162.548L112.718 162.526L107.087 155.926L102.241 148.349L100.939 149.446L105.571 156.694L107.773 165.13L107.833 165.099L107.713 165.177L107.773 165.13L100.251 160.046L95.4939 154.04L94.219 155.115L98.93 161.065L103.171 168.641L94.528 165.183L88.2004 160.196L86.9248 161.273L93.4417 166.417L99.4176 172.728L99.4767 172.667C99.4441 172.704 99.4132 172.743 99.3841 172.783L99.4183 172.728L90.0441 171.11L80.3346 166.834L78.9729 167.984L89.2305 172.504L96.3916 177.54L96.4421 177.46C96.4122 177.522 96.383 177.582 96.3524 177.642L96.3916 177.54L87.1668 176.901L72.9621 173.058L71.4879 174.304L86.6223 178.4L94.4304 182.584L85.2847 183.662L61.9684 182.332L60.2188 183.813L85.0498 185.223L93.4993 187.582L125.3 161.237L122.702 151.662Z" fill="#F6B624"/>
<path d="M168.163 123.562L91.9375 187.889H156.636L168.163 123.562Z" fill="#EE272B"/>
<path d="M183.101 188.112H176.803L183.205 157.539H195.634C197.845 157.539 199.594 157.8 200.879 158.321C202.165 158.842 203.183 159.705 203.934 160.907C204.685 162.109 205.061 163.546 205.061 165.214C205.061 166.757 204.762 168.259 204.164 169.719C203.566 171.179 202.832 172.346 201.963 173.222C201.094 174.098 200.16 174.763 199.159 175.215C198.158 175.667 196.809 176.01 195.113 176.246C194.125 176.385 192.277 176.455 189.565 176.455H185.541L183.101 188.112ZM186.584 171.387H188.524C191.847 171.387 194.064 171.179 195.177 170.761C196.289 170.344 197.165 169.677 197.804 168.758C198.443 167.841 198.764 166.834 198.764 165.734C198.764 164.998 198.6 164.393 198.274 163.92C197.947 163.447 197.488 163.104 196.897 162.889C196.306 162.673 194.989 162.565 192.945 162.565H188.441L186.584 171.387ZM222.163 181.356H210.046L206.375 188.112H199.91L217.199 157.539H224.185L229.149 188.112H223.184L222.163 181.356ZM221.391 176.266L219.618 163.962L212.236 176.266H221.391ZM233.153 188.112L239.556 157.539H245.832L240.513 183.002H256.07L255.007 188.112H233.153ZM316.357 165.666H322.063L321.58 167.953C322.796 166.945 323.936 166.226 324.999 165.793C326.061 165.36 327.202 165.143 328.419 165.143C330.753 165.143 332.631 165.947 334.051 167.555C335.469 169.163 336.179 171.562 336.179 174.749C336.179 178.763 334.955 182.154 332.509 184.922C330.411 187.285 327.928 188.466 325.062 188.466C322.111 188.466 319.881 187.27 318.372 184.88L315.959 196.437H309.939L316.357 165.666ZM319.985 178.44C319.985 180.174 320.408 181.52 321.254 182.478C322.1 183.437 323.096 183.916 324.242 183.916C325.235 183.916 326.193 183.555 327.117 182.835C328.039 182.115 328.805 180.919 329.413 179.248C330.021 177.577 330.326 176.029 330.326 174.602C330.326 172.938 329.926 171.663 329.13 170.774C328.333 169.886 327.318 169.442 326.089 169.442C324.943 169.442 323.897 169.851 322.953 170.67C322.009 171.488 321.278 172.691 320.762 174.278C320.244 175.864 319.985 177.251 319.985 178.44ZM342.45 165.666H348.071L347.169 169.987C349.266 166.757 351.539 165.141 353.985 165.141C354.853 165.141 355.782 165.359 356.776 165.791L354.468 170.721C353.91 170.523 353.321 170.424 352.728 170.428C351.693 170.428 350.64 170.819 349.571 171.601C348.5 172.385 347.665 173.429 347.064 174.737C346.462 176.044 345.869 178.117 345.281 180.956L343.813 187.941H337.793L342.45 165.666ZM376.537 178.671H361.434C361.419 178.908 361.413 179.091 361.413 179.216C361.413 180.699 361.836 181.895 362.682 182.803C363.528 183.712 364.559 184.167 365.776 184.167C367.776 184.167 369.334 183.133 370.453 181.062L375.844 181.965C374.794 184.133 373.393 185.758 371.639 186.843C369.883 187.926 367.916 188.468 365.734 188.468C362.741 188.468 360.308 187.521 358.433 185.626C356.559 183.731 355.624 181.224 355.624 178.107C355.624 175.058 356.469 172.344 358.161 169.968C360.468 166.75 363.761 165.144 368.04 165.144C370.767 165.144 372.934 165.986 374.544 167.671C376.152 169.356 376.956 171.716 376.956 174.749C376.956 176.201 376.816 177.51 376.537 178.671ZM371.46 175C371.474 174.735 371.481 174.532 371.481 174.392C371.481 172.743 371.11 171.505 370.368 170.68C369.626 169.855 368.633 169.442 367.388 169.442C366.144 169.442 365.03 169.911 364.043 170.848C363.057 171.786 362.39 173.17 362.041 175.001L371.46 175ZM377.963 181.713L383.793 180.79C384.311 182.021 384.954 182.891 385.724 183.401C386.491 183.913 387.541 184.167 388.87 184.167C390.24 184.167 391.338 183.859 392.163 183.244C392.737 182.824 393.023 182.313 393.023 181.713C393.023 181.308 392.876 180.944 392.582 180.622C392.274 180.314 391.442 179.938 390.086 179.489C386.451 178.287 384.198 177.337 383.332 176.637C381.976 175.546 381.298 174.119 381.298 172.357C381.298 170.594 381.956 169.078 383.271 167.805C385.102 166.028 387.823 165.141 391.431 165.141C394.297 165.141 396.465 165.665 397.933 166.714C399.402 167.763 400.331 169.183 400.723 170.972L395.164 171.936C394.87 171.125 394.395 170.517 393.738 170.112C392.842 169.566 391.765 169.294 390.507 169.294C389.248 169.294 388.343 169.504 387.792 169.924C387.24 170.344 386.962 170.826 386.962 171.37C386.962 171.93 387.244 172.392 387.803 172.755C388.151 172.978 389.277 173.37 391.18 173.928C394.117 174.782 396.081 175.62 397.073 176.446C398.471 177.607 399.171 179.005 399.171 180.642C399.171 182.754 398.283 184.585 396.507 186.138C394.731 187.69 392.227 188.466 388.998 188.466C385.779 188.466 383.295 187.876 381.54 186.695C379.784 185.512 378.591 183.851 377.963 181.713ZM401.854 181.713L407.685 180.79C408.202 182.021 408.846 182.891 409.615 183.401C410.383 183.913 411.433 184.167 412.761 184.167C414.132 184.167 415.23 183.859 416.055 183.244C416.629 182.824 416.914 182.313 416.914 181.713C416.914 181.308 416.768 180.944 416.474 180.622C416.166 180.314 415.334 179.938 413.977 179.489C410.343 178.287 408.091 177.337 407.224 176.637C405.868 175.546 405.19 174.119 405.19 172.357C405.19 170.594 405.848 169.078 407.162 167.805C408.994 166.028 411.715 165.141 415.323 165.141C418.189 165.141 420.356 165.665 421.825 166.714C423.294 167.763 424.224 169.183 424.615 170.972L419.056 171.936C418.762 171.125 418.286 170.517 417.629 170.112C416.734 169.566 415.657 169.294 414.399 169.294C413.14 169.294 412.235 169.504 411.684 169.924C411.131 170.344 410.855 170.826 410.855 171.37C410.855 171.93 411.135 172.392 411.695 172.755C412.043 172.978 413.169 173.37 415.072 173.928C418.009 174.782 419.973 175.62 420.966 176.446C422.364 177.607 423.062 179.005 423.062 180.642C423.062 182.754 422.174 184.585 420.399 186.138C418.623 187.69 416.119 188.466 412.889 188.466C409.672 188.466 407.186 187.876 405.431 186.695C403.676 185.512 402.483 183.851 401.854 181.713ZM290.001 165.655H297.627L300.377 172.542L305.452 165.655H313.001L304.114 176.496L309.707 188.041H301.928L298.773 180.849L293.079 188.041H285.346L295.133 176.374L290.001 165.655ZM286.459 178.407H271.356C271.341 178.645 271.335 178.827 271.335 178.953C271.335 180.436 271.758 181.632 272.604 182.54C273.45 183.449 274.481 183.903 275.698 183.903C277.698 183.903 279.256 182.869 280.375 180.799L285.765 181.702C284.716 183.87 283.315 185.495 281.56 186.579C279.805 187.663 277.838 188.204 275.656 188.204C272.662 188.204 270.23 187.258 268.355 185.363C266.481 183.468 265.546 180.961 265.546 177.844C265.546 174.795 266.391 172.081 268.083 169.704C270.39 166.487 273.683 164.88 277.962 164.88C280.689 164.88 282.856 165.723 284.465 167.407C286.074 169.093 286.878 171.453 286.878 174.486C286.878 175.938 286.738 177.246 286.459 178.407ZM281.382 174.736C281.396 174.472 281.402 174.269 281.402 174.128C281.402 172.48 281.032 171.242 280.29 170.416C279.548 169.592 278.555 169.179 277.31 169.179C276.066 169.179 274.952 169.647 273.965 170.585C272.979 171.522 272.312 172.907 271.963 174.738L281.382 174.736Z" fill="#2E378F"/>
</svg>
