<svg width="480" height="320" viewBox="0 0 480 320" fill="none" xmlns="http://www.w3.org/2000/svg">
<path fill-rule="evenodd" clip-rule="evenodd" d="M242.057 53.332V81.6511C254.539 80.8943 264.307 72.9012 271.151 57.8576C261.821 55.0337 252.051 53.5133 242.057 53.332ZM237.532 53.356C227.742 53.5845 218.167 55.0879 209.019 57.8584C215.756 72.6673 225.328 80.6604 237.532 81.6263V53.356ZM204.686 59.2866C196.203 62.2565 188.134 66.2987 180.676 71.315C197.624 90.6844 216.741 100.871 237.531 101.643V86.1526C223.448 85.1628 212.149 75.9289 204.686 59.2858V59.2866ZM275.458 59.2866C267.894 76.1581 256.41 85.4036 242.057 86.1766V101.667C263.074 101.068 282.361 90.8664 299.469 71.3158C292.01 66.2995 283.942 62.2567 275.458 59.2858V59.2866ZM176.973 73.929C172.598 77.1472 168.472 80.6909 164.63 84.53C162.412 86.7474 160.308 89.0788 158.312 91.4527C175.288 110.385 203.942 121.39 237.532 121.926V106.17C215.253 105.4 194.901 94.5663 176.973 73.9306V73.929ZM303.197 73.929C285.112 94.7468 264.564 105.594 242.058 106.193V121.95C275.9 121.535 304.758 110.496 321.834 91.4527C319.837 89.0795 317.76 86.749 315.541 84.53C311.699 80.6909 307.573 77.1472 303.197 73.929ZM155.456 95.0109C148.834 103.599 143.613 113.043 139.917 123.088C170.807 139.243 207.913 141.744 237.532 141.871V126.452C202.973 125.915 173.344 114.56 155.455 95.0109H155.456ZM324.714 95.0109C306.725 114.672 276.868 126.06 242.058 126.478V141.871C271.771 141.774 309.162 139.351 340.254 123.088C336.56 113.043 331.337 103.597 324.715 95.0116L324.714 95.0109ZM138.441 127.42C129.122 152.543 132.895 178.001 138.441 192.577C169.834 176.38 207.02 173.763 236.855 173.601V173.65H243.075V173.601C272.917 173.759 310.151 176.37 341.561 192.577C347.107 178.001 350.881 152.542 341.561 127.42C310.152 143.629 272.919 146.236 243.075 146.396V146.324H236.855V146.396C207.02 146.235 169.834 143.619 138.441 127.42H138.441ZM148.002 149.712H173.416C177.454 149.712 181.791 152.371 181.791 157.336C181.791 157.71 181.765 158.08 181.718 158.425L187.89 149.737H200.743L211.441 163.823V149.737H225.334L237.654 162.42V149.713H247.916C248.531 149.713 248.421 150.197 247.916 150.197C243.853 150.197 242.13 152.996 242.13 154.457V171.109H234.676C232.128 171.109 230.596 169.726 229.812 168.907L215.918 154.772V164.308C215.992 168.102 218.658 170.19 222.72 170.19C223.225 170.19 223.337 171.11 222.72 171.11H207.494C204.581 171.11 202.808 169.906 202.025 168.737L199.12 164.937H186.001C185.104 164.937 183.337 165.373 183.049 166.801C182.54 169.321 184.334 170.19 188.398 170.19C188.901 170.19 189.013 171.134 188.398 171.134H172.497C173.002 170.55 174.165 168.864 174.893 167.987L177.821 163.872C176.469 164.597 174.928 164.961 173.416 164.961L161.847 164.937C160.951 164.937 158.894 165.341 158.894 166.801C158.894 169.623 160.181 170.19 164.243 170.19C164.748 170.19 164.86 171.134 164.243 171.134H148.001V149.713L148.002 149.712ZM265.077 150.197H277.929L288.602 164.283V150.196H301.819C301.762 150.196 309.515 159.95 309.515 159.95L316.728 150.196H334.542C335.159 150.196 335.047 150.874 334.542 150.874C329.276 150.874 328.346 153.455 328.346 154.916V166.583C328.346 168.043 329.276 170.625 334.542 170.625C335.047 170.625 335.159 171.109 334.542 171.109H318.858V155.69L307.942 171.108H305.304L293.08 155.982V164.743C293.08 167.781 295.844 170.649 299.906 170.649C300.411 170.649 300.521 171.109 299.906 171.109H284.682C281.768 171.109 279.971 170.364 279.188 169.196L276.306 165.397H263.164C262.269 165.397 260.359 165.805 260.237 167.26C260.018 169.856 261.522 170.649 265.585 170.649C266.09 170.649 266.201 171.109 265.585 171.109H249.659C250.162 170.526 251.351 169.299 252.079 168.421L265.077 150.197ZM190.868 154.069L186.437 160.266H195.562L190.868 154.069ZM158.748 154.432V160.265H167.292C168.835 160.265 170.099 158.944 170.099 157.337C170.099 155.729 168.835 154.433 167.292 154.433H158.749L158.748 154.432ZM268.03 154.529L263.624 160.725H272.748L268.03 154.529ZM237.533 178.104C207.915 178.231 170.807 180.756 139.918 196.91C143.614 206.956 148.836 216.4 155.457 224.987C173.345 205.437 202.973 194.083 237.533 193.545V178.104ZM242.058 178.104V193.521C276.846 193.937 306.672 205.302 324.667 224.939C331.169 216.488 336.446 207.059 340.206 196.885C309.12 180.639 271.761 178.201 242.058 178.103L242.058 178.104ZM242.058 198.048V213.805C264.547 214.403 285.076 225.211 303.149 245.996C310.043 240.934 316.308 235.067 321.811 228.52C304.73 209.498 275.88 198.463 242.058 198.048H242.058ZM237.533 198.072C203.945 198.606 175.29 209.611 158.313 228.545C160.319 230.933 162.427 233.234 164.631 235.443C168.473 239.289 172.599 242.841 176.974 246.068C194.901 225.431 215.254 214.598 237.533 213.829V198.072ZM242.058 218.33V233.821C256.398 234.594 267.87 243.825 275.436 260.663C283.914 257.681 291.982 253.64 299.446 248.634C282.349 229.115 263.059 218.929 242.058 218.33ZM237.533 218.354C216.742 219.127 197.625 229.313 180.677 248.682C188.135 253.699 196.204 257.741 204.687 260.712C212.15 244.069 223.45 234.836 237.533 233.845V218.354ZM242.058 238.347V266.665C252.15 266.481 261.899 264.903 271.128 262.091C264.284 247.079 254.527 239.102 242.058 238.347ZM237.533 238.371C225.326 239.338 215.756 247.332 209.02 262.14C218.167 264.91 227.742 266.412 237.533 266.641V238.371Z" fill="#2B67AC"/>
</svg>
