<svg width="480" height="320" viewBox="0 0 480 320" fill="none" xmlns="http://www.w3.org/2000/svg">
<path d="M72.7985 129.93H67.4859C59.0741 129.93 55.3848 133.029 55.3848 141.072V177.006C55.3848 179.293 56.6391 180.622 59.0003 180.622H62.7635C65.0509 180.622 66.379 179.367 66.379 177.006V164.388H72.7985C87.9249 164.388 95.9677 160.847 95.9677 147.122C95.8939 133.324 87.9249 129.93 72.7985 129.93ZM73.9791 155.091H66.379V142.769C66.379 140.481 66.8956 139.079 69.5519 139.079H73.9791C82.0219 139.079 84.8996 140.924 84.8996 147.048C84.8996 153.173 82.0219 155.091 73.9791 155.091ZM116.849 141.588C113.455 141.588 109.323 142.031 105.044 142.916C102.535 143.433 101.28 144.835 101.28 146.975V148.45C101.28 150.959 102.756 152.066 105.191 151.623C108.807 150.885 112.422 150.443 115.226 150.443C120.908 150.443 124.302 152.287 124.302 156.567V157.157H114.267C104.822 157.157 98.9192 159.666 98.9192 168.889C98.9192 178.039 104.748 180.548 114.267 180.548H123.121C131.533 180.548 135.222 177.449 135.222 169.332V156.567C135.222 146.089 127.401 141.588 116.849 141.588ZM124.376 168.889C124.376 171.472 123.859 172.874 120.465 172.874H114.783C110.135 172.874 109.102 171.767 109.102 168.963C109.102 166.086 110.061 164.979 114.783 164.979H124.302V168.889H124.376ZM163.852 145.499V147.786C163.852 150.074 162.524 151.402 159.941 151.402C151.751 151.549 151.382 152.214 151.382 155.165V177.08C151.382 179.367 150.127 180.695 147.766 180.695H143.929C141.642 180.695 140.314 179.441 140.314 177.08V153.542C140.314 144.613 143.487 142.179 160.015 141.957C162.524 141.883 163.852 143.138 163.852 145.499ZM183.774 141.588C180.306 141.588 176.248 142.031 171.968 142.916C169.46 143.433 168.205 144.835 168.205 146.975V148.45C168.205 150.959 169.681 152.066 172.116 151.623C175.732 150.885 179.347 150.443 182.151 150.443C187.833 150.443 191.227 152.287 191.227 156.567V157.157H181.118C171.673 157.157 165.77 159.666 165.77 168.889C165.77 178.039 171.599 180.548 181.118 180.548H189.972C198.384 180.548 202.074 177.449 202.074 169.332V156.567C202.147 146.089 194.326 141.588 183.774 141.588ZM191.301 168.889C191.301 171.472 190.784 172.874 187.39 172.874H181.708C177.06 172.874 176.027 171.767 176.027 168.963C176.027 166.086 176.986 164.979 181.708 164.979H191.227V168.889H191.301ZM246.346 159.592V177.006C246.346 179.293 245.091 180.622 242.73 180.622H239.041C236.754 180.622 235.425 179.367 235.425 177.006V159.445C235.425 152.582 232.917 150.664 227.087 150.664C221.258 150.664 218.749 152.582 218.749 159.445V177.006C218.749 179.293 217.495 180.622 215.134 180.622H211.445C209.157 180.622 207.829 179.367 207.829 177.006V159.592C207.829 145.573 214.913 141.514 227.014 141.514C239.336 141.588 246.346 145.646 246.346 159.592ZM268.925 141.588C265.53 141.588 261.398 142.031 257.119 142.916C254.61 143.433 253.356 144.835 253.356 146.975V148.45C253.356 150.959 254.831 152.066 257.266 151.623C260.882 150.885 264.497 150.443 267.301 150.443C272.983 150.443 276.377 152.287 276.377 156.567V157.157H266.416C256.971 157.157 251.068 159.666 251.068 168.889C251.068 178.039 256.897 180.548 266.416 180.548H275.27C283.682 180.548 287.371 177.449 287.371 169.332V156.567C287.298 146.089 279.55 141.588 268.925 141.588ZM276.451 168.889C276.451 171.472 275.934 172.874 272.54 172.874H266.859C262.21 172.874 261.177 171.767 261.177 168.963C261.177 166.086 262.136 164.979 266.859 164.979H276.377V168.889H276.451ZM305.671 131.332C305.671 135.095 303.678 137.309 299.62 137.309C295.636 137.309 293.57 135.095 293.57 131.332C293.57 127.569 295.562 125.281 299.62 125.281C303.678 125.281 305.671 127.569 305.671 131.332ZM305.154 145.868V177.006C305.154 179.293 303.9 180.622 301.539 180.622H297.702C295.414 180.622 294.086 179.367 294.086 177.006V145.868C294.086 143.58 295.34 142.252 297.702 142.252H301.539C303.9 142.252 305.154 143.58 305.154 145.868ZM335.481 145.499V147.786C335.481 150.074 334.152 151.402 331.57 151.402C323.38 151.549 323.011 152.214 323.011 155.165V177.08C323.011 179.367 321.756 180.695 319.395 180.695H315.558C313.271 180.695 311.943 179.441 311.943 177.08V153.542C311.943 144.613 315.115 142.179 331.644 141.957C334.153 141.883 335.481 143.138 335.481 145.499Z" fill="#0037A2"/>
<path d="M361.602 143.215L379.458 146.166L378.794 156.423L356.363 156.349C356.215 157.529 356.141 158.71 356.141 159.964C356.141 164.908 357.396 169.557 359.683 173.615L347.656 176.198C345.442 171.254 344.262 165.72 344.262 159.964C344.262 139.009 360.347 121.816 380.786 119.898L379.753 132.073C372.301 133.253 365.881 137.386 361.602 143.215ZM384.476 200.178C398.053 200.178 410.006 193.464 417.311 183.134L397.315 185.126C393.478 187.118 389.051 188.225 384.476 188.225C379.827 188.225 375.474 187.118 371.637 185.126L351.64 183.134C358.872 193.39 370.899 200.178 384.476 200.178ZM389.124 131.999L388.091 119.824C408.53 121.743 424.616 138.935 424.616 159.891C424.616 165.646 423.362 171.18 421.222 176.124L409.194 173.541C411.408 169.483 412.736 164.834 412.736 159.891C412.736 158.636 412.662 157.456 412.515 156.275L390.084 156.349L389.346 146.092L407.202 143.141C402.996 137.386 396.503 133.253 389.124 131.999Z" fill="#CD1025"/>
</svg>
