<svg width="480" height="320" viewBox="0 0 480 320" fill="none" xmlns="http://www.w3.org/2000/svg">
<path fill-rule="evenodd" clip-rule="evenodd" d="M316.342 104.703C300.99 117.296 289.714 131.716 269.777 139.412C276.634 141.012 285.495 140.967 295.73 136.132C322.676 121.294 344.327 95.5454 377.265 88.1342C354.59 84.6177 331.762 92.0488 316.341 104.703" fill="#FCD213"/>
<path fill-rule="evenodd" clip-rule="evenodd" d="M224.572 109.67C227.501 110.731 230.409 112.361 233.261 114.875C256.381 135.266 270.017 155.665 304.149 135.452C315.892 128.497 341.867 108.943 356.826 100.435C362.299 97.3222 367.744 94.794 373.021 92.8861C372.966 92.9315 372.948 92.9767 372.957 92.9949C372.984 93.0402 373.061 92.9768 373.185 92.8272C390.62 86.5613 408.263 87.9414 424.615 96.6393C365.287 98.1382 332.477 151.769 275.416 147.812C244.827 146.172 224.89 111.178 197.41 110.243C210.344 106.657 219.392 108.009 224.571 109.67H224.572Z" fill="url(#paint0_linear_730_18731)"/>
<path fill-rule="evenodd" clip-rule="evenodd" d="M193.19 112.734C199.925 112.323 207.715 114.197 216.284 119.582C224.39 124.674 239.025 135.598 245.344 139.83C255.039 146.323 264.209 147.965 264.209 147.965C233.713 153.763 212.897 117.663 181.393 117.152C185.047 115.282 188.884 112.994 193.19 112.733M281.422 126.453C277.336 130.141 272.553 133.245 267.215 136.91C294.002 128.601 303.586 100.204 334.931 90.5709C310.951 89.6686 294.771 114.408 281.422 126.452" fill="#FCD213"/>
<path fill-rule="evenodd" clip-rule="evenodd" d="M248.717 181.52V186.932H235.79L235.782 190.679C235.8 191.43 235.586 194.192 238.226 194.095L249.472 194.04V199.956C247.254 199.993 240.368 200.093 236.336 200.002C231.625 199.894 229.141 196.215 229.129 192.425L229.193 169.841L249.474 169.877V175.325H235.837V181.519L248.717 181.52ZM117.325 193.109L117.353 193.118C118.723 193.721 120.196 194.188 121.809 194.496C123.526 194.777 124.884 194.722 125.912 194.314C126.915 193.903 127.519 193.215 127.733 192.231C127.947 191.34 127.669 190.498 126.95 189.711C126.206 188.922 124.919 188.055 123.092 187.098C121.377 186.206 119.933 185.247 118.761 184.2C117.563 183.146 116.717 182 116.218 180.777C115.076 177.98 116.12 174.426 118.362 172.313C119.599 171.098 121.282 170.275 123.414 169.799C127.209 168.939 131.53 169.54 134.99 171.164L133.834 176.545C132.43 175.93 130.96 175.477 129.453 175.194C127.757 174.913 126.418 174.969 125.402 175.372C123.819 176.023 123.022 177.867 123.86 179.269C124.206 179.785 124.776 180.316 125.593 180.892C126.414 181.445 127.474 182.065 128.793 182.798C131.504 184.255 133.399 185.838 134.488 187.504C135.603 189.178 135.912 191.047 135.471 193.103C135.129 194.757 134.281 196.264 133.044 197.415C131.79 198.647 130.087 199.478 127.926 199.959C125.791 200.444 123.199 200.444 120.184 199.923C119.52 199.81 117.551 199.497 116.029 199.142L117.325 193.109ZM142.27 193.109C142.279 193.113 142.288 193.116 142.297 193.118C143.667 193.721 145.141 194.188 146.753 194.496C148.471 194.777 149.828 194.722 150.857 194.314C151.858 193.903 152.465 193.215 152.677 192.231C152.892 191.34 152.614 190.498 151.897 189.711C151.152 188.922 149.864 188.055 148.035 187.098C146.323 186.206 144.878 185.247 143.705 184.2C142.508 183.146 141.662 182 141.164 180.777C140.019 177.98 141.064 174.426 143.307 172.313C144.544 171.098 146.226 170.275 148.36 169.799C152.156 168.939 156.475 169.54 159.937 171.164L158.78 176.545C157.375 175.93 155.905 175.477 154.397 175.194C152.702 174.913 151.362 174.969 150.346 175.372C148.765 176.023 147.966 177.867 148.804 179.269C149.151 179.785 149.722 180.316 150.538 180.892C151.359 181.445 152.419 182.065 153.737 182.798C156.448 184.255 158.343 185.838 159.433 187.504C160.548 189.178 160.858 191.047 160.417 193.103C160.074 194.757 159.226 196.264 157.99 197.415C156.737 198.647 155.033 199.478 152.871 199.959C150.735 200.444 148.143 200.444 145.129 199.923C144.464 199.81 142.495 199.497 140.973 199.142L142.27 193.109ZM55.3848 199.479V170.216C56.807 170.007 58.2374 169.858 59.672 169.769C61.3432 169.658 63.3364 169.593 65.6541 169.593C67.9972 169.593 70.0175 169.793 71.7132 170.193C73.4071 170.596 74.8036 171.196 75.9262 171.999C77.0234 172.757 77.8703 173.737 78.5177 174.939C79.1661 176.121 79.4898 177.457 79.5143 178.95C79.5143 180.421 79.2414 181.781 78.7181 182.983C78.201 184.178 77.4157 185.237 76.4231 186.08C75.1282 187.172 73.5322 187.975 71.6878 188.488C69.8162 189 67.7742 189.244 65.5054 189.244C64.4816 189.244 63.6365 189.199 62.912 189.111L62.8938 199.481L55.3848 199.479ZM62.9129 174.983V183.852C63.5368 183.985 64.3819 184.029 65.4555 184.029C67.4994 184.01 69.0944 183.582 70.2397 182.738C71.3877 181.868 71.9608 180.689 71.9862 179.129C71.9862 177.724 71.4602 176.656 70.4401 175.874C69.4173 175.118 67.9483 174.717 66.0531 174.717C64.507 174.735 63.4615 174.827 62.9129 174.983ZM198.61 199.773V170.508C200.092 170.301 201.581 170.153 203.074 170.063C204.957 169.942 206.844 169.883 208.732 169.884C211.227 169.884 213.343 170.062 215.139 170.419C216.935 170.798 218.405 171.399 219.601 172.246C221.619 173.672 222.666 175.767 222.693 178.506C222.666 179.778 222.366 180.913 221.795 181.916C221.224 182.884 220.471 183.732 219.577 184.412C218.725 185.054 217.772 185.551 216.757 185.882V186.015C217.931 186.439 218.854 187.153 219.577 188.11C220.274 189.069 220.847 190.25 221.246 191.654C221.596 192.79 221.943 193.949 222.269 195.109C222.618 196.244 222.94 197.268 223.216 198.183C223.435 198.842 223.629 199.375 223.805 199.774H215.995C214.915 197.803 214.424 195.19 213.868 193.124C213.184 190.279 211.873 188.289 208.433 188.289H206.139V199.774L198.61 199.773ZM206.139 175.14V183.386H209.131C211.051 183.368 212.522 182.985 213.569 182.226C214.615 181.448 215.139 180.4 215.165 179.086C215.137 177.704 214.663 176.677 213.693 175.989C212.696 175.298 211.35 174.941 209.58 174.919C208.659 174.919 207.935 174.937 207.387 174.983C206.97 175.025 206.554 175.077 206.139 175.137V175.14ZM256.56 170.215C258.133 170 259.714 169.844 261.298 169.747C263.141 169.637 264.986 169.586 266.831 169.593C269.997 169.593 272.689 169.859 274.884 170.371C277.102 170.906 278.998 171.708 280.592 172.798C282.362 173.959 283.733 175.474 284.754 177.345C285.752 179.217 286.251 181.469 286.277 184.118C286.249 186.993 285.728 189.421 284.706 191.427C283.683 193.455 282.337 195.06 280.693 196.285C276.956 199.021 271.537 200.163 266.791 200.163C266.773 200.163 266.763 200.169 266.745 200.169H256.58L256.562 170.216L256.56 170.215ZM264.189 175.073V194.725C264.592 194.8 265.002 194.837 265.412 194.836C265.858 194.854 266.358 194.854 266.831 194.854C269.149 194.872 271.144 194.5 272.839 193.742C274.535 192.984 275.858 191.825 276.778 190.266C277.726 188.707 278.174 186.724 278.199 184.336C278.199 182.266 277.775 180.507 276.928 179.103C276.082 177.678 274.858 176.608 273.29 175.895C271.693 175.159 269.822 174.803 267.629 174.803C265.958 174.821 264.812 174.912 264.189 175.071V175.073ZM306.625 169.324C309.24 169.342 311.53 169.751 313.544 170.539C315.533 171.347 317.219 172.451 318.579 173.844C319.935 175.261 320.968 176.881 321.674 178.728C322.378 180.593 322.73 182.551 322.73 184.665C322.703 187.993 322 190.851 320.617 193.235C319.232 195.596 317.294 197.418 314.803 198.703C312.312 199.984 309.391 200.614 306.071 200.636C303.552 200.618 301.314 200.232 299.326 199.444C297.365 198.657 295.676 197.555 294.318 196.159C292.948 194.759 291.885 193.088 291.197 191.254C290.467 189.388 290.115 187.387 290.115 185.204C290.142 182.146 290.82 179.424 292.178 177.039C293.512 174.676 295.423 172.789 297.891 171.414C300.355 170.045 303.276 169.347 306.625 169.324ZM306.423 174.767C304.686 174.785 303.2 175.24 301.992 176.141C300.762 177.016 299.828 178.231 299.198 179.784C298.545 181.311 298.218 183.091 298.218 185.069C298.218 187.073 298.57 188.826 299.225 190.334C299.88 191.842 300.81 193.033 302.043 193.889C303.276 194.742 304.763 195.17 306.473 195.192C308.209 195.174 309.669 194.721 310.902 193.821C312.108 192.944 313.015 191.728 313.668 190.178C314.301 188.646 314.626 186.871 314.626 184.889C314.626 183.046 314.3 181.38 313.669 179.85C313.04 178.321 312.109 177.107 310.902 176.185C309.669 175.261 308.184 174.79 306.423 174.767ZM182.688 192.435H173.067L170.7 199.724L162.276 199.697L171.5 176.767C172.353 174.679 173.871 169.049 182.481 169.386L193.458 199.799H185.281L182.689 192.436L182.688 192.435ZM174.164 187.581H181.593L177.963 177.201L174.164 187.581ZM101.494 192.435H91.8738L89.5034 199.724L81.0812 199.697L90.3068 176.767C91.1592 174.679 92.6763 169.049 101.287 169.386L112.266 199.799H104.087L101.494 192.436V192.435ZM92.9692 187.581H100.396L96.7668 177.201L92.9692 187.581ZM224.181 226.038V227.246H219.804L219.795 229.79C219.768 230.074 220.015 231.2 220.933 231.223C222.649 231.268 224.622 231.205 224.627 231.205V232.65C224.622 232.65 222.615 232.714 220.898 232.669C219.23 232.632 218.35 231.232 218.348 229.794L218.393 221.239L218.61 221.241V221.235H224.438V222.459H219.834L219.816 226.037H224.186L224.181 226.038ZM207.04 226.038V227.246H202.66L202.651 229.79C202.624 230.074 202.873 231.2 203.79 231.223C205.507 231.268 207.479 231.205 207.484 231.205V232.65C207.479 232.65 205.471 232.714 203.756 232.669C202.087 232.632 201.21 231.232 201.205 229.794L201.25 221.239L201.47 221.241V221.235H207.295V222.459H202.69L202.672 226.037H207.045L207.04 226.038ZM136.299 221.214L136.254 229.674C136.208 230.029 136.474 231.072 137.392 231.093C139.108 231.13 141.081 231.075 141.086 231.075V232.507C141.08 232.507 139.074 232.571 137.357 232.525C135.689 232.489 134.782 231.102 134.806 229.68L134.852 221.239L136.296 221.212L136.299 221.214ZM143.022 221.232H144.482V232.551H143.022V221.232ZM148.15 232.551H146.774V221.231H148.368L151.998 226.959C152.415 227.62 152.794 228.251 153.131 228.856C153.459 229.469 153.76 230.059 154.028 230.636L154.065 230.618C154 229.875 153.955 229.13 153.929 228.385C153.902 227.579 153.89 226.772 153.892 225.966V221.23H155.271V232.55H153.791L150.198 226.805C149.803 226.179 149.421 225.543 149.055 224.899C148.704 224.288 148.379 223.663 148.081 223.026L148.026 223.044C148.086 224.022 148.125 225.001 148.144 225.98C148.151 226.557 148.153 227.135 148.152 227.712V232.549L148.15 232.551ZM157.825 221.231H159.285V225.967H164.762V221.231H166.24V232.551H164.762V227.241H159.285V232.551H157.825V221.231ZM174.622 228.99H170.608L169.429 232.551H167.92L171.767 221.231H173.532L177.394 232.551H175.832L174.622 228.99ZM170.91 227.847H174.319L173.211 224.59C173.09 224.238 172.981 223.882 172.884 223.523C172.792 223.186 172.707 222.851 172.624 222.524H172.588C172.418 223.213 172.227 223.897 172.014 224.574L170.91 227.847ZM178.486 231.997L178.853 230.772C179.222 230.993 179.617 231.168 180.03 231.291C180.498 231.434 180.985 231.508 181.475 231.511C182.231 231.502 182.81 231.327 183.221 230.972C183.634 230.62 183.833 230.159 183.843 229.576C183.851 229.058 183.683 228.621 183.348 228.277C183.011 227.932 182.466 227.613 181.711 227.327C180.777 227.008 180.046 226.589 179.527 226.075C178.996 225.565 178.729 224.909 178.72 224.12C178.729 223.522 178.881 223.003 179.182 222.542C179.486 222.079 179.904 221.718 180.459 221.449C181.003 221.19 181.643 221.054 182.38 221.045C182.96 221.052 183.456 221.1 183.876 221.213C184.298 221.324 184.633 221.449 184.883 221.599L184.482 222.792C184.298 222.683 184.019 222.567 183.648 222.447C183.289 222.331 182.842 222.262 182.331 222.255C181.819 222.261 181.406 222.348 181.089 222.524C180.777 222.693 180.55 222.912 180.409 223.17C180.271 223.408 180.199 223.678 180.198 223.953C180.198 224.304 180.271 224.598 180.433 224.849C180.593 225.101 180.836 225.337 181.171 225.54C181.5 225.74 181.928 225.933 182.449 226.137C183.087 226.379 183.626 226.657 184.052 226.959C184.482 227.26 184.801 227.613 185.01 228.024C185.228 228.428 185.337 228.907 185.337 229.46C185.343 230.033 185.192 230.597 184.901 231.091C184.618 231.579 184.179 231.973 183.59 232.274C183.004 232.577 182.264 232.727 181.374 232.736C181.005 232.734 180.637 232.701 180.274 232.636C179.93 232.57 179.59 232.48 179.258 232.367C178.986 232.276 178.727 232.151 178.486 231.996V231.997ZM197.215 228.99H193.201L192.024 232.551H190.512L194.359 221.231H196.122L199.987 232.551H198.423L197.215 228.99ZM193.502 227.847H196.911L195.803 224.59C195.682 224.238 195.573 223.882 195.476 223.523C195.385 223.186 195.299 222.851 195.215 222.524H195.178C195.009 223.213 194.819 223.897 194.607 224.574L193.502 227.847ZM204.972 218.138H206.752L204.621 220.101H203.412L204.972 218.138ZM209.441 232.551V221.38C209.872 221.299 210.306 221.241 210.742 221.205C211.243 221.161 211.745 221.139 212.247 221.141C213.019 221.141 213.673 221.223 214.203 221.362C214.732 221.512 215.176 221.746 215.522 222.066C215.807 222.326 216.033 222.644 216.184 223C216.338 223.387 216.415 223.801 216.411 224.217C216.403 224.713 216.311 225.158 216.126 225.545C215.94 225.916 215.68 226.244 215.361 226.51C215.04 226.773 214.672 226.975 214.278 227.106V227.152C214.71 227.301 215.082 227.588 215.336 227.968C215.605 228.353 215.807 228.848 215.942 229.437C216.126 230.226 216.285 230.888 216.428 231.418C216.572 231.947 216.696 232.325 216.815 232.543H215.301C215.21 232.376 215.101 232.056 214.976 231.595C214.821 231.012 214.678 230.427 214.547 229.838C214.387 229.066 214.135 228.511 213.783 228.167C213.438 227.833 212.936 227.656 212.279 227.639H210.901V232.543L209.441 232.551ZM210.901 222.407V226.537H212.397C213.186 226.528 213.808 226.337 214.262 225.951C214.716 225.565 214.942 225.042 214.951 224.389C214.951 223.902 214.833 223.505 214.622 223.194C214.395 222.877 214.075 222.637 213.707 222.507C213.319 222.357 212.867 222.28 212.346 222.272C211.634 222.281 211.148 222.327 210.901 222.406V222.407ZM232.586 228.99H228.572L227.397 232.551H225.886L229.73 221.231H231.495L235.358 232.551H233.796L232.586 228.99ZM228.875 227.847H232.285L231.176 224.59C231.055 224.238 230.945 223.882 230.848 223.523C230.756 223.186 230.672 222.851 230.588 222.524H230.552C230.382 223.213 230.192 223.896 229.981 224.574L228.875 227.847ZM236.451 231.997L236.82 230.772C237.188 230.994 237.583 231.168 237.995 231.291C238.463 231.434 238.95 231.508 239.44 231.511C240.196 231.502 240.774 231.327 241.187 230.972C241.598 230.62 241.799 230.159 241.808 229.576C241.816 229.058 241.649 228.621 241.312 228.277C240.976 227.932 240.43 227.613 239.675 227.327C238.744 227.008 238.011 226.589 237.491 226.075C236.962 225.565 236.695 224.909 236.685 224.12C236.694 223.522 236.845 223.003 237.147 222.542C237.45 222.079 237.869 221.718 238.423 221.449C238.969 221.19 239.607 221.054 240.346 221.045C240.926 221.052 241.421 221.1 241.842 221.213C242.263 221.324 242.598 221.449 242.849 221.599L242.445 222.792C242.264 222.683 241.983 222.567 241.615 222.447C241.255 222.331 240.809 222.262 240.296 222.255C239.785 222.261 239.373 222.348 239.053 222.524C238.769 222.671 238.533 222.895 238.372 223.17C238.237 223.409 238.165 223.678 238.164 223.953C238.164 224.304 238.237 224.598 238.398 224.849C238.558 225.101 238.8 225.337 239.138 225.54C239.465 225.74 239.893 225.933 240.414 226.137C241.053 226.379 241.587 226.657 242.018 226.959C242.444 227.26 242.766 227.613 242.975 228.024C243.193 228.428 243.303 228.907 243.303 229.46C243.309 230.033 243.158 230.597 242.866 231.091C242.582 231.579 242.142 231.973 241.558 232.274C240.968 232.577 240.229 232.727 239.34 232.736C238.97 232.734 238.602 232.701 238.238 232.636C237.894 232.57 237.554 232.48 237.222 232.367C236.951 232.276 236.691 232.151 236.451 231.996" fill="#7B7979"/>
<defs>
<linearGradient id="paint0_linear_730_18731" x1="424.619" y1="155.625" x2="424.619" y2="88.0783" gradientUnits="userSpaceOnUse">
<stop stop-color="#D29A08"/>
<stop offset="0.73" stop-color="#FCD313"/>
<stop offset="1" stop-color="#FCD313"/>
</linearGradient>
</defs>
</svg>
