<svg width="480" height="320" viewBox="0 0 480 320" fill="none" xmlns="http://www.w3.org/2000/svg">
<path fill-rule="evenodd" clip-rule="evenodd" d="M55.3848 203.551H84.504V177.696H98.277C120.627 177.696 133.313 165.737 133.674 148.217C134.158 128.404 121.714 116.563 99.1213 116.563H55.3848V203.551ZM84.504 157.037V137.948H95.3744C103.11 137.948 106.37 140.967 106.37 147.494C106.37 153.895 102.988 157.036 95.6186 157.036L84.504 157.037ZM178.454 158.125C178.454 158.727 178.214 159.455 177.61 160.179C177.124 160.782 176.28 161.266 173.983 161.748L168.667 162.957L166.492 163.44L162.144 164.167L158.399 164.89L154.051 165.737C141.242 168.394 135.082 174.071 133.752 181.924C131.457 196.544 142.088 207.418 161.3 204.881C163.56 204.516 165.783 203.95 167.942 203.189C174.466 200.409 176.64 198.477 177.97 195.094C177.85 197.994 179.057 200.532 181.959 202.706C185.461 205.243 189.812 205.848 202.738 204.397L207.45 203.674V186.759H206.363C203.946 186.637 203.585 186.517 203.222 185.308V184.825L203.101 184.221V158.487C203.101 143.868 194.161 136.134 171.688 136.255C150.786 136.498 141.484 142.901 138.583 154.983C138.343 156.554 138.1 158.005 137.981 159.575H163.834C163.834 159.091 163.834 158.727 163.956 158.244C164.317 154.62 166.614 152.445 170.963 151.964H173.018L173.862 152.083C176.763 152.689 177.969 154.016 178.333 156.797L178.452 158.125H178.454ZM178.575 172.624V180.837C178.575 185.79 175.073 189.053 167.097 189.053H165.526C160.937 188.69 159.003 186.759 159.365 183.132C159.607 180.476 160.574 179.509 165.165 177.576C165.526 177.455 166.009 177.335 166.493 177.212L167.22 176.851L172.776 175.158L174.95 174.435C176.764 173.831 177.488 173.467 178.575 172.624ZM210.359 154.016H217.488V185.067C217.488 201.376 226.066 208.382 249.021 204.278C250.953 203.913 252.887 203.551 254.697 202.947V183.495C253.974 183.858 253.25 184.099 252.524 184.343C246.966 185.55 244.428 183.738 244.428 179.268V153.896H254.818V138.309H244.55V121.758H217.366V138.31H210.359V154.016ZM261.537 203.551H288.479V176.729C288.479 163.68 295.125 157.641 306.239 159.815C307.326 160.058 308.414 160.418 309.5 160.782V138.19C302.734 135.895 295.125 138.31 289.445 145.438C289.111 145.981 288.749 146.506 288.358 147.009V138.309H261.537V203.551ZM315.044 203.551H342.107V138.309H315.044V203.551ZM315.044 132.335H342.107V114.574H315.044V132.335ZM395.62 158.125C395.62 158.727 395.379 159.455 394.774 160.179C394.292 160.782 393.445 161.266 391.151 161.748L385.835 162.957L383.658 163.44L379.309 164.167L375.565 164.89L371.216 165.737C358.41 168.394 352.247 174.071 350.917 181.924C348.623 196.544 359.254 207.418 378.465 204.881C380.725 204.517 382.949 203.95 385.108 203.189C391.635 200.409 393.806 198.477 395.137 195.094C395.016 197.994 396.223 200.532 399.124 202.706C402.626 205.243 406.978 205.848 419.903 204.397L424.616 203.674V186.759H423.529C421.114 186.637 420.751 186.517 420.386 185.308V184.825L420.266 184.221V158.487C420.266 143.868 411.325 136.134 388.852 136.255C367.952 136.498 358.649 142.901 355.752 154.983C355.508 156.554 355.268 158.005 355.146 159.575H381C381 159.091 381 158.727 381.121 158.244C381.483 154.62 383.779 152.445 388.129 151.964H390.182L391.027 152.083C393.928 152.689 395.136 154.016 395.498 156.797L395.619 158.125H395.62ZM395.74 172.624V180.837C395.74 185.79 392.237 189.053 384.264 189.053H382.693C378.101 188.69 376.168 186.759 376.531 183.132C376.773 180.476 377.739 179.509 382.33 177.576C382.693 177.455 383.177 177.335 383.658 177.212L384.384 176.851L389.941 175.158L392.115 174.435C393.928 173.831 394.655 173.467 395.74 172.624Z" fill="#003370"/>
</svg>
