<svg width="480" height="320" viewBox="0 0 480 320" fill="none" xmlns="http://www.w3.org/2000/svg">
<path fill-rule="evenodd" clip-rule="evenodd" d="M273.135 184.874L275.361 178.516C275.748 177.428 276.791 176.801 277.7 177.118C278.362 177.351 278.769 177.971 278.794 178.739C278.811 178.917 278.839 179.15 278.978 179.366C280.962 182.897 285.513 185.255 290.989 184.87C295.705 184.538 297.562 181.482 297.304 177.803C297.207 176.42 296.277 175.018 295.935 174.547C295.35 173.788 285.455 161.9 285.455 161.9C283.249 158.921 281.805 155.313 281.527 151.356C280.748 140.234 288.999 130.611 302.269 129.684C310.613 129.083 317.173 131.286 322.138 135.111L319.942 141.368C319.561 142.456 318.514 143.083 317.61 142.767C316.948 142.534 316.541 141.914 316.514 141.148C316.498 140.967 316.466 140.735 316.33 140.518C314.318 137.023 310.525 134.749 305.082 135.133C300.363 135.463 297.731 138.781 297.995 142.624C298.05 143.377 298.238 144.085 298.506 144.75C299.071 146.107 299.778 147.396 300.644 148.552L306.129 155.126L308.652 158.191C310.865 161.163 313.533 164.691 313.811 168.654C314.586 179.77 306.336 189.39 293.069 190.32C284.725 190.921 278.103 188.702 273.135 184.874ZM375.61 184.874L377.836 178.516C378.217 177.428 379.264 176.801 380.175 177.118C380.833 177.351 381.241 177.971 381.266 178.739C381.283 178.917 381.311 179.15 381.45 179.366C383.434 182.897 387.985 185.255 393.461 184.87C398.177 184.538 400.035 181.482 399.78 177.803C399.682 176.42 398.752 175.018 398.41 174.547C397.825 173.788 387.927 161.9 387.927 161.9C385.721 158.921 384.276 155.313 383.999 151.356C383.221 140.234 391.471 130.611 404.741 129.684C413.082 129.083 419.642 131.286 424.614 135.111L422.414 141.368C422.033 142.456 420.989 143.083 420.078 142.767C419.416 142.534 419.009 141.914 418.984 141.148C418.971 140.967 418.938 140.735 418.803 140.518C416.79 137.023 412.997 134.749 407.551 135.133C402.835 135.463 400.202 138.781 400.471 142.624C400.522 143.377 400.709 144.085 400.975 144.75C401.543 146.107 402.25 147.396 403.113 148.552L408.601 155.126L411.127 158.191C413.333 161.163 416.008 164.691 416.28 168.654C417.061 179.77 408.811 189.39 395.541 190.32C387.197 190.921 380.578 188.702 375.61 184.874ZM349.328 137.476L338.167 163.221C337.195 165.482 335.357 169.849 335.254 172.886C335.254 175.27 336.733 176.967 338.668 177.48C339.243 177.615 339.97 177.812 340.59 177.812C342.086 177.813 343.55 177.375 344.801 176.555C346.052 175.734 347.037 174.566 347.632 173.193L365.567 131.603L386.17 131.606C386.433 131.595 386.696 131.642 386.939 131.745C387.876 132.142 388.283 133.208 387.911 134.148C387.665 134.765 387.181 135.101 386.331 135.205C384.794 135.447 384.161 136.151 383.589 137.498L373.397 161.063C368.077 174.763 354.719 184.419 339.14 184.419C333.987 184.419 329.132 183.233 324.749 181.13C320.607 178.998 317.739 174.686 317.739 169.711C317.845 164.607 319.021 159.655 321.063 155.278L329.151 136.542C329.191 136.444 329.214 136.34 329.217 136.235C329.232 135.573 328.719 135.23 328.396 135.088C327.646 134.798 327.171 134.177 327.171 133.441C327.171 132.427 328.156 131.606 329.371 131.606H351.88C352.143 131.595 352.404 131.642 352.646 131.745C353.582 132.142 353.99 133.208 353.618 134.148C353.372 134.765 352.888 135.101 352.038 135.205C350.501 135.447 349.9 136.131 349.328 137.476ZM236.587 155.901H247.425L244.472 143.125L236.587 155.901ZM55.3828 182.232L75.3555 135.799C75.3926 135.7 75.4156 135.597 75.4236 135.492C75.4364 134.827 74.9262 134.484 74.603 134.342C73.8539 134.052 73.3722 133.432 73.3722 132.691C73.3722 131.68 74.3608 130.86 75.5788 130.86H97.3092L109.749 130.899C113.535 130.899 116.882 133.128 118.277 136.4C119.075 138.389 119.492 140.541 119.492 142.822C119.492 146.407 118.387 149.738 116.517 152.496C112.508 158.437 105.937 161.997 98.8437 161.997H83.8252L77.1808 177.605C77.1484 177.692 77.0937 177.805 77.0937 177.912C77.0937 178.283 77.3589 178.607 77.6754 178.748C78.4312 179.036 78.9057 179.659 78.9057 180.393C78.9057 181.41 77.9204 182.231 76.703 182.231L55.3828 182.232ZM86.523 155.93L94.9474 136.358C94.9474 136.358 96.2916 136.322 96.7438 136.393C97.6676 136.538 98.372 136.755 99.1016 137.181C102.474 139.165 102.733 144.795 99.6766 149.761C97.3606 153.53 93.9946 155.882 89.8114 155.911L86.523 155.93ZM138.069 158.569L130.248 176.733L148.548 176.747C150.005 176.747 150.997 176.246 151.82 174.928C152.254 174.182 153.08 173.771 153.843 173.771C154.86 173.771 155.681 174.592 155.681 175.606C155.68 175.87 155.621 176.13 155.51 176.368L152.954 182.241H107.33L127.14 136.312C127.163 136.219 127.205 135.647 127.195 135.544C127.14 134.817 126.304 134.433 125.984 134.29C125.231 134 124.756 133.379 124.756 132.64C124.756 131.628 125.599 130.85 127.014 130.85H168.566L165.436 138.102C164.958 139.217 163.814 139.798 162.884 139.397C162.209 139.103 161.827 138.422 161.853 137.615C161.85 137.266 161.74 136.658 161.123 136.409C161.03 136.37 160.858 136.358 160.761 136.351H147.672L140.294 153.475L151.296 153.462C152.54 153.375 153.257 153.249 154.004 152.054C154.43 151.311 155.26 150.898 156.026 150.898C157.037 150.898 157.683 151.718 157.683 152.732C157.682 152.995 157.623 153.256 157.512 153.494L154.53 160.314C154.052 161.434 152.906 162.013 151.975 161.616C151.297 161.325 151.096 160.64 151.125 159.836C151.122 159.487 151.009 158.876 150.395 158.628C150.314 158.602 150.229 158.586 150.144 158.579L138.069 158.569ZM252.593 182.219C251.376 182.219 250.409 181.408 250.409 180.394C250.409 179.657 250.884 179.037 251.634 178.749C251.954 178.604 252.486 178.258 252.455 177.597C252.454 177.51 252.441 177.424 252.416 177.341L248.865 162.143H232.736L223.404 177.261C223.333 177.415 223.317 177.493 223.317 177.561C223.304 178.23 223.821 178.569 224.141 178.708C224.893 178.998 225.374 179.612 225.378 180.352C225.384 181.363 224.402 182.19 223.188 182.196L213.61 182.219C213.343 182.227 213.077 182.176 212.831 182.07C212.61 181.976 212.408 181.84 212.239 181.668C212.07 181.497 211.937 181.294 211.847 181.07C211.756 180.847 211.711 180.608 211.713 180.368C211.715 180.127 211.765 179.889 211.859 179.667C212.156 178.96 212.796 178.698 213.649 178.595C214.85 178.401 215.461 177.946 216.023 177.105L245.251 130.87L263.153 130.866C264.368 130.866 265.35 131.709 265.35 132.724C265.35 133.46 264.872 134.08 264.122 134.371C263.799 134.517 263.311 134.849 263.327 135.515L274.201 182.219L252.593 182.219ZM219.66 155.724C219.925 155.713 220.189 155.762 220.432 155.866C221.362 156.26 221.776 157.327 221.398 158.269C221.156 158.887 220.671 159.222 219.818 159.326C218.284 159.568 217.667 160.221 217.096 161.561L208.261 182.038H190.307L189.547 180.652C184.611 182.707 180.415 183.501 174.681 183.501C165.566 183.501 158.116 176.114 158.116 167.001C158.116 166.436 158.123 165.877 158.181 165.331C160.517 145.268 177.511 129.588 198.201 129.588C208.17 129.588 213.849 131.426 222.186 135.483L219.983 140.742C219.916 140.897 219.833 141.045 219.738 141.184C219.176 142.005 218.216 142.402 217.428 142.037C216.44 141.588 216.666 140.978 216.197 139.97C215.432 138.313 214.417 137.786 213.771 137.34C210.535 135.299 208.351 135.222 206.141 135.222C200.918 135.222 196.188 137.179 192.571 140.406C184.747 147.338 179.288 156.683 177.756 168.064C177.703 168.414 177.676 168.768 177.676 169.123C177.676 173.171 180.903 176.505 184.954 176.505C189.919 176.505 192.639 173.636 194.544 169.388L198.04 161.183C198.083 161.025 198.11 160.863 198.12 160.699C198.12 159.63 197.245 159.329 196.922 159.184C196.173 158.893 195.678 158.292 195.678 157.555C195.678 156.541 196.464 155.721 197.878 155.721" fill="#E31F26"/>
</svg>
