<svg width="480" height="320" viewBox="0 0 480 320" fill="none" xmlns="http://www.w3.org/2000/svg">
<path d="M92.4219 194.896V141.948H119.219C130.812 141.948 136.621 146.145 136.621 154.551V162.125C136.621 166.398 135.125 169.691 132.157 171.992C129.185 174.275 125.187 175.422 120.115 175.422H101.337V194.896H92.4219ZM120.073 167.761C122.504 167.761 124.287 167.397 125.472 166.712C126.655 165.989 127.382 164.683 127.682 162.703V155.027C127.682 154.569 127.65 154.255 127.59 154.039C127.361 152.493 126.764 151.385 125.822 150.729C125.003 150.228 123.613 149.892 121.672 149.67C121.562 149.67 121.315 149.631 120.973 149.6H101.337V167.757H120.073V167.761ZM140.736 180.681V155.179C140.736 150.348 142.366 146.861 145.673 144.726C148.55 142.869 152.883 141.948 158.71 141.948H181.282V149.603H155.294C153.646 149.603 152.301 150.207 151.246 151.428C150.184 152.628 149.658 153.969 149.658 155.437V164.443H181.201V172.126H149.661V182.484C149.661 182.975 149.799 183.49 150.099 183.988C150.985 185.558 152.305 186.543 154.066 186.949C154.944 187.157 156.765 187.263 159.522 187.263H181.011V194.903H157.143C146.196 194.896 140.736 190.16 140.736 180.681ZM187.374 181.595V141.948H196.288V181.496C196.288 183.607 196.871 185.096 198.014 185.964C199.165 186.811 201 187.256 203.52 187.256H226.869V194.896H203.689C198.512 194.896 194.527 193.792 191.778 191.572C188.824 189.31 187.374 185.989 187.374 181.595ZM223.294 170.312H245.337V177.978L223.294 178.069V170.312ZM247.585 194.896L268.124 146.861C269.723 143.205 272.003 141.355 275.006 141.355C278.405 141.355 280.921 143.212 282.499 146.9L302.862 194.896H293.372L288.678 183.836H261.934L257.085 194.896H247.585ZM285.428 176.171L275.126 152.155L265.075 176.171H285.428ZM307.531 141.948H316.47V194.896H307.531V141.948ZM323.761 194.896V141.948H354.995C358.061 141.948 360.676 142.626 362.847 143.988C366.33 146.212 368.059 149.183 368.059 152.977V162.04C368.059 164.761 366.863 167.164 364.506 169.253C362.141 171.357 359.385 172.387 356.254 172.387H345.596L368.455 194.896H356.643L333.897 172.366C333.018 171.449 332.846 170.157 333.357 168.413C334.201 165.971 336.346 164.733 339.83 164.733H354.179C357.493 164.288 359.127 162.862 359.127 160.483V154.547C359.127 151.759 357.595 150.125 354.55 149.67L354.098 149.6H332.687V194.896H323.761Z" fill="#002C55"/>
<path d="M252.193 156.886C221.408 127.019 193.45 116.269 168.965 111.043C144.632 106.031 125.362 108.389 108.782 114.138C75.8625 125.855 57.5285 148.395 57.5285 148.395C56.8051 145.625 56.0992 142.946 55.3828 140.144C55.3828 140.144 75.1884 115.098 109.026 103.67C125.892 98.2177 145.274 97.0354 169.872 103.85C194.322 110.817 222.435 123.035 252.193 156.886Z" fill="#002C55"/>
<path d="M60.4922 154.186C60.4922 154.186 73.7865 135.139 100.403 121.368C113.68 114.649 129.364 109.976 149.674 110.954C169.875 112.079 193.301 117.804 221.337 136.847C208.152 129.827 179.559 115.259 148.16 113.713C116.952 112.528 85.6374 124.802 60.8804 158.407C61.0745 159.155 60.4922 154.186 60.4922 154.186Z" fill="#C3D662"/>
<path d="M411.923 126.586L407.882 123.467L402.917 124.645L403.489 121.942L406.968 120.206L408.8 111.665L394.634 113.701L395.361 110.352L410.247 104.896L412.615 93.8746C412.721 93.3911 412.964 93.0523 413.338 92.8758C413.73 92.6923 414.104 92.6429 414.454 92.7276C414.863 92.8158 415.184 92.9923 415.442 93.3276C415.714 93.6381 415.788 94.0652 415.668 94.5487L413.328 105.567L424.618 116.638L423.912 119.966L411.874 112.325L410.039 120.869L412.498 123.858L411.923 126.586ZM312.133 208.562C312.133 208.562 377.521 245.102 406.757 127.737C378.333 237.388 312.133 208.562 312.133 208.562Z" fill="#002C55"/>
<path d="M394.57 176.871C394.57 176.871 371.835 251.59 311.727 215.057C373.046 257.276 394.57 176.871 394.57 176.871Z" fill="#C3D662"/>
</svg>
