<svg width="480" height="320" viewBox="0 0 480 320" fill="none" xmlns="http://www.w3.org/2000/svg">
<path d="M175.526 158.491C173.611 159.965 172.473 160.358 170.886 160.755C170.346 161.36 168.357 163.507 167.857 164.108C168.38 165.394 168.89 166.632 169.382 167.818C173.536 163.473 180.131 157.404 186.271 153.004C186.49 151.979 186.716 150.926 186.951 149.808L187.078 149.216C187.341 147.968 187.57 146.847 187.782 145.814C185.796 147.261 182.069 150.553 180.22 152.044C179.43 154.7 177.731 156.796 175.526 158.491ZM202.08 143.524C206.104 141.285 211.7 138.358 216.121 136.252C216.302 135.626 216.48 135.011 216.644 134.42L216.702 134.163L216.422 134.297C217.283 134.399 218.384 134.526 219.659 134.591C222.716 133.223 227.03 131.425 230.23 130.149C271.122 113.855 309.242 110.953 320.921 122.361C320.781 121.688 320.548 121.049 320.336 120.392C315.461 105.155 271.939 105.979 228.35 123.575C221.68 126.269 212.657 130.744 204.145 135.667L204.083 135.893C203.413 138.303 202.743 140.867 202.08 143.524Z" fill="#FF8024"/>
<path d="M317.98 134.749C319.765 134.78 321.625 134.8 323.563 134.814C324.114 132.048 324.647 128.8 323.731 126.5C323.115 124.958 322.165 123.576 320.92 122.359C321.649 125.881 320.148 130.527 317.98 134.749ZM268.705 174.206C266.647 175.006 263.365 176.25 261.245 177.05C261.088 179.737 260.968 182.394 260.896 184.971L260.907 186.817C262.168 186.329 264.702 185.341 265.98 184.831L266.038 184.599C266.801 181.877 267.738 178.257 268.705 174.206ZM318.346 141.512C316.862 141.512 315.266 141.566 313.676 141.659C310.356 145.583 304.63 151.074 299.591 155.081C299.949 155.06 300.308 155.033 300.678 155.006L302.51 154.872L302.042 156.168C301.351 157.659 300.893 160.551 300.808 162.79L301.546 162.917C309.02 157.036 315.744 150.411 319.703 144.804C319.919 143.57 320.134 142.469 320.267 141.525C319.72 141.515 318.934 141.512 318.346 141.512Z" fill="#FF8024"/>
<path d="M254.03 185.254C251.21 185.254 249.066 185.364 247.07 185.603L246.03 185.692L246.252 184.676C246.321 184.324 246.393 183.952 246.461 183.579C208.246 197.442 175.524 199.497 165.029 185.405C164.16 185.459 163.24 185.528 162.187 185.61L161.634 185.644C161.634 185.644 160.649 181.835 160.533 181.271C160.389 182.023 160.164 183.866 160.365 185.47C160.471 186.317 160.67 187.247 161.213 188.693C166.871 203.753 208.765 207.548 254.02 189.514C256.495 188.529 258.916 187.712 261.299 186.666L261.401 185.757L260.027 185.599C258.352 185.36 256.502 185.254 254.03 185.254ZM289.818 162.16C289.576 162.16 289.319 162.17 289.07 162.174C287.87 162.943 285.203 165.1 283.952 165.859C283.224 169.293 282.612 172.75 282.116 176.225C290.882 171.104 298.41 165.333 301.757 162.735L300.765 162.728C296.988 162.358 293.203 162.16 289.818 162.16Z" fill="#FF8024"/>
<path d="M77.689 139.969C75.6036 147.955 75.0976 150.475 73.4429 159.036C74.1643 159.036 74.7386 159.107 76.1061 159.107C77.4737 159.107 80.6395 159.107 83.0121 157.237C85.46 155.295 87.0429 150.331 87.0429 146.516C87.0429 139.969 81.7916 139.969 77.689 139.969ZM92.5096 160.547C88.3386 163.425 81.501 163.928 78.7694 163.928C77.6172 163.928 75.1694 163.856 72.4378 163.497C70.9984 169.466 69.1284 179.111 68.407 184.936C66.3215 184.721 63.9454 184.577 61.7882 184.577C59.6309 184.577 57.4702 184.721 55.3848 184.936C59.1249 170.981 59.4121 169.685 64.3078 145.367C65.4566 139.61 65.6719 137.521 65.8907 135.148C68.3352 135.364 70.4959 135.436 72.5096 135.436C76.6087 135.436 81.2856 135.148 86.7557 135.148C94.5266 135.148 99.2754 139.107 99.2754 147.022C99.2754 150.69 97.9078 156.807 92.5096 160.547ZM108.985 135.148C112.51 135.292 116.828 135.507 120.352 135.507C125.029 135.507 134.024 135.436 138.339 135.148C137.405 137.162 136.975 138.673 136.612 141.695C132.298 141.049 126.899 140.906 123.805 140.906C122.944 140.906 122.151 140.906 120.352 140.977C118.554 148.314 118.41 149.179 116.971 155.942C125.316 155.942 128.482 155.942 133.303 155.583C132.369 157.596 132.007 160.188 131.935 162.058C126.828 161.555 122.944 161.48 120.855 161.48C119.272 161.48 117.617 161.555 115.819 161.627C114.451 167.381 113.446 173.282 112.725 179.179C120.711 179.179 125.029 179.111 129.275 178.102C128.267 180.116 127.764 182.492 127.764 184.936C121.433 184.577 119.2 184.577 113.733 184.577C105.819 184.577 103.805 184.649 98.407 184.936C101.573 173.641 107.186 147.812 108.985 135.148ZM153.809 157.883C158.055 157.883 160.427 157.883 162.947 156.516C166.759 154.43 168.127 150.472 168.127 146.947C168.127 140.543 163.522 139.969 157.549 139.969C155.751 147.019 155.176 150.041 153.809 157.883ZM152.944 161.914C151.508 168.605 149.563 178.318 148.557 184.936C146.253 184.649 144.961 184.577 142.298 184.577C139.634 184.577 137.115 184.721 135.535 184.936C137.908 176.807 142.872 155.87 146.038 135.148C147.908 135.292 149.853 135.436 152.441 135.436C156.038 135.436 161.149 135.148 166.185 135.148C174.53 135.148 180.359 138.099 180.359 146.947C180.359 150.977 178.848 155.148 175.176 157.955C172.445 160.044 169.135 160.69 165.826 160.906C169.063 168.892 173.091 178.605 176.113 184.936C174.889 184.793 172.229 184.577 169.422 184.577C166.831 184.577 164.889 184.721 162.082 184.936C160.212 177.812 158.988 173.641 154.383 161.914H152.944ZM196.687 135.507C199.781 135.507 201.58 135.364 203.45 135.148C199.351 149.897 195.104 170.762 192.804 184.936C190.284 184.649 188.629 184.577 185.894 184.577C183.737 184.577 181.795 184.721 179.634 184.936C181.795 177.668 182.369 174.936 187.549 150.543C189.494 141.336 189.853 138.386 190.284 135.148C191.508 135.292 194.458 135.507 196.687 135.507ZM255.47 135.148C256.766 135.364 258.133 135.507 260.219 135.507C262.592 135.507 264.031 135.292 265.398 135.148C263.6 144.646 260.722 166.591 260.219 184.936C258.205 184.649 256.116 184.577 254.031 184.577C251.658 184.577 249.282 184.649 246.91 184.936C248.708 175.654 250.865 159.179 251.368 152.201C246.475 158.748 235.108 175.801 229.785 184.936C228.704 184.721 227.768 184.721 227.122 184.721C226.116 184.721 225.108 184.793 224.458 184.936C223.669 178.677 220.862 163.497 217.552 152.13C214.889 159.538 210.933 171.555 207.48 184.936C206.296 184.7 205.092 184.58 203.884 184.577C202.229 184.577 200.646 184.793 199.925 184.936C204.171 175.008 213.163 149.754 217.265 135.148C218.489 135.292 220.216 135.507 222.301 135.507C224.39 135.507 225.901 135.364 227.265 135.148C228.345 145.654 230.216 156.013 233.31 168.318C241.87 157.381 251.874 141.48 255.47 135.148ZM277.269 135.148C280.793 135.292 285.111 135.507 288.636 135.507C293.313 135.507 302.308 135.436 306.622 135.148C305.689 137.162 305.255 138.673 304.896 141.695C300.581 141.049 295.183 140.906 292.089 140.906C291.228 140.906 290.434 140.906 288.636 140.977C286.838 148.314 286.694 149.179 285.255 155.942C293.6 155.942 296.766 155.942 301.586 155.583C300.653 157.596 300.291 160.188 300.219 162.058C295.111 161.555 291.228 161.48 289.142 161.48C287.559 161.48 285.904 161.555 284.103 161.627C282.739 167.381 281.73 173.282 281.009 179.179C288.995 179.179 293.313 179.111 297.559 178.102C296.551 180.116 296.048 182.492 296.048 184.936C289.716 184.577 287.487 184.577 282.017 184.577C274.103 184.577 272.089 184.649 266.691 184.936C269.857 173.641 275.47 147.812 277.269 135.148ZM327.128 170.619C325.33 178.964 324.968 182.201 324.609 184.936C322.38 184.649 320.075 184.577 317.775 184.577C315.617 184.577 313.457 184.721 311.299 184.936C314.896 172.273 320.151 148.171 320.94 140.902C319.932 140.83 318.855 140.83 317.703 140.83C314.106 140.83 310.147 141.121 307.631 141.48C308.421 139.176 308.78 137.449 308.927 135.148C315.474 135.436 322.81 135.507 328.568 135.507C334.612 135.507 343.46 135.292 348.209 135.148C347.491 137.09 346.985 139.319 346.769 141.48C343.891 140.974 340.872 140.83 338.568 140.83C337.272 140.83 335.617 140.83 334.034 140.902C332.742 144.861 331.303 151.265 327.128 170.619ZM353.245 135.148C356.769 135.292 361.087 135.507 364.612 135.507C369.289 135.507 378.284 135.436 382.598 135.148C381.665 137.162 381.234 138.673 380.872 141.695C376.557 141.049 371.159 140.906 368.065 140.906C367.204 140.906 366.41 140.906 364.612 140.977C362.814 148.314 362.67 149.179 361.231 155.942C369.576 155.942 372.742 155.942 377.563 155.583C376.629 157.596 376.267 160.188 376.195 162.058C371.087 161.555 367.204 161.48 365.118 161.48C363.535 161.48 361.88 161.555 360.079 161.627C358.715 167.381 357.706 173.282 356.988 179.179C364.971 179.179 369.289 179.111 373.535 178.102C372.527 180.116 372.024 182.492 372.024 184.936C365.692 184.577 363.463 184.577 357.993 184.577C350.079 184.577 348.065 184.649 342.667 184.936C345.833 173.641 351.446 147.812 353.245 135.148ZM398.069 157.883C402.315 157.883 404.687 157.883 407.207 156.516C411.019 154.43 412.386 150.472 412.386 146.947C412.386 140.543 407.781 139.969 401.809 139.969C400.01 147.019 399.436 150.041 398.069 157.883ZM397.204 161.914C395.764 168.605 393.822 178.318 392.817 184.936C390.513 184.649 389.217 184.577 386.557 184.577C383.894 184.577 381.375 184.721 379.792 184.936C382.168 176.807 387.132 155.87 390.298 135.148C392.168 135.292 394.113 135.436 396.701 135.436C400.298 135.436 405.409 135.148 410.445 135.148C418.79 135.148 424.616 138.099 424.616 146.947C424.616 150.977 423.108 155.148 419.436 157.955C416.704 160.044 413.392 160.69 410.082 160.906C413.323 168.892 417.351 178.605 420.373 184.936C419.149 184.793 416.489 184.577 413.682 184.577C411.091 184.577 409.149 184.721 406.342 184.936C404.472 177.812 403.248 173.641 398.643 161.914H397.204ZM327.234 202.936L325.959 198.803L324.11 202.936H327.234ZM322.899 205.966L321.091 210.119H316.363C317.822 207.589 322.469 198.222 323.597 195.689H328.776C330.359 200.536 332.062 205.336 333.809 210.119H329.248C328.899 208.714 328.427 207.35 327.952 205.966H322.899ZM336.687 210.119C335.228 205.272 333.563 200.492 331.963 195.689H336.4C337.634 200.448 338.578 202.721 339.46 206.42H339.501C340.838 202.827 342.626 199.343 344.024 195.689H348.523C346.161 200.468 343.819 205.251 341.621 210.119H336.687ZM348.564 210.119C348.831 205.856 349.159 201.572 349.159 195.689H353.617C353.248 200.492 353.084 205.316 353.063 210.119H348.564ZM364.445 202.936L363.169 198.803L361.32 202.936H364.445ZM360.11 205.966L358.301 210.119H353.573C355.033 207.589 359.679 198.222 360.807 195.689H365.986C367.569 200.536 369.272 205.336 371.019 210.119H366.458C366.11 208.714 365.638 207.35 365.163 205.966H360.11ZM381.952 195.689L381.829 198.892C381.665 198.868 379.159 198.783 377.576 198.783C377.33 202.222 377.145 207.415 377.125 210.119H372.704C373.033 206.656 373.262 203.152 373.303 198.783C371.884 198.783 370.465 198.848 369.029 198.892L369.132 195.689H381.952ZM382.178 210.119C382.445 205.856 382.773 201.572 382.773 195.689H387.234C386.862 200.492 386.698 205.316 386.677 210.119H382.178ZM392.595 203.176C392.595 205.555 394.178 207.22 396.438 207.22C398.903 207.22 400.404 205.145 400.404 202.68C400.404 200.342 398.923 198.591 396.663 198.591C394.157 198.591 392.595 200.622 392.595 203.176ZM404.718 202.571C404.718 207.829 401.019 210.379 396.356 210.379C392.144 210.379 388.28 208.26 388.28 203.326C388.28 197.357 392.841 195.432 396.807 195.432C400.998 195.432 404.718 197.747 404.718 202.571ZM416.246 205.036H416.287C416.39 203.651 416.636 198.222 416.636 195.689H420.561C420.438 197.159 419.863 206.335 419.802 210.119H414.786C413.207 206.984 411.313 203.996 409.857 200.947H409.816C409.754 202.246 409.508 207.955 409.508 210.119H405.563C405.829 207.825 406.26 199.842 406.26 195.689H411.395L416.246 205.036Z" fill="#6F757D"/>
</svg>
