<svg width="480" height="320" viewBox="0 0 480 320" fill="none" xmlns="http://www.w3.org/2000/svg">
<path fill-rule="evenodd" clip-rule="evenodd" d="M55.3848 181.147H104.268L112.977 132.547L55.3848 181.147Z" fill="#3D4194"/>
<path fill-rule="evenodd" clip-rule="evenodd" d="M106.247 153.773L106.652 137.883L105.313 139.012L104.94 153.912L103.143 160.524H103.145C103.143 160.526 103.138 160.526 103.136 160.526L103.143 160.524L100.058 154.887L98.4122 144.837L97.251 145.814L98.7035 154.887V161.983L98.7421 161.97C98.7185 161.98 98.695 161.987 98.6714 161.998L98.7035 161.983L94.4487 156.995L90.7874 151.268L89.804 152.1L93.3047 157.576L94.9672 163.949L95.0122 163.926C94.98 163.945 94.9522 163.966 94.9222 163.986L94.9672 163.949L89.2856 160.108L85.6906 155.573L84.7265 156.385L88.2872 160.879L91.4901 166.604L84.9601 163.992L80.1782 160.222L79.2142 161.036L84.1395 164.922L88.6536 169.689L88.6964 169.644C88.6728 169.672 88.6514 169.702 88.6278 169.732L88.6536 169.689L81.5708 168.468L74.2352 165.237L73.2069 166.107L80.9581 169.522L86.3676 173.327L86.404 173.264C86.3826 173.312 86.3612 173.357 86.3376 173.402L86.3676 173.327L79.3984 172.842L68.665 169.939L67.551 170.88L78.9871 173.974L84.8851 177.136L77.9759 177.95L60.3611 176.947L59.0371 178.066L77.798 179.132L84.1824 180.913L108.209 161.01L106.247 153.773Z" fill="#F6B83A"/>
<path fill-rule="evenodd" clip-rule="evenodd" d="M83.002 181.147H131.883L140.594 132.547L83.002 181.147Z" fill="#ED373B"/>
<path fill-rule="evenodd" clip-rule="evenodd" d="M155.761 181.146H151.033L155.809 158.199H165.102C166.754 158.199 168.061 158.396 169.023 158.786C169.985 159.178 170.748 159.825 171.307 160.727C171.87 161.629 172.149 162.707 172.149 163.96C172.149 165.117 171.926 166.244 171.48 167.339C171.035 168.436 170.486 169.312 169.839 169.97C169.19 170.627 168.492 171.124 167.746 171.465C166.998 171.801 165.991 172.061 164.725 172.238C163.988 172.343 162.609 172.395 160.586 172.395H157.582L155.761 181.146ZM158.375 168.579H159.817C162.283 168.579 163.928 168.423 164.755 168.114C165.58 167.804 166.231 167.307 166.705 166.623C167.178 165.942 167.418 165.19 167.418 164.374C167.418 163.825 167.296 163.375 167.052 163.024C166.81 162.673 166.467 162.418 166.03 162.255C165.591 162.094 164.612 162.015 163.091 162.015H159.742L158.375 168.579ZM176.631 181.146H172.164L176.937 158.199H181.406L179.703 166.385C180.729 165.575 181.689 164.993 182.578 164.637C183.469 164.279 184.422 164.102 185.44 164.102C186.807 164.102 187.887 164.494 188.681 165.282C189.476 166.068 189.875 167.099 189.875 168.373C189.847 169.035 189.693 170.066 189.41 171.463L187.315 181.146H182.848L184.958 171.272C185.181 170.201 185.309 169.509 185.339 169.196C185.339 168.624 185.162 168.17 184.808 167.823C184.452 167.48 183.97 167.307 183.36 167.307C182.586 167.307 181.845 167.57 181.136 168.093C180.213 168.787 179.51 169.635 179.026 170.642C178.766 171.197 178.426 172.504 178.002 174.559L176.631 181.146ZM194.959 164.509H199.426L195.963 181.146H191.497L194.959 164.509ZM196.27 158.199H200.739L199.893 162.27H195.424L196.27 158.199ZM200.225 181.146L205 158.199H209.469L204.692 181.146H200.225ZM212.417 164.509H216.884L213.422 181.146H208.955L212.417 164.509ZM213.728 158.199H218.197L217.351 162.27H212.882L213.728 158.199ZM221.04 164.509H225.301L224.961 166.207C225.865 165.453 226.711 164.913 227.499 164.588C228.288 164.264 229.134 164.102 230.038 164.102C231.771 164.102 233.164 164.701 234.216 165.905C235.27 167.109 235.797 168.905 235.797 171.289C235.797 174.293 234.882 176.829 233.055 178.901C231.484 180.671 229.629 181.553 227.487 181.553C225.282 181.553 223.613 180.667 222.486 178.895L220.727 187.456H216.258L221.04 164.509ZM223.707 174.059C223.707 175.368 224.022 176.386 224.654 177.11C225.286 177.834 226.028 178.194 226.885 178.194C227.624 178.194 228.339 177.924 229.027 177.384C229.717 176.84 230.287 175.943 230.741 174.685C231.193 173.427 231.422 172.262 231.422 171.189C231.422 169.937 231.124 168.978 230.529 168.309C229.935 167.643 229.179 167.307 228.262 167.307C227.405 167.307 226.625 167.613 225.921 168.228C225.218 168.84 224.674 169.745 224.286 170.934C223.9 172.125 223.707 173.166 223.707 174.059ZM240.425 164.509H244.684L244.345 166.207C245.249 165.453 246.095 164.913 246.884 164.588C247.672 164.264 248.519 164.102 249.42 164.102C251.154 164.102 252.546 164.701 253.6 165.905C254.654 167.109 255.181 168.905 255.181 171.289C255.181 174.293 254.267 176.829 252.437 178.901C250.869 180.671 249.013 181.553 246.871 181.553C244.664 181.553 242.998 180.667 241.869 178.895L240.11 187.456H235.643L240.425 164.509ZM243.092 174.059C243.092 175.368 243.407 176.386 244.037 177.11C244.669 177.834 245.412 178.194 246.269 178.194C247.008 178.194 247.724 177.924 248.411 177.384C249.099 176.84 249.671 175.943 250.123 174.685C250.577 173.427 250.804 172.262 250.804 171.189C250.804 169.937 250.507 168.978 249.913 168.309C249.318 167.643 248.561 167.307 247.644 167.307C246.79 167.307 246.01 167.613 245.305 168.228C244.6 168.84 244.056 169.745 243.67 170.934C243.285 172.125 243.092 173.166 243.092 174.059ZM259.914 164.509H264.381L260.919 181.146H256.452L259.914 164.509ZM261.225 158.199H265.696L264.848 162.27H260.379L261.225 158.199ZM268.689 164.509H272.95L272.52 166.705C273.597 165.768 274.604 165.1 275.541 164.701C276.477 164.301 277.464 164.102 278.499 164.102C279.885 164.102 280.978 164.5 281.777 165.297C282.574 166.094 282.975 167.154 282.975 168.47C282.96 169.053 282.769 170.152 282.403 171.773L280.384 181.146H275.915L277.929 171.741C278.223 170.336 278.381 169.492 278.405 169.211C278.405 168.62 278.229 168.155 277.884 167.814C277.537 167.478 277.055 167.307 276.436 167.307C275.763 167.307 275.016 167.585 274.195 168.14C273.372 168.697 272.728 169.43 272.258 170.342C271.911 170.991 271.519 172.318 271.086 174.319L269.698 181.146H265.231L268.689 164.509ZM300.688 174.226H289.5C289.49 174.404 289.483 174.541 289.483 174.636C289.483 175.748 289.796 176.645 290.422 177.324C291.047 178.008 291.808 178.348 292.708 178.348C294.186 178.348 295.338 177.586 296.165 176.058L300.184 176.72C299.405 178.331 298.366 179.54 297.063 180.345C295.76 181.151 294.299 181.553 292.68 181.553C290.458 181.553 288.652 180.844 287.262 179.426C285.869 178.01 285.175 176.133 285.175 173.8C285.175 171.518 285.803 169.49 287.058 167.711C288.768 165.306 291.21 164.102 294.385 164.102C296.407 164.102 298.016 164.731 299.21 165.993C300.403 167.255 300.999 169.02 300.999 171.291C300.999 172.38 300.896 173.359 300.688 174.226ZM296.928 171.48C296.939 171.281 296.943 171.126 296.943 171.024C296.943 169.783 296.669 168.855 296.12 168.236C295.57 167.617 294.835 167.307 293.914 167.307C292.99 167.307 292.163 167.658 291.433 168.363C290.702 169.065 290.207 170.104 289.948 171.48H296.928ZM324.798 176.058H315.723L312.93 181.146H308.06L321.013 158.199H326.324L330.017 181.146H325.548L324.798 176.058ZM324.235 172.243L322.877 163.032L317.819 172.243H324.235ZM336.147 164.509H340.616L337.154 181.146H332.687L336.147 164.509ZM337.46 158.199H341.929L341.081 162.27H336.614L337.46 158.199ZM344.618 164.509H348.825L348.165 167.664C349.738 165.288 351.439 164.102 353.269 164.102C353.916 164.102 354.61 164.262 355.355 164.584L353.626 168.238C353.211 168.093 352.776 168.02 352.309 168.02C351.527 168.02 350.732 168.313 349.924 168.903C349.112 169.49 348.483 170.276 348.028 171.259C347.576 172.243 347.126 173.8 346.681 175.934L345.627 181.146H341.16L344.618 164.509ZM353.708 181.146L358.481 158.199H362.948L358.173 181.146H353.708ZM365.896 164.509H370.365L366.903 181.146H362.434L365.896 164.509ZM367.209 158.199H371.678L370.832 162.27H366.363L367.209 158.199ZM374.673 164.509H378.932L378.502 166.705C379.582 165.768 380.588 165.1 381.525 164.701C382.461 164.301 383.446 164.102 384.483 164.102C385.87 164.102 386.962 164.5 387.761 165.297C388.56 166.094 388.959 167.154 388.959 168.47C388.942 169.053 388.751 170.152 388.387 171.773L386.369 181.146H381.9L383.913 171.741C384.205 170.336 384.366 169.492 384.389 169.211C384.389 168.62 384.213 168.155 383.866 167.814C383.521 167.478 383.037 167.307 382.418 167.307C381.748 167.307 381 167.585 380.179 168.14C379.354 168.697 378.71 169.43 378.243 170.342C377.893 170.991 377.501 172.318 377.066 174.319L375.68 181.146H371.216L374.673 164.509ZM406.67 174.226H395.485C395.47 174.404 395.47 174.541 395.47 174.636C395.47 175.748 395.78 176.645 396.406 177.324C397.031 178.008 397.794 178.348 398.694 178.348C400.17 178.348 401.32 177.586 402.15 176.058L406.169 176.72C405.389 178.331 404.348 179.54 403.047 180.345C401.742 181.151 400.284 181.553 398.662 181.553C396.442 181.553 394.634 180.844 393.246 179.426C391.853 178.01 391.159 176.133 391.159 173.8C391.159 171.518 391.787 169.49 393.04 167.711C394.75 165.306 397.194 164.102 400.371 164.102C402.394 164.102 404.001 164.731 405.192 165.993C406.385 167.255 406.985 169.02 406.985 171.291C406.985 172.38 406.878 173.359 406.67 174.226ZM402.912 171.48C402.921 171.281 402.929 171.126 402.929 171.024C402.929 169.783 402.653 168.855 402.102 168.236C401.554 167.617 400.817 167.307 399.896 167.307C398.975 167.307 398.148 167.658 397.417 168.363C396.686 169.065 396.192 170.104 395.93 171.48H402.912ZM407.621 176.536L411.947 175.855C412.334 176.765 412.814 177.406 413.395 177.783C413.969 178.16 414.758 178.348 415.752 178.348C416.78 178.348 417.605 178.117 418.22 177.654C418.65 177.339 418.864 176.956 418.864 176.502C418.864 176.197 418.757 175.925 418.537 175.683C418.307 175.454 417.686 175.171 416.675 174.837C413.958 173.937 412.281 173.226 411.632 172.701C410.621 171.885 410.115 170.818 410.115 169.5C410.115 168.181 410.608 167.047 411.587 166.094C412.956 164.766 414.985 164.102 417.678 164.102C419.82 164.102 421.438 164.494 422.534 165.278C423.629 166.064 424.323 167.127 424.615 168.466L420.495 169.19C420.272 168.581 419.919 168.123 419.426 167.819C418.753 167.409 417.943 167.204 417.001 167.204C416.054 167.204 415.375 167.362 414.959 167.677C414.545 167.992 414.338 168.352 414.338 168.761C414.338 169.181 414.545 169.526 414.963 169.798C415.225 169.965 416.064 170.259 417.483 170.677C419.674 171.317 421.14 171.943 421.883 172.562C422.924 173.429 423.445 174.475 423.445 175.7C423.445 177.282 422.783 178.651 421.459 179.812C420.131 180.973 418.265 181.553 415.854 181.553C413.453 181.553 411.6 181.114 410.291 180.236C408.982 179.36 408.093 178.128 407.621 176.536Z" fill="#373535"/>
</svg>
