<svg width="480" height="320" viewBox="0 0 480 320" fill="none" xmlns="http://www.w3.org/2000/svg">
<mask id="mask0_730_18686" style="mask-type:luminance" maskUnits="userSpaceOnUse" x="133" y="53" width="214" height="214">
<path d="M133.334 159.998C133.334 218.906 181.093 266.665 239.996 266.665C298.915 266.665 346.667 218.905 346.667 159.998C346.667 101.091 298.915 53.332 239.996 53.332C181.092 53.3328 133.334 101.091 133.334 159.998Z" fill="white"/>
</mask>
<g mask="url(#mask0_730_18686)">
<path d="M346.667 159.998C346.667 218.906 298.915 266.665 239.996 266.665C181.093 266.665 133.334 218.905 133.334 159.998C133.334 101.091 181.093 53.332 239.996 53.332C298.914 53.3328 346.667 101.091 346.667 159.998Z" fill="#E32526"/>
</g>
<mask id="mask1_730_18686" style="mask-type:luminance" maskUnits="userSpaceOnUse" x="133" y="53" width="214" height="214">
<path d="M133.334 159.998C133.334 218.906 181.093 266.665 239.996 266.665C298.915 266.665 346.667 218.905 346.667 159.998C346.667 101.091 298.915 53.332 239.996 53.332C181.092 53.3328 133.334 101.091 133.334 159.998Z" fill="white"/>
</mask>
<g mask="url(#mask1_730_18686)">
<path d="M209.974 138.663C212.386 138.227 214.178 139.693 213.998 141.923C213.818 144.15 211.71 146.326 209.302 146.756C206.905 147.183 205.097 145.717 205.288 143.486C205.472 141.256 207.566 139.105 209.974 138.663ZM184.036 154.653C186.124 146.88 188.651 138.944 191.151 133.017C186.113 139.622 180.714 148.025 175.849 156.415C178.681 155.752 181.435 155.164 184.036 154.653ZM226.946 148.596C228.826 148.254 233.05 150.81 231.03 153.179C228.93 155.616 226.561 155.13 222.843 156.682C220.735 157.556 219.118 159.443 216.81 162.764C213.875 167.07 212.53 171.289 212.289 174.458C212.269 175.399 212.194 175.869 211.696 176.194C206.782 179.403 205.271 176.991 205.395 174.043C205.427 173.347 205.67 172.246 206.104 170.891C202.323 176.561 198.976 179.428 196.787 179.822C193.852 180.352 192.196 178.315 192.512 174.547C192.656 172.833 193.172 170.818 194.132 168.278C195.138 165.7 196.724 162.175 198.192 159.287C198.567 158.534 198.929 157.812 199.233 157.165C196.187 157.76 193.151 158.404 190.125 159.097C190.075 159.219 190.034 159.286 189.988 159.293C188.407 166.678 188.283 169.461 187.431 175.9C187.07 178.716 187.613 181.745 184.26 182.208C180.907 182.694 179.794 179.241 179.774 176.292C179.73 173.29 180.285 169.683 182.407 160.95C178.779 161.872 175.174 162.881 171.596 163.976C171.544 164.058 171.508 164.101 171.508 164.101C165.456 175.179 159.483 188.887 158.495 193.32C157.707 196.874 156.101 197.963 153.738 196.933C151.38 195.899 150.006 193.523 150.864 190.874C152.418 186.119 157.152 175.446 161.369 167.786C161.337 167.799 161.369 167.694 161.468 167.499C158.378 168.7 155.504 169.987 152.993 171.372C151.337 172.263 149.258 171.439 148.859 169.59C148.574 168.278 147.947 165.688 151.155 164.28C156.002 162.162 161.245 160.367 166.482 158.852C177.604 140.14 191.428 120.887 195.403 121.239C197.124 121.388 196.851 123.247 198.369 124.933C199.867 126.611 200.085 127.638 198.292 132.087C194.617 141.217 194.909 139.091 191.382 153.335C197.85 152.262 203.481 151.644 204.008 151.562C205.794 151.308 208.866 152.524 207.242 156.011C207.242 156.011 205.54 159.009 204.868 160.292C203.655 162.416 202.08 165.608 201.129 167.765C200.525 169.037 200.251 170.009 200.201 170.721C200.152 171.184 200.326 171.446 200.699 171.379C201.195 171.289 201.921 170.755 202.796 169.848C203.647 168.853 206.521 166.495 211.658 157.841L213.014 155.036C213.451 154.201 214.077 152.728 214.196 152.052C214.338 151.047 214.376 150.786 215.216 150.257C216.572 149.392 219.023 148.676 220.437 149.599C221.769 150.48 221.424 152.075 220.318 154.009C224.795 148.968 225.946 148.761 226.946 148.596ZM314.547 163.169C317.065 160.074 320.959 152.972 321.203 151.033C321.314 150.143 321.058 149.791 320.359 149.882C319.494 149.996 317.552 151.582 315.705 153.845C312.998 157.092 309.354 163.643 309.068 165.802C308.949 166.684 309.309 167.264 309.931 167.19C310.932 167.052 312.663 165.55 314.547 163.169ZM329.631 158.045C330.725 156.308 333.04 156.876 332.421 158.473C331.886 159.855 330.875 162.099 328.299 165.143C325.132 169.037 322.215 170.926 319.578 171.276C317.452 171.575 315.946 170.665 315.578 168.76L315.454 168.373C315.448 168.037 315.279 167.87 315.095 167.901C314.9 167.922 314.759 168.067 314.403 168.402C311.729 171.236 309.684 172.978 307.212 173.317C303.52 173.799 301.371 170.917 301.895 166.735C300.907 168.197 299.886 169.603 298.947 170.639C296.062 173.844 293.697 175.88 291.502 176.167C288.541 176.563 286.991 174.453 287.49 170.713C287.713 169.01 288.348 167.026 289.431 164.508C290.557 161.998 292.303 158.546 293.916 155.731C295.204 153.424 296.447 150.815 296.641 149.926C296.789 149.226 296.866 149.09 297.413 148.734C298.101 148.246 299.458 147.667 300.286 147.601C302.376 147.444 305.149 148.955 303.314 152.088L302.623 153.28C302.523 153.525 301.268 155.793 300.547 157.03C299.215 159.115 297.511 162.222 296.441 164.325C295.776 165.577 295.454 166.535 295.367 167.232C295.294 167.699 295.454 167.977 295.819 167.922C296.33 167.859 297.083 167.357 297.997 166.474C298.935 165.493 299.508 164.842 301.599 162.076L302.357 161.118C302.96 160.331 307.724 154.101 309.157 152.559C313 147.973 317.34 144.723 320.127 144.363C321.958 144.111 323.435 144.946 324.147 146.638C324.65 148.018 324.749 148.113 325.974 148.642C327.933 149.419 328.575 150.077 328.424 151.075C328.352 151.787 328.085 152.339 326.839 154.296C325.957 155.805 325.113 157.336 324.308 158.888C322.852 161.77 322.055 163.731 323.467 164.231C324.002 164.416 324.99 163.907 326.225 162.6C327.59 161.153 328.557 159.72 329.631 158.045ZM304.388 143.587C306.792 143.159 308.892 140.992 309.082 138.756C309.255 136.524 307.455 135.071 305.063 135.502C302.654 135.934 300.545 138.098 300.37 140.338C300.178 142.564 301.989 144.019 304.388 143.587ZM267.833 133.013C262.831 139.583 257.457 147.95 252.587 156.306C255.29 155.689 258.005 155.123 260.729 154.608C262.832 146.862 265.338 138.931 267.833 133.013ZM269.09 153.207C270.526 152.995 275.198 152.441 275.019 154.401C274.744 157.559 273.554 157.512 269.376 158.408C268.539 158.595 267.702 158.776 266.863 158.953C266.799 159.165 266.731 159.288 266.683 159.296C265.108 166.68 264.984 169.472 264.12 175.902C263.748 178.718 264.299 181.747 260.947 182.21C257.595 182.696 256.438 179.241 256.457 176.295C256.469 171.08 259.1 160.857 259.113 160.797C255.703 161.666 252.046 162.654 248.407 163.79C244.072 171.152 236.172 188.889 235.194 193.322C234.399 196.876 232.795 197.965 230.426 196.924C228.068 195.901 226.75 193.546 227.559 190.876C229.759 183.538 238.077 167.644 238.208 167.357C235.123 168.597 232.246 169.927 229.767 171.342C228.231 172.215 226.271 171.382 225.854 169.54C225.579 168.215 224.969 165.635 227.969 164.263C232.782 162.07 238.014 160.235 243.24 158.728C254.344 140.051 268.115 120.889 272.083 121.243C273.812 121.389 273.543 123.25 275.055 124.934C276.559 126.608 276.771 127.64 274.968 132.088C271.309 141.226 271.61 139.092 268.07 153.361C268.419 153.313 268.749 153.257 269.09 153.207ZM274.394 179.091C277.138 178.81 285.156 177.052 285.236 168.249C285.255 164.842 281.998 163.045 281.206 160.67C280.696 159.202 280.819 156.174 283.134 155.264C285.995 154.137 286.587 156.018 287.575 157.423C287.986 158 289.296 157.863 289.744 157.394C290.369 156.745 291.281 155.774 291.674 154.126C292.022 152.615 290.418 150.076 285.758 150.233C284.13 150.269 281.826 150.547 278.562 153.659C277.057 155.091 272.266 161.644 275.813 167.27C276.77 168.797 279.072 170.664 277.591 172.099C275.282 174.324 271.316 170.877 270.562 169.836C270.222 169.357 269.238 168.797 268.591 169.746C268.217 170.29 266.438 173.462 266.713 174.635C267.514 178.295 272.237 179.307 274.394 179.091Z" fill="white"/>
</g>
</svg>
