<svg width="480" height="320" viewBox="0 0 480 320" fill="none" xmlns="http://www.w3.org/2000/svg">
<path d="M151.345 235.698H139.165L117.499 266.668H129.679L151.345 235.698ZM164.495 262.483H151.237L157.704 253.275H170.963L173.873 249.09H160.615L167.082 239.883H180.34L183.25 235.698H157.812L136.147 266.668H161.585L164.495 262.483ZM400.768 235.698H371.341L368.431 239.988H375.976L357.221 266.668H369.401L388.156 239.883H397.857L400.768 235.698ZM124.505 235.698H100.9L79.2344 266.668H91.4144L98.5285 256.624H113.188C113.188 256.624 117.068 256.728 118.9 254.112L128.494 240.407C128.494 240.407 131.727 235.698 124.505 235.698ZM119.547 241.139L112.218 251.497C111.571 252.439 109.954 252.439 109.954 252.439H101.439L110.17 239.988H118.793C120.41 239.883 119.547 241.139 119.547 241.139ZM215.156 235.698H190.796L169.13 266.668H196.832C196.832 266.668 200.712 266.668 202.545 264.157L219.252 240.407C219.144 240.407 222.377 235.698 215.156 235.698ZM210.197 241.139L195.754 261.541C195.107 262.483 193.49 262.483 193.49 262.483H184.113L199.958 239.988H209.443C211.167 239.883 210.197 241.139 210.197 241.139ZM276.487 266.668C269.266 266.668 272.499 261.959 272.499 261.959L289.206 238.209C291.039 235.594 294.919 235.698 294.919 235.698H318.309C325.531 235.698 322.298 240.407 322.298 240.407L305.591 264.157C303.758 266.772 299.877 266.668 299.877 266.668H276.487ZM293.302 262.483C293.302 262.483 294.919 262.483 295.566 261.541L310.01 241.034C310.01 241.034 310.98 239.883 309.255 239.883H301.494C301.494 239.883 299.877 239.883 299.231 240.825L284.787 261.332C284.787 261.332 283.925 262.483 285.542 262.483H293.302ZM250.726 266.668H262.906L281.122 240.302C281.122 240.302 284.356 235.594 277.134 235.594H229.06L207.395 266.563H219.575L238.33 239.779H246.091C246.953 239.779 247.169 240.093 247.061 240.407L228.737 266.563H240.917L259.673 239.779H267.972C269.265 239.779 268.942 240.511 268.726 240.825L250.726 266.668ZM333.076 266.668H345.256L363.473 240.302C363.473 240.302 366.707 235.594 359.485 235.594H332.322L310.656 266.563H322.836H310.656H322.836L341.592 239.779H350.323C351.616 239.779 351.293 240.511 351.185 240.825L333.076 266.668Z" fill="#CF3828"/>
<path d="M231.861 177.837L350.968 53.332L349.566 73.9435L247.06 182.545C245.227 184.324 246.521 185.475 246.521 185.475C248.245 186.626 249.539 184.428 249.539 184.428L349.135 79.2794L347.734 99.0538L269.372 182.441C267.54 184.22 268.833 185.37 268.833 185.37C270.558 186.521 271.851 184.324 271.851 184.324L347.303 104.494L345.686 127.093L292.115 182.755C290.391 184.219 290.93 185.475 290.93 185.475C291.576 187.254 294.163 186.73 294.163 186.73H360.777C312.919 220.943 144.984 203.052 144.984 203.052C138.948 202.634 142.397 199.39 142.397 199.39L149.403 192.694C153.499 189.242 159.536 189.451 159.536 189.451C179.584 187.463 209.98 186.94 209.98 186.94C224.747 187.149 231.861 177.837 231.861 177.837Z" fill="#1C68A7"/>
</svg>
