<svg width="480" height="320" viewBox="0 0 480 320" fill="none" xmlns="http://www.w3.org/2000/svg">
<mask id="mask0_730_18208" style="mask-type:luminance" maskUnits="userSpaceOnUse" x="55" y="78" width="370" height="164">
<path d="M55.3848 78.0703H424.616V241.931H55.3848V78.0703Z" fill="white"/>
</mask>
<g mask="url(#mask0_730_18208)">
<path d="M300.988 103.04L277.984 78.0703L212.164 150.595L278.045 150.559L300.988 103.04Z" fill="#FF0000"/>
</g>
<mask id="mask1_730_18208" style="mask-type:luminance" maskUnits="userSpaceOnUse" x="55" y="78" width="370" height="164">
<path d="M55.3848 78.0703H424.616V241.931H55.3848V78.0703Z" fill="white"/>
</mask>
<g mask="url(#mask1_730_18208)">
<path d="M283.6 150.56L304.198 106.523L344.829 150.729L283.6 150.56Z" fill="#0047FF"/>
</g>
<mask id="mask2_730_18208" style="mask-type:luminance" maskUnits="userSpaceOnUse" x="55" y="78" width="370" height="164">
<path d="M55.3848 78.0703H424.616V241.931H55.3848V78.0703Z" fill="white"/>
</mask>
<g mask="url(#mask2_730_18208)">
<path d="M71.7964 143.129H123.697C145.644 143.129 148.161 156.216 145.955 166.603C142.462 183.04 131.739 192.783 114.766 192.783H82.2234L76.3563 220.403H55.3848L71.7964 143.129ZM85.2106 178.715H107.704C114.189 178.715 121.802 178.495 124.008 168.119C126.143 158.055 120.163 157.182 114.219 157.182H89.7858L85.2106 178.715ZM156.694 162.385H175.72L163.398 220.403H144.367L156.694 162.385ZM161.054 141.832H180.085L177.236 155.246H158.2L161.054 141.832ZM188.475 162.385H206.863L205.193 170.279H205.408C214.303 162.497 221.028 160.868 229.029 160.868C247.861 160.868 260.51 171.03 256.19 191.373C252.191 210.226 235.499 222.568 217.224 222.568C206.521 222.568 199.362 219.1 196.788 213.907H196.574L190.615 241.931H171.584L188.475 162.385ZM214.916 208.49C224.536 208.49 234.085 202.75 236.428 191.695C238.777 180.665 231.659 174.931 222.044 174.931C212.531 174.931 202.982 180.665 200.643 191.695C198.289 202.75 205.402 208.49 214.916 208.49ZM334.913 203.077C326.483 216.833 312.068 222.568 294.66 222.568C271.743 222.568 258.36 213.259 263.007 191.373C267.643 169.523 284.974 160.21 307.901 160.21C332.988 160.21 342.404 172.868 337.763 194.728L337.395 196.464H281.604L281.558 196.684C280.383 202.214 284.213 210.66 297.193 210.66C304.868 210.66 310.827 208.056 314.58 203.077H334.913ZM320.11 185.21L320.151 184.985C320.82 181.86 318.89 172.117 304.939 172.117C289.912 172.117 284.341 183.581 284.044 184.985L283.993 185.21H320.11ZM354.154 162.385H372.531L370.121 173.736H370.336C379.144 164.872 385.399 160.868 396.204 160.868C398.374 160.868 400.943 160.976 403.011 161.404L399.222 179.256C395.964 178.281 392.671 177.52 389.101 177.52C376.126 177.52 368.564 184.117 366.174 195.382L360.864 220.403H341.827L354.154 162.385ZM416.895 150.896C421.087 150.896 424.616 154.205 424.616 158.555C424.616 162.982 421.092 166.301 416.895 166.301C412.677 166.301 409.133 162.987 409.133 158.555C409.133 154.205 412.677 150.896 416.895 150.896ZM416.895 165.163C420.454 165.163 423.211 162.318 423.211 158.555C423.211 154.868 420.454 152.029 416.895 152.029C413.29 152.029 410.532 154.873 410.532 158.555C410.532 162.318 413.29 165.163 416.895 165.163ZM413.892 154.087H417.365C419.509 154.087 420.52 154.93 420.52 156.661C420.52 158.29 419.484 158.969 418.151 159.107L420.725 163.084H419.223L416.772 159.209H415.291V163.084H413.892V154.087ZM415.286 158.08H416.747C417.977 158.08 419.116 158.019 419.116 156.599C419.116 155.405 418.085 155.216 417.14 155.216H415.286V158.08Z" fill="black"/>
</g>
</svg>
