<svg width="480" height="320" viewBox="0 0 480 320" fill="none" xmlns="http://www.w3.org/2000/svg">
<path d="M105.171 112.946C103.304 112.851 101.418 112.86 99.5758 112.992C94.2043 113.332 88.0961 114.833 83.3844 116.992C81.8593 117.686 81.4268 117.896 81.3838 117.964C81.3585 118.011 80.7244 120.089 79.9705 122.603C77.2889 131.561 77.4826 130.851 77.6371 130.851C77.6886 130.851 78.2099 130.455 78.8183 129.974C83.8814 125.961 90.0163 123.244 96.416 122.168C97.1268 122.051 97.7858 121.956 97.8798 121.956C97.9828 121.956 98.9337 121.494 99.9961 120.918C101.058 120.343 104.334 118.584 107.273 117C110.939 115.028 112.603 114.088 112.585 114.004C112.551 113.866 112.411 113.833 110.673 113.546C108.851 113.25 107.015 113.055 105.172 112.964L105.171 112.946ZM117.413 115.17C117.335 115.17 114.638 116.587 111.426 118.314C105.464 121.531 105.077 121.768 105.874 121.768C106.457 121.768 108.909 122.121 110.332 122.408C115.857 123.517 121.389 125.983 125.878 129.344L126.726 129.986L134.321 132.231C138.494 133.467 142.053 134.503 142.207 134.529C142.464 134.576 142.497 134.576 142.497 134.397C142.497 134.081 140.638 131.525 138.967 129.544C137.802 128.163 134.506 124.905 133.118 123.771C129.101 120.477 125.002 118.039 120.522 116.252C119.314 115.77 117.584 115.17 117.413 115.17V115.17ZM77.1728 120.442C77.0746 120.39 76.7942 120.545 76.1002 121.017C67.6882 126.723 61.3989 134.871 57.9812 144.514L57.8361 144.933L60.3871 149.632C61.792 152.213 63.1262 154.684 63.3658 155.125C63.6059 155.563 63.8745 156.036 63.9602 156.163C64.1918 156.493 64.3664 156.465 64.3664 156.116C64.3664 155.97 64.446 155.309 64.54 154.658C65.1568 150.493 66.3025 146.819 68.1786 143.06C69.3182 140.774 70.3908 139.027 71.9328 136.97L72.6287 136.057L74.9265 128.377C76.1854 124.16 77.2164 120.641 77.2164 120.557C77.2164 120.496 77.2061 120.458 77.1728 120.439V120.442ZM102.141 130.25C85.3106 130.25 71.6646 143.792 71.6646 160.5C71.6646 177.208 85.3111 190.757 102.141 190.757C118.972 190.757 132.618 177.208 132.618 160.5C132.618 143.792 118.972 130.25 102.141 130.25ZM132.184 134.896C132.106 134.896 132.046 134.943 132.046 134.976C132.046 135.028 132.406 135.508 132.843 136.059C135.679 139.572 137.946 143.733 139.402 148.076C140.173 150.387 140.792 153.089 141.084 155.484L141.221 156.64L143.135 160.138C144.18 162.06 145.865 165.153 146.867 167.015C148.521 170.047 148.834 170.559 148.962 170.433C149.125 170.282 149.764 166.318 149.969 164.269C150.149 162.466 150.115 156.876 149.925 155.123C149.351 150.035 148.223 145.722 146.287 141.243C145.55 139.532 145.212 138.861 145.041 138.717C144.912 138.609 132.423 134.895 132.183 134.895L132.184 134.896ZM86.6819 143.527H111.68C113.779 143.701 115.356 144.125 117.057 144.948C119.207 145.99 120.689 147.403 121.747 149.41C122.534 150.915 122.933 152.366 123.001 154.072C123.145 157.374 121.905 160.311 119.493 162.437C117.918 163.823 115.955 164.708 113.339 165.221C107.658 165.579 105.546 165.442 98.3076 165.471L98.4161 176.972C98.5771 177.283 99.0245 177.547 99.5323 177.605C100.04 177.671 100.191 177.789 100.149 178.084L100.17 178.23H86.7324C86.665 178.179 86.6215 178.032 86.6388 177.914C86.6641 177.721 86.7151 177.693 87.0881 177.641C87.6637 177.557 88.2037 177.335 88.3563 177.126L88.4864 144.777L88.2328 144.541C87.996 144.325 87.3937 144.122 86.979 144.122C86.887 144.116 86.7988 144.083 86.7254 144.027C86.6154 143.919 86.5887 143.603 86.6819 143.512V143.527ZM56.6399 149.536C56.5931 149.531 56.5571 149.582 56.5314 149.639C56.4031 150.011 55.9277 152.71 55.7559 154.064C55.4475 156.511 55.3408 158.584 55.4007 161.141C55.5294 166.5 56.3685 171.093 58.1333 176.037C58.6303 177.434 59.862 180.349 60.0249 180.492C60.1105 180.568 71.5739 184.007 72.4476 184.218C72.8075 184.303 72.7443 184.11 72.1359 183.313C70.6711 181.399 69.5704 179.637 68.4393 177.436C66.2631 173.212 65.001 169.096 64.4099 164.329L64.2719 163.24L61.2786 157.724C60.0345 155.438 58.788 153.153 57.5389 150.869C57.0377 149.943 56.7822 149.551 56.6404 149.537L56.6399 149.536ZM98.3076 150.757V158.593L104.345 158.541C109.83 158.494 110.42 158.494 110.962 158.371C113.129 157.808 113.999 156.693 113.999 154.491C114.007 153.238 113.853 152.775 113.252 152.12C112.693 151.532 112.192 151.237 111.252 150.992C110.558 150.813 110.41 150.809 104.424 150.78H98.3076V150.757ZM223.621 151.987V152.223C223.621 152.407 223.678 152.506 223.817 152.577L224.012 152.666L219.613 164.617C219.45 164.711 219.389 164.82 219.389 164.994V165.23L223.585 165.183L223.606 164.938C223.623 164.782 223.601 164.702 223.52 164.702C223.201 164.702 223.212 164.485 223.57 163.429L223.911 162.39L229.151 162.437C229.305 162.654 229.911 164.529 229.854 164.616C229.829 164.668 229.752 164.711 229.687 164.711C229.614 164.711 229.571 164.805 229.571 164.97V165.234H234.217V164.984C234.217 164.81 234.17 164.701 234.065 164.668L229.615 152.512C229.615 152.512 229.738 152.422 229.738 152.248V151.988H223.622L223.621 151.987ZM353.501 152.053V152.299C353.501 152.482 353.558 152.581 353.696 152.652L353.892 152.746L349.493 164.689C349.33 164.784 349.268 164.897 349.268 165.071V165.307L353.464 165.255L353.486 165.01C353.502 164.855 353.48 164.775 353.399 164.775C353.081 164.775 353.091 164.558 353.45 163.501L353.791 162.462L359.031 162.514C359.185 162.73 359.798 164.606 359.741 164.693C359.717 164.745 359.632 164.783 359.567 164.783C359.493 164.783 359.451 164.882 359.451 165.047V165.306H364.097V165.056C364.097 164.882 364.05 164.778 363.944 164.74L359.495 152.576C359.495 152.576 359.618 152.486 359.618 152.312V152.053H353.501L353.501 152.053ZM240.537 152.129L240.516 152.336C240.494 152.534 241.006 152.912 241.161 152.955L241.168 164.552L240.987 164.684C240.889 164.764 240.742 164.826 240.661 164.826C240.555 164.826 240.516 164.896 240.516 165.085V165.344H245.401V165.099C245.401 164.896 245.354 164.835 245.119 164.736C244.939 164.675 244.817 164.552 244.792 164.444V160.416H246.778C246.778 160.416 249.557 164.665 249.569 164.672L249.322 164.776C249.126 164.856 249.068 164.927 249.068 165.115V165.36H254.011L254.026 165.101C254.042 164.927 253.983 164.851 253.78 164.748L250.779 160.448C250.779 160.448 250.938 160.363 251.134 160.302C252.299 159.934 253.336 158.959 253.678 157.93C254.02 156.875 253.982 155.141 253.591 154.226C253.347 153.642 252.734 152.992 252.164 152.695C251.193 152.189 251.022 152.179 245.546 152.135H240.538L240.537 152.129ZM301.846 152.129L301.824 152.336C301.803 152.534 302.315 152.912 302.469 152.955L302.477 164.552L302.296 164.684C302.198 164.764 302.051 164.826 301.969 164.826C301.864 164.826 301.824 164.896 301.824 165.085V165.344H306.717V165.099C306.717 164.896 306.663 164.83 306.427 164.736C306.248 164.675 306.125 164.552 306.101 164.444V160.416H308.087C308.087 160.416 310.866 164.657 310.877 164.665L310.631 164.778C310.435 164.857 310.377 164.929 310.377 165.117V165.362H315.32L315.334 165.103C315.351 164.929 315.292 164.853 315.088 164.749L312.087 160.442C312.087 160.442 312.247 160.371 312.443 160.31C313.608 159.942 314.652 158.967 314.994 157.939C315.336 156.883 315.291 155.143 314.9 154.227C314.655 153.643 314.05 152.993 313.479 152.695C312.509 152.19 312.337 152.18 306.862 152.136H301.846L301.846 152.129ZM273.471 152.129V152.374C273.471 152.557 273.529 152.647 273.667 152.718L273.862 152.812L269.463 164.755C269.3 164.85 269.231 164.963 269.231 165.137V165.373L273.427 165.326L273.456 165.077C273.472 164.921 273.443 164.841 273.362 164.841C273.044 164.841 273.054 164.629 273.413 163.574L273.753 162.536L279.001 162.583C279.155 162.799 279.761 164.675 279.704 164.762C279.679 164.814 279.595 164.857 279.53 164.857C279.457 164.857 279.421 164.951 279.421 165.116V165.38H284.06V165.121C284.06 164.946 284.013 164.847 283.907 164.809L279.457 152.637C279.457 152.637 279.581 152.547 279.581 152.373V152.114H273.471L273.471 152.129ZM397.98 152.233C396.747 152.233 396.032 152.236 395.61 152.322C393.034 152.813 391.171 154.083 390.276 155.974C389.896 156.788 389.747 157.559 389.747 158.773C389.747 160.655 390.139 161.74 391.254 162.911C392.302 164.013 393.276 164.573 394.813 164.981C395.497 165.169 395.857 165.207 397.234 165.239C398.931 165.291 400.005 165.193 401.365 164.924C402.395 164.712 403.835 164.224 404.612 163.834C405.338 163.471 405.446 163.268 405.083 162.928L404.866 162.73V160.728C404.866 158.726 404.903 158.393 405.156 158.393C405.24 158.393 405.286 158.304 405.286 158.134V157.884H398.103L397.973 157.673C397.889 157.545 397.75 157.46 397.632 157.46H397.429V161.024H397.64C397.792 161.024 397.879 160.963 397.93 160.816C397.972 160.708 398.071 160.6 398.147 160.567C398.223 160.52 398.891 160.515 399.626 160.515C400.664 160.515 400.977 160.562 401.053 160.633C401.112 160.708 401.15 160.977 401.133 161.332C401.108 161.85 401.088 161.924 400.894 162.017C400.522 162.197 399.148 162.385 398.219 162.385C396.159 162.385 394.517 161.604 393.842 160.264C393.479 159.526 393.362 158.898 393.472 158.202C393.759 156.311 395.408 155.081 397.654 155.073C398.583 155.073 399.514 155.205 400.452 155.478C401.474 155.775 401.81 155.955 401.894 156.295C401.944 156.484 402.021 156.578 402.148 156.597C402.316 156.644 402.423 156.446 403.09 155.05C403.512 154.185 403.851 153.411 403.851 153.334C403.851 153.216 403.793 153.202 403.481 153.244C403.194 153.292 402.968 153.242 402.445 153.037C402.073 152.891 401.328 152.665 400.771 152.522C399.824 152.286 399.627 152.258 397.98 152.234V152.233ZM188.694 152.279C187.765 152.279 187.203 152.341 186.629 152.459C184.847 152.841 183.276 153.769 182.439 154.948C181.561 156.195 181.28 157.137 181.28 158.851C181.28 160.597 181.552 161.507 182.439 162.694C183.276 163.805 184.7 164.712 186.237 165.102C186.913 165.272 187.195 165.3 188.773 165.295C190.683 165.295 191.145 165.216 192.362 164.713C194.093 164.017 195.408 162.644 195.957 160.965C196.193 160.244 196.203 160.135 196.203 158.726C196.203 157.285 196.195 157.22 195.942 156.525C195.613 155.584 195.216 154.999 194.405 154.228C192.927 152.819 191.321 152.274 188.694 152.291V152.279ZM339.143 152.279C337.791 152.279 337.066 152.283 336.635 152.369C335.368 152.614 334.158 153.104 333.178 153.783C332.08 154.545 331.328 155.543 330.88 156.824C330.678 157.417 330.664 157.573 330.656 158.82C330.656 160.092 330.675 160.218 330.895 160.837C331.199 161.711 331.602 162.34 332.337 163.061C333.443 164.163 334.87 164.868 336.635 165.182C337.311 165.299 337.758 165.328 339.041 165.285C340.891 165.234 341.686 165.083 343.535 164.468C344.447 164.162 344.802 164.077 344.912 164.138C345.005 164.185 345.164 164.204 345.282 164.19C345.442 164.143 345.488 164.096 345.463 163.955C345.395 163.634 343.107 160.162 342.955 160.162C342.702 160.162 342.588 160.304 342.622 160.591C342.647 160.836 342.606 160.897 342.361 161.07C341.964 161.343 340.703 161.732 339.665 161.901C338.939 162.029 338.694 162.029 338.128 161.953C336.448 161.708 335.323 161.043 334.816 160.009C334.571 159.517 334.54 159.367 334.54 158.764C334.54 158.197 334.578 158.007 334.78 157.608C335.194 156.743 336.058 156.139 337.367 155.782C338.533 155.462 340.692 155.65 341.933 156.188C342.423 156.4 342.524 156.513 342.6 156.887C342.643 157.066 342.706 157.165 342.825 157.179C342.951 157.179 343.064 157.066 343.317 156.583C343.503 156.244 343.966 155.38 344.354 154.668C344.734 153.965 345.057 153.303 345.057 153.21C345.057 153.022 344.817 152.984 344.564 153.116C344.471 153.168 344.163 153.116 343.622 152.946C342.009 152.454 341.204 152.346 339.143 152.313V152.266V152.279ZM417.107 152.279C416.178 152.279 415.608 152.341 415.034 152.459C413.252 152.841 411.681 153.769 410.845 154.948C409.967 156.195 409.692 157.137 409.692 158.851C409.692 160.597 409.958 161.507 410.845 162.694C411.681 163.805 413.113 164.712 414.65 165.102C415.326 165.272 415.6 165.295 417.179 165.286C419.088 165.286 419.558 165.206 420.774 164.704C422.506 164.009 423.82 162.635 424.369 160.955C424.606 160.235 424.616 160.125 424.616 158.718C424.616 157.276 424.608 157.211 424.355 156.516C424.025 155.574 423.629 154.99 422.818 154.218C421.34 152.81 419.733 152.264 417.107 152.281V152.279ZM289.989 152.397V152.666C289.989 152.855 290.06 152.935 290.271 153.033L290.539 153.161V164.685L290.271 164.775C290.043 164.836 289.989 164.888 289.989 165.091L290.003 165.317L295.018 165.265L295.04 165.044C295.065 164.855 294.741 164.733 294.547 164.685V153.014C294.654 152.964 294.77 152.937 294.888 152.934C295.032 152.934 295.066 152.887 295.04 152.698L295.018 152.462L289.989 152.416V152.397ZM164.211 152.491V152.751C164.211 152.93 164.25 153.015 164.334 153.015C164.411 153.015 164.565 153.109 164.675 153.227L164.719 164.715C164.626 164.809 164.471 164.884 164.378 164.884C164.244 164.884 164.212 164.95 164.212 165.143V165.393H169.257L169.264 165.129C169.289 164.941 169.243 164.898 169.032 164.851C168.897 164.805 168.735 164.748 168.684 164.691L168.698 160.722H171.308C173.444 160.676 174.063 160.647 174.461 160.529C175.626 160.199 176.529 159.469 177.019 158.461C177.323 157.841 177.34 157.775 177.374 156.825C177.391 156.079 177.368 155.711 177.258 155.337C176.903 154.091 175.864 153.118 174.453 152.702C174.023 152.575 173.355 152.556 169.09 152.523L164.212 152.471L164.211 152.491ZM370.982 152.491L370.961 152.685C370.938 152.878 371.467 153.246 371.627 153.289L371.635 164.57L371.447 164.697C371.345 164.773 371.198 164.838 371.113 164.838C371.004 164.838 370.961 164.9 370.961 165.088V165.347H376.027V165.102C376.027 164.909 375.975 164.853 375.73 164.758C375.544 164.697 375.415 164.58 375.389 164.471V160.553H377.448C377.448 160.553 380.328 164.678 380.34 164.684L380.086 164.793C379.883 164.868 379.825 164.934 379.825 165.118V165.363H384.949L384.964 165.104C384.98 164.934 384.92 164.868 384.71 164.764L381.601 160.575C381.601 160.575 381.76 160.504 381.963 160.443C383.171 160.084 384.254 159.139 384.608 158.138C384.963 157.112 384.92 155.42 384.514 154.53C384.261 153.961 383.627 153.324 383.035 153.036C382.031 152.543 381.855 152.54 376.179 152.498H370.983L370.982 152.491ZM202.421 152.539V152.789C202.421 152.958 202.468 153.048 202.552 153.048C202.628 153.048 202.776 153.142 202.885 153.26L203.103 153.458L202.929 164.747C202.836 164.841 202.688 164.916 202.595 164.916C202.46 164.916 202.421 164.982 202.421 165.176V165.425L214.982 165.491C215.032 165.538 215.119 165.666 215.17 165.793C215.238 165.953 215.314 166.024 215.474 166.024H215.685V161.613H215.482C215.33 161.613 215.147 162.042 215.105 162.21H206.907L206.857 153.152L207.183 153.077C207.453 153.01 207.495 152.973 207.495 152.761V152.516H202.421V152.539ZM246.988 155.087H246.995C248.963 155.134 249.139 155.138 249.496 155.308C249.976 155.544 250.266 156.079 250.177 156.568C250.12 156.926 249.713 157.355 249.322 157.503C248.903 157.559 244.806 157.503 244.806 157.503V155.131L246.988 155.084L246.988 155.087ZM308.304 155.087C310.282 155.134 310.446 155.138 310.804 155.308C311.284 155.544 311.575 156.079 311.486 156.568C311.428 156.926 311.021 157.354 310.63 157.503C310.212 157.559 306.115 157.503 306.115 157.503V155.131L308.304 155.084V155.087ZM226.31 155.191L228.433 160.176L224.643 160.223L226.31 155.216V155.191ZM356.189 155.256L358.313 160.249L354.522 160.297L356.189 155.282V155.256ZM188.708 155.337C188.943 155.337 189.18 155.388 189.535 155.455C190.244 155.605 191.01 155.967 191.492 156.382C191.922 156.755 192.42 157.708 192.521 158.378C192.715 159.599 192.106 160.891 190.999 161.603C189.082 162.85 186.18 162.13 185.302 160.204C184.348 158.118 185.518 155.971 187.882 155.462C188.237 155.382 188.474 155.335 188.708 155.335V155.337ZM276.16 155.337L278.276 160.329L274.486 160.377L276.16 155.362V155.337ZM377.672 155.337C379.724 155.384 379.895 155.384 380.267 155.549C380.765 155.779 381.07 156.303 380.977 156.778C380.918 157.126 380.491 157.54 380.085 157.684C379.651 157.74 375.404 157.684 375.404 157.684L375.411 155.379L377.672 155.332L377.672 155.337ZM417.121 155.337C417.356 155.337 417.585 155.388 417.94 155.455C418.65 155.605 419.416 155.967 419.897 156.382C420.328 156.755 420.832 157.708 420.934 158.378C421.128 159.599 420.518 160.891 419.412 161.603C417.495 162.85 414.586 162.13 413.708 160.204C412.753 158.118 413.931 155.971 416.295 155.462C416.65 155.382 416.887 155.335 417.121 155.335V155.337ZM168.683 155.412H170.742C172.65 155.459 172.808 155.413 173.213 155.61C173.526 155.756 173.677 155.874 173.778 156.097C174.091 156.75 173.856 157.459 173.206 157.79C172.902 157.936 173.047 157.95 171.256 157.973H168.683V155.411V155.412ZM141.344 163.49C141.276 163.49 141.204 163.622 141.178 163.801C141.142 164.063 141.111 164.326 141.084 164.589C140.989 165.427 140.611 167.58 140.388 168.528C139.051 174.302 136.269 179.91 132.517 184.397C132.131 184.854 131.935 185.184 131.806 185.582C131.533 186.412 127.59 199.65 127.53 199.912C127.496 200.072 127.52 200.147 127.589 200.147C127.82 200.147 130.427 198.368 132.046 197.107C135.139 194.701 138.2 191.6 140.598 188.424C142.654 185.715 144.313 182.964 145.701 180.001C146.626 178.036 147.636 175.436 147.636 175.038C147.636 174.877 146.808 173.306 143.664 167.548C143.188 166.682 142.717 165.813 142.251 164.942C141.814 164.146 141.404 163.491 141.344 163.491V163.49ZM62.5544 184.565C62.4687 184.565 62.4023 184.631 62.4023 184.707C62.4023 184.782 62.7317 185.348 63.1342 185.958C67.5033 192.503 73.5188 197.974 80.4492 201.665C82.4793 202.757 86.132 204.333 86.8344 204.434C87.0824 204.48 87.878 204.061 92.7264 201.437C95.8104 199.769 98.3483 198.353 98.3656 198.285C98.3824 198.182 98.1035 198.116 97.0754 197.96C90.2732 196.952 83.4574 193.914 78.1804 189.529L77.47 188.947L70.0847 186.753C66.024 185.55 62.6316 184.566 62.5544 184.566V184.565ZM127.023 190.014C126.905 189.967 126.588 190.155 125.965 190.633C122.864 193.029 118.836 195.134 114.912 196.42C111.983 197.386 108.866 198.041 106.005 198.269L105.106 198.344L103.221 199.353C102.185 199.912 99.1481 201.552 96.4665 202.991C93.0568 204.828 91.6079 205.644 91.6252 205.738C91.6851 206.035 95.6742 206.724 98.9379 207.011C100.488 207.148 105.021 207.148 106.563 207.011C111.454 206.587 115.803 205.583 120.138 203.889C120.96 203.559 122.04 203.109 122.537 202.88L123.435 202.461L124.798 197.895C125.543 195.389 126.369 192.644 126.617 191.806C126.874 190.968 127.081 190.218 127.081 190.141C127.081 190.075 127.062 190.033 127.023 190.014Z" fill="#003D80"/>
</svg>
