<svg width="480" height="320" viewBox="0 0 480 320" fill="none" xmlns="http://www.w3.org/2000/svg">
<path d="M55.3848 125.245C55.3848 123.349 55.9866 118.65 62.1196 118.65C62.7214 118.65 64.1894 118.65 65.6566 119.378C69.0055 120.989 69.0055 123.789 69.0055 128.18C74.875 121.143 82.2125 117.921 91.6189 117.921C110.395 117.921 124.317 132.282 124.317 157.364C124.317 175.542 116.377 196.94 93.2372 196.94C81.0458 196.94 75.3274 192.109 69.0055 186.528V217.169C69.0055 219.089 68.4415 223.919 62.1196 223.919C60.9537 223.919 59.7871 223.633 58.7715 223.191C55.8371 221.582 55.3848 219.375 55.3848 217.169V125.245ZM90.0015 129.216C76.1927 129.216 68.7428 139.761 68.7428 156.615C68.7428 173.623 75.7789 186.088 89.8512 186.088C97.6033 186.088 102.607 182.138 105.392 178.321C109.493 172.74 110.396 164.534 110.396 157.652C110.396 149.886 109.794 129.216 90.0015 129.216ZM194.266 186.241C185.31 196.058 174.323 196.941 167.287 196.941C159.649 196.941 149.076 195.926 140.723 186.683C131.654 176.712 131.354 163.212 131.354 157.807C131.354 150.77 132.068 138.437 140.421 128.907C149.527 118.805 161.718 117.922 168.003 117.922C189.561 117.922 203.936 131.709 203.936 156.77C203.936 163.366 203.22 176.27 194.266 186.241ZM184.595 178.167C189.712 171.571 190.013 162.195 190.013 157.652C190.013 143.423 185.31 129.216 167.438 129.216C163.449 129.216 155.697 129.789 150.129 137.555C146.292 143.136 145.125 150.901 145.125 157.807C145.125 165.263 146.443 173.337 150.544 178.609C153.478 182.271 159.197 186.088 167.55 186.088C174.173 186.088 180.607 183.462 184.595 178.167ZM225.458 132.437C228.242 124.076 236.633 118.65 245.288 118.65C246.867 118.65 253.338 118.65 253.338 125.245C253.338 130.386 249.236 131.268 247.169 131.555C243.519 132.128 239.68 132.724 235.73 135.218C226.06 141.967 226.06 152.226 226.06 161.028V190.191C226.06 192.551 225.607 196.346 219.325 196.346C213.304 196.346 212.702 192.242 212.702 190.191V124.805C212.702 123.04 213.304 118.65 219.174 118.65C224.894 118.65 225.458 123.04 225.458 124.805V132.437ZM272.529 130.959H264.74C263.122 130.959 259.172 130.386 259.172 125.245C259.172 119.973 263.122 119.532 264.74 119.532H272.679V102.368C272.679 100.472 273.245 96.082 279.264 96.082C285.585 96.082 285.999 100.318 285.999 102.368V119.532H295.106C296.875 119.532 300.673 119.973 300.673 125.245C300.673 130.386 296.723 130.959 295.106 130.959H285.999V168.196C285.999 176.998 286.149 178.035 286.602 179.778C287.617 184.036 290.401 184.764 294.39 185.072C297.888 185.204 301.578 185.514 301.578 190.632C301.578 195.771 296.875 196.345 292.923 196.345C272.529 196.345 272.529 185.359 272.529 173.931V130.959M318.583 161.159C318.847 167.755 320.315 173.622 324.303 178.475C329.27 184.631 335.291 185.646 341.16 185.646C352.749 185.646 356.849 179.646 359.482 175.542C361.817 171.571 362.569 170.115 365.806 170.115C369.004 170.115 373.406 172.013 373.406 176.269C373.406 176.865 373.406 177.285 373.256 177.726C372.691 180.528 370.169 183.748 368.591 185.512C358.469 196.94 345.263 196.94 341.16 196.94C331.602 196.94 321.934 195.042 314.445 186.681C307.86 179.202 304.774 168.636 304.774 158.091C304.774 139.606 314.746 118.052 340.708 118.052C343.944 118.052 347.18 118.361 350.228 119.089C356.85 120.699 362.57 123.921 367.124 130.075C371.94 136.825 374.461 146.355 374.461 154.561C374.461 160.717 369.757 161.157 367.837 161.157H318.583M360.65 150.173C360.086 140.489 354.78 129.789 340.861 129.789C337.774 129.789 331.752 130.076 326.636 134.621C320.767 139.761 319.449 146.798 318.697 150.173H360.65V150.173ZM396.735 132.437C399.556 124.076 407.911 118.65 416.563 118.65C418.144 118.65 424.616 118.65 424.616 125.245C424.616 130.386 420.513 131.268 418.446 131.555C414.793 132.128 410.995 132.724 407.006 135.218C397.335 141.967 397.335 152.226 397.335 161.028V190.191C397.335 192.551 396.885 196.346 390.601 196.346C384.582 196.346 383.977 192.242 383.977 190.191V124.805C383.977 123.04 384.582 118.65 390.451 118.65C396.169 118.65 396.734 123.04 396.734 124.805V132.437" fill="#231F20"/>
</svg>
