<svg width="480" height="320" viewBox="0 0 480 320" fill="none" xmlns="http://www.w3.org/2000/svg">
<path d="M155.36 200L159.998 197.521C157.664 194.677 154.945 192.114 151.905 189.895C150.73 188.978 149.482 188.142 148.171 187.395C142.984 184.19 137.175 181.918 131.056 180.701L112.317 178.71L102.855 177.143C102.855 177.143 112.294 179.261 122.336 181.803L127.438 183.074C132.842 184.409 147.684 186.696 155.36 200Z" fill="#C81A24"/>
<path d="M91.4258 174.285C91.4258 174.285 97.461 178.83 131.426 178.966C131.426 178.966 133.695 179.08 134.012 179.126C139.185 179.944 157.064 182.103 171.426 202.964L166.775 205.714C166.775 205.714 155.43 185.602 131.426 182.057L108.578 179.376C108.578 179.376 93.1501 176.262 91.4258 174.285Z" fill="#019702"/>
<path d="M173.201 195.718C171.724 193.388 169.962 191.251 167.955 189.355C165.112 186.732 162.096 184.302 158.928 182.079C162.822 174.675 164.857 166.443 164.862 158.086C164.849 149.861 162.893 141.754 159.152 134.421C155.411 127.087 149.991 120.732 143.328 115.868C136.665 111.004 128.946 107.768 120.796 106.422C112.645 105.075 104.29 105.655 96.4066 108.116C105.942 105.338 116.086 105.411 125.58 108.327C135.073 111.243 143.496 116.872 149.802 124.515C156.107 132.158 160.017 141.478 161.045 151.315C162.073 161.152 160.174 171.073 155.583 179.844C145.022 173.39 128.091 170.721 128.091 170.721C108.32 167.893 104.425 164.153 103.692 163.035C102.661 161.963 101.854 160.696 101.32 159.31C100.785 157.924 100.532 156.446 100.576 154.962C100.541 154.468 100.541 153.973 100.576 153.479C100.644 151.276 101.309 149.133 102.501 147.276C108.984 138.791 123.12 143.398 123.12 143.398C140.463 146.911 157.622 167.597 157.622 167.597C152.712 160.916 147.451 154.498 141.86 148.37C135.222 141.515 127.05 136.318 118.011 133.204C118.011 133.204 103.325 128.232 91.1373 130.284C78.9491 132.337 75.1002 125.997 75.1002 125.997C72.4304 123.408 69.2786 121.362 65.8216 119.975C64.0638 119.41 62.191 119.295 60.3767 119.642C58.5625 119.989 56.8656 120.786 55.4433 121.96C54.4353 123.191 48.5703 123.191 48.5703 123.191C55.3059 125.176 60.6897 133.5 64.2179 145.451C67.7461 157.402 79.0178 165.978 79.0178 165.978C84.6728 170.495 91.297 173.656 98.3768 175.214C101.622 176.077 104.932 176.68 108.274 177.016C114.354 177.743 120.486 177.949 126.602 177.632C128.687 177.632 130.474 177.632 131.986 177.632C138.87 177.97 145.654 179.41 152.078 181.897C152.742 182.102 153.43 182.353 154.094 182.627L155.629 183.288L156.568 183.722H156.729C164.827 188.23 171.73 194.594 176.867 202.287L177.142 202.857C176.132 200.323 174.809 197.925 173.201 195.718Z" fill="#003A85"/>
<path d="M142.979 196.209L145.714 199.359C145.714 199.359 129.844 215.451 107.228 214.218C99.8999 213.976 92.6911 212.26 86.0168 209.17C79.3425 206.079 73.3346 201.674 68.339 196.209C68.339 196.209 55.6524 182.901 54.2852 165.714C55.5357 173.239 58.3351 180.409 62.4994 186.754C66.6637 193.1 72.0988 198.476 78.4479 202.531C78.4479 202.531 111.352 225.334 142.979 196.209Z" fill="#023C86"/>
<path d="M185.715 142.856H198.048C204.363 142.856 208.572 146.948 208.572 153.486C208.572 160.919 203.668 164.333 197.796 164.333H192.176V177.142H185.715V142.856ZM192.176 158.425H197.08C200.069 158.425 202.174 157.118 202.174 153.583C202.174 150.048 199.943 148.74 197.228 148.74H192.176V158.425Z" fill="#003A85"/>
<path d="M245.714 159.941C245.714 169.174 240.293 177.142 229.702 177.142C219.546 177.025 214.285 169.455 214.285 159.941C214.285 150.426 220.164 142.856 230.297 142.856C239.698 142.856 245.714 149.676 245.714 159.941ZM221.513 159.941C221.513 166.409 224.281 171.307 230.045 171.307C236.267 171.307 238.463 165.964 238.463 160.058C238.463 153.777 235.969 148.832 229.931 148.832C223.892 148.832 221.513 153.332 221.513 159.8V159.941Z" fill="#003A85"/>
<path d="M258.95 142.856V163.008C258.95 169.502 262.259 171.412 265.902 171.412C270.069 171.412 272.688 169.144 272.688 163.008V142.856H279.997V162.65C279.997 174.205 273.235 177.142 265.711 177.142C258.188 177.142 251.426 174.062 251.426 162.817V142.856H258.95Z" fill="#003A85"/>
<path d="M293.736 177.142V165.036C293.755 164.643 293.664 164.254 293.475 163.922L282.855 142.856H290.406C292.778 148.038 295.868 154.963 297.413 158.643C298.741 155.036 302.113 147.82 304.442 142.856H311.427L300.547 163.825C300.351 164.144 300.266 164.531 300.307 164.915V177.021L293.736 177.142Z" fill="#003A85"/>
<path d="M318.01 169.224L315.478 177.142H308.57L319.645 142.856H328.487L339.999 177.142H332.585L329.937 169.224H318.01ZM328.417 163.147C326.115 155.883 324.618 151.283 323.813 148.208C323.007 151.597 321.372 156.973 319.53 163.147H328.417Z" fill="#003A85"/>
<path d="M360.859 169.224L358.328 177.142H351.426L362.492 142.856H371.35L382.854 177.142H375.446L372.754 169.224H360.859ZM371.235 163.147C368.935 155.883 367.462 151.283 366.634 148.208C365.829 151.597 364.195 156.973 362.331 163.147H371.235Z" fill="#003A85"/>
<path d="M397.142 142.856V177.142H388.57V142.856H397.142Z" fill="#003A85"/>
<path d="M412.736 163.413V177.142H405.715V142.856H420.295C427.504 142.856 431.412 146.973 431.412 152.275C431.52 153.984 431.108 155.684 430.236 157.139C429.363 158.593 428.072 159.729 426.544 160.387C428.183 161.016 430.663 162.808 430.663 168.91V170.605C430.571 172.795 430.729 174.989 431.132 177.142H424.344C423.708 174.632 423.471 172.031 423.642 169.442V168.934C423.642 165.205 422.729 163.413 417.393 163.413H412.736ZM412.736 157.505H418.727C422.659 157.505 424.181 155.98 424.181 153.099C424.181 150.217 422.402 148.74 418.915 148.74H412.736V157.505Z" fill="#003A85"/>
<path d="M400.001 171.428H385.715V177.142H400.001V171.428Z" fill="#003A85"/>
<path d="M400.001 142.856H385.715V148.571H400.001V142.856Z" fill="#003A85"/>
</svg>
