<svg width="480" height="320" viewBox="0 0 480 320" fill="none" xmlns="http://www.w3.org/2000/svg">
<path d="M153.395 172.676H424.247" stroke="#231F20" stroke-width="3.16401"/>
<path d="M107.199 157.675C107.088 156.975 106.925 156.284 106.712 155.608L128.969 149.933C129.202 150.608 129.441 151.662 129.554 152.357L107.199 157.675ZM105.143 152.239C105.537 152.858 105.883 153.513 106.181 154.191L126.367 143.203C126.058 142.486 125.498 141.451 125.051 140.807L105.143 152.239ZM120.996 135.253C120.394 134.519 119.46 133.509 118.709 132.874L102.294 148.971C103.032 149.594 103.704 150.29 104.299 151.049L120.996 135.253ZM98.8886 146.811C99.8574 147.251 100.775 147.795 101.625 148.434L113.512 128.737C112.655 128.118 111.417 127.351 110.438 126.909L98.8886 146.811ZM95.1286 145.706C96.2305 145.871 97.3094 146.165 98.343 146.581L104.581 124.412C103.546 124.012 102.117 123.619 101.012 123.433L95.1286 145.706ZM94.9178 122.603C94.2473 122.542 93.5745 122.51 92.9013 122.508C92.3474 122.508 91.5767 122.536 91.0396 122.592L91.245 145.65C91.819 145.582 92.3965 145.548 92.9745 145.549C93.5652 145.549 94.1474 145.583 94.7183 145.653L94.9179 122.603H94.9178ZM106.771 194.786L104.319 185.989L104.623 185.874L109.438 193.596C111.803 192.533 114.137 191.026 116.027 189.443L111.625 182.358L111.876 182.148L118.136 187.651C120.228 185.871 122.146 183.616 123.572 181.47L117.835 176.36L118.012 176.087L125.012 179.251C126.559 176.852 127.844 174.043 128.606 171.273L122.259 168.331L122.34 168.016L129.284 168.837C130.032 166.07 130.366 163.047 130.333 159.998H107.379C107.351 167.932 100.914 174.355 92.9745 174.355C85.0214 174.355 78.5729 167.906 78.5729 159.95C78.5729 152.667 83.9809 146.645 91.0003 145.684L85.1621 123.346C83.919 123.552 82.3666 123.956 81.2163 124.404L86.9984 145.316L86.6806 145.437L75.9406 126.592C74.6554 127.16 73.2099 128.026 72.1243 128.824L82.7463 146.39L82.4875 146.592L67.8948 132.104C66.8178 132.989 65.5551 134.235 64.7143 135.321L78.8037 148.744L78.59 149L61.7049 139.249C60.7879 140.456 59.8684 142.112 59.2667 143.476L75.4035 152.363L75.2823 152.673L57.492 147.731C56.9099 149.23 56.384 151.157 56.1394 152.748L73.072 156.888L73.013 157.225L55.5376 157.235C55.4813 158.075 55.3828 159.138 55.3828 159.993C55.3828 160.826 55.4757 161.833 55.5291 162.651L71.9752 162.51L72.0091 162.828L56.0521 166.808C56.3447 168.697 56.8311 170.568 57.5033 172.303L72.3296 168.236L72.4562 168.537L59.0108 175.984C59.8122 177.77 60.8134 179.502 61.9608 181.128L74.1604 174.069L74.3628 174.325L64.2585 184.145C65.5239 185.728 66.9919 187.188 68.5809 188.49L77.6645 179.502L77.9317 179.693L71.4382 190.7C73.1481 191.946 74.9789 193.026 76.9615 193.904L82.8278 183.841L83.1344 183.965L80.0942 195.206C82.0909 195.996 84.2565 196.556 86.5146 196.907L89.3494 186.513L89.6728 186.564L89.7404 197.315C90.7809 197.402 91.8243 197.495 92.8845 197.495C94.1557 197.495 95.4127 197.382 96.6502 197.259L96.6546 187.286L96.9808 187.241L99.7059 196.829C102.26 196.426 104.687 195.687 106.759 194.792M271.497 144.764C271.182 148.822 269.824 152.214 267.914 154.59L271.548 159.99H263.69L262.658 158.235C261.848 158.91 259.331 160.684 255.076 160.684C249.286 160.689 245.239 157.335 245.25 151.286C245.261 146.359 249.46 143.597 251.743 142.554C250.847 141.308 248.67 139.286 248.678 135.638C248.69 131.355 252.005 128.838 257.205 128.838C262.627 128.838 265.884 132.022 265.901 135.95C265.923 140.892 262.259 142.981 260.695 143.965C260.928 144.348 263.724 148.513 263.724 148.513H263.811C264.34 147.638 264.722 145.875 264.646 144.764L271.497 144.764ZM255.526 147.36C254.353 147.889 252.753 149.188 252.742 151.263C252.736 153.561 254.269 155.02 256.195 155.02C258.144 155.02 259.193 154.109 259.66 153.651L255.526 147.36ZM255.385 135.984C255.388 137.179 256.302 138.245 257.289 139.621C258.592 138.971 259.505 137.711 259.486 136.175C259.472 134.693 258.437 134.007 257.351 134.001C256.477 133.997 255.383 134.62 255.386 135.984M346.975 159.99H339.531V137.303H346.975V159.99ZM339.531 135.076V129.606H346.975V135.076H339.531M350.001 141.974V137.317H352.088V130.835H359.394V137.317H362.477V141.974H359.394V153.37C359.394 154.666 360.216 155.333 361.413 155.347C361.863 155.351 362.477 155.347 362.477 155.347V160.001H358.343C354.391 160.003 352.091 157.844 352.088 154.242V141.974H350.001M397.855 145.698V143.085C397.855 142.154 397.087 141.522 396.269 141.522C395.338 141.519 394.677 142.236 394.677 143.091V145.698L397.855 145.698ZM404.624 152.214V153.049C404.542 157.608 401.935 160.724 396.269 160.724C391.055 160.724 387.835 158.074 387.843 152.945V144.438C387.835 139.311 391.06 136.659 396.269 136.662C402.025 136.662 404.63 139.775 404.63 144.438V150.234H394.677V154.295C394.677 155.15 395.332 155.864 396.269 155.864C397.084 155.864 397.855 155.226 397.855 154.295V152.214H404.624ZM304.884 150.549H305.298C305.298 150.549 305.689 142.978 306.032 139.89L307.168 129.606H313.628L310.031 160.001H300.739C300.739 160.001 299.544 154.036 298.841 150.628C298.306 148.035 297.547 141.606 297.547 141.606H297.266C297.266 141.606 296.498 148.173 296.023 150.625C295.286 154.435 294.181 160.001 294.181 160.001H285.077L281.104 129.606H288.126C288.126 129.606 288.897 136.701 289.239 139.865C289.588 143.077 289.943 150.552 289.943 150.552H290.367L294.237 129.606H301.06L304.884 150.549M324.151 129.589V138.653H324.21C324.978 137.818 326.643 136.603 328.96 136.6C332.953 136.6 334.632 139.336 334.644 142.652C334.652 145.116 334.644 159.987 334.644 159.987H327.332C327.332 159.987 327.329 145.324 327.332 144.109C327.332 142.916 326.598 142.309 325.763 142.312C325.031 142.312 324.151 142.888 324.154 144.041V159.987H316.839V129.589H324.151ZM372.379 137.317L372.511 139.351H372.66C373.264 138.494 374.067 137.797 375.001 137.318C375.934 136.84 376.969 136.596 378.017 136.606C381.783 136.603 383.701 139.297 383.712 142.61C383.72 145.071 383.712 160.004 383.712 160.004H376.4V144.131C376.406 142.939 375.666 142.334 374.837 142.337C374.103 142.337 373.225 142.914 373.225 144.067C373.228 144.938 373.225 160.004 373.225 160.004H365.916V137.317H372.379M414.467 144.55C414.827 146.772 415.51 152.087 415.51 152.087H415.859C415.859 152.087 416.503 146.752 416.818 144.545C417.156 142.213 417.889 137.278 417.889 137.278H424.614C424.614 137.278 420.682 154.151 419.251 160.161C418.289 164.208 415.263 167.645 410.243 167.645H407.951V163.044H408.758C410.496 163.044 411.818 162.459 412.161 160.636L406.235 137.278H413.19C413.19 137.278 414.099 142.295 414.467 144.55ZM153.41 159.987V129.603H163.008C169.555 129.605 172.576 134.024 172.57 139.345C172.564 146.128 168.503 149.233 163.509 149.227C162.685 149.225 160.938 149.227 160.938 149.227V159.987H153.41ZM160.938 143.223H162.252C164.372 143.223 165.309 141.606 165.311 139.345C165.311 137.548 164.566 135.61 162.277 135.607H160.938V143.223ZM208.041 141.969V137.309H210.128V130.827H217.434V137.309H220.513V141.969H217.434V153.364C217.434 154.658 218.255 155.324 219.453 155.341C219.9 155.346 220.513 155.341 220.513 155.341V159.995H216.382C212.431 159.997 210.128 157.838 210.128 154.236V141.969H208.041ZM222.676 141.977V137.32H224.76V130.838H232.069V137.32H235.148V141.977H232.069V153.373C232.069 154.669 232.887 155.335 234.085 155.349C234.533 155.354 235.148 155.349 235.148 155.349V160.007C235.148 160.007 231.751 160.004 231.014 160.007C227.066 160.007 224.76 157.847 224.76 154.247V141.977H222.676ZM181.007 137.297L181.142 140.335H181.291C182.089 138.442 184.39 136.983 186.741 136.803V144.182C186.741 144.182 185.996 144.184 185.813 144.182C183.484 144.182 182.118 145.672 182.12 147.675V159.99H174.814V137.297H181.007ZM198.82 142.9C198.82 141.702 197.911 141.173 196.963 141.173C195.948 141.173 195.102 141.918 195.102 143.164V144.57H188.462V143.482C188.465 139.227 192.025 136.583 196.829 136.586C202.684 136.588 205.465 139.477 205.462 144.171V155.805C205.459 157.824 205.85 159.472 205.988 159.987H199.641L199.441 158.094H199.261C198.701 158.66 197.236 160.679 193.732 160.67C190.403 160.661 187.857 158.201 187.855 154.807V153.746C187.843 149.728 191.364 147.95 194.621 146.541C196.471 145.743 198.82 145.068 198.82 142.9H198.82ZM194.655 153.364C194.655 154.815 195.721 155.406 196.561 155.406C198.049 155.406 198.884 154.281 198.884 152.816V149.239C197.301 149.992 194.655 150.872 194.655 153.364Z" fill="#0063A6"/>
<path d="M155.803 187.003L154.566 190.448H152.918L157.367 178.617H159.181L163.464 190.448H161.718L160.548 187.003H155.803ZM159.971 185.588L158.225 180.38H158.191L156.296 185.589H159.971M178.304 178.617V186.295C178.304 188.719 176.789 190.76 173.543 190.76C170.363 190.76 168.993 188.719 168.993 186.511V178.617H170.593V186.064C170.593 188.637 172.157 189.343 173.591 189.343C175.059 189.343 176.707 188.668 176.707 186.098V178.617H178.304ZM187.928 190.448H186.477V185.141C186.477 183.643 186.049 182.886 184.632 182.886C183.808 182.886 182.357 183.412 182.357 185.752V190.448H180.909V181.831H182.275V183.049H182.309C182.621 182.588 183.428 181.584 184.913 181.584C186.246 181.584 187.928 182.127 187.928 184.582V190.448M192.186 190.448H190.735V181.831H192.186V190.448ZM190.735 180.265V178.617H192.186V180.265H190.735ZM196.595 183.032V188.637C196.595 189.312 197.172 189.312 197.467 189.312H197.979V190.448C197.453 190.499 197.04 190.563 196.893 190.563C195.459 190.563 195.144 189.756 195.144 188.719V183.032H193.974V181.831H195.144V179.424H196.595V181.831H197.979V183.032H196.595M207.015 187.745C206.967 188.159 206.571 189.377 205.482 190.102C205.088 190.367 204.526 190.695 203.142 190.695C200.718 190.695 199.287 188.868 199.287 186.379C199.287 183.71 200.572 181.584 203.421 181.584C205.912 181.584 207.13 183.561 207.13 186.609H200.836C200.836 188.404 201.674 189.444 203.342 189.444C204.706 189.444 205.516 188.39 205.564 187.745H207.015ZM205.631 185.456C205.55 184.121 204.99 182.886 203.224 182.886C201.891 182.886 200.836 184.121 200.836 185.456H205.631ZM216.787 190.448H215.421V189.261H215.39C214.763 190.431 213.773 190.696 212.935 190.696C209.999 190.696 209.144 187.943 209.144 185.884C209.144 183.463 210.446 181.584 212.735 181.584C214.301 181.584 214.959 182.554 215.305 183.049L215.339 182.934V178.617H216.787V190.448ZM212.965 189.444C213.891 189.444 215.322 188.834 215.322 186.542C215.322 185.142 215.092 182.886 212.999 182.886C210.758 182.886 210.643 185.009 210.643 186.115C210.643 188.01 211.382 189.444 212.965 189.444ZM222.122 178.617H231.726V180.034H227.724V190.448H226.124V180.035H222.122V178.617ZM238.476 187.745C238.428 188.159 238.034 189.377 236.946 190.102C236.549 190.367 235.99 190.695 234.606 190.695C232.182 190.695 230.75 188.868 230.75 186.379C230.75 183.71 232.035 181.584 234.884 181.584C237.373 181.584 238.594 183.561 238.594 186.609H232.297C232.297 188.404 233.138 189.444 234.803 189.444C236.17 189.444 236.979 188.39 237.027 187.745H238.476ZM237.092 185.456C237.01 184.121 236.451 182.886 234.688 182.886C233.352 182.886 232.297 184.121 232.297 185.456H237.092ZM246.167 184.731C245.987 183.578 245.343 182.886 244.123 182.886C242.328 182.886 241.749 184.599 241.749 186.131C241.749 187.613 242.112 189.444 244.108 189.444C245.079 189.444 245.92 188.719 246.167 187.4H247.568C247.419 188.766 246.581 190.696 244.058 190.696C241.637 190.696 240.202 188.868 240.202 186.379C240.202 183.71 241.488 181.584 244.339 181.584C246.595 181.584 247.452 183.232 247.568 184.731H246.167ZM256.71 190.448H255.262V184.813C255.262 183.643 254.93 182.886 253.547 182.886C252.36 182.886 251.142 183.578 251.142 185.752V190.448H249.691V178.617H251.142V182.984H251.173C251.587 182.439 252.309 181.584 253.696 181.584C255.029 181.584 256.71 182.127 256.71 184.582V190.448ZM266.328 190.448H264.877V185.141C264.877 183.643 264.45 182.886 263.032 182.886C262.208 182.886 260.76 183.412 260.76 185.752V190.448H259.306V181.831H260.676V183.049H260.709C261.022 182.588 261.829 181.584 263.311 181.584C264.646 181.584 266.328 182.127 266.328 184.582V190.448ZM272.437 181.584C275.187 181.584 276.441 183.907 276.441 186.132C276.441 188.356 275.187 190.679 272.437 190.679C269.683 190.679 268.432 188.356 268.432 186.131C268.432 183.907 269.683 181.584 272.437 181.584V181.584ZM272.437 189.427C274.512 189.427 274.939 187.284 274.939 186.131C274.939 184.978 274.512 182.835 272.437 182.835C270.361 182.835 269.931 184.978 269.931 186.131C269.931 187.284 270.361 189.427 272.437 189.427ZM278.578 190.448H280.027V178.617H278.578V190.448ZM286.169 181.584C288.919 181.584 290.174 183.907 290.174 186.132C290.174 188.356 288.919 190.679 286.169 190.679C283.416 190.679 282.161 188.356 282.161 186.131C282.161 183.907 283.416 181.584 286.169 181.584V181.584ZM286.169 189.427C288.244 189.427 288.672 187.284 288.672 186.131C288.672 184.978 288.244 182.835 286.169 182.835C284.091 182.835 283.663 184.978 283.663 186.131C283.663 187.284 284.091 189.427 286.169 189.427ZM299.429 189.74C299.429 190.977 299.409 194.073 295.424 194.073C294.4 194.073 292.406 193.795 292.128 191.503H293.579C293.841 192.87 295.176 192.87 295.52 192.87C298.025 192.87 297.975 190.862 297.975 189.838V189.475H297.944V189.543C297.564 190.153 296.808 190.696 295.652 190.696C292.721 190.696 291.864 187.943 291.864 185.884C291.864 183.463 293.166 181.584 295.455 181.584C297.021 181.584 297.679 182.554 298.025 183.049H298.059V181.831H299.429V189.74ZM295.688 189.444C296.611 189.444 298.042 188.834 298.042 186.542C298.042 185.142 297.812 182.886 295.719 182.886C293.478 182.886 293.363 185.009 293.363 186.115C293.363 188.01 294.105 189.444 295.688 189.444ZM303.377 190.448H301.926V181.831H303.377V190.448ZM301.926 180.265V178.617H303.377V180.265H301.926ZM313.324 187.745C313.273 188.159 312.88 189.377 311.791 190.102C311.398 190.367 310.835 190.695 309.454 190.695C307.03 190.695 305.596 188.868 305.596 186.379C305.596 183.71 306.881 181.584 309.733 181.584C312.219 181.584 313.439 183.561 313.439 186.609H307.146C307.146 188.404 307.986 189.444 309.648 189.444C311.018 189.444 311.825 188.39 311.873 187.745H313.324ZM311.94 185.456C311.859 184.121 311.296 182.886 309.536 182.886C308.2 182.886 307.146 184.121 307.146 185.456H311.94ZM320.521 184.286C320.504 183.741 320.304 182.835 318.479 182.835C318.032 182.835 316.764 182.984 316.764 184.056C316.764 184.765 317.205 184.928 318.327 185.209L319.775 185.572C321.575 186.016 322.2 186.674 322.2 187.844C322.2 189.624 320.734 190.696 318.788 190.696C315.38 190.696 315.132 188.719 315.082 187.681H316.485C316.53 188.356 316.73 189.444 318.772 189.444C319.812 189.444 320.748 189.031 320.748 188.075C320.748 187.383 320.273 187.152 319.036 186.84L317.357 186.426C316.15 186.131 315.36 185.521 315.36 184.334C315.36 182.439 316.927 181.584 318.625 181.584C321.707 181.584 321.921 183.856 321.921 184.286H320.521ZM337.037 182.177C336.59 180.099 334.86 179.722 333.721 179.722C331.581 179.722 329.852 181.303 329.852 184.419C329.852 187.203 330.842 189.343 333.772 189.343C334.81 189.343 336.607 188.851 337.152 186.097H338.699C338.041 190.563 334.416 190.76 333.527 190.76C330.842 190.76 328.204 189.014 328.204 184.466C328.204 180.825 330.279 178.305 333.721 178.305C336.773 178.305 338.353 180.2 338.584 182.177H337.037ZM344.411 181.584C347.164 181.584 348.418 183.907 348.418 186.132C348.418 188.356 347.164 190.679 344.411 190.679C341.66 190.679 340.406 188.356 340.406 186.131C340.406 183.907 341.66 181.584 344.411 181.584V181.584ZM344.411 189.427C346.486 189.427 346.917 187.284 346.917 186.131C346.917 184.978 346.486 182.835 344.411 182.835C342.335 182.835 341.908 184.978 341.908 186.131C341.908 187.284 342.335 189.427 344.411 189.427ZM350.519 181.831H351.889V183.049H351.92C352.235 182.588 352.974 181.584 354.524 181.584C356.073 181.584 356.568 182.523 356.813 182.984C357.541 182.177 358.115 181.584 359.451 181.584C360.373 181.584 362.12 182.062 362.12 184.483V190.448H360.671V184.88C360.671 183.693 360.309 182.886 359.074 182.886C357.851 182.886 357.046 184.039 357.046 185.192V190.448H355.595V184.484C355.595 183.758 355.317 182.886 354.243 182.886C353.421 182.886 351.97 183.412 351.97 185.752V190.449H350.519V181.831ZM364.583 181.831H365.95V183.049H365.987C366.332 182.554 366.99 181.584 368.557 181.584C370.846 181.584 372.145 183.463 372.145 185.884C372.145 187.943 371.291 190.696 368.357 190.696C367.204 190.696 366.448 190.153 366.068 189.543H366.034V193.86H364.583L364.583 181.831ZM368.324 189.444C369.907 189.444 370.646 188.01 370.646 186.115C370.646 185.009 370.534 182.886 368.293 182.886C366.2 182.886 365.967 185.142 365.967 186.542C365.967 188.834 367.401 189.444 368.324 189.444ZM374.103 184.45C374.167 182.391 375.537 181.584 377.66 181.584C378.355 181.584 380.861 181.781 380.861 183.988V188.949C380.861 189.312 381.041 189.458 381.339 189.458C381.468 189.458 381.651 189.427 381.814 189.393V190.448C381.567 190.513 381.353 190.614 381.024 190.614C379.739 190.614 379.542 189.953 379.491 189.295C378.931 189.905 378.057 190.695 376.378 190.695C374.794 190.695 373.675 189.691 373.675 188.206C373.675 187.481 373.889 185.802 376.293 185.504L378.684 185.209C379.03 185.175 379.44 185.043 379.44 184.185C379.44 183.279 378.782 182.784 377.415 182.784C375.768 182.784 375.537 183.791 375.436 184.449H374.103V184.45ZM379.41 186.05C379.176 186.23 378.816 186.362 377.019 186.593C376.31 186.691 375.174 186.905 375.174 187.993C375.174 188.932 375.652 189.492 376.738 189.492C378.09 189.492 379.409 188.62 379.409 187.467V186.05M390.791 190.448H389.34V185.141C389.34 183.643 388.909 182.886 387.495 182.886C386.671 182.886 385.22 183.412 385.22 185.752V190.448H383.768V181.831H385.138V183.049H385.169C385.484 182.588 386.291 181.584 387.776 181.584C389.109 181.584 390.791 182.127 390.791 184.582V190.448ZM398.423 181.831H400.023C399.017 184.649 398.029 187.467 396.924 190.282C395.558 193.778 395.408 193.975 393.547 193.975C393.333 193.975 393.167 193.91 392.939 193.843V192.524C393.119 192.591 393.414 192.673 393.811 192.673C394.57 192.673 394.652 192.459 395.344 190.679L392.146 181.831H393.794L396.086 188.851H396.117L398.423 181.831Z" fill="#231F20"/>
</svg>
