<svg width="480" height="320" viewBox="0 0 480 320" fill="none" xmlns="http://www.w3.org/2000/svg">
<path d="M55.3828 229.794H424.614V90.207H55.3828V229.794Z" fill="#F6B221"/>
<path d="M366.927 90.207L212.68 229.496H424.212V90.207" fill="#3C590C"/>
<path d="M357.366 158.85C357.48 160.138 355.082 160.866 354.04 163.397C352.967 165.928 350.998 168.045 350.326 169.96C349.739 171.907 348.568 170.973 344.464 173.022C340.432 175.076 334.516 176.425 333.135 177.63C331.784 178.765 327.302 180.566 326.319 181.313C325.36 182.06 324.645 181.351 324.806 180.828C324.957 180.306 325.785 178.676 326.04 178.071C326.955 176.118 329.188 177.347 330.032 177.11C330.877 176.855 331.34 175.168 332.523 174.805C333.714 174.478 339.519 172.289 342.406 171.441C345.3 170.59 346.639 169.153 347.744 168.05C348.87 166.887 352.407 162.884 351.542 162.04C350.648 161.258 347.425 163.186 346.561 163.968C345.719 164.721 345.457 166.529 344.157 167.705C342.858 168.907 338.202 171.223 334.308 171.678C330.366 172.11 318.523 171.856 316.301 172.578C314.142 173.318 311.793 176.674 306.477 177.459C301.148 178.288 296.778 178.492 294.012 178.375C288.815 178.015 284.591 181.666 282.978 182.903C281.38 184.172 273.977 188.375 272.97 189.77C270.419 192.445 268.627 193.706 267.748 193.677C266.891 193.626 267.985 190.037 268.452 189.97C268.881 189.938 268.871 188.415 269.478 188.22C270.125 188.081 272.855 187.246 275.411 185.573C277.588 184.182 282.984 179.104 284.862 177.412C286.734 175.726 291.4 174.859 293.216 174.017C295.02 173.199 295.497 172.222 295.47 171.253C295.449 170.244 294.818 170.045 294.303 169.978C293.821 169.927 293.115 170.809 290.607 170.606C288.101 170.33 286.94 168.834 287.074 166.958C287.24 165.162 289.64 163.671 290.952 163.825C292.249 163.951 292.421 165.353 292.347 165.843C292.242 166.26 291.388 166.457 291.052 168.049C290.721 169.644 291.85 169.38 292.439 169.342C293.028 169.304 293.671 169.169 294.605 168.171C295.578 167.194 296.016 165.341 298.469 163.939C300.98 162.47 307.402 163.077 312.276 163.675C317.168 164.249 324.366 163.109 330.749 160.815C337.135 158.59 343.94 153.132 344.91 152.319C345.907 151.496 346.655 150.556 346.776 149.743C346.93 148.963 346.648 148.212 345.728 147.96C344.811 147.644 341.098 147.254 338.045 147.135C335.016 147.014 331.578 145.85 330.03 145.438C328.482 144.974 325.214 142.131 325.606 141.804C326.052 141.522 327.672 143.52 331.179 144.528C334.736 145.554 338.211 145.738 340.352 145.904C342.453 146.052 344.321 146.307 345.367 146.213C346.33 146.11 346.518 145.498 346.588 144.911C346.648 144.325 346.216 143.874 345.54 143.377C344.926 142.897 339.948 142.687 336.658 142.561C333.428 142.476 330.191 141.796 328.995 141.381C327.808 140.953 325.068 137.916 325.745 137.774C326.464 137.717 328.236 140.174 330.711 140.816C333.112 141.428 339.051 141.587 342.399 141.583C345.786 141.57 347.963 141.437 349.728 142.331C351.482 143.24 352.954 146.325 354.531 147.424C356.108 148.556 360.153 148.807 361.568 149.483C363.022 150.207 365.269 150.065 365.193 150.782C365.132 151.553 361.669 152.348 359.25 152.249C356.755 152.126 355.283 153.105 352.546 153.143C349.728 153.244 348.707 154.447 348.194 155.226C347.764 156.032 345.719 160.369 345.978 160.754C346.201 161.146 351.236 158.494 352.607 158.138C353.908 157.782 357.221 157.582 357.366 158.85Z" fill="#F6B221"/>
<path d="M81.4933 184.534L78.5967 188.996V192.195H77.7325V188.996L74.9102 184.534H75.9134L77.5598 187.122L77.8734 187.621L78.0303 187.868L78.1827 188.121H78.2049L78.3547 187.867L78.5071 187.621L78.8278 187.122L80.4672 184.534M87.0256 185.186C85.8141 185.186 85.1042 185.321 84.8979 185.59C84.6915 185.861 84.5912 186.783 84.5912 188.362C84.5912 189.943 84.6915 190.871 84.8979 191.14C85.1042 191.409 85.8141 191.546 87.0256 191.546C88.2421 191.546 88.952 191.41 89.1583 191.14C89.3641 190.872 89.4676 189.944 89.4676 188.362V187.863L89.4606 187.139C89.4606 186.292 89.319 185.757 89.0352 185.529C88.7501 185.3 88.0802 185.186 87.0256 185.186M87.03 184.456C88.479 184.456 89.3844 184.668 89.7476 185.089C90.1095 185.513 90.2911 186.57 90.2911 188.261C90.2911 190.084 90.119 191.207 89.7692 191.634C89.4225 192.06 88.5082 192.273 87.03 192.273C85.5607 192.273 84.649 192.062 84.2953 191.639C83.941 191.218 83.7638 190.125 83.7638 188.362V187.825L83.7753 187.099C83.7753 186.082 84.0064 185.387 84.4629 185.016C84.9226 184.641 85.7779 184.456 87.03 184.456ZM98.5568 184.534H99.4216V189.9C99.4216 190.874 99.2267 191.512 98.8349 191.817C98.4425 192.121 97.6228 192.274 96.3732 192.274C95.2037 192.274 94.4062 192.128 93.9858 191.832C93.5642 191.539 93.3534 190.982 93.3534 190.159V184.534H94.2182V189.9C94.2182 190.625 94.337 191.082 94.5719 191.265C94.8068 191.451 95.3878 191.543 96.3129 191.543C97.3136 191.543 97.9384 191.454 98.1873 191.272C98.4336 191.09 98.5568 190.634 98.5568 189.899M112.342 189.922L110.642 185.24L108.964 189.922H112.342ZM112.595 190.573H108.717L108.126 192.195H107.212L110.018 184.534H111.231L114.093 192.195H113.189M117.812 188.362H120.309C120.968 188.362 121.416 188.261 121.656 188.062C121.895 187.863 122.016 187.484 122.016 186.931C122.016 186.239 121.927 185.788 121.75 185.578C121.57 185.37 121.189 185.265 120.607 185.265H117.812L117.812 188.362ZM116.947 192.195V184.534H120.596C121.418 184.534 121.998 184.698 122.334 185.023C122.672 185.347 122.84 185.914 122.84 186.719C122.84 187.426 122.748 187.919 122.565 188.197C122.381 188.476 122.031 188.656 121.516 188.739V188.752C122.327 188.815 122.733 189.307 122.733 190.234V192.192H121.868V190.432C121.868 189.538 121.481 189.093 120.708 189.093H117.812V192.195M126.733 185.265V187.874H130.622V188.604H126.733V191.467H130.791V192.195H125.869V184.534H130.79V185.265M149.639 184.534L147.227 192.195H145.912L144.302 186.678L144.1 185.988L144.006 185.645L143.905 185.298H143.887L143.79 185.645L143.69 185.993L143.484 186.689L141.844 192.195H140.554L138.202 184.534H139.089L140.738 190.04L140.962 190.786L141.076 191.156L141.181 191.532H141.199L141.305 191.156L141.412 190.786L141.632 190.044L143.257 184.534H144.536L146.154 190.051L146.373 190.786L146.474 191.163L146.579 191.532H146.597L146.709 191.156L146.821 190.782L147.052 190.029L148.737 184.534M158.666 184.534V192.195H157.802V188.642H153.324V192.195H152.459V184.534H153.324V187.912H157.802V184.534M167.986 184.534L165.09 188.996V192.195H164.226V188.996L161.403 184.534H162.406L164.053 187.122L164.366 187.621L164.523 187.868L164.676 188.121H164.699L164.848 187.867L165.001 187.621L165.321 187.122L166.961 184.534M186.39 184.534L183.977 192.195H182.663L181.052 186.678L180.85 185.988L180.756 185.645L180.656 185.298H180.638L180.542 185.645L180.44 185.993L180.234 186.689L178.595 192.195H177.305L174.953 184.534H175.84L177.488 190.04L177.712 190.786L177.827 191.156L177.932 191.532H177.95L178.055 191.156L178.163 190.786L178.382 190.044L180.008 184.534H181.287L182.904 190.051L183.124 190.786L183.225 191.163L183.33 191.532H183.348L183.46 191.156L183.572 190.782L183.803 190.029L185.487 184.534M189.767 185.265V187.874H193.657V188.604H189.767V191.467H193.825V192.195H188.903V184.534H193.824V185.265M202.811 185.265V187.941H206.543V188.672H202.811V192.196H201.946V184.534H206.644V185.265M210.498 184.534V191.393H214.438V192.195H209.634V184.534M223.074 184.534L220.178 188.996V192.195H219.313V188.996L216.49 184.534H217.494L219.14 187.122L219.454 187.621L219.611 187.868L219.763 188.121H219.785L219.936 187.867L220.088 187.621L220.408 187.122L222.048 184.534M83.5784 166.332L85.0795 166.328C87.1265 166.326 88.5621 163.844 88.5425 162.339C88.5266 161.107 87.2764 160.811 86.2909 160.806C85.729 160.813 85.1176 160.88 84.5842 160.959L83.5784 166.332ZM80.4247 157.673L89.2212 157.654C91.9851 157.648 93.6068 159.361 93.6271 161.495C93.6652 164.562 91.1337 169.308 85.2985 169.322L83.014 169.328L81.6342 176.684L76.8518 176.697M101.059 168.424H101.384C102.405 165.995 105.064 162.072 107.976 162.065C108.572 162.061 109.033 162.22 109.28 162.347L107.528 166.781C107.185 166.593 106.823 166.431 106.428 166.438C103.859 166.438 101.706 170.543 100.719 172.212L99.8674 176.647L94.7579 176.66L97.4552 162.391L102.488 162.379M119.346 166.268C119.337 165.591 118.934 165.199 118.262 165.195C116.596 165.208 115.552 167.569 115.341 168.944C117.728 168.989 119.367 168.14 119.346 166.268M123.484 175.342C120.99 176.237 118.546 176.928 116.008 176.928C113.108 176.934 109.97 175.503 109.934 172.195C109.88 168.064 113.394 162.052 119.996 162.043C121.793 162.039 123.905 162.998 123.927 165.208C123.983 169.35 118.634 171.883 115.014 171.785C115.072 173.308 116.248 173.931 117.635 173.933C119.561 173.926 122.444 172.766 124.151 171.847M140.422 166.149C139.311 165.603 138.157 164.942 136.903 164.951C134.143 164.957 132.712 168.877 132.746 171.169C132.761 172.689 133.61 173.476 135.111 173.474C136.45 173.467 138.489 172.727 139.678 172.067L139.026 175.674C137.283 176.34 134.763 176.887 133.42 176.896C130.505 176.896 127.385 175.472 127.343 172.154C127.298 168.03 130.812 162.018 137.411 162.005C137.622 162.007 139.53 162.395 141.04 162.838M147.177 155.959L152.273 155.947L151.507 160.053L146.407 160.057L147.177 155.959ZM145.977 162.281L151.075 162.268L148.398 176.548L143.307 176.554M165.406 165.435C164.385 165.062 163.307 164.782 162.21 164.785C161.371 164.789 160.211 165.054 160.223 166.104C160.245 167.786 164.685 168.976 164.716 172.096C164.739 173.984 163.497 176.829 158.079 176.843C156.296 176.843 154.621 176.511 152.856 176.065L153.465 172.719C154.739 173.272 156.682 174.004 158.05 173.998C158.74 173.998 159.631 173.552 159.62 172.627C159.595 170.673 155.483 169.489 155.447 166.375C155.425 164.695 156.554 161.96 162.001 161.949C163.316 161.943 164.75 162.203 165.984 162.357M172.126 155.897L177.208 155.891L176.44 159.994L171.349 160.006L172.126 155.897ZM170.923 162.225L176.023 162.212L173.347 176.483L168.251 176.495M185.243 173.778C188.117 173.776 189.23 169.786 189.208 167.513C189.19 166.299 188.681 164.876 187.208 164.886C184.306 164.892 183.221 168.868 183.243 171.153C183.263 172.365 183.774 173.783 185.243 173.778M178.161 172.034C178.113 167.917 181.612 161.902 188.216 161.888C191.148 161.882 194.25 163.326 194.283 166.633C194.342 171.186 190.247 176.766 184.224 176.778C181.321 176.784 178.201 175.356 178.16 172.034M202.636 168.197L202.941 168.194C203.976 165.77 206.617 161.848 209.544 161.839C211.341 161.837 212.412 163.143 212.434 164.814C212.44 165.486 212.268 166.171 212.14 166.854L210.331 176.404L205.266 176.423L206.921 167.474C206.942 167.288 207.031 166.979 207.038 166.764C207.029 166.603 206.982 166.351 206.744 166.351C205.821 166.356 202.764 170.948 202.269 171.987L201.431 176.425L196.342 176.437L199.012 162.166L204.061 162.154" fill="white"/>
<path d="M226.428 168.613L225.128 161.987H225.074L221.603 168.615L226.428 168.613ZM223.933 157.355L229.01 157.343L232.894 176.362L228.043 176.366L227.053 171.62L220.004 171.632L217.502 176.388L213.887 176.394M239.845 155.751L244.928 155.738L244.179 159.846L239.07 159.853L239.845 155.751ZM238.64 162.073L243.743 162.06L241.05 176.337L235.973 176.35M252.015 168.091H252.331C253.352 165.668 256.013 161.739 258.952 161.734C259.528 161.732 260.005 161.886 260.22 162.012L258.48 166.444C258.162 166.265 257.778 166.099 257.379 166.099C254.817 166.102 252.651 170.217 251.674 171.884L250.836 176.318L245.73 176.331L248.422 162.051L253.446 162.045" fill="#3C590C"/>
</svg>
