<svg width="480" height="320" viewBox="0 0 480 320" fill="none" xmlns="http://www.w3.org/2000/svg">
<path d="M166.094 189.74L160.063 202H162.982L164.148 199.664H169.208L170.181 202H173.099L167.262 189.74L166.094 189.74ZM164.928 197.916L166.678 193.438L168.43 197.916H164.928ZM178.938 201.804H181.663V189.74H178.938V201.804ZM197.813 195.386C198.398 194.604 198.592 194.022 198.592 193.438C198.592 190.91 196.841 189.546 192.948 189.74L188.862 189.934V202H191.587V196.94H193.144L197.23 202H200.149L195.867 196.552L197.813 195.386ZM192.755 195.188H191.587V191.686H192.365L195.09 192.076C195.479 192.076 195.867 192.658 195.867 193.438C195.867 194.022 195.479 194.41 195.09 194.798L192.755 195.188ZM208.323 189.74H205.596V201.804H214.938V199.862H208.323V189.74ZM221.361 201.804H223.889V189.74H221.361V201.804ZM239.457 196.94L232.453 189.74H231.09V201.804H233.62V194.41L240.822 202H241.986V189.74H239.457V196.94ZM249.187 201.804H258.527V199.862H251.715V196.552H256.581V194.41H251.715V191.686H258.527V189.74H249.187V201.804ZM273.319 198.886L272.929 197.328L271.956 196.162L269.814 195.188C268.063 194.41 267.091 193.634 267.091 192.856C267.091 192.464 267.285 192.076 267.481 191.88L268.845 191.492C270.009 191.492 270.98 191.686 271.762 192.27L272.732 190.52C271.956 189.934 270.592 189.546 268.845 189.74C267.481 189.546 266.507 189.934 265.727 190.716C264.951 191.298 264.365 192.076 264.365 193.051L264.757 194.41L265.533 195.386C265.923 195.774 266.703 196.162 267.869 196.552L270.204 197.916L270.788 199.082C270.788 199.862 270.008 200.25 268.453 200.444C267.481 200.25 266.507 200.052 265.339 199.47L264.365 201.416C265.533 202 266.703 202.194 268.063 202.194C269.815 202.194 270.98 201.804 271.956 201.222C272.929 200.64 273.513 199.862 273.319 198.886ZM169.596 117.934C160.063 129.025 151.111 137.978 142.743 144.984C134.376 151.989 126.591 157.243 119.39 160.94C112.386 164.637 106.159 167.167 100.71 168.529L87.088 170.477L78.9141 169.503C89.2284 172.617 97.985 175.923 104.796 179.233C111.802 182.54 117.251 185.656 121.143 188.768C125.229 191.686 128.148 194.41 130.093 196.746C132.039 199.082 133.402 201.027 133.792 202.392L134.568 204.334C134.376 195.774 135.348 187.404 137.488 179.039C139.63 170.865 142.353 163.081 145.856 155.881C149.164 148.681 152.667 142.26 156.17 136.616C159.866 131.166 162.786 126.692 165.51 123.187L169.596 117.934Z" fill="#3F3B4C"/>
<path d="M183.217 151.598C181.272 149.847 177.964 148.874 173.099 148.874L158.116 150.821L155.975 152.571L156.169 152.765H156.363L160.839 152.183L161.423 152.377C162.007 152.377 162.397 152.571 162.397 152.962L162.785 173.977L162.201 177.868C162.007 178.455 161.619 179.037 160.839 179.231C160.063 179.231 159.089 179.621 157.92 180.203L157.142 180.785L156.364 181.762C156.17 181.956 156.364 181.956 156.754 182.15L160.839 181.568L169.985 181.374L172.904 181.568L174.072 180.983L175.434 180.009C175.823 179.815 175.823 179.621 175.24 179.621L170.375 178.843C169.595 178.843 169.207 178.455 169.207 177.673L169.013 152.571L169.207 151.792C169.403 151.598 169.595 151.598 169.793 151.598L171.349 151.404C174.267 151.404 176.213 152.183 177.769 153.933C179.132 155.489 179.716 157.436 179.716 159.966L178.938 163.664L177.38 165.998L174.658 166.972L170.765 167.556C170.375 167.556 170.375 167.752 170.569 168.14L171.932 168.916L173.488 169.112L176.797 168.14L180.884 166.192L184.581 162.692C185.36 161.328 185.943 159.772 185.943 158.021C186.137 155.489 185.164 153.348 183.218 151.598H183.217ZM237.318 152.962C237.513 152.377 237.9 151.988 238.679 151.792L241.013 151.209L242.767 149.651L242.573 149.263L238.679 149.847L227.977 149.457L226.809 150.236C226.225 150.43 225.641 150.821 225.25 151.015C225.058 151.404 225.058 151.598 225.447 151.598L229.338 152.183C230.116 152.183 230.506 152.571 230.506 153.156L230.7 173.391L230.312 177.674L229.728 178.649L228.755 179.231L227.391 179.621L225.835 180.009L225.479 180.368L222.722 179.815L220.191 178.455L215.717 173.198C213.965 170.863 212.798 168.528 211.631 166.192C211.435 165.61 211.435 165.22 211.631 165.024C212.798 164.442 213.965 163.86 214.938 163.08L216.884 160.745C217.662 159.772 218.052 158.605 218.052 157.242C218.052 154.906 217.273 153.156 215.522 151.404C213.77 149.847 210.462 148.874 205.792 148.874H205.596L191.002 150.821L189.639 151.404L188.862 152.377C188.473 152.571 188.668 152.571 189.252 152.765L193.92 152.183C194.31 151.988 194.7 152.377 194.894 152.962C195.09 153.933 195.284 157.827 195.478 164.636C195.478 172.031 195.284 176.702 194.506 178.455L193.532 179.231L191.002 180.009L189.056 181.568V181.956H189.445L201.316 181.374L204.235 181.762L205.403 181.18L206.766 180.203C206.959 180.009 206.959 179.815 206.766 179.621L201.9 179.037L201.316 178.649C201.121 178.455 201.121 178.061 201.121 177.673V168.334C201.121 167.752 201.316 167.556 201.706 167.556L203.068 167.36C204.235 167.36 205.209 167.752 205.792 168.916L212.603 178.455C213.77 179.815 214.938 180.785 216.3 181.179L220.971 182.149L222.917 181.955L224.412 181.769C224.46 181.853 224.623 181.879 224.863 181.761L237.513 181.179L239.846 181.567L241.013 181.179L242.573 179.815L242.767 179.621L242.377 179.425L237.9 178.843L237.317 178.455L236.926 177.285V156.463L237.318 152.962ZM209.294 164.248C207.738 165.22 205.596 165.61 203.068 165.61L201.316 165.416C201.121 165.22 201.121 165.024 201.121 164.636L201.316 152.571L201.706 151.598L203.848 151.404C206.181 151.404 208.127 152.183 209.684 153.545C211.046 154.906 211.824 156.659 211.824 158.994C211.824 161.524 211.046 163.275 209.294 164.248ZM332.864 179.621L329.947 179.231L328.194 178.455L326.248 175.922L320.605 164.052L316.323 151.792C316.323 151.404 316.129 151.015 316.323 150.236C316.323 149.651 316.323 149.262 316.519 148.874L316.323 148.486H316.129C315.544 148.874 314.767 149.262 313.793 149.847L311.653 151.209L310.681 154.712L305.037 166.778L304.451 167.752L303.675 168.528L302.897 169.502C302.703 169.502 302.703 169.89 302.897 170.086L303.091 170.476L302.897 171.057L298.809 177.867L298.033 178.649L297.06 179.037L295.094 179.692C295.035 179.602 294.902 179.514 294.724 179.425L290.054 178.843C289.664 178.843 289.468 178.455 289.08 177.867C288.886 176.897 288.692 175.144 288.498 172.422L288.304 157.242C288.304 155.49 288.304 154.129 288.498 153.545C288.886 152.765 289.274 152.377 290.054 152.377L293.361 151.598L295.308 150.042L295.502 149.457L295.112 149.651L284.02 150.042C283.438 150.042 283.048 150.236 283.048 150.624L281.88 153.348L271.568 171.253L271.176 171.447L270.592 171.057L258.72 149.457L258.332 149.651L252.885 150.042L249.383 149.847L248.603 150.042L246.463 151.209C246.073 151.404 246.073 151.598 246.657 151.792L252.108 152.183C252.884 152.377 253.469 152.765 253.469 153.739L253.663 156.463L252.109 172.615L250.744 178.061L249.577 179.231L246.463 180.009L245.491 180.785L244.517 181.762L244.905 181.956L255.221 181.374L257.361 181.568H257.555L260.084 180.203C260.474 179.815 260.278 179.621 259.696 179.621L257.944 179.037L255.415 178.843L254.831 178.455L254.441 177.673L255.803 157.048L255.997 156.853L256.387 157.242L260.862 165.61C262.615 168.916 264.171 172.227 265.338 175.728C266.702 178.257 267.284 180.203 267.09 181.567L267.284 181.955L267.868 181.761L270.009 179.231L282.074 157.242L282.268 156.853L282.462 157.242L282.268 178.257C282.462 178.843 282.074 179.231 281.492 179.425L279.35 180.203C278.574 180.785 278.182 181.18 277.988 181.762C277.792 181.762 277.792 181.956 277.988 181.956H278.182L289.858 181.374L292.193 181.568L293.361 180.983C292.971 181.373 292.971 181.567 293.361 181.567L303.091 181.179L305.233 181.567C305.815 181.567 306.593 181.179 307.763 180.009C307.957 179.815 307.957 179.621 307.567 179.425L303.091 178.843C302.703 178.649 302.507 178.257 302.703 177.479L305.621 171.643C305.815 171.447 306.009 171.253 306.593 171.057H306.789L309.901 171.447L313.405 171.057L316.519 170.28L317.103 170.863L320.215 178.061C320.411 178.649 320.411 179.231 320.021 179.425C319.243 180.009 318.656 180.591 318.656 180.984C318.268 181.373 318.268 181.567 318.853 181.567L322.163 181.179L328.583 181.567L331.114 181.373L333.058 180.203C333.448 179.815 333.252 179.621 332.864 179.621ZM315.351 168.528L308.151 167.944C307.763 167.944 307.567 167.752 307.567 167.556L311.653 157.63L312.043 157.436L312.433 157.63L315.933 167.556C316.128 167.944 315.933 168.334 315.351 168.528H315.351ZM380.347 152.962C380.347 152.377 380.735 151.988 381.514 151.792L382.877 151.598L384.043 151.209L385.795 149.651L385.405 149.263L377.233 149.847L370.811 149.457L368.281 151.015C367.893 151.404 367.893 151.598 368.475 151.598L372.367 152.183C372.951 152.183 373.341 152.571 373.535 153.156L373.925 157.242L373.729 173.391L373.147 177.674C372.951 178.455 372.563 179.037 371.785 179.231L370.227 179.621L368.865 180.009C368.686 180.099 368.518 180.209 368.365 180.337L365.751 179.815C364.975 179.621 363.999 179.231 363.221 178.455C361.857 177.285 360.498 175.534 358.745 173.198C357.189 170.863 355.631 168.528 354.658 166.192C354.27 165.61 354.27 165.22 354.658 165.024C355.827 164.442 356.993 163.86 357.967 163.08L359.914 160.745C360.554 159.689 360.891 158.477 360.888 157.242C360.888 154.906 360.108 153.156 358.357 151.404C356.605 149.847 353.492 148.874 348.627 148.874L337.728 150.042L334.032 150.821C333.642 150.821 333.252 151.209 332.864 151.404L331.892 152.377C331.698 152.571 331.698 152.571 332.086 152.765L336.952 152.183C337.34 151.988 337.728 152.377 337.924 152.962C338.116 153.933 338.314 157.827 338.508 164.636C338.508 172.031 338.116 176.702 337.728 178.455L336.562 179.231L334.032 180.009L332.086 181.568V181.956H332.28L344.54 181.374L347.264 181.762L348.434 181.18L349.794 180.203C349.988 180.009 349.794 179.815 349.6 179.621L344.928 179.037L344.346 178.649L343.958 177.673V168.334C343.958 167.752 344.346 167.556 344.734 167.556L345.902 167.36L347.654 167.752L348.821 168.916L355.631 178.455C356.605 179.815 357.967 180.785 359.329 181.179L363.999 182.149L365.946 181.955L367.313 181.785C367.36 181.853 367.561 181.872 367.893 181.761L380.54 181.179L382.877 181.567L385.601 179.815V179.621L385.405 179.425L380.928 178.843L380.346 178.455L379.957 177.285V156.463C379.957 154.713 380.153 153.546 380.346 152.962H380.347ZM352.326 164.248C350.766 165.22 348.627 165.61 345.902 165.61L344.346 165.416L343.958 164.636V152.571C343.958 151.988 344.346 151.598 344.734 151.598L346.682 151.404H346.876C349.406 151.404 351.352 152.183 352.712 153.545C354.076 154.906 354.658 156.659 354.658 158.994C354.658 161.524 353.882 163.275 352.326 164.248ZM411.482 167.166C410.508 166.388 409.536 165.61 408.368 165.024L400 161.914C397.664 160.939 396.498 159.383 396.304 157.242C396.304 155.296 396.888 153.739 398.056 152.765C399.028 151.598 400.582 151.209 402.336 151.209C404.864 151.209 406.618 151.792 407.394 153.156C407.982 153.933 408.174 155.101 408.174 156.853L408.564 157.242H408.758L409.536 156.463L409.73 155.686L410.706 151.404C410.706 150.624 410.314 150.042 409.536 149.651L408.174 149.068L405.45 148.874L400.778 149.651L396.692 151.598C395.134 152.571 393.773 153.739 392.801 155.295C391.828 156.659 391.244 158.41 391.244 160.354C391.244 162.106 391.828 163.664 392.801 164.636C393.579 165.804 394.747 166.584 396.108 167.166L403.502 170.086C405.84 171.057 407.006 172.421 406.812 174.367C406.812 175.728 406.424 176.898 405.254 178.061C404.282 179.231 402.53 179.815 399.806 180.009L396.304 179.425L393.97 178.061C392.995 177.091 392.801 175.922 392.995 174.562L392.607 173.783L392.022 173.391L391.828 173.197C391.632 173.197 391.44 173.391 391.44 173.783L389.882 179.037C389.686 179.231 389.686 179.425 389.882 179.815L390.464 180.983C391.048 181.373 391.829 181.761 392.801 182.149L396.108 182.539L400.974 181.761L406.424 179.621C408.368 178.455 409.924 177.092 410.9 175.728C412.066 174.173 412.65 172.615 412.65 170.863C412.65 169.308 412.26 168.14 411.482 167.166ZM132.429 143.427C124.254 152.765 116.278 159.966 108.882 165.61C101.292 171.057 94.2876 175.144 88.2535 177.868C82.0274 180.591 76.7732 182.343 72.6863 183.319L65.0977 184.679L79.887 184.291L116.278 186.627C125.811 188.185 132.817 189.739 137.294 191.297C141.379 192.657 143.715 193.437 143.909 193.827C140.796 187.403 139.044 180.591 138.656 173.198C138.266 165.998 139.044 158.994 140.406 151.792C141.887 145.133 143.772 138.569 146.05 132.139C148.386 126.106 150.526 121.047 152.667 116.959L156.17 110.344C148.191 123.576 140.406 134.667 132.429 143.427Z" fill="#EFEBF0"/>
</svg>
