<svg width="480" height="320" viewBox="0 0 480 320" fill="none" xmlns="http://www.w3.org/2000/svg">
<path d="M187.717 55.1367H225.379V92.0598H187.717V55.1367ZM254.769 55.1367H292.431V92.0598H254.769V55.1367ZM254.769 121.451H292.431V158.226H254.769V121.451ZM187.717 121.451H225.379V158.226H187.717V121.451ZM55.3848 196.626V199.137H63.6555V260.872H55.3848V263.235H87.1386V260.872H78.1294V232.072H91.274C102.203 232.072 107.816 228.084 107.816 228.084C114.609 223.358 114.609 214.792 114.609 214.792C114.609 205.783 107.816 200.761 107.816 200.761C104.271 198.251 99.3971 197.364 99.3971 197.364L90.8309 196.626H55.3848ZM78.1294 199.137H86.6955C93.9325 199.137 96.8863 202.977 96.8863 202.977C99.2494 206.078 99.2494 214.349 99.2494 214.349C99.2494 223.949 95.4094 226.903 95.4094 226.903C92.0125 229.414 86.9909 229.414 86.9909 229.414H78.1294V199.137ZM151.532 234.731C151.532 234.731 149.76 236.946 146.363 236.946C146.363 236.946 143.557 236.946 141.785 235.174C141.785 235.174 140.16 233.549 140.16 231.334C140.16 231.334 140.16 229.561 141.489 227.937L141.932 226.903C141.932 226.903 141.932 226.017 140.603 226.017C140.603 226.017 139.717 226.017 137.945 227.937L136.172 229.857C136.172 229.857 132.332 235.026 132.332 242.854V260.872H140.308V263.235H113.428V260.872H120.074V226.312H113.428V223.801L132.48 222.915L132.332 231.038L135.434 226.903C135.434 226.903 138.831 222.767 144.443 222.767C144.443 222.767 148.579 222.767 150.942 225.278C150.942 225.278 152.862 227.494 152.862 230.595C152.862 230.595 152.862 233.106 151.532 234.731ZM169.846 211.247C169.846 211.247 167.779 213.315 164.825 213.315C164.825 213.315 162.019 213.315 159.951 211.247C159.951 211.247 157.883 209.327 157.883 206.521C157.883 206.521 157.883 203.715 159.951 201.647C159.951 201.647 161.871 199.727 164.825 199.727C164.825 199.727 167.779 199.727 169.846 201.647C169.846 201.647 171.914 203.715 171.914 206.521C171.914 206.521 171.914 209.327 169.846 211.247ZM153.452 223.801L172.209 222.915V260.872H178.412V263.235H153.452V260.872H160.099V226.312H153.452V223.801ZM213.12 227.789C213.12 227.789 213.12 226.312 210.462 226.312H205.883V223.801H223.311V226.312H220.652C220.652 226.312 218.142 226.312 217.256 227.198C217.256 227.198 216.369 228.084 214.154 232.958L200.862 264.86H198.203L179.889 226.312H175.311V223.801H198.942V226.312H192.591L203.816 250.681L211.939 230.891L213.12 227.789ZM241.772 222.767C234.536 222.767 229.809 225.574 229.809 225.574C224.788 228.527 224.788 232.958 224.788 232.958C224.788 235.321 226.265 236.651 226.265 236.651C227.742 238.127 230.105 238.127 230.105 238.127C232.616 238.127 234.24 236.651 234.24 236.651C235.717 235.174 235.717 232.958 235.717 232.958L235.274 231.038L234.092 228.971L233.797 227.937C233.797 227.051 235.126 226.164 235.126 226.164C236.751 225.131 239.557 225.131 239.557 225.131C243.988 225.131 245.465 227.198 245.465 227.198C246.351 228.675 246.351 232.367 246.351 232.367V239.752C232.32 241.081 227.003 244.921 227.003 244.921C221.391 248.761 221.391 254.817 221.391 254.817C221.391 258.214 223.311 260.724 223.311 260.724C226.265 264.269 232.763 264.269 232.763 264.269C240.739 264.269 246.351 257.771 246.351 257.771L249.305 261.906C251.668 264.269 255.36 264.269 255.36 264.269C260.382 264.269 264.812 259.543 264.812 259.543L263.188 257.475L260.382 258.952C257.871 258.952 257.871 254.078 257.871 254.078V235.026L257.132 229.561C255.803 226.164 251.372 224.392 251.372 224.392C247.532 222.767 241.772 222.767 241.772 222.767ZM246.351 242.411V249.647L246.056 253.635C245.612 255.851 243.692 257.327 243.692 257.327C241.772 258.804 239.409 258.804 239.409 258.804C236.751 258.804 234.831 257.032 234.831 257.032C232.763 254.964 232.763 251.567 232.763 251.567C232.763 246.103 237.637 243.887 237.637 243.887L246.351 242.411ZM281.649 207.998V223.801H290.068V226.312H281.649V253.635C281.649 253.635 281.649 259.395 285.046 259.395C285.046 259.395 288.443 259.395 290.659 252.601L293.317 253.044C293.317 253.044 291.84 258.066 289.772 260.429C289.772 260.429 286.228 264.417 279.582 264.417C279.582 264.417 273.083 264.417 270.868 260.429C270.868 260.429 269.686 258.214 269.686 253.34L269.834 226.312H262.892V224.835L270.425 220.109C270.425 220.109 275.151 215.826 278.843 207.998H281.649ZM326.105 196.626L304.542 254.226L301.883 259.543C300.849 260.577 297.748 260.872 297.748 260.872H293.612V263.235H314.88V260.872H310.154L307.348 260.724C306.314 260.281 306.314 259.1 306.314 259.1L307.2 255.703L311.04 245.217H332.603L338.363 260.872H329.206V263.235H360.369V260.872H352.985L329.206 196.626H326.105ZM321.674 216.417L331.717 242.854H311.926L321.674 216.417ZM375.729 211.247C375.729 211.247 373.662 213.315 370.856 213.315C370.856 213.315 368.049 213.315 365.834 211.247C365.834 211.247 363.766 209.327 363.766 206.521C363.766 206.521 363.766 203.715 365.834 201.647C365.834 201.647 367.902 199.727 370.856 199.727C370.856 199.727 373.809 199.727 375.729 201.647C375.729 201.647 377.797 203.715 377.797 206.521C377.797 206.521 377.797 209.327 375.729 211.247Z" fill="#8FA8AC"/>
<path d="M359.482 223.803L378.239 222.917V260.874H384.442V263.237H359.482V260.874H366.129V226.314H359.482V223.803ZM385.181 223.803L404.233 222.917L404.085 231.04L407.187 226.905C407.187 226.905 410.584 222.77 416.196 222.77C416.196 222.77 420.332 222.77 422.695 225.28C422.695 225.28 424.615 227.496 424.615 230.597C424.615 230.597 424.615 233.108 423.285 234.733C423.285 234.733 421.513 236.948 418.116 236.948C418.116 236.948 415.31 236.948 413.538 235.176C413.538 235.176 411.913 233.551 411.913 231.336C411.913 231.336 411.913 229.563 413.242 227.939L413.686 226.905C413.686 226.905 413.686 226.019 412.356 226.019L409.698 227.939L407.925 229.859C407.925 229.859 404.085 235.028 404.085 242.856V260.874H412.061V263.237H385.181V260.874H391.827V226.314H385.181V223.803Z" fill="#8FA8AC"/>
</svg>
