<svg width="480" height="320" viewBox="0 0 480 320" fill="none" xmlns="http://www.w3.org/2000/svg">
<path d="M132.368 170.354C137.976 170.354 142.698 167.579 142.698 163.773C142.698 159.965 137.976 157.191 132.368 157.191C126.761 157.191 122.039 159.965 122.039 163.773C122.041 167.579 126.761 170.354 132.368 170.354ZM132.074 175.807C121.804 175.807 115.281 170.472 115.281 163.773C115.281 156.954 122.187 151.73 132.368 151.73C142.55 151.73 149.454 156.984 149.454 163.507C149.454 166.423 148.156 168.818 145.676 170.824H151.725L150.28 173.301C149.364 174.867 148.242 175.807 145.825 175.807H132.074ZM163.527 166.869H174.209L169.25 158.045C169.135 157.841 169.043 157.78 168.866 157.78C168.691 157.78 168.601 157.841 168.484 158.045L163.527 166.869ZM176.956 171.738H160.784L158.485 175.811H151.783L163 156.392C163.887 154.86 165.153 153.679 167.69 153.679H170.2C172.738 153.679 174.006 154.86 174.888 156.392L186.104 175.811H179.255L176.956 171.738ZM218.028 153.679V175.807H212.038L194.453 161.148V175.807H188.46V153.679H192.21C194.127 153.679 195.1 154.179 196.193 155.124L212.038 168.314V153.679H218.028ZM233.34 175.807V158.668H221.064V153.679H251.609V158.668H239.333V175.807H233.34ZM258.129 166.869H268.812L263.853 158.045C263.738 157.841 263.646 157.78 263.469 157.78C263.296 157.78 263.203 157.841 263.085 158.045L258.129 166.869ZM271.557 171.738H255.384L253.084 175.811H246.38L257.601 156.392C258.487 154.86 259.751 153.679 262.293 153.679H264.799C267.335 153.679 268.609 154.86 269.493 156.392L280.706 175.811H273.856L271.557 171.738ZM282.766 174.22L282.205 174.037L283.708 169.23C288.019 170.617 292.622 171.178 296.782 171.178C303.6 171.178 305.284 170.38 305.284 169.524C305.284 169.172 305.049 168.905 304.517 168.73C303.838 168.489 301.953 168.107 296.374 167.193C290.205 166.188 287.428 165.688 285.392 164.743C283.357 163.799 282.119 162.296 282.119 160.085C282.119 158.403 282.942 157.045 284.271 155.98C286.632 154.153 290.679 153.416 295.068 153.416C300.741 153.416 305.489 153.888 310.772 155.184L311.245 155.333L309.972 160.027C304.07 158.757 300.799 158.405 296.312 158.345C293.153 158.315 290.971 158.552 289.819 158.906C289.168 159.113 288.907 159.41 288.907 159.762C288.907 160.088 289.11 160.381 289.765 160.59C290.473 160.823 291.618 161.09 297.67 162.067C304.221 163.123 306.373 163.572 308.176 164.279C310.624 165.222 312.1 166.966 312.1 169.148C312.1 171.891 309.974 173.925 306.289 175.052C304.014 175.729 300.972 176.111 297.548 176.111C292.176 176.105 286.457 175.395 282.766 174.22Z" fill="#3C3C3B"/>
<path d="M343.231 175.811H316.406V153.68H322.394V170.825H343.231V175.811ZM346.771 153.68H352.76V175.811H346.771V153.68ZM388.231 153.68V175.807H382.237L364.65 161.148V175.807H358.659V153.68H362.407C364.326 153.68 365.305 154.179 366.394 155.125L382.237 168.315V153.68H388.231ZM400.123 175.807H394.129V153.68H400.123V162.237H402.983C404.19 162.237 404.606 161.943 405.258 161.473L415.701 153.68H423.584C423.763 153.68 423.763 153.855 423.669 153.915L409.268 164.421L424.555 175.572C424.647 175.63 424.647 175.806 424.469 175.806H415.97L405.163 167.99C404.518 167.516 404.106 167.222 402.894 167.222H400.123V175.807Z" fill="#E2231B"/>
<path d="M55.3848 134.547L56.0374 136.259L58.9372 143.863L74.7899 185.452H127L85.1619 143.433C79.588 137.857 72.0244 134.547 64.1437 134.547H55.3848Z" fill="url(#paint0_linear_730_18298)"/>
<path d="M58.937 143.861C64.6544 153.623 79.653 154.65 81.2884 169.835C81.3556 170.454 81.8311 170.954 82.4539 171.051C91.0954 172.407 99.5168 175.969 106.832 181.828L106.836 181.832C106.885 181.875 106.937 181.889 107 181.889C107.067 181.889 107.132 181.864 107.183 181.82C107.286 181.718 107.287 181.554 107.19 181.453C102.124 176.131 95.9327 171.866 88.9845 169.073L86.8716 168.224C86.3242 168.004 85.8573 167.621 85.5337 167.128C85.21 166.635 85.045 166.054 85.0609 165.464C85.1765 160.929 95.9047 161.854 96.99 159.672L97.1784 159.296C94.9705 157.41 92.3504 155.991 89.4562 155.2C89.432 155.307 89.363 155.834 89.9486 156.793C90.59 157.839 89.2493 159.491 87.3005 157.703L87.1364 157.556C72.6451 144.275 61.7808 151.161 56.0391 136.258L58.937 143.861Z" fill="white"/>
<path d="M88.9434 158.496V162.111C90.5061 161.664 92.2851 161.382 93.7844 161.063V159.053C93.7844 159.053 91.4105 159.171 89.9504 156.793C90.3867 157.503 89.9056 158.492 88.9434 158.496Z" fill="url(#paint1_linear_730_18298)"/>
<path d="M84.2461 171.368C92.2591 172.908 100.024 176.369 106.831 181.828C95.9365 172.519 89.2978 171.098 86.2396 171.098C85.0386 171.1 84.3841 171.325 84.2461 171.368Z" fill="url(#paint2_linear_730_18298)"/>
<path d="M56.0391 136.258L58.9388 143.862C64.6544 153.625 79.653 154.652 81.2884 169.83C79.6344 150.46 71.129 153.356 61.9859 144.543C59.6288 142.865 57.6372 140.403 56.0391 136.258Z" fill="url(#paint3_linear_730_18298)"/>
<defs>
<linearGradient id="paint0_linear_730_18298" x1="100.825" y1="185.387" x2="65.9825" y2="134.501" gradientUnits="userSpaceOnUse">
<stop stop-color="#BE0000" stop-opacity="0.9961"/>
<stop offset="1" stop-color="#FF0000"/>
</linearGradient>
<linearGradient id="paint1_linear_730_18298" x1="91.145" y1="162.311" x2="91.6145" y2="156.944" gradientUnits="userSpaceOnUse">
<stop stop-color="white"/>
<stop offset="0.65" stop-color="white"/>
<stop offset="0.95" stop-color="#A2A5A3"/>
<stop offset="1" stop-color="#A2A5A3"/>
</linearGradient>
<linearGradient id="paint2_linear_730_18298" x1="84.2533" y1="176.472" x2="106.832" y2="176.472" gradientUnits="userSpaceOnUse">
<stop stop-color="white"/>
<stop offset="0.9" stop-color="#A2A5A3"/>
<stop offset="1" stop-color="#A2A5A3"/>
</linearGradient>
<linearGradient id="paint3_linear_730_18298" x1="56.0362" y1="153.06" x2="81.2868" y2="153.06" gradientUnits="userSpaceOnUse">
<stop stop-color="white"/>
<stop offset="0.43" stop-color="white"/>
<stop offset="1" stop-color="#A2A5A3"/>
</linearGradient>
</defs>
</svg>
