<svg width="480" height="320" viewBox="0 0 480 320" fill="none" xmlns="http://www.w3.org/2000/svg">
<path d="M123.132 200.431C122.344 200.484 121.578 200.533 120.787 200.533C119.893 200.533 119.028 200.456 118.135 200.431L120.736 194.159L123.132 200.431ZM126.014 207.545C126.474 207.519 127.188 207.394 127.901 207.394C128.615 207.394 129.509 207.519 129.892 207.545C128.743 205.071 127.058 201.219 126.091 199.001C125.172 196.862 123.643 193.291 122.42 189.797C122.14 189.873 121.882 189.927 121.603 189.927C121.297 189.927 121.042 189.873 120.761 189.797C120.151 191.887 118.668 195.203 116.095 200.969L113.137 207.545C113.491 207.494 113.851 207.394 114.283 207.394C114.691 207.394 115.179 207.494 115.508 207.545C115.914 206.092 116.731 203.974 117.545 202.013C118.566 201.96 119.587 201.911 120.605 201.911C121.703 201.911 122.775 201.96 123.875 202.013L124.942 204.717L126.014 207.545ZM132.127 195.943C132.127 200.303 132.127 204.512 131.846 207.544C132.41 207.522 133.123 207.394 133.682 207.394C134.269 207.394 134.881 207.522 135.468 207.545C135.264 205.479 135.213 202.725 135.213 198.927C135.213 196.349 135.213 191.941 135.494 190.052C134.881 190.128 134.246 190.208 133.682 190.208C133.301 190.208 132.354 190.106 131.872 190.052C132.127 192.523 132.127 194.335 132.127 195.943ZM147.293 198.876C149.616 198.442 151.732 196.987 151.732 194.159C151.732 193.087 151.323 192.04 150.56 191.3C149.465 190.256 148.212 190.052 146.555 190.052C145.968 190.052 143.01 190.179 142.349 190.179C141.047 190.179 140.383 190.105 139.799 190.052C139.975 193.342 139.975 193.699 139.975 197.041C139.975 201.959 139.949 202.521 139.748 207.544C140.309 207.47 140.922 207.394 141.504 207.394C142.145 207.394 142.704 207.493 143.214 207.544C143.214 206.883 143.112 203.593 143.112 202.853V199.233H143.725C145.103 201.171 146.68 203.414 147.982 205.431C148.365 206.015 148.927 206.96 149.31 207.544C150.075 207.442 150.382 207.394 151.377 207.394C152.293 207.394 152.932 207.47 153.644 207.544C152.038 205.533 151.346 204.639 149.335 201.809C148.952 201.273 148.391 200.43 148.008 199.897L147.293 198.876ZM143.112 191.43C143.495 191.402 144.439 191.3 144.924 191.3C145.764 191.3 146.609 191.43 147.293 191.941C148.186 192.602 148.365 193.521 148.365 194.593C148.365 196.247 147.423 198.113 144.873 198.113C144.21 198.113 143.597 198.059 143.112 198.033V191.43ZM160.575 201.58C159.381 198.034 157.722 193.062 156.93 190.052C156.292 190.155 155.733 190.206 155.146 190.206C154.534 190.206 153.666 190.106 153.155 190.052C154.056 192.423 154.932 194.803 155.784 197.192C156.959 200.508 157.722 202.805 158.641 205.605L159.276 207.545C159.633 207.471 160.039 207.394 160.323 207.394C160.603 207.394 160.859 207.443 161.29 207.545C161.699 206.22 162.184 204.589 162.543 203.543C163.534 200.635 163.664 200.227 164.966 196.607L165.729 194.491C166.01 195.306 166.495 196.607 166.773 197.422C167.054 198.213 168.356 202.116 168.662 202.984C169.07 204.13 169.17 204.459 170.114 207.545C170.344 207.519 170.826 207.394 171.212 207.394C171.569 207.394 171.847 207.471 172.23 207.545C173.2 204.513 173.302 204.206 174.729 200.125C176.133 196.145 176.998 193.879 178.527 190.052C178.145 190.155 177.767 190.206 177.381 190.206C176.896 190.206 176.491 190.129 176.21 190.052C175.291 193.368 174.834 194.976 174.094 197.166C172.894 200.735 172.741 201.143 172.003 203.083C171.186 200.89 170.395 198.67 169.655 196.429C169.249 195.203 167.689 190.106 167.666 190.052C167.312 190.129 167.054 190.206 166.543 190.206C166.089 190.206 165.752 190.106 165.423 190.052C164.657 193.164 161.954 200.661 161.699 201.35L161.06 203.006L160.575 201.58ZM186.308 200.431C185.516 200.484 184.753 200.533 183.959 200.533C183.068 200.533 182.201 200.456 181.31 200.431L183.908 194.159L186.308 200.431ZM189.187 207.545C189.649 207.519 190.364 207.394 191.076 207.394C191.79 207.394 192.684 207.519 193.064 207.545C191.918 205.071 190.233 201.219 189.263 199.001C188.345 196.862 186.816 193.291 185.593 189.797C185.312 189.873 185.057 189.927 184.776 189.927C184.472 189.927 184.215 189.873 183.934 189.797C183.324 191.887 181.843 195.203 179.268 200.969L176.309 207.545C176.669 207.494 177.024 207.394 177.458 207.394C177.866 207.394 178.349 207.494 178.683 207.545C179.089 206.092 179.908 203.974 180.723 202.013C181.741 201.96 182.762 201.911 183.781 201.911C184.878 201.911 185.948 201.96 187.045 202.013L188.117 204.717L189.187 207.545ZM199.892 200.711C199.892 200.484 200.045 200.203 200.224 199.894C201.296 198.059 202.289 196.145 203.437 194.31C203.818 193.697 205.681 190.741 206.067 190.052C205.783 190.154 205.503 190.208 204.994 190.208C204.43 190.208 203.92 190.128 203.511 190.052C201.676 194.082 201.268 194.948 199.103 198.672C196.936 194.874 195.966 192.86 194.639 190.052C193.901 190.18 193.158 190.208 192.548 190.208C191.987 190.208 191.4 190.154 190.458 190.052C191.783 192.27 193.952 195.79 195.251 198.034L196.755 200.635C196.755 202.217 196.678 205.556 196.604 207.545C197.087 207.493 197.801 207.394 198.309 207.394C198.897 207.394 199.486 207.493 200.073 207.545C199.969 205.173 199.892 203.797 199.892 201.653V200.711ZM207.536 203.722C207.411 204.945 207.382 205.276 206.948 206.601C207.867 207.061 209.527 207.903 211.717 207.903C216.385 207.903 218.195 204.922 218.195 202.318C218.195 201.603 218.016 200.097 216.947 198.951C216.207 198.134 215.441 197.856 213.478 197.091C211.237 196.223 209.932 195.712 209.932 193.851C209.932 192.348 210.928 191.097 212.942 191.097C214.547 191.097 215.903 191.863 216.283 193.315H216.64C216.87 192.348 216.921 192.144 217.432 190.893C216.181 190.334 215.058 189.849 213.197 189.849C208.58 189.849 207.255 192.705 207.255 194.946C207.255 197.065 207.998 198.367 210.468 199.462C211.181 199.768 212.383 200.225 213.095 200.534C213.58 200.736 215.188 201.448 215.188 203.464C215.188 205.302 213.858 206.655 211.847 206.655C210.341 206.655 209.065 206.272 207.893 203.722H207.536Z" fill="#505967"/>
<path d="M65.8655 156.595C65.8655 137.318 76.193 132.114 83.9987 132.114C96.5445 132.114 101.976 142.521 101.976 153.614C101.976 159.962 101.211 165.93 98.0735 170.752C94.9364 175.568 89.7369 178.478 84.0728 178.478C69.9215 178.478 65.8655 165.011 65.8655 156.595ZM103.965 195.999C106.26 194.391 109.856 192.403 112.457 191.254L95.1688 180.541C105.8 176.794 112.457 167.306 112.457 154.377C112.457 136.019 98.4564 128.214 84.1494 128.214C68.6989 128.213 55.3848 136.782 55.3848 156.215C55.3848 160.342 56.3037 168.148 62.7284 174.652C69.3854 181.386 77.2652 182.379 83.9222 182.379C84.762 182.379 85.6018 182.379 86.4468 182.304L103.965 195.999ZM148.147 159.963C145.773 160.119 143.481 160.272 141.105 160.272C138.43 160.272 135.829 160.039 133.154 159.963L140.957 141.143L148.147 159.963ZM156.793 181.307C158.169 181.231 160.313 180.848 162.452 180.848C164.599 180.848 167.271 181.231 168.422 181.307C164.979 173.887 159.93 162.334 157.02 155.677C154.266 149.252 149.676 138.539 146.006 128.059C145.163 128.291 144.398 128.444 143.558 128.444C142.639 128.444 141.873 128.291 141.033 128.059C139.196 134.335 134.759 144.28 127.033 161.568L118.155 181.307C119.227 181.157 120.299 180.848 121.598 180.848C122.821 180.848 124.278 181.157 125.271 181.307C126.494 176.945 128.947 170.597 131.392 164.705C134.45 164.555 137.511 164.402 140.571 164.402C143.862 164.402 147.075 164.555 150.368 164.705L153.576 172.817L156.793 181.307ZM190.741 142.521C190.741 139.613 190.815 136.706 190.892 133.949C196.17 133.949 201.605 134.028 206.118 134.485C205.888 133.263 205.735 132.576 205.735 131.734C205.735 131.121 205.888 130.123 206.118 128.826C198.774 129.207 192.04 129.283 185.69 129.283C179.798 129.283 171.306 129.207 165.261 128.826C165.494 129.745 165.644 130.738 165.644 131.657C165.644 132.576 165.494 133.569 165.261 134.485C169.167 134.105 176.511 133.949 177.197 133.949H181.024C181.1 136.936 181.177 139.613 181.177 142.444L181.253 163.786C181.253 169.603 180.796 175.494 180.488 181.307C183.242 181.003 184.39 180.85 185.69 180.85C186.608 180.85 189.056 181.08 191.277 181.307C191.045 179.168 190.741 176.641 190.741 170.829V142.521ZM233.324 159.963C230.952 160.119 228.657 160.272 226.286 160.272C223.606 160.272 221.008 160.039 218.327 159.963L226.133 141.143L233.324 159.963ZM241.969 181.307C243.345 181.231 245.489 180.848 247.631 180.848C249.772 180.848 252.45 181.231 253.598 181.307C250.155 173.887 245.106 162.334 242.199 155.677C239.445 149.252 234.853 138.539 231.182 128.059C230.34 128.291 229.574 128.444 228.734 128.444C227.815 128.444 227.049 128.291 226.207 128.059C224.374 134.335 219.935 144.28 212.206 161.568L203.334 181.307C204.403 181.157 205.478 180.848 206.777 180.848C208 180.848 209.452 181.157 210.45 181.307C211.675 176.945 214.121 170.597 216.569 164.705C219.627 164.555 222.687 164.402 225.75 164.402C229.04 164.402 232.254 164.555 235.542 164.705L238.755 172.817L241.969 181.307ZM284.41 155.299C291.371 153.997 297.722 149.637 297.722 141.143C297.722 137.929 296.496 134.792 294.199 132.576C290.911 129.439 287.162 128.827 282.189 128.827C280.428 128.827 271.556 129.207 269.565 129.207C265.662 129.207 263.673 128.977 261.917 128.827C262.451 138.695 262.451 139.764 262.451 149.786C262.451 164.555 262.374 166.234 261.764 181.307C263.446 181.08 265.281 180.848 267.04 180.848C268.952 180.848 270.636 181.156 272.165 181.307C272.165 179.316 271.862 169.45 271.862 167.23V156.366H273.7C277.83 162.181 282.575 168.914 286.475 174.959C287.621 176.72 289.303 179.551 290.449 181.307C292.747 181.003 293.666 180.847 296.647 180.847C299.401 180.847 301.316 181.08 303.457 181.307C298.638 175.265 296.575 172.587 290.529 164.095C289.38 162.487 287.698 159.962 286.549 158.357L284.41 155.299ZM271.862 132.957C273.008 132.883 275.839 132.576 277.294 132.576C279.818 132.576 282.34 132.957 284.41 134.486C287.085 136.477 287.621 139.228 287.621 142.445C287.621 147.417 284.79 153.002 277.141 153.002C275.149 153.002 273.314 152.846 271.862 152.775V132.957Z" fill="#5C0632"/>
<path d="M398.775 155.441C398.775 155.934 391.85 156.396 381.964 156.784C380.218 155.794 378.893 154.798 377.923 153.94C389.912 154.364 398.775 154.887 398.775 155.441ZM391.673 138.751C391.673 139.162 385.869 139.547 377.57 139.879C378.76 139.185 379.985 138.486 381.272 137.784C387.541 138.072 391.673 138.406 391.673 138.751ZM329.842 174.658C326 174.704 322.631 174.721 319.999 174.721C316.211 174.721 313.143 173.555 313.143 172.108C313.143 170.668 316.211 169.502 319.999 169.502C323.353 169.502 327.897 169.537 333.109 169.604C331.093 172.514 330.135 174.262 330.046 174.372C329.987 174.456 329.913 174.555 329.842 174.658ZM331.911 178.153C333.177 179.682 334.392 180.969 336.018 182.375C336.018 182.375 336.631 183.251 338.492 182.5C340.386 181.729 341.991 180.68 343.801 178.253C349.085 178.342 354.688 178.46 360.203 178.585C360.658 179.246 361.579 180.614 362.715 182.301C347.339 182.699 330.65 182.937 322.102 182.937C318.541 182.937 315.651 181.832 315.651 180.479C315.651 179.118 318.541 178.021 322.102 178.021C324.705 178.021 328.059 178.038 331.898 178.082C331.898 178.106 331.902 178.131 331.911 178.153ZM325.963 190.977C322.803 190.977 320.243 190.004 320.243 188.804C320.243 187.602 322.803 186.627 325.963 186.627C334.322 186.627 351.46 186.882 366.137 187.298C366.844 188.312 367.551 189.32 368.223 190.246C353.112 190.691 334.718 190.977 325.963 190.977M374.709 197.95C362.383 198.491 341.189 198.853 332.383 198.853C329.905 198.853 327.891 198.08 327.891 197.143C327.891 196.199 329.905 195.43 332.383 195.43C340.806 195.43 360.589 195.762 373.073 196.26C373.637 196.865 374.189 197.434 374.709 197.95M342.552 202.573C349.824 202.573 371.962 203.122 371.962 203.785C371.962 204.459 349.821 205.003 342.552 205.003C341.135 205.003 339.989 204.459 339.989 203.785C339.989 203.122 341.135 202.573 342.552 202.573ZM342.632 157.81C333.479 157.966 325.277 158.052 319.999 158.052C316.213 158.052 313.143 156.886 313.143 155.441C313.143 153.999 316.213 152.827 319.999 152.827C326.13 152.827 336.205 152.945 347.127 153.151C345.592 154.669 344.093 156.222 342.632 157.81ZM387.529 146.135C392.891 146.426 396.266 146.745 396.266 147.077C396.266 147.442 392.182 147.792 385.862 148.103C387.212 147.087 387.508 146.202 387.529 146.135ZM322.103 149.531C318.54 149.531 315.65 148.434 315.65 147.076C315.65 145.72 318.54 144.617 322.103 144.617C329.411 144.617 342.666 144.796 355.962 145.09C354.389 146.416 352.843 147.773 351.324 149.161C339.654 149.396 328.561 149.531 322.103 149.531M361.841 140.37C348.246 140.715 333.518 140.927 325.962 140.927C322.802 140.927 320.244 139.954 320.244 138.752C320.244 137.55 322.802 136.572 325.962 136.572C334.301 136.572 351.398 136.833 366.055 137.246C365.325 137.777 364.59 138.308 363.844 138.864C363.165 139.37 362.497 139.867 361.841 140.37M332.382 132.121C329.904 132.121 327.889 131.357 327.889 130.41C327.889 129.466 329.904 128.698 332.382 128.698C341.732 128.698 365.052 129.111 376.896 129.701C376.14 130.196 375.385 130.709 374.621 131.225C362.277 131.758 341.17 132.121 332.382 132.121ZM319.292 166.433C315.438 166.433 312.309 165.246 312.309 163.774C312.309 162.311 315.438 161.119 319.292 161.119C324.124 161.119 331.356 161.19 339.534 161.316C338.151 162.94 336.812 164.602 335.519 166.298C329.007 166.385 323.315 166.433 319.292 166.433ZM339.99 123.766C339.99 123.094 341.136 122.551 342.553 122.551C349.822 122.551 371.963 123.094 371.963 123.766C371.963 124.432 349.825 124.978 342.553 124.978C341.136 124.978 339.99 124.432 339.99 123.766Z" fill="#747F8A"/>
<path d="M399.499 161.807C399.55 163.116 399.542 164.427 399.476 165.736C386.596 166.246 374.382 167.022 374.382 167.895C374.382 168.753 386.323 169.521 399.055 170.029C398.833 171.484 398.545 172.928 398.19 174.356C385.639 174.869 373.991 175.624 373.991 176.474C373.991 177.294 384.865 178.031 396.906 178.544C396.354 180.081 395.729 181.574 395.027 183.004C384.687 183.501 376.141 184.165 376.141 184.89C376.141 185.566 383.607 186.192 393.018 186.674C392.49 187.534 391.938 188.377 391.361 189.173C390.749 190.041 390.083 190.901 389.378 191.746C383.494 192.193 379.456 192.701 379.456 193.245C379.456 193.712 382.348 194.148 386.805 194.539C384.373 196.946 381.498 199.194 378.111 201.157C378.111 201.157 374.122 197.722 370.829 193.709C367.893 190.13 361.665 180.696 360.2 178.585C358.732 176.474 357.767 175.857 356.052 176.469C353.752 177.283 351.08 177.692 350.258 177.692C349.436 177.692 348.984 177.373 350.362 176.827C351.736 176.273 357.165 173.71 359.838 168.413C362.839 162.448 360.2 154.211 360.2 154.211C359.192 158.614 356.899 160.258 356.899 160.258C357.64 156.169 356.833 152.463 354.814 149.861L353.688 155.038C353.688 155.038 352.984 155.002 351.241 156.467C349.5 157.935 349.02 160.074 349.02 160.074C350.391 160.626 352.04 159.25 352.04 159.25C349.934 167.129 346.914 173.544 344.711 176.936C342.511 180.329 340.696 181.607 338.491 182.503C336.63 183.249 336.017 182.373 336.017 182.373C334.391 180.969 333.176 179.683 331.91 178.154C331.91 178.154 331.808 177.975 332.15 177.98C333.056 177.993 334.669 176.444 335.022 175.8C335.425 175.063 335.382 174.499 335.18 174.46C334.981 174.427 334.636 175.012 332.888 176.114C331.149 177.215 330.351 176.451 329.771 175.839C329.322 175.351 329.763 174.749 330.044 174.371C330.31 174.034 339.507 156.884 363.842 138.865C395.734 115.252 416.101 108.875 417.267 108.416C418.038 108.112 419.297 107.711 419.582 108.005C419.899 108.337 420.055 108.602 420.011 108.987C419.97 109.37 419.766 109.567 418.291 110.218C406.049 115.611 391.757 124.601 383.638 129.834C373.652 134.699 364.118 141.647 363.771 141.813C363.003 142.291 363.569 142.985 364.034 142.694C380.896 131.478 400.666 123.838 422.513 117.579C423.557 117.283 424.128 117.283 424.302 117.513C424.499 117.768 424.583 118.059 424.614 118.381C424.642 118.782 424.31 118.993 423.414 119.343C399.943 128.063 382.645 136.162 371.518 143.648C371.518 143.648 370.367 144.343 370.352 145.147C370.347 145.453 370.969 145.489 370.969 145.489C376.539 145.588 383.985 145.915 387.528 146.122C387.528 146.122 387.022 147.916 383.63 149.361C381.011 150.479 378.586 150.3 376.187 150.321C375.653 150.311 375.201 150.849 375.628 151.423C375.842 151.709 380.947 159.929 399.499 161.807M229.42 204.789H226.275C226.275 204.789 225.852 202.854 226.99 202.114C228.134 201.363 229.42 200.786 229.42 200.786L229.42 204.789ZM244.342 197.544C244.342 197.544 242.43 198.642 241.221 199.719C240.018 200.786 241.468 201.192 241.468 201.192V204.789H232.343V192.202C232.343 192.202 229.017 195.26 228.706 195.666C228.384 196.1 229.497 196.493 229.497 196.493L229.308 197.685C229.308 197.685 227.983 198.372 226.375 199.459C224.777 200.534 223.593 201.904 223.593 202.854C223.593 203.806 223.189 207.543 223.189 207.543H244.342V197.544ZM225.451 192.942C226.492 192.942 227.228 192.531 227.228 191.702C227.228 190.87 226.74 190.29 225.451 190.29C224.305 190.29 223.999 190.79 223.999 191.702C223.999 192.621 224.397 192.942 225.451 192.942M229.341 192.942C230.393 192.942 231.105 192.531 231.105 191.702C231.105 190.87 230.622 190.29 229.341 190.29C228.19 190.29 227.889 190.79 227.889 191.702C227.889 192.621 228.284 192.942 229.341 192.942M235.235 208.625C234.096 208.625 233.782 209.113 233.782 210.029C233.782 210.938 234.186 211.269 235.235 211.269C236.276 211.269 237.014 210.856 237.014 210.029C237.014 209.194 236.534 208.625 235.235 208.625M239.278 208.625C238.14 208.625 237.828 209.113 237.828 210.029C237.828 210.938 238.242 211.269 239.278 211.269C240.335 211.269 241.06 210.856 241.06 210.029C241.06 209.194 240.583 208.625 239.278 208.625ZM284.859 192.695C285.908 192.695 286.643 192.294 286.643 191.464C286.643 190.64 286.158 190.05 284.859 190.05C283.723 190.05 283.414 190.551 283.414 191.464C283.414 192.378 283.82 192.695 284.859 192.695ZM288.9 192.695C289.941 192.695 290.671 192.294 290.671 191.464C290.671 190.64 290.186 190.05 288.9 190.05C287.756 190.05 287.452 190.551 287.452 191.464C287.452 192.378 287.843 192.695 288.9 192.695ZM300.054 193.037C299.485 193.529 299.651 194.119 300.373 194.037V207.561H303.37V190.727C303.37 190.727 300.613 192.547 300.054 193.037ZM288.011 200.62H286.071C286.071 199.556 288.011 198.966 288.011 198.966V200.62ZM275.241 202.854C275.241 203.344 275.218 204.143 275.195 204.789H258.264V201.812C258.705 200.666 259.451 200.534 260.605 200.534H272.982C275.654 200.534 275.241 201.94 275.241 202.854M295.041 194.022V204.789H291.011V195.012C291.011 195.012 290.186 195.329 289.055 195.829C287.935 196.337 283.881 197.984 283.881 200.209V202.782H288.011V204.789H278.215C278.222 204.316 278.232 203.622 278.232 202.604C278.232 199.395 275.499 197.649 273.066 197.649H261.74C259.757 197.649 258.8 198.129 258.264 198.678V190.39C258.264 190.39 256.495 191.633 255.196 192.621C253.899 193.609 255.196 194.272 255.196 194.272V204.789H251.484L251.405 195.763C251.405 195.763 248.822 197.649 248.082 198.224C247.359 198.795 247.76 199.306 248.569 199.306C248.569 199.306 248.421 205.971 248.421 207.543C248.421 209.125 247.112 210.933 244.363 210.111C244.363 210.111 243.49 210.279 244.215 210.938C244.937 211.594 245.81 212.094 246.788 212.094C247.76 212.094 251.323 211.423 251.323 207.543H298.027V190.716C298.027 190.716 295.278 192.531 294.712 193.024C294.143 193.516 294.308 194.109 295.041 194.022" fill="#5C0632"/>
</svg>
