<svg width="480" height="320" viewBox="0 0 480 320" fill="none" xmlns="http://www.w3.org/2000/svg">
<path d="M149.743 198.974H141.537V133.331H149.743V198.974ZM338.464 198.974H330.257V133.331H338.464V198.974ZM322.053 141.535H301.544V198.98H293.331V141.535H272.821V133.337H322.053V141.535ZM231.796 141.535V157.949H252.306V166.155H231.796V190.767H264.618V198.971H223.59V133.331H264.618V141.538H231.796V141.535ZM215.386 133.337V198.974H208.725L166.154 148.021V198.98H157.95V133.331H164.599L207.179 184.26V133.337H215.386ZM121.559 198.971L116.042 192.373H116.036L110.736 186.037L100.977 174.356H111.736L117.069 180.734C127.369 169.407 127.729 152.219 117.928 140.466C108.121 128.71 91.1427 125.986 78.1554 134.088C65.1651 142.187 60.1383 158.627 66.3842 172.609C72.6211 186.587 88.215 193.821 102.92 189.557L108.556 196.298C104.034 198.07 99.2174 198.98 94.3588 198.971C72.8614 198.974 55.3848 181.497 55.3848 160.003C55.3848 138.502 72.8674 121.026 94.3618 121.026C115.85 121.026 133.333 138.508 133.333 160.003C133.342 170.107 129.408 179.821 122.372 187.073L132.318 198.974H121.559V198.971ZM412.841 198.971L407.316 192.37L402.019 186.034L392.26 174.353H403.016L408.349 180.731C418.649 169.404 419.015 152.216 409.208 140.463C399.401 128.707 382.422 125.983 369.435 134.085C356.445 142.184 351.418 158.624 357.664 172.606C363.904 186.584 379.495 193.818 394.203 189.554L399.836 196.295C395.311 198.067 390.497 198.977 385.632 198.968C364.147 198.968 346.661 181.491 346.661 159.997C346.661 138.502 364.147 121.02 385.639 121.02C407.127 121.02 424.616 138.502 424.616 159.997C424.616 170.101 420.682 179.815 413.646 187.067L423.592 198.968H412.832L412.841 198.971Z" fill="#002744"/>
</svg>
