<svg width="480" height="320" viewBox="0 0 480 320" fill="none" xmlns="http://www.w3.org/2000/svg">
<path fill-rule="evenodd" clip-rule="evenodd" d="M424.616 110.453H55.3848V209.546H424.616V110.453Z" fill="white"/>
<path fill-rule="evenodd" clip-rule="evenodd" d="M108.305 137.318C113.065 137.318 118.914 136.686 120.165 143.246C120.475 144.904 120.554 146.092 120.554 147.2C120.554 155.337 116.497 159.291 108.305 158.501L108.305 137.318ZM96.6017 187.269C98.5533 187.11 100.503 186.871 102.454 186.871C104.404 186.871 106.354 187.109 108.306 187.269V161.898H108.851C110.569 164.9 112.752 168.535 113.922 170.672L123.207 187.269C125.548 187.11 127.887 186.871 130.229 186.871C132.646 186.871 134.987 187.11 137.328 187.269L134.284 182.366C129.603 175.019 124.767 167.746 120.475 160.16C127.731 158.579 132.646 153.678 132.646 145.933C132.646 140.559 130.307 137.005 125.857 134.633C122.582 132.893 116.887 133.051 113.219 133.051H96.6016L96.6017 187.269ZM171.438 172.461L176.373 159.681L181.045 172.461H171.438ZM182.251 175.805C183.669 179.478 184.771 183.21 185.978 187.268C187.499 187.157 188.971 186.991 190.492 186.991C192.014 186.991 193.485 187.157 195.007 187.268L180.362 149.153C179.68 149.262 179.049 149.315 178.367 149.315C177.684 149.315 177.056 149.262 176.373 149.153L161.36 187.157C162.2 187.103 163.039 186.991 163.879 186.991C164.718 186.991 165.506 187.103 166.345 187.157C167.342 183.372 168.656 179.974 170.021 175.805L182.251 175.805ZM240.503 187.268C244.914 174.38 250.058 162.095 255.148 149.645C254.361 149.756 253.521 149.81 252.735 149.81C251.948 149.81 251.107 149.756 250.321 149.645C247.485 158.751 244.072 167.8 240.503 176.792C237.355 167.688 233.784 158.751 231.212 149.645C229.69 149.756 228.115 149.922 226.593 149.922C225.07 149.922 223.497 149.756 221.973 149.645C226.908 162.095 231.632 174.488 236.041 187.268C236.777 187.158 237.51 186.992 238.3 186.992C239.034 186.992 239.769 187.158 240.503 187.268M288.866 149.645V186.992H308.865C308.761 186.225 308.604 185.403 308.604 184.634C308.604 183.866 308.761 183.046 308.865 182.277C305.663 182.714 302.093 182.987 296.74 183.046V169.113H302.2C304.562 169.113 306.713 169.332 308.654 169.608C308.551 168.84 308.393 168.019 308.393 167.251C308.393 166.483 308.551 165.658 308.654 164.891C306.713 165.167 304.562 165.385 302.2 165.385H296.74V153.596C302.093 153.484 305.663 153.922 308.865 154.363C308.761 153.596 308.604 152.771 308.604 152.002C308.604 151.236 308.761 150.414 308.865 149.645H288.866ZM348.61 187.157C349.294 187.103 350.028 186.991 350.711 186.991C351.394 186.991 352.128 187.103 352.811 187.157V160.613L358.533 166.867C364.463 173.39 370.134 180.139 376.221 187.211L380.683 187.268V149.645C380.002 149.757 379.265 149.811 378.586 149.811C377.903 149.811 377.168 149.757 376.485 149.645V175.313C369.083 166.482 361.261 158.146 353.807 149.645H348.61V187.157Z" fill="#163962"/>
</svg>
