<svg width="480" height="320" viewBox="0 0 480 320" fill="none" xmlns="http://www.w3.org/2000/svg">
<path d="M394.68 53.332H324.793C287.567 55.9495 271.015 81.5373 249.5 101.61C287.357 99.32 326.745 110.816 362.09 85.9248L394.68 53.332Z" fill="#F5191B"/>
<path d="M394.681 53.3359V123.223C392.064 160.448 366.476 177 346.402 198.516C348.693 160.659 337.197 121.271 362.089 85.9259L394.681 53.3359Z" fill="#079CF6"/>
<path d="M85.3203 132.684V192.29H100.658V171.724H111.812L127.846 192.988H146.321L127.846 168.936C139.837 171.141 148.779 138.976 124.709 132.684L85.3203 132.684ZM100.998 145.343H118.868C127.832 149.772 123.2 157.99 118.868 159.393H100.998V145.343ZM173.71 132.685L151.403 192.988H166.356L171.036 182.088L190.918 181.914L195.772 192.988H210.48L188.173 132.685H173.71ZM181.882 150.297L187.429 169.711H175.469L181.882 150.297Z" fill="#F5191B"/>
<path d="M236.066 200.805L221.418 239.171H231.237L234.31 232.236L247.366 232.126L250.554 239.171H260.212L245.563 200.805H236.066V200.805ZM241.432 212.009L245.075 224.361H237.221L241.432 212.009Z" fill="#079CF6"/>
<path d="M278.705 132.684L256.398 192.987H271.352L276.032 182.087L295.915 181.914L300.768 192.987H315.476L293.17 132.684H278.705ZM286.878 150.296L292.425 169.709H280.465L286.878 150.296Z" fill="#F5191B"/>
<path d="M99.9684 200.805L85.3203 239.171H95.1397L98.2127 232.237L111.269 232.127L114.456 239.171H124.114L109.466 200.805H99.9684V200.805ZM105.335 212.01L108.977 224.361H101.123L105.335 212.01Z" fill="#079CF6"/>
<path d="M226.553 168.68V192.94H241.455V168.68L261.21 132.637H246.48L234.524 155.164L222.047 132.637H206.625L226.553 168.68Z" fill="#F5191B"/>
<path d="M264.684 223.364V238.501H274.469V223.364L287.442 200.875H277.77L269.918 214.93L261.725 200.875H251.598L264.684 223.364ZM128.906 239.167V200.801H136.636V239.167H128.906ZM187.634 239.167L178.129 201.074L187.395 200.904L192.101 224.952L198.093 200.924H206.422L212.33 224.873L217.304 200.924L226.277 200.904L216.456 239.167H209.025L201.417 214.527L195.23 239.167H187.634L187.634 239.167ZM144.208 200.964V238.922H153.574V225.119H160.722L170.827 239.167H180.687L169.718 224.256C179.697 221.81 180.026 205.002 168.116 201.209L144.208 200.964ZM153.952 209.276H163.973C170.167 211.279 166.551 218.146 163.973 217.555H153.952V209.363V209.276Z" fill="#079CF6"/>
<path d="M94.8028 256.247C94.8028 257.124 94.5995 257.911 94.1941 258.607C93.7874 259.298 93.2748 259.83 92.6546 260.202C92.1813 260.482 91.6629 260.679 91.1225 260.783C90.5667 260.893 89.9079 260.947 89.1473 260.947H85.7812V251.528H89.2435C90.0215 251.528 90.6928 251.593 91.2569 251.724C91.8214 251.85 92.2953 252.032 92.6799 252.268C93.3308 252.656 93.8665 253.211 94.2323 253.875C94.6123 254.546 94.8028 255.336 94.8028 256.247ZM92.2576 256.229C92.2576 255.608 92.1421 255.079 91.9116 254.64C91.6847 254.198 91.324 253.852 90.8271 253.603C90.5821 253.482 90.3205 253.399 90.0509 253.356C89.7905 253.31 89.3958 253.287 88.8653 253.287H88.2441V259.182H88.8653C89.4505 259.182 89.8807 259.157 90.1535 259.107C90.4337 259.05 90.7038 258.952 90.955 258.816C91.4041 258.562 91.7331 258.225 91.9429 257.803C92.1527 257.377 92.2576 256.852 92.2576 256.228V256.229ZM103.587 260.947H96.6819V251.528H103.587V253.349H99.1305V254.976H103.266V256.797H99.1305V259.126H103.587V260.947ZM112.545 260.947H105.658V251.528H108.121V259.126H112.545V260.947H112.545ZM119.181 260.947H113.59V259.278H115.153V253.197H113.59V251.528H119.181V253.197H117.616V259.278H119.181V260.947ZM129.856 251.528L126.375 260.948H123.618L120.136 251.528H122.721L125.028 258.146L127.337 251.528H129.856ZM138.134 260.947H131.228V251.528H138.134V253.349H133.678V254.976H137.813V256.797H133.678V259.126H138.134V260.947ZM145.559 254.413C145.559 254.176 145.509 253.974 145.412 253.805C145.314 253.636 145.144 253.504 144.905 253.407C144.718 253.336 144.521 253.295 144.321 253.287C144.063 253.269 143.804 253.26 143.545 253.261H142.653V255.798H143.411C143.804 255.798 144.133 255.78 144.398 255.741C144.663 255.703 144.886 255.617 145.064 255.482C145.236 255.351 145.36 255.208 145.437 255.051C145.517 254.892 145.559 254.679 145.559 254.413ZM149.399 260.947H146.392L143.789 257.494H142.654V260.947H140.205V251.528H144.334C144.898 251.528 145.383 251.559 145.79 251.622C146.195 251.686 146.577 251.823 146.931 252.034C147.278 252.234 147.571 252.516 147.783 252.856C147.997 253.19 148.104 253.609 148.104 254.115C148.104 254.812 147.94 255.378 147.611 255.817C147.286 256.255 146.82 256.62 146.213 256.911L149.399 260.947ZM155.651 260.947H150.059V259.278H151.624V253.197H150.059V251.528H155.651V253.197H154.086V259.278H155.651V260.947ZM166.352 260.947H163.979L159.928 254.482V260.947H157.67V251.528H160.614L164.094 256.924V251.528H166.351V260.947H166.352ZM177.245 260.41C176.819 260.574 176.252 260.739 175.547 260.903C174.841 261.064 174.138 261.144 173.437 261.144C171.813 261.144 170.542 260.709 169.622 259.84C168.704 258.968 168.244 257.763 168.244 256.228C168.244 254.764 168.708 253.585 169.635 252.691C170.562 251.793 171.855 251.344 173.514 251.344C174.141 251.344 174.74 251.4 175.308 251.514C175.877 251.624 176.51 251.845 177.207 252.178V254.386H176.931C176.812 254.298 176.636 254.173 176.405 254.013C176.175 253.849 175.952 253.71 175.738 253.595C175.461 253.449 175.169 253.332 174.867 253.248C174.525 253.149 174.17 253.1 173.814 253.102C173.379 253.102 172.983 253.165 172.629 253.292C172.274 253.418 171.949 253.617 171.674 253.874C171.404 254.127 171.189 254.449 171.032 254.842C170.879 255.231 170.802 255.679 170.802 256.189C170.802 257.232 171.081 258.029 171.641 258.582C172.201 259.133 173.028 259.41 174.123 259.41C174.217 259.41 174.319 259.407 174.431 259.404C174.546 259.399 174.651 259.393 174.745 259.384V257.537H172.841V255.76H177.245V260.41H177.245ZM191.403 253.35H188.421V260.948H185.96V253.35H182.979V251.528H191.403V253.35H191.403ZM198.237 254.413C198.237 254.176 198.189 253.974 198.09 253.805C197.992 253.636 197.823 253.504 197.584 253.407C197.398 253.336 197.201 253.295 197.001 253.287C196.742 253.269 196.484 253.26 196.225 253.261H195.333V255.798H196.09C196.483 255.798 196.812 255.78 197.077 255.741C197.343 255.703 197.564 255.617 197.744 255.482C197.915 255.351 198.039 255.208 198.116 255.051C198.197 254.892 198.237 254.679 198.237 254.413ZM202.078 260.947H199.072L196.468 257.494H195.333V260.947H192.883V251.528H197.014C197.578 251.528 198.063 251.559 198.468 251.622C198.875 251.686 199.255 251.823 199.61 252.034C199.957 252.234 200.25 252.516 200.463 252.856C200.677 253.19 200.784 253.609 200.784 254.115C200.784 254.812 200.618 255.378 200.289 255.817C199.964 256.255 199.498 256.62 198.892 256.911L202.078 260.947ZM211.53 257.538C211.53 258.702 211.171 259.594 210.452 260.214C209.734 260.834 208.676 261.144 207.279 261.144C205.88 261.144 204.822 260.834 204.105 260.214C203.391 259.594 203.033 258.704 203.033 257.544V251.528H205.508V257.405C205.508 258.059 205.647 258.546 205.926 258.866C206.203 259.187 206.654 259.347 207.279 259.347C207.894 259.347 208.343 259.193 208.624 258.885C208.911 258.577 209.054 258.084 209.054 257.405V251.528H211.53V257.538ZM221.481 257.988C221.481 258.915 221.082 259.67 220.283 260.252C219.488 260.83 218.405 261.119 217.038 261.119C216.247 261.119 215.557 261.051 214.967 260.917C214.405 260.785 213.854 260.609 213.32 260.392V258.133H213.588C214.1 258.536 214.677 258.848 215.294 259.057C215.926 259.272 216.534 259.38 217.115 259.38C217.264 259.38 217.461 259.366 217.705 259.341C217.948 259.316 218.147 259.274 218.301 259.216C218.489 259.139 218.642 259.044 218.762 258.931C218.886 258.817 218.948 258.648 218.948 258.424C218.948 258.217 218.859 258.04 218.679 257.893C218.504 257.741 218.246 257.625 217.903 257.545C217.525 257.456 217.145 257.378 216.762 257.31C216.383 257.239 216.008 257.144 215.64 257.026C214.836 256.768 214.258 256.421 213.903 255.982C213.553 255.539 213.377 254.991 213.377 254.338C213.377 253.46 213.775 252.745 214.569 252.193C215.368 251.635 216.394 251.358 217.646 251.358C218.275 251.358 218.894 251.419 219.506 251.541C220.121 251.659 220.654 251.809 221.102 251.991V254.16H220.839C220.455 253.857 219.983 253.604 219.422 253.402C218.877 253.197 218.299 253.092 217.717 253.092C217.511 253.091 217.305 253.106 217.102 253.136C216.901 253.161 216.705 253.212 216.518 253.288C216.354 253.349 216.206 253.449 216.088 253.579C215.968 253.705 215.908 253.85 215.908 254.016C215.908 254.264 216.004 254.456 216.197 254.591C216.388 254.722 216.753 254.841 217.286 254.951C217.636 255.023 217.972 255.093 218.293 255.16C218.618 255.227 218.966 255.32 219.338 255.439C220.07 255.674 220.607 255.997 220.953 256.407C221.306 256.81 221.481 257.337 221.481 257.988ZM230.643 253.35H227.662V260.948H225.2V253.35H222.219V251.528H230.643V253.35H230.643ZM245.434 260.947H242.889L242.229 259.043H238.69L238.029 260.947H235.548L239.074 251.528H241.909L245.434 260.947ZM241.633 257.316L240.459 253.938L239.286 257.316H241.633ZM255.503 260.947H253.129L249.076 254.482V260.947H246.821V251.528H249.763L253.246 256.924V251.528H255.503V260.947ZM266.973 256.247C266.973 257.124 266.77 257.911 266.363 258.607C265.956 259.298 265.443 259.83 264.823 260.202C264.35 260.482 263.833 260.679 263.293 260.783C262.735 260.893 262.077 260.947 261.317 260.947H257.95V251.528H261.412C262.191 251.528 262.863 251.593 263.426 251.724C263.991 251.85 264.466 252.032 264.851 252.268C265.501 252.657 266.036 253.211 266.4 253.875C266.782 254.546 266.973 255.336 266.973 256.247ZM264.428 256.229C264.428 255.608 264.311 255.079 264.08 254.64C263.854 254.198 263.494 253.852 262.996 253.603C262.751 253.483 262.49 253.399 262.221 253.356C261.961 253.31 261.564 253.287 261.036 253.287H260.413V259.182H261.036C261.619 259.182 262.049 259.157 262.323 259.107C262.599 259.052 262.865 258.955 263.126 258.816C263.574 258.562 263.902 258.225 264.112 257.803C264.322 257.377 264.428 256.852 264.428 256.228V256.229H264.428ZM281.996 251.528L278.513 260.948H275.756L272.275 251.528H274.859L277.167 258.146L279.477 251.528H281.996ZM292.189 260.947H289.644L288.983 259.043H285.445L284.784 260.947H282.302L285.827 251.528H288.664L292.189 260.947ZM288.388 257.316L287.214 253.938L286.04 257.316H288.388ZM300.462 260.947H293.574V251.528H296.036V259.126H300.462V260.947ZM310.297 257.538C310.297 258.702 309.937 259.594 309.22 260.214C308.501 260.834 307.443 261.144 306.046 261.144C304.649 261.144 303.589 260.834 302.872 260.214C302.158 259.594 301.8 258.704 301.8 257.544V251.528H304.276V257.405C304.276 258.059 304.415 258.546 304.693 258.866C304.97 259.187 305.422 259.347 306.046 259.347C306.662 259.347 307.112 259.193 307.392 258.885C307.679 258.577 307.823 258.084 307.823 257.405V251.528H310.298V257.538H310.297ZM319.51 260.947H312.606V251.528H319.51V253.349H315.053V254.976H319.191V256.797H315.053V259.126H319.51V260.947Z" fill="#666666"/>
<path d="M85.3203 247.562H320.43H85.3203ZM85.3203 265.747H320.43H85.3203Z" fill="#666666"/>
<path d="M85.3203 247.562H320.43M85.3203 265.747H320.43" stroke="#666666" stroke-width="4.60096" stroke-miterlimit="10"/>
<path fill-rule="evenodd" clip-rule="evenodd" d="M307.185 207.802C308.526 207.916 310.445 207.971 312.309 208.276C314.596 208.651 315.551 207.753 315.861 205.63C316.167 203.55 316.085 201.807 313.419 201.587C308.176 201.148 302.897 200.296 297.671 200.562C291.598 200.875 288.153 204.198 287.364 209.017C286.563 213.964 288.688 217.462 294.508 220.176C298.312 221.949 302.339 223.214 306.114 225.008C307.368 225.604 309.02 227.314 308.866 228.271C308.677 229.396 306.752 231.098 305.574 231.096C300.64 231.09 295.655 231.219 290.766 230.525C288.769 230.254 287.295 229.841 286.626 232.107C285.975 234.272 285.649 236.72 288.621 237.178C294.339 238.087 300.152 238.789 305.854 238.529C313.093 238.198 317.834 232.517 317.377 226.589C317.031 222.04 313.897 219.944 310.162 218.312C306.075 216.528 301.876 214.965 297.867 213.031C296.91 212.56 295.875 210.909 296.035 209.99C296.189 209.13 297.821 208.045 298.9 207.906C301.449 207.603 304.052 207.802 307.185 207.802Z" fill="#079CF6"/>
<path fill-rule="evenodd" clip-rule="evenodd" d="M307.185 207.802C304.051 207.802 301.449 207.603 298.9 207.906C297.82 208.045 296.189 209.13 296.035 209.99C295.875 210.909 296.91 212.56 297.866 213.031C301.875 214.965 306.074 216.528 310.161 218.312C313.896 219.944 317.031 222.04 317.377 226.589C317.833 232.517 313.093 238.199 305.853 238.529C300.151 238.789 294.339 238.087 288.621 237.178C285.649 236.72 285.975 234.272 286.626 232.107C287.295 229.84 288.77 230.253 290.766 230.525C295.655 231.219 300.64 231.091 305.574 231.096C306.752 231.098 308.677 229.396 308.865 228.271C309.02 227.314 307.367 225.604 306.114 225.008C302.338 223.214 298.312 221.95 294.508 220.176C288.688 217.461 286.563 213.964 287.364 209.017C288.152 204.198 291.597 200.875 297.671 200.562C302.896 200.296 308.176 201.147 313.418 201.587C316.085 201.807 316.167 203.551 315.861 205.63C315.55 207.753 314.596 208.651 312.309 208.276C310.445 207.971 308.526 207.916 307.185 207.802V207.802Z" fill="#079CF6"/>
</svg>
