<svg width="480" height="320" viewBox="0 0 480 320" fill="none" xmlns="http://www.w3.org/2000/svg">
<path fill-rule="evenodd" clip-rule="evenodd" d="M221.593 147.81L212.262 126.256H220.933L225.555 138.435L229.913 126.256H238.409L224.267 159.045H216.251L221.593 147.81ZM97.9181 138.132C98.7446 138.214 99.5637 138.359 100.368 138.565L104.635 114.077C103.824 113.907 103.008 113.762 102.188 113.641L97.9181 138.132ZM85.0248 142.471L66.238 126.512C65.3663 127.469 64.5394 128.465 63.7602 129.499L82.5028 145.429C83.2244 144.347 84.0709 143.355 85.0248 142.471ZM117.786 119.408C117.127 118.994 116.461 118.594 115.778 118.218L103.502 139.721C104.204 140.065 104.881 140.456 105.524 140.893L117.786 119.408ZM127.062 127.397L108.331 143.301C108.792 143.793 109.222 144.313 109.623 144.858L128.345 128.962C127.93 128.43 127.503 127.908 127.062 127.397ZM80.1201 150.958C80.4597 149.483 80.9879 148.082 81.6843 146.786L58.6761 138.303C58.0955 139.674 57.5894 141.075 57.1601 142.5L80.1201 150.958ZM112.83 154.705C112.83 163.906 105.412 171.363 96.2627 171.363C88.0679 171.363 81.2678 165.379 79.9366 157.522L56.9694 165.992C57.4749 167.782 58.0999 169.536 58.8401 171.242L81.6668 162.826L63.034 178.677C64.2102 180.338 65.5074 181.91 66.915 183.38L84.3387 168.573L72.9724 188.591C74.7776 189.861 76.6863 190.991 78.6873 191.957L89.3683 173.151L85.6412 194.551C87.9223 195.171 90.2813 195.592 92.7017 195.805L96.1787 175.805L99.6678 195.816C102.201 195.603 104.669 195.16 107.049 194.502L103.814 175.937L113.131 192.28C115.671 191.112 118.084 189.687 120.332 188.027L111.781 173.044L124.857 184.147C126.949 182.072 128.813 179.779 130.419 177.309L118.733 167.393L133.038 172.664C134.363 169.905 135.387 166.97 136.081 163.909L123.524 159.286L136.868 159.284C137.04 157.741 137.137 156.176 137.137 154.588C137.137 152.748 137.006 150.942 136.777 149.167H111.888C112.512 150.947 112.831 152.819 112.83 154.705ZM79.6956 154.705C79.6956 153.781 79.7746 152.875 79.919 151.991H55.4731C55.4176 152.85 55.3848 153.713 55.3848 154.588C55.3848 155.402 55.4145 156.21 55.4606 157.013H79.8576C79.754 156.259 79.6956 155.49 79.6956 154.706V154.705ZM86.6607 141.138C87.5598 140.492 88.522 139.938 89.5325 139.486L77.2534 117.951C76.2791 118.471 75.3263 119.031 74.3972 119.628L86.6607 141.138ZM87.7581 114.107C88.6493 113.915 89.5541 113.756 90.4668 113.625L94.7375 138.122C93.8084 138.207 92.9007 138.368 92.0207 138.602L87.7581 114.107ZM308.487 195.099H312.227V162.365H308.487V195.099ZM377.633 163.426C378.102 163.927 378.34 164.562 378.34 165.329C378.34 166.094 378.102 166.729 377.633 167.231C377.164 167.73 376.548 167.982 375.785 167.982C375.022 167.982 374.407 167.73 373.938 167.231C373.469 166.729 373.235 166.094 373.235 165.329C373.235 164.562 373.469 163.927 373.938 163.426C374.407 162.926 375.022 162.676 375.785 162.676C376.548 162.676 377.164 162.925 377.633 163.426ZM276.685 149.093V136.707C276.685 133.996 275.674 132.639 273.649 132.639C272.535 132.639 271.693 133.014 271.12 133.765C270.547 134.517 270.263 135.601 270.263 137.016V149.093H262.342V115.475H270.263V128.7C270.907 127.7 271.786 126.926 272.902 126.378C274.016 125.833 275.276 125.56 276.685 125.56C279.294 125.56 281.269 126.372 282.602 127.993C283.938 129.616 284.605 132.019 284.605 135.203V149.093L276.685 149.093ZM298.611 187.645C298.26 188.664 297.753 189.527 297.095 190.233C296.434 190.942 295.648 191.495 294.74 191.893C293.831 192.288 292.804 192.489 291.66 192.489C290.519 192.489 289.49 192.288 288.581 191.893C287.671 191.495 286.886 190.942 286.226 190.233C285.567 189.527 285.06 188.664 284.709 187.645C284.357 186.627 284.181 185.498 284.181 184.26C284.181 183.022 284.357 181.893 284.709 180.877C285.06 179.861 285.567 178.999 286.226 178.287C286.886 177.583 287.671 177.029 288.581 176.631C289.49 176.232 290.519 176.034 291.66 176.034C292.804 176.034 293.831 176.232 294.74 176.631C295.648 177.029 296.434 177.583 297.095 178.288C297.753 178.999 298.26 179.861 298.611 180.877C298.963 181.894 299.141 183.022 299.141 184.26C299.141 185.498 298.963 186.627 298.611 187.645H298.611ZM299.733 175.99C298.724 174.958 297.527 174.147 296.148 173.554C294.768 172.964 293.272 172.671 291.66 172.671C290.048 172.671 288.552 172.964 287.173 173.554C285.793 174.147 284.599 174.958 283.587 175.99C282.575 177.022 281.783 178.244 281.21 179.659C280.639 181.076 280.352 182.61 280.352 184.26C280.352 185.913 280.639 187.445 281.21 188.861C281.783 190.276 282.575 191.502 283.587 192.534C284.599 193.566 285.793 194.377 287.173 194.966C288.552 195.554 290.048 195.851 291.66 195.851C293.272 195.851 294.768 195.554 296.148 194.966C297.527 194.377 298.724 193.566 299.733 192.534C300.745 191.502 301.539 190.276 302.109 188.861C302.681 187.445 302.967 185.913 302.967 184.26C302.967 182.61 302.681 181.076 302.109 179.659C301.539 178.244 300.745 177.022 299.733 175.99ZM373.938 195.098H377.677V173.291H373.938V195.098ZM362.325 127.993C363.66 129.616 364.327 132.019 364.327 135.203V149.093H356.407V136.707C356.407 133.996 355.396 132.639 353.37 132.639C352.256 132.639 351.415 133.014 350.841 133.765C350.27 134.517 349.984 135.601 349.984 137.016V149.093H342.064V126.267H349.808L349.897 129.099C350.482 127.98 351.34 127.108 352.469 126.488C353.598 125.87 354.911 125.56 356.407 125.56C359.018 125.56 360.99 126.372 362.325 127.993V127.993ZM294.792 135.568C295.396 132.487 297.056 130.948 299.762 130.948C301.079 130.948 302.149 131.35 302.969 132.155C303.788 132.963 304.286 134.1 304.466 135.568H294.792ZM311.003 136.973C311.003 135.203 310.746 133.617 310.233 132.217C309.718 130.817 308.98 129.622 308.01 128.633C307.042 127.647 305.868 126.888 304.492 126.355C303.112 125.826 301.571 125.56 299.873 125.56C298.111 125.56 296.507 125.855 295.053 126.444C293.602 127.036 292.348 127.859 291.292 128.922C290.236 129.982 289.423 131.259 288.851 132.75C288.279 134.237 287.993 135.883 287.993 137.68C287.993 139.54 288.307 141.219 288.939 142.723C289.568 144.226 290.479 145.504 291.667 146.549C292.853 147.598 294.29 148.401 295.978 148.961C297.664 149.521 299.563 149.802 301.677 149.802C303.435 149.802 305.13 149.595 306.758 149.183C308.385 148.77 309.771 148.179 310.914 147.413L308.407 142.326C307.468 142.739 306.448 143.056 305.349 143.277C304.249 143.496 303.26 143.607 302.38 143.607C298.771 143.607 295.585 142.312 294.794 139.715H310.739C310.914 138.98 311.003 138.064 311.003 136.973ZM329.835 141.619C328.923 142.62 327.721 143.122 326.226 143.122C324.73 143.122 323.527 142.62 322.619 141.619C321.708 140.616 321.255 139.303 321.255 137.68C321.255 136.059 321.708 134.748 322.619 133.743C323.527 132.741 324.73 132.24 326.226 132.24C327.721 132.24 328.923 132.741 329.835 133.743C330.742 134.748 331.198 136.059 331.198 137.68C331.198 139.303 330.742 140.616 329.835 141.619ZM335.157 129.012C334.042 127.92 332.722 127.072 331.198 126.466C329.67 125.863 328.014 125.56 326.226 125.56C324.435 125.56 322.779 125.863 321.255 126.466C319.728 127.072 318.408 127.92 317.294 129.012C316.18 130.102 315.307 131.385 314.677 132.859C314.045 134.333 313.73 135.94 313.73 137.68C313.73 139.421 314.045 141.028 314.677 142.503C315.307 143.976 316.18 145.26 317.295 146.352C318.408 147.444 319.728 148.289 321.255 148.895C322.779 149.499 324.435 149.802 326.226 149.802C328.015 149.802 329.67 149.499 331.198 148.895C332.722 148.289 334.042 147.444 335.157 146.352C336.271 145.26 337.144 143.976 337.773 142.503C338.405 141.028 338.722 139.421 338.722 137.68C338.722 135.94 338.405 134.333 337.773 132.859C337.144 131.385 336.271 130.102 335.157 129.012ZM272.675 175.083C274.024 176.688 274.699 179.043 274.699 182.139V195.099H270.959V182.8C270.959 180.442 270.557 178.715 269.75 177.627C268.943 176.534 267.66 175.99 265.902 175.99C263.963 175.99 262.46 176.631 261.39 177.913C260.319 179.196 259.784 180.986 259.784 183.289V195.099H256.044V173.291H259.564L259.622 177.161C260.122 175.959 260.863 174.975 261.851 174.219C263.202 173.187 264.842 172.671 266.78 172.671C269.361 172.671 271.327 173.474 272.675 175.083H272.675ZM335.962 187.645C335.61 188.663 335.103 189.527 334.446 190.233C333.784 190.941 332.999 191.495 332.089 191.893C331.181 192.288 330.154 192.489 329.01 192.489C327.868 192.489 326.841 192.288 325.93 191.893C325.021 191.495 324.237 190.941 323.577 190.233C322.917 189.527 322.41 188.663 322.06 187.645C321.707 186.627 321.531 185.498 321.531 184.26C321.531 183.022 321.707 181.893 322.06 180.877C322.41 179.861 322.917 178.999 323.577 178.287C324.237 177.583 325.021 177.029 325.93 176.631C326.841 176.232 327.868 176.034 329.01 176.034C330.154 176.034 331.181 176.232 332.089 176.631C332.999 177.029 333.784 177.583 334.446 178.287C335.103 178.999 335.61 179.861 335.962 180.877C336.313 181.893 336.491 183.022 336.491 184.26C336.491 185.498 336.313 186.627 335.962 187.645ZM337.085 175.99C336.073 174.958 334.877 174.147 333.498 173.554C332.119 172.964 330.623 172.671 329.01 172.671C327.399 172.671 325.903 172.964 324.522 173.554C323.144 174.147 321.949 174.958 320.937 175.99C319.925 177.022 319.132 178.244 318.561 179.659C317.99 181.076 317.703 182.61 317.703 184.26C317.703 185.913 317.99 187.444 318.561 188.861C319.132 190.276 319.925 191.502 320.937 192.534C321.949 193.566 323.144 194.377 324.522 194.966C325.903 195.554 327.399 195.851 329.01 195.851C330.623 195.851 332.119 195.554 333.498 194.966C334.877 194.377 336.073 193.566 337.085 192.534C338.095 191.502 338.889 190.276 339.46 188.861C340.032 187.444 340.317 185.913 340.317 184.26C340.317 182.61 340.032 181.076 339.46 179.659C338.889 178.244 338.095 177.022 337.085 175.99ZM201.422 141.33C200.569 142.259 199.471 142.723 198.121 142.723C196.771 142.723 195.665 142.259 194.799 141.33C193.935 140.401 193.502 139.185 193.502 137.68C193.502 136.176 193.935 134.961 194.799 134.032C195.665 133.102 196.771 132.639 198.121 132.639C199.471 132.639 200.569 133.102 201.422 134.032C202.27 134.961 202.698 136.176 202.698 137.68C202.698 139.185 202.27 140.402 201.422 141.33ZM210.176 126.267H202.741L202.654 128.922C201.978 127.859 201.076 127.036 199.948 126.444C198.818 125.855 197.564 125.56 196.185 125.56C194.689 125.56 193.296 125.87 192.006 126.488C190.715 127.108 189.593 127.964 188.64 129.055C187.686 130.146 186.947 131.437 186.418 132.925C185.89 134.414 185.626 136.029 185.626 137.769C185.626 139.539 185.882 141.161 186.396 142.635C186.909 144.111 187.621 145.377 188.53 146.439C189.439 147.5 190.524 148.326 191.786 148.915C193.046 149.507 194.44 149.802 195.966 149.802C197.432 149.802 198.744 149.512 199.903 148.938C201.062 148.364 201.978 147.545 202.653 146.483L202.741 149.093H210.176V126.267ZM424.616 189.26C424.616 191.295 423.816 192.902 422.218 194.082C420.618 195.26 418.47 195.851 415.774 195.851C414.364 195.851 412.969 195.652 411.592 195.252C410.216 194.857 409.114 194.346 408.294 193.728L409.835 191.03C411.738 192.15 413.719 192.711 415.774 192.711C417.384 192.711 418.634 192.429 419.511 191.868C420.391 191.307 420.831 190.514 420.831 189.482C420.831 189.01 420.766 188.594 420.634 188.243C420.501 187.889 420.243 187.569 419.864 187.293C419.482 187.01 418.953 186.738 418.279 186.474C417.605 186.207 416.724 185.913 415.641 185.587C413.263 184.881 411.562 184.009 410.536 182.978C409.509 181.945 408.996 180.591 408.996 178.909C408.996 177.022 409.722 175.509 411.173 174.373C412.625 173.24 414.584 172.671 417.047 172.671C418.163 172.671 419.35 172.84 420.611 173.179C421.873 173.517 422.927 173.953 423.779 174.486L422.326 177.184C420.509 176.267 418.748 175.813 417.047 175.813C414.084 175.813 412.605 176.71 412.605 178.51C412.605 179.425 412.942 180.155 413.616 180.7C414.289 181.245 415.464 181.769 417.138 182.271C418.544 182.682 419.723 183.11 420.677 183.554C421.63 183.994 422.4 184.489 422.988 185.035C423.573 185.581 423.991 186.199 424.241 186.893C424.493 187.587 424.616 188.375 424.616 189.26ZM182.921 165.815H171.481V195.099H167.522V165.815H156.083V162.41H182.921V165.815ZM165.564 122.197H168.072C171.884 122.197 173.791 123.732 173.791 126.799C173.791 129.956 171.856 131.532 167.984 131.532H165.564V122.197ZM169.962 138.211L175.814 149.093H185.494L177.179 135.779C178.792 134.835 180.038 133.573 180.919 131.998C181.799 130.417 182.238 128.7 182.238 126.843C182.238 125.073 181.938 123.481 181.337 122.065C180.734 120.65 179.877 119.456 178.763 118.484C177.648 117.509 176.284 116.766 174.671 116.249C173.058 115.734 171.224 115.475 169.171 115.475H157.117V149.093H165.564V138.254H167.984L169.962 138.211ZM191.078 175.901C192.282 175.901 193.294 176.115 194.116 176.543C194.937 176.968 195.596 177.522 196.095 178.2C196.594 178.879 196.952 179.659 197.172 180.547C197.347 181.242 197.432 181.952 197.469 182.668H184.267C184.477 180.813 185.058 179.298 186.021 178.135C187.252 176.645 188.938 175.901 191.078 175.901ZM198.361 175.679C197.496 174.735 196.462 173.998 195.26 173.466C194.057 172.938 192.737 172.671 191.3 172.671C189.715 172.671 188.264 172.958 186.944 173.534C185.625 174.11 184.487 174.921 183.535 175.967C182.581 177.013 181.841 178.269 181.313 179.728C180.785 181.188 180.52 182.786 180.52 184.525C180.52 188.093 181.577 190.873 183.688 192.865C185.8 194.857 188.763 195.851 192.576 195.851C194.129 195.851 195.633 195.675 197.085 195.321C198.538 194.966 199.762 194.478 200.76 193.861L199.351 191.119C197.092 192.03 194.892 192.489 192.752 192.489C189.964 192.489 187.838 191.817 186.372 190.476C185.151 189.359 184.447 187.738 184.242 185.631H200.979C201.008 185.337 201.03 185.07 201.045 184.838C201.059 184.598 201.067 184.172 201.067 183.554C201.067 181.93 200.832 180.449 200.363 179.106C199.894 177.763 199.226 176.622 198.361 175.679V175.679ZM393.667 175.901C397.42 175.901 399.547 177.788 400.047 181.561C400.104 181.799 400.141 182.077 400.155 182.403C400.156 182.429 400.156 182.464 400.158 182.489H387.069C387.278 180.765 387.84 179.324 388.763 178.179C389.977 176.658 391.612 175.901 393.666 175.901H393.667ZM401.059 175.613C400.207 174.684 399.173 173.961 397.956 173.444C396.739 172.929 395.382 172.671 393.887 172.671C392.361 172.671 390.953 172.958 389.664 173.534C388.372 174.11 387.258 174.921 386.32 175.967C385.38 177.013 384.646 178.251 384.118 179.684C383.593 181.113 383.327 182.668 383.327 184.348C383.327 188.005 384.363 190.835 386.429 192.843C388.497 194.849 391.408 195.851 395.162 195.851C396.775 195.851 398.314 195.658 399.782 195.277C401.248 194.893 402.538 194.36 403.652 193.683L402.332 190.854C399.987 191.942 397.655 192.489 395.338 192.489C390.241 192.489 387.483 190.14 387.044 185.453H403.652C403.683 185.159 403.705 184.894 403.722 184.659C403.734 184.422 403.741 183.994 403.741 183.377C403.741 181.754 403.508 180.288 403.039 178.974C402.57 177.663 401.908 176.544 401.059 175.613ZM223.44 191.383L224.804 194.171C223.865 194.699 222.787 195.115 221.571 195.41C220.354 195.703 219.128 195.851 217.896 195.851C216.078 195.851 214.428 195.587 212.947 195.055C211.466 194.524 210.204 193.755 209.163 192.754C208.122 191.751 207.322 190.541 206.765 189.126C206.208 187.712 205.93 186.135 205.93 184.393C205.93 182.654 206.216 181.068 206.788 179.639C207.359 178.208 208.158 176.978 209.186 175.945C210.212 174.913 211.451 174.11 212.903 173.534C214.355 172.958 215.945 172.671 217.676 172.671C219.993 172.671 222.223 173.26 224.364 174.442L222.912 177.184C222.15 176.801 221.329 176.513 220.448 176.32C219.568 176.129 218.703 176.034 217.854 176.034C215.359 176.034 213.388 176.77 211.936 178.244C210.483 179.72 209.757 181.711 209.757 184.217C209.757 186.812 210.498 188.841 211.98 190.3C213.46 191.76 215.506 192.489 218.117 192.489C219.818 192.489 221.593 192.119 223.44 191.383ZM246.891 175.102C248.256 176.727 248.938 179.07 248.938 182.139V195.099H245.197V182.8C245.197 180.442 244.787 178.715 243.965 177.627C243.144 176.534 241.853 175.99 240.094 175.99C238.158 175.99 236.653 176.631 235.583 177.913C234.513 179.196 233.978 180.986 233.978 183.289V195.099H230.238V162.365H233.978V176.864C234.505 175.737 235.249 174.814 236.222 174.11C237.542 173.151 239.125 172.671 240.973 172.671C243.554 172.671 245.526 173.482 246.891 175.102L246.891 175.102ZM256.292 149.492C255.134 149.697 253.939 149.802 252.707 149.802C246.987 149.802 244.128 146.808 244.128 140.82V132.682H240.302V126.267H244.128V120.385H252.046V126.267H259.438L257.46 132.682H252.046V139.452C252.046 140.836 252.268 141.802 252.707 142.347C253.148 142.894 253.895 143.167 254.951 143.167C256.153 143.167 257.327 142.944 258.472 142.503L259.264 148.651C258.441 149.005 257.451 149.284 256.292 149.492ZM361.395 190.168C360.736 190.889 359.95 191.458 359.04 191.868C358.131 192.283 357.149 192.489 356.093 192.489C353.807 192.489 351.994 191.76 350.66 190.3C349.325 188.841 348.658 186.857 348.658 184.348C348.658 183.138 348.841 182.025 349.207 181.011C349.576 179.992 350.09 179.114 350.747 178.377C351.411 177.639 352.192 177.066 353.102 176.652C354.01 176.239 355.008 176.034 356.093 176.034C357.207 176.034 358.227 176.232 359.151 176.631C360.075 177.029 360.861 177.589 361.506 178.313C362.15 179.035 362.648 179.91 363.001 180.942C363.353 181.974 363.528 183.11 363.528 184.348C363.528 185.53 363.34 186.613 362.957 187.601C362.576 188.588 362.056 189.445 361.395 190.168V190.168ZM363.267 177.187C362.572 175.992 361.695 175.006 360.625 174.24C359.157 173.195 357.472 172.671 355.566 172.671C354.039 172.671 352.625 172.973 351.319 173.579C350.014 174.183 348.879 175.008 347.912 176.055C346.942 177.102 346.187 178.332 345.646 179.749C345.101 181.163 344.833 182.699 344.833 184.348C344.833 186.057 345.079 187.622 345.579 189.039C346.077 190.454 346.781 191.662 347.693 192.668C348.598 193.666 349.684 194.45 350.946 195.01C352.206 195.569 353.6 195.851 355.126 195.851C357.149 195.851 358.923 195.348 360.448 194.346C361.608 193.583 362.545 192.58 363.264 191.338V193.905C363.264 197.058 362.612 199.375 361.307 200.848C360.004 202.325 357.97 203.062 355.214 203.062C352.046 203.062 349.568 202.486 347.78 201.337L346.809 204.389C347.191 204.683 347.699 204.949 348.329 205.182C348.958 205.422 349.649 205.627 350.396 205.805C351.144 205.982 351.935 206.12 352.771 206.224C353.606 206.328 354.436 206.379 355.26 206.379C363.088 206.379 367.004 202.087 367.004 193.506V173.291H363.353L363.267 177.187Z" fill="#CE1126"/>
</svg>
