<svg width="480" height="320" viewBox="0 0 480 320" fill="none" xmlns="http://www.w3.org/2000/svg">
<path d="M83.0802 196.309C80.9562 198.497 77.4841 200.011 74.1245 200.475L82.6611 216.54H74.3568L66.2872 199.594H66.1603L62.9348 216.54H55.3848L61.9243 182.229C64.2111 181.137 68.2076 180.138 72.8315 180.138C81.2005 180.138 85.5059 183.481 85.9225 188.282C86.1787 191.249 85.3263 193.962 83.0802 196.309ZM72.4364 184.159C70.935 184.159 69.8646 184.312 69.0026 184.633L66.4452 198.184C66.79 198.234 67.1947 198.287 67.676 198.287C70.9398 198.287 74.2658 197.403 76.3132 195.159C77.9295 193.385 78.5784 190.674 78.3821 188.431C78.1737 186.034 76.6484 184.159 72.4364 184.159ZM110.335 203.14L91.5186 204.912C91.0086 210.025 93.5396 212.577 98.3718 212.577C101.566 212.577 104.806 211.478 106.046 210.853L107.078 214.972C105.393 215.92 101.408 217.058 96.9207 217.058C89.919 217.058 85.2018 213.669 84.6462 207.362C84.2655 202.882 85.4987 197.561 88.6882 193.498C91.3175 190.157 95.278 187.918 100.513 187.918C106.707 187.918 110.541 191.302 110.996 196.57C111.159 198.497 110.936 200.583 110.335 203.14ZM99.8421 191.927C95.6229 191.927 92.735 196.309 91.873 201.21L103.884 200.061C104.159 198.548 104.248 197.245 104.152 196.151C103.91 193.387 102.426 191.927 99.8421 191.927ZM135.179 217.371C133.725 224.938 128.165 228.271 120.476 228.271C116.535 228.271 112.291 227.227 110.359 226.188L112.727 222.069C113.869 222.747 116.671 223.683 119.875 223.683C124.702 223.683 127.207 221.181 127.971 217.479L128.206 216.227C127.157 216.648 125.418 217.01 123.512 217.01C117.25 217.01 113.189 213.308 112.686 207.47C112.279 202.827 113.934 196.833 117.543 192.971C120.533 189.796 124.86 187.921 130.507 187.921C135.471 187.921 138.974 189.116 140.411 189.999L135.179 217.371ZM129.561 191.824C126.501 191.824 124.324 193.498 122.835 195.895C120.737 199.177 119.638 204.498 119.906 207.57C120.162 210.595 121.862 212.941 125.473 212.941C126.97 212.941 128.107 212.733 128.886 212.369L132.726 192.343C132.027 192.08 130.914 191.824 129.561 191.824ZM147.35 216.54H140.135L145.451 188.433H152.731L147.35 216.54ZM150.247 183.373C148.349 183.373 146.67 182.126 146.557 180.763C146.385 178.785 148.423 177.169 151.002 177.169C152.975 177.169 154.644 178.366 154.768 179.777C154.941 181.759 152.769 183.373 150.247 183.373ZM176.159 211.478C173.465 214.972 169.837 217.058 164.6 217.058C157.869 217.058 154.11 212.941 153.643 207.57C153.25 203.03 154.653 197.245 157.527 193.498C160.214 189.997 163.975 187.918 169.143 187.918C175.876 187.918 179.566 191.927 180.029 197.245C180.409 201.735 179.087 207.628 176.159 211.478ZM168.812 191.927C166.296 191.927 164.519 193.387 163.281 195.629C161.701 198.548 160.324 204.551 160.642 208.303C160.87 210.853 162.045 212.683 164.897 212.683C167.419 212.683 169.057 211.22 170.237 209.141C171.825 206.268 173.319 199.963 172.998 196.256C172.785 193.754 171.602 191.927 168.812 191.927ZM208.672 196.57L204.894 216.54H197.621L201.45 196.462C201.536 195.895 201.56 195.368 201.517 194.898C201.354 193.019 199.911 192.03 197.049 192.03C194.947 192.03 193.606 192.245 192.411 192.659L187.887 216.543H180.608L185.646 189.999C188.074 188.962 192.473 187.921 197.645 187.921C204.039 187.921 208.416 189.796 208.825 194.431C208.883 195.104 208.751 196.053 208.672 196.57ZM233.736 214.972C231.583 216.066 228.274 217.058 223.372 217.058C216.229 217.058 211.359 213.463 210.822 207.312C210.423 202.666 211.9 196.929 215.631 192.971C218.619 189.796 222.953 187.921 228.597 187.921C233.571 187.921 237.072 189.116 238.506 189.999L233.736 214.972ZM227.644 191.824C224.579 191.824 222.343 193.498 220.858 195.895C218.756 199.177 217.769 204.228 218.03 207.312C218.301 210.331 220.147 212.841 223.755 212.841C225.113 212.841 226.258 212.685 226.983 212.371L230.819 192.346C230.182 192.08 229 191.824 227.644 191.824ZM245.96 175.605H253.17L245.433 216.54H238.223L245.96 175.605Z" fill="#004B85"/>
<path d="M271.185 195.894H281.735L280.892 200.369H270.284L268.093 211.949H279.994L279.173 216.54H259.581L266.4 180.662H285.995L285.097 185.25H273.191L271.185 195.894ZM299.783 216.54L295.935 206.684H295.796L288.083 216.54H280.739L293.1 202.254L287.001 188.432H294.148L297.515 197.457H297.652L304.828 188.432H311.629L300.322 201.578L307.266 216.54H299.783ZM332.1 211.949C329.37 214.971 325.464 216.956 320.632 216.956C318.664 216.956 317.143 216.695 316.099 216.432L313.954 227.749H306.739L313.872 189.996C316.018 188.902 319.409 187.917 324.298 187.917C331.446 187.917 336.319 191.514 336.848 197.663C337.26 202.409 335.763 207.936 332.1 211.949ZM323.834 191.926C322.476 191.926 321.403 192.137 320.685 192.446L316.791 212.632C317.421 212.84 318.59 212.993 319.954 212.993C323.012 212.993 325.246 211.322 326.75 208.978C328.905 205.695 329.889 200.532 329.628 197.508C329.36 194.431 327.507 191.926 323.834 191.926ZM355.667 192.659C353.55 191.876 350.985 192.031 349.144 192.759L344.676 216.542H337.401L342.439 189.998C345.382 188.641 349.882 187.92 355.118 187.92C356.136 187.92 357.166 187.968 358.057 188.066L355.667 192.659ZM380.455 203.14L361.622 204.912C361.117 210.024 363.655 212.577 368.48 212.577C371.679 212.577 374.912 211.478 376.152 210.853L377.189 214.971C375.503 215.919 371.524 217.057 367.031 217.057C360.025 217.057 355.31 213.669 354.762 207.361C354.381 202.881 355.612 197.56 358.801 193.497C361.431 190.156 365.389 187.917 370.626 187.917C376.816 187.917 380.649 191.301 381.102 196.569C381.272 198.497 381.042 200.582 380.455 203.14ZM369.955 191.926C365.734 191.926 362.848 196.308 361.984 201.21L373.995 200.06C374.275 198.547 374.359 197.244 374.265 196.15C374.026 193.387 372.541 191.926 369.955 191.926ZM401.044 193.547C400.246 193.018 398.472 192.137 395.888 192.137C393.036 192.137 391.085 194.009 391.286 196.308C391.623 200.218 400.459 201.677 400.945 207.361C401.444 213.048 396.144 217.057 388.523 217.057C384.854 217.057 381.425 215.965 379.775 214.971L382.347 210.96C383.353 211.583 385.618 212.519 388.06 212.519C391.259 212.519 393.479 210.647 393.247 207.934C392.912 204.124 384.495 202.721 383.999 197.038C383.568 192.079 388.312 187.913 395.043 187.913C399.264 187.913 402.155 189.108 403.457 189.994L401.044 193.547ZM422.197 193.547C421.405 193.018 419.628 192.137 417.042 192.137C414.185 192.137 412.241 194.009 412.442 196.308C412.777 200.218 421.615 201.677 422.106 207.361C422.599 213.048 417.307 217.057 409.681 217.057C406.01 217.057 402.586 215.965 400.931 214.971L403.505 210.96C404.511 211.583 406.779 212.519 409.223 212.519C412.423 212.519 414.64 210.647 414.405 207.934C414.07 204.124 405.658 202.721 405.16 197.038C404.724 192.079 409.465 187.913 416.201 187.913C420.42 187.913 423.315 189.108 424.616 189.994L422.197 193.547ZM345.789 147.914C345.816 150.981 342.868 153.496 339.671 153.522C336.472 153.551 333.857 151.089 333.831 148.031C333.807 144.957 336.376 142.447 339.578 142.419C342.782 142.39 345.761 144.851 345.789 147.914ZM323.513 153.977C323.518 153.951 323.513 153.927 323.513 153.92C323.503 153.79 323.489 153.66 323.47 153.532C323.463 153.514 323.459 153.495 323.458 153.477C323.264 152.318 322.761 151.312 322.426 150.761C312.996 135.247 298.607 123.015 298.607 123.015C298.607 123.015 298.128 122.505 298.384 122.278C298.633 122.041 301.502 120.106 302.161 119.733C302.817 119.342 306.667 117.043 307.936 116.411C311.77 114.5 316.267 114.318 316.075 111.184C315.989 109.628 314.265 108.442 313.422 108.107C306.557 105.348 296.921 111.596 295.599 112.36C294.254 113.14 291.342 115.224 291.019 115.461C290.683 115.693 290.466 115.88 290.013 115.47C288.121 113.796 280.456 108.653 270.83 103.56C261.202 98.4737 249.61 93.4403 241.128 91.903C238.889 91.4983 235.731 91.6061 234.61 94.2329C233.839 96.036 234.414 98.3468 237.424 99.7236C239.699 100.763 249.097 102.741 263.797 110.226C270.162 113.466 280.313 120.52 280.313 120.52C280.954 120.951 281.962 121.71 282.015 121.938C282.061 122.206 280.801 122.889 280.128 123.521C279.463 124.141 273.201 128.339 271.757 129.354C270.131 130.482 262.914 135.271 261.525 135.929C259.341 136.971 257.164 138.269 257.076 140.805C257.052 141.439 257.16 142.043 257.346 142.61C257.363 142.653 257.375 142.689 257.39 142.725C257.406 142.792 257.428 142.854 257.464 142.914C257.847 143.901 258.503 144.655 259.147 145.081C259.954 145.666 260.924 146.027 261.992 146.068C263.249 146.109 264.161 145.656 265.356 145.112C267.425 143.85 269.669 142.428 270.751 141.693C272.478 140.517 289.129 128.422 289.129 128.422C289.129 128.422 289.381 128.135 289.85 128.554C290.331 128.978 304.696 142.244 311.832 152.344C313.207 154.291 313.846 155.172 314.382 155.998C314.912 156.807 315.362 157.238 316.051 157.804C316.715 158.352 317.558 158.721 318.475 158.816C318.776 158.867 319.09 158.876 319.394 158.85C320.62 158.721 321.432 158.419 322.366 157.411C323.362 156.329 323.611 155.107 323.513 153.977Z" fill="#F37B21"/>
<path d="M247.089 142.069C246.121 142.071 245.211 142.373 244.45 142.864C242.731 143.515 240.714 144.408 239.91 144.629C238.93 144.882 220.854 152.382 208.953 141.47C204.705 137.572 204.542 133.611 204.542 133.611C204.542 133.611 205.419 133.86 207.847 133.76C230.724 132.821 230.442 116.203 223.534 112.027C219.178 109.4 214.925 110.185 213.709 110.2C212.497 110.212 209.556 111.016 209.556 111.016C196.837 114.862 194.421 125.52 194.176 127.632C193.98 129.265 193.563 129.888 193.966 134.14C194.773 142.495 202.315 150.706 211.623 154.327C220.916 157.954 231.68 157.353 241.411 154.365C243.904 153.603 245.705 153.041 247.077 152.361C247.084 152.353 247.101 152.353 247.11 152.353C247.733 152.109 248.396 151.817 248.954 151.518C249.871 151.151 250.656 150.515 251.207 149.695C251.758 148.875 252.048 147.908 252.041 146.92C252.012 144.214 249.802 142.04 247.089 142.069ZM213.718 119.404C214.372 119.407 216.867 119.361 217.229 120.477C217.468 121.224 216.96 121.89 216.441 122.285C214.58 123.693 210.464 124.78 207.332 124.744C206.377 124.735 205.318 124.699 205.332 124.486C205.423 122.776 210.023 119.38 213.718 119.404ZM151.848 124.431C152.056 124.201 172.963 101.268 196.396 100.437C199.018 100.353 201.219 101.766 201.939 103.955C202.857 106.732 201.065 109.838 197.955 110.865C196.461 111.356 194.883 111.311 193.511 110.717L193.436 110.681L193.365 110.676C191.822 110.523 189.828 110.995 188.425 111.423C171.047 116.658 156.433 130.161 144.961 151.556C144.355 152.696 143.814 153.386 142.768 154.6C141.891 155.615 138.905 157.849 136.728 157.353C134.784 156.915 134.444 155.778 134.274 154.647C134.02 153.065 134.569 151.314 135.261 149.099C135.728 147.586 136.271 145.855 136.693 143.776C138.189 136.348 138.852 130.599 138.659 126.689C138.579 125.082 138.659 123.035 140.011 121.512C141.364 119.986 143.177 119.811 144.767 119.665C146.96 119.459 148.043 120.185 148.831 120.719C149.563 121.215 149.985 121.95 150.013 122.733C150.009 122.733 149.985 122.982 149.985 122.982C149.954 123.281 149.918 123.602 149.918 123.906C149.918 124.423 150.023 124.89 150.435 125.072C151.026 125.336 151.601 124.701 151.848 124.431Z" fill="#004B85"/>
</svg>
