<svg width="480" height="320" viewBox="0 0 480 320" fill="none" xmlns="http://www.w3.org/2000/svg">
<path d="M284.148 99.6604C284.148 99.6604 283.17 99.6227 283.17 97.4906C283.17 95.3586 283.17 95.2441 289.947 89.8384C296.725 84.4327 289.491 80.2064 289.491 80.2064C289.491 80.2064 285.15 76.856 289.034 71.2969C289.034 71.2969 292.042 74.5327 296.877 76.6648C301.713 78.7968 310.926 80.6243 310.926 91.0945C310.926 99.7969 307.308 99.6604 307.308 99.6604H284.148Z" fill="#CE2920"/>
<path d="M234.983 157.95H252.864C259.39 157.95 261.717 147.541 261.717 147.541L269.636 112.1C269.636 112.1 271.709 102.605 262.168 102.605H196.734L195.286 109.091C195.286 109.091 200.439 109.122 199.069 114.13L180.489 197.279C178.642 205.546 172.229 205.633 172.229 205.633L170.932 211.445L171.002 211.461H200.983L213.129 157.101H215.516L257.717 211.462H288.615V204.945L234.983 157.95ZM214.044 152.269L223.895 108.18H223.894H241.774C245.285 108.18 244.989 109.505 244.989 109.505L235.731 150.943C235.731 150.943 235.383 152.268 232.413 152.268H214.044V152.269Z" fill="#213A7A"/>
<path d="M265.232 180.669L290.769 203.043V197.127C290.769 197.127 286.293 197.05 288.358 185.755L306.938 102.605H276.806H276.808L275.543 108.262C275.543 108.262 281.412 108.262 280.417 112.716L265.232 180.669Z" fill="#213A7A"/>
<path d="M294.32 86.9297C295.583 88.4172 294.494 91.7006 291.834 93.963C288.96 96.4094 289.108 99.1299 289.167 99.6599H290.317C290.317 99.6282 290.327 99.5977 290.321 99.5648C290.317 99.5405 289.945 97.0892 292.585 94.8439C294.736 93.0127 295.903 90.9124 295.902 89.1251C296.745 90.051 297.61 91.34 297.61 92.7398C297.61 94.309 297.027 94.8914 296.465 95.4554C296.03 95.8904 295.537 96.3826 295.537 97.2257C295.537 98.3514 295.922 99.2091 296.18 99.6611H297.43C297.434 99.5349 297.396 99.4109 297.321 99.309C297.315 99.3004 296.693 98.4647 296.693 97.2269C296.693 96.8797 296.883 96.6738 297.281 96.2754C297.907 95.6479 298.766 94.7902 298.766 92.7423C298.768 89.4138 294.474 87.0381 294.32 86.9297Z" fill="white"/>
<path d="M71.2704 248.529H70.9902C68.3001 248.406 67.3486 247.773 66.3398 246.14C65.6113 244.946 65.0228 243.777 64.4344 242.533C63.9861 241.584 63.6218 241.389 62.613 241.389H61.4361L60.6235 245.238C60.1472 247.383 60.3153 247.505 62.585 247.675L62.4169 248.334H55.3848L55.5529 247.675C57.7105 247.48 57.8774 247.383 58.3538 245.238L60.5114 235.442C60.9598 233.418 60.8477 233.345 58.6072 233.15L58.8034 232.516H64.8827C66.3959 232.516 67.8798 232.686 68.8605 233.271C69.8133 233.833 70.5138 234.806 70.5138 236.269C70.5138 238.706 68.4122 240.241 66.1717 240.923C66.48 241.607 67.2085 243.093 67.853 244.19C68.4975 245.286 69.0006 246.066 69.5891 246.749C70.2616 247.505 70.794 247.725 71.4945 247.92L71.2704 248.529ZM62.9213 240.631C64.1262 240.631 65.1057 240.486 65.9183 240.022C67.1793 239.268 68.0199 237.975 68.0199 236.464C68.0199 234.344 66.7589 233.271 64.7146 233.271C64.1542 233.271 63.7059 233.345 63.4537 233.515C63.2015 233.661 63.0614 233.953 62.9213 234.587L61.6043 240.631H62.9213Z" fill="#213A7A"/>
<path d="M81.1329 233.148C78.9485 233.343 78.8072 233.465 78.4161 235.245L76.1464 245.506C75.726 247.381 75.8942 247.528 78.1919 247.673L78.0238 248.332H70.8516L71.0477 247.673C73.2334 247.528 73.4295 247.356 73.8498 245.506L76.1183 235.245C76.5106 233.465 76.3145 233.343 73.9887 233.148L74.1849 232.514H81.301L81.1329 233.148ZM95.7027 244.432C95.2544 245.383 94.1335 247.333 93.4903 248.113C92.6496 248.284 90.6601 248.698 88.6706 248.698C83.9923 248.698 80.5189 246.236 80.5189 241.679C80.5189 235.902 85.6736 232.125 92.1453 232.125C94.387 232.125 96.1511 232.66 96.9357 232.929C96.8516 234.172 96.8236 235.488 96.7115 236.658L95.8721 236.731C95.732 233.832 94.2749 232.978 91.502 232.978C86.5715 232.978 83.2369 237.097 83.2369 241.606C83.2369 245.09 85.2264 247.869 88.9801 247.869C91.7822 247.869 93.4342 246.214 94.9754 244.091L95.7027 244.432Z" fill="#213A7A"/>
<path d="M116.186 233.149C114.001 233.344 113.86 233.489 113.413 235.488L111.255 245.383C110.835 247.334 110.947 247.503 113.216 247.674L113.047 248.333H105.931L106.127 247.674C108.34 247.503 108.537 247.334 108.956 245.383L110.021 240.46H100.859L99.7946 245.383C99.3743 247.381 99.5144 247.503 101.784 247.674L101.616 248.333H94.668L94.8361 247.674C96.9377 247.503 97.0766 247.334 97.4981 245.383L99.6826 235.488C100.131 233.489 99.9908 233.344 97.693 233.149L97.8892 232.514H104.809L104.641 233.149C102.624 233.344 102.399 233.514 101.979 235.488L101.11 239.461H110.243L111.14 235.488C111.56 233.489 111.42 233.344 109.235 233.149L109.403 232.514H116.352L116.186 233.149ZM129.526 233.149C127.342 233.344 127.201 233.466 126.81 235.246L124.54 245.506C124.119 247.381 124.288 247.529 126.585 247.674L126.417 248.333H119.245L119.441 247.674C121.627 247.529 121.823 247.357 122.243 245.506L124.512 235.246C124.904 233.466 124.708 233.344 122.382 233.149L122.578 232.514H129.694L129.526 233.149ZM148.493 233.149C146.813 233.246 146.42 233.612 146.056 234.684C145.832 235.319 145.468 236.586 144.992 238.826L142.862 248.528H142.023L133.73 235.609H133.645L132.188 242.093C131.712 244.188 131.516 245.382 131.46 246.186C131.404 247.307 131.908 247.551 133.842 247.672L133.674 248.332H127.258L127.426 247.672C128.883 247.599 129.528 247.307 129.891 246.259C130.227 245.382 130.535 244.286 131.068 242.019L132.525 236.024C132.805 234.78 132.721 234.44 132.357 233.903C132.02 233.391 131.544 233.246 129.975 233.149L130.143 232.514H134.177L142.442 244.92H142.554L143.843 238.826C144.347 236.585 144.543 235.343 144.599 234.66C144.683 233.514 144.235 233.27 142.163 233.149L142.359 232.514H148.662L148.493 233.149ZM164.13 231.906C163.906 233.003 163.654 234.856 163.486 236.172L162.646 236.246C162.646 235.319 162.59 234.588 162.31 234.076C162.058 233.491 161.469 233.321 159.312 233.321H157.632L155.026 245.41C154.605 247.382 154.802 247.53 157.323 247.675L157.155 248.334H149.536L149.704 247.675C152.086 247.53 152.254 247.358 152.674 245.41L155.336 233.321H153.907C151.497 233.321 150.994 233.516 150.462 234.053C150.014 234.516 149.565 235.271 149.089 236.247H148.248C148.75 234.82 149.19 233.373 149.565 231.907H150.154C150.462 232.468 150.77 232.517 151.525 232.517H162.059C162.788 232.517 163.012 232.37 163.544 231.907H164.13V231.906ZM177.161 232.515C177.077 232.954 176.825 234.806 176.629 236.246L175.816 236.293C175.788 235.367 175.732 234.638 175.452 234.149C175.144 233.588 174.779 233.319 172.735 233.319H170.549C169.597 233.319 169.541 233.417 169.317 234.319L168.168 239.607H170.858C173.211 239.607 173.378 239.412 174.051 237.827H174.863L173.799 242.434H173.014C173.07 240.728 173.042 240.557 170.632 240.557H167.942L167.018 244.823C166.709 246.236 166.737 246.87 167.158 247.162C167.578 247.454 168.419 247.503 169.988 247.503C172.061 247.503 172.902 247.308 173.657 246.673C174.33 246.114 174.974 245.213 175.535 244.334L176.319 244.578C176.011 245.236 174.974 247.575 174.582 248.332H161.472L161.64 247.672C163.908 247.502 164.133 247.38 164.582 245.408L166.795 235.415C167.243 233.464 167.103 233.344 164.805 233.149L164.973 232.514H177.161V232.515ZM191.983 248.529H191.703C189.013 248.406 188.061 247.772 187.053 246.14C186.324 244.946 185.736 243.776 185.147 242.532C184.699 241.583 184.335 241.388 183.326 241.388H182.149L181.336 245.238C180.86 247.383 181.028 247.504 183.298 247.675L183.13 248.334H176.099L176.267 247.675C178.425 247.48 178.593 247.383 179.069 245.238L181.227 235.442C181.675 233.418 181.563 233.345 179.323 233.15L179.519 232.515H185.598C187.111 232.515 188.595 232.686 189.576 233.271C190.529 233.832 191.229 234.806 191.229 236.269C191.229 238.706 189.128 240.241 186.887 240.923C187.195 241.606 187.924 243.093 188.568 244.189C189.213 245.286 189.717 246.065 190.304 246.749C190.977 247.504 191.509 247.725 192.21 247.92L191.983 248.529ZM183.634 240.631C184.839 240.631 185.819 240.486 186.631 240.021C187.892 239.267 188.733 237.975 188.733 236.464C188.733 234.344 187.472 233.271 185.427 233.271C184.867 233.271 184.419 233.345 184.167 233.514C183.914 233.661 183.774 233.953 183.634 234.587L182.317 240.631H183.634Z" fill="#213A7A"/>
<path d="M212.661 233.149C210.981 233.246 210.587 233.612 210.224 234.684C210 235.319 209.636 236.586 209.16 238.826L207.03 248.528H206.191L197.897 235.609H197.813L196.356 242.093C195.88 244.188 195.684 245.382 195.628 246.186C195.572 247.307 196.076 247.551 198.01 247.672L197.841 248.332H191.426L191.594 247.672C193.051 247.599 193.695 247.307 194.059 246.259C194.395 245.382 194.703 244.286 195.235 242.019L196.693 236.024C196.973 234.78 196.889 234.44 196.524 233.903C196.188 233.391 195.712 233.246 194.143 233.149L194.311 232.514H198.345L206.61 244.92H206.722L208.011 238.826C208.515 236.585 208.711 235.343 208.767 234.66C208.851 233.514 208.403 233.27 206.331 233.149L206.527 232.514H212.83L212.661 233.149ZM226.281 248.333H219.669L219.865 247.674C221.798 247.503 221.91 247.236 221.742 246.187C221.546 245.163 221.322 243.994 221.042 242.58H215.187C214.71 243.36 213.842 244.774 213.226 245.895C212.414 247.357 212.61 247.529 214.767 247.674L214.599 248.333H208.576L208.772 247.674C210.481 247.479 210.762 247.357 212.077 245.335L220.509 232.345L221.378 232.15L222.163 236.464C222.723 239.607 223.34 242.653 223.956 245.554C224.292 247.284 224.488 247.504 226.477 247.674L226.281 248.333ZM219.753 235.246H219.697C218.296 237.487 217.007 239.485 215.803 241.558H220.874L219.753 235.246ZM242.392 231.906C242.167 233.003 241.915 234.856 241.747 236.172L240.908 236.246C240.908 235.319 240.852 234.588 240.571 234.076C240.319 233.491 239.731 233.321 237.573 233.321H235.893L233.287 245.41C232.867 247.382 233.063 247.53 235.585 247.675L235.417 248.334H227.797L227.965 247.675C230.347 247.53 230.515 247.358 230.936 245.41L233.598 233.321H232.169C229.759 233.321 229.256 233.516 228.723 234.053C228.275 234.516 227.827 235.271 227.35 236.247H226.51C227.012 234.82 227.451 233.373 227.827 231.907H228.415C228.723 232.468 229.031 232.517 229.787 232.517H240.32C241.049 232.517 241.273 232.37 241.806 231.907H242.392V231.906ZM250.128 233.149C247.942 233.344 247.802 233.466 247.411 235.246L245.141 245.506C244.721 247.381 244.889 247.529 247.187 247.674L247.019 248.333H239.846L240.043 247.674C242.228 247.529 242.424 247.357 242.845 245.506L245.113 235.246C245.506 233.466 245.311 233.344 242.985 233.149L243.181 232.514H250.297L250.128 233.149ZM267.163 239.12C267.163 244.287 262.904 248.698 256.965 248.698C252.568 248.698 249.514 245.895 249.514 241.776C249.514 236.682 253.884 232.126 259.711 232.126C264.165 232.127 267.163 235.026 267.163 239.12ZM252.203 241.996C252.203 245.261 253.771 247.845 257.189 247.845C261.869 247.845 264.5 242.874 264.5 238.877C264.5 235.636 263.128 232.978 259.487 232.978C255.088 232.978 252.203 237.731 252.203 241.996ZM287.224 233.149C285.544 233.246 285.152 233.612 284.788 234.684C284.562 235.319 284.199 236.586 283.723 238.826L281.593 248.528H280.754L272.461 235.609H272.377L270.921 242.093C270.444 244.188 270.247 245.382 270.192 246.186C270.135 247.307 270.639 247.551 272.573 247.672L272.405 248.332H265.989L266.157 247.672C267.614 247.599 268.259 247.307 268.622 246.259C268.958 245.382 269.265 244.286 269.799 242.019L271.255 236.024C271.535 234.78 271.451 234.44 271.086 233.903C270.75 233.391 270.274 233.246 268.706 233.149L268.874 232.514H272.909L281.173 244.92H281.285L282.575 238.826C283.078 236.585 283.274 235.343 283.331 234.66C283.415 233.514 282.966 233.27 280.893 233.149L281.09 232.514H287.394L287.224 233.149ZM300.845 248.333H294.232L294.428 247.674C296.362 247.503 296.474 247.236 296.304 246.187C296.109 245.163 295.885 243.994 295.605 242.58H289.749C289.272 243.36 288.404 244.774 287.788 245.895C286.977 247.357 287.172 247.529 289.331 247.674L289.161 248.333H283.139L283.334 247.674C285.043 247.479 285.324 247.357 286.641 245.335L295.073 232.345L295.941 232.15L296.727 236.464C297.288 239.607 297.904 242.653 298.52 245.554C298.857 247.284 299.053 247.504 301.041 247.674L300.845 248.333ZM294.317 235.246H294.261C292.86 237.487 291.572 239.485 290.366 241.558H295.437L294.317 235.246ZM315.36 244.53C315.024 245.335 313.987 247.576 313.565 248.333H301.21L301.38 247.674C303.536 247.529 303.734 247.357 304.152 245.506L306.45 235.319C306.871 233.443 306.729 233.345 304.461 233.15L304.629 232.515H311.633L311.464 233.15C309.222 233.321 309.11 233.467 308.719 235.319L306.505 245.409C306.31 246.31 306.366 246.87 306.815 247.162C307.207 247.454 308.104 247.479 309.335 247.479C310.959 247.479 311.912 247.334 312.613 246.748C313.229 246.213 313.846 245.481 314.573 244.261L315.36 244.53ZM337.075 248.333H330.462L330.658 247.674C332.592 247.503 332.704 247.236 332.535 246.187C332.34 245.163 332.115 243.994 331.835 242.58H325.979C325.502 243.36 324.634 244.774 324.019 245.895C323.207 247.357 323.402 247.529 325.561 247.674L325.392 248.333H319.369L319.564 247.674C321.274 247.479 321.554 247.357 322.871 245.335L331.303 232.345L332.172 232.15L332.957 236.464C333.518 239.607 334.134 242.653 334.751 245.554C335.087 247.284 335.283 247.504 337.271 247.674L337.075 248.333ZM330.548 235.246H330.491C329.09 237.487 327.803 239.485 326.597 241.558H331.667L330.548 235.246ZM347.723 233.149C345.538 233.344 345.398 233.466 345.006 235.246L342.738 245.506C342.316 247.381 342.486 247.529 344.782 247.674L344.615 248.333H337.443L337.638 247.674C339.824 247.529 340.02 247.357 340.44 245.506L342.709 235.246C343.101 233.466 342.905 233.344 340.579 233.149L340.776 232.514H347.891L347.723 233.149ZM361.563 248.529H361.284C358.593 248.406 357.642 247.772 356.633 246.14C355.904 244.946 355.317 243.776 354.729 242.532C354.279 241.583 353.915 241.388 352.906 241.388H351.73L350.916 245.238C350.44 247.383 350.609 247.504 352.879 247.675L352.71 248.334H345.679L345.846 247.675C348.003 247.48 348.173 247.383 348.649 245.238L350.806 235.442C351.255 233.418 351.143 233.345 348.901 233.15L349.096 232.515H355.176C356.689 232.515 358.174 232.686 359.155 233.271C360.106 233.832 360.806 234.806 360.806 236.269C360.806 238.706 358.704 240.241 356.465 240.923C356.772 241.606 357.5 243.093 358.145 244.189C358.789 245.286 359.294 246.065 359.882 246.749C360.553 247.504 361.086 247.725 361.786 247.92L361.563 248.529ZM353.215 240.631C354.419 240.631 355.4 240.486 356.214 240.021C357.472 239.267 358.315 237.975 358.315 236.464C358.315 234.344 357.054 233.271 355.008 233.271C354.448 233.271 353.999 233.345 353.747 233.514C353.497 233.661 353.357 233.953 353.215 234.587L351.897 240.631H353.215ZM387.203 233.149C385.351 233.391 385.185 233.466 384.035 235.415C382.972 237.169 380.507 241.776 376.892 248.575H376.024L373.754 236.487H373.671L366.975 248.575H366.106L364.426 235.488C364.174 233.417 364.062 233.344 362.157 233.149L362.326 232.514H368.655L368.46 233.149L367.761 233.246C366.64 233.391 366.471 233.514 366.64 234.855L367.844 245.041H367.901L374.54 232.807H375.351L377.678 245.065H377.733C379.47 241.75 381.88 237.291 382.944 234.83C383.503 233.612 383.336 233.417 381.935 233.246L381.206 233.149L381.376 232.514H387.37L387.203 233.149ZM398.945 248.333H392.334L392.529 247.674C394.461 247.503 394.574 247.236 394.407 246.187C394.209 245.163 393.985 243.994 393.707 242.58H387.851C387.375 243.36 386.506 244.774 385.891 245.895C385.077 247.357 385.274 247.529 387.431 247.674L387.264 248.333H381.239L381.436 247.674C383.145 247.479 383.426 247.357 384.742 245.335L393.175 232.345L394.044 232.15L394.827 236.464C395.389 239.607 396.005 242.653 396.622 245.554C396.957 247.284 397.155 247.504 399.143 247.674L398.945 248.333ZM392.418 235.246H392.361C390.962 237.487 389.672 239.485 388.469 241.558H393.539L392.418 235.246ZM415.281 233.149C413.489 233.319 413.18 233.466 411.753 235.001C410.492 236.391 409.007 238.194 407.159 240.486C406.74 240.972 406.6 241.314 406.487 241.875L405.702 245.311C405.225 247.381 405.421 247.479 407.914 247.674L407.745 248.333H400.266L400.46 247.674C402.73 247.529 402.925 247.406 403.401 245.311L404.158 242.021C404.27 241.509 404.243 241.168 404.018 240.583C403.347 239.047 402.647 237.413 401.526 234.879C400.882 233.441 400.713 233.344 398.95 233.149L399.117 232.514H405.618L405.42 233.149L404.439 233.271C403.459 233.393 403.401 233.588 403.683 234.294C404.48 236.275 405.331 238.233 406.234 240.168C407.579 238.561 409.594 236.097 410.743 234.442C411.33 233.588 411.135 233.393 410.099 233.271L409.23 233.173L409.427 232.515H415.479L415.281 233.149ZM413.661 243.507C413.97 245.359 415.117 247.869 418.199 247.869C420.189 247.869 421.562 246.65 421.562 244.725C421.562 243.335 420.581 242.411 418.956 241.29L418.172 240.754C416.882 239.852 415.034 238.511 415.034 236.488C415.034 233.954 417.358 232.127 420.721 232.127C421.618 232.127 422.598 232.297 423.382 232.541C423.915 232.712 424.391 232.858 424.615 232.931C424.503 233.954 424.56 235.246 424.532 236.342L423.721 236.415C423.496 234.588 422.767 232.932 420.358 232.932C418.398 232.932 417.22 234.295 417.22 235.783C417.22 237.196 418.368 238.075 419.826 239.049L420.665 239.585C422.6 240.852 423.915 242.119 423.915 244.044C423.915 246.896 421.029 248.7 417.807 248.7C415.568 248.7 413.605 247.798 412.988 247.188C412.963 246.628 412.963 245.313 412.906 243.581L413.661 243.507Z" fill="#213A7A"/>
</svg>
