<svg width="480" height="320" viewBox="0 0 480 320" fill="none" xmlns="http://www.w3.org/2000/svg">
<path d="M55.3848 169.694H59.1604V174.265H67.147V169.693H70.9246V182.456H67.147V177.624H59.1604V182.456H55.3848V169.694ZM77.8633 169.694H91.3516V172.654H81.6408V174.723H90.8468V177.355H81.6408V179.393H91.5789V182.456H77.8631L77.8633 169.694ZM98.1793 169.694H101.953V179.192H110.462V182.456H98.1793V169.694ZM116.53 169.694H120.307V182.456H116.53V169.694ZM126.802 174.156C126.802 173.231 126.932 172.463 127.193 171.85C127.315 171.536 127.467 171.259 127.65 171.026C127.821 170.792 128.02 170.598 128.249 170.442C129.191 169.824 130.52 169.529 132.233 169.548H136.684C139.297 169.54 140.986 169.885 141.757 170.588C142.18 170.948 142.454 171.44 142.575 172.064C142.702 172.673 142.754 173.432 142.733 174.345H138.954V173.994C138.954 173.545 138.8 173.227 138.495 173.039C138.185 172.888 137.744 172.813 137.178 172.813H133.046C132.079 172.813 131.437 173.039 131.121 173.489C130.815 173.94 130.667 174.574 130.678 175.387V176.77C130.666 177.677 130.811 178.332 131.106 178.739C131.399 179.155 131.982 179.351 132.849 179.336H136.894C137.74 179.351 138.328 179.253 138.655 179.039C138.971 178.829 139.125 178.334 139.116 177.567H142.891V178.766C142.891 179.292 142.841 179.789 142.741 180.262C142.671 180.479 142.586 180.69 142.485 180.894C142.369 181.104 142.227 181.299 142.061 181.472C141.738 181.827 141.277 182.106 140.678 182.304C140.071 182.503 139.293 182.601 138.339 182.601H132.237C130.524 182.609 129.193 182.304 128.251 181.688C128.019 181.508 127.817 181.294 127.65 181.052C127.469 180.821 127.317 180.553 127.195 180.264C126.932 179.677 126.802 178.924 126.802 177.993V174.156ZM153.158 176.771C153.146 177.678 153.289 178.331 153.586 178.738C153.879 179.154 154.46 179.352 155.329 179.337H160.176C161.066 179.352 161.659 179.154 161.954 178.738C162.231 178.331 162.364 177.678 162.347 176.771V175.386C162.364 174.573 162.219 173.939 161.919 173.49C161.601 173.038 160.954 172.812 159.975 172.812H155.529C154.562 172.812 153.917 173.037 153.601 173.49C153.293 173.939 153.146 174.573 153.158 175.386V176.771ZM149.28 174.162C149.28 173.236 149.413 172.467 149.671 171.853C149.797 171.541 149.949 171.263 150.13 171.03C150.295 170.802 150.497 170.604 150.729 170.445C151.675 169.824 153.004 169.528 154.718 169.549H160.788C161.642 169.549 162.41 169.607 163.094 169.724C163.757 169.855 164.323 170.096 164.791 170.446C165.735 171.094 166.209 172.338 166.221 174.174V177.982C166.21 179.803 165.735 181.038 164.791 181.685C164.323 182.016 163.757 182.249 163.094 182.394C162.41 182.531 161.642 182.6 160.788 182.6H154.718C153.004 182.608 151.675 182.305 150.729 181.689C150.498 181.508 150.296 181.294 150.13 181.053C149.949 180.82 149.797 180.554 149.671 180.263C149.413 179.678 149.28 178.923 149.28 177.994L149.28 174.162ZM176.689 176.086H182.582C183.026 176.086 183.342 175.947 183.531 175.676C183.716 175.415 183.805 175.096 183.805 174.716V174.223C183.805 173.774 183.693 173.437 183.468 173.212C183.237 172.979 182.834 172.857 182.258 172.857H176.689V176.086ZM172.909 169.694H183.223C184.995 169.703 186.192 170.118 186.818 170.931C187.421 171.744 187.708 172.786 187.684 174.067V175.159C187.684 175.641 187.64 176.121 187.552 176.589C187.436 177.072 187.243 177.511 186.968 177.914C186.708 178.309 186.355 178.625 185.912 178.858C185.456 179.118 184.886 179.247 184.206 179.247H176.689V182.456H172.91V169.694H172.909ZM193.169 169.694H207.588V172.858H202.265V182.456H198.49V172.858H193.169V169.694ZM213.525 169.694H227.013V172.654H217.3V174.723H226.504V177.355H217.3V179.393H227.238V182.456H213.525V169.694ZM237.615 175.981H243.884C244.396 175.981 244.76 175.869 244.976 175.641C245.18 175.435 245.286 175.1 245.286 174.638V174.212C245.286 173.651 245.149 173.284 244.873 173.11C244.588 172.943 244.141 172.858 243.539 172.858H237.615V175.981ZM233.838 169.693H245.268C246.692 169.703 247.671 170.049 248.202 170.718C248.709 171.402 248.957 172.326 248.948 173.494V174.305C248.956 175.148 248.824 175.823 248.549 176.327C248.245 176.861 247.653 177.233 246.771 177.441V177.474C247.075 177.527 247.355 177.602 247.613 177.707C247.859 177.797 248.079 177.947 248.281 178.161C248.482 178.373 248.632 178.647 248.738 178.98C248.844 179.327 248.901 179.766 248.901 180.292V182.455H245.126V180.924C245.126 180.257 245.014 179.785 244.798 179.517C244.573 179.269 244.163 179.149 243.573 179.149H237.615V182.455H233.838V169.693ZM268.094 174.156C268.094 173.231 268.225 172.463 268.485 171.85C268.609 171.536 268.761 171.259 268.944 171.026C269.109 170.799 269.312 170.601 269.543 170.442C270.485 169.824 271.812 169.529 273.527 169.548H277.978C280.587 169.54 282.28 169.885 283.051 170.588C283.474 170.948 283.746 171.44 283.865 172.064C283.996 172.673 284.046 173.432 284.025 174.345H280.246V173.994C280.246 173.545 280.094 173.227 279.789 173.039C279.475 172.888 279.038 172.813 278.472 172.813H274.338C273.373 172.813 272.731 173.039 272.415 173.489C272.109 173.94 271.962 174.574 271.974 175.387V176.77C271.964 177.677 272.101 178.332 272.398 178.739C272.695 179.155 273.274 179.351 274.141 179.336H278.188C279.034 179.351 279.622 179.253 279.949 179.039C280.265 178.829 280.415 178.334 280.406 177.567H284.183V178.766C284.183 179.292 284.135 179.789 284.035 180.262C283.964 180.479 283.878 180.69 283.777 180.894C283.662 181.105 283.519 181.299 283.353 181.472C283.03 181.827 282.569 182.106 281.972 182.304C281.365 182.503 280.583 182.601 279.631 182.601H273.529C271.816 182.609 270.487 182.304 269.543 181.688C269.316 181.511 269.117 181.299 268.944 181.052C268.761 180.821 268.609 180.553 268.486 180.264C268.225 179.677 268.094 178.924 268.094 177.993V174.156ZM294.453 176.771C294.441 177.678 294.582 178.331 294.876 178.738C295.173 179.154 295.755 179.352 296.62 179.337H301.468C302.36 179.352 302.952 179.154 303.244 178.738C303.524 178.331 303.657 177.678 303.637 176.771V175.386C303.657 174.573 303.514 173.939 303.212 173.49C302.894 173.038 302.247 172.812 301.268 172.812H296.822C295.853 172.812 295.211 173.037 294.894 173.49C294.587 173.939 294.441 174.573 294.453 175.386V176.771ZM290.575 174.162C290.575 173.236 290.704 172.467 290.964 171.853C291.087 171.541 291.241 171.263 291.424 171.03C291.589 170.803 291.791 170.605 292.022 170.445C292.967 169.824 294.295 169.528 296.011 169.549H302.079C302.934 169.549 303.703 169.607 304.385 169.724C305.051 169.855 305.618 170.096 306.084 170.446C307.026 171.094 307.503 172.338 307.515 174.174V177.982C307.505 179.803 307.026 181.038 306.084 181.685C305.618 182.016 305.051 182.249 304.385 182.394C303.703 182.531 302.934 182.6 302.079 182.6H296.011C294.295 182.608 292.967 182.305 292.022 181.689C291.792 181.508 291.591 181.293 291.424 181.053C291.241 180.82 291.087 180.554 290.964 180.263C290.704 179.678 290.575 178.923 290.575 177.994V174.162ZM314.217 169.694H320.019L324.294 177.919L328.566 169.694H334.368V182.456H330.706V173.29H330.672L325.711 182.456H322.878L317.915 173.29H317.881V182.456H314.217V169.693L314.217 169.694ZM345.242 176.086H351.139C351.58 176.086 351.898 175.947 352.087 175.676C352.27 175.415 352.364 175.096 352.364 174.716V174.223C352.364 173.774 352.249 173.437 352.021 173.212C351.794 172.979 351.39 172.857 350.813 172.857H345.242V176.086ZM341.467 169.694H351.779C353.547 169.703 354.747 170.118 355.375 170.931C355.974 171.744 356.263 172.786 356.242 174.067V175.159C356.242 175.639 356.197 176.118 356.107 176.589C355.994 177.061 355.798 177.51 355.527 177.914C355.261 178.309 354.911 178.625 354.466 178.858C354.013 179.118 353.445 179.247 352.761 179.247H345.243V182.456H341.467V169.694ZM367.199 177.455H372.03L369.58 172.655L367.199 177.455ZM367.132 169.694H372.046L378.813 182.456H374.613L373.442 180.187H365.787L364.683 182.456H360.468L367.132 169.694ZM384.569 169.694H390.429L397.543 178.975H397.576V169.694H401.353V182.456H395.485L388.381 173.176H388.348V182.456H384.569V169.694ZM414.007 178.02L407.167 169.694H411.736L415.895 174.916L420.056 169.694H424.616L417.783 178.016V182.456H414.007V178.02ZM418.016 137.616V154.418C415.489 152.808 391.629 137.616 391.629 137.616H384.382V159.388H390.255V142.612L416.646 159.388H423.891V137.616H418.016ZM365.117 152.243C365.117 152.91 364.991 153.451 364.745 153.859C364.469 154.26 364.084 154.591 363.587 154.832C363.585 154.832 362.73 155.156 362.73 155.156C362.757 155.149 361.655 155.387 361.655 155.387C361.667 155.387 358.995 155.576 358.995 155.576H342.559L341.263 155.52C341.261 155.52 339.968 155.385 339.968 155.385C339.98 155.385 337.971 154.825 337.971 154.825C337.528 154.599 337.15 154.266 336.848 153.821C336.557 153.409 336.42 152.896 336.42 152.243V144.734C336.42 144.047 336.562 143.49 336.844 143.08C337.14 142.669 337.522 142.344 337.999 142.103C339.138 141.633 340.692 141.39 342.553 141.404H358.995C360.875 141.39 362.435 141.633 363.639 142.132C364.088 142.352 364.479 142.673 364.781 143.093C364.99 143.451 365.117 144.024 365.117 144.734V152.243L365.117 152.243ZM359.391 137.406H342.141C337.926 137.406 335.01 138.056 333.228 139.398C331.454 140.779 330.562 142.879 330.562 145.643V151.344C330.562 154.064 331.452 156.154 333.209 157.556C335.01 158.914 337.926 159.569 342.141 159.569H359.392C363.639 159.569 366.567 158.916 368.349 157.573C370.129 156.129 371.004 153.992 370.973 151.203V145.78C371.004 142.956 370.127 140.814 368.366 139.416C366.567 138.058 363.639 137.406 359.391 137.406ZM305.477 146.406H293.572C289.968 146.406 288.518 146.067 287.938 145.78C287.3 145.461 287.044 144.977 287.082 144.17C287.063 142.918 287.572 142.272 288.789 141.951C290.301 141.6 292.96 141.427 296.66 141.44H300.927C307.095 141.423 309.33 141.77 310.119 142.064C310.445 142.178 310.84 142.369 310.95 142.661V142.663C310.95 142.696 311.133 144.275 311.133 144.275L311.225 145.079L312.04 145.212H316.721V143.626C316.789 141.517 315.766 139.841 313.768 138.807C311.822 137.89 308.422 137.447 303.341 137.447H294.692C290.428 137.42 287.31 137.778 285.158 138.539C282.752 139.444 281.49 141.301 281.49 143.913C281.429 146.855 282.893 148.843 285.72 149.648C288.286 150.355 292.534 150.673 298.708 150.621H306.34C309.239 150.603 310.539 150.892 311.117 151.141C311.483 151.314 311.938 151.674 311.913 152.809C311.938 154.208 311.36 154.666 310.851 154.918C310.173 155.254 308.65 155.65 305.267 155.618H292.792C289.914 155.618 288.643 155.265 288.084 154.969C287.208 154.56 287.109 154.084 287.121 153.67L287.122 151.33H281.53V153.705C281.53 154.99 281.933 156.063 282.723 156.893C283.366 157.671 284.321 158.286 285.52 158.685C286.604 159.045 287.862 159.295 289.255 159.42L293.489 159.603H304.654L309.152 159.444C310.618 159.363 311.972 159.135 313.163 158.771C314.426 158.384 315.467 157.777 316.252 156.968C317.05 156.065 317.462 154.913 317.512 153.51L317.514 152.191C317.556 150.977 317.148 149.902 316.302 149.032C314.569 147.248 311.028 146.387 305.476 146.406M261.817 154.418C259.304 152.792 235.802 137.622 235.802 137.622H228.646V159.38H234.452V142.613C236.968 144.235 260.467 159.38 260.467 159.38H267.627V137.622H261.818L261.817 154.418ZM208.756 159.399H214.772V137.605H208.756V159.399ZM189.35 153.626C189.35 154.181 189.15 154.535 188.678 154.813C188.228 155.069 187.226 155.385 185.076 155.385H164.318V150.232H184.446L186.964 150.272C186.964 150.286 188.42 150.652 188.42 150.652C188.811 150.788 189.035 150.946 189.181 151.166C189.279 151.343 189.35 151.723 189.35 152.191V153.626ZM164.318 141.64H184.712C184.73 141.64 187.11 141.993 187.11 141.993L187.945 142.399C188.002 142.457 188.091 142.576 188.091 142.848V144.664L187.943 145.279C187.92 145.306 187.272 145.78 187.272 145.78C186.5 146.075 185.558 146.221 184.496 146.207H164.318V141.64H164.318ZM192.96 147.978C192.677 147.845 192.344 147.785 192.038 147.681C192.225 147.571 192.489 147.498 192.641 147.371C192.641 147.356 193.71 146.142 193.71 146.142C193.739 146.08 194.008 144.68 194.008 144.68V142.967L193.617 140.958C193.28 140.22 192.727 139.623 191.957 139.13C190.645 138.153 188.384 137.643 185.095 137.614H158.41V159.389H185.567C188.245 159.389 190.491 158.995 192.244 158.218C194.69 157.134 195.234 155.477 195.259 154.275V151.887C195.259 150.944 195.051 150.137 194.642 149.49C194.215 148.852 193.656 148.352 192.96 147.978ZM139.158 152.243C139.158 152.905 139.031 153.447 138.78 153.853C138.505 154.252 138.11 154.583 137.607 154.822C137.606 154.824 136.736 155.148 136.736 155.148C136.761 155.139 135.644 155.381 135.644 155.381C135.656 155.381 132.937 155.572 132.937 155.572H116.259L114.942 155.514L113.626 155.377C113.636 155.377 111.594 154.816 111.594 154.816C111.141 154.587 110.76 154.256 110.451 153.813C110.158 153.402 110.02 152.892 110.02 152.243V144.734C110.02 144.05 110.164 143.497 110.449 143.087C110.748 142.677 111.135 142.353 111.625 142.11C112.784 141.638 114.364 141.395 116.253 141.409H132.938C134.846 141.395 136.434 141.638 137.659 142.139C138.118 142.359 138.514 142.682 138.819 143.102C139.029 143.459 139.158 144.029 139.158 144.734V152.243ZM133.342 137.398H115.834C111.559 137.398 108.604 138.048 106.797 139.386C104.998 140.771 104.093 142.873 104.093 145.633V151.351C104.093 154.069 104.994 156.159 106.778 157.565C108.604 158.922 111.557 159.574 115.834 159.574H133.342C137.648 159.574 140.616 158.922 142.423 157.583C144.23 156.136 145.12 153.996 145.087 151.203V145.78C145.12 142.952 144.226 140.806 142.438 139.408C140.614 138.047 137.648 137.398 133.342 137.398M85.6459 145.499C85.6544 145.894 85.5516 146.175 85.3126 146.417C84.8118 146.928 83.498 147.531 80.0865 147.498H61.3817V141.64H79.0828C82.5927 141.64 84.1106 141.947 84.7618 142.197C85.3897 142.474 85.6632 142.914 85.6459 143.659V145.499ZM89.4483 139.219C87.9345 138.132 85.0316 137.614 80.5431 137.614H55.4793V159.39H61.3817V151.528H80.4332L82.9182 151.603C82.9182 151.61 84.4824 151.983 84.4824 151.983C84.8541 152.152 85.1085 152.368 85.2567 152.641C85.4417 152.98 85.5342 153.472 85.5342 154.094V159.39H91.2073L91.2088 153.243C91.2088 152.16 90.7793 151.175 89.9355 150.332C89.6407 150.083 89.1841 149.914 88.7778 149.719C89.007 149.627 89.2766 149.571 89.4848 149.459C90.396 149.001 91.5132 147.991 91.5594 145.828V144.177C91.5609 144.089 91.5628 144.002 91.5628 143.913C91.5628 141.883 90.854 140.296 89.4477 139.219" fill="#263376"/>
</svg>
