<svg width="480" height="320" viewBox="0 0 480 320" fill="none" xmlns="http://www.w3.org/2000/svg">
<path fill-rule="evenodd" clip-rule="evenodd" d="M66.1199 219.201H60.7559V212.04H66.4196C69.0005 212.04 70.2955 213.239 70.2955 215.617C70.2955 218.013 68.9029 219.201 66.1199 219.201ZM281.159 100.953C270.625 90.9133 258.093 85.8879 243.579 85.8879L244.178 122.57C244.371 132.312 247.155 139.568 252.528 144.341L285.634 167.901C293.187 159.358 296.964 149.211 296.964 137.482C296.964 123.168 291.689 110.994 281.159 100.953ZM195.858 100.953C185.316 110.994 180.049 123.168 180.049 137.482C180.049 148.816 183.923 158.954 191.684 167.901L224.494 144.341C229.858 139.568 232.641 132.312 232.843 122.57L233.441 85.8879C218.927 85.8879 206.395 90.9133 195.858 100.953ZM247.761 159.551C244.777 155.976 242.786 151.598 241.791 146.43C241.395 143.451 241.095 138.581 240.901 131.818L240.002 85.2891L238.514 85.5896L237.017 85.2891L236.128 131.818C235.926 144.94 233.635 154.186 229.267 159.551L210.481 182.52C219.622 187.091 228.968 189.372 238.514 189.372C248.053 189.372 257.398 187.091 266.547 182.52L247.761 159.551ZM353.928 207.268H348.857V212.04H353.928V207.268ZM424.616 207.569H419.542V234.112H424.616V207.569ZM221.217 207.569H215.845V234.112H221.217V207.569ZM202.423 207.569H197.054V234.112H202.423V207.569ZM193.77 207.569H188.405V234.112H193.77V207.569ZM130.843 222.777L138.003 214.429H131.733L125.172 221.887V207.569H120.107V234.112H125.172L125.471 223.676L132.032 234.112H138.294L130.843 222.777ZM76.5646 233.513C75.9654 233.319 75.5617 231.474 75.3663 227.997C75.1646 224.517 73.9753 222.285 71.7915 221.29C74.5745 220.3 75.9654 218.214 75.9654 215.026C75.9654 210.059 73.1827 207.569 67.6169 207.569H55.3848V234.112H60.7559V223.676H65.2311C68.2077 223.676 69.7046 225.366 69.7046 228.739L70.2955 234.112L76.5646 233.513ZM348.857 214.429H341.705V209.055H336.632V214.429H333.947V218.005H336.632V230.237C336.632 233.019 338.516 234.412 342.296 234.412H344.983V230.237L343.792 230.536C342.401 230.536 341.705 229.938 341.705 228.739V218.005H348.857V214.429ZM256.11 230.237L254.915 230.536C253.522 230.536 252.826 229.938 252.826 228.739V218.005H256.11V214.429H252.826V209.055H247.462V214.429H244.777V218.005H247.462V230.237C247.462 233.019 249.444 234.412 253.425 234.412H256.11V230.237ZM415.666 230.237V219.5C415.666 215.724 413.08 213.829 407.918 213.829C402.342 213.829 399.356 216.119 398.968 220.691H404.033C404.632 218.902 405.724 218.005 407.317 218.005C409.504 218.005 410.594 218.805 410.594 220.391C410.594 220.795 409.995 221.29 408.806 221.887L404.033 222.478C400.253 222.881 398.371 225.067 398.371 229.039C398.371 232.826 400.352 234.712 404.331 234.712C406.913 234.712 408.903 234.014 410.296 232.623L411.193 234.112H416.264C415.861 233.714 415.666 232.422 415.666 230.237ZM395.682 220.991C395.682 216.62 393.491 214.429 389.121 214.429C386.534 214.429 384.841 215.124 384.049 216.515L383.459 214.429H378.688V234.112H383.759V223.376C383.759 220.196 385.045 218.602 387.633 218.602C389.617 218.602 390.61 219.896 390.61 222.477V234.112H395.682V220.991ZM366.162 213.829C359.399 213.829 356.017 217.308 356.017 224.267C356.017 231.232 359.399 234.712 366.162 234.712C372.919 234.712 376.299 231.232 376.299 224.267C376.299 217.308 372.919 213.829 366.162 213.829ZM353.928 214.429H348.857V234.112H353.928V214.429ZM332.159 230.237V219.5C332.159 215.724 329.57 213.829 324.409 213.829C318.833 213.829 315.847 216.119 315.461 220.691H320.524C321.123 218.902 322.215 218.005 323.81 218.005C325.993 218.005 327.085 218.805 327.085 220.391C327.085 220.795 326.486 221.29 325.299 221.887L320.824 222.478C316.843 223.077 314.862 225.269 314.862 229.039C314.862 232.826 316.843 234.712 320.824 234.712C323.404 234.712 325.396 234.014 326.793 232.623L327.684 234.112H332.758C332.352 233.714 332.159 232.422 332.159 230.237ZM311.576 220.991C311.576 216.62 309.383 214.429 305.015 214.429C302.425 214.429 300.637 215.124 299.651 216.515L299.351 214.429H294.279V234.112H299.351V223.376C299.351 220.196 300.637 218.602 303.227 218.602C305.217 218.602 306.21 219.896 306.21 222.477V234.112H311.576V220.991ZM291.893 214.728L291.002 214.429C288.607 214.429 286.918 215.229 285.93 216.815L285.334 214.429H280.567V234.112H285.634V223.975C285.634 220.795 287.216 219.201 290.403 219.201H291.893V214.728ZM277.283 224.863C277.283 217.511 274.201 213.829 268.037 213.829C261.677 213.829 258.497 217.212 258.497 223.975C258.497 231.136 261.774 234.712 268.335 234.712C272.705 234.712 275.592 232.623 276.983 228.447H271.621C271.216 229.842 270.123 230.536 268.335 230.536C265.747 230.536 264.161 228.951 263.562 225.762L277.283 224.863ZM242.39 220.991C242.39 216.62 240.302 214.429 236.128 214.429C233.538 214.429 231.75 215.124 230.755 216.515L230.164 214.429H225.391V234.112H230.455V223.376C230.455 220.196 231.75 218.602 234.34 218.602C236.322 218.602 237.317 219.896 237.317 222.477V234.112H242.39V220.991ZM179.758 228.447C178.957 229.842 177.864 230.536 176.473 230.536C173.884 230.536 172.298 228.951 171.7 225.762L185.122 224.863C185.122 217.511 182.039 213.829 175.874 213.829C169.709 213.829 166.635 217.212 166.635 223.975C166.635 231.136 169.912 234.712 176.473 234.712C180.841 234.712 183.73 232.623 185.122 228.447H179.758ZM161.563 214.429L158.278 228.447L155.3 214.429H150.227L147.241 228.447L144.266 214.429H138.593L144.266 234.112H149.629L152.614 219.8L155.89 234.112H160.964L166.635 214.429H161.563ZM108.771 213.829C102.607 213.829 99.525 217.511 99.525 224.863C99.525 231.433 102.502 234.712 108.474 234.712C114.436 234.712 117.42 232.13 117.42 226.952H112.348C111.555 229.146 110.358 230.237 108.771 230.237C106.184 230.237 104.897 228.15 104.897 223.975C104.897 220.196 106.184 218.302 108.771 218.302C110.762 218.11 111.952 219.201 112.348 221.587H117.72C117.121 216.419 114.136 213.829 108.771 213.829ZM87.5991 213.829C80.8369 213.829 77.4541 217.308 77.4541 224.267C77.4541 231.232 80.8369 234.712 87.5989 234.712C94.1529 234.712 97.4372 231.232 97.4372 224.267C97.4372 217.308 94.1529 213.829 87.5991 213.829ZM263.86 222.178C264.257 219.597 265.551 218.302 267.736 218.302C270.325 218.302 271.718 219.597 271.919 222.178H263.86ZM171.998 222.178C172.395 219.597 173.689 218.302 175.873 218.302C178.463 218.302 179.854 219.597 180.049 222.178H171.998ZM87.5989 230.237C84.4123 230.237 82.8268 228.247 82.8268 224.267C82.8268 220.092 84.4124 218.005 87.5991 218.005C90.7718 218.005 92.3648 220.092 92.3648 224.267C92.3648 228.247 90.7718 230.237 87.5991 230.237H87.5989ZM366.162 230.237C362.975 230.237 361.389 228.247 361.389 224.267C361.389 220.295 362.975 218.302 366.162 218.302C369.334 218.302 370.927 220.295 370.927 224.267C370.927 228.247 369.334 230.237 366.162 230.237ZM406.119 230.828C404.524 230.828 403.732 230.034 403.732 228.447C403.732 227.252 404.825 226.257 407.018 225.462L410.594 224.566V226.952C410.594 229.542 409.096 230.828 406.119 230.828ZM322.61 230.828C321.026 230.828 320.232 230.034 320.232 228.447C320.232 227.057 321.423 226.062 323.81 225.462L327.085 224.566V226.952C327.085 229.542 325.589 230.828 322.61 230.828Z" fill="#231F20"/>
</svg>
