<svg width="480" height="320" viewBox="0 0 480 320" fill="none" xmlns="http://www.w3.org/2000/svg">
<path d="M134.152 54.1758H345.847V266.669H134.152V54.1758Z" fill="#E6E6E6"/>
<path d="M239.999 264.268C298.016 264.268 345.048 217.237 345.048 159.22C345.048 101.204 298.016 54.1719 239.999 54.1719C181.983 54.1719 134.951 101.204 134.951 159.22C134.951 217.237 181.983 264.268 239.999 264.268Z" fill="black" stroke="black" stroke-width="4.20192" stroke-linecap="round"/>
<path d="M239.999 250.802C290.135 250.802 330.779 209.801 330.779 159.223C330.779 108.646 290.135 67.6445 239.999 67.6445C189.862 67.6445 149.219 108.646 149.219 159.223C149.219 209.801 189.862 250.802 239.999 250.802Z" fill="white" stroke="black" stroke-width="3.64646" stroke-linecap="round"/>
<path d="M142.941 150.201H335.863L316.691 99.4733L167.306 99.0742L142.941 150.201Z" fill="black" stroke="black" stroke-width="4.20192"/>
<path d="M239.676 68.2305C260.66 78.3555 259.42 193.386 238.728 250.724C218.517 193.074 219.78 83.201 239.676 68.2305Z" fill="black" stroke="black" stroke-width="4.14192"/>
<path d="M200.855 213.777H275.548V244.133H200.855V213.777Z" fill="black" stroke="black" stroke-width="4.20192" stroke-linecap="round"/>
</svg>
