<svg width="480" height="320" viewBox="0 0 480 320" fill="none" xmlns="http://www.w3.org/2000/svg">
<path d="M199.104 181.482H206.114V137.27H198.738V181.482H199.104ZM213.774 181.482H220.783V137.27H213.41V181.482H213.774ZM331.134 194.942C335.688 195.706 339.759 193.852 342.458 191.315C346.245 187.729 348.663 183.055 352.696 172.133L360.432 151.497L360.594 151.055H353.179L353.099 151.254L346.126 171.727L338.71 151.254L338.627 151.055H330.53L330.689 151.497L342.257 180.473C341.329 183.055 339.838 185.228 338.387 186.681C336.533 188.454 333.954 189.259 331.133 188.778V194.942" fill="#00498F"/>
<path d="M315.417 150.289C306.308 150.289 300.06 156.859 300.06 166.248C300.06 175.799 306.23 182.249 315.417 182.249C324.603 182.249 330.733 175.799 330.733 166.248C330.733 156.859 324.486 150.289 315.417 150.289ZM315.376 176.326C310.783 176.326 307.358 172.332 307.358 166.209C307.358 160.083 310.782 156.094 315.376 156.094C320.051 156.094 323.437 160.083 323.437 166.209C323.437 172.332 320.011 176.326 315.376 176.326ZM178.59 150.207C169.238 150.207 163.235 156.657 163.235 166.169C163.235 175.72 169.238 182.171 178.59 182.171C187.94 182.171 193.906 175.72 193.906 166.169C193.906 156.657 187.94 150.207 178.59 150.207ZM178.548 176.244C173.953 176.244 170.529 172.213 170.529 166.129C170.529 160.001 173.953 156.012 178.548 156.012C183.225 156.012 186.609 160.001 186.609 166.129C186.609 172.213 183.182 176.244 178.548 176.244ZM249.278 158.349H263.749V163.912H249.278V158.349ZM158.235 168.788C159.767 173.622 160.573 178.461 161.14 181.362L153.28 181.402C152.836 178.904 152.392 175.437 151.023 171.245C149.451 166.247 147.476 163.949 142.801 163.949H139.214V181.361H131.797V139.004C133.369 139.004 135.221 138.883 137.198 138.883H143.162C149.166 138.883 153.117 140.131 155.859 142.511C158.154 144.483 159.404 147.467 159.404 150.894C159.404 156.496 156.14 159.719 152.513 161.132C155.174 162.379 156.866 164.557 158.235 168.788ZM143.928 144.969H141.472C140.423 144.969 139.737 145.051 139.214 145.051V158.348H143.526C148.604 158.348 152.069 155.728 152.069 151.577C152.07 147.266 149.248 145.011 143.928 144.969ZM295.426 168.788C296.957 173.622 297.762 178.461 298.328 181.362L290.469 181.402C290.025 178.904 289.581 175.437 288.211 171.245C286.638 166.247 284.664 163.949 279.991 163.949H276.403V181.361H268.987V139.004C270.559 139.004 272.412 138.883 274.387 138.883H280.354C286.358 138.883 290.306 140.131 293.048 142.511C295.347 144.483 296.595 147.467 296.595 150.894C296.595 156.496 293.33 159.719 289.703 161.132C292.365 162.379 294.055 164.557 295.426 168.788ZM281.117 144.969H278.66C277.613 144.969 276.927 145.051 276.404 145.051V158.348H280.717C285.795 158.348 289.259 155.728 289.259 151.577C289.259 147.266 286.438 145.011 281.117 144.969ZM227.395 174.552C229.087 175.601 232.191 176.607 234.892 176.607C238.52 176.607 239.97 175.438 239.97 173.22C239.97 170.964 238.801 169.998 234.933 168.587C229.249 166.57 226.751 163.225 226.751 159.678C226.751 154.562 230.984 150.328 237.795 150.328C241.019 150.328 243.84 151.293 245.573 152.302L244.123 157.22C242.472 156.455 240.537 155.769 237.796 155.809C234.974 155.85 233.845 157.139 233.845 158.951C233.845 161.049 235.982 162.258 238.722 163.185C244.163 164.997 247.066 168.061 247.066 172.656C247.027 178.095 242.471 182.085 234.812 182.085C231.347 182.085 228.042 181.361 225.947 179.79L227.395 174.552ZM384.293 180.356C382.763 181.084 379.578 182.008 375.707 182.008C366.883 181.927 360.314 175.882 360.314 166.529C360.314 157.422 366.236 150.37 376.88 150.37C379.9 150.37 382.722 151.175 384.373 151.941L383.083 157.3C381.795 156.657 379.9 156.252 377.038 156.252C370.792 156.252 367.851 160.365 367.891 166.209C367.891 172.738 371.477 176.363 376.999 176.363C379.821 176.363 381.795 175.72 383.287 175.076L384.293 180.356ZM393.039 167.943C393.241 174.185 396.99 176.406 402.147 176.406C405.815 176.406 408.314 175.799 410.491 174.955L411.577 180.036C409.242 181.04 405.736 182.171 401.182 182.171C391.589 182.171 385.866 175.843 385.866 166.654C385.866 158.027 391.064 150.412 400.457 150.412C410.292 150.412 413.272 158.714 413.272 164.878C413.272 166.21 413.272 167.218 413.111 167.902L393.039 167.943ZM406.38 162.742C406.421 159.719 405.531 155.648 400.011 155.648C394.934 155.648 393.445 159.397 393.077 162.742H406.38Z" fill="#00498F"/>
<path d="M57.8418 125.504C57.8418 122.885 59.9789 120.746 62.5983 120.746H99.2338C101.894 120.746 104.029 122.885 104.029 125.504V194.5C104.029 197.124 101.893 199.256 99.2338 199.256H62.5992C59.9798 199.256 57.8427 197.124 57.8427 194.5V125.504" fill="white"/>
<path d="M59.8164 133.643V125.504C59.8164 123.972 61.0677 122.723 62.5981 122.723H99.2337C100.806 122.723 102.053 123.972 102.053 125.504V133.643H59.8164ZM59.8164 135.619H102.053V184.386H59.8164V135.619Z" fill="#00498F"/>
<path d="M57.8419 125.504C57.8419 122.885 59.9789 120.746 62.5983 120.746H99.2339C101.894 120.746 104.029 122.885 104.029 125.504V194.5C104.029 197.125 101.893 199.256 99.2339 199.256H62.5993C59.9799 199.256 57.8428 197.124 57.8428 194.5V125.504H57.8419ZM106.447 125.504C106.447 121.513 103.223 118.289 99.2348 118.289H62.5993C58.6099 118.289 55.3848 121.514 55.3848 125.504V194.5C55.3848 198.492 58.6099 201.712 62.5993 201.712H99.2348C103.223 201.712 106.447 198.491 106.447 194.5V125.504Z" fill="#00498F"/>
<path d="M59.8164 186.359V194.501C59.8164 196.033 61.0677 197.284 62.5981 197.284H99.2337C100.806 197.284 102.053 196.033 102.053 194.501V186.359H59.8164Z" fill="#00498F"/>
<path d="M77.9137 176.606V165.764C78.9619 165.723 79.9664 165.682 80.9756 165.603C80.6138 164.757 80.2484 163.91 79.8059 163.103C79.1993 163.184 78.5574 163.184 77.9128 163.223V160.968C76.5011 161.288 74.9706 161.531 73.3993 161.693V176.606C73.3993 179.911 71.8679 180.799 70.9395 181.401H80.3708C79.4859 180.798 77.9137 179.911 77.9137 176.606ZM99.8392 181.361C99.0721 180.634 98.1037 179.507 97.6233 177.289C96.7328 173.219 94.8796 167.377 90.9718 163.022C94.7998 160.927 97.1382 157.623 97.1382 153.554C97.1771 150.649 95.6856 147.586 93.0254 145.773C91.8984 145.051 90.5683 144.525 88.9961 144.199C89.561 145.412 89.9227 146.7 90.0053 147.99C91.6582 149.278 92.5431 151.253 92.5431 153.631C92.5431 156.656 91.0098 160.201 85.6504 162.016C86.0947 162.862 86.5362 163.749 86.8998 164.595C87.1818 164.514 87.4657 164.432 87.7476 164.354C90.2437 167.255 92.2602 171.81 92.864 176.041C93.3083 179.104 92.2212 180.635 91.4949 181.361H99.8392Z" fill="white"/>
<path d="M90.4481 176.484C89.6421 175.759 88.6747 174.631 88.2313 172.414C87.3427 168.343 85.572 162.62 82.025 158.552C82.1855 158.47 82.307 158.431 82.4693 158.349C86.4986 156.296 88.9585 152.868 88.9585 148.677C88.9974 145.734 87.5059 142.713 84.8457 140.898C82.7504 139.489 79.9288 138.922 76.3428 138.922H62.7598C63.6873 139.528 65.2178 140.415 65.2178 143.719V171.69C65.2178 175.037 63.6864 175.881 62.7598 176.485H72.1902C71.3025 175.881 69.7322 175.037 69.7322 171.69V160.848C73.037 160.848 76.1416 160.444 78.76 159.757C81.1392 162.62 82.9127 167.055 83.4757 171.125C83.8783 174.185 82.8301 175.76 82.1048 176.484H90.4481ZM69.7322 158.349V141.422H76.1416C78.479 141.463 80.2107 141.946 81.5835 142.914C83.3932 144.201 84.3615 146.257 84.3615 148.717C84.3615 152.867 81.501 158.149 69.7322 158.349Z" fill="white"/>
<path d="M77.9142 155.931V146.38H82.9926C82.6299 145.332 81.9843 144.485 81.0985 143.841H70.9409C71.8694 144.444 73.4008 145.292 73.4008 148.637V157.062C75.0935 156.819 76.6249 156.457 77.9142 155.931ZM87.1434 191.842C87.1434 193.212 87.9494 194.258 89.3584 194.258C90.3675 194.258 91.2923 193.974 91.6967 193.492L91.4537 195.068C91.092 195.224 90.4473 195.43 89.4001 195.43C87.1434 195.43 85.5712 194.098 85.5712 191.841C85.5712 190.634 86.0553 189.706 86.7788 189.101C87.4244 188.539 88.3102 188.212 89.4001 188.212C90.4473 188.212 91.0929 188.414 91.4537 188.614V190.109C91.0103 189.625 90.3675 189.382 89.3584 189.382C87.9494 189.382 87.1434 190.432 87.1434 191.842ZM68.8864 193.536C68.5636 192.89 68.2816 192.366 67.7965 192.165C68.8446 191.963 69.3687 191.316 69.4095 190.431C69.4095 189.503 69.0069 188.818 68.2816 188.539C67.8373 188.374 67.2344 188.374 66.3486 188.374H62.8406C63.1652 188.577 63.3646 189.261 63.3646 189.907V193.775C63.3646 194.34 63.1652 195.067 62.8406 195.305H65.3394C65.0194 195.067 64.8163 194.339 64.8163 193.775V192.527H65.8625C66.4283 192.527 66.7493 192.767 66.9914 193.167C67.355 193.774 67.6388 194.623 68.0803 195.263L70.1348 195.304C69.492 194.824 69.2101 194.217 68.8864 193.536ZM67.879 190.469C67.879 191.155 67.3142 191.439 66.4283 191.439H64.8163V189.504H66.4283C67.3132 189.504 67.879 189.747 67.879 190.469ZM72.7941 193.655C72.3934 193.293 72.1903 192.69 72.1903 191.842C72.1903 190.996 72.3934 190.394 72.7941 189.988C73.1559 189.626 73.641 189.424 74.2866 189.424C74.8904 189.424 75.3755 189.626 75.7391 189.988C76.1417 190.394 76.3429 190.996 76.3429 191.842C76.3429 192.691 76.1417 193.293 75.7391 193.655C75.3746 194.02 74.8895 194.258 74.2866 194.258C73.641 194.258 73.1559 194.019 72.7941 193.655ZM74.2467 195.468C75.2132 195.468 76.0202 195.187 76.6249 194.66C77.3475 194.058 77.8743 193.134 77.8743 191.842C77.8743 190.553 77.3475 189.626 76.6249 188.977C76.0202 188.496 75.2132 188.214 74.2467 188.214C73.3182 188.214 72.5131 188.497 71.9083 188.977C71.183 189.626 70.6589 190.553 70.6589 191.842C70.6589 193.134 71.183 194.058 71.9083 194.66C72.5131 195.186 73.3173 195.468 74.2467 195.468ZM83.2736 188.374C83.4369 188.496 83.5166 188.614 83.4758 188.781C83.4758 188.94 83.3933 189.181 83.2328 189.423L81.8647 191.398L80.4919 189.383C80.3314 189.139 80.171 188.899 80.2108 188.697C80.2498 188.578 80.2925 188.456 80.4529 188.374H77.6721C78.1572 188.577 78.3947 188.939 78.7592 189.463L81.015 192.649V193.776C81.015 194.341 80.8156 195.068 80.4919 195.265H82.9926C82.6698 195.068 82.4694 194.341 82.4694 193.776V192.649L84.524 189.747C84.8458 189.344 85.291 188.614 85.7715 188.374H83.2736ZM96.6563 194.177H94.8801V192.285H97.5412L97.7017 191.237H94.8801V189.504H96.4514C97.3381 189.504 98.0653 189.545 98.4261 189.907V188.374H92.9044C93.2272 188.614 93.4312 189.344 93.4312 189.907V193.775C93.4312 194.38 93.2272 195.067 92.9044 195.305H98.4679L98.709 193.612C98.3055 194.139 97.5412 194.177 96.6563 194.177ZM93.1493 129.656C93.3079 129.897 93.6724 130.18 93.9126 130.3C94.599 130.663 95.2029 130.783 95.8475 130.783C96.8548 130.783 97.4615 130.341 97.4615 129.695C97.4615 128.929 96.6944 128.809 95.5266 128.645C94.036 128.446 93.2281 127.761 93.2281 126.553C93.2689 125.342 94.3978 124.417 96.0516 124.417C97.1776 124.417 97.9438 124.657 98.427 124.899V126.47C98.2675 126.187 97.9048 125.986 97.5412 125.826C97.057 125.664 96.5747 125.585 96.0516 125.585C95.2418 125.585 94.7604 125.907 94.7604 126.308C94.7604 126.994 95.4041 127.075 96.8131 127.356C98.2248 127.642 99.0717 128.245 99.0327 129.494C98.9919 130.944 97.8612 131.912 95.8475 131.912C94.9599 131.912 93.8319 131.75 93.1493 131.388V129.656ZM69.1665 129.976C68.8047 129.291 68.5237 128.768 68.0005 128.526C69.1284 128.284 69.6915 127.641 69.6915 126.673C69.6915 125.744 69.2889 125.02 68.5246 124.738C68.0395 124.536 67.4357 124.536 66.509 124.536H62.7988C63.1652 124.778 63.3646 125.504 63.3646 126.148V130.217C63.3646 130.823 63.1652 131.59 62.7988 131.791H65.4609C65.0992 131.59 64.8951 130.823 64.8951 130.217V128.927H66.0258C66.5916 128.927 66.9116 129.129 67.1546 129.574C67.5581 130.216 67.8382 131.104 68.3215 131.791H70.4595C69.813 131.348 69.492 130.662 69.1665 129.976ZM68.1193 126.752C68.1193 127.48 67.5154 127.761 66.5907 127.761H64.8942V125.704H66.5907C67.5154 125.704 68.1193 125.986 68.1193 126.752ZM73.2792 130.098C72.8349 129.694 72.6355 129.051 72.6355 128.165C72.6355 127.318 72.8349 126.673 73.2792 126.228C73.641 125.867 74.1651 125.624 74.8097 125.624C75.4553 125.624 75.9784 125.867 76.3429 126.228C76.7845 126.673 77.0275 127.318 77.0275 128.165C77.0275 129.051 76.7845 129.694 76.3429 130.098C75.9784 130.46 75.4553 130.702 74.8097 130.702C74.1651 130.702 73.641 130.46 73.2792 130.098ZM74.8097 131.992C75.8189 131.992 76.6648 131.709 77.3085 131.146C78.0747 130.5 78.5988 129.534 78.5988 128.165C78.5988 126.834 78.0747 125.827 77.3085 125.184C76.6648 124.658 75.8189 124.375 74.8097 124.375C73.8033 124.375 72.9555 124.658 72.3109 125.184C71.5466 125.827 71.0197 126.834 71.0197 128.165C71.0197 129.535 71.5466 130.501 72.3109 131.146C72.9565 131.709 73.8423 131.992 74.8097 131.992ZM85.291 129.938C84.8857 130.46 84.0407 130.623 83.1113 130.623H81.7023V126.149C81.7023 125.546 81.9036 124.778 82.2264 124.537H79.6061C79.9678 124.778 80.171 125.545 80.171 126.149V130.218C80.171 130.864 79.9678 131.549 79.6061 131.792H85.048L85.291 129.938ZM91.86 129.938C91.4537 130.46 90.6096 130.662 89.6811 130.623H88.2305V126.149C88.2305 125.546 88.4317 124.778 88.7953 124.537H86.175C86.5367 124.778 86.738 125.545 86.738 126.149V130.218C86.738 130.864 86.5367 131.59 86.175 131.83H91.578L91.86 129.938Z" fill="white"/>
<path d="M415.989 150.129C415.989 147.89 417.676 146.202 419.839 146.202C421.978 146.202 423.665 147.891 423.665 150.129C423.665 152.404 421.978 154.08 419.839 154.08C417.677 154.08 415.989 152.404 415.989 150.129ZM419.84 154.869C422.415 154.869 424.616 152.867 424.616 150.129C424.616 147.415 422.415 145.414 419.84 145.414C417.239 145.414 415.039 147.415 415.039 150.129C415.039 152.866 417.239 154.869 419.84 154.869ZM418.839 150.504H419.789L421.228 152.867H422.152L420.602 150.466C421.403 150.367 422.015 149.941 422.015 148.966C422.015 147.89 421.378 147.415 420.09 147.415H418.015V152.866H418.839V150.504ZM418.839 149.803V148.115H419.965C420.54 148.115 421.153 148.239 421.153 148.916C421.153 149.753 420.527 149.803 419.827 149.803H418.839Z" fill="#00498F"/>
</svg>
