<svg width="480" height="320" viewBox="0 0 480 320" fill="none" xmlns="http://www.w3.org/2000/svg">
<mask id="mask0_730_18192" style="mask-type:luminance" maskUnits="userSpaceOnUse" x="174" y="53" width="132" height="214">
<path d="M174.459 266.668H305.567V53.3301H174.459V266.668Z" fill="white"/>
</mask>
<g mask="url(#mask0_730_18192)">
<path d="M175.441 69.002C175.441 60.9353 181.948 54.3945 189.974 54.3945H290.05C298.076 54.3945 304.583 60.9319 304.583 69.002V250.994C304.583 259.06 298.076 265.598 290.05 265.598H189.974C181.948 265.598 175.441 259.057 175.441 250.99V69.002Z" fill="white"/>
<path d="M301.402 68.0808C301.402 62.2344 296.661 57.4929 290.814 57.4929H189.212C183.365 57.4929 178.624 62.2344 178.624 68.0808V251.909C178.624 257.759 183.365 262.497 189.212 262.497L290.814 262.501C296.661 262.501 301.402 257.759 301.402 251.909V68.0808ZM305.565 68.0808V251.909C305.565 260.058 298.959 266.664 290.814 266.664H189.212C181.063 266.664 174.457 260.058 174.457 251.909V68.0808C174.457 59.9355 181.063 53.3296 189.212 53.3296L290.814 53.3262C298.959 53.3262 305.565 59.9321 305.565 68.0808ZM181.809 225.985H298.217V93.9946H181.809V225.985ZM181.809 251.909C181.809 255.998 185.124 259.312 189.212 259.312L290.814 259.316C294.902 259.316 298.217 256.001 298.217 251.909V229.191H181.809V251.909ZM298.217 68.0808V90.7857H181.809V68.0808C181.809 63.9928 185.124 60.6779 189.212 60.6779L290.814 60.6744C294.902 60.6744 298.217 63.9928 298.217 68.0808Z" fill="#00109F"/>
<path d="M281.612 81.8764C279.697 82.0098 277.812 81.0007 276.361 79.0918L276.245 78.9412L275.215 82.6119L275.246 82.6496C276.388 84.0248 278.766 84.9142 281.304 84.9142C285.016 84.9142 287.609 82.6769 287.609 79.4749C287.609 77.5284 287.055 75.3732 282.96 74.1622C279.7 73.1906 279.105 72.438 279.105 71.3022C279.105 70.0502 280.391 69.4823 281.585 69.4823C282.988 69.4823 284.274 69.9783 285.635 71.0423L285.741 71.1244L286.703 68.025L286.645 67.9873C285.16 67.0089 283.542 66.5505 281.558 66.5505C277.945 66.5505 275.612 68.4936 275.612 71.5041C275.612 73.9501 277.288 75.6947 280.593 76.6902C281.66 77.0084 282.379 77.306 282.854 77.6276C283.171 77.8398 283.431 78.1269 283.61 78.4634C283.79 78.8 283.884 79.1756 283.884 79.557C283.884 80.8125 282.929 81.7875 281.612 81.8764ZM196.126 74.1964H199.673C201.268 74.1964 202.113 73.4404 202.113 72.0138C202.113 70.5873 201.268 69.8312 199.673 69.8312H196.126V74.1964ZM196.126 84.6508H192.561V66.8139H200.234C203.46 66.8139 205.715 68.7844 205.715 71.6067C205.715 74.0082 204.141 75.1714 202.821 75.7256L202.581 75.8282L202.817 75.9342C203.546 76.2695 204.049 76.9981 204.391 78.2263L205.664 82.6838C205.862 83.3611 206.091 83.8606 206.426 84.3566L206.625 84.6508H202.954L202.899 84.5892C202.564 84.2266 202.242 83.6006 202.037 82.9164L200.837 78.8899C200.495 77.7336 200.105 77.2171 198.733 77.2171H196.126V84.6508ZM269.157 81.6164H260.96V66.8139H257.317V84.6508H269.157V81.6164ZM250.225 81.6164H242.025V66.8139H238.382V84.6508H250.225V81.6164ZM216.162 75.7324C216.162 79.5262 218.188 81.8798 221.444 81.8798C224.705 81.8798 226.726 79.5262 226.726 75.7324C226.726 71.9386 224.705 69.5849 221.444 69.5849C218.188 69.5849 216.162 71.9386 216.162 75.7324ZM212.417 75.7324C212.417 70.3273 216.128 66.5505 221.444 66.5505C226.761 66.5505 230.472 70.3273 230.472 75.7324C230.472 81.1375 226.761 84.9142 221.444 84.9142C216.128 84.9142 212.417 81.1375 212.417 75.7324ZM247.909 130.574C247.909 124.047 245.282 118.583 240.513 115.193C236.863 112.614 232.337 111.365 226.265 111.262H209.187V155.817L210.039 155.8C244.218 155.215 247.909 137.963 247.909 130.574ZM247.307 111.126C253.598 115.419 257.967 123.037 257.864 130.457C257.864 140.529 252.192 148.965 241.891 154.216C241.707 154.308 241.539 154.38 241.372 154.452C241.183 154.534 240.992 154.613 240.776 154.722L239.805 155.205L240.52 156.022C247.228 163.723 251.429 174.673 253.335 180.513C254.139 182.976 254.758 185.514 255.88 190.126L256.106 191.053C257.621 197.176 261.145 199 262.92 199.537V200.888H242.907V199.52C245.678 198.627 246.116 196.578 246.192 195.069L246.199 194.912L246.209 194.566L246.205 194.258C246.192 192.394 245.661 187.245 245.654 187.204C244.156 176.387 239.511 165.197 233.531 158L233.189 157.589L232.672 157.723C225.854 159.508 218.02 160.452 210.025 160.452H209.184L209.242 191.901C209.242 195.87 210.904 198.483 214.062 199.499V200.888H194.645V199.499C197.703 198.514 199.283 196.034 199.465 191.936V191.898C199.465 191.138 199.444 115.809 199.458 114.919C199.372 110.589 197.799 108.105 194.511 107.133V105.772H226.761C236.206 105.772 242.377 107.811 247.307 111.126ZM261.435 127.81C261.911 128.035 262.629 128.508 262.988 128.761C267.757 132.151 270.385 137.614 270.385 144.138C270.385 149.765 268.298 161.113 251.648 166.644C252.715 168.526 253.471 170.49 253.906 171.55C254.299 171.492 254.908 171.355 255.148 171.29L255.664 171.153L256.006 171.564C261.986 178.761 266.632 189.951 268.134 200.772C268.137 200.809 268.667 205.958 268.681 207.822L268.685 208.13L268.674 208.479L268.671 208.637C268.592 210.145 268.158 212.194 265.387 213.084V214.452H285.399V213.101C283.624 212.567 280.097 210.744 278.585 204.617L278.359 203.693C277.234 199.082 276.614 196.54 275.81 194.08C273.905 188.237 269.704 177.29 262.995 169.59L262.284 168.772L263.255 168.29C263.471 168.18 263.659 168.098 263.851 168.02C264.015 167.944 264.182 167.876 264.367 167.784C274.668 162.529 280.343 154.096 280.343 144.025C280.446 136.605 276.074 128.983 269.783 124.693C267.06 122.863 263.427 120.968 259.41 120.284C260.645 123.096 261.254 125.979 261.435 127.81ZM238.251 173.869C237.855 172.378 236.866 170.329 236.243 169.248C235.142 169.306 233.688 169.347 232.515 169.367L231.663 169.381V161.776C229.426 162.443 224.263 163.172 221.934 163.477C221.937 183.499 221.944 205.065 221.944 205.465V205.503C221.759 209.601 220.179 212.082 217.12 213.067V214.452H236.541V213.067C233.383 212.051 231.718 209.437 231.718 205.465L231.663 174.02H232.501C234.328 174.02 236.452 173.965 238.251 173.869ZM239.859 119.339H216.987V120.697C220.275 121.672 221.851 124.156 221.937 128.484C221.93 128.795 221.93 138.972 221.93 151.086C226.596 150.261 230.117 148.879 231.663 148.113V124.827H243.318C242.425 122.336 240.66 120.085 239.859 119.339ZM201.411 240.472C201.411 239.042 200.57 238.29 198.972 238.29H195.425V242.655H198.972C200.57 242.655 201.411 241.899 201.411 240.472ZM205.725 252.815L205.924 253.109H202.253L202.198 253.048C201.863 252.685 201.541 252.059 201.336 251.375L200.139 247.348C199.793 246.189 199.407 245.672 198.031 245.672H195.425V253.109H191.863V235.269H199.533C202.762 235.269 205.017 237.243 205.017 240.065C205.017 242.467 203.44 243.63 202.123 244.184L201.88 244.286L202.116 244.393C202.845 244.728 203.347 245.456 203.693 246.685L204.966 251.142C205.164 251.819 205.39 252.319 205.725 252.815ZM225.772 244.283C225.772 240.493 223.75 238.136 220.493 238.136C217.233 238.136 215.208 240.493 215.208 244.283C215.208 248.077 217.233 250.43 220.493 250.43C223.75 250.43 225.772 248.077 225.772 244.283ZM229.521 244.283C229.521 249.657 225.806 253.41 220.493 253.41C215.177 253.41 211.462 249.657 211.462 244.283C211.462 238.878 215.177 235.101 220.493 235.101C225.806 235.101 229.521 238.878 229.521 244.283ZM241.696 242.508L238.156 235.324L238.128 235.269H233.999L239.873 246.438V253.109H243.554V246.298L249.322 235.409L249.394 235.269H245.265L241.696 242.508ZM262.243 238.136C264.477 238.136 265.941 239.169 266.717 241.293L266.752 241.389L269.697 240.144L269.776 240.106L269.748 240.027C268.678 236.805 266.081 235.101 262.243 235.101C257.05 235.101 253.42 238.878 253.42 244.283C253.42 249.657 257.05 253.41 262.243 253.41C265.534 253.41 268.178 251.816 269.69 248.925L269.738 248.836L266.827 247.591L266.745 247.557L266.704 247.636C265.78 249.544 264.36 250.43 262.243 250.43C259.065 250.43 257.166 248.135 257.166 244.283C257.166 240.434 259.065 238.136 262.243 238.136ZM280.846 238.303V242.402H286.856V245.432H280.846V250.075H289.046V253.109H277.203V235.269H289.046V238.303H280.846Z" fill="white"/>
</g>
</svg>
