<svg width="480" height="320" viewBox="0 0 480 320" fill="none" xmlns="http://www.w3.org/2000/svg">
<path d="M199.104 181.482H206.114V137.27H198.738V181.482H199.104ZM213.774 181.482H220.783V137.27H213.41V181.482H213.774ZM331.134 194.942C335.688 195.706 339.759 193.852 342.458 191.315C346.245 187.729 348.663 183.055 352.696 172.133L360.432 151.497L360.594 151.055H353.179L353.099 151.254L346.126 171.727L338.71 151.254L338.627 151.055H330.53L330.689 151.497L342.257 180.473C341.329 183.055 339.838 185.228 338.387 186.681C336.533 188.454 333.954 189.259 331.133 188.778V194.942" fill="#00498F"/>
<path d="M315.417 150.289C306.308 150.289 300.06 156.859 300.06 166.248C300.06 175.799 306.23 182.249 315.417 182.249C324.603 182.249 330.733 175.799 330.733 166.248C330.733 156.859 324.486 150.289 315.417 150.289ZM315.376 176.326C310.783 176.326 307.358 172.332 307.358 166.209C307.358 160.083 310.782 156.094 315.376 156.094C320.051 156.094 323.437 160.083 323.437 166.209C323.437 172.332 320.011 176.326 315.376 176.326ZM178.59 150.207C169.238 150.207 163.235 156.657 163.235 166.169C163.235 175.72 169.238 182.171 178.59 182.171C187.94 182.171 193.906 175.72 193.906 166.169C193.906 156.657 187.94 150.207 178.59 150.207ZM178.548 176.244C173.953 176.244 170.529 172.213 170.529 166.129C170.529 160.001 173.953 156.012 178.548 156.012C183.225 156.012 186.609 160.001 186.609 166.129C186.609 172.213 183.182 176.244 178.548 176.244ZM249.278 158.349H263.749V163.912H249.278V158.349ZM158.235 168.788C159.767 173.622 160.573 178.461 161.14 181.362L153.28 181.402C152.836 178.904 152.392 175.437 151.023 171.245C149.451 166.247 147.476 163.949 142.801 163.949H139.214V181.361H131.797V139.004C133.369 139.004 135.221 138.883 137.198 138.883H143.162C149.166 138.883 153.117 140.131 155.859 142.511C158.154 144.483 159.404 147.467 159.404 150.894C159.404 156.496 156.14 159.719 152.513 161.132C155.174 162.379 156.866 164.557 158.235 168.788ZM143.928 144.969H141.472C140.423 144.969 139.737 145.051 139.214 145.051V158.348H143.526C148.604 158.348 152.069 155.728 152.069 151.577C152.07 147.266 149.248 145.011 143.928 144.969ZM295.426 168.788C296.957 173.622 297.762 178.461 298.328 181.362L290.469 181.402C290.025 178.904 289.581 175.437 288.211 171.245C286.638 166.247 284.664 163.949 279.991 163.949H276.403V181.361H268.987V139.004C270.559 139.004 272.412 138.883 274.387 138.883H280.354C286.358 138.883 290.306 140.131 293.048 142.511C295.347 144.483 296.595 147.467 296.595 150.894C296.595 156.496 293.33 159.719 289.703 161.132C292.365 162.379 294.055 164.557 295.426 168.788ZM281.117 144.969H278.66C277.613 144.969 276.927 145.051 276.404 145.051V158.348H280.717C285.795 158.348 289.259 155.728 289.259 151.577C289.259 147.266 286.438 145.011 281.117 144.969ZM227.395 174.552C229.087 175.601 232.191 176.607 234.892 176.607C238.52 176.607 239.97 175.438 239.97 173.22C239.97 170.964 238.801 169.998 234.933 168.587C229.249 166.57 226.751 163.225 226.751 159.678C226.751 154.562 230.984 150.328 237.795 150.328C241.019 150.328 243.84 151.293 245.573 152.302L244.123 157.22C242.472 156.455 240.537 155.769 237.796 155.809C234.974 155.85 233.845 157.139 233.845 158.951C233.845 161.049 235.982 162.258 238.722 163.185C244.163 164.997 247.066 168.061 247.066 172.656C247.027 178.095 242.471 182.085 234.812 182.085C231.347 182.085 228.042 181.361 225.947 179.79L227.395 174.552ZM384.293 180.356C382.763 181.084 379.578 182.008 375.707 182.008C366.883 181.927 360.314 175.882 360.314 166.529C360.314 157.422 366.236 150.37 376.88 150.37C379.9 150.37 382.722 151.175 384.373 151.941L383.083 157.3C381.795 156.657 379.9 156.252 377.038 156.252C370.792 156.252 367.851 160.365 367.891 166.209C367.891 172.738 371.477 176.363 376.999 176.363C379.821 176.363 381.795 175.72 383.287 175.076L384.293 180.356ZM393.039 167.943C393.241 174.185 396.99 176.406 402.147 176.406C405.815 176.406 408.314 175.799 410.491 174.955L411.577 180.036C409.242 181.04 405.736 182.171 401.182 182.171C391.589 182.171 385.866 175.843 385.866 166.654C385.866 158.027 391.064 150.412 400.457 150.412C410.292 150.412 413.272 158.714 413.272 164.878C413.272 166.21 413.272 167.218 413.111 167.902L393.039 167.943ZM406.38 162.742C406.421 159.719 405.531 155.648 400.011 155.648C394.934 155.648 393.445 159.397 393.077 162.742H406.38Z" fill="#00498F"/>
<path d="M57.8438 125.504C57.8438 122.885 59.9808 120.746 62.6002 120.746H99.2358C101.896 120.746 104.031 122.885 104.031 125.504V194.5C104.031 197.124 101.895 199.256 99.2358 199.256H62.6012C59.9818 199.256 57.8447 197.124 57.8447 194.5V125.504" fill="white"/>
<path d="M59.8164 133.643V125.504C59.8164 123.972 61.0677 122.723 62.5981 122.723H99.2337C100.806 122.723 102.053 123.972 102.053 125.504V133.643H59.8164ZM59.8164 135.619H102.053V184.386H59.8164V135.619Z" fill="#00498F"/>
<path d="M57.8399 125.504C57.8399 122.885 59.977 120.746 62.5964 120.746H99.2319C101.892 120.746 104.027 122.885 104.027 125.504V194.5C104.027 197.125 101.891 199.256 99.2319 199.256H62.5973C59.9779 199.256 57.8408 197.124 57.8408 194.5V125.504H57.8399ZM106.445 125.504C106.445 121.513 103.221 118.289 99.2328 118.289H62.5973C58.6079 118.289 55.3828 121.514 55.3828 125.504V194.5C55.3828 198.492 58.6079 201.712 62.5973 201.712H99.2328C103.221 201.712 106.445 198.491 106.445 194.5V125.504Z" fill="#00498F"/>
<path d="M59.8164 186.359V194.501C59.8164 196.033 61.0677 197.284 62.5981 197.284H99.2337C100.806 197.284 102.053 196.033 102.053 194.501V186.359H59.8164Z" fill="#00498F"/>
<path d="M77.9118 176.606V165.764C78.9599 165.723 79.9644 165.682 80.9736 165.603C80.6119 164.757 80.2464 163.91 79.804 163.103C79.1974 163.184 78.5555 163.184 77.9108 163.223V160.968C76.4991 161.288 74.9686 161.531 73.3974 161.693V176.606C73.3974 179.911 71.866 180.799 70.9375 181.401H80.3689C79.484 180.798 77.9118 179.911 77.9118 176.606ZM99.8372 181.361C99.0702 180.634 98.1018 179.507 97.6213 177.289C96.7309 173.219 94.8776 167.377 90.9698 163.022C94.7979 160.927 97.1362 157.623 97.1362 153.554C97.1752 150.649 95.6837 147.586 93.0234 145.773C91.8965 145.051 90.5664 144.525 88.9942 144.199C89.559 145.412 89.9208 146.7 90.0033 147.99C91.6562 149.278 92.5411 151.253 92.5411 153.631C92.5411 156.656 91.0079 160.201 85.6485 162.016C86.0928 162.862 86.5343 163.749 86.8979 164.595C87.1799 164.514 87.4637 164.432 87.7457 164.354C90.2417 167.255 92.2582 171.81 92.8621 176.041C93.3064 179.104 92.2193 180.635 91.493 181.361H99.8372Z" fill="white"/>
<path d="M90.4462 176.484C89.6401 175.759 88.6727 174.631 88.2293 172.414C87.3407 168.343 85.57 162.62 82.0231 158.552C82.1835 158.47 82.3051 158.431 82.4674 158.349C86.4967 156.296 88.9565 152.868 88.9565 148.677C88.9955 145.734 87.504 142.713 84.8438 140.898C82.7484 139.489 79.9268 138.922 76.3409 138.922H62.7578C63.6854 139.528 65.2158 140.415 65.2158 143.719V171.69C65.2158 175.037 63.6844 175.881 62.7578 176.485H72.1882C71.3006 175.881 69.7302 175.037 69.7302 171.69V160.848C73.0351 160.848 76.1396 160.444 78.7581 159.757C81.1373 162.62 82.9107 167.055 83.4738 171.125C83.8763 174.185 82.8282 175.76 82.1028 176.484H90.4462ZM69.7302 158.349V141.422H76.1396C78.477 141.463 80.2088 141.946 81.5816 142.914C83.3912 144.201 84.3596 146.257 84.3596 148.717C84.3596 152.867 81.499 158.149 69.7302 158.349Z" fill="white"/>
<path d="M77.9123 155.931V146.38H82.9906C82.6279 145.332 81.9824 144.485 81.0966 143.841H70.9389C71.8674 144.444 73.3988 145.292 73.3988 148.637V157.062C75.0916 156.819 76.623 156.457 77.9123 155.931ZM87.1414 191.842C87.1414 193.212 87.9475 194.258 89.3564 194.258C90.3656 194.258 91.2904 193.974 91.6948 193.492L91.4518 195.068C91.09 195.224 90.4454 195.43 89.3981 195.43C87.1414 195.43 85.5692 194.098 85.5692 191.841C85.5692 190.634 86.0534 189.706 86.7769 189.101C87.4225 188.539 88.3083 188.212 89.3981 188.212C90.4454 188.212 91.0909 188.414 91.4518 188.614V190.109C91.0084 189.625 90.3656 189.382 89.3564 189.382C87.9475 189.382 87.1414 190.432 87.1414 191.842ZM68.8844 193.536C68.5616 192.89 68.2796 192.366 67.7945 192.165C68.8427 191.963 69.3667 191.316 69.4075 190.431C69.4075 189.503 69.005 188.818 68.2796 188.539C67.8353 188.374 67.2324 188.374 66.3466 188.374H62.8386C63.1633 188.577 63.3627 189.261 63.3627 189.907V193.775C63.3627 194.34 63.1633 195.067 62.8386 195.305H65.3374C65.0174 195.067 64.8143 194.339 64.8143 193.775V192.527H65.8606C66.4264 192.527 66.7473 192.767 66.9894 193.167C67.353 193.774 67.6368 194.623 68.0784 195.263L70.1329 195.304C69.4901 194.824 69.2081 194.217 68.8844 193.536ZM67.8771 190.469C67.8771 191.155 67.3122 191.439 66.4264 191.439H64.8143V189.504H66.4264C67.3113 189.504 67.8771 189.747 67.8771 190.469ZM72.7922 193.655C72.3915 193.293 72.1883 192.69 72.1883 191.842C72.1883 190.996 72.3915 190.394 72.7922 189.988C73.1539 189.626 73.639 189.424 74.2846 189.424C74.8884 189.424 75.3736 189.626 75.7372 189.988C76.1397 190.394 76.341 190.996 76.341 191.842C76.341 192.691 76.1397 193.293 75.7372 193.655C75.3726 194.02 74.8875 194.258 74.2846 194.258C73.639 194.258 73.1539 194.019 72.7922 193.655ZM74.2447 195.468C75.2112 195.468 76.0182 195.187 76.623 194.66C77.3455 194.058 77.8724 193.134 77.8724 191.842C77.8724 190.553 77.3455 189.626 76.623 188.977C76.0182 188.496 75.2112 188.214 74.2447 188.214C73.3162 188.214 72.5111 188.497 71.9064 188.977C71.181 189.626 70.657 190.553 70.657 191.842C70.657 193.134 71.181 194.058 71.9064 194.66C72.5111 195.186 73.3153 195.468 74.2447 195.468ZM83.2717 188.374C83.4349 188.496 83.5147 188.614 83.4739 188.781C83.4739 188.94 83.3913 189.181 83.2309 189.423L81.8627 191.398L80.4899 189.383C80.3295 189.139 80.169 188.899 80.2089 188.697C80.2478 188.578 80.2905 188.456 80.451 188.374H77.6702C78.1553 188.577 78.3927 188.939 78.7573 189.463L81.0131 192.649V193.776C81.0131 194.341 80.8137 195.068 80.4899 195.265H82.9906C82.6678 195.068 82.4675 194.341 82.4675 193.776V192.649L84.522 189.747C84.8439 189.344 85.2891 188.614 85.7696 188.374H83.2717ZM96.6544 194.177H94.8781V192.285H97.5393L97.6997 191.237H94.8781V189.504H96.4494C97.3361 189.504 98.0633 189.545 98.4242 189.907V188.374H92.9024C93.2252 188.614 93.4293 189.344 93.4293 189.907V193.775C93.4293 194.38 93.2252 195.067 92.9024 195.305H98.4659L98.7071 193.612C98.3036 194.139 97.5393 194.177 96.6544 194.177ZM93.1473 129.656C93.3059 129.897 93.6705 130.18 93.9107 130.3C94.5971 130.663 95.2009 130.783 95.8456 130.783C96.8529 130.783 97.4595 130.341 97.4595 129.695C97.4595 128.929 96.6924 128.809 95.5246 128.645C94.0341 128.446 93.2262 127.761 93.2262 126.553C93.267 125.342 94.3958 124.417 96.0496 124.417C97.1757 124.417 97.9418 124.657 98.4251 124.899V126.47C98.2655 126.187 97.9029 125.986 97.5393 125.826C97.0551 125.664 96.5728 125.585 96.0496 125.585C95.2399 125.585 94.7585 125.907 94.7585 126.308C94.7585 126.994 95.4022 127.075 96.8111 127.356C98.2229 127.642 99.0697 128.245 99.0308 129.494C98.99 130.944 97.8593 131.912 95.8456 131.912C94.9579 131.912 93.83 131.75 93.1473 131.388V129.656ZM69.1645 129.976C68.8028 129.291 68.5217 128.768 67.9986 128.526C69.1265 128.284 69.6895 127.641 69.6895 126.673C69.6895 125.744 69.287 125.02 68.5227 124.738C68.0375 124.536 67.4337 124.536 66.5071 124.536H62.7969C63.1633 124.778 63.3627 125.504 63.3627 126.148V130.217C63.3627 130.823 63.1633 131.59 62.7969 131.791H65.459C65.0972 131.59 64.8931 130.823 64.8931 130.217V128.927H66.0238C66.5896 128.927 66.9096 129.129 67.1527 129.574C67.5561 130.216 67.8363 131.104 68.3195 131.791H70.4575C69.811 131.348 69.4901 130.662 69.1645 129.976ZM68.1173 126.752C68.1173 127.48 67.5135 127.761 66.5887 127.761H64.8922V125.704H66.5887C67.5135 125.704 68.1173 125.986 68.1173 126.752ZM73.2773 130.098C72.833 129.694 72.6336 129.051 72.6336 128.165C72.6336 127.318 72.833 126.673 73.2773 126.228C73.639 125.867 74.1631 125.624 74.8077 125.624C75.4533 125.624 75.9765 125.867 76.341 126.228C76.7825 126.673 77.0255 127.318 77.0255 128.165C77.0255 129.051 76.7825 129.694 76.341 130.098C75.9765 130.46 75.4533 130.702 74.8077 130.702C74.1631 130.702 73.639 130.46 73.2773 130.098ZM74.8077 131.992C75.8169 131.992 76.6629 131.709 77.3066 131.146C78.0727 130.5 78.5968 129.534 78.5968 128.165C78.5968 126.834 78.0727 125.827 77.3066 125.184C76.6629 124.658 75.8169 124.375 74.8077 124.375C73.8014 124.375 72.9536 124.658 72.3089 125.184C71.5446 125.827 71.0178 126.834 71.0178 128.165C71.0178 129.535 71.5446 130.501 72.3089 131.146C72.9545 131.709 73.8403 131.992 74.8077 131.992ZM85.2891 129.938C84.8838 130.46 84.0388 130.623 83.1093 130.623H81.7004V126.149C81.7004 125.546 81.9017 124.778 82.2245 124.537H79.6041C79.9659 124.778 80.169 125.545 80.169 126.149V130.218C80.169 130.864 79.9659 131.549 79.6041 131.792H85.0461L85.2891 129.938ZM91.858 129.938C91.4517 130.46 90.6077 130.662 89.6792 130.623H88.2285V126.149C88.2285 125.546 88.4298 124.778 88.7934 124.537H86.173C86.5348 124.778 86.7361 125.545 86.7361 126.149V130.218C86.7361 130.864 86.5348 131.59 86.173 131.83H91.576L91.858 129.938Z" fill="white"/>
<path d="M415.989 150.129C415.989 147.89 417.676 146.202 419.839 146.202C421.978 146.202 423.665 147.891 423.665 150.129C423.665 152.404 421.978 154.08 419.839 154.08C417.677 154.08 415.989 152.404 415.989 150.129ZM419.84 154.869C422.415 154.869 424.616 152.867 424.616 150.129C424.616 147.415 422.415 145.414 419.84 145.414C417.239 145.414 415.039 147.415 415.039 150.129C415.039 152.866 417.239 154.869 419.84 154.869ZM418.839 150.504H419.789L421.228 152.867H422.152L420.602 150.466C421.403 150.367 422.015 149.941 422.015 148.966C422.015 147.89 421.378 147.415 420.09 147.415H418.015V152.866H418.839V150.504ZM418.839 149.803V148.115H419.965C420.54 148.115 421.153 148.239 421.153 148.916C421.153 149.753 420.527 149.803 419.827 149.803H418.839Z" fill="#00498F"/>
</svg>
