<svg width="480" height="320" viewBox="0 0 480 320" fill="none" xmlns="http://www.w3.org/2000/svg">
<path d="M239.99 90.2139C246.794 90.2139 253.193 92.8569 258.003 97.6762C262.819 102.492 265.471 108.888 265.471 115.695C265.471 129.748 254.04 141.179 239.99 141.179C233.174 141.179 226.781 138.53 221.962 133.72C217.152 128.898 214.5 122.499 214.5 115.695C214.5 108.888 217.152 102.492 221.962 97.6762C226.781 92.86 233.174 90.2139 239.99 90.2139ZM212.92 115.695C212.92 122.926 215.73 129.729 220.849 134.836C225.956 139.961 232.76 142.768 239.99 142.768C247.217 142.768 254.012 139.961 259.125 134.836C264.238 129.729 267.051 122.926 267.051 115.695C267.051 108.465 264.238 101.661 259.125 96.5541C254.012 91.4411 247.214 88.625 239.99 88.625C225.059 88.625 212.92 100.774 212.92 115.695ZM239.99 94.1738C245.734 94.1738 251.137 96.4057 255.205 100.471C259.27 104.539 261.511 109.948 261.511 115.695C261.511 127.559 251.854 137.226 239.99 137.226C234.234 137.226 228.827 134.984 224.762 130.923C220.701 126.851 218.463 121.451 218.463 115.695C218.463 109.948 220.701 104.539 224.762 100.471C228.827 96.4057 234.234 94.1738 239.99 94.1738ZM216.874 115.695C216.874 121.865 219.276 127.674 223.637 132.042C228.005 136.41 233.811 138.811 239.99 138.811C246.163 138.811 251.956 136.41 256.327 132.042C260.689 127.674 263.094 121.865 263.094 115.695C263.094 109.519 260.689 103.716 256.327 99.3547C251.956 94.9837 246.163 92.5818 239.99 92.5818C227.232 92.5818 216.874 102.947 216.874 115.695Z" fill="#008CC7"/>
<mask id="mask0_730_18190" style="mask-type:luminance" maskUnits="userSpaceOnUse" x="108" y="87" width="264" height="67">
<path d="M164.519 125.242C164.519 130.636 169.7 137.18 182.55 137.18H210.628C207.095 140.479 197.88 145.153 195.286 146.077C203.679 149.808 223.775 153.644 230.727 153.437L232.916 145.527C222.526 143.054 214.177 135.295 210.881 125.242H164.519ZM269.121 125.242C265.828 135.295 257.479 143.054 247.092 145.527L249.281 153.437C256.227 153.644 276.323 149.808 284.716 146.077C282.132 145.149 272.907 140.479 269.377 137.18H297.452C310.305 137.18 315.489 130.636 315.489 125.242H269.121ZM147.616 122.45H210.109C209.623 120.277 209.364 118.014 209.364 115.699C209.364 114.537 209.429 113.405 209.555 112.286C208.093 110.948 205.741 109.396 201.62 109.396H134.778C132.8 109.396 129.894 109.087 128.138 108.772C130.422 114.784 134.361 122.45 147.616 122.45ZM345.23 109.396H278.385C274.267 109.396 271.909 110.948 270.456 112.286C270.583 113.405 270.651 114.537 270.651 115.699C270.651 118.018 270.382 120.277 269.893 122.45H332.386C345.648 122.45 349.586 114.787 351.867 108.775C350.105 109.09 347.202 109.396 345.23 109.396ZM108.141 87.6367C108.765 93.6925 113.43 106.602 131.458 106.602H201.091C204.297 106.602 207.815 107.241 209.991 109.461C210.68 106.141 211.908 103.003 213.571 100.172C209.28 94.6137 204.167 93.5379 196.269 93.5379H123.374C115.13 93.5379 109.541 90.898 108.141 87.6367ZM356.631 93.5379H283.733C275.829 93.5379 270.722 94.6137 266.422 100.172C268.119 103.05 269.329 106.189 270.005 109.461C272.19 107.238 275.714 106.602 278.914 106.602H348.547C366.572 106.602 371.24 93.6925 371.861 87.6367C370.464 90.898 364.872 93.5379 356.631 93.5379Z" fill="white"/>
</mask>
<g mask="url(#mask0_730_18190)">
<path d="M108.141 87.6367H371.864V153.647H108.141V87.6367Z" fill="url(#paint0_radial_730_18190)"/>
</g>
<mask id="mask1_730_18190" style="mask-type:luminance" maskUnits="userSpaceOnUse" x="198" y="53" width="84" height="122">
<path d="M239.984 146.354C238.766 146.354 237.576 146.28 236.386 146.147C234.995 157.588 236.256 166.889 239.984 174.982C243.706 166.889 244.971 157.588 243.573 146.147C242.386 146.28 241.199 146.354 239.984 146.354ZM246.819 128.774L248.312 131.028C248.72 131.59 248.995 131.785 249.484 131.055L250.832 128.777H246.819V128.774ZM246.794 101.936C246.794 104.316 246.009 105.559 244.102 105.151C241.61 104.61 241.972 101.259 237.62 102.458C235.582 103.015 231.258 105.358 225.762 108.721C223.935 109.834 222.782 111.197 222.652 112.4C222.392 114.78 226.463 123.701 226.794 124.524C227.366 125.927 228.763 125.967 230.213 125.238C231.669 124.514 235.922 122.137 239.026 122.137C243.066 122.137 243.79 123.899 245.453 126.486H252.087L256.538 117.788C257.156 116.125 257.156 114.06 256.121 112.604L249.07 101.203C248.485 100.27 247.975 99.8059 247.595 99.8059C247.116 99.809 246.822 100.526 246.794 101.936ZM198.018 73.8641C201.134 82.2105 206.846 89.6542 215.956 96.7239C216.686 95.7903 217.483 94.8908 218.336 94.0252C219.193 93.1628 220.092 92.3652 221.013 91.6295C213.87 82.5753 206.382 76.9306 198.018 73.8641ZM258.986 91.6295C259.914 92.3652 260.816 93.1628 261.673 94.0252C262.526 94.8908 263.314 95.7903 264.053 96.7239C273.153 89.6542 278.866 82.2105 281.991 73.8641C273.623 76.9306 266.133 82.5753 258.986 91.6295ZM223.935 69.3138C223.214 69.085 222.782 68.5595 222.924 68.1144C223.063 67.6754 223.74 67.5178 224.445 67.7496C225.146 67.9815 225.595 68.507 225.456 68.949C225.353 69.2489 225.004 69.4189 224.565 69.4189C224.367 69.4189 224.154 69.3818 223.935 69.3138ZM254.51 68.9459C254.368 68.5039 254.804 67.9815 255.518 67.7465C256.226 67.5054 256.897 67.6785 257.042 68.1113C257.181 68.5626 256.739 69.0789 256.031 69.3138C255.808 69.3818 255.592 69.4189 255.397 69.4189C254.958 69.4158 254.609 69.2489 254.51 68.9459ZM232.55 59.2425C236.38 63.4899 237.521 70.4359 237.412 83.5954C235.137 77.0697 226.85 77.9971 220.89 75.6694C217.777 74.4484 216.797 69.9166 220.942 68.7759C220.358 70.9274 228.303 72.7636 231.245 70.2257C232.442 69.1994 229.966 63.6259 221.561 63.3415C217.001 63.1838 211.409 65.3168 211.205 71.6786C210.992 77.9477 218.59 80.4825 220.271 81.1069C224.003 82.5196 231.181 83.1069 227.879 87.5151C231.598 85.9138 235.681 85.0297 239.984 85.0297C244.275 85.0297 248.368 85.9138 252.084 87.5151C248.773 83.1069 255.96 82.5196 259.697 81.1069C261.37 80.4825 268.965 77.9477 268.764 71.6786C268.551 65.3168 262.962 63.1838 258.399 63.3415C249.997 63.6259 247.515 69.1994 248.711 70.2257C251.666 72.7636 259.601 70.9274 259.017 68.7759C263.166 69.9166 262.183 74.4484 259.07 75.6694C253.116 77.9971 244.831 77.0728 242.547 83.5954C242.442 70.4359 243.583 63.4899 247.416 59.2425C242.649 57.3785 241.746 55.3012 239.984 53.332C238.219 55.3012 237.307 57.3785 232.55 59.2425Z" fill="white"/>
</mask>
<g mask="url(#mask1_730_18190)">
<path d="M198.018 53.332H281.988V174.982H198.018V53.332Z" fill="url(#paint1_radial_730_18190)"/>
</g>
<path d="M213.959 195.65V197.177C213.959 198.064 214.045 198.763 214.045 198.763H213.959C213.959 198.763 212.135 195.026 206.673 195.026C200.425 195.026 195.989 199.882 195.989 207.391C195.989 214.72 200.005 219.759 206.4 219.759C212.234 219.759 214.141 215.372 214.141 215.372H214.234C214.234 215.372 214.187 216.024 214.187 216.964V219.15H218.481V195.65H213.959ZM207.278 215.839C203.365 215.839 200.611 212.525 200.611 207.391C200.611 202.027 203.686 198.951 207.418 198.951C211.897 198.951 214.095 203.149 214.095 207.35C214.095 213.369 210.781 215.839 207.278 215.839ZM225.752 186.317H230.277V219.15H225.752V186.317ZM158.069 195.026C165.117 195.026 170.811 200.21 170.811 207.35C170.811 214.528 165.117 219.759 158.069 219.759C151.027 219.759 145.33 214.531 145.33 207.35C145.33 200.21 151.027 195.026 158.069 195.026ZM158.069 215.839C162.554 215.839 166.193 212.296 166.193 207.35C166.193 202.445 162.554 198.948 158.069 198.948C153.642 198.948 149.951 202.445 149.951 207.35C149.951 212.296 153.642 215.839 158.069 215.839ZM173.256 224.164C173.256 224.164 174.561 225.14 176.014 225.14C177.828 225.14 179.374 223.836 180.258 221.688L181.423 218.986L171.534 195.65H176.619L182.545 211.1C183.009 212.312 183.429 213.941 183.429 213.941H183.525C183.525 213.941 183.899 212.355 184.314 211.137L190.06 195.65H194.957L183.896 223.511C182.449 227.15 179.556 229.057 176.242 229.057C173.587 229.057 171.67 227.617 171.67 227.617L173.256 224.164ZM120.838 190.33H117.805V186.317H132.176C137.966 186.317 142.022 189.962 142.022 195.978C142.022 201.486 138.43 204.188 136.096 204.701V204.794C136.096 204.794 136.94 205.217 137.5 206.287L141.466 214.068C141.932 215.035 142.684 215.137 143.8 215.137H144.405V219.15H142.121C139.549 219.15 138.619 218.825 137.546 216.674L133.07 207.925C132.232 206.383 131.623 206.151 129.802 206.151H125.506V219.15H120.841V190.33H120.838ZM131.568 202.138C135.113 202.138 137.212 199.854 137.212 196.166C137.212 192.478 135.113 190.327 131.66 190.327H125.499V202.135H131.568V202.138ZM247.545 190.311H244.528V186.317H262.59C264.68 186.317 265.561 187.202 265.561 189.294V193.424H261.338V191.331C261.338 190.636 260.961 190.311 260.309 190.311H252.191V201.078H263.372V205.078H252.191V219.15H247.545V190.311ZM270.646 186.317H275.15V212.383C275.15 215.211 276.266 215.725 277.66 215.725C278.071 215.725 278.445 215.678 278.445 215.678V219.672C278.445 219.672 277.75 219.759 276.958 219.759C274.408 219.759 270.649 219.063 270.649 213.168V186.317H270.646ZM300.028 195.656H297.518L291.719 211.255C291.249 212.466 290.925 214.092 290.925 214.092H290.835C290.835 214.092 290.458 212.466 289.997 211.255L283.988 195.656H279.178L288.748 219.057L287.682 221.607C286.795 223.697 285.36 224.995 283.549 224.995C281.552 224.995 280.111 223.329 280.111 223.329L278.25 226.578C278.25 226.578 280.294 228.896 283.778 228.896C287.076 228.896 289.908 226.992 291.342 223.369L302.439 195.656H300.028ZM317.166 195.656H321.534V198.698C321.534 199.625 321.441 200.414 321.441 200.414H321.534C322.461 198.373 325.244 195.032 330.357 195.032C335.874 195.032 338.428 198.046 338.428 204.033V219.15H333.93V205.131C333.93 201.832 333.231 199.233 329.469 199.233C325.896 199.233 323.015 201.601 322.047 204.992C321.763 205.922 321.67 206.986 321.67 208.148V219.153H317.166V195.656ZM307.614 185.699C306.251 185.699 305.147 186.797 305.147 188.166C305.147 189.52 306.248 190.636 307.614 190.636C308.974 190.636 310.084 189.523 310.084 188.166C310.084 186.8 308.974 185.699 307.614 185.699ZM305.364 195.656H309.868V219.15H305.364V195.656ZM361.832 195.65V197.177C361.832 198.058 361.924 198.763 361.924 198.763H361.832C361.832 198.763 360.008 195.032 354.552 195.032C348.301 195.032 343.865 199.882 343.865 207.391C343.865 214.72 347.881 219.759 354.274 219.759C360.11 219.759 362.02 215.372 362.02 215.372H362.11C362.11 215.372 362.036 216.364 362.036 216.717V218.408C362.036 223.19 358.512 224.998 354.428 224.998C350.898 224.998 347.974 223.419 347.974 223.419L346.49 226.949C348.762 228.111 351.683 228.899 354.521 228.899C360.465 228.899 366.357 225.932 366.357 218.176V195.653H361.832V195.65ZM355.155 215.839C351.238 215.839 348.487 212.525 348.487 207.391C348.487 202.027 351.569 198.951 355.3 198.951C359.779 198.951 361.977 203.149 361.977 207.35C361.977 213.369 358.66 215.839 355.155 215.839ZM133.092 241.938C140.136 241.938 145.831 247.116 145.831 254.251C145.831 261.435 140.136 266.665 133.092 266.665C126.047 266.665 120.356 261.438 120.356 254.251C120.356 247.116 126.047 241.938 133.092 241.938ZM133.092 262.739C137.571 262.739 141.209 259.197 141.209 254.251C141.209 249.351 137.571 245.852 133.092 245.852C128.659 245.852 124.974 249.351 124.974 254.251C124.974 259.2 128.659 262.739 133.092 262.739ZM90.0026 237.212H86.9824V233.218H100.266C110.241 233.218 116.835 239.212 116.835 249.558C116.835 259.96 110.241 265.994 100.266 265.994H92.9702C90.8867 265.994 90.0057 265.12 90.0057 263.027V237.212H90.0026ZM95.6657 262.004H99.9378C107.227 262.004 112.006 257.642 112.006 249.558C112.006 241.533 107.181 237.212 99.9378 237.212H94.6456V260.984C94.6456 261.633 95.0135 262.004 95.6657 262.004ZM162.443 241.938C168.341 241.938 171.265 245.373 171.265 245.373L169.126 248.523C169.126 248.523 166.619 245.836 162.628 245.836C157.896 245.836 154.458 249.37 154.458 254.192C154.458 258.971 157.896 262.637 162.768 262.637C167.129 262.637 170.007 259.481 170.007 259.481L171.822 262.776C171.822 262.776 168.57 266.538 162.44 266.538C155.061 266.538 149.858 261.296 149.858 254.235C149.862 247.274 155.064 241.938 162.443 241.938ZM220.055 242.553H224.416V246.3C224.416 247.274 224.324 248.065 224.324 248.065H224.416C225.483 244.628 228.225 241.938 231.845 241.938C232.454 241.938 233.004 242.025 233.004 242.025V246.486C233.004 246.486 232.401 246.343 231.705 246.343C228.824 246.343 226.178 248.387 225.115 251.867C224.695 253.215 224.559 254.653 224.559 256.087V266.053H220.051V242.553H220.055ZM201.838 241.938C208.883 241.938 214.577 247.116 214.577 254.251C214.577 261.435 208.883 266.665 201.838 266.665C194.79 266.665 189.105 261.438 189.105 254.251C189.105 247.116 194.79 241.938 201.838 241.938ZM201.838 262.739C206.317 262.739 209.955 259.197 209.955 254.251C209.955 249.351 206.317 245.852 201.838 245.852C197.408 245.852 193.717 249.351 193.717 254.251C193.717 259.2 197.408 262.739 201.838 262.739ZM180.802 233.218H176.159V266.056H180.802V246.547H189.111V242.553H180.802V233.218ZM339.092 232.603C338.768 232.602 338.447 232.666 338.147 232.79C337.847 232.914 337.574 233.096 337.345 233.325C337.116 233.555 336.934 233.827 336.81 234.127C336.686 234.427 336.622 234.748 336.623 235.073C336.623 236.427 337.723 237.533 339.092 237.533C340.453 237.533 341.562 236.43 341.562 235.073C341.559 233.709 340.453 232.603 339.092 232.603ZM336.836 242.563H341.343V266.05H336.836V242.563ZM246.395 258.829C246.395 258.829 249.894 262.371 254.791 262.371C257.873 262.371 260.488 260.647 260.488 257.518C260.488 250.377 244.531 251.92 244.531 241.793C244.531 236.662 248.964 232.603 255.165 232.603C261.279 232.603 264.501 235.91 264.501 235.91L262.398 239.74C262.398 239.74 259.366 236.887 255.165 236.887C251.669 236.887 249.19 239.082 249.19 241.697C249.19 248.517 265.15 246.693 265.15 257.379C265.15 262.464 261.23 266.662 254.698 266.662C247.697 266.662 243.78 262.319 243.78 262.319L246.395 258.829ZM281.026 241.938C287.694 241.938 291.246 246.878 291.246 252.993C291.246 253.595 291.104 254.949 291.104 254.949H273.886C274.117 260.127 277.808 262.746 282.006 262.746C286.065 262.746 289.005 259.991 289.005 259.991L290.875 263.302C290.875 263.302 287.373 266.659 281.728 266.659C274.309 266.659 269.218 261.296 269.218 254.294C269.218 246.782 274.309 241.938 281.026 241.938ZM286.625 251.546C286.486 247.484 283.966 245.53 280.934 245.53C277.484 245.53 274.68 247.673 274.028 251.546H286.625ZM359.445 241.938C365.371 241.938 368.314 245.382 368.314 245.382L366.159 248.554C366.159 248.554 363.646 245.852 359.628 245.852C354.87 245.852 351.423 249.394 351.423 254.251C351.423 259.055 354.87 262.746 359.773 262.746C364.156 262.746 367.05 259.568 367.05 259.568L368.864 262.882C368.864 262.882 365.6 266.662 359.445 266.662C352.029 266.662 346.796 261.392 346.796 254.297C346.796 247.295 352.026 241.938 359.445 241.938ZM382.793 241.938C389.474 241.938 393.016 246.878 393.016 252.993C393.016 253.595 392.883 254.949 392.883 254.949H375.662C375.891 260.127 379.578 262.746 383.78 262.746C387.841 262.746 390.781 259.991 390.781 259.991L392.648 263.302C392.648 263.302 389.149 266.659 383.504 266.659C376.085 266.659 370.997 261.296 370.997 254.294C370.994 246.782 376.079 241.938 382.793 241.938ZM388.401 251.546C388.259 247.484 385.742 245.53 382.71 245.53C379.254 245.53 376.453 247.673 375.804 251.546H388.401ZM309.525 246.473C309.379 246.445 308.863 246.346 308.276 246.346C305.398 246.346 302.752 248.39 301.685 251.871C301.265 253.218 301.126 254.656 301.126 256.096V266.05H296.625V242.553H300.99V246.303C300.99 247.274 300.897 248.059 300.897 248.059H300.99C301.994 244.81 304.504 242.226 307.843 241.954L309.525 246.473ZM333.918 242.553L325.231 266.05H320.01L311.231 242.553H316.038L321.732 258.393C322.199 259.707 322.483 261.617 322.526 261.617H322.619C322.672 261.617 322.996 259.707 323.463 258.393L329.163 242.553H333.918Z" fill="#004380"/>
<defs>
<radialGradient id="paint0_radial_730_18190" cx="0" cy="0" r="1" gradientUnits="userSpaceOnUse" gradientTransform="translate(240.01 120.524) scale(96.0767 96.0767)">
<stop stop-color="#008CC7"/>
<stop offset="1" stop-color="#004381"/>
</radialGradient>
<radialGradient id="paint1_radial_730_18190" cx="0" cy="0" r="1" gradientUnits="userSpaceOnUse" gradientTransform="translate(239.988 114.073) scale(52.2287 52.2287)">
<stop stop-color="#E84E0F"/>
<stop offset="0.2016" stop-color="#D83F0E"/>
<stop offset="0.4231" stop-color="#CC350D"/>
<stop offset="0.6716" stop-color="#C52F0C"/>
<stop offset="1" stop-color="#C22E0C"/>
</radialGradient>
</defs>
</svg>
