<svg width="480" height="320" viewBox="0 0 480 320" fill="none" xmlns="http://www.w3.org/2000/svg">
<path d="M276.748 82.5156H358.16L203.354 237.482H121.943L276.748 82.5156Z" fill="#FFEA00"/>
<mask id="mask0_730_18712" style="mask-type:luminance" maskUnits="userSpaceOnUse" x="27" y="5" width="428" height="303">
<path d="M27.9707 5.99924H454.359V307.488H27.9707V5.99924Z" fill="white"/>
</mask>
<g mask="url(#mask0_730_18712)">
<path d="M64.8926 171.538L79.1314 197.668H83.2707L68.3679 170.371L64.8926 171.538ZM101.639 185.926C101.639 185.926 91.8442 186.855 91.8442 171.178C91.8442 155.5 101.639 156.483 101.639 156.483C101.639 156.483 111.201 155.612 111.201 171.204C111.201 186.795 101.639 185.927 101.639 185.927M101.639 154.102C99.4604 154.102 87.9504 154.334 87.9504 171.872C87.9504 179.654 91.554 188.249 101.32 188.249C101.32 188.249 115.328 189.004 115.328 171.872C115.328 154.74 103.819 154.102 101.639 154.102M124.256 154.811H127.817L136.126 171.866L144.644 154.811H147.541V155.544L137.696 175.144V187.665H134.171V174.9L124.256 155.614V154.811ZM162.884 173.761L167.788 158.612L172.799 173.761H162.884ZM170.203 154.811H166.092L155.299 187.11V187.665H158.382L162.052 176.328H173.648L177.398 187.665H180.996V186.802L170.203 154.811ZM197.598 185.073V154.812H193.949V187.665H211.372V185.073L197.598 185.073Z" fill="#231512"/>
<path d="M63.2537 169.44H59.0653V152.831H63.3175C64.9028 152.831 72.5823 152.514 72.3909 161.452C72.1999 170.39 63.2537 169.44 63.2537 169.44ZM63.8245 150.381H55.3848V187.68H59.0019V171.976H62.8764C67.3824 171.976 76.3884 170.738 76.3884 160.65C76.3884 149.984 64.8932 150.381 63.8245 150.381" fill="#231512"/>
<path d="M254.639 177.571C254.399 185.36 247.507 185.368 243.081 185.387C242.036 185.393 240.992 185.395 239.948 185.396V169.482H246.411C247.313 169.482 254.886 169.543 254.639 177.571ZM239.948 152.819C239.963 152.729 239.973 152.676 239.973 152.676H246.014C246.014 152.676 253.409 152.506 253.297 159.444C253.183 166.381 247.426 167.001 245.337 167.001H239.948V152.819ZM251.433 168.073C251.433 168.073 257.7 166.212 257.418 159.275C257.136 152.337 251.885 150.307 245.732 150.307H236.021V187.665H247.764C247.764 187.665 258.095 187.756 258.773 178.281C259.45 168.806 251.433 168.073 251.433 168.073M281.385 173.013L294.708 197.688H298.848L284.859 171.847L281.385 173.013Z" fill="#231512"/>
<path d="M280.636 171.568H277.07L277.065 157.113H280.685C282.035 157.113 288.412 156.836 288.412 164.616C288.412 172.12 280.635 171.568 280.635 171.568M280.257 154.677H273.348V187.685H277.01V173.933H280.363C284.259 173.933 292.05 172.829 292.05 163.834C292.05 154.024 281.182 154.677 280.257 154.677M306.97 155.077H310.747V174.321C310.747 178.328 311.436 181.214 312.815 182.978C314.192 184.743 316.297 185.624 319.357 185.624C320.956 185.624 322.314 185.393 323.43 184.929C324.547 184.466 325.449 183.763 326.139 182.821C326.827 181.879 327.324 180.706 327.628 179.3C327.931 177.894 328.082 176.235 328.082 174.321V155.077H330.894V175.217C330.894 179.435 329.936 182.657 328.02 184.885C326.104 187.113 323.217 188.227 319.357 188.227C315.47 188.227 311.725 187.09 309.823 184.817C307.921 182.546 306.97 179.345 306.97 175.217V155.077ZM350.692 159.247H350.601V187.709H347.517V155.078H351.41L368.512 181.941H368.603V155.078H371.647V187.709H368.411L350.692 159.247ZM388.457 187.709V155.077H405.736V157.706H392.089V169.49H404.425V172.118H392.089V185.081H406.19V187.709H388.457ZM420.939 155.077H424.615V187.709H420.939V155.077Z" fill="#231512"/>
<path d="M228.848 219.001V206.127H227.1V220.104H234.708V219L228.848 219.001ZM210.957 213.316H209.44L209.438 207.167H210.978C211.552 207.167 214.265 207.049 214.265 210.359C214.265 213.55 210.957 213.317 210.957 213.317M216.698 220.104L213.403 213.986C214.794 213.519 216.117 212.442 216.117 210.026C216.117 205.852 211.493 206.131 211.099 206.131H207.643V220.172H209.415V214.322H211.143C211.25 214.322 211.363 214.32 211.482 214.315L214.585 220.104H216.698ZM259.61 207.9H259.572V220.009H258.26V206.127H260.269L267.191 217.555H267.23V206.127H268.729V220.009H266.754L259.61 207.9ZM280.059 220.009V206.127H287.687V207.245H281.883V212.258H287.13V213.376H281.883V218.891H287.881V220.009H280.059ZM194.408 206.127H196.256V220.009H194.408V206.127ZM244.782 206.127H246.631V220.009H244.782V206.127ZM177.077 214.503L179.266 207.744L181.373 214.503H177.077ZM180.616 206.127H178.293L173.701 219.867V220.104H175.264L176.673 215.752H181.762L183.119 220.104H185.068V219.737L180.616 206.127ZM305.699 208.74L304.032 209.129C304.032 209.129 303.42 206.908 301.171 206.796C298.919 206.686 298.752 208.962 298.752 208.962C298.752 208.962 298.613 210.184 299.113 210.767C299.613 211.35 301.301 211.985 301.837 212.211C302.611 212.536 306.014 213.381 305.61 216.621C305.393 218.358 304.721 220.227 301.281 220.318C297.057 220.429 296.334 217.18 296.334 217.18L297.975 216.653C297.975 216.653 298.474 219.152 301.086 219.317C303.698 219.484 304.282 216.736 303.782 215.569C303.281 214.404 302.559 214.099 301.03 213.57C299.502 213.044 296.88 212.025 296.973 209.851C297.084 207.268 298.579 206.013 301.086 205.824C303.671 205.631 305.31 207.156 305.7 208.74M215.794 134.139C215.794 134.139 214.156 134.673 212.617 138.565C213.276 138.005 214.594 137.587 215.794 137.666C216.992 137.746 219.03 138.585 219.03 138.585C219.03 138.585 222.106 139.702 222.126 137.986C222.146 136.269 220.128 136.549 219.868 136.608C219.608 136.669 217.531 137.447 216.332 137.188C215.214 136.946 214.686 135.304 215.769 134.361C215.977 134.181 216.032 134.062 215.794 134.14" fill="#231512"/>
<path d="M215.713 135.67C215.713 136.488 216.652 136.827 217.79 136.688C218.929 136.547 219.808 135.95 220.966 136.109C222.126 136.268 222.584 137.466 222.564 137.745C222.904 137.087 223.484 135.969 223.484 135.969L218.509 134.512C218.509 134.512 215.713 133.874 215.713 135.67ZM253.729 134.034C253.729 134.034 255.506 134.672 257.045 138.564C256.386 138.005 255.068 137.586 253.869 137.666C252.67 137.746 250.633 138.584 250.633 138.584C250.633 138.584 247.556 139.702 247.536 137.985C247.516 136.268 249.534 136.548 249.793 136.608C250.053 136.668 252.131 137.446 253.329 137.186C254.528 136.927 255.108 134.972 253.729 134.034Z" fill="#231512"/>
<path d="M253.948 135.671C253.948 136.489 253.009 136.828 251.87 136.689C250.732 136.548 249.853 135.951 248.694 136.11C247.535 136.269 247.077 137.468 247.095 137.746C246.757 137.088 246.177 135.97 246.177 135.97L251.152 134.513C251.152 134.513 253.948 133.875 253.948 135.671M216.711 133.855L218.249 131.659C218.249 131.659 219.128 130.423 220.805 130.702C222.484 130.981 227.974 132.475 231.074 132.957C233.324 133.307 235.021 133.204 235.021 133.204C235.021 133.204 238.412 133.05 240.237 132.665C242.062 132.28 249.231 130.251 250.208 130.611C251.184 130.971 253.24 133.974 253.24 133.974C253.24 133.974 252.078 133.993 251.416 134.077C249.797 134.282 242.113 137.337 234.584 137.337C227.054 137.337 219.422 133.607 216.711 133.855ZM235.515 83.1253C235.515 82.9842 235.458 82.849 235.359 82.7492C235.259 82.6495 235.124 82.5935 234.983 82.5935C234.842 82.5935 234.706 82.6495 234.607 82.7492C234.507 82.849 234.451 82.9842 234.451 83.1253C234.451 83.2663 234.507 83.4016 234.607 83.5013C234.706 83.601 234.842 83.657 234.983 83.657C235.124 83.657 235.259 83.601 235.359 83.5013C235.458 83.4016 235.515 83.2663 235.515 83.1253Z" fill="#231512"/>
<path d="M235.262 89.3449H234.703V83.364H235.262V89.3449ZM235.262 96.2156L234.973 96.5078L234.703 96.2156V94.2571H235.262V96.2156Z" fill="#231512"/>
<path d="M234.757 84.0015C234.757 84.0015 235.476 83.7088 236.327 84.1616C237.178 84.6128 237.897 85.3036 239.094 85.2773C238.721 85.9154 237.525 86.154 237.525 86.154C237.525 86.154 237.977 86.3936 238.109 86.6068C238.242 86.8195 238.482 87.2449 239.041 87.2449C238.589 87.643 237.525 87.7494 237.205 87.4576C236.886 87.1644 236.167 86.5262 234.997 86.5799C234.864 85.57 234.757 84.002 234.757 84.002M238.388 89.5706C238.388 89.9003 236.863 90.1682 234.983 90.1682C233.102 90.1682 231.577 89.9003 231.577 89.5706C231.577 89.2399 233.102 88.972 234.983 88.972C236.863 88.972 238.388 89.2399 238.388 89.5706ZM238.428 90.1946C237.295 90.6058 235.121 90.6691 234.983 90.6727C234.844 90.6691 232.67 90.6058 231.537 90.1946C231.537 90.1946 231.138 92.5866 230.712 93.2779C231.776 92.6935 232.096 92.188 232.096 92.188L232.495 93.7302C232.495 93.7302 233.373 93.0647 233.666 92.4276C234.257 93.3716 234.845 93.8107 234.969 93.8979V93.9161C234.969 93.9161 234.978 93.9095 234.983 93.907L234.996 93.9161V93.8979C235.12 93.8107 235.709 93.3716 236.3 92.4276C236.592 93.0647 237.47 93.7302 237.47 93.7302L237.87 92.188C237.87 92.188 238.189 92.6935 239.253 93.2779C238.827 92.5866 238.428 90.1946 238.428 90.1946ZM251.376 97.9648C251.376 97.9648 250.178 98.527 247.437 98.2545C244.696 97.9825 241.664 94.9908 239.068 94.9361C236.632 94.8845 235.124 96.766 234.947 96.9979C234.77 96.766 233.261 94.8844 230.825 94.9366C228.23 94.9908 225.198 97.9825 222.457 98.2545C219.716 98.527 218.518 97.9648 218.518 97.9648C218.518 97.9648 220.605 101.665 224.018 99.8514C223.8 100.159 223.8 100.595 221.895 100.885C221.912 101.501 223.092 103.061 226.487 101.175C226.105 101.773 225.289 102.317 224.29 102.536C224.944 103.333 225.725 104.313 229.046 102.064C228.447 103.224 226.995 103.732 226.995 103.732C226.995 103.732 228.084 104.893 230.553 104.149C233.021 103.406 233.421 101.537 233.421 101.537L233.894 101.81C233.894 101.81 232.985 103.406 232.985 104.802C232.985 106.198 234.093 106.344 234.093 106.344L234.947 105.527V105.47L234.947 105.527L235.8 106.344C235.8 106.344 236.908 106.198 236.908 104.802C236.908 103.406 236 101.81 236 101.81L236.472 101.537C236.472 101.537 236.871 103.406 239.34 104.149C241.809 104.893 242.898 103.732 242.898 103.732C242.898 103.732 241.446 103.224 240.847 102.064C244.17 104.313 244.95 103.333 245.603 102.536C244.604 102.318 243.788 101.773 243.407 101.175C246.802 103.061 247.981 101.501 247.999 100.885C246.094 100.595 246.094 100.159 245.876 99.8519C249.288 101.665 251.376 97.9648 251.376 97.9648Z" fill="#231512"/>
<path d="M237.019 111.459C236.752 110.097 235.79 109.516 235.79 108.334C235.79 107.151 236.796 106.48 236.796 106.48C236.796 106.48 235.835 106.637 235.456 107.194C235.434 106.604 234.899 106.217 234.841 106.176V106.168L234.835 106.172L234.83 106.168V106.176C234.771 106.216 234.236 106.604 234.215 107.195C233.835 106.637 232.874 106.481 232.874 106.481C232.874 106.481 233.88 107.151 233.88 108.334C233.88 109.516 232.919 110.096 232.65 111.459C232.383 112.821 234.036 113.535 234.036 113.535L234.835 112.759L235.634 113.535C235.634 113.535 237.288 112.821 237.019 111.459" fill="#231512"/>
<path d="M237.477 119.883C237.153 118.237 235.99 117.534 235.99 116.103C235.99 114.673 237.207 113.863 237.207 113.863C237.207 113.863 236.045 114.053 235.585 114.727C235.56 114.012 234.914 113.544 234.842 113.495V113.485C234.842 113.485 234.837 113.49 234.836 113.49C234.833 113.488 234.831 113.487 234.829 113.485V113.495C234.758 113.544 234.112 114.012 234.086 114.727C233.627 114.053 232.465 113.863 232.465 113.863C232.465 113.863 233.681 114.674 233.681 116.103C233.681 117.534 232.519 118.236 232.195 119.883C231.871 121.53 233.87 122.393 233.87 122.393L234.836 121.455L235.802 122.393C235.802 122.393 237.801 121.53 237.477 119.883ZM208.778 103.592C208.485 103.573 207.583 106.136 208.274 109.079C208.963 112.022 210.635 113.374 210.635 113.374C210.635 113.374 212.838 114.567 213.528 115.521C213.343 117.669 212.864 125.305 212.864 125.305C212.864 125.305 215.041 126.233 217.775 125.385C217.456 121.54 216.819 115.787 216.819 115.787C216.819 115.787 217.005 113.427 216.527 112.499C216.049 111.571 214.962 110.935 214.962 110.935C214.962 110.935 212.653 107.886 211.511 107.674C211.22 107.833 211.405 108.762 212.334 110.113C213.262 111.466 213.077 112.129 213.077 112.129C213.077 112.129 211.671 110.67 210.397 110.537C209.892 109.185 209.256 108.177 209.256 108.177C209.256 108.177 209.256 105.712 209.149 105.447C209.229 104.783 209.203 103.617 208.778 103.592Z" fill="#231512"/>
<path d="M210.291 103.803C209.859 103.675 209.31 105.18 209.628 107.434C209.814 108.282 210.636 110.032 210.636 110.032C210.636 110.032 211.539 110.085 212.414 111.066C211.726 109.874 210.557 107.779 210.557 107.779L210.451 105.34C210.451 105.34 210.743 103.934 210.291 103.802" fill="#231512"/>
<path d="M211.353 104.654C211.063 104.615 210.717 105.396 210.929 107.437C211.141 107.304 211.592 107.279 211.592 107.279L211.618 105.396C211.618 105.396 211.751 104.707 211.353 104.654ZM212.388 105.714C212.098 105.746 212.07 106.271 212.07 106.616C212.07 106.961 212.043 107.491 212.043 107.491L212.626 107.941V106.377C212.626 106.377 212.626 105.687 212.388 105.714ZM215.471 126.974C213.701 126.974 212.516 126.496 212.466 126.476C212.429 126.46 212.394 126.438 212.366 126.409C212.337 126.381 212.314 126.347 212.299 126.309C212.283 126.272 212.275 126.232 212.275 126.192C212.275 126.151 212.283 126.111 212.298 126.074C212.314 126.036 212.336 126.002 212.365 125.973C212.393 125.945 212.427 125.922 212.465 125.906C212.502 125.891 212.542 125.883 212.582 125.883C212.623 125.883 212.663 125.891 212.7 125.906C212.712 125.91 213.83 126.358 215.471 126.358C217.08 126.358 217.897 125.911 217.904 125.907C217.975 125.866 218.059 125.856 218.138 125.877C218.217 125.899 218.284 125.951 218.324 126.022C218.365 126.093 218.376 126.177 218.354 126.255C218.333 126.334 218.281 126.401 218.21 126.442C218.172 126.464 217.262 126.974 215.471 126.974M215.495 128.1C213.456 128.1 212.094 127.627 212.037 127.607C211.965 127.576 211.908 127.518 211.877 127.447C211.845 127.375 211.842 127.294 211.868 127.221C211.894 127.147 211.947 127.086 212.016 127.049C212.086 127.013 212.166 127.004 212.242 127.025C212.255 127.03 213.568 127.484 215.495 127.484C217.393 127.484 218.355 127.028 218.365 127.023C218.439 126.987 218.523 126.981 218.601 127.008C218.678 127.034 218.742 127.09 218.778 127.163C218.814 127.237 218.819 127.321 218.793 127.399C218.767 127.476 218.711 127.54 218.637 127.576C218.594 127.598 217.553 128.1 215.495 128.1ZM215.513 129.383C213.271 129.383 211.775 128.913 211.712 128.893C211.634 128.868 211.57 128.813 211.532 128.741C211.495 128.668 211.487 128.584 211.512 128.506C211.537 128.428 211.592 128.363 211.665 128.325C211.737 128.288 211.822 128.281 211.9 128.306C211.914 128.311 213.374 128.767 215.513 128.767C217.626 128.767 218.698 128.307 218.709 128.302C218.746 128.286 218.786 128.277 218.826 128.275C218.867 128.274 218.907 128.281 218.945 128.296C218.983 128.31 219.017 128.332 219.047 128.36C219.076 128.388 219.1 128.421 219.116 128.458C219.133 128.495 219.142 128.535 219.143 128.576C219.144 128.616 219.137 128.656 219.122 128.694C219.108 128.732 219.086 128.766 219.058 128.796C219.03 128.825 218.997 128.849 218.96 128.865C218.912 128.886 217.773 129.383 215.513 129.383ZM260.888 103.594C261.181 103.575 262.082 106.138 261.392 109.081C260.702 112.024 259.031 113.376 259.031 113.376C259.031 113.376 256.828 114.569 256.138 115.523C256.323 117.671 256.801 125.307 256.801 125.307C256.801 125.307 254.625 126.235 251.891 125.387C252.21 121.542 252.847 115.789 252.847 115.789C252.847 115.789 252.661 113.429 253.139 112.501C253.617 111.573 254.705 110.937 254.705 110.937C254.705 110.937 257.014 107.888 258.155 107.676C258.446 107.835 258.261 108.764 257.332 110.115C256.402 111.468 256.589 112.131 256.589 112.131C256.589 112.131 257.996 110.672 259.269 110.539C259.576 109.719 259.958 108.929 260.411 108.179C260.411 108.179 260.411 105.714 260.517 105.449C260.437 104.785 260.463 103.619 260.888 103.594Z" fill="#231512"/>
<path d="M259.375 103.803C259.808 103.675 260.356 105.18 260.039 107.434C259.852 108.282 259.03 110.032 259.03 110.032C259.03 110.032 258.128 110.085 257.252 111.066C257.877 109.974 258.496 108.879 259.109 107.779L259.216 105.34C259.216 105.34 258.924 103.934 259.375 103.802" fill="#231512"/>
<path d="M258.313 104.652C258.603 104.613 258.949 105.394 258.737 107.435C258.525 107.303 258.073 107.277 258.073 107.277L258.048 105.394C258.048 105.394 257.914 104.705 258.313 104.652ZM257.278 105.712C257.568 105.744 257.596 106.27 257.596 106.614C257.596 106.959 257.623 107.489 257.623 107.489L257.039 107.939V106.375C257.039 106.375 257.039 105.686 257.278 105.712M254.194 126.972C255.965 126.972 257.149 126.495 257.199 126.474C257.237 126.459 257.271 126.436 257.299 126.408C257.328 126.379 257.351 126.345 257.367 126.308C257.382 126.271 257.39 126.231 257.39 126.19C257.39 126.15 257.383 126.11 257.367 126.072C257.352 126.035 257.329 126.001 257.301 125.972C257.272 125.943 257.238 125.921 257.201 125.905C257.164 125.889 257.124 125.881 257.083 125.881C257.043 125.881 257.003 125.889 256.965 125.904C256.954 125.909 255.836 126.356 254.195 126.356C252.585 126.356 251.77 125.91 251.761 125.905C251.69 125.865 251.606 125.854 251.527 125.876C251.448 125.897 251.381 125.949 251.341 126.02C251.3 126.091 251.29 126.175 251.311 126.254C251.333 126.333 251.385 126.4 251.455 126.44C251.493 126.462 252.404 126.972 254.194 126.972M254.171 128.098C256.21 128.098 257.573 127.625 257.629 127.605C257.703 127.576 257.763 127.519 257.796 127.446C257.829 127.374 257.832 127.291 257.806 127.216C257.779 127.141 257.725 127.079 257.654 127.043C257.583 127.007 257.5 127 257.424 127.024C257.411 127.028 256.097 127.482 254.171 127.482C252.273 127.482 251.31 127.026 251.301 127.021C251.227 126.986 251.143 126.981 251.066 127.007C250.989 127.034 250.925 127.09 250.889 127.163C250.871 127.199 250.86 127.238 250.858 127.279C250.855 127.319 250.86 127.36 250.873 127.398C250.886 127.436 250.907 127.471 250.933 127.502C250.96 127.532 250.992 127.557 251.029 127.575C251.072 127.596 252.113 128.098 254.171 128.098ZM254.153 129.381C256.395 129.381 257.891 128.912 257.953 128.891C258.029 128.865 258.092 128.81 258.128 128.738C258.164 128.666 258.17 128.583 258.146 128.506C258.121 128.43 258.068 128.366 257.997 128.328C257.926 128.29 257.843 128.282 257.766 128.304C257.751 128.309 256.292 128.766 254.152 128.766C252.039 128.766 250.967 128.305 250.957 128.3C250.882 128.267 250.797 128.265 250.721 128.294C250.644 128.324 250.583 128.382 250.55 128.457C250.516 128.531 250.514 128.616 250.544 128.692C250.573 128.769 250.631 128.83 250.706 128.864C250.753 128.885 251.892 129.381 254.152 129.381M246.316 104.308C247.659 106.523 248.367 109.066 248.361 111.656C248.361 118.643 243.344 124.429 236.798 125.446C237.135 123.664 238.728 122.667 238.728 122.667C238.728 122.667 236.82 122.957 236.066 123.993C236.024 122.895 234.963 122.177 234.846 122.101V122.086C234.846 122.086 234.837 122.093 234.835 122.094L234.824 122.087V122.101C234.709 122.177 233.646 122.895 233.604 123.993C232.85 122.957 230.943 122.666 230.943 122.666C230.943 122.666 232.551 123.674 232.877 125.472C226.234 124.543 221.114 118.714 221.114 111.656C221.109 109.066 221.816 106.523 223.159 104.308C220.136 107.263 218.262 111.368 218.262 115.907C218.262 124.914 225.638 132.215 234.738 132.215C243.838 132.215 251.214 124.914 251.214 115.907C251.214 111.368 249.34 107.263 246.316 104.308Z" fill="#231512"/>
<path d="M230.042 135.456C230.042 135.456 230.056 135.494 230.089 135.54C230.145 135.34 230.1 135.16 230.055 135.135C229.831 135.806 229.461 135.636 229.293 135.515C229.209 135.615 229.108 135.7 228.994 135.766C229.097 135.878 229.305 136.067 229.515 136.058C229.698 136.007 229.828 135.925 229.918 135.831C229.897 135.785 229.889 135.751 229.889 135.751L230.042 135.456Z" fill="#FFEA00"/>
<path d="M229.293 135.516C229.24 135.477 229.206 135.443 229.206 135.443L228.924 135.687C228.924 135.687 228.95 135.721 228.994 135.767C229.11 135.7 229.211 135.611 229.293 135.515M230.041 135.456L229.888 135.752C229.888 135.752 229.896 135.785 229.918 135.832C230.007 135.741 230.06 135.638 230.088 135.54C230.069 135.514 230.054 135.486 230.041 135.456Z" fill="#FFEA00"/>
<path d="M226.69 128.123L227.046 128.068L226.958 127.675L226.6 127.732L226.69 128.123ZM230.408 127.969L230.32 127.577L229.964 127.633L230.052 128.025L230.408 127.969ZM221.789 123.344C222.125 123.394 222.839 123.21 222.791 122.96C222.743 122.71 222.338 122.151 222.57 122.026C222.8 121.9 223.176 121.891 223.138 122.401C223.128 122.517 223.128 122.565 223.128 122.565C223.128 122.565 223.678 122.584 223.61 122.142C223.542 121.698 222.714 121.612 222.502 121.766C222.289 121.92 222.039 122.036 222.116 122.257C222.193 122.478 222.473 123.027 222.309 123.114C222.145 123.201 220.496 121.929 220.477 120.167L220.471 120.198C220.437 120.345 220.378 121.093 220.266 121.188C220.428 121.64 221.452 123.296 221.788 123.344M224.05 125.321C224.186 125.449 224.322 125.574 224.444 125.684C224.474 125.912 224.487 126.259 224.265 126.234C223.964 126.041 223.915 125.612 223.922 125.298C223.967 125.309 224.007 125.313 224.05 125.321ZM225.065 124.875C225.179 125.073 224.876 125.149 224.467 125.171C224.348 125.067 224.234 124.961 224.135 124.86C224.407 124.757 224.912 124.613 225.065 124.875M223.003 123.672C222.897 123.489 223.119 123.104 223.119 123.104C223.119 123.104 222.501 123.469 222.569 123.662C222.635 123.849 222.928 124.415 223.519 124.13C223.418 124.384 223.38 124.626 223.504 124.77C223.568 124.844 223.652 124.932 223.747 125.027C223.724 125.071 223.704 125.117 223.686 125.164C223.577 125.158 223.473 125.153 223.379 125.145C223.479 125.18 223.57 125.205 223.661 125.232C223.481 125.776 223.52 126.532 224.064 126.503C224.492 126.48 224.626 126.15 224.664 125.881L224.834 126.031C224.834 126.031 225.306 126.368 225.779 125.925C226.251 125.482 226.626 124.827 226.626 124.827L227.117 124.875C227.117 124.875 227.061 124.337 227.195 124.144C226.935 124.124 226.704 124.173 226.704 124.173L226.579 124.501C226.579 124.501 225.605 125.858 225.422 125.858C225.342 125.858 225.025 125.637 224.692 125.363C225.655 125.27 225.571 124.375 225.383 124.288C225.175 124.192 224.304 124.594 224.015 124.733C223.877 124.58 223.789 124.449 223.794 124.375C223.813 124.076 224.574 123.143 224.574 123.143L224.121 123.133C224.121 123.133 223.784 123.558 223.579 123.992C223.425 124.017 223.187 123.991 223.003 123.672ZM226.212 126.55C226.038 126.878 226.472 127.34 226.848 127.398C227.975 127.321 227.995 126.243 227.995 126.243C227.995 126.243 227.792 126.31 227.513 126.445C227.522 127.071 227.281 127.06 227.281 127.06C227.089 127.071 226.752 126.753 226.645 126.608C226.54 126.464 226.973 125.896 227.3 125.434C227.628 124.972 227.889 125.27 227.889 125.27L228.351 124.885C227.339 124.365 226.385 126.224 226.212 126.55ZM231.493 127.802L230.992 127.957C230.992 127.957 231.025 128.087 231.057 128.255L231.494 127.817C231.494 127.812 231.493 127.807 231.493 127.802M228.12 127.773L228.419 128.525C228.419 128.525 229.016 129.231 229.896 129.418L230.338 128.975C229.205 128.798 228.12 127.773 228.12 127.773" fill="white"/>
<path d="M225.839 134.341C226.019 134.406 226.123 134.919 226.019 135.022C225.916 135.124 225.505 134.56 225.505 134.56C225.505 134.56 225.659 134.277 225.839 134.341ZM224.554 135.24C224.799 135.163 225.236 134.829 225.236 134.829L225.852 135.445C225.852 135.445 226.225 135.201 226.353 134.906C226.483 134.611 226.341 133.995 226.032 133.905C225.723 133.816 225.377 134.573 224.953 134.791C224.804 134.868 224.599 134.906 224.396 134.925L224.057 135.265C224.222 135.294 224.393 135.286 224.554 135.24M229.206 135.445C229.206 135.445 229.239 135.479 229.292 135.518C229.387 135.405 229.451 135.284 229.451 135.176C229.142 135.394 228.949 135.599 228.474 135.406C228.294 135.278 228.704 133.199 228.704 133.199L228.306 133.533L227.728 134.894C227.728 134.894 227.626 133.289 226.881 133.276L226.842 133.931C226.842 133.931 227.433 133.956 227.561 135.009C227.112 135.176 226.418 135.344 226.302 135.266C226.61 135.497 227.24 135.727 227.368 135.689C227.497 135.651 228.243 134.29 228.243 134.29L228.113 135.433C228.113 135.433 228.101 135.818 228.513 135.882C228.668 135.906 228.839 135.857 228.993 135.769C228.95 135.723 228.923 135.689 228.923 135.689L229.206 135.445ZM232.033 133.763L231.686 134.033L231.827 134.123C231.827 134.123 231.776 135.06 231.686 135.702C231.352 135.984 230.941 135.727 230.941 135.727L230.877 135.009L230.672 135.176C230.672 135.176 230.633 135.317 230.633 135.676C230.31 135.773 230.155 135.639 230.088 135.543C230.056 135.652 229.998 135.753 229.918 135.834C229.963 135.931 230.061 136.083 230.259 136.126C230.555 136.19 230.749 135.804 230.749 135.804C230.749 135.804 230.672 136.267 231.313 136.202C231.956 136.138 232.02 135.356 232.02 135.356L232.085 134.354C232.085 134.354 232.302 134.316 232.367 134.188C232.033 134.097 232.033 133.763 232.033 133.763ZM232.61 134.097C232.61 134.097 232.688 136.1 232.534 136.305C232.791 136.126 232.97 135.856 232.958 135.522C232.945 135.189 232.932 133.751 232.932 133.751L232.61 134.097ZM234.308 135.279C234.308 135.279 234.873 135.869 234.86 135.946C234.847 136.023 234.539 136.576 233.819 136.473C234.011 136.69 234.347 136.973 234.487 136.948C234.629 136.922 234.937 136.37 235.001 136.127C235.065 135.882 234.937 135.381 234.654 134.931L234.308 135.279ZM235.142 134.021L235.284 136.344L235.617 135.857L235.49 133.7L235.142 134.021ZM236.389 134.354L236.337 134.944C236.337 134.944 236.813 135.176 236.876 135.471C236.941 135.766 236.145 135.766 235.952 135.368C235.875 135.663 235.772 135.972 236.234 136.151C236.697 136.331 237.018 135.972 237.083 135.599C237.147 135.227 237.044 134.816 236.389 134.354M240.949 134.894C240.949 134.894 241.233 134.277 240.771 133.905C240.64 134.006 240.527 134.127 240.436 134.264C240.436 134.264 240.821 134.406 240.706 134.816H240.423V135.279C240.423 135.279 240.975 135.061 241.053 135.228C241.13 135.394 239.729 136.062 237.892 135.727L238.637 136.28C238.637 136.28 239.382 136.382 240.347 136.049C241.31 135.716 241.541 135.035 240.949 134.894ZM241.901 134.188C242.042 134.188 242.235 134.431 242.235 134.431C241.284 134.944 241.759 134.188 241.9 134.188M241.9 133.763C241.554 133.802 241.257 134.457 241.463 134.803C241.67 135.15 242.107 135.356 242.35 134.727C242.53 134.637 242.672 135.446 241.593 135.549C241.67 135.716 241.849 135.92 242.222 135.844C242.595 135.766 242.851 135.137 242.53 134.444C242.209 133.751 241.901 133.763 241.901 133.763M244.304 133.006C244.034 133.161 244.06 133.315 244.06 133.315C244.06 133.315 244.445 133.649 244.419 133.879C244.394 134.111 243.674 134.316 243.263 133.597L243.225 133.982C243.225 133.982 243.363 134.26 243.626 134.415C243.62 134.692 243.532 135.321 242.813 135.098C242.865 135.214 243.185 135.497 243.404 135.51C243.611 135.522 243.849 135.15 243.797 134.488C243.902 134.518 244.019 134.526 244.149 134.495C244.754 134.355 244.701 133.404 244.304 133.006ZM241.002 136.164L240.815 136.015L240.59 136.326L240.88 136.559L241.077 136.288L240.973 136.204L241.002 136.164ZM241.002 136.164L241.107 136.248L241.078 136.288L241.265 136.437L241.49 136.126L241.2 135.893L241.002 136.164Z" fill="#FFEA00"/>
<path d="M241.004 136.161L240.975 136.201L241.079 136.285L241.109 136.245L241.004 136.161ZM244.429 134.967L244.793 135.086L244.916 134.754L244.553 134.634L244.429 134.967ZM240.17 133.643L240.499 133.84L240.715 133.53L240.385 133.334L240.17 133.643ZM234.006 127.607L233.768 127.284L233.464 127.478L233.703 127.801L234.006 127.607ZM243.22 126.273L242.82 126.227L242.755 126.581L243.155 126.626L243.22 126.273ZM230.473 129.457C231.595 129.366 231.508 127.965 231.496 127.816L231.058 128.254C231.104 128.49 231.146 128.801 231.09 128.947C230.844 129.008 230.588 129.017 230.339 128.974L229.896 129.417C230.086 129.459 230.28 129.472 230.473 129.457Z" fill="#FFEA00"/>
<path d="M232.487 128.937C231.572 128.658 231.927 128.389 232.198 128.302C232.384 128.241 232.571 128.543 232.569 128.957C232.541 128.95 232.516 128.946 232.487 128.937ZM236.284 129.14C236.284 129.14 236.361 129.554 236.824 129.496C237.286 129.438 237.923 128.995 238.49 128.369L238.625 128.359C238.625 128.359 238.712 129.072 239.108 129.082C239.503 129.091 239.657 128.802 240.177 128.86C240.418 128.561 240.428 128.282 240.428 128.282C240.428 128.282 239.715 128.272 239.648 127.705C239.601 127.326 239.55 126.947 239.493 126.569L239.696 126.617C239.696 126.617 239.657 126.425 239.734 126.366C239.493 126.3 239.367 126.011 239.31 125.875C239.154 126.029 239.009 126.193 238.876 126.366L239.176 126.501C239.176 126.501 239.319 127.994 239.503 128.11C239.686 128.225 239.975 128.447 239.975 128.447C239.975 128.447 239.83 128.591 239.657 128.562C239.483 128.534 238.876 128.85 238.712 128.389C238.934 128.379 239.098 128.176 239.098 128.176L239.069 127.907C239.069 127.907 238.51 128.119 238.076 127.888C237.643 127.656 237.469 127.579 237.258 127.849C237.045 128.119 236.997 128.187 237.131 128.379C237.228 128.139 237.469 128.033 237.71 128.139C237.951 128.244 238.288 128.312 238.288 128.312C238.288 128.312 237.566 128.822 237.238 128.966C236.91 129.111 236.226 129.159 236.438 128.312C236.284 128.417 236.159 128.465 236.159 128.465C236.159 128.465 236.294 129.11 235.879 129.149C235.465 129.188 235.458 128.979 235.458 128.979C235.473 128.841 235.481 128.68 235.484 128.494C235.484 129.091 235.291 129.149 235.002 129.149C234.828 129.149 234.728 129.08 234.676 129.024C234.768 128.795 234.79 128.581 234.79 128.581C234.79 128.581 234.521 129.11 234.097 129.082C233.998 129.077 233.902 129.053 233.813 129.01C233.725 128.967 233.645 128.907 233.58 128.833C233.683 128.555 233.672 128.282 233.672 128.282C233.672 128.282 233.461 129.009 232.782 128.987C232.787 128.924 232.795 128.862 232.795 128.793C232.795 127.849 232.458 127.936 232.458 127.936C232.121 127.888 231.639 128.34 231.63 128.668C231.621 128.961 231.777 129.353 232.493 129.412C232.477 129.46 232.459 129.507 232.439 129.554C231.986 129.833 231.35 129.428 231.35 129.428C231.35 129.428 231.505 130.064 231.9 130.14C232.193 130.199 232.548 129.944 232.708 129.419H232.766C233.067 129.41 233.268 129.294 233.402 129.138C233.439 129.326 233.57 129.557 233.99 129.563C234.193 129.566 234.343 129.485 234.457 129.37C234.504 129.473 234.612 129.582 234.857 129.611C235.127 129.643 235.285 129.549 235.376 129.326C235.444 129.429 235.579 129.573 235.792 129.554C236.12 129.524 236.284 129.14 236.284 129.14ZM240.678 128.61C240.678 128.61 240.947 128.114 240.865 127.667C240.781 127.219 240.313 125.815 240.381 125.635C240.381 125.635 240.209 126.118 240.065 126.131C240.237 126.269 240.347 126.703 240.416 127.055C240.485 127.405 240.678 128.61 240.678 128.61M242.546 128.232C243.07 128.004 244.882 127.329 244.483 126.227C244.29 125.718 243.662 125.277 243.662 125.277C243.662 125.305 243.601 125.856 243.601 125.856C243.601 125.856 244.324 126.111 244.338 126.207C244.352 126.303 244.11 127.095 242.65 127.736C242.132 127.86 241.664 127.929 241.664 127.929C241.664 127.929 242.477 128.073 242.545 128.232M245.464 125.378C245.257 125.573 245.081 125.739 245.069 125.739C245.041 125.739 244.704 125.828 244.648 125.608C244.598 125.405 244.994 125.084 245.464 125.378L245.595 125.254C245.568 125.23 245.542 125.206 245.509 125.181C245.041 124.836 244.793 124.699 244.621 124.816C244.351 125 244.455 125.677 244.779 126.022C245.103 126.366 245.4 125.966 245.462 125.932C245.481 125.922 245.588 125.804 245.736 125.65C245.707 125.589 245.66 125.529 245.592 125.47C245.549 125.434 245.506 125.404 245.464 125.378Z" fill="#FFEA00"/>
<path d="M245.595 125.256L245.463 125.38C245.505 125.406 245.549 125.436 245.592 125.472C245.659 125.531 245.706 125.591 245.735 125.652C245.771 125.614 245.809 125.575 245.85 125.534C245.777 125.431 245.691 125.337 245.595 125.256" fill="#FFEA00"/>
<path d="M246.57 124.273C246.57 124.273 246.591 124.561 246.301 124.499C246.012 124.438 245.724 124.231 245.736 124.032C245.557 123.963 245.329 124.589 246.129 124.776C246.03 124.849 245.809 125.054 245.594 125.254C245.701 125.346 245.786 125.439 245.85 125.532C246.19 125.192 246.66 124.769 246.887 124.851C246.901 124.589 246.838 124.292 246.838 124.292L246.57 124.273ZM245.033 126.689C245.426 126.717 245.874 126.758 245.874 126.758C245.874 126.758 246.279 126.151 245.85 125.532C245.81 125.573 245.771 125.612 245.735 125.65C245.93 126.056 245.339 126.497 245.033 126.688M245.217 121.996L245.235 122.516L247.182 124.384L247.124 123.998L245.217 121.996ZM248.705 121.629C248.415 121.448 247.471 120.629 247.471 120.629L247.404 120.321C247.404 120.321 246.97 120.427 246.864 120.109C246.777 120.474 246.864 120.764 246.864 120.764L247.192 120.754C247.192 120.754 248.425 121.706 248.473 121.793C248.521 121.881 248.628 122.4 247.934 122.381C247.24 122.361 246.845 122.034 246.787 121.919V122.371C246.787 122.371 247.196 122.609 247.664 122.726C247.661 122.681 247.654 122.637 247.645 122.593C247.702 122.623 247.766 122.684 247.825 122.76C247.992 122.791 248.162 122.801 248.319 122.776C248.974 122.67 248.993 121.813 248.705 121.629ZM247.394 119.396C247.394 119.435 247.404 119.887 247.404 119.887L249.399 121.37L249.37 121.062L247.394 119.396ZM246.931 123.257C247.173 123.546 247.529 123.874 247.828 123.594C248.097 123.342 247.989 122.98 247.825 122.761C247.771 122.751 247.717 122.74 247.664 122.727C247.684 122.964 247.634 123.424 246.931 123.257" fill="#FFEA00"/>
<path d="M247.645 122.594C247.645 122.594 247.658 122.648 247.664 122.727C247.717 122.741 247.771 122.752 247.825 122.761C247.777 122.694 247.716 122.637 247.645 122.594M245.009 123.734C244.935 123.871 244.993 123.963 245.044 124.09C245.092 123.871 245.398 123.44 245.398 123.44C245.398 123.44 245.435 123.411 245.244 123.396C245.178 123.683 245.038 123.704 244.906 123.55C244.774 123.396 245.031 123.382 245.031 123.382L245.135 123.183C244.957 123.125 244.745 123.11 244.686 123.418C244.627 123.727 245.009 123.734 245.009 123.734Z" fill="#FFEA00"/>
</g>
</svg>
