<svg width="480" height="320" viewBox="0 0 480 320" fill="none" xmlns="http://www.w3.org/2000/svg">
<path d="M267.688 134.825C268.535 130.862 268.413 126.459 268.913 122.522L268.459 122.632L268.177 124.356C267.274 131.535 260.223 133.702 255.007 137.395C257.232 136.848 259.455 136.19 261.457 135.441C264.083 134.461 266.101 132.13 267.441 130.093C267.647 131.395 266.849 133.122 267.688 134.825ZM266.292 150.951C266.983 152.4 267.722 153.731 269.383 154.254C270.77 154.703 273.218 153.633 274.667 148.227C275.351 149.363 275.699 150.285 276.719 151.227C281.241 155.641 284.702 148.739 288.759 147.993C289.255 147.042 289.518 145.707 289.582 144.634C288.161 144.691 286.852 145.803 285.179 145.313C284.702 145.16 284.14 144.921 284.105 144.199C284.782 137.463 283.571 130.494 278.885 125.845C276.767 131.63 279.736 137.61 280 143.442C281.293 139.353 280.304 135.117 279.556 131.169C282.695 135.465 283.501 140.724 282.976 146.363C282.499 149.429 279.742 149.26 278.499 148.386C273.647 144.59 274.304 136.946 272.022 132.437C270.894 134.655 271.781 137.1 272.268 139.234C272.913 141.938 274.964 147.211 272.065 149.823C270.206 151.478 268.178 150.143 267.488 148.506C265.704 144.198 265.293 139.633 264.379 134.977L263.936 134.598C263.66 135.601 263.356 136.807 263.475 137.963C263.786 140.109 264.729 145.649 265.767 149.262C264.418 152.517 262.436 152.988 261.424 152.79C259.198 151.802 259.854 149.182 259.819 147.309C254.75 150.131 249.547 153.155 245.313 154.422C235.345 157.419 222.961 159.731 212.998 155.008C209.402 153.252 206.4 149.779 206.475 145.593C206.4 145.158 205.928 144.919 205.477 144.977C201.415 146.462 200.567 150.926 199.246 154.366C197.804 158.09 194.338 155.567 194.058 154.118C193.599 148.638 198.912 145.226 201.997 141.683C204.246 139.123 205.353 136.09 205.661 132.561C203.931 133.632 201.483 134.067 199.596 134.696C198.454 135.284 198.564 137.35 198.214 138.536L203.617 136.86L203.783 136.804C201.859 141.95 195.057 143.666 193.471 149.384C192.711 152.258 192.648 156.809 194.874 158.958C195.789 159.728 197.518 160.463 198.845 159.67C201.512 157.057 200.978 153.323 203.159 150.548C203.843 149.692 204.809 148.544 205.662 148.867L206.162 151.477C207.455 156.613 213 159.489 217.733 160.531C229.876 162.514 242.081 159.702 252.332 154.685C254.507 153.663 256.31 152.258 258.43 151.283C258.597 154.103 259.608 156.135 261.321 156.469C262.599 156.714 264.569 155.476 266.292 150.951ZM88.9181 192.837C88.7199 193.103 88.4795 193.31 88.2272 193.449C85.527 195.252 79.5427 194.213 77.7236 191.818C76.787 190.466 76.5003 188.454 76.5069 186.596C76.5069 185.171 76.6853 183.408 77.4977 182.08C79.3234 179.218 86.6816 180.47 88.7199 183.092C90.5998 185.856 89.8679 191.586 88.9181 192.837ZM60.6769 186.938C60.3625 186.925 60.1987 186.685 60.1987 186.403V180.626C62.311 179.936 65.5317 179.881 66.4961 181.467C67.3098 182.765 67.2557 185.38 66.3111 186.284C65.0799 187.355 61.0877 187.006 60.6769 186.938ZM87.3923 178.793C83.1333 178.006 78.1886 178.602 75.3721 181.442C73.1554 183.643 72.1647 190.479 75.2625 194.185H75.2427L75.2902 194.213L75.5426 194.513C75.6588 194.663 75.7473 194.84 75.7209 195.005C75.1185 196.674 72.9176 196.661 72.1924 196.196C69.2729 193.884 68.438 189.903 65.9624 188.305C67.2411 187.523 68.6309 186.594 69.442 185.235C70.1408 183.695 70.1672 181.354 68.8554 180.096C67.796 178.907 65.6559 178.484 63.1935 178.484H56.4588C55.0704 178.484 56.9925 178.791 56.9925 180.043C57.225 185.808 57.0268 196.938 57.0268 196.938H61.5792C61.5871 196.494 60.4444 196.466 60.2462 195.757C60.2462 195.757 60.1643 189.596 60.1643 189.205C60.1168 188.787 60.4655 188.787 60.4655 188.787C61.7231 188.722 62.7285 188.563 63.426 189.465C64.1103 190.396 66.9347 196.659 70.7155 197.741C72.9797 198.3 75.3999 197.281 77.0551 195.991L77.281 195.794C80.4542 197.427 85.1373 197.254 88.1664 195.485C92.7967 192.812 93.2326 187.103 91.8455 182.581C91.1612 180.339 89.2721 179.231 87.3923 178.793ZM102.846 195.719L102.764 190.294C105.69 186.65 108.555 182.821 109.787 178.487H106.599C105.204 178.487 107.119 178.794 107.119 180.046C106.874 182.692 104.31 185.905 102.047 188.581L96.057 178.487H91.5641L91.4624 178.573C91.4413 178.926 92.3436 178.794 93.1441 179.935C95.4348 183.306 97.6356 186.856 99.5921 190.449C99.5921 192.333 99.6463 196.939 99.6463 196.939H104.152C104.152 196.312 102.944 196.419 102.846 195.719ZM220.389 188.428C221.894 184.874 222.407 181.932 222.407 181.932C223.44 183.881 225.113 188.428 225.113 188.428H220.389ZM232.144 194.835C228.917 189.672 226.639 183.994 224.411 178.486H219.953L219.858 178.572C219.858 178.729 221.511 179.175 221.103 181.354C220.453 184.597 219.002 188.189 214.967 196.237L214.68 196.885C214.639 196.925 214.639 196.938 214.981 196.938H218.654L218.743 196.851C218.743 196.522 217.203 196.522 217.457 195.333C217.825 194.018 219.001 191.668 219.795 189.822H225.812C226.968 191.996 227.974 194.314 229.313 196.341C229.47 196.523 229.634 196.782 229.749 196.886C229.873 196.962 230.324 196.939 230.571 196.939C231.173 196.962 234.14 196.939 234.14 196.939L234.264 196.852C234.276 196.552 233.259 196.495 232.144 194.835ZM210.632 193.598C208.376 195.542 203.254 194.651 200.156 194.341V180.811C201.415 180.38 202.174 180.351 204.402 180.442C206.775 180.545 209.976 181.253 211.221 183.368C212.635 185.718 213.093 191.465 210.632 193.598ZM183.232 186.938C182.904 186.925 182.775 186.685 182.775 186.403V180.626C184.867 179.936 188.075 179.881 189.046 181.467C189.865 182.765 189.805 185.38 188.875 186.284C187.634 187.355 183.642 187.006 183.232 186.938ZM214.701 183.696C212.951 177.644 205.073 178.487 198.658 178.487H196.394C195.15 178.487 196.656 178.731 196.928 179.737C197.113 187.033 196.942 192.995 196.942 192.995C196.928 193.622 196.928 194.26 196.928 194.904C196.859 196.264 195.634 196.772 194.747 196.197C191.806 193.885 191.005 189.905 188.525 188.306C189.79 187.524 191.192 186.596 192.004 185.236C192.695 183.696 192.715 181.355 191.416 180.097C190.35 178.908 188.217 178.486 185.754 178.486H179.02C177.638 178.486 179.552 178.792 179.552 180.045C179.804 185.81 179.58 196.939 179.58 196.939H184.126C184.147 196.495 182.976 196.468 182.798 195.758C182.798 195.758 182.729 189.597 182.697 189.206C182.697 188.788 183.03 188.788 183.03 188.788C184.304 188.724 185.281 188.564 185.979 189.466C186.675 190.398 189.5 196.661 193.274 197.743C193.747 197.871 194.238 197.934 194.744 197.898C196.098 197.945 197.397 197.44 198.533 196.744C203.078 196.962 208.112 197.687 211.825 194.836C215.759 192.173 215.659 187.683 214.701 183.696ZM172.894 192.837C172.668 193.103 172.477 193.31 172.203 193.449C169.488 195.252 163.512 194.213 161.672 191.818C160.763 190.466 160.462 188.454 160.491 186.596C160.476 185.171 160.66 183.408 161.482 182.08C163.266 179.218 170.658 180.47 172.667 183.092C174.561 185.856 173.844 191.586 172.894 192.837ZM171.486 178.793C167.219 178.006 162.268 178.602 159.471 181.442C156.858 184.012 155.97 192.839 161.159 195.662C164.313 197.428 169.181 197.307 172.264 195.485C176.872 192.812 177.302 187.103 175.936 182.581C175.232 180.339 173.372 179.231 171.486 178.793ZM249.04 178.573C249.012 178.908 250.23 179.005 250.376 179.821C251.175 183.981 250.842 193.145 250.842 193.145C245.773 188.932 241.642 183.776 237.5 178.665C237.247 178.43 236.583 178.486 236.194 178.486H233.458L233.334 178.572C233.314 178.924 234.038 178.882 234.84 179.82C235.263 180.359 235.544 181 235.571 181.561C235.695 183.503 235.62 184.883 235.551 187.1C235.51 189.308 235.215 196.112 235.215 196.338L235.32 196.884C235.443 196.993 235.9 196.937 236.141 196.937H238.383L238.478 196.849C238.478 196.521 237.344 196.493 237.201 195.332C237.124 194.731 237.05 192.568 236.982 190.602C236.921 188.057 237.016 186.108 237.145 183.86C241.364 188.763 250.973 197.868 251.615 198.391C252.044 198.684 252.052 198.444 252.052 198.444C252.507 192.223 252.287 184.883 252.689 178.486H249.159L249.04 178.573ZM170.561 143.003C172.388 145.707 173.549 149.909 171.095 153.452C169.084 150.88 169.557 146.25 170.561 143.003ZM162.875 153.667C161.063 150.633 161.482 146.029 162.875 142.906C164.504 145.931 165.693 150.733 162.875 153.667ZM183.11 150.377C184.046 144.077 181.408 137.891 177.996 133.866C177.367 137.269 177.832 146.365 178.582 152.015C180.511 147.885 178.528 143.67 178.864 139.355C179.979 141.024 180.608 142.67 181.304 144.538C182.448 147.577 181.695 151.636 179.287 154.249C177.798 155.823 175.691 156.726 173.742 156.065C173.009 155.825 172.354 155.041 172.354 155.041C172.354 155.041 172.865 153.731 173.481 151.552C174.596 146.798 173.776 142.668 170.63 137.522C168.059 142.861 167.553 149.991 169.632 155.389C167.478 157.608 164.688 156.518 164.128 155.63C166.918 150.481 166.351 143.136 163.006 137.724C160.571 142.555 159.649 149.53 161.427 155.57C158.685 158.093 155.315 159.464 152.127 160.999C156.222 160.761 159.723 160.452 162.623 158.217C163.669 159.424 164.907 160.382 166.513 160.382C168.414 160.382 170.089 159.131 171.08 158.217C173.227 160.467 176.326 160.146 177.741 159.317C181.045 157.42 182.59 153.814 183.11 150.377ZM268.446 188.428C269.957 184.874 270.47 181.932 270.47 181.932C271.528 183.881 273.158 188.428 273.158 188.428H268.446ZM280.229 194.835C276.972 189.672 274.711 183.994 272.499 178.486H268.027L267.917 178.572C267.917 178.729 269.56 179.175 269.129 181.354C268.533 184.597 267.03 188.189 263.055 196.237L262.737 196.885C262.714 196.925 262.709 196.938 263.064 196.938H266.717L266.832 196.851C266.832 196.522 265.266 196.522 265.532 195.333C265.89 194.018 267.031 191.668 267.866 189.822H273.89C275.045 191.996 276.053 194.314 277.404 196.341C277.53 196.523 277.691 196.782 277.806 196.886C277.943 196.962 278.398 196.939 278.65 196.939C279.231 196.962 282.213 196.939 282.213 196.939L282.312 196.852C282.311 196.552 281.336 196.495 280.229 194.835ZM297.031 178.573C297.031 178.908 298.238 179.005 298.389 179.821C299.17 183.981 298.824 193.145 298.824 193.145C293.786 188.932 289.657 183.776 285.513 178.665C285.275 178.43 284.599 178.486 284.214 178.486H281.453L281.365 178.572C281.337 178.924 282.06 178.882 282.84 179.82C283.249 180.359 283.53 181 283.587 181.561C283.714 183.503 283.605 184.883 283.587 187.1C283.523 189.308 283.223 196.112 283.223 196.338L283.317 196.884C283.478 196.993 283.885 196.937 284.161 196.937H286.397L286.489 196.849C286.5 196.521 285.333 196.493 285.179 195.332C285.138 194.731 285.074 192.568 284.979 190.602C284.954 188.057 285.007 186.108 285.144 183.86C289.375 188.763 298.986 197.868 299.628 198.391C300.039 198.684 300.079 198.444 300.079 198.444C300.514 192.223 300.283 184.883 300.674 178.486H297.152L297.031 178.573ZM153.344 178.486H149.802L149.678 178.572C149.678 178.907 150.808 178.924 150.95 180.096C151.066 180.957 151.101 184.952 151.156 187.016V194.313C151.156 194.313 151.115 195.631 150.67 196.937C150.096 198.682 147.354 200.584 145.311 200.584C142.287 200.584 138.485 199.235 140.101 193.976C139.601 193.808 139.41 194.538 138.609 194.838C136.531 195.563 133.263 195.538 131.054 194.838C131 192.474 130.971 190.395 130.971 187.985V179.103L130.882 178.529C130.718 178.453 130.28 178.482 130.047 178.482H126.485L126.348 178.568C126.348 178.903 127.498 178.92 127.64 180.092C127.704 180.54 127.751 181.754 127.799 183.116C127.882 187.672 127.984 192.564 127.663 196.934H138.583C138.583 196.934 138.337 199.946 139.424 201.271C140.921 203.07 143.46 203.036 145.852 202.342C149.409 201.271 153.895 198.267 154.216 194.564C154.257 192.542 154.27 190.461 154.27 188.397L154.312 179.101L154.216 178.528C154.035 178.458 153.598 178.486 153.344 178.486ZM284.214 160.019H284.419C288.151 160.125 291.513 160.354 294.868 158.962C297.747 157.354 298.765 154.748 299.566 152.142C301.78 144.601 299.566 136.795 293.806 131.665C292.243 136.455 294.199 141.38 294.616 146.029C294.893 147.633 294.635 149.443 295.014 150.992C296.714 146.127 295.423 141.407 294.554 136.947L294.531 136.622C297.357 140.249 299.46 143.654 299.196 148.05C298.444 155.823 289.892 157.78 284.214 160.019ZM260.146 195.333C260.026 194.484 259.918 190.478 259.883 188.403L259.918 179.107L259.819 178.533C259.63 178.457 259.215 178.486 258.974 178.486H255.4L255.268 178.572C255.268 178.907 256.426 178.924 256.541 180.096C256.669 180.957 256.789 184.952 256.829 187.016L256.808 194.861C256.789 195.469 256.789 196.194 256.789 196.338C256.789 196.481 256.789 196.809 256.937 196.884C257.058 196.993 257.496 196.937 257.735 196.937H261.317L261.421 196.849C261.424 196.523 260.281 196.495 260.146 195.333ZM257.059 158.708C255.548 159.438 253.618 159.704 251.961 160.193C250.389 160.719 250.353 162.772 249.853 164.026C251.359 163.376 253.123 163.065 254.75 162.632C256.294 161.973 256.433 160.019 257.059 158.708ZM62.3731 160.019C63.2952 159.838 63.9055 159.337 64.5198 158.093C66.2834 154.408 67.2557 149.824 70.3601 149.123C70.8449 149.514 70.7221 150.271 70.8727 150.929C71.8714 155.924 76.8002 158.231 80.828 159.099C94.7148 161.851 107.954 157.904 118.574 148.802L118.73 148.69C118.136 152.083 120.235 153.408 121.848 153.116C124.043 152.736 124.932 150.173 125.691 148.55C126.157 147.435 126.485 146.624 126.716 145.874C126.909 145.26 127.078 144.664 127.175 144.046L126.669 144.353C125.179 145.509 124.877 147.506 123.532 148.802C123.005 149.263 122.157 149.598 121.397 149.388C120.364 149.026 120.118 148.135 120.077 147.213C120.099 146.378 120.276 145.539 120.276 145.026V144.538C111.784 151.803 101.724 155.958 90.436 156.432C83.5639 156.337 76.4871 155.642 72.3972 149.851C71.6587 148.584 71.3786 147.086 71.0365 145.675C69.9836 145.279 68.7656 146.25 68.0417 146.945C65.1486 149.597 65.0469 153.618 62.3123 156.257C60.9305 156.978 58.5989 155.529 58.6253 153.254C58.694 150.046 60.8618 147.465 63.426 145.383C67.4129 142.136 70.7498 137.964 71.4883 133.264C69.6415 134.071 67.3719 134.42 65.3547 134.853C64.2054 135.374 64.0336 136.891 63.6717 138.58C65.3269 138.031 67.3164 137.779 69.1434 137.249L69.1632 137.354C67.4604 141.434 63.1538 142.95 60.1643 146.099C57.258 149.223 56.5262 154.194 58.2356 157.681C59.2554 159.689 60.554 160.241 62.3731 160.019ZM94.4982 144.893C94.7782 146.365 96.7743 145.439 97.4507 144.258C97.6013 144.465 97.7585 144.592 98.032 144.663C98.3199 144.691 98.7995 144.634 99.1126 143.836C99.3305 143.289 99.4191 142.541 99.0571 141.853L98.9276 142.626C98.8669 142.948 98.5709 143.324 98.094 143.324C97.6555 143.338 97.7519 142.829 97.6819 142.613C97.1561 142.781 97.3265 143.571 96.3833 144.077C96.0279 144.258 95.4335 144.452 95.1732 144.02C94.9605 143.552 95.3423 143.123 95.4044 142.709C94.7914 143.123 94.4163 144.077 94.4982 144.893ZM139.464 160.62C142.437 160.58 147.04 159.926 148.702 159.226C151.752 157.582 152.797 154.789 153.496 151.481C154.076 148.69 153.27 146.912 155.15 145.65C155.936 145.176 155.608 143.697 155.787 142.541C155.682 142.388 155.48 142.289 155.315 142.289C153.085 143.01 153.216 145.342 152.957 147.31C151.827 154.053 145.9 158.344 140.443 160.22L139.464 160.62ZM136.667 153.913L136.749 152.4C137.029 149.363 133.289 148.135 132.612 145.454C132.728 144.634 133.111 143.934 133.671 143.291C134.93 142.121 136.447 141.701 138.226 142.234C140.276 142.877 141.016 144.894 141.296 146.845C139.68 154.082 131.667 157.568 125.972 160.535L126.506 160.494C130.191 160.004 132.783 159.464 135.695 158.43C138.635 157.342 140.687 153.975 141.687 151.163C142.855 147.688 143.484 142.641 140.872 139.623C139.437 138.215 137.037 137.606 135.198 138.508C133.263 139.355 131.779 141.394 131.539 143.612C131.025 147.758 133.425 151.481 136.667 153.913ZM82.7634 141.14C90.9763 139.489 99.0584 137.485 106.97 135.206C107.851 134.898 109.986 134.586 109.849 133.264C101.377 135.533 92.658 137.572 83.7687 139.42L83.2561 140.17C83.091 140.378 82.4357 141.091 82.7634 141.14ZM126.198 137.248C125.372 136.512 124.174 135.881 123.231 135.441C122.691 136.289 121.965 137.317 121.795 138.432C122.753 139.242 123.757 139.676 124.755 140.294C125.617 139.135 125.944 137.976 126.198 137.248ZM110.553 162.451C112.175 161.657 113.965 161.418 115.655 160.955C117.001 160.125 117.187 158.541 117.673 157.188C116.126 157.982 114.253 158.191 112.578 158.736C110.929 159.226 111.031 161.237 110.553 162.451ZM113.287 188.428C114.752 184.874 115.285 181.932 115.285 181.932C116.339 183.881 117.986 188.428 117.986 188.428H113.287ZM125.008 194.835C121.795 189.672 119.524 183.994 117.289 178.486H112.83L112.727 178.572C112.727 178.729 114.382 179.175 113.966 181.354C113.338 184.597 111.861 188.189 107.867 196.237L107.566 196.885C107.517 196.925 107.512 196.938 107.867 196.938H111.504L111.635 196.851C111.635 196.522 110.089 196.522 110.336 195.333C110.698 194.018 111.861 191.668 112.686 189.822H118.697C119.838 191.996 120.844 194.314 122.219 196.341C122.348 196.523 122.498 196.782 122.607 196.886C122.751 196.962 123.195 196.939 123.447 196.939C124.016 196.962 127.039 196.939 127.039 196.939L127.141 196.852C127.141 196.552 126.15 196.495 125.008 194.835ZM247.801 131.906C238.967 134.599 229.505 137.522 220.265 139.588L219.322 141.881C228.614 139.292 238.126 136.749 247.052 133.34L247.801 131.906ZM232.643 143.178C232.37 143.489 232.144 143.872 232.008 144.201C231.761 144.733 231.802 145.708 232.308 146.044C232.843 146.35 233.943 146.128 234.464 145.049C234.778 145.176 235.038 145.295 235.569 145.077C236.461 144.699 236.432 143.277 236.432 142.375C236.021 142.697 236.303 143.419 235.789 143.766C235.291 144.047 234.839 143.518 234.839 143.125C234.558 143.553 234.353 144.335 233.77 144.637C233.457 144.803 232.946 144.962 232.624 144.693C232.144 144.227 232.793 143.67 232.643 143.178ZM156.694 137.045C158.069 136.749 159.777 136.22 160.538 135.484C161.283 134.784 161.953 133.783 161.783 132.69C161.318 131.45 160.305 133.414 159.361 132.927C158.896 132.593 160.085 131.45 160.838 131.68C161.063 131.45 161.195 131.089 161.228 130.791C161.063 130.595 160.66 130.556 160.447 130.681C159.456 131.241 158.616 132.085 158.705 133.447C158.896 134.979 160.338 133.122 161.118 133.573C160.209 135.286 157.939 135.881 156.694 137.045ZM407.837 166.804C407.837 166.804 409.724 168.791 410.408 171.538C410.408 171.538 406.318 171.215 404.683 172.482C404.683 172.482 404.808 173.63 406.708 175.664C406.708 175.664 407.056 176.261 406.222 176.796C405.441 177.295 401.475 177.554 401.331 173.383C401.331 173.383 398.784 176.487 395.295 176.022C395.295 176.022 392.541 175.686 392.362 173.095C392.362 173.095 395.009 173.618 397.113 172.63C397.113 172.63 397.038 170.92 394.624 169.232C394.624 169.232 396.508 166.787 400.795 165.631C400.795 165.631 399.958 161.92 401.176 158.167C402.435 154.399 403.05 153.505 403.371 152.683C403.721 151.901 404.108 149.935 403.474 147.84C403.474 147.84 413.43 147.637 413.469 158.294C413.47 158.295 413.567 164.226 407.837 166.804ZM396.629 185.103L390.789 182.432L396.533 180.552L402.038 183.067L396.629 185.103ZM386.817 175.442C383.468 175.247 382.255 171.912 382.255 171.912C380.576 174.114 377.122 173.768 377.122 173.768C374.341 173.137 374.144 170.722 374.144 170.722C377.208 170.108 377.995 168.991 377.995 168.991C377.292 167.039 373.983 165.957 373.983 165.957C375.972 162.805 380.253 161.208 380.253 161.208C378.585 159.471 378.103 157.747 377.674 154.908C377.238 151.988 377.995 147.49 377.995 147.49C378.863 143.464 380.381 141.511 381.688 139.808C383.105 138.131 384.506 138.331 384.506 138.331C386.365 138.539 388.049 139.535 388.049 139.535C390.278 140.837 391.858 142.749 392.59 143.752C393.252 144.76 395.406 149.597 392.727 155.669C390.027 161.657 387.263 162.805 387.263 162.805C391.421 166.802 391.401 168.606 391.401 168.606C387.967 168.606 387.051 170.512 387.051 170.512C387.893 172.187 390.355 172.813 390.355 172.813C389.645 175.571 386.817 175.442 386.817 175.442ZM384.599 184.298C383.432 184.298 382.481 183.381 382.481 182.206C382.481 181.001 383.432 180.087 384.599 180.087C385.73 180.087 386.666 181.001 386.666 182.206C386.666 183.38 385.73 184.298 384.599 184.298ZM372.822 184.298L367.24 182.056L372.822 179.794L378.517 182.056L372.822 184.298ZM363.389 171.912C363.389 171.912 362.145 175.245 358.831 175.442C358.831 175.442 355.993 175.573 355.302 172.816C355.302 172.816 357.708 172.188 358.582 170.515C358.582 170.515 357.665 168.608 354.212 168.608C354.212 168.608 354.18 166.806 358.389 162.808C358.389 162.808 355.565 161.66 352.891 155.671C350.221 149.598 352.353 144.762 353.058 143.754C353.76 142.752 355.334 140.84 357.578 139.537C357.578 139.537 359.245 138.541 361.153 138.334C361.153 138.334 362.515 138.133 363.894 139.811C365.222 141.514 366.82 143.466 367.63 147.493C367.63 147.493 368.4 151.99 367.956 154.91C367.543 157.749 367.067 159.473 365.386 161.21C365.386 161.21 369.619 162.808 371.641 165.96C371.641 165.96 368.298 167.042 367.63 168.994C367.63 168.994 368.424 170.11 371.465 170.725C371.465 170.725 371.341 173.139 368.465 173.771C368.466 173.768 365.057 174.114 363.389 171.912ZM361.058 184.298C359.93 184.298 358.919 183.381 358.919 182.206C358.919 181.084 359.931 180.155 361.058 180.155C362.214 180.155 363.09 181.084 363.09 182.206C363.09 183.38 362.214 184.298 361.058 184.298ZM348.991 185.103L343.52 183.08L349.077 180.552L354.803 182.478L348.991 185.103ZM339.34 176.94C338.588 176.406 338.858 175.803 338.858 175.803C340.755 173.796 340.921 172.645 340.921 172.645C339.267 171.388 335.22 171.715 335.22 171.715C335.888 168.907 337.761 166.989 337.761 166.989C332.008 164.296 332.164 158.409 332.164 158.409C332.164 147.799 342.142 147.967 342.142 147.967C341.51 150.046 341.913 152.015 342.222 152.858C342.545 153.64 343.207 154.501 344.447 158.295C345.648 162.051 344.816 165.72 344.816 165.72C349.081 166.9 350.949 169.348 350.949 169.348C348.521 171.032 348.521 172.763 348.521 172.763C350.573 173.768 353.261 173.223 353.261 173.223C353.063 175.833 350.286 176.132 350.286 176.132C346.846 176.586 344.248 173.533 344.248 173.533C344.127 177.683 340.175 177.453 339.34 176.94ZM422.579 157.988C424.713 157.275 424.459 154.909 424.459 154.909C424.001 152.142 421.103 152.535 421.103 152.535C422.937 150.386 421.484 148.709 421.484 148.709C420.065 146.938 417.826 148.081 417.826 148.081C418.844 145.81 417.498 144.664 417.498 144.664C415.708 143.09 413.839 144.719 413.839 144.719C413.785 142.501 412.182 141.993 412.182 141.993C410.296 141.177 408.91 142.876 408.91 142.876C407.525 139.067 404.807 141.022 404.157 141.285C403.513 141.664 403.45 141.285 403.45 141.285C403.328 136.681 399.409 138.412 399.409 138.412C400.476 136.112 398.616 134.816 398.616 134.816C396.604 133.572 394.931 135.315 394.931 135.315C394.723 132.276 392.477 133.178 391.764 133.446C391.08 133.599 389.603 133.655 389.603 133.655C384.958 133.08 383.239 133.347 383.239 133.347C377.584 133.232 372.819 142.612 372.819 142.612V142.693L372.734 142.612C372.734 142.612 367.902 133.232 362.265 133.347C362.265 133.347 360.537 133.08 355.907 133.655C355.907 133.655 354.465 133.599 353.747 133.446C353.034 133.178 350.777 132.276 350.622 135.315C350.622 135.315 348.927 133.572 346.908 134.816C346.908 134.816 345.056 136.112 346.121 138.412C346.121 138.412 342.183 136.681 342.06 141.285C342.06 141.285 342.037 141.664 341.343 141.285C340.716 141.021 338.004 139.067 336.625 142.876C336.625 142.876 335.216 141.177 333.349 141.993C333.349 141.993 331.723 142.501 331.666 144.719C331.666 144.719 329.786 143.09 327.982 144.664C327.982 144.664 326.631 145.81 327.624 148.081C327.624 148.081 325.439 146.938 324.071 148.709C324.071 148.709 322.594 150.386 324.452 152.535C324.452 152.535 321.473 152.142 321.062 154.909C321.062 154.909 320.836 157.275 322.915 157.988C322.915 157.988 320.473 159.131 320.911 161.097C320.911 161.097 321.061 163.055 323.597 163.428C323.597 163.428 321.473 164.837 322.354 166.805C322.354 166.805 323.195 169.102 325.91 168.434C325.91 168.434 324.889 170.814 326.469 171.874C326.469 171.874 327.951 173.138 329.786 171.896C329.786 171.896 330.75 171.54 331.152 172.231C331.152 172.231 331.843 173.338 330.395 174.972C330.395 174.972 338.287 174.303 340.414 187.034H404.997C407.134 174.303 415.137 174.972 415.137 174.972C413.654 173.338 414.372 172.231 414.372 172.231C414.734 171.541 415.707 171.896 415.707 171.896C417.547 173.138 419.07 171.874 419.07 171.874C420.593 170.814 419.597 168.434 419.597 168.434C422.338 169.102 423.213 166.805 423.213 166.805C424 164.838 421.913 163.428 421.913 163.428C424.457 163.055 424.56 161.097 424.56 161.097C425.012 159.131 422.579 157.988 422.579 157.988ZM341.168 194.029C341.295 195.531 341.347 196.917 341.347 196.917H404.108C404.108 196.917 404.159 195.606 404.288 194.214C404.43 192.696 404.603 191.505 404.603 191.505H340.841C340.841 191.505 341.043 192.765 341.168 194.029ZM369.218 131.409C369.218 131.409 367.199 131.365 365.872 132.025C365.872 132.025 370.557 133.28 372.822 138.707C375.103 133.281 379.76 132.025 379.76 132.025C378.517 131.365 376.41 131.409 376.41 131.409C376.206 130.701 375.42 130.142 375.42 130.142C376.034 129.4 377.259 128.585 377.259 128.585L372.823 118.055L368.403 128.585C368.403 128.585 369.614 129.401 370.222 130.142C370.221 130.141 369.42 130.701 369.218 131.409Z" fill="#5F6367"/>
<path d="M267.117 133.983C267.973 130.02 267.849 125.617 268.343 121.673L267.9 121.786L267.619 123.516C266.716 130.692 259.659 132.865 254.448 136.555C256.663 136.007 258.887 135.35 260.888 134.601C263.514 133.621 265.538 131.288 266.878 129.25C267.084 130.555 266.286 132.284 267.117 133.983ZM265.716 150.109C266.423 151.559 267.159 152.891 268.822 153.417C270.212 153.864 272.661 152.79 274.11 147.393C274.793 148.521 275.142 149.443 276.161 150.391C280.68 154.794 284.141 147.892 288.202 147.158C288.691 146.204 288.955 144.867 289.025 143.797C287.599 143.846 286.288 144.966 284.617 144.475C284.141 144.32 283.582 144.085 283.546 143.362C284.22 136.624 283.011 129.659 278.322 125.01C276.207 130.793 279.174 136.775 279.435 142.604C280.734 138.514 279.742 134.277 278.984 130.329C282.138 134.63 282.943 139.888 282.416 145.526C281.937 148.59 279.184 148.423 277.937 147.547C273.089 143.753 273.746 136.107 271.464 131.598C270.327 133.818 271.222 136.255 271.707 138.399C272.351 141.099 274.402 146.372 271.495 148.985C269.644 150.642 267.62 149.306 266.915 147.667C265.136 143.362 264.735 138.797 263.809 134.132L263.373 133.764C263.101 134.773 262.792 135.97 262.912 137.124C263.222 139.274 264.164 144.809 265.204 148.424C263.858 151.681 261.875 152.15 260.864 151.956C258.64 150.966 259.291 148.341 259.255 146.471C254.185 149.292 248.985 152.319 244.751 153.587C234.783 156.581 222.405 158.892 212.435 154.175C208.839 152.417 205.836 148.945 205.912 144.755C205.836 144.321 205.365 144.086 204.919 144.14C200.853 145.624 199.991 150.093 198.684 153.529C197.242 157.257 193.769 154.726 193.494 153.286C193.029 147.796 198.35 144.394 201.433 140.85C203.683 138.287 204.79 135.255 205.098 131.726C203.367 132.798 200.918 133.231 199.025 133.864C197.877 134.453 198 136.517 197.65 137.7L203.053 136.024L203.217 135.97C201.293 141.114 194.483 142.832 192.905 148.551C192.138 151.422 192.083 155.972 194.293 158.125C195.222 158.892 196.951 159.636 198.28 158.838C200.946 156.226 200.413 152.487 202.588 149.714C203.277 148.859 204.229 147.71 205.096 148.041L205.581 150.644C206.888 155.78 212.434 158.657 217.172 159.7C229.31 161.68 241.515 158.858 251.765 153.851C253.925 152.831 255.745 151.423 257.865 150.448C258.028 153.269 259.033 155.3 260.757 155.639C262.032 155.871 264.01 154.633 265.716 150.109ZM88.3561 191.996C88.1579 192.264 87.9254 192.46 87.652 192.604C84.9623 194.414 78.9806 193.379 77.1484 190.973C76.2263 189.626 75.9383 187.614 75.9515 185.76C75.9515 184.34 76.1219 182.563 76.9225 181.24C78.7481 178.376 86.1196 179.631 88.1566 182.259C90.0378 185.016 89.3006 190.736 88.3561 191.996ZM60.1162 186.095C59.7938 186.081 59.638 185.843 59.638 185.564V179.793C61.7516 179.096 64.971 179.034 65.9354 180.625C66.7504 181.918 66.695 184.528 65.7583 185.433C64.5192 186.51 60.5257 186.165 60.1162 186.095ZM86.8316 177.951C82.566 177.164 77.6279 177.761 74.8101 180.589C72.5815 182.803 71.6026 189.638 74.7018 193.352H74.6807L74.7295 193.379L74.9832 193.673C75.0994 193.822 75.1866 194.008 75.1602 194.156C74.5578 195.834 72.3503 195.818 71.6317 195.362C68.7122 193.035 67.8786 189.062 65.4017 187.455C66.6738 186.684 68.0755 185.76 68.8826 184.391C69.5801 182.861 69.6079 180.511 68.2881 179.264C67.2353 178.069 65.0952 177.643 62.6328 177.643H55.8822C54.5084 177.643 56.4159 177.951 56.4159 179.205C56.663 184.966 56.4635 196.099 56.4635 196.099H61.0039C61.0251 195.65 59.8824 195.623 59.6842 194.911C59.6842 194.911 59.6089 188.754 59.6089 188.374C59.5547 187.949 59.9101 187.949 59.9101 187.949C61.1611 187.88 62.1598 187.731 62.8639 188.634C63.5482 189.548 66.3726 195.819 70.1535 196.911C72.4164 197.469 74.8379 196.444 76.4918 195.152L76.7164 194.951C79.8895 196.595 84.566 196.417 87.5952 194.648C92.232 191.975 92.6693 186.268 91.2809 181.742C90.5992 179.497 88.7114 178.388 86.8316 177.951ZM102.285 194.874L102.21 189.452C105.137 185.814 107.995 181.968 109.227 177.642H106.04C104.645 177.642 106.559 177.95 106.559 179.203C106.313 181.849 103.742 185.056 101.478 187.741L95.5029 177.642H91.0021L90.9004 177.732C90.8793 178.088 91.7683 177.95 92.5887 179.094C94.8662 182.462 97.0749 186.003 99.0301 189.608C99.0301 191.488 99.0842 196.097 99.0842 196.097H103.584C103.585 195.471 102.367 195.582 102.285 194.874ZM219.822 187.585C221.331 184.023 221.845 181.083 221.845 181.083C222.878 183.038 224.553 187.585 224.553 187.585H219.822ZM231.582 193.994C228.355 188.832 226.071 183.148 223.855 177.642H219.391L219.295 177.732C219.295 177.881 220.958 178.331 220.542 180.51C219.889 183.762 218.442 187.344 214.406 195.401L214.119 196.044C214.073 196.085 214.073 196.097 214.42 196.097H218.093L218.167 196.01C218.167 195.671 216.642 195.671 216.895 194.498C217.257 193.177 218.44 190.819 219.234 188.987H225.252C226.407 191.153 227.413 193.472 228.752 195.493C228.911 195.671 229.068 195.934 229.19 196.044C229.314 196.121 229.758 196.097 230.011 196.097C230.606 196.121 233.573 196.097 233.573 196.097L233.705 196.01C233.715 195.707 232.697 195.649 231.582 193.994ZM210.07 192.764C207.82 194.697 202.686 193.81 199.588 193.501V179.968C200.853 179.538 201.612 179.509 203.828 179.608C206.214 179.7 209.414 180.413 210.657 182.522C212.074 184.884 212.525 190.626 210.07 192.764ZM182.67 186.095C182.343 186.081 182.213 185.843 182.213 185.564V179.793C184.306 179.096 187.505 179.034 188.471 180.625C189.298 181.918 189.244 184.528 188.306 185.433C187.075 186.51 183.067 186.165 182.67 186.095ZM214.14 182.86C212.389 176.803 204.51 177.643 198.098 177.643H195.833C194.576 177.643 196.086 177.884 196.367 178.896C196.552 186.19 196.38 192.147 196.38 192.147C196.367 192.788 196.367 193.419 196.367 194.062C196.298 195.431 195.074 195.936 194.171 195.361C191.245 193.033 190.445 189.061 187.969 187.453C189.228 186.683 190.631 185.758 191.443 184.39C192.128 182.86 192.154 180.51 190.854 179.263C189.788 178.067 187.656 177.642 185.192 177.642H178.458C177.069 177.642 178.99 177.95 178.99 179.203C179.244 184.964 179.011 196.098 179.011 196.098H183.566C183.593 195.649 182.417 195.621 182.232 194.909C182.232 194.909 182.168 188.753 182.143 188.373C182.143 187.947 182.471 187.947 182.471 187.947C183.743 187.879 184.713 187.729 185.42 188.633C186.109 189.547 188.935 195.818 192.713 196.909C193.179 197.032 193.679 197.084 194.17 197.059C195.537 197.098 196.837 196.599 197.973 195.909C202.519 196.123 207.539 196.852 211.266 193.996C215.193 191.338 215.082 186.855 214.14 182.86ZM172.332 191.996C172.106 192.264 171.915 192.46 171.648 192.604C168.926 194.414 162.937 193.379 161.11 190.973C160.201 189.626 159.9 187.614 159.927 185.76C159.914 184.34 160.093 182.563 160.918 181.24C162.703 178.376 170.095 179.631 172.105 182.259C173.994 185.016 173.277 190.736 172.332 191.996ZM170.917 177.951C166.657 177.164 161.713 177.761 158.91 180.589C156.297 183.16 155.409 191.996 160.599 194.827C163.744 196.591 168.62 196.452 171.705 194.642C176.306 191.97 176.736 186.263 175.376 181.737C174.67 179.497 172.819 178.388 170.917 177.951ZM248.477 177.733C248.449 178.067 249.663 178.172 249.812 178.975C250.61 183.135 250.279 192.303 250.279 192.303C245.209 188.085 241.087 182.941 236.938 177.812C236.684 177.582 236.021 177.642 235.623 177.642H232.896L232.772 177.732C232.752 178.088 233.483 178.038 234.269 178.973C234.694 179.52 234.982 180.162 235.007 180.725C235.132 182.654 235.058 184.044 234.988 186.262C234.953 188.466 234.66 195.267 234.66 195.492L234.755 196.043C234.878 196.152 235.335 196.096 235.577 196.096H237.819L237.914 196.008C237.914 195.67 236.772 195.648 236.635 194.497C236.56 193.893 236.486 191.727 236.425 189.765C236.356 187.219 236.437 185.267 236.568 183.015C240.807 187.917 250.399 197.027 251.049 197.545C251.478 197.837 251.489 197.601 251.489 197.601C251.938 191.375 251.713 184.042 252.116 177.641H248.588L248.477 177.733ZM169.999 142.161C171.827 144.866 172.989 149.069 170.534 152.609C168.523 150.037 168.995 145.412 169.999 142.161ZM162.315 152.827C160.497 149.794 160.92 145.185 162.315 142.065C163.942 145.087 165.132 149.891 162.315 152.827ZM182.548 149.537C183.479 143.234 180.846 137.05 177.435 133.026C176.805 136.429 177.27 145.525 178.022 151.172C179.95 147.043 177.966 142.83 178.303 138.513C179.418 140.175 180.039 141.826 180.743 143.696C181.873 146.735 181.134 150.798 178.719 153.409C177.236 154.983 175.13 155.886 173.181 155.223C172.435 154.983 171.793 154.2 171.793 154.2C171.793 154.2 172.306 152.892 172.915 150.714C174.036 145.951 173.208 141.827 170.069 136.683C167.498 142.025 166.986 149.151 169.073 154.55C166.917 156.769 164.127 155.678 163.567 154.789C166.357 149.637 165.782 142.303 162.445 136.885C160.012 141.716 159.096 148.691 160.867 154.724C158.124 157.256 154.754 158.627 151.56 160.162C155.663 159.923 159.164 159.612 162.064 157.388C163.11 158.585 164.354 159.545 165.954 159.545C167.86 159.545 169.53 158.29 170.522 157.388C172.662 159.635 175.767 159.306 177.189 158.478C180.484 156.578 182.028 152.971 182.548 149.537ZM267.878 187.585C269.394 184.023 269.901 181.083 269.901 181.083C270.97 183.038 272.603 187.585 272.603 187.585H267.878ZM279.665 193.994C276.412 188.832 274.147 183.148 271.94 177.642H267.468L267.352 177.732C267.352 177.881 268.997 178.331 268.565 180.51C267.973 183.762 266.473 187.344 262.482 195.401L262.161 196.044C262.151 196.085 262.134 196.097 262.501 196.097H266.147L266.273 196.01C266.273 195.671 264.704 195.671 264.974 194.498C265.327 193.177 266.475 190.819 267.29 188.987H273.326C274.481 191.153 275.495 193.472 276.844 195.493C276.972 195.671 277.137 195.934 277.245 196.044C277.382 196.121 277.832 196.097 278.085 196.097C278.665 196.121 281.648 196.097 281.648 196.097L281.753 196.01C281.753 195.707 280.768 195.649 279.665 193.994ZM296.468 177.733C296.468 178.067 297.663 178.172 297.823 178.975C298.606 183.135 298.271 192.303 298.271 192.303C293.219 188.085 289.097 182.941 284.953 177.812C284.712 177.582 284.022 177.642 283.653 177.642H280.89L280.787 177.732C280.768 178.088 281.5 178.038 282.264 178.973C282.688 179.52 282.969 180.162 283.017 180.725C283.154 182.654 283.044 184.044 283.017 186.262C282.948 188.466 282.66 195.267 282.66 195.492L282.751 196.043C282.906 196.152 283.326 196.096 283.598 196.096H285.827L285.923 196.008C285.936 195.67 284.775 195.648 284.615 194.497C284.574 193.893 284.516 191.727 284.418 189.765C284.391 187.219 284.446 185.267 284.581 183.015C288.816 187.917 298.423 197.027 299.065 197.545C299.468 197.837 299.518 197.601 299.518 197.601C299.956 191.375 299.713 184.042 300.111 177.641H296.588L296.468 177.733ZM152.782 177.642H149.242L149.111 177.732C149.111 178.066 150.246 178.088 150.39 179.261C150.506 180.123 150.54 184.114 150.596 186.176V193.471C150.596 193.471 150.547 194.798 150.103 196.096C149.535 197.835 146.794 199.734 144.749 199.734C141.726 199.734 137.924 198.394 139.546 193.135C139.04 192.962 138.842 193.698 138.048 194.004C135.969 194.728 132.702 194.693 130.493 194.004C130.431 191.63 130.41 189.543 130.41 187.151V178.265L130.323 177.695C130.152 177.606 129.721 177.639 129.483 177.639H125.925L125.789 177.729C125.789 178.063 126.929 178.086 127.073 179.259C127.142 179.696 127.183 180.914 127.238 182.281C127.307 186.835 127.422 191.726 127.101 196.094H138.021C138.021 196.094 137.768 199.105 138.862 200.429C140.36 202.225 142.889 202.191 145.289 201.508C148.845 200.429 153.331 197.434 153.652 193.719C153.695 191.695 153.707 189.62 153.707 187.551L153.749 178.263L153.652 177.692C153.473 177.609 153.036 177.642 152.782 177.642ZM283.653 159.184H283.857C287.574 159.277 290.948 159.512 294.305 158.121C297.186 156.517 298.195 153.905 299.003 151.292C301.221 143.756 299.003 135.952 293.247 130.833C291.679 135.618 293.63 140.536 294.053 145.187C294.335 146.79 294.075 148.607 294.449 150.152C296.151 145.287 294.863 140.568 293.991 136.107L293.956 135.786C296.79 139.414 298.902 142.817 298.635 147.213C297.876 154.982 289.329 156.937 283.653 159.184ZM259.583 194.5C259.473 193.637 259.358 189.637 259.319 187.556L259.358 178.268L259.255 177.697C259.07 177.609 258.653 177.642 258.414 177.642H254.839L254.708 177.732C254.708 178.066 255.857 178.088 255.986 179.261C256.111 180.123 256.221 184.114 256.264 186.176L256.237 194.016C256.219 194.627 256.219 195.361 256.219 195.493C256.219 195.631 256.219 195.975 256.374 196.044C256.499 196.154 256.937 196.097 257.173 196.097H260.758L260.862 196.01C260.864 195.673 259.723 195.649 259.583 194.5ZM256.501 157.869C254.988 158.596 253.061 158.855 251.399 159.345C249.832 159.878 249.783 161.932 249.295 163.182C250.795 162.532 252.555 162.225 254.185 161.791C255.733 161.129 255.871 159.184 256.501 157.869ZM61.8124 159.184C62.7345 158.995 63.3369 158.497 63.9591 157.253C65.7174 153.57 66.695 148.982 69.7981 148.28C70.2842 148.673 70.1601 149.43 70.312 150.089C71.3094 155.08 76.2461 157.39 80.2673 158.261C94.1554 161.006 107.394 157.06 118 147.958L118.169 147.847C117.568 151.244 119.674 152.569 121.28 152.273C123.481 151.893 124.378 149.333 125.13 147.706C125.595 146.593 125.924 145.78 126.156 145.032C126.348 144.416 126.518 143.823 126.608 143.208L126.102 143.515C124.617 144.671 124.317 146.662 122.97 147.959C122.436 148.422 121.582 148.759 120.838 148.549C119.805 148.187 119.551 147.296 119.517 146.37C119.537 145.539 119.722 144.696 119.722 144.187V143.696C111.215 150.965 101.164 155.116 89.8753 155.59C82.9953 155.496 75.9238 154.793 71.8365 149.01C71.098 147.744 70.8179 146.245 70.4679 144.846C69.4216 144.432 68.2049 145.414 67.4876 146.105C64.5879 148.761 64.4849 152.779 61.7503 155.41C60.3685 156.139 58.0369 154.689 58.0633 152.415C58.132 149.208 60.2998 146.624 62.8639 144.546C66.8522 141.293 70.1865 137.123 70.9263 132.423C69.0742 133.227 66.8099 133.58 64.7927 134.009C63.6434 134.53 63.4729 136.046 63.1176 137.737C64.7662 137.19 66.7544 136.941 68.5827 136.415L68.6025 136.513C66.8852 140.596 62.5852 142.109 59.6102 145.258C56.7039 148.378 55.9589 153.351 57.6762 156.832C58.6934 158.842 59.992 159.402 61.8124 159.184ZM93.9361 144.05C94.2096 145.525 96.2136 144.599 96.8887 143.415C97.0327 143.625 97.1965 143.751 97.4713 143.823C97.7579 143.843 98.2375 143.794 98.5519 142.995C98.7632 142.447 98.8597 141.699 98.4964 141.021L98.3669 141.785C98.2982 142.107 98.0116 142.478 97.54 142.478C97.0961 142.493 97.1912 141.986 97.1238 141.772C96.5967 141.938 96.7671 142.728 95.8252 143.234C95.4686 143.415 94.8675 143.611 94.6204 143.177C94.3946 142.708 94.7843 142.28 94.8411 141.867C94.2307 142.28 93.8476 143.234 93.9361 144.05ZM138.903 159.78C141.862 159.738 146.478 159.085 148.141 158.389C151.19 156.739 152.236 153.946 152.934 150.641C153.515 147.848 152.708 146.064 154.588 144.807C155.359 144.333 155.046 142.855 155.223 141.7C155.12 141.546 154.915 141.449 154.752 141.449C152.515 142.168 152.651 144.5 152.399 146.468C151.264 153.211 145.335 157.505 139.878 159.372L138.903 159.78ZM136.098 153.071L136.187 151.558C136.46 148.518 132.714 147.294 132.051 144.612C132.159 143.794 132.555 143.094 133.11 142.447C134.368 141.279 135.886 140.86 137.665 141.391C139.709 142.029 140.454 144.05 140.727 146.007C139.12 153.238 131.106 156.725 125.41 159.696L125.936 159.652C129.635 159.163 132.22 158.623 135.133 157.586C138.08 156.496 140.132 153.134 141.122 150.317C142.292 146.843 142.92 141.795 140.309 138.778C138.874 137.373 136.474 136.761 134.633 137.667C132.699 138.511 131.208 140.55 130.977 142.77C130.464 146.916 132.863 150.64 136.098 153.071ZM82.2027 140.3C90.4156 138.638 98.4964 136.646 106.408 134.362C107.291 134.055 109.424 133.746 109.28 132.421C100.815 134.69 92.0959 136.728 83.2067 138.577L82.6941 139.325C82.5171 139.535 81.8605 140.242 82.2027 140.3ZM125.636 136.415C124.809 135.674 123.613 135.044 122.669 134.601C122.114 135.445 121.403 136.486 121.226 137.596C122.183 138.403 123.181 138.844 124.193 139.452C125.056 138.291 125.384 137.135 125.636 136.415ZM109.992 161.61C111.612 160.814 113.396 160.579 115.094 160.118C116.44 159.277 116.624 157.699 117.11 156.351C115.558 157.139 113.692 157.348 112.016 157.894C110.374 158.388 110.47 160.394 109.992 161.61ZM112.713 187.585C114.189 184.023 114.717 181.083 114.717 181.083C115.777 183.038 117.424 187.585 117.424 187.585H112.713ZM124.447 193.994C121.226 188.832 118.963 183.148 116.727 177.642H112.268L112.16 177.732C112.16 177.881 113.815 178.331 113.396 180.51C112.776 183.762 111.292 187.344 107.305 195.401L106.989 196.044C106.956 196.085 106.942 196.097 107.305 196.097H110.935L111.073 196.01C111.073 195.671 109.526 195.671 109.771 194.498C110.135 193.177 111.291 190.819 112.132 188.987H118.122C119.27 191.153 120.29 193.472 121.657 195.493C121.786 195.671 121.937 195.934 122.045 196.044C122.183 196.121 122.634 196.097 122.887 196.097C123.455 196.121 126.471 196.097 126.471 196.097L126.58 196.01C126.582 195.707 125.575 195.649 124.447 193.994ZM247.242 131.07C238.406 133.761 228.943 136.682 219.703 138.745L218.76 141.044C228.052 138.453 237.57 135.912 246.482 132.501L247.242 131.07ZM232.083 142.337C231.809 142.645 231.582 143.035 231.445 143.36C231.199 143.889 231.233 144.864 231.755 145.2C232.281 145.506 233.381 145.286 233.894 144.205C234.216 144.332 234.476 144.444 235.009 144.235C235.898 143.855 235.87 142.435 235.87 141.523C235.459 141.851 235.741 142.572 235.236 142.926C234.73 143.208 234.27 142.674 234.27 142.28C233.998 142.708 233.8 143.493 233.219 143.794C232.898 143.961 232.377 144.117 232.063 143.843C231.582 143.389 232.227 142.829 232.083 142.337ZM156.133 136.205C157.494 135.912 159.217 135.377 159.984 134.643C160.723 133.942 161.392 132.939 161.208 131.848C160.749 130.609 159.731 132.577 158.801 132.084C158.336 131.749 159.525 130.609 160.284 130.84C160.498 130.609 160.626 130.252 160.667 129.95C160.498 129.752 160.094 129.711 159.881 129.837C158.897 130.398 158.057 131.246 158.144 132.605C158.336 134.128 159.778 132.283 160.564 132.732C159.647 134.449 157.371 135.044 156.133 136.205ZM407.274 165.964C407.274 165.964 409.163 167.94 409.846 170.697C409.846 170.697 405.756 170.377 404.123 171.647C404.123 171.647 404.245 172.779 406.14 174.819C406.14 174.819 406.496 175.423 405.661 175.952C404.875 176.457 400.917 176.722 400.773 172.549C400.773 172.549 398.214 175.647 394.725 175.187C394.725 175.187 391.972 174.847 391.801 172.261C391.801 172.261 394.448 172.773 396.555 171.796C396.555 171.796 396.464 170.082 394.066 168.392C394.066 168.392 395.946 165.949 400.234 164.793C400.234 164.793 399.382 161.08 400.616 157.327C401.871 153.562 402.488 152.664 402.807 151.847C403.16 151.06 403.55 149.094 402.91 147.002C402.91 147.002 412.867 146.797 412.901 157.454C412.903 157.454 413.004 163.387 407.274 165.964ZM396.053 184.268L390.23 181.59L395.975 179.711L401.463 182.217L396.053 184.268ZM386.243 174.602C382.905 174.395 381.679 171.072 381.679 171.072C380.012 173.275 376.557 172.917 376.557 172.917C373.776 172.301 373.586 169.881 373.586 169.881C376.647 169.265 377.435 168.157 377.435 168.157C376.737 166.199 373.408 165.114 373.408 165.114C375.412 161.953 379.689 160.365 379.689 160.365C378.022 158.629 377.544 156.909 377.113 154.064C376.676 151.146 377.435 146.65 377.435 146.65C378.289 142.625 379.821 140.67 381.132 138.966C382.541 137.288 383.943 137.488 383.943 137.488C385.806 137.695 387.485 138.695 387.485 138.695C389.704 139.999 391.295 141.91 392.021 142.91C392.691 143.917 394.853 148.757 392.158 154.826C389.464 160.813 386.701 161.955 386.701 161.955C390.86 165.963 390.837 167.761 390.837 167.761C387.404 167.761 386.49 169.676 386.49 169.676C387.333 171.347 389.791 171.972 389.791 171.972C389.086 174.733 386.243 174.602 386.243 174.602ZM384.046 183.462C382.878 183.462 381.922 182.532 381.922 181.371C381.922 180.165 382.879 179.251 384.046 179.251C385.169 179.251 386.092 180.165 386.092 181.371C386.092 182.532 385.169 183.462 384.046 183.462ZM372.258 183.462L366.672 181.211L372.258 178.951L377.956 181.211L372.258 183.462ZM362.829 171.072C362.829 171.072 361.586 174.395 358.257 174.602C358.257 174.602 355.43 174.734 354.741 171.973C354.741 171.973 357.14 171.347 358.021 169.677C358.021 169.677 357.109 167.762 353.653 167.762C353.653 167.762 353.612 165.965 357.83 161.956C357.83 161.956 355.004 160.814 352.332 154.828C349.659 148.759 351.785 143.918 352.498 142.912C353.2 141.91 354.774 139.999 357.016 138.696C357.016 138.696 358.686 137.696 360.592 137.489C360.592 137.489 361.946 137.289 363.343 138.967C364.66 140.671 366.262 142.626 367.068 146.652C367.068 146.652 367.841 151.147 367.396 154.065C366.986 156.911 366.507 158.631 364.826 160.367C364.826 160.367 369.057 161.956 371.081 165.116C371.081 165.116 367.74 166.199 367.068 168.158C367.068 168.158 367.862 169.266 370.91 169.882C370.91 169.882 370.779 172.302 367.895 172.918C367.895 172.917 364.505 173.275 362.829 171.072ZM360.492 183.462C359.356 183.462 358.357 182.532 358.357 181.371C358.357 180.242 359.356 179.32 360.492 179.32C361.653 179.32 362.526 180.24 362.526 181.371C362.526 182.532 361.653 183.462 360.492 183.462ZM348.421 184.268L342.956 182.246L348.502 179.711L354.238 181.63L348.421 184.268ZM338.779 176.106C338.029 175.555 338.281 174.956 338.281 174.956C340.19 172.957 340.357 171.811 340.357 171.811C338.704 170.536 334.656 170.865 334.656 170.865C335.329 168.054 337.201 166.142 337.201 166.142C331.443 163.449 331.599 157.566 331.599 157.566C331.599 146.957 341.577 147.125 341.577 147.125C340.95 149.206 341.351 151.171 341.659 152.014C341.979 152.796 342.646 153.658 343.884 157.454C345.085 161.208 344.25 164.869 344.25 164.869C348.505 166.059 350.379 168.502 350.379 168.502C347.958 170.197 347.958 171.92 347.958 171.92C350.003 172.917 352.69 172.383 352.69 172.383C352.5 174.992 349.724 175.297 349.724 175.297C346.284 175.75 343.676 172.692 343.676 172.692C343.565 176.844 339.615 176.611 338.779 176.106ZM422.017 157.147C424.137 156.431 423.886 154.065 423.886 154.065C423.43 151.299 420.54 151.693 420.54 151.693C422.373 149.543 420.918 147.871 420.918 147.871C419.501 146.098 417.264 147.238 417.264 147.238C418.283 144.965 416.935 143.825 416.935 143.825C415.138 142.246 413.278 143.879 413.278 143.879C413.222 141.659 411.623 141.156 411.623 141.156C409.727 140.334 408.348 142.039 408.348 142.039C406.966 138.227 404.245 140.181 403.6 140.448C402.951 140.822 402.892 140.448 402.892 140.448C402.768 135.844 398.843 137.568 398.843 137.568C399.917 135.27 398.065 133.975 398.065 133.975C396.046 132.73 394.37 134.473 394.37 134.473C394.166 131.435 391.904 132.338 391.197 132.604C390.512 132.757 389.038 132.811 389.038 132.811C384.389 132.236 382.68 132.505 382.68 132.505C377.018 132.395 372.258 141.77 372.258 141.77V141.851L372.176 141.77C372.176 141.77 367.343 132.395 361.705 132.505C361.705 132.505 359.975 132.238 355.346 132.811C355.346 132.811 353.904 132.757 353.185 132.604C352.473 132.337 350.219 131.433 350.058 134.473C350.058 134.473 348.365 132.73 346.346 133.975C346.346 133.975 344.494 135.27 345.547 137.568C345.547 137.568 341.621 135.844 341.494 140.448C341.494 140.448 341.477 140.822 340.775 140.448C340.16 140.181 337.448 138.227 336.064 142.039C336.064 142.039 334.656 140.334 332.788 141.156C332.788 141.156 331.162 141.659 331.109 143.879C331.109 143.879 329.228 142.246 327.425 143.825C327.425 143.825 326.063 144.965 327.067 147.238C327.067 147.238 324.879 146.098 323.504 147.871C323.504 147.871 322.034 149.543 323.896 151.693C323.896 151.693 320.913 151.299 320.493 154.065C320.493 154.065 320.265 156.431 322.349 157.147C322.349 157.147 319.905 158.289 320.351 160.253C320.351 160.253 320.492 162.208 323.027 162.587C323.027 162.587 320.912 163.994 321.785 165.964C321.785 165.964 322.631 168.269 325.349 167.599C325.349 167.599 324.331 169.963 325.904 171.033C325.904 171.033 327.396 172.302 329.229 171.05C329.229 171.05 330.192 170.697 330.594 171.388C330.594 171.388 331.285 172.499 329.821 174.129C329.821 174.129 337.724 173.452 339.852 186.192H404.439C406.579 173.452 414.579 174.129 414.579 174.129C413.086 172.499 413.814 171.388 413.814 171.388C414.175 170.698 415.139 171.05 415.139 171.05C416.986 172.302 418.512 171.033 418.512 171.033C420.035 169.963 419.031 167.599 419.031 167.599C421.781 168.269 422.656 165.964 422.656 165.964C423.433 163.996 421.356 162.587 421.356 162.587C423.889 162.208 424.003 160.253 424.003 160.253C424.443 158.289 422.017 157.147 422.017 157.147ZM340.598 193.185C340.736 194.69 340.777 196.07 340.777 196.07H403.55C403.55 196.07 403.601 194.76 403.728 193.369C403.871 191.862 404.032 190.654 404.032 190.654H340.284C340.284 190.654 340.485 191.926 340.598 193.185ZM368.655 130.567C368.655 130.567 366.637 130.527 365.31 131.184C365.31 131.184 369.995 132.437 372.26 137.863C374.541 132.437 379.2 131.184 379.2 131.184C377.957 130.526 375.85 130.567 375.85 130.567C375.645 129.853 374.852 129.3 374.852 129.3C375.472 128.557 376.696 127.748 376.696 127.748L372.26 117.215L367.842 127.748C367.842 127.748 369.052 128.557 369.66 129.3C369.659 129.298 368.845 129.853 368.655 130.567Z" fill="#A6844B"/>
</svg>
