<svg width="480" height="320" viewBox="0 0 480 320" fill="none" xmlns="http://www.w3.org/2000/svg">
<path d="M213.5 183.202L213.491 183.228L250.454 156.369L248.944 151.723L222.335 171.057L226.819 157.262L222.861 154.388L215.023 178.517C205.612 171.102 199.546 159.619 199.546 146.736C199.546 143.785 199.873 140.902 200.481 138.126L196.406 135.171C195.403 138.944 194.896 142.832 194.896 146.736C194.896 161.708 202.24 174.991 213.5 183.201M238.029 156.782L211.415 137.448H225.922L227.431 132.796L202.032 132.801C207.281 118.544 220.327 108.035 235.976 106.481L237.535 101.699C218.6 102.727 202.753 115.479 197.113 132.801H197.105L234.074 159.651L238.029 156.782ZM213.364 96.9653H213.631C213.441 94.935 212.745 93.7335 211.465 93.2529C206.872 91.522 204.397 87.7364 204.397 83.4985C204.397 78.6657 207.484 75.6652 211.361 75.6652C216.863 75.6652 218.859 82.0748 225.146 82.0748C227.404 82.0748 229.248 80.7512 229.248 79.6179V78.9497H228.073C220.181 78.9497 218.967 71.0135 211.359 71.0135C204.873 71.0135 199.742 76.1445 199.742 83.4973C199.742 90.9091 205.466 96.9653 213.363 96.9653M140.542 148.757H168.862V148.508C166.015 147.647 163.748 146.255 161.386 144.107H140.543C129.94 144.107 126.816 143.117 121.563 137.446H193.49C193.8 135.879 194.191 134.328 194.66 132.8H111.413L114.641 136.621C123.068 146.612 126.227 148.757 140.542 148.757ZM227.62 76.3129C231.646 76.3129 234.129 72.9629 234.129 69.8622C234.129 66.7114 232.684 65.429 231.187 65.429C230.559 65.43 229.957 65.6789 229.511 66.1217C229.066 66.5645 228.813 67.1653 228.808 67.7933C228.808 69.2004 230.073 70.1475 231.025 70.1475C229.804 72.0056 227.96 72.6403 225.58 72.4643C225.865 72.0659 226.018 71.589 226.02 71.0996C226.02 69.753 224.905 68.7417 223.662 68.7417C222.484 68.7417 221.31 69.8481 221.31 71.2538C221.31 73.9099 223.794 76.3129 227.62 76.3129ZM204.405 178.033H170.294C160.905 178.033 157.379 177.249 153.045 173.132H146.62C153.508 180.911 157.315 182.683 170.294 182.683H209.111C207.438 181.242 205.866 179.688 204.405 178.032M188.708 171.373V171.124C185.86 170.263 183.589 168.871 181.231 166.722H160.384C150.99 166.722 147.47 165.942 143.13 161.821H136.712C143.589 169.601 147.401 171.373 160.384 171.373H188.708ZM178.793 160.062V159.813C175.946 158.956 173.676 157.56 171.318 155.416H150.47C141.077 155.416 137.551 154.636 133.216 150.516H126.798C133.679 158.295 137.486 160.064 150.47 160.064L178.793 160.062ZM249.502 83.0269C247.185 83.0269 244.841 85.8539 243.971 89.9788C245.408 90.0816 246.837 90.2293 248.232 90.4465C249.157 86.8511 250.757 85.1922 252.104 84.9519C251.623 83.8596 250.725 83.0257 249.502 83.0257M240.006 101.63L225.884 145.084L229.836 147.959L240.001 116.676L244.488 130.47H249.375L241.536 106.335C257.403 106.929 270.957 116.68 277.035 130.47H282.064C275.523 113.615 259.143 101.63 240.006 101.63ZM265.204 103.974V99.205C258.304 95.2472 249.093 92.3277 240.006 92.3277C230.911 92.3277 221.704 95.2472 214.801 99.205V103.972C222.198 99.6085 230.812 96.9794 240.004 96.9794C249.197 96.9794 257.807 99.6085 265.204 103.974ZM217.076 94.9016C218.269 94.3445 219.482 93.8306 220.712 93.3609C220.108 91.5529 218.97 89.5123 216.84 89.5123C215.78 89.5123 214.951 90.3643 214.591 91.3576C215.575 91.7071 216.39 92.559 217.076 94.9029M219.619 181.658L215.552 184.604C222.831 189.334 231.326 191.847 240.006 191.839C249.896 191.839 259.049 188.63 266.492 183.213L266.518 183.226L252.401 139.771H247.51L257.678 171.05L245.941 162.532L241.989 165.401L262.51 180.311C255.863 184.798 248.026 187.193 240.007 187.189C232.573 187.189 225.615 185.166 219.622 181.658M231.784 90.4414C233.2 90.2299 234.623 90.0755 236.051 89.9788C235.181 85.8539 232.841 83.0244 230.525 83.0244C229.3 83.0244 228.398 83.8596 227.917 84.9519C229.265 85.1922 230.868 86.8511 231.784 90.4414ZM223.366 86.1302C222.306 86.1302 221.281 86.8742 220.868 87.9703C221.88 88.1194 223.226 88.9353 224.218 92.1594C225.523 91.7675 226.841 91.4242 228.171 91.1301C227.22 87.9382 225.497 86.1302 223.365 86.1302M333.386 173.131H326.959C322.628 177.247 319.102 178.03 309.714 178.03H275.607C274.144 179.686 272.571 181.241 270.897 182.682H309.714C322.698 182.682 326.505 180.909 333.386 173.131ZM237.215 132.799L235.706 137.445H268.594L256.862 145.972L258.371 150.619L278.924 135.691C279.922 139.199 280.461 142.902 280.461 146.733C280.461 158.714 275.221 169.494 266.917 176.906L268.472 181.689C278.616 173.411 285.113 160.818 285.113 146.733C285.113 141.869 284.333 137.191 282.9 132.799L282.905 132.793L237.215 132.799ZM358.446 137.445C353.192 143.116 350.073 144.104 339.469 144.104H318.622C316.265 146.252 313.993 147.644 311.147 148.506V148.756H339.469C353.782 148.756 356.94 146.611 365.372 136.62L368.6 132.799H285.348C285.814 134.312 286.205 135.872 286.523 137.445H358.446ZM235.416 67.476L240.012 64.135L244.605 67.4798L242.855 62.0764L247.451 58.7354H241.771L240.011 53.332L238.258 58.7354H232.573L237.174 62.0764L235.416 67.476ZM343.296 161.82H336.876C332.543 165.941 329.016 166.72 319.624 166.72H298.774C296.417 168.87 294.15 170.261 291.299 171.122V171.372H319.623C332.605 171.372 336.418 169.598 343.295 161.82M353.209 150.515H346.79C342.452 154.634 338.93 155.414 329.536 155.414H308.689C306.331 157.559 304.06 158.955 301.213 159.812V160.061H329.536C342.52 160.061 346.327 158.293 353.209 150.514M265.428 91.3563C265.075 90.363 264.241 89.511 263.175 89.511C261.049 89.511 259.912 91.5554 259.313 93.3737C260.546 93.8402 261.757 94.3529 262.944 94.9054C263.629 92.5577 264.449 91.7058 265.428 91.3563ZM237.086 82.6068C238.369 84.0845 239.127 85.2281 239.948 87.0631C239.974 87.0888 239.986 87.1274 240.012 87.1531C240.038 87.1274 240.051 87.0888 240.076 87.0631C240.898 85.2281 241.653 84.0858 242.937 82.6068C242.451 81.3243 240.988 78.9946 240.012 78.0476C239.038 78.9946 237.573 81.3243 237.089 82.6068M250.779 78.9497V79.6166C250.779 80.7499 252.623 82.0735 254.881 82.0735C261.168 82.0735 263.164 75.6626 268.666 75.6626C272.538 75.6626 275.633 78.6644 275.633 83.496C275.633 87.7352 273.15 91.5195 268.562 93.2516C267.28 93.7322 266.586 94.9337 266.391 96.9653H266.663C274.555 96.9653 280.285 90.9078 280.285 83.496C280.285 76.1432 275.154 71.0123 268.668 71.0123C261.06 71.0123 259.846 78.9497 251.954 78.9497H250.779ZM245.892 69.8596C245.892 72.9603 248.38 76.3103 252.402 76.3103C256.231 76.3103 258.717 73.9073 258.717 71.2513C258.717 69.8468 257.542 68.7404 256.364 68.7404C255.739 68.7421 255.141 68.9909 254.699 69.4324C254.257 69.874 254.008 70.4724 254.006 71.0971C254.006 71.6316 254.178 72.0621 254.445 72.4617C252.062 72.6391 250.218 72.0043 249.002 70.1462C249.945 70.1462 251.219 69.1991 251.219 67.7933C251.214 67.1638 250.961 66.5616 250.514 66.1182C250.067 65.6747 249.463 65.426 248.834 65.4264C247.343 65.4264 245.891 66.7088 245.891 69.8596M240.012 68.0786C239.026 68.0793 238.081 68.4711 237.383 69.168C236.685 69.8649 236.293 70.81 236.291 71.7961C236.291 72.7831 236.683 73.7296 237.381 74.4275C238.079 75.1254 239.025 75.5174 240.012 75.5174C240.999 75.5174 241.946 75.1254 242.644 74.4275C243.341 73.7296 243.734 72.7831 243.734 71.7961C243.733 70.8097 243.34 69.864 242.643 69.1668C241.945 68.4697 240.999 68.0783 240.012 68.0786ZM259.156 87.9703C258.747 86.8729 257.718 86.1302 256.663 86.1302C254.527 86.1302 252.809 87.9382 251.853 91.134C253.184 91.4263 254.503 91.771 255.806 92.1671C256.799 88.9353 258.15 88.1194 259.156 87.9703ZM117.459 264.528L111.425 264.537V250.752H117.672V253.725C117.672 253.725 118.511 250.747 122.858 251.069V257.692C122.858 257.692 118.203 257.024 117.459 259.234V264.528ZM246.641 264.528L240.607 264.537V250.752H246.854V253.725C246.854 253.725 247.693 250.747 252.04 251.069V257.692C252.04 257.692 247.38 257.024 246.641 259.234V264.528ZM134.605 254.27C134.605 254.27 132.17 254.052 131.853 257.47C131.853 257.47 131.956 260.226 134.392 260.339C134.392 260.339 136.722 260.558 136.935 257.579C136.935 257.579 137.038 254.383 134.605 254.27ZM142.751 257.692C142.434 265.522 134.604 264.855 134.604 264.855C125.611 265.294 125.712 257.357 125.712 257.357C126.245 250.298 134.501 250.521 134.501 250.521C143.068 250.521 142.751 257.692 142.751 257.692ZM342.772 254.27C342.772 254.27 340.343 254.052 340.022 257.47C340.022 257.47 340.125 260.226 342.564 260.339C342.564 260.339 344.886 260.558 345.103 257.579C345.103 257.579 345.206 254.383 342.773 254.27M350.924 257.692C350.603 265.522 342.773 264.855 342.773 264.855C333.778 265.294 333.887 257.357 333.887 257.357C334.414 250.298 342.669 250.521 342.669 250.521C351.24 250.521 350.924 257.692 350.924 257.692ZM144.018 250.746H151.425L153.76 257.582L155.872 250.746H162.644L157.676 261.879C157.676 261.879 155.664 267.173 152.386 266.626H145.291V262.655H149.738L144.018 250.746ZM173.656 254.382C173.656 254.382 170.796 253.939 170.692 257.583C170.692 257.583 170.692 260.556 173.339 260.556C173.339 260.556 175.768 260.659 175.986 257.691C175.986 257.691 176.303 254.383 173.656 254.383M175.764 250.747H181.906V264.528H175.769V261.989C173.974 264.855 170.265 264.528 170.265 264.528C163.815 263.867 164.559 257.248 164.559 257.248C164.767 249.968 170.796 250.298 170.796 250.298C173.443 250.196 175.769 252.506 175.769 252.506L175.764 250.747ZM217.68 254.382C217.68 254.382 214.824 253.939 214.72 257.583C214.72 257.583 214.72 260.556 217.363 260.556C217.363 260.556 219.797 260.659 220.005 257.691C220.005 257.691 220.327 254.383 217.679 254.383M219.793 250.747H225.93V264.528H219.797V261.989C217.998 264.855 214.289 264.528 214.289 264.528C207.842 263.867 208.581 257.248 208.581 257.248C208.789 249.968 214.824 250.298 214.824 250.298C217.471 250.196 219.797 252.506 219.797 252.506L219.793 250.747ZM325.526 264.528L319.492 264.537V250.752H325.738V253.725C325.738 253.725 326.577 250.747 330.92 251.069V257.692C330.92 257.692 326.26 257.024 325.526 259.234V264.528ZM307.108 254.382C307.108 254.382 304.252 253.939 304.147 257.583C304.147 257.583 304.147 260.556 306.791 260.556C306.791 260.556 309.225 260.659 309.438 257.691C309.438 257.691 309.755 254.383 307.108 254.383M309.221 250.747H315.358V264.528H309.225V261.989C307.426 264.855 303.717 264.528 303.717 264.528C297.262 263.867 298.01 257.248 298.01 257.248C298.219 249.968 304.252 250.298 304.252 250.298C306.899 250.196 309.225 252.506 309.225 252.506L309.221 250.747ZM185.823 248.318H192.171V264.53H185.823V248.318ZM229.962 250.748H236.305V264.523H229.962V250.748ZM229.962 247.983H236.305V249.801H229.962V247.983ZM268.263 264.528V250.746H274.396V253.833C274.396 253.833 275.784 250.518 279.806 250.518C279.806 250.518 282.873 250.188 284.46 253.276C284.46 253.276 287.004 249.858 289.86 250.519C289.86 250.519 293.454 250.301 294.306 254.268L294.297 264.423H287.738V257.246C287.738 257.246 287.426 255.152 285.939 255.374C285.939 255.374 284.356 255.374 284.143 257.024V264.527H277.683V257.578C277.683 257.578 278.004 255.152 276.205 255.483C276.205 255.483 274.618 255.261 274.306 257.246V264.527L268.263 264.528ZM368.595 251.186C368.595 251.186 366.269 250.189 361.296 250.081C361.296 250.081 354.311 249.978 354.098 257.691C354.098 257.691 354.098 264.197 361.927 264.527C361.927 264.527 367.008 264.527 368.595 262.212V259.011C368.595 259.011 367.008 260.004 363.943 260.004C363.943 260.004 360.345 260.226 360.345 257.135C360.345 257.135 360.552 254.487 363.091 254.604C363.091 254.604 365.739 254.052 368.595 255.375V251.186ZM137.391 222.748C137.391 222.748 135.704 225.652 135.704 226.265C135.704 226.873 136.144 227.721 135.627 227.942C135.11 228.179 131.077 229.248 131.438 225.422C127.4 227.031 116.905 231.696 107.513 231.696C101.897 231.696 99.0677 232.38 96.7508 229.915C95.6457 228.365 92.7571 226.116 90.8489 230.236C88.8674 233.05 88.7954 235.675 87.5439 235.44C86.2255 235.2 85.6356 232.461 85.2694 229.171C83.8726 233.835 85.0188 239.878 86.6649 239.801C88.2609 239.801 89.2529 236.877 90.0869 235.082C90.917 233.301 91.2523 232.517 92.4628 232.461C97.0143 232.688 92.2405 237.43 106.924 236.74C113.75 236.052 122.559 234.678 128.511 230.471C129.608 229.555 129.899 229.325 130.193 231.083C130.56 232.997 131.367 233.762 133.419 233.604C135.478 233.455 139.222 229.854 137.386 222.746M395.189 217.314C394.459 218.614 392.842 221.602 392.04 222.061C392.04 224.277 392.402 238.425 391.891 239.417C393.137 237.123 395.485 234.295 395.334 232.15C395.191 230.016 395.558 218.311 395.191 217.314M375.74 220.372L372.068 222.974L374.199 224.965L377.499 221.982L375.74 220.372Z" fill="#C20831"/>
<path d="M333.606 230.238C333.823 228.942 332.209 227.106 330.369 227.565C330.369 229.02 330.819 230.32 331.547 230.474C332.282 230.624 333.384 230.705 333.606 230.239M359.735 231.695C357.169 230.239 349.309 233.149 346.97 234.451C350.342 234.832 359.666 234.451 359.735 231.695ZM386.68 220.756C386.68 220.756 385.279 222.52 384.84 223.209C384.403 223.898 384.695 224.125 384.622 225.343C384.544 226.577 384.699 228.485 383.154 230.547C383.744 231.159 390.715 232.533 390.715 232.533L387.12 236.822C386.603 236.514 382.936 236.971 381.318 237.121C379.704 237.279 371.553 238.427 368.031 238.884C364.509 239.342 356.286 239.65 349.758 239.419C343.22 239.193 340.724 237.891 336.983 236.822C336.983 236.822 334.775 239.88 333.385 240.262C331.992 240.647 327.218 241.028 321.054 239.727C322.957 239.578 333.461 236.971 335.292 234.909C330.963 235.063 327.586 233.381 327.295 232.461C326.996 231.545 328.393 229.555 329.128 228.182C329.86 226.799 331.77 223.286 332.944 223.358C335.075 223.512 337.124 227.339 338.157 230.168C339.108 231.546 342.192 233.608 344.617 233C345.053 232.692 347.26 231.469 348.279 230.856L348.134 225.194C348.07 224.124 347.332 223.743 347.183 222.751C347.037 221.754 348.215 219.459 349.757 216.781C349.39 217.929 350.781 219.31 351.072 220.838C351.371 222.37 350.116 222.9 349.974 223.286C349.825 223.666 349.757 226.876 349.897 230.09C359.145 225.652 360.981 226.268 362.962 227.642C364.943 229.021 364.208 231.772 360.831 234.451C363.035 234.754 370.374 234.066 374.19 233.149C373.9 232.918 367.513 231.695 367.513 231.695C367.958 231.546 369.712 228.182 369.712 228.182L381.017 228.028C382.486 228.028 382.486 226.958 382.486 226.958L382.563 224.048C382.563 223.286 382.273 223.132 382.05 221.369C381.828 219.61 384.988 217.09 384.988 217.09C384.255 219.692 384.988 219.841 386.679 220.757M319.146 233.707C319.082 232.732 318.321 231.404 315.724 231.523C313.144 231.638 310.279 234.392 309.183 235.879C310.224 235.943 316.834 235.594 319.146 233.707ZM310.339 221.256C310.833 221.371 311.549 221.97 311.766 222.117C311.985 222.117 311.603 223.376 310.279 224.124C310.611 229.341 310.007 232.615 310.007 232.615C319.146 225.847 323.656 226.417 324.205 229.514C324.758 232.615 318.484 238.924 313.194 239.383C307.918 239.846 305.274 238.576 299.984 236.168C300.977 236.403 303.621 236.052 306.594 236.512C306.811 235.827 308.026 234.563 309.014 233.766L308.352 225.96C308.249 225.044 307.468 224.927 307.69 222.976C307.916 221.027 308.851 218.561 310.502 218.272C310.279 218.729 310.116 220.682 310.339 221.253M293.487 217.814C293.215 218.386 290.736 222.751 290.736 222.751C290.958 226.473 291.452 236.804 290.404 239.212C292.717 236.115 293.817 233.532 293.817 232.385C293.817 232.385 293.753 218.445 293.486 217.814M282.945 232.758C282.782 233.737 282.585 236.226 285.393 235.659C286.223 235.083 285.144 232.413 282.945 232.758ZM282.755 219.82C282.755 220.165 284.292 220.509 284.405 221.429C284.508 222.345 284.132 223.03 283.191 224.176L283.027 226.997C283.027 226.997 282.976 228.311 283.359 228.71C284.238 229.172 285.068 227.908 286.496 228.428C288.83 229.268 287.434 233.075 286.94 234.965C286.436 236.861 284.679 240.01 283.522 239.961C281.709 239.871 281.047 238.466 280.554 235.767C279.23 236.915 272.185 239.558 268.826 239.499C265.467 239.434 264.424 236.402 263.648 233.705C263.268 234.906 260.181 239.725 254.569 239.667C248.953 239.616 245.094 236.172 242.619 234.045L242.012 234.222C241.572 237.551 238.988 238.352 237.279 238.519C235.574 238.697 233.752 236.117 232.873 233.588C232.102 234.104 222.523 238.202 214.986 238.297C201.276 238.466 203.806 232.84 200.887 232.899C199.672 232.95 199.35 233.302 198.525 235.083C197.686 236.879 196.43 239.726 194.831 239.726C190.869 239.726 191.585 232.327 193.733 228.769C194.391 227.564 194.667 228.252 194.336 228.941C194.004 229.63 193.235 234.282 194.558 234.508C195.483 234.671 196.92 233.588 198.905 230.777C200.664 227.908 204.082 228.365 205.184 229.916C207.273 233.017 210.465 233.13 216.086 233.245C221.698 233.36 225.275 232.327 234.141 228.542C233.919 229.287 234.025 231.235 235.405 232.268C236.78 233.302 239.096 233.819 239.921 231.525L236.23 228.197C234.966 227.105 234.141 227.105 234.419 223.832C234.419 217.699 252.306 218.615 252.306 218.615C254.237 218.615 256.122 218.332 256.276 219.992C256.598 223.778 252.914 226.302 249.445 227.341C250.486 226.761 253.131 224.811 253.357 223.896C253.597 222.872 253.241 222.458 252.252 222.517C251.262 222.569 238.216 223.778 238.216 223.778C237.5 223.894 237.939 224.526 237.939 224.526L249.662 232.731C254.953 235.483 259.133 233.647 261.504 232.731C263.869 231.814 263.815 230.324 263.869 229.232L264.092 221.603C264.696 221.258 266.182 218.502 266.182 218.502L265.96 230.777C266.024 232.214 266.182 234.621 267.886 234.852C271.685 235.482 279.174 231.751 280.992 230.374C281.108 229.629 280.889 225.211 280.889 225.211C280.889 224.413 279.62 224.122 279.62 223.148C279.62 222.172 282.1 218.043 282.647 217.413C282.375 218.043 282.763 219.476 282.763 219.82M198.243 221.483L194.612 224.354L197.038 225.613C197.038 225.613 199.35 223.665 200.338 223.782C201.326 223.898 202.763 225.157 202.763 225.157C202.763 225.157 205.95 222.404 206.389 222.286C205.623 221.258 204.3 220.681 204.3 220.681C204.3 220.681 201.548 222.631 200.887 222.631C200.225 222.631 198.243 221.484 198.243 221.484" fill="#C20831"/>
<path d="M226.508 236.821C225.991 237.279 223.204 238.884 222.619 239.042L224.962 240.489C224.962 240.489 227.678 238.883 228.267 239.114C228.852 239.341 230.32 240.338 230.32 240.338L234.065 238.348L232.302 236.739C232.302 236.739 229.445 238.271 228.78 238.194C228.123 238.117 226.508 236.82 226.508 236.82M184.704 218.5C184.422 219.072 181.947 223.437 181.947 223.437C182.718 228.024 183.982 237.888 182.936 240.3C185.252 237.203 186.131 233.991 186.131 232.843C186.131 232.843 184.974 219.135 184.704 218.5ZM156.77 229.556L160.586 227.87C160.003 227.49 155.814 227.413 155.079 227.49L156.77 229.556ZM175.048 232.979C174.885 233.949 174.68 236.51 177.101 236.053C177.985 235.21 177.246 232.635 175.048 232.979ZM143.779 235.517C140.034 235.826 133.869 242.019 130.637 240.644C128.751 239.848 130.487 235.748 131.812 234.679C130.71 238.655 130.71 238.196 131.521 238.881C132.323 239.575 137.464 235.137 139.961 233.532C142.454 231.927 148.33 230.472 152.364 230.395C152.141 229.933 151.413 229.172 150.828 228.941C150.237 228.709 148.33 228.483 148.33 228.483L150.31 224.43C154.718 223.514 164.042 225.042 166.463 225.65L165.501 230.395C164.844 230.472 162.713 231.234 161.467 232.382C163.965 235.209 170.809 232.382 172.628 231.007C172.731 230.26 172.628 226.116 172.628 226.116C172.628 225.304 171.222 225.309 171.222 224.339C171.222 223.36 173.702 219.23 174.255 218.605C173.979 219.231 174.358 220.668 174.358 221.012C174.358 221.353 175.668 221.602 175.776 222.517C175.879 223.433 175.725 224.222 174.797 225.368L174.707 227.599C174.707 227.599 174.656 228.923 175.039 229.326C175.918 229.78 176.744 228.524 178.181 229.036C180.506 229.875 178.688 234.045 178.193 235.94C177.695 237.829 177.092 240.187 175.555 239.956C173.217 239.606 173.479 237.83 172.98 235.137C171.666 234.561 168.161 238.773 161.566 237.549C158.886 237.045 156.942 235.94 154.19 233.419C153.528 234.221 147.219 234.066 143.768 235.518" fill="#C20831"/>
<path d="M160.003 219.074L156.036 221.296L158.238 222.747L161.466 220.53L160.003 219.074ZM96.2874 220.606C96.5046 220.683 98.7803 221.603 98.7803 221.603C98.7803 221.603 95.6976 224.124 95.4753 224.201C95.2581 224.278 93.2047 223.132 92.4658 223.358C91.736 223.594 89.973 225.502 89.973 225.502C89.973 225.502 87.624 224.663 87.1074 224.505C88.3539 223.816 90.194 221.753 90.5615 221.369C92.0264 221.986 93.4951 222.828 93.9346 222.67C94.3741 222.521 95.4033 220.607 96.2861 220.607M123.225 237.123C123.664 237.123 126.017 235.138 126.602 235.21C127.193 235.287 129.1 236.824 129.1 236.824C129.1 236.824 125.646 239.499 125.278 239.417C124.911 239.34 123.225 237.971 122.853 238.043C122.494 238.12 119.625 240.106 119.625 240.106L116.543 238.737C116.543 238.737 119.848 235.904 120.364 235.827C120.872 235.75 122.708 236.974 123.225 237.123ZM142.602 237.205L139.665 238.733L141.134 240.568L144.22 238.579L142.602 237.205Z" fill="#C20831"/>
</svg>
