<svg width="480" height="320" viewBox="0 0 480 320" fill="none" xmlns="http://www.w3.org/2000/svg">
<path d="M149.223 159.957C141.866 180.238 116.616 196.701 92.8301 196.724C69.0416 196.74 55.721 180.324 63.0808 160.043C70.4377 139.765 95.6856 123.304 119.477 123.281C143.26 123.257 156.58 139.678 149.223 159.957" fill="#1C4E9D"/>
<path d="M113.993 126.111L112.588 142.273L122.912 126.105L116.952 142.873L130.694 128.404L120.583 144.64L136.793 132.859L123.231 147.452L140.818 139.159L124.716 151.121L142.469 146.884L124.935 155.389L141.654 155.504L123.875 159.98L138.416 164.427L121.605 164.57L132.975 173.047L118.284 168.844L125.716 180.78L114.133 172.519L117.121 187.094L109.448 175.34L107.77 191.564L104.527 177.115L98.3194 193.883L99.7241 177.724L89.4026 193.891L95.3576 177.126L81.6206 191.593L91.7267 175.357L75.5162 187.138L89.081 172.545L71.5003 180.835L87.5987 168.879L69.8398 173.111L87.3803 164.602L70.6615 164.496L88.4404 160.017L73.8961 155.57L90.7097 155.427L79.3311 146.95L94.0305 151.152L86.599 139.217L98.1759 147.476L95.194 132.903L102.867 144.66L104.539 128.43L107.782 142.879L113.993 126.111Z" fill="#F9E20E"/>
<path d="M92.7286 160.014C90.0427 167.417 93.8777 173.435 101.281 173.433C108.686 173.424 116.893 167.391 119.582 159.986C122.268 152.583 118.43 146.562 111.028 146.57C103.625 146.578 95.4146 152.612 92.7286 160.014ZM93.9409 160.012C96.3827 153.275 103.852 147.788 110.591 147.783C117.327 147.777 120.815 153.249 118.367 159.989C115.92 166.725 108.456 172.212 101.72 172.217C94.9923 172.223 91.4962 166.751 93.9409 160.012Z" fill="white"/>
<path d="M69.5642 159.985C76.7689 140.126 98.535 123.901 118.451 123.361C118.779 123.356 119.103 123.345 119.431 123.345C122.206 123.342 124.84 123.558 127.328 123.969C128.273 124.133 129.201 124.319 130.146 124.543C131.571 124.891 132.95 125.304 134.262 125.781C126.842 121.621 113.292 120.78 103.149 122.788C81.1181 127.148 62.0493 143.281 55.3848 159.997L69.5642 159.985Z" fill="#4BA3E0"/>
<path d="M142.745 160.019H142.742C135.54 179.878 113.771 196.103 93.855 196.64C93.5304 196.648 93.2029 196.656 92.8754 196.656C90.1004 196.659 87.4662 196.44 84.9785 196.036C84.0305 195.872 83.1026 195.68 82.1632 195.458C80.7298 195.111 79.3567 194.697 78.041 194.22C85.464 198.38 99.0143 199.221 109.155 197.216C131.182 192.856 150.257 176.72 156.916 160.004H156.919L142.745 160.019Z" fill="#87CF2E"/>
<path d="M205.062 149.791C205.059 148.275 204.324 147.12 202.864 146.321C201.549 145.606 199.814 145.253 197.656 145.255C196.631 145.255 195.826 145.329 195.243 145.474L192.572 156.783C193.187 156.865 193.793 156.91 194.382 156.91C197.559 156.907 200.133 156.269 202.109 154.996C204.08 153.721 205.065 151.986 205.062 149.791M215.283 174.361C213.309 174.677 211.353 174.835 209.417 174.835C207.624 174.838 206.28 174.421 205.387 173.58C204.49 172.738 203.106 170.572 201.244 167.096C199.483 163.815 198.056 161.715 196.961 160.802C195.861 159.891 194.212 159.437 192.026 159.44L189.297 171.172C189.185 171.635 189.133 172.06 189.133 172.459C189.133 173.318 189.42 174.045 190.012 174.645L179.705 174.653C180.871 174.025 181.604 173.079 181.894 171.821L187.952 145.605C188.024 145.289 188.062 144.921 188.062 144.491C188.062 143.746 187.728 143.181 187.073 142.778L199.351 142.77C203.778 142.765 207.191 143.405 209.607 144.686C211.801 145.855 212.899 147.41 212.902 149.352C212.904 151.894 211.477 154.022 208.63 155.737C206.223 157.194 203.281 158.142 199.805 158.573C201.635 158.797 203.221 159.644 204.577 161.098C205.456 162.011 206.447 163.505 207.544 165.588C209.337 168.989 210.707 171.212 211.661 172.287C212.611 173.356 213.821 174.048 215.283 174.361M255.608 152.392C254.545 153.082 253.215 154.75 251.612 157.413L241.374 174.592L237.593 174.595L234.948 159.864L225.476 174.609L221.808 174.615L219.869 157.143C219.685 155.54 219.51 154.457 219.343 153.883C219.182 153.317 218.855 152.831 218.384 152.432L226.496 152.424C225.804 152.798 225.456 153.421 225.456 154.308C225.456 154.765 225.494 155.337 225.568 156.02L226.786 167.284L236.364 152.412L239.38 152.41L242.08 167.184L248.538 156.385C249.489 154.785 249.96 153.653 249.96 152.996C249.96 152.714 249.851 152.516 249.63 152.404L255.608 152.392ZM274.466 156.058C273.481 154.886 272.125 154.305 270.413 154.305C267.598 154.308 265.297 155.868 263.507 158.979C262.085 161.524 261.373 164.164 261.375 166.905C261.378 170.019 262.841 171.573 265.768 171.57C266.716 171.57 267.779 171.237 268.945 170.582C270.005 169.982 270.898 169.281 271.634 168.479L274.466 156.058ZM281.651 152.366L277.333 171.13C277.155 171.929 277.06 172.498 277.06 172.843C277.06 173.699 277.793 174.27 279.252 174.552C277.54 174.813 275.948 174.943 274.486 174.943C273.245 174.943 272.404 174.886 271.967 174.776C271.091 174.575 270.651 174.118 270.651 173.405V172.463C268.365 174.351 265.693 175.296 262.642 175.299C259.887 175.304 257.744 174.492 256.219 172.863C254.834 171.352 254.142 169.338 254.142 166.827C254.136 163.374 255.576 160.088 258.46 156.971C261.749 153.432 265.805 151.654 270.625 151.648C272.855 151.648 274.736 152.199 276.273 153.314L278.468 152.369L281.651 152.366ZM312.077 156.363C312.077 157.072 311.898 158.218 311.534 159.79L308.914 171.183C308.767 171.812 308.693 172.358 308.693 172.812C308.693 173.668 309.442 174.239 310.942 174.521C309.189 174.779 307.213 174.908 305.021 174.914C303.232 174.914 302.333 174.386 302.333 173.331C302.333 173.047 302.476 172.26 302.772 170.973L305.286 159.968C305.535 158.793 305.665 157.942 305.662 157.397C305.662 156.026 304.763 155.34 302.976 155.343C300.997 155.346 298.753 156.36 296.24 158.388L293.45 170.812C293.235 171.786 293.126 172.455 293.126 172.826C293.126 173.484 293.433 174.055 294.059 174.541L284.852 174.549C286.019 173.833 286.803 172.618 287.202 170.906L290.641 155.739C290.75 155.256 290.802 154.796 290.802 154.365C290.802 153.257 290.457 152.584 289.759 152.357L297.653 152.349L297.11 154.665C298.236 153.863 299.575 153.162 301.109 152.562C302.824 151.93 304.355 151.617 305.711 151.617C309.948 151.611 312.074 153.191 312.077 156.362M336.418 155.992C335.536 154.823 334.197 154.243 332.414 154.243C329.633 154.246 327.352 155.748 325.565 158.747C324.068 161.289 323.319 163.987 323.324 166.84C323.327 169.953 324.79 171.508 327.714 171.508C329.722 171.505 331.661 170.517 333.522 168.549L336.418 155.992ZM345.883 141.678L339.276 170.637C339.101 171.442 339.006 172.14 339.009 172.737C339.006 173.567 339.725 174.151 341.149 174.495C339.431 174.751 337.877 174.88 336.49 174.88C335.062 174.88 334.077 174.799 333.528 174.628C332.873 174.398 332.543 173.973 332.543 173.344C332.543 173.088 332.595 172.775 332.701 172.402C330.296 174.289 327.645 175.234 324.758 175.237C321.871 175.24 319.673 174.415 318.179 172.761C316.789 171.281 316.091 169.276 316.088 166.765C316.085 163.198 317.576 159.854 320.575 156.74C323.859 153.313 327.82 151.592 332.465 151.586C334.367 151.583 335.921 151.968 337.128 152.738L338.923 145.2C339.107 144.427 339.196 143.885 339.196 143.572C339.196 142.744 338.851 142.118 338.156 141.69L345.883 141.678ZM372.053 161.014L368.749 147.995L359.223 161.068C360.392 161.18 362.587 161.252 365.805 161.272C367.192 161.239 369.275 161.151 372.053 161.014M383.086 174.449L373.822 174.457C374.477 174.199 374.808 173.771 374.808 173.173C374.805 172.857 374.733 172.4 374.586 171.803L372.61 164.093C370.631 163.926 368.2 163.843 365.311 163.846C361.984 163.849 359.206 163.935 356.983 164.11C356.578 164.655 354.736 167.169 351.453 171.656C350.686 172.713 350.301 173.423 350.301 173.796C350.301 174.055 350.525 174.282 350.962 174.483L344.159 174.488C345.075 173.945 346.138 172.845 347.339 171.185L366.554 144.874C367.025 144.214 367.27 143.696 367.267 143.329C367.267 142.987 367.011 142.742 366.5 142.599L374.118 142.593L381.326 171.668C381.656 173.067 382.245 173.992 383.087 174.448M402.408 144.449C402.41 145.25 402.051 145.923 401.342 146.463C400.626 147.008 399.779 147.279 398.794 147.279C397.8 147.281 396.958 147.011 396.243 146.468C395.527 145.928 395.171 145.256 395.171 144.457C395.171 143.685 395.522 143.021 396.24 142.461C396.95 141.91 397.8 141.625 398.791 141.625C399.776 141.625 400.621 141.903 401.339 142.458C402.051 143.015 402.408 143.679 402.408 144.449M400.118 152.245L395.961 170.579C395.711 171.696 395.582 172.408 395.585 172.724C395.582 173.523 396.297 174.092 397.722 174.434C396.481 174.692 394.617 174.821 392.129 174.825C390.196 174.827 389.228 174.273 389.228 173.158C389.222 172.874 389.334 172.242 389.549 171.274L393.1 155.727C393.244 155.092 393.318 154.564 393.316 154.138C393.316 153.193 392.968 152.567 392.276 152.254L400.118 152.245ZM424.616 152.09L424.236 157.832C423.033 156.58 421.551 155.954 419.798 155.954C417.713 155.956 415.725 156.913 413.826 158.826L410.93 171.081C410.746 171.848 410.66 172.365 410.66 172.621C410.663 173.422 410.973 174.023 411.594 174.419L402.439 174.427C403.645 173.798 404.427 172.669 404.791 171.04L408.336 155.62C408.48 154.988 408.552 154.434 408.552 153.945C408.552 153.121 408.227 152.549 407.569 152.236L415.242 152.228L414.587 155.184C416.891 152.725 419.258 151.495 421.714 151.492C422.766 151.492 423.74 151.693 424.616 152.087" fill="#1C4E9D"/>
</svg>
