<svg width="480" height="320" viewBox="0 0 480 320" fill="none" xmlns="http://www.w3.org/2000/svg">
<path d="M134.998 181.205L123.452 166.391H119.108V181.205H105.867V142.214H125.57C139.976 142.214 149.193 146.28 149.193 154.357C149.193 159.816 143.896 163.211 136.694 164.993L149.405 181.203H134.998V181.205V181.205ZM124.935 149.008H119.108V159.872H125.676C132.456 159.872 135.95 158.031 135.95 154.467C135.951 150.959 132.882 149.008 124.935 149.008H124.935ZM182.363 166.497V181.202H169.122V166.609L150.053 142.21H164.673L170.393 150.12C172.83 153.516 175.268 157.362 175.903 159.2C176.643 157.362 179.081 153.35 181.411 150.12L187.131 142.21H201.538L182.363 166.496L182.363 166.497ZM232.427 181.205L228.933 173.074H212.304L208.81 181.205H195.25L214.211 142.214H227.136L246.094 181.205H232.427ZM224.063 161.934C222.791 158.925 221.098 154.411 220.568 152.465C220.037 154.469 218.556 158.646 217.178 161.821L215.165 166.559H226.076L224.063 161.934L224.063 161.934ZM282.119 181.205L268.455 163.827C266.547 161.376 264.216 158.199 262.841 155.918C262.946 158.315 263.051 162.324 263.051 164.773V181.205H250.974V142.217H264.322L277.352 159.319C279.154 161.655 281.802 165.279 283.177 167.452C283.072 165.055 282.755 160.822 282.755 158.369V142.217H294.831V181.205H282.119H282.119ZM337.58 181.205L334.081 173.074H317.451L313.956 181.205H300.397L319.357 142.214H332.283L351.244 181.205H337.58ZM329.21 161.934C327.939 158.925 326.246 154.411 325.714 152.465C325.184 154.469 323.702 158.646 322.324 161.821L320.311 166.559H331.224L329.21 161.934L329.21 161.934ZM356.438 142.207H369.677V181.199H356.438V142.207ZM410.213 181.205L398.664 166.391H394.322V181.205H381.079V142.214H400.783C415.189 142.214 424.404 146.28 424.404 154.357C424.404 159.816 419.11 163.211 411.907 164.993L424.616 181.203H410.212V181.205L410.213 181.205ZM400.148 149.008H394.322V159.872H400.888C407.668 159.872 411.163 158.031 411.163 154.467C411.163 150.959 408.093 149.008 400.148 149.008H400.148Z" fill="#2B4779"/>
<path d="M84.192 140.825C86.9359 141.742 89.839 142.444 92.7993 142.781L94.864 142.801L94.9278 142.743C96.1622 142.777 97.0747 142.235 98.2753 141.97C98.4045 141.94 98.7147 141.862 98.8463 142.038C98.9063 142.268 98.8125 142.517 98.5527 142.687C97.0825 143.812 95.3291 144.649 93.6763 145.251V145.218C93.134 145.322 92.5539 145.555 91.9908 145.74C89.9547 146.357 87.637 146.744 85.4472 146.586C81.2525 146.371 77.6872 144.872 73.9838 145.049C70.3472 144.837 66.8885 146.227 64.9528 148.969C63.9596 150.404 63.1696 151.918 62.9233 153.582C63.0328 155.089 65.1483 155.668 65.9409 156.914C66.3958 157.667 66.6214 158.498 66.9642 159.28C67.8427 160.856 68.7134 162.431 69.7928 163.914L69.7658 163.944C70.3981 164.936 71.4056 165.795 72.5971 166.378C74.1417 167.482 75.5053 168.866 76.3161 170.354L76.2739 170.377C77.1864 171.832 77.6986 173.34 78.4052 174.857C78.7219 175.788 79.0712 176.607 79.3423 177.513C79.4351 177.597 79.4351 177.734 79.4895 177.853C79.7394 178.57 79.9523 179.334 80.2573 179.999C80.1256 180.099 80.3602 180.137 80.3315 180.234C80.3484 180.637 80.741 181.241 80.2168 181.51C79.4542 180.837 79.054 179.848 78.642 179.13C77.7414 177.559 76.7102 176.041 75.5996 174.547L75.6334 174.517C74.9516 173.66 74.1982 172.696 73.4187 171.809C70.1325 168.171 65.303 165.986 61.7729 162.523L61.7392 162.553C61.4383 162.283 61.245 161.926 61.0013 161.618L61.025 161.585C60.5948 160.983 60.3393 160.296 59.9234 159.679L59.9471 159.649C58.8548 158.022 57.8041 156.295 57.0976 154.583C56.9505 153.826 56.6911 153.174 56.6336 152.302L56.5511 152.017C56.5967 151.223 54.6272 150.763 55.7105 149.24C56.3909 148.506 59.024 147.602 59.9198 146.224C59.9399 146.018 59.9874 145.773 59.81 145.586C59.81 145.439 59.6572 145.284 59.5506 145.132C59.0526 144.512 57.702 145.001 57.7243 144.087C57.8627 144.081 57.7311 143.959 57.8222 143.907C57.7466 143.456 57.7152 143.158 57.8425 142.777C58.115 142.028 58.3808 141.165 58.3274 140.409C58.3823 140.125 58.6663 139.955 58.953 139.844C59.5136 139.703 60.0037 139.628 60.5537 139.555L60.6229 139.611C61.8939 139.506 63.4203 139.597 64.2636 140.596C64.6284 141.354 64.3432 142.252 64.1386 143.014C64.0747 143.454 63.5936 143.812 63.7057 144.275C63.8727 144.446 64.2232 144.435 64.4461 144.34C66.3649 143.177 68.04 141.564 69.4374 139.934C70.7253 138.728 72.6219 138.312 74.3661 138.562C77.8999 138.834 80.8865 140.019 84.1805 140.823L84.192 140.825Z" fill="#F4CA35"/>
<path d="M75.0842 147.202C75.5822 147.864 74.9159 148.448 74.7179 149.03C72.644 152.145 71.9204 155.672 70.5441 159.008C70.4412 159.122 70.2368 159.158 70.0891 159.112C69.7227 158.85 69.7227 158.419 69.7646 158.04C70.0409 154.424 70.9964 151.032 72.5358 147.799C72.8956 147.281 73.5096 146.695 74.3009 146.817C74.5995 146.88 74.8665 146.984 75.0842 147.202V147.202ZM80.5495 148.146C80.8142 149.335 79.9615 150.31 79.5836 151.374C77.5657 155.402 75.1436 159.343 73.947 163.649C73.891 163.786 73.811 163.971 73.6511 164.031C73.4804 164.078 73.3371 163.993 73.2927 163.872C72.8887 162.161 73.3538 160.38 73.7933 158.753C74.943 155.139 76.3338 151.44 78.2787 148.079C78.5044 147.907 78.5395 147.761 78.821 147.681C79.4975 147.61 80.1753 147.661 80.5495 148.146V148.146ZM86.3856 148.349C86.9293 148.758 86.6488 149.532 86.4352 150.012C84.0707 155.248 80.2408 159.763 78.6558 165.255C78.2179 166.419 77.9337 167.623 77.57 168.796C77.5059 169.007 77.1972 169.013 76.9768 168.961C76.7667 168.463 76.8285 167.831 76.8285 167.293C77.3277 162.88 78.3823 158.593 80.5384 154.751C81.5186 152.833 82.4663 151.107 83.4947 149.234C83.7851 148.704 84.2717 148.225 84.9781 148.051C85.4982 148.021 85.9988 148.142 86.3859 148.349L86.3856 148.349ZM92.8629 148.619C93.242 149.253 92.8764 149.952 92.704 150.559C91.1998 154.767 88.3869 158.25 86.1275 162.084C84.1931 165.233 82.9275 168.73 81.6394 172.15C81.1936 173.177 81.0333 174.318 80.4924 175.294C80.448 175.399 80.3098 175.336 80.2151 175.363C79.8828 175.083 79.9256 174.683 79.8473 174.328C80.1027 170.047 81.753 166.18 83.3028 162.316C85.2425 158.008 87.843 153.894 89.6107 149.44C89.8569 148.878 90.3433 148.19 91.094 147.979C91.8462 147.865 92.4159 148.137 92.8629 148.619V148.619Z" fill="#F4CA35"/>
</svg>
