<svg width="480" height="320" viewBox="0 0 480 320" fill="none" xmlns="http://www.w3.org/2000/svg">
<path d="M242.562 129.098H252.485V137.999H242.562V129.098ZM242.563 143.176H252.485V180.604H242.563V143.176ZM267.588 149.158H267.807C270.069 144.926 272.622 142.737 277 142.737C278.093 142.737 278.751 142.811 279.334 143.029V151.711H279.115C272.623 151.055 267.953 154.484 267.953 162.363V180.603H258.03V143.175H267.588V149.158ZM298.667 129.098H308.589V137.999H298.667V129.098ZM298.667 143.176H308.59V180.604H298.667V143.176ZM323.837 148.282H324.055C326.609 144.27 330.037 142.154 335.144 142.154C342.879 142.154 348.058 147.99 348.058 156.162V180.603H338.137V157.621C338.137 153.608 335.801 150.763 331.643 150.763C327.266 150.763 324.055 154.265 324.055 159.372V180.603H314.134V143.175H323.837V148.282H323.837ZM352.143 161.853C352.143 150.763 359.657 142.154 370.601 142.154C382.639 142.154 389.059 151.347 389.059 164.698H361.919C362.649 170.461 365.859 174.037 371.477 174.037C375.343 174.037 377.605 172.286 378.699 169.44H388.476C387.09 176.08 381.18 181.698 371.55 181.698C359.147 181.698 352.143 173.015 352.143 161.853ZM362.065 157.84H378.699C378.407 153.097 375.27 149.814 370.747 149.814C365.493 149.814 362.94 152.952 362.065 157.84ZM391.345 168.491H400.537C401.195 172.796 404.258 174.693 408.709 174.693C413.087 174.693 415.568 173.015 415.568 170.389C415.568 166.814 410.825 166.449 405.718 165.428C399.006 164.115 392.439 162.291 392.439 154.119C392.439 146.021 399.152 142.154 407.688 142.154C417.537 142.154 423.009 147.042 423.739 154.557H414.765C414.327 150.545 411.773 149.085 407.542 149.085C403.675 149.085 401.121 150.545 401.121 153.244C401.121 156.454 406.083 156.746 411.409 157.841C417.683 159.154 424.615 160.905 424.615 169.66C424.615 177.175 418.194 181.698 408.855 181.698C397.984 181.698 391.929 176.445 391.345 168.491ZM219.151 129.098H207.603L186.723 180.603H198.542L202.409 170.024H223.713L227.652 180.603H239.545L219.151 129.098ZM205.254 161.342L212.915 139.454L220.794 161.341H205.254V161.342ZM283.2 129.098H293.123V180.603H283.2V129.098Z" fill="#747679"/>
<path d="M173.846 160.013C173.846 192.735 147.346 219.231 114.633 219.231C81.9163 219.231 55.3848 192.735 55.3848 160.013C55.3848 127.291 81.9163 100.77 114.633 100.77C147.346 100.77 173.846 127.291 173.846 160.013Z" fill="#BED600"/>
<path d="M110.318 129.098C100.988 129.098 94.9358 129.613 90.5545 131.24C83.1919 134.108 78.1072 140.119 78.1072 148.019C78.1072 154.598 81.1709 159.363 90.0371 164.844C99.4972 170.578 101.385 172.474 101.385 175.929C101.385 179.711 97.6789 184.016 88.1445 184.016C84.8167 184.016 79.8043 183.556 76.6015 182.772L75.0732 182.387C74.2207 184.672 72.2854 190.079 71.6953 192.04L73.2085 192.485C76.0896 193.404 82.9269 194.122 87.8256 194.122C104.122 194.122 113.845 184.277 113.845 173.967C113.845 167.632 110.969 162.817 101.248 156.752C96.3722 153.752 93.8873 151.807 92.3782 150.302C91.155 148.73 91.0196 147.56 91.0196 146.325C91.0196 145.145 91.2821 143.785 92.0598 142.789C92.901 141.558 94.4439 140.774 96.5322 140.127C98.6786 139.414 102.655 139.396 108.849 139.396H114.616L118.734 129.098H110.318V129.098ZM153.902 129.098H124.921L120.803 139.395H130.409C136.873 139.395 138.116 139.256 139.739 139.256C137.396 144.616 123.274 180.604 123.274 180.604H135.226C135.226 180.604 153.105 135.805 155 131.109C155.525 130.061 155.264 129.098 153.902 129.098Z" fill="white"/>
</svg>
