<svg width="480" height="320" viewBox="0 0 480 320" fill="none" xmlns="http://www.w3.org/2000/svg">
<path d="M249.052 121.088C249.695 119.889 251.379 119.889 252.442 120.555C252.907 124.796 252.021 129.082 252.442 133.323C252.442 133.912 252.676 134.477 253.091 134.893C253.507 135.31 254.07 135.544 254.658 135.544C261.062 135.544 267.465 135.544 273.847 135.544C275.221 135.544 277.237 135.544 277.724 133.989C278.212 131.613 277.724 129.104 277.99 126.684C278.655 125.596 280.206 125.995 281.336 126.284C281.725 127.011 281.865 127.846 281.735 128.66C281.336 130.481 281.336 132.368 281.735 134.189C281.839 134.458 281.999 134.703 282.204 134.905C282.409 135.108 282.655 135.265 282.925 135.366C283.195 135.467 283.484 135.509 283.771 135.49C284.059 135.471 284.339 135.391 284.593 135.255C285.591 134.966 285.657 133.789 285.834 133.034C285.771 130.857 285.83 128.677 286.012 126.506C286.528 126.212 287.112 126.058 287.707 126.058C288.301 126.058 288.885 126.212 289.402 126.506C289.756 128.882 289.402 131.28 289.535 133.678C289.628 134.154 289.875 134.585 290.236 134.907C290.597 135.229 291.054 135.424 291.536 135.461C292.018 135.499 292.499 135.378 292.906 135.116C293.313 134.854 293.623 134.466 293.789 134.011C294.498 131.547 293.324 128.904 294.21 126.484C294.695 126.148 295.271 125.968 295.861 125.968C296.451 125.968 297.026 126.148 297.512 126.484C297.689 128.838 297.379 131.191 297.667 133.545C297.742 134.028 297.974 134.472 298.326 134.809C298.679 135.146 299.132 135.358 299.617 135.41C301.832 135.41 304.048 135.521 306.264 135.41C307.394 135.41 308.812 135.277 309.189 133.945C309.455 130.059 309.189 126.129 309.189 122.221C309.189 121.266 309.698 120 310.784 120C311.87 120 312.49 120 313 120.755C313 123.264 313 125.751 313 128.26C312.535 130.969 313.576 133.878 312.269 136.432C311.742 137.254 310.995 137.913 310.114 138.333C309.233 138.753 308.253 138.917 307.283 138.808C304.669 138.808 302.076 138.808 299.484 138.808C298.017 138.779 296.613 138.21 295.539 137.209C294.38 138.272 292.856 138.844 291.285 138.808C289.867 138.686 288.518 138.145 287.407 137.253C286.568 138.043 285.511 138.563 284.373 138.745C283.236 138.927 282.07 138.763 281.026 138.275C280.361 138.053 279.94 137.342 279.275 137.253C278.657 137.82 277.928 138.252 277.135 138.523C276.342 138.794 275.502 138.899 274.667 138.83C267.798 138.83 260.951 138.941 254.082 138.83C252.643 138.84 251.258 138.281 250.226 137.276C249.031 138.311 247.507 138.885 245.928 138.896C243.5 139.179 241.04 138.882 238.748 138.03C237.441 137.253 238.017 135.166 239.169 134.611C239.945 135.136 240.871 135.394 241.806 135.344C242.116 131.946 241.518 128.505 241.939 125.107C242.427 123.686 244.421 123.708 245.44 124.552C245.44 128.216 245.44 131.88 245.44 135.521C246.459 135.521 247.767 135.321 248.099 134.189C249.384 129.859 248.52 125.44 249.052 121.088Z" fill="#037C97"/>
<path d="M315.474 120.446C315.852 120.155 316.29 120 316.737 120C317.184 120 317.621 120.155 318 120.446C318 126.638 318 132.808 318 139C317.03 139 316.06 139 315.089 139C314.925 134.136 315.089 129.205 315.089 124.319C315.089 123.058 314.723 121.527 315.474 120.446Z" fill="#037C97"/>
<path d="M227.133 128.818C227.643 127.921 228.385 127.184 229.279 126.689C230.173 126.193 231.183 125.959 232.199 126.01C234.599 125.875 237.687 127.052 237.931 129.86C238.088 131.979 237.976 134.111 237.598 136.201C237.069 137.159 236.268 137.933 235.301 138.422C234.335 138.91 233.246 139.091 232.177 138.941C231.169 139.045 230.153 138.829 229.27 138.323C228.387 137.816 227.679 137.043 227.244 136.11C226.6 134.932 227.022 133.461 226.267 132.351C226.002 132.059 225.667 131.842 225.295 131.724C224.923 131.606 224.526 131.589 224.146 131.676C223.765 131.764 223.414 131.951 223.127 132.221C222.84 132.49 222.628 132.832 222.512 133.211C222.512 134.978 222.512 136.767 222.512 138.533C221.983 138.811 221.401 138.968 220.807 138.996C220.213 139.023 219.62 138.919 219.068 138.692C219.001 137.719 219.001 136.743 219.068 135.77C218.889 134.203 219.064 132.616 219.579 131.128C220.148 130.145 220.997 129.361 222.012 128.88C223.028 128.399 224.163 128.243 225.267 128.433C225.879 128.608 226.503 128.737 227.133 128.818ZM231.577 129.475C231.287 129.555 231.025 129.716 230.821 129.94C230.616 130.164 230.478 130.443 230.422 130.743C230.422 131.921 230.422 133.121 230.422 134.298C230.596 134.706 230.892 135.046 231.268 135.271C231.644 135.496 232.08 135.594 232.514 135.552C232.948 135.509 233.357 135.328 233.684 135.033C234.01 134.739 234.237 134.347 234.332 133.913C234.199 132.668 234.621 131.287 234.043 130.132C233.753 129.791 233.369 129.547 232.942 129.43C232.514 129.313 232.062 129.329 231.644 129.475H231.577Z" fill="#037C97"/>
<path d="M384.306 129.099C384.673 128.795 385.041 129.262 385.286 129.543C386.601 130.926 387.841 132.4 389 133.956C388.735 135.03 387.714 135.637 387.082 136.431C386.302 137.393 385.433 138.254 384.49 139C383.761 138.364 383.078 137.661 382.449 136.898C381.574 136.068 380.755 135.162 380 134.19C380.245 133.372 380.939 132.882 381.429 132.251C382.449 131.247 383.265 130.056 384.306 129.099Z" fill="#037C97"/>
<path d="M85.6977 121.689C85.9893 121.399 86.3367 121.165 86.7209 121C87.093 123.655 87.093 126.345 86.7209 129C86.5527 128.681 86.3202 128.398 86.0368 128.165C85.7535 127.932 85.4248 127.755 85.0698 127.644C84.2378 127.725 83.4393 128 82.7442 128.444C82.3953 128.222 82.093 127.978 81.7674 127.733C81.5581 128.044 81.3721 128.356 81.186 128.667V127.867L80.4651 128.089L80 127.244C81.8372 125.444 83.7907 123.533 85.6977 121.689Z" fill="#87B03B"/>
<path d="M345.5 128.919C345.938 128.177 346.531 127.54 347.237 127.051C347.943 126.563 348.747 126.234 349.591 126.087C350.436 125.94 351.303 125.98 352.131 126.202C352.959 126.425 353.73 126.825 354.389 127.376C355.214 128.244 355.857 129.271 356.278 130.395C362.523 146.271 368.634 162.191 374.79 178.09C374.946 178.469 375.016 178.879 374.997 179.289C374.977 179.699 374.868 180.1 374.677 180.463C374.486 180.826 374.218 181.142 373.892 181.389C373.566 181.635 373.19 181.807 372.79 181.891C371.015 182.036 369.232 182.036 367.457 181.891C365.923 178.067 364.768 174.02 363.368 170.107C363.03 168.446 362.263 166.903 361.145 165.635C360.367 164.919 359.234 165.076 358.278 164.875C352.478 164.875 346.678 164.718 340.922 165.053C338.411 165.277 337.789 168.162 337.1 170.152C335.7 174.02 334.677 178.023 333.033 181.824C331.605 181.913 330.172 181.913 328.744 181.824C328.108 181.82 327.493 181.596 327.003 181.188C326.513 180.781 326.178 180.215 326.055 179.588C325.788 178.313 326.566 177.173 326.877 175.988C331.744 163.466 336.722 150.989 341.744 138.333C342.798 135.118 344.052 131.974 345.5 128.919ZM349.945 137.326C349.209 138.1 348.675 139.045 348.389 140.077C346.678 144.862 344.945 149.625 343.144 154.365C342.591 155.598 342.282 156.927 342.233 158.278C342.789 159.53 344.456 159.441 345.545 159.508C349.1 159.508 352.656 159.508 356.212 159.508C357.389 159.508 358.745 158.502 358.323 157.272C356.323 150.922 353.878 144.772 351.656 138.511C351.367 137.774 350.634 136.924 349.922 137.326H349.945Z" fill="#729A40"/>
<path d="M203.666 127.298C204.718 127.017 205.82 126.934 206.907 127.053C207.995 127.172 209.046 127.491 210 127.992C210 145.596 210 163.201 210 180.805C209.046 180.992 208.068 181.045 207.097 180.962C205.105 180.715 203.066 180.962 201.075 180.805C200.907 175.698 201.075 170.592 201.075 165.485C201.075 153.906 201.075 142.349 201.075 130.792C201.022 130.022 201.25 129.259 201.72 128.625C202.19 127.991 202.876 127.523 203.666 127.298Z" fill="#729A40"/>
<path d="M383.555 142.125C385.372 141.841 387.227 142.044 388.953 142.716C389.059 155.796 388.953 168.921 388.953 182C386.36 182 383.746 182 381.153 182L381.047 181.795C381.047 169.762 380.941 157.752 381.047 145.741C380.984 144.915 381.203 144.093 381.664 143.427C382.126 142.762 382.798 142.299 383.555 142.125Z" fill="#729A40"/>
<path d="M264.813 146.459C268.634 143.75 273.317 142.568 277.954 143.141C281.674 143.435 285.178 145.02 287.871 147.624C288.449 148.207 289.116 149.081 290.094 148.768C291.25 148.005 292.051 146.795 293.229 146.033C296.62 143.794 300.668 142.79 304.703 143.186C308.404 143.312 311.963 144.649 314.842 146.997C316.78 148.759 318.073 151.128 318.511 153.721C318.764 155.257 318.927 156.806 319 158.361C319 165.086 319 171.989 319 178.803C319 179.722 318.711 180.91 317.577 180.91C315.353 181.112 313.13 180.91 310.906 180.91L310.64 180.619C310.64 173.895 310.64 167.17 310.64 160.446C310.878 157.863 310.192 155.279 308.705 153.161C307.828 152.323 306.794 151.67 305.665 151.237C304.535 150.805 303.332 150.603 302.124 150.642C300.917 150.682 299.729 150.963 298.629 151.468C297.53 151.973 296.541 152.694 295.72 153.587C294.378 155.344 293.672 157.511 293.719 159.728C293.719 166.184 293.719 172.647 293.719 179.117C293.719 180.35 292.585 180.955 291.495 180.955C289.805 180.955 288.137 180.955 286.47 180.955C286.263 180.974 286.055 180.948 285.859 180.878C285.664 180.808 285.485 180.697 285.336 180.552C285.225 173.827 285.336 167.103 285.336 160.378C285.425 158.921 285.202 157.462 284.68 156.1C284.158 154.738 283.35 153.506 282.312 152.488C281.207 151.652 279.933 151.071 278.58 150.788C277.227 150.505 275.829 150.527 274.485 150.852C273.36 151.044 272.297 151.504 271.384 152.194C270.471 152.885 269.735 153.785 269.238 154.82C268.448 156.819 268.113 158.971 268.259 161.118C268.259 167.349 268.437 173.581 268.259 179.79C267.659 181.291 265.591 180.866 264.324 180.866C262.945 180.507 260.744 181.448 260.099 179.745C259.876 177.503 260.099 175.262 260.099 173.02C260.099 167.641 260.099 162.239 260.099 156.859C260.099 154.886 260.52 152.937 261.334 151.142C262.147 149.348 263.333 147.751 264.813 146.459Z" fill="#729A40"/>
<path d="M71 137.701L80.4965 128L80.9466 128.874L81.6442 128.644V129.471C81.8242 129.149 82.0042 128.828 82.2067 128.506C82.5218 128.759 82.8143 129.011 83.1519 129.241C83.8245 128.782 84.5972 128.498 85.4022 128.414C85.7458 128.529 86.0638 128.712 86.338 128.952C86.6122 129.193 86.8372 129.486 87 129.816C86.6262 132.623 85.8687 135.362 84.7496 137.954C84.5744 137.768 84.3648 137.62 84.1331 137.517C83.9013 137.415 83.652 137.36 83.3994 137.356C81.5316 137.356 79.6864 137.356 77.8186 137.356C77.2785 137.356 76.8734 137.793 76.4233 138C75.4001 137.862 74.3636 137.862 73.3404 138C73.0253 137.816 72.7553 137.586 72.4402 137.379C71.9742 137.544 71.4908 137.652 71 137.701Z" fill="#93B739"/>
<path d="M115.531 132.483C119.687 130.029 124.468 128.833 129.292 129.041C134.919 128.773 140.532 129.813 145.689 132.078C147.535 133.136 149.765 134.8 149.472 137.207C149.332 138.126 149.004 139.005 148.508 139.791C148.012 140.577 147.359 141.252 146.589 141.774C145.981 141.662 145.598 141.077 145.103 140.762C141.307 138.402 136.994 136.998 132.535 136.668C128.594 136.443 124.314 136.263 120.868 138.467C120.128 138.961 119.51 139.618 119.062 140.386C118.613 141.155 118.346 142.016 118.281 142.903C118.216 143.79 118.354 144.68 118.686 145.506C119.017 146.332 119.532 147.071 120.193 147.668C123.387 149.601 126.988 150.764 130.711 151.065C135.891 152.033 141.319 152.707 145.959 155.407C147.577 156.305 148.953 157.58 149.973 159.123C150.992 160.666 151.624 162.432 151.815 164.271C152.397 167.923 151.594 171.662 149.562 174.754C146.962 178.157 143.16 180.441 138.932 181.143C132.214 182.475 125.279 182.252 118.661 180.49C115.487 179.837 112.472 178.568 109.787 176.756C108.436 175.586 109.089 173.584 109.787 172.257C110.387 171.124 111.188 170.11 112.152 169.265C118.977 173.335 126.967 175.013 134.855 174.034C136.19 173.948 137.489 173.566 138.658 172.916C139.826 172.267 140.836 171.365 141.612 170.277C142.18 169.178 142.429 167.942 142.329 166.71C142.23 165.477 141.786 164.297 141.049 163.303C139.991 162.244 138.681 161.47 137.242 161.054C132.468 159.546 127.4 159.344 122.558 158.107C118.711 157.404 115.156 155.589 112.332 152.887C111.121 151.501 110.207 149.881 109.645 148.129C109.084 146.376 108.887 144.528 109.066 142.697C109.286 140.612 109.983 138.607 111.104 136.836C112.225 135.064 113.74 133.575 115.531 132.483Z" fill="#739A41"/>
<path d="M404.04 144.767C407.193 143.67 410.511 143.097 413.857 143.072C417.218 142.812 420.597 143.26 423.766 144.388C424.573 144.61 425.303 145.046 425.874 145.648C426.444 146.25 426.834 146.995 427 147.801V149.607C426.581 150.631 425.917 151.541 425.064 152.262C423.602 151.525 422.078 150.913 420.508 150.433C416.762 149.577 412.866 149.577 409.12 150.433C407.731 150.735 406.473 151.454 405.522 152.489C404.571 153.525 403.973 154.826 403.812 156.21C403.539 158.25 403.425 160.308 403.471 162.366C403.334 168.857 403.585 175.326 403.471 181.816C401.694 181.816 399.917 181.816 398.164 181.816C397.156 181.986 396.131 182.038 395.111 181.973C394.861 174.5 395.111 167.006 395.111 159.511C394.893 156.122 395.684 152.743 397.389 149.786C399.005 147.463 401.335 145.705 404.04 144.767Z" fill="#739A41"/>
<path d="M170.439 143.161C175.237 142.68 180.082 143.278 184.619 144.911C186.209 145.535 187.658 146.47 188.883 147.66C190.108 148.849 191.084 150.271 191.754 151.841C192.658 154.473 193.077 157.247 192.988 160.028C192.988 166.756 192.988 173.664 192.988 180.482C192.988 180.482 192.831 180.796 192.764 180.908C185.535 182.021 178.2 182.284 170.91 181.693C167.01 181.453 163.314 179.868 160.454 177.208C159.206 175.509 158.403 173.526 158.117 171.438C157.831 169.351 158.071 167.225 158.816 165.253C159.333 163.833 160.174 162.552 161.272 161.512C162.37 160.473 163.696 159.703 165.143 159.265C170.416 157.403 176.115 157.807 181.613 158.121C182.59 158.288 183.585 158.334 184.574 158.256C184.692 157.177 184.563 156.086 184.198 155.064C183.832 154.043 183.24 153.117 182.465 152.357C180.704 150.898 178.513 150.055 176.228 149.957C173.121 149.562 169.965 149.814 166.961 150.697C165.682 151.101 164.537 151.841 163.303 152.335C162.404 151.626 161.787 150.622 161.561 149.5C161.335 148.378 161.515 147.213 162.069 146.212C164.089 143.879 167.522 143.453 170.439 143.161ZM171.493 164.244C170.42 164.357 169.401 164.772 168.556 165.443C167.711 166.113 167.074 167.011 166.721 168.03C166.368 169.049 166.313 170.148 166.562 171.197C166.811 172.247 167.354 173.204 168.128 173.956C169.903 175.135 171.987 175.766 174.118 175.772C177.622 176.182 181.169 176.015 184.619 175.279C184.855 171.776 184.855 168.262 184.619 164.76C184.14 164.529 183.623 164.384 183.093 164.334C179.253 163.723 175.343 163.693 171.493 164.244Z" fill="#739A41"/>
<path d="M223.251 144.552C227.719 142.978 232.523 142.593 237.187 143.435C241.368 143.76 245.322 145.458 248.426 148.262C250.917 151.39 252.165 155.319 251.933 159.302C252.022 166.006 252.022 172.71 251.933 179.414C251.933 179.861 252.09 180.509 251.663 180.845C245.477 181.79 239.216 182.156 232.961 181.94C228.465 181.582 223.813 180.934 220.261 178.073C219.154 177.061 218.289 175.814 217.729 174.426C217.169 173.038 216.928 171.543 217.024 170.051C216.924 168.547 217.136 167.04 217.646 165.621C218.157 164.203 218.955 162.904 219.991 161.805C222.598 159.705 225.793 158.456 229.14 158.229C233.941 157.953 238.756 158.013 243.548 158.408C243.645 157.074 243.391 155.738 242.812 154.532C242.233 153.325 241.348 152.289 240.244 151.525C237.659 150.33 234.818 149.785 231.972 149.938C228.57 149.956 225.229 150.832 222.262 152.486C221.528 151.918 220.974 151.153 220.663 150.282C220.353 149.411 220.299 148.47 220.508 147.569C220.693 146.887 221.038 146.257 221.514 145.733C221.991 145.208 222.586 144.804 223.251 144.552ZM226.78 165.984C226.268 166.561 225.878 167.234 225.633 167.964C225.388 168.694 225.293 169.466 225.354 170.233C225.415 171 225.63 171.747 225.987 172.43C226.344 173.112 226.835 173.717 227.431 174.207C228.815 174.979 230.347 175.452 231.927 175.593C235.811 176.082 239.749 175.954 243.593 175.213C243.593 171.704 243.593 168.196 243.593 164.665C239.975 163.901 236.266 163.661 232.579 163.95C230.472 163.967 228.431 164.683 226.78 165.984Z" fill="#739A41"/>
<path d="M70.8963 136.328C71.446 136.305 71.9906 136.203 72.5166 136.026C72.8361 136.252 73.11 136.503 73.4295 136.704C74.4671 136.553 75.5183 136.553 76.556 136.704C77.0124 136.478 77.4232 135.976 77.971 136.001C79.8651 136.001 81.7365 136.001 83.6307 136.001C83.8868 136.005 84.1397 136.065 84.3747 136.177C84.6097 136.289 84.8222 136.451 85 136.654C83.6888 140.1 81.8345 143.264 79.5228 146C79.2953 145.479 79.0361 144.975 78.7469 144.493L78.1763 144.769C77.0382 144.555 75.8721 144.607 74.7531 144.92C74.2054 144.92 73.7261 144.493 73.2012 144.518C72.9001 144.903 72.6183 145.305 72.3568 145.724C71.8548 144.769 70.7822 144.668 69.8921 144.493C69.6183 144.719 69.3672 144.995 69.1162 145.221C68.8001 144.917 68.3947 144.75 67.9751 144.75C67.5555 144.75 67.1501 144.917 66.834 145.221L66.2863 144.241C65.9896 144.568 65.7158 144.92 65.4191 145.221L64.8714 144.719C64.278 144.97 63.7988 145.472 63.2282 145.749L63 145.07C65.6245 142.181 68.2261 139.217 70.8963 136.328Z" fill="#A8C334"/>
<path d="M65.3274 145.7C65.615 145.484 65.8805 145.233 66.1681 145L66.6991 145.7C67.0055 145.483 67.3985 145.363 67.8053 145.363C68.2121 145.363 68.6051 145.483 68.9115 145.7C69.1549 145.538 69.3982 145.341 69.6637 145.179C70.5265 145.305 71.5664 145.377 72.0531 146.058C72.3065 145.759 72.5798 145.472 72.8717 145.197C73.3805 145.197 73.8451 145.448 74.3761 145.484C75.4609 145.261 76.5914 145.224 77.6947 145.377L78.2478 145.179C78.5281 145.524 78.7794 145.884 79 146.256C78.0708 147.045 77.1195 147.816 76.1681 148.57C75.4513 148.48 74.7566 148.299 74.1106 148.031C73.6903 148.283 73.469 148.713 73.0708 149C73.0708 148.803 72.9159 148.426 72.8717 148.247C72.7801 148.468 72.6692 148.684 72.5398 148.892C71.739 148.601 70.875 148.442 69.9978 148.424C69.1206 148.405 68.2475 148.528 67.4292 148.785C67.1117 148.661 66.7639 148.596 66.4115 148.596C66.0591 148.596 65.7113 148.661 65.3938 148.785C63.2715 148.561 61.1223 148.561 59 148.785C60.2979 147.709 61.6254 146.632 62.9823 145.556L63.2035 146.04C63.7566 145.843 64.2212 145.484 64.7965 145.305L65.3274 145.7Z" fill="#BDCF2E"/>
<path d="M74.8631 148C75.534 148.329 76.2554 148.553 77 148.663C74.4724 151.116 71.9219 153.547 69.4173 156C63.6661 154.917 57.7512 154.917 52 156V155.801C54.5046 153.591 56.7564 151.271 59.1691 149.039C61.3734 148.763 63.6055 148.763 65.8097 149.039C66.1395 148.886 66.5007 148.807 66.8667 148.807C67.2327 148.807 67.594 148.886 67.9237 149.039C68.7736 148.722 69.6804 148.571 70.5915 148.594C71.5026 148.616 72.3999 148.813 73.2316 149.171C73.3269 148.911 73.4036 148.646 73.4614 148.376C73.4614 148.597 73.6222 149.061 73.6682 149.304C74.0818 148.84 74.3116 148.376 74.8631 148Z" fill="#C8D62B"/>
<path d="M92.9281 152C94.0052 153.266 95.0305 154.601 96 156C94.4963 154.864 92.7366 154.397 91 154.674C91.5552 153.687 92.2026 152.789 92.9281 152Z" fill="#C8D62B"/>
<path d="M82 156C84.6211 153.302 87.2423 150.628 89.933 148C90.3466 148.258 90.7086 148.592 91 148.985C88.8892 151.097 86.8711 153.302 84.6675 155.343L85.8273 155.46C84.5837 155.825 83.2948 156.007 82 156Z" fill="#9EBD36"/>
<path d="M85 154.891C87.0375 153 88.9035 150.957 90.8552 149C91.6068 149.633 92.3228 150.308 93 151.022C92.0477 151.849 91.1979 152.791 90.4692 153.826C89.0536 154.196 87.5737 154.587 86.1796 155L85 154.891Z" fill="#B3C931"/>
<path d="M85.8401 155.346C87.3802 154.903 88.9663 154.483 90.4374 154.087C92.8804 153.776 95.3559 154.301 97.4713 155.579L98 156.231C95.9542 156.068 93.9314 156.581 91.8856 156.511C88.7594 156.511 85.6332 156.697 82.53 157C82.425 156.957 82.3296 156.893 82.2495 156.811C82.1693 156.73 82.1059 156.634 82.0631 156.527C82.0202 156.421 81.9988 156.307 82.0001 156.192C82.0013 156.077 82.0252 155.964 82.0703 155.858C83.3446 155.87 84.614 155.698 85.8401 155.346Z" fill="#0F6A85"/>
<path d="M74.5878 177.217C74.9844 177.107 75.4047 177.104 75.8032 177.207C76.2017 177.31 76.5632 177.516 76.8483 177.802C77.2326 177.563 77.5265 177.087 78.0239 177.152C78.5212 177.217 78.702 177.563 79.0411 177.758C79.3802 177.563 79.6741 177.325 80.0132 177.13C80.3523 176.935 80.7592 177.585 81.1435 177.802C82.0477 176.762 83.4041 177.368 84.5344 177.368C84.8961 177.52 85.1899 177.368 85.3708 177C86.7645 181.195 87.2717 185.615 86.8628 190H86.4785C82.2964 186.057 78.1821 182.048 74 178.083C74.2713 177.78 74.2713 177.498 74.5878 177.217Z" fill="#0F6A85"/>
<path d="M52 155.872C57.7008 154.709 63.5639 154.709 69.2646 155.872C70.4035 157.297 71.7701 158.531 73 159.884L72.7495 160.81C72.1433 160.305 71.6 159.723 71.1323 159.077C70.9109 159.57 70.6439 160.039 70.3351 160.478L70.0618 159.338C70.0618 159.813 69.9024 160.288 69.7885 160.763C69.1735 160.573 69.3102 159.504 69.0369 158.935C68.718 159.386 68.6497 160.122 68.1258 160.359L67.9436 159.386C67.7614 159.884 67.9436 160.668 67.4197 160.905C67.4197 160.264 67.4197 159.599 67.2831 158.958C67.2831 159.433 67.0781 159.932 66.9642 160.407C66.5087 160.407 66.6453 159.671 66.4403 159.338C66.4403 159.623 66.4403 160.169 66.2809 160.454C65.9848 160.145 65.7115 159.789 65.4154 159.481C65.1649 159.789 64.9371 160.098 64.7093 160.43C64.5386 160.083 64.3865 159.727 64.2538 159.362L64.0716 160.501C63.6611 159.968 63.22 159.46 62.7505 158.982C62.3178 159.599 61.9534 160.264 61.4978 160.905L60.6323 159.908L60.154 160.478L59.5618 159.599L59.0835 159.932L58.6963 159.599C58.4685 160.288 57.9219 159.718 57.5119 159.599C57.322 160.109 57.0527 160.582 56.7148 161C55.1204 159.338 53.5716 157.7 52 156.062V155.872Z" fill="#07A0C2"/>
<path d="M82 156.81C85.2095 156.505 88.4428 156.388 91.6761 156.318C93.792 156.318 95.8841 155.872 98 156.036C95.9317 158.382 93.578 160.564 91.367 162.816C90.8202 163.285 90.3447 164.106 89.5364 163.989C88.7281 163.871 88.3715 163.144 87.8247 162.675C85.899 160.705 83.8306 158.875 82 156.81Z" fill="#0B87A5"/>
<path d="M62.7758 159.021C63.2267 159.445 63.6504 159.895 64.0447 160.368L64.2197 159.358C64.3472 159.681 64.4933 159.998 64.6572 160.305C64.876 160.011 65.0948 159.737 65.3355 159.463C65.6199 159.737 65.8824 160.053 66.1668 160.326C66.1668 160.074 66.2981 159.589 66.32 159.337C66.5169 159.632 66.32 160.221 66.8232 160.284C66.9325 159.863 67.0201 159.421 67.1294 159C67.1294 159.568 67.1294 160.158 67.2607 160.726C67.8077 160.516 67.5889 159.821 67.7639 159.379L68.0483 160.284C68.5515 160.074 68.6171 159.421 68.9234 159.021C69.186 159.526 69.0547 160.474 69.6454 160.642C69.7548 160.221 69.8204 159.8 69.9079 159.379L70.1705 160.389C70.467 160 70.7235 159.584 70.9362 159.147C71.3854 159.72 71.9072 160.236 72.4895 160.684L72.7302 159.863C75.6803 162.488 78.4432 165.302 81 168.284C80.3437 168.579 79.5561 169.042 78.8122 168.474C77.6964 167.737 76.6244 169.189 75.4211 168.474C73.4433 168.312 71.4523 168.383 69.4923 168.684C68.1796 168.537 66.67 167.905 65.598 169C62.7101 166.263 59.866 163.463 57 160.726C57.3477 160.387 57.6358 159.996 57.8532 159.568C58.247 159.568 58.7721 160.158 58.9909 159.568L59.3628 159.863L59.8222 159.568L60.2817 160.389L60.7411 159.884L61.5725 160.768C62.01 160.158 62.3601 159.568 62.7758 159.021Z" fill="#0A8EAD"/>
<path d="M65 169.763C66.1523 168.668 67.7749 169.3 69.1859 169.447C71.2928 169.146 73.4328 169.075 75.5588 169.237C76.7816 169.911 77.9104 168.457 79.2038 169.237C79.9093 169.805 80.7559 169.342 81.5554 169.047C83.497 171.452 84.9974 174.118 86 176.947C85.8119 177.221 85.5062 177.452 85.1299 177.305C83.9071 177.305 82.5431 176.715 81.6025 177.726C81.2027 177.515 80.9205 177.073 80.4267 177.073C79.9328 177.073 79.7682 177.494 79.4155 177.684C79.0627 177.494 78.7335 177.263 78.3572 177.094C77.981 176.926 77.5342 177.494 77.1344 177.726C76.8377 177.448 76.4617 177.248 76.0472 177.148C75.6326 177.047 75.1953 177.051 74.7828 177.157C74.5476 177.431 74.3359 177.705 74.1243 178C71.0202 175.261 68.0336 172.481 65 169.763Z" fill="#0E7C99"/>
</svg>
