<svg width="480" height="320" viewBox="0 0 480 320" fill="none" xmlns="http://www.w3.org/2000/svg">
<path fill-rule="evenodd" clip-rule="evenodd" d="M124.386 147.637H74.9375V178.113H124.386V147.637Z" fill="white"/>
<path fill-rule="evenodd" clip-rule="evenodd" d="M136.672 132.244V187.136H151.6C160.93 186.979 169.172 182.936 169.016 172.674C169.016 162.254 162.796 158.523 157.509 157.746C162.641 156.657 166.684 152.303 166.684 144.84C166.684 137.531 160.152 132.244 153.31 132.244H136.672ZM143.514 160.7V182.314L150.356 182.471C157.82 182.315 161.552 177.65 161.708 171.585C161.708 165.365 157.664 160.7 149.268 160.7H143.514ZM143.514 136.754V155.88H149.578C155.02 155.88 159.686 151.992 159.686 146.083C159.686 140.019 156.11 136.754 149.111 136.754H143.514ZM173.681 149.194H179.901V157.28C183.01 151.837 187.209 147.949 192.03 148.26L192.185 155.103C184.254 154.169 180.056 161.166 179.901 166.609V187.136H173.681V149.194ZM215.665 187.136H221.73V159.301C221.73 153.081 217.843 148.261 208.823 148.105C199.804 148.105 195.45 151.837 195.45 158.835H202.137C202.448 155.103 203.07 151.526 208.823 151.526C214.576 151.682 215.665 156.036 215.665 159.301V165.986C210.223 166.299 204.936 166.299 201.048 168.164C197.161 170.031 194.361 173.295 194.206 178.739C194.051 184.18 199.804 188.068 204.624 188.068C209.446 188.068 213.022 185.114 215.664 182.003L215.665 187.136ZM247.543 187.136H253.607V159.301C253.607 153.081 249.719 148.261 240.7 148.105C231.837 148.105 227.328 151.837 227.483 158.835H234.014C234.325 155.103 235.102 151.526 240.855 151.526C246.609 151.682 247.543 156.036 247.543 159.301V165.986C242.099 166.299 236.968 166.299 233.081 168.164C229.194 170.031 226.239 173.295 226.084 178.739C225.928 184.18 231.682 188.068 236.502 188.068C241.322 188.068 244.9 185.114 247.542 182.003L247.543 187.136ZM215.665 169.563H210.534C208.668 169.719 205.869 170.498 203.848 172.052C201.981 173.606 200.893 175.783 200.893 177.495C200.738 180.916 202.137 183.248 207.424 183.404C212.555 183.404 215.665 177.183 215.665 173.45V169.563ZM247.543 169.563H242.412C240.7 169.719 237.747 170.498 235.879 172.052C234.014 173.606 232.77 175.783 232.77 177.495C232.77 180.916 234.169 183.248 239.301 183.404C244.432 183.404 247.542 177.183 247.542 173.45L247.543 169.563ZM268.69 136.443V149.039H278.797V152.926H268.69V178.116C268.69 184.336 274.287 184.18 278.797 183.559V187.292C276.93 187.447 278.797 187.912 273.51 187.912C268.222 188.068 262.625 186.202 262.625 178.74V152.925H256.094V149.039H262.625V140.174L268.69 136.443ZM283.773 131.934H289.837V158.523C292.636 151.837 296.523 148.105 302.277 148.105C308.807 148.105 312.384 151.837 312.539 159.3V187.136H306.319V161.478C306.319 156.347 304.453 153.236 300.721 153.081C297.456 153.081 292.17 156.813 289.837 166.765V187.136H283.773V131.934ZM356.078 149.194V158.523C358.877 151.837 362.764 148.105 368.519 148.105C375.049 148.105 378.626 151.837 378.781 159.3V187.136H372.561V161.478C372.561 156.347 370.695 153.236 366.963 153.081C363.698 153.081 358.411 156.813 356.078 166.765V187.136H350.014V149.194L356.078 149.194ZM323.425 163.654H345.506C345.193 153.082 340.373 148.261 331.976 148.106C322.023 148.106 316.427 153.703 316.427 166.765C316.427 179.671 321.713 187.913 335.397 188.068C338.973 188.068 342.084 187.292 344.883 186.358V182.782C342.084 183.404 339.284 183.87 336.33 183.558C326.844 183.093 323.425 174.23 323.425 163.654ZM323.268 159.768H339.128C338.508 154.326 336.02 151.682 331.665 151.527C327.157 151.527 323.735 154.637 323.268 159.768ZM405.837 155.414V149.661C403.505 148.728 400.551 148.106 396.664 148.261C387.956 148.261 383.757 151.682 383.757 158.836C383.912 163.654 387.8 166.454 394.021 169.719C398.374 172.051 401.951 173.296 401.951 177.961C401.951 181.538 399.462 183.404 394.176 183.559C390.132 183.559 387.023 182.004 383.911 180.139V186.358C387.178 187.447 390.444 188.068 394.176 188.068C402.261 188.068 408.325 183.87 408.325 175.628C408.325 170.808 404.749 167.854 399.307 165.211C394.797 162.877 390.132 161.012 389.666 157.125C389.511 154.326 391.375 152.304 395.886 152.46C399.307 152.46 402.571 153.548 405.837 155.414V155.414Z" fill="#675B56"/>
<path fill-rule="evenodd" clip-rule="evenodd" d="M126.411 185.425C126.411 185.893 126.255 186.203 125.945 186.513C125.633 186.824 125.322 187.137 124.856 187.137H73.231C72.7643 187.137 72.4526 186.824 72.1425 186.513C71.8309 186.203 71.6758 185.893 71.6758 185.425V133.955C71.6758 133.49 71.8309 133.023 72.1425 132.711C72.4526 132.401 72.7643 132.246 73.231 132.246H124.856C125.321 132.246 125.633 132.401 125.945 132.711C126.255 133.023 126.411 133.49 126.411 133.955L126.411 185.425ZM121.902 158.836C121.902 158.524 121.902 158.524 121.59 158.369C120.501 157.747 119.101 157.436 117.237 157.436C115.215 157.436 113.66 157.902 112.571 158.836C111.483 159.769 110.861 161.012 110.861 162.41C110.861 163.033 111.017 163.499 111.017 163.967C111.949 167.544 112.417 169.564 112.417 169.874C112.417 171.585 111.638 172.364 110.083 172.364C108.529 172.364 107.129 171.585 105.73 170.187H105.418L105.263 170.342C105.263 170.342 105.263 170.964 104.953 171.896C104.953 172.206 105.108 172.364 105.418 172.675C106.818 173.607 108.529 174.23 110.861 174.23C113.038 174.23 114.905 173.607 116.148 172.52C117.237 171.586 117.703 170.341 117.703 168.942V167.699C117.2 165.842 116.734 163.975 116.303 162.1C116.303 161.79 116.148 161.479 116.148 161.324C116.148 159.924 116.925 159.146 118.324 159.146C119.414 159.146 120.346 159.613 121.435 160.235C121.59 160.39 121.59 160.39 121.59 160.235C121.59 160.079 121.745 159.613 121.902 158.836ZM106.197 157.902C106.197 157.747 106.197 157.747 106.042 157.747H101.376C101.221 157.747 101.221 157.747 101.066 157.902L88.3141 173.764C88.159 173.764 88.3141 173.919 88.4691 173.919H90.3352C90.3352 173.919 90.4903 173.919 90.4903 173.764L93.2898 170.342V170.187H97.9547V170.342C97.9547 170.342 97.6445 171.431 97.3321 173.764C97.3321 173.919 97.3322 173.919 97.4887 173.919H102.93C103.086 173.919 103.086 173.919 103.086 173.764L106.197 157.902ZM92.9782 158.836C92.9782 158.524 92.9782 158.524 92.668 158.369C91.4237 157.747 90.0243 157.436 88.3141 157.436C86.2929 157.436 84.7377 157.902 83.6485 158.836C82.5607 159.769 81.9389 161.012 81.9389 162.41C81.9389 163.033 82.094 163.499 82.094 163.967C83.0267 167.544 83.4934 169.564 83.4934 169.874C83.4934 171.585 82.7158 172.364 81.1606 172.364C79.451 172.364 78.0509 171.585 76.6515 170.187C76.4965 170.032 76.4965 170.032 76.3399 170.342C76.3399 170.342 76.1848 170.964 76.0298 171.896C75.8747 172.051 76.0298 172.206 76.3399 172.52C77.74 173.607 79.6061 174.23 81.9389 174.23C84.271 174.23 85.9813 173.607 87.2256 172.52C88.3141 171.431 88.78 170.341 88.78 168.787V167.699C88.159 165.522 87.8474 163.654 87.3814 162.1C87.2256 161.79 87.2256 161.479 87.2256 161.167C87.2256 159.924 88.0024 159.146 89.4025 159.146C90.3352 159.146 91.4237 159.613 92.3571 160.235C92.5122 160.39 92.6673 160.235 92.6673 160.235C92.6673 160.079 92.8231 159.613 92.9782 158.836ZM99.5099 162.41L98.2656 168.631H94.5341C94.5341 168.476 94.5341 168.476 94.6892 168.476L99.3548 162.411H99.5099V162.41Z" fill="#151F88"/>
</svg>
