<svg width="480" height="320" viewBox="0 0 480 320" fill="none" xmlns="http://www.w3.org/2000/svg">
<path d="M413.94 147.012L413.918 147.039C418.901 152.045 422.168 158.8 422.694 166.403C423.868 183.177 411.233 197.713 394.479 198.884C386.597 199.439 379.212 196.934 373.468 192.39L373.443 192.42C379.4 197.96 387.55 201.137 396.313 200.522C413.071 199.359 425.709 184.813 424.542 168.048C423.947 159.57 419.931 152.131 413.94 147.012ZM360.03 181.643C359.052 182.185 358.844 182.995 359.341 184.251C359.796 185.388 360.51 185.889 361.279 185.568C361.891 185.331 361.996 184.799 361.745 183.438L361.634 182.901C361.386 181.545 361.34 180.969 361.504 180.378C361.661 179.72 362.036 179.306 362.61 179.079C363.984 178.521 365.285 179.379 366.059 181.313C366.894 183.402 366.444 184.974 364.813 185.655L364.401 184.631C365.54 184.148 365.832 183.079 365.211 181.566C364.724 180.321 363.927 179.771 363.106 180.105C362.43 180.374 362.282 180.986 362.528 182.396L362.626 182.995L362.707 183.513C362.887 184.551 362.91 184.929 362.81 185.377C362.676 185.93 362.326 186.337 361.752 186.56C360.463 187.076 359.211 186.323 358.51 184.576C357.761 182.678 358.169 181.277 359.616 180.63L360.03 181.643ZM363.914 172.773L363.934 173.905L356.1 174.073L356.07 172.953L359.149 172.883H359.584L359.977 172.878L359.715 172.596L359.443 172.323L355.977 168.566L355.943 167.072L359.163 170.65L363.787 166.764L363.809 168.191L359.898 171.433L361.165 172.835L363.914 172.773ZM362.637 158.483L365.662 159.546L365.296 160.611L362.267 159.546L356.854 161.185L357.304 159.89L360.674 158.946L361.083 158.839C361.25 158.784 361.357 158.768 361.648 158.698C361.386 158.379 361.327 158.313 361.051 157.922L358.979 155.116L359.406 153.874L362.637 158.483ZM363.447 149.572L362.327 148.65L366.821 143.149L367.945 144.061L366.289 146.093L371.236 150.145L370.052 151.601L365.097 147.549L363.447 149.572ZM376.101 141.548L377.073 143.221L381.105 140.855L381.844 142.108L376.179 145.415L372.222 138.643L377.803 135.371L378.538 136.627L374.577 138.948L375.421 140.398L379.055 138.272L379.735 139.428L376.101 141.548Z" fill="#202C5C"/>
<path d="M389.232 135.637C388.8 134.927 388.636 134.599 388.388 134.04C388.32 134.606 388.251 135.018 388.053 135.823L387.733 137.323L390.01 136.954L389.232 135.637ZM393.715 139.683L391.679 139.817L390.658 138.12L387.494 138.629L387.05 140.561L385.096 141.059L387.155 132.483L389.089 132.176L393.715 139.683ZM406.324 142.2L404.672 141.568L405.307 139.231C405.364 138.963 405.468 138.589 405.609 138.105C405.746 137.611 405.859 137.236 405.932 136.947C406.044 136.63 406.134 136.312 406.246 135.966L406.423 135.413C405.964 136.205 405.777 136.48 405.35 137.122C405.184 137.406 405.017 137.639 404.874 137.843L402.649 140.965L401.216 140.583L400.774 136.838C400.737 136.64 400.722 136.378 400.699 136C400.665 135.504 400.649 135.131 400.628 134.874C400.623 134.664 400.623 134.355 400.628 133.92L400.428 134.874C400.202 135.904 400.096 136.346 399.784 137.584L399.131 140.112L397.395 139.837L399.354 132.164L401.996 132.678L402.371 136.312C402.462 137.161 402.485 137.878 402.446 138.881C402.738 138.306 402.847 138.112 403.184 137.584C403.381 137.272 403.586 136.964 403.798 136.66L405.86 133.693L408.365 134.544L406.324 142.2ZM406.144 167.538C408.404 166.009 410.29 165.192 411.46 165.233C412.147 165.253 412.986 165.467 412.986 166.318C412.986 167.201 412.145 167.938 410.506 168.527C409.075 169.046 406.859 169.171 404.453 168.902C405.118 168.307 405.678 167.845 406.144 167.538ZM374.307 170.318C372.908 170.227 372.22 169.661 372.22 168.578C372.22 168.435 372.316 164.99 380.182 164.601C381.079 164.553 382.08 164.519 383.604 164.696L382.717 165.467L382.221 165.913C380.329 167.64 377.149 170.516 374.307 170.318ZM391.329 157.321C390.378 158.15 388.494 159.968 386.671 161.713L384.6 163.691C382.932 163.395 381.241 163.243 379.547 163.236C375.724 163.236 372.22 164.298 370.62 165.939C370.02 166.562 369.712 167.233 369.733 167.945C369.763 169.804 371.883 170.726 372.534 170.976C375.929 172.237 378.768 171.871 381.765 169.773C383.417 168.619 385.403 166.765 386.96 165.265C388.166 165.542 389.534 165.911 391.012 166.334L392.375 166.737C390.609 168.471 388.801 170.295 387.121 171.775L386.993 171.895C384.669 173.948 382.982 175.426 380.55 175.975C378.827 176.346 377.621 175.991 377.219 175.747L377.123 175.824C378.536 176.987 379.87 177.644 382.161 177.442C384.352 177.256 386.874 175.886 389.456 173.458L392.939 170.038L395.383 167.613L400.318 169.06L400.403 169.091L397.349 172.063L394.73 174.671C392.043 177.283 390.582 178.634 389.008 179.743C386.421 181.595 384.188 182.551 382.234 182.68C381.219 182.75 379.756 182.675 378.536 181.968L378.412 182.027C379.736 183.153 381.358 184.518 384.159 184.45C387.324 184.343 390.125 182.823 394.496 178.811C396.483 176.986 398.456 174.941 400.205 173.132L403.448 169.846C405.584 170.321 407.489 170.515 409.601 170.481C412.672 170.408 415.303 168.943 415.33 167.254C415.369 166.008 414.338 165.334 413.728 164.945C413.219 164.613 411.849 163.843 409.947 163.843C407.646 163.843 405.237 164.865 402.8 166.879L401.179 168.314L400.581 168.153L396.069 166.879C397.398 165.634 398.538 164.564 399.552 163.655C402.031 161.459 404.756 160.553 406.358 160.451C407.523 160.373 409.546 160.466 410.381 161.063L410.477 160.978C408.256 159.078 406.33 158.821 404.747 158.821C403.181 158.821 400.68 159.315 397.606 161.693C396.353 162.665 394.73 164.296 393.026 166.014L390.741 165.311L390.195 165.136L387.795 164.405L389.162 163.11C390.776 161.529 392.307 160.03 393.5 159.015C397.827 155.379 400.553 154.903 402.446 154.883C404.524 154.874 406.178 155.304 407.355 156.157L407.443 156.077C405.015 153.872 403.259 153.167 400.241 153.147C397.586 153.126 394.422 154.607 391.329 157.321ZM410.766 136.283C410.912 136.36 411.167 136.538 411.276 136.346C411.34 136.216 411.192 136.105 411.057 136.023L410.728 135.848L410.557 136.167L410.766 136.283ZM410.93 137.339L410.721 137.225L410.664 136.456L410.457 136.338L410.14 136.907L409.968 136.813L410.65 135.573L411.192 135.878C411.41 136.001 411.601 136.171 411.451 136.438C411.314 136.681 411.091 136.677 410.876 136.57L410.93 137.339ZM411.684 136.961C411.98 136.433 411.777 135.762 411.256 135.484C410.729 135.195 410.059 135.37 409.77 135.905C409.481 136.437 409.689 137.099 410.207 137.389C410.721 137.673 411.395 137.495 411.684 136.961ZM409.538 135.932C409.829 135.27 410.576 134.968 411.235 135.252C411.55 135.386 411.799 135.64 411.927 135.957C412.055 136.274 412.051 136.63 411.918 136.945C411.851 137.101 411.755 137.242 411.633 137.36C411.512 137.478 411.368 137.571 411.21 137.633C411.052 137.695 410.883 137.724 410.714 137.72C410.544 137.716 410.377 137.678 410.223 137.609C409.561 137.327 409.258 136.583 409.538 135.932Z" fill="#202C5C"/>
<path d="M180.029 164.609L183.087 161.421L180.029 158.251L176.989 161.421L180.029 164.609ZM161.051 118.227L157.984 121.412L161.052 124.584L164.098 121.412L161.051 118.227ZM172.065 164.609L175.116 161.421L172.065 158.251L168.975 161.421L172.065 164.609ZM169.03 118.227L165.974 121.412L169.03 124.584L172.122 121.412L169.03 118.227ZM237.602 146.851H226.842V146.089C226.842 136.908 233.977 131.315 237.602 130.328V146.851ZM319.717 124.496V146.92C319.717 148.198 319.594 149.275 319.144 150.037C318.59 150.958 317.617 151.73 315.758 151.73C313.899 151.73 312.916 150.959 312.355 150.037C311.899 149.275 311.765 148.198 311.765 146.92V130.737H306.495V146.851H299.901V130.762H294.669V146.851H288.08V130.737H282.844V146.851H262.625C256.792 146.446 255.428 143.331 255.428 140.437C255.428 136.37 259.035 134.801 262.976 134.801H271.558V130.737H263.938C257.742 130.737 252.555 133.285 252.555 139.731C252.555 143.925 254.438 145.827 256.079 146.851H242.809V126.875C231.338 128.3 222.237 136.869 222.237 150.94H237.603V155.89C237.603 157.797 237.816 161.448 235.038 161.97V164.158C236.975 163.949 240.11 162.652 241.493 160.302C242.577 158.477 242.809 156.813 242.809 152.982V150.941H307.16C307.38 151.485 307.658 152.004 307.991 152.488C309.597 154.709 312.439 155.701 315.759 155.701C319.04 155.701 321.857 154.709 323.461 152.488C324.792 150.604 324.942 148.741 324.942 146.474V124.496H319.717L319.717 124.496ZM332.276 124.496H337.476V150.941H332.276V124.496ZM205.55 130.641H198.034V134.744H204.333C209.197 134.744 214.185 134.982 214.185 140.621C214.185 145.636 210.505 146.767 203.932 146.767H191.303V150.86H204.872C213.054 150.86 217.065 148.353 217.065 140.646C217.066 132.887 212.308 130.641 205.55 130.641ZM166.813 146.852H156.129V146.163C156.129 137.036 163.168 131.284 166.813 130.299V146.852ZM180.029 146.852C180.029 148.158 179.885 149.212 179.43 150.001C178.877 150.921 177.924 151.674 176.054 151.674C174.218 151.674 173.228 150.921 172.666 150.001C172.209 149.212 172.065 148.158 172.065 146.852V126.858C159.587 128.037 151.509 137.894 151.509 150.939H167.449C167.679 151.461 167.961 151.959 168.29 152.425C169.878 154.643 172.716 155.64 176.016 155.64C179.347 155.64 182.134 154.643 183.72 152.425C185.083 150.559 185.252 148.705 185.252 146.416V128.97H180.03V146.852H180.029ZM230.099 201.45C224.941 201.45 221.064 200.372 218.681 198.085C216.567 196.121 215.593 193.887 215.593 189.423V170.778H221.184V190.212C221.184 193.074 221.625 194.706 222.996 196.174C224.47 197.764 227.011 198.624 230.1 198.624C233.169 198.624 235.694 197.764 237.174 196.174C238.539 194.706 238.967 193.075 238.967 190.212V170.778H244.596V189.423C244.596 193.887 243.6 196.122 241.506 198.085C239.114 200.372 235.212 201.45 230.099 201.45M266.64 198.206C265.521 198.206 263.084 198.084 262.044 197.237C261.193 196.502 261.172 195.308 261.172 193.51V172.679C269.782 171.914 279.314 174.458 279.314 185.79C279.314 194.861 273.416 198.206 266.64 198.206ZM265.555 170.157C262.8 170.226 256.014 170.523 251.065 171.952L251.529 174.178C252.867 173.803 254.121 173.534 255.57 173.297V200.809C263.491 200.964 266.89 200.937 271.041 200.459C278.322 199.581 285.198 194.108 285.198 185.701C285.198 173.864 274.616 169.98 265.555 170.157ZM292.935 170.78H298.563V200.811H292.935V170.78ZM188.933 187.758C191.795 187.758 197.147 188.142 200.956 191.176L194.112 177.157L188.933 187.758ZM211.928 200.812H205.557C203.309 196.256 197.445 189.651 187.711 190.29L182.587 200.812H178.614L194.305 170.292H196.298L211.928 200.812ZM314.622 187.757C317.487 187.757 322.836 188.149 326.636 191.182L319.801 177.161L314.622 187.757ZM337.615 200.813H331.244C328.993 196.258 323.13 189.659 313.393 190.294L308.271 200.813H304.303L319.983 170.291H321.992L337.615 200.813ZM174.185 171.801C172.574 170.952 168.551 169.708 164.398 169.778C157.06 169.965 152.168 172.957 152.118 178.366C152.086 179.435 152.32 180.794 152.974 181.959C156.523 188.041 171.229 187.042 171.229 193.559C171.229 195.422 169.45 198.482 164.398 198.482C158.906 198.482 154.721 195.945 152.717 194.373L151.27 198.776C152.974 199.654 157.561 201.326 164.146 201.326C167.099 201.326 170.453 200.528 172.908 198.617C175.288 196.749 176.36 194.448 176.36 191.604C176.36 180.823 157.561 183.533 157.561 176.762C157.561 175.642 158.18 174.839 158.398 174.564C159.418 173.242 161.65 172.443 164.472 172.443C167.1 172.443 169.866 173.328 172.613 175.513L174.185 171.801Z" fill="#26265D"/>
<path d="M130.95 178.977L130.843 179.153C124.037 190.992 111.281 198.965 96.6391 198.965C74.8636 198.965 57.211 181.315 57.211 159.541C57.211 152.403 59.1112 145.709 62.4374 139.932L62.5237 139.777L62.4805 139.629L62.3348 139.684L62.2346 139.823C61.6455 140.671 61.0971 141.565 60.5689 142.469C49.7451 161.366 56.4187 185.533 75.4796 196.459C94.5338 207.386 118.77 200.928 129.584 182.04C130.115 181.137 130.602 180.209 131.045 179.259L131.129 179.075L131.083 178.92L130.95 178.977Z" fill="#B09255"/>
<path d="M86.9861 129.068C81.3796 130.263 71.9618 136.029 69.9596 145.599C76.0023 138.463 82.2957 134.716 87.1132 133.84C82.1845 137.528 77.552 146.131 78.9901 152.166C81.5977 145.753 86.1688 139.483 90.3555 137.198C87.9846 141.11 87.2061 150.562 89.4773 154.73C90.0099 149.322 91.7188 142.286 94.4127 138.814L95.2137 145.599H94.2943L95.2612 152.507H94.4942L95.2976 159.415H94.6375L95.6523 166.319L92.387 167.989V168.225H100.899V167.989L97.633 166.319L96.6407 167.087L97.6258 166.319L98.6276 159.415H97.9719L98.7772 152.507H98.0059L98.98 145.599H98.0567L98.8601 138.814C101.556 142.286 103.261 149.322 103.796 154.73C106.071 150.562 105.286 141.11 102.919 137.198C107.109 139.483 111.673 145.754 114.292 152.166C115.723 146.131 111.095 137.528 106.164 133.84C110.981 134.716 117.268 138.463 123.307 145.599C121.316 136.029 111.9 130.263 106.285 129.068C112.465 128.454 118.483 130.433 123.937 133.084C118.01 126.247 109.068 123.762 103.156 124.44C104.153 123.382 105.122 122.82 106.63 122.374C104.13 121.207 100.245 121.819 98.7307 123.516C98.7307 123.516 98.4527 120.344 96.6412 119.098C94.8187 120.344 94.5503 123.516 94.5503 123.516C93.0279 121.819 89.1485 121.207 86.6544 122.374C88.1586 122.82 89.1188 123.382 90.1288 124.44C84.2088 123.762 75.2593 126.247 69.3359 133.084C74.8044 130.433 80.8164 128.454 86.9866 129.068" fill="#B09255"/>
<path d="M98.325 173.15C97.8586 173.457 97.2781 173.848 96.6367 174.288C96.0773 173.905 95.5154 173.525 94.9508 173.15C92.4438 171.466 71.2527 157.286 62.0918 167.318C70.5452 163.964 83.0711 170.297 93.3853 176.513C90.8025 178.279 87.8608 180.306 85.3667 181.999C81.4053 178.158 79.9356 178.773 79.578 178.925C79.1912 179.087 78.918 179.446 78.8998 179.888C78.8931 180.468 79.3389 180.955 79.903 180.971C80.472 180.985 80.9519 180.518 80.961 179.94L80.9384 179.703C82.0352 180.395 83.0548 181.328 85.6169 183.968C88.2198 186.666 89.2327 187.408 89.9991 187.858C90.5269 188.166 91.0643 188.243 91.3941 188.216C91.9309 188.191 92.4683 187.801 92.4932 187.194C92.5248 186.591 92.0766 186.093 91.4942 186.088C90.9238 186.075 90.4382 186.541 90.4382 187.142V187.242C89.7307 186.728 88.9728 185.802 87.4619 184.168C89.945 182.75 93.1049 180.705 96.6367 178.504C100.165 180.705 103.324 182.75 105.807 184.168C104.3 185.802 103.542 186.728 102.828 187.242L102.83 187.142C102.832 187.002 102.805 186.864 102.752 186.735C102.7 186.606 102.621 186.489 102.523 186.391C102.424 186.293 102.306 186.215 102.177 186.163C102.047 186.111 101.909 186.086 101.77 186.088C101.185 186.093 100.741 186.591 100.777 187.194C100.802 187.801 101.332 188.191 101.874 188.216C102.202 188.243 102.737 188.166 103.274 187.858C104.041 187.408 105.05 186.666 107.658 183.968C110.213 181.328 111.242 180.395 112.332 179.703L112.311 179.94C112.327 180.518 112.802 180.985 113.362 180.971C113.926 180.955 114.379 180.468 114.373 179.888C114.364 179.679 114.295 179.478 114.175 179.307C114.055 179.136 113.888 179.004 113.694 178.925C113.337 178.773 111.865 178.158 107.904 181.995C105.412 180.307 102.458 178.279 99.8848 176.514C110.201 170.297 122.73 163.965 131.178 167.319C122.017 157.286 100.828 171.467 98.325 173.15Z" fill="#B09255"/>
<path d="M74.6747 186.362C74.3492 186.218 74.0132 186.032 73.8373 186.007C73.7213 185.993 73.6144 186.019 73.5391 186.1C73.4711 186.184 73.4457 186.362 73.5185 186.505C73.5641 186.61 73.6868 186.805 74.0171 187.092C75.4029 188.296 78.1903 189.372 85.5373 185.263C85.312 185.04 85.0843 184.799 84.8408 184.555C84.3471 184.046 83.9147 183.599 83.5327 183.215C79.6533 185.668 76.5744 187.138 74.6747 186.362ZM118.597 186.362C116.695 187.138 113.619 185.668 109.739 183.215C109.352 183.599 108.929 184.046 108.426 184.555C108.19 184.799 107.958 185.04 107.741 185.263C115.073 189.372 117.869 188.296 119.252 187.092C119.587 186.806 119.705 186.61 119.753 186.505C119.832 186.362 119.808 186.184 119.73 186.1C119.662 186.018 119.558 185.993 119.439 186.007C119.266 186.032 118.929 186.218 118.597 186.362Z" fill="#B09255"/>
</svg>
