<svg width="480" height="320" viewBox="0 0 480 320" fill="none" xmlns="http://www.w3.org/2000/svg">
<path d="M365.672 113.066H101.608C101.608 113.066 55.387 112.664 55.387 117.888C55.387 123.115 158.679 145.219 158.679 145.219L135.775 129.944L365.672 113.066ZM79.5223 170.75C73.0768 169.132 67.1533 168.727 67.1533 162.089C67.1533 155.122 77.0697 153.019 84.3264 153.019C91.6867 153.019 98.6332 155.288 99.0424 161.843H109.777C109.777 150.511 97.4056 146.059 84.8346 146.059C71.0354 146.059 56.4191 150.752 56.4191 163.466C56.4191 176.578 76.6605 178.766 88.8223 180.867C94.9531 181.841 100.886 184.188 100.886 189.854C100.886 198.035 90.6637 199.975 82.283 199.975C72.362 199.975 66.3375 196.9 66.1329 188.643H55.3954C54.9889 201.757 66.2313 206.938 81.6647 206.938C96.5899 206.938 111.613 202.241 111.613 188.965C111.613 174.231 93.1163 174.231 79.5223 170.75M155.872 177.714C155.872 166.377 145.447 163.869 134.917 163.869C124.801 163.869 116.011 167.025 115.5 175.935H125.718C125.821 171.721 130.423 169.455 135.326 169.455C145.652 169.455 146.16 173.586 146.16 180.626H137.372C125.215 180.626 112.436 183.948 112.436 195.361C112.436 203.296 121.426 206.939 130.322 206.939C137.372 206.939 143.096 204.755 146.263 199.655H146.468C146.572 201.514 146.778 203.296 146.981 205.16C147.082 206.13 148.819 205.723 149.743 205.723H156.281C155.977 202.328 155.872 198.926 155.872 197.142L155.872 177.714ZM132.772 201.353C127.049 201.353 122.654 198.845 122.654 193.825C122.654 187.915 130.527 186.212 136.452 185.971H146.16C146.367 193.501 144.22 201.353 132.772 201.353ZM211.59 165.085H200.244L185.937 180.387L172.242 165.085H159.668L178.878 184.433L158.542 205.727H169.785L184.296 189.453L198.917 205.727H211.59L191.456 184.92L211.59 165.085Z" fill="black"/>
<path d="M233.331 163.871C216.468 163.871 207.782 172.776 207.782 185.407C207.782 198.038 216.468 206.94 233.331 206.94C250.196 206.94 258.885 198.038 258.885 185.407C258.885 172.776 250.196 163.871 233.331 163.871ZM233.331 201.355C221.78 201.355 218.001 194.07 218.001 185.407C218.001 176.745 221.78 169.456 233.331 169.456C244.884 169.456 248.665 176.745 248.665 185.407C248.665 194.07 244.884 201.355 233.331 201.355ZM306.078 205.726V177.636C306.078 164.596 290.233 163.872 286.659 163.872C281.544 163.872 274.39 165.977 271.12 171.076H270.915V165.083H261.41V205.726H271.12V183.624C271.12 175.692 273.779 173.91 275.209 172.775C279.296 169.538 284.613 169.779 284.613 169.779C292.791 169.779 296.366 173.423 296.366 180.144V205.725L306.078 205.726ZM360.168 190.506L368.139 205.727H379.285L349.438 147.275H338.501L307.428 205.727H317.958L325.927 190.506H360.168ZM343.507 155.288L356.897 183.543H329.404L343.507 155.288ZM390.466 147.274H378.916V155.613H390.466V147.274ZM379.835 205.726H389.547V165.084H379.834L379.835 205.726ZM421.241 164.518C414.189 164.518 407.647 167.352 406.215 172.938H406.01V165.086H396.303V205.728H406.01V185.566C406.01 176.986 408.159 171.802 420.423 171.48C421.754 171.48 423.284 171.48 424.616 171.884V164.599C423.489 164.599 422.469 164.518 421.24 164.518M363.662 115.074L147.674 133.153L163.155 144.015L363.662 115.074Z" fill="black"/>
</svg>
