<svg width="480" height="320" viewBox="0 0 480 320" fill="none" xmlns="http://www.w3.org/2000/svg">
<path fill-rule="evenodd" clip-rule="evenodd" d="M74.8853 115.914L113.749 115.901C101.663 126.744 94.0593 142.484 94.0593 160C94.0593 162.054 94.1637 164.085 94.368 166.085H72.1168C65.1779 148.381 57.6577 128.874 56.2198 125.3C53.5884 118.755 57.4832 115.914 63.6051 115.914H74.8852L74.8853 115.914ZM192.785 115.876L415.51 115.809C423.002 115.809 425.958 120.765 424.053 125.625C423.005 128.301 414.629 148.167 407.019 166.085H212.193C212.4 164.063 212.503 162.032 212.503 160C212.503 142.471 204.887 126.72 192.785 115.876H192.785ZM405.271 170.199C399.778 183.115 395.041 194.162 394.31 195.664C392.513 199.356 390.617 202.935 379.443 202.935H194.071C203.087 194.367 209.408 182.986 211.627 170.199H405.271ZM112.492 202.935H104.418C91.4365 202.935 86.9108 200.83 84.3852 196.295C83.3467 194.432 78.8508 183.218 73.7317 170.199H94.9341C97.1544 182.986 103.474 194.367 112.492 202.935Z" fill="#E31D1A"/>
<path d="M153.28 105.918C183.148 105.918 207.36 130.129 207.36 159.998C207.36 189.866 183.148 214.078 153.28 214.078C123.413 214.078 99.2012 189.866 99.2012 159.998C99.2012 130.129 123.413 105.918 153.28 105.918Z" fill="#E31D1A"/>
<path fill-rule="evenodd" clip-rule="evenodd" d="M186.514 164.875C186.514 164.875 184.22 159.903 179.663 157.348C175.104 154.794 168.893 154.593 168.893 154.593C168.893 154.593 154.109 162.316 146.436 169.765C138.765 177.215 134.984 185.333 134.984 185.333C134.984 185.333 130.759 182.108 130.814 180.553C130.87 178.997 138.149 169.821 145.154 164.486C152.161 159.15 162.724 154.759 162.724 154.759C162.724 154.759 149.879 155.593 136.038 163.375C122.198 171.159 110.801 184.222 110.801 184.222C110.801 184.222 116.025 173.495 132.924 162.82C149.823 152.145 162.535 150.992 171.764 151.918C186.16 153.362 186.514 164.875 186.514 164.875V164.875ZM168.713 147.497C169.52 147.02 168.135 144.872 166.395 144.788C164.656 144.704 162.381 145.718 162.381 145.718C162.381 145.718 167.905 147.973 168.713 147.497ZM181.559 143.094C182.437 142.764 181.446 140.407 179.747 140.024C178.048 139.639 175.634 140.243 175.634 140.243C175.634 140.243 180.681 143.424 181.559 143.094ZM179.812 151.164C179.812 151.164 178.833 148.976 176.158 147.28C173.484 145.584 170.893 144.779 170.893 144.779L170.464 141.471C170.464 141.471 155.993 137.446 140.056 141.874C124.119 146.301 112.296 156.026 112.296 156.026C112.296 156.026 123.139 143.141 144.515 136.379C165.89 129.616 183.637 135.227 184.387 136.206C185.134 137.184 185.397 139.916 186.401 140.147C187.405 140.377 191.148 140.723 193.304 143.743C195.46 146.762 194.341 151.279 194.341 151.279C194.341 151.279 190.688 149.065 186.458 149.353C182.229 149.641 179.812 151.164 179.812 151.164ZM348.32 192.632L348.436 190.795C348.845 191.036 349.318 191.229 349.856 191.371C350.392 191.513 350.844 191.585 351.211 191.585C351.811 191.585 352.339 191.456 352.799 191.198C353.259 190.939 353.489 190.536 353.489 189.988C353.489 189.545 353.296 189.197 352.912 188.948C352.528 188.698 351.881 188.367 350.974 187.949C350.065 187.533 349.384 187.111 348.928 186.687C348.472 186.263 348.244 185.701 348.244 185.004C348.244 183.889 348.643 183.038 349.437 182.452C350.234 181.864 351.26 181.57 352.519 181.57C353.299 181.57 354.224 181.716 355.293 182.009L355.103 183.804C354.864 183.665 354.484 183.535 353.964 183.414C353.445 183.294 353.042 183.233 352.755 183.233C352.142 183.233 351.632 183.349 351.227 183.582C350.821 183.815 350.617 184.152 350.617 184.589C350.617 185.083 350.804 185.451 351.176 185.692C351.549 185.93 352.193 186.247 353.105 186.642C354.02 187.034 354.707 187.454 355.169 187.897C355.631 188.343 355.862 188.968 355.862 189.771C355.862 190.53 355.667 191.168 355.28 191.69C354.891 192.211 354.372 192.601 353.724 192.859C353.076 193.118 352.379 193.246 351.64 193.246C350.248 193.246 349.143 193.042 348.32 192.632ZM333.365 186.337H339.629C339.629 185.765 339.509 185.241 339.269 184.766C339.029 184.292 338.683 183.917 338.23 183.644C337.775 183.371 337.238 183.233 336.616 183.233C335.932 183.233 335.356 183.383 334.889 183.683C334.421 183.983 334.067 184.369 333.825 184.836C333.584 185.303 333.43 185.804 333.365 186.336V186.337ZM341.077 190.469V192.525L340.388 192.76C340.121 192.85 339.84 192.928 339.541 193.001C339.245 193.071 338.909 193.131 338.537 193.178C338.163 193.223 337.739 193.246 337.26 193.246C335.869 193.246 334.704 193 333.764 192.508C332.824 192.013 332.126 191.318 331.673 190.417C331.218 189.516 330.992 188.448 330.992 187.214C330.992 186.124 331.227 185.152 331.699 184.293C332.17 183.436 332.837 182.768 333.697 182.289C334.558 181.81 335.547 181.57 336.664 181.57C337.953 181.57 338.995 181.837 339.789 182.368C340.581 182.901 341.15 183.636 341.491 184.575C341.833 185.515 342.004 186.611 342.004 187.868H333.365C333.365 188.576 333.548 189.216 333.915 189.785C334.282 190.354 334.771 190.797 335.381 191.112C335.991 191.427 336.648 191.585 337.351 191.585C338.016 191.585 338.722 191.46 339.472 191.211C340.221 190.962 340.755 190.715 341.077 190.469ZM312.949 192.984V181.834H315.104V183.607C315.481 182.982 316.007 182.488 316.737 182.12C317.467 181.754 318.262 181.57 319.119 181.57C320.648 181.57 321.786 181.983 322.532 182.809C323.277 183.635 323.65 184.819 323.65 186.358V192.984H321.42V187.214C321.42 186.325 321.339 185.595 321.18 185.025C321.019 184.457 320.751 184.024 320.374 183.729C319.998 183.434 319.492 183.268 318.859 183.233C317.634 183.233 316.715 183.645 316.1 184.469C315.486 185.293 315.18 186.41 315.18 187.823V192.984H312.949ZM304.631 177.024V179.342H302.115V177.024H304.631ZM302.26 192.984V181.834H304.492V192.984H302.26ZM290.767 192.984V176.586H292.998V192.984H290.767ZM277.398 192.984V181.834H279.482V183.562C279.83 182.977 280.273 182.5 280.86 182.128C281.446 181.756 282.055 181.57 282.688 181.57C283.13 181.57 283.62 181.621 284.162 181.724V183.562C283.817 183.43 283.405 183.364 282.926 183.364C282.27 183.364 281.691 183.547 281.193 183.913C280.694 184.28 280.309 184.807 280.037 185.496C279.765 186.186 279.628 186.991 279.628 187.912V192.984H277.398ZM267.876 177.024V179.342H265.361V177.024H267.876ZM265.506 192.984V181.834H267.736V192.984H265.506ZM253.552 187.343L250.612 179.777L247.677 187.343H253.552ZM243.282 192.984L249.58 177.722H251.798L258.029 192.984H255.729L254.228 189.136H247.001L245.5 192.984H243.282M273.86 134.902V124.527H242.112C231.19 124.527 224.446 131.162 223.027 135.569C221.608 139.976 221.995 146.972 221.995 146.972H257.858C257.858 146.972 257.936 148.971 256.001 148.971H221.995V158.558H253.358C262.81 158.558 268.278 154.83 270.585 152.53C272.894 150.23 273.855 148.123 273.855 147.397V137.264H237.933C237.933 137.264 238.887 135.023 241.016 135.023C243.144 135.023 273.86 134.902 273.86 134.902ZM291.813 135.03H316.186C317 135.03 317.659 135.535 317.659 136.16C317.659 136.784 317 137.29 316.186 137.29H296.848V146.908H316.186C317 146.908 317.659 147.414 317.659 148.038C317.659 148.661 317 149.168 316.186 149.168H291.813V135.03ZM280.178 124.516H323.073C328.586 124.516 333.056 128.255 333.056 132.868C333.056 136.76 329.872 140.032 325.564 140.958C329.872 141.955 333.056 145.477 333.056 149.67C333.056 154.638 328.586 158.664 323.073 158.664H280.178V124.516ZM351.431 140.906C351.854 137.451 354.98 134.767 358.775 134.767H377.57V140.906H351.431ZM336.233 142.101C336.233 132.369 344.637 124.48 355.003 124.48H389.822V158.865H377.737V150.658H351.255V158.865H336.233V142.101" fill="white"/>
<path d="M273.861 134.902V124.527H242.112C231.19 124.527 224.446 131.162 223.027 135.569C221.609 139.976 221.995 146.972 221.995 146.972H257.859C257.859 146.972 257.936 148.971 256.002 148.971H221.995V158.558H253.358C262.81 158.558 268.279 154.83 270.585 152.53C272.895 150.23 273.856 148.123 273.856 147.397V137.264H237.933C237.933 137.264 238.888 135.023 241.016 135.023C243.144 135.023 273.861 134.902 273.861 134.902V134.902ZM291.814 135.03H316.186C317 135.03 317.66 135.535 317.66 136.16C317.66 136.784 317 137.29 316.186 137.29H296.848V146.908H316.186C317 146.908 317.66 147.414 317.66 148.038C317.66 148.661 317 149.168 316.186 149.168H291.814V135.03ZM280.178 124.516H323.073C328.586 124.516 333.056 128.255 333.056 132.868C333.056 136.76 329.872 140.032 325.564 140.958C329.872 141.955 333.056 145.477 333.056 149.67C333.056 154.638 328.586 158.664 323.073 158.664H280.178V124.516ZM351.432 140.906C351.855 137.451 354.981 134.767 358.775 134.767H377.571V140.906H351.432ZM336.234 142.101C336.234 132.369 344.638 124.48 355.004 124.48H389.822V158.865H377.737V150.658H351.256V158.865H336.234L336.234 142.101Z" stroke="white" stroke-width="18.6775" stroke-miterlimit="3.8637" stroke-linecap="round" stroke-linejoin="round"/>
<path fill-rule="evenodd" clip-rule="evenodd" d="M273.861 134.902V124.527H242.112C231.19 124.527 224.446 131.162 223.027 135.569C221.609 139.976 221.995 146.972 221.995 146.972H257.859C257.859 146.972 257.936 148.971 256.002 148.971H221.995V158.558H253.358C262.81 158.558 268.279 154.83 270.585 152.53C272.895 150.23 273.856 148.123 273.856 147.397V137.264H237.933C237.933 137.264 238.888 135.023 241.016 135.023C243.144 135.023 273.861 134.902 273.861 134.902ZM291.814 135.03H316.186C317 135.03 317.66 135.535 317.66 136.16C317.66 136.784 317 137.29 316.186 137.29H296.848V146.908H316.186C317 146.908 317.66 147.414 317.66 148.038C317.66 148.661 317 149.168 316.186 149.168H291.814V135.03ZM280.178 124.516H323.073C328.586 124.516 333.056 128.255 333.056 132.868C333.056 136.76 329.872 140.032 325.564 140.958C329.872 141.955 333.056 145.477 333.056 149.67C333.056 154.638 328.586 158.664 323.073 158.664H280.178V124.516ZM351.432 140.906C351.855 137.451 354.981 134.767 358.775 134.767H377.571V140.906H351.432ZM336.234 142.101C336.234 132.369 344.638 124.48 355.004 124.48H389.822V158.865H377.737V150.658H351.256V158.865H336.234V142.101" fill="#231F20"/>
<path d="M292.889 136.332H295.528V148.027H292.889V136.332" fill="white"/>
<path d="M292.889 136.332H295.528V148.027H292.889V136.332Z" stroke="white" stroke-width="0.443077" stroke-miterlimit="3.8637"/>
<path d="M351.432 140.908C351.855 137.453 354.981 134.77 358.775 134.77H377.57V140.908H351.432Z" fill="white"/>
</svg>
