<svg width="480" height="320" viewBox="0 0 480 320" fill="none" xmlns="http://www.w3.org/2000/svg">
<path fill-rule="evenodd" clip-rule="evenodd" d="M297.352 95.2184C282.758 95.2184 262.768 95.2289 260.068 95.2289C258.189 95.2289 257.414 96.3141 257.414 96.3141L154.686 223.732C154.087 224.468 154.215 225.224 155.25 225.224C157.607 225.224 167.093 225.224 170.457 225.218C171.982 225.218 172.133 224.809 172.403 224.411L194.27 196.377C194.27 196.377 194.61 195.866 195.068 195.866L231.774 195.861C231.774 195.861 232.337 195.824 232.226 196.377C232.111 196.928 226.87 223.864 226.87 223.864C226.803 224.229 226.905 225.218 228.181 225.218C232.976 225.218 267.495 225.209 272.537 225.209C273.178 225.209 273.402 224.996 273.526 224.378L298.516 96.5571C298.512 96.5571 298.961 95.2184 297.352 95.2184ZM234.508 182.605H205.639C205.639 182.605 205.455 182.646 205.331 182.471C205.216 182.301 205.434 182.039 205.434 182.039L243.809 132.823C243.809 132.823 244.098 132.439 244.402 132.439C244.706 132.439 244.599 132.864 244.599 132.864L234.977 182.215C234.977 182.215 234.948 182.422 234.853 182.514C234.763 182.605 234.508 182.605 234.508 182.605ZM55.4659 208.976C55.1014 210.497 55.9289 211.785 58.6858 214.06C63.8813 218.344 79.3021 227.642 103.769 227.635C147.819 227.627 163.793 199.153 158.208 175.023C156.712 168.569 148.46 135.179 147.266 130.478C143.795 116.811 150.438 106.965 163.481 106.954C174.632 106.946 181.594 111.176 187.688 114.997C188.834 115.728 189.676 116.126 189.98 114.785C190.16 114.01 192.163 103.619 192.163 103.619C192.163 103.619 192.753 101.606 190.131 100.236C186.079 98.1241 176.002 92.4133 154.753 92.4049C115.249 92.384 98.4352 117.741 105.315 145.231C107.515 154.025 116.324 186.952 116.357 193.295C116.362 195.731 117.646 212.541 97.3982 212.541C78.5961 212.541 65.6515 199.697 61.2815 195.254C60.5608 194.512 59.5971 194.921 59.1467 196.538C58.9142 197.376 55.4659 208.976 55.4659 208.976ZM289.079 209.64C288.716 211.163 289.542 212.455 292.303 214.733C297.5 219.01 311.698 227.604 336.169 227.593C380.219 227.587 396.191 199.115 390.599 174.975C389.114 168.529 380.854 135.142 379.662 130.436C376.199 116.765 382.84 106.921 395.872 106.91C407.028 106.908 413.989 111.136 420.077 114.959C421.232 115.688 422.072 116.078 422.375 114.743C422.551 113.966 424.556 103.579 424.556 103.579C424.556 103.579 425.158 101.572 422.526 100.196C418.479 98.078 408.39 92.3756 387.16 92.3672C347.649 92.3421 330.835 117.703 337.713 145.191C339.915 153.986 348.726 186.905 348.757 193.262C348.764 195.692 350.052 212.495 329.798 212.495C310.988 212.499 298.581 200.106 294.18 195.702C293.202 194.732 291.744 195.09 291.544 196.505C291.425 197.351 289.079 209.64 289.079 209.64Z" fill="#2B3087"/>
</svg>
