<svg width="480" height="320" viewBox="0 0 480 320" fill="none" xmlns="http://www.w3.org/2000/svg">
<path fill-rule="evenodd" clip-rule="evenodd" d="M324.657 153.184L317.227 144.48L308.793 155.392H326.533L324.657 153.184ZM389.789 188.441L395.241 188.245C395.498 189.154 396.096 189.898 397.04 190.484C397.989 191.065 399.454 191.535 401.437 191.893C403.42 192.253 405.654 192.432 408.136 192.432C410.345 192.432 412.286 192.295 413.977 192.026C415.665 191.753 416.925 191.381 417.746 190.902C418.57 190.428 418.988 189.911 418.988 189.347C418.988 188.779 418.591 188.283 417.789 187.856C416.993 187.429 415.682 187.074 413.861 186.783C412.682 186.596 410.102 186.296 406.081 185.895C402.077 185.493 399.257 185.117 397.651 184.762C395.566 184.31 394.011 183.742 392.985 183.07C391.968 182.396 391.46 181.643 391.46 180.806C391.46 179.892 392.08 179.033 393.331 178.238C394.579 177.439 396.412 176.832 398.813 176.418C401.223 176.007 403.885 175.803 406.824 175.803C410.067 175.803 412.917 176.016 415.4 176.452C417.869 176.884 419.77 177.524 421.104 178.366C422.424 179.208 423.146 180.165 423.248 181.229L417.707 181.404C417.404 180.255 416.395 179.383 414.678 178.802C412.956 178.213 410.426 177.922 407.068 177.922C403.569 177.922 401.031 178.187 399.42 178.721C397.826 179.255 397.023 179.896 397.023 180.644C397.023 181.302 397.591 181.84 398.719 182.259C399.839 182.682 402.736 183.113 407.435 183.554C412.135 183.998 415.357 184.382 417.109 184.711C419.651 185.203 421.531 185.818 422.74 186.566C423.954 187.313 424.552 188.176 424.552 189.151C424.552 190.116 423.89 191.026 422.561 191.881C421.228 192.735 419.314 193.402 416.823 193.88C414.332 194.35 411.525 194.59 408.41 194.59C404.458 194.59 401.142 194.35 398.476 193.872C395.801 193.393 393.707 192.672 392.183 191.71C390.665 190.748 389.862 189.655 389.789 188.441ZM351.174 194.282V176.11H382.752V178.255H356.95V183.818H381.116V185.95H356.95V192.137H383.769V194.282H351.174ZM306.925 194.282V176.11H312.856L335.8 190.377V176.11H341.342V194.282H335.411L312.468 180.003V194.282H306.925ZM291.019 176.11H296.796V194.282H291.019V176.11ZM255.856 194.282V176.11H261.641V192.137H283.149V194.282H255.856ZM217.898 184.13H230.327C232.963 184.13 235.035 184.019 236.522 183.788C238.013 183.562 239.145 183.195 239.918 182.699C240.692 182.199 241.077 181.657 241.077 181.067C241.077 180.208 240.333 179.503 238.829 178.947C237.333 178.396 234.962 178.119 231.719 178.119H217.897L217.898 184.13ZM212.121 194.282V176.11H231.489C235.381 176.11 238.341 176.277 240.362 176.602C242.388 176.926 244.003 177.504 245.226 178.328C246.434 179.157 247.037 180.071 247.037 181.067C247.037 182.357 246.042 183.442 244.024 184.327C242.021 185.211 238.919 185.775 234.731 186.015C236.266 186.318 237.423 186.621 238.218 186.92C239.896 187.561 241.505 188.37 243.021 189.334L250.617 194.282H243.345L237.568 190.501C235.881 189.411 234.488 188.574 233.385 187.997C232.3 187.42 231.322 187.015 230.459 186.783C229.595 186.553 228.715 186.39 227.827 186.296C227.165 186.241 226.096 186.216 224.601 186.216H217.897V194.282H212.121ZM196.064 176.11H201.841V194.282H196.064V176.11ZM162.178 186.818H176.995L172.428 181.789C171.044 180.259 170.009 179.004 169.339 178.02C168.779 179.187 167.997 180.341 166.98 181.49L162.178 186.818ZM96.9851 161.784L92.1567 170.176H101.89L96.9851 161.784ZM86.9696 169.227C83.3721 169.493 78.4888 171.086 73.5322 173.816C64.8758 178.584 59.275 185.019 61.0181 188.18C62.7613 191.347 71.1953 190.048 79.8473 185.28C85.5896 182.118 89.9904 178.217 91.7936 175.029H83.633L86.9696 169.227ZM72.725 168.591C78.8816 165.531 85.0048 164.177 89.6323 164.595L87.6113 168.112L89.9007 164.126C87.3675 160.131 85.6793 154.02 85.4917 147.099C77.8945 151.145 72.725 159.144 72.725 168.347V168.591ZM109.927 188.501C103.437 184.541 98.7453 179.508 96.9807 175.03H96.7584C94.9856 179.524 90.2557 184.583 83.7227 188.552C87.6105 191.077 92.1481 192.417 96.7837 192.411C101.634 192.411 106.15 190.971 109.927 188.501ZM108.324 147.231C108.12 154.029 106.47 160.036 103.992 164.006L101.232 159.284C102.659 156.003 103.569 151.08 103.569 145.582C103.569 135.699 100.638 127.688 97.0237 127.688C93.4129 127.688 90.4818 135.699 90.4818 145.582C90.4818 151.008 91.366 155.87 92.7637 159.152L91.0932 162.053L96.9251 151.918L110.44 175.029H101.946C103.744 178.216 108.145 182.118 113.887 185.28C122.544 190.048 130.974 191.347 132.717 188.185C134.46 185.019 128.859 178.585 120.202 173.817C115.384 171.163 110.628 169.582 107.059 169.253L104.325 164.579C108.884 164.224 114.84 165.557 120.844 168.509L120.847 168.347C120.847 159.242 115.784 151.32 108.324 147.232M96.9074 122.574C102.504 122.574 107.166 130.735 108.153 141.511C118.651 145.898 126.03 156.264 126.03 168.347C126.03 169.368 125.974 170.381 125.872 171.376C135.199 177.482 140.369 185.741 137.609 190.748C134.853 195.756 125.107 195.795 114.96 191.172C109.835 195.23 103.488 197.435 96.9504 197.427C90.1231 197.427 83.8458 195.068 78.881 191.125C68.7 195.795 58.8935 195.769 56.1253 190.744C53.3527 185.711 58.5948 177.392 68.0204 171.274C67.9245 170.301 67.876 169.324 67.8752 168.347C67.8752 156.298 75.2109 145.958 85.6622 141.549C86.645 130.752 91.306 122.574 96.9074 122.574ZM149.576 194.282L166.355 176.11H172.58L190.462 194.282H183.869L178.775 188.779H160.51L155.72 194.282H149.576ZM424.615 134.17V142.873H422.739C421.603 140.865 420.334 139.459 418.992 138.588C417.587 137.652 415.711 136.982 413.302 136.447C411.964 136.178 409.618 136.046 406.272 136.046H400.915L401.047 146.42H401.116V160.882C401.116 162.489 401.316 163.562 401.718 163.963C402.12 164.365 402.923 164.698 404.128 165.036C405.269 165.369 406.876 165.502 408.947 165.502H411.362V166.373H373.732V165.502H376.142C378.219 165.502 379.894 165.369 381.167 165.036C382.103 164.767 382.773 164.429 383.308 163.831C383.709 163.493 383.91 162.489 383.91 160.882V154.99L383.709 136.046H378.488C373.669 136.046 370.186 136.512 367.972 137.383C364.897 138.72 362.953 140.528 362.149 142.874H360.141V134.17H424.615ZM303.033 156.734L322.649 133.768H323.52L336.24 148.633H336.308L342.466 155.931L345.747 159.81C347.823 162.288 349.562 163.831 350.904 164.429C351.971 164.967 353.382 165.237 355.253 165.3V166.172H325.729V165.3H326.934C329.276 165.3 330.951 165.1 331.89 164.767C332.557 164.566 332.89 164.164 332.89 163.694C332.89 163.425 332.826 163.16 332.625 162.823C332.557 162.69 332.155 162.088 331.283 161.083L328.071 157.136H306.515L303.9 160.216C303.097 161.216 302.631 162.088 302.631 162.758C302.631 163.694 303.367 164.297 304.708 164.767C305.511 164.967 307.519 165.168 310.732 165.301V166.173H290.378V165.301C292.586 165.1 294.394 164.634 295.803 163.895C297.206 163.092 298.949 161.485 301.02 159.076L303.033 156.734ZM284.486 134.17V144.951H282.477C281.003 142.139 278.26 139.994 274.244 138.456C270.292 136.982 265.741 136.247 260.652 136.247C256.367 136.247 252.483 136.782 248.933 137.918C245.387 139.059 242.844 140.464 241.17 142.272C239.627 143.947 238.691 145.754 238.29 147.694H238.422C238.287 148.445 238.219 149.208 238.221 149.971C238.221 152.714 238.96 155.261 240.498 157.534C242.037 159.811 244.451 161.554 247.728 162.691C251.009 163.896 255.294 164.429 260.452 164.429C264.737 164.429 268.685 164.028 272.236 163.161C275.782 162.289 279.533 160.884 283.481 158.743V161.417C279.666 163.225 275.714 164.566 271.565 165.37C267.48 166.173 262.661 166.575 257.102 166.575C249.873 166.575 243.447 165.972 237.755 164.635C232.799 163.426 228.783 161.824 225.835 159.679L225.634 159.747C225.232 159.478 224.899 159.209 224.566 158.944C221.485 156.397 219.943 153.787 219.943 150.975C219.943 148.032 221.686 145.216 225.032 142.537C228.445 139.926 233 137.854 238.759 136.379C244.583 134.906 250.676 134.171 257.17 134.171C261.921 134.171 267.01 134.637 272.3 135.576C275.38 136.111 277.32 136.448 278.192 136.448C279.264 136.448 280.2 136.247 280.939 135.91C281.743 135.508 282.276 134.974 282.477 134.171H284.486V134.17ZM208.227 134.17L208.962 144.544H206.219C204.945 141.938 201.733 139.861 196.644 138.255C191.555 136.713 186.065 135.909 180.173 135.909C175.623 135.909 172.008 136.311 169.328 137.114C166.65 137.985 165.377 138.921 165.377 139.994C165.377 140.664 165.846 141.335 166.782 141.869C168.056 142.536 170.132 143.275 173.012 143.946C175.088 144.48 179.976 145.348 187.539 146.621C190.09 147.049 192.634 147.519 195.17 148.031H195.439C201.933 149.3 206.552 150.504 209.3 151.709C212.982 153.252 214.79 155.059 214.79 157.136C214.79 159.678 211.842 161.955 205.95 163.831C204.078 164.365 202.065 164.899 199.857 165.301C195.106 166.173 189.615 166.574 183.322 166.574C180.51 166.574 177.763 166.505 175.221 166.305C172.674 166.104 169.461 165.702 165.646 165.168C163.437 164.899 161.698 164.767 160.356 164.767C159.152 164.767 157.947 164.899 156.609 165.168C155.336 165.502 154.263 165.972 153.46 166.574H150.982V162.22L150.782 162.288V154.922H150.982V154.858H153.46C155.468 158.14 159.22 160.682 164.843 162.425C170.465 164.164 176.49 165.036 182.984 165.036C188.009 165.036 192.025 164.566 194.974 163.626C197.917 162.69 199.455 161.618 199.455 160.348C199.455 159.879 199.19 159.409 198.652 158.943L198.452 158.875C198.186 158.674 197.917 158.473 197.516 158.272C196.375 157.601 194.636 156.931 192.294 156.333C190.017 155.662 185.864 154.858 179.976 153.918C171.738 152.513 165.778 151.308 162.164 150.372C158.48 149.368 155.737 148.296 153.798 147.091C151.854 145.886 150.85 144.544 150.85 143.074C150.85 140.596 153.529 138.52 158.818 136.781C164.172 135.042 170.867 134.17 178.968 134.17C181.916 134.17 184.796 134.303 187.539 134.572C189.684 134.704 192.226 135.042 195.238 135.576C198.251 136.046 200.396 136.311 201.6 136.311C202.737 136.311 203.677 136.178 204.344 135.909C205.014 135.708 205.617 135.106 206.219 134.17H208.227Z" fill="#00569F"/>
</svg>
