<svg width="480" height="320" viewBox="0 0 480 320" fill="none" xmlns="http://www.w3.org/2000/svg">
<path d="M225.823 266.665C284.557 266.665 332.49 219.07 332.49 159.999C332.49 101.264 284.894 53.332 225.823 53.332C167.089 53.332 119.156 100.927 119.156 159.999C119.156 219.07 166.751 266.665 225.823 266.665Z" fill="#FFE900"/>
<path d="M327.089 154.6L337.215 151.899L345.317 184.979L360.844 181.266L360.506 172.152L356.118 173.165L350.042 148.861L360.844 146.161L358.143 134.009L347.342 136.71L343.966 123.207L332.152 131.309L334.178 139.747L324.051 142.448L326.751 154.6" fill="#1D1D1B"/>
<path d="M325.4 143.459C321.35 139.408 315.611 136.708 308.185 136.708C291.982 136.708 284.218 149.534 284.218 160.336C284.218 171.138 291.982 183.965 308.185 183.965C324.388 183.965 332.151 171.138 332.151 160.336C332.151 155.61 330.801 150.885 328.101 146.834L325.4 143.459ZM318.649 160.336C318.649 166.749 313.923 171.475 307.847 171.475C302.109 171.475 297.046 166.749 297.046 160.336C297.046 153.923 301.771 149.197 307.847 149.197C313.923 149.197 318.649 153.923 318.649 160.336M283.881 160.336C283.881 149.534 276.117 136.707 259.915 136.707C243.713 136.707 235.949 149.534 235.949 160.336C235.949 171.138 243.713 183.965 259.915 183.965C276.117 183.965 283.881 171.138 283.881 160.336M270.716 160.336C270.716 166.749 265.991 171.475 259.915 171.475C254.177 171.475 249.113 166.749 249.113 160.336C249.113 153.923 253.839 149.197 259.915 149.197C265.653 149.197 270.716 153.923 270.716 160.336ZM222.784 155.273H236.286C233.923 144.471 224.471 136.708 212.657 136.708C199.493 136.708 189.366 147.171 189.366 160.336C189.366 173.5 199.83 183.965 212.995 183.965C225.147 183.965 233.923 175.863 236.286 165.737H222.785C221.434 168.437 218.734 171.813 213.333 171.813C206.92 171.813 202.869 167.087 202.869 160.674C202.869 157.636 203.882 154.598 205.907 152.572C207.932 150.547 210.633 149.197 213.671 149.534C218.396 148.859 221.097 152.235 222.785 155.273M175.189 150.547H188.354C187.342 138.732 177.215 136.708 171.139 136.708C162.025 136.708 153.924 142.446 153.924 151.897C153.924 157.973 158.649 161.686 164.388 163.374C172.827 166.749 176.203 167.087 176.203 170.125C176.203 172.15 173.839 173.5 171.476 173.5C170.801 173.5 167.088 173.5 166.413 169.45H153.248C154.598 181.265 164.725 184.302 171.476 184.302C181.265 184.302 189.704 178.564 189.704 168.775C189.704 159.323 181.603 156.96 174.176 154.935C170.801 153.923 167.426 152.572 167.426 150.547C167.426 149.197 168.438 147.509 171.139 147.509C174.852 147.172 175.189 149.534 175.189 150.547" fill="#1D1D1B"/>
</svg>
