<svg width="480" height="320" viewBox="0 0 480 320" fill="none" xmlns="http://www.w3.org/2000/svg">
<path d="M322.953 194.786C322.953 194.786 333.81 193.431 348.712 178.962L397.502 125.215H424.616L402.027 194.335L322.953 194.786Z" fill="#DE0038"/>
<path d="M357.028 176.574C357.028 176.574 357.401 176.132 357.715 176.132C358.059 176.132 358.363 176.574 358.363 176.574L357.028 176.574ZM407.123 149.509C407.447 149.489 397.1 148.999 393.782 149.647C390.454 150.285 387.322 150.717 384.26 155.134C381.197 159.522 378.428 163.959 376.602 166.502C370.85 174.483 370.85 175.759 364.459 176.328C361.033 176.633 360.12 176.456 359.256 176.053C358.196 175.543 357.695 174.964 356.223 176.132C354.534 177.487 352.208 177.153 352.267 177.359H401.056C401.056 177.359 403.422 177.438 404.256 175.946L403.039 175.494C403.039 175.494 402.774 177.045 397.924 176.584C393.085 176.132 386.753 174.934 386.753 174.934L401.773 153.73C402.705 152.572 403.981 151.364 405.199 150.285C405.199 150.285 399.132 150.923 396.58 154.624C393.988 158.383 382.483 174.159 382.483 174.159L381.697 174.031L396.393 153.603C396.403 153.593 398.553 150.147 407.123 149.509Z" fill="white"/>
<path d="M357.704 174.102C356.84 174.102 356.133 175.211 356.133 175.211H359.304C359.294 175.221 358.567 174.102 357.704 174.102Z" fill="white"/>
<path d="M312.803 176.695L312.4 180.681L302.819 180.691C302.819 180.691 301.17 180.465 300.817 181.712C300.326 183.243 301.739 183.037 301.739 183.037L309.298 183.086C309.298 183.086 312.783 184.195 312.724 187.67C312.665 190.93 311.036 193.354 308.277 193.374H295.849L296.114 189.575H308.15C308.15 189.575 310.319 187.926 308.15 186.915H299.521C299.521 186.915 296.851 186.738 296.772 183.037C296.733 179.974 297.351 179.199 298.667 178.109C300.237 176.754 302.446 176.754 302.446 176.754L312.803 176.695ZM75.8558 176.695L75.4436 180.681L65.8918 180.691C65.8918 180.691 64.2329 180.465 63.8892 181.712C63.3983 183.243 64.7924 183.037 64.7924 183.037L72.3611 183.086C72.3611 183.086 75.846 184.195 75.7773 187.67C75.7184 190.93 74.0986 193.354 71.3402 193.374H58.9219L59.1673 189.575H71.2321C71.2321 189.575 73.3722 187.926 71.2321 186.915H62.6032C62.6032 186.915 59.9036 186.738 59.8447 183.037C59.7858 179.974 60.4042 179.199 61.7197 178.109C63.31 176.754 65.5188 176.754 65.5188 176.754L75.8558 176.695Z" fill="#DE0038"/>
<path d="M281.046 193.42H294.907L295.182 189.591H285.502L285.64 187.088H294.985L295.182 183.249H285.915L286.121 180.599H295.535L295.741 176.613H282.371L281.046 193.42ZM275.048 193.42L268.353 183.465L267.646 193.42H263.552L264.877 176.692H268.902L275.529 187.284L276.373 176.692H280.349L279.161 193.42H275.048ZM256.867 193.42L258.271 176.692H262.227L260.97 193.42H256.867ZM255.738 189.444L255.277 193.282H243.408L244.665 176.692H248.699L247.806 189.444H255.738Z" fill="#DE0038"/>
<path d="M226.885 176.695L225.648 193.354H229.614L230.665 180.877H237.154C237.154 180.877 238.155 180.75 237.9 182.291C237.694 183.528 236.849 183.253 236.849 183.253H231.784L237.34 193.423H242.013L238.037 186.247C238.037 186.247 241.964 186.041 241.964 181.643C241.964 177.265 238.744 176.695 237.694 176.695H226.885Z" fill="#DE0038"/>
<path d="M206.91 187.081L209.619 182.301L211.229 187.081H206.91ZM211.916 176.695H207.803L198.045 193.354H203.012L205.221 189.663H212.054L213.251 193.354H217.836L211.916 176.695ZM171.235 187.081L173.945 182.301L175.555 187.081H171.235ZM176.252 176.695H172.139L162.391 193.354H167.338L169.567 189.663H176.399L177.577 193.354H182.171L176.252 176.695Z" fill="#DE0038"/>
<path d="M218.816 193.423L220.2 176.695H224.185L222.929 193.423H218.816ZM182.945 193.423L184.329 176.695H188.295L187.049 193.423H182.945Z" fill="#DE0038"/>
<path d="M100.781 187.081L103.49 182.301L105.09 187.082L100.781 187.081ZM105.797 176.695H101.684L91.9258 193.354H96.8735L99.1117 189.663H105.934L107.112 193.354H111.726L105.797 176.695Z" fill="#DE0038"/>
<path d="M158.836 193.354L159.258 187.229H152.082L151.444 193.354H147.419L148.735 176.695H152.917L152.426 183.39H159.533L160.161 176.695H164.147L162.812 193.354H158.836ZM88.4403 193.354L88.8428 187.229H81.6766L81.0483 193.354H77.0234L78.329 176.695H82.511L82.0201 183.39H89.1373L89.7557 176.695H93.7315L92.4063 193.354H88.4403Z" fill="#DE0038"/>
<path d="M146.694 176.695H136.072C136.072 176.695 130.133 176.921 129.858 181.849C129.584 186.807 129.652 188.25 129.652 188.25C129.652 188.25 129.525 193.354 134.256 193.354H145.673L146.095 183.037H138.163L138.016 186.807H141.982L141.766 189.447H134.816C134.816 189.447 133.618 189.604 133.618 188.259C133.618 186.944 133.913 182.35 133.913 182.35C133.913 182.35 133.913 180.524 136.544 180.524H146.37L146.694 176.695Z" fill="#DE0038"/>
<path d="M123.105 193.282L116.479 183.603L115.782 193.351H111.609L112.925 176.613H116.901L123.615 187.225L124.597 176.643L128.475 176.613L127.355 193.282H123.105Z" fill="#DE0038"/>
<path d="M101.89 166.2C101.094 168.595 104.177 170.922 105.483 168.988C110.391 161.674 109.723 156.236 109.723 156.236C109.723 156.236 102.518 164.325 101.89 166.2ZM221.301 157.384C220.771 158.454 217.718 158.994 217.718 158.994V155.136C217.718 155.136 224.226 152.878 220.368 151.681C216.51 150.493 210.267 154.616 210.267 154.616C211.072 156.461 214.645 155.931 214.645 155.931L214.527 159.377C214.527 159.377 209.717 160.064 208.401 160.064C206.418 160.064 205.221 161.124 205.221 162.037C205.221 162.989 208.009 163.51 208.009 163.51C208.676 162.43 214.252 162.037 214.252 162.037C214.252 162.037 222.793 160.869 223.696 159.78C225.011 158.189 221.821 156.334 221.301 157.384M80.5774 154.616C77.7599 155.941 75.2175 155.804 75.2175 155.804L76.0126 146.399H80.44C84.8771 144.652 80.7148 141.834 80.7148 141.834H72.3902C70.7803 138.732 68.9642 140.244 68.0807 142.1C66.8732 144.652 70.3679 156.893 70.3679 156.893C70.3679 156.893 68.2279 157.571 66.4706 157.698C64.7234 157.826 56.1044 159.613 55.584 161.193C54.4943 164.433 58.1364 164.56 60.1587 164.963C62.171 165.375 83.2673 160.663 84.4748 160.261C85.7019 159.848 87.0467 158.778 86.8995 156.501C86.762 154.204 81.8831 153.978 80.5775 154.616M110.371 145.143C109.439 137.878 105.139 139.901 105.139 139.901C105.139 139.901 102.567 140.843 104.471 143.651C108.496 147.842 110.371 145.143 110.371 145.143ZM106.886 154.302C105.954 147.028 101.644 149.04 101.644 149.04C101.644 149.04 99.082 149.982 100.967 152.81C105.002 156.982 106.886 154.302 106.886 154.302ZM126.117 156.167C125.646 157.021 123.437 153.084 126.117 152.672C126.117 152.672 127.992 152.672 126.117 156.167ZM125.047 160.869C124.115 161.655 122.22 158.042 125.047 157.797C125.047 157.787 127.305 158.994 125.047 160.869ZM123.526 153.379C123.094 154.351 122.77 153.438 122.328 153.34C121.003 153.084 122.878 151.455 122.878 151.455C122.878 151.455 124.282 151.573 123.526 153.379M115.231 164.511C114.131 164.187 118.863 159.112 118.863 159.112C118.863 159.112 122.78 161.704 122.623 162.636C122.328 164.099 117.498 165.179 115.231 164.511ZM120.591 155.372C120.591 155.372 121.68 155.745 121.553 156.569H120.051L120.591 155.372ZM135.109 154.429C133.647 153.624 130.947 155.225 130.947 155.225C130.947 155.225 132.155 148.765 130.81 148.51C129.485 148.235 124.233 151.317 124.105 149.855C123.977 148.382 131.497 143.14 131.497 143.14C131.497 143.14 132.41 142.325 131.222 141.775C128.532 140.558 118.99 146.89 118.441 147.165C117.91 147.43 117.773 146.763 117.773 146.763C117.773 146.763 125.038 135.463 125.568 134.001C126.117 132.499 124.488 131.026 122.073 131.969C119.648 132.911 121.14 136.661 121.14 136.661C121.798 137.476 118.038 141.776 118.038 141.776C118.038 141.776 113.876 148.098 113.738 149.177C113.601 150.247 114.808 152.005 115.623 150.935C116.428 149.855 123.153 148.382 123.153 148.382L117.371 157.787C117.371 157.787 113.061 157.924 111.451 158.729C109.841 159.524 110.646 161.281 110.646 161.281C110.646 161.281 115.447 160.692 114.543 161.674C111.049 165.581 111.726 168.664 111.726 168.664L123.025 167.054C123.025 167.054 121.68 173.258 122.878 173.111C127.61 172.581 127.845 166.926 127.845 166.926L129.062 165.581C129.062 165.581 129.877 159.524 129.877 158.317C129.877 157.109 134.589 157.787 135.649 157.512C136.729 157.247 136.602 155.225 135.109 154.429ZM230.352 134.776C227.524 136.789 222.557 137.741 221.88 137.613C221.202 137.456 216.098 132.626 216.098 132.626C211.523 131.812 212.073 134.374 212.073 135.316C212.073 136.259 215.558 139.478 215.558 139.478C214.488 140.421 206.143 141.363 206.143 141.363C206.143 141.363 201.873 140.303 200.764 141.363C197.544 144.465 199.831 149.835 200.646 150.787C201.441 151.7 202.649 149.835 203.051 149.285C203.454 148.775 202.649 145.27 202.924 144.583C203.189 143.925 210.051 142.443 210.051 142.443C210.865 148.903 207.488 149.698 207.488 149.698L207.351 150.64C207.351 150.64 208.293 151.573 209.108 150.787C215.509 144.387 212.73 141.226 213.408 141.363C214.085 141.501 220.142 140.018 220.142 140.018C220.142 140.018 228.339 136.926 228.732 138.006C229.517 140.107 225.375 142.041 225.375 142.041C226.042 142.718 228.604 141.501 228.604 141.501C228.604 141.501 233.041 142.306 234.112 139.076C234.818 137.005 231.471 133.971 230.352 134.776" fill="#DE0038"/>
<path d="M225.512 145.534C225.12 146.084 224.148 145.799 224.148 145.799C225.375 143.924 223.892 140.419 222.548 140.419C221.203 140.419 219.848 145.661 220.79 147.949C221.733 150.236 227.122 149.284 227.122 149.284C227.122 149.284 227.584 148.803 228.33 147.409C229.409 145.416 225.915 145.004 225.512 145.534ZM266.183 156.224L265.378 159.749C264.416 158.944 259.812 161.535 259.812 161.535C259.812 161.535 258.732 161.928 258.595 161.103C258.467 160.288 263.611 155.567 263.611 154.075C263.611 152.563 260.489 153.387 260.489 153.387L253.294 161.938C253.294 161.938 252.489 163.98 255.061 164.637C259.272 165.727 266.055 161.643 266.055 161.643C266.055 161.643 267.135 164.5 268.362 163.97C269.58 163.41 271.788 161.506 270.66 158.816C268.5 153.652 266.183 156.224 266.183 156.224ZM254.108 147.536C255.08 146.437 253.431 143.276 250.673 143.708C247.934 144.101 244.616 150.884 245.607 152.19C246.834 153.859 253.166 148.646 254.109 147.536M271.327 140.351C266.654 142.284 270.365 149.569 271.042 150.501C271.72 151.463 274.684 151.149 275.018 149.961C275.843 147.075 274.488 139.055 271.327 140.351ZM313.775 133.351C313.362 133.744 303.281 137.258 303.281 137.258C303.281 137.258 298.559 135.913 298.303 139.408C299.658 143.708 303.418 140.891 303.418 140.891C309.328 136.591 312.018 136.993 312.018 136.993L312.302 160.652C312.302 160.652 308.159 164.539 310.241 167.386C312.155 169.938 314.167 167.386 314.982 166.434C315.787 165.482 316.327 136.856 316.327 135.658C316.317 134.431 314.167 132.939 313.775 133.351Z" fill="#DE0038"/>
<path d="M294.936 148.285L291.707 148.422C291.304 150.572 294.397 151.357 296.281 150.572C304.616 147.067 305.833 144.387 305.833 144.387C304.616 142.11 294.936 148.285 294.936 148.285ZM299.374 157.964C297.361 159.171 295.476 159.446 295.211 157.434C295.211 157.434 300.316 152.869 300.601 153.527C300.856 154.204 301.396 156.747 299.374 157.964M301.916 150.572C300.179 150.699 292.394 157.031 292.394 157.031C292.904 162.411 298.971 161.184 300.316 160.663C301.651 160.114 304.753 153.802 305.293 152.997C305.833 152.182 303.673 150.434 301.916 150.572M185.401 155.029C185.401 155.029 185.352 154.557 184.851 154.842C182.711 156.05 183.771 161.91 179.953 162.696C175.3 163.648 173.572 160.821 173.15 158.936C172.659 156.609 175.81 150.906 176.34 149.148C176.88 147.401 172.777 147.313 172.777 147.313C174.534 144.525 176.036 142.728 177.803 143.101L177.921 141.639L176.713 141.698C176.713 141.698 176.959 138.271 173.15 136.092C171.059 134.875 168.85 136.573 168.732 136.995C167.486 141.521 173.336 141.04 173.297 142.561C173.248 143.641 167.299 144.289 166.19 144.849C165.385 145.241 165.287 146.488 166.052 146.93C167.564 147.764 170.97 145.016 171.648 144.387C172.315 144.27 171.933 145.192 171.785 145.654C171.167 147.676 166.396 153.163 162.273 160.634C162.076 161.007 162.332 162.411 163.097 161.773C163.834 161.164 168.526 152.761 170.205 151.21C172.522 149.09 173.454 150.091 173.434 150.729C173.356 152.594 169.419 161.154 172.463 164.296C174.662 166.593 183.202 165.484 185.264 164.413C185.745 164.158 186.501 163.157 185.136 161.9C184.154 160.987 185.401 155.029 185.401 155.029ZM158.258 156.187C157.983 156.216 157.777 156.059 157.777 156.059C157.777 156.059 157.571 154.793 157.904 154.607C158.258 154.42 158.395 154.538 158.395 154.538C158.395 154.538 158.513 156.148 158.258 156.187ZM161.203 150.739C160.948 149.845 163.461 147.597 162.342 145.909C161.969 144.859 159.671 145.016 159.671 145.016C159.671 145.016 161.821 141.54 162.224 139.803C162.626 138.046 159.504 137.182 159.504 137.182C154.557 140.883 148.883 151.112 148.883 151.112C148.883 151.112 149.462 152.535 149.855 151.446C150.257 150.376 155.411 147.332 155.411 147.332C157.09 150.218 159.151 147.823 159.151 147.823C159.151 147.823 159.112 149.767 159.161 150.277C159.22 150.631 156.648 149.266 155.597 149.404C153.232 149.669 155.509 152.015 155.509 152.015C155.509 152.8 155.44 153.183 155.46 153.507C154.969 153.89 153.929 153.644 153.929 153.644C153.929 153.644 154.351 149.62 153.673 149.541C153.084 149.472 152.328 150.847 152.328 150.847C152.328 150.847 151.857 153.379 151.7 155.088C143.071 156.874 142.521 158.111 142.521 158.111C142.521 158.111 142.62 159.495 143.65 160.006C144.652 160.506 145.624 160.781 146.527 159.387C147.224 158.337 151.523 156.472 151.523 156.472L151.239 164.031C151.239 164.031 151.307 166.563 152.701 165.974C154.616 165.218 154.135 156.432 154.135 156.432L154.734 156.511C155.332 160.614 158.258 160.34 158.258 160.34C158.258 160.34 158.935 161.41 158.66 162.087C158.395 162.764 156.677 162.538 156.677 162.538C157.531 163.707 158.13 163.069 158.699 166.446C158.886 167.496 161.095 166.279 161.448 165.356C161.792 164.462 161.134 154.175 161.134 154.175C164.943 150.376 161.36 150.857 161.203 150.739" fill="#DE0038"/>
</svg>
