<svg width="480" height="320" viewBox="0 0 480 320" fill="none" xmlns="http://www.w3.org/2000/svg">
<path d="M104.993 110.473C108.027 110.473 110.978 110.719 113.93 111.211C101.221 122.116 91.6273 128.594 97.695 154.341C104.255 182.63 89.3314 185.008 76.9499 196.815H127.706C136.315 189.927 146.975 180.498 144.433 165.82C142.465 154.341 147.631 148.765 152.141 144.583C153.781 149.421 154.601 154.587 154.601 159.999C154.601 187.303 132.298 209.607 104.993 209.607C77.6878 209.525 55.3848 187.221 55.3848 159.999C55.3848 132.776 77.6878 110.391 104.993 110.391V110.473ZM129.51 117.032C130.904 117.77 132.134 118.672 133.364 119.492C128.608 123.1 123.524 126.954 119.752 131.382C103.845 149.749 125.82 170.084 107.863 187.795C113.028 176.152 112.618 166.23 109.995 149.667C108.191 138.597 117.702 125.888 129.674 117.032H129.51ZM143.367 128.676C144.187 129.742 145.089 130.89 145.909 131.956C139.103 136.712 129.756 141.303 130.74 154.423C131.888 170.084 130.084 181.892 122.704 188.287C128.034 177.546 128.772 164.344 126.886 151.389C125.164 140.237 133.528 135.4 143.367 128.676Z" fill="#3E4095"/>
<path d="M197.977 112.933H203.881L193.139 142.862H200.601C201.093 143.026 201.503 142.78 201.913 141.96L211.424 115.721H217.164L207.324 143.026C206.258 146.388 204.127 147.946 201.093 147.782H170.836L182.397 115.721H188.465L178.626 142.944H187.153L197.895 113.015L197.977 112.933ZM231.349 113.835L232.497 112.769H238.975L238.155 113.835H259.884L257.916 119.165H233.973L228.07 125.889H236.187L237.909 121.133H243.649L241.927 125.889H255.21L253.243 131.218H239.877L235.203 144.174C234.547 146.716 233.071 147.864 231.021 147.618H224.134L225.692 143.436H229.054C229.3 143.518 229.546 143.354 229.628 143.026L233.973 131.136H218.968L220.69 126.381L227.332 119.083H223.314L225.282 113.753H231.349V113.835ZM218.148 143.026L225.364 133.514H231.103L221.674 145.732C220.854 147.126 219.624 147.7 218.312 147.618H212.982L214.54 143.436H217.164C217.656 143.518 217.984 143.354 218.23 143.026H218.148ZM240.697 145.732L241.189 133.35H246.683L246.519 142.698C246.519 143.272 246.765 143.518 247.257 143.436H249.143L247.585 147.618H242.665C240.943 147.7 240.287 147.126 240.533 145.732H240.697ZM266.772 114.491H270.38L271.364 112.933H276.12L275.3 114.491H282.761L272.184 144.01H272.758C273.332 144.092 273.742 143.846 274.07 143.108L282.187 120.641H296.701L288.501 143.518C288.337 143.928 288.501 144.092 288.993 144.092H289.403L287.845 148.274H285.877C283.253 148.274 282.433 147.126 283.417 144.666L290.469 125.069H285.303L278.333 144.338C277.432 146.88 275.71 148.192 273.332 148.192H270.708L271.856 144.83C270.872 147.208 269.068 148.274 266.526 148.192H262.016L263.574 144.01H266.608C267.428 144.092 268.166 143.682 268.494 142.616L271.692 133.678H264.066L260.13 144.338C259.228 146.716 257.752 147.864 255.702 147.946H253.243L254.8 143.682H255.374C255.784 143.682 256.112 143.354 256.276 142.78L259.556 133.596H258.49L260.13 129.169H261.278L266.608 114.327L266.772 114.491ZM283.827 114.491H288.993L289.485 113.097H294.487L293.995 114.491H300.473L298.833 118.919H282.187L283.827 114.491ZM269.642 118.837L265.952 129.087H273.25L276.94 118.837H269.642ZM268.74 124.577L270.216 120.559H274.07L273.414 122.445C273.168 123.265 273.25 123.593 273.742 123.511H274.152L272.676 127.529H270.544C268.494 127.611 267.838 126.709 268.658 124.659L268.74 124.577ZM263.246 139.336L264.804 135.154H268.658L267.92 137.286C267.592 137.86 267.674 138.188 268.166 138.188H268.576L267.1 142.206H265.132C263.082 142.37 262.426 141.386 263.246 139.336ZM321.3 113.589L321.792 112.031H328.023L327.613 113.589H341.963L338.519 120.641H333.353L334.337 117.771H310.968L309.902 120.805H304.244L306.868 113.589H321.382H321.3ZM312.772 122.527L314.494 119.657H320.398L317.036 125.561C315.724 127.939 313.674 128.923 310.558 128.595H301.375L303.096 123.839H310.312C311.296 123.921 312.116 123.511 312.772 122.527ZM323.104 125.561L324.006 119.657H329.663V122.691C329.581 123.757 330.155 124.331 331.549 124.249H337.781L336.223 128.513H326.302C323.678 128.677 322.612 127.775 323.104 125.643V125.561ZM313.756 134.334H299.735L301.375 129.907H335.239L333.599 134.334H319.496L316.298 143.19H330.811L329.253 147.454H294.323L295.881 143.19H310.558L313.756 134.334ZM351.065 118.673L353.032 113.343H374.352C374.844 113.343 375.254 113.753 375.663 114.491L377.385 119.985C377.795 121.379 378.451 121.953 379.353 121.871H380.419L378.451 127.201H374.434C372.794 127.283 371.81 126.545 371.4 124.741L369.678 119.739C369.432 119.083 369.022 118.673 368.366 118.673H351.065ZM343.767 126.135H345.489C346.227 126.299 347.129 125.807 348.195 124.577L351.884 120.559H358.936L351.474 128.923C349.671 130.644 347.785 131.546 345.571 131.546H341.963L343.931 126.053L343.767 126.135ZM343.111 141.14L359.428 124.167H366.644L350.655 141.14H363.938L361.97 146.47H338.027L339.995 141.14H343.193H343.111ZM365.66 144.666L362.052 133.022H369.104L371.892 141.386C371.892 141.714 372.138 141.796 372.63 141.796H373.204L371.482 146.388H368.448C366.89 146.306 365.988 145.732 365.578 144.502L365.66 144.666ZM417.072 117.607H388.701L390.423 112.851H424.615L414.038 142.206C413.054 145.814 411.004 147.536 407.97 147.208H404.362L406.002 142.78H407.396C407.888 142.862 408.216 142.616 408.462 141.878L416.99 117.607H417.072ZM386.323 125.069L388.045 120.477H413.792L412.152 125.069H386.405H386.323ZM403.87 132.284H389.767L386.569 141.304H399.688C400.262 141.386 400.672 141.14 401 140.402L403.87 132.284ZM401.164 145.65H379.025L385.667 127.365H411.168L405.756 142.37C405.018 144.748 403.46 145.814 401.164 145.732V145.65Z" fill="#F58634"/>
<path d="M189.366 166.724C190.678 162.624 188.874 160.574 184.037 160.574C182.069 160.574 180.511 160.984 179.117 161.886C177.231 162.952 175.919 164.51 175.099 166.56C174.279 168.938 175.099 170.496 177.559 171.234L181.249 172.054C182.889 172.382 183.791 172.792 184.201 173.366C184.611 173.858 184.611 174.678 184.283 175.58C183.463 177.712 181.331 178.777 177.887 178.859C174.443 178.777 173.213 177.22 174.197 174.268H171.655C170.835 176.482 170.917 178.121 171.983 179.187C172.721 180.253 174.443 180.909 177.231 180.909C179.363 180.909 181.413 180.499 183.135 179.597C184.939 178.695 186.087 177.22 186.742 175.252C187.726 172.464 186.906 170.66 184.283 169.922L179.199 168.61C177.723 168.364 177.231 167.626 177.723 166.15C178.461 163.936 180.347 162.87 183.299 162.788C186.333 162.952 187.562 164.264 186.742 166.724H189.366ZM206.75 169.102H196.582L199.37 161.148H196.746L189.858 180.663H192.482L195.68 171.562H205.848L202.65 180.663H205.274L212.161 161.148H209.538L206.75 169.102ZM223.887 175.006L223.805 180.581H226.675L226.511 161.066H223.559L209.374 180.581H211.997L216.015 175.006H223.887ZM217.655 172.628L223.723 164.018H223.805L223.641 172.628H217.655ZM244.796 176.81L240.532 161.066H237.334L230.447 180.581H232.989L238.482 164.838H238.564L242.91 180.581H245.862L252.75 161.066H250.208L244.714 176.81H244.796ZM251.684 180.581H259.555C262.589 180.581 265.213 179.433 267.345 177.138C269.067 175.416 270.379 173.202 271.363 170.578C272.265 167.872 272.429 165.74 271.691 164.018C270.953 162.05 269.149 161.066 266.443 161.066H258.49L251.602 180.581H251.684ZM260.375 163.28H265.295C269.149 163.444 270.215 165.904 268.575 170.824C266.689 175.662 263.901 178.203 260.211 178.367H255.128L260.457 163.28H260.375ZM291.37 170.906C289.32 175.908 286.122 178.449 281.777 178.777C277.513 178.531 276.201 175.99 277.677 170.906C279.727 165.74 282.925 163.034 287.352 162.87C291.616 163.116 292.928 165.822 291.37 170.906ZM293.994 170.906C294.896 168.036 294.978 165.494 294.076 163.362C293.092 161.476 291.042 160.574 288.172 160.574C285.548 160.574 283.171 161.23 281.039 162.706C278.251 164.756 276.201 167.462 274.971 170.906C274.151 173.612 274.069 175.908 274.725 177.958C275.709 179.925 277.841 180.909 280.957 180.909C283.908 180.909 286.614 180.007 288.91 178.121C291.124 176.154 292.846 173.776 293.912 170.906H293.994ZM309.491 176.81L305.228 161.066H302.03L295.142 180.581H297.684L303.178 164.838H303.26L307.606 180.581H310.557L317.445 161.066H314.903L309.409 176.81H309.491ZM327.777 172.382H333.68C332.942 174.76 331.631 176.482 329.745 177.548C328.269 178.367 326.793 178.859 325.235 178.859C320.889 178.859 319.741 176.154 321.627 170.824C323.595 165.822 326.711 163.116 330.811 162.87C333.926 162.952 335.484 164.346 335.238 167.052H337.78C338.436 163.034 336.386 160.984 331.795 160.656C326.055 160.902 321.791 164.264 319.003 170.742C317.691 174.186 317.691 176.892 319.167 178.941C320.069 180.335 321.873 180.991 324.497 180.991C327.285 180.909 329.745 180.007 331.877 178.203L331.631 180.663H333.352L336.96 170.25H328.433L327.695 172.464L327.777 172.382ZM187.48 200.917L187.398 206.492H190.268L190.104 186.977H187.152L172.967 206.492H175.591L179.609 200.917H187.48ZM181.331 198.539L187.398 189.929H187.48L187.316 198.539H181.331ZM204.126 187.059H201.502L194.614 206.574H197.238L204.126 187.059ZM209.21 198.129H215.605C217.983 198.129 218.721 199.277 217.901 201.573C217.163 203.95 216.753 205.59 216.589 206.492H219.869L220.033 206.082C219.459 205.836 219.377 205.18 219.787 204.114L220.771 200.671C221.509 198.621 221.181 197.391 219.787 196.981C222.001 195.997 223.395 194.439 224.215 192.307C224.953 190.257 224.707 188.863 223.641 188.125C222.903 187.469 221.509 187.059 219.541 187.059H210.44L203.552 206.574H206.176L209.21 198.129ZM212.325 189.191H218.967C221.345 189.191 222.083 190.257 221.345 192.471C220.607 194.767 218.803 195.833 216.179 195.833H210.03L212.325 189.191ZM233.891 187.059H231.267L224.379 206.574H236.924L237.744 204.196H227.823L233.891 187.059ZM250.864 187.059H248.24L241.352 206.574H243.976L250.864 187.059ZM264.311 202.884L260.047 187.141H256.85L249.962 206.656H252.504L257.998 190.913H258.08L262.425 206.656H265.377L272.265 187.141H269.723L264.229 202.884H264.311ZM286.614 204.196H274.889L277.185 197.719H287.762L288.582 195.341H278.005L280.137 189.273H291.616L292.354 187.059H278.169L271.281 206.574H285.63L286.45 204.196H286.614ZM309.819 192.799C311.131 188.699 309.327 186.649 304.49 186.649C302.522 186.649 300.964 187.059 299.57 187.961C297.684 189.027 296.372 190.585 295.552 192.635C294.732 195.013 295.552 196.571 298.012 197.309L301.702 198.129C303.342 198.457 304.244 198.867 304.654 199.441C305.064 199.933 305.064 200.753 304.736 201.655C303.916 203.786 301.784 204.852 298.34 204.934C294.896 204.852 293.666 203.294 294.65 200.343H292.108C291.288 202.556 291.37 204.196 292.436 205.262C293.174 206.328 294.896 206.984 297.684 206.984C299.816 206.984 301.866 206.574 303.588 205.672C305.392 204.77 306.54 203.294 307.196 201.327C308.179 198.539 307.36 196.735 304.736 195.997L299.652 194.685C298.176 194.439 297.684 193.701 298.176 192.225C298.914 190.011 300.8 188.945 303.752 188.863C306.786 189.027 308.016 190.339 307.196 192.799H309.819Z" fill="#3E4095"/>
</svg>
