<svg width="480" height="320" viewBox="0 0 480 320" fill="none" xmlns="http://www.w3.org/2000/svg">
<path d="M55.3828 110.105H424.614V209.898H55.3828V110.105Z" fill="#174079"/>
<path d="M165.24 171.673C165.61 172.264 166.087 172.741 166.683 173.086C167.278 173.441 167.943 173.693 168.695 173.844C169.436 173.994 170.206 174.074 170.996 174.074C171.609 174.074 172.244 174.03 172.914 173.93C173.585 173.844 174.204 173.677 174.764 173.433C175.331 173.188 175.792 172.833 176.156 172.36C176.523 171.885 176.706 171.29 176.706 170.555C176.706 169.545 176.319 168.783 175.563 168.27C174.804 167.755 173.854 167.338 172.711 167.015C171.567 166.691 170.326 166.408 168.983 166.146C167.651 165.889 166.412 165.522 165.268 165.053C164.121 164.57 163.171 163.919 162.414 163.067C161.648 162.209 161.271 161.027 161.271 159.504C161.271 158.319 161.534 157.295 162.071 156.443C162.6 155.585 163.284 154.896 164.119 154.363C164.961 153.826 165.907 153.435 166.951 153.176C168.007 152.916 169.048 152.788 170.08 152.788C171.423 152.788 172.653 152.9 173.783 153.13C174.904 153.359 175.904 153.754 176.772 154.315C177.638 154.878 178.335 155.64 178.85 156.602C179.367 157.558 179.674 158.758 179.762 160.183H175.882C175.82 159.423 175.625 158.792 175.285 158.289C174.948 157.788 174.527 157.387 174.008 157.081C173.477 156.771 172.899 156.547 172.298 156.417C171.675 156.281 171.04 156.211 170.402 156.211C169.825 156.211 169.24 156.259 168.641 156.347C168.05 156.441 167.508 156.6 167.023 156.824C166.532 157.057 166.138 157.365 165.835 157.742C165.53 158.119 165.378 158.616 165.378 159.223C165.378 159.89 165.616 160.448 166.085 160.889C166.558 161.333 167.16 161.694 167.889 161.987C168.619 162.279 169.442 162.516 170.358 162.714C171.266 162.915 172.178 163.123 173.098 163.336C174.07 163.546 175.02 163.807 175.946 164.113C176.88 164.414 177.696 164.819 178.415 165.318C179.127 165.823 179.71 166.456 180.145 167.22C180.594 167.979 180.81 168.923 180.81 170.048C180.81 171.481 180.514 172.667 179.922 173.611C179.325 174.555 178.551 175.317 177.593 175.896C176.637 176.473 175.555 176.876 174.347 177.102C173.15 177.333 171.95 177.455 170.771 177.455C169.458 177.455 168.208 177.311 167.023 177.038C165.835 176.768 164.779 176.315 163.867 175.695C162.951 175.068 162.227 174.246 161.674 173.224C161.131 172.206 160.822 170.966 160.766 169.502H164.642C164.677 170.358 164.875 171.08 165.24 171.673ZM188.081 144.336V156.806H188.167C188.474 156.073 188.897 155.461 189.45 154.958C189.993 154.457 190.613 154.042 191.298 153.724C191.983 153.403 192.695 153.172 193.446 153.018C194.188 152.86 194.908 152.788 195.617 152.788C197.166 152.788 198.459 153 199.495 153.429C200.529 153.85 201.365 154.447 202.006 155.207C202.646 155.966 203.095 156.874 203.353 157.928C203.61 158.973 203.742 160.139 203.742 161.416V176.95H199.86V160.965C199.86 159.504 199.433 158.343 198.581 157.493C197.727 156.638 196.555 156.213 195.06 156.213C193.877 156.213 192.847 156.395 191.981 156.764C191.114 157.121 190.386 157.644 189.811 158.319C189.234 158.983 188.799 159.77 188.508 160.666C188.216 161.568 188.081 162.546 188.081 163.612V176.952H184.193V144.336H188.081ZM221.369 165.556C220.577 165.715 219.749 165.851 218.877 165.953C218.01 166.069 217.136 166.19 216.256 166.328C215.372 166.464 214.582 166.689 213.883 166.993C213.18 167.294 212.608 167.733 212.173 168.296C211.729 168.859 211.506 169.617 211.506 170.603C211.506 171.232 211.634 171.779 211.895 172.22C212.155 172.667 212.492 173.02 212.903 173.294C213.316 173.569 213.799 173.769 214.362 173.886C214.923 174.01 215.5 174.068 216.074 174.068C217.354 174.068 218.445 173.9 219.362 173.541C220.272 173.194 221.022 172.753 221.605 172.22C222.174 171.685 222.601 171.108 222.878 170.483C223.152 169.857 223.287 169.278 223.287 168.729V164.749C222.798 165.117 222.162 165.384 221.369 165.556ZM226.806 177.455C225.8 177.455 225.006 177.168 224.407 176.605C223.814 176.042 223.515 175.12 223.515 173.842C222.453 175.12 221.214 176.042 219.797 176.605C218.384 177.168 216.849 177.455 215.21 177.455C214.144 177.455 213.137 177.333 212.192 177.108C211.246 176.878 210.416 176.497 209.704 175.964C208.989 175.437 208.42 174.751 208.015 173.914C207.598 173.078 207.394 172.06 207.394 170.875C207.394 169.537 207.622 168.442 208.081 167.589C208.538 166.733 209.133 166.041 209.883 165.508C210.632 164.973 211.482 164.568 212.442 164.3C213.398 164.021 214.386 163.791 215.386 163.61C216.456 163.4 217.462 163.239 218.424 163.137C219.38 163.027 220.226 162.869 220.958 162.676C221.691 162.482 222.265 162.197 222.689 161.812C223.12 161.43 223.337 160.871 223.337 160.143C223.337 159.291 223.174 158.61 222.854 158.091C222.535 157.57 222.122 157.175 221.623 156.9C221.116 156.624 220.557 156.445 219.928 156.353C219.317 156.262 218.699 156.216 218.08 156.217C216.436 156.217 215.07 156.531 213.971 157.157C212.873 157.78 212.28 158.959 212.188 160.692H208.307C208.364 159.231 208.676 157.999 209.217 156.992C209.77 155.994 210.502 155.171 211.414 154.551C212.33 153.928 213.376 153.477 214.566 153.199C215.751 152.932 216.996 152.792 218.312 152.792C219.376 152.792 220.431 152.864 221.483 153.022C222.533 153.174 223.483 153.483 224.341 153.956C225.191 154.429 225.872 155.092 226.393 155.944C226.914 156.794 227.169 157.908 227.169 159.275V171.424C227.169 172.34 227.221 173.008 227.327 173.433C227.439 173.86 227.794 174.07 228.405 174.07C228.736 174.07 229.135 173.996 229.592 173.846V176.86C228.92 177.253 227.994 177.455 226.806 177.455ZM235.799 153.333V158.315H235.895C236.835 156.401 237.989 154.98 239.362 154.066C240.733 153.152 242.471 152.728 244.567 152.788V156.902C243.016 156.902 241.693 157.109 240.595 157.532C239.502 157.966 238.619 158.59 237.947 159.407C237.278 160.233 236.789 161.231 236.488 162.402C236.185 163.57 236.031 164.919 236.031 166.436V176.95H232.147V153.333H235.799ZM264.551 161.712C264.26 160.666 263.817 159.728 263.23 158.91C262.631 158.087 261.875 157.431 260.945 156.944C260.015 156.455 258.925 156.211 257.676 156.211C256.366 156.211 255.255 156.471 254.347 156.992C253.423 157.505 252.686 158.181 252.103 159.021C251.533 159.854 251.107 160.81 250.854 161.871C250.594 162.939 250.459 164.019 250.459 165.115C250.459 166.274 250.596 167.394 250.876 168.474C251.151 169.557 251.582 170.509 252.175 171.332C252.766 172.154 253.538 172.811 254.48 173.316C255.426 173.819 256.566 174.072 257.901 174.072C259.242 174.072 260.364 173.813 261.262 173.286C262.154 172.773 262.883 172.088 263.432 171.232C263.987 170.38 264.378 169.414 264.615 168.31C264.864 167.202 264.99 166.07 264.991 164.935C264.991 163.839 264.837 162.768 264.551 161.712ZM250.598 153.333V156.537H250.692C251.333 155.225 252.341 154.269 253.706 153.68C255.077 153.086 256.582 152.788 258.229 152.788C260.059 152.788 261.645 153.126 263.003 153.796C264.36 154.463 265.477 155.369 266.386 156.513C267.278 157.65 267.95 158.971 268.419 160.46C268.868 161.953 269.098 163.538 269.098 165.208C269.098 166.889 268.88 168.464 268.433 169.957C267.994 171.449 267.324 172.747 266.427 173.864C265.527 174.976 264.396 175.848 263.049 176.487C261.697 177.128 260.113 177.453 258.324 177.453C257.742 177.453 257.093 177.383 256.382 177.259C255.655 177.139 254.943 176.943 254.257 176.673C253.556 176.393 252.894 176.026 252.267 175.551C251.646 175.076 251.121 174.491 250.696 173.791H250.598V185.941H246.719V153.333H250.598ZM295.395 165.556C294.615 165.715 293.775 165.851 292.908 165.953C292.042 166.069 291.17 166.19 290.29 166.328C289.398 166.464 288.609 166.689 287.917 166.993C287.21 167.294 286.641 167.733 286.202 168.296C285.763 168.859 285.54 169.617 285.54 170.603C285.54 171.232 285.667 171.779 285.929 172.22C286.186 172.667 286.526 173.02 286.931 173.294C287.348 173.569 287.831 173.769 288.388 173.886C288.957 174.01 289.525 174.068 290.102 174.068C291.385 174.068 292.475 173.9 293.395 173.541C294.311 173.194 295.048 172.753 295.633 172.22C296.209 171.685 296.635 171.108 296.908 170.483C297.185 169.857 297.321 169.278 297.321 168.729V164.749C296.83 165.117 296.193 165.384 295.395 165.556ZM300.832 177.455C299.822 177.455 299.028 177.168 298.443 176.605C297.846 176.042 297.543 175.12 297.543 173.842C296.483 175.12 295.243 176.042 293.828 176.605C292.409 177.168 290.881 177.455 289.236 177.455C288.168 177.455 287.158 177.333 286.222 177.108C285.274 176.878 284.452 176.497 283.731 175.964C283.019 175.437 282.456 174.751 282.039 173.914C281.626 173.078 281.422 172.06 281.422 170.875C281.422 169.537 281.648 168.442 282.109 167.589C282.566 166.733 283.169 166.041 283.913 165.508C284.662 164.973 285.512 164.568 286.47 164.3C287.426 164.021 288.412 163.791 289.414 163.61C290.481 163.4 291.491 163.239 292.457 163.137C293.409 163.027 294.258 162.869 294.988 162.676C295.718 162.482 296.293 162.197 296.726 161.812C297.151 161.43 297.361 160.871 297.361 160.143C297.361 159.291 297.201 158.61 296.886 158.091C296.567 157.57 296.158 157.175 295.647 156.9C295.148 156.624 294.587 156.445 293.958 156.353C293.346 156.263 292.729 156.217 292.11 156.217C290.465 156.217 289.096 156.531 288.001 157.157C286.901 157.78 286.312 158.959 286.218 160.692H282.336C282.394 159.231 282.7 157.999 283.24 156.992C283.793 155.994 284.524 155.171 285.44 154.551C286.356 153.928 287.408 153.477 288.597 153.199C289.787 152.932 291.03 152.792 292.34 152.792C293.407 152.792 294.459 152.864 295.513 153.022C296.565 153.174 297.513 153.483 298.363 153.956C299.221 154.429 299.9 155.092 300.417 155.944C300.944 156.794 301.197 157.908 301.197 159.275V171.424C301.197 172.34 301.255 173.008 301.357 173.433C301.459 173.86 301.816 174.07 302.436 174.07C302.768 174.07 303.157 173.996 303.622 173.846V176.86C302.945 177.253 302.021 177.455 300.832 177.455ZM310.43 176.95H306.544V153.333H310.43V176.95ZM306.544 144.336H310.43V149.086H306.544V144.336ZM319.056 153.333V158.315H319.142C320.094 156.401 321.247 154.98 322.61 154.066C323.986 153.152 325.726 152.728 327.822 152.788V156.902C326.267 156.902 324.946 157.109 323.85 157.532C322.754 157.966 321.874 158.59 321.203 159.407C320.533 160.233 320.042 161.231 319.746 162.402C319.439 163.57 319.279 164.919 319.279 166.436V176.95H315.401V153.333H319.056ZM330.061 144.336H333.947V176.95H330.061V144.336ZM343.17 176.95H339.284V153.333H343.17V176.95ZM339.284 144.336H343.17V149.086H339.284V144.336ZM351.933 153.333V157.081H352.027C353.642 154.217 356.202 152.788 359.699 152.788C361.25 152.788 362.549 153 363.581 153.429C364.619 153.85 365.455 154.447 366.096 155.205C366.731 155.966 367.188 156.874 367.445 157.928C367.706 158.973 367.834 160.139 367.834 161.416V176.95H363.948V160.965C363.948 159.504 363.515 158.347 362.677 157.493C361.811 156.638 360.639 156.213 359.144 156.213C357.967 156.213 356.939 156.401 356.073 156.764C355.199 157.127 354.478 157.648 353.901 158.315C353.324 158.981 352.891 159.768 352.596 160.666C352.307 161.568 352.163 162.54 352.163 163.61V176.952H348.285V153.333H351.933ZM388.545 160.273C388.194 159.454 387.723 158.75 387.126 158.153C386.533 157.56 385.837 157.089 385.02 156.74C384.218 156.391 383.324 156.213 382.35 156.213C381.348 156.213 380.44 156.389 379.634 156.74C378.831 157.089 378.133 157.568 377.556 158.175C376.979 158.784 376.522 159.496 376.191 160.301C375.852 161.111 375.656 161.967 375.594 162.881H389.152C389.094 161.967 388.892 161.095 388.545 160.273ZM389.477 175.437C387.711 176.778 385.489 177.455 382.807 177.455C380.925 177.455 379.286 177.14 377.895 176.539C376.512 175.926 375.351 175.076 374.411 173.974C373.459 172.876 372.754 171.577 372.291 170.05C371.816 168.528 371.542 166.869 371.485 165.075C371.485 163.272 371.766 161.632 372.307 160.139C372.856 158.646 373.628 157.355 374.614 156.261C375.608 155.163 376.778 154.309 378.127 153.7C379.484 153.092 380.969 152.788 382.581 152.788C384.683 152.788 386.425 153.221 387.813 154.092C389.196 154.958 390.307 156.062 391.15 157.395C391.98 158.74 392.565 160.199 392.88 161.786C393.203 163.362 393.329 164.875 393.269 166.304H375.596C375.564 167.336 375.682 168.318 375.963 169.248C376.237 170.178 376.676 171 377.285 171.719C377.889 172.433 378.668 172.998 379.62 173.429C380.552 173.854 381.673 174.07 382.945 174.07C384.589 174.07 385.938 173.689 386.99 172.924C388.042 172.158 388.741 171.006 389.072 169.456H392.904C392.389 172.104 391.241 174.102 389.477 175.437ZM399.343 171.673C399.71 172.264 400.193 172.741 400.778 173.086C401.37 173.441 402.041 173.693 402.789 173.844C403.534 173.994 404.298 174.074 405.097 174.074C405.709 174.074 406.344 174.03 407.015 173.93C407.685 173.844 408.304 173.677 408.863 173.433C409.432 173.188 409.893 172.833 410.262 172.36C410.621 171.885 410.807 171.29 410.807 170.555C410.807 169.545 410.426 168.783 409.661 168.27C408.905 167.755 407.955 167.338 406.811 167.015C405.665 166.691 404.426 166.408 403.085 166.146C401.744 165.889 400.504 165.522 399.371 165.053C398.225 164.57 397.273 163.919 396.508 163.067C395.744 162.209 395.367 161.027 395.367 159.504C395.367 158.319 395.636 157.295 396.169 156.443C396.696 155.585 397.385 154.896 398.223 154.363C399.061 153.826 399.997 153.435 401.057 153.176C402.101 152.916 403.143 152.788 404.178 152.788C405.52 152.788 406.759 152.9 407.885 153.13C409.004 153.359 410.004 153.754 410.871 154.315C411.737 154.878 412.433 155.64 412.948 156.602C413.467 157.558 413.771 158.758 413.856 160.183H409.982C409.921 159.423 409.725 158.792 409.386 158.289C409.046 157.788 408.633 157.387 408.106 157.081C407.595 156.78 407.019 156.552 406.4 156.417C405.779 156.281 405.145 156.212 404.51 156.211C403.925 156.211 403.336 156.259 402.743 156.347C402.151 156.441 401.606 156.6 401.123 156.824C400.632 157.057 400.243 157.365 399.937 157.742C399.63 158.119 399.478 158.616 399.478 159.223C399.478 159.89 399.708 160.448 400.191 160.889C400.658 161.333 401.259 161.694 401.987 161.987C402.72 162.279 403.542 162.516 404.458 162.714C405.374 162.915 406.282 163.123 407.198 163.336C408.172 163.546 409.116 163.807 410.048 164.113C410.98 164.414 411.807 164.819 412.515 165.318C413.228 165.823 413.804 166.456 414.246 167.22C414.691 167.979 414.908 168.923 414.908 170.048C414.908 171.481 414.619 172.667 414.02 173.611C413.423 174.555 412.651 175.317 411.693 175.896C410.735 176.475 409.657 176.876 408.454 177.102C407.248 177.333 406.053 177.455 404.863 177.455C403.55 177.455 402.302 177.311 401.121 177.038C399.935 176.768 398.884 176.315 397.967 175.695C397.051 175.068 396.331 174.246 395.776 173.224C395.227 172.206 394.918 170.966 394.86 169.502H398.746C398.774 170.358 398.979 171.08 399.343 171.673Z" fill="white"/>
<path d="M104.965 120.125C82.9446 120.125 65.0898 137.978 65.0898 160.004C65.0898 170.532 69.1933 180.11 75.8634 187.255C110.882 185.864 113.902 179.727 113.902 179.727C120.568 173.562 103.544 168.564 103.544 168.564C85.3436 164.261 73.2269 156.633 73.2269 156.633C61.0922 149.406 73.4285 141.181 73.4285 141.181C92.8001 132.312 109.789 133.551 109.789 133.551L106.466 131.002L110.196 130.813V129.819L111.751 130.026L112.721 131.216L118.395 131.002L115.275 133.357L113.902 136.297L111.557 134.541C90.6306 138.241 85.7488 142.744 85.7488 142.744C76.1608 152.13 94.5365 157.026 94.5365 157.026C106.699 159.822 126.809 167.973 126.809 167.973C139.453 173.697 130.332 182.643 130.332 182.643C123.887 190.129 107.252 196.827 99.8055 199.54C101.5 199.747 103.216 199.877 104.965 199.877C127.003 199.877 144.844 182.042 144.844 160.004C144.844 137.976 127.003 120.125 104.965 120.125Z" fill="#FFD52B"/>
</svg>
