<svg width="480" height="320" viewBox="0 0 480 320" fill="none" xmlns="http://www.w3.org/2000/svg">
<path fill-rule="evenodd" clip-rule="evenodd" d="M400.804 115.563C398.316 116.874 393.19 117.493 391.084 115.292C388.798 118.856 393.204 122.224 398.284 120.337C401.257 119.251 404.375 117.852 407.639 117.402C411.05 116.919 415.138 117.402 416.606 118.882C403.928 119.649 387.683 126.574 375.583 135.104C366.178 141.743 360.319 147.73 353.247 157.167C352.294 158.5 352.438 159.504 354.14 158.618C362.439 154.388 373.134 150.893 382.355 148.588C389.724 146.758 397.599 145.037 405.099 147.078C408.888 148.121 412.403 150.583 413.762 154.372C415.53 159.253 414.177 165.031 408.333 165.935C405.431 166.372 403.521 165.256 402.448 163.734C401.932 163.003 401.675 162.977 401.271 163.104L393.768 165.397C393.344 165.53 392.786 166.117 393.096 166.864C393.787 168.595 395.398 170.849 397.169 172.166C401.942 175.723 408.193 176.115 413.632 173.989C421.138 171.064 425.11 163.215 423.995 154.89C422.964 147.27 417.415 140.964 410.251 138.518C403.044 136.047 393.174 137.142 385.257 140.035C383.167 140.804 382.678 141.12 383.878 140.116C389.499 135.548 400.762 130.249 410.208 127.546C416.674 125.7 422.648 125.267 424.392 126.695C426.153 115.899 417.189 108.856 406.23 111.656C410.084 109.211 407.042 103.883 401.505 103.902C392.362 103.955 383.64 108.115 375.061 109.051C370.245 109.586 364.568 108.611 360.769 106.645C360.029 114.206 369.227 119.759 377.992 117.93C384.139 116.649 389.845 113.655 395.551 112.393C400.592 111.255 403.185 114.321 400.804 115.563ZM352.578 203.524C347.674 210.861 345.007 210.535 340.595 210.049C339.584 209.938 339.597 210.108 339.144 210.838L337.98 212.713C337.471 213.525 337.507 213.629 338.678 214.128C347.054 217.637 354.678 217.02 360.86 207.711L389.215 165.002C392.039 160.753 393.278 158.467 397.244 158.285C399.699 158.168 401.447 159.781 401.926 161.797C402.148 162.778 402.728 162.837 403.308 162.68L410.687 160.47C411.098 160.355 411.395 159.755 411.418 159.058C411.519 156.857 410.208 153.671 408.216 152.112C402.581 147.73 394.031 149.243 387.683 150.462C377.49 152.438 364.988 156.482 354.244 161.806C351.443 163.215 348.3 164.653 346.575 167.239C343.608 171.667 335.316 184.482 332.127 188.805C326.766 196.005 324.539 195.767 320.039 195.301C319.368 195.226 319.286 195.314 318.947 195.875L317.61 198.043C317.16 198.78 317.199 198.907 317.828 199.178C326.355 202.898 333.793 202.869 340.217 193.233L353.67 173.03C355.663 170.03 358.959 168.243 361.454 167.389L342.333 196.106C337.445 203.446 334.872 203.104 330.48 202.641C329.476 202.526 329.463 202.702 329.036 203.4L327.839 205.318C327.464 205.918 327.258 206.146 328.325 206.596C337.445 210.424 344.651 209.319 350.618 200.299L374.17 164.663C375.406 162.778 378.367 161.285 381.181 160.688L352.578 203.524Z" fill="#CC0327"/>
<path d="M144.655 192.094L145.607 186.417H140.654L137.094 205.848H142.06L143.837 196.297C144.045 195.166 146.031 194.194 146.908 194.23C148.291 194.301 148.307 194.989 148.079 196.248L146.312 205.861H151.128L153.061 195.13C153.257 194.07 153.348 193.03 152.908 192.113C151.464 189.088 147.316 189.348 144.655 192.094ZM167.243 191.143C164.954 189.366 161.165 189.513 158.341 191.447C158.341 191.447 155.234 193.318 154.585 198.474C154.246 201.183 154.663 203.912 157.069 205.227C159.202 206.394 162.381 206.368 164.954 205.455C165.531 205.259 165.997 205.099 166.568 204.731L167.187 201.493C167.187 201.493 163.698 202.885 161.158 202.191C159.786 201.803 158.912 200.619 159.023 199.139L168.583 199.152C169.222 196.305 169.522 192.92 167.243 191.143ZM159.779 195.787C159.945 194.825 160.95 193.984 161.419 193.768C161.863 193.573 162.883 193.331 163.721 193.739C164.279 194.013 164.713 194.919 164.608 195.787H159.779ZM293.591 193.261C294.595 193.046 295.899 193.176 296.959 193.519C298.13 193.916 298.903 194.621 298.903 194.621L299.597 190.669C299.597 190.669 297.654 189.736 294.354 189.84C290.532 189.961 288.706 191.993 288.194 192.853C287.402 194.154 287.2 195.746 287.633 196.988C288.266 198.791 289.965 199.362 291.768 199.786C292.75 200.017 295.563 200.135 294.872 201.726C294.575 202.417 293.646 202.619 292.43 202.649C290.301 202.684 288.178 202.241 286.639 200.986L285.983 204.638C285.983 204.638 286.773 205.267 287.989 205.658C289.192 206.04 291.621 206.265 293.037 206.023C294.439 205.772 296.183 205.345 297.644 203.943C298.462 203.177 299.434 201.419 299.336 199.766C299.261 198.357 298.436 197.298 297.223 196.707C295.691 195.964 293.796 196.026 292.45 195.11C291.713 194.614 291.788 193.639 293.591 193.261M137.684 190.265L124.641 190.235L123.924 194.142L129.522 194.158L121.237 205.861L134.854 205.789L135.522 202.173L129.268 202.212L137.684 190.265ZM274.599 191.446C274.599 191.446 271.495 193.321 270.846 198.476C270.507 201.182 270.918 203.911 273.331 205.226C275.473 206.393 278.636 206.367 281.209 205.454C281.792 205.261 282.265 205.098 282.829 204.73L283.449 201.492C283.449 201.492 279.973 202.884 277.42 202.19C276.06 201.805 275.186 200.618 275.3 199.141L284.851 199.151C285.49 196.308 285.793 192.92 283.517 191.142C281.219 189.365 277.429 189.515 274.599 191.446M276.027 195.789C276.213 194.824 277.218 193.983 277.69 193.767C278.134 193.572 279.138 193.334 279.976 193.738C280.553 194.015 280.984 194.922 280.873 195.789H276.027ZM112.532 192.094L112.78 190.206H107.84L104.961 205.848H109.93L111.711 196.297C111.929 195.166 113.905 194.194 114.776 194.23C116.162 194.301 116.178 194.989 115.946 196.248L114.172 205.861H119.005L120.929 195.13C121.118 194.07 121.226 193.03 120.785 192.113C119.338 189.088 115.183 189.348 112.532 192.094ZM80.1677 192.094L81.1198 186.417H76.1699L72.5996 205.848H77.5754L79.3492 196.297C79.5678 195.166 81.547 194.194 82.4209 194.23C83.8002 194.301 83.8262 194.989 83.5914 196.248L81.8241 205.861H86.6401L88.5771 195.13C88.7597 194.07 88.8575 193.03 88.4272 192.113C86.9859 189.088 82.8316 189.348 80.1677 192.094ZM64.7607 190.058C65.9868 189.793 67.5324 189.989 68.8367 190.433C70.2582 190.932 71.2561 191.815 71.2561 191.815L72.068 187.211C72.068 187.211 69.6715 186.053 65.6411 186.187C60.949 186.331 58.7349 188.832 58.1023 189.875C57.124 191.466 56.8372 193.25 57.4826 194.711C58.2458 196.455 60.362 197.352 62.5662 197.873C63.7663 198.174 67.291 198.581 66.5052 200.554C66.1629 201.412 64.9335 201.953 63.4335 201.979C60.8803 202.034 58.0209 201.526 56.1849 200.035L55.3828 204.313C58.4088 206.59 64.6694 206.798 68.3934 204.636C70.6463 203.339 71.8071 201.098 71.6865 198.79C71.5691 196.543 69.9388 195.307 68.005 194.613C66.365 194.019 64.3597 193.713 63.0391 192.722C62.1977 192.096 62.3085 190.547 64.7607 190.058ZM93.8473 191.446C93.8473 191.446 90.7431 193.321 90.0943 198.476C89.7551 201.182 90.166 203.911 92.5855 205.226C94.7148 206.393 97.8874 206.367 100.457 205.454C101.034 205.261 101.504 205.098 102.081 204.73L102.704 201.492C102.704 201.492 99.2145 202.884 96.6615 202.19C95.3017 201.805 94.4278 200.618 94.5321 199.141L104.092 199.151C104.738 196.308 105.025 192.92 102.756 191.142C100.457 189.365 96.6712 189.515 93.8473 191.446M95.2822 195.789C95.4712 194.824 96.4625 193.983 96.9255 193.767C97.3756 193.572 98.383 193.334 99.2275 193.738C99.7949 194.015 100.229 194.922 100.124 195.789H95.2821H95.2822ZM177.013 192.094L177.264 190.206H172.318L169.448 205.848H174.414L176.201 196.297C176.413 195.166 178.392 194.194 179.273 194.23C180.645 194.301 180.678 194.989 180.437 196.248L178.666 205.861H183.485L185.412 195.13C185.615 194.07 185.709 193.03 185.276 192.113C183.825 189.088 179.674 189.348 177.013 192.094ZM240.968 186.485L237.41 205.86H242.096L245.653 186.485H240.968ZM235.556 190.095C234.102 190.467 233.13 191.396 232.315 192.723L232.217 192.733L232.7 190.252H228.22L225.366 205.887L229.951 205.861L231.611 196.884C232.847 195.152 235.103 193.284 237.17 194.119L237.868 190.287C237.526 190.007 236.225 189.919 235.556 190.095M220.923 186.469L220.232 190.254H224.915L225.612 186.469H220.923ZM217.36 205.86H222.042L224.638 191.771H219.942L217.36 205.86ZM260.547 192.094L260.802 190.206H255.855L252.983 205.848H257.952L259.742 196.297C259.951 195.166 261.933 194.194 262.804 194.23C264.183 194.301 264.206 194.989 263.975 196.248L262.207 205.861H267.02L268.96 195.13C269.146 194.07 269.241 193.03 268.8 192.113C267.366 189.088 263.212 189.348 260.547 192.094ZM248.767 186.469L248.079 190.254H252.761L253.452 186.469H248.767ZM245.208 205.86H249.887L252.486 191.771H247.794L245.208 205.86ZM204.47 186.431L194.531 205.859H199.974L201.806 202.19H208.846L209.335 205.859H214.546L211.859 186.431H204.47L204.47 186.431ZM203.632 198.343L207.64 190.083L208.435 198.343H203.632ZM86.5971 138.344H90.0404L89.1926 142.671C88.0906 147.086 82.9518 148.788 78.315 149.942L80.2452 153.301C87.5102 151.582 93.8588 149.531 95.1077 142.729L95.9458 138.344H99.6891L98.0912 146.802C97.5631 149.489 99.2683 151.488 102.448 151.488H106.38C110.505 151.488 112.608 149.293 114.382 146.492L109.158 144.265L108.121 146.248C107.684 147.086 107.287 147.663 106.23 147.663H105.555C104.639 147.663 104.228 147.18 104.349 146.437L105.93 138.344H109.259L108.437 142.664H114.744L116.234 134.897L116.273 134.705H81.103L81.0638 134.897L79.6061 142.664L85.7493 142.648L86.5971 138.344ZM161.534 169.172L167.899 135.26H161.426L155.051 169.172H161.534ZM122.786 165.985L124.498 170.84L141.307 165.033L142.034 161.038L138.35 161.971L140.639 149.707H145.419L146.12 145.964H141.34L143.391 134.897L143.485 134.353H137.003L136.902 134.897L134.877 145.964H128.427L127.713 149.773H134.15L131.551 163.676L122.786 165.985V165.985ZM272.986 148.021L274.206 142.552H267.019L266.083 146.677C265.199 150.567 258.766 152.194 252.117 152.635L253.539 155.928C260.012 155.687 271.297 155.449 272.986 148.021ZM298.131 169.981H276.489L278.045 161.705H293.771L294.544 157.322H255.833L255.063 161.705H270.437L268.908 169.981H248.917L248.114 174.331H297.306L298.131 169.981ZM241.956 138.669H231.479L232.682 134.897L233.25 133.116L226.536 132.223L226.242 134.897L225.828 138.669H216.287L215.599 142.38H241.251L241.956 138.669ZM170.827 175.046L178.19 134.897L178.49 133.273H172.017L171.72 134.897L164.338 175.046H170.827Z" fill="black"/>
<path d="M113.419 155.177H97.8006L98.528 151.453H92.2347L91.5337 155.177H76.8015L76.1005 158.842H88.5956C84.4639 163.195 79.123 167.15 72.6016 170.352L74.6332 173.988C80.5644 171.259 86.3359 167.421 90.1542 163.55L87.9239 174.937H94.2073L96.2842 163.332C99.1471 167.098 104.293 171.461 109.021 174.184L112.158 170.77C107.247 168.125 101.505 162.921 99.2809 158.842H112.735L113.419 155.177ZM224.819 148.496H229.113L225.063 170.206C224.848 172.508 226.175 174.203 228.992 174.386H233.766C236.368 174.171 237.858 172.88 238.647 170.812L240.131 165.791L235.123 164.004L234.079 169.749C233.821 171.138 231.148 171.138 231.399 169.727L236.104 144.609H219.099L215.591 163.27C214.671 168.168 213.537 170.604 209.317 172.958L212.262 175.244C218.379 173.17 221.229 167.561 222.243 162.217L224.819 148.496H224.819ZM292.946 149.533C292.408 150.687 291.381 151.554 290.119 151.554H287.621C286.19 151.554 285.586 150.635 285.815 149.532L287.227 142.613H280.356L278.804 150.312C278.247 153.09 279.567 155.262 283.121 155.262H291.25C295.786 155.262 298 152.702 299.731 149.304L294.276 146.679L292.946 149.532V149.533Z" fill="black"/>
<path d="M281.695 136.634L282.207 134.897L283.051 131.949L275.793 131.02L275.529 134.897L275.414 136.634H255.71L253.936 145.921H260.643L261.723 140.202H294.976L294.131 145.194H300.809L302.436 136.634H281.695ZM197.688 157.279L199.621 157.057L197.933 166.053L202.302 166.109L204.089 156.539L206.029 156.337L203.655 169.086C203.104 171.939 197.649 170.243 195.451 170.015L196.191 174.509H202.018C206.55 174.509 208.66 172.125 209.296 168.874L211.781 155.587L215.12 155.225L215.772 151.677L212.469 151.879L215.084 137.926H205.188L207.359 134.897L208.491 133.309L202.005 131.542L200.619 134.897L199.361 137.926H195.49L192.624 153.249L188.186 153.565L187.257 158.547L191.737 158.019L190.827 162.845C190.064 166.921 187.377 170.739 183.895 173.005L187.162 175.047C192.363 171.763 195.878 166.833 197.271 159.476L197.688 157.279V157.279ZM200.593 141.712H208.768L206.798 152.296L204.852 152.44L206.583 143.31L202.211 143.3L200.43 152.704L198.519 152.825L200.593 141.712ZM78.7503 137.683C76.533 136.545 74.5667 135.655 72.3754 134.898C71.2962 134.53 70.1744 134.191 68.942 133.864L68.4267 134.898L67.302 137.194C70.5691 138.739 72.4081 140.314 74.8471 142.639L78.7503 137.683ZM150.872 135.263L146.626 157.814C145.234 165.255 142.439 168.343 135.112 173.078L139.664 174.852C148.658 168.646 151.928 164.835 153.849 154.615L157.511 135.263H150.872ZM76.0584 149.733C72.7651 148.041 69.1098 146.551 65.3599 145.566L63.8438 148.889C67.1112 150.441 69.7132 152.345 72.1554 154.693L76.0584 149.733ZM74.0966 159.606L70.751 157.238L60.1016 170.585L65.1068 174.308L74.0966 159.606Z" fill="black"/>
</svg>
