<svg width="480" height="320" viewBox="0 0 480 320" fill="none" xmlns="http://www.w3.org/2000/svg">
<path fill-rule="evenodd" clip-rule="evenodd" d="M170.503 167.276C170.471 166.958 170.457 166.638 170.461 166.319C170.461 164.941 170.8 163.752 171.489 162.759C172.141 161.802 173.034 161.034 174.077 160.532C175.122 160.032 176.129 159.785 177.115 159.785C177.914 159.785 178.711 159.924 179.508 160.191C180.297 160.459 181.034 160.865 181.683 161.389C182.335 161.917 182.873 162.591 183.279 163.403C183.684 164.222 183.91 165.144 183.952 166.18H180.688C180.632 165.035 180.268 164.201 179.587 163.672C178.912 163.142 178.086 162.874 177.115 162.874C176.261 162.874 175.463 163.156 174.729 163.715C173.989 164.273 173.598 165.094 173.548 166.18C173.555 166.208 173.598 166.383 173.671 166.717L173.815 167.354C174.034 168.145 174.782 168.805 176.056 169.328C177.332 169.856 178.615 170.364 179.907 170.85C181.197 171.336 182.291 172.046 183.184 172.989C184.075 173.931 184.526 175.272 184.526 177.013C184.526 177.31 184.497 177.752 184.431 178.325C184.249 179.789 183.772 180.993 182.981 181.943C182.191 182.893 181.254 183.582 180.19 184.002C179.117 184.422 178.065 184.632 177.028 184.632C175.593 184.632 174.302 184.306 173.17 183.647C172.059 183.009 171.146 182.075 170.532 180.95C169.902 179.803 169.59 178.541 169.59 177.157L172.815 177.063C172.859 178.426 173.317 179.535 174.201 180.384C175.086 181.238 176.086 181.681 177.216 181.724C178.306 181.644 179.331 181.179 180.11 180.413C180.908 179.637 181.306 178.695 181.306 177.593C181.306 176.612 180.987 175.73 180.342 174.931C179.704 174.133 178.718 173.569 177.383 173.235C175.57 172.749 174.019 172.059 172.729 171.183C171.446 170.307 170.698 169.001 170.502 167.276H170.503ZM188.512 184.111V151.918H191.776V163.707C192.295 162.868 192.96 162.128 193.739 161.523C194.489 160.938 195.34 160.493 196.249 160.212C197.167 159.927 198.123 159.783 199.084 159.784C200.83 159.784 202.521 160.219 204.151 161.082C205.776 161.952 207.095 163.199 208.104 164.816C209.112 166.434 209.618 168.281 209.618 170.363V184.108H206.399V170.363C206.399 168.781 206.052 167.434 205.363 166.318C204.712 165.236 203.767 164.363 202.637 163.801C201.505 163.241 200.258 162.954 198.996 162.96C197.728 162.96 196.546 163.228 195.444 163.764C194.348 164.301 193.426 165.135 192.783 166.172C192.11 167.238 191.774 168.521 191.774 170.014V184.108L188.512 184.111ZM214.999 184.111V160.226H218.008V163.785C219.327 161.068 221.646 159.704 224.96 159.704V162.959C224.159 162.969 223.366 163.132 222.625 163.438C221.811 163.758 221.058 164.217 220.4 164.794C219.725 165.389 219.181 166.07 218.775 166.861C218.375 167.649 218.169 168.521 218.174 169.405V184.108L214.999 184.111ZM227.179 172.06C227.229 170.153 227.599 168.442 228.302 166.92C228.964 165.442 229.925 164.116 231.123 163.026C232.27 161.973 233.603 161.142 235.053 160.575C236.468 160.022 237.971 159.728 239.49 159.707C241.521 159.707 243.493 160.197 245.392 161.184C247.299 162.17 248.857 163.658 250.076 165.637C251.286 167.615 251.894 169.973 251.894 172.713V173.315H230.397C230.537 175.077 231.08 176.584 232.022 177.825C232.965 179.072 234.103 179.999 235.444 180.615C236.793 181.231 238.105 181.544 239.403 181.544C240.555 181.544 241.723 181.311 242.899 180.855C244.043 180.412 245.098 179.768 246.016 178.955C246.922 178.151 247.561 177.259 247.937 176.28H251.236C250.569 178.107 249.597 179.653 248.32 180.92C247.1 182.144 245.638 183.099 244.028 183.726C242.5 184.319 240.876 184.626 239.237 184.632C237.147 184.553 235.107 183.972 233.29 182.937C231.449 181.892 229.97 180.427 228.854 178.551C227.736 176.664 227.179 174.504 227.179 172.06ZM248.762 170.449C248.489 169.068 247.91 167.765 247.067 166.637C246.211 165.469 245.1 164.512 243.818 163.839C242.513 163.143 241.056 162.784 239.577 162.795C237.532 162.795 235.836 163.28 234.487 164.245C233.131 165.208 232.138 166.29 231.5 167.486C230.862 168.675 230.5 169.668 230.397 170.451L248.762 170.449ZM255.449 172.06C255.499 170.153 255.869 168.442 256.572 166.92C257.234 165.441 258.194 164.116 259.393 163.026C260.54 161.974 261.872 161.142 263.322 160.575C264.737 160.022 266.24 159.728 267.759 159.707C269.79 159.707 271.763 160.197 273.66 161.184C275.569 162.17 277.126 163.658 278.346 165.637C279.556 167.615 280.164 169.973 280.164 172.713V173.315H258.666C258.806 175.077 259.349 176.584 260.291 177.825C261.233 179.072 262.371 179.999 263.714 180.615C265.063 181.231 266.374 181.544 267.673 181.544C268.825 181.544 269.993 181.311 271.166 180.855C272.311 180.413 273.367 179.769 274.284 178.955C275.192 178.151 275.828 177.259 276.206 176.28H279.506C278.839 178.107 277.866 179.653 276.59 180.92C275.37 182.144 273.908 183.099 272.298 183.726C270.769 184.319 269.145 184.626 267.505 184.632C265.416 184.553 263.377 183.972 261.561 182.937C259.719 181.892 258.24 180.427 257.124 178.551C256.006 176.664 255.449 174.504 255.449 172.06ZM277.032 170.449C276.759 169.068 276.18 167.765 275.337 166.637C274.48 165.47 273.369 164.513 272.088 163.839C270.783 163.143 269.326 162.784 267.847 162.795C265.802 162.795 264.106 163.28 262.756 164.245C261.401 165.208 260.408 166.29 259.77 167.486C259.131 168.675 258.768 169.668 258.666 170.451H277.032" fill="#E42129"/>
<path fill-rule="evenodd" clip-rule="evenodd" d="M287.111 172.364C287.132 170.465 287.503 168.732 288.229 167.154C288.909 165.626 289.898 164.255 291.134 163.128C292.329 162.033 293.719 161.173 295.232 160.591C296.705 160.011 298.274 159.711 299.857 159.705C304.216 159.815 307.333 161.554 309.217 164.934V160.308H312.349V184.11H309.217V179.586C308.326 181.188 307.034 182.429 305.337 183.313C303.65 184.189 301.737 184.632 299.595 184.632C297.988 184.594 296.401 184.275 294.904 183.689C293.426 183.116 292.067 182.273 290.896 181.203C289.713 180.115 288.768 178.794 288.12 177.324C287.445 175.817 287.111 174.162 287.111 172.366V172.364ZM290.417 171.625C290.417 173.577 290.845 175.308 291.708 176.81C292.571 178.317 293.703 179.471 295.116 180.283C296.478 181.076 298.02 181.51 299.596 181.544C301.417 181.544 303.054 181.11 304.518 180.231C305.945 179.399 307.134 178.213 307.969 176.787C308.804 175.374 309.217 173.895 309.217 172.364C309.217 170.683 308.811 169.124 308.007 167.703C307.214 166.294 306.067 165.117 304.679 164.288C303.272 163.437 301.674 162.953 300.031 162.882C298.197 162.882 296.544 163.339 295.072 164.252C293.599 165.165 292.455 166.311 291.635 167.68C290.824 169.059 290.417 170.371 290.417 171.625ZM317.824 184.11V160.308H321.044V184.11H317.824ZM317.824 157.436V151.918H321.044V157.436H317.824ZM326.523 184.11V160.228H329.534V163.787C330.851 161.07 333.173 159.705 336.486 159.705V162.96C335.732 162.96 334.956 163.121 334.152 163.439C333.337 163.759 332.584 164.218 331.925 164.795C331.258 165.376 330.707 166.077 330.301 166.863C329.9 167.65 329.694 168.522 329.7 169.406V184.11H326.523ZM339.575 184.11V151.919H342.794V184.11H339.575ZM348.233 184.11V160.308H351.45V184.11H348.233ZM348.233 157.436V151.918H351.45V157.436H348.233ZM356.888 184.11V160.308H359.942V163.875C360.705 162.583 361.818 161.533 363.152 160.845C364.496 160.146 365.989 159.782 367.504 159.787C368.837 159.787 370.127 160.026 371.375 160.512C372.621 160.991 373.736 161.694 374.725 162.614C375.703 163.536 376.493 164.682 377.074 166.052C377.661 167.428 377.949 168.965 377.949 170.662V184.111H374.818V170.662C374.818 169.024 374.463 167.616 373.762 166.449C373.057 165.29 372.137 164.413 370.99 163.833C369.856 163.255 368.6 162.956 367.327 162.962C366.096 162.952 364.881 163.239 363.784 163.797C362.679 164.36 361.756 165.224 361.122 166.29C360.447 167.4 360.108 168.727 360.108 170.272V184.111L356.888 184.11ZM382.506 172.06C382.555 170.153 382.926 168.442 383.629 166.92C384.29 165.442 385.249 164.116 386.447 163.026C388.734 160.929 391.713 159.748 394.816 159.707C396.845 159.707 398.819 160.197 400.716 161.184C402.623 162.17 404.184 163.658 405.401 165.637C406.612 167.615 407.221 169.973 407.221 172.713V173.315H385.721C385.861 175.077 386.406 176.584 387.346 177.825C388.29 179.072 389.427 179.999 390.771 180.615C392.118 181.231 393.432 181.544 394.727 181.544C395.925 181.534 397.111 181.3 398.223 180.855C399.367 180.412 400.422 179.769 401.34 178.955C402.246 178.151 402.885 177.259 403.261 176.28H406.561C405.893 178.107 404.922 179.653 403.646 180.92C402.426 182.143 400.965 183.099 399.355 183.726C397.826 184.319 396.201 184.626 394.561 184.632C392.472 184.553 390.433 183.972 388.616 182.937C386.773 181.892 385.297 180.427 384.179 178.551C383.063 176.664 382.504 174.504 382.504 172.06H382.506ZM404.089 170.449C403.816 169.068 403.237 167.765 402.394 166.637C401.537 165.47 400.424 164.513 399.142 163.839C397.838 163.143 396.381 162.784 394.902 162.795C392.858 162.795 391.16 163.28 389.813 164.245C388.457 165.208 387.462 166.29 386.827 167.486C386.188 168.675 385.825 169.668 385.723 170.451L404.089 170.449ZM410.592 167.276C410.559 166.958 410.545 166.639 410.549 166.319C410.549 164.941 410.89 163.752 411.578 162.759C412.23 161.802 413.124 161.033 414.168 160.532C415.211 160.032 416.218 159.785 417.204 159.785C418.003 159.785 418.8 159.924 419.597 160.191C420.387 160.459 421.123 160.864 421.772 161.389C422.426 161.917 422.962 162.591 423.367 163.403C423.773 164.222 423.997 165.144 424.041 166.18H420.779C420.721 165.035 420.359 164.201 419.676 163.672C419.003 163.142 418.178 162.874 417.204 162.874C416.35 162.874 415.552 163.156 414.819 163.715C414.078 164.273 413.687 165.094 413.637 166.18C413.645 166.208 413.687 166.383 413.76 166.717L413.905 167.354C414.123 168.145 414.871 168.805 416.146 169.328C417.423 169.856 418.706 170.364 419.997 170.85C421.286 171.336 422.381 172.046 423.275 172.989C424.164 173.931 424.615 175.272 424.615 177.013C424.615 177.31 424.587 177.752 424.52 178.325C424.338 179.789 423.86 180.993 423.07 181.943C422.28 182.893 421.345 183.582 420.279 184.002C419.206 184.422 418.153 184.632 417.119 184.632C415.682 184.632 414.392 184.306 413.26 183.647C412.149 183.009 411.236 182.075 410.622 180.95C409.991 179.803 409.679 178.541 409.679 177.157L412.906 177.063C412.948 178.426 413.406 179.535 414.291 180.384C415.173 181.238 416.175 181.681 417.307 181.724C418.395 181.644 419.42 181.179 420.197 180.413C420.997 179.637 421.395 178.695 421.395 177.593C421.395 176.612 421.076 175.73 420.431 174.931C419.793 174.133 418.807 173.569 417.473 173.235C415.66 172.749 414.108 172.059 412.818 171.183C411.535 170.307 410.787 169.001 410.591 167.276" fill="black"/>
<path d="M60.7743 176.524C57.798 176.524 55.3848 175.993 55.3848 175.339C55.3848 174.685 57.798 174.154 60.7743 174.154H89.6928L90.767 174.182C93.2671 174.294 95.9633 173.779 98.9648 172.259C103.013 170.213 106.579 166.698 109.482 161.176H109.486L119.652 140.433V140.423C122.523 135.04 124.952 131.41 128.086 129.114C131.949 126.282 137.235 125.162 145.448 125.264H184.067C187.044 125.264 189.457 125.796 189.457 126.451C189.457 127.105 187.044 127.637 184.067 127.637H145.391L145.013 127.631C142.538 127.592 140.549 128.219 138.402 129.791C135.479 131.934 133.145 135.447 130.347 140.692H130.341L120.177 161.435V161.445C117.148 167.208 113.286 170.944 108.818 173.204C103.468 175.913 96.7981 176.798 89.2936 176.524H60.7743Z" fill="#E42129"/>
<path d="M193.432 193.125C195.417 193.125 197.026 193.479 197.026 193.915C197.026 194.352 195.416 194.706 193.432 194.706H164.759C158.033 194.909 152.26 194.265 148.002 192.273C144.318 190.55 141.772 187.707 140.789 183.321V183.312L138.002 167.597H137.999C137.067 163.625 135.988 160.97 133.843 159.359C132.174 158.105 129.91 157.611 126.399 157.653L126.203 157.656H95.3894C93.4062 157.656 91.7969 157.301 91.7969 156.864C91.7969 156.429 93.4062 156.074 95.3894 156.074H126.203C133.507 156.004 137.936 156.831 140.72 158.922C143.055 160.674 144.198 163.432 145.157 167.516V167.527L147.945 183.246H147.946C148.88 187.414 151.186 190.063 154.485 191.605C157.147 192.852 160.386 193.256 163.982 193.135L164.514 193.125H193.434" fill="#F7A707"/>
</svg>
