<svg width="480" height="320" viewBox="0 0 480 320" fill="none" xmlns="http://www.w3.org/2000/svg">
<path d="M55.5332 190.513V193.409H366.458L368.497 190.513M385.813 187.679C385.813 187.679 394.749 174.33 395.556 173.014C396.537 171.398 396.582 168.832 395.697 167.455C395.246 166.732 381.923 145.662 381.923 145.662C380.726 143.385 381.024 141.829 381.824 140.719C383.034 138.928 384.244 137.136 385.452 135.344C385.452 135.344 401.629 160.722 402.303 161.852C404.039 164.746 403.556 167.585 402.126 170.013C400.928 172.061 390.448 187.679 390.448 187.679" fill="#F79210"/>
<path d="M382.937 189.12C382.937 189.12 393.278 173.979 394.045 172.725C394.95 171.195 394.849 169.039 394.045 167.733C393.616 167.044 379.255 144.443 379.255 144.443C379.255 144.443 376.707 148.287 375.903 149.473C375.1 150.656 374.624 152.127 376.003 154.498C376.003 154.498 386.285 170.731 386.72 171.418C387.559 172.741 387.519 175.174 386.583 176.704C385.815 177.942 375.21 193.406 375.21 193.406H405.815C408.925 193.406 410.631 192.2 412.134 190.038C413.436 188.198 418.471 180.881 419.241 179.734C420.005 178.587 421.538 177.819 422.222 177.819H424.616L419.95 170.72H412.505C411.082 170.72 409.361 171.984 408.46 173.322C407.754 174.378 402.662 182.005 401.745 183.23C401.225 183.923 400.778 184.076 400.365 184.08C400.137 184.08 399.48 184.078 399.396 184.078C399.7 183.467 408.251 171.024 409.935 168.285C411.963 164.914 412.426 160.457 410.009 156.186C409.124 154.635 391.351 126.59 391.351 126.59C391.351 126.59 388.983 129.999 387.999 131.457C387.201 132.647 386.953 134.204 388.104 136.484C388.104 136.484 403.024 160.213 403.736 161.303C405.469 164.007 405.252 167.623 403.736 170.086C402.495 172.115 392.189 187.678 392.189 187.678H400.356C403.314 187.678 404.041 186.581 404.857 185.67C405.672 184.76 410.114 178.024 410.618 177.312C411.13 176.612 412.426 174.622 414.129 174.622H419.494V174.775C418.35 175.007 417.224 175.696 416.407 176.818C415.591 177.924 410.2 185.905 409.552 186.837C408.736 188.009 407.801 189.12 405.457 189.12" fill="#F79210"/>
<path d="M59.7966 179.668H63.5013C64.3526 179.668 64.9261 180.157 64.9261 181.103C64.9261 182.047 64.3526 182.539 63.5013 182.539H55.5291V185.014H63.2216C66.2067 185.014 67.6779 183.045 67.6779 181.044C67.6779 179.044 66.2067 177.094 63.2216 177.094C61.9392 177.094 59.4955 177.099 59.4955 177.099C58.6674 177.099 58.1098 176.622 58.1098 175.705C58.1098 174.784 58.6674 174.306 59.4955 174.306H67.4819V171.831H59.7966C56.84 171.831 55.3848 173.574 55.3848 175.758C55.3848 177.94 56.84 179.668 59.7966 179.668ZM135.504 185.011H141.388V176.41H138.496V182.466H135.106C132.659 182.466 131.021 181.053 131.021 178.351C131.021 175.633 132.659 174.237 135.106 174.237H141.388V171.829H135.504C130.54 171.829 128.092 175.389 128.092 178.435C128.092 181.477 130.54 185.011 135.504 185.011ZM70.638 185.011H73.5324V171.829H70.638V185.011ZM115.826 174.239H120.619C121.795 174.239 122.544 175.311 122.544 176.305V185.013H125.433V175.936C125.433 173.692 123.836 171.829 121.273 171.829H117.479L115.826 174.027V171.829H112.934V185.013H115.826M198.396 174.241H202.939C204.003 174.241 204.676 175.263 204.676 176.184C204.676 177.101 204.003 178.095 202.939 178.095H199.384L205.144 185.013H208.571L204.487 180.097H204.492C206.25 179.529 207.378 177.919 207.378 176.1C207.378 173.829 205.625 171.829 203.064 171.829H195.548V185.013H198.396M109.818 185.011V182.599L102.099 182.601V179.226H108.823V176.829H102.099V174.237L109.818 174.241V171.829H99.1908V185.011H102.099M80.0742 181.187L86.219 181.19L87.9253 185.011H91.0868L84.6321 171.829H81.6452L75.1923 185.011H78.3734L80.0742 181.187ZM83.1396 174.103L85.2306 178.866L81.061 178.877M308.608 178.611V178.604L310.259 180.8H313.215C315.7 180.8 317.454 178.727 317.454 176.342C317.454 173.941 315.7 171.827 313.215 171.827H305.699V185.011H308.608V178.611ZM308.608 174.237H313.093C314.152 174.237 314.831 175.345 314.831 176.342C314.831 177.332 314.152 178.408 313.093 178.408H308.608M276.749 185.563C280.696 185.563 283.908 182.35 283.908 178.403C283.908 174.44 280.696 171.23 276.749 171.23C272.788 171.23 269.593 174.44 269.593 178.403C269.593 182.35 272.788 185.563 276.749 185.563ZM276.749 173.891C279.227 173.891 281.245 175.911 281.245 178.403C281.245 180.88 279.227 182.897 276.749 182.897C274.258 182.897 272.238 180.88 272.238 178.403C272.238 175.911 274.258 173.891 276.749 173.891ZM321.704 181.183L327.849 181.189L329.555 185.009H332.717L326.262 171.827H323.275L316.822 185.009H320.003L321.704 181.183ZM324.769 174.1L326.86 178.864L322.691 178.873M144.965 185.011H147.857V171.829H144.965V185.011ZM337.266 174.237H342.058C343.234 174.237 343.984 175.307 343.984 176.301V185.011H346.873V175.934C346.873 173.688 345.273 171.827 342.71 171.827H338.917L337.266 174.023V171.827H334.373V185.011H337.266M354.045 185.009L356.893 185.007L356.891 179.251L362.144 171.841H358.776L355.506 176.478L351.803 171.845L348.453 171.847L354.042 179.149M154.226 174.239H159.021C160.197 174.239 160.945 175.311 160.945 176.305V185.013H163.834V175.936C163.834 173.692 162.236 171.829 159.673 171.829H155.879L154.226 174.027V171.829H151.336V185.013H154.226M178.004 185.011V182.599L170.283 182.601V179.226H177.008V176.829H170.283V174.237L178.004 174.241V171.829H167.376V185.011H170.283M192.114 185.011V182.599L184.393 182.601V179.226H191.118V176.829H184.393V174.237L192.114 174.241V171.829H181.486V185.011H184.393M210.674 185.011H213.569V171.829H210.674V185.011ZM219.954 174.239H224.747C225.922 174.239 226.672 175.311 226.672 176.305V185.013H229.561V175.936C229.561 173.692 227.964 171.829 225.401 171.829H221.605L219.954 174.027V171.829H217.061V185.013H219.954M239.254 185.011H245.139V176.41H242.246V182.466H238.858C236.41 182.466 234.771 181.053 234.771 178.351C234.771 175.633 236.41 174.237 238.858 174.237H245.139V171.829H239.254C234.292 171.829 231.843 175.389 231.843 178.435C231.843 181.477 234.292 185.011 239.254 185.011ZM266.667 171.849V174.424H260.374C259.708 174.424 257.23 175.402 257.23 178.437C257.23 181.942 259.631 182.532 260.184 182.532H266.656V185.011H259.993C258.618 185.011 254.39 184.019 254.39 178.437C254.39 172.923 259.099 171.849 259.993 171.849M298.215 171.832H291.559L289.906 174.029V171.832H287.014V185.009H289.906V174.242H293.226V185.009H296.133V174.242H297.563C298.739 174.242 299.489 175.313 299.489 176.308V185.009H302.376V175.942C302.376 173.695 300.778 171.832 298.215 171.832Z" fill="#142354"/>
</svg>
