<svg width="480" height="320" viewBox="0 0 480 320" fill="none" xmlns="http://www.w3.org/2000/svg">
<path d="M398.73 120.285C397.701 120.671 397.077 121.369 396.122 123.187C395.185 125.006 395.093 125.079 393.182 125.263C391.492 125.428 390.06 125.134 388.259 124.271C386.808 123.573 386.772 123.555 385.945 123.812C384.935 124.106 384.383 124.638 384.53 125.171C384.585 125.373 384.457 126.31 384.273 127.247C384.071 128.165 383.832 129.561 383.722 130.315C383.612 131.068 383.336 132.17 383.116 132.739L382.693 133.786L383.594 134.558L384.512 135.329L386.937 134.356C388.259 133.823 389.362 133.346 389.398 133.327C389.435 133.309 389.582 132.721 389.747 132.023C390.096 130.498 391.052 128.386 391.731 127.669C392.76 126.622 394.67 126.163 395.993 126.659C396.269 126.751 397.058 127.467 397.756 128.22C399.189 129.763 399.41 129.818 401.467 129.304C402.661 128.992 403.249 128.624 405.233 126.861L406.537 125.722H408.594C412.287 125.722 414.216 126.365 415.593 128.055C416.346 128.955 416.438 129.176 416.438 129.966C416.438 130.829 416.401 130.902 415.612 131.453C415.152 131.784 414.785 132.096 414.785 132.188C414.785 132.445 415.648 132.905 417.026 133.382C419.745 134.319 422.5 133.878 423.878 132.28C424.704 131.325 424.796 130.81 424.356 129.525C423.235 126.292 420.957 124.161 417.596 123.224C416.787 122.985 415.207 122.893 411.019 122.783C407.988 122.71 405.141 122.581 404.682 122.507C404.112 122.397 403.598 122.14 403.028 121.626C401.467 120.266 400.034 119.807 398.73 120.285ZM280.706 120.487C280.357 120.652 279.696 121.075 279.255 121.442L278.446 122.103L278.575 129.561C278.704 137.919 278.795 136.854 276.995 150.98C276.261 156.748 276.242 156.932 276.352 160.9C276.481 165.419 276.701 167.715 277.105 168.891C277.51 170.048 278.851 172.344 279.512 173.06C280.485 174.071 280.706 173.942 282.341 171.425C284.655 167.917 284.986 166.686 285.004 161.818C285.004 159.338 284.931 158.144 284.692 157.042C284.325 155.371 283.443 147.38 283.314 144.441C283.204 142.2 283.608 139.022 284.196 137.35C284.582 136.266 284.637 135.146 284.747 124.363C284.747 123.316 284.674 122.912 284.233 122.085C283.957 121.534 283.498 120.909 283.241 120.726C282.598 120.248 281.477 120.138 280.706 120.487H280.706ZM341.987 120.652C340.352 121.24 339.47 122.416 339.47 124.014C339.47 125.153 340.058 126.42 341.27 127.871C341.803 128.496 342.225 129.084 342.225 129.176C342.225 129.341 338.827 129.58 336.457 129.58C335.006 129.58 334.51 129.8 334.051 130.682C333.445 131.839 333.757 133.346 334.786 134.209C335.521 134.852 339.084 135.678 339.525 135.311C339.782 135.091 344.062 134.099 345.899 133.823C347.865 133.511 351.465 133.842 354.68 134.631L357.454 135.311L358.005 134.889C358.74 134.356 359.383 133.033 359.236 132.409C359.034 131.655 357.913 130.572 356.756 130.057L355.672 129.58L351.667 129.763C349.481 129.855 347.608 129.892 347.534 129.837C347.13 129.598 347.387 128.037 348.049 126.567C348.544 125.465 348.728 124.822 348.728 124.087C348.747 123.15 348.71 123.077 347.92 122.379C346.891 121.46 345.734 120.873 344.466 120.597C343.236 120.34 342.85 120.358 341.987 120.652V120.652Z" fill="#D7000F"/>
<path d="M322.827 121.496C322.148 121.771 321.523 122.727 321.193 124.012C320.439 126.86 318.364 129.597 315.81 131.048C314.837 131.599 314.653 131.801 314.396 132.518C314.139 133.289 314.157 133.546 314.58 136.228C314.818 137.826 315.167 139.7 315.333 140.416C315.627 141.574 315.627 141.904 315.424 143.117C315.112 144.972 315.112 144.972 314.23 145.192C312.779 145.56 310.85 146.331 310.556 146.644C309.767 147.525 310.446 148.444 312.871 149.803C315.682 151.383 315.663 151.346 315.535 154.377C315.333 159.282 313.33 164.811 309.785 170.23L308.609 172.03L309.014 172.379C309.252 172.581 309.491 172.728 309.583 172.747C310.061 172.765 312.467 171.296 313.239 170.506C314.929 168.76 317.39 164.738 318.529 161.817C319.484 159.374 320.403 157.5 320.66 157.5C320.807 157.5 321.615 157.831 322.478 158.235C323.783 158.823 324.132 158.914 324.407 158.749C325.197 158.253 325.362 156.82 324.848 154.855C324.37 152.963 323.489 152.173 321.615 151.897C320.476 151.732 319.943 151.163 319.925 150.079C319.907 149.638 319.962 149.215 320.017 149.16C320.109 149.05 322.368 149.215 325.656 149.528C326.556 149.619 326.63 149.675 326.905 150.299C327.732 152.283 327.916 153.459 327.916 156.765C327.916 160.292 327.585 162.772 327.016 163.544C326.483 164.297 325.124 165.123 323.489 165.693L322.001 166.226L322.111 168.43C322.313 171.81 322.956 172.71 325.289 172.894C326.557 172.967 326.612 172.967 327.512 172.306C328.687 171.442 330.065 169.403 330.836 167.383C331.167 166.538 331.461 165.821 331.498 165.785C331.535 165.748 331.884 166.005 332.288 166.373C332.692 166.721 333.225 167.162 333.482 167.328C333.941 167.622 333.978 167.622 334.786 167.144C336.531 166.134 338.864 163.36 339.727 161.266C340.48 159.466 341.564 152.687 341.895 147.581C342.115 144.366 342.152 144.164 342.593 143.668C342.96 143.264 343.309 143.117 344.246 142.951C345.679 142.731 346.359 142.933 346.653 143.668C346.928 144.329 346.524 152.614 346.175 153.918C345.44 156.563 345.238 162.239 345.789 164.554C346.708 168.412 351.172 171.828 355.25 171.828C356.444 171.828 358.538 171.222 360.191 170.414C362.065 169.495 362.193 166.281 360.43 164.793C359.346 163.874 357.27 163.874 356.095 164.774C355.507 165.215 355.213 165.307 354.331 165.307C353.541 165.307 353.137 165.215 352.751 164.921C351.539 164.04 350.804 161.743 350.198 157.169C349.904 154.892 349.904 154.616 350.198 152.577C350.363 151.401 350.786 149.271 351.135 147.856C351.465 146.442 351.925 144.09 352.163 142.639C352.659 139.535 352.733 139.7 350.51 139.204C349.243 138.928 348.783 138.91 345.348 139.149C343.273 139.278 340.719 139.369 339.654 139.333C337.78 139.296 337.707 139.296 337.266 139.773L336.825 140.251L337.339 141.721C337.835 143.117 337.872 143.337 337.762 145.156C337.652 147.213 337.303 149.179 336.237 153.734C335.043 158.859 333.923 161.56 332.306 163.231C331.81 163.746 331.351 164.131 331.314 164.095C331.259 164.04 331.314 161.027 331.424 157.39L331.645 150.758L333.812 149.344C335.759 148.076 335.98 147.874 335.98 147.397C335.98 146.901 335.815 146.772 334.125 145.89L332.288 144.917L332.398 144.274C332.931 140.912 333.426 136.044 333.371 134.612C333.316 133.087 333.243 132.83 332.673 131.875C332.049 130.846 331.957 130.772 329.973 129.836L327.916 128.862L327.622 127.888C327.456 127.356 327.218 126.162 327.071 125.225C326.777 123.278 326.483 122.616 325.656 121.992C324.995 121.496 323.47 121.239 322.827 121.496H322.827ZM325.693 132.664C326.465 133.05 327.31 134.483 327.989 136.632C328.43 137.992 328.797 140.986 328.816 143.19V144.054L327.585 144.366C326.318 144.678 325.601 144.99 324.683 145.652C324.26 145.946 323.874 146.001 322.589 146.001C321.725 146.001 320.825 145.89 320.605 145.762C319.943 145.413 319.649 144.623 319.282 142.217C318.823 139.075 318.97 134.097 319.558 133.307C320.182 132.481 320.641 132.334 322.938 132.334C324.591 132.334 325.197 132.407 325.693 132.664Z" fill="#D7000F"/>
<path d="M321.981 137.975C321.688 138.71 321.559 142.476 321.835 142.971C322.202 143.688 323.102 144.092 324.333 144.092C324.939 144.092 325.582 143.982 325.747 143.853C326.133 143.559 326.574 142.292 326.721 141.043L326.849 140.051L326.133 139.775C324.406 139.096 323.653 138.673 323.102 138.104C322.367 137.35 322.257 137.332 321.981 137.975ZM199.218 123.867C199.016 123.959 198.097 124.051 197.161 124.051C195.728 124.069 195.269 124.161 194.038 124.639C193.248 124.951 191.944 125.355 191.136 125.502C190.327 125.667 189.299 126.016 188.839 126.274C187.884 126.843 184.596 127.817 182.631 128.092C181.896 128.202 180.646 128.294 179.857 128.294C179.048 128.294 177.266 128.423 175.87 128.57C172.343 128.974 172.086 129.121 171.26 131.417C170.323 133.989 169.919 135.44 169.919 136.34C169.919 136.781 169.79 137.718 169.625 138.416C169.404 139.426 169.349 140.4 169.404 142.77C169.478 145.47 169.551 145.984 169.955 147.123C170.213 147.821 170.562 149.438 170.727 150.668C170.966 152.413 171.149 153.185 171.572 154.03C171.921 154.71 172.123 155.389 172.123 155.867C172.123 157.024 173.078 158.843 174.511 160.349C175.705 161.616 175.852 161.892 176.238 163.747C176.293 164.005 176.679 164.592 177.083 165.07C177.983 166.117 178.92 166.466 179.801 166.08C180.849 165.639 182.392 163.013 182.447 161.561C182.502 160.312 182.153 157.63 181.767 156.4C181.528 155.646 180.996 154.232 180.591 153.277C180.187 152.322 179.838 151.293 179.838 151.017C179.838 150.742 179.636 150.117 179.397 149.64C178.736 148.317 178.387 147.086 178.222 145.47C178.13 144.643 177.909 143.725 177.744 143.412C177.524 142.971 177.45 142.329 177.45 140.969C177.45 138.747 177.689 138.287 179.305 137.479C179.857 137.185 180.738 136.634 181.234 136.248C181.73 135.863 182.979 135.128 184.026 134.613L185.919 133.677L186.047 134.246C186.102 134.558 186.157 134.852 186.139 134.907C186.121 134.981 185.974 135.954 185.808 137.112C185.551 139.04 185.478 139.279 184.816 140.124C183.824 141.447 183.696 141.759 183.696 142.714C183.696 146.26 184.963 148.813 187.26 149.897C187.884 150.209 187.921 150.209 188.307 149.86C188.858 149.364 190.254 147.38 190.493 146.737C190.603 146.443 190.786 145.764 190.897 145.213C190.989 144.662 191.282 143.89 191.54 143.467C191.815 143.045 192.293 142.126 192.605 141.428C193.266 139.996 194.056 139.243 195.122 139.04C195.71 138.93 195.82 138.967 196.132 139.445C196.316 139.72 196.83 140.308 197.289 140.712L198.116 141.484L198.171 143.614C198.245 145.764 197.951 147.564 197.363 148.703C197.05 149.309 192.826 153.387 191.76 154.103C190.75 154.783 188.086 157.447 187.039 158.806C186.268 159.816 185.349 162.094 185.349 162.957C185.349 163.527 186.011 164.831 186.525 165.235C186.727 165.419 187.186 165.621 187.498 165.695C187.829 165.75 188.656 166.172 189.335 166.595C190.033 167.036 191.283 167.623 192.127 167.899C193.615 168.395 193.726 168.395 195.214 168.174C196.977 167.917 197.914 167.605 199.218 166.778C200.43 166.007 203.461 164.299 203.608 164.299C203.682 164.299 204.049 164.519 204.453 164.776C205.096 165.199 205.354 165.254 206.805 165.254C207.907 165.254 208.605 165.162 208.972 164.978C209.597 164.648 212.903 162.26 214.134 161.213C214.63 160.827 215.383 160.312 215.843 160.074C216.302 159.853 216.853 159.486 217.092 159.265C217.33 159.063 218.065 158.512 218.745 158.053C219.737 157.373 220.031 157.079 220.288 156.4C220.472 155.94 220.821 155.04 221.096 154.379C221.996 152.156 222.088 151.55 222.088 148.133C222.088 145.874 221.978 144.221 221.721 142.531C221.188 139.04 221.059 138.563 219.829 135.679C218.745 133.144 218.653 132.997 217.055 131.27C216.136 130.297 215.218 129.286 215.016 129.029C213.638 127.284 208.936 124.933 205.372 124.198C203.682 123.849 199.714 123.647 199.218 123.867H199.218ZM204.38 127.945C207.613 129.378 209.725 130.701 213.51 133.695C216.596 136.138 217.624 138.471 217.808 143.376C217.937 146.866 217.643 148.446 216.357 150.981C214.373 154.912 213.216 156.069 210.515 156.877C209.67 157.134 207.558 158.384 207.319 158.769C207.246 158.88 206.915 159.1 206.566 159.229C205.96 159.486 205.96 159.486 205.023 158.586C204.435 158.016 203.921 157.686 203.645 157.686C203.406 157.686 202.892 157.557 202.506 157.392C201.624 157.024 200.32 157.171 198.502 157.814C197.234 158.273 196.297 158.402 196.059 158.163C195.599 157.704 200.155 151.844 203.645 148.409C205.886 146.205 206.015 145.892 205.886 142.99L205.794 141.061L204.784 139.316C204.233 138.361 203.443 136.946 203.02 136.193C202.488 135.183 201.973 134.558 201.22 133.952L200.192 133.125L198.593 133.695C197.657 134.026 196.169 134.797 195.011 135.532C193.303 136.616 191.778 137.277 190.842 137.295C190.621 137.295 190.309 135.165 190.309 133.585V131.968L191.099 131.472C193.156 130.168 197.951 128.184 200.32 127.651C202.139 127.247 202.984 127.321 204.38 127.945L204.38 127.945ZM251.608 124.547C250.763 125.116 249.551 126.917 249.165 128.184C248.779 129.488 248.632 132.979 248.889 135.275C249.22 138.195 248.724 145.764 247.971 149.493C247.401 152.303 245.087 159.063 244.26 160.312C243.158 161.947 242.846 162.792 242.846 164.078C242.846 165.915 243.617 167.293 245.234 168.34C246.85 169.369 247.089 169.13 248.797 164.758C252.177 156.051 252.875 153.938 253.133 151.385C253.353 149.199 253.794 147.527 254.382 146.701C255.08 145.727 255.263 143.559 255.171 137.167C255.116 134.117 255.153 133.75 255.484 133.034C256.274 131.399 256.623 130.278 256.623 129.415C256.623 128.643 256.512 128.368 255.815 127.413C255.355 126.806 254.786 125.98 254.529 125.557C254.125 124.914 252.93 124.069 252.453 124.069C252.361 124.069 251.975 124.29 251.608 124.547H251.608ZM267.369 130.076C266.175 131.325 265.991 132.097 265.789 136.377C265.587 140.988 265.183 143.265 264.411 144.129C264.191 144.349 264.154 144.606 264.228 145.047C264.301 145.378 264.411 147.454 264.485 149.64C264.613 153.516 264.632 153.626 265.054 154.085C265.403 154.471 265.679 154.563 266.34 154.563H267.185L268.14 152.579C268.985 150.815 269.096 150.448 269.187 149.052C269.335 147.031 269.647 145.323 270.455 142.255C271.373 138.838 271.686 136.854 271.686 134.558C271.667 130.664 270.933 129.213 268.967 129.213C268.306 129.213 268.104 129.323 267.369 130.076ZM393.659 134.43C393.218 134.669 392.006 137.185 391.731 138.398C391.418 139.794 391.124 143.449 391.308 143.67C391.639 144.074 392.282 143.927 392.833 143.357C394.045 142.09 397.462 140.051 398.472 139.977C399.207 139.922 399.574 139.481 399.74 138.453C400.07 136.377 400.089 136.395 398.252 135.293C396.764 134.411 396.47 134.301 395.349 134.228C394.504 134.191 393.972 134.246 393.659 134.43ZM408.722 137.847C408.171 140.051 407.969 141.171 408.043 141.704C408.171 142.641 408.777 143.927 409.476 144.662C410.008 145.231 410.008 145.231 411.643 145.158C413.204 145.102 413.333 145.066 414.343 144.368C414.913 143.964 415.648 143.321 415.942 142.953C417.025 141.594 416.731 139.39 415.188 137.424C414.564 136.597 414.325 136.469 412.213 135.642C410.945 135.146 409.824 134.742 409.714 134.724C409.604 134.724 409.163 136.12 408.722 137.847ZM396.158 149.713C394.541 150.301 393.292 151.918 393.292 153.442C393.292 154.654 393.751 154.82 397.186 154.857C400.327 154.893 400.934 155.04 401.338 155.885C401.668 156.583 401.65 159.449 401.283 161.525C401.117 162.48 400.915 163.913 400.86 164.739C400.695 166.576 400.548 166.687 398.142 166.687C396.801 166.687 395.919 166.54 393.549 165.952C389.949 165.033 389.563 165.052 388.755 166.099C387.891 167.238 387.689 168.266 387.763 171.297L387.781 172.326L389.03 172.877C391.198 173.832 391.712 173.906 395.276 173.796C397.058 173.722 398.895 173.594 399.354 173.483C401.136 173.061 404.02 172.749 407.712 172.565C411.772 172.381 412.176 172.308 413.498 171.646C415.446 170.673 416.254 169.571 416.291 167.881C416.309 166.576 415.409 165.823 413.131 165.162C411.974 164.831 410.908 164.978 408.704 165.823C407.418 166.319 404.957 166.76 404.02 166.65L403.469 166.595L405.838 160.441C407.143 157.061 408.263 153.993 408.3 153.644C408.392 152.873 407.841 151.936 406.885 151.293C406.224 150.834 406.132 150.834 404.02 151.183C403.377 151.274 403.009 151.183 401.246 150.356C399.464 149.53 399.097 149.419 398.05 149.438C397.407 149.438 396.543 149.566 396.158 149.713H396.158ZM328.209 181.603C328.282 182.54 328.337 186.562 328.356 190.512V197.731H333.646L333.536 196.666C333.462 196.096 333.352 192.992 333.297 189.777L333.168 183.954H334.583C336.236 183.954 337.485 184.229 337.908 184.689C338.422 185.258 338.441 186.177 337.963 186.893C337.467 187.628 336.659 187.977 335.373 187.977C334.785 187.995 334.473 188.087 334.399 188.252C334.344 188.399 335.171 190.585 336.254 193.12L338.22 197.731H341.049C342.61 197.731 343.878 197.694 343.878 197.639C343.878 197.584 343.014 195.986 341.949 194.057C340.884 192.147 340.02 190.512 340.02 190.42C340.02 190.31 340.59 189.777 341.288 189.226C342.886 187.922 343.327 187.077 343.327 185.313C343.327 183.219 342.188 181.29 340.424 180.427C339.579 180.023 339.396 180.005 333.811 179.949L328.062 179.876L328.209 181.603H328.209ZM346.045 187.848C346.064 192.22 346.137 196.078 346.193 196.408C346.248 196.776 346.468 197.125 346.78 197.327C347.203 197.603 347.864 197.639 353.338 197.639H359.4L359.455 195.655L359.51 193.69H355.69C353.595 193.69 351.759 193.616 351.63 193.524C351.428 193.414 351.373 192.018 351.373 186.636L351.354 179.913H345.991L346.045 187.848ZM361.605 188.822V197.731H366.95L366.932 188.822V179.913H361.605V188.822ZM369.908 188.767L369.981 197.639L372.369 197.694L374.757 197.749L374.647 195.949C374.426 192.551 374.445 187.573 374.665 187.499C374.775 187.463 375.143 187.867 375.492 188.399C375.823 188.932 376.998 190.769 378.082 192.459C379.166 194.149 380.323 196.041 380.617 196.647L381.186 197.731L384.254 197.694L387.322 197.639V196.849C387.304 196.427 387.285 192.441 387.267 187.995L387.23 179.913H382.435L382.546 182.337C382.601 183.678 382.674 186.103 382.693 187.72C382.729 190.144 382.693 190.659 382.472 190.659C382.325 190.659 380.892 188.344 379.166 185.295L376.116 179.913H369.834L369.907 188.767H369.908ZM390.463 180.409C390.537 180.684 390.61 184.689 390.61 189.318L390.628 197.731H404.13V193.965L399.997 194.039L395.864 194.094V190.751H402.844V187.113C402.844 187.04 401.301 186.985 399.391 186.985H395.955L395.9 185.295L395.845 183.623L397.094 183.476C397.774 183.403 399.648 183.403 401.246 183.476L404.13 183.587V179.913H390.353L390.463 180.409H390.463ZM410.982 180.188C409.641 180.556 408.612 181.29 408.024 182.282C407.62 182.98 407.528 183.348 407.528 184.432C407.528 186.268 408.024 187.003 411.165 189.704C414.215 192.33 414.527 192.992 413.002 193.635C412.066 194.02 410.284 193.855 408.667 193.249L407.436 192.79V194.884C407.436 197.309 407.124 197.033 410.284 197.474C414.123 197.988 416.052 197.657 417.723 196.151C418.715 195.251 419.175 194.241 419.193 192.992C419.193 191.173 418.385 189.961 415.923 188.069C412.984 185.791 412.507 185.203 413.039 184.395C413.388 183.862 414.582 183.531 415.592 183.678C416.401 183.807 418.256 184.266 418.734 184.432C418.973 184.523 419.009 184.248 419.009 182.448V180.335L416.934 180.115C414.233 179.857 412.176 179.876 410.982 180.188ZM175.962 180.28C172.417 180.703 170.47 183.587 171.829 186.434C172.288 187.407 172.986 188.124 175.374 190.089C177.891 192.147 178.24 192.771 177.34 193.488C176.624 194.057 174.493 194.02 172.766 193.414C172.068 193.157 171.462 192.955 171.443 192.955C171.407 192.955 171.388 193.892 171.388 195.049V197.125L173.648 197.345C174.878 197.474 176.073 197.603 176.274 197.658C176.826 197.749 179.434 197.419 180.114 197.143C182.006 196.408 183.145 194.847 183.145 193.01C183.145 191.32 182.337 190.126 179.948 188.307C177.23 186.25 176.568 185.479 176.826 184.78C177.156 183.917 179.195 183.715 181.491 184.321C182.245 184.523 182.888 184.689 182.924 184.689C182.943 184.689 182.961 183.789 182.961 182.686V180.684L182.189 180.574C181.749 180.519 180.775 180.427 180.022 180.372C179.269 180.317 178.313 180.243 177.91 180.206C177.505 180.17 176.624 180.206 175.962 180.28V180.28ZM185.9 180.188C185.9 180.188 185.9 184.119 185.882 188.914V197.639H191.264L191.246 188.914L191.227 180.188H185.9H185.9ZM200.871 180.39C198.869 180.739 197.253 181.566 195.912 182.925C194.222 184.634 193.634 186.14 193.615 188.822C193.615 192.422 195.177 195.031 198.244 196.519C199.971 197.345 201.202 197.566 204.876 197.676L208.311 197.786V196.243C208.311 193.69 208.513 193.873 205.537 193.873C202.506 193.873 201.533 193.598 200.284 192.367C199.273 191.375 198.869 190.199 198.979 188.656C199.089 187.371 199.457 186.526 200.302 185.644C201.331 184.523 201.68 184.432 205.041 184.358L208.127 184.285L208.017 182.411C207.962 181.401 207.889 180.445 207.833 180.317C207.742 180.004 202.8 180.041 200.871 180.39ZM211.489 188.95L211.471 197.731H216.761V190.567H223.613L223.484 194.149L223.356 197.731H228.793L228.811 188.95L228.83 180.188H223.503L223.539 183.44L223.576 186.709H216.724L216.853 183.44L216.981 180.188H211.526L211.489 188.95ZM231.805 180.225C231.805 180.317 231.787 183.274 231.787 186.838L231.769 193.304L232.265 194.333C233.128 196.096 235.314 197.217 238.529 197.547C242.993 198.007 246.887 196.757 248.007 194.48C248.448 193.598 248.448 193.524 248.503 186.838L248.559 180.096H243.213V184.45C243.213 189.593 243.011 191.908 242.515 192.569C241.872 193.451 241.247 193.763 240.219 193.763C238.896 193.763 237.959 193.267 237.463 192.33C237.077 191.614 237.059 191.339 237.004 185.828L236.93 180.096H234.377C232.981 180.096 231.824 180.151 231.805 180.225H231.805ZM253.5 188.767C251.351 193.543 249.551 197.511 249.514 197.603C249.459 197.676 250.744 197.713 252.343 197.694L255.245 197.639L256.182 195.159L257.137 192.679H263.511L264.356 195.159L265.201 197.639L268.012 197.694C270.62 197.731 270.804 197.713 270.712 197.419C270.602 196.996 263.989 180.849 263.768 180.409C263.603 180.133 263.254 180.096 260.517 180.096H257.431L253.5 188.767ZM261.583 186.911C261.895 187.885 262.134 188.767 262.134 188.895C262.134 189.024 261.564 189.097 260.388 189.097C259.433 189.097 258.643 189.042 258.643 188.95C258.643 188.693 260.15 184.964 260.352 184.725C260.664 184.34 260.958 184.872 261.583 186.911ZM272.2 188.858L272.255 197.639L274.643 197.694L277.013 197.749L276.866 194.571C276.664 189.832 276.701 187.573 276.958 187.499C277.068 187.462 277.38 187.738 277.619 188.124C277.876 188.51 279.015 190.31 280.172 192.128C281.348 193.947 282.542 195.949 282.873 196.574L283.442 197.731H289.743L289.633 196.206C289.559 195.38 289.504 191.412 289.504 187.389V180.096H284.691L284.801 181.694C285.059 185.515 285.132 190.512 284.949 190.64C284.655 190.806 284.306 190.291 281.183 184.964L278.391 180.188L275.249 180.133L272.127 180.096L272.2 188.859L272.2 188.858ZM300.985 188.656C298.873 193.359 297.091 197.29 297.072 197.382C297.017 197.492 298.119 197.529 299.901 197.511L302.785 197.455L303.704 195.012L304.622 192.588H311.088L311.878 195.067L312.668 197.547H315.497C317.058 197.547 318.344 197.529 318.344 197.492C318.344 197.474 316.746 193.561 314.799 188.822L311.272 180.188L308.057 180.151L304.843 180.096L300.985 188.656ZM308.443 184.817C308.553 185.111 308.847 185.993 309.086 186.801C309.325 187.609 309.582 188.418 309.637 188.583C309.729 188.877 309.564 188.914 307.91 188.914H306.073L306.863 186.875C307.58 185.056 307.966 184.321 308.168 184.321C308.223 184.321 308.333 184.542 308.443 184.817ZM319.704 188.914V197.731H325.049V180.096H319.722L319.704 188.914ZM97.6545 114.55C91.8211 114.951 85.6126 116.645 80.3741 119.284C77.6967 120.616 74.7217 122.556 72.0702 124.677C70.35 126.048 66.7671 129.644 65.3573 131.416C60.7137 137.25 57.5708 143.95 56.1738 150.947C55.4624 154.53 55.3848 155.435 55.3848 160.001C55.3848 163.403 55.4365 164.58 55.6175 165.822C56.8981 174.527 59.8083 181.408 65.0985 188.263C66.5213 190.1 70.4405 194.058 72.2642 195.506C76.8559 199.128 81.2149 201.482 86.6215 203.267C98.0554 207.057 110.589 206.113 121.337 200.68C128.206 197.214 134.246 191.872 138.566 185.482C142.201 180.101 144.477 174.501 145.654 168.085C146.197 165.085 146.314 163.687 146.314 160.001C146.314 155.539 145.965 152.693 144.956 148.684C142.783 140.095 137.829 131.946 131.206 126.074C121.868 117.783 110.007 113.709 97.6545 114.55ZM105.687 117.706C111.262 118.352 116.694 120.124 121.583 122.867C132.487 128.984 140.325 139.798 142.615 151.917C143.067 154.336 143.119 154.038 142.149 154.22C139.484 154.724 135.242 157.285 127.701 162.976C125.174 164.876 122.647 166.777 120.122 168.68C114.637 172.819 112.814 173.919 109.916 174.902C108.791 175.29 108.312 175.38 107.252 175.419C106.101 175.471 105.894 175.445 105.376 175.173C104.562 174.747 104.277 174.203 104.29 173.065C104.303 171.953 104.445 171.461 105.609 168.667C106.709 166.029 106.838 165.511 106.773 164.36C106.722 163.274 106.346 162.705 105.415 162.252C104.885 161.98 104.613 161.941 103.566 161.954C102.505 161.967 102.104 162.045 100.72 162.498C93.5931 164.787 88.3288 165.757 82.9092 165.757C77.9424 165.757 74.3596 164.994 70.6474 163.131C68.7201 162.174 67.2068 161.088 65.4866 159.419C63.1972 157.195 61.7485 155.151 60.2223 151.995L59.4204 150.326L59.5756 149.537C59.7825 148.528 60.6491 145.864 61.2699 144.286C65.4607 133.822 73.7516 125.311 84.0733 120.875C88.691 118.896 92.9851 117.9 98.7151 117.46C99.8922 117.369 104.083 117.525 105.687 117.706ZM59.847 163.636C62.4857 165.744 65.5382 167.413 68.72 168.46C72.2641 169.637 75.2519 170.155 78.4856 170.155C83.2195 170.155 87.4491 169.094 95.8694 165.783C97.8613 165.007 100.164 164.153 100.978 163.881C103.488 163.067 105.04 163.131 105.389 164.05C105.596 164.593 105.247 165.783 104.199 167.995C102.789 171.021 102.492 171.991 102.479 173.712C102.466 175.354 102.673 175.975 103.488 176.79C104.561 177.864 105.932 178.226 108.545 178.135C111.494 178.032 113.59 177.385 117.767 175.328C121.492 173.492 124.144 171.94 129.887 168.24C134.737 165.097 136.587 164.063 138.618 163.351C139.769 162.95 141.838 162.795 142.744 163.041L143.3 163.183L143.209 164.05C143.132 164.903 142.821 167.063 142.692 167.697C142.627 168.02 142.615 168.02 141.308 167.982C138.514 167.891 136.574 168.628 130.534 172.082C122.773 176.518 116.784 178.976 111.326 179.933C109.645 180.231 106.877 180.231 105.764 179.946C103.242 179.273 101.742 177.851 101.16 175.574C100.72 173.88 101.108 172.147 102.608 169.042C103.94 166.287 104.031 165.925 103.54 165.304C103.281 164.968 103.229 164.955 102.35 165.007C101.16 165.071 100.707 165.265 94.6407 168.215C89.3764 170.775 87.6043 171.539 85.1985 172.263C82.0683 173.207 79.7273 173.569 76.6618 173.556C72.8073 173.543 69.3409 172.793 65.5382 171.164C63.0548 170.103 59.2003 167.93 58.9546 167.451C58.8511 167.257 58.5277 164.981 58.3597 163.17C58.282 162.368 58.282 162.342 58.5149 162.536C58.6442 162.653 59.2391 163.144 59.847 163.636ZM102.194 166.223C102.505 166.339 102.44 166.908 102.065 167.568C101.367 168.771 100.319 170.944 99.9567 171.94C98.4692 175.975 99.0643 179.403 101.586 181.278C104.251 183.244 108.985 183.723 114.948 182.624C118.414 181.977 121.079 181.201 127.662 178.898C132.293 177.269 134.634 176.544 136.484 176.169C137.687 175.923 139.846 175.859 140.053 176.066C140.209 176.221 139.303 178.368 138.346 180.088C137.893 180.916 137.777 181.032 137.544 180.968C136.807 180.748 135.475 180.632 134.543 180.696C132.215 180.877 129.9 181.33 122.385 183.089C118.349 184.033 114.78 184.719 112.749 184.952C109.231 185.366 106.062 185.146 103.669 184.331C102.052 183.788 101.134 183.231 100.073 182.184C97.6803 179.804 97.3311 176.014 99.1548 171.978C99.9696 170.181 100.151 169.508 99.9567 169.133C99.5946 168.46 98.4563 169.055 96.1281 171.125C94.3043 172.754 91.6399 174.94 90.2947 175.923C88.3804 177.32 85.4572 179.144 83.9439 179.868C81.4993 181.058 78.2527 181.951 74.9803 182.326C72.0182 182.675 67.0646 182.455 64.8397 181.886C64.2318 181.731 64.2059 181.705 63.5721 180.567C63.21 179.92 62.6667 178.859 62.3564 178.2C61.7096 176.816 61.6191 176.881 63.5463 177.269C70.8154 178.769 76.028 178.963 80.6067 177.889C85.1856 176.829 89.9584 174.384 95.0804 170.478C98.107 168.176 99.9438 166.973 101.211 166.455C102.078 166.093 101.949 166.132 102.194 166.223ZM98.0294 172.185C96.9171 174.811 96.6584 175.729 96.4644 177.631C96.2445 179.778 96.6584 181.796 97.6415 183.322C100.642 187.965 108.804 189.505 122.773 188.069C126.99 187.629 128.995 187.539 130.34 187.733C131.478 187.901 132.409 188.211 132.409 188.405C132.409 188.573 130.327 190.733 129.538 191.393L128.93 191.897L127.339 191.703C125.101 191.419 121.48 191.238 117.987 191.238C109.903 191.225 106.217 190.759 102.699 189.311C100.81 188.522 99.517 187.694 98.2623 186.452C97.0335 185.21 96.4644 184.344 95.8823 182.792L95.4814 181.731V178.756C95.4814 176.001 95.4685 175.781 95.2486 175.742C94.8347 175.665 94.2009 176.311 93.011 177.993C89.9971 182.3 87.9148 184.706 85.3925 186.814C81.7579 189.854 77.9164 191.496 73.9715 191.716L72.497 191.794L70.7637 190.061C69.8066 189.116 69.0305 188.289 69.0305 188.25C69.0305 188.211 69.535 188.134 70.1687 188.082C74.9027 187.707 79.9084 186.193 83.8533 183.93C87.0482 182.093 88.6909 180.67 92.1184 176.816C95.9471 172.509 98.2753 170.245 98.5599 170.53C98.6244 170.594 98.4175 171.254 98.0294 172.185ZM94.4207 178.459C94.2397 179.7 94.3173 182.805 94.5631 183.982C95.3262 187.616 97.2534 190.1 101.004 192.26C104.212 194.109 107.756 195.26 115.077 196.864C118.595 197.627 119.733 197.925 119.733 198.067C119.733 198.119 119.19 198.403 118.531 198.701C107.873 203.525 96.0635 203.849 85.2632 199.619C83.53 198.934 79.5074 196.968 79.5074 196.812C79.5074 196.761 80.1282 196.295 80.9043 195.791C84.2932 193.553 86.88 191.005 89.0142 187.797C89.4797 187.112 90.8509 184.577 92.0667 182.171C93.2826 179.752 94.3302 177.786 94.3949 177.786C94.4724 177.786 94.4855 178.058 94.4207 178.458V178.459Z" fill="#D7000F"/>
<path d="M74.5654 132.568C72.9874 132.814 72.496 132.943 72.6641 133.072C72.69 133.098 73.1814 133.331 73.7376 133.603C74.4749 133.965 75.044 134.379 75.7942 135.09C76.8031 136.06 77.0748 136.422 79.9591 140.885C81.0068 142.489 82.339 143.963 83.4513 144.713C85.107 145.839 88.1337 146.951 92.8806 148.18C94.5104 148.594 96.166 149.085 96.5669 149.266C97.5888 149.745 98.9081 151.077 98.9081 151.659C98.9081 151.737 98.5719 151.788 98.0931 151.788C97.0713 151.788 96.1918 152.047 95.3511 152.577C95.0018 152.81 94.4716 153.03 94.1999 153.069C93.4626 153.185 93.4885 153.405 94.2775 153.677C94.6526 153.793 95.1699 154.026 95.4158 154.181C96.0754 154.595 97.55 155.1 98.7786 155.333C100.822 155.72 102.672 155.539 104.496 154.764C105.013 154.544 105.776 154.324 106.177 154.285C106.811 154.22 107.018 154.259 107.613 154.569L108.311 154.919L108.971 154.582C110.032 154.039 109.747 153.755 107.393 153.03C105.712 152.5 105.129 152.112 105.362 151.672C105.44 151.543 105.789 151.207 106.151 150.948C106.513 150.676 107.639 149.525 108.661 148.374C110.937 145.813 113.395 143.433 114.792 142.437C115.994 141.57 118.154 140.445 119.254 140.096C119.875 139.902 120.302 139.876 121.711 139.915C123.69 139.992 124.751 140.225 126.135 140.924L127.092 141.402L127.648 141.131C128.386 140.768 129.808 139.346 130.248 138.505C130.442 138.143 130.714 137.392 130.856 136.836C131.115 135.84 131.205 134.068 131.011 134.068C130.947 134.068 130.235 134.508 129.42 135.064C125.902 137.418 123.07 138.272 118.051 138.466C114.947 138.582 113.757 138.776 111.817 139.449C108.001 140.781 104.754 143.265 102.232 146.783C101.831 147.326 101.327 148.102 101.107 148.477C100.628 149.318 100.809 149.344 98.1579 148.038C94.0059 145.968 91.3802 143.73 86.7368 138.337C85.4821 136.875 84.0334 135.271 83.5032 134.767C82.4037 133.706 80.8904 132.684 80.0497 132.439C79.1831 132.167 76.6479 132.232 74.5654 132.568Z" fill="#D7000F"/>
</svg>
