<svg width="480" height="320" viewBox="0 0 480 320" fill="none" xmlns="http://www.w3.org/2000/svg">
<path d="M55.3848 85.2305H263.372C268.809 88.9105 273.443 93.6243 277.769 98.5259C287.957 109.84 297.043 122.44 309.554 131.381C311.754 132.815 313.926 134.615 316.643 134.867C314.708 133.003 312.572 131.32 310.652 129.424C301.945 121.083 294.363 111.683 286.209 102.821C284.419 100.781 282.336 98.9997 280.674 96.8489C281.191 97.012 281.689 97.2366 282.148 97.5351C287.065 100.806 291.376 104.898 295.372 109.221C299.569 113.849 303.84 118.403 308.111 122.963C312.594 127.775 317.234 132.443 322.105 136.864C315.163 137.554 308.163 137.197 301.228 136.59C296.859 136.424 292.566 135.526 288.28 134.732C283.542 133.969 278.954 132.526 274.363 131.175C275.148 134.372 277.76 136.677 280.471 138.317C284.92 141.141 290.092 142.935 293.859 146.747C296.339 149.212 296.828 152.92 299.022 155.584C304.794 153.012 310.899 151.083 317.194 150.357C323.286 149.704 329.806 150.99 334.699 154.83C338.539 157.818 341.985 161.298 345.028 165.095C348.105 168.864 350.726 172.966 353.369 177.043C357.96 184.126 362.431 191.295 367.388 198.135C371.228 203.489 375.24 208.72 379.459 213.781C379.702 214.058 379.932 214.363 379.957 214.754C379.172 214.535 378.699 213.79 378.065 213.329C366.966 203.452 358.896 190.84 350.548 178.692C347.332 174.037 344.034 169.424 340.422 165.064C337.856 162.03 335.32 158.92 332.209 156.424C331.129 155.52 329.742 155.104 328.372 154.904C329.757 157.726 332.102 159.88 334.056 162.292C345.576 175.877 353.643 191.95 364.812 205.797C369.139 211.138 373.886 216.178 379.345 220.381C386.84 226.23 394.803 231.837 403.945 234.769H55.3848V85.2305ZM93.8771 159.852C89.1694 160.123 84.2002 162.84 82.554 167.458C81.674 169.707 81.2586 172.338 82.2617 174.615C83.6248 177.954 85.9048 180.794 88.0555 183.649C90.3017 186.649 92.7048 189.56 94.4832 192.877C95.754 194.92 95.6278 197.48 95.154 199.744C94.2986 202.243 92.5878 204.84 89.8709 205.514C87.6525 206.224 85.1109 206.157 83.0678 204.966C81.5909 204.052 80.714 202.48 79.9878 200.954C79.1755 199.215 79.2001 197.255 79.0063 195.384C78.5417 195.32 78.074 195.32 77.6063 195.317C77.1663 198.886 76.594 202.44 75.8709 205.963C77.7325 206.923 79.8402 207.255 81.8617 207.723C85.4894 208.594 89.2802 208.538 92.954 208.024C95.9909 207.532 99.1971 207.024 101.702 205.089C104.169 203.277 105.646 200.267 105.6 197.206C105.554 194.661 105.563 191.947 104.222 189.689C101.48 183.812 96.714 179.277 93.0278 174.027C92.3755 172.975 91.4525 172.012 91.2863 170.735C90.9386 168.332 91.6709 165.837 93.2278 163.975C94.0955 162.981 95.1971 161.92 96.6063 161.917C98.5602 161.68 100.751 161.855 102.246 163.286C104.834 165.243 105.772 168.483 107.052 171.289L107.446 171.206C107.892 167.886 108.302 164.535 108.474 161.2C103.788 159.652 98.7632 159.35 93.8771 159.852ZM245.292 159.969C244.299 162.24 243.034 164.384 241.932 166.606C235.997 178.061 230.114 189.541 223.945 200.874C222.529 203.366 219.877 205.018 217.062 205.412C216.997 206.052 216.942 206.692 216.923 207.335C220.942 207.277 224.966 207.36 228.985 207.255C229.019 206.63 229.071 206.006 229.142 205.384C228 205.572 226.908 204.766 226.619 203.677C226.188 202.32 227.092 201.074 227.671 199.92C228.852 197.954 229.692 195.76 230.985 193.883C236.059 193.855 241.136 193.858 246.209 193.849C246.656 197.117 247.172 200.415 246.942 203.726C246.926 204.28 246.736 204.944 246.157 205.144C245.169 205.483 244.123 205.181 243.111 205.277C243.046 205.944 243.025 206.618 242.991 207.289C248.794 207.301 254.597 207.338 260.397 207.27C260.517 206.652 260.64 206.037 260.76 205.421C259.416 204.917 257.496 205.046 256.769 203.569C255.908 202.129 255.705 200.437 255.489 198.806C254.979 194.683 254.523 190.55 253.803 186.455C253.071 182.597 252.837 178.667 252.099 174.809C251.16 169.883 250.76 164.877 249.859 159.944C248.336 159.895 246.812 159.867 245.292 159.969ZM199.572 169.209C200.409 169.369 201.231 169.594 202.065 169.766C201.843 170.557 201.274 171.227 200.705 171.812C197.662 174.815 194.536 177.732 191.459 180.698C190.456 181.686 189.489 182.75 188.252 183.446C189.022 179.48 189.366 175.437 190.336 171.507C190.566 170.809 190.825 169.827 191.686 169.71C192.692 169.523 193.705 169.372 194.717 169.234C194.825 168.566 194.948 167.901 195.074 167.24C189.576 167.255 184.077 167.246 178.579 167.246C178.572 167.957 178.572 168.67 178.579 169.381C179.723 169.566 180.886 169.661 182.019 169.944C182.268 172.637 181.326 175.23 181.132 177.892C180.609 181.064 179.899 184.206 179.391 187.381C178.899 191.732 177.736 195.972 177.163 200.31C176.932 202 176.84 204.049 175.286 205.107C174.28 205.397 173.222 205.227 172.194 205.338C172.068 205.987 171.945 206.643 171.837 207.298C177.366 207.301 182.896 207.317 188.425 207.292C188.492 206.612 188.591 205.935 188.64 205.255C187.523 205.261 186.391 205.387 185.292 205.114C184.56 204.144 184.917 202.91 184.985 201.809C185.425 198.298 186.252 194.852 186.852 191.369C187.12 189.84 187.2 188.286 187.505 186.763C187.819 187.154 188.111 187.566 188.363 188.003C191.431 193.464 194.468 198.95 197.397 204.489C198.237 205.843 199.499 207.258 201.222 207.28C204.302 207.341 207.382 207.335 210.462 207.258C210.511 207.058 210.563 206.861 210.619 206.664C209.277 205.957 207.668 205.643 206.625 204.461C203.529 201.369 201.874 197.264 199.739 193.526C197.896 190.07 195.911 186.674 194.234 183.144C198.545 178.852 202.372 174.067 207.059 170.163C207.979 169.535 209.12 169.424 210.185 169.224C210.369 168.517 210.437 167.787 210.536 167.067C207 167.052 203.465 167.074 199.929 167.07C199.717 167.763 199.646 168.489 199.572 169.209ZM273.32 169.369C274.622 169.541 275.923 169.735 277.228 169.917C276.982 174.467 275.862 178.914 275.129 183.397C274.563 188.147 273.32 192.787 272.754 197.535C272.219 199.867 272.139 202.366 270.957 204.501C270.009 205.778 268.225 205.089 266.892 205.28C266.806 205.957 266.729 206.637 266.659 207.314C272.099 207.344 277.539 207.335 282.979 207.32C283.111 206.634 283.28 205.957 283.394 205.27C282.471 205.163 281.529 205.277 280.622 205.089C280.009 204.91 279.216 204.458 279.388 203.704C279.477 200.978 280.406 198.372 280.711 195.674C281.172 191.75 282.132 187.91 282.76 184.015C283.24 180.03 284.2 176.126 284.837 172.169C285.012 171.378 285.062 170.307 285.896 169.904C287.212 169.507 288.606 169.455 289.963 169.249C290.102 168.535 290.219 167.812 290.154 167.086C284.812 167.067 279.471 167.04 274.129 167.083C273.671 167.732 273.563 168.612 273.32 169.369ZM297.483 167.206C297.305 167.914 297.132 168.621 296.979 169.335C298.274 169.329 299.597 169.24 300.862 169.594C300.988 174.172 299.382 178.535 298.862 183.04C298.348 187.341 297.185 191.532 296.717 195.84C296.025 198.732 295.972 201.812 294.702 204.541C293.671 205.652 292.009 205.169 290.68 205.252C290.508 205.932 290.416 206.627 290.302 207.32C295.791 207.338 301.28 207.335 306.769 207.32C306.976 206.701 306.852 205.954 306.963 205.292C305.8 205.034 304.009 205.541 303.459 204.16C303.003 202.474 303.529 200.72 303.797 199.04C304.412 195.864 304.902 192.67 305.388 189.474C306.532 189.449 307.686 189.363 308.831 189.449C310.056 191.674 310.859 194.089 311.8 196.44C313.028 199.227 313.606 202.286 315.136 204.947C316.089 206.175 317.434 207.332 319.077 207.323C322.308 207.35 325.539 207.36 328.772 207.363C328.914 206.717 328.969 206.055 329.04 205.4C326.92 205.058 324.419 204.655 323.136 202.72C321.354 199.267 319.797 195.698 318.406 192.07C317.852 190.738 317.123 189.452 316.889 188.015C319.419 187.418 321.886 186.221 323.6 184.218C324.865 182.772 325.462 180.892 325.905 179.055C326.545 176.197 326.345 172.947 324.545 170.532C322.579 168.104 319.326 167.23 316.317 167.184C310.04 167.19 303.76 167.15 297.483 167.206ZM120.289 167.243C120.096 167.957 119.905 168.67 119.729 169.39C120.988 169.646 122.286 169.686 123.532 170.018C123.557 170.203 123.609 170.569 123.634 170.754C123.096 175.298 122.062 179.769 121.332 184.286C120.782 188.957 119.523 193.507 118.991 198.181C118.483 200.504 118.32 202.994 117.022 205.055C115.779 205.304 114.511 205.255 113.256 205.258C113.148 205.969 113.006 206.67 112.871 207.378C118.339 207.587 123.809 207.486 129.28 207.458C129.437 206.738 129.569 206.015 129.702 205.295C128.659 205.252 127.591 205.366 126.566 205.135C125.905 204.704 125.692 203.852 125.794 203.11C126.071 200.72 126.652 198.381 127.046 196.009C127.517 192.387 128.271 188.809 128.936 185.221C129.397 180.747 130.6 176.397 131.185 171.944C131.32 171.237 131.471 170.421 132.108 169.981C133.397 169.48 134.809 169.581 136.16 169.384C136.317 168.674 136.452 167.957 136.628 167.249C131.182 167.243 125.736 167.197 120.289 167.243ZM144.443 167.289C144.406 167.963 144.397 168.64 144.52 169.307C145.612 169.621 146.806 169.477 147.84 170.015C148.289 171.612 147.656 173.221 147.446 174.8C146.976 179.037 145.92 183.181 145.283 187.394C144.711 192.046 143.456 196.59 142.963 201.258C142.723 202.477 142.554 203.824 141.671 204.772C140.711 205.655 139.308 205.166 138.148 205.258C138.025 205.99 137.88 206.723 137.769 207.458C142.929 207.52 148.092 207.455 153.256 207.495C157.643 207.243 162.04 207.301 166.437 207.329C167.179 204.507 167.619 201.606 168.529 198.83C167.742 198.754 166.942 198.778 166.176 198.978C165.48 199.806 165.206 200.886 164.588 201.76C163.332 203.298 161.72 204.704 159.726 205.126C157.671 205.4 155.6 205.243 153.539 205.249C152.351 205.255 150.809 204.732 150.649 203.366C150.979 197.744 152.689 192.326 153.332 186.744C154.016 182.96 154.917 179.212 155.406 175.397C155.766 173.667 155.856 171.806 156.776 170.258C157.791 169.261 159.326 169.707 160.566 169.31C160.677 168.615 160.849 167.935 161.012 167.252C155.489 167.224 149.963 167.2 144.443 167.289ZM267.496 86.0059C267.514 86.012 267.548 86.0212 267.566 86.0274C267.548 86.0212 267.514 86.012 267.496 86.0059ZM271.791 87.2305C271.819 87.2366 271.871 87.2551 271.899 87.2612C271.871 87.2551 271.819 87.2366 271.791 87.2305ZM276.425 88.7628L276.499 88.7874L276.425 88.7628ZM278.197 89.3751C278.246 89.3935 278.345 89.4274 278.394 89.4459C278.345 89.4274 278.246 89.3935 278.197 89.3751ZM279.806 89.9782C279.828 89.9874 279.868 90.0028 279.889 90.012C279.868 90.0028 279.828 89.9874 279.806 89.9782ZM301.656 100.75C301.674 100.76 301.708 100.784 301.726 100.794C301.708 100.784 301.674 100.76 301.656 100.75ZM304.422 102.584C304.443 102.6 304.486 102.627 304.505 102.64C304.486 102.627 304.443 102.6 304.422 102.584ZM305.342 103.203L305.425 103.261L305.342 103.203ZM322.268 117.981C322.28 117.997 322.308 118.027 322.32 118.043C322.308 118.027 322.28 117.997 322.268 117.981Z" fill="#009484"/>
<path d="M308.895 169.681C310.75 169.478 312.658 169.395 314.498 169.792C316.4 170.057 317.954 171.592 318.56 173.368C318.935 174.42 318.781 175.558 318.649 176.638C318.301 179.085 317.76 181.537 316.664 183.765C315.75 185.595 313.729 186.761 311.698 186.761C309.827 186.783 307.954 186.752 306.083 186.752C306.354 185.201 306.738 183.669 306.886 182.1C307.36 177.928 308.563 173.872 308.895 169.681ZM243.243 170.94C243.409 170.709 243.461 170.331 243.763 170.232C244.295 175.343 244.966 180.438 245.243 185.568C245.43 187.275 245.597 188.986 245.784 190.697C241.375 190.712 236.966 190.721 232.557 190.688C235.775 183.94 239.627 177.491 243.243 170.94ZM399.514 226.58C399.526 226.595 399.547 226.632 399.56 226.651C399.547 226.632 399.526 226.595 399.514 226.58ZM402.581 231.198C402.594 231.217 402.621 231.254 402.634 231.272C402.621 231.254 402.594 231.217 402.581 231.198ZM404.723 234.321L404.775 234.386L404.723 234.321Z" fill="#009484"/>
<path d="M263.373 85.2305H265.09C265.871 85.5474 266.693 85.7443 267.496 86.0059C267.514 86.012 267.548 86.0212 267.566 86.0274C268.256 86.2243 268.945 86.4151 269.637 86.612C269.665 86.6212 269.72 86.6366 269.748 86.6428C270.431 86.8274 271.111 87.0243 271.791 87.2305C271.819 87.2366 271.871 87.2551 271.899 87.2612C273.434 87.6766 274.93 88.2212 276.425 88.7628L276.499 88.7874C276.699 88.8582 277.096 88.9966 277.296 89.0643C277.342 89.0797 277.437 89.1135 277.486 89.132C277.662 89.1935 278.019 89.3135 278.197 89.3751C278.246 89.3935 278.345 89.4274 278.394 89.4459C278.871 89.612 279.333 89.7935 279.806 89.9782C279.828 89.9874 279.868 90.0028 279.89 90.012C287.49 92.8274 294.77 96.4828 301.656 100.75C301.674 100.76 301.708 100.784 301.726 100.794C302.628 101.381 303.539 101.963 304.422 102.584C304.443 102.6 304.486 102.627 304.505 102.64C304.714 102.781 305.133 103.064 305.342 103.203L305.425 103.261C309.533 106.255 313.653 109.27 317.373 112.747C319.102 114.397 320.653 116.218 322.268 117.981C322.28 117.997 322.308 118.027 322.32 118.043C325.776 122.138 329.123 126.36 333.062 130.012C336.945 133.36 341.373 136.36 346.456 137.464C351.846 138.474 357.486 137.074 362.806 138.661C367.071 140.667 370.545 143.975 373.686 147.418C369.942 147.338 366.179 147.415 362.48 147.99C358.579 148.341 354.61 149.286 351.33 151.52C354.182 154.28 357.194 156.886 359.871 159.83C362.25 162.47 364.702 165.089 366.594 168.114C366.606 168.132 366.631 168.169 366.643 168.19C378.231 187.295 387.403 207.781 399.514 226.581C399.526 226.597 399.548 226.634 399.56 226.652C400.533 228.19 401.542 229.704 402.582 231.2C402.594 231.218 402.622 231.255 402.634 231.274C402.776 231.486 403.059 231.907 403.203 232.117C403.216 232.135 403.24 232.172 403.253 232.194C403.745 232.898 404.237 233.609 404.723 234.323L404.776 234.387L405.151 234.769H403.945C394.803 231.837 386.84 226.23 379.345 220.381C373.886 216.178 369.139 211.138 364.813 205.797C353.643 191.95 345.576 175.877 334.056 162.292C332.102 159.88 329.757 157.726 328.373 154.904C329.742 155.104 331.13 155.52 332.21 156.424C335.32 158.92 337.856 162.03 340.422 165.064C344.034 169.424 347.333 174.037 350.548 178.692C358.896 190.84 366.966 203.452 378.065 213.329C378.699 213.79 379.173 214.535 379.957 214.754C379.933 214.363 379.702 214.058 379.459 213.781C375.24 208.72 371.228 203.489 367.388 198.135C362.431 191.295 357.96 184.126 353.37 177.043C350.726 172.966 348.105 168.864 345.028 165.095C341.985 161.298 338.539 157.818 334.699 154.83C329.806 150.99 323.286 149.704 317.194 150.357C310.899 151.083 304.794 153.012 299.022 155.584C296.828 152.92 296.339 149.212 293.859 146.747C290.093 142.935 284.92 141.141 280.471 138.317C277.76 136.677 275.148 134.372 274.363 131.175C278.954 132.526 283.542 133.969 288.28 134.732C292.566 135.526 296.859 136.424 301.228 136.59C308.163 137.197 315.163 137.554 322.105 136.864C317.234 132.443 312.594 127.775 308.111 122.963C303.84 118.403 299.57 113.849 295.373 109.221C291.376 104.898 287.065 100.806 282.148 97.5351C281.69 97.2366 281.191 97.012 280.674 96.8489C282.336 98.9997 284.419 100.781 286.21 102.821C294.363 111.683 301.945 121.083 310.653 129.424C312.573 131.32 314.708 133.003 316.643 134.867C313.926 134.615 311.754 132.815 309.554 131.381C297.043 122.44 287.957 109.84 277.77 98.5259C273.443 93.6243 268.81 88.9105 263.373 85.2305ZM93.8772 159.852C98.7634 159.35 103.788 159.652 108.474 161.2C108.302 164.535 107.893 167.886 107.446 171.206L107.053 171.289C105.773 168.483 104.834 165.243 102.246 163.286C100.751 161.855 98.5603 161.68 96.6065 161.917C95.1972 161.92 94.0957 162.981 93.228 163.975C91.6711 165.837 90.9388 168.332 91.2865 170.735C91.4526 172.012 92.3757 172.975 93.028 174.027C96.7142 179.277 101.48 183.812 104.222 189.689C105.563 191.947 105.554 194.661 105.6 197.206C105.646 200.267 104.17 203.277 101.702 205.089C99.1972 207.024 95.9911 207.532 92.9542 208.024C89.2803 208.538 85.4896 208.594 81.8619 207.723C79.8403 207.255 77.7326 206.923 75.8711 205.963C76.5942 202.44 77.1665 198.886 77.6065 195.317C78.0742 195.32 78.5419 195.32 79.0065 195.384C79.2003 197.255 79.1757 199.215 79.988 200.954C80.7142 202.48 81.5911 204.052 83.068 204.966C85.1111 206.157 87.6526 206.224 89.8711 205.514C92.588 204.84 94.2988 202.243 95.1542 199.744C95.628 197.48 95.7542 194.92 94.4834 192.877C92.7049 189.56 90.3019 186.649 88.0557 183.649C85.9049 180.794 83.6249 177.954 82.2619 174.615C81.2588 172.338 81.6742 169.707 82.5542 167.458C84.2003 162.84 89.1696 160.123 93.8772 159.852ZM245.293 159.969C246.813 159.867 248.336 159.895 249.859 159.944C250.76 164.877 251.16 169.883 252.099 174.809C252.837 178.667 253.071 182.597 253.803 186.455C254.523 190.55 254.979 194.683 255.49 198.806C255.705 200.437 255.908 202.129 256.77 203.569C257.496 205.046 259.416 204.917 260.76 205.421C260.64 206.037 260.517 206.652 260.397 207.27C254.597 207.338 248.794 207.301 242.991 207.289C243.025 206.618 243.046 205.944 243.111 205.277C244.123 205.181 245.17 205.483 246.157 205.144C246.736 204.944 246.926 204.28 246.942 203.726C247.173 200.415 246.656 197.117 246.21 193.849C241.136 193.858 236.059 193.855 230.985 193.883C229.693 195.76 228.853 197.954 227.671 199.92C227.093 201.074 226.188 202.32 226.619 203.677C226.908 204.766 228 205.572 229.142 205.384C229.071 206.006 229.019 206.63 228.985 207.255C224.966 207.36 220.942 207.277 216.923 207.335C216.942 206.692 216.997 206.052 217.062 205.412C219.877 205.018 222.53 203.366 223.945 200.874C230.114 189.541 235.997 178.061 241.933 166.606C243.034 164.384 244.299 162.24 245.293 159.969ZM243.243 170.941C239.628 177.492 235.776 183.941 232.557 190.689C236.966 190.723 241.376 190.714 245.785 190.698C245.597 188.987 245.431 187.277 245.243 185.569C244.966 180.44 244.296 175.344 243.763 170.234C243.462 170.332 243.41 170.71 243.243 170.941ZM199.573 169.209C199.646 168.489 199.717 167.763 199.93 167.07C203.465 167.074 207 167.052 210.536 167.067C210.437 167.787 210.37 168.517 210.185 169.224C209.12 169.424 207.979 169.535 207.059 170.163C202.373 174.067 198.545 178.852 194.234 183.144C195.911 186.674 197.896 190.07 199.739 193.526C201.874 197.264 203.53 201.369 206.625 204.461C207.668 205.643 209.277 205.957 210.619 206.664C210.563 206.861 210.511 207.058 210.462 207.258C207.382 207.335 204.302 207.341 201.222 207.28C199.499 207.258 198.237 205.843 197.397 204.489C194.468 198.95 191.431 193.464 188.363 188.003C188.111 187.566 187.819 187.154 187.505 186.763C187.2 188.286 187.12 189.84 186.853 191.369C186.253 194.852 185.425 198.298 184.985 201.809C184.917 202.91 184.56 204.144 185.293 205.114C186.391 205.387 187.523 205.261 188.64 205.255C188.591 205.935 188.493 206.612 188.425 207.292C182.896 207.317 177.366 207.301 171.837 207.298C171.945 206.643 172.068 205.987 172.194 205.338C173.222 205.227 174.28 205.397 175.286 205.107C176.84 204.049 176.933 202 177.163 200.31C177.736 195.972 178.899 191.732 179.391 187.381C179.899 184.206 180.61 181.064 181.133 177.892C181.326 175.23 182.268 172.637 182.019 169.944C180.886 169.661 179.723 169.566 178.579 169.381C178.573 168.67 178.573 167.957 178.579 167.246C184.077 167.246 189.576 167.255 195.074 167.24C194.948 167.901 194.825 168.566 194.717 169.234C193.705 169.372 192.693 169.523 191.686 169.71C190.825 169.827 190.566 170.809 190.336 171.507C189.366 175.437 189.022 179.48 188.253 183.446C189.49 182.75 190.456 181.686 191.459 180.698C194.536 177.732 197.662 174.815 200.705 171.812C201.274 171.227 201.843 170.557 202.065 169.766C201.231 169.594 200.41 169.369 199.573 169.209ZM273.32 169.369C273.563 168.612 273.671 167.732 274.13 167.083C279.471 167.04 284.813 167.067 290.154 167.086C290.219 167.812 290.102 168.535 289.963 169.249C288.606 169.455 287.213 169.507 285.896 169.904C285.062 170.307 285.013 171.378 284.837 172.169C284.2 176.126 283.24 180.03 282.76 184.015C282.133 187.91 281.173 191.75 280.711 195.674C280.406 198.372 279.477 200.978 279.388 203.704C279.216 204.458 280.01 204.91 280.622 205.089C281.53 205.277 282.471 205.163 283.394 205.27C283.28 205.957 283.111 206.634 282.979 207.32C277.539 207.335 272.099 207.344 266.659 207.314C266.73 206.637 266.806 205.957 266.893 205.28C268.225 205.089 270.01 205.778 270.957 204.501C272.139 202.366 272.219 199.867 272.754 197.535C273.32 192.787 274.563 188.147 275.13 183.397C275.862 178.914 276.982 174.467 277.228 169.917C275.923 169.735 274.622 169.541 273.32 169.369Z" fill="white"/>
<path d="M297.483 167.206C303.76 167.15 310.04 167.19 316.317 167.184C319.326 167.23 322.579 168.104 324.545 170.532C326.345 172.947 326.545 176.196 325.905 179.055C325.462 180.892 324.865 182.772 323.6 184.218C321.886 186.221 319.419 187.418 316.89 188.015C317.123 189.452 317.853 190.738 318.406 192.07C319.797 195.698 321.354 199.267 323.136 202.719C324.419 204.655 326.92 205.058 329.04 205.399C328.97 206.055 328.914 206.716 328.773 207.362C325.539 207.359 322.308 207.35 319.077 207.322C317.434 207.332 316.09 206.175 315.136 204.947C313.606 202.286 313.028 199.227 311.8 196.439C310.859 194.089 310.056 191.673 308.831 189.449C307.686 189.362 306.533 189.449 305.388 189.473C304.902 192.67 304.413 195.864 303.797 199.039C303.53 200.719 303.003 202.473 303.459 204.159C304.01 205.541 305.8 205.033 306.963 205.292C306.853 205.953 306.976 206.701 306.77 207.319C301.28 207.335 295.791 207.338 290.302 207.319C290.416 206.627 290.508 205.932 290.68 205.252C292.01 205.169 293.671 205.652 294.702 204.541C295.973 201.812 296.025 198.732 296.717 195.839C297.185 191.532 298.348 187.341 298.862 183.039C299.382 178.535 300.988 174.172 300.862 169.593C299.597 169.239 298.274 169.329 296.979 169.335C297.133 168.621 297.305 167.913 297.483 167.206ZM308.896 169.682C308.563 173.873 307.36 177.929 306.886 182.101C306.739 183.67 306.354 185.202 306.083 186.753C307.954 186.753 309.828 186.784 311.699 186.762C313.73 186.762 315.751 185.596 316.665 183.766C317.76 181.538 318.302 179.086 318.65 176.639C318.782 175.559 318.936 174.421 318.56 173.369C317.954 171.593 316.4 170.058 314.499 169.793C312.659 169.396 310.751 169.479 308.896 169.682ZM120.29 167.242C125.736 167.196 131.182 167.242 136.628 167.249C136.453 167.956 136.317 168.673 136.16 169.384C134.81 169.581 133.397 169.479 132.108 169.981C131.471 170.421 131.32 171.236 131.185 171.944C130.6 176.396 129.397 180.747 128.936 185.221C128.271 188.809 127.517 192.387 127.046 196.009C126.653 198.381 126.071 200.719 125.794 203.11C125.693 203.852 125.905 204.704 126.566 205.135C127.591 205.366 128.659 205.252 129.702 205.295C129.57 206.015 129.437 206.738 129.28 207.458C123.81 207.486 118.339 207.587 112.871 207.378C113.006 206.67 113.148 205.969 113.256 205.258C114.511 205.255 115.779 205.304 117.022 205.055C118.32 202.993 118.483 200.504 118.991 198.181C119.523 193.507 120.782 188.956 121.333 184.286C122.062 179.769 123.096 175.298 123.634 170.753C123.61 170.569 123.557 170.202 123.533 170.018C122.286 169.686 120.988 169.646 119.73 169.39C119.905 168.67 120.096 167.956 120.29 167.242ZM144.443 167.289C149.963 167.199 155.49 167.224 161.013 167.252C160.85 167.935 160.677 168.615 160.566 169.31C159.326 169.707 157.791 169.261 156.776 170.258C155.856 171.806 155.766 173.667 155.406 175.396C154.917 179.212 154.016 182.959 153.333 186.744C152.69 192.326 150.979 197.744 150.65 203.366C150.81 204.732 152.351 205.255 153.539 205.249C155.6 205.242 157.671 205.399 159.726 205.126C161.72 204.704 163.333 203.298 164.588 201.759C165.206 200.886 165.48 199.806 166.176 198.978C166.942 198.778 167.742 198.753 168.53 198.83C167.619 201.606 167.179 204.507 166.437 207.329C162.04 207.301 157.643 207.242 153.256 207.495C148.093 207.455 142.93 207.519 137.77 207.458C137.88 206.722 138.025 205.99 138.148 205.258C139.308 205.166 140.711 205.655 141.671 204.772C142.554 203.824 142.723 202.476 142.963 201.258C143.456 196.59 144.711 192.046 145.283 187.393C145.92 183.181 146.976 179.036 147.446 174.799C147.656 173.221 148.29 171.612 147.84 170.015C146.806 169.476 145.613 169.621 144.52 169.307C144.397 168.639 144.406 167.962 144.443 167.289Z" fill="white"/>
<path d="M265.09 85.2305H424.616V234.769H405.151L404.776 234.387L404.724 234.323C404.238 233.609 403.745 232.898 403.253 232.194C403.241 232.172 403.216 232.135 403.204 232.117C403.059 231.907 402.776 231.486 402.634 231.274C402.622 231.255 402.594 231.218 402.582 231.2C401.542 229.704 400.533 228.19 399.561 226.652C399.548 226.634 399.527 226.597 399.514 226.581C387.404 207.781 378.231 187.295 366.644 168.19C366.631 168.169 366.607 168.132 366.594 168.114C364.702 165.089 362.25 162.47 359.871 159.83C357.194 156.886 354.182 154.28 351.33 151.52C354.61 149.286 358.579 148.341 362.481 147.99C366.179 147.415 369.942 147.338 373.687 147.418C370.545 143.975 367.071 140.667 362.807 138.661C357.487 137.074 351.847 138.474 346.456 137.464C341.373 136.36 336.945 133.36 333.062 130.012C329.124 126.36 325.776 122.138 322.321 118.043C322.308 118.027 322.281 117.997 322.268 117.981C320.653 116.218 319.102 114.397 317.373 112.747C313.653 109.27 309.533 106.255 305.425 103.261L305.342 103.203C305.133 103.064 304.714 102.781 304.505 102.64C304.487 102.627 304.444 102.6 304.422 102.584C303.539 101.963 302.628 101.381 301.727 100.794C301.708 100.784 301.674 100.76 301.656 100.75C294.77 96.4828 287.49 92.8274 279.89 90.012C279.868 90.0028 279.828 89.9874 279.807 89.9782C279.333 89.7935 278.871 89.612 278.394 89.4459C278.345 89.4274 278.247 89.3935 278.198 89.3751C278.019 89.3135 277.662 89.1935 277.487 89.132C277.438 89.1135 277.342 89.0797 277.296 89.0643C277.096 88.9966 276.699 88.8582 276.499 88.7874L276.425 88.7628C274.93 88.2212 273.434 87.6766 271.899 87.2612C271.871 87.2551 271.819 87.2366 271.791 87.2305C271.111 87.0243 270.431 86.8274 269.748 86.6428C269.721 86.6366 269.665 86.6212 269.638 86.612C268.945 86.4151 268.256 86.2243 267.567 86.0274C267.548 86.0212 267.514 86.012 267.496 86.0059C266.693 85.7443 265.871 85.5474 265.09 85.2305V85.2305Z" fill="#00246A"/>
</svg>
