<svg width="480" height="320" viewBox="0 0 480 320" fill="none" xmlns="http://www.w3.org/2000/svg">
<path fill-rule="evenodd" clip-rule="evenodd" d="M55.3848 219.805H310.997L305.925 227.717H55.3848V219.805Z" fill="#FCB130"/>
<path fill-rule="evenodd" clip-rule="evenodd" d="M357.553 216.22H348.154L367.127 186.274C367.127 186.274 369.968 180.066 366.251 173.509L339.803 129.706C339.803 129.706 337.487 125.639 339.803 121.749L347.628 110.031L378.667 160.744C378.667 160.744 386.667 171.367 377.967 184.525L357.553 216.22Z" fill="#FCB130"/>
<path fill-rule="evenodd" clip-rule="evenodd" d="M380.241 207.038L391.784 189.464C391.784 189.464 395.149 182.206 403.849 182.206H416.09L424.615 195.672C424.615 195.672 417.881 194.973 414.865 199.782L402.276 218.754C402.276 218.754 398.166 227.63 387.194 227.63H327.914L350.472 193.005C350.472 193.005 353.661 188.941 349.203 182.208L329.137 149.945C329.137 149.945 324.197 145.18 329.311 137.006L335.171 128.129L363.062 173.332C363.062 173.332 368.001 179.54 363.062 186.972L342.121 219.628H386.275C386.275 219.628 391.258 220.546 395.542 214.163L406.515 197.289C406.515 197.289 409.007 191.605 414.516 189.289H405.641C405.641 189.289 401.007 189.464 397.467 194.972L387.719 210.054C387.719 210.054 384.176 216.437 376.351 216.437H360.919L379.542 187.54C379.542 187.54 389.685 174.207 382.559 161.966L351.695 110.906C351.695 110.906 349.379 106.489 352.045 102.38L358.775 92.2812L393.924 148.895C393.924 148.895 399.084 157.377 399.084 163.933C399.084 170.491 394.975 177.923 392.699 181.683L377.224 205.814C377.224 205.814 375.476 208.131 376.701 209.006C377.968 209.879 379.193 208.305 380.241 207.037" fill="#FCB130"/>
<path fill-rule="evenodd" clip-rule="evenodd" d="M184.087 182.47H189.552V204.11H202.885V208.745H184.086V182.47M207.082 208.745H212.502V182.47H207.082V208.745ZM140.545 208.745H145.922V182.47H140.545V208.745ZM251.278 182.47H271.87V186.799H256.742V193.225H269.596V197.991H256.742V204.373H271.87V208.745H251.278V182.47ZM280.262 147.149H300.854V151.476H285.729V157.858H298.625V162.624H285.729V169.006H300.854V173.333H280.262V147.149ZM154.272 208.745V182.47H169.879C169.879 182.47 177.398 182.601 177.398 190.121C177.398 190.121 178.097 196.372 171.716 198.907L179.628 208.744H172.895L161.966 195.103H167.65C167.65 195.103 171.716 195.017 171.716 190.908C171.716 187.016 168.437 186.71 167.432 186.71H159.737V208.744H154.272M250.317 173.334V147.148H265.923C265.923 147.148 273.443 147.277 273.443 154.799C273.443 154.799 274.098 161.004 267.76 163.54L275.672 173.332H268.941L258.011 159.782H263.694C263.694 159.782 267.76 159.694 267.76 155.584C267.76 151.649 264.482 151.386 263.477 151.386H255.782V173.334H250.317ZM140.939 168.788H148.325V156.767H153.572V173.333H139.802C137.746 173.333 127.824 171.017 127.736 160.569C127.649 150.209 136.698 147.149 140.195 147.149H153.704V151.782H141.507C141.507 151.782 133.332 151.782 133.332 160.393C133.332 167.082 140.107 168.787 140.938 168.787M219.628 182.47H225.137V186.537L228.591 182.471H235.104C235.104 182.471 244.022 181.99 244.022 191.521V208.745H238.471V190.688C238.471 190.688 238.295 187.104 234.536 187.104H225.137V208.744H219.628V182.47ZM98.3591 147.149H103.824V151.169L107.277 147.149H113.791C113.791 147.149 122.753 146.668 122.753 156.197V173.333H117.199V155.369C117.199 155.369 116.982 151.784 113.222 151.784H103.823V173.334H98.3591V147.149ZM85.4191 173.334H90.7962V147.146H85.4191V173.334ZM277.859 208.701V204.242H293.071C293.071 204.242 296.088 204.81 296.088 201.138C296.088 197.466 293.815 197.86 292.986 197.86H284.198C284.198 197.86 277.422 198.34 277.422 190.384C277.422 182.471 284.111 182.471 284.111 182.471H300.809V187.105H286.164C286.164 187.105 282.972 187.105 282.972 190.122C282.972 193.139 285.115 193.705 287.126 193.705H294.952C294.952 193.705 301.553 193.006 301.553 200.875C301.553 208.745 294.777 208.701 294.777 208.701H277.859ZM55.9545 173.334V168.875H71.1668C71.1668 168.875 74.1839 169.444 74.1839 165.772C74.1839 162.099 71.9095 162.493 71.0792 162.493H62.2915C62.2915 162.493 55.5156 162.973 55.5156 155.061C55.5156 147.104 62.205 147.149 62.205 147.149H78.9048V151.782H64.259C64.259 151.782 61.0678 151.782 61.0678 154.799C61.0678 157.813 63.2547 158.383 65.2211 158.383H73.0467C73.0467 158.383 79.6475 157.683 79.6475 165.508C79.6475 173.376 72.8716 173.332 72.8716 173.332H55.9534" fill="#1D4886"/>
<path d="M231.629 145.531C223.751 145.531 217.313 151.953 217.313 159.862C217.313 167.801 223.751 174.167 231.628 174.167C233.51 174.175 235.374 173.811 237.114 173.095C238.855 172.379 240.436 171.326 241.767 169.996C243.098 168.666 244.152 167.086 244.87 165.347C245.587 163.607 245.953 161.743 245.946 159.862C245.952 157.979 245.586 156.114 244.869 154.373C244.152 152.633 243.098 151.051 241.768 149.719C240.437 148.388 238.857 147.332 237.117 146.613C235.377 145.895 233.512 145.527 231.629 145.531ZM231.629 168.895C226.686 168.895 222.69 164.865 222.69 159.862C222.69 154.926 226.691 150.818 231.629 150.818C236.609 150.818 240.688 154.926 240.688 159.862C240.688 164.865 236.609 168.895 231.629 168.895ZM175.316 147.147H169.535L157.07 173.335H163.215L166.531 165.805H178.405L181.68 173.335H187.804M168.053 161.948L172.431 151.227L176.759 161.922L168.053 161.948ZM124.125 182.473H118.344L105.879 208.746H112.023L115.339 201.191H127.212L130.487 208.746H136.611M116.862 197.322L121.24 186.565L125.567 197.296L116.862 197.322ZM205.76 147.147H191.212V173.335H196.793V160.618L200.018 165.055H205.76C210.792 165.055 214.164 160.872 214.164 156.102C214.164 151.347 210.792 147.147 205.76 147.147ZM205.563 160.202H196.788V151.965H205.563C207.532 151.965 208.878 154.143 208.878 156.111C208.884 158.139 207.539 160.202 205.563 160.202Z" fill="#1D4886"/>
</svg>
