<svg width="480" height="320" viewBox="0 0 480 320" fill="none" xmlns="http://www.w3.org/2000/svg">
<path fill-rule="evenodd" clip-rule="evenodd" d="M55.5293 188.459V192.503H367.067L369.865 188.459H137.18H55.5293ZM386.965 186.902C386.965 186.902 395.682 174.158 396.316 172.898C397.246 171.037 397.246 168.553 396.626 167.297C395.995 166.685 382.931 146.145 382.931 146.145C382.003 143.973 382.32 142.423 382.931 141.175C384.179 139.312 386.353 135.883 386.353 135.883C386.353 135.883 402.227 160.782 402.835 162.014C404.714 164.822 404.083 167.627 402.835 169.803C401.591 171.975 391.334 186.902 391.334 186.902H386.965Z" fill="#F79110"/>
<path fill-rule="evenodd" clip-rule="evenodd" d="M384.178 188.462C384.178 188.462 394.124 173.847 394.753 172.599C395.683 171.04 395.683 168.868 394.753 167.63C394.444 166.998 380.444 144.911 380.444 144.911C380.444 144.911 377.95 148.642 377.02 149.89C376.4 151.131 376.078 152.377 377.34 154.864C377.34 154.864 387.277 170.421 387.607 171.358C388.518 172.599 388.518 174.776 387.607 176.328C386.964 177.574 376.4 192.506 376.4 192.506H406.258C409.374 192.506 410.936 191.571 412.483 189.397C413.727 187.527 418.706 180.372 419.33 179.434C420.265 178.195 421.501 177.574 422.436 177.574H424.615L419.944 170.421H412.789C411.543 170.421 409.68 171.657 408.745 173.216C408.126 174.161 403.145 181.618 402.228 182.864C401.59 183.799 400.667 183.492 400.036 183.492C400.349 182.864 408.745 170.732 410.311 168.247C412.174 164.824 412.789 160.465 410.311 156.428C409.374 154.864 392.266 127.496 392.266 127.496C392.266 127.496 389.774 130.921 388.839 132.153C388.219 133.398 387.908 134.962 389.149 137.134C389.149 137.134 403.462 160.154 404.404 161.395C405.954 163.887 405.639 167.63 404.404 169.806C403.145 171.977 392.887 186.905 392.887 186.905H400.977C403.773 186.905 404.713 185.97 405.33 185.049C406.258 184.105 410.627 177.574 410.935 176.959C411.543 176.328 412.789 174.462 414.339 174.462H419.643C418.399 174.776 417.457 175.4 416.525 176.328C415.905 177.574 410.627 185.353 409.998 186.281C409.063 187.216 408.126 188.462 405.954 188.462H384.178Z" fill="#F79110"/>
<path d="M59.7139 179.975H63.3418C64.1809 179.975 64.7419 180.466 64.7419 181.392C64.7419 182.315 64.1809 182.799 63.3418 182.799H55.5297V185.223H63.0729C65.9949 185.223 67.4395 183.292 67.4395 181.336C67.4395 179.372 65.9949 177.457 63.0729 177.457H59.4147C58.6012 177.457 58.0612 176.997 58.0612 176.092C58.0612 175.192 58.6012 174.734 59.4147 174.734H67.2502V172.291H59.7139C56.8154 172.291 55.3848 174.01 55.3848 176.146C55.3848 178.299 56.8154 179.975 59.7139 179.975ZM98.5303 185.222H104.306V176.788H101.469V182.725H98.1423C95.7509 182.725 94.1426 181.344 94.1426 178.688C94.1426 176.021 95.7509 174.654 98.1423 174.654H104.306V172.293H98.5305C93.6659 172.293 91.2629 175.79 91.2629 178.775C91.2629 181.755 93.6659 185.222 98.5305 185.222M70.3422 185.222H73.1727V172.293H70.3422V185.222ZM79.5101 174.655H84.2273C85.368 174.655 86.1089 175.709 86.1089 176.675V185.223H88.942V176.319C88.942 174.117 87.3572 172.292 84.8466 172.292H81.1346L79.5101 174.447V172.292H76.6839V185.223H79.5101V174.655ZM154.86 174.664H159.313C160.36 174.664 161.024 175.662 161.024 176.564C161.024 177.457 160.36 178.442 159.313 178.442H155.825L161.47 185.223H164.837L160.835 180.403H160.844C162.557 179.839 163.665 178.264 163.665 176.478C163.665 174.255 161.945 172.291 159.427 172.291H152.071V185.223H154.86V174.664ZM177.231 185.222V182.854H169.662V179.546H176.268V177.204H169.662V174.654L177.231 174.663V172.293H166.826V185.222L177.231 185.222ZM110.583 181.467H116.614L118.295 185.221H121.385L115.06 172.292H112.14L105.812 185.221H108.921L110.583 181.467ZM113.596 174.524L115.651 179.197L111.563 179.206L113.596 174.524ZM125.684 178.942L127.304 181.088H130.205C132.629 181.088 134.351 179.068 134.351 176.714C134.351 174.365 132.629 172.292 130.205 172.292H122.83V185.223H125.684L125.684 178.942ZM125.684 174.655H130.081C131.121 174.655 131.773 175.747 131.773 176.714C131.773 177.694 131.121 178.753 130.081 178.753H125.684V174.655M142.916 185.765C146.785 185.765 149.941 182.612 149.941 178.738C149.941 174.853 146.785 171.707 142.916 171.707C139.038 171.707 135.908 174.853 135.908 178.738C135.908 182.612 139.038 185.765 142.916 185.765ZM142.916 174.32C145.34 174.32 147.32 176.298 147.32 178.738C147.32 181.172 145.34 183.14 142.916 183.14C140.476 183.14 138.503 181.172 138.503 178.738C138.503 176.298 140.476 174.32 142.916 174.32ZM235.781 185.222H238.635V172.293H235.781L235.781 185.222ZM233.791 185.222V182.854H227.185V172.293H224.331V185.222L233.791 185.222ZM190.145 181.467H196.166L197.837 185.221H200.946L194.614 172.292H191.683L185.35 185.221H188.473L190.145 181.467ZM193.151 174.524L195.203 179.197L191.108 179.206L193.151 174.524ZM212.422 174.664H216.875C217.915 174.664 218.577 175.662 218.577 176.564C218.577 177.457 217.915 178.442 216.875 178.442H213.385L219.026 185.223H222.392L218.39 180.403H218.397C220.122 179.835 221.218 178.264 221.218 176.478C221.218 174.255 219.509 172.291 216.997 172.291H209.626V185.223H212.422V174.664M202.84 185.222H205.677V172.293H202.84V185.222ZM274.943 179.975H278.58C279.408 179.975 279.971 180.464 279.971 181.392C279.971 182.315 279.408 182.799 278.58 182.799H270.761V185.223H278.293C281.229 185.223 282.666 183.301 282.666 181.338C282.666 179.365 281.229 177.453 278.293 177.453C277.033 177.453 274.646 177.457 274.646 177.457C273.837 177.457 273.281 176.997 273.281 176.092C273.281 175.192 273.837 174.734 274.646 174.734H282.472V172.291H274.943C272.035 172.291 270.618 174.01 270.618 176.146C270.618 178.299 272.035 179.975 274.943 179.975ZM267.887 185.222V182.854H260.313V179.546H266.9V177.204H260.313V174.654L267.887 174.663V172.293H257.459V185.222L267.887 185.222ZM244.947 174.655H249.653C250.808 174.655 251.53 175.709 251.53 176.675V185.223H254.375V176.319C254.375 174.117 252.797 172.292 250.286 172.292H246.562L244.947 174.447V172.292H242.112V185.223H244.947V174.655ZM342.458 185.245H348.241V176.797H345.396V182.746H342.079C339.662 182.746 338.061 181.35 338.061 178.7C338.061 176.04 339.662 174.665 342.079 174.665H348.241V172.292H342.458C337.586 172.292 335.179 175.789 335.179 178.791C335.179 181.769 337.586 185.245 342.458 185.245M324.915 174.664H329.375C330.415 174.664 331.081 175.672 331.081 176.569C331.081 177.467 330.415 178.444 329.375 178.444H325.883L331.533 185.244H334.906L330.906 180.415C332.631 179.854 333.732 178.269 333.732 176.478C333.732 174.255 332.014 172.291 329.49 172.291H322.126V185.244H324.915V174.664ZM357.627 185.785C361.496 185.785 364.642 182.629 364.642 178.753C364.642 174.854 361.496 171.708 357.627 171.708C353.742 171.708 350.593 174.854 350.593 178.753C350.593 182.629 353.742 185.785 357.627 185.785ZM357.627 174.319C360.049 174.319 362.033 176.306 362.033 178.753C362.033 181.182 360.049 183.169 357.627 183.169C355.17 183.169 353.195 181.182 353.195 178.753C353.195 176.306 355.17 174.319 357.627 174.319ZM309.869 181.478L315.907 181.487L317.581 185.237H320.687L314.353 172.291H311.407L305.075 185.237H308.207L309.869 181.478ZM312.875 174.519L314.928 179.206L310.842 179.218L312.875 174.519ZM303.566 172.317V174.842H297.388C296.738 174.842 294.312 175.807 294.312 178.792C294.312 182.224 296.668 182.801 297.194 182.801H303.562V185.237H297.007C295.673 185.237 291.516 184.255 291.516 178.792C291.516 173.358 296.138 172.317 297.007 172.317H303.566Z" fill="#142354"/>
</svg>
