<svg width="480" height="320" viewBox="0 0 480 320" fill="none" xmlns="http://www.w3.org/2000/svg">
<path d="M158.066 122.894C140.784 119.511 112.112 120.412 112.112 120.412C112.112 120.412 104.008 120.163 105.255 124.923C107.691 134.181 140.784 123.347 155.629 134.635C173.876 148.478 165.376 166.939 159.653 175.728C151.89 187.696 129.734 192.206 108.995 192.206C75.5061 192.206 58.8468 187.016 58.8468 187.016V159.924C96.3586 168.282 114.775 167.376 115.681 162.179C115.115 159.896 112.451 158.536 104.179 158.037C86.046 156.944 78.3963 155.584 78.3963 155.584C78.3963 155.584 50.3473 152.308 56.1839 117.477C63.72 75.2566 161.409 93.9952 161.409 93.9952V123.364L158.066 122.894ZM183.282 89.938H227.934V142.545L245.329 108.071H297.007L268.789 149.997L292.077 189.735H244.819L227.933 161.511V189.956H183.282V89.938ZM303.354 108.071H350.952L365.005 157.437L377.981 108.071H424.615L393.563 192.433C392.317 196.082 385.97 209.908 385.97 209.908C374.354 236.682 336.162 228.318 311.4 228.126V197.176H341.715L303.354 108.071Z" fill="black"/>
<path d="M101.459 205.809H115.851V229.007H101.459V205.809ZM101.459 198.527H115.851V203.996H101.459V198.527ZM151.89 198.527H166.282V229.007H151.89V198.527ZM172.402 205.809H186.852V229.007H172.402L172.402 205.809ZM172.459 198.527H186.852V203.996H172.459V198.527Z" fill="#01A0E9"/>
<path fill-rule="evenodd" clip-rule="evenodd" d="M72.9004 218.118C72.9004 215.761 74.7699 213.851 77.0931 213.851C79.4169 213.851 81.2864 215.761 81.2864 218.118C81.2864 220.475 79.4164 222.39 77.0931 222.39C74.7699 222.39 72.9004 220.475 72.9004 218.118ZM81.3999 205.81H95.3957V229.009H81.3999V221.564C80.8899 225.394 80.8331 230.046 73.0703 229.598C64.514 229.105 59.3574 225.626 59.3574 216.316C59.3574 209.227 65.8739 202.875 75.4504 204.756C79.4164 205.538 80.8899 207.278 81.3999 209.539V205.81Z" fill="#01A0E9"/>
<path d="M193.086 205.81V229.009H208.272V216.99C208.272 214.581 211.389 214.468 211.389 214.468C214.958 214.253 214.845 216.99 214.845 216.99V229.009H229.067V213.596C227.651 202.104 211.275 203.997 207.535 210.088V205.81H193.086" fill="#01A0E9"/>
<path fill-rule="evenodd" clip-rule="evenodd" d="M249.183 215.147C249.239 212.75 251.166 210.608 253.489 210.608C255.869 210.608 257.795 212.75 257.852 215.147H249.183ZM250.146 219.833H270.148C270.148 219.833 271.452 208.489 262.102 205.809C252.979 202.97 243.176 206.098 242.156 206.477C237.453 208.268 234.619 211.855 234.337 216.994C233.996 222.61 236.773 227.806 242.156 229.007C250.599 230.877 254.849 230.141 262.839 229.007C264.11 228.832 265.376 228.62 266.635 228.373L269.298 221.584C248.39 226.468 250.146 219.833 250.146 219.833Z" fill="#01A0E9"/>
<path d="M290.887 211.851C290.887 211.851 289.244 212.004 289.527 213.194C290.151 215.518 298.934 212.746 302.673 215.574C307.206 219.047 304.94 224.21 303.523 226.414C301.596 229.412 294.4 229.916 289.187 229.916C280.801 229.916 276.097 228.613 276.097 228.613V222.799C283.861 224.046 291.794 223.36 291.794 223.36C291.794 223.36 292.587 223.405 292.587 222.085C292.36 221.008 290.151 221.354 288.054 221.229C283.521 220.952 281.481 220.855 281.481 220.855C281.481 220.855 273.094 219.835 274.794 211.177C276.664 200.592 304.77 205.811 304.77 205.811V212.747C297.29 211.415 290.887 211.851 290.887 211.851ZM122.424 205.811H136.307V205.901H136.364V209.942C136.817 208.463 138.97 203.119 147.129 204.729V217.591C147.129 217.591 136.42 217.427 137.1 221.297V229.009H136.364V229.094H121.971V205.901H122.424V205.811Z" fill="#01A0E9"/>
</svg>
