<svg width="480" height="320" viewBox="0 0 480 320" fill="none" xmlns="http://www.w3.org/2000/svg">
<path d="M159.507 220.294L155.44 219.814L155.227 214.268L155.014 208.723L159.046 208.972C163.808 209.267 168.103 207.552 169.326 204.867C170.49 202.313 169.502 198.677 162.54 179.886C159.225 170.94 156.644 163.084 156.805 162.429C156.965 161.773 158.72 159.052 160.705 156.38L164.313 151.522L174.105 151.42L176.97 165.946C178.546 173.935 180.204 180.976 180.655 181.593C182.655 184.328 183.606 181.906 186.524 166.658L189.441 151.42H209.615L207.57 157.89C194.62 198.862 193.323 202.221 187.281 210.429C185.386 213.002 182.181 216.138 179.892 217.658C176.173 220.128 175.359 220.359 169.712 220.558C166.336 220.677 161.744 220.558 159.507 220.294V220.294ZM64.1256 198.904L55.4534 197.522L55.5629 191.591C55.3463 186.617 54.8198 187.207 57.811 188.071C67.3889 190.838 77.7187 191.556 81.6864 189.137C84.7099 187.294 84.9349 184.541 82.2082 182.755C81.1735 182.077 77.0977 180.866 73.1506 180.065C61.2067 177.64 56.6256 174.493 55.5873 168C53.5917 155.521 67.8472 148.165 89.4547 150.524C100.016 151.677 99.6167 151.421 99.6167 157.045C99.6167 162.452 100.225 162.184 91.4833 160.619C83.7557 159.235 78.6373 159.763 76.2065 162.193C74.1429 164.257 74.0273 165.572 75.7713 167.147C77.1075 168.353 79.0545 168.879 90.3568 171.086C96.077 172.203 97.3923 172.753 99.8794 175.073C102.348 177.376 102.818 178.321 103.135 181.612C103.583 186.275 101.99 190.953 98.9694 193.847C93.4038 199.179 77.9947 201.415 64.1259 198.904H64.1256Z" fill="#F58322"/>
<path d="M203.121 128.469V147.716H207.142C209.805 147.716 211.546 148.124 212.317 148.894C212.956 149.533 213.473 150.109 213.473 150.188C213.473 150.268 211.143 157.638 208.297 166.571C203.215 182.518 203.121 182.969 203.121 190.786V198.734H222.345V195.199C222.345 191.966 223.271 189.861 224.679 189.861C224.978 189.861 225.958 191.212 226.874 192.842C228.62 195.949 230.832 197.789 234.545 199.242C240.762 201.675 250.374 199.588 255.202 194.76C259.315 190.646 260.87 186.159 261.348 176.876C262.129 161.736 256.891 152.852 245.844 150.535C240.535 149.421 236.702 149.533 230.119 154.041C227.407 155.897 225.583 157.909 225.234 157.559C224.886 157.212 224.513 150.603 224.402 142.887L223.634 128.581L203.121 128.469L203.121 128.469ZM231.472 162.504C236.692 162.504 239.351 166.482 239.351 174.219C239.351 179.479 238.397 182.941 236.301 185.171C234.52 187.067 229.795 187.542 227.267 186.072C225.068 184.794 223.824 180.706 223.824 174.773C223.824 165.866 225.931 162.504 231.472 162.504Z" fill="#F58322"/>
<path d="M265.676 199.126C264.087 198.56 262.163 197.473 261.401 196.712C260.048 195.358 260.058 195.236 261.846 191.304C267.074 179.804 265.933 163.231 259.348 155.037C258.115 153.503 256.826 151.595 256.826 151.368L278.549 151.421V184.022L280.363 185.837C282.908 188.381 286.788 188.32 288.846 185.703C290.291 183.867 290.379 182.824 290.379 167.588V151.421H311.821V198.742H291.858V195.022C291.858 190.078 290.447 189.526 286.815 193.051C280.399 199.277 272.483 201.552 265.676 199.126ZM100.536 196.785C104.365 194.061 106.618 189.156 106.599 183.585C106.58 177.993 104.75 174.085 100.979 171.59C98.8069 170.153 98.1372 169.222 98.1372 167.639C98.1372 165.929 98.492 165.527 100.17 165.334L102.204 165.1L102.414 157.138L102.624 149.176L100.36 148.723L98.0956 148.271L98.3012 138.57L98.4135 128.59L119.579 128.619V149.542C119.579 177.063 119.232 176.703 130.293 160.654L136.656 151.421H148.541C157.937 151.421 160.377 151.236 159.814 151.966C150.205 164.431 145.458 171.314 145.458 172.294C145.458 173.418 157.733 193.933 159.991 196.582C160.538 197.224 160.985 197.973 160.985 198.246C160.985 198.519 155.518 198.742 148.836 198.742H136.686L135.274 196.709C134.498 195.591 131.446 190.266 128.493 184.875C125.54 179.485 122.811 174.881 122.428 174.645C122.046 174.409 121.249 174.617 120.656 175.109C119.799 175.82 119.58 178.32 119.58 187.372V198.742H97.7852L100.536 196.785L100.536 196.785Z" fill="#F58322"/>
<path d="M380.079 165.165C375.858 163.26 374.517 158.578 376.237 151.748C377.365 147.267 378.367 147.618 378.367 152.495C378.367 157.338 379.389 159.848 381.811 160.952C384.377 162.121 385.556 161.978 387.24 160.294C390.067 157.467 388.675 152.016 384.266 148.653C381.972 146.902 379.678 146.006 371.485 143.657C357.141 139.546 351.01 134.495 351.01 126.788C351.01 116.616 365.923 113.991 378.486 121.95C381.962 124.152 383.188 125.8 382.355 127.148C382.099 127.563 381.023 127.04 379.881 125.946C378.77 124.881 376.141 123.357 374.039 122.558C362.802 118.288 352.772 124.19 358.897 131.469C361.781 134.897 365.48 136.983 373.825 139.888C382.384 142.867 385.436 144.308 387.866 146.517C390.654 149.05 392.416 153.223 392.416 157.295C392.416 160.303 392.029 161.443 390.382 163.285C387.946 166.012 383.68 166.79 380.079 165.165Z" fill="#FDB813"/>
<path d="M322.161 198.849C313.952 197.682 315.518 198.602 315.518 193.133C315.518 188.446 315.104 188.308 316.715 188.825C323.118 190.879 333.286 191.237 337.282 189.567C340.089 188.395 341.128 186.217 339.941 183.998C339.12 182.465 336.359 181.528 325.835 179.212C322.766 178.536 319.189 177.336 317.886 176.544L315.518 175.103V155.978L317.921 154.509C324.102 150.732 337.587 149.126 348.79 150.833L355.075 151.791L355.294 156.782C355.414 159.527 355.248 161.766 354.924 161.759C354.601 161.752 351.508 161.236 348.051 160.614C341.745 159.478 336.525 159.697 333.633 161.217C331.717 162.224 331.07 163.24 331.056 165.266C331.04 167.573 333.764 168.745 342.506 170.194C355.481 172.344 359.512 175.5 359.512 183.508C359.512 187.343 359.156 188.667 357.419 191.29C352.789 198.287 337.673 201.056 322.161 198.849Z" fill="#F58322"/>
<path d="M405.226 158.076C399.353 155.142 392.207 147.938 389.484 142.208C387.615 138.273 385.023 128.395 385.023 125.202C385.023 124.575 385.47 124.062 386.015 124.062C386.614 124.062 387.368 125.677 387.919 128.14C390.145 138.089 398.696 149.856 406.608 153.859C411.732 156.452 414.751 156.466 416.764 153.907C419.993 149.801 417.637 144.85 410.806 141.389C407.287 139.605 406.296 137.844 407.901 136.225C408.284 135.838 410.314 131.696 412.411 127.019C415.476 120.186 416.301 117.488 416.611 113.28C416.985 108.195 416.934 107.994 414.873 106.37C413.236 105.079 412.114 104.782 409.967 105.068C401.368 106.215 393.168 114.685 391.932 123.697C391.157 129.35 389.943 127.588 390.405 121.481C391.399 108.336 399.845 99.4204 411.33 99.3946C419.554 99.376 423.151 103.074 423.034 111.427C422.959 116.861 420.275 124.502 415.702 132.305C414.282 134.728 413.12 136.852 413.12 137.025C413.12 137.199 414.4 137.993 415.963 138.791C419.504 140.597 423.046 144.561 424.174 147.98C425.359 151.568 424.105 155.931 421.183 158.389C417.814 161.224 411.268 161.096 405.226 158.076V158.076Z" fill="#FDB813"/>
</svg>
