<svg width="480" height="320" viewBox="0 0 480 320" fill="none" xmlns="http://www.w3.org/2000/svg">
<path d="M424.614 150.844H408.132L368.428 172.925L351.062 186.779H409.243L424.614 150.844Z" fill="#1E398D"/>
<path d="M384.276 150.844L381.784 128.445L369.96 150.844H346.734L362.689 164.616L351.067 186.779L372.587 173.16L388.262 186.69L385.833 164.845L408.136 150.844H384.276Z" fill="#DCAA0D"/>
<path d="M351.062 186.779L372.583 173.16L388.269 186.779L385.838 164.931L408.132 150.844C408.132 150.844 373.269 152.955 351.062 186.779Z" fill="#FFDD00"/>
<path d="M75.7881 186.807H55.3828L58.5149 179.429H76.2695C76.2695 179.429 79.6432 179.084 81.3633 176.662C83.0824 174.241 78.2692 173.088 78.2692 173.088L68.3761 170.321C67.5513 170.091 59.4226 167.785 64.163 158.792C68.9016 149.8 79.2986 150.838 79.2986 150.838H99.1268L95.9957 158.217H78.2411C78.2411 158.217 75.2431 158.217 73.9685 160.406C72.6922 162.596 75.9239 163.404 76.7978 163.519C77.6706 163.634 85.0735 165.479 86.6241 166.17C88.1754 166.861 95.7448 169.399 91.6769 177.354C88.075 184.394 82.9364 186.807 75.7881 186.807ZM92.389 186.807L107.657 150.838H118.264L112.146 165.249L128.524 150.838H141.781L123.262 165.133L130.434 186.807H118.098L113.738 171.82L107.204 176.893L102.996 186.807H92.389ZM179.71 150.838H167.146L153.699 165.133L153.887 150.838H142.704L144.61 173.78L139.081 186.807H149.686L155.217 173.78L179.71 150.838ZM176.966 186.931L187.867 160.551L186.777 186.931H194.407L212.067 159.679L202.692 186.931H211.849L227.546 150.305H210.104L194.844 174.94L195.061 150.305L182.635 150.414L168.028 186.931H176.966ZM244.811 150.372L213.576 186.693H223.652L229.417 179.031H242.46V186.693H253.207V150.372H244.811ZM243.356 172.892H234.399L243.952 160.652L243.356 172.892ZM295.656 186.766L310.922 150.797H321.529L315.413 165.207L331.79 150.797H345.048L326.528 165.092L333.7 186.766H321.364L317.003 171.778L310.47 176.851L306.262 186.766H295.656ZM291.221 150.453H270.126L254.095 186.693H264.478L270.027 172.728H276.518L280.546 186.693H293.631L287.976 171.302C287.976 171.302 293.778 168.942 298.204 161.861C302.629 154.78 299.482 150.453 291.221 150.453ZM279.764 165.401H273.322L276.912 157.091H284.977C286.944 157.091 289.107 157.14 289.107 159.648C289.107 164.221 282.855 165.401 279.764 165.401Z" fill="#1E398D"/>
</svg>
