<svg width="480" height="320" viewBox="0 0 480 320" fill="none" xmlns="http://www.w3.org/2000/svg">
<path d="M302.191 70.7034C303.305 71.1532 304.59 70.6177 305.04 69.5038L305.062 69.461C305.512 68.3256 304.976 67.0404 303.841 66.5691C302.705 66.1193 301.42 66.6548 300.949 67.7901C300.478 68.9254 301.034 70.2107 302.191 70.7034C302.17 70.682 302.17 70.682 302.191 70.7034ZM302.341 70.3392C301.399 69.9751 300.949 68.9254 301.313 67.9829C301.656 67.0618 302.684 66.6119 303.605 66.9547L303.648 66.9761C304.569 67.3403 305.04 68.3899 304.655 69.3324C304.312 70.2321 303.284 70.7034 302.341 70.3392ZM303.412 69.0325C303.712 69.1825 304.076 69.0539 304.226 68.7541L304.248 68.6898C304.355 68.4542 304.355 68.1757 304.205 67.9615C304.055 67.8115 303.862 67.683 303.648 67.6187L302.555 67.1903L301.699 69.4181L302.127 69.5895L302.47 68.6684L302.92 68.8397L303.048 69.9536L303.562 70.1464L303.412 69.0325ZM302.663 68.3042L302.877 67.683L303.434 67.8972C303.626 67.9829 303.948 68.1114 303.841 68.4113C303.734 68.7112 303.541 68.7112 303.284 68.5827L302.663 68.3042Z" fill="#003D79"/>
<path d="M313.908 99.6875L313.822 99.7732C350.774 136.96 350.581 197.046 313.415 233.998C279.334 267.865 225.31 270.928 187.631 241.11L187.523 241.195C225.867 276.926 285.911 274.805 321.641 236.461C357.286 198.203 355.272 138.31 317.1 102.537C316.071 101.573 315 100.609 313.908 99.6875Z" fill="#003D79"/>
<path d="M145.687 207.563C142.688 209.255 141.96 211.783 143.545 215.703C144.959 219.237 147.251 220.823 149.65 219.859C151.578 219.066 151.899 217.417 151.085 213.154L150.742 211.504C150.014 208.955 149.864 206.278 150.314 203.664C150.7 201.801 152.006 200.28 153.784 199.594C158.068 197.881 162.117 200.494 164.538 206.535C167.172 213.025 165.759 218.016 160.66 220.116L159.375 216.924C162.888 215.382 163.788 212.061 161.946 207.349C160.382 203.45 157.919 201.758 155.348 202.786C153.249 203.622 152.735 205.571 153.527 209.941L153.827 211.783L154.084 213.39C154.577 215.296 154.684 217.267 154.384 219.216C153.998 220.951 152.735 222.344 151.064 222.943C147.058 224.507 143.138 222.172 140.953 216.753C138.597 210.819 139.839 206.471 144.38 204.457L145.687 207.563Z" fill="#003D79"/>
<path d="M142.966 173.333L157.383 161.188L157.49 165.686L145.237 175.775L149.243 180.124L157.811 179.931L157.897 183.465L133.391 183.98L133.284 180.488L142.924 180.274H145.515L144.659 179.417L143.866 178.539L133.027 166.821L132.898 162.173L142.966 173.333Z" fill="#003D79"/>
<path d="M153.87 135.44L163.274 138.675L162.117 142.038L152.714 138.675L135.77 143.816L137.162 139.746L147.701 136.875L149.008 136.49C149.586 136.318 150.186 136.19 150.786 136.083C150.122 135.311 149.5 134.519 148.922 133.683L142.389 124.858L143.738 121.066L153.87 135.44Z" fill="#003D79"/>
<path d="M170.405 90.4779L165.243 96.7971L180.709 109.414L177.025 113.998L161.58 101.36L156.417 107.593L152.926 104.787L166.978 87.6289L170.405 90.4779Z" fill="#003D79"/>
<path d="M203.395 67.2755L191.035 74.473L193.691 78.9929L205.023 72.3738L207.187 75.9725L195.812 82.613L198.875 87.8184L211.492 80.4709L213.784 84.391L196.112 94.6945L183.773 73.5519L201.146 63.3555L203.395 67.2755Z" fill="#003D79"/>
<path d="M250.78 76.7648L244.461 77.1718L241.29 71.9237L231.372 73.4874L230.001 79.5067L223.875 81.0705L230.301 54.3369L236.363 53.3516L250.78 76.7648ZM236.878 64.1478C235.828 62.5626 234.928 60.8918 234.2 59.1567C233.964 61.0417 233.622 62.9268 233.15 64.769L232.122 69.4174L239.32 68.2606L236.878 64.1478Z" fill="#003D79"/>
<path d="M290.15 84.6497L285.009 82.6361L286.958 75.3743C287.151 74.5175 287.472 73.3822 287.879 71.9041C288.265 70.4261 288.65 69.1836 288.95 68.2625C289.25 67.2986 289.571 66.2704 289.871 65.1993L290.493 63.4642C289.036 65.9276 288.479 66.8273 287.129 68.8409C286.573 69.7192 286.058 70.4689 285.63 71.0687L278.69 80.751L274.213 79.5943L272.82 67.877C272.713 67.2557 272.649 66.4417 272.563 65.2636C272.499 63.7427 272.413 62.5645 272.392 61.7934C272.349 61.0865 272.349 60.1439 272.349 58.8158L271.728 61.7505C271.042 64.9851 270.699 66.3989 269.736 70.2761L267.679 78.1377L262.195 77.3022L268.407 53.332L276.676 54.9386L277.833 66.2275C278.111 68.9052 278.175 71.5828 278.047 74.2604C278.732 72.8681 279.504 71.54 280.36 70.2333C281.067 69.1194 281.667 68.1554 282.267 67.2986L288.693 58.0447L296.533 60.7009L290.15 84.6497Z" fill="#003D79"/>
<path d="M243.411 131.775C240.433 134.367 234.521 139.979 228.823 145.463L222.397 151.632C217.191 150.69 211.9 150.219 206.609 150.219C194.635 150.219 183.774 153.496 178.826 158.573C177.048 160.179 176.041 162.471 176.063 164.871C176.17 170.59 182.768 173.525 184.781 174.296C194.335 178.366 205.345 176.931 213.55 170.569C219.248 166.263 224.667 161.572 229.723 156.516C233.493 157.352 237.777 158.509 242.404 159.858L246.667 161.079C241.162 166.477 235.464 172.132 230.215 176.781L229.83 177.123C222.547 183.55 217.32 188.177 209.737 189.848C206.288 190.833 202.604 190.576 199.326 189.162C199.176 189.184 199.026 189.398 199.026 189.398C203.289 193.296 209.051 195.139 214.792 194.432C221.625 193.853 229.508 189.591 237.627 182.072L248.445 171.361L255.985 163.8C255.985 163.821 271.408 168.319 271.408 168.319C271.515 168.341 271.622 168.362 271.708 168.405C271.515 168.405 262.09 177.68 262.09 177.68L253.929 185.82C248.445 191.561 242.49 196.852 236.149 201.651C227.966 207.413 221.09 210.433 214.964 210.797C210.958 211.183 206.952 210.39 203.375 208.548C203.203 208.527 203.011 208.741 203.011 208.741C207.723 213.582 214.214 216.303 220.983 216.26C230.879 216.003 239.641 211.247 253.157 198.737C259.369 192.975 265.582 186.677 271.044 181.022L281.155 170.761C287.474 172.218 293.943 172.861 300.412 172.711C310.009 172.539 318.085 167.934 318.192 162.686C317.956 159.58 316.071 156.816 313.265 155.488C309.73 153.282 305.66 152.104 301.483 152.125C293.172 152.553 285.289 155.895 279.184 161.55L274.086 166.027C274.15 165.984 272.222 165.513 272.222 165.513L258.127 161.593C262.283 157.695 265.817 154.331 269.03 151.547C274.878 146.084 282.29 142.571 290.237 141.543C293.857 141.307 300.262 141.629 302.854 143.492C302.961 143.449 303.133 143.192 303.133 143.192C298.27 138.694 291.822 136.295 285.203 136.509C280.319 136.509 272.522 138.051 262.904 145.463C257.891 149.662 253.157 154.139 248.702 158.916C248.702 158.851 241.59 156.709 241.59 156.709L239.855 156.174L232.336 153.903C232.507 153.903 236.663 149.876 236.663 149.876C241.676 144.949 246.474 140.236 250.137 137.13C263.568 125.777 272.158 124.278 278.049 124.213C283.425 123.913 288.781 125.306 293.322 128.198C293.429 128.198 293.622 127.962 293.622 127.962C287.795 121.814 279.612 118.494 271.151 118.837C262.84 118.687 252.986 123.292 243.411 131.775ZM190.201 172.261C185.917 171.961 183.774 170.183 183.774 166.82C183.774 166.37 184.074 155.638 208.559 154.417C212.136 154.203 215.713 154.31 219.269 154.717C219.055 154.76 216.484 157.116 216.484 157.116L214.985 158.53C209.03 163.907 199.069 172.818 190.201 172.261ZM289.573 163.564C296.685 158.808 302.533 156.259 306.175 156.388C308.338 156.474 310.93 157.138 310.93 159.815C310.93 162.493 308.317 164.849 303.218 166.67C297.049 168.384 290.601 168.769 284.282 167.805C285.974 166.306 287.731 164.871 289.573 163.564Z" fill="#003D79"/>
</svg>
