<svg width="480" height="320" viewBox="0 0 480 320" fill="none" xmlns="http://www.w3.org/2000/svg">
<path d="M55.3848 103.012H424.616V216.986H55.3848V103.012Z" fill="#002557"/>
<mask id="mask0_730_18172" style="mask-type:luminance" maskUnits="userSpaceOnUse" x="65" y="112" width="350" height="96">
<path d="M65.6406 112.824H414.359V207.175H65.6406V112.824Z" fill="white"/>
</mask>
<g mask="url(#mask0_730_18172)">
<path d="M148.706 181.467H152.79V183.732C152.79 186.882 154.474 188.392 159.888 188.392H173.378C179.678 188.392 181.541 187.057 181.541 182.447C181.541 178.407 179.946 177.386 174.532 177.386H166.278C153.009 177.386 148.662 176.587 148.662 168.07C148.662 160.747 153.009 159.105 161.972 159.105H171.335C182.118 159.105 184.826 161.856 184.826 167.58V168.692H180.742C180.656 163.588 180.118 162.655 168.718 162.655H164.102C155.716 162.655 152.743 163.1 152.743 168.381C152.743 172.199 153.944 173.483 160.733 173.483H173.6C182.076 173.483 185.624 175.924 185.624 181.378V183.465C185.624 191.362 179.145 191.941 172.713 191.941H160.64C154.296 191.941 148.706 190.834 148.706 183.82V181.467ZM198.04 177.522H199.9L213.08 168.957H219.03L219.113 169.047L203.496 179.071L222.09 191.5L221.997 191.586H216.055L199.681 180.626H198.04V191.586H194.222V159.461H198.04V177.522ZM272.601 187.546L283.605 159.461H289.197L300.068 187.682L311.429 159.461H315.685L302.908 191.586H297.317L286.402 163.365L275.484 191.586H269.896L257.117 159.461H261.378L272.601 187.546ZM316.864 177.783C316.864 170.329 322.143 168.603 329.376 168.603H334.835C342.068 168.603 347.35 170.329 347.35 177.783V182.756C347.35 190.21 342.068 191.942 334.835 191.942H329.376C322.143 191.942 316.864 190.21 316.864 182.756V177.783ZM343.529 178.007C343.529 172.728 340.426 171.711 335.985 171.711H328.222C323.787 171.711 320.678 172.728 320.678 178.007V182.534C320.678 187.813 323.787 188.836 328.222 188.836H335.985C340.426 188.836 343.529 187.813 343.529 182.534L343.529 178.007ZM355.767 168.957H359.316V172.241H359.404C360.825 169.312 363.708 168.603 366.328 168.603H369.923C377.066 168.603 379.416 170.909 379.416 176.456V179.159H375.865V178.188C375.865 172.594 374.715 171.707 367.925 171.707H365.574C361.535 171.707 359.583 174.28 359.583 177.211V191.586H355.767L355.767 168.957ZM390.308 177.522H392.168L405.351 168.957H411.296L411.381 169.047L395.767 179.071L414.36 191.5L414.268 191.586H408.321L391.947 180.626H390.308V191.586H386.49V159.461H390.308V177.522Z" fill="white"/>
</g>
<mask id="mask1_730_18172" style="mask-type:luminance" maskUnits="userSpaceOnUse" x="65" y="112" width="350" height="96">
<path d="M65.6406 112.824H414.359V207.175H65.6406V112.824Z" fill="white"/>
</mask>
<g mask="url(#mask1_730_18172)">
<path fill-rule="evenodd" clip-rule="evenodd" d="M132.494 183.882C127.745 168.114 110.695 157.857 95.7926 146.552C99.2916 145.203 102.989 144.521 106.682 144.521C114.648 144.521 122.596 147.647 128.538 153.868L130.146 152.337C123.77 145.66 115.228 142.298 106.682 142.298C102.284 142.298 97.8932 143.22 93.7804 145.008C82.3648 136.129 72.6445 126.434 71.4287 112.828C63.7259 127.728 72.639 139.172 85.8329 149.941C85.3135 150.381 84.7834 150.805 84.2852 151.284C83.4132 152.113 82.6078 152.98 81.8507 153.878C74.9145 148.113 69.2574 141.593 66.4582 133.387C63.4963 144.329 68.9023 152.706 77.8059 160.012C77.1379 161.323 76.5717 162.669 76.0939 164.043C72.8793 161.312 69.9333 158.158 67.3866 154.385C67.7752 160.898 70.4791 165.98 74.6124 170.133C74.3924 171.663 74.2441 173.202 74.2441 174.741C74.2441 182.788 77.2262 190.866 83.2287 197.146C89.5977 203.81 98.1407 207.176 106.695 207.176H106.71C114.755 207.176 122.821 204.197 129.094 198.203L129.055 198.164C129.814 198.645 130.563 199.166 131.289 199.782C133.114 201.328 134.075 203.936 135.839 205.637C132.963 198.454 134.576 190.8 132.494 183.882ZM106.695 204.953C98.7201 204.953 90.7743 201.823 84.841 195.611C79.2439 189.756 76.4675 182.241 76.4675 174.741C76.4675 173.82 76.5196 172.9 76.6053 171.976C88.8938 182.454 110.739 186.73 125.458 194.521C104.641 186.391 96.1628 191.348 77.5734 176.085C90.9545 201.922 111.903 189.629 127.056 197.032C121.273 202.312 113.991 204.953 106.695 204.953ZM77.918 165.526C78.364 164.123 78.9357 162.756 79.5936 161.422C94.6938 173.015 118.103 182.064 129.292 194.839C114.637 181.03 93.4862 177.64 77.918 165.526M83.5679 155.285C84.2666 154.456 85.0157 153.653 85.8143 152.89C86.3885 152.342 86.9909 151.845 87.5943 151.351C99.3412 160.639 113.899 169.504 123.269 179.757C127.113 183.953 130.2 189.396 132.479 196.07C123.611 178.158 100.396 168.614 83.5679 155.285Z" fill="#C8D409"/>
</g>
<mask id="mask2_730_18172" style="mask-type:luminance" maskUnits="userSpaceOnUse" x="65" y="112" width="350" height="96">
<path d="M65.6406 112.824H414.359V207.175H65.6406V112.824Z" fill="white"/>
</mask>
<g mask="url(#mask2_730_18172)">
<path d="M228.728 168.957H224.428L237.82 192.9L232.113 204.477L235.834 204.491L253.261 168.966L249.539 168.957L239.688 188.972L228.728 168.957Z" fill="white"/>
</g>
</svg>
