<svg width="480" height="320" viewBox="0 0 480 320" fill="none" xmlns="http://www.w3.org/2000/svg">
<mask id="mask0_730_18519" style="mask-type:luminance" maskUnits="userSpaceOnUse" x="55" y="90" width="370" height="140">
<path d="M55.3945 229.297H424.627V90.6853H55.3945V229.297Z" fill="white"/>
</mask>
<g mask="url(#mask0_730_18519)">
<path d="M115.428 227.342V215.207C115.428 214.907 115.381 214.692 115.287 214.568C115.194 214.443 115.013 214.347 114.738 214.282V213.939H117.802V214.282C117.531 214.354 117.346 214.451 117.255 214.573C117.163 214.695 117.114 214.907 117.114 215.207V227.342C117.114 227.642 117.159 227.853 117.25 227.976C117.339 228.098 117.522 228.194 117.802 228.265V228.609H114.738V228.265C115.018 228.194 115.204 228.098 115.292 227.976C115.383 227.853 115.428 227.642 115.428 227.342ZM127.664 215.798V227.341C127.664 227.636 127.71 227.845 127.805 227.97C127.898 228.096 128.079 228.194 128.352 228.264V228.609H125.44V228.264C125.72 228.194 125.903 228.098 125.994 227.975C126.083 227.853 126.128 227.642 126.128 227.341V215.207C126.128 214.906 126.081 214.691 125.989 214.567C125.894 214.443 125.712 214.347 125.44 214.282V213.939H129.655V214.282C129.317 214.397 129.151 214.558 129.151 214.766C129.151 214.908 129.317 215.177 129.655 215.572L138.498 225.91V215.207C138.498 214.906 138.451 214.691 138.359 214.567C138.266 214.443 138.082 214.347 137.81 214.282V213.939H140.722V214.282C140.451 214.347 140.268 214.443 140.175 214.567C140.082 214.691 140.036 214.906 140.036 215.207V227.341C140.036 227.642 140.082 227.853 140.175 227.975C140.268 228.098 140.451 228.194 140.722 228.264V228.609H137.336V228.264C137.665 228.179 137.83 228.033 137.83 227.825C137.83 227.668 137.68 227.408 137.38 227.05L127.664 215.798ZM163.74 215.207L162.15 217.861L161.859 217.69C161.924 217.473 161.957 217.307 161.957 217.184C161.957 216.891 161.5 216.523 160.58 216.078C159.32 215.462 157.945 215.153 156.453 215.153C154.447 215.153 152.822 215.707 151.574 216.817C150.306 217.948 149.673 219.412 149.673 221.21C149.673 223 150.331 224.483 151.65 225.666C152.925 226.819 154.499 227.395 156.369 227.395C158.195 227.395 159.807 226.863 161.203 225.799C161.835 225.317 162.15 224.978 162.15 224.778C162.15 224.678 162.089 224.513 161.969 224.283L162.226 224.079L164.139 226.4L163.87 226.617C163.668 226.437 163.505 226.348 163.375 226.348C163.296 226.348 163.16 226.422 162.968 226.574C162.308 227.069 161.761 227.44 161.329 227.688C160.893 227.936 160.419 228.146 159.904 228.318C158.836 228.683 157.661 228.867 156.38 228.867C153.908 228.867 151.897 228.179 150.349 226.804C148.724 225.364 147.91 223.525 147.91 221.29C147.91 219.527 148.418 218.002 149.435 216.712C151.026 214.691 153.409 213.681 156.582 213.681C158.682 213.681 160.714 214.235 162.676 215.348C162.806 215.418 162.895 215.453 162.947 215.453C163.038 215.453 163.207 215.318 163.451 215.045L163.74 215.207ZM179.084 215.153C176.886 215.153 175.143 215.768 173.861 217.001C172.686 218.133 172.098 219.557 172.098 221.27C172.098 222.988 172.686 224.415 173.861 225.545C175.136 226.78 176.886 227.395 179.106 227.395C181.334 227.395 183.089 226.78 184.372 225.545C185.54 224.415 186.123 223.016 186.123 221.355C186.123 219.557 185.54 218.106 184.372 217.001C183.669 216.343 182.919 215.88 182.116 215.615C181.227 215.314 180.216 215.161 179.084 215.153ZM179.084 213.681C181.671 213.681 183.757 214.358 185.339 215.711C186.229 216.465 186.894 217.385 187.337 218.474C187.704 219.37 187.886 220.334 187.886 221.364C187.886 222.763 187.489 224.07 186.694 225.288C185.819 226.635 184.605 227.607 183.05 228.2C181.89 228.644 180.576 228.867 179.106 228.867C176.534 228.867 174.46 228.19 172.884 226.835C172.002 226.077 171.335 225.154 170.884 224.074C170.519 223.184 170.336 222.25 170.336 221.27C170.336 219.815 170.73 218.474 171.518 217.249C172.376 215.922 173.596 214.955 175.171 214.347C176.276 213.924 177.579 213.702 179.084 213.681ZM197.524 220.613H203.468C204.276 220.613 204.888 220.579 205.299 220.511C205.711 220.442 206.074 220.32 206.391 220.14C207.129 219.71 207.497 218.989 207.497 217.979C207.497 216.963 207.117 216.239 206.358 215.809C206.022 215.621 205.646 215.497 205.234 215.432C204.823 215.368 204.183 215.336 203.318 215.336H197.524V220.613ZM197.524 222.008V227.343C197.524 227.636 197.57 227.845 197.665 227.969C197.756 228.095 197.939 228.194 198.212 228.266V228.609H195.148V228.266C195.42 228.194 195.604 228.097 195.696 227.975C195.791 227.852 195.837 227.641 195.837 227.341V215.206C195.837 214.906 195.791 214.693 195.696 214.567C195.604 214.443 195.42 214.346 195.148 214.281V213.938H203.197C204.302 213.938 205.175 213.998 205.815 214.116C206.458 214.233 207.014 214.441 207.486 214.734C207.976 215.036 208.369 215.449 208.669 215.972C209.014 216.567 209.184 217.238 209.184 217.985C209.184 219.104 208.813 220.018 208.072 220.724C207.332 221.43 206.311 221.834 205.016 221.936L208.743 227.728C208.967 228.086 209.288 228.266 209.712 228.266V228.609H206.317V228.266C206.667 228.208 206.843 228.108 206.843 227.964C206.843 227.893 206.717 227.662 206.465 227.267L203.133 222.008H197.524ZM218.844 220.613H224.347C225.164 220.613 225.77 220.579 226.169 220.516C226.565 220.452 226.923 220.326 227.236 220.14C227.968 219.71 228.334 218.989 228.334 217.979C228.334 216.963 227.968 216.239 227.236 215.809C226.923 215.621 226.567 215.497 226.174 215.432C225.779 215.368 225.171 215.336 224.347 215.336H218.844V220.613ZM218.844 222.008V227.48C218.844 227.702 218.892 227.871 218.992 227.986C219.094 228.101 219.274 228.194 219.531 228.266V228.609H216.468V228.266C216.725 228.194 216.905 228.101 217.005 227.986C217.105 227.871 217.157 227.702 217.157 227.48V215.056C217.157 214.841 217.105 214.676 217.005 214.561C216.905 214.448 216.725 214.354 216.468 214.281V213.938H224.186C225.266 213.938 226.109 213.996 226.71 214.111C227.312 214.226 227.85 214.433 228.322 214.734C228.815 215.036 229.216 215.447 229.516 215.97C229.853 216.557 230.022 217.215 230.022 217.948C230.022 218.95 229.713 219.81 229.097 220.526C228.623 221.08 228.024 221.464 227.296 221.682C226.569 221.901 225.531 222.008 224.186 222.008H218.844ZM245.149 215.153C242.951 215.153 241.21 215.768 239.928 217.001C238.753 218.133 238.165 219.557 238.165 221.27C238.165 222.988 238.753 224.415 239.928 225.545C241.201 226.78 242.951 227.395 245.171 227.395C247.399 227.395 249.156 226.78 250.439 225.545C251.605 224.415 252.19 223.016 252.19 221.355C252.19 219.557 251.605 218.106 250.439 217.001C249.736 216.343 248.984 215.88 248.181 215.615C247.293 215.314 246.283 215.161 245.149 215.153ZM245.149 213.681C247.736 213.681 249.823 214.358 251.406 215.711C252.294 216.465 252.96 217.385 253.402 218.474C253.769 219.37 253.953 220.334 253.953 221.364C253.953 222.763 253.554 224.07 252.759 225.288C251.884 226.635 250.67 227.607 249.115 228.2C247.955 228.644 246.641 228.867 245.171 228.867C242.599 228.867 240.525 228.19 238.949 226.835C238.067 226.077 237.4 225.154 236.949 224.074C236.584 223.184 236.402 222.25 236.402 221.27C236.402 219.815 236.795 218.474 237.585 217.249C238.443 215.922 239.661 214.955 241.236 214.347C242.341 213.924 243.644 213.702 245.149 213.681ZM263.587 220.613H269.532C270.34 220.613 270.953 220.579 271.365 220.511C271.776 220.442 272.137 220.32 272.454 220.14C273.192 219.71 273.561 218.989 273.561 217.979C273.561 216.963 273.181 216.239 272.421 215.809C272.086 215.621 271.711 215.497 271.3 215.432C270.888 215.368 270.249 215.336 269.381 215.336H263.587V220.613ZM263.587 222.008V227.343C263.587 227.636 263.636 227.845 263.728 227.969C263.819 228.095 264.003 228.194 264.275 228.266V228.609H261.211V228.266C261.484 228.194 261.667 228.097 261.762 227.975C261.854 227.852 261.901 227.641 261.901 227.341V215.206C261.901 214.906 261.854 214.693 261.762 214.567C261.667 214.443 261.484 214.346 261.211 214.281V213.938H269.261C270.367 213.938 271.239 213.998 271.88 214.116C272.521 214.233 273.077 214.441 273.55 214.734C274.039 215.036 274.432 215.449 274.732 215.972C275.077 216.567 275.248 217.238 275.248 217.985C275.248 219.104 274.877 220.018 274.136 220.724C273.396 221.43 272.375 221.834 271.079 221.936L274.808 227.728C275.031 228.086 275.351 228.266 275.776 228.266V228.609H272.38V228.266C272.731 228.208 272.907 228.108 272.907 227.964C272.907 227.893 272.781 227.662 272.53 227.267L269.198 222.008H263.587ZM292.32 223.096L289.017 215.845L285.716 223.096H292.32ZM292.941 224.492H285.093L283.803 227.276C283.681 227.542 283.62 227.728 283.62 227.835C283.62 228.05 283.833 228.193 284.257 228.265V228.61H280.984V228.265C281.277 228.215 281.501 228.108 281.657 227.943C281.809 227.778 282.013 227.42 282.261 226.868L287.636 215.271C287.766 214.991 287.831 214.802 287.831 214.702C287.831 214.514 287.655 214.375 287.305 214.283V213.94H290.873V214.283C290.52 214.398 290.344 214.548 290.344 214.733C290.344 214.813 290.409 214.991 290.539 215.271L295.688 226.449C296.066 227.274 296.316 227.756 296.438 227.9C296.561 228.043 296.826 228.165 297.235 228.265V228.61H293.753V228.265C294.17 228.208 294.377 228.05 294.377 227.793C294.377 227.678 294.3 227.455 294.14 227.125L292.941 224.492ZM308.064 215.336V227.342C308.064 227.635 308.113 227.845 308.205 227.971C308.3 228.095 308.48 228.193 308.752 228.265V228.608H305.688V228.265C305.961 228.193 306.144 228.097 306.239 227.976C306.332 227.854 306.378 227.643 306.378 227.342V215.336H301.412C301.11 215.336 300.897 215.38 300.773 215.473C300.647 215.564 300.552 215.747 300.488 216.025H300.145V213.251H300.488C300.552 213.527 300.647 213.708 300.773 213.801C300.897 213.892 301.11 213.938 301.412 213.938H313.032C313.332 213.938 313.545 213.892 313.671 213.801C313.795 213.708 313.89 213.527 313.955 213.251H314.3V216.025H313.955C313.89 215.747 313.795 215.564 313.671 215.473C313.545 215.38 313.332 215.336 313.032 215.336H308.064ZM322.915 221.763V227.212H332.318C332.62 227.212 332.833 227.165 332.957 227.073C333.083 226.98 333.178 226.797 333.243 226.524H333.587V229.297H333.243C333.172 229.024 333.072 228.843 332.948 228.75C332.822 228.656 332.609 228.609 332.309 228.609H320.539V228.264C320.819 228.194 321.002 228.098 321.093 227.975C321.182 227.853 321.229 227.642 321.229 227.341V215.207C321.229 214.907 321.18 214.695 321.088 214.573C320.995 214.451 320.812 214.354 320.539 214.282V213.939H332.179C332.481 213.939 332.692 213.893 332.813 213.8C332.935 213.709 333.031 213.526 333.104 213.25H333.449V216.024H333.104C333.039 215.754 332.944 215.574 332.818 215.477C332.694 215.383 332.481 215.337 332.179 215.337H322.915V220.367H328.987C329.289 220.367 329.501 220.319 329.625 220.226C329.753 220.133 329.847 219.95 329.91 219.677H330.255V222.452H329.91C329.847 222.178 329.753 221.996 329.625 221.903C329.501 221.809 329.289 221.763 328.987 221.763H322.915ZM343.159 227.212H348.456C350.013 227.212 351.166 226.973 351.919 226.492C352.806 225.92 353.459 225.041 353.874 223.859C354.147 223.071 354.284 222.207 354.284 221.269C354.284 219.564 353.85 218.152 352.983 217.034C352.503 216.419 351.919 215.98 351.231 215.722C350.543 215.464 349.618 215.336 348.456 215.336H343.159V227.212ZM341.473 227.491V215.056C341.473 214.841 341.423 214.677 341.321 214.562C341.22 214.449 341.041 214.354 340.783 214.282V213.939H348.521C350.277 213.939 351.62 214.182 352.551 214.669C353.728 215.277 354.623 216.217 355.24 217.485C355.776 218.597 356.046 219.857 356.046 221.269C356.046 222.937 355.683 224.379 354.958 225.588C354.308 226.665 353.483 227.436 352.482 227.905C351.483 228.376 350.162 228.609 348.521 228.609H340.783V228.264C341.041 228.194 341.22 228.101 341.321 227.986C341.423 227.871 341.473 227.706 341.473 227.491Z" fill="#797677"/>
<path d="M262.264 124.716C262.045 127.888 261.133 130.868 259.656 133.5L418.315 128.414L262.264 124.716ZM222.02 124.716C222.238 127.888 223.15 130.868 224.627 133.5L65.9688 128.414L222.02 124.716Z" fill="#155196"/>
<path d="M243.737 107.845L242.897 98.8228L282.057 100.489L242.689 96.5763L242.141 90.686L241.592 96.5763L202.225 100.489L241.385 98.8228L240.545 107.845C232.736 108.644 226.646 115.239 226.646 123.259C226.646 131.818 233.582 138.754 242.141 138.754C250.7 138.754 257.636 131.818 257.636 123.259C257.636 115.239 251.545 108.644 243.737 107.845Z" fill="#155196"/>
<path d="M99.5386 162.546C92.855 159.143 86.049 157.44 79.1171 157.44C74.5094 157.44 70.9804 157.979 68.5319 159.06C66.0816 160.139 64.8584 161.634 64.8584 163.542C64.8584 165.536 66.165 166.989 68.7802 167.901C70.6485 168.566 73.6993 169.02 77.9326 169.271C84.1603 169.686 88.2695 170.018 90.262 170.266C95.9058 171.015 100.078 172.405 102.777 174.438C105.473 176.473 106.823 179.357 106.823 183.094C106.823 187.866 104.706 191.56 100.473 194.176C96.2394 196.791 90.1582 198.098 82.2291 198.098C70.732 198.098 61.7853 195.568 55.3945 190.502L59.5036 185.084C66.5598 189.403 74.1554 191.56 82.2921 191.56C87.5634 191.56 91.6521 190.834 94.5583 189.383C97.3385 187.97 98.7286 186.041 98.7286 183.591C98.7286 180.727 96.9011 178.818 93.2498 177.863C91.3407 177.365 86.1936 176.846 77.8085 176.306C70.378 175.808 65.1697 174.813 62.1819 173.319C58.6937 171.575 56.9515 168.648 56.9515 164.539C56.9515 160.305 58.9328 156.964 62.8973 154.515C66.86 152.065 72.4539 150.84 79.6768 150.84C89.389 150.84 97.5238 153.062 104.083 157.503L99.5386 162.546ZM157.363 197.039H149.311L131.216 177.179L119.778 185.576V197.039H113.513V159.245H119.778V178.822L146.242 159.245H155.285L135.957 173.545L157.363 197.039ZM205.234 159.244L184.56 182.109V197.038H178.297V182.111L157.624 159.244H165.434L181.463 176.893L197.421 159.244H205.234ZM278.092 151.961L263.335 197.039H253.66L242.417 159.396L231.173 197.039H221.621L206.739 151.961H215.065L226.41 189.703L237.683 151.961H247.149L258.442 189.774L269.77 151.961H278.092ZM322.733 197.039H283.164V159.245H321.271V164.883H289.428V174.592H311.561V180.23H289.428V191.401H322.733V197.039ZM364.287 168.119C358.682 165.266 352.975 163.839 347.163 163.839C343.3 163.839 340.342 164.291 338.29 165.196C336.237 166.1 335.21 167.355 335.21 168.954C335.21 170.624 336.305 171.842 338.498 172.609C340.064 173.165 342.622 173.547 346.171 173.757C351.391 174.105 354.838 174.383 356.508 174.593C361.24 175.219 364.737 176.385 367 178.09C369.263 179.795 370.394 182.214 370.394 185.346C370.394 189.348 368.618 192.447 365.067 194.638C361.52 196.831 356.421 197.926 349.774 197.926C340.132 197.926 332.633 195.806 327.275 191.559L330.719 187.016C336.637 190.636 343.004 192.447 349.826 192.447C354.245 192.447 357.674 191.837 360.109 190.62C362.441 189.435 363.607 187.817 363.607 185.764C363.607 183.361 362.074 181.762 359.014 180.961C357.412 180.542 353.097 180.109 346.067 179.656C339.836 179.239 335.469 178.403 332.963 177.15C330.04 175.688 328.58 173.236 328.58 169.789C328.58 166.241 330.241 163.439 333.564 161.385C336.887 159.331 341.578 158.304 347.632 158.304C355.778 158.304 362.597 160.167 368.096 163.891L364.287 168.119ZM417.271 164.883H399.209V197.038H392.944V164.883H374.882V159.244H417.271V164.883Z" fill="#1A1B1B"/>
<path d="M418.078 128.414L424.63 114.719L414.925 128.34L418.078 128.414ZM65.933 128.438L59.3828 114.742L69.0857 128.364L65.933 128.438Z" fill="#155196"/>
</g>
</svg>
