<svg width="480" height="320" viewBox="0 0 480 320" fill="none" xmlns="http://www.w3.org/2000/svg">
<path d="M383.669 137.725C386.304 137.361 393.015 136.418 395.378 135.89C397.749 135.361 410.859 133.434 417.646 133.319C424.428 133.2 424.024 133.652 424.226 134.896C424.43 136.137 425.02 136.575 424.171 137.748C423.321 138.925 421.868 139.423 419.839 140.263C416.087 141.807 399.519 146.172 397.286 147.287C400.711 147.12 405.71 146.166 410.653 146.026C413.942 145.929 414.408 146.661 414.679 148.117C414.947 149.58 415.138 150.364 412.907 151.266C410.684 152.171 408.046 153.112 402.792 154.633C395.558 156.73 391.151 157.781 385.629 160.082C388.663 160.358 393.598 159.918 397.55 160.087C403.481 160.34 403.812 160.988 403.957 162.74C404.098 164.495 404.234 165.006 401.8 166.117C399.367 167.23 394.961 168.356 392.464 168.883C389.961 169.412 380.661 171.404 378.854 171.88C377.275 172.293 375.892 174.158 373.392 175.008C370.611 175.953 369.401 175.578 368.51 173.578C367.86 172.123 369.681 170.789 371.986 170.116C374.285 169.445 381.062 167.936 383.954 167.189C386.85 166.434 392.6 164.843 394.535 164.088C391.985 164.11 385.613 164.214 380.877 164.316C378.037 164.371 376.958 164.234 376.487 162.116C376.012 160.004 376.93 159.263 379.494 158.442C382.058 157.621 385.919 155.855 388.416 155.034C390.916 154.209 397.834 151.743 399.812 151.288C395.135 151.177 384.512 153.523 381.776 154.114C379.669 154.567 379.399 153.828 378.593 152.352C377.784 150.883 378.819 149.899 380.107 149.594C381.682 149.216 384.862 147.668 389.177 145.95C392.67 144.558 397.622 143.089 401.273 141.85C404.737 140.669 410.614 138.678 412.493 137.886C410.977 137.875 404.024 138.903 399.48 139.52C394.942 140.136 387.16 141.728 385.981 142.173C384.796 142.62 383.429 142.459 382.626 140.658C381.836 138.872 382.544 137.874 383.666 137.725" fill="#F28E00"/>
<path d="M55.3848 172.328L61.6888 164.787C62.8112 166.004 63.9588 166.95 65.1472 167.619C66.3337 168.286 67.4385 168.622 68.4655 168.622C68.8954 168.622 69.263 168.523 69.5821 168.329C69.8952 168.126 70.0799 167.872 70.1364 167.56C70.2259 167.08 69.6929 166.537 68.5297 165.93L68.38 165.854L66.4641 164.841C64.9644 164.03 63.9179 163.09 63.3266 162.026C62.7314 160.962 62.5661 159.719 62.8287 158.301C63.313 155.666 64.8205 153.505 67.3452 151.807C69.8661 150.118 72.8732 149.274 76.3646 149.276C78.2008 149.276 79.9592 149.531 81.6553 150.031C83.3612 150.536 85.0514 151.315 86.7359 152.371L81.0406 159.252C80.2529 158.441 79.469 157.815 78.6871 157.385C77.9052 156.946 77.1485 156.726 76.4171 156.726C75.9659 156.726 75.5788 156.837 75.256 157.045C74.9311 157.267 74.7366 157.527 74.6802 157.841C74.6063 158.237 75.0595 158.659 76.0339 159.099C76.3102 159.233 76.5299 159.338 76.6739 159.404L78.2124 160.113C79.788 160.822 80.8772 161.727 81.4822 162.826C82.0871 163.923 82.2388 165.292 81.9373 166.922C81.3985 169.844 79.821 172.194 77.1991 173.973C74.579 175.755 71.3794 176.642 67.5942 176.642C65.5946 176.64 63.5697 176.284 61.5371 175.564C59.4967 174.849 57.4485 173.765 55.3848 172.328M80.1354 175.681L90.0379 150.101L102.335 150.103L100.851 153.787C102.751 152.225 104.523 151.076 106.159 150.36C107.795 149.642 109.436 149.288 111.088 149.288C112.784 149.288 114.147 149.702 115.167 150.541C116.186 151.375 116.876 152.651 117.242 154.367C118.845 152.676 120.58 151.42 122.451 150.566C124.332 149.714 126.3 149.292 128.362 149.292C130.865 149.294 132.746 149.996 133.999 151.406C135.252 152.816 135.666 154.701 135.234 157.041C135.119 157.666 134.942 158.374 134.705 159.169C134.475 159.963 134.18 160.826 133.824 161.77L128.442 175.697L115.248 175.693L120.35 162.874C120.502 162.501 120.648 162.106 120.769 161.692C120.893 161.276 120.988 160.846 121.072 160.396C121.161 159.908 121.094 159.519 120.881 159.241C120.667 158.961 120.319 158.817 119.831 158.817C118.914 158.817 118.129 159.204 117.452 159.984C116.789 160.75 116.045 162.203 115.238 164.333L110.891 175.691L97.6235 175.687L102.753 162.869C102.913 162.463 103.056 162.051 103.183 161.634C103.299 161.254 103.381 160.908 103.437 160.597C103.542 160.021 103.488 159.574 103.27 159.268C103.05 158.965 102.683 158.813 102.181 158.813C101.272 158.811 100.477 159.2 99.8097 159.979C99.1367 160.745 98.4015 162.198 97.5962 164.328L93.2489 175.685L80.1354 175.681ZM151.691 159.691C150.637 159.691 149.705 160.07 148.876 160.838C148.055 161.607 147.534 162.595 147.312 163.793C147.142 164.723 147.257 165.433 147.665 165.923C148.058 166.421 148.717 166.666 149.635 166.666C150.773 166.668 151.775 166.306 152.627 165.569C153.477 164.836 154.008 163.888 154.222 162.733C154.395 161.793 154.255 161.05 153.786 160.512C153.329 159.961 152.627 159.693 151.691 159.691M159.075 150.123L171.829 150.127L161.965 175.709L149.631 175.705L151.256 172.268C149.83 173.729 148.353 174.826 146.856 175.543C145.346 176.261 143.759 176.615 142.073 176.615C139.101 176.613 136.848 175.557 135.31 173.445C133.775 171.332 133.314 168.603 133.932 165.25C134.286 163.326 134.975 161.426 135.99 159.553C137.004 157.685 138.27 155.987 139.787 154.466C141.476 152.77 143.261 151.486 145.13 150.607C147.005 149.74 148.919 149.3 150.863 149.3C152.623 149.302 154.078 149.673 155.235 150.417C156.381 151.161 157.272 152.292 157.91 153.805L159.075 150.123ZM164.273 175.709L174.173 150.127L186.151 150.133L184.572 153.618C185.784 152.167 187.083 151.088 188.47 150.378C189.849 149.668 191.353 149.314 192.959 149.314C193.352 149.316 193.805 149.347 194.297 149.417C194.798 149.485 195.394 149.579 196.085 149.713L192.07 160.16C191.207 159.872 190.419 159.662 189.715 159.508C189.007 159.364 188.361 159.288 187.766 159.288C186.243 159.288 185.041 159.642 184.156 160.36C183.273 161.078 182.469 162.394 181.74 164.312L177.385 175.712L164.273 175.709ZM194.44 159.343L188.169 175.718L201.227 175.722L207.525 159.347L211.551 159.348L215.126 150.142H211.102L213.839 142.988L200.754 142.984L198.015 150.138L194.44 159.343ZM215.813 175.727L215.802 150.143L228.289 150.147L227.953 155.764C227.931 156.49 227.868 157.268 227.774 158.085C227.665 158.914 227.494 160.139 227.251 161.777L235.167 150.149L243.741 150.151L243.381 156.587C243.315 157.441 243.239 158.202 243.165 158.849C243.093 159.501 243.006 160.118 242.9 160.693C242.826 161.09 242.763 161.384 242.717 161.578C242.673 161.781 242.632 161.95 242.585 162.103L250.774 150.153L264.152 150.156L244.695 175.734L233.976 175.733L235.108 163.012C234.357 164.447 233.21 166.248 231.665 168.409C231.455 168.703 231.286 168.932 231.163 169.102L226.429 175.731L215.813 175.727ZM255.155 175.74L264.966 150.158L278.078 150.162L268.232 175.743L255.155 175.74ZM270.962 175.746L280.862 150.164L293.169 150.168L291.685 153.85C293.564 152.356 295.396 151.224 297.149 150.475C298.909 149.722 300.621 149.351 302.288 149.353C304.692 149.353 306.487 150.055 307.687 151.448C308.887 152.842 309.282 154.694 308.858 156.997C308.737 157.656 308.557 158.392 308.316 159.201C308.084 160.012 307.785 160.883 307.429 161.829L302.103 175.756L288.907 175.752L293.864 162.879C294.027 162.441 294.179 162.011 294.303 161.595C294.419 161.198 294.514 160.795 294.589 160.387C294.675 159.924 294.589 159.545 294.338 159.257C294.089 158.971 293.722 158.825 293.235 158.825C292.273 158.825 291.417 159.24 290.687 160.057C289.948 160.885 289.199 162.313 288.433 164.34L284.074 175.75L270.962 175.746ZM326.465 159.462C325.391 159.462 324.442 159.834 323.617 160.584C322.79 161.337 322.265 162.288 322.055 163.438C321.888 164.35 322.005 165.052 322.409 165.542C322.806 166.04 323.465 166.285 324.373 166.285C325.519 166.287 326.529 165.931 327.394 165.216C328.262 164.496 328.799 163.566 329.009 162.426C329.172 161.539 329.02 160.822 328.559 160.283C328.094 159.733 327.4 159.462 326.464 159.462M333.685 150.182L346.441 150.186L337.452 173.342C335.746 177.726 333.191 181.055 329.783 183.317C326.377 185.571 322.246 186.701 317.394 186.699C315.241 186.699 313.158 186.454 311.147 185.97C309.126 185.482 307.101 184.737 305.041 183.723L310.804 176.375C311.888 177.12 312.96 177.668 314.031 178.022C315.103 178.38 316.264 178.557 317.492 178.557C319.178 178.559 320.684 178.102 322.018 177.18C323.35 176.268 324.428 174.951 325.247 173.237L326.319 171.061C324.877 172.461 323.379 173.525 321.835 174.241C320.291 174.959 318.701 175.315 317.072 175.315C313.952 175.313 311.623 174.373 310.081 172.49C308.538 170.605 308.048 168.139 308.614 165.064C308.947 163.259 309.624 161.425 310.633 159.583C311.639 157.75 312.892 156.081 314.389 154.574C316.054 152.895 317.832 151.619 319.695 150.76C321.569 149.89 323.492 149.46 325.465 149.46C327.215 149.46 328.67 149.824 329.829 150.561C330.977 151.295 331.872 152.419 332.51 153.922L333.685 150.182ZM339.132 172.423L345.436 164.882C346.56 166.101 347.708 167.045 348.896 167.714C350.083 168.381 351.186 168.719 352.213 168.719C352.644 168.719 353.012 168.618 353.331 168.425C353.642 168.221 353.827 167.968 353.885 167.655C353.973 167.175 353.442 166.632 352.279 166.025L352.127 165.949L350.213 164.936C348.713 164.125 347.667 163.185 347.074 162.121C346.48 161.057 346.315 159.814 346.576 158.396C347.062 155.761 348.57 153.6 351.092 151.902C353.613 150.213 356.622 149.369 360.116 149.371C361.948 149.371 363.708 149.626 365.404 150.126C367.106 150.633 368.799 151.409 370.483 152.466L364.788 159.347C364.002 158.536 363.218 157.91 362.434 157.482C361.654 157.04 360.898 156.821 360.162 156.821C359.713 156.821 359.328 156.932 359.005 157.14C358.678 157.362 358.486 157.622 358.427 157.935C358.353 158.332 358.808 158.754 359.783 159.194C360.059 159.328 360.279 159.433 360.421 159.499L361.961 160.207C363.535 160.917 364.626 161.822 365.231 162.921C365.834 164.018 365.986 165.387 365.686 167.019C365.147 169.939 363.568 172.288 360.948 174.068C358.328 175.85 355.128 176.739 351.343 176.737C349.343 176.735 347.317 176.379 345.286 175.659C343.244 174.944 341.195 173.86 339.132 172.423" fill="#004289"/>
</svg>
