<svg width="480" height="320" viewBox="0 0 480 320" fill="none" xmlns="http://www.w3.org/2000/svg">
<path d="M244.521 166.926C246.816 170.05 252.547 168.416 254.379 168.289C254.379 168.289 249.003 170.951 246.381 170.769C244.961 170.671 245.141 169.257 244.521 166.926Z" fill="black" stroke="black" stroke-width="0.86793"/>
<path d="M243.503 146.468C243.178 145.075 241.152 143.582 237.963 144.725C236.665 146.208 233.623 151.519 233.623 151.519L221.174 162.128C217.34 162.365 216.193 158.879 216.193 158.879L220.69 158.858L220.673 156.601L224.065 156.637L224.092 153.486L227.618 153.384L227.641 150.926L231.695 150.762C233.581 144.78 225.556 141.777 225.556 141.777L225.558 145.24L221.406 141.203L221.472 144.41L217.698 141.279L217.59 144.748L214.275 141.272L212.581 144.768L210.828 141.262C209.864 138.815 212.581 137.754 212.581 137.754H223.744C223.744 137.754 221.264 134.835 226.237 133.082C227.948 132.479 231.261 135.175 231.261 135.175L234.851 135.124L235.026 127.409C238.505 128.671 239.689 130.216 241.112 132.143L244.273 126.816C245.589 129.424 245.094 132.223 244.211 135.062C251.099 132.508 257.555 136.254 257.734 144.067C258.471 154.731 245.38 168.622 245.38 168.622M246.998 179.687C246.473 185.547 245.903 193.284 245.722 197.987C245.179 212.15 245.898 240.508 245.898 240.508L252.386 232.793L241.865 266.108L231.44 235.184L237.7 243.051C237.7 243.051 230.335 213.159 227.837 197.987C226.272 188.48 224.639 169.26 224.639 169.26" stroke="black" stroke-width="0.86793"/>
<path d="M223.749 137.751H225.547M227.472 139.725C224.324 138.651 225.364 136.293 226.459 136.286C228.878 136.254 228.608 137.066 230.107 139.089H231.859M214.329 156.572C214.329 156.572 210.83 150.973 214.329 150.372C217.74 149.787 223.709 150.047 225.954 150C228.098 149.956 231.006 148.244 231.161 146.219C231.365 146.298 228.062 147.363 224.745 147.458L211.85 147.397C205.028 155.257 214.329 156.572 214.329 156.572V156.572Z" stroke="black" stroke-width="0.86793"/>
<path d="M224.855 171.243C224.855 171.243 204.809 162.658 203.287 150.026L203.638 130.562L145.598 151.429L157.714 158.967L194.695 142.135C194.695 142.135 192.902 154.793 201.936 164.153C208.483 170.935 218.315 178.105 225.557 179.704L224.855 171.243Z" stroke="black" stroke-width="0.86793"/>
<path d="M242.721 138.979C245.739 137.925 248.133 128.924 244.592 126.844C246.055 131.468 244.101 135.037 242.721 138.979H242.721Z" fill="black" stroke="black" stroke-width="0.86793"/>
<path d="M234.85 135.124L237.825 135C238.304 133.557 239.282 132.653 241.08 132.117" stroke="black" stroke-width="0.86793"/>
<path d="M246.319 188.438L236.275 197.985C240.985 220.716 241.32 243.448 241.855 266.179L252.146 232.95L245.823 240.637C245.58 223.401 244.989 206.303 246.319 188.438Z" fill="black" stroke="black" stroke-width="0.86793"/>
<path d="M230.82 170.399C230.154 169.702 229.466 169.01 223.877 169.283L232.308 160.355" stroke="black" stroke-width="0.86793"/>
<path d="M235.903 160.911C236.054 159.893 233.26 160.38 231.191 160.322L238.352 154.34" stroke="black" stroke-width="0.86793"/>
<path d="M241.607 154.714C241.42 154.185 240.177 154.006 237.02 154.466L243.653 149.848" stroke="black" stroke-width="0.86793"/>
<path d="M245.14 150.342C244.603 149.884 243.621 149.719 242.598 149.908L243.49 146.467C243.49 146.467 249.18 145.923 248.878 140.383C252.285 142.985 249.232 148.816 246.963 152.029C243.8 156.509 240.082 160.951 237.088 164.359C236.174 165.896 235.875 166.6 235.953 168.219" stroke="black" stroke-width="0.86793"/>
<path d="M157.727 158.927L160.888 160.973L194.614 143.18L194.676 142.25L157.727 158.927Z" fill="black" stroke="black" stroke-width="0.86793"/>
<path d="M160.951 161.038L169.197 165.75L194.8 148.763L194.614 143.184L160.951 161.038ZM169.197 165.812L194.8 148.825C195.258 152.147 196.147 154.749 197.094 157.257L180.17 171.205L169.197 165.812Z" stroke="black" stroke-width="0.86793"/>
<path d="M202.301 164.382C200.087 162.38 198.377 159.957 197.155 157.129L180.23 171.264L191.08 175.169L202.301 164.382Z" stroke="black" stroke-width="0.86793"/>
<path d="M202.364 164.508C204.321 166.608 206.526 168.585 208.812 170.521L201.682 178.829L190.957 175.233L202.364 164.508Z" stroke="black" stroke-width="0.86793"/>
<path d="M201.744 178.831L212.035 181.062L217.057 176.102C214.096 174.293 211.279 172.435 208.812 170.461L201.744 178.831Z" stroke="black" stroke-width="0.86793"/>
<path d="M246.008 167.855C246.008 167.855 245.436 170.435 248.674 169.715C259.227 167.965 265.345 160.687 268.388 148.637C268.388 148.637 268.695 135.41 266.653 130.41L326.796 147.048L316.412 155.187L276.324 139.71C278.408 156.72 260.856 172.992 257.229 175.047C253.602 177.101 248.971 181.761 245.264 180.75M212.035 180.998L225.984 183.602L225.612 179.696C221.851 178.836 219.335 177.509 216.871 176.163L212.035 180.998Z" stroke="black" stroke-width="0.86793"/>
<path d="M263.577 178.368L260.738 178.934C259.215 172.193 265.807 166.861 265.807 166.861C270.601 159.84 276.487 154.485 276.324 139.836L316.324 155.226L313.8 157.145L279.971 143.65C278.958 153.691 271.879 165.129 266.828 168.929C263.882 171.853 263.315 174.328 263.577 178.368Z" fill="black" stroke="black" stroke-width="0.86793"/>
<path d="M313.668 157.268L306.738 162.213L278.803 149.879L280.043 143.68L313.668 157.268ZM306.687 162.205L278.431 150.003L275.827 157.318L295.25 168.842L306.687 162.205ZM295.118 168.798L275.579 157.194L271.859 163.766L284.069 173.452L295.118 168.798Z" stroke="black" stroke-width="0.86793"/>
<path d="M284.077 173.408L271.736 163.766L265.66 170.089L272.88 176.769L284.077 173.408Z" stroke="black" stroke-width="0.86793"/>
<path d="M326.292 146.965C305.15 166.302 288.591 175.584 256.766 179.577" stroke="black" stroke-width="3.03775"/>
<path d="M244.196 166.773C244.196 166.773 241.044 164.379 238.688 165.538C236.959 167.187 238.822 170.192 238.822 170.192L243.553 180.741L262.452 170.68C258.586 171.683 251.148 177.255 244.941 177.204C242.24 177.182 237.59 170.061 240.541 167.685C241.974 166.531 244.196 166.773 244.196 166.773ZM224.637 169.273L224.755 170.715C224.855 170.029 227.116 169.554 229.183 169.492L224.637 169.273ZM232.278 160.361L231.017 161.726C231.489 161.241 233.067 160.534 235.429 160.379L232.278 160.361ZM238.392 154.37L236.693 155.724C237.285 155.25 239.236 154.313 240.753 154.256L238.392 154.37ZM243.611 149.914L241.901 151.081C242.855 150.531 244.269 149.966 244.899 150.184L243.611 149.914Z" fill="black" stroke="black" stroke-width="0.86793"/>
<path d="M251.243 147.256C252.369 145.23 254.154 140.847 256.378 140.911C254.324 145.14 254.634 147.613 253.55 150.741C251.422 156.878 245.839 163.868 243.439 166.524" stroke="black" stroke-width="0.86793"/>
<path d="M249.429 150.999C250.364 150.676 252.172 151.781 252.41 152.708C253.663 150.559 251.347 147.84 249.429 150.999ZM246.04 155.866C246.975 155.543 249.17 157.309 249.408 158.236C251.012 155.386 247.958 152.707 246.04 155.866L246.04 155.866ZM241.722 161.498C242.657 161.175 245.08 162.894 245.317 163.822C247.359 161.673 243.728 158.602 241.723 161.498H241.722ZM241.044 132.107C239.868 130.181 237.394 128.54 235.273 127.477C237.446 129.361 238.792 131.777 238.008 134.388C238.898 133.041 239.63 132.397 241.044 132.107ZM215.228 150.127C211.778 150.795 213.048 153.541 213.74 155.335C212.081 149.624 219.603 150.725 224.651 150.065L215.228 150.127Z" fill="black" stroke="black" stroke-width="0.86793"/>
<path d="M225.32 141.592C221.825 139.891 214.405 142.039 210.693 140.098" stroke="black" stroke-width="0.86793" stroke-linecap="square"/>
<path d="M256.417 138.926C258.637 139.323 259.259 142.349 257.744 144.033M257.781 144.382C259.815 145.088 259.444 149.602 256.876 150.543M256.975 150.581C259.567 151.907 258.019 157.042 254.396 156.494M254.371 156.594C256.777 158.479 255.539 162.993 251.049 162.073M250.837 161.988C253.398 163.903 251.85 168.17 246.12 167.87M248.856 140.381C258.916 143.194 241.963 160.149 237.391 166.863" stroke="black" stroke-width="0.86793"/>
<path d="M253.876 142.663C254.535 141.662 255.362 141.069 256.309 140.977C255.187 142.518 254.528 148.214 253.529 150.522C253.706 147.794 255.19 143.247 253.876 142.663Z" fill="black" stroke="black" stroke-width="0.86793"/>
<path d="M225.488 137.074L226.619 137.833L226.51 139.213C225.779 138.723 225.353 138.059 225.488 137.074Z" fill="black" stroke="black" stroke-width="0.86793" stroke-linejoin="round"/>
<path d="M226.107 141.941C227.215 143.456 226.813 145.425 230.943 146.033" stroke="black" stroke-width="0.86793"/>
<path d="M234.85 149.32L235.826 146.204L236.752 142.721L237.461 143.639L239.065 141.415L239.468 142.903L241.979 141.105L242.506 143.027L244.707 141.88L244.738 144.143L247.559 144.298C246.461 145.641 244.968 146.033 243.467 146.406C242.662 145.058 242.077 143.546 237.825 144.763L234.85 149.32Z" fill="black" stroke="black" stroke-width="0.86793"/>
<path d="M171.462 57.6199C171.462 57.6199 167.06 54.7266 163.76 54.7266C160.213 54.7266 149.088 62.8296 155.593 69.7188L169.709 76.6449C177.378 80.4083 171.632 94.2674 163.747 94.2674C159.787 94.2674 153.051 89.9715 153.051 89.9715" stroke="black" stroke-width="5.20758"/>
<path d="M184.789 94.2677V54.7266L210.039 94.2677V54.7266" stroke="black" stroke-width="5.20758" stroke-linejoin="bevel"/>
<path d="M246.248 83.3949C245.301 97.1255 225.934 97.1335 221.699 83.2195L221.523 67.2628C225.904 48.066 246.308 54.7254 246.16 64.808" stroke="black" stroke-width="5.20758"/>
<path d="M253.613 94.2677L266.852 54.7266L280.179 94.2677" stroke="black" stroke-width="5.20758" stroke-linejoin="bevel"/>
<path d="M259.049 78.7486L274.743 78.6607M307.357 57.2683C307.357 57.2683 302.955 54.375 299.655 54.375C296.108 54.375 284.983 62.478 291.489 69.3673L305.604 76.2934C313.274 80.0567 307.527 93.9158 299.642 93.9158C295.682 93.9158 288.946 89.6199 288.946 89.6199M333.747 54.7256H321.473L321.298 94.2668H334.799M332.52 72.9619H322.087" stroke="black" stroke-width="5.20758"/>
<path d="M228.871 196.933L237.016 188.453" stroke="black" stroke-width="0.86793"/>
<path d="M250.932 195.722L239.586 195.947L260.178 172.531L250.932 195.722Z" fill="black" stroke="white" stroke-width="0.848349" stroke-miterlimit="3"/>
<path d="M238.719 184.274L239.614 195.934L260.207 172.518L238.719 184.274Z" fill="white" stroke="black" stroke-width="0.848349" stroke-miterlimit="3"/>
<path d="M238.949 208.704L238.68 196.918L262.363 218.292L238.949 208.704Z" fill="black" stroke="white" stroke-width="0.86793" stroke-miterlimit="3"/>
<path d="M250.445 196.012L238.693 196.949L262.377 218.323L250.445 196.012Z" fill="white" stroke="black" stroke-width="0.86793" stroke-miterlimit="3"/>
<path d="M226.766 197.132L238.552 196.863L217.178 220.546L226.766 197.132Z" fill="black" stroke="white" stroke-width="0.86793" stroke-miterlimit="3"/>
<path d="M239.458 208.627L238.52 196.875L217.146 220.558L239.458 208.627Z" fill="white" stroke="black" stroke-width="0.86793" stroke-miterlimit="3"/>
<path d="M226.455 197.917L237.676 197.046L215.066 174.738L226.455 197.917Z" fill="white" stroke="black" stroke-width="0.862563" stroke-miterlimit="3"/>
<path d="M237.39 184.841L237.645 197.034L215.035 174.727L237.39 184.841Z" fill="white" stroke="black" stroke-width="0.862563" stroke-miterlimit="3"/>
<path d="M246.506 205.156L238 196.994L269.864 195.43L246.506 205.156Z" fill="black" stroke="white" stroke-width="0.86793" stroke-miterlimit="3"/>
<path d="M245.697 188.051L238.031 197.006L269.895 195.442L245.697 188.051Z" fill="white" stroke="black" stroke-width="0.86793" stroke-miterlimit="3"/>
<path d="M247.33 204.556L238.391 196.871L239.886 228.738L247.33 204.556Z" fill="black" stroke="white" stroke-width="0.86793" stroke-miterlimit="3"/>
<path d="M230.227 205.391L238.406 196.902L239.902 228.769L230.227 205.391Z" fill="white" stroke="black" stroke-width="0.86793" stroke-miterlimit="3"/>
<path d="M230.698 205.756L238.364 196.801L206.5 198.365L230.698 205.756Z" fill="black" stroke="white" stroke-width="0.86793" stroke-miterlimit="3"/>
<path d="M229.826 188.656L238.333 196.818L206.469 198.382L229.826 188.656Z" fill="white" stroke="black" stroke-width="0.86793" stroke-miterlimit="3"/>
<path d="M246.507 188.314L238.346 196.82L236.781 164.957L246.507 188.314Z" fill="black" stroke="white" stroke-width="0.86793" stroke-miterlimit="3"/>
<path d="M229.402 189.123L238.358 196.789L236.794 164.926L229.402 189.123Z" fill="white" stroke="black" stroke-width="0.86793" stroke-miterlimit="3"/>
</svg>
