<svg width="480" height="320" viewBox="0 0 480 320" fill="none" xmlns="http://www.w3.org/2000/svg">
<path d="M240.273 215.277C263.627 215.277 282.558 196.346 282.558 172.992C282.558 149.639 263.627 130.707 240.273 130.707C216.92 130.707 197.988 149.639 197.988 172.992C197.988 196.346 216.92 215.277 240.273 215.277Z" stroke="#030000" stroke-width="5.15573" stroke-linejoin="round"/>
<path d="M240.273 211.39C261.48 211.39 278.671 194.198 278.671 172.992C278.671 151.785 261.48 134.594 240.273 134.594C219.066 134.594 201.875 151.785 201.875 172.992C201.875 194.198 219.066 211.39 240.273 211.39Z" stroke="#030000" stroke-width="4.68142" stroke-linejoin="round"/>
<path d="M195.992 173.327L283.839 172.691M240.234 216.933L239.597 129.086M208.906 203.413L270.573 140.846M271.727 204.019L209.16 142.351" stroke="white" stroke-width="7.91407"/>
<path d="M203.103 144.631L184.521 144.617C184.521 144.617 181.746 149.844 176.162 149.844H106.12C96.9145 152.549 104.014 162.787 106.742 162.787H192.983C192.983 162.787 196.568 149.844 203.103 144.631Z" fill="black" stroke="black" stroke-width="1.23195"/>
<path d="M153.902 134.597L90.1036 134.619C80.8985 137.324 87.9975 147.562 90.726 147.562L167.277 147.621L153.902 134.597ZM137.855 118.82L74.0572 118.842C64.852 121.547 71.951 131.784 74.6796 131.784L151.231 131.844L137.855 118.82Z" fill="black" stroke="black" stroke-width="1.23195"/>
<path d="M171.57 147.357C175.622 147.296 179.412 147.2 180.936 144.376C183.853 140.525 178.977 138.64 177.407 132.559C174.133 119.871 198.128 110.693 192.455 103.301L60.1998 103.425C50.9946 106.13 58.0936 116.367 60.8217 116.367H139.099L171.57 147.357Z" fill="black" stroke="black" stroke-width="1.23195"/>
<path d="M276.896 144.881L295.478 144.867C295.478 144.867 298.252 150.094 303.837 150.094H373.879C383.084 152.799 375.985 163.037 373.257 163.037H287.015C287.015 163.037 283.431 150.094 276.896 144.881Z" fill="black" stroke="black" stroke-width="1.23195"/>
<path d="M326.096 134.848L389.894 134.869C399.099 137.574 392 147.812 389.272 147.812L312.721 147.871L326.096 134.848ZM342.143 119.07L405.94 119.092C415.145 121.797 408.046 132.034 405.318 132.034L328.767 132.094L342.143 119.07Z" fill="black" stroke="black" stroke-width="1.23195"/>
<path d="M308.429 147.608C304.376 147.546 300.586 147.45 299.063 144.627C296.145 140.775 301.022 138.89 302.591 132.809C305.866 120.121 281.871 110.943 287.544 103.551L419.799 103.675C429.004 106.38 421.905 116.617 419.177 116.617H340.9L308.429 147.608Z" fill="black" stroke="black" stroke-width="1.23195"/>
<path d="M263.816 196.783L239.527 187.607L215.236 196.783L224.412 172.493L215.236 148.203L239.526 157.379L263.816 148.203L254.64 172.492L263.816 196.783Z" fill="black" stroke="white" stroke-width="2.46391" stroke-linejoin="round"/>
<path d="M239.527 206.842L228.839 183.179L205.176 172.491L228.839 161.804L239.527 138.141L250.214 161.804L273.877 172.491L250.214 183.179L239.527 206.842Z" fill="black" stroke="white" stroke-width="2.46391" stroke-linejoin="round"/>
<path d="M228.787 161.613L250.082 183.26M250.259 161.789L228.611 183.084" stroke="white" stroke-width="2.46391"/>
<path d="M193.557 123.366L195.166 124.898C194.392 125.079 193.693 125.335 193.066 125.666C192.457 125.982 191.901 126.392 191.42 126.882C190.698 127.62 190.303 128.37 190.234 129.133C190.16 129.89 190.419 130.551 191.01 131.114C191.528 131.607 192.06 131.844 192.605 131.825C193.155 131.8 193.898 131.49 194.834 130.895L195.825 130.254C197.143 129.413 198.319 129.007 199.354 129.035C200.388 129.063 201.379 129.528 202.326 130.43C203.441 131.491 203.958 132.642 203.877 133.881C203.797 135.121 203.12 136.392 201.847 137.693C201.307 138.242 200.711 138.732 200.067 139.155C199.392 139.605 198.676 139.99 197.927 140.303L196.239 138.696C197.202 138.466 198.03 138.173 198.723 137.815C199.403 137.467 200.023 137.011 200.559 136.467C201.332 135.677 201.756 134.893 201.829 134.115C201.897 133.333 201.61 132.634 200.966 132.021C200.379 131.463 199.783 131.189 199.176 131.2C198.574 131.205 197.824 131.503 196.923 132.092L195.909 132.741C194.612 133.581 193.477 134.007 192.506 134.019C191.533 134.031 190.628 133.638 189.791 132.84C188.744 131.844 188.245 130.701 188.294 129.41C188.344 128.111 188.931 126.885 190.057 125.733C190.522 125.264 191.035 124.845 191.586 124.481C192.213 124.058 192.872 123.685 193.557 123.366ZM203.039 115.484L205.51 114.197L216.632 123.365L210.374 111.665L212.255 110.686L219.859 124.899L217.388 126.185L206.266 117.017L212.524 128.717L210.643 129.696L203.039 115.484ZM235.899 120.599C235.411 120.974 234.878 121.289 234.313 121.534C233.734 121.788 233.125 121.968 232.502 122.07C230.444 122.418 228.721 121.971 227.331 120.729C225.948 119.484 225.03 117.561 224.577 114.958C224.127 112.37 224.346 110.258 225.235 108.622C226.13 106.978 227.599 105.983 229.642 105.637C230.265 105.528 230.9 105.497 231.53 105.546C232.136 105.589 232.74 105.709 233.342 105.906L233.724 108.102C233.14 107.768 232.504 107.532 231.843 107.404C231.217 107.282 230.574 107.272 229.945 107.377C228.532 107.616 227.568 108.333 227.053 109.526C226.538 110.72 226.469 112.403 226.846 114.574C227.223 116.739 227.856 118.299 228.746 119.255C229.636 120.211 230.786 120.569 232.199 120.33C232.831 120.223 233.438 120.002 233.99 119.677C234.567 119.341 235.084 118.911 235.518 118.403L235.899 120.599ZM249.881 107.776L246.376 115.583L250.976 116.245L249.881 107.776M248.844 105.691L251.49 106.072L254.069 122.685L251.812 122.36L251.238 118.045L245.592 117.232L243.812 121.207L241.556 120.882L248.844 105.691ZM274.655 114.732L273.657 116.707C273.249 116.033 272.792 115.451 272.284 114.961C271.793 114.481 271.229 114.082 270.613 113.778C269.683 113.32 268.838 113.173 268.081 113.337C267.327 113.495 266.765 113.937 266.399 114.663C266.077 115.299 266.008 115.869 266.19 116.376C266.379 116.886 266.902 117.493 267.758 118.195L268.677 118.935C269.884 119.922 270.63 120.907 270.914 121.889C271.198 122.87 271.046 123.943 270.459 125.105C269.767 126.473 268.81 127.305 267.587 127.601C266.364 127.897 264.932 127.642 263.292 126.835C262.6 126.493 261.947 126.079 261.344 125.599C260.707 125.101 260.12 124.542 259.59 123.931L260.638 121.86C261.149 122.697 261.682 123.388 262.235 123.933C262.779 124.47 263.405 124.916 264.09 125.255C265.086 125.745 265.971 125.908 266.746 125.744C267.523 125.573 268.112 125.093 268.511 124.303C268.874 123.583 268.96 122.94 268.767 122.372C268.582 121.807 268.069 121.19 267.228 120.52L266.296 119.76C265.095 118.793 264.342 117.853 264.039 116.942C263.736 116.031 263.844 115.061 264.363 114.034C265.012 112.75 265.968 111.937 267.23 111.595C268.501 111.251 269.863 111.436 271.315 112.15C271.907 112.446 272.466 112.802 272.985 113.212C273.581 113.674 274.139 114.182 274.655 114.732ZM285.326 132.767C287.004 131.084 288.026 129.71 288.392 128.646C288.764 127.587 288.55 126.671 287.751 125.896C286.957 125.126 286.025 124.931 284.953 125.311C283.886 125.695 282.514 126.73 280.837 128.413C279.164 130.092 278.142 131.46 277.771 132.519C277.404 133.583 277.618 134.5 278.412 135.269C279.21 136.044 280.141 136.241 281.203 135.862C282.275 135.483 283.649 134.451 285.327 132.767M286.969 134.359C284.98 136.355 283.174 137.533 281.552 137.891C279.935 138.255 278.47 137.801 277.158 136.528C275.845 135.255 275.357 133.821 275.693 132.225C276.029 130.628 277.195 128.828 279.195 126.821C281.188 124.82 282.994 123.638 284.611 123.273C286.234 122.915 287.698 123.369 289.005 124.637C290.318 125.91 290.804 127.347 290.463 128.948C290.127 130.554 288.963 132.358 286.969 134.359Z" fill="black"/>
</svg>
