<svg width="480" height="320" viewBox="0 0 480 320" fill="none" xmlns="http://www.w3.org/2000/svg">
<path fill-rule="evenodd" clip-rule="evenodd" d="M155.873 132.947C162.836 138.846 169.474 143.002 178.854 143.002C186.395 143.002 194.421 138.04 194.421 130.563V129.53C194.421 123.118 187.75 114.835 185.074 110.837C202.769 116.252 208.247 127.339 206.28 143.841C215.724 150.158 222.719 141.004 223.009 131.819C223.428 117.477 207.698 103.811 200.416 98.7189C185.172 88.1158 159.323 83.3774 143.754 92.1441C152.198 92.3374 165.349 97.3971 165.349 105.648C165.349 109.58 163.736 111.9 160.546 112.641C149.878 115.091 136.277 107.615 125.963 105.616C116.971 103.876 93.734 102.393 85.0312 108.742C104.821 107.775 118.389 110.355 129.991 114.672C139.5 118.218 148.267 126.5 155.872 132.948L155.873 132.947Z" fill="#00A5DD"/>
<path fill-rule="evenodd" clip-rule="evenodd" d="M60.4727 121.216C114.683 120.798 108.72 164.019 151.845 164.18L160.74 163.954C170.118 163.728 165.349 163.309 158.613 162.084C142.948 159.312 128.38 147.387 122.773 136.784C131.991 130.596 137.953 131.691 146.977 132.271C139.694 125.76 131.894 120.959 122.901 116.93C116.166 113.933 108.431 111.871 96.8271 111.871C86.0628 111.871 64.405 115.866 60.4727 121.216Z" fill="#D6351B"/>
<path fill-rule="evenodd" clip-rule="evenodd" d="M134.215 167.918C135.053 172.238 145.431 181.906 155.713 189.707C160.771 193.542 165.928 195.539 172.214 195.539C177.339 195.862 185.428 190.512 188.684 186.546C192.435 182.028 196.438 177.724 200.673 173.656C203.671 170.722 206.894 167.918 210.439 165.566C214.596 162.761 219.689 161.117 225.587 160.473L238.027 161.666C235.256 157.895 224.008 152.352 217.271 152.352C204.83 152.352 192.971 161.053 179.82 167.209C165.316 173.979 148.817 175.652 134.215 167.918Z" fill="#FABB20"/>
<path fill-rule="evenodd" clip-rule="evenodd" d="M205.121 225.802C204.669 226.22 204.25 226.607 203.831 226.961C203.412 227.284 202.994 227.606 202.607 227.897V224.544C203.434 223.814 204.24 223.062 205.025 222.288C205.734 221.611 206.345 220.934 206.894 220.323L211.276 206.656C211.761 205.27 212.179 204.272 212.566 203.659C212.984 203.08 213.436 202.789 213.919 202.789C214.274 202.789 214.564 202.982 214.79 203.337C214.983 203.723 215.079 204.239 215.079 204.884C215.079 206.27 214.726 208.01 214.017 210.105C213.275 212.2 212.115 214.94 210.503 218.291L208.086 226.155C208.086 226.187 208.086 226.22 208.054 226.254C207.924 226.64 207.86 226.961 207.86 227.188C207.86 227.348 207.892 227.445 207.924 227.477C207.956 227.541 207.99 227.573 208.054 227.573C208.247 227.573 208.86 227.219 209.858 226.51C210.955 225.728 212.009 224.889 213.017 223.996V227.445C211.341 228.799 209.891 229.829 208.666 230.475C207.41 231.152 206.377 231.473 205.54 231.473C205.089 231.473 204.701 231.313 204.444 231.023C204.185 230.699 204.057 230.281 204.057 229.701C204.057 229.379 204.089 229.024 204.153 228.67C204.212 228.316 204.309 227.97 204.444 227.638L205.121 225.802Z" fill="#18385A"/>
<path fill-rule="evenodd" clip-rule="evenodd" d="M214.339 226.285C213.984 226.607 213.63 226.93 213.307 227.188C212.985 227.445 212.664 227.704 212.373 227.897V224.544C213.538 223.487 214.678 222.402 215.79 221.289C216.725 220.387 217.208 219.839 217.272 219.677L218.207 217.455H221.493L217.884 226.123L217.434 227.188C217.433 227.299 217.455 227.409 217.498 227.51C217.498 227.573 217.53 227.606 217.594 227.606C217.82 227.606 218.464 227.252 219.529 226.542C220.67 225.769 221.757 224.918 222.783 223.997V227.445C221.076 228.831 219.561 229.862 218.271 230.571C216.95 231.248 215.854 231.603 214.985 231.603C214.468 231.603 214.049 231.474 213.759 231.215C213.613 231.08 213.497 230.915 213.42 230.732C213.342 230.549 213.304 230.352 213.308 230.153C213.308 229.862 213.372 229.476 213.468 228.992C213.566 228.541 213.695 228.09 213.856 227.606L214.339 226.285ZM221.14 215.102C220.591 215.102 220.172 214.941 219.85 214.618C219.561 214.328 219.399 213.876 219.399 213.296C219.399 212.521 219.625 211.878 220.043 211.362C220.495 210.847 221.043 210.59 221.688 210.59C222.235 210.59 222.623 210.75 222.912 211.04C223.203 211.362 223.364 211.781 223.364 212.362C223.364 213.135 223.137 213.812 222.719 214.328C222.3 214.843 221.784 215.102 221.14 215.102Z" fill="#18385A"/>
<path fill-rule="evenodd" clip-rule="evenodd" d="M222.105 227.899V224.546C223.281 223.489 224.431 222.403 225.555 221.291C226.457 220.389 226.941 219.841 227.004 219.679L227.939 217.457H231.259L228.584 223.611C231.259 221.227 233.355 219.55 234.837 218.585C236.32 217.584 237.48 217.102 238.285 217.102C238.641 217.102 238.962 217.199 239.253 217.424C239.542 217.649 239.671 217.908 239.671 218.23C239.671 218.487 239.511 218.97 239.187 219.712C239.091 219.97 238.995 220.164 238.929 220.325L236.513 226.126C236.418 226.357 236.311 226.583 236.19 226.802C236.094 227.061 236.029 227.19 236.029 227.19C236.029 227.318 236.061 227.447 236.094 227.513C236.126 227.575 236.158 227.609 236.222 227.609C236.416 227.609 237.059 227.254 238.125 226.544C239.187 225.835 240.252 224.965 241.347 223.999V227.447C239.671 228.801 238.156 229.865 236.867 230.54C235.545 231.25 234.45 231.605 233.612 231.605C233.064 231.605 232.645 231.476 232.355 231.217C232.2 231.095 232.075 230.939 231.991 230.76C231.907 230.581 231.866 230.385 231.872 230.187C231.872 229.929 231.904 229.607 232 229.285C232.098 228.961 232.29 228.479 232.549 227.834L234.869 222.258C232.774 223.871 230.518 225.868 228.101 228.188C225.651 230.508 224.169 231.669 223.557 231.669C223.298 231.669 223.04 231.541 222.846 231.282C222.631 231.007 222.518 230.666 222.525 230.316C222.525 230.155 222.557 229.994 222.589 229.799C222.654 229.607 222.718 229.381 222.816 229.156L224.071 226.288C223.718 226.609 223.394 226.932 223.073 227.19C222.75 227.447 222.428 227.706 222.105 227.899Z" fill="#18385A"/>
<path fill-rule="evenodd" clip-rule="evenodd" d="M240.703 227.898V224.546C241.5 223.851 242.274 223.131 243.024 222.387L245.151 220.259L250.468 206.368C250.952 205.144 251.403 204.208 251.887 203.629C252.338 203.016 252.823 202.727 253.306 202.727C253.693 202.727 254.015 202.855 254.239 203.145C254.466 203.435 254.595 203.822 254.595 204.306C254.595 205.498 254.143 207.207 253.241 209.429C252.338 211.621 251.113 214.135 249.502 216.874L246.634 224.675L252.5 219.615C253.498 218.745 254.368 218.101 255.045 217.714C255.754 217.294 256.367 217.101 256.851 217.101C257.237 217.101 257.56 217.198 257.849 217.423C258.139 217.648 258.269 217.907 258.269 218.229C258.269 218.487 258.107 218.969 257.785 219.678C257.689 219.936 257.592 220.163 257.56 220.324L255.111 226.125L254.82 226.802C254.692 227.06 254.66 227.189 254.66 227.189C254.66 227.317 254.66 227.447 254.692 227.512C254.723 227.575 254.756 227.608 254.82 227.608C255.045 227.608 255.658 227.253 256.722 226.543C257.785 225.834 258.848 224.964 259.977 223.998V227.447C258.269 228.8 256.754 229.864 255.465 230.539C254.143 231.25 253.048 231.604 252.21 231.604C251.694 231.604 251.274 231.475 250.952 231.216C250.797 231.094 250.672 230.937 250.588 230.759C250.505 230.58 250.464 230.384 250.469 230.186C250.469 229.928 250.501 229.607 250.597 229.284C250.695 228.96 250.888 228.478 251.146 227.833L253.466 222.258C251.371 223.87 249.115 225.867 246.697 228.187C244.281 230.507 242.766 231.668 242.186 231.668C242.04 231.668 241.897 231.633 241.768 231.566C241.638 231.499 241.527 231.401 241.444 231.282C241.229 231.006 241.116 230.665 241.123 230.315C241.123 230.154 241.155 229.993 241.187 229.799C241.251 229.607 241.316 229.38 241.412 229.155L242.702 226.287C242.314 226.608 241.993 226.931 241.671 227.189C241.348 227.447 241.026 227.705 240.703 227.898Z" fill="#18385A"/>
<path fill-rule="evenodd" clip-rule="evenodd" d="M273.223 220.485C272.723 220.218 272.193 220.012 271.644 219.872C271.164 219.719 270.664 219.643 270.16 219.647C268.13 219.647 266.389 220.291 265.004 221.549C263.586 222.805 262.876 224.352 262.876 226.157C262.876 226.77 262.973 227.22 263.199 227.608C263.391 227.962 263.65 228.123 264.004 228.123C264.906 228.123 265.874 227.575 266.872 226.447C267.904 225.319 268.807 223.771 269.613 221.807H272.706L271.128 226.125C271.029 226.383 270.968 226.642 270.901 226.899C270.846 227.087 270.813 227.282 270.804 227.479C270.804 227.543 270.837 227.575 270.837 227.608H270.901C271.128 227.608 271.772 227.253 272.803 226.576C273.935 225.791 275.012 224.929 276.028 223.998V227.447C274.35 228.768 272.867 229.799 271.578 230.507C270.289 231.25 269.289 231.603 268.613 231.603C268.13 231.603 267.807 231.475 267.614 231.216C267.421 230.959 267.324 230.507 267.324 229.863V229.639C266.487 230.379 265.777 230.863 265.165 231.152C264.572 231.442 263.923 231.596 263.263 231.604C262.039 231.604 261.103 231.186 260.46 230.346C259.815 229.541 259.492 228.315 259.492 226.706C259.492 223.933 260.524 221.614 262.586 219.743C264.617 217.874 267.13 216.906 270.064 216.906C270.419 216.906 270.773 216.939 271.16 217.005C271.546 217.067 272.19 217.198 273.061 217.359L273.223 220.485Z" fill="#18385A"/>
<path fill-rule="evenodd" clip-rule="evenodd" d="M275.414 224.546C276.737 223.385 277.961 222.193 279.024 220.968C280.083 219.725 281.042 218.4 281.893 217.005C281.957 215.586 282.215 214.489 282.602 213.75C283.02 213.008 283.568 212.621 284.245 212.621C284.729 212.621 285.115 212.781 285.373 213.137C285.664 213.459 285.793 213.911 285.793 214.523C285.793 214.973 285.695 215.425 285.535 215.844C285.375 216.231 285.084 216.681 284.698 217.1C284.729 218.134 284.794 218.971 284.826 219.648C284.858 220.291 284.858 220.872 284.858 221.356C284.858 222.774 284.761 223.965 284.569 224.964C284.414 225.889 284.11 226.782 283.666 227.608C284.479 227.138 285.264 226.622 286.017 226.061C286.823 225.48 287.629 224.771 288.5 223.998V227.447C286.986 228.64 285.599 229.542 284.375 230.089C283.151 230.67 282.022 230.928 280.957 230.928H280.732C280.411 231.126 280.064 231.278 279.701 231.379C279.311 231.475 278.91 231.518 278.508 231.508C277.799 231.508 277.22 231.314 276.833 230.928C276.445 230.541 276.252 229.961 276.252 229.219C276.252 228.865 276.317 228.64 276.445 228.51C276.544 228.413 276.768 228.35 277.156 228.35C277.381 228.35 277.703 228.413 278.154 228.51C278.605 228.606 278.928 228.64 279.153 228.64C279.991 228.64 280.636 228.06 281.088 226.867C281.538 225.707 281.73 224 281.73 221.808V221.356C281.088 222.484 280.249 223.547 279.217 224.611C278.219 225.641 276.928 226.738 275.414 227.899V224.546ZM310.545 220.486C310.057 220.219 309.537 220.013 308.998 219.873C308.518 219.722 308.018 219.646 307.515 219.648C305.453 219.648 303.744 220.291 302.327 221.549C300.908 222.806 300.199 224.353 300.199 226.157C300.199 226.77 300.329 227.22 300.522 227.608C300.715 227.963 301.004 228.124 301.327 228.124C302.23 228.124 303.197 227.575 304.229 226.448C305.227 225.319 306.161 223.772 306.967 221.808H310.029L308.482 226.125C308.385 226.384 308.288 226.642 308.224 226.899C308.168 227.088 308.136 227.283 308.128 227.479C308.15 227.518 308.161 227.563 308.16 227.608H308.225C308.45 227.608 309.095 227.254 310.127 226.577C311.19 225.868 312.253 224.998 313.35 223.998V227.447C311.706 228.769 310.223 229.799 308.934 230.508C307.612 231.25 306.645 231.603 305.936 231.603C305.485 231.603 305.13 231.475 304.938 231.217C304.777 230.96 304.679 230.508 304.679 229.863V229.639C303.842 230.38 303.1 230.864 302.489 231.153C301.897 231.446 301.247 231.6 300.587 231.604C299.361 231.604 298.427 231.186 297.782 230.347C297.137 229.542 296.815 228.316 296.815 226.706C296.815 223.933 297.846 221.614 299.91 219.744C301.973 217.874 304.453 216.907 307.418 216.907C307.741 216.907 308.095 216.94 308.514 217.005C308.901 217.068 309.513 217.198 310.384 217.36L310.545 220.486Z" fill="#18385A"/>
<path fill-rule="evenodd" clip-rule="evenodd" d="M326.402 227.447C324.596 228.93 323.017 229.995 321.664 230.605C320.342 231.25 319.021 231.573 317.764 231.573C316.152 231.573 314.929 231.121 314.089 230.219C313.252 229.349 312.834 228.028 312.834 226.317C312.834 223.805 313.704 221.645 315.475 219.841C317.217 218.036 319.28 217.133 321.632 217.133C322.793 217.133 323.694 217.392 324.307 217.94C324.919 218.487 325.241 219.26 325.241 220.26C325.241 221.808 324.468 223.194 322.921 224.418C321.342 225.642 319.28 226.449 316.637 226.868C316.7 227.351 316.894 227.704 317.217 227.963C317.57 228.22 318.023 228.349 318.571 228.349C319.537 228.349 320.697 227.995 322.019 227.254C323.373 226.512 324.823 225.416 326.402 223.999V227.447ZM316.539 224.095C318.119 223.871 319.376 223.418 320.375 222.806C321.374 222.161 321.858 221.516 321.858 220.84C321.863 220.716 321.842 220.592 321.798 220.476C321.754 220.359 321.686 220.253 321.6 220.164C321.438 219.97 321.181 219.873 320.891 219.873C320.18 219.873 319.377 220.292 318.505 221.099C317.617 221.923 316.942 222.952 316.539 224.095ZM321.245 214.556H319.248L322.856 209.301H326.758L321.245 214.556Z" fill="#18385A"/>
<path fill-rule="evenodd" clip-rule="evenodd" d="M325.727 227.9V224.547C327.015 223.452 328.047 222.452 328.853 221.517C329.691 220.581 330.303 219.776 330.658 219.037C330.4 218.617 330.24 218.231 330.109 217.941C330.012 217.66 329.958 217.366 329.948 217.069C329.948 216.392 330.108 215.845 330.465 215.426C330.624 215.23 330.826 215.073 331.055 214.967C331.283 214.861 331.533 214.808 331.786 214.813C332.364 214.813 332.849 215.006 333.139 215.459C333.462 215.877 333.655 216.522 333.719 217.391H334.042C334.559 217.36 334.944 217.327 335.137 217.327C336.17 217.327 336.943 217.488 337.394 217.811C337.877 218.101 338.103 218.617 338.103 219.294C338.103 219.583 338.038 219.906 337.941 220.292C337.845 220.68 337.684 221.1 337.49 221.582L335.491 226.126C335.427 226.255 335.362 226.416 335.266 226.61C335.106 226.964 335.041 227.159 335.041 227.191C335.041 227.319 335.041 227.448 335.073 227.513C335.106 227.576 335.138 227.609 335.202 227.609C335.427 227.609 336.072 227.255 337.104 226.544C338.246 225.771 339.333 224.921 340.359 223.999V227.448C338.715 228.77 337.264 229.769 335.943 230.509C334.623 231.251 333.622 231.604 332.913 231.604C332.204 231.604 331.658 231.412 331.27 231.09C330.916 230.735 330.722 230.253 330.722 229.64C330.722 228.995 331.109 227.802 331.947 226.062C332.045 225.804 332.14 225.644 332.205 225.514L334.106 221.453C334.204 221.26 334.235 221.1 334.299 221.002C334.332 220.873 334.332 220.776 334.332 220.68C334.332 220.487 334.299 220.357 334.203 220.292C334.075 220.229 333.914 220.196 333.622 220.196C333.558 220.196 333.43 220.196 333.301 220.229C333.139 220.229 333.01 220.26 332.913 220.26C331.959 221.744 330.87 223.136 329.659 224.419C328.463 225.702 327.146 226.868 325.727 227.9Z" fill="#18385A"/>
<path fill-rule="evenodd" clip-rule="evenodd" d="M353.379 227.447C351.573 228.93 350.026 229.994 348.674 230.605C347.353 231.25 346.03 231.572 344.775 231.572C343.162 231.572 341.938 231.121 341.101 230.218C340.261 229.348 339.842 228.028 339.842 226.317C339.842 223.805 340.712 221.645 342.453 219.841C344.226 218.035 346.287 217.133 348.609 217.133C349.802 217.133 350.671 217.391 351.316 217.939C351.928 218.487 352.252 219.26 352.252 220.259C352.252 221.807 351.477 223.193 349.898 224.418C348.351 225.641 346.257 226.449 343.646 226.867C343.678 227.351 343.873 227.704 344.225 227.962C344.548 228.22 345 228.349 345.58 228.349C346.546 228.349 347.708 227.994 349.028 227.253C350.382 226.511 351.832 225.416 353.379 223.998V227.447ZM343.549 224.094C345.096 223.87 346.385 223.417 347.384 222.805C348.383 222.161 348.867 221.516 348.867 220.84C348.872 220.715 348.851 220.591 348.807 220.475C348.763 220.359 348.695 220.253 348.609 220.163C348.517 220.068 348.407 219.993 348.285 219.943C348.163 219.893 348.032 219.869 347.9 219.873C347.191 219.873 346.386 220.291 345.514 221.098C344.626 221.923 343.952 222.951 343.549 224.094Z" fill="#18385A"/>
<path fill-rule="evenodd" clip-rule="evenodd" d="M366.592 220.485C366.107 220.213 365.587 220.007 365.047 219.872C364.567 219.721 364.067 219.645 363.565 219.647C361.501 219.647 359.792 220.291 358.375 221.549C356.956 222.805 356.247 224.352 356.247 226.157C356.247 226.77 356.377 227.22 356.57 227.608C356.764 227.962 357.053 228.123 357.375 228.123C358.279 228.123 359.245 227.575 360.277 226.447C361.308 225.319 362.21 223.771 363.016 221.807H366.077L364.531 226.125C364.435 226.383 364.336 226.642 364.272 226.899C364.208 227.124 364.208 227.351 364.208 227.479V227.608H364.274C364.498 227.608 365.144 227.253 366.206 226.576C367.239 225.867 368.301 224.997 369.397 223.998V227.447C367.754 228.768 366.271 229.799 364.981 230.507C363.661 231.25 362.693 231.603 361.984 231.603C361.533 231.603 361.178 231.475 361.017 231.216C360.824 230.959 360.728 230.507 360.728 229.863V229.639C359.891 230.379 359.149 230.863 358.536 231.152C357.945 231.446 357.294 231.6 356.634 231.604C355.41 231.604 354.476 231.186 353.863 230.346C353.186 229.541 352.896 228.315 352.896 226.706C352.896 223.933 353.895 221.614 355.957 219.743C358.02 217.874 360.501 216.906 363.466 216.906C363.789 216.906 364.143 216.939 364.563 217.005C364.949 217.067 365.562 217.198 366.432 217.359L366.592 220.485Z" fill="#18385A"/>
<path fill-rule="evenodd" clip-rule="evenodd" d="M368.785 224.544C370.074 223.442 371.28 222.246 372.393 220.966C373.453 219.724 374.412 218.398 375.261 217.003C375.359 215.584 375.585 214.488 376.004 213.748C376.39 213.006 376.939 212.619 377.614 212.619C378.099 212.619 378.486 212.779 378.776 213.135C379.033 213.458 379.195 213.909 379.195 214.521C379.195 214.971 379.099 215.423 378.904 215.843C378.698 216.305 378.415 216.73 378.067 217.098C378.13 218.132 378.163 218.969 378.195 219.646C378.227 220.29 378.259 220.87 378.259 221.354C378.259 222.772 378.163 223.963 377.97 224.963C377.791 225.886 377.476 226.776 377.035 227.606C377.859 227.137 378.655 226.621 379.42 226.059C380.195 225.478 381 224.77 381.869 223.997V227.445C380.355 228.638 379.001 229.54 377.775 230.088C376.551 230.669 375.391 230.926 374.328 230.926H374.102C373.779 231.152 373.425 231.28 373.07 231.378C372.748 231.474 372.331 231.507 371.878 231.507C371.169 231.507 370.621 231.312 370.235 230.926C369.848 230.539 369.655 229.96 369.655 229.218C369.655 228.863 369.718 228.638 369.815 228.509C369.944 228.411 370.171 228.349 370.525 228.349C370.749 228.349 371.104 228.411 371.556 228.509C371.975 228.605 372.331 228.638 372.555 228.638C373.361 228.638 374.006 228.058 374.456 226.866C374.908 225.705 375.133 223.998 375.133 221.806V221.354C374.456 222.483 373.619 223.545 372.62 224.609C371.42 225.794 370.139 226.893 368.785 227.897V224.544ZM415.065 195.086H364.98L381.837 123.021H404.721L391.603 178.165H418.838L415.065 195.086ZM284.536 172.299C282.764 182.902 272.353 191.121 262.459 193.958C251.628 197.085 238.028 196.214 230.002 191.444L230.647 176.749C235.191 181.678 246.02 184.16 250.951 184.16C258.751 184.16 262.651 182.548 263.747 176.102C264.488 171.718 260.588 169.013 256.237 166.756C248.115 162.534 240.477 158.054 238.93 147.901C236.899 134.398 252.111 122.989 270.548 123.439C276.833 123.599 284.632 124.212 289.435 126.694L286.146 139.264C281.506 134.719 269.161 131.24 263.554 136.879C260.588 139.844 260.04 143.422 263.65 146.258C266.23 148.32 269.613 149.61 272.514 151.156C277.412 153.704 281.119 155.636 283.278 160.987C284.664 164.404 285.18 168.464 284.536 172.299ZM369.59 149.578C370.008 141.295 367.688 134.752 362.628 129.918C360.176 127.562 357.27 125.731 354.087 124.536C343.902 120.699 331.01 122.859 321.149 126.662C304.228 133.237 291.723 147.45 289.692 167.465C288.822 175.941 291.593 182.613 296.653 187.416C299.006 189.705 301.842 191.573 305.161 192.959C318.7 198.502 338.779 194.409 350.413 186.03C362.016 177.651 368.881 163.823 369.59 149.578ZM341.453 175.587C339.198 178.585 336.587 180.905 333.654 182.516C330.721 184.128 327.723 184.934 324.596 184.934C320.148 184.934 316.7 183.451 314.283 180.486C311.899 177.52 310.802 173.104 311.06 167.272C311.286 162.019 312.156 157.312 313.704 153.091C315.218 148.869 317.15 145.355 319.505 142.518C321.922 139.555 324.499 137.331 327.304 135.88C330.076 134.43 332.945 133.721 335.942 133.721C340.519 133.721 343.999 135.235 346.319 138.33C348.641 141.423 349.704 145.71 349.478 151.189C349.254 156.378 348.446 160.986 347.028 164.984C345.611 169.012 343.741 172.526 341.453 175.587Z" fill="#18385A"/>
</svg>
