<svg width="480" height="320" viewBox="0 0 480 320" fill="none" xmlns="http://www.w3.org/2000/svg">
<path d="M359.501 63.3723C298.05 63.3723 269.942 59.3697 230.973 98.6953C192.006 138.023 184.683 139.688 120.887 139.688" stroke="#0E2493" stroke-width="49.4886"/>
<path d="M359.501 90.1191C298.05 90.1191 279.941 86.6173 240.972 125.943C202.004 165.268 182.185 166.436 120.887 166.436" stroke="#0E2493" stroke-width="49.4886"/>
<path d="M359.501 116.861C298.05 116.861 290.935 113.858 251.968 153.186C213.001 192.513 182.686 193.179 120.887 193.179" stroke="#0E2493" stroke-width="49.4886"/>
<path d="M120.5 252.331L128.339 251.535C128.81 254.291 129.76 256.314 131.193 257.605C132.644 258.895 134.596 259.545 137.045 259.545C139.638 259.545 141.588 258.974 142.897 257.834C144.221 256.672 144.882 255.324 144.882 253.786C144.882 252.796 144.601 251.961 144.039 251.278C143.494 250.575 142.532 249.966 141.155 249.453C140.21 249.11 138.063 248.503 134.707 247.63C130.39 246.509 127.359 245.129 125.615 243.496C123.166 241.196 121.945 238.393 121.945 235.085C121.939 232.977 122.534 230.91 123.659 229.127C124.821 227.266 126.48 225.849 128.64 224.881C130.817 223.913 133.438 223.426 136.503 223.426C141.511 223.426 145.274 224.578 147.796 226.876C150.334 229.176 151.668 232.243 151.795 236.081L143.738 236.453C143.395 234.305 142.649 232.765 141.509 231.835C140.383 230.885 138.686 230.41 136.421 230.41C134.08 230.41 132.249 230.912 130.922 231.92C130.514 232.215 130.184 232.606 129.962 233.058C129.739 233.51 129.631 234.01 129.645 234.513C129.645 235.503 130.041 236.348 130.841 237.049C131.857 237.942 134.325 238.874 138.243 239.842C142.162 240.812 145.054 241.818 146.923 242.863C148.759 243.841 150.286 245.312 151.331 247.111C152.4 248.897 152.935 251.11 152.935 253.754C152.935 256.146 152.301 258.388 151.03 260.481C149.764 262.571 147.966 264.131 145.642 265.157C143.322 266.16 140.426 266.665 136.962 266.665C131.92 266.665 128.046 265.449 125.342 263.017C122.642 260.57 121.027 257.007 120.5 252.331ZM157.943 250.365C157.943 247.707 158.571 245.131 159.822 242.641C161.073 240.153 162.842 238.251 165.129 236.94C167.433 235.63 169.998 234.974 172.829 234.974C177.2 234.974 180.785 236.465 183.578 239.448C186.371 242.414 187.769 246.167 187.769 250.708C187.769 255.287 186.353 259.087 183.523 262.11C180.712 265.113 177.164 266.613 172.883 266.613C170.237 266.614 167.631 265.969 165.291 264.733C162.935 263.519 161.021 261.593 159.822 259.23C158.569 256.799 157.943 253.845 157.943 250.365ZM165.778 250.793C165.778 253.796 166.459 256.094 167.819 257.692C169.179 259.289 170.858 260.087 172.855 260.087C174.85 260.087 176.519 259.289 177.863 257.692C179.223 256.096 179.902 253.78 179.902 250.738C179.902 247.772 179.221 245.492 177.863 243.896C176.519 242.301 174.85 241.505 172.855 241.505C170.86 241.505 169.179 242.301 167.819 243.896C166.459 245.494 165.78 247.792 165.78 250.793M212.693 265.931V261.395C211.653 263.002 210.221 264.317 208.532 265.216C206.875 266.134 205.011 266.614 203.116 266.611C201.176 266.611 199.434 266.164 197.89 265.271C196.389 264.423 195.212 263.1 194.545 261.51C193.852 259.893 193.509 257.662 193.509 254.811V235.655H201.154V249.566C201.154 253.822 201.291 256.435 201.562 257.405C201.853 258.355 202.37 259.115 203.114 259.683C203.859 260.237 204.803 260.511 205.945 260.511C207.251 260.511 208.419 260.14 209.455 259.398C210.49 258.638 211.197 257.706 211.577 256.605C211.957 255.484 212.147 252.757 212.147 248.423V235.653H219.792V265.927H212.693M240.884 235.657V242.045H235.658V254.243C235.658 256.714 235.703 258.159 235.795 258.578C235.903 258.977 236.143 259.328 236.475 259.574C236.838 259.839 237.273 259.974 237.782 259.974C238.489 259.974 239.516 259.717 240.858 259.202L241.509 265.418C239.732 266.216 237.719 266.617 235.468 266.617C234.09 266.617 232.847 266.378 231.742 265.905C230.634 265.41 229.818 264.782 229.294 264.024C228.785 263.242 228.431 262.197 228.231 260.887C228.068 259.956 227.985 258.076 227.985 255.243V242.047H224.475V235.659H227.985V229.647L235.66 224.976V235.661H240.886M253.864 224.144V239.506C256.33 236.487 259.28 234.974 262.71 234.974C264.47 234.974 266.056 235.317 267.471 236.002C268.887 236.687 269.946 237.56 270.654 238.623C271.382 239.687 271.882 240.89 272.125 242.156C272.398 243.449 272.535 245.454 272.535 248.172V265.929H264.888V249.94C264.888 246.767 264.743 244.753 264.45 243.896C264.179 243.065 263.631 242.351 262.898 241.873C262.174 241.36 261.255 241.103 260.151 241.103C258.946 241.085 257.763 241.422 256.75 242.073C255.752 242.718 255.018 243.696 254.547 245.007C254.091 246.299 253.866 248.218 253.866 250.765V265.929H246.221V224.144H253.864ZM297.051 256.296L304.673 257.636C303.691 260.56 302.139 262.795 300.017 264.333C297.913 265.853 295.272 266.613 292.099 266.613C287.071 266.613 283.353 264.895 280.942 261.453C279.038 258.699 278.083 255.221 278.083 251.021C278.083 246.004 279.337 242.079 281.841 239.248C284.341 236.398 287.508 234.972 291.335 234.972C295.634 234.972 299.029 236.463 301.513 239.446C303.996 242.412 305.187 246.965 305.077 253.099H285.92C285.974 255.475 286.592 257.329 287.771 258.658C288.951 259.97 290.418 260.623 292.178 260.623C293.377 260.623 294.383 260.281 295.201 259.596C296.018 258.915 296.634 257.814 297.051 256.296ZM297.487 248.2C297.432 245.88 296.859 244.124 295.771 242.924C294.682 241.711 293.356 241.101 291.798 241.101C290.127 241.101 288.749 241.737 287.661 243.011C286.572 244.286 286.037 246.014 286.055 248.198H297.485M318.658 265.931H311.011V235.657H318.114V239.963C319.329 237.93 320.418 236.59 321.38 235.944C322.364 235.297 323.52 234.959 324.698 234.974C326.44 234.974 328.116 235.479 329.732 236.485L327.366 243.467C326.079 242.592 324.882 242.154 323.775 242.154C322.704 242.154 321.796 242.471 321.053 243.096C320.309 243.706 319.719 244.815 319.284 246.432C318.868 248.047 318.658 251.43 318.658 256.579V265.931ZM359.286 265.931H351.639V250.48C351.639 247.21 351.477 245.1 351.148 244.15C350.822 243.184 350.287 242.431 349.543 241.899C348.815 241.366 347.938 241.101 346.902 241.101C345.623 241.087 344.373 241.487 343.339 242.241C342.301 242.981 341.535 244.043 341.162 245.262C340.782 246.515 340.591 248.835 340.591 252.218V265.929H332.945V235.655H340.047V240.105C342.567 236.685 345.742 234.974 349.569 234.974C351.257 234.974 352.797 235.297 354.195 235.944C355.594 236.57 356.644 237.378 357.352 238.367C358.079 239.355 358.58 240.476 358.849 241.733C359.14 242.984 359.286 244.781 359.286 247.117V265.931Z" fill="#0E2493"/>
</svg>
