<svg width="480" height="320" viewBox="0 0 480 320" fill="none" xmlns="http://www.w3.org/2000/svg">
<path d="M156.824 176.186C155.266 176.532 153.362 176.705 151.457 176.705C145.918 176.705 144.706 174.801 144.706 171.166V150.221H134.32V172.378C134.32 182.245 139.86 186.745 150.938 186.745C156.304 186.745 161.324 185.707 167.383 184.322V150.221H156.824V176.186ZM190.579 177.225C186.771 177.225 186.251 175.494 186.251 172.551V159.049H194.907V150.221H186.251V139.834H175.865V150.221H170.672V158.876H175.865V173.07C175.865 179.302 177.077 186.572 187.463 186.572C190.579 186.572 193.176 185.88 196.118 185.014L195.08 176.359C193.522 176.879 192.137 177.225 190.579 177.225ZM81.3504 157.664C79.4462 156.972 77.1959 156.279 74.9455 155.587C68.8869 153.856 66.9827 152.99 66.9827 150.221C66.9827 147.105 69.2331 145.547 74.7724 145.547C79.2731 145.547 83.2545 146.758 87.2359 148.143L89.4862 138.103C84.8124 136.372 80.4848 134.814 75.1186 134.814C62.6551 134.814 55.731 141.912 55.731 150.394C55.731 156.799 58.5006 160.953 64.7324 163.55C66.4634 164.242 68.7138 164.934 70.9641 165.627C77.7152 167.704 79.7924 168.743 79.7924 171.339C79.7924 174.455 77.1959 176.186 71.8296 176.186C66.9827 176.186 62.482 174.801 57.8082 172.724L55.3848 183.11C60.5779 185.188 65.5979 186.572 71.8296 186.572C84.6393 186.572 91.2173 179.475 91.2173 170.82C91.2173 163.896 87.2359 159.914 81.3504 157.664ZM217.756 148.49C214.294 148.49 211.005 149.355 208.755 150.047V132.91H198.369V186.572H208.755V159.741C210.659 159.049 212.736 158.356 215.333 158.356C219.314 158.356 220.872 159.914 220.872 163.723V186.572H231.258V162.511C231.258 152.99 226.931 148.49 217.756 148.49ZM112.509 148.316C101.95 148.316 93.4676 155.76 93.4676 167.358C93.4676 178.956 101.95 186.745 112.509 186.745C123.068 186.745 131.551 179.129 131.551 167.358C131.551 155.587 123.068 148.316 112.509 148.316ZM112.509 176.359C108.008 176.359 104.373 173.07 104.373 167.185C104.373 161.299 107.835 158.183 112.509 158.183C117.183 158.183 120.645 161.299 120.645 167.185C120.645 173.243 117.01 176.359 112.509 176.359ZM345.68 164.415C344.122 163.896 342.564 163.376 340.66 162.857C337.025 161.819 335.64 161.299 335.64 159.741C335.64 158.183 337.025 157.145 340.314 157.145C343.776 157.145 346.892 157.837 350.354 158.876L352.085 149.874C348.277 149.009 344.641 148.316 340.487 148.316C330.62 148.316 325.254 153.336 325.254 160.261C325.254 165.107 327.677 168.223 332.524 170.301C333.909 170.82 335.467 171.512 337.371 172.032C341.179 173.07 343.084 173.59 343.084 175.321C343.084 177.052 340.833 177.744 337.717 177.744C333.909 177.744 330.447 177.052 326.812 175.667L325.254 184.668C329.755 185.88 333.909 186.745 338.583 186.745C348.969 186.745 353.643 181.379 353.643 174.628C353.47 169.954 351.566 166.492 345.68 164.415ZM306.732 148.316C295.826 148.316 288.036 155.933 288.036 168.05C288.036 179.302 294.788 186.745 306.905 186.745C312.271 186.745 316.599 185.188 321.099 183.283L319.541 174.628C316.079 176.186 312.617 177.398 308.463 177.398C302.231 177.398 299.634 174.801 299.288 170.993H322.657C322.657 170.993 323.004 166.839 323.004 165.973C323.004 156.106 317.637 148.316 306.732 148.316ZM299.461 164.069C300.154 160.953 301.712 156.972 306.212 156.972C310.713 156.972 312.098 161.472 312.098 164.069H299.461ZM374.069 177.225C370.261 177.225 369.742 175.494 369.742 172.551V159.049H378.397V150.221H369.742V139.834H359.355V150.221H353.989V159.049H359.355V173.243C359.355 179.475 360.913 186.745 371.299 186.745C374.415 186.745 377.012 186.053 379.955 185.188L378.743 176.532C377.012 176.879 375.627 177.225 374.069 177.225ZM380.993 134.987C378.397 134.987 376.493 137.065 376.32 139.661C376.146 142.258 378.397 144.335 380.82 144.335C383.417 144.335 385.494 142.258 385.494 139.661C385.494 137.065 383.59 134.987 380.993 134.987ZM380.993 143.469C378.916 143.469 377.358 141.912 377.358 139.661C377.358 137.411 378.916 135.853 381.166 135.853C383.244 135.853 384.975 137.411 384.802 139.661C384.629 141.912 383.071 143.469 380.993 143.469ZM381.513 139.834C382.378 139.661 382.897 139.315 382.897 138.449C382.897 137.584 382.205 136.892 381.166 136.892H379.435V142.258H380.474V140.007C380.82 140.007 380.993 140.181 381.166 140.527L382.378 142.258H383.59L382.551 140.527C381.859 140.181 381.686 140.007 381.513 139.834ZM380.82 139.315H380.301V137.757H380.993C381.686 137.757 381.859 138.103 381.859 138.449C381.859 139.142 381.34 139.315 380.82 139.315ZM278.343 150.221L271.765 170.128L265.187 150.221H256.185L249.434 170.128L242.856 150.221H231.605L244.587 186.572H254.108L260.686 166.839L267.264 186.572H276.785L289.768 150.221H278.343Z" fill="#304CB2"/>
<path d="M413.018 148.141C409.556 148.141 406.613 149.352 404.363 150.564C402.112 149.352 399.343 148.141 395.707 148.141C388.61 148.141 384.109 152.641 384.109 160.604C384.109 170.125 393.284 179.472 404.363 187.089C415.441 179.646 424.616 170.298 424.616 160.604C424.616 152.641 419.942 148.141 413.018 148.141Z" fill="#CCCCCC"/>
<path d="M385.148 160.776C385.148 170.47 395.535 179.645 404.19 185.703C406.786 183.972 409.383 181.895 411.806 179.818C400.208 170.124 389.13 161.296 385.322 158.18C385.322 158.872 385.148 159.738 385.148 160.776Z" fill="url(#paint0_linear_730_18167)"/>
<path d="M422.712 165.278C414.23 158.354 409.21 154.719 403.671 151.43C402.113 150.565 399.17 149.18 395.881 149.18C392.765 149.18 389.996 150.218 388.091 152.122C386.88 153.334 386.014 154.892 385.668 156.796C389.996 159.912 401.94 168.394 413.884 177.915C417.865 174.107 421.154 169.779 422.712 165.278Z" fill="url(#paint1_linear_730_18167)"/>
<path d="M420.462 152.122C418.558 150.218 415.961 149.18 412.845 149.18C409.556 149.18 407.133 150.218 405.229 151.257C408.517 153.161 415.615 157.142 423.058 162.682C423.231 161.989 423.231 161.124 423.231 160.431C423.404 156.969 422.366 154.027 420.462 152.122Z" fill="url(#paint2_linear_730_18167)"/>
<defs>
<linearGradient id="paint0_linear_730_18167" x1="385.225" y1="171.821" x2="411.981" y2="171.821" gradientUnits="userSpaceOnUse">
<stop stop-color="#3656CC"/>
<stop offset="0.35" stop-color="#304CB2"/>
<stop offset="0.72" stop-color="#283B80"/>
</linearGradient>
<linearGradient id="paint1_linear_730_18167" x1="389.025" y1="150.686" x2="419.252" y2="171.851" gradientUnits="userSpaceOnUse">
<stop offset="0.3" stop-color="#E61C23"/>
<stop offset="0.8" stop-color="#C3161C"/>
</linearGradient>
<linearGradient id="paint2_linear_730_18167" x1="407.764" y1="147.95" x2="425.046" y2="160.051" gradientUnits="userSpaceOnUse">
<stop stop-color="#FDBC11"/>
<stop offset="0.25" stop-color="#FCB415"/>
<stop offset="0.8" stop-color="#F89E1C"/>
</linearGradient>
</defs>
</svg>
