<svg width="480" height="320" viewBox="0 0 480 320" fill="none" xmlns="http://www.w3.org/2000/svg">
<path fill-rule="evenodd" clip-rule="evenodd" d="M175.064 169.223C172.97 174.465 171.726 177.316 169.63 182.553C168.584 185.172 167.924 186.673 166.878 189.291C165.76 192.09 165.252 193.996 162.893 195.883H163.473C163.416 195.93 163.387 195.981 163.328 196.028H169.268C168.859 195.521 168.689 195.083 168.689 194.434C168.689 193.237 169.115 192.571 169.559 191.464L170.355 189.508C170.497 189.137 170.572 188.897 170.79 188.566H178.614C178.775 188.832 178.839 189.041 178.976 189.363C179.278 190.065 179.492 190.467 179.774 191.174C180.199 192.252 180.564 192.852 180.715 193.999C180.744 194.168 180.787 194.266 180.787 194.434C180.787 195.036 180.561 195.355 180.28 195.883H180.787C180.761 195.933 180.743 195.975 180.715 196.028H188.176C185.754 194.254 185.462 192.223 184.192 189.508C182.984 186.915 182.431 185.396 181.295 182.771C179.842 179.418 179.051 177.505 177.599 174.15C176.785 172.269 176.258 171.275 175.499 169.368C175.432 169.534 175.419 169.642 175.354 169.803C175.266 169.59 175.158 169.459 175.065 169.223H175.064ZM63.7157 170.745C63.249 170.745 63.0176 170.811 62.5568 170.889C61.8118 171.011 61.3799 171.139 60.6728 171.397C58.1195 172.326 56.445 173.981 56.1817 176.685C56.1517 176.922 56.1088 177.097 56.1088 177.337C56.1088 180.791 58.5983 182.675 61.6881 184.219C63.7018 185.222 64.9415 185.642 66.7587 186.972C67.8308 187.758 68.4971 188.615 68.4971 189.943C68.4971 192.368 66.2829 194.072 63.8613 194.072H62.7014C62.0182 194.072 61.5345 193.966 60.963 193.783C60.8802 193.755 60.8244 193.739 60.7456 193.71C60.6887 193.691 60.6608 193.657 60.601 193.637C60.3227 193.544 60.1123 193.384 59.8769 193.275C58.8566 192.721 58.1295 191.962 57.2688 190.884L57.196 191.102C57.0912 190.974 56.9436 190.876 56.8339 190.74L55.3848 194.65C56.1817 195.074 56.8778 195.369 57.559 195.592C57.6039 195.609 57.6577 195.649 57.7026 195.665C58.1674 195.81 58.6302 195.896 59.2246 196.027C59.3832 196.065 59.4849 196.133 59.6595 196.171C60.6149 196.383 61.1395 196.493 62.1229 196.533C63.3018 196.58 63.994 196.659 65.1649 196.533C67.3321 196.305 68.6656 196.122 70.4529 194.868C72.305 193.572 73.038 192.118 73.2784 189.869C73.3163 189.518 73.3083 189.284 73.2784 188.928C73.0001 185.467 70.798 183.592 67.7002 182.046C65.6895 181.036 64.4288 180.679 62.5568 179.437C61.4936 178.727 60.8184 177.959 60.8184 176.684C60.8184 176.524 60.7885 176.406 60.8184 176.249C61.0009 174.783 61.8995 173.922 63.2819 173.424C63.8952 173.207 64.2952 173.061 64.9475 173.061H66.1064C66.5981 173.061 66.9621 173.106 67.3381 173.206C67.5855 173.293 67.8418 173.37 68.136 173.496C69.0107 173.875 69.4974 174.128 70.0908 174.873C70.4848 175.365 70.5666 175.753 70.9605 176.249L71.1052 175.887C71.1969 176.046 71.2548 176.216 71.3944 176.394L72.8436 172.844C72.7737 172.719 72.676 172.702 72.5543 172.627C72.3157 172.478 72.0743 172.333 71.8302 172.193C71.6916 172.115 71.5909 172.11 71.4672 172.047C71.2528 171.927 71.0712 171.844 70.8887 171.758C70.7571 171.705 70.5935 171.66 70.4529 171.613C70.2764 171.544 70.0709 171.46 69.8744 171.396C69.8475 171.389 69.8275 171.403 69.8016 171.396C69.6749 171.356 69.5852 171.294 69.4396 171.25C68.7464 171.045 68.3435 170.987 67.6284 170.888C67.1616 170.828 66.8694 170.744 66.3966 170.744H63.7157V170.745ZM310.464 171.251C310.194 172.234 309.817 172.723 309.377 173.642C308.69 175.068 308.354 175.824 307.711 177.264C306.648 179.638 305.95 180.971 304.885 183.35C303.874 185.613 303.217 186.882 302.206 189.145C301.038 191.759 300.279 193.223 298.438 195.448H299.017C298.973 195.503 298.919 195.538 298.872 195.593H305.031C304.478 195.205 304.306 194.657 304.306 193.999C304.306 192.91 304.66 192.322 305.104 191.319C305.576 190.262 305.831 189.685 306.335 188.638H314.231C314.707 189.536 314.929 190.139 315.391 191.102C315.871 192.099 316.188 192.678 316.188 193.782C316.188 194.484 315.862 194.921 315.39 195.448H315.97C315.922 195.504 315.877 195.535 315.824 195.593H323.577C322.467 194.735 322.029 194.034 321.331 192.84C320.627 191.634 320.344 190.907 319.737 189.653C318.592 187.268 317.978 185.914 316.767 183.568C315.822 181.736 315.289 180.669 314.448 178.786C313.765 177.247 313.251 176.413 312.565 174.874C312.217 174.092 311.974 173.7 311.624 172.918C311.356 172.312 311.247 171.964 310.899 171.397C310.853 171.565 310.806 171.688 310.754 171.831C310.665 171.648 310.597 171.47 310.465 171.252L310.464 171.251ZM85.0872 175.236C84.4788 175.236 84.0878 175.318 83.4934 175.453C82.7803 175.622 82.4332 175.76 81.755 176.033C80.231 176.638 79.3703 177.152 78.35 178.423C77.2868 179.757 76.7791 180.692 76.3214 182.336C76.0521 183.312 75.8865 183.93 75.8865 184.944V186.827C75.8865 187.525 76.0261 187.888 76.1757 188.565C76.3622 189.409 76.4141 189.942 76.7562 190.74C78.0029 193.614 79.7493 195.19 82.7693 196.028C82.9289 196.08 83.0356 196.198 83.2041 196.245C84.0938 196.491 84.6004 196.607 85.522 196.607H87.4778C88.3994 196.607 88.912 196.508 89.7967 196.245C92.9523 195.301 94.8354 193.544 95.9544 190.449C96.2327 189.676 96.3254 189.23 96.4611 188.421C96.5538 187.855 96.6057 187.543 96.6057 186.972V185.089C96.6057 183.767 96.3713 183.014 95.9544 181.755C95.0568 179.059 93.5258 177.325 91.173 176.323C90.9486 176.214 90.6873 176.125 90.448 176.034C90.3083 175.985 90.1587 175.931 90.0131 175.888C89.7598 175.802 89.4865 175.74 89.2162 175.671C89.0467 175.632 88.925 175.558 88.7824 175.526C88.1151 175.375 87.7252 175.237 87.043 175.237H85.0882L85.0872 175.236ZM261.418 175.236C261.199 176.074 260.915 176.482 260.55 177.264C259.984 178.481 259.631 179.151 259.101 180.38C258.223 182.408 257.732 183.576 256.855 185.596C256.017 187.531 255.446 188.588 254.609 190.522C253.644 192.75 253.013 193.982 251.494 195.883H252.073C252.028 195.94 251.975 195.97 251.929 196.028H256.999C256.541 195.695 256.421 195.29 256.421 194.724C256.421 193.794 256.704 193.263 257.072 192.405C257.463 191.505 257.669 190.979 258.086 190.087H264.534C264.918 190.839 265.097 191.374 265.476 192.188C265.87 193.041 266.2 193.567 266.2 194.507C266.2 195.103 265.939 195.434 265.549 195.883H266.055C266.011 195.936 265.958 195.973 265.911 196.028H272.358C272.312 195.991 272.328 195.919 272.286 195.883C271.468 195.196 271.022 194.6 270.475 193.637C269.892 192.606 269.672 192.029 269.17 190.957C268.222 188.926 267.707 187.74 266.706 185.741C266.035 184.409 265.407 183.056 264.823 181.684C264.259 180.374 263.798 179.734 263.23 178.423C262.943 177.755 262.723 177.348 262.433 176.685C262.213 176.169 262.144 175.865 261.854 175.381C261.804 175.565 261.693 175.665 261.636 175.815C261.556 175.641 261.544 175.446 261.419 175.237L261.418 175.236ZM272.286 195.883H272.864C272.814 195.939 272.778 195.97 272.721 196.028H277.864C277.403 195.57 277.198 195.196 276.994 194.579C276.855 194.16 276.777 193.935 276.777 193.491V181.901L287.644 195.883H287.861L288.006 196.028H290.976C290.976 189.517 290.947 185.88 290.976 179.366C290.976 178.236 291.263 177.409 292.063 176.613H291.484C291.529 176.563 291.58 176.516 291.629 176.467H286.557C286.995 176.905 287.162 177.253 287.355 177.844C287.51 178.314 287.644 178.583 287.644 179.076V189.508L277.356 176.612H277.14L276.994 176.467H272.286C273.118 177.296 273.37 178.119 273.373 179.293C273.386 184.765 273.404 187.876 273.373 193.348C273.373 193.765 273.273 193.959 273.155 194.361C272.964 195.005 272.758 195.413 272.286 195.883ZM385.082 175.743C384.866 176.54 384.57 176.954 384.213 177.699C383.736 178.68 383.277 179.671 382.837 180.669C381.973 182.599 381.455 183.662 380.591 185.596C379.768 187.435 379.241 188.462 378.417 190.304C377.467 192.426 376.871 193.637 375.375 195.448H375.882C375.838 195.503 375.783 195.538 375.737 195.593H380.736C380.287 195.278 380.156 194.822 380.156 194.289C380.156 193.402 380.518 192.927 380.88 192.115C381.263 191.255 381.414 190.795 381.823 189.943H388.198C388.571 190.653 388.698 191.126 389.067 191.898C389.459 192.709 389.792 193.252 389.792 194.145C389.792 194.713 389.524 195.019 389.139 195.448H389.646C389.61 195.49 389.613 195.549 389.574 195.593H395.805C394.903 194.898 394.561 194.321 393.994 193.348C393.422 192.37 393.182 191.759 392.689 190.74C391.759 188.804 391.281 187.718 390.298 185.813C389.629 184.529 389.001 183.225 388.415 181.901C387.859 180.652 387.45 180.038 386.893 178.786C386.61 178.151 386.381 177.833 386.096 177.193C385.88 176.703 385.801 176.346 385.518 175.888C385.478 176.036 385.429 176.181 385.372 176.323C385.291 176.148 385.212 175.951 385.083 175.743H385.082ZM243.597 176.033C242.907 176.033 242.533 176.172 241.858 176.322C240.949 176.525 240.398 176.604 239.54 176.975C237.402 177.899 236.219 178.922 234.976 180.887C234.432 181.75 234.234 182.293 233.962 183.277C233.768 183.982 233.6 184.362 233.6 185.089V187.117C233.6 187.674 233.695 187.952 233.817 188.494C234.011 189.368 234.186 189.916 234.542 190.74C235.045 191.91 235.466 192.505 236.425 193.348C237.355 194.165 237.897 194.738 239.033 195.231C239.588 195.47 240.033 195.592 240.482 195.738C241.072 195.956 241.671 196.169 242.438 196.317C243.076 196.443 243.455 196.534 244.103 196.534H246.567C247.057 196.534 247.315 196.396 247.799 196.318C248.535 196.196 248.975 196.12 249.683 195.883C249.902 195.81 249.97 195.784 250.407 195.594C250.56 195.369 250.54 195.129 250.624 194.869C250.841 194.22 250.913 193.826 251.204 193.203C250.985 193.289 250.821 193.34 250.625 193.42C250.668 193.303 250.708 193.19 250.769 193.058C249.297 193.64 248.439 194.145 246.857 194.145H245.336C244.873 194.147 244.412 194.099 243.96 193.999C243.939 193.992 243.907 194.006 243.887 193.999C243.59 193.931 243.271 193.75 242.945 193.637C242.79 193.58 242.656 193.554 242.511 193.492C242.069 193.33 241.723 193.118 241.352 192.913C239.94 192.009 239.037 190.699 238.526 188.856C238.317 188.103 238.164 187.685 238.164 186.9V185.306C238.164 184.425 238.369 183.965 238.671 183.132C239.752 180.186 241.983 178.455 245.119 178.351C245.66 178.333 245.956 178.325 246.495 178.351C246.906 178.369 247.308 178.427 247.654 178.496C247.827 178.546 247.997 178.573 248.162 178.641C248.184 178.648 248.211 178.634 248.233 178.641C248.826 178.894 249.374 179.275 249.972 179.8C250.355 180.136 250.453 180.418 250.77 180.814L250.841 180.525C250.946 180.673 251.061 180.779 251.204 180.96L252.291 177.555C252.143 177.516 251.997 177.467 251.856 177.409C251.427 177.298 251.179 177.127 250.841 176.975C250.699 176.923 250.607 176.871 250.479 176.83C249.54 176.487 248.929 176.413 247.943 176.251C247.277 176.14 246.95 176.033 246.278 176.033H243.597ZM97.9102 176.467C98.353 176.911 98.5386 177.238 98.7071 177.844C98.8368 178.314 98.9245 178.592 98.9245 179.076C98.9644 182.953 98.9594 185.199 98.9963 189.073C99.0083 190.145 99.0921 190.737 99.4312 191.754C99.7902 192.828 100.086 193.423 100.808 194.289C101.219 194.776 101.564 194.976 102.112 195.304C102.613 195.599 102.923 195.799 103.488 195.955C103.612 196.002 103.696 196.058 103.85 196.101C104.154 196.188 104.449 196.256 104.719 196.318C105.253 196.464 105.779 196.607 106.459 196.607H108.776C109.927 196.607 110.605 196.378 111.675 195.955C112.662 195.561 113.257 195.19 113.92 194.361C114.838 193.217 115.198 192.411 115.442 190.956C115.541 190.36 115.659 189.966 115.659 189.362C115.699 185.413 115.621 183.243 115.659 179.293C115.67 178.183 115.963 177.395 116.746 176.612H116.166C116.214 176.561 116.259 176.519 116.311 176.467H111.094C111.613 176.986 111.804 177.421 111.964 178.133C112.04 178.487 112.109 178.717 112.109 179.076V189.219C112.109 189.98 112.039 190.438 111.819 191.174C111.59 191.948 111.45 192.353 110.95 192.985C110.509 193.535 110.104 193.776 109.429 193.999C108.945 194.162 108.635 194.288 108.124 194.288H107.037C106.794 194.29 106.551 194.266 106.313 194.217C106.293 194.21 106.261 194.223 106.241 194.217C106.129 194.192 105.994 194.109 105.879 194.072C105.192 193.826 104.795 193.562 104.357 192.985C103.896 192.376 103.746 191.922 103.56 191.174C103.419 190.597 103.271 190.322 103.271 189.725C103.227 185.656 103.271 183.362 103.271 179.293C103.271 178.186 103.63 177.508 104.285 176.612H103.778C103.814 176.563 103.814 176.518 103.85 176.467H97.9092H97.9102ZM117.905 176.467L118.774 179.728C118.852 179.598 118.976 179.532 119.063 179.439L119.136 179.872C119.467 179.322 119.907 179.13 120.512 178.931C121.081 178.739 121.437 178.642 122.034 178.642H124.787V193.058C124.787 194.224 124.526 195.057 123.7 195.883H124.28C124.234 195.933 124.186 195.977 124.135 196.028H130.149C129.678 195.651 129.543 195.292 129.351 194.724C129.174 194.188 129.062 193.843 129.062 193.275C129.029 187.575 129.062 184.339 129.062 178.641C130.4 178.641 131.127 178.688 132.466 178.714C132.891 178.719 133.224 178.687 133.553 178.785C133.758 178.879 133.912 178.99 134.132 179.148C134.359 179.313 134.422 179.547 134.64 179.727L134.712 179.438C134.832 179.56 134.914 179.741 135.074 179.872L135.872 176.612H135.437V176.467H117.905ZM136.885 176.467C137.428 177.01 137.593 177.462 137.755 178.206C137.842 178.609 137.972 178.884 137.972 179.293V193.13C137.972 194.297 137.714 195.057 136.885 195.883H137.465C137.415 195.938 137.375 195.973 137.32 196.028H143.26C142.478 195.246 142.173 194.532 142.173 193.42C142.142 191.003 142.173 189.612 142.173 187.189H151.084V193.275C151.084 193.782 150.957 194.095 150.795 194.579C150.604 195.153 150.456 195.483 149.997 195.883H150.578C150.526 195.935 150.493 195.975 150.432 196.028H156.373C155.925 195.579 155.703 195.257 155.504 194.651C155.353 194.234 155.279 193.792 155.286 193.348V179.293C155.286 178.824 155.37 178.583 155.504 178.134C155.692 177.5 155.904 177.155 156.373 176.685H155.794C155.852 176.619 155.869 176.537 155.939 176.467H149.998C150.473 176.946 150.685 177.334 150.867 177.989C150.98 178.412 151.084 178.714 151.084 179.148V184.654H142.174C142.172 182.631 142.146 181.384 142.174 179.293C142.183 178.195 142.483 177.462 143.261 176.685H142.681C142.737 176.625 142.765 176.529 142.825 176.467H136.885ZM188.756 176.467C189.315 177.026 189.548 177.505 189.698 178.279C189.765 178.627 189.843 178.867 189.843 179.22V193.275C189.843 193.754 189.776 194.049 189.625 194.507C189.426 195.109 189.203 195.436 188.757 195.883H189.335C189.288 195.935 189.245 195.973 189.191 196.028H195.132C194.332 195.231 194.045 194.475 194.045 193.348C194.016 190.89 194.045 189.496 194.045 187.044C196.139 187.044 197.311 187.022 199.406 187.044C199.687 187.047 199.964 187.076 200.203 187.117C200.289 187.143 200.409 187.156 200.493 187.189C200.619 187.222 200.735 187.287 200.855 187.334C201.14 187.493 201.431 187.72 201.724 187.986V187.841C201.846 187.935 201.96 188.016 202.087 188.131V183.857C201.956 183.941 201.835 184.037 201.724 184.146V183.712C201.466 183.88 201.341 184.065 201.072 184.219C200.307 184.654 199.777 184.798 198.898 184.798H194.045V179.076C196.329 179.076 197.629 179.053 199.913 179.076C200.207 179.078 200.455 179.106 200.71 179.147C200.803 179.175 200.911 179.184 200.999 179.22C201.022 179.225 201.049 179.213 201.072 179.22C201.499 179.405 201.86 179.662 202.231 180.09L202.303 179.872C202.436 179.988 202.537 180.087 202.666 180.235L203.607 176.684H203.1L203.173 176.467H188.756ZM205.854 176.467C206.308 176.922 206.52 177.302 206.722 177.917C206.865 178.34 206.94 178.63 206.94 179.076V193.348C206.94 193.759 206.841 193.964 206.722 194.361C206.532 195.013 206.334 195.398 205.854 195.883H206.36C206.32 195.925 206.331 195.984 206.288 196.028H212.229C211.774 195.57 211.605 195.202 211.431 194.579C211.292 194.063 211.142 193.809 211.142 193.275V178.641C212.249 178.641 212.86 178.621 213.967 178.641C214.187 178.646 214.409 178.671 214.619 178.714C215.886 179.138 216.865 180.217 216.865 181.611V182.625C216.865 183.318 216.625 183.694 216.286 184.291C215.889 184.999 215.532 185.326 214.837 185.741C214.057 186.207 213.573 186.497 212.663 186.538C212.872 186.987 213.04 187.14 213.315 187.552C213.825 188.32 214.162 188.751 214.691 189.507C215.825 191.128 216.384 192.09 217.517 193.71C218.404 194.976 218.798 195.834 219.98 196.825C220.722 197.448 221.177 197.842 222.082 198.201C222.412 198.342 222.75 198.462 223.095 198.563C223.558 198.728 223.956 198.852 224.544 198.852H226.066L227.66 198.709C227.321 198.406 227.019 198.317 226.646 198.056C225.77 197.445 225.298 197.071 224.544 196.318C223.423 195.196 222.898 194.463 221.936 193.202C220.091 190.795 219.198 189.345 217.299 186.972C218.004 186.596 218.467 186.497 219.11 186.03C219.763 185.563 220.021 185.133 220.415 184.436C220.884 183.605 221.026 183.069 221.067 182.119C221.074 181.704 221.096 181.446 221.067 181.031C220.957 179.176 219.724 177.874 218.096 177.192C217.941 177.112 217.754 177.041 217.589 176.975C217.442 176.927 217.306 176.866 217.155 176.83C216.521 176.635 215.862 176.537 215.199 176.54C211.553 176.505 209.499 176.476 205.854 176.467ZM225.486 176.467C226.042 177.026 226.254 177.508 226.428 178.279C226.5 178.615 226.573 178.8 226.573 179.148V193.202C226.573 193.678 226.492 193.982 226.355 194.434C226.167 195.072 225.952 195.413 225.486 195.883H226.066C226.016 195.938 225.978 195.97 225.92 196.028H231.861C231.38 195.544 231.209 195.15 230.992 194.507C230.855 194.092 230.775 193.857 230.775 193.42V179.221C230.775 178.792 230.87 178.543 230.992 178.134C231.186 177.486 231.386 177.092 231.861 176.613H231.354C231.393 176.571 231.384 176.512 231.427 176.468L225.486 176.467ZM416.161 176.467C415.799 176.467 415.652 176.557 415.292 176.612C414.716 176.702 414.322 176.781 413.771 176.975C411.791 177.676 410.569 178.928 410.366 180.96C410.334 181.136 410.293 181.284 410.293 181.466C410.293 184.059 412.243 185.451 414.64 186.61C414.762 186.671 414.879 186.695 415.002 186.755C416.341 187.381 417.266 187.798 418.553 188.71C419.384 189.303 419.856 189.887 419.856 190.884C419.856 192.707 418.188 193.999 416.306 193.999H415.365C414.868 193.999 414.537 193.976 414.133 193.854C413.994 193.81 413.897 193.76 413.771 193.71C413.586 193.65 413.424 193.56 413.264 193.492C412.472 193.076 411.977 192.494 411.308 191.681L411.235 191.899C411.115 191.761 411.001 191.691 410.873 191.537L409.714 194.507C410.354 194.839 410.903 194.989 411.452 195.158C411.499 195.175 411.551 195.215 411.598 195.231C411.932 195.328 412.26 195.43 412.685 195.52C412.838 195.557 412.946 195.63 413.119 195.666C413.861 195.828 414.24 195.921 415.003 195.955C415.919 195.99 416.486 196.051 417.394 195.955C419.074 195.781 420.137 195.593 421.523 194.651C422.96 193.681 423.507 192.577 423.696 190.884C423.726 190.623 423.726 190.501 423.696 190.232C423.482 187.633 421.751 186.184 419.349 185.016C419.188 184.938 419.064 184.94 418.915 184.871C418.296 184.572 417.82 184.369 417.321 184.147C416.643 183.834 415.989 183.47 415.365 183.06C414.542 182.529 414.06 181.915 414.06 180.96C414.06 180.84 414.032 180.788 414.06 180.669C414.203 179.568 414.872 178.873 415.944 178.495C416.362 178.342 416.804 178.269 417.248 178.279H418.118C418.499 178.279 418.84 178.277 419.132 178.351C419.287 178.407 419.386 178.493 419.567 178.568C420.247 178.852 420.7 179.024 421.161 179.582C421.465 179.953 421.505 180.298 421.812 180.669L421.958 180.307C422.044 180.459 422.105 180.643 422.247 180.814L423.334 178.061C423.275 177.969 423.209 177.969 423.116 177.917C422.917 177.792 422.815 177.74 422.609 177.627C422.038 177.316 421.711 177.229 421.088 177.047C420.946 177.001 420.826 176.953 420.653 176.902C420.179 176.767 419.694 176.67 419.204 176.613C418.842 176.563 418.627 176.467 418.262 176.467H416.162H416.161ZM334.371 176.83C334.82 177.261 334.965 177.623 335.168 178.206C335.304 178.609 335.385 178.867 335.385 179.293V192.913C335.385 193.307 335.284 193.477 335.168 193.854C334.977 194.478 334.843 194.842 334.37 195.304H334.878C334.83 195.355 334.788 195.393 334.733 195.448H340.601C340.152 195.01 339.973 194.66 339.804 194.072C339.664 193.579 339.587 193.35 339.587 192.84V178.932C340.677 178.932 341.25 178.913 342.339 178.932C342.67 178.939 342.978 178.987 343.282 179.077C344.351 179.553 345.166 180.551 345.166 181.757V182.626C345.166 183.287 344.919 183.722 344.585 184.293C344.194 184.965 343.89 185.275 343.209 185.669C342.441 186.116 341.931 186.356 341.036 186.393C341.242 186.825 341.415 187.014 341.688 187.408C342.19 188.141 342.47 188.567 342.992 189.292C344.105 190.833 344.702 191.731 345.817 193.276C346.69 194.487 347.044 195.229 348.208 196.173C348.938 196.768 349.42 197.133 350.309 197.478C350.455 197.534 350.543 197.576 350.671 197.622C350.751 197.653 350.814 197.667 350.889 197.695C351.011 197.736 351.13 197.809 351.251 197.84C351.706 197.997 352.118 198.129 352.7 198.129H354.221L355.815 197.985C355.482 197.698 355.171 197.654 354.8 197.406C353.94 196.823 353.511 196.458 352.772 195.738C351.665 194.669 351.111 193.971 350.164 192.768C348.35 190.474 347.466 189.094 345.6 186.828C346.29 186.472 346.704 186.402 347.339 185.958C347.979 185.513 348.255 185.107 348.643 184.437C349.103 183.649 349.33 183.099 349.367 182.191C349.374 181.8 349.324 181.575 349.295 181.177C349.187 179.422 347.98 178.137 346.397 177.483C346.231 177.403 346.062 177.331 345.89 177.265C345.745 177.22 345.605 177.156 345.455 177.121C344.845 176.931 344.211 176.834 343.572 176.832C339.987 176.796 337.956 176.834 334.371 176.832V176.83ZM323.794 176.975C324.345 177.505 324.567 177.908 324.736 178.641C324.808 178.96 324.881 179.179 324.881 179.51V192.913C324.881 193.371 324.797 193.564 324.663 194C324.478 194.605 324.258 195.002 323.794 195.448H324.373C324.326 195.498 324.278 195.546 324.228 195.593H330.097C329.622 195.135 329.438 194.759 329.227 194.145C329.094 193.753 329.011 193.541 329.011 193.13V179.583C329.011 179.174 329.108 178.957 329.227 178.569C329.418 177.951 329.627 177.575 330.097 177.12H329.517C329.567 177.066 329.604 177.03 329.662 176.975H323.794ZM356.829 177.047L352.989 177.12C353.815 178.843 354.531 181.243 354.655 181.755L358.35 195.448H358.713L358.785 195.593H361.031L364.58 185.378L367.985 195.448H368.347L368.42 195.593H370.665L374.94 180.235C375.29 178.948 375.45 178.597 376.027 177.337H375.519C375.546 177.277 375.562 177.256 375.592 177.192L371.897 177.12L371.97 177.988C371.97 178.91 371.567 180.377 371.318 181.322L369.072 189.435L364.87 177.264H364.725L364.58 177.626L364.435 177.12H364.29L359.944 189.435L357.915 181.828C357.666 180.907 357.118 179.056 357.118 178.206C357.118 177.891 357.24 177.363 357.263 177.192H356.828C356.833 177.157 356.826 177.072 356.828 177.047H356.829ZM397.108 177.192L392.834 177.264C393.66 177.87 394.03 178.337 394.935 179.945L399.137 187.189V192.333C399.137 194.251 398.905 194.767 398.629 195.448H399.137C399.118 195.495 399.084 195.545 399.064 195.593H402.904C402.405 194.648 402.397 193.588 402.397 193.42V187.116L406.888 179.438C407.062 179.171 407.636 178.282 408.338 177.409H407.83C407.866 177.365 407.867 177.309 407.903 177.264L404.063 177.193C404.113 178.067 403.923 178.709 403.121 180.017L400.731 184.219L398.34 180.09C397.861 179.264 397.444 178.406 397.542 177.337H397.108C397.11 177.289 397.103 177.24 397.108 177.193V177.192ZM85.9569 177.626H86.9712C87.1826 177.626 87.3153 177.662 87.4778 177.699C87.5217 177.71 87.5756 177.685 87.6224 177.699C87.7481 177.732 87.9017 177.802 88.0573 177.844C88.6288 178.063 89.0367 178.333 89.5793 178.785C90.5238 179.577 90.9297 180.243 91.3905 181.393C91.7026 182.181 91.7605 182.657 91.8971 183.495C91.9729 183.947 92.1146 184.268 92.1146 184.727V187.044C92.1146 187.746 91.9749 188.1 91.8253 188.783C91.1551 191.797 89.1155 194.288 86.0287 194.288C85.4614 194.284 84.8987 194.186 84.3631 193.999C82.5259 193.197 81.3231 191.335 80.8125 189.145C80.613 188.279 80.4504 187.787 80.4504 186.9V185.16C80.4504 184.176 80.5522 183.579 80.8125 182.625C81.1925 181.255 81.5665 180.452 82.4791 179.365C83.0964 178.627 83.6001 178.32 84.5077 177.988C85.0582 177.789 85.3714 177.626 85.9569 177.626ZM174.557 179.003L177.528 186.03H171.804L174.557 179.003ZM310.174 179.801L312.927 185.813H307.566L310.174 179.801ZM261.274 182.553L263.447 187.697H259.172L261.274 182.553ZM384.938 182.843L387.112 187.624H382.837L384.938 182.843Z" fill="#002C6D"/>
<path d="M56.2734 210.852H423.591H56.2734Z" fill="black"/>
<path d="M56.2734 210.852H423.591" stroke="black" stroke-width="1.84013" stroke-miterlimit="3.864"/>
<path d="M153.309 58.5742H195.124L304.965 157.433H190.583L153.309 58.5742Z" fill="white"/>
<mask id="mask0_730_18695" style="mask-type:luminance" maskUnits="userSpaceOnUse" x="153" y="58" width="152" height="100">
<path d="M153.305 58.5742H195.12L304.963 157.434H190.58L153.305 58.5742Z" fill="white"/>
</mask>
<g mask="url(#mask0_730_18695)">
<g filter="url(#filter0_f_730_18695)">
<path d="M137.928 53.9915L175.278 160.503L200.243 160.886L160.577 54.0807L137.928 53.9915ZM180.219 52.8438L293.438 160.503H319.494L205.342 52.9329L180.219 52.8438Z" fill="#8A8A8A"/>
</g>
</g>
<path d="M170.169 90.7636L227.688 91.8906L194.621 62.2002H159.656L170.169 90.7636Z" fill="url(#paint0_linear_730_18695)"/>
<path d="M296.371 153.858L262.133 122.959L193.377 153.945L296.371 153.858Z" fill="url(#paint1_linear_730_18695)"/>
<path d="M233.077 96.8095L256.39 117.79L192.873 152.891L170.771 91.8918L233.077 96.8095Z" fill="url(#paint2_linear_730_18695)"/>
<path d="M170.771 91.8918L210.075 118.891L192.873 152.891L237.612 110.968L170.771 91.8918Z" fill="url(#paint3_linear_730_18695)"/>
<path d="M175.625 72.8583C177.863 68.8245 183.206 67.5119 187.564 69.9261C191.923 72.3426 193.644 77.5734 191.407 81.6072C189.17 85.6434 183.823 86.9566 179.465 84.5365C175.107 82.123 173.389 76.8922 175.625 72.8583Z" fill="url(#paint4_linear_730_18695)"/>
<path d="M170.771 91.8918L210.075 118.891L192.873 152.891L170.771 91.8918Z" fill="url(#paint5_linear_730_18695)"/>
<path d="M55.8516 210.707H423.169H55.8516Z" fill="black"/>
<path d="M55.8516 210.707H423.169" stroke="black" stroke-width="1.84013" stroke-miterlimit="3.864"/>
<path d="M85.0523 237.504C82.4542 237.504 79.7614 238.579 79.7614 241.876C79.7614 244.312 81.4618 245.304 84.6664 245.879C87.1298 246.32 89.5734 246.611 89.5734 248.917C89.5734 251.313 87.4819 251.911 85.4673 251.911C82.8901 251.911 81.026 251.145 80.7836 247.968H79.3903C79.5998 252.042 82.0643 253.349 85.4673 253.349C88.0863 253.349 91.0545 252.335 91.0545 248.635C91.0545 245.739 88.6389 245.117 86.1933 244.648C82.898 244.04 81.2434 243.558 81.2434 241.595C81.2434 239.882 82.8921 238.927 85.0523 238.927C87.2236 238.927 89.0927 239.634 89.2762 242.218H90.6695C90.5837 238.619 87.8031 237.504 85.0523 237.504ZM239.849 237.504C234.701 237.504 232.897 241.999 232.897 245.449C232.897 250.296 235.578 253.348 239.849 253.348C243.606 253.348 246.056 250.604 246.355 247.212H244.992C244.536 250.097 242.967 251.911 239.849 251.911C235.859 251.911 234.35 248.813 234.35 245.448C234.35 241.05 236.594 238.927 239.849 238.927C242.212 238.927 244.443 240.089 244.858 242.973H246.222C245.818 238.989 242.712 237.504 239.849 237.504ZM62.3454 237.89L56.5508 252.963H58.0029L59.7224 248.398H66.4516L68.1261 252.963H69.6521L63.8574 237.89H62.3454ZM94.7008 237.89V239.312H100.2V252.963H101.652V239.312H107.151V237.89H94.7008ZM114.562 237.89L108.514 252.963H110.026L111.834 248.398H118.846L120.609 252.963H122.21L116.163 237.89H114.562ZM125.87 237.89V252.963H127.22V246.309H132.466C134.707 246.309 135.565 247.204 135.609 249.865C135.609 251.11 135.646 252.051 135.771 252.578C135.814 252.754 135.894 252.883 135.95 252.963H137.372C137.295 252.877 137.232 252.725 137.179 252.489C137.017 251.781 136.949 250.529 136.928 249.821C136.898 249.203 136.886 248.687 136.808 248.206C136.771 247.964 136.705 247.746 136.646 247.538C136.529 247.124 136.367 246.781 136.142 246.501C136.025 246.357 135.891 246.227 135.742 246.116C135.413 245.875 135.032 245.713 134.63 245.641V245.596C136.297 245.164 137.179 243.588 137.179 241.98C137.179 238.799 135.142 237.89 132.941 237.89H125.87ZM153.023 237.89L147.229 252.963H148.652L150.415 248.398H157.13L158.834 252.963H160.346L154.551 237.89H153.023ZM164.747 237.89V252.963H174.544V251.541H166.097V237.89H164.747ZM178.472 237.89V252.963H188.269V251.541H179.851V237.89H178.472ZM192.745 237.89V252.963H194.154V237.89H192.745ZM204.173 237.89L198.126 252.963H199.638L201.431 248.398H208.457L210.205 252.963H211.806L205.804 237.89H204.173ZM215.822 237.89V252.963H217.187V240.127H217.217L226.39 252.963H227.946V237.89H226.598V250.77L217.468 237.89H215.822ZM251.335 237.89V252.963H261.917V251.541H252.699V245.879H261.415V244.456H252.699V239.312H261.755V237.89H251.335ZM274.145 237.89V252.963H275.435V239.935H275.465L280.86 252.963H282.016L287.442 239.935H287.486V252.963H288.715V237.89H286.937L281.482 251.007L276.013 237.89H274.145ZM294.421 237.89V252.963H305.004V251.541H295.786V245.879H304.516V244.456H295.786V239.312H304.842V237.89H294.421ZM310.31 237.89V252.963H311.585V239.935L317.01 252.963H318.166L323.591 239.935H323.635V252.963H324.88V237.89H323.086L317.633 251.007L312.163 237.89H310.31ZM331.313 237.89V252.963H338.516C338.765 252.963 339.004 252.957 339.257 252.918C341.026 252.655 342.769 251.442 342.769 248.679C342.769 248.439 342.733 248.193 342.725 247.968C342.693 247.743 342.673 247.507 342.607 247.301C342.548 247.096 342.46 246.922 342.369 246.737C341.918 245.817 341.107 245.165 340.042 244.974V244.93C341.584 244.504 342.237 243.162 342.237 241.699C342.237 239.556 341.225 237.889 338.679 237.889H331.313V237.89ZM347.986 237.89V252.963H358.184V251.541H349.261V245.879H357.71V244.456H349.262V239.312H358.036V237.89H347.986ZM363.52 237.89V252.963H364.899V246.309H370.175C372.446 246.309 373.342 247.204 373.376 249.865C373.406 251.11 373.454 252.051 373.584 252.578C373.627 252.754 373.702 252.883 373.761 252.963H375.214C375.139 252.877 375.061 252.725 375.007 252.489C374.844 251.781 374.79 250.529 374.755 249.821C374.725 249.203 374.712 248.687 374.636 248.206C374.598 247.964 374.515 247.746 374.458 247.538C374.342 247.124 374.197 246.781 373.97 246.501C373.848 246.355 373.708 246.226 373.554 246.116C373.219 245.874 372.834 245.711 372.427 245.641V245.596C374.129 245.164 374.962 243.588 374.962 241.98C374.962 238.799 372.957 237.89 370.723 237.89H363.52ZM127.22 239.312H133.044C134.284 239.312 135.697 239.744 135.697 241.98C135.697 244.291 134.393 244.93 132.911 244.93H127.22V239.312ZM332.616 239.312H338.442C339.916 239.312 340.932 239.898 340.932 241.744C340.932 243.768 339.751 244.457 337.938 244.457H332.617L332.616 239.312ZM364.899 239.312H370.797C372.061 239.312 373.51 239.744 373.51 241.98C373.51 244.291 372.171 244.93 370.678 244.93H364.899V239.312ZM63.1164 239.461L65.918 246.975H60.241L63.1164 239.461ZM115.362 239.461L118.252 246.975H112.383L115.362 239.461ZM153.794 239.461L156.567 246.975H150.934L153.794 239.461ZM204.959 239.461L207.908 246.975H201.98L204.959 239.461ZM332.617 245.879H338.605C340.171 245.879 341.332 246.498 341.332 248.679C341.332 250.76 340.023 251.541 338.279 251.541H332.617V245.879Z" fill="black"/>
<path d="M408.513 238.968C408.483 238.939 411.284 233.198 405.607 225.766L402.325 230.108L397.504 234.62L402.559 237.233L406.737 238.328L407.879 239.03C407.879 239.03 408.472 238.936 408.513 238.968Z" fill="#89898A"/>
<path d="M397.148 234.529C397.148 234.529 403.222 239.218 408.624 238.935L404.475 233.016L397.148 234.529Z" fill="#3F3F3F"/>
<path d="M405.764 225.672C405.764 225.672 398.636 230.431 397.223 234.516L404.511 233.01L405.764 225.672Z" fill="#D5D5D4"/>
<path d="M424.563 240.477C424.533 240.468 422.235 234.514 412.926 233.598L413.866 238.962V245.565L419.224 243.652L422.874 241.345L424.165 240.986C424.165 240.986 424.501 240.486 424.551 240.477" fill="#89898A"/>
<path d="M413.562 245.766C413.562 245.766 421.137 244.524 424.615 240.378L417.455 239.371L413.562 245.765" fill="#3F3F3F"/>
<path d="M412.965 233.422C412.965 233.422 411.581 241.876 413.608 245.699L417.477 239.338L412.965 233.422Z" fill="#D5D5D4"/>
<path d="M416.357 261.411C416.357 261.381 421.087 257.103 418.609 248.086L413.936 250.884L407.777 253.26L411.487 257.579L414.947 260.158L415.743 261.232C415.743 261.232 416.331 261.37 416.357 261.412" fill="#89898A"/>
<path d="M407.48 253.039C407.48 253.039 411.352 259.665 416.469 261.429L414.842 254.383L407.48 253.039Z" fill="#3F3F3F"/>
<path d="M418.785 248.055C418.785 248.055 410.396 249.795 407.555 253.053L414.875 254.386L418.785 248.055Z" fill="#D5D5D4"/>
<path d="M407.179 258.049C407.149 258.034 406.919 251.654 398.418 247.758L397.56 253.134L395.422 259.38L401.111 259.313L405.313 258.323L406.65 258.403C406.65 258.403 407.132 258.04 407.179 258.049Z" fill="#89898A"/>
<path d="M395.059 259.468C395.059 259.468 402.623 260.758 407.262 257.973L400.817 254.691L395.059 259.469" fill="#3F3F3F"/>
<path d="M398.511 247.604C398.511 247.604 394.448 255.147 395.12 259.423L400.846 254.668L398.511 247.604ZM400.917 240.5C400.887 240.508 396.064 236.33 387.414 239.89L390.761 244.185L393.871 250.008L397.705 245.803L399.842 242.05L400.815 241.127C400.815 241.127 400.879 240.532 400.917 240.499" fill="#D5D5D4"/>
<path d="M393.689 250.329C393.689 250.329 399.79 245.678 400.915 240.383L394.12 242.859L393.688 250.329" fill="#3F3F3F"/>
<path d="M387.363 239.715C387.363 239.715 390.112 247.83 393.692 250.257L394.123 242.825L387.363 239.715Z" fill="#8E9192"/>
<defs>
<filter id="filter0_f_730_18695" x="122.267" y="37.1825" width="212.889" height="139.364" filterUnits="userSpaceOnUse" color-interpolation-filters="sRGB">
<feFlood flood-opacity="0" result="BackgroundImageFix"/>
<feBlend mode="normal" in="SourceGraphic" in2="BackgroundImageFix" result="shape"/>
<feGaussianBlur stdDeviation="7.83061" result="effect1_foregroundBlur_730_18695"/>
</filter>
<linearGradient id="paint0_linear_730_18695" x1="169.235" y1="88.0655" x2="197.123" y2="64.9048" gradientUnits="userSpaceOnUse">
<stop stop-color="#820008"/>
<stop offset="0.346" stop-color="#C70D12"/>
<stop offset="0.451" stop-color="#E26A48"/>
<stop offset="0.575" stop-color="#EB9B7B"/>
<stop offset="0.746" stop-color="#E26B49"/>
<stop offset="0.839" stop-color="#CC221B"/>
<stop offset="1" stop-color="#940109"/>
</linearGradient>
<linearGradient id="paint1_linear_730_18695" x1="193.377" y1="153.945" x2="267.97" y2="83.7399" gradientUnits="userSpaceOnUse">
<stop stop-color="#0B1838"/>
<stop offset="0.208" stop-color="#032F70"/>
<stop offset="0.355" stop-color="#585E97"/>
<stop offset="0.451" stop-color="#8182B2"/>
<stop offset="0.512" stop-color="#585E98"/>
<stop offset="0.618" stop-color="#032F70"/>
<stop offset="1" stop-color="#061C41"/>
</linearGradient>
<linearGradient id="paint2_linear_730_18695" x1="192.958" y1="152.891" x2="243.677" y2="107.785" gradientUnits="userSpaceOnUse">
<stop stop-color="#084C11"/>
<stop offset="0.391" stop-color="#027516"/>
<stop offset="0.6" stop-color="#64A378"/>
<stop offset="0.674" stop-color="#88B797"/>
<stop offset="0.753" stop-color="#64A279"/>
<stop offset="0.849" stop-color="#138437"/>
<stop offset="1" stop-color="#084C11"/>
</linearGradient>
<linearGradient id="paint3_linear_730_18695" x1="178.601" y1="95.0476" x2="199.686" y2="145.71" gradientUnits="userSpaceOnUse">
<stop stop-color="#90600C"/>
<stop offset="0.076" stop-color="#C6891C"/>
<stop offset="0.263" stop-color="#F2C876"/>
<stop offset="0.496" stop-color="#FBF1D6"/>
<stop offset="0.692" stop-color="#FBF1D6"/>
<stop offset="0.845" stop-color="#F2C876"/>
<stop offset="0.947" stop-color="#C6891C"/>
<stop offset="1" stop-color="#90600C"/>
</linearGradient>
<linearGradient id="paint4_linear_730_18695" x1="181.919" y1="71.8558" x2="184.594" y2="83.4354" gradientUnits="userSpaceOnUse">
<stop stop-color="#FDE2A0"/>
<stop offset="1" stop-color="#CC770D"/>
</linearGradient>
<linearGradient id="paint5_linear_730_18695" x1="200.257" y1="125.906" x2="210.077" y2="118.673" gradientUnits="userSpaceOnUse">
<stop stop-color="#000002"/>
<stop offset="1" stop-color="#5A5A5A"/>
</linearGradient>
</defs>
</svg>
