<svg width="480" height="320" viewBox="0 0 480 320" fill="none" xmlns="http://www.w3.org/2000/svg">
<path fill-rule="evenodd" clip-rule="evenodd" d="M172.196 121.3L185.054 125.268L172.297 129.553L172.496 143.008L164.48 132.199L151.747 136.546L159.548 125.581L151.479 114.815L164.317 118.847L172.063 107.844L172.196 121.3ZM287.858 119.04L300.657 114.879L292.693 125.728L300.605 136.613L287.828 132.392L279.92 143.28L279.985 129.824L267.187 125.668L280.005 121.572L280.003 108.115L287.858 119.04ZM178.246 83.36L186.775 80.5871L181.469 87.8165L186.739 95.0706L178.224 92.2588L172.954 99.5129L172.999 90.547L164.469 87.7758L173.011 85.0471V76.0794L178.246 83.36ZM278.533 159.97L287.16 162.42L278.726 165.467L279.062 174.429L273.559 167.348L265.141 170.438L270.172 163.016L264.634 155.963L273.246 158.457L278.243 151.008L278.533 159.97ZM201.785 65.7288L210.023 66.3866L202.949 70.6609L204.869 78.6967L198.62 73.2924L191.571 77.602L194.779 69.9871L188.501 64.6146L196.735 65.3132L199.905 57.6824L201.785 65.7288ZM253.597 177.536L260.953 173.777L257.176 181.124L263.026 186.96L254.87 185.636L251.126 193.003L249.865 184.836L241.702 183.554L249.078 179.832L247.777 171.672L253.597 177.536ZM227.171 64.2592L225.185 71.0411L222.838 64.3741L215.775 64.5828L221.39 60.2908L219.01 53.638L224.826 57.6523L230.418 53.332L228.398 60.1051L234.234 64.0876L227.171 64.2592ZM221.913 190.43L216.092 186.424L223.157 186.278L225.167 179.505L227.489 186.179L234.552 185.996L228.924 190.267L231.277 196.929L225.477 192.895L219.869 197.192L221.913 190.43ZM249.017 68.5459L245.763 72.7158L245.97 67.43L241 65.6244L246.09 64.1885L246.272 58.9026L249.209 63.3007L254.294 61.84L251.018 65.994L253.979 70.3762L249.017 68.5459ZM202.286 188.066L197.125 189.233L200.636 185.273L197.934 180.728L202.781 182.842L206.27 178.866L205.757 184.131L210.617 186.221L205.451 187.36L204.965 192.626L202.286 188.066ZM266.087 82.4847L262.416 83.8658L264.591 80.6031L262.142 77.5384L265.919 78.5977L268.077 75.3225L268.236 79.2414L272.019 80.2812L268.34 81.6429L268.519 85.5618L266.087 82.4847ZM184.98 172.212L182.746 175.435L182.679 171.513L178.923 170.385L182.631 169.11L182.545 165.187L184.904 168.321L188.607 167.026L186.356 170.238L188.731 173.359L184.98 172.212Z" fill="#C11338"/>
<path fill-rule="evenodd" clip-rule="evenodd" d="M197.721 127.402H250.643H197.721Z" fill="#5575AE"/>
<path d="M197.721 127.402H250.643" stroke="#5575AE" stroke-width="4.42109" stroke-linejoin="round"/>
<path fill-rule="evenodd" clip-rule="evenodd" d="M194.422 127.401L199.513 115.022L204.605 127.401L199.511 139.78L194.422 127.401ZM245.376 126.964L250.465 114.585L255.558 126.964L250.465 139.343L245.376 126.964ZM232.648 127.604L237.738 104.395L242.831 127.604L237.738 150.813L232.648 127.604ZM207.192 127.157L212.283 103.948L217.373 127.157L212.283 150.366L207.192 127.157ZM219.696 126.823L224.563 87.8711L229.432 126.823L224.563 165.774L219.696 126.823Z" fill="#5575AE" stroke="#5575AE" stroke-width="4.42109" stroke-miterlimit="100"/>
<path d="M135.467 217.594H148.194V229.089H135.467V217.594ZM174.098 217.594H186.826V229.089H174.098V217.594ZM233.272 217.594H245.999V229.089H233.272V217.594Z" stroke="#5575AE" stroke-width="4.42109" stroke-miterlimit="100" stroke-linejoin="round"/>
<path d="M252.922 217.594V229.089" stroke="#5575AE" stroke-width="4.42109" stroke-miterlimit="100" stroke-linecap="round" stroke-linejoin="round"/>
<path d="M265.873 217.594V229.089" stroke="#5575AE" stroke-width="4.42109" stroke-miterlimit="100" stroke-linecap="round" stroke-linejoin="bevel"/>
<path d="M252.922 223.34H265.425" stroke="#5575AE" stroke-width="4.42109" stroke-miterlimit="100" stroke-linejoin="bevel"/>
<path d="M272.125 217.594L272.127 229.089H286.417V230.857M283.958 217.594V229.089M308.077 229.089V217.594H319.243V223.341H308.077" stroke="#5575AE" stroke-width="4.42109" stroke-miterlimit="100" stroke-linecap="round" stroke-linejoin="round"/>
<path d="M325.941 217.594V229.089M337.999 217.594V229.089M326.61 223.341H337.106" stroke="#5575AE" stroke-width="4.42109" stroke-miterlimit="100" stroke-linecap="round" stroke-linejoin="bevel"/>
<path d="M302.718 229.089H292.223V217.594H302.718M292.67 223.341H299.144" stroke="#5575AE" stroke-width="4.42109" stroke-miterlimit="100" stroke-linecap="round" stroke-linejoin="round"/>
<path d="M214.291 217.594V229.089" stroke="#5575AE" stroke-width="4.42109" stroke-miterlimit="100" stroke-linecap="round" stroke-linejoin="bevel"/>
<path d="M224.562 217.594L214.291 223.341" stroke="#5575AE" stroke-width="4.42109" stroke-miterlimit="100" stroke-linecap="round" stroke-linejoin="round"/>
<path d="M225.01 229.087L214.291 223.34" stroke="#5575AE" stroke-width="4.42109" stroke-miterlimit="100" stroke-linecap="round" stroke-linejoin="bevel"/>
<path d="M153.748 229.089L160.822 217.594L167.896 229.089L165.446 225.198H156.28" stroke="#5575AE" stroke-width="4.42109" stroke-miterlimit="100" stroke-linecap="round" stroke-linejoin="round"/>
<path d="M121.402 245.888V242.352H103.982V260.036H121.402V256.499M165.612 245.888V242.352H186.604V247.657L183.7 251.194H176.555H183.629L186.604 254.731V260.036H165.612V256.499M243.544 242.352H224.563V260.036H243.544M225.233 251.194H237.07M282.621 265.341V260.036H314.553V265.341M323.931 242.352V260.036L345.591 242.352V260.036M376.019 242.352H357.038V260.036H376.019M357.709 251.194H369.543M253.403 245.888V242.352H274.394V247.657L271.49 251.194H264.346H271.42L274.394 254.731V260.036H253.403V256.499M132.341 242.352H154.896V260.036H132.341V242.352ZM287.311 242.352H310.088V260.036H287.311V242.352ZM195.759 251.194V242.352H213.176L215.855 245.305V248.248L213.176 251.194H195.759ZM195.739 260.036V251.194H213.157L215.836 254.147V257.09L213.157 260.036H195.739Z" stroke="#5575AE" stroke-width="6.63163" stroke-miterlimit="100" stroke-linecap="round" stroke-linejoin="round"/>
</svg>
