<svg width="480" height="320" viewBox="0 0 480 320" fill="none" xmlns="http://www.w3.org/2000/svg">
<path d="M88.8245 165.109H64.1163V158.978H95.9769C95.1409 156.377 92.4472 153.962 87.7099 153.962H64.5807C59.2861 153.962 56.2208 155.913 56.2208 160.186V164.737C56.2208 168.453 59.379 170.589 64.0234 170.589H89.0103V177.091H55.3848C56.2208 180.621 58.9145 182.479 63.7447 182.479H88.9174C94.212 182.479 96.8129 180.435 96.8129 176.07V171.518C96.8129 167.524 93.7476 165.388 88.8245 165.109ZM139.263 154.055H108.796V182.572H117.434V171.611H139.913C146.137 171.611 149.573 169.475 149.573 164.459V161.3C149.481 156.656 145.579 154.055 139.263 154.055ZM142.049 163.158C142.049 165.202 141.678 166.316 138.334 166.316H117.434L117.527 158.885H137.962C141.678 158.885 142.142 160 142.142 161.951V163.158H142.049ZM178.276 171.425H159.884L155.333 176.255H181.899L186.45 182.572H196.668L174.653 152.848L169.452 159.257L178.276 171.425ZM213.202 158.978H245.527C244.691 155.634 241.44 153.962 236.796 153.962H212.645C208.465 153.962 204.47 155.634 204.47 160.186V176.163C204.47 180.714 208.465 182.386 212.645 182.386H237.074C242.647 182.386 244.598 180.807 245.527 176.999H213.202V158.978ZM283.425 168.453V163.623H257.324V182.572H295.872V177.184H266.055V168.453H283.425ZM258.253 154.055H297.173V159.071H258.253V154.055ZM321.138 154.055H307.576L323.553 165.759C325.875 164.18 328.569 162.508 330.984 161.115L321.138 154.055ZM340.83 168.639C338.508 170.218 336.186 171.983 333.957 173.655L346.032 182.479H359.687L340.83 168.639Z" fill="black"/>
<path d="M424.615 137.43C350.304 141.703 315.935 173.47 308.226 180.994L306.646 182.48H320.394C357.549 145.232 410.96 138.637 424.615 137.43Z" fill="black"/>
</svg>
