<svg width="480" height="320" viewBox="0 0 480 320" fill="none" xmlns="http://www.w3.org/2000/svg">
<mask id="mask0_730_18166" style="mask-type:luminance" maskUnits="userSpaceOnUse" x="53" y="111" width="100" height="98">
<path d="M53.9102 111.117H152.987V208.879H53.9102V111.117Z" fill="white"/>
</mask>
<g mask="url(#mask0_730_18166)">
<mask id="mask1_730_18166" style="mask-type:luminance" maskUnits="userSpaceOnUse" x="55" y="111" width="98" height="98">
<path d="M73.5736 177.315C53.9094 165.654 68.2533 116.773 104.404 116.385C118.438 116.247 149.145 125.882 149.104 159.987C149.06 198.649 113.409 204.952 99.1318 199.692C94.4374 197.963 95.3316 195.638 97.6192 194.718C97.6192 194.718 128.807 181.969 139.097 144.302C139.407 143.043 138.456 142.443 137.901 143.318C120.946 170.728 101.419 180.676 86.8221 180.676C81.6956 180.68 77.1726 179.472 73.5736 177.315ZM55.3848 159.987C55.3848 186.995 77.2359 208.879 104.184 208.879C131.124 208.879 152.99 186.995 152.99 159.987C152.99 133.013 131.128 111.117 104.184 111.117C77.2359 111.117 55.3848 133.013 55.3848 159.987Z" fill="white"/>
</mask>
<g mask="url(#mask1_730_18166)">
<path d="M53.9102 111.117H152.987V208.879H53.9102V111.117Z" fill="url(#paint0_radial_730_18166)"/>
</g>
</g>
<path d="M185.199 167.972C185.434 173.188 188.679 174.876 193.567 174.876C197.047 174.876 200.65 173.639 200.65 170.319C200.65 166.433 194.324 165.666 187.93 163.874C181.604 162.086 174.969 159.213 174.969 151.072C174.969 141.382 184.696 137.574 193.023 137.574C201.827 137.574 210.694 141.874 210.746 151.892H199.223C199.394 147.838 195.616 146.527 192.084 146.527C189.611 146.527 186.503 147.403 186.503 150.335C186.503 153.74 192.897 154.37 199.35 156.169C205.732 157.984 212.162 160.949 212.162 168.967C212.162 180.215 202.624 183.817 192.893 183.817C182.714 183.817 173.72 179.324 173.676 167.972M217.885 147.611H228.842V151.687H228.984C231.212 148.356 234.583 146.609 238.652 146.609C249.684 146.609 254.359 156.095 254.359 165.986C254.359 175.144 249.471 183.817 239.535 183.817C235.202 183.817 231.893 182.193 229.524 179.015H229.39V194.596H217.885M228.984 164.843C228.984 170.99 230.731 174.995 235.94 174.995C241.081 174.995 242.851 169.656 242.851 164.843C242.851 160.353 241.077 155.435 236.021 155.435C232.911 155.431 228.984 157.577 228.984 164.843ZM260.194 158.46C260.387 153.841 262.552 150.864 265.671 149.027C268.774 147.276 272.842 146.605 276.84 146.605C285.163 146.605 293.211 148.431 293.211 158.386V173.773C293.211 176.761 293.211 180.017 294.567 182.8H283.002C282.596 181.712 282.436 180.625 282.317 179.492C279.34 182.599 274.951 183.814 270.76 183.814C264.046 183.814 258.763 180.408 258.763 173.177C258.763 161.717 271.218 162.603 279.206 160.972C281.169 160.554 282.246 159.884 282.246 157.715C282.246 155.078 279.057 154.057 276.687 154.057C273.517 154.057 271.483 155.487 270.946 158.464M275.078 176.698C280.543 176.698 282.377 173.572 282.112 166.337C280.48 167.342 277.526 167.551 275.007 168.237C272.425 168.81 270.272 169.913 270.272 172.696C270.268 175.535 272.511 176.698 275.078 176.698ZM299.72 147.634H310.893V152.414H311.02C313.121 148.818 317.838 146.609 322.044 146.609C333.761 146.609 334.696 155.156 334.696 160.223V182.8H323.203V165.796C323.203 160.972 323.739 156.095 317.443 156.095C313.121 156.095 311.232 159.735 311.232 163.617V182.8H299.716M341.611 158.46C341.805 153.841 343.992 150.864 347.099 149.027C350.214 147.276 354.271 146.605 358.258 146.605C366.592 146.605 374.617 148.431 374.617 158.386V173.773C374.617 176.761 374.617 180.017 375.996 182.8H364.431C364.025 181.712 363.887 180.625 363.746 179.492C360.758 182.599 356.372 183.814 352.181 183.814C345.49 183.814 340.195 180.408 340.195 173.177C340.195 161.717 352.65 162.603 360.631 160.972C362.591 160.554 363.69 159.884 363.69 157.715C363.69 155.078 360.508 154.057 358.142 154.057C354.942 154.057 352.915 155.487 352.382 158.464M356.499 176.698C361.972 176.698 363.798 173.572 363.541 166.337C361.939 167.342 358.943 167.551 356.436 168.237C353.865 168.81 351.7 169.913 351.7 172.696C351.697 175.535 353.947 176.698 356.499 176.698Z" fill="#072C5D"/>
<path d="M392.842 143.217H381.326V136.258H392.842V143.217ZM381.326 147.636H392.842V182.803H381.326V147.636ZM400.051 147.636H411.214V153.78H411.351C413.036 149.32 416.977 146.932 421.906 146.932C422.789 146.932 423.739 147.006 424.615 147.208V157.718C423.143 157.323 421.776 157.055 420.219 157.055C414.533 157.055 411.534 160.97 411.534 165.389V182.803H400.051" fill="#003468"/>
<defs>
<radialGradient id="paint0_radial_730_18166" cx="0" cy="0" r="1" gradientUnits="userSpaceOnUse" gradientTransform="translate(81.4574 193.635) scale(90.4709 90.6283)">
<stop stop-color="#F15A22"/>
<stop offset="0.2958" stop-color="#F47B20"/>
<stop offset="0.5915" stop-color="#F7921E"/>
<stop offset="0.8366" stop-color="#F9A11B"/>
<stop offset="1" stop-color="#FAA61A"/>
</radialGradient>
</defs>
</svg>
