<svg width="480" height="320" viewBox="0 0 480 320" fill="none" xmlns="http://www.w3.org/2000/svg">
<path d="M191.192 170.741C191.206 171.615 190.895 172.368 190.263 172.997C189.634 173.62 188.872 173.937 188.001 173.937H175.787V170.608H187.586V166.584H178.986C177.954 166.584 177.201 166.35 176.736 165.903C176.107 165.271 175.787 164.524 175.787 163.647V159.372C175.787 158.472 176.099 157.713 176.713 157.096C177.325 156.482 178.086 156.176 178.986 156.176H191.192V159.242H179.37V163.515H187.972C189.046 163.515 189.81 163.734 190.248 164.187C190.86 164.807 191.163 165.569 191.172 166.463L191.192 170.741ZM212.014 166.852V173.937H208.939V156.176H221.153C222.053 156.176 222.815 156.479 223.423 157.096C224.049 157.713 224.352 158.478 224.352 159.372V163.647C224.352 164.53 224.041 165.28 223.412 165.906C222.794 166.535 222.039 166.849 221.153 166.849H212.014V166.852ZM221.26 159.239H212.017V163.777H221.26V159.239ZM256.719 173.937H244.511C243.637 173.937 242.881 173.623 242.247 173C241.626 172.365 241.309 171.612 241.309 170.744V159.372C241.309 158.475 241.626 157.713 242.235 157.096C242.849 156.479 243.614 156.179 244.511 156.179H256.717V159.239H244.387V163.518H256.717V166.584H244.387V170.862H256.717V173.937H256.719ZM276.714 170.862H289.061V173.937H276.838C275.97 173.937 275.214 173.62 274.576 172.997C273.956 172.368 273.641 171.615 273.641 170.741V159.375C273.641 158.475 273.944 157.716 274.562 157.099C275.185 156.484 275.941 156.179 276.838 156.179H289.061V159.245H276.714V170.862ZM314.628 173.94H311.576V159.239H305.397V156.176H320.805V159.239H314.628V173.94ZM350.036 159.239H340.805V163.777H350.036V159.239ZM353.123 173.937H348.796L343.418 166.852H340.787V173.937H337.709V156.179H349.926C350.826 156.179 351.579 156.479 352.194 157.096C352.811 157.713 353.123 158.478 353.123 159.372V163.647C353.123 164.53 352.811 165.28 352.188 165.909C351.556 166.535 350.801 166.849 349.926 166.849H347.872L353.094 173.937H353.123ZM386.269 170.741C386.269 171.621 385.96 172.377 385.334 172.997C384.714 173.62 383.949 173.937 383.078 173.937H374.066C373.181 173.937 372.433 173.62 371.802 172.997C371.173 172.368 370.861 171.615 370.861 170.741V156.176H373.936V170.862H383.176V156.176H386.269V170.741ZM412.693 173.937V159.75H407.195V173.937H404.12V159.372C404.12 158.475 404.423 157.713 405.043 157.096C405.657 156.479 406.419 156.179 407.313 156.179H411.903C412.797 156.179 413.544 156.479 414.147 157.082C414.791 156.479 415.532 156.179 416.406 156.179H421.437C422.352 156.179 423.113 156.479 423.713 157.082C424.31 157.69 424.616 158.463 424.616 159.372V173.937H421.552V159.75H415.766V173.937H412.722H412.693Z" fill="#021A31"/>
<path d="M82.0833 163.692C88.6174 157.533 101.085 148.81 123.157 142.665C160.797 132.185 189.83 131.062 189.83 131.062C189.83 131.062 155.53 159.622 133.631 165.665C129.829 166.715 125.617 167.555 121.235 168.247C169.44 177.305 169.57 182.988 169.57 182.988C169.57 182.988 126.137 193.599 95.5004 186.482C64.8641 179.368 55.3848 167.064 55.3848 167.064C55.3848 167.064 62.3025 163.291 82.0833 163.692Z" fill="#021A31"/>
<path d="M77.6348 170.804C77.6348 170.804 99.9023 171.168 118.832 168.205L117.687 167.995C103.168 165.286 91.9086 164.25 83.3293 164.074C79.1435 168.015 77.6348 170.804 77.6348 170.804Z" fill="white"/>
</svg>
