<svg width="480" height="320" viewBox="0 0 480 320" fill="none" xmlns="http://www.w3.org/2000/svg">
<g clip-path="url(#clip0_759_274)">
<path d="M155.73 166.781C152.998 169.421 149.299 170.185 147.757 168.647C146.216 167.099 147.003 163.293 149.713 160.663C152.434 158.055 156.059 157.153 157.622 158.701C159.184 160.25 158.419 164.173 155.73 166.781Z" fill="#FAD10A"/>
<path d="M166.774 166.421C164.839 168.552 162.193 169.369 160.906 168.287C159.641 167.195 160.131 164.354 162.065 162.201C164.032 160.081 166.721 159.094 167.997 160.197C169.24 161.3 168.708 164.269 166.774 166.421Z" fill="#FAD700"/>
<path d="M120.959 152.86C117.281 152.065 112.232 153.347 108.767 156.751C105.142 160.345 102.485 165.244 103.92 169.273C104.494 170.938 106.864 172.518 108.767 172.592C112.466 172.751 116.728 171.065 119.652 168.372C122.798 165.509 124.446 161.3 124.52 158.342C124.512 157.61 124.512 157.281 124.34 156.475C124.021 154.758 122.32 153.135 120.959 152.86" fill="#F5A819"/>
<path d="M140.804 167.195C137.169 170.662 131.801 171.955 129.728 169.888C127.655 167.831 128.888 162.699 132.502 159.189C136.106 155.68 141.187 154.853 143.26 156.92C145.333 158.945 144.418 163.674 140.804 167.195Z" fill="#F8B817"/>
<path d="M134.395 157.886C135.66 156.847 137.02 156.126 138.211 156.02C136.871 156.529 135.574 157.133 134.395 157.886Z" fill="#F5A319"/>
<path d="M164.651 150.156C162.418 153.22 158.804 154.524 156.997 153.283C155.222 152.043 155.211 148.194 157.422 145.119C159.686 142.087 163.322 140.539 165.086 141.779C166.904 143.041 166.904 147.123 164.651 150.156" fill="#FAD10A"/>
<path d="M173.29 153.411C171.493 155.871 168.825 157.027 167.401 156.019C165.945 155.012 166.157 152.033 167.964 149.562C169.739 147.123 172.482 145.777 173.906 146.805C175.341 147.791 175.107 150.983 173.29 153.411Z" fill="#FAD700"/>
<path d="M135.597 140.507C131.079 145.914 124.181 148.12 121.194 145.32C117.739 142.012 117.59 136.743 122.66 130.37C128.124 123.521 134.162 123.277 137.351 125.832C140.54 128.377 140.093 135.089 135.597 140.507Z" fill="#F8B517"/>
<path d="M152.455 145.904C149.149 151.492 144.025 151.587 141.719 149.785C139.454 147.94 140.113 142.649 143.356 138.779C146.587 134.898 151.742 133.371 153.837 135.418C155.58 137.146 155.048 141.546 152.455 145.904Z" fill="#F8BF11"/>
<path d="M121.503 122.715C121.526 123.521 121.457 124.305 121.375 125.101C121.429 124.316 121.503 123.521 121.503 122.715Z" fill="#F5A319"/>
<path d="M116.262 112.95C104.474 107.998 92.6109 123.956 93.557 132.915C94.3014 139.839 98.7124 142.628 104.878 141.652C104.984 141.61 105.08 141.61 105.154 141.588C111.659 140.719 117.123 135.417 119.61 130.752C120.471 129.119 121.067 127.168 121.364 125.154C121.372 125.122 121.364 125.122 121.364 125.122C121.426 124.316 121.502 123.521 121.502 122.715C121.502 118.538 119.972 114.53 116.262 112.95" fill="#F5A11C"/>
<path d="M91.5152 148.671C88.8259 149.127 86.2535 150.241 83.9256 151.789C80.1307 154.015 76.9843 156.963 75.1559 160.515C72.9024 164.873 73.1788 168.796 75.1097 171.521C75.9813 172.984 77.2037 173.885 78.3943 174.394C79.043 174.659 79.7335 174.871 80.4245 174.999H80.4477C82.4992 175.486 84.8165 175.444 87.3783 174.776C94.8724 172.751 103.355 164.629 103.302 156.963C103.263 149.456 97.7318 147.356 91.5133 148.671" fill="#F8991C"/>
<path d="M164.617 178.244C162.555 180.237 159.876 180.916 158.664 179.728C157.495 178.551 158.144 175.773 160.206 173.737C162.289 171.744 165.053 170.938 166.254 172.115C167.444 173.292 166.711 176.229 164.617 178.244Z" fill="#FAD700"/>
<path d="M151.701 182.061C148.874 184.531 145.366 185.189 143.888 183.535C142.443 181.902 143.58 178.583 146.461 176.134C149.331 173.695 152.7 173.059 154.178 174.702C155.602 176.325 154.603 179.612 151.701 182.061Z" fill="#FAD10A"/>
<path d="M134.471 187.319C130.623 190.585 125.967 191.454 124.011 189.27C122.055 187.075 123.607 182.654 127.423 179.409C131.261 176.133 135.757 175.285 137.702 177.48C139.648 179.653 138.298 184.043 134.471 187.319Z" fill="#F8BA14"/>
<path d="M113.243 180.057C105.653 177.915 93.578 187.574 95.332 195.155C95.7462 196.873 98.1064 198.389 99.9878 198.612C107.588 199.397 116.145 191.296 116.602 185.56C116.564 184.892 116.54 184.224 116.506 183.566C116.284 181.838 114.604 180.438 113.243 180.057Z" fill="#FAA617"/>
<path d="M92.8023 188.497C91.4203 182.75 84.4472 183.206 79.77 184.584C78.0267 184.987 76.2729 185.644 74.6359 186.535H74.605C72.192 187.712 70.2043 189.143 68.376 190.893C66.1437 193.035 62.3382 197.848 63.1248 202.503C63.9327 207.412 70.0767 208.844 75.6361 207.508C82.3116 205.97 94.9397 197.435 92.8032 188.497" fill="#F8991C"/>
<path d="M209.561 148.375C208.583 145.469 208.668 141.313 203.779 141.408C198.974 141.525 196.731 144.685 196.731 148.47C196.731 154.588 212.24 155.776 213.409 168.192C214.121 175.593 206.883 187.892 192.331 188.03C186.431 188.03 179.086 185.4 178.969 172.995L189.428 170.747C189.546 173.854 189.301 179.42 195.275 179.42C199.824 179.42 202.206 175.126 202.567 171.754C203.428 163.993 186.133 161.766 186.218 151.863C186.336 142.596 192.33 133.021 206.67 133.149C220.893 133.255 218.979 145.936 218.979 145.936L209.561 148.375Z" fill="#EB1C23"/>
<path d="M231.011 156.359L225.451 178.349C226.695 180.279 228.29 181.254 230.245 181.223C231.478 181.307 232.701 180.735 233.87 179.41C235.05 178.105 236.166 175.518 237.165 171.616L239.345 163.07C240.28 159.19 240.482 156.602 239.972 155.298C239.44 153.973 238.526 153.369 237.229 153.485C235.284 153.443 233.232 154.408 231.011 156.359M224.165 147.282H232.552L231.34 152.139H231.478C232.68 150.813 234.317 149.562 236.379 148.396C238.441 147.251 240.492 146.604 242.618 146.551C246.158 146.551 248.348 147.919 249.273 150.654C250.166 153.347 249.974 157.302 248.603 162.477L246.158 172.231C244.883 177.384 243.107 181.371 240.833 184.075C238.558 186.779 235.656 188.146 232.106 188.157C230.926 188.179 229.725 187.85 228.523 187.16C227.301 186.482 225.834 185.347 224.101 183.725L218.457 206.055H209.305L224.165 147.282Z" fill="#EB1C23"/>
<path d="M303.474 161.109H294.396L294.854 159.349C295.226 157.801 295.014 156.624 294.238 155.818C293.504 155.012 292.282 154.61 290.677 154.61C289.04 154.61 287.647 155.012 286.499 155.818C285.308 156.624 284.532 157.801 284.129 159.349L280.1 175.264C279.717 176.812 279.929 178.01 280.685 178.806C281.45 179.59 282.651 179.993 284.277 179.993C285.893 179.993 287.307 179.59 288.466 178.806C289.624 178.01 290.411 176.812 290.825 175.264L291.453 172.772H300.605L300.558 172.921C299.177 178.191 296.944 182.05 293.819 184.499C290.673 186.938 286.825 188.147 282.233 188.094C277.619 188.147 274.345 186.938 272.453 184.499C270.54 182.05 270.242 178.191 271.56 172.921L274.367 161.692C275.738 156.433 278.002 152.542 281.117 150.124C284.263 147.675 288.132 146.456 292.724 146.498C297.221 146.456 300.42 147.633 302.334 149.976C304.268 152.34 304.619 156.03 303.471 161.109" fill="#EB1C23"/>
<path d="M336.053 169.57H316.165L314.825 174.871C314.347 176.875 314.517 178.317 315.293 179.24C316.037 180.184 317.206 180.629 318.758 180.629C320.682 180.576 322.17 180.056 323.276 179.007C324.402 177.915 325.136 176.621 325.55 174.999H334.681C333.406 179.197 331.291 182.41 328.261 184.669C325.263 186.98 321.458 188.093 316.855 188.157C312.444 188.093 309.276 186.853 307.299 184.329C305.322 181.827 304.875 178.349 305.928 173.907L309.244 160.791C310.424 156.359 312.646 152.881 315.877 150.378C319.109 147.866 322.914 146.583 327.358 146.551C331.652 146.593 334.809 147.844 336.829 150.304C338.848 152.764 339.412 156.019 338.423 160.197L336.053 169.57ZM318.067 162.052H328.803L329.366 159.836C329.813 158.044 329.771 156.645 329.154 155.595C328.537 154.609 327.304 154.079 325.444 154.068C323.616 154.079 322.117 154.609 320.99 155.595C319.852 156.645 319.087 158.044 318.641 159.836L318.067 162.052Z" fill="#EB1C23"/>
<path d="M390.679 169.57H370.823L369.483 174.871C369.027 176.875 369.165 178.317 369.919 179.24C370.663 180.184 371.832 180.629 373.395 180.629C375.308 180.576 376.807 180.056 377.945 179.007C379.039 177.915 379.762 176.621 380.156 174.999H389.308C388.043 179.197 385.906 182.41 382.909 184.669C379.911 186.98 376.127 188.093 371.514 188.157C367.091 188.093 363.913 186.853 361.947 184.329C359.959 181.827 359.502 178.349 360.565 173.907L363.881 160.791C365.082 156.359 367.283 152.881 370.514 150.378C373.746 147.866 377.572 146.583 381.994 146.551C386.31 146.593 389.467 147.844 391.476 150.304C393.496 152.764 394.027 156.019 393.049 160.197L390.679 169.57ZM372.736 162.052H383.461L384.025 159.836C384.482 158.044 384.396 156.645 383.769 155.595C383.153 154.609 381.941 154.079 380.113 154.068C378.274 154.079 376.764 154.609 375.627 155.595C374.489 156.645 373.724 158.044 373.256 159.836L372.736 162.052Z" fill="#EB1C23"/>
<path d="M401.055 156.571H396.304L398.196 149.043H402.958L406.434 135.121H415.576L412.11 149.043H417.978L416.086 156.571H410.186L405.031 177.088C404.786 178.085 404.985 178.827 405.637 179.314C406.233 179.802 407.168 180.057 408.433 180.057C409.071 180.057 409.666 180.014 410.261 179.961L408.295 187.797C406.477 188.051 404.712 188.179 402.959 188.157C399.961 188.179 397.675 187.574 396.251 186.344C394.827 185.082 394.433 183.036 395.114 180.184L401.055 156.571Z" fill="#EB1C23"/>
<path d="M343.75 175.126L350.255 149.35L353.827 135.152H362.979L359.376 149.35L348.363 192.069C346.96 197.307 344.717 201.167 341.603 203.563C338.478 206.023 334.587 207.21 330.016 207.2C325.392 207.211 322.129 206.023 320.258 203.563C318.345 201.124 318.037 197.297 319.312 191.995L328.549 191.942L327.869 194.349C327.54 195.918 327.72 197.074 328.465 197.869C329.23 198.664 330.431 199.099 332.057 199.099C333.684 199.099 335.066 198.664 336.246 197.869C337.436 197.074 338.191 195.918 338.616 194.349L339.435 191.126L343.75 175.126Z" fill="#EB1C23"/>
<path d="M260.159 147.282H269.279L259.181 187.425H250.039L260.159 147.282Z" fill="#EB1C23"/>
<path d="M270.332 143.55H261.18L263.284 135.121H272.394L270.332 143.55Z" fill="#EB1C23"/>
</g>
<defs>
<clipPath id="clip0_759_274">
<rect width="357" height="98" fill="white" transform="translate(62 111)"/>
</clipPath>
</defs>
</svg>
