<svg width="480" height="320" viewBox="0 0 480 320" fill="none" xmlns="http://www.w3.org/2000/svg">
<path fill-rule="evenodd" clip-rule="evenodd" d="M78.1181 138.658C78.1181 156.475 97.6992 169.219 86.8085 186.479C78.9581 198.92 62.4577 183.614 72.0272 173.974C73.3761 172.615 75.5978 170.908 77.6634 170.737C77.0916 169.147 73.1507 158.449 72.8862 157.313C64.9741 157.49 45.0529 176.405 62.0609 198.17C65.0787 202.033 71.3068 205.545 78.1193 205.545C105.966 205.545 102.131 171.646 124.986 171.646C134.093 171.646 138.729 184.018 129.075 190.525C123.701 193.634 119.914 189.812 117.25 188.027L107.694 198.265C111.532 203.996 131.632 213.295 144.325 195.765C151.244 186.211 149.708 173.636 141.855 163.878C131.553 151.076 109.14 161.623 96.0304 148.049C88.5327 140.285 93.1966 129.103 102.007 129.103C107.043 129.103 112.556 134.845 111.095 141.149C110.926 141.876 110.719 142.189 110.652 142.982C113.075 143.588 122.55 146.167 124.302 146.167C131.37 115.83 92.2129 102.091 80.3864 128.869C79.2781 131.379 78.1181 135.082 78.1181 138.659V138.658Z" fill="#009846"/>
<path fill-rule="evenodd" clip-rule="evenodd" d="M316.092 158.452C316.092 156.125 316.24 150.338 318.156 149.368C318.666 149.11 318.607 149.052 319.276 148.896C319.276 152.161 320.099 161.702 318.07 161.047C317.428 160.84 316.09 159.151 316.09 158.452H316.092ZM312.452 146.849C311.59 147.426 310.433 147.943 309.266 148.215C309.266 146.494 309.614 143.51 309.949 142.072C310.865 141.859 311.039 141.617 312.224 141.617C312.696 143.645 312.452 144.422 312.452 146.851V146.849ZM317.912 133.882C319.942 133.882 319.277 141.611 319.277 144.347L317.695 144.834C317.67 139.78 317.592 138.887 314.272 137.295C314.967 135.981 316.254 133.882 317.912 133.882ZM309.949 118.866C309.949 122.59 313.631 123.265 312.304 125.987C310.497 129.698 305.855 131.145 305.855 149.58C303.098 151.038 299.377 152.31 296.072 152.31C294.888 154.079 294.957 155.413 295.442 157.945C296.139 161.583 301.551 157.987 305.4 155.95C305.4 168.583 310.177 170.365 310.177 165.733C310.177 163.871 309.406 155.475 309.04 153.902L312.222 152.305C312.234 158.403 312.539 157.431 310.177 158.68C310.265 159.733 310.843 160.403 311.376 161.12C313.355 163.787 314.246 162.629 315.41 162.32C315.714 163.624 318.812 170.51 319.733 170.51C325.543 170.51 323.279 151.215 323.84 144.814L324.283 140.024C324.958 140.476 327.869 142.76 327.991 143.141C328.445 144.565 327.696 145.293 327.696 148.441C327.696 151.936 330.214 149.828 327.694 154.581C326.091 157.605 323.423 166.641 325.877 166.641C329.321 166.641 334.522 152.94 334.522 150.943C334.522 150.113 334.318 150.401 334.294 149.351C335.46 148.733 337.299 146.958 338.616 146.848C334.823 163.132 332.5 170.509 347.944 170.509C351.405 170.509 361.035 168.878 358.098 163.541C358.006 163.374 352.923 157.059 351.275 154.438C350.887 153.821 350.885 153.52 349.992 153.445C350.03 155.147 355.913 165.73 347.717 165.73C338.733 165.73 338.845 162.774 342.228 152.734C344.487 146.032 346.524 145.256 344.994 142.745C344.084 141.252 339.649 139.607 337.767 141.902C336.587 143.343 333.476 146.454 331.791 146.847C329.635 145.403 329.971 144.844 329.971 142.979C333.158 142.979 338.714 135.959 344.89 136.932C351.58 137.986 350.017 130.466 345.213 130.466C341.235 130.466 335.573 137.063 325.193 137.063C323.972 137.063 324.354 135.501 324.116 134.5C323.205 130.669 317.51 125.808 314.114 132.127C311.445 137.095 313.245 137.291 310.405 137.291C310.405 127.554 323.114 129.951 317.502 123.141C316.396 121.798 313.882 121.419 311.375 119.03C310.797 118.478 310.974 118.393 310.177 118.18C310.021 118.457 309.949 118.423 309.949 118.862V118.866ZM335.43 125.919C335.43 129.251 326.577 132.113 328.407 133.02C329.618 133.62 335.02 130.468 336.575 129.567C342.83 125.934 344.303 129.224 344.303 124.554C344.303 119.626 337.213 119.777 331.335 119.777C331.545 122.303 335.43 125.01 335.43 125.919Z" fill="#009846"/>
<path fill-rule="evenodd" clip-rule="evenodd" d="M259.441 147.531C256.56 147.531 261.003 142.32 261.033 142.298C260.612 144.535 260.475 147.531 259.441 147.531ZM262.627 124.326H263.081V125.009C262.21 124.403 262.986 125.01 262.627 124.326ZM246.928 130.923C262.405 130.923 249.961 121.786 249.932 121.777C248.85 121.438 248.658 122.115 248.095 122.762C246.24 124.894 236.958 129.001 233.249 130.212C231.177 130.888 231.47 130.486 231.232 131.379C234.083 131.379 234.417 131.979 238.844 131.257C243.188 130.518 241.975 130.384 245.791 130.47V130.925C243.262 130.981 243.517 132.794 243.517 136.158C241.103 137.435 237.186 139.244 234.263 140.783C226.094 145.085 228.72 144.506 225.088 142.072C223.325 145.404 226.278 152.008 235.24 150.405C238.894 149.751 239.38 146.464 242.606 145.712C242.567 147.46 241.058 149.681 240.204 150.818C235.957 156.475 232.763 152.979 232.371 158.011C232.195 160.278 233.169 162.85 234.416 163.685C235.644 164.004 239.462 159.716 240.786 159.363C240.786 162.657 240.651 168.97 243.971 171.193C245.65 170.068 246.324 167.661 245.888 164.727C245.503 162.13 245.534 159.046 245.554 156.167C245.583 151.982 252.746 147.442 251.479 144.802C250.037 144.959 250.935 145.918 249.204 147.076C249.126 143.576 246.873 144.244 247.984 141.769C248.784 139.987 250.405 138.805 252.162 138.659C253.056 140.522 253.642 140.963 253.645 142.295C253.658 145.783 250.737 144.02 252.062 150.588C253.087 155.665 256.237 153.443 256.483 150.49C257.28 150.49 258.472 150.699 258.986 150.944C257.721 156.373 251.721 160.642 246.473 161.865C246.736 165.034 262.625 163.394 262.625 152.992C267.157 156.026 270.694 169.301 288.054 166.363C294.803 165.22 279.28 159.167 276.123 157.468C268.833 153.544 268.888 151.502 263.536 148.671C263.536 147.056 264.928 141.183 265.356 139.343C266.074 139.535 269.309 142.085 270.822 142.977C273.949 144.821 279.64 144.075 275.502 138.751C273.528 136.211 272.169 137.212 269.37 135.783C268.218 135.193 267.476 134.538 266.493 133.881C266.545 131.544 268.356 126.01 266.724 122.048C265.715 119.601 263.241 117.71 260.962 119.932C259.659 121.201 261.215 125.62 261.845 127.836C263.079 132.185 263.035 130.901 262.329 136.315C261.974 139.046 262.253 139.392 257.62 141.844C257.467 139.997 254.993 138.599 253.298 138.205C253.298 136.298 253.239 136.847 252.032 136.057C251.303 135.58 249.207 132.906 246.927 130.923H246.928Z" fill="#009846"/>
<path fill-rule="evenodd" clip-rule="evenodd" d="M178.222 155.039C182.189 154.115 178.34 157.208 185.805 153.064C186.789 152.518 187.454 151.893 187.726 153.251C188.621 157.719 187.382 163.222 187.322 165.959C184.67 165.9 187.337 163.592 182.436 164.723C180.214 165.103 180.041 164.795 180.041 162.319C182.794 162.09 183.936 160.683 185.406 160.405C186.623 160.173 187.094 160.575 187.094 159.362C187.094 158.645 186.193 156.177 183.908 156.177C182.582 156.177 181.57 157.719 179.358 157.769C179.276 156.781 178.654 155.685 178.221 155.038L178.222 155.039ZM182.316 145.484C183.605 145.484 187.328 146.864 188.231 148.214C186.422 148.174 184.756 147.247 181.369 149.999C179.949 151.154 174.077 157.991 178.674 149.123C179.881 146.796 180.493 145.485 182.315 145.485L182.316 145.484ZM181.406 116.59L181.634 118.182C183.413 118.143 182.513 117.536 184.136 117.499C184.136 119.154 183.188 124.343 181.951 125.096C179.491 126.596 175.752 127.282 172.534 127.282C172.578 129.273 176.943 132.688 177.994 132.969L175.193 134.945C172.56 136.185 172.306 134.662 172.306 138.203C172.306 140.176 175.218 140.766 176.174 142.07C174.169 143.131 170.86 145.484 167.984 145.484C167.573 145.484 166.392 144.563 166.392 147.304C166.392 149.47 167.448 149.268 168.325 149.693C171.596 151.275 170.354 150.943 173.671 149.351C173.305 150.926 168.764 157.504 167.203 159.492C164.593 162.812 162.407 165.168 158.813 167.712C158.33 168.055 157.846 168.227 157.802 168.753C157.667 170.361 160.291 168.266 161.873 168.04C167.154 167.281 171.861 160.317 175.037 155.95C175.037 161.144 174.583 164.958 176.863 168.911C180.29 174.853 179.808 169.145 184.819 169.145C186.076 169.145 187.357 177.842 190.328 175.583C191.907 174.382 193.692 168.866 193.692 165.732C193.692 160.104 193.239 158.902 193.692 153.447C196.712 155.66 200.008 167.552 215.306 167.552C217.364 167.552 219.935 164.344 212.086 161.217C208.742 159.884 202.694 156.391 199.651 154.314C196.149 151.925 195.667 151.185 193.106 147.889C191.425 145.724 188.436 143.796 188.006 143.208C190.445 142.036 197.561 144.247 197.561 141.388C197.561 139.082 192.371 138.807 190.692 138.68C189.168 138.565 189.168 139.114 188.688 140.022H187.096L191.941 135.995C195.371 133.34 191.788 131.389 188.916 131.149C189.449 129.152 195.287 128.59 195.287 125.916C195.287 124.048 191.596 122.048 189.599 122.048C189.038 122.048 188.609 122.737 187.779 122.959C187.863 119.191 191.637 114.086 184.594 114.086C182.818 114.086 181.408 115.9 181.408 116.589L181.406 116.59Z" fill="#009846"/>
<path fill-rule="evenodd" clip-rule="evenodd" d="M397.54 157.771C397.398 159.484 394.713 162.11 393.508 163.294C392.173 164.606 382.907 166.189 380.022 166.189C378.813 167.583 379.535 168.951 380.514 170.475C382.694 173.872 386.344 171.072 391.446 169.649C408.397 164.921 410.366 169.367 416.447 170.051C422.733 170.757 419.177 162.312 410.964 162.321C407.655 162.325 403.071 163.004 401.636 163.004C402.733 158.898 412.318 155.845 407.004 151.721C400.396 146.593 402.528 153.449 392.309 153.449C392.982 151.589 410.817 146.147 412.123 143.67C413.948 140.211 406.647 138.771 406.444 137.928C406.047 136.284 408.203 136.227 407.552 133.429C411.391 135.46 421.882 134.062 423.172 132.213C425.276 129.199 421.253 126.585 420.031 125.044C416.863 121.049 409.558 124.101 402.091 124.101C402.091 116.979 394.812 116.11 392.469 115.065C387.14 112.691 393.831 121.204 394.414 121.767C395.979 123.275 395.445 123.08 395.266 125.238C392.679 125.238 384.204 127.718 383.208 127.741C380.338 121.761 378.778 123.915 378.945 124.892C379.185 126.284 380.867 128.012 376.748 133.339C375.586 134.842 375.35 133.431 374.654 138.299C373.709 144.914 378.36 150.665 383.512 132.596C385.114 126.98 386.211 133.225 393.508 130.078C397.562 128.33 411.774 125.136 414.831 126.604C414.574 129.687 407.469 131.585 406.412 132.291C403.651 128.169 396.708 129.193 399.87 132.917C401.876 135.278 398.903 142.74 403.227 143.895C402.748 145.686 393.116 151.191 390.934 152.306C385.292 155.191 389.53 160.264 393.725 159.208C395.077 158.868 396.154 157.888 397.538 157.772L397.54 157.771ZM389.578 137.295C389.578 138.389 387.336 141.6 386.466 141.919C385.574 142.245 383.434 141.248 383.434 147.078C383.434 154.167 396.777 141.09 396.311 138.525C396.208 137.954 393.686 132.196 389.35 131.834C387.779 134.179 389.578 135.218 389.578 137.294V137.295Z" fill="#009846"/>
<path fill-rule="evenodd" clip-rule="evenodd" d="M324.738 193.942H323.373V187.116C323.373 186.332 323.541 186.236 323.601 185.524C327.115 185.524 328.834 185.518 328.834 190.302C328.834 192.697 327.17 193.942 324.739 193.942H324.738ZM315.865 185.069C316.993 185.069 318.595 185.154 318.595 186.889V201.676C318.595 203.219 317.381 203.69 315.865 203.724V204.861H326.33V203.724C322.575 203.641 323.373 201.122 323.373 195.534C325.463 195.58 326.477 197.908 327.73 199.594C328.312 200.378 330.922 204.162 331.108 204.861H355.224C355.224 202.874 355.006 200.628 355.452 198.719H353.86C353.806 201.136 351.783 203.269 349.309 203.269C347.883 203.269 345.773 203.528 344.98 201.91C344.241 200.399 344.531 190.47 344.531 188.254C344.531 185.892 345.069 185.069 347.488 185.069V183.931H337.023V185.069C339.01 185.069 339.664 185.419 339.906 187.543C340.135 189.561 340.204 201.346 339.577 202.638C338.993 203.844 337.284 203.861 336.182 203.205C335.146 202.588 334.464 201.345 333.796 200.355C332.377 198.254 330.431 196.103 329.288 194.398C332.049 194.168 334.501 191.644 333.857 188.247C333.27 185.158 330.655 183.931 327.014 183.931H315.866V185.069H315.865ZM205.979 193.942H204.614V188.026C204.614 186.763 204.842 186.677 204.842 185.523C208.689 185.523 210.075 185.564 210.075 190.528C210.075 192.925 208.242 193.942 205.98 193.942H205.979ZM197.106 185.069C198.209 185.069 199.063 185.111 199.535 185.824C200.384 187.105 200.38 201.466 199.582 202.788C199.152 203.499 198.166 203.701 197.106 203.724V204.861H207.571V203.724C203.867 203.641 204.614 201.039 204.614 195.534C206.716 195.58 208.159 198.349 209.164 199.856C209.697 200.655 212.202 204.861 213.032 204.861H228.958V203.724C226.643 203.672 226.001 202.897 226.001 200.539V188.254C226.001 185.892 226.539 185.069 228.958 185.069V183.931H218.493V185.069C220.967 185.069 221.45 185.818 221.45 189.163C221.45 192.062 221.629 199.414 221.226 201.908C220.862 204.161 217.945 204.538 215.893 201.545C215.426 200.862 215.178 200.438 214.692 199.789C213.982 198.841 210.975 195.214 210.757 194.396C217.489 192.828 216.846 183.931 208.709 183.931H197.107V185.069H197.106ZM292.887 189.846L295.389 196.671H290.156C290.571 195.623 292.505 190.394 292.887 189.846ZM283.559 204.179V204.861H290.839C290.839 202.981 290.577 203.767 289.368 203.375C287.17 202.661 289.119 200.02 289.246 198.492H296.071C296.359 199.728 297.208 200.89 297.208 202.36C297.208 204.414 294.706 202.136 294.706 204.863H314.954V203.725C312.639 203.674 311.997 202.898 311.997 200.54V188.255C311.997 185.455 313.027 185.07 314.954 185.07V183.932H304.489V185.07C306.944 185.07 307.447 185.662 307.447 189.164V200.085C307.447 205.477 303.463 203.332 303.017 202.923C302.116 202.099 300.693 198.026 300.193 196.646C298.581 192.195 296.834 187.885 295.162 183.477H293.57C293.163 185.222 286.717 201.444 285.778 202.531C285.479 202.879 285.139 203.106 284.723 203.296C283.434 203.884 283.559 203.295 283.559 204.18V204.179ZM367.282 185.069C368.947 185.207 370.467 186.506 370.467 188.026C370.467 191.424 370.644 198.537 370.218 201.655C370.044 202.927 369.247 203.496 367.737 203.496V204.861H374.79C374.79 202.33 373.524 204.434 372.433 202.213C371.742 200.803 372.059 191.358 372.059 189.391L383.987 203.4C385.745 205.638 385.277 205.317 387.075 205.317C387.075 202.753 386.789 188.098 387.509 186.414C388.367 184.41 389.805 186.407 389.805 183.931H382.752V185.069C385.533 185.3 385.487 187.104 385.483 190.074C385.479 192.652 385.483 195.231 385.483 197.809C384.402 197.087 379.122 190.411 378.047 189.093C377.442 188.342 374.285 183.931 373.424 183.931H367.282V185.069ZM229.867 185.069C231.682 185.22 232.825 186.75 232.825 187.343V200.993C232.825 204.858 230.094 201.983 230.094 204.861H237.374C237.374 202.371 236.638 204.562 235.153 202.533C233.981 200.93 234.417 191.772 234.417 189.163C235.398 189.821 245.151 201.774 246.527 203.444C248.139 205.426 247.724 205.317 249.659 205.317V188.936C249.659 186.504 250.104 185.259 252.389 185.069V183.931H245.11V185.069C247.912 185.132 248.078 187.203 248.068 190.072C248.058 192.726 248.067 195.382 248.067 198.036L242.222 191.141L237.191 185.023C236.657 184.421 236.684 184.759 236.463 183.931H229.866V185.069H229.867ZM254.439 194.851C254.439 199.162 256.841 203.33 260.854 204.589C267.211 206.583 269.887 203.138 274.233 203.041C274.233 198.308 273.622 197.18 276.053 197.126V195.76H267.634C267.11 195.76 266.952 195.919 266.952 196.443C266.952 197.782 269.454 196.52 269.454 198.946C269.454 202.273 269.032 203.496 265.132 203.496C257.815 203.496 258.187 185.295 265.36 185.295C268.861 185.295 270.691 187.043 271.502 190.528H272.867L272.639 183.703H271.274C271.103 184.439 270.888 184.702 270.82 185.523C269.918 184.92 269.656 184.624 268.517 184.186C261.499 181.484 254.439 187.018 254.439 194.851ZM390.944 185.069C392.154 185.069 393.048 185.158 393.459 185.967C394.185 187.395 394.064 201.147 393.557 202.471C393.201 203.404 392.115 203.699 390.944 203.724V204.861H408.69V198.719H407.325C407.325 201.39 405.427 203.269 402.774 203.269C397.769 203.269 398.452 201.575 398.452 194.851C400.977 194.851 402.485 195.487 402.546 198.264H403.912V189.846C401.57 189.846 403.191 190.721 401.937 192.193C401.007 193.284 399.782 193.259 398.452 193.259V186.206C398.452 185.176 399.62 185.523 402.092 185.523C406.312 185.523 405.434 189.618 406.869 189.618C408.189 189.618 407.323 186.517 407.323 183.93H390.943V185.067L390.944 185.069ZM187.325 193.714H185.959V186.206C185.959 185.344 186.491 185.523 187.779 185.523C192.448 185.523 192.521 193.714 187.325 193.714ZM178.452 185.069C180.321 185.069 181.182 185.715 181.182 187.571V201.221C181.182 203.155 180.201 203.578 178.452 203.724V204.861H188.917V203.724C185.105 203.64 185.959 201.425 185.959 195.306C189.379 195.306 192.986 195.544 195.262 192.778C197.006 190.657 197.23 183.931 189.145 183.931H178.452V185.069ZM162.981 188.936C162.981 192.385 163.845 194.128 167.534 195.759C169.619 196.681 172.992 197.651 172.992 200.54C172.992 203.238 169.789 204.224 167.526 203.277C166.363 202.791 165.848 202.152 165.158 201.094C163.711 198.874 164.669 198.039 163.208 198.039C162.684 198.039 162.525 198.197 162.525 198.721C162.525 205.41 162.014 204.864 164.117 204.864C164.14 203.864 164.271 204.155 164.345 203.272C165.193 203.499 167.56 206.191 172.12 204.904C176.124 203.774 176.858 201.237 176.858 197.812C176.858 191.472 166.62 192.177 166.62 187.574C166.62 183.618 173.943 184.662 174.356 189.622H175.721V183.934H174.129C174.077 184.548 174.022 184.552 173.901 185.071C172.637 184.225 172.784 184.058 170.917 183.73C167.092 183.057 162.98 184.993 162.98 188.938L162.981 188.936ZM410.738 189.164C410.738 192.552 411.647 193.92 414.98 195.615C417.115 196.702 419.841 197.17 420.547 199.621C421.805 203.992 413.627 206.534 411.649 198.037C409.805 198.037 410.283 197.775 410.283 204.18C410.283 205.049 411.913 205.562 412.103 203.269C413.099 203.535 414.81 206.13 419.85 204.873C422.253 204.273 424.616 202.061 424.616 199.401V198.264C424.616 191.309 414.378 191.889 414.378 188.026C414.378 187.167 414.267 186.394 415.406 185.64C417.854 184.021 421.233 185.838 422.114 189.618H423.479L423.251 183.93H421.886C421.765 184.449 421.709 184.453 421.658 185.067C416.637 181.706 410.737 184.329 410.737 189.162L410.738 189.164ZM355.909 185.07C356.785 185.07 357.467 185.085 358.001 185.48C358.414 185.786 358.866 186.661 358.866 187.344V200.995C358.866 203.062 357.918 203.68 355.909 203.725V204.863H366.374V203.725C364.894 203.602 363.643 203.298 363.643 201.677V187.116C363.643 185.584 364.806 185.069 366.374 185.069V183.931H355.909V185.069V185.07Z" fill="#009846"/>
</svg>
