<svg width="480" height="320" viewBox="0 0 480 320" fill="none" xmlns="http://www.w3.org/2000/svg">
<mask id="mask0_730_18164" style="mask-type:luminance" maskUnits="userSpaceOnUse" x="54" y="62" width="372" height="196">
<path d="M54.9902 62.8516H425.19V257.238H54.9902" fill="white"/>
</mask>
<g mask="url(#mask0_730_18164)">
<path d="M172.66 121.132C173.675 121.757 174.658 122.041 175.609 121.991C177.391 121.876 179.102 120.653 180.742 118.327C181.476 117.285 182.018 116.246 182.367 115.206C183.045 113.203 182.758 111.757 181.503 110.866C180.564 110.199 179.65 110.08 178.761 110.507C177.879 110.948 176.76 111.833 175.404 113.15L172.917 115.591C171.297 117.187 170.006 118.214 169.05 118.676C167.41 119.483 165.869 119.377 164.432 118.356C162.887 117.26 162.073 115.708 161.993 113.703C161.914 111.699 162.715 109.507 164.39 107.127C165.934 104.937 167.678 103.385 169.623 102.469C171.571 101.553 173.497 101.772 175.404 103.126L173.474 105.87C172.47 105.366 171.56 105.167 170.746 105.272C169.264 105.487 167.806 106.61 166.379 108.635C165.227 110.272 164.687 111.655 164.761 112.78C164.838 113.907 165.252 114.738 166.011 115.277C166.858 115.878 167.772 115.892 168.76 115.319C169.395 114.934 170.592 113.899 172.353 112.209L174.944 109.681C176.197 108.463 177.326 107.639 178.332 107.208C180.06 106.46 181.689 106.627 183.22 107.712C185.122 109.061 185.885 110.871 185.517 113.14C185.147 115.405 184.176 117.658 182.603 119.889C180.769 122.493 178.788 124.143 176.661 124.842C174.543 125.549 172.564 125.229 170.726 123.878L172.66 121.132ZM211.278 72.5643L215.265 71.7466L224.697 80.1984L230.062 68.718L234.049 67.9023L226.933 82.2586L228.627 90.6016L225.139 91.3169L223.444 82.9718L211.278 72.5643ZM248.725 68.5298L252.209 69.266L250.093 79.366L264.921 71.9494L269.778 72.9722L257.145 79.0334L265.235 93.6113L260.891 92.7852L254.202 80.4494L249.384 82.7605L247.871 89.9658L244.389 89.2317L248.725 68.5298ZM282.442 78.4583L298.48 89.2212L297.095 91.3023L284.015 82.5221L280.415 87.9308L292.49 96.0333L291.103 98.1102L279.029 90.0097L275.074 95.9497L288.332 104.847L286.947 106.928L270.73 96.0459L282.442 78.4583ZM196.144 81.4533C195.343 81.6959 194.404 82.2376 193.327 83.0743L187.759 87.3953L192.201 93.1617L197.769 88.8406C199.024 87.8659 199.877 86.8599 200.329 85.8204C200.781 84.783 200.588 83.7226 199.752 82.635C198.808 81.4094 197.604 81.0141 196.144 81.4533ZM183.419 87.6045L192.726 80.3783C194.565 78.9498 196.38 78.2177 198.173 78.1738C199.965 78.1341 201.448 78.8766 202.625 80.4034C203.64 81.721 204.014 83.2646 203.744 85.0256C203.477 86.793 202.303 88.4829 200.222 90.0955L193.728 95.1403L199.131 102.147L196.313 104.335L183.419 87.6045ZM309.46 115.869L304.209 108.34L310.188 104.138L315.369 111.565C315.369 111.565 318.199 115.982 315.254 117.785C312.307 119.588 309.46 115.869 309.46 115.869ZM308.344 118.168C308.306 117.331 312.577 123.61 317.099 120.433C321.619 117.252 317.988 111.396 317.988 111.396L310.255 100.308L292.812 112.569L294.583 115.108L302.385 109.622L305.535 114.14C307.637 117.154 303.276 127.569 303.276 127.569L305.401 130.621C305.403 130.621 308.643 124.449 308.344 118.168ZM155.6 184.471L155.606 184.505L169.981 180.776L170.249 181.813L153.508 186.159L153.184 184.894L166.367 176.726L166.358 176.695L152.029 180.414L151.762 179.372L168.5 175.028L168.835 176.325L155.6 184.471ZM171.012 184.059L171.412 185.057L159.781 189.767C157.515 190.685 156.38 191.572 157.076 193.306C157.798 195.098 159.475 194.883 161.636 194.009L173.139 189.349L173.539 190.344L162.378 194.864C159.258 196.129 156.848 196.32 155.849 193.837C154.962 191.628 156.282 190.024 159.21 188.838L171.012 184.059ZM159.657 201.339L174.668 192.724L175.199 193.657L161.349 201.607L163.621 205.596L162.462 206.261L159.657 201.339ZM164.516 209.524L178.707 199.606L179.318 200.488L166.225 209.639L168.841 213.408L167.743 214.175L164.516 209.524ZM178.291 216.415L183.787 209.402L183.766 209.377L176.12 213.928L178.291 216.415ZM185.611 208.612L174.789 222.552L174.074 221.732L177.437 217.473L174.963 214.639L170.297 217.404L169.613 216.62L184.797 207.681L185.611 208.612ZM193.416 218.808L194.464 217.344L199.877 221.253L198.829 222.719L196.556 221.077L187.506 233.699L186.638 233.072L195.688 220.45L193.416 218.808ZM193.247 237.59L201.801 222.508L207.07 225.503L206.219 227.015L201.885 224.553L198.99 229.634L202.968 231.895L202.228 233.248L198.25 230.989L195 236.743L199.407 239.246L198.585 240.627L193.247 237.59ZM208.486 242.377L208.517 242.392L214.288 228.657L215.273 229.075L208.553 245.067L207.354 244.559L208.89 229.086L208.858 229.071L203.107 242.76L202.121 242.344L208.839 226.35L210.069 226.871L208.486 242.377ZM218.4 241.16L219.257 232.279L219.228 232.269L215.235 240.244L218.4 241.16ZM220.37 230.625L218.749 248.223L217.705 247.922L218.249 242.515L214.643 241.469L212.198 246.326L211.201 246.035L219.182 230.284L220.37 230.625ZM229.849 244.241C229.418 247.171 227.822 250.285 225.383 249.88C221.857 249.294 222.813 243.473 223.411 239.842C223.99 236.326 225.132 231.401 228.368 231.936C230.562 232.3 231.265 234.927 230.802 237.828L229.746 237.655C229.985 235.605 229.759 233.526 228.117 233.254C225.549 232.829 224.791 238.05 224.413 240.357C223.98 242.982 223.032 248.127 225.716 248.572C227.536 248.873 228.399 246.154 228.793 244.063L229.849 244.241ZM232.624 250.4L233.427 233.062L234.498 233.112L233.693 250.45L232.624 250.4ZM246.192 250.48L244.464 233.21L245.531 233.101L247.256 250.373L246.192 250.48ZM255.907 246.822L255.938 246.813L253.487 232.116L254.543 231.938L257.398 249.058L256.118 249.273L249.158 235.379L249.124 235.383L251.569 250.036L250.513 250.214L247.656 233.095L248.972 232.873L255.907 246.822ZM256.769 231.637L257.844 231.315L264.884 245.266L264.917 245.255L263.238 229.696L264.231 229.397L266.043 246.968L264.894 247.315L256.769 231.637ZM273.135 244.471L266.36 228.506L267.343 228.086L274.12 244.053L273.135 244.471ZM278.715 234.505L273.306 227.421L273.275 227.44L275.774 236L278.715 234.505ZM272.993 225.455L283.77 239.43L282.802 239.922L279.527 235.599L276.178 237.305L277.692 242.528L276.766 243L271.893 226.017L272.993 225.455ZM297.53 216.976C299.547 216.394 301.044 215.951 303.32 218.12C305.476 220.174 305.892 222.489 304.407 224.06C302.851 225.701 300.415 225.015 298.225 222.859L298.951 222.092C300.513 223.602 302.259 224.38 303.426 223.146C304.458 222.056 304.169 220.412 302.615 218.929C300.728 217.128 299.499 217.823 297.953 218.312C296.14 218.883 294.571 219.03 292.563 217.116C290.528 215.171 289.934 212.941 291.319 211.479C292.647 210.078 294.872 210.448 296.811 212.364L296.098 213.119C294.755 211.747 293.23 211.408 292.277 212.414C291.31 213.433 291.865 214.968 293.234 216.273C294.473 217.455 295.228 217.628 296.472 217.289L297.53 216.976ZM296.907 209.013L295.573 208.003L299.605 202.672L300.938 203.678L299.245 205.916L311.69 215.397L311.044 216.252L298.599 206.771L296.907 209.013ZM305.001 194.071L305.457 193.047L320.583 196.78L320.598 196.751L307.752 187.883L308.174 186.931L322.629 197.008L322.139 198.11L305.001 194.071ZM325.463 189.955L308.936 184.856L309.249 183.829L325.776 188.928L325.463 189.955ZM321.209 179.328L312.334 178.807L312.328 178.841L320.418 182.539L321.209 179.328ZM310.644 177.76L328.224 178.705L327.964 179.765L322.562 179.427L321.658 183.087L326.586 185.352L326.337 186.362L310.349 178.962L310.644 177.76ZM294.04 232.739L283.314 219.126L288.052 215.342L289.131 216.702L285.232 219.816L288.842 224.411L292.419 221.554L293.393 222.752L289.817 225.607L293.912 230.788L297.876 227.624L298.844 228.904L294.04 232.739Z" fill="black"/>
</g>
<mask id="mask1_730_18164" style="mask-type:luminance" maskUnits="userSpaceOnUse" x="54" y="62" width="372" height="196">
<path d="M54.9902 62.8516H425.19V257.238H54.9902" fill="white"/>
</mask>
<g mask="url(#mask1_730_18164)">
<path d="M247.959 151.039C247.959 151.039 257.319 157.084 269.031 155.536M232.296 169.005C232.296 169.005 223.011 162.99 211.297 164.542" stroke="black" stroke-width="5.17652"/>
</g>
<mask id="mask2_730_18164" style="mask-type:luminance" maskUnits="userSpaceOnUse" x="54" y="62" width="372" height="196">
<path d="M54.9902 62.8516H425.19V257.238H54.9902" fill="white"/>
</mask>
<g mask="url(#mask2_730_18164)">
<path d="M182.229 138.991C181.681 141.568 184.705 144.672 187.428 145.081L215.524 149.285C215.524 149.285 223.394 149.285 228.813 146.098C234.274 142.881 236.464 142.574 238.855 142.574C243.14 142.574 245.828 143.128 249.616 145.663C252.556 147.629 257.344 149.285 261.893 149.432C266.097 149.566 294.278 145.207 294.278 145.207C294.278 145.207 299.883 142.344 297.51 137.19C295.042 131.844 280.589 98.8274 240.472 98.5409C198.392 98.2418 183.099 134.892 182.229 138.991V138.991Z" stroke="black" stroke-width="7.44059"/>
</g>
<mask id="mask3_730_18164" style="mask-type:luminance" maskUnits="userSpaceOnUse" x="54" y="62" width="372" height="196">
<path d="M54.9902 62.8516H425.19V257.238H54.9902" fill="white"/>
</mask>
<g mask="url(#mask3_730_18164)">
<path d="M194.934 146.05L182.23 138.989L224.9 147.096L210.981 105.562L238.974 142.336" stroke="black" stroke-width="3.63925"/>
</g>
<mask id="mask4_730_18164" style="mask-type:luminance" maskUnits="userSpaceOnUse" x="54" y="62" width="372" height="196">
<path d="M54.9902 62.8516H425.19V257.238H54.9902" fill="white"/>
</mask>
<g mask="url(#mask4_730_18164)">
<path d="M236.811 142.491L254.875 100.391L251.497 146.475" stroke="black" stroke-width="3.63925"/>
</g>
<mask id="mask5_730_18164" style="mask-type:luminance" maskUnits="userSpaceOnUse" x="54" y="62" width="372" height="196">
<path d="M54.9902 62.8516H425.19V257.238H54.9902" fill="white"/>
</mask>
<g mask="url(#mask5_730_18164)">
<path d="M248.87 145.078L291.326 125.872L266.899 149.05M213.048 148.722L188.969 125.742L230.488 144.919" stroke="black" stroke-width="3.63925"/>
</g>
<mask id="mask6_730_18164" style="mask-type:luminance" maskUnits="userSpaceOnUse" x="54" y="62" width="372" height="196">
<path d="M54.9902 62.8516H425.19V257.238H54.9902" fill="white"/>
</mask>
<g mask="url(#mask6_730_18164)">
<path d="M228.493 145.588L225.262 100.402L243.37 142.63" stroke="black" stroke-width="3.63925"/>
</g>
<mask id="mask7_730_18164" style="mask-type:luminance" maskUnits="userSpaceOnUse" x="54" y="62" width="372" height="196">
<path d="M54.9902 62.8516H425.19V257.238H54.9902" fill="white"/>
</mask>
<g mask="url(#mask7_730_18164)">
<path d="M241.516 141.91L269.18 105.551L255.062 147.636" stroke="black" stroke-width="3.63925"/>
</g>
<mask id="mask8_730_18164" style="mask-type:luminance" maskUnits="userSpaceOnUse" x="54" y="62" width="372" height="196">
<path d="M54.9902 62.8516H425.19V257.238H54.9902" fill="white"/>
</mask>
<g mask="url(#mask8_730_18164)">
<path d="M253.653 147.46L297.529 139.22L285.003 146.607M220.314 148.065L198.832 114.473L234.766 143.104" stroke="black" stroke-width="3.63925"/>
</g>
<mask id="mask9_730_18164" style="mask-type:luminance" maskUnits="userSpaceOnUse" x="54" y="62" width="372" height="196">
<path d="M54.9902 62.8516H425.19V257.238H54.9902" fill="white"/>
</mask>
<g mask="url(#mask9_730_18164)">
<path d="M232.484 143.484L240.137 98.4453L247.504 143.865" stroke="black" stroke-width="3.63925"/>
</g>
<mask id="mask10_730_18164" style="mask-type:luminance" maskUnits="userSpaceOnUse" x="54" y="62" width="372" height="196">
<path d="M54.9902 62.8516H425.19V257.238H54.9902" fill="white"/>
</mask>
<g mask="url(#mask10_730_18164)">
<path d="M245.793 143.107L281.537 114.098L259.294 149.024" stroke="black" stroke-width="3.63925"/>
</g>
<mask id="mask11_730_18164" style="mask-type:luminance" maskUnits="userSpaceOnUse" x="54" y="62" width="372" height="196">
<path d="M54.9902 62.8516H425.19V257.238H54.9902" fill="white"/>
</mask>
<g mask="url(#mask11_730_18164)">
<path d="M182.143 181.537C181.593 178.954 184.624 175.846 187.351 175.436L215.486 171.224C215.486 171.224 223.369 171.224 228.795 174.417C234.266 177.638 236.46 177.946 238.851 177.946C243.145 177.946 245.837 177.389 249.628 174.854C252.578 172.882 257.371 171.224 261.925 171.077C266.133 170.945 294.356 175.312 294.356 175.312C294.356 175.312 299.974 178.176 297.593 183.34C295.123 188.696 280.646 221.761 240.468 222.048C198.334 222.347 183.016 185.64 182.143 181.537V181.537Z" stroke="black" stroke-width="7.44059"/>
</g>
<mask id="mask12_730_18164" style="mask-type:luminance" maskUnits="userSpaceOnUse" x="54" y="62" width="372" height="196">
<path d="M54.9902 62.8516H425.19V257.238H54.9902" fill="white"/>
</mask>
<g mask="url(#mask12_730_18164)">
<path d="M194.869 174.466L182.145 181.537L224.879 173.418L210.936 215.012L238.969 178.187" stroke="black" stroke-width="3.63925"/>
</g>
<mask id="mask13_730_18164" style="mask-type:luminance" maskUnits="userSpaceOnUse" x="54" y="62" width="372" height="196">
<path d="M54.9902 62.8516H425.19V257.238H54.9902" fill="white"/>
</mask>
<g mask="url(#mask13_730_18164)">
<path d="M236.809 178.03L254.898 220.195L251.516 174.039" stroke="black" stroke-width="3.63925"/>
</g>
<mask id="mask14_730_18164" style="mask-type:luminance" maskUnits="userSpaceOnUse" x="54" y="62" width="372" height="196">
<path d="M54.9902 62.8516H425.19V257.238H54.9902" fill="white"/>
</mask>
<g mask="url(#mask14_730_18164)">
<path d="M248.882 175.439L291.402 194.675L266.938 171.461M213.008 171.787L188.891 194.802L230.474 175.598" stroke="black" stroke-width="3.63925"/>
</g>
<mask id="mask15_730_18164" style="mask-type:luminance" maskUnits="userSpaceOnUse" x="54" y="62" width="372" height="196">
<path d="M54.9902 62.8516H425.19V257.238H54.9902" fill="white"/>
</mask>
<g mask="url(#mask15_730_18164)">
<path d="M228.476 174.93L225.238 220.184L243.374 177.893" stroke="black" stroke-width="3.63925"/>
</g>
<mask id="mask16_730_18164" style="mask-type:luminance" maskUnits="userSpaceOnUse" x="54" y="62" width="372" height="196">
<path d="M54.9902 62.8516H425.19V257.238H54.9902" fill="white"/>
</mask>
<g mask="url(#mask16_730_18164)">
<path d="M241.52 178.612L269.224 215.023L255.085 172.875" stroke="black" stroke-width="3.63925"/>
</g>
<mask id="mask17_730_18164" style="mask-type:luminance" maskUnits="userSpaceOnUse" x="54" y="62" width="372" height="196">
<path d="M54.9902 62.8516H425.19V257.238H54.9902" fill="white"/>
</mask>
<g mask="url(#mask17_730_18164)">
<path d="M253.674 173.05L297.615 181.301L285.072 173.903M220.287 172.441L198.77 206.084L234.758 177.411" stroke="black" stroke-width="3.63925"/>
</g>
<mask id="mask18_730_18164" style="mask-type:luminance" maskUnits="userSpaceOnUse" x="54" y="62" width="372" height="196">
<path d="M54.9902 62.8516H425.19V257.238H54.9902" fill="white"/>
</mask>
<g mask="url(#mask18_730_18164)">
<path d="M232.475 177.031L240.14 222.141L247.517 176.648" stroke="black" stroke-width="3.63925"/>
</g>
<mask id="mask19_730_18164" style="mask-type:luminance" maskUnits="userSpaceOnUse" x="54" y="62" width="372" height="196">
<path d="M54.9902 62.8516H425.19V257.238H54.9902" fill="white"/>
</mask>
<g mask="url(#mask19_730_18164)">
<path d="M245.805 177.414L281.601 206.471L259.322 171.488" stroke="black" stroke-width="3.63925"/>
</g>
<mask id="mask20_730_18164" style="mask-type:luminance" maskUnits="userSpaceOnUse" x="54" y="62" width="372" height="196">
<path d="M54.9902 62.8516H425.19V257.238H54.9902" fill="white"/>
</mask>
<g mask="url(#mask20_730_18164)">
<path d="M240.094 171.949C246.667 171.949 251.995 166.599 251.995 160C251.995 153.4 246.667 148.051 240.094 148.051C233.522 148.051 228.193 153.4 228.193 160C228.193 166.599 233.522 171.949 240.094 171.949Z" stroke="black" stroke-width="5.17652"/>
</g>
<mask id="mask21_730_18164" style="mask-type:luminance" maskUnits="userSpaceOnUse" x="54" y="62" width="372" height="196">
<path d="M54.9902 62.8516H425.19V257.238H54.9902" fill="white"/>
</mask>
<g mask="url(#mask21_730_18164)">
<path d="M233.402 150.285L246.748 169.748L244.234 171.166L241.095 171.717L238.428 171.637L235.837 170.851L234.032 169.826L246.589 150.048L244.234 148.63L241.881 148.078H239.683L237.251 148.317L235.207 149.182L233.402 150.285Z" fill="black"/>
</g>
<mask id="mask22_730_18164" style="mask-type:luminance" maskUnits="userSpaceOnUse" x="54" y="62" width="372" height="196">
<path d="M54.9902 62.8516H425.19V257.238H54.9902" fill="white"/>
</mask>
<g mask="url(#mask22_730_18164)">
<path d="M334.271 174.67C327.237 220.537 287.753 255.658 240.096 255.658C192.2 255.658 152.557 220.183 145.816 173.981M145.938 145.192C153.028 99.3956 192.482 64.3438 240.094 64.3438C287.894 64.3438 327.474 99.6738 334.334 145.74" stroke="black" stroke-width="5.17652"/>
</g>
<mask id="mask23_730_18164" style="mask-type:luminance" maskUnits="userSpaceOnUse" x="54" y="62" width="372" height="196">
<path d="M54.9902 62.8516H425.19V257.238H54.9902" fill="white"/>
</mask>
<g mask="url(#mask23_730_18164)">
<path d="M305.064 170.512C300.047 201.995 272.872 226.048 240.095 226.048C207.003 226.048 179.617 201.525 174.988 169.593M175.122 149.523C180.123 118.025 207.309 93.9492 240.095 93.9492C273.139 93.9492 300.49 118.399 305.181 150.259" stroke="black" stroke-width="5.17652"/>
</g>
<mask id="mask24_730_18164" style="mask-type:luminance" maskUnits="userSpaceOnUse" x="54" y="62" width="372" height="196">
<path d="M54.9902 62.8516H425.19V257.238H54.9902" fill="white"/>
</mask>
<g mask="url(#mask24_730_18164)">
<path d="M423.206 138.775C420.899 132.932 409.45 134.461 407.329 135.289L334.657 146.087L334.454 146.117L305.755 150.252L266.98 155.836C266.98 155.836 258.927 157.963 252.996 163.832C250.821 165.984 248.378 168.58 248.378 168.58C248.378 168.58 258.637 163.524 267.593 164.763C277.523 166.137 305.506 170.669 305.506 170.669L305.541 170.673L334.574 174.796L345.686 176.373C345.686 176.373 381.965 183.325 414.938 153.887C420.966 148.503 424.844 142.927 423.206 138.775V138.775ZM174.217 169.887L213.027 164.296C213.027 164.296 221.079 162.169 227.009 156.3C229.188 154.144 231.627 151.553 231.627 151.553C231.627 151.553 221.368 156.608 212.412 155.37C202.481 153.995 174.499 149.463 174.499 149.463L174.256 149.428L145.437 145.337L134.319 143.76C134.319 143.76 98.0412 136.807 65.0662 166.243C59.0384 171.627 55.1608 177.201 56.7984 181.355C59.1054 187.201 70.5544 185.672 72.6731 184.845L145.318 174.051L145.55 174.016L174.217 169.887Z" stroke="black" stroke-width="5.17652"/>
</g>
</svg>
