<svg width="480" height="320" viewBox="0 0 480 320" fill="none" xmlns="http://www.w3.org/2000/svg">
<path d="M164.395 111.778C164.989 111.441 165.643 111.205 166.325 111.137C165.95 111.728 165.419 112.2 165.061 112.804C164.121 114.311 163.62 116.046 163.271 117.776C162.931 119.417 162.801 121.104 162.283 122.704C161.596 124.966 160.489 127.103 159.016 128.944C157.136 131.258 154.778 133.12 152.324 134.774C149.346 136.824 146.2 138.69 143.622 141.265C141.785 143.105 140.308 145.343 139.503 147.837C137.936 152.44 136.608 157.157 134.422 161.517C132.858 164.666 130.792 167.556 128.318 170.041C125.111 173.306 121.269 175.838 117.352 178.143C108.704 183.138 99.2112 186.494 89.5341 188.782C78.7193 191.294 67.6129 192.492 56.5184 192.475C56.1391 192.483 55.7597 192.465 55.3828 192.422C65.1903 191.084 74.9208 188.781 84.0632 184.9C92.4333 181.376 100.29 176.482 106.851 170.131C108.296 168.73 109.691 167.271 110.987 165.727C113.935 162.142 116.025 157.95 118.017 153.774C119.051 151.622 120.047 149.445 121.256 147.384C123.088 144.258 125.588 141.531 128.559 139.48C132.152 136.979 136.28 135.44 140.364 133.971C142.748 133.112 145.14 132.269 147.477 131.286C149.026 130.624 150.584 129.953 152.007 129.037C154.711 127.328 157.122 125.01 158.503 122.07C159.453 120.084 159.907 117.909 160.717 115.867C159.83 116.272 159.202 117.102 158.909 118.023C158.522 119.229 157.312 119.943 156.128 120.135C156.661 119.668 157.132 119.1 157.332 118.403C157.818 116.809 159.244 115.466 160.936 115.37C161.739 113.888 162.92 112.593 164.395 111.778ZM162.214 114.52C161.826 114.753 161.784 115.379 162.144 115.656C162.534 116.005 163.264 115.715 163.272 115.175C163.338 114.638 162.657 114.206 162.214 114.52Z" fill="#DC001C"/>
<path d="M123.295 138.856C126.261 137.642 129.343 136.746 132.448 135.977C131.905 136.281 131.31 136.469 130.75 136.732C127.239 138.303 124.151 140.734 121.568 143.584C118.669 146.797 116.364 150.517 114.489 154.42C111.881 160.267 107.693 165.329 102.636 169.18C95.5617 174.586 87.0204 177.83 78.2904 179.183C76.4046 179.455 74.5072 179.69 72.6016 179.74C75.0627 178.956 77.5285 178.172 79.9129 177.167C86.3541 174.513 92.3538 170.624 97.119 165.476C99.7923 162.527 102.301 159.408 104.409 156.018C105.542 154.228 106.611 152.391 107.905 150.713C109.396 148.752 111.123 146.987 112.939 145.332C115.965 142.561 119.504 140.381 123.295 138.856Z" fill="#01742F"/>
<path d="M143.941 143.592C144.55 142.515 145.189 141.431 146.043 140.531C145.606 142.532 145.136 144.534 144.96 146.58C144.636 149.787 144.834 153.013 144.947 156.224C145.157 160.041 144.897 163.978 143.418 167.539C141.941 171.061 139.79 174.334 136.943 176.876C133.043 180.339 128.02 182.306 122.925 183.068C120.858 183.364 118.759 183.545 116.672 183.402C117.761 182.695 118.94 182.135 120.057 181.471C123.409 179.55 126.682 177.434 129.535 174.8C132.403 172.147 134.801 168.992 136.706 165.572C138.58 162.211 139.456 158.416 140.311 154.69C141.178 150.894 142.045 147.025 143.941 143.592Z" fill="#FF3C00"/>
<path d="M159.501 140.575C162.498 138.407 166.332 137.854 169.945 137.852C172.742 137.882 175.53 138.338 178.2 139.168C180.268 139.865 182.378 140.909 183.611 142.791C184.564 144.257 184.523 146.085 184.427 147.764C183.79 146.643 183.282 145.403 182.264 144.558C179.424 141.976 175.401 141.223 171.672 141.285C169.204 141.378 166.659 141.643 164.4 142.714C162.866 143.473 161.45 144.807 161.151 146.561C160.818 148.345 161.463 150.165 162.483 151.617C164.486 154.537 167.533 156.538 170.65 158.102C174.321 159.823 178.103 161.462 181.249 164.076C183.194 165.688 184.928 167.723 185.614 170.2C186.589 173.75 185.586 177.698 183.252 180.508C181.511 182.586 179.183 184.114 176.679 185.116C172.458 186.777 167.776 187.177 163.316 186.409C160.101 185.811 156.911 184.488 154.589 182.132C153.109 180.65 152.528 178.496 152.59 176.446C152.651 175.355 152.659 174.206 153.161 173.205C153.309 175.669 154.688 177.952 156.7 179.352C160.261 181.882 164.8 182.625 169.084 182.328C171.406 182.145 173.809 181.519 175.612 179.981C177.507 178.326 178.583 175.757 178.376 173.244C178.17 171.108 176.881 169.251 175.358 167.814C172.197 164.933 168.331 163.029 164.691 160.849C161.945 159.16 159.107 157.458 157.031 154.939C155.925 153.592 155.067 151.972 154.936 150.208C154.628 146.496 156.459 142.71 159.501 140.575ZM217.358 138.684C219.692 137.757 222.597 139.708 222.549 142.234C222.691 144.603 220.258 146.662 217.949 146.18C215.787 145.883 214.346 143.458 214.896 141.395C215.174 140.141 216.149 139.097 217.358 138.684ZM202.68 151.733C204.38 150.634 206.49 150.285 208.481 150.52C210.118 150.739 211.579 151.74 212.5 153.095C210.918 152.671 209.251 152.17 207.62 152.663C204.879 153.364 203.054 155.746 201.727 158.091C199.649 161.596 199.012 165.697 198.506 169.675C198.136 172.855 197.917 176.054 197.867 179.255C197.899 181.489 198.097 183.916 199.575 185.714C197.331 185.697 195.066 185.839 192.837 185.669C192.157 183.754 192.026 181.702 191.914 179.69C191.643 174.557 192.755 169.505 193.297 164.427C193.629 160.914 193.824 157.368 193.579 153.842C193.456 152.712 192.867 151.714 192.299 150.759C194.171 150.69 196.047 150.728 197.921 150.713C198.269 150.726 198.639 150.698 198.969 150.849C199.808 151.746 199.806 153.063 199.907 154.212C200.782 153.336 201.628 152.404 202.68 151.733ZM215.43 150.756C217.734 151.092 220.256 151.744 221.751 153.676C223.033 155.305 222.967 157.523 222.696 159.47C222.037 165.337 221.243 171.2 221.073 177.106C221.037 180.002 220.809 183.105 222.31 185.714C220.215 185.721 218.111 185.807 216.019 185.678C214.877 183.933 214.916 181.7 214.815 179.684C214.875 171.962 216.133 164.32 217.018 156.667C217.229 154.562 216.377 152.579 215.43 150.756ZM351.126 190.565C351.976 190.526 352.826 190.518 353.676 190.565C355.115 192.71 355.683 195.29 356.374 197.745C357.37 201.398 357.985 205.316 360.266 208.446C359.405 208.463 358.536 208.547 357.682 208.412C356.731 207.543 356.369 206.226 355.935 205.053C355.044 202.351 354.418 199.571 353.706 196.819C353.314 195.399 352.955 193.96 352.297 192.635C352.198 193.678 352.146 194.737 351.883 195.759C351.52 197.265 350.724 198.616 350.283 200.096C351.735 199.933 353.512 200.062 354.36 201.445C352.901 201.165 351.176 200.968 349.954 202.009C348.129 203.614 347.514 206.123 347.288 208.451C346.406 208.478 345.526 208.481 344.646 208.451C344.992 205.378 346.483 202.618 347.856 199.903C349.304 196.944 351.004 193.938 351.126 190.565ZM362.31 190.685C363.254 190.18 364.541 191.04 364.412 192.108C364.399 193.196 363.007 193.887 362.129 193.248C361.176 192.704 361.307 191.096 362.31 190.685ZM376.075 190.556C376.886 190.539 377.7 190.541 378.513 190.565C379.102 194.431 378.915 198.373 378.472 202.243C378.306 204.309 377.936 206.467 378.683 208.468C377.848 208.485 377.013 208.487 376.181 208.457C375.957 207.839 375.843 207.185 375.875 206.529C375.961 201.211 377.093 195.851 376.075 190.556ZM382.093 190.688C382.979 190.229 384.303 190.83 384.341 191.884C384.578 193.239 382.571 194.046 381.714 193.05C380.989 192.398 381.237 191.098 382.093 190.688ZM392.194 195.584C393.49 194.892 395.015 194.758 396.457 194.93C398.339 195.143 400.015 196.83 400.024 198.76C400.009 200.283 399.718 201.787 399.649 203.308C399.57 205.034 399.432 206.848 400.153 208.472C399.376 208.472 398.599 208.468 397.825 208.444C397.173 205.914 397.491 203.274 397.902 200.733C398.001 199.552 398.227 198.018 397.108 197.232C394.798 195.714 391.151 196.761 390.142 199.384C389.522 200.89 389.415 202.536 389.354 204.145C389.309 205.595 389.064 207.149 389.83 208.47C388.969 208.472 388.107 208.472 387.248 208.446C386.116 204.07 388.601 199.612 387.252 195.257C388.102 195.234 388.954 195.257 389.804 195.3C389.927 195.98 390.034 196.664 390.133 197.353C390.766 196.705 391.379 196.008 392.194 195.584ZM404.449 196.471C405.663 195.253 407.462 194.885 409.123 194.874C410.65 194.881 412.333 195.528 413.075 196.944C413.772 198.42 412.985 200.309 411.498 200.942C409.452 201.897 407.141 202.538 405.59 204.289C405.151 204.683 405.246 205.361 405.53 205.819C406.143 206.951 407.466 207.472 408.69 207.562C410.183 207.59 411.528 206.837 412.767 206.086C412.051 207.091 411.194 208.104 409.979 208.496C408.372 209.044 406.457 209.042 405.026 208.033C403.249 206.781 402.373 204.55 402.414 202.422C402.324 200.285 402.913 198.022 404.449 196.471ZM405.932 198.123C404.772 199.558 404.523 201.497 404.665 203.285C405.689 202.594 406.711 201.882 407.855 201.398C409.172 200.763 410.693 200.008 411.207 198.536C411.595 197.359 410.388 196.389 409.327 196.288C407.931 196.133 406.76 197.114 405.932 198.123ZM415.846 196.495C416.606 195.419 417.957 194.963 419.226 194.909C420.668 194.857 422.212 195.04 423.411 195.914C423.959 196.288 424.009 197.009 424.138 197.605C423.602 197.185 423.153 196.658 422.572 196.301C421.304 195.705 419.79 195.793 418.514 196.312C417.937 196.533 417.356 197.032 417.406 197.708C417.524 198.366 417.957 198.924 418.464 199.343C419.925 200.552 421.935 200.903 423.273 202.286C424.198 203.166 424.613 204.546 424.269 205.785C423.981 206.906 423.062 207.753 422.042 208.235C420.541 208.926 418.787 209.04 417.199 208.597C416.337 208.347 415.506 207.874 414.973 207.138C414.534 206.514 414.646 205.716 414.626 204.997C415.063 205.707 415.47 206.514 416.24 206.919C417.632 207.633 419.359 207.895 420.829 207.259C422.06 206.734 422.617 204.918 421.664 203.9C420.029 202.114 417.44 201.609 415.842 199.782C415.02 198.876 415.151 197.433 415.846 196.495ZM370.055 196.501C370.675 195.877 371.366 195.173 372.306 195.137C373.248 194.967 374.203 195.369 374.776 196.131C373.848 196.023 372.736 195.75 371.968 196.456C370.197 197.975 369.606 200.387 369.438 202.62C369.261 204.561 368.917 206.617 369.733 208.47C368.872 208.474 368.013 208.472 367.155 208.444C366.882 206.747 366.772 205.004 367.054 203.3C367.398 201.159 367.654 198.992 367.572 196.819C367.564 196.264 367.336 195.752 367.144 195.244C368.007 195.244 368.872 195.242 369.735 195.244C369.842 195.662 369.948 196.077 370.055 196.501ZM361.716 195.208C362.594 195.436 363.65 195.572 364.19 196.398C364.648 197.026 364.575 197.844 364.498 198.575C364.192 201.206 363.818 203.844 363.855 206.499C363.872 207.177 364.074 207.831 364.296 208.468C363.454 208.489 362.613 208.494 361.774 208.429C361.419 207.622 361.367 206.729 361.41 205.864C361.54 203.203 361.914 200.561 362.213 197.917C362.349 196.981 362.028 196.073 361.716 195.208ZM381.611 195.189C382.734 195.421 384.197 195.899 384.333 197.243C384.427 199.195 384.04 201.135 383.939 203.085C383.864 204.87 383.388 206.755 384.146 208.466C383.324 208.487 382.491 208.541 381.684 208.349C381.17 207.013 381.346 205.563 381.469 204.175C381.643 202.015 381.945 199.87 382.179 197.719C382.28 196.832 381.912 195.998 381.611 195.189Z" fill="#027499"/>
<path d="M229.702 138.456C231.854 138.454 234.005 138.449 236.157 138.488C237.312 144.25 237.355 150.162 237.144 156.015C236.923 164.195 235.053 172.289 235.544 180.495C239.089 180.546 242.734 180.365 246.144 181.527C248.524 182.328 250.671 183.849 253.223 184.109C249.025 182.532 246.288 177.622 247.502 173.244C248.117 171.032 249.772 169.156 251.861 168.218C257.08 165.963 262.825 165.238 267.993 162.848C269.406 162.161 270.917 161.29 271.56 159.775C272.18 157.822 271.396 155.511 269.708 154.345C267.81 152.981 265.398 152.615 263.113 152.639C258.746 152.645 254.516 154.138 250.753 156.279C251.547 154.719 252.936 153.588 254.361 152.628C257.569 150.515 261.48 149.814 265.262 149.743C267.735 149.726 270.258 149.822 272.625 150.601C274.992 151.316 276.954 153.155 277.864 155.449C278.484 157 278.217 158.706 278.114 160.326C277.746 164.431 276.777 168.459 276.465 172.573C276.295 174.429 276.382 176.297 276.36 178.162C276.364 180.731 276.539 183.41 277.756 185.729C275.609 185.753 273.462 185.8 271.315 185.706C269.744 178.627 270.678 171.344 271.315 164.216C266.786 167.534 260.869 167.85 256.155 170.808C254.464 171.837 252.833 173.162 252.005 175.012C251.052 177.104 251.734 179.711 253.384 181.256C254.714 182.506 256.609 182.956 258.393 182.891C261.921 182.739 265.271 181.2 267.991 178.999C266.579 181.579 263.993 183.229 261.368 184.38C258.274 185.738 254.86 186.314 251.491 186.11C248.603 185.955 245.77 185.318 242.895 185.051C238.676 184.677 234.442 185.142 230.268 185.744C228.992 182.3 229.091 178.545 229.388 174.941C229.887 168.554 230.81 162.196 230.944 155.782C230.98 150.007 231.77 143.998 229.702 138.456ZM322.656 138.454C324.853 138.469 327.05 138.426 329.247 138.488C330.185 145.078 330.165 151.752 329.967 158.39C329.886 160.322 329.632 162.241 329.535 164.171C332.665 161.942 334.877 158.728 337.745 156.208C340.398 153.764 343.612 151.897 347.111 150.978C349.495 150.337 351.958 150.025 354.422 149.911C352.502 150.765 350.461 151.354 348.666 152.48C343.307 155.535 339.834 160.791 335.589 165.098C338.537 167.949 340.415 171.641 342.562 175.083C344.434 178.197 346.474 181.297 349.288 183.649C350.235 184.458 351.349 185.026 352.393 185.693C350.106 185.777 347.806 185.813 345.523 185.71C344.367 185.241 343.475 184.305 342.534 183.511C339.531 180.727 337.452 177.147 335.454 173.618C333.786 170.63 332.095 167.534 329.434 165.3C329.163 168.151 328.864 171 328.644 173.857C328.423 176.546 328.287 179.26 328.571 181.951C328.717 183.27 329.09 184.563 329.722 185.731C327.545 185.751 325.365 185.826 323.192 185.678C322.228 183.834 322.222 181.695 322.194 179.666C322.372 170.615 323.87 161.636 323.84 152.576C323.87 149.267 323.853 145.954 323.605 142.651C323.483 141.216 323.186 139.794 322.656 138.454ZM296.447 151.907C299.945 149.928 304.143 149.452 308.08 150.014C311.296 150.485 314.302 152.424 315.883 155.292C317.123 157.456 317.568 160.04 317.215 162.501C316.456 167.691 316.01 172.941 316.157 178.188C316.258 180.768 316.477 183.472 317.848 185.733C315.952 185.733 314.048 185.832 312.159 185.695C310.858 184.346 310.752 182.31 310.619 180.54C310.563 177.381 310.453 174.199 310.911 171.062C311.357 167.42 312.239 163.788 311.948 160.094C311.836 158.463 311.09 156.811 309.713 155.87C307.557 154.377 304.84 153.934 302.267 154.106C298.6 154.304 294.934 155.963 292.653 158.889C291.369 160.49 290.82 162.51 290.259 164.446C289.291 167.93 289.043 171.557 289 175.159C288.884 178.696 288.35 182.644 290.504 185.729C288.271 185.708 286.027 185.873 283.802 185.671C283.195 183.879 283.021 181.986 282.909 180.112C282.597 175.989 283.292 171.886 283.888 167.82C284.512 163.771 285.031 159.663 284.701 155.561C284.544 153.852 284.106 152.146 283.2 150.674C285.254 150.683 287.309 150.698 289.364 150.69C289.973 150.601 290.261 151.249 290.433 151.72C290.988 153.443 290.971 155.281 290.98 157.073C292.438 155.018 294.198 153.104 296.447 151.907Z" fill="#0F1E7D"/>
<path d="M365.026 150.819C367.879 149.905 370.915 149.683 373.895 149.754C376.317 149.875 378.848 150.071 381.014 151.267C382.613 152.115 383.826 153.561 384.629 155.163C385.192 156.293 385.048 157.59 385.027 158.81C384.779 163.509 383.551 168.094 383.314 172.795C383.183 175.521 383.09 178.26 383.301 180.986C383.428 182.625 383.792 184.263 384.547 185.732C382.72 185.758 380.892 185.769 379.065 185.762C378.746 185.719 378.202 185.84 378.168 185.39C377.514 182.974 377.425 180.452 377.346 177.963C377.318 173.374 377.763 168.8 378.166 164.234C375.13 166.407 371.524 167.522 367.995 168.606C364.878 169.671 361.592 170.981 359.518 173.673C357.451 176.382 358.535 180.838 361.61 182.303C363.466 183.133 365.596 183.006 367.535 182.544C370.173 181.913 372.69 180.741 374.805 179.03C373.357 181.763 370.773 183.695 368.01 184.966C365.558 186.057 362.791 186.593 360.125 186.109C358.025 185.749 356.065 184.596 354.77 182.905C352.741 180.3 352.427 176.55 353.862 173.595C355.316 170.555 358.109 168.307 361.289 167.27C365.5 165.659 369.977 164.869 374.153 163.165C375.502 162.606 376.829 161.891 377.832 160.811C378.783 159.694 378.848 158.061 378.381 156.725C377.953 155.422 376.898 154.415 375.706 153.793C374.168 152.977 372.41 152.715 370.691 152.65C367.952 152.543 365.226 153.079 362.634 153.937C360.816 154.509 359.161 155.475 357.449 156.293C359.129 153.55 362.014 151.775 365.026 150.819ZM405.384 150.899C408.095 149.849 411.06 149.643 413.935 149.886C416.527 150.15 419.094 151.211 420.931 153.094C422.833 155 423.943 157.64 424.079 160.321C424.167 161.758 423.851 163.174 423.681 164.594C423.031 169.587 422.631 174.639 422.945 179.676C423.063 181.778 423.436 183.942 424.613 185.732C422.642 185.719 420.665 185.874 418.702 185.65C417.48 184.002 417.411 181.87 417.349 179.904C417.345 177.311 417.259 174.714 417.489 172.13C417.799 168.899 418.541 165.717 418.683 162.468C418.748 160.63 418.683 158.636 417.575 157.08C416.392 155.542 414.498 154.72 412.646 154.324C409.135 153.679 405.341 154.275 402.323 156.228C400.455 157.429 398.88 159.159 398.065 161.241C396.826 164.374 396.034 167.696 395.892 171.07C395.791 173.509 395.705 175.951 395.621 178.396C395.55 180.911 395.756 183.613 397.262 185.732C394.962 185.745 392.66 185.848 390.367 185.653C389.345 180.805 389.3 175.773 390.087 170.889C390.864 165.912 391.77 160.884 391.412 155.828C391.314 154.034 390.827 152.274 390.005 150.677C392.221 150.682 394.435 150.71 396.651 150.677C397.856 152.597 397.669 154.937 397.753 157.102C399.56 154.303 402.232 152.031 405.384 150.899Z" fill="#0F1E7D"/>
</svg>
