<svg width="480" height="320" viewBox="0 0 480 320" fill="none" xmlns="http://www.w3.org/2000/svg">
<path d="M196.247 112.409V124.948H195.305C195 122.541 194.453 120.625 193.665 119.198C192.878 117.775 191.71 116.599 190.292 115.803C188.832 114.965 187.322 114.545 185.762 114.545C183.995 114.545 182.535 115.113 181.382 116.244C180.228 117.376 179.651 118.664 179.651 120.108C179.651 121.214 180.016 122.22 180.745 123.128C181.798 124.467 184.3 126.25 188.254 128.476C191.48 130.296 193.681 131.691 194.86 132.662C196.009 133.594 196.938 134.767 197.584 136.098C198.215 137.388 198.542 138.806 198.54 140.242C198.54 142.988 197.525 145.354 195.498 147.341C193.469 149.329 190.86 150.324 187.67 150.324C186.668 150.324 185.726 150.242 184.843 150.083C184.317 149.993 183.228 149.667 181.574 149.106C179.918 148.545 178.87 148.264 178.429 148.264C178.005 148.264 177.669 148.398 177.424 148.666C177.177 148.933 176.995 149.486 176.877 150.324H175.935V137.889H176.877C177.317 140.493 177.912 142.439 178.659 143.732C179.405 145.025 180.546 146.098 182.082 146.953C183.619 147.809 185.302 148.238 187.135 148.238C189.256 148.238 190.931 147.649 192.163 146.472C193.393 145.296 194.008 143.905 194.008 142.302C194.008 141.41 193.774 140.511 193.307 139.6C192.84 138.692 192.116 137.845 191.132 137.061C190.47 136.526 188.663 135.389 185.709 133.651C182.758 131.914 180.656 130.527 179.409 129.493C178.163 128.46 177.216 127.318 176.571 126.071C175.925 124.824 175.604 123.45 175.604 121.954C175.604 119.35 176.554 117.109 178.455 115.228C180.356 113.347 182.773 112.406 185.709 112.406C187.542 112.406 189.486 112.88 191.539 113.824C192.49 114.27 193.16 114.493 193.55 114.493C193.992 114.493 194.352 114.354 194.63 114.077C194.912 113.801 195.136 113.246 195.306 112.406L196.247 112.409ZM229.672 113.238L230.053 121.74H229.086C228.899 120.244 228.645 119.173 228.322 118.531C227.796 117.498 227.096 116.736 226.222 116.245C225.349 115.755 224.199 115.511 222.772 115.511H217.912V143.212C217.912 145.44 218.141 146.831 218.598 147.383C219.243 148.131 220.235 148.506 221.577 148.506H222.772V149.496H208.136V148.506H209.358C210.818 148.506 211.852 148.044 212.464 147.115C212.837 146.546 213.024 145.245 213.024 143.212V115.51H208.874C207.262 115.51 206.117 115.634 205.438 115.884C204.555 116.223 203.801 116.874 203.172 117.837C202.544 118.799 202.17 120.1 202.052 121.74H201.085L201.493 113.238H229.672ZM249.217 137.356H235.853L233.511 143.078C232.933 144.487 232.645 145.539 232.645 146.233C232.645 146.787 232.895 147.272 233.396 147.69C233.896 148.11 234.978 148.383 236.642 148.508V149.496H225.772V148.506C227.214 148.239 228.148 147.891 228.572 147.463C229.438 146.607 230.397 144.869 231.45 142.25L243.59 112.408H244.481L256.498 142.57C257.465 144.994 258.343 146.568 259.131 147.29C259.921 148.01 261.018 148.418 262.429 148.506V149.496H248.81V148.506C250.184 148.436 251.114 148.195 251.597 147.785C252.081 147.374 252.323 146.874 252.323 146.288C252.323 145.503 251.982 144.265 251.305 142.57L249.217 137.356ZM248.503 135.378L242.65 120.725L236.642 135.378H248.503Z" fill="#CA0000"/>
<path d="M296.409 149.496H287.195L275.511 132.544C274.807 132.576 274.103 132.594 273.398 132.598C272.897 132.594 272.396 132.576 271.896 132.544V143.079C271.896 145.361 272.132 146.778 272.61 147.331C273.254 148.115 274.221 148.508 275.511 148.508H276.86V149.496H262.07V148.507H263.369C264.827 148.507 265.871 148.008 266.5 147.009C266.856 146.458 267.035 145.147 267.035 143.079V119.656C267.035 117.374 266.796 115.957 266.322 115.404C265.66 114.62 264.675 114.226 263.369 114.226H262.07V113.238H274.645C278.311 113.238 281.013 113.518 282.753 114.079C284.493 114.642 285.968 115.675 287.182 117.183C288.394 118.689 289.003 120.484 289.003 122.57C289.003 124.799 288.31 126.733 286.929 128.372C285.543 130.012 283.403 131.171 280.5 131.849L287.627 142.25C289.256 144.639 290.657 146.227 291.829 147.009C292.998 147.794 294.527 148.294 296.409 148.507V149.496ZM271.896 130.859C272.218 130.859 272.499 130.864 272.736 130.873C272.973 130.881 273.169 130.887 273.322 130.887C276.614 130.887 279.095 130.138 280.767 128.639C282.438 127.143 283.275 125.235 283.275 122.917C283.275 120.655 282.602 118.813 281.251 117.396C279.901 115.979 278.116 115.271 275.893 115.271C274.908 115.271 273.577 115.44 271.896 115.778V130.859Z" fill="#CA0000"/>
<path d="M324.012 139.468L324.853 139.657L321.901 149.496H295.172V148.507H296.469C297.929 148.507 298.972 148.008 299.6 147.009C299.957 146.439 300.136 145.12 300.136 143.052V119.656C300.136 117.392 299.898 115.975 299.423 115.404C298.762 114.62 297.777 114.226 296.469 114.226H295.172V113.238H310.801V114.228C308.968 114.21 307.683 114.388 306.944 114.762C306.207 115.136 305.7 115.609 305.43 116.18C305.158 116.75 305.023 118.114 305.023 120.271V143.052C305.023 144.532 305.158 145.548 305.43 146.101C305.634 146.475 305.947 146.752 306.372 146.929C306.796 147.108 308.119 147.196 310.343 147.196H312.864C315.511 147.196 317.369 146.991 318.438 146.581C319.506 146.173 320.482 145.445 321.366 144.402C322.248 143.36 323.129 141.714 324.012 139.47V139.468ZM340.244 148.507V149.496H325.454V148.507H326.676C328.101 148.507 329.136 148.071 329.781 147.196C330.189 146.627 330.394 145.254 330.394 143.079V119.656C330.394 117.82 330.283 116.608 330.061 116.019C329.892 115.574 329.543 115.19 329.018 114.869C328.308 114.452 327.5 114.23 326.676 114.228H325.454V113.238H340.244V114.228H338.997C337.588 114.228 336.562 114.664 335.916 115.538C335.492 116.108 335.28 117.481 335.28 119.656V143.079C335.28 144.915 335.391 146.127 335.613 146.716C335.78 147.16 336.136 147.544 336.68 147.866C337.38 148.286 338.181 148.507 338.997 148.507H340.244Z" fill="#CA0000"/>
<path d="M339.004 113.238H348.373L369.476 140.431V119.521C369.476 117.294 369.238 115.903 368.763 115.351C368.135 114.602 367.142 114.228 365.784 114.228H364.588V113.238H376.603V114.228H375.381C373.922 114.228 372.887 114.692 372.275 115.617C371.901 116.188 371.717 117.489 371.717 119.521V150.085H370.799L348.04 120.886V143.213C348.04 145.441 348.27 146.832 348.727 147.383C349.373 148.132 350.366 148.507 351.706 148.507H352.928V149.496H340.912V148.507H342.11C343.586 148.507 344.629 148.044 345.241 147.116C345.614 146.547 345.801 145.246 345.801 143.213V117.997C344.798 116.767 344.039 115.957 343.522 115.565C343.004 115.172 342.245 114.807 341.244 114.469C340.751 114.308 340.004 114.228 339.004 114.228V113.238Z" fill="#CA0000"/>
<path d="M391.086 129.389L403.815 142.678C405.901 144.87 407.684 146.364 409.16 147.156C410.637 147.95 412.112 148.4 413.589 148.507V149.496H397.169V148.507C398.152 148.507 398.862 148.334 399.294 147.986C399.728 147.638 399.944 147.25 399.944 146.822C399.944 146.394 399.862 146.012 399.701 145.672C399.541 145.334 399.01 144.701 398.111 143.774L386.197 131.394V143.079C386.197 144.915 386.308 146.127 386.529 146.716C386.697 147.16 387.056 147.544 387.596 147.866C388.296 148.286 389.098 148.507 389.914 148.507H391.085V149.496H376.371V148.507H377.593C379.02 148.507 380.054 148.071 380.699 147.196C381.105 146.627 381.309 145.254 381.309 143.079V119.656C381.309 117.82 381.198 116.598 380.978 115.993C380.809 115.563 380.461 115.189 379.935 114.869C379.225 114.452 378.417 114.23 377.593 114.228H376.371V113.238H391.085V114.228H389.914C389.102 114.231 388.305 114.443 387.598 114.843C387.083 115.115 386.691 115.574 386.503 116.126C386.299 116.696 386.197 117.873 386.197 119.656V130.754C386.536 130.414 387.699 129.282 389.686 127.356C394.725 122.507 397.77 119.272 398.823 117.65C399.281 116.936 399.51 116.313 399.51 115.779C399.51 115.368 399.331 115.008 398.977 114.696C398.621 114.384 398.016 114.228 397.169 114.228H396.379V113.238H409.056V114.228C408.308 114.246 407.632 114.352 407.019 114.548C406.41 114.744 405.662 115.123 404.78 115.684C403.896 116.246 402.81 117.152 401.522 118.399C401.148 118.755 399.426 120.583 396.354 123.88L391.086 129.389Z" fill="#CA0000"/>
<path d="M112.593 235.673V198.42C112.593 198.42 138.827 186.313 138.827 165.359C138.827 144.403 111.438 119.535 111.438 119.535C111.438 119.535 157.937 133.373 157.937 167.602C157.937 201.827 112.593 235.673 112.593 235.673Z" fill="#161470"/>
<path d="M112.564 83.0352V120.288C112.564 120.288 86.3309 132.394 86.3309 153.348C86.3309 174.302 113.436 199.172 113.436 199.172C113.436 199.172 67.2168 185.334 67.2168 151.108C67.2196 116.88 112.564 83.0352 112.564 83.0352ZM240.366 185.547H232.589L231.237 188.824C230.904 189.638 230.737 190.246 230.737 190.65C230.737 190.968 230.881 191.251 231.171 191.495C231.459 191.736 232.085 191.894 233.044 191.966V192.526H226.761V191.964C227.592 191.811 228.132 191.607 228.376 191.359C228.875 190.86 229.429 189.849 230.036 188.325L237.135 171.134H237.664L244.543 188.53C245.1 189.931 245.607 190.844 246.062 191.261C246.519 191.679 247.151 191.913 247.964 191.964V192.526H240.108V191.964C240.901 191.924 241.437 191.784 241.715 191.549C241.846 191.446 241.952 191.314 242.025 191.163C242.097 191.013 242.135 190.848 242.134 190.682C242.134 190.227 241.937 189.514 241.546 188.533L240.366 185.547ZM239.912 184.397L236.563 175.943L233.066 184.396L239.912 184.397ZM264.635 171.595V172.153C263.93 172.288 263.397 172.525 263.034 172.866C262.516 173.37 262.056 174.143 261.654 175.185L254.746 192.986H254.192L246.746 174.974C246.364 174.039 246.095 173.467 245.94 173.259C245.7 172.942 245.39 172.684 245.035 172.504C244.678 172.323 244.195 172.206 243.59 172.153V171.594H251.714V172.153C250.793 172.246 250.196 172.411 249.923 172.647C249.79 172.758 249.684 172.897 249.613 173.055C249.542 173.212 249.507 173.384 249.512 173.557C249.512 174.072 249.736 174.873 250.188 175.964L255.256 188.228L259.955 176.119C260.412 174.926 260.644 174.097 260.644 173.635C260.644 173.335 260.501 173.051 260.219 172.777C259.933 172.507 259.454 172.313 258.78 172.201C258.697 172.184 258.614 172.168 258.531 172.153V171.594H264.635V171.595ZM273.288 191.964V192.526H264.773V191.964H265.474C266.294 191.964 266.89 191.712 267.261 191.202C267.494 190.87 267.61 190.072 267.61 188.806V175.312C267.61 174.246 267.548 173.539 267.42 173.197C267.323 172.938 267.124 172.713 266.822 172.526C266.414 172.283 265.948 172.154 265.474 172.152H264.773V171.594H273.288V172.153H272.574C271.768 172.153 271.182 172.408 270.813 172.915C270.571 173.248 270.449 174.047 270.449 175.312V188.806C270.449 189.874 270.513 190.58 270.64 190.923C270.736 191.183 270.939 191.405 271.25 191.592C271.667 191.841 272.109 191.966 272.574 191.966L273.288 191.964ZM286.789 185.547H279.011L277.659 188.824C277.326 189.638 277.159 190.246 277.159 190.65C277.159 190.968 277.303 191.251 277.591 191.495C277.882 191.736 278.505 191.894 279.466 191.966V192.526H273.182V191.964C274.014 191.811 274.553 191.607 274.799 191.359C275.298 190.86 275.85 189.849 276.459 188.325L283.557 171.134H284.086L290.965 188.53C291.522 189.931 292.029 190.844 292.485 191.261C292.938 191.679 293.573 191.913 294.386 191.964V192.526H286.53V191.964C287.323 191.924 287.86 191.784 288.137 191.549C288.268 191.446 288.374 191.314 288.447 191.163C288.519 191.013 288.556 190.848 288.556 190.682C288.556 190.227 288.36 189.514 287.97 188.533L286.789 185.547ZM286.335 184.397L282.985 175.943L279.486 184.396L286.335 184.397ZM307.731 171.595L307.953 176.505H307.394C307.286 175.641 307.138 175.023 306.951 174.654C306.65 174.057 306.246 173.618 305.741 173.334C305.237 173.051 304.575 172.91 303.752 172.91H300.949V188.904C300.949 190.192 301.082 190.997 301.351 191.316C301.725 191.748 302.307 191.964 303.088 191.964H303.788V192.526H295.273V191.964H295.982C296.828 191.964 297.43 191.697 297.786 191.162C298.002 190.83 298.11 190.08 298.11 188.904V172.911H295.715C294.784 172.911 294.121 172.983 293.731 173.127C293.221 173.323 292.784 173.7 292.423 174.254C292.06 174.809 291.844 175.56 291.776 176.507H291.217L291.439 171.595H307.731ZM316.904 191.964V192.526H308.39V191.964H309.091C309.91 191.964 310.505 191.712 310.876 191.202C311.111 190.87 311.228 190.072 311.228 188.806V175.312C311.228 174.246 311.164 173.539 311.037 173.197C310.94 172.938 310.739 172.713 310.438 172.526C310.031 172.283 309.566 172.154 309.091 172.152H308.39V171.594H316.904V172.153H316.191C315.386 172.153 314.798 172.408 314.431 172.915C314.184 173.248 314.067 174.047 314.067 175.312V188.806C314.067 189.874 314.128 190.58 314.255 190.923C314.352 191.183 314.554 191.405 314.865 191.592C315.282 191.841 315.724 191.966 316.191 191.966L316.904 191.964ZM327.606 171.134C330.184 171.134 332.42 172.162 334.311 174.223C336.2 176.282 337.147 178.852 337.147 181.935C337.147 185.11 336.193 187.746 334.288 189.842C332.383 191.937 330.076 192.986 327.371 192.986C324.635 192.986 322.337 191.963 320.476 189.92C318.615 187.875 317.686 185.228 317.686 181.981C317.686 178.665 318.758 175.958 320.908 173.862C322.774 172.043 325.006 171.132 327.606 171.132V171.134ZM327.327 172.219C325.549 172.219 324.121 172.914 323.046 174.305C321.708 176.036 321.04 178.567 321.04 181.904C321.04 185.324 321.733 187.955 323.118 189.799C324.186 191.198 325.592 191.898 327.342 191.898C329.207 191.898 330.749 191.132 331.966 189.598C333.182 188.064 333.793 185.644 333.793 182.338C333.793 178.754 333.121 176.08 331.784 174.32C330.708 172.921 329.224 172.219 327.327 172.219ZM336.876 171.595H342.292L354.435 187.265V175.213C354.435 173.926 354.297 173.121 354.021 172.802C353.657 172.371 353.082 172.153 352.293 172.153H351.598V171.594H358.564V172.153H357.855C357.007 172.153 356.407 172.421 356.054 172.957C355.833 173.287 355.725 174.039 355.725 175.213V192.864H355.197L342.088 175.987V188.904C342.088 190.192 342.222 190.997 342.487 191.316C342.861 191.748 343.439 191.964 344.216 191.964H344.927V192.526H337.961V191.964H338.656C339.514 191.964 340.118 191.697 340.473 191.162C340.689 190.83 340.797 190.08 340.797 188.904V174.325C340.22 173.618 339.783 173.151 339.485 172.924C339.185 172.698 338.748 172.489 338.17 172.292C337.886 172.201 337.455 172.153 336.876 172.153V171.595ZM413 166.623H174.629V199.072H413V166.623Z" fill="#161470"/>
<path d="M113.437 199.172C113.437 199.172 86.3301 174.305 86.3301 153.35C82.7334 179.868 101.59 191.782 113.436 199.172H113.437ZM67.2188 151.108C67.2188 116.88 112.563 83.0352 112.563 83.0352V91.4977C107.09 96.2152 75.8337 116.855 67.2188 151.108ZM157.707 167.655C157.707 146.699 111.436 119.533 111.436 119.533C111.436 119.533 157.936 133.371 157.936 167.599" fill="#3C439C"/>
<path d="M112.592 211.251V198.421C112.592 198.421 138.826 186.313 138.826 165.359C138.826 165.359 140.705 185.859 112.592 211.249V211.251Z" fill="#3C439C"/>
</svg>
