<svg width="480" height="320" viewBox="0 0 480 320" fill="none" xmlns="http://www.w3.org/2000/svg">
<path d="M59.3305 181.067H55.3828V180.113H64.3149V181.067H60.3749V190.171H59.3305M66.9493 180.113H67.9937V184.372H75.2656V180.113H76.3061V190.171H75.2656V185.323H67.9937V190.171H66.9493M80.0668 180.113H88.0713V181.067H81.1073V184.481H87.8141V185.436H81.1073V189.212H88.1805V190.171H80.0668M109.903 180.113H111.029L107.646 190.171H106.434L103.406 181.578H103.379L100.39 190.171H99.1819L95.846 180.113H97.0112L99.8015 188.791H99.8327L102.802 180.113H104.088L107.058 188.791H107.085M120.058 187.112H114.758L113.394 190.171H112.268L116.832 180.113H118.044L122.607 190.171H121.399M117.424 181.161L115.183 186.157H119.641L117.424 181.161ZM128.051 185.943L123.527 180.113H124.879L128.573 184.906L132.26 180.113H133.616L129.092 185.943V190.171H128.051M144.7 181.067H140.756V180.113H149.684V181.067H145.74V190.171H144.7M152.322 180.113H153.367V184.372H160.635V180.113H161.671V190.171H160.635V185.323H153.367V190.171H152.322M165.436 180.113H173.436V181.067H166.48V184.481H173.183V185.436H166.48V189.212H173.553V190.171H165.436M182.47 180.113H190.47V181.067H183.51V184.481H190.217V185.436H183.51V189.212H190.583V190.171H182.47M200.455 187.112H195.159L193.795 190.171H192.665L197.228 180.113H198.44L203.003 190.171H201.795M197.824 181.161L195.583 186.157H200.038L197.824 181.161ZM205.751 180.113H211.23C212.937 180.113 214.5 180.717 214.5 182.833C214.5 183.901 213.841 184.972 212.532 185.268V185.3C213.954 185.526 214.246 186.438 214.32 188.086C214.348 188.721 214.433 189.945 214.671 190.171H213.545C213.366 189.957 213.288 189.212 213.276 188.117C213.245 186.336 212.571 185.752 210.84 185.752H206.795V190.175H205.751M206.795 184.789H211.203C212.345 184.789 213.377 184.368 213.377 182.833C213.377 181.352 212.259 181.067 211.308 181.067H206.795V184.789ZM220.743 181.067H216.795V180.113H225.727V181.067H221.783V190.171H220.743M228.362 180.113H229.402V184.372H236.678V180.113H237.718V190.171H236.678V185.323H229.402V190.171H228.362M256.931 186.336C256.709 188.593 254.846 190.428 251.962 190.428C248.696 190.428 246.608 188.371 246.608 185.148C246.608 182.848 248.03 179.863 251.962 179.863C254.156 179.863 256.541 180.865 256.849 183.515H255.805C255.497 181.601 253.774 180.826 251.962 180.826C249.472 180.826 247.734 182.217 247.734 185.152C247.734 187.392 248.903 189.47 251.962 189.47C254.355 189.47 255.54 188.258 255.894 186.34M265.243 179.859C268.104 179.859 270.707 181.594 270.707 185.144C270.707 188.69 268.104 190.424 265.243 190.424C262.391 190.424 259.784 188.69 259.784 185.144C259.78 181.594 262.387 179.859 265.243 179.859ZM265.243 189.466C267.457 189.466 269.581 188.172 269.581 185.148C269.581 182.124 267.457 180.822 265.243 180.822C263.034 180.822 260.906 182.124 260.906 185.148C260.906 188.172 263.03 189.466 265.243 189.466ZM273.907 180.113H275.161L282.188 188.706H282.215V180.113H283.263V190.171H282.051L274.978 181.578H274.947V190.171H273.907M286.853 180.113H288.107L295.134 188.706H295.161V180.113H296.202V190.171H294.993L287.92 181.578H287.893V190.171H286.853M299.966 180.113H307.967V181.067H301.007V184.481H307.71V185.436H301.007V189.212H308.08V190.171H299.966M321.154 186.336C320.925 188.593 319.07 190.428 316.178 190.428C312.916 190.428 310.827 188.371 310.827 185.148C310.827 182.848 312.246 179.863 316.178 179.863C318.38 179.863 320.761 180.865 321.073 183.515H320.024C319.713 181.601 317.998 180.826 316.178 180.826C313.684 180.826 311.953 182.217 311.953 185.152C311.953 187.392 313.126 189.47 316.178 189.47C318.578 189.47 319.759 188.258 320.114 186.34M327.378 181.067H323.434V180.113H332.366V181.067H328.422V190.171H327.378M341.821 182.985C341.68 181.266 340.281 180.814 338.66 180.814C337.039 180.814 335.819 181.445 335.819 182.587C335.819 183.897 337.039 184.205 339.494 184.618C341.326 184.922 343.157 185.35 343.157 187.279C343.157 189.742 340.916 190.424 338.956 190.424C336.408 190.424 334.549 189.547 334.393 186.843H335.437C335.616 188.955 337.027 189.462 338.956 189.462C340.464 189.462 342.027 189.056 342.027 187.463C342.027 185.927 340.195 185.744 338.368 185.444C335.971 185.066 334.693 184.388 334.693 182.767C334.693 180.573 336.723 179.852 338.664 179.852C340.722 179.852 342.795 180.584 342.861 182.981" fill="black"/>
<path d="M376.352 146.472C378.604 143.335 381.133 140.311 383.892 137.446C386.627 134.616 389.561 131.985 392.672 129.574L389.387 142.727" fill="#CDD0D3"/>
<path d="M399.145 152.154C395.241 151.757 391.371 151.081 387.563 150.131C383.686 149.165 379.937 147.937 376.344 146.472L389.387 142.727" fill="#5B5B63"/>
<path d="M392.667 129.57C394.249 133.093 395.609 136.788 396.712 140.611C397.811 144.449 398.614 148.307 399.144 152.154L389.386 142.727M371.747 173.521C369.427 170.355 367.337 167.024 365.497 163.557C363.618 160.03 362.024 156.425 360.711 152.773L372.219 159.963" fill="#92959B"/>
<path d="M384.193 153.605C382.634 157.14 380.807 160.605 378.695 163.995C376.582 167.385 374.248 170.565 371.75 173.527L372.225 159.969" fill="#5B5B63"/>
<path d="M360.715 152.774C364.565 152.365 368.486 152.213 372.472 152.35C376.455 152.49 380.379 152.911 384.195 153.604L372.227 159.964" fill="#CDD0D3"/>
<path d="M396.047 186.262C392.376 187.467 388.572 188.441 384.644 189.131C380.766 189.809 376.845 190.214 372.91 190.343L383.304 181.625" fill="#5B5B63"/>
<path d="M380.945 168.266C383.837 170.842 386.573 173.659 389.133 176.711C391.697 179.766 394.004 182.961 396.046 186.262L383.303 181.625" fill="#92959B"/>
<path d="M372.914 190.335C373.701 186.543 374.773 182.774 376.137 179.033C377.501 175.276 379.11 171.683 380.95 168.258L383.304 181.625" fill="#CDD0D3"/>
<path d="M415.672 167.09C415.691 170.952 415.426 174.872 414.877 178.812C414.312 182.768 413.489 186.622 412.406 190.347L407.32 177.772" fill="#92959B"/>
<path d="M393.895 175.878C397.238 173.933 400.753 172.203 404.444 170.706C408.095 169.234 411.847 168.025 415.671 167.09L407.324 177.772" fill="#CDD0D3"/>
<path d="M412.406 190.341C408.995 188.394 405.73 186.204 402.636 183.786C399.536 181.361 396.613 178.717 393.891 175.875L407.32 177.769" fill="#5B5B63"/>
<path d="M403.496 142.488C407.175 143.677 410.83 145.134 414.412 146.88C417.997 148.622 421.411 150.606 424.614 152.792L411.08 153.735" fill="#92959B"/>
<path d="M405.134 165.929C404.324 162.145 403.755 158.264 403.478 154.289C403.202 150.298 403.213 146.362 403.498 142.488L411.081 153.735" fill="#CDD0D3"/>
<path d="M424.606 152.789C421.706 155.427 418.618 157.851 415.366 160.041C412.042 162.278 408.628 164.235 405.133 165.926L411.08 153.732" fill="#5B5B63"/>
<mask id="mask0_730_18176" style="mask-type:luminance" maskUnits="userSpaceOnUse" x="55" y="129" width="389" height="62">
<path d="M55.3828 129.57H443.14V190.423H55.3828V129.57Z" fill="white"/>
</mask>
<g mask="url(#mask0_730_18176)">
<path d="M55.3828 166.953C55.3789 169.104 56.0103 170.69 57.2768 171.957C58.9564 173.648 61.9455 174.497 65.6828 174.497C67.7833 174.497 74.9656 174.034 74.9656 168.071C74.9656 162.822 70.1761 162.342 65.9556 161.91C61.5947 161.47 58.3719 160.99 58.3719 158.036C58.3719 156.571 59.1357 155.503 60.6828 154.79C62.2845 154.05 64.0148 153.94 65.8075 153.94C67.187 153.94 69.7162 154.159 71.1425 155.581C71.805 156.247 72.1441 157.3 72.1441 158.332L74.3381 158.364C74.3381 156.762 73.8276 155.152 72.8222 154.143C70.9867 152.308 67.8924 151.922 65.6282 151.922C62.5106 151.922 59.4436 152.596 57.5496 154.478C56.5636 155.468 56.0687 156.664 56.0687 158.036C56.0687 163.169 61.2947 163.59 65.3983 163.956C67.3429 164.135 69.1745 164.295 70.5385 164.899C71.9765 165.519 72.6507 166.567 72.6507 168.172C72.6507 169.197 72.3117 170.047 71.6375 170.717C70.0475 172.307 66.7467 172.483 65.5386 172.483C62.5768 172.483 60.1957 171.84 58.9331 170.581C58.025 169.673 57.5535 168.543 57.5457 166.945M78.4651 152.327V154.455H86.8945V174.096H89.1275V154.455H97.5646V152.327H78.4651ZM108.184 152.327L98.1764 174.096H100.635C100.635 174.096 103.496 167.876 103.73 167.366H114.692C114.926 167.876 117.751 174.096 117.751 174.096H120.261L110.257 152.327H108.184ZM109.201 155.343C109.895 156.844 113.262 164.19 113.761 165.285H104.681C105.172 164.186 108.519 156.844 109.201 155.343ZM126.547 152.327V174.096H128.811V164.634H137.63C141.512 164.634 142.424 165.402 142.525 168.784C142.607 172.327 142.767 173.484 143.234 173.952L143.375 174.092H145.717L145.343 173.387C144.996 172.709 144.859 171.368 144.828 167.841C144.785 165.69 143.612 164.131 141.738 163.438C144.181 162.346 145.179 160.137 145.179 158.321C145.179 154.287 142.724 152.327 137.661 152.327H126.547ZM137.771 154.455C141.204 154.455 142.88 155.694 142.88 158.247C142.88 161.111 141.095 162.51 137.447 162.51H128.811V154.455H137.771ZM171.012 152.327L161.009 174.096H163.503C163.503 174.096 166.328 167.876 166.558 167.366H177.521C177.754 167.876 180.611 174.096 180.611 174.096H183.082L173.113 152.327H171.012ZM172.065 155.343C172.747 156.844 176.09 164.19 176.585 165.285H167.513C168.012 164.186 171.379 156.844 172.065 155.343ZM250.236 152.327L240.224 174.096H242.718C242.718 174.096 245.548 167.876 245.781 167.366H256.744C256.974 167.876 259.838 174.096 259.838 174.096H262.313L252.336 152.327H250.236ZM251.28 155.343C251.962 156.844 255.314 164.19 255.805 165.285H246.732C247.231 164.186 250.598 156.844 251.28 155.343ZM190.112 152.327V174.096H205.798V171.964H192.38V152.327H190.112ZM210.646 152.327V174.096H226.3V171.964H212.914V152.327H210.646ZM231 174.096H233.237V152.327H231V174.096ZM286.478 152.327V170.487C285.079 168.792 270.719 152.327 270.719 152.327H268.447V174.096H270.684V155.932C272.079 157.623 286.443 174.1 286.443 174.1H288.7V152.327H286.478ZM325.659 152.327V174.096H343.216V171.964H327.908V163.882H342.44V161.789H327.908V154.455H343.036V152.327H325.659ZM295.765 163.239C295.765 170.121 300.551 174.552 307.565 174.552C314.101 174.552 318.06 170.14 318.582 165.776L318.653 165.238H316.291L316.217 165.632C315.465 169.829 312.145 172.428 307.562 172.428C300.796 172.428 298.096 167.67 298.096 163.223C298.096 157.787 302.02 153.991 307.647 153.991C311.93 153.991 315.005 156.037 315.893 159.466L315.975 159.829H318.337L318.201 159.248C317.133 154.552 313.279 151.863 307.643 151.863C299.647 151.867 295.765 157.763 295.765 163.239Z" fill="black"/>
</g>
</svg>
