<svg width="480" height="320" viewBox="0 0 480 320" fill="none" xmlns="http://www.w3.org/2000/svg">
<path d="M248.496 149.164H69.2424C62.4459 149.164 57.0078 153.533 57.0078 159.089V217.041C57.0078 222.4 62.4459 226.763 69.2424 226.763H410.754C417.553 226.763 422.995 222.4 422.995 217.041V159.089C422.995 153.533 417.553 149.164 410.754 149.164H354.097" stroke="#D31245" stroke-width="8.11147" stroke-miterlimit="2.6131"/>
<path fill-rule="evenodd" clip-rule="evenodd" d="M345.942 98.7549C345.942 98.7549 339.142 95.7786 338.916 95.5803C338.463 95.3819 338.694 94.5895 339.373 94.5895C340.05 94.5895 346.847 95.9789 347.302 95.9789C347.758 95.9789 352.741 91.6133 353.649 91.6133C354.554 91.6133 355.458 92.4086 355.458 92.4086L350.701 97.3703L354.781 98.5594L356.591 97.5687C356.591 97.5687 358.179 97.767 357.95 98.364C357.95 98.7597 356.368 100.348 356.368 100.348L356.136 102.528C356.136 102.528 355.007 103.125 354.328 102.528C354.328 102.528 353.873 100.942 353.873 100.743C353.646 100.743 349.563 99.7505 349.563 99.7505L350.021 106.3C350.021 106.3 347.755 106.102 347.526 105.506C347.073 105.107 345.942 98.7549 345.942 98.7549ZM290.423 116.219C284.979 118.006 281.13 121.579 278.864 125.944C276.599 121.579 272.518 118.006 267.306 116.219C260.286 113.64 252.352 114.432 246.458 118.401C241.244 121.776 238.071 126.934 237.619 132.692C237.392 138.645 240.567 144.598 246.457 149.363C250.988 153.131 255.519 155.513 259.824 158.096C266.397 161.864 272.518 165.237 277.504 171.79L278.862 173.375L280.217 171.79C285.203 165.237 291.323 161.864 297.894 158.096C302.2 155.516 306.732 153.133 311.263 149.363C317.156 144.598 320.326 138.643 320.103 132.692C319.652 126.937 316.478 121.776 311.263 118.401C305.377 114.434 297.443 113.642 290.423 116.219ZM277.956 132.693C278.409 133.884 278.409 133.884 278.864 135.471L279.77 132.297C279.77 132.297 281.586 122.573 291.555 118.801C297.672 116.617 304.25 117.214 309.455 120.589C313.766 123.565 316.481 127.931 316.709 132.695C316.936 133.092 316.936 133.29 316.936 133.491C316.936 138.453 314.216 143.413 309.233 147.382C304.927 150.758 300.395 153.335 296.085 155.72C289.97 159.291 284.077 162.663 278.867 168.619C273.655 162.666 267.763 159.294 261.644 155.72C257.336 153.338 252.807 150.758 248.5 147.382C243.518 143.413 240.795 138.453 240.795 133.491V132.693C241.245 127.929 243.743 123.566 248.276 120.587C253.483 117.212 260.057 116.618 266.179 118.799C272.291 120.984 276.598 127.732 277.956 132.691V132.693Z" fill="#D31245"/>
<path fill-rule="evenodd" clip-rule="evenodd" d="M370.869 104.911C366.334 102.927 362.26 101.934 362.26 101.934C364.068 102.927 374.492 105.706 374.492 116.024C374.492 119.399 373.131 122.772 370.87 126.147C368.148 130.513 364.748 134.083 361.578 137.657C356.817 142.619 352.515 147.579 349.564 154.525C342.765 150.357 335.745 148.572 328.718 146.984C323.73 145.793 318.518 144.602 313.307 142.421C306.962 139.841 302.43 135.674 300.84 130.711C300.398 129.366 300.169 127.96 300.163 126.544C300.163 123.168 301.295 119.993 303.561 117.217C307.186 112.852 312.399 110.469 318.745 110.074C333.472 109.081 339.593 119.798 338.23 124.959C338.23 124.959 339.593 124.362 339.593 120.194C339.593 116.621 334.607 106.302 318.745 107.098C311.719 107.493 305.149 110.472 301.068 115.63C297.215 120.194 296.08 125.952 297.894 131.505C299.71 137.26 304.693 142.226 311.948 145.001C317.613 147.186 322.825 148.377 327.811 149.565C335.289 151.353 342.312 153.138 349.561 157.901L351.376 159.092L352.056 157.108C354.55 149.565 359.083 144.602 364.068 139.247C367.241 135.871 370.641 132.102 373.813 127.536C382.197 115.232 376.077 107.095 370.87 104.911H370.869ZM102.328 194.217C102.328 191.64 98.9295 190.644 94.8497 189.255C89.1851 187.469 82.3848 185.288 82.3848 178.339C82.3848 172.386 88.0533 168.816 96.8896 168.816C100.969 168.816 104.821 169.608 109.807 171.393V177.15C104.368 175.165 100.969 174.37 97.7949 174.37C93.9445 174.37 91.4515 175.561 91.4515 177.544C91.6781 179.728 94.8497 180.919 98.703 182.108C104.368 183.896 111.62 186.275 111.62 193.222C111.62 199.375 105.729 203.342 96.8896 203.342C90.3168 203.342 86.9186 201.757 83.0644 200.17V193.62C88.5054 196.596 91.9037 197.786 96.2081 197.786C100.064 197.788 102.328 196.401 102.328 194.217ZM171.448 200.173C166.689 203.344 161.7 203.344 159.66 203.344C150.37 203.344 144.251 198.583 144.251 191.241C144.251 184.295 150.144 179.136 158.302 179.136C166.007 179.136 172.353 183.901 171.9 192.432H152.863C153.317 196.599 156.49 198.982 161.7 198.982C165.101 198.982 167.594 198.186 171.448 195.607V200.173ZM164.649 188.66C164.196 185.486 162.156 183.499 158.755 183.499C155.585 183.499 153.543 185.483 153.09 188.66H164.649ZM216.09 168.614V202.95H207.703V168.614H216.09ZM236.032 172.191C236.032 174.372 233.766 176.158 231.272 176.158C228.78 176.158 226.739 174.372 226.739 172.191C226.739 169.808 228.777 168.023 231.272 168.023C233.768 168.023 236.032 169.808 236.032 172.191ZM226.969 179.728H235.353V202.949H226.969V179.728ZM254.39 182.905C257.108 180.325 259.601 179.137 263 179.137C267.307 179.137 272.747 181.319 272.747 188.068V202.95H264.361V188.661C264.361 185.487 262.547 184.097 260.283 184.097C258.241 184.097 256.653 185.09 254.39 187.869V202.951H246.003V179.728H254.39V182.905ZM306.057 184.493C304.249 184.493 306.057 184.493 306.057 184.493C306.965 185.882 307.413 187.073 307.413 188.462C307.413 190.446 306.286 192.237 304.925 193.425C300.163 197.592 292.459 195.21 292.459 197.989C292.459 200.568 302.653 198.385 306.962 202.156C308.774 203.743 309.232 205.531 309.232 206.722C309.232 212.076 303.563 214.461 295.177 214.461C283.85 214.461 280.903 210.686 280.903 207.713C280.903 205.729 282.034 203.149 287.926 201.955V201.76C286.341 201.364 284.754 200.37 284.754 198.783C284.754 196.401 288.152 195.609 289.511 195.408V195.21C286.344 194.814 282.263 192.432 282.263 188.068C282.263 185.29 284.527 179.731 294.043 179.731H309.909C309.909 179.728 309.909 184.493 306.057 184.493ZM294.952 204.538C291.102 204.538 288.604 205.729 288.604 207.316C288.604 209.102 291.103 210.095 295.407 210.095C299.26 210.095 301.522 208.706 301.522 207.119C301.522 205.531 299.031 204.538 294.952 204.538ZM294.725 192.432C297.444 192.432 299.486 190.449 299.486 187.868C299.486 185.885 297.67 183.901 294.725 183.901C292.005 183.901 289.966 185.885 289.966 188.264C289.968 190.446 292.232 192.432 294.725 192.432ZM324.636 198.982C324.636 201.364 322.373 203.344 319.653 203.344C316.931 203.344 314.665 201.361 314.665 198.982C314.665 196.601 316.933 194.616 319.653 194.616C322.373 194.616 324.636 196.599 324.636 198.982ZM359.538 202.95H351.377V200.967C348.885 202.753 346.845 203.347 343.902 203.347C336.876 203.347 331.437 198.189 331.437 191.243C331.437 184.099 336.874 179.14 344.354 179.14C346.845 179.14 349.117 179.731 351.375 180.725V168.613H359.535V202.95L359.538 202.95ZM351.377 185.486C350.022 184.691 348.211 184.096 346.616 184.096C342.312 184.096 340.045 186.68 340.045 191.438C340.045 195.607 342.312 198.385 346.392 198.385C348.209 198.385 349.562 197.788 351.377 196.599V185.486ZM388.546 191.043L399.423 202.95H388.996L378.801 191.438H378.575V202.95H370.415V168.614H378.575V191.043H378.801L388.996 179.728H398.741L388.546 191.043ZM201.135 187.668L201.814 180.325C200.226 179.532 199.095 179.137 197.734 179.137C194.562 179.137 191.842 181.516 189.353 186.278V179.728H180.969V202.949H189.353V192.825C191.164 188.658 192.977 186.077 196.152 186.077C197.508 186.08 198.866 186.479 201.135 187.668ZM138.361 184.691H128.619V194.217C128.619 196.401 130.204 197.989 132.697 197.989C134.511 197.989 136.098 197.592 138.361 196.598V201.956C135.416 202.95 133.15 203.344 130.657 203.344C125.219 203.344 120.231 201.163 120.231 194.613L120.459 184.691H116.606V183.304L127.712 172.386H128.62V179.728H138.362L138.361 184.691Z" fill="#D31245"/>
</svg>
