<svg width="480" height="320" viewBox="0 0 480 320" fill="none" xmlns="http://www.w3.org/2000/svg">
<path d="M330.6 144.232C329.123 145.01 325.907 147.621 325.907 147.621L300.793 173.066C300.793 173.066 294.919 178.838 290.732 180.134C286.547 181.917 280.565 182.492 280.565 182.492H56.582V185.397H312.768C312.768 185.397 327.604 187.583 336.869 174.86C348.63 163.529 358.691 149.21 367.956 146.621C371.149 145.238 379.42 144.24 379.42 144.24H424.615V142.004H339.464C339.464 142.004 332.085 143.446 330.6 144.232V144.232Z" fill="#240C82"/>
<path d="M274.788 137.523C274.788 137.523 267.065 137.827 263.248 139.318C260.113 140.284 255.33 143.87 255.33 143.87L231.932 167.424C231.932 167.424 226.032 172.943 222.142 174.811C218.26 176.676 213.402 176.676 213.402 176.676H56.582V179.583H242.896C242.896 179.583 252.76 179.541 257.741 177.045C262.723 174.549 265.317 171.379 265.317 171.379C265.317 171.379 290.183 146.031 294.015 144.231C295.164 143.591 299.612 141.405 300.391 141.258C302.114 140.399 313.448 139.768 313.448 139.768H424.615V137.523L274.788 137.523Z" fill="#240C82"/>
<path d="M300.391 141.26C299.612 141.407 295.164 143.593 294.015 144.232C290.183 146.032 265.317 171.381 265.317 171.381C265.317 171.381 262.723 174.55 257.741 177.046C252.76 179.542 242.896 179.584 242.896 179.584H56.582V182.491H280.565C280.565 182.491 286.547 181.917 290.732 180.134C294.919 178.838 300.793 173.066 300.793 173.066L325.907 147.621C325.907 147.621 329.123 145.009 330.6 144.232C332.085 143.446 339.464 142.004 339.464 142.004H424.615V139.77H313.448C313.448 139.77 302.114 140.4 300.391 141.26Z" fill="#EFE900"/>
<path d="M412.987 170.266H377.411L386.98 164.074L383.098 160.939L366.432 157.738H387.884L405.363 169.666L408.884 167.128L412.987 170.266Z" fill="#240C82"/>
<path d="M393.405 160.341L398.567 164.001L401.932 162.135L419.864 157.141H398.264L393.405 160.341ZM379.955 162.659L383.205 164.059C383.23 163.285 383.34 162.517 383.533 161.766L379.955 162.659ZM383.188 164.344L379.955 165.564C379.955 165.564 382.344 166.457 383.476 166.916C383.296 166.122 383.188 165.294 383.188 164.443V164.345V164.344ZM385.348 170.936L383.804 174.325L386.964 172.647C386.365 172.148 385.823 171.567 385.348 170.936H385.348ZM386.98 176.56L389.474 174.195C388.794 173.9 388.147 173.532 387.546 173.097L386.98 176.56ZM391.165 177.977L392.815 174.965C391.987 174.923 391.182 174.784 390.426 174.548L391.165 177.977ZM395.647 177.87L396.098 174.579C395.342 174.801 394.554 174.94 393.735 174.973L395.647 177.87ZM399.355 176.748L399.109 173.114C398.462 173.581 397.747 173.965 397 174.269L399.355 176.748ZM399.676 172.672L402.342 174.179L401.021 171.313C400.611 171.804 400.168 172.263 399.676 172.672ZM406.191 166.384L403.46 164.919C403.426 165.623 403.336 166.302 403.18 166.964C404.008 166.843 406.191 166.384 406.191 166.384Z" fill="#240C82"/>
<path d="M406.529 162.881L402.999 161.236C403.287 162.177 403.451 163.177 403.468 164.217C404.493 163.799 406.529 162.881 406.529 162.881V162.881ZM395.268 154.097L394.152 151.1L392.856 153.925C393.02 153.917 393.176 153.9 393.331 153.9C393.997 153.9 394.636 153.974 395.268 154.097ZM391.018 151.247L390.27 154.391C390.951 154.171 391.665 154.024 392.396 153.948L391.018 151.247ZM387.579 152.221L387.94 155.529C388.531 155.145 389.163 154.816 389.818 154.563L387.579 152.221ZM387.35 155.94L384.518 154.227L385.904 157.281C386.339 156.791 386.833 156.34 387.35 155.94ZM400.619 153.041L398.14 155.162C398.806 155.529 399.421 155.988 399.987 156.503L400.619 153.041ZM397.558 151.551L395.596 154.171C396.319 154.342 397.008 154.596 397.657 154.915L397.558 151.551ZM137.163 170.268V161.244H134.594V170.268H137.163ZM108.998 161.244V167.189L104.747 161.244H101.333V170.268H103.91V163.667L108.629 170.268H111.567V161.244H108.998ZM182.423 161.301L180.371 164.609L177.613 161.301L174.511 161.244L178.976 166.868L176.875 170.268H179.46L185.007 161.301H182.423ZM161.766 161.244L159.846 167.729L158.41 161.244H155.16L153.765 167.532L151.91 161.244H149.334L152.009 170.268H155.423L156.785 164.093L158.147 170.268H161.66L164.335 161.244H161.766ZM171.417 161.18H165.435V163.284H168.283L164.073 170.192L166.953 170.268L168.012 168.524H171.417V170.192H173.994V161.18H171.417ZM171.417 166.419H169.292L171.196 163.284H171.417V166.419ZM129.613 161.18H123.631V163.284H126.47L122.268 170.192L125.149 170.268L126.207 168.524H129.613V170.192H132.182V161.18H129.613ZM129.613 166.419H127.488L129.392 163.284H129.613V166.419ZM96.4094 161.18H90.4266V163.284H93.2662L89.0644 170.192L91.9366 170.268L92.9954 168.524H96.4094V170.192H98.9779V161.18H96.4094ZM96.4094 166.419H94.2837L96.1877 163.284H96.4094V166.419ZM191.556 164.659H187.658C187.469 164.625 187.002 164.248 187.002 164.003C187.002 163.628 187.387 163.366 187.601 163.242H193.51V161.203H187.371L187.002 161.27C186.222 161.563 184.901 162.383 184.901 164.003C184.901 165.656 186.271 166.419 187.199 166.524L187.256 166.533H191.253C191.236 166.541 191.835 166.614 191.835 167.237C191.835 167.851 191.343 168.065 191.113 168.105H184.696V170.268H191.195L191.327 170.259C192.369 170.119 194.347 169.316 194.347 167.237C194.347 165.101 192.607 164.715 191.556 164.659ZM62.6967 164.659H58.7985C58.618 164.625 58.1502 164.248 58.1502 164.003C58.1502 163.628 58.5359 163.366 58.7493 163.242H64.6498V161.203H58.5113L58.1502 161.27C57.3706 161.563 56.0493 162.383 56.0493 164.003C56.0493 165.656 57.4199 166.419 58.339 166.524L58.4046 166.533H62.3929C62.3766 166.541 62.9839 166.614 62.9839 167.237C62.9839 167.851 62.4914 168.065 62.2617 168.105H55.8359V170.268H62.3437L62.475 170.259C63.5173 170.119 65.495 169.316 65.495 167.237C65.495 165.101 63.7553 164.715 62.6967 164.659ZM85.1826 161.244H78.9374V170.268H85.1335L85.2566 170.234C86.4054 169.964 88.572 168.687 88.572 165.462C88.572 162.062 86.3562 161.284 85.1826 161.244ZM85.0431 168.285H81.5061V163.372H84.7969C85.0677 163.389 86.3316 163.619 86.3316 165.461C86.3316 167.352 85.4042 168.146 85.0431 168.285V168.285ZM74.0053 161.244V168.375H70.3042C69.8609 168.375 69.4999 168 69.4999 167.541V161.244H66.923V168.195C66.923 170.496 69.4999 170.268 69.4999 170.268H76.5823V161.244H74.0053ZM149.186 170.209L147.282 166.983C148.201 166.501 148.833 165.617 148.833 164.2C148.833 161.825 147.06 161.244 145.14 161.244H139.527V170.268H142.095V167.459H144.549L146.174 170.209H149.186ZM142.095 163.422H145.14V163.405C145.977 163.405 146.363 163.659 146.363 164.363C146.363 164.961 146.076 165.214 145.476 165.281H142.095L142.095 163.422ZM194.051 141.046L192.681 143.641L192.476 150.486L192.229 152.934L193.559 149.765L194.051 141.046ZM183.309 135.789L181.7 137.738L183.136 139.105L184.819 137.197L183.309 135.789Z" fill="#240C82"/>
<path d="M194.15 134.461C194.15 134.461 192.829 137.63 191.253 138.638C189.431 139.931 185.484 140.937 184.359 141.912C183.243 142.887 182.537 144.754 182.537 144.754L186.042 145.048C186.042 145.048 180.166 148.864 179.534 148.535C179.321 148.355 181.462 145.653 181.282 144.828C181.462 143.608 179.846 143.788 179.501 143.893C179.148 144 176.629 146.236 176.629 146.236L177.154 141.625C177.154 141.625 177.261 137.016 177.154 137.016C176.596 136.943 175.652 139.613 175.652 139.613C175.652 139.613 175.619 143.968 175.546 145.941C175.48 147.921 174.356 148.577 174.356 148.577C174.356 148.577 172.993 150.264 171.664 149.437C171.664 149.437 172.017 147.022 170.687 146.808C169.358 146.597 167.782 149.363 167.848 149.904C167.749 151.025 169.883 151.566 169.883 151.566C169.883 151.566 167.117 153.834 164.114 154.873C163.933 154.84 164.073 155.2 164.073 155.2C164.073 155.2 165.862 155.2 168.028 154.586C170.195 153.972 171.032 151.344 171.032 151.344C171.032 151.344 173.625 151.313 174.955 151.057C182.226 149.51 189.324 144.433 189.152 143.673C189.119 143.492 184.327 143.926 184.392 143.566C184.54 142.706 190.03 140.937 190.03 140.937C192.615 140.078 194.716 135.109 194.716 135.109L194.15 134.461ZM178.098 147.921C178.098 147.921 174.815 149.543 174.709 149.183C175.299 148.757 177.925 145.941 178.204 145.876C178.484 145.802 179.608 145.802 179.674 146.268C179.747 146.735 178.098 147.921 178.098 147.921V147.921ZM160.577 148.25L160.995 144.901L161.209 138.712L159.846 140.577C159.846 140.577 159.559 147.636 159.526 148.504C159.494 149.363 158.304 151.09 158.025 151.566C157.746 152.031 154.176 152.352 154.176 152.352L154.217 152.713C154.217 152.713 157.007 153.761 160.125 152.752C160.511 152.645 165.337 151.344 165.648 145.653C164.532 144.042 160.577 148.25 160.577 148.25ZM162.85 149.51L161.52 150.009C161.52 150.009 159.247 151.237 159.28 150.91C159.559 150.55 162.292 147.783 162.571 147.709C162.85 147.636 163.761 147.456 163.933 148.25C163.966 148.462 162.85 149.51 162.85 149.51ZM153.133 143.459C153.199 143.639 152.567 146.056 152.502 146.481C152.781 150.009 151 154.079 151 154.079C151 154.079 150.474 153.113 150.614 152.891C150.753 152.679 151.385 145.982 151.385 145.982C151.385 145.982 152.395 143.312 153.133 143.459ZM154.807 135.788L155.086 136.19C155.086 136.19 153.831 141.732 148.866 143.281C145.542 144.32 144.352 144.754 144.147 145.442C144.106 145.695 148.726 145.653 148.726 145.653L148.759 145.876C148.759 145.876 147.43 148.642 141.447 151.09C140.996 151.206 139.978 151.237 139.978 151.237C139.978 151.237 138.895 154.194 137.286 154.44C135.678 154.693 133.725 154.586 133.725 154.586C133.725 154.586 138.969 151.851 139.108 151.344C139.141 151.206 138.444 150.91 138.444 150.91C138.444 150.91 136.835 150.665 137.081 149.617C137.188 149.256 138.444 146.882 139.74 146.915C141.587 147.242 140.75 149.764 140.75 149.764C141.488 150.338 146.519 147.022 146.519 147.022C146.519 147.022 142.391 146.915 142.218 146.521C142.046 146.129 144.738 143.174 144.738 143.174C144.738 143.174 148.127 142.239 150.507 140.906C152.887 139.571 154.807 135.788 154.807 135.788ZM136.203 143.386L134.562 145.653V147.062C134.562 147.062 130.992 150.983 125.748 151.164C120.504 151.344 117.287 149.003 117.287 149.003L112.462 153.865L112.806 154.194L116.023 151.237C116.023 151.237 120.118 153.899 124.107 153.4C131.451 153.431 135.58 146.989 135.58 146.989L136.203 143.386ZM146.174 150.338C146.174 150.338 144.951 151.958 144.804 152.065C144.664 152.172 145.994 152.891 146.035 153.251C146.068 153.612 147.922 152.245 147.709 151.778C147.504 151.313 146.314 150.124 146.174 150.338ZM80.6775 138.531C80.6775 138.531 79.4546 140.143 79.315 140.258C79.1756 140.365 80.505 141.086 80.538 141.447C80.579 141.805 82.4254 140.439 82.2202 139.971C82.007 139.498 80.8252 138.309 80.6775 138.531ZM128.858 154.299C128.858 154.299 127.217 156.133 127.045 156.028C126.864 155.921 126.027 154.553 125.814 154.693C125.609 154.84 123.787 156.24 123.828 156.42C123.861 156.601 125.116 157.755 125.297 157.713C125.469 157.682 127.045 156.133 127.045 156.133C127.045 156.133 127.988 157.502 128.235 157.468C128.473 157.428 130.081 155.921 130.048 155.773C130.015 155.626 128.858 154.299 128.858 154.299ZM77.8216 152.916C77.8216 152.916 76.1802 154.75 76.0079 154.643C75.8356 154.538 74.9902 153.169 74.7851 153.318C74.5717 153.457 72.7498 154.865 72.791 155.045C72.8238 155.226 74.0793 156.372 74.2599 156.339C74.4322 156.305 76.0079 154.75 76.0079 154.75C76.0079 154.75 76.9516 156.125 77.1978 156.085C77.444 156.051 79.0525 154.538 79.0115 154.389C78.9787 154.251 77.8216 152.916 77.8216 152.916ZM118.264 139.825C118.124 139.875 116.343 141.371 116.516 141.552C116.688 141.732 118.017 142.6 117.878 142.78C117.738 142.96 116.269 144.287 116.409 144.54C116.548 144.794 117.459 146.163 117.632 146.129C117.812 146.087 119.454 144.36 119.421 144.107C119.38 143.853 118.198 142.887 118.198 142.887C118.198 142.887 119.905 141.34 119.733 141.011C119.56 140.692 118.477 139.751 118.264 139.825ZM59.7096 139.047C59.5701 139.089 57.7893 140.594 57.9616 140.774C58.1339 140.954 59.4634 141.814 59.3239 141.994C59.1844 142.174 57.7154 143.509 57.855 143.763C57.9944 144.016 58.9054 145.383 59.0777 145.343C59.2584 145.31 60.8996 143.583 60.8668 143.329C60.8258 143.075 59.6357 142.109 59.6357 142.109C59.6357 142.109 61.351 140.554 61.1786 140.233C61.0063 139.906 59.9232 138.973 59.7097 139.047H59.7096ZM130.853 140.979C130.853 140.979 129.983 142.486 129.63 142.526C129.277 142.56 129.105 141.478 129.105 141.478C129.105 141.478 128.333 143.174 127.635 142.813C127.283 142.6 127.914 141.086 127.914 141.086C127.914 141.086 125.92 142.74 126.618 143.819C127.184 144.647 128.686 143.427 128.686 143.427C128.686 143.427 128.752 143.746 129.457 143.746C130.155 143.746 131.173 141.658 131.173 141.658L130.853 140.979ZM71.8061 140.627C71.8061 140.627 70.9363 142.143 70.5834 142.174C70.2386 142.216 70.0582 141.134 70.0582 141.134C70.0582 141.134 69.2949 142.822 68.5893 142.461C68.2445 142.247 68.8764 140.734 68.8764 140.734C68.8764 140.734 66.8822 142.396 67.5798 143.476C68.1378 144.304 69.6397 143.075 69.6397 143.075C69.6397 143.075 69.7134 143.402 70.4111 143.402C71.1086 143.402 72.1263 141.315 72.1263 141.315L71.8061 140.627ZM110.5 145.834C110.5 145.834 109.064 147.856 108.966 148.175C108.859 148.504 108.925 155.381 108.925 155.381L108.859 156.347C108.859 156.347 108.966 156.209 109.524 155.414C110.082 154.62 110.188 148.969 110.188 148.969L110.5 145.834ZM110.008 136.37L108.539 138.818C108.539 138.818 107.915 143.566 108.014 143.566C108.12 143.566 107.004 145.335 106.307 145.442C105.601 145.549 105.428 144.721 105.428 144.721L104.066 146.163C104.066 146.163 102.983 146.521 102.909 146.194C102.844 145.876 103.016 145.368 103.016 145.368C103.016 145.368 101.128 147.709 100.184 146.735C100.217 146.521 100.521 145.802 100.521 145.802C100.521 145.802 97.8046 148.101 97.3533 147.816C97.3533 147.816 97.6979 144.901 96.5079 144.901C94.9734 144.934 93.8162 147.816 93.7178 147.997C93.611 149.583 95.5641 149.363 95.5641 149.363C95.5641 149.363 95.8104 149.298 95.6381 149.617C95.3919 150.338 89.9756 153.4 89.9756 153.4C89.9756 153.4 93.7178 152.933 94.2347 152.532C94.76 152.138 96.5818 149.583 96.5818 149.583L98.7813 148.175C98.7813 148.175 100.012 148.535 100.357 148.504C100.71 148.462 101.653 147.529 101.653 147.529C101.653 147.529 102.564 147.963 102.983 147.921C103.402 147.89 104.099 146.842 104.099 146.842C104.099 146.842 104.838 147.456 105.428 147.349C107.595 146.955 108.719 143.788 108.719 143.788L110.008 136.37ZM88.5722 144.794L87.489 147.022C87.489 147.022 89.7294 147.349 89.5487 149.583C89.3764 150.304 84.6904 153.4 84.6904 153.4L87.8008 152.933C87.8008 152.933 90.2134 151.344 90.7386 147.963C91.2638 144.574 88.5722 144.794 88.5722 144.794ZM86.3728 137.41L86.0528 138.892C86.0528 138.892 85.9543 143.534 85.9133 144.253C85.3881 147.022 84.1324 148.609 84.1324 148.609L84.6249 145.549C84.6249 145.549 84.6576 141.585 84.7234 140.652C84.7971 139.718 86.3728 137.41 86.3728 137.41V137.41ZM82.2778 144.901V145.515C82.2778 145.515 81.4408 148.822 79.4794 149.076C78.5027 149.118 77.6984 148.175 77.6984 148.175C77.6984 148.175 73.3981 152.606 66.6852 152.891C61.6053 153.113 58.2899 150.591 58.2899 150.591L56.0166 152.933L55.3848 152.966L59.2008 148.25C59.2008 148.25 62.2045 151.237 68.1871 150.803C74.1614 150.369 78.2237 146.701 78.2237 146.701C78.8557 146.597 79.2741 147.561 80.0784 147.456C80.8826 147.349 82.2778 144.901 82.2778 144.901Z" fill="#240C82"/>
</svg>
