<svg width="480" height="320" viewBox="0 0 480 320" fill="none" xmlns="http://www.w3.org/2000/svg">
<path d="M129.338 122.559L62.7148 170.644L97.2199 170.828L109.333 205.883L129.338 122.559ZM119.244 138.159L108.232 182.574L101.991 163.486H83.6382L119.244 138.159Z" fill="#CCCCCC"/>
<path d="M386.459 117.418H392.461C393.824 121.056 402.129 121.293 404.011 117.515L410.738 117.45C408.415 123.627 405.113 125.917 398.463 125.951C391.73 125.951 387.765 123.931 386.459 117.418ZM346.224 127.507C331.491 127.649 320.956 136.89 321.224 152.036C321.38 166.43 332.03 176.026 346.224 176.566H347.529C361.231 176.065 372.935 167.471 373.438 153.074C373.64 137.224 363.375 127.288 347.529 127.507H346.224ZM347.264 137.518C355.537 138.375 358.11 144.841 358.237 152.078C357.217 160.077 354.267 166.058 346.875 166.248C339.322 165.682 336.292 161.309 335.902 152.208C336.801 144.682 339.108 137.776 347.264 137.518Z" fill="#000080"/>
<path d="M296.485 161.326L307.64 174.999H327.455L307.43 151.192L325.917 128.853L307.236 129.037L297.477 140.455L289.126 128.853L271.142 128.822C278.866 139.688 278.864 139.744 286.73 150.085C278.154 160.941 278.132 160.932 267.269 174.999L286.373 174.907L296.485 161.326ZM225.325 144.952L210.689 144.906C206.464 132.813 193.044 137.462 192.014 150.274C191.201 169.683 209.633 170.269 211.56 157.891L226.61 157.799C227.651 184.689 170.408 183.607 176.873 147.889C179.153 135.116 189.091 127.915 201.833 128.067C215.677 127.848 225.327 131.934 225.325 144.952V144.952Z" fill="#000080"/>
<path d="M221.715 128.93L239.426 161.545L232.3 174.684L249.735 174.867L271.142 128.822C266.519 129.079 261.88 128.936 257.251 128.93L248.289 148.676L239.587 128.769L221.715 128.93ZM406.344 128.965L423.53 128.863L406.344 128.965ZM423.53 128.863L424.615 175.052L409.187 174.96L409.247 147.475C401.912 159.865 401.296 159.899 392.802 174.792L374.474 174.96L374.215 128.496H388.542L388.574 158.286C398.895 142.786 396.51 145.292 406.344 128.965" fill="#000080"/>
<path d="M104.56 109.539C98.1024 109.539 91.7078 110.844 85.7414 113.38C79.7751 115.916 74.354 119.633 69.7877 124.319C65.2213 129.005 61.599 134.568 59.1278 140.69C56.6565 146.812 55.3847 153.374 55.3848 160C55.3848 173.383 60.5658 186.218 69.788 195.681C79.0102 205.144 91.5181 210.461 104.56 210.461C117.602 210.461 130.11 205.144 139.333 195.681C148.555 186.218 153.736 173.383 153.736 160C153.736 153.374 152.464 146.812 149.993 140.69C147.522 134.568 143.899 129.005 139.333 124.319C134.767 119.633 129.346 115.916 123.379 113.38C117.413 110.844 111.018 109.539 104.56 109.539V109.539ZM104.56 115.061C110.149 115.061 115.682 116.228 120.845 118.496C126.008 120.763 130.699 124.087 134.65 128.277C138.602 132.467 141.736 137.441 143.875 142.916C146.013 148.39 147.114 154.258 147.114 160.184C147.114 166.109 146.013 171.977 143.875 177.451C141.736 182.926 138.602 187.9 134.65 192.09C130.699 196.28 126.008 199.604 120.845 201.871C115.682 204.139 110.149 205.306 104.56 205.306C93.2746 205.306 82.4512 200.552 74.471 192.09C66.4908 183.628 62.0076 172.151 62.0076 160.184C62.0076 148.216 66.4908 136.739 74.471 128.277C82.4512 119.815 93.2746 115.061 104.56 115.061Z" fill="#CCCCCC"/>
</svg>
