<svg width="480" height="320" viewBox="0 0 480 320" fill="none" xmlns="http://www.w3.org/2000/svg">
<path d="M306.644 90.3477L308.401 90.7266L308.94 91.335L308.791 92.7243L308.55 103.597L307.941 103.678L306.254 99.5327L305.645 95.629L305.875 91.7253M316.828 112.415L321.96 108.729L324.716 107.432L327.402 105.664L329.928 105.055L330.617 107.042L328.539 108.58L323.946 111.956L322.488 112.185L320.204 113.023L318.056 113.402M322.42 119.993L322.649 118.695L330.238 118.006L334.601 117.926L336.599 118.535L337.736 118.994L337.655 120.303L336.817 121.141L332.075 121.221L327.092 120.911L324.027 120.452M315.301 130.188L315.829 129.499L316.518 130.027L316.449 132.255L318.746 136.778L319.813 139.764L320.123 140.831L320.192 144.896L319.124 145.045L317.517 142.898L316.449 143.289L315.68 142.749L315.6 139.683L315.14 139.224L314.991 132.565M297.608 134.93L301.661 130.027L303.039 129.568L304.038 129.648L302.958 132.944L300.593 137.846L298.825 139.603L297.677 139.913L297.218 139.534M275.46 129.04L278.767 127.731L284.967 126.813L288.343 126.583L289.02 125.894V127.582L286.196 129.12L279.904 131.646L276.161 132.714L274.473 131.486L274.553 129.419M280.903 108.879L286.345 108.041L291.247 109.659L295.312 111.646L296.299 112.415L295.92 112.943L291.018 113.023L286.414 112.254L282.671 110.876L280.834 109.579M300.203 109.499L298.067 111.795L297.757 114.941L298.217 117.088L300.972 122.909L301.741 123.517L302.201 124.597L305.335 126.353L309.09 126.434L314.911 125.745L316.598 124.367L316.828 123.368L317.287 121.83L316.897 119.464L316.139 115.251L312.695 111.267L309.09 109.349L303.659 108.66L300.203 109.499ZM303.349 112.415L308.481 113.104L309.859 113.862L311.696 116.778L312.614 120.372L312.316 122.748L309.009 123.598L304.417 121.141L302.511 118.305L301.282 115.94L301.971 113.402M59.1163 193.692C62.1129 195.184 67.7617 197.32 72.7791 197.32C77.0502 197.32 79.2891 195.184 79.2891 192.624C79.2891 190.064 77.5783 188.25 72.7791 185.907C66.7972 182.911 61.7914 178.536 61.7914 172.026C61.7914 161.153 71.2865 154.001 84.7198 154.001C90.8049 154.001 95.6042 155.287 98.0612 156.676L94.4331 167.56C92.3089 166.596 88.566 165.321 83.9849 165.321C79.932 165.321 77.2569 167.021 77.2569 169.902C77.2569 172.026 79.3923 173.84 83.5486 175.769C89.3123 178.64 95.2942 182.911 95.2942 190.167C95.2942 202.119 85.1562 208.629 71.2865 208.526C64.7766 208.422 58.4848 206.712 55.3848 204.473M155.032 155.172L148.419 190.385C147.133 196.998 146.283 202.659 145.537 207.355H131.989L132.942 198.927L132.735 198.812C127.408 205.644 121.104 208.526 114.813 208.526C106.385 208.526 101.368 203.83 101.368 193.91C101.368 191.131 101.689 187.928 102.436 184.3L107.981 155.172H123.343L118.016 183.129C117.58 185.471 117.27 188.146 117.27 190.064C117.27 193.37 118.659 196.045 122.494 196.045C127.718 196.045 133.16 189.742 135.077 179.397L139.67 155.172M154.917 207.355L161.53 172.13C162.816 165.528 163.677 159.879 164.309 155.172H177.868L176.904 163.817H177.111C182.025 157.101 188.535 154.001 195.355 154.001C203.897 154.001 208.799 159.236 208.799 168.306C208.799 170.637 208.375 174.483 207.95 177.044L202.186 207.355H186.824L192.266 178.433C192.588 176.619 192.794 174.587 192.794 172.669C192.794 168.938 191.52 166.389 187.57 166.389C182.553 166.389 176.801 172.669 174.562 184.197L170.291 207.355M231.303 155.172L231.418 177.365C231.521 183.232 231.314 188.146 230.993 193.91H231.2C233.014 188.353 235.367 183.129 237.503 177.893L247.848 155.172H260.328L261.614 177.147C261.936 183.336 262.142 188.353 261.821 193.91H262.142C263.853 188.146 265.667 183.026 267.791 176.94L276.758 155.172H292.235L266.838 207.355H252.44L250.936 189.203C250.511 183.772 250.511 178.755 250.511 172.566H250.19C247.423 179.926 246.24 183.772 244.013 188.468L235.149 207.355H220.752L215.838 155.172M286.781 207.355L296.713 155.172H311.96L302.143 207.355M311.857 207.355L318.47 172.13C319.744 165.528 320.605 159.879 321.248 155.172H334.796L333.832 163.817H334.05C338.953 157.101 345.462 154.001 352.294 154.001C360.825 154.001 365.739 159.236 365.739 168.306C365.727 170.637 365.302 174.483 364.878 177.044L359.114 207.355H343.752L349.194 178.433C349.516 176.619 349.734 174.587 349.734 172.669C349.734 168.938 348.448 166.389 344.498 166.389C339.481 166.389 333.729 172.669 331.49 184.197L327.219 207.355M407.979 166.711C406.808 166.171 404.557 165.746 402.433 165.746C393.145 165.746 386.532 176.091 386.532 185.907C386.532 191.235 388.885 195.081 393.57 195.081C398.587 195.081 403.604 189.421 405.315 180.672L407.979 166.711ZM372.134 214.611C375.016 216.31 381.308 217.493 385.785 217.493C393.466 217.493 399.127 214.071 401.366 203.612L402.215 199.134H402.009C397.956 204.473 393.26 206.93 387.071 206.93C376.715 206.93 370.423 198.491 370.32 188.25C370.205 171.073 382.594 154.001 405.315 154.001C412.675 154.001 419.07 155.39 424.616 157.629L416.728 200.627C414.914 210.237 411.929 218.767 405.74 223.785C400.08 228.274 392.502 229.652 385.579 229.652C378.529 229.652 372.134 228.377 368.506 226.345" fill="#F35C17"/>
</svg>
