<svg width="480" height="320" viewBox="0 0 480 320" fill="none" xmlns="http://www.w3.org/2000/svg">
<path d="M276.521 142.739H285.909V100.46C285.909 97.8668 288.01 95.7591 290.598 95.7591H311.734V86.3672H288.262C281.776 86.3672 276.522 91.6183 276.522 98.1061V142.739M330.518 86.3672H321.13V128.647C321.13 131.237 319.029 133.336 316.432 133.336H295.296V142.739H318.786C325.272 142.739 330.518 137.48 330.518 130.987V86.3672Z" fill="#78CA33"/>
<path d="M55.7734 98.1008C55.7734 91.6161 61.0327 86.3646 67.5156 86.3646H98.0361V95.7565H69.8586C67.2671 95.7565 65.1672 97.8574 65.1672 100.458V105.154C65.1672 107.741 67.2671 109.857 69.8586 109.857H88.6564C95.137 109.857 100.393 115.107 100.393 121.595V130.985C100.393 137.477 95.137 142.735 88.6564 142.735L55.7734 142.736V133.334H86.3076C88.894 133.334 90.9999 131.234 90.9999 128.644V123.944C90.9999 121.347 88.894 119.246 86.3076 119.246H67.516C61.0327 119.246 55.7734 113.99 55.7734 107.505V98.1008ZM140.316 133.336C142.905 133.336 145.014 131.234 145.014 128.642V86.365H154.411V130.985C154.411 137.477 149.148 142.729 142.661 142.729H121.528C115.048 142.729 109.79 137.478 109.79 130.985V86.3646H119.18V128.642C119.18 131.234 121.283 133.336 123.88 133.336H140.316ZM386.885 119.246V98.1031C386.885 91.6157 381.631 86.3641 375.145 86.3641H354.008C347.53 86.3641 342.268 91.6152 342.268 98.1031V130.984C342.268 137.477 347.53 142.728 354.008 142.728L386.885 142.736V133.336H356.352C353.756 133.336 351.655 131.234 351.655 128.643V119.246H386.885ZM351.655 100.458C351.655 97.8642 353.756 95.7565 356.353 95.7565H372.8C375.396 95.7565 377.489 97.8646 377.489 100.458V109.851H351.655V100.458ZM267.126 119.246V98.1031C267.126 91.6157 261.864 86.3641 255.385 86.3641H234.249C227.762 86.3641 222.508 91.6152 222.508 98.1031V130.984C222.508 137.477 227.762 142.728 234.249 142.728L267.126 142.736V133.336H236.593C233.997 133.336 231.896 131.234 231.896 128.643V119.246H267.126ZM231.896 100.458C231.896 97.8642 233.997 95.7565 236.593 95.7565H253.032C255.629 95.7565 257.739 97.8646 257.739 100.458V109.851H231.896V100.458ZM412.711 133.336C410.115 133.336 408.013 131.234 408.013 128.642V95.7565H422.107V86.3646H408.013V72.2754H398.626V130.986C398.626 137.477 403.88 142.729 410.375 142.729L424.46 142.736V133.336H412.711M332.871 74.6183C332.871 78.5052 329.711 81.6586 325.829 81.6586C321.939 81.6586 318.787 78.5052 318.787 74.6183C318.787 70.7273 321.939 67.5703 325.829 67.5703C329.711 67.5703 332.872 70.7273 332.872 74.6179M199.019 86.3641H177.882C171.404 86.3641 166.15 91.6152 166.15 98.1003V161.522H175.546V141.745C177.023 142.399 178.62 142.737 180.235 142.736H189.597L199.019 142.734C205.505 142.734 210.767 137.476 210.767 130.984V98.1003C210.767 91.6157 205.505 86.3641 199.019 86.3641ZM201.372 128.644C201.372 131.234 199.27 133.333 196.665 133.333H180.235C177.647 133.333 175.546 131.234 175.546 128.644V100.457C175.546 97.8569 177.647 95.7628 180.235 95.7628H196.665C199.27 95.7628 201.372 97.8569 201.372 100.457V128.644Z" fill="#2154AC"/>
<path d="M55.7832 208.886H59.7852V173.753H55.7832V208.886ZM91.3878 208.886L72.3232 180.128V208.886H68.5815V173.753H72.7391L91.8505 202.511V173.753H95.3843V208.886H91.3878ZM116.023 177.123V208.886H112.02V177.123H100.496V173.752H127.455V177.123H116.023ZM132.561 208.886L132.611 173.753H151.508V177.123H136.559V188.761H150.718V192.027H136.559V205.412H152.568V208.886H132.561ZM178.836 208.886L171.95 195.979C170.734 193.66 169.31 192.661 167.104 192.661H162.945V208.886H158.933V173.753H167.208C169.996 173.753 171.099 173.804 172.888 174.074C177.629 174.751 180.529 178.017 180.529 182.647C180.529 187.241 177.308 190.872 172.627 191.654C173.999 192.027 174.677 192.713 175.579 194.294L183.734 208.886H178.836ZM174.425 178.599C173.096 177.487 171.472 177.07 168.303 177.07H162.945V189.499H168.094C170.161 189.499 170.943 189.404 172.262 188.926C174.677 188.032 176.361 185.6 176.361 182.916C176.361 181.239 175.632 179.65 174.425 178.599M211.8 208.886L192.739 180.128V208.886H189.005V173.752H193.156L212.269 202.51V173.752H215.812V208.886H211.8M249.288 208.886L244.078 195.979H229.749L224.548 208.886H220.597L235.021 173.753H239.241L253.604 208.886H249.288ZM236.87 178.173L230.965 192.826H242.819L236.87 178.173ZM266.343 177.122V208.886H262.357V177.123H250.817V173.752H277.78V177.123H266.343M282.886 208.886H286.881V173.753H282.886V208.886ZM309.789 209.616C300.566 209.616 294.106 202.198 294.106 191.715C294.106 180.918 301.096 173.066 310.787 173.066C320.001 173.066 326.488 180.397 326.488 190.924C326.488 201.668 319.324 209.616 309.789 209.616ZM322.276 190.394C321.746 182.178 316.849 176.541 310.162 176.541C303.372 176.541 298.152 182.811 298.152 190.924C298.152 199.723 303.206 205.985 310.266 205.985C317.317 205.985 322.32 200.044 322.32 191.714C322.32 191.245 322.32 190.811 322.276 190.395M356.447 208.886L337.377 180.128V208.886H333.643V173.753H337.794L356.925 202.511V173.753H360.442V208.886H356.447ZM393.936 208.886L388.716 195.979H374.406L369.186 208.886H365.227L379.668 173.753H383.871L398.251 208.886H393.936ZM381.5 178.173L375.612 192.826H387.457L381.5 178.173M402.993 208.886V173.753H406.987V205.359H422.149V208.886H402.993Z" fill="#78CA33"/>
<path d="M64.4072 240.609L61.8649 234.077L59.3213 240.609H64.4072ZM55.3848 246.776L61.4385 231.558H62.4733L68.3919 246.732L66.9731 247.175L64.9487 241.964H58.783L56.6884 247.227L55.3848 246.776ZM70.6389 236.692H71.9908V238.134C72.7994 237.386 74.1262 236.553 75.388 236.553C77.5704 236.553 78.4491 237.838 78.4491 239.237V247.045H77.099V239.732C77.099 238.359 76.2877 237.838 75.3198 237.838C73.7681 237.838 72.1236 239.41 71.9908 239.636V247.045H70.6389V236.692M93.5475 240.609L91.0034 234.077L88.4589 240.609H93.5475ZM84.521 246.776L90.5743 231.558H91.6114L97.53 246.732L96.1121 247.175L94.0872 241.964H87.9206L85.827 247.227L84.521 246.776ZM99.7783 247.045H101.126V230.82H99.7783V247.045ZM110.824 240.679C110.824 239.211 110.061 237.838 108.441 237.838C106.55 237.838 105.605 239.506 105.402 240.679H110.824ZM103.872 241.981C103.872 239.054 105.426 236.553 108.463 236.553C111.21 236.553 112.243 238.576 112.243 241.078V241.894H105.267C105.267 244.005 106.347 245.899 108.709 245.899C109.79 245.899 110.758 245.473 111.275 245.108C111.275 245.091 111.928 246.281 111.928 246.281C111.366 246.62 110.22 247.175 108.621 247.175C105.538 247.175 103.872 244.813 103.872 241.981ZM114.673 236.692H116.024V238.134C116.834 237.386 118.16 236.553 119.421 236.553C121.604 236.553 122.482 237.838 122.482 239.237V247.045H121.13V239.732C121.13 238.359 120.322 237.838 119.353 237.838C117.801 237.838 116.159 239.41 116.024 239.636V247.045H114.673V236.692ZM126.17 236.692H127.544V247.045H126.17V236.692ZM125.855 233.339C125.855 232.775 126.306 232.323 126.868 232.323C127.431 232.323 127.88 232.774 127.88 233.339C127.88 233.903 127.431 234.373 126.868 234.373C126.306 234.373 125.855 233.904 125.855 233.339ZM135.419 242.094H135.442H135.419ZM135.419 242.094C133.663 242.563 132.021 243.24 132.021 244.5C132.021 245.647 132.718 246.029 133.528 246.029C134.338 246.029 135.488 245.334 136.298 244.752V241.842L135.441 242.094L135.464 242.068C135.441 242.068 135.441 242.068 135.418 242.094L135.419 242.094ZM136.455 245.916C135.868 246.35 134.699 247.175 133.326 247.175C131.547 247.175 130.648 246.012 130.648 244.613C130.648 242.407 132.56 241.712 135.307 240.965L136.298 240.696V239.706C136.298 238.333 135.578 237.795 134.384 237.795C133.236 237.795 132.021 238.854 131.886 238.967L131.099 237.994C131.504 237.682 132.584 236.553 134.384 236.553C136.162 236.553 137.647 237.386 137.647 239.462V245.203L138.885 246.307L137.962 247.314L136.455 245.916ZM153.08 240.609L150.544 234.077L148 240.609H153.08ZM144.058 246.776L150.11 231.558H151.143L157.066 246.732L155.651 247.175L153.627 241.964H147.453L145.36 247.227L144.058 246.776ZM164.968 240.678C164.968 239.211 164.195 237.838 162.58 237.838C160.687 237.838 159.741 239.506 159.541 240.678H164.968ZM158.013 241.981C158.013 239.054 159.558 236.553 162.598 236.553C165.341 236.553 166.383 238.576 166.383 241.078V241.894H159.402C159.402 244.005 160.487 245.899 162.849 245.899C163.926 245.899 164.899 245.473 165.411 245.108C165.411 245.091 166.062 246.281 166.062 246.281C165.507 246.62 164.36 247.175 162.754 247.175C159.68 247.175 158.013 244.813 158.013 241.981ZM168.832 236.692H170.178V238.16C170.43 237.864 171.646 236.553 172.836 236.553C173.782 236.553 174.139 236.761 174.503 236.917L173.939 238.246C173.531 238.038 173.2 237.934 172.636 237.934C171.733 237.934 170.63 238.915 170.179 239.662V247.045H168.832V236.692ZM176.274 236.692H177.629V238.107C178.888 236.987 180.287 236.553 181.094 236.553C182.562 236.553 183.343 237.274 183.638 238.16C184.064 237.769 185.392 236.579 187.173 236.579C189.109 236.579 189.874 237.838 189.874 239.011V247.045H188.519V239.306C188.519 238.134 187.624 237.864 187.06 237.864C185.662 237.864 184.159 239.211 183.795 239.636V247.045H182.423V239.306C182.423 238.134 181.52 237.864 180.981 237.864C179.427 237.864 177.768 239.436 177.629 239.662V247.045H176.274V236.692ZM197.185 242.094H197.203H197.185ZM197.185 242.094C195.431 242.563 193.781 243.241 193.781 244.5C193.781 245.647 194.484 246.029 195.292 246.029C196.1 246.029 197.246 245.334 198.062 244.752V241.842L197.202 242.094L197.229 242.068C197.203 242.068 197.203 242.068 197.186 242.094H197.185ZM198.218 245.916C197.637 246.35 196.464 247.175 195.092 247.175C193.312 247.175 192.409 246.012 192.409 244.613C192.409 242.407 194.32 241.712 197.072 240.965L198.062 240.696V239.706C198.062 238.333 197.342 237.795 196.143 237.795C194.997 237.795 193.781 238.854 193.651 238.967L192.861 237.994C193.269 237.682 194.346 236.553 196.143 236.553C197.924 236.553 199.408 237.386 199.408 239.462V245.203L200.65 246.307L199.73 247.314L198.219 245.916M202.335 241.869C202.335 238.472 204.74 236.553 207.198 236.553C208.475 236.553 209.517 236.987 210.211 237.456C210.211 237.456 209.56 238.576 209.56 238.603C208.996 238.203 208.092 237.838 207.259 237.838C205.235 237.838 203.733 239.436 203.733 241.964C203.733 244.596 205.4 245.916 207.198 245.916C208.301 245.916 209.221 245.421 209.742 245.065L210.411 246.211C209.846 246.55 208.726 247.175 207.129 247.175C204.133 247.175 202.335 244.7 202.335 241.869ZM211.652 241.869C211.652 238.472 214.058 236.553 216.507 236.553C217.792 236.553 218.826 236.987 219.529 237.456C219.529 237.456 218.877 238.576 218.877 238.603C218.313 238.203 217.41 237.838 216.576 237.838C214.553 237.838 213.042 239.436 213.042 241.964C213.042 244.596 214.709 245.916 216.507 245.916C217.61 245.916 218.539 245.421 219.051 245.065L219.729 246.211C219.173 246.55 218.044 247.175 216.446 247.175C213.45 247.175 211.652 244.7 211.652 241.869ZM221.752 230.82H223.098V238.107C223.932 237.326 225.486 236.553 226.684 236.553C228.343 236.553 229.559 237.656 229.559 239.097V247.045H228.239V239.732C228.239 238.333 227.405 237.882 226.432 237.882C224.878 237.882 223.306 239.532 223.098 239.732V247.045H221.752V230.82ZM233.249 236.692H234.622V247.045H233.249V236.692ZM232.937 233.339C232.937 232.775 233.389 232.323 233.953 232.323C234.086 232.323 234.217 232.35 234.34 232.401C234.462 232.452 234.574 232.527 234.667 232.622C234.761 232.716 234.835 232.828 234.885 232.951C234.936 233.074 234.961 233.206 234.96 233.339C234.96 233.903 234.508 234.373 233.953 234.373C233.389 234.373 232.937 233.904 232.937 233.339ZM246.544 242.094H246.57H246.544ZM246.544 242.094C244.799 242.563 243.149 243.24 243.149 244.5C243.149 245.647 243.852 246.029 244.66 246.029C245.467 246.029 246.614 245.334 247.43 244.752V241.842L246.57 242.094L246.596 242.068C246.57 242.068 246.57 242.068 246.544 242.094V242.094ZM247.586 245.916C246.996 246.35 245.832 247.175 244.46 247.175C242.68 247.175 241.777 246.012 241.777 244.613C241.777 242.407 243.687 241.712 246.44 240.965L247.43 240.696V239.706C247.43 238.333 246.71 237.795 245.511 237.795C244.364 237.795 243.149 238.854 243.019 238.967L242.228 237.994C242.637 237.682 243.714 236.553 245.511 236.553C247.291 236.553 248.776 237.386 248.776 239.462V245.203L250.018 246.307L249.098 247.314L247.586 245.916ZM252.484 236.692H253.839V238.134C254.646 237.386 255.975 236.553 257.234 236.553C259.423 236.553 260.3 237.838 260.3 239.237V247.045H258.945V239.732C258.945 238.359 258.137 237.838 257.174 237.838C255.619 237.838 253.978 239.41 253.839 239.636V247.045H252.484V236.692ZM270.355 244.344V239.393C269.956 239.028 268.827 237.838 267.117 237.838C265.25 237.838 264.147 239.436 264.147 241.869C264.147 244.37 265.536 245.916 267.29 245.916C268.715 245.916 269.834 244.795 270.355 244.344ZM262.765 241.842C262.765 239.393 263.938 236.553 267.047 236.553C268.688 236.553 269.973 237.708 270.355 237.934V230.82H271.684V247.045H270.355V245.803C269.765 246.237 268.619 247.175 267.247 247.175C264.19 247.175 262.766 244.257 262.766 241.842M278.658 245.629L279.56 244.596C280.525 245.56 281.835 245.829 282.513 245.829C284.198 245.829 285.587 244.726 285.587 243.084C285.587 240.852 283.902 240.244 282.192 239.462C280.186 238.516 278.901 237.656 278.901 235.137C278.901 233.044 280.88 231.419 283.043 231.419C284.302 231.419 285.161 231.532 286.803 232.592L285.995 233.739C284.458 232.731 283.946 232.792 282.999 232.792C282.122 232.792 280.368 233.452 280.368 235.25C280.368 237.031 281.584 237.612 282.956 238.264C285.188 239.306 287.046 240.044 287.046 242.997C287.046 245.334 285.075 247.175 282.617 247.175C281.601 247.175 280.099 247.071 278.658 245.629ZM289.747 244.5V236.692H291.101V244.005C291.101 245.403 291.909 245.898 292.899 245.898C294.384 245.898 295.912 244.388 296.094 244.118V236.692H297.449V247.045H296.094V245.577C295.261 246.324 294.089 247.175 292.838 247.175C290.624 247.175 289.747 245.898 289.747 244.5ZM302.503 241.191L307.592 236.553L308.582 237.413L304.17 241.234L308.877 246.463L307.731 247.202L302.503 241.191ZM301.044 230.82H302.399V247.045H301.044V230.82ZM311.057 230.82H312.411V238.107C313.236 237.326 314.799 236.553 315.981 236.553C317.648 236.553 318.863 237.656 318.863 239.097V247.045H317.544V239.732C317.544 238.333 316.71 237.882 315.737 237.882C314.183 237.882 312.611 239.532 312.411 239.732V247.045H311.057V230.82ZM329.597 241.869C329.597 238.967 327.643 237.838 326.175 237.838C324.786 237.838 322.65 238.872 322.65 241.894C322.65 244.795 324.673 245.916 326.132 245.916C327.53 245.916 329.597 244.882 329.597 241.869ZM321.225 241.894C321.225 239.636 322.736 236.552 326.158 236.552C329.597 236.552 331.021 239.619 331.021 241.869C331.021 244.118 329.597 247.175 326.175 247.175C322.65 247.175 321.225 244.231 321.225 241.894ZM333.913 236.692H335.293V247.045H333.913V236.692ZM333.6 233.339C333.6 232.775 334.052 232.323 334.616 232.323C335.18 232.323 335.632 232.774 335.632 233.339C335.632 233.903 335.18 234.373 334.616 234.373C334.052 234.373 333.6 233.904 333.6 233.339ZM342.605 239.306C342.605 234.399 346.339 231.42 350.117 231.42C351.654 231.42 352.87 231.828 353.469 232.236L352.844 233.495C352.418 233.243 351.315 232.792 349.874 232.792C347.572 232.792 344.108 234.894 344.108 239.306C344.108 243.015 346.678 245.803 349.874 245.803C351.176 245.803 352.418 245.421 352.887 245.203L353.469 246.411C352.818 246.776 351.697 247.176 349.874 247.176C346.357 247.176 342.605 244.5 342.605 239.306ZM362.969 241.868C362.969 238.967 361.006 237.838 359.548 237.838C358.158 237.838 356.013 238.872 356.013 241.894C356.013 244.795 358.036 245.916 359.504 245.916C360.893 245.916 362.969 244.882 362.969 241.869V241.868ZM354.589 241.894C354.589 239.636 356.109 236.552 359.522 236.552C362.969 236.552 364.385 239.619 364.385 241.869C364.385 244.118 362.969 247.175 359.548 247.175C356.013 247.175 354.589 244.231 354.589 241.894ZM366.972 236.692H368.318V238.108C369.586 236.987 370.976 236.553 371.783 236.553C373.251 236.553 374.041 237.274 374.327 238.16C374.762 237.769 376.09 236.579 377.862 236.579C379.798 236.579 380.562 237.838 380.562 239.011V247.045H379.216V239.306C379.216 238.134 378.314 237.864 377.749 237.864C376.36 237.864 374.848 239.211 374.493 239.636V247.045H373.112V239.306C373.112 238.134 372.217 237.864 371.679 237.864C370.116 237.864 368.457 239.436 368.318 239.662V247.045H366.972V236.692ZM391.495 241.869C391.495 239.436 390.375 237.838 388.508 237.838C386.824 237.838 385.669 239.028 385.286 239.393V244.457C385.782 244.908 386.928 245.916 388.326 245.916C390.08 245.916 391.495 244.37 391.495 241.869ZM383.941 236.692H385.286V237.934C385.642 237.708 386.928 236.553 388.578 236.553C391.704 236.553 392.851 239.393 392.851 241.842C392.851 244.257 391.452 247.175 388.369 247.175C386.911 247.175 385.738 246.237 385.286 245.898V252.43H383.941V236.691M399.484 242.094H399.511H399.484ZM399.484 242.094C397.73 242.562 396.089 243.24 396.089 244.5C396.089 245.646 396.775 246.028 397.592 246.028C398.408 246.028 399.554 245.334 400.362 244.752V241.842L399.511 242.094L399.528 242.068C399.511 242.068 399.511 242.068 399.484 242.094ZM400.518 245.916C399.936 246.35 398.764 247.175 397.392 247.175C395.612 247.175 394.717 246.011 394.717 244.613C394.717 242.406 396.628 241.712 399.372 240.964L400.362 240.695V239.705C400.362 238.333 399.641 237.794 398.451 237.794C397.305 237.794 396.089 238.854 395.95 238.967L395.16 237.994C395.568 237.681 396.654 236.552 398.451 236.552C400.232 236.552 401.716 237.386 401.716 239.462V245.203L402.958 246.306L402.029 247.314L400.518 245.916M405.424 236.691H406.77V238.133C407.587 237.386 408.915 236.552 410.174 236.552C412.354 236.552 413.231 237.838 413.231 239.236V247.045H411.885V239.731C411.885 238.359 411.069 237.838 410.105 237.838C408.551 237.838 406.909 239.41 406.77 239.635V247.045H405.424V236.691ZM415.142 252.378V251.188C415.281 251.205 415.411 251.205 415.55 251.205C416.102 251.207 416.642 251.043 417.1 250.735C417.558 250.427 417.914 249.989 418.12 249.477L419.327 246.506L415.185 237.073L416.453 236.552L420.031 244.795L423.409 236.552L424.616 237.004L419.44 249.676C418.771 251.344 417.391 252.403 415.637 252.403C415.48 252.403 415.298 252.403 415.142 252.378Z" fill="#2154AC"/>
</svg>
