<svg width="480" height="320" viewBox="0 0 480 320" fill="none" xmlns="http://www.w3.org/2000/svg">
<path d="M66.2428 132.007C75.5375 129.847 85.2018 131.297 94.6528 130.885C94.6528 135.802 94.6528 140.719 94.6386 145.637C87.0636 145.978 79.3322 144.756 71.885 146.575C72.2972 148.465 72.2261 151.023 74.7701 151.194C81.1513 153.112 88.2574 153.695 93.6864 157.973C99.1865 162.322 99.9398 170.309 98.3054 176.69C96.7562 183.1 90.6735 187.648 84.2211 188.131C75.2817 188.87 66.2997 188.401 57.346 188.529C57.3318 183.555 57.3318 178.58 57.3318 173.62C65.1059 173.322 72.9794 174.232 80.6823 173.109C83.1268 172.753 83.2547 168.874 80.8102 168.405C74.0168 165.96 66.1575 166.145 60.1032 161.782C56.7349 159.408 55.6974 155.23 55.3848 151.364V145.58C55.669 139.284 59.9895 133.443 66.2428 132.007ZM114.266 130.899C119.538 130.885 124.811 130.885 130.098 130.899C130.098 143.718 130.055 156.523 130.098 169.343C128.833 176.719 143.585 176.761 142.477 169.414C142.59 156.566 142.477 143.732 142.519 130.899C147.764 130.885 153.008 130.885 158.252 130.885C158.224 144.159 158.266 157.419 158.238 170.679C158.423 177.046 155.14 183.555 149.313 186.44C142.249 189.893 133.779 189.879 126.317 187.761C119.382 185.772 114.365 179.064 114.337 171.872C114.18 158.214 114.322 144.557 114.266 130.899ZM176.898 130.885C185.71 130.941 194.521 130.742 203.319 130.984C209.018 131.197 215.513 132.96 218.455 138.303C221.652 144.301 220.515 151.407 220.416 157.93C220.345 162.492 217.673 166.443 213.935 168.859C216.849 175.368 219.805 181.849 222.718 188.344C217.417 188.358 212.116 188.344 206.815 188.358C204.2 182.674 201.67 176.932 199.098 171.219H192.631C192.617 176.932 192.617 182.645 192.617 188.358H176.898V130.885ZM240.498 130.885C253.644 130.885 266.79 130.87 279.95 130.899C278.302 135.745 276.682 140.591 275.076 145.438C268.794 145.466 262.512 145.438 256.216 145.452V156.466H271.537C269.931 161.341 268.311 166.187 266.634 171.034H256.216V188.344C250.972 188.358 245.742 188.358 240.498 188.344C240.483 169.2 240.498 150.043 240.498 130.885Z" fill="#08263E"/>
<path d="M309.157 130.967C312.483 130.953 315.822 130.953 319.148 130.981C325.6 150.096 332.01 169.226 338.42 188.355H330.901C328.869 182.585 326.879 176.815 324.918 171.045C317.684 171.031 310.464 171.031 303.245 171.045C301.312 176.815 299.393 182.599 297.418 188.355H289.871C296.295 169.226 302.69 150.082 309.157 130.967ZM356.057 130.953C358.544 130.953 361.031 130.953 363.518 130.967C363.532 150.096 363.532 169.212 363.518 188.341C361.031 188.341 358.544 188.355 356.057 188.355V130.953ZM385.732 130.967C394.103 131.038 402.474 130.754 410.83 131.109C416.075 131.379 422.044 134.051 423.323 139.65C424.502 145.619 424.63 151.887 423.408 157.87C422.57 162.077 418.86 164.664 415.108 166.099C418.278 173.504 421.944 180.695 424.616 188.313C422.413 188.341 420.225 188.355 418.022 188.369C414.909 181.207 411.811 174.044 408.699 166.867C403.54 166.852 398.366 166.852 393.207 166.867C393.179 174.029 393.207 181.192 393.193 188.355H385.732C385.732 169.226 385.718 150.096 385.732 130.967Z" fill="black"/>
<path d="M305.248 164.536C308.19 155.213 311.16 145.875 314.173 136.566C317.087 145.904 320.1 155.198 322.999 164.536C317.073 164.55 311.16 164.55 305.248 164.536ZM393.193 137.647C399.773 137.973 406.538 136.851 412.976 138.471C417.453 140.048 416.515 145.648 416.685 149.386C416.714 153.081 416.984 158.595 412.308 159.604C406.026 160.826 399.56 159.931 393.207 160.187C393.179 152.669 393.193 145.165 393.193 137.647ZM192.617 145.463C196.511 145.833 201.045 144.369 204.47 146.6C205.266 149.798 204.825 153.095 204.413 156.307C200.533 157.131 196.554 156.947 192.631 156.89C192.617 153.081 192.617 149.272 192.617 145.463Z" fill="white"/>
</svg>
