<svg width="480" height="320" viewBox="0 0 480 320" fill="none" xmlns="http://www.w3.org/2000/svg">
<path fill-rule="evenodd" clip-rule="evenodd" d="M424.613 211.476H55.3828V108.527H424.613V211.476Z" fill="#FAD714"/>
<path fill-rule="evenodd" clip-rule="evenodd" d="M164.136 117.998H55.3828V108.527H164.136V117.998ZM424.613 211.476H248.145V202.005H424.613V211.476ZM164.136 211.476H55.3828V202.005H164.136V211.476ZM424.613 117.998H248.145V108.527H424.613V117.998ZM69.0274 176.04L79.8223 173.799C81.1456 179.706 86.1353 182.761 94.7902 182.761C98.7622 182.761 101.816 181.946 103.955 180.418C106.094 178.891 107.112 176.957 107.112 174.716C107.112 173.087 106.704 171.559 105.687 170.133C104.77 168.707 102.632 167.689 99.4752 166.875L87.6627 163.82C83.589 162.802 80.6368 161.682 78.7023 160.358C76.7663 159.034 75.24 157.201 74.0181 154.758C72.8979 152.414 72.2865 149.869 72.2865 147.12C72.2865 141.723 74.3227 137.345 78.4979 134.086C82.5715 130.828 87.8658 129.198 94.2814 129.198C99.5756 129.198 104.261 130.318 108.435 132.661C112.712 134.902 115.36 138.16 116.479 142.335L105.89 144.88C104.261 140.297 100.391 137.955 94.4845 137.955C91.0235 137.955 88.3757 138.668 86.5424 140.094C84.7094 141.52 83.7924 143.352 83.7924 145.491C83.7924 148.953 86.6441 151.397 92.3466 152.823L102.835 155.368C109.25 156.895 113.527 159.238 115.665 162.293C117.905 165.348 118.924 168.707 118.924 172.373C118.924 178.28 116.684 182.964 112.101 186.425C107.52 189.786 101.613 191.517 94.2814 191.517C88.1715 191.517 82.7747 190.297 78.1922 187.751C73.6099 185.204 70.5549 181.335 69.0274 176.04ZM173.301 190.6L160.979 146.102L149.88 190.6H138.374L121.47 130.115H133.282L145.297 174.207L156.397 130.115H167.699L180.021 174.207L191.732 130.115H201.609L185.01 190.6H173.301ZM209.246 130.115H249.06V139.177H220.447V155.572H243.461V164.329H220.447V181.232H249.469V190.6H209.245L209.246 130.115ZM282.256 130.115H321.359V139.483H293.764V155.979H315.452V165.043H293.764V190.6H282.256V130.115ZM329.404 130.115H341.115V180.724H367.487V190.6H329.404L329.404 130.115ZM381.641 165.043L360.562 130.115H374.105L388.769 155.063L402.823 130.115H413.514L393.455 165.043V190.6H381.641V165.043Z" fill="#194887"/>
</svg>
