<svg width="480" height="320" viewBox="0 0 480 320" fill="none" xmlns="http://www.w3.org/2000/svg">
<path d="M260.769 155.918C260.769 155.918 261.436 156.154 263.525 154.817C266.814 152.788 267.169 152.572 268.147 152.184C268.636 151.968 270.37 151.019 271.925 150.112C281.171 144.674 294.994 139.106 306.061 136.344C306.906 136.128 309.852 135.167 312.649 135.047L260.664 135.265M312.472 138.373C309.583 138.67 306.859 139.971 304.55 140.746L298.105 143.077C297.75 143.123 295.661 143.94 295.661 143.94C295.661 143.94 293.749 144.76 293.527 144.803C293.349 144.803 291.171 145.753 288.638 146.961C280.77 150.673 275.17 153.781 275.57 154.169C275.703 154.255 277.259 153.91 279.037 153.435C282.104 152.572 291.26 150.328 297.438 148.904C302.239 147.825 306.728 147.005 309.573 146.702L312.51 146.366L312.472 138.373ZM307.912 152.65C307.754 152.65 307.597 152.654 307.439 152.661C306.595 152.661 304.995 152.876 303.883 153.092C295.838 154.732 292.727 155.509 287.438 157.149C284.149 158.185 281.037 159.221 280.548 159.437C280.059 159.653 277.748 160.559 275.437 161.422C273.125 162.285 270.814 163.149 270.325 163.364C269.836 163.58 268.458 164.141 267.214 164.659C266.014 165.177 264.591 165.738 264.103 165.954C263.614 166.17 262.68 166.558 262.013 166.817C261.302 167.033 260.769 167.465 260.769 167.767L260.866 177.845C260.894 177.774 263.614 175.579 265.969 174.025C272.281 170.011 284.06 164.012 298.327 157.538C300.772 156.459 304.195 154.862 305.884 154.085C309.401 152.435 309.91 152.435 307.912 152.652L307.912 152.65ZM312.533 155.987L268.218 184.91L312.595 184.956L312.533 155.987Z" fill="#DA6C1D"/>
<path d="M240.162 142.186C239.474 142.155 238.485 142.428 237.499 142.939C235.361 144.063 212.514 144.063 211.038 142.939C209.918 142.121 207.978 141.914 207.519 142.63C207.367 142.885 207.113 145.546 206.909 148.51C206.655 153.262 206.708 153.925 207.472 154.232C208.693 154.692 210.167 153.157 210.523 151.062C210.981 148.711 212.869 147.797 217.196 147.797H220.603L220.397 161.079C220.296 170.48 220.095 174.464 219.637 174.924C219.28 175.281 218.162 175.69 217.093 175.843C215.209 176.149 214.496 177.119 215.056 178.601L233.386 178.625C234.201 177.347 233.38 175.898 231.548 175.898C228.494 175.898 228.396 175.589 228.243 160.976L228.085 147.797H231.397C236.334 147.797 237.808 148.818 238.419 152.599C238.622 153.826 239.997 154.688 241.065 154.279C241.829 153.973 241.878 153.309 241.573 148.455C241.42 145.389 241.171 142.787 241.018 142.582C240.884 142.333 240.575 142.204 240.162 142.186L240.162 142.186ZM65.9652 143.248C64.0574 143.23 62.4603 143.612 60.8061 144.437C57.0904 146.244 54.7558 150.934 55.7739 154.549C56.6391 157.48 59.0264 159.728 65.2362 163.44C68.4428 165.346 71.3453 167.35 71.5998 167.839C72.3633 169.206 72.2115 172.38 71.3463 173.553C70.1756 175.116 67.2264 175.844 64.6814 175.209C61.9837 174.525 60.5592 172.963 59.134 169.202C58.1668 166.613 57.8061 166.127 56.7882 166.127C55.5666 166.127 55.5699 166.173 55.4172 171.888C55.3154 176.724 55.4132 177.659 56.075 177.903C56.533 178.099 57.2981 177.853 57.858 177.364C58.8251 176.534 58.9753 176.53 61.2658 177.507C65.8976 179.51 72.874 178.339 76.0298 175.066C78.5748 172.477 79.4362 167.981 78.011 164.708C76.8912 162.168 73.7899 159.48 68.0891 156.11C65.2386 154.4 62.5401 152.545 62.082 151.91C61.1149 150.444 61.6282 148.101 63.1043 147.075C64.5804 146.098 68.8006 146.145 70.6329 147.171C71.9564 147.952 73.7886 151.079 74.2467 153.423C74.3485 154.107 74.8079 154.406 75.6732 154.406C76.9457 154.406 76.947 154.404 77.0996 149.128C77.2524 143.364 76.8947 142.727 74.3497 143.85C73.4336 144.241 72.3108 144.196 69.8167 143.707C68.366 143.414 67.1098 143.258 65.9652 143.248L65.9652 143.248ZM202.138 143.343L187.58 143.446L172.975 143.596L172.872 144.769C172.77 146.044 173.891 146.909 175.622 146.909C178.065 146.909 178.213 147.628 178.213 160.984C178.213 168.63 178.011 173.876 177.706 174.488C177.35 175.15 176.637 175.455 175.416 175.455C174.5 175.455 173.531 175.763 173.276 176.12C172.818 176.834 172.617 178.058 172.872 178.466L191.567 178.458C191.567 177.285 191.144 175.867 188.65 175.153C186.767 174.592 186.458 173.52 186.408 167.403L186.36 162.616L191.194 162.814C196.335 162.967 197.352 163.425 197.708 165.77C197.963 167.197 199.137 168.115 200.308 167.656C201.02 167.401 201.124 166.382 201.124 160.928C201.124 155.474 201.02 154.455 200.308 154.2C199.137 153.792 197.914 154.663 197.558 156.141C197.1 157.976 195.267 158.638 190.584 158.638H186.36V146.251L191.345 146.505C197.147 146.811 198.932 147.521 199.492 149.611C200.001 151.599 201.276 152.47 202.344 151.553C203.261 150.788 203.46 146.76 202.646 144.619L202.138 143.343V143.343ZM91.7845 143.763C82.877 143.763 82.3639 143.817 82.2112 144.73C81.9567 145.947 83.3857 147.06 85.1671 147.06C86.6433 147.06 88.5634 147.623 89.5813 150.008L100.113 178.506L106.121 178.585L114.513 155.999L122.739 178.624L127.882 178.577L140.055 148.304C140.615 147.847 142.125 146.957 142.94 146.703C144.059 146.348 144.05 146.378 143.986 145.467L143.898 144.326L132.178 144.246C132.025 145.109 132.03 146.69 133.557 147.4C135.338 148.263 135.118 149.104 135.118 149.104L127.684 170.517L119.371 148.225C119.473 147.819 120.742 147.586 121.709 147.282C122.708 146.854 123.349 145.8 123.349 145.8L123.595 144.405C110.386 144.701 107.381 144.341 107.381 144.341L107.587 146.513C110.644 146.853 111.794 148.949 112.104 150.016L112.08 150.99L105.161 170.359L101.397 160.278C96.3581 148.508 96.2614 147.875 99.519 146.759C100.792 146.353 101.199 145.897 101.199 144.983V143.763H91.7843H91.7845ZM149.921 144.175C149.68 145.329 151.033 147.313 152.529 147.313C155.037 147.313 155.136 147.915 155.136 161.309C155.136 175.154 155.232 174.8 151.855 175.352C150.022 175.703 150.008 176.938 150.04 178.498L167.919 178.514V177.111C167.919 175.807 167.728 175.653 166.136 175.502C162.952 175.201 162.855 174.753 162.855 161.007C162.855 147.914 162.946 147.313 165.454 147.313C166.95 147.313 168.453 145.36 168.212 144.207L149.921 144.175ZM339.952 144.967C339.435 145.597 339.953 144.964 333.652 161.768C329.185 174.262 329.043 174.6 326.551 175.375C324.858 175.956 324.53 176.252 324.53 177.269V178.474H340.515V177.269C340.515 176.349 340.193 175.961 339.017 175.573C338.17 175.283 337.367 174.895 337.178 174.702L339.572 165.913L349.597 165.889L351.895 174.076C351.754 174.463 351.054 175.043 350.302 175.431C349.362 175.866 349.059 176.074 349.026 177.111L349.066 178.482L360.383 178.466L360.375 177.04C360.37 176.079 359.518 175.434 358.766 175.241C356.65 174.659 355.899 173.302 352.513 163.956C346.776 147.975 345.365 144.967 345.365 144.967H339.952ZM396.242 145.356C387.875 145.356 386.313 145.443 386.313 145.443C385.892 146.629 386.894 148.439 388.437 148.581C390.867 148.866 390.957 149.298 390.957 161.919C390.957 168.324 390.77 173.878 390.537 174.21C390.303 174.59 389.46 175.011 388.619 175.201C386.889 175.533 386.003 177.296 386.424 178.482L403.343 178.506V177.151C403.343 176.202 403.023 175.866 401.481 175.344C398.77 174.442 398.438 173.78 398.438 168.75V164.336H400.673C403.166 164.336 404.938 165.615 408.724 170.835C410.594 173.397 412.74 176.201 413.535 177.056L414.985 178.569H424.614V176.913C424.614 175.347 424.524 175.249 423.029 175.249C421.065 175.249 419.613 174.107 416.855 170.359C415.64 168.746 413.583 166.282 412.275 164.859C410.638 163.151 410.079 162.251 410.499 162.109C411.668 161.682 414.379 159.023 415.08 157.647C416.716 154.373 415.407 149.726 412.322 147.781C409.05 145.788 406.246 145.356 396.243 145.356H396.242ZM363.6 145.934C363.366 147.026 364.671 148.898 366.12 148.898C368.551 148.898 368.648 149.472 368.648 162.141C368.648 175.236 368.742 174.901 365.47 175.423C363.694 175.755 363.68 176.92 363.711 178.395L381.035 178.41V177.087C381.035 175.853 380.85 175.708 379.307 175.565C376.222 175.281 376.129 174.856 376.129 161.855C376.129 149.471 376.219 148.898 378.649 148.898C380.098 148.898 381.554 147.057 381.32 145.966L363.6 145.934V145.934ZM398.438 148.209H400.681C406.383 148.209 408.442 150.153 408.162 155.23C408.021 157.698 407.74 158.41 406.711 159.502C405.589 160.593 402.945 160.995 400.546 161.111H398.438C398.267 161.467 398.438 148.209 398.438 148.209ZM344.564 152.567L348.234 162.252L341.22 162.22L344.564 152.567Z" fill="#877665"/>
</svg>
