<svg width="480" height="320" viewBox="0 0 480 320" fill="none" xmlns="http://www.w3.org/2000/svg">
<path d="M123.985 117.176H170.165C163.027 145.7 156.161 174.305 149.001 202.824H55.3848V201.933L55.3922 202.804C78.1956 174.214 101.08 145.685 123.985 117.176ZM118.806 133.68C118.815 139.814 118.791 145.956 118.82 152.092C112.708 152.107 106.594 152.078 100.48 152.107C100.512 157.372 100.512 162.63 100.48 167.893C106.594 167.925 112.708 167.893 118.82 167.91C118.791 174.044 118.815 180.188 118.806 186.322C124.115 186.352 129.417 186.337 134.724 186.329C134.695 180.188 134.724 174.044 134.709 167.903C140.846 167.903 146.98 167.91 153.119 167.903C153.109 162.637 153.109 157.367 153.119 152.095C146.983 152.095 140.848 152.095 134.709 152.102C134.724 145.958 134.695 139.817 134.724 133.675C129.417 133.663 124.113 133.646 118.806 133.68ZM185.257 136.307C190.103 132.097 196.843 130.997 203.058 131.204C208.803 131.455 215.048 132.939 218.962 137.464C221.374 140.115 222.211 143.718 222.484 147.196C217.965 147.233 213.456 147.219 208.936 147.204C208.693 144.715 207.408 142.131 204.853 141.372C201.522 140.425 197.032 140.565 194.915 143.733C193.372 146.325 195.002 149.589 197.571 150.758C204.786 154.436 213.714 155.078 219.632 161.079C225.332 167.716 224.151 179.162 217.15 184.473C212.178 188.412 205.515 189.305 199.361 188.963C193.572 188.597 187.388 187.078 183.29 182.694C180.491 179.762 179.346 175.651 179.406 171.666C183.91 171.656 188.422 171.666 192.924 171.666C193.271 173.498 193.685 175.462 195.095 176.798C197.325 179.102 200.818 179.415 203.821 178.97C206.856 178.475 209.507 175.683 209.241 172.508C209.16 170.337 207.403 168.73 205.601 167.782C199.418 164.491 191.932 164.139 186.231 159.839C178.83 154.544 178.31 142.199 185.257 136.307ZM337.39 136.358C342.03 132.267 348.482 131.123 354.48 131.169C360.282 131.354 366.616 132.609 370.763 137.011C373.427 139.691 374.461 143.502 374.692 147.187C370.163 147.238 365.643 147.243 361.119 147.187C360.863 144.846 359.797 142.35 357.412 141.523C354.407 140.489 350.648 140.511 348.085 142.601C346.042 144.279 346.077 147.63 347.864 149.481C349.762 151.433 352.489 152.149 354.992 152.944C360.132 154.524 365.515 155.927 369.907 159.184C377.56 164.774 377.508 177.451 370.562 183.595C365.658 188.089 358.653 189.273 352.221 189.005C346.22 188.695 339.702 187.238 335.475 182.622C332.676 179.72 331.586 175.615 331.576 171.669C336.095 171.661 340.625 171.669 345.144 171.661C345.533 173.461 345.85 175.415 347.258 176.734C349.86 179.393 354.128 179.654 357.483 178.558C361.146 177.301 362.973 172.026 359.896 169.247C356.89 166.662 352.88 165.788 349.213 164.567C344.132 163.09 338.67 161.234 335.406 156.789C331.079 150.734 331.67 141.348 337.39 136.358ZM386.583 136.085C392.097 131.613 399.647 130.709 406.512 131.396C411.762 131.883 417.311 133.774 420.614 138.113C422.677 140.686 423.368 144.001 423.614 147.194C419.115 147.238 414.62 147.187 410.125 147.223C409.672 145.584 409.404 143.716 407.991 142.586C405.468 140.489 401.732 140.504 398.756 141.508C396.343 142.3 394.827 145.047 395.639 147.507C396.442 150.101 399.13 151.346 401.5 152.174C407.356 154.155 413.663 155.403 418.746 159.13C426.482 164.683 426.428 177.5 419.427 183.639C414.672 187.974 407.922 189.192 401.682 189.025C395.775 188.781 389.419 187.538 385.001 183.312C381.813 180.35 380.415 175.927 380.477 171.664C384.986 171.671 389.495 171.671 394 171.664C394.357 174.551 395.871 177.47 398.756 178.49C402.212 179.634 406.832 179.568 409.197 176.365C411.13 173.985 410.591 170.135 407.917 168.53C401.412 164.336 392.885 164.461 386.812 159.41C379.78 153.847 379.637 141.776 386.583 136.085ZM224.252 132.484C228.911 132.474 233.569 132.499 238.228 132.469C241.31 144.671 244.397 156.877 247.368 169.114C250.984 156.917 254.469 144.681 258.075 132.474C262.671 132.484 267.272 132.484 271.872 132.484C275.513 144.641 278.833 156.907 282.661 169.015C285.482 156.804 288.694 144.681 291.645 132.499C296.313 132.474 301.002 132.474 305.669 132.491C300.593 150.8 295.581 169.126 290.452 187.415C285.573 187.408 280.697 187.398 275.818 187.415C272.16 174.925 268.529 162.416 265.009 149.877C261.273 162.354 257.792 174.915 254.115 187.408C249.248 187.415 244.38 187.376 239.511 187.43C234.26 169.165 229.433 150.768 224.252 132.484ZM311.136 187.415C311.084 169.106 311.131 150.793 311.116 132.484H325.371C325.356 150.793 325.4 169.104 325.346 187.408C320.613 187.408 315.872 187.398 311.136 187.415Z" fill="#E60005"/>
<path d="M118.806 133.68C124.116 133.648 129.418 133.663 134.725 133.67C134.695 139.814 134.725 145.955 134.71 152.099C140.847 152.092 146.981 152.092 153.12 152.092C153.11 157.367 153.11 162.637 153.12 167.9C146.983 167.907 140.849 167.9 134.71 167.9C134.725 174.041 134.695 180.185 134.725 186.327C129.418 186.334 124.113 186.349 118.806 186.317C118.816 180.185 118.792 174.041 118.821 167.907C112.709 167.89 106.595 167.922 100.48 167.89C100.512 162.625 100.512 157.372 100.48 152.104C106.595 152.075 112.709 152.104 118.821 152.09C118.792 145.955 118.816 139.812 118.806 133.68Z" fill="white"/>
</svg>
