<svg width="480" height="320" viewBox="0 0 480 320" fill="none" xmlns="http://www.w3.org/2000/svg">
<path d="M306.588 203.736H374.117L424.615 116.266H357.089L306.588 203.736ZM373.658 168.159V187.354H357.394V168.159H338.201V151.894H357.394V132.699H373.658V151.894H392.851V168.159H373.658Z" fill="#FF0000"/>
<path d="M299.725 155.036V151.334H286.422V187.268H299.704V169.998C299.681 164.267 305.058 160.557 312.838 162.852L312.812 151.049C309.463 150.205 304.425 150.393 299.725 155.036ZM253.357 183.629V187.27H266.36V151.334H253.355V154.739C249.857 151.303 247.306 150.182 242.16 150.1C233.698 149.964 224.68 156.562 224.69 168.698C224.703 181.693 233.352 188.044 242.034 188.026C247.365 188.014 251.791 185.791 253.357 183.629ZM246.201 177.001C241.868 177.001 238.352 173.485 238.352 169.152C238.352 164.816 241.865 161.3 246.201 161.3C250.537 161.3 254.052 164.816 254.052 169.152C254.05 173.485 250.534 177.001 246.201 177.001ZM196.695 175.357L191.99 184.585C196.28 187.193 202.541 188.619 207.311 188.611C211.218 188.606 215.188 187.665 218.357 185.419C221.944 182.875 224.019 178.937 223.68 174.019C223.372 169.575 221.283 166.988 218.17 165.595C215.047 164.201 211.777 164.213 209.121 163.506C208.116 163.239 207.411 162.736 207.606 161.252C207.831 159.549 210.113 159.121 211.867 159.206C214.465 159.331 216.29 160.229 217.952 160.898L222.28 152.411C219.688 150.895 213.931 149.905 210.111 150.021C206.575 150.126 203.146 150.744 200.346 152.285C196.569 154.364 194.331 157.949 194.18 162.357C194.031 166.621 196.036 170.898 200.718 172.413C202.98 173.147 205.393 172.96 208.077 173.575C209.321 173.86 210.488 174.919 210.147 176.339C209.716 178.119 208 178.619 206.244 178.649C203.108 178.701 199.036 177.072 196.695 175.357ZM269.77 151.334H283.053V187.273H269.77V151.334ZM104.489 170.462L99.4681 151.331H85.791L97.8425 187.268H110.458L116.238 167.562L121.409 187.268H134.233L147.059 151.334H134.14L128.404 170.878L123.276 151.334H110.102L104.489 170.462Z" fill="black"/>
<path d="M276.464 145.873C280.599 145.873 283.951 142.521 283.951 138.386C283.951 134.251 280.599 130.898 276.464 130.898C272.329 130.898 268.977 134.251 268.977 138.386C268.977 142.521 272.329 145.873 276.464 145.873Z" fill="black"/>
<path d="M147.416 151.332H160.701V187.271H147.416V151.332Z" fill="black"/>
<path d="M154.116 145.873C158.251 145.873 161.603 142.521 161.603 138.386C161.603 134.251 158.251 130.898 154.116 130.898C149.981 130.898 146.629 134.251 146.629 138.386C146.629 142.521 149.981 145.873 154.116 145.873Z" fill="black"/>
<path d="M60.09 175.365L55.3848 184.596C59.6746 187.203 65.9362 188.627 70.7055 188.621C74.6132 188.616 78.5825 187.675 81.7518 185.429C85.3416 182.883 87.4134 178.947 87.075 174.029C86.7698 169.585 84.6775 166.998 81.5646 165.606C78.4415 164.211 75.1722 164.224 72.5158 163.518C71.5106 163.252 70.8055 162.749 71.0004 161.265C71.226 159.559 73.5107 159.134 75.2645 159.218C77.8594 159.344 79.6851 160.241 81.3467 160.911L85.6749 152.423C83.0826 150.908 77.3261 149.918 73.5081 150.031C69.9721 150.136 66.5413 150.754 63.7413 152.295C59.9643 154.375 57.7258 157.959 57.5745 162.37C57.4258 166.634 59.431 170.911 64.1157 172.426C66.3747 173.157 68.7875 172.972 71.4722 173.585C72.7158 173.87 73.885 174.929 73.5414 176.349C73.1107 178.129 71.3978 178.631 69.6388 178.66C66.5029 178.708 62.431 177.08 60.09 175.365ZM165.989 175.357L161.284 184.585C165.573 187.193 171.835 188.619 176.604 188.611C180.512 188.606 184.481 187.665 187.651 185.419C191.238 182.875 193.312 178.937 192.974 174.019C192.666 169.575 190.576 166.988 187.464 165.595C184.34 164.201 181.071 164.213 178.415 163.506C177.41 163.239 176.704 162.736 176.899 161.252C177.125 159.549 179.407 159.121 181.161 159.206C183.758 159.331 185.584 160.229 187.246 160.898L191.574 152.411C188.982 150.895 183.225 149.905 179.404 150.021C175.868 150.126 172.44 150.744 169.64 152.285C165.863 154.364 163.625 157.949 163.473 162.357C163.325 166.621 165.33 170.898 170.012 172.413C172.274 173.147 174.686 172.96 177.369 173.575C178.615 173.86 179.781 174.919 179.44 176.339C179.01 178.119 177.294 178.619 175.538 178.649C172.402 178.701 168.33 177.072 165.989 175.357Z" fill="black"/>
</svg>
