<svg width="480" height="320" viewBox="0 0 480 320" fill="none" xmlns="http://www.w3.org/2000/svg">
<path d="M263.593 117.568H251.442C248.869 117.568 244.673 119.159 243.724 124.178C241.091 137.641 239.454 152.406 237.592 165.58C235.886 153.039 233.109 136.245 230.606 123.322C229.876 120.247 227.02 117.568 222.837 117.568H210.487C206.305 117.568 203.445 120.247 202.719 123.322C199.648 136.329 197.286 152.945 195.708 165.439C193.862 152.303 192.224 137.594 189.6 124.179C188.65 119.159 184.46 117.568 181.883 117.568H169.732C166.258 117.568 161.024 120.15 161.615 126.393C164.007 147.897 170.095 175.855 177.115 201.259C178.218 205.948 181.985 207.724 185.148 207.724L201.142 207.721C206.05 207.721 208.626 203.79 209.101 201.193L216.505 167.397H216.818L224.223 201.193C224.698 203.79 227.274 207.721 232.182 207.721L248.17 207.724C251.334 207.724 255.101 205.948 256.203 201.259C263.228 175.855 269.317 147.897 271.708 126.393C272.298 120.15 267.066 117.568 263.59 117.568M67.0447 99.2034C67.0445 98.1373 67.2544 97.0817 67.6622 96.0968C68.0701 95.1118 68.668 94.2169 69.4218 93.4631C70.1756 92.7093 71.0706 92.1114 72.0555 91.7035C73.0404 91.2956 74.0961 91.0858 75.1621 91.0859H89.9834C94.4667 91.0859 98.1008 94.7187 98.1008 99.2034V117.566H105.939C109.008 117.566 111.503 120.06 111.503 123.135V132.165C111.502 133.64 110.915 135.054 109.872 136.096C108.828 137.138 107.413 137.723 105.939 137.723H98.1008V180.222C98.1008 185.386 101.351 187.213 105.939 187.213C109.008 187.213 111.503 189.707 111.503 192.782V202.165C111.502 203.64 110.915 205.054 109.872 206.096C108.828 207.138 107.413 207.724 105.939 207.723C101.603 208.044 97.1145 208.207 93.8259 208.207C76.4188 208.207 67.0447 197.555 67.0447 177.566V137.724H60.9474C59.4726 137.725 58.058 137.139 57.0146 136.097C55.9711 135.055 55.3842 133.641 55.3828 132.166V123.136C55.3828 120.061 57.875 117.569 60.9474 117.569H67.0447M396.982 124.011C397.366 122.189 398.365 120.555 399.81 119.382C401.256 118.209 403.061 117.568 404.923 117.568H416.496C417.672 117.567 418.833 117.822 419.901 118.315C420.968 118.807 421.916 119.526 422.678 120.421C423.44 121.316 423.999 122.366 424.315 123.499C424.632 124.631 424.699 125.818 424.511 126.979C420.409 152.085 411.443 183.126 403.281 209.822C397.057 230.156 388.938 236.999 373.588 236.999C369.83 236.999 365.731 236.933 362.512 236.762C361.781 236.762 361.058 236.618 360.383 236.339C359.708 236.059 359.095 235.649 358.578 235.132C358.062 234.616 357.652 234.002 357.374 233.327C357.095 232.651 356.952 231.928 356.953 231.197V221.569C356.953 218.494 359.442 216.004 362.517 216.004L362.503 216L363.283 216.009C370.401 216.009 372.806 211.013 372.773 209.18C372.731 206.199 372.146 204.85 371.513 202.515C365.837 184.335 359.087 155.406 353.278 127.365C353.027 126.183 353.043 124.96 353.326 123.785C353.608 122.61 354.149 121.514 354.91 120.575C355.67 119.636 356.631 118.878 357.721 118.358C358.812 117.838 360.005 117.568 361.213 117.568H373.062C374.855 117.569 376.598 118.163 378.018 119.257C379.438 120.352 380.456 121.886 380.913 123.62C383.97 134.855 387.137 156.094 389.641 169.143H389.958C392.124 154.568 394.702 134.436 396.981 124.011M298.499 208.804C283.488 208.804 273.785 198.738 273.785 183.159C273.785 167.111 284.931 156.741 308.86 150.531C314.293 149.238 316.604 146.618 316.604 141.767C316.604 138.339 314.18 135.854 310.836 135.854C307.826 135.854 305.641 137.413 304.994 140.028C303.849 144.688 300.7 146.861 295.086 146.861H287.224C281.613 146.861 278.125 143.456 278.125 137.971C278.125 137.041 278.264 136.138 278.538 135.287C283.604 118.039 300.951 115.461 310.844 115.461C322.187 115.461 330.02 117.299 335.496 121.248C341.91 125.876 345.241 133.547 345.682 144.702C346.249 157.954 346.692 184.34 345.854 198.887C345.854 203.733 341.775 207.721 336.761 207.721H326.499C321.832 207.721 318.172 204.325 317.465 199.408C313.562 205.413 306.784 208.804 298.499 208.804ZM317.145 167.518C315.912 168.529 314.256 169.357 312.539 170.222C308.477 172.255 303.877 174.563 303.277 179.848C303.008 182.163 303.551 184.136 304.845 185.549C305.408 186.159 306.091 186.647 306.85 186.983C307.609 187.319 308.429 187.496 309.259 187.503C313.995 187.503 317.145 185.35 317.145 174.855" fill="#C82F26"/>
<path d="M150.022 93.6147L149.647 92.8565V92.8512C146.62 87.0045 140.521 83.0038 133.478 83.0038C123.43 83.0038 115.281 91.1489 115.281 101.201C115.281 107.021 118.016 112.198 122.267 115.529V115.534C127.455 119.557 132.767 127.145 120.235 138.937C117.872 141.407 119.56 143.341 121.146 144.37C124.98 146.859 127.525 146.493 131.608 144.37C142.123 138.911 161.148 116.8 150.022 93.616" fill="#79A23D"/>
</svg>
