<svg width="480" height="320" viewBox="0 0 480 320" fill="none" xmlns="http://www.w3.org/2000/svg">
<path fill-rule="evenodd" clip-rule="evenodd" d="M111.324 129.242H141.468C153.359 129.242 163.002 139.076 163.002 151.214C163.002 163.348 153.359 173.184 141.468 173.184H128.547V190.761H111.324V129.242ZM128.547 146.817H141.468C143.843 146.817 145.776 148.785 145.776 151.214C145.776 153.638 143.843 155.607 141.468 155.607H128.547V146.819V146.817Z" fill="#ED1C24"/>
<path fill-rule="evenodd" clip-rule="evenodd" d="M68.2589 190.761V146.817H55.3848V129.242H111.327V190.761L108.037 179.573V179.776H88.7161L85.4822 190.761H68.2589ZM93.8824 162.199H102.927L98.4022 146.819L93.8824 162.199Z" fill="#BFD730"/>
<path fill-rule="evenodd" clip-rule="evenodd" d="M68.2598 190.761H85.4831V146.817H98.4005V129.242H85.4856L68.2598 190.761Z" fill="#46A41A"/>
<path fill-rule="evenodd" clip-rule="evenodd" d="M111.324 190.761H128.547L111.324 129.242V190.761Z" fill="#BA141A"/>
<path fill-rule="evenodd" clip-rule="evenodd" d="M241.328 173.184H244.798V162.7C245.695 162.955 246.777 163.008 247.961 163.008C251.546 163.008 254.543 162.043 256.45 160.131C257.871 158.761 258.607 156.785 258.607 154.414C258.607 152.046 257.67 150.139 256.226 148.871C254.597 147.432 252.04 146.602 248.47 146.602C245.43 146.602 243.087 146.839 241.328 147.132V173.186V173.184ZM244.798 149.661C246.008 149.445 247.236 149.344 248.465 149.358C252.249 149.358 255.134 150.839 255.134 154.583C255.134 158.14 252.529 160.2 248.096 160.2C246.8 160.2 245.679 160.101 244.798 159.838V149.663V149.661ZM274.14 173.655C281.491 173.655 287.589 168.486 287.589 159.721C287.589 152.087 282.359 146.363 274.437 146.363C266.737 146.363 261.011 152.113 261.011 160.332C261.011 167.989 266.401 173.655 274.099 173.655H274.142H274.14ZM274.191 170.849C268.311 170.849 264.652 165.921 264.652 160.215C264.652 154.308 267.993 149.169 274.295 149.169C280.584 149.169 283.874 154.529 283.874 159.889C283.874 166.146 280.19 170.849 274.231 170.849H274.191ZM290.232 173.184H293.688V161.784H297.522C300.71 161.926 302.2 163.342 303.035 166.945C303.801 170.263 304.418 172.435 304.838 173.184H308.443C307.873 172.089 307.224 169.474 306.284 165.761C305.645 163.278 304.39 161.361 302.399 160.617V160.521C305.141 159.656 307.509 157.323 307.509 153.824C307.509 151.767 306.681 149.967 305.406 148.862C303.715 147.331 301.24 146.596 297.364 146.596C294.803 146.596 292.076 146.835 290.232 147.176V173.184ZM293.688 149.661C294.322 149.498 295.623 149.317 297.583 149.317C301.212 149.317 304.031 150.656 304.031 154.201C304.031 157.19 301.65 159.133 297.818 159.133H293.688V149.661ZM318.158 173.184H321.651V149.76H330.609V146.824H309.24V149.76H318.158V173.184ZM332.654 146.824V161.682C332.654 170.423 337.128 173.655 342.865 173.655C349.06 173.655 353.694 170.128 353.694 161.6V146.824H350.206V161.771C350.206 167.938 347.374 170.823 343.038 170.823C339.04 170.823 336.152 168.022 336.152 161.773V146.824H332.654ZM380.754 159.332H371.442V162.127H377.298V169.733C376.348 170.217 374.576 170.573 371.992 170.573C364.984 170.573 360.75 166.173 360.75 159.971C360.75 153.895 365.063 149.472 372.341 149.472C375.363 149.472 377.352 150.022 378.956 150.756L379.855 147.921C378.633 147.341 375.9 146.564 372.465 146.564C362.438 146.564 357.086 153.065 357.086 160.123C357.086 163.984 358.501 167.439 360.844 169.672C363.62 172.328 367.215 173.461 371.691 173.461C375.791 173.461 379.119 172.443 380.754 171.831V159.332ZM399.877 164.776L403.001 173.184H406.782L396.933 146.824H392.673L382.926 173.184H386.587L389.577 164.776H399.877ZM390.33 162.036L393.289 154.084C393.834 152.53 394.244 151.135 394.646 149.75H394.72C395.128 151.107 395.528 152.479 396.146 154.152L399.1 162.036L390.33 162.036ZM408.814 173.184H424.616V170.212H412.3V146.824H408.811L408.814 173.184ZM204.09 173.184H209.03V146.822H204.09L204.09 173.184ZM192.8 165.545L195.463 173.184H200.887L191.473 146.824H185.054L175.918 173.184H181.1L183.575 165.545H192.797H192.8ZM184.448 161.784L186.735 155.11C187.236 153.577 187.639 151.978 188.036 150.526H188.115C188.543 151.96 188.996 153.536 189.551 155.138L191.906 161.784H184.446H184.448ZM219.259 150.926C219.844 150.827 220.883 150.71 222.47 150.71C225.103 150.71 228.237 151.435 228.237 154.898C228.237 157.508 226.119 159.13 222.709 159.13H219.259V150.926ZM219.259 163.174H222.383C225.26 163.301 226.49 164.47 227.262 167.801C227.934 170.711 228.382 172.287 228.696 173.184H233.763C233.292 172.048 232.729 169.817 231.975 166.848L231.833 166.278C231.249 164.019 230.218 162.341 228.813 161.346C231.056 160.207 233.078 157.977 233.078 154.522C233.078 152.317 232.222 150.318 230.745 149.039C228.886 147.351 226.266 146.6 222.251 146.6C219.732 146.6 216.954 146.827 214.996 147.191L214.439 147.298V173.184H219.259V163.177V163.174Z" fill="black"/>
</svg>
