<svg width="480" height="320" viewBox="0 0 480 320" fill="none" xmlns="http://www.w3.org/2000/svg">
<path d="M55.3848 104.379H424.616V215.621H55.3848V104.379Z" fill="#01185B"/>
<path fill-rule="evenodd" clip-rule="evenodd" d="M212.445 153.065L213.781 149.815C213.976 149.3 214.543 148.734 215.056 148.734H251.399C252.164 148.734 252.613 149.557 252.358 150.072L250.889 153.641C250.508 154.473 249.977 155.041 248.96 155.111H241.643C241.199 155.111 240.304 155.873 240.119 156.385L229.023 183.228C228.826 183.805 227.811 184.823 227.108 184.823H212.505C211.807 184.823 211.037 184.054 211.355 183.293L223.026 155.81C223.151 155.553 222.514 155.111 222.39 155.111H213.904C212.889 155.11 211.93 154.153 212.445 153.065ZM261.859 172.195L257.902 178.126H261.984L261.161 182.971C260.968 184.31 261.089 184.822 262.243 184.822H272.639C273.656 184.822 274.87 183.99 275.055 182.971L280.61 150.196C280.73 149.301 280.156 148.859 279.457 148.859H259.309C258.671 148.859 257.839 149.301 257.522 149.816L234.948 183.034C234.567 183.609 235.142 184.823 236.223 184.823H248.728C250.567 184.823 251.206 184.629 252.419 183.034L264.216 164.862L263.07 172.196H261.859V172.195ZM300.306 174.804L303.048 168.307H303.809C304.45 168.307 305.22 167.669 305.476 167.031L309.742 156.952C309.94 156.51 309.548 155.676 309.108 155.676H306.43L294.181 184.822H279.58C278.564 184.822 277.287 183.99 277.67 182.908L291.45 150.256C292.084 148.797 293.043 148.857 293.681 148.857H322.878C325.747 148.857 327.916 151.665 326.706 154.791L320.583 169.067C319.948 170.856 317.714 172.513 315.482 172.513C317.014 173.786 317.59 177.87 316.882 179.72L315.606 182.97C315.225 183.865 313.887 184.821 312.932 184.821H300.877C299.921 184.821 298.967 183.545 299.417 182.59L301.58 177.486C302.153 176.079 301.136 174.874 300.754 174.874L300.306 174.804ZM389.067 164.418L388.749 150.194C388.749 149.556 387.729 148.856 387.218 148.856H375.1C374.209 148.856 373.445 148.856 372.871 150.131L359.16 182.59C358.522 184.05 359.542 184.821 360.63 184.821H373.25C374.464 184.821 375.863 183.926 376.375 182.713L381.736 169.836L382.814 182.97C382.876 185.007 385.109 184.052 385.942 182.97L396.4 169.138L390.98 182.713C390.342 184.502 392.194 184.821 393.211 184.821H404.751C405.832 184.821 406.981 183.863 407.425 182.847L419.797 150.77C420.117 149.814 419.478 148.857 418.656 148.857H402.264C401.304 148.857 400.351 149.372 399.774 150.195L389.067 164.418ZM367.193 154.082L356.035 180.617C355.139 182.848 351.953 184.822 349.534 184.822H325.43C322.878 184.822 320.388 180.297 321.414 177.746L332.822 150.77C333.462 149.371 335.372 148.857 336.966 148.857H364.323C366.3 148.857 367.893 152.488 367.193 154.082ZM347.877 155.872H349.34C349.855 155.872 350.359 157.023 350.11 157.527L342.265 176.274C341.945 177.037 340.925 177.746 340.031 177.746H338.755C338.241 177.746 337.48 176.657 337.739 176.08L345.649 157.527C345.967 156.704 346.922 155.872 347.877 155.872Z" fill="white"/>
<path d="M212.158 197.616L211.414 197.769V189.124H212.812C213.631 189.124 214.287 189.35 214.78 189.808C215.273 190.264 215.519 190.871 215.519 191.629C215.519 192.277 215.336 192.82 214.97 193.256C214.6 193.698 214.111 193.966 213.498 194.059L216.114 197.308L215.428 197.736L212.161 193.453L212.753 193.462C213.37 193.462 213.85 193.305 214.196 192.987C214.541 192.667 214.715 192.223 214.715 191.655C214.715 191.085 214.542 190.641 214.196 190.321C213.85 190.002 213.37 189.843 212.753 189.843H212.161V197.616H212.158ZM220.785 190.714C221.498 190 222.369 189.645 223.398 189.645C224.424 189.645 225.291 190.001 226.001 190.714C226.711 191.43 227.066 192.314 227.066 193.368C227.066 194.415 226.709 195.298 225.994 196.011C225.282 196.726 224.413 197.084 223.386 197.084C222.357 197.084 221.488 196.727 220.777 196.014C220.067 195.301 219.712 194.421 219.712 193.368C219.712 192.314 220.071 191.432 220.785 190.714ZM219.31 195.127C219.555 195.698 219.897 196.195 220.336 196.614C220.744 197.004 221.208 197.3 221.727 197.504C222.245 197.705 222.801 197.807 223.399 197.807C223.994 197.807 224.548 197.705 225.062 197.504C225.575 197.3 226.037 197.004 226.445 196.614C226.882 196.2 227.222 195.71 227.466 195.137C227.714 194.564 227.835 193.972 227.835 193.369C227.835 192.738 227.718 192.146 227.48 191.591C227.242 191.037 226.889 190.539 226.445 190.131C226.027 189.733 225.563 189.437 225.052 189.236C224.54 189.037 223.989 188.938 223.399 188.938C222.802 188.938 222.245 189.037 221.727 189.241C221.208 189.442 220.743 189.738 220.336 190.131C219.897 190.55 219.554 191.043 219.31 191.61C219.066 192.177 218.944 192.764 218.944 193.369C218.944 193.969 219.065 194.553 219.31 195.127ZM231.542 197.793L230.808 197.63L232.57 188.84L235.446 195.917L238.334 188.84L240.084 197.63L239.35 197.793L238.086 191.346L235.446 197.793L232.808 191.346L231.542 197.793ZM248.317 193.5H245.254L246.779 190.437L248.317 193.5ZM244.879 194.209H248.663L250.425 197.701L251.155 197.478L246.815 188.864L242.368 197.497L243.083 197.703L244.879 194.209ZM254.899 197.616L254.154 197.781V188.977L259.893 195.821V189.125L260.638 188.977V197.781L254.899 190.908V197.616ZM265.476 197.616L264.705 197.725V189.124L265.476 189.013V197.616ZM274.465 193.5H271.402L272.928 190.437L274.465 193.5ZM271.027 194.209H274.811L276.573 197.701L277.305 197.478L272.964 188.864L268.515 197.497L269.227 197.703L271.027 194.209ZM281.047 197.616L280.305 197.781V188.977L286.043 195.821V189.125L286.785 188.977V197.781L281.047 190.908V197.616ZM301.62 193.5H298.554L300.079 190.437L301.62 193.5ZM298.181 194.209H301.962L303.724 197.701L304.457 197.478L300.116 188.864L295.666 197.497L296.381 197.703L298.181 194.209ZM308.272 197.616L307.503 197.725V189.124L308.272 189.013V197.616ZM313.11 197.616L312.364 197.769V189.124H313.763C314.582 189.124 315.237 189.35 315.733 189.808C316.222 190.264 316.469 190.871 316.469 191.629C316.469 192.277 316.284 192.82 315.917 193.256C315.549 193.698 315.06 193.966 314.447 194.059L317.06 197.308L316.38 197.736L313.11 193.453L313.702 193.462C314.321 193.462 314.802 193.305 315.147 192.987C315.492 192.667 315.665 192.223 315.665 191.655C315.665 191.085 315.492 190.641 315.147 190.321C314.802 190.002 314.322 189.843 313.702 189.843H313.11V197.616ZM328.529 197.616L327.77 197.725V189.855H325.417L325.608 189.125H330.696V189.855H328.529V197.616ZM334.892 197.616L334.149 197.769V189.124H335.546C336.364 189.124 337.021 189.35 337.515 189.808C338.007 190.264 338.251 190.871 338.251 191.629C338.251 192.277 338.07 192.82 337.702 193.256C337.335 193.698 336.845 193.966 336.233 194.059L338.849 197.308L338.162 197.736L334.892 193.453L335.486 193.462C336.103 193.462 336.583 193.305 336.933 192.987C337.275 192.667 337.447 192.223 337.447 191.655C337.447 191.085 337.275 190.641 336.933 190.321C336.583 190.002 336.104 189.843 335.486 189.843H334.892V197.616ZM347.17 193.5H344.108L345.633 190.437L347.17 193.5ZM343.731 194.209H347.515L349.277 197.701L350.007 197.478L345.669 188.864L341.219 197.497L341.931 197.703L343.731 194.209ZM353.751 197.616L353.006 197.781V188.977L358.743 195.821V189.125L359.49 188.977V197.781L353.751 190.908V197.616ZM363.183 196.28L363.798 195.832C364.05 196.241 364.346 196.546 364.688 196.751C365.03 196.956 365.412 197.059 365.84 197.059C366.393 197.059 366.843 196.901 367.199 196.588C367.555 196.274 367.738 195.875 367.738 195.395C367.738 194.595 367.06 193.994 365.704 193.585C365.595 193.556 365.488 193.524 365.381 193.488C364.685 193.278 364.179 192.991 363.856 192.633C363.534 192.272 363.373 191.808 363.373 191.241C363.373 190.601 363.613 190.058 364.096 189.614C364.576 189.17 365.185 188.948 365.914 188.948C366.364 188.948 366.768 189.026 367.124 189.183C367.48 189.34 367.845 189.597 368.206 189.95L367.71 190.525C367.383 190.215 367.078 189.996 366.795 189.861C366.509 189.732 366.2 189.665 365.865 189.665C365.391 189.665 364.983 189.82 364.651 190.13C364.318 190.44 364.155 190.811 364.155 191.253C364.155 191.525 364.22 191.766 364.346 191.974C364.475 192.177 364.669 192.352 364.935 192.493C365.131 192.602 365.486 192.731 365.996 192.879C366.28 192.959 366.496 193.024 366.647 193.073C367.27 193.288 367.741 193.582 368.058 193.956C368.373 194.332 368.527 194.785 368.527 195.319C368.527 196.02 368.275 196.609 367.766 197.08C367.257 197.551 366.609 197.788 365.83 197.788C365.288 197.788 364.788 197.656 364.329 197.395C363.871 197.136 363.492 196.763 363.183 196.28ZM375.305 190.407C375.699 190.783 375.897 191.301 375.897 191.962C375.897 192.626 375.699 193.143 375.305 193.517C374.914 193.893 374.366 194.081 373.663 194.081H372.996V189.842H373.663C374.366 189.843 374.914 190.03 375.305 190.407ZM372.998 194.803H373.675C374.579 194.803 375.302 194.542 375.847 194.024C376.393 193.505 376.666 192.82 376.666 191.963C376.666 191.107 376.393 190.419 375.847 189.901C375.302 189.384 374.579 189.125 373.675 189.125H372.252V197.77L372.998 197.617V194.803ZM381.788 190.714C382.501 190 383.373 189.645 384.401 189.645C385.427 189.645 386.297 190.001 387.005 190.714C387.717 191.43 388.071 192.314 388.071 193.368C388.071 194.415 387.712 195.298 387.001 196.011C386.286 196.726 385.414 197.084 384.389 197.084C383.363 197.084 382.491 196.727 381.782 196.014C381.07 195.301 380.717 194.421 380.717 193.368C380.717 192.314 381.073 191.432 381.788 190.714ZM380.312 195.127C380.556 195.698 380.898 196.195 381.338 196.614C381.749 197.004 382.211 197.3 382.731 197.504C383.25 197.705 383.804 197.807 384.401 197.807C384.996 197.807 385.551 197.705 386.065 197.504C386.58 197.3 387.038 197.004 387.448 196.614C387.883 196.2 388.225 195.71 388.471 195.137C388.718 194.564 388.841 193.972 388.841 193.369C388.841 192.738 388.721 192.146 388.484 191.591C388.247 191.036 387.902 190.549 387.448 190.131C387.032 189.733 386.568 189.437 386.056 189.236C385.543 189.037 384.993 188.938 384.401 188.938C383.804 188.938 383.248 189.037 382.731 189.241C382.212 189.442 381.749 189.738 381.338 190.131C380.898 190.55 380.556 191.043 380.312 191.61C380.07 192.177 379.949 192.764 379.949 193.369C379.949 193.969 380.069 194.553 380.312 195.127ZM393.24 197.616L392.495 197.769V189.124H393.897C394.714 189.124 395.37 189.35 395.863 189.808C396.353 190.264 396.602 190.871 396.602 191.629C396.602 192.277 396.418 192.82 396.051 193.256C395.684 193.698 395.191 193.966 394.577 194.059L397.194 197.308L396.51 197.736L393.24 193.453L393.832 193.462C394.451 193.462 394.933 193.305 395.28 192.987C395.622 192.667 395.796 192.223 395.796 191.655C395.796 191.085 395.624 190.641 395.28 190.321C394.933 190.002 394.452 189.843 393.832 189.843H393.24V197.616ZM402.747 197.616L401.989 197.725V189.855H399.635L399.822 189.125H404.914V189.855H402.747V197.616Z" fill="white"/>
<path fill-rule="evenodd" clip-rule="evenodd" d="M209.441 105.594H203.043L157.438 214.394H163.702L209.441 105.594ZM147.87 214.34L148.641 214.144L149.413 213.758L150.193 213.3L150.903 212.787L151.488 212.143L151.998 211.435L152.321 210.654L194.714 109.345L194.965 108.564L195.038 107.918L194.965 107.272L194.778 106.69L194.391 106.24L193.871 105.918L193.288 105.656L192.515 105.594H158.136L157.429 105.72L156.717 105.981L156.01 106.367L155.364 106.886L154.07 108.053L152.841 109.345L57.1518 210.654L56.766 211.301L56.5684 211.946L56.6311 212.529L56.8903 213.111L57.34 213.625L57.9234 214.081L58.5695 214.34L59.3506 214.406H147.026L147.87 214.34Z" fill="white"/>
<path fill-rule="evenodd" clip-rule="evenodd" d="M136.105 143.523C150.351 143.523 161.922 155.167 161.922 169.404C161.922 183.712 150.351 195.357 136.105 195.357C121.796 195.357 110.09 183.712 110.09 169.404C110.09 155.167 121.796 143.523 136.105 143.523ZM125.574 176.232C123.486 175.98 122.322 175.655 120.624 175.844C118.672 175.98 116.007 177.733 114.317 179.557C112.89 176.494 112.105 173.052 112.105 169.405C112.105 156.269 122.835 145.475 136.105 145.475C141.76 145.475 147.098 147.553 151.189 150.94L125.574 176.232ZM134.416 177.794L156.529 181.832C158.743 178.12 159.97 174.029 159.97 169.404C159.97 162.447 156.854 156.07 152.039 151.652L134.416 177.794ZM135.518 181.507L146.638 190.613L126.025 180.46C124.137 179.944 122.322 179.81 120.56 179.745C118.545 179.682 116.721 180.009 114.643 180.332C118.672 188.075 126.738 193.403 136.105 193.403C144.298 193.403 151.651 189.176 155.942 182.674L135.518 181.507Z" fill="#01185B"/>
</svg>
