<svg width="480" height="320" viewBox="0 0 480 320" fill="none" xmlns="http://www.w3.org/2000/svg">
<path d="M143.349 188.363V174.444H124.615V166.752H143.349V152.78H125.086V145.088H143.349V131.168H106.352V188.363H143.349ZM163.548 159.53L143.349 188.363H162.606L173.176 173.45L184.218 188.363H203.946L183.275 159.06L203.004 131.168H184.218L173.647 145.559L163.548 131.168H143.349L163.548 159.53ZM253.92 188.363H271.711V145.559H275.113C281.484 145.559 284.192 148.371 283.224 153.984C282.28 159.609 279.077 161.924 273.647 160.943L292.904 188.363H311.638L293.846 162.409C300.884 157.294 302.965 150.792 300.073 142.943C297.21 135.107 291.112 131.169 281.811 131.169H253.92V188.363ZM389.032 188.363V159.06L409.702 188.364H424.616V131.168H405.882V156.13L388.561 131.168H372.235V188.363H389.032ZM55.3848 131.168V145.088H70.2982V188.363H89.0316V145.088H106.353L96.7242 131.168H55.3848ZM202.481 131.168V145.088H217.394V188.363H236.18V145.088H253.92L243.873 131.168H202.481ZM337.122 173.921C340.955 173.921 344.239 172.561 346.96 169.839C349.669 167.13 351.042 163.848 351.042 160.002C351.042 156.169 349.667 152.885 346.96 150.163C344.24 147.455 340.955 146.082 337.122 146.082C333.276 146.082 329.979 147.456 327.233 150.164C324.512 152.883 323.15 156.169 323.15 160.002C323.15 163.848 324.51 167.131 327.232 169.839C329.98 172.559 333.276 173.921 337.122 173.921ZM306.824 160.002C306.824 151.668 309.78 144.538 315.72 138.599C321.646 132.673 328.776 129.703 337.122 129.703C345.455 129.703 352.585 132.674 358.525 138.599C364.451 144.538 367.421 151.668 367.421 160.002C367.421 168.348 364.45 175.478 358.525 181.404C352.585 187.343 345.455 190.3 337.122 190.3C328.776 190.3 321.646 187.344 315.72 181.404C309.78 175.478 306.824 168.348 306.824 160.001V160.002Z" fill="#004F85"/>
</svg>
