<svg width="480" height="320" viewBox="0 0 480 320" fill="none" xmlns="http://www.w3.org/2000/svg">
<path d="M254.981 82.4333C255.137 82.4161 255.29 82.3774 255.435 82.3183C255.278 82.3556 255.123 82.3868 254.981 82.4325V82.4333ZM256.23 81.78C256.23 81.7952 256.222 81.8005 256.222 81.8089C256.23 81.8043 256.23 81.8043 256.23 81.8005V81.78ZM160.916 262.241C160.756 262.342 160.583 262.422 160.439 262.541C160.599 262.429 160.76 262.333 160.916 262.241ZM157.339 170.38L158.243 170.859L157.339 171.501C158.9 171.681 159.245 170.803 160.024 170.292C158.868 170.452 158.647 168.791 157.339 170.38ZM231.549 90.7735C231.538 90.8009 231.527 90.8169 231.527 90.8397C231.554 90.8237 231.581 90.8032 231.608 90.7887L231.549 90.7735ZM231.528 90.8397C231.234 91.0072 230.917 91.1671 230.576 91.3171C230.947 91.2044 231.387 91.1633 231.528 90.8397ZM256.221 81.8089C255.96 81.9795 255.765 82.1881 255.435 82.3183C255.784 82.2315 256.121 82.1325 256.221 81.8081V81.8089ZM257.267 80.3088L255.482 80.1246L255.623 81.2089L257.267 80.3088ZM258.257 84.9149L258.168 84.723L256.774 85.4288L257.051 85.6664L258.257 84.9149ZM256.387 86.453L256.249 86.1621L254.916 86.6213L255.046 86.9144L256.387 86.453ZM244.602 92.9367L243.695 93.5832L244.441 93.3289L244.602 92.9367ZM257.074 84.4131L255.82 85.4045L256.856 85.0542C257.107 84.8593 257.359 84.6567 257.074 84.4131ZM258.841 81.1198C257.853 81.2302 257.913 82.1097 256.968 81.5302C256.702 81.5538 256.447 81.6473 256.229 81.8013C256.296 82.2224 258.542 82.332 258.841 81.1198ZM276.299 65.2725C276.237 65.3025 276.184 65.3456 276.141 65.3988C276.098 65.452 276.068 65.5139 276.052 65.5801C276.178 65.4986 276.271 65.3958 276.299 65.2725ZM257.919 79.8581C258.53 79.5855 257.943 79.504 257.745 79.3692C257.469 79.6091 258.028 79.2131 257.919 79.8581ZM268.873 72.2999L268.785 72.1118L267.387 72.8093L267.673 73.0476L268.873 72.2999ZM275.562 66.3058C276.13 66.1954 275.984 65.858 276.052 65.5801C275.618 65.8344 274.834 65.858 275.562 66.3058ZM346.705 193.085L345.919 192.313L345.387 193.399C345.813 193.218 346.376 192.732 346.705 193.085ZM169.201 156.893C169.226 156.876 169.252 156.859 169.279 156.844L169.561 156.547L169.201 156.893ZM267.004 73.8342L266.869 73.5472L265.531 73.9987L265.664 74.2995L267.004 73.8342ZM271.314 72.0258L271.079 71.8811L270.124 72.4332L270.374 72.5771L271.314 72.0258ZM264.807 78.0717C263.49 78.1775 262.463 79.3205 262.824 80.0956C265.041 79.3395 262.353 78.6862 264.807 78.0725V78.0717ZM257.746 79.3707C257.819 79.3045 257.959 79.1834 258.207 78.9771C257.625 79.1712 257.608 79.2847 257.746 79.3707ZM258.926 84.3453L259.738 83.5031L259.505 83.3661L258.544 84.2554L258.926 84.3453ZM262.315 80.4923L260.233 81.5462L261.699 81.0375L262.315 80.4923ZM259.758 85.1882L260.698 84.6445L260.462 84.4968L259.506 85.0481L259.758 85.1882ZM168.055 250.972L170.218 249.761C169.357 249.69 168.673 250.524 168.055 250.972H168.055ZM344.905 211.581C345.067 211.264 347.238 207.324 348.825 204.507C348.796 204.534 348.75 204.546 348.721 204.562C349.118 203.046 346.156 203.701 348.165 201.619C346.006 197.901 345.952 194.62 343.108 192.291L344.306 191.531C344.231 190.35 343.499 189.799 343.063 189.012L342.534 190.089C341.738 189.701 342.33 188.468 342.228 187.645C339.877 186.696 337.1 183.239 335.817 182.805C335.016 181.069 333.675 180.417 333.619 178.491L333.785 178.381C327.827 172.83 323.378 168.279 316.296 164.114C316.362 162.614 313.783 162.118 315.558 160.882L315.819 161.01L312.197 157.911C311.969 158.376 311.886 158.901 311.405 158.859C308.851 154.923 304.908 151.161 301.25 147.741L301.367 147.576C304.172 143.792 307.712 139.822 311.426 135.737C311.427 135.729 311.452 135.71 311.459 135.694L312.069 135.009C316.616 129.993 321.357 124.815 325.235 119.584C337.542 105.952 349.816 91.2593 341.914 77.9004C331.764 71.3671 315.213 61.6381 298.01 68.6411C297.905 68.3838 297.669 68.1843 297.647 67.965C295.441 71.8423 296.575 65.7446 292.959 66.5433C291.453 65.4842 289.217 65.4606 288.491 64.2506C285.628 67.3543 286.062 62.2785 282.843 63.4853L282.336 64.9984C282.205 63.5889 281.22 64.8186 279.639 64.3618C279.672 64.7958 280.333 65.1308 279.723 65.673C278.205 66.0788 279.803 65.0897 278.541 64.9595C277.909 65.0608 277.795 65.5458 277.432 65.8991C277.566 66.187 277.55 66.5289 278.042 66.4695C277.144 67.8934 276.079 67.8119 274.623 68.7599C274.92 68.6609 275.464 68.364 275.75 68.5993L275.585 68.9975C276.336 68.402 277.774 70.046 277.885 68.7706C278.152 68.6815 278.41 68.5513 278.626 68.5239V68.5216C279.401 65.8832 281.495 68.5947 282.184 68.6381C281.572 68.6762 281.444 69.1277 281.023 69.28L280.266 68.7485C279.044 69.8298 281.033 68.9427 280.366 69.7224C278.605 69.9828 279.303 71.5423 277.111 70.8341L277.979 69.7506C277.522 70.247 276.78 70.4968 276.111 70.1648C276.159 70.1024 276.19 70.0323 276.241 69.9516L275.464 70.6102C274.288 70.6734 274.769 69.8351 274.19 69.695C273.062 69.8549 272.398 70.6468 271.894 71.045L273.694 71.2202C274.377 73.1185 271.257 72.2733 270.876 74.0893C269.542 74.5431 269.328 72.9266 267.92 73.9774C267.459 74.0497 267.698 74.3002 267.644 74.5043C268.17 74.1053 268.713 73.9522 269.399 74.5934L268.878 75.3381C265.251 76.0302 268.489 78.3192 265.265 78.7974C265.443 78.6435 265.379 78.409 265.434 78.1989C265.033 78.4402 264.333 78.4806 264.843 78.8484C264.836 78.8484 264.83 78.8514 264.83 78.8514C264.843 78.8667 264.862 78.8666 264.882 78.8864C264.9 78.8941 264.913 78.9116 264.947 78.9299C264.961 78.9253 264.961 78.9253 264.974 78.9253C265.593 79.2032 266.246 78.875 266.853 78.6131C266.942 78.875 266.991 79.1446 267.416 79.0928C267.326 79.255 267.226 79.3791 267.122 79.5063C265.265 80.1901 262.277 80.9622 261.641 82.5216L263.336 82.3693C262.353 82.6008 261.742 83.2937 261.273 83.6615L263.07 83.8366C263.237 84.2829 263.18 84.5676 263.002 84.7915C262.736 84.8692 262.428 84.8395 262.117 84.6011C261.619 84.9948 260.192 85.2621 260.345 86.3388C260.364 86.3292 260.384 86.3238 260.405 86.3228C260.34 86.4435 260.291 86.5723 260.26 86.7058C258.928 87.1596 258.711 85.5514 257.302 86.5885C256.836 86.6708 257.074 86.9159 257.024 87.1208C257.54 86.7401 258.069 86.584 258.731 87.1741L255.971 88.3924L255.838 88.0985C256.164 87.8609 256.472 87.5746 256.763 87.3317L255.82 87.1025L255.565 87.5007L255.532 87.4185C254.748 87.57 254.246 87.9736 253.975 88.5074L252.63 88.186C252.321 87.503 253.89 87.1908 253.133 86.6624C251.328 86.8352 253.501 87.1025 252.707 87.599C250.964 88.3025 250.989 86.839 250.619 86.4004C249.671 86.4438 251.163 90.9052 252.015 93.999L251.794 94.0743C251.716 93.5383 249.946 93.7987 250.814 93.0517C250.328 93.1142 249.87 93.6045 249.352 93.2169C249.456 93.0791 249.518 92.824 250.002 92.7738L249.785 92.2849C247.413 93.0982 248.987 90.5351 248.423 91.1808L247.566 91.9194L246.814 91.394C246.794 91.7367 246.099 92.0847 246.38 92.3268C246.868 92.2766 246.924 92.0276 247.035 91.8776L248.373 92.2149L247.65 93.2482C247.467 93.1979 247.113 93.1979 247.183 92.9573L245.697 93.4599L247.038 93.7918L246.661 94.4764C246.018 95.2782 244.934 95.1259 244.105 94.9066C244.175 94.7848 243.869 94.3827 243.591 94.0743C238.595 92.3276 240.341 92.658 237.139 94.5358L238.743 97.2938C237.975 97.6928 237.026 97.8458 235.984 97.8717C229.621 91.9446 222.149 84.7291 213.918 75.8475C209.535 74.2865 208.034 69.9188 203.585 68.5102C203.426 60.0261 194.275 59.7596 188.399 56.5158C179.035 50.6069 167.53 54.1599 157.071 57.2681C146.415 60.0763 134.129 65.9136 130.012 78.4143C126.248 104.461 148.572 115.738 160.912 131.503C165.856 137.381 171.616 142.346 177.797 146.818C177.094 147.358 176.568 147.952 176.283 148.177C177.113 150.022 170.762 151.858 172.019 153.119C171.231 153.274 171.258 153.709 170.672 153.914C171.412 153.85 172.55 153.322 173.756 152.903C173.238 153.442 172.831 153.897 172.425 154.319C171.024 154.687 168.735 156.443 169.431 156.462C169.682 156.334 169.907 156.287 170.135 156.283C169.881 156.462 169.599 156.65 169.278 156.844L169.053 157.079C168.77 157.036 168.441 157.176 167.957 157.761L168.265 157.923L168.175 158.026L168.735 158.322L167.958 158.884C167.982 158.889 168.006 158.891 168.031 158.89C166.874 159.484 166.059 160.481 165.663 160.803C165.875 161.254 165.641 161.707 165.193 162.158L165.029 162.244L165.136 162.208C163.738 163.547 160.471 164.802 161.397 165.733C160.607 165.894 160.646 166.325 160.048 166.531C161.367 166.418 163.919 164.876 165.856 164.991C165.796 165.243 165.737 165.496 165.402 165.496C165.115 165.768 164.317 165.932 164.34 166.285L164.302 166.31C164.258 166.436 164.197 166.555 164.12 166.663L162.649 166.99C161.807 166.264 157.933 169.049 158.81 169.092C159.909 168.49 160.783 169.651 161.183 168.281L162.15 168.455C161.414 169.022 160.733 169.552 160.556 170.049C160.368 170.103 160.189 170.185 160.024 170.292C160.18 170.277 160.345 170.222 160.545 170.123C160.522 170.185 160.512 170.251 160.515 170.317C160.519 170.383 160.536 170.448 160.565 170.507C159.68 170.911 159.305 171.474 158.986 172.035C158.725 172.124 158.455 172.189 158.182 172.23L158.386 171.929C157.99 172.182 157.114 172.139 156.988 172.629C157.623 172.461 158.261 172.307 158.902 172.167C158.533 172.822 158.174 173.453 157.103 173.816L157.53 174.01C155.832 177.063 151.534 178.53 149.938 181.438C147.669 182.438 147.203 184.837 145.442 186.227L146.581 186.391C146.552 186.412 146.521 186.429 146.487 186.441L146.918 186.626C145.216 189.676 140.919 191.146 139.322 194.052C137.045 195.062 136.583 197.458 134.822 198.843L137.573 199.257C137.054 199.995 136.493 200.637 135.449 200.99C136.767 200.878 138.16 200.175 139.526 200.16L137.46 202.771L142.053 201.201L140.508 203.08L143.24 201.929C145.74 201.408 143.987 203.579 145.034 204.002C147.645 203.346 145.415 206.346 148.259 205.826L146.624 207.507L147.358 207.259C148.654 208.608 145.679 211.09 145.564 212.36L145.034 212.318C143.862 213.506 145.415 213.538 145.786 213.972C146.092 214.655 144.859 214.955 144.408 215.462L146.017 215.24C145.082 216.567 144.428 217.02 143.207 218.106L143.947 217.856C144.146 217.904 144.483 217.898 144.428 218.141C144.408 218.49 143.818 218.686 143.516 218.791L143.743 219.274C143.442 219.377 141.207 219.36 141.306 220.327C142.785 220.951 141.756 219.057 143 219.531C143.023 221.087 139.599 222.599 138.739 224.464C137.639 226.193 138.758 227.155 136.101 228.85C135.679 229.443 134.595 230.824 135.976 230.463L133.108 234.695C135.842 234.324 133.585 236.896 134.591 237.225C137.936 237.43 135.2 240.833 138.43 240.408C138.105 241.19 137.054 241.886 137.757 242.32C139.193 240.589 140.023 242.787 141.92 241.69C142.39 241.979 141.936 242.471 141.619 242.917L143.837 242.152C144.878 241.797 145.082 242.632 145.708 242.863L144.753 243.414L146.455 243.395C146.184 243.931 145.598 244.133 145.289 244.58C146.259 244.468 146.631 243.786 147.289 243.336C148.841 242.241 151.421 242.259 152.842 241.998L151.373 243.284L155.432 241.677C155.501 242.218 154.938 242.85 153.963 242.962L154.273 243.645C155.705 243.033 156.634 242.045 158.268 242.276C157.796 243.114 157.036 243.712 156.281 244.302C157.094 245.71 156.299 248.123 155.057 248.763L157.142 248.841L156.639 250.36C158.571 250.488 159 249.55 160.483 249.049C159.567 251.165 162.501 250.834 163.238 250.576C165.399 250.069 167.413 248.47 169.918 249.084C172.178 248.417 171.887 248.52 173.517 246.843L174.289 247.026C174.532 246.051 176.825 245.825 177.079 245.625L176.504 245.48C177.963 245.324 177.06 244.068 178.914 244.427L178.927 244.434L178.73 244.73L180.632 244.409C181.07 244.302 181.423 244.302 181.725 244.367C179.463 245.286 176.078 245.248 174.966 247.578L176.52 247.613C175.792 248.748 174.047 248.827 172.56 249.233C174.575 248.721 176.352 249.624 177.569 248.04C176.528 249.512 176.137 250.549 173.722 251.26L175.883 250.741C174.611 251.615 174.336 252.902 174.137 253.962C173.261 253.818 172.317 253.684 171.735 254.977L173.217 254.471C172.826 258.532 166.009 256.7 164.343 260.189L165.9 260.222C165.179 261.37 163.426 261.446 161.941 261.856C163.951 261.34 165.738 262.24 166.949 260.656C165.908 262.13 165.517 263.167 163.105 263.873L165.274 263.359C163.958 264.253 163.701 265.582 163.504 266.665C167.258 265.497 170.076 263.406 171.79 261.137C174.235 259.736 176.957 258.585 178.14 256.264C177.404 253.142 184.51 254.094 185.582 250.808C183.779 249.847 186.821 248.251 184.991 247.975C185.539 247.675 185.86 248.018 186.387 248.053C186.028 247.622 189.405 247.148 188.028 246.377C194.214 243.031 197.44 238.455 203.3 234.757C208.161 229.623 215.313 224.253 221.761 219.244C226.355 217.001 236.964 207.761 249.212 196.448C251.188 198.028 252.944 199.922 255.385 200.912C254.603 207.595 262.332 206.026 263.873 209.638L264.396 208.561C264.788 210.847 266.633 210.797 268.019 211.661L267.645 212.437C272.817 214.378 273.514 221.789 280.016 223.051C284.757 234.729 298.286 236.182 306.6 244.251C310.575 242.556 313.309 245.796 316.617 246.462C316.908 243.163 320.911 246.838 320.961 245.716L320.841 245.276L323.933 246.405C323.186 244.888 320.576 245.151 320.258 243.079C318.777 240.99 314.996 241.264 314.123 239.188C314.316 239.253 314.635 239.319 314.68 239.043L314.256 239.221C314.195 239.194 314.145 239.178 314.105 239.156C313.969 238.81 313.915 238.413 313.945 237.928C314.145 238.293 314.619 238.579 314.68 239.043L315.304 238.783C315.7 241.286 317.126 240.362 318.123 240.833C317.067 239.611 315.758 238.642 314.586 237.337L314.48 236.255L316.461 236.268L315.599 233.936C317.654 234.171 320.439 235.916 321.424 238.308C326.109 237.538 330.71 241.689 334.647 243.803C334.868 243.344 335.099 242.872 335.58 242.923L336.25 244.589C337.295 244.139 338.232 245.943 339.187 246.022L339.312 244.746L339.982 245.069C340.793 243.755 339.987 243.36 339.916 242.174L342.826 242.639C342.708 242.207 342.248 241.79 342.686 241.236C343.041 240.835 343.503 241.257 343.777 241.388C343.746 240.429 343.42 237.017 342.749 235.348C343.546 235.736 343.922 231.913 345.514 233.063L345.336 232.413L346.935 231.847C346.921 232.226 347.104 232.512 346.825 232.751L347.091 232.885L347.467 232.115L347.193 231.983C350.324 231.025 347.277 228.771 347.55 227.186L349.385 227.508C348.038 225.515 346.51 224.584 346.149 221.925L346.642 221.587C345.137 221.622 345.032 219.468 343.839 218.503L345.531 217.421L345.238 216.32L344.752 216.652C346.006 214.411 343.413 214.285 344.011 211.716C344.221 211.627 344.514 211.381 344.905 211.579V211.581ZM174.279 253.988C174.906 253.792 175.52 253.561 176.12 253.295C175.76 254.211 175.054 254.121 174.279 253.988ZM252.196 96.8544L252.536 96.4577C252.547 96.8331 252.454 96.9937 252.196 96.8536V96.8544ZM262.735 85.0169C262.443 85.1882 262.039 85.2986 261.64 85.4463C261.663 85.0656 261.579 84.774 262.735 85.0169ZM262.538 87.1459C262.291 87.1851 262.042 87.1994 261.792 87.1885L262.647 86.8946C262.618 86.9815 262.582 87.0656 262.538 87.1459ZM263.089 86.737C262.932 86.6022 262.739 86.5428 262.513 86.5307C262.513 86.4454 262.483 86.3365 262.429 86.1872C262.383 85.8887 263.292 86.0388 264.154 85.9253L263.089 86.737ZM266.246 82.9267C266.001 82.9419 265.742 82.9039 265.494 82.782C265.547 82.7165 265.582 82.6526 265.617 82.5703L264.849 83.2275C263.732 83.2876 264.104 82.5285 263.646 82.3366L264.331 82.2818C264.09 82.1371 263.749 82.1417 263.661 81.9452C263.981 81.684 264.318 81.4175 264.651 81.1556C264.835 81.1205 265.009 81.1205 265.127 81.2218L264.975 81.6124C265.421 81.2637 266.099 81.6954 266.607 81.8348C266.133 82.1432 265.91 82.3587 266.79 82.4455C266.602 82.6526 266.432 82.8064 266.246 82.9267ZM265.173 80.755C265.775 80.3119 266.397 79.8908 267.068 79.5763C266.516 80.2045 265.898 80.4291 265.173 80.755ZM269.243 80.0005C269.003 80.1123 268.75 80.1912 268.489 80.235C268.713 80.0164 268.966 79.9578 269.243 80.0005ZM268.352 81.2835L268.032 81.7419L267.446 81.9962L268.352 81.2835ZM267.269 81.3901C267.319 81.3741 267.37 81.3551 267.416 81.3368C267.364 81.3773 267.308 81.4144 267.251 81.448C267.257 81.4289 267.257 81.4129 267.269 81.3901ZM267.885 83.5465C267.757 83.609 267.604 83.6379 267.408 83.6379C267.74 83.1072 267.933 82.431 268.629 82.7165C268.454 83.0478 268.199 83.3219 267.885 83.5465ZM268.637 81.4792L268.775 81.3223L268.41 81.2332L269.217 80.605L269.88 80.9416L268.637 81.4792ZM271.923 74.5142C271.72 73.6842 273.568 74.7297 273.044 73.5715C272.991 73.1291 274.997 73.6606 275.857 72.9167C276.015 72.6981 276.143 72.4827 276.213 72.2603C276.163 72.5588 276.037 72.7606 275.857 72.9174C275.088 73.9507 273.484 74.8188 271.923 74.5142ZM274.874 76.8549C274.829 76.8087 274.787 76.7602 274.747 76.7095L274.985 76.7308L274.874 76.8549ZM276.15 74.1586C276.066 74.4518 275.912 74.7297 275.275 74.7175L276.151 74.1586C276.256 73.7238 276.19 73.2464 277.119 73.5243L276.15 74.1586ZM279.668 73.3743L279.253 73.6956C279.352 73.5883 279.497 73.4779 279.667 73.3751L280.525 72.6974L279.95 72.5649L280.95 71.7631C281.808 72.4096 280.465 72.871 279.667 73.3751L279.668 73.3743ZM298.911 226.781C298.707 226.932 298.558 227.143 298.536 227.509C295.435 225.047 291.676 222.252 289.29 220.326C290.28 219.667 288.374 219.496 288.295 218.31C289.787 219.995 291.596 222.405 294.219 221.775C292.841 223.586 295.717 223.463 295.834 223.904L296.211 223.122C297.871 223.533 298.116 226.17 298.911 226.781C299.333 226.469 300 226.443 300.375 226.125C299.69 226.927 299.253 227.03 298.911 226.781ZM311.561 235.782C310.526 234.512 308.716 233.815 308.436 232.348C307.203 233.851 306.843 231.193 305.477 231.28L305.223 230.78C305.669 231.569 308.236 230.725 307.348 232.198C308.194 233.186 312.04 229.709 310.558 233.769L310.851 234.861C311.216 234.465 311.535 234.812 311.937 235.014L311.561 235.782ZM314.097 237.068C314.097 237.047 314.097 237.031 314.105 237.02L314.128 237.025C314.114 237.036 314.103 237.051 314.098 237.068H314.097ZM162.728 260.406L161.525 261.154L162.565 260.796L162.728 260.406ZM265.617 82.5696L265.96 82.2878C265.815 82.3369 265.693 82.4371 265.617 82.5696ZM257.023 87.1185C256.94 87.1847 256.843 87.2556 256.762 87.3287H256.773C256.949 87.2792 257.009 87.1992 257.024 87.1185H257.023ZM165.425 254.651L167.346 255.129C166.568 255.286 166.399 255.675 165.875 256.413C166.813 256.207 167.718 255.567 168.49 255.749C167.878 256.292 169.519 256.515 168.183 256.973C169.265 257.843 169.077 255.549 170.56 255.039L168.786 255.647L169.35 255C168.515 255.063 167.566 253.702 165.425 254.651ZM349.742 201.441C349.39 201.98 349.535 202.663 349.535 203.273C349.956 202.535 350.277 201.98 350.411 201.772L349.742 201.441ZM349.536 203.273C349.317 203.646 349.076 204.06 348.825 204.507C349.412 204.217 349.526 203.767 349.536 203.273H349.536ZM170.378 254.644C170.781 254.401 171.955 254.338 171.732 253.859L170.245 254.358L170.378 254.644ZM173.348 247.794L172.142 248.532L173.184 248.19L173.348 247.794ZM243.31 93.766C243.204 93.667 243.219 93.6791 243.31 93.766V93.766ZM171.541 249.641C171.373 249.722 171.204 249.804 171.056 249.917C171.219 249.812 171.377 249.718 171.541 249.641ZM172.667 252.524L175.054 251.366L170.892 252.008L172.667 252.524ZM168.055 250.972L167.628 251.212C167.776 251.165 167.916 251.079 168.055 250.972ZM154.406 174.862L155.454 174.511L157.298 173.313L154.406 174.862ZM267.401 74.7175C267.561 74.6589 267.624 74.585 267.643 74.5028C267.552 74.5637 267.464 74.636 267.375 74.7061L267.401 74.7175ZM265.679 77.895C265.618 77.9244 265.565 77.9668 265.523 78.019C265.481 78.0713 265.451 78.1321 265.435 78.1973C265.569 78.1212 265.664 78.0199 265.679 77.895ZM243.31 93.766C243.374 93.8375 243.47 93.9449 243.59 94.0705C243.597 94.0774 243.617 94.0858 243.638 94.0987C243.525 93.9911 243.416 93.8801 243.31 93.766H243.31ZM335.083 179.576C334.809 179.327 334.537 179.075 334.266 178.822C334.373 179.24 334.543 179.568 335.083 179.576ZM265.548 75.9023C266.281 75.7576 266.832 75.1668 267.376 74.7053L266.434 74.4746L265.548 75.9023ZM261.579 82.6518C261.603 82.6046 261.625 82.5574 261.641 82.5186L261.203 82.5566L261.579 82.6518ZM334.117 178.161L333.785 178.381C333.946 178.524 334.106 178.679 334.266 178.822C334.214 178.606 334.172 178.381 334.117 178.16V178.161ZM297.647 67.9634C297.718 67.8454 297.788 67.7084 297.871 67.5561C297.688 67.7084 297.635 67.8294 297.647 67.9634ZM278.827 69.3485L279.394 68.7066L279.004 68.6122L278.494 69.3523L278.827 69.3485ZM276.24 69.9501L276.581 69.6683C276.404 69.7323 276.315 69.8427 276.24 69.9501ZM278.627 68.5223L279.005 68.613C278.953 68.5694 278.892 68.5384 278.827 68.5226C278.761 68.5067 278.693 68.5064 278.627 68.5216V68.5223ZM318.124 240.831C318.409 241.162 318.687 241.508 318.915 241.879C318.73 241.28 318.453 240.988 318.124 240.831Z" fill="#ED3024"/>
<path d="M231.417 111.975C229.285 112.368 227.411 114.359 227.25 116.421C227.085 118.483 228.687 119.824 230.823 119.427C232.967 119.027 234.83 117.028 235.001 114.969C235.158 112.91 233.562 111.567 231.417 111.975Z" fill="white"/>
<path d="M246.512 121.114C245.627 121.288 244.594 121.476 240.622 126.122C241.596 124.323 241.915 122.858 240.717 122.051C239.469 121.202 237.293 121.856 236.077 122.652C235.325 123.139 235.313 123.387 235.18 124.318C235.078 124.927 234.513 126.289 234.13 127.058L232.922 129.644C228.339 137.616 225.789 139.795 225.029 140.698C224.263 141.547 223.621 142.036 223.175 142.121C222.837 142.189 222.698 141.943 222.728 141.517C222.783 140.864 223.018 139.962 223.543 138.789C224.415 136.806 225.797 133.87 226.881 131.899C227.472 130.723 228.99 127.956 228.99 127.956C230.429 124.746 227.701 123.621 226.11 123.86C225.648 123.931 220.631 124.514 214.891 125.493C218.029 112.369 217.763 114.321 221.028 105.908C222.615 101.807 222.437 100.867 221.097 99.3112C219.75 97.7654 219.998 96.0469 218.471 95.9144C214.918 95.5968 202.631 113.332 192.739 130.572C188.086 131.971 183.42 133.631 179.122 135.578C176.273 136.883 176.817 139.258 177.071 140.479C177.433 142.182 179.282 142.938 180.753 142.099C182.984 140.846 185.539 139.657 188.273 138.545C188.188 138.725 188.161 138.823 188.188 138.811C184.443 145.867 180.237 155.713 178.86 160.089C178.088 162.534 179.314 164.714 181.411 165.675C183.511 166.63 184.941 165.614 185.645 162.341C186.524 158.258 191.84 145.624 197.219 135.413C197.219 135.413 197.251 135.372 197.282 135.308C200.467 134.296 203.677 133.365 206.908 132.515C205.015 140.553 204.533 143.878 204.552 146.645C204.579 149.367 205.578 152.546 208.555 152.116C211.533 151.681 211.047 148.889 211.373 146.297C212.127 140.361 212.249 137.787 213.654 130.997C213.69 130.986 213.73 130.908 213.772 130.79C216.464 130.164 219.164 129.574 221.872 129.022C221.598 129.625 221.282 130.286 220.944 130.982C219.638 133.635 218.228 136.902 217.332 139.258C216.48 141.614 216.009 143.468 215.888 145.042C215.611 148.519 217.082 150.391 219.689 149.9C221.641 149.537 224.623 146.904 227.983 141.667C227.596 142.92 227.365 143.942 227.341 144.58C227.241 147.296 228.581 149.526 232.964 146.563C233.399 146.268 233.459 145.827 233.47 144.967C233.705 142.035 234.886 138.15 237.504 134.179C239.546 131.121 240.983 129.384 242.858 128.584C246.172 127.142 248.284 127.594 250.138 125.343C251.947 123.161 248.174 120.805 246.513 121.114H246.512ZM208.356 126.713C206.036 127.177 203.591 127.718 201.074 128.321C205.409 120.6 210.212 112.848 214.68 106.767C212.461 112.227 210.215 119.556 208.356 126.713ZM302.076 168.869C301.123 170.424 300.271 171.727 299.05 173.065C297.943 174.271 297.07 174.753 296.594 174.574C295.328 174.118 296.046 172.313 297.342 169.656C298.054 168.223 298.803 166.81 299.588 165.416C300.7 163.611 300.929 163.102 301.012 162.458C301.124 161.533 300.544 160.919 298.824 160.207C297.729 159.722 297.636 159.633 297.19 158.368C296.568 156.807 295.241 156.033 293.611 156.259C291.148 156.603 287.276 159.591 283.852 163.822C282.6 165.241 278.342 170.98 277.818 171.706L277.149 172.591C275.293 175.139 274.769 175.743 273.948 176.649C273.128 177.452 272.468 177.916 272.012 177.976C271.681 178.025 271.54 177.772 271.604 177.346C271.686 176.697 271.965 175.813 272.548 174.664C273.512 172.724 275.033 169.857 276.207 167.946C276.854 166.789 277.966 164.712 278.054 164.488L278.683 163.388C280.3 160.498 277.825 159.104 275.968 159.245C275.242 159.311 274.023 159.835 273.428 160.29C272.941 160.613 272.874 160.744 272.735 161.396C272.574 162.218 271.469 164.622 270.326 166.741C268.889 169.336 267.327 172.517 266.315 174.839C265.363 177.142 264.799 178.983 264.597 180.552C264.155 184.005 265.533 185.957 268.157 185.587C270.126 185.315 272.217 183.445 274.801 180.473C275.619 179.522 276.539 178.235 277.416 176.886C276.941 180.737 278.861 183.399 282.143 182.938C284.321 182.637 286.169 181.032 288.54 178.422C288.853 178.114 288.966 177.984 289.141 177.964C289.309 177.928 289.46 178.074 289.473 178.39L289.588 178.752C289.916 180.511 291.235 181.333 293.142 181.067C295.493 180.747 298.069 178.994 300.899 175.422C303.174 172.608 304.082 170.547 304.561 169.269C305.104 167.8 303.052 167.274 302.076 168.869ZM288.652 173.597C287.001 175.79 285.451 177.173 284.557 177.3C284.001 177.377 283.685 176.833 283.79 176.023C284.041 174.03 287.277 167.996 289.693 165.005C291.33 162.918 293.06 161.455 293.833 161.354C294.454 161.267 294.685 161.602 294.577 162.413C294.35 164.198 290.889 170.75 288.652 173.597ZM279.625 155.554C281.761 155.155 283.632 153.16 283.795 151.102C283.957 149.038 282.358 147.702 280.218 148.1C278.076 148.493 276.214 150.488 276.042 152.546C275.886 154.616 277.49 155.957 279.625 155.553V155.554ZM248.237 164.426C247.938 164.469 247.635 164.509 247.322 164.558C250.476 151.411 250.209 153.367 253.473 144.958C255.065 140.851 254.881 139.907 253.534 138.351C252.196 136.805 252.43 135.092 250.911 134.954C247.37 134.637 235.125 152.292 225.248 169.507C220.607 170.9 215.947 172.583 211.673 174.608C208.997 175.87 209.545 178.255 209.8 179.466C210.155 181.178 211.901 181.952 213.27 181.135C215.482 179.829 218.036 178.598 220.772 177.468C220.65 177.729 213.264 192.377 211.3 199.129C210.582 201.588 211.76 203.759 213.861 204.71C215.955 205.669 217.387 204.659 218.088 201.388C218.964 197.309 225.996 180.963 229.834 174.164C233.078 173.124 236.335 172.209 239.362 171.407C239.358 171.469 237.007 180.887 236.995 185.691C236.989 188.412 238.018 191.588 240.99 191.16C243.981 190.725 243.485 187.931 243.815 185.338C244.575 179.401 244.692 176.832 246.094 170.046C246.144 170.019 246.206 169.906 246.264 169.721C247.039 169.533 247.791 169.363 248.488 169.211C252.206 168.399 253.261 168.434 253.517 165.518C253.671 163.71 249.519 164.21 248.237 164.426ZM247.116 145.808C244.908 151.259 242.669 158.563 240.809 165.704C238.386 166.182 235.973 166.705 233.571 167.274C237.903 159.578 242.67 151.866 247.117 145.808H247.116Z" fill="white"/>
<path d="M252.961 188.279C251.033 188.483 246.837 187.533 246.145 184.166C245.89 183.077 247.476 180.16 247.805 179.658C248.371 178.78 249.261 179.3 249.549 179.741C250.212 180.711 253.748 183.878 255.799 181.832C257.116 180.511 255.072 178.778 254.219 177.377C251.068 172.185 255.322 166.158 256.664 164.828C259.572 161.969 261.622 161.705 263.067 161.666C267.204 161.527 268.634 163.873 268.32 165.259C267.971 166.781 267.168 167.675 266.604 168.272C266.211 168.713 265.043 168.831 264.68 168.298C263.801 167.011 263.289 165.283 260.73 166.315C258.683 167.144 258.564 169.935 259.002 171.301C259.718 173.484 262.626 175.125 262.6 178.274C262.537 186.396 255.402 188.021 252.961 188.279Z" fill="white"/>
</svg>
