<svg width="480" height="320" viewBox="0 0 480 320" fill="none" xmlns="http://www.w3.org/2000/svg">
<mask id="mask0_730_18157" style="mask-type:luminance" maskUnits="userSpaceOnUse" x="132" y="52" width="216" height="216">
<path d="M132.367 52.375H347.172V267.18H132.367V52.375Z" fill="white"/>
</mask>
<g mask="url(#mask0_730_18157)">
<mask id="mask1_730_18157" style="mask-type:luminance" maskUnits="userSpaceOnUse" x="133" y="53" width="214" height="214">
<path d="M133.332 160.003C133.332 218.912 181.091 266.669 239.993 266.669C298.913 266.669 346.665 218.912 346.665 160.003C346.665 101.095 298.913 53.3359 239.993 53.3359C181.091 53.3359 133.332 101.095 133.332 160.003Z" fill="white"/>
</mask>
<g mask="url(#mask1_730_18157)">
<path d="M346.665 160.003C346.665 218.912 298.913 266.669 239.993 266.669C181.091 266.669 133.332 218.912 133.332 160.003C133.332 101.095 181.091 53.3359 239.993 53.3359C298.913 53.3359 346.665 101.095 346.665 160.003Z" fill="#E32323"/>
</g>
</g>
<mask id="mask2_730_18157" style="mask-type:luminance" maskUnits="userSpaceOnUse" x="148" y="120" width="186" height="79">
<path d="M148.551 120.051H333.93V198.028H148.551V120.051Z" fill="white"/>
</mask>
<g mask="url(#mask2_730_18157)">
<mask id="mask3_730_18157" style="mask-type:luminance" maskUnits="userSpaceOnUse" x="133" y="53" width="214" height="214">
<path d="M133.332 159.999C133.332 218.908 181.091 266.665 239.993 266.665C298.913 266.665 346.665 218.908 346.665 159.999C346.665 101.091 298.913 53.332 239.993 53.332C181.091 53.332 133.332 101.091 133.332 159.999Z" fill="white"/>
</mask>
<g mask="url(#mask3_730_18157)">
<path d="M209.971 138.667C212.384 138.23 214.179 139.697 213.999 141.926C213.816 144.157 211.707 146.328 209.299 146.759C206.902 147.186 205.098 145.719 205.287 143.49C205.472 141.26 207.563 139.11 209.971 138.667ZM184.034 154.657C186.12 146.886 188.65 138.95 191.149 133.023C186.109 139.628 180.712 148.03 175.851 156.421C178.679 155.754 181.432 155.167 184.034 154.655M226.942 148.598C228.827 148.26 233.046 150.811 231.029 153.186C228.931 155.622 226.563 155.134 222.839 156.684C220.735 157.558 219.115 159.45 216.811 162.765C213.873 167.076 212.53 171.294 212.287 174.462C212.271 175.403 212.196 175.874 211.695 176.198C206.781 179.409 205.27 176.995 205.397 174.047C205.426 173.352 205.666 172.249 206.103 170.898C202.322 176.564 198.976 179.432 196.787 179.829C193.85 180.358 192.197 178.318 192.512 174.553C192.656 172.834 193.174 170.823 194.131 168.282C195.138 165.702 196.724 162.179 198.189 159.288C198.563 158.535 198.925 157.817 199.229 157.168C197.006 157.599 193.845 158.254 190.127 159.099C190.075 159.225 190.034 159.288 189.988 159.3C188.408 166.679 188.282 169.467 187.431 175.903C187.069 178.719 187.615 181.749 184.259 182.214C180.908 182.696 179.793 179.242 179.77 176.295C179.729 173.293 180.281 169.684 182.408 160.955C178.779 161.877 175.173 162.884 171.592 163.977C171.57 164.024 171.541 164.066 171.506 164.104C165.454 175.185 159.483 188.892 158.495 193.323C157.707 196.881 156.096 197.967 153.735 196.938C151.379 195.904 150.005 193.529 150.862 190.881C152.42 186.121 157.15 175.449 161.366 167.788C161.338 167.806 161.366 167.697 161.465 167.501C158.38 168.702 155.506 169.989 152.995 171.375C151.332 172.265 149.258 171.444 148.856 169.593C148.575 168.284 147.949 165.691 151.156 164.282C156.001 162.168 161.241 160.368 166.483 158.857C177.602 140.144 191.424 120.891 195.401 121.243C197.12 121.392 196.849 123.254 198.366 124.937C199.866 126.615 200.084 127.644 198.292 132.094C194.614 141.22 194.907 139.092 191.377 153.34C197.849 152.266 203.481 151.645 204.004 151.564C205.791 151.311 208.866 152.529 207.24 156.012C207.24 156.012 205.538 159.013 204.866 160.293C203.654 162.421 202.079 165.61 201.124 167.772C200.521 169.041 200.246 170.013 200.199 170.725C200.147 171.191 200.326 171.45 200.699 171.381C201.194 171.294 201.917 170.76 202.791 169.851C203.642 168.858 206.521 166.501 211.654 157.845L213.011 155.041C213.446 154.202 214.073 152.731 214.194 152.059C214.338 151.052 214.372 150.789 215.212 150.259C216.567 149.397 219.022 148.679 220.435 149.605C221.769 150.484 221.423 152.076 220.314 154.013C224.791 148.972 225.942 148.766 226.941 148.598M314.544 163.174C317.062 160.076 320.959 152.978 321.2 151.036C321.315 150.145 321.056 149.794 320.354 149.886C319.492 150 317.55 151.588 315.699 153.846C312.998 157.098 309.349 163.645 309.068 165.806C308.947 166.69 309.309 167.266 309.929 167.191C310.929 167.058 312.659 165.553 314.544 163.174ZM329.631 158.047C330.722 156.311 333.039 156.88 332.419 158.478C331.883 159.858 330.872 162.104 328.298 165.144C325.131 169.041 322.211 170.932 319.573 171.282C317.453 171.581 315.94 170.667 315.573 168.766L315.452 168.375C315.446 168.041 315.275 167.875 315.09 167.904C314.9 167.926 314.758 168.07 314.401 168.404C311.728 171.237 309.683 172.984 307.211 173.323C303.516 173.805 301.366 170.92 301.89 166.736C300.907 168.203 299.883 169.605 298.947 170.645C296.062 173.845 293.695 175.886 291.498 176.174C288.538 176.564 286.987 174.456 287.488 170.72C287.711 169.014 288.344 167.03 289.43 164.511C290.79 161.52 292.286 158.592 293.913 155.737C295.2 153.427 296.446 150.817 296.636 149.933C296.786 149.231 296.861 149.094 297.413 148.737C298.097 148.248 299.458 147.673 300.286 147.604C302.372 147.449 305.149 148.96 303.314 152.093L302.62 153.283C302.521 153.53 301.269 155.794 300.545 157.034C299.211 159.116 297.51 162.225 296.436 164.329C295.774 165.581 295.453 166.542 295.366 167.236C295.293 167.703 295.453 167.978 295.815 167.928C296.326 167.863 297.08 167.363 297.992 166.479C298.934 165.496 299.505 164.845 301.597 162.081L302.355 161.122C302.958 160.335 307.723 154.104 309.153 152.565C312.998 147.977 317.338 144.726 320.125 144.37C321.958 144.115 323.435 144.95 324.141 146.639C324.647 148.024 324.744 148.116 325.97 148.645C327.93 149.421 328.574 150.081 328.424 151.082C328.349 151.788 328.086 152.34 326.838 154.299C325.958 155.81 325.112 157.341 324.303 158.891C322.849 161.77 322.051 163.736 323.464 164.236C323.999 164.42 324.987 163.91 326.223 162.603C327.591 161.155 328.557 159.725 329.631 158.047ZM304.385 143.593C306.794 143.162 308.89 140.995 309.08 138.76C309.254 136.529 307.454 135.076 305.063 135.507C302.655 135.938 300.547 138.105 300.367 140.34C300.179 142.57 301.988 144.024 304.385 143.593ZM267.833 133.018C262.828 139.587 257.455 147.955 252.586 156.312C255.436 155.656 258.173 155.098 260.73 154.61C262.834 146.864 265.339 138.938 267.833 133.019M269.087 153.208C270.522 153.002 275.195 152.443 275.017 154.404C274.742 157.564 273.552 157.519 269.373 158.409C268.586 158.587 267.74 158.771 266.862 158.954C266.799 159.168 266.73 159.293 266.684 159.3C265.11 166.686 264.983 169.478 264.121 175.903C263.747 178.719 264.298 181.749 260.949 182.214C257.592 182.702 256.437 179.242 256.454 176.299C256.466 171.082 259.098 160.863 259.114 160.799C255.701 161.667 252.046 162.656 248.408 163.793C244.068 171.156 236.173 188.893 235.196 193.329C234.397 196.881 232.793 197.967 230.425 196.926C228.069 195.904 226.746 193.547 227.557 190.879C229.758 183.541 238.075 167.651 238.208 167.363C235.121 168.599 232.248 169.932 229.764 171.345C228.23 172.219 226.27 171.387 225.85 169.542C225.58 168.219 224.965 165.638 227.966 164.266C232.782 162.075 238.012 160.236 243.241 158.731C254.344 140.053 268.115 120.891 272.081 121.247C273.811 121.392 273.54 123.254 275.053 124.937C276.558 126.61 276.769 127.644 274.964 132.094C271.311 141.23 271.61 139.098 268.068 153.364C268.42 153.317 268.747 153.261 269.087 153.208ZM274.389 179.095C277.136 178.812 285.154 177.06 285.234 168.256C285.251 164.847 281.992 163.048 281.205 160.674C280.693 159.209 280.814 156.181 283.131 155.267C285.993 154.14 286.584 156.025 287.574 157.427C287.982 158.008 289.291 157.87 289.74 157.398C290.367 156.751 291.281 155.779 291.67 154.129C292.022 152.618 290.418 150.083 285.756 150.239C284.124 150.273 281.826 150.554 278.561 153.664C277.056 155.094 272.263 161.653 275.81 167.273C276.768 168.802 279.068 170.669 277.59 172.106C275.281 174.331 271.314 170.882 270.562 169.84C270.216 169.365 269.234 168.802 268.591 169.749C268.217 170.295 266.435 173.468 266.712 174.641C267.509 178.302 272.234 179.312 274.389 179.095Z" fill="white"/>
</g>
</g>
</svg>
