<svg width="480" height="320" viewBox="0 0 480 320" fill="none" xmlns="http://www.w3.org/2000/svg">
<mask id="mask0_730_18155" style="mask-type:luminance" maskUnits="userSpaceOnUse" x="190" y="118" width="235" height="85">
<path d="M346.565 121.576C345.984 124.623 344.026 127.503 341.878 129.685C341.74 129.827 341.59 129.978 341.439 130.119C340.905 129.117 340.759 127.563 340.643 126.792C340.212 123.947 331.612 125.944 332.086 129.087C332.46 131.549 333.282 134.286 335.856 135.224C339.037 136.386 342.64 135.203 345.446 133.602C349.875 131.058 354.154 125.549 355.109 120.482C355.359 119.183 354.124 118.645 352.514 118.645C350.116 118.645 346.888 119.858 346.565 121.576ZM359.202 123.31C355.608 144.698 350.409 165.922 350.293 187.727C350.254 194.932 361.432 194.932 361.471 187.727C361.574 166.903 366.549 146.704 369.975 126.284C370.686 122.041 367.079 119.26 363.829 119.26C361.669 119.26 359.671 120.483 359.202 123.31M241.443 135.112C236.859 137.407 232.391 140.002 228.155 143.105C225.198 145.27 221.725 147.866 219.965 151.55C218.183 155.295 219.792 160.077 223.305 161.265C233.738 164.777 247.125 162.801 256.353 167.652C256.87 167.924 257.365 168.259 257.847 168.591C257.976 168.685 258.071 168.745 258.148 168.789C258.204 168.862 258.277 168.935 258.381 169.047C258.777 169.46 258.807 169.477 258.949 170.024C259.056 170.45 259.022 170.889 258.845 171.827C258.566 173.274 258.183 174.212 257.632 175.378C255.6 179.734 252.04 182.489 247.633 184.878C238.551 189.784 226.417 189.909 216.647 186.858C212.162 185.459 207.952 183.091 204.965 179.618C203.833 178.318 202.658 176.11 202.275 174.905C201.41 172.099 201.462 171.031 201.733 167.824C202.043 164.23 198.961 161.218 196.146 161.218C192.87 161.218 190.86 164.243 190.559 167.824C189.337 182.162 198.143 192.569 208.637 197.588C219.931 202.99 233.132 203.227 244.869 199.818C255.738 196.663 267.837 188.02 269.868 173.859C272.434 155.932 254.898 152.906 243.918 151.499C242.321 151.283 240.72 151.124 239.115 150.939C240.38 150.16 241.646 149.407 242.937 148.688C245.786 147.091 248.739 145.761 251.782 144.737C252.363 144.543 252.949 144.384 253.547 144.229C254.511 143.983 254.352 144.009 254.365 144.031C254.369 144.044 254.395 144.052 254.515 144.044C258.2 148.017 265.636 144.483 263.735 137.613C262.314 132.496 258.983 130.821 255.157 130.821C250.448 130.821 244.998 133.344 241.443 135.112M380.676 139.529C372.227 148.197 367.815 164.261 370.359 176.063C371.848 182.958 377.603 189.617 384.008 192.38C390.967 195.393 398.646 194.876 405.714 192.427C412.105 190.215 417.877 186.505 422.849 181.959C428.178 177.087 420.253 169.21 414.946 174.053C407.771 180.621 395.401 187.047 386.199 180.836C383.81 179.231 382.346 177.117 381.541 174.741C386.332 172.766 390.378 168.905 393.868 165.19C398.216 160.563 402.206 155.157 404.185 149.054C406.127 143.084 403.738 136.701 397.569 134.613C396.024 134.092 394.488 133.847 392.973 133.847C388.359 133.847 384.012 136.098 380.676 139.529ZM379.85 154.412C380.692 152.304 381.95 150.285 383.263 148.434C384.218 147.078 386.125 145.585 386.74 145.348C387.984 144.853 387.364 144.991 388.712 144.999C388.643 144.999 388.902 145.059 389.186 145.124C389.168 145.3 389.147 145.468 389.138 145.542C388.252 149.299 384.946 153.487 382.053 156.728C380.642 158.308 379.127 159.789 377.543 161.183C378.193 158.786 379.019 156.474 379.85 154.412ZM317.149 141.22C311.567 146.583 308.292 153.526 305.244 160.52C304.978 161.114 304.719 161.73 304.457 162.332C304.612 158.558 304.31 154.804 302.761 151.047C301.44 147.84 297.919 145.636 294.553 147.711C291.76 149.437 289.311 151.61 287.18 154.094C284.408 150.509 277.104 151.623 277.056 157.443C276.979 166.748 275.494 175.968 275.417 185.274C275.356 192.582 285.979 192.337 286.599 185.274C287.18 178.667 289.281 170.493 293.352 164.286C293.275 165.702 293.141 167.131 292.999 168.578C292.448 173.911 292.052 178.968 292.806 184.301C293.438 188.799 299.382 189.216 302.15 186.763C308.972 180.746 311.946 172.236 315.532 164.149C315.244 168.014 315.033 171.883 315.145 175.77C315.33 181.65 316.354 187.684 320.077 192.397C324.102 197.493 330.523 198.143 336.511 197.209C339.519 196.736 341.151 193.008 340.414 190.331C339.528 187.146 336.541 185.958 333.536 186.432C331.78 186.703 330.321 186.419 329.757 186.143C328.462 185.493 329.589 186.259 328.604 185.239C328.561 185.205 328.535 185.17 328.505 185.136C328.439 185.025 328.37 184.916 328.298 184.809C328.018 184.374 327.795 183.914 327.579 183.453C327.967 184.254 327.166 182.08 327.067 181.688C326.749 180.518 326.615 179.592 326.555 179.011C326.245 176.351 326.258 173.665 326.322 170.992C326.456 165.797 327.028 160.615 327.351 155.428C327.592 151.705 327.975 147.216 326.503 143.682C325.466 141.233 323.262 139.597 320.929 139.597C319.651 139.597 318.334 140.088 317.15 141.22M336.037 145.989C335.899 154.74 333.76 163.503 332.766 172.18C332.422 175.215 335.572 177.763 338.361 177.763C341.671 177.763 343.595 175.206 343.948 172.18C344.947 163.494 347.082 154.753 347.224 145.989C347.276 142.387 344.516 140.587 341.723 140.587C338.925 140.587 336.097 142.386 336.037 145.989Z" fill="white"/>
</mask>
<g mask="url(#mask0_730_18155)">
<path d="M434.913 163.347H142.145V98.3789H434.913V163.347Z" fill="#D60C8C"/>
<path d="M434.913 171.849H142.145V158.863H434.913V171.849Z" fill="#46166B"/>
<path d="M434.913 180.117H142.145V208.813H434.913V180.117Z" fill="#F58025"/>
<path d="M434.913 171.848H142.145V180.697H434.913V171.848Z" fill="#FFCF01"/>
</g>
<path fill-rule="evenodd" clip-rule="evenodd" d="M105.886 148.157C105.4 147.132 104.862 146.207 104.194 145.393C103.523 144.58 102.774 143.904 101.965 143.31C101.56 142.953 101.095 142.699 100.613 142.492C100.415 142.35 100.153 142.208 99.9504 142.092C100.153 142.019 100.415 141.885 100.613 141.748C101.095 141.554 101.56 141.274 101.965 140.943C102.774 140.336 103.523 139.652 104.194 138.855C104.862 138.037 105.4 137.091 105.886 136.083C106.355 135.072 106.687 133.996 106.893 132.851C106.958 132.042 107.022 131.237 107.022 130.484V129.416C106.958 128.469 106.755 127.522 106.424 126.584C106.084 125.697 105.679 124.763 105.141 123.958C104.599 123.067 103.997 122.34 103.247 121.591C102.507 120.924 101.698 120.244 100.829 119.693C99.8773 119.168 98.9304 118.763 97.8543 118.492C96.7739 118.152 95.7023 117.946 94.4841 117.946C93.335 117.881 92.2673 118.023 91.187 118.212C90.1712 118.492 89.1599 118.892 88.2861 119.37C87.3391 119.839 86.5341 120.442 85.7939 121.191C85.118 121.862 84.5111 122.671 84.0334 123.541C83.5686 124.432 83.2329 125.366 83.0994 126.377C82.9574 126.915 82.9574 127.385 82.9574 127.923C82.9574 128.396 82.9574 128.805 83.0219 129.201C82.0794 128.672 81.1411 128.198 80.1941 127.923C79.0449 127.522 77.6975 127.32 76.3418 127.255C75.0764 127.255 73.8625 127.385 72.7134 127.656C71.6286 127.862 70.5525 128.267 69.5367 128.805C68.5792 129.321 67.6765 129.932 66.8424 130.63C66.3086 131.095 65.7662 131.573 65.224 132.106C65.224 132.106 64.4148 132.92 64.0102 133.454C63.5453 133.927 63.0633 134.538 62.6028 135.141L61.5179 136.492C61.2468 136.901 60.9714 137.241 60.6443 137.564C60.2356 138.115 59.7663 138.588 59.2971 139.049C58.4793 139.867 57.6056 140.594 56.6672 141.214C56.4522 141.347 56.2583 141.477 56.0473 141.606C55.9269 141.688 55.7892 141.748 55.6515 141.821C55.518 141.885 55.3848 141.95 55.3848 142.092C55.3848 142.281 55.5184 142.35 55.6515 142.423C55.7891 142.492 55.9269 142.566 56.0474 142.626C56.2583 142.764 56.452 142.893 56.6672 143.026C57.6055 143.642 58.4793 144.386 59.2971 145.191C59.7662 145.656 60.2356 146.138 60.6444 146.672C60.9714 147.012 61.2468 147.347 61.5179 147.748L62.6028 149.099C63.0633 149.71 63.5453 150.313 64.0102 150.778C64.4148 151.32 65.224 152.065 65.224 152.065C65.7662 152.672 66.3086 153.145 66.8424 153.619C67.7248 154.355 68.6629 154.962 69.5367 155.435C70.5526 155.973 71.6286 156.378 72.7134 156.589C73.8625 156.916 75.0764 156.98 76.3418 156.98C77.6975 156.916 79.0449 156.718 80.1941 156.313C81.1411 156.042 82.0793 155.569 83.0219 155.031C82.9574 155.435 82.9574 155.831 82.9574 156.313C82.9574 156.851 82.9574 157.325 83.0994 157.863C83.2329 158.87 83.5686 159.813 84.0334 160.691C84.5111 161.573 85.118 162.369 85.794 163.062C86.5341 163.798 87.3391 164.401 88.2861 164.874C89.1599 165.343 90.1712 165.744 91.187 166.019C92.2675 166.226 93.335 166.351 94.4841 166.282C95.7023 166.282 96.774 166.084 97.8544 165.744C98.9304 165.477 99.8774 165.077 100.829 164.543C101.698 163.996 102.507 163.316 103.247 162.645C103.996 161.904 104.599 161.168 105.141 160.286C105.679 159.477 106.084 158.53 106.424 157.665C106.755 156.718 106.958 155.762 107.022 154.751V153.752C107.022 153.008 106.958 152.194 106.893 151.394C106.687 150.24 106.355 149.16 105.886 148.157Z" fill="#FFCF01"/>
<path fill-rule="evenodd" clip-rule="evenodd" d="M103.052 149.241C102.643 148.354 102.174 147.554 101.494 146.805C100.891 146.069 100.156 145.462 99.3422 144.98C98.4682 144.446 97.5861 144.033 96.6476 143.839C95.705 143.499 94.685 143.366 93.6821 143.366C92.5975 143.366 91.5774 143.499 90.5099 143.775C89.6231 143.985 88.827 144.248 88.0176 144.64C87.2732 144.98 86.593 145.462 85.9946 145.927C85.3835 146.34 84.7767 146.805 84.2343 147.274C83.6318 147.683 83.0977 148.092 82.4825 148.483C81.9527 148.823 81.3419 149.159 80.6704 149.43C79.9214 149.637 79.1769 149.774 78.4366 149.774C77.4177 149.775 76.4097 149.565 75.4752 149.159C74.524 148.755 73.7192 148.217 73.0474 147.476C72.3029 146.805 71.769 145.927 71.4249 144.98C71.0204 144.115 70.887 143.099 70.887 142.092C70.887 141.145 71.0204 140.129 71.4249 139.255C71.7693 138.304 72.3029 137.499 73.0473 136.754C73.7191 136.01 74.524 135.48 75.4751 135.071C76.4136 134.671 77.4251 134.478 78.4366 134.478C79.1769 134.478 79.9214 134.607 80.6704 134.813C81.3419 135.071 81.9527 135.407 82.4825 135.747C83.0981 136.151 83.6318 136.561 84.2343 137.034C84.7767 137.438 85.3835 137.903 85.9947 138.381C86.5931 138.777 87.2732 139.255 88.0177 139.591C88.827 139.991 89.6231 140.271 90.51 140.469C91.5773 140.744 92.5975 140.873 93.6821 140.873C94.685 140.873 95.705 140.744 96.6476 140.469C97.5861 140.197 98.4682 139.801 99.3422 139.255C100.156 138.777 100.891 138.175 101.494 137.438C102.174 136.698 102.643 135.881 103.052 135.011C103.453 134.068 103.728 133.121 103.857 132.105C103.995 131.038 103.995 129.949 103.788 128.873C103.59 127.861 103.255 126.85 102.777 125.972C102.312 125.107 101.696 124.362 101.025 123.673C100.289 122.946 99.5444 122.399 98.6707 121.93C97.7926 121.521 96.8457 121.19 95.8987 120.992C94.9604 120.777 93.8801 120.721 92.8729 120.85C91.9215 120.992 90.9188 121.25 90.0406 121.724C89.2187 122.137 88.4137 122.74 87.8068 123.402C87.1311 124.091 86.6618 124.896 86.2659 125.77C85.9302 126.643 85.6633 127.595 85.5858 128.546C85.5858 129.475 85.6633 130.483 85.9947 131.438C85.9947 131.572 86.055 131.701 86.1281 131.83C86.1281 131.903 86.1281 131.972 86.1927 132.041C86.1927 132.105 86.1927 132.174 86.2659 132.243C86.2659 132.243 86.3262 132.316 86.395 132.316C86.395 132.316 86.4595 132.243 86.4595 132.174V131.766C86.5327 131.236 86.662 130.758 86.8684 130.289C87.2732 129.416 87.8756 128.671 88.6203 128.137C89.4295 127.655 90.3678 127.388 91.3191 127.319C92.3261 127.259 93.3376 127.388 94.22 127.861C95.0204 128.27 95.705 128.933 96.1742 129.747C96.6476 130.552 96.8457 131.572 96.8457 132.523C96.8457 133.453 96.5744 134.477 96.0408 135.274C95.5714 136.087 94.8269 136.754 93.9402 137.241C93.0622 137.632 92.0551 137.843 91.1166 137.701C90.4366 137.632 89.7693 137.439 89.1497 137.168C88.5556 136.901 87.9489 136.492 87.4064 136.087C86.7949 135.614 86.1927 135.14 85.6631 134.671C85.0518 134.137 84.4366 133.587 83.8338 133.122C83.1537 132.584 82.4822 132.106 81.7462 131.766C80.9327 131.305 80.1236 130.965 79.2583 130.685C78.3031 130.423 77.2999 130.289 76.2799 130.289C75.264 130.289 74.2569 130.367 73.241 130.629C72.3716 130.819 71.5627 131.094 70.7575 131.512C70.0818 131.904 69.4103 132.386 68.7259 132.924C68.1234 133.397 67.5809 133.995 67.0474 134.607C66.5092 135.205 66.0358 135.812 65.5666 136.432C65.02 137.034 64.5551 137.701 64.0818 138.304C63.5437 138.919 63.0659 139.466 62.4593 140.069C61.9212 140.594 61.3786 141.08 60.7074 141.558C60.5784 141.605 60.4316 141.687 60.3028 141.747C60.234 141.82 60.1093 141.889 60.036 141.949C59.9671 141.949 59.8379 142.023 59.8379 142.092C59.8379 142.212 59.9671 142.281 60.036 142.35C60.1094 142.35 60.234 142.423 60.303 142.496C60.432 142.557 60.5782 142.625 60.7074 142.763C61.3788 143.159 61.9212 143.641 62.4593 144.175C63.066 144.721 63.5437 145.337 64.0818 145.927C64.5555 146.529 65.0201 147.209 65.5666 147.82C66.0358 148.423 66.5092 149.039 67.0474 149.637C67.581 150.244 68.1234 150.859 68.7259 151.32C69.4103 151.866 70.0818 152.34 70.7577 152.74C71.5623 153.145 72.3716 153.416 73.2411 153.618C74.2569 153.894 75.2641 153.954 76.2799 153.954C77.2999 153.954 78.3028 153.821 79.2583 153.545C80.1236 153.278 80.9327 152.943 81.7462 152.534C82.4822 152.125 83.1537 151.656 83.8336 151.109C84.4363 150.661 85.052 150.11 85.6631 149.637C86.1927 149.099 86.7949 148.612 87.4065 148.156C87.9489 147.747 88.5556 147.347 89.1497 147.076C89.7694 146.805 90.4366 146.602 91.1166 146.529C92.055 146.4 93.0622 146.602 93.9402 147.011C94.827 147.416 95.5716 148.156 96.0408 148.965C96.5744 149.775 96.8457 150.777 96.8457 151.733C96.8457 152.74 96.6476 153.687 96.1742 154.488C95.705 155.297 95.0204 155.973 94.22 156.382C93.3376 156.851 92.3261 156.98 91.3191 156.915C90.3678 156.915 89.4293 156.588 88.6203 156.102C87.8756 155.568 87.2732 154.828 86.8684 153.954C86.6618 153.476 86.5327 153.007 86.4595 152.473V152.065C86.4595 152 86.395 151.935 86.395 151.935C86.3262 151.935 86.266 152 86.266 152C86.1927 152.064 86.1927 152.125 86.1927 152.194C86.1282 152.262 86.1282 152.34 86.1282 152.404C86.055 152.534 85.9947 152.671 85.9947 152.8C85.6633 153.752 85.5858 154.754 85.5858 155.701C85.6633 156.648 85.9302 157.595 86.2659 158.469C86.6618 159.334 87.1311 160.152 87.8068 160.836C88.4137 161.512 89.2187 162.106 90.0406 162.519C90.9188 162.984 91.9215 163.251 92.8729 163.393C93.88 163.527 94.9604 163.453 95.8987 163.251C96.8457 163.062 97.7926 162.713 98.6707 162.309C99.5444 161.839 100.289 161.237 101.025 160.565C101.697 159.889 102.312 159.136 102.777 158.267C103.255 157.393 103.59 156.381 103.788 155.37C103.995 154.294 103.995 153.218 103.857 152.125C103.728 151.109 103.453 150.175 103.052 149.241" fill="#3E296E"/>
<path fill-rule="evenodd" clip-rule="evenodd" d="M88.6861 142.09L88.6215 142.016C87.4035 141.745 86.3275 141.074 85.3848 140.394C84.3088 139.589 83.2971 138.775 82.2902 138.035C81.201 137.295 79.9958 136.696 78.7132 136.615C77.6977 136.559 76.617 136.753 75.7389 137.295C74.9387 137.768 74.2587 138.431 73.7935 139.249C73.2469 140.127 73.0488 141.143 73.0488 142.09V142.158C73.0488 143.097 73.2468 144.108 73.7935 144.986C74.2584 145.787 74.9384 146.467 75.739 146.936C76.617 147.414 77.6977 147.681 78.7134 147.612C79.9958 147.552 81.201 146.936 82.2902 146.204C83.2972 145.46 84.3088 144.638 85.3848 143.833C86.3273 143.157 87.4035 142.49 88.6215 142.206C88.6215 142.206 88.6861 142.158 88.6861 142.09Z" fill="#D60C8C"/>
<path fill-rule="evenodd" clip-rule="evenodd" d="M181.935 143.832L186.257 133.631L190.32 143.832H181.935ZM192.459 156.358H203.814C201.545 154.998 200.839 153.702 199.428 150.414C191.62 132.271 188.844 125.944 188.844 125.944C188.844 125.944 187.092 128.858 181.483 129.964C181.871 130.218 182.323 130.933 182.323 131.699C182.323 132.22 182.189 132.861 181.871 133.692L174.455 150.413C172.832 153.9 171.932 155.437 169.737 156.155C167.998 155.187 167.676 154.21 167.676 150.736V133.507C167.676 129.9 167.998 128.983 169.87 127.954H159.734C161.542 128.983 161.938 129.9 161.938 133.507V139.373H147.802V133.507C147.802 129.9 148.19 128.983 150.066 127.954H139.861C141.807 128.983 142.125 129.9 142.125 133.507V150.736C142.125 154.352 141.807 155.251 139.861 156.358H150.066C148.19 155.251 147.802 154.352 147.802 150.736V143.381H161.938V150.736C161.938 154.352 161.542 155.251 159.678 156.358H179.74C178.767 155.759 178.001 154.924 178.001 153.835C178.001 153.065 178.259 152.548 178.901 151.124L180.523 147.25H191.74L193.427 151.563C193.931 152.669 194.116 153.194 194.116 153.9C194.116 154.924 193.225 155.759 192.459 156.358M211.806 150.736V133.507C211.806 129.9 212.133 128.983 213.946 127.954H203.869C205.686 128.983 206.069 129.9 206.069 133.507V150.736C206.069 154.352 205.686 155.251 203.869 156.358H213.946C212.133 155.251 211.806 154.352 211.806 150.736ZM138.966 125.944C137.929 126.861 136.254 127.954 131.8 127.954H119.089C116.576 127.954 115.534 126.478 115.086 125.578C114.118 127.765 111.669 130.864 110.18 132.086H122.059V150.358C122.059 154.029 121.53 155.187 119.8 156.358H129.932C128.12 155.251 127.797 154.352 127.797 150.736V132.086H129.471C131.989 132.086 133.345 131.824 134.382 131.441C137.094 130.476 138.764 128.466 138.966 125.944Z" fill="#472669"/>
</svg>
