<svg width="480" height="320" viewBox="0 0 480 320" fill="none" xmlns="http://www.w3.org/2000/svg">
<path fill-rule="evenodd" clip-rule="evenodd" d="M168.68 173.539C167.621 171.27 166.411 169.152 164.899 167.337C163.386 165.522 161.722 164.009 159.907 162.648C158.999 161.892 157.941 161.287 156.882 160.833C156.428 160.531 155.822 160.228 155.369 159.925C155.822 159.774 156.428 159.471 156.882 159.17C157.941 158.716 158.999 158.109 159.907 157.354C161.722 155.992 163.386 154.48 164.899 152.665C166.411 150.849 167.621 148.732 168.68 146.463C169.739 144.194 170.495 141.773 170.949 139.202C171.1 137.387 171.251 135.571 171.251 133.908V131.487C171.1 129.37 170.646 127.252 169.889 125.134C169.134 123.168 168.226 121.05 167.015 119.237C165.806 117.268 164.445 115.606 162.781 113.94C161.117 112.43 159.302 110.917 157.336 109.705C155.217 108.497 153.1 107.589 150.68 106.984C148.259 106.228 145.839 105.774 143.117 105.774C140.546 105.623 138.126 105.923 135.705 106.377C133.446 106.985 131.264 107.849 129.201 108.95C127.082 110.009 125.267 111.371 123.604 113.035C122.045 114.601 120.72 116.384 119.671 118.329C118.611 120.294 117.856 122.411 117.553 124.68C117.251 125.89 117.251 126.949 117.251 128.159C117.251 129.218 117.251 130.126 117.402 131.034C115.285 129.823 113.168 128.765 111.049 128.159C108.478 127.252 105.452 126.798 102.427 126.647C99.5532 126.647 96.8304 126.949 94.2589 127.556C91.8392 128.008 89.419 128.916 87.1494 130.126C85.1835 131.185 83.0658 132.546 81.0988 134.21C79.8892 135.269 78.6785 136.328 77.469 137.538C77.469 137.538 75.6538 139.353 74.7462 140.563C73.6873 141.622 72.6285 142.984 71.569 144.345L69.1494 147.37C68.5443 148.278 67.9392 149.034 67.1835 149.79C66.2759 151.001 65.217 152.059 64.1582 153.118C62.343 154.934 60.3765 156.597 58.2588 157.959L56.8974 158.866C56.5943 159.017 56.2924 159.17 55.9898 159.32C55.6867 159.471 55.3848 159.623 55.3848 159.925C55.3848 160.379 55.6867 160.531 55.9898 160.682C56.2924 160.833 56.5943 160.985 56.8974 161.135L58.2588 162.043C60.3759 163.405 62.343 165.068 64.1576 166.883C65.2176 167.942 66.2759 169.001 67.1835 170.211C67.9398 170.968 68.5443 171.724 69.1488 172.632L71.569 175.657C72.6291 177.018 73.6873 178.379 74.7462 179.439C75.6538 180.647 77.469 182.312 77.469 182.312C78.6785 183.673 79.8892 184.732 81.0988 185.791C83.0658 187.455 85.1835 188.816 87.1494 189.875C89.4184 191.085 91.8392 191.992 94.2589 192.446C96.8304 193.203 99.5532 193.354 102.427 193.354C105.453 193.203 108.478 192.749 111.049 191.842C113.167 191.237 115.285 190.178 117.402 188.968C117.251 189.875 117.251 190.783 117.251 191.842C117.251 193.052 117.251 194.111 117.553 195.32C117.856 197.589 118.611 199.708 119.671 201.673C120.73 203.64 122.091 205.455 123.604 206.968C125.267 208.632 127.082 209.993 129.201 211.052C131.264 212.154 133.446 213.017 135.705 213.623C138.125 214.077 140.546 214.38 143.117 214.228C145.839 214.228 148.259 213.775 150.68 213.018C153.1 212.413 155.218 211.506 157.336 210.295C159.302 209.086 161.117 207.573 162.78 206.06C164.445 204.396 165.806 202.732 167.015 200.765C168.226 198.951 169.134 196.834 169.889 194.866C170.646 192.749 171.1 190.631 171.251 188.363V186.094C171.251 184.429 171.1 182.615 170.949 180.8C170.495 178.227 169.739 175.808 168.68 173.539Z" fill="#FBC707"/>
<path fill-rule="evenodd" clip-rule="evenodd" d="M162.328 175.959C161.42 173.993 160.362 172.179 158.85 170.516C157.488 168.851 155.823 167.489 154.008 166.43C152.041 165.22 150.075 164.314 147.958 163.86C145.84 163.103 143.571 162.8 141.302 162.8C138.882 162.8 136.613 163.103 134.193 163.708C132.226 164.162 130.411 164.768 128.597 165.674C126.933 166.43 125.42 167.489 124.058 168.549C122.684 169.472 121.37 170.483 120.126 171.575C118.764 172.482 117.553 173.389 116.193 174.296C114.983 175.052 113.622 175.809 112.108 176.413C110.445 176.867 108.781 177.17 107.117 177.17C104.848 177.17 102.579 176.716 100.462 175.809C98.3439 174.901 96.5281 173.691 95.016 172.028C93.3521 170.515 92.1426 168.549 91.3857 166.431C90.4781 164.464 90.1767 162.195 90.1767 159.926C90.1767 157.809 90.4781 155.54 91.3857 153.573C92.142 151.456 93.3521 149.64 95.016 147.976C96.5287 146.313 98.3439 145.102 100.462 144.195C102.565 143.295 104.829 142.832 107.117 142.833C108.781 142.833 110.445 143.136 112.108 143.59C113.622 144.195 114.983 144.951 116.193 145.707C117.553 146.615 118.764 147.523 120.126 148.582C121.335 149.489 122.697 150.548 124.058 151.607C125.42 152.515 126.933 153.573 128.596 154.329C130.411 155.237 132.226 155.843 134.193 156.297C136.613 156.901 138.882 157.204 141.302 157.204C143.571 157.204 145.84 156.901 147.958 156.297C150.075 155.69 152.041 154.783 154.008 153.573C155.823 152.515 157.488 151.153 158.849 149.489C160.362 147.825 161.42 146.01 162.328 144.044C163.236 141.926 163.84 139.808 164.143 137.539C164.446 135.121 164.446 132.699 163.992 130.278C163.538 128.009 162.781 125.74 161.723 123.774C160.664 121.807 159.303 120.144 157.79 118.631C156.126 116.969 154.462 115.757 152.496 114.7C150.529 113.792 148.412 113.036 146.293 112.582C144.176 112.128 141.756 111.975 139.488 112.28C137.369 112.582 135.1 113.187 133.134 114.246C131.319 115.154 129.503 116.515 128.143 118.028C126.629 119.539 125.571 121.354 124.663 123.32C123.907 125.287 123.302 127.404 123.15 129.522C123.15 131.64 123.302 133.909 124.058 136.026C124.058 136.329 124.209 136.632 124.361 136.934C124.361 137.085 124.361 137.237 124.512 137.388C124.512 137.539 124.512 137.69 124.663 137.842C124.663 137.842 124.815 137.993 124.966 137.993C124.966 137.993 125.117 137.842 125.117 137.69V136.783C125.258 135.636 125.563 134.515 126.024 133.455C126.933 131.489 128.293 129.825 129.957 128.614C131.772 127.557 133.891 126.951 136.008 126.799C138.277 126.648 140.546 126.951 142.512 128.009C144.327 128.917 145.84 130.43 146.899 132.245C147.958 134.06 148.412 136.329 148.412 138.447C148.412 140.564 147.806 142.833 146.596 144.649C145.538 146.464 143.873 147.976 141.907 149.035C139.942 149.943 137.673 150.397 135.554 150.094C134.041 149.943 132.529 149.489 131.168 148.884C129.806 148.279 128.445 147.371 127.235 146.464C125.874 145.405 124.512 144.346 123.302 143.287C121.94 142.077 120.58 140.867 119.218 139.808C117.705 138.598 116.193 137.539 114.529 136.783C112.714 135.724 110.899 134.968 108.932 134.363C106.815 133.757 104.545 133.455 102.277 133.455C100.008 133.455 97.7388 133.606 95.4698 134.211C93.5034 134.665 91.6882 135.27 89.8736 136.178C88.3609 137.085 86.8483 138.144 85.3356 139.354C83.9742 140.413 82.7641 141.775 81.554 143.136C80.3439 144.497 79.285 145.859 78.2255 147.22C77.016 148.582 75.9571 150.094 74.8977 151.456C73.6882 152.817 72.6293 154.027 71.2679 155.389C70.0578 156.598 68.8477 157.657 67.3356 158.717C67.0328 158.868 66.7303 159.019 66.428 159.171C66.2767 159.321 65.9736 159.472 65.8229 159.625C65.6717 159.625 65.3691 159.775 65.3691 159.926C65.3691 160.23 65.6717 160.38 65.8229 160.532C65.9736 160.532 66.2767 160.683 66.428 160.834C66.7305 160.986 67.0325 161.137 67.3356 161.439C68.8483 162.346 70.0572 163.406 71.2679 164.616C72.6293 165.826 73.6882 167.188 74.8977 168.549C75.9577 169.909 77.016 171.423 78.2255 172.783C79.2856 174.145 80.3439 175.507 81.5534 176.867C82.7641 178.229 83.9742 179.59 85.335 180.649C86.8483 181.859 88.3603 182.918 89.873 183.826C91.6888 184.733 93.5034 185.339 95.4698 185.792C97.7388 186.397 100.008 186.549 102.277 186.549C104.546 186.549 106.815 186.246 108.932 185.641C110.899 185.036 112.714 184.28 114.529 183.372C116.193 182.464 117.705 181.406 119.218 180.195C120.579 179.137 121.94 177.927 123.302 176.867C124.512 175.658 125.874 174.599 127.235 173.54C128.445 172.633 129.806 171.725 131.168 171.12C132.529 170.516 134.042 170.062 135.554 169.909C137.672 169.607 139.942 170.062 141.907 170.969C143.873 171.877 145.538 173.54 146.596 175.355C147.806 177.17 148.412 179.439 148.412 181.556C148.412 183.825 147.958 185.944 146.899 187.758C145.84 189.574 144.327 191.086 142.512 191.994C140.546 193.054 138.277 193.356 136.008 193.204C133.891 193.204 131.772 192.448 129.958 191.389C128.294 190.179 126.933 188.515 126.024 186.549C125.563 185.489 125.258 184.368 125.117 183.221V182.313C125.117 182.162 124.966 182.011 124.966 182.011C124.815 182.011 124.663 182.162 124.663 182.162C124.512 182.313 124.512 182.464 124.512 182.616C124.361 182.767 124.361 182.918 124.361 183.069C124.209 183.372 124.058 183.675 124.058 183.977C123.302 186.095 123.151 188.364 123.151 190.482C123.302 192.599 123.907 194.717 124.664 196.683C125.571 198.649 126.629 200.465 128.143 201.977C129.503 203.49 131.319 204.851 133.134 205.759C135.1 206.818 137.369 207.423 139.488 207.725C141.756 208.028 144.176 207.877 146.293 207.423C148.412 206.968 150.529 206.213 152.495 205.305C154.462 204.246 156.126 202.885 157.79 201.371C159.303 199.86 160.664 198.196 161.723 196.229C162.781 194.263 163.538 191.994 163.992 189.726C164.446 187.304 164.446 184.884 164.143 182.464C163.84 180.195 163.236 178.078 162.328 175.959Z" fill="#361D66"/>
<path fill-rule="evenodd" clip-rule="evenodd" d="M130.109 159.925L129.957 159.774C127.235 159.169 124.815 157.656 122.697 156.143C120.276 154.328 118.007 152.514 115.739 150.849C113.319 149.185 110.596 147.823 107.722 147.673C105.453 147.521 103.033 147.975 101.066 149.185C99.2502 150.245 97.739 151.756 96.6795 153.572C95.4694 155.538 95.0156 157.807 95.0156 159.925V160.077C95.0156 162.194 95.4694 164.463 96.6795 166.43C97.7384 168.245 99.2511 169.757 101.066 170.816C103.033 171.876 105.452 172.48 107.722 172.33C110.596 172.178 113.319 170.816 115.739 169.152C118.007 167.488 120.276 165.673 122.697 163.858C124.815 162.345 127.235 160.833 129.957 160.228C129.957 160.228 130.109 160.077 130.109 159.925Z" fill="#C60A8D"/>
<path fill-rule="evenodd" clip-rule="evenodd" d="M349.59 164.011L359.725 140.111L369.253 164.011H349.59ZM374.246 193.356H400.867C395.573 190.18 393.909 187.154 390.581 179.44C372.281 136.935 365.776 122.111 365.776 122.111C365.776 122.111 361.691 128.918 348.531 131.489C349.439 132.094 350.498 133.758 350.498 135.573C350.498 136.783 350.195 138.296 349.439 140.263L332.043 179.44C328.262 187.608 326.144 191.239 321.001 192.902C316.917 190.633 316.16 188.365 316.16 180.196V139.809C316.16 131.34 316.917 129.22 321.303 126.8H297.555C301.79 129.22 302.698 131.34 302.698 139.809V153.574H269.573V139.809C269.573 131.34 270.48 129.22 274.867 126.8H250.967C255.505 129.22 256.261 131.34 256.261 139.809V180.196C256.261 188.666 255.505 190.785 250.967 193.356H274.867C270.48 190.785 269.573 188.666 269.573 180.196V162.953H302.698V180.196C302.698 188.666 301.79 190.785 297.406 193.356H344.447C342.178 191.994 340.363 190.028 340.363 187.457C340.363 185.642 340.968 184.432 342.481 181.103L346.262 172.028H372.581L376.515 182.163C377.724 184.734 378.177 185.944 378.177 187.608C378.177 190.028 376.062 191.994 374.246 193.356ZM419.624 180.196V139.808C419.624 131.34 420.381 129.22 424.616 126.799H401.019C405.254 129.22 406.162 131.339 406.162 139.808V180.195C406.162 188.666 405.254 190.784 401.019 193.356H424.616C420.381 190.784 419.624 188.666 419.624 180.195M248.849 122.111C246.429 124.228 242.496 126.8 232.06 126.8H202.261C196.361 126.8 193.941 123.321 192.882 121.203C190.613 126.346 184.866 133.607 181.387 136.481H209.219V179.288C209.219 187.911 208.008 190.633 203.925 193.356H227.673C223.437 190.785 222.681 188.666 222.681 180.196V136.481H226.614C232.513 136.481 235.69 135.876 238.11 134.968C244.463 132.699 248.396 128.01 248.849 122.111Z" fill="#361D66"/>
</svg>
