<svg width="480" height="320" viewBox="0 0 480 320" fill="none" xmlns="http://www.w3.org/2000/svg">
<path d="M55.3848 139.098C76.6927 137.186 106.269 138.777 106.269 138.777V146.568H86.2335V180.12H76.3746V146.568H55.7028L55.3848 139.098Z" fill="#171F69"/>
<path d="M221.444 168.036C221.444 171.551 218.597 174.397 215.083 174.397C211.569 174.397 208.723 171.551 208.723 168.036C208.723 164.525 211.569 161.676 215.083 161.676C218.597 161.676 221.444 164.528 221.444 168.036Z" fill="#3CC2D2"/>
<path d="M161.332 138.462V155.317H134.255V138.462L124.078 139.101V180.62L134.255 181.078V162.953H161.332V181.078L171.515 180.62V139.101L161.332 138.462ZM187.048 180.124L210.582 139.101H220.441L244.293 180.124L233.162 181.078L215.67 148.957H214.716L196.907 180.76L187.048 180.124ZM259.24 180.124V139.416H268.463V172.809H300.902V180.124C300.902 180.124 279.594 184.576 259.24 180.124ZM316.803 180.445V139.101C316.803 139.101 346.062 135.921 361.006 139.419V147.052L327.215 147.37V155.639H346.698V163.589H327.219V173.13H361.645V180.763C361.645 180.76 336.203 184.258 316.803 180.445ZM423.979 138.78V147.052H387.087V155.321H417.3C421.435 155.321 424.615 158.819 424.615 162.317V173.127C424.615 180.124 417.3 182.035 410.625 182.035C400.448 182.035 383.592 181.714 377.868 180.763V173.13H415.71V163.904H387.409C382.956 163.904 378.186 161.36 378.186 158.18V145.776C378.186 141.645 383.91 138.78 388.363 138.78H423.979Z" fill="#171F69"/>
</svg>
