<svg width="480" height="320" viewBox="0 0 480 320" fill="none" xmlns="http://www.w3.org/2000/svg">
<path d="M169.515 141.093H169.401L162.19 159.202H169.14L169.515 141.093ZM165.281 133.69H177.239L178.731 174.348H168.824L168.988 166.602H159.252L156.181 174.348H146.274L165.281 133.69ZM189.879 133.691H213.396L211.752 141.433H197.798L196.07 149.579H209.164L207.52 157.321H194.423L192.45 166.603H207.029L205.381 174.348H181.236L189.879 133.691ZM223.705 150.83H226.665C230.537 150.83 232.182 147.928 232.688 145.536C233.342 142.459 232.639 140.41 228.826 140.41H225.92L223.705 150.83ZM217.783 133.689H233.84C241.982 133.689 243.708 138.701 242.522 144.283C241.262 150.205 238.254 153.108 233.584 154.189L233.557 154.303C239.471 155.157 239.001 158.972 237.952 164.441C236.416 172.469 236.53 173.265 237.775 173.836L237.669 174.347H227.361C226.912 172.98 227.111 170.703 228.092 166.091C229.592 159.029 228.94 157.548 225.92 157.548H222.276L218.707 174.347H209.141L217.783 133.689ZM255.767 168.768C259.64 168.768 260.971 165.18 263.344 154.021C265.717 142.858 265.909 139.271 262.037 139.271C258.278 139.271 256.947 142.858 254.574 154.021C252.201 165.18 252.008 168.768 255.767 168.768ZM254.467 175.147C241.885 175.147 241.92 166.944 244.668 154.021C247.415 141.092 250.867 132.892 263.447 132.892C277.001 132.892 275.647 142.744 273.251 154.021C270.853 165.294 268.021 175.146 254.468 175.146M283.926 161.934L283.622 163.358C282.969 166.432 283.328 168.766 286.63 168.766C289.989 168.766 291.489 166.261 291.987 163.926C293.851 155.159 275.329 160.056 278.559 144.85C279.938 138.36 284.575 132.894 294.427 132.894C303.994 132.894 306.38 137.734 305.049 143.996L304.845 144.964H295.618C296.031 143.029 296.104 141.605 295.729 140.694C295.365 139.727 294.552 139.271 293.128 139.271C290.736 139.271 289.011 140.694 288.38 143.656C286.575 152.139 304.967 147.87 301.915 162.219C299.955 171.443 294.044 175.145 285.274 175.145C278.327 175.145 272.339 173.039 274.144 164.554L274.701 161.934H283.926ZM317.826 151.4H320.445C324.261 151.4 325.68 149.008 326.262 146.274C326.927 143.143 326.408 140.751 322.538 140.751H320.089L317.826 151.4ZM312.023 133.691H326.83C336.907 133.691 337.296 140.98 336.217 146.048C334.668 153.335 330.104 158.46 320.538 158.46H316.325L312.947 174.349H303.38L312.023 133.691ZM351.738 141.093H351.624L344.413 159.202H351.363L351.738 141.093ZM347.504 133.69H359.461L360.954 174.348H351.046L351.213 166.602H341.475L338.404 174.348H328.494L347.504 133.69ZM385.113 147.813C386.374 141.891 386.245 139.271 383.058 139.271C379.242 139.271 378.125 142.915 375.861 153.564C373.295 165.636 373.026 168.767 377.013 168.767C380.543 168.767 381.802 164.725 383.202 158.403H392.428L392.124 159.828C390.26 168.595 386.42 175.146 374.576 175.146C362.332 175.146 363.316 165.978 365.917 153.735C368.131 143.314 370.915 132.892 384.468 132.892C392.896 132.892 396.734 136.536 394.701 146.103L394.337 147.813H385.113ZM401.098 133.691H424.616L422.968 141.433H409.018L407.286 149.579H420.383L418.737 157.321H405.64L403.666 166.603H418.244L416.598 174.348H392.455L401.098 133.691ZM95.5025 197.216C75.8065 197.178 59.8747 181.25 59.8423 161.556C59.8747 141.863 75.8065 125.931 95.5025 125.896C100.579 125.899 105.596 126.99 110.216 129.095L64.8699 174.44H80.1878L91.1621 163.467L110.035 144.595V163.467H91.9009V174.442H120.987V136.65C127.268 143.076 131.146 151.857 131.165 161.556C131.127 181.25 115.195 197.181 95.5025 197.216ZM120.987 130.574V118.324L113.573 125.741C107.972 122.905 101.781 121.43 95.5025 121.437C73.3466 121.437 55.3848 139.398 55.3848 161.556C55.3848 183.709 73.3466 201.674 95.5025 201.674C117.658 201.674 135.617 183.709 135.617 161.556C135.617 149.079 129.92 137.93 120.987 130.574Z" fill="#250082"/>
</svg>
