<svg width="480" height="320" viewBox="0 0 480 320" fill="none" xmlns="http://www.w3.org/2000/svg">
<path d="M192.519 160.002C192.519 197.859 161.819 228.564 123.954 228.564C86.0799 228.564 55.3848 197.858 55.3848 160.002C55.3848 122.133 86.0808 91.4336 123.953 91.4336C161.819 91.4336 192.518 122.132 192.518 160.002" fill="#ED1C24"/>
<path d="M169.186 118.723C158.198 111.649 145.563 109.263 134.463 110.847C123.646 112.382 111.593 121.738 111.593 134.548C111.593 142.14 105.23 147.63 97.6936 147.63C87.4116 147.63 81.9191 139.548 72.4115 139.548C64.9717 139.548 60.3468 143.118 57.841 145.371C57.2989 145.859 57.0273 146.329 57.0273 146.81C57.0273 147.285 57.4342 147.897 58.0567 148.104C62.6076 149.687 68.2903 152.106 75.0791 156.876C83.8481 163.035 89.9531 169.421 95.1485 176.739C116.312 206.601 149.879 205.094 161.382 200.44C173.299 195.616 182.616 186.123 186.931 175.649C187.254 174.878 186.18 174.349 185.702 175.1C184.371 177.181 177.682 186.124 165.217 186.124C151.449 186.124 140.422 174.916 140.422 161.462C140.422 150.029 149.082 136.852 165.868 136.852C179.974 136.852 192.175 148.974 192.392 162.687C192.504 140.796 180.03 125.702 169.187 118.723" fill="#FEE702"/>
<path d="M277.863 194.21C278.019 194.165 278.18 194.143 278.343 194.146C278.779 194.146 279.101 194.274 279.262 194.52C279.465 194.758 279.491 195.206 279.326 195.819C279.146 196.522 278.703 197.13 278.089 197.516C277.577 197.818 277.062 198.115 276.544 198.406C276.267 198.339 276.001 198.229 275.715 198.128C275.428 197.925 275.37 197.562 275.459 196.98C275.686 196.242 275.973 195.616 276.385 195.161C276.828 194.677 277.321 194.368 277.863 194.21ZM234.637 195.529C234.35 195.838 234.147 196.148 234.063 196.5C234.063 197.284 234.027 198.067 234.063 198.822C234.233 198.907 234.4 199 234.563 199.099C234.863 199.232 235.092 199.302 235.239 199.302C235.462 199.302 235.698 199.209 235.924 199.019C236.585 198.532 237.072 198.09 237.417 197.674C237.933 197.08 238.278 196.419 238.398 195.699C238.478 195.107 238.449 194.677 238.279 194.456C238.107 194.21 237.817 194.084 237.43 194.084C236.988 194.084 236.497 194.236 235.982 194.52C235.462 194.791 235.004 195.12 234.638 195.529M232.251 204.766C231.773 204.982 231.28 205.352 230.818 205.853C230.505 206.207 230.105 206.73 229.622 207.449C229.519 207.746 229.376 208.22 229.161 208.856C228.68 210.332 228.358 211.545 228.213 212.477C228.016 213.828 228.181 214.777 228.703 215.312C228.964 215.508 229.218 215.702 229.519 215.892C230.051 216.253 230.534 216.434 230.995 216.466C231.47 216.492 231.943 216.334 232.486 216.018C233.002 215.951 233.569 215.696 234.121 215.231C234.669 214.776 235.084 214.183 235.324 213.513C235.414 213.214 235.46 212.904 235.462 212.593L235.204 212.851C234.546 213.325 233.86 213.551 233.202 213.513C232.796 213.501 232.406 213.349 232.099 213.083C231.828 212.825 231.657 212.441 231.624 211.922C231.786 211.445 232.025 210.49 232.344 209.038C232.461 208.512 232.598 207.991 232.757 207.475C232.967 206.838 233.262 206.233 233.635 205.675C233.834 205.053 233.747 204.736 233.376 204.724C233.376 204.724 233.173 204.736 232.857 204.766C232.537 204.798 232.344 204.798 232.251 204.766ZM253.207 205.04C252.755 205.398 252.436 205.656 252.294 205.82C252.029 206.104 251.836 206.439 251.695 206.875L253.555 206.789C253.758 207.739 253.669 209.178 253.239 211.136C252.81 213.065 252.552 214.258 252.495 214.686C252.463 215.286 252.607 215.702 252.894 215.932C253.24 216.189 253.62 216.302 254.074 216.302C254.358 216.302 254.559 216.289 254.671 216.276C255.442 214.857 256.251 213.47 257.051 212.049C258.054 210.339 258.986 209.078 259.867 208.252C260.488 208.252 260.867 208.794 260.982 209.911C261.034 210.498 261.121 211.374 261.238 212.51C261.712 213.768 262.224 214.726 262.763 215.371C263.412 216.132 264.175 216.512 265.047 216.512C265.25 216.512 265.54 216.467 265.911 216.393C266.285 216.302 266.624 216.209 266.852 216.102C267.322 215.903 267.759 215.633 268.146 215.3C268.606 214.857 268.914 214.384 269.036 213.886C269.12 213.671 269.136 213.407 269.12 213.155C268.607 213.367 268.179 213.471 267.862 213.471C266.943 213.471 266.256 212.706 265.708 211.203C264.318 207.046 263.586 204.95 263.531 204.883C263.334 204.827 263.132 204.796 262.927 204.791C262.009 204.791 260.896 205.537 259.573 207.034C257.739 209.117 256.622 210.3 256.252 210.587C256.075 210.471 256.016 210.156 256.136 209.671C256.226 209.177 256.252 208.881 256.226 208.782C256.275 207.594 256.162 206.65 255.904 205.927C255.587 205.153 255.075 204.766 254.384 204.766C254.042 204.766 253.636 204.869 253.208 205.041M277.864 194.21C277.322 194.368 276.828 194.678 276.386 195.161C275.973 195.616 275.686 196.242 275.46 196.98C275.37 197.562 275.428 197.925 275.715 198.128C276.002 198.229 276.267 198.339 276.544 198.406C277.063 198.115 277.578 197.818 278.089 197.516C278.704 197.13 279.147 196.523 279.327 195.82C279.492 195.208 279.466 194.759 279.263 194.52C279.101 194.275 278.779 194.145 278.344 194.145C278.181 194.142 278.019 194.164 277.863 194.211M278.066 195.858C277.769 195.907 277.471 195.949 277.173 195.985C276.801 196.111 276.544 196.407 276.431 196.869C276.769 196.917 277.089 196.887 277.375 196.743C277.663 196.584 277.888 196.288 278.066 195.858ZM283.332 195.529C283.049 195.84 282.855 196.149 282.758 196.5C282.735 197.285 282.735 198.068 282.735 198.822C282.822 198.848 282.993 198.938 283.252 199.1C283.567 199.232 283.8 199.303 283.938 199.303C284.171 199.303 284.371 199.21 284.599 199.02C285.287 198.533 285.777 198.091 286.119 197.675C286.615 197.114 286.955 196.433 287.106 195.7C287.179 195.108 287.15 194.678 286.951 194.456C286.793 194.211 286.518 194.085 286.119 194.085C285.686 194.085 285.203 194.237 284.658 194.52C284.171 194.792 283.71 195.121 283.332 195.53M282.391 204.766C281.857 205.055 281.388 205.45 281.013 205.927C280.622 206.468 280.26 207.029 279.927 207.608C279.843 207.891 279.723 208.367 279.524 209.027C279.136 210.523 278.895 211.758 278.811 212.707C278.688 214.058 278.923 214.971 279.465 215.503C279.743 215.69 280.031 215.862 280.326 216.019C280.865 216.335 281.384 216.513 281.852 216.513C282.307 216.513 282.79 216.335 283.284 215.986C283.826 215.874 284.342 215.57 284.887 215.103C285.402 214.614 285.778 213.996 285.977 213.313C286.064 213.01 286.09 212.707 286.064 212.378L285.832 212.661C285.174 213.187 284.524 213.426 283.871 213.426C283.426 213.426 283.048 213.313 282.735 213.065C282.448 212.826 282.274 212.443 282.191 211.936C282.316 211.446 282.506 210.491 282.735 209.027C282.805 208.488 282.909 207.955 283.048 207.43C283.211 206.781 283.474 206.16 283.825 205.589C283.996 204.95 283.884 204.64 283.51 204.64C283.51 204.64 283.309 204.666 282.993 204.724C282.677 204.786 282.487 204.798 282.39 204.766M290.305 205.041C289.841 205.399 289.528 205.657 289.402 205.821C289.122 206.125 288.911 206.485 288.782 206.876L290.643 206.79C290.882 207.74 290.759 209.179 290.327 211.137C289.902 213.066 289.676 214.259 289.588 214.687C289.556 215.287 289.702 215.703 290.014 215.932C290.327 216.19 290.734 216.304 291.188 216.304C291.38 216.305 291.571 216.296 291.762 216.278C292.566 214.858 293.358 213.471 294.171 212.05C295.146 210.34 296.077 209.079 296.955 208.253C297.584 208.253 297.96 208.795 298.099 209.912C298.164 210.498 298.245 211.375 298.357 212.511C298.805 213.769 299.315 214.727 299.88 215.372C300.531 216.133 301.279 216.513 302.144 216.513C302.34 216.513 302.625 216.468 302.995 216.394C303.405 216.303 303.714 216.21 303.947 216.103C304.414 215.903 304.848 215.632 305.234 215.301C305.724 214.858 306.007 214.385 306.153 213.888C306.21 213.672 306.239 213.407 306.21 213.156C305.698 213.369 305.269 213.471 304.949 213.471C304.049 213.471 303.34 212.707 302.828 211.204C301.411 207.047 300.679 204.951 300.637 204.883C300.479 204.845 300.276 204.793 300.018 204.793C299.105 204.793 297.98 205.538 296.673 207.035C294.803 209.118 293.719 210.301 293.339 210.588C293.171 210.472 293.139 210.157 293.22 209.673C293.31 209.179 293.357 208.882 293.339 208.782C293.398 207.596 293.272 206.651 292.991 205.928C292.707 205.154 292.194 204.767 291.478 204.767C291.14 204.767 290.733 204.871 290.304 205.042M346.543 195.53C346.289 195.84 346.082 196.15 345.966 196.501V198.823C346.034 198.849 346.194 198.939 346.485 199.1C346.808 199.233 347.004 199.304 347.169 199.304C347.388 199.304 347.617 199.21 347.836 199.021C348.495 198.533 349.01 198.091 349.352 197.675C349.844 197.114 350.179 196.433 350.323 195.701C350.41 195.108 350.352 194.679 350.184 194.457C350.017 194.211 349.723 194.086 349.352 194.086C348.917 194.086 348.433 194.238 347.895 194.521C347.393 194.782 346.936 195.123 346.543 195.53ZM345.628 204.767C345.14 205.015 344.682 205.399 344.254 205.928C343.97 206.289 343.586 206.844 343.131 207.609C343.001 208.079 342.883 208.552 342.776 209.028C342.354 210.524 342.124 211.759 342.041 212.707C341.928 214.058 342.151 214.972 342.696 215.504C342.968 215.694 343.252 215.866 343.547 216.019C344.108 216.336 344.589 216.513 345.086 216.513C345.504 216.513 346.011 216.336 346.514 215.987C347.034 215.874 347.572 215.571 348.101 215.103C348.668 214.588 349.01 213.982 349.213 213.313C349.275 213.005 349.302 212.692 349.294 212.378L349.061 212.661C348.41 213.188 347.75 213.427 347.091 213.427C346.662 213.427 346.278 213.313 345.966 213.066C345.656 212.827 345.495 212.443 345.427 211.936C345.546 211.446 345.711 210.492 345.966 209.028C346.037 208.49 346.141 207.956 346.279 207.431C346.445 206.786 346.699 206.166 347.033 205.589C347.201 204.951 347.117 204.641 346.707 204.641C346.707 204.641 346.543 204.667 346.227 204.725C345.911 204.787 345.711 204.799 345.627 204.767M360.759 204.158C358.84 204.158 357.118 205.458 355.654 208.05C355.599 207.248 355.402 206.587 355.06 206.106C354.709 205.616 354.228 205.374 353.651 205.374C353.493 205.374 353.364 205.386 353.306 205.412C352.883 205.581 352.451 205.729 352.012 205.854C351.5 206.106 351.18 206.505 351.016 207.034C351.139 207.03 351.262 207.015 351.383 206.99C352.535 206.99 352.906 208.215 352.506 210.589C351.958 213.817 351.761 215.704 351.9 216.278C352.041 216.337 352.185 216.385 352.332 216.423C352.481 216.472 352.634 216.502 352.789 216.514C353.19 216.514 353.503 216.337 353.748 216.02L355.654 210.645C355.882 209.88 356.109 209.358 356.418 209.054C356.721 208.771 357.047 208.624 357.402 208.624C357.657 208.624 358.182 208.783 359.011 209.118C359.36 209.225 359.643 209.28 359.846 209.267L362.256 204.925C362.162 204.568 361.933 204.384 361.501 204.371C361.101 204.323 360.846 204.271 360.759 204.158M367.619 191.797C367.308 192.424 367.028 193.065 366.778 193.718C366.559 194.374 366.36 195.035 366.181 195.702C365.933 196.671 365.706 197.645 365.5 198.624C365.307 199.6 365.083 200.57 364.829 201.533C364.721 202.009 364.587 202.478 364.426 202.939C364.296 203.383 364.134 203.818 363.942 204.239C363.895 204.694 363.818 205.145 363.713 205.59C363.613 206.089 363.493 206.584 363.352 207.074C363.199 207.544 363.063 208.02 362.943 208.5C362.824 208.941 362.71 209.415 362.578 209.873C362.178 211.325 361.933 212.57 361.82 213.553C361.733 214.562 361.866 215.459 362.197 216.305C362.539 216.436 362.833 216.514 363.139 216.514C363.662 216.508 364.177 216.385 364.646 216.153C365.178 215.908 365.758 215.559 366.432 215.123C366.58 214.701 366.642 214.385 366.612 214.152C366.612 213.943 366.432 213.831 366.122 213.831C365.974 213.831 365.752 213.856 365.4 213.888C365.142 213.888 364.948 213.817 364.829 213.672C364.716 213.513 364.683 213.224 364.743 212.781L370.138 195.701C369.989 194.622 369.729 193.738 369.332 193.077C368.877 192.225 368.296 191.797 367.62 191.797M373.715 195.53C373.415 195.841 373.23 196.15 373.14 196.501C373.111 197.286 373.111 198.069 373.111 198.823C373.29 198.906 373.463 198.998 373.63 199.101C373.943 199.233 374.143 199.304 374.337 199.304C374.53 199.304 374.747 199.211 374.979 199.021C375.637 198.533 376.158 198.092 376.497 197.675C376.988 197.114 377.323 196.433 377.468 195.701C377.56 195.108 377.533 194.679 377.32 194.457C377.168 194.212 376.898 194.086 376.497 194.086C376.069 194.086 375.579 194.238 375.049 194.521C374.548 194.775 374.096 195.117 373.715 195.53ZM372.788 204.767C372.279 205.016 371.825 205.399 371.386 205.928C371.103 206.289 370.753 206.844 370.283 207.609C370.221 207.892 370.076 208.367 369.919 209.028C369.506 210.524 369.261 211.759 369.183 212.707C369.07 214.059 369.312 214.972 369.848 215.504C370.123 215.693 370.409 215.865 370.705 216.019C371.251 216.336 371.741 216.513 372.195 216.513C372.68 216.513 373.16 216.336 373.66 215.987C374.172 215.875 374.724 215.571 375.269 215.103C375.784 214.614 376.16 213.997 376.359 213.314C376.418 213.006 376.447 212.693 376.446 212.379L376.21 212.662C375.552 213.188 374.894 213.427 374.234 213.427C373.804 213.427 373.415 213.314 373.111 213.066C372.824 212.827 372.624 212.443 372.566 211.936C372.694 211.446 372.856 210.492 373.111 209.028C373.177 208.488 373.285 207.954 373.434 207.431C373.594 206.786 373.843 206.167 374.173 205.59C374.346 204.951 374.259 204.641 373.853 204.641C373.853 204.641 373.692 204.667 373.375 204.725C373.053 204.787 372.856 204.799 372.788 204.767ZM379.993 205.042C379.522 205.4 379.219 205.658 379.081 205.822C378.804 206.125 378.599 206.485 378.481 206.877L380.306 206.79C380.529 207.741 380.455 209.18 380.025 211.137C379.584 213.066 379.339 214.259 379.281 214.688C379.249 215.288 379.394 215.704 379.681 215.933C380.025 216.191 380.39 216.304 380.854 216.304C381.044 216.306 381.233 216.297 381.421 216.278C382.228 214.859 383.038 213.472 383.841 212.051C384.84 210.341 385.756 209.08 386.643 208.254C387.276 208.254 387.637 208.796 387.763 209.912C387.818 210.499 387.907 211.376 388.021 212.512C388.482 213.769 388.998 214.728 389.537 215.373C390.204 216.134 390.949 216.514 391.829 216.514C392.032 216.514 392.307 216.469 392.665 216.395C393.062 216.304 393.404 216.21 393.639 216.104C394.106 215.903 394.541 215.632 394.929 215.302C395.38 214.859 395.687 214.386 395.813 213.888C395.903 213.673 395.903 213.408 395.903 213.157C395.371 213.369 394.955 213.472 394.616 213.472C393.726 213.472 393.023 212.708 392.526 211.205C391.088 207.048 390.368 204.952 390.311 204.884C390.108 204.826 389.899 204.795 389.688 204.793C388.76 204.793 387.679 205.539 386.357 207.035C384.496 209.119 383.402 210.302 383.038 210.589C382.857 210.473 382.803 210.157 382.915 209.673C382.999 209.179 383.038 208.883 383.018 208.783C383.057 207.596 382.941 206.652 382.689 205.929C382.374 205.155 381.857 204.768 381.154 204.768C380.81 204.768 380.423 204.872 379.993 205.043M411.167 207.88C410.984 208.151 410.661 208.41 410.516 208.657C410.41 208.896 410.29 209.142 410.232 209.383C410.152 209.741 410.29 210.012 410.439 210.253C411.271 210.69 412.532 210.96 414.279 211.047C416.002 211.105 416.979 210.709 416.979 211.325C416.979 211.76 416.979 211.76 416.802 212.089C416.312 213.012 415.428 213.268 414.418 213.433C413.444 213.643 412.886 213.643 411.554 213.643H410.41C410.028 213.613 409.646 213.598 409.264 213.598C409.029 213.637 408.913 213.757 408.829 213.995C408.791 214.182 408.773 214.372 408.774 214.562C408.829 214.792 408.858 214.943 408.89 215.05C409 215.591 409.19 215.953 409.462 216.153C409.749 216.337 410.12 216.423 410.606 216.423C410.661 216.423 410.958 216.405 411.464 216.337C411.819 216.302 412.175 216.283 412.531 216.279C413.048 216.08 413.931 215.783 415.166 215.335C416.221 214.873 417.114 214.235 417.83 213.403C418.375 212.571 418.691 212.035 418.775 211.806C418.915 211.572 419.013 211.316 419.062 211.048C419.164 210.778 419.204 210.49 419.181 210.203C419.043 209.51 418.543 209.3 418.14 209.143C417.772 208.942 417.292 208.858 416.682 208.858C416.166 208.858 415.428 208.955 414.393 209.181C413.348 209.397 412.612 209.51 412.187 209.51C411.928 209.485 411.696 209.439 411.444 209.426C411.167 209.346 411.097 209.28 411.319 208.771C411.813 208.284 412.444 207.807 413.821 207.28C414.67 206.936 415.499 206.765 416.312 206.765C416.82 206.759 417.325 206.851 417.798 207.036C418.32 207.242 418.733 207.51 419.062 207.881C419.379 207.623 419.611 207.387 419.717 207.194C419.964 206.919 420.143 206.59 420.239 206.234C420.249 206.146 420.265 206.001 420.297 205.775C419.582 205.188 418.692 204.885 417.663 204.885C416.615 204.885 415.541 205.156 414.418 205.704C413.299 206.214 412.21 206.946 411.167 207.88ZM217.579 195.736C217.43 195.786 217.275 195.814 217.118 195.82C216.978 195.824 216.839 195.792 216.715 195.727C216.634 195.635 216.508 195.529 216.383 195.366C216.234 195.208 216.151 195.107 216.067 195.037C215.99 194.983 215.899 194.955 215.805 194.956C215.673 194.956 215.515 195.024 215.296 195.153C215.258 195.265 215.095 195.598 214.828 196.143C214.566 196.685 214.386 197.126 214.312 197.449C214.109 198.117 214.225 198.623 214.602 198.955C215.631 199.303 217.066 199.474 218.956 199.474H221.406C221.431 199.529 221.462 199.58 221.501 199.626C221.562 199.694 221.619 199.752 221.646 199.797V199.929C221.275 200.615 220.961 201.331 220.707 202.068C220.479 202.805 220.172 203.741 219.814 204.851C219.498 205.966 217.492 212.12 217.466 212.31C217.409 212.51 216.438 215.074 217.353 215.986C217.882 216.526 218.753 216.677 219.585 216.677C219.941 216.678 220.297 216.643 220.646 216.573C221.108 216.336 221.362 216.077 221.449 215.793C221.501 215.603 221.449 215.287 221.276 214.825C221.108 214.384 221.056 214.033 221.133 213.756C221.407 212.707 221.62 212.032 222.11 210.201C222.585 208.346 223.048 206.505 223.537 204.654C224.026 202.818 224.4 201.367 224.661 200.306C224.787 199.839 225.045 199.613 225.403 199.613H226.525L227.958 199.403C229.702 198.948 230.563 198.446 231.279 197.771C231.37 197.594 231.595 197.201 231.943 196.584C232.302 195.965 232.514 195.497 232.634 195.153C232.663 194.872 232.685 194.646 232.663 194.456C231.683 194.621 231.109 194.856 229.019 195.32L226.984 195.53C225.465 195.53 224.245 195.611 223.284 195.736H217.579ZM248.969 212.258C248.853 213.01 248.769 213.551 248.682 213.886C248.449 214.686 248.107 215.299 247.704 215.748C247.276 216.15 246.644 216.335 245.795 216.335C245.686 216.209 245.64 216.018 245.695 215.748C245.731 215.457 245.753 215.286 245.795 215.174L245.956 214.528C246.072 214.171 246.103 213.941 246.13 213.829C246.13 213.635 246.102 213.426 245.986 213.268C244.867 214.216 243.718 215.003 242.519 215.622C241.371 216.209 240.284 216.512 239.31 216.512C238.361 216.512 237.529 216.189 236.814 215.57C236.814 215.287 236.814 215.068 236.781 214.929C236.756 214.645 236.669 214.429 236.556 214.316C236.53 214.265 236.594 213.941 236.697 213.338C236.813 212.767 236.901 212.297 236.988 211.936C237.246 211.045 237.53 210.314 237.875 209.752C239.019 208.069 240.397 206.824 241.913 206.012C243.435 205.185 244.98 204.766 246.525 204.766C246.956 204.761 247.386 204.8 247.808 204.883C248.653 205.266 249.182 205.524 249.385 205.657C249.918 206.012 250.256 206.504 250.433 207.159C250.059 207.739 249.743 208.466 249.511 209.381C249.34 209.949 249.169 210.901 248.97 212.258M246.36 210.403C247.189 209.823 247.679 209.117 247.876 208.22C247.398 207.975 246.869 207.846 246.331 207.845C245.263 207.845 244.096 208.269 242.77 209.116C241.703 209.804 240.535 210.787 239.281 212.049C239.391 212.193 239.597 212.297 239.794 212.378C240.03 212.455 240.239 212.51 240.41 212.51C240.803 212.51 241.429 212.336 242.319 212.02C243.206 211.697 243.867 211.532 244.322 211.532C244.98 211.142 245.673 210.775 246.36 210.403ZM337.798 210.49C337.542 210.49 337.297 210.661 337.065 211.003C337.107 211.374 337.084 211.981 337.04 212.839C337.008 213.511 337.002 214.185 337.023 214.857C337.032 215.326 337.162 215.785 337.401 216.189C337.194 216.902 336.882 217.279 336.485 217.279C332.257 216.302 329.032 215.115 326.703 213.684C326.703 213.684 326.506 213.671 326.246 213.635C325.997 213.584 325.761 213.584 325.588 213.584C324.849 214.971 324.011 216.077 323.169 216.902C322.837 216.902 322.572 216.851 322.353 216.738C322.129 216.607 321.926 216.444 321.75 216.253C321.543 216.031 321.375 215.86 321.26 215.716C321.347 215.412 321.572 214.984 321.889 214.429C322.204 213.886 322.401 213.471 322.492 213.187C322.548 212.998 322.578 212.803 322.582 212.607C322.185 212.461 321.866 212.174 321.631 211.697C321.4 211.209 321.292 210.673 321.317 210.134C321.663 209.878 321.992 209.727 322.314 209.672C322.741 209.574 323.176 209.519 323.614 209.507C324.098 209.507 324.458 209.482 324.671 209.436C326.848 205.695 328.712 202.502 330.316 199.838C331.893 197.19 333.554 194.607 335.225 192.086C335.543 192.145 335.846 192.271 336.112 192.456C336.425 192.675 336.724 192.915 337.004 193.175C337.342 193.504 337.595 193.737 337.833 193.888C337.773 195.015 337.694 196.141 337.595 197.265C337.514 198.406 337.434 199.625 337.311 200.912C337.231 202.206 337.137 203.367 337.107 204.382C337.064 205.371 337.041 206.36 337.04 207.349C337.085 207.707 337.285 207.878 337.656 207.878H337.862L338.085 207.846C338.313 207.846 338.485 207.91 338.576 208.03C338.933 208.484 339.201 208.856 339.378 209.178C339.552 209.462 339.659 209.904 339.723 210.436C339.575 210.549 339.378 210.604 339.059 210.604C339.059 210.604 338.859 210.587 338.575 210.555C338.317 210.517 338.058 210.495 337.798 210.491M330.409 205.214C329.49 206.855 328.754 208.107 328.229 208.939C328.69 208.926 329.406 208.794 330.409 208.571C331.38 208.365 332.066 208.22 332.439 208.136C332.783 208.069 333.241 208.029 333.815 208.029C333.915 207.985 334.022 207.958 334.131 207.949C334.259 207.929 334.38 207.879 334.485 207.804C334.559 207.739 334.622 207.621 334.683 207.45C334.534 206.717 334.485 205.82 334.534 204.737C334.591 203.669 334.621 202.602 334.683 201.55C334.719 200.464 334.683 199.555 334.534 198.835H334.308C333.647 199.738 333.046 200.596 332.554 201.454C331.83 202.703 331.115 203.956 330.409 205.214ZM334.534 214.87C334.817 214.87 335.021 214.712 335.124 214.334C335.033 214.093 334.989 213.78 334.989 213.367C334.989 212.958 334.966 212.593 334.966 212.258C334.934 211.923 334.905 211.638 334.795 211.387C334.073 211.458 333.355 211.568 332.644 211.716C331.646 211.889 330.652 212.087 329.664 212.309C328.364 212.58 327.454 212.767 326.848 212.852L326.764 213.187C327.684 213.493 328.503 213.754 329.257 213.993C329.973 214.238 330.754 214.429 331.537 214.587C332.328 214.725 333.141 214.799 334.017 214.799C334.017 214.799 334.114 214.812 334.25 214.837C334.342 214.862 334.437 214.873 334.533 214.869M407.911 212.225C407.905 212.441 407.885 212.635 407.801 212.825C407.685 213.337 407.426 213.79 407.053 214.196C406.719 214.58 406.308 214.889 405.846 215.101C404.16 216.031 402.454 216.511 400.686 216.511C399.574 216.511 398.725 216.221 397.91 215.86C397.084 215.24 396.881 214.196 397.006 212.918C397.006 211.715 397.165 211.031 397.713 209.948C398.874 208.094 400.403 206.716 402.315 205.82C403.808 205.12 405.423 204.766 407.188 204.766C407.627 204.766 407.972 205.04 408.256 205.614C408.456 205.927 408.63 206.471 408.83 207.191C408.345 208.539 407.513 209.6 406.308 210.338C405.273 210.832 404.214 211.322 403.186 211.803C402.986 211.89 402.454 212.006 401.615 212.132C400.799 212.251 400.234 212.422 399.974 212.661C400.27 213.009 400.629 213.267 401.016 213.399C401.448 213.53 401.896 213.597 402.347 213.596C403.069 213.596 404.215 213.338 405.821 212.825C406.479 212.606 407.143 212.409 407.911 212.225ZM402.183 208.093C401.235 208.655 400.512 209.507 399.974 210.642C401.016 210.642 402.138 210.338 403.335 209.784C404.553 209.222 406.624 207.909 406.624 207.474C406.624 207.046 406.227 207.058 406.024 207.033C405.719 206.99 405.41 206.986 405.104 207.02C404.064 207.161 403.067 207.527 402.183 208.094M277.663 210.913C277.838 210.914 278.008 210.972 278.149 211.077C277.84 211.548 277.426 211.941 276.939 212.225C275.459 213.083 274.682 213.538 274.65 213.597C274.25 214.315 273.422 216.257 272.102 219.388C271.093 221.811 270.087 223.661 269.119 224.891C269.01 224.949 268.858 224.962 268.69 224.962C268.345 224.962 268.113 224.771 267.942 224.374C267.797 223.987 267.771 223.459 267.861 222.778C267.942 222.113 268.113 221.362 268.346 220.524C268.661 219.301 269.086 218.163 269.664 217.125C270.209 216.09 270.941 215.122 271.815 214.238C272.128 213.141 272.615 211.032 273.276 207.923C273.526 206.674 273.803 205.43 274.108 204.192C274.77 204.192 275.282 204.467 275.653 204.969C276.028 205.485 276.288 206.211 276.43 207.159C276.343 207.53 276.288 207.859 276.211 208.136C276.137 208.446 276.047 208.752 275.94 209.052C275.798 209.494 275.714 209.81 275.653 210.023C275.541 210.471 275.459 210.832 275.427 211.136C275.427 211.419 275.479 211.651 275.598 211.803C276.288 211.52 276.972 211.236 277.663 210.913ZM269.548 220.185C269.516 220.215 269.635 220.65 269.852 221.452L270.983 216.996C270.838 217.047 270.68 217.16 270.493 217.37C270.289 217.572 270.097 217.786 269.919 218.011C269.782 218.234 269.677 218.475 269.607 218.727C269.487 219.204 269.467 219.7 269.549 220.185M339.439 115.351L339.378 115.982L340.494 117.224H341.759C345.16 116.663 346.944 115.838 347.057 114.719L347.257 112.838L345.567 110.932H343.68L339.439 115.351ZM353.95 114.718C353.827 115.982 353.133 116.605 351.879 116.605L351.818 117.225C351.717 118.063 352.73 118.485 354.833 118.485L351.301 127.915L350.902 131.669L353.108 134.823H354.974L355.655 134.192L355.613 134.823C351.934 140.403 349.353 145.231 347.802 149.269L347.515 151.788L348.669 153.042C350.754 151.652 352.878 149.343 355.042 146.131L357.493 146.762L362.141 156.183C367.317 156.183 371.284 148.431 374.032 132.937L374.203 131.05H372.964L370.397 137.336L362.943 148.637H362.312C362.453 147.382 361.334 145.918 359.012 144.258H355.858L363.114 129.164C363.401 126.657 362.312 124.981 359.87 124.145C357.955 126.257 355.636 127.964 353.05 129.164H352.433C352.692 126.784 355.884 122.178 362.05 115.351C362.257 113.525 361.161 112.064 358.761 110.932L353.95 114.718ZM347.718 120.362C348.918 120.785 349.434 122.059 349.215 124.145L348.867 127.271C346.486 129.94 345.222 132.027 345.054 133.562L345.303 137.336C345 138.578 343.826 140.055 341.668 141.735L341.617 142.344L342.561 145.502C341.24 145.918 340.465 147.186 340.266 149.268L340.065 151.149L340.581 158.064L339.895 158.689H339.262C334.796 154.632 332.241 151.288 331.538 148.637L332.555 144.87H331.934L329.973 145.502L329.719 148.024L329.922 158.064L329.232 158.689H327.964C326.977 158.689 326.09 157.232 325.271 154.29L326.245 151.149L326.622 147.382H324.129L324.478 144.257C326.422 144.257 329.031 137.336 332.295 123.523L334.308 122.252L337.127 125.409C340.935 122.336 344.254 120.647 347.091 120.362H347.718ZM333.815 132.938H333.183L330.58 139.843H331.203L333.157 139.23L333.815 132.938ZM342.568 127.272H341.955L338.743 127.916C338.672 131.26 339.118 132.938 340.094 132.938H340.729L342.568 127.272ZM400.581 110.114C399.687 110.317 399.146 110.675 398.888 111.182C398.568 111.849 398.769 112.172 399.433 112.133C402.922 114.507 402.787 117.312 399.03 120.583C398.629 120.944 398.417 121.163 398.371 121.334H398.888C399.21 121.328 399.687 121.395 400.32 121.521C398.658 122.405 396.075 123.405 392.553 124.52C392.237 124.533 392.066 124.533 392.066 124.533C391.551 124.724 391.263 124.823 391.263 124.823C391.202 125.153 391.422 125.308 391.922 125.284C394.299 125.872 399.809 124.678 408.456 121.744C412.165 120.469 415.597 119.447 418.693 118.657C419.406 118.486 419.466 118.651 418.867 119.151C417.577 120.682 416.654 121.624 416.084 121.989C415.297 122.672 415.332 122.83 416.222 122.469C416.577 122.457 417.345 122.278 418.577 121.902C421.531 121.137 423.294 120.583 423.859 120.215C425.056 119.031 424.843 117.719 423.14 116.289C419.808 115.576 414.877 116.235 408.373 118.273C409.488 112.633 406.879 109.91 400.581 110.114ZM407.022 128.974C403.506 130.251 399.349 132.047 394.618 134.349C393.685 134.889 392.811 135.154 391.947 135.186C390.979 135.247 390.438 135.815 390.37 136.982C390.86 138.781 391.577 139.746 392.528 139.885C393.757 140.326 394.956 139.311 396.108 136.795C396.704 136.276 397.507 135.499 398.549 134.466C402.325 131.196 406.254 129.664 410.324 129.852C410.988 129.996 411.069 130.406 410.611 131.089C408.828 133.466 406.999 135.167 405.135 136.221C403.999 136.94 404.077 137.085 405.274 136.717C410.292 135.563 413.939 134.263 416.167 132.879C416.887 131.86 417.003 130.774 416.577 129.639C413.604 128.748 410.421 128.532 407.022 128.974ZM391.946 145.344C391.437 145.531 391.164 145.721 391.128 145.873C390.915 146.05 390.951 146.308 391.215 146.618C392.87 149.198 395.475 149.766 399.055 148.328C397.223 151.03 395.501 152.984 393.949 154.184C393.181 156.367 393.527 157.599 394.955 157.877C396.262 158.014 397.681 157.877 399.261 157.483C400.609 157.277 402.264 156.789 404.216 156.084C404.554 156.064 404.792 156.141 404.941 156.299C404.941 156.299 404.793 156.557 404.528 157.048C402.922 158.609 400.767 160.325 398.087 162.231C397.304 162.74 397.368 162.911 398.242 162.74C399.129 162.362 400.377 161.834 402.013 161.112C403.96 160.379 405.015 160.095 405.135 160.247C407.685 159.005 409.285 158.041 409.923 157.37C410.765 154.69 410.359 152.984 408.689 152.21C408.059 152.065 407.082 152.014 405.76 152.052C404.014 152.109 402.267 152.172 400.522 152.239C404.099 148.327 406.611 145.166 408.059 142.812C408.172 142.151 407.995 141.499 407.453 140.865C405.534 140.583 403.76 140.731 402.154 141.274C400.548 142.005 398.568 142.812 396.246 143.714C393.843 144.96 392.437 145.502 391.946 145.344ZM389.215 131.573C390.312 128.399 390.831 125.409 390.711 122.594C390.634 122.106 390.437 121.868 390.118 121.888C389.941 121.901 389.628 122.146 389.228 122.659C388.148 123.845 386.619 125.793 384.613 128.51C383.581 128.709 383.694 130.279 384.923 133.201C386.358 134.307 387.8 133.782 389.215 131.572M275.827 116.592C277.262 118.715 275.495 125.749 273.761 127.654L273.741 127.989H274.079C274.966 125.464 278.179 120.537 280.21 119.204L280.388 119.03L281.013 119.691L281.156 119.849L281.53 119.514C281.758 118.063 282.651 117.099 282.275 115.45C281.646 112.771 276.311 107.179 272.615 107.153C272.419 107.263 272.444 107.263 272.103 107.304C271.61 107.968 269.894 109.545 270.726 110.906C270.812 112.8 274.853 115.106 275.827 116.592ZM311.281 113.822C312.607 113.919 312.461 114.46 313.032 115.128C312.632 115.873 312.084 116.209 311.842 117.079H311.326C309.191 119.344 305.608 120.614 303.918 123.275C304.55 123.417 305.179 123.617 305.35 124.255C305.608 124.581 305.64 124.917 305.582 125.555C304.982 125.996 305.008 126.709 304.263 127.019C303.486 127.461 302.802 127.125 301.964 127.655C300.706 128.807 299.464 129.94 298.213 131.089C298.039 132.027 297.835 133.089 297.955 134.018H298.306C298.812 133.473 300.193 133.089 300.793 132.705L300.825 132.547C301.167 132.409 301.583 132.792 302.031 132.547C301.09 132.053 300.592 130.854 300.389 129.777H300.731C301.167 130.879 302.25 130.773 302.967 131.573C303.714 132.434 304.121 133.505 304.749 134.508C305.514 135.701 306.959 136.817 307.275 138.407C307.613 140.187 305.956 141.697 305.179 142.48C303.714 143.98 302.144 145.753 300.334 146.876C299.615 147.324 297.07 148.588 296.691 149.149C296.552 150.725 296.409 152.3 296.261 153.874C296.955 155.126 295.606 159.295 295.923 161.353C296.181 163.253 295.284 162.666 295.606 164.753C295.893 166.874 295.349 170.39 295.201 172.58C295.062 174.698 294.574 177.998 294.778 178.907C294.717 179.608 294.662 180.313 294.591 181.036C294.597 181.765 295.262 183.471 294.401 184.771L294.885 185.265C293.911 185.377 292.195 187.225 291.563 187.87C291.215 187.812 290.873 187.754 290.566 187.712C290.47 187.1 290.046 186.822 289.814 186.412C289.769 186.328 290.244 185.88 290.073 185.589C289.902 185.344 289.157 185.412 288.728 185.432C288.911 184.77 289.214 184.242 289.402 183.484L289.24 183.313H288.737C289.011 181.381 289.386 181.004 289.959 179.414C290.614 177.546 289.44 175.734 290.16 173.55C290.614 172.138 291.304 169.387 291.076 167.517C291.021 167.204 290.586 167.219 290.789 166.717C292.42 162.375 291.643 157.745 292.136 152.568H291.789C291.391 152.984 285.777 155.858 285.144 155.996C284.842 156.051 284.458 155.754 283.938 155.996C283.19 156.334 281.478 157.325 280.93 157.283C280.5 157.012 280.098 156.722 280.013 156.141C280.817 155.252 280.958 153.958 281.477 153.213C281.962 152.838 282.448 152.455 282.932 152.081C283.284 151.597 283.219 151.194 283.567 150.775C284.283 149.93 285.345 149.212 286.028 148.347C286.286 147.982 286.202 147.595 286.476 147.198C287.321 146.566 288.179 145.905 289.056 145.24C289.927 144.226 291.021 141.993 292.452 141.664C292.533 141.328 292.626 141.022 292.71 140.687L292.249 140.199C291.834 140.081 291.643 140.035 291.391 140.199C290.897 140.503 288.167 142.938 287.763 142.48C287.089 141.709 287.063 140.145 287.234 139.065C288.266 138.781 292.42 134.343 292.894 133.366L293.081 133.188H292.914C291.669 134.098 286.716 135.574 285.231 135.001C285.005 134.237 285.231 133.782 285.231 133.024C286.351 132.408 286.89 131.088 288.04 130.425L288.066 130.267H287.719C286.576 131.215 284.458 132.154 283.035 132.705C282.448 132.878 281.868 133.025 281.3 133.189C281.213 133.74 281.187 134.282 281.132 134.843C280.355 135.897 280.638 137.652 280.239 139.065C279.73 140.774 279.581 143.69 279.101 145.734H279.261V145.576C279.523 145.344 279.523 145.273 279.665 144.928H279.842L279.781 145.577C279.126 146.262 279.149 147.179 278.687 148.169C277.817 150.049 276.688 152.1 275.769 153.874C275.111 155.113 274.769 157 273.389 157.46C272.84 157.048 272.328 157.621 271.354 157.283C270.838 157.106 270.522 156.413 270.087 156.141C269.635 156.051 269.206 155.919 268.745 155.826L268.802 155.332C268.515 154.671 269.463 153.477 269.722 152.732C269.918 150.511 270.151 148.285 270.354 146.057C270.318 144.269 270.318 142.48 270.318 140.687C269.892 138.339 268.889 136.03 268.786 133.537C269.343 133.201 269.173 132.817 269.579 132.388C269.834 132.092 270.318 132.288 270.637 132.053L270.865 131.415H271.728C272.127 131.183 272.127 130.673 272.676 130.425L272.627 130.76C272.385 131.044 272.269 131.44 272.188 131.908C272.82 132.331 274.649 134.653 275.239 134.018C276.913 133.134 278.087 131.744 279.635 130.76C281.477 129.599 283.351 128.773 285.23 127.654C286.373 126.986 287.904 125.496 289.181 125.555L289.213 125.377V125.226C290.5 123.781 294.202 122.798 295.061 121.148C295.164 120.953 295.322 119.995 295.547 119.514H295.38C293.429 120.943 290.013 122.448 287.32 123.597C286.792 123.648 286.269 123.688 285.775 123.761C284.798 124.045 283.824 124.461 283.079 124.897C282.948 124.261 282.853 123.742 282.948 122.79C283.508 122.278 283.85 121.426 284.479 120.991C285.83 120.075 287.295 119.685 288.781 118.872C291.103 117.579 293.509 116.07 295.976 114.96C295.686 113.683 296.538 107.852 297.121 106.327C297.292 105.885 297.828 105.04 297.979 104.559C298.066 104.249 297.556 103.866 297.528 103.721C297.434 103.36 297.779 102.792 297.779 102.75C297.828 102.374 297.868 101.997 297.898 101.618L298.428 101.46C298.531 101.07 298.614 100.686 298.698 100.312C298.898 99.9957 299.215 100.021 299.462 99.6575L299.304 99.5121C298.727 99.5249 298.589 99.7315 298.305 99.183C299.85 98.8804 301.194 98.5449 303.139 98.5156C303.34 98.8255 303.456 98.8091 303.604 99.183C302.394 100.009 303.059 101.328 302.54 102.917C301.537 106.101 301.22 109.816 300.997 112.357H301.352C301.878 111.955 301.991 112.303 302.572 112.038C304.142 111.26 306.08 110.436 307.735 109.758C308.348 109.493 308.818 109.716 309.477 109.433L310.051 108.768C311.228 108.284 313.23 109.159 313.55 109.6C313.779 109.875 313.792 110.107 313.802 110.58C313.217 111.148 313.089 111.994 312.586 112.68C312.144 113.067 311.708 113.451 311.279 113.822M275.653 144.099C277.521 140.732 279.178 136.939 281.107 133.367H280.752L276.343 135.001C275.714 135.107 275.621 134.798 275.334 134.653C274.828 138.913 272.841 143.493 273.359 148.498H273.547L273.56 148.347C274.36 147.653 275.075 145.153 275.653 144.099ZM291.908 149.32C292.108 147.292 292.275 145.299 292.482 143.293L292.162 142.97C291.562 144.367 290.327 144.928 289.328 145.905L289.07 146.705L288.35 147.04C288.067 147.279 288.04 147.717 287.763 148.008C287.525 148.301 286.925 148.385 286.689 148.657C285.396 150.192 284.397 151.79 283.48 153.697H283.825C285.461 152.41 291.011 150.924 291.907 149.32M293.968 127.17C293.772 127.435 293.801 127.317 293.601 127.655H293.93L294.314 127.341C294.143 127.203 294.275 127.27 293.968 127.17ZM293.801 136.281C294.172 135.827 294.401 135.827 294.597 135.153L294.274 135.001C294.046 135.563 293.72 135.727 293.475 136.281H293.801ZM291.049 131.24C292.34 129.796 294.745 129.963 295 127.341H294.806C293.613 128.715 292.024 129.676 290.873 131.24H291.049ZM300.68 137.765C299.532 138.339 297.639 139.052 297.384 140.036C296.351 141.457 297.123 144.989 296.665 146.057H297.184C298.899 143.912 303.231 142.244 304.263 139.559C304.276 138.839 304.289 138.136 304.289 137.436C303.937 137.146 303.804 136.817 303.714 136.281H303.218C302.967 136.756 302.595 137.607 302.386 137.765C301.941 138.003 301.089 137.936 300.679 137.765M298.877 125.871C299.452 125.377 299.993 124.897 300.564 124.407L300.248 124.255C299.644 124.758 298.926 125.152 298.383 125.699H298.557L298.877 125.871ZM303.628 119.03H303.286C303.089 119.149 303.108 119.131 302.744 119.204C301.854 120.191 300.451 120.733 299.615 121.817H300.118C300.999 120.978 302.428 119.592 303.605 119.205L303.628 119.03ZM304.408 114.316H304.063C303.298 114.915 301.354 115.589 300.335 115.779C300.294 116.319 300.247 116.857 300.193 117.396H300.531C301.483 116.379 303.605 115.747 304.227 114.467L304.408 114.316ZM251.436 152.904C254.188 153.806 256.483 152.094 258.683 151.926L258.654 152.41C257.628 152.672 257.392 153.268 256.654 153.703C255.474 154.374 254.358 154.532 253.093 155.168C251.603 155.938 250.001 157.996 247.704 157.938C247.362 157.938 246.701 157.515 246.047 157.46C245.357 156.299 243.661 155.351 243.489 153.874H242.977C242.235 151.684 239.819 149.989 238.564 148.169C236.926 145.822 235.439 143.254 234.313 140.529L233.949 140.687C233.356 141.803 232.685 143.292 232.227 144.422C232.024 144.961 232.168 145.93 232.082 146.057L231.337 146.706C231.195 147.279 231.195 148.227 230.792 148.985C230.483 149.579 229.908 149.989 229.621 150.62C229.041 150.576 229.218 150.266 228.906 150.776L228.332 151.439C228.841 151.42 228.586 151.268 228.841 151.439C228.963 151.598 228.963 151.598 228.989 151.927C228.199 152.658 228.157 153.358 227.557 154.361C225.632 157.46 219.36 163.143 214.777 163.302C214.857 162.989 214.828 163.005 214.973 162.818L215.686 162.508C214.702 162.489 213.983 162.989 212.734 163.143L212.751 162.818L212.961 162.508C217.466 160.785 219.585 158.034 222.11 154.184C222.507 153.584 223.358 152.984 223.797 152.41C224.2 151.868 224.129 151.439 224.462 150.775C224.688 150.352 225.319 149.842 225.619 149.482C225.923 148.827 226.197 148.169 226.497 147.54H226.122C224.888 148.575 220.618 149.766 218.415 149.804C217.621 148.285 217.118 147.54 217.289 145.412C219.573 144.928 221.363 141.349 222.774 139.709C224.975 137.113 227.254 134.566 229.48 131.909C229.986 131.259 231.05 130.528 231.369 129.783C231.483 128.635 231.595 127.503 231.682 126.368C231.733 126.129 232.228 124.11 232.14 123.598L231.683 122.791C231.733 121.643 231.802 120.505 231.859 119.357C231.682 118.65 231.256 118.089 231.196 117.25C231.483 117.144 231.734 117.099 232.228 117.079C232.711 116.814 233.685 117.166 234.407 117.396C236.44 118.063 237.255 118.959 237.678 120.991C237.729 121.333 237.646 122.41 237.987 122.942C239.509 120.86 242.361 119.205 243.035 116.421C238.39 116.209 236.127 114.19 233.888 111.88C233.115 111.065 231.802 110.384 231.802 108.939L232.169 108.458C236.727 107.81 241.516 108.971 244.299 110.404C245.812 111.209 247.508 111.922 247.363 114.145C246.644 114.77 246.518 115.615 245.956 116.421C245.554 117.012 244.612 117.93 244.07 118.55C243.551 119.117 242.548 119.428 242.032 120.008C240.745 121.466 239.226 122.916 238.049 124.407C239.078 124.594 239.532 125.542 240.48 125.707C241.257 125.858 243.18 125.139 244.411 125.555C244.463 126.558 245.225 127.271 244.612 128.806C244.312 129.606 240.767 133.518 240.052 134.017C238.278 135.227 235.924 136.691 235.439 139.229C236.44 139.884 236.955 141.203 237.788 141.835H238.462L238.587 142.309C241.119 144.138 243.49 145.973 245.924 147.857C247.763 149.255 249.023 152.094 251.437 152.903M237.474 125.062C237.275 126.736 236.385 128.671 236.526 129.469L236.727 129.29C237.704 128.874 238.449 128.255 238.648 127.02C238.219 126.426 238.158 125.411 237.474 125.062ZM230.535 135.318C230.818 134.654 231.163 131.532 230.921 131.09C228.412 135.298 224.975 139.079 222.439 143.294H222.775C225.067 141.219 227.214 138.988 229.199 136.618C229.596 136.189 230.28 135.899 230.534 135.318M235.091 139.382L234.776 139.23L234.75 139.559H235.092L235.091 139.382ZM235.24 139.711C235.924 140.417 236.584 141.124 237.275 141.836C236.813 141.033 236.127 140.134 235.24 139.71" fill="#ED1C24"/>
</svg>
