<svg width="480" height="320" viewBox="0 0 480 320" fill="none" xmlns="http://www.w3.org/2000/svg">
<mask id="mask0_730_18151" style="mask-type:luminance" maskUnits="userSpaceOnUse" x="55" y="89" width="373" height="144">
<path d="M55.3848 89.293V232.26H427.718V89.293" fill="white"/>
</mask>
<g mask="url(#mask0_730_18151)">
<path d="M402.148 137.724C404.085 131.525 412.609 126.488 417.646 126.488C421.905 126.488 424.617 128.813 424.617 133.075V139.274C424.617 143.148 420.745 145.473 416.48 145.473C407.182 145.473 402.532 153.609 402.532 163.295V180.343C402.532 184.602 400.595 186.93 396.724 186.93H389.359C385.488 186.93 383.16 184.602 383.16 180.343V133.462C383.16 129.2 385.488 126.876 389.359 126.876H395.949C399.82 126.876 402.148 129.2 402.148 133.462V137.724Z" fill="#525350"/>
</g>
<path d="M272.741 137.721C274.678 131.522 283.202 126.488 288.626 126.488C292.497 126.488 295.209 128.813 295.209 133.075V139.274C295.209 143.148 291.725 145.473 287.463 145.473C278.165 145.473 273.519 153.609 273.519 163.295V180.343C273.519 184.605 271.578 186.93 267.32 186.93H259.955C256.084 186.93 254.146 184.605 254.146 180.343V133.462C254.146 129.2 256.084 126.876 259.955 126.876H266.541C270.8 126.876 272.741 129.2 272.741 133.462V137.721Z" fill="#525350"/>
<path d="M366.891 120.288C358.364 120.288 351.777 113.314 351.777 105.177C351.777 96.6537 358.364 89.6797 366.891 89.6797C375.027 89.6797 381.614 96.6537 381.614 105.177C381.614 113.314 375.027 120.288 366.891 120.288Z" fill="#F69E25"/>
<path d="M110.79 120.288C102.654 120.288 95.6797 113.314 95.6797 105.177C95.6797 96.6537 102.654 89.6797 110.79 89.6797C119.314 89.6797 125.9 96.6537 125.9 105.177C125.9 113.314 118.926 120.288 110.79 120.288ZM328.146 149.733H330.083V148.959C330.083 143.922 325.821 142.372 321.556 142.372C317.685 142.372 313.42 143.534 310.324 144.697C306.449 146.634 303.737 145.859 301.8 141.985L300.25 139.272C298.313 135.786 299.091 132.686 302.962 130.749C307.611 128.812 314.585 126.099 323.497 126.099C340.157 126.099 350.615 135.398 350.615 150.121V180.342C350.615 184.603 348.29 186.928 344.031 186.928H338.22C333.958 186.928 332.02 184.603 332.02 180.342V178.404L331.636 178.795C331.636 178.795 325.821 188.09 313.811 188.09C302.184 188.09 293.663 180.345 293.663 170.268C293.663 154.383 313.423 149.733 328.146 149.733ZM318.46 174.142C325.043 174.142 330.083 167.556 330.083 162.132V160.582H328.146C320.785 160.582 311.486 162.519 311.486 168.718C311.486 171.821 314.198 174.142 318.46 174.142Z" fill="#525350"/>
<mask id="mask1_730_18151" style="mask-type:luminance" maskUnits="userSpaceOnUse" x="55" y="89" width="373" height="144">
<path d="M55.3848 89.293V232.26H427.718V89.293" fill="white"/>
</mask>
<g mask="url(#mask1_730_18151)">
<path d="M63.5211 143.924H61.5839C57.7094 143.924 55.3848 141.987 55.3848 137.725V135.013C55.3848 130.751 57.7094 128.426 61.5839 128.426H63.9085V117.578C63.9085 113.316 66.2332 111.379 70.1076 111.379H76.6942C80.9561 111.379 83.2807 113.316 83.2807 117.578V128.426H89.0924C92.9668 128.426 95.2915 130.751 95.2915 135.013V137.725C95.2915 141.987 92.9668 143.924 89.0924 143.924H83.2807V162.134C83.2807 167.171 86.3803 169.111 89.8673 169.883C94.5166 170.27 96.0664 171.823 96.0664 176.085V181.509C96.0664 186.156 92.9668 187.709 87.93 187.709C79.4063 187.709 63.5211 183.447 63.5211 166.008V143.924Z" fill="#525350"/>
</g>
<path d="M101.102 133.459C101.102 129.197 103.039 126.873 107.301 126.873H114.275C118.537 126.873 120.861 129.197 120.861 133.459V180.34C120.861 184.602 118.537 186.926 114.275 186.926H107.301C103.039 186.926 101.102 184.602 101.102 180.34V133.459ZM357.202 133.459C357.202 129.197 359.139 126.873 363.01 126.873H370.375C374.246 126.873 376.574 129.197 376.574 133.459V180.34C376.574 184.602 374.246 186.926 370.375 186.926H363.01C359.139 186.926 357.202 184.602 357.202 180.34V133.459ZM222.371 126.098C240.194 126.098 249.493 138.496 249.493 154.381C249.493 157.868 246.777 161.355 242.906 161.355H212.298C213.848 168.329 219.659 171.816 225.858 171.816C229.733 171.816 233.607 170.266 236.707 169.104C240.194 167.163 242.906 167.554 244.843 171.429L246.78 174.528C248.33 178.015 247.946 181.115 244.459 183.052C240.194 185.767 233.223 188.479 224.309 188.479C203.387 188.479 192.151 173.366 192.151 157.093C192.151 139.658 203.774 126.098 222.371 126.098ZM230.895 149.732C230.895 144.695 227.796 140.433 222.371 140.433C216.56 140.433 213.848 144.695 212.685 149.732H230.895ZM167.742 181.115V190.801C169.292 189.254 171.616 188.476 174.328 188.476H181.302C184.015 188.476 186.339 189.251 187.502 190.801V132.684C187.502 128.422 185.177 126.098 181.302 126.098H173.941C170.454 126.098 168.129 128.035 167.742 131.522V131.909C167.742 131.909 164.255 126.098 152.244 126.098C136.746 126.098 125.511 138.496 125.511 157.093C125.511 175.69 135.972 188.479 151.857 188.479C161.155 188.479 165.805 183.439 167.742 181.115ZM156.506 171.819C149.532 171.819 144.495 166.395 144.495 157.093C144.495 148.182 150.307 142.758 156.506 142.758C164.255 142.758 168.517 150.119 168.517 157.093C168.517 167.554 162.318 171.819 156.506 171.819Z" fill="#525350"/>
<mask id="mask2_730_18151" style="mask-type:luminance" maskUnits="userSpaceOnUse" x="55" y="89" width="372" height="143">
<path d="M55.3848 89.6797V231.872H426.556V89.6797" fill="white"/>
</mask>
<g mask="url(#mask2_730_18151)">
<path d="M187.503 202.814V200.489C187.503 196.227 185.178 193.902 181.304 193.902H174.33C172.393 193.902 170.843 194.677 169.681 195.84C168.906 197.002 168.518 198.167 168.518 200.489C168.518 204.363 166.581 207.075 165.031 208.625C163.481 210.175 161.157 210.95 157.67 210.95C153.795 210.95 151.471 210.178 149.921 208.625C148.759 207.079 146.434 205.141 146.821 200.489C146.821 198.164 146.047 197.002 145.272 196.227C144.497 194.68 142.56 193.902 140.622 193.902H133.648C129.386 193.902 127.449 196.227 127.449 200.489V203.201L127.837 205.913C128.612 218.699 142.56 229.935 157.67 230.322C172.393 229.938 186.341 218.699 187.503 205.913V202.814Z" fill="#F69E25"/>
</g>
</svg>
