<svg width="480" height="320" viewBox="0 0 480 320" fill="none" xmlns="http://www.w3.org/2000/svg">
<path fill-rule="evenodd" clip-rule="evenodd" d="M310.566 178.778C312.003 174.194 318.297 170.5 321.991 170.5C325.138 170.5 327.122 172.21 327.122 175.357V179.941C327.122 182.815 324.249 184.525 321.102 184.525C314.26 184.525 310.84 190.545 310.84 197.66V210.18C310.84 213.327 309.403 215.038 306.598 215.038H301.193C298.32 215.038 296.609 213.327 296.609 210.18V175.699C296.609 172.552 298.32 170.842 301.193 170.842H306.051C308.924 170.842 310.634 172.552 310.634 175.699V178.847L310.566 178.778Z" fill="#525350"/>
<path fill-rule="evenodd" clip-rule="evenodd" d="M215.333 178.778C216.77 174.194 223.064 170.5 227.032 170.5C229.905 170.5 231.889 172.21 231.889 175.357V179.941C231.889 182.815 229.358 184.525 226.211 184.525C219.37 184.525 215.949 190.545 215.949 197.66V210.18C215.949 213.327 214.512 215.038 211.365 215.038H205.96C203.087 215.038 201.719 213.327 201.719 210.18V175.699C201.719 172.552 203.155 170.842 205.96 170.842H210.818C213.965 170.842 215.402 172.552 215.402 175.699V178.847L215.333 178.778Z" fill="#525350"/>
<path fill-rule="evenodd" clip-rule="evenodd" d="M284.64 165.916C278.346 165.916 273.488 160.785 273.488 154.765C273.488 148.471 278.346 143.34 284.64 143.34C290.66 143.34 295.449 148.471 295.449 154.765C295.449 160.785 290.592 165.916 284.64 165.916Z" fill="#F69E25"/>
<path fill-rule="evenodd" clip-rule="evenodd" d="M96.1593 165.916C90.1389 165.916 85.0078 160.785 85.0078 154.765C85.0078 148.471 90.1389 143.34 96.1593 143.34C102.453 143.34 107.311 148.471 107.311 154.765C107.311 160.785 102.18 165.916 96.1593 165.916Z" fill="#525350"/>
<path fill-rule="evenodd" clip-rule="evenodd" d="M256.108 187.604H257.545V187.056C257.545 183.362 254.398 182.199 251.251 182.199C248.378 182.199 245.23 183.088 242.973 183.909C240.099 185.346 238.115 184.799 236.679 181.925L235.516 179.941C234.079 177.342 234.695 175.084 237.5 173.647C240.92 172.211 246.051 170.227 252.619 170.227C264.865 170.227 272.596 177.068 272.596 187.877V210.112C272.596 213.259 270.886 214.969 267.739 214.969H263.429C260.282 214.969 258.845 213.259 258.845 210.112V208.675L258.571 208.949C258.571 208.949 254.261 215.79 245.436 215.79C236.884 215.79 230.59 210.112 230.59 202.655C230.59 190.956 245.162 187.535 255.971 187.535M248.856 205.528C253.714 205.528 257.408 200.671 257.408 196.703V195.54H255.971C250.567 195.54 243.725 196.976 243.725 201.56C243.725 203.818 245.709 205.528 248.856 205.528Z" fill="#525350"/>
<path fill-rule="evenodd" clip-rule="evenodd" d="M61.4033 183.361H59.9666C57.0932 183.361 55.3828 181.924 55.3828 178.777V176.793C55.3828 173.646 57.0932 171.936 59.9666 171.936H61.6769V163.931C61.6769 160.784 63.3873 159.348 66.2607 159.348H71.1181C74.2651 159.348 75.9755 160.784 75.9755 163.931V171.936H80.2855C83.1589 171.936 84.8693 173.646 84.8693 176.793V178.777C84.8693 181.924 83.1589 183.361 80.2855 183.361H75.9755V196.77C75.9755 200.465 78.2331 201.901 80.8328 202.449C84.2536 202.722 85.4166 203.885 85.4166 207.032V211C85.4166 214.421 83.1589 215.584 79.3962 215.584C73.1021 215.584 61.4033 212.437 61.4033 199.644V183.361Z" fill="#525350"/>
<path fill-rule="evenodd" clip-rule="evenodd" d="M89.043 175.631C89.043 172.484 90.4797 170.773 93.6267 170.773H98.7578C101.905 170.773 103.615 172.484 103.615 175.631V210.112C103.615 213.259 101.905 214.969 98.7578 214.969H93.6267C90.4797 214.969 89.043 213.259 89.043 210.112V175.631Z" fill="#525350"/>
<path fill-rule="evenodd" clip-rule="evenodd" d="M277.453 175.631C277.453 172.484 278.89 170.773 281.695 170.773H287.1C289.973 170.773 291.683 172.484 291.683 175.631V210.112C291.683 213.259 289.973 214.969 287.1 214.969H281.695C278.821 214.969 277.453 213.259 277.453 210.112V175.631Z" fill="#525350"/>
<path fill-rule="evenodd" clip-rule="evenodd" d="M178.252 170.227C191.388 170.227 198.229 179.326 198.229 191.024C198.229 193.624 196.245 196.155 193.372 196.155H170.863C172.026 201.287 176.268 203.886 180.852 203.886C183.725 203.886 186.53 202.723 188.856 201.902C191.456 200.466 193.44 200.739 194.877 203.613L196.313 205.87C197.476 208.47 197.203 210.728 194.603 212.164C191.456 214.148 186.325 216.132 179.757 216.132C164.364 216.132 156.086 204.981 156.086 193.008C156.086 180.147 164.638 170.227 178.321 170.227M184.615 187.604C184.615 183.909 182.357 180.762 178.321 180.762C174.01 180.762 172.026 183.909 171.205 187.604H184.615Z" fill="#525350"/>
<path fill-rule="evenodd" clip-rule="evenodd" d="M138.097 210.726V217.841C139.26 216.678 140.971 216.131 142.955 216.131H148.086C150.07 216.131 151.78 216.678 152.669 217.841V175.082C152.669 171.935 150.959 170.225 148.086 170.225H142.681C140.081 170.225 138.371 171.661 138.097 174.193V174.466C138.097 174.466 135.497 170.156 126.672 170.156C115.247 170.156 106.969 179.255 106.969 192.938C106.969 206.621 114.7 216.062 126.33 216.062C133.171 216.062 136.592 212.368 138.029 210.657M129.751 203.816C124.62 203.816 120.925 199.848 120.925 193.007C120.925 186.439 125.235 182.471 129.751 182.471C135.429 182.471 138.576 187.875 138.576 193.007C138.576 200.737 133.992 203.816 129.751 203.816Z" fill="#525350"/>
<path fill-rule="evenodd" clip-rule="evenodd" d="M152.6 226.669V224.959C152.6 221.812 150.889 220.102 148.016 220.102H142.885C141.448 220.102 140.285 220.649 139.464 221.538C138.917 222.428 138.575 223.249 138.575 224.959C138.575 227.832 137.138 229.816 135.975 230.979C134.812 232.142 133.102 232.69 130.571 232.69C127.697 232.69 125.987 232.142 124.892 230.979C124.003 229.816 122.292 228.448 122.634 224.959C122.634 223.249 122.087 222.359 121.471 221.812C120.924 220.649 119.487 220.102 118.051 220.102H112.92C109.773 220.102 108.336 221.812 108.336 224.959V226.943L108.61 228.927C109.157 238.368 119.419 246.578 130.571 246.92C141.38 246.646 151.642 238.368 152.531 228.927V226.669H152.6Z" fill="#F69E25"/>
<path d="M382.402 124.184C382.402 132.188 388.491 138.277 397.18 138.277C406.21 138.277 410.521 130.957 410.521 130.957H410.726C410.726 130.957 410.657 131.299 410.657 131.846V132.188C410.657 135.609 412.299 137.182 415.515 137.182H419.756C422.903 137.182 424.614 135.472 424.614 132.256V108.79C424.614 97.0232 416.883 89.9766 404.432 89.9766C397.932 89.9766 392.664 91.9606 389.244 93.5341C386.507 94.9708 386.028 97.3653 387.328 100.17L388.354 102.428C389.791 105.301 391.98 105.849 394.854 104.549C397.111 103.454 400.122 102.496 402.995 102.496C406.347 102.496 409.426 103.728 409.426 107.627V108.448H408.126C396.975 108.448 382.608 111.869 382.608 124.184H382.402ZM397.385 122.747C397.385 118.505 403.337 117.274 407.989 117.274H409.426V118.505C409.426 122.268 406.074 126.647 401.695 126.647C398.89 126.647 397.385 124.868 397.385 122.678V122.747Z" fill="#525350"/>
<path d="M358.73 120.147C358.73 135.677 367.214 137.593 375.081 137.593C378.571 137.593 380.007 135.609 380.007 132.598V128.22C380.007 125.552 378.571 124.252 376.518 123.978C375.081 123.773 373.987 122.884 373.987 119.394V78.0039C373.987 74.7885 372.345 73.0781 369.129 73.0781H363.588C360.441 73.0781 358.73 74.7885 358.73 78.0039V120.079V120.147Z" fill="#525350"/>
<path d="M311.594 124.184C311.594 132.188 317.683 138.277 326.371 138.277C335.402 138.277 339.712 130.957 339.712 130.957H339.917C339.917 130.957 339.849 131.299 339.849 131.846V132.188C339.849 135.609 341.491 137.182 344.706 137.182H348.948C352.095 137.182 353.805 135.472 353.805 132.256V108.79C353.805 97.0232 346.074 89.9766 333.623 89.9766C327.124 89.9766 321.856 91.9606 318.435 93.5341C315.699 94.9708 315.22 97.3653 316.52 100.17L317.546 102.428C318.982 105.301 321.172 105.849 324.045 104.549C326.303 103.454 329.313 102.496 332.186 102.496C335.539 102.496 338.617 103.728 338.617 107.627V108.448H337.317C326.166 108.448 311.799 111.869 311.799 124.184H311.594ZM326.576 122.747C326.576 118.505 332.528 117.274 337.181 117.274H338.617V118.505C338.617 122.268 335.265 126.647 330.887 126.647C328.082 126.647 326.576 124.868 326.576 122.678V122.747Z" fill="#525350"/>
<path d="M259.805 114.06C259.805 128.359 267.878 138.279 280.192 138.279C289.496 138.279 293.259 131.574 293.259 131.574H293.464C293.464 131.574 293.396 132.053 293.396 132.19V132.737C293.396 135.679 295.038 137.184 298.253 137.184H302.837C305.984 137.184 307.695 135.474 307.695 132.258V78.0743C307.695 74.8588 306.053 73.1484 302.837 73.1484H297.296C294.149 73.1484 292.438 74.8588 292.438 78.0743V92.5096C292.438 93.6727 292.507 94.562 292.507 94.562H292.301C292.301 94.562 289.565 89.9783 280.466 89.9783C268.425 89.9783 259.873 99.4879 259.873 114.06H259.805ZM275.061 114.06C275.061 107.013 279.166 103.045 283.955 103.045C289.907 103.045 292.849 108.519 292.849 114.06C292.849 122.065 288.539 125.417 283.955 125.417C278.687 125.417 275.061 120.97 275.061 114.06Z" fill="#525350"/>
<path d="M210.273 132.256C210.273 135.472 211.915 137.182 215.131 137.182H220.672C223.819 137.182 225.53 135.472 225.53 132.256V116.316C225.53 109.748 228.608 104.07 235.381 104.07C238.734 104.07 240.376 105.849 240.376 110.159V132.256C240.376 135.472 242.018 137.182 245.233 137.182H250.775C253.922 137.182 255.632 135.472 255.632 132.256V107.285C255.632 94.2866 248.517 89.9766 239.418 89.9766C231.413 89.9766 227.103 94.3551 225.051 97.981H224.846C224.846 97.981 224.914 97.2969 224.914 96.818V95.997C224.914 92.7815 223.341 91.0712 220.193 91.0712H215.268C212.121 91.0712 210.41 92.7815 210.41 95.997V132.256H210.273Z" fill="#525350"/>
<path d="M163.34 124.184C163.34 132.188 169.429 138.277 178.117 138.277C187.148 138.277 191.458 130.957 191.458 130.957H191.663C191.663 130.957 191.595 131.299 191.595 131.846V132.188C191.595 135.609 193.237 137.182 196.452 137.182H200.694C203.841 137.182 205.551 135.472 205.551 132.256V108.79C205.551 97.0232 197.821 89.9766 185.369 89.9766C178.87 89.9766 173.602 91.8922 170.181 93.5341C167.445 94.9024 166.966 97.3653 168.266 100.17L169.292 102.428C170.66 105.301 172.918 105.849 175.791 104.549C178.117 103.523 181.059 102.496 183.932 102.496C187.285 102.496 190.363 103.728 190.363 107.627V108.448H189.064C177.912 108.448 163.545 111.869 163.545 124.184H163.34ZM178.323 122.747C178.323 118.505 184.275 117.274 188.927 117.274H190.363V118.505C190.363 122.268 187.011 126.647 182.633 126.647C179.828 126.647 178.323 124.868 178.323 122.678V122.747Z" fill="#525350"/>
<path d="M89.043 132.256C89.043 135.472 90.6849 137.182 93.9004 137.182H99.4419C102.589 137.182 104.299 135.472 104.299 132.256V117.684C104.299 111.322 106.078 104.07 112.988 104.07C115.861 104.07 116.477 106.464 116.477 109.885V132.256C116.477 135.472 118.119 137.182 121.334 137.182H126.876C130.023 137.182 131.733 135.472 131.733 132.256V117.684C131.733 110.774 133.854 104.07 140.422 104.07C143.295 104.07 143.911 106.464 143.911 109.885V132.256C143.911 135.472 145.553 137.182 148.768 137.182H154.31C157.457 137.182 159.167 135.472 159.167 132.256V107.285C159.167 94.5603 152.736 89.9766 144.527 89.9766C137.754 89.9766 132.417 93.9446 130.023 97.7758H129.818C127.423 92.5763 122.908 89.9766 117.161 89.9766C110.046 89.9766 105.873 94.6971 103.752 97.981H103.547C103.547 97.981 103.615 97.2969 103.615 96.818V95.997C103.615 92.7815 102.042 91.0712 98.8946 91.0712H93.9688C90.8217 91.0712 89.1114 92.7815 89.1114 95.997V132.256H89.043Z" fill="#525350"/>
</svg>
