<svg width="480" height="320" viewBox="0 0 480 320" fill="none" xmlns="http://www.w3.org/2000/svg">
<path fill-rule="evenodd" clip-rule="evenodd" d="M235.352 212.106L240.015 196.245H242.449L238.323 210.275H246.868L246.329 212.106H235.352ZM250.012 212.106L250.552 210.275H254.817L258.403 198.077H254.138L254.676 196.245H265.654L265.115 198.077H260.851L257.265 210.275H261.529L260.991 212.106H250.012ZM264.969 212.106H266.949L270.366 200.483H270.404L274.315 212.106H276.563L281.241 196.195H279.251L275.858 207.731H275.833L271.948 196.195H269.647L264.971 212.106H264.969ZM280.234 212.106L284.898 196.245H287.333L285.294 203.178H292.007L294.046 196.245H296.492L291.828 212.106H289.382L291.467 205.009H284.754L282.668 212.106H280.234ZM320.833 196.617L320.211 198.732C318.625 198.039 317.136 197.693 315.744 197.693C313.541 197.693 312.223 198.435 311.787 199.917C311.61 200.52 311.675 201 311.981 201.369C312.282 201.736 312.935 202.115 313.935 202.499L315.331 203.043L316.663 203.554C318.724 204.36 319.475 205.726 318.907 207.655C318.477 209.122 317.546 210.296 316.114 211.174C314.679 212.05 312.981 212.49 311.009 212.49C309.644 212.49 307.96 212.199 305.964 211.613L306.675 209.199C308.548 210.173 310.199 210.658 311.62 210.658C312.826 210.658 313.854 210.423 314.71 209.949C315.568 209.473 316.112 208.841 316.347 208.039C316.526 207.431 316.458 206.946 316.137 206.592C315.815 206.236 315.065 205.82 313.879 205.33L312.425 204.739C310.977 204.135 310.03 203.52 309.586 202.883C309.144 202.251 309.075 201.406 309.385 200.351C309.805 198.926 310.615 197.82 311.813 197.035C313.012 196.254 314.49 195.862 316.246 195.862C317.671 195.862 319.201 196.115 320.833 196.617ZM346.437 212.106L351.101 196.245H361.818L361.279 198.077H352.996L351.583 202.883H358.604L358.067 204.715H351.046L349.41 210.275H358.262L357.724 212.106H346.437ZM355.162 194.875L358.712 192.133H362.061L357.141 194.874L355.162 194.875ZM361.305 212.106H363.741L365.681 205.507H367.879L370.947 212.106H373.9L370.55 204.887C371.981 204.254 373.068 203.567 373.818 202.833C374.566 202.094 375.103 201.17 375.427 200.069C375.9 198.461 375.461 197.339 374.117 196.701C373.49 196.399 372.251 196.245 370.408 196.245H365.969L361.305 212.106ZM366.221 203.663L367.866 198.077H369.363C370.912 198.077 371.926 198.245 372.404 198.583C372.882 198.921 372.984 199.551 372.718 200.461C372.428 201.444 371.816 202.221 370.878 202.798C369.944 203.376 368.822 203.663 367.509 203.663H366.221ZM376.967 212.106L381.631 196.245H392.347L391.809 198.077H383.526L382.114 202.883H389.134L388.596 204.715H381.575L379.941 210.275H388.792L388.253 212.106H376.967ZM414.524 196.617L413.903 198.732C412.317 198.039 410.829 197.693 409.436 197.693C407.234 197.693 405.914 198.435 405.477 199.917C405.301 200.52 405.366 201 405.671 201.369C405.973 201.736 406.625 202.115 407.626 202.499L409.024 203.043L410.354 203.554C412.417 204.36 413.166 205.726 412.599 207.655C412.167 209.122 411.236 210.296 409.806 211.174C408.37 212.05 406.671 212.49 404.701 212.49C403.334 212.49 401.652 212.199 399.656 211.613L400.365 209.199C402.239 210.173 403.89 210.658 405.311 210.658C406.519 210.658 407.545 210.423 408.401 209.949C409.258 209.473 409.804 208.841 410.039 208.039C410.218 207.431 410.151 206.946 409.828 206.592C409.505 206.236 408.755 205.82 407.571 205.33L406.115 204.739C404.669 204.135 403.723 203.52 403.278 202.883C402.834 202.251 402.766 201.406 403.076 200.351C403.496 198.926 404.306 197.82 405.503 197.035C406.703 196.254 408.181 195.862 409.936 195.862C411.362 195.862 412.891 196.115 414.524 196.617Z" fill="#C4071B"/>
<path fill-rule="evenodd" clip-rule="evenodd" d="M292.508 212.109L303.462 196.25H305.908L307.4 212.109H304.83L303.467 199.503L294.587 212.109H292.508ZM387.009 212.109L397.962 196.25H400.41L401.902 212.109H399.333L397.968 199.503L389.089 212.109H387.009ZM330.909 212.109L341.863 196.25H344.311L345.802 212.109H343.232L341.867 199.503L332.988 212.109H330.909Z" fill="#C4071B"/>
<path fill-rule="evenodd" clip-rule="evenodd" d="M361.657 107.526H392.78L383.281 161.412C382.665 164.903 383.283 167.355 385.099 168.786C386.945 170.218 390.362 170.925 395.407 170.925H418.848L415.356 190.737H379.33C370.202 190.737 362.9 188.265 357.427 183.303C352.172 178.536 350.126 172.945 351.253 166.55L361.657 107.526ZM206.11 107.39H284.71L281.303 126.711H256.758L245.457 190.816H214.844L226.145 126.711H212.801C210.563 122.859 207.781 119.35 204.541 116.293L206.11 107.39ZM65.7926 107.39H144.393L143.103 114.708C139.103 118.112 135.71 122.17 133.071 126.711H116.439L105.138 190.816H74.5255L85.8273 126.711H62.3867L65.7926 107.39ZM319.482 191.091C317.041 174.554 314.463 155.41 311.779 133.656L283.258 191.091H251.116L288.569 123.181C291.554 117.826 294.736 113.922 298.116 111.47C302.598 108.233 308.413 106.605 315.584 106.605C329.134 106.605 336.808 111.784 338.585 122.121L350.775 191.091H319.482Z" fill="#030019"/>
<path fill-rule="evenodd" clip-rule="evenodd" d="M172.934 103.715C198.284 103.715 218.958 124.325 218.958 149.595C218.958 174.862 198.284 195.473 172.934 195.473C147.585 195.473 126.91 174.863 126.91 149.595C126.91 124.326 147.585 103.715 172.934 103.715Z" fill="white"/>
<path fill-rule="evenodd" clip-rule="evenodd" d="M188.567 107.894C189.888 108.398 191.181 108.962 192.439 109.585C191.173 108.967 189.881 108.403 188.567 107.894ZM184.125 178.612C182.986 176.049 181.671 173.676 175.281 169.021C166.321 162.497 152.221 147.174 145.009 137.261C144.058 135.331 143.192 133.36 142.416 131.353C140.394 139.507 146.484 151.985 167.051 173.182C181.367 187.937 167.839 193.734 140.489 179.551C133.264 171.629 128.844 161.08 128.844 149.524C128.844 129.6 141.975 112.664 159.971 107.035C147.172 112.269 142.007 126.192 157.734 144.961L181.166 172.926C182.732 174.796 183.68 176.707 184.125 178.612ZM200.52 114.748C200.129 114.562 199.735 114.382 199.34 114.205C199.104 114.151 198.867 114.099 198.629 114.048C197.789 113.864 196.947 113.688 196.103 113.52L196.016 113.503C194.766 113.255 193.511 113.031 192.252 112.831L192.213 112.824L191.644 112.737L191.46 112.709L190.984 112.642L190.737 112.607L190.301 112.549L190.032 112.515C189.89 112.497 189.747 112.479 189.605 112.463L189.364 112.434L188.886 112.382L188.715 112.364C188.569 112.349 188.423 112.335 188.278 112.321L188.049 112.301L187.657 112.267C187.461 112.251 187.266 112.237 187.07 112.223L186.801 112.207C186.681 112.199 186.561 112.192 186.44 112.186L186.229 112.176C186.114 112.171 186 112.167 185.885 112.163L185.639 112.155C185.533 112.153 185.427 112.15 185.32 112.148L185.082 112.145H184.799C184.612 112.146 184.426 112.148 184.24 112.152L184.074 112.157C183.962 112.161 183.852 112.164 183.744 112.17L183.572 112.179C183.466 112.184 183.362 112.19 183.261 112.198L183.092 112.211C182.994 112.219 182.898 112.227 182.803 112.237C182.747 112.241 182.692 112.248 182.637 112.255C182.541 112.265 182.445 112.276 182.349 112.288C182.305 112.293 182.264 112.299 182.22 112.305C182.124 112.318 182.027 112.332 181.931 112.348L181.785 112.372C181.699 112.387 181.613 112.402 181.527 112.419C181.478 112.428 181.43 112.439 181.382 112.449L181.146 112.5L181.026 112.53L180.767 112.597L180.742 112.605C180.637 112.635 180.532 112.666 180.429 112.7L180.377 112.718C179.912 112.869 179.47 113.083 179.065 113.356L179.02 113.386C178.97 113.423 178.922 113.461 178.873 113.499C178.847 113.52 178.82 113.54 178.795 113.562C178.748 113.6 178.706 113.64 178.661 113.681L178.595 113.743C178.556 113.781 178.519 113.821 178.483 113.863C178.458 113.888 178.433 113.915 178.41 113.942C178.379 113.979 178.349 114.018 178.321 114.057C178.296 114.088 178.272 114.119 178.249 114.15C178.223 114.187 178.201 114.225 178.176 114.262C178.106 114.37 178.044 114.485 177.993 114.603C177.957 114.683 177.925 114.765 177.897 114.848C177.869 114.932 177.844 115.017 177.823 115.102C177.812 115.15 177.802 115.198 177.793 115.246C177.785 115.288 177.776 115.331 177.77 115.374C177.757 115.466 177.747 115.557 177.74 115.649C177.737 115.702 177.734 115.755 177.732 115.807C177.73 116.01 177.739 116.212 177.76 116.414C177.773 116.522 177.789 116.63 177.808 116.738C177.849 116.968 177.903 117.196 177.969 117.419C177.984 117.475 178.003 117.532 178.021 117.592C178.041 117.654 178.061 117.719 178.083 117.784L178.146 117.959C178.17 118.024 178.195 118.09 178.22 118.155C178.242 118.215 178.269 118.275 178.294 118.337L178.38 118.542C178.408 118.606 178.438 118.67 178.468 118.734C178.53 118.873 178.597 119.011 178.666 119.146C178.7 119.213 178.731 119.28 178.767 119.347C178.806 119.423 178.85 119.502 178.891 119.579L178.998 119.774C179.04 119.85 179.087 119.928 179.132 120.006C179.171 120.073 179.208 120.142 179.249 120.21C179.303 120.302 179.361 120.395 179.418 120.486L179.523 120.659C179.587 120.759 179.655 120.863 179.723 120.966L179.824 121.124C179.929 121.281 180.037 121.44 180.148 121.601L205.297 144.697C212.411 152.994 215.398 161.113 212.741 168.99C215.605 163.105 217.216 156.498 217.216 149.524C217.216 135.473 210.683 122.909 200.52 114.749V114.748Z" fill="#030019"/>
<path fill-rule="evenodd" clip-rule="evenodd" d="M201.437 115.192C182.333 105.751 166.737 109.969 174.922 121.573L198.613 150.927C212.69 172.205 199.26 189.204 178.341 193.712C184.072 187.894 187.188 180.114 181.164 172.923L157.732 144.961C128.507 110.081 171.407 91.9274 201.437 115.193V115.192ZM142.414 131.352C140.392 139.507 146.482 151.985 167.049 173.182C181.521 188.096 167.542 193.863 139.59 179.085C160.463 200.47 191.946 193.48 171.412 171.13C155.63 153.95 147.781 145.184 142.414 131.352Z" fill="#C4071B"/>
</svg>
