<svg width="480" height="320" viewBox="0 0 480 320" fill="none" xmlns="http://www.w3.org/2000/svg">
<path d="M121.48 160.004C121.48 141.557 106.88 126.883 88.4311 126.883C69.9819 126.883 55.3848 141.559 55.3848 160.008C55.3848 178.453 69.9881 193.114 88.4332 193.114C106.882 193.119 121.477 178.453 121.477 160.008L121.484 160.004H121.48Z" fill="#00D66C"/>
<path d="M103.032 164.784H101.173C99.3148 164.784 98.5224 165.776 98.2528 167.699C97.784 171.219 95.0002 173.602 91.3494 173.602C87.1053 173.602 84.3879 170.487 84.3879 165.969V155.356C84.3879 154.931 84.3256 154.558 84.2219 154.224C84.6202 154.404 85.0973 154.497 85.6449 154.497H95.3985C97.2612 154.497 98.3191 153.433 98.3191 151.579V150.718C98.3191 148.857 97.2612 147.797 95.3985 147.797H89.8973V141.817C89.8973 139.963 88.8311 138.898 86.9766 138.898H85.6449C83.7905 138.898 82.7284 139.965 82.7284 141.817V151.577C82.7284 151.996 82.7823 152.371 82.8943 152.707C82.4919 152.529 82.0148 152.438 81.4672 152.438H71.7136C69.8571 152.438 68.793 153.5 68.793 155.356V156.221C68.793 158.08 69.8571 159.142 71.7136 159.142H77.2231V165.967C77.2231 174.527 82.7305 180.501 91.3577 180.501C99.3895 180.501 104.696 175.388 105.691 167.694C105.953 165.769 104.692 164.782 103.03 164.782L103.032 164.784Z" fill="white"/>
<path d="M166.814 177.557H174.572V160.693C174.572 154.594 177.9 152.468 181.874 152.468C184.183 152.468 185.894 153.157 187.466 154.497L190.98 148.307C188.854 146.363 186.031 145.403 183.264 145.403C179.563 145.403 175.962 147.104 174.112 150.433L173.602 146.048H166.812V177.564V177.555L166.814 177.557ZM385.707 138.56C385.707 135.556 383.398 134.027 381.081 134.027C378.82 134.027 376.512 135.546 376.512 138.558C376.512 141.607 378.82 143.084 381.081 143.084C383.39 143.084 385.707 141.605 385.707 138.556V138.56ZM152.63 136.99L144.861 137.819V146.044H139.043V152.744H144.861V166.833C144.861 174.409 149.207 177.925 155.721 177.925C158.496 177.925 160.855 177.275 162.514 176.348L160.436 170.063C159.328 170.573 157.942 170.949 156.644 170.949C154.057 170.949 152.624 169.467 152.624 166.468V152.748H161.311V146.048H152.624L152.628 136.992L152.63 136.99ZM224.807 146.046H217.831L217.318 150.437C215.561 147.525 212.095 145.401 206.691 145.401C198.048 145.401 190.563 150.798 190.563 161.801C190.563 172.803 198.048 178.2 206.691 178.2C212.095 178.2 215.561 176.085 217.324 173.17L217.831 177.564H224.8V146.048H224.807V146.046ZM377.202 146.046V177.555H384.969V146.048H377.202V146.046ZM207.756 171.459C202.445 171.459 198.469 167.905 198.469 161.805C198.469 155.702 202.441 152.145 207.756 152.145C213.072 152.145 217.049 155.696 217.049 161.803C217.049 167.901 213.076 171.455 207.756 171.455V171.459ZM334.556 146.048H327.576L327.061 150.44C325.308 147.527 321.855 145.403 316.441 145.403C307.797 145.403 300.315 150.8 300.315 161.803C300.315 172.805 307.799 178.203 316.441 178.203C321.842 178.203 325.311 176.087 327.061 173.172L327.58 177.566H334.556V146.048ZM317.501 171.459C312.19 171.459 308.212 167.905 308.212 161.805C308.212 155.702 312.184 152.145 317.505 152.145C322.826 152.145 326.798 155.696 326.798 161.803C326.798 167.901 322.821 171.455 317.505 171.455L317.501 171.459ZM424.616 146.048H417.637L417.127 150.44C415.374 147.527 411.91 145.403 406.507 145.403C397.861 145.403 390.376 150.8 390.376 161.803C390.376 172.805 397.865 178.203 406.504 178.203C411.906 178.203 415.374 176.087 417.125 173.172L417.637 177.566H424.616V146.048ZM407.564 171.459C402.258 171.459 398.276 167.905 398.276 161.805C398.276 155.702 402.248 152.145 407.569 152.145C412.883 152.145 416.862 155.696 416.862 161.803C416.855 167.901 412.879 171.455 407.569 171.455L407.564 171.459ZM359.973 177.557L373.419 146.048H365.335L356.133 169.285L346.927 146.048H338.335L351.777 177.557H359.975H359.973ZM232.202 177.557H239.966V160.652C239.966 155.337 243.384 152.329 247.911 152.329C252.439 152.329 255.536 155.331 255.536 160.647V177.557H263.3V159.496C263.3 150.116 257.471 145.407 250.033 145.407C245.09 145.407 241.439 147.49 239.688 150.444L239.18 146.052H232.202V177.572V177.559V177.557ZM282.89 178.2C292.644 178.2 296.755 173.774 296.755 168.181C296.755 161.108 290.101 159.351 284.739 158.66C281.648 158.239 276.887 157.967 276.887 154.914C276.887 152.647 279.567 151.672 282.894 151.672C285.896 151.672 288.904 152.46 291.352 154.582L295.278 149.404C291.82 146.403 287.796 145.384 283.264 145.384C276.522 145.384 269.034 147.687 269.034 155.264C269.034 162.24 275.315 164.091 281.048 164.827C284.319 165.248 288.902 165.564 288.902 168.576C288.902 170.785 286.408 171.807 283.17 171.807C279.515 171.807 274.715 170.471 271.799 167.416L267.874 172.594C271.844 176.995 277.81 178.194 282.892 178.194V178.205L282.89 178.2Z" fill="#00D66C"/>
</svg>
