<svg width="480" height="320" viewBox="0 0 480 320" fill="none" xmlns="http://www.w3.org/2000/svg">
<path fill-rule="evenodd" clip-rule="evenodd" d="M203.12 165.77H191.91L182.26 178.586H193.435L196.824 174.186H205.912L206.286 178.586H218.169L217.236 165.77H205.242L205.465 167.966H201.441L203.12 165.77ZM193.956 163.052H217.089L216.232 150.684H203.156L193.956 163.052ZM308.958 165.697H297.785L288.064 178.735H299.201L302.517 174.34H311.605L311.979 178.735H323.936L322.967 165.697H311.011L311.158 168.119H307.17L308.958 165.697ZM299.722 163.087H322.816L321.998 150.757H308.958L299.722 163.087ZM283.096 158.953H295.684C297.325 151.318 283.991 149.753 280.415 149.753C272.889 149.604 258.918 155.377 263.948 162.976H283.02C280.188 161.3 275.272 163.684 274.936 160.257C274.635 158.581 277.387 156.664 279.52 156.682C281.619 156.655 283.205 157.127 283.096 158.953ZM266.141 165.323H286.888C290.871 169.235 290.466 178.806 272.921 179.365C257.796 179.365 256.901 172.997 257.202 169.235H268.86C268.86 171.619 272.997 173.035 275.564 172.252C277.39 171.472 278.118 170.708 277.316 168.789C275.936 165.547 272.1 168.64 266.141 165.323ZM255.721 165.77H224.318L219.85 178.586H232.403L235.569 169.682L238.661 178.586H251.214L255.721 165.77ZM225.287 163.052H256.654L260.899 151.02H248.16L245.143 160.073L242.048 151.02H229.495L225.287 163.052ZM142.7 165.77H130.182L125.674 178.586H138.452L142.7 165.77ZM131.153 163.052H143.595L144.862 159.327H151.715L154.734 150.835H128.62L125.676 159.327H132.456L131.153 163.052ZM387.616 165.77H359.456L354.949 178.733L368.244 178.659L371.374 169.682L374.616 178.735H385.194L382.104 170.02C384.526 168.899 386.31 167.371 387.616 165.77ZM379.532 163.052H389.215C391.678 157.167 388.81 150.759 382.774 150.759H364.632L360.386 163.052H373.612L374.765 159.327H378.639C380.501 160.07 380.501 161.747 379.532 163.052ZM182.745 165.77H154.583L150.152 178.586H163.413L166.579 169.571L169.818 178.586H180.399L177.306 169.945C179.653 168.861 181.441 167.371 182.745 165.77ZM174.623 163.052H184.384C186.88 157.167 184.012 150.684 177.941 150.684H159.837L155.515 163.052H168.814L170.081 159.289H173.806C175.743 159.959 175.668 161.747 174.623 163.052H174.623ZM403.899 165.697H392.205C390.9 169.384 391.159 173.035 393.211 175.72C397.383 181.304 407.289 181.046 415.563 175.237C419.326 172.59 422.042 169.163 423.532 165.699H412.21C411.947 166.222 411.573 166.817 411.164 167.338C409.226 169.499 406.285 170.205 404.831 168.901C403.934 168.23 403.64 166.964 403.899 165.697ZM412.729 163.087H424.313C424.981 159.959 424.572 156.978 422.824 154.631C418.798 149.118 408.741 149.379 400.546 155.19C397.346 157.425 394.919 160.22 393.356 163.087H405.092C405.203 162.902 405.35 162.716 405.501 162.566C407.439 160.257 410.38 159.587 411.796 160.965C412.355 161.486 412.691 162.195 412.729 163.087L412.729 163.087ZM352.636 165.697H330.843L326.375 178.735H348.39L350.96 170.726H342.169L343.358 167.484L351.964 167.598L352.636 165.697ZM331.812 163.087H353.643L354.09 161.896H345.411L346.527 158.432H355.468L358.185 150.684H336.096L331.812 163.087Z" fill="#255398"/>
<path fill-rule="evenodd" clip-rule="evenodd" d="M112.378 162.863L106.193 182.763L99.2658 180.158L112.378 162.863ZM91.3307 177.238L119.493 139.917L120.349 137.234L90.2129 176.902L91.3307 177.238ZM94.9063 178.477L116.176 150.645L117.89 145.169L92.9693 177.763L94.9063 178.477ZM98.4822 179.822L113.159 160.368L115.582 152.508L95.6878 178.772L98.4822 179.822Z" fill="#CF4044"/>
<path fill-rule="evenodd" clip-rule="evenodd" d="M84.8859 177.279L111.595 142.152L103.922 147.627L80.8647 177.909L84.8859 177.279ZM79.3373 178.204L100.794 149.9L92.1508 156.083L74.6796 179.023L79.3373 178.204ZM55.3848 182.427L90.1025 157.537L73.6732 179.254L55.3848 182.427ZM88.4994 176.649L118.227 137.383L115.469 139.358L87.0855 176.88L88.4994 176.649Z" fill="#255398"/>
</svg>
