<svg width="480" height="320" viewBox="0 0 480 320" fill="none" xmlns="http://www.w3.org/2000/svg">
<path d="M423.577 218.945C423.914 218.677 424.183 218.334 424.364 217.943C424.554 217.404 424.638 216.833 424.61 216.263V161.25C424.637 160.669 424.553 160.088 424.364 159.538C424.19 159.156 423.919 158.826 423.577 158.582C422.745 157.945 420.812 157.626 417.78 157.626C414.748 157.626 412.785 157.945 411.89 158.582C411.549 158.826 411.278 159.156 411.104 159.538C410.93 160.091 410.863 160.672 410.903 161.25V216.293C410.855 216.781 410.915 217.274 411.081 217.735C411.246 218.196 411.512 218.615 411.859 218.961C412.692 219.598 414.655 219.917 417.749 219.917C420.843 219.917 422.786 219.593 423.577 218.945ZM382.534 219.254C385.397 218.324 388.026 216.788 390.243 214.752C392.256 212.888 393.799 210.573 394.745 207.998C395.711 205.25 396.191 202.354 396.163 199.441V161.25C396.223 160.757 396.167 160.257 396.002 159.788C395.836 159.32 395.564 158.897 395.207 158.551C394.303 157.914 392.371 157.595 389.41 157.595C386.45 157.595 384.487 157.914 383.52 158.551C383.164 158.783 382.884 159.116 382.719 159.507C382.513 160.065 382.408 160.655 382.41 161.25V199.271C382.4 200.846 382.135 202.408 381.624 203.897C381.004 205.584 379.779 206.981 378.186 207.813C376.023 208.934 373.603 209.466 371.17 209.355C369.426 209.392 367.687 209.147 366.02 208.63C364.718 208.221 363.526 207.52 362.536 206.58C361.621 205.687 360.933 204.587 360.531 203.373C360.097 202.044 359.884 200.654 359.899 199.256V161.25C359.959 160.757 359.903 160.257 359.737 159.788C359.572 159.32 359.3 158.897 358.943 158.551C358.039 157.914 356.106 157.595 353.146 157.595C350.186 157.595 348.222 157.914 347.256 158.551C346.899 158.783 346.62 159.116 346.454 159.507C346.291 160.073 346.228 160.662 346.269 161.25V199.426C346.242 202.339 346.722 205.234 347.688 207.983C348.607 210.574 350.129 212.91 352.128 214.798C354.351 216.812 356.98 218.327 359.838 219.238C367.238 221.397 375.102 221.397 382.503 219.238L382.534 219.254ZM315.278 218.945C315.61 218.68 315.87 218.335 316.034 217.943C316.211 217.401 316.289 216.832 316.265 216.263V169.313H329.987C330.82 169.336 331.651 169.238 332.454 169.02C332.771 168.915 333.064 168.748 333.316 168.528C333.567 168.308 333.772 168.041 333.919 167.741C334.412 166.672 334.734 165.533 334.875 164.364C335.073 163.223 335.186 162.068 335.214 160.91C335.233 160.354 335.171 159.799 335.029 159.261C334.91 158.866 334.653 158.526 334.305 158.305C334.009 158.135 333.685 158.02 333.349 157.965C332.751 157.88 332.148 157.844 331.545 157.857H288.82C287.988 157.835 287.157 157.933 286.353 158.15C286.023 158.247 285.715 158.411 285.45 158.631C285.185 158.851 284.968 159.123 284.811 159.43C284.336 160.359 284.013 161.359 283.855 162.391C283.628 163.647 283.515 164.922 283.516 166.199C283.519 166.779 283.607 167.356 283.778 167.91C283.9 168.313 284.17 168.654 284.534 168.866C285.398 169.239 286.341 169.393 287.278 169.313H302.558V216.232C302.497 216.732 302.559 217.239 302.739 217.709C302.919 218.18 303.212 218.599 303.591 218.93C304.424 219.567 306.387 219.886 309.481 219.886C312.575 219.886 314.502 219.578 315.263 218.961L315.278 218.945ZM64.929 124.184H113.019C117.768 124.184 121.283 125.725 122.671 132.371C124.213 139.818 123.627 144.998 115.209 145.584L100.098 146.664C111.231 216.818 176.142 239.699 211.497 164.102C217.356 151.598 219.206 149.316 225.666 150.904C234.347 153.062 235.534 157.565 231.371 170.131C200.858 263.32 98.1403 272.663 77.9884 148.252L65.7616 149.131C55.7859 149.84 55.385 141.421 55.385 136.796C55.3541 127.499 58.7924 124.184 64.929 124.184Z" fill="#D40E14"/>
<path d="M239.681 114.792C249.525 114.792 257.505 106.812 257.505 96.9683C257.505 87.1245 249.525 79.1445 239.681 79.1445C229.837 79.1445 221.857 87.1245 221.857 96.9683C221.857 106.812 229.837 114.792 239.681 114.792Z" fill="#D40E14"/>
</svg>
