<svg width="480" height="320" viewBox="0 0 480 320" fill="none" xmlns="http://www.w3.org/2000/svg">
<path d="M62.6372 132.961H98.9235C102.481 132.961 105.163 134.085 106.217 139.138C107.391 144.756 106.908 148.666 100.584 149.113L89.1923 149.926C97.5772 202.908 146.602 220.175 173.293 163.114C177.712 153.67 179.158 151.95 183.997 153.151C190.558 154.779 191.453 158.152 188.328 167.674C165.25 238.018 87.6855 245.07 72.4668 151.13L63.2111 151.799C55.6812 152.339 55.3848 145.984 55.3848 142.451C55.3848 135.465 57.9798 132.961 62.6372 132.961ZM194.569 98.9414C202.008 98.9414 208.038 104.971 208.038 112.41C208.038 119.848 202.008 125.877 194.569 125.877C187.132 125.877 181.101 119.848 181.101 112.41C181.101 104.971 187.132 98.9414 194.569 98.9414M266.024 162.118C265.979 162.59 265.917 163.06 265.837 163.527C265.758 163.991 265.656 164.432 265.532 164.85C265.408 165.269 265.266 165.625 265.108 165.919C264.836 166.416 264.463 166.739 263.988 166.886C263.513 167.034 262.89 167.107 262.121 167.107H251.772V202.534C251.772 203.099 251.715 203.524 251.602 203.806C251.488 204.09 251.297 204.344 251.025 204.57C250.346 205.067 248.887 205.316 246.648 205.316C244.318 205.316 242.836 205.067 242.203 204.57C241.908 204.344 241.705 204.09 241.592 203.806C241.478 203.524 241.422 203.099 241.422 202.534V167.107H229.885C229.296 167.107 228.85 167.078 228.544 167.022C228.239 166.966 227.996 166.881 227.815 166.768C227.52 166.587 227.328 166.355 227.238 166.072C227.147 165.79 227.102 165.365 227.102 164.8C227.102 164.393 227.124 163.946 227.17 163.459C227.214 162.982 227.276 162.506 227.356 162.034C227.435 161.571 227.537 161.135 227.662 160.728C227.786 160.321 227.927 159.97 228.086 159.676C228.358 159.178 228.731 158.856 229.206 158.709C229.681 158.562 230.302 158.488 231.072 158.488H263.309C263.897 158.488 264.35 158.516 264.667 158.573C264.983 158.63 265.231 158.714 265.413 158.827C265.685 159.008 265.865 159.24 265.956 159.523C266.046 159.806 266.092 160.218 266.092 160.761C266.092 161.191 266.069 161.643 266.024 162.118ZM310.106 196.273C309.41 198.228 308.258 199.991 306.747 201.414C305.22 202.862 303.269 203.993 300.893 204.807C298.518 205.622 295.667 206.029 292.342 206.029C289.017 206.029 286.166 205.622 283.791 204.807C281.415 203.993 279.464 202.862 277.937 201.414C276.426 199.99 275.275 198.228 274.578 196.273C273.865 194.293 273.509 192.138 273.509 189.808V160.998C273.509 160.433 273.565 160.003 273.678 159.709C273.792 159.415 273.995 159.166 274.289 158.962C274.922 158.465 276.405 158.216 278.734 158.216C280.974 158.216 282.433 158.465 283.112 158.962C283.383 159.166 283.575 159.415 283.689 159.709C283.802 160.003 283.858 160.433 283.858 160.998V189.673C283.858 190.804 284.016 191.839 284.333 192.777C284.65 193.716 285.148 194.52 285.826 195.187C286.505 195.854 287.381 196.369 288.456 196.731C289.53 197.093 290.826 197.274 292.342 197.274C293.857 197.274 295.152 197.092 296.227 196.731C297.301 196.369 298.178 195.854 298.857 195.187C299.535 194.52 300.032 193.716 300.35 192.777C300.667 191.839 300.825 190.804 300.825 189.673V160.998C300.825 160.433 300.881 160.003 300.994 159.709C301.108 159.415 301.311 159.166 301.605 158.962C302.238 158.465 303.721 158.216 306.05 158.216C308.29 158.216 309.749 158.465 310.428 158.962C310.699 159.166 310.891 159.415 311.005 159.709C311.118 160.003 311.174 160.433 311.174 160.998V189.808C311.176 192.138 310.819 194.293 310.106 196.273ZM332.454 203.806C332.33 204.09 332.132 204.344 331.86 204.57C331.227 205.067 329.767 205.316 327.483 205.316C325.152 205.316 323.67 205.067 323.038 204.57C322.766 204.344 322.567 204.09 322.444 203.806C322.319 203.524 322.257 203.099 322.257 202.534V160.998C322.257 160.433 322.319 160.003 322.444 159.709C322.571 159.411 322.776 159.153 323.038 158.962C323.67 158.465 325.153 158.216 327.483 158.216C329.768 158.216 331.227 158.465 331.86 158.962C332.132 159.166 332.33 159.415 332.454 159.709C332.578 160.003 332.64 160.433 332.64 160.998V202.534C332.64 203.099 332.578 203.523 332.454 203.806Z" fill="#E41917"/>
<path d="M380.855 161.303C380.787 161.564 380.663 161.908 380.482 162.338C380.3 162.722 380.097 163.107 379.871 163.492C379.645 163.876 379.316 164.069 378.887 164.069C378.543 164.072 378.202 164.003 377.886 163.865C377.52 163.703 377.153 163.545 376.783 163.39C376.259 163.163 375.713 162.986 375.154 162.864C374.589 162.74 373.955 162.678 373.254 162.678C372.101 162.678 371.173 162.864 370.472 163.237C369.77 163.611 369.221 164.114 368.826 164.747C368.429 165.381 368.164 166.127 368.028 166.987C367.89 167.885 367.821 168.793 367.825 169.701V174.215H375.528C375.889 174.215 376.16 174.22 376.342 174.231C376.523 174.243 376.67 174.305 376.783 174.418C376.897 174.532 376.97 174.661 377.004 174.808C377.038 174.955 377.055 175.221 377.055 175.606C377.055 176.194 376.999 176.72 376.885 177.183C376.772 177.647 376.648 178.004 376.512 178.252C376.308 178.592 376.076 178.812 375.817 178.914C375.557 179.016 375.166 179.067 374.646 179.067H367.825V202.855C367.825 203.262 367.802 203.55 367.757 203.72C367.712 203.89 367.599 204.065 367.418 204.246C367.282 204.382 367.004 204.506 366.586 204.619C366.167 204.733 365.563 204.789 364.771 204.789C364.07 204.789 363.52 204.743 363.125 204.653C362.729 204.563 362.463 204.449 362.327 204.314C362.146 204.178 362.033 204.008 361.988 203.804C361.943 203.601 361.92 203.307 361.92 202.922V179.066H358.018C357.678 179.066 357.412 179.061 357.22 179.049C357.027 179.038 356.875 178.976 356.762 178.863C356.653 178.757 356.576 178.621 356.541 178.473C356.508 178.326 356.49 178.061 356.49 177.675C356.49 176.5 356.705 175.583 357.135 174.926C357.316 174.633 357.531 174.44 357.78 174.349C358.029 174.259 358.414 174.214 358.934 174.214H361.92V169.225C361.92 167.574 362.128 166.041 362.548 164.627C362.966 163.214 363.616 161.992 364.499 160.962C365.381 159.933 366.501 159.13 367.858 158.553C369.216 157.976 370.822 157.688 372.677 157.688C373.966 157.688 375.069 157.772 375.985 157.942C376.901 158.111 377.653 158.298 378.242 158.501C378.852 158.728 379.339 158.937 379.701 159.129C380.062 159.322 380.333 159.497 380.515 159.655C380.696 159.813 380.815 159.966 380.872 160.113C380.927 160.26 380.956 160.402 380.956 160.537C380.957 160.789 380.923 161.043 380.855 161.303ZM389.867 203.754C389.821 203.947 389.709 204.111 389.528 204.247C389.369 204.383 389.086 204.507 388.679 204.62C388.272 204.733 387.673 204.789 386.881 204.789C386.18 204.789 385.63 204.744 385.235 204.654C384.839 204.563 384.573 204.45 384.437 204.314C384.265 204.192 384.144 204.011 384.098 203.805C384.052 203.601 384.03 203.308 384.03 202.923V160.471C384.03 159.589 384.188 159.001 384.505 158.706C384.641 158.57 384.895 158.435 385.268 158.299C385.642 158.164 386.179 158.028 386.88 157.892C387.559 157.756 388.09 157.689 388.475 157.689C388.679 157.689 388.877 157.694 389.069 157.705C389.261 157.717 389.413 157.756 389.527 157.824C389.708 157.96 389.821 158.13 389.867 158.334C389.912 158.537 389.935 158.832 389.935 159.216V202.855C389.935 203.262 389.912 203.563 389.867 203.754ZM405.296 218.449H401.758C400.22 218.449 401.027 216.793 401.027 216.793L407.377 202.516L394.889 176.794C394.755 176.513 394.625 176.23 394.499 175.946C394.42 175.765 394.38 175.539 394.38 175.267C394.38 175.131 394.426 174.984 394.516 174.826C394.606 174.668 394.77 174.52 395.008 174.385C395.246 174.249 395.568 174.142 395.975 174.062C396.382 173.983 396.892 173.943 397.502 173.943C398.453 173.943 399.17 174.028 399.657 174.198C400.144 174.367 400.5 174.702 400.726 175.199L410.296 195.627L418.508 175.47C418.734 174.837 419.09 174.424 419.577 174.231C420.063 174.04 420.837 173.943 421.901 173.943C423.009 173.943 423.738 174.057 424.09 174.282C424.44 174.509 424.616 174.769 424.616 175.063C424.616 175.334 424.57 175.595 424.48 175.843C424.389 176.093 424.253 176.408 424.073 176.793L410.808 208.555C410.401 209.551 407.062 216.815 406.761 217.402C406.257 218.385 405.296 218.449 405.296 218.449Z" fill="#203059"/>
</svg>
