<svg width="480" height="320" viewBox="0 0 480 320" fill="none" xmlns="http://www.w3.org/2000/svg">
<path fill-rule="evenodd" clip-rule="evenodd" d="M85.5608 126.754L84.0819 128.436H112.996L111.422 126.754H85.5608ZM73.7292 129.59L72.4809 130.947H115.506L114.244 129.59H73.7292ZM72.6437 132.018L74.4619 133.769H95.018L96.7818 132.018L72.6437 132.018ZM119.604 134.922L80.4048 134.949L81.816 136.374H120.961L119.604 134.922ZM82.2773 137.432C82.2773 137.432 82.4727 137.998 82.508 138.368C82.5609 138.845 82.508 139.345 82.508 139.345H89.4142L91.2867 137.432H82.2773ZM82.2773 140.336L81.1647 141.855H126.483L125.004 140.336H82.2773ZM80.147 142.778L78.3017 144.528H84.8824L86.1714 142.778H80.147ZM77.0942 145.709L75.873 147.093H131.68L130.418 145.709H77.0942ZM75.1132 148.205C75.1132 148.205 74.6861 148.689 74.4212 149.06C74.1563 149.449 73.9327 150.105 73.9327 150.105H82.9014C82.9014 150.105 82.9718 149.449 83.0778 149.06C83.2014 148.689 83.3085 148.205 83.3085 148.205H75.1132ZM73.4307 151.096C73.4307 151.096 73.2586 151.399 73.0643 151.788C72.8701 152.158 72.7387 152.507 72.7387 152.507H137.202L135.804 151.096H73.4307ZM72.3181 153.606C72.3181 153.606 72.0577 154.104 71.9517 154.528C71.8281 154.952 71.7211 155.437 71.7211 155.437H83.0371C83.0371 155.437 82.9992 154.979 82.9286 154.555C82.8402 154.149 82.8472 153.606 82.8472 153.606H72.3181ZM71.4904 156.496C71.4904 156.496 71.3304 156.853 71.2598 157.242C71.1714 157.613 71.1376 157.961 71.1376 157.961H142.589L141.34 156.496H71.4904ZM71.0698 159.06C71.0698 159.06 71.0196 159.572 71.0019 159.996C70.9666 160.42 70.9477 160.892 70.9477 160.892H85.5608L84.2175 159.06H71.0698ZM70.9748 162.004C70.9748 162.004 71.0155 162.419 71.0155 162.737C71.0155 163.037 71.0291 163.375 71.0291 163.375H148.084L146.903 162.004L70.9748 162.004ZM71.1784 164.515C71.1784 164.515 71.2298 165.142 71.3005 165.478C71.3711 165.831 71.5583 166.387 71.5583 166.387H93.4983C93.4983 166.387 92.3136 165.858 91.3952 165.505C90.4769 165.17 89.4142 164.515 89.4142 164.515H71.1784ZM117.297 164.555L115.466 166.387H128.41L126.605 164.555H117.297ZM71.8568 167.567C71.8568 167.567 71.919 167.906 72.0603 168.259C72.2192 168.595 72.3181 168.857 72.3181 168.857H153.701L152.249 167.567H71.8568ZM57.0944 169.969L55.5476 171.652H134.041L135.655 169.969L57.0944 169.969ZM55.3848 172.9L56.7281 174.284H159.034L157.622 172.9H55.3848ZM75.9544 175.437L77.2841 177.038H139.115L137.433 175.437H75.9544ZM57.7863 175.464L59.3874 176.984H64.9504L63.3087 175.464H57.7863ZM60.8799 178.395L62.2504 179.711H67.5828L66.4566 178.395H60.8799ZM78.8038 178.436C78.8038 178.436 79.2294 178.782 79.6179 179.046C79.9888 179.311 80.4456 179.711 80.4456 179.711H164.556L163.348 178.436H78.8038ZM63.3087 180.919L65.0862 182.561H70.5678L68.8989 180.919L63.3087 180.919ZM82.2773 180.919C82.2773 180.919 83.0022 181.343 83.7969 181.679C84.6093 182.032 86.0222 182.561 86.0222 182.561H101.477L104.909 180.919L82.2773 180.919ZM127.406 180.919C127.406 180.919 127.636 181.26 127.989 181.719C128.325 182.179 128.681 182.547 128.681 182.547L144.692 182.534L143.009 180.919H127.406ZM66.2937 183.89L67.637 185.166H73.0508L71.7075 183.89H66.2937ZM129.97 183.89L131.91 185.193H169.915C169.915 185.193 169.681 184.804 169.522 184.609C169.363 184.433 168.871 183.89 168.871 183.89H129.97ZM133.444 186.346C133.444 186.346 134.139 186.808 135.004 187.215C135.887 187.638 137.555 188.124 137.555 188.124H170.377C170.377 188.124 170.018 187.669 169.753 187.404C169.488 187.14 168.64 186.346 168.64 186.346L133.444 186.346ZM68.831 186.387L70.5406 188.056H76.0358L74.2584 186.387L68.831 186.387ZM71.7211 189.236L72.8201 190.498H78.3967L77.1756 189.236L71.7211 189.236ZM155.913 189.385C155.913 189.385 156.858 189.663 158.342 189.928C159.825 190.193 162.453 190.729 162.453 190.729H175.506L174.298 189.385H155.913ZM74.1905 191.787L76.0358 193.551H78.4646V191.787H74.1905ZM166.51 191.909L169.495 193.714H175.777L174.135 191.909L166.51 191.909ZM77.0534 194.731L78.5053 196.115V194.731H77.0534ZM172.453 194.962C172.453 194.962 172.997 195.294 173.633 195.559C174.287 195.824 175.546 196.224 175.546 196.224H180.77L179.78 194.962H172.453Z" fill="#D40000"/>
<path fill-rule="evenodd" clip-rule="evenodd" d="M200.536 169.743C201.189 169.779 231.441 169.743 231.971 169.779C232.519 169.814 232.731 169.867 232.784 170.626C232.819 171.386 232.766 184.737 232.766 186.574C232.766 188.393 233.808 190.265 236.74 190.265C239.671 190.265 240.748 188.428 240.784 186.803C240.819 185.161 240.784 170.997 240.784 170.432C240.784 169.867 240.925 169.743 241.473 169.743H248.678C249.208 169.743 249.278 169.867 249.314 170.556C249.367 171.245 249.331 181.081 249.296 186.15C249.243 191.218 247 196.781 236.704 196.711C226.408 196.64 224.183 190.653 224.183 186.415V177.479C224.183 176.984 223.989 176.684 223.388 176.719C222.77 176.755 217.684 176.719 217.19 176.719C216.695 176.719 216.342 176.914 216.324 177.532C216.324 178.238 216.324 194.662 216.307 195.28C216.289 195.828 216.218 195.969 215.688 195.969C215.141 195.969 208.748 195.987 208.289 195.969C207.865 195.969 207.794 195.757 207.794 195.263C207.794 194.768 207.741 177.991 207.777 177.443C207.83 176.914 207.635 176.719 207.105 176.719C206.558 176.719 201.454 176.737 200.642 176.737C199.971 176.737 199.882 176.507 199.882 175.872C199.882 175.218 199.935 171.086 199.882 170.52C199.847 169.955 199.812 169.708 200.536 169.743H200.536ZM253.411 169.726C253.976 169.726 259.928 169.743 260.281 169.743C260.616 169.743 260.881 169.708 261.234 170.273C261.57 170.856 268.934 182.3 269.27 182.865C269.623 183.43 269.959 183.518 269.923 182.706C269.888 181.911 269.853 171.192 269.817 170.591C269.764 169.973 269.994 169.743 270.541 169.743C271.071 169.743 276.67 169.726 277.288 169.726C277.888 169.726 278.047 169.726 278.047 170.538C278.047 171.333 278.082 194.221 278.135 194.98C278.171 195.739 278.171 195.969 277.217 195.969C276.263 195.969 271.071 195.987 270.577 195.951C270.082 195.916 269.817 195.845 269.429 195.262C269.04 194.697 261.764 183.554 261.411 183.059C261.076 182.565 260.687 181.841 260.775 183.024C260.846 184.207 261.111 194.486 261.111 195.104C261.111 195.704 261.076 196.022 260.316 195.987C259.557 195.934 254.1 196.004 253.482 195.969C252.881 195.934 252.881 195.775 252.881 194.856C252.881 193.938 252.828 170.944 252.828 170.379C252.828 169.814 252.881 169.726 253.411 169.726V169.726ZM283.01 169.726C283.628 169.69 289.721 169.779 290.25 169.743C290.798 169.708 290.939 169.743 290.974 170.397C291.027 171.033 291.098 194.433 291.063 195.086C291.027 195.722 291.063 195.951 290.144 195.951C289.226 195.951 283.734 195.969 283.08 195.969C282.445 195.969 282.286 195.775 282.286 194.892C282.286 194.009 282.321 171.686 282.286 170.839C282.25 170.008 282.392 169.779 283.01 169.726V169.726ZM294.418 187.863H301.465C301.924 187.863 302.083 187.987 302.277 188.481C302.471 188.976 303.231 190.565 306.233 190.565C308.688 190.565 309.412 189.576 309.412 188.746C309.412 187.898 308.988 187.104 307.469 186.715C305.933 186.344 301.323 185.39 299.416 184.437C297.244 183.342 294.383 182.035 294.383 177.267C294.383 172.569 298.763 169.125 305.138 169.09C315.858 169.055 316.723 175.713 316.917 176.437C317.112 177.161 317.112 177.426 316.458 177.426C315.823 177.426 309.818 177.408 309.324 177.408C308.829 177.408 308.758 177.178 308.529 176.649C308.299 176.119 307.734 175.13 305.244 175.13C303.142 175.13 302.613 175.995 302.613 176.843C302.613 177.673 303.337 178.238 305.244 178.75C307.381 179.315 313.068 180.499 315.01 182.106C316.953 183.713 317.765 185.196 317.765 188.287C317.765 191.377 315.363 194.009 313.562 195.033C311.778 196.057 308.405 196.605 306.198 196.605C303.99 196.605 298.533 195.881 296.237 193.161C293.959 190.459 293.994 189.046 293.888 188.552C293.765 188.057 293.8 187.863 294.418 187.863V187.863ZM317.218 195.245C317.465 194.556 325.73 171.245 325.96 170.626C326.189 170.026 326.419 169.796 326.949 169.796H334.507C335.072 169.796 335.337 169.902 335.532 170.485C335.726 171.05 344.238 194.521 344.468 195.086C344.697 195.669 344.962 195.934 344.008 195.969C343.055 196.004 337.333 195.987 336.803 195.987C336.256 195.987 336.061 195.916 335.885 195.333C335.69 194.768 335.39 193.585 335.267 193.126C335.161 192.667 334.772 192.508 334.119 192.561C333.483 192.596 327.832 192.561 327.143 192.596C326.454 192.649 326.383 192.755 326.225 193.338C326.083 193.903 325.854 194.839 325.659 195.457C325.465 196.057 325.077 196.022 324.617 196.022C324.176 196.022 318.03 195.934 317.536 195.969C317.041 196.004 317.006 195.881 317.218 195.245ZM328.22 186.662C328.379 186.009 330.233 179.58 330.392 178.944C330.534 178.291 330.799 178.362 331.028 179.015C331.258 179.669 333.253 186.344 333.395 186.75C333.554 187.174 333.165 187.245 332.706 187.245C331.805 187.245 329.545 187.263 328.662 187.227C328.167 187.209 328.096 187.121 328.22 186.662V186.662ZM346.287 194.874C346.287 194.238 346.251 171.439 346.251 170.679C346.251 169.92 346.375 169.849 347.205 169.814C348.053 169.761 353.457 169.796 354.075 169.796C354.693 169.796 355.064 169.708 355.064 170.556C355.064 171.386 355.099 194.574 355.099 195.157C355.099 195.722 355.099 196.022 354.463 196.022C353.51 196.022 347.505 196.057 346.905 196.022C346.287 195.987 346.287 195.722 346.287 194.874V194.874ZM359.567 169.779C360.132 169.743 368.609 169.796 373.113 169.796C377.616 169.796 382.985 171.262 382.985 177.408C382.985 181.982 380.053 183.289 379.523 183.518C378.994 183.748 378.905 183.819 379.488 184.084C380.053 184.349 382.526 185.161 382.914 188.022C383.303 190.883 383.215 193.62 383.215 194.203C383.215 194.768 383.479 194.962 383.797 195.104C384.098 195.263 384.204 195.987 383.709 195.987C383.215 195.987 376.627 195.987 375.974 196.022C375.32 196.057 375.091 195.686 374.985 194.768C374.861 193.85 374.861 190.918 374.791 189.841C374.72 188.781 374.455 187.986 373.537 187.474C372.618 186.98 371.576 186.944 370.817 186.944C370.058 186.944 368.592 186.962 368.133 186.962C367.673 186.962 367.409 187.086 367.444 187.969C367.479 188.834 367.462 194.662 367.462 195.157C367.462 195.651 367.585 195.969 366.738 195.951C365.837 195.951 360.327 195.969 359.762 195.969C359.179 195.969 358.985 195.81 358.985 195.104C359.003 193.991 359.003 171.492 358.95 170.768C358.914 170.044 359.003 169.814 359.568 169.779L359.567 169.779ZM367.991 176.26C368.839 176.26 371.47 176.225 372.812 176.26C374.137 176.313 375.055 177.479 375.055 178.662C375.055 179.845 374.066 181.346 372.883 181.346C371.7 181.346 368.344 181.381 367.991 181.346C367.656 181.311 367.355 181.046 367.355 180.428V176.79C367.355 176.401 367.585 176.26 367.991 176.26Z" fill="#D40000"/>
<path fill-rule="evenodd" clip-rule="evenodd" d="M347.851 123.294C347.709 123.275 347.648 123.522 347.648 123.864C347.648 124.394 347.665 149.257 347.648 150.105C347.613 150.953 347.534 151.047 346.562 151.082C345.803 151.1 345.047 151.047 344.5 151.082C343.935 151.1 343.835 150.792 343.835 150.227C343.835 149.68 343.849 136.673 343.849 136.143C343.849 135.613 343.517 135.79 343.252 136.143C342.969 136.496 341.643 138.253 339.1 140.567C336.557 142.88 333.957 144.062 332.261 145.899C330.548 147.736 330.194 150.118 330.158 150.824C330.141 151.548 330.158 154.737 330.158 155.302C330.158 155.885 330.253 155.988 330.782 155.953C331.312 155.935 337.772 155.953 338.231 155.953C338.691 155.953 338.828 155.975 338.828 156.523C338.828 157.3 337.539 161.15 333.089 161.15C328.992 161.15 327.8 158.43 327.553 157.988C327.306 157.564 327.02 157.624 327.037 158.083C327.073 158.542 327.719 160.708 329.344 162.439C330.986 164.169 333.519 165.048 335.586 165.03C337.652 164.995 339.746 164.282 341.759 162.357C343.772 160.415 343.953 157.801 343.971 156.971C344.006 156.123 344.29 155.935 344.785 155.953C345.297 155.988 414.778 155.953 415.273 155.953C415.749 155.953 415.68 155.725 415.503 155.655C415.327 155.584 415.111 155.438 414.811 155.085C414.493 154.732 414.061 154.279 414.079 153.131C414.114 151.983 414.079 124.464 414.079 123.864C414.079 123.246 413.761 123.403 413.549 123.81C413.355 124.216 412.568 125.509 410.89 127.31C409.212 129.129 407.279 130.083 406.819 130.295C406.36 130.49 406.454 130.721 406.684 130.757C406.913 130.774 407.281 130.775 407.864 131.164C408.447 131.535 408.923 132.27 408.923 133.701C408.923 135.114 408.95 149.616 408.95 150.146C408.95 150.711 408.886 151.055 408.692 151.055C408.48 151.055 407.373 151.09 407.091 151.055C406.826 151.037 406.684 150.831 406.684 150.566C406.684 150.284 406.453 148.257 405.34 146.862C404.228 145.467 402.55 144.541 400.714 144.488C398.877 144.435 391.667 144.497 390.89 144.515C390.201 144.515 388.122 144.527 387.01 143.538C385.491 142.196 385.707 140.574 385.707 139.956C385.707 139.355 385.444 139.553 385.232 139.888C385.038 140.206 383.794 142.727 381.745 144.881C379.679 147.054 376.949 148.671 376.331 149.006C375.713 149.324 375.863 149.527 376.304 149.562C376.728 149.58 400.412 149.545 400.836 149.562C401.366 149.58 401.745 149.871 401.745 150.295C401.745 150.737 401.459 151.02 400.877 151.055C400.276 151.073 375.338 151.082 374.649 151.082C373.96 151.082 374.025 150.755 374.025 150.526C374.025 150.296 374.072 148.902 372.871 147.242C371.9 145.9 369.992 144.619 368.014 144.637C366.036 144.655 358.154 144.602 356.494 144.637C354.852 144.655 352.786 143.043 352.804 140.729C352.839 138.416 352.804 136.419 352.804 135.288C352.804 134.176 352.726 132.603 353.238 131.72C353.732 130.819 354.581 130.704 354.934 130.58C355.287 130.439 355.325 130.237 355.043 130.078C354.76 129.937 353.281 129.147 351.338 127.487C349.378 125.844 348.579 124.283 348.191 123.647C348.051 123.408 347.937 123.306 347.851 123.294H347.851ZM417.349 123.348C417.185 123.367 417.096 123.708 417.118 124.095C417.136 124.695 417.14 155.125 417.104 155.478C417.087 155.814 417.103 155.935 417.403 155.953C417.721 155.988 423.094 155.953 423.359 155.953C423.607 155.953 423.64 155.667 423.481 155.614C423.323 155.579 423.198 155.42 422.898 155.085C422.598 154.767 422.278 154.486 422.26 153.85C422.243 153.214 422.225 134.908 422.26 133.036C422.278 131.182 423.623 130.772 424.241 130.648C424.859 130.524 424.592 130.35 424.309 130.173C424.027 129.997 422.688 129.255 420.958 127.772C419.227 126.306 418.135 124.488 417.728 123.728C417.576 123.443 417.447 123.337 417.349 123.348ZM277.798 123.416C277.687 123.403 277.551 123.516 277.445 123.728C277.251 124.17 276.557 125.573 274.826 127.392C273.096 129.193 271.324 130.134 270.864 130.363C270.405 130.593 270.5 130.664 270.783 130.77C271.066 130.876 271.408 130.852 271.991 131.259C272.573 131.665 272.976 132.43 272.94 133.348C272.923 134.249 272.981 150.125 272.981 150.566C272.981 150.99 272.82 151.037 272.52 151.055C272.219 151.09 270.42 151.09 269.996 151.055C269.554 151.037 269.413 150.931 269.413 150.295V136.035C269.413 135.664 269.116 135.716 268.992 135.98C268.868 136.263 268.039 137.818 266.238 139.725C264.436 141.633 262.733 142.444 262.221 142.656C261.709 142.85 261.834 143.063 262.099 143.063C262.346 143.063 262.805 143.181 263.388 143.552C263.971 143.94 264.27 144.612 264.27 145.071C264.27 145.513 264.311 149.75 264.311 150.404C264.311 151.075 264.096 151.047 263.619 151.082C263.124 151.1 258.078 151.055 257.513 151.055C256.966 151.055 256.848 150.862 256.848 150.349V135.736C256.848 135.224 256.63 135.345 256.4 135.628C256.171 135.91 255.181 137.403 252.479 139.929C249.795 142.437 247.719 143.341 245.6 145.478C243.498 147.615 243.402 149.947 243.402 150.865C243.402 151.783 243.416 155.247 243.416 155.6C243.416 155.936 243.483 155.967 243.836 155.967C244.189 155.967 250.143 155.953 250.973 155.953C251.821 155.953 251.657 156.08 251.692 156.821C251.71 157.475 250.282 161.109 246.061 161.109C242.105 161.109 240.724 158.217 240.512 157.934C240.318 157.652 240.16 157.695 240.213 158.083C240.266 158.454 240.679 160.245 241.95 161.923C243.222 163.601 245.76 164.976 248.232 164.976C250.687 164.976 252.364 164.451 254.324 162.561C256.373 160.601 256.691 157.326 256.726 156.672C256.744 156.001 256.955 155.953 257.432 155.953H279.426C279.814 155.953 279.818 155.683 279.589 155.56C279.359 155.436 279.015 155.333 278.68 154.963C278.362 154.574 278.009 154.233 277.974 153.049C277.956 151.849 277.988 124.286 277.988 123.81C277.988 123.562 277.908 123.429 277.798 123.416L277.798 123.416ZM282.058 123.498C281.873 123.466 281.795 123.779 281.773 124.176C281.756 124.812 281.752 154.41 281.787 155.098C281.805 155.787 281.868 155.972 282.221 156.007C282.592 156.025 287.827 156.056 288.286 156.021C288.745 156.003 288.622 155.77 288.463 155.682C288.321 155.611 288.201 155.557 287.866 155.275C287.53 155.01 286.97 154.597 286.97 153.714C286.97 152.831 287.019 135.155 286.984 133.212C286.966 131.287 288.285 130.948 288.992 130.824C289.698 130.701 289.436 130.418 289.1 130.241C288.765 130.064 287.313 129.363 285.423 127.649C283.551 125.954 282.855 124.533 282.52 123.986C282.328 123.662 282.169 123.516 282.058 123.498L282.058 123.498ZM305.26 123.837C305.119 123.823 304.944 123.932 304.785 124.135C304.485 124.541 303.166 126.474 301.841 127.799C300.516 129.123 298.831 130.032 298.178 130.35C297.524 130.65 297.894 130.698 298.123 130.716C298.353 130.751 298.656 130.703 299.344 131.109C300.033 131.516 300.381 132.424 300.416 133.66C300.434 134.914 300.416 149.521 300.416 150.227C300.416 150.934 300.266 151.055 299.86 151.055H296.454C296.013 151.055 295.817 151.207 295.817 151.489V153.918C295.817 154.73 294.928 155.33 294.487 155.56C294.063 155.789 294.263 155.949 294.704 155.967C295.128 156.002 324.984 155.958 325.708 155.994C326.414 156.011 326.487 155.777 326.522 155.424C326.54 155.071 326.491 151.746 326.508 150.404C326.544 148.602 325.479 147.05 324.826 146.415C324.172 145.779 322.71 144.614 320.715 144.596C318.701 144.561 312.665 144.628 309.928 144.61C307.137 144.575 305.526 142.838 305.491 140.824C305.473 139.482 305.505 124.742 305.504 124.23C305.504 123.974 305.402 123.85 305.26 123.837ZM383.414 125.845C382.001 125.845 380.836 126.983 380.836 128.396C380.836 129.826 382.001 130.987 383.414 130.987C384.827 130.987 385.965 129.826 385.965 128.396C385.965 126.983 384.827 125.845 383.414 125.845ZM160.54 125.858C159.11 125.858 157.962 127.01 157.962 128.423C157.961 128.762 158.027 129.097 158.156 129.411C158.285 129.724 158.475 130.009 158.715 130.248C158.954 130.488 159.239 130.678 159.552 130.807C159.865 130.936 160.201 131.002 160.54 131.001C161.953 131.001 163.091 129.853 163.091 128.423C163.091 127.01 161.953 125.858 160.54 125.858V125.858ZM237.866 125.872C236.453 125.872 235.315 127.024 235.315 128.436C235.315 129.867 236.453 131.014 237.866 131.014C238.205 131.016 238.541 130.95 238.854 130.82C239.167 130.691 239.452 130.501 239.692 130.262C239.931 130.022 240.121 129.738 240.25 129.424C240.379 129.111 240.445 128.775 240.444 128.436C240.444 127.024 239.297 125.872 237.866 125.872ZM266.97 125.872C265.557 125.872 264.419 127.024 264.419 128.436C264.419 129.849 265.557 131.001 266.97 131.001C268.401 131.001 269.548 129.849 269.548 128.436C269.548 127.024 268.401 125.872 266.97 125.872ZM167.161 125.899C165.749 125.899 164.597 127.064 164.597 128.477C164.597 129.89 165.749 131.028 167.161 131.028C168.592 131.028 169.739 129.89 169.739 128.477C169.739 127.064 168.592 125.899 167.161 125.899ZM260.417 125.899C259.004 125.899 257.866 127.037 257.866 128.45C257.866 129.863 259.004 131.014 260.417 131.014C261.83 131.014 262.995 129.863 262.995 128.45C262.995 127.037 261.83 125.899 260.417 125.899ZM171.245 131.164C171.122 131.168 170.961 131.333 170.784 131.598C170.449 132.128 168.273 134.618 165.818 136.632C163.381 138.663 162.325 139.072 160.594 140.485C158.881 141.898 158.188 143.894 157.976 145.519C157.728 147.161 157.813 149.972 157.813 150.431C157.813 150.961 157.962 151.055 158.315 151.055C158.668 151.055 165.144 151.073 165.71 151.055C166.275 151.037 166.307 151.29 166.307 151.855C166.307 152.385 166.344 154.042 166.008 154.678C165.672 155.313 165.287 155.387 165.004 155.546C164.721 155.687 164.679 155.967 165.085 155.967C165.492 155.967 240.447 155.988 241.136 155.953C241.701 155.935 241.342 155.509 240.688 155.085C240.229 154.802 240.064 154.365 240.064 153.606V136.062C240.064 135.567 239.865 135.657 239.671 135.94C239.459 136.205 238.49 137.886 236.618 139.793C234.728 141.7 233.49 142.144 232.819 142.48C232.165 142.798 232.345 142.955 232.574 142.955C232.804 142.955 233.088 143.029 233.741 143.294C234.501 143.576 234.755 144.515 234.773 145.275C234.79 146.034 234.773 150.121 234.773 150.58C234.773 151.039 234.732 151.055 234.379 151.055H229.589C229.148 151.055 229.123 150.961 229.087 150.431C229.07 149.901 229.074 136.832 229.074 136.32C229.074 135.807 228.834 135.976 228.64 136.347C228.428 136.7 227.554 138.281 225.858 140.065C224.145 141.848 222.358 142.744 221.828 143.009C221.299 143.256 221.581 143.376 221.828 143.429C222.076 143.482 222.544 143.52 223.144 143.891C223.727 144.279 223.954 144.795 223.972 145.519C223.99 146.261 223.972 149.949 223.972 150.39C223.972 150.849 223.836 151.055 223.429 151.055C223.023 151.055 220.353 151.1 219.929 151.082C219.505 151.047 219.473 150.846 219.508 150.458C219.526 150.069 219.45 144.866 219.467 144.23C219.503 143.594 219.221 143.661 218.938 143.891C218.656 144.12 218.308 144.53 216.93 145.343C215.553 146.155 214.274 146.323 213.85 146.482C213.409 146.641 213.778 146.82 213.972 146.944C214.184 147.067 214.33 147.428 214.366 147.798C214.383 148.152 214.352 149.927 214.352 150.404C214.352 150.88 214.164 151.037 213.864 151.055C213.564 151.09 210.954 151.055 210.512 151.055C210.089 151.055 210.105 150.88 210.105 150.404C210.105 149.909 210.141 144.388 210.105 143.999C210.088 143.611 209.827 143.611 209.563 143.823C209.28 144.017 208.496 144.815 207.242 145.451C205.953 146.087 204.947 146.264 204.488 146.387C204.029 146.529 204.205 146.752 204.488 146.876C204.771 146.999 204.949 147.281 204.949 147.758C204.949 148.252 204.971 149.95 204.936 150.444C204.918 150.956 204.794 151.055 204.352 151.055C203.929 151.055 184.789 151.02 184.312 151.055C183.835 151.073 183.823 150.889 183.823 150.376C183.823 149.864 183.845 136.717 183.81 136.116C183.792 135.498 183.565 135.611 183.335 136.035C183.105 136.476 182.317 137.767 180.621 139.603C178.908 141.44 177.078 142.314 176.619 142.561C176.159 142.826 176.443 142.955 176.673 142.955C176.902 142.955 177.186 143.073 177.84 143.497C178.493 143.921 178.722 144.621 178.722 145.451V150.512C178.722 150.971 178.603 151.096 178.179 151.096C177.773 151.096 172.398 151.06 171.992 151.096C171.568 151.131 171.408 150.973 171.408 150.566C171.408 150.143 171.449 132.515 171.449 131.72C171.449 131.314 171.369 131.159 171.245 131.164H171.245ZM165.872 143.131C166.208 143.149 166.347 143.344 166.347 143.714C166.347 144.103 166.378 145.779 166.361 146.062C166.325 146.327 166.269 146.537 165.669 146.537H163.349C163.048 146.537 163.009 146.369 163.009 145.98C163.009 145.574 163.34 144.514 164.081 143.931C164.823 143.349 165.537 143.113 165.872 143.131H165.872ZM251.258 147.568C251.541 147.515 251.823 147.688 251.787 147.988C251.77 148.289 251.823 150.297 251.787 150.58C251.77 150.845 251.709 151.02 251.285 151.055C250.844 151.073 249.291 151.055 248.938 151.055C248.514 151.055 248.407 150.749 248.531 150.254C248.655 149.742 249.051 148.803 249.793 148.273C250.517 147.744 250.993 147.621 251.258 147.568ZM338.408 147.934C338.602 147.97 338.706 148.018 338.706 148.301V150.607C338.706 150.907 338.746 151.082 338.164 151.082H335.803C335.538 151.082 335.237 150.988 335.396 150.458C335.537 149.928 335.86 149.061 336.725 148.531C337.591 147.984 338.196 147.916 338.408 147.934ZM308.395 149.549C312.395 149.544 320.116 149.562 320.592 149.562C321.228 149.562 321.506 149.999 321.488 150.282C321.47 150.635 321.14 151.055 320.592 151.055C320.204 151.055 306.557 151.082 306.115 151.082C305.691 151.082 305.433 150.824 305.45 150.648C305.486 150.471 305.46 150.272 305.477 150.078C305.513 149.795 305.627 149.58 306.034 149.562C306.135 149.554 307.061 149.55 308.395 149.549V149.549ZM353.414 149.576C353.821 149.576 367.81 149.558 368.34 149.576C368.869 149.611 369.026 150.041 368.991 150.376C368.973 150.694 368.816 151.055 368.34 151.055C367.845 151.055 353.768 151.108 353.414 151.055C353.044 151.002 353.003 150.586 353.021 150.268C353.039 149.985 353.008 149.576 353.414 149.576ZM178.125 159.698C176.712 159.698 175.56 160.85 175.56 162.262C175.56 163.693 176.712 164.84 178.125 164.84C178.463 164.842 178.799 164.776 179.112 164.646C179.426 164.517 179.71 164.327 179.95 164.088C180.19 163.848 180.379 163.564 180.509 163.25C180.638 162.937 180.704 162.601 180.703 162.262C180.703 160.85 179.555 159.698 178.125 159.698V159.698ZM184.732 159.698C183.32 159.698 182.168 160.85 182.168 162.262C182.168 163.693 183.32 164.84 184.732 164.84C186.145 164.84 187.297 163.693 187.297 162.262C187.297 160.85 186.145 159.698 184.732 159.698L184.732 159.698Z" fill="#D40000"/>
</svg>
