<svg width="480" height="320" viewBox="0 0 480 320" fill="none" xmlns="http://www.w3.org/2000/svg">
<path d="M342.07 148.141L387.216 116.523L369.584 168.51L364.719 183.711L358.335 201.04L340.246 252.874" fill="#EC1C24"/>
<path d="M339.03 127.62L287.348 109.683L339.486 93.1144L354.687 88.2501L372.32 83.0819L424.61 67.1211" fill="#2E3191"/>
<path d="M140.052 143.432L138.988 149.512C138.836 149.968 138.38 150.424 137.924 150.424H130.932L126.372 176.721C126.22 177.177 125.764 177.633 125.308 177.633H117.555C117.099 177.633 116.795 177.329 116.795 176.873V176.721L121.356 150.424H114.211C113.755 150.424 113.451 150.12 113.451 149.664V149.512L114.515 143.432C114.667 142.976 115.123 142.52 115.579 142.52H139.292C139.748 142.52 140.052 142.976 140.052 143.432Z" fill="#929497"/>
<path d="M172.581 143.735L168.933 164.256C166.956 175.353 161.484 177.937 152.212 177.937C146.739 177.937 140.203 174.745 140.203 166.688C140.203 165.776 140.355 164.864 140.507 163.648L144.155 143.279C144.307 142.823 144.611 142.367 145.371 142.367H152.972C153.58 142.367 153.884 142.671 153.732 143.279L150.084 164.104C149.932 165.016 149.78 165.776 149.78 166.384C149.78 168.968 150.996 169.729 153.732 169.729C157.076 169.729 158.748 168.36 159.508 164.104L163.156 143.279C163.308 142.823 163.764 142.367 164.22 142.367H171.669C172.429 142.519 172.733 142.975 172.581 143.735Z" fill="#929497"/>
<path d="M196.904 163.495L201.464 176.264V176.568C201.464 177.024 201.16 177.48 200.552 177.48H192.192C191.736 177.48 191.584 177.024 191.432 176.568L187.48 165.015C186.416 165.015 185.504 165.015 184.44 164.863L182.464 176.416C182.312 176.872 181.855 177.328 181.399 177.328H173.799C173.343 177.328 173.039 177.024 173.039 176.568V176.416L178.511 145.558C178.815 143.278 179.727 142.822 181.703 142.518C183.68 142.214 187.48 141.91 191.584 141.91C199.032 141.91 204.809 144.646 204.809 151.183C204.657 156.655 202.224 161.519 196.904 163.495ZM190.824 150.119C189.608 150.119 187.936 150.119 187.176 150.271L185.808 157.719H189.304C193.104 157.719 195.08 156.351 195.08 152.551C194.928 150.879 193.712 150.119 190.824 150.119Z" fill="#929497"/>
<path d="M241.29 143.584L228.066 160.001L235.362 176.57C235.362 176.722 235.514 176.874 235.514 176.874C235.514 177.178 235.21 177.482 234.754 177.482H225.481C224.873 177.482 224.721 177.178 224.569 176.722L218.641 161.369L216.057 176.722C215.905 177.178 215.449 177.634 214.993 177.634H207.241C206.784 177.634 206.48 177.33 206.48 176.874V176.722L212.257 143.584C212.409 143.128 212.865 142.672 213.321 142.672H221.073C221.529 142.672 221.833 142.976 221.833 143.432V143.584L219.249 158.329L230.65 143.432C230.954 142.976 231.258 142.672 231.866 142.672H241.138C241.442 142.672 241.746 142.824 241.746 143.128C241.594 143.128 241.442 143.432 241.29 143.584Z" fill="#929497"/>
<path d="M255.274 143.432L249.498 176.569C249.346 177.025 249.042 177.481 248.434 177.481H240.682C240.074 177.481 239.77 177.025 239.922 176.569L245.698 143.432C245.85 142.976 246.306 142.52 246.762 142.52H254.514C255.122 142.52 255.426 142.824 255.274 143.432Z" fill="#929497"/>
<path d="M284.004 144.191L282.94 150.12C282.788 150.576 282.484 151.032 282.028 151.032H281.876C280.052 150.88 274.731 150.424 271.235 150.424C269.867 150.424 268.499 150.88 268.499 152.4C268.499 153.008 268.955 153.464 270.627 154.376L276.403 157.72C279.748 159.696 281.116 162.28 281.116 165.624C281.116 174.441 273.667 178.089 265.763 178.089C261.963 178.089 258.923 177.633 256.491 176.873C256.034 176.721 255.73 176.569 255.73 176.113V175.961L256.643 170.185C256.795 169.729 257.099 169.273 257.707 169.273H257.859C259.835 169.425 264.851 170.033 267.283 170.033C269.107 170.033 270.779 169.425 270.779 167.296C270.779 166.536 270.323 166.08 268.955 165.168L262.875 161.216C260.139 159.392 258.771 156.352 258.771 153.464C258.771 144.951 265.459 142.367 272.907 142.367C276.708 142.367 281.572 142.975 283.396 143.583C283.7 143.431 284.004 143.583 284.004 144.191C284.004 144.191 284.004 144.039 284.004 144.191Z" fill="#929497"/>
<path d="M319.118 143.432L313.342 176.569C313.19 177.025 312.734 177.481 312.278 177.481H304.525C304.069 177.481 303.765 177.177 303.765 176.721V176.569L306.045 163.801H296.165L293.885 176.569C293.733 177.025 293.277 177.481 292.821 177.481H284.916C284.46 177.481 284.156 177.177 284.156 176.721V176.569L289.933 143.432C290.085 142.976 290.541 142.52 290.997 142.52H298.749C299.205 142.52 299.509 142.824 299.509 143.28V143.432L297.381 155.44H307.261L309.389 143.432C309.542 142.976 309.998 142.52 310.454 142.52H318.206C318.814 142.52 319.118 142.824 319.118 143.432Z" fill="#929497"/>
<path d="M83.2021 223.691H78.3379C77.7299 223.691 77.5779 223.235 77.5779 222.931L77.1218 213.963H66.1773L62.3771 222.931C62.2251 223.387 61.9211 223.691 61.3131 223.691H56.1448C55.6888 223.691 55.3848 223.387 55.3848 223.083C55.3848 222.931 55.3848 222.779 55.5368 222.627L68.4574 193.138C70.4335 188.729 73.3216 188.273 75.9058 188.273C78.3379 188.273 81.226 189.185 81.6821 193.138L84.2662 222.627V222.779C84.1142 223.235 83.9622 223.691 83.2021 223.691ZM75.7538 194.506C75.7538 193.898 75.6018 193.746 75.1457 193.746C74.6897 193.746 74.5377 193.898 74.2337 194.506L68.4574 208.49H76.6658L75.7538 194.506Z" fill="#929497"/>
<path d="M113.452 188.881C114.212 189.033 114.364 189.185 114.212 189.945L113.756 192.985C113.604 193.441 113.452 193.897 112.692 193.897H103.116C100.379 193.897 99.3154 194.809 98.7073 198.001L97.7953 203.017H110.564C111.02 203.017 111.476 203.169 111.324 203.93L110.716 207.274C110.564 207.73 110.412 208.186 109.652 208.186H96.8832L95.8192 214.266C95.6672 214.874 95.6672 215.33 95.6672 215.786C95.6672 217.61 96.5792 218.218 98.8593 218.218H108.436C108.892 218.218 109.348 218.522 109.196 219.13L108.74 222.17C108.588 222.778 108.284 223.082 107.676 223.234C106.156 223.539 104.18 223.843 98.5553 223.843C93.2351 223.843 89.1309 221.714 89.1309 216.394C89.1309 215.634 89.1309 215.026 89.2829 214.114L92.171 197.697C93.6911 189.185 98.2513 187.969 104.788 187.969C110.26 188.273 112.084 188.729 113.452 188.881Z" fill="#929497"/>
<path d="M135.189 208.947L140.205 222.779C140.509 223.387 140.053 223.692 139.597 223.692H134.125C133.669 223.692 133.365 223.235 133.213 222.779L128.805 210.163H127.893C126.677 210.163 125.308 210.011 123.636 210.011L121.356 222.779C121.204 223.235 121.052 223.692 120.292 223.692H115.58C114.972 223.692 114.668 223.387 114.82 222.779L120.596 190.402C120.748 189.49 121.356 189.186 122.268 189.034C124.7 188.73 128.197 188.426 131.541 188.426C138.685 188.426 143.397 191.162 143.397 197.546C143.549 202.41 140.661 207.275 135.189 208.947ZM130.629 193.898C129.717 193.898 127.285 194.05 126.373 194.05L124.548 204.691C125.309 204.691 127.893 204.843 128.805 204.843C133.669 204.843 137.013 203.018 137.013 197.698C137.013 194.81 134.733 193.898 130.629 193.898Z" fill="#929497"/>
<path d="M174.102 203.018L173.037 209.402C171.213 220.347 165.285 224.147 157.077 224.147C150.388 224.147 145.828 220.347 145.828 213.051C145.828 211.987 145.98 210.771 146.132 209.402L147.196 203.018C149.02 191.922 154.949 188.273 163.157 188.273C169.845 188.273 174.406 192.226 174.406 199.522C174.406 200.586 174.254 201.802 174.102 203.018ZM162.245 193.898C157.381 193.898 154.949 196.482 153.733 202.866L152.668 209.25C152.364 210.619 152.364 211.835 152.364 212.747C152.364 216.851 154.189 218.219 157.989 218.219C163.005 218.219 165.437 215.331 166.501 209.25L167.565 202.866C167.869 201.498 167.869 200.434 167.869 199.37C167.717 195.418 165.893 193.898 162.245 193.898Z" fill="#929497"/>
<path d="M201.92 189.033C202.376 189.185 202.68 189.337 202.68 189.946L202.072 193.442C201.92 194.05 201.92 194.354 201.008 194.354C197.968 194.05 195.232 193.898 191.736 193.898C189.152 193.898 186.111 194.658 186.111 197.394C186.111 199.066 186.872 199.978 189.304 201.346L194.472 204.538C198.272 206.97 199.488 209.554 199.488 213.051C199.488 220.803 192.952 223.995 185.199 223.995C181.703 223.995 179.119 223.691 176.991 223.083C176.535 222.931 176.079 222.779 176.231 222.171L176.839 218.827C176.991 218.371 177.143 217.763 177.903 217.915C179.727 218.219 184.439 218.371 186.263 218.371C189.608 218.371 192.496 217.307 192.496 213.963C192.496 212.291 191.736 211.075 189.304 209.554L183.679 205.754C180.487 203.626 179.575 200.434 179.575 197.85C179.575 190.25 186.263 188.273 192.952 188.273C196.144 188.273 200.4 188.729 201.92 189.033Z" fill="#929497"/>
<path d="M211.04 188.881C213.473 188.577 216.969 188.273 220.313 188.273C228.369 188.273 232.169 191.466 232.169 197.85C232.169 205.146 227.305 210.619 216.361 210.619C215.145 210.619 213.321 210.467 212.256 210.467L210.128 222.779C209.976 223.235 209.824 223.691 209.064 223.691H204.352C203.592 223.691 203.44 223.235 203.592 222.779L209.368 190.402C209.368 189.337 209.976 189.033 211.04 188.881ZM213.169 205.146C213.929 205.146 216.513 205.298 217.425 205.298C223.201 205.298 225.785 202.258 225.785 197.85C225.785 194.658 223.809 193.746 219.401 193.746C218.489 193.746 216.057 193.898 215.145 193.898L213.169 205.146Z" fill="#929497"/>
<path d="M255.427 223.691H250.563C249.954 223.691 249.802 223.235 249.802 222.931L249.194 213.963H238.402L234.602 222.931C234.45 223.387 234.146 223.691 233.538 223.691H228.369C227.913 223.691 227.609 223.387 227.609 223.083C227.609 222.931 227.609 222.779 227.761 222.627L240.682 193.138C242.658 188.729 245.546 188.273 248.13 188.273C250.562 188.273 253.451 189.185 253.907 193.138L256.491 222.627V222.779C256.339 223.235 256.187 223.691 255.427 223.691ZM247.978 194.506C247.978 193.898 247.826 193.746 247.37 193.746C246.914 193.746 246.762 193.898 246.458 194.506L240.682 208.49H249.042L247.978 194.506Z" fill="#929497"/>
<path d="M285.676 189.035C286.436 189.187 286.588 189.491 286.588 190.099L285.98 193.291C285.828 193.899 285.828 194.355 284.764 194.355C283.092 194.203 279.9 193.899 277.468 193.899C272.907 193.899 270.171 196.331 269.107 202.715L267.891 209.708C267.739 210.924 267.587 211.988 267.587 212.748C267.587 217.156 269.563 218.524 273.211 218.524C275.643 218.524 278.988 218.22 280.66 218.22C281.572 218.068 281.572 218.524 281.572 219.284L280.964 222.476C280.812 223.084 280.356 223.388 279.748 223.54C278.988 223.692 275.796 224.3 272.147 224.3C266.523 224.3 261.051 221.564 261.051 213.356C261.051 212.292 261.203 211.076 261.355 209.86L262.571 202.867C264.699 190.251 271.691 188.427 278.532 188.427C282.028 188.275 285.068 188.883 285.676 189.035Z" fill="#929497"/>
<path d="M312.431 188.881C313.191 189.033 313.343 189.185 313.191 189.945L312.735 192.985C312.583 193.441 312.431 193.897 311.671 193.897H302.094C299.358 193.897 298.294 194.809 297.686 198.001L296.774 203.017H309.542C309.998 203.017 310.454 203.169 310.302 203.93L309.694 207.274C309.542 207.73 309.39 208.186 308.63 208.186H295.862L294.798 214.266C294.646 214.874 294.646 215.33 294.646 215.786C294.646 217.61 295.558 218.218 297.838 218.218H307.414C307.87 218.218 308.326 218.522 308.174 219.13L307.718 222.17C307.566 222.778 307.262 223.082 306.654 223.234C305.134 223.539 303.158 223.843 297.534 223.843C292.214 223.843 288.109 221.714 288.109 216.394C288.109 215.634 288.109 215.026 288.261 214.114L291.15 197.697C292.67 189.185 297.23 187.969 303.766 187.969C309.238 188.273 311.062 188.729 312.431 188.881Z" fill="#929497"/>
</svg>
