<svg width="480" height="320" viewBox="0 0 480 320" fill="none" xmlns="http://www.w3.org/2000/svg">
<path d="M76.7035 160.633C79.1303 151.516 76.3625 141.963 69.7427 136.901C60.7255 142.609 55.5256 153.342 57.4037 164.525C58.0227 168.221 59.3631 171.619 61.2504 174.596C68.3012 172.633 74.5004 168.916 76.7033 160.633M88.8748 186.942C103.758 184.443 113.793 170.352 111.292 155.475C109.212 143.091 99.1155 134.066 87.2096 132.819C84.8063 132.567 82.3237 132.635 79.8193 133.054C76.9346 133.537 74.1468 134.482 71.5634 135.854C84.6799 140.303 91.7326 147.065 92.2216 153.995C92.4616 158.273 90.4733 161.367 87.8607 163.89L106.408 162.594C106.933 162.558 107.097 163.17 106.462 163.352L62.2229 176.036C66.7261 182.239 73.7193 186.365 81.4865 187.177C83.9485 187.435 86.4341 187.356 88.8748 186.942M87.3808 131.19C101.95 132.707 113.313 145.019 113.318 159.989C113.324 175.985 100.359 188.959 84.3605 188.965C68.3626 188.97 55.3902 176.007 55.3848 160.009C55.3794 144.011 68.3428 131.037 84.3409 131.031C85.3656 131.031 86.3812 131.087 87.3808 131.19Z" fill="white"/>
<path d="M57.4032 164.53C58.0222 168.226 59.3626 171.623 61.25 174.6C68.3007 172.637 74.5 168.92 76.705 160.637C79.1298 151.52 76.3621 141.967 69.7405 136.904C60.7248 142.613 55.5252 153.348 57.4032 164.53ZM111.292 155.477C113.792 170.356 103.757 184.447 88.8743 186.946C86.4331 187.36 83.9469 187.438 81.4843 187.181C73.7205 186.369 66.7237 182.243 62.2224 176.04L106.462 163.356C107.097 163.172 106.933 162.562 106.408 162.598L87.8604 163.894C90.4729 161.371 92.4612 158.277 92.2213 153.999C91.7322 147.069 84.6795 140.307 71.5628 135.858C74.1462 134.486 76.9341 133.541 79.8189 133.058C82.3233 132.639 84.8059 132.57 87.2091 132.823C99.1151 134.07 109.212 143.095 111.292 155.477Z" fill="#C70A0C"/>
<path d="M263.35 171.363V161.838H253.8V171.363H248.559V148.676H253.8V157.714H263.35V148.676H268.631V171.363H263.35ZM150.38 148.676V162.879C150.38 164.449 150.611 165.807 151.068 166.911C151.521 168.007 152.177 168.918 153.02 169.618C153.87 170.325 154.896 170.846 156.067 171.168C157.258 171.496 158.602 171.664 160.062 171.664C161.52 171.664 162.851 171.496 164.017 171.168C165.164 170.846 166.142 170.327 166.927 169.625C167.71 168.925 168.325 168.014 168.755 166.917C169.188 165.816 169.404 164.458 169.404 162.879V148.676H164.5V162.727C164.5 164.158 164.145 165.315 163.445 166.163C162.728 167.027 161.59 167.465 160.062 167.465C158.559 167.465 157.429 167.029 156.701 166.166C155.986 165.32 155.623 164.164 155.623 162.727V148.676H150.38ZM135.261 171.366V152.912H129.098V148.676H146.703V150.708C146.703 151.924 145.716 152.913 144.5 152.913H140.504V171.366L135.261 171.366ZM219.513 148.674H224.756V171.361H219.513V148.674ZM202.053 160.783L202.23 161.008L208.927 169.638C209.779 170.736 211.065 171.368 212.456 171.368H216.631L207.037 159.164L206.896 158.984L207.037 158.805L214.925 148.667H209.469L202.235 158.446L202.053 158.682L202.052 158.273V148.667H196.809V171.355H202.052V161.187L202.053 160.783ZM179.49 159.06H182.546C183.647 159.06 184.486 158.756 185.038 158.163C185.584 157.575 185.862 156.81 185.862 155.891C185.862 154.949 185.592 154.175 185.059 153.587C184.518 152.988 183.674 152.687 182.546 152.687H179.49V159.06ZM189.974 171.359C188.421 171.359 186.957 170.534 186.155 169.206L182.075 162.471H179.49V171.359H174.25V148.676H183.593C185.992 148.676 187.872 149.302 189.179 150.538C190.481 151.77 191.141 153.459 191.141 155.556C191.141 156.62 190.858 157.699 190.299 158.762C189.747 159.806 188.769 160.662 187.389 161.302L187.085 161.443L193.451 171.359H189.974ZM229.059 170.399V166.049C230.728 166.818 232.878 167.584 235.101 167.584C237.66 167.584 238.957 166.707 238.957 165.026C238.957 163.052 237.216 162.834 233.73 161.335C231.358 160.276 229.097 158.63 229.097 154.83C229.097 150.408 232.471 148.324 237.142 148.324C239.624 148.324 241.739 148.909 242.924 149.347V153.587C241.739 153.039 239.625 152.38 237.512 152.38C235.213 152.38 234.138 153.221 234.138 154.682C234.138 156.218 235.437 156.694 237.772 157.571C240.774 159.068 244.26 159.727 244.26 164.844C244.26 169.266 240.738 171.678 236.029 171.678C233.137 171.678 230.84 171.166 229.059 170.399ZM390.999 171.361V148.672H405.205V150.731C405.205 151.933 404.228 152.909 403.028 152.909H396.242V157.789H403.861V161.576H396.242V167.126H405.205V171.36L390.999 171.361ZM339.167 171.359V148.673H341.715C343.2 148.673 344.408 149.882 344.408 151.366V167.272H352.777V171.359L339.167 171.359ZM306.715 171.355V148.683H311.958L311.956 171.355H306.715ZM322.005 159.056H325.062C326.162 159.056 326.999 158.755 327.553 158.161C328.1 157.571 328.378 156.808 328.378 155.888C328.378 154.948 328.107 154.172 327.573 153.584C327.034 152.986 326.188 152.683 325.062 152.683H322.006L322.005 159.056ZM332.49 171.355C330.936 171.355 329.471 170.531 328.668 169.205L324.591 162.47H322.005V171.355H316.766V148.674H326.107C328.508 148.674 330.386 149.3 331.694 150.536C332.997 151.769 333.657 153.457 333.657 155.554C333.657 156.618 333.374 157.697 332.813 158.76C332.262 159.803 331.283 160.658 329.904 161.3L329.601 161.441L335.966 171.355L332.49 171.355ZM288.696 163.094L290.754 157.36C291.211 156.07 291.669 154.708 291.974 153.705H292.05C292.317 154.744 292.775 156.034 293.232 157.36L295.214 163.094H288.696ZM295.173 148.671H289.152L280.596 171.359H284.373C285.333 171.359 286.179 170.747 286.478 169.838L287.357 167.175H296.559L297.904 171.359H303.584L295.173 148.671ZM409.416 170.399V166.051C411.083 166.818 413.234 167.584 415.459 167.584C418.017 167.584 419.314 166.707 419.314 165.026C419.314 163.052 417.572 162.834 414.088 161.336C411.715 160.275 409.452 158.632 409.452 154.83C409.452 150.408 412.826 148.324 417.498 148.324C419.982 148.324 422.095 148.909 423.282 149.347V153.587C422.095 153.041 419.982 152.382 417.869 152.382C415.571 152.382 414.495 153.223 414.495 154.684C414.495 156.218 415.792 156.694 418.127 157.571C421.131 159.068 424.615 159.727 424.615 164.844C424.615 169.266 421.093 171.678 416.386 171.678C413.494 171.678 411.195 171.166 409.416 170.399ZM366.193 148.676H369.442C370.985 148.676 372.419 149.472 373.235 150.782L379.562 160.947C380.276 162.076 381.104 163.568 381.595 164.624H381.707C381.631 163.604 381.595 162.184 381.595 161.165V148.676H386.189V171.361H380.441L372.745 159.089C372.029 157.961 371.277 156.613 370.748 155.594H370.674C370.712 156.577 370.786 157.743 370.786 158.834V171.361H366.193V148.676ZM356.15 171.355V148.683H361.392V171.355H356.15Z" fill="black"/>
</svg>
