<svg width="480" height="320" viewBox="0 0 480 320" fill="none" xmlns="http://www.w3.org/2000/svg">
<path d="M239.992 266.665C228.539 266.665 154.449 228.283 154.449 171.123V53.332H325.536V170.886C326.61 224.031 256.636 266.665 239.992 266.665Z" fill="url(#paint0_linear_730_18422)"/>
<path d="M239.996 262.886C229.001 262.886 157.875 225.662 157.875 170.226V56.7227H322.119V169.998C323.149 221.538 255.974 262.886 239.996 262.886Z" fill="url(#paint1_linear_730_18422)"/>
<path d="M240.17 238.491C232.188 238.491 180.555 209.892 180.555 167.298V80.0898H299.788V167.123C300.534 206.724 251.769 238.491 240.17 238.491Z" fill="url(#paint2_linear_730_18422)"/>
<path d="M240.172 236.256C232.466 236.256 182.625 208.462 182.625 167.071V82.3203H297.72V166.899C298.44 205.383 251.368 236.256 240.172 236.256Z" fill="url(#paint3_linear_730_18422)" stroke="#162432" stroke-width="1.42611"/>
<path d="M228.416 109.428C231.262 109.579 233.991 108.779 234.753 105.734C235.105 104.331 234.726 102.322 233.368 101.596C232.475 101.12 231.645 100.654 230.684 100.324C229.782 100.016 228.852 99.9582 227.904 100.063C226.957 100.168 226.53 99.758 225.826 99.135C225.682 99.0072 225.28 98.6753 225.069 98.827C224.916 98.9359 224.922 99.5611 224.89 99.738C224.834 100.044 224.625 100.29 224.595 100.6C224.1 100.556 223.756 99.8641 223.521 99.5024C223.199 99.0055 222.807 98.5754 222.519 98.0523C222.352 97.7477 222.197 97.4477 222.178 97.1031C222.163 96.8299 222.178 96.5504 222.178 96.2765C222.178 95.7472 222.124 95.1528 222.577 94.8185C223.089 94.4391 223.899 94.2378 224.517 94.1516C225.456 94.021 226.47 93.9999 227.351 93.6143C228.201 93.2429 228.765 92.3741 229.722 92.2892C230.867 92.187 231.985 91.9395 233.13 91.8077C234.832 91.6109 236.569 91.6058 238.256 91.9406C239.664 92.2207 241.026 92.7609 242.173 93.6371C242.759 94.0843 243.181 94.6776 243.727 95.1488C245.613 96.7797 247.637 98.5834 249.823 99.815C248.577 100.616 246.744 99.0295 245.474 99.1687C245.95 99.9376 246.557 100.537 247.217 101.14C249.844 103.541 252.002 107.49 255.72 108.284C256.797 108.514 257.664 108.348 258.587 107.762C260.89 106.3 262.992 104.574 265.228 103.044C266.011 102.507 266.915 102.064 267.761 101.64C268.852 101.095 269.918 100.407 271.075 100.01C272.22 99.6171 273.889 99.8047 275.04 100.144C278.202 101.073 280.381 103.545 282.207 106.158C282.91 107.165 283.789 108.211 284.325 109.316C284.892 110.485 285.416 111.615 286.082 112.744C286.549 113.539 286.922 114.384 287.306 115.219C287.616 115.889 288.068 116.348 288.355 117.042C288.795 118.109 289.248 119.148 289.781 120.176C290.667 121.884 291.878 123.12 292.954 124.668C293.542 125.515 294.165 126.358 294.928 127.058C295.173 127.282 295.724 127.511 295.509 127.808C295.404 127.954 294.998 127.95 294.845 127.965C293.683 128.076 292.556 127.638 291.408 127.639C289.987 127.641 290.04 129.564 290.075 130.55C290.162 133.076 290.609 135.42 291.04 137.902C291.444 140.22 291.803 142.57 292.602 144.793C293.119 146.23 293.475 147.68 294.148 149.053C294.312 149.386 294.579 149.72 294.695 150.07C294.791 150.361 294.645 150.408 294.35 150.441C293.918 150.489 293.441 150.364 293.032 150.238C292.217 149.987 291.459 149.587 290.741 149.127C290.501 148.972 290.238 148.566 289.91 148.694C289.544 148.837 289.672 149.411 289.703 149.689C289.799 150.599 290.021 151.495 290.151 152.4C290.468 154.587 290.647 156.791 291.282 158.917C292.002 161.327 292.487 163.896 293.589 166.172C293.903 166.823 294.675 167.626 294.573 168.389C293.94 168.48 293.349 168.305 292.777 168.023C290.894 167.099 288.955 165.856 287.441 164.395C286.399 163.388 286.177 164.935 286.093 165.794C285.941 167.319 286.081 168.889 286.213 170.409C286.398 172.525 286.7 174.627 287.005 176.727C287.304 178.79 287.246 180.876 287.581 182.934C287.756 184.011 287.713 185.107 287.823 186.19C287.87 186.661 288.557 188.439 288.239 188.794C287.321 189.822 285.485 186.769 285.139 186.252C281.938 181.467 279.381 176.697 279.085 170.836C279.012 169.429 279.389 168.132 279.588 166.759C279.816 165.171 280.027 162.842 279.664 161.289C279.163 159.145 276.844 157.698 275.947 155.673C274.538 152.488 274.676 148.706 274.676 145.3C274.676 143.351 274.373 141.383 273.434 139.631C272.342 137.595 270.721 135.684 269.218 133.937C268.22 132.778 267.438 132.045 266.148 131.242C264.5 130.217 262.992 128.989 261.579 127.663C260.615 126.759 259.288 124.783 257.951 124.533C256.073 124.183 255.482 126.691 255.098 128.017C254.838 128.908 254.643 129.861 254.22 130.692C253.732 131.655 252.462 131.946 252.837 133.238C253.072 134.046 253.748 134.65 253.951 135.496C254.4 137.356 254.052 139.286 254.16 141.173C254.258 142.885 254.553 144.552 254.759 146.25C254.829 146.836 254.753 147.4 254.861 147.973C255 148.73 255.445 149.426 255.659 150.164C255.995 151.325 256.34 153.281 257.527 153.916C258.358 154.36 260.26 154.715 261.218 154.762C262.798 154.84 264.385 154.936 265.964 154.818C267.235 154.722 268.745 154.22 269.875 155.083C270.925 155.884 270.963 157.31 270.697 158.496C270.417 159.741 270.452 161.764 269.198 162.528C268.922 162.132 268.783 161.585 268.398 161.24C268.531 161.359 268.636 162.798 268.649 163.039C268.686 163.641 268.566 164.175 268.323 164.727C267.822 165.856 267.095 165.919 266.692 164.619C266.522 164.075 265.992 159.99 264.728 160.752C264.163 161.093 264.675 163.064 264.786 163.575C265.084 164.953 265.169 166.384 263.972 167.315C262.967 168.096 261.434 168.131 261.912 166.522C262.162 165.684 262.536 165.072 262.586 164.189C262.648 163.083 262.108 162.311 261.275 161.652C260.204 160.804 259.162 160.729 258.007 160.128C257.032 159.623 256.171 158.625 255.095 158.342C253.967 158.046 253.459 158.838 252.744 159.576C251.795 160.557 250.704 161.921 250.388 163.257C249.925 165.213 262.423 177.628 264.815 180.327C265.556 181.162 265.406 182.134 264.481 182.733C263.566 183.327 262.181 183.552 261.176 183.112C261.322 183.176 260.773 184.756 260.687 184.914C260.423 185.401 259.951 185.883 259.487 186.194C258.903 186.587 258.199 186.706 257.513 186.571C256.84 186.437 256.488 186.133 256.32 186.979C256.14 187.892 255.755 188.876 254.838 189.252C254.29 189.478 253.703 189.649 253.113 189.713C252.537 189.775 252.014 189.511 251.485 189.536C250.566 189.579 250.373 190.799 249.764 191.296C248.513 192.32 247.281 191.258 246.222 190.595C245.221 192.08 243.916 192.58 242.165 191.966C241.683 191.798 241.181 191.648 240.739 191.388C240.409 191.193 240.103 190.662 239.729 190.66C239.045 190.656 238.542 191.83 238.069 192.194C236.628 193.309 234.777 191.445 234.366 190.117C233.781 190.797 233.327 191.334 232.354 191.449C231.212 191.584 229.615 191.247 229.302 189.957C229.123 189.222 229.102 189.004 228.271 189.386C227.54 189.721 227.066 189.879 226.275 189.528C225.858 189.344 225.533 189.082 225.233 188.742C224.772 188.223 224.027 187.139 224.173 186.409C223.21 186.707 221.287 187.317 220.509 186.336C220.278 186.045 220.055 184.957 219.994 184.583C219.957 184.355 219.962 184.123 220.01 183.898C219.907 184.367 217.775 183.117 217.599 182.908C217.056 182.267 216.905 181.139 217.031 180.327C217.184 179.337 218.683 178.157 219.315 177.476C220.91 175.756 222.548 174.076 224.15 172.362C225.834 170.56 227.51 168.736 229.03 166.79C229.625 166.029 230.309 165.336 230.827 164.518C231.362 163.673 232.121 162.585 231.167 161.754C230.303 161.001 229.068 161.042 228.255 160.161C227.682 159.54 227.268 158.939 226.41 158.826C225.449 158.698 224.606 159.005 223.792 159.504C222.35 160.387 220.638 161.003 219.513 162.321C218.791 163.167 218.354 164.34 218.503 165.459C218.586 166.085 218.858 166.548 219.234 167.039C219.558 167.464 219.859 167.958 219.106 168.156C217.651 168.536 216.442 166.905 215.806 165.832C215.291 164.963 215.3 163.834 215.509 162.875C215.645 162.245 216.539 161.003 215.718 160.628C213.705 159.703 213.779 163.133 213.603 164.295C213.53 164.781 213.418 165.271 213.421 165.764C213.424 166.058 213.956 167.12 213.354 167.092C212.926 167.072 212.412 166.153 212.196 165.84C211.886 165.391 211.679 164.896 211.501 164.382C211.294 163.785 211.037 163.203 210.909 162.578C210.804 162.064 210.742 161.508 210.781 160.986C210.824 160.416 210.977 159.888 211.044 159.325C211.091 158.922 210.967 158.61 210.897 158.195C210.681 156.935 211.329 155.41 212.419 154.727C214.093 153.68 216.513 154.877 218.327 154.949C219.559 154.998 220.862 155.11 222.051 154.705C223.045 154.366 224.26 153.173 224.598 152.161C224.863 151.365 224.835 150.437 224.745 149.615C224.603 148.311 224.801 146.913 225.032 145.628C225.195 144.721 225.577 143.925 225.687 142.995C225.894 141.251 226.276 139.534 226.579 137.806C226.716 137.021 226.776 136.338 226.741 135.565C226.705 134.739 227.133 134.026 227.458 133.296C228.017 132.039 227.467 131.494 226.561 130.695C226.086 130.277 225.436 129.934 225.067 129.412C224.237 128.239 224.938 126.689 224.061 125.612C223.753 125.233 223.191 125.071 222.736 125.025C221.893 124.941 221.393 125.513 220.776 125.965C220.107 126.458 220.045 126.968 219.635 127.68C218.72 129.27 216.602 127.501 215.903 129.272C215.595 130.051 215.251 130.913 214.477 131.337C213.704 131.761 212.667 131.631 212.196 132.567C211.677 133.601 211.738 135.217 210.579 135.802C209.896 136.147 209.359 135.832 208.982 136.62C208.68 137.25 208.714 137.988 208.482 138.64C208.157 139.553 207.64 140.484 206.952 141.172C206.539 141.584 205.984 141.733 205.738 142.313C205.502 142.866 205.431 143.661 205.334 144.257C205.176 145.227 205.158 146.207 205.161 147.187C205.17 149.836 205.264 152.644 204.861 155.269C204.682 156.457 204.316 157.609 203.774 158.682C203.571 159.082 203.332 159.511 203.065 159.873C202.788 160.25 202.352 160.442 201.942 160.638C201.534 160.834 201.296 160.992 201.241 161.462C201.16 162.159 200.966 162.839 200.929 163.531C200.885 164.338 200.941 165.146 200.942 165.954C200.943 167.081 200.954 168.2 200.876 169.324C200.701 171.849 200.749 174.375 200.751 176.905C200.753 178.339 200.802 179.722 200.05 180.977C199.318 182.197 199.208 183.657 198.422 184.854C198.176 185.225 197.834 185.364 197.53 185.716C197.231 186.061 197.042 186.491 196.742 186.835C196.214 187.441 194.255 189.443 193.287 188.8C192.728 188.427 192.746 186.857 192.667 186.316C192.424 184.688 192.595 183.046 192.44 181.428C192.251 179.462 192.317 177.399 192.37 175.422C192.426 173.325 193.298 171.387 193.459 169.299C193.551 168.108 193.665 166.91 193.899 165.737C194.097 164.744 194.697 164.014 194.591 162.936C194.26 162.967 194.052 163.307 193.851 163.573C193.405 164.166 192.986 164.744 192.502 165.31C191.866 166.051 191.103 166.696 190.205 167.094C189.529 167.394 188.082 167.867 187.356 167.669C187.052 167.586 186.915 167.455 186.852 167.16C186.712 166.504 187.583 165.516 187.849 164.97C188.543 163.542 188.922 162.242 189.178 160.689C189.449 159.055 189.622 157.427 189.904 155.8C190.238 153.874 190.879 151.765 190.778 149.813C189.969 149.767 189.429 149.932 188.718 150.29C188.202 150.55 187.312 151.096 186.766 150.593C186.401 150.258 186.502 149.563 186.539 149.114C186.65 147.693 187.806 146.677 188.055 145.341C188.288 144.085 188.38 142.821 188.724 141.563C189.298 139.464 190.258 137.458 190.4 135.286C190.502 133.727 190.521 132.164 190.521 130.602C190.522 129.755 190.971 127.999 189.916 127.687C188.906 127.388 185.011 128.96 185.795 126.379C186.032 125.6 187.114 124.891 187.698 124.387C188.522 123.675 189.381 123.001 190.19 122.283C190.956 121.603 191.485 120.686 192.052 119.845C193.089 118.308 193.909 116.64 194.687 114.96C195.083 114.105 195.469 113.244 195.872 112.392C196.184 111.732 196.609 111.13 196.901 110.461C197.516 109.056 198.232 107.802 199.042 106.495C199.847 105.197 200.79 103.945 201.773 102.775C202.779 101.577 203.889 100.239 205.458 99.795C207.164 99.3113 208.699 99.2514 210.442 99.714C212.492 100.258 214.334 101.366 216.046 102.59C216.729 103.078 217.027 103.567 217.52 104.207C218.978 106.101 220.804 107.327 223.015 108.2C224.478 108.778 226.475 109.325 228.416 109.428ZM233.157 155.498C233.159 155.422 233.16 155.347 233.16 155.272C233.163 154.749 233.162 154.225 233.161 153.701C233.16 153.261 233.122 152.83 233.247 152.409C233.482 151.627 232.943 150.682 232.517 150.056C232.284 149.714 232.035 149.633 231.689 149.91C231.321 150.204 231.004 150.639 230.705 151.002C230.335 151.459 229.982 151.929 229.647 152.411C229.397 152.765 229.134 153.048 229.113 153.503C229.089 154.002 229.28 154.483 229.468 154.936C229.818 155.777 230.309 156.454 230.915 157.125C231.154 157.389 231.269 157.59 231.639 157.565C231.976 157.542 232.333 157.476 232.575 157.217C233.043 156.709 233.14 156.167 233.157 155.498ZM250.487 157.235C250.591 157.122 250.685 157.001 250.768 156.871C251.292 156.061 251.837 155.387 251.703 154.361C251.652 153.976 251.497 153.571 251.402 153.188C251.296 152.741 251.147 152.305 250.959 151.886C250.73 151.384 250.456 150.794 250.028 150.429C249.619 150.079 249.042 149.494 248.474 149.96C248.034 150.321 247.885 151.255 247.906 151.771C247.932 152.415 247.872 153.07 247.855 153.719C247.828 154.727 247.749 155.759 247.838 156.764C247.887 157.318 248.068 157.689 248.638 157.867C249.338 158.086 250.015 157.749 250.487 157.235Z" fill="#FEFEFE" stroke="#969593" stroke-width="1.06958"/>
<path d="M200.057 110.327C200.761 108.869 204.713 103.851 206.973 103.874C213.43 103.941 218.851 110.9 219.647 111.29C222.344 112.611 224.727 112.224 227.666 112.206M190.078 127.726C190.228 127.735 190.327 127.642 190.451 127.572C191.877 126.775 193.197 125.965 194.326 124.76C196.751 122.175 196.847 119.988 198.355 116.835M216.843 128.543C217.021 128.115 216.733 127.642 216.617 127.239C216.5 126.836 216.442 126.414 216.385 125.999C216.178 124.481 216.323 122.851 216.761 121.396M221.335 125.479C220.319 125.013 220.596 122.823 220.598 121.964C220.6 121.337 220.541 120.694 220.679 120.078C220.847 119.324 221.212 118.635 221.499 117.924M223.581 125.071C223.618 123.913 223.87 122.782 224.031 121.638C224.168 120.669 224.062 119.697 224.141 118.724C224.183 118.203 224.47 117.77 224.521 117.27M212.799 120.946C212.795 121.379 212.594 121.809 212.473 122.219C212.226 123.049 211.95 123.921 211.826 124.777C211.609 126.263 211.364 128.164 211.941 129.601C212.188 130.217 212.524 131.107 213.003 131.564M209.123 136.221C209.159 135.846 208.977 135.505 208.879 135.151C208.651 134.329 208.62 133.468 208.47 132.629C207.713 128.396 207.607 123.116 210.389 119.557M223.744 125.316C223.955 125.322 223.987 125.192 224.107 125.023C224.483 124.495 224.799 123.882 225.158 123.334C225.682 122.533 226.278 121.786 226.807 120.993C227.124 120.518 227.537 119.9 227.584 119.313M205.366 142.428C205.457 142.195 205.421 141.842 205.401 141.589C205.333 140.744 205.129 139.906 205.121 139.06C205.112 138.107 205.122 137.154 205.122 136.201C205.122 134.295 205.123 132.391 205.122 130.485C205.121 129.412 205.088 128.338 205.085 127.265C205.081 126.322 205.311 125.61 205.566 124.71C205.956 123.339 206.363 122.014 206.919 120.701M190.786 149.807C191.19 149.538 191.498 148.677 191.702 148.245C192.418 146.731 192.745 145.079 193.166 143.469C193.582 141.875 194.051 140.3 194.348 138.675C194.547 137.594 195.048 136.442 195.346 135.354C196.055 132.767 196.791 130.2 197.481 127.625C198.063 125.456 198.206 123.216 198.79 121.055M194.435 163.312C194.375 162.649 194.818 161.728 194.974 161.089C195.388 159.393 195.654 157.654 195.974 155.939C196.168 154.905 196.176 153.846 196.155 152.798C196.136 151.834 196.184 150.951 196.22 149.982C196.267 148.708 196.184 147.436 196.255 146.162C196.407 143.469 196.951 140.771 197.293 138.097C197.68 135.067 198.026 132.031 198.456 129.006C198.878 126.023 199.576 123.401 200.75 120.619M201.187 161.187C200.621 160.591 200.577 159.543 200.369 158.794C200.157 158.033 200.116 157.288 200.008 156.506C199.395 152.02 199.668 147.212 200.242 142.766C200.501 140.763 200.684 138.741 201.017 136.752C201.186 135.744 202.281 129.426 202.397 128.654C202.72 126.516 203.586 124.601 204.562 122.689M226.807 93.7188C227.513 94.1871 228.205 94.8026 228.801 95.4067C229.408 96.0228 229.879 96.7495 230.376 97.4574C230.711 97.9343 230.986 98.4546 231.064 99.041C231.124 99.4876 231.132 99.8995 230.865 100.28M225.01 98.8099C225.183 98.2521 225.319 97.5424 225.791 97.1465C226.404 96.6309 226.822 96.851 227.479 97.1346C228.066 97.3867 228.656 97.6565 229.257 97.8704M232.035 149.698C232.634 149.664 234.829 145.295 235.049 144.745C235.255 144.229 236.341 140.359 236.595 138.903C236.916 137.067 237.247 135.222 237.385 133.362M248.616 149.821C248.558 149.497 248.269 149.175 248.133 148.866C247.956 148.458 247.819 148.034 247.648 147.623C246.822 145.641 245.943 143.696 245.275 141.65C244.785 140.147 244.337 138.631 243.932 137.103C243.564 135.707 243.445 134.381 243.306 132.953" stroke="#969593" stroke-width="1.06958"/>
<path d="M224.876 146.54C225.1 146.446 225.385 146.58 225.582 146.701C225.985 146.947 226.391 147.203 226.791 147.459C227.096 147.653 227.532 147.949 227.927 147.849C228.413 147.726 228.321 147.095 228.558 146.757C228.965 146.173 229.647 146.562 230.132 146.786C230.489 146.951 230.844 147.117 231.247 147.085C231.799 147.04 232.339 146.902 232.89 146.843C233.311 146.798 233.799 146.686 234.215 146.812M247.529 147.247C248.15 146.983 248.734 146.704 249.435 146.704C250.017 146.703 250.544 147.191 251.123 146.93C251.727 146.656 251.913 146.041 252.585 146.658C252.932 146.977 253.095 147.567 253.526 147.793C253.804 147.939 253.797 147.793 253.985 147.632C254.288 147.374 254.708 147.163 254.907 146.812M253.138 111.961C253.863 111.713 254.865 112.185 255.656 112.189C258.163 112.203 260.255 111.203 262.371 109.927C263.622 109.174 264.806 108.277 265.995 107.429C267.014 106.703 267.88 105.652 268.968 105.043C273.31 102.614 279.485 105.254 281.127 109.837M256.759 124.758C256.739 124.554 256.559 124.419 256.438 124.267C256.128 123.881 255.882 123.463 255.642 123.032C255.226 122.292 254.774 121.572 254.372 120.823C254.186 120.476 253.964 120.125 253.823 119.756C253.692 119.412 253.695 119.046 253.654 118.685M259.672 125.384C259.81 125.336 259.861 125.091 259.92 124.96C260.171 124.393 260.36 123.864 260.471 123.25C260.604 122.537 260.606 121.822 260.604 121.098C260.599 119.747 259.977 118.591 259.373 117.434M257.032 124.54C257.096 124.058 257.165 123.6 257.168 123.101C257.177 121.904 257.126 120.727 256.978 119.54C256.884 118.79 256.837 117.972 257.059 117.243M263.457 129.196C263.683 128.588 263.997 128.002 264.14 127.365C264.555 125.513 264.217 123.467 263.892 121.626M268.33 132.844C268.481 132.864 269.083 129.274 269.133 128.793C269.273 127.436 269.146 126.064 268.859 124.734C268.585 123.457 268.228 122.108 267.514 121M271.285 136.18C271.407 136.056 271.466 135.818 271.527 135.647C271.76 135 271.987 134.32 272.157 133.655C272.638 131.795 272.779 129.803 272.662 127.902C272.468 124.756 271.081 121.544 270.225 118.495M274.389 142.387C274.666 142.185 276.513 135.306 276.185 131.222C276.078 129.898 275.995 128.338 275.817 126.922C275.622 125.359 274.961 121.401 274.09 120.057M279.657 161.051C280.361 159.699 280.286 156.865 280.365 155.345C280.522 152.384 280.5 149.418 280.459 146.454C280.414 143.317 277.536 122.841 276.226 120.374M286.682 164.155C286.107 161.077 285.791 157.896 285.338 154.782C284.803 151.102 281.618 125.41 279.576 120.056M289.623 148.963C287.88 144.642 286.862 140.063 285.635 135.59C284.915 132.98 284.175 130.374 283.417 127.774C282.764 125.523 281.764 123.069 281.698 120.701M290.684 127.726C289.945 127.888 288.361 125.365 287.893 124.8C285.606 122.029 284.096 120.17 282.768 116.82M211.004 159.54C211.128 159.404 211.202 159.151 211.321 158.979C211.698 158.426 212.355 158.134 212.947 157.876C214.051 157.393 215.25 156.884 216.436 156.641M215.986 161.378C216.148 161.347 216.205 161.227 216.338 161.105C216.939 160.555 217.563 160.147 218.295 159.771C219.53 159.137 220.798 158.628 221.99 157.906M215.578 164.932C216.229 164.521 217.559 164.418 218.315 164.646M235.304 154.313C235.433 154.3 235.518 154.425 235.672 154.524C236.35 154.961 237.159 155.284 237.938 155.481C240.29 156.077 243.323 155.982 245.024 154.028" stroke="#969593" stroke-width="1.06958"/>
<path d="M233.055 156.27C233.322 156.275 233.579 156.457 233.821 156.555C234.424 156.802 235.056 157.077 235.7 157.209C236.887 157.451 238.131 157.577 239.343 157.577C242.397 157.574 245.276 157.545 247.796 155.672" stroke="#969593" stroke-width="1.06958"/>
<path d="M264.485 160.989C263.817 160.438 263.064 159.926 262.343 159.424C260.993 158.483 259.654 157.584 258.133 156.946M268.445 161.44C268.445 160.827 268.48 160.205 268.45 159.594C268.348 157.598 266.178 156.492 264.382 156.742M262.462 165.135C262.648 164.361 264.211 164.176 264.873 164.073L262.462 165.135ZM266.302 162.603C266.557 161.83 268.223 161.91 268.874 161.908L266.302 162.603ZM268.465 159.703C268.806 159.163 270.117 158.925 270.671 159.294L268.465 159.703Z" fill="#FEFEFE"/>
<path d="M264.485 160.989C263.817 160.438 263.064 159.926 262.343 159.424C260.993 158.483 259.654 157.584 258.133 156.946M268.445 161.44C268.445 160.827 268.48 160.205 268.45 159.594C268.348 157.598 266.178 156.492 264.382 156.742M262.462 165.135C262.648 164.361 264.211 164.176 264.873 164.073M266.302 162.603C266.557 161.83 268.223 161.91 268.874 161.908M268.465 159.703C268.806 159.163 270.117 158.925 270.671 159.294" stroke="#969593" stroke-width="1.06958"/>
<path d="M231.683 163.035C232.134 162.759 232.588 162.682 232.581 162.113C232.573 161.468 232.531 160.757 232.309 160.147C232.119 159.619 231.811 159.117 231.573 158.608C231.45 158.345 231.181 157.917 231.329 157.645M249.272 157.863C249.049 158.321 249.419 159.135 249.627 159.557C249.859 160.028 250.234 160.464 250.55 160.885C250.738 161.136 250.873 161.435 251.204 161.512M233.888 158.162C233.853 158.623 234.192 159.35 233.888 159.768M236.066 159.196C235.549 159.491 236.147 160.602 236.556 160.749M238.271 159.442C237.762 159.329 238.086 160.851 238.299 161.075M240.286 159.605C240.491 159.876 240.816 160.606 240.559 160.939M241.893 159.224C242.109 159.364 242.462 159.56 242.613 159.781C242.833 160.102 242.767 160.721 242.709 161.075M244.397 158.734C244.777 159.235 245.037 159.657 245.133 160.313M246.549 157.835C246.549 158.025 246.505 158.264 246.564 158.443C246.685 158.811 247.149 159.118 247.365 159.442M233.888 163.254C233.804 163.425 233.816 163.689 233.78 163.885C233.711 164.276 233.597 164.657 233.44 165.022C233.183 165.622 232.821 166.196 232.477 166.749C232.231 167.145 231.871 167.429 231.6 167.8M232.238 159.755C231.322 159.912 230.44 160.307 230.333 161.256M236.257 163.662C236.253 164.37 236.086 164.983 235.846 165.655C235.502 166.613 234.958 167.606 234.433 168.48M238.435 164.479C238.22 166.15 237.735 167.829 237.727 169.516M240.613 164.507V170.687M242.411 164.425C242.412 165.183 242.48 165.894 242.594 166.646C242.735 167.565 242.746 168.583 243.063 169.463M244.425 164.098C244.411 164.263 244.466 164.374 244.526 164.532C244.724 165.065 244.954 165.593 245.186 166.112C245.538 166.892 245.924 167.682 246.468 168.346M246.658 163.2C246.586 163.497 246.861 163.921 246.971 164.17C247.205 164.695 247.434 165.221 247.721 165.72C248.044 166.282 248.361 166.911 248.891 167.311M248.781 157.917C248.561 158.071 248.45 158.639 248.365 158.889C248.185 159.423 248.154 159.992 248.155 160.551C248.156 161.599 248.185 162.727 248.622 163.7C248.823 164.154 249.129 164.561 249.557 164.822C249.786 164.961 250.041 165.053 250.303 165.105C250.625 165.169 250.897 165.073 251.205 165.106M228.797 171.422C228.277 171.359 227.552 171.951 227.653 172.512M230.92 173.219C230.144 173.139 229.755 173.857 229.831 174.581M234.025 174.471C233.477 174.665 233.403 175.577 233.207 176.051M236.42 175.343C237.045 175.301 237.009 176.499 236.692 176.813M240.232 175.615C240.212 176.372 240.266 177.166 240.449 177.902M243.881 175.125C243.884 175.861 243.869 176.506 244.154 177.194M246.494 174.253C246.53 174.937 247.219 175.431 247.148 176.214M249.272 173.055C249.6 173.541 250.149 173.908 250.361 174.471M251.612 170.986C252.263 171.617 252.948 172.145 253.356 173.002M211.153 163.336C211.854 163.053 212.889 162.757 213.603 163.172M204.796 109.671C204.774 110.543 206.078 110.769 206.735 110.631M203.918 111.651C204.133 111.809 204.196 112.025 204.512 112.081C205.047 112.178 205.512 111.894 205.98 111.671M202.141 113.591C202.131 113.847 202.531 113.931 202.718 113.976C203.277 114.108 203.945 114.077 204.367 113.652M203.897 114.98C204.263 115.441 204.626 115.649 205.218 115.713C205.658 115.76 206.052 115.653 206.327 115.286M205.735 113.632C206.084 114.007 206.655 114.673 207.144 114.06M207.185 112.325C207.354 112.564 207.845 112.706 208.128 112.733C208.464 112.765 208.676 112.65 208.9 112.407M208.512 110.303C208.675 110.688 209.337 110.925 209.699 111.02C210.186 111.147 210.537 111.035 210.676 110.507M212.801 112.223C212.455 112.748 211.916 112.725 211.363 112.588C211.097 112.523 210.895 112.416 210.66 112.29C210.562 112.238 210.519 112.187 210.412 112.182M208.676 113.714C208.741 113.944 209.085 114.171 209.3 114.263C209.669 114.418 210.015 114.39 210.31 114.122M207.246 115.674C207.392 115.956 207.846 116.116 208.141 116.16C208.55 116.22 208.974 116.017 209.125 115.613M210.084 115.756C210.695 115.984 211.113 116.172 211.514 115.511M212.311 110.814C212.341 110.796 212.708 111.2 212.858 111.242C213.357 111.38 213.853 111.111 214.066 110.651M214.046 112.386C214.146 112.368 214.56 112.822 214.755 112.886C215.131 113.011 215.43 112.773 215.68 112.509M211.963 114.081C212.597 114.556 213.469 115.081 214.128 114.327M215.802 113.795C216.348 114.312 217.223 114.835 217.599 113.857M262.422 112.57C262.866 113.09 265.054 114.319 265.322 113.142M263.865 111.086C263.996 111.074 263.985 111.125 264.087 111.185C264.363 111.349 264.592 111.581 264.891 111.721C265.204 111.867 265.946 112.078 266.071 111.576M265.935 109.671C266.29 109.863 266.677 110.068 267.083 110.132C267.663 110.222 267.944 110.084 268.331 109.671M267.976 110.978C268.078 111.167 268.366 111.286 268.57 111.332C268.96 111.421 269.178 111.295 269.447 111.005M269.965 109.044C270.242 109.353 270.475 109.67 270.894 109.81C271.372 109.97 271.601 109.757 271.897 109.371M273.313 108.772C273.718 108.855 274.055 109.283 274.485 109.395C275.082 109.549 275.473 108.95 275.628 108.445M274.457 110.351C274.746 110.447 274.853 110.867 275.193 110.973C275.718 111.138 276.109 110.731 276.444 110.378M271.163 111.032C271.635 111.294 272.082 111.535 272.63 111.634C273.268 111.748 273.279 111.659 273.476 111.113M267.051 112.801C267.151 113.125 267.932 113.386 268.233 113.446C268.636 113.526 269.26 113.591 269.42 113.101M270.427 112.774C270.969 113.084 271.728 113.494 272.034 112.665M273.122 112.611C273.22 113.312 274.608 113.32 274.648 112.584M276.064 112.366C276.553 112.329 277.758 113.628 277.998 112.638M274.429 114.544C274.88 115.368 276.055 115.057 276.5 114.436M271.734 114.327C272.185 114.711 272.868 114.998 273.341 114.49M268.739 114.381C268.846 114.608 269.301 114.82 269.529 114.903C269.969 115.064 270.297 115.02 270.509 114.571" stroke="#969593" stroke-width="1.06958"/>
<path d="M230.43 169.465C231.13 170.472 236.211 172.508 240.24 172.508C244.423 172.508 250.109 170.547 250.469 169.465" stroke="#969593" stroke-width="1.06958"/>
<path d="M186.047 68.293V68.3403L186.073 68.3027L186.047 68.293Z" fill="#CCCCCC"/>
<path d="M186.261 68.3698L186.073 68.3008L186.047 68.3384V68.4497L186.261 68.3698Z" fill="#CCCCCC"/>
<path d="M186.375 68.4141L191.245 75.8498L189.769 69.6673L186.375 68.4141Z" fill="#DBDBDB"/>
<path d="M191.245 75.849L186.375 68.4133L186.261 68.3711L186.047 68.451V72.0145L191.245 75.849Z" fill="#CCCCCC"/>
<path d="M186.047 67.9122L186.191 68.1313L188.28 65.1142L186.047 59.043V67.9122Z" fill="#DBDBDB"/>
<path d="M186.073 68.2998L186.191 68.1292L186.047 67.9102V68.2901L186.073 68.2998Z" fill="#CCCCCC"/>
<path d="M186.328 68.3428L186.188 68.1289L186.07 68.2995L186.259 68.3685L186.328 68.3428Z" fill="#CCCCCC"/>
<path d="M186.327 68.3448L195.063 65.1133L188.276 65.1139L186.188 68.1309L186.327 68.3448Z" fill="#E6E6E6"/>
<path d="M186.327 68.3448L186.258 68.3705L186.371 68.4127L186.327 68.3448ZM186.371 68.4127L189.765 69.666L195.063 65.1133L186.327 68.3448L186.371 68.4127Z" fill="#CCCCCC"/>
<path d="M186.044 67.9122V59.043L184.211 65.1142L186.044 67.9122Z" fill="#E6E6E6"/>
<path d="M177.398 65.0977L186.046 68.2904V67.9105L184.213 65.1125L177.398 65.0977Z" fill="#F2F2F2"/>
<path d="M186.046 68.3378V68.2904L177.398 65.0977L182.839 69.6355L185.943 68.4872L186.046 68.3378Z" fill="#CCCCCC"/>
<path d="M182.837 69.6366L180.844 75.8481L185.94 68.4883L182.837 69.6366Z" fill="#DBDBDB"/>
<path d="M185.941 68.4893L186.045 68.4511V68.3398L185.941 68.4893Z" fill="#CCCCCC"/>
<path d="M186.044 68.4492L185.94 68.4874L180.844 75.8473L186.044 72.0128V68.4492Z" fill="#B3B3B3"/>
<path d="M222.008 68.293V68.3403L222.033 68.3027L222.008 68.293Z" fill="#CCCCCC"/>
<path d="M222.223 68.3698L222.033 68.3008L222.008 68.3384V68.4497L222.223 68.3698Z" fill="#CCCCCC"/>
<path d="M222.336 68.4141L227.207 75.8498L225.73 69.6673L222.336 68.4141Z" fill="#DBDBDB"/>
<path d="M227.207 75.849L222.336 68.4133L222.223 68.3711L222.008 68.451V72.0145L227.207 75.849Z" fill="#CCCCCC"/>
<path d="M222.008 67.9122L222.152 68.1313L224.241 65.1142L222.008 59.043V67.9122Z" fill="#DBDBDB"/>
<path d="M222.033 68.2998L222.152 68.1292L222.008 67.9102V68.2901L222.033 68.2998ZM222.291 68.3431L222.152 68.1292L222.033 68.2998L222.223 68.3688L222.291 68.3431Z" fill="#CCCCCC"/>
<path d="M222.292 68.3448L231.028 65.1133L224.242 65.1139L222.152 68.1309L222.292 68.3448Z" fill="#E6E6E6"/>
<path d="M222.295 68.3448L222.227 68.3705L222.34 68.4127L222.295 68.3448ZM222.34 68.4127L225.734 69.666L231.031 65.1133L222.295 68.3448L222.34 68.4127Z" fill="#CCCCCC"/>
<path d="M222.009 67.9122V59.043L220.176 65.1142L222.009 67.9122Z" fill="#E6E6E6"/>
<path d="M213.359 65.0977L222.007 68.2904V67.9105L220.174 65.1125L213.359 65.0977Z" fill="#F2F2F2"/>
<path d="M222.007 68.3378V68.2904L213.359 65.0977L218.8 69.6355L221.903 68.4872L222.007 68.3378Z" fill="#CCCCCC"/>
<path d="M218.805 69.6366L216.812 75.8481L221.908 68.4883L218.805 69.6366Z" fill="#DBDBDB"/>
<path d="M221.906 68.4893L222.011 68.4511V68.3398L221.906 68.4893Z" fill="#CCCCCC"/>
<path d="M222.012 68.4492L221.908 68.4874L216.812 75.8473L222.012 72.0128V68.4492Z" fill="#B3B3B3"/>
<path d="M257.973 68.293V68.3403L257.999 68.3027L257.973 68.293Z" fill="#CCCCCC"/>
<path d="M258.187 68.3698L257.999 68.3008L257.973 68.3384V68.4497L258.187 68.3698Z" fill="#CCCCCC"/>
<path d="M258.305 68.4141L263.176 75.8498L261.698 69.6673L258.305 68.4141Z" fill="#DBDBDB"/>
<path d="M263.172 75.849L258.301 68.4133L258.187 68.3711L257.973 68.451V72.0145L263.172 75.849Z" fill="#CCCCCC"/>
<path d="M257.973 67.9122L258.116 68.1313L260.207 65.1142L257.973 59.043V67.9122Z" fill="#DBDBDB"/>
<path d="M257.999 68.2998L258.116 68.1292L257.973 67.9102V68.2901L257.999 68.2998Z" fill="#CCCCCC"/>
<path d="M258.258 68.3428L258.117 68.1289L258 68.2995L258.188 68.3685L258.258 68.3428Z" fill="#CCCCCC"/>
<path d="M258.258 68.3448L266.993 65.1133L260.208 65.1139L258.117 68.1309L258.258 68.3448Z" fill="#E6E6E6"/>
<path d="M258.257 68.3448L258.188 68.3705L258.302 68.4127L258.257 68.3448ZM258.302 68.4127L261.695 69.666L266.992 65.1133L258.257 68.3448L258.302 68.4127Z" fill="#CCCCCC"/>
<path d="M257.973 67.9122V59.043L256.141 65.1142L257.973 67.9122Z" fill="#E6E6E6"/>
<path d="M249.328 65.0977L257.975 68.2904V67.9105L256.143 65.1125L249.328 65.0977Z" fill="#F2F2F2"/>
<path d="M257.975 68.3378V68.2904L249.328 65.0977L254.768 69.6355L257.872 68.4872L257.975 68.3378Z" fill="#CCCCCC"/>
<path d="M254.767 69.6366L252.773 75.8481L257.87 68.4883L254.767 69.6366Z" fill="#DBDBDB"/>
<path d="M257.871 68.4893L257.975 68.4511V68.3398L257.871 68.4893Z" fill="#CCCCCC"/>
<path d="M257.974 68.4492L257.87 68.4874L252.773 75.8473L257.974 72.0128V68.4492Z" fill="#B3B3B3"/>
<path d="M293.938 68.293V68.3403L293.963 68.3027L293.938 68.293Z" fill="#CCCCCC"/>
<path d="M294.153 68.3698L293.963 68.3008L293.938 68.3384V68.4497L294.153 68.3698Z" fill="#CCCCCC"/>
<path d="M294.266 68.4141L299.137 75.8498L297.66 69.6673L294.266 68.4141Z" fill="#DBDBDB"/>
<path d="M299.137 75.849L294.266 68.4133L294.153 68.3711L293.938 68.451V72.0145L299.137 75.849Z" fill="#CCCCCC"/>
<path d="M293.938 67.9122L294.081 68.1313L296.17 65.1142L293.938 59.043V67.9122Z" fill="#DBDBDB"/>
<path d="M293.963 68.2998L294.081 68.1292L293.938 67.9102V68.2901L293.963 68.2998Z" fill="#CCCCCC"/>
<path d="M294.223 68.3428L294.083 68.1289L293.965 68.2995L294.154 68.3685L294.223 68.3428Z" fill="#CCCCCC"/>
<path d="M294.222 68.3448L302.958 65.1133L296.171 65.1139L294.082 68.1309L294.222 68.3448Z" fill="#E6E6E6"/>
<path d="M294.221 68.3448L294.152 68.3705L294.265 68.4127L294.221 68.3448ZM294.265 68.4127L297.66 69.666L302.957 65.1133L294.221 68.3448L294.265 68.4127Z" fill="#CCCCCC"/>
<path d="M293.938 67.9122V59.043L292.105 65.1142L293.938 67.9122Z" fill="#E6E6E6"/>
<path d="M285.289 65.0977L293.937 68.2904V67.9105L292.105 65.1125L285.289 65.0977Z" fill="#F2F2F2"/>
<path d="M293.937 68.3378V68.2904L285.289 65.0977L290.729 69.6355L293.834 68.4872L293.937 68.3378Z" fill="#CCCCCC"/>
<path d="M290.73 69.6366L288.738 75.8481L293.835 68.4883L290.73 69.6366Z" fill="#DBDBDB"/>
<path d="M293.836 68.4893L293.939 68.4511V68.3398L293.836 68.4893Z" fill="#CCCCCC"/>
<path d="M293.938 68.4492L293.835 68.4874L288.738 75.8473L293.938 72.0128V68.4492Z" fill="#B3B3B3"/>
<path d="M233.642 120.456C233.642 120.715 233.797 121.166 233.552 121.363C233.254 121.601 232.97 121.266 232.82 121.009C232.512 120.48 232.67 119.783 232.488 119.217C232.299 118.627 232.062 117.958 231.739 117.449C231.436 116.972 231.132 116.658 230.973 116.098C230.801 115.492 230.756 114.949 230.756 114.303C230.756 113.283 230.986 112.645 231.507 111.839C231.674 111.581 232.196 110.879 232.609 111.14C232.989 111.38 232.375 112.351 233.148 112.292C233.575 112.26 233.598 111.635 234.064 111.639C234.601 112.449 233.504 113.23 233.804 114.084C234.177 115.145 235.252 113.246 235.658 112.946C235.823 113.603 235.783 114.139 235.425 114.742C235.161 115.186 234.778 115.558 234.893 116.155C234.953 116.468 234.846 116.522 235.219 116.536C235.701 116.553 235.538 116.18 235.831 115.978C236.474 115.534 235.952 116.653 236.471 116.852C237.021 117.063 238.275 114.511 237.933 116.864C237.881 117.22 237.519 117.946 237.9 118.266C238.579 118.838 238.738 117.508 238.975 117.2C239.587 116.404 239.689 117.447 239.456 117.941C239.214 118.453 239.031 118.57 239.031 119.204C239.032 120.237 238.749 121.799 239.304 122.641C239.878 122.121 239.514 120.828 239.522 120.129C239.528 119.672 239.628 119.5 239.835 119.138C239.978 118.888 240.077 118.234 240.295 118.061C241.142 117.39 242.016 121.166 242.519 121.594C242.721 121.085 242.676 120.138 242.614 119.572C242.543 118.937 242.134 118.429 242.19 117.789C242.293 116.614 243.095 118.242 243.429 118.633C243.689 118.937 244.49 120.052 244.796 120.069C244.828 119.351 244.628 118.92 244.246 118.334C244.054 118.04 243.561 117.45 243.606 117.081C243.765 115.803 245.554 118.353 245.894 117.302C246.122 116.593 245.708 116.489 245.349 116.103C245.029 115.758 244.98 115.171 245.621 115.283C245.963 115.342 246.437 116.001 246.875 115.775C247.251 115.582 247.1 114.848 246.983 114.521C246.828 114.094 246.593 113.788 246.505 113.322C246.418 112.873 246.113 112.363 246.12 111.916C246.805 111.861 246.938 112.13 247.404 112.464C248.036 112.917 247.934 112.258 247.962 111.635C248.011 110.564 246.763 110.141 246.936 109.03C247.561 108.983 247.692 109.148 248.071 109.606C248.25 109.823 248.574 110.39 248.887 110.426C249.913 110.544 248.97 109.1 248.732 108.816C249.614 108.488 250.212 108.796 250.411 109.742C250.494 110.143 250.488 110.574 250.579 110.926C250.674 111.286 250.793 111.625 250.847 112.015C250.947 112.732 251.105 113.986 250.903 114.696C250.794 115.078 250.363 115.344 249.934 115.054C249.603 114.831 249.624 114.215 249.444 113.924C249.47 115.105 249.066 116.192 248.956 117.353C248.908 117.863 249.076 120.407 248.125 119.971C247.699 119.775 247.473 118.413 247.091 119.476C246.85 120.145 247.033 121.026 246.82 121.736C246.644 122.325 246.385 122.91 246.209 123.505C246.037 124.082 246.076 124.655 246.015 125.251C245.981 125.583 245.983 126.566 245.444 126.452C244.958 126.351 244.954 124.919 244.861 124.557C244.72 124.008 244.661 123.435 244.424 122.906C244.201 122.411 243.878 122.03 243.715 122.69C243.574 123.266 243.733 124.034 243.715 124.624C243.689 125.48 243.326 126.239 243.207 127.072C243.168 127.34 243.236 127.581 243.229 127.845C243.218 128.211 243.034 128.565 242.918 128.906C242.847 129.117 242.818 129.205 242.653 129.074C242.44 128.905 242.377 128.425 242.34 128.182C242.259 127.622 242.23 127.064 242.122 126.506C242.024 125.997 241.883 125.611 241.927 125.092C241.972 124.549 241.844 123.857 241.651 123.351C241.581 123.167 241.514 122.878 241.306 122.825C240.459 122.611 240.905 124.631 240.966 124.967C241.096 125.679 241.319 126.384 241.416 127.1C241.52 127.873 241.736 128.567 241.963 129.279C242.091 129.675 242.092 130.096 242.081 130.521C242.076 130.733 241.933 131.482 241.575 131.451C241.266 131.425 241.103 130.337 240.938 130.096C240.63 129.643 240.285 129.239 240.014 128.733C239.397 127.584 238.748 126.449 238.145 125.308C237.603 124.283 237.489 123.084 236.36 122.526C235.737 122.219 235.208 121.984 234.878 121.33C234.512 120.605 234.464 119.813 234.135 119.1C233.596 119.314 233.641 119.963 233.642 120.456ZM234.306 95.8063C234.099 95.9894 233.859 96.1138 233.562 96.1349C233.33 96.152 233.149 96.0658 232.981 95.9107C232.833 95.7766 232.738 95.5667 232.56 95.4692C232.352 95.3551 231.466 95.5262 231.725 95.1189C231.958 94.7527 232.849 94.8457 233.223 94.7259C233.597 94.6055 233.894 94.4458 234.216 94.221C234.856 93.7749 235.493 93.3117 236.301 93.2695C236.347 93.4623 236.124 93.5741 235.985 93.6586C235.288 94.079 234.956 95.233 234.306 95.8063ZM225.243 175.012C223.719 175.718 221.407 177.966 220.974 178.377C220.308 179.01 219.243 180.228 219.661 180.986C220.674 182.823 222.977 178.988 223.676 178.152C224.065 177.685 225.589 174.85 225.243 175.012ZM238.611 179.287C237.638 181.054 236.994 184.872 236.866 185.578C236.671 186.665 236.504 188.601 237.448 189.038C239.733 190.096 239.241 184.747 239.323 183.441C239.37 182.713 238.832 178.886 238.611 179.287ZM241.825 179.19C241.404 181.162 241.891 185.002 241.975 185.717C242.103 186.813 242.502 188.714 243.532 188.86C246.027 189.213 244.007 184.235 243.709 182.961C243.542 182.249 241.919 178.742 241.825 179.19ZM227.828 176.25C226.308 177.263 224.192 180.063 223.794 180.577C223.182 181.369 222.237 182.856 222.813 183.602C224.207 185.411 226.05 180.904 226.663 179.888C227.005 179.32 228.175 176.018 227.828 176.25ZM231.732 177.438C230.212 178.695 228.262 181.875 227.893 182.463C227.328 183.363 226.486 185.027 227.194 185.714C228.913 187.378 230.365 182.478 230.906 181.348C231.208 180.717 232.078 177.151 231.732 177.438ZM234.816 178.634C233.556 180.15 232.227 183.637 231.974 184.281C231.585 185.271 231.065 187.061 231.889 187.605C233.886 188.924 234.407 183.839 234.73 182.628C234.908 181.953 235.103 178.289 234.816 178.634ZM255.564 175.128C257.015 175.802 259.216 177.943 259.63 178.334C260.265 178.937 261.279 180.098 260.881 180.819C259.916 182.568 257.722 178.916 257.057 178.119C256.685 177.675 255.234 174.974 255.564 175.128ZM252.845 176.498C254.365 177.512 256.481 180.311 256.879 180.827C257.49 181.618 258.435 183.105 257.859 183.851C256.466 185.66 254.624 181.152 254.01 180.137C253.668 179.57 252.498 176.268 252.845 176.498ZM248.942 177.687C250.462 178.944 252.41 182.124 252.78 182.711C253.345 183.612 254.188 185.276 253.48 185.963C251.761 187.627 250.309 182.728 249.768 181.597C249.465 180.965 248.595 177.401 248.942 177.687ZM245.857 178.884C247.118 180.401 248.445 183.887 248.699 184.531C249.089 185.52 249.608 187.311 248.783 187.856C246.786 189.174 246.266 184.089 245.943 182.877C245.764 182.201 245.57 178.537 245.857 178.884Z" fill="#969593"/>
<path d="M223.336 206.862L220.801 206.873L222.274 203.623H226.42V217.263H223.336V206.862H223.336ZM244.488 206.862L241.953 206.873L243.426 203.623H247.572V217.263H244.49L244.488 206.862ZM255.241 206.862L252.707 206.873L254.18 203.623H258.326V217.263H255.242L255.241 206.862ZM232.607 217.398C232.984 217.439 235.874 212.279 235.874 212.279C235.874 212.279 234.701 212.538 233.607 212.244C231.708 211.733 230.728 210.467 230.728 207.824C230.728 205.18 232.822 203.484 235.52 203.484C238.67 203.484 240.127 205.62 239.992 208.782C239.849 212.089 235.738 217.397 235.738 217.397H232.607V217.398ZM235.405 205.731C234.827 205.731 234.273 205.961 233.865 206.369C233.456 206.778 233.227 207.332 233.227 207.909C233.227 208.487 233.456 209.041 233.865 209.449C234.273 209.858 234.827 210.087 235.405 210.087C235.982 210.087 236.536 209.858 236.945 209.449C237.353 209.041 237.583 208.487 237.583 207.909C237.583 207.332 237.353 206.778 236.945 206.369C236.536 205.961 235.982 205.731 235.405 205.731Z" fill="white"/>
<path d="M175.457 148.25L175.612 159.098L172.697 159.139L172.645 155.5L163.754 155.628L163.703 152.059L172.593 151.931L172.54 148.291L175.457 148.25ZM176.103 167.871L176.331 171.424L169.312 171.877C168.641 171.924 167.968 171.859 167.319 171.685C166.697 171.517 166.121 171.211 165.632 170.79C165.141 170.367 164.785 169.913 164.565 169.427C164.258 168.751 164.074 167.929 164.011 166.96C163.975 166.346 163.976 165.73 164.013 165.116C164.051 164.448 164.175 163.884 164.384 163.423C164.593 162.961 164.906 162.532 165.321 162.135C165.737 161.737 166.173 161.455 166.629 161.288C167.365 161.02 168.021 160.867 168.6 160.83L175.619 160.378L175.848 163.931L168.661 164.394C168.019 164.436 167.528 164.643 167.189 165.015C166.85 165.386 166.701 165.882 166.741 166.5C166.78 167.113 166.989 167.582 167.368 167.909C167.746 168.234 168.262 168.376 168.915 168.334L176.103 167.871ZM178.559 163.023L178.69 165.067L176.681 165.198L176.549 163.153L178.559 163.023ZM178.773 166.357L178.907 168.425L176.897 168.555L176.765 166.487L178.773 166.357ZM164.869 175.338L176.511 173.383L177.496 179.249C177.679 180.336 177.723 181.184 177.629 181.791C177.535 182.398 177.26 182.92 176.802 183.36C176.345 183.799 175.746 184.081 175.006 184.204C174.359 184.312 173.78 184.272 173.265 184.08C172.753 183.891 172.297 183.574 171.94 183.16C171.704 182.891 171.481 182.506 171.271 182.002C171.198 182.445 171.106 182.774 170.996 182.989C170.923 183.135 170.749 183.358 170.479 183.656C170.207 183.953 169.993 184.159 169.838 184.27L166.75 186.54L166.082 182.563L169.325 180.084C169.746 179.768 170.009 179.505 170.116 179.296C170.253 179.014 170.297 178.696 170.241 178.388L170.188 178.077L165.464 178.871L164.869 175.338ZM172.387 177.71L172.637 179.195C172.664 179.355 172.769 179.658 172.952 180.101C173.039 180.327 173.193 180.495 173.414 180.611C173.635 180.725 173.872 180.762 174.126 180.718C174.502 180.657 174.771 180.491 174.933 180.224C175.095 179.956 175.122 179.502 175.015 178.86L174.755 177.314L172.387 177.71ZM178.351 184.858L179.681 188.169L175.54 189.831L181.073 191.638L182.842 196.044L177.136 193.792L171.957 200.618L170.319 196.54L173.918 192.471L171.399 191.496L168.725 192.569L167.396 189.257L178.351 184.858ZM195.472 213.116L197.942 215.694L194.959 218.552L197.657 221.369L200.64 218.51L203.12 221.098L194.596 229.265L192.115 226.678L195.563 223.373L192.866 220.557L189.418 223.86L186.948 221.283L195.472 213.116ZM203.544 234.554L200.441 231.951L198.756 233.082L195.964 230.74L206.878 224.486L209.86 226.988L205.597 238.822L202.733 236.42L203.544 234.554ZM204.617 232.123L206.369 228.052L202.674 230.492L204.617 232.123ZM212.065 228.917L215.188 230.958L212.716 239.492L219.512 233.784L222.544 235.767L212.495 243.303L209.257 241.186L212.065 228.917ZM224.042 247.67L220.479 245.741L219.057 247.186L215.852 245.452L225.29 237.136L228.713 238.99L226.91 251.438L223.623 249.659L224.042 247.67ZM224.606 245.073L225.506 240.733L222.377 243.865L224.606 245.073ZM254.377 238.738L257.265 236.642L259.886 240.253L260.292 234.446L264.133 231.659L263.339 237.74L271.219 241.104L267.662 243.685L262.84 241.185L262.507 243.865L264.198 246.197L261.31 248.293L254.377 238.738ZM271.366 226.547L274.253 224.463L278.371 230.165C278.78 230.73 279.078 231.326 279.269 231.954C279.46 232.581 279.506 233.215 279.409 233.858C279.312 234.5 279.117 235.043 278.822 235.487C278.414 236.106 277.816 236.7 277.028 237.269C276.527 237.626 276.006 237.953 275.466 238.247C274.881 238.572 274.338 238.768 273.836 238.834C273.335 238.902 272.804 238.867 272.246 238.727C271.689 238.587 271.217 238.368 270.833 238.07C270.215 237.59 269.736 237.115 269.396 236.646L265.278 230.942L268.165 228.858L272.381 234.696C272.759 235.218 273.195 235.524 273.691 235.613C274.185 235.702 274.684 235.565 275.187 235.201C275.685 234.843 275.97 234.415 276.045 233.922C276.12 233.428 275.966 232.915 275.582 232.386L271.366 226.547ZM274.996 224.028L277.849 221.624L285.309 226.45L281.802 218.297L284.573 215.964L288.895 227.759L285.935 230.25L274.996 224.028Z" fill="white" stroke="#666666" stroke-width="0.713053"/>
<path d="M284.164 216.564L286.558 213.703L294.743 217.162L289.874 209.74L292.199 206.963L298.5 217.83L296.016 220.796L284.164 216.564ZM292.341 206.467L297.28 198.277L299.439 199.578L296.347 204.705L297.953 205.674L300.822 200.917L302.883 202.161L300.015 206.918L302.008 208.119L305.189 202.843L307.479 204.224L302.451 212.562L292.341 206.467ZM297.586 197.81L301.536 187.705L304.251 188.766L302.927 192.156L311.208 195.394L309.909 198.717L301.628 195.479L300.302 198.869L297.586 197.81ZM301.684 186.776L302.456 183.292L311.144 185.213L312.346 179.775L315.185 180.403L313.212 189.327L301.684 186.776ZM303.777 176.689L304.894 167.191L307.399 167.485L306.698 173.433L308.563 173.651L309.212 168.135L311.602 168.416L310.954 173.933L313.267 174.205L313.986 168.086L316.64 168.398L315.504 178.068L303.777 176.689ZM316.808 166.428L305.049 165.387L305.572 159.463C305.669 158.364 305.841 157.532 306.083 156.969C306.329 156.405 306.726 155.968 307.28 155.659C307.832 155.349 308.482 155.227 309.232 155.293C309.885 155.351 310.434 155.537 310.884 155.851C311.332 156.165 311.694 156.586 311.937 157.076C312.096 157.396 312.214 157.826 312.292 158.365C312.473 157.955 312.645 157.659 312.806 157.478C312.914 157.356 313.137 157.184 313.475 156.964C313.813 156.743 314.071 156.599 314.249 156.531L317.808 155.11L317.453 159.128L313.691 160.71C313.204 160.91 312.883 161.098 312.728 161.272C312.525 161.511 312.402 161.807 312.378 162.119L312.35 162.433L317.124 162.855L316.808 166.428ZM310.129 162.239L310.261 160.739C310.275 160.577 310.249 160.259 310.182 159.783C310.158 159.547 310.044 159.33 309.865 159.174C309.682 159.009 309.449 158.909 309.203 158.89C308.823 158.856 308.521 158.948 308.297 159.166C308.072 159.383 307.932 159.816 307.875 160.465L307.738 162.026L310.129 162.239ZM302.985 152.342L303.147 149.874L305.558 150.031L305.396 152.499L302.985 152.342ZM306.075 153.12L306.307 149.551L318.088 150.318L317.856 153.887L306.075 153.12Z" fill="white" stroke="#666666" stroke-width="0.713053"/>
<defs>
<linearGradient id="paint0_linear_730_18422" x1="240" y1="266.665" x2="240" y2="53.332" gradientUnits="userSpaceOnUse">
<stop stop-color="#B3B3B3"/>
<stop offset="0.5" stop-color="#CCCCCC"/>
<stop offset="1" stop-color="#B3B3B3"/>
</linearGradient>
<linearGradient id="paint1_linear_730_18422" x1="240.003" y1="262.885" x2="240.003" y2="56.7227" gradientUnits="userSpaceOnUse">
<stop stop-color="#808080"/>
<stop offset="0.5" stop-color="#999999"/>
<stop offset="1" stop-color="#666666"/>
</linearGradient>
<linearGradient id="paint2_linear_730_18422" x1="180.555" y1="159.291" x2="299.796" y2="159.291" gradientUnits="userSpaceOnUse">
<stop stop-color="#B3B3B3"/>
<stop offset="0.5" stop-color="#CCCCCC"/>
<stop offset="1" stop-color="#B3B3B3"/>
</linearGradient>
<linearGradient id="paint3_linear_730_18422" x1="240.177" y1="236.256" x2="240.177" y2="82.3203" gradientUnits="userSpaceOnUse">
<stop stop-color="#111B26"/>
<stop offset="0.5" stop-color="#2B557F"/>
<stop offset="1" stop-color="#111B26"/>
</linearGradient>
</defs>
</svg>
