<svg width="480" height="320" viewBox="0 0 480 320" fill="none" xmlns="http://www.w3.org/2000/svg">
<mask id="mask0_730_18146" style="mask-type:luminance" maskUnits="userSpaceOnUse" x="56" y="89" width="228" height="142">
<path d="M231.612 90.8332C227.04 95.4208 149.36 190.497 141.139 198.774C136.106 203.819 131.529 206.581 128.322 207.511C123.825 209.32 97.1114 218.422 56.5703 230.804H248.75L283.881 89.8843L283.002 89.3147C277.969 89.2324 272.935 89.1914 267.9 89.1914C255.11 89.1914 238.309 89.4728 231.612 90.8332Z" fill="white"/>
</mask>
<g mask="url(#mask0_730_18146)">
<path d="M112.303 -20.7423L-64.5273 252.165L170.311 403.736L347.181 130.829L112.303 -20.7423Z" fill="url(#paint0_linear_730_18146)"/>
</g>
<mask id="mask1_730_18146" style="mask-type:luminance" maskUnits="userSpaceOnUse" x="184" y="129" width="74" height="74">
<path d="M221.179 129.906C211.577 129.915 202.37 133.724 195.568 140.501L190.344 151.653C195.833 140.151 207.575 132.171 221.189 132.136C225.969 132.118 230.699 133.105 235.074 135.033L224.424 130.04C223.388 129.951 222.34 129.906 221.282 129.906H221.179ZM255.496 166.22C255.515 171.21 254.439 176.143 252.343 180.672L257.595 169.455C257.684 168.403 257.727 167.338 257.724 166.262C257.712 156.682 253.918 147.494 247.168 140.697L244.278 139.347L236.488 135.694C247.722 141.278 255.455 152.851 255.496 166.22ZM184.95 163.175C184.856 164.264 184.81 165.357 184.813 166.45C184.825 175.994 188.591 185.151 195.297 191.943L206.307 197.101C194.93 191.563 187.078 179.903 187.037 166.393C187.02 161.46 188.077 156.583 190.135 152.101L184.95 163.175ZM221.356 200.536H221.269C216.27 200.536 211.517 199.462 207.233 197.534L215.266 201.296L218.237 202.688C219.267 202.772 220.307 202.814 221.36 202.812C230.928 202.804 240.107 199.022 246.903 192.286L252.227 180.916C246.757 192.482 234.997 200.499 221.356 200.536Z" fill="white"/>
</mask>
<g mask="url(#mask1_730_18146)">
<path d="M175.759 182.798L204.774 120.838L211.744 124.097L182.724 186.058L175.758 182.8L175.759 182.798Z" fill="#F9F790"/>
<path d="M182.723 186.058L211.741 124.098L213.14 124.751L184.123 186.711L182.724 186.058H182.723Z" fill="#F9F790"/>
<path d="M184.121 186.712L213.138 124.752L216.823 126.479L187.807 188.437L184.121 186.712Z" fill="#F9F489"/>
<path d="M187.809 188.437L216.825 126.479L228.009 131.723L198.995 193.676C195.266 191.93 191.537 190.184 187.809 188.437Z" fill="#F9EE77"/>
<path d="M198.996 193.678L228.013 131.724L239.195 136.967L210.182 198.918L198.996 193.678Z" fill="#FAD947"/>
<path d="M210.18 198.917L239.193 136.966L242.878 138.693L213.865 200.645C212.977 200.226 211.704 199.631 210.18 198.917Z" fill="#FAC71B"/>
<path d="M213.869 200.642L242.88 138.69C243.768 139.108 244.277 139.344 244.277 139.344L215.266 201.297L213.867 200.642H213.869Z" fill="#FBC10E"/>
<path d="M215.266 201.299L244.277 139.349L257.71 145.628L228.69 207.586L215.266 201.299Z" fill="#FBBF09"/>
<path d="M228.688 207.586L257.707 145.626L266.764 149.87L237.748 211.828L228.688 207.585V207.586Z" fill="#FABB09"/>
</g>
<mask id="mask2_730_18146" style="mask-type:luminance" maskUnits="userSpaceOnUse" x="184" y="129" width="74" height="74">
<path d="M221.201 129.91C201.059 129.957 184.755 146.293 184.805 166.432C184.862 186.574 201.227 202.879 221.367 202.828C235.882 202.79 248.367 194.292 254.203 182.012L254.372 181.636C256.595 176.817 257.739 171.57 257.722 166.263C257.682 151.74 249.167 139.214 236.864 133.387L236.613 133.261C231.955 131.098 226.759 129.91 221.284 129.91H221.201ZM221.201 132.13C240.094 132.081 255.445 147.372 255.503 166.223C255.547 185.12 240.264 200.474 221.367 200.524H221.284C202.421 200.525 187.079 185.265 187.024 166.389C186.983 147.542 202.298 132.178 221.201 132.13ZM221.242 133.637C208.236 133.666 197.029 141.242 191.757 152.192L191.463 152.82C189.516 157.093 188.516 161.736 188.532 166.432C188.566 179.432 196.196 190.664 207.211 195.917L207.631 196.085C211.95 198.078 216.652 199.107 221.41 199.1C230.214 199.075 238.218 195.503 244.068 189.845C244.317 189.64 244.532 189.436 244.738 189.174C244.532 188.971 244.322 188.755 244.068 188.545C232.385 176.927 216.419 169.652 198.751 169.28L196.783 171.249V162.746H197.033C204.182 162.73 210.503 163.372 216.51 165.007C213.239 163.572 209.806 162.509 206.332 161.741V155.123L243.985 154.998H252.068C250.299 150.289 247.506 146.079 243.942 142.726C241.533 140.402 238.778 138.466 235.776 136.988L234.56 136.444C230.408 134.595 225.913 133.639 221.368 133.637H221.242ZM252.864 157.636L243.985 157.677H236.152L235.943 159.018H243.985L253.199 158.977C253.092 158.508 252.971 158.101 252.864 157.637V157.636ZM253.743 161.615L243.985 161.657L223.629 161.698C231.771 166.282 238.726 172.698 244.026 180.294C244.443 180.864 244.837 181.396 245.199 181.969V182.054C245.199 182.054 245.192 182.082 245.199 182.095C245.186 182.109 245.199 182.123 245.199 182.18V188.713C247.4 186.369 249.249 183.717 250.686 180.839L251.272 179.541C253.114 175.358 254.056 170.835 254.037 166.264C254.037 164.657 253.957 163.168 253.743 161.615Z" fill="white"/>
</mask>
<g mask="url(#mask2_730_18146)">
<path d="M203.694 117.891L172.785 183.939L238.834 214.849L269.744 148.801L203.694 117.891Z" fill="url(#paint1_linear_730_18146)"/>
</g>
<mask id="mask3_730_18146" style="mask-type:luminance" maskUnits="userSpaceOnUse" x="55" y="68" width="406" height="163">
<path d="M55.3867 230.805H460.812V68.2994H55.3867V230.805Z" fill="white"/>
</mask>
<g mask="url(#mask3_730_18146)">
<path d="M283.866 89.8022C283.866 89.8022 242.144 89.2762 231.933 91.3435C227.852 95.4397 147.69 193.276 140.343 200.659C136.499 204.519 131.97 207.473 128.161 208.786C93.9624 220.55 -18.8381 254.864 -36.8242 258.508" stroke="white" stroke-width="1.13921"/>
</g>
<path d="M335.099 170.386C335.099 174.938 333.705 183.004 325.295 183.004C316.808 183.004 315.215 175.013 315.215 170.386L315.136 138.694H303.098V170.001C303.098 188.824 317.272 194.77 325.218 194.77C335.709 194.77 347.217 186.201 347.217 170V138.693H335.078L335.099 170.386ZM357.253 194.628H369.645V138.684H357.253V194.628ZM394.118 175.077L394.996 172.075C395.88 169.265 396.599 166.86 397.966 161.725C398.608 159.153 399.814 154.421 400.614 151.044C401.661 156.424 402.14 157.787 402.861 160.838C403.504 163.647 404.149 166.453 405.915 172.075L408.212 179.924C403.39 177.12 398.424 175.844 394.117 175.077M407.034 138.684H394.917L376.616 194.628H388.339L391.405 184.304C395.668 184.696 404.603 185.761 412.499 194.373L412.573 194.628H424.614L407.034 138.684Z" fill="#006CB7"/>
<defs>
<linearGradient id="paint0_linear_730_18146" x1="-64.526" y1="248.815" x2="170.453" y2="399.751" gradientUnits="userSpaceOnUse">
<stop stop-color="#15B8EC"/>
<stop offset="0.55" stop-color="#15B8EC"/>
<stop offset="0.72" stop-color="#006BB6"/>
<stop offset="1" stop-color="#006BB6"/>
</linearGradient>
<linearGradient id="paint1_linear_730_18146" x1="174.14" y1="182.97" x2="239.113" y2="213.362" gradientUnits="userSpaceOnUse">
<stop stop-color="#F9F5A5"/>
<stop offset="0.335" stop-color="#FBDA63"/>
<stop offset="0.581" stop-color="#FFC409"/>
<stop offset="1" stop-color="#FFBF0A"/>
</linearGradient>
</defs>
</svg>
