<svg width="480" height="320" viewBox="0 0 480 320" fill="none" xmlns="http://www.w3.org/2000/svg">
<path d="M285.55 143.613H288.284V150.971C288.284 152.139 288.318 152.896 288.386 153.242C288.503 153.798 288.782 154.244 289.222 154.581C289.663 154.917 290.265 155.086 291.028 155.086C291.804 155.086 292.39 154.927 292.784 154.608C293.178 154.29 293.415 153.899 293.495 153.436C293.575 152.973 293.615 152.204 293.615 151.129V143.613H296.35V150.749C296.35 152.38 296.276 153.532 296.128 154.205C295.98 154.879 295.708 155.447 295.311 155.91C294.913 156.374 294.382 156.743 293.717 157.018C293.052 157.293 292.183 157.43 291.112 157.43C289.818 157.43 288.837 157.28 288.169 156.981C287.501 156.681 286.972 156.292 286.584 155.813C286.196 155.334 285.941 154.832 285.818 154.307C285.639 153.529 285.55 152.38 285.55 150.86L285.55 143.613ZM299.269 157.199V143.613H301.93L307.474 152.686V143.613H310.014V157.199H307.271L301.81 148.339V157.199H299.269ZM312.832 157.199V143.613H315.567V157.199H312.832ZM321.212 157.199V145.912H317.193V143.613H327.957V145.912H323.947V157.199H321.212ZM329.731 157.199V143.613H339.773V145.912H332.465V148.923H339.265V151.212H332.465V154.91H340.032V157.199H329.731ZM342.36 143.613H347.359C348.486 143.613 349.345 143.7 349.936 143.873C350.731 144.108 351.411 144.525 351.978 145.124C352.545 145.723 352.976 146.457 353.272 147.325C353.567 148.193 353.715 149.263 353.715 150.536C353.715 151.654 353.576 152.618 353.299 153.427C352.961 154.415 352.477 155.215 351.849 155.827C351.375 156.29 350.734 156.652 349.927 156.911C349.323 157.103 348.517 157.199 347.506 157.199H342.36V143.613ZM345.095 145.911V154.91H347.137C347.901 154.91 348.452 154.866 348.791 154.78C349.234 154.669 349.602 154.48 349.895 154.215C350.187 153.949 350.426 153.512 350.611 152.903C350.795 152.295 350.888 151.465 350.888 150.415C350.888 149.365 350.795 148.559 350.611 147.996C350.426 147.434 350.167 146.996 349.835 146.681C349.502 146.366 349.08 146.152 348.569 146.041C348.187 145.955 347.439 145.911 346.324 145.911H345.095ZM297.782 173.499H294.807L293.624 170.413H288.21L287.093 173.499H284.191L289.467 159.914H292.359L297.782 173.499ZM292.747 168.124L290.88 163.083L289.051 168.124L292.747 168.124ZM299.159 173.499V159.914H301.893V173.499H299.159ZM304.499 173.499V159.914H310.255C311.702 159.914 312.754 160.036 313.41 160.28C314.066 160.524 314.591 160.958 314.985 161.582C315.379 162.206 315.576 162.919 315.576 163.723C315.576 164.742 315.278 165.584 314.68 166.248C314.083 166.912 313.19 167.33 312.001 167.503C312.592 167.849 313.08 168.229 313.465 168.643C313.85 169.057 314.369 169.792 315.022 170.849L316.676 173.499H313.405L311.428 170.543C310.726 169.487 310.246 168.821 309.987 168.546C309.728 168.271 309.454 168.083 309.165 167.981C308.875 167.879 308.416 167.828 307.788 167.828H307.234V173.499H304.499ZM307.234 165.659H309.257C310.569 165.659 311.388 165.604 311.715 165.493C312.041 165.381 312.297 165.19 312.481 164.918C312.666 164.646 312.758 164.306 312.759 163.899C312.758 163.441 312.637 163.072 312.394 162.791C312.15 162.51 311.807 162.332 311.363 162.258C311.142 162.228 310.476 162.212 309.368 162.212H307.234L307.234 165.659ZM326.83 168.504L329.481 169.348C329.075 170.83 328.399 171.931 327.453 172.651C326.508 173.371 325.308 173.731 323.855 173.731C322.056 173.731 320.578 173.115 319.42 171.882C318.262 170.65 317.683 168.964 317.683 166.827C317.683 164.566 318.265 162.81 319.429 161.559C320.593 160.308 322.124 159.682 324.021 159.682C325.678 159.682 327.023 160.173 328.058 161.156C328.674 161.736 329.136 162.57 329.444 163.658L326.737 164.306C326.577 163.602 326.243 163.046 325.735 162.638C325.226 162.231 324.609 162.027 323.882 162.027C322.878 162.027 322.064 162.388 321.439 163.111C320.813 163.834 320.501 165.005 320.501 166.623C320.501 168.341 320.809 169.564 321.425 170.293C322.041 171.022 322.841 171.386 323.827 171.386C324.554 171.386 325.179 171.155 325.702 170.691C326.226 170.228 326.602 169.499 326.829 168.504H326.83ZM331.846 173.499V159.914H337.602C339.05 159.914 340.101 160.036 340.757 160.28C341.413 160.524 341.938 160.958 342.333 161.582C342.727 162.206 342.924 162.919 342.924 163.723C342.924 164.742 342.625 165.584 342.028 166.248C341.43 166.912 340.537 167.33 339.348 167.503C339.94 167.849 340.428 168.229 340.813 168.643C341.198 169.057 341.717 169.792 342.37 170.849L344.023 173.499H340.753L338.775 170.543C338.073 169.487 337.593 168.821 337.334 168.546C337.076 168.271 336.801 168.083 336.512 167.981C336.222 167.879 335.764 167.828 335.135 167.828H334.581V173.499H331.846ZM334.581 165.659H336.604C337.916 165.659 338.735 165.604 339.062 165.493C339.388 165.381 339.644 165.19 339.829 164.918C340.014 164.646 340.106 164.306 340.106 163.899C340.106 163.441 339.984 163.072 339.741 162.791C339.498 162.51 339.154 162.332 338.711 162.258C338.489 162.228 337.824 162.212 336.715 162.212H334.581L334.581 165.659ZM357.725 173.499H354.75L353.567 170.413H348.153L347.035 173.499H344.134L349.41 159.914H352.302L357.725 173.499ZM352.69 168.124L350.823 163.083L348.994 168.124L352.69 168.124ZM359.203 173.499V159.914H368.488V162.212H361.938V165.428H367.592V167.726H361.938V173.499L359.203 173.499ZM373.801 173.499V162.212H369.782V159.914H380.545V162.212H376.535V173.499H373.801ZM294.234 184.805L296.886 185.648C296.479 187.131 295.803 188.232 294.858 188.952C293.912 189.672 292.713 190.031 291.259 190.031C289.461 190.031 287.982 189.415 286.825 188.183C285.667 186.95 285.088 185.265 285.088 183.128C285.088 180.866 285.67 179.11 286.834 177.859C287.998 176.608 289.529 175.983 291.426 175.983C293.082 175.983 294.428 176.474 295.463 177.456C296.079 178.037 296.541 178.871 296.849 179.958L294.142 180.607C293.982 179.903 293.648 179.347 293.139 178.939C292.631 178.531 292.014 178.327 291.287 178.327C290.283 178.327 289.469 178.689 288.843 179.412C288.218 180.134 287.906 181.305 287.906 182.924C287.906 184.641 288.213 185.864 288.829 186.593C289.445 187.322 290.246 187.687 291.232 187.687C291.958 187.687 292.584 187.455 293.107 186.992C293.631 186.529 294.006 185.799 294.234 184.805ZM298.687 183.09C298.687 181.707 298.894 180.545 299.306 179.606C299.614 178.914 300.035 178.293 300.568 177.744C301.1 177.194 301.684 176.786 302.318 176.52C303.162 176.162 304.135 175.983 305.238 175.983C307.234 175.983 308.83 176.604 310.028 177.845C311.226 179.087 311.825 180.814 311.825 183.026C311.825 185.219 311.231 186.935 310.042 188.173C308.853 189.412 307.264 190.031 305.275 190.031C303.261 190.031 301.659 189.415 300.471 188.183C299.282 186.95 298.687 185.253 298.687 183.09ZM301.505 182.998C301.505 184.536 301.86 185.702 302.568 186.496C303.276 187.29 304.175 187.687 305.266 187.687C306.356 187.687 307.251 187.293 307.95 186.505C308.649 185.718 308.998 184.536 308.998 182.961C308.998 181.404 308.658 180.242 307.977 179.476C307.297 178.71 306.393 178.327 305.266 178.327C304.139 178.327 303.23 178.715 302.54 179.49C301.85 180.266 301.505 181.435 301.505 182.998ZM313.959 189.8V176.214H319.715C321.163 176.214 322.215 176.337 322.871 176.581C323.527 176.825 324.052 177.259 324.446 177.882C324.84 178.506 325.037 179.22 325.037 180.023C325.037 181.043 324.738 181.884 324.141 182.548C323.543 183.213 322.65 183.631 321.462 183.804C322.053 184.15 322.541 184.53 322.926 184.944C323.311 185.358 323.83 186.093 324.483 187.149L326.137 189.8H322.866L320.889 186.844C320.187 185.787 319.706 185.121 319.447 184.847C319.189 184.572 318.915 184.383 318.625 184.281C318.336 184.179 317.877 184.128 317.249 184.128H316.694V189.8H313.959ZM316.694 181.96H318.718C320.03 181.96 320.849 181.904 321.175 181.793C321.502 181.682 321.757 181.49 321.942 181.219C322.127 180.947 322.219 180.607 322.219 180.199C322.219 179.742 322.098 179.373 321.854 179.092C321.611 178.811 321.268 178.633 320.824 178.559C320.602 178.528 319.937 178.513 318.829 178.513H316.694V181.96ZM327.624 189.8V176.214H332.013C333.676 176.214 334.76 176.282 335.265 176.418C336.041 176.622 336.691 177.066 337.214 177.748C337.738 178.431 337.999 179.313 337.999 180.394C337.999 181.228 337.849 181.929 337.547 182.497C337.245 183.066 336.862 183.512 336.397 183.836C335.931 184.161 335.459 184.376 334.978 184.48C334.325 184.61 333.38 184.675 332.142 184.675H330.359V189.8H327.624ZM330.359 178.513V182.368H331.855C332.933 182.368 333.654 182.297 334.017 182.155C334.381 182.012 334.666 181.79 334.872 181.487C335.078 181.185 335.182 180.832 335.182 180.431C335.182 179.937 335.037 179.529 334.747 179.208C334.458 178.886 334.091 178.686 333.648 178.605C333.321 178.543 332.666 178.513 331.68 178.513H330.359ZM339.709 183.09C339.709 181.707 339.915 180.545 340.328 179.606C340.636 178.914 341.056 178.293 341.589 177.744C342.122 177.194 342.705 176.786 343.34 176.52C344.183 176.162 345.157 175.983 346.259 175.983C348.255 175.983 349.852 176.604 351.05 177.845C352.248 179.087 352.847 180.814 352.847 183.026C352.847 185.219 352.252 186.935 351.063 188.173C349.875 189.412 348.285 190.031 346.296 190.031C344.282 190.031 342.681 189.415 341.492 188.183C340.303 186.95 339.709 185.253 339.709 183.09ZM342.527 182.998C342.527 184.536 342.881 185.702 343.589 186.496C344.297 187.29 345.197 187.687 346.287 187.687C347.377 187.687 348.272 187.293 348.971 186.505C349.67 185.718 350.019 184.536 350.019 182.961C350.019 181.404 349.679 180.242 348.999 179.476C348.318 178.71 347.414 178.327 346.287 178.327C345.16 178.327 344.251 178.715 343.561 179.49C342.872 180.266 342.527 181.435 342.527 182.998ZM354.981 189.8V176.214H360.737C362.184 176.214 363.236 176.337 363.892 176.581C364.548 176.825 365.073 177.259 365.467 177.882C365.861 178.506 366.058 179.22 366.058 180.023C366.058 181.043 365.76 181.884 365.162 182.548C364.565 183.213 363.672 183.631 362.483 183.804C363.074 184.15 363.562 184.53 363.947 184.944C364.332 185.358 364.851 186.093 365.504 187.149L367.158 189.8H363.887L361.91 186.844C361.208 185.787 360.727 185.121 360.469 184.847C360.21 184.572 359.936 184.383 359.646 184.281C359.357 184.179 358.898 184.128 358.27 184.128H357.716V189.8H354.981ZM357.716 181.96H359.739C361.051 181.96 361.87 181.904 362.196 181.793C362.523 181.682 362.779 181.49 362.963 181.219C363.148 180.947 363.24 180.607 363.24 180.199C363.24 179.742 363.119 179.373 362.876 179.092C362.632 178.811 362.289 178.633 361.845 178.559C361.624 178.528 360.958 178.513 359.85 178.513H357.716V181.96ZM380.859 189.8H377.884L376.702 186.714H371.288L370.17 189.8H367.269L372.544 176.214H375.436L380.859 189.8ZM375.824 184.425L373.958 179.384L372.128 184.425L375.824 184.425ZM385.368 189.8V178.513H381.349V176.214H392.112V178.513H388.103V189.8H385.368ZM393.803 189.8V176.214H396.538V189.8H393.803ZM398.58 183.09C398.58 181.707 398.786 180.545 399.199 179.606C399.507 178.914 399.927 178.293 400.46 177.744C400.993 177.194 401.576 176.786 402.211 176.52C403.055 176.162 404.028 175.983 405.13 175.983C407.126 175.983 408.723 176.604 409.921 177.845C411.119 179.087 411.718 180.814 411.718 183.026C411.718 185.219 411.123 186.935 409.935 188.173C408.746 189.412 407.157 190.031 405.167 190.031C403.153 190.031 401.552 189.415 400.363 188.183C399.174 186.95 398.58 185.253 398.58 183.09ZM401.398 182.998C401.398 184.536 401.752 185.702 402.46 186.496C403.168 187.29 404.068 187.687 405.158 187.687C406.248 187.687 407.143 187.293 407.842 186.505C408.541 185.718 408.89 184.536 408.89 182.961C408.89 181.404 408.55 180.242 407.869 179.476C407.189 178.71 406.285 178.327 405.158 178.327C404.031 178.327 403.122 178.715 402.432 179.49C401.743 180.266 401.398 181.435 401.398 182.998ZM413.87 189.8V176.214H416.531L422.075 185.287V176.214H424.615V189.8H421.871L416.411 180.941V189.8H413.87Z" fill="#6A747C"/>
<path d="M278.195 143.18V190.462" stroke="#6A747C" stroke-width="7.45756"/>
<path d="M78.1199 191.956C98.9941 191.956 107.89 188.898 117.058 173.159C119.092 169.851 120.902 167.537 122.672 163.76L133.7 140.227C136.354 134.562 137.687 131.129 137.698 129.926C134.636 129.574 131.746 129.398 129.028 129.398C126.777 129.398 123.425 129.574 118.971 129.926L117.783 130.828L109.841 147.37L104.802 158.122C101.401 165.289 98.1945 170.138 95.1821 172.67C92.1696 175.202 88.9223 176.467 85.4399 176.467C82.5096 176.467 80.4251 175.615 79.1863 173.911C77.742 172.007 77.7952 169.4 79.3456 166.091L95.6237 131.353C96.2108 130.1 95.9736 129.474 94.9122 129.474H77.7757C77.4789 129.474 76.7366 129.925 75.5492 130.828C73.8345 134.487 71.199 139.976 67.6427 147.294C64.0864 154.612 61.451 160.101 59.7362 163.76C55.9781 171.78 54.6532 177.983 55.7614 182.369C56.8698 186.755 60.5111 189.475 66.6852 190.529C72.3538 191.48 76.1654 191.956 78.1199 191.956V191.956Z" fill="#6A747C"/>
<path d="M193.898 161.053C189.007 171.128 188.458 178.734 192.25 183.871C196.043 189.009 203.863 191.578 215.712 191.578C223.95 191.578 231.809 190.125 239.286 187.218C249.508 183.258 256.557 177.142 260.433 168.871C260.479 168.771 260.669 168.321 261.002 167.519L260.385 167.067H239.684L238.708 167.519C235.076 170.375 232.409 172.305 230.707 173.308C228.091 174.812 225.445 175.564 222.77 175.564C216.697 175.564 214.188 172.355 215.242 165.938C216.761 160.1 218.772 156.056 222.079 152.028C226.447 146.967 231.582 144.436 237.485 144.436C241.222 144.436 243.588 145.413 244.583 147.368C244.64 147.518 244.748 148.42 244.908 150.073C245.019 151.377 245.372 152.028 245.967 152.028L267.759 151.879L268.09 151.579L268.76 150.149C269.77 147.994 270.296 145.4 270.337 142.367C270.377 139.334 269.924 137.242 268.978 136.09C264.57 130.725 256.484 128.043 244.72 128.043C227.351 128.043 213.354 134.485 202.731 147.368C200.284 150.325 197.889 153.758 195.548 157.668L193.898 161.053Z" fill="#143D8D"/>
<path d="M177.7 129.466C168.689 144.35 164.841 166.336 167.505 190.252L185.811 190.68L182.739 129.543L178.321 129.466C178.117 129.463 177.905 129.467 177.7 129.466V129.466Z" fill="#143D8D"/>
<path d="M174.163 129.504C170.789 129.562 167.299 129.726 163.714 130.009C163.098 130.478 162.489 130.957 161.889 131.446L140.953 155.877C156.514 151.894 168.874 142.05 174.163 129.504Z" fill="#FC352B"/>
<path d="M137.699 160.133L115.202 185.94C114.082 187.243 113.355 188.23 113.027 188.931L112.949 189.164C112.982 189.364 113.05 189.683 113.221 190.135C122.291 190.535 127.715 190.756 129.457 190.756C131.07 190.756 132.372 190.409 133.38 189.707C135.432 187.05 136.964 184.448 137.963 183.948L164.292 184.177C163.807 175.868 149.933 162.449 137.699 160.133Z" fill="#6A747C"/>
</svg>
