<svg width="480" height="320" viewBox="0 0 480 320" fill="none" xmlns="http://www.w3.org/2000/svg">
<mask id="mask0_730_18526" style="mask-type:luminance" maskUnits="userSpaceOnUse" x="13" y="36" width="457" height="250">
<path d="M13.9766 36.6654H469.457V285.109H13.9766V36.6654Z" fill="white"/>
</mask>
<g mask="url(#mask0_730_18526)">
<path d="M271.1 143.041H217.077V84.7992H193.043V163.179H271.1V143.041ZM350.377 143.023L353.791 149.321L361.262 163.179H387.998L365.375 122.02C361.672 134.971 363.747 143.023 363.747 143.023H350.377ZM328.836 103.225L338.479 121.035C340.002 119.825 341.589 118.555 343.25 117.217C348.035 113.37 352.512 109.639 356.629 106.115L344.911 84.7992H313.625L271.188 163.179H298.033L328.836 103.225ZM118.611 164.039H153.043C175.127 164.039 185.198 154.736 185.198 135.247V84.7992H161.159V130.053C161.159 140.009 157.589 143.906 147.738 143.906H123.92C114.07 143.906 110.495 140.009 110.495 130.053V84.7992H86.4648V135.247C86.4648 154.736 96.5314 164.039 118.611 164.039Z" fill="#254893"/>
<path d="M378.022 83.5105C378.501 83.3311 379.016 83.2207 379.559 83.2207C380.212 83.2207 380.82 83.3817 381.376 83.6301C375.579 89.2661 361.644 102.424 343.25 117.221C317.062 138.288 308.684 143.031 308.684 143.031H330.749C330.749 143.031 340.517 129.836 357.544 112.003C364.05 105.185 369.157 99.4845 373.118 94.8653C369.966 99.2361 366.254 104.688 362.104 111.299C352.741 126.224 345.605 143.031 345.605 143.031H363.742C363.742 143.031 361.105 132.868 367.017 116.986C373.928 98.4172 376.113 95.0862 382.338 84.2191C383.071 84.8185 383.592 85.6379 383.824 86.5563L386.378 78.0723" fill="#FBC018"/>
<path d="M61.8557 211.146V232.199C61.8557 235.204 62.5734 237.44 65.4075 237.44C68.2416 237.44 68.9594 235.204 68.9594 232.199V211.146H75.0462V232.199C75.0462 239.892 70.358 241.921 65.4075 241.921C60.4617 241.921 55.7734 240.278 55.7734 232.199V211.146M78.0929 218.591H83.6737V221.25H83.7565C84.9849 219.01 87.0967 217.993 89.5489 217.993C93.1836 217.993 95.3414 219.981 95.3414 224.462V241.328H89.5029V225.649C89.5029 223.367 88.7438 222.474 87.0139 222.474C85.0263 222.474 83.9267 223.707 83.9267 226.242V241.328H78.0929M98.8081 218.591H104.647V241.333H98.8081V218.591ZM98.8081 210.811H104.647V215.803H98.8081V210.811ZM109.378 212.076H115.216V218.587H118.593V222.562H115.216V234.86C115.216 236.64 115.594 237.358 117.282 237.358C117.747 237.358 118.212 237.316 118.593 237.275V241.328C117.328 241.457 116.141 241.581 114.789 241.581C110.229 241.581 109.378 240.187 109.378 235.582V222.562H106.42V218.587H109.378M130.94 227.384C130.815 223.919 130.392 221.978 127.977 221.978C125.653 221.978 124.977 224.384 124.977 226.496V227.384H130.94ZM124.977 230.853V232.665C124.977 235.329 125.695 237.956 127.853 237.956C129.799 237.956 130.604 236.475 130.94 233.687H136.18C135.968 238.969 133.433 241.927 127.94 241.927C119.484 241.927 119.143 235.417 119.143 229.749C119.143 223.666 120.326 217.998 128.188 217.998C134.998 217.998 136.52 222.567 136.52 229.542V230.853M147.258 237.439C149.835 237.439 150.341 234.904 150.341 229.958C150.341 225.017 149.835 222.473 147.258 222.473C144.719 222.473 144.213 225.017 144.213 229.958C144.213 234.904 144.719 237.439 147.258 237.439ZM150.599 238.925H150.511C149.241 241.033 147.636 241.925 145.354 241.925C140.578 241.925 138.374 238.415 138.374 229.958C138.374 221.502 140.578 217.992 145.354 217.992C147.548 217.992 149.034 218.889 150.253 220.697H150.341V211.146H156.175V241.332H150.599M169.108 241.335V211.149H175.199V236.352H185.974V241.335M198.492 229.958C197.686 230.552 196.716 230.934 195.998 231.104C193.629 231.61 192.699 232.751 192.699 234.78C192.699 236.519 193.334 237.95 194.898 237.95C196.467 237.95 198.492 236.942 198.492 234.444V229.958ZM187.841 225.565V225.017C187.841 219.772 191.429 217.996 195.823 217.996C202.761 217.996 204.072 220.872 204.072 224.971V236.942C204.072 239.054 204.197 240.025 204.79 241.336H199.209C198.827 240.614 198.657 239.726 198.492 238.962H198.404C197.052 241.336 195.404 241.93 192.616 241.93C188.554 241.93 187.118 238.461 187.118 235.42C187.118 231.15 188.853 229.411 192.869 228.316L196.164 227.428C197.898 226.963 198.492 226.282 198.492 224.764C198.492 223.025 197.728 221.976 195.786 221.976C194.01 221.976 193.081 223.154 193.081 224.93V225.565M219.249 238.67H219.157C217.942 240.906 215.821 241.927 213.369 241.927C209.739 241.927 207.577 239.935 207.577 235.459V218.592H213.406V234.276C213.406 236.554 214.17 237.437 215.904 237.437C217.887 237.437 218.996 236.218 218.996 233.683V218.592H224.825V241.334H219.249M228.082 218.591H233.668V221.25H233.746C234.974 219.01 237.086 217.993 239.543 217.993C243.173 217.993 245.331 219.981 245.331 224.462V241.328H239.497V225.649C239.497 223.367 238.733 222.474 236.999 222.474C235.02 222.474 233.921 223.707 233.921 226.242V241.328H228.082M259.538 226.791C259.538 224.587 259.11 222.227 256.915 222.227C254.044 222.227 253.575 224.762 253.575 230.007C253.575 235.624 254.081 237.952 256.703 237.952C258.65 237.952 259.538 236.296 259.538 232.625H265.118C265.118 238.583 262.625 241.927 256.446 241.927C250.621 241.927 247.746 239.093 247.746 229.956C247.746 220.621 251.587 217.999 256.952 217.999C262.321 217.999 265.118 221.422 265.118 226.791M267.522 211.146H273.36V220.909H273.443C274.538 218.967 276.526 217.992 278.978 217.992C282.617 217.992 284.77 219.98 284.77 224.465V241.332H278.936V225.648C278.936 223.361 278.173 222.473 276.443 222.473C274.455 222.473 273.36 223.702 273.36 226.241V241.332H267.522M304.387 229.958H310.303L307.386 216.395H307.308L304.387 229.958ZM303.582 211.146H311.113L319.1 241.336H312.756L311.366 234.95H303.333L301.939 241.336H295.599M320.618 241.333H326.456V211.147H320.618V241.333ZM330.137 241.333H335.971V211.147H330.137V241.333ZM339.642 218.591H345.481V241.333H339.642V218.591ZM339.642 210.811H345.481V215.803H339.642V210.811ZM359.551 229.958C358.746 230.552 357.775 230.934 357.058 231.104C354.688 231.61 353.759 232.751 353.759 234.78C353.759 236.519 354.394 237.95 355.958 237.95C357.527 237.95 359.551 236.942 359.551 234.444V229.958ZM348.905 225.565V225.017C348.905 219.772 352.489 217.996 356.888 217.996C363.821 217.996 365.132 220.872 365.132 224.971V236.942C365.132 239.054 365.261 240.025 365.85 241.336H360.269C359.892 240.614 359.717 239.726 359.551 238.962H359.464C358.111 241.336 356.464 241.93 353.681 241.93C349.618 241.93 348.178 238.461 348.178 235.42C348.178 231.15 349.913 229.411 353.929 228.316L357.228 227.428C358.958 226.963 359.551 226.282 359.551 224.764C359.551 223.025 358.792 221.976 356.846 221.976C355.07 221.976 354.136 223.154 354.136 224.93V225.565M368.645 218.591H374.226V221.25H374.309C375.537 219.01 377.649 217.993 380.097 217.993C383.736 217.993 385.894 219.981 385.894 224.462V241.328H380.055V225.649C380.055 223.367 379.292 222.474 377.562 222.474C375.579 222.474 374.479 223.707 374.479 226.242V241.328H368.645M400.096 226.791C400.096 224.587 399.673 222.227 397.474 222.227C394.598 222.227 394.133 224.762 394.133 230.007C394.133 235.624 394.639 237.952 397.262 237.952C399.208 237.952 400.096 236.296 400.096 232.625H405.677C405.677 238.583 403.183 241.927 397.009 241.927C391.175 241.927 388.3 239.093 388.3 229.956C388.3 220.621 392.141 217.999 397.51 217.999C402.88 217.999 405.677 221.422 405.677 226.791M419.03 227.384C418.915 223.919 418.482 221.978 416.071 221.978C413.748 221.978 413.067 224.384 413.067 226.496V227.384H419.03ZM413.067 230.853V232.665C413.067 235.329 413.794 237.956 415.943 237.956C417.889 237.956 418.699 236.475 419.03 233.687H424.275C424.068 238.969 421.528 241.927 416.03 241.927C407.578 241.927 407.238 235.417 407.238 229.749C407.238 223.666 408.42 217.998 416.279 217.998C423.097 217.998 424.615 222.567 424.615 229.542V230.853" fill="#11100E"/>
<path d="M236.6 185.982C307.935 185.982 372.926 193.987 421.828 207.113C384.497 184.256 316.033 168.936 237.731 168.936C160.64 168.936 93.0773 183.783 55.3828 206.064C103.802 193.559 167.196 185.982 236.6 185.982Z" fill="#5B90D3"/>
<path d="M407.662 92.4775C408.9 92.4775 409.981 92.4177 409.981 91.0788C409.981 89.9102 408.997 89.763 408.053 89.763H406.208V92.4775H407.662ZM404.851 88.5392H408.306C410.271 88.5392 411.338 89.3765 411.338 91.1432C411.338 92.7213 410.289 93.4621 408.937 93.6047L411.481 97.4464H410.128L407.662 93.7151H406.208V97.4464H404.851V88.5392ZM414.154 92.956C414.154 89.4179 411.366 86.5608 407.888 86.5608C404.419 86.5608 401.621 89.4179 401.621 92.956C401.621 96.4802 404.419 99.3373 407.888 99.3373C411.366 99.3373 414.154 96.4802 414.154 92.956ZM407.888 85.3278C412.098 85.3278 415.507 88.737 415.507 92.956C415.507 97.1657 412.098 100.57 407.888 100.57C403.678 100.57 400.273 97.1657 400.273 92.956C400.273 88.737 403.678 85.3278 407.888 85.3278Z" fill="#254893"/>
</g>
</svg>
