<svg width="480" height="320" viewBox="0 0 480 320" fill="none" xmlns="http://www.w3.org/2000/svg">
<path d="M55.3828 134.902H424.614V185.099H55.3828V134.902Z" fill="#0E2E62"/>
<path d="M83.2253 155.097H112.269V152.605H83.2253V155.097ZM83.2253 147.363V150.027H112.269V147.363H83.2253ZM72.8281 160.338H112.269V157.761H72.8281V160.338ZM72.8281 165.494H112.269V162.916H72.8281V165.494ZM72.8281 170.65H112.269V168.072H72.8281V170.65ZM80.6473 147.363H72.8281V155.097H80.6473V147.363Z" fill="#D9DADB"/>
<path d="M160.943 156.73L164.48 156.678C164.48 156.678 164.586 160.217 164.428 160.217H160.943V156.73ZM128.68 147.491H140.77L140.717 148.758H138.924C138.924 148.758 137.129 148.758 137.129 150.025V165.232C137.129 165.232 136.969 170.037 142.991 169.985C142.991 169.985 149.116 170.828 149.327 164.652V150.132C149.327 150.132 149.229 149.236 148.376 148.809C148.061 148.652 145.949 148.708 145.949 148.708L145.988 147.48L158.355 147.494L158.251 148.549L156.136 148.708C156.136 148.708 154.788 148.956 154.711 150.081C154.635 151.205 154.818 164.866 154.818 164.866C154.818 164.866 154.341 167.821 151.913 169.248C151.913 169.248 149.324 171.308 142.829 171.255C142.829 171.255 139.292 171.412 134.961 169.723C134.961 169.723 132.162 168.456 131.74 165.869L131.636 150.345C131.636 150.345 131.687 148.919 130.842 148.919L128.465 148.812L128.569 147.444L128.68 147.491ZM357.453 147.491L369.533 147.571L369.561 148.681H367.673C367.673 148.681 365.495 149.037 366.524 150.54L372.069 159.766L378.446 150.262C378.446 150.262 379.42 148.812 378.153 148.852C376.884 148.891 375.117 148.757 375.117 148.757L375.076 147.568H384.783L384.703 148.677C384.703 148.677 381.971 148.48 381.098 149.708L373.772 161.113V168.518C373.772 168.518 373.971 169.391 375.118 169.428L377.257 169.391L377.297 170.577H364.664V169.391H366.445C366.445 169.391 367.515 169.35 367.714 168.12L367.752 161.034L360.664 150.261C360.664 150.261 360.108 148.876 359.04 148.758L357.456 148.719V147.491H357.453ZM287.514 147.491L298.365 147.61L298.321 149.025L296.899 148.995C296.899 148.995 295.632 148.835 295.871 149.669L300.86 165.59L307 148.126L310.482 148.087L316.699 165.475L321.968 150.938C321.968 150.938 322.877 148.997 321.374 148.959L318.647 148.855L318.523 147.534H327.552L327.591 148.838C327.591 148.838 325.252 148.405 324.502 150.146L317.296 170.62L313.096 170.701L307.195 153.593L301.411 170.701L297.176 170.62L290.443 151.018C290.443 151.018 290.126 149.076 288.701 148.919L287.434 148.801L287.514 147.491ZM265.574 149.354V158.461H270.443C273.651 157.947 273.85 153.708 273.85 153.708C273.651 149.866 270.246 149.354 270.246 149.354H265.574V149.354ZM256.546 147.531L271.397 147.491C271.397 147.491 279.79 147.767 279.634 153.511C279.634 153.511 279.278 158.262 274.487 159.372C274.487 159.372 279.676 165.313 284.149 168.363C284.149 168.363 286.01 169.392 287.991 169.431L288.07 170.503L282.406 170.737C282.406 170.737 278.881 170.936 275.555 167.49L268.742 160.363L265.574 160.283L265.533 168.363C265.533 168.363 265.493 169.352 266.603 169.431L268.543 169.394L268.583 170.661L256.624 170.621L256.584 169.396H258.326C258.326 169.396 259.394 169.197 259.474 167.89C259.474 167.89 259.484 150.859 259.436 150.115C259.321 148.398 256.63 148.969 256.63 148.969L256.546 147.531ZM235.897 147.421C236.178 147.421 248.439 147.435 248.439 147.435L248.344 148.739H246.95C246.95 148.739 244.9 148.599 244.861 149.907V168.043C244.861 168.043 245.137 169.35 246.524 169.431H248.506L248.555 170.726L235.792 170.695V169.428L238.09 169.391C238.09 169.391 239.397 169.152 239.436 167.369L239.397 150.696C239.397 150.696 239.358 149.073 238.05 148.953L235.956 148.736L235.897 147.421ZM337.435 160.706L340.871 151.903L344.22 160.659L337.435 160.706ZM328.298 170.53L337.836 170.499V169.297L335.469 169.319C335.469 169.319 333.792 169.411 334.634 167.173L336.773 162.148H345.065L347.761 167.828C347.761 167.828 348.043 169.133 346.83 169.319L344.652 169.297L344.596 170.529L356.049 170.499L356.052 169.317L354.653 169.222C354.653 169.222 353.721 169.128 352.888 167.173L344.596 147.526H340.311L331.745 167.828C331.745 167.828 330.811 169.319 329.882 169.319H328.298V170.53H328.298ZM212.188 160.706L215.566 151.903L218.916 160.659L212.188 160.706ZM202.993 170.53L212.533 170.499V169.297L210.165 169.319C210.165 169.319 208.49 169.411 209.327 167.173L211.47 162.148H219.758L222.458 167.828C222.458 167.828 222.736 169.133 221.525 169.319L219.386 169.411L219.291 170.53L230.801 170.499L230.746 169.319L229.348 169.226C229.348 169.226 228.416 169.129 227.578 167.173L219.291 147.528H215.007L206.439 167.832C206.439 167.832 205.507 169.321 204.577 169.321H202.993V170.53ZM387.744 163.36H389.418C389.418 163.36 391.467 170.251 398.545 169.785C398.545 169.785 403.015 169.04 402.458 165.313C402.458 165.313 402.644 163.17 399.105 161.962C399.105 161.962 390.163 159.167 388.393 155.444C388.393 155.444 386.685 150.227 393.237 147.806C393.237 147.806 399.011 145.477 405.902 148.643L406.088 154.043H404.694C404.694 154.043 403.482 148.363 398.268 148.55C398.268 148.55 392.958 148.921 393.517 152.647C393.517 152.647 393.332 155.254 400.223 157.023C400.223 157.023 408.141 159.354 407.861 164.566C407.861 164.566 408.695 170.62 397.617 171.363C397.617 171.363 391.747 171.178 388.396 169.223L387.744 163.36ZM168.817 163.36H170.493C170.493 163.36 172.542 170.251 179.618 169.785C179.618 169.785 184.089 169.04 183.529 165.313C183.529 165.313 183.716 163.17 180.176 161.962C180.176 161.962 171.235 159.167 169.466 155.444C169.466 155.444 168.534 149.95 174.309 147.806C174.309 147.806 180.084 145.477 186.975 148.643L187.161 154.043H185.765C185.765 154.043 184.554 148.363 179.34 148.55C179.34 148.55 174.031 148.921 174.589 152.647C174.589 152.647 174.406 155.254 181.294 157.023C181.294 157.023 189.209 159.354 188.93 164.566C188.93 164.566 189.768 170.62 178.687 171.363C178.687 171.363 172.819 171.178 169.466 169.223L168.817 163.36Z" fill="white"/>
</svg>
