<svg width="480" height="320" viewBox="0 0 480 320" fill="none" xmlns="http://www.w3.org/2000/svg">
<path d="M64.5994 127.633L63.2347 132.216H122.707L124.234 127.633L64.5994 127.633ZM62.0924 136.023L60.7288 140.604H119.991L121.476 136.022L62.0924 136.023ZM59.3783 145.248L58.0152 149.83H135.57L136.663 145.248H59.3783ZM56.7475 154.086L55.3828 158.669H133.441L134.532 154.086H56.7475ZM72.4857 163.129L71.1217 167.712H131.308L132.398 163.129H72.4857ZM70.0081 171.906L68.6401 176.488H422.583L423.675 171.906H70.0081Z" fill="#BF1F48"/>
<path d="M297.586 127.18C294.042 127.18 290.683 128.315 288.155 130.296C286.596 131.483 285.218 133.353 285.031 134.428C284.971 134.768 285.159 134.993 285.537 134.993C285.989 134.993 286.254 134.767 286.643 134.257C288.526 131.652 291.654 130.125 295.044 130.125C299.04 130.125 301.448 132.331 300.899 135.504C300.315 138.901 297.72 141.277 291.854 143.828C288.841 145.129 288.841 145.128 288.752 145.639C288.703 145.922 288.965 146.15 289.342 146.15C289.644 146.15 289.719 146.15 291.683 145.696C293.172 145.357 294.331 145.185 295.235 145.185C299.606 145.185 302.407 148.186 301.703 152.264C301.176 155.323 299.217 158.379 296.424 160.589C292.961 163.192 287.599 165.005 283.076 165.005C281.117 165.005 278.32 164.611 276.459 164.043C274.877 163.59 274.877 163.589 274.503 163.59C273.976 163.59 273.634 163.817 273.566 164.212C273.381 165.287 278.8 166.647 283.547 166.647C295.681 166.647 306.781 159.966 308.187 151.813C308.734 148.64 307.734 146.15 305.291 144.564C304.074 143.772 301.711 143.037 300.006 142.866C298.897 142.753 298.4 142.582 298.439 142.355C298.448 142.298 298.617 142.184 298.951 142.016C299.365 141.79 302.174 139.92 302.607 139.581C304.946 137.825 306.238 136.014 306.57 134.087C307.255 130.125 303.466 127.18 297.586 127.18ZM333.311 127.18C328.638 127.18 324.598 128.766 320.468 132.164C316.075 135.788 313.016 141.276 311.983 147.28C311.142 152.151 311.874 156.227 314.263 159.851C317.064 164.155 321.611 166.646 326.658 166.646C335.854 166.646 345.946 157.08 347.75 146.603C349.536 136.24 342.809 127.18 333.311 127.18ZM371.6 127.18C366.927 127.18 362.885 128.766 358.756 132.164C354.364 135.788 351.305 141.276 350.27 147.28C349.431 152.151 350.161 156.227 352.552 159.851C355.351 164.155 359.897 166.646 364.945 166.646C374.144 166.646 384.236 157.08 386.043 146.603C387.825 136.24 381.096 127.18 371.6 127.18ZM409.886 127.18C405.213 127.18 401.175 128.766 397.047 132.164C392.652 135.788 389.595 141.276 388.559 147.28C387.721 152.151 388.452 156.227 390.841 159.851C393.637 164.155 398.186 166.646 403.235 166.646C412.429 166.646 422.524 157.08 424.327 146.603C426.112 136.24 419.384 127.18 409.886 127.18H409.886ZM248.741 127.544C248.494 127.544 248.483 127.599 247.811 128.519L223.181 162.22C221.413 164.526 220.114 165.504 218.433 165.849C217.913 165.967 217.546 166.196 217.469 166.484C217.394 166.771 217.7 167.002 218.19 167.002L219.371 166.947C221.912 166.6 222.154 166.601 222.891 166.601C223.381 166.601 223.979 166.657 224.7 166.714C226.583 167.003 226.646 167.004 227.504 167.004C228.301 167.004 228.727 166.773 228.834 166.37C228.908 166.082 228.71 165.909 228.233 165.851C225.92 165.334 225.409 164.702 225.908 162.798C226.211 161.644 226.925 160.322 228.113 158.592L231.417 153.926C232.653 152.257 232.97 151.968 233.705 151.968L235.315 151.911H244.626C247.627 151.911 247.949 152.083 248.204 153.925L249.619 163.258C249.684 163.949 249.717 164.529 249.642 164.818C249.445 165.565 248.77 165.795 246.921 165.852C246.367 165.852 246.078 166.026 245.987 166.371C245.864 166.831 246.188 167.006 246.921 167.006C247.414 167.006 247.901 167.004 248.286 166.948C251.316 166.602 251.317 166.603 252.42 166.603C253.705 166.603 255.514 166.716 257.611 166.89C258.394 166.949 258.807 167.006 258.993 167.006C259.48 167.006 259.771 166.83 259.846 166.542C259.937 166.198 259.752 165.969 259.107 165.852C256.317 165.045 255.794 164.239 254.965 159.919L249.285 128.982C249.174 128.694 249.142 128.348 249.097 128.062C249.064 127.716 248.988 127.544 248.741 127.544ZM208.236 127.867C203.328 127.867 199.763 128.547 196.185 130.256C192.223 132.136 189.644 134.869 188.824 138C187.724 142.212 190.687 145.116 198.163 147.278L205.413 149.326C212.255 151.318 214.745 153.768 213.762 157.527C212.555 162.139 206.229 165.61 198.95 165.61C194.546 165.61 189.857 164.129 187.461 161.968C186.234 160.827 185.189 159.006 184.888 157.241C184.698 156.672 184.506 156.443 183.997 156.443C183.488 156.443 183.091 156.673 183.002 157.016C182.913 157.356 182.863 157.866 182.897 158.379C182.971 159.064 183.002 160.886 182.852 161.453C182.511 163.732 182.511 163.732 182.537 163.96C182.53 164.301 182.811 164.532 183.891 164.93C187.342 166.294 193.169 167.32 197.487 167.32C208.322 167.32 218.187 161.968 219.989 155.079C220.556 152.915 220.255 151.15 218.98 149.558C217.496 147.791 215.564 146.766 210.365 145.287L203.198 143.238C196.342 141.304 193.535 139.082 194.283 136.236C195.251 132.535 200.853 129.575 206.947 129.575C213.716 129.575 218.644 132.419 220.293 137.43C220.43 137.884 220.569 138 220.991 138C221.413 138 221.714 137.828 221.788 137.543C221.846 137.314 221.848 136.347 221.773 135.665C221.466 132.305 221.459 131.679 221.788 130.427C221.855 130.151 221.954 129.883 222.082 129.629L222.276 128.89C222.395 128.433 222.217 128.151 221.706 128.151C221.282 128.151 221.085 128.265 220.798 128.719C220.311 129.288 219.812 129.575 219.133 129.575C218.543 129.575 217.978 129.46 216.643 129.061C213.244 128.152 211.368 127.867 208.236 127.867ZM147.981 127.911C147.573 127.911 147.235 128.086 147.128 128.493C147.024 128.899 147.182 128.958 148.211 129.248C149.533 129.538 150.311 130.354 150.4 131.574C150.473 132.62 150.102 134.477 148.673 139.941L145.692 151.331C144.428 156.155 144.328 159.875 145.438 162.082C147.129 165.629 151.142 167.428 157.432 167.428C163.604 167.428 168.439 165.859 172.26 162.605C175.552 159.814 177.532 156.272 179.022 150.576L182.658 136.685C184.272 130.524 184.838 129.48 186.998 129.014C187.494 128.898 187.714 128.723 187.805 128.374C187.881 128.085 187.693 127.911 187.402 127.911C187.172 127.911 186.687 127.968 186.206 128.026C185.537 128.143 183.568 128.319 182.929 128.319C182.461 128.319 179.83 128.143 179.104 128.026C178.535 127.968 178.084 127.911 177.795 127.911C177.387 127.911 177.036 128.143 176.944 128.492C176.867 128.782 177.056 128.956 177.547 129.072C182.108 129.885 182.183 131.164 178.287 146.041C175.778 155.631 174.761 157.954 171.906 160.862C168.958 163.882 164.936 165.454 160.336 165.454C155.621 165.454 151.55 163.651 150.342 160.919C149.307 158.653 149.583 154.935 151.363 148.136L153.504 139.941C156.186 129.711 156.201 129.654 158.55 129.131C159.222 129.013 159.573 128.782 159.679 128.374C159.756 128.085 159.569 127.911 159.162 127.911C158.812 127.911 158.272 127.968 157.732 128.026C156.333 128.259 155.153 128.319 153.696 128.319C151.949 128.319 151.268 128.26 148.896 127.97C148.563 127.911 148.214 127.911 147.981 127.911H147.981ZM332.121 128.82C335.442 128.82 337.878 130.407 339.499 133.693C341.686 138.051 342.38 143.657 341.44 149.093C340.73 153.228 339.163 157.079 337.053 159.685C334.568 162.741 330.822 164.777 327.433 164.777C320.273 164.777 316.614 155.832 318.75 143.43C319.337 140.032 320.582 136.749 322.179 134.482C324.584 131.03 328.43 128.82 332.121 128.82ZM370.41 128.82C373.726 128.82 376.167 130.407 377.786 133.693C379.976 138.051 380.666 143.657 379.728 149.093C379.017 153.228 377.447 157.079 375.342 159.685C372.854 162.741 369.113 164.777 365.719 164.777C358.561 164.777 354.903 155.832 357.04 143.43C357.625 140.032 358.872 136.749 360.466 134.482C362.872 131.03 366.718 128.82 370.41 128.82ZM408.701 128.82C412.019 128.82 414.457 130.407 416.078 133.693C418.264 138.051 418.956 143.657 418.014 149.093C417.303 153.228 415.738 157.079 413.632 159.685C411.141 162.741 407.398 164.777 404.007 164.777C396.849 164.777 393.191 155.832 395.331 143.43C395.915 140.032 397.156 136.749 398.755 134.482C401.159 131.03 405.008 128.821 408.701 128.821V128.82ZM245.264 134.973C245.511 134.973 245.556 135.032 245.668 136.242L247.262 147.935C247.321 148.398 247.309 148.915 247.251 149.146C247.143 149.549 247.142 149.549 245.047 149.605V149.607H236.472C235.307 149.607 234.971 149.492 235.062 149.147C235.137 148.859 235.471 148.281 236.035 147.532L244.137 136.242C244.941 135.032 245.022 134.973 245.264 134.973V134.973ZM67.9182 183.399C67.7806 183.399 67.6859 183.479 67.6046 183.654L64.1226 191.319C63.9444 191.75 63.8228 191.899 63.5229 192.06C63.1705 192.247 63.1406 192.272 63.1406 192.407C63.1406 192.515 63.2376 192.583 63.3886 192.583L63.6184 192.568C64.148 192.502 64.2994 192.486 64.5553 192.486L65.0203 192.516L65.7681 192.582C65.9177 192.582 65.9852 192.527 65.9852 192.407C65.9852 192.313 65.9322 192.257 65.7681 192.205C65.1289 191.99 64.9939 191.871 64.9939 191.572C64.9939 191.224 65.1281 190.705 65.3594 190.232C65.6189 189.684 65.6193 189.684 66.4085 189.684V189.686H68.6959C69.1986 189.686 69.2937 189.737 69.4701 190.168C69.7286 190.731 69.8513 191.16 69.8513 191.48C69.8513 191.843 69.729 192.004 69.3485 192.111C68.9528 192.22 68.9114 192.246 68.9114 192.394C68.9114 192.515 68.9924 192.582 69.1565 192.582L69.5373 192.552C69.9262 192.51 70.3171 192.488 70.7084 192.486C71.0608 192.486 71.7967 192.527 72.2323 192.568L72.4493 192.583C72.5858 192.583 72.6537 192.515 72.6537 192.407C72.6537 192.313 72.6116 192.26 72.4773 192.193C72.0969 192.005 71.9604 191.873 71.7967 191.495L68.2181 183.654C68.1349 183.467 68.0566 183.399 67.9182 183.399ZM420.726 183.465C419.124 183.465 417.886 184.643 417.886 186.184C417.886 186.908 418.146 187.552 418.609 187.98C419.042 188.396 419.544 188.639 420.725 189C421.409 189.213 421.695 189.335 421.953 189.552C422.266 189.818 422.455 190.232 422.455 190.675C422.455 191.467 421.804 192.109 420.987 192.109C419.846 192.109 418.864 191.345 418.413 190.112C418.17 189.414 418.169 189.416 417.978 189.416C417.774 189.416 417.682 189.601 417.682 190.018C417.682 190.648 417.75 191.345 417.857 191.776C417.938 192.098 418.115 192.286 418.498 192.407C419.136 192.607 420.062 192.753 420.648 192.753C422.525 192.753 423.967 191.478 423.967 189.831C423.967 189.121 423.679 188.478 423.165 188.062C422.769 187.741 422.225 187.5 421.312 187.245C420.47 187.002 420.183 186.896 419.858 186.682C419.424 186.386 419.217 185.997 419.217 185.449C419.217 184.589 419.765 184.026 420.566 184.026C421.082 184.026 421.627 184.283 422.074 184.711C422.348 184.981 422.704 185.541 422.935 186.063C423.014 186.266 423.081 186.333 423.202 186.333C423.313 186.333 423.395 186.225 423.395 186.063C423.395 185.944 423.395 185.929 423.314 185.435C423.233 184.885 423.202 184.549 423.202 183.933C423.202 183.719 423.163 183.652 423.04 183.652C422.972 183.652 422.935 183.665 422.862 183.76C422.769 183.88 422.659 183.935 422.55 183.935C422.403 183.935 422.402 183.935 421.897 183.72C421.491 183.545 421.134 183.465 420.726 183.465H420.726ZM167.273 183.611C166.991 183.612 166.709 183.625 166.428 183.652C165.503 183.733 165.504 183.732 165.206 183.732L163.627 183.678L163.054 183.638C162.877 183.638 162.795 183.692 162.795 183.827C162.795 183.989 162.891 184.027 163.23 184.054C163.979 184.108 164.197 184.335 164.197 185.06H164.199V191.146C164.199 191.709 163.955 192.03 163.465 192.123C163.097 192.19 163.042 192.22 163.042 192.365C163.042 192.526 163.125 192.582 163.317 192.582L163.738 192.552C164.076 192.526 164.771 192.484 165.056 192.484L166.566 192.552L166.962 192.582C167.151 192.582 167.261 192.514 167.261 192.365C167.261 192.246 167.181 192.178 166.922 192.139C166.145 192.003 165.846 191.668 165.846 190.917V188.971C165.846 188.515 165.901 188.448 166.294 188.448C167.002 188.448 167.383 188.719 167.763 189.483L168.758 191.453C169.18 192.298 169.749 192.677 170.621 192.677C171.288 192.677 172.105 192.258 172.105 191.924C172.105 191.842 172.037 191.789 171.954 191.789L171.696 191.816L171.481 191.842C171.084 191.842 170.619 191.291 169.967 190.005C169.506 189.092 169.301 188.796 168.878 188.448C168.796 188.383 168.758 188.328 168.758 188.302C168.758 188.235 168.836 188.181 169.179 188.046C170.268 187.618 170.73 187.042 170.73 186.115C170.73 184.468 169.534 183.61 167.273 183.61V183.611ZM115.737 183.637C115.562 183.637 115.466 183.707 115.466 183.839C115.466 183.976 115.591 184.027 115.944 184.081C116.72 184.201 116.88 184.414 116.88 185.393H116.879V190.837C116.879 191.734 116.718 191.99 116.062 192.165C115.874 192.22 115.808 192.284 115.808 192.405C115.808 192.513 115.901 192.581 116.051 192.581C116.142 192.583 116.233 192.578 116.323 192.566C116.879 192.5 117.18 192.484 117.629 192.484C118.025 192.484 118.499 192.5 119.071 192.538C119.669 192.58 119.669 192.58 119.794 192.58C120.037 192.58 120.133 192.526 120.133 192.379C120.133 192.205 120.052 192.176 119.547 192.109C118.745 192.002 118.514 191.709 118.514 190.837V185.42C118.514 184.334 118.57 184.215 119.156 184.08C119.575 184 119.628 183.974 119.628 183.837C119.628 183.706 119.521 183.637 119.29 183.637C119.156 183.637 119.021 183.636 118.924 183.651C118.147 183.731 118.148 183.732 117.741 183.732C117.263 183.732 116.775 183.707 116.201 183.665C116.023 183.653 115.834 183.637 115.738 183.637L115.737 183.637ZM218.768 183.637C218.717 183.634 218.666 183.64 218.616 183.652C217.772 183.719 217.529 183.732 216.999 183.732C216.658 183.732 216.317 183.719 215.978 183.692C215.245 183.638 215.245 183.638 215.108 183.638C214.903 183.638 214.806 183.708 214.806 183.853C214.806 184.001 214.875 184.041 215.325 184.096C216.127 184.216 216.262 184.376 216.262 185.234V191.223C216.262 191.91 216.155 192.016 215.367 192.164C215.217 192.19 215.161 192.246 215.161 192.365C215.161 192.514 215.257 192.581 215.501 192.581C215.774 192.581 215.936 192.581 216.085 192.566C217.01 192.484 217.011 192.484 217.311 192.484C217.746 192.484 218.237 192.525 219.188 192.62C219.991 192.7 220.264 192.728 220.646 192.728C221.148 192.728 221.57 192.565 221.897 192.271C222.345 191.84 222.59 191.305 222.59 190.769C222.59 190.393 222.508 190.22 222.332 190.22C222.223 190.22 222.142 190.271 222.046 190.419C221.637 190.971 221.432 191.199 221.148 191.4C220.616 191.789 219.857 191.99 218.932 191.99C218.1 191.99 217.893 191.777 217.893 190.93V185.004C217.893 184.468 218.018 184.306 218.521 184.145C219.01 183.999 219.011 184 219.011 183.851C219.011 183.692 218.944 183.637 218.768 183.637V183.637ZM265.632 183.637C265.457 183.637 265.358 183.707 265.358 183.839C265.358 183.976 265.485 184.027 265.837 184.081C266.614 184.201 266.779 184.414 266.779 185.393H266.778V190.837C266.778 191.734 266.611 191.99 265.956 192.165C265.768 192.22 265.699 192.284 265.699 192.405C265.699 192.513 265.796 192.581 265.945 192.581C266.036 192.583 266.127 192.578 266.217 192.566C266.778 192.5 267.075 192.484 267.523 192.484C267.92 192.484 268.396 192.5 268.968 192.538C269.565 192.58 269.564 192.58 269.689 192.58C269.932 192.58 270.028 192.526 270.028 192.379C270.028 192.205 269.948 192.176 269.444 192.109C268.641 192.002 268.411 191.709 268.411 190.837V185.42C268.411 184.334 268.464 184.215 269.048 184.08C269.47 184 269.524 183.974 269.524 183.837C269.524 183.706 269.419 183.637 269.185 183.637C269.048 183.637 268.912 183.636 268.818 183.651C268.041 183.731 268.042 183.732 267.633 183.732C267.157 183.732 266.668 183.707 266.097 183.665C265.92 183.653 265.729 183.637 265.632 183.637V183.637ZM322.899 183.637C322.817 183.635 322.735 183.64 322.653 183.652C322.163 183.719 321.958 183.732 321.689 183.732C321.437 183.728 321.186 183.715 320.936 183.692C320.49 183.653 320.339 183.638 320.176 183.638C320.014 183.638 319.934 183.692 319.934 183.826C319.934 183.946 319.999 184.013 320.193 184.053C321.238 184.255 321.522 184.669 321.509 185.944L321.484 189.858C321.484 189.966 321.467 189.993 321.442 189.993C321.415 189.993 321.359 189.951 321.28 189.858L315.807 183.935L315.687 183.786C315.575 183.653 315.535 183.638 315.289 183.638H313.332C313.086 183.638 312.992 183.692 312.992 183.826C312.992 183.906 313.06 183.989 313.181 184.013C313.712 184.146 313.863 184.228 314.093 184.512C314.351 184.793 314.488 185.246 314.488 185.77V190.045C314.488 191.173 314.228 191.854 313.74 192.07C313.372 192.231 313.356 192.232 313.356 192.365C313.356 192.501 313.454 192.581 313.604 192.581C313.672 192.583 313.74 192.578 313.807 192.566C314.079 192.526 314.569 192.484 314.786 192.484C314.922 192.484 315.112 192.501 315.371 192.514C315.995 192.566 316.205 192.58 316.392 192.58C316.571 192.58 316.664 192.514 316.664 192.379C316.664 192.232 316.622 192.204 316.186 192.097C315.481 191.91 315.168 191.317 315.168 190.166V186.184C315.168 186.039 315.179 185.997 315.222 185.997C315.25 185.997 315.251 185.996 315.371 186.131L321.28 192.46C321.536 192.729 321.658 192.821 321.809 192.821C322.011 192.821 322.065 192.768 322.079 192.582L322.163 185.77C322.176 184.764 322.394 184.2 322.831 184.067C323.13 183.975 323.144 183.959 323.144 183.839C323.144 183.707 323.049 183.637 322.899 183.637ZM373.374 183.637C373.29 183.637 373.221 183.637 373.168 183.652C372.472 183.719 372.16 183.732 371.369 183.732H368.363C368.132 183.732 367.696 183.707 367.303 183.664C367.165 183.652 367.043 183.638 366.96 183.638C366.8 183.638 366.702 183.72 366.702 183.853C366.702 183.96 366.783 184.026 366.918 184.067C367.912 184.294 368.023 184.428 368.023 185.393V190.826C368.023 191.724 367.86 191.992 367.233 192.178C367.028 192.246 366.976 192.299 366.976 192.393C366.976 192.515 367.07 192.583 367.219 192.583C367.3 192.585 367.382 192.58 367.462 192.567C368.185 192.502 368.444 192.486 368.88 192.486C369.313 192.486 370.458 192.552 371.002 192.606C372.05 192.713 372.202 192.728 372.516 192.728C373.259 192.728 373.79 192.472 374.067 191.99C374.267 191.614 374.433 190.942 374.433 190.433C374.433 190.232 374.347 190.126 374.214 190.126C374.079 190.126 374.069 190.152 373.862 190.489C373.207 191.602 372.472 192.003 371.057 192.003C369.983 192.003 369.656 191.733 369.656 190.824V189.037C369.656 188.328 369.779 188.222 370.633 188.222C371.29 188.222 371.777 188.371 372.026 188.622C372.16 188.785 372.241 188.946 372.339 189.362C372.392 189.551 372.458 189.619 372.581 189.619C372.722 189.619 372.785 189.522 372.785 189.32C372.786 189.231 372.781 189.142 372.771 189.053C372.721 188.316 372.721 188.316 372.721 188.087C372.721 187.887 372.732 187.631 372.746 187.471C372.797 186.788 372.798 186.788 372.798 186.668C372.798 186.452 372.747 186.372 372.61 186.372C372.497 186.372 372.432 186.439 372.379 186.586C372.202 187.069 372.16 187.137 372.051 187.269C371.82 187.592 371.464 187.698 370.72 187.698C369.831 187.698 369.656 187.537 369.656 186.775V185.125C369.656 184.428 369.817 184.242 370.442 184.242C371.195 184.242 371.998 184.295 372.351 184.39C372.797 184.482 373.073 184.778 373.235 185.287C373.373 185.73 373.373 185.742 373.536 185.742C373.682 185.742 373.765 185.636 373.765 185.473L373.753 185.166C373.734 184.966 373.724 184.764 373.723 184.563V184.054C373.711 183.733 373.645 183.637 373.374 183.637ZM166.742 184.175C168.293 184.175 169.042 184.818 169.042 186.159C169.042 187.419 168.388 187.943 166.837 187.943C165.967 187.943 165.844 187.888 165.844 187.472V184.779C165.844 184.308 166.038 184.175 166.742 184.175ZM67.4435 185.916C67.5266 185.916 67.5927 185.996 67.6889 186.184L68.7772 188.585C68.8195 188.678 68.8463 188.777 68.8566 188.879C68.8566 188.972 68.7089 189.027 68.424 189.027H66.3824C66.112 189.027 65.9871 188.972 65.9871 188.852C65.9871 188.785 66.015 188.706 66.0699 188.599L67.2003 186.184C67.2797 186.009 67.3633 185.916 67.4438 185.916H67.4435Z" fill="#233166"/>
</svg>
