<svg width="480" height="320" viewBox="0 0 480 320" fill="none" xmlns="http://www.w3.org/2000/svg">
<path fill-rule="evenodd" clip-rule="evenodd" d="M181.7 133.527L170.344 166.281C168.577 171.97 166.339 172.792 162.093 172.795C157.139 172.799 155.857 170.97 157.765 165.383L167.045 138.212C167.866 135.216 167.964 133.529 164.685 133.529H153.437C150.736 143.314 146.155 154.42 142.807 164.178C139.952 172.5 144.118 181.799 153.632 181.846C157.058 181.864 160.492 181.844 163.919 181.846C170.542 181.85 174.608 181.92 179.723 177.144C183.127 173.965 184.888 168.347 186.575 163.48C190.036 153.501 193.45 143.507 196.904 133.528H181.7L181.7 133.527ZM306.682 175.248L312.223 159.268L308.226 159.256C301.302 159.256 296.928 160.627 295.114 167.167C293.699 172.27 295.156 175.102 300.527 175.249H306.683L306.682 175.248ZM349.242 164.213C349.851 161.399 348.944 159.281 345.566 159.281C340.882 159.281 338.628 161.161 336.871 165.361C340.506 165.361 344.158 165.374 347.806 165.374C348.142 165.376 348.469 165.262 348.731 165.051C348.993 164.839 349.174 164.544 349.242 164.214V164.213ZM335.791 170.997C336.023 173.466 337.706 175.081 340.348 175.192C345.375 175.387 350.538 175.204 355.593 175.204C353.398 181.533 353.398 181.528 348.542 181.542C342.663 181.56 335.584 181.585 334.499 181.371C327.23 179.942 324.677 173.429 326.006 166.688C326.8 162.648 328.826 159.071 332.129 156.568C335.224 154.223 339.204 152.999 343.589 152.999H348.782C355.198 152.999 359.863 155.96 359.863 162.786C359.863 164.719 359.26 167.235 358.363 169.251C357.881 170.336 356.865 170.995 355.678 170.995H335.791V170.997ZM400.493 181.563C390.899 181.677 386.244 176.148 387.957 166.817C389.754 157.023 397.046 152.968 405.933 152.968C408.9 152.932 412.819 152.803 415.695 153.485C423.134 155.247 425.833 161.219 424.12 168.447C421.968 177.529 415.203 181.556 406.455 181.556C404.468 181.556 402.479 181.544 400.493 181.562V181.563ZM402.131 175.225C403.638 175.335 405.338 175.361 406.84 175.2C410.6 174.792 412.493 171.172 413.512 167.935C414.65 164.329 414.282 159.989 409.635 159.399C409.014 159.32 408.136 159.287 407.333 159.29C401.751 159.321 399.364 162.297 398.063 167.68C397.251 171.04 398.106 174.93 402.131 175.225V175.225ZM360.627 179.193L366.488 162.289C368.664 155.707 371.14 152.979 378.969 152.979H389.72C389.456 154.46 388.191 159.093 386.327 159.279C384.483 159.344 382.151 159.119 380.384 159.5C379.053 159.787 378.336 160.484 377.757 162.179L371.039 181.534H362.153C361.108 181.534 360.32 180.038 360.627 179.193ZM293.959 181.528C285.617 181.33 283.759 173.154 284.79 167.119C286.507 157.083 294.607 152.979 304.536 152.979H322.455C324.046 152.979 324.923 153.923 324.337 155.614L315.347 181.534L306.682 175.248L304.503 181.534C300.988 181.534 297.473 181.536 293.959 181.528L293.959 181.528ZM245.821 143.64H256.411L246.365 172.61C245.709 174.503 244.308 178.051 244.953 179.636C245.997 182.196 248.331 181.84 250.583 181.845H258.396L271.644 143.641H278.959C282.358 143.641 283.88 143.844 284.925 142.958C286.513 141.613 288.118 136.381 288.498 133.527H248.911L245.821 143.64ZM223.275 174.229L247.77 133.527H231.982L211.524 168.021L209.61 137.713C209.61 135.158 208.925 133.527 205.805 133.527H198.052L197.131 144.972L198.51 174.463C198.603 180.079 203.05 182.413 209.109 182.413C215.732 182.413 219.414 180.062 223.276 174.23" fill="#26386E"/>
<path fill-rule="evenodd" clip-rule="evenodd" d="M68.0094 158.263C67.4512 150.998 71.4722 143.586 76.9892 137.89C87.2388 135.618 97.7678 138.245 105.106 145.796L105.329 146.028C108.074 142.342 110.732 137.911 111.488 133.761C106.402 130.725 100.363 129.128 93.9437 129.54C87.3262 129.963 81.2064 132.532 76.3522 136.611C65.1782 140.27 56.6685 150.267 55.5088 162.72C55.4409 163.454 55.3987 164.184 55.3828 164.909H55.3834C60.9524 171.109 75.0542 170.1 78.0615 169.181L78.0634 169.18C72.7029 170.087 68.6911 167.137 68.0094 158.263ZM126.227 162.731C126.875 155.767 125.145 149.223 121.757 143.813C123.434 141.456 125.062 139.161 126.616 136.968C131.78 129.681 132.39 130.252 131.842 129.59C131.26 128.887 124.078 127.294 117.922 133.439C116.992 134.366 116.066 135.33 115.14 136.321L115.128 136.333L115.009 136.464L115.007 136.465L114.89 136.595L114.878 136.614L114.772 136.731L114.742 136.761L114.649 136.863L114.606 136.906L114.525 136.995L114.47 137.056L114.403 137.13L114.336 137.204L114.281 137.265L114.201 137.354L114.158 137.403L114.064 137.507L114.033 137.538L113.926 137.657L113.913 137.675L113.792 137.81L113.789 137.812L113.666 137.95L113.654 137.962L113.541 138.088L113.516 138.112L113.416 138.224L113.379 138.267L113.292 138.364L113.243 138.419L113.17 138.501L113.104 138.574L113.043 138.642L112.917 138.782L112.824 138.886L112.787 138.923L112.68 139.043L112.662 139.067L112.541 139.202L112.535 139.208L112.408 139.351L112.402 139.357L112.282 139.491L112.258 139.516L112.151 139.637L112.114 139.674L112.021 139.778L111.972 139.833L111.893 139.923L111.829 139.994L111.764 140.067L111.543 140.317L111.506 140.36L111.401 140.478L111.376 140.503L111.256 140.637L111.244 140.649L111.114 140.797L111.109 140.802L110.982 140.945L110.965 140.963L110.851 141.091L110.819 141.127L110.721 141.239L110.674 141.294L110.589 141.39L110.529 141.459L110.457 141.538L110.382 141.624L110.325 141.689L110.237 141.789L110.194 141.838L110.09 141.954L110.061 141.985L109.943 142.118L109.929 142.137L109.796 142.286L109.663 142.438L109.65 142.45L109.531 142.584L109.502 142.615L109.398 142.734L109.356 142.783L109.265 142.886L109.208 142.951L109.132 143.036L109.06 143.119L108.999 143.189L108.912 143.287L108.865 143.342L108.764 143.456L108.731 143.493L108.617 143.624L108.598 143.649L108.468 143.797L108.464 143.801L108.33 143.954L108.319 143.966L108.196 144.107L108.171 144.137L108.061 144.263L108.023 144.305L107.928 144.414L107.874 144.475L107.793 144.567L107.725 144.645L107.659 144.721L107.576 144.815L107.524 144.876L107.428 144.986L107.39 145.029L107.279 145.157L107.256 145.181L106.852 145.642L106.833 145.667L106.768 145.74L106.694 145.826L106.683 145.838L106.674 145.85L106.653 145.875L106.634 145.899L106.614 145.924L105.94 146.696L105.409 147.304L105.26 147.477C104.796 148.008 104.33 148.538 103.863 149.065L103.844 149.084L103.714 149.23C101.523 151.704 99.2956 154.147 97.0054 156.459L96.9871 156.477C83.323 170.612 73.0807 171.714 67.7985 172.202C63.769 172.575 59.5138 172.327 55.8615 171.037C56.7358 175.824 58.7398 180.249 61.6065 184.002C62.7437 185.492 64.0624 186.753 65.5089 187.782C73.096 188.078 79.8474 186.736 79.8474 186.736C78.333 188.12 74.8023 189.478 71.2307 190.483C75.4865 191.638 80.1689 191.257 84.4485 189.248C91.5312 185.923 95.0607 180.731 99.4821 174.712C103.418 169.355 107.768 163.347 112.127 157.278C113.491 161.315 113.99 165.595 113.589 169.838C113.02 175.952 110.679 181.475 107.121 185.946C106.963 186.14 106.877 186.382 106.876 186.631C106.875 186.881 106.959 187.124 107.114 187.319C107.266 187.517 107.48 187.658 107.723 187.717C107.965 187.777 108.22 187.753 108.447 187.648C118.082 183.286 125.169 174.016 126.221 162.731" fill="#E31F24"/>
<path fill-rule="evenodd" clip-rule="evenodd" d="M105.964 146.705C104.332 148.525 103.138 149.883 103.043 149.988L103.036 149.995C98.3199 155.287 93.4136 160.386 88.0965 164.306C87.0958 165.044 86.1077 165.724 85.1406 166.334L90.9277 184.515C93.6869 181.514 96.6503 178.569 99.4889 174.704C103.425 169.347 107.775 163.339 112.134 157.271C110.808 153.352 108.685 149.749 105.964 146.705" fill="url(#paint0_linear_730_18142)"/>
<defs>
<linearGradient id="paint0_linear_730_18142" x1="92.2143" y1="123.787" x2="70.1528" y2="149.235" gradientUnits="userSpaceOnUse">
<stop stop-color="#BE2323"/>
<stop offset="1" stop-color="#DD2A1B"/>
</linearGradient>
</defs>
</svg>
