<svg width="480" height="320" viewBox="0 0 480 320" fill="none" xmlns="http://www.w3.org/2000/svg">
<path d="M92.106 192.114C111.499 192.114 127.22 176.393 127.22 157.001C127.22 137.608 111.499 121.887 92.106 121.887C72.7132 121.887 56.9922 137.608 56.9922 157.001C56.9922 176.393 72.7132 192.114 92.106 192.114Z" fill="#FCDD53" stroke="#E42A2B" stroke-width="8.02908"/>
<path d="M115.763 165.245C114.585 166.636 113.515 167.386 111.588 167.707H90.3911C89.3206 167.172 89.2135 166.422 90.3911 165.887H102.381C103.452 165.887 104.415 165.566 105.165 164.602C108.697 159.892 112.765 155.396 115.87 150.257C114.478 151.542 113.622 152.291 111.588 152.612H96.9214C95.4227 152.612 94.2451 153.147 93.2816 154.432C90.3911 158.179 87.3936 161.819 84.5031 165.566C76.9022 174.665 71.6566 154.646 81.9338 157.858C80.5421 156.038 79.0433 154.325 77.6516 152.505C76.5811 151.435 74.9753 151.328 73.9047 152.505C67.4815 160.641 67.3744 173.167 80.7562 174.344H109.233C111.374 171.24 113.622 168.242 115.763 165.245ZM111.374 139.766C110.41 140.515 109.768 140.836 108.269 140.836H95.3156C94.031 140.836 92.4251 141.371 91.5687 142.442L83.3255 152.933L85.6807 155.931L88.5712 152.398C89.5347 151.328 90.6052 150.899 92.104 150.899H100.133C104.201 150.899 109.447 142.121 111.374 139.766Z" fill="#478C3E"/>
<path fill-rule="evenodd" clip-rule="evenodd" d="M375.586 146.833L370.662 164.818H363.596L371.732 135.271H378.905L384.793 153.149L389.717 135.271H396.783L388.54 164.818H381.474L375.586 146.833ZM347.11 154.327H354.068L353.64 143.728L347.11 154.327ZM359.421 135.271L361.776 164.818H354.39L354.068 159.358H344.326L341.008 164.818H333.621L352.248 135.271H359.421ZM327.091 141.052H318.633L320.239 135.271H344.112L342.506 141.052H334.156L327.519 164.818H320.56L327.091 141.052ZM297.329 155.29C297.329 158.609 299.042 160.857 302.789 160.215C308.035 159.144 307.607 152.721 301.398 152.079C296.152 151.436 293.476 147.154 294.76 142.123C297.008 137.305 300.755 135.271 306.215 134.629H306.322C310.39 133.772 316.492 134.843 317.135 139.981C317.242 140.838 317.456 142.551 316.92 143.407H310.283C310.283 141.908 309.962 140.517 308.463 140.089C303.539 138.697 297.329 144.478 307.714 147.154C310.39 147.796 314.03 148.76 314.779 151.757C315.85 157.003 312.745 161.928 308.57 164.283C304.716 165.889 299.149 165.996 295.188 165.246C290.264 163.533 289.3 160.429 290.157 155.29H297.329ZM292.405 135.271C289.622 145.12 286.945 154.969 284.269 164.818H277.203L285.339 135.271H292.405ZM259.646 146.833L273.242 135.271H281.807L267.247 147.475L274.634 164.818H265.963L261.145 152.293L257.291 155.504L254.615 164.818H247.656L255.899 135.271H262.858L259.646 146.833ZM232.669 147.047H246.586L245.087 152.4H231.277L229.457 159.037H245.301L243.802 164.818H220.786L228.922 135.271H251.617L250.011 141.052H234.381L232.669 147.047ZM206.119 140.731L204.406 147.047H209.759C211.686 147.047 213.506 146.191 214.255 143.943C214.683 142.551 214.362 141.48 212.971 140.945C211.151 140.41 208.153 140.731 206.119 140.731ZM202.907 152.186L200.981 159.465C204.942 159.465 210.615 160.643 212.114 155.719C212.542 153.149 210.722 152.186 208.474 152.186H202.907ZM215.112 135.271C218.752 135.271 222.713 136.663 221.963 141.052C221.428 144.478 218.43 147.689 215.326 148.867V149.081C219.822 149.081 219.822 154.969 218.752 157.967C217.146 162.677 212.114 164.818 207.404 164.818H192.416L200.552 135.271H215.112ZM185.565 141.159H172.076L173.789 135.271H195.842L194.45 140.731L174.966 158.93H190.275L188.776 164.818H164.796L166.509 158.609L185.565 141.159ZM152.271 135.271C150.665 141.052 148.952 146.833 147.346 152.507C146.704 155.504 146.811 160.536 151.2 159.894C154.733 159.465 157.516 155.826 158.266 152.507C159.765 146.833 161.263 141.052 162.869 135.271H169.828C167.687 143.086 166.509 153.684 161.477 160.536C157.945 163.962 154.733 165.46 149.487 165.46C141.03 165.46 138.996 161.606 140.067 153.577C141.672 147.475 143.385 141.373 145.098 135.271H152.271Z" fill="#0F477F"/>
<path fill-rule="evenodd" clip-rule="evenodd" d="M300.863 187.407C298.936 187.407 295.618 188.157 294.975 190.191C294.547 191.047 295.297 191.689 296.046 192.011C299.258 192.011 299.793 189.762 300.863 187.407ZM292.62 184.089C292.62 180.663 297.116 179.378 300.007 178.95C302.79 178.95 304.824 178.843 306.216 181.305C306.323 182.054 306.43 182.483 306.323 183.232C305.788 185.908 303.004 191.796 304.075 194.259V194.366H299.365V193.081C289.837 199.933 286.411 187.3 296.26 186.015C297.116 185.801 301.827 185.373 301.827 183.553C301.827 180.556 298.294 181.733 297.223 183.339C297.223 183.553 297.009 183.981 297.009 184.089H292.62Z" fill="#0F477F"/>
<path fill-rule="evenodd" clip-rule="evenodd" d="M360.168 187.407C358.241 187.407 354.922 188.157 354.28 190.191C353.852 191.047 354.601 191.689 355.351 192.011C358.562 192.011 359.097 189.762 360.168 187.407ZM351.925 184.089C351.925 180.663 356.421 179.378 359.312 178.95C362.095 178.95 364.129 178.843 365.521 181.305C365.628 182.054 365.735 182.483 365.628 183.232C365.093 185.908 362.309 191.796 363.38 194.259V194.366H358.669V193.081C349.141 199.933 345.716 187.3 355.565 186.015C356.421 185.801 361.132 185.373 361.132 183.553C361.132 180.556 357.599 181.733 356.528 183.339C356.528 183.553 356.314 183.981 356.314 184.089H351.925Z" fill="#0F477F"/>
<path fill-rule="evenodd" clip-rule="evenodd" d="M339.08 185.158L334.262 194.365H329.552L329.124 179.377H333.941L333.727 188.584L338.437 179.377H342.827L342.398 188.584L347.216 179.377H352.247L343.469 194.365H338.651L339.08 185.158ZM328.695 179.056L327.732 182.589H327.518C326.019 182.589 325.698 182.482 324.306 183.017C322.272 184.194 321.309 185.8 320.666 188.263L319.061 194.365H313.708L318.632 179.377H322.914L322.272 181.411C324.092 179.698 326.34 179.056 328.695 179.056ZM311.246 177.236L312.102 173.703H316.812L315.849 177.236H311.246ZM315.207 179.377L311.138 194.365H306.535L310.71 179.377H315.207ZM365.308 196.72C368.306 196.72 368.091 196.72 369.697 194.151L367.449 179.377H372.909L373.551 188.691L378.476 179.377H383.293L374.087 195.221C371.624 199.182 369.376 199.717 364.452 199.717L365.308 196.72ZM381.152 189.44H385.541C385.327 190.404 385.327 190.832 385.97 191.581C387.575 192.866 389.395 191.795 390.252 190.297C390.68 187.62 385.434 188.477 383.614 186.657C383.186 186.121 382.972 185.8 382.972 185.051C382.972 183.552 383.4 182.16 384.364 180.983C385.006 180.34 385.755 179.912 386.612 179.591C388.004 179.056 389.395 178.949 390.787 178.949C391.75 178.949 392.5 178.949 393.463 179.056C396.14 179.484 396.14 181.411 396.14 183.445H391.965L392.072 183.017C392.072 181.625 391.001 181.625 390.038 181.625C388.753 181.625 387.789 182.16 387.575 183.552C387.575 184.194 387.897 184.516 388.432 184.73C392.286 185.372 396.354 186.121 394.748 190.404C393.999 192.224 392.607 193.508 390.787 194.258C389.609 194.686 388.111 194.793 386.826 194.793C385.755 194.793 384.685 194.793 383.614 194.472C382.651 194.043 382.009 193.615 381.366 192.866C380.724 191.581 380.617 190.939 380.831 189.44H381.152Z" fill="#0F477F"/>
</svg>
