<svg width="480" height="320" viewBox="0 0 480 320" fill="none" xmlns="http://www.w3.org/2000/svg">
<path d="M261.736 80.0331C261.736 80.0331 252.539 51.2936 241.811 55.5079C231.081 59.7223 236.447 77.734 236.447 77.734C236.447 77.734 242.961 89.2298 246.41 91.9129C249.858 94.596 270.551 103.409 274.763 105.708C278.98 108.007 288.176 118.353 292.393 121.036C296.61 123.72 310.018 128.7 321.514 127.168C333.01 125.637 346.423 117.979 346.423 110.306C346.423 105.708 327.648 107.241 323.05 106.857C318.452 106.474 301.59 101.494 301.59 101.494L286.263 98.0448L267.102 84.6338L261.736 80.0331Z" fill="white"/>
<path d="M297.372 57.4239C291.05 57.1365 283.577 63.1718 283.29 69.7819C283.113 73.8423 284.727 79.266 293.061 76.9668C301.396 74.6677 301.683 70.3567 301.683 67.1954C301.683 64.034 300.582 57.5688 297.372 57.4239Z" fill="white"/>
<path d="M284.874 63.0441L284.711 63.2602C285.166 62.4969 285.807 61.8347 286.499 61.2484C284.814 62.2876 283.184 64.3316 283.324 66.0744C282.8 66.0261 282.055 67.9183 282.234 68.0241L282.195 69.3093L282.246 68.4287L282.195 69.3093C282.264 71.8384 282.46 75.0411 285.095 77.3104C286.541 78.9359 291.422 78.9129 292.958 78.4255L293.675 78.2921C293.291 78.3956 293.27 78.3542 292.866 78.4094C293.857 78.1312 294.627 77.6392 295.439 77.3242C295.273 77.3219 295.227 77.2782 294.864 77.3242L295.291 77.2161C295.62 76.9586 296.478 76.6298 296.825 76.3241C296.777 76.4436 297.092 76.2988 297.37 76.1677L297.236 76.1746C298.317 75.7401 299.363 74.7928 300.136 74.0755L300.391 73.857L300.993 73.0041C301.076 73.1604 301.527 72.3143 301.345 72.7925C301.577 72.0154 302.058 71.3418 302.058 70.5715C302.681 68.0057 302.311 65.3777 301.655 62.9222L301.626 62.9912C301.336 62.1451 300.993 61.4393 300.628 60.4345C300.264 59.7494 299.545 58.9148 299.228 58.8182C298.621 58.3078 298.342 58.0756 297.655 58.0227C297.804 58.1583 297 58.0135 297.333 58.1492C297.676 58.4549 297.717 58.3216 297.977 58.5101L297.986 58.4733C299.244 59.485 299.816 61.7611 300.159 63.8051C300.527 65.2099 300.579 66.7549 300.527 68.2448C300.531 69.8243 300.092 71.328 299.345 72.3741L298.77 72.9029C297.961 73.7674 296.606 74.5468 295.326 75.1814L295.395 75.163L293.395 75.7631L293.252 75.8688C293.126 75.9217 289.061 77.0184 288.801 76.6827L288.566 76.6919C287.063 76.4298 285.952 75.4895 285.41 74.4847L284.816 73.9444C284.803 73.7076 284.674 73.7191 284.596 73.457C284.637 72.7328 284.453 72.3879 284.416 72.7511L284.152 71.1003L284.067 70.3738L284.152 69.9462C284.152 69.422 284.242 69.5829 284.359 69.0541C284.497 68.9529 284.407 67.6769 284.492 67.5274L284.481 67.6171C284.74 67.0262 285.118 66.7204 285.366 66.1617C286.138 64.6374 287.348 63.136 288.559 62.0531C288.497 61.9566 288.325 62.3267 288.212 62.2302C288.861 61.5059 289.845 61.1817 290.596 60.5932L291.052 60.4575C291.344 60.3609 291.187 60.3311 291.392 60.246L291.468 60.3242C291.718 60.1057 291.944 60.2161 292.194 60.0437L292.394 59.8965C292.445 59.9931 292.691 59.7402 292.716 59.839V59.8298L292.889 59.7563C292.96 59.6114 293.983 59.0734 294.091 58.97H294.153C294.319 58.9171 294.372 58.8182 294.268 58.8274L294.477 58.7722L294.454 58.786L294.664 58.7308L294.712 58.8297L295.066 58.6826L293.926 58.7331L294.482 58.5814C294.684 58.6205 295.066 58.494 295.372 58.5607L295.618 58.4687L295.914 58.5078L295.496 58.5561C295.537 58.6527 295.85 58.5998 295.965 58.6205C296.013 58.586 296.289 58.5975 296.459 58.5584C296.39 58.6596 296.602 58.609 296.698 58.6527C296.816 58.655 296.887 58.6113 296.841 58.5814C296.88 58.4756 296.379 58.5561 296.538 58.4342C296.583 58.4825 296.806 58.4457 296.933 58.4319L296.931 58.3354L297.292 58.3078L297.172 58.3216C297.338 58.3147 296.211 58.7699 296.446 58.717C296.374 58.6734 297.446 58.2986 297.335 58.3055C297.227 58.2848 297.418 58.1997 297.303 58.1859L297.172 58.2641C297.02 58.2572 296.954 58.1629 297.011 58.1193C297.266 58.1078 296.271 58.5653 296.494 58.4894L296.404 58.471L296.841 58.4273L297.078 58.3124L297.115 58.3193C297.223 58.2825 297.374 58.2825 297.308 58.2135C296.648 58.2756 297.768 57.6088 297.117 57.6272C297.39 57.7307 297.02 57.7629 296.733 57.7974C296.703 57.756 296.574 57.7054 296.363 57.6893C296.181 57.7123 296.259 57.7422 296.227 57.7767C296.124 57.756 295.931 57.7468 295.949 57.6801L295.549 57.687C295.406 57.733 295.563 57.7192 295.464 57.7652L294.746 57.8342C294.668 57.7928 294.438 57.7468 294.567 57.6111C294.903 57.5261 294.473 57.7997 294.815 57.6778C294.636 57.5721 295.117 57.5583 295.167 57.4755C295.038 57.4065 294.809 57.4502 294.625 57.5353L294.668 57.5422L293.979 57.7123C294.011 57.6525 293.921 57.641 294.041 57.5928L293.804 57.6502L293.824 57.6893L293.516 57.7652C293.473 57.7353 292.353 58.3078 292.401 58.3078L292.052 58.4549C292.015 58.4296 293.53 57.7238 293.328 57.8227C293.126 57.7353 291.59 58.7331 291.479 58.74C291.376 58.8021 291.245 58.8803 291.293 58.9125C291.091 58.986 291.307 58.7952 291.146 58.8182L291.128 58.8573L290.962 58.8642C290.711 59.101 290.19 59.1838 289.969 59.4942C290.017 59.3884 290.056 59.2229 290.24 59.0849L290.288 59.0895L290.438 58.9194L289.902 59.2459L289.776 59.2826L289.789 59.2964L289.727 59.2711L289.732 59.2505C289.539 59.2022 289.093 59.8344 288.725 60L288.631 60.1379L287.649 60.6943C287.598 60.8415 287.605 60.8691 287.768 60.8047L287.527 61.0162C287.617 60.6759 286.989 61.3197 287.095 60.961L286.745 61.2829C286.764 61.3312 286.794 61.3979 286.633 61.5611C286.364 61.7473 286.435 61.7083 286.205 61.8577L286.129 61.7565C285.89 62.0991 285.784 61.929 285.513 62.2164C285.366 62.4118 285.106 62.8303 285.175 62.8969C284.982 63.1636 284.922 63.1199 284.874 63.0441Z" fill="black"/>
<path d="M311.166 55.1268C311.166 55.1268 305.418 57.426 305.418 64.0361C305.418 68.6344 307.142 72.3706 312.603 71.5084C318.063 70.6462 318.62 69.1678 319.213 64.8983C320.65 54.5521 311.166 55.1268 311.166 55.1268Z" fill="white"/>
<path d="M304.495 64.8533L304.507 65.0625C304.367 64.3912 304.42 63.683 304.638 62.9887C303.893 64.4556 304.194 66.4305 304.93 67.4238C304.553 67.6192 305.093 69.2125 305.197 69.201L305.801 70.0379L305.406 69.4516L305.801 70.0379C307.333 71.7669 309.588 72.7119 311.993 72.6176C313.359 72.6475 316.509 72.1922 317.927 71.0404L318.497 70.684C318.171 70.8748 318.171 70.8748 317.844 71.0588C318.649 70.5368 318.955 69.7689 319.228 69.0148C319.116 69.1091 319.058 69.1068 318.842 69.3436L319.058 69.0217C319.049 68.6331 319.502 67.9296 319.456 67.587C319.52 67.6813 319.589 67.4284 319.645 67.2054L319.573 67.2812C319.75 66.4259 319.948 65.4304 319.999 64.6464L320.065 64.4096L320.022 63.6462C320.134 63.7106 320.141 63.0186 320.199 63.3841L320.052 61.6966C319.838 59.7699 319.047 57.581 317.274 56.4246L317.288 56.4866C316.679 56.0912 316.12 55.8728 315.37 55.5302C314.786 55.3784 313.968 55.275 313.699 55.4704C313.076 55.3325 312.789 55.4727 312.186 55.4727C312.338 55.5854 311.621 55.6176 311.922 55.7026C312.274 55.8659 312.308 55.7371 312.628 55.9004L312.623 55.859C314.136 56.2061 315.536 56.8545 316.497 57.8776C317.141 58.5444 317.741 59.4204 317.895 60.4803C318.366 61.508 318.235 62.8507 318.334 63.8877L318.196 64.5107C318.102 65.4212 317.923 66.7731 317.601 67.656L317.628 67.6169L316.973 68.7642L316.927 68.8631C316.899 68.8424 314.596 70.5966 314.111 70.3644L313.94 70.4242C312.72 70.7921 311.552 70.3759 310.657 70.3391L310.018 70.5529L309.597 70.5874C309.22 70.1782 309.048 70.0103 309.165 70.2977L308.232 69.6678L307.763 69.4539C307.625 69.3919 307.572 69.339 307.618 69.2079C307.434 68.8837 307.537 68.9389 307.408 68.5642C307.471 68.4285 306.845 67.748 306.818 67.6192L306.864 67.6721C306.657 67.2536 306.735 66.9249 306.739 66.4305C306.645 65.1062 306.383 63.683 306.783 62.5105C306.67 62.4829 306.762 62.7749 306.608 62.7703L307.13 60.6964L307.305 60.4067C307.461 60.2458 307.323 60.2803 307.422 60.1561L307.53 60.1791L307.88 59.7561L307.928 59.5974C308.022 59.648 308.041 59.3974 308.117 59.4595L308.112 59.4526L308.188 59.3491C308.197 59.2663 308.363 58.3789 308.381 58.257L308.413 58.2317C308.507 58.1512 308.489 58.0639 308.42 58.0961L308.544 58.0041L308.533 58.0248L308.657 57.9328L308.742 58.0018L308.921 57.8087L308.142 58.142C308.149 58.0018 308.365 57.9443 308.439 57.8592L309.048 57.5994L309.147 57.4201L309.34 57.3327L309.117 57.5443C309.193 57.6109 309.349 57.4385 309.425 57.4086L309.678 57.1603C309.685 57.2615 309.786 57.1787 309.862 57.1971L309.91 57.1051C309.887 57.0017 309.632 57.1718 309.669 57.0338L309.903 56.9488L309.862 56.8614L310.069 56.7556L310.002 56.797C310.085 56.7648 309.634 57.3971 309.751 57.2983C309.68 57.2868 310.147 56.7235 310.092 56.7442L310.03 56.6453L309.981 56.7488L309.82 56.6499C309.965 56.5901 309.56 57.2132 309.671 57.0936L309.606 57.0982L309.848 56.9672L309.938 56.8131L309.965 56.8108C310.013 56.7533 310.108 56.7166 310.041 56.6683C309.65 56.8821 310.126 55.99 309.703 56.1694C309.931 56.1947 309.689 56.3188 309.51 56.4223H309.206L309.165 56.5556L308.944 56.5878L308.698 56.7625L308.685 56.866L308.245 57.1856C308.165 57.1718 307.963 57.1971 307.995 57.0522C308.211 56.8913 308.018 57.2316 308.22 57.0407C308.036 57.0109 308.381 56.8568 308.356 56.7419L308.002 56.9764L308.027 56.9718L307.586 57.3051L307.569 57.1925L307.418 57.3074L307.454 57.3327L307.314 57.5259C307.261 57.5167 306.974 58.5007 306.965 58.4501L306.797 58.6869C306.82 58.7283 307.312 57.5006 307.234 57.6569C307.121 57.7305 306.664 59.0939 306.539 59.1054L306.496 59.3008C306.388 59.4296 306.434 59.2135 306.33 59.2916L306.337 59.3261L306.218 59.3951C306.162 59.6503 305.827 59.9239 305.935 60.2458L305.804 59.8388L305.847 59.8227L305.852 59.6457C305.714 59.7722 305.689 59.9147 305.714 60.1101L305.659 60.1906L305.679 60.1929L305.622 60.2044L305.613 60.1906C305.447 60.2458 305.59 60.8735 305.463 61.1517L305.5 61.285L305.213 62.1058C305.261 62.2208 305.284 62.2323 305.374 62.1196L305.312 62.361C305.174 62.1104 305.07 62.7979 304.935 62.5289L304.854 62.8921C304.9 62.9105 304.962 62.9404 304.935 63.1151C304.836 63.3543 304.868 63.2991 304.778 63.4991L304.652 63.4761C304.679 63.7957 304.477 63.7497 304.449 64.0532C304.486 64.244 304.532 64.6165 304.633 64.6211C304.654 64.8694 304.578 64.874 304.495 64.8533Z" fill="black"/>
<path d="M233.379 127.934C233.379 127.934 234.145 134.447 235.294 135.215C236.444 135.983 250.662 144.996 254.455 145.943C259.054 147.093 262.502 145.177 262.502 145.177C262.502 145.177 260.203 140.963 257.904 139.429C255.605 137.896 236.828 130.617 236.828 130.617L233.379 127.934Z" fill="#7095CD" stroke="black" stroke-width="5.74791"/>
<path d="M301.589 101.491C299.95 100.417 298.819 99.7804 296.68 99.2838C293.885 98.909 283.29 96.1891 283.731 94.9591C283.731 94.9591 273.994 88.119 272.036 86.7717C270.228 85.5256 268.996 85.1186 267.102 84.6289C268.207 86.2429 269.014 87.2615 270.801 88.5329C272.737 89.9101 282.497 96.7202 282.497 96.7202C281.885 97.8744 294.087 101.344 296.209 101.381C298.35 101.85 299.649 101.76 301.589 101.491Z" fill="black"/>
<path d="M267.198 71.7928C262.025 71.7928 267.844 69.9741 259.438 74.9541C255.166 77.4832 251.678 79.5524 251.966 81.5642C252.253 83.576 259.151 91.6231 268.347 83.8634C277.544 76.1037 267.198 71.7928 267.198 71.7928Z" fill="white"/>
<path d="M255.795 75.3864L255.593 75.4922L257.591 74.4047C255.929 74.7495 253.91 75.5657 253.473 77.2326C253.025 76.6946 251.376 78.0396 251.459 78.15C251.261 78.5799 251.008 78.7455 250.841 79.3525C250.946 78.8742 251.14 78.7984 251.284 78.5087C251.14 78.7984 250.949 78.8742 250.841 79.3525C249.574 83.6795 252.889 85.1854 254.554 87.0386C255.641 88.3169 259.978 89.3423 261.709 89.1768L262.44 89.1722C262.047 89.2159 262.028 89.1561 261.621 89.1331C262.645 89.0181 263.387 88.3813 264.178 88.0962C264.01 88.0617 263.96 87.995 263.599 87.9881L264.019 87.9123C264.307 87.5651 265.135 87.303 265.475 87.08C265.461 87.2432 265.739 87.1006 265.974 86.965L265.843 86.9512C266.749 86.4247 267.705 85.666 268.482 85.1624L268.776 85.0728L269.399 84.4221C269.462 84.6015 270.02 83.9876 269.79 84.3807C270.124 83.7416 270.687 83.3254 270.968 82.7184C272.561 81.2102 273.616 78.0856 272.391 75.8117L272.359 75.8899C271.901 75.1151 271.335 74.6622 270.703 73.9356C270.117 73.5287 269.245 73.1102 268.841 73.2413C268.234 72.8182 267.836 72.8849 267.197 72.6136C267.287 72.8458 266.514 72.5331 266.772 72.7998C267.043 73.1953 267.155 73.0252 267.395 73.3907L267.415 73.3332C268.813 74.4368 269.981 75.775 270.269 76.9912C270.547 77.789 270.312 78.7248 269.733 79.6996C269.287 80.7641 268.068 81.8195 267.473 82.8127C267.27 83.0081 267.006 83.0035 266.755 83.0679C265.873 83.6243 264.803 84.6405 263.711 84.9946L263.767 84.9831L262.143 85.3832L262.028 85.505C261.971 85.4774 258.561 86.1235 258.35 85.6706L258.154 85.6407C256.91 85.2567 256.028 84.0726 255.25 83.4266L254.501 83.1967C254.434 82.9966 254.241 83.1185 254.133 82.9093C254.161 82.1528 253.816 82.0356 253.85 82.3529C253.434 81.9827 253.406 81.6677 253.264 81.4562C253.115 81.3458 253.298 81.2677 253.264 81.1688L253.466 81.0446C253.505 80.817 253.379 80.9504 253.703 80.6952C253.908 80.7366 254.287 79.7732 254.42 79.6996L254.386 79.7686C254.722 79.4076 255.283 79.4559 255.749 79.1455C257.053 78.3339 258.55 77.32 259.886 76.582C259.812 76.4279 259.619 76.7889 259.485 76.6027L261.998 75.3818L262.484 75.3013C262.771 75.1979 262.587 75.1381 262.789 75.0415L262.897 75.1542C263.1 74.8829 263.394 75.0277 263.617 74.8001L263.78 74.6093C263.877 74.7426 264.059 74.4047 264.13 74.5357L264.125 74.5242L264.3 74.4276C264.371 74.3357 265.105 73.2068 265.158 73.0619L265.224 73.0435C265.341 72.9447 265.27 72.8412 265.213 72.8527L265.316 72.7722L265.312 72.7929C265.861 73.5195 264.711 71.6939 264.666 71.9331C264.597 71.9308 264.534 71.8894 264.622 71.9285C263.727 74.1563 264.622 72.5561 264.505 73.1263L264.263 72.9539C264.978 71.2456 264.24 71.5652 265.302 72.7102L264.82 72.8182L265.183 72.5331C264.008 71.0525 264.532 73.9793 264.964 73.0987C265.052 73.1056 265.144 72.9378 265.316 73.0504C265.381 73.1884 265.544 73.0964 265.654 73.1861L265.125 73.1355C265.121 73.2827 265.587 73.3332 265.682 73.3608C265.744 73.3172 266.04 73.3815 266.234 73.3493C266.139 73.4873 266.381 73.4482 266.491 73.531C266.62 73.554 266.705 73.5011 266.654 73.4482C266.703 73.2942 266.146 73.3309 266.335 73.1746C266.378 73.2528 266.627 73.2367 266.765 73.2367C266.769 73.1516 266.675 73.1677 266.765 73.0918L267.153 73.1125H267.018C267.224 73.1309 265.944 73.6206 266.194 73.5816C266.144 73.5057 267.333 73.1286 267.197 73.1171C267.084 73.0688 267.282 72.9677 267.16 72.9309L267.024 73.0275C266.861 72.9884 266.799 72.8366 266.859 72.7814C267.139 72.809 266.05 73.3263 266.289 73.2505L266.192 73.2045C266.298 73.1539 266.569 73.1194 266.67 73.2137L266.921 73.0803L266.965 73.0964C267.08 73.0596 267.243 73.0872 267.167 72.9723C266.509 72.9562 267.599 72.1354 266.974 72.0595C267.229 72.2572 266.884 72.2457 266.613 72.2549L266.28 72.0342C266.112 72.0411 266.176 72.0963 266.139 72.1423C266.045 72.0963 265.87 72.0526 265.905 71.956C265.762 72.0664 265.705 71.8779 265.546 71.8825C265.399 71.9101 265.546 71.9331 265.436 71.9721L264.78 71.7767C264.746 71.6686 264.62 71.4479 264.79 71.3606C265.072 71.4824 264.61 71.5422 264.921 71.6204C264.849 71.3881 265.213 71.6342 265.307 71.4801L264.872 71.3008L264.898 71.3399C264.767 71.2111 264.19 71.4755 264.139 71.5123C264.125 71.4272 264.031 71.4364 264.111 71.3422L263.927 71.4778L263.976 71.5238L263.753 71.6755C263.702 71.6273 263.086 72.5998 263.07 72.5308C262.946 72.6182 262.849 72.5423 262.773 72.6895C262.815 72.7608 263.785 71.6457 263.626 71.7744C263.507 71.7997 262.477 73.0734 262.316 73.0091C262.226 73.0757 262.123 73.1654 262.187 73.2183C262.01 73.2942 262.15 73.0596 261.998 73.0757L261.994 73.124L261.835 73.1125C261.651 73.3723 261.203 73.462 261.026 73.7609L261.187 73.2919L261.235 73.308L261.323 73.101L260.886 73.4206H260.759L260.778 73.4459L260.702 73.3907V73.3677C260.481 73.2321 260.157 73.8758 259.803 73.954L259.731 74.0966L258.807 74.4116C258.759 74.5587 258.766 74.5978 258.947 74.6116L258.692 74.7288C258.773 74.3702 258.117 74.7794 258.216 74.4093L257.855 74.5932C257.876 74.6576 257.911 74.7633 257.743 74.8645C257.462 74.9289 257.533 74.9243 257.297 74.9679L257.216 74.7955C256.975 75.0714 256.853 74.7932 256.579 74.9771C256.416 75.1059 256.067 75.3266 256.142 75.46C255.896 75.6025 255.837 75.5083 255.795 75.3864Z" fill="black"/>
<path d="M325.251 101.684C325.251 101.684 322.09 99.6719 320.078 99.6719C318.066 99.6719 311.044 103.38 309.732 105.132C308.007 107.432 307.566 111.439 308.582 112.605C310.594 114.904 316.054 113.467 318.066 113.179C320.078 112.892 324.389 109.156 325.538 107.719C326.688 106.282 325.251 101.684 325.251 101.684Z" fill="white"/>
<path d="M313.585 100.598L313.392 100.688L315.323 99.812C313.716 100.007 311.826 100.534 311.398 102.139C310.98 101.667 309.497 102.412 309.552 102.564L308.86 103.532L309.377 102.852L308.86 103.532C307.591 105.794 306.614 107.776 306.386 110.503C305.066 112.448 310.272 116.794 311.591 115.888L312.242 115.984C311.879 115.911 311.879 115.911 311.52 115.835C312.431 115.704 313.311 115.704 313.962 115.462C313.831 115.393 313.806 115.315 313.509 115.235L313.868 115.246C314.171 114.966 314.909 114.888 315.245 114.743C315.19 114.878 315.463 114.869 315.707 114.86L315.597 114.789C316.544 114.738 317.459 114.437 318.25 114.32L318.542 114.308L319.381 113.876C319.367 114.067 320.158 113.717 319.781 113.991C320.413 113.554 320.97 113.315 321.308 112.807C323.007 111.639 324.524 110.236 325.757 108.471L325.674 108.466C326.191 107.933 325.904 106.882 326.253 106.112C325.982 105.484 325.793 104.638 325.428 104.459C325.299 103.799 325.021 103.567 324.809 102.946C324.671 103.148 324.471 102.378 324.402 102.723C324.255 103.199 324.46 103.173 324.345 103.569L324.398 103.546C324.379 105.592 324.646 106.355 323.607 107.176C323.046 108.055 321.896 108.763 321.048 109.57C320.064 110.333 318.983 111.276 318.303 111.614C318.117 111.747 317.985 111.687 317.776 111.664C316.693 111.942 315.335 112.108 314.247 112.313H314.3C313.702 112.409 313.212 112.336 312.711 112.285L312.589 112.356C312.311 112.393 309.617 112.372 309.649 111.965L309.497 111.931C309.226 111.319 309.688 110.216 309.78 109.278L309.619 108.602C309.759 108.459 309.577 108.374 309.656 108.172C310.226 107.786 310.122 107.448 309.895 107.643L310.426 106.542L310.573 106.011C310.605 105.845 310.709 105.817 310.847 105.852C311.035 105.585 311.058 105.728 311.318 105.525C311.449 105.601 312.019 104.675 312.139 104.638L312.095 104.7C312.52 104.417 313.019 104.512 313.449 104.247C314.716 103.599 316.073 102.755 317.303 102.268C317.245 102.107 317.052 102.415 316.944 102.217L319.156 101.628L319.535 101.695C319.735 101.704 319.606 101.598 319.724 101.598L319.765 101.748C319.882 101.415 319.972 102.297 320.075 101.362C320.08 102.127 320.14 101.541 320.202 101.746C320.197 101.911 320.377 101.782 320.354 101.93L320.358 101.918L320.452 101.962C320.501 101.948 321.225 101.539 321.4 101.582L321.437 101.626C321.563 101.674 321.657 101.58 321.593 101.523L321.74 101.596L321.717 101.598L321.866 101.672L321.823 101.831L322.112 101.886L321.455 101.169L321.866 101.352L322.393 101.87C322.446 101.879 322.554 101.727 322.632 101.845L322.807 102.012L322.483 101.911C322.439 102.058 322.696 102.1 322.756 102.185L323.138 102.341C323.016 102.44 323.193 102.477 323.232 102.583L323.377 102.557C323.478 102.433 323.085 102.297 323.278 102.215C323.274 102.297 323.453 102.362 323.545 102.406L323.612 102.274L323.871 102.417L323.777 102.376C323.899 102.449 322.814 102.495 323.007 102.541C322.993 102.447 323.979 102.484 323.899 102.435C323.841 102.357 324.035 102.332 323.961 102.263L323.818 102.304C323.724 102.217 323.747 102.063 323.814 102.031C323.993 102.141 323 102.258 323.205 102.27L323.156 102.199L323.483 102.355L323.722 102.318L323.743 102.346C323.841 102.35 323.945 102.426 323.947 102.302C323.467 102.063 324.678 101.723 324.237 101.433C324.345 101.7 324.083 101.564 323.862 101.474L323.697 101.155L323.547 101.203C323.497 101.129 323.372 101.024 323.432 100.946C323.283 100.994 323.301 100.796 323.159 100.78C323.023 100.782 323.145 100.828 323.041 100.849L322.526 100.582C322.51 100.477 322.409 100.258 322.577 100.175C322.828 100.299 322.393 100.35 322.671 100.433C322.634 100.191 322.931 100.477 323.044 100.352L322.662 100.12L322.68 100.159L322.163 99.904L322.28 99.7937L322.106 99.7063L322.087 99.7684L321.857 99.6534C321.848 99.5591 320.735 99.7661 320.793 99.727L320.492 99.635C320.45 99.6902 321.876 99.6258 321.694 99.6189C321.558 99.5155 320.032 99.6718 319.979 99.5683C319.875 99.5913 319.749 99.6281 319.781 99.7017C319.606 99.6925 319.822 99.543 319.691 99.4902L319.664 99.5316L319.524 99.4534C319.255 99.6051 318.818 99.543 318.609 99.8075L318.861 99.3913L318.905 99.4212L319.05 99.2511L318.553 99.4419L318.436 99.4143L318.45 99.4419L318.395 99.3683L318.402 99.3476C318.227 99.166 317.779 99.7063 317.438 99.7109L317.355 99.8373L316.447 99.9914C316.39 100.127 316.399 100.166 316.56 100.21L316.314 100.281C316.422 99.9454 315.767 100.242 315.891 99.8971L315.541 100.033C315.555 100.099 315.583 100.205 315.417 100.286C315.151 100.32 315.22 100.32 314.992 100.339L314.925 100.159C314.684 100.403 314.59 100.118 314.314 100.27C314.155 100.375 313.819 100.559 313.881 100.702C313.675 100.819 313.624 100.723 313.585 100.598ZM284.151 68.5825C283.769 69.7321 285.158 71.7921 285.974 71.983C287.464 72.3324 287.747 70.6425 287.747 69.493C287.747 68.3434 287.747 67.4812 286.74 67.0512C285.528 66.5316 284.151 68.5825 284.151 68.5825ZM306.568 64.3198C306.186 65.4694 306.922 65.7223 308.292 65.0372C309.729 64.3198 309.584 63.8876 309.584 62.738C309.584 61.5884 308.626 61.2321 307.573 62.0207C306.423 62.8829 306.568 64.3198 306.568 64.3198Z" fill="black"/>
<path d="M310.591 128.288L310.982 128.373C309.711 128.15 308.368 127.927 307.09 127.559C309.784 128.674 313.261 129.642 315.599 128.607C315.792 129.302 318.705 129.548 318.772 129.334L320.588 128.964L319.33 129.18L320.588 128.964C324.391 128.152 328.419 127.343 332.488 125.88C334.834 125.294 340.552 122.066 342.596 120.489L343.472 119.783C342.991 120.201 342.996 120.211 342.465 120.528C343.573 119.434 344.396 118.192 345.286 117.176C345.051 117.295 344.959 117.277 344.479 117.608L345.003 117.148C345.276 116.571 345.975 115.21 346.265 114.589C346.302 114.78 346.605 114.313 346.872 113.899L346.697 114.033C347.192 112.649 348.516 109.487 346.113 107.935L345.665 107.579C345.138 107.372 344.6 107.112 344.102 107.034C344.272 106.905 342.904 106.521 343.649 106.632C342.465 106.48 341.389 106.183 340.303 106.22C336.576 105.698 332.647 105.65 328.842 105.827L328.934 105.894C327.6 105.977 326.423 106.285 324.816 106.154C323.66 106.363 322.025 106.469 321.561 106.816C320.227 106.843 319.701 107.023 318.362 107.055C318.698 107.253 317.052 107.188 317.693 107.368C318.579 107.66 318.654 107.464 319.386 107.678L319.365 107.618C322.825 107.961 326.219 108.106 329.66 108.301C331.964 108.214 334.434 108.469 336.781 108.634C339.285 108.805 342.069 109.051 343.879 109.628C344.223 109.77 344.605 110.014 344.644 110.232C345.322 109.476 344.43 113.233 343.403 114.447L343.455 114.364C343.032 115.364 342.074 115.739 341.398 116.578L341.28 116.813C341.271 116.973 336.248 121.248 335.698 121.211L335.383 121.415C333.21 122.558 330.642 123.043 328.711 123.765L327.52 124.48C327.136 124.494 327.122 124.701 326.685 124.809C325.485 124.726 324.885 125.011 325.492 125.06L322.855 125.609L321.74 125.94C321.423 126.053 321.229 125.998 321.05 125.89C320.227 126 320.457 125.871 319.586 125.871C319.367 125.717 317.408 126.253 317.151 126.218L317.293 126.186C316.275 126.136 315.608 125.731 314.622 125.657C311.89 125.386 308.855 124.938 306.363 124.23C306.301 124.391 306.929 124.333 306.903 124.561L302.528 123.075C302.277 122.947 301.976 122.76 301.873 122.671C301.427 122.459 301.572 122.659 301.238 122.528L301.241 122.367C300.7 122.324 300.562 121.979 300.077 121.873L299.7 121.797C299.748 121.641 299.192 121.613 299.268 121.482L299.256 121.491L298.976 121.36C298.774 121.344 296.847 121.08 296.624 121.071L296.55 121.009C296.297 120.896 296.134 120.958 296.274 121.054L295.959 120.9L296.003 120.907L295.693 120.756C295.642 120.717 295.608 120.615 295.727 120.59L295.152 120.383L296.622 121.496C296.373 121.471 296.028 121.199 295.789 121.112C295.557 120.884 295.028 120.542 294.619 120.273C294.52 120.238 294.375 120.372 294.187 120.199L293.794 119.923L294.435 120.183C294.465 120.031 293.961 119.857 293.812 119.742C293.718 119.742 293.364 119.489 293.106 119.394C293.279 119.326 292.959 119.206 292.86 119.063C292.711 118.96 292.577 118.953 292.619 119.034C292.488 119.139 293.212 119.468 292.906 119.486C292.883 119.388 292.554 119.236 292.38 119.146C292.331 119.217 292.465 119.266 292.308 119.275C292.129 119.153 291.874 119.13 291.809 118.992L291.984 119.082C291.747 118.942 293.596 119.339 293.251 119.206C293.304 119.321 291.602 118.87 291.759 118.962C291.888 119.082 291.568 119.031 291.71 119.144L291.94 119.153C292.138 119.298 292.152 119.475 292.044 119.484C291.697 119.277 293.359 119.549 293.005 119.452L293.108 119.555C292.952 119.532 292.582 119.381 292.492 119.231C292.446 119.303 292.258 119.231 292.097 119.178L292.051 119.137C291.878 119.089 291.678 118.958 291.717 119.105C292.621 119.59 290.662 119.498 291.52 120.027C291.241 119.661 291.745 119.935 292.143 120.13C292.147 120.206 292.278 120.383 292.536 120.583C292.784 120.705 292.713 120.604 292.78 120.588C292.895 120.698 293.138 120.875 293.058 120.942C293.297 120.949 293.341 121.16 293.596 121.238C293.835 121.287 293.605 121.186 293.78 121.204C294.09 121.36 294.527 121.579 294.773 121.714C294.828 121.843 295.06 122.128 294.787 122.156C294.311 121.917 295.065 122.029 294.55 121.827C294.679 122.117 294.081 121.678 293.925 121.779C294.044 121.937 294.368 122.087 294.651 122.19L294.605 122.14C294.856 122.225 295.355 122.404 295.571 122.625C295.479 122.664 295.571 122.767 295.387 122.703L295.716 122.866C295.764 122.864 295.819 122.864 295.729 122.804L296.162 122.997C296.171 123.085 298.086 123.393 298.015 123.416C298.256 123.508 298.275 123.641 298.541 123.657C298.59 123.609 296.111 123.002 296.442 123.103C296.624 123.264 299.351 123.813 299.447 124.009C299.633 124.064 299.863 124.119 299.845 124.032C300.142 124.168 299.702 124.145 299.898 124.285L299.96 124.266L300.144 124.43C300.668 124.471 301.33 124.85 301.882 124.86C301.712 124.894 301.5 124.984 301.146 124.952L301.1 124.894C301.05 124.901 300.767 124.841 300.753 124.919L301.67 125.172L301.827 125.292L301.829 125.26L301.859 125.361L301.831 125.37C301.962 125.646 303.094 125.641 303.641 125.901C303.82 125.913 303.668 125.869 303.891 125.878L305.462 126.497C305.685 126.448 305.706 126.414 305.496 126.255L305.956 126.405C305.466 126.554 306.77 126.871 306.241 127.009C306.368 127.104 306.646 127.186 306.919 127.212C306.961 127.154 307.028 127.06 307.356 127.143C307.798 127.347 307.694 127.285 308.069 127.437C308.145 127.536 307.993 127.545 307.998 127.616C308.621 127.612 308.487 127.892 309.062 127.975C309.426 128.012 310.138 128.12 310.177 127.975C310.672 128.065 310.656 128.173 310.591 128.288Z" fill="black"/>
<path d="M253.305 59.7175L253.045 59.3519C253.979 60.4739 254.779 61.7522 255.515 63.0306C254.361 60.0693 252.061 56.501 249.132 55.7974C249.447 55.0594 246.175 53.089 245.923 53.4017C245.07 53.4017 244.24 53.2361 243.426 53.4155C243.987 53.2384 244.552 53.404 245.129 53.3948C244.548 53.404 243.982 53.2384 243.421 53.4155C238.425 54.7099 234.657 58.8507 233.753 63.9227C233.01 66.6541 233.342 73.9332 233.978 76.6049L234.197 77.7981C234.068 77.1084 234.096 77.1268 233.995 76.46C234.321 78.0809 235.698 80.0858 236.337 80.8537C236.284 80.5985 236.326 80.5226 236.13 79.957L236.448 80.6008C236.993 81.033 237.754 82.3252 238.223 82.8632C238.034 82.8011 238.308 83.2862 238.554 83.7116L238.522 83.5024C239.469 85.1072 240.743 86.8591 241.729 88.2271L241.957 88.7008L243.023 89.9331C242.809 89.94 243.766 91.0896 243.189 90.547C244.058 91.3563 244.985 92.4737 246.079 93.0301C249.735 95.3546 253.68 96.8513 257.605 98.3642L257.538 98.2653C258.92 98.7596 260.228 98.9803 261.801 99.8057C263.049 100.114 264.741 100.746 265.346 100.638C266.698 101.204 267.305 101.284 268.652 101.868C268.402 101.539 270.013 102.323 269.445 101.875C268.687 101.22 268.539 101.381 267.884 100.831V100.896C264.539 99.0056 261.148 97.3824 257.717 95.7293C255.354 94.8142 252.889 93.5612 250.592 92.4093C247.9 91.2735 246.109 89.763 244.532 87.7949C244.155 87.3672 244.037 86.9373 243.821 86.4982C242.46 84.7761 240.995 82.3436 239.602 80.2559L239.66 80.364C238.942 79.2374 238.581 78.2832 237.91 77.1796C237.933 77.3452 237.627 76.7382 237.839 77.2693C237.843 77.1268 235.951 70.0338 236.298 69.5372L236.245 69.1303C236.229 66.4058 237.124 63.833 237.788 61.8603C237.744 61.3315 238.023 60.9291 238.112 60.5429C238.404 60.29 238.28 60.129 238.549 59.7704C239.54 59.1151 239.706 58.4529 239.289 58.8208C239.867 58.1173 240.793 57.7862 241.419 57.2804L242.329 56.5745C242.614 56.4895 242.8 56.5239 242.964 56.6044C243.681 56.4665 243.479 56.3653 244.237 56.5814C244.375 56.6481 246.224 56.7286 246.449 57.0482L246.309 57.0091C247.231 57.3746 247.532 58.2437 248.33 58.807C250.376 60.7981 252.34 63.5272 253.733 65.9919C253.887 65.9298 253.386 65.47 253.563 65.3229C254.397 66.7828 255.02 68.3761 255.754 69.912C255.857 70.2017 255.935 70.5833 255.947 70.7328C256.122 71.2524 256.161 70.988 256.308 71.3582L256.191 71.4731C256.554 71.9467 256.398 72.3146 256.69 72.7813C256.761 72.7813 256.846 72.9607 256.924 73.1423C256.777 73.2182 257.172 73.6872 257.023 73.7217H257.037L257.159 74.0459C257.306 74.2206 258.545 75.9749 258.681 76.168L258.699 76.2761C258.821 76.5658 258.986 76.6462 258.94 76.4646L259.081 76.8279L259.053 76.7934L259.193 77.1544C259.207 77.2256 259.161 77.3291 259.058 77.2532L259.354 77.8694L258.996 75.8576C259.147 76.0783 259.242 76.552 259.368 76.8095C259.4 77.1613 259.557 77.851 259.683 78.3821C259.731 78.4902 259.934 78.5017 259.957 78.7822C259.885 78.95 260.072 79.0673 260.06 79.3087L259.759 78.5959C259.632 78.6925 259.895 79.2259 259.92 79.4351C259.996 79.5087 260.122 79.9984 260.269 80.2835C260.085 80.2008 260.272 80.5548 260.26 80.7549C260.313 80.9595 260.412 81.0698 260.433 80.971C260.605 80.9848 260.239 80.1433 260.492 80.3663C260.446 80.4652 260.61 80.8491 260.69 81.0583C260.771 81.033 260.699 80.8928 260.826 81.0032C260.892 81.2469 261.072 81.463 261.033 81.6216L260.957 81.417C261.06 81.7251 259.856 79.9409 260.039 80.3226C260.083 80.1939 261.127 81.8975 261.056 81.6883C261.033 81.4929 261.244 81.7734 261.207 81.5734L261.042 81.394C260.98 81.1204 261.083 80.9618 261.168 81.0376C261.311 81.4837 260.18 79.9662 260.391 80.3203L260.373 80.1525C260.485 80.295 260.683 80.7089 260.656 80.902C260.736 80.8767 260.84 81.0836 260.929 81.2515L260.938 81.3204C261.042 81.4906 261.106 81.7504 261.173 81.5963C260.796 80.518 262.228 82.047 261.918 80.9733C261.893 81.4814 261.683 80.8836 261.499 80.4215C261.545 80.3548 261.557 80.1157 261.481 79.7616C261.359 79.4742 261.355 79.6122 261.29 79.5731C261.269 79.396 261.191 79.0765 261.297 79.0834C261.104 78.8971 261.24 78.6925 261.095 78.435C260.952 78.2143 261.053 78.4695 260.936 78.3177C260.81 77.9545 260.633 77.4464 260.545 77.1521C260.589 77.0095 260.61 76.6118 260.835 76.8049C261.026 77.3567 260.541 76.6807 260.787 77.2371C260.89 76.9152 261.033 77.7177 261.221 77.7636C261.24 77.5498 261.099 77.1819 260.957 76.8831V76.9543C260.828 76.6922 260.571 76.1726 260.554 75.8392C260.651 75.8806 260.651 75.7335 260.748 75.9243L260.605 75.5472C260.564 75.5082 260.525 75.4691 260.554 75.584L260.373 75.0943C260.44 75.0161 259.246 73.2619 259.313 73.3056C259.196 73.0434 259.274 72.9331 259.09 72.7078C259.023 72.7032 260.43 75.1242 260.249 74.7908C260.249 74.5195 258.6 71.949 258.658 71.7306C258.559 71.5398 258.435 71.3145 258.384 71.3927C258.267 71.0524 258.568 71.4271 258.527 71.1627L258.467 71.1236L258.453 70.8592C258.104 70.4063 257.906 69.5901 257.494 69.1372C257.651 69.2475 257.871 69.3579 258.104 69.666L258.094 69.7441C258.14 69.7832 258.297 70.0522 258.363 70.0109L257.878 69.0843L257.832 68.8728L257.805 68.8912C257.791 68.7578 257.805 68.767 257.853 68.7946L257.881 68.8084C257.984 68.5026 257.101 67.6174 256.906 66.9783C256.788 66.8219 256.86 66.9806 256.715 66.7874L255.995 65.0768C255.797 64.932 255.756 64.9366 255.802 65.224L255.563 64.7458C256.034 65.0332 255.282 63.7525 255.779 64.079C255.749 63.9135 255.609 63.6238 255.402 63.3962C255.326 63.4053 255.209 63.4237 255.002 63.1065C254.788 62.6167 254.832 62.7409 254.662 62.327C254.678 62.1914 254.795 62.3086 254.841 62.2535C254.379 61.7477 254.675 61.6511 254.308 61.1246C254.066 60.8027 253.544 60.1796 253.418 60.2532C253.084 59.8187 253.17 59.7497 253.305 59.7175Z" fill="black"/>
<mask id="mask0_730_18421" style="mask-type:luminance" maskUnits="userSpaceOnUse" x="196" y="67" width="133" height="67">
<path d="M327.644 68.5351C326.879 66.6199 306.186 65.852 292.391 77.7317C276.58 91.3474 257.136 122.184 238.743 121.8C222.651 121.464 223.798 103.023 214.601 103.023C205.405 103.023 209.056 110.24 210.387 114.902C212.686 122.949 228.78 127.548 228.78 127.548C228.78 127.548 219.584 122.184 214.985 121.034C210.387 119.885 196.976 118.351 196.592 119.885C196.208 121.418 203.873 124.099 208.472 125.633C213.07 127.166 228.015 129.465 228.015 129.465L224.182 130.615C224.182 130.615 225.322 133.457 231.845 133.68C242.959 134.061 288.556 129.847 311.166 102.257C333.772 74.667 328.41 70.4526 327.644 68.5351Z" fill="white"/>
</mask>
<g mask="url(#mask0_730_18421)">
<path d="M359.448 80.4131L298.904 129.461L270.164 155.136L198.89 149.388L169.383 103.021L323.429 53.9727L359.448 80.4131Z" fill="white"/>
<path d="M197.357 95.7424L265.566 88.4609C265.566 88.4609 268.629 106.854 266.716 114.517C264.801 122.18 260.968 136.743 260.968 136.743L187.395 138.277L197.357 95.7424Z" fill="#7095CD"/>
<path d="M269.78 78.1144L279.744 76.1992C279.744 76.1992 281.657 88.079 281.657 96.1261C281.657 104.173 275.909 135.596 275.909 135.596L267.48 135.98C267.48 135.98 271.693 113.754 272.079 107.24C272.46 100.727 269.78 78.1144 269.78 78.1144Z" fill="#FFCD19"/>
</g>
<path d="M327.644 68.5351C326.879 66.6199 306.186 65.852 292.391 77.7317C276.58 91.3474 257.136 122.184 238.743 121.8C222.651 121.464 223.798 103.023 214.601 103.023C205.405 103.023 209.056 110.24 210.387 114.902C212.686 122.949 228.78 127.548 228.78 127.548C228.78 127.548 219.584 122.184 214.985 121.034C210.387 119.885 196.976 118.351 196.592 119.885C196.208 121.418 203.873 124.099 208.472 125.633C213.07 127.166 228.015 129.465 228.015 129.465L224.182 130.615C224.182 130.615 225.322 133.457 231.845 133.68C242.959 134.061 288.556 129.847 311.166 102.257C333.772 74.667 328.41 70.4526 327.644 68.5351V68.5351Z" stroke="black" stroke-width="5.74791"/>
<path d="M292.928 82.0839C295.211 83.2242 300.232 83.4519 302.513 81.3987C303.653 80.6009 303.996 82.1965 302.853 83.3369C301.713 84.4796 300.913 85.2774 299.655 85.7326C300.8 87.7881 300.68 88.7009 308.44 88.3583C309.925 88.3583 309.125 89.9539 307.985 90.869C306.844 91.7817 297.898 98.0814 294.636 96.1157C291.116 93.9958 293.951 86.988 295.889 85.8499C293.951 85.3924 293.153 84.252 292.123 82.769C291.672 81.9689 292.13 81.6263 292.928 82.0839C292.928 82.0839 292.13 81.6263 292.928 82.0839Z" fill="black"/>
<path d="M296.008 88.533C295.504 88.6042 293.78 93.7061 295.865 95.2143C296.842 95.9202 301.532 93.867 301.831 92.8439C302.473 90.6183 296.511 88.4617 296.008 88.533Z" fill="white"/>
<path d="M335.598 61.7367C335.853 62.6977 335.862 63.2978 336.437 63.8082C337.223 64.3279 338.72 67.9766 338.184 68.1054C338.43 68.156 337.515 72.1726 336.653 72.752C336.177 73.3797 336.258 73.9591 336.172 74.9569C337.177 74.9868 337.812 74.7477 338.4 74.005C339.483 73.3498 340.663 68.2088 340.339 68.1261C341.033 68.0732 339.06 62.7874 337.98 62.3C337.239 61.6746 336.579 61.5298 335.598 61.7367Z" fill="black"/>
<path d="M343.932 71.7955C344.813 72.2048 345.553 72.0002 346.231 71.3127C347.296 70.4712 347.758 65.6982 347.535 65.7119C347.705 65.6982 346.539 60.9918 345.158 60.394C344.247 59.9502 343.507 59.9272 342.783 60.5871C343.392 61.309 343.357 61.9436 343.875 62.1184C344.56 62.3322 345.477 65.7901 345.392 65.889C345.562 65.9051 345.114 69.6067 344.537 69.9861C344.128 70.3586 344.275 70.9242 343.932 71.7955ZM376.534 226.656H380.705V227.244H378.967V231.875H378.272V227.244H376.534V226.656ZM383.887 231.045L385.538 226.656H386.487V231.875H385.83V227.536H385.814L384.188 231.875H383.595L381.965 227.536H381.953V231.875H381.296V226.656H382.245L383.887 231.045ZM96.0936 137.982C93.9255 137.982 92.4426 141.86 94.4957 143.801C96.5489 145.741 96.6638 146.769 96.7765 147.907C96.8914 149.05 100.657 173.235 101.113 177.118C101.568 180.997 103.736 201.986 104.876 206.665C106.017 211.343 108.413 224.69 108.755 227.313C109.098 229.937 110.923 232.788 113.206 232.907C115.487 233.02 119.026 233.02 119.026 233.02C120.851 233.137 121.191 231.535 121.991 229.254C122.789 226.975 130.149 201.462 131.119 197.197C132.83 189.667 139.562 169.246 141.615 162.629C143.668 156.012 144.696 146.541 143.555 143.575C142.415 140.61 140.132 136.273 132.032 137.186C128.496 138.214 123.249 140.837 127.698 148.71C132.147 156.582 131.689 159.205 131.462 166.05C131.234 172.894 129.066 179.054 124.73 181.224C122.792 182.137 121.309 181.454 121.536 177.803C121.764 174.152 121.194 164.682 120.626 160.573C120.053 156.469 118.8 150.535 118.8 148.71C118.8 146.884 118.899 144.939 120.398 144.146C122.336 143.118 123.707 137.984 119.258 137.984L96.0936 137.982ZM164.089 219.554C163.404 213.622 165.002 188.524 165.002 183.733C164.547 179.169 161.351 182.588 160.438 184.643C156.559 196.737 158.84 217.271 159.981 220.239C161.123 223.205 164.089 223.432 164.089 219.554L185.081 224.345C185.193 225.603 185.308 226.856 186.449 227.426C187.589 227.996 188.389 233.02 184.053 233.02H168.08C167.168 233.02 165.912 230.507 165.342 229.139C162.034 231.307 157.127 234.618 152.336 234.501C147.544 234.388 136.249 230.279 136.706 205.414C136.934 194.005 138.304 184.875 149.255 180.767C154.504 178.261 166.896 173.918 166.595 166.392C166.368 160.69 163.627 159.778 162.031 159.778C160.433 159.778 157.562 161.353 157.01 165.024C156.327 169.588 152.446 174.38 148.795 174.837C145.144 175.295 138.757 171.186 143.776 161.378C147.655 157.044 151.989 152.935 160.889 152.935C169.786 152.935 179.369 157.957 182.108 165.942C184.846 173.929 185.074 181.914 185.074 186.018V224.35L164.089 219.554ZM191.927 233.015C189.532 233.015 188.161 229.252 191.585 224.803C192.042 219.554 191.585 198.79 191.815 195.824C192.042 192.858 192.385 148.477 192.385 146.309C192.385 144.143 192.042 143.116 190.902 142.43C189.759 141.745 188.276 137.409 191.015 137.296C193.753 137.184 206.417 137.296 208.355 137.184C210.295 137.069 211.778 138.667 211.778 141.975V223.547C211.778 225.033 212.691 226.516 213.376 226.973C214.059 227.424 216 233.135 211.321 233.018L191.927 233.015ZM219.423 164.567C219.423 162.281 218.851 160.799 218.053 160.346C217.253 159.886 215.772 154.752 219.651 154.752C223.529 154.752 227.523 155.209 229.461 155.094C231.402 154.979 236.421 153.496 237.791 156.35C239.161 159.201 238.932 162.169 238.932 164.222V198.905C238.932 200.958 238.817 212.594 238.817 214.19C238.817 215.788 239.844 222.062 243.155 222.062C246.461 222.062 246.461 220.809 246.461 219.784V163.879C246.461 162.054 245.776 160.799 244.406 159.773C243.036 158.745 243.153 154.524 246.004 154.524C248.855 154.524 256.727 154.067 258.668 153.724C260.603 153.381 266.082 153.954 265.965 159.543C265.852 165.132 265.852 222.632 265.852 222.632C265.852 223.89 266.193 225.713 267.793 226.621C269.391 227.536 270.074 232.673 267.338 232.896C264.602 233.126 255.242 232.666 252.963 232.778C250.68 232.896 247.029 232.441 246.116 228.674C243.488 229.815 237.104 233.349 232.655 233.236C229.687 233.236 221.246 231.408 219.763 220.455C218.347 210.01 218.851 198.325 219.421 188.625C219.89 180.666 219.423 164.567 219.423 164.567Z" fill="black"/>
<path d="M274.41 146.993C274.298 144.369 274.075 142.633 273.04 142.429C271.33 142.086 270.304 137.18 273.498 137.18H295.744C298.142 137.18 298.6 140.831 297.342 142.429C296.087 144.027 296.202 145.167 296.202 146.077C296.202 146.077 296.087 204.035 296.087 205.288C296.087 206.546 296.202 218.979 296.202 221.258C296.202 223.539 294.765 231.76 288.447 238.371C283.423 243.617 278.864 247.615 270.759 247.151C262.662 246.7 263.524 243.261 263.802 241.219C264.145 238.709 267.683 235.858 272.587 237.913C274.072 238.709 275.668 238.366 275.555 233.692C275.555 229.47 274.298 216.802 274.185 213.041C274.072 209.279 274.185 166.039 274.298 163.528C274.41 161.027 274.525 148.361 274.41 146.993C274.525 148.361 274.41 146.993 274.41 146.993ZM323.125 165.928C323.125 163.192 323.355 158.371 326.323 159.084L325.183 152.922C314.002 150.869 301.679 162.505 300.081 189.431C300.081 196.505 298.487 234.609 326.776 233.924C334.536 233.924 345.259 227.309 345.259 217.269C345.489 212.247 341.155 209.741 339.097 209.741C337.04 209.741 333.396 210.652 333.396 216.591C333.396 222.522 332.023 226.403 327.917 226.403C323.813 226.403 322.442 222.065 322.898 219.101C323.353 216.133 323.125 207.008 323.125 203.582C323.125 200.161 323.355 188.067 322.898 185.101C324.266 182.818 326.776 181.22 329.285 181.22H342.063C344.119 181.22 346.627 179.85 346.627 175.518C346.627 171.18 345.029 153.384 325.176 152.929L326.316 159.091C328.374 159.548 328.829 163.197 329.515 166.165C330.2 169.131 329.744 172.555 328.144 174.38C326.544 176.206 324.946 174.835 324.493 172.782C324.038 170.725 323.125 168.441 323.125 165.928C323.125 168.441 323.125 165.928 323.125 165.928Z" fill="black"/>
<path d="M349.821 163.308C349.821 161.14 348.798 160.344 347.88 159.884C346.97 159.427 345.599 155.32 348.221 154.293C350.848 153.267 358.259 152.127 360.542 143.91C361.225 140.944 363.393 135.812 367.159 135.127C370.925 134.442 373.323 136.952 373.433 139.12C373.546 141.286 371.152 145.052 369.552 146.878C367.952 148.703 366.998 152.003 370.575 153.152C373.773 154.18 373.658 156.233 373.658 157.716C373.658 159.199 372.856 160.684 371.145 160.797C369.821 160.887 369.205 162.052 369.205 163.648C369.205 163.648 369.205 222.178 369.322 223.318C369.437 224.459 370.233 226.399 371.488 226.969C372.743 227.539 373.769 232.784 370.35 233.014C370.35 233.014 351.524 232.784 349.699 232.901C347.871 233.014 346.505 231.531 346.618 229.593C346.733 227.652 347.528 226.969 348.673 226.284C349.814 225.601 349.814 223.773 349.814 222.295V172.78C349.821 170.837 349.821 163.308 349.821 163.308ZM126.006 266.191L119.095 254.116L112.184 266.191H114.122L115.775 263.289L116.522 261.965L119.095 257.281L121.668 261.965H116.522L115.775 263.289H122.417L124.068 266.191H126.006ZM252.426 254.61H254.231V266.191H252.426V254.61ZM185.497 255.897H185.978C187.762 255.897 189.914 256.157 189.914 257.971C189.914 259.817 187.916 260.091 186.074 260.091H185.497V261.289H186.247L190.509 266.188H192.698L188.127 261.153C190.22 260.956 191.604 259.571 191.604 257.911C191.604 256.808 190.912 255.716 189.702 255.15C188.55 254.624 187.166 254.612 185.881 254.612H183.692V266.193H185.497V255.897ZM225.647 266.191H219.444V254.61H221.251V264.871H225.647V266.191ZM154.217 254.61H156.022V266.191H154.217V254.61ZM293.091 254.61H294.896V266.667L284.03 257.56V266.191H282.225V254.056L293.091 263.163V254.61ZM330.117 255.93H324.144V259.171H329.942V260.491H324.144V264.871H330.117V266.191H322.339V254.61H330.117V255.93ZM364.331 256.806C363.797 256.086 363.105 255.713 362.006 255.713C360.857 255.713 359.588 256.341 359.588 257.357C359.588 258.265 360.7 258.741 361.604 259.02L362.641 259.339C364.699 259.985 366.232 260.896 366.232 262.832C366.232 264.938 364.193 266.441 361.602 266.441C359.257 266.441 357.436 265.055 357.13 263.2L358.953 262.894C358.932 264.17 360.201 265.087 361.756 265.087C363.315 265.087 364.427 264.043 364.427 262.832C364.427 261.588 363.179 261.052 361.93 260.636L360.93 260.3C359.279 259.73 357.783 258.976 357.783 257.364C357.783 255.493 359.854 254.368 362.045 254.368C363.657 254.368 364.981 254.996 365.768 256.12L364.331 256.806Z" fill="black"/>
</svg>
