<svg width="480" height="320" viewBox="0 0 480 320" fill="none" xmlns="http://www.w3.org/2000/svg">
<path d="M359.745 125.929H359.575C358.037 129.281 357.015 131.72 355.138 135.409L345.746 154.206H364.27L361.11 134.74C360.685 131.973 360.261 129.281 359.745 125.929ZM365.039 158.067H343.698L336.015 173.343H330.895L359.489 117.789H362.564L372.295 173.343H367.685L365.039 158.067ZM380.573 173.342L389.022 133.649H393.46L385.01 173.342H380.573ZM419.662 137.174C414.457 137.174 408.654 143.464 406.007 155.969L402.337 173.342H397.9L406.35 133.648H410.191L408.653 141.703H408.825C411.556 135.662 416.251 132.639 420.691 132.639C422.396 132.639 423.675 132.979 424.615 133.48L422.737 137.758C421.886 137.343 420.775 137.174 419.662 137.174M393.003 119.825C391.07 119.825 389.503 121.362 389.503 123.263C389.503 125.163 391.071 126.703 393.003 126.703C394.938 126.703 396.5 125.163 396.5 123.263C396.5 121.362 394.939 119.825 393.003 119.825Z" fill="#0092D2"/>
<path d="M68.019 168.992C57.1776 168.325 55.515 169.784 55.3892 171.697C55.2698 173.613 56.7322 175.265 67.575 175.931C78.9545 176.63 96.459 176.146 96.5843 174.231C96.703 172.316 79.3961 169.689 68.019 168.992M102.993 178.793C101.2 178.033 92.8485 193.157 88.345 203.448C84.4085 212.436 84.5271 215.135 86.6811 216.044C88.4742 216.806 90.5493 216.005 94.8406 206.199C99.3473 195.908 104.788 179.551 102.993 178.793M137.069 182.963C126.37 179.112 109.449 174.666 108.777 176.47C108.1 178.271 123.935 185.636 134.635 189.492C144.831 193.167 146.847 192.238 147.524 190.436C148.194 188.633 147.27 186.643 137.07 182.963" fill="#FED100"/>
<path d="M150.007 143.764C149.011 148.89 147.188 153.718 144.735 157.713C139.262 166.623 134.24 167.882 132.775 165.739C129.942 161.597 134.612 147.911 141.159 142.596C146.219 138.482 149.358 141.796 150.022 143.671L150.009 143.764H150.007V143.765L150.007 143.764ZM162.907 162.929L161.948 162.111C161.194 161.381 160.01 161.407 159.291 162.161C157.178 164.368 155.703 165.574 154.682 165.991C153.556 164.549 154.129 161.43 154.979 158.103L160.622 136.489C160.99 135.084 159.722 134.128 158.639 134.252C158.049 134.321 155.497 135.519 152.501 136.681C152.182 136.811 151.839 136.96 151.765 137.199C149.999 136.057 147.867 135.343 145.541 135.343C134.222 135.343 123.149 151.255 123.149 162.729C123.149 167.671 125.56 173.443 132.364 173.443C136.8 173.443 141.183 170.671 145.757 164.962L146.503 164.006L146.505 164.956C146.522 169.475 149.321 173.322 152.895 173.322C156.449 173.322 159.536 169.412 163.01 165.366C163.65 164.627 163.583 163.598 162.907 162.929ZM301.423 143.764C300.436 148.89 298.61 153.718 296.157 157.713C290.682 166.623 285.663 167.882 284.198 165.739C281.36 161.597 286.038 147.911 292.583 142.596C297.643 138.482 300.776 141.796 301.446 143.671L301.424 143.764H301.423V143.765V143.764ZM314.326 162.929L313.37 162.111C313.193 161.938 312.983 161.802 312.753 161.711C312.523 161.62 312.278 161.575 312.03 161.58C311.783 161.585 311.539 161.638 311.313 161.738C311.087 161.838 310.883 161.982 310.712 162.161C308.602 164.368 307.123 165.574 306.102 165.991C304.977 164.549 305.551 161.43 306.402 158.103L312.047 136.489C312.411 135.084 311.144 134.128 310.061 134.252C309.466 134.321 306.92 135.519 303.924 136.681C303.606 136.811 303.259 136.96 303.187 137.199C301.418 136.057 299.29 135.343 296.964 135.343C285.642 135.343 274.569 151.255 274.569 162.729C274.569 167.671 276.98 173.443 283.788 173.443C288.222 173.443 292.602 170.671 297.18 164.962L297.927 164.006L297.931 164.956C297.944 169.475 300.743 173.322 304.317 173.322C307.871 173.322 310.96 169.412 314.434 165.366C315.071 164.627 315.009 163.598 314.325 162.929M114.668 122.625C112.643 128.533 105.75 151.863 103.723 164.947C100.373 154.218 92.3473 137.052 89.1882 131.286C82.8724 119.752 79.2197 115.456 75.3309 117.556C71.9001 119.406 72.5226 124.846 79.0031 136.675C83.7456 145.331 97.3535 169.102 102.72 173.36C103.694 174.135 104.601 174.029 105.334 173.358C110.407 168.707 120.69 140.686 125.634 126.254C130.38 112.397 131.688 105.345 127.46 103.944C122.838 102.409 119.143 109.56 114.668 122.625M221.324 117.684C218.189 117.684 215.647 120.183 215.647 123.265C215.647 126.346 218.189 128.839 221.324 128.839C224.456 128.839 227.001 126.346 227.001 123.265C227.001 120.183 224.456 117.684 221.324 117.684ZM194.824 173.321C198.378 173.321 201.464 169.412 204.939 165.365C205.575 164.627 205.508 163.598 204.836 162.929L203.878 162.111C203.123 161.382 201.937 161.407 201.22 162.162C199.102 164.368 197.631 165.572 196.606 165.99V165.993C196.165 165.199 195.485 164.141 196.897 158.57L199.897 146.597C200.927 142.721 201.056 139.63 198.739 137.199C197.479 135.881 195.771 135.182 193.802 135.182C190.273 135.182 186.643 137.191 183.009 141.15C182.177 142.062 179.355 145.358 179.355 145.358L181.671 136.861C182.063 135.417 180.573 134.169 179.193 134.733L173.31 137.155C172.728 137.393 172.321 137.895 172.212 138.495C172.052 139.369 167.378 164.863 167.287 165.326C166.125 171.088 166.787 173.321 168.882 173.321C172.108 173.321 173.439 167.751 174.666 163.117C174.953 162.023 176.118 158.093 176.695 156.989C180.211 150.26 188.76 142.095 191.519 142.095C191.912 142.095 192.149 142.335 192.149 142.832C192.149 144.887 191.501 148.067 190.751 151.754C190.354 153.705 188.606 162.537 188.606 165.09C188.606 169.463 190.99 173.321 194.824 173.321M215.807 173.321C219.357 173.321 222.446 169.412 225.923 165.365C226.554 164.627 226.494 163.598 225.816 162.929L224.859 162.111C224.102 161.382 222.921 161.407 222.201 162.162C220.087 164.368 218.614 165.572 217.589 165.99V166.008C216.67 164.292 216.935 161.354 218.323 156.223C219.728 151.037 223.613 136.8 223.613 136.8C224.019 135.296 222.446 134.137 221.133 134.673L215.245 137.092C214.67 137.33 214.262 137.829 214.149 138.435L210.366 159.094C209.153 165.566 209.491 168.176 211.224 170.676C212.747 172.867 214.513 173.321 215.807 173.321M237.645 173.321C241.197 173.321 244.283 169.412 247.76 165.365C248.394 164.627 248.332 163.598 247.655 162.929L246.699 162.111C245.943 161.382 244.756 161.407 244.039 162.162C241.924 164.368 240.449 165.572 239.429 165.99V166.012C238.506 164.758 238.692 162.044 239.61 158.463C242.714 146.31 251.848 110.268 251.848 110.268C252.225 108.73 250.562 107.628 249.259 108.252L242.79 111.268C242.276 111.514 241.893 112.046 241.797 112.533C241.797 112.533 233.493 152.717 232.178 159.07C231.012 164.712 231.118 167.572 232.991 170.549C234.059 172.246 235.84 173.321 237.645 173.321M259.461 173.321C263.012 173.321 266.102 169.412 269.581 165.365C270.212 164.627 270.151 163.598 269.473 162.929L268.514 162.111C268.338 161.938 268.128 161.802 267.898 161.711C267.668 161.62 267.422 161.575 267.175 161.58C266.928 161.585 266.684 161.638 266.458 161.738C266.231 161.838 266.027 161.982 265.857 162.162C263.739 164.368 262.268 165.572 261.245 165.99V166.012C260.324 164.758 260.513 162.044 261.425 158.463C264.533 146.31 273.668 110.268 273.668 110.268C274.042 108.73 272.38 107.628 271.077 108.252L264.605 111.268C264.095 111.514 263.711 112.046 263.614 112.533C263.614 112.533 255.312 152.717 253.993 159.07C252.828 164.712 252.934 167.572 254.808 170.549C255.874 172.246 257.658 173.321 259.461 173.321" fill="#0092D2"/>
</svg>
