<svg width="480" height="320" viewBox="0 0 480 320" fill="none" xmlns="http://www.w3.org/2000/svg">
<path d="M124.539 205.771H121.326L119.283 202.031H109.526L107.549 205.771H104.457L113.108 189.765H115.826L124.539 205.771ZM114.437 192.825L110.944 199.311H117.926L114.437 192.825ZM130.346 205.771H133.068V189.767H130.346V205.771ZM158.866 205.769H155.47L150.865 199.22H145.242V205.769H142.522V189.765H152.408C155.621 189.765 158.496 190.846 158.496 194.37C158.496 197.923 156.084 198.85 154.196 199.155L158.866 205.769ZM152.686 196.502C154.477 196.502 155.776 196.009 155.776 194.43C155.776 192.641 154.6 192.488 152.533 192.488H145.242V196.502H152.686ZM168.195 205.771H165.475V189.767H174.403C176.937 189.767 180.923 190.104 180.923 194.892C180.923 198.91 178.297 199.963 174.403 199.963H168.194L168.195 205.771ZM174.404 197.245C176.937 197.245 178.206 197.028 178.206 194.891C178.206 192.486 176.6 192.486 174.404 192.486H168.195V197.245H174.404ZM196.494 206.263C190.409 206.263 186.7 202.402 186.7 197.767C186.7 193.135 190.346 189.273 196.494 189.273C202.644 189.273 206.292 193.167 206.292 197.767C206.292 202.402 202.644 206.263 196.494 206.263ZM203.569 197.767C203.569 194.677 200.915 191.991 196.494 191.991C192.079 191.991 189.422 194.677 189.422 197.768C189.422 200.857 192.079 203.542 196.494 203.542C200.942 203.542 203.569 200.857 203.569 197.767ZM230.514 205.769H227.113L222.51 199.22H216.888V205.769H214.167V189.765H224.055C227.268 189.765 230.144 190.846 230.144 194.37C230.144 197.923 227.729 198.85 225.847 199.155L230.514 205.769ZM224.337 196.502C226.123 196.502 227.421 196.009 227.421 194.43C227.421 192.641 226.249 192.488 224.181 192.488H216.888V196.502H224.337ZM243.732 205.771H241.019V192.486H234.838V189.767H249.853V192.486H243.732V205.771ZM284.456 203.419C283.157 204.316 280.659 206.262 276.391 206.262C270.464 206.262 266.786 202.308 266.786 197.767C266.786 193.316 270.309 189.273 276.482 189.273C280.749 189.273 283.128 191.219 284.054 191.895L282.482 194.093C280.717 192.917 278.618 191.99 276.482 191.99C271.852 191.99 269.501 194.803 269.501 197.796C269.501 200.736 271.946 203.547 276.42 203.547C278.278 203.547 280.163 202.926 281.736 202V199.558H277.135V196.841H284.456V203.419ZM307.904 205.769H304.509L299.901 199.22H294.278V205.769H291.562V189.765H301.451C304.664 189.765 307.534 190.846 307.534 194.37C307.534 197.923 305.125 198.85 303.244 199.155L307.904 205.769ZM301.727 196.502C303.521 196.502 304.819 196.009 304.819 194.43C304.819 192.641 303.644 192.488 301.574 192.488H294.278V196.502H301.727ZM325.639 206.263C319.554 206.263 315.848 202.402 315.848 197.767C315.848 193.135 319.489 189.273 325.64 189.273C331.787 189.273 335.434 193.167 335.434 197.767C335.434 202.402 331.788 206.263 325.639 206.263ZM332.714 197.767C332.714 194.677 330.06 191.991 325.639 191.991C321.222 191.991 318.568 194.677 318.568 197.768C318.568 200.857 321.222 203.542 325.639 203.542C330.092 203.542 332.714 200.857 332.714 197.767ZM358.545 198.815C358.545 202.866 357.153 206.262 350.82 206.262C344.518 206.262 343.098 202.867 343.098 198.816V189.765H345.815V198.815C345.815 201.721 346.367 203.544 350.821 203.544C355.271 203.544 355.825 201.721 355.825 198.815V189.765H358.545V198.815ZM370.659 205.771H367.938V189.767H376.868C379.401 189.767 383.388 190.104 383.388 194.892C383.388 198.91 380.756 199.963 376.868 199.963H370.659V205.771ZM376.868 197.245C379.401 197.245 380.668 197.028 380.668 194.891C380.668 192.486 379.058 192.486 376.868 192.486H370.659V197.245H376.868Z" fill="#3B7EC8"/>
<path d="M77.9413 173.192H73.9831L55.3828 134.12H60.5941L76.0142 166.625L91.4364 134.12H96.6484L77.9413 173.192ZM150.571 173.192H145.465L139.106 159.802H120.352L114.207 173.192H109.099L127.698 134.12H132.283L150.571 173.192ZM129.988 139.693L122.646 155.219H137.073L129.988 139.693ZM204.44 173.192H199.854L174.535 141.358H174.433V173.192H169.847V134.12H174.433L199.748 166.369H199.854V134.12H204.44V173.192ZM314.945 173.192H309.835L303.479 159.802H284.725L278.577 173.192H273.472L292.071 134.12H296.656L314.945 173.192ZM294.364 139.693L287.018 155.219H301.448L294.364 139.693ZM369.231 162.306C369.231 169.444 361.625 174.025 351.567 174.025C340.789 174.025 330.309 167.515 330.309 153.395C330.309 142.928 338.857 133.289 351.727 133.289C361.206 133.289 366.104 138.286 368.448 140.528L365.323 143.813C362.876 141.674 358.394 137.869 351.936 137.869C341.568 137.869 334.9 145.424 334.9 153.396C334.9 162.774 341.513 169.444 351.776 169.444C360.322 169.444 364.646 165.585 364.646 161.993V156.517H351.207V151.937H369.231V162.306ZM424.614 173.192H391.373V134.12H423.468V138.7H395.957V150.633H410.437V155.219H395.957V168.609H424.614V173.192Z" fill="#373A4C"/>
<path d="M258.888 138.701H225.75V134.117H258.887L258.888 138.701Z" fill="#3B7EC8"/>
<path d="M244.611 173.192H240.027V142.594H244.611V173.192Z" fill="#373A4C"/>
<path d="M227.004 122.853L240.226 124.491L263.935 113.738H276.361L240.023 130.23L227.004 122.853Z" fill="#3B7EC8"/>
</svg>
