<svg width="480" height="320" viewBox="0 0 480 320" fill="none" xmlns="http://www.w3.org/2000/svg">
<path fill-rule="evenodd" clip-rule="evenodd" d="M320.303 189.477C329.762 189.477 338.183 181.834 339.089 172.376C339.868 162.787 332.872 155.272 323.283 155.272L307.865 155.142C306.311 155.142 305.145 153.978 305.275 152.422C305.404 150.867 306.829 149.702 308.383 149.702H341.941L346.086 134.154H298.149C288.692 134.154 280.27 141.797 279.492 151.385C278.587 160.843 285.711 168.616 295.169 168.616H310.976C312.401 168.616 313.568 169.653 313.438 171.208C313.307 172.766 311.882 173.929 310.327 173.929H279.623L273.792 134.154H249.044L209.01 189.477H228.963L252.932 156.18L254.098 189.477H320.303ZM223.003 134.154H244.77L204.735 189.477H178.303L175.065 134.154H200.718L202.402 162.918L223.003 134.154ZM379.772 149.571C382.106 149.571 383.789 151.516 383.529 153.718C383.4 156.05 381.327 157.863 378.994 157.863H370.186L366.688 171.34H387.935C398.3 171.34 407.37 163.044 408.275 152.682C409.054 142.446 401.54 134.154 391.304 134.154H351.659L336.498 189.477H361.765L372.519 149.702L379.772 149.571ZM85.1488 155.92C84.8903 157.346 84.8903 158.642 84.8903 160.066C84.8903 177.947 99.4011 192.455 117.281 192.455C135.29 192.455 149.801 177.947 149.801 160.066C149.801 142.057 135.29 127.546 117.281 127.546C106.397 127.546 96.6806 132.988 90.7205 141.28L83.3359 138.947C90.332 127.546 102.899 120.031 117.281 120.031C139.435 120.031 157.316 137.911 157.316 160.066C157.316 182.092 139.435 199.973 117.281 199.973C95.2554 199.973 77.375 182.092 77.375 160.066C77.375 158.123 77.5042 156.179 77.7649 154.365L85.1488 155.92Z" fill="#0289B4"/>
<path fill-rule="evenodd" clip-rule="evenodd" d="M116.763 172.633C106.141 160.972 91.3698 152.939 74.9147 150.866L71.6758 156.567C90.0738 158.121 106.269 167.841 116.633 181.96L150.967 142.963L146.433 138.816L116.763 172.633Z" fill="#0289B4"/>
<path fill-rule="evenodd" clip-rule="evenodd" d="M120.647 165.117C109.635 153.976 95.2538 146.202 79.187 143.48L76.0781 148.793C91.8849 150.996 106.008 158.51 116.761 169.392L120.647 165.117Z" fill="#0289B4"/>
<path fill-rule="evenodd" clip-rule="evenodd" d="M125.962 158.898C114.561 147.496 99.7906 139.334 83.2063 135.965L80.2266 141.666C96.4225 144.645 110.803 152.419 121.947 163.69L125.962 158.898Z" fill="#0289B4"/>
<path fill-rule="evenodd" clip-rule="evenodd" d="M87.0625 161.652C98.8454 166.653 108.941 174.746 116.362 184.854L146.292 150.871C147.266 153.697 147.746 156.834 147.746 160.06C147.746 176.807 134.153 190.403 117.283 190.403C101.058 190.403 87.7943 177.645 87.0625 161.653V161.652Z" fill="#FFFF00"/>
<path fill-rule="evenodd" clip-rule="evenodd" d="M141.265 141.234L127.569 157.468C118.839 148.739 108.672 141.908 96.8633 137.603C102.428 132.822 109.639 129.598 117.285 129.598C127.038 129.598 135.432 134.357 141.265 141.234Z" fill="#008A45"/>
</svg>
