<svg width="480" height="320" viewBox="0 0 480 320" fill="none" xmlns="http://www.w3.org/2000/svg">
<path d="M141.811 159.92H118.823C118.605 165.206 120.64 169.01 126.416 169.01C130.538 169.01 134.649 167.722 136.805 166.657L137.895 174.002C134.717 175.651 129.653 177.028 123.886 177.028C114.054 177.028 108.285 171.206 108.285 161.369C108.285 155.394 110.224 148.583 113.558 143.759C117.306 138.23 123.008 134.757 130.08 134.757C138.687 134.757 143.515 140.037 143.515 149.102C143.515 151.382 142.906 156.415 141.811 159.92ZM128.714 141.642C125.475 141.642 122.731 143.986 120.84 147.972C120.065 149.722 119.928 150.199 119.405 152.354H132.962C133.273 151.157 133.561 149.192 133.561 147.902C133.561 143.818 131.819 141.642 128.714 141.642ZM70.3455 188.311H60.1771L55.3828 135.881H66.4987L68.5408 171.525L84.1779 135.881H95.6678L70.3455 188.311ZM166.374 143.449H160.346L156.113 164.775C155.98 165.395 155.289 169.101 158.859 169.292C159.867 169.37 161.361 169.093 162.018 168.786C162.018 168.786 160.275 177.028 152.371 177.028C146.257 177.028 143.467 172.208 144.9 164.998L152.006 129.591C152.006 129.591 156.022 124.837 163.827 126.222C162.476 132.911 161.861 135.882 161.861 135.882L167.878 135.867L166.374 143.449ZM241.151 143.449H235.118L230.876 164.776C230.741 165.395 230.061 169.101 233.634 169.292C234.634 169.37 236.128 169.093 236.783 168.786C236.783 168.786 235.044 177.028 227.14 177.028C221.035 177.028 218.245 172.209 219.69 164.998L226.773 129.592C226.773 129.592 230.806 124.837 238.613 126.222C237.252 132.911 236.63 135.882 236.63 135.882L242.674 135.867L241.151 143.449ZM216.597 159.92H193.607C193.38 165.206 195.416 169.01 201.189 169.01C205.296 169.01 209.416 167.722 211.574 166.657L212.677 174.002C209.494 175.651 204.435 177.028 198.643 177.028C188.842 177.028 183.069 171.206 183.069 161.369C183.069 155.394 184.993 148.583 188.325 143.759C192.088 138.23 197.796 134.757 204.868 134.757C213.471 134.757 218.307 140.037 218.307 149.102C218.307 151.382 217.694 156.415 216.597 159.92ZM203.494 141.642C200.25 141.642 197.494 143.986 195.624 147.972C194.823 149.722 194.697 150.199 194.185 152.354H207.725C208.046 151.157 208.334 149.192 208.334 147.902C208.334 143.818 206.601 141.642 203.494 141.642ZM322.084 143.602C319.418 142.531 316.51 142.453 314.649 143.291L308.075 176.637H297.003L304.661 138.169C309.316 135.501 317.974 133.938 324.754 135.188L322.084 143.602ZM267.991 188.311L268.103 176.628H252.764L246.573 188.311H235.585L265.67 135.881H277.139L279.101 188.311H267.991ZM268.355 147.534L256.8 169.063H268.111L268.355 147.534Z" fill="#ED1D24"/>
<path d="M155.86 194.034C145.921 194.034 140.48 187.248 141.282 180.16C146.205 186.122 155.36 186.139 160.821 181.134C162.835 179.319 164.485 176.388 165.842 169.353C168.193 157.352 172.561 135.883 172.561 135.883H183.693L175.985 174.267C173.441 186.24 165.808 194.034 155.86 194.034ZM100.616 176.628H89.5039L97.6555 135.883H108.786L100.616 176.628ZM291.765 176.628H280.634L288.811 135.883H299.952L291.765 176.628ZM317.216 177.029C315.372 177.029 314.088 175.646 314.088 173.879C314.088 171.491 316.271 169.192 318.687 169.192C320.527 169.192 321.857 170.539 321.857 172.346C321.857 174.726 319.611 177.029 317.216 177.029ZM345.036 152.414C344.485 151.971 343.359 151.393 342.019 151.393C339.811 151.393 337.83 152.694 336.338 155.467C334.918 157.999 334.008 161.931 334.008 164.852C334.008 168.572 335.468 170.539 337.781 170.539C339.29 170.539 340.887 169.98 341.699 169.371L342.395 174.757C341.006 175.995 338.529 177.01 335.182 177.01C329.55 177.01 325.514 172.518 325.514 165.366C325.514 160.919 327.136 155.572 329.55 151.971C332.453 147.702 336.544 145.557 340.729 145.557C344.008 145.557 346.767 146.796 347.716 147.799L345.036 152.414Z" fill="#ED1D24"/>
<path d="M366.945 170.268C364.264 174.43 360.165 177.007 354.69 177.007C347.824 177.007 344.27 172.406 344.27 165.814C344.27 161.37 345.828 155.849 348.186 152.246C350.923 148.019 355.062 145.555 360.375 145.555C367.264 145.555 370.876 150.105 370.876 156.7C370.876 161.152 369.249 166.656 366.945 170.268ZM359.686 151.009C357.434 151.009 355.816 152.817 354.69 155.511C353.455 158.389 352.375 163.551 352.375 166.656C352.375 169.245 353.117 171.047 355.491 171.047C357.82 171.047 359.308 169.368 360.432 166.656C361.636 163.782 362.798 158.553 362.798 155.465C362.798 152.87 361.993 151.009 359.686 151.009ZM415.281 155.484L411.096 176.735H402.64L406.928 155.201C406.974 154.806 407.037 154.474 407.037 154.081C407.037 152.314 405.995 151.056 403.501 151.056C401.984 151.056 400.48 151.736 399.438 152.657L394.669 176.735H386.209L390.499 155.136C390.549 154.747 390.61 154.419 390.61 154.081C390.61 152.196 389.303 151.056 386.759 151.056C385.383 151.056 384.246 151.289 383.167 151.68L378.232 176.735H369.788L375.534 147.827C378.99 146.345 382.967 145.556 387.829 145.556C391.69 145.556 394.82 146.917 396.19 148.621C398.133 147.028 401.823 145.556 406.646 145.556C412.569 145.556 415.493 148.728 415.493 153.27C415.493 153.997 415.437 154.747 415.281 155.484ZM422.59 175.448C422.518 175.372 422.47 175.269 422.443 175.171C422.407 175.074 422.382 174.946 422.361 174.832C422.341 174.714 422.332 174.593 422.331 174.473C422.325 174.343 422.323 174.242 422.312 174.105C422.304 173.984 422.279 173.877 422.254 173.755C422.231 173.654 422.189 173.549 422.144 173.452C422.088 173.368 422.021 173.286 421.932 173.219C421.852 173.162 421.741 173.116 421.613 173.099H421.609C421.888 173.019 422.098 172.849 422.231 172.633C422.354 172.412 422.424 172.137 422.424 171.843C422.424 171.441 422.291 171.12 422.044 170.885C421.791 170.652 421.43 170.536 420.976 170.536H418.76V175.473H419.415V173.381H420.926C421.077 173.381 421.184 173.408 421.281 173.452C421.373 173.511 421.443 173.561 421.493 173.639C421.552 173.717 421.602 173.809 421.617 173.914C421.651 174.028 421.674 174.131 421.689 174.255C421.71 174.366 421.731 174.488 421.731 174.618L421.741 174.965C421.747 175.074 421.749 175.171 421.779 175.251C421.789 175.351 421.821 175.412 421.884 175.473H422.602L422.59 175.448ZM419.415 171.12H420.953C421.233 171.12 421.443 171.204 421.567 171.345C421.697 171.505 421.768 171.7 421.768 171.948C421.768 172.116 421.741 172.269 421.682 172.368C421.617 172.475 421.541 172.57 421.453 172.633C421.354 172.692 421.241 172.75 421.113 172.763C420.976 172.792 420.844 172.799 420.705 172.799H419.415V171.12Z" fill="#ED1D24"/>
<path d="M420.594 177.219C418.373 177.219 416.566 175.333 416.566 173.003C416.566 170.683 418.373 168.801 420.594 168.801C422.812 168.801 424.615 170.683 424.615 173.003C424.615 175.333 422.812 177.219 420.594 177.219ZM420.594 169.418C418.699 169.418 417.171 171.032 417.171 173.003C417.171 174.99 418.699 176.587 420.594 176.587C422.483 176.587 424.012 174.99 424.012 173.003C424.012 171.032 422.483 169.418 420.594 169.418Z" fill="#ED1D24"/>
</svg>
