<svg width="480" height="320" viewBox="0 0 480 320" fill="none" xmlns="http://www.w3.org/2000/svg">
<path d="M92.948 178.275C92.2925 178.647 87.6038 182.621 78.2732 182.621C70.4124 182.625 62.0184 178.598 59.3818 178.676C58.4548 178.637 57.7113 178.825 57.1268 179.082C56.0262 179.544 54.9573 178.869 55.5541 177.739C57.6232 173.829 61.1305 171.422 64.4544 170.419C66.8781 169.688 69.0917 169.441 70.2412 170.718C72.7653 173.521 77.3291 176.981 81.7658 177.436C82.1229 177.473 83.7346 177.607 83.7518 177.152C83.7694 176.874 83.2209 176.693 82.6658 176.651C78.1337 176.323 69.9673 171.473 65.4791 162.081C63.7941 158.557 62.4561 155.14 59.5237 153.653C58.8731 153.34 58.8536 152.139 60.2183 151.814C61.1745 151.587 67.2035 151.007 74.0981 154.636C77.263 156.302 77.7058 157.796 77.7155 159.1C77.6885 168.942 82.6682 172.848 84.5931 174.002C85.6644 174.643 86.6672 174.917 86.7748 174.582C86.8603 174.301 86.5791 174.11 86.332 173.961C80.3619 170.336 78.7843 164.76 78.7379 159.083C78.6939 153.467 80.7728 148.608 82.2475 144.626C82.4653 144.063 83.1648 141.691 82.5704 139.495C82.1252 137.856 82.4872 137.379 83.3481 137.379C84.2947 137.379 85.5542 138.91 85.9775 139.436C86.3173 139.83 87.4156 141.17 89.0787 144.455C92.3682 150.958 92.3903 157.752 92.3903 158.584C92.3903 163.253 91.187 163.794 89.2255 164.762C87.2663 165.731 86.3345 166.978 86.332 168.426C86.3281 169.913 87.3641 171.461 89.2255 172.007C90.666 172.427 91.5807 172.268 91.505 171.894C91.4463 171.598 90.8078 171.525 90.6219 171.473C88.6581 170.94 87.3569 169.935 87.3569 168.426C87.3569 166.543 89.6779 165.161 92.9431 165.161C96.2107 165.161 98.5316 166.543 98.5316 168.426C98.5316 169.935 97.233 170.943 95.2689 171.473C95.0831 171.525 94.4448 171.598 94.3861 171.894C94.3104 172.271 95.2249 172.43 96.6679 172.007C98.5267 171.464 99.5614 169.915 99.5589 168.426C99.5569 166.98 98.6246 165.731 96.6679 164.762C94.7064 163.794 93.5007 163.253 93.5007 158.587C93.5007 157.755 93.5252 150.958 96.8123 144.455C98.4755 141.172 99.5736 139.83 99.9136 139.436C100.337 138.91 101.596 137.379 102.543 137.379C103.404 137.379 103.766 137.856 103.321 139.495C102.731 141.691 103.426 144.063 103.641 144.626C105.118 148.613 107.2 153.467 107.156 159.083C107.107 164.762 105.532 170.338 99.5614 173.963C99.3168 174.11 99.0282 174.301 99.1186 174.582C99.2237 174.92 100.227 174.648 101.298 174.005C103.225 172.85 108.202 168.942 108.178 159.1C108.186 157.796 108.628 156.302 111.795 154.636C118.69 151.007 124.719 151.589 125.673 151.814C127.038 152.139 127.02 153.343 126.37 153.653C123.435 155.14 122.097 158.56 120.414 162.081C115.926 171.473 107.757 176.326 103.225 176.654C102.67 176.693 102.12 176.876 102.139 177.155C102.157 177.607 103.768 177.473 104.125 177.436C108.562 176.984 113.126 173.523 115.65 170.718C116.802 169.443 119.013 169.688 121.439 170.422C124.76 171.422 128.268 173.829 130.337 177.742C130.936 178.872 129.867 179.544 128.764 179.085C128.18 178.828 127.436 178.64 126.509 178.676C123.875 178.6 115.481 182.626 107.615 182.624C98.2871 182.624 93.6009 178.647 92.948 178.275Z" fill="#D99E09"/>
<path d="M331.752 163.794C331.752 162.187 333.476 161.334 335.369 161.334C338.595 161.334 338.233 163.904 340.537 163.904C341.584 163.904 342.222 163.307 342.222 162.28C342.222 160.505 339.862 159.326 336.193 159.206C332.681 159.093 330.856 159.712 329.599 160.204C328.188 160.757 327.564 161.559 327.564 162.816V180.247C327.564 181.167 328.01 181.167 329.66 181.167C331.302 181.167 331.752 181.167 331.752 180.247V163.794ZM225.805 166.893C225.814 160.275 220.045 159.228 215.862 159.228C212.487 159.228 209.457 160.082 208.033 160.71C206.627 161.334 206.507 162.112 206.507 163.395L206.517 180.267C206.517 181.184 206.967 181.184 208.611 181.184C210.259 181.184 210.707 181.184 210.707 180.267L210.697 164.692C210.697 163.315 211.186 161.417 215.963 161.417C220.48 161.417 221.61 164.088 221.61 166.893L221.618 180.267C221.618 181.184 222.07 181.184 223.706 181.184C225.357 181.184 225.805 181.184 225.805 180.267V166.893H225.805ZM319.359 180.237C319.359 181.155 319.811 181.155 321.445 181.155C323.091 181.155 323.541 181.155 323.541 180.237L323.559 160.372C323.576 158.912 321.565 159.279 320.54 159.949C319.391 160.695 319.354 161.072 319.354 162.52L319.36 180.237H319.359ZM297.192 168.515C297.811 166.935 301.788 156.535 301.998 155.948C302.059 155.782 302.231 155.782 302.297 155.952C302.58 156.681 306.596 166.899 307.191 168.482C307.323 168.827 307.369 169.11 306.912 169.11H297.53C296.953 169.11 297.092 168.763 297.192 168.514M308.761 172.351C310.187 175.736 312.151 180.454 312.151 180.454C312.398 181.053 312.175 181.2 314.651 181.2C317.272 181.2 317.431 181.117 316.915 179.95C316.776 179.635 306.362 154.622 305.784 153.257C305.205 151.889 304.955 151.789 302.788 151.789C300.643 151.789 300.365 151.846 299.77 153.257C299.166 154.692 288.713 179.816 288.583 180.131C288.143 181.2 288.537 181.2 290.312 181.2C291.975 181.2 292.169 181.148 292.484 180.439L295.708 172.373C295.901 171.884 295.965 171.688 296.537 171.688C298.743 171.688 305.029 171.688 307.93 171.679C308.485 171.677 308.543 171.835 308.761 172.351ZM323.881 153.284C323.649 152.19 322.431 151.525 321.032 151.821C319.63 152.114 318.794 153.213 319.026 154.304C319.261 155.394 320.476 156.06 321.878 155.764C323.279 155.47 324.116 154.372 323.881 153.284ZM343.584 180.258C343.584 181.178 344.034 181.178 345.671 181.178C347.314 181.178 347.767 181.178 347.767 180.258L347.784 151.782C347.802 150.324 345.791 150.691 344.764 151.361C343.619 152.11 343.58 152.481 343.58 153.929L343.584 180.258H343.584ZM356.965 153.291C356.73 152.2 355.517 151.535 354.116 151.831C352.714 152.124 351.876 153.223 352.11 154.313C352.343 155.404 353.561 156.069 354.96 155.776C356.361 155.48 357.2 154.382 356.965 153.291ZM352.443 180.246C352.443 181.163 352.895 181.163 354.529 181.163C356.173 181.163 356.625 181.163 356.625 180.246L356.643 160.381C356.661 158.921 354.65 159.288 353.62 159.958C352.475 160.704 352.439 161.078 352.439 162.529L352.442 180.246H352.443ZM380.482 166.912C380.493 160.293 374.724 159.246 370.542 159.246C367.164 159.246 364.134 160.1 362.71 160.729C361.304 161.35 361.184 162.13 361.184 163.414L361.196 180.285C361.196 181.2 361.648 181.2 363.287 181.2C364.936 181.2 365.383 181.2 365.383 180.285L365.379 164.71C365.379 163.336 365.866 161.436 370.64 161.436C375.155 161.436 376.288 164.106 376.288 166.912L376.297 180.285C376.297 181.2 376.745 181.2 378.384 181.2C380.037 181.2 380.482 181.2 380.482 180.285V166.912H380.482ZM424.616 175.32C424.452 167.988 410.763 169.333 410.758 164.221C410.756 162.223 412.813 161.301 415.038 161.301C418.245 161.301 419.306 162.372 419.976 163.933C420.289 164.661 420.923 165.329 422.146 165.329C423.068 165.329 423.846 164.742 423.846 163.664C423.846 162.042 421.591 159.185 415.432 159.144C410.333 159.109 406.879 161.054 406.874 165.082C406.868 172.627 420.573 171.018 420.551 176.252C420.541 178.414 418.526 179.414 415.601 179.444C412.683 179.476 411.123 178.292 410.279 176.245C409.868 175.413 409.325 174.665 408.056 174.687C406.908 174.706 406.228 175.442 406.228 176.563C406.228 178.101 408.904 181.674 415.408 181.674C420.735 181.674 424.709 179.527 424.616 175.32ZM161.16 180.246C161.16 181.163 161.612 181.163 163.246 181.163C164.892 181.163 165.344 181.163 165.344 180.246L165.358 160.381C165.378 158.921 163.365 159.288 162.34 159.958C161.19 160.704 161.156 161.078 161.156 162.529L161.158 180.246H161.16ZM238.674 181.674C242.164 181.699 243.935 181.075 246.031 180.117C247.601 179.373 247.601 178.541 247.601 177.578V165.605C247.601 161.044 243.81 159.149 239.464 159.156C232.371 159.174 229.549 162.216 229.436 164.187C229.378 165.236 230.002 166.004 231.224 166.031C232.415 166.058 233.127 165.275 233.406 164.625C234.277 162.585 235.778 161.323 238.875 161.323C241.301 161.323 243.47 162.436 243.461 165.319V166.591C243.461 166.98 243.461 167.061 243.121 167.102C236.735 168.125 228.439 170.133 228.439 176C228.439 179.649 232.814 181.669 238.674 181.674ZM243.466 176.592C243.466 178.806 240.584 179.39 238.454 179.39C234.693 179.39 232.824 177.783 232.824 175.663C232.824 171.798 237.813 170.404 243.016 169.311C243.292 169.252 243.461 169.223 243.461 169.617L243.467 176.592H243.466ZM165.684 153.291C165.45 152.2 164.234 151.535 162.833 151.831C161.434 152.124 160.595 153.223 160.827 154.313C161.062 155.404 162.28 156.069 163.681 155.776C165.08 155.48 165.919 154.382 165.684 153.291ZM278.683 180.283C278.683 181.2 279.13 181.193 280.776 181.198C282.415 181.2 282.868 181.2 282.868 180.283V166.083C282.868 160.435 277.568 159.266 274.43 159.266C270.763 159.266 268.677 160.315 267.251 161.893C265.727 160.235 263.692 159.266 260.126 159.266C257.669 159.266 255.272 159.856 253.127 160.807C251.576 161.494 251.576 162.406 251.576 163.292V180.283C251.576 181.2 252.033 181.2 253.67 181.2C255.308 181.2 255.761 181.2 255.761 180.283L255.767 164.456C255.767 162.096 257.66 161.448 260.142 161.448C263.234 161.448 265.127 162.9 265.127 166.547V180.283C265.127 181.2 265.579 181.2 267.223 181.2C268.864 181.2 269.309 181.2 269.309 180.283V166.276C269.309 163.5 270.762 161.433 274.093 161.433C277.326 161.433 278.706 163.544 278.706 166.339L278.684 180.283H278.683ZM173.389 166.863C173.76 164.251 175.754 161.357 179.694 161.325C182.993 161.298 185.889 163.304 186.041 166.254C186.083 167.102 185.86 167.208 184.85 167.208H173.709C173.399 167.208 173.359 167.068 173.389 166.863ZM190.206 174.733C190.206 174.357 189.917 173.978 189.387 173.978C188.905 173.978 188.663 174.149 188.374 174.65C187.264 176.531 184.544 178.735 180.924 178.771C176.035 178.818 173.213 175.303 173.335 169.874C173.335 169.688 173.413 169.529 173.695 169.521C173.976 169.513 181.347 169.51 188.78 169.523C190.204 169.525 190.228 168.579 190.228 167.801C190.228 163.304 186.038 159.151 180.032 159.151C173.795 159.151 169.006 162.553 169.006 170.377C169.006 178.702 175.228 181.657 180.533 181.657C186.943 181.657 190.206 176.699 190.206 174.733M387.604 166.862C387.976 164.25 389.972 161.357 393.909 161.325C397.209 161.298 400.104 163.304 400.256 166.253C400.3 167.102 400.078 167.207 399.065 167.207H387.927C387.616 167.207 387.575 167.068 387.604 166.862ZM404.421 174.733C404.421 174.356 404.133 173.977 403.602 173.977C403.12 173.977 402.88 174.148 402.589 174.65C401.481 176.53 398.757 178.734 395.139 178.771C390.25 178.817 387.428 175.303 387.55 169.873C387.55 169.687 387.631 169.528 387.91 169.521C388.193 169.513 395.563 169.509 402.995 169.523C404.421 169.525 404.443 168.579 404.443 167.801C404.443 163.303 400.254 159.15 394.247 159.15C388.012 159.15 383.221 162.552 383.221 170.376C383.221 178.702 389.446 181.656 394.746 181.656C401.159 181.656 404.421 176.699 404.421 174.732M143.114 179.727C143.687 181.094 143.819 181.199 146 181.199C148.102 181.199 148.148 181.116 148.759 179.712C149.371 178.311 157.339 158.27 159.457 153.026C159.927 151.862 159.724 151.764 157.846 151.764C156.199 151.764 156.048 151.859 155.735 152.568C155.735 152.568 146.803 175.41 146.61 175.936C146.563 176.085 146.372 176.097 146.292 175.918C146.005 175.27 136.936 152.502 136.936 152.502C136.719 151.92 136.662 151.709 134.209 151.709C131.543 151.709 131.72 151.966 132.25 153.28C132.38 153.595 142.54 178.357 143.114 179.726M194.251 159.521C193.271 159.537 191.937 159.523 191.937 159.523C191.275 159.523 191.27 159.888 191.27 160.634C191.27 161.343 191.272 161.715 191.935 161.715H194.251C194.728 161.713 194.743 161.766 194.738 162.263C194.728 163.309 194.738 175.932 194.738 175.932C194.738 180.909 197.401 181.504 200.033 181.545C202.638 181.582 204.347 180.812 204.316 179.892C204.298 179.359 203.946 179.119 203.34 179.188C202.914 179.236 202.616 179.366 202.046 179.366C200.664 179.366 198.93 178.994 198.93 175.966L198.928 162.307C198.924 161.779 198.928 161.712 199.454 161.715H203.225C203.883 161.715 203.908 161.343 203.908 160.634C203.908 159.9 203.883 159.521 203.225 159.521H199.435C198.923 159.519 198.933 159.469 198.931 159.029V154.431C198.929 153.695 198.368 153.433 197.918 153.473C197.588 153.502 197.197 153.715 196.267 154.321C195.054 155.116 194.739 155.622 194.739 157.07V158.995C194.737 159.523 194.717 159.514 194.252 159.521" fill="#005E80"/>
</svg>
