<svg width="480" height="320" viewBox="0 0 480 320" fill="none" xmlns="http://www.w3.org/2000/svg">
<path fill-rule="evenodd" clip-rule="evenodd" d="M55.3828 133.367H273.309L268.395 145.69C268.395 145.69 208.495 136.823 93.7721 134.316C58.0486 133.536 55.4573 134.316 55.4573 134.316L55.3828 133.367ZM76.937 149.164H100.112L108.241 173.549L128.968 148.965H147.281L113.56 186.624H91.7417L76.937 149.164ZM150.092 149.164H171.182L158.584 186.624H137.217L150.092 149.164ZM176.894 149.286H197.38L191.912 165.904L219.228 148.965H240.44L215.452 163.487L229.651 186.624H207.805L198.953 171.253L187.922 177.568L184.782 186.624H163.903L176.894 149.286ZM246.756 149.286H267.484L255.005 186.624H233.763L246.756 149.286ZM273.073 149.286H293.803L311.631 168.957L318.792 148.965H336.741L324.141 186.624H307.159L285.918 164.697L279.118 186.624H260.201L273.073 149.286ZM383.548 161.916L403.624 160.453C403.624 160.453 403.622 148.192 371.836 148.277C344.925 148.347 333.479 162.398 333.479 170.165C333.476 182.063 344.353 186.296 364.147 186.624C380.527 186.9 384.499 182.49 384.499 182.49L384.571 186.624H395.453L402.372 166.026H369.376L366.929 174.033H378.469C378.469 174.033 376.174 179.26 367.804 179.019C359.434 178.776 356.746 176.965 357.349 169.317C357.953 161.673 364.89 157.027 372.397 157.052C381.928 157.079 383.548 161.916 383.548 161.916" fill="#00264F"/>
<path fill-rule="evenodd" clip-rule="evenodd" d="M415.498 148.501L417.177 145.344L418.822 148.462L420.206 147.801C420.206 147.801 419.356 151.863 419.502 152.009C419.651 152.156 421.716 150.181 421.716 150.181C421.716 150.181 421.716 151.011 422.126 151.157C422.66 151.351 423.162 151.306 423.676 151.177C424.193 151.045 424.379 151.031 424.379 151.031C424.379 151.031 423.845 152.114 423.9 152.655C423.947 153.18 423.992 153.316 424.248 153.523C424.506 153.726 424.618 153.89 424.618 153.89C424.618 153.89 424.101 154.409 423.105 155.147C422.106 155.885 421.627 156.235 421.386 156.531C421.147 156.829 421.073 157.195 421.073 157.361C421.073 157.53 421.132 157.843 421.204 158.099C421.276 158.36 421.256 158.377 421.256 158.377C421.256 158.377 419.651 158.079 419.006 158.027C418.36 157.975 418.173 157.845 417.897 157.975C417.619 158.099 417.696 158.268 417.696 158.268L417.768 161.515L416.531 161.535C416.531 161.535 416.697 158.285 416.643 158.139C416.586 157.987 416.419 157.935 416.181 157.935C415.942 157.935 413.043 158.414 413.043 158.414C413.043 158.414 413.542 157.51 413.063 156.772C412.578 156.032 409.719 153.798 409.719 153.798C409.719 153.798 410.399 153.393 410.439 153.023C410.477 152.655 410.402 152.007 410.255 151.659C410.172 151.46 410.085 151.262 409.997 151.065C409.997 151.065 411.363 151.644 412.357 151.103C412.591 150.976 412.785 150.362 412.73 150.273C412.673 150.181 413.947 151.398 413.947 151.398L414.705 152.079C414.705 152.079 414.817 152.027 414.817 151.915C414.817 151.803 414.389 149.053 414.223 148.571C414.057 148.094 414.022 147.853 414.131 147.853C414.24 147.853 414.889 148.149 414.889 148.149L415.331 148.427L415.498 148.501Z" fill="#C92327"/>
</svg>
