<svg width="480" height="320" viewBox="0 0 480 320" fill="none" xmlns="http://www.w3.org/2000/svg">
<path d="M138.93 114.713C135.362 111.688 132.515 110.863 127.77 110.863H55.3828L102.809 204.047C104.635 207.631 107.024 209.135 110.406 209.135H172.202C175.072 209.135 176.783 207.645 177.947 205.039L186.417 186.059L196.485 163.503L138.93 114.713ZM150.892 140.565C151.387 140.499 151.795 140.417 152.296 140.487C152.959 140.579 152.991 141.546 152.81 142.039C152.516 142.834 151.582 143.899 150.864 144.346C150.538 144.548 150.184 144.39 149.82 144.411C149.26 144.442 148.921 143.841 148.742 143.398C148.36 142.487 148.967 143.955 148.742 143.398C148.322 142.398 149.936 140.661 150.892 140.565ZM146.388 160.555C146.411 159.568 146.658 158.627 146.683 157.626C146.725 155.964 147.028 154.478 147.144 152.869C147.21 151.952 147.306 150.762 147.8 149.986C148.224 149.32 148.509 148.693 149.282 148.36C149.598 148.225 150.038 148.205 150.378 148.239C151.064 148.308 150.612 148.802 150.902 149.12C150.934 149.07 150.976 149.059 151.029 149.087C151.03 149.186 151.032 149.285 151.032 149.385C151.372 149.416 151.005 149.859 151.021 150.107C151.081 150.666 151.027 151.191 150.763 151.72C150.829 151.738 150.898 151.743 150.966 151.737C150.968 151.755 150.917 151.905 150.906 151.918C150.711 152.046 150.744 152.098 150.77 152.482C150.784 152.697 150.908 153.148 150.746 153.32C150.718 153.349 150.712 153.947 150.732 154.045C150.761 154.189 150.711 155.122 150.725 155.14C150.764 155.127 150.798 155.102 150.821 155.067C150.784 155.056 150.877 156.284 150.788 156.385C150.66 156.53 150.501 156.689 150.538 156.909C150.554 157.002 150.867 157.651 150.772 157.698C150.681 157.75 150.611 157.503 150.57 157.503C150.432 157.503 150.806 158.028 150.775 158.073C150.702 158.173 150.496 157.723 150.411 158.099C150.33 158.459 150.386 158.861 150.409 159.225C150.429 159.553 150.395 159.841 150.382 160.169C150.359 160.709 150.562 161.385 150.312 161.893C149.739 163.059 147.16 164.884 146.306 163.128C146.403 163.335 146.561 163.682 146.292 163.104C146.228 162.963 146.245 162.999 146.285 163.081C145.959 162.325 146.37 161.339 146.388 160.555H146.388ZM126.453 159.218C126.426 159.032 127.777 158.593 127.954 158.543C128.218 158.468 128.565 158.518 128.826 158.575C129.412 158.708 129.328 158.946 129.496 159.404C129.68 159.906 129.725 159.999 129.614 160.555C129.52 161.023 129.389 161.443 128.946 161.691C128.43 162.108 127.911 162.534 127.397 162.946C126.89 163.353 126.468 163.857 126.158 164.428C125.975 164.759 126.005 165.126 125.865 165.438C125.518 166.21 125.564 167.014 125.465 167.816C125.245 169.571 125.422 171.356 125.194 173.098C125.016 174.46 123.528 176.194 122 176.087C120.778 176.001 120.772 174.515 120.796 173.593C120.811 173.05 120.918 172.544 120.974 172.007C121.033 171.45 120.895 171.062 121.02 170.497C121.099 170.145 120.925 169.755 120.996 169.352C121.035 169.134 121.041 168.973 121.087 168.77C121.239 168.087 121.266 167.364 121.32 166.668C121.439 165.098 121.275 163.446 121.703 161.923C121.897 161.233 122.438 160.755 122.995 160.334C123.271 160.147 124.063 160.12 124.233 159.867C124.926 160.049 125.925 159.393 126.568 159.24C126.551 159.167 126.512 159.161 126.453 159.218L126.453 159.218ZM109.359 169.149C109.271 169.433 109.12 169.7 109.085 170C109.048 170.315 109.148 170.548 109.032 170.863C108.927 171.152 108.863 171.375 108.839 171.683C108.79 172.31 108.57 172.905 108.489 173.528C108.461 173.744 108.364 174.127 108.494 174.329C108.611 174.509 108.763 174.609 108.719 174.857C108.593 175.553 108.213 176.134 108.079 176.818C108.005 177.194 107.757 178.165 107.947 178.507C108.132 178.84 107.784 179.611 107.648 180.056C107.339 181.08 107.163 182.334 107.1 183.397C107.019 184.745 106.705 186.025 106.61 187.365C106.486 189.101 106.35 191.018 105.956 192.717C105.792 193.42 105.52 194.248 104.865 194.64C104.226 195.024 103.223 195.028 102.713 194.443C101.964 193.584 101.892 192.112 101.665 191.051C101.367 189.657 101.306 188.224 100.981 186.834C100.863 186.327 100.958 185.462 100.612 185.054C100.497 184.918 100.383 184.179 100.362 183.983C100.324 183.614 100.427 183.293 100.352 182.902C100.282 182.534 100.18 182.181 100.09 181.819C99.786 180.587 99.6008 179.188 99.4675 177.923C99.3361 176.678 99.0426 175.475 98.9336 174.218C98.8104 172.798 98.4702 171.42 98.3168 170.003C98.1864 168.806 98.2193 167.495 97.7645 166.364C97.6353 166.043 97.4837 165.728 97.4807 165.374C97.4796 165.261 97.6301 164.891 97.5774 164.785C97.4624 164.56 97.2481 164.878 97.2227 164.537C97.1469 163.479 96.079 164.824 96.1746 165.263C95.8446 164.987 95.9084 165.607 95.9121 165.77C95.9196 166.05 95.5742 166.411 95.4603 166.677C95.025 167.695 94.8637 168.851 94.4507 169.903C94.0982 170.799 93.7297 171.792 92.9504 172.406C92.1607 173.028 90.9677 172.837 90.4801 171.914C89.9667 170.94 90.6799 169.774 90.9831 168.851C91.3471 167.744 91.5991 166.552 92.1163 165.504C92.6331 164.457 92.9127 163.225 93.2824 162.118C93.9321 160.175 94.6012 158.215 95.1601 156.245C95.6272 154.598 96.6429 152.118 98.785 153.332C99.8062 153.91 99.9115 155.067 100.097 156.131C100.311 157.367 100.506 158.603 100.723 159.838C101.003 161.432 101.283 162.882 101.438 164.506C101.507 165.237 101.752 165.931 101.978 166.623C102.162 167.182 102.196 167.85 102.415 168.383C102.555 168.724 102.481 169.141 102.577 169.542C102.719 170.137 102.751 170.729 102.943 171.314C103.15 171.944 102.753 172.528 102.96 173.102C103.135 173.585 103.464 174.286 103.35 174.803C103.242 175.297 103.465 175.721 103.444 176.232C103.427 176.678 103.754 176.938 103.638 177.433C103.534 177.895 104.083 177.979 104.207 177.461C104.299 177.081 104.313 176.683 104.329 176.293C104.373 175.173 104.553 174.046 104.767 172.945C105.348 169.954 105.747 166.935 106.343 163.945C107.488 158.221 109.176 152.667 110.614 147.033C110.931 145.794 111.495 144.636 111.88 143.411C112.333 141.966 112.887 140.552 113.41 139.131C114.502 136.162 115.568 133.188 116.702 130.236C117.476 128.219 118.545 125.469 121.082 125.303C123.243 125.161 124.92 127.56 124.28 129.578C124.111 130.111 123.718 130.492 123.436 130.954C123.359 131.081 123.386 131.257 123.349 131.398C123.269 131.695 123.12 131.601 122.919 131.775C122.086 132.497 121.226 133.291 120.624 134.232C119.341 136.238 118.61 138.471 117.565 140.619C117.263 141.239 117.236 141.937 116.945 142.574C116.713 143.08 116.358 143.55 116.213 144.09C115.887 145.314 115.279 146.457 114.929 147.671C114.717 148.41 114.729 149.156 114.356 149.855C114.226 150.077 114.346 150.341 114.259 150.573C114.105 150.717 114.023 150.982 113.964 151.176C113.615 152.334 113.17 153.505 113.097 154.723C113.054 155.44 112.936 155.726 112.561 156.297C112.285 156.716 112.265 157.293 112.058 157.75C111.516 158.954 111.171 160.263 110.81 161.532C110.627 162.175 110.549 162.867 110.43 163.524C110.326 164.09 110.118 164.611 110.114 165.194C110.109 165.803 109.939 166.089 109.731 166.629C109.543 167.116 109.716 167.645 109.585 168.138C109.64 168.069 109.664 168.075 109.524 168.355C109.264 168.579 109.445 168.871 109.359 169.149ZM118.054 165.91C118.269 166.489 117.796 167.406 117.808 168.005C117.82 168.662 117.657 169.4 117.588 170.061C117.504 170.883 117.367 171.671 117.255 172.499C117.15 173.279 117.109 174.061 117.016 174.841C116.929 175.569 116.992 176.373 116.812 177.078C116.694 177.544 116.518 178.059 116.531 178.544C116.536 178.787 116.683 178.533 116.803 178.596C116.958 178.679 116.618 179.282 116.509 178.874C116.425 178.949 116.472 179.145 116.361 179.191C116.125 179.288 116.071 179.234 115.851 179.483C115.52 179.858 114.807 180.261 114.349 180.46C112.797 181.14 112.829 179.078 112.793 178.206C112.711 176.243 113.156 174.162 113.099 172.244C113.083 171.74 113.209 171.213 113.275 170.714C113.339 170.244 113.268 169.86 113.268 169.42C113.269 168.43 113.372 167.045 113.764 166.156C114.295 164.921 115.058 163.843 116.392 163.434C116.832 163.298 117.448 163.282 117.717 163.735C117.848 163.954 117.856 164.96 118.186 164.955C118.189 164.986 118.172 165 118.15 165.003C118.071 165.051 117.873 165.052 117.858 165.224C117.837 165.481 117.969 165.683 118.054 165.91ZM117.009 158.279C116.779 158.312 115.932 158.392 115.907 158.011C115.892 157.788 115.607 157.567 115.587 157.245C115.566 156.898 115.674 156.55 115.801 156.23C116.145 155.36 116.68 155.105 117.337 154.538C117.735 154.196 118.755 153.527 119.303 153.902C119.602 154.108 120.096 154.974 119.883 155.346C119.866 155.376 120.048 155.062 119.883 155.346C119.709 155.644 119.689 156.073 119.524 156.343C119.244 156.801 118.866 157.062 118.459 157.382C118.031 157.72 117.566 158.198 117.009 158.279ZM174.59 157.01C173.499 157.719 172.224 158.136 170.993 158.525C168.248 159.391 165.761 160.517 163.219 161.872C160.671 163.23 158.056 164.465 155.581 165.958C153.297 167.335 151.023 168.704 148.707 170.031C147.713 170.6 146.882 171.356 145.877 171.913C145.293 172.237 144.711 172.625 144.2 173.068C143.778 173.434 143.135 173.812 142.779 174.219C142.109 174.985 142.802 176.069 142.414 176.871C142.291 177.124 142.4 177.042 142.492 177.208C142.593 177.39 142.415 177.653 142.364 177.815C142.221 178.27 142.331 179.189 142.346 179.682C142.36 180.119 142.43 180.54 142.412 180.979C142.395 181.418 142.16 181.906 142.373 182.331C142.447 182.905 142.205 183.469 142.233 184.044C142.262 184.647 142.309 185.213 142.3 185.822C142.296 186.114 142.319 186.411 142.437 186.683C142.34 186.792 142.169 186.878 142.11 187.019C141.944 187.419 142.344 187.426 142.368 187.673C142.313 187.758 142.227 187.792 142.112 187.776C142.272 188.059 142.443 188.407 142.273 188.697C142.148 188.909 142.006 189.12 142.198 189.351C142.115 189.573 142.54 189.748 142.444 189.953C142.372 190.108 142.227 190.238 142.166 190.395C142.049 190.69 142.524 190.762 142.239 191.023C142.046 191.201 142.225 191.34 142.353 191.48C142.59 191.738 142.248 191.765 142.283 192.067C142.351 192.664 142.735 193.198 142.727 193.811C142.718 194.413 142.25 194.893 142.811 195.28C143.104 195.482 143.428 197.068 142.77 196.866C143.078 196.96 142.747 197.369 142.779 197.568C142.833 197.907 143.476 197.831 143.498 198.286C143.509 198.506 143.301 198.64 143.125 198.708C143.195 198.913 143.26 199.121 143.358 199.315C143.488 199.575 143.761 199.928 143.576 200.272C143.515 200.384 143.384 200.422 143.42 200.58C143.509 200.969 143.351 200.795 143.19 201.187C142.972 201.719 142.427 202.103 141.908 202.301C140.707 202.763 139.372 202.196 138.774 201.082C138.161 199.943 138.352 198.509 138.397 197.267C138.453 195.647 138.568 194.03 138.581 192.408C138.601 189.831 138.756 187.209 138.641 184.626C138.617 183.131 138.614 181.635 138.632 180.139C138.641 179.39 138.657 178.641 138.681 177.892C138.689 177.642 138.907 176.994 138.473 177.155C137.274 177.6 136.174 178.766 135.207 179.567C132.068 182.166 128.945 184.779 125.725 187.282C124.7 188.078 123.802 188.984 122.898 189.91C121.928 190.903 120.783 191.729 119.872 192.77C119.014 193.749 118.132 194.677 117.242 195.624C116.299 196.63 115.424 197.842 114.341 198.697C113.917 199.011 113.509 199.364 113.154 199.756C112.827 200.116 112.013 200.189 111.535 200.114C110.462 199.944 109.471 198.939 109.573 197.805C109.668 196.741 110.557 195.89 111.261 195.173C112.3 194.115 113.333 193.057 114.431 192.059C118.664 188.207 123.067 184.538 127.522 180.953C129.802 179.118 132.236 177.498 134.573 175.739C135.764 174.844 136.926 173.915 138.149 173.064C138.858 172.57 138.749 171.511 138.704 170.731C138.668 170.091 137.522 170.958 137.27 171.216C137.05 171.444 136.188 171.681 135.888 171.745C135.208 171.892 134.387 172.094 133.693 172.031C133.031 171.972 131.614 171.455 131.377 170.712C131.173 170.067 130.872 169.43 130.906 168.736C130.939 168.075 131.011 167.416 131.011 166.755C131.011 166.172 130.823 165.607 130.843 165.031C130.867 164.355 131.019 163.692 131.047 163.013C131.099 161.712 131.286 160.342 131.853 159.157C132.637 157.021 134.084 155.034 136.258 154.192C137.234 153.815 138.324 153.983 138.078 155.251C137.883 156.249 137.197 156.742 136.689 157.537C136.666 157.78 136.398 157.949 136.277 158.137C136.115 158.39 136.009 158.673 135.911 158.955C135.739 159.46 135.472 159.876 135.374 160.402C135.294 160.834 135.054 161.23 135.011 161.666C134.955 162.235 135.049 162.794 134.988 163.382C134.871 164.532 134.268 166.758 135.328 167.629C135.989 168.172 137.055 167.759 137.592 167.244C138.295 166.57 138.691 165.537 138.738 164.571C138.823 162.943 139.283 161.354 139.297 159.721C139.31 158.09 139.502 156.459 139.588 154.832C139.66 153.495 140.066 152.273 141.478 151.894C142.86 151.523 143.69 152.454 143.677 153.761C143.652 156.031 143.298 158.269 143.159 160.544C142.963 163.734 142.649 166.837 142.666 170.046C142.936 170.278 145.39 168.415 145.679 168.221C147.302 167.138 148.95 166.095 150.612 165.072C153.149 163.888 155.423 162.222 157.92 160.963C159.174 160.318 160.37 159.568 161.594 158.869C161.942 158.67 164.285 157.633 163.558 157.198C162.597 156.623 162.729 155.128 162.812 154.193C162.923 152.95 162.849 151.71 162.871 150.47C162.891 149.316 164.034 145.375 161.641 146.028C161.14 146.165 160.792 146.484 160.419 146.831C160.078 147.151 159.977 147.71 159.417 147.776C159.256 148.123 159.482 148.082 159.103 148.434C159.211 148.736 158.863 149.42 158.791 149.742C158.741 149.961 158.876 150.145 158.658 150.264C158.464 150.37 158.466 150.445 158.629 150.63C158.917 150.958 158.318 150.88 158.409 151.185C158.565 151.701 158.471 151.782 158.273 152.24C158.093 152.657 158.482 152.935 158.51 153.335C158.509 153.319 158.172 153.276 158.172 153.274C158.092 153.786 157.931 154.59 158.099 155.089C158.152 155.245 158.313 155.458 158.215 155.633C158.136 155.775 158.009 155.971 158.085 156.143C158.174 156.344 158.371 156.402 158.254 156.646C158.183 156.796 157.979 157.002 158.035 157.19C158.106 157.431 158.049 157.651 158.079 157.894C158.104 158.095 157.819 158.195 157.777 158.379C157.68 158.808 157.689 158.937 157.305 159.277C157.042 159.51 156.802 159.729 156.486 159.89C155.855 160.212 154.879 160.456 154.286 159.924C153.508 159.227 153.874 157.487 153.945 156.584C154.066 155.019 154.099 153.456 154.186 151.89C154.307 149.72 153.897 146.3 156.28 145.201C157.169 144.792 158.222 144.737 159.173 144.925C160.053 145.291 160.969 144.137 161.454 143.567C162.465 142.376 165.466 140.39 166.6 142.573C166.817 142.99 166.858 143.473 166.959 143.926C167.014 144.172 167.087 144.415 167.197 144.643C167.044 144.757 166.876 144.897 166.866 145.106C166.854 145.331 167.334 146.862 167.123 147.001C166.713 147.273 166.926 147.559 166.888 148.059C166.851 148.536 166.58 149.413 166.871 149.842C167.035 150.085 166.868 150.128 166.815 150.401C166.761 150.685 166.993 151.001 166.98 151.301C166.959 151.789 167.119 152.651 166.871 153.087C166.852 153.412 167.29 153.806 167.097 154.016C166.891 154.239 167.49 154.742 167.638 154.949C168.176 155.703 170.265 154.3 170.773 154.022C171.831 153.446 173.074 152.637 174.334 152.728C175.604 152.819 175.91 153.145 176.425 154.318C176.369 155.346 175.407 156.479 174.59 157.01Z" fill="#DF173B"/>
<path d="M351.127 161.453V165.581H354.513V161.453H351.127ZM248.272 169.511C241.985 169.511 238.808 172.982 236.528 176.662V170.342H233.142V205.757H236.528V185.342C236.528 178.19 241.502 172.635 247.789 172.635C254.077 172.635 258.084 177.149 258.084 184.509V205.757H261.468V185.134C261.468 177.218 266.651 172.635 272.592 172.635C279.087 172.635 283.024 177.08 283.024 184.717V205.757H286.41V184.3C286.409 175.414 281.227 169.51 272.867 169.51C266.235 169.51 262.436 173.19 260.156 177.147C258.221 173.051 254.421 169.51 248.272 169.51V169.511ZM307.057 169.511C297.524 169.511 290.337 177.704 290.337 187.98V188.119C290.337 199.16 298.353 206.589 307.612 206.589C314.382 206.589 318.595 203.811 322.187 199.922L319.84 197.84C316.938 200.965 313.207 203.393 307.749 203.393C300.84 203.393 294.553 198.256 293.931 189.437H323.155C323.224 188.881 323.225 188.673 323.225 188.048C323.225 177.564 316.937 169.51 307.057 169.51V169.511ZM377.302 169.511C367.215 169.511 359.338 178.121 359.338 188.05V188.188C359.338 198.118 367.145 206.59 377.302 206.59C383.796 206.59 388.078 203.674 391.67 199.577L389.321 197.495C386.351 200.827 382.484 203.395 377.509 203.395C369.425 203.395 362.999 196.591 362.999 188.05V187.91C362.999 179.44 369.218 172.704 377.232 172.704C382.483 172.704 385.936 175.413 388.976 178.538L391.395 176.038C388.079 172.566 383.935 169.51 377.302 169.51V169.511ZM213.503 169.787C208.667 169.787 204.867 171.038 200.997 172.844L202.242 175.83C205.489 174.163 209.013 172.982 213.296 172.982C220.551 172.982 224.902 176.663 224.902 183.815H213.226C204.106 183.815 197.82 187.98 197.82 195.34V195.48C197.82 202.841 204.868 206.59 211.431 206.59C218.133 206.59 222.484 203.256 224.902 199.854V205.757H228.219V183.675C228.219 179.3 226.977 176.037 224.627 173.676C222.071 171.107 218.27 169.787 213.503 169.787ZM409.899 169.787C405.062 169.787 401.262 171.038 397.392 172.844L398.637 175.83C401.884 174.163 405.408 172.982 409.691 172.982C416.946 172.982 421.298 176.663 421.298 183.815H409.621C400.501 183.815 394.216 187.98 394.216 195.34V195.48C394.216 202.841 401.262 206.59 407.825 206.59C414.526 206.59 418.879 203.256 421.298 199.854V205.757H424.614V183.675C424.614 179.301 423.371 176.037 421.022 173.676C418.466 171.107 414.666 169.787 409.899 169.787ZM346.228 169.789C339.251 169.511 333.38 174.094 330.615 180.412V170.344H327.229V205.756H330.615V191.243C330.615 179.717 337.731 173.537 345.883 173.537H346.228V169.789ZM351.127 170.344V205.756H354.513V170.344H351.127ZM306.92 172.635C315.003 172.635 319.079 179.233 319.563 186.385H293.931C294.553 178.539 299.942 172.635 306.92 172.635ZM213.019 186.87H224.973V192.494H224.971C224.971 198.951 218.822 203.395 211.637 203.395C206.248 203.395 201.412 200.41 201.412 195.272V195.132C201.412 190.201 205.557 186.87 213.019 186.87ZM409.416 186.87H421.368V192.494C421.368 198.951 415.219 203.395 408.034 203.395C402.646 203.395 397.808 200.41 397.808 195.272V195.132C397.808 190.201 401.954 186.87 409.416 186.87Z" fill="black"/>
</svg>
