<svg width="480" height="320" viewBox="0 0 480 320" fill="none" xmlns="http://www.w3.org/2000/svg">
<path d="M109.523 53.332H370.478V266.665H109.523V53.332Z" fill="#47143D"/>
<path d="M227.533 204.285C227.444 204.285 226.489 204.572 225.414 204.922C224.001 205.38 223.37 205.628 223.16 205.819L222.868 206.08V227.765L223.084 228.605C223.835 231.545 225.528 233.41 228.36 234.422C230.302 235.116 232.688 235.371 235.152 235.141C236.552 235.014 237.672 234.823 239.104 234.467C240.447 234.129 240.778 233.996 240.867 233.716C240.937 233.493 240.396 231.755 240.173 231.501C239.97 231.265 239.804 231.291 238.55 231.711C236.743 232.322 235.661 232.513 234.057 232.506C232.968 232.5 232.517 232.455 231.918 232.296C230.34 231.876 229.29 231.119 228.717 229.98C228.163 228.879 228.157 228.834 228.157 220.833L228.15 213.527H239.314L239.588 213.247C239.855 212.986 239.868 212.922 239.868 212.152C239.868 211.433 239.842 211.312 239.639 211.076L239.41 210.809L233.783 210.784L228.15 210.758V204.756L227.921 204.521C227.794 204.393 227.616 204.285 227.533 204.285ZM203.633 209.542C201.508 209.562 199.439 209.791 197.644 210.243C194.245 211.102 191.833 212.973 191.038 215.379C190.834 215.996 190.789 216.334 190.783 217.142C190.777 218.262 190.904 218.918 191.311 219.777C192.221 221.718 194.315 223.017 197.631 223.698C198.885 223.959 199.897 224.06 203.436 224.29C207.306 224.538 208.655 224.754 209.909 225.327C211.112 225.874 211.583 226.562 211.653 227.905C211.717 229.089 211.494 229.63 210.545 230.578C209.966 231.157 209.635 231.393 208.916 231.749C204.894 233.728 198.344 232.997 192.514 229.922C191.534 229.4 191.483 229.388 191.235 229.521C190.968 229.674 190.178 230.992 190.089 231.443C190.006 231.844 190.21 232.074 191.006 232.475C193.329 233.646 196.327 234.556 199.153 234.95C201.087 235.224 200.998 235.224 204.009 235.192C206.211 235.167 207.026 235.122 208.025 234.97C212.296 234.308 215.103 232.933 216.522 230.813C217.216 229.776 217.407 229.139 217.464 227.714C217.496 226.791 217.47 226.384 217.349 225.906C216.738 223.564 214.931 221.884 212.022 220.961C210.386 220.439 208.292 220.165 203.678 219.86C200.833 219.675 199.897 219.567 199.013 219.325C197.708 218.969 196.931 218.453 196.505 217.67C196.206 217.116 196.218 215.793 196.524 215.022C196.836 214.227 197.593 213.45 198.516 212.967C199.904 212.247 201.393 211.974 203.869 211.974C207.395 211.986 210.66 212.706 213.671 214.151C214.371 214.488 215.014 214.762 215.103 214.762C215.325 214.762 215.599 214.45 216.051 213.673C216.503 212.897 216.528 212.648 216.204 212.343C215.905 212.069 214.052 211.274 212.678 210.828C209.973 209.963 206.739 209.523 203.633 209.542ZM258.637 209.873C257.447 209.873 256.244 209.912 255.627 209.988C253.501 210.255 251.172 210.841 249.269 211.586C248.117 212.037 246.067 213.011 245.851 213.209C245.532 213.495 245.634 213.947 246.315 215.404C246.57 215.939 246.723 215.914 248.836 214.87C253.507 212.559 257.613 211.878 261.432 212.776C264.188 213.425 265.995 214.882 266.695 217.021C266.867 217.556 267.001 221.005 266.848 221.152C266.791 221.209 266.39 221.158 265.766 221.012C260.884 219.86 256.232 219.618 252.222 220.299C246.78 221.222 243.865 223.825 243.871 227.752C243.871 229.744 244.431 231.151 245.717 232.43C247.194 233.888 249.16 234.696 252.247 235.097C253.603 235.275 257.536 235.218 258.918 235.001C261.693 234.569 264.359 233.601 266.173 232.366C266.472 232.169 266.759 232.004 266.816 232.004C266.88 232.004 266.918 232.347 266.918 232.952C266.918 234.639 266.963 234.664 269.629 234.664C271.882 234.664 272.073 234.62 272.252 234.021C272.328 233.773 272.347 231.482 272.322 226.193C272.283 219.007 272.277 218.682 272.086 217.906C271.679 216.245 271.112 215.067 270.158 213.877C268.509 211.827 265.607 210.51 261.584 209.988C260.999 209.912 259.821 209.873 258.637 209.873ZM324.589 209.873C323.361 209.88 322.126 209.937 321.394 210.039C318.441 210.44 315.487 211.375 312.63 212.814C311.643 213.304 311.598 213.476 312.114 214.679C312.49 215.557 312.668 215.812 312.922 215.812C313.018 215.812 313.705 215.493 314.456 215.099C318.956 212.763 322.991 211.961 326.867 212.629C329.814 213.139 331.896 214.602 332.704 216.728C332.933 217.333 332.952 217.517 332.99 219.325L333.035 221.266L332.761 221.209C332.608 221.177 332.01 221.044 331.425 220.91C330.113 220.611 327.988 220.248 326.581 220.082C325.009 219.898 321.076 219.923 319.465 220.127C314.017 220.827 310.847 222.927 310.103 226.326C309.874 227.383 309.95 228.898 310.294 229.973C310.58 230.871 311.261 231.959 311.91 232.557C313.33 233.868 315.608 234.76 318.345 235.097C319.758 235.269 322.718 235.269 324.188 235.097C327.358 234.728 330.133 233.805 332.195 232.436C332.551 232.195 332.889 232.004 332.933 232.004C332.978 232.004 333.009 232.398 333.009 232.888C333.009 233.378 333.06 233.919 333.118 234.085C333.302 234.613 333.538 234.664 335.714 234.664C336.79 234.664 337.777 234.626 337.904 234.575C338.458 234.365 338.439 234.562 338.439 226.727C338.439 222.151 338.4 219.274 338.337 218.809C337.859 215.341 335.988 212.757 332.978 211.382C331.584 210.752 329.642 210.23 327.727 209.988C327.033 209.899 325.817 209.861 324.589 209.873ZM279.005 210.376L278.725 210.656L278.438 210.936L278.445 222.444C278.445 234.804 278.425 234.257 278.928 234.53C279.234 234.702 282.983 234.721 283.345 234.556C283.855 234.32 283.867 234.231 283.867 230.196V226.479H289.659L293.313 229.451C299.041 234.117 299.13 234.187 299.582 234.409C299.996 234.613 300.136 234.62 302.936 234.645C305.775 234.67 305.87 234.67 306.055 234.479C306.284 234.25 306.303 233.932 306.112 233.652C306.029 233.537 303.865 231.857 301.3 229.91C298.735 227.968 296.616 226.339 296.59 226.294C296.559 226.25 296.851 226.186 297.227 226.148C300.804 225.804 303.763 224.035 305.017 221.476C305.52 220.445 305.686 219.777 305.749 218.472C305.851 216.302 305.246 214.577 303.878 213.113C302.936 212.107 301.237 211.159 299.512 210.688L298.583 210.433L279.005 210.376ZM141.781 210.383L141.629 210.612C141.498 210.809 141.614 211.159 141.614 211.159C141.688 211.331 154.86 234.282 155.114 234.454C155.433 234.67 155.458 234.677 158.031 234.645L160.629 234.619L160.861 234.384C161.199 234.04 174.251 211.185 174.251 210.936C174.251 210.822 174.181 210.65 174.091 210.554C173.951 210.402 173.767 210.383 172.43 210.383H170.921L170.647 210.644C170.496 210.79 159.059 230.941 158.962 230.839C158.962 230.839 147.591 210.561 147.444 210.497L141.781 210.383ZM179.387 210.383L179.151 210.618L178.916 210.847V234.11L179.196 234.39L179.476 234.664H183.887L184.167 234.39L184.441 234.11V210.885L184.192 210.631L183.944 210.383H179.387ZM283.921 212.903H289.822C295.174 212.903 295.785 212.922 296.339 213.075C298.147 213.571 299.42 214.984 299.833 216.951C300.043 217.944 299.967 219.319 299.636 220.35C299.069 222.138 297.886 223.233 295.989 223.723C295.321 223.895 294.894 223.908 289.573 223.908H283.87L283.921 212.903ZM257.845 222.329C259.296 222.31 260.932 222.431 262.727 222.679C264.254 222.889 266.73 223.392 266.845 223.507C266.889 223.551 266.915 224.888 266.896 226.485L266.87 229.381L266.253 229.795C264.935 230.661 263.083 231.526 261.613 231.953C259.933 232.443 258.825 232.589 256.68 232.621C255.579 232.64 254.574 232.634 254.44 232.608C251.378 232.055 249.902 230.718 249.584 228.223C249.386 226.651 249.806 225.391 250.876 224.391C252.295 223.061 254.644 222.374 257.845 222.329ZM324.204 222.329C326.221 222.316 328.538 222.558 331.09 223.055C331.892 223.214 332.656 223.386 332.783 223.43L333.019 223.519L332.994 226.447L332.968 229.381L332.3 229.833C331.53 230.349 329.837 231.208 328.869 231.571C327.844 231.959 326.171 232.366 324.961 232.526C323.784 232.678 321.111 232.697 320.29 232.564C318.864 232.322 317.464 231.634 316.776 230.826C315.497 229.337 315.293 226.625 316.35 225.091C317.584 223.297 320.353 222.355 324.204 222.329Z" fill="white"/>
<path d="M239.976 85.5938L239.594 85.8617C238.022 86.9501 234.21 90.5271 232.033 92.9539C229.85 95.3898 227.831 97.9667 225.987 100.668C225.509 101.374 225.064 101.979 225 102.014C224.936 102.047 224.134 101.932 223.218 101.758C217.515 100.671 211.303 100.241 206.122 100.576C203.449 100.749 202.392 100.903 202.265 101.138C202.112 101.434 201.877 103.877 201.794 106.207C201.61 111.065 201.979 116.134 202.889 121.196C203.08 122.239 203.258 123.245 203.283 123.43C203.334 123.761 203.334 123.767 202.208 124.524C197.708 127.56 193.246 131.379 189.739 135.211C188.664 136.382 187.155 138.221 187.009 138.539C186.92 138.718 186.996 138.851 187.48 139.494C190.719 143.733 196.696 149.162 202.093 152.765C202.762 153.21 203.322 153.618 203.347 153.668C203.366 153.719 203.239 154.515 203.067 155.432C202.1 160.523 201.73 164.883 201.813 170.128C201.858 172.884 202.042 175.627 202.221 176.206C202.259 176.321 202.488 176.384 203.099 176.467C208.592 177.193 216.611 176.817 223.167 175.525C223.956 175.366 224.707 175.245 224.834 175.245C225.038 175.245 225.21 175.442 225.885 176.454C227.45 178.803 229.901 181.953 231.925 184.238C234.471 187.115 239.429 191.717 239.976 191.717C240.059 191.717 240.492 191.43 240.937 191.08C242.293 190.011 243.757 188.675 245.654 186.746C248.893 183.468 251.649 180.095 254.157 176.352C254.539 175.786 254.914 175.302 254.991 175.27C255.067 175.245 255.812 175.353 256.645 175.512C261.858 176.531 267.72 176.995 272.685 176.779C275.587 176.652 277.401 176.454 277.56 176.238C277.821 175.894 278.076 172.381 278.076 169.052C278.076 164.31 277.655 159.855 276.79 155.451C276.612 154.547 276.484 153.751 276.51 153.688C276.535 153.624 277.013 153.274 277.573 152.905C281.08 150.601 284.733 147.622 287.966 144.433C290.519 141.919 293.026 139.068 293.026 138.686C293.026 138.368 290.85 135.815 288.8 133.734C285.65 130.526 281.583 127.153 277.815 124.626C276.873 123.99 276.548 123.729 276.548 123.576C276.548 123.468 276.682 122.736 276.834 121.953C277.815 116.974 278.292 110.938 278.076 106.171C277.948 103.32 277.751 101.351 277.56 101.097C277.286 100.727 272.888 100.432 268.789 100.508C264.589 100.585 261.184 100.923 257.116 101.668C256.124 101.851 255.213 102.002 255.092 102.001C254.933 102.001 254.717 101.751 254.17 100.936C251.318 96.6913 247.798 92.5154 244.241 89.1593C242.91 87.9022 240.982 86.2589 240.352 85.8439L239.976 85.5938ZM239.989 88.5731C240.345 88.5731 244.412 92.4651 246.411 94.7157C248.982 97.6091 252.419 102.149 252.343 102.549C252.317 102.663 251.923 102.816 250.885 103.111C250.096 103.335 249.39 103.521 249.307 103.523C249.218 103.524 249.033 103.349 248.887 103.132C248.397 102.395 246.532 99.9692 245.571 98.8171C243.782 96.6875 240.358 93.3345 239.97 93.3345C239.76 93.3345 238.27 94.6775 236.768 96.2184C234.884 98.1571 232.536 101.02 231.136 103.073C230.76 103.626 230.735 103.627 229.124 103.157C227.635 102.721 227.597 102.707 227.597 102.525C227.597 102.348 228.297 101.332 229.748 99.3823C232.428 95.7952 235.623 92.3066 238.786 89.5017C239.365 88.9913 239.906 88.5731 239.989 88.5731ZM239.97 96.3826C240.142 96.3826 241.886 98.1138 243.095 99.4867C244.578 101.164 246.742 103.981 246.742 104.228C246.742 104.308 246.551 104.437 246.29 104.531C245.03 104.99 242.178 106.142 241.141 106.611C240.492 106.904 239.938 107.142 239.9 107.138C239.868 107.135 239.518 106.981 239.123 106.796C238.041 106.287 235.655 105.303 234.407 104.847C233.796 104.623 233.274 104.382 233.242 104.311C233.115 103.972 236.272 100.039 238.633 97.5996C239.282 96.9306 239.887 96.3826 239.97 96.3826ZM269.782 102.787C270.279 102.787 270.769 102.794 271.265 102.805C274.308 102.875 275.345 102.946 275.498 103.1C275.663 103.267 275.803 105.776 275.803 108.621C275.797 122.672 271.501 136.407 263.717 147.278L262.908 148.411L263.112 150.041C263.437 152.656 263.532 154.515 263.475 157.144C263.418 159.798 263.265 161.599 263.08 161.796C262.87 162.013 260.49 162.191 257.6 162.197C254.787 162.21 253.228 162.121 251.032 161.815C250.173 161.694 249.695 161.669 249.581 161.726C249.485 161.777 249.02 162.102 248.55 162.439C247.098 163.483 246.105 164.1 245.87 164.094C245.749 164.094 245.195 163.884 244.648 163.636C243.229 162.986 242.643 162.681 242.643 162.579C242.643 162.465 242.662 162.452 244.788 161.058C245.73 160.441 247.047 159.524 247.716 159.015C248.454 158.461 249.02 158.098 249.161 158.098C249.281 158.098 249.912 158.207 250.561 158.34C253.221 158.881 256.785 159.161 259.045 159.008C259.847 158.951 260.076 158.907 260.121 158.786C260.152 158.703 260.203 157.946 260.235 157.105C260.318 154.782 260.07 151.975 259.535 149.334C259.401 148.679 259.293 148.061 259.293 147.953C259.293 147.851 259.758 147.138 260.331 146.381C263.729 141.836 266.644 136.496 268.598 131.239C270.654 125.721 271.895 120.139 272.366 114.335C272.5 112.665 272.532 108.744 272.417 107.406C272.354 106.597 272.315 106.461 272.137 106.362C271.844 106.199 266.492 106.139 264.633 106.279C258.606 106.729 252.687 108.061 246.767 110.299L246.169 110.525L245.768 110.293C245.545 110.165 244.89 109.792 244.311 109.466C243.044 108.749 242.758 108.53 242.885 108.394C243.031 108.248 245.851 107.132 247.62 106.522C254.793 104.056 262.342 102.786 269.782 102.787ZM209.744 102.811C211.8 102.81 213.97 102.868 215.313 102.99C224.567 103.832 232.434 106 240.104 109.823C243.267 111.4 245.762 112.914 249.313 115.409L249.74 115.71L250.644 115.57C253.578 115.121 258.389 114.964 261.171 115.225C262.787 115.377 263.017 115.423 263.118 115.609C263.405 116.146 263.602 121.641 263.418 124.142C263.36 124.983 263.22 126.402 263.106 127.299L262.908 128.935L263.475 129.731C264.595 131.296 265.435 132.608 265.429 132.805C265.429 132.913 265.117 133.677 264.741 134.504C264.232 135.599 264.003 136 263.882 136C263.78 136 263.57 135.758 263.322 135.344C262.73 134.339 261.203 132.098 260.273 130.87C259.815 130.259 259.414 129.712 259.376 129.648C259.338 129.584 259.433 128.878 259.592 128.076C259.981 126.09 260.172 124.537 260.261 122.647C260.337 121.1 260.254 118.631 260.127 118.497C260.089 118.459 258.835 118.433 257.333 118.433C254.354 118.433 253.285 118.529 250.618 119.057C249.842 119.21 249.18 119.337 249.135 119.337C249.097 119.337 248.486 118.898 247.786 118.37C237.138 110.36 223.466 105.84 210.743 106.126C209.406 106.156 208.165 106.219 207.981 106.263C207.688 106.335 207.643 106.386 207.561 106.767C207.401 107.548 207.446 113.299 207.631 115.145C208.165 120.476 209.343 125.74 211.029 130.335C211.297 131.067 211.583 131.844 211.659 132.067L211.8 132.461L211.125 133.626C210.749 134.269 210.342 135.001 210.208 135.255C209.865 135.936 209.686 135.885 209.311 134.975C206.447 128.101 204.735 120.788 204.168 113.011C204.041 111.205 204.035 105.941 204.168 104.382C204.238 103.502 204.302 103.164 204.416 103.082C204.646 102.908 207.102 102.812 209.744 102.811ZM210.673 108.383C211.055 108.381 211.621 108.392 212.5 108.413C218.311 108.549 223.752 109.495 229.411 111.35C230.862 111.827 231.199 111.99 231.091 112.168C231.059 112.218 230.709 112.484 230.308 112.76L229.583 113.264L228.755 113.156C226.623 112.878 225.535 112.818 222.6 112.814C220.634 112.812 219.011 112.857 218.266 112.936C216.777 113.093 214.918 113.408 214.804 113.52C214.683 113.645 214.485 114.648 214.294 116.145C214.053 118.032 214.053 124.671 214.294 126.561C214.524 128.375 214.53 128.343 213.976 129.132C213.715 129.502 213.461 129.813 213.41 129.813C213.359 129.813 213.282 129.737 213.232 129.642C212.983 129.177 211.92 125.664 211.462 123.792C210.355 119.318 209.839 115.514 209.725 110.999C209.667 108.846 209.674 108.702 209.839 108.534C209.947 108.429 210.043 108.386 210.673 108.383ZM268.115 108.478C269.209 108.479 270.088 108.514 270.132 108.585C270.228 108.745 270.19 112.475 270.075 113.927C269.68 118.904 268.777 123.423 267.255 128.108C266.975 128.98 266.683 129.743 266.613 129.801C266.517 129.877 266.441 129.852 266.301 129.692C266.193 129.578 265.925 129.215 265.702 128.897L265.308 128.318L265.518 126.561C265.811 124.149 265.836 118.446 265.569 116.24C265.372 114.631 265.187 113.643 265.06 113.513C264.932 113.39 263.608 113.171 261.884 112.987C259.821 112.766 255.08 112.771 252.935 112.996C249.982 113.304 250.313 113.326 249.549 112.769C249.186 112.503 248.887 112.211 248.887 112.124C248.887 112.005 249.192 111.861 250.083 111.558C254.704 109.994 259.815 108.958 264.792 108.579C265.709 108.509 267.02 108.477 268.115 108.478ZM234.019 113.144C234.343 113.144 237.335 114.558 237.386 114.737C237.405 114.8 237.004 115.12 236.488 115.448C234.91 116.453 233.516 117.409 232.198 118.395C231.454 118.955 230.856 119.337 230.722 119.337C230.601 119.337 229.863 119.21 229.073 119.057C226.68 118.586 225.146 118.44 222.55 118.44C221.035 118.44 220.131 118.478 219.965 118.548C219.724 118.65 219.711 118.694 219.641 119.687C219.488 121.953 219.768 125.517 220.309 128.178C220.443 128.827 220.551 129.444 220.551 129.546C220.551 129.642 220.163 130.253 219.679 130.889C216.038 135.758 213.022 141.397 210.94 147.221C209.126 152.313 207.93 157.971 207.503 163.47C207.401 164.8 207.389 169.599 207.491 170.529L207.548 171.095L208.121 171.165C209.133 171.28 212.557 171.324 214.072 171.235C220.284 170.879 226.477 169.568 232.383 167.365L233.79 166.843L235.336 167.722C236.189 168.206 236.915 168.651 236.953 168.708C237.068 168.887 236.832 169.014 235.215 169.657C226.095 173.259 215.949 174.946 206.383 174.462C205.479 174.418 204.639 174.341 204.512 174.29C204.206 174.176 204.194 173.985 204.111 170.147C204.009 164.915 204.391 160.561 205.416 155.4C207.287 145.942 211.055 137.127 216.376 129.737L216.942 128.954L216.796 127.929C216.554 126.275 216.458 125.218 216.363 123.194C216.229 120.311 216.49 115.773 216.802 115.514C217.101 115.264 219.227 115.117 222.55 115.115C225.815 115.113 226.273 115.142 229.322 115.537L230.238 115.656L230.894 115.175C232.052 114.324 233.872 113.144 234.019 113.144ZM240.008 116.097C240.193 116.097 242.28 117.358 243.884 118.433C245.31 119.394 246.188 120.037 247.627 121.176C248.588 121.934 248.403 121.908 250.217 121.482C251.783 121.119 254.367 120.769 256.104 120.686C257.785 120.604 257.957 120.616 258.001 120.833C258.014 120.916 258.001 121.673 257.963 122.519C257.874 124.76 257.683 126.084 256.97 129.393L256.798 130.17L257.473 131.016C258.402 132.187 259.35 133.486 260.172 134.714C261.164 136.204 262.552 138.489 262.552 138.648C262.552 138.826 261.464 140.672 260.477 142.155C259.497 143.644 258.631 144.834 257.568 146.184L256.715 147.272L257.008 148.519C257.524 150.69 257.817 152.79 257.944 155.164C257.995 156.163 257.982 156.507 257.887 156.615C257.562 157.01 253.056 156.571 249.905 155.845L248.448 155.514L247.62 156.17C246.338 157.189 245.013 158.153 243.649 159.059C242.134 160.065 240.186 161.243 240.04 161.236C239.983 161.236 239.849 161.185 239.741 161.128C237.729 160.033 234.261 157.691 232.332 156.138C231.918 155.801 231.492 155.527 231.39 155.527C231.288 155.527 230.875 155.61 230.474 155.712C229.487 155.966 227.38 156.342 226.228 156.475C224.803 156.647 222.34 156.755 222.149 156.654C222.002 156.577 221.983 156.418 221.983 155.451C221.983 153.56 222.301 151.084 222.849 148.634C223.001 147.959 223.122 147.336 223.122 147.246C223.122 147.157 222.798 146.68 222.403 146.184C220.659 144.007 217.407 139.106 217.407 138.667C217.407 138.489 218.68 136.382 219.736 134.81C220.608 133.511 221.716 132.003 222.747 130.704L223.129 130.214L222.944 129.463C222.403 127.338 222.015 124.671 221.919 122.443C221.869 121.304 221.881 120.928 221.977 120.814C222.301 120.425 226.827 120.865 229.964 121.584L231.422 121.921L231.918 121.527C233.09 120.591 234.77 119.363 236.062 118.491C237.729 117.37 239.823 116.097 240.008 116.097ZM203.831 126.287C203.914 126.287 204.015 126.446 204.079 126.695C204.143 126.917 204.334 127.605 204.512 128.222C204.69 128.846 204.836 129.387 204.836 129.425C204.836 129.47 204.308 129.877 203.672 130.342C202.354 131.284 200.591 132.678 199.458 133.664C198.255 134.708 195.729 137.216 195.111 137.986L194.551 138.686L195.003 139.265C195.62 140.054 197.88 142.32 199.216 143.491C200.648 144.745 202.647 146.324 203.812 147.126C204.321 147.476 204.76 147.851 204.792 147.953C204.856 148.176 204.117 150.849 203.939 151.027C203.844 151.129 203.672 151.046 203.023 150.613C200.184 148.704 196.645 145.783 193.895 143.097C191.922 141.168 189.886 138.921 189.886 138.673C189.886 138.24 194.405 133.62 196.97 131.43C199.547 129.234 203.474 126.287 203.831 126.287ZM276.058 126.287C276.236 126.294 278.585 127.949 280.329 129.304C283.034 131.398 286.21 134.288 288.253 136.509C289.882 138.285 290.073 138.514 290.073 138.692C290.073 138.928 288.743 140.404 286.611 142.524C283.836 145.286 281.156 147.546 277.885 149.888C276.344 150.989 276.064 151.161 275.912 151.065C275.822 151.008 275.16 148.78 275.052 148.176C275.014 147.953 275.078 147.87 275.517 147.558C279.024 145.063 282.257 142.288 284.313 140.003C284.835 139.424 285.3 138.883 285.344 138.807C285.452 138.609 285.045 138.113 283.416 136.445C281.309 134.294 278.75 132.117 276.281 130.38C275.651 129.934 275.11 129.514 275.078 129.451C275.052 129.381 275.173 128.821 275.351 128.21C275.53 127.598 275.721 126.917 275.784 126.695C275.861 126.415 275.943 126.287 276.058 126.287ZM205.492 131.965C205.677 131.952 205.772 132.181 205.976 132.767C206.351 133.83 207.281 136.127 207.834 137.349C208.127 137.992 208.363 138.603 208.363 138.705C208.363 138.813 208.063 139.564 207.707 140.379C207.147 141.639 206.822 142.454 205.842 145.051C205.766 145.242 205.645 145.394 205.537 145.407C205.435 145.42 204.881 145.07 204.219 144.573C201.603 142.607 197.695 139.068 197.695 138.667C197.695 138.221 202.653 133.849 205.008 132.219C205.231 132.067 205.377 131.971 205.492 131.965ZM274.346 131.965C274.505 131.939 274.728 132.086 275.135 132.391C278.12 134.581 282.264 138.234 282.264 138.667C282.264 139.061 278.547 142.416 275.931 144.382C274.46 145.483 274.327 145.566 274.193 145.401C274.136 145.337 273.894 144.732 273.646 144.051C273.397 143.37 272.837 141.976 272.392 140.952C271.946 139.933 271.558 138.966 271.539 138.813C271.501 138.603 271.641 138.196 272.054 137.286C272.564 136.165 273.467 133.925 273.958 132.576C274.098 132.187 274.187 131.99 274.346 131.965ZM216.077 141.334C216.172 141.334 216.388 141.575 216.605 141.932C217.324 143.103 218.635 145.025 219.641 146.368L220.666 147.743L220.373 149.239C219.838 151.969 219.749 152.937 219.749 155.922C219.743 158.047 219.768 158.684 219.864 158.779C219.959 158.875 220.615 158.907 222.772 158.907C225.802 158.907 226.718 158.818 229.474 158.27L230.926 157.99L232.262 158.989C236.959 162.503 242.478 165.475 248.085 167.505C253.018 169.3 258.288 170.484 263.691 171.012C265.505 171.191 270.565 171.254 271.711 171.114C272.29 171.044 272.347 171.019 272.405 170.783C272.532 170.242 272.576 165.647 272.462 164.049C272.175 159.861 271.494 155.743 270.444 151.861C270.011 150.244 268.993 147.106 268.503 145.846C268.318 145.382 268.172 144.949 268.172 144.879C268.172 144.726 269.865 141.741 269.999 141.658C270.158 141.556 270.26 141.747 270.852 143.205C273.55 149.926 275.211 157.417 275.695 165.1C275.88 168.066 275.759 173.978 275.504 174.233C275.275 174.462 269.712 174.621 267.026 174.475C262.208 174.214 257.619 173.52 252.979 172.336C245.106 170.338 238.06 167.143 231.607 162.643L230.238 161.682L228.513 161.892C225.255 162.286 222.537 162.375 219.743 162.191C218.018 162.076 216.942 161.936 216.783 161.809C216.49 161.561 216.236 156.946 216.363 154.101C216.452 152.198 216.649 150.149 216.847 149.009L216.949 148.443L216.541 147.87C215.147 145.865 214.454 144.809 214.454 144.662C214.454 144.573 214.785 143.784 215.186 142.918C215.714 141.773 215.962 141.334 216.077 141.334ZM266.517 147.546H266.536C266.714 147.577 266.912 148.093 267.567 150.193C269.192 155.411 270.09 160.827 270.234 166.29C270.291 168.422 270.279 168.638 270.132 168.791C269.986 168.931 269.776 168.95 268.471 168.937C267.65 168.925 266.746 168.906 266.454 168.887C261.107 168.587 255.831 167.633 251.025 166.08C249.262 165.507 248.836 165.335 248.836 165.195C248.836 165.119 249.148 164.839 249.53 164.571L250.217 164.081L250.834 164.132C251.178 164.164 252.139 164.247 252.979 164.329C253.82 164.406 255.252 164.495 256.168 164.527C259.586 164.648 264.881 164.17 265.123 163.718C265.251 163.477 265.575 161.109 265.69 159.575C265.893 156.851 265.792 153 265.448 150.263L265.295 149.054L265.843 148.284C266.18 147.807 266.403 147.558 266.517 147.546ZM213.397 147.622C213.652 147.622 214.454 148.831 214.454 149.207C214.454 149.372 214.384 150.079 214.294 150.779C214.091 152.396 214.053 159.295 214.244 160.81C214.415 162.178 214.651 163.547 214.753 163.731C214.931 164.075 218.12 164.463 221.455 164.546C223.829 164.603 226.037 164.501 228.341 164.228L229.614 164.075L230.276 164.533C231.136 165.125 231.212 165.22 230.976 165.392C230.881 165.469 230.219 165.717 229.506 165.946C224.033 167.728 218.941 168.67 213.263 168.95C211.208 169.052 210.59 169.058 210.075 168.969L209.744 168.906L209.75 166.334C209.776 161.007 210.762 155.171 212.614 149.5C213.111 147.985 213.263 147.622 213.397 147.622ZM239.925 170.191C239.976 170.191 240.855 170.554 241.879 170.993C242.904 171.432 244.342 172.012 245.074 172.279C246.615 172.845 246.685 172.877 246.723 173.068C246.755 173.24 245.157 175.385 243.731 177.097C242.427 178.656 240.199 180.954 239.989 180.954C239.906 180.954 239.384 180.496 238.831 179.929C237.736 178.822 236.667 177.632 235.693 176.435C234.553 175.035 233.217 173.202 233.217 173.036C233.217 172.928 233.37 172.82 233.669 172.712C235.024 172.215 237.335 171.286 238.5 170.777C239.225 170.452 239.868 170.191 239.925 170.191ZM249.294 173.781C249.434 173.787 249.88 173.889 250.357 174.023C250.911 174.176 251.585 174.36 251.859 174.437C252.235 174.545 252.362 174.621 252.362 174.755C252.362 175.13 249.326 179.191 247.098 181.801C244.922 184.353 240.415 188.764 239.989 188.764C239.9 188.764 239.378 188.369 238.831 187.885C235.756 185.155 232.644 181.75 229.933 178.147C228.405 176.104 227.578 174.882 227.616 174.704C227.66 174.468 230.595 173.647 230.798 173.819C230.875 173.883 231.186 174.284 231.479 174.71C232.249 175.799 233.478 177.39 234.547 178.669C236.081 180.509 239.677 184.098 239.989 184.098C240.142 184.098 241.459 182.914 242.643 181.718C244.584 179.758 246.494 177.485 248.327 174.946C248.772 174.328 249.186 173.807 249.25 173.787C249.256 173.781 249.269 173.781 249.294 173.781Z" fill="#B99750"/>
</svg>
