<svg width="480" height="320" viewBox="0 0 480 320" fill="none" xmlns="http://www.w3.org/2000/svg">
<path d="M197.122 62.295C221.89 51.2752 250.863 50.459 276.329 59.6136C276.139 59.5756 275.769 59.5045 275.584 59.4665C256.24 92.7346 236.797 125.946 217.415 159.195C212.024 168.511 206.5 177.751 201.189 187.114L200.805 187.157C196.13 160.937 191.379 134.735 186.638 108.529C175.021 108.495 163.403 108.51 151.78 108.519C157.898 142.48 163.968 176.451 170.175 210.393C181.76 210.364 193.344 210.426 204.929 210.364C233.105 162.085 261.266 113.796 289.47 65.5364C289.304 65.413 288.967 65.1662 288.797 65.0428C302.156 72.0713 314.149 81.7623 323.507 93.6268C335.415 108.514 343.188 126.677 345.699 145.574C348.352 164.966 345.58 185.083 337.65 202.98C330.498 219.248 319.193 233.661 305.103 244.491C289.869 256.299 271.356 263.83 252.197 265.971C241.448 267.2 230.509 266.796 219.878 264.77C214.06 263.764 208.45 261.884 202.826 260.171L203.078 260.143C203.282 260.204 203.685 260.328 203.885 260.394C228.961 217.511 253.948 174.576 279.049 131.712C281.203 143.814 283.415 155.906 285.555 168.012C278.147 168.055 270.734 167.984 263.326 168.046C259.781 174.12 256.226 180.185 252.709 186.274C264.75 186.289 276.79 186.265 288.834 186.289C290.358 194.304 291.72 202.353 293.224 210.374C304.833 210.407 316.441 210.388 328.044 210.383C321.984 176.489 315.862 142.608 309.768 108.723L309.616 108.519C298.094 108.514 286.571 108.491 275.048 108.529C274.635 109.535 274.042 110.451 273.501 111.39C246.108 158.331 218.725 205.277 191.332 252.217C190.943 252.953 190.388 253.613 190.179 254.429C177.303 247.424 165.69 238.008 156.588 226.486C147.467 215.105 140.746 201.812 136.964 187.727C132.978 172.891 132.266 157.187 134.828 142.043C137.676 125.068 144.776 108.837 155.259 95.1881C166.155 80.9412 180.678 69.4754 197.122 62.295Z" fill="#2382C5"/>
<path d="M275.585 59.4688C275.77 59.5067 276.14 59.5779 276.33 59.6159C280.601 61.1345 284.754 62.9901 288.797 65.0451C288.968 65.1685 289.305 65.4152 289.471 65.5386C261.267 113.799 233.105 162.087 204.93 210.366C193.345 210.428 181.76 210.366 170.176 210.395C163.968 176.453 157.899 142.482 151.781 108.521C163.404 108.512 175.021 108.498 186.639 108.531C191.38 134.737 196.131 160.939 200.805 187.159L201.19 187.117C206.5 177.753 212.024 168.513 217.416 159.197C236.798 125.948 256.241 92.7368 275.585 59.4688ZM275.049 108.531C286.572 108.493 298.094 108.517 309.617 108.521L309.769 108.725C315.863 142.61 321.985 176.491 328.045 210.385C316.442 210.39 304.833 210.409 293.225 210.376C291.721 202.355 290.359 194.307 288.835 186.291C276.79 186.267 264.75 186.291 252.71 186.277C256.227 180.188 259.781 174.123 263.327 168.048C270.735 167.986 278.148 168.057 285.556 168.015C283.416 155.908 281.204 143.816 279.049 131.714C253.949 174.578 228.962 217.513 203.885 260.397C203.686 260.33 203.283 260.207 203.079 260.145C198.637 258.584 194.365 256.576 190.18 254.431C190.388 253.615 190.944 252.955 191.333 252.22C218.726 205.279 246.109 158.333 273.502 111.393C274.043 110.453 274.636 109.537 275.049 108.531Z" fill="white"/>
</svg>
