<svg width="480" height="320" viewBox="0 0 480 320" fill="none" xmlns="http://www.w3.org/2000/svg">
<path d="M133.824 53.332H346.176V266.665H133.824V53.332Z" fill="black"/>
<path d="M168.148 211.153H175.6L181.256 225.887H181.369L186.586 211.153H193.523L184.733 232.855H177.426L168.148 211.153ZM206.676 210.64C213.545 210.64 219.086 215.114 219.086 221.996C219.086 228.922 213.545 233.368 206.676 233.368C199.768 233.368 194.265 228.922 194.265 221.996C194.265 215.114 199.768 210.64 206.676 210.64ZM206.676 227.498C210.092 227.498 212.174 225.257 212.174 221.996C212.174 218.746 210.092 216.508 206.676 216.508C203.215 216.508 201.163 218.746 201.163 221.997C201.163 225.257 203.215 227.498 206.676 227.498ZM222.904 199.113H229.783V232.855H222.904V199.113ZM257.954 232.855H251.627V230.004H251.526C250.457 231.542 247.811 233.368 244.688 233.368C238.078 233.368 233.704 228.735 233.704 222.194C233.704 216.154 237.567 210.64 243.909 210.64C246.744 210.64 249.422 211.381 250.972 213.476H251.072V211.153H257.954V232.855ZM246.116 216.508C242.667 216.508 240.601 218.746 240.601 221.997C240.601 225.257 242.667 227.498 246.116 227.498C249.563 227.498 251.627 225.257 251.627 221.996C251.627 218.746 249.562 216.508 246.116 216.508ZM263.794 211.153H270.721V214.642H270.805C272.274 211.995 274.213 210.64 277.233 210.64C278.032 210.64 278.884 210.669 279.51 210.856V216.98C278.556 216.697 277.602 216.508 276.575 216.508C271.349 216.508 270.721 219.461 270.721 223.776V232.855H263.794V211.153ZM283.256 211.153H290.156V232.855H283.256V211.153ZM308.378 217.394C307.281 216.34 305.658 215.528 304.003 215.528C302.861 215.528 301.44 216.211 301.44 217.494C301.44 220.956 313.179 218.281 313.179 226.241C313.179 231.785 307.65 233.368 302.878 233.368C299.604 233.368 296.269 232.598 293.945 230.26L297.948 226.241C299.304 227.537 301.14 228.479 303.206 228.479C304.747 228.479 306.384 227.896 306.384 226.756C306.384 222.982 294.647 226.001 294.647 217.95C294.647 212.85 299.345 210.64 304.003 210.64C306.955 210.64 310.217 211.338 312.281 213.476L308.378 217.394ZM283.256 199.113H290.156V205.897H283.256V199.113Z" fill="white"/>
<path d="M238.479 86.8945H249.682V98.1132H238.479V86.8945ZM238.479 154.194H249.682V165.41H238.479V154.194ZM204.828 120.547H216.053V131.764H204.828V120.547ZM272.113 120.547H283.329V131.764H272.113V120.547Z" fill="#252525"/>
<path d="M238.477 120.551H249.68V131.767H238.477V120.551Z" fill="white"/>
<path d="M249.68 120.551H260.908V131.767H249.68V120.551Z" fill="#D6EE89"/>
<path d="M238.477 109.332H249.68V120.548H238.477V109.332Z" fill="#BAD5E8"/>
<path d="M238.478 98.1133H249.682V109.331H238.478V98.1133ZM249.682 109.331H260.911V120.548H249.682V109.331ZM227.262 109.331H238.478V120.548H227.262V109.331Z" fill="#74A5CD"/>
<path d="M227.262 120.551H238.478V131.767H227.262V120.551ZM238.478 131.767H249.682V142.98H238.478V131.767Z" fill="#DA96C8"/>
<path d="M260.908 120.551H272.11V131.767H260.908V120.551ZM249.68 131.767H260.908V142.98H249.68V131.767Z" fill="#7FC31B"/>
<path d="M216.051 120.551H227.261V131.767H216.051V120.551ZM238.477 142.98H249.681V154.197H238.477V142.98ZM227.261 131.767H238.477V142.98H227.261V131.767Z" fill="#911083"/>
</svg>
