<svg width="480" height="320" viewBox="0 0 480 320" fill="none" xmlns="http://www.w3.org/2000/svg">
<path d="M55.3867 191.947H424.615V128.055H55.3867V191.947Z" fill="#004A95"/>
<path d="M392.011 146.418C391.473 146.21 390.829 146.105 390.069 146.105C389.653 146.105 389.178 146.193 388.643 146.366C388.108 146.538 387.516 146.858 386.859 147.323C386.204 147.791 385.496 148.421 384.736 149.213C383.976 150.008 383.166 151.008 382.301 152.216C382.265 151.629 382.223 151.043 382.173 150.458C382.126 149.901 382.049 149.346 381.941 148.798C381.833 148.143 381.388 147.815 380.593 147.815C380.412 147.813 380.231 147.822 380.051 147.844C379.894 147.858 379.739 147.872 379.584 147.872C379.402 147.872 379.221 147.882 379.041 147.901C378.764 147.917 378.488 147.924 378.211 147.922C377.936 147.922 377.651 147.915 377.358 147.901C377.039 147.88 376.718 147.87 376.398 147.872C376.018 147.872 375.76 147.949 375.621 148.105C375.485 148.26 375.415 148.632 375.415 149.217C375.416 149.942 375.536 151.194 375.778 152.972C376.018 154.75 376.138 157.02 376.138 159.783C376.138 162.958 376.074 165.41 375.932 167.134C375.793 168.86 375.723 170.102 375.723 170.862C375.723 171.345 375.831 171.655 376.035 171.795C376.244 171.932 376.574 172 377.018 172H379.713C380.921 172 381.663 171.915 381.941 171.742C382.216 171.57 382.357 171.31 382.357 170.968C382.392 168.998 382.406 166.547 382.406 163.612V154.395C383.371 153.462 384.176 152.817 384.816 152.452C385.453 152.092 385.981 151.909 386.393 151.909C387.224 151.909 387.931 152.075 388.516 152.402C389.104 152.729 389.569 153.309 389.916 154.137L391.261 154.087C391.332 153.397 391.374 152.845 391.391 152.432C391.41 151.979 391.47 151.528 391.571 151.085C391.708 150.499 391.856 150.014 392.01 149.635C392.143 149.304 392.282 148.976 392.426 148.65C392.546 148.375 392.639 148.125 392.709 147.902C392.779 147.675 392.815 147.438 392.814 147.2C392.814 146.892 392.546 146.63 392.011 146.425M336.318 162.153C336.465 167.166 339.293 170.441 343.215 170.441C345.051 170.441 347.409 169.466 349.551 167.426C349.806 167.171 350.082 167.753 350.296 168.269C350.391 168.496 350.26 168.636 350.033 168.918C348.639 170.626 345.569 172.726 341.629 172.726C329.964 172.726 329.369 162.649 329.318 160.961C329.269 160.399 329.269 159.835 329.318 159.274C329.616 154.211 336.319 161.953 336.319 162.153" fill="white"/>
<path d="M346.987 153.467C345.994 153.467 344.952 153.12 343.464 151.729C342.269 150.59 341.479 149.049 340.089 149.049C336.711 149.049 336.366 154.957 336.266 159.225C336.266 159.832 336.316 161.955 336.316 162.152C336.463 167.165 339.291 170.442 343.211 170.442C345.051 170.442 345.947 172.724 341.624 172.724C329.963 172.724 329.366 162.65 329.318 160.962C329.269 160.401 329.269 159.836 329.318 159.275C329.616 154.212 332.889 147.262 339.936 147.262C342.318 147.262 345.131 147.985 346.941 149.547C347.058 149.622 348.423 153.467 346.983 153.467" fill="white"/>
<path d="M347.417 154.316L334.567 162.039L333.664 160.541L346.557 152.898L347.417 154.316Z" fill="white"/>
<path d="M340.121 148.85C341.652 149.47 342.797 150.775 343.611 153.124C343.944 154.092 343.509 154.73 342.444 155.322C342.331 155.386 344.139 155.019 344.164 155.145C344.312 155.822 345.811 155.282 347.174 154.465C349.021 153.355 349.594 152.99 349.109 152.185C347.909 150.21 346.609 149.277 346.609 149.277C346.609 149.277 343.049 147.787 340.121 148.85ZM365.02 168.414C364.467 169.189 363.799 169.574 363.007 169.574C362.32 169.574 361.597 169.309 360.842 168.777C360.084 168.245 359.389 167.504 358.754 166.559C358.116 165.614 357.595 164.504 357.182 163.231C356.769 161.962 356.562 160.569 356.562 159.054C356.562 157.507 356.699 156.124 356.974 154.904C357.249 153.681 357.832 152.404 358.727 151.062C359.692 151.579 360.61 152.358 361.485 153.409C362.379 154.484 363.142 155.661 363.757 156.917C364.392 158.204 364.9 159.527 365.277 160.886C365.655 162.244 365.844 163.492 365.844 164.624C365.844 166.379 365.57 167.642 365.02 168.414ZM368.14 151.319C367.227 149.806 366.229 148.579 365.149 147.632C364.065 146.686 363.042 146.214 362.079 146.214C361.29 146.214 360.345 146.584 359.242 147.324C358.142 148.064 357.085 149.094 356.07 150.419C355.059 151.742 354.19 153.304 353.469 155.109C352.745 156.917 352.385 158.902 352.385 161.066C352.385 161.962 352.399 162.777 352.434 163.516C352.47 164.257 352.532 165.054 352.614 165.914C352.704 166.774 352.797 167.779 352.899 168.929C353.004 170.084 353.139 171.517 353.312 173.236C353.383 173.992 353.441 174.767 353.492 175.557C353.541 176.295 353.568 177.035 353.572 177.775V182.159C353.572 182.707 353.565 183.129 353.543 183.419C353.529 183.714 353.515 183.937 353.515 184.092C353.515 184.247 353.508 184.349 353.487 184.402C353.474 184.443 353.467 184.486 353.465 184.529C353.465 184.701 353.598 184.849 353.878 184.969C354.137 185.086 354.418 185.148 354.703 185.149C355.101 185.145 355.494 185.066 355.863 184.917C356.255 184.762 356.607 184.437 356.92 183.937C357.23 183.439 357.475 182.742 357.665 181.849C357.855 180.954 357.95 179.751 357.95 178.239C357.95 177.242 357.936 176.332 357.9 175.506C357.868 174.707 357.825 173.907 357.771 173.109C357.72 172.334 357.652 171.561 357.568 170.789C357.469 169.938 357.375 169.086 357.283 168.234C357.625 168.887 358.063 169.489 358.596 170.039C359.131 170.589 359.706 171.062 360.325 171.456C360.943 171.854 361.58 172.161 362.231 172.387C362.886 172.609 363.506 172.722 364.091 172.722C365.019 172.722 365.921 172.49 366.798 172.025C367.676 171.56 368.449 170.892 369.116 170.014C369.79 169.137 370.323 168.055 370.716 166.764C371.111 165.477 371.311 163.986 371.311 162.305C371.311 160.344 371.011 158.402 370.406 156.477C369.804 154.552 369.048 152.832 368.138 151.319M292.423 165.371C291.953 166.611 291.235 167.596 290.273 168.329C289.306 169.059 288.095 169.569 286.635 169.859C285.173 170.149 283.451 170.291 281.466 170.291V144.821C282.87 144.821 284.27 145.214 285.661 146.001C287.053 146.785 288.301 147.881 289.403 149.288C290.508 150.693 291.401 152.368 292.093 154.311C292.78 156.253 293.125 158.383 293.125 160.698C293.125 162.573 292.891 164.131 292.424 165.371M294.818 147.818C293.251 146.373 291.346 145.221 289.113 144.368C286.88 143.511 284.388 143.085 281.63 143.085H271.623V144.821H275.058V170.291H271.623V172.028H284.73C286.88 172.028 288.743 171.828 290.313 171.428C291.883 171.031 293.228 170.498 294.343 169.836C295.458 169.173 296.365 168.403 297.053 167.52C297.72 166.675 298.269 165.743 298.685 164.751C299.079 163.811 299.35 162.824 299.493 161.816C299.624 160.884 299.693 159.944 299.698 159.003C299.698 156.853 299.276 154.813 298.438 152.886C297.601 150.961 296.368 149.234 294.818 147.819M324.896 166.114C324.777 165.031 324.682 163.945 324.613 162.857C324.526 161.579 324.481 159.977 324.481 158.047V154.686C324.481 152.721 324.283 151.169 323.886 150.031C323.493 148.894 323.008 148.041 322.44 147.474C321.873 146.904 321.285 146.542 320.683 146.386C320.078 146.231 319.553 146.154 319.106 146.154C318.623 146.154 318.088 146.225 317.503 146.362C316.915 146.499 316.26 146.784 315.535 147.214C314.815 147.646 314.01 148.239 313.13 148.996C312.253 149.757 311.281 150.757 310.208 151.997C310.179 151.619 310.133 151.127 310.08 150.524C310.036 149.959 309.958 149.398 309.848 148.842C309.745 148.187 309.298 147.862 308.503 147.862C308.321 147.859 308.14 147.869 307.96 147.89C307.805 147.904 307.65 147.919 307.495 147.919C307.314 147.919 307.132 147.928 306.952 147.947C306.677 147.966 306.401 147.975 306.125 147.975C305.847 147.975 305.562 147.968 305.27 147.947C304.952 147.926 304.634 147.917 304.315 147.919C303.935 147.919 303.677 147.996 303.54 148.151C303.4 148.306 303.33 148.675 303.33 149.264C303.33 149.989 303.453 151.238 303.691 153.011C303.935 154.788 304.055 157.053 304.055 159.811C304.055 162.983 303.984 165.43 303.85 167.153C303.713 168.878 303.643 170.121 303.643 170.879C303.643 171.361 303.745 171.671 303.954 171.808C304.158 171.949 304.49 172.016 304.935 172.016H307.622C308.833 172.016 309.573 171.929 309.848 171.759C310.126 171.584 310.26 171.327 310.26 170.981C310.26 170.016 310.267 168.879 310.288 167.569C310.303 166.259 310.317 164.861 310.317 163.381V153.917C311.595 153.159 312.627 152.642 313.422 152.367C314.202 152.093 315.023 151.952 315.849 151.952C316.607 151.952 317.204 152.261 317.637 152.884C318.064 153.504 318.282 154.606 318.282 156.192V157.85C318.282 158.227 318.274 158.544 318.253 158.804C318.239 159.062 318.225 159.293 318.225 159.505V160.329C318.26 162.879 318.289 164.922 318.303 166.457C318.317 167.992 318.389 169.172 318.51 170C318.632 170.827 318.812 171.372 319.052 171.63C319.293 171.886 319.672 172.017 320.189 172.017H322.622C323.277 172.017 323.791 171.988 324.17 171.94C324.55 171.89 324.818 171.799 324.975 171.682C325.124 171.567 325.224 171.4 325.258 171.215C325.295 170.984 325.312 170.751 325.307 170.517C325.307 169.83 325.265 169.147 325.178 168.475C325.078 167.691 324.983 166.907 324.893 166.122M127.841 165.635C127.69 166.234 127.465 166.812 127.171 167.355C127.029 167.386 126.884 167.403 126.739 167.405H126.301C124.829 167.405 123.528 167.02 122.401 166.25C121.28 165.488 120.313 164.522 119.551 163.402C118.787 162.281 118.191 161.053 117.781 159.76C117.371 158.459 117.169 157.262 117.169 156.167C117.169 155.654 117.306 155.012 117.578 154.245C117.857 153.461 118.255 152.725 118.758 152.062C120.042 152.194 121.284 152.596 122.401 153.242C123.528 153.892 124.516 154.732 125.351 155.757C126.191 156.785 126.848 157.972 127.328 159.325C127.809 160.675 128.046 162.103 128.046 163.61C128.046 164.394 127.979 165.072 127.841 165.635M128.558 149.395C127.534 148.367 126.481 147.597 125.403 147.084C124.326 146.572 123.426 146.314 122.708 146.314C121.956 146.314 121.051 146.734 119.991 147.572C118.928 148.41 117.921 149.529 116.961 150.932C116.004 152.337 115.191 153.959 114.526 155.807C113.858 157.65 113.518 159.595 113.523 161.555C113.523 163.197 113.893 164.754 114.626 166.225C115.363 167.695 116.243 168.987 117.269 170.1C118.296 171.212 119.341 172.092 120.401 172.742C121.461 173.392 122.314 173.717 122.966 173.717C123.649 173.717 124.516 173.272 125.559 172.382C126.6 171.495 127.619 170.339 128.611 168.92C129.603 167.497 130.456 165.882 131.176 164.07C131.896 162.257 132.253 160.427 132.253 158.578C132.253 156.559 131.896 154.782 131.176 153.242C130.456 151.702 129.586 150.419 128.558 149.394M113.587 143.315C113.254 143.166 112.911 143.043 112.56 142.945C112.17 142.835 111.773 142.753 111.372 142.7C111.072 142.654 110.77 142.626 110.467 142.618C109.507 142.618 108.707 142.835 108.064 143.275C107.422 143.711 106.874 144.293 106.422 145.018C105.949 145.791 105.57 146.619 105.295 147.483C104.991 148.401 104.704 149.325 104.432 150.254C104.102 151.408 103.78 152.565 103.467 153.723C103.209 154.693 102.974 155.578 102.769 156.371C102.564 157.163 102.372 157.916 102.192 158.628C102.015 159.341 101.812 160.106 101.579 160.928C101.318 161.842 101.045 162.752 100.76 163.658C100.444 164.656 100.064 165.853 99.6292 167.251L94.1264 144.956H97.0015V143.234H84.1094V144.956H87.5167L94.4141 171.973H102.992V170.246H101.064C101.859 167.593 102.517 165.403 103.036 163.678C103.469 162.251 103.893 160.821 104.309 159.388C104.637 158.253 104.897 157.328 105.089 156.615C105.282 155.905 105.457 155.248 105.625 154.645C105.825 153.831 106.05 153.023 106.299 152.223C106.532 151.486 106.812 150.843 107.142 150.293C107.469 149.746 107.867 149.315 108.334 149.001C108.799 148.688 109.387 148.528 110.097 148.528C110.589 148.528 110.999 148.61 111.33 148.775C111.66 148.938 112.054 149.145 112.519 149.39H113.18C113.069 148.242 113.052 147.365 113.137 146.763C113.216 146.162 113.327 145.695 113.462 145.365C113.572 145.096 113.703 144.836 113.851 144.586C113.977 144.395 114.037 144.12 114.037 143.765C114.037 143.6 113.889 143.453 113.587 143.315ZM183.714 163.287C183.505 163.79 183.209 164.253 182.84 164.654C182.45 165.073 181.985 165.414 181.469 165.659C180.937 165.914 180.329 166.044 179.639 166.044C178.576 166.044 177.804 165.666 177.322 164.912C176.839 164.154 176.599 163.364 176.599 162.539C176.599 162.229 176.656 161.791 176.779 161.225C176.9 160.66 177.139 159.972 177.502 159.162C177.864 158.354 178.387 157.444 179.072 156.429C179.759 155.414 180.654 154.307 181.755 153.102C182.027 153.888 182.285 154.679 182.529 155.474C182.804 156.369 183.051 157.244 183.274 158.104C183.501 158.964 183.681 159.737 183.817 160.427C183.957 161.112 184.024 161.594 184.024 161.869C184.024 162.316 183.92 162.789 183.714 163.287ZM192.634 168.364C192.423 167.722 192.218 167.078 192.018 166.432C191.724 165.504 191.431 164.575 191.139 163.647C190.846 162.724 190.572 161.795 190.317 160.862C190.15 160.25 189.976 159.64 189.797 159.032C189.586 158.385 189.398 157.731 189.232 157.072C189.021 156.263 188.806 155.455 188.587 154.649C188.379 153.887 188.182 153.122 187.994 152.354C187.863 151.812 187.726 151.271 187.582 150.731C187.409 149.974 187.324 149.466 187.324 149.212C187.319 148.908 187.284 148.604 187.219 148.307C187.187 148.137 187.127 148.042 187.039 148.023C186.895 148.003 186.75 147.993 186.604 147.995H181.341C180.967 147.995 180.697 148.002 180.544 148.023C180.389 148.038 180.312 148.137 180.312 148.307C180.311 148.75 180.399 149.189 180.572 149.597C180.742 150.009 180.827 150.507 180.827 151.092C180.827 151.334 180.749 151.567 180.594 151.789C180.441 152.011 180.191 152.304 179.85 152.664C179.504 153.024 179.084 153.482 178.581 154.032C177.967 154.714 177.358 155.402 176.754 156.094C176.144 156.783 175.551 157.489 174.977 158.209C174.342 158.996 173.747 159.813 173.194 160.659C172.656 161.479 172.199 162.35 171.829 163.259C171.469 164.154 171.289 165.014 171.289 165.839C171.289 166.319 171.36 166.939 171.494 167.694C171.636 168.469 171.897 169.217 172.267 169.912C172.647 170.634 173.194 171.251 173.919 171.769C174.642 172.284 175.602 172.541 176.807 172.541C177.872 172.541 178.824 172.327 179.667 171.896C180.529 171.454 181.299 170.851 181.935 170.119C182.606 169.361 183.182 168.476 183.664 167.464C184.163 166.401 184.593 165.307 184.951 164.189C185.467 165.769 185.846 167.059 186.09 168.054C186.327 169.052 186.524 169.844 186.679 170.427C186.834 171.011 186.957 171.417 187.039 171.642C187.127 171.864 187.272 171.974 187.479 171.974H192.737C192.98 171.976 193.223 171.95 193.46 171.896C193.664 171.847 193.769 171.717 193.769 171.512C193.769 171.305 193.664 171.005 193.459 170.609C193.252 170.212 192.977 169.467 192.634 168.364ZM139.443 171.972C137.838 171.972 137.413 171.341 137.413 155.164C137.413 142.639 138.106 142.639 139.443 142.639C140.083 142.639 140.668 142.703 141.256 142.703C141.95 142.703 142.753 142.639 143.448 142.575C143.661 142.575 143.82 142.511 144.033 142.575C144.783 142.703 144.73 143.206 144.73 143.583C144.73 146.231 143.876 146.231 143.876 154.915C143.876 163.351 144.676 165.928 144.676 170.146C144.676 171.281 144.995 171.973 141.95 171.973L139.443 171.972ZM153.366 156.089C153.426 154.354 154.381 153.241 155.07 153.044C159.793 153.384 163.023 155.856 163.114 158.969C163.114 159.659 162.848 161.619 161.025 162.446C157.666 161.791 153.306 159.821 153.365 156.089M164.438 184.662C168.198 183.307 170.188 180.839 170.188 177.907C170.188 174.807 168.374 171.719 163.053 170.869C161.338 170.597 160.48 170.774 158.616 170.813C157.855 170.813 157.301 170.749 156.941 170.614C156.558 170.473 155.875 169.806 157.016 169.119C158.031 168.505 163.498 165.525 165.97 161.017C166.833 159.449 167.325 158.012 167.325 156.634C167.325 155.355 167.028 154.197 166.438 153.164C165.848 152.129 165.028 151.22 163.978 150.432C164.325 150.281 164.689 150.174 165.063 150.112C165.306 150.071 165.552 150.047 165.798 150.04C166.203 150.041 166.605 150.115 166.983 150.259C167.373 150.41 167.703 150.58 167.965 150.777C168.393 151.104 168.786 151.269 169.146 151.269C169.31 151.269 169.511 151.064 169.736 150.654C169.989 150.197 170.204 149.719 170.378 149.226C170.573 148.692 170.745 148.15 170.893 147.601C171.043 147.061 171.118 146.642 171.118 146.347C171.118 146.085 170.938 145.844 170.575 145.631C170.213 145.418 169.491 145.314 168.41 145.314C166.308 145.314 164.308 146.691 162.403 149.446C161.69 149.038 160.93 148.715 160.141 148.486C159.383 148.274 158.731 148.169 158.171 148.169C157.415 148.169 156.528 148.464 155.51 149.054C154.496 149.643 153.526 150.424 152.608 151.391C151.672 152.384 150.892 153.513 150.293 154.739C149.67 156.002 149.168 158.506 149.853 160.844C150.983 164.701 154.586 166.182 156.693 166.726C154.503 167.204 151.323 168.627 151.323 169.959C151.323 170.901 152.005 172.271 155.81 172.726C159.616 173.181 163.608 174.109 163.608 178.124C163.608 181.212 161.833 182.872 158.976 183.334C156.878 183.664 154.593 182.94 152.508 181.554C152.413 181.49 152.03 181.217 152.008 181.859C151.986 182.631 152.323 183.954 153.863 184.556C158.266 186.279 161.906 185.574 164.438 184.659" fill="white"/>
<path fill-rule="evenodd" clip-rule="evenodd" d="M55.3828 195.937H424.611V199.932H55.3828V195.937ZM55.3828 120.066H424.611V124.061H55.3828V120.066Z" fill="#004A95"/>
<path fill-rule="evenodd" clip-rule="evenodd" d="M232.585 134.043C246.919 134.043 258.544 145.666 258.544 160.001C258.544 174.334 246.919 185.959 232.585 185.959C218.252 185.959 206.629 174.334 206.629 160.001C206.629 145.666 218.251 134.043 232.585 134.043Z" fill="white"/>
<path fill-rule="evenodd" clip-rule="evenodd" d="M232.583 183.961C245.777 183.961 256.541 173.198 256.541 160.003C256.541 146.806 245.777 136.043 232.583 136.043C219.386 136.043 208.621 146.806 208.621 160.003C208.621 173.198 219.386 183.961 232.583 183.961ZM232.581 182.366C244.894 182.366 254.941 172.321 254.941 160.003C254.941 147.686 244.894 137.64 232.581 137.64C220.264 137.64 210.218 147.686 210.218 160.003C210.218 172.321 220.264 182.366 232.581 182.366" fill="#004A95"/>
<path fill-rule="evenodd" clip-rule="evenodd" d="M229.25 154.051C229.525 153.194 228.573 152.817 227.918 152.769L233.985 150.876L233.153 154.002H234.285L235.798 148.811C236.125 147.626 235.445 146.622 232.75 146.344L243.302 146.372C250.531 146.372 249.95 154.182 243.053 154.66C246.752 154.963 252.948 157.48 252.948 161.16C252.948 164.307 248.643 168.06 238.215 168.06H222.1C223.56 167.682 225.048 167.48 225.575 165.795L228.998 155.212C226.027 155.29 221.67 156.17 219.103 157.507C217.213 158.487 215.625 160.075 215.903 162.518C216.155 164.785 218.723 166.295 220.79 166.775V167.027C217.565 166.7 213.06 165.667 212.378 163.022C210.465 155.667 225.977 154.055 229.25 154.055M243.303 151.157C242.6 152.947 240.13 153.802 238.141 154.029L239.953 147.735C242.748 147.529 244.158 148.992 243.302 151.157M248.87 161.687C248.34 164.71 242.268 166.347 240.028 166.597C247.558 164.734 249.12 158.334 240.985 155.464C248.44 156.85 249.245 159.697 248.87 161.687ZM241.893 156.977C245.14 159.797 242.018 166.095 234.54 166.849L237.863 155.364C239.903 155.692 240.985 156.169 241.893 156.977ZM229.225 167.002L232.875 155.087H233.96L230.458 167.002H229.225Z" fill="#004A95"/>
</svg>
