<svg width="480" height="320" viewBox="0 0 480 320" fill="none" xmlns="http://www.w3.org/2000/svg">
<path d="M76.0772 198.365H76.2359L86.1516 157.758H96.7878L82.305 214.578H69.9389L55.3828 157.758H66.08L76.0772 198.365Z" fill="#432129"/>
<path d="M101.887 176.011C101.887 162.008 109.291 156.969 119.825 156.969C130.376 156.969 137.776 162.008 137.776 176.011V196.322C137.776 210.329 130.376 215.36 119.825 215.36C109.291 215.36 101.887 210.329 101.887 196.322V176.011ZM112.759 197.735C112.759 204.036 115.503 205.754 119.825 205.754C124.161 205.754 126.912 204.036 126.912 197.735V174.586C126.912 168.301 124.161 166.571 119.825 166.571C115.503 166.571 112.759 168.301 112.759 174.586V197.735Z" fill="#432129"/>
<path d="M157.454 157.758V204.98H174.92V214.578H146.594V157.758H157.454Z" fill="#432129"/>
<path d="M180.59 176.011C180.59 162.008 187.982 156.969 198.524 156.969C209.075 156.969 216.463 162.008 216.463 176.011V196.322C216.463 210.329 209.075 215.36 198.524 215.36C187.982 215.36 180.59 210.329 180.59 196.322V176.011ZM191.442 197.735C191.442 204.036 194.193 205.754 198.524 205.754C202.851 205.754 205.607 204.036 205.607 197.735V174.586C205.607 168.301 202.851 166.571 198.524 166.571C194.193 166.571 191.442 168.301 191.442 174.586V197.735Z" fill="#432129"/>
<path d="M245.512 167.348V214.578H234.652V167.348H221.984V157.758H258.175V167.348H245.512Z" fill="#432129"/>
<path d="M294.384 157.758V167.348H275.493V180.427H289.898V190.025H275.493V204.98H295.166V214.578H264.633V157.758H294.384Z" fill="#432129"/>
<path d="M320.967 173.967H320.825L310.901 214.578H300.281L314.764 157.758H327.11L341.678 214.578H330.973L320.967 173.967Z" fill="#432129"/>
<path d="M371.551 170.961L384.821 157.688L398.082 170.961L384.821 184.219L371.551 170.961Z" fill="#ED164A"/>
<path d="M371.551 117.902L384.821 104.637L398.082 117.902L384.821 131.168L371.551 117.902Z" fill="#ED164A"/>
<path d="M398.082 144.43L411.352 131.168L424.614 144.43L411.352 157.691L398.082 144.43Z" fill="#ED164A"/>
<path d="M345.023 144.43L358.293 131.168L371.555 144.43L358.293 157.691L345.023 144.43Z" fill="#ED164A"/>
<path d="M361.236 160.639V154.745L358.293 157.688L361.236 160.639ZM364.187 163.586L367.138 166.533V148.851L364.187 151.802V163.586ZM370.085 145.908V169.488L371.555 170.961L373.024 169.488V145.908L371.555 144.426L370.085 145.908ZM381.865 154.745V160.639L384.824 157.688L381.865 154.745ZM375.975 166.533L378.926 163.586V151.802L375.975 148.851V166.533Z" fill="#ED164A"/>
<path d="M387.764 134.107V128.221L384.812 131.172L387.764 134.107ZM390.71 137.058L393.661 140.005V122.319L390.71 125.274V137.058ZM396.605 119.38V142.956L398.082 144.43L399.552 142.956V119.38L398.082 117.902L396.605 119.38ZM408.393 128.221V134.107L411.344 131.172L408.393 128.221ZM402.499 140.005L405.454 137.058V125.274L402.499 122.319V140.005Z" fill="#ED164A"/>
<path d="M387.764 160.639V154.745L384.812 157.688L387.764 160.639ZM390.71 163.586L393.661 166.533V148.851L390.71 151.802V163.586ZM396.605 145.908V169.488L398.082 170.961L399.552 169.488V145.908L398.082 144.426L396.605 145.908ZM408.393 154.745V160.639L411.344 157.688L408.393 154.745ZM402.499 166.533L405.454 163.586V151.802L402.499 148.851V166.533Z" fill="#ED164A"/>
<path d="M361.236 134.107V128.221L358.293 131.172L361.236 134.107ZM364.187 137.058L367.138 140.005V122.319L364.187 125.274V137.058ZM370.085 119.38V142.956L371.555 144.43L373.024 142.956V119.38L371.555 117.902L370.085 119.38ZM381.865 128.221V134.107L384.824 131.172L381.865 128.221ZM375.975 140.005L378.926 137.058V125.274L375.975 122.319V140.005Z" fill="#ED164A"/>
</svg>
