<svg width="480" height="320" viewBox="0 0 480 320" fill="none" xmlns="http://www.w3.org/2000/svg">
<path d="M238.78 100.498C241.391 99.7194 244.434 100.219 246.486 102.07C248.227 103.69 248.967 106.113 248.977 108.445C248.986 131.362 248.982 154.28 248.982 177.197C248.857 180.63 249.582 184.48 247.458 187.466C245.342 190.548 240.9 191.36 237.641 189.735C234.982 188.413 233.559 185.365 233.593 182.485C233.602 158.78 233.593 135.069 233.598 111.363C233.626 109.248 233.376 107.051 234.126 105.027C234.872 102.912 236.617 101.142 238.78 100.498ZM177.72 143.722C181.624 138.155 188.128 134.723 194.84 134.074C201.969 133.285 209.834 134.497 215.358 139.396C220.488 143.905 222.776 150.814 223.242 157.462C223.386 160.078 223.771 162.948 222.406 165.323C221.343 167.197 219.002 167.693 217.012 167.707C207.108 167.726 197.2 167.693 187.297 167.722C187.926 171.404 189.652 175.351 193.311 176.899C198.416 179.072 204.176 177.793 209.281 176.264C211.305 175.663 213.396 174.918 215.541 175.216C218.531 175.861 220.656 179.067 220.314 182.067C220.026 184.351 218.141 185.995 216.262 187.081C212.81 188.995 208.863 189.759 204.983 190.216C197.637 191.072 189.681 190.499 183.378 186.278C177.133 182.24 173.557 175.053 172.677 167.813C171.663 159.563 172.807 150.626 177.72 143.722ZM192.277 147.15C188.585 149.092 187.672 153.587 187.301 157.376C194.522 157.381 201.748 157.366 208.969 157.381C208.695 153.515 207.406 149.145 203.729 147.208C200.209 145.477 195.82 145.496 192.277 147.15ZM118.073 134.482C120.722 133.737 123.857 134.184 125.842 136.199C127.525 137.853 128.198 140.261 128.188 142.564C128.203 151.073 128.184 159.578 128.193 168.082C128.174 171.149 129.429 174.418 132.106 176.111C134.462 177.639 137.4 177.779 140.116 177.462C142.447 177.168 144.774 176.077 146.13 174.096C147.659 171.933 147.875 169.193 147.904 166.625C147.909 158.289 147.899 149.953 147.904 141.622C147.928 138.718 149.678 135.805 152.433 134.737C155.428 133.531 159.293 134.103 161.389 136.704C163.023 138.583 163.341 141.175 163.298 143.578C163.245 151.251 163.355 158.929 163.245 166.606C163.086 173.173 161.307 180.197 156.307 184.783C150.947 189.725 143.26 190.923 136.226 190.648C129.746 190.427 122.857 188.48 118.444 183.461C114.396 178.885 112.876 172.606 112.809 166.625C112.819 158.289 112.795 149.953 112.819 141.622C112.857 138.463 114.992 135.367 118.073 134.482ZM306.998 134.564C314.219 133.656 322.089 133.987 328.454 137.896C332.834 140.521 335.815 145.054 337.103 149.943C337.988 153.179 338.281 156.554 338.286 159.9C338.276 167.265 338.281 174.63 338.286 181.995C338.329 184.432 337.536 187 335.67 188.653C332.916 191.115 328.411 191.172 325.551 188.865C323.676 187.341 322.695 184.884 322.767 182.49C322.791 175.115 322.767 167.741 322.781 160.366C322.796 157.116 322.916 153.549 320.94 150.77C319.325 148.381 316.397 147.285 313.604 147.184C310.844 147.102 307.83 147.631 305.763 149.607C303.84 151.525 303.172 154.342 303.181 156.986C303.196 165.342 303.176 173.697 303.196 182.048C303.201 184.038 302.768 186.101 301.523 187.701C298.879 191.235 293.004 191.528 289.975 188.341C288.461 186.812 287.788 184.62 287.802 182.505C287.797 176.894 287.807 171.289 287.802 165.678C287.855 160.554 287.456 155.333 288.841 150.328C289.994 145.564 292.754 141.141 296.821 138.338C299.85 136.28 303.398 135.103 306.998 134.564ZM356.843 140.617C362.092 136.002 369.241 133.997 376.14 134.165C382.899 134.175 389.793 135.559 395.716 138.91C398.442 140.391 400.485 143.261 400.418 146.444C400.418 162.313 400.413 178.187 400.423 194.062C400.322 201.244 398.019 208.864 392.404 213.667C386.764 218.522 379.039 219.945 371.799 219.849C366.232 219.614 360.621 218.21 355.828 215.311C354.098 214.2 352.463 212.816 351.458 210.999C349.622 207.609 351.756 202.773 355.535 201.922C358.314 201.489 360.919 202.85 363.419 203.864C366.813 205.359 370.515 206.206 374.236 206.071C377.409 206.066 380.813 205.273 383.116 202.956C385.255 200.73 385.909 197.518 385.885 194.528C385.875 191.759 385.861 188.995 385.88 186.226C381.534 190.048 375.433 190.966 369.837 190.605C363.977 190.245 358.227 187.629 354.391 183.13C348.992 176.942 347.396 168.332 347.833 160.342C348.208 152.962 351.141 145.487 356.843 140.617ZM373.034 147.309C370.683 147.713 368.395 148.751 366.736 150.491C363.703 153.78 363.015 158.477 363.02 162.779C363.083 166.649 363.386 170.856 365.785 174.067C368.058 177.024 372.097 177.697 375.606 177.423C378.962 177.26 382.274 175.433 383.817 172.375C386.702 166.904 385.678 160.529 385.88 154.597C385.774 152.833 386.409 150.554 384.644 149.41C381.356 146.987 376.943 146.727 373.034 147.309ZM56.1672 138.564C57.797 135.406 61.816 134.175 65.138 134.853C67.7773 135.343 69.6571 137.684 70.3157 140.179C73.354 150.434 76.402 160.683 79.4211 170.947C79.5845 171.548 79.8682 172.116 80.1951 172.644C83.3777 162.14 86.4641 151.607 89.5793 141.078C90.1659 138.824 91.2523 136.454 93.4638 135.396C97.0165 133.776 101.906 134.925 103.92 138.396C105.204 140.699 104.877 143.516 103.949 145.881C99.627 157.914 95.3868 169.976 91.0793 182.014C90.1755 184.331 89.3101 186.798 87.5073 188.596C85.642 190.37 82.9113 190.548 80.4691 190.567C77.7577 190.581 74.7386 190.331 72.6569 188.379C70.7484 186.548 69.7484 184.014 68.8446 181.586C64.5707 169.51 60.3305 157.424 56.0374 145.362C55.2394 143.189 55.0471 140.66 56.1672 138.564ZM265.765 135.218C269 133.934 273.11 134.91 275.081 137.872C276.254 139.511 276.524 141.593 276.514 143.559C276.495 156.381 276.504 169.207 276.509 182.029C276.504 184.173 275.971 186.413 274.509 188.043C271.74 191.312 266.077 191.403 263.193 188.245C261.808 186.692 261.101 184.601 261.116 182.533C261.12 169.221 261.125 155.905 261.116 142.593C261.034 139.516 262.818 136.329 265.765 135.218Z" fill="#757575"/>
<path d="M410.97 105.935C413.402 105.166 416.085 105.166 418.518 105.945C421.541 106.916 423.936 109.622 424.464 112.762C424.796 115.459 424.676 118.439 423.022 120.723C419.801 125.232 412.806 125.848 408.412 122.776C402.763 118.569 403.922 108.002 410.97 105.935Z" fill="#FBE666"/>
</svg>
