<svg width="480" height="320" viewBox="0 0 480 320" fill="none" xmlns="http://www.w3.org/2000/svg">
<path d="M85.0203 170.065C81.881 170.065 79.0494 168.218 77.8185 165.325L56.0283 114.359C54.3048 110.358 56.1516 105.803 60.1524 104.079C64.1534 102.356 68.7084 104.202 70.432 108.203L85.0203 142.366L99.6085 108.203C101.332 104.202 105.887 102.356 109.888 104.079C113.889 105.803 115.736 110.358 114.012 114.359L92.222 165.325C90.9911 168.218 88.1596 170.065 85.0203 170.065Z" fill="#7D4697"/>
<path d="M377.834 161.693C376.295 160.585 375.188 158.615 375.188 156.461C375.188 152.829 378.08 150.059 381.712 150.059C383.497 150.059 384.79 150.675 385.652 151.352C390.453 154.86 395.685 157.015 401.779 157.015C407.442 157.015 410.889 154.737 410.889 151.044V150.859C410.889 147.351 408.734 145.504 398.147 142.857C385.405 139.595 377.219 136.086 377.219 123.529V123.345C377.219 111.895 386.452 104.324 399.317 104.324C407.011 104.324 413.659 106.294 419.322 109.926C420.861 110.849 422.399 112.696 422.399 115.466C422.399 119.097 419.506 121.867 415.875 121.867C414.521 121.867 413.412 121.498 412.366 120.882C407.749 118.174 403.441 116.635 399.132 116.635C393.777 116.635 391.007 119.097 391.007 122.113V122.298C391.007 126.422 393.715 127.776 404.61 130.608C417.413 133.932 424.615 138.548 424.615 149.567V149.751C424.615 162.308 415.074 169.325 401.409 169.325C393.284 169.264 384.851 166.74 377.834 161.693Z" fill="#7D4697"/>
<path d="M338.006 169.941C319.724 169.941 304.828 155.045 304.828 136.764C304.828 118.482 319.724 103.586 338.006 103.586C356.287 103.586 371.183 118.482 371.183 136.763C371.183 155.045 356.348 169.941 338.006 169.941M338.006 117.743C327.541 117.743 318.985 126.299 318.985 136.763C318.985 147.228 327.541 155.784 338.006 155.784C348.47 155.784 357.026 147.228 357.026 136.763C357.026 126.299 348.531 117.743 338.006 117.743Z" fill="#7D4697"/>
<path d="M288.947 109.312L301.873 160.278C302.919 164.464 300.396 168.711 296.21 169.758C295.594 169.942 294.917 170.004 294.302 170.004C290.793 170.004 287.592 167.665 286.731 164.095L279.529 135.534L266.849 165.203C265.618 168.096 262.786 169.942 259.647 169.942C256.508 169.942 253.676 168.096 252.445 165.203L239.088 134.302L230.163 164.464C229.178 167.849 226.038 170.065 222.653 170.065C221.914 170.065 221.175 169.942 220.437 169.758C216.313 168.526 213.912 164.156 215.143 160.032L230.224 109.25C230.224 109.25 231.886 103.402 237.61 103.402C243.027 103.402 244.874 107.958 244.874 107.958L259.585 142.305L274.174 108.142C274.174 108.142 276.143 103.402 281.437 103.402C286.731 103.464 288.639 108.142 288.947 109.312Z" fill="#7D4697"/>
<path d="M128.598 170.065C125.459 170.065 122.628 168.218 121.397 165.325L99.6064 114.359C97.883 110.358 99.7297 105.803 103.731 104.079C107.732 102.356 112.286 104.202 114.01 108.203L128.598 142.366L143.187 108.203C144.91 104.202 149.465 102.356 153.466 104.079C157.467 105.803 159.314 110.358 157.59 114.359L135.8 165.325C134.569 168.218 131.738 170.065 128.598 170.065Z" fill="#6FB92C"/>
<path d="M203.143 170.68C200.065 170.68 197.172 168.895 195.941 165.879L181.353 130.978L166.826 165.879C165.164 169.88 160.609 171.727 156.608 170.065C152.607 168.403 150.76 163.848 152.422 159.847L174.212 107.649C175.443 104.756 178.275 102.848 181.414 102.848C184.553 102.848 187.447 104.756 188.616 107.649L210.406 159.847C212.068 163.848 210.16 168.403 206.221 170.064C205.174 170.495 204.128 170.68 203.143 170.68" fill="#6FB92C"/>
<path d="M125.031 213.031L132.849 191.487C133.649 189.209 134.942 187.855 137.096 187.855C139.312 187.855 140.604 189.209 141.405 191.487L149.037 213.031C149.161 213.4 149.222 213.77 149.222 214.2C149.222 215.985 147.806 217.094 146.206 217.094C144.852 217.094 143.744 216.293 143.313 214.878L142.143 211.369H131.864L130.694 214.878C130.202 216.293 129.155 217.094 127.801 217.094C126.262 217.094 124.785 215.924 124.785 214.2C124.785 213.77 124.908 213.339 125.031 213.031ZM140.42 206.075L137.096 195.98H136.973L133.649 206.075H140.42Z" fill="#6FB92C"/>
<path d="M152.668 191.117C152.668 189.147 153.961 187.793 155.807 187.793C157.592 187.793 158.885 189.086 158.885 191.117V213.83C158.885 215.8 157.592 217.154 155.807 217.154C153.961 217.154 152.668 215.862 152.668 213.83V191.117Z" fill="#6FB92C"/>
<path d="M179.199 215.184L174.398 205.89H170.151C169.966 205.89 169.904 205.951 169.904 206.136V213.83C169.904 215.8 168.612 217.154 166.827 217.154C164.98 217.154 163.688 215.862 163.688 213.83V190.809C163.688 189.147 164.673 188.039 166.396 188.039H175.568C181.477 188.039 185.416 191.732 185.416 196.964C185.416 200.473 183.631 203.304 180.676 204.782L184.862 212.414C185.17 212.969 185.293 213.584 185.293 214.138C185.293 215.738 184.185 217.093 182.338 217.093C180.923 217.093 179.876 216.539 179.199 215.184M179.076 197.026C179.076 194.81 177.537 193.456 175.198 193.456H170.089C169.904 193.456 169.843 193.518 169.843 193.702V200.35C169.843 200.535 169.905 200.596 170.089 200.596H175.198C177.537 200.596 179.076 199.18 179.076 197.026" fill="#6FB92C"/>
</svg>
