<svg width="480" height="320" viewBox="0 0 480 320" fill="none" xmlns="http://www.w3.org/2000/svg">
<path d="M217.361 152.049H213.461C212.703 156.075 211.666 160.163 210.531 164.098H210.503L207.198 152.049H203.111L199.932 164.098H199.902C198.768 160.259 197.731 156.199 196.912 152.049H192.758C193.889 157.427 195.559 163.026 197.382 168.219H202.007L204.934 157.205H204.964L208.049 168.219H212.548C214.528 162.809 216.133 157.459 217.361 152.049ZM243.403 155.173V152.136H239.866L239.862 147.506H239.853L239.858 147.488C238.371 147.6 237.115 147.716 235.854 147.944V150.976H235.855L235.86 164.025C235.86 167.437 237.642 168.562 240.272 168.562C241.43 168.562 242.682 168.439 243.403 168.187V165.373H242.118C240.491 165.373 239.866 164.933 239.866 162.806V155.172H243.403V155.173ZM305.199 152.222H301.146C300.36 156.343 299.119 160.951 297.778 164.777H297.712C296.274 160.789 294.968 156.637 293.918 152.222H289.54C290.978 158.173 293.233 164.385 295.326 169.026C293.918 171.806 293.069 172.655 291.86 172.655H289.9L289.799 175.727C290.457 175.924 291.205 176.121 292.056 176.121C294.834 176.121 297.125 174.585 299.771 169.026C301.603 165.235 303.368 159.775 305.199 152.222ZM228.606 161.115L228.614 165.17C228.614 165.408 228.753 165.507 228.87 165.618C228.921 165.672 227.523 165.845 225.456 165.845C223.43 165.845 222.629 165.096 222.629 163.527C222.629 161.932 223.851 161.115 226.604 161.115H228.606ZM232.548 157.299C232.548 153.764 230.64 151.699 225.823 151.699C223.724 151.699 221.471 152.137 219.846 152.731L220.535 155.64C221.941 155.079 223.695 154.703 225.26 154.703C227.856 154.703 228.608 155.674 228.608 157.677V158.522H226.669C221.6 158.522 218.627 160.084 218.627 163.748C218.627 167.137 221.093 168.682 226.078 168.682C227.339 168.682 231.158 168.477 232.548 167.658V157.299ZM255.523 161.115L255.528 165.17C255.528 165.408 255.671 165.507 255.785 165.618C255.837 165.672 254.437 165.845 252.373 165.845C250.348 165.845 249.547 165.096 249.547 163.527C249.547 161.932 250.767 161.115 253.522 161.115H255.523ZM259.466 157.299C259.466 153.764 257.558 151.699 252.739 151.699C250.642 151.699 248.391 152.137 246.762 152.731L247.449 155.64C248.858 155.079 250.61 154.703 252.174 154.703C254.771 154.703 255.523 155.674 255.523 157.677V158.522H253.584C248.515 158.522 245.542 160.084 245.542 163.748C245.542 167.137 248.008 168.682 252.991 168.682C254.252 168.682 258.073 168.477 259.462 167.658L259.466 157.299ZM316.02 161.115L316.026 165.17C316.026 165.408 316.167 165.507 316.281 165.618C316.332 165.672 314.933 165.845 312.869 165.845C310.842 165.845 310.043 165.096 310.043 163.527C310.043 161.932 311.265 161.115 314.017 161.115H316.02ZM319.961 157.299C319.961 153.764 318.054 151.699 313.232 151.699C311.137 151.699 308.884 152.137 307.255 152.731L307.945 155.64C309.355 155.079 311.105 154.703 312.67 154.703C315.267 154.703 316.02 155.674 316.02 157.677V158.522H314.08C309.011 158.522 306.038 160.084 306.038 163.748C306.038 167.137 308.503 168.682 313.488 168.682C314.748 168.682 318.569 168.477 319.956 167.658L319.961 157.299ZM271.919 151.699C269.64 151.699 268.203 152.446 266.49 154.158L266.101 152.137C265.721 152.138 265.346 152.153 264.981 152.185C264.257 152.239 263.646 152.294 263.034 152.407V168.222H267.04V165.656H267.041L267.04 165.605V157.24C268.414 155.769 269.353 154.987 271.013 154.987C272.985 154.987 273.641 156.487 273.641 158.897V168.222H277.648V158.084C277.646 154.264 275.988 151.699 271.919 151.699ZM282.716 155.26C282.39 155.213 281.924 155.213 281.408 155.169L280.007 155.026V152.548C281.034 152.362 282.061 152.271 283.277 152.176C284.396 152.084 285.567 152.084 286.734 152.131V168.229H282.716V155.26ZM287.111 147.318C287.111 145.89 286.087 144.931 284.66 144.931C283.232 144.931 282.211 145.89 282.211 147.318C282.211 148.745 283.232 149.707 284.66 149.707C286.087 149.707 287.111 148.745 287.111 147.318ZM359.6 152.317C357.901 152.25 357.117 153.148 355.144 155.441L355.081 155.34V155.33C355.16 155.198 355.202 154.863 355.193 154.873L355.18 152.688C355.147 152.691 353.928 152.776 353.419 152.812V168.21H355.444L355.426 157.712C355.426 157.712 355.453 157.642 355.49 157.534C358.12 154.432 358.218 153.79 359.662 153.957C360.12 154.009 360.885 154.127 361.349 154.234L361.743 152.682C360.896 152.48 360.367 152.35 359.6 152.317ZM413.333 152.754H411.344C410.186 157.507 408.546 162.419 406.844 166.725H406.783C404.985 162.164 403.283 157.733 401.868 152.754H399.654C401.29 158.47 403.76 164.412 405.755 169.005C403.703 173.115 402.511 174.272 401.321 174.272H399.686L399.589 175.814C400.232 175.974 400.714 176.102 401.388 176.102C403.573 176.102 405.112 174.4 407.652 169.005C409.384 165.375 411.278 160.075 413.333 152.754ZM350.303 147.553C350.303 146.692 349.629 146.016 348.766 146.016C347.905 146.016 347.23 146.692 347.23 147.553C347.23 148.414 347.905 149.089 348.766 149.089C349.629 149.091 350.303 148.414 350.303 147.553ZM385.114 152.656H383.209C382.1 157.174 380.624 161.939 379.242 166.152H379.182L375.031 152.656H372.941L368.853 166.152H368.79C367.346 161.909 365.963 157.205 364.887 152.656H362.796C364.117 157.788 365.716 162.985 367.681 168.21H369.925L373.832 155.149H373.891L377.979 168.21H379.978C381.947 163.048 383.666 157.82 385.114 152.656ZM424.613 163.876C424.613 161.42 422.894 160.465 420.557 159.634C418.189 158.773 417.081 158.162 417.081 156.654C417.081 155.394 417.941 153.98 420.126 153.98C421.199 153.98 422.307 154.163 423.353 154.533L423.658 152.904C422.646 152.537 421.39 152.32 420.374 152.32C417.021 152.32 415.022 154.103 415.022 156.869C415.022 159.236 416.653 160.253 419.141 161.141C421.39 161.972 422.558 162.588 422.558 164.062C422.558 165.97 421.079 166.83 419.141 166.83C417.852 166.83 416.376 166.554 415.117 166.125L414.778 167.906C416.037 168.307 417.482 168.553 418.772 168.553C422.278 168.549 424.613 166.797 424.613 163.876ZM347.967 152.7C348.448 152.656 348.404 152.656 349.936 152.656V168.217H347.967L348.011 154.318C347.705 154.275 347.401 154.231 347.005 154.231L345.953 154.097V152.829C346.522 152.787 347.178 152.744 347.967 152.7ZM344.039 167.808L344.031 157.484C344.031 154.934 342.803 152.319 338.499 152.319C336.5 152.319 334.561 152.72 333.149 153.24L333.579 154.902C334.964 154.347 336.591 154.009 338.066 154.009C341.047 154.009 342.063 155.362 342.063 158.19V159.357H338.806C334.962 159.357 332.041 160.864 332.041 164.059C332.041 167.159 334.554 168.549 338.706 168.549C340.209 168.549 342.978 168.475 344.039 167.808ZM338.649 167.043C335.568 167.043 334.227 165.94 334.227 163.967C334.227 162.062 335.766 160.955 338.868 160.955H342.064V166.491C342.08 166.621 342.128 166.762 342.151 166.762C342.295 166.766 341.414 167.043 338.649 167.043ZM398.043 167.808L398.04 157.482C398.04 154.932 396.805 152.317 392.504 152.317C390.507 152.317 388.568 152.718 387.155 153.239L387.585 154.9C388.969 154.345 390.599 154.008 392.075 154.008C395.054 154.008 396.071 155.361 396.071 158.189V159.356H392.81C388.968 159.356 386.049 160.863 386.049 164.058C386.049 167.157 388.563 168.548 392.714 168.548C394.214 168.549 396.981 168.475 398.043 167.808ZM392.652 167.043C389.571 167.043 388.229 165.94 388.229 163.967C388.229 162.062 389.766 160.955 392.872 160.955H396.07V166.491C396.086 166.621 396.133 166.762 396.156 166.762C396.301 166.766 395.419 167.043 392.652 167.043ZM256.628 137.877V125.845C255.8 125.909 255.103 125.971 254.402 126.098V137.877H256.628ZM320.349 137.881V125.847C319.89 125.881 319.503 125.914 319.12 125.985V137.881H320.349ZM251.89 125.847C251.07 125.909 250.384 125.971 249.689 126.098V136.145L243.753 136.152V130.234C243.263 130.159 242.797 130.11 242.305 130.062C241.788 130.012 241.296 129.963 240.775 129.963C240.001 129.963 239.327 130.11 238.783 130.332C238.214 130.557 237.772 130.879 237.409 131.274C237.045 131.671 236.763 132.093 236.581 132.588C236.399 133.084 236.323 133.628 236.323 134.173C236.323 135.164 236.582 135.95 237.073 136.575H237.066L237.099 136.608C237.177 136.704 237.243 136.805 237.331 136.896C238.004 137.562 239.066 137.886 240.515 137.886H241.578C241.551 138.624 241.268 139.166 240.803 139.611C240.337 140.007 239.483 140.319 238.527 140.319C238.113 140.319 237.459 140.294 236.3 140.076L236.323 141.611C236.803 141.848 237.745 142 238.473 142.012C239.457 142.028 240.259 141.889 240.909 141.641C241.607 141.393 242.125 141.072 242.539 140.676C242.953 140.255 243.237 139.834 243.443 139.313C243.651 138.846 243.751 138.353 243.752 137.886L251.887 137.878V125.847H251.89ZM241.741 136.045C241.741 136.045 239.996 136.453 239.109 135.475L239.093 135.458C239.007 135.349 238.929 135.232 238.865 135.111L238.85 135.073C238.802 134.979 238.766 134.88 238.734 134.78C238.714 134.721 238.703 134.652 238.69 134.59C238.652 134.362 238.629 134.1 238.629 133.849C238.629 133.181 238.785 132.66 239.147 132.262C239.483 131.867 239.95 131.669 240.544 131.669C240.7 131.669 240.83 131.669 241.01 131.694C241.192 131.718 241.374 131.743 241.555 131.793L241.55 135.627C241.55 135.822 241.641 135.918 241.743 135.989V136.045H241.741ZM233.295 130.921C232.674 130.3 231.818 129.957 230.732 129.957C230.161 129.957 229.59 130.104 229.1 130.302C228.582 130.525 228.115 130.824 227.702 131.144C227.287 131.49 226.873 131.886 226.587 132.282C226.248 132.703 225.993 133.048 225.785 133.445H225.758C225.863 133.048 225.941 132.677 225.966 132.256C226.019 131.861 226.051 131.417 226.051 130.97L226.052 125.858C225.226 125.923 224.517 125.985 223.816 126.113V136.145H217.866V130.227C217.036 130.29 216.34 130.354 215.637 130.481L215.639 136.145H209.641V130.227C208.815 130.29 208.12 130.354 207.42 130.481V136.158L200.691 136.146V130.227C200.199 130.153 199.731 130.103 199.241 130.054C198.723 130.005 198.23 129.956 197.714 129.956C196.938 129.956 196.263 130.103 195.72 130.326C195.149 130.55 194.711 130.872 194.347 131.267C193.984 131.662 193.7 132.085 193.518 132.581C193.336 133.075 193.257 133.621 193.257 134.164C193.257 135.327 193.596 136.217 194.268 136.887C194.941 137.555 196.002 137.878 197.454 137.878H234.226V133.768C234.227 132.504 233.915 131.539 233.295 130.921ZM198.676 136.037C198.676 136.037 196.935 136.446 196.046 135.468L196.03 135.45C195.944 135.341 195.866 135.225 195.801 135.105L195.787 135.067C195.738 134.976 195.702 134.877 195.67 134.777C195.651 134.718 195.64 134.649 195.625 134.583C195.586 134.338 195.566 134.091 195.566 133.843C195.566 133.175 195.722 132.654 196.084 132.258C196.418 131.863 196.887 131.663 197.481 131.663C197.637 131.663 197.767 131.663 197.949 131.689C198.13 131.714 198.311 131.738 198.492 131.789L198.487 135.621C198.487 135.82 198.579 135.913 198.677 135.983V136.037H198.676ZM232.019 136.148L225.994 136.145C226.225 135.55 226.439 135.079 226.749 134.558C227.031 134.037 227.392 133.494 227.778 133.073C228.168 132.702 228.582 132.382 229.022 132.108C229.462 131.86 229.929 131.737 230.395 131.737C230.939 131.737 231.328 131.909 231.56 132.255C231.741 132.627 231.872 133.197 231.872 133.99V135.621C231.876 135.836 231.942 135.983 232.074 136.045L232.019 136.148ZM271.342 130.202C269.036 130.202 266.678 132.503 265.848 134.733V125.851H265.847V125.845C265.407 125.88 265.033 125.914 264.658 125.981L264.661 136.937H261.021V137.903H274.524V133.893C274.576 131.737 273.567 130.202 271.342 130.202ZM273.378 136.931H273.23V136.937H265.798C266.703 134.71 268.179 131.193 271.029 131.193C272.685 131.193 273.23 132.679 273.23 134.115L273.233 136.409C273.236 136.622 273.305 136.771 273.435 136.831L273.378 136.931ZM316.821 125.845C316.371 125.881 315.989 125.914 315.608 125.985V136.937H309.892V134.436C309.892 130.997 306.552 130.031 303.495 130.502V131.441C306.24 131.244 308.727 131.64 308.727 134.76V136.937H299.072V133.892C299.122 131.737 298.113 130.202 295.884 130.202C293.582 130.202 291.224 132.503 290.395 134.733L290.399 125.844C289.956 125.878 289.586 125.913 289.211 125.979L289.214 136.935H283.306V130.4L283.072 130.377C282.27 130.253 281.598 130.204 280.691 130.204C278.05 130.204 276.753 132.134 276.753 134.091C276.753 135.915 277.93 137.736 280.149 137.887C280.149 137.887 280.478 137.903 280.554 137.903H282.115C282.342 140.247 280.56 141.213 278.447 141.148C277.848 141.131 277.568 141.062 276.666 140.767L276.68 141.77C277.258 141.921 278.194 142.065 278.741 142.065C281.431 142.065 283.385 140.675 283.278 137.901H316.822V125.845H316.821ZM282.291 136.882C282.291 136.882 281.895 136.99 280.606 136.99C279.795 136.99 278.991 136.624 278.536 136.166C278.072 135.649 277.84 134.857 277.84 134.114C277.84 132.605 278.744 131.068 280.506 131.068C281.18 131.046 281.778 131.118 282.035 131.167L282.113 131.192V136.528C282.113 136.699 282.213 136.769 282.292 136.827V136.882H282.291ZM297.927 136.939L290.344 136.935C291.252 134.708 292.727 131.192 295.574 131.192C297.233 131.192 297.777 132.677 297.777 134.114V136.407C297.782 136.621 297.849 136.769 297.981 136.83L297.927 136.939ZM208.261 140.702C208.261 139.964 207.732 139.471 206.995 139.471C206.258 139.471 205.728 139.965 205.728 140.702C205.728 141.441 206.258 141.937 206.995 141.937C207.732 141.937 208.261 141.441 208.261 140.702ZM197.154 127.664C197.154 126.925 196.626 126.429 195.888 126.429C195.151 126.429 194.621 126.925 194.621 127.664C194.621 128.402 195.151 128.897 195.888 128.897C196.625 128.897 197.154 128.402 197.154 127.664ZM211.258 140.702C211.258 139.964 210.728 139.471 209.992 139.471C209.255 139.471 208.726 139.965 208.726 140.702C208.726 141.441 209.253 141.937 209.992 141.937C210.728 141.937 211.258 141.441 211.258 140.702ZM200.15 127.664C200.15 126.925 199.622 126.429 198.885 126.429C198.148 126.429 197.618 126.925 197.618 127.664C197.618 128.402 198.148 128.897 198.885 128.897C199.622 128.897 200.15 128.402 200.15 127.664Z" fill="#462E84"/>
<path d="M217.938 127.664C217.938 126.926 217.41 126.43 216.671 126.43C215.934 126.43 215.406 126.926 215.406 127.664C215.406 128.403 215.936 128.897 216.671 128.897C217.41 128.897 217.938 128.403 217.938 127.664ZM306.391 127.552C306.391 127.025 306.013 126.672 305.486 126.672C304.962 126.672 304.583 127.027 304.583 127.552C304.583 128.078 304.961 128.434 305.486 128.434C306.013 128.436 306.391 128.08 306.391 127.552Z" fill="#462E84"/>
<path d="M162.044 194.155C164.077 194.155 165.724 192.507 165.724 190.476V129.527C165.724 127.496 164.078 125.848 162.044 125.848H59.0621C57.0285 125.848 55.3828 127.496 55.3828 129.527V190.476C55.3828 192.507 57.0285 194.155 59.0621 194.155" fill="#462E84"/>
<path d="M103.888 176.226C117.339 162.531 127.255 157.916 155.354 151.267C123.672 149.609 101.279 152.018 78.8453 160.303C85.7742 167.341 94.0328 172.469 103.888 176.226ZM102.004 147.576C88.6833 146.011 78.665 146.194 68.9453 148.241C71.2141 151.578 73.6458 154.62 76.2419 157.383C83.1434 151.616 88.2016 149.712 102.004 147.576Z" fill="white"/>
<path d="M103.44 161.767C95.8415 162.308 87.241 161.915 78.8439 160.302C78.7674 160.328 78.9218 160.272 78.8439 160.302C84.7746 166.412 92.9972 172.091 103.887 176.225C113.676 166.435 123.156 158.133 155.351 151.267C150.392 150.897 147.271 151.009 142.683 150.82C133.007 156.577 127.714 160.038 103.44 161.767ZM82.715 149.118C78.2424 149.404 73.741 148.892 68.9453 148.24C71.3612 151.791 73.4309 154.338 76.2419 157.383C83.1246 151.781 87.5857 149.835 102.004 147.575C101.57 147.533 101.279 147.484 100.852 147.445C94.3415 148.433 91.1612 148.703 82.715 149.118Z" fill="white"/>
</svg>
