<svg width="480" height="320" viewBox="0 0 480 320" fill="none" xmlns="http://www.w3.org/2000/svg">
<path d="M373.331 139.625L364.392 141.1L360.13 149.852L368.986 148.396L373.331 139.625ZM424.615 143.47C402.654 151.362 396.667 152.792 389.649 154.031C381.487 155.472 374.04 157.164 368.113 168.354L365.806 173.031L360.9 182.989L360.817 183.051C358.655 184.598 356.889 185.512 355.371 185.732C354.98 185.788 354.645 185.816 354.331 185.795C353.562 185.788 352.954 185.216 352.897 184.339C352.865 184.119 352.858 183.896 352.876 183.674C353.007 181.954 354.237 179.041 356.348 174.923L364.497 158.396L355.308 159.831L347.056 176.711C345.629 179.7 344.737 182.273 344.27 184.444L344.229 184.589L344.125 184.672C341.29 186.873 339.1 188.164 337.265 188.435C336.877 188.488 336.536 188.518 336.226 188.497C335.458 188.491 334.839 187.896 334.791 187.021C334.762 186.827 334.775 186.623 334.791 186.398C334.92 184.681 336.154 181.77 338.304 177.625L346.848 160.704L337.701 162.138L337.327 162.887L337.015 162.783C336.526 162.628 335.96 162.537 335.31 162.492H335.29C334.993 162.471 334.695 162.457 334.396 162.45C325.927 162.271 314.252 167.972 307.414 179.247C305.292 182.74 304.253 185.939 304.067 188.622C303.739 193.725 306.338 196.934 310.532 197.249C311.124 197.29 311.747 197.269 312.403 197.187C316.725 196.641 320.377 194.933 324.169 191.906C324.666 191.507 325.149 191.095 325.624 190.68L326.081 190.285L326.226 190.888C326.681 192.749 327.877 193.721 330.114 193.902C330.863 193.955 331.743 193.895 332.712 193.735C335.369 193.293 337.883 192.237 340.528 190.556C341.714 189.78 342.386 189.275 343.75 188.144L344.187 187.77L344.353 188.331C344.97 190.298 346.148 190.94 348.157 190.908C348.916 190.897 349.533 190.933 350.86 190.638C352.967 190.169 357.028 188.267 359.092 186.813L357.907 189.225L367.219 187.333C367.698 186.28 370.078 181.078 372.749 175.775C374.68 171.957 376.435 168.216 378.57 166.151C382.493 162.376 386.526 160.806 390.544 159.789C405.416 156.024 414.607 150.546 424.615 143.471V143.47ZM330.592 167.668C330.688 167.665 330.785 167.661 330.883 167.668C332.246 167.775 333.509 168.796 333.523 170.121C333.523 170.194 333.529 170.257 333.523 170.329C333.388 172.051 331.97 174.973 329.24 179.392C324.286 187.355 320.837 190.985 317.371 191.387C317.181 191.407 316.988 191.401 316.789 191.387C315.253 191.261 313.408 190.274 313.005 188.663C312.895 188.179 312.878 187.617 312.922 186.98C313.069 184.901 314.032 182.036 316.102 179.018C318.524 175.49 319.255 174.633 321.612 172.449C326.651 167.736 328.826 167.708 330.592 167.668Z" fill="#FAB20B"/>
<path d="M370.318 109.649C369.505 109.655 368.693 109.704 367.885 109.794C352.998 111.423 343.598 125.223 341.256 135.695C340.41 139.48 340.23 142.974 342.129 145.944C343.049 147.398 345.387 150.878 355.35 149.997C355.468 149.987 355.589 149.989 355.703 149.977L359.819 141.391C359.716 141.403 359.61 141.425 359.507 141.433C353.775 141.96 351.487 139.805 352.44 135.571C352.616 134.779 352.853 134.039 353.105 133.243C362.16 132.146 365.294 131.786 375.555 130.894C375.774 130.756 375.984 130.618 376.201 130.478C377.312 128.028 378.585 125.205 379.36 121.789C380.034 118.808 380.89 113.446 376.387 110.938C374.871 110.033 372.694 109.641 370.317 109.649H370.318ZM335.997 113.39C335.545 113.392 335.094 113.419 334.646 113.473C330.103 114.004 325.441 116.807 321.279 120.188C320.743 116.767 318.545 115.369 314.897 115.802C312.417 116.096 309.044 117.441 306.499 119.107C305.246 119.982 304.032 120.911 302.861 121.892C303.447 120.387 304.041 118.887 304.628 117.382C304.523 117.225 304.502 116.899 304.317 116.925C299.469 117.603 293.284 118.29 293.071 118.275C292.878 118.44 292.698 118.589 292.509 118.754C290.055 126.178 288.849 129.752 285.753 137.732C284.676 140.395 283.587 143.057 282.51 145.715C280.744 149.969 278.992 154.217 277.23 158.458C277.313 158.616 277.378 158.779 277.459 158.936C281.211 158.471 284.97 158.012 288.726 157.543C288.908 157.406 289.102 157.265 289.287 157.128C291.406 151.534 293.522 145.926 295.648 140.311C297.144 136.535 298.634 132.746 300.138 128.96C301.823 127.549 303.764 126.249 305.688 126.029C306.583 125.927 309.1 125.789 308.349 129.625C308.13 130.732 307.625 132.236 305.148 138.71C304.476 140.417 303.822 142.117 303.152 143.823C301.46 148.017 300 151.803 298.309 155.984C298.39 156.146 298.457 156.302 298.537 156.463C302.225 156.001 305.93 155.55 309.617 155.091C309.801 154.953 309.975 154.815 310.158 154.675C311.71 150.529 313.029 146.792 314.585 142.639C315.559 140.189 316.54 137.734 317.516 135.28C319.033 131.34 319.339 130.44 320.468 126.757C321.813 125.735 323.973 123.946 326.518 123.66C329.129 123.365 329.602 125.358 329.22 127.297C328.982 128.493 326.914 133.916 326.247 135.592C325.503 137.422 324.764 139.231 324.023 141.059C322.205 145.504 320.454 149.101 318.639 153.531C318.742 153.69 318.849 153.85 318.951 154.01C322.684 153.552 326.401 153.112 330.135 152.658C330.317 152.518 330.51 152.361 330.696 152.222C332.73 146.814 334.704 142.244 336.745 136.818C337.697 134.394 338.641 131.972 339.593 129.542C340.62 127.083 341.673 124.545 342.15 122.142C343.587 114.907 339.306 113.395 335.997 113.39ZM215.761 115.739C215.707 115.786 206.69 116.966 204.952 117.111C204.652 117.135 204.214 117.576 204.203 117.568C202.681 121.864 201.061 125.473 196.886 136.299C194.886 141.278 192.893 146.243 190.899 151.203C188.598 156.821 186.293 162.406 183.998 168C184.064 168.134 184.139 168.28 184.205 168.415C188.106 168.024 192.005 167.615 195.909 167.209C196.096 167.076 196.285 166.949 196.47 166.815C199.974 157.047 200.814 154.852 204.39 145.819C206.223 141.136 208.039 136.47 209.878 131.767C211.994 126.571 214.118 121.352 216.239 116.134C216.2 115.962 215.847 115.895 215.76 115.739H215.761ZM366.596 116.925C369.503 116.887 370.265 119.009 369.756 121.248C369.513 122.333 369.052 123.428 368.592 124.533C364.346 125 360.098 125.467 355.849 125.946C356.819 124.092 358.03 121.789 360.443 119.71C362.871 117.561 364.783 117.09 365.994 116.966C366.194 116.943 366.395 116.929 366.596 116.925ZM271.326 120.708C270.215 120.697 269.104 120.76 268 120.895C249.516 123.13 242.646 141.223 241.35 147.982C240.295 153.496 241.007 157.396 243.575 159.892C246.368 162.657 251.174 162.912 254.842 162.553C260.206 162.034 265.02 160.401 269.726 156.483C274.094 152.893 277.214 147.944 279.309 142.868C280.358 140.33 281.198 137.737 281.679 135.259C282.555 130.753 282.514 126.641 279.558 123.618C277.512 121.551 274.569 120.753 271.326 120.708ZM237.63 124.304C236.726 124.309 235.824 124.365 234.927 124.47C219.668 126.248 210.56 139.593 208.651 149.686C206.592 160.573 211.958 166.289 221.956 165.38C224.563 165.141 227.499 164.416 229.232 163.676C229.978 163.391 230.673 163.037 231.435 162.678C231.608 162.492 231.781 162.3 231.954 162.117C233.103 159.466 234.148 157.07 235.385 154.114C233.885 154.662 232.304 155.234 231.248 155.568C229.634 156.081 229.017 156.169 227.277 156.359C223.679 156.708 219.584 154.872 220.937 147.752C222.205 141.072 227.704 133.652 234.366 132.91C236.35 132.691 238.121 132.884 239.5 133.783C240.199 134.24 240.588 134.676 240.727 134.989C240.865 134.952 241.191 134.91 241.517 134.823C242.854 131.943 244.128 129.581 245.467 126.694C245.451 126.528 245.437 126.362 245.425 126.196C243.99 125.351 243.018 124.688 240.291 124.429C239.406 124.347 238.518 124.305 237.63 124.304ZM267.148 128.753C270.611 128.781 270.664 132.273 270.162 134.864C269.715 137.177 268.942 139.386 268.229 141.288C265.6 148.073 263.683 150.164 262.699 151.286C261.196 152.973 259.103 154.501 256.983 154.716C254.65 154.951 252.959 153.951 252.639 151.66C252.526 151.164 252.504 150.235 252.846 148.459C253.502 145.055 256.601 136.456 259.997 132.515C260.965 131.463 263.083 129.179 266.421 128.794C266.662 128.765 266.905 128.751 267.148 128.753ZM177.968 130.041C177.135 130.041 176.303 130.083 175.474 130.166C160.29 131.667 151.27 145.27 149.324 155.756C148.622 159.542 148.626 163.058 150.696 166.087C151.701 167.562 154.23 171.153 164.395 170.41C171.537 169.882 175.238 167.944 177.221 166.856C177.404 166.717 177.505 166.593 177.658 166.399C178.314 165 180.46 159.931 180.942 158.894C180.002 159.282 176.454 160.327 174.852 160.745C171.862 161.527 170.046 161.801 168.2 162.033C162.349 162.508 159.989 160.096 160.779 155.86C160.925 155.067 161.141 154.348 161.361 153.552C170.585 152.584 173.78 152.228 184.268 151.37C184.483 151.233 184.697 151.094 184.913 150.954C185.944 148.499 187.115 145.671 187.76 142.244C188.322 139.256 188.978 133.897 184.247 131.371C182.653 130.459 180.405 130.049 177.969 130.041H177.968ZM156.058 130.998C153.029 131.347 149.024 131.64 145.997 131.975C145.821 132.127 145.692 132.272 145.539 132.391C142.629 137.718 141.188 140.247 137.141 147.253C134.501 151.745 131.875 156.226 129.242 160.682L132.797 142.202C133.366 139.38 133.931 136.545 134.502 133.721C134.39 133.56 134.249 133.295 134.169 133.222C130.515 133.605 123.461 134.276 120.781 134.594C120.5 134.79 120.457 134.868 120.241 135.03C118.132 138.78 115.961 142.615 113.859 146.339C110.771 151.557 107.685 156.762 104.609 161.93C105.489 156.917 106.368 151.895 107.249 146.879C107.879 143.155 108.509 139.899 109.141 136.174C109.024 136.038 108.929 135.921 108.808 135.8C103.642 136.42 102.977 136.42 98.0185 136.881C97.8403 137.069 97.6602 137.256 97.4784 137.441C97.0413 141.416 96.587 145.169 96.1479 149.145C95.651 153.459 95.1701 157.759 94.6725 162.075C94.1603 166.202 93.6242 170.543 93.1133 174.672C93.2516 174.809 93.3913 174.968 93.529 175.088C98.3591 174.736 101.915 174.376 105.856 174.09C106.069 173.934 106.286 173.768 106.501 173.612C108.735 169.65 119.119 152.041 122.34 146.609C121.205 153.043 118.16 170.156 117.767 172.51C117.906 172.649 118.043 172.788 118.183 172.926C122.223 172.608 127.544 172.027 131.591 171.679C131.834 171.492 132.075 171.307 132.318 171.118C132.318 171.118 151.754 139.021 156.391 131.497C156.278 131.334 156.169 131.16 156.058 130.998ZM174.476 137.317C177.455 137.304 178.305 139.416 177.885 141.662C177.681 142.749 177.267 143.86 176.846 144.967C172.516 145.408 168.186 145.837 163.854 146.255C164.769 144.408 165.903 142.118 168.281 140.061C170.676 137.932 172.619 137.453 173.853 137.338C174.07 137.318 174.278 137.318 174.476 137.317Z" fill="#702090"/>
<path d="M55.3828 165.178C55.3828 165.178 71.4209 200.984 142.461 199.148C186.909 198 236.704 179.927 262.081 172.623C284.349 166.216 317.489 164.84 317.489 164.84C317.489 164.84 283.442 168.973 248.799 182.637C203.939 200.329 164.825 211.11 134.084 210.309C62.4699 208.445 55.3828 165.177 55.3828 165.177" fill="#FAB20B"/>
</svg>
