<svg width="480" height="320" viewBox="0 0 480 320" fill="none" xmlns="http://www.w3.org/2000/svg">
<path d="M130.603 126.918C91.8617 131.046 55.3828 138.634 55.3828 147.42C55.3828 148.856 57.7064 151.129 61.6335 153.829C67.1779 148.495 85.5339 143.756 108.075 140.179C114.129 135.616 121.954 131.222 130.603 126.918Z" fill="#1E2E5D"/>
<path d="M108.075 140.177C85.5346 143.752 67.1795 148.492 61.6341 153.827C60.5119 154.907 59.9102 156.012 59.9102 157.136C59.9102 158.515 62.049 160.662 65.6921 163.22C66.9747 162.008 68.9225 160.827 71.4244 159.683C77.3045 156.996 86.2682 154.516 97.0087 152.331C102.059 151.302 107.5 150.34 113.199 149.451C119.167 145.045 126.762 140.797 135.13 136.633C125.822 137.625 116.647 138.817 108.075 140.177Z" fill="#CC3B40"/>
<path d="M104.777 182.212C104.381 181.026 104.153 179.855 104.074 178.696C103.255 166.659 118.947 156.128 139.126 146.086C130.226 147.034 121.447 148.166 113.2 149.451C107.502 150.34 102.06 151.303 97.0101 152.331C86.2697 154.517 77.3049 156.996 71.4258 159.684C68.9239 160.827 66.9762 162.008 65.6935 163.221C64.5302 164.32 63.9062 165.444 63.9062 166.589C63.9062 171.249 88.3356 184.695 112.766 193.082C108.507 189.315 105.937 185.699 104.777 182.212Z" fill="#F6D547"/>
<path d="M131.549 153.961C132.096 153.961 132.643 153.967 133.19 153.98C133.737 153.992 134.295 153.999 134.867 153.999C135.563 153.999 136.259 153.992 136.954 153.98C137.65 153.967 138.346 153.961 139.042 153.961C138.769 154.856 138.521 155.763 138.297 156.682C138.073 157.602 137.88 158.583 137.72 159.627C137.558 160.671 137.427 161.795 137.328 163.001C137.229 164.207 137.178 165.517 137.178 166.934C137.178 168.201 137.224 169.537 137.315 170.94C137.407 172.344 137.511 173.605 137.625 174.724C138.647 173.008 139.543 171.492 140.317 170.176C141.088 168.858 141.756 167.659 142.317 166.578C142.878 165.498 143.363 164.485 143.775 163.541C144.186 162.596 144.535 161.646 144.821 160.689C145.107 159.732 145.356 158.713 145.569 157.631C145.781 156.551 145.987 155.327 146.185 153.96C146.683 153.96 147.188 153.966 147.699 153.979C148.21 153.991 148.713 153.998 149.213 153.998C149.735 153.998 150.253 153.991 150.764 153.979C151.273 153.966 151.79 153.96 152.312 153.96C152.088 154.705 151.902 155.346 151.753 155.879C151.604 156.414 151.473 156.911 151.361 157.371C151.249 157.83 151.156 158.277 151.081 158.712C151.006 159.147 150.95 159.643 150.914 160.203C150.875 160.763 150.851 161.41 150.839 162.141C150.826 162.875 150.82 163.775 150.82 164.844C150.82 166.484 150.93 168.143 151.154 169.82C151.378 171.498 151.701 173.082 152.123 174.574C153.639 171.865 154.919 169.554 155.963 167.639C157.007 165.726 157.883 164.006 158.591 162.477C159.3 160.948 159.852 159.52 160.25 158.19C160.647 156.861 160.946 155.449 161.145 153.959C161.567 153.959 161.977 153.965 162.375 153.978C162.772 153.99 163.17 153.997 163.568 153.997C163.916 153.997 164.257 153.99 164.593 153.978C164.929 153.965 165.27 153.959 165.618 153.959C165.27 154.68 164.872 155.556 164.425 156.586C163.977 157.619 163.493 158.73 162.971 159.923C162.45 161.116 161.896 162.352 161.313 163.633C160.725 164.92 160.11 166.193 159.468 167.453C158.673 168.97 157.939 170.317 157.269 171.498C156.597 172.678 155.932 173.766 155.274 174.76C154.615 175.754 153.963 176.705 153.317 177.612C152.671 178.518 151.987 179.47 151.267 180.462C150.943 180.462 150.627 180.45 150.316 180.427C150.006 180.401 149.688 180.389 149.366 180.389C148.968 180.389 148.589 180.401 148.229 180.427C147.868 180.45 147.502 180.462 147.129 180.462C146.681 179.32 146.328 178.196 146.067 177.09C145.806 175.984 145.607 174.884 145.47 173.791C145.333 172.689 145.24 171.582 145.191 170.473C145.14 169.354 145.103 168.199 145.079 167.006C144.507 168.05 143.942 169.081 143.382 170.1C142.824 171.12 142.22 172.169 141.575 173.249C140.929 174.331 140.227 175.462 139.469 176.642C138.711 177.822 137.86 179.096 136.915 180.462C136.517 180.462 136.12 180.45 135.722 180.427C135.325 180.401 134.927 180.389 134.529 180.389C134.157 180.389 133.778 180.401 133.392 180.427C133.007 180.45 132.615 180.462 132.219 180.462C132.02 179.519 131.851 178.724 131.715 178.078C131.578 177.432 131.46 176.828 131.361 176.268C131.262 175.71 131.176 175.146 131.101 174.574C131.026 174.002 130.97 173.319 130.933 172.524C130.896 171.728 130.87 170.771 130.859 169.653C130.846 168.534 130.84 167.143 130.84 165.478C130.84 163.987 130.958 162.514 131.193 161.06C131.43 159.607 131.547 158.134 131.547 156.642V153.961H131.549ZM166.311 180.41C164.732 180.421 163.161 180.429 161.595 180.429C161.943 179.633 162.34 178.707 162.788 177.651C163.235 176.594 163.595 175.445 163.869 174.201L167.559 159.217C167.683 158.694 167.763 158.161 167.801 157.614C167.839 157.068 167.857 156.545 167.857 156.049C167.857 155.553 167.851 155.117 167.839 154.744C167.825 154.37 167.819 154.111 167.819 153.961C169.535 153.961 171.236 153.967 172.926 153.98C174.617 153.992 176.319 153.999 178.034 153.999C179.55 153.999 181.058 153.992 182.564 153.98C184.067 153.967 185.588 153.961 187.128 153.961C187.079 154.433 187.042 154.837 187.018 155.172C186.993 155.507 186.968 155.83 186.944 156.141C186.919 156.451 186.907 156.781 186.907 157.129V158.359C185.341 157.962 183.787 157.57 182.247 157.185C180.706 156.801 179.14 156.607 177.55 156.607C177.202 156.607 176.842 156.639 176.47 156.7C176.097 156.763 175.743 156.887 175.407 157.073C175.073 157.26 174.773 157.538 174.512 157.912C174.251 158.285 174.058 158.769 173.934 159.366L172.63 164.734H178.147C179.017 164.734 179.832 164.691 180.589 164.604C181.347 164.516 182.011 164.411 182.584 164.286C182.458 164.758 182.353 165.157 182.266 165.479C182.179 165.802 182.099 166.106 182.024 166.392C181.949 166.679 181.869 166.97 181.782 167.269C181.695 167.567 181.602 167.94 181.503 168.388C181.079 168.238 180.714 168.107 180.403 167.996C180.091 167.884 179.788 167.803 179.49 167.754C179.192 167.705 178.869 167.668 178.52 167.642C178.172 167.618 177.724 167.605 177.179 167.605H171.922L170.096 174.986C169.947 175.581 169.929 176.066 170.04 176.44C170.151 176.813 170.351 177.104 170.636 177.315C170.922 177.527 171.288 177.664 171.737 177.726C172.183 177.788 172.669 177.819 173.19 177.819C174.83 177.819 176.445 177.646 178.036 177.298C179.626 176.95 181.218 176.602 182.808 176.255C182.459 176.95 182.106 177.646 181.746 178.343C181.385 179.038 181.03 179.734 180.684 180.431C179.067 180.431 177.465 180.423 175.874 180.412C174.283 180.397 172.68 180.392 171.064 180.392C169.473 180.39 167.888 180.395 166.311 180.41ZM190.392 180.675C189.509 180.49 188.714 180.234 188.006 179.904C187.297 179.574 186.664 179.181 186.104 178.726C185.545 178.271 185.029 177.769 184.558 177.222L185.49 172.935C185.836 173.482 186.247 174.078 186.719 174.724C187.191 175.37 187.757 175.974 188.415 176.531C189.073 177.091 189.832 177.564 190.689 177.948C191.546 178.334 192.547 178.526 193.689 178.526C194.51 178.526 195.305 178.408 196.075 178.172C196.846 177.934 197.535 177.599 198.145 177.165C198.754 176.729 199.238 176.213 199.599 175.614C199.958 175.017 200.14 174.359 200.14 173.636C200.14 172.74 199.847 172.061 199.263 171.601C198.68 171.141 197.946 170.768 197.063 170.481C196.182 170.195 195.224 169.927 194.193 169.678C193.162 169.429 192.205 169.075 191.323 168.614C190.44 168.153 189.707 167.525 189.124 166.728C188.539 165.932 188.249 164.836 188.249 163.443C188.249 162.124 188.564 160.861 189.198 159.654C189.831 158.447 190.715 157.377 191.844 156.444C192.975 155.511 194.318 154.763 195.87 154.203C197.423 153.643 199.119 153.363 200.958 153.363C201.877 153.363 202.696 153.437 203.419 153.587C204.139 153.736 204.779 153.923 205.338 154.146C205.896 154.369 206.393 154.618 206.828 154.892C207.263 155.165 207.68 155.426 208.078 155.675L207.52 160.67C207.394 160.347 207.133 159.912 206.737 159.365C206.339 158.818 205.83 158.279 205.209 157.743C204.586 157.209 203.848 156.75 202.99 156.364C202.132 155.979 201.169 155.786 200.102 155.786C199.355 155.786 198.653 155.912 197.994 156.16C197.337 156.408 196.766 156.744 196.281 157.166C195.797 157.588 195.411 158.08 195.124 158.638C194.838 159.198 194.696 159.788 194.696 160.409C194.696 161.279 194.982 161.95 195.554 162.422C196.125 162.895 196.834 163.293 197.68 163.615C198.523 163.939 199.443 164.236 200.437 164.51C201.431 164.784 202.351 165.163 203.196 165.647C204.04 166.132 204.749 166.779 205.321 167.585C205.892 168.393 206.179 169.493 206.179 170.884C206.179 172.076 205.868 173.276 205.247 174.481C204.625 175.687 203.755 176.768 202.636 177.724C201.518 178.68 200.177 179.457 198.611 180.053C197.044 180.65 195.305 180.948 193.392 180.948C192.274 180.949 191.274 180.857 190.392 180.675ZM214.119 157.39C212.777 157.762 211.397 158.16 209.981 158.583C210.304 157.813 210.626 157.042 210.95 156.272C211.273 155.502 211.607 154.731 211.956 153.961C213.795 153.961 215.616 153.967 217.418 153.98C219.219 153.992 221.039 153.999 222.878 153.999C224.892 153.999 226.904 153.992 228.917 153.98C230.931 153.967 232.944 153.961 234.957 153.961C234.957 154.111 234.944 154.359 234.92 154.706C234.896 155.054 234.877 155.452 234.864 155.899C234.85 156.347 234.832 156.812 234.808 157.297C234.783 157.781 234.771 158.248 234.771 158.694C234.323 158.471 233.787 158.248 233.166 158.024C232.546 157.8 231.893 157.595 231.209 157.409C230.533 157.225 229.849 157.069 229.16 156.943C228.476 156.82 227.862 156.757 227.315 156.757C226.742 156.757 226.365 156.968 226.177 157.391C225.991 157.814 225.824 158.36 225.673 159.031L221.499 175.843C221.375 176.415 221.263 176.975 221.164 177.521C221.064 178.068 221.013 178.541 221.013 178.938C221.013 179.361 221.026 179.708 221.05 179.982C221.075 180.256 221.088 180.416 221.088 180.466C220.343 180.466 219.597 180.453 218.853 180.43C218.106 180.404 217.374 180.392 216.652 180.392C216.032 180.392 215.409 180.404 214.788 180.43C214.167 180.453 213.545 180.466 212.924 180.466C213.346 179.794 213.726 179.105 214.061 178.396C214.395 177.688 214.664 176.887 214.862 175.994L219.187 158.585C219.286 158.138 219.341 157.796 219.355 157.56C219.368 157.323 219.349 157.15 219.299 157.037C219.248 156.925 219.161 156.864 219.037 156.851C218.914 156.839 218.751 156.832 218.553 156.832C216.939 156.83 215.461 157.018 214.119 157.39ZM239.61 180.428C239.188 180.451 238.766 180.464 238.343 180.464C238.94 179.694 239.586 178.73 240.282 177.575C240.977 176.42 241.705 175.171 242.462 173.829C243.22 172.487 243.996 171.108 244.792 169.691C245.587 168.275 246.395 166.908 247.214 165.59C248.73 163.105 250.217 160.887 251.67 158.936C253.124 156.985 254.396 155.34 255.491 153.998H259.516C259.964 154.943 260.335 155.862 260.635 156.756C260.933 157.65 261.187 158.564 261.399 159.496C261.612 160.428 261.796 161.391 261.958 162.385C262.119 163.38 262.299 164.435 262.499 165.553C262.723 166.97 262.89 168.193 263.003 169.226C263.114 170.257 263.219 171.295 263.32 172.337C263.419 173.381 263.531 174.531 263.655 175.787C263.779 177.041 263.966 178.6 264.214 180.465C263.642 180.465 263.064 180.452 262.48 180.429C261.903 180.403 261.324 180.391 260.746 180.391C260.101 180.391 259.447 180.403 258.789 180.429C258.129 180.452 257.465 180.465 256.793 180.465C256.943 179.944 257.085 179.409 257.223 178.861C257.36 178.312 257.441 177.75 257.465 177.185C257.489 176.762 257.484 176.296 257.446 175.787C257.408 175.278 257.366 174.767 257.316 174.258C257.269 173.786 257.219 173.314 257.167 172.842C257.115 172.407 257.079 172.04 257.054 171.742H247.027L245.089 175.507C244.741 176.152 244.466 176.681 244.269 177.091C244.07 177.501 243.908 177.874 243.784 178.21C243.66 178.545 243.554 178.88 243.467 179.216C243.38 179.55 243.263 179.968 243.113 180.465C242.74 180.465 242.368 180.452 241.994 180.429C241.621 180.403 241.249 180.391 240.876 180.391C240.456 180.39 240.033 180.402 239.61 180.428ZM256.404 166.002C256.293 165.231 256.174 164.497 256.049 163.802C255.926 163.107 255.771 162.417 255.584 161.734C255.397 161.051 255.179 160.274 254.931 159.404C254.26 160.324 253.677 161.132 253.18 161.827C252.683 162.523 252.211 163.213 251.763 163.896C251.316 164.579 250.862 165.301 250.402 166.058C249.942 166.816 249.414 167.705 248.819 168.723H256.759C256.633 167.678 256.515 166.771 256.404 166.002ZM268.09 157.39C266.748 157.762 265.369 158.16 263.952 158.583C264.275 157.813 264.598 157.042 264.921 156.272C265.245 155.502 265.579 154.731 265.927 153.961C267.766 153.961 269.587 153.967 271.389 153.98C273.191 153.992 275.011 153.999 276.849 153.999C278.863 153.999 280.876 153.992 282.889 153.98C284.903 153.967 286.915 153.961 288.928 153.961C288.928 154.111 288.916 154.359 288.891 154.706C288.867 155.054 288.848 155.452 288.835 155.899C288.823 156.347 288.805 156.812 288.779 157.297C288.755 157.781 288.741 158.248 288.741 158.694C288.295 158.471 287.76 158.248 287.138 158.024C286.517 157.8 285.865 157.595 285.181 157.409C284.504 157.225 283.821 157.069 283.132 156.943C282.447 156.82 281.833 156.757 281.286 156.757C280.713 156.757 280.336 156.968 280.149 157.391C279.962 157.814 279.796 158.36 279.645 159.031L275.47 175.843C275.346 176.415 275.234 176.975 275.136 177.521C275.036 178.068 274.985 178.541 274.985 178.938C274.985 179.361 274.999 179.708 275.023 179.982C275.047 180.256 275.061 180.416 275.061 180.466C274.314 180.466 273.568 180.453 272.824 180.43C272.079 180.404 271.346 180.392 270.624 180.392C270.003 180.392 269.38 180.404 268.76 180.43C268.139 180.453 267.517 180.466 266.895 180.466C267.318 179.794 267.698 179.105 268.032 178.396C268.368 177.688 268.635 176.887 268.835 175.994L273.159 158.585C273.258 158.138 273.314 157.796 273.326 157.56C273.339 157.323 273.32 157.15 273.27 157.037C273.22 156.925 273.133 156.864 273.01 156.851C272.885 156.839 272.724 156.832 272.524 156.832C270.911 156.83 269.432 157.018 268.09 157.39ZM289.543 180.41C288.139 180.421 286.728 180.429 285.311 180.429C285.586 179.857 285.82 179.347 286.021 178.9C286.219 178.452 286.398 178.024 286.561 177.614C286.722 177.203 286.873 176.78 287.009 176.346C287.145 175.911 287.275 175.409 287.401 174.837L291.426 158.659C291.525 158.187 291.605 157.689 291.669 157.167C291.731 156.645 291.768 156.167 291.78 155.732C291.792 155.297 291.799 154.918 291.799 154.595V153.962C292.37 153.962 292.947 153.968 293.532 153.981C294.116 153.994 294.694 154 295.266 154C296.012 154 296.77 153.994 297.539 153.981C298.309 153.968 299.08 153.962 299.85 153.962C299.726 154.161 299.577 154.434 299.403 154.782C299.229 155.13 299.049 155.516 298.862 155.938C298.675 156.36 298.495 156.808 298.322 157.28C298.146 157.753 298.01 158.225 297.911 158.697L293.923 174.875C293.872 175.15 293.811 175.428 293.736 175.714C293.662 176 293.625 176.206 293.625 176.329C293.625 176.703 293.687 177 293.811 177.224C293.934 177.447 294.103 177.616 294.315 177.728C294.525 177.84 294.776 177.909 295.061 177.932C295.346 177.957 295.662 177.97 296.011 177.97C296.532 177.97 297.209 177.895 298.043 177.746C298.875 177.596 299.714 177.428 300.56 177.242C301.403 177.056 302.205 176.864 302.963 176.664C303.721 176.466 304.286 176.317 304.659 176.218L302.497 180.43C301.029 180.43 299.576 180.422 298.135 180.411C296.694 180.396 295.24 180.391 293.773 180.391C292.357 180.39 290.947 180.395 289.543 180.41ZM305.33 180.428C304.908 180.451 304.485 180.464 304.062 180.464C304.659 179.694 305.306 178.73 306.001 177.575C306.697 176.419 307.424 175.171 308.182 173.829C308.94 172.487 309.716 171.108 310.512 169.691C311.287 168.306 312.095 166.938 312.934 165.59C314.45 163.105 315.936 160.887 317.389 158.936C318.843 156.985 320.116 155.34 321.211 153.998H325.235C325.683 154.943 326.055 155.862 326.355 156.756C326.652 157.65 326.906 158.564 327.118 159.496C327.328 160.428 327.516 161.391 327.677 162.385C327.838 163.378 328.019 164.435 328.219 165.553C328.442 166.97 328.609 168.193 328.722 169.226C328.834 170.257 328.939 171.295 329.04 172.337C329.138 173.381 329.25 174.531 329.374 175.787C329.498 177.041 329.686 178.6 329.933 180.465C329.362 180.465 328.783 180.452 328.199 180.429C327.614 180.403 327.037 180.391 326.466 180.391C325.819 180.391 325.167 180.403 324.509 180.429C323.85 180.452 323.186 180.465 322.515 180.465C322.664 179.944 322.806 179.409 322.942 178.861C323.079 178.315 323.161 177.756 323.185 177.185C323.209 176.762 323.204 176.296 323.166 175.787C323.128 175.278 323.085 174.767 323.035 174.258C322.984 173.75 322.935 173.276 322.885 172.842C322.835 172.407 322.799 172.04 322.774 171.742H312.746L310.808 175.507C310.46 176.152 310.186 176.681 309.989 177.091C309.789 177.501 309.628 177.874 309.504 178.21C309.379 178.545 309.273 178.88 309.187 179.216C309.1 179.55 308.983 179.968 308.832 180.465C308.459 180.465 308.087 180.452 307.714 180.429C307.34 180.403 306.968 180.391 306.595 180.391C306.175 180.39 305.751 180.402 305.33 180.428ZM322.123 166.002C322.011 165.231 321.893 164.497 321.769 163.802C321.644 163.107 321.488 162.417 321.304 161.734C321.117 161.051 320.899 160.274 320.651 159.404C319.98 160.324 319.397 161.132 318.9 161.827C318.402 162.523 317.931 163.213 317.483 163.896C317.036 164.579 316.582 165.301 316.122 166.058C315.662 166.816 315.134 167.705 314.538 168.723H322.478C322.353 167.678 322.235 166.771 322.123 166.002ZM333.063 180.428C332.69 180.451 332.304 180.464 331.907 180.464C332.428 179.371 332.889 178.357 333.287 177.425C333.684 176.493 334.032 175.408 334.33 174.163L338.132 158.843C338.332 157.948 338.463 157.128 338.524 156.383C338.586 155.636 338.617 154.83 338.617 153.96C339.114 153.985 339.61 153.998 340.108 153.998H343.017C343.488 153.998 343.972 153.985 344.47 153.96C345.662 155.525 346.675 156.942 347.508 158.209C348.341 159.477 349.099 160.744 349.782 162.011C350.465 163.279 351.13 164.627 351.776 166.056C352.422 167.485 353.155 169.144 353.976 171.032L356.66 160.035C356.933 158.892 357.137 157.873 357.275 156.978C357.411 156.084 357.48 155.077 357.48 153.959C357.927 153.984 358.361 153.997 358.783 153.997H361.319C361.715 153.997 362.126 153.984 362.548 153.959C362.201 154.68 361.766 155.618 361.244 156.773C360.721 157.929 360.298 159.153 359.977 160.445L354.982 180.462C354.659 180.462 354.336 180.45 354.013 180.427C353.689 180.401 353.367 180.389 353.044 180.389C352.719 180.389 352.404 180.401 352.093 180.427C351.782 180.45 351.478 180.462 351.18 180.462C350.485 178.351 349.807 176.405 349.148 174.629C348.489 172.852 347.782 171.143 347.023 169.503C346.264 167.864 345.427 166.231 344.507 164.603C343.588 162.975 342.518 161.266 341.301 159.478L337.611 174.425C337.337 175.545 337.139 176.564 337.015 177.482C336.891 178.402 336.828 179.396 336.828 180.465C336.381 180.465 335.94 180.452 335.506 180.429C335.071 180.403 334.629 180.391 334.182 180.391C333.808 180.39 333.435 180.402 333.063 180.428ZM367.172 157.39C365.83 157.762 364.45 158.16 363.033 158.583C363.356 157.813 363.678 157.042 364.003 156.272C364.326 155.502 364.661 154.731 365.009 153.961C366.848 153.961 368.669 153.967 370.471 153.98C372.273 153.992 374.093 153.999 375.932 153.999C377.945 153.999 379.957 153.992 381.971 153.98C383.983 153.967 385.996 153.961 388.01 153.961C388.01 154.111 387.997 154.359 387.973 154.706C387.948 155.054 387.929 155.452 387.917 155.899C387.904 156.347 387.886 156.812 387.861 157.297C387.837 157.781 387.824 158.248 387.824 158.694C387.376 158.471 386.841 158.248 386.219 158.024C385.598 157.8 384.947 157.595 384.262 157.409C383.586 157.225 382.902 157.069 382.213 156.943C381.529 156.82 380.914 156.757 380.368 156.757C379.796 156.757 379.417 156.968 379.231 157.391C379.044 157.814 378.877 158.36 378.727 159.031L374.552 175.843C374.427 176.415 374.315 176.975 374.217 177.521C374.117 178.068 374.068 178.541 374.068 178.938C374.068 179.361 374.08 179.708 374.104 179.982C374.129 180.256 374.142 180.416 374.142 180.466C373.396 180.466 372.651 180.453 371.905 180.43C371.16 180.404 370.426 180.392 369.705 180.392C369.085 180.392 368.463 180.404 367.841 180.43C367.22 180.453 366.598 180.466 365.977 180.466C366.399 179.794 366.779 179.105 367.115 178.396C367.449 177.688 367.716 176.887 367.915 175.994L372.24 158.585C372.34 158.138 372.395 157.796 372.408 157.56C372.42 157.323 372.401 157.15 372.352 157.037C372.301 156.925 372.215 156.864 372.091 156.851C371.967 156.839 371.805 156.832 371.607 156.832C369.992 156.83 368.513 157.018 367.172 157.39ZM385.829 180.428C385.17 180.451 384.517 180.464 383.871 180.464C384.245 179.744 384.642 178.885 385.065 177.891C385.489 176.896 385.835 175.803 386.108 174.612L389.725 159.887C389.948 158.918 390.109 158.08 390.21 157.372C390.309 156.663 390.364 156.073 390.376 155.6C390.389 155.128 390.383 154.762 390.357 154.5C390.333 154.238 390.32 154.059 390.32 153.96C390.967 153.96 391.614 153.966 392.259 153.979C392.905 153.991 393.552 153.998 394.197 153.998C394.919 153.998 395.638 153.991 396.36 153.979C397.08 153.966 397.801 153.96 398.522 153.96C398.448 154.11 398.317 154.396 398.131 154.818C397.944 155.24 397.733 155.744 397.496 156.328C397.259 156.911 397.03 157.533 396.808 158.192C396.584 158.851 396.397 159.478 396.249 160.074L392.595 174.911C392.446 175.605 392.303 176.252 392.167 176.849C392.031 177.445 391.963 178.066 391.963 178.713C391.963 179.012 391.975 179.36 391.999 179.756C392.023 180.154 392.037 180.391 392.037 180.465C391.315 180.465 390.607 180.452 389.911 180.429C389.216 180.403 388.507 180.391 387.786 180.391C387.139 180.39 386.487 180.402 385.829 180.428ZM414.252 177.668C415.221 177.321 416.121 176.911 416.954 176.439C417.787 175.967 418.525 175.493 419.173 175.022C419.818 174.55 420.315 174.19 420.664 173.94L419.397 177.818C418.999 178.042 418.47 178.328 417.812 178.676C417.154 179.025 416.378 179.366 415.483 179.701C414.588 180.036 413.569 180.329 412.425 180.578C411.282 180.826 410.028 180.95 408.661 180.95C406.97 180.95 405.448 180.739 404.094 180.317C402.739 179.895 401.591 179.267 400.646 178.435C399.701 177.603 398.968 176.57 398.446 175.339C397.925 174.11 397.664 172.7 397.664 171.109C397.664 169.642 397.881 168.188 398.316 166.747C398.751 165.307 399.366 163.927 400.161 162.61C400.956 161.292 401.907 160.069 403.013 158.937C404.118 157.807 405.336 156.831 406.667 156.011C407.996 155.191 409.424 154.545 410.954 154.073C412.481 153.601 414.066 153.364 415.706 153.364C416.949 153.364 418.059 153.471 419.042 153.681C420.024 153.893 420.881 154.147 421.615 154.446C422.348 154.744 422.962 155.049 423.46 155.36C423.957 155.67 424.342 155.913 424.616 156.087L423.684 162.088C423.584 161.716 423.336 161.182 422.939 160.486C422.541 159.79 422 159.095 421.317 158.398C420.633 157.702 419.8 157.093 418.82 156.571C417.838 156.05 416.713 155.788 415.447 155.788C413.905 155.788 412.471 156.261 411.142 157.205C409.811 158.15 408.65 159.367 407.656 160.858C406.661 162.348 405.878 163.995 405.307 165.796C404.735 167.599 404.449 169.357 404.449 171.072C404.449 173.382 405.013 175.148 406.144 176.365C407.275 177.583 409.008 178.192 411.345 178.192C412.314 178.191 413.283 178.016 414.252 177.668Z" fill="#1E2E5D"/>
</svg>
