<svg width="480" height="320" viewBox="0 0 480 320" fill="none" xmlns="http://www.w3.org/2000/svg">
<path d="M149.494 137.387L134.52 172.716C134.113 173.68 133.2 174.34 132.083 174.34H124.52L118.022 156.219L110.104 172.868C109.698 173.782 108.784 174.391 107.718 174.391H100.307L87.2109 137.387H98.8858L106.195 160.94L113.606 143.833L111.271 137.336H121.728L129.697 160.889L138.783 137.336L149.494 137.387Z" fill="#00467F"/>
<path d="M178.885 137.387L177.972 142.666C177.768 143.884 176.652 144.848 175.383 144.848H162.845L161.627 151.752H175.89L174.977 157.031C174.774 158.249 173.657 159.214 172.388 159.214H160.358L159.038 166.828H173.809L172.895 172.107C172.692 173.325 171.576 174.289 170.307 174.289H146.754L153.2 137.336L178.885 137.387Z" fill="#00467F"/>
<path d="M209.088 163.376C209.088 172.107 198.378 174.898 191.119 174.898C184.723 174.898 181.221 173.68 177.262 171.954L178.785 163.325C180.561 165.203 186.399 167.284 191.373 167.284C194.165 167.284 197.464 166.269 197.464 163.934C197.464 158.198 181.576 158.96 181.576 147.945C181.576 141.65 187.465 136.828 197.464 136.828C203.251 136.828 207.363 137.996 209.799 139.062L208.936 143.935C208.784 144.95 207.87 145.66 206.855 145.66C206.601 145.66 206.347 145.61 206.094 145.508C203.2 144.391 200.51 144.087 198.378 144.087C197.007 144.087 192.896 144.341 192.896 147.082C192.947 152.513 209.088 152.107 209.088 163.376Z" fill="#00467F"/>
<path d="M246.142 137.387L245.228 142.666C245.025 143.884 243.909 144.848 242.64 144.848H233.858L229.087 172.107C228.884 173.325 227.767 174.289 226.498 174.289H217.716L222.894 144.848H211.93L213.249 137.387H246.142Z" fill="#00467F"/>
<path d="M261.219 137.387L255.432 170.482C253.351 182.259 246.194 188.147 238.58 190.228L232.539 183.122C237.97 182.36 242.894 179.315 244.468 170.533L250.254 137.437L261.219 137.387Z" fill="#00467F"/>
<path d="M292.538 137.387L291.624 142.666C291.421 143.884 290.304 144.848 289.035 144.848H276.497L275.279 151.752H289.543L288.629 157.031C288.426 158.249 287.309 159.214 286.04 159.214H274.01L272.69 166.828H287.462L286.548 172.107C286.345 173.325 285.228 174.289 283.959 174.289H260.406L266.853 137.336L292.538 137.387Z" fill="#00467F"/>
<path d="M328.22 137.387L327.307 142.666C327.104 143.884 325.987 144.848 324.718 144.848H315.936L311.165 172.107C310.962 173.325 309.845 174.289 308.576 174.289H299.794L304.972 144.848H293.957L295.277 137.387H328.22Z" fill="#00467F"/>
<path d="M352.484 153.375L346.647 144.695C346.647 144.695 344.007 147.639 343.449 148.299C342.84 148.959 342.281 149.365 341.317 149.264C340.098 149.061 334.616 147.944 334.616 147.944C334.616 147.944 334.21 154.644 334.109 155.304C334.058 155.964 333.804 156.827 332.637 157.842L352.484 153.375Z" fill="#00AC9D"/>
<path d="M374.667 148.453L381.57 135.915C381.57 135.915 377.052 137.895 375.53 138.555C374.058 139.215 373.448 139.113 373.195 138.047C372.992 137.032 371.875 129.367 371.824 128.91C371.418 129.367 363.855 137.032 362.789 138.047C361.672 139.113 360.961 139.215 360.048 138.555C359.083 137.895 356.241 135.966 356.241 135.966L352.637 153.427L374.667 148.453Z" fill="#00AC9D"/>
<path d="M387.408 155.304C387.865 154.644 392.89 147.944 392.89 147.944C392.89 147.944 386.748 149.111 385.327 149.264C384.21 149.416 384.058 148.959 384.007 148.299C383.957 147.944 383.753 144.238 383.753 144.238L374.82 148.604L354.16 172.969L369.439 175.354C369.439 175.354 369.49 173.019 369.541 171.294C369.642 169.568 370.607 169.263 371.216 168.908C371.774 168.552 389.236 158.502 389.236 158.502L387.51 157.537C386.342 156.928 386.951 155.964 387.408 155.304Z" fill="#00AC9D"/>
<path d="M329.996 158.35C329.996 158.35 337.356 167.03 337.661 167.436C339.387 169.517 339.387 170.329 337.61 172.512C336.189 174.238 335.326 175.355 335.326 175.355C335.326 175.355 345.58 173.629 346.95 173.375C348.27 173.172 349.59 173.527 349.234 175.304C349.031 176.522 347.813 183.273 347.813 183.273L353.904 172.918L364.665 154.594L332.28 158.096L329.996 158.35Z" fill="#00467F"/>
<path d="M353.905 172.92L364.666 154.595L332.332 158.098L332.637 157.844L352.484 153.428L352.687 153.377L374.666 148.453L374.818 148.605L354.159 172.97L353.905 172.92Z" fill="white"/>
</svg>
