<svg width="480" height="320" viewBox="0 0 480 320" fill="none" xmlns="http://www.w3.org/2000/svg">
<path d="M85.5843 238.575L67.0273 174.102H80.7113L91.7681 219.646L101.137 174.102H115.385L124.569 219.646L134.503 178.975C135.253 175.726 137.436 174.102 141.065 174.102H149.31L130.942 238.575H118.199L108.262 189.095L98.1415 238.575H85.5843ZM171.637 226.281H179.135C178.031 230.481 175.937 233.682 172.839 235.879C169.741 238.179 165.837 239.328 161.144 239.328C155.443 239.328 150.994 237.48 147.796 233.779C144.598 230.182 142.996 225.032 142.996 218.335C142.996 211.938 144.546 206.938 147.648 203.341C150.844 199.644 155.295 197.79 160.991 197.79C166.989 197.79 171.637 199.591 174.939 203.191C178.135 206.891 179.735 212.035 179.735 218.635V220.283C179.735 220.785 179.687 221.133 179.586 221.332H153.646C153.744 224.435 154.491 226.732 155.894 228.233C157.191 229.831 159.14 230.631 161.744 230.631C163.436 230.631 164.887 230.282 166.093 229.579C166.404 229.471 166.684 229.291 166.913 229.054C167.161 228.808 167.441 228.529 167.741 228.233C167.836 227.929 168.215 227.533 168.864 227.031C169.511 226.532 170.438 226.281 171.637 226.281ZM153.646 214.587H168.936C168.737 211.887 168.04 209.886 166.841 208.589C165.539 207.192 163.692 206.489 161.292 206.489C159.09 206.489 157.293 207.192 155.894 208.588C154.492 209.989 153.744 211.987 153.646 214.587ZM181.633 225.381H191.829C191.932 227.382 192.68 228.882 194.079 229.881C195.58 230.879 197.579 231.378 200.075 231.378C201.876 231.378 203.429 231.032 204.731 230.33C205.925 229.632 206.527 228.682 206.527 227.482C206.527 225.681 204.425 224.332 200.228 223.431C198.427 223.133 197.08 222.832 196.179 222.534C190.879 221.234 187.334 219.684 185.533 217.883C183.534 216.084 182.533 213.686 182.533 210.688C182.533 206.89 183.983 203.742 186.883 201.239C189.882 198.941 193.779 197.792 198.58 197.792C203.775 197.792 207.924 198.941 211.022 201.239C213.922 203.742 215.472 206.99 215.672 210.989H209.226C207.325 210.989 205.874 210.139 204.879 208.438C204.476 208.04 204.075 207.64 203.677 207.237C202.478 206.338 200.827 205.889 198.728 205.889C196.729 205.889 195.228 206.188 194.232 206.79C193.332 207.389 192.883 208.29 192.883 209.487C192.883 211.087 195.477 212.437 200.68 213.536C201.277 213.739 201.8 213.887 202.253 213.987C202.67 214.083 203.096 214.133 203.524 214.136C208.626 215.437 212.171 216.938 214.175 218.636C216.069 220.434 217.02 222.832 217.02 225.835C217.02 230.232 215.422 233.628 212.223 236.027C209.226 238.229 204.731 239.328 198.728 239.328C193.031 239.328 188.779 238.179 185.982 235.879C183.082 233.581 181.633 230.232 181.633 225.835V225.381ZM237.518 238.575C234.216 238.774 230.641 238.728 226.796 238.427C222.945 238.126 221.022 235.678 221.022 231.08V186.998H226.421C227.722 186.998 228.872 187.499 229.867 188.498C230.866 189.494 231.37 190.696 231.37 192.095V198.84H237.518V200.94C237.518 202.44 237.014 203.665 236.018 204.614C235.015 205.564 233.816 206.042 232.415 206.042H231.369V228.233C231.369 229.933 232.365 230.779 234.365 230.779H237.518V238.575ZM258.12 238.575L239.568 174.102H253.247L264.307 219.646L273.678 174.102H287.926L297.11 219.646L307.042 178.975C307.794 175.726 309.972 174.102 313.603 174.102H321.847L303.483 238.575H290.737L280.803 189.095L270.682 238.575H258.12ZM321.173 186.997H326.574C327.969 186.997 329.171 187.498 330.171 188.497C331.17 189.496 331.672 190.695 331.672 192.094V195.243H321.173V186.997ZM321.173 198.692H326.574C327.969 198.692 329.171 199.193 330.171 200.192C331.17 201.193 331.672 202.392 331.672 203.792V238.575H321.173V198.692ZM370.745 238.575H365.5C363.999 238.575 362.774 238.102 361.826 237.152C360.875 236.206 360.4 234.978 360.4 233.478V213.086C360.4 210.688 359.671 208.94 358.226 207.836C356.776 206.737 355.154 206.188 353.353 206.188C351.552 206.188 349.957 206.737 348.553 207.836C347.153 208.94 346.455 210.688 346.455 213.086V238.575H335.957V215.186C335.957 208.391 337.734 203.845 341.284 201.54C344.828 199.242 348.755 197.995 353.053 197.792C357.45 197.792 361.496 198.941 365.198 201.241C368.899 203.543 370.745 208.19 370.745 215.186V238.575ZM402.624 181.512H407.726C409.118 181.512 410.32 182.037 411.323 183.088C412.319 184.137 412.823 185.314 412.823 186.611V221.184C412.823 228.283 410.769 233.082 406.673 235.58C402.574 238.076 398.128 239.328 393.325 239.328C390.724 239.327 388.142 238.896 385.681 238.052C383.183 237.205 381.178 235.829 379.683 233.93C376.779 230.232 375.334 225.182 375.334 218.783C375.334 212.487 376.779 207.44 379.683 203.639C382.684 199.742 386.529 197.789 391.23 197.789C393.726 197.789 395.926 198.294 397.827 199.293C399.827 200.491 401.423 202.044 402.624 203.941V181.512ZM385.529 218.334C385.529 222.333 386.282 225.38 387.782 227.482C389.277 229.579 391.429 230.631 394.229 230.631C396.927 230.631 399.027 229.579 400.525 227.482C401.922 225.38 402.624 222.333 402.624 218.334C402.624 214.736 401.877 211.887 400.376 209.787C398.774 207.788 396.627 206.789 393.928 206.789C391.327 206.789 389.276 207.836 387.782 209.938C386.282 211.937 385.529 214.736 385.529 218.334Z" fill="#001745"/>
<path d="M87.0806 249.215H89.854L96.0527 266.268H92.3335L91.1919 262.749H84.549L83.4575 266.268H79.7383L85.3947 250.357C85.6906 249.595 86.2519 249.215 87.0806 249.215ZM87.8715 252.633L85.4901 259.874H90.2501L87.8715 252.633ZM135.667 266.269L129.767 249.217H133.684L137.303 261.958L140.625 250.504C140.824 249.647 141.385 249.217 142.311 249.217H144.837L139.034 266.269L135.667 266.269ZM178.505 266.269V250.998C178.501 250.763 178.545 250.53 178.634 250.312C178.724 250.095 178.857 249.898 179.026 249.735C179.19 249.567 179.387 249.434 179.604 249.345C179.821 249.256 180.054 249.212 180.289 249.217H182.026V266.269H178.505ZM222.434 249.215H225.21L231.41 266.268H227.691L226.549 262.749H219.907L218.815 266.268H215.096L220.747 250.357C221.048 249.595 221.61 249.215 222.433 249.215M223.229 252.633L220.847 259.874H225.608L223.229 252.633ZM270.179 266.269V252.24H265.125V250.998C265.125 250.504 265.297 250.081 265.643 249.735C265.808 249.567 266.004 249.434 266.222 249.345C266.439 249.256 266.672 249.212 266.907 249.217H278.707V252.241H273.7V266.269H270.179ZM312.273 266.269V250.998C312.273 250.504 312.449 250.081 312.797 249.735C313.143 249.388 313.566 249.217 314.063 249.217H315.794V266.269H312.273ZM348.569 257.742C348.569 254.966 349.295 252.769 350.749 251.149C352.305 249.528 354.338 248.718 356.848 248.718C359.329 248.718 361.363 249.528 362.948 251.149C364.434 252.802 365.179 255 365.179 257.742C365.179 260.486 364.435 262.667 362.948 264.287C361.427 265.872 359.392 266.665 356.848 266.665C354.271 266.665 352.238 265.873 350.75 264.287C349.295 262.702 348.569 260.519 348.569 257.742ZM352.09 257.742C352.09 259.66 352.498 261.112 353.327 262.106C354.156 263.13 355.326 263.641 356.848 263.641C358.336 263.641 359.507 263.13 360.369 262.106C361.227 261.048 361.659 259.593 361.659 257.742C361.659 255.894 361.226 254.422 360.369 253.332C359.507 252.305 358.336 251.794 356.848 251.794C355.326 251.794 354.156 252.305 353.327 253.332C352.498 254.355 352.09 255.826 352.09 257.742ZM398.896 266.269V250.998C398.896 250.504 399.068 250.081 399.414 249.735C399.75 249.394 400.201 249.191 400.678 249.164H402.565L409.504 260.914V249.164H412.975V266.269H409.356L402.367 254.519V266.269H398.896ZM247.073 151.012H191.204L131.152 53.332H187.026L247.073 151.012ZM311.689 151.012H255.818L195.762 53.332H251.635L311.689 151.012ZM320.812 151.012L260.378 53.332H320.812V151.012Z" fill="#99999C"/>
<path d="M321.09 187.113H327.028C328.427 187.113 329.627 187.617 330.625 188.613C331.626 189.612 332.125 190.811 332.125 192.21V195.359H321.09V187.113Z" fill="#AB262E"/>
</svg>
