<svg width="480" height="320" viewBox="0 0 480 320" fill="none" xmlns="http://www.w3.org/2000/svg">
<path d="M212.448 131.891L227.124 179.52L228.507 126.631L296.349 104.478L312.132 151.553L313.519 99.771L346.665 88.2831V53.332H133.332V157.537L212.448 131.891Z" fill="#B32317"/>
<path d="M201.924 226.321L185.585 176.197L133.332 193.471V266.666H346.665V179.797L283.614 200.291L267.273 148.23L265.336 205.551L201.924 226.321Z" fill="#B32317"/>
<path d="M228.507 126.633L227.124 179.522L212.448 131.893L133.332 157.539V193.472L185.585 176.199L201.924 226.322L265.336 205.552L267.273 148.232L283.614 200.292L346.665 179.798V88.2852L313.519 99.773L312.132 151.555L296.349 104.48L228.507 126.633Z" fill="white"/>
</svg>
