<svg width="480" height="320" viewBox="0 0 480 320" fill="none" xmlns="http://www.w3.org/2000/svg">
<path fill-rule="evenodd" clip-rule="evenodd" d="M278.425 120.767C276.366 121.894 273.095 124.972 269.316 129.213C274.079 134.035 279.535 140.263 285.413 148.169C294.694 135.723 300.766 127.03 305.158 123.806C309.551 120.576 323.78 116.396 348.834 112.168C311.165 115.574 284.041 117.686 278.425 120.767Z" fill="#4EA322"/>
<path fill-rule="evenodd" clip-rule="evenodd" d="M257.593 118.895C251.496 114.47 217.015 111.802 173.278 110.738C194.206 113.863 221.013 118.363 228.732 123.22C234.871 127.087 241.554 134.341 252.958 147.528L285.415 148.173C273.772 132.527 263.796 123.402 257.593 118.895ZM351.46 162.925C347.61 158.976 342.202 157.201 333.941 157.201C325.729 157.201 320.297 158.964 316.354 162.915L316.329 162.925C312.629 166.847 311.307 172.156 311.307 183.241C311.307 194.311 312.628 199.62 316.316 203.519C320.297 207.511 325.729 209.265 333.941 209.265C342.202 209.265 347.597 207.511 351.46 203.541C355.684 199.213 356.482 193.066 356.482 183.241C356.482 173.412 355.684 167.259 351.46 162.926V162.925ZM333.941 200.006C330.978 200.006 328.694 199.714 326.908 199.123L346.39 173.327C346.954 175.818 347.015 179.025 347.015 183.035C347.015 195.109 346.517 200.006 333.941 200.006ZM333.941 166.376C337.342 166.376 339.832 166.72 341.695 167.464L321.734 193.922C320.862 191.259 320.772 187.656 320.772 183.035C320.772 171.187 321.279 166.375 333.941 166.375V166.376ZM259.862 195.468C258.861 198.547 255.404 199.931 248.679 199.931C237.628 199.931 236.186 195.774 236.03 186.357H269.928V184.435C269.928 176.383 269.705 169.84 266.872 165.01C263.762 159.683 257.853 157.196 248.287 157.196C230.113 157.196 226.558 166.754 226.558 183.301C226.558 191.206 227.185 197.398 230.271 201.884C233.615 206.728 239.439 208.98 248.572 208.98C261.074 208.98 267.969 204.529 269.084 195.729L269.131 195.468H259.862ZM248.287 166.162C257.642 166.162 260.3 168.523 260.622 177.394H236.163C236.578 169.035 239.713 166.162 248.287 166.162ZM408.327 184.435C408.327 176.383 408.097 169.84 405.282 165.01C402.162 159.683 396.258 157.196 386.692 157.196C368.511 157.196 364.962 166.754 364.962 183.301C364.962 191.206 365.592 197.398 368.681 201.884C372.015 206.728 377.831 208.98 386.985 208.98C399.488 208.98 406.382 204.529 407.502 195.729L407.532 195.468H398.262C397.28 198.547 393.826 199.931 387.081 199.931C376.04 199.931 374.592 195.774 374.421 186.357H408.327V184.435ZM374.566 177.393C374.972 169.035 378.118 166.162 386.692 166.162C396.033 166.162 398.697 168.523 399.019 177.394H374.566V177.393ZM163.683 208.214V159.225H154.237V208.214H163.683ZM108.766 175.744L119.502 208.203H129.781L145.879 159.21H135.929L124.57 193.698L113.22 159.21H104.329L92.9715 193.698L81.6266 159.21H71.6758L87.7521 208.203H98.174L108.766 175.744ZM217.752 188.232V138.806H208.294V159.76C204.995 158.131 200.87 157.345 195.417 157.345C187.261 157.345 181.873 159.098 177.937 163.031C174.222 166.933 172.923 172.223 172.923 183.241C172.923 194.244 174.355 199.882 177.883 203.411C181.426 206.949 186.709 209.126 195.417 209.126C203.642 209.126 208.965 207.323 212.852 203.437C216.147 200.136 217.751 193.496 217.751 188.232H217.752ZM195.417 166.506C207.99 166.506 208.49 171.284 208.49 183.05C208.49 194.715 207.959 199.882 195.417 199.882C182.891 199.882 182.365 194.715 182.365 183.05C182.365 171.284 182.867 166.506 195.417 166.506ZM288.627 208.203H279.162L279.155 159.207H288.669V162.769C292.493 160.506 295.588 159.207 302.836 159.207C304.525 159.207 305.329 159.233 305.911 159.277V168.534C305.058 168.403 303.862 168.332 302.836 168.332C300.502 168.332 295.128 168.583 291.999 171.729C289.797 173.923 288.613 177.532 288.613 183.85L288.625 208.203H288.627Z" fill="#00482D"/>
</svg>
