<svg width="480" height="320" viewBox="0 0 480 320" fill="none" xmlns="http://www.w3.org/2000/svg">
<path d="M168.078 129.454C173.976 129.454 178.783 126.634 178.783 123.108C178.783 119.582 173.976 116.762 168.078 116.762C162.181 116.762 157.373 119.582 157.373 123.108C157.373 126.634 162.181 129.454 168.078 129.454ZM348.527 129.454C354.424 129.454 359.232 126.634 359.232 123.108C359.232 119.582 354.424 116.762 348.527 116.762C342.63 116.762 337.822 119.582 337.822 123.108C337.822 126.634 342.63 129.454 348.527 129.454ZM156.668 140.416H181.027V203.236H156.668V140.416ZM333.591 140.416H359.232V203.236H333.591V140.416Z" fill="#CD2026"/>
<path d="M419.485 196.828V178.879C419.485 176.315 418.203 168.622 413.075 168.622C413.075 168.622 419.485 166.058 419.485 160.93V148.11C419.485 142.533 414.357 135.289 407.947 135.289H246.408C242.562 135.289 236.152 138.366 236.152 144.263V150.674C236.152 152.148 235.255 154.199 233.588 154.52C230.703 155.033 229.742 151.763 229.101 150.674C228.46 149.584 222.498 141.251 222.049 140.417C221.601 139.584 217.114 135.353 211.793 135.353C206.473 135.353 134.87 135.289 130.896 135.289C123.332 135.289 123.332 143.879 123.332 146.828V192.981C123.332 194.392 122.049 196.828 119.485 196.828C116.921 196.828 115.639 194.263 115.639 192.981V135.353H92.5623V192.981C92.5623 194.263 91.2803 196.828 88.7161 196.828C86.152 196.828 84.87 194.263 84.87 192.981V146.828C84.87 144.263 84.87 135.289 77.1777 135.289H55.3828V136.571C55.3828 136.571 61.7931 135.738 61.7931 141.699V187.853C61.7931 190.417 64.3572 203.238 75.8956 203.238H132.306C143.844 203.238 146.408 190.417 146.408 187.853V144.263C146.408 137.917 151.537 137.853 151.537 137.853H184.87C185.639 137.853 189.998 137.917 189.998 144.263V187.853C189.998 190.417 192.562 201.956 184.87 201.956V203.238H211.793V173.751L191.793 137.917L196.921 137.789L236.152 203.238H260.511V144.263C260.511 140.417 261.793 137.917 265.639 137.917C269.485 137.917 286.152 137.853 291.28 137.853C296.408 137.853 301.537 142.148 301.537 148.11C301.537 154.071 301.601 164.776 301.601 166.058C301.601 167.34 301.537 169.904 298.332 169.904C295.126 169.904 295.126 166.058 295.126 166.058V148.11C295.126 145.545 291.28 140.417 287.434 140.417H270.767V166.058L265.639 168.622V187.853L270.767 190.417V203.238H295.126V190.417C295.126 190.417 295.126 186.571 298.332 186.571C301.537 186.571 301.601 190.417 301.601 190.417V192.981C301.601 196.828 304.101 203.238 311.793 203.238H331.024V201.956C331.024 201.956 325.896 203.238 325.896 196.828V158.366C325.896 151.507 321.985 137.853 311.793 137.853C311.793 137.853 357.947 137.917 359.229 137.917C360.511 137.917 365.639 137.853 365.639 144.263V203.238H388.716V180.161C388.716 177.148 388.716 175.033 391.793 175.033C395.126 175.033 395.126 177.597 395.126 180.161V192.981C395.126 196.828 397.691 203.238 404.101 203.238H424.614V201.956C424.614 201.956 419.485 201.956 419.485 196.828ZM395.126 162.853C395.126 164.648 393.716 166.058 391.921 166.058C390.126 166.058 388.716 164.648 388.716 162.853V143.622C388.716 141.828 390.126 140.417 391.921 140.417C393.716 140.417 395.126 141.828 395.126 143.622V162.853Z" fill="#CD2026"/>
</svg>
