<svg width="480" height="320" viewBox="0 0 480 320" fill="none" xmlns="http://www.w3.org/2000/svg">
<path fill-rule="evenodd" clip-rule="evenodd" d="M108.318 200.055C108.906 198.796 109.493 198.041 109.913 196.362C109.997 196.195 109.745 196.279 109.661 196.279C106.556 196.614 100.095 204.334 98.5844 206.013C97.1579 207.607 94.7243 209.537 93.9691 211.971C93.4656 213.397 92.0391 219.439 92.7943 220.865C93.8013 222.963 98.7522 219.691 99.927 219.019C102.193 217.677 104.291 216.754 106.892 215.663C109.745 214.404 119.815 209.621 122.836 212.054C124.01 213.984 118.64 218.852 117.13 220.446C114.109 223.635 110.584 228.334 107.731 232.026C103.955 236.809 101.689 240.25 106.053 246.208C108.99 250.236 112.179 248.557 115.451 246.292C118.388 244.278 120.486 241.844 122.752 239.662C124.682 237.816 127.451 234.46 129.381 232.278L136.178 225.061C135.255 230.012 129.801 238.655 132.738 243.858C136.514 250.487 142.891 249.229 148.262 244.865C156.318 238.32 164.541 227.243 168.821 217.761C169.912 215.327 171.422 211.719 172.01 209.034C174.275 199.383 167.898 196.111 163.954 206.348C162.779 209.369 164.289 209.369 163.618 211.215C162.024 215.747 154.471 226.152 151.786 229.173C150.527 230.6 140.206 241.257 138.528 239.243C137.101 235.802 148.346 218.516 150.108 215.831C151.283 213.984 156.653 206.432 157.073 205.173C157.828 202.74 155.059 195.188 148.933 202.404L138.612 214.236C134.835 218.768 117.381 237.313 113.857 237.564C113.437 236.138 115.116 234.376 115.787 233.62C119.647 228.753 125.605 221.789 128.794 217.089C133.577 209.957 136.43 208.027 134.164 200.39C133.745 198.88 132.989 197.453 132.15 196.53C131.143 195.439 129.213 195.355 127.283 195.355C118.053 195.439 112.262 199.216 108.235 200.055H108.318Z" fill="#EC2028"/>
<path fill-rule="evenodd" clip-rule="evenodd" d="M254.079 235.803C255.841 234.208 263.058 226.656 264.233 225.901L264.988 231.103C265.743 235.719 261.38 239.914 259.03 240.166C258.191 239.243 257.771 238.404 256.932 237.481C256.009 236.474 255.841 236.558 254.834 236.138L254.079 235.719V235.803ZM242.247 242.012C242.583 240.753 247.198 232.11 248.457 229.761C250.471 226.068 247.198 221.789 244.429 224.81C242.331 226.991 237.464 233.033 235.869 234.544C234.191 236.138 231.422 238.32 228.401 239.243C222.779 240.921 225.38 234.544 227.142 233.033C229.408 231.103 239.31 225.901 242.415 223.971C243.674 223.215 245.436 222.544 245.436 220.782C245.352 218.852 243.17 218.684 241.324 218.768C237.716 219.02 231.674 222.376 228.737 224.39C227.394 225.313 226.471 226.152 225.38 227.075C221.688 230.096 222.863 230.684 219.506 233.369C217.744 234.796 214.387 237.733 212.709 238.823C208.01 241.928 207.758 237.565 210.192 234.46C212.038 232.194 213.8 230.012 215.73 227.831C216.737 226.656 217.828 225.985 217.324 223.551C216.989 222.041 216.317 220.278 215.73 219.187H215.646C211.87 219.104 199.954 229.425 197.017 232.446C194.584 234.879 193.325 237.565 191.479 237.061C191.311 235.131 195.926 230.852 197.604 228.754C198.108 228.166 198.528 227.831 199.031 227.243C199.702 226.404 201.045 224.81 200.374 223.299C199.87 222.292 195.087 221.621 192.905 223.887C191.395 225.397 189.884 227.159 188.71 229.173C188.122 230.18 187.619 231.187 187.115 232.278C186.276 234.208 186.612 233.956 185.185 235.131C183.255 236.642 181.912 237.816 179.815 239.243C175.619 241.928 170.752 241.677 170.836 237.397C170.836 235.886 172.011 235.551 172.934 234.796C187.535 222.628 179.982 219.691 175.199 222.376C169.745 225.481 164.542 233.033 164.794 240.334C164.962 246.124 168.402 250.571 174.612 247.97C179.479 245.872 182.08 242.6 185.017 239.495C185.185 241.509 185.017 242.767 185.856 244.53C187.619 248.138 190.22 247.802 192.57 245.201C193.409 244.278 194.332 243.271 195.171 242.18C197.269 239.579 203.395 231.859 206.499 230.6C205.828 232.446 202.975 235.551 201.381 239.327C200.709 240.921 199.954 242.935 200.542 244.949C201.129 246.879 201.632 248.474 203.562 248.725C206.667 249.145 211.115 245.621 212.793 244.194C214.555 242.684 218.751 238.32 219.758 237.649C220.513 244.278 222.024 248.558 229.24 245.033C234.023 242.684 238.974 237.145 239.897 236.726C239.562 237.984 238.387 239.914 237.716 241.173C235.198 246.04 235.869 246.04 232.597 248.725C214.639 263.41 218.247 270.207 225.464 264.837C231.338 260.389 234.191 255.439 237.967 249.816C238.555 248.977 244.261 244.697 245.52 243.774C246.527 243.019 248.373 241.341 249.38 240.837C250.135 241.593 250.722 244.697 255.505 247.131C258.359 248.641 261.883 249.145 265.323 247.886C269.435 246.376 276.988 240.586 279.589 237.397L279.002 234.544C276.82 235.383 270.107 243.774 263.645 242.18C264.4 241.257 267.673 239.579 269.687 236.893C274.638 230.432 272.792 226.656 271.533 218.936C270.946 215.411 266.163 216.922 264.988 219.523C263.813 222.124 265.407 220.866 263.058 223.215C258.694 227.579 253.24 233.033 248.708 237.061C247.618 238.068 246.862 238.74 245.771 239.746C245.268 240.25 244.932 240.418 244.261 241.005C243.506 241.677 243.338 241.844 242.583 242.18L242.247 242.012Z" fill="#EC2028"/>
<path fill-rule="evenodd" clip-rule="evenodd" d="M187.534 215.078C189.8 208.617 180.737 209.624 179.311 215.33C178.64 218.015 180.402 220.365 183.171 219.358C185.269 218.602 186.779 217.26 187.618 215.078H187.534Z" fill="#EC2028"/>
<path fill-rule="evenodd" clip-rule="evenodd" d="M317.016 222.713C317.855 221.538 325.743 214.573 327.002 213.314C328.596 211.804 335.729 205.007 337.155 204.168L327.337 221.958L316.932 222.629L317.016 222.713ZM336.484 221.958C337.491 219.105 339.421 215.496 340.764 212.559C342.19 209.37 343.617 206.266 345.127 203.077C345.799 201.483 346.806 199.469 345.799 197.539C343.953 194.182 340.009 197.287 338.75 198.21C335.225 200.727 328.344 206.35 325.575 208.951C322.135 212.307 317.519 216 314.75 218.937C314.163 219.608 313.659 219.944 312.988 220.531C310.638 222.629 311.226 222.881 308.541 223.049C307.366 223.132 306.275 223.216 305.184 223.216C303.086 223.132 300.904 222.965 298.807 222.629L299.981 218.937C297.883 219.608 291.926 224.727 290.247 226.741C289.492 227.664 288.485 229.174 288.653 230.769C289.576 232.95 296.625 231.272 301.576 231.776C301.408 232.279 296.709 237.901 296.289 238.153C295.366 238.741 294.779 238.741 292.429 240.419C289.66 242.349 284.709 246.88 284.625 250.405C284.625 252.335 286.975 252.419 288.485 251.831C290.835 250.908 292.933 247.887 294.695 246.041C297.967 242.768 303.59 236.307 306.359 233.79C308.121 232.111 307.198 231.86 310.303 231.86H322.051L318.526 240.671C317.184 244.111 317.1 248.81 321.631 248.559C324.736 248.391 328.261 246.041 330.191 244.698C331.365 243.859 332.708 242.768 333.715 241.845L336.736 238.824L335.561 236.811C334.638 237.482 333.631 238.237 332.708 239.076C328.848 242.181 328.093 240.503 328.932 238.657L332.037 231.608L339.925 231.356C340.596 230.601 341.687 227.832 342.358 226.657C343.029 225.482 344.708 223.132 345.043 222.209C341.687 221.37 339.841 222.209 336.568 221.874L336.484 221.958Z" fill="#EC2028"/>
<path fill-rule="evenodd" clip-rule="evenodd" d="M369.377 224.056C369.461 223.217 370.132 221.791 369.293 221.203C367.615 220.112 364.342 223.805 363.419 224.895C362.077 226.406 359.14 231.357 361.237 232.783C361.489 232.951 361.573 232.951 361.825 233.119C362.16 233.371 361.993 233.203 362.244 233.371C360.482 236.224 358.133 238.07 355.279 239.916C353.098 241.343 347.224 242.853 347.811 236.308C349.909 235.049 357.293 227.749 357.629 224.14C358.049 220.028 351.503 219.609 345.545 228.672C343.531 231.776 342.021 234.797 341.937 239.497C341.853 243.944 343.28 248.392 347.224 248.895C350.916 249.398 355.028 245.706 356.79 244.196L365.014 234.378C365.685 233.455 365.685 232.867 366.86 232.616C368.454 232.112 371.055 231.525 372.734 231.273C372.482 231.944 370.468 234.546 369.797 235.637C365.433 242.769 366.776 249.147 372.65 248.475C378.188 247.804 382.3 243.692 385.405 240L387.419 237.567L386.915 235.301C385.153 236.643 381.125 241.175 378.524 241.511C375.839 241.846 375.922 239.161 376.762 237.399C377.685 235.217 378.188 234.713 379.615 233.203C382.803 229.763 383.978 229.595 383.391 226.07C383.223 224.812 382.971 224.224 382.048 223.805C378.608 222.21 373.237 223.888 369.545 224.224L369.377 224.056Z" fill="#EC2028"/>
<path fill-rule="evenodd" clip-rule="evenodd" d="M363.503 215.331C365.853 208.534 357.629 209.624 355.783 214.911C354.944 217.512 356.455 220.282 359.056 219.61C360.986 219.107 362.832 217.093 363.42 215.331H363.503Z" fill="#EC2028"/>
<path fill-rule="evenodd" clip-rule="evenodd" d="M207.588 103.135C204.987 104.142 202.05 94.2405 201.378 91.5552C200.539 88.1986 200.287 85.9329 200.287 83.8351C200.287 81.1498 200.455 78.2128 200.875 74.9401C194.497 74.5206 191.392 77.8772 189.127 81.7372C183.924 90.2965 189.127 102.212 193.574 109.932C194.749 111.946 195.84 113.709 197.182 115.555C197.602 116.226 202.805 123.191 198.693 121.513C197.266 120.925 196.092 119.834 194.917 118.911C192.819 117.317 190.805 115.555 189.043 113.541C187.281 111.443 185.183 108.002 183.924 104.562C180.4 105.401 178.302 111.023 177.798 114.212C176.204 124.03 187.7 131.918 195.001 136.114C195.756 136.533 196.679 137.121 197.35 137.624C197.77 137.876 198.106 138.212 198.441 138.547C198.609 138.715 198.777 138.883 198.861 139.051C198.945 139.386 198.945 139.554 198.777 139.806C197.518 140.813 192.483 139.219 190.889 138.631C189.798 138.212 188.791 137.792 188.288 137.624C185.267 136.449 182.078 134.352 180.232 132.589C177.882 135.023 178.134 140.226 179.309 143.498C181.574 149.876 190.134 152.225 196.343 153.82C198.945 154.491 207.168 155.33 207.168 156.757C207.084 159.106 194.078 158.015 190.973 157.26C189.378 156.841 187.113 155.918 186.022 155.498C185.434 163.218 188.959 166.071 195.588 167.33C198.609 167.833 202.469 168.169 205.574 167.833C208.007 167.582 214.469 166.155 214.972 167.078C215.811 168.673 208.511 170.519 206.581 170.854C201.966 171.694 198.357 171.19 195.001 170.77C195.588 173.204 198.022 175.973 199.448 177.064C202.889 179.582 206.917 179.582 210.944 178.658C216.818 177.316 224.119 173.288 224.874 174.211C225.797 175.47 219.839 179.078 217.825 180.001C214.217 181.763 211.784 182.183 207.252 182.267C208.091 187.386 217.238 190.071 223.112 187.721C226.385 186.462 230.58 182.938 233.014 180.505C234.86 178.742 235.951 177.484 236.203 177.819C236.958 179.33 233.35 184.449 231.839 186.043C230.329 187.553 229.49 188.393 228.399 189.148C227.392 189.819 225.965 190.574 224.035 191.162C225.546 193.092 229.657 193.763 233.35 193.595C235.364 193.511 236.958 192.84 238.384 192.001C242.328 189.819 244.175 185.288 245.853 180.756C245.937 180.672 246.105 180.421 246.272 180.421C246.524 180.421 246.692 180.672 246.692 180.756C248.454 185.288 250.216 189.819 254.16 192.001C255.587 192.84 257.181 193.511 259.195 193.595C262.888 193.763 267.083 193.092 268.51 191.162C266.664 190.574 265.153 189.819 264.146 189.148C263.055 188.393 262.216 187.553 260.706 186.043C259.111 184.449 255.587 179.33 256.342 177.819C256.51 177.484 257.685 178.742 259.531 180.505C261.964 182.938 266.16 186.462 269.433 187.721C275.307 189.987 284.37 187.386 285.293 182.267C280.761 182.267 278.244 181.763 274.719 180.001C272.706 178.994 266.748 175.386 267.671 174.211C268.426 173.288 275.726 177.316 281.6 178.658C285.544 179.582 289.656 179.582 293.097 177.064C294.439 176.057 296.957 173.288 297.544 170.77C294.188 171.19 290.579 171.694 285.964 170.854C284.034 170.519 276.733 168.673 277.573 167.078C278.076 166.071 284.454 167.498 286.971 167.833C290.16 168.169 293.936 167.917 296.957 167.33C303.586 166.155 307.11 163.218 306.523 155.498C305.432 155.918 303.166 156.841 301.572 157.26C298.467 158.099 285.461 159.19 285.377 156.757C285.377 155.414 293.6 154.491 296.202 153.82C302.411 152.225 310.887 149.876 313.152 143.498C314.327 140.226 314.579 134.939 312.229 132.589C310.383 134.436 307.11 136.449 304.173 137.624C303.67 137.792 302.663 138.212 301.572 138.631C300.062 139.219 295.027 140.729 293.684 139.806C293.516 139.638 293.516 139.386 293.6 139.051C293.684 138.883 293.852 138.715 294.02 138.547C294.355 138.212 294.691 137.96 295.111 137.624C295.782 137.121 296.705 136.617 297.46 136.114C304.845 131.918 316.257 124.03 314.663 114.212C314.159 111.023 312.061 105.401 308.537 104.562C307.194 108.002 305.18 111.443 303.418 113.541C301.656 115.555 299.642 117.233 297.544 118.911C296.369 119.834 295.195 120.925 293.768 121.513C289.656 123.191 294.775 116.142 295.279 115.555C296.537 113.625 297.712 111.863 298.887 109.932C303.418 102.212 308.537 90.2126 303.334 81.7372C301.069 77.9611 297.964 74.6045 291.586 74.9401C292.006 78.2128 292.174 81.1498 292.174 83.8351C292.174 85.9329 291.922 88.1986 291.083 91.5552C290.411 94.2405 287.474 104.142 284.873 103.135C283.614 102.632 284.789 97.3453 285.125 94.8279C286.3 86.1008 286.719 76.1989 284.454 67.8913C282.356 60.1712 277.992 52.7028 269.517 53.3741C267.335 53.542 263.643 54.6328 262.216 55.8076L264.23 59.4999C270.272 71.4157 273.209 88.0308 267.335 100.366C266.076 103.051 264.398 104.646 262.804 107.163C258.86 113.625 262.888 119.331 266.58 122.436C271.111 126.296 273.293 128.897 275.559 136.114C280.761 152.981 265.405 172.449 246.692 172.365H245.853C227.14 172.449 211.784 152.897 216.986 136.114C219.252 128.897 221.434 126.38 225.965 122.436C229.573 119.331 233.685 113.625 229.741 107.163C228.231 104.646 226.469 103.051 225.21 100.366C219.336 88.0308 222.273 71.4157 228.315 59.4999L230.329 55.8076C228.902 54.6328 225.21 53.542 223.028 53.3741C214.553 52.7028 210.189 60.1712 208.091 67.8913C205.826 76.2828 206.245 86.1008 207.42 94.8279C207.756 97.2614 208.931 102.548 207.672 103.135H207.588ZM246.189 175.47H245.601C238.133 175.386 230.916 172.952 224.287 168.337C219.672 165.148 214.972 160.281 212.035 154.659C205.322 141.904 206.833 125.205 215.14 113.793C218.329 109.345 218.832 111.611 217.07 104.478C216.399 101.961 215.056 95.9188 216.147 93.4013C217.154 97.8488 218.916 101.793 220.762 105.653C222.692 109.597 223.196 110.772 222.609 111.779C221.434 112.953 220.93 113.121 218.497 116.058C213.965 122.016 211.364 129.065 210.861 136.198C210.441 142.407 211.448 148.701 214.301 154.407C216.147 158.183 218.916 161.792 222.273 164.896C227.14 169.428 235.783 174.631 245.517 174.714H246.86C256.594 174.631 265.237 169.428 270.104 164.896C273.461 161.708 276.146 158.183 278.076 154.407C280.929 148.701 281.936 142.323 281.517 136.198C281.013 129.065 278.496 122.1 273.88 116.058C271.447 113.121 270.943 112.953 269.769 111.779C269.181 110.772 269.685 109.597 271.615 105.653C273.461 101.793 275.223 97.8488 276.23 93.4013C277.321 95.9188 275.978 101.961 275.307 104.478C273.545 111.527 273.964 109.345 277.237 113.793C285.461 125.205 287.055 141.904 280.342 154.659C277.405 160.281 272.706 165.148 268.09 168.337C261.545 172.952 254.244 175.386 246.776 175.47H246.608H246.189Z" fill="#EC2028"/>
</svg>
