<svg width="480" height="320" viewBox="0 0 480 320" fill="none" xmlns="http://www.w3.org/2000/svg">
<path d="M326.713 135.285H362.381L320.141 190.526H284.461L326.713 135.285ZM324.032 129.889L279.13 188.631C278.057 190.031 277.881 191.801 278.667 193.366C279.426 194.914 281.033 195.916 282.735 195.916H322.819L368.085 136.728C368.564 136.09 368.857 135.332 368.933 134.537C369.008 133.743 368.863 132.943 368.514 132.226C367.789 130.778 366.315 129.889 364.654 129.889H324.032ZM195.797 101.173C195.915 100.977 196.082 100.814 196.281 100.701C196.481 100.588 196.706 100.529 196.936 100.529H220.328L223.688 81.2205C223.802 80.6212 224.327 80.198 224.952 80.198L246.845 80.181C247.245 80.181 247.572 80.3031 247.802 80.5616C248.041 80.8598 248.16 81.2574 248.103 81.6096L245.925 94.104L348.848 94.1778C349.404 94.1778 349.802 94.5158 349.998 94.8368C350.117 95.0753 350.282 95.561 349.944 96.0212L340.651 108.155L416.929 108.135C417.372 108.135 417.69 108.413 417.815 108.663C417.937 108.842 418.037 109.217 417.804 109.561L354.409 192.539C353.687 193.442 353.719 195.737 354.221 196.72C354.744 197.709 356.553 199.117 357.686 199.117L402.279 199.163C402.796 199.163 403.1 199.43 403.239 199.589C403.358 199.726 403.445 199.888 403.495 200.062C403.545 200.237 403.557 200.42 403.528 200.6L400.137 219.99C400.029 220.578 399.498 221.004 398.87 221.004H229.218L226.429 220.987C226.636 221.947 226.719 222.944 226.719 223.961C226.719 232.684 219.649 239.756 210.913 239.756C202.182 239.756 195.106 232.684 195.106 223.961C195.106 215.236 202.182 208.172 210.913 208.172C216.874 208.172 222.072 211.475 224.776 216.352L293.92 125.728C295.03 123.387 294.476 122.549 293.877 121.172C293.431 120.132 291.764 119.064 289.946 119.081H241.548L229.181 189.679C229.062 190.233 228.531 190.622 227.937 190.622H206.03C205.522 190.622 205.209 190.349 205.062 190.188C204.928 190.028 204.687 189.679 204.78 189.176L218.212 112.546L163.574 219.627C163.082 220.488 162.174 221.041 161.148 221.041L142.539 221.132C141.874 221.132 141.329 220.658 141.269 220.09L136.137 142.301L95.768 219.647C95.2851 220.499 94.3535 221.05 93.3537 221.05L74.4773 221.039C73.8297 221.039 73.2787 220.561 73.2247 219.948L60.9121 101.864C60.8837 101.494 61.0116 101.131 61.2331 100.881C61.4632 100.651 61.7926 100.526 62.1903 100.526H87.5624C88.2554 100.526 88.8377 101.088 88.8377 101.83L92.6437 178.866L129.959 101.19C130.161 100.787 130.612 100.526 131.087 100.526L154.218 100.426C154.857 100.426 155.428 100.909 155.468 101.477L159.228 179.11L195.797 101.173ZM223.876 74.793C221.263 74.793 219.041 76.659 218.573 79.2494L215.786 95.1265H196.112C194.104 95.1265 192.309 96.2086 191.286 98.0832L163.591 157.141L160.841 100.046C160.606 97.2822 158.265 95.1265 155.468 95.1265H130.286C128.275 95.1265 126.42 96.2455 125.46 98.0946L96.9836 157.377L94.1717 100.506C94.1717 97.535 91.7518 95.1293 88.7866 95.1293H60.7758C59.2449 95.1293 57.8248 95.7258 56.7966 96.8079C55.8025 97.8986 55.2912 99.4181 55.3963 101.006L67.9532 221.607C68.2542 224.336 70.5605 226.395 73.3156 226.395L94.1376 226.404C96.6939 226.404 99.0201 225.009 100.224 222.743L132.024 161.836L135.944 221.607C136.259 224.336 138.557 226.395 141.295 226.395L161.963 226.404C164.508 226.404 166.857 224.992 168.059 222.714L206.703 146.964L199.219 189.685C198.935 191.258 199.375 192.86 200.389 194.101C201.409 195.314 202.92 196.019 204.513 196.019H229.008C231.553 196.019 233.717 194.246 234.285 191.696L246.069 124.464H288.148L224.56 207.669C220.754 204.488 215.94 202.753 210.958 202.753C199.265 202.753 189.718 212.279 189.718 223.978C189.718 235.686 199.265 245.209 210.958 245.209C221.703 245.209 230.848 237.004 232.084 226.401L399.958 226.392C402.603 226.392 404.824 224.515 405.255 221.93L409.098 200.08C409.365 198.51 408.919 196.899 407.905 195.692C406.894 194.485 405.392 193.792 403.787 193.792L360.251 193.752L423.726 110.711C424.805 109.101 424.901 107.158 424.01 105.488C423.138 103.798 421.391 102.738 419.482 102.738H351.557L355.863 97.1175C356.993 95.4304 357.104 93.3769 356.153 91.5818C355.204 89.8208 353.383 88.7018 351.407 88.7018H252.332L253.69 81.0842C253.946 79.5249 253.474 77.8718 252.437 76.6505C251.429 75.4519 249.981 74.793 248.359 74.793L223.876 74.793Z" fill="url(#paint0_linear_730_18548)"/>
<defs>
<linearGradient id="paint0_linear_730_18548" x1="239.998" y1="245.209" x2="239.998" y2="74.793" gradientUnits="userSpaceOnUse">
<stop stop-color="#161998"/>
<stop offset="0.129" stop-color="#441E93"/>
<stop offset="0.266" stop-color="#6E228F"/>
<stop offset="0.407" stop-color="#90258C"/>
<stop offset="0.549" stop-color="#AB2889"/>
<stop offset="0.694" stop-color="#BE2A87"/>
<stop offset="0.842" stop-color="#C92B86"/>
<stop offset="1" stop-color="#CD2B86"/>
</linearGradient>
</defs>
</svg>
