<svg width="480" height="320" viewBox="0 0 480 320" fill="none" xmlns="http://www.w3.org/2000/svg">
<path fill-rule="evenodd" clip-rule="evenodd" d="M55.3828 133.262V134.327C57.2627 134.444 58.595 134.85 59.3908 135.532C60.1835 136.214 61.5979 138.19 63.5948 141.446L83.2419 173.789H84.8395L101.179 148.144L115.922 173.789H117.659L136.41 141.109C138.067 138.32 138.979 136.803 139.156 136.569C139.742 135.842 140.411 135.298 141.174 134.943C141.934 134.592 142.863 134.384 143.977 134.327V133.262H128.478V134.327C130.799 134.366 132.392 134.627 133.214 135.084C134.037 135.543 134.448 136.162 134.448 136.961C134.448 137.508 134.318 138.109 134.083 138.755C133.846 139.398 133.204 140.586 132.177 142.343L122.452 159.327L111.577 140.577C110.256 138.274 109.588 136.876 109.588 136.429C109.588 136.017 109.769 135.66 110.12 135.336C110.474 135.014 110.959 134.801 111.578 134.663C112.457 134.468 113.892 134.345 115.922 134.327V133.262H87.0255V134.327C88.8754 134.327 90.2747 134.501 91.2297 134.831C92.1846 135.165 93.0474 135.716 93.7801 136.485C94.5158 137.257 95.5398 138.781 96.8912 141.081L99.3295 145.285L89.9403 160.336L78.2251 141.109C76.7866 138.707 76.0669 137.114 76.0669 136.373C76.0669 135.808 76.4132 135.353 77.104 134.971C77.7946 134.593 79.165 134.366 81.252 134.327V133.262H55.3828ZM235.121 133.262V134.327C237.857 134.327 239.727 134.498 240.727 134.831C241.727 135.165 242.433 135.621 242.829 136.177C243.228 136.735 243.418 138.059 243.418 140.212V165.941C243.418 168.092 243.228 169.431 242.829 169.977C242.433 170.524 241.743 170.98 240.755 171.323C239.77 171.665 237.887 171.827 235.121 171.827V172.892H265.727V171.827C262.988 171.827 261.122 171.656 260.122 171.323C259.122 170.989 258.416 170.561 258.02 170.005C257.62 169.447 257.431 168.092 257.431 165.941V154.815H261.355L280.61 172.892H299.444V171.827C297.843 171.767 296.456 171.422 295.24 170.818C294.441 170.392 293.099 169.328 291.204 167.595L276.854 154.142C280.503 153.538 283.347 152.631 285.374 151.423C288.551 149.513 290.139 147.114 290.139 144.192C290.139 141.796 289.058 139.695 286.944 137.914C284.827 136.134 282.111 134.906 278.76 134.243C275.409 133.582 270.128 133.262 262.896 133.262H235.121ZM304.769 133.262V134.327H306.759C308.429 134.327 309.757 134.534 310.739 134.915C311.721 135.294 312.383 135.725 312.701 136.233C313.025 136.737 313.177 138.017 313.177 140.044V166.138C313.177 168.126 313.025 169.341 312.701 169.809C312.292 170.473 311.698 170.937 310.935 171.211C309.881 171.619 308.486 171.827 306.759 171.827H304.769V172.892H357.797L360.039 158.963H358.245C356.864 162.08 355.385 164.456 353.845 166.054C352.304 167.651 350.497 168.815 348.38 169.557C346.268 170.296 343.619 170.65 340.448 170.65H335.459C332.639 170.65 330.863 170.572 330.134 170.398C329.104 170.125 328.411 169.72 328.06 169.165C327.708 168.609 327.527 167.321 327.527 165.297V140.044C327.527 138.056 327.682 136.813 328.004 136.345C328.445 135.684 329.063 135.217 329.825 134.943C330.883 134.535 332.266 134.327 334.002 134.327H336.608V133.262H304.769ZM364.495 133.262V134.327H366.457C368.127 134.327 369.458 134.537 370.437 134.915C371.419 135.297 372.078 135.725 372.399 136.233C372.72 136.737 372.875 138.017 372.875 140.044V166.138C372.875 168.186 372.747 169.401 372.483 169.809C372.041 170.434 371.362 170.934 370.437 171.295C369.515 171.655 368.187 171.827 366.457 171.827H364.495V172.892H391.205C395.052 172.892 397.877 172.79 399.669 172.556C403.717 172.048 407.151 171.323 409.955 170.398C412.757 169.47 415.213 168.23 417.355 166.698C419.496 165.17 421.244 163.242 422.596 160.897C423.947 158.548 424.614 155.976 424.614 153.189C424.614 149.156 423.263 145.538 420.522 142.343C417.777 139.147 413.726 136.772 408.414 135.196C404.068 133.91 398.34 133.262 391.205 133.262H364.495ZM164.353 134.719C161.314 135.902 158.562 137.21 156.085 138.615C154.52 139.756 153.13 140.927 151.881 142.146H162.195C162.552 141.456 162.929 140.779 163.344 140.1C165.115 138.19 167.15 136.398 169.454 134.719H164.353ZM172.789 134.719C170.489 136.398 168.451 138.19 166.679 140.1C166.265 140.779 165.859 141.456 165.502 142.146H175.395C175.618 141.441 175.86 140.741 176.124 140.044C177.17 138.173 178.37 136.392 179.712 134.719H172.789ZM183.047 134.719C181.693 136.41 180.507 138.176 179.459 140.044C179.199 140.739 178.956 141.44 178.731 142.146H188.316V134.719H183.047ZM190.81 134.719V142.146H200.396C200.173 141.439 199.93 140.738 199.667 140.044C198.621 138.173 197.421 136.392 196.08 134.719H190.81ZM199.415 134.719C200.754 136.393 201.954 138.174 203.002 140.044C203.263 140.739 203.506 141.44 203.731 142.146H213.625C213.267 141.456 212.862 140.779 212.447 140.1C210.676 138.19 208.641 136.398 206.337 134.719H199.415ZM208.916 134.719C211.219 136.398 213.257 138.19 215.026 140.1C215.443 140.779 215.815 141.456 216.175 142.146H226.489C225.24 140.927 223.85 139.756 222.285 138.615C219.811 137.21 217.028 135.902 213.989 134.719H208.916ZM257.431 135.392H262.14C266.872 135.392 270.297 136.108 272.426 137.55C274.558 138.991 275.621 141.23 275.621 144.248C275.621 146.332 275.042 148.027 273.883 149.321C272.721 150.616 271.146 151.516 269.118 152.012C267.092 152.51 264.013 152.741 259.926 152.741H257.431L257.431 135.392ZM387.225 135.532C392.126 135.514 395.652 135.797 397.763 136.401C400.757 137.257 403.2 138.874 405.107 141.25C407.512 144.282 408.722 148.335 408.722 153.413C408.722 159.717 406.951 164.374 403.425 167.371C400.845 169.587 397.112 170.706 392.214 170.706C390.716 170.706 389.56 170.549 388.767 170.258C388.208 170.063 387.824 169.786 387.59 169.417C387.355 169.048 387.225 168.024 387.225 166.39V135.532ZM161.13 144.361L149.779 144.388C149.559 144.653 149.341 144.909 149.134 145.173C147.981 147.32 147.247 149.512 146.92 151.732H159.084C159.426 149.233 160.109 146.763 161.13 144.36L161.13 144.361ZM164.465 144.361C163.441 146.769 162.761 149.255 162.419 151.76L173.518 151.704C173.713 149.223 174.129 146.766 174.751 144.361H164.465ZM178.086 144.361C177.461 146.769 177.048 149.22 176.853 151.704H188.316V144.361H178.086ZM190.81 144.361V151.704H202.274C202.078 149.22 201.665 146.769 201.04 144.361H190.81ZM204.376 144.361C204.997 146.766 205.414 149.223 205.609 151.704L216.708 151.76C216.365 149.255 215.686 146.769 214.662 144.361H204.376ZM217.24 144.361C218.258 146.763 218.944 149.233 219.286 151.732H231.45C231.123 149.512 230.392 147.32 229.236 145.173C229.029 144.909 228.813 144.653 228.591 144.388L217.24 144.361H217.24ZM147.004 154.03C147.373 156.021 148.095 157.982 149.134 159.916C149.662 160.594 150.228 161.276 150.844 161.934C151.54 161.934 154.067 161.916 161.802 161.878C160.556 159.319 159.714 156.703 159.252 154.03H157.962H147.004ZM162.587 154.03C163.049 156.697 163.897 159.297 165.137 161.849L175.311 161.737C174.528 159.215 173.989 156.649 173.686 154.03L162.587 154.03ZM177.021 154.03C177.324 156.648 177.863 159.215 178.647 161.737H188.316V154.03L177.021 154.03ZM190.838 154.03V161.737H200.48C201.267 159.215 201.83 156.649 202.133 154.03L190.838 154.03ZM205.441 154.03C205.137 156.648 204.599 159.215 203.815 161.737L214.045 161.765C215.255 159.249 216.086 156.657 216.539 154.03H205.441V154.03ZM219.118 154.03C218.655 156.703 217.814 159.319 216.567 161.878C224.303 161.916 226.832 161.934 227.526 161.934C228.145 161.276 228.704 160.594 229.236 159.916C230.275 157.982 230.968 156.021 231.338 154.03H219.118ZM152.637 163.531C153.732 164.539 154.883 165.484 156.085 166.362C158.73 167.86 161.709 169.236 164.997 170.482H170.238C167.611 168.644 165.314 166.663 163.344 164.54C163.143 164.206 162.947 163.87 162.755 163.531H152.637ZM166.09 163.531C166.28 163.865 166.475 164.207 166.679 164.54C168.646 166.663 170.946 168.644 173.574 170.482H180.721C178.949 168.44 177.421 166.264 176.124 163.951C176.079 163.831 176.029 163.707 175.984 163.587L166.09 163.531ZM179.319 163.531C179.361 163.648 179.414 163.781 179.459 163.896C180.769 166.232 182.319 168.422 184.112 170.482H188.316V163.559L179.319 163.531V163.531ZM199.807 163.531L190.81 163.559V170.482H195.014C196.807 168.422 198.355 166.232 199.667 163.895C199.709 163.781 199.765 163.648 199.807 163.531V163.531ZM213.036 163.531L203.142 163.587C203.1 163.707 203.047 163.831 203.002 163.952C201.702 166.264 200.175 168.44 198.406 170.482H205.553C208.18 168.644 210.477 166.663 212.447 164.54C212.649 164.207 212.847 163.865 213.036 163.531ZM215.615 163.531C215.425 163.865 215.23 164.207 215.026 164.54C213.059 166.663 210.759 168.644 208.131 170.482H213.372C216.661 169.236 219.642 167.86 222.285 166.362C223.487 165.484 224.638 164.539 225.732 163.531H215.615ZM93.1355 177.825L88.3989 184.636C87.9514 185.29 87.5811 185.746 87.2778 185.953C86.9715 186.163 86.5751 186.269 86.1007 186.317V186.542H90.501V186.317C89.8133 186.281 89.3858 186.243 89.2116 186.177C88.9114 186.063 88.7632 185.885 88.7632 185.645C88.7632 185.464 88.8634 185.223 89.0436 184.944L89.6041 184.131H94.2565L94.9573 185.196C95.1404 185.475 95.2505 185.606 95.2656 185.645C95.3045 185.726 95.3216 185.822 95.3216 185.897C95.3216 186.023 95.2385 186.111 95.0974 186.177C94.8902 186.27 94.5179 186.317 94.0043 186.317H93.752V186.542H100.142V186.317C99.7399 186.296 99.4396 186.222 99.2174 186.093C98.9261 185.919 98.5498 185.498 98.0963 184.832L93.3317 177.825H93.1355ZM291.456 177.825L286.72 184.636C286.272 185.29 285.905 185.746 285.598 185.953C285.295 186.163 284.896 186.269 284.421 186.317V186.542H288.822V186.317C288.131 186.281 287.71 186.243 287.532 186.177C287.235 186.063 287.084 185.885 287.084 185.645C287.084 185.464 287.153 185.223 287.336 184.944L287.925 184.131H292.549L293.278 185.196C293.461 185.475 293.543 185.606 293.558 185.645C293.594 185.726 293.614 185.822 293.614 185.897C293.614 186.023 293.559 186.111 293.418 186.177C293.211 186.27 292.839 186.317 292.325 186.317H292.073V186.542H298.463V186.317C298.058 186.296 297.757 186.222 297.538 186.093C297.244 185.919 296.87 185.498 296.417 184.832L291.624 177.825H291.456ZM388.711 177.825C387.53 177.825 386.571 178.048 385.796 178.526C385.024 179.003 384.647 179.582 384.647 180.263C384.647 180.663 384.788 181.026 385.067 181.356C385.349 181.69 385.75 181.983 386.272 182.253C386.795 182.524 387.644 182.853 388.851 183.234C389.71 183.508 390.333 183.736 390.673 183.907C391.012 184.075 391.264 184.25 391.429 184.439C391.595 184.629 391.654 184.827 391.654 185.028C391.654 185.367 391.441 185.67 391.009 185.925C390.576 186.18 390.001 186.317 389.271 186.317C388.328 186.317 387.451 186.066 386.637 185.589C385.82 185.114 385.268 184.418 384.983 183.515H384.619V186.738H384.983C385.1 186.564 385.239 186.457 385.432 186.373C385.618 186.286 385.796 186.233 385.964 186.233C386.168 186.233 386.436 186.261 386.749 186.345C387.307 186.498 387.778 186.628 388.15 186.682C388.52 186.736 388.91 186.738 389.327 186.738C390.655 186.738 391.745 186.494 392.606 185.981C393.468 185.467 393.896 184.846 393.896 184.131C393.896 183.57 393.642 183.081 393.111 182.646C392.57 182.207 391.521 181.734 389.972 181.244C388.864 180.89 388.151 180.654 387.842 180.516C387.427 180.323 387.134 180.125 386.945 179.927C386.807 179.78 386.721 179.612 386.721 179.423C386.721 179.125 386.922 178.866 387.309 178.638C387.697 178.41 388.215 178.273 388.879 178.273C389.741 178.273 390.551 178.511 391.289 178.946C392.031 179.382 392.501 179.944 392.691 180.656H393.083L392.971 177.825H392.691C392.607 178.08 392.509 178.232 392.41 178.302C392.314 178.368 392.186 178.385 392.018 178.385C391.841 178.385 391.531 178.324 391.093 178.189C390.655 178.051 390.275 177.96 389.972 177.909C389.567 177.843 389.137 177.825 388.711 177.825H388.711ZM136.942 177.993V178.245H137.363C137.732 178.245 138.043 178.276 138.259 178.358C138.479 178.439 138.611 178.527 138.68 178.638C138.752 178.746 138.792 179.043 138.792 179.479V185.084C138.792 185.51 138.752 185.795 138.68 185.897C138.59 186.041 138.456 186.145 138.287 186.205C138.053 186.292 137.747 186.317 137.362 186.317H136.942V186.542H143.837V186.317H143.388C143.022 186.317 142.733 186.286 142.519 186.205C142.3 186.124 142.143 186.036 142.071 185.925C141.996 185.817 141.959 185.519 141.959 185.084V179.479C141.959 179.052 141.999 178.765 142.071 178.666C142.167 178.522 142.295 178.418 142.463 178.357C142.695 178.27 143.007 178.245 143.388 178.245H143.837V177.993H136.942ZM180.833 177.993V178.245C181.436 178.245 181.872 178.285 182.094 178.358C182.313 178.43 182.455 178.518 182.542 178.638C182.629 178.758 182.683 179.041 182.683 179.507V185.056C182.683 185.522 182.63 185.808 182.542 185.925C182.455 186.045 182.313 186.133 182.094 186.205C181.875 186.28 181.442 186.317 180.833 186.317V186.541H187.615V186.317C187.012 186.317 186.601 186.277 186.382 186.205C186.16 186.133 185.993 186.048 185.906 185.925C185.819 185.808 185.766 185.522 185.766 185.056V182.646H186.634L190.923 186.542H195.071V186.317C194.716 186.305 194.413 186.25 194.146 186.121C193.968 186.028 193.666 185.796 193.249 185.42L190.082 182.506C190.886 182.373 191.509 182.175 191.96 181.917C192.662 181.506 193.025 181.003 193.025 180.375C193.025 179.856 192.792 179.387 192.324 179.002C191.855 178.621 191.244 178.362 190.502 178.217C189.76 178.076 188.596 177.993 186.999 177.993H180.833ZM230.525 177.993V178.245C230.939 178.269 231.245 178.35 231.422 178.498C231.596 178.645 231.905 179.056 232.347 179.759L236.691 186.738H237.055L240.671 181.216L243.922 186.738H244.314L248.462 179.703C248.832 179.102 249.009 178.773 249.051 178.722C249.177 178.569 249.331 178.436 249.499 178.357C249.668 178.283 249.87 178.257 250.116 178.245V177.993H246.697V178.245C247.207 178.254 247.554 178.315 247.734 178.414C247.917 178.51 248.014 178.635 248.014 178.806C248.014 178.923 247.981 179.06 247.93 179.198C247.876 179.339 247.738 179.577 247.51 179.955L245.351 183.627L242.969 179.591C242.675 179.092 242.521 178.79 242.521 178.694C242.521 178.604 242.555 178.514 242.633 178.442C242.711 178.373 242.831 178.331 242.969 178.301C243.164 178.259 243.475 178.251 243.922 178.245V177.993H237.532V178.245C237.94 178.245 238.244 178.285 238.457 178.358C238.667 178.43 238.852 178.529 239.017 178.694C239.179 178.862 239.418 179.207 239.718 179.703L240.251 180.6L238.176 183.851L235.57 179.703C235.249 179.183 235.093 178.825 235.093 178.666C235.093 178.546 235.164 178.467 235.318 178.386C235.468 178.304 235.78 178.254 236.243 178.245V177.993H230.525ZM333.189 177.993V178.245C333.612 178.252 333.946 178.312 334.198 178.442C334.453 178.571 334.896 178.982 335.515 179.703L338.626 183.374V185.084C338.626 185.51 338.589 185.795 338.514 185.897C338.418 186.038 338.293 186.145 338.122 186.205C337.893 186.292 337.584 186.317 337.197 186.317H336.496V186.542H343.923V186.317H343.195C342.843 186.317 342.536 186.286 342.326 186.205C342.112 186.121 341.977 186.033 341.905 185.925C341.836 185.817 341.793 185.523 341.793 185.084V183.038L344.68 179.927C345.383 179.14 345.894 178.675 346.221 178.498C346.456 178.372 346.767 178.284 347.202 178.245V177.993H343.194V178.245C343.786 178.266 344.177 178.308 344.4 178.414C344.568 178.489 344.652 178.608 344.652 178.722C344.652 178.929 344.347 179.325 343.755 179.955L341.401 182.534L338.99 179.731C338.471 179.118 338.206 178.735 338.206 178.582C338.206 178.504 338.277 178.43 338.43 178.357C338.583 178.285 338.861 178.245 339.243 178.245H339.523V177.993H333.189ZM185.766 178.47H186.831C187.876 178.47 188.629 178.637 189.101 178.946C189.572 179.258 189.801 179.724 189.801 180.376C189.801 180.823 189.667 181.189 189.409 181.469C189.154 181.748 188.822 181.949 188.372 182.057C187.925 182.165 187.23 182.225 186.326 182.225H185.766V178.47ZM91.9583 180.712L93.9203 183.655H89.9403L91.9583 180.712ZM290.279 180.712L292.241 183.655H288.261L290.279 180.712Z" fill="#31338F"/>
</svg>
