<svg width="480" height="320" viewBox="0 0 480 320" fill="none" xmlns="http://www.w3.org/2000/svg">
<path d="M152.305 106.659C152.305 106.659 156.478 106.253 157.91 106.412C159.567 106.6 162.91 107.961 164.565 108.148C165.952 108.304 168.872 109.092 170.261 109.015C171.985 108.923 174.83 107.033 177.367 107.48C190.69 109.826 211.047 133.808 224.564 133.225C248.956 132.173 248.387 106.289 254.842 106.289H317.251C280.66 123.131 255.704 141.89 268.648 152.851C280.497 162.888 316.136 150.374 316.136 150.374C316.136 150.374 301.28 165.174 275.643 165.174C226.049 165.174 192.737 123.005 168.096 112.79C164.187 111.172 156.716 108.053 152.305 106.659" fill="#529FC9"/>
<path d="M204.684 186.721L213.043 198.789L203.292 213H209.514L216.015 203.715L222.98 213H229.667L219.543 198.789L227.718 186.721H221.402L216.479 194.013L210.999 186.721H204.684ZM233.784 213H239.051V186.72H233.784V213ZM252.486 204.49L256.597 192.955L260.937 204.49L252.486 204.49ZM259.294 186.721H253.721L243.321 213H248.764L251.039 207.418L262.358 207.428L264.311 213H270.068L259.294 186.721M272.853 213L275.451 186.721H281.676L289.383 202.415L296.999 186.721H303.221L305.552 213H300.346L298.859 194.983L289.202 213.468L280.193 194.892L278.428 213H272.853M328.237 186.721H311.525V213H329.021V209.487H316.321V201.266H326.227V197.676H316.321V190.122H328.237V186.721ZM334.894 186.721V213H339.849V194.58L355.943 213H359.041V186.72H354.091V203.503L339.6 186.72H334.894M125.493 213.558H127.41V184.555H125.492L125.493 213.558ZM163.479 213.558H165.398V184.555H163.479V213.558ZM87.1372 213.558H89.0548V184.555H87.137L87.1372 213.558ZM105.121 188.531V185.395H116.625C117.977 185.395 119.018 185.809 119.743 186.64C120.459 187.457 120.817 188.552 120.817 189.931V208.639C120.817 210.016 120.623 211.032 120.238 211.693C119.492 212.937 118.449 213.558 117.102 213.558H115.958L113.33 210.474H116.637C117.017 210.485 117.383 210.272 117.742 209.835C118.003 209.515 118.134 208.984 118.134 208.252V190.598C118.134 189.219 117.538 188.531 116.349 188.531H105.121ZM94.1822 213.558V190.882H96.866V213.558H94.1822ZM94.1822 187.526V185.548L96.5545 185.137V186.721C96.5545 187.044 96.9118 187.516 97.4148 187.516L103.45 187.491V189.661L97.1184 189.686C95.2777 189.686 94.1822 188.483 94.1822 187.526M145.708 213.345L143.758 211.667C144.593 211.447 145.164 210.513 145.335 210.33C145.657 210 145.841 209.018 145.841 208.143V197.721C145.841 196.413 146.02 195.848 146.329 195.29C146.629 194.724 147.055 194.278 147.603 193.957C148.06 193.681 148.806 193.475 149.183 193.461L152.615 193.443C153.483 193.434 154.214 193.741 154.806 194.365C155.54 195.143 155.909 196.162 155.909 197.415L155.885 207.257C155.885 208.562 155.909 209.553 155.994 209.801C156.139 210.216 156.41 210.632 156.756 210.632H159.641L158.525 213.098C156.157 213.233 155.16 213.189 154.521 212.588C153.824 211.921 153.201 210.739 153.201 209.448L153.224 199.972C153.224 198.433 153.254 197.644 153.145 197.432C152.85 196.864 152.474 196.583 152.029 196.583L150.06 196.56C149.662 196.56 149.342 196.66 149.104 196.864C148.725 197.163 148.535 197.506 148.535 197.879L148.548 198.576L148.526 207.506C148.526 209.044 148.407 210.132 148.176 210.781C147.857 211.693 146.628 213.258 145.708 213.345V213.345ZM144.069 191.235V188.947H149.579L147.705 185.137H151.19L153.238 188.947H158.802V191.235H144.069ZM137.312 196.751C137.312 196.751 136.683 194.969 136.552 194.044C136.433 193.203 136.372 191.58 136.372 191.58L138.696 191.42C138.696 191.42 138.734 192.764 138.9 193.796C139.033 194.631 139.093 195.136 139.572 196.469L137.312 196.751ZM137.396 207.369C137.396 207.369 136.885 205.527 136.755 204.598C136.634 203.758 136.419 201.563 136.419 201.563L138.526 201.41C138.526 201.41 138.682 203.161 138.85 204.194C138.987 205.024 139.141 205.118 139.655 207.085L137.396 207.369ZM135.681 197.83H140.639L140.624 191.05C140.624 190.628 140.527 190.331 140.335 190.165C140.2 190.06 139.932 189.996 139.537 189.996H136.433C135.93 189.996 135.681 190.464 135.681 191.4V197.83ZM133.342 213.345L131.341 211.772C132.133 211.105 133.124 210.309 133.153 208.572L133.167 200.914H131.314V197.83H133.167V191.417C133.167 190.224 133.272 189.487 133.272 189.184C133.272 187.97 134.981 187.067 136.353 187.067L137.234 185.049H140.194L139.348 187.112L140.363 187.093C141.205 187.093 141.877 187.409 142.382 188.029C142.846 188.612 143.077 189.365 143.077 190.301V197.83H144.183V200.914H143.077V210.002C143.077 210.963 142.911 211.684 142.586 212.177C142.079 212.933 141.34 213.303 140.363 213.293L138.711 213.265L137.164 210.279H139.795C140.336 210.267 140.639 209.811 140.639 209.085V200.914H135.681V208.238C135.681 211.242 134.981 211.935 133.342 213.345ZM184.707 202.205H194.097V199.505H171.898V202.205H182.022V210.725H169.46V212.914H196.779V210.725H184.707V202.205M195.893 188.28C195.286 187.638 194.496 187.31 193.527 187.31H184.721V185.377H182.022V187.31H172.508C171.75 187.31 171.059 187.642 170.431 188.294C169.784 188.975 169.46 189.914 169.46 191.117V193.487H172.144V192.07C172.144 191.643 172.265 191.273 172.508 190.95C172.797 190.584 173.146 190.398 173.551 190.398H177.905C177.792 191.001 177.24 192.613 175.567 194.289C174.586 195.269 171.552 197.953 170.205 198.5H176.054C177.076 197.721 177.937 197.132 179.698 195.045C180.388 194.236 181.603 192.736 182.256 190.412H184.833L184.811 194.239C184.811 194.239 184.66 196.842 186.295 197.562C186.859 197.818 188.083 197.879 189.476 197.868L195.258 197.851L195.266 195.206L190.673 195.199C190.673 195.199 189.458 195.329 188.524 194.99C187.789 194.722 187.951 193.933 187.951 192.955V190.398H192.587C193.031 190.398 193.402 190.584 193.703 190.949C194.003 191.329 194.154 191.731 194.154 192.147V193.487H196.825V190.9C196.825 189.809 196.513 188.935 195.893 188.28ZM55.3828 212.721L58.2705 213.233C59.0239 212.221 59.4023 210.937 59.4023 209.379V190.584C59.4023 189.25 59.9757 188.58 61.1298 188.58H82.6207V185.444H60.8972C60.1129 185.444 59.4792 185.544 58.9976 185.744C58.6097 185.897 58.2119 186.207 57.8057 186.658C57.08 187.474 56.7173 188.503 56.7173 189.763V209.748C56.7173 210.882 56.3615 211.981 55.3831 212.721" fill="#244584"/>
<path d="M72.4667 209.014C72.4667 209.014 71.0447 208.156 69.7385 207.304L65.8811 207.281C66.1097 206.997 66.3261 206.725 66.583 206.446H77.6054L72.4667 209.014ZM65.0982 200.801V200.299H78.7204V200.731C78.7204 201.202 78.5043 201.433 78.0676 201.433H65.4149C65.2028 201.433 65.0979 201.22 65.0979 200.801H65.0982ZM65.0982 197.533H78.7204V198.627H65.0982V197.533ZM65.0982 195.181C65.0982 194.734 65.3103 194.511 65.7359 194.511H78.1399C78.5266 194.511 78.7207 194.734 78.7207 195.181V195.595H65.0982V195.181ZM79.8957 211.557C79.1726 211.491 77.6963 211.052 76.355 210.197C78.3591 209.226 79.7214 208.191 80.2153 207.838C80.8041 207.412 81.1013 206.826 81.1013 206.065C81.1013 205.588 80.9647 205.197 80.6954 204.883C80.3382 204.472 79.6488 204.262 78.6341 204.262H68.7155L69.0785 203.62H79.0543C80.3213 203.62 80.9578 202.892 80.9578 201.433V194.211C80.9578 193.67 80.7806 193.191 80.4331 192.776C80.1232 192.416 79.6488 192.242 79.6179 192.242H72.9411L73.8249 191.404H82.6242V189.152H60.9001V191.404H70.8552L70.058 192.242H64.2119C63.7177 192.242 63.313 192.416 62.992 192.776C62.6236 193.177 62.4423 193.714 62.4423 194.398V201.566C62.4423 202.19 62.6433 202.709 63.052 203.135C63.3493 203.457 63.7666 203.62 64.297 203.62H64.7772C64.2464 204.876 61.3882 207.879 60.2344 208.756L64.5371 208.793C64.9321 208.411 65.3018 208.003 65.6438 207.572C67.8083 209.363 68.7378 209.998 68.7378 209.998C66.0568 211.233 63.1943 211.675 61.2768 211.675H60.7717V213.71C65.5615 213.71 68.8467 212.998 72.5884 211.484C74.785 212.845 77.1981 213.254 78.1262 213.392C79.2678 213.573 80.6031 213.678 82.1328 213.71V211.675C81.7727 211.651 81.4297 211.637 81.1016 211.623C80.4805 211.603 80.0798 211.582 79.8957 211.557M370.995 203.808L376.413 190.222L381.521 203.808H370.995ZM377.868 186.719H374.526L363.814 212.999H367.467L370.374 205.972H382.39L385.296 212.999H389.012L377.868 186.719ZM393.781 212.999H396.695V186.719H393.781V212.999ZM407.281 197.863V189.066L414.77 189.134C416.874 189.134 418.793 191.052 418.793 193.53C418.793 195.574 417.371 197.922 414.459 197.922L407.281 197.863ZM416.632 200.155C418.482 200.155 421.952 197.182 421.952 193.467C421.952 189.813 418.857 186.719 416.257 186.719H404.311V212.999H407.339V200.089H413.223L421.401 212.999H424.617L416.632 200.155" fill="#244584"/>
</svg>
