<svg width="480" height="320" viewBox="0 0 480 320" fill="none" xmlns="http://www.w3.org/2000/svg">
<path d="M240.842 196.456H234.782L233.826 199.75H229.931L235.498 181.671H240.118L245.684 199.75H241.787L240.842 196.456ZM235.749 193.102H239.865L237.812 185.908L235.749 193.102ZM247.383 180.907H250.985V184.444H247.383V180.907ZM247.383 186.187H250.985V199.751H247.383V186.187ZM262.377 189.881C262.059 189.703 261.746 189.572 261.433 189.486C261.126 189.403 260.81 189.36 260.492 189.359C259.566 189.359 258.854 189.717 258.353 190.432C257.853 191.146 257.603 192.17 257.603 193.502V199.75H253.999V186.185H257.603V188.416C258.065 187.526 258.599 186.88 259.198 186.472C259.799 186.066 260.519 185.861 261.357 185.861C261.479 185.861 261.61 185.866 261.75 185.878C261.892 185.892 262.096 185.917 262.365 185.958L262.377 189.881ZM263.481 186.187H266.983L268.875 195.536L270.776 186.187H273.786L275.678 195.44L277.58 186.187H281.083L278.113 199.751H274.179L272.275 190.427L270.383 199.751H266.448L263.481 186.187ZM293.519 192.012V199.75H289.886V197.74C289.403 198.564 288.861 199.162 288.255 199.537C287.653 199.914 286.917 200.1 286.052 200.1C284.885 200.1 283.937 199.692 283.209 198.871C282.48 198.053 282.117 196.989 282.117 195.681C282.117 194.092 282.572 192.925 283.48 192.182C284.39 191.439 285.818 191.068 287.762 191.068H289.886V190.73C289.886 190.043 289.661 189.541 289.212 189.222C288.762 188.902 288.062 188.744 287.108 188.744C286.337 188.744 285.617 188.837 284.954 189.021C284.29 189.207 283.674 189.484 283.102 189.857V186.552C283.872 186.326 284.649 186.153 285.427 186.035C286.204 185.918 286.984 185.861 287.76 185.861C289.794 185.861 291.262 186.342 292.165 187.307C293.067 188.271 293.519 189.84 293.519 192.012ZM288.014 193.646C287.263 193.646 286.697 193.799 286.32 194.106C285.939 194.414 285.75 194.865 285.75 195.464C285.75 196.013 285.902 196.441 286.208 196.752C286.514 197.063 286.939 197.218 287.483 197.218C288.159 197.218 288.729 196.926 289.193 196.339C289.654 195.755 289.887 195.021 289.887 194.142V193.646H288.014ZM294.52 186.187H298.122L301.152 195.39L303.73 186.187H307.333L302.59 201.035C302.115 202.543 301.561 203.599 300.926 204.201C300.291 204.804 299.455 205.102 298.413 205.102H296.331V202.256H297.459C298.069 202.256 298.515 202.139 298.792 201.906C299.071 201.671 299.286 201.252 299.44 200.646L299.54 200.27L294.52 186.187ZM317.825 186.611V189.903C317.052 189.516 316.308 189.227 315.589 189.032C314.871 188.838 314.193 188.742 313.555 188.742C312.871 188.742 312.362 188.846 312.031 189.052C311.697 189.258 311.533 189.574 311.533 190.002C311.533 190.348 311.659 190.615 311.91 190.801C312.162 190.987 312.613 191.124 313.264 191.212L313.898 191.321C315.742 191.604 316.986 192.068 317.622 192.714C318.259 193.359 318.576 194.372 318.576 195.753C318.576 197.198 318.135 198.285 317.249 199.01C316.362 199.736 315.041 200.098 313.283 200.098C312.537 200.098 311.768 200.029 310.973 199.887C310.177 199.745 309.36 199.534 308.522 199.25V195.957C309.239 196.378 309.978 196.692 310.731 196.904C311.487 197.113 312.252 197.218 313.034 197.218C313.738 197.218 314.267 197.1 314.623 196.867C314.977 196.633 315.156 196.285 315.156 195.825C315.156 195.439 315.032 195.151 314.788 194.96C314.543 194.771 314.054 194.622 313.324 194.517L312.689 194.421C311.085 194.179 309.962 193.73 309.318 193.077C308.674 192.424 308.352 191.432 308.352 190.098C308.352 188.661 308.761 187.598 309.58 186.902C310.399 186.206 311.653 185.861 313.345 185.861C314.008 185.861 314.707 185.921 315.438 186.042C316.169 186.163 316.964 186.352 317.825 186.611ZM338.008 198.404C337.042 198.97 336.038 199.394 335 199.676C333.959 199.958 332.885 200.098 331.777 200.098C329.275 200.098 327.292 199.258 325.83 197.574C324.367 195.892 323.635 193.609 323.635 190.727C323.635 187.812 324.381 185.521 325.871 183.849C327.361 182.177 329.401 181.343 331.99 181.343C332.991 181.343 333.948 181.456 334.864 181.681C335.78 181.907 336.644 182.242 337.456 182.687V186.428C336.617 185.855 335.783 185.428 334.956 185.146C334.128 184.864 333.297 184.72 332.462 184.72C330.919 184.72 329.73 185.24 328.894 186.279C328.061 187.315 327.642 188.798 327.642 190.729C327.642 192.641 328.043 194.118 328.85 195.161C329.655 196.201 330.796 196.723 332.281 196.723C332.683 196.723 333.058 196.692 333.405 196.632C333.749 196.571 334.059 196.477 334.334 196.347V192.835H331.969V189.711H338.008V198.404ZM352.364 192.932V194.167H343.94C344.027 195.183 344.332 195.947 344.855 196.456C345.378 196.964 346.111 197.22 347.049 197.22C347.808 197.22 348.585 197.084 349.379 196.814C350.175 196.543 350.992 196.133 351.829 195.585V198.927C350.977 199.315 350.126 199.608 349.274 199.806C348.422 200.004 347.568 200.101 346.718 200.101C344.678 200.101 343.092 199.478 341.961 198.231C340.829 196.983 340.267 195.235 340.267 192.981C340.267 190.77 340.822 189.03 341.932 187.763C343.043 186.496 344.572 185.862 346.517 185.862C348.288 185.862 349.706 186.505 350.769 187.788C351.832 189.072 352.364 190.785 352.364 192.932ZM348.66 191.491C348.66 190.667 348.46 190.002 348.062 189.498C347.661 188.993 347.14 188.741 346.495 188.741C345.796 188.741 345.232 188.976 344.795 189.448C344.358 189.921 344.087 190.6 343.979 191.489H348.66V191.491ZM363.162 189.881C362.846 189.703 362.533 189.572 362.219 189.486C361.913 189.403 361.597 189.36 361.279 189.359C360.353 189.359 359.641 189.717 359.14 190.432C358.639 191.146 358.391 192.17 358.391 193.502V199.75H354.788V186.185H358.391V188.416C358.852 187.526 359.385 186.88 359.986 186.472C360.586 186.066 361.307 185.861 362.144 185.861C362.265 185.861 362.397 185.866 362.537 185.878C362.679 185.892 362.883 185.917 363.151 185.958L363.162 189.881ZM375.213 188.439C375.67 187.6 376.212 186.961 376.84 186.519C377.467 186.079 378.157 185.861 378.907 185.861C380.203 185.861 381.189 186.341 381.867 187.302C382.545 188.264 382.883 189.659 382.883 191.492V199.751H379.259V192.678C379.266 192.575 379.271 192.464 379.275 192.35C379.279 192.24 379.279 192.077 379.279 191.867C379.279 190.907 379.163 190.21 378.928 189.779C378.693 189.346 378.314 189.131 377.791 189.131C377.105 189.131 376.577 189.47 376.204 190.148C375.832 190.826 375.639 191.807 375.626 193.09V199.751H372.003V192.678C372.003 191.176 371.895 190.21 371.681 189.779C371.465 189.346 371.084 189.131 370.533 189.131C369.84 189.131 369.307 189.473 368.932 190.154C368.557 190.836 368.369 191.811 368.369 193.077V199.751H364.745V186.187H368.369V188.174C368.811 187.406 369.321 186.831 369.894 186.443C370.467 186.054 371.1 185.861 371.79 185.861C372.568 185.861 373.257 186.087 373.853 186.539C374.451 186.991 374.905 187.624 375.213 188.439ZM396.46 192.012V199.75H392.827V197.74C392.344 198.564 391.801 199.162 391.197 199.537C390.593 199.914 389.86 200.1 388.993 200.1C387.826 200.1 386.877 199.692 386.15 198.871C385.42 198.053 385.057 196.989 385.057 195.681C385.057 194.092 385.514 192.925 386.422 192.182C387.33 191.439 388.758 191.068 390.705 191.068H392.829V190.73C392.829 190.043 392.604 189.541 392.154 189.222C391.703 188.902 391.003 188.744 390.051 188.744C389.278 188.744 388.56 188.837 387.896 189.021C387.233 189.207 386.615 189.484 386.044 189.857V186.552C386.815 186.326 387.592 186.153 388.368 186.035C389.142 185.919 389.923 185.861 390.705 185.861C392.736 185.861 394.204 186.342 395.106 187.307C396.009 188.271 396.46 189.84 396.46 192.012ZM390.956 193.646C390.204 193.646 389.639 193.799 389.26 194.106C388.881 194.414 388.692 194.865 388.692 195.464C388.692 196.013 388.844 196.441 389.15 196.752C389.455 197.063 389.881 197.218 390.423 197.218C391.101 197.218 391.671 196.926 392.133 196.339C392.597 195.755 392.829 195.021 392.829 194.142V193.646H390.956ZM410.726 191.491V199.75H407.103V193.427C407.103 192.257 407.081 191.451 407.038 191.006C406.995 190.562 406.919 190.237 406.811 190.026C406.67 189.744 406.478 189.523 406.238 189.365C405.995 189.209 405.719 189.129 405.411 189.129C404.66 189.129 404.07 189.479 403.641 190.178C403.21 190.876 402.996 191.842 402.996 193.077V199.751H399.394V186.187H402.996V188.174C403.538 187.383 404.115 186.8 404.727 186.423C405.338 186.047 406.012 185.861 406.75 185.861C408.053 185.861 409.039 186.341 409.714 187.302C410.389 188.264 410.726 189.658 410.726 191.491ZM411.8 186.187H415.404L418.434 195.39L421.01 186.187H424.614L419.873 201.035C419.397 202.543 418.842 203.599 418.207 204.201C417.572 204.804 416.736 205.102 415.696 205.102H413.613V202.256H414.74C415.352 202.256 415.796 202.139 416.074 201.906C416.352 201.671 416.569 201.252 416.721 200.646L416.823 200.27L411.8 186.187ZM204.833 180.511H179.32C176.282 180.358 173.863 177.856 173.863 174.781C173.863 174.754 173.851 174.704 173.851 174.704V126.392C173.85 120.044 168.704 114.899 162.356 114.899C156.009 114.899 150.863 120.044 150.863 126.392V174.411H150.879C151.235 190.535 164.409 203.498 180.619 203.498H204.834C211.182 203.498 216.328 198.352 216.328 192.005C216.328 185.657 211.18 180.511 204.833 180.511ZM201.245 197.702C198.073 197.702 195.499 195.128 195.499 191.954C195.499 188.78 198.073 186.208 201.245 186.208C204.419 186.208 206.993 188.78 206.993 191.954C206.993 195.128 204.421 197.702 201.245 197.702ZM140.616 134.52C145.104 130.031 145.104 122.753 140.616 118.265C136.128 113.776 128.849 113.776 124.361 118.265C123.206 119.42 112.293 130.333 99.6831 142.944C87.1337 130.393 76.2636 119.523 75.0052 118.265C70.5154 113.776 63.2386 113.776 58.7517 118.265C54.2618 122.753 54.2618 130.031 58.7517 134.52L83.4296 159.198L58.7502 183.877C54.2604 188.365 54.2604 195.644 58.7502 200.131C63.2386 204.62 70.5154 204.62 75.0037 200.131C75.977 199.159 86.9639 188.169 99.6816 175.454C112.597 188.368 123.723 199.493 124.36 200.131C128.848 204.62 136.126 204.62 140.615 200.131C145.103 195.644 145.103 188.365 140.615 183.877C139.356 182.619 128.486 171.747 115.935 159.198C128.654 146.48 139.643 135.492 140.616 134.52Z" fill="#0A71B4"/>
</svg>
