<svg width="480" height="320" viewBox="0 0 480 320" fill="none" xmlns="http://www.w3.org/2000/svg">
<mask id="mask0_730_18124" style="mask-type:luminance" maskUnits="userSpaceOnUse" x="103" y="53" width="274" height="214">
<path d="M103.578 53.332H376.418V266.665H103.578V53.332Z" fill="white"/>
</mask>
<g mask="url(#mask0_730_18124)">
<path d="M167.377 53.332L103.578 266.377H170.736L185.424 220.958C163.711 206.183 149.606 165.337 163.598 131.778C176.1 101.79 202.876 86.4892 224.91 84.3286L234.54 53.332H167.377Z" fill="#DF0023"/>
</g>
<mask id="mask1_730_18124" style="mask-type:luminance" maskUnits="userSpaceOnUse" x="103" y="53" width="274" height="214">
<path d="M103.578 53.332H376.418V266.665H103.578V53.332Z" fill="white"/>
</mask>
<g mask="url(#mask1_730_18124)">
<path d="M240.417 53.332H376.416L311.376 266.671H177.055L190.463 224.678C207.679 241.192 254.4 248.751 285.463 227.278C316.523 205.802 332.731 157.139 305.972 118.436C277.537 77.3239 231.177 83.8866 231.177 83.8866L240.417 53.332Z" fill="#00782B"/>
</g>
<mask id="mask2_730_18124" style="mask-type:luminance" maskUnits="userSpaceOnUse" x="103" y="53" width="274" height="214">
<path d="M103.578 53.332H376.418V266.665H103.578V53.332Z" fill="white"/>
</mask>
<g mask="url(#mask2_730_18124)">
<path d="M320.223 161.872C320.223 206.82 283.796 243.247 238.853 243.247C193.908 243.247 157.473 206.82 157.473 161.872C157.473 116.933 193.908 80.5 238.853 80.5C283.796 80.5 320.223 116.936 320.223 161.872Z" fill="#F6DB00"/>
</g>
<mask id="mask3_730_18124" style="mask-type:luminance" maskUnits="userSpaceOnUse" x="103" y="53" width="274" height="214">
<path d="M103.578 53.332H376.418V266.665H103.578V53.332Z" fill="white"/>
</mask>
<g mask="url(#mask3_730_18124)">
<path d="M283.817 176.906C283.817 176.906 283.679 177.235 281.752 177.145C279.82 177.039 278.884 175.967 277.48 175.779C276.076 175.603 273.549 177.226 272.596 178.806C271.657 180.392 270.886 183.223 268.211 183.994C265.522 184.774 263.601 185.369 261.42 181.81L259.231 178.26C259.231 178.26 258.737 175.389 256.775 172.72C254.82 170.046 253.592 169.65 254.17 168.506C254.736 167.359 255.993 167.18 255.993 167.18C255.993 167.18 261.024 166.678 262.318 165.438C263.612 164.199 264.398 163.234 264.398 163.234C264.398 163.234 268.843 162.492 269.898 160.86C270.967 159.234 271.053 158.286 271.053 158.286C271.053 158.286 273.173 157.192 273.812 155.866C274.453 154.549 274.257 154.078 274.257 154.078C274.257 154.078 277.492 153.636 277.96 152.247C278.428 150.869 278.511 150.407 278.511 150.407C278.511 150.407 280.721 149.344 281.325 148.107C281.928 146.883 281.645 146.371 281.645 146.371C281.645 146.371 287.001 144.829 287.729 143.058C288.454 141.288 288.338 140.849 288.338 140.849C288.338 140.849 291.836 139.029 292.122 137.377C292.414 135.719 291.882 135.306 291.882 135.306C291.882 135.306 295.507 133.931 296.46 132.559C297.417 131.172 297.619 129.979 295.92 130.262C294.219 130.557 287.538 131.75 285.112 132.137C282.688 132.527 279.788 133.107 279.788 133.107C279.788 133.107 281.293 132.547 281.325 131.279C281.354 130.008 280.441 129.344 280.441 129.344C280.441 129.344 282.812 127.648 282.925 126.418C283.035 125.181 282.509 124.768 282.509 124.768C282.509 124.768 287.053 121.123 287.503 120.025C287.957 118.925 287.119 117.602 285.34 118.344C283.555 119.095 274.571 122.504 270.152 123.451C265.721 124.396 257.506 125.953 253.41 126.342C249.309 126.73 241.515 127.969 238.737 128.991C235.946 130.017 234.589 130.45 233.809 132.596C233.038 134.734 233.61 136.446 233.82 138.104C234.025 139.768 233.714 142.2 232.087 142.322C230.467 142.443 229.537 142.062 228.898 139.534C228.26 137.016 229.002 134.462 226.244 133.038C223.48 131.608 222.451 130.993 220.608 130.924C220.608 130.924 218.358 128.723 216.394 128.708C214.433 128.691 212.012 128.584 212.012 128.584C212.012 128.584 208.942 125.753 208.968 123.298C208.979 120.84 208.751 118.286 212.053 118.159C215.354 118.038 216.98 119.098 219.222 120.612C221.46 122.119 226.495 124.477 229.566 122.287C232.625 120.092 233.292 118.006 232.798 115.343C232.31 112.683 230.813 109.609 230.813 109.609C230.813 109.609 230.533 111.264 229.898 112.088C229.268 112.911 228.763 113.393 228.225 113.272C227.688 113.151 227.119 113.806 227.119 113.806C227.119 113.806 228.858 115.6 228.514 116.441C228.162 117.284 226.712 119.15 224.722 117.743C222.734 116.34 216.492 110.435 212.5 110.571C208.5 110.707 201.668 112.247 199.811 118.468C197.948 124.699 200.831 131.591 202.466 134.326C204.098 137.07 203.396 136.386 203.396 136.386C203.396 136.386 203.341 138.425 201.411 137.634C199.459 136.842 197.789 136.146 197.789 136.146C197.789 136.146 198.39 137.778 199.196 138.702C197.746 137.908 196.212 137.579 196.212 137.579C196.212 137.579 196.804 139.497 199.121 141.524C201.437 143.555 204.008 145.21 206.403 145.395C206.403 145.395 204.805 147.602 205.019 148.766C205.23 149.927 205.372 149.592 206.253 149.373C207.125 149.144 208.326 148.844 209.109 149.846C209.872 150.857 211.016 151.914 211.117 153.333C211.229 154.757 210.239 155.724 209.155 156.467C208.061 157.209 206.744 159.225 206.25 160.892C205.77 162.561 205.455 163.33 205.455 163.33L205.077 163.751C205.077 163.751 202.004 161.903 200.074 161.805C198.15 161.701 195.533 162.807 192.275 167.374C189.023 171.955 187.928 173.668 187.581 174.511C187.235 175.357 187.038 176.057 187.038 176.057L186.593 176.758C186.593 176.758 183.485 177.847 182.616 179.26C181.738 180.675 181.128 181.903 181.128 181.903C181.128 181.903 178.563 183.128 177.523 183.281C177.523 183.281 178.306 186.166 179.99 187.348C181.668 188.526 184.144 189.936 185.949 188.905C187.104 188.223 188.208 187.457 189.251 186.614C189.251 186.614 189.684 189.153 191.885 188.578C194.098 188.006 196.458 186.808 197.593 185.011C198.722 183.208 199.401 180.823 199.401 180.823C199.401 180.823 200.666 178.682 202.717 178.737C204.765 178.789 204.75 178.581 207.639 181.146C210.53 183.705 212.939 184.303 214.774 183.671C214.774 183.671 215.51 184.765 217.807 187.582C220.1 190.392 224.548 194.676 226.518 195.877C228.153 200.773 231.059 204.728 233.754 205.623C236.434 206.53 237.827 205.528 239.664 206.574C241.504 207.622 241.42 207.099 243.656 208.601C245.894 210.112 246.125 210.493 246.227 211.721C246.31 212.946 246.842 214.531 246.397 215.632C245.949 216.724 243.451 218.957 243.494 220.542C243.537 222.143 244.687 223.893 246.966 223.838C249.259 223.792 249.707 223.393 249.707 223.393C249.707 223.393 248.803 227.056 251.53 226.894C254.259 226.721 258.182 224.589 258.953 222.943C259.733 221.293 260.227 221.296 258.607 217.781C256.992 214.257 256.221 209.904 256.541 208.168C256.853 206.423 257.48 207.079 255.886 204.95C254.297 202.819 251.891 201.247 253.419 196.559C254.947 191.868 257.287 187.599 257.636 186.264C257.983 184.933 258.147 183.827 258.147 183.827C258.147 183.827 260.484 187.729 263.734 187.98C266.975 188.223 270.019 187.304 271.443 185.73C272.396 184.661 273.309 183.557 274.179 182.42C274.179 182.42 276.53 182.686 278.89 181.987C281.25 181.264 283.376 179.176 283.817 176.906Z" fill="white"/>
</g>
<mask id="mask4_730_18124" style="mask-type:luminance" maskUnits="userSpaceOnUse" x="103" y="53" width="274" height="214">
<path d="M103.578 53.332H376.418V266.665H103.578V53.332Z" fill="white"/>
</mask>
<g mask="url(#mask4_730_18124)">
<path d="M283.694 176.757C283.694 176.757 283.555 177.089 281.623 176.997C279.696 176.893 278.755 175.821 277.354 175.631C275.953 175.455 273.425 177.075 272.469 178.658C271.525 180.244 270.756 183.072 268.076 183.846C265.398 184.628 263.477 185.215 261.288 181.665L259.104 178.109C259.104 178.109 258.61 175.244 256.646 172.578C254.691 169.903 253.469 169.501 254.038 168.358C254.613 167.214 255.872 167.035 255.872 167.035C255.872 167.035 260.895 166.538 262.192 165.296C263.483 164.048 264.272 163.086 264.272 163.086C264.272 163.086 268.723 162.347 269.774 160.717C270.834 159.091 270.921 158.132 270.921 158.132C270.921 158.132 273.044 157.035 273.688 155.723C274.324 154.406 274.122 153.935 274.122 153.935C274.122 153.935 277.36 153.49 277.833 152.098C278.048 151.498 278.233 150.886 278.385 150.267C278.385 150.267 280.598 149.201 281.19 147.965C281.805 146.734 281.516 146.229 281.516 146.229C281.516 146.229 286.877 144.678 287.602 142.916C288.321 141.139 288.206 140.7 288.206 140.7C288.206 140.7 291.707 138.88 291.998 137.225C292.282 135.573 291.756 135.16 291.756 135.16C291.756 135.16 295.372 133.782 296.337 132.41C297.293 131.024 297.49 129.825 295.797 130.114C294.098 130.411 287.412 131.604 284.991 131.988C282.565 132.375 279.662 132.962 279.662 132.962C279.662 132.962 281.169 132.396 281.193 131.13C281.227 129.862 280.314 129.198 280.314 129.198C280.314 129.198 282.686 127.505 282.793 126.263C282.908 125.03 282.38 124.623 282.38 124.623C282.38 124.623 286.926 120.972 287.377 119.874C287.83 118.776 286.993 117.448 285.208 118.196C283.423 118.953 274.451 122.355 270.026 123.308C265.592 124.25 257.377 125.804 253.281 126.191C249.179 126.578 241.389 127.817 238.607 128.849C235.817 129.871 234.462 130.301 233.68 132.445C232.9 134.591 233.48 136.304 233.694 137.956C233.893 139.617 233.584 142.052 231.958 142.182C230.335 142.3 229.41 141.91 228.772 139.389C228.131 136.861 228.882 134.311 226.115 132.89C223.353 131.463 222.325 130.845 220.485 130.778C220.485 130.778 218.232 128.577 216.268 128.557C214.806 128.539 213.344 128.498 211.883 128.436C211.883 128.436 208.812 125.608 208.83 123.147C208.847 120.694 208.625 118.138 211.923 118.017C215.222 117.892 216.854 118.955 219.096 120.463C221.334 121.971 226.363 124.331 229.436 122.139C232.498 119.949 233.16 117.858 232.672 115.192C232.178 112.534 230.684 109.461 230.684 109.461C230.684 109.461 230.407 111.113 229.771 111.936C229.139 112.76 228.642 113.248 228.099 113.124C227.562 112.999 226.996 113.661 226.996 113.661C226.996 113.661 228.732 115.449 228.385 116.295C228.041 117.139 226.585 119.002 224.595 117.595C222.608 116.197 216.366 110.293 212.374 110.423C208.373 110.561 201.548 112.095 199.679 118.32C197.822 124.55 200.702 131.44 202.345 134.178C203.974 136.922 203.272 136.232 203.272 136.232C203.272 136.232 203.217 138.274 201.285 137.491L197.666 135.998C197.666 135.998 198.269 137.633 199.072 138.551C197.622 137.768 196.094 137.425 196.094 137.425C196.094 137.425 196.675 139.343 199.003 141.382C201.317 143.41 203.89 145.062 206.279 145.25C206.279 145.25 204.682 147.451 204.901 148.62C205.104 149.782 205.248 149.449 206.129 149.218C207.01 148.99 208.209 148.698 208.983 149.704C209.754 150.706 210.901 151.766 210.996 153.181C211.1 154.614 210.115 155.582 209.032 156.318C207.937 157.055 206.62 159.071 206.126 160.746C205.652 162.413 205.335 163.178 205.335 163.178L204.956 163.609C204.956 163.609 201.88 161.757 199.953 161.656C198.024 161.552 195.407 162.659 192.157 167.228C188.896 171.806 187.804 173.519 187.461 174.363C187.111 175.203 186.918 175.914 186.918 175.914L186.441 176.607C186.441 176.607 183.333 177.699 182.464 179.106C181.588 180.524 180.976 181.752 180.976 181.752C180.976 181.752 178.417 182.973 177.371 183.124C177.371 183.124 178.16 186.012 179.838 187.193C181.528 188.369 183.994 189.782 185.803 188.753C187.596 187.716 189.096 186.466 189.096 186.466C189.096 186.466 189.537 189.002 191.739 188.43C193.945 187.855 196.308 186.65 197.44 184.851C198.57 183.054 199.249 180.671 199.249 180.671C199.249 180.671 200.514 178.534 202.568 178.586C204.613 178.632 204.601 178.43 207.487 180.989C210.375 183.554 212.787 184.152 214.627 183.519C214.627 183.519 215.361 184.608 217.654 187.425C219.951 190.235 224.396 194.527 226.363 195.715C228.004 200.622 230.912 204.571 233.604 205.466C236.282 206.37 237.677 205.377 239.511 206.419C241.357 207.468 241.271 206.948 243.506 208.444C245.742 209.952 245.976 210.342 246.071 211.572C246.161 212.791 246.692 214.377 246.245 215.481C245.797 216.575 243.298 218.799 243.342 220.4C243.382 221.986 244.535 223.742 246.816 223.69C249.11 223.635 249.561 223.248 249.561 223.248C249.561 223.248 248.654 226.902 251.377 226.743C254.104 226.575 258.035 224.438 258.798 222.791C259.581 221.145 260.075 221.148 258.457 217.63C256.848 214.111 256.068 209.753 256.389 208.02C256.698 206.272 257.328 206.925 255.739 204.802C254.148 202.67 251.739 201.093 253.269 196.411C254.792 191.717 257.134 187.448 257.487 186.119C257.827 184.787 257.995 183.667 257.995 183.667C257.995 183.667 260.332 187.581 263.584 187.829C266.828 188.077 269.864 187.15 271.297 185.57C272.732 183.987 274.035 182.26 274.035 182.26C274.035 182.26 276.383 182.534 278.737 181.824C281.123 181.113 283.241 179.039 283.694 176.757ZM259.61 165.01C257.903 165.466 255.04 165.379 252.435 164.678C249.826 163.979 248.581 163.467 248.301 162.916C248.007 162.358 249.615 162.358 250.574 161.965C250.574 161.965 251.21 161.645 251.747 161.575C252.279 161.5 254.139 162.624 256.334 163.089C258.535 163.551 259.832 163.577 261.013 163.698C262.18 163.82 261.311 164.55 259.61 165.01ZM233.498 162.28C231.791 161.148 232.631 160.339 232.914 160.016C235.115 160.125 235.837 161.87 235.863 162.526C235.872 163.178 235.199 163.41 233.498 162.28ZM233.411 166.373C232.611 166.405 232.42 165.608 232.137 164.55C231.851 163.49 231.649 163.265 232.114 163.02C232.885 162.531 233.847 164.088 234.407 164.831C234.974 165.573 234.22 166.341 233.411 166.373ZM236.972 144.071C238.076 143.152 238.284 144.395 237.914 145.475C237.55 146.558 236.285 146.11 235.924 145.749C235.56 145.385 236.698 144.397 236.972 144.071ZM238.919 136.832C238.466 136.867 238.163 135.72 238.665 134.631C239.39 133.043 241.377 133.126 240.996 133.701C240.624 134.276 240.352 134.6 239.991 135.466C239.639 136.336 239.373 136.806 238.919 136.832ZM239.457 141.182C238.792 141.416 238.532 140.446 238.862 139.27C239.766 137.618 240.6 139.12 240.586 139.839C240.586 140.561 240.13 140.949 239.457 141.182ZM241.689 144.195C241.967 143.522 242.18 143.02 242.287 141.775C242.4 140.541 242.931 140.463 243.359 139.166C243.789 137.864 244.327 136.315 245.153 135.267C246.207 134.129 249.864 133.851 252.49 133.938C255.109 134.033 258.792 134.161 260.294 134.585C261.799 135.001 264.91 135.59 266.294 135.564C267.683 135.538 266.993 136.734 265.02 137.503C263.033 138.256 257.588 137.118 254.985 136.737C252.383 136.356 249.896 135.934 248.521 136.653C247.149 137.37 247.443 137.592 246.314 139.88C245.173 142.17 244.639 145.4 243.561 146.827C242.484 148.262 241.23 148.929 239.867 150.33C238.503 151.74 237.232 151.229 236.796 150.853C236.36 150.483 236.375 149.496 236.505 149.161C236.64 148.823 236.92 148.147 237.258 147.791C237.602 147.439 238.503 146.925 239.774 146.463C241.054 145.998 241.418 144.865 241.689 144.195ZM260.609 130.472C262.258 130.27 267.911 129.227 270.745 128.326C273.576 127.419 276.842 126.89 278.662 126.055C280.482 125.229 281.354 125.486 281.557 125.966C281.753 126.44 280.687 126.884 279.338 128.011C277.995 129.129 275.248 129.088 271.932 129.998C269.178 130.738 266.379 131.302 263.552 131.685C261.256 132.023 259.286 132.009 258.873 131.344C258.639 130.949 258.951 130.683 260.609 130.472ZM239.122 156.835C240.736 156.627 240.277 158.106 239.688 158.655C239.101 159.213 238.674 158.464 238.411 157.713C238.148 156.942 238.815 157.069 239.122 156.835ZM240.577 154.022C241.857 153.892 241.271 155.322 240.6 155.911C239.916 156.503 239.552 155.631 239.393 155.134C239.246 154.628 239.977 154.432 240.577 154.022ZM241.687 151.656C242.328 150.983 242.016 151.214 242.836 151.7C243.648 152.179 242.64 153.063 242.64 153.063L242.253 153.121C242.253 153.118 241.531 152.032 241.687 151.656ZM252.406 147.205C251.372 146.847 249.647 146.076 248.856 145.281C248.064 144.498 247.036 142.838 247.553 142.39C248.177 141.988 248.937 142.373 249.607 143.3C250.268 144.227 251.207 144.678 252.279 145.114C253.345 145.553 254.584 145.729 255.499 145.908C256.415 146.084 255.884 147.046 255.531 147.427C255.17 147.812 253.443 147.56 252.406 147.205ZM252.81 150.72C252.308 151.295 251.325 150.957 250.439 150.732C249.54 150.501 248.177 149.672 247.108 148.438C246.031 147.208 245.39 146.226 245.84 145.616C246.658 144.574 248.639 147.098 249.711 147.866C250.777 148.635 251.73 148.695 252.744 149.106C253.746 149.522 253.307 150.134 252.81 150.72ZM255.127 140.564C253.651 140.157 251.663 139.083 252.059 138.259C252.414 137.881 252.406 138.077 253.238 137.95C254.072 137.835 256.002 138.886 257.507 138.909C259.006 138.944 259.067 139.753 258.769 140.486C258.472 141.22 256.6 140.98 255.127 140.564ZM253.197 141.422C254.621 142.269 255.187 142.165 256.603 142.552C258.021 142.939 257.074 143.334 256.609 143.678C256.146 144.007 254.405 143.756 253.252 143.222C252.094 142.676 250.488 141.954 249.338 140.755C248.18 139.565 248.2 139.374 248.388 138.918C248.977 138.118 251.77 140.567 253.197 141.422ZM244.506 149.016C245.375 148.646 246.201 149.522 246.603 150.146C247.001 150.769 248.258 151.541 248.94 151.821C249.615 152.098 250.063 153.265 249.529 153.901C249.009 154.548 246.481 153.176 246.481 153.176C246.481 153.176 244.812 151.965 244.223 151.136C243.648 150.31 243.862 149.614 244.506 149.016ZM242.784 157.615C243.749 157.575 244.503 158.747 246.057 160.255C247.611 161.766 247.042 162.618 245.595 162.459C244.139 162.303 242.53 161.778 241.759 161.024C240.976 160.267 241.221 159.146 241.406 158.707C241.583 158.271 242.383 157.739 242.784 157.615ZM244.581 157.84C243.743 157.061 244.844 155.767 245.075 155.576C246.236 155.403 247.189 155.729 247.905 156.448C248.61 157.173 248.691 157.341 249.185 157.913C249.679 158.488 250.661 158.384 251.611 158.698C252.57 159.013 253.217 159.565 252.749 160.174C252.287 160.79 251.889 160.327 250.459 160.472C249.026 160.613 248.633 160.151 247.923 159.935C247.218 159.721 245.416 158.62 244.581 157.84ZM252.706 157.115C250.959 156.61 250.875 154.845 251.308 154.149C251.767 153.401 252.874 153.701 254.361 154.311C255.846 154.926 256.519 155.056 257.426 155.14C258.33 155.218 259.119 156.116 258.876 156.89C258.639 157.659 257.931 157.078 256.9 157.303C255.86 157.531 254.454 157.612 252.706 157.115ZM260.216 153.092C258.951 153.363 257.331 153.06 256.019 152.739C254.699 152.427 254.127 152.037 254.416 150.995C254.997 150.088 256.019 150.429 257.368 150.842C258.524 151.213 259.738 151.366 260.95 151.292C262.206 151.226 262.495 151.411 262.414 151.954C262.336 152.505 261.484 152.817 260.216 153.092ZM261.701 149.643C260.436 149.917 259.884 149.481 258.44 149.106C257.004 148.727 256.744 148.115 257.022 147.439C257.23 146.942 257.481 146.321 258.812 146.428C260.135 146.538 261.782 147.139 263.307 147.118C264.852 147.087 265.132 147.786 264.873 148.623C264.601 149.455 262.975 149.371 261.701 149.643ZM264.633 145.481C263.128 145.446 262.412 145.44 260.771 144.839C259.133 144.25 259.165 143.82 259.474 143.225C259.959 142.052 262.23 143.048 263.339 143.355C264.439 143.655 266.707 143.433 267.914 143.496C269.119 143.557 267.888 144.426 267.388 144.943C266.892 145.463 266.141 145.521 264.633 145.481ZM268.896 141.442C267.579 141.991 265.323 141.5 263.564 141.359C261.811 141.22 261.351 140.59 261.38 139.813C261.695 138.698 263.264 138.909 264.953 139.028C266.652 139.143 269.182 138.808 270.482 139.337C271.782 139.865 270.21 140.891 268.896 141.442ZM238.226 154.441C237.807 155.284 236.918 155.712 236.12 155.166C235.332 154.626 236.19 153.756 236.704 153.384C238.567 152.555 238.648 153.594 238.226 154.441ZM239.529 144.539C239.009 144.403 239.078 143.701 239.537 143.098C240.303 141.971 240.814 142.826 240.823 143.334C240.837 143.854 240.052 144.68 239.529 144.539ZM242.38 136.364C241.77 137.136 241.496 137.098 240.979 136.596C240.462 136.093 241.282 135.481 241.822 134.545C242.686 133.308 243.33 134.218 243.347 134.883C243.368 135.538 242.981 135.596 242.38 136.364ZM234.587 156.425C235.468 156.425 236.247 156.968 236.028 157.67C235.826 158.381 234.899 158.516 234.324 158.496C233.746 158.47 232.943 158.141 233.053 157.537C233.151 156.919 233.876 156.567 234.587 156.425ZM236.889 159.828C237.617 159.114 238.674 160.062 239.789 160.873C240.921 161.691 241.629 162.566 240.754 162.572C239.887 162.572 238.792 162.061 237.608 161.428C236.418 160.801 236.522 160.183 236.889 159.828ZM236.45 164.429C238.05 164.071 238.229 165.229 238.824 166.058C239.425 166.884 240.699 168.196 240.716 168.863C240.742 169.524 239.815 169.288 238.454 168.73C237.1 168.181 236.444 167.465 235.733 166.168C235.043 164.865 236.051 164.701 236.45 164.429ZM240.231 165.977C239.413 164.637 239.292 164.213 239.714 163.889C240.404 163.447 241.042 164.36 241.765 165.091C242.481 165.819 243.492 166.515 245.236 167.378C246.978 168.239 246.958 168.661 246.603 169.172C246.25 169.68 243.449 169.109 242.481 168.635C241.516 168.17 241.057 167.332 240.231 165.977ZM245.907 166.278C244.358 165.637 243.379 164.66 243.61 164.103C244.249 163.43 247.611 164.588 249.127 165.131C250.641 165.683 252.117 166.145 252.472 166.864C252.819 167.595 251.698 167.852 250.641 167.789C249.581 167.716 247.458 166.91 245.907 166.278ZM268.09 160.738C267.186 161.52 263.385 161.772 260.817 161.665C258.261 161.561 255.953 161.203 255.043 160.755C254.139 160.31 255.343 159.493 255.901 159.218C256.545 159.045 259.566 158.924 261.689 159.204C263.821 159.484 265.011 159.4 266.767 159.181C268.518 158.953 268.992 159.946 268.09 160.738ZM270.277 157.003C268.986 157.479 265.369 157.661 263.781 158.17C262.204 158.684 260.69 157.413 260.609 156.364C260.886 155.691 261.323 155.504 262.435 155.091C263.55 154.68 265.309 154.966 267.816 154.683C270.314 154.403 271.637 154.366 272.276 155.284C272.926 156.203 271.559 156.509 270.277 157.003ZM276.138 151.867C275.687 152.621 274.887 152.8 272.79 152.959C270.693 153.118 269.096 152.968 267.417 153.002C265.742 153.043 264.514 152.318 264.745 151.393C265.274 150.091 268.44 150.668 269.838 150.801C271.23 150.94 273.212 151.027 275.092 150.709C276.964 150.388 276.591 151.113 276.138 151.867ZM276.577 148.857C274.428 149.135 271.903 149.111 269.769 149.033C267.625 148.958 267.013 148.707 267.23 147.996C267.643 147.003 267.669 147.095 268.512 147C269.332 146.905 272.752 147.217 274.514 147C276.276 146.775 278.697 146.688 279.656 147.003C280.609 147.323 278.717 148.571 276.577 148.857ZM285.647 143.158C284.881 144.152 282.071 144.805 280.156 144.891C278.238 144.969 275.936 145.481 273.937 145.746C271.946 146.012 270.115 144.836 270.294 144.036C270.496 143.542 272.152 142.338 273.717 142.399C275.286 142.468 277.882 142.303 279.832 142.156C281.776 142.009 284.575 141.341 285.881 141.162C287.186 140.975 286.412 142.165 285.647 143.158ZM289.327 137.708C288.633 138.514 286.337 139.169 284.361 139.732C282.391 140.299 279.162 140.426 276.906 140.807C274.65 141.182 273.321 140.712 273.177 140.001C273.293 139.542 273.977 139.103 274.994 138.944C276.002 138.771 279.774 138.586 281.557 138.45C283.353 138.311 286.103 137.26 288.645 136.708C291.181 136.165 290.011 136.91 289.327 137.708ZM284.659 133.531C286.467 133.193 288.743 132.939 290.502 132.485C292.264 132.023 292.845 132.063 292.764 132.725C292.695 133.381 292.524 133.314 290.754 134.259C288.994 135.212 285.314 135.772 281.975 136.468C279.101 137.094 276.179 137.479 273.241 137.618C270.632 137.734 270.031 136.795 270.052 136.018C270.312 135.14 275.898 134.475 278.05 134.273C280.208 134.071 282.845 133.875 284.659 133.531ZM279.139 131.864C278.532 132.598 275.228 133.014 273.053 133.502C270.884 133.993 269.139 134.161 266.984 134.366C264.829 134.571 263.934 133.415 263.934 133.415C264.223 132.936 267.102 132.638 269.07 132.165C271.815 131.539 274.585 131.033 277.374 130.645C280.078 130.287 279.74 131.125 279.139 131.864ZM260.872 126.936C261.548 126.723 263.027 126.246 266.334 125.631C269.31 125.078 272.257 124.38 275.164 123.54C277.845 122.762 282.397 120.793 283.697 120.238C285.011 119.692 285.756 119.802 285.17 120.741C284.592 121.688 282.019 122.898 278.353 124.649C274.679 126.39 269.058 127.141 264.722 128.124C260.378 129.097 259.506 128.843 259.332 128.072C259.384 127.214 260.193 127.159 260.872 126.936ZM257.074 131.39C257.169 132.612 254.48 132.687 251.854 132.598C249.231 132.511 246.109 133.398 245.47 133.528C244.823 133.664 243.951 133.398 244.191 132.806L244.468 132.133C244.468 132.133 246.32 131.711 249.191 131.411C252.074 131.119 254.535 130.642 255.141 130.602C255.748 130.553 257.27 130.683 257.074 131.39ZM234.979 135.83C234.659 133.724 234.728 133.563 235.439 132.277C236.418 131.102 239.038 130.01 241.403 129.507C243.784 129.002 248.096 128.799 249.904 128.462C251.724 128.124 253.859 127.713 255.274 127.604C256.698 127.5 256.574 128.531 256.123 129.132C255.681 129.744 253.925 129.706 252.14 129.969C250.361 130.221 245.456 130.671 242.412 130.902C239.367 131.13 238.385 132.3 237.484 133.314C236.58 134.317 236.848 135.816 236.941 137.523C237.027 139.227 236.349 141.607 235.987 142.745C235.615 143.872 233.628 143.456 233.628 143.456C233.628 143.456 234.324 142.453 234.919 141.024C235.508 139.582 235.297 137.927 234.979 135.83ZM203.024 138.597C203.905 138.363 205.525 139.218 204.572 139.62C203.625 140.018 201.791 140.157 200.505 138.251C200.505 138.251 202.14 138.825 203.024 138.597ZM206.265 143.658C204.873 143.681 203.758 144.01 202.059 142.63C200.364 141.246 199.699 139.99 199.699 139.99C199.699 139.99 203.905 141.72 205 141.471C206.089 141.226 207.466 141.2 207.466 142.191C207.452 143.167 207.651 143.635 206.265 143.658ZM187.57 185.925C186.606 186.613 185.179 186.72 185.179 186.72C185.179 186.72 184.283 186.74 183.417 186.679C182.556 186.624 180.456 185.273 180.41 184.669C180.364 184.054 180.959 183.799 181.522 183.147C182.088 182.494 182.276 182.277 183.079 181.032C183.89 179.787 184.818 179.187 186.195 178.47C186.707 178.187 187.9 177.196 187.9 177.196C187.9 177.196 188.665 179.187 188.821 180.238C188.98 181.284 190.303 183.594 190.127 184.025C189.956 184.447 188.541 185.244 187.57 185.925ZM200.343 178.069C199.561 178.537 198.937 178.863 198.402 179.435C197.879 180.007 196.958 179.137 196.816 178.488C196.692 177.849 196.834 176.526 198.278 175.651C199.301 175.082 199.018 175.062 200.499 175.769C201.984 176.471 201.129 177.592 200.343 178.069ZM235.716 203.973C234.02 203.773 233.116 203.106 231.661 201.622C230.199 200.134 228.986 197.578 228.986 197.578C228.986 197.578 232.033 199.022 233.645 198.698C235.254 198.375 235.86 198.332 235.86 198.332C235.86 198.332 237.55 201.185 237.507 202.248C237.464 203.317 237.409 204.175 235.716 203.973ZM247.027 220.816C245.693 220.96 245.41 219.952 245.479 219.097C245.534 218.23 246.565 217.866 247.455 216.659C248.342 215.449 247.923 213.6 247.923 213.6C248.258 214.227 248.706 214.808 248.85 215.648C248.997 216.5 249.748 217.794 250.04 219.487C250.329 221.182 248.368 220.686 247.027 220.816ZM278.229 180.229C276.825 180.541 275.323 180.131 274.433 180.847C273.55 181.564 273.411 181.908 272.134 183.349C270.846 184.79 269.676 185.986 267.345 186.616C265.026 187.228 264.488 187.598 262.287 186.206C260.101 184.825 258.983 183.473 257.83 181.723C256.684 179.972 255.687 178.773 255.055 179.106C254.433 179.444 254.266 179.865 254.266 179.865C254.266 179.865 253.925 180.221 254.763 180.561C255.609 180.908 256.369 180.729 256.597 181.607C256.831 182.497 257.354 182.898 255.866 186.035C254.384 189.166 251.594 195.504 251.427 197.604C251.253 199.701 251.49 201.278 252.559 202.991C253.628 204.715 254.858 204.626 255 205.96C255.133 207.306 254.621 208.551 255.005 210.98C255.392 213.401 256.247 216.619 256.825 218.323C257.4 220.044 257.848 220.613 256.946 221.63C256.042 222.63 255.008 223.693 253.795 224.27C252.573 224.854 251.857 225.645 251.658 224.68C251.461 223.716 252.284 223.158 252.192 221.454C252.079 219.886 251.633 218.361 250.884 216.98C250.265 215.83 250.196 215.512 250.086 214.582C249.974 213.649 250.369 213.427 249.381 212.228C248.391 211.029 248.232 209.99 246.649 209.042C245.063 208.092 243.864 207.898 242.504 206.653C241.146 205.408 239.893 203.901 239.491 202.465C239.101 201.018 237.602 198.436 237.417 197.676C237.238 196.91 238.293 194.103 237.495 192.687C236.695 191.284 234.63 189.345 233.558 189.302C232.492 189.262 232.57 189.787 233.382 190.706C234.182 191.619 235.468 191.853 235.91 193.901C236.349 195.954 236.158 196.168 235.208 196.572C234.263 196.971 231.45 197.104 229.543 196.223C227.64 195.345 224.223 192.861 221.507 189.386C218.801 185.914 217.368 183.161 218.007 182.54C218.668 181.916 221.49 180.313 222.256 179.649C223.021 178.976 223.293 178.3 223.293 178.3C223.293 178.3 219.289 179.418 217.749 180.065C216.204 180.715 215.228 181.899 212.957 181.65C210.702 181.411 209.647 179.897 208.235 178.537C206.828 177.165 205.101 177.052 203.732 176.301C202.362 175.55 200.101 173.626 199.269 172.303C198.437 170.975 197.128 170.544 196.606 171.107C196.068 171.685 197.388 172.318 197.388 172.318C197.388 172.318 198.298 172.497 197.955 173.337C197.611 174.178 196.479 175.986 195.413 176.431C194.341 176.882 193.922 177.404 193.922 177.404C193.922 177.404 194.237 178.314 194.823 179.533C195.41 180.758 196.788 181.723 196.788 181.723C196.788 181.723 197.611 182.355 197.111 182.846C196.623 183.326 195.081 185.16 194.269 185.215C193.454 185.276 193.122 185.146 193.258 184.314C193.411 183.485 194.081 183.268 193.004 183.022C191.929 182.78 191.967 183.389 191.297 182.618C190.626 181.856 189.745 181.596 190.046 180.143C190.346 178.687 190.961 178.155 191.25 177.685C191.548 177.202 192.033 176.728 191.409 176.567C190.782 176.411 189.953 176.766 189.618 176.125C189.292 175.501 189.376 173.366 190.641 171.723C191.909 170.073 193.417 167.349 194.737 165.81C196.051 164.288 197.414 162.878 199.575 163.369C201.741 163.863 203.708 163.875 205.548 165.622C207.012 166.996 208.49 168.355 209.982 169.698C210.99 170.602 211.21 170.296 213.154 171.093C215.092 171.884 215.638 171.52 215.19 170.446C214.737 169.383 213.108 168.808 212.215 167.858C211.325 166.896 210.598 166.994 209.587 166.084C208.576 165.189 207.952 163.834 207.952 163.834C207.952 163.834 207.565 163.095 207.952 161.674C208.339 160.261 208.786 158.675 210.06 157.716C211.346 156.763 211.77 155.957 213.064 155.697C214.353 155.434 215.352 155.847 216.455 154.623C217.547 153.401 218.2 153.47 219.029 152.433C219.849 151.382 220.56 151.096 219.988 150.559C219.416 150.03 218.749 150.449 217.882 150.879C217.022 151.312 216.155 152.24 215.098 152.399C214.049 152.56 213.168 152.788 212.787 151.549C212.414 150.313 211.704 150.125 212.204 149.135C212.697 148.158 212.631 147.843 213.717 147.601C214.8 147.352 217.96 147.566 218.821 146.434C219.673 145.316 219.818 144.484 219.168 144.611C218.529 144.747 217.822 145.039 216.903 145.356C215.985 145.674 214.679 145.723 213.867 145.787C213.056 145.847 212.377 146.549 212.12 146.942C211.863 147.329 211.224 148.15 210.54 148.158C209.838 148.17 209.165 147.892 208.521 147.534C207.882 147.173 207.825 146.853 208.243 146.535C208.674 146.22 209.393 146.119 209.774 145.686C210.147 145.244 211.398 145.561 210.306 144.62C209.211 143.687 208.379 144.527 208.677 143.56C208.977 142.598 208.96 141.908 209.558 141.653C210.147 141.405 211.042 141.873 210.985 141.058C210.921 140.241 210.453 139.952 209.644 139.524C208.836 139.1 207.03 137.962 207.03 137.962C207.03 137.962 206.23 137.043 206.12 136.11C206.011 135.183 206.967 135.475 205.976 134.77C204.979 134.068 203.717 134.045 203.717 134.045C203.717 134.045 199.396 126.076 200.676 121.278C201.946 116.483 203.42 113.834 207.074 112.869C210.716 111.899 210.762 110.833 214.532 112.676C218.31 114.522 221.684 118.066 223.951 118.797C226.201 119.522 228.157 119.337 228.862 117.861C229.563 116.373 229.39 114.634 229.39 114.634L230.673 113.875C230.673 113.875 231.949 116.769 231.213 118.332C230.476 119.9 228.423 122.508 225.222 121.89C222.036 121.275 217.885 117.208 214.676 116.876C211.461 116.546 208.977 116.613 207.871 119.802C206.759 122.988 207.091 126.272 207.521 127.136C207.957 128.011 209.485 129.325 209.87 130.079C210.254 130.821 212.134 130.801 212.926 130.544C213.729 130.276 215.32 130.229 216.034 130.423C216.736 130.613 218.391 131.393 219.373 132.098C220.372 132.797 221.649 133.031 223.111 133.332C224.558 133.626 226.392 135.169 226.689 135.879C226.99 136.596 227.351 138.115 227.357 138.811C227.368 139.501 225.875 140.276 225.875 140.276C225.875 140.276 225.294 140.729 226.279 141.916C227.279 143.112 227.501 143.996 229.176 143.987C230.849 143.987 231.039 143.765 232.013 144.767C232.989 145.749 234.511 145.885 234.457 147.924C234.41 149.975 234.119 152.121 233.498 153.643C232.868 155.157 231.349 156.001 229.821 156.861C228.29 157.699 227.186 158.727 225.667 159.291C224.762 159.631 223.814 159.84 222.851 159.912C222.851 159.912 222.614 158.825 222.989 157.41C223.379 155.989 223.758 155.068 224.182 154.747C224.604 154.432 225.424 153.875 225.424 153.875C225.424 153.875 225.387 152.771 224.621 152.953C223.856 153.129 222.914 153.043 222.914 153.043C222.914 153.043 222.934 152.748 223.186 152.37C223.451 151.98 224.041 151.734 224.006 151.324C223.983 150.923 222.934 150.096 223.983 148.753C225.026 147.407 225.225 147.39 227.628 147.297C230.034 147.196 231.427 148.358 231.894 147.959C232.345 147.546 233.033 146.85 232.232 146.416C231.421 145.983 229.298 144.429 227.348 145.111C225.392 145.784 223.229 146.275 222.085 149.065C220.953 151.841 219.708 154.883 219.893 155.839C220.095 156.804 222.201 159.348 222.215 160.535C222.215 161.717 221.574 164.013 222.507 163.412C223.446 162.809 224.985 160.489 225.811 160.631C226.64 160.775 227.354 160.963 227.565 162.136C227.767 163.303 228.241 163.597 229.202 164.38C230.161 165.166 231.022 165.226 231.331 166.136C231.649 167.055 232.671 168.164 235.826 169.357C238.977 170.556 242.516 170.819 243.056 170.449C243.604 170.079 245.765 170.576 247.201 169.972C248.616 169.38 249.465 169.233 249.465 169.233C249.465 169.233 251.687 168.863 252.83 169.923C253.971 170.977 255.95 175.039 257.149 177.407C258.345 179.761 260.014 182.416 261.377 183.664C262.741 184.917 265.947 186.226 268.171 184.868C270.401 183.522 272.412 181.492 272.955 180.426C273.475 179.366 273.818 179.013 274.821 178.239C275.826 177.474 276.351 177.396 277.807 177.696C279.257 177.994 279.159 178.941 280.133 178.739C281.089 178.551 279.636 179.923 278.229 180.229Z" fill="black"/>
</g>
<mask id="mask5_730_18124" style="mask-type:luminance" maskUnits="userSpaceOnUse" x="103" y="53" width="274" height="214">
<path d="M103.578 53.332H376.418V266.665H103.578V53.332Z" fill="white"/>
</mask>
<g mask="url(#mask5_730_18124)">
<path d="M218.206 138.317C218.006 137.84 217.674 137.205 217.478 136.737C217.273 136.258 216.522 135.449 215.808 135.755C215.092 136.055 214.456 136.879 214.456 136.879C213.974 138.054 213.581 138.288 214.673 139.718C215.756 141.151 216.571 141.581 217.383 141.517C218.677 141.413 219.043 141.318 218.986 140.504C218.928 139.689 218.405 138.788 218.206 138.317Z" fill="black"/>
</g>
</svg>
