<svg width="480" height="320" viewBox="0 0 480 320" fill="none" xmlns="http://www.w3.org/2000/svg">
<path d="M97.5403 202.898C120.821 202.898 139.694 184.025 139.694 160.744C139.694 137.463 120.821 118.59 97.5403 118.59C74.2595 118.59 55.3867 137.463 55.3867 160.744C55.3867 184.025 74.2595 202.898 97.5403 202.898Z" fill="#1E6D21"/>
<path d="M88.6483 140.388C92.6522 140.388 95.8981 137.184 95.8981 133.231C95.8981 129.279 92.6522 126.074 88.6483 126.074C84.6443 126.074 81.3984 129.279 81.3984 133.231C81.3984 137.184 84.6443 140.388 88.6483 140.388Z" fill="white"/>
<path d="M74.0763 145.881C77.1755 145.881 79.6878 143.153 79.6878 139.788C79.6878 136.423 77.1755 133.695 74.0763 133.695C70.9772 133.695 68.4648 136.423 68.4648 139.788C68.4648 143.153 70.9772 145.881 74.0763 145.881Z" fill="white"/>
<path d="M65.2809 155.537C67.5028 155.537 69.304 153.581 69.304 151.169C69.304 148.756 67.5028 146.801 65.2809 146.801C63.059 146.801 61.2578 148.756 61.2578 151.169C61.2578 153.581 63.059 155.537 65.2809 155.537Z" fill="white"/>
<path d="M63.0375 164.336C64.8208 164.336 66.2665 162.766 66.2665 160.83C66.2665 158.894 64.8208 157.324 63.0375 157.324C61.2542 157.324 59.8086 158.894 59.8086 160.83C59.8086 162.766 61.2542 164.336 63.0375 164.336Z" fill="white"/>
<path d="M63.2121 171.232C64.5568 171.232 65.6469 170.049 65.6469 168.589C65.6469 167.129 64.5568 165.945 63.2121 165.945C61.8674 165.945 60.7773 167.129 60.7773 168.589C60.7773 170.049 61.8674 171.232 63.2121 171.232Z" fill="white"/>
<path d="M87.9623 143.84C76.3323 144.294 68.8083 151.33 67.2656 165.571C68.67 178.811 73.9789 178.218 78.1318 178.334C85.6685 178.599 91.7662 172.868 91.3647 168.865C91.4201 166.08 88.9078 159.412 89.41 153.944C89.3107 150.314 92.7769 146.612 87.9631 143.84H87.9623ZM95.2062 169.194C93.4273 173.535 90.1916 179.348 86.4104 180.059C85.0054 180.965 84.1819 182.23 83.9095 183.249C82.474 189.534 84.167 192.091 88.6092 194.158C93.3564 195.433 104.469 187.002 104.822 181.741C105.234 177.975 104.862 174.252 101.933 170.228C100.602 168.049 96.8092 166.723 95.0771 169.323" fill="white"/>
<path d="M104.071 145.872C107.942 146.379 115.303 142.19 113.872 152.712L113.039 193.474L148.568 143.113C154.804 128.994 164.877 129.594 173.404 125.52C180.56 121.638 182.345 112.384 183.753 102.754C179.522 108.202 179.852 116.066 171.335 118.276C147.449 121.764 141.79 136.147 135.806 145.182L124.178 162.269L122.353 144.837C119.831 136.291 109.435 139.906 104.07 145.872H104.071Z" fill="#F4AA00"/>
<path d="M95.8594 213.081C101.45 213.57 107.009 214.017 108.787 209.423L145.618 152.835C149.681 146.408 155.755 135.324 159.623 134.118C159.747 133.853 162.881 132.201 165.079 131.609C165.216 131.585 170.209 130.011 170.209 130.011C170.333 130.076 177.489 127.224 182.693 120.883C181.795 127.966 181.063 132.281 170.741 137.392L164.34 141.598C148.117 154.37 134.48 185.926 119.031 207.227L111.226 216.008C99.9959 219.262 99.1377 215.333 95.8594 213.081Z" fill="#F4AA00"/>
<path fill-rule="evenodd" clip-rule="evenodd" d="M189.733 160.286H201.723V161.244H201.067C200.629 161.244 199.965 161.446 199.14 161.85C198.307 162.245 197.508 162.799 196.834 163.564C196.154 164.329 195.27 165.514 194.268 167.212C191.55 171.718 188.707 176.148 185.989 180.645V189.505C185.989 191.673 186.216 193.018 186.695 193.573C187.327 194.304 188.345 194.666 189.733 194.666H190.852V195.633H176.263V194.666H177.474C178.912 194.666 179.964 194.229 180.561 193.312C180.94 192.758 181.125 191.488 181.125 189.505V181.141C178.029 176.173 174.79 171.298 171.693 166.33C170.6 164.573 169.817 163.514 169.438 163.068C169.043 162.623 168.193 162.118 166.956 161.505C166.628 161.32 166.123 161.245 165.492 161.245V160.286H180.183V161.245H179.426C178.635 161.245 177.903 161.421 177.247 161.816C176.565 162.22 176.229 162.791 176.229 163.539C176.229 164.17 176.751 165.279 177.777 166.935C180.132 170.751 182.589 174.5 184.946 178.316C187.158 174.668 189.472 171.079 191.685 167.422C192.687 165.775 193.208 164.581 193.208 163.775C193.208 163.278 193.073 162.867 192.855 162.472C192.602 162.077 192.24 161.799 191.786 161.555C191.34 161.345 190.65 161.245 189.733 161.245V160.286M202.809 180.745C202.783 184.293 203.641 187.067 205.316 189.093C206.998 191.11 208.993 192.11 211.273 192.11C212.796 192.11 214.125 191.682 215.252 190.807C216.364 189.942 217.314 188.496 218.063 186.403C218.324 186.58 218.593 186.747 218.854 186.924C218.501 189.303 217.432 191.446 215.757 193.414C214.083 195.389 211.904 196.364 209.346 196.364C206.561 196.364 204.154 195.263 202.202 193.002C200.226 190.765 199.216 187.79 199.216 184.007C199.216 179.913 200.25 176.753 202.278 174.433C204.281 172.147 206.864 171.021 209.927 171.021C212.544 171.021 214.689 171.894 216.338 173.651C217.996 175.441 218.854 177.804 218.854 180.745H202.809ZM202.809 179.233H213.553C213.478 177.694 213.293 176.627 213.023 176.005C212.602 175.03 211.98 174.265 211.147 173.71C210.314 173.156 209.422 172.87 208.513 172.87C207.116 172.87 205.837 173.407 204.761 174.542C203.658 175.677 202.985 177.223 202.809 179.233ZM228.682 163.909V171.752H234.101V173.575H228.682V189.059C228.682 190.606 228.917 191.64 229.338 192.194C229.767 192.741 230.305 193.002 230.987 193.002C231.542 193.002 232.081 192.824 232.611 192.456C233.141 192.11 233.545 191.597 233.823 190.883H234.807C234.243 192.59 233.385 193.851 232.3 194.716C231.222 195.591 230.103 196.019 228.959 196.019C228.149 196.023 227.356 195.79 226.679 195.347C225.947 194.893 225.383 194.279 225.03 193.447C224.685 192.632 224.5 191.354 224.5 189.631V173.575H220.823V172.719C221.757 172.323 222.707 171.684 223.692 170.76C224.642 169.835 225.526 168.784 226.275 167.532C226.645 166.876 227.226 165.657 227.891 163.909H228.682ZM242.262 158.563C242.969 158.563 243.583 158.815 244.087 159.32C244.559 159.84 244.819 160.462 244.819 161.194C244.819 161.925 244.559 162.547 244.087 163.068C243.855 163.32 243.573 163.519 243.258 163.654C242.943 163.789 242.604 163.856 242.262 163.85C241.919 163.856 241.58 163.789 241.265 163.654C240.95 163.519 240.668 163.32 240.436 163.068C240.191 162.822 239.997 162.53 239.867 162.208C239.737 161.886 239.673 161.541 239.678 161.194C239.678 160.463 239.931 159.84 240.436 159.32C240.915 158.815 241.521 158.563 242.262 158.563ZM244.365 171.046V190.236C244.365 191.724 244.474 192.716 244.693 193.203C244.895 193.708 245.198 194.094 245.627 194.33C246.031 194.565 246.797 194.7 247.89 194.7V195.633H236.607V194.7C237.752 194.7 238.509 194.591 238.888 194.355C239.275 194.12 239.602 193.758 239.83 193.237C240.057 192.716 240.158 191.724 240.158 190.236V181.031C240.158 178.451 240.074 176.761 239.931 176.005C239.805 175.45 239.619 175.063 239.376 174.828C239.123 174.618 238.761 174.517 238.333 174.517C237.853 174.517 237.297 174.643 236.607 174.904C236.498 174.592 236.372 174.282 236.254 173.97C238.576 172.979 240.924 172.038 243.246 171.045H244.365V171.046ZM283.002 183.797H269.7C268.934 185.663 268.135 187.513 267.369 189.37C266.797 190.757 266.511 191.775 266.511 192.456C266.511 193.002 266.763 193.464 267.268 193.859C267.747 194.279 268.842 194.532 270.482 194.666V195.633H259.67V194.666C261.109 194.405 262.026 194.069 262.455 193.649C263.305 192.808 264.298 191.127 265.316 188.572C269.279 178.846 273.444 169.196 277.398 159.47H278.29C282.203 169.306 286.334 179.048 290.246 188.883C291.197 191.261 292.106 192.758 292.881 193.464C293.663 194.178 294.765 194.591 296.153 194.666V195.633H282.599V194.666C283.97 194.591 284.904 194.364 285.383 193.969C285.863 193.573 286.09 193.077 286.09 192.505C286.09 191.749 285.754 190.53 285.081 188.883C284.399 187.185 283.683 185.495 283.002 183.798V183.797ZM282.295 181.873C280.385 177.089 278.374 172.357 276.465 167.582C274.504 172.357 272.451 177.089 270.482 181.873H282.295ZM304.256 158.563C304.597 158.557 304.936 158.622 305.251 158.752C305.567 158.882 305.852 159.075 306.09 159.32C306.561 159.84 306.822 160.462 306.822 161.194C306.822 161.925 306.561 162.547 306.09 163.068C305.585 163.598 304.971 163.85 304.256 163.85C303.55 163.85 302.944 163.598 302.439 163.068C302.193 162.822 302 162.53 301.87 162.208C301.74 161.886 301.676 161.541 301.681 161.194C301.681 160.463 301.934 159.84 302.439 159.32C302.918 158.815 303.532 158.563 304.256 158.563ZM306.368 171.046V190.236C306.368 191.724 306.469 192.716 306.696 193.203C306.889 193.708 307.201 194.094 307.63 194.33C308.034 194.565 308.8 194.7 309.885 194.7V195.633H298.61V194.7C299.754 194.7 300.512 194.591 300.89 194.355C301.269 194.12 301.605 193.758 301.825 193.237C302.052 192.716 302.161 191.724 302.161 190.236V181.031C302.161 178.451 302.085 176.761 301.934 176.005C301.808 175.45 301.622 175.063 301.37 174.828C301.117 174.618 300.764 174.517 300.334 174.517C299.856 174.517 299.292 174.643 298.611 174.904L298.256 173.97C300.579 172.979 302.927 172.038 305.249 171.045H306.368V171.046ZM319.569 171.046V176.417C321.488 172.836 323.49 171.045 325.543 171.045C326.485 171.045 327.251 171.331 327.849 171.911C328.454 172.516 328.757 173.189 328.757 173.946C328.757 174.618 328.53 175.19 328.101 175.66C327.909 175.886 327.668 176.066 327.398 176.188C327.127 176.311 326.833 176.371 326.536 176.366C325.948 176.366 325.282 176.064 324.559 175.459C323.827 174.845 323.263 174.568 322.91 174.568C322.607 174.568 322.27 174.752 321.917 175.089C321.168 175.803 320.36 176.963 319.569 178.611V190.051C319.569 191.387 319.721 192.371 320.049 193.051C320.268 193.522 320.655 193.91 321.21 194.229C321.765 194.54 322.582 194.7 323.616 194.7V195.633H311.736V194.7C312.93 194.7 313.797 194.515 314.37 194.12C314.799 193.834 315.084 193.388 315.253 192.791C315.328 192.505 315.388 191.648 315.388 190.261V181.006C315.388 178.215 315.328 176.576 315.236 176.03C315.11 175.509 314.899 175.122 314.622 174.878C314.328 174.643 313.94 174.517 313.511 174.517C312.981 174.517 312.392 174.643 311.736 174.904L311.483 173.97C313.814 172.979 316.17 172.038 318.501 171.045H319.569M338.038 158.563V190.236C338.038 191.724 338.139 192.716 338.367 193.203C338.544 193.673 338.884 194.064 339.325 194.305C339.755 194.565 340.596 194.7 341.791 194.7V195.633H330.407V194.7C331.475 194.7 332.207 194.591 332.586 194.355C332.965 194.12 333.276 193.758 333.503 193.237C333.721 192.716 333.831 191.724 333.831 190.236V168.549C333.831 165.859 333.78 164.194 333.654 163.564C333.529 162.967 333.351 162.555 333.099 162.32C332.821 162.077 332.485 161.976 332.081 161.976C331.652 161.976 331.088 162.101 330.407 162.396C330.264 162.085 330.12 161.791 329.977 161.479C332.275 160.488 334.597 159.554 336.894 158.563H338.038ZM350.373 158.563C351.088 158.563 351.702 158.815 352.199 159.32C352.677 159.825 352.94 160.498 352.931 161.194C352.94 161.89 352.677 162.562 352.199 163.068C351.702 163.598 351.088 163.85 350.373 163.85C349.666 163.85 349.052 163.598 348.555 163.068C348.051 162.547 347.789 161.925 347.789 161.194C347.789 160.463 348.051 159.84 348.555 159.32C349.027 158.815 349.64 158.563 350.373 158.563ZM352.477 171.046V190.236C352.477 191.724 352.586 192.716 352.805 193.203C353.007 193.708 353.318 194.094 353.747 194.33C354.152 194.565 354.908 194.7 356.002 194.7V195.633H344.727V194.7C345.871 194.7 346.628 194.591 347.008 194.355C347.386 194.12 347.714 193.758 347.941 193.237C348.168 192.716 348.269 191.724 348.269 190.236V181.031C348.269 178.451 348.194 176.761 348.042 176.005C347.916 175.45 347.74 175.063 347.487 174.828C347.235 174.618 346.881 174.517 346.452 174.517C345.964 174.517 345.409 174.643 344.727 174.904C344.61 174.592 344.483 174.282 344.374 173.97C346.696 172.979 349.035 172.038 351.366 171.045H352.477V171.046ZM365.653 176.106C368.329 172.719 370.971 171.045 373.436 171.045C374.699 171.045 375.792 171.348 376.7 172.012C377.609 172.676 378.358 173.761 378.88 175.249C379.25 176.291 379.444 177.88 379.444 180.04C379.436 183.439 379.436 186.837 379.444 190.236C379.444 191.749 379.57 192.766 379.788 193.312C379.966 193.758 380.276 194.094 380.705 194.33C381.11 194.565 381.875 194.7 382.986 194.7V195.633H371.51V194.7H371.988C373.074 194.7 373.84 194.515 374.269 194.17C374.698 193.834 374.984 193.338 375.161 192.69C375.236 192.421 375.253 191.614 375.253 190.236V180.46C375.253 178.3 374.976 176.711 374.445 175.719C373.899 174.744 372.948 174.256 371.661 174.256C369.658 174.256 367.63 175.358 365.653 177.644V190.236C365.653 191.85 365.754 192.841 365.93 193.237C366.157 193.733 366.494 194.095 366.923 194.33C367.328 194.565 368.16 194.7 369.431 194.7V195.633H357.955V194.7H358.458C359.646 194.7 360.436 194.381 360.866 193.758C361.27 193.153 361.471 191.985 361.471 190.236V181.376C361.471 178.51 361.421 176.761 361.294 176.131C361.168 175.509 360.966 175.097 360.714 174.854C360.436 174.618 360.082 174.517 359.646 174.517C359.165 174.517 358.61 174.643 357.954 174.904C357.828 174.592 357.693 174.282 357.575 173.97C359.897 172.979 362.245 172.038 364.567 171.045H365.652V176.106M388.733 180.745C388.715 184.293 389.566 187.067 391.24 189.093C392.923 191.11 394.917 192.11 397.198 192.11C398.72 192.11 400.049 191.682 401.177 190.807C402.287 189.942 403.246 188.496 403.987 186.403C404.248 186.58 404.517 186.747 404.778 186.924C404.424 189.303 403.365 191.446 401.682 193.414C400.008 195.389 397.828 196.364 395.27 196.364C392.485 196.364 390.079 195.263 388.127 193.002C386.149 190.765 385.14 187.79 385.14 184.007C385.14 179.913 386.175 176.753 388.202 174.433C390.205 172.147 392.788 171.021 395.859 171.021C398.467 171.021 400.613 171.894 402.271 173.651C403.919 175.441 404.778 177.804 404.778 180.745H388.733ZM388.733 179.233H399.477C399.401 177.694 399.225 176.627 398.947 176.005C398.526 175.03 397.904 174.265 397.071 173.71C396.238 173.156 395.346 172.87 394.437 172.87C393.04 172.87 391.762 173.407 390.685 174.542C389.582 175.677 388.909 177.223 388.732 179.233H388.733ZM422.868 171.046V179.182H422.035C421.404 176.627 420.554 174.895 419.57 173.97C418.569 173.046 417.264 172.592 415.725 172.592C414.529 172.592 413.588 172.894 412.856 173.55C412.132 174.214 411.77 174.904 411.77 175.685C411.77 176.652 412.056 177.484 412.577 178.191C413.1 178.905 414.185 179.636 415.775 180.46C416.995 181.082 418.24 181.679 419.469 182.309C422.876 184.058 424.618 186.303 424.618 189.109C424.618 191.278 423.819 193.01 422.237 194.355C420.647 195.7 418.838 196.364 416.861 196.364C415.447 196.364 413.814 196.112 411.997 195.582C411.442 195.398 410.987 195.322 410.626 195.322C410.247 195.322 409.935 195.557 409.717 196.003H408.876V187.47H409.717C410.188 189.9 411.097 191.74 412.426 192.976C413.756 194.212 415.271 194.825 416.911 194.825C418.081 194.825 419.048 194.464 419.772 193.758C420.504 193.044 420.865 192.219 420.865 191.228C420.865 190.026 420.453 189.017 419.645 188.202C418.821 187.386 417.18 186.369 414.732 185.1C412.283 183.83 410.667 182.738 409.919 181.712C409.17 180.712 408.774 179.468 408.774 177.955C408.774 176.005 409.448 174.374 410.752 173.029C412.039 171.684 413.747 171.045 415.825 171.045C416.734 171.045 417.854 171.248 419.14 171.65C420.007 171.911 420.587 172.038 420.865 172.038C421.143 172.038 421.345 171.987 421.497 171.86C421.648 171.726 421.833 171.466 422.035 171.045H422.868" fill="#1E6D21"/>
</svg>
