<svg width="480" height="320" viewBox="0 0 480 320" fill="none" xmlns="http://www.w3.org/2000/svg">
<path d="M55.3828 68.625H424.614V251.378H55.3828V68.625Z" fill="#00A2E3"/>
<path d="M346.098 112.758C356.763 115.509 361.792 131.755 357.334 149.057C352.876 166.358 340.604 178.136 329.93 175.363C319.265 172.633 314.233 156.365 318.703 139.085C323.161 121.783 335.421 109.983 346.098 112.758ZM322.358 99.5494C319.428 91.1843 311.472 85.1754 302.094 85.1754C291.054 85.1754 281.975 93.5176 280.785 104.239L262.262 217.827C262.173 218.602 262.13 219.38 262.131 220.159C262.131 232.023 271.739 241.601 283.582 241.601C294.685 241.601 303.822 233.168 304.912 222.34L311.318 183.156H311.306C314.224 186.569 317.646 189.584 321.576 192.072C345.724 207.437 379.501 197.53 397.035 169.969C414.556 142.386 409.174 107.629 385.038 92.2628C365.888 80.0904 340.692 83.7889 322.346 99.572L322.358 99.5494ZM215.508 104.239C216.696 93.5176 225.788 85.1754 236.827 85.1754C248.681 85.1754 258.268 94.7514 258.268 106.615C258.268 107.365 258.224 108.091 258.168 108.795L246.447 180.229C245.357 191.058 236.222 199.511 225.115 199.511C213.274 199.511 203.665 189.913 203.665 178.049C203.665 177.257 203.709 176.463 203.798 175.65V175.717L215.508 104.239ZM135.436 117.556H101.878C92.9407 117.556 85.6978 110.335 85.6978 101.377C85.6978 92.4394 92.9407 85.2193 101.878 85.2193L183.105 85.1751C192.042 85.1751 199.284 92.3952 199.284 101.31C199.284 106.417 196.94 110.93 193.285 113.902L131.463 167.063H169.534C178.461 167.063 185.713 174.306 185.713 183.243C185.713 192.181 178.461 199.424 169.534 199.424H83.8055C74.868 199.424 67.625 192.181 67.625 183.243C67.625 178.776 69.4297 174.726 72.3686 171.82V171.796L135.436 117.555" fill="white"/>
</svg>
