<svg width="480" height="320" viewBox="0 0 480 320" fill="none" xmlns="http://www.w3.org/2000/svg">
<mask id="mask0_730_18706" style="mask-type:luminance" maskUnits="userSpaceOnUse" x="38" y="94" width="403" height="131">
<path d="M38.7656 224.176H440.289V94.592H38.7656V224.176Z" fill="white"/>
</mask>
<g mask="url(#mask0_730_18706)">
<path d="M123.481 192.48C122.835 192.493 121.458 192.468 121.458 192.468V181.568C125.558 181.411 130.091 182.215 130.091 187.015C130.091 190.229 127.243 192.393 123.481 192.48ZM135.519 201.556L129.717 194.553C132.513 193.682 137.077 192.127 137.077 186.705C137.077 184.502 135.778 181.847 133.25 180.041C131.437 178.741 128.648 177.679 122.624 177.679C119.583 177.679 118.478 177.781 113.681 177.781C114.33 179.081 114.976 180.096 114.976 182.242V201.277C114.976 205.399 114.847 205.68 113.814 208.112H122.555C121.651 206.191 121.458 205.117 121.458 201.165V193.935H122.012L132.815 208.112H141.867C140.135 206.637 138.236 204.949 135.519 201.556ZM185.274 184.842C185.274 182.806 187.611 181.171 190.657 181.171C193.898 181.171 196.312 182.564 197.983 183.651L198.302 178.286C196.557 177.95 193.637 177.217 190.463 177.217C183.911 177.217 179.117 181.286 179.117 186.309C179.117 195.307 193.96 194.798 193.96 200.372C193.96 202.972 191.242 204.723 187.738 204.723C183.657 204.723 181.555 203.124 179.117 201.277L178.795 207.205C180.377 207.557 183.969 208.672 188.31 208.672C195.105 208.672 200.118 204.441 200.118 199.125C200.118 190.528 185.274 190.355 185.274 184.842ZM209.997 181.454H211.488C216.218 181.454 218.745 184.107 218.745 187.098C218.745 190.205 216.218 192.973 211.293 192.973H209.997L209.997 181.454ZM212.72 195.685C220.303 195.685 225.418 192.242 225.418 186.762C225.418 181.279 220.11 177.781 212.135 177.781H202.28C203.06 179.081 203.513 179.704 203.513 183.319V202.572C203.513 206.191 203.06 206.808 202.28 208.112H211.229C210.452 206.808 209.997 206.191 209.997 202.571V195.573C210.841 195.63 211.812 195.685 212.72 195.685ZM295.757 204.155C294.983 204.155 292.517 204.099 291.744 204.038V194.729C292.848 194.665 294.415 194.61 295.37 194.61C297.39 194.61 299.743 194.771 301.818 195.348L302.664 190.661H291.744V181.847C292.39 181.737 294.463 181.737 295.097 181.737C299.846 181.737 301.145 182.002 303.596 182.752L304.439 177.781H284.029C284.806 179.081 285.259 179.704 285.259 183.319V202.572C285.259 206.191 284.806 206.808 284.029 208.112H304.092L305.819 202.91C303.355 203.535 301.4 204.155 295.757 204.155M97.4836 204.038V194.729C98.5849 194.665 100.155 194.61 101.107 194.61C103.126 194.61 105.488 194.771 107.561 195.348L108.406 190.661H97.4833V181.847C98.1287 181.737 100.203 181.737 100.836 181.737C105.584 181.737 106.882 182.002 109.336 182.752L110.18 177.781H89.7695C90.5487 179.081 91.0028 179.704 91.0028 183.319V202.572C91.0028 206.191 90.5489 206.808 89.7695 208.112H109.835L111.56 202.91C109.099 203.535 107.141 204.155 101.497 204.155C100.723 204.155 98.26 204.099 97.4833 204.038M156.402 166.142L158.754 160.21C153.761 162.016 150.914 162.133 141.971 162.187L158.754 135.815H136.421L134.026 141.802C136.941 140.387 139.207 139.768 145.236 139.768C146.531 139.768 148.086 139.883 148.932 139.883L132.401 166.142H156.402Z" fill="#575756"/>
<path d="M177.655 163.162C170.445 163.162 166.013 158.19 166.013 150.718C166.013 143.705 169.843 138.797 176.99 138.797C183.807 138.797 188.635 144.29 188.635 151.124C188.635 157.845 184.136 163.162 177.655 163.162ZM196.086 151.01C196.086 142.069 187.905 134.709 177.587 134.709C166.608 134.709 158.558 142.126 158.558 151.124C158.558 160.122 166.879 167.252 177.121 167.252C187.838 167.252 196.086 160.006 196.086 151.01ZM206.906 139.769H210.733C219.869 139.769 223.175 145.923 223.175 151.062C223.175 158.575 218.448 162.188 210.015 162.188C208.981 162.188 207.944 162.076 206.906 162.076V139.769ZM199.19 166.143H207.944C211.252 166.143 216.825 166.143 220.063 164.955C227.452 162.244 230.367 156.71 230.367 151.345C230.367 147.11 228.035 141.747 223.175 138.635C220.285 136.796 216.859 135.817 209.564 135.817H199.19C199.967 137.117 200.421 137.736 200.421 141.351V160.609C200.421 164.218 199.967 164.84 199.19 166.144M233.613 166.143H242.556C241.777 164.84 241.324 164.218 241.324 160.609V141.351C241.324 137.735 241.777 137.117 242.556 135.816H233.613C234.388 137.117 234.843 137.735 234.843 141.351V160.609C234.843 164.218 234.388 164.84 233.613 166.144M293.35 166.706C299.73 166.706 303.686 164.83 305.598 164.676V159.086C303.396 160.779 300.626 162.755 294.497 162.755C287.081 162.755 282.306 158.126 282.306 150.835C282.306 143.662 287.015 139.202 294.886 139.202C300.626 139.202 302.876 140.84 304.175 141.689L304.56 135.982C304.56 135.982 304.047 136.043 303.785 136.043C302.485 136.043 299.953 135.248 295.217 135.248C283.227 135.248 275.009 142.027 275.009 151.457C275.009 159.532 282.329 166.706 293.349 166.706M259.856 141.758L264.26 153.225H255.433L259.856 141.758ZM251.308 164.732C251.302 163.769 251.811 162.415 252.194 161.454L253.859 157.251H265.822L267.48 161.454C267.872 162.415 268.266 163.373 268.272 164.329C268.281 164.955 267.964 165.577 267.637 166.143H276.897C275.584 164.393 274.864 162.98 273.876 160.553C273.876 160.553 265.746 141.359 264.975 139.543C264.206 137.725 263.852 136.296 263.852 135.816H255.814L256.921 137.117L246.992 160.553C245.909 163.09 244.752 164.898 243.984 166.143H251.645C251.387 165.634 251.312 165.35 251.308 164.732ZM258.516 192.804C258.516 185.633 263.226 181.173 271.098 181.173C276.837 181.173 279.086 182.811 280.383 183.659L280.773 177.954C280.773 177.954 280.255 178.008 279.994 178.008C278.696 178.008 276.16 177.219 271.427 177.219C259.436 177.219 251.222 184 251.222 193.426C251.222 201.502 258.54 208.673 269.559 208.673C275.938 208.673 279.896 206.805 281.807 206.647V201.055C279.606 202.748 276.837 204.725 270.71 204.725C263.286 204.725 258.516 200.093 258.516 192.804ZM236.078 183.728L240.476 195.195H231.65L236.078 183.728ZM241.195 181.513C240.426 179.695 240.066 178.266 240.066 177.785H232.034L233.143 179.082L223.203 202.523C222.114 205.059 220.959 206.867 220.192 208.113H227.861C227.6 207.604 227.533 207.319 227.53 206.702C227.521 205.738 228.026 204.387 228.413 203.425L230.078 199.22H242.041L243.698 203.425C244.091 204.387 244.486 205.343 244.493 206.307C244.498 206.924 244.179 207.545 243.857 208.113H253.104C251.8 206.358 251.082 204.951 250.093 202.523C250.093 202.523 241.966 183.323 241.195 181.513M71.2728 183.728L75.673 195.195H66.8486L71.2728 183.728ZM76.3933 181.513C75.6234 179.695 75.2649 178.266 75.2649 177.785H67.229L68.3392 179.082L58.3989 202.523C57.3115 205.059 56.157 206.867 55.3867 208.113H63.0598C62.797 207.604 62.7256 207.319 62.7227 206.702C62.714 205.738 63.2225 204.387 63.6082 203.425L65.2746 199.22H77.2398L78.8935 203.425C79.2868 204.387 79.6812 205.343 79.6858 206.307C79.6949 206.924 79.378 207.545 79.0532 208.113H88.3116C87.0021 206.358 86.2814 204.951 85.2914 202.523C85.2914 202.523 77.1589 183.323 76.3935 181.513M158.499 205.246C151.285 205.246 146.858 200.233 146.858 192.681C146.858 185.604 150.693 180.653 157.838 180.653C164.652 180.653 169.485 186.197 169.485 193.098C169.485 199.878 164.982 205.246 158.499 205.246ZM158.434 176.524C147.452 176.524 139.403 184.015 139.403 193.097C139.403 202.178 147.72 209.371 157.966 209.371C168.683 209.371 176.936 202.06 176.936 192.98C176.936 183.954 168.748 176.524 158.433 176.524" fill="#575756"/>
</g>
<path d="M325.359 208.285H424.621V110.626H325.359V208.285Z" fill="url(#paint0_radial_730_18706)"/>
<path d="M403.828 134.769C411.715 135.394 418.681 137.716 424.622 141.352V136.988C418.833 134.945 412.986 134.499 408.973 134.499C405.842 134.499 403.828 134.769 403.828 134.769Z" fill="url(#paint1_linear_730_18706)"/>
<path d="M348.504 188.351C348.504 188.351 348.882 198.771 354.161 208.285H359.099C354.223 202.942 350.545 196.28 348.504 188.351Z" fill="url(#paint2_linear_730_18706)"/>
<path d="M387.229 138.981C385.717 139.445 383.566 140.194 381.027 141.326C376.368 143.393 370.406 146.743 364.654 151.97C364.13 152.449 363.607 152.941 363.089 153.449C360.024 156.445 357.63 159.542 355.76 162.55C354.673 164.296 353.763 166.012 353.003 167.656C350.869 172.556 350.641 176.744 352.811 179.049C353.252 179.508 353.837 179.913 354.325 180.149C355.589 180.81 357.025 181.103 358.12 181.234L360.031 180.445C365.859 178.121 373.165 174.293 379.754 167.931C384.97 162.902 388.943 157.37 391.658 152.797C392.776 150.91 395.789 145.719 394.649 142.107C394.206 140.703 392.625 138.976 389.479 138.506C388.335 138.63 387.472 138.905 387.229 138.981Z" fill="url(#paint3_linear_730_18706)"/>
<path d="M352.631 135.087C350.075 135.087 348.794 136.896 348.785 139.37L348.802 160.528C356.414 141.407 372.194 138.739 386.097 138.395C386.363 138.39 386.627 138.384 386.88 138.38C387.655 138.371 388.388 138.384 389.029 138.452C389.183 138.466 389.329 138.487 389.477 138.509C392.622 138.979 394.203 140.706 394.647 142.11C395.787 145.722 392.774 150.913 391.655 152.8C388.941 157.372 384.968 162.905 379.751 167.934C373.163 174.296 365.857 178.124 360.028 180.448L358.118 181.237C358.616 181.294 359.327 181.32 359.688 181.328L359.914 181.237C365.663 178.919 373.545 174.847 380.218 168.396C387.623 161.25 392.517 153.134 394.946 148.067C398.358 141.342 399.852 135.087 399.852 135.087H352.631Z" fill="url(#paint4_linear_730_18706)"/>
<path d="M386.879 138.379C382.71 139.675 374.103 142.991 365.662 150.175C364.636 151.049 363.612 151.978 362.598 152.968C356.643 158.8 353.186 165 351.176 170.198C349.515 174.494 348.845 178.101 348.575 180.242C348.448 181.251 348.41 181.937 348.4 182.216C348.353 182.965 348.329 183.715 348.328 184.466V184.531H348.332L396.068 184.582C398.141 184.586 399.908 182.788 399.908 180.307V159.147C392.328 178.15 376.067 181.701 359.915 181.331C359.915 181.331 359.827 181.331 359.687 181.327C359.326 181.318 358.615 181.293 358.117 181.236C357.021 181.105 355.586 180.812 354.321 180.151C353.834 179.915 353.249 179.509 352.808 179.051C350.638 176.746 350.866 172.558 353 167.658C353.76 166.014 354.67 164.297 355.757 162.552C357.627 159.543 360.021 156.447 363.086 153.451C363.603 152.942 364.127 152.45 364.65 151.971C370.403 146.744 376.364 143.394 381.023 141.328C383.563 140.196 385.714 139.447 387.225 138.982C387.468 138.906 388.332 138.632 389.476 138.507C389.328 138.486 389.182 138.465 389.028 138.45C388.507 138.393 387.922 138.376 387.306 138.376C387.164 138.376 387.025 138.376 386.879 138.379Z" fill="url(#paint5_linear_730_18706)"/>
<defs>
<radialGradient id="paint0_radial_730_18706" cx="0" cy="0" r="1" gradientUnits="userSpaceOnUse" gradientTransform="translate(447.884 221.234) scale(146.974 145.755)">
<stop stop-color="#A1DAF8"/>
<stop offset="0.4341" stop-color="#0075A0"/>
<stop offset="0.9945" stop-color="#00386D"/>
<stop offset="1" stop-color="#00386D"/>
</radialGradient>
<linearGradient id="paint1_linear_730_18706" x1="404.073" y1="137.924" x2="424.321" y2="137.924" gradientUnits="userSpaceOnUse">
<stop stop-color="#878787"/>
<stop offset="0.6175" stop-color="#BDBCBC"/>
<stop offset="1" stop-color="white"/>
</linearGradient>
<linearGradient id="paint2_linear_730_18706" x1="353.801" y1="188.252" x2="353.801" y2="208.186" gradientUnits="userSpaceOnUse">
<stop stop-color="#706F6F"/>
<stop offset="1" stop-color="white"/>
</linearGradient>
<linearGradient id="paint3_linear_730_18706" x1="353.113" y1="178.301" x2="392.106" y2="139.567" gradientUnits="userSpaceOnUse">
<stop stop-color="white"/>
<stop offset="0.3224" stop-color="white"/>
<stop offset="1" stop-color="#575756"/>
</linearGradient>
<linearGradient id="paint4_linear_730_18706" x1="399.528" y1="158.207" x2="349.498" y2="158.207" gradientUnits="userSpaceOnUse">
<stop stop-color="#706F6F"/>
<stop offset="0.3169" stop-color="#A8A8A7"/>
<stop offset="1" stop-color="white"/>
</linearGradient>
<linearGradient id="paint5_linear_730_18706" x1="353.251" y1="156.241" x2="405.03" y2="174.272" gradientUnits="userSpaceOnUse">
<stop stop-color="#575756"/>
<stop offset="0.4426" stop-color="#B2B2B2"/>
<stop offset="0.7869" stop-color="white"/>
<stop offset="1" stop-color="white"/>
</linearGradient>
</defs>
</svg>
